<?xml version="1.0" encoding="utf-8"?>
<svg xmlns="http://www.w3.org/2000/svg" xmlns:xlink="http://www.w3.org/1999/xlink" width="600" height="400" viewBox="0 0 2400 1600">
<defs>
  <clipPath id="clip980">
    <rect x="0" y="0" width="2400" height="1600"/>
  </clipPath>
</defs>
<path clip-path="url(#clip980)" d="M0 1600 L2400 1600 L2400 8.88178e-14 L0 8.88178e-14  Z" fill="#ffffff" fill-rule="evenodd" fill-opacity="1"/>
<defs>
  <clipPath id="clip981">
    <rect x="247" y="106" width="2106" height="1318"/>
  </clipPath>
</defs>
<path clip-path="url(#clip980)" d="M219.38 1423.18 L2352.76 1423.18 L2352.76 106.192 L219.38 106.192  Z" fill="#ffffff" fill-rule="evenodd" fill-opacity="1"/>
<defs>
  <clipPath id="clip982">
    <rect x="219" y="106" width="2134" height="1318"/>
  </clipPath>
</defs>
<polyline clip-path="url(#clip982)" style="stroke:#000000; stroke-linecap:round; stroke-linejoin:round; stroke-width:2; stroke-opacity:0.1; fill:none" points="467.664,1423.18 467.664,106.192 "/>
<polyline clip-path="url(#clip982)" style="stroke:#000000; stroke-linecap:round; stroke-linejoin:round; stroke-width:2; stroke-opacity:0.1; fill:none" points="795.026,1423.18 795.026,106.192 "/>
<polyline clip-path="url(#clip982)" style="stroke:#000000; stroke-linecap:round; stroke-linejoin:round; stroke-width:2; stroke-opacity:0.1; fill:none" points="1122.39,1423.18 1122.39,106.192 "/>
<polyline clip-path="url(#clip982)" style="stroke:#000000; stroke-linecap:round; stroke-linejoin:round; stroke-width:2; stroke-opacity:0.1; fill:none" points="1449.75,1423.18 1449.75,106.192 "/>
<polyline clip-path="url(#clip982)" style="stroke:#000000; stroke-linecap:round; stroke-linejoin:round; stroke-width:2; stroke-opacity:0.1; fill:none" points="1777.11,1423.18 1777.11,106.192 "/>
<polyline clip-path="url(#clip982)" style="stroke:#000000; stroke-linecap:round; stroke-linejoin:round; stroke-width:2; stroke-opacity:0.1; fill:none" points="2104.47,1423.18 2104.47,106.192 "/>
<polyline clip-path="url(#clip982)" style="stroke:#000000; stroke-linecap:round; stroke-linejoin:round; stroke-width:2; stroke-opacity:0.1; fill:none" points="219.38,1423.18 2352.76,1423.18 "/>
<polyline clip-path="url(#clip982)" style="stroke:#000000; stroke-linecap:round; stroke-linejoin:round; stroke-width:2; stroke-opacity:0.1; fill:none" points="219.38,1001.31 2352.76,1001.31 "/>
<polyline clip-path="url(#clip982)" style="stroke:#000000; stroke-linecap:round; stroke-linejoin:round; stroke-width:2; stroke-opacity:0.1; fill:none" points="219.38,579.444 2352.76,579.444 "/>
<polyline clip-path="url(#clip982)" style="stroke:#000000; stroke-linecap:round; stroke-linejoin:round; stroke-width:2; stroke-opacity:0.1; fill:none" points="219.38,157.575 2352.76,157.575 "/>
<polyline clip-path="url(#clip980)" style="stroke:#000000; stroke-linecap:round; stroke-linejoin:round; stroke-width:4; stroke-opacity:1; fill:none" points="219.38,1423.18 2352.76,1423.18 "/>
<polyline clip-path="url(#clip980)" style="stroke:#000000; stroke-linecap:round; stroke-linejoin:round; stroke-width:4; stroke-opacity:1; fill:none" points="467.664,1423.18 467.664,1404.28 "/>
<polyline clip-path="url(#clip980)" style="stroke:#000000; stroke-linecap:round; stroke-linejoin:round; stroke-width:4; stroke-opacity:1; fill:none" points="795.026,1423.18 795.026,1404.28 "/>
<polyline clip-path="url(#clip980)" style="stroke:#000000; stroke-linecap:round; stroke-linejoin:round; stroke-width:4; stroke-opacity:1; fill:none" points="1122.39,1423.18 1122.39,1404.28 "/>
<polyline clip-path="url(#clip980)" style="stroke:#000000; stroke-linecap:round; stroke-linejoin:round; stroke-width:4; stroke-opacity:1; fill:none" points="1449.75,1423.18 1449.75,1404.28 "/>
<polyline clip-path="url(#clip980)" style="stroke:#000000; stroke-linecap:round; stroke-linejoin:round; stroke-width:4; stroke-opacity:1; fill:none" points="1777.11,1423.18 1777.11,1404.28 "/>
<polyline clip-path="url(#clip980)" style="stroke:#000000; stroke-linecap:round; stroke-linejoin:round; stroke-width:4; stroke-opacity:1; fill:none" points="2104.47,1423.18 2104.47,1404.28 "/>
<path clip-path="url(#clip980)" d="M458.046 1481.64 L465.685 1481.64 L465.685 1455.28 L457.375 1456.95 L457.375 1452.69 L465.639 1451.02 L470.315 1451.02 L470.315 1481.64 L477.954 1481.64 L477.954 1485.58 L458.046 1485.58 L458.046 1481.64 Z" fill="#000000" fill-rule="nonzero" fill-opacity="1" /><path clip-path="url(#clip980)" d="M789.679 1481.64 L805.998 1481.64 L805.998 1485.58 L784.054 1485.58 L784.054 1481.64 Q786.716 1478.89 791.299 1474.26 Q795.905 1469.61 797.086 1468.27 Q799.331 1465.74 800.211 1464.01 Q801.114 1462.25 801.114 1460.56 Q801.114 1457.8 799.169 1456.07 Q797.248 1454.33 794.146 1454.33 Q791.947 1454.33 789.493 1455.09 Q787.063 1455.86 784.285 1457.41 L784.285 1452.69 Q787.109 1451.55 789.563 1450.97 Q792.017 1450.39 794.054 1450.39 Q799.424 1450.39 802.618 1453.08 Q805.813 1455.77 805.813 1460.26 Q805.813 1462.39 805.003 1464.31 Q804.216 1466.2 802.109 1468.8 Q801.53 1469.47 798.429 1472.69 Q795.327 1475.88 789.679 1481.64 Z" fill="#000000" fill-rule="nonzero" fill-opacity="1" /><path clip-path="url(#clip980)" d="M1126.63 1466.95 Q1129.99 1467.66 1131.87 1469.93 Q1133.76 1472.2 1133.76 1475.53 Q1133.76 1480.65 1130.25 1483.45 Q1126.73 1486.25 1120.25 1486.25 Q1118.07 1486.25 1115.76 1485.81 Q1113.46 1485.39 1111.01 1484.54 L1111.01 1480.02 Q1112.95 1481.16 1115.27 1481.74 Q1117.58 1482.32 1120.11 1482.32 Q1124.51 1482.32 1126.8 1480.58 Q1129.11 1478.84 1129.11 1475.53 Q1129.11 1472.48 1126.96 1470.77 Q1124.83 1469.03 1121.01 1469.03 L1116.98 1469.03 L1116.98 1465.19 L1121.2 1465.19 Q1124.64 1465.19 1126.47 1463.82 Q1128.3 1462.43 1128.3 1459.84 Q1128.3 1457.18 1126.4 1455.77 Q1124.53 1454.33 1121.01 1454.33 Q1119.09 1454.33 1116.89 1454.75 Q1114.69 1455.16 1112.05 1456.04 L1112.05 1451.88 Q1114.71 1451.14 1117.03 1450.77 Q1119.37 1450.39 1121.43 1450.39 Q1126.75 1450.39 1129.85 1452.83 Q1132.95 1455.23 1132.95 1459.35 Q1132.95 1462.22 1131.31 1464.21 Q1129.67 1466.18 1126.63 1466.95 Z" fill="#000000" fill-rule="nonzero" fill-opacity="1" /><path clip-path="url(#clip980)" d="M1452.76 1455.09 L1440.95 1473.54 L1452.76 1473.54 L1452.76 1455.09 M1451.53 1451.02 L1457.41 1451.02 L1457.41 1473.54 L1462.34 1473.54 L1462.34 1477.43 L1457.41 1477.43 L1457.41 1485.58 L1452.76 1485.58 L1452.76 1477.43 L1437.16 1477.43 L1437.16 1472.92 L1451.53 1451.02 Z" fill="#000000" fill-rule="nonzero" fill-opacity="1" /><path clip-path="url(#clip980)" d="M1767.39 1451.02 L1785.74 1451.02 L1785.74 1454.96 L1771.67 1454.96 L1771.67 1463.43 Q1772.69 1463.08 1773.71 1462.92 Q1774.73 1462.73 1775.74 1462.73 Q1781.53 1462.73 1784.91 1465.9 Q1788.29 1469.08 1788.29 1474.49 Q1788.29 1480.07 1784.82 1483.17 Q1781.35 1486.25 1775.03 1486.25 Q1772.85 1486.25 1770.58 1485.88 Q1768.34 1485.51 1765.93 1484.77 L1765.93 1480.07 Q1768.01 1481.2 1770.24 1481.76 Q1772.46 1482.32 1774.93 1482.32 Q1778.94 1482.32 1781.28 1480.21 Q1783.61 1478.1 1783.61 1474.49 Q1783.61 1470.88 1781.28 1468.77 Q1778.94 1466.67 1774.93 1466.67 Q1773.06 1466.67 1771.18 1467.08 Q1769.33 1467.5 1767.39 1468.38 L1767.39 1451.02 Z" fill="#000000" fill-rule="nonzero" fill-opacity="1" /><path clip-path="url(#clip980)" d="M2104.88 1466.44 Q2101.73 1466.44 2099.88 1468.59 Q2098.05 1470.74 2098.05 1474.49 Q2098.05 1478.22 2099.88 1480.39 Q2101.73 1482.55 2104.88 1482.55 Q2108.03 1482.55 2109.85 1480.39 Q2111.71 1478.22 2111.71 1474.49 Q2111.71 1470.74 2109.85 1468.59 Q2108.03 1466.44 2104.88 1466.44 M2114.16 1451.78 L2114.16 1456.04 Q2112.4 1455.21 2110.59 1454.77 Q2108.81 1454.33 2107.05 1454.33 Q2102.42 1454.33 2099.97 1457.45 Q2097.54 1460.58 2097.19 1466.9 Q2098.56 1464.89 2100.62 1463.82 Q2102.68 1462.73 2105.15 1462.73 Q2110.36 1462.73 2113.37 1465.9 Q2116.4 1469.05 2116.4 1474.49 Q2116.4 1479.82 2113.26 1483.03 Q2110.11 1486.25 2104.88 1486.25 Q2098.88 1486.25 2095.71 1481.67 Q2092.54 1477.06 2092.54 1468.33 Q2092.54 1460.14 2096.43 1455.28 Q2100.32 1450.39 2106.87 1450.39 Q2108.63 1450.39 2110.41 1450.74 Q2112.21 1451.09 2114.16 1451.78 Z" fill="#000000" fill-rule="nonzero" fill-opacity="1" /><path clip-path="url(#clip980)" d="M1234.27 1522.08 L1234.27 1528.35 Q1230.61 1526.6 1227.36 1525.74 Q1224.11 1524.88 1221.09 1524.88 Q1215.84 1524.88 1212.97 1526.92 Q1210.14 1528.96 1210.14 1532.71 Q1210.14 1535.87 1212.02 1537.49 Q1213.93 1539.08 1219.21 1540.07 L1223.1 1540.86 Q1230.29 1542.23 1233.69 1545.7 Q1237.13 1549.14 1237.13 1554.93 Q1237.13 1561.84 1232.48 1565.4 Q1227.87 1568.97 1218.93 1568.97 Q1215.55 1568.97 1211.73 1568.2 Q1207.94 1567.44 1203.87 1565.94 L1203.87 1559.32 Q1207.79 1561.52 1211.54 1562.63 Q1215.3 1563.75 1218.93 1563.75 Q1224.43 1563.75 1227.42 1561.58 Q1230.42 1559.42 1230.42 1555.41 Q1230.42 1551.91 1228.25 1549.93 Q1226.12 1547.96 1221.22 1546.97 L1217.3 1546.21 Q1210.11 1544.78 1206.89 1541.72 Q1203.68 1538.67 1203.68 1533.22 Q1203.68 1526.92 1208.1 1523.29 Q1212.56 1519.66 1220.36 1519.66 Q1223.7 1519.66 1227.17 1520.27 Q1230.64 1520.87 1234.27 1522.08 Z" fill="#000000" fill-rule="nonzero" fill-opacity="1" /><path clip-path="url(#clip980)" d="M1252.7 1522.27 L1252.7 1532.4 L1264.76 1532.4 L1264.76 1536.95 L1252.7 1536.95 L1252.7 1556.3 Q1252.7 1560.66 1253.87 1561.9 Q1255.08 1563.14 1258.74 1563.14 L1264.76 1563.14 L1264.76 1568.04 L1258.74 1568.04 Q1251.96 1568.04 1249.39 1565.53 Q1246.81 1562.98 1246.81 1556.3 L1246.81 1536.95 L1242.51 1536.95 L1242.51 1532.4 L1246.81 1532.4 L1246.81 1522.27 L1252.7 1522.27 Z" fill="#000000" fill-rule="nonzero" fill-opacity="1" /><path clip-path="url(#clip980)" d="M1288.66 1550.12 Q1281.56 1550.12 1278.83 1551.75 Q1276.09 1553.37 1276.09 1557.29 Q1276.09 1560.4 1278.13 1562.25 Q1280.2 1564.07 1283.73 1564.07 Q1288.6 1564.07 1291.53 1560.63 Q1294.49 1557.16 1294.49 1551.43 L1294.49 1550.12 L1288.66 1550.12 M1300.34 1547.71 L1300.34 1568.04 L1294.49 1568.04 L1294.49 1562.63 Q1292.48 1565.88 1289.49 1567.44 Q1286.5 1568.97 1282.17 1568.97 Q1276.69 1568.97 1273.45 1565.91 Q1270.23 1562.82 1270.23 1557.67 Q1270.23 1551.65 1274.24 1548.6 Q1278.29 1545.54 1286.27 1545.54 L1294.49 1545.54 L1294.49 1544.97 Q1294.49 1540.93 1291.81 1538.73 Q1289.17 1536.5 1284.37 1536.5 Q1281.31 1536.5 1278.41 1537.23 Q1275.52 1537.97 1272.84 1539.43 L1272.84 1534.02 Q1276.06 1532.78 1279.08 1532.17 Q1282.11 1531.54 1284.97 1531.54 Q1292.7 1531.54 1296.52 1535.55 Q1300.34 1539.56 1300.34 1547.71 Z" fill="#000000" fill-rule="nonzero" fill-opacity="1" /><path clip-path="url(#clip980)" d="M1318.2 1522.27 L1318.2 1532.4 L1330.26 1532.4 L1330.26 1536.95 L1318.2 1536.95 L1318.2 1556.3 Q1318.2 1560.66 1319.38 1561.9 Q1320.59 1563.14 1324.25 1563.14 L1330.26 1563.14 L1330.26 1568.04 L1324.25 1568.04 Q1317.47 1568.04 1314.89 1565.53 Q1312.31 1562.98 1312.31 1556.3 L1312.31 1536.95 L1308.01 1536.95 L1308.01 1532.4 L1312.31 1532.4 L1312.31 1522.27 L1318.2 1522.27 Z" fill="#000000" fill-rule="nonzero" fill-opacity="1" /><path clip-path="url(#clip980)" d="M1368.46 1548.76 L1368.46 1551.62 L1341.53 1551.62 Q1341.91 1557.67 1345.16 1560.85 Q1348.44 1564 1354.26 1564 Q1357.63 1564 1360.79 1563.17 Q1363.97 1562.35 1367.09 1560.69 L1367.09 1566.23 Q1363.94 1567.57 1360.63 1568.27 Q1357.32 1568.97 1353.91 1568.97 Q1345.38 1568.97 1340.38 1564 Q1335.42 1559.04 1335.42 1550.57 Q1335.42 1541.82 1340.13 1536.69 Q1344.87 1531.54 1352.89 1531.54 Q1360.09 1531.54 1364.25 1536.18 Q1368.46 1540.8 1368.46 1548.76 M1362.6 1547.04 Q1362.54 1542.23 1359.89 1539.37 Q1357.28 1536.5 1352.96 1536.5 Q1348.05 1536.5 1345.09 1539.27 Q1342.17 1542.04 1341.72 1547.07 L1362.6 1547.04 Z" fill="#000000" fill-rule="nonzero" fill-opacity="1" /><polyline clip-path="url(#clip980)" style="stroke:#000000; stroke-linecap:round; stroke-linejoin:round; stroke-width:4; stroke-opacity:1; fill:none" points="219.38,1423.18 219.38,106.192 "/>
<polyline clip-path="url(#clip980)" style="stroke:#000000; stroke-linecap:round; stroke-linejoin:round; stroke-width:4; stroke-opacity:1; fill:none" points="219.38,1423.18 238.278,1423.18 "/>
<polyline clip-path="url(#clip980)" style="stroke:#000000; stroke-linecap:round; stroke-linejoin:round; stroke-width:4; stroke-opacity:1; fill:none" points="219.38,1001.31 238.278,1001.31 "/>
<polyline clip-path="url(#clip980)" style="stroke:#000000; stroke-linecap:round; stroke-linejoin:round; stroke-width:4; stroke-opacity:1; fill:none" points="219.38,579.444 238.278,579.444 "/>
<polyline clip-path="url(#clip980)" style="stroke:#000000; stroke-linecap:round; stroke-linejoin:round; stroke-width:4; stroke-opacity:1; fill:none" points="219.38,157.575 238.278,157.575 "/>
<path clip-path="url(#clip980)" d="M126.205 1408.98 Q122.593 1408.98 120.765 1412.54 Q118.959 1416.08 118.959 1423.21 Q118.959 1430.32 120.765 1433.89 Q122.593 1437.43 126.205 1437.43 Q129.839 1437.43 131.644 1433.89 Q133.473 1430.32 133.473 1423.21 Q133.473 1416.08 131.644 1412.54 Q129.839 1408.98 126.205 1408.98 M126.205 1405.27 Q132.015 1405.27 135.07 1409.88 Q138.149 1414.46 138.149 1423.21 Q138.149 1431.94 135.07 1436.55 Q132.015 1441.13 126.205 1441.13 Q120.394 1441.13 117.316 1436.55 Q114.26 1431.94 114.26 1423.21 Q114.26 1414.46 117.316 1409.88 Q120.394 1405.27 126.205 1405.27 Z" fill="#000000" fill-rule="nonzero" fill-opacity="1" /><path clip-path="url(#clip980)" d="M146.366 1434.58 L151.251 1434.58 L151.251 1440.46 L146.366 1440.46 L146.366 1434.58 Z" fill="#000000" fill-rule="nonzero" fill-opacity="1" /><path clip-path="url(#clip980)" d="M171.436 1408.98 Q167.825 1408.98 165.996 1412.54 Q164.19 1416.08 164.19 1423.21 Q164.19 1430.32 165.996 1433.89 Q167.825 1437.43 171.436 1437.43 Q175.07 1437.43 176.876 1433.89 Q178.704 1430.32 178.704 1423.21 Q178.704 1416.08 176.876 1412.54 Q175.07 1408.98 171.436 1408.98 M171.436 1405.27 Q177.246 1405.27 180.301 1409.88 Q183.38 1414.46 183.38 1423.21 Q183.38 1431.94 180.301 1436.55 Q177.246 1441.13 171.436 1441.13 Q165.626 1441.13 162.547 1436.55 Q159.491 1431.94 159.491 1423.21 Q159.491 1414.46 162.547 1409.88 Q165.626 1405.27 171.436 1405.27 Z" fill="#000000" fill-rule="nonzero" fill-opacity="1" /><path clip-path="url(#clip980)" d="M127.431 987.11 Q123.82 987.11 121.992 990.675 Q120.186 994.217 120.186 1001.35 Q120.186 1008.45 121.992 1012.02 Q123.82 1015.56 127.431 1015.56 Q131.066 1015.56 132.871 1012.02 Q134.7 1008.45 134.7 1001.35 Q134.7 994.217 132.871 990.675 Q131.066 987.11 127.431 987.11 M127.431 983.407 Q133.242 983.407 136.297 988.013 Q139.376 992.596 139.376 1001.35 Q139.376 1010.07 136.297 1014.68 Q133.242 1019.26 127.431 1019.26 Q121.621 1019.26 118.543 1014.68 Q115.487 1010.07 115.487 1001.35 Q115.487 992.596 118.543 988.013 Q121.621 983.407 127.431 983.407 Z" fill="#000000" fill-rule="nonzero" fill-opacity="1" /><path clip-path="url(#clip980)" d="M147.593 1012.71 L152.478 1012.71 L152.478 1018.59 L147.593 1018.59 L147.593 1012.71 Z" fill="#000000" fill-rule="nonzero" fill-opacity="1" /><path clip-path="url(#clip980)" d="M163.473 1014.66 L171.112 1014.66 L171.112 988.291 L162.802 989.958 L162.802 985.698 L171.065 984.032 L175.741 984.032 L175.741 1014.66 L183.38 1014.66 L183.38 1018.59 L163.473 1018.59 L163.473 1014.66 Z" fill="#000000" fill-rule="nonzero" fill-opacity="1" /><path clip-path="url(#clip980)" d="M127.802 565.242 Q124.191 565.242 122.362 568.807 Q120.556 572.349 120.556 579.478 Q120.556 586.585 122.362 590.15 Q124.191 593.691 127.802 593.691 Q131.436 593.691 133.242 590.15 Q135.07 586.585 135.07 579.478 Q135.07 572.349 133.242 568.807 Q131.436 565.242 127.802 565.242 M127.802 561.539 Q133.612 561.539 136.667 566.145 Q139.746 570.728 139.746 579.478 Q139.746 588.205 136.667 592.812 Q133.612 597.395 127.802 597.395 Q121.992 597.395 118.913 592.812 Q115.857 588.205 115.857 579.478 Q115.857 570.728 118.913 566.145 Q121.992 561.539 127.802 561.539 Z" fill="#000000" fill-rule="nonzero" fill-opacity="1" /><path clip-path="url(#clip980)" d="M147.964 590.844 L152.848 590.844 L152.848 596.724 L147.964 596.724 L147.964 590.844 Z" fill="#000000" fill-rule="nonzero" fill-opacity="1" /><path clip-path="url(#clip980)" d="M167.061 592.788 L183.38 592.788 L183.38 596.724 L161.436 596.724 L161.436 592.788 Q164.098 590.034 168.681 585.404 Q173.288 580.751 174.468 579.409 Q176.714 576.886 177.593 575.15 Q178.496 573.39 178.496 571.701 Q178.496 568.946 176.551 567.21 Q174.63 565.474 171.528 565.474 Q169.329 565.474 166.876 566.238 Q164.445 567.002 161.667 568.552 L161.667 563.83 Q164.491 562.696 166.945 562.117 Q169.399 561.539 171.436 561.539 Q176.806 561.539 180.001 564.224 Q183.195 566.909 183.195 571.4 Q183.195 573.529 182.385 575.451 Q181.598 577.349 179.491 579.941 Q178.913 580.613 175.811 583.83 Q172.709 587.025 167.061 592.788 Z" fill="#000000" fill-rule="nonzero" fill-opacity="1" /><path clip-path="url(#clip980)" d="M126.853 143.374 Q123.242 143.374 121.413 146.939 Q119.607 150.481 119.607 157.61 Q119.607 164.717 121.413 168.281 Q123.242 171.823 126.853 171.823 Q130.487 171.823 132.292 168.281 Q134.121 164.717 134.121 157.61 Q134.121 150.481 132.292 146.939 Q130.487 143.374 126.853 143.374 M126.853 139.67 Q132.663 139.67 135.718 144.277 Q138.797 148.86 138.797 157.61 Q138.797 166.337 135.718 170.943 Q132.663 175.527 126.853 175.527 Q121.043 175.527 117.964 170.943 Q114.908 166.337 114.908 157.61 Q114.908 148.86 117.964 144.277 Q121.043 139.67 126.853 139.67 Z" fill="#000000" fill-rule="nonzero" fill-opacity="1" /><path clip-path="url(#clip980)" d="M147.015 168.976 L151.899 168.976 L151.899 174.855 L147.015 174.855 L147.015 168.976 Z" fill="#000000" fill-rule="nonzero" fill-opacity="1" /><path clip-path="url(#clip980)" d="M176.251 156.221 Q179.607 156.939 181.482 159.207 Q183.38 161.476 183.38 164.809 Q183.38 169.925 179.862 172.726 Q176.343 175.527 169.862 175.527 Q167.686 175.527 165.371 175.087 Q163.079 174.67 160.626 173.814 L160.626 169.3 Q162.57 170.434 164.885 171.013 Q167.2 171.592 169.723 171.592 Q174.121 171.592 176.413 169.855 Q178.727 168.119 178.727 164.809 Q178.727 161.754 176.575 160.041 Q174.445 158.305 170.626 158.305 L166.598 158.305 L166.598 154.462 L170.811 154.462 Q174.26 154.462 176.089 153.096 Q177.917 151.707 177.917 149.115 Q177.917 146.453 176.019 145.041 Q174.144 143.606 170.626 143.606 Q168.704 143.606 166.505 144.022 Q164.306 144.439 161.667 145.319 L161.667 141.152 Q164.329 140.411 166.644 140.041 Q168.982 139.67 171.042 139.67 Q176.366 139.67 179.468 142.101 Q182.57 144.508 182.57 148.629 Q182.57 151.499 180.926 153.49 Q179.283 155.457 176.251 156.221 Z" fill="#000000" fill-rule="nonzero" fill-opacity="1" /><path clip-path="url(#clip980)" d="M21.7677 926.375 L39.6235 926.375 L39.6235 918.29 Q39.6235 913.803 37.3 911.352 Q34.9765 908.901 30.6797 908.901 Q26.4147 908.901 24.0912 911.352 Q21.7677 913.803 21.7677 918.29 L21.7677 926.375 M16.4842 932.804 L16.4842 918.29 Q16.4842 910.302 20.1126 906.227 Q23.7092 902.122 30.6797 902.122 Q37.7138 902.122 41.3104 906.227 Q44.907 910.302 44.907 918.29 L44.907 926.375 L64.0042 926.375 L64.0042 932.804 L16.4842 932.804 Z" fill="#000000" fill-rule="nonzero" fill-opacity="1" /><path clip-path="url(#clip980)" d="M33.8307 874.24 Q33.2578 875.226 33.0032 876.404 Q32.7167 877.55 32.7167 878.95 Q32.7167 883.916 35.9632 886.589 Q39.1779 889.231 45.2253 889.231 L64.0042 889.231 L64.0042 895.119 L28.3562 895.119 L28.3562 889.231 L33.8944 889.231 Q30.6479 887.385 29.0883 884.425 Q27.4968 881.465 27.4968 877.232 Q27.4968 876.627 27.5923 875.895 Q27.656 875.163 27.8151 874.272 L33.8307 874.24 Z" fill="#000000" fill-rule="nonzero" fill-opacity="1" /><path clip-path="url(#clip980)" d="M32.4621 855.716 Q32.4621 860.426 36.1542 863.163 Q39.8145 865.901 46.212 865.901 Q52.6095 865.901 56.3017 863.195 Q59.9619 860.458 59.9619 855.716 Q59.9619 851.037 56.2698 848.3 Q52.5777 845.562 46.212 845.562 Q39.8781 845.562 36.186 848.3 Q32.4621 851.037 32.4621 855.716 M27.4968 855.716 Q27.4968 848.077 32.4621 843.716 Q37.4273 839.356 46.212 839.356 Q54.9649 839.356 59.9619 843.716 Q64.9272 848.077 64.9272 855.716 Q64.9272 863.386 59.9619 867.747 Q54.9649 872.075 46.212 872.075 Q37.4273 872.075 32.4621 867.747 Q27.4968 863.386 27.4968 855.716 Z" fill="#000000" fill-rule="nonzero" fill-opacity="1" /><path clip-path="url(#clip980)" d="M46.212 804.058 Q39.7508 804.058 36.0905 806.731 Q32.3984 809.373 32.3984 814.02 Q32.3984 818.667 36.0905 821.341 Q39.7508 823.983 46.212 823.983 Q52.6732 823.983 56.3653 821.341 Q60.0256 818.667 60.0256 814.02 Q60.0256 809.373 56.3653 806.731 Q52.6732 804.058 46.212 804.058 M33.7671 823.983 Q30.5842 822.136 29.0564 819.336 Q27.4968 816.503 27.4968 812.588 Q27.4968 806.095 32.6531 802.053 Q37.8093 797.979 46.212 797.979 Q54.6147 797.979 59.771 802.053 Q64.9272 806.095 64.9272 812.588 Q64.9272 816.503 63.3994 819.336 Q61.8398 822.136 58.657 823.983 L64.0042 823.983 L64.0042 829.871 L14.479 829.871 L14.479 823.983 L33.7671 823.983 Z" fill="#000000" fill-rule="nonzero" fill-opacity="1" /><path clip-path="url(#clip980)" d="M46.0847 772.07 Q46.0847 779.168 47.7079 781.905 Q49.3312 784.642 53.2461 784.642 Q56.3653 784.642 58.2114 782.605 Q60.0256 780.537 60.0256 777.004 Q60.0256 772.134 56.5881 769.206 Q53.1188 766.246 47.3897 766.246 L46.0847 766.246 L46.0847 772.07 M43.6657 760.389 L64.0042 760.389 L64.0042 766.246 L58.5933 766.246 Q61.8398 768.251 63.3994 771.243 Q64.9272 774.235 64.9272 778.563 Q64.9272 784.038 61.8716 787.284 Q58.7843 790.499 53.6281 790.499 Q47.6125 790.499 44.5569 786.489 Q41.5014 782.446 41.5014 774.457 L41.5014 766.246 L40.9285 766.246 Q36.8862 766.246 34.6901 768.919 Q32.4621 771.561 32.4621 776.367 Q32.4621 779.423 33.1941 782.319 Q33.9262 785.215 35.3903 787.889 L29.9795 787.889 Q28.7381 784.674 28.1334 781.651 Q27.4968 778.627 27.4968 775.762 Q27.4968 768.028 31.5072 764.209 Q35.5176 760.389 43.6657 760.389 Z" fill="#000000" fill-rule="nonzero" fill-opacity="1" /><path clip-path="url(#clip980)" d="M46.212 722.736 Q39.7508 722.736 36.0905 725.41 Q32.3984 728.051 32.3984 732.698 Q32.3984 737.345 36.0905 740.019 Q39.7508 742.661 46.212 742.661 Q52.6732 742.661 56.3653 740.019 Q60.0256 737.345 60.0256 732.698 Q60.0256 728.051 56.3653 725.41 Q52.6732 722.736 46.212 722.736 M33.7671 742.661 Q30.5842 740.815 29.0564 738.014 Q27.4968 735.181 27.4968 731.266 Q27.4968 724.773 32.6531 720.731 Q37.8093 716.657 46.212 716.657 Q54.6147 716.657 59.771 720.731 Q64.9272 724.773 64.9272 731.266 Q64.9272 735.181 63.3994 738.014 Q61.8398 740.815 58.657 742.661 L64.0042 742.661 L64.0042 748.549 L14.479 748.549 L14.479 742.661 L33.7671 742.661 Z" fill="#000000" fill-rule="nonzero" fill-opacity="1" /><path clip-path="url(#clip980)" d="M28.3562 706.949 L28.3562 701.093 L64.0042 701.093 L64.0042 706.949 L28.3562 706.949 M14.479 706.949 L14.479 701.093 L21.895 701.093 L21.895 706.949 L14.479 706.949 Z" fill="#000000" fill-rule="nonzero" fill-opacity="1" /><path clip-path="url(#clip980)" d="M14.479 688.839 L14.479 682.982 L64.0042 682.982 L64.0042 688.839 L14.479 688.839 Z" fill="#000000" fill-rule="nonzero" fill-opacity="1" /><path clip-path="url(#clip980)" d="M28.3562 670.728 L28.3562 664.872 L64.0042 664.872 L64.0042 670.728 L28.3562 670.728 M14.479 670.728 L14.479 664.872 L21.895 664.872 L21.895 670.728 L14.479 670.728 Z" fill="#000000" fill-rule="nonzero" fill-opacity="1" /><path clip-path="url(#clip980)" d="M18.2347 646.825 L28.3562 646.825 L28.3562 634.762 L32.9077 634.762 L32.9077 646.825 L52.2594 646.825 Q56.6199 646.825 57.8613 645.647 Q59.1026 644.438 59.1026 640.778 L59.1026 634.762 L64.0042 634.762 L64.0042 640.778 Q64.0042 647.557 61.4897 650.135 Q58.9434 652.713 52.2594 652.713 L32.9077 652.713 L32.9077 657.01 L28.3562 657.01 L28.3562 652.713 L18.2347 652.713 L18.2347 646.825 Z" fill="#000000" fill-rule="nonzero" fill-opacity="1" /><path clip-path="url(#clip980)" d="M67.3143 612.227 Q73.68 614.71 75.6216 617.065 Q77.5631 619.421 77.5631 623.367 L77.5631 628.046 L72.6615 628.046 L72.6615 624.609 Q72.6615 622.19 71.5157 620.853 Q70.3699 619.516 66.1048 617.893 L63.4312 616.842 L28.3562 631.261 L28.3562 625.054 L56.238 613.914 L28.3562 602.774 L28.3562 596.568 L67.3143 612.227 Z" fill="#000000" fill-rule="nonzero" fill-opacity="1" /><path clip-path="url(#clip980)" d="M843.377 10.0578 L843.377 15.758 Q840.049 14.1666 837.098 13.3853 Q834.146 12.6041 831.397 12.6041 Q826.623 12.6041 824.019 14.4559 Q821.444 16.3078 821.444 19.7221 Q821.444 22.5867 823.151 24.0624 Q824.887 25.5091 829.69 26.4061 L833.22 27.1295 Q839.76 28.3737 842.856 31.5276 Q845.981 34.6526 845.981 39.9188 Q845.981 46.1977 841.756 49.4384 Q837.561 52.6791 829.43 52.6791 Q826.363 52.6791 822.891 51.9847 Q819.447 51.2902 815.744 49.9303 L815.744 43.9118 Q819.303 45.9083 822.717 46.921 Q826.131 47.9338 829.43 47.9338 Q834.436 47.9338 837.156 45.9662 Q839.875 43.9986 839.875 40.3528 Q839.875 37.1699 837.908 35.376 Q835.969 33.582 831.513 32.685 L827.954 31.9906 Q821.415 30.6885 818.492 27.9107 Q815.57 25.133 815.57 20.1851 Q815.57 14.4559 819.592 11.1573 Q823.643 7.85875 830.732 7.85875 Q833.77 7.85875 836.924 8.40852 Q840.078 8.95829 843.377 10.0578 Z" fill="#000000" fill-rule="nonzero" fill-opacity="1" /><path clip-path="url(#clip980)" d="M860.13 10.2314 L860.13 19.4328 L871.096 19.4328 L871.096 23.5705 L860.13 23.5705 L860.13 41.163 Q860.13 45.1271 861.201 46.2555 Q862.3 47.384 865.628 47.384 L871.096 47.384 L871.096 51.84 L865.628 51.84 Q859.464 51.84 857.121 49.5541 Q854.777 47.2393 854.777 41.163 L854.777 23.5705 L850.871 23.5705 L850.871 19.4328 L854.777 19.4328 L854.777 10.2314 L860.13 10.2314 Z" fill="#000000" fill-rule="nonzero" fill-opacity="1" /><path clip-path="url(#clip980)" d="M892.827 35.5496 Q886.374 35.5496 883.886 37.0253 Q881.397 38.501 881.397 42.06 Q881.397 44.8956 883.249 46.5738 Q885.13 48.2231 888.342 48.2231 Q892.769 48.2231 895.431 45.0981 Q898.122 41.9442 898.122 36.7359 L898.122 35.5496 L892.827 35.5496 M903.446 33.3505 L903.446 51.84 L898.122 51.84 L898.122 46.921 Q896.299 49.8724 893.579 51.2902 Q890.859 52.6791 886.924 52.6791 Q881.947 52.6791 878.996 49.9014 Q876.073 47.0947 876.073 42.4072 Q876.073 36.9385 879.719 34.1607 Q883.394 31.3829 890.656 31.3829 L898.122 31.3829 L898.122 30.8621 Q898.122 27.1874 895.691 25.1908 Q893.289 23.1654 888.92 23.1654 Q886.143 23.1654 883.509 23.8309 Q880.876 24.4964 878.446 25.8274 L878.446 20.9085 Q881.368 19.78 884.117 19.2302 Q886.866 18.6515 889.47 18.6515 Q896.501 18.6515 899.973 22.2973 Q903.446 25.9431 903.446 33.3505 Z" fill="#000000" fill-rule="nonzero" fill-opacity="1" /><path clip-path="url(#clip980)" d="M919.678 10.2314 L919.678 19.4328 L930.645 19.4328 L930.645 23.5705 L919.678 23.5705 L919.678 41.163 Q919.678 45.1271 920.749 46.2555 Q921.848 47.384 925.176 47.384 L930.645 47.384 L930.645 51.84 L925.176 51.84 Q919.013 51.84 916.669 49.5541 Q914.325 47.2393 914.325 41.163 L914.325 23.5705 L910.419 23.5705 L910.419 19.4328 L914.325 19.4328 L914.325 10.2314 L919.678 10.2314 Z" fill="#000000" fill-rule="nonzero" fill-opacity="1" /><path clip-path="url(#clip980)" d="M937.647 19.4328 L942.971 19.4328 L942.971 51.84 L937.647 51.84 L937.647 19.4328 M937.647 6.81709 L942.971 6.81709 L942.971 13.559 L937.647 13.559 L937.647 6.81709 Z" fill="#000000" fill-rule="nonzero" fill-opacity="1" /><path clip-path="url(#clip980)" d="M966.669 23.1654 Q962.386 23.1654 959.898 26.5218 Q957.409 29.8494 957.409 35.6653 Q957.409 41.4813 959.869 44.8377 Q962.357 48.1653 966.669 48.1653 Q970.922 48.1653 973.411 44.8088 Q975.899 41.4523 975.899 35.6653 Q975.899 29.9072 973.411 26.5508 Q970.922 23.1654 966.669 23.1654 M966.669 18.6515 Q973.613 18.6515 977.577 23.1654 Q981.541 27.6792 981.541 35.6653 Q981.541 43.6225 977.577 48.1653 Q973.613 52.6791 966.669 52.6791 Q959.695 52.6791 955.731 48.1653 Q951.796 43.6225 951.796 35.6653 Q951.796 27.6792 955.731 23.1654 Q959.695 18.6515 966.669 18.6515 Z" fill="#000000" fill-rule="nonzero" fill-opacity="1" /><path clip-path="url(#clip980)" d="M1017.31 32.2799 L1017.31 51.84 L1011.98 51.84 L1011.98 32.4535 Q1011.98 27.8529 1010.19 25.567 Q1008.39 23.2811 1004.81 23.2811 Q1000.49 23.2811 998.005 26.03 Q995.517 28.7788 995.517 33.5241 L995.517 51.84 L990.164 51.84 L990.164 19.4328 L995.517 19.4328 L995.517 24.4675 Q997.427 21.545 1000 20.0983 Q1002.61 18.6515 1005.99 18.6515 Q1011.58 18.6515 1014.44 22.1237 Q1017.31 25.567 1017.31 32.2799 Z" fill="#000000" fill-rule="nonzero" fill-opacity="1" /><path clip-path="url(#clip980)" d="M1042.65 35.5496 Q1036.2 35.5496 1033.71 37.0253 Q1031.22 38.501 1031.22 42.06 Q1031.22 44.8956 1033.07 46.5738 Q1034.96 48.2231 1038.17 48.2231 Q1042.59 48.2231 1045.26 45.0981 Q1047.95 41.9442 1047.95 36.7359 L1047.95 35.5496 L1042.65 35.5496 M1053.27 33.3505 L1053.27 51.84 L1047.95 51.84 L1047.95 46.921 Q1046.12 49.8724 1043.4 51.2902 Q1040.68 52.6791 1036.75 52.6791 Q1031.77 52.6791 1028.82 49.9014 Q1025.9 47.0947 1025.9 42.4072 Q1025.9 36.9385 1029.54 34.1607 Q1033.22 31.3829 1040.48 31.3829 L1047.95 31.3829 L1047.95 30.8621 Q1047.95 27.1874 1045.52 25.1908 Q1043.12 23.1654 1038.75 23.1654 Q1035.97 23.1654 1033.34 23.8309 Q1030.7 24.4964 1028.27 25.8274 L1028.27 20.9085 Q1031.19 19.78 1033.94 19.2302 Q1036.69 18.6515 1039.3 18.6515 Q1046.33 18.6515 1049.8 22.2973 Q1053.27 25.9431 1053.27 33.3505 Z" fill="#000000" fill-rule="nonzero" fill-opacity="1" /><path clip-path="url(#clip980)" d="M1083.02 24.4096 Q1082.12 23.8888 1081.05 23.6573 Q1080.01 23.3969 1078.73 23.3969 Q1074.22 23.3969 1071.79 26.3482 Q1069.39 29.2707 1069.39 34.7683 L1069.39 51.84 L1064.04 51.84 L1064.04 19.4328 L1069.39 19.4328 L1069.39 24.4675 Q1071.07 21.5161 1073.76 20.0983 Q1076.45 18.6515 1080.3 18.6515 Q1080.85 18.6515 1081.51 18.7383 Q1082.18 18.7962 1082.99 18.9409 L1083.02 24.4096 Z" fill="#000000" fill-rule="nonzero" fill-opacity="1" /><path clip-path="url(#clip980)" d="M1102.08 54.8492 Q1099.83 60.6362 1097.69 62.4013 Q1095.55 64.1663 1091.96 64.1663 L1087.7 64.1663 L1087.7 59.7103 L1090.83 59.7103 Q1093.03 59.7103 1094.24 58.6687 Q1095.46 57.627 1096.93 53.7497 L1097.89 51.3192 L1084.78 19.4328 L1090.42 19.4328 L1100.55 44.7799 L1110.68 19.4328 L1116.32 19.4328 L1102.08 54.8492 Z" fill="#000000" fill-rule="nonzero" fill-opacity="1" /><path clip-path="url(#clip980)" d="M1148.58 13.4432 L1148.58 47.0368 L1155.64 47.0368 Q1164.58 47.0368 1168.72 42.9859 Q1172.89 38.935 1172.89 30.1966 Q1172.89 21.5161 1168.72 17.4941 Q1164.58 13.4432 1155.64 13.4432 L1148.58 13.4432 M1142.74 8.64 L1154.75 8.64 Q1167.3 8.64 1173.18 13.8772 Q1179.05 19.0855 1179.05 30.1966 Q1179.05 41.3655 1173.15 46.6028 Q1167.25 51.84 1154.75 51.84 L1142.74 51.84 L1142.74 8.64 Z" fill="#000000" fill-rule="nonzero" fill-opacity="1" /><path clip-path="url(#clip980)" d="M1188.14 19.4328 L1193.46 19.4328 L1193.46 51.84 L1188.14 51.84 L1188.14 19.4328 M1188.14 6.81709 L1193.46 6.81709 L1193.46 13.559 L1188.14 13.559 L1188.14 6.81709 Z" fill="#000000" fill-rule="nonzero" fill-opacity="1" /><path clip-path="url(#clip980)" d="M1225.26 20.3876 L1225.26 25.4223 Q1223 24.2649 1220.57 23.6862 Q1218.14 23.1075 1215.54 23.1075 Q1211.57 23.1075 1209.58 24.3228 Q1207.61 25.5381 1207.61 27.9686 Q1207.61 29.8204 1209.03 30.891 Q1210.45 31.9327 1214.73 32.8876 L1216.55 33.2926 Q1222.22 34.5079 1224.6 36.7359 Q1227 38.935 1227 42.8991 Q1227 47.4129 1223.41 50.046 Q1219.85 52.6791 1213.6 52.6791 Q1211 52.6791 1208.16 52.1583 Q1205.35 51.6664 1202.23 50.6537 L1202.23 45.156 Q1205.18 46.6896 1208.04 47.4708 Q1210.91 48.2231 1213.72 48.2231 Q1217.48 48.2231 1219.5 46.95 Q1221.53 45.6479 1221.53 43.3042 Q1221.53 41.134 1220.05 39.9766 Q1218.61 38.8192 1213.66 37.7486 L1211.81 37.3146 Q1206.86 36.273 1204.66 34.1318 Q1202.46 31.9616 1202.46 28.2001 Q1202.46 23.6283 1205.7 21.1399 Q1208.94 18.6515 1214.9 18.6515 Q1217.85 18.6515 1220.46 19.0855 Q1223.06 19.5196 1225.26 20.3876 Z" fill="#000000" fill-rule="nonzero" fill-opacity="1" /><path clip-path="url(#clip980)" d="M1240.74 10.2314 L1240.74 19.4328 L1251.71 19.4328 L1251.71 23.5705 L1240.74 23.5705 L1240.74 41.163 Q1240.74 45.1271 1241.81 46.2555 Q1242.91 47.384 1246.24 47.384 L1251.71 47.384 L1251.71 51.84 L1246.24 51.84 Q1240.08 51.84 1237.73 49.5541 Q1235.39 47.2393 1235.39 41.163 L1235.39 23.5705 L1231.48 23.5705 L1231.48 19.4328 L1235.39 19.4328 L1235.39 10.2314 L1240.74 10.2314 Z" fill="#000000" fill-rule="nonzero" fill-opacity="1" /><path clip-path="url(#clip980)" d="M1277.49 24.4096 Q1276.59 23.8888 1275.52 23.6573 Q1274.48 23.3969 1273.21 23.3969 Q1268.69 23.3969 1266.26 26.3482 Q1263.86 29.2707 1263.86 34.7683 L1263.86 51.84 L1258.51 51.84 L1258.51 19.4328 L1263.86 19.4328 L1263.86 24.4675 Q1265.54 21.5161 1268.23 20.0983 Q1270.92 18.6515 1274.77 18.6515 Q1275.32 18.6515 1275.98 18.7383 Q1276.65 18.7962 1277.46 18.9409 L1277.49 24.4096 Z" fill="#000000" fill-rule="nonzero" fill-opacity="1" /><path clip-path="url(#clip980)" d="M1283.07 19.4328 L1288.4 19.4328 L1288.4 51.84 L1283.07 51.84 L1283.07 19.4328 M1283.07 6.81709 L1288.4 6.81709 L1288.4 13.559 L1283.07 13.559 L1283.07 6.81709 Z" fill="#000000" fill-rule="nonzero" fill-opacity="1" /><path clip-path="url(#clip980)" d="M1322.8 35.6653 Q1322.8 29.7915 1320.37 26.464 Q1317.97 23.1075 1313.74 23.1075 Q1309.52 23.1075 1307.09 26.464 Q1304.69 29.7915 1304.69 35.6653 Q1304.69 41.5391 1307.09 44.8956 Q1309.52 48.2231 1313.74 48.2231 Q1317.97 48.2231 1320.37 44.8956 Q1322.8 41.5391 1322.8 35.6653 M1304.69 24.3517 Q1306.37 21.4582 1308.91 20.0693 Q1311.49 18.6515 1315.05 18.6515 Q1320.95 18.6515 1324.62 23.339 Q1328.33 28.0265 1328.33 35.6653 Q1328.33 43.3042 1324.62 47.9916 Q1320.95 52.6791 1315.05 52.6791 Q1311.49 52.6791 1308.91 51.2902 Q1306.37 49.8724 1304.69 46.9789 L1304.69 51.84 L1299.33 51.84 L1299.33 6.81709 L1304.69 6.81709 L1304.69 24.3517 Z" fill="#000000" fill-rule="nonzero" fill-opacity="1" /><path clip-path="url(#clip980)" d="M1336.6 39.0507 L1336.6 19.4328 L1341.93 19.4328 L1341.93 38.8482 Q1341.93 43.4488 1343.72 45.7636 Q1345.52 48.0495 1349.1 48.0495 Q1353.41 48.0495 1355.9 45.3007 Q1358.42 42.5519 1358.42 37.8065 L1358.42 19.4328 L1363.74 19.4328 L1363.74 51.84 L1358.42 51.84 L1358.42 46.8632 Q1356.48 49.8145 1353.91 51.2613 Q1351.36 52.6791 1347.97 52.6791 Q1342.39 52.6791 1339.5 49.2069 Q1336.6 45.7347 1336.6 39.0507 M1350 18.6515 L1350 18.6515 Z" fill="#000000" fill-rule="nonzero" fill-opacity="1" /><path clip-path="url(#clip980)" d="M1379.98 10.2314 L1379.98 19.4328 L1390.94 19.4328 L1390.94 23.5705 L1379.98 23.5705 L1379.98 41.163 Q1379.98 45.1271 1381.05 46.2555 Q1382.15 47.384 1385.47 47.384 L1390.94 47.384 L1390.94 51.84 L1385.47 51.84 Q1379.31 51.84 1376.97 49.5541 Q1374.62 47.2393 1374.62 41.163 L1374.62 23.5705 L1370.72 23.5705 L1370.72 19.4328 L1374.62 19.4328 L1374.62 10.2314 L1379.98 10.2314 Z" fill="#000000" fill-rule="nonzero" fill-opacity="1" /><path clip-path="url(#clip980)" d="M1397.95 19.4328 L1403.27 19.4328 L1403.27 51.84 L1397.95 51.84 L1397.95 19.4328 M1397.95 6.81709 L1403.27 6.81709 L1403.27 13.559 L1397.95 13.559 L1397.95 6.81709 Z" fill="#000000" fill-rule="nonzero" fill-opacity="1" /><path clip-path="url(#clip980)" d="M1426.97 23.1654 Q1422.68 23.1654 1420.2 26.5218 Q1417.71 29.8494 1417.71 35.6653 Q1417.71 41.4813 1420.17 44.8377 Q1422.66 48.1653 1426.97 48.1653 Q1431.22 48.1653 1433.71 44.8088 Q1436.2 41.4523 1436.2 35.6653 Q1436.2 29.9072 1433.71 26.5508 Q1431.22 23.1654 1426.97 23.1654 M1426.97 18.6515 Q1433.91 18.6515 1437.88 23.1654 Q1441.84 27.6792 1441.84 35.6653 Q1441.84 43.6225 1437.88 48.1653 Q1433.91 52.6791 1426.97 52.6791 Q1419.99 52.6791 1416.03 48.1653 Q1412.09 43.6225 1412.09 35.6653 Q1412.09 27.6792 1416.03 23.1654 Q1419.99 18.6515 1426.97 18.6515 Z" fill="#000000" fill-rule="nonzero" fill-opacity="1" /><path clip-path="url(#clip980)" d="M1477.6 32.2799 L1477.6 51.84 L1472.28 51.84 L1472.28 32.4535 Q1472.28 27.8529 1470.49 25.567 Q1468.69 23.2811 1465.1 23.2811 Q1460.79 23.2811 1458.3 26.03 Q1455.82 28.7788 1455.82 33.5241 L1455.82 51.84 L1450.46 51.84 L1450.46 19.4328 L1455.82 19.4328 L1455.82 24.4675 Q1457.73 21.545 1460.3 20.0983 Q1462.9 18.6515 1466.29 18.6515 Q1471.87 18.6515 1474.74 22.1237 Q1477.6 25.567 1477.6 32.2799 Z" fill="#000000" fill-rule="nonzero" fill-opacity="1" /><path clip-path="url(#clip980)" d="M1503.62 19.4328 L1534.66 19.4328 L1534.66 24.7568 L1530.58 24.7568 L1530.58 44.6641 Q1530.58 46.7474 1531.28 47.6734 Q1532 48.5703 1533.59 48.5703 Q1534.03 48.5703 1534.66 48.5125 Q1535.3 48.4257 1535.5 48.3967 L1535.5 52.2451 Q1534.49 52.6212 1533.42 52.7949 Q1532.35 52.9685 1531.28 52.9685 Q1527.81 52.9685 1526.47 51.0877 Q1525.14 49.178 1525.14 44.0854 L1525.14 24.7568 L1513.19 24.7568 L1513.19 51.84 L1507.75 51.84 L1507.75 24.7568 L1503.62 24.7568 L1503.62 19.4328 Z" fill="#000000" fill-rule="nonzero" fill-opacity="1" /><path clip-path="url(#clip980)" d="M1558.88 33.5241 L1612.35 33.5241 L1612.35 37.6908 L1558.88 37.6908 L1558.88 33.5241 Z" fill="#000000" fill-rule="nonzero" fill-opacity="1" /><path clip-path="url(#clip980)" d="M1639.9 8.64 L1645.74 8.64 L1645.74 26.898 L1665.13 8.64 L1672.65 8.64 L1651.21 28.7788 L1674.19 51.84 L1666.49 51.84 L1645.74 31.0357 L1645.74 51.84 L1639.9 51.84 L1639.9 8.64 Z" fill="#000000" fill-rule="nonzero" fill-opacity="1" /><path clip-path="url(#clip980)" d="M1679.22 24.9304 L1716.32 24.9304 L1716.32 29.7915 L1679.22 29.7915 L1679.22 24.9304 M1679.22 36.7359 L1716.32 36.7359 L1716.32 41.6549 L1679.22 41.6549 L1679.22 36.7359 Z" fill="#000000" fill-rule="nonzero" fill-opacity="1" /><path clip-path="url(#clip980)" d="M1742.16 27.9107 Q1738.22 27.9107 1735.91 30.6017 Q1733.62 33.2926 1733.62 37.9801 Q1733.62 42.6387 1735.91 45.3586 Q1738.22 48.0495 1742.16 48.0495 Q1746.09 48.0495 1748.38 45.3586 Q1750.69 42.6387 1750.69 37.9801 Q1750.69 33.2926 1748.38 30.6017 Q1746.09 27.9107 1742.16 27.9107 M1753.76 9.59486 L1753.76 14.9189 Q1751.56 13.8772 1749.3 13.3275 Q1747.08 12.7777 1744.88 12.7777 Q1739.09 12.7777 1736.02 16.6839 Q1732.98 20.5902 1732.55 28.4894 Q1734.26 25.9721 1736.83 24.6411 Q1739.41 23.2811 1742.5 23.2811 Q1749.01 23.2811 1752.78 27.2452 Q1756.57 31.1804 1756.57 37.9801 Q1756.57 44.6352 1752.63 48.6571 Q1748.7 52.6791 1742.16 52.6791 Q1734.66 52.6791 1730.7 46.95 Q1726.73 41.1919 1726.73 30.2834 Q1726.73 20.0404 1731.6 13.964 Q1736.46 7.85875 1744.64 7.85875 Q1746.84 7.85875 1749.07 8.29278 Q1751.33 8.72681 1753.76 9.59486 Z" fill="#000000" fill-rule="nonzero" fill-opacity="1" /><path clip-path="url(#clip982)" d="M336.72 1096.94 L336.72 1423.18 L598.609 1423.18 L598.609 1096.94 L336.72 1096.94 L336.72 1096.94  Z" fill="#4682b4" fill-rule="evenodd" fill-opacity="0.7"/>
<polyline clip-path="url(#clip982)" style="stroke:#000000; stroke-linecap:round; stroke-linejoin:round; stroke-width:4; stroke-opacity:0.7; fill:none" points="336.72,1096.94 336.72,1423.18 598.609,1423.18 598.609,1096.94 336.72,1096.94 "/>
<path clip-path="url(#clip982)" d="M664.081 934.765 L664.081 1423.18 L925.97 1423.18 L925.97 934.765 L664.081 934.765 L664.081 934.765  Z" fill="#4682b4" fill-rule="evenodd" fill-opacity="0.7"/>
<polyline clip-path="url(#clip982)" style="stroke:#000000; stroke-linecap:round; stroke-linejoin:round; stroke-width:4; stroke-opacity:0.7; fill:none" points="664.081,934.765 664.081,1423.18 925.97,1423.18 925.97,934.765 664.081,934.765 "/>
<path clip-path="url(#clip982)" d="M991.443 487.003 L991.443 1423.18 L1253.33 1423.18 L1253.33 487.003 L991.443 487.003 L991.443 487.003  Z" fill="#4682b4" fill-rule="evenodd" fill-opacity="0.7"/>
<polyline clip-path="url(#clip982)" style="stroke:#000000; stroke-linecap:round; stroke-linejoin:round; stroke-width:4; stroke-opacity:0.7; fill:none" points="991.443,487.003 991.443,1423.18 1253.33,1423.18 1253.33,487.003 991.443,487.003 "/>
<path clip-path="url(#clip982)" d="M1318.8 870.304 L1318.8 1423.18 L1580.69 1423.18 L1580.69 870.304 L1318.8 870.304 L1318.8 870.304  Z" fill="#4682b4" fill-rule="evenodd" fill-opacity="0.7"/>
<polyline clip-path="url(#clip982)" style="stroke:#000000; stroke-linecap:round; stroke-linejoin:round; stroke-width:4; stroke-opacity:0.7; fill:none" points="1318.8,870.304 1318.8,1423.18 1580.69,1423.18 1580.69,870.304 1318.8,870.304 "/>
<path clip-path="url(#clip982)" d="M1646.17 825.194 L1646.17 1423.18 L1908.05 1423.18 L1908.05 825.194 L1646.17 825.194 L1646.17 825.194  Z" fill="#4682b4" fill-rule="evenodd" fill-opacity="0.7"/>
<polyline clip-path="url(#clip982)" style="stroke:#000000; stroke-linecap:round; stroke-linejoin:round; stroke-width:4; stroke-opacity:0.7; fill:none" points="1646.17,825.194 1646.17,1423.18 1908.05,1423.18 1908.05,825.194 1646.17,825.194 "/>
<path clip-path="url(#clip982)" d="M1973.53 106.192 L1973.53 1423.18 L2235.42 1423.18 L2235.42 106.192 L1973.53 106.192 L1973.53 106.192  Z" fill="#4682b4" fill-rule="evenodd" fill-opacity="0.7"/>
<polyline clip-path="url(#clip982)" style="stroke:#000000; stroke-linecap:round; stroke-linejoin:round; stroke-width:4; stroke-opacity:0.7; fill:none" points="1973.53,106.192 1973.53,1423.18 2235.42,1423.18 2235.42,106.192 1973.53,106.192 "/>
<circle clip-path="url(#clip982)" style="fill:#4682b4; stroke:none; fill-opacity:0" cx="467.664" cy="1096.94" r="2"/>
<circle clip-path="url(#clip982)" style="fill:#4682b4; stroke:none; fill-opacity:0" cx="795.026" cy="934.765" r="2"/>
<circle clip-path="url(#clip982)" style="fill:#4682b4; stroke:none; fill-opacity:0" cx="1122.39" cy="487.003" r="2"/>
<circle clip-path="url(#clip982)" style="fill:#4682b4; stroke:none; fill-opacity:0" cx="1449.75" cy="870.304" r="2"/>
<circle clip-path="url(#clip982)" style="fill:#4682b4; stroke:none; fill-opacity:0" cx="1777.11" cy="825.194" r="2"/>
<circle clip-path="url(#clip982)" style="fill:#4682b4; stroke:none; fill-opacity:0" cx="2104.47" cy="106.192" r="2"/>
</svg>
