<?xml version="1.0" encoding="utf-8"?>
<svg xmlns="http://www.w3.org/2000/svg" xmlns:xlink="http://www.w3.org/1999/xlink" width="600" height="400" viewBox="0 0 2400 1600">
<defs>
  <clipPath id="clip040">
    <rect x="0" y="0" width="2400" height="1600"/>
  </clipPath>
</defs>
<path clip-path="url(#clip040)" d="M0 1600 L2400 1600 L2400 8.88178e-14 L0 8.88178e-14  Z" fill="#ffffff" fill-rule="evenodd" fill-opacity="1"/>
<defs>
  <clipPath id="clip041">
    <rect x="314" y="0" width="1799" height="1500"/>
  </clipPath>
</defs>
<path clip-path="url(#clip040)" d="M219.38 1423.18 L2352.76 1423.18 L2352.76 101.872 L219.38 101.872  Z" fill="#ffffff" fill-rule="evenodd" fill-opacity="1"/>
<defs>
  <clipPath id="clip042">
    <rect x="219" y="101" width="2134" height="1322"/>
  </clipPath>
</defs>
<polyline clip-path="url(#clip042)" style="stroke:#000000; stroke-linecap:round; stroke-linejoin:round; stroke-width:2; stroke-opacity:0.1; fill:none" points="271.74,1423.18 271.74,101.872 "/>
<polyline clip-path="url(#clip042)" style="stroke:#000000; stroke-linecap:round; stroke-linejoin:round; stroke-width:2; stroke-opacity:0.1; fill:none" points="672.66,1423.18 672.66,101.872 "/>
<polyline clip-path="url(#clip042)" style="stroke:#000000; stroke-linecap:round; stroke-linejoin:round; stroke-width:2; stroke-opacity:0.1; fill:none" points="1073.58,1423.18 1073.58,101.872 "/>
<polyline clip-path="url(#clip042)" style="stroke:#000000; stroke-linecap:round; stroke-linejoin:round; stroke-width:2; stroke-opacity:0.1; fill:none" points="1474.5,1423.18 1474.5,101.872 "/>
<polyline clip-path="url(#clip042)" style="stroke:#000000; stroke-linecap:round; stroke-linejoin:round; stroke-width:2; stroke-opacity:0.1; fill:none" points="1875.42,1423.18 1875.42,101.872 "/>
<polyline clip-path="url(#clip042)" style="stroke:#000000; stroke-linecap:round; stroke-linejoin:round; stroke-width:2; stroke-opacity:0.1; fill:none" points="2276.34,1423.18 2276.34,101.872 "/>
<polyline clip-path="url(#clip042)" style="stroke:#000000; stroke-linecap:round; stroke-linejoin:round; stroke-width:2; stroke-opacity:0.1; fill:none" points="219.38,1217.05 2352.76,1217.05 "/>
<polyline clip-path="url(#clip042)" style="stroke:#000000; stroke-linecap:round; stroke-linejoin:round; stroke-width:2; stroke-opacity:0.1; fill:none" points="219.38,871.388 2352.76,871.388 "/>
<polyline clip-path="url(#clip042)" style="stroke:#000000; stroke-linecap:round; stroke-linejoin:round; stroke-width:2; stroke-opacity:0.1; fill:none" points="219.38,525.729 2352.76,525.729 "/>
<polyline clip-path="url(#clip042)" style="stroke:#000000; stroke-linecap:round; stroke-linejoin:round; stroke-width:2; stroke-opacity:0.1; fill:none" points="219.38,180.071 2352.76,180.071 "/>
<polyline clip-path="url(#clip040)" style="stroke:#000000; stroke-linecap:round; stroke-linejoin:round; stroke-width:4; stroke-opacity:1; fill:none" points="219.38,1423.18 2352.76,1423.18 "/>
<polyline clip-path="url(#clip040)" style="stroke:#000000; stroke-linecap:round; stroke-linejoin:round; stroke-width:4; stroke-opacity:1; fill:none" points="271.74,1423.18 271.74,1404.28 "/>
<polyline clip-path="url(#clip040)" style="stroke:#000000; stroke-linecap:round; stroke-linejoin:round; stroke-width:4; stroke-opacity:1; fill:none" points="672.66,1423.18 672.66,1404.28 "/>
<polyline clip-path="url(#clip040)" style="stroke:#000000; stroke-linecap:round; stroke-linejoin:round; stroke-width:4; stroke-opacity:1; fill:none" points="1073.58,1423.18 1073.58,1404.28 "/>
<polyline clip-path="url(#clip040)" style="stroke:#000000; stroke-linecap:round; stroke-linejoin:round; stroke-width:4; stroke-opacity:1; fill:none" points="1474.5,1423.18 1474.5,1404.28 "/>
<polyline clip-path="url(#clip040)" style="stroke:#000000; stroke-linecap:round; stroke-linejoin:round; stroke-width:4; stroke-opacity:1; fill:none" points="1875.42,1423.18 1875.42,1404.28 "/>
<polyline clip-path="url(#clip040)" style="stroke:#000000; stroke-linecap:round; stroke-linejoin:round; stroke-width:4; stroke-opacity:1; fill:none" points="2276.34,1423.18 2276.34,1404.28 "/>
<path clip-path="url(#clip040)" d="M271.74 1454.1 Q268.129 1454.1 266.301 1457.66 Q264.495 1461.2 264.495 1468.33 Q264.495 1475.44 266.301 1479.01 Q268.129 1482.55 271.74 1482.55 Q275.375 1482.55 277.18 1479.01 Q279.009 1475.44 279.009 1468.33 Q279.009 1461.2 277.18 1457.66 Q275.375 1454.1 271.74 1454.1 M271.74 1450.39 Q277.55 1450.39 280.606 1455 Q283.685 1459.58 283.685 1468.33 Q283.685 1477.06 280.606 1481.67 Q277.55 1486.25 271.74 1486.25 Q265.93 1486.25 262.851 1481.67 Q259.796 1477.06 259.796 1468.33 Q259.796 1459.58 262.851 1455 Q265.93 1450.39 271.74 1450.39 Z" fill="#000000" fill-rule="nonzero" fill-opacity="1" /><path clip-path="url(#clip040)" d="M647.36 1451.02 L665.716 1451.02 L665.716 1454.96 L651.642 1454.96 L651.642 1463.43 Q652.66 1463.08 653.679 1462.92 Q654.697 1462.73 655.716 1462.73 Q661.503 1462.73 664.883 1465.9 Q668.262 1469.08 668.262 1474.49 Q668.262 1480.07 664.79 1483.17 Q661.318 1486.25 654.998 1486.25 Q652.823 1486.25 650.554 1485.88 Q648.309 1485.51 645.901 1484.77 L645.901 1480.07 Q647.985 1481.2 650.207 1481.76 Q652.429 1482.32 654.906 1482.32 Q658.91 1482.32 661.248 1480.21 Q663.586 1478.1 663.586 1474.49 Q663.586 1470.88 661.248 1468.77 Q658.91 1466.67 654.906 1466.67 Q653.031 1466.67 651.156 1467.08 Q649.304 1467.5 647.36 1468.38 L647.36 1451.02 Z" fill="#000000" fill-rule="nonzero" fill-opacity="1" /><path clip-path="url(#clip040)" d="M687.475 1454.1 Q683.864 1454.1 682.035 1457.66 Q680.23 1461.2 680.23 1468.33 Q680.23 1475.44 682.035 1479.01 Q683.864 1482.55 687.475 1482.55 Q691.109 1482.55 692.915 1479.01 Q694.744 1475.44 694.744 1468.33 Q694.744 1461.2 692.915 1457.66 Q691.109 1454.1 687.475 1454.1 M687.475 1450.39 Q693.285 1450.39 696.341 1455 Q699.419 1459.58 699.419 1468.33 Q699.419 1477.06 696.341 1481.67 Q693.285 1486.25 687.475 1486.25 Q681.665 1486.25 678.586 1481.67 Q675.531 1477.06 675.531 1468.33 Q675.531 1459.58 678.586 1455 Q681.665 1450.39 687.475 1450.39 Z" fill="#000000" fill-rule="nonzero" fill-opacity="1" /><path clip-path="url(#clip040)" d="M1033.19 1481.64 L1040.83 1481.64 L1040.83 1455.28 L1032.52 1456.95 L1032.52 1452.69 L1040.78 1451.02 L1045.46 1451.02 L1045.46 1481.64 L1053.09 1481.64 L1053.09 1485.58 L1033.19 1485.58 L1033.19 1481.64 Z" fill="#000000" fill-rule="nonzero" fill-opacity="1" /><path clip-path="url(#clip040)" d="M1072.54 1454.1 Q1068.93 1454.1 1067.1 1457.66 Q1065.29 1461.2 1065.29 1468.33 Q1065.29 1475.44 1067.1 1479.01 Q1068.93 1482.55 1072.54 1482.55 Q1076.17 1482.55 1077.98 1479.01 Q1079.81 1475.44 1079.81 1468.33 Q1079.81 1461.2 1077.98 1457.66 Q1076.17 1454.1 1072.54 1454.1 M1072.54 1450.39 Q1078.35 1450.39 1081.4 1455 Q1084.48 1459.58 1084.48 1468.33 Q1084.48 1477.06 1081.4 1481.67 Q1078.35 1486.25 1072.54 1486.25 Q1066.73 1486.25 1063.65 1481.67 Q1060.59 1477.06 1060.59 1468.33 Q1060.59 1459.58 1063.65 1455 Q1066.73 1450.39 1072.54 1450.39 Z" fill="#000000" fill-rule="nonzero" fill-opacity="1" /><path clip-path="url(#clip040)" d="M1102.7 1454.1 Q1099.09 1454.1 1097.26 1457.66 Q1095.46 1461.2 1095.46 1468.33 Q1095.46 1475.44 1097.26 1479.01 Q1099.09 1482.55 1102.7 1482.55 Q1106.33 1482.55 1108.14 1479.01 Q1109.97 1475.44 1109.97 1468.33 Q1109.97 1461.2 1108.14 1457.66 Q1106.33 1454.1 1102.7 1454.1 M1102.7 1450.39 Q1108.51 1450.39 1111.57 1455 Q1114.65 1459.58 1114.65 1468.33 Q1114.65 1477.06 1111.57 1481.67 Q1108.51 1486.25 1102.7 1486.25 Q1096.89 1486.25 1093.81 1481.67 Q1090.76 1477.06 1090.76 1468.33 Q1090.76 1459.58 1093.81 1455 Q1096.89 1450.39 1102.7 1450.39 Z" fill="#000000" fill-rule="nonzero" fill-opacity="1" /><path clip-path="url(#clip040)" d="M1434.11 1481.64 L1441.75 1481.64 L1441.75 1455.28 L1433.44 1456.95 L1433.44 1452.69 L1441.7 1451.02 L1446.38 1451.02 L1446.38 1481.64 L1454.01 1481.64 L1454.01 1485.58 L1434.11 1485.58 L1434.11 1481.64 Z" fill="#000000" fill-rule="nonzero" fill-opacity="1" /><path clip-path="url(#clip040)" d="M1463.51 1451.02 L1481.86 1451.02 L1481.86 1454.96 L1467.79 1454.96 L1467.79 1463.43 Q1468.81 1463.08 1469.82 1462.92 Q1470.84 1462.73 1471.86 1462.73 Q1477.65 1462.73 1481.03 1465.9 Q1484.41 1469.08 1484.41 1474.49 Q1484.41 1480.07 1480.94 1483.17 Q1477.46 1486.25 1471.14 1486.25 Q1468.97 1486.25 1466.7 1485.88 Q1464.45 1485.51 1462.05 1484.77 L1462.05 1480.07 Q1464.13 1481.2 1466.35 1481.76 Q1468.57 1482.32 1471.05 1482.32 Q1475.06 1482.32 1477.39 1480.21 Q1479.73 1478.1 1479.73 1474.49 Q1479.73 1470.88 1477.39 1468.77 Q1475.06 1466.67 1471.05 1466.67 Q1469.18 1466.67 1467.3 1467.08 Q1465.45 1467.5 1463.51 1468.38 L1463.51 1451.02 Z" fill="#000000" fill-rule="nonzero" fill-opacity="1" /><path clip-path="url(#clip040)" d="M1503.62 1454.1 Q1500.01 1454.1 1498.18 1457.66 Q1496.38 1461.2 1496.38 1468.33 Q1496.38 1475.44 1498.18 1479.01 Q1500.01 1482.55 1503.62 1482.55 Q1507.25 1482.55 1509.06 1479.01 Q1510.89 1475.44 1510.89 1468.33 Q1510.89 1461.2 1509.06 1457.66 Q1507.25 1454.1 1503.62 1454.1 M1503.62 1450.39 Q1509.43 1450.39 1512.49 1455 Q1515.57 1459.58 1515.57 1468.33 Q1515.57 1477.06 1512.49 1481.67 Q1509.43 1486.25 1503.62 1486.25 Q1497.81 1486.25 1494.73 1481.67 Q1491.68 1477.06 1491.68 1468.33 Q1491.68 1459.58 1494.73 1455 Q1497.81 1450.39 1503.62 1450.39 Z" fill="#000000" fill-rule="nonzero" fill-opacity="1" /><path clip-path="url(#clip040)" d="M1839.11 1481.64 L1855.43 1481.64 L1855.43 1485.58 L1833.49 1485.58 L1833.49 1481.64 Q1836.15 1478.89 1840.73 1474.26 Q1845.34 1469.61 1846.52 1468.27 Q1848.77 1465.74 1849.65 1464.01 Q1850.55 1462.25 1850.55 1460.56 Q1850.55 1457.8 1848.6 1456.07 Q1846.68 1454.33 1843.58 1454.33 Q1841.38 1454.33 1838.93 1455.09 Q1836.5 1455.86 1833.72 1457.41 L1833.72 1452.69 Q1836.54 1451.55 1839 1450.97 Q1841.45 1450.39 1843.49 1450.39 Q1848.86 1450.39 1852.05 1453.08 Q1855.25 1455.77 1855.25 1460.26 Q1855.25 1462.39 1854.44 1464.31 Q1853.65 1466.2 1851.54 1468.8 Q1850.96 1469.47 1847.86 1472.69 Q1844.76 1475.88 1839.11 1481.64 Z" fill="#000000" fill-rule="nonzero" fill-opacity="1" /><path clip-path="url(#clip040)" d="M1875.25 1454.1 Q1871.64 1454.1 1869.81 1457.66 Q1868 1461.2 1868 1468.33 Q1868 1475.44 1869.81 1479.01 Q1871.64 1482.55 1875.25 1482.55 Q1878.88 1482.55 1880.69 1479.01 Q1882.52 1475.44 1882.52 1468.33 Q1882.52 1461.2 1880.69 1457.66 Q1878.88 1454.1 1875.25 1454.1 M1875.25 1450.39 Q1881.06 1450.39 1884.11 1455 Q1887.19 1459.58 1887.19 1468.33 Q1887.19 1477.06 1884.11 1481.67 Q1881.06 1486.25 1875.25 1486.25 Q1869.44 1486.25 1866.36 1481.67 Q1863.3 1477.06 1863.3 1468.33 Q1863.3 1459.58 1866.36 1455 Q1869.44 1450.39 1875.25 1450.39 Z" fill="#000000" fill-rule="nonzero" fill-opacity="1" /><path clip-path="url(#clip040)" d="M1905.41 1454.1 Q1901.8 1454.1 1899.97 1457.66 Q1898.16 1461.2 1898.16 1468.33 Q1898.16 1475.44 1899.97 1479.01 Q1901.8 1482.55 1905.41 1482.55 Q1909.04 1482.55 1910.85 1479.01 Q1912.68 1475.44 1912.68 1468.33 Q1912.68 1461.2 1910.85 1457.66 Q1909.04 1454.1 1905.41 1454.1 M1905.41 1450.39 Q1911.22 1450.39 1914.27 1455 Q1917.35 1459.58 1917.35 1468.33 Q1917.35 1477.06 1914.27 1481.67 Q1911.22 1486.25 1905.41 1486.25 Q1899.6 1486.25 1896.52 1481.67 Q1893.46 1477.06 1893.46 1468.33 Q1893.46 1459.58 1896.52 1455 Q1899.6 1450.39 1905.41 1450.39 Z" fill="#000000" fill-rule="nonzero" fill-opacity="1" /><path clip-path="url(#clip040)" d="M2240.03 1481.64 L2256.35 1481.64 L2256.35 1485.58 L2234.41 1485.58 L2234.41 1481.64 Q2237.07 1478.89 2241.65 1474.26 Q2246.26 1469.61 2247.44 1468.27 Q2249.69 1465.74 2250.57 1464.01 Q2251.47 1462.25 2251.47 1460.56 Q2251.47 1457.8 2249.52 1456.07 Q2247.6 1454.33 2244.5 1454.33 Q2242.3 1454.33 2239.85 1455.09 Q2237.42 1455.86 2234.64 1457.41 L2234.64 1452.69 Q2237.46 1451.55 2239.92 1450.97 Q2242.37 1450.39 2244.41 1450.39 Q2249.78 1450.39 2252.97 1453.08 Q2256.17 1455.77 2256.17 1460.26 Q2256.17 1462.39 2255.36 1464.31 Q2254.57 1466.2 2252.46 1468.8 Q2251.88 1469.47 2248.78 1472.69 Q2245.68 1475.88 2240.03 1481.64 Z" fill="#000000" fill-rule="nonzero" fill-opacity="1" /><path clip-path="url(#clip040)" d="M2266.21 1451.02 L2284.57 1451.02 L2284.57 1454.96 L2270.5 1454.96 L2270.5 1463.43 Q2271.51 1463.08 2272.53 1462.92 Q2273.55 1462.73 2274.57 1462.73 Q2280.36 1462.73 2283.74 1465.9 Q2287.12 1469.08 2287.12 1474.49 Q2287.12 1480.07 2283.64 1483.17 Q2280.17 1486.25 2273.85 1486.25 Q2271.68 1486.25 2269.41 1485.88 Q2267.16 1485.51 2264.75 1484.77 L2264.75 1480.07 Q2266.84 1481.2 2269.06 1481.76 Q2271.28 1482.32 2273.76 1482.32 Q2277.76 1482.32 2280.1 1480.21 Q2282.44 1478.1 2282.44 1474.49 Q2282.44 1470.88 2280.1 1468.77 Q2277.76 1466.67 2273.76 1466.67 Q2271.88 1466.67 2270.01 1467.08 Q2268.16 1467.5 2266.21 1468.38 L2266.21 1451.02 Z" fill="#000000" fill-rule="nonzero" fill-opacity="1" /><path clip-path="url(#clip040)" d="M2306.33 1454.1 Q2302.72 1454.1 2300.89 1457.66 Q2299.08 1461.2 2299.08 1468.33 Q2299.08 1475.44 2300.89 1479.01 Q2302.72 1482.55 2306.33 1482.55 Q2309.96 1482.55 2311.77 1479.01 Q2313.6 1475.44 2313.6 1468.33 Q2313.6 1461.2 2311.77 1457.66 Q2309.96 1454.1 2306.33 1454.1 M2306.33 1450.39 Q2312.14 1450.39 2315.19 1455 Q2318.27 1459.58 2318.27 1468.33 Q2318.27 1477.06 2315.19 1481.67 Q2312.14 1486.25 2306.33 1486.25 Q2300.52 1486.25 2297.44 1481.67 Q2294.38 1477.06 2294.38 1468.33 Q2294.38 1459.58 2297.44 1455 Q2300.52 1450.39 2306.33 1450.39 Z" fill="#000000" fill-rule="nonzero" fill-opacity="1" /><path clip-path="url(#clip040)" d="M1233.41 1520.52 L1239.84 1520.52 L1239.84 1562.63 L1262.98 1562.63 L1262.98 1568.04 L1233.41 1568.04 L1233.41 1520.52 Z" fill="#000000" fill-rule="nonzero" fill-opacity="1" /><path clip-path="url(#clip040)" d="M1285.67 1550.12 Q1278.57 1550.12 1275.84 1551.75 Q1273.1 1553.37 1273.1 1557.29 Q1273.1 1560.4 1275.13 1562.25 Q1277.2 1564.07 1280.74 1564.07 Q1285.61 1564.07 1288.53 1560.63 Q1291.49 1557.16 1291.49 1551.43 L1291.49 1550.12 L1285.67 1550.12 M1297.35 1547.71 L1297.35 1568.04 L1291.49 1568.04 L1291.49 1562.63 Q1289.49 1565.88 1286.5 1567.44 Q1283.51 1568.97 1279.18 1568.97 Q1273.7 1568.97 1270.46 1565.91 Q1267.24 1562.82 1267.24 1557.67 Q1267.24 1551.65 1271.25 1548.6 Q1275.29 1545.54 1283.28 1545.54 L1291.49 1545.54 L1291.49 1544.97 Q1291.49 1540.93 1288.82 1538.73 Q1286.18 1536.5 1281.37 1536.5 Q1278.32 1536.5 1275.42 1537.23 Q1272.52 1537.97 1269.85 1539.43 L1269.85 1534.02 Q1273.07 1532.78 1276.09 1532.17 Q1279.11 1531.54 1281.98 1531.54 Q1289.71 1531.54 1293.53 1535.55 Q1297.35 1539.56 1297.35 1547.71 Z" fill="#000000" fill-rule="nonzero" fill-opacity="1" /><path clip-path="url(#clip040)" d="M1332.87 1549.81 Q1332.87 1543.44 1330.23 1539.94 Q1327.62 1536.44 1322.88 1536.44 Q1318.17 1536.44 1315.53 1539.94 Q1312.92 1543.44 1312.92 1549.81 Q1312.92 1556.14 1315.53 1559.64 Q1318.17 1563.14 1322.88 1563.14 Q1327.62 1563.14 1330.23 1559.64 Q1332.87 1556.14 1332.87 1549.81 M1338.73 1563.62 Q1338.73 1572.72 1334.69 1577.15 Q1330.64 1581.6 1322.3 1581.6 Q1319.22 1581.6 1316.48 1581.13 Q1313.74 1580.68 1311.16 1579.72 L1311.16 1574.03 Q1313.74 1575.43 1316.26 1576.1 Q1318.77 1576.76 1321.38 1576.76 Q1327.14 1576.76 1330.01 1573.74 Q1332.87 1570.75 1332.87 1564.67 L1332.87 1561.77 Q1331.06 1564.92 1328.22 1566.48 Q1325.39 1568.04 1321.45 1568.04 Q1314.89 1568.04 1310.88 1563.05 Q1306.87 1558.05 1306.87 1549.81 Q1306.87 1541.53 1310.88 1536.53 Q1314.89 1531.54 1321.45 1531.54 Q1325.39 1531.54 1328.22 1533.1 Q1331.06 1534.66 1332.87 1537.81 L1332.87 1532.4 L1338.73 1532.4 L1338.73 1563.62 Z" fill="#000000" fill-rule="nonzero" fill-opacity="1" /><polyline clip-path="url(#clip040)" style="stroke:#000000; stroke-linecap:round; stroke-linejoin:round; stroke-width:4; stroke-opacity:1; fill:none" points="219.38,1423.18 219.38,101.872 "/>
<polyline clip-path="url(#clip040)" style="stroke:#000000; stroke-linecap:round; stroke-linejoin:round; stroke-width:4; stroke-opacity:1; fill:none" points="219.38,1217.05 238.278,1217.05 "/>
<polyline clip-path="url(#clip040)" style="stroke:#000000; stroke-linecap:round; stroke-linejoin:round; stroke-width:4; stroke-opacity:1; fill:none" points="219.38,871.388 238.278,871.388 "/>
<polyline clip-path="url(#clip040)" style="stroke:#000000; stroke-linecap:round; stroke-linejoin:round; stroke-width:4; stroke-opacity:1; fill:none" points="219.38,525.729 238.278,525.729 "/>
<polyline clip-path="url(#clip040)" style="stroke:#000000; stroke-linecap:round; stroke-linejoin:round; stroke-width:4; stroke-opacity:1; fill:none" points="219.38,180.071 238.278,180.071 "/>
<path clip-path="url(#clip040)" d="M126.205 1202.84 Q122.593 1202.84 120.765 1206.41 Q118.959 1209.95 118.959 1217.08 Q118.959 1224.19 120.765 1227.75 Q122.593 1231.29 126.205 1231.29 Q129.839 1231.29 131.644 1227.75 Q133.473 1224.19 133.473 1217.08 Q133.473 1209.95 131.644 1206.41 Q129.839 1202.84 126.205 1202.84 M126.205 1199.14 Q132.015 1199.14 135.07 1203.75 Q138.149 1208.33 138.149 1217.08 Q138.149 1225.81 135.07 1230.41 Q132.015 1235 126.205 1235 Q120.394 1235 117.316 1230.41 Q114.26 1225.81 114.26 1217.08 Q114.26 1208.33 117.316 1203.75 Q120.394 1199.14 126.205 1199.14 Z" fill="#000000" fill-rule="nonzero" fill-opacity="1" /><path clip-path="url(#clip040)" d="M146.366 1228.45 L151.251 1228.45 L151.251 1234.33 L146.366 1234.33 L146.366 1228.45 Z" fill="#000000" fill-rule="nonzero" fill-opacity="1" /><path clip-path="url(#clip040)" d="M171.436 1202.84 Q167.825 1202.84 165.996 1206.41 Q164.19 1209.95 164.19 1217.08 Q164.19 1224.19 165.996 1227.75 Q167.825 1231.29 171.436 1231.29 Q175.07 1231.29 176.876 1227.75 Q178.704 1224.19 178.704 1217.08 Q178.704 1209.95 176.876 1206.41 Q175.07 1202.84 171.436 1202.84 M171.436 1199.14 Q177.246 1199.14 180.301 1203.75 Q183.38 1208.33 183.38 1217.08 Q183.38 1225.81 180.301 1230.41 Q177.246 1235 171.436 1235 Q165.626 1235 162.547 1230.41 Q159.491 1225.81 159.491 1217.08 Q159.491 1208.33 162.547 1203.75 Q165.626 1199.14 171.436 1199.14 Z" fill="#000000" fill-rule="nonzero" fill-opacity="1" /><path clip-path="url(#clip040)" d="M127.431 857.186 Q123.82 857.186 121.992 860.751 Q120.186 864.293 120.186 871.422 Q120.186 878.529 121.992 882.094 Q123.82 885.635 127.431 885.635 Q131.066 885.635 132.871 882.094 Q134.7 878.529 134.7 871.422 Q134.7 864.293 132.871 860.751 Q131.066 857.186 127.431 857.186 M127.431 853.483 Q133.242 853.483 136.297 858.089 Q139.376 862.672 139.376 871.422 Q139.376 880.149 136.297 884.756 Q133.242 889.339 127.431 889.339 Q121.621 889.339 118.543 884.756 Q115.487 880.149 115.487 871.422 Q115.487 862.672 118.543 858.089 Q121.621 853.483 127.431 853.483 Z" fill="#000000" fill-rule="nonzero" fill-opacity="1" /><path clip-path="url(#clip040)" d="M147.593 882.788 L152.478 882.788 L152.478 888.668 L147.593 888.668 L147.593 882.788 Z" fill="#000000" fill-rule="nonzero" fill-opacity="1" /><path clip-path="url(#clip040)" d="M163.473 884.732 L171.112 884.732 L171.112 858.367 L162.802 860.034 L162.802 855.774 L171.065 854.108 L175.741 854.108 L175.741 884.732 L183.38 884.732 L183.38 888.668 L163.473 888.668 L163.473 884.732 Z" fill="#000000" fill-rule="nonzero" fill-opacity="1" /><path clip-path="url(#clip040)" d="M127.802 511.528 Q124.191 511.528 122.362 515.093 Q120.556 518.634 120.556 525.764 Q120.556 532.87 122.362 536.435 Q124.191 539.977 127.802 539.977 Q131.436 539.977 133.242 536.435 Q135.07 532.87 135.07 525.764 Q135.07 518.634 133.242 515.093 Q131.436 511.528 127.802 511.528 M127.802 507.824 Q133.612 507.824 136.667 512.431 Q139.746 517.014 139.746 525.764 Q139.746 534.491 136.667 539.097 Q133.612 543.681 127.802 543.681 Q121.992 543.681 118.913 539.097 Q115.857 534.491 115.857 525.764 Q115.857 517.014 118.913 512.431 Q121.992 507.824 127.802 507.824 Z" fill="#000000" fill-rule="nonzero" fill-opacity="1" /><path clip-path="url(#clip040)" d="M147.964 537.13 L152.848 537.13 L152.848 543.009 L147.964 543.009 L147.964 537.13 Z" fill="#000000" fill-rule="nonzero" fill-opacity="1" /><path clip-path="url(#clip040)" d="M167.061 539.074 L183.38 539.074 L183.38 543.009 L161.436 543.009 L161.436 539.074 Q164.098 536.319 168.681 531.69 Q173.288 527.037 174.468 525.695 Q176.714 523.171 177.593 521.435 Q178.496 519.676 178.496 517.986 Q178.496 515.232 176.551 513.496 Q174.63 511.759 171.528 511.759 Q169.329 511.759 166.876 512.523 Q164.445 513.287 161.667 514.838 L161.667 510.116 Q164.491 508.982 166.945 508.403 Q169.399 507.824 171.436 507.824 Q176.806 507.824 180.001 510.509 Q183.195 513.195 183.195 517.685 Q183.195 519.815 182.385 521.736 Q181.598 523.634 179.491 526.227 Q178.913 526.898 175.811 530.116 Q172.709 533.31 167.061 539.074 Z" fill="#000000" fill-rule="nonzero" fill-opacity="1" /><path clip-path="url(#clip040)" d="M126.853 165.87 Q123.242 165.87 121.413 169.434 Q119.607 172.976 119.607 180.106 Q119.607 187.212 121.413 190.777 Q123.242 194.318 126.853 194.318 Q130.487 194.318 132.292 190.777 Q134.121 187.212 134.121 180.106 Q134.121 172.976 132.292 169.434 Q130.487 165.87 126.853 165.87 M126.853 162.166 Q132.663 162.166 135.718 166.772 Q138.797 171.356 138.797 180.106 Q138.797 188.832 135.718 193.439 Q132.663 198.022 126.853 198.022 Q121.043 198.022 117.964 193.439 Q114.908 188.832 114.908 180.106 Q114.908 171.356 117.964 166.772 Q121.043 162.166 126.853 162.166 Z" fill="#000000" fill-rule="nonzero" fill-opacity="1" /><path clip-path="url(#clip040)" d="M147.015 191.471 L151.899 191.471 L151.899 197.351 L147.015 197.351 L147.015 191.471 Z" fill="#000000" fill-rule="nonzero" fill-opacity="1" /><path clip-path="url(#clip040)" d="M176.251 178.717 Q179.607 179.434 181.482 181.703 Q183.38 183.971 183.38 187.305 Q183.38 192.42 179.862 195.221 Q176.343 198.022 169.862 198.022 Q167.686 198.022 165.371 197.582 Q163.079 197.166 160.626 196.309 L160.626 191.795 Q162.57 192.93 164.885 193.508 Q167.2 194.087 169.723 194.087 Q174.121 194.087 176.413 192.351 Q178.727 190.615 178.727 187.305 Q178.727 184.249 176.575 182.536 Q174.445 180.8 170.626 180.8 L166.598 180.8 L166.598 176.957 L170.811 176.957 Q174.26 176.957 176.089 175.592 Q177.917 174.203 177.917 171.61 Q177.917 168.948 176.019 167.536 Q174.144 166.101 170.626 166.101 Q168.704 166.101 166.505 166.518 Q164.306 166.934 161.667 167.814 L161.667 163.647 Q164.329 162.907 166.644 162.536 Q168.982 162.166 171.042 162.166 Q176.366 162.166 179.468 164.596 Q182.57 167.004 182.57 171.124 Q182.57 173.995 180.926 175.985 Q179.283 177.953 176.251 178.717 Z" fill="#000000" fill-rule="nonzero" fill-opacity="1" /><path clip-path="url(#clip040)" d="M22.818 883.188 L46.4666 891.909 L46.4666 874.435 L22.818 883.188 M16.4842 886.816 L16.4842 879.528 L64.0042 861.417 L64.0042 868.101 L51.8138 872.43 L51.8138 893.851 L64.0042 898.179 L64.0042 904.959 L16.4842 886.816 Z" fill="#000000" fill-rule="nonzero" fill-opacity="1" /><path clip-path="url(#clip040)" d="M20.1444 820.04 L26.9239 820.04 Q23.9002 823.287 22.4043 826.979 Q20.9083 830.639 20.9083 834.777 Q20.9083 842.925 25.9054 847.254 Q30.8707 851.582 40.2919 851.582 Q49.6813 851.582 54.6784 847.254 Q59.6436 842.925 59.6436 834.777 Q59.6436 830.639 58.1477 826.979 Q56.6518 823.287 53.6281 820.04 L60.3439 820.04 Q62.6355 823.414 63.7814 827.202 Q64.9272 830.957 64.9272 835.159 Q64.9272 845.949 58.3387 852.155 Q51.7183 858.362 40.2919 858.362 Q28.8336 858.362 22.2451 852.155 Q15.6248 845.949 15.6248 835.159 Q15.6248 830.894 16.7706 827.138 Q17.8846 823.35 20.1444 820.04 Z" fill="#000000" fill-rule="nonzero" fill-opacity="1" /><path clip-path="url(#clip040)" d="M16.4842 810.11 L16.4842 782.801 L21.895 782.801 L21.895 803.68 L35.8996 803.68 L35.8996 784.838 L41.3104 784.838 L41.3104 803.68 L64.0042 803.68 L64.0042 810.11 L16.4842 810.11 Z" fill="#000000" fill-rule="nonzero" fill-opacity="1" /><path clip-path="url(#clip040)" d="M14.5426 758.802 Q21.8632 763.067 29.0246 765.136 Q36.186 767.205 43.5384 767.205 Q50.8908 767.205 58.1159 765.136 Q65.3091 763.035 72.5979 758.802 L72.5979 763.895 Q65.1182 768.669 57.8931 771.056 Q50.668 773.411 43.5384 773.411 Q36.4406 773.411 29.2474 771.056 Q22.0542 768.701 14.5426 763.895 L14.5426 758.802 Z" fill="#000000" fill-rule="nonzero" fill-opacity="1" /><path clip-path="url(#clip040)" d="M14.1925 739.896 L79.3773 739.896 L79.3773 745.307 L14.1925 745.307 L14.1925 739.896 Z" fill="#000000" fill-rule="nonzero" fill-opacity="1" /><path clip-path="url(#clip040)" d="M57.2247 692.821 L44.4614 692.821 L44.4614 703.325 L39.1779 703.325 L39.1779 686.456 L59.58 686.456 Q62.2218 690.18 63.5904 694.668 Q64.9272 699.155 64.9272 704.248 Q64.9272 715.388 58.4342 721.69 Q51.9093 727.96 40.2919 727.96 Q28.6427 727.96 22.1496 721.69 Q15.6248 715.388 15.6248 704.248 Q15.6248 699.601 16.7706 695.431 Q17.9164 691.23 20.1444 687.697 L26.9876 687.697 Q23.9639 691.262 22.4361 695.272 Q20.9083 699.283 20.9083 703.707 Q20.9083 712.428 25.7781 716.82 Q30.6479 721.181 40.2919 721.181 Q49.9041 721.181 54.7739 716.82 Q59.6436 712.428 59.6436 703.707 Q59.6436 700.301 59.0707 697.628 Q58.466 694.954 57.2247 692.821 Z" fill="#000000" fill-rule="nonzero" fill-opacity="1" /><path clip-path="url(#clip040)" d="M38.3822 673.597 L44.0477 673.597 L44.0477 665.99 L46.5939 665.99 L46.5939 673.597 L57.4157 673.597 Q59.8664 673.597 60.5667 672.833 Q61.2669 672.069 61.2669 669.778 L61.2669 665.99 L64.0042 665.99 L64.0042 669.778 Q64.0042 674.043 62.5719 675.666 Q61.1714 677.289 57.4157 677.289 L46.5939 677.289 L46.5939 679.995 L44.0477 679.995 L44.0477 677.289 L38.3822 677.289 L38.3822 673.597 Z" fill="#000000" fill-rule="nonzero" fill-opacity="1" /><path clip-path="url(#clip040)" d="M14.1925 648.198 L79.3773 648.198 L79.3773 653.609 L14.1925 653.609 L14.1925 648.198 Z" fill="#000000" fill-rule="nonzero" fill-opacity="1" /><path clip-path="url(#clip040)" d="M14.5426 634.703 L14.5426 629.61 Q22.0542 624.836 29.2474 622.48 Q36.4406 620.093 43.5384 620.093 Q50.668 620.093 57.8931 622.48 Q65.1182 624.836 72.5979 629.61 L72.5979 634.703 Q65.3091 630.469 58.1159 628.401 Q50.8908 626.3 43.5384 626.3 Q36.186 626.3 29.0246 628.401 Q21.8632 630.469 14.5426 634.703 Z" fill="#000000" fill-rule="nonzero" fill-opacity="1" /><path clip-path="url(#clip040)" d="M689.313 12.9583 L682.178 32.3071 L696.475 32.3071 L689.313 12.9583 M686.345 7.776 L692.308 7.776 L707.126 46.656 L701.657 46.656 L698.115 36.6821 L680.59 36.6821 L677.048 46.656 L671.501 46.656 L686.345 7.776 Z" fill="#000000" fill-rule="nonzero" fill-opacity="1" /><path clip-path="url(#clip040)" d="M740.98 10.7708 L740.98 16.3176 Q738.324 13.8437 735.303 12.6197 Q732.308 11.3958 728.923 11.3958 Q722.256 11.3958 718.714 15.4843 Q715.173 19.5468 715.173 27.2551 Q715.173 34.9373 718.714 39.0258 Q722.256 43.0883 728.923 43.0883 Q732.308 43.0883 735.303 41.8644 Q738.324 40.6404 740.98 38.1665 L740.98 43.6612 Q738.219 45.5362 735.12 46.4737 Q732.048 47.4112 728.61 47.4112 Q719.782 47.4112 714.704 42.0206 Q709.626 36.604 709.626 27.2551 Q709.626 17.8801 714.704 12.4895 Q719.782 7.07288 728.61 7.07288 Q732.1 7.07288 735.173 8.01037 Q738.271 8.92183 740.98 10.7708 Z" fill="#000000" fill-rule="nonzero" fill-opacity="1" /><path clip-path="url(#clip040)" d="M749.105 7.776 L771.448 7.776 L771.448 12.2031 L754.365 12.2031 L754.365 23.6613 L769.782 23.6613 L769.782 28.0884 L754.365 28.0884 L754.365 46.656 L749.105 46.656 L749.105 7.776 Z" fill="#000000" fill-rule="nonzero" fill-opacity="1" /><path clip-path="url(#clip040)" d="M791.084 6.18747 Q787.594 12.177 785.901 18.0364 Q784.209 23.8957 784.209 29.9113 Q784.209 35.9269 785.901 41.8383 Q787.62 47.7237 791.084 53.6872 L786.917 53.6872 Q783.011 47.5675 781.058 41.656 Q779.131 35.7446 779.131 29.9113 Q779.131 24.104 781.058 18.2187 Q782.985 12.3333 786.917 6.18747 L791.084 6.18747 Z" fill="#000000" fill-rule="nonzero" fill-opacity="1" /><path clip-path="url(#clip040)" d="M806.552 5.90101 L806.552 59.2341 L802.125 59.2341 L802.125 5.90101 L806.552 5.90101 Z" fill="#000000" fill-rule="nonzero" fill-opacity="1" /><path clip-path="url(#clip040)" d="M845.068 41.1092 L845.068 30.6665 L836.474 30.6665 L836.474 26.3436 L850.276 26.3436 L850.276 43.0362 Q847.229 45.1977 843.557 46.3175 Q839.886 47.4112 835.719 47.4112 Q826.604 47.4112 821.448 42.0987 Q816.318 36.7602 816.318 27.2551 Q816.318 17.7239 821.448 12.4114 Q826.604 7.07288 835.719 7.07288 Q839.521 7.07288 842.932 8.01037 Q846.37 8.94787 849.26 10.7708 L849.26 16.3697 Q846.344 13.8958 843.063 12.6458 Q839.781 11.3958 836.162 11.3958 Q829.026 11.3958 825.432 15.3801 Q821.865 19.3645 821.865 27.2551 Q821.865 35.1196 825.432 39.104 Q829.026 43.0883 836.162 43.0883 Q838.948 43.0883 841.136 42.6196 Q843.323 42.1248 845.068 41.1092 Z" fill="#000000" fill-rule="nonzero" fill-opacity="1" /><path clip-path="url(#clip040)" d="M860.797 25.6926 L860.797 30.328 L867.021 30.328 L867.021 32.4113 L860.797 32.4113 L860.797 41.2654 Q860.797 43.2706 861.422 43.8435 Q862.047 44.4164 863.922 44.4164 L867.021 44.4164 L867.021 46.656 L863.922 46.656 Q860.432 46.656 859.104 45.4841 Q857.776 44.3383 857.776 41.2654 L857.776 32.4113 L855.563 32.4113 L855.563 30.328 L857.776 30.328 L857.776 25.6926 L860.797 25.6926 Z" fill="#000000" fill-rule="nonzero" fill-opacity="1" /><path clip-path="url(#clip040)" d="M881.578 5.90101 L881.578 59.2341 L877.151 59.2341 L877.151 5.90101 L881.578 5.90101 Z" fill="#000000" fill-rule="nonzero" fill-opacity="1" /><path clip-path="url(#clip040)" d="M892.62 6.18747 L896.786 6.18747 Q900.692 12.3333 902.62 18.2187 Q904.573 24.104 904.573 29.9113 Q904.573 35.7446 902.62 41.656 Q900.692 47.5675 896.786 53.6872 L892.62 53.6872 Q896.083 47.7237 897.776 41.8383 Q899.495 35.9269 899.495 29.9113 Q899.495 23.8957 897.776 18.0364 Q896.083 12.177 892.62 6.18747 Z" fill="#000000" fill-rule="nonzero" fill-opacity="1" /><path clip-path="url(#clip040)" d="M944.39 31.9946 Q938.583 31.9946 936.343 33.3227 Q934.104 34.6509 934.104 37.854 Q934.104 40.406 935.77 41.9164 Q937.463 43.4008 940.354 43.4008 Q944.338 43.4008 946.734 40.5883 Q949.156 37.7498 949.156 33.0623 L949.156 31.9946 L944.39 31.9946 M953.947 30.0155 L953.947 46.656 L949.156 46.656 L949.156 42.2289 Q947.515 44.8852 945.067 46.1612 Q942.619 47.4112 939.078 47.4112 Q934.599 47.4112 931.942 44.9112 Q929.312 42.3852 929.312 38.1665 Q929.312 33.2446 932.593 30.7446 Q935.901 28.2446 942.437 28.2446 L949.156 28.2446 L949.156 27.7759 Q949.156 24.4686 946.968 22.6718 Q944.807 20.8488 940.875 20.8488 Q938.375 20.8488 936.005 21.4478 Q933.635 22.0468 931.448 23.2447 L931.448 18.8176 Q934.078 17.802 936.552 17.3072 Q939.026 16.7864 941.369 16.7864 Q947.697 16.7864 950.822 20.0676 Q953.947 23.3488 953.947 30.0155 Z" fill="#000000" fill-rule="nonzero" fill-opacity="1" /><path clip-path="url(#clip040)" d="M968.557 9.20828 L968.557 17.4895 L978.426 17.4895 L978.426 21.2134 L968.557 21.2134 L968.557 37.0467 Q968.557 40.6144 969.52 41.63 Q970.51 42.6456 973.505 42.6456 L978.426 42.6456 L978.426 46.656 L973.505 46.656 Q967.958 46.656 965.848 44.5987 Q963.739 42.5154 963.739 37.0467 L963.739 21.2134 L960.223 21.2134 L960.223 17.4895 L963.739 17.4895 L963.739 9.20828 L968.557 9.20828 Z" fill="#000000" fill-rule="nonzero" fill-opacity="1" /><path clip-path="url(#clip040)" d="M1017.67 11.3437 Q1011.94 11.3437 1008.56 15.6145 Q1005.2 19.8853 1005.2 27.2551 Q1005.2 34.5988 1008.56 38.8696 Q1011.94 43.1404 1017.67 43.1404 Q1023.4 43.1404 1026.73 38.8696 Q1030.09 34.5988 1030.09 27.2551 Q1030.09 19.8853 1026.73 15.6145 Q1023.4 11.3437 1017.67 11.3437 M1017.67 7.07288 Q1025.85 7.07288 1030.74 12.5676 Q1035.64 18.0364 1035.64 27.2551 Q1035.64 36.4477 1030.74 41.9425 Q1025.85 47.4112 1017.67 47.4112 Q1009.47 47.4112 1004.55 41.9425 Q999.65 36.4738 999.65 27.2551 Q999.65 18.0364 1004.55 12.5676 Q1009.47 7.07288 1017.67 7.07288 Z" fill="#000000" fill-rule="nonzero" fill-opacity="1" /><path clip-path="url(#clip040)" d="M1048.3 42.281 L1048.3 57.7497 L1043.48 57.7497 L1043.48 17.4895 L1048.3 17.4895 L1048.3 21.9165 Q1049.81 19.3124 1052.1 18.0624 Q1054.42 16.7864 1057.62 16.7864 Q1062.93 16.7864 1066.24 21.0051 Q1069.57 25.2238 1069.57 32.0988 Q1069.57 38.9737 1066.24 43.1925 Q1062.93 47.4112 1057.62 47.4112 Q1054.42 47.4112 1052.1 46.1612 Q1049.81 44.8852 1048.3 42.281 M1064.6 32.0988 Q1064.6 26.8124 1062.41 23.8176 Q1060.25 20.7968 1056.45 20.7968 Q1052.64 20.7968 1050.46 23.8176 Q1048.3 26.8124 1048.3 32.0988 Q1048.3 37.3852 1050.46 40.406 Q1052.64 43.4008 1056.45 43.4008 Q1060.25 43.4008 1062.41 40.406 Q1064.6 37.3852 1064.6 32.0988 Z" fill="#000000" fill-rule="nonzero" fill-opacity="1" /><path clip-path="url(#clip040)" d="M1082.25 9.20828 L1082.25 17.4895 L1092.12 17.4895 L1092.12 21.2134 L1082.25 21.2134 L1082.25 37.0467 Q1082.25 40.6144 1083.22 41.63 Q1084.21 42.6456 1087.2 42.6456 L1092.12 42.6456 L1092.12 46.656 L1087.2 46.656 Q1081.66 46.656 1079.55 44.5987 Q1077.44 42.5154 1077.44 37.0467 L1077.44 21.2134 L1073.92 21.2134 L1073.92 17.4895 L1077.44 17.4895 L1077.44 9.20828 L1082.25 9.20828 Z" fill="#000000" fill-rule="nonzero" fill-opacity="1" /><path clip-path="url(#clip040)" d="M1098.43 17.4895 L1103.22 17.4895 L1103.22 46.656 L1098.43 46.656 L1098.43 17.4895 M1098.43 6.13538 L1103.22 6.13538 L1103.22 12.2031 L1098.43 12.2031 L1098.43 6.13538 Z" fill="#000000" fill-rule="nonzero" fill-opacity="1" /><path clip-path="url(#clip040)" d="M1135.95 23.0884 Q1137.75 19.8593 1140.25 18.3228 Q1142.75 16.7864 1146.13 16.7864 Q1150.69 16.7864 1153.17 19.9895 Q1155.64 23.1665 1155.64 29.0519 L1155.64 46.656 L1150.82 46.656 L1150.82 29.2082 Q1150.82 25.0155 1149.34 22.9843 Q1147.85 20.953 1144.81 20.953 Q1141.08 20.953 1138.92 23.427 Q1136.76 25.9009 1136.76 30.1717 L1136.76 46.656 L1131.94 46.656 L1131.94 29.2082 Q1131.94 24.9894 1130.46 22.9843 Q1128.97 20.953 1125.87 20.953 Q1122.2 20.953 1120.04 23.453 Q1117.88 25.9269 1117.88 30.1717 L1117.88 46.656 L1113.06 46.656 L1113.06 17.4895 L1117.88 17.4895 L1117.88 22.0207 Q1119.52 19.3384 1121.81 18.0624 Q1124.1 16.7864 1127.25 16.7864 Q1130.43 16.7864 1132.64 18.4009 Q1134.88 20.0155 1135.95 23.0884 Z" fill="#000000" fill-rule="nonzero" fill-opacity="1" /><path clip-path="url(#clip040)" d="M1178.45 31.9946 Q1172.64 31.9946 1170.4 33.3227 Q1168.17 34.6509 1168.17 37.854 Q1168.17 40.406 1169.83 41.9164 Q1171.52 43.4008 1174.41 43.4008 Q1178.4 43.4008 1180.8 40.5883 Q1183.22 37.7498 1183.22 33.0623 L1183.22 31.9946 L1178.45 31.9946 M1188.01 30.0155 L1188.01 46.656 L1183.22 46.656 L1183.22 42.2289 Q1181.58 44.8852 1179.13 46.1612 Q1176.68 47.4112 1173.14 47.4112 Q1168.66 47.4112 1166 44.9112 Q1163.37 42.3852 1163.37 38.1665 Q1163.37 33.2446 1166.65 30.7446 Q1169.96 28.2446 1176.5 28.2446 L1183.22 28.2446 L1183.22 27.7759 Q1183.22 24.4686 1181.03 22.6718 Q1178.87 20.8488 1174.94 20.8488 Q1172.44 20.8488 1170.07 21.4478 Q1167.7 22.0468 1165.51 23.2447 L1165.51 18.8176 Q1168.14 17.802 1170.61 17.3072 Q1173.09 16.7864 1175.43 16.7864 Q1181.76 16.7864 1184.88 20.0676 Q1188.01 23.3488 1188.01 30.0155 Z" fill="#000000" fill-rule="nonzero" fill-opacity="1" /><path clip-path="url(#clip040)" d="M1197.88 6.13538 L1202.67 6.13538 L1202.67 46.656 L1197.88 46.656 L1197.88 6.13538 Z" fill="#000000" fill-rule="nonzero" fill-opacity="1" /><path clip-path="url(#clip040)" d="M1227.23 30.1717 L1275.35 30.1717 L1275.35 33.9217 L1227.23 33.9217 L1227.23 30.1717 Z" fill="#000000" fill-rule="nonzero" fill-opacity="1" /><path clip-path="url(#clip040)" d="M1300.14 7.776 L1305.4 7.776 L1305.4 24.2082 L1322.85 7.776 L1329.62 7.776 L1310.33 25.9009 L1331 46.656 L1324.08 46.656 L1305.4 27.9321 L1305.4 46.656 L1300.14 46.656 L1300.14 7.776 Z" fill="#000000" fill-rule="nonzero" fill-opacity="1" /><path clip-path="url(#clip040)" d="M1335.53 22.4374 L1368.92 22.4374 L1368.92 26.8124 L1335.53 26.8124 L1335.53 22.4374 M1335.53 33.0623 L1368.92 33.0623 L1368.92 37.4894 L1335.53 37.4894 L1335.53 33.0623 Z" fill="#000000" fill-rule="nonzero" fill-opacity="1" /><path clip-path="url(#clip040)" d="M1392.17 25.1197 Q1388.63 25.1197 1386.55 27.5415 Q1384.49 29.9634 1384.49 34.1821 Q1384.49 38.3748 1386.55 40.8227 Q1388.63 43.2446 1392.17 43.2446 Q1395.72 43.2446 1397.77 40.8227 Q1399.86 38.3748 1399.86 34.1821 Q1399.86 29.9634 1397.77 27.5415 Q1395.72 25.1197 1392.17 25.1197 M1402.62 8.63537 L1402.62 13.427 Q1400.64 12.4895 1398.61 11.9947 Q1396.6 11.4999 1394.62 11.4999 Q1389.41 11.4999 1386.65 15.0155 Q1383.92 18.5312 1383.53 25.6405 Q1385.06 23.3749 1387.38 22.177 Q1389.7 20.953 1392.49 20.953 Q1398.35 20.953 1401.73 24.5207 Q1405.14 28.0623 1405.14 34.1821 Q1405.14 40.1717 1401.6 43.7914 Q1398.06 47.4112 1392.17 47.4112 Q1385.43 47.4112 1381.86 42.255 Q1378.29 37.0727 1378.29 27.2551 Q1378.29 18.0364 1382.67 12.5676 Q1387.04 7.07288 1394.41 7.07288 Q1396.39 7.07288 1398.4 7.4635 Q1400.43 7.85412 1402.62 8.63537 Z" fill="#000000" fill-rule="nonzero" fill-opacity="1" /><path clip-path="url(#clip040)" d="M1441.99 6.18747 Q1438.5 12.177 1436.81 18.0364 Q1435.12 23.8957 1435.12 29.9113 Q1435.12 35.9269 1436.81 41.8383 Q1438.53 47.7237 1441.99 53.6872 L1437.83 53.6872 Q1433.92 47.5675 1431.97 41.656 Q1430.04 35.7446 1430.04 29.9113 Q1430.04 24.104 1431.97 18.2187 Q1433.89 12.3333 1437.83 6.18747 L1441.99 6.18747 Z" fill="#000000" fill-rule="nonzero" fill-opacity="1" /><path clip-path="url(#clip040)" d="M1456.55 30.9269 Q1453.63 30.3019 1452.07 28.6092 Q1450.51 26.9426 1450.51 24.5207 Q1450.51 20.8488 1453.48 18.7916 Q1456.42 16.7603 1461.52 16.7603 Q1463.5 16.7603 1465.72 17.0728 Q1467.93 17.3853 1470.48 18.0103 L1470.48 22.3593 Q1467.96 21.6041 1465.87 21.2655 Q1463.76 20.927 1461.91 20.927 Q1458.81 20.927 1457.02 22.1249 Q1455.19 23.3228 1455.19 24.9894 Q1455.19 26.8124 1456.97 27.9842 Q1458.71 29.1301 1461.73 29.1301 L1465.77 29.1301 L1465.77 33.0884 L1461.91 33.0884 Q1458.35 33.0884 1456.47 34.4165 Q1454.44 35.8748 1454.44 38.1665 Q1454.44 40.5102 1456.63 41.9685 Q1458.84 43.4269 1462.77 43.4269 Q1465.19 43.4269 1467.41 42.9581 Q1469.62 42.4633 1471.47 41.4998 L1471.47 45.9529 Q1469.13 46.682 1466.94 47.0466 Q1464.73 47.4112 1462.64 47.4112 Q1456.44 47.4112 1453.09 45.0414 Q1449.73 42.6716 1449.73 38.1665 Q1449.73 35.354 1451.52 33.4529 Q1453.32 31.5519 1456.55 30.9269 Z" fill="#000000" fill-rule="nonzero" fill-opacity="1" /><path clip-path="url(#clip040)" d="M1480.74 22.4374 L1514.13 22.4374 L1514.13 26.8124 L1480.74 26.8124 L1480.74 22.4374 M1480.74 33.0623 L1514.13 33.0623 L1514.13 37.4894 L1480.74 37.4894 L1480.74 33.0623 Z" fill="#000000" fill-rule="nonzero" fill-opacity="1" /><path clip-path="url(#clip040)" d="M1536.73 11.2395 Q1532.67 11.2395 1530.61 15.2499 Q1528.58 19.2343 1528.58 27.2551 Q1528.58 35.2498 1530.61 39.2602 Q1532.67 43.2446 1536.73 43.2446 Q1540.82 43.2446 1542.85 39.2602 Q1544.91 35.2498 1544.91 27.2551 Q1544.91 19.2343 1542.85 15.2499 Q1540.82 11.2395 1536.73 11.2395 M1536.73 7.07288 Q1543.27 7.07288 1546.7 12.2551 Q1550.17 17.4114 1550.17 27.2551 Q1550.17 37.0727 1546.7 42.255 Q1543.27 47.4112 1536.73 47.4112 Q1530.19 47.4112 1526.73 42.255 Q1523.29 37.0727 1523.29 27.2551 Q1523.29 17.4114 1526.73 12.2551 Q1530.19 7.07288 1536.73 7.07288 Z" fill="#000000" fill-rule="nonzero" fill-opacity="1" /><path clip-path="url(#clip040)" d="M1559.41 40.0415 L1564.91 40.0415 L1564.91 46.656 L1559.41 46.656 L1559.41 40.0415 Z" fill="#000000" fill-rule="nonzero" fill-opacity="1" /><path clip-path="url(#clip040)" d="M1587.62 11.2395 Q1583.55 11.2395 1581.5 15.2499 Q1579.46 19.2343 1579.46 27.2551 Q1579.46 35.2498 1581.5 39.2602 Q1583.55 43.2446 1587.62 43.2446 Q1591.7 43.2446 1593.74 39.2602 Q1595.79 35.2498 1595.79 27.2551 Q1595.79 19.2343 1593.74 15.2499 Q1591.7 11.2395 1587.62 11.2395 M1587.62 7.07288 Q1594.15 7.07288 1597.59 12.2551 Q1601.05 17.4114 1601.05 27.2551 Q1601.05 37.0727 1597.59 42.255 Q1594.15 47.4112 1587.62 47.4112 Q1581.08 47.4112 1577.62 42.255 Q1574.18 37.0727 1574.18 27.2551 Q1574.18 17.4114 1577.62 12.2551 Q1581.08 7.07288 1587.62 7.07288 Z" fill="#000000" fill-rule="nonzero" fill-opacity="1" /><path clip-path="url(#clip040)" d="M1621.55 11.2395 Q1617.49 11.2395 1615.43 15.2499 Q1613.4 19.2343 1613.4 27.2551 Q1613.4 35.2498 1615.43 39.2602 Q1617.49 43.2446 1621.55 43.2446 Q1625.64 43.2446 1627.67 39.2602 Q1629.73 35.2498 1629.73 27.2551 Q1629.73 19.2343 1627.67 15.2499 Q1625.64 11.2395 1621.55 11.2395 M1621.55 7.07288 Q1628.08 7.07288 1631.52 12.2551 Q1634.99 17.4114 1634.99 27.2551 Q1634.99 37.0727 1631.52 42.255 Q1628.08 47.4112 1621.55 47.4112 Q1615.01 47.4112 1611.55 42.255 Q1608.11 37.0727 1608.11 27.2551 Q1608.11 17.4114 1611.55 12.2551 Q1615.01 7.07288 1621.55 7.07288 Z" fill="#000000" fill-rule="nonzero" fill-opacity="1" /><path clip-path="url(#clip040)" d="M1645.14 42.2289 L1653.74 42.2289 L1653.74 12.5676 L1644.39 14.4426 L1644.39 9.65099 L1653.68 7.776 L1658.94 7.776 L1658.94 42.2289 L1667.54 42.2289 L1667.54 46.656 L1645.14 46.656 L1645.14 42.2289 Z" fill="#000000" fill-rule="nonzero" fill-opacity="1" /><path clip-path="url(#clip040)" d="M1678.71 40.0415 L1684.2 40.0415 L1684.2 44.5206 L1679.93 52.8539 L1676.57 52.8539 L1678.71 44.5206 L1678.71 40.0415 Z" fill="#000000" fill-rule="nonzero" fill-opacity="1" /><path clip-path="url(#clip040)" d="M1722.88 10.6927 L1736.34 46.656 L1731.26 46.656 L1723.08 25.0936 L1713.03 46.656 L1707.95 46.656 L1720.74 18.6874 L1718.81 13.5312 Q1717.59 10.2499 1714.8 10.2499 L1712.3 10.2499 L1712.3 6.13538 L1715.35 6.18747 Q1721.23 6.26559 1722.88 10.6927 Z" fill="#000000" fill-rule="nonzero" fill-opacity="1" /><path clip-path="url(#clip040)" d="M1743.58 22.4374 L1776.96 22.4374 L1776.96 26.8124 L1743.58 26.8124 L1743.58 22.4374 M1743.58 33.0623 L1776.96 33.0623 L1776.96 37.4894 L1743.58 37.4894 L1743.58 33.0623 Z" fill="#000000" fill-rule="nonzero" fill-opacity="1" /><path clip-path="url(#clip040)" d="M1789.23 42.2289 L1797.82 42.2289 L1797.82 12.5676 L1788.47 14.4426 L1788.47 9.65099 L1797.77 7.776 L1803.03 7.776 L1803.03 42.2289 L1811.63 42.2289 L1811.63 46.656 L1789.23 46.656 L1789.23 42.2289 Z" fill="#000000" fill-rule="nonzero" fill-opacity="1" /><path clip-path="url(#clip040)" d="M1838.19 25.6926 Q1841.96 26.4999 1844.07 29.0519 Q1846.21 31.604 1846.21 35.354 Q1846.21 41.1092 1842.25 44.2602 Q1838.29 47.4112 1831 47.4112 Q1828.55 47.4112 1825.95 46.9164 Q1823.37 46.4477 1820.61 45.4841 L1820.61 40.406 Q1822.8 41.6821 1825.4 42.3331 Q1828.01 42.9841 1830.84 42.9841 Q1835.79 42.9841 1838.37 41.031 Q1840.97 39.0779 1840.97 35.354 Q1840.97 31.9165 1838.55 29.9894 Q1836.16 28.0363 1831.86 28.0363 L1827.33 28.0363 L1827.33 23.7134 L1832.07 23.7134 Q1835.95 23.7134 1838.01 22.177 Q1840.06 20.6145 1840.06 17.6978 Q1840.06 14.703 1837.93 13.1145 Q1835.82 11.4999 1831.86 11.4999 Q1829.7 11.4999 1827.22 11.9687 Q1824.75 12.4374 1821.78 13.427 L1821.78 8.73954 Q1824.78 7.90621 1827.38 7.48954 Q1830.01 7.07288 1832.33 7.07288 Q1838.32 7.07288 1841.81 9.80724 Q1845.3 12.5156 1845.3 17.1509 Q1845.3 20.3801 1843.45 22.6197 Q1841.6 24.8332 1838.19 25.6926 Z" fill="#000000" fill-rule="nonzero" fill-opacity="1" /><path clip-path="url(#clip040)" d="M1867.43 11.2395 Q1863.37 11.2395 1861.31 15.2499 Q1859.28 19.2343 1859.28 27.2551 Q1859.28 35.2498 1861.31 39.2602 Q1863.37 43.2446 1867.43 43.2446 Q1871.52 43.2446 1873.55 39.2602 Q1875.61 35.2498 1875.61 27.2551 Q1875.61 19.2343 1873.55 15.2499 Q1871.52 11.2395 1867.43 11.2395 M1867.43 7.07288 Q1873.97 7.07288 1877.41 12.2551 Q1880.87 17.4114 1880.87 27.2551 Q1880.87 37.0727 1877.41 42.255 Q1873.97 47.4112 1867.43 47.4112 Q1860.9 47.4112 1857.43 42.255 Q1853.99 37.0727 1853.99 27.2551 Q1853.99 17.4114 1857.43 12.2551 Q1860.9 7.07288 1867.43 7.07288 Z" fill="#000000" fill-rule="nonzero" fill-opacity="1" /><path clip-path="url(#clip040)" d="M1888.68 6.18747 L1892.85 6.18747 Q1896.75 12.3333 1898.68 18.2187 Q1900.64 24.104 1900.64 29.9113 Q1900.64 35.7446 1898.68 41.656 Q1896.75 47.5675 1892.85 53.6872 L1888.68 53.6872 Q1892.15 47.7237 1893.84 41.8383 Q1895.56 35.9269 1895.56 29.9113 Q1895.56 23.8957 1893.84 18.0364 Q1892.15 12.177 1888.68 6.18747 Z" fill="#000000" fill-rule="nonzero" fill-opacity="1" /><polyline clip-path="url(#clip042)" style="stroke:#ff0000; stroke-linecap:round; stroke-linejoin:round; stroke-width:8; stroke-opacity:1; fill:none" stroke-dasharray="32, 20" points="279.759,184.236 287.777,319.108 295.796,139.268 303.814,253.932 311.832,324.395 319.851,390.969 327.869,384.463 335.888,269.11 343.906,336.077 351.924,295.254 359.943,542.081 367.961,536.616 375.98,467.33 383.998,556.645 392.016,541.352 400.035,707.647 408.053,424.404 416.072,496.388 424.09,694.254 432.108,550 440.127,700.615 448.145,673.898 456.164,603.723 464.182,803.479 472.2,739.034 480.219,737.424 488.237,805.332 496.256,834.516 504.274,675.718 512.292,769.772 520.311,827.028 528.329,855.481 536.348,798.384 544.366,887.049 552.384,840.087 560.403,838.182 568.421,882.599 576.44,835.202 584.458,792.007 592.476,901.804 600.495,875.479 608.513,864.936 616.532,892.021 624.55,1007.56 632.568,925.427 640.587,814.16 648.605,1072.65 656.624,999.532 664.642,919.279 672.66,1013.74 680.679,970.793 688.697,992.388 696.716,969.033 704.734,1013.82 712.752,925.028 720.771,980.514 728.789,1014.68 736.808,989.592 744.826,943.893 752.844,1071.63 760.863,1023.96 768.881,1029.11 776.9,914.264 784.918,1082.27 792.936,1053.02 800.955,1023.55 808.973,1073.41 816.992,1001.81 825.01,1069.5 833.028,1082.41 841.047,1095.06 849.065,974.342 857.084,1092.59 865.102,1051.64 873.12,1003.82 881.139,974.018 889.157,1076.19 897.176,1097.37 905.194,1064.61 913.212,1126.12 921.231,1081.36 929.249,1049.62 937.268,1149.83 945.286,1145.51 953.304,1092 961.323,1141.97 969.341,1142.13 977.36,1101.81 985.378,1162.15 993.396,1086.47 1001.41,1111.13 1009.43,1017.15 1017.45,1159.63 1025.47,1049.74 1033.49,1042.77 1041.51,1084.22 1049.53,974.586 1057.54,1056.7 1065.56,1073.18 1073.58,1023.95 1081.6,1019.69 1089.62,1028.27 1097.64,1014.76 1105.65,1110.48 1113.67,980.321 1121.69,1038.07 1129.71,1057.09 1137.73,1149.03 1145.75,1046.98 1153.76,1159.55 1161.78,1059.29 1169.8,1129.31 1177.82,1046.84 1185.84,1075.18 1193.86,1058.22 1201.87,1035.73 1209.89,1039.42 1217.91,1074.63 1225.93,1004.49 1233.95,967.449 1241.97,995.978 1249.99,1032.1 1258,1071.07 1266.02,1038.41 1274.04,1060.51 1282.06,1036.26 1290.08,1066.32 1298.1,1074.19 1306.11,1014.23 1314.13,1024.55 1322.15,970.6 1330.17,1118.26 1338.19,1078.86 1346.21,1052.53 1354.22,1090.79 1362.24,1058.04 1370.26,1127.3 1378.28,997.602 1386.3,1042.23 1394.32,1079.8 1402.33,1102.53 1410.35,1066.52 1418.37,1075.32 1426.39,1073.29 1434.41,1068.42 1442.43,1038.05 1450.45,1208.09 1458.46,1090.73 1466.48,1077.43 1474.5,1120.24 1482.52,977.678 1490.54,1047.65 1498.56,1067.72 1506.57,1089.56 1514.59,1081.19 1522.61,1028.93 1530.63,1113.55 1538.65,1058.83 1546.67,1085.71 1554.68,1000.89 1562.7,1001.13 1570.72,1062.14 1578.74,1075.82 1586.76,1113.61 1594.78,1121.96 1602.79,1128.87 1610.81,1148.58 1618.83,1056.17 1626.85,1050.62 1634.87,1082.72 1642.89,1131.74 1650.91,1046.41 1658.92,1075.68 1666.94,1082.02 1674.96,1194.95 1682.98,1108.68 1691,1096.13 1699.02,1199.82 1707.03,1094.64 1715.05,1194.09 1723.07,1180.68 1731.09,1100.99 1739.11,1158.59 1747.13,1232.5 1755.14,1186.64 1763.16,1237.19 1771.18,1170.83 1779.2,1187.97 1787.22,1180.84 1795.24,1208.07 1803.25,1206.62 1811.27,1166.97 1819.29,1205.88 1827.31,1190.39 1835.33,1208.27 1843.35,1228.66 1851.37,1137.68 1859.38,1136.59 1867.4,1183.18 1875.42,1222.23 1883.44,1107.61 1891.46,1165.63 1899.48,1088.68 1907.49,1147.37 1915.51,1236.33 1923.53,1129.49 1931.55,1146.97 1939.57,1156.46 1947.59,1188.41 1955.6,1227.02 1963.62,1112.64 1971.64,1157.85 1979.66,1231.01 1987.68,1108.97 1995.7,1189.68 2003.71,1133.59 2011.73,1149.81 2019.75,1211.72 2027.77,1199.3 2035.79,1275.3 2043.81,1129.06 2051.83,1205.14 2059.84,1257.5 2067.86,1175.72 2075.88,1264.2 2083.9,1244.75 2091.92,1280.98 2099.94,1285.28 2107.95,1299.76 2115.97,1349.16 2123.99,1267.49 2132.01,1300.63 2140.03,1329.99 2148.05,1260.01 2156.06,1284.94 2164.08,1325.09 2172.1,1271.01 2180.12,1374.48 2188.14,1272.92 2196.16,1305.21 2204.17,1352.06 2212.19,1228.26 2220.21,1385.78 2228.23,1321.79 2236.25,1293.15 2244.27,1339.26 2252.29,1372.96 2260.3,1301.77 2268.32,1295.48 2276.34,1361.43 2284.36,1301.35 2292.38,1344.41 "/>
<polyline clip-path="url(#clip042)" style="stroke:#000080; stroke-linecap:round; stroke-linejoin:round; stroke-width:8; stroke-opacity:1; fill:none" points="279.759,348.107 287.777,430.87 295.796,497.965 303.814,546.589 311.832,600.028 319.851,634.788 327.869,677.515 335.888,718.72 343.906,747.161 351.924,780.557 359.943,807.192 367.961,840.138 375.98,867.402 383.998,883.984 392.016,909.792 400.035,932.774 408.053,950.74 416.072,968.918 424.09,990.537 432.108,1002.46 440.127,1015.89 448.145,1036.12 456.164,1047.03 464.182,1059.39 472.2,1067.15 480.219,1079.92 488.237,1089.72 496.256,1100.29 504.274,1110.31 512.292,1113.98 520.311,1121.87 528.329,1130.87 536.348,1136.64 544.366,1147.81 552.384,1146.37 560.403,1152.01 568.421,1156.6 576.44,1165.47 584.458,1168.63 592.476,1169.36 600.495,1173.92 608.513,1175.13 616.532,1181.35 624.55,1181.72 632.568,1189.46 640.587,1193.88 648.605,1193.53 656.624,1192.84 664.642,1194.59 672.66,1197.01 680.679,1195.43 688.697,1200.85 696.716,1201.23 704.734,1203.36 712.752,1202.61 720.771,1205.33 728.789,1210.97 736.808,1208.96 744.826,1212.45 752.844,1210.07 760.863,1213.02 768.881,1210.56 776.9,1210.95 784.918,1211.76 792.936,1214.93 800.955,1211.12 808.973,1213.5 816.992,1212.69 825.01,1212.15 833.028,1217.06 841.047,1213.13 849.065,1214.92 857.084,1215.66 865.102,1215.34 873.12,1215.57 881.139,1215.52 889.157,1219.25 897.176,1220.26 905.194,1213.75 913.212,1217.59 921.231,1218.72 929.249,1219.71 937.268,1219.62 945.286,1220.54 953.304,1220.78 961.323,1218.58 969.341,1223.23 977.36,1223.75 985.378,1222.94 993.396,1223.51 1001.41,1222.32 1009.43,1220.47 1017.45,1224.95 1025.47,1221.27 1033.49,1223.33 1041.51,1222.9 1049.53,1223.51 1057.54,1223.96 1065.56,1223.06 1073.58,1227.21 1081.6,1222.3 1089.62,1224.79 1097.64,1221.03 1105.65,1223.64 1113.67,1223.06 1121.69,1231.23 1129.71,1227.13 1137.73,1223.74 1145.75,1221.63 1153.76,1224.01 1161.78,1221.3 1169.8,1224.96 1177.82,1220.31 1185.84,1220.39 1193.86,1223.82 1201.87,1224.8 1209.89,1219.84 1217.91,1223.49 1225.93,1224.12 1233.95,1221.47 1241.97,1219.94 1249.99,1220.54 1258,1224.51 1266.02,1224.68 1274.04,1223.64 1282.06,1227.13 1290.08,1228.58 1298.1,1224.96 1306.11,1225.31 1314.13,1225.34 1322.15,1225.68 1330.17,1224.85 1338.19,1229.99 1346.21,1227.17 1354.22,1223.75 1362.24,1230.66 1370.26,1227.24 1378.28,1226.17 1386.3,1222.78 1394.32,1229.19 1402.33,1227.92 1410.35,1227.12 1418.37,1228.73 1426.39,1229.91 1434.41,1225.12 1442.43,1230.19 1450.45,1228.86 1458.46,1229.06 1466.48,1230.3 1474.5,1226.04 1482.52,1227.96 1490.54,1231.63 1498.56,1233.49 1506.57,1229.39 1514.59,1233.92 1522.61,1229.03 1530.63,1229.12 1538.65,1231.88 1546.67,1232.56 1554.68,1228.29 1562.7,1228.35 1570.72,1232 1578.74,1231.17 1586.76,1230.64 1594.78,1229.73 1602.79,1232 1610.81,1231.56 1618.83,1233.49 1626.85,1230.94 1634.87,1229.76 1642.89,1228.32 1650.91,1230.97 1658.92,1229.86 1666.94,1233.56 1674.96,1231.08 1682.98,1232.12 1691,1231.27 1699.02,1233.95 1707.03,1230.49 1715.05,1232.18 1723.07,1229.25 1731.09,1232.72 1739.11,1233.39 1747.13,1231.8 1755.14,1228.34 1763.16,1235.04 1771.18,1230.23 1779.2,1233.04 1787.22,1232.73 1795.24,1233.45 1803.25,1227.57 1811.27,1233.43 1819.29,1234.57 1827.31,1232.3 1835.33,1234.72 1843.35,1228.91 1851.37,1225.17 1859.38,1229.22 1867.4,1226.36 1875.42,1225.92 1883.44,1229.84 1891.46,1223.42 1899.48,1227.35 1907.49,1223.88 1915.51,1222.97 1923.53,1222.06 1931.55,1222.9 1939.57,1220.95 1947.59,1225.27 1955.6,1228.05 1963.62,1226.63 1971.64,1226.16 1979.66,1223.89 1987.68,1221.49 1995.7,1224.21 2003.71,1224.44 2011.73,1225.67 2019.75,1224.89 2027.77,1228.31 2035.79,1228.08 2043.81,1231.69 2051.83,1224.65 2059.84,1227.58 2067.86,1230.29 2075.88,1227.81 2083.9,1230.76 2091.92,1230.44 2099.94,1227.27 2107.95,1230.59 2115.97,1231.57 2123.99,1226.98 2132.01,1226.4 2140.03,1229.85 2148.05,1226 2156.06,1229.64 2164.08,1222.75 2172.1,1227.56 2180.12,1230.43 2188.14,1228 2196.16,1226.4 2204.17,1229.15 2212.19,1227.84 2220.21,1229.27 2228.23,1224.73 2236.25,1226.45 2244.27,1223.67 2252.29,1227.13 2260.3,1230.19 2268.32,1227.24 2276.34,1231.21 2284.36,1225.68 2292.38,1231.45 "/>
<path clip-path="url(#clip042)" d="M279.759 529.436 L287.777 597.145 L295.796 661.191 L303.814 712.259 L311.832 761.4 L319.851 788.483 L327.869 831.639 L335.888 874.98 L343.906 886.902 L351.924 912.703 L359.943 941.278 L367.961 977.817 L375.98 1004.5 L383.998 1016.28 L392.016 1038.71 L400.035 1063.81 L408.053 1078.62 L416.072 1101.07 L424.09 1125.7 L432.108 1132.64 L440.127 1144.15 L448.145 1151.25 L456.164 1171 L464.182 1184.2 L472.2 1201.5 L480.219 1205.67 L488.237 1208.5 L496.256 1222.59 L504.274 1223.96 L512.292 1237.69 L520.311 1234.97 L528.329 1249.75 L536.348 1259.79 L544.366 1271.3 L552.384 1264.43 L560.403 1266.61 L568.421 1271.03 L576.44 1279.8 L584.458 1282.92 L592.476 1283.77 L600.495 1293.12 L608.513 1289.82 L616.532 1298.7 L624.55 1293.77 L632.568 1296.13 L640.587 1312.34 L648.605 1314.03 L656.624 1304.25 L664.642 1305.88 L672.66 1311.77 L680.679 1317.92 L688.697 1308.13 L696.716 1313.83 L704.734 1313.41 L712.752 1309.98 L720.771 1318.49 L728.789 1327.85 L736.808 1312.95 L744.826 1322.6 L752.844 1319.25 L760.863 1320.9 L768.881 1316.87 L776.9 1326.88 L784.918 1330.58 L792.936 1313.03 L800.955 1322.98 L808.973 1322.63 L816.992 1321.22 L825.01 1321.07 L833.028 1329.46 L841.047 1323.78 L849.065 1325.12 L857.084 1331.78 L865.102 1320.48 L873.12 1324.55 L881.139 1313.1 L889.157 1334.54 L897.176 1330.41 L905.194 1327.93 L913.212 1326.98 L921.231 1325.49 L929.249 1329.25 L937.268 1340.03 L945.286 1328.39 L953.304 1324.5 L961.323 1335.65 L969.341 1326.09 L977.36 1330.16 L985.378 1326.82 L993.396 1340.73 L1001.41 1334.15 L1009.43 1336.91 L1017.45 1337.73 L1025.47 1327.83 L1033.49 1339.45 L1041.51 1340.33 L1049.53 1329.01 L1057.54 1340.94 L1065.56 1329.65 L1073.58 1331.9 L1081.6 1337.03 L1089.62 1327.88 L1097.64 1336.97 L1105.65 1337.64 L1113.67 1337.63 L1121.69 1345.96 L1129.71 1331.92 L1137.73 1335.34 L1145.75 1336.24 L1153.76 1330.89 L1161.78 1337.89 L1169.8 1332.63 L1177.82 1328.25 L1185.84 1332.27 L1193.86 1345.46 L1201.87 1336.37 L1209.89 1334.05 L1217.91 1337.81 L1225.93 1331.74 L1233.95 1330.18 L1241.97 1332.53 L1249.99 1332.04 L1258 1330.68 L1266.02 1329.64 L1274.04 1334.6 L1282.06 1338.82 L1290.08 1341.72 L1298.1 1325.23 L1306.11 1331.02 L1314.13 1328.81 L1322.15 1335.45 L1330.17 1327.93 L1338.19 1340.28 L1346.21 1329.88 L1354.22 1331.48 L1362.24 1342.77 L1370.26 1333.74 L1378.28 1333.58 L1386.3 1328.77 L1394.32 1332.58 L1402.33 1325.89 L1410.35 1318.56 L1418.37 1335.76 L1426.39 1345.03 L1434.41 1332.82 L1442.43 1341.33 L1450.45 1344.78 L1458.46 1336.54 L1466.48 1342.89 L1474.5 1338.43 L1482.52 1341.49 L1490.54 1342.47 L1498.56 1336.55 L1506.57 1336.8 L1514.59 1339.73 L1522.61 1339.2 L1530.63 1346.33 L1538.65 1343.71 L1546.67 1346.59 L1554.68 1345.05 L1562.7 1336.01 L1570.72 1342.67 L1578.74 1343.58 L1586.76 1342.56 L1594.78 1339.7 L1602.79 1343.75 L1610.81 1349.26 L1618.83 1352.15 L1626.85 1342.36 L1634.87 1348.64 L1642.89 1343.15 L1650.91 1353.81 L1658.92 1338.34 L1666.94 1343.8 L1674.96 1338.66 L1682.98 1341.56 L1691 1347.91 L1699.02 1348.08 L1707.03 1337.98 L1715.05 1347.69 L1723.07 1341.52 L1731.09 1334.5 L1739.11 1340.23 L1747.13 1344.38 L1755.14 1347.63 L1763.16 1338.54 L1771.18 1332.85 L1779.2 1335.05 L1787.22 1336.44 L1795.24 1339.71 L1803.25 1333.66 L1811.27 1339.08 L1819.29 1341.18 L1827.31 1338.05 L1835.33 1340.69 L1843.35 1332.08 L1851.37 1337.53 L1859.38 1340.53 L1867.4 1334.25 L1875.42 1336.85 L1883.44 1341.14 L1891.46 1328.84 L1899.48 1335.62 L1907.49 1339.73 L1915.51 1339.06 L1923.53 1335.91 L1931.55 1335.08 L1939.57 1331.32 L1947.59 1338.24 L1955.6 1338.5 L1963.62 1336.02 L1971.64 1331.4 L1979.66 1330.62 L1987.68 1332.08 L1995.7 1333.76 L2003.71 1330.36 L2011.73 1340.23 L2019.75 1321.96 L2027.77 1332.71 L2035.79 1341.63 L2043.81 1333.51 L2051.83 1332.47 L2059.84 1329.17 L2067.86 1334.75 L2075.88 1339.5 L2083.9 1337.24 L2091.92 1340.02 L2099.94 1334.43 L2107.95 1339.71 L2115.97 1332.22 L2123.99 1336.26 L2132.01 1341.83 L2140.03 1341.75 L2148.05 1336.54 L2156.06 1337.06 L2164.08 1332.73 L2172.1 1324.83 L2180.12 1349.49 L2188.14 1337.13 L2196.16 1329.9 L2204.17 1338.51 L2212.19 1335.15 L2220.21 1334.09 L2228.23 1330.92 L2236.25 1333.68 L2244.27 1326.5 L2252.29 1335.04 L2260.3 1343.95 L2268.32 1334.35 L2276.34 1338.18 L2284.36 1332.63 L2292.38 1337.91 L2292.38 1125.18 L2284.36 1116.83 L2276.34 1126.58 L2268.32 1116.96 L2260.3 1118.1 L2252.29 1115.97 L2244.27 1111.35 L2236.25 1112.97 L2228.23 1105.2 L2220.21 1122.33 L2212.19 1113.29 L2204.17 1116.59 L2196.16 1120.61 L2188.14 1117.34 L2180.12 1118.66 L2172.1 1120.24 L2164.08 1116.5 L2156.06 1112.3 L2148.05 1109.4 L2140.03 1115.16 L2132.01 1116.21 L2123.99 1118.69 L2115.97 1126.87 L2107.95 1120.61 L2099.94 1112.97 L2091.92 1120.36 L2083.9 1122.47 L2075.88 1112.14 L2067.86 1120.21 L2059.84 1110.33 L2051.83 1107.17 L2043.81 1133.4 L2035.79 1113.85 L2027.77 1117.13 L2019.75 1121.38 L2011.73 1120.28 L2003.71 1114.24 L1995.7 1118.36 L1987.68 1109.22 L1979.66 1109.83 L1971.64 1120.51 L1963.62 1108.21 L1955.6 1118.16 L1947.59 1115.76 L1939.57 1114.56 L1931.55 1114.81 L1923.53 1108.18 L1915.51 1106.54 L1907.49 1104.84 L1899.48 1117.7 L1891.46 1121.54 L1883.44 1112.71 L1875.42 1119.67 L1867.4 1117.47 L1859.38 1119.69 L1851.37 1107.49 L1843.35 1114.63 L1835.33 1126.86 L1827.31 1122.12 L1819.29 1136.03 L1811.27 1133.04 L1803.25 1119.66 L1795.24 1124.14 L1787.22 1125.27 L1779.2 1124.68 L1771.18 1126.59 L1763.16 1124.22 L1755.14 1119.78 L1747.13 1121.85 L1739.11 1123.91 L1731.09 1130.89 L1723.07 1114.64 L1715.05 1114.81 L1707.03 1123.37 L1699.02 1124.12 L1691 1123.58 L1682.98 1115.32 L1674.96 1124.56 L1666.94 1117.52 L1658.92 1106.02 L1650.91 1108.11 L1642.89 1109.59 L1634.87 1111.12 L1626.85 1115.24 L1618.83 1120.19 L1610.81 1118.17 L1602.79 1119.32 L1594.78 1110.76 L1586.76 1111.34 L1578.74 1116.26 L1570.72 1124 L1562.7 1121.42 L1554.68 1113.82 L1546.67 1121.23 L1538.65 1120.52 L1530.63 1110.06 L1522.61 1117.61 L1514.59 1121.69 L1506.57 1110.77 L1498.56 1117.85 L1490.54 1119.46 L1482.52 1118.52 L1474.5 1121.12 L1466.48 1124.29 L1458.46 1119.49 L1450.45 1122.65 L1442.43 1117.89 L1434.41 1111.74 L1426.39 1115.9 L1418.37 1128.02 L1410.35 1121.15 L1402.33 1135.19 L1394.32 1115.79 L1386.3 1107.69 L1378.28 1116.73 L1370.26 1118.67 L1362.24 1132.63 L1354.22 1110.06 L1346.21 1119.11 L1338.19 1119.01 L1330.17 1110.18 L1322.15 1115.75 L1314.13 1119.94 L1306.11 1116.91 L1298.1 1114.29 L1290.08 1113.34 L1282.06 1108.18 L1274.04 1116.68 L1266.02 1112.95 L1258 1108.62 L1249.99 1112.33 L1241.97 1101.77 L1233.95 1112.88 L1225.93 1113.01 L1217.91 1110.14 L1209.89 1105.08 L1201.87 1107.15 L1193.86 1108.49 L1185.84 1100.35 L1177.82 1111.4 L1169.8 1123.36 L1161.78 1105.19 L1153.76 1111.74 L1145.75 1101.86 L1137.73 1110.76 L1129.71 1110.18 L1121.69 1120.89 L1113.67 1111.65 L1105.65 1115.2 L1097.64 1100.73 L1089.62 1114.82 L1081.6 1121 L1073.58 1123.03 L1065.56 1115.99 L1057.54 1108.93 L1049.53 1113.04 L1041.51 1110.5 L1033.49 1110.04 L1025.47 1112.7 L1017.45 1116.95 L1009.43 1106.57 L1001.41 1112.21 L993.396 1113.77 L985.378 1113.25 L977.36 1112.04 L969.341 1121.71 L961.323 1099.16 L953.304 1115.25 L945.286 1103.38 L937.268 1102.06 L929.249 1103.92 L921.231 1105.96 L913.212 1107.4 L905.194 1105.28 L897.176 1108.76 L889.157 1113.93 L881.139 1106.71 L873.12 1099.26 L865.102 1098.69 L857.084 1104.49 L849.065 1101.66 L841.047 1096.85 L833.028 1102.25 L825.01 1085.15 L816.992 1103.71 L808.973 1097.3 L800.955 1098.92 L792.936 1098.05 L784.918 1097.02 L776.9 1101.55 L768.881 1094.84 L760.863 1096.19 L752.844 1097.73 L744.826 1098.49 L736.808 1093.02 L728.789 1085.14 L720.771 1091.53 L712.752 1088.06 L704.734 1084.52 L696.716 1086.49 L688.697 1090.78 L680.679 1077.3 L672.66 1078.54 L664.642 1073.59 L656.624 1075.01 L648.605 1072.75 L640.587 1061.62 L632.568 1069.98 L624.55 1066.96 L616.532 1058.31 L608.513 1049.46 L600.495 1054.92 L592.476 1054.62 L584.458 1043.98 L576.44 1054.3 L568.421 1032.9 L560.403 1038.03 L552.384 1018.73 L544.366 1029.38 L536.348 1010.59 L528.329 997.452 L520.311 994.207 L512.292 984.482 L504.274 973.605 L496.256 970.651 L488.237 951.952 L480.219 946.95 L472.2 935.906 L464.182 926.414 L456.164 915.703 L448.145 905.679 L440.127 885.996 L432.108 864.284 L424.09 842.597 L416.072 814.184 L408.053 816.102 L400.035 794.557 L392.016 779.228 L383.998 742.946 L375.98 725.014 L367.961 694.261 L359.943 664.218 L351.924 624.335 L343.906 597.969 L335.888 563.656 L327.869 518.798 L319.851 480.837 L311.832 433.573 L303.814 384.512 L295.796 330.959 L287.777 257.056 L279.759 163.084  Z" fill="#000080" fill-rule="evenodd" fill-opacity="0.2"/>
<polyline clip-path="url(#clip042)" style="stroke:#000080; stroke-linecap:round; stroke-linejoin:round; stroke-width:4; stroke-opacity:0.2; fill:none" points="279.759,529.436 287.777,597.145 295.796,661.191 303.814,712.259 311.832,761.4 319.851,788.483 327.869,831.639 335.888,874.98 343.906,886.902 351.924,912.703 359.943,941.278 367.961,977.817 375.98,1004.5 383.998,1016.28 392.016,1038.71 400.035,1063.81 408.053,1078.62 416.072,1101.07 424.09,1125.7 432.108,1132.64 440.127,1144.15 448.145,1151.25 456.164,1171 464.182,1184.2 472.2,1201.5 480.219,1205.67 488.237,1208.5 496.256,1222.59 504.274,1223.96 512.292,1237.69 520.311,1234.97 528.329,1249.75 536.348,1259.79 544.366,1271.3 552.384,1264.43 560.403,1266.61 568.421,1271.03 576.44,1279.8 584.458,1282.92 592.476,1283.77 600.495,1293.12 608.513,1289.82 616.532,1298.7 624.55,1293.77 632.568,1296.13 640.587,1312.34 648.605,1314.03 656.624,1304.25 664.642,1305.88 672.66,1311.77 680.679,1317.92 688.697,1308.13 696.716,1313.83 704.734,1313.41 712.752,1309.98 720.771,1318.49 728.789,1327.85 736.808,1312.95 744.826,1322.6 752.844,1319.25 760.863,1320.9 768.881,1316.87 776.9,1326.88 784.918,1330.58 792.936,1313.03 800.955,1322.98 808.973,1322.63 816.992,1321.22 825.01,1321.07 833.028,1329.46 841.047,1323.78 849.065,1325.12 857.084,1331.78 865.102,1320.48 873.12,1324.55 881.139,1313.1 889.157,1334.54 897.176,1330.41 905.194,1327.93 913.212,1326.98 921.231,1325.49 929.249,1329.25 937.268,1340.03 945.286,1328.39 953.304,1324.5 961.323,1335.65 969.341,1326.09 977.36,1330.16 985.378,1326.82 993.396,1340.73 1001.41,1334.15 1009.43,1336.91 1017.45,1337.73 1025.47,1327.83 1033.49,1339.45 1041.51,1340.33 1049.53,1329.01 1057.54,1340.94 1065.56,1329.65 1073.58,1331.9 1081.6,1337.03 1089.62,1327.88 1097.64,1336.97 1105.65,1337.64 1113.67,1337.63 1121.69,1345.96 1129.71,1331.92 1137.73,1335.34 1145.75,1336.24 1153.76,1330.89 1161.78,1337.89 1169.8,1332.63 1177.82,1328.25 1185.84,1332.27 1193.86,1345.46 1201.87,1336.37 1209.89,1334.05 1217.91,1337.81 1225.93,1331.74 1233.95,1330.18 1241.97,1332.53 1249.99,1332.04 1258,1330.68 1266.02,1329.64 1274.04,1334.6 1282.06,1338.82 1290.08,1341.72 1298.1,1325.23 1306.11,1331.02 1314.13,1328.81 1322.15,1335.45 1330.17,1327.93 1338.19,1340.28 1346.21,1329.88 1354.22,1331.48 1362.24,1342.77 1370.26,1333.74 1378.28,1333.58 1386.3,1328.77 1394.32,1332.58 1402.33,1325.89 1410.35,1318.56 1418.37,1335.76 1426.39,1345.03 1434.41,1332.82 1442.43,1341.33 1450.45,1344.78 1458.46,1336.54 1466.48,1342.89 1474.5,1338.43 1482.52,1341.49 1490.54,1342.47 1498.56,1336.55 1506.57,1336.8 1514.59,1339.73 1522.61,1339.2 1530.63,1346.33 1538.65,1343.71 1546.67,1346.59 1554.68,1345.05 1562.7,1336.01 1570.72,1342.67 1578.74,1343.58 1586.76,1342.56 1594.78,1339.7 1602.79,1343.75 1610.81,1349.26 1618.83,1352.15 1626.85,1342.36 1634.87,1348.64 1642.89,1343.15 1650.91,1353.81 1658.92,1338.34 1666.94,1343.8 1674.96,1338.66 1682.98,1341.56 1691,1347.91 1699.02,1348.08 1707.03,1337.98 1715.05,1347.69 1723.07,1341.52 1731.09,1334.5 1739.11,1340.23 1747.13,1344.38 1755.14,1347.63 1763.16,1338.54 1771.18,1332.85 1779.2,1335.05 1787.22,1336.44 1795.24,1339.71 1803.25,1333.66 1811.27,1339.08 1819.29,1341.18 1827.31,1338.05 1835.33,1340.69 1843.35,1332.08 1851.37,1337.53 1859.38,1340.53 1867.4,1334.25 1875.42,1336.85 1883.44,1341.14 1891.46,1328.84 1899.48,1335.62 1907.49,1339.73 1915.51,1339.06 1923.53,1335.91 1931.55,1335.08 1939.57,1331.32 1947.59,1338.24 1955.6,1338.5 1963.62,1336.02 1971.64,1331.4 1979.66,1330.62 1987.68,1332.08 1995.7,1333.76 2003.71,1330.36 2011.73,1340.23 2019.75,1321.96 2027.77,1332.71 2035.79,1341.63 2043.81,1333.51 2051.83,1332.47 2059.84,1329.17 2067.86,1334.75 2075.88,1339.5 2083.9,1337.24 2091.92,1340.02 2099.94,1334.43 2107.95,1339.71 2115.97,1332.22 2123.99,1336.26 2132.01,1341.83 2140.03,1341.75 2148.05,1336.54 2156.06,1337.06 2164.08,1332.73 2172.1,1324.83 2180.12,1349.49 2188.14,1337.13 2196.16,1329.9 2204.17,1338.51 2212.19,1335.15 2220.21,1334.09 2228.23,1330.92 2236.25,1333.68 2244.27,1326.5 2252.29,1335.04 2260.3,1343.95 2268.32,1334.35 2276.34,1338.18 2284.36,1332.63 2292.38,1337.91 "/>
<path clip-path="url(#clip040)" d="M1649.44 353.276 L2281.64 353.276 L2281.64 145.916 L1649.44 145.916  Z" fill="#ffffff" fill-rule="evenodd" fill-opacity="1"/>
<polyline clip-path="url(#clip040)" style="stroke:#000000; stroke-linecap:round; stroke-linejoin:round; stroke-width:4; stroke-opacity:1; fill:none" points="1649.44,353.276 2281.64,353.276 2281.64,145.916 1649.44,145.916 1649.44,353.276 "/>
<polyline clip-path="url(#clip040)" style="stroke:#ff0000; stroke-linecap:round; stroke-linejoin:round; stroke-width:8; stroke-opacity:1; fill:none" stroke-dasharray="32, 20" points="1673.15,197.756 1815.37,197.756 "/>
<path clip-path="url(#clip040)" d="M1855.09 183.647 Q1850 183.647 1846.99 187.443 Q1844.01 191.24 1844.01 197.79 Q1844.01 204.318 1846.99 208.114 Q1850 211.911 1855.09 211.911 Q1860.19 211.911 1863.15 208.114 Q1866.14 204.318 1866.14 197.79 Q1866.14 191.24 1863.15 187.443 Q1860.19 183.647 1855.09 183.647 M1855.09 179.851 Q1862.36 179.851 1866.71 184.735 Q1871.07 189.596 1871.07 197.79 Q1871.07 205.962 1866.71 210.846 Q1862.36 215.707 1855.09 215.707 Q1847.8 215.707 1843.43 210.846 Q1839.08 205.985 1839.08 197.79 Q1839.08 189.596 1843.43 184.735 Q1847.8 179.851 1855.09 179.851 Z" fill="#000000" fill-rule="nonzero" fill-opacity="1" /><path clip-path="url(#clip040)" d="M1896.81 202.096 Q1896.81 197.397 1894.86 194.735 Q1892.94 192.05 1889.56 192.05 Q1886.18 192.05 1884.24 194.735 Q1882.32 197.397 1882.32 202.096 Q1882.32 206.795 1884.24 209.48 Q1886.18 212.142 1889.56 212.142 Q1892.94 212.142 1894.86 209.48 Q1896.81 206.795 1896.81 202.096 M1882.32 193.045 Q1883.66 190.73 1885.7 189.619 Q1887.76 188.485 1890.6 188.485 Q1895.33 188.485 1898.27 192.235 Q1901.23 195.985 1901.23 202.096 Q1901.23 208.207 1898.27 211.957 Q1895.33 215.707 1890.6 215.707 Q1887.76 215.707 1885.7 214.596 Q1883.66 213.462 1882.32 211.147 L1882.32 215.036 L1878.03 215.036 L1878.03 179.017 L1882.32 179.017 L1882.32 193.045 Z" fill="#000000" fill-rule="nonzero" fill-opacity="1" /><path clip-path="url(#clip040)" d="M1924.82 189.874 L1924.82 193.902 Q1923.01 192.976 1921.07 192.513 Q1919.12 192.05 1917.04 192.05 Q1913.87 192.05 1912.27 193.022 Q1910.7 193.994 1910.7 195.939 Q1910.7 197.42 1911.83 198.277 Q1912.96 199.11 1916.39 199.874 L1917.85 200.198 Q1922.39 201.17 1924.28 202.952 Q1926.2 204.712 1926.2 207.883 Q1926.2 211.494 1923.33 213.601 Q1920.49 215.707 1915.49 215.707 Q1913.4 215.707 1911.14 215.29 Q1908.89 214.897 1906.39 214.087 L1906.39 209.689 Q1908.75 210.915 1911.04 211.54 Q1913.33 212.142 1915.58 212.142 Q1918.59 212.142 1920.21 211.124 Q1921.83 210.082 1921.83 208.207 Q1921.83 206.471 1920.65 205.545 Q1919.49 204.619 1915.53 203.763 L1914.05 203.415 Q1910.09 202.582 1908.33 200.869 Q1906.58 199.133 1906.58 196.124 Q1906.58 192.466 1909.17 190.476 Q1911.76 188.485 1916.53 188.485 Q1918.89 188.485 1920.97 188.832 Q1923.06 189.179 1924.82 189.874 Z" fill="#000000" fill-rule="nonzero" fill-opacity="1" /><path clip-path="url(#clip040)" d="M1955.16 201.008 L1955.16 203.091 L1935.58 203.091 Q1935.86 207.489 1938.22 209.804 Q1940.6 212.096 1944.84 212.096 Q1947.29 212.096 1949.58 211.494 Q1951.9 210.892 1954.17 209.689 L1954.17 213.716 Q1951.88 214.688 1949.47 215.198 Q1947.06 215.707 1944.58 215.707 Q1938.38 215.707 1934.75 212.096 Q1931.14 208.485 1931.14 202.327 Q1931.14 195.962 1934.56 192.235 Q1938.01 188.485 1943.84 188.485 Q1949.08 188.485 1952.11 191.865 Q1955.16 195.221 1955.16 201.008 M1950.9 199.758 Q1950.86 196.263 1948.94 194.179 Q1947.04 192.096 1943.89 192.096 Q1940.33 192.096 1938.17 194.11 Q1936.04 196.124 1935.72 199.781 L1950.9 199.758 Z" fill="#000000" fill-rule="nonzero" fill-opacity="1" /><path clip-path="url(#clip040)" d="M1977.18 193.091 Q1976.46 192.675 1975.6 192.49 Q1974.77 192.281 1973.75 192.281 Q1970.14 192.281 1968.2 194.642 Q1966.27 196.98 1966.27 201.378 L1966.27 215.036 L1961.99 215.036 L1961.99 189.11 L1966.27 189.11 L1966.27 193.138 Q1967.62 190.777 1969.77 189.642 Q1971.92 188.485 1975 188.485 Q1975.44 188.485 1975.97 188.554 Q1976.51 188.601 1977.15 188.716 L1977.18 193.091 Z" fill="#000000" fill-rule="nonzero" fill-opacity="1" /><path clip-path="url(#clip040)" d="M1978.59 189.11 L1983.1 189.11 L1991.2 210.869 L1999.31 189.11 L2003.82 189.11 L1994.1 215.036 L1988.31 215.036 L1978.59 189.11 Z" fill="#000000" fill-rule="nonzero" fill-opacity="1" /><path clip-path="url(#clip040)" d="M2031.88 201.008 L2031.88 203.091 L2012.29 203.091 Q2012.57 207.489 2014.93 209.804 Q2017.32 212.096 2021.55 212.096 Q2024.01 212.096 2026.3 211.494 Q2028.61 210.892 2030.88 209.689 L2030.88 213.716 Q2028.59 214.688 2026.18 215.198 Q2023.77 215.707 2021.3 215.707 Q2015.09 215.707 2011.46 212.096 Q2007.85 208.485 2007.85 202.327 Q2007.85 195.962 2011.27 192.235 Q2014.72 188.485 2020.56 188.485 Q2025.79 188.485 2028.82 191.865 Q2031.88 195.221 2031.88 201.008 M2027.62 199.758 Q2027.57 196.263 2025.65 194.179 Q2023.75 192.096 2020.6 192.096 Q2017.04 192.096 2014.88 194.11 Q2012.76 196.124 2012.43 199.781 L2027.62 199.758 Z" fill="#000000" fill-rule="nonzero" fill-opacity="1" /><path clip-path="url(#clip040)" d="M2055.93 193.045 L2055.93 179.017 L2060.19 179.017 L2060.19 215.036 L2055.93 215.036 L2055.93 211.147 Q2054.58 213.462 2052.52 214.596 Q2050.49 215.707 2047.62 215.707 Q2042.92 215.707 2039.95 211.957 Q2037.01 208.207 2037.01 202.096 Q2037.01 195.985 2039.95 192.235 Q2042.92 188.485 2047.62 188.485 Q2050.49 188.485 2052.52 189.619 Q2054.58 190.73 2055.93 193.045 M2041.41 202.096 Q2041.41 206.795 2043.33 209.48 Q2045.28 212.142 2048.66 212.142 Q2052.04 212.142 2053.98 209.48 Q2055.93 206.795 2055.93 202.096 Q2055.93 197.397 2053.98 194.735 Q2052.04 192.05 2048.66 192.05 Q2045.28 192.05 2043.33 194.735 Q2041.41 197.397 2041.41 202.096 Z" fill="#000000" fill-rule="nonzero" fill-opacity="1" /><polyline clip-path="url(#clip040)" style="stroke:#000080; stroke-linecap:round; stroke-linejoin:round; stroke-width:8; stroke-opacity:1; fill:none" points="1673.15,249.596 1815.37,249.596 "/>
<path clip-path="url(#clip040)" d="M1861.32 233.45 L1861.32 238.01 Q1858.66 236.737 1856.3 236.112 Q1853.94 235.487 1851.74 235.487 Q1847.92 235.487 1845.83 236.968 Q1843.77 238.45 1843.77 241.181 Q1843.77 243.473 1845.14 244.654 Q1846.53 245.811 1850.37 246.529 L1853.2 247.107 Q1858.43 248.103 1860.9 250.626 Q1863.4 253.126 1863.4 257.339 Q1863.4 262.362 1860.02 264.954 Q1856.67 267.547 1850.16 267.547 Q1847.71 267.547 1844.93 266.991 Q1842.18 266.436 1839.21 265.348 L1839.21 260.533 Q1842.06 262.13 1844.79 262.941 Q1847.52 263.751 1850.16 263.751 Q1854.17 263.751 1856.34 262.177 Q1858.52 260.603 1858.52 257.686 Q1858.52 255.14 1856.95 253.704 Q1855.4 252.269 1851.83 251.552 L1848.98 250.996 Q1843.75 249.955 1841.41 247.732 Q1839.08 245.51 1839.08 241.552 Q1839.08 236.968 1842.29 234.33 Q1845.53 231.691 1851.21 231.691 Q1853.64 231.691 1856.16 232.131 Q1858.68 232.57 1861.32 233.45 Z" fill="#000000" fill-rule="nonzero" fill-opacity="1" /><path clip-path="url(#clip040)" d="M1870.51 240.95 L1874.77 240.95 L1874.77 266.876 L1870.51 266.876 L1870.51 240.95 M1870.51 230.857 L1874.77 230.857 L1874.77 236.251 L1870.51 236.251 L1870.51 230.857 Z" fill="#000000" fill-rule="nonzero" fill-opacity="1" /><path clip-path="url(#clip040)" d="M1903.87 245.927 Q1905.46 243.056 1907.69 241.691 Q1909.91 240.325 1912.92 240.325 Q1916.97 240.325 1919.17 243.172 Q1921.37 245.996 1921.37 251.228 L1921.37 266.876 L1917.08 266.876 L1917.08 251.367 Q1917.08 247.64 1915.77 245.834 Q1914.45 244.029 1911.74 244.029 Q1908.43 244.029 1906.51 246.228 Q1904.58 248.427 1904.58 252.223 L1904.58 266.876 L1900.3 266.876 L1900.3 251.367 Q1900.3 247.617 1898.98 245.834 Q1897.66 244.029 1894.91 244.029 Q1891.64 244.029 1889.72 246.251 Q1887.8 248.45 1887.8 252.223 L1887.8 266.876 L1883.52 266.876 L1883.52 240.95 L1887.8 240.95 L1887.8 244.978 Q1889.26 242.593 1891.3 241.459 Q1893.33 240.325 1896.14 240.325 Q1898.96 240.325 1900.93 241.76 Q1902.92 243.195 1903.87 245.927 Z" fill="#000000" fill-rule="nonzero" fill-opacity="1" /><path clip-path="url(#clip040)" d="M1929.42 256.644 L1929.42 240.95 L1933.68 240.95 L1933.68 256.482 Q1933.68 260.163 1935.12 262.015 Q1936.55 263.843 1939.42 263.843 Q1942.87 263.843 1944.86 261.644 Q1946.88 259.445 1946.88 255.649 L1946.88 240.95 L1951.14 240.95 L1951.14 266.876 L1946.88 266.876 L1946.88 262.894 Q1945.33 265.255 1943.26 266.413 Q1941.23 267.547 1938.52 267.547 Q1934.05 267.547 1931.74 264.769 Q1929.42 261.991 1929.42 256.644 M1940.14 240.325 L1940.14 240.325 Z" fill="#000000" fill-rule="nonzero" fill-opacity="1" /><path clip-path="url(#clip040)" d="M1959.91 230.857 L1964.17 230.857 L1964.17 266.876 L1959.91 266.876 L1959.91 230.857 Z" fill="#000000" fill-rule="nonzero" fill-opacity="1" /><path clip-path="url(#clip040)" d="M1984.86 253.843 Q1979.7 253.843 1977.71 255.024 Q1975.72 256.204 1975.72 259.052 Q1975.72 261.32 1977.2 262.663 Q1978.7 263.982 1981.27 263.982 Q1984.82 263.982 1986.95 261.482 Q1989.1 258.959 1989.1 254.792 L1989.1 253.843 L1984.86 253.843 M1993.36 252.084 L1993.36 266.876 L1989.1 266.876 L1989.1 262.941 Q1987.64 265.302 1985.46 266.436 Q1983.29 267.547 1980.14 267.547 Q1976.16 267.547 1973.8 265.325 Q1971.46 263.079 1971.46 259.329 Q1971.46 254.954 1974.38 252.732 Q1977.32 250.51 1983.13 250.51 L1989.1 250.51 L1989.1 250.093 Q1989.1 247.154 1987.15 245.556 Q1985.23 243.936 1981.74 243.936 Q1979.51 243.936 1977.41 244.468 Q1975.3 245.001 1973.36 246.066 L1973.36 242.13 Q1975.7 241.228 1977.89 240.788 Q1980.09 240.325 1982.18 240.325 Q1987.8 240.325 1990.58 243.242 Q1993.36 246.158 1993.36 252.084 Z" fill="#000000" fill-rule="nonzero" fill-opacity="1" /><path clip-path="url(#clip040)" d="M2006.34 233.589 L2006.34 240.95 L2015.12 240.95 L2015.12 244.26 L2006.34 244.26 L2006.34 258.334 Q2006.34 261.505 2007.2 262.408 Q2008.08 263.311 2010.74 263.311 L2015.12 263.311 L2015.12 266.876 L2010.74 266.876 Q2005.81 266.876 2003.94 265.047 Q2002.06 263.195 2002.06 258.334 L2002.06 244.26 L1998.94 244.26 L1998.94 240.95 L2002.06 240.95 L2002.06 233.589 L2006.34 233.589 Z" fill="#000000" fill-rule="nonzero" fill-opacity="1" /><path clip-path="url(#clip040)" d="M2042.89 252.848 L2042.89 254.931 L2023.31 254.931 Q2023.59 259.329 2025.95 261.644 Q2028.33 263.936 2032.57 263.936 Q2035.02 263.936 2037.32 263.334 Q2039.63 262.732 2041.9 261.529 L2041.9 265.556 Q2039.61 266.528 2037.2 267.038 Q2034.79 267.547 2032.32 267.547 Q2026.11 267.547 2022.48 263.936 Q2018.87 260.325 2018.87 254.167 Q2018.87 247.802 2022.29 244.075 Q2025.74 240.325 2031.57 240.325 Q2036.81 240.325 2039.84 243.705 Q2042.89 247.061 2042.89 252.848 M2038.63 251.598 Q2038.59 248.103 2036.67 246.019 Q2034.77 243.936 2031.62 243.936 Q2028.06 243.936 2025.9 245.95 Q2023.77 247.964 2023.45 251.621 L2038.63 251.598 Z" fill="#000000" fill-rule="nonzero" fill-opacity="1" /><path clip-path="url(#clip040)" d="M2066.94 244.885 L2066.94 230.857 L2071.2 230.857 L2071.2 266.876 L2066.94 266.876 L2066.94 262.987 Q2065.6 265.302 2063.54 266.436 Q2061.51 267.547 2058.63 267.547 Q2053.94 267.547 2050.97 263.797 Q2048.03 260.047 2048.03 253.936 Q2048.03 247.825 2050.97 244.075 Q2053.94 240.325 2058.63 240.325 Q2061.51 240.325 2063.54 241.459 Q2065.6 242.57 2066.94 244.885 M2052.43 253.936 Q2052.43 258.635 2054.35 261.32 Q2056.3 263.982 2059.68 263.982 Q2063.06 263.982 2065 261.32 Q2066.94 258.635 2066.94 253.936 Q2066.94 249.237 2065 246.575 Q2063.06 243.89 2059.68 243.89 Q2056.3 243.89 2054.35 246.575 Q2052.43 249.237 2052.43 253.936 Z" fill="#000000" fill-rule="nonzero" fill-opacity="1" /><path clip-path="url(#clip040)" d="M2105.28 230.904 Q2102.18 236.228 2100.67 241.436 Q2099.17 246.644 2099.17 251.992 Q2099.17 257.339 2100.67 262.593 Q2102.2 267.825 2105.28 273.126 L2101.57 273.126 Q2098.1 267.686 2096.37 262.431 Q2094.65 257.177 2094.65 251.992 Q2094.65 246.83 2096.37 241.598 Q2098.08 236.367 2101.57 230.904 L2105.28 230.904 Z" fill="#000000" fill-rule="nonzero" fill-opacity="1" /><path clip-path="url(#clip040)" d="M2133.73 245.927 Q2135.32 243.056 2137.55 241.691 Q2139.77 240.325 2142.78 240.325 Q2146.83 240.325 2149.03 243.172 Q2151.23 245.996 2151.23 251.228 L2151.23 266.876 L2146.94 266.876 L2146.94 251.367 Q2146.94 247.64 2145.62 245.834 Q2144.31 244.029 2141.6 244.029 Q2138.29 244.029 2136.37 246.228 Q2134.44 248.427 2134.44 252.223 L2134.44 266.876 L2130.16 266.876 L2130.16 251.367 Q2130.16 247.617 2128.84 245.834 Q2127.52 244.029 2124.77 244.029 Q2121.5 244.029 2119.58 246.251 Q2117.66 248.45 2117.66 252.223 L2117.66 266.876 L2113.38 266.876 L2113.38 240.95 L2117.66 240.95 L2117.66 244.978 Q2119.12 242.593 2121.16 241.459 Q2123.19 240.325 2126 240.325 Q2128.82 240.325 2130.79 241.76 Q2132.78 243.195 2133.73 245.927 Z" fill="#000000" fill-rule="nonzero" fill-opacity="1" /><path clip-path="url(#clip040)" d="M2181.9 252.848 L2181.9 254.931 L2162.31 254.931 Q2162.59 259.329 2164.95 261.644 Q2167.34 263.936 2171.57 263.936 Q2174.03 263.936 2176.32 263.334 Q2178.63 262.732 2180.9 261.529 L2180.9 265.556 Q2178.61 266.528 2176.2 267.038 Q2173.8 267.547 2171.32 267.547 Q2165.12 267.547 2161.48 263.936 Q2157.87 260.325 2157.87 254.167 Q2157.87 247.802 2161.3 244.075 Q2164.75 240.325 2170.58 240.325 Q2175.81 240.325 2178.84 243.705 Q2181.9 247.061 2181.9 252.848 M2177.64 251.598 Q2177.59 248.103 2175.67 246.019 Q2173.77 243.936 2170.62 243.936 Q2167.06 243.936 2164.91 245.95 Q2162.78 247.964 2162.45 251.621 L2177.64 251.598 Z" fill="#000000" fill-rule="nonzero" fill-opacity="1" /><path clip-path="url(#clip040)" d="M2200.67 253.843 Q2195.51 253.843 2193.52 255.024 Q2191.53 256.204 2191.53 259.052 Q2191.53 261.32 2193.01 262.663 Q2194.51 263.982 2197.08 263.982 Q2200.62 263.982 2202.75 261.482 Q2204.91 258.959 2204.91 254.792 L2204.91 253.843 L2200.67 253.843 M2209.17 252.084 L2209.17 266.876 L2204.91 266.876 L2204.91 262.941 Q2203.45 265.302 2201.27 266.436 Q2199.1 267.547 2195.95 267.547 Q2191.97 267.547 2189.61 265.325 Q2187.27 263.079 2187.27 259.329 Q2187.27 254.954 2190.18 252.732 Q2193.12 250.51 2198.93 250.51 L2204.91 250.51 L2204.91 250.093 Q2204.91 247.154 2202.96 245.556 Q2201.04 243.936 2197.55 243.936 Q2195.32 243.936 2193.22 244.468 Q2191.11 245.001 2189.17 246.066 L2189.17 242.13 Q2191.5 241.228 2193.7 240.788 Q2195.9 240.325 2197.99 240.325 Q2203.61 240.325 2206.39 243.242 Q2209.17 246.158 2209.17 252.084 Z" fill="#000000" fill-rule="nonzero" fill-opacity="1" /><path clip-path="url(#clip040)" d="M2239.49 251.228 L2239.49 266.876 L2235.23 266.876 L2235.23 251.367 Q2235.23 247.686 2233.8 245.857 Q2232.36 244.029 2229.49 244.029 Q2226.04 244.029 2224.05 246.228 Q2222.06 248.427 2222.06 252.223 L2222.06 266.876 L2217.78 266.876 L2217.78 240.95 L2222.06 240.95 L2222.06 244.978 Q2223.59 242.64 2225.65 241.482 Q2227.73 240.325 2230.44 240.325 Q2234.91 240.325 2237.2 243.103 Q2239.49 245.857 2239.49 251.228 Z" fill="#000000" fill-rule="nonzero" fill-opacity="1" /><path clip-path="url(#clip040)" d="M2247.31 230.904 L2251.02 230.904 Q2254.49 236.367 2256.2 241.598 Q2257.94 246.83 2257.94 251.992 Q2257.94 257.177 2256.2 262.431 Q2254.49 267.686 2251.02 273.126 L2247.31 273.126 Q2250.39 267.825 2251.9 262.593 Q2253.43 257.339 2253.43 251.992 Q2253.43 246.644 2251.9 241.436 Q2250.39 236.228 2247.31 230.904 Z" fill="#000000" fill-rule="nonzero" fill-opacity="1" /><path clip-path="url(#clip040)" d="M1673.15 322.172 L1815.37 322.172 L1815.37 280.7 L1673.15 280.7 L1673.15 322.172  Z" fill="#000080" fill-rule="evenodd" fill-opacity="0.2"/>
<polyline clip-path="url(#clip040)" style="stroke:#000080; stroke-linecap:round; stroke-linejoin:round; stroke-width:4; stroke-opacity:0.2; fill:none" points="1673.15,280.7 1815.37,280.7 "/>
<path clip-path="url(#clip040)" d="M1839.75 314.781 L1847.39 314.781 L1847.39 288.415 L1839.08 290.082 L1839.08 285.822 L1847.34 284.156 L1852.02 284.156 L1852.02 314.781 L1859.65 314.781 L1859.65 318.716 L1839.75 318.716 L1839.75 314.781 Z" fill="#000000" fill-rule="nonzero" fill-opacity="1" /><path clip-path="url(#clip040)" d="M1879.1 287.234 Q1875.49 287.234 1873.66 290.799 Q1871.85 294.341 1871.85 301.47 Q1871.85 308.577 1873.66 312.142 Q1875.49 315.683 1879.1 315.683 Q1882.73 315.683 1884.54 312.142 Q1886.37 308.577 1886.37 301.47 Q1886.37 294.341 1884.54 290.799 Q1882.73 287.234 1879.1 287.234 M1879.1 283.531 Q1884.91 283.531 1887.96 288.137 Q1891.04 292.72 1891.04 301.47 Q1891.04 310.197 1887.96 314.804 Q1884.91 319.387 1879.1 319.387 Q1873.29 319.387 1870.21 314.804 Q1867.15 310.197 1867.15 301.47 Q1867.15 292.72 1870.21 288.137 Q1873.29 283.531 1879.1 283.531 Z" fill="#000000" fill-rule="nonzero" fill-opacity="1" /><path clip-path="url(#clip040)" d="M1896.51 303.832 L1908.98 303.832 L1908.98 307.628 L1896.51 307.628 L1896.51 303.832 Z" fill="#000000" fill-rule="nonzero" fill-opacity="1" /><path clip-path="url(#clip040)" d="M1916.51 317.998 L1916.51 313.739 Q1918.27 314.572 1920.07 315.012 Q1921.88 315.452 1923.61 315.452 Q1928.24 315.452 1930.67 312.35 Q1933.13 309.225 1933.47 302.882 Q1932.13 304.873 1930.07 305.938 Q1928.01 307.003 1925.51 307.003 Q1920.33 307.003 1917.29 303.878 Q1914.28 300.73 1914.28 295.29 Q1914.28 289.966 1917.43 286.748 Q1920.58 283.531 1925.81 283.531 Q1931.81 283.531 1934.95 288.137 Q1938.13 292.72 1938.13 301.47 Q1938.13 309.642 1934.24 314.526 Q1930.37 319.387 1923.82 319.387 Q1922.06 319.387 1920.26 319.04 Q1918.45 318.693 1916.51 317.998 M1925.81 303.345 Q1928.96 303.345 1930.79 301.193 Q1932.64 299.04 1932.64 295.29 Q1932.64 291.563 1930.79 289.41 Q1928.96 287.234 1925.81 287.234 Q1922.66 287.234 1920.81 289.41 Q1918.98 291.563 1918.98 295.29 Q1918.98 299.04 1920.81 301.193 Q1922.66 303.345 1925.81 303.345 Z" fill="#000000" fill-rule="nonzero" fill-opacity="1" /><path clip-path="url(#clip040)" d="M1956.53 287.234 Q1952.92 287.234 1951.09 290.799 Q1949.28 294.341 1949.28 301.47 Q1949.28 308.577 1951.09 312.142 Q1952.92 315.683 1956.53 315.683 Q1960.16 315.683 1961.97 312.142 Q1963.8 308.577 1963.8 301.47 Q1963.8 294.341 1961.97 290.799 Q1960.16 287.234 1956.53 287.234 M1956.53 283.531 Q1962.34 283.531 1965.39 288.137 Q1968.47 292.72 1968.47 301.47 Q1968.47 310.197 1965.39 314.804 Q1962.34 319.387 1956.53 319.387 Q1950.72 319.387 1947.64 314.804 Q1944.58 310.197 1944.58 301.47 Q1944.58 292.72 1947.64 288.137 Q1950.72 283.531 1956.53 283.531 Z" fill="#000000" fill-rule="nonzero" fill-opacity="1" /><path clip-path="url(#clip040)" d="M1980.3 285.429 L1980.3 292.79 L1989.07 292.79 L1989.07 296.1 L1980.3 296.1 L1980.3 310.174 Q1980.3 313.345 1981.16 314.248 Q1982.04 315.151 1984.7 315.151 L1989.07 315.151 L1989.07 318.716 L1984.7 318.716 Q1979.77 318.716 1977.89 316.887 Q1976.02 315.035 1976.02 310.174 L1976.02 296.1 L1972.89 296.1 L1972.89 292.79 L1976.02 292.79 L1976.02 285.429 L1980.3 285.429 Z" fill="#000000" fill-rule="nonzero" fill-opacity="1" /><path clip-path="url(#clip040)" d="M2016.23 303.068 L2016.23 318.716 L2011.97 318.716 L2011.97 303.207 Q2011.97 299.526 2010.53 297.697 Q2009.1 295.869 2006.23 295.869 Q2002.78 295.869 2000.79 298.068 Q1998.8 300.267 1998.8 304.063 L1998.8 318.716 L1994.51 318.716 L1994.51 282.697 L1998.8 282.697 L1998.8 296.818 Q2000.32 294.48 2002.39 293.322 Q2004.47 292.165 2007.18 292.165 Q2011.64 292.165 2013.94 294.943 Q2016.23 297.697 2016.23 303.068 Z" fill="#000000" fill-rule="nonzero" fill-opacity="1" /><path clip-path="url(#clip040)" d="M2043.91 314.827 L2043.91 328.577 L2039.63 328.577 L2039.63 292.79 L2043.91 292.79 L2043.91 296.725 Q2045.26 294.41 2047.29 293.299 Q2049.35 292.165 2052.2 292.165 Q2056.92 292.165 2059.86 295.915 Q2062.82 299.665 2062.82 305.776 Q2062.82 311.887 2059.86 315.637 Q2056.92 319.387 2052.2 319.387 Q2049.35 319.387 2047.29 318.276 Q2045.26 317.142 2043.91 314.827 M2058.4 305.776 Q2058.4 301.077 2056.46 298.415 Q2054.54 295.73 2051.16 295.73 Q2047.78 295.73 2045.83 298.415 Q2043.91 301.077 2043.91 305.776 Q2043.91 310.475 2045.83 313.16 Q2047.78 315.822 2051.16 315.822 Q2054.54 315.822 2056.46 313.16 Q2058.4 310.475 2058.4 305.776 Z" fill="#000000" fill-rule="nonzero" fill-opacity="1" /><path clip-path="url(#clip040)" d="M2088.54 293.785 L2088.54 297.767 Q2086.74 296.771 2084.91 296.285 Q2083.1 295.776 2081.25 295.776 Q2077.11 295.776 2074.82 298.415 Q2072.52 301.031 2072.52 305.776 Q2072.52 310.521 2074.82 313.16 Q2077.11 315.776 2081.25 315.776 Q2083.1 315.776 2084.91 315.29 Q2086.74 314.781 2088.54 313.785 L2088.54 317.72 Q2086.76 318.554 2084.84 318.97 Q2082.94 319.387 2080.79 319.387 Q2074.93 319.387 2071.48 315.706 Q2068.03 312.026 2068.03 305.776 Q2068.03 299.433 2071.51 295.799 Q2075 292.165 2081.07 292.165 Q2083.03 292.165 2084.91 292.582 Q2086.78 292.975 2088.54 293.785 Z" fill="#000000" fill-rule="nonzero" fill-opacity="1" /><path clip-path="url(#clip040)" d="M2100.16 285.429 L2100.16 292.79 L2108.94 292.79 L2108.94 296.1 L2100.16 296.1 L2100.16 310.174 Q2100.16 313.345 2101.02 314.248 Q2101.9 315.151 2104.56 315.151 L2108.94 315.151 L2108.94 318.716 L2104.56 318.716 Q2099.63 318.716 2097.75 316.887 Q2095.88 315.035 2095.88 310.174 L2095.88 296.1 L2092.75 296.1 L2092.75 292.79 L2095.88 292.79 L2095.88 285.429 L2100.16 285.429 Z" fill="#000000" fill-rule="nonzero" fill-opacity="1" /><path clip-path="url(#clip040)" d="M2114.54 282.697 L2118.8 282.697 L2118.8 318.716 L2114.54 318.716 L2114.54 282.697 Z" fill="#000000" fill-rule="nonzero" fill-opacity="1" /></svg>
