<?xml version="1.0" encoding="utf-8"?>
<svg xmlns="http://www.w3.org/2000/svg" xmlns:xlink="http://www.w3.org/1999/xlink" width="600" height="400" viewBox="0 0 2400 1600">
<defs>
  <clipPath id="clip520">
    <rect x="0" y="0" width="2400" height="1600"/>
  </clipPath>
</defs>
<path clip-path="url(#clip520)" d="M0 1600 L2400 1600 L2400 8.88178e-14 L0 8.88178e-14  Z" fill="#ffffff" fill-rule="evenodd" fill-opacity="1"/>
<defs>
  <clipPath id="clip521">
    <rect x="152" y="199" width="2225" height="71"/>
  </clipPath>
</defs>
<path clip-path="url(#clip520)" d="M302.458 1423.18 L2352.76 1423.18 L2352.76 106.192 L302.458 106.192  Z" fill="#ffffff" fill-rule="evenodd" fill-opacity="1"/>
<defs>
  <clipPath id="clip522">
    <rect x="302" y="106" width="2051" height="1318"/>
  </clipPath>
</defs>
<polyline clip-path="url(#clip522)" style="stroke:#000000; stroke-linecap:round; stroke-linejoin:round; stroke-width:2; stroke-opacity:0.1; fill:none" points="327.702,1423.18 327.702,106.192 "/>
<polyline clip-path="url(#clip522)" style="stroke:#000000; stroke-linecap:round; stroke-linejoin:round; stroke-width:2; stroke-opacity:0.1; fill:none" points="655.54,1423.18 655.54,106.192 "/>
<polyline clip-path="url(#clip522)" style="stroke:#000000; stroke-linecap:round; stroke-linejoin:round; stroke-width:2; stroke-opacity:0.1; fill:none" points="983.377,1423.18 983.377,106.192 "/>
<polyline clip-path="url(#clip522)" style="stroke:#000000; stroke-linecap:round; stroke-linejoin:round; stroke-width:2; stroke-opacity:0.1; fill:none" points="1311.22,1423.18 1311.22,106.192 "/>
<polyline clip-path="url(#clip522)" style="stroke:#000000; stroke-linecap:round; stroke-linejoin:round; stroke-width:2; stroke-opacity:0.1; fill:none" points="1639.05,1423.18 1639.05,106.192 "/>
<polyline clip-path="url(#clip522)" style="stroke:#000000; stroke-linecap:round; stroke-linejoin:round; stroke-width:2; stroke-opacity:0.1; fill:none" points="1966.89,1423.18 1966.89,106.192 "/>
<polyline clip-path="url(#clip522)" style="stroke:#000000; stroke-linecap:round; stroke-linejoin:round; stroke-width:2; stroke-opacity:0.1; fill:none" points="2294.73,1423.18 2294.73,106.192 "/>
<polyline clip-path="url(#clip522)" style="stroke:#000000; stroke-linecap:round; stroke-linejoin:round; stroke-width:2; stroke-opacity:0.1; fill:none" points="302.458,1263.7 2352.76,1263.7 "/>
<polyline clip-path="url(#clip522)" style="stroke:#000000; stroke-linecap:round; stroke-linejoin:round; stroke-width:2; stroke-opacity:0.1; fill:none" points="302.458,1069.94 2352.76,1069.94 "/>
<polyline clip-path="url(#clip522)" style="stroke:#000000; stroke-linecap:round; stroke-linejoin:round; stroke-width:2; stroke-opacity:0.1; fill:none" points="302.458,876.166 2352.76,876.166 "/>
<polyline clip-path="url(#clip522)" style="stroke:#000000; stroke-linecap:round; stroke-linejoin:round; stroke-width:2; stroke-opacity:0.1; fill:none" points="302.458,682.398 2352.76,682.398 "/>
<polyline clip-path="url(#clip522)" style="stroke:#000000; stroke-linecap:round; stroke-linejoin:round; stroke-width:2; stroke-opacity:0.1; fill:none" points="302.458,488.629 2352.76,488.629 "/>
<polyline clip-path="url(#clip522)" style="stroke:#000000; stroke-linecap:round; stroke-linejoin:round; stroke-width:2; stroke-opacity:0.1; fill:none" points="302.458,294.86 2352.76,294.86 "/>
<polyline clip-path="url(#clip520)" style="stroke:#000000; stroke-linecap:round; stroke-linejoin:round; stroke-width:4; stroke-opacity:1; fill:none" points="302.458,1423.18 2352.76,1423.18 "/>
<polyline clip-path="url(#clip520)" style="stroke:#000000; stroke-linecap:round; stroke-linejoin:round; stroke-width:4; stroke-opacity:1; fill:none" points="327.702,1423.18 327.702,1404.28 "/>
<polyline clip-path="url(#clip520)" style="stroke:#000000; stroke-linecap:round; stroke-linejoin:round; stroke-width:4; stroke-opacity:1; fill:none" points="655.54,1423.18 655.54,1404.28 "/>
<polyline clip-path="url(#clip520)" style="stroke:#000000; stroke-linecap:round; stroke-linejoin:round; stroke-width:4; stroke-opacity:1; fill:none" points="983.377,1423.18 983.377,1404.28 "/>
<polyline clip-path="url(#clip520)" style="stroke:#000000; stroke-linecap:round; stroke-linejoin:round; stroke-width:4; stroke-opacity:1; fill:none" points="1311.22,1423.18 1311.22,1404.28 "/>
<polyline clip-path="url(#clip520)" style="stroke:#000000; stroke-linecap:round; stroke-linejoin:round; stroke-width:4; stroke-opacity:1; fill:none" points="1639.05,1423.18 1639.05,1404.28 "/>
<polyline clip-path="url(#clip520)" style="stroke:#000000; stroke-linecap:round; stroke-linejoin:round; stroke-width:4; stroke-opacity:1; fill:none" points="1966.89,1423.18 1966.89,1404.28 "/>
<polyline clip-path="url(#clip520)" style="stroke:#000000; stroke-linecap:round; stroke-linejoin:round; stroke-width:4; stroke-opacity:1; fill:none" points="2294.73,1423.18 2294.73,1404.28 "/>
<path clip-path="url(#clip520)" d="M327.702 1454.1 Q324.091 1454.1 322.262 1457.66 Q320.457 1461.2 320.457 1468.33 Q320.457 1475.44 322.262 1479.01 Q324.091 1482.55 327.702 1482.55 Q331.336 1482.55 333.142 1479.01 Q334.97 1475.44 334.97 1468.33 Q334.97 1461.2 333.142 1457.66 Q331.336 1454.1 327.702 1454.1 M327.702 1450.39 Q333.512 1450.39 336.568 1455 Q339.646 1459.58 339.646 1468.33 Q339.646 1477.06 336.568 1481.67 Q333.512 1486.25 327.702 1486.25 Q321.892 1486.25 318.813 1481.67 Q315.758 1477.06 315.758 1468.33 Q315.758 1459.58 318.813 1455 Q321.892 1450.39 327.702 1450.39 Z" fill="#000000" fill-rule="nonzero" fill-opacity="1" /><path clip-path="url(#clip520)" d="M630.227 1481.64 L637.866 1481.64 L637.866 1455.28 L629.556 1456.95 L629.556 1452.69 L637.82 1451.02 L642.496 1451.02 L642.496 1481.64 L650.135 1481.64 L650.135 1485.58 L630.227 1485.58 L630.227 1481.64 Z" fill="#000000" fill-rule="nonzero" fill-opacity="1" /><path clip-path="url(#clip520)" d="M669.579 1454.1 Q665.968 1454.1 664.139 1457.66 Q662.334 1461.2 662.334 1468.33 Q662.334 1475.44 664.139 1479.01 Q665.968 1482.55 669.579 1482.55 Q673.213 1482.55 675.019 1479.01 Q676.847 1475.44 676.847 1468.33 Q676.847 1461.2 675.019 1457.66 Q673.213 1454.1 669.579 1454.1 M669.579 1450.39 Q675.389 1450.39 678.445 1455 Q681.523 1459.58 681.523 1468.33 Q681.523 1477.06 678.445 1481.67 Q675.389 1486.25 669.579 1486.25 Q663.769 1486.25 660.69 1481.67 Q657.635 1477.06 657.635 1468.33 Q657.635 1459.58 660.69 1455 Q663.769 1450.39 669.579 1450.39 Z" fill="#000000" fill-rule="nonzero" fill-opacity="1" /><path clip-path="url(#clip520)" d="M962.151 1481.64 L978.47 1481.64 L978.47 1485.58 L956.526 1485.58 L956.526 1481.64 Q959.188 1478.89 963.771 1474.26 Q968.378 1469.61 969.558 1468.27 Q971.803 1465.74 972.683 1464.01 Q973.586 1462.25 973.586 1460.56 Q973.586 1457.8 971.641 1456.07 Q969.72 1454.33 966.618 1454.33 Q964.419 1454.33 961.966 1455.09 Q959.535 1455.86 956.757 1457.41 L956.757 1452.69 Q959.581 1451.55 962.035 1450.97 Q964.489 1450.39 966.526 1450.39 Q971.896 1450.39 975.09 1453.08 Q978.285 1455.77 978.285 1460.26 Q978.285 1462.39 977.475 1464.31 Q976.688 1466.2 974.581 1468.8 Q974.003 1469.47 970.901 1472.69 Q967.799 1475.88 962.151 1481.64 Z" fill="#000000" fill-rule="nonzero" fill-opacity="1" /><path clip-path="url(#clip520)" d="M998.285 1454.1 Q994.674 1454.1 992.845 1457.66 Q991.039 1461.2 991.039 1468.33 Q991.039 1475.44 992.845 1479.01 Q994.674 1482.55 998.285 1482.55 Q1001.92 1482.55 1003.72 1479.01 Q1005.55 1475.44 1005.55 1468.33 Q1005.55 1461.2 1003.72 1457.66 Q1001.92 1454.1 998.285 1454.1 M998.285 1450.39 Q1004.09 1450.39 1007.15 1455 Q1010.23 1459.58 1010.23 1468.33 Q1010.23 1477.06 1007.15 1481.67 Q1004.09 1486.25 998.285 1486.25 Q992.475 1486.25 989.396 1481.67 Q986.34 1477.06 986.34 1468.33 Q986.34 1459.58 989.396 1455 Q992.475 1450.39 998.285 1450.39 Z" fill="#000000" fill-rule="nonzero" fill-opacity="1" /><path clip-path="url(#clip520)" d="M1300.06 1466.95 Q1303.41 1467.66 1305.29 1469.93 Q1307.19 1472.2 1307.19 1475.53 Q1307.19 1480.65 1303.67 1483.45 Q1300.15 1486.25 1293.67 1486.25 Q1291.49 1486.25 1289.18 1485.81 Q1286.89 1485.39 1284.43 1484.54 L1284.43 1480.02 Q1286.38 1481.16 1288.69 1481.74 Q1291.01 1482.32 1293.53 1482.32 Q1297.93 1482.32 1300.22 1480.58 Q1302.53 1478.84 1302.53 1475.53 Q1302.53 1472.48 1300.38 1470.77 Q1298.25 1469.03 1294.43 1469.03 L1290.41 1469.03 L1290.41 1465.19 L1294.62 1465.19 Q1298.07 1465.19 1299.9 1463.82 Q1301.72 1462.43 1301.72 1459.84 Q1301.72 1457.18 1299.83 1455.77 Q1297.95 1454.33 1294.43 1454.33 Q1292.51 1454.33 1290.31 1454.75 Q1288.11 1455.16 1285.47 1456.04 L1285.47 1451.88 Q1288.14 1451.14 1290.45 1450.77 Q1292.79 1450.39 1294.85 1450.39 Q1300.17 1450.39 1303.28 1452.83 Q1306.38 1455.23 1306.38 1459.35 Q1306.38 1462.22 1304.73 1464.21 Q1303.09 1466.18 1300.06 1466.95 Z" fill="#000000" fill-rule="nonzero" fill-opacity="1" /><path clip-path="url(#clip520)" d="M1326.05 1454.1 Q1322.44 1454.1 1320.61 1457.66 Q1318.81 1461.2 1318.81 1468.33 Q1318.81 1475.44 1320.61 1479.01 Q1322.44 1482.55 1326.05 1482.55 Q1329.69 1482.55 1331.49 1479.01 Q1333.32 1475.44 1333.32 1468.33 Q1333.32 1461.2 1331.49 1457.66 Q1329.69 1454.1 1326.05 1454.1 M1326.05 1450.39 Q1331.86 1450.39 1334.92 1455 Q1338 1459.58 1338 1468.33 Q1338 1477.06 1334.92 1481.67 Q1331.86 1486.25 1326.05 1486.25 Q1320.24 1486.25 1317.16 1481.67 Q1314.11 1477.06 1314.11 1468.33 Q1314.11 1459.58 1317.16 1455 Q1320.24 1450.39 1326.05 1450.39 Z" fill="#000000" fill-rule="nonzero" fill-opacity="1" /><path clip-path="url(#clip520)" d="M1627.22 1455.09 L1615.42 1473.54 L1627.22 1473.54 L1627.22 1455.09 M1626 1451.02 L1631.88 1451.02 L1631.88 1473.54 L1636.81 1473.54 L1636.81 1477.43 L1631.88 1477.43 L1631.88 1485.58 L1627.22 1485.58 L1627.22 1477.43 L1611.62 1477.43 L1611.62 1472.92 L1626 1451.02 Z" fill="#000000" fill-rule="nonzero" fill-opacity="1" /><path clip-path="url(#clip520)" d="M1654.54 1454.1 Q1650.93 1454.1 1649.1 1457.66 Q1647.29 1461.2 1647.29 1468.33 Q1647.29 1475.44 1649.1 1479.01 Q1650.93 1482.55 1654.54 1482.55 Q1658.17 1482.55 1659.98 1479.01 Q1661.81 1475.44 1661.81 1468.33 Q1661.81 1461.2 1659.98 1457.66 Q1658.17 1454.1 1654.54 1454.1 M1654.54 1450.39 Q1660.35 1450.39 1663.4 1455 Q1666.48 1459.58 1666.48 1468.33 Q1666.48 1477.06 1663.4 1481.67 Q1660.35 1486.25 1654.54 1486.25 Q1648.73 1486.25 1645.65 1481.67 Q1642.59 1477.06 1642.59 1468.33 Q1642.59 1459.58 1645.65 1455 Q1648.73 1450.39 1654.54 1450.39 Z" fill="#000000" fill-rule="nonzero" fill-opacity="1" /><path clip-path="url(#clip520)" d="M1941.59 1451.02 L1959.95 1451.02 L1959.95 1454.96 L1945.87 1454.96 L1945.87 1463.43 Q1946.89 1463.08 1947.91 1462.92 Q1948.93 1462.73 1949.95 1462.73 Q1955.73 1462.73 1959.11 1465.9 Q1962.49 1469.08 1962.49 1474.49 Q1962.49 1480.07 1959.02 1483.17 Q1955.55 1486.25 1949.23 1486.25 Q1947.05 1486.25 1944.78 1485.88 Q1942.54 1485.51 1940.13 1484.77 L1940.13 1480.07 Q1942.22 1481.2 1944.44 1481.76 Q1946.66 1482.32 1949.14 1482.32 Q1953.14 1482.32 1955.48 1480.21 Q1957.82 1478.1 1957.82 1474.49 Q1957.82 1470.88 1955.48 1468.77 Q1953.14 1466.67 1949.14 1466.67 Q1947.26 1466.67 1945.39 1467.08 Q1943.53 1467.5 1941.59 1468.38 L1941.59 1451.02 Z" fill="#000000" fill-rule="nonzero" fill-opacity="1" /><path clip-path="url(#clip520)" d="M1981.71 1454.1 Q1978.09 1454.1 1976.27 1457.66 Q1974.46 1461.2 1974.46 1468.33 Q1974.46 1475.44 1976.27 1479.01 Q1978.09 1482.55 1981.71 1482.55 Q1985.34 1482.55 1987.15 1479.01 Q1988.97 1475.44 1988.97 1468.33 Q1988.97 1461.2 1987.15 1457.66 Q1985.34 1454.1 1981.71 1454.1 M1981.71 1450.39 Q1987.52 1450.39 1990.57 1455 Q1993.65 1459.58 1993.65 1468.33 Q1993.65 1477.06 1990.57 1481.67 Q1987.52 1486.25 1981.71 1486.25 Q1975.9 1486.25 1972.82 1481.67 Q1969.76 1477.06 1969.76 1468.33 Q1969.76 1459.58 1972.82 1455 Q1975.9 1450.39 1981.71 1450.39 Z" fill="#000000" fill-rule="nonzero" fill-opacity="1" /><path clip-path="url(#clip520)" d="M2280.13 1466.44 Q2276.99 1466.44 2275.13 1468.59 Q2273.31 1470.74 2273.31 1474.49 Q2273.31 1478.22 2275.13 1480.39 Q2276.99 1482.55 2280.13 1482.55 Q2283.28 1482.55 2285.11 1480.39 Q2286.96 1478.22 2286.96 1474.49 Q2286.96 1470.74 2285.11 1468.59 Q2283.28 1466.44 2280.13 1466.44 M2289.42 1451.78 L2289.42 1456.04 Q2287.66 1455.21 2285.85 1454.77 Q2284.07 1454.33 2282.31 1454.33 Q2277.68 1454.33 2275.23 1457.45 Q2272.8 1460.58 2272.45 1466.9 Q2273.81 1464.89 2275.87 1463.82 Q2277.93 1462.73 2280.41 1462.73 Q2285.62 1462.73 2288.63 1465.9 Q2291.66 1469.05 2291.66 1474.49 Q2291.66 1479.82 2288.51 1483.03 Q2285.37 1486.25 2280.13 1486.25 Q2274.14 1486.25 2270.97 1481.67 Q2267.8 1477.06 2267.8 1468.33 Q2267.8 1460.14 2271.68 1455.28 Q2275.57 1450.39 2282.12 1450.39 Q2283.88 1450.39 2285.67 1450.74 Q2287.47 1451.09 2289.42 1451.78 Z" fill="#000000" fill-rule="nonzero" fill-opacity="1" /><path clip-path="url(#clip520)" d="M2309.72 1454.1 Q2306.11 1454.1 2304.28 1457.66 Q2302.47 1461.2 2302.47 1468.33 Q2302.47 1475.44 2304.28 1479.01 Q2306.11 1482.55 2309.72 1482.55 Q2313.35 1482.55 2315.16 1479.01 Q2316.99 1475.44 2316.99 1468.33 Q2316.99 1461.2 2315.16 1457.66 Q2313.35 1454.1 2309.72 1454.1 M2309.72 1450.39 Q2315.53 1450.39 2318.58 1455 Q2321.66 1459.58 2321.66 1468.33 Q2321.66 1477.06 2318.58 1481.67 Q2315.53 1486.25 2309.72 1486.25 Q2303.91 1486.25 2300.83 1481.67 Q2297.77 1477.06 2297.77 1468.33 Q2297.77 1459.58 2300.83 1455 Q2303.91 1450.39 2309.72 1450.39 Z" fill="#000000" fill-rule="nonzero" fill-opacity="1" /><path clip-path="url(#clip520)" d="M1195.33 1520.52 L1201.76 1520.52 L1201.76 1568.04 L1195.33 1568.04 L1195.33 1520.52 Z" fill="#000000" fill-rule="nonzero" fill-opacity="1" /><path clip-path="url(#clip520)" d="M1220.09 1522.27 L1220.09 1532.4 L1232.15 1532.4 L1232.15 1536.95 L1220.09 1536.95 L1220.09 1556.3 Q1220.09 1560.66 1221.27 1561.9 Q1222.48 1563.14 1226.14 1563.14 L1232.15 1563.14 L1232.15 1568.04 L1226.14 1568.04 Q1219.36 1568.04 1216.78 1565.53 Q1214.2 1562.98 1214.2 1556.3 L1214.2 1536.95 L1209.91 1536.95 L1209.91 1532.4 L1214.2 1532.4 L1214.2 1522.27 L1220.09 1522.27 Z" fill="#000000" fill-rule="nonzero" fill-opacity="1" /><path clip-path="url(#clip520)" d="M1270.35 1548.76 L1270.35 1551.62 L1243.42 1551.62 Q1243.8 1557.67 1247.05 1560.85 Q1250.33 1564 1256.15 1564 Q1259.53 1564 1262.68 1563.17 Q1265.86 1562.35 1268.98 1560.69 L1268.98 1566.23 Q1265.83 1567.57 1262.52 1568.27 Q1259.21 1568.97 1255.8 1568.97 Q1247.27 1568.97 1242.27 1564 Q1237.31 1559.04 1237.31 1550.57 Q1237.31 1541.82 1242.02 1536.69 Q1246.76 1531.54 1254.78 1531.54 Q1261.98 1531.54 1266.15 1536.18 Q1270.35 1540.8 1270.35 1548.76 M1264.49 1547.04 Q1264.43 1542.23 1261.79 1539.37 Q1259.18 1536.5 1254.85 1536.5 Q1249.95 1536.5 1246.99 1539.27 Q1244.06 1542.04 1243.61 1547.07 L1264.49 1547.04 Z" fill="#000000" fill-rule="nonzero" fill-opacity="1" /><path clip-path="url(#clip520)" d="M1300.62 1537.87 Q1299.63 1537.3 1298.45 1537.04 Q1297.31 1536.76 1295.91 1536.76 Q1290.94 1536.76 1288.27 1540 Q1285.63 1543.22 1285.63 1549.27 L1285.63 1568.04 L1279.74 1568.04 L1279.74 1532.4 L1285.63 1532.4 L1285.63 1537.93 Q1287.47 1534.69 1290.43 1533.13 Q1293.39 1531.54 1297.62 1531.54 Q1298.23 1531.54 1298.96 1531.63 Q1299.69 1531.7 1300.58 1531.85 L1300.62 1537.87 Z" fill="#000000" fill-rule="nonzero" fill-opacity="1" /><path clip-path="url(#clip520)" d="M1322.96 1550.12 Q1315.86 1550.12 1313.13 1551.75 Q1310.39 1553.37 1310.39 1557.29 Q1310.39 1560.4 1312.42 1562.25 Q1314.49 1564.07 1318.03 1564.07 Q1322.9 1564.07 1325.82 1560.63 Q1328.78 1557.16 1328.78 1551.43 L1328.78 1550.12 L1322.96 1550.12 M1334.64 1547.71 L1334.64 1568.04 L1328.78 1568.04 L1328.78 1562.63 Q1326.78 1565.88 1323.79 1567.44 Q1320.8 1568.97 1316.47 1568.97 Q1310.99 1568.97 1307.75 1565.91 Q1304.53 1562.82 1304.53 1557.67 Q1304.53 1551.65 1308.54 1548.6 Q1312.58 1545.54 1320.57 1545.54 L1328.78 1545.54 L1328.78 1544.97 Q1328.78 1540.93 1326.11 1538.73 Q1323.47 1536.5 1318.66 1536.5 Q1315.61 1536.5 1312.71 1537.23 Q1309.82 1537.97 1307.14 1539.43 L1307.14 1534.02 Q1310.36 1532.78 1313.38 1532.17 Q1316.4 1531.54 1319.27 1531.54 Q1327 1531.54 1330.82 1535.55 Q1334.64 1539.56 1334.64 1547.71 Z" fill="#000000" fill-rule="nonzero" fill-opacity="1" /><path clip-path="url(#clip520)" d="M1352.5 1522.27 L1352.5 1532.4 L1364.56 1532.4 L1364.56 1536.95 L1352.5 1536.95 L1352.5 1556.3 Q1352.5 1560.66 1353.67 1561.9 Q1354.88 1563.14 1358.54 1563.14 L1364.56 1563.14 L1364.56 1568.04 L1358.54 1568.04 Q1351.77 1568.04 1349.19 1565.53 Q1346.61 1562.98 1346.61 1556.3 L1346.61 1536.95 L1342.31 1536.95 L1342.31 1532.4 L1346.61 1532.4 L1346.61 1522.27 L1352.5 1522.27 Z" fill="#000000" fill-rule="nonzero" fill-opacity="1" /><path clip-path="url(#clip520)" d="M1372.26 1532.4 L1378.12 1532.4 L1378.12 1568.04 L1372.26 1568.04 L1372.26 1532.4 M1372.26 1518.52 L1378.12 1518.52 L1378.12 1525.93 L1372.26 1525.93 L1372.26 1518.52 Z" fill="#000000" fill-rule="nonzero" fill-opacity="1" /><path clip-path="url(#clip520)" d="M1404.19 1536.5 Q1399.48 1536.5 1396.74 1540.19 Q1394 1543.85 1394 1550.25 Q1394 1556.65 1396.71 1560.34 Q1399.44 1564 1404.19 1564 Q1408.87 1564 1411.6 1560.31 Q1414.34 1556.62 1414.34 1550.25 Q1414.34 1543.92 1411.6 1540.23 Q1408.87 1536.5 1404.19 1536.5 M1404.19 1531.54 Q1411.83 1531.54 1416.19 1536.5 Q1420.55 1541.47 1420.55 1550.25 Q1420.55 1559 1416.19 1564 Q1411.83 1568.97 1404.19 1568.97 Q1396.52 1568.97 1392.16 1564 Q1387.83 1559 1387.83 1550.25 Q1387.83 1541.47 1392.16 1536.5 Q1396.52 1531.54 1404.19 1531.54 Z" fill="#000000" fill-rule="nonzero" fill-opacity="1" /><path clip-path="url(#clip520)" d="M1459.89 1546.53 L1459.89 1568.04 L1454.03 1568.04 L1454.03 1546.72 Q1454.03 1541.66 1452.06 1539.14 Q1450.08 1536.63 1446.14 1536.63 Q1441.39 1536.63 1438.66 1539.65 Q1435.92 1542.68 1435.92 1547.9 L1435.92 1568.04 L1430.03 1568.04 L1430.03 1532.4 L1435.92 1532.4 L1435.92 1537.93 Q1438.02 1534.72 1440.85 1533.13 Q1443.72 1531.54 1447.44 1531.54 Q1453.58 1531.54 1456.74 1535.36 Q1459.89 1539.14 1459.89 1546.53 Z" fill="#000000" fill-rule="nonzero" fill-opacity="1" /><polyline clip-path="url(#clip520)" style="stroke:#000000; stroke-linecap:round; stroke-linejoin:round; stroke-width:4; stroke-opacity:1; fill:none" points="302.458,1423.18 302.458,106.192 "/>
<polyline clip-path="url(#clip520)" style="stroke:#000000; stroke-linecap:round; stroke-linejoin:round; stroke-width:4; stroke-opacity:1; fill:none" points="302.458,1263.7 321.356,1263.7 "/>
<polyline clip-path="url(#clip520)" style="stroke:#000000; stroke-linecap:round; stroke-linejoin:round; stroke-width:4; stroke-opacity:1; fill:none" points="302.458,1069.94 321.356,1069.94 "/>
<polyline clip-path="url(#clip520)" style="stroke:#000000; stroke-linecap:round; stroke-linejoin:round; stroke-width:4; stroke-opacity:1; fill:none" points="302.458,876.166 321.356,876.166 "/>
<polyline clip-path="url(#clip520)" style="stroke:#000000; stroke-linecap:round; stroke-linejoin:round; stroke-width:4; stroke-opacity:1; fill:none" points="302.458,682.398 321.356,682.398 "/>
<polyline clip-path="url(#clip520)" style="stroke:#000000; stroke-linecap:round; stroke-linejoin:round; stroke-width:4; stroke-opacity:1; fill:none" points="302.458,488.629 321.356,488.629 "/>
<polyline clip-path="url(#clip520)" style="stroke:#000000; stroke-linecap:round; stroke-linejoin:round; stroke-width:4; stroke-opacity:1; fill:none" points="302.458,294.86 321.356,294.86 "/>
<path clip-path="url(#clip520)" d="M114.26 1264.16 L143.936 1264.16 L143.936 1268.09 L114.26 1268.09 L114.26 1264.16 Z" fill="#000000" fill-rule="nonzero" fill-opacity="1" /><path clip-path="url(#clip520)" d="M154.075 1246.42 L172.431 1246.42 L172.431 1250.36 L158.357 1250.36 L158.357 1258.83 Q159.376 1258.48 160.394 1258.32 Q161.413 1258.14 162.431 1258.14 Q168.218 1258.14 171.598 1261.31 Q174.977 1264.48 174.977 1269.9 Q174.977 1275.47 171.505 1278.58 Q168.033 1281.66 161.714 1281.66 Q159.538 1281.66 157.269 1281.28 Q155.024 1280.91 152.616 1280.17 L152.616 1275.47 Q154.7 1276.61 156.922 1277.16 Q159.144 1277.72 161.621 1277.72 Q165.626 1277.72 167.964 1275.61 Q170.302 1273.51 170.302 1269.9 Q170.302 1266.28 167.964 1264.18 Q165.626 1262.07 161.621 1262.07 Q159.746 1262.07 157.871 1262.49 Q156.019 1262.91 154.075 1263.78 L154.075 1246.42 Z" fill="#000000" fill-rule="nonzero" fill-opacity="1" /><path clip-path="url(#clip520)" d="M184.329 1280.27 L184.329 1276.01 Q186.088 1276.84 187.894 1277.28 Q189.7 1277.72 191.436 1277.72 Q196.065 1277.72 198.496 1274.62 Q200.95 1271.49 201.297 1265.15 Q199.954 1267.14 197.894 1268.21 Q195.834 1269.27 193.334 1269.27 Q188.149 1269.27 185.116 1266.15 Q182.107 1263 182.107 1257.56 Q182.107 1252.23 185.255 1249.02 Q188.403 1245.8 193.635 1245.8 Q199.63 1245.8 202.778 1250.41 Q205.949 1254.99 205.949 1263.74 Q205.949 1271.91 202.061 1276.79 Q198.195 1281.66 191.644 1281.66 Q189.885 1281.66 188.079 1281.31 Q186.274 1280.96 184.329 1280.27 M193.635 1265.61 Q196.783 1265.61 198.612 1263.46 Q200.463 1261.31 200.463 1257.56 Q200.463 1253.83 198.612 1251.68 Q196.783 1249.5 193.635 1249.5 Q190.487 1249.5 188.635 1251.68 Q186.806 1253.83 186.806 1257.56 Q186.806 1261.31 188.635 1263.46 Q190.487 1265.61 193.635 1265.61 Z" fill="#000000" fill-rule="nonzero" fill-opacity="1" /><path clip-path="url(#clip520)" d="M224.352 1249.5 Q220.741 1249.5 218.912 1253.07 Q217.107 1256.61 217.107 1263.74 Q217.107 1270.85 218.912 1274.41 Q220.741 1277.95 224.352 1277.95 Q227.986 1277.95 229.792 1274.41 Q231.621 1270.85 231.621 1263.74 Q231.621 1256.61 229.792 1253.07 Q227.986 1249.5 224.352 1249.5 M224.352 1245.8 Q230.162 1245.8 233.218 1250.41 Q236.297 1254.99 236.297 1263.74 Q236.297 1272.47 233.218 1277.07 Q230.162 1281.66 224.352 1281.66 Q218.542 1281.66 215.463 1277.07 Q212.408 1272.47 212.408 1263.74 Q212.408 1254.99 215.463 1250.41 Q218.542 1245.8 224.352 1245.8 Z" fill="#000000" fill-rule="nonzero" fill-opacity="1" /><path clip-path="url(#clip520)" d="M254.514 1249.5 Q250.903 1249.5 249.074 1253.07 Q247.269 1256.61 247.269 1263.74 Q247.269 1270.85 249.074 1274.41 Q250.903 1277.95 254.514 1277.95 Q258.148 1277.95 259.954 1274.41 Q261.783 1270.85 261.783 1263.74 Q261.783 1256.61 259.954 1253.07 Q258.148 1249.5 254.514 1249.5 M254.514 1245.8 Q260.324 1245.8 263.38 1250.41 Q266.458 1254.99 266.458 1263.74 Q266.458 1272.47 263.38 1277.07 Q260.324 1281.66 254.514 1281.66 Q248.704 1281.66 245.625 1277.07 Q242.57 1272.47 242.57 1263.74 Q242.57 1254.99 245.625 1250.41 Q248.704 1245.8 254.514 1245.8 Z" fill="#000000" fill-rule="nonzero" fill-opacity="1" /><path clip-path="url(#clip520)" d="M114.26 1070.39 L143.936 1070.39 L143.936 1074.32 L114.26 1074.32 L114.26 1070.39 Z" fill="#000000" fill-rule="nonzero" fill-opacity="1" /><path clip-path="url(#clip520)" d="M154.075 1052.66 L172.431 1052.66 L172.431 1056.59 L158.357 1056.59 L158.357 1065.06 Q159.376 1064.72 160.394 1064.55 Q161.413 1064.37 162.431 1064.37 Q168.218 1064.37 171.598 1067.54 Q174.977 1070.71 174.977 1076.13 Q174.977 1081.71 171.505 1084.81 Q168.033 1087.89 161.714 1087.89 Q159.538 1087.89 157.269 1087.52 Q155.024 1087.15 152.616 1086.41 L152.616 1081.71 Q154.7 1082.84 156.922 1083.4 Q159.144 1083.95 161.621 1083.95 Q165.626 1083.95 167.964 1081.84 Q170.302 1079.74 170.302 1076.13 Q170.302 1072.52 167.964 1070.41 Q165.626 1068.3 161.621 1068.3 Q159.746 1068.3 157.871 1068.72 Q156.019 1069.14 154.075 1070.02 L154.075 1052.66 Z" fill="#000000" fill-rule="nonzero" fill-opacity="1" /><path clip-path="url(#clip520)" d="M194.19 1070.8 Q190.857 1070.8 188.936 1072.59 Q187.038 1074.37 187.038 1077.49 Q187.038 1080.62 188.936 1082.4 Q190.857 1084.18 194.19 1084.18 Q197.524 1084.18 199.445 1082.4 Q201.366 1080.59 201.366 1077.49 Q201.366 1074.37 199.445 1072.59 Q197.547 1070.8 194.19 1070.8 M189.514 1068.81 Q186.505 1068.07 184.815 1066.01 Q183.149 1063.95 183.149 1060.99 Q183.149 1056.85 186.088 1054.44 Q189.051 1052.03 194.19 1052.03 Q199.352 1052.03 202.292 1054.44 Q205.232 1056.85 205.232 1060.99 Q205.232 1063.95 203.542 1066.01 Q201.875 1068.07 198.889 1068.81 Q202.269 1069.6 204.144 1071.89 Q206.042 1074.18 206.042 1077.49 Q206.042 1082.52 202.963 1085.2 Q199.908 1087.89 194.19 1087.89 Q188.473 1087.89 185.394 1085.2 Q182.338 1082.52 182.338 1077.49 Q182.338 1074.18 184.237 1071.89 Q186.135 1069.6 189.514 1068.81 M187.801 1061.43 Q187.801 1064.11 189.468 1065.62 Q191.158 1067.12 194.19 1067.12 Q197.2 1067.12 198.889 1065.62 Q200.602 1064.11 200.602 1061.43 Q200.602 1058.74 198.889 1057.24 Q197.2 1055.73 194.19 1055.73 Q191.158 1055.73 189.468 1057.24 Q187.801 1058.74 187.801 1061.43 Z" fill="#000000" fill-rule="nonzero" fill-opacity="1" /><path clip-path="url(#clip520)" d="M224.352 1055.73 Q220.741 1055.73 218.912 1059.3 Q217.107 1062.84 217.107 1069.97 Q217.107 1077.08 218.912 1080.64 Q220.741 1084.18 224.352 1084.18 Q227.986 1084.18 229.792 1080.64 Q231.621 1077.08 231.621 1069.97 Q231.621 1062.84 229.792 1059.3 Q227.986 1055.73 224.352 1055.73 M224.352 1052.03 Q230.162 1052.03 233.218 1056.64 Q236.297 1061.22 236.297 1069.97 Q236.297 1078.7 233.218 1083.3 Q230.162 1087.89 224.352 1087.89 Q218.542 1087.89 215.463 1083.3 Q212.408 1078.7 212.408 1069.97 Q212.408 1061.22 215.463 1056.64 Q218.542 1052.03 224.352 1052.03 Z" fill="#000000" fill-rule="nonzero" fill-opacity="1" /><path clip-path="url(#clip520)" d="M254.514 1055.73 Q250.903 1055.73 249.074 1059.3 Q247.269 1062.84 247.269 1069.97 Q247.269 1077.08 249.074 1080.64 Q250.903 1084.18 254.514 1084.18 Q258.148 1084.18 259.954 1080.64 Q261.783 1077.08 261.783 1069.97 Q261.783 1062.84 259.954 1059.3 Q258.148 1055.73 254.514 1055.73 M254.514 1052.03 Q260.324 1052.03 263.38 1056.64 Q266.458 1061.22 266.458 1069.97 Q266.458 1078.7 263.38 1083.3 Q260.324 1087.89 254.514 1087.89 Q248.704 1087.89 245.625 1083.3 Q242.57 1078.7 242.57 1069.97 Q242.57 1061.22 245.625 1056.64 Q248.704 1052.03 254.514 1052.03 Z" fill="#000000" fill-rule="nonzero" fill-opacity="1" /><path clip-path="url(#clip520)" d="M114.26 876.618 L143.936 876.618 L143.936 880.553 L114.26 880.553 L114.26 876.618 Z" fill="#000000" fill-rule="nonzero" fill-opacity="1" /><path clip-path="url(#clip520)" d="M154.075 858.886 L172.431 858.886 L172.431 862.822 L158.357 862.822 L158.357 871.294 Q159.376 870.947 160.394 870.785 Q161.413 870.599 162.431 870.599 Q168.218 870.599 171.598 873.771 Q174.977 876.942 174.977 882.359 Q174.977 887.937 171.505 891.039 Q168.033 894.118 161.714 894.118 Q159.538 894.118 157.269 893.747 Q155.024 893.377 152.616 892.636 L152.616 887.937 Q154.7 889.071 156.922 889.627 Q159.144 890.183 161.621 890.183 Q165.626 890.183 167.964 888.076 Q170.302 885.97 170.302 882.359 Q170.302 878.747 167.964 876.641 Q165.626 874.535 161.621 874.535 Q159.746 874.535 157.871 874.951 Q156.019 875.368 154.075 876.247 L154.075 858.886 Z" fill="#000000" fill-rule="nonzero" fill-opacity="1" /><path clip-path="url(#clip520)" d="M183.01 858.886 L205.232 858.886 L205.232 860.877 L192.686 893.446 L187.801 893.446 L199.607 862.822 L183.01 862.822 L183.01 858.886 Z" fill="#000000" fill-rule="nonzero" fill-opacity="1" /><path clip-path="url(#clip520)" d="M224.352 861.965 Q220.741 861.965 218.912 865.53 Q217.107 869.072 217.107 876.201 Q217.107 883.308 218.912 886.872 Q220.741 890.414 224.352 890.414 Q227.986 890.414 229.792 886.872 Q231.621 883.308 231.621 876.201 Q231.621 869.072 229.792 865.53 Q227.986 861.965 224.352 861.965 M224.352 858.261 Q230.162 858.261 233.218 862.868 Q236.297 867.451 236.297 876.201 Q236.297 884.928 233.218 889.534 Q230.162 894.118 224.352 894.118 Q218.542 894.118 215.463 889.534 Q212.408 884.928 212.408 876.201 Q212.408 867.451 215.463 862.868 Q218.542 858.261 224.352 858.261 Z" fill="#000000" fill-rule="nonzero" fill-opacity="1" /><path clip-path="url(#clip520)" d="M254.514 861.965 Q250.903 861.965 249.074 865.53 Q247.269 869.072 247.269 876.201 Q247.269 883.308 249.074 886.872 Q250.903 890.414 254.514 890.414 Q258.148 890.414 259.954 886.872 Q261.783 883.308 261.783 876.201 Q261.783 869.072 259.954 865.53 Q258.148 861.965 254.514 861.965 M254.514 858.261 Q260.324 858.261 263.38 862.868 Q266.458 867.451 266.458 876.201 Q266.458 884.928 263.38 889.534 Q260.324 894.118 254.514 894.118 Q248.704 894.118 245.625 889.534 Q242.57 884.928 242.57 876.201 Q242.57 867.451 245.625 862.868 Q248.704 858.261 254.514 858.261 Z" fill="#000000" fill-rule="nonzero" fill-opacity="1" /><path clip-path="url(#clip520)" d="M114.26 682.849 L143.936 682.849 L143.936 686.784 L114.26 686.784 L114.26 682.849 Z" fill="#000000" fill-rule="nonzero" fill-opacity="1" /><path clip-path="url(#clip520)" d="M154.075 665.118 L172.431 665.118 L172.431 669.053 L158.357 669.053 L158.357 677.525 Q159.376 677.178 160.394 677.016 Q161.413 676.831 162.431 676.831 Q168.218 676.831 171.598 680.002 Q174.977 683.173 174.977 688.59 Q174.977 694.168 171.505 697.27 Q168.033 700.349 161.714 700.349 Q159.538 700.349 157.269 699.979 Q155.024 699.608 152.616 698.868 L152.616 694.168 Q154.7 695.303 156.922 695.858 Q159.144 696.414 161.621 696.414 Q165.626 696.414 167.964 694.307 Q170.302 692.201 170.302 688.59 Q170.302 684.979 167.964 682.872 Q165.626 680.766 161.621 680.766 Q159.746 680.766 157.871 681.182 Q156.019 681.599 154.075 682.479 L154.075 665.118 Z" fill="#000000" fill-rule="nonzero" fill-opacity="1" /><path clip-path="url(#clip520)" d="M194.769 680.534 Q191.621 680.534 189.769 682.687 Q187.94 684.84 187.94 688.59 Q187.94 692.317 189.769 694.493 Q191.621 696.645 194.769 696.645 Q197.917 696.645 199.746 694.493 Q201.598 692.317 201.598 688.59 Q201.598 684.84 199.746 682.687 Q197.917 680.534 194.769 680.534 M204.051 665.882 L204.051 670.141 Q202.292 669.308 200.487 668.868 Q198.704 668.428 196.945 668.428 Q192.315 668.428 189.862 671.553 Q187.431 674.678 187.084 680.997 Q188.45 678.983 190.51 677.919 Q192.57 676.831 195.047 676.831 Q200.255 676.831 203.264 680.002 Q206.297 683.15 206.297 688.59 Q206.297 693.914 203.149 697.131 Q200 700.349 194.769 700.349 Q188.774 700.349 185.602 695.766 Q182.431 691.159 182.431 682.432 Q182.431 674.238 186.32 669.377 Q190.209 664.493 196.76 664.493 Q198.519 664.493 200.301 664.84 Q202.107 665.187 204.051 665.882 Z" fill="#000000" fill-rule="nonzero" fill-opacity="1" /><path clip-path="url(#clip520)" d="M224.352 668.196 Q220.741 668.196 218.912 671.761 Q217.107 675.303 217.107 682.432 Q217.107 689.539 218.912 693.104 Q220.741 696.645 224.352 696.645 Q227.986 696.645 229.792 693.104 Q231.621 689.539 231.621 682.432 Q231.621 675.303 229.792 671.761 Q227.986 668.196 224.352 668.196 M224.352 664.493 Q230.162 664.493 233.218 669.099 Q236.297 673.682 236.297 682.432 Q236.297 691.159 233.218 695.766 Q230.162 700.349 224.352 700.349 Q218.542 700.349 215.463 695.766 Q212.408 691.159 212.408 682.432 Q212.408 673.682 215.463 669.099 Q218.542 664.493 224.352 664.493 Z" fill="#000000" fill-rule="nonzero" fill-opacity="1" /><path clip-path="url(#clip520)" d="M254.514 668.196 Q250.903 668.196 249.074 671.761 Q247.269 675.303 247.269 682.432 Q247.269 689.539 249.074 693.104 Q250.903 696.645 254.514 696.645 Q258.148 696.645 259.954 693.104 Q261.783 689.539 261.783 682.432 Q261.783 675.303 259.954 671.761 Q258.148 668.196 254.514 668.196 M254.514 664.493 Q260.324 664.493 263.38 669.099 Q266.458 673.682 266.458 682.432 Q266.458 691.159 263.38 695.766 Q260.324 700.349 254.514 700.349 Q248.704 700.349 245.625 695.766 Q242.57 691.159 242.57 682.432 Q242.57 673.682 245.625 669.099 Q248.704 664.493 254.514 664.493 Z" fill="#000000" fill-rule="nonzero" fill-opacity="1" /><path clip-path="url(#clip520)" d="M114.26 489.08 L143.936 489.08 L143.936 493.016 L114.26 493.016 L114.26 489.08 Z" fill="#000000" fill-rule="nonzero" fill-opacity="1" /><path clip-path="url(#clip520)" d="M154.075 471.349 L172.431 471.349 L172.431 475.284 L158.357 475.284 L158.357 483.756 Q159.376 483.409 160.394 483.247 Q161.413 483.062 162.431 483.062 Q168.218 483.062 171.598 486.233 Q174.977 489.404 174.977 494.821 Q174.977 500.4 171.505 503.502 Q168.033 506.58 161.714 506.58 Q159.538 506.58 157.269 506.21 Q155.024 505.84 152.616 505.099 L152.616 500.4 Q154.7 501.534 156.922 502.09 Q159.144 502.645 161.621 502.645 Q165.626 502.645 167.964 500.539 Q170.302 498.432 170.302 494.821 Q170.302 491.21 167.964 489.104 Q165.626 486.997 161.621 486.997 Q159.746 486.997 157.871 487.414 Q156.019 487.83 154.075 488.71 L154.075 471.349 Z" fill="#000000" fill-rule="nonzero" fill-opacity="1" /><path clip-path="url(#clip520)" d="M184.237 471.349 L202.593 471.349 L202.593 475.284 L188.519 475.284 L188.519 483.756 Q189.538 483.409 190.556 483.247 Q191.575 483.062 192.593 483.062 Q198.38 483.062 201.76 486.233 Q205.139 489.404 205.139 494.821 Q205.139 500.4 201.667 503.502 Q198.195 506.58 191.875 506.58 Q189.7 506.58 187.431 506.21 Q185.186 505.84 182.778 505.099 L182.778 500.4 Q184.862 501.534 187.084 502.09 Q189.306 502.645 191.783 502.645 Q195.787 502.645 198.125 500.539 Q200.463 498.432 200.463 494.821 Q200.463 491.21 198.125 489.104 Q195.787 486.997 191.783 486.997 Q189.908 486.997 188.033 487.414 Q186.181 487.83 184.237 488.71 L184.237 471.349 Z" fill="#000000" fill-rule="nonzero" fill-opacity="1" /><path clip-path="url(#clip520)" d="M224.352 474.428 Q220.741 474.428 218.912 477.992 Q217.107 481.534 217.107 488.664 Q217.107 495.77 218.912 499.335 Q220.741 502.877 224.352 502.877 Q227.986 502.877 229.792 499.335 Q231.621 495.77 231.621 488.664 Q231.621 481.534 229.792 477.992 Q227.986 474.428 224.352 474.428 M224.352 470.724 Q230.162 470.724 233.218 475.33 Q236.297 479.914 236.297 488.664 Q236.297 497.391 233.218 501.997 Q230.162 506.58 224.352 506.58 Q218.542 506.58 215.463 501.997 Q212.408 497.391 212.408 488.664 Q212.408 479.914 215.463 475.33 Q218.542 470.724 224.352 470.724 Z" fill="#000000" fill-rule="nonzero" fill-opacity="1" /><path clip-path="url(#clip520)" d="M254.514 474.428 Q250.903 474.428 249.074 477.992 Q247.269 481.534 247.269 488.664 Q247.269 495.77 249.074 499.335 Q250.903 502.877 254.514 502.877 Q258.148 502.877 259.954 499.335 Q261.783 495.77 261.783 488.664 Q261.783 481.534 259.954 477.992 Q258.148 474.428 254.514 474.428 M254.514 470.724 Q260.324 470.724 263.38 475.33 Q266.458 479.914 266.458 488.664 Q266.458 497.391 263.38 501.997 Q260.324 506.58 254.514 506.58 Q248.704 506.58 245.625 501.997 Q242.57 497.391 242.57 488.664 Q242.57 479.914 245.625 475.33 Q248.704 470.724 254.514 470.724 Z" fill="#000000" fill-rule="nonzero" fill-opacity="1" /><path clip-path="url(#clip520)" d="M114.26 295.312 L143.936 295.312 L143.936 299.247 L114.26 299.247 L114.26 295.312 Z" fill="#000000" fill-rule="nonzero" fill-opacity="1" /><path clip-path="url(#clip520)" d="M154.075 277.58 L172.431 277.58 L172.431 281.515 L158.357 281.515 L158.357 289.988 Q159.376 289.64 160.394 289.478 Q161.413 289.293 162.431 289.293 Q168.218 289.293 171.598 292.464 Q174.977 295.636 174.977 301.052 Q174.977 306.631 171.505 309.733 Q168.033 312.812 161.714 312.812 Q159.538 312.812 157.269 312.441 Q155.024 312.071 152.616 311.33 L152.616 306.631 Q154.7 307.765 156.922 308.321 Q159.144 308.876 161.621 308.876 Q165.626 308.876 167.964 306.77 Q170.302 304.663 170.302 301.052 Q170.302 297.441 167.964 295.335 Q165.626 293.228 161.621 293.228 Q159.746 293.228 157.871 293.645 Q156.019 294.062 154.075 294.941 L154.075 277.58 Z" fill="#000000" fill-rule="nonzero" fill-opacity="1" /><path clip-path="url(#clip520)" d="M197.037 281.654 L185.232 300.103 L197.037 300.103 L197.037 281.654 M195.811 277.58 L201.69 277.58 L201.69 300.103 L206.621 300.103 L206.621 303.992 L201.69 303.992 L201.69 312.14 L197.037 312.14 L197.037 303.992 L181.436 303.992 L181.436 299.478 L195.811 277.58 Z" fill="#000000" fill-rule="nonzero" fill-opacity="1" /><path clip-path="url(#clip520)" d="M224.352 280.659 Q220.741 280.659 218.912 284.224 Q217.107 287.765 217.107 294.895 Q217.107 302.001 218.912 305.566 Q220.741 309.108 224.352 309.108 Q227.986 309.108 229.792 305.566 Q231.621 302.001 231.621 294.895 Q231.621 287.765 229.792 284.224 Q227.986 280.659 224.352 280.659 M224.352 276.955 Q230.162 276.955 233.218 281.562 Q236.297 286.145 236.297 294.895 Q236.297 303.622 233.218 308.228 Q230.162 312.812 224.352 312.812 Q218.542 312.812 215.463 308.228 Q212.408 303.622 212.408 294.895 Q212.408 286.145 215.463 281.562 Q218.542 276.955 224.352 276.955 Z" fill="#000000" fill-rule="nonzero" fill-opacity="1" /><path clip-path="url(#clip520)" d="M254.514 280.659 Q250.903 280.659 249.074 284.224 Q247.269 287.765 247.269 294.895 Q247.269 302.001 249.074 305.566 Q250.903 309.108 254.514 309.108 Q258.148 309.108 259.954 305.566 Q261.783 302.001 261.783 294.895 Q261.783 287.765 259.954 284.224 Q258.148 280.659 254.514 280.659 M254.514 276.955 Q260.324 276.955 263.38 281.562 Q266.458 286.145 266.458 294.895 Q266.458 303.622 263.38 308.228 Q260.324 312.812 254.514 312.812 Q248.704 312.812 245.625 308.228 Q242.57 303.622 242.57 294.895 Q242.57 286.145 245.625 281.562 Q248.704 276.955 254.514 276.955 Z" fill="#000000" fill-rule="nonzero" fill-opacity="1" /><path clip-path="url(#clip520)" d="M16.4842 992.817 L16.4842 986.388 L58.5933 986.388 L58.5933 963.248 L64.0042 963.248 L64.0042 992.817 L16.4842 992.817 Z" fill="#000000" fill-rule="nonzero" fill-opacity="1" /><path clip-path="url(#clip520)" d="M32.4621 944.088 Q32.4621 948.798 36.1542 951.535 Q39.8145 954.273 46.212 954.273 Q52.6095 954.273 56.3017 951.567 Q59.9619 948.83 59.9619 944.088 Q59.9619 939.409 56.2698 936.671 Q52.5777 933.934 46.212 933.934 Q39.8781 933.934 36.186 936.671 Q32.4621 939.409 32.4621 944.088 M27.4968 944.088 Q27.4968 936.449 32.4621 932.088 Q37.4273 927.728 46.212 927.728 Q54.9649 927.728 59.9619 932.088 Q64.9272 936.449 64.9272 944.088 Q64.9272 951.758 59.9619 956.119 Q54.9649 960.447 46.212 960.447 Q37.4273 960.447 32.4621 956.119 Q27.4968 951.758 27.4968 944.088 Z" fill="#000000" fill-rule="nonzero" fill-opacity="1" /><path clip-path="url(#clip520)" d="M45.7664 894.562 Q39.4007 894.562 35.8996 897.204 Q32.3984 899.814 32.3984 904.556 Q32.3984 909.267 35.8996 911.909 Q39.4007 914.519 45.7664 914.519 Q52.1003 914.519 55.6014 911.909 Q59.1026 909.267 59.1026 904.556 Q59.1026 899.814 55.6014 897.204 Q52.1003 894.562 45.7664 894.562 M59.58 888.706 Q68.683 888.706 73.1071 892.748 Q77.5631 896.79 77.5631 905.129 Q77.5631 908.217 77.0857 910.954 Q76.6401 913.691 75.6852 916.269 L69.9879 916.269 Q71.3884 913.691 72.0568 911.177 Q72.7252 908.662 72.7252 906.052 Q72.7252 900.291 69.7015 897.427 Q66.7096 894.562 60.6303 894.562 L57.7339 894.562 Q60.885 896.377 62.4446 899.209 Q64.0042 902.042 64.0042 905.989 Q64.0042 912.545 59.0071 916.556 Q54.01 920.566 45.7664 920.566 Q37.491 920.566 32.4939 916.556 Q27.4968 912.545 27.4968 905.989 Q27.4968 902.042 29.0564 899.209 Q30.616 896.377 33.7671 894.562 L28.3562 894.562 L28.3562 888.706 L59.58 888.706 Z" fill="#000000" fill-rule="nonzero" fill-opacity="1" /><path clip-path="url(#clip520)" d="M43.5384 879.603 L43.5384 862.447 L48.7583 862.447 L48.7583 879.603 L43.5384 879.603 Z" fill="#000000" fill-rule="nonzero" fill-opacity="1" /><path clip-path="url(#clip520)" d="M16.4842 852.867 L16.4842 846.438 L58.5933 846.438 L58.5933 823.298 L64.0042 823.298 L64.0042 852.867 L16.4842 852.867 Z" fill="#000000" fill-rule="nonzero" fill-opacity="1" /><path clip-path="url(#clip520)" d="M28.3562 816.805 L28.3562 810.949 L64.0042 810.949 L64.0042 816.805 L28.3562 816.805 M14.479 816.805 L14.479 810.949 L21.895 810.949 L21.895 816.805 L14.479 816.805 Z" fill="#000000" fill-rule="nonzero" fill-opacity="1" /><path clip-path="url(#clip520)" d="M14.479 798.918 L14.479 793.029 L43.7294 793.029 L28.3562 775.555 L28.3562 768.076 L45.0344 786.982 L64.0042 767.28 L64.0042 774.919 L46.5939 793.029 L64.0042 793.029 L64.0042 798.918 L14.479 798.918 Z" fill="#000000" fill-rule="nonzero" fill-opacity="1" /><path clip-path="url(#clip520)" d="M44.7161 732.778 L47.5806 732.778 L47.5806 759.705 Q53.6281 759.323 56.8109 756.076 Q59.9619 752.798 59.9619 746.973 Q59.9619 743.6 59.1344 740.449 Q58.3069 737.266 56.6518 734.147 L62.1899 734.147 Q63.5267 737.298 64.227 740.608 Q64.9272 743.918 64.9272 747.324 Q64.9272 755.854 59.9619 760.851 Q54.9967 765.816 46.5303 765.816 Q37.7774 765.816 32.6531 761.105 Q27.4968 756.363 27.4968 748.342 Q27.4968 741.149 32.1438 736.979 Q36.7589 732.778 44.7161 732.778 M42.9973 738.634 Q38.1912 738.698 35.3266 741.34 Q32.4621 743.95 32.4621 748.278 Q32.4621 753.18 35.2312 756.14 Q38.0002 759.068 43.0292 759.514 L42.9973 738.634 Z" fill="#000000" fill-rule="nonzero" fill-opacity="1" /><path clip-path="url(#clip520)" d="M14.479 723.166 L14.479 717.309 L64.0042 717.309 L64.0042 723.166 L14.479 723.166 Z" fill="#000000" fill-rule="nonzero" fill-opacity="1" /><path clip-path="url(#clip520)" d="M28.3562 705.055 L28.3562 699.199 L64.0042 699.199 L64.0042 705.055 L28.3562 705.055 M14.479 705.055 L14.479 699.199 L21.895 699.199 L21.895 705.055 L14.479 705.055 Z" fill="#000000" fill-rule="nonzero" fill-opacity="1" /><path clip-path="url(#clip520)" d="M42.4881 657.312 L64.0042 657.312 L64.0042 663.169 L42.679 663.169 Q37.6183 663.169 35.1038 665.142 Q32.5894 667.116 32.5894 671.062 Q32.5894 675.805 35.6131 678.542 Q38.6368 681.279 43.8567 681.279 L64.0042 681.279 L64.0042 687.168 L14.479 687.168 L14.479 681.279 L33.8944 681.279 Q30.6797 679.179 29.0883 676.346 Q27.4968 673.481 27.4968 669.757 Q27.4968 663.614 31.3163 660.463 Q35.1038 657.312 42.4881 657.312 Z" fill="#000000" fill-rule="nonzero" fill-opacity="1" /><path clip-path="url(#clip520)" d="M32.4621 631.818 Q32.4621 636.528 36.1542 639.266 Q39.8145 642.003 46.212 642.003 Q52.6095 642.003 56.3017 639.297 Q59.9619 636.56 59.9619 631.818 Q59.9619 627.139 56.2698 624.402 Q52.5777 621.664 46.212 621.664 Q39.8781 621.664 36.186 624.402 Q32.4621 627.139 32.4621 631.818 M27.4968 631.818 Q27.4968 624.179 32.4621 619.818 Q37.4273 615.458 46.212 615.458 Q54.9649 615.458 59.9619 619.818 Q64.9272 624.179 64.9272 631.818 Q64.9272 639.488 59.9619 643.849 Q54.9649 648.178 46.212 648.178 Q37.4273 648.178 32.4621 643.849 Q27.4968 639.488 27.4968 631.818 Z" fill="#000000" fill-rule="nonzero" fill-opacity="1" /><path clip-path="url(#clip520)" d="M32.4621 591.937 Q32.4621 596.647 36.1542 599.384 Q39.8145 602.122 46.212 602.122 Q52.6095 602.122 56.3017 599.416 Q59.9619 596.679 59.9619 591.937 Q59.9619 587.258 56.2698 584.521 Q52.5777 581.783 46.212 581.783 Q39.8781 581.783 36.186 584.521 Q32.4621 587.258 32.4621 591.937 M27.4968 591.937 Q27.4968 584.298 32.4621 579.937 Q37.4273 575.577 46.212 575.577 Q54.9649 575.577 59.9619 579.937 Q64.9272 584.298 64.9272 591.937 Q64.9272 599.607 59.9619 603.968 Q54.9649 608.296 46.212 608.296 Q37.4273 608.296 32.4621 603.968 Q27.4968 599.607 27.4968 591.937 Z" fill="#000000" fill-rule="nonzero" fill-opacity="1" /><path clip-path="url(#clip520)" d="M33.7671 542.411 L14.479 542.411 L14.479 536.555 L64.0042 536.555 L64.0042 542.411 L58.657 542.411 Q61.8398 544.257 63.3994 547.09 Q64.9272 549.891 64.9272 553.838 Q64.9272 560.299 59.771 564.373 Q54.6147 568.415 46.212 568.415 Q37.8093 568.415 32.6531 564.373 Q27.4968 560.299 27.4968 553.838 Q27.4968 549.891 29.0564 547.09 Q30.5842 544.257 33.7671 542.411 M46.212 562.368 Q52.6732 562.368 56.3653 559.726 Q60.0256 557.053 60.0256 552.406 Q60.0256 547.759 56.3653 545.085 Q52.6732 542.411 46.212 542.411 Q39.7508 542.411 36.0905 545.085 Q32.3984 547.759 32.3984 552.406 Q32.3984 557.053 36.0905 559.726 Q39.7508 562.368 46.212 562.368 Z" fill="#000000" fill-rule="nonzero" fill-opacity="1" /><path clip-path="url(#clip520)" d="M761.971 31.2093 L761.971 47.0368 L771.346 47.0368 Q776.062 47.0368 778.319 45.0981 Q780.605 43.1306 780.605 39.1086 Q780.605 35.0577 778.319 33.148 Q776.062 31.2093 771.346 31.2093 L761.971 31.2093 M761.971 13.4432 L761.971 26.464 L770.622 26.464 Q774.905 26.464 776.988 24.8726 Q779.1 23.2522 779.1 19.9536 Q779.1 16.6839 776.988 15.0636 Q774.905 13.4432 770.622 13.4432 L761.971 13.4432 M756.126 8.64 L771.056 8.64 Q777.74 8.64 781.357 11.4178 Q784.974 14.1955 784.974 19.317 Q784.974 23.2811 783.122 25.6249 Q781.27 27.9686 777.682 28.5473 Q781.994 29.4732 784.366 32.4246 Q786.768 35.347 786.768 39.7452 Q786.768 45.5322 782.833 48.6861 Q778.898 51.84 771.635 51.84 L756.126 51.84 L756.126 8.64 Z" fill="#000000" fill-rule="nonzero" fill-opacity="1" /><path clip-path="url(#clip520)" d="M811.276 35.5496 Q804.824 35.5496 802.335 37.0253 Q799.847 38.501 799.847 42.06 Q799.847 44.8956 801.699 46.5738 Q803.579 48.2231 806.791 48.2231 Q811.218 48.2231 813.88 45.0981 Q816.571 41.9442 816.571 36.7359 L816.571 35.5496 L811.276 35.5496 M821.895 33.3505 L821.895 51.84 L816.571 51.84 L816.571 46.921 Q814.748 49.8724 812.028 51.2902 Q809.308 52.6791 805.373 52.6791 Q800.396 52.6791 797.445 49.9014 Q794.523 47.0947 794.523 42.4072 Q794.523 36.9385 798.168 34.1607 Q801.843 31.3829 809.106 31.3829 L816.571 31.3829 L816.571 30.8621 Q816.571 27.1874 814.141 25.1908 Q811.739 23.1654 807.37 23.1654 Q804.592 23.1654 801.959 23.8309 Q799.326 24.4964 796.895 25.8274 L796.895 20.9085 Q799.818 19.78 802.567 19.2302 Q805.315 18.6515 807.92 18.6515 Q814.951 18.6515 818.423 22.2973 Q821.895 25.9431 821.895 33.3505 Z" fill="#000000" fill-rule="nonzero" fill-opacity="1" /><path clip-path="url(#clip520)" d="M832.312 39.0507 L832.312 19.4328 L837.636 19.4328 L837.636 38.8482 Q837.636 43.4488 839.43 45.7636 Q841.224 48.0495 844.812 48.0495 Q849.123 48.0495 851.611 45.3007 Q854.129 42.5519 854.129 37.8065 L854.129 19.4328 L859.453 19.4328 L859.453 51.84 L854.129 51.84 L854.129 46.8632 Q852.19 49.8145 849.615 51.2613 Q847.069 52.6791 843.683 52.6791 Q838.099 52.6791 835.205 49.2069 Q832.312 45.7347 832.312 39.0507 M845.709 18.6515 L845.709 18.6515 Z" fill="#000000" fill-rule="nonzero" fill-opacity="1" /><path clip-path="url(#clip520)" d="M895.651 25.6538 Q897.647 22.0659 900.425 20.3587 Q903.203 18.6515 906.964 18.6515 Q912.028 18.6515 914.777 22.2105 Q917.525 25.7406 917.525 32.2799 L917.525 51.84 L912.172 51.84 L912.172 32.4535 Q912.172 27.795 910.523 25.5381 Q908.874 23.2811 905.488 23.2811 Q901.351 23.2811 898.949 26.03 Q896.548 28.7788 896.548 33.5241 L896.548 51.84 L891.195 51.84 L891.195 32.4535 Q891.195 27.7661 889.545 25.5381 Q887.896 23.2811 884.453 23.2811 Q880.373 23.2811 877.971 26.0589 Q875.57 28.8077 875.57 33.5241 L875.57 51.84 L870.217 51.84 L870.217 19.4328 L875.57 19.4328 L875.57 24.4675 Q877.393 21.4872 879.939 20.0693 Q882.485 18.6515 885.986 18.6515 Q889.516 18.6515 891.976 20.4455 Q894.464 22.2395 895.651 25.6538 Z" fill="#000000" fill-rule="nonzero" fill-opacity="1" /><path clip-path="url(#clip520)" d="M925.454 33.2348 L941.05 33.2348 L941.05 37.9801 L925.454 37.9801 L925.454 33.2348 Z" fill="#000000" fill-rule="nonzero" fill-opacity="1" /><path clip-path="url(#clip520)" d="M943.509 8.64 L949.412 8.64 L958.497 45.156 L967.554 8.64 L974.122 8.64 L983.208 45.156 L992.265 8.64 L998.196 8.64 L987.346 51.84 L979.996 51.84 L970.882 14.3402 L961.68 51.84 L954.331 51.84 L943.509 8.64 Z" fill="#000000" fill-rule="nonzero" fill-opacity="1" /><path clip-path="url(#clip520)" d="M1029.97 34.3054 L1029.97 36.9095 L1005.49 36.9095 Q1005.84 42.4072 1008.79 45.3007 Q1011.77 48.1653 1017.06 48.1653 Q1020.13 48.1653 1022.99 47.4129 Q1025.89 46.6606 1028.72 45.156 L1028.72 50.1907 Q1025.86 51.406 1022.85 52.0425 Q1019.84 52.6791 1016.74 52.6791 Q1008.99 52.6791 1004.45 48.1653 Q999.932 43.6514 999.932 35.9547 Q999.932 27.9975 1004.21 23.339 Q1008.53 18.6515 1015.82 18.6515 Q1022.36 18.6515 1026.15 22.876 Q1029.97 27.0716 1029.97 34.3054 M1024.64 32.7429 Q1024.59 28.3737 1022.18 25.7695 Q1019.81 23.1654 1015.88 23.1654 Q1011.42 23.1654 1008.73 25.6827 Q1006.07 28.2001 1005.66 32.7718 L1024.64 32.7429 Z" fill="#000000" fill-rule="nonzero" fill-opacity="1" /><path clip-path="url(#clip520)" d="M1038.71 6.81709 L1044.03 6.81709 L1044.03 51.84 L1038.71 51.84 L1038.71 6.81709 Z" fill="#000000" fill-rule="nonzero" fill-opacity="1" /><path clip-path="url(#clip520)" d="M1078.49 20.677 L1078.49 25.6538 Q1076.23 24.4096 1073.95 23.802 Q1071.69 23.1654 1069.38 23.1654 Q1064.2 23.1654 1061.33 26.464 Q1058.47 29.7336 1058.47 35.6653 Q1058.47 41.597 1061.33 44.8956 Q1064.2 48.1653 1069.38 48.1653 Q1071.69 48.1653 1073.95 47.5576 Q1076.23 46.921 1078.49 45.6768 L1078.49 50.5958 Q1076.26 51.6375 1073.86 52.1583 Q1071.49 52.6791 1068.8 52.6791 Q1061.48 52.6791 1057.17 48.0784 Q1052.85 43.4778 1052.85 35.6653 Q1052.85 27.7371 1057.19 23.1943 Q1061.56 18.6515 1069.15 18.6515 Q1071.6 18.6515 1073.95 19.1724 Q1076.29 19.6642 1078.49 20.677 Z" fill="#000000" fill-rule="nonzero" fill-opacity="1" /><path clip-path="url(#clip520)" d="M1114.69 32.2799 L1114.69 51.84 L1109.36 51.84 L1109.36 32.4535 Q1109.36 27.8529 1107.57 25.567 Q1105.78 23.2811 1102.19 23.2811 Q1097.88 23.2811 1095.39 26.03 Q1092.9 28.7788 1092.9 33.5241 L1092.9 51.84 L1087.55 51.84 L1087.55 6.81709 L1092.9 6.81709 L1092.9 24.4675 Q1094.81 21.545 1097.39 20.0983 Q1099.99 18.6515 1103.38 18.6515 Q1108.96 18.6515 1111.82 22.1237 Q1114.69 25.567 1114.69 32.2799 Z" fill="#000000" fill-rule="nonzero" fill-opacity="1" /><path clip-path="url(#clip520)" d="M1176.73 11.9675 L1176.73 18.1307 Q1173.77 15.3819 1170.42 14.0219 Q1167.09 12.662 1163.33 12.662 Q1155.92 12.662 1151.99 17.2048 Q1148.05 21.7186 1148.05 30.2834 Q1148.05 38.8192 1151.99 43.362 Q1155.92 47.8759 1163.33 47.8759 Q1167.09 47.8759 1170.42 46.516 Q1173.77 45.156 1176.73 42.4072 L1176.73 48.5125 Q1173.66 50.5958 1170.22 51.6375 Q1166.8 52.6791 1162.98 52.6791 Q1153.17 52.6791 1147.53 46.6896 Q1141.89 40.6711 1141.89 30.2834 Q1141.89 19.8668 1147.53 13.8772 Q1153.17 7.85875 1162.98 7.85875 Q1166.86 7.85875 1170.27 8.90042 Q1173.72 9.91314 1176.73 11.9675 Z" fill="#000000" fill-rule="nonzero" fill-opacity="1" /><path clip-path="url(#clip520)" d="M1198.08 23.1654 Q1193.8 23.1654 1191.31 26.5218 Q1188.82 29.8494 1188.82 35.6653 Q1188.82 41.4813 1191.28 44.8377 Q1193.77 48.1653 1198.08 48.1653 Q1202.33 48.1653 1204.82 44.8088 Q1207.31 41.4523 1207.31 35.6653 Q1207.31 29.9072 1204.82 26.5508 Q1202.33 23.1654 1198.08 23.1654 M1198.08 18.6515 Q1205.02 18.6515 1208.99 23.1654 Q1212.95 27.6792 1212.95 35.6653 Q1212.95 43.6225 1208.99 48.1653 Q1205.02 52.6791 1198.08 52.6791 Q1191.11 52.6791 1187.14 48.1653 Q1183.21 43.6225 1183.21 35.6653 Q1183.21 27.6792 1187.14 23.1654 Q1191.11 18.6515 1198.08 18.6515 Z" fill="#000000" fill-rule="nonzero" fill-opacity="1" /><path clip-path="url(#clip520)" d="M1248.72 32.2799 L1248.72 51.84 L1243.39 51.84 L1243.39 32.4535 Q1243.39 27.8529 1241.6 25.567 Q1239.8 23.2811 1236.22 23.2811 Q1231.9 23.2811 1229.42 26.03 Q1226.93 28.7788 1226.93 33.5241 L1226.93 51.84 L1221.57 51.84 L1221.57 19.4328 L1226.93 19.4328 L1226.93 24.4675 Q1228.84 21.545 1231.41 20.0983 Q1234.02 18.6515 1237.4 18.6515 Q1242.99 18.6515 1245.85 22.1237 Q1248.72 25.567 1248.72 32.2799 Z" fill="#000000" fill-rule="nonzero" fill-opacity="1" /><path clip-path="url(#clip520)" d="M1255.52 19.4328 L1261.16 19.4328 L1271.29 46.6317 L1281.41 19.4328 L1287.05 19.4328 L1274.9 51.84 L1267.67 51.84 L1255.52 19.4328 Z" fill="#000000" fill-rule="nonzero" fill-opacity="1" /><path clip-path="url(#clip520)" d="M1322.12 34.3054 L1322.12 36.9095 L1297.64 36.9095 Q1297.99 42.4072 1300.94 45.3007 Q1303.92 48.1653 1309.22 48.1653 Q1312.29 48.1653 1315.15 47.4129 Q1318.04 46.6606 1320.88 45.156 L1320.88 50.1907 Q1318.02 51.406 1315.01 52.0425 Q1312 52.6791 1308.9 52.6791 Q1301.15 52.6791 1296.6 48.1653 Q1292.09 43.6514 1292.09 35.9547 Q1292.09 27.9975 1296.37 23.339 Q1300.68 18.6515 1307.97 18.6515 Q1314.51 18.6515 1318.3 22.876 Q1322.12 27.0716 1322.12 34.3054 M1316.8 32.7429 Q1316.74 28.3737 1314.34 25.7695 Q1311.97 23.1654 1308.03 23.1654 Q1303.58 23.1654 1300.89 25.6827 Q1298.22 28.2001 1297.82 32.7718 L1316.8 32.7429 Z" fill="#000000" fill-rule="nonzero" fill-opacity="1" /><path clip-path="url(#clip520)" d="M1349.64 24.4096 Q1348.74 23.8888 1347.67 23.6573 Q1346.63 23.3969 1345.36 23.3969 Q1340.84 23.3969 1338.41 26.3482 Q1336.01 29.2707 1336.01 34.7683 L1336.01 51.84 L1330.66 51.84 L1330.66 19.4328 L1336.01 19.4328 L1336.01 24.4675 Q1337.69 21.5161 1340.38 20.0983 Q1343.07 18.6515 1346.92 18.6515 Q1347.47 18.6515 1348.14 18.7383 Q1348.8 18.7962 1349.61 18.9409 L1349.64 24.4096 Z" fill="#000000" fill-rule="nonzero" fill-opacity="1" /><path clip-path="url(#clip520)" d="M1375.51 35.2602 Q1375.51 29.4732 1373.11 26.2904 Q1370.73 23.1075 1366.42 23.1075 Q1362.14 23.1075 1359.74 26.2904 Q1357.37 29.4732 1357.37 35.2602 Q1357.37 41.0183 1359.74 44.2012 Q1362.14 47.384 1366.42 47.384 Q1370.73 47.384 1373.11 44.2012 Q1375.51 41.0183 1375.51 35.2602 M1380.83 47.818 Q1380.83 56.0934 1377.16 60.1154 Q1373.48 64.1663 1365.9 64.1663 Q1363.1 64.1663 1360.61 63.7323 Q1358.12 63.3272 1355.78 62.4592 L1355.78 57.2798 Q1358.12 58.5529 1360.41 59.1606 Q1362.69 59.7682 1365.06 59.7682 Q1370.3 59.7682 1372.9 57.0194 Q1375.51 54.2995 1375.51 48.7729 L1375.51 46.1398 Q1373.86 49.0044 1371.28 50.4222 Q1368.71 51.84 1365.12 51.84 Q1359.16 51.84 1355.51 47.2972 Q1351.87 42.7544 1351.87 35.2602 Q1351.87 27.7371 1355.51 23.1943 Q1359.16 18.6515 1365.12 18.6515 Q1368.71 18.6515 1371.28 20.0693 Q1373.86 21.4872 1375.51 24.3517 L1375.51 19.4328 L1380.83 19.4328 L1380.83 47.818 Z" fill="#000000" fill-rule="nonzero" fill-opacity="1" /><path clip-path="url(#clip520)" d="M1419.52 34.3054 L1419.52 36.9095 L1395.04 36.9095 Q1395.39 42.4072 1398.34 45.3007 Q1401.32 48.1653 1406.61 48.1653 Q1409.68 48.1653 1412.55 47.4129 Q1415.44 46.6606 1418.28 45.156 L1418.28 50.1907 Q1415.41 51.406 1412.4 52.0425 Q1409.39 52.6791 1406.3 52.6791 Q1398.54 52.6791 1394 48.1653 Q1389.48 43.6514 1389.48 35.9547 Q1389.48 27.9975 1393.77 23.339 Q1398.08 18.6515 1405.37 18.6515 Q1411.91 18.6515 1415.7 22.876 Q1419.52 27.0716 1419.52 34.3054 M1414.2 32.7429 Q1414.14 28.3737 1411.74 25.7695 Q1409.36 23.1654 1405.43 23.1654 Q1400.97 23.1654 1398.28 25.6827 Q1395.62 28.2001 1395.21 32.7718 L1414.2 32.7429 Z" fill="#000000" fill-rule="nonzero" fill-opacity="1" /><path clip-path="url(#clip520)" d="M1455.2 32.2799 L1455.2 51.84 L1449.87 51.84 L1449.87 32.4535 Q1449.87 27.8529 1448.08 25.567 Q1446.28 23.2811 1442.7 23.2811 Q1438.38 23.2811 1435.9 26.03 Q1433.41 28.7788 1433.41 33.5241 L1433.41 51.84 L1428.06 51.84 L1428.06 19.4328 L1433.41 19.4328 L1433.41 24.4675 Q1435.32 21.545 1437.89 20.0983 Q1440.5 18.6515 1443.88 18.6515 Q1449.47 18.6515 1452.33 22.1237 Q1455.2 25.567 1455.2 32.2799 Z" fill="#000000" fill-rule="nonzero" fill-opacity="1" /><path clip-path="url(#clip520)" d="M1489.14 20.677 L1489.14 25.6538 Q1486.88 24.4096 1484.59 23.802 Q1482.34 23.1654 1480.02 23.1654 Q1474.84 23.1654 1471.98 26.464 Q1469.11 29.7336 1469.11 35.6653 Q1469.11 41.597 1471.98 44.8956 Q1474.84 48.1653 1480.02 48.1653 Q1482.34 48.1653 1484.59 47.5576 Q1486.88 46.921 1489.14 45.6768 L1489.14 50.5958 Q1486.91 51.6375 1484.51 52.1583 Q1482.13 52.6791 1479.44 52.6791 Q1472.12 52.6791 1467.81 48.0784 Q1463.5 43.4778 1463.5 35.6653 Q1463.5 27.7371 1467.84 23.1943 Q1472.21 18.6515 1479.79 18.6515 Q1482.25 18.6515 1484.59 19.1724 Q1486.94 19.6642 1489.14 20.677 Z" fill="#000000" fill-rule="nonzero" fill-opacity="1" /><path clip-path="url(#clip520)" d="M1526.12 34.3054 L1526.12 36.9095 L1501.64 36.9095 Q1501.98 42.4072 1504.94 45.3007 Q1507.92 48.1653 1513.21 48.1653 Q1516.28 48.1653 1519.14 47.4129 Q1522.04 46.6606 1524.87 45.156 L1524.87 50.1907 Q1522.01 51.406 1519 52.0425 Q1515.99 52.6791 1512.89 52.6791 Q1505.14 52.6791 1500.6 48.1653 Q1496.08 43.6514 1496.08 35.9547 Q1496.08 27.9975 1500.36 23.339 Q1504.68 18.6515 1511.97 18.6515 Q1518.51 18.6515 1522.3 22.876 Q1526.12 27.0716 1526.12 34.3054 M1520.79 32.7429 Q1520.73 28.3737 1518.33 25.7695 Q1515.96 23.1654 1512.02 23.1654 Q1507.57 23.1654 1504.88 25.6827 Q1502.22 28.2001 1501.81 32.7718 L1520.79 32.7429 Z" fill="#000000" fill-rule="nonzero" fill-opacity="1" /><path clip-path="url(#clip520)" d="M1566.48 6.87496 Q1562.6 13.53 1560.72 20.0404 Q1558.84 26.5508 1558.84 33.2348 Q1558.84 39.9188 1560.72 46.487 Q1562.63 53.0263 1566.48 59.6525 L1561.85 59.6525 Q1557.51 52.8527 1555.34 46.2845 Q1553.2 39.7162 1553.2 33.2348 Q1553.2 26.7823 1555.34 20.2429 Q1557.48 13.7036 1561.85 6.87496 L1566.48 6.87496 Z" fill="#000000" fill-rule="nonzero" fill-opacity="1" /><path clip-path="url(#clip520)" d="M1602.94 10.0578 L1602.94 15.758 Q1599.61 14.1666 1596.66 13.3853 Q1593.71 12.6041 1590.96 12.6041 Q1586.19 12.6041 1583.58 14.4559 Q1581.01 16.3078 1581.01 19.7221 Q1581.01 22.5867 1582.71 24.0624 Q1584.45 25.5091 1589.25 26.4061 L1592.78 27.1295 Q1599.32 28.3737 1602.42 31.5276 Q1605.54 34.6526 1605.54 39.9188 Q1605.54 46.1977 1601.32 49.4384 Q1597.12 52.6791 1588.99 52.6791 Q1585.92 52.6791 1582.45 51.9847 Q1579.01 51.2902 1575.31 49.9303 L1575.31 43.9118 Q1578.86 45.9083 1582.28 46.921 Q1585.69 47.9338 1588.99 47.9338 Q1594 47.9338 1596.72 45.9662 Q1599.44 43.9986 1599.44 40.3528 Q1599.44 37.1699 1597.47 35.376 Q1595.53 33.582 1591.08 32.685 L1587.52 31.9906 Q1580.98 30.6885 1578.05 27.9107 Q1575.13 25.133 1575.13 20.1851 Q1575.13 14.4559 1579.15 11.1573 Q1583.2 7.85875 1590.29 7.85875 Q1593.33 7.85875 1596.49 8.40852 Q1599.64 8.95829 1602.94 10.0578 Z" fill="#000000" fill-rule="nonzero" fill-opacity="1" /><path clip-path="url(#clip520)" d="M1620.5 13.4432 L1620.5 29.6758 L1627.85 29.6758 Q1631.93 29.6758 1634.16 27.5635 Q1636.39 25.4513 1636.39 21.545 Q1636.39 17.6677 1634.16 15.5555 Q1631.93 13.4432 1627.85 13.4432 L1620.5 13.4432 M1614.66 8.64 L1627.85 8.64 Q1635.11 8.64 1638.82 11.9386 Q1642.55 15.2083 1642.55 21.545 Q1642.55 27.9397 1638.82 31.2093 Q1635.11 34.479 1627.85 34.479 L1620.5 34.479 L1620.5 51.84 L1614.66 51.84 L1614.66 8.64 Z" fill="#000000" fill-rule="nonzero" fill-opacity="1" /><path clip-path="url(#clip520)" d="M1643.16 8.64 L1649.44 8.64 L1661.42 26.4061 L1673.31 8.64 L1679.59 8.64 L1664.31 31.2672 L1664.31 51.84 L1658.44 51.84 L1658.44 31.2672 L1643.16 8.64 Z" fill="#000000" fill-rule="nonzero" fill-opacity="1" /><path clip-path="url(#clip520)" d="M1686.42 44.4905 L1692.52 44.4905 L1692.52 49.4673 L1687.78 58.7265 L1684.04 58.7265 L1686.42 49.4673 L1686.42 44.4905 Z" fill="#000000" fill-rule="nonzero" fill-opacity="1" /><path clip-path="url(#clip520)" d="M1722.96 8.64 L1728.81 8.64 L1728.81 26.898 L1748.19 8.64 L1755.72 8.64 L1734.27 28.7788 L1757.25 51.84 L1749.55 51.84 L1728.81 31.0357 L1728.81 51.84 L1722.96 51.84 L1722.96 8.64 Z" fill="#000000" fill-rule="nonzero" fill-opacity="1" /><path clip-path="url(#clip520)" d="M1762.28 24.9304 L1799.38 24.9304 L1799.38 29.7915 L1762.28 29.7915 L1762.28 24.9304 M1762.28 36.7359 L1799.38 36.7359 L1799.38 41.6549 L1762.28 41.6549 L1762.28 36.7359 Z" fill="#000000" fill-rule="nonzero" fill-opacity="1" /><path clip-path="url(#clip520)" d="M1813.01 46.921 L1822.56 46.921 L1822.56 13.964 L1812.17 16.0474 L1812.17 10.7233 L1822.5 8.64 L1828.34 8.64 L1828.34 46.921 L1837.89 46.921 L1837.89 51.84 L1813.01 51.84 L1813.01 46.921 Z" fill="#000000" fill-rule="nonzero" fill-opacity="1" /><path clip-path="url(#clip520)" d="M1850.71 46.921 L1860.26 46.921 L1860.26 13.964 L1849.87 16.0474 L1849.87 10.7233 L1860.2 8.64 L1866.04 8.64 L1866.04 46.921 L1875.59 46.921 L1875.59 51.84 L1850.71 51.84 L1850.71 46.921 Z" fill="#000000" fill-rule="nonzero" fill-opacity="1" /><path clip-path="url(#clip520)" d="M1885.81 6.87496 L1890.44 6.87496 Q1894.78 13.7036 1896.92 20.2429 Q1899.09 26.7823 1899.09 33.2348 Q1899.09 39.7162 1896.92 46.2845 Q1894.78 52.8527 1890.44 59.6525 L1885.81 59.6525 Q1889.66 53.0263 1891.54 46.487 Q1893.45 39.9188 1893.45 33.2348 Q1893.45 26.5508 1891.54 20.0404 Q1889.66 13.53 1885.81 6.87496 Z" fill="#000000" fill-rule="nonzero" fill-opacity="1" /><polyline clip-path="url(#clip522)" style="stroke:#000080; stroke-linecap:round; stroke-linejoin:round; stroke-width:8; stroke-opacity:1; fill:none" points="360.486,1385.91 393.269,823.15 426.053,700.922 458.837,628.946 491.621,575.486 524.405,530.933 557.188,490.66 589.972,451.507 622.756,412.066 655.54,373.934 688.323,339.679 721.107,310.096 753.891,285.071 786.675,264.277 819.459,247.303 852.242,233.651 885.026,222.754 917.81,214.04 950.594,207.001 983.377,201.224 1016.16,196.396 1048.95,192.298 1081.73,188.775 1114.51,185.718 1147.3,183.041 1180.08,180.676 1212.86,178.568 1245.65,176.675 1278.43,174.961 1311.22,173.399 1344,171.963 1376.78,170.633 1409.57,169.392 1442.35,168.224 1475.13,167.113 1507.92,166.049 1540.7,165.018 1573.49,164.013 1606.27,163.025 1639.05,162.047 1671.84,161.075 1704.62,160.103 1737.4,159.131 1770.19,158.157 1802.97,157.182 1835.76,156.208 1868.54,155.236 1901.32,154.268 1934.11,153.307 1966.89,152.354 1999.67,151.41 2032.46,150.475 2065.24,149.55 2098.03,148.636 2130.81,147.733 2163.59,146.844 2196.38,145.969 2229.16,145.112 2261.94,144.277 2294.73,143.465 "/>
<circle clip-path="url(#clip522)" cx="360.486" cy="1385.91" r="10.8" fill="#000080" fill-rule="evenodd" fill-opacity="1" stroke="#000000" stroke-opacity="1" stroke-width="3.2"/>
<circle clip-path="url(#clip522)" cx="393.269" cy="823.15" r="10.8" fill="#000080" fill-rule="evenodd" fill-opacity="1" stroke="#000000" stroke-opacity="1" stroke-width="3.2"/>
<circle clip-path="url(#clip522)" cx="426.053" cy="700.922" r="10.8" fill="#000080" fill-rule="evenodd" fill-opacity="1" stroke="#000000" stroke-opacity="1" stroke-width="3.2"/>
<circle clip-path="url(#clip522)" cx="458.837" cy="628.946" r="10.8" fill="#000080" fill-rule="evenodd" fill-opacity="1" stroke="#000000" stroke-opacity="1" stroke-width="3.2"/>
<circle clip-path="url(#clip522)" cx="491.621" cy="575.486" r="10.8" fill="#000080" fill-rule="evenodd" fill-opacity="1" stroke="#000000" stroke-opacity="1" stroke-width="3.2"/>
<circle clip-path="url(#clip522)" cx="524.405" cy="530.933" r="10.8" fill="#000080" fill-rule="evenodd" fill-opacity="1" stroke="#000000" stroke-opacity="1" stroke-width="3.2"/>
<circle clip-path="url(#clip522)" cx="557.188" cy="490.66" r="10.8" fill="#000080" fill-rule="evenodd" fill-opacity="1" stroke="#000000" stroke-opacity="1" stroke-width="3.2"/>
<circle clip-path="url(#clip522)" cx="589.972" cy="451.507" r="10.8" fill="#000080" fill-rule="evenodd" fill-opacity="1" stroke="#000000" stroke-opacity="1" stroke-width="3.2"/>
<circle clip-path="url(#clip522)" cx="622.756" cy="412.066" r="10.8" fill="#000080" fill-rule="evenodd" fill-opacity="1" stroke="#000000" stroke-opacity="1" stroke-width="3.2"/>
<circle clip-path="url(#clip522)" cx="655.54" cy="373.934" r="10.8" fill="#000080" fill-rule="evenodd" fill-opacity="1" stroke="#000000" stroke-opacity="1" stroke-width="3.2"/>
<circle clip-path="url(#clip522)" cx="688.323" cy="339.679" r="10.8" fill="#000080" fill-rule="evenodd" fill-opacity="1" stroke="#000000" stroke-opacity="1" stroke-width="3.2"/>
<circle clip-path="url(#clip522)" cx="721.107" cy="310.096" r="10.8" fill="#000080" fill-rule="evenodd" fill-opacity="1" stroke="#000000" stroke-opacity="1" stroke-width="3.2"/>
<circle clip-path="url(#clip522)" cx="753.891" cy="285.071" r="10.8" fill="#000080" fill-rule="evenodd" fill-opacity="1" stroke="#000000" stroke-opacity="1" stroke-width="3.2"/>
<circle clip-path="url(#clip522)" cx="786.675" cy="264.277" r="10.8" fill="#000080" fill-rule="evenodd" fill-opacity="1" stroke="#000000" stroke-opacity="1" stroke-width="3.2"/>
<circle clip-path="url(#clip522)" cx="819.459" cy="247.303" r="10.8" fill="#000080" fill-rule="evenodd" fill-opacity="1" stroke="#000000" stroke-opacity="1" stroke-width="3.2"/>
<circle clip-path="url(#clip522)" cx="852.242" cy="233.651" r="10.8" fill="#000080" fill-rule="evenodd" fill-opacity="1" stroke="#000000" stroke-opacity="1" stroke-width="3.2"/>
<circle clip-path="url(#clip522)" cx="885.026" cy="222.754" r="10.8" fill="#000080" fill-rule="evenodd" fill-opacity="1" stroke="#000000" stroke-opacity="1" stroke-width="3.2"/>
<circle clip-path="url(#clip522)" cx="917.81" cy="214.04" r="10.8" fill="#000080" fill-rule="evenodd" fill-opacity="1" stroke="#000000" stroke-opacity="1" stroke-width="3.2"/>
<circle clip-path="url(#clip522)" cx="950.594" cy="207.001" r="10.8" fill="#000080" fill-rule="evenodd" fill-opacity="1" stroke="#000000" stroke-opacity="1" stroke-width="3.2"/>
<circle clip-path="url(#clip522)" cx="983.377" cy="201.224" r="10.8" fill="#000080" fill-rule="evenodd" fill-opacity="1" stroke="#000000" stroke-opacity="1" stroke-width="3.2"/>
<circle clip-path="url(#clip522)" cx="1016.16" cy="196.396" r="10.8" fill="#000080" fill-rule="evenodd" fill-opacity="1" stroke="#000000" stroke-opacity="1" stroke-width="3.2"/>
<circle clip-path="url(#clip522)" cx="1048.95" cy="192.298" r="10.8" fill="#000080" fill-rule="evenodd" fill-opacity="1" stroke="#000000" stroke-opacity="1" stroke-width="3.2"/>
<circle clip-path="url(#clip522)" cx="1081.73" cy="188.775" r="10.8" fill="#000080" fill-rule="evenodd" fill-opacity="1" stroke="#000000" stroke-opacity="1" stroke-width="3.2"/>
<circle clip-path="url(#clip522)" cx="1114.51" cy="185.718" r="10.8" fill="#000080" fill-rule="evenodd" fill-opacity="1" stroke="#000000" stroke-opacity="1" stroke-width="3.2"/>
<circle clip-path="url(#clip522)" cx="1147.3" cy="183.041" r="10.8" fill="#000080" fill-rule="evenodd" fill-opacity="1" stroke="#000000" stroke-opacity="1" stroke-width="3.2"/>
<circle clip-path="url(#clip522)" cx="1180.08" cy="180.676" r="10.8" fill="#000080" fill-rule="evenodd" fill-opacity="1" stroke="#000000" stroke-opacity="1" stroke-width="3.2"/>
<circle clip-path="url(#clip522)" cx="1212.86" cy="178.568" r="10.8" fill="#000080" fill-rule="evenodd" fill-opacity="1" stroke="#000000" stroke-opacity="1" stroke-width="3.2"/>
<circle clip-path="url(#clip522)" cx="1245.65" cy="176.675" r="10.8" fill="#000080" fill-rule="evenodd" fill-opacity="1" stroke="#000000" stroke-opacity="1" stroke-width="3.2"/>
<circle clip-path="url(#clip522)" cx="1278.43" cy="174.961" r="10.8" fill="#000080" fill-rule="evenodd" fill-opacity="1" stroke="#000000" stroke-opacity="1" stroke-width="3.2"/>
<circle clip-path="url(#clip522)" cx="1311.22" cy="173.399" r="10.8" fill="#000080" fill-rule="evenodd" fill-opacity="1" stroke="#000000" stroke-opacity="1" stroke-width="3.2"/>
<circle clip-path="url(#clip522)" cx="1344" cy="171.963" r="10.8" fill="#000080" fill-rule="evenodd" fill-opacity="1" stroke="#000000" stroke-opacity="1" stroke-width="3.2"/>
<circle clip-path="url(#clip522)" cx="1376.78" cy="170.633" r="10.8" fill="#000080" fill-rule="evenodd" fill-opacity="1" stroke="#000000" stroke-opacity="1" stroke-width="3.2"/>
<circle clip-path="url(#clip522)" cx="1409.57" cy="169.392" r="10.8" fill="#000080" fill-rule="evenodd" fill-opacity="1" stroke="#000000" stroke-opacity="1" stroke-width="3.2"/>
<circle clip-path="url(#clip522)" cx="1442.35" cy="168.224" r="10.8" fill="#000080" fill-rule="evenodd" fill-opacity="1" stroke="#000000" stroke-opacity="1" stroke-width="3.2"/>
<circle clip-path="url(#clip522)" cx="1475.13" cy="167.113" r="10.8" fill="#000080" fill-rule="evenodd" fill-opacity="1" stroke="#000000" stroke-opacity="1" stroke-width="3.2"/>
<circle clip-path="url(#clip522)" cx="1507.92" cy="166.049" r="10.8" fill="#000080" fill-rule="evenodd" fill-opacity="1" stroke="#000000" stroke-opacity="1" stroke-width="3.2"/>
<circle clip-path="url(#clip522)" cx="1540.7" cy="165.018" r="10.8" fill="#000080" fill-rule="evenodd" fill-opacity="1" stroke="#000000" stroke-opacity="1" stroke-width="3.2"/>
<circle clip-path="url(#clip522)" cx="1573.49" cy="164.013" r="10.8" fill="#000080" fill-rule="evenodd" fill-opacity="1" stroke="#000000" stroke-opacity="1" stroke-width="3.2"/>
<circle clip-path="url(#clip522)" cx="1606.27" cy="163.025" r="10.8" fill="#000080" fill-rule="evenodd" fill-opacity="1" stroke="#000000" stroke-opacity="1" stroke-width="3.2"/>
<circle clip-path="url(#clip522)" cx="1639.05" cy="162.047" r="10.8" fill="#000080" fill-rule="evenodd" fill-opacity="1" stroke="#000000" stroke-opacity="1" stroke-width="3.2"/>
<circle clip-path="url(#clip522)" cx="1671.84" cy="161.075" r="10.8" fill="#000080" fill-rule="evenodd" fill-opacity="1" stroke="#000000" stroke-opacity="1" stroke-width="3.2"/>
<circle clip-path="url(#clip522)" cx="1704.62" cy="160.103" r="10.8" fill="#000080" fill-rule="evenodd" fill-opacity="1" stroke="#000000" stroke-opacity="1" stroke-width="3.2"/>
<circle clip-path="url(#clip522)" cx="1737.4" cy="159.131" r="10.8" fill="#000080" fill-rule="evenodd" fill-opacity="1" stroke="#000000" stroke-opacity="1" stroke-width="3.2"/>
<circle clip-path="url(#clip522)" cx="1770.19" cy="158.157" r="10.8" fill="#000080" fill-rule="evenodd" fill-opacity="1" stroke="#000000" stroke-opacity="1" stroke-width="3.2"/>
<circle clip-path="url(#clip522)" cx="1802.97" cy="157.182" r="10.8" fill="#000080" fill-rule="evenodd" fill-opacity="1" stroke="#000000" stroke-opacity="1" stroke-width="3.2"/>
<circle clip-path="url(#clip522)" cx="1835.76" cy="156.208" r="10.8" fill="#000080" fill-rule="evenodd" fill-opacity="1" stroke="#000000" stroke-opacity="1" stroke-width="3.2"/>
<circle clip-path="url(#clip522)" cx="1868.54" cy="155.236" r="10.8" fill="#000080" fill-rule="evenodd" fill-opacity="1" stroke="#000000" stroke-opacity="1" stroke-width="3.2"/>
<circle clip-path="url(#clip522)" cx="1901.32" cy="154.268" r="10.8" fill="#000080" fill-rule="evenodd" fill-opacity="1" stroke="#000000" stroke-opacity="1" stroke-width="3.2"/>
<circle clip-path="url(#clip522)" cx="1934.11" cy="153.307" r="10.8" fill="#000080" fill-rule="evenodd" fill-opacity="1" stroke="#000000" stroke-opacity="1" stroke-width="3.2"/>
<circle clip-path="url(#clip522)" cx="1966.89" cy="152.354" r="10.8" fill="#000080" fill-rule="evenodd" fill-opacity="1" stroke="#000000" stroke-opacity="1" stroke-width="3.2"/>
<circle clip-path="url(#clip522)" cx="1999.67" cy="151.41" r="10.8" fill="#000080" fill-rule="evenodd" fill-opacity="1" stroke="#000000" stroke-opacity="1" stroke-width="3.2"/>
<circle clip-path="url(#clip522)" cx="2032.46" cy="150.475" r="10.8" fill="#000080" fill-rule="evenodd" fill-opacity="1" stroke="#000000" stroke-opacity="1" stroke-width="3.2"/>
<circle clip-path="url(#clip522)" cx="2065.24" cy="149.55" r="10.8" fill="#000080" fill-rule="evenodd" fill-opacity="1" stroke="#000000" stroke-opacity="1" stroke-width="3.2"/>
<circle clip-path="url(#clip522)" cx="2098.03" cy="148.636" r="10.8" fill="#000080" fill-rule="evenodd" fill-opacity="1" stroke="#000000" stroke-opacity="1" stroke-width="3.2"/>
<circle clip-path="url(#clip522)" cx="2130.81" cy="147.733" r="10.8" fill="#000080" fill-rule="evenodd" fill-opacity="1" stroke="#000000" stroke-opacity="1" stroke-width="3.2"/>
<circle clip-path="url(#clip522)" cx="2163.59" cy="146.844" r="10.8" fill="#000080" fill-rule="evenodd" fill-opacity="1" stroke="#000000" stroke-opacity="1" stroke-width="3.2"/>
<circle clip-path="url(#clip522)" cx="2196.38" cy="145.969" r="10.8" fill="#000080" fill-rule="evenodd" fill-opacity="1" stroke="#000000" stroke-opacity="1" stroke-width="3.2"/>
<circle clip-path="url(#clip522)" cx="2229.16" cy="145.112" r="10.8" fill="#000080" fill-rule="evenodd" fill-opacity="1" stroke="#000000" stroke-opacity="1" stroke-width="3.2"/>
<circle clip-path="url(#clip522)" cx="2261.94" cy="144.277" r="10.8" fill="#000080" fill-rule="evenodd" fill-opacity="1" stroke="#000000" stroke-opacity="1" stroke-width="3.2"/>
<circle clip-path="url(#clip522)" cx="2294.73" cy="143.465" r="10.8" fill="#000080" fill-rule="evenodd" fill-opacity="1" stroke="#000000" stroke-opacity="1" stroke-width="3.2"/>
</svg>
