<?xml version="1.0" encoding="utf-8"?>
<svg xmlns="http://www.w3.org/2000/svg" xmlns:xlink="http://www.w3.org/1999/xlink" width="600" height="400" viewBox="0 0 2400 1600">
<defs>
  <clipPath id="clip700">
    <rect x="0" y="0" width="2400" height="1600"/>
  </clipPath>
</defs>
<path clip-path="url(#clip700)" d="M0 1600 L2400 1600 L2400 8.88178e-14 L0 8.88178e-14  Z" fill="#ffffff" fill-rule="evenodd" fill-opacity="1"/>
<defs>
  <clipPath id="clip701">
    <rect x="314" y="0" width="1799" height="1500"/>
  </clipPath>
</defs>
<path clip-path="url(#clip700)" d="M219.38 1423.18 L2352.76 1423.18 L2352.76 101.872 L219.38 101.872  Z" fill="#ffffff" fill-rule="evenodd" fill-opacity="1"/>
<defs>
  <clipPath id="clip702">
    <rect x="219" y="101" width="2134" height="1322"/>
  </clipPath>
</defs>
<polyline clip-path="url(#clip702)" style="stroke:#000000; stroke-linecap:round; stroke-linejoin:round; stroke-width:2; stroke-opacity:0.1; fill:none" points="271.74,1423.18 271.74,101.872 "/>
<polyline clip-path="url(#clip702)" style="stroke:#000000; stroke-linecap:round; stroke-linejoin:round; stroke-width:2; stroke-opacity:0.1; fill:none" points="672.66,1423.18 672.66,101.872 "/>
<polyline clip-path="url(#clip702)" style="stroke:#000000; stroke-linecap:round; stroke-linejoin:round; stroke-width:2; stroke-opacity:0.1; fill:none" points="1073.58,1423.18 1073.58,101.872 "/>
<polyline clip-path="url(#clip702)" style="stroke:#000000; stroke-linecap:round; stroke-linejoin:round; stroke-width:2; stroke-opacity:0.1; fill:none" points="1474.5,1423.18 1474.5,101.872 "/>
<polyline clip-path="url(#clip702)" style="stroke:#000000; stroke-linecap:round; stroke-linejoin:round; stroke-width:2; stroke-opacity:0.1; fill:none" points="1875.42,1423.18 1875.42,101.872 "/>
<polyline clip-path="url(#clip702)" style="stroke:#000000; stroke-linecap:round; stroke-linejoin:round; stroke-width:2; stroke-opacity:0.1; fill:none" points="2276.34,1423.18 2276.34,101.872 "/>
<polyline clip-path="url(#clip702)" style="stroke:#000000; stroke-linecap:round; stroke-linejoin:round; stroke-width:2; stroke-opacity:0.1; fill:none" points="219.38,1223.1 2352.76,1223.1 "/>
<polyline clip-path="url(#clip702)" style="stroke:#000000; stroke-linecap:round; stroke-linejoin:round; stroke-width:2; stroke-opacity:0.1; fill:none" points="219.38,889.848 2352.76,889.848 "/>
<polyline clip-path="url(#clip702)" style="stroke:#000000; stroke-linecap:round; stroke-linejoin:round; stroke-width:2; stroke-opacity:0.1; fill:none" points="219.38,556.594 2352.76,556.594 "/>
<polyline clip-path="url(#clip702)" style="stroke:#000000; stroke-linecap:round; stroke-linejoin:round; stroke-width:2; stroke-opacity:0.1; fill:none" points="219.38,223.34 2352.76,223.34 "/>
<polyline clip-path="url(#clip700)" style="stroke:#000000; stroke-linecap:round; stroke-linejoin:round; stroke-width:4; stroke-opacity:1; fill:none" points="219.38,1423.18 2352.76,1423.18 "/>
<polyline clip-path="url(#clip700)" style="stroke:#000000; stroke-linecap:round; stroke-linejoin:round; stroke-width:4; stroke-opacity:1; fill:none" points="271.74,1423.18 271.74,1404.28 "/>
<polyline clip-path="url(#clip700)" style="stroke:#000000; stroke-linecap:round; stroke-linejoin:round; stroke-width:4; stroke-opacity:1; fill:none" points="672.66,1423.18 672.66,1404.28 "/>
<polyline clip-path="url(#clip700)" style="stroke:#000000; stroke-linecap:round; stroke-linejoin:round; stroke-width:4; stroke-opacity:1; fill:none" points="1073.58,1423.18 1073.58,1404.28 "/>
<polyline clip-path="url(#clip700)" style="stroke:#000000; stroke-linecap:round; stroke-linejoin:round; stroke-width:4; stroke-opacity:1; fill:none" points="1474.5,1423.18 1474.5,1404.28 "/>
<polyline clip-path="url(#clip700)" style="stroke:#000000; stroke-linecap:round; stroke-linejoin:round; stroke-width:4; stroke-opacity:1; fill:none" points="1875.42,1423.18 1875.42,1404.28 "/>
<polyline clip-path="url(#clip700)" style="stroke:#000000; stroke-linecap:round; stroke-linejoin:round; stroke-width:4; stroke-opacity:1; fill:none" points="2276.34,1423.18 2276.34,1404.28 "/>
<path clip-path="url(#clip700)" d="M271.74 1454.1 Q268.129 1454.1 266.301 1457.66 Q264.495 1461.2 264.495 1468.33 Q264.495 1475.44 266.301 1479.01 Q268.129 1482.55 271.74 1482.55 Q275.375 1482.55 277.18 1479.01 Q279.009 1475.44 279.009 1468.33 Q279.009 1461.2 277.18 1457.66 Q275.375 1454.1 271.74 1454.1 M271.74 1450.39 Q277.55 1450.39 280.606 1455 Q283.685 1459.58 283.685 1468.33 Q283.685 1477.06 280.606 1481.67 Q277.55 1486.25 271.74 1486.25 Q265.93 1486.25 262.851 1481.67 Q259.796 1477.06 259.796 1468.33 Q259.796 1459.58 262.851 1455 Q265.93 1450.39 271.74 1450.39 Z" fill="#000000" fill-rule="nonzero" fill-opacity="1" /><path clip-path="url(#clip700)" d="M647.36 1451.02 L665.716 1451.02 L665.716 1454.96 L651.642 1454.96 L651.642 1463.43 Q652.66 1463.08 653.679 1462.92 Q654.697 1462.73 655.716 1462.73 Q661.503 1462.73 664.883 1465.9 Q668.262 1469.08 668.262 1474.49 Q668.262 1480.07 664.79 1483.17 Q661.318 1486.25 654.998 1486.25 Q652.823 1486.25 650.554 1485.88 Q648.309 1485.51 645.901 1484.77 L645.901 1480.07 Q647.985 1481.2 650.207 1481.76 Q652.429 1482.32 654.906 1482.32 Q658.91 1482.32 661.248 1480.21 Q663.586 1478.1 663.586 1474.49 Q663.586 1470.88 661.248 1468.77 Q658.91 1466.67 654.906 1466.67 Q653.031 1466.67 651.156 1467.08 Q649.304 1467.5 647.36 1468.38 L647.36 1451.02 Z" fill="#000000" fill-rule="nonzero" fill-opacity="1" /><path clip-path="url(#clip700)" d="M687.475 1454.1 Q683.864 1454.1 682.035 1457.66 Q680.23 1461.2 680.23 1468.33 Q680.23 1475.44 682.035 1479.01 Q683.864 1482.55 687.475 1482.55 Q691.109 1482.55 692.915 1479.01 Q694.744 1475.44 694.744 1468.33 Q694.744 1461.2 692.915 1457.66 Q691.109 1454.1 687.475 1454.1 M687.475 1450.39 Q693.285 1450.39 696.341 1455 Q699.419 1459.58 699.419 1468.33 Q699.419 1477.06 696.341 1481.67 Q693.285 1486.25 687.475 1486.25 Q681.665 1486.25 678.586 1481.67 Q675.531 1477.06 675.531 1468.33 Q675.531 1459.58 678.586 1455 Q681.665 1450.39 687.475 1450.39 Z" fill="#000000" fill-rule="nonzero" fill-opacity="1" /><path clip-path="url(#clip700)" d="M1033.19 1481.64 L1040.83 1481.64 L1040.83 1455.28 L1032.52 1456.95 L1032.52 1452.69 L1040.78 1451.02 L1045.46 1451.02 L1045.46 1481.64 L1053.09 1481.64 L1053.09 1485.58 L1033.19 1485.58 L1033.19 1481.64 Z" fill="#000000" fill-rule="nonzero" fill-opacity="1" /><path clip-path="url(#clip700)" d="M1072.54 1454.1 Q1068.93 1454.1 1067.1 1457.66 Q1065.29 1461.2 1065.29 1468.33 Q1065.29 1475.44 1067.1 1479.01 Q1068.93 1482.55 1072.54 1482.55 Q1076.17 1482.55 1077.98 1479.01 Q1079.81 1475.44 1079.81 1468.33 Q1079.81 1461.2 1077.98 1457.66 Q1076.17 1454.1 1072.54 1454.1 M1072.54 1450.39 Q1078.35 1450.39 1081.4 1455 Q1084.48 1459.58 1084.48 1468.33 Q1084.48 1477.06 1081.4 1481.67 Q1078.35 1486.25 1072.54 1486.25 Q1066.73 1486.25 1063.65 1481.67 Q1060.59 1477.06 1060.59 1468.33 Q1060.59 1459.58 1063.65 1455 Q1066.73 1450.39 1072.54 1450.39 Z" fill="#000000" fill-rule="nonzero" fill-opacity="1" /><path clip-path="url(#clip700)" d="M1102.7 1454.1 Q1099.09 1454.1 1097.26 1457.66 Q1095.46 1461.2 1095.46 1468.33 Q1095.46 1475.44 1097.26 1479.01 Q1099.09 1482.55 1102.7 1482.55 Q1106.33 1482.55 1108.14 1479.01 Q1109.97 1475.44 1109.97 1468.33 Q1109.97 1461.2 1108.14 1457.66 Q1106.33 1454.1 1102.7 1454.1 M1102.7 1450.39 Q1108.51 1450.39 1111.57 1455 Q1114.65 1459.58 1114.65 1468.33 Q1114.65 1477.06 1111.57 1481.67 Q1108.51 1486.25 1102.7 1486.25 Q1096.89 1486.25 1093.81 1481.67 Q1090.76 1477.06 1090.76 1468.33 Q1090.76 1459.58 1093.81 1455 Q1096.89 1450.39 1102.7 1450.39 Z" fill="#000000" fill-rule="nonzero" fill-opacity="1" /><path clip-path="url(#clip700)" d="M1434.11 1481.64 L1441.75 1481.64 L1441.75 1455.28 L1433.44 1456.95 L1433.44 1452.69 L1441.7 1451.02 L1446.38 1451.02 L1446.38 1481.64 L1454.01 1481.64 L1454.01 1485.58 L1434.11 1485.58 L1434.11 1481.64 Z" fill="#000000" fill-rule="nonzero" fill-opacity="1" /><path clip-path="url(#clip700)" d="M1463.51 1451.02 L1481.86 1451.02 L1481.86 1454.96 L1467.79 1454.96 L1467.79 1463.43 Q1468.81 1463.08 1469.82 1462.92 Q1470.84 1462.73 1471.86 1462.73 Q1477.65 1462.73 1481.03 1465.9 Q1484.41 1469.08 1484.41 1474.49 Q1484.41 1480.07 1480.94 1483.17 Q1477.46 1486.25 1471.14 1486.25 Q1468.97 1486.25 1466.7 1485.88 Q1464.45 1485.51 1462.05 1484.77 L1462.05 1480.07 Q1464.13 1481.2 1466.35 1481.76 Q1468.57 1482.32 1471.05 1482.32 Q1475.06 1482.32 1477.39 1480.21 Q1479.73 1478.1 1479.73 1474.49 Q1479.73 1470.88 1477.39 1468.77 Q1475.06 1466.67 1471.05 1466.67 Q1469.18 1466.67 1467.3 1467.08 Q1465.45 1467.5 1463.51 1468.38 L1463.51 1451.02 Z" fill="#000000" fill-rule="nonzero" fill-opacity="1" /><path clip-path="url(#clip700)" d="M1503.62 1454.1 Q1500.01 1454.1 1498.18 1457.66 Q1496.38 1461.2 1496.38 1468.33 Q1496.38 1475.44 1498.18 1479.01 Q1500.01 1482.55 1503.62 1482.55 Q1507.25 1482.55 1509.06 1479.01 Q1510.89 1475.44 1510.89 1468.33 Q1510.89 1461.2 1509.06 1457.66 Q1507.25 1454.1 1503.62 1454.1 M1503.62 1450.39 Q1509.43 1450.39 1512.49 1455 Q1515.57 1459.58 1515.57 1468.33 Q1515.57 1477.06 1512.49 1481.67 Q1509.43 1486.25 1503.62 1486.25 Q1497.81 1486.25 1494.73 1481.67 Q1491.68 1477.06 1491.68 1468.33 Q1491.68 1459.58 1494.73 1455 Q1497.81 1450.39 1503.62 1450.39 Z" fill="#000000" fill-rule="nonzero" fill-opacity="1" /><path clip-path="url(#clip700)" d="M1839.11 1481.64 L1855.43 1481.64 L1855.43 1485.58 L1833.49 1485.58 L1833.49 1481.64 Q1836.15 1478.89 1840.73 1474.26 Q1845.34 1469.61 1846.52 1468.27 Q1848.77 1465.74 1849.65 1464.01 Q1850.55 1462.25 1850.55 1460.56 Q1850.55 1457.8 1848.6 1456.07 Q1846.68 1454.33 1843.58 1454.33 Q1841.38 1454.33 1838.93 1455.09 Q1836.5 1455.86 1833.72 1457.41 L1833.72 1452.69 Q1836.54 1451.55 1839 1450.97 Q1841.45 1450.39 1843.49 1450.39 Q1848.86 1450.39 1852.05 1453.08 Q1855.25 1455.77 1855.25 1460.26 Q1855.25 1462.39 1854.44 1464.31 Q1853.65 1466.2 1851.54 1468.8 Q1850.96 1469.47 1847.86 1472.69 Q1844.76 1475.88 1839.11 1481.64 Z" fill="#000000" fill-rule="nonzero" fill-opacity="1" /><path clip-path="url(#clip700)" d="M1875.25 1454.1 Q1871.64 1454.1 1869.81 1457.66 Q1868 1461.2 1868 1468.33 Q1868 1475.44 1869.81 1479.01 Q1871.64 1482.55 1875.25 1482.55 Q1878.88 1482.55 1880.69 1479.01 Q1882.52 1475.44 1882.52 1468.33 Q1882.52 1461.2 1880.69 1457.66 Q1878.88 1454.1 1875.25 1454.1 M1875.25 1450.39 Q1881.06 1450.39 1884.11 1455 Q1887.19 1459.58 1887.19 1468.33 Q1887.19 1477.06 1884.11 1481.67 Q1881.06 1486.25 1875.25 1486.25 Q1869.44 1486.25 1866.36 1481.67 Q1863.3 1477.06 1863.3 1468.33 Q1863.3 1459.58 1866.36 1455 Q1869.44 1450.39 1875.25 1450.39 Z" fill="#000000" fill-rule="nonzero" fill-opacity="1" /><path clip-path="url(#clip700)" d="M1905.41 1454.1 Q1901.8 1454.1 1899.97 1457.66 Q1898.16 1461.2 1898.16 1468.33 Q1898.16 1475.44 1899.97 1479.01 Q1901.8 1482.55 1905.41 1482.55 Q1909.04 1482.55 1910.85 1479.01 Q1912.68 1475.44 1912.68 1468.33 Q1912.68 1461.2 1910.85 1457.66 Q1909.04 1454.1 1905.41 1454.1 M1905.41 1450.39 Q1911.22 1450.39 1914.27 1455 Q1917.35 1459.58 1917.35 1468.33 Q1917.35 1477.06 1914.27 1481.67 Q1911.22 1486.25 1905.41 1486.25 Q1899.6 1486.25 1896.52 1481.67 Q1893.46 1477.06 1893.46 1468.33 Q1893.46 1459.58 1896.52 1455 Q1899.6 1450.39 1905.41 1450.39 Z" fill="#000000" fill-rule="nonzero" fill-opacity="1" /><path clip-path="url(#clip700)" d="M2240.03 1481.64 L2256.35 1481.64 L2256.35 1485.58 L2234.41 1485.58 L2234.41 1481.64 Q2237.07 1478.89 2241.65 1474.26 Q2246.26 1469.61 2247.44 1468.27 Q2249.69 1465.74 2250.57 1464.01 Q2251.47 1462.25 2251.47 1460.56 Q2251.47 1457.8 2249.52 1456.07 Q2247.6 1454.33 2244.5 1454.33 Q2242.3 1454.33 2239.85 1455.09 Q2237.42 1455.86 2234.64 1457.41 L2234.64 1452.69 Q2237.46 1451.55 2239.92 1450.97 Q2242.37 1450.39 2244.41 1450.39 Q2249.78 1450.39 2252.97 1453.08 Q2256.17 1455.77 2256.17 1460.26 Q2256.17 1462.39 2255.36 1464.31 Q2254.57 1466.2 2252.46 1468.8 Q2251.88 1469.47 2248.78 1472.69 Q2245.68 1475.88 2240.03 1481.64 Z" fill="#000000" fill-rule="nonzero" fill-opacity="1" /><path clip-path="url(#clip700)" d="M2266.21 1451.02 L2284.57 1451.02 L2284.57 1454.96 L2270.5 1454.96 L2270.5 1463.43 Q2271.51 1463.08 2272.53 1462.92 Q2273.55 1462.73 2274.57 1462.73 Q2280.36 1462.73 2283.74 1465.9 Q2287.12 1469.08 2287.12 1474.49 Q2287.12 1480.07 2283.64 1483.17 Q2280.17 1486.25 2273.85 1486.25 Q2271.68 1486.25 2269.41 1485.88 Q2267.16 1485.51 2264.75 1484.77 L2264.75 1480.07 Q2266.84 1481.2 2269.06 1481.76 Q2271.28 1482.32 2273.76 1482.32 Q2277.76 1482.32 2280.1 1480.21 Q2282.44 1478.1 2282.44 1474.49 Q2282.44 1470.88 2280.1 1468.77 Q2277.76 1466.67 2273.76 1466.67 Q2271.88 1466.67 2270.01 1467.08 Q2268.16 1467.5 2266.21 1468.38 L2266.21 1451.02 Z" fill="#000000" fill-rule="nonzero" fill-opacity="1" /><path clip-path="url(#clip700)" d="M2306.33 1454.1 Q2302.72 1454.1 2300.89 1457.66 Q2299.08 1461.2 2299.08 1468.33 Q2299.08 1475.44 2300.89 1479.01 Q2302.72 1482.55 2306.33 1482.55 Q2309.96 1482.55 2311.77 1479.01 Q2313.6 1475.44 2313.6 1468.33 Q2313.6 1461.2 2311.77 1457.66 Q2309.96 1454.1 2306.33 1454.1 M2306.33 1450.39 Q2312.14 1450.39 2315.19 1455 Q2318.27 1459.58 2318.27 1468.33 Q2318.27 1477.06 2315.19 1481.67 Q2312.14 1486.25 2306.33 1486.25 Q2300.52 1486.25 2297.44 1481.67 Q2294.38 1477.06 2294.38 1468.33 Q2294.38 1459.58 2297.44 1455 Q2300.52 1450.39 2306.33 1450.39 Z" fill="#000000" fill-rule="nonzero" fill-opacity="1" /><path clip-path="url(#clip700)" d="M1233.41 1520.52 L1239.84 1520.52 L1239.84 1562.63 L1262.98 1562.63 L1262.98 1568.04 L1233.41 1568.04 L1233.41 1520.52 Z" fill="#000000" fill-rule="nonzero" fill-opacity="1" /><path clip-path="url(#clip700)" d="M1285.67 1550.12 Q1278.57 1550.12 1275.84 1551.75 Q1273.1 1553.37 1273.1 1557.29 Q1273.1 1560.4 1275.13 1562.25 Q1277.2 1564.07 1280.74 1564.07 Q1285.61 1564.07 1288.53 1560.63 Q1291.49 1557.16 1291.49 1551.43 L1291.49 1550.12 L1285.67 1550.12 M1297.35 1547.71 L1297.35 1568.04 L1291.49 1568.04 L1291.49 1562.63 Q1289.49 1565.88 1286.5 1567.44 Q1283.51 1568.97 1279.18 1568.97 Q1273.7 1568.97 1270.46 1565.91 Q1267.24 1562.82 1267.24 1557.67 Q1267.24 1551.65 1271.25 1548.6 Q1275.29 1545.54 1283.28 1545.54 L1291.49 1545.54 L1291.49 1544.97 Q1291.49 1540.93 1288.82 1538.73 Q1286.18 1536.5 1281.37 1536.5 Q1278.32 1536.5 1275.42 1537.23 Q1272.52 1537.97 1269.85 1539.43 L1269.85 1534.02 Q1273.07 1532.78 1276.09 1532.17 Q1279.11 1531.54 1281.98 1531.54 Q1289.71 1531.54 1293.53 1535.55 Q1297.35 1539.56 1297.35 1547.71 Z" fill="#000000" fill-rule="nonzero" fill-opacity="1" /><path clip-path="url(#clip700)" d="M1332.87 1549.81 Q1332.87 1543.44 1330.23 1539.94 Q1327.62 1536.44 1322.88 1536.44 Q1318.17 1536.44 1315.53 1539.94 Q1312.92 1543.44 1312.92 1549.81 Q1312.92 1556.14 1315.53 1559.64 Q1318.17 1563.14 1322.88 1563.14 Q1327.62 1563.14 1330.23 1559.64 Q1332.87 1556.14 1332.87 1549.81 M1338.73 1563.62 Q1338.73 1572.72 1334.69 1577.15 Q1330.64 1581.6 1322.3 1581.6 Q1319.22 1581.6 1316.48 1581.13 Q1313.74 1580.68 1311.16 1579.72 L1311.16 1574.03 Q1313.74 1575.43 1316.26 1576.1 Q1318.77 1576.76 1321.38 1576.76 Q1327.14 1576.76 1330.01 1573.74 Q1332.87 1570.75 1332.87 1564.67 L1332.87 1561.77 Q1331.06 1564.92 1328.22 1566.48 Q1325.39 1568.04 1321.45 1568.04 Q1314.89 1568.04 1310.88 1563.05 Q1306.87 1558.05 1306.87 1549.81 Q1306.87 1541.53 1310.88 1536.53 Q1314.89 1531.54 1321.45 1531.54 Q1325.39 1531.54 1328.22 1533.1 Q1331.06 1534.66 1332.87 1537.81 L1332.87 1532.4 L1338.73 1532.4 L1338.73 1563.62 Z" fill="#000000" fill-rule="nonzero" fill-opacity="1" /><polyline clip-path="url(#clip700)" style="stroke:#000000; stroke-linecap:round; stroke-linejoin:round; stroke-width:4; stroke-opacity:1; fill:none" points="219.38,1423.18 219.38,101.872 "/>
<polyline clip-path="url(#clip700)" style="stroke:#000000; stroke-linecap:round; stroke-linejoin:round; stroke-width:4; stroke-opacity:1; fill:none" points="219.38,1223.1 238.278,1223.1 "/>
<polyline clip-path="url(#clip700)" style="stroke:#000000; stroke-linecap:round; stroke-linejoin:round; stroke-width:4; stroke-opacity:1; fill:none" points="219.38,889.848 238.278,889.848 "/>
<polyline clip-path="url(#clip700)" style="stroke:#000000; stroke-linecap:round; stroke-linejoin:round; stroke-width:4; stroke-opacity:1; fill:none" points="219.38,556.594 238.278,556.594 "/>
<polyline clip-path="url(#clip700)" style="stroke:#000000; stroke-linecap:round; stroke-linejoin:round; stroke-width:4; stroke-opacity:1; fill:none" points="219.38,223.34 238.278,223.34 "/>
<path clip-path="url(#clip700)" d="M126.205 1208.9 Q122.593 1208.9 120.765 1212.46 Q118.959 1216.01 118.959 1223.14 Q118.959 1230.24 120.765 1233.81 Q122.593 1237.35 126.205 1237.35 Q129.839 1237.35 131.644 1233.81 Q133.473 1230.24 133.473 1223.14 Q133.473 1216.01 131.644 1212.46 Q129.839 1208.9 126.205 1208.9 M126.205 1205.2 Q132.015 1205.2 135.07 1209.8 Q138.149 1214.39 138.149 1223.14 Q138.149 1231.86 135.07 1236.47 Q132.015 1241.05 126.205 1241.05 Q120.394 1241.05 117.316 1236.47 Q114.26 1231.86 114.26 1223.14 Q114.26 1214.39 117.316 1209.8 Q120.394 1205.2 126.205 1205.2 Z" fill="#000000" fill-rule="nonzero" fill-opacity="1" /><path clip-path="url(#clip700)" d="M146.366 1234.5 L151.251 1234.5 L151.251 1240.38 L146.366 1240.38 L146.366 1234.5 Z" fill="#000000" fill-rule="nonzero" fill-opacity="1" /><path clip-path="url(#clip700)" d="M171.436 1208.9 Q167.825 1208.9 165.996 1212.46 Q164.19 1216.01 164.19 1223.14 Q164.19 1230.24 165.996 1233.81 Q167.825 1237.35 171.436 1237.35 Q175.07 1237.35 176.876 1233.81 Q178.704 1230.24 178.704 1223.14 Q178.704 1216.01 176.876 1212.46 Q175.07 1208.9 171.436 1208.9 M171.436 1205.2 Q177.246 1205.2 180.301 1209.8 Q183.38 1214.39 183.38 1223.14 Q183.38 1231.86 180.301 1236.47 Q177.246 1241.05 171.436 1241.05 Q165.626 1241.05 162.547 1236.47 Q159.491 1231.86 159.491 1223.14 Q159.491 1214.39 162.547 1209.8 Q165.626 1205.2 171.436 1205.2 Z" fill="#000000" fill-rule="nonzero" fill-opacity="1" /><path clip-path="url(#clip700)" d="M127.431 875.646 Q123.82 875.646 121.992 879.211 Q120.186 882.753 120.186 889.882 Q120.186 896.989 121.992 900.554 Q123.82 904.095 127.431 904.095 Q131.066 904.095 132.871 900.554 Q134.7 896.989 134.7 889.882 Q134.7 882.753 132.871 879.211 Q131.066 875.646 127.431 875.646 M127.431 871.943 Q133.242 871.943 136.297 876.549 Q139.376 881.132 139.376 889.882 Q139.376 898.609 136.297 903.216 Q133.242 907.799 127.431 907.799 Q121.621 907.799 118.543 903.216 Q115.487 898.609 115.487 889.882 Q115.487 881.132 118.543 876.549 Q121.621 871.943 127.431 871.943 Z" fill="#000000" fill-rule="nonzero" fill-opacity="1" /><path clip-path="url(#clip700)" d="M147.593 901.248 L152.478 901.248 L152.478 907.128 L147.593 907.128 L147.593 901.248 Z" fill="#000000" fill-rule="nonzero" fill-opacity="1" /><path clip-path="url(#clip700)" d="M163.473 903.192 L171.112 903.192 L171.112 876.827 L162.802 878.493 L162.802 874.234 L171.065 872.568 L175.741 872.568 L175.741 903.192 L183.38 903.192 L183.38 907.128 L163.473 907.128 L163.473 903.192 Z" fill="#000000" fill-rule="nonzero" fill-opacity="1" /><path clip-path="url(#clip700)" d="M127.802 542.392 Q124.191 542.392 122.362 545.957 Q120.556 549.499 120.556 556.628 Q120.556 563.735 122.362 567.3 Q124.191 570.841 127.802 570.841 Q131.436 570.841 133.242 567.3 Q135.07 563.735 135.07 556.628 Q135.07 549.499 133.242 545.957 Q131.436 542.392 127.802 542.392 M127.802 538.689 Q133.612 538.689 136.667 543.295 Q139.746 547.878 139.746 556.628 Q139.746 565.355 136.667 569.962 Q133.612 574.545 127.802 574.545 Q121.992 574.545 118.913 569.962 Q115.857 565.355 115.857 556.628 Q115.857 547.878 118.913 543.295 Q121.992 538.689 127.802 538.689 Z" fill="#000000" fill-rule="nonzero" fill-opacity="1" /><path clip-path="url(#clip700)" d="M147.964 567.994 L152.848 567.994 L152.848 573.874 L147.964 573.874 L147.964 567.994 Z" fill="#000000" fill-rule="nonzero" fill-opacity="1" /><path clip-path="url(#clip700)" d="M167.061 569.938 L183.38 569.938 L183.38 573.874 L161.436 573.874 L161.436 569.938 Q164.098 567.184 168.681 562.554 Q173.288 557.902 174.468 556.559 Q176.714 554.036 177.593 552.3 Q178.496 550.54 178.496 548.851 Q178.496 546.096 176.551 544.36 Q174.63 542.624 171.528 542.624 Q169.329 542.624 166.876 543.388 Q164.445 544.152 161.667 545.703 L161.667 540.98 Q164.491 539.846 166.945 539.267 Q169.399 538.689 171.436 538.689 Q176.806 538.689 180.001 541.374 Q183.195 544.059 183.195 548.55 Q183.195 550.679 182.385 552.601 Q181.598 554.499 179.491 557.091 Q178.913 557.763 175.811 560.98 Q172.709 564.175 167.061 569.938 Z" fill="#000000" fill-rule="nonzero" fill-opacity="1" /><path clip-path="url(#clip700)" d="M126.853 209.138 Q123.242 209.138 121.413 212.703 Q119.607 216.245 119.607 223.374 Q119.607 230.481 121.413 234.046 Q123.242 237.587 126.853 237.587 Q130.487 237.587 132.292 234.046 Q134.121 230.481 134.121 223.374 Q134.121 216.245 132.292 212.703 Q130.487 209.138 126.853 209.138 M126.853 205.435 Q132.663 205.435 135.718 210.041 Q138.797 214.625 138.797 223.374 Q138.797 232.101 135.718 236.708 Q132.663 241.291 126.853 241.291 Q121.043 241.291 117.964 236.708 Q114.908 232.101 114.908 223.374 Q114.908 214.625 117.964 210.041 Q121.043 205.435 126.853 205.435 Z" fill="#000000" fill-rule="nonzero" fill-opacity="1" /><path clip-path="url(#clip700)" d="M147.015 234.74 L151.899 234.74 L151.899 240.62 L147.015 240.62 L147.015 234.74 Z" fill="#000000" fill-rule="nonzero" fill-opacity="1" /><path clip-path="url(#clip700)" d="M176.251 221.986 Q179.607 222.703 181.482 224.972 Q183.38 227.24 183.38 230.573 Q183.38 235.689 179.862 238.49 Q176.343 241.291 169.862 241.291 Q167.686 241.291 165.371 240.851 Q163.079 240.435 160.626 239.578 L160.626 235.064 Q162.57 236.198 164.885 236.777 Q167.2 237.356 169.723 237.356 Q174.121 237.356 176.413 235.62 Q178.727 233.884 178.727 230.573 Q178.727 227.518 176.575 225.805 Q174.445 224.069 170.626 224.069 L166.598 224.069 L166.598 220.226 L170.811 220.226 Q174.26 220.226 176.089 218.861 Q177.917 217.472 177.917 214.879 Q177.917 212.217 176.019 210.805 Q174.144 209.37 170.626 209.37 Q168.704 209.37 166.505 209.787 Q164.306 210.203 161.667 211.083 L161.667 206.916 Q164.329 206.175 166.644 205.805 Q168.982 205.435 171.042 205.435 Q176.366 205.435 179.468 207.865 Q182.57 210.273 182.57 214.393 Q182.57 217.263 180.926 219.254 Q179.283 221.222 176.251 221.986 Z" fill="#000000" fill-rule="nonzero" fill-opacity="1" /><path clip-path="url(#clip700)" d="M22.818 883.188 L46.4666 891.909 L46.4666 874.435 L22.818 883.188 M16.4842 886.816 L16.4842 879.528 L64.0042 861.417 L64.0042 868.101 L51.8138 872.43 L51.8138 893.851 L64.0042 898.179 L64.0042 904.959 L16.4842 886.816 Z" fill="#000000" fill-rule="nonzero" fill-opacity="1" /><path clip-path="url(#clip700)" d="M20.1444 820.04 L26.9239 820.04 Q23.9002 823.287 22.4043 826.979 Q20.9083 830.639 20.9083 834.777 Q20.9083 842.925 25.9054 847.254 Q30.8707 851.582 40.2919 851.582 Q49.6813 851.582 54.6784 847.254 Q59.6436 842.925 59.6436 834.777 Q59.6436 830.639 58.1477 826.979 Q56.6518 823.287 53.6281 820.04 L60.3439 820.04 Q62.6355 823.414 63.7814 827.202 Q64.9272 830.957 64.9272 835.159 Q64.9272 845.949 58.3387 852.155 Q51.7183 858.362 40.2919 858.362 Q28.8336 858.362 22.2451 852.155 Q15.6248 845.949 15.6248 835.159 Q15.6248 830.894 16.7706 827.138 Q17.8846 823.35 20.1444 820.04 Z" fill="#000000" fill-rule="nonzero" fill-opacity="1" /><path clip-path="url(#clip700)" d="M16.4842 810.11 L16.4842 782.801 L21.895 782.801 L21.895 803.68 L35.8996 803.68 L35.8996 784.838 L41.3104 784.838 L41.3104 803.68 L64.0042 803.68 L64.0042 810.11 L16.4842 810.11 Z" fill="#000000" fill-rule="nonzero" fill-opacity="1" /><path clip-path="url(#clip700)" d="M14.5426 758.802 Q21.8632 763.067 29.0246 765.136 Q36.186 767.205 43.5384 767.205 Q50.8908 767.205 58.1159 765.136 Q65.3091 763.035 72.5979 758.802 L72.5979 763.895 Q65.1182 768.669 57.8931 771.056 Q50.668 773.411 43.5384 773.411 Q36.4406 773.411 29.2474 771.056 Q22.0542 768.701 14.5426 763.895 L14.5426 758.802 Z" fill="#000000" fill-rule="nonzero" fill-opacity="1" /><path clip-path="url(#clip700)" d="M14.1925 739.896 L79.3773 739.896 L79.3773 745.307 L14.1925 745.307 L14.1925 739.896 Z" fill="#000000" fill-rule="nonzero" fill-opacity="1" /><path clip-path="url(#clip700)" d="M57.2247 692.821 L44.4614 692.821 L44.4614 703.325 L39.1779 703.325 L39.1779 686.456 L59.58 686.456 Q62.2218 690.18 63.5904 694.668 Q64.9272 699.155 64.9272 704.248 Q64.9272 715.388 58.4342 721.69 Q51.9093 727.96 40.2919 727.96 Q28.6427 727.96 22.1496 721.69 Q15.6248 715.388 15.6248 704.248 Q15.6248 699.601 16.7706 695.431 Q17.9164 691.23 20.1444 687.697 L26.9876 687.697 Q23.9639 691.262 22.4361 695.272 Q20.9083 699.283 20.9083 703.707 Q20.9083 712.428 25.7781 716.82 Q30.6479 721.181 40.2919 721.181 Q49.9041 721.181 54.7739 716.82 Q59.6436 712.428 59.6436 703.707 Q59.6436 700.301 59.0707 697.628 Q58.466 694.954 57.2247 692.821 Z" fill="#000000" fill-rule="nonzero" fill-opacity="1" /><path clip-path="url(#clip700)" d="M38.3822 673.597 L44.0477 673.597 L44.0477 665.99 L46.5939 665.99 L46.5939 673.597 L57.4157 673.597 Q59.8664 673.597 60.5667 672.833 Q61.2669 672.069 61.2669 669.778 L61.2669 665.99 L64.0042 665.99 L64.0042 669.778 Q64.0042 674.043 62.5719 675.666 Q61.1714 677.289 57.4157 677.289 L46.5939 677.289 L46.5939 679.995 L44.0477 679.995 L44.0477 677.289 L38.3822 677.289 L38.3822 673.597 Z" fill="#000000" fill-rule="nonzero" fill-opacity="1" /><path clip-path="url(#clip700)" d="M14.1925 648.198 L79.3773 648.198 L79.3773 653.609 L14.1925 653.609 L14.1925 648.198 Z" fill="#000000" fill-rule="nonzero" fill-opacity="1" /><path clip-path="url(#clip700)" d="M14.5426 634.703 L14.5426 629.61 Q22.0542 624.836 29.2474 622.48 Q36.4406 620.093 43.5384 620.093 Q50.668 620.093 57.8931 622.48 Q65.1182 624.836 72.5979 629.61 L72.5979 634.703 Q65.3091 630.469 58.1159 628.401 Q50.8908 626.3 43.5384 626.3 Q36.186 626.3 29.0246 628.401 Q21.8632 630.469 14.5426 634.703 Z" fill="#000000" fill-rule="nonzero" fill-opacity="1" /><path clip-path="url(#clip700)" d="M672.347 12.9583 L665.212 32.3071 L679.509 32.3071 L672.347 12.9583 M669.379 7.776 L675.342 7.776 L690.16 46.656 L684.691 46.656 L681.149 36.6821 L663.623 36.6821 L660.082 46.656 L654.535 46.656 L669.379 7.776 Z" fill="#000000" fill-rule="nonzero" fill-opacity="1" /><path clip-path="url(#clip700)" d="M724.014 10.7708 L724.014 16.3176 Q721.358 13.8437 718.337 12.6197 Q715.342 11.3958 711.957 11.3958 Q705.29 11.3958 701.748 15.4843 Q698.207 19.5468 698.207 27.2551 Q698.207 34.9373 701.748 39.0258 Q705.29 43.0883 711.957 43.0883 Q715.342 43.0883 718.337 41.8644 Q721.358 40.6404 724.014 38.1665 L724.014 43.6612 Q721.253 45.5362 718.154 46.4737 Q715.082 47.4112 711.644 47.4112 Q702.816 47.4112 697.738 42.0206 Q692.66 36.604 692.66 27.2551 Q692.66 17.8801 697.738 12.4895 Q702.816 7.07288 711.644 7.07288 Q715.134 7.07288 718.206 8.01037 Q721.305 8.92183 724.014 10.7708 Z" fill="#000000" fill-rule="nonzero" fill-opacity="1" /><path clip-path="url(#clip700)" d="M732.139 7.776 L754.482 7.776 L754.482 12.2031 L737.399 12.2031 L737.399 23.6613 L752.816 23.6613 L752.816 28.0884 L737.399 28.0884 L737.399 46.656 L732.139 46.656 L732.139 7.776 Z" fill="#000000" fill-rule="nonzero" fill-opacity="1" /><path clip-path="url(#clip700)" d="M774.118 6.18747 Q770.628 12.177 768.935 18.0364 Q767.243 23.8957 767.243 29.9113 Q767.243 35.9269 768.935 41.8383 Q770.654 47.7237 774.118 53.6872 L769.951 53.6872 Q766.045 47.5675 764.092 41.656 Q762.165 35.7446 762.165 29.9113 Q762.165 24.104 764.092 18.2187 Q766.019 12.3333 769.951 6.18747 L774.118 6.18747 Z" fill="#000000" fill-rule="nonzero" fill-opacity="1" /><path clip-path="url(#clip700)" d="M789.586 5.90101 L789.586 59.2341 L785.159 59.2341 L785.159 5.90101 L789.586 5.90101 Z" fill="#000000" fill-rule="nonzero" fill-opacity="1" /><path clip-path="url(#clip700)" d="M828.102 41.1092 L828.102 30.6665 L819.508 30.6665 L819.508 26.3436 L833.31 26.3436 L833.31 43.0362 Q830.263 45.1977 826.591 46.3175 Q822.919 47.4112 818.753 47.4112 Q809.638 47.4112 804.482 42.0987 Q799.352 36.7602 799.352 27.2551 Q799.352 17.7239 804.482 12.4114 Q809.638 7.07288 818.753 7.07288 Q822.555 7.07288 825.966 8.01037 Q829.404 8.94787 832.294 10.7708 L832.294 16.3697 Q829.378 13.8958 826.097 12.6458 Q822.815 11.3958 819.196 11.3958 Q812.06 11.3958 808.466 15.3801 Q804.899 19.3645 804.899 27.2551 Q804.899 35.1196 808.466 39.104 Q812.06 43.0883 819.196 43.0883 Q821.982 43.0883 824.169 42.6196 Q826.357 42.1248 828.102 41.1092 Z" fill="#000000" fill-rule="nonzero" fill-opacity="1" /><path clip-path="url(#clip700)" d="M843.831 25.6926 L843.831 30.328 L850.055 30.328 L850.055 32.4113 L843.831 32.4113 L843.831 41.2654 Q843.831 43.2706 844.456 43.8435 Q845.081 44.4164 846.956 44.4164 L850.055 44.4164 L850.055 46.656 L846.956 46.656 Q843.466 46.656 842.138 45.4841 Q840.81 44.3383 840.81 41.2654 L840.81 32.4113 L838.596 32.4113 L838.596 30.328 L840.81 30.328 L840.81 25.6926 L843.831 25.6926 Z" fill="#000000" fill-rule="nonzero" fill-opacity="1" /><path clip-path="url(#clip700)" d="M864.612 5.90101 L864.612 59.2341 L860.185 59.2341 L860.185 5.90101 L864.612 5.90101 Z" fill="#000000" fill-rule="nonzero" fill-opacity="1" /><path clip-path="url(#clip700)" d="M875.654 6.18747 L879.82 6.18747 Q883.726 12.3333 885.654 18.2187 Q887.607 24.104 887.607 29.9113 Q887.607 35.7446 885.654 41.656 Q883.726 47.5675 879.82 53.6872 L875.654 53.6872 Q879.117 47.7237 880.81 41.8383 Q882.529 35.9269 882.529 29.9113 Q882.529 23.8957 880.81 18.0364 Q879.117 12.177 875.654 6.18747 Z" fill="#000000" fill-rule="nonzero" fill-opacity="1" /><path clip-path="url(#clip700)" d="M927.424 31.9946 Q921.617 31.9946 919.377 33.3227 Q917.138 34.6509 917.138 37.854 Q917.138 40.406 918.804 41.9164 Q920.497 43.4008 923.388 43.4008 Q927.372 43.4008 929.768 40.5883 Q932.19 37.7498 932.19 33.0623 L932.19 31.9946 L927.424 31.9946 M936.981 30.0155 L936.981 46.656 L932.19 46.656 L932.19 42.2289 Q930.549 44.8852 928.101 46.1612 Q925.653 47.4112 922.112 47.4112 Q917.633 47.4112 914.976 44.9112 Q912.346 42.3852 912.346 38.1665 Q912.346 33.2446 915.627 30.7446 Q918.935 28.2446 925.471 28.2446 L932.19 28.2446 L932.19 27.7759 Q932.19 24.4686 930.002 22.6718 Q927.841 20.8488 923.909 20.8488 Q921.409 20.8488 919.039 21.4478 Q916.669 22.0468 914.481 23.2447 L914.481 18.8176 Q917.112 17.802 919.586 17.3072 Q922.06 16.7864 924.403 16.7864 Q930.731 16.7864 933.856 20.0676 Q936.981 23.3488 936.981 30.0155 Z" fill="#000000" fill-rule="nonzero" fill-opacity="1" /><path clip-path="url(#clip700)" d="M951.591 9.20828 L951.591 17.4895 L961.46 17.4895 L961.46 21.2134 L951.591 21.2134 L951.591 37.0467 Q951.591 40.6144 952.554 41.63 Q953.544 42.6456 956.539 42.6456 L961.46 42.6456 L961.46 46.656 L956.539 46.656 Q950.992 46.656 948.882 44.5987 Q946.773 42.5154 946.773 37.0467 L946.773 21.2134 L943.257 21.2134 L943.257 17.4895 L946.773 17.4895 L946.773 9.20828 L951.591 9.20828 Z" fill="#000000" fill-rule="nonzero" fill-opacity="1" /><path clip-path="url(#clip700)" d="M1000.7 11.3437 Q994.976 11.3437 991.59 15.6145 Q988.231 19.8853 988.231 27.2551 Q988.231 34.5988 991.59 38.8696 Q994.976 43.1404 1000.7 43.1404 Q1006.43 43.1404 1009.77 38.8696 Q1013.13 34.5988 1013.13 27.2551 Q1013.13 19.8853 1009.77 15.6145 Q1006.43 11.3437 1000.7 11.3437 M1000.7 7.07288 Q1008.88 7.07288 1013.78 12.5676 Q1018.67 18.0364 1018.67 27.2551 Q1018.67 36.4477 1013.78 41.9425 Q1008.88 47.4112 1000.7 47.4112 Q992.502 47.4112 987.58 41.9425 Q982.684 36.4738 982.684 27.2551 Q982.684 18.0364 987.58 12.5676 Q992.502 7.07288 1000.7 7.07288 Z" fill="#000000" fill-rule="nonzero" fill-opacity="1" /><path clip-path="url(#clip700)" d="M1031.33 42.281 L1031.33 57.7497 L1026.51 57.7497 L1026.51 17.4895 L1031.33 17.4895 L1031.33 21.9165 Q1032.84 19.3124 1035.13 18.0624 Q1037.45 16.7864 1040.65 16.7864 Q1045.97 16.7864 1049.27 21.0051 Q1052.61 25.2238 1052.61 32.0988 Q1052.61 38.9737 1049.27 43.1925 Q1045.97 47.4112 1040.65 47.4112 Q1037.45 47.4112 1035.13 46.1612 Q1032.84 44.8852 1031.33 42.281 M1047.63 32.0988 Q1047.63 26.8124 1045.44 23.8176 Q1043.28 20.7968 1039.48 20.7968 Q1035.68 20.7968 1033.49 23.8176 Q1031.33 26.8124 1031.33 32.0988 Q1031.33 37.3852 1033.49 40.406 Q1035.68 43.4008 1039.48 43.4008 Q1043.28 43.4008 1045.44 40.406 Q1047.63 37.3852 1047.63 32.0988 Z" fill="#000000" fill-rule="nonzero" fill-opacity="1" /><path clip-path="url(#clip700)" d="M1065.29 9.20828 L1065.29 17.4895 L1075.16 17.4895 L1075.16 21.2134 L1065.29 21.2134 L1065.29 37.0467 Q1065.29 40.6144 1066.25 41.63 Q1067.24 42.6456 1070.24 42.6456 L1075.16 42.6456 L1075.16 46.656 L1070.24 46.656 Q1064.69 46.656 1062.58 44.5987 Q1060.47 42.5154 1060.47 37.0467 L1060.47 21.2134 L1056.95 21.2134 L1056.95 17.4895 L1060.47 17.4895 L1060.47 9.20828 L1065.29 9.20828 Z" fill="#000000" fill-rule="nonzero" fill-opacity="1" /><path clip-path="url(#clip700)" d="M1081.46 17.4895 L1086.25 17.4895 L1086.25 46.656 L1081.46 46.656 L1081.46 17.4895 M1081.46 6.13538 L1086.25 6.13538 L1086.25 12.2031 L1081.46 12.2031 L1081.46 6.13538 Z" fill="#000000" fill-rule="nonzero" fill-opacity="1" /><path clip-path="url(#clip700)" d="M1118.99 23.0884 Q1120.78 19.8593 1123.28 18.3228 Q1125.78 16.7864 1129.17 16.7864 Q1133.73 16.7864 1136.2 19.9895 Q1138.67 23.1665 1138.67 29.0519 L1138.67 46.656 L1133.86 46.656 L1133.86 29.2082 Q1133.86 25.0155 1132.37 22.9843 Q1130.89 20.953 1127.84 20.953 Q1124.12 20.953 1121.95 23.427 Q1119.79 25.9009 1119.79 30.1717 L1119.79 46.656 L1114.98 46.656 L1114.98 29.2082 Q1114.98 24.9894 1113.49 22.9843 Q1112.01 20.953 1108.91 20.953 Q1105.24 20.953 1103.07 23.453 Q1100.91 25.9269 1100.91 30.1717 L1100.91 46.656 L1096.1 46.656 L1096.1 17.4895 L1100.91 17.4895 L1100.91 22.0207 Q1102.55 19.3384 1104.85 18.0624 Q1107.14 16.7864 1110.29 16.7864 Q1113.46 16.7864 1115.68 18.4009 Q1117.92 20.0155 1118.99 23.0884 Z" fill="#000000" fill-rule="nonzero" fill-opacity="1" /><path clip-path="url(#clip700)" d="M1161.49 31.9946 Q1155.68 31.9946 1153.44 33.3227 Q1151.2 34.6509 1151.2 37.854 Q1151.2 40.406 1152.87 41.9164 Q1154.56 43.4008 1157.45 43.4008 Q1161.43 43.4008 1163.83 40.5883 Q1166.25 37.7498 1166.25 33.0623 L1166.25 31.9946 L1161.49 31.9946 M1171.04 30.0155 L1171.04 46.656 L1166.25 46.656 L1166.25 42.2289 Q1164.61 44.8852 1162.16 46.1612 Q1159.71 47.4112 1156.17 47.4112 Q1151.69 47.4112 1149.04 44.9112 Q1146.41 42.3852 1146.41 38.1665 Q1146.41 33.2446 1149.69 30.7446 Q1153 28.2446 1159.53 28.2446 L1166.25 28.2446 L1166.25 27.7759 Q1166.25 24.4686 1164.06 22.6718 Q1161.9 20.8488 1157.97 20.8488 Q1155.47 20.8488 1153.1 21.4478 Q1150.73 22.0468 1148.54 23.2447 L1148.54 18.8176 Q1151.17 17.802 1153.65 17.3072 Q1156.12 16.7864 1158.46 16.7864 Q1164.79 16.7864 1167.92 20.0676 Q1171.04 23.3488 1171.04 30.0155 Z" fill="#000000" fill-rule="nonzero" fill-opacity="1" /><path clip-path="url(#clip700)" d="M1180.91 6.13538 L1185.7 6.13538 L1185.7 46.656 L1180.91 46.656 L1180.91 6.13538 Z" fill="#000000" fill-rule="nonzero" fill-opacity="1" /><path clip-path="url(#clip700)" d="M1210.26 30.1717 L1258.39 30.1717 L1258.39 33.9217 L1210.26 33.9217 L1210.26 30.1717 Z" fill="#000000" fill-rule="nonzero" fill-opacity="1" /><path clip-path="url(#clip700)" d="M1283.18 7.776 L1288.44 7.776 L1288.44 24.2082 L1305.89 7.776 L1312.66 7.776 L1293.36 25.9009 L1314.04 46.656 L1307.11 46.656 L1288.44 27.9321 L1288.44 46.656 L1283.18 46.656 L1283.18 7.776 Z" fill="#000000" fill-rule="nonzero" fill-opacity="1" /><path clip-path="url(#clip700)" d="M1318.57 22.4374 L1351.95 22.4374 L1351.95 26.8124 L1318.57 26.8124 L1318.57 22.4374 M1318.57 33.0623 L1351.95 33.0623 L1351.95 37.4894 L1318.57 37.4894 L1318.57 33.0623 Z" fill="#000000" fill-rule="nonzero" fill-opacity="1" /><path clip-path="url(#clip700)" d="M1364.22 42.2289 L1372.81 42.2289 L1372.81 12.5676 L1363.46 14.4426 L1363.46 9.65099 L1372.76 7.776 L1378.02 7.776 L1378.02 42.2289 L1386.61 42.2289 L1386.61 46.656 L1364.22 46.656 L1364.22 42.2289 Z" fill="#000000" fill-rule="nonzero" fill-opacity="1" /><path clip-path="url(#clip700)" d="M1398.15 42.2289 L1406.74 42.2289 L1406.74 12.5676 L1397.4 14.4426 L1397.4 9.65099 L1406.69 7.776 L1411.95 7.776 L1411.95 42.2289 L1420.55 42.2289 L1420.55 46.656 L1398.15 46.656 L1398.15 42.2289 Z" fill="#000000" fill-rule="nonzero" fill-opacity="1" /><path clip-path="url(#clip700)" d="M1458.96 6.18747 Q1455.47 12.177 1453.78 18.0364 Q1452.08 23.8957 1452.08 29.9113 Q1452.08 35.9269 1453.78 41.8383 Q1455.49 47.7237 1458.96 53.6872 L1454.79 53.6872 Q1450.88 47.5675 1448.93 41.656 Q1447 35.7446 1447 29.9113 Q1447 24.104 1448.93 18.2187 Q1450.86 12.3333 1454.79 6.18747 L1458.96 6.18747 Z" fill="#000000" fill-rule="nonzero" fill-opacity="1" /><path clip-path="url(#clip700)" d="M1473.51 30.9269 Q1470.6 30.3019 1469.04 28.6092 Q1467.47 26.9426 1467.47 24.5207 Q1467.47 20.8488 1470.44 18.7916 Q1473.38 16.7603 1478.49 16.7603 Q1480.47 16.7603 1482.68 17.0728 Q1484.9 17.3853 1487.45 18.0103 L1487.45 22.3593 Q1484.92 21.6041 1482.84 21.2655 Q1480.73 20.927 1478.88 20.927 Q1475.78 20.927 1473.98 22.1249 Q1472.16 23.3228 1472.16 24.9894 Q1472.16 26.8124 1473.93 27.9842 Q1475.68 29.1301 1478.7 29.1301 L1482.73 29.1301 L1482.73 33.0884 L1478.88 33.0884 Q1475.31 33.0884 1473.44 34.4165 Q1471.41 35.8748 1471.41 38.1665 Q1471.41 40.5102 1473.59 41.9685 Q1475.81 43.4269 1479.74 43.4269 Q1482.16 43.4269 1484.37 42.9581 Q1486.59 42.4633 1488.44 41.4998 L1488.44 45.9529 Q1486.09 46.682 1483.91 47.0466 Q1481.69 47.4112 1479.61 47.4112 Q1473.41 47.4112 1470.05 45.0414 Q1466.69 42.6716 1466.69 38.1665 Q1466.69 35.354 1468.49 33.4529 Q1470.29 31.5519 1473.51 30.9269 Z" fill="#000000" fill-rule="nonzero" fill-opacity="1" /><path clip-path="url(#clip700)" d="M1497.71 22.4374 L1531.09 22.4374 L1531.09 26.8124 L1497.71 26.8124 L1497.71 22.4374 M1497.71 33.0623 L1531.09 33.0623 L1531.09 37.4894 L1497.71 37.4894 L1497.71 33.0623 Z" fill="#000000" fill-rule="nonzero" fill-opacity="1" /><path clip-path="url(#clip700)" d="M1553.7 11.2395 Q1549.63 11.2395 1547.58 15.2499 Q1545.55 19.2343 1545.55 27.2551 Q1545.55 35.2498 1547.58 39.2602 Q1549.63 43.2446 1553.7 43.2446 Q1557.79 43.2446 1559.82 39.2602 Q1561.87 35.2498 1561.87 27.2551 Q1561.87 19.2343 1559.82 15.2499 Q1557.79 11.2395 1553.7 11.2395 M1553.7 7.07288 Q1560.23 7.07288 1563.67 12.2551 Q1567.13 17.4114 1567.13 27.2551 Q1567.13 37.0727 1563.67 42.255 Q1560.23 47.4112 1553.7 47.4112 Q1547.16 47.4112 1543.7 42.255 Q1540.26 37.0727 1540.26 27.2551 Q1540.26 17.4114 1543.7 12.2551 Q1547.16 7.07288 1553.7 7.07288 Z" fill="#000000" fill-rule="nonzero" fill-opacity="1" /><path clip-path="url(#clip700)" d="M1576.38 40.0415 L1581.87 40.0415 L1581.87 46.656 L1576.38 46.656 L1576.38 40.0415 Z" fill="#000000" fill-rule="nonzero" fill-opacity="1" /><path clip-path="url(#clip700)" d="M1604.58 11.2395 Q1600.52 11.2395 1598.46 15.2499 Q1596.43 19.2343 1596.43 27.2551 Q1596.43 35.2498 1598.46 39.2602 Q1600.52 43.2446 1604.58 43.2446 Q1608.67 43.2446 1610.7 39.2602 Q1612.76 35.2498 1612.76 27.2551 Q1612.76 19.2343 1610.7 15.2499 Q1608.67 11.2395 1604.58 11.2395 M1604.58 7.07288 Q1611.12 7.07288 1614.56 12.2551 Q1618.02 17.4114 1618.02 27.2551 Q1618.02 37.0727 1614.56 42.255 Q1611.12 47.4112 1604.58 47.4112 Q1598.05 47.4112 1594.58 42.255 Q1591.14 37.0727 1591.14 27.2551 Q1591.14 17.4114 1594.58 12.2551 Q1598.05 7.07288 1604.58 7.07288 Z" fill="#000000" fill-rule="nonzero" fill-opacity="1" /><path clip-path="url(#clip700)" d="M1638.51 11.2395 Q1634.45 11.2395 1632.39 15.2499 Q1630.36 19.2343 1630.36 27.2551 Q1630.36 35.2498 1632.39 39.2602 Q1634.45 43.2446 1638.51 43.2446 Q1642.6 43.2446 1644.63 39.2602 Q1646.69 35.2498 1646.69 27.2551 Q1646.69 19.2343 1644.63 15.2499 Q1642.6 11.2395 1638.51 11.2395 M1638.51 7.07288 Q1645.05 7.07288 1648.49 12.2551 Q1651.95 17.4114 1651.95 27.2551 Q1651.95 37.0727 1648.49 42.255 Q1645.05 47.4112 1638.51 47.4112 Q1631.98 47.4112 1628.51 42.255 Q1625.08 37.0727 1625.08 27.2551 Q1625.08 17.4114 1628.51 12.2551 Q1631.98 7.07288 1638.51 7.07288 Z" fill="#000000" fill-rule="nonzero" fill-opacity="1" /><path clip-path="url(#clip700)" d="M1672.45 11.2395 Q1668.38 11.2395 1666.33 15.2499 Q1664.3 19.2343 1664.3 27.2551 Q1664.3 35.2498 1666.33 39.2602 Q1668.38 43.2446 1672.45 43.2446 Q1676.53 43.2446 1678.57 39.2602 Q1680.62 35.2498 1680.62 27.2551 Q1680.62 19.2343 1678.57 15.2499 Q1676.53 11.2395 1672.45 11.2395 M1672.45 7.07288 Q1678.98 7.07288 1682.42 12.2551 Q1685.88 17.4114 1685.88 27.2551 Q1685.88 37.0727 1682.42 42.255 Q1678.98 47.4112 1672.45 47.4112 Q1665.91 47.4112 1662.45 42.255 Q1659.01 37.0727 1659.01 27.2551 Q1659.01 17.4114 1662.45 12.2551 Q1665.91 7.07288 1672.45 7.07288 Z" fill="#000000" fill-rule="nonzero" fill-opacity="1" /><path clip-path="url(#clip700)" d="M1696.04 42.2289 L1704.63 42.2289 L1704.63 12.5676 L1695.28 14.4426 L1695.28 9.65099 L1704.58 7.776 L1709.84 7.776 L1709.84 42.2289 L1718.44 42.2289 L1718.44 46.656 L1696.04 46.656 L1696.04 42.2289 Z" fill="#000000" fill-rule="nonzero" fill-opacity="1" /><path clip-path="url(#clip700)" d="M1729.61 40.0415 L1735.1 40.0415 L1735.1 44.5206 L1730.83 52.8539 L1727.47 52.8539 L1729.61 44.5206 L1729.61 40.0415 Z" fill="#000000" fill-rule="nonzero" fill-opacity="1" /><path clip-path="url(#clip700)" d="M1773.77 10.6927 L1787.24 46.656 L1782.16 46.656 L1773.98 25.0936 L1763.93 46.656 L1758.85 46.656 L1771.64 18.6874 L1769.71 13.5312 Q1768.49 10.2499 1765.7 10.2499 L1763.2 10.2499 L1763.2 6.13538 L1766.25 6.18747 Q1772.13 6.26559 1773.77 10.6927 Z" fill="#000000" fill-rule="nonzero" fill-opacity="1" /><path clip-path="url(#clip700)" d="M1794.48 22.4374 L1827.86 22.4374 L1827.86 26.8124 L1794.48 26.8124 L1794.48 22.4374 M1794.48 33.0623 L1827.86 33.0623 L1827.86 37.4894 L1794.48 37.4894 L1794.48 33.0623 Z" fill="#000000" fill-rule="nonzero" fill-opacity="1" /><path clip-path="url(#clip700)" d="M1840.13 42.2289 L1848.72 42.2289 L1848.72 12.5676 L1839.37 14.4426 L1839.37 9.65099 L1848.67 7.776 L1853.93 7.776 L1853.93 42.2289 L1862.52 42.2289 L1862.52 46.656 L1840.13 46.656 L1840.13 42.2289 Z" fill="#000000" fill-rule="nonzero" fill-opacity="1" /><path clip-path="url(#clip700)" d="M1884.4 11.2395 Q1880.34 11.2395 1878.28 15.2499 Q1876.25 19.2343 1876.25 27.2551 Q1876.25 35.2498 1878.28 39.2602 Q1880.34 43.2446 1884.4 43.2446 Q1888.49 43.2446 1890.52 39.2602 Q1892.58 35.2498 1892.58 27.2551 Q1892.58 19.2343 1890.52 15.2499 Q1888.49 11.2395 1884.4 11.2395 M1884.4 7.07288 Q1890.93 7.07288 1894.37 12.2551 Q1897.84 17.4114 1897.84 27.2551 Q1897.84 37.0727 1894.37 42.255 Q1890.93 47.4112 1884.4 47.4112 Q1877.86 47.4112 1874.4 42.255 Q1870.96 37.0727 1870.96 27.2551 Q1870.96 17.4114 1874.4 12.2551 Q1877.86 7.07288 1884.4 7.07288 Z" fill="#000000" fill-rule="nonzero" fill-opacity="1" /><path clip-path="url(#clip700)" d="M1905.65 6.18747 L1909.81 6.18747 Q1913.72 12.3333 1915.65 18.2187 Q1917.6 24.104 1917.6 29.9113 Q1917.6 35.7446 1915.65 41.656 Q1913.72 47.5675 1909.81 53.6872 L1905.65 53.6872 Q1909.11 47.7237 1910.8 41.8383 Q1912.52 35.9269 1912.52 29.9113 Q1912.52 23.8957 1910.8 18.0364 Q1909.11 12.177 1905.65 6.18747 Z" fill="#000000" fill-rule="nonzero" fill-opacity="1" /><polyline clip-path="url(#clip702)" style="stroke:#ff0000; stroke-linecap:round; stroke-linejoin:round; stroke-width:8; stroke-opacity:1; fill:none" stroke-dasharray="32, 20" points="279.759,227.356 287.777,357.388 295.796,184.001 303.814,294.551 311.832,362.485 319.851,426.67 327.869,420.397 335.888,309.183 343.906,373.747 351.924,334.39 359.943,572.358 367.961,567.089 375.98,500.29 383.998,586.4 392.016,571.656 400.035,731.983 408.053,458.904 416.072,528.305 424.09,719.07 432.108,579.993 440.127,725.203 448.145,699.445 456.164,631.789 464.182,824.376 472.2,762.243 480.219,760.692 488.237,826.163 496.256,854.299 504.274,701.2 512.292,791.878 520.311,847.08 528.329,874.512 536.348,819.464 544.366,904.947 552.384,859.67 560.403,857.833 568.421,900.657 576.44,854.96 584.458,813.316 592.476,919.173 600.495,893.792 608.513,883.627 616.532,909.741 624.55,1021.14 632.568,941.947 640.587,834.674 648.605,1083.89 656.624,1013.39 664.642,936.021 672.66,1027.09 680.679,985.686 688.697,1006.51 696.716,983.989 704.734,1027.17 712.752,941.563 720.771,995.058 728.789,1027.99 736.808,1003.81 744.826,959.751 752.844,1082.9 760.863,1036.95 768.881,1041.91 776.9,931.185 784.918,1093.16 792.936,1064.97 800.955,1036.55 808.973,1084.62 816.992,1015.59 825.01,1080.85 833.028,1093.3 841.047,1105.49 849.065,989.107 857.084,1103.12 865.102,1063.63 873.12,1017.53 881.139,988.794 889.157,1087.3 897.176,1107.72 905.194,1076.13 913.212,1135.44 921.231,1092.29 929.249,1061.68 937.268,1158.3 945.286,1154.14 953.304,1102.55 961.323,1150.72 969.341,1150.87 977.36,1112 985.378,1170.18 993.396,1097.21 1001.41,1120.99 1009.43,1030.38 1017.45,1167.75 1025.47,1061.8 1033.49,1055.08 1041.51,1095.05 1049.53,989.343 1057.54,1068.51 1065.56,1084.4 1073.58,1036.93 1081.6,1032.83 1089.62,1041.1 1097.64,1028.07 1105.65,1120.36 1113.67,994.871 1121.69,1050.55 1129.71,1068.89 1137.73,1157.53 1145.75,1059.14 1153.76,1167.67 1161.78,1071.01 1169.8,1138.52 1177.82,1059.01 1185.84,1086.33 1193.86,1069.98 1201.87,1048.29 1209.89,1051.85 1217.91,1085.8 1225.93,1018.18 1233.95,982.462 1241.97,1009.97 1249.99,1044.79 1258,1082.37 1266.02,1050.88 1274.04,1072.18 1282.06,1048.8 1290.08,1077.78 1298.1,1085.37 1306.11,1027.56 1314.13,1037.51 1322.15,985.5 1330.17,1127.86 1338.19,1089.88 1346.21,1064.49 1354.22,1101.38 1362.24,1069.8 1370.26,1136.57 1378.28,1011.53 1386.3,1054.56 1394.32,1090.78 1402.33,1112.69 1410.35,1077.98 1418.37,1086.46 1426.39,1084.51 1434.41,1079.81 1442.43,1050.53 1450.45,1214.47 1458.46,1101.31 1466.48,1088.5 1474.5,1129.77 1482.52,992.324 1490.54,1059.78 1498.56,1079.13 1506.57,1100.19 1514.59,1092.12 1522.61,1041.73 1530.63,1123.32 1538.65,1070.57 1546.67,1096.48 1554.68,1014.7 1562.7,1014.93 1570.72,1073.75 1578.74,1086.95 1586.76,1123.38 1594.78,1131.43 1602.79,1138.09 1610.81,1157.1 1618.83,1068 1626.85,1062.65 1634.87,1093.59 1642.89,1140.86 1650.91,1058.59 1658.92,1086.81 1666.94,1092.92 1674.96,1201.79 1682.98,1118.62 1691,1106.53 1699.02,1206.49 1707.03,1105.08 1715.05,1200.97 1723.07,1188.04 1731.09,1111.21 1739.11,1166.74 1747.13,1238 1755.14,1193.78 1763.16,1242.53 1771.18,1178.54 1779.2,1195.07 1787.22,1188.19 1795.24,1214.45 1803.25,1213.05 1811.27,1174.82 1819.29,1212.34 1827.31,1197.4 1835.33,1214.64 1843.35,1234.3 1851.37,1146.58 1859.38,1145.54 1867.4,1190.45 1875.42,1228.1 1883.44,1117.59 1891.46,1173.53 1899.48,1099.34 1907.49,1155.92 1915.51,1241.69 1923.53,1138.69 1931.55,1155.54 1939.57,1164.69 1947.59,1195.5 1955.6,1232.71 1963.62,1122.45 1971.64,1166.03 1979.66,1236.56 1987.68,1118.91 1995.7,1196.72 2003.71,1142.64 2011.73,1158.27 2019.75,1217.97 2027.77,1205.99 2035.79,1279.26 2043.81,1138.27 2051.83,1211.62 2059.84,1262.1 2067.86,1183.26 2075.88,1268.56 2083.9,1249.81 2091.92,1284.74 2099.94,1288.89 2107.95,1302.85 2115.97,1350.48 2123.99,1271.73 2132.01,1303.68 2140.03,1331.99 2148.05,1264.53 2156.06,1288.56 2164.08,1327.27 2172.1,1275.13 2180.12,1374.89 2188.14,1276.97 2196.16,1308.1 2204.17,1353.27 2212.19,1233.92 2220.21,1385.78 2228.23,1324.08 2236.25,1296.48 2244.27,1340.93 2252.29,1373.42 2260.3,1304.78 2268.32,1298.72 2276.34,1362.31 2284.36,1304.38 2292.38,1345.89 "/>
<polyline clip-path="url(#clip702)" style="stroke:#000080; stroke-linecap:round; stroke-linejoin:round; stroke-width:8; stroke-opacity:1; fill:none" points="279.759,242.589 287.777,341.597 295.796,407.484 303.814,470.824 311.832,524.035 319.851,576.576 327.869,624.575 335.888,666.236 343.906,702.935 351.924,738.805 359.943,771.446 367.961,802.072 375.98,824.05 383.998,858.915 392.016,883.03 400.035,907.403 408.053,928.409 416.072,946.703 424.09,963.11 432.108,980.565 440.127,1001 448.145,1009.87 456.164,1033.72 464.182,1044.89 472.2,1057.23 480.219,1064.26 488.237,1076.45 496.256,1083.95 504.274,1094.38 512.292,1106.28 520.311,1109.65 528.329,1124.68 536.348,1125.86 544.366,1138.07 552.384,1144.98 560.403,1147.65 568.421,1156 576.44,1157.22 584.458,1164.85 592.476,1172.07 600.495,1171.32 608.513,1177.01 616.532,1179.87 624.55,1185.28 632.568,1189.3 640.587,1193.12 648.605,1194.17 656.624,1196.71 664.642,1201.32 672.66,1202.82 680.679,1206.84 688.697,1208.55 696.716,1210.55 704.734,1209.43 712.752,1209.8 720.771,1208.81 728.789,1212.81 736.808,1215.78 744.826,1215.78 752.844,1214.31 760.863,1214.55 768.881,1216.74 776.9,1214.4 784.918,1220.22 792.936,1219.45 800.955,1222.59 808.973,1225.7 816.992,1226.81 825.01,1226.36 833.028,1226.46 841.047,1221.99 849.065,1224.63 857.084,1228.37 865.102,1229.8 873.12,1227.39 881.139,1229.54 889.157,1227.47 897.176,1228.97 905.194,1229.47 913.212,1228.69 921.231,1230.6 929.249,1229.06 937.268,1233.55 945.286,1235.28 953.304,1231.68 961.323,1233.99 969.341,1234.68 977.36,1233.19 985.378,1231.36 993.396,1233.79 1001.41,1229.89 1009.43,1231.76 1017.45,1233.09 1025.47,1229.18 1033.49,1232.28 1041.51,1230.44 1049.53,1235.31 1057.54,1229.98 1065.56,1229.77 1073.58,1228.7 1081.6,1234.22 1089.62,1234.77 1097.64,1231.84 1105.65,1231.58 1113.67,1229.07 1121.69,1232.76 1129.71,1230.07 1137.73,1230.69 1145.75,1237.02 1153.76,1238.18 1161.78,1236.17 1169.8,1236.06 1177.82,1234.43 1185.84,1237.63 1193.86,1236.97 1201.87,1237.19 1209.89,1240.32 1217.91,1235.88 1225.93,1236.61 1233.95,1237.13 1241.97,1236.33 1249.99,1235.32 1258,1233.43 1266.02,1231.58 1274.04,1229.3 1282.06,1234.45 1290.08,1234.85 1298.1,1237.91 1306.11,1233.85 1314.13,1240.05 1322.15,1236 1330.17,1232.3 1338.19,1233.09 1346.21,1236.11 1354.22,1232.74 1362.24,1237.36 1370.26,1231.8 1378.28,1238.03 1386.3,1234.3 1394.32,1234.18 1402.33,1233.44 1410.35,1234.66 1418.37,1236.04 1426.39,1235.52 1434.41,1234.94 1442.43,1238.78 1450.45,1233.44 1458.46,1233.56 1466.48,1231.01 1474.5,1232.99 1482.52,1230.83 1490.54,1230.45 1498.56,1232.82 1506.57,1231.98 1514.59,1233.92 1522.61,1235.6 1530.63,1233.5 1538.65,1235.78 1546.67,1234.04 1554.68,1235.57 1562.7,1232.92 1570.72,1233.74 1578.74,1236.45 1586.76,1235.85 1594.78,1233.89 1602.79,1232.75 1610.81,1233.38 1618.83,1233.43 1626.85,1232.96 1634.87,1229.17 1642.89,1230.92 1650.91,1229.85 1658.92,1232.74 1666.94,1232.48 1674.96,1229.57 1682.98,1230.78 1691,1231.41 1699.02,1234.08 1707.03,1229.31 1715.05,1232.9 1723.07,1232.64 1731.09,1230.85 1739.11,1231.74 1747.13,1230.83 1755.14,1230.26 1763.16,1233.92 1771.18,1231.68 1779.2,1233.87 1787.22,1229.58 1795.24,1231.14 1803.25,1229.72 1811.27,1229.35 1819.29,1232 1827.31,1235.63 1835.33,1231.62 1843.35,1232.97 1851.37,1231.55 1859.38,1230.14 1867.4,1229.61 1875.42,1231.34 1883.44,1230.01 1891.46,1231.7 1899.48,1228.78 1907.49,1231.03 1915.51,1228.74 1923.53,1229.53 1931.55,1227.42 1939.57,1227.39 1947.59,1231.17 1955.6,1233.92 1963.62,1235.01 1971.64,1232.98 1979.66,1229.52 1987.68,1233.65 1995.7,1228.02 2003.71,1234.14 2011.73,1228.74 2019.75,1227.13 2027.77,1232.36 2035.79,1227.16 2043.81,1230.57 2051.83,1229.96 2059.84,1234.52 2067.86,1232.57 2075.88,1235.73 2083.9,1232.62 2091.92,1234.32 2099.94,1235.42 2107.95,1234.91 2115.97,1232.74 2123.99,1231.27 2132.01,1231.17 2140.03,1230.98 2148.05,1230.29 2156.06,1231.17 2164.08,1233.06 2172.1,1235.04 2180.12,1231.91 2188.14,1233.52 2196.16,1233.89 2204.17,1231.63 2212.19,1230.4 2220.21,1234.37 2228.23,1237.3 2236.25,1230.3 2244.27,1231.81 2252.29,1235.59 2260.3,1233.79 2268.32,1233.76 2276.34,1234.86 2284.36,1237.4 2292.38,1234.18 "/>
<path clip-path="url(#clip702)" d="M279.759 349.255 L287.777 456.517 L295.796 525.487 L303.814 587.441 L311.832 634.126 L319.851 703.156 L327.869 750.147 L335.888 793.784 L343.906 832.344 L351.924 864.18 L359.943 899.572 L367.961 926.534 L375.98 957.718 L383.998 991.16 L392.016 1010.28 L400.035 1040.21 L408.053 1060.45 L416.072 1088.61 L424.09 1092.66 L432.108 1112.26 L440.127 1125.03 L448.145 1135.24 L456.164 1171.16 L464.182 1178.72 L472.2 1192.16 L480.219 1187.13 L488.237 1195.91 L496.256 1221.6 L504.274 1215.31 L512.292 1232.23 L520.311 1235.07 L528.329 1252.32 L536.348 1260.34 L544.366 1259.69 L552.384 1273.7 L560.403 1275.44 L568.421 1282.08 L576.44 1281.04 L584.458 1287.24 L592.476 1292.07 L600.495 1291.5 L608.513 1301.09 L616.532 1293.74 L624.55 1307.01 L632.568 1314.27 L640.587 1320.05 L648.605 1311.28 L656.624 1321.07 L664.642 1313.9 L672.66 1316.61 L680.679 1324.08 L688.697 1326.55 L696.716 1323.21 L704.734 1333.3 L712.752 1334.71 L720.771 1321.57 L728.789 1328.26 L736.808 1338.29 L744.826 1336.89 L752.844 1333.38 L760.863 1332.38 L768.881 1332.74 L776.9 1335.14 L784.918 1331.38 L792.936 1342.82 L800.955 1338.16 L808.973 1344.65 L816.992 1342.41 L825.01 1344.77 L833.028 1348.66 L841.047 1341.35 L849.065 1342.69 L857.084 1350.23 L865.102 1344.84 L873.12 1354.77 L881.139 1342.54 L889.157 1348.8 L897.176 1345.34 L905.194 1342.44 L913.212 1349.83 L921.231 1346.13 L929.249 1344.53 L937.268 1344.43 L945.286 1348.46 L953.304 1352.6 L961.323 1355.39 L969.341 1346.95 L977.36 1351.57 L985.378 1355.93 L993.396 1347.49 L1001.41 1343.21 L1009.43 1350 L1017.45 1356.61 L1025.47 1343.08 L1033.49 1355.02 L1041.51 1345.65 L1049.53 1348.31 L1057.54 1339.83 L1065.56 1352.83 L1073.58 1342.22 L1081.6 1353.59 L1089.62 1355.9 L1097.64 1344.62 L1105.65 1349.58 L1113.67 1339.65 L1121.69 1345.53 L1129.71 1346.77 L1137.73 1344.61 L1145.75 1351.97 L1153.76 1348.16 L1161.78 1350.4 L1169.8 1348.23 L1177.82 1351.9 L1185.84 1361.82 L1193.86 1347.47 L1201.87 1345.38 L1209.89 1354.7 L1217.91 1341.21 L1225.93 1354.67 L1233.95 1357.96 L1241.97 1346.7 L1249.99 1341.09 L1258 1349.54 L1266.02 1342.52 L1274.04 1347.25 L1282.06 1349.49 L1290.08 1353.78 L1298.1 1347.35 L1306.11 1348.16 L1314.13 1349.16 L1322.15 1351.02 L1330.17 1351.05 L1338.19 1342.66 L1346.21 1345.32 L1354.22 1344.36 L1362.24 1343.41 L1370.26 1343.61 L1378.28 1350.63 L1386.3 1351.47 L1394.32 1341.59 L1402.33 1345.35 L1410.35 1347.86 L1418.37 1353.33 L1426.39 1344.93 L1434.41 1347.42 L1442.43 1353.72 L1450.45 1342.67 L1458.46 1340.67 L1466.48 1348.08 L1474.5 1352.12 L1482.52 1349.33 L1490.54 1346.01 L1498.56 1344.22 L1506.57 1342.52 L1514.59 1350.16 L1522.61 1349.26 L1530.63 1348 L1538.65 1352.28 L1546.67 1346.14 L1554.68 1354.64 L1562.7 1343 L1570.72 1344.72 L1578.74 1351.06 L1586.76 1356.27 L1594.78 1338.98 L1602.79 1347.35 L1610.81 1349.47 L1618.83 1336.33 L1626.85 1338.89 L1634.87 1342.2 L1642.89 1346.22 L1650.91 1341.56 L1658.92 1351.4 L1666.94 1344.6 L1674.96 1341.57 L1682.98 1347.48 L1691 1341.17 L1699.02 1344.56 L1707.03 1339.03 L1715.05 1337.91 L1723.07 1343.48 L1731.09 1328.32 L1739.11 1339.83 L1747.13 1333.71 L1755.14 1336.51 L1763.16 1343.96 L1771.18 1344.77 L1779.2 1344.07 L1787.22 1344.91 L1795.24 1337.94 L1803.25 1334.88 L1811.27 1338.61 L1819.29 1335.06 L1827.31 1340.91 L1835.33 1343.56 L1843.35 1353.57 L1851.37 1335.22 L1859.38 1341.51 L1867.4 1338.85 L1875.42 1345.24 L1883.44 1341.46 L1891.46 1350.77 L1899.48 1338.84 L1907.49 1347.09 L1915.51 1351.25 L1923.53 1339.42 L1931.55 1339.97 L1939.57 1339 L1947.59 1335.14 L1955.6 1345.23 L1963.62 1349.66 L1971.64 1346.27 L1979.66 1350.89 L1987.68 1350.92 L1995.7 1342.26 L2003.71 1340.44 L2011.73 1347.95 L2019.75 1342.23 L2027.77 1349.12 L2035.79 1343.59 L2043.81 1340.7 L2051.83 1331.19 L2059.84 1347.02 L2067.86 1345.07 L2075.88 1346.74 L2083.9 1343.05 L2091.92 1345.43 L2099.94 1342.46 L2107.95 1349.25 L2115.97 1336.89 L2123.99 1342.91 L2132.01 1331.44 L2140.03 1338.83 L2148.05 1338.28 L2156.06 1335.02 L2164.08 1344.94 L2172.1 1348.83 L2180.12 1347.78 L2188.14 1344.93 L2196.16 1347.99 L2204.17 1345.11 L2212.19 1341.52 L2220.21 1351.96 L2228.23 1349.34 L2236.25 1347.47 L2244.27 1333.78 L2252.29 1344.39 L2260.3 1353.34 L2268.32 1349.48 L2276.34 1348.01 L2284.36 1350.17 L2292.38 1352.66 L2292.38 1111.53 L2284.36 1134.13 L2276.34 1121.91 L2268.32 1116.46 L2260.3 1111.47 L2252.29 1125.62 L2244.27 1113.62 L2236.25 1119.96 L2228.23 1117.23 L2220.21 1121.75 L2212.19 1116.46 L2204.17 1118.84 L2196.16 1120.52 L2188.14 1109.72 L2180.12 1116.5 L2172.1 1129.42 L2164.08 1117.44 L2156.06 1116.77 L2148.05 1114.3 L2140.03 1125.89 L2132.01 1129.13 L2123.99 1124.71 L2115.97 1115.75 L2107.95 1123.77 L2099.94 1114.88 L2091.92 1121.33 L2083.9 1120.32 L2075.88 1120.16 L2067.86 1124.3 L2059.84 1130.06 L2051.83 1117.28 L2043.81 1113.76 L2035.79 1115.17 L2027.77 1113.93 L2019.75 1112.58 L2011.73 1112.78 L2003.71 1115.64 L1995.7 1112.6 L1987.68 1123.47 L1979.66 1117.43 L1971.64 1115.56 L1963.62 1120.88 L1955.6 1116.4 L1947.59 1128.25 L1939.57 1099.83 L1931.55 1108.48 L1923.53 1109.06 L1915.51 1112.65 L1907.49 1107.29 L1899.48 1112.66 L1891.46 1107.5 L1883.44 1107.07 L1875.42 1105.54 L1867.4 1107.42 L1859.38 1120.44 L1851.37 1117.29 L1843.35 1110.49 L1835.33 1111.6 L1827.31 1127.48 L1819.29 1120.43 L1811.27 1110.55 L1803.25 1116.14 L1795.24 1125.08 L1787.22 1114.07 L1779.2 1126.87 L1771.18 1122.01 L1763.16 1128.84 L1755.14 1125.68 L1747.13 1120.57 L1739.11 1126.52 L1731.09 1126.16 L1723.07 1122.57 L1715.05 1123.99 L1707.03 1117.11 L1699.02 1118.31 L1691 1115.48 L1682.98 1111.66 L1674.96 1112.5 L1666.94 1117.48 L1658.92 1117.03 L1650.91 1115.06 L1642.89 1106.14 L1634.87 1112.15 L1626.85 1119.59 L1618.83 1127.96 L1610.81 1120.11 L1602.79 1109.95 L1594.78 1117.27 L1586.76 1124.58 L1578.74 1117.47 L1570.72 1105.87 L1562.7 1110.83 L1554.68 1114.95 L1546.67 1118.96 L1538.65 1114.06 L1530.63 1112.57 L1522.61 1117.73 L1514.59 1115.72 L1506.57 1119.37 L1498.56 1108.12 L1490.54 1103.24 L1482.52 1105.79 L1474.5 1111.63 L1466.48 1121.69 L1458.46 1114.94 L1450.45 1119.12 L1442.43 1118.89 L1434.41 1126.41 L1426.39 1119.32 L1418.37 1119.59 L1410.35 1118.33 L1402.33 1115.76 L1394.32 1118.17 L1386.3 1116.47 L1378.28 1119.25 L1370.26 1105.53 L1362.24 1121.3 L1354.22 1124.82 L1346.21 1121.92 L1338.19 1115.47 L1330.17 1112.85 L1322.15 1105.68 L1314.13 1124.75 L1306.11 1108.73 L1298.1 1121.18 L1290.08 1114.73 L1282.06 1115.72 L1274.04 1117.66 L1266.02 1112.01 L1258 1104.42 L1249.99 1110.22 L1241.97 1108.44 L1233.95 1125.29 L1225.93 1110.08 L1217.91 1120.45 L1209.89 1124.44 L1201.87 1120.83 L1193.86 1125.82 L1185.84 1119.21 L1177.82 1112.27 L1169.8 1112.72 L1161.78 1114.86 L1153.76 1116.74 L1145.75 1125.62 L1137.73 1109.75 L1129.71 1111.61 L1121.69 1116.25 L1113.67 1116.79 L1105.65 1114.37 L1097.64 1108.15 L1089.62 1113.65 L1081.6 1112.02 L1073.58 1107.28 L1065.56 1096.64 L1057.54 1103.01 L1049.53 1108.6 L1041.51 1107.86 L1033.49 1106.85 L1025.47 1104.96 L1017.45 1107.23 L1009.43 1112.51 L1001.41 1108.43 L993.396 1109.31 L985.378 1112.98 L977.36 1105.13 L969.341 1114.82 L961.323 1115.45 L953.304 1100.29 L945.286 1117.01 L937.268 1112.48 L929.249 1114.86 L921.231 1117.66 L913.212 1110.6 L905.194 1103.96 L897.176 1098.49 L889.157 1110.97 L881.139 1109.23 L873.12 1103.26 L865.102 1093.17 L857.084 1096 L849.065 1102.16 L841.047 1104.85 L833.028 1094.05 L825.01 1107.19 L816.992 1102.02 L808.973 1095.88 L800.955 1104.21 L792.936 1089.99 L784.918 1093.35 L776.9 1088.9 L768.881 1080.27 L760.863 1083.7 L752.844 1088.49 L744.826 1097.14 L736.808 1082.63 L728.789 1084.66 L720.771 1078.69 L712.752 1091.43 L704.734 1075.08 L696.716 1079.93 L688.697 1078.89 L680.679 1082.78 L672.66 1083.74 L664.642 1068.37 L656.624 1067.44 L648.605 1066.91 L640.587 1061.35 L632.568 1064 L624.55 1061.6 L616.532 1049.33 L608.513 1044.16 L600.495 1045.71 L592.476 1042.35 L584.458 1028.1 L576.44 1031.74 L568.421 1029.89 L560.403 1016.15 L552.384 1009.86 L544.366 1004.28 L536.348 996.498 L528.329 991.329 L520.311 982.04 L512.292 981.355 L504.274 969.146 L496.256 955.167 L488.237 945.583 L480.219 927.036 L472.2 917.17 L464.182 909.853 L456.164 899.52 L448.145 869.26 L440.127 870.249 L432.108 848.958 L424.09 825.506 L416.072 813.033 L408.053 802.744 L400.035 777.631 L392.016 762.292 L383.998 735.831 L375.98 699.066 L367.961 680.868 L359.943 647.42 L351.924 621.777 L343.906 578.488 L335.888 542.339 L327.869 503.425 L319.851 466.06 L311.832 411.797 L303.814 360.05 L295.796 298.781 L287.777 232.436 L279.759 139.268  Z" fill="#000080" fill-rule="evenodd" fill-opacity="0.2"/>
<polyline clip-path="url(#clip702)" style="stroke:#000080; stroke-linecap:round; stroke-linejoin:round; stroke-width:4; stroke-opacity:0.2; fill:none" points="279.759,349.255 287.777,456.517 295.796,525.487 303.814,587.441 311.832,634.126 319.851,703.156 327.869,750.147 335.888,793.784 343.906,832.344 351.924,864.18 359.943,899.572 367.961,926.534 375.98,957.718 383.998,991.16 392.016,1010.28 400.035,1040.21 408.053,1060.45 416.072,1088.61 424.09,1092.66 432.108,1112.26 440.127,1125.03 448.145,1135.24 456.164,1171.16 464.182,1178.72 472.2,1192.16 480.219,1187.13 488.237,1195.91 496.256,1221.6 504.274,1215.31 512.292,1232.23 520.311,1235.07 528.329,1252.32 536.348,1260.34 544.366,1259.69 552.384,1273.7 560.403,1275.44 568.421,1282.08 576.44,1281.04 584.458,1287.24 592.476,1292.07 600.495,1291.5 608.513,1301.09 616.532,1293.74 624.55,1307.01 632.568,1314.27 640.587,1320.05 648.605,1311.28 656.624,1321.07 664.642,1313.9 672.66,1316.61 680.679,1324.08 688.697,1326.55 696.716,1323.21 704.734,1333.3 712.752,1334.71 720.771,1321.57 728.789,1328.26 736.808,1338.29 744.826,1336.89 752.844,1333.38 760.863,1332.38 768.881,1332.74 776.9,1335.14 784.918,1331.38 792.936,1342.82 800.955,1338.16 808.973,1344.65 816.992,1342.41 825.01,1344.77 833.028,1348.66 841.047,1341.35 849.065,1342.69 857.084,1350.23 865.102,1344.84 873.12,1354.77 881.139,1342.54 889.157,1348.8 897.176,1345.34 905.194,1342.44 913.212,1349.83 921.231,1346.13 929.249,1344.53 937.268,1344.43 945.286,1348.46 953.304,1352.6 961.323,1355.39 969.341,1346.95 977.36,1351.57 985.378,1355.93 993.396,1347.49 1001.41,1343.21 1009.43,1350 1017.45,1356.61 1025.47,1343.08 1033.49,1355.02 1041.51,1345.65 1049.53,1348.31 1057.54,1339.83 1065.56,1352.83 1073.58,1342.22 1081.6,1353.59 1089.62,1355.9 1097.64,1344.62 1105.65,1349.58 1113.67,1339.65 1121.69,1345.53 1129.71,1346.77 1137.73,1344.61 1145.75,1351.97 1153.76,1348.16 1161.78,1350.4 1169.8,1348.23 1177.82,1351.9 1185.84,1361.82 1193.86,1347.47 1201.87,1345.38 1209.89,1354.7 1217.91,1341.21 1225.93,1354.67 1233.95,1357.96 1241.97,1346.7 1249.99,1341.09 1258,1349.54 1266.02,1342.52 1274.04,1347.25 1282.06,1349.49 1290.08,1353.78 1298.1,1347.35 1306.11,1348.16 1314.13,1349.16 1322.15,1351.02 1330.17,1351.05 1338.19,1342.66 1346.21,1345.32 1354.22,1344.36 1362.24,1343.41 1370.26,1343.61 1378.28,1350.63 1386.3,1351.47 1394.32,1341.59 1402.33,1345.35 1410.35,1347.86 1418.37,1353.33 1426.39,1344.93 1434.41,1347.42 1442.43,1353.72 1450.45,1342.67 1458.46,1340.67 1466.48,1348.08 1474.5,1352.12 1482.52,1349.33 1490.54,1346.01 1498.56,1344.22 1506.57,1342.52 1514.59,1350.16 1522.61,1349.26 1530.63,1348 1538.65,1352.28 1546.67,1346.14 1554.68,1354.64 1562.7,1343 1570.72,1344.72 1578.74,1351.06 1586.76,1356.27 1594.78,1338.98 1602.79,1347.35 1610.81,1349.47 1618.83,1336.33 1626.85,1338.89 1634.87,1342.2 1642.89,1346.22 1650.91,1341.56 1658.92,1351.4 1666.94,1344.6 1674.96,1341.57 1682.98,1347.48 1691,1341.17 1699.02,1344.56 1707.03,1339.03 1715.05,1337.91 1723.07,1343.48 1731.09,1328.32 1739.11,1339.83 1747.13,1333.71 1755.14,1336.51 1763.16,1343.96 1771.18,1344.77 1779.2,1344.07 1787.22,1344.91 1795.24,1337.94 1803.25,1334.88 1811.27,1338.61 1819.29,1335.06 1827.31,1340.91 1835.33,1343.56 1843.35,1353.57 1851.37,1335.22 1859.38,1341.51 1867.4,1338.85 1875.42,1345.24 1883.44,1341.46 1891.46,1350.77 1899.48,1338.84 1907.49,1347.09 1915.51,1351.25 1923.53,1339.42 1931.55,1339.97 1939.57,1339 1947.59,1335.14 1955.6,1345.23 1963.62,1349.66 1971.64,1346.27 1979.66,1350.89 1987.68,1350.92 1995.7,1342.26 2003.71,1340.44 2011.73,1347.95 2019.75,1342.23 2027.77,1349.12 2035.79,1343.59 2043.81,1340.7 2051.83,1331.19 2059.84,1347.02 2067.86,1345.07 2075.88,1346.74 2083.9,1343.05 2091.92,1345.43 2099.94,1342.46 2107.95,1349.25 2115.97,1336.89 2123.99,1342.91 2132.01,1331.44 2140.03,1338.83 2148.05,1338.28 2156.06,1335.02 2164.08,1344.94 2172.1,1348.83 2180.12,1347.78 2188.14,1344.93 2196.16,1347.99 2204.17,1345.11 2212.19,1341.52 2220.21,1351.96 2228.23,1349.34 2236.25,1347.47 2244.27,1333.78 2252.29,1344.39 2260.3,1353.34 2268.32,1349.48 2276.34,1348.01 2284.36,1350.17 2292.38,1352.66 "/>
<path clip-path="url(#clip700)" d="M1649.44 353.276 L2281.64 353.276 L2281.64 145.916 L1649.44 145.916  Z" fill="#ffffff" fill-rule="evenodd" fill-opacity="1"/>
<polyline clip-path="url(#clip700)" style="stroke:#000000; stroke-linecap:round; stroke-linejoin:round; stroke-width:4; stroke-opacity:1; fill:none" points="1649.44,353.276 2281.64,353.276 2281.64,145.916 1649.44,145.916 1649.44,353.276 "/>
<polyline clip-path="url(#clip700)" style="stroke:#ff0000; stroke-linecap:round; stroke-linejoin:round; stroke-width:8; stroke-opacity:1; fill:none" stroke-dasharray="32, 20" points="1673.15,197.756 1815.37,197.756 "/>
<path clip-path="url(#clip700)" d="M1855.09 183.647 Q1850 183.647 1846.99 187.443 Q1844.01 191.24 1844.01 197.79 Q1844.01 204.318 1846.99 208.114 Q1850 211.911 1855.09 211.911 Q1860.19 211.911 1863.15 208.114 Q1866.14 204.318 1866.14 197.79 Q1866.14 191.24 1863.15 187.443 Q1860.19 183.647 1855.09 183.647 M1855.09 179.851 Q1862.36 179.851 1866.71 184.735 Q1871.07 189.596 1871.07 197.79 Q1871.07 205.962 1866.71 210.846 Q1862.36 215.707 1855.09 215.707 Q1847.8 215.707 1843.43 210.846 Q1839.08 205.985 1839.08 197.79 Q1839.08 189.596 1843.43 184.735 Q1847.8 179.851 1855.09 179.851 Z" fill="#000000" fill-rule="nonzero" fill-opacity="1" /><path clip-path="url(#clip700)" d="M1896.81 202.096 Q1896.81 197.397 1894.86 194.735 Q1892.94 192.05 1889.56 192.05 Q1886.18 192.05 1884.24 194.735 Q1882.32 197.397 1882.32 202.096 Q1882.32 206.795 1884.24 209.48 Q1886.18 212.142 1889.56 212.142 Q1892.94 212.142 1894.86 209.48 Q1896.81 206.795 1896.81 202.096 M1882.32 193.045 Q1883.66 190.73 1885.7 189.619 Q1887.76 188.485 1890.6 188.485 Q1895.33 188.485 1898.27 192.235 Q1901.23 195.985 1901.23 202.096 Q1901.23 208.207 1898.27 211.957 Q1895.33 215.707 1890.6 215.707 Q1887.76 215.707 1885.7 214.596 Q1883.66 213.462 1882.32 211.147 L1882.32 215.036 L1878.03 215.036 L1878.03 179.017 L1882.32 179.017 L1882.32 193.045 Z" fill="#000000" fill-rule="nonzero" fill-opacity="1" /><path clip-path="url(#clip700)" d="M1924.82 189.874 L1924.82 193.902 Q1923.01 192.976 1921.07 192.513 Q1919.12 192.05 1917.04 192.05 Q1913.87 192.05 1912.27 193.022 Q1910.7 193.994 1910.7 195.939 Q1910.7 197.42 1911.83 198.277 Q1912.96 199.11 1916.39 199.874 L1917.85 200.198 Q1922.39 201.17 1924.28 202.952 Q1926.2 204.712 1926.2 207.883 Q1926.2 211.494 1923.33 213.601 Q1920.49 215.707 1915.49 215.707 Q1913.4 215.707 1911.14 215.29 Q1908.89 214.897 1906.39 214.087 L1906.39 209.689 Q1908.75 210.915 1911.04 211.54 Q1913.33 212.142 1915.58 212.142 Q1918.59 212.142 1920.21 211.124 Q1921.83 210.082 1921.83 208.207 Q1921.83 206.471 1920.65 205.545 Q1919.49 204.619 1915.53 203.763 L1914.05 203.415 Q1910.09 202.582 1908.33 200.869 Q1906.58 199.133 1906.58 196.124 Q1906.58 192.466 1909.17 190.476 Q1911.76 188.485 1916.53 188.485 Q1918.89 188.485 1920.97 188.832 Q1923.06 189.179 1924.82 189.874 Z" fill="#000000" fill-rule="nonzero" fill-opacity="1" /><path clip-path="url(#clip700)" d="M1955.16 201.008 L1955.16 203.091 L1935.58 203.091 Q1935.86 207.489 1938.22 209.804 Q1940.6 212.096 1944.84 212.096 Q1947.29 212.096 1949.58 211.494 Q1951.9 210.892 1954.17 209.689 L1954.17 213.716 Q1951.88 214.688 1949.47 215.198 Q1947.06 215.707 1944.58 215.707 Q1938.38 215.707 1934.75 212.096 Q1931.14 208.485 1931.14 202.327 Q1931.14 195.962 1934.56 192.235 Q1938.01 188.485 1943.84 188.485 Q1949.08 188.485 1952.11 191.865 Q1955.16 195.221 1955.16 201.008 M1950.9 199.758 Q1950.86 196.263 1948.94 194.179 Q1947.04 192.096 1943.89 192.096 Q1940.33 192.096 1938.17 194.11 Q1936.04 196.124 1935.72 199.781 L1950.9 199.758 Z" fill="#000000" fill-rule="nonzero" fill-opacity="1" /><path clip-path="url(#clip700)" d="M1977.18 193.091 Q1976.46 192.675 1975.6 192.49 Q1974.77 192.281 1973.75 192.281 Q1970.14 192.281 1968.2 194.642 Q1966.27 196.98 1966.27 201.378 L1966.27 215.036 L1961.99 215.036 L1961.99 189.11 L1966.27 189.11 L1966.27 193.138 Q1967.62 190.777 1969.77 189.642 Q1971.92 188.485 1975 188.485 Q1975.44 188.485 1975.97 188.554 Q1976.51 188.601 1977.15 188.716 L1977.18 193.091 Z" fill="#000000" fill-rule="nonzero" fill-opacity="1" /><path clip-path="url(#clip700)" d="M1978.59 189.11 L1983.1 189.11 L1991.2 210.869 L1999.31 189.11 L2003.82 189.11 L1994.1 215.036 L1988.31 215.036 L1978.59 189.11 Z" fill="#000000" fill-rule="nonzero" fill-opacity="1" /><path clip-path="url(#clip700)" d="M2031.88 201.008 L2031.88 203.091 L2012.29 203.091 Q2012.57 207.489 2014.93 209.804 Q2017.32 212.096 2021.55 212.096 Q2024.01 212.096 2026.3 211.494 Q2028.61 210.892 2030.88 209.689 L2030.88 213.716 Q2028.59 214.688 2026.18 215.198 Q2023.77 215.707 2021.3 215.707 Q2015.09 215.707 2011.46 212.096 Q2007.85 208.485 2007.85 202.327 Q2007.85 195.962 2011.27 192.235 Q2014.72 188.485 2020.56 188.485 Q2025.79 188.485 2028.82 191.865 Q2031.88 195.221 2031.88 201.008 M2027.62 199.758 Q2027.57 196.263 2025.65 194.179 Q2023.75 192.096 2020.6 192.096 Q2017.04 192.096 2014.88 194.11 Q2012.76 196.124 2012.43 199.781 L2027.62 199.758 Z" fill="#000000" fill-rule="nonzero" fill-opacity="1" /><path clip-path="url(#clip700)" d="M2055.93 193.045 L2055.93 179.017 L2060.19 179.017 L2060.19 215.036 L2055.93 215.036 L2055.93 211.147 Q2054.58 213.462 2052.52 214.596 Q2050.49 215.707 2047.62 215.707 Q2042.92 215.707 2039.95 211.957 Q2037.01 208.207 2037.01 202.096 Q2037.01 195.985 2039.95 192.235 Q2042.92 188.485 2047.62 188.485 Q2050.49 188.485 2052.52 189.619 Q2054.58 190.73 2055.93 193.045 M2041.41 202.096 Q2041.41 206.795 2043.33 209.48 Q2045.28 212.142 2048.66 212.142 Q2052.04 212.142 2053.98 209.48 Q2055.93 206.795 2055.93 202.096 Q2055.93 197.397 2053.98 194.735 Q2052.04 192.05 2048.66 192.05 Q2045.28 192.05 2043.33 194.735 Q2041.41 197.397 2041.41 202.096 Z" fill="#000000" fill-rule="nonzero" fill-opacity="1" /><polyline clip-path="url(#clip700)" style="stroke:#000080; stroke-linecap:round; stroke-linejoin:round; stroke-width:8; stroke-opacity:1; fill:none" points="1673.15,249.596 1815.37,249.596 "/>
<path clip-path="url(#clip700)" d="M1861.32 233.45 L1861.32 238.01 Q1858.66 236.737 1856.3 236.112 Q1853.94 235.487 1851.74 235.487 Q1847.92 235.487 1845.83 236.968 Q1843.77 238.45 1843.77 241.181 Q1843.77 243.473 1845.14 244.654 Q1846.53 245.811 1850.37 246.529 L1853.2 247.107 Q1858.43 248.103 1860.9 250.626 Q1863.4 253.126 1863.4 257.339 Q1863.4 262.362 1860.02 264.954 Q1856.67 267.547 1850.16 267.547 Q1847.71 267.547 1844.93 266.991 Q1842.18 266.436 1839.21 265.348 L1839.21 260.533 Q1842.06 262.13 1844.79 262.941 Q1847.52 263.751 1850.16 263.751 Q1854.17 263.751 1856.34 262.177 Q1858.52 260.603 1858.52 257.686 Q1858.52 255.14 1856.95 253.704 Q1855.4 252.269 1851.83 251.552 L1848.98 250.996 Q1843.75 249.955 1841.41 247.732 Q1839.08 245.51 1839.08 241.552 Q1839.08 236.968 1842.29 234.33 Q1845.53 231.691 1851.21 231.691 Q1853.64 231.691 1856.16 232.131 Q1858.68 232.57 1861.32 233.45 Z" fill="#000000" fill-rule="nonzero" fill-opacity="1" /><path clip-path="url(#clip700)" d="M1870.51 240.95 L1874.77 240.95 L1874.77 266.876 L1870.51 266.876 L1870.51 240.95 M1870.51 230.857 L1874.77 230.857 L1874.77 236.251 L1870.51 236.251 L1870.51 230.857 Z" fill="#000000" fill-rule="nonzero" fill-opacity="1" /><path clip-path="url(#clip700)" d="M1903.87 245.927 Q1905.46 243.056 1907.69 241.691 Q1909.91 240.325 1912.92 240.325 Q1916.97 240.325 1919.17 243.172 Q1921.37 245.996 1921.37 251.228 L1921.37 266.876 L1917.08 266.876 L1917.08 251.367 Q1917.08 247.64 1915.77 245.834 Q1914.45 244.029 1911.74 244.029 Q1908.43 244.029 1906.51 246.228 Q1904.58 248.427 1904.58 252.223 L1904.58 266.876 L1900.3 266.876 L1900.3 251.367 Q1900.3 247.617 1898.98 245.834 Q1897.66 244.029 1894.91 244.029 Q1891.64 244.029 1889.72 246.251 Q1887.8 248.45 1887.8 252.223 L1887.8 266.876 L1883.52 266.876 L1883.52 240.95 L1887.8 240.95 L1887.8 244.978 Q1889.26 242.593 1891.3 241.459 Q1893.33 240.325 1896.14 240.325 Q1898.96 240.325 1900.93 241.76 Q1902.92 243.195 1903.87 245.927 Z" fill="#000000" fill-rule="nonzero" fill-opacity="1" /><path clip-path="url(#clip700)" d="M1929.42 256.644 L1929.42 240.95 L1933.68 240.95 L1933.68 256.482 Q1933.68 260.163 1935.12 262.015 Q1936.55 263.843 1939.42 263.843 Q1942.87 263.843 1944.86 261.644 Q1946.88 259.445 1946.88 255.649 L1946.88 240.95 L1951.14 240.95 L1951.14 266.876 L1946.88 266.876 L1946.88 262.894 Q1945.33 265.255 1943.26 266.413 Q1941.23 267.547 1938.52 267.547 Q1934.05 267.547 1931.74 264.769 Q1929.42 261.991 1929.42 256.644 M1940.14 240.325 L1940.14 240.325 Z" fill="#000000" fill-rule="nonzero" fill-opacity="1" /><path clip-path="url(#clip700)" d="M1959.91 230.857 L1964.17 230.857 L1964.17 266.876 L1959.91 266.876 L1959.91 230.857 Z" fill="#000000" fill-rule="nonzero" fill-opacity="1" /><path clip-path="url(#clip700)" d="M1984.86 253.843 Q1979.7 253.843 1977.71 255.024 Q1975.72 256.204 1975.72 259.052 Q1975.72 261.32 1977.2 262.663 Q1978.7 263.982 1981.27 263.982 Q1984.82 263.982 1986.95 261.482 Q1989.1 258.959 1989.1 254.792 L1989.1 253.843 L1984.86 253.843 M1993.36 252.084 L1993.36 266.876 L1989.1 266.876 L1989.1 262.941 Q1987.64 265.302 1985.46 266.436 Q1983.29 267.547 1980.14 267.547 Q1976.16 267.547 1973.8 265.325 Q1971.46 263.079 1971.46 259.329 Q1971.46 254.954 1974.38 252.732 Q1977.32 250.51 1983.13 250.51 L1989.1 250.51 L1989.1 250.093 Q1989.1 247.154 1987.15 245.556 Q1985.23 243.936 1981.74 243.936 Q1979.51 243.936 1977.41 244.468 Q1975.3 245.001 1973.36 246.066 L1973.36 242.13 Q1975.7 241.228 1977.89 240.788 Q1980.09 240.325 1982.18 240.325 Q1987.8 240.325 1990.58 243.242 Q1993.36 246.158 1993.36 252.084 Z" fill="#000000" fill-rule="nonzero" fill-opacity="1" /><path clip-path="url(#clip700)" d="M2006.34 233.589 L2006.34 240.95 L2015.12 240.95 L2015.12 244.26 L2006.34 244.26 L2006.34 258.334 Q2006.34 261.505 2007.2 262.408 Q2008.08 263.311 2010.74 263.311 L2015.12 263.311 L2015.12 266.876 L2010.74 266.876 Q2005.81 266.876 2003.94 265.047 Q2002.06 263.195 2002.06 258.334 L2002.06 244.26 L1998.94 244.26 L1998.94 240.95 L2002.06 240.95 L2002.06 233.589 L2006.34 233.589 Z" fill="#000000" fill-rule="nonzero" fill-opacity="1" /><path clip-path="url(#clip700)" d="M2042.89 252.848 L2042.89 254.931 L2023.31 254.931 Q2023.59 259.329 2025.95 261.644 Q2028.33 263.936 2032.57 263.936 Q2035.02 263.936 2037.32 263.334 Q2039.63 262.732 2041.9 261.529 L2041.9 265.556 Q2039.61 266.528 2037.2 267.038 Q2034.79 267.547 2032.32 267.547 Q2026.11 267.547 2022.48 263.936 Q2018.87 260.325 2018.87 254.167 Q2018.87 247.802 2022.29 244.075 Q2025.74 240.325 2031.57 240.325 Q2036.81 240.325 2039.84 243.705 Q2042.89 247.061 2042.89 252.848 M2038.63 251.598 Q2038.59 248.103 2036.67 246.019 Q2034.77 243.936 2031.62 243.936 Q2028.06 243.936 2025.9 245.95 Q2023.77 247.964 2023.45 251.621 L2038.63 251.598 Z" fill="#000000" fill-rule="nonzero" fill-opacity="1" /><path clip-path="url(#clip700)" d="M2066.94 244.885 L2066.94 230.857 L2071.2 230.857 L2071.2 266.876 L2066.94 266.876 L2066.94 262.987 Q2065.6 265.302 2063.54 266.436 Q2061.51 267.547 2058.63 267.547 Q2053.94 267.547 2050.97 263.797 Q2048.03 260.047 2048.03 253.936 Q2048.03 247.825 2050.97 244.075 Q2053.94 240.325 2058.63 240.325 Q2061.51 240.325 2063.54 241.459 Q2065.6 242.57 2066.94 244.885 M2052.43 253.936 Q2052.43 258.635 2054.35 261.32 Q2056.3 263.982 2059.68 263.982 Q2063.06 263.982 2065 261.32 Q2066.94 258.635 2066.94 253.936 Q2066.94 249.237 2065 246.575 Q2063.06 243.89 2059.68 243.89 Q2056.3 243.89 2054.35 246.575 Q2052.43 249.237 2052.43 253.936 Z" fill="#000000" fill-rule="nonzero" fill-opacity="1" /><path clip-path="url(#clip700)" d="M2105.28 230.904 Q2102.18 236.228 2100.67 241.436 Q2099.17 246.644 2099.17 251.992 Q2099.17 257.339 2100.67 262.593 Q2102.2 267.825 2105.28 273.126 L2101.57 273.126 Q2098.1 267.686 2096.37 262.431 Q2094.65 257.177 2094.65 251.992 Q2094.65 246.83 2096.37 241.598 Q2098.08 236.367 2101.57 230.904 L2105.28 230.904 Z" fill="#000000" fill-rule="nonzero" fill-opacity="1" /><path clip-path="url(#clip700)" d="M2133.73 245.927 Q2135.32 243.056 2137.55 241.691 Q2139.77 240.325 2142.78 240.325 Q2146.83 240.325 2149.03 243.172 Q2151.23 245.996 2151.23 251.228 L2151.23 266.876 L2146.94 266.876 L2146.94 251.367 Q2146.94 247.64 2145.62 245.834 Q2144.31 244.029 2141.6 244.029 Q2138.29 244.029 2136.37 246.228 Q2134.44 248.427 2134.44 252.223 L2134.44 266.876 L2130.16 266.876 L2130.16 251.367 Q2130.16 247.617 2128.84 245.834 Q2127.52 244.029 2124.77 244.029 Q2121.5 244.029 2119.58 246.251 Q2117.66 248.45 2117.66 252.223 L2117.66 266.876 L2113.38 266.876 L2113.38 240.95 L2117.66 240.95 L2117.66 244.978 Q2119.12 242.593 2121.16 241.459 Q2123.19 240.325 2126 240.325 Q2128.82 240.325 2130.79 241.76 Q2132.78 243.195 2133.73 245.927 Z" fill="#000000" fill-rule="nonzero" fill-opacity="1" /><path clip-path="url(#clip700)" d="M2181.9 252.848 L2181.9 254.931 L2162.31 254.931 Q2162.59 259.329 2164.95 261.644 Q2167.34 263.936 2171.57 263.936 Q2174.03 263.936 2176.32 263.334 Q2178.63 262.732 2180.9 261.529 L2180.9 265.556 Q2178.61 266.528 2176.2 267.038 Q2173.8 267.547 2171.32 267.547 Q2165.12 267.547 2161.48 263.936 Q2157.87 260.325 2157.87 254.167 Q2157.87 247.802 2161.3 244.075 Q2164.75 240.325 2170.58 240.325 Q2175.81 240.325 2178.84 243.705 Q2181.9 247.061 2181.9 252.848 M2177.64 251.598 Q2177.59 248.103 2175.67 246.019 Q2173.77 243.936 2170.62 243.936 Q2167.06 243.936 2164.91 245.95 Q2162.78 247.964 2162.45 251.621 L2177.64 251.598 Z" fill="#000000" fill-rule="nonzero" fill-opacity="1" /><path clip-path="url(#clip700)" d="M2200.67 253.843 Q2195.51 253.843 2193.52 255.024 Q2191.53 256.204 2191.53 259.052 Q2191.53 261.32 2193.01 262.663 Q2194.51 263.982 2197.08 263.982 Q2200.62 263.982 2202.75 261.482 Q2204.91 258.959 2204.91 254.792 L2204.91 253.843 L2200.67 253.843 M2209.17 252.084 L2209.17 266.876 L2204.91 266.876 L2204.91 262.941 Q2203.45 265.302 2201.27 266.436 Q2199.1 267.547 2195.95 267.547 Q2191.97 267.547 2189.61 265.325 Q2187.27 263.079 2187.27 259.329 Q2187.27 254.954 2190.18 252.732 Q2193.12 250.51 2198.93 250.51 L2204.91 250.51 L2204.91 250.093 Q2204.91 247.154 2202.96 245.556 Q2201.04 243.936 2197.55 243.936 Q2195.32 243.936 2193.22 244.468 Q2191.11 245.001 2189.17 246.066 L2189.17 242.13 Q2191.5 241.228 2193.7 240.788 Q2195.9 240.325 2197.99 240.325 Q2203.61 240.325 2206.39 243.242 Q2209.17 246.158 2209.17 252.084 Z" fill="#000000" fill-rule="nonzero" fill-opacity="1" /><path clip-path="url(#clip700)" d="M2239.49 251.228 L2239.49 266.876 L2235.23 266.876 L2235.23 251.367 Q2235.23 247.686 2233.8 245.857 Q2232.36 244.029 2229.49 244.029 Q2226.04 244.029 2224.05 246.228 Q2222.06 248.427 2222.06 252.223 L2222.06 266.876 L2217.78 266.876 L2217.78 240.95 L2222.06 240.95 L2222.06 244.978 Q2223.59 242.64 2225.65 241.482 Q2227.73 240.325 2230.44 240.325 Q2234.91 240.325 2237.2 243.103 Q2239.49 245.857 2239.49 251.228 Z" fill="#000000" fill-rule="nonzero" fill-opacity="1" /><path clip-path="url(#clip700)" d="M2247.31 230.904 L2251.02 230.904 Q2254.49 236.367 2256.2 241.598 Q2257.94 246.83 2257.94 251.992 Q2257.94 257.177 2256.2 262.431 Q2254.49 267.686 2251.02 273.126 L2247.31 273.126 Q2250.39 267.825 2251.9 262.593 Q2253.43 257.339 2253.43 251.992 Q2253.43 246.644 2251.9 241.436 Q2250.39 236.228 2247.31 230.904 Z" fill="#000000" fill-rule="nonzero" fill-opacity="1" /><path clip-path="url(#clip700)" d="M1673.15 322.172 L1815.37 322.172 L1815.37 280.7 L1673.15 280.7 L1673.15 322.172  Z" fill="#000080" fill-rule="evenodd" fill-opacity="0.2"/>
<polyline clip-path="url(#clip700)" style="stroke:#000080; stroke-linecap:round; stroke-linejoin:round; stroke-width:4; stroke-opacity:0.2; fill:none" points="1673.15,280.7 1815.37,280.7 "/>
<path clip-path="url(#clip700)" d="M1839.75 314.781 L1847.39 314.781 L1847.39 288.415 L1839.08 290.082 L1839.08 285.822 L1847.34 284.156 L1852.02 284.156 L1852.02 314.781 L1859.65 314.781 L1859.65 318.716 L1839.75 318.716 L1839.75 314.781 Z" fill="#000000" fill-rule="nonzero" fill-opacity="1" /><path clip-path="url(#clip700)" d="M1879.1 287.234 Q1875.49 287.234 1873.66 290.799 Q1871.85 294.341 1871.85 301.47 Q1871.85 308.577 1873.66 312.142 Q1875.49 315.683 1879.1 315.683 Q1882.73 315.683 1884.54 312.142 Q1886.37 308.577 1886.37 301.47 Q1886.37 294.341 1884.54 290.799 Q1882.73 287.234 1879.1 287.234 M1879.1 283.531 Q1884.91 283.531 1887.96 288.137 Q1891.04 292.72 1891.04 301.47 Q1891.04 310.197 1887.96 314.804 Q1884.91 319.387 1879.1 319.387 Q1873.29 319.387 1870.21 314.804 Q1867.15 310.197 1867.15 301.47 Q1867.15 292.72 1870.21 288.137 Q1873.29 283.531 1879.1 283.531 Z" fill="#000000" fill-rule="nonzero" fill-opacity="1" /><path clip-path="url(#clip700)" d="M1896.51 303.832 L1908.98 303.832 L1908.98 307.628 L1896.51 307.628 L1896.51 303.832 Z" fill="#000000" fill-rule="nonzero" fill-opacity="1" /><path clip-path="url(#clip700)" d="M1916.51 317.998 L1916.51 313.739 Q1918.27 314.572 1920.07 315.012 Q1921.88 315.452 1923.61 315.452 Q1928.24 315.452 1930.67 312.35 Q1933.13 309.225 1933.47 302.882 Q1932.13 304.873 1930.07 305.938 Q1928.01 307.003 1925.51 307.003 Q1920.33 307.003 1917.29 303.878 Q1914.28 300.73 1914.28 295.29 Q1914.28 289.966 1917.43 286.748 Q1920.58 283.531 1925.81 283.531 Q1931.81 283.531 1934.95 288.137 Q1938.13 292.72 1938.13 301.47 Q1938.13 309.642 1934.24 314.526 Q1930.37 319.387 1923.82 319.387 Q1922.06 319.387 1920.26 319.04 Q1918.45 318.693 1916.51 317.998 M1925.81 303.345 Q1928.96 303.345 1930.79 301.193 Q1932.64 299.04 1932.64 295.29 Q1932.64 291.563 1930.79 289.41 Q1928.96 287.234 1925.81 287.234 Q1922.66 287.234 1920.81 289.41 Q1918.98 291.563 1918.98 295.29 Q1918.98 299.04 1920.81 301.193 Q1922.66 303.345 1925.81 303.345 Z" fill="#000000" fill-rule="nonzero" fill-opacity="1" /><path clip-path="url(#clip700)" d="M1956.53 287.234 Q1952.92 287.234 1951.09 290.799 Q1949.28 294.341 1949.28 301.47 Q1949.28 308.577 1951.09 312.142 Q1952.92 315.683 1956.53 315.683 Q1960.16 315.683 1961.97 312.142 Q1963.8 308.577 1963.8 301.47 Q1963.8 294.341 1961.97 290.799 Q1960.16 287.234 1956.53 287.234 M1956.53 283.531 Q1962.34 283.531 1965.39 288.137 Q1968.47 292.72 1968.47 301.47 Q1968.47 310.197 1965.39 314.804 Q1962.34 319.387 1956.53 319.387 Q1950.72 319.387 1947.64 314.804 Q1944.58 310.197 1944.58 301.47 Q1944.58 292.72 1947.64 288.137 Q1950.72 283.531 1956.53 283.531 Z" fill="#000000" fill-rule="nonzero" fill-opacity="1" /><path clip-path="url(#clip700)" d="M1980.3 285.429 L1980.3 292.79 L1989.07 292.79 L1989.07 296.1 L1980.3 296.1 L1980.3 310.174 Q1980.3 313.345 1981.16 314.248 Q1982.04 315.151 1984.7 315.151 L1989.07 315.151 L1989.07 318.716 L1984.7 318.716 Q1979.77 318.716 1977.89 316.887 Q1976.02 315.035 1976.02 310.174 L1976.02 296.1 L1972.89 296.1 L1972.89 292.79 L1976.02 292.79 L1976.02 285.429 L1980.3 285.429 Z" fill="#000000" fill-rule="nonzero" fill-opacity="1" /><path clip-path="url(#clip700)" d="M2016.23 303.068 L2016.23 318.716 L2011.97 318.716 L2011.97 303.207 Q2011.97 299.526 2010.53 297.697 Q2009.1 295.869 2006.23 295.869 Q2002.78 295.869 2000.79 298.068 Q1998.8 300.267 1998.8 304.063 L1998.8 318.716 L1994.51 318.716 L1994.51 282.697 L1998.8 282.697 L1998.8 296.818 Q2000.32 294.48 2002.39 293.322 Q2004.47 292.165 2007.18 292.165 Q2011.64 292.165 2013.94 294.943 Q2016.23 297.697 2016.23 303.068 Z" fill="#000000" fill-rule="nonzero" fill-opacity="1" /><path clip-path="url(#clip700)" d="M2043.91 314.827 L2043.91 328.577 L2039.63 328.577 L2039.63 292.79 L2043.91 292.79 L2043.91 296.725 Q2045.26 294.41 2047.29 293.299 Q2049.35 292.165 2052.2 292.165 Q2056.92 292.165 2059.86 295.915 Q2062.82 299.665 2062.82 305.776 Q2062.82 311.887 2059.86 315.637 Q2056.92 319.387 2052.2 319.387 Q2049.35 319.387 2047.29 318.276 Q2045.26 317.142 2043.91 314.827 M2058.4 305.776 Q2058.4 301.077 2056.46 298.415 Q2054.54 295.73 2051.16 295.73 Q2047.78 295.73 2045.83 298.415 Q2043.91 301.077 2043.91 305.776 Q2043.91 310.475 2045.83 313.16 Q2047.78 315.822 2051.16 315.822 Q2054.54 315.822 2056.46 313.16 Q2058.4 310.475 2058.4 305.776 Z" fill="#000000" fill-rule="nonzero" fill-opacity="1" /><path clip-path="url(#clip700)" d="M2088.54 293.785 L2088.54 297.767 Q2086.74 296.771 2084.91 296.285 Q2083.1 295.776 2081.25 295.776 Q2077.11 295.776 2074.82 298.415 Q2072.52 301.031 2072.52 305.776 Q2072.52 310.521 2074.82 313.16 Q2077.11 315.776 2081.25 315.776 Q2083.1 315.776 2084.91 315.29 Q2086.74 314.781 2088.54 313.785 L2088.54 317.72 Q2086.76 318.554 2084.84 318.97 Q2082.94 319.387 2080.79 319.387 Q2074.93 319.387 2071.48 315.706 Q2068.03 312.026 2068.03 305.776 Q2068.03 299.433 2071.51 295.799 Q2075 292.165 2081.07 292.165 Q2083.03 292.165 2084.91 292.582 Q2086.78 292.975 2088.54 293.785 Z" fill="#000000" fill-rule="nonzero" fill-opacity="1" /><path clip-path="url(#clip700)" d="M2100.16 285.429 L2100.16 292.79 L2108.94 292.79 L2108.94 296.1 L2100.16 296.1 L2100.16 310.174 Q2100.16 313.345 2101.02 314.248 Q2101.9 315.151 2104.56 315.151 L2108.94 315.151 L2108.94 318.716 L2104.56 318.716 Q2099.63 318.716 2097.75 316.887 Q2095.88 315.035 2095.88 310.174 L2095.88 296.1 L2092.75 296.1 L2092.75 292.79 L2095.88 292.79 L2095.88 285.429 L2100.16 285.429 Z" fill="#000000" fill-rule="nonzero" fill-opacity="1" /><path clip-path="url(#clip700)" d="M2114.54 282.697 L2118.8 282.697 L2118.8 318.716 L2114.54 318.716 L2114.54 282.697 Z" fill="#000000" fill-rule="nonzero" fill-opacity="1" /></svg>
