<?xml version="1.0" encoding="utf-8"?>
<svg xmlns="http://www.w3.org/2000/svg" xmlns:xlink="http://www.w3.org/1999/xlink" width="600" height="400" viewBox="0 0 2400 1600">
<defs>
  <clipPath id="clip640">
    <rect x="0" y="0" width="2400" height="1600"/>
  </clipPath>
</defs>
<path clip-path="url(#clip640)" d="M0 1600 L2400 1600 L2400 8.88178e-14 L0 8.88178e-14  Z" fill="#ffffff" fill-rule="evenodd" fill-opacity="1"/>
<defs>
  <clipPath id="clip641">
    <rect x="202" y="106" width="2152" height="1318"/>
  </clipPath>
</defs>
<path clip-path="url(#clip640)" d="M249.542 1423.18 L2352.76 1423.18 L2352.76 106.192 L249.542 106.192  Z" fill="#ffffff" fill-rule="evenodd" fill-opacity="1"/>
<defs>
  <clipPath id="clip642">
    <rect x="249" y="106" width="2104" height="1318"/>
  </clipPath>
</defs>
<polyline clip-path="url(#clip642)" style="stroke:#000000; stroke-linecap:round; stroke-linejoin:round; stroke-width:2; stroke-opacity:0.1; fill:none" points="261.231,1423.18 261.231,106.192 "/>
<polyline clip-path="url(#clip642)" style="stroke:#000000; stroke-linecap:round; stroke-linejoin:round; stroke-width:2; stroke-opacity:0.1; fill:none" points="694.53,1423.18 694.53,106.192 "/>
<polyline clip-path="url(#clip642)" style="stroke:#000000; stroke-linecap:round; stroke-linejoin:round; stroke-width:2; stroke-opacity:0.1; fill:none" points="1127.83,1423.18 1127.83,106.192 "/>
<polyline clip-path="url(#clip642)" style="stroke:#000000; stroke-linecap:round; stroke-linejoin:round; stroke-width:2; stroke-opacity:0.1; fill:none" points="1561.13,1423.18 1561.13,106.192 "/>
<polyline clip-path="url(#clip642)" style="stroke:#000000; stroke-linecap:round; stroke-linejoin:round; stroke-width:2; stroke-opacity:0.1; fill:none" points="1994.43,1423.18 1994.43,106.192 "/>
<polyline clip-path="url(#clip642)" style="stroke:#000000; stroke-linecap:round; stroke-linejoin:round; stroke-width:2; stroke-opacity:0.1; fill:none" points="249.542,1423.18 2352.76,1423.18 "/>
<polyline clip-path="url(#clip642)" style="stroke:#000000; stroke-linecap:round; stroke-linejoin:round; stroke-width:2; stroke-opacity:0.1; fill:none" points="249.542,1106.81 2352.76,1106.81 "/>
<polyline clip-path="url(#clip642)" style="stroke:#000000; stroke-linecap:round; stroke-linejoin:round; stroke-width:2; stroke-opacity:0.1; fill:none" points="249.542,790.443 2352.76,790.443 "/>
<polyline clip-path="url(#clip642)" style="stroke:#000000; stroke-linecap:round; stroke-linejoin:round; stroke-width:2; stroke-opacity:0.1; fill:none" points="249.542,474.074 2352.76,474.074 "/>
<polyline clip-path="url(#clip642)" style="stroke:#000000; stroke-linecap:round; stroke-linejoin:round; stroke-width:2; stroke-opacity:0.1; fill:none" points="249.542,157.705 2352.76,157.705 "/>
<polyline clip-path="url(#clip640)" style="stroke:#000000; stroke-linecap:round; stroke-linejoin:round; stroke-width:4; stroke-opacity:1; fill:none" points="249.542,1423.18 2352.76,1423.18 "/>
<polyline clip-path="url(#clip640)" style="stroke:#000000; stroke-linecap:round; stroke-linejoin:round; stroke-width:4; stroke-opacity:1; fill:none" points="261.231,1423.18 261.231,1404.28 "/>
<polyline clip-path="url(#clip640)" style="stroke:#000000; stroke-linecap:round; stroke-linejoin:round; stroke-width:4; stroke-opacity:1; fill:none" points="694.53,1423.18 694.53,1404.28 "/>
<polyline clip-path="url(#clip640)" style="stroke:#000000; stroke-linecap:round; stroke-linejoin:round; stroke-width:4; stroke-opacity:1; fill:none" points="1127.83,1423.18 1127.83,1404.28 "/>
<polyline clip-path="url(#clip640)" style="stroke:#000000; stroke-linecap:round; stroke-linejoin:round; stroke-width:4; stroke-opacity:1; fill:none" points="1561.13,1423.18 1561.13,1404.28 "/>
<polyline clip-path="url(#clip640)" style="stroke:#000000; stroke-linecap:round; stroke-linejoin:round; stroke-width:4; stroke-opacity:1; fill:none" points="1994.43,1423.18 1994.43,1404.28 "/>
<path clip-path="url(#clip640)" d="M238.615 1454.1 Q235.004 1454.1 233.175 1457.66 Q231.37 1461.2 231.37 1468.33 Q231.37 1475.44 233.175 1479.01 Q235.004 1482.55 238.615 1482.55 Q242.249 1482.55 244.055 1479.01 Q245.884 1475.44 245.884 1468.33 Q245.884 1461.2 244.055 1457.66 Q242.249 1454.1 238.615 1454.1 M238.615 1450.39 Q244.425 1450.39 247.481 1455 Q250.559 1459.58 250.559 1468.33 Q250.559 1477.06 247.481 1481.67 Q244.425 1486.25 238.615 1486.25 Q232.805 1486.25 229.726 1481.67 Q226.671 1477.06 226.671 1468.33 Q226.671 1459.58 229.726 1455 Q232.805 1450.39 238.615 1450.39 Z" fill="#000000" fill-rule="nonzero" fill-opacity="1" /><path clip-path="url(#clip640)" d="M258.777 1479.7 L263.661 1479.7 L263.661 1485.58 L258.777 1485.58 L258.777 1479.7 Z" fill="#000000" fill-rule="nonzero" fill-opacity="1" /><path clip-path="url(#clip640)" d="M283.846 1454.1 Q280.235 1454.1 278.407 1457.66 Q276.601 1461.2 276.601 1468.33 Q276.601 1475.44 278.407 1479.01 Q280.235 1482.55 283.846 1482.55 Q287.481 1482.55 289.286 1479.01 Q291.115 1475.44 291.115 1468.33 Q291.115 1461.2 289.286 1457.66 Q287.481 1454.1 283.846 1454.1 M283.846 1450.39 Q289.656 1450.39 292.712 1455 Q295.791 1459.58 295.791 1468.33 Q295.791 1477.06 292.712 1481.67 Q289.656 1486.25 283.846 1486.25 Q278.036 1486.25 274.957 1481.67 Q271.902 1477.06 271.902 1468.33 Q271.902 1459.58 274.957 1455 Q278.036 1450.39 283.846 1450.39 Z" fill="#000000" fill-rule="nonzero" fill-opacity="1" /><path clip-path="url(#clip640)" d="M666.266 1481.64 L682.586 1481.64 L682.586 1485.58 L660.641 1485.58 L660.641 1481.64 Q663.303 1478.89 667.887 1474.26 Q672.493 1469.61 673.674 1468.27 Q675.919 1465.74 676.799 1464.01 Q677.701 1462.25 677.701 1460.56 Q677.701 1457.8 675.757 1456.07 Q673.836 1454.33 670.734 1454.33 Q668.535 1454.33 666.081 1455.09 Q663.651 1455.86 660.873 1457.41 L660.873 1452.69 Q663.697 1451.55 666.151 1450.97 Q668.604 1450.39 670.641 1450.39 Q676.012 1450.39 679.206 1453.08 Q682.4 1455.77 682.4 1460.26 Q682.4 1462.39 681.59 1464.31 Q680.803 1466.2 678.697 1468.8 Q678.118 1469.47 675.016 1472.69 Q671.914 1475.88 666.266 1481.64 Z" fill="#000000" fill-rule="nonzero" fill-opacity="1" /><path clip-path="url(#clip640)" d="M692.4 1479.7 L697.285 1479.7 L697.285 1485.58 L692.4 1485.58 L692.4 1479.7 Z" fill="#000000" fill-rule="nonzero" fill-opacity="1" /><path clip-path="url(#clip640)" d="M707.516 1451.02 L725.872 1451.02 L725.872 1454.96 L711.798 1454.96 L711.798 1463.43 Q712.817 1463.08 713.835 1462.92 Q714.854 1462.73 715.872 1462.73 Q721.659 1462.73 725.039 1465.9 Q728.419 1469.08 728.419 1474.49 Q728.419 1480.07 724.946 1483.17 Q721.474 1486.25 715.155 1486.25 Q712.979 1486.25 710.71 1485.88 Q708.465 1485.51 706.058 1484.77 L706.058 1480.07 Q708.141 1481.2 710.363 1481.76 Q712.585 1482.32 715.062 1482.32 Q719.067 1482.32 721.405 1480.21 Q723.743 1478.1 723.743 1474.49 Q723.743 1470.88 721.405 1468.77 Q719.067 1466.67 715.062 1466.67 Q713.187 1466.67 711.312 1467.08 Q709.46 1467.5 707.516 1468.38 L707.516 1451.02 Z" fill="#000000" fill-rule="nonzero" fill-opacity="1" /><path clip-path="url(#clip640)" d="M1094.99 1451.02 L1113.35 1451.02 L1113.35 1454.96 L1099.28 1454.96 L1099.28 1463.43 Q1100.29 1463.08 1101.31 1462.92 Q1102.33 1462.73 1103.35 1462.73 Q1109.14 1462.73 1112.52 1465.9 Q1115.9 1469.08 1115.9 1474.49 Q1115.9 1480.07 1112.42 1483.17 Q1108.95 1486.25 1102.63 1486.25 Q1100.46 1486.25 1098.19 1485.88 Q1095.94 1485.51 1093.54 1484.77 L1093.54 1480.07 Q1095.62 1481.2 1097.84 1481.76 Q1100.06 1482.32 1102.54 1482.32 Q1106.54 1482.32 1108.88 1480.21 Q1111.22 1478.1 1111.22 1474.49 Q1111.22 1470.88 1108.88 1468.77 Q1106.54 1466.67 1102.54 1466.67 Q1100.67 1466.67 1098.79 1467.08 Q1096.94 1467.5 1094.99 1468.38 L1094.99 1451.02 Z" fill="#000000" fill-rule="nonzero" fill-opacity="1" /><path clip-path="url(#clip640)" d="M1125.11 1479.7 L1129.99 1479.7 L1129.99 1485.58 L1125.11 1485.58 L1125.11 1479.7 Z" fill="#000000" fill-rule="nonzero" fill-opacity="1" /><path clip-path="url(#clip640)" d="M1150.18 1454.1 Q1146.57 1454.1 1144.74 1457.66 Q1142.93 1461.2 1142.93 1468.33 Q1142.93 1475.44 1144.74 1479.01 Q1146.57 1482.55 1150.18 1482.55 Q1153.81 1482.55 1155.62 1479.01 Q1157.45 1475.44 1157.45 1468.33 Q1157.45 1461.2 1155.62 1457.66 Q1153.81 1454.1 1150.18 1454.1 M1150.18 1450.39 Q1155.99 1450.39 1159.04 1455 Q1162.12 1459.58 1162.12 1468.33 Q1162.12 1477.06 1159.04 1481.67 Q1155.99 1486.25 1150.18 1486.25 Q1144.37 1486.25 1141.29 1481.67 Q1138.23 1477.06 1138.23 1468.33 Q1138.23 1459.58 1141.29 1455 Q1144.37 1450.39 1150.18 1450.39 Z" fill="#000000" fill-rule="nonzero" fill-opacity="1" /><path clip-path="url(#clip640)" d="M1527.45 1451.02 L1549.67 1451.02 L1549.67 1453.01 L1537.12 1485.58 L1532.24 1485.58 L1544.05 1454.96 L1527.45 1454.96 L1527.45 1451.02 Z" fill="#000000" fill-rule="nonzero" fill-opacity="1" /><path clip-path="url(#clip640)" d="M1558.79 1479.7 L1563.67 1479.7 L1563.67 1485.58 L1558.79 1485.58 L1558.79 1479.7 Z" fill="#000000" fill-rule="nonzero" fill-opacity="1" /><path clip-path="url(#clip640)" d="M1573.91 1451.02 L1592.26 1451.02 L1592.26 1454.96 L1578.19 1454.96 L1578.19 1463.43 Q1579.21 1463.08 1580.23 1462.92 Q1581.24 1462.73 1582.26 1462.73 Q1588.05 1462.73 1591.43 1465.9 Q1594.81 1469.08 1594.81 1474.49 Q1594.81 1480.07 1591.34 1483.17 Q1587.86 1486.25 1581.55 1486.25 Q1579.37 1486.25 1577.1 1485.88 Q1574.86 1485.51 1572.45 1484.77 L1572.45 1480.07 Q1574.53 1481.2 1576.75 1481.76 Q1578.98 1482.32 1581.45 1482.32 Q1585.46 1482.32 1587.8 1480.21 Q1590.13 1478.1 1590.13 1474.49 Q1590.13 1470.88 1587.8 1468.77 Q1585.46 1466.67 1581.45 1466.67 Q1579.58 1466.67 1577.7 1467.08 Q1575.85 1467.5 1573.91 1468.38 L1573.91 1451.02 Z" fill="#000000" fill-rule="nonzero" fill-opacity="1" /><path clip-path="url(#clip640)" d="M1946.5 1481.64 L1954.14 1481.64 L1954.14 1455.28 L1945.83 1456.95 L1945.83 1452.69 L1954.09 1451.02 L1958.77 1451.02 L1958.77 1481.64 L1966.41 1481.64 L1966.41 1485.58 L1946.5 1485.58 L1946.5 1481.64 Z" fill="#000000" fill-rule="nonzero" fill-opacity="1" /><path clip-path="url(#clip640)" d="M1985.85 1454.1 Q1982.24 1454.1 1980.41 1457.66 Q1978.61 1461.2 1978.61 1468.33 Q1978.61 1475.44 1980.41 1479.01 Q1982.24 1482.55 1985.85 1482.55 Q1989.49 1482.55 1991.29 1479.01 Q1993.12 1475.44 1993.12 1468.33 Q1993.12 1461.2 1991.29 1457.66 Q1989.49 1454.1 1985.85 1454.1 M1985.85 1450.39 Q1991.66 1450.39 1994.72 1455 Q1997.8 1459.58 1997.8 1468.33 Q1997.8 1477.06 1994.72 1481.67 Q1991.66 1486.25 1985.85 1486.25 Q1980.04 1486.25 1976.96 1481.67 Q1973.91 1477.06 1973.91 1468.33 Q1973.91 1459.58 1976.96 1455 Q1980.04 1450.39 1985.85 1450.39 Z" fill="#000000" fill-rule="nonzero" fill-opacity="1" /><path clip-path="url(#clip640)" d="M2006.01 1479.7 L2010.9 1479.7 L2010.9 1485.58 L2006.01 1485.58 L2006.01 1479.7 Z" fill="#000000" fill-rule="nonzero" fill-opacity="1" /><path clip-path="url(#clip640)" d="M2031.08 1454.1 Q2027.47 1454.1 2025.64 1457.66 Q2023.84 1461.2 2023.84 1468.33 Q2023.84 1475.44 2025.64 1479.01 Q2027.47 1482.55 2031.08 1482.55 Q2034.72 1482.55 2036.52 1479.01 Q2038.35 1475.44 2038.35 1468.33 Q2038.35 1461.2 2036.52 1457.66 Q2034.72 1454.1 2031.08 1454.1 M2031.08 1450.39 Q2036.89 1450.39 2039.95 1455 Q2043.03 1459.58 2043.03 1468.33 Q2043.03 1477.06 2039.95 1481.67 Q2036.89 1486.25 2031.08 1486.25 Q2025.27 1486.25 2022.19 1481.67 Q2019.14 1477.06 2019.14 1468.33 Q2019.14 1459.58 2022.19 1455 Q2025.27 1450.39 2031.08 1450.39 Z" fill="#000000" fill-rule="nonzero" fill-opacity="1" /><path clip-path="url(#clip640)" d="M1249.35 1522.08 L1249.35 1528.35 Q1245.69 1526.6 1242.44 1525.74 Q1239.19 1524.88 1236.17 1524.88 Q1230.92 1524.88 1228.05 1526.92 Q1225.22 1528.96 1225.22 1532.71 Q1225.22 1535.87 1227.1 1537.49 Q1229.01 1539.08 1234.29 1540.07 L1238.18 1540.86 Q1245.37 1542.23 1248.78 1545.7 Q1252.21 1549.14 1252.21 1554.93 Q1252.21 1561.84 1247.57 1565.4 Q1242.95 1568.97 1234.01 1568.97 Q1230.63 1568.97 1226.81 1568.2 Q1223.03 1567.44 1218.95 1565.94 L1218.95 1559.32 Q1222.87 1561.52 1226.62 1562.63 Q1230.38 1563.75 1234.01 1563.75 Q1239.51 1563.75 1242.5 1561.58 Q1245.5 1559.42 1245.5 1555.41 Q1245.5 1551.91 1243.33 1549.93 Q1241.2 1547.96 1236.3 1546.97 L1232.38 1546.21 Q1225.19 1544.78 1221.98 1541.72 Q1218.76 1538.67 1218.76 1533.22 Q1218.76 1526.92 1223.18 1523.29 Q1227.64 1519.66 1235.44 1519.66 Q1238.78 1519.66 1242.25 1520.27 Q1245.72 1520.87 1249.35 1522.08 Z" fill="#000000" fill-rule="nonzero" fill-opacity="1" /><path clip-path="url(#clip640)" d="M1267.78 1522.27 L1267.78 1532.4 L1279.84 1532.4 L1279.84 1536.95 L1267.78 1536.95 L1267.78 1556.3 Q1267.78 1560.66 1268.95 1561.9 Q1270.16 1563.14 1273.82 1563.14 L1279.84 1563.14 L1279.84 1568.04 L1273.82 1568.04 Q1267.04 1568.04 1264.47 1565.53 Q1261.89 1562.98 1261.89 1556.3 L1261.89 1536.95 L1257.59 1536.95 L1257.59 1532.4 L1261.89 1532.4 L1261.89 1522.27 L1267.78 1522.27 Z" fill="#000000" fill-rule="nonzero" fill-opacity="1" /><path clip-path="url(#clip640)" d="M1303.74 1550.12 Q1296.65 1550.12 1293.91 1551.75 Q1291.17 1553.37 1291.17 1557.29 Q1291.17 1560.4 1293.21 1562.25 Q1295.28 1564.07 1298.81 1564.07 Q1303.68 1564.07 1306.61 1560.63 Q1309.57 1557.16 1309.57 1551.43 L1309.57 1550.12 L1303.74 1550.12 M1315.42 1547.71 L1315.42 1568.04 L1309.57 1568.04 L1309.57 1562.63 Q1307.56 1565.88 1304.57 1567.44 Q1301.58 1568.97 1297.25 1568.97 Q1291.78 1568.97 1288.53 1565.91 Q1285.31 1562.82 1285.31 1557.67 Q1285.31 1551.65 1289.32 1548.6 Q1293.37 1545.54 1301.36 1545.54 L1309.57 1545.54 L1309.57 1544.97 Q1309.57 1540.93 1306.89 1538.73 Q1304.25 1536.5 1299.45 1536.5 Q1296.39 1536.5 1293.49 1537.23 Q1290.6 1537.97 1287.92 1539.43 L1287.92 1534.02 Q1291.14 1532.78 1294.16 1532.17 Q1297.19 1531.54 1300.05 1531.54 Q1307.79 1531.54 1311.6 1535.55 Q1315.42 1539.56 1315.42 1547.71 Z" fill="#000000" fill-rule="nonzero" fill-opacity="1" /><path clip-path="url(#clip640)" d="M1333.28 1522.27 L1333.28 1532.4 L1345.34 1532.4 L1345.34 1536.95 L1333.28 1536.95 L1333.28 1556.3 Q1333.28 1560.66 1334.46 1561.9 Q1335.67 1563.14 1339.33 1563.14 L1345.34 1563.14 L1345.34 1568.04 L1339.33 1568.04 Q1332.55 1568.04 1329.97 1565.53 Q1327.39 1562.98 1327.39 1556.3 L1327.39 1536.95 L1323.09 1536.95 L1323.09 1532.4 L1327.39 1532.4 L1327.39 1522.27 L1333.28 1522.27 Z" fill="#000000" fill-rule="nonzero" fill-opacity="1" /><path clip-path="url(#clip640)" d="M1383.54 1548.76 L1383.54 1551.62 L1356.61 1551.62 Q1356.99 1557.67 1360.24 1560.85 Q1363.52 1564 1369.34 1564 Q1372.72 1564 1375.87 1563.17 Q1379.05 1562.35 1382.17 1560.69 L1382.17 1566.23 Q1379.02 1567.57 1375.71 1568.27 Q1372.4 1568.97 1368.99 1568.97 Q1360.46 1568.97 1355.46 1564 Q1350.5 1559.04 1350.5 1550.57 Q1350.5 1541.82 1355.21 1536.69 Q1359.95 1531.54 1367.97 1531.54 Q1375.17 1531.54 1379.34 1536.18 Q1383.54 1540.8 1383.54 1548.76 M1377.68 1547.04 Q1377.62 1542.23 1374.98 1539.37 Q1372.37 1536.5 1368.04 1536.5 Q1363.14 1536.5 1360.17 1539.27 Q1357.25 1542.04 1356.8 1547.07 L1377.68 1547.04 Z" fill="#000000" fill-rule="nonzero" fill-opacity="1" /><polyline clip-path="url(#clip640)" style="stroke:#000000; stroke-linecap:round; stroke-linejoin:round; stroke-width:4; stroke-opacity:1; fill:none" points="249.542,1423.18 249.542,106.192 "/>
<polyline clip-path="url(#clip640)" style="stroke:#000000; stroke-linecap:round; stroke-linejoin:round; stroke-width:4; stroke-opacity:1; fill:none" points="249.542,1423.18 268.44,1423.18 "/>
<polyline clip-path="url(#clip640)" style="stroke:#000000; stroke-linecap:round; stroke-linejoin:round; stroke-width:4; stroke-opacity:1; fill:none" points="249.542,1106.81 268.44,1106.81 "/>
<polyline clip-path="url(#clip640)" style="stroke:#000000; stroke-linecap:round; stroke-linejoin:round; stroke-width:4; stroke-opacity:1; fill:none" points="249.542,790.443 268.44,790.443 "/>
<polyline clip-path="url(#clip640)" style="stroke:#000000; stroke-linecap:round; stroke-linejoin:round; stroke-width:4; stroke-opacity:1; fill:none" points="249.542,474.074 268.44,474.074 "/>
<polyline clip-path="url(#clip640)" style="stroke:#000000; stroke-linecap:round; stroke-linejoin:round; stroke-width:4; stroke-opacity:1; fill:none" points="249.542,157.705 268.44,157.705 "/>
<path clip-path="url(#clip640)" d="M126.205 1408.98 Q122.593 1408.98 120.765 1412.54 Q118.959 1416.08 118.959 1423.21 Q118.959 1430.32 120.765 1433.89 Q122.593 1437.43 126.205 1437.43 Q129.839 1437.43 131.644 1433.89 Q133.473 1430.32 133.473 1423.21 Q133.473 1416.08 131.644 1412.54 Q129.839 1408.98 126.205 1408.98 M126.205 1405.27 Q132.015 1405.27 135.07 1409.88 Q138.149 1414.46 138.149 1423.21 Q138.149 1431.94 135.07 1436.55 Q132.015 1441.13 126.205 1441.13 Q120.394 1441.13 117.316 1436.55 Q114.26 1431.94 114.26 1423.21 Q114.26 1414.46 117.316 1409.88 Q120.394 1405.27 126.205 1405.27 Z" fill="#000000" fill-rule="nonzero" fill-opacity="1" /><path clip-path="url(#clip640)" d="M146.366 1434.58 L151.251 1434.58 L151.251 1440.46 L146.366 1440.46 L146.366 1434.58 Z" fill="#000000" fill-rule="nonzero" fill-opacity="1" /><path clip-path="url(#clip640)" d="M171.436 1408.98 Q167.825 1408.98 165.996 1412.54 Q164.19 1416.08 164.19 1423.21 Q164.19 1430.32 165.996 1433.89 Q167.825 1437.43 171.436 1437.43 Q175.07 1437.43 176.876 1433.89 Q178.704 1430.32 178.704 1423.21 Q178.704 1416.08 176.876 1412.54 Q175.07 1408.98 171.436 1408.98 M171.436 1405.27 Q177.246 1405.27 180.301 1409.88 Q183.38 1414.46 183.38 1423.21 Q183.38 1431.94 180.301 1436.55 Q177.246 1441.13 171.436 1441.13 Q165.626 1441.13 162.547 1436.55 Q159.491 1431.94 159.491 1423.21 Q159.491 1414.46 162.547 1409.88 Q165.626 1405.27 171.436 1405.27 Z" fill="#000000" fill-rule="nonzero" fill-opacity="1" /><path clip-path="url(#clip640)" d="M201.598 1408.98 Q197.987 1408.98 196.158 1412.54 Q194.352 1416.08 194.352 1423.21 Q194.352 1430.32 196.158 1433.89 Q197.987 1437.43 201.598 1437.43 Q205.232 1437.43 207.037 1433.89 Q208.866 1430.32 208.866 1423.21 Q208.866 1416.08 207.037 1412.54 Q205.232 1408.98 201.598 1408.98 M201.598 1405.27 Q207.408 1405.27 210.463 1409.88 Q213.542 1414.46 213.542 1423.21 Q213.542 1431.94 210.463 1436.55 Q207.408 1441.13 201.598 1441.13 Q195.787 1441.13 192.709 1436.55 Q189.653 1431.94 189.653 1423.21 Q189.653 1414.46 192.709 1409.88 Q195.787 1405.27 201.598 1405.27 Z" fill="#000000" fill-rule="nonzero" fill-opacity="1" /><path clip-path="url(#clip640)" d="M127.2 1092.61 Q123.589 1092.61 121.76 1096.17 Q119.955 1099.72 119.955 1106.85 Q119.955 1113.95 121.76 1117.52 Q123.589 1121.06 127.2 1121.06 Q130.834 1121.06 132.64 1117.52 Q134.468 1113.95 134.468 1106.85 Q134.468 1099.72 132.64 1096.17 Q130.834 1092.61 127.2 1092.61 M127.2 1088.91 Q133.01 1088.91 136.066 1093.51 Q139.144 1098.1 139.144 1106.85 Q139.144 1115.57 136.066 1120.18 Q133.01 1124.76 127.2 1124.76 Q121.39 1124.76 118.311 1120.18 Q115.256 1115.57 115.256 1106.85 Q115.256 1098.1 118.311 1093.51 Q121.39 1088.91 127.2 1088.91 Z" fill="#000000" fill-rule="nonzero" fill-opacity="1" /><path clip-path="url(#clip640)" d="M147.362 1118.21 L152.246 1118.21 L152.246 1124.09 L147.362 1124.09 L147.362 1118.21 Z" fill="#000000" fill-rule="nonzero" fill-opacity="1" /><path clip-path="url(#clip640)" d="M172.431 1092.61 Q168.82 1092.61 166.991 1096.17 Q165.186 1099.72 165.186 1106.85 Q165.186 1113.95 166.991 1117.52 Q168.82 1121.06 172.431 1121.06 Q176.065 1121.06 177.871 1117.52 Q179.7 1113.95 179.7 1106.85 Q179.7 1099.72 177.871 1096.17 Q176.065 1092.61 172.431 1092.61 M172.431 1088.91 Q178.241 1088.91 181.297 1093.51 Q184.376 1098.1 184.376 1106.85 Q184.376 1115.57 181.297 1120.18 Q178.241 1124.76 172.431 1124.76 Q166.621 1124.76 163.542 1120.18 Q160.487 1115.57 160.487 1106.85 Q160.487 1098.1 163.542 1093.51 Q166.621 1088.91 172.431 1088.91 Z" fill="#000000" fill-rule="nonzero" fill-opacity="1" /><path clip-path="url(#clip640)" d="M192.639 1089.53 L210.996 1089.53 L210.996 1093.47 L196.922 1093.47 L196.922 1101.94 Q197.94 1101.59 198.959 1101.43 Q199.977 1101.24 200.996 1101.24 Q206.783 1101.24 210.162 1104.42 Q213.542 1107.59 213.542 1113 Q213.542 1118.58 210.07 1121.68 Q206.598 1124.76 200.278 1124.76 Q198.102 1124.76 195.834 1124.39 Q193.588 1124.02 191.181 1123.28 L191.181 1118.58 Q193.264 1119.72 195.487 1120.27 Q197.709 1120.83 200.186 1120.83 Q204.19 1120.83 206.528 1118.72 Q208.866 1116.61 208.866 1113 Q208.866 1109.39 206.528 1107.29 Q204.19 1105.18 200.186 1105.18 Q198.311 1105.18 196.436 1105.6 Q194.584 1106.01 192.639 1106.89 L192.639 1089.53 Z" fill="#000000" fill-rule="nonzero" fill-opacity="1" /><path clip-path="url(#clip640)" d="M126.205 776.241 Q122.593 776.241 120.765 779.806 Q118.959 783.348 118.959 790.477 Q118.959 797.584 120.765 801.149 Q122.593 804.69 126.205 804.69 Q129.839 804.69 131.644 801.149 Q133.473 797.584 133.473 790.477 Q133.473 783.348 131.644 779.806 Q129.839 776.241 126.205 776.241 M126.205 772.538 Q132.015 772.538 135.07 777.144 Q138.149 781.727 138.149 790.477 Q138.149 799.204 135.07 803.811 Q132.015 808.394 126.205 808.394 Q120.394 808.394 117.316 803.811 Q114.26 799.204 114.26 790.477 Q114.26 781.727 117.316 777.144 Q120.394 772.538 126.205 772.538 Z" fill="#000000" fill-rule="nonzero" fill-opacity="1" /><path clip-path="url(#clip640)" d="M146.366 801.843 L151.251 801.843 L151.251 807.723 L146.366 807.723 L146.366 801.843 Z" fill="#000000" fill-rule="nonzero" fill-opacity="1" /><path clip-path="url(#clip640)" d="M162.246 803.787 L169.885 803.787 L169.885 777.422 L161.575 779.089 L161.575 774.829 L169.839 773.163 L174.514 773.163 L174.514 803.787 L182.153 803.787 L182.153 807.723 L162.246 807.723 L162.246 803.787 Z" fill="#000000" fill-rule="nonzero" fill-opacity="1" /><path clip-path="url(#clip640)" d="M201.598 776.241 Q197.987 776.241 196.158 779.806 Q194.352 783.348 194.352 790.477 Q194.352 797.584 196.158 801.149 Q197.987 804.69 201.598 804.69 Q205.232 804.69 207.037 801.149 Q208.866 797.584 208.866 790.477 Q208.866 783.348 207.037 779.806 Q205.232 776.241 201.598 776.241 M201.598 772.538 Q207.408 772.538 210.463 777.144 Q213.542 781.727 213.542 790.477 Q213.542 799.204 210.463 803.811 Q207.408 808.394 201.598 808.394 Q195.787 808.394 192.709 803.811 Q189.653 799.204 189.653 790.477 Q189.653 781.727 192.709 777.144 Q195.787 772.538 201.598 772.538 Z" fill="#000000" fill-rule="nonzero" fill-opacity="1" /><path clip-path="url(#clip640)" d="M127.2 459.873 Q123.589 459.873 121.76 463.437 Q119.955 466.979 119.955 474.109 Q119.955 481.215 121.76 484.78 Q123.589 488.322 127.2 488.322 Q130.834 488.322 132.64 484.78 Q134.468 481.215 134.468 474.109 Q134.468 466.979 132.64 463.437 Q130.834 459.873 127.2 459.873 M127.2 456.169 Q133.01 456.169 136.066 460.775 Q139.144 465.359 139.144 474.109 Q139.144 482.836 136.066 487.442 Q133.01 492.025 127.2 492.025 Q121.39 492.025 118.311 487.442 Q115.256 482.836 115.256 474.109 Q115.256 465.359 118.311 460.775 Q121.39 456.169 127.2 456.169 Z" fill="#000000" fill-rule="nonzero" fill-opacity="1" /><path clip-path="url(#clip640)" d="M147.362 485.474 L152.246 485.474 L152.246 491.354 L147.362 491.354 L147.362 485.474 Z" fill="#000000" fill-rule="nonzero" fill-opacity="1" /><path clip-path="url(#clip640)" d="M163.241 487.419 L170.88 487.419 L170.88 461.053 L162.57 462.72 L162.57 458.461 L170.834 456.794 L175.51 456.794 L175.51 487.419 L183.149 487.419 L183.149 491.354 L163.241 491.354 L163.241 487.419 Z" fill="#000000" fill-rule="nonzero" fill-opacity="1" /><path clip-path="url(#clip640)" d="M192.639 456.794 L210.996 456.794 L210.996 460.729 L196.922 460.729 L196.922 469.201 Q197.94 468.854 198.959 468.692 Q199.977 468.507 200.996 468.507 Q206.783 468.507 210.162 471.678 Q213.542 474.849 213.542 480.266 Q213.542 485.845 210.07 488.947 Q206.598 492.025 200.278 492.025 Q198.102 492.025 195.834 491.655 Q193.588 491.285 191.181 490.544 L191.181 485.845 Q193.264 486.979 195.487 487.535 Q197.709 488.09 200.186 488.09 Q204.19 488.09 206.528 485.984 Q208.866 483.877 208.866 480.266 Q208.866 476.655 206.528 474.549 Q204.19 472.442 200.186 472.442 Q198.311 472.442 196.436 472.859 Q194.584 473.275 192.639 474.155 L192.639 456.794 Z" fill="#000000" fill-rule="nonzero" fill-opacity="1" /><path clip-path="url(#clip640)" d="M126.205 143.504 Q122.593 143.504 120.765 147.069 Q118.959 150.611 118.959 157.74 Q118.959 164.847 120.765 168.411 Q122.593 171.953 126.205 171.953 Q129.839 171.953 131.644 168.411 Q133.473 164.847 133.473 157.74 Q133.473 150.611 131.644 147.069 Q129.839 143.504 126.205 143.504 M126.205 139.8 Q132.015 139.8 135.07 144.407 Q138.149 148.99 138.149 157.74 Q138.149 166.467 135.07 171.073 Q132.015 175.657 126.205 175.657 Q120.394 175.657 117.316 171.073 Q114.26 166.467 114.26 157.74 Q114.26 148.99 117.316 144.407 Q120.394 139.8 126.205 139.8 Z" fill="#000000" fill-rule="nonzero" fill-opacity="1" /><path clip-path="url(#clip640)" d="M146.366 169.106 L151.251 169.106 L151.251 174.985 L146.366 174.985 L146.366 169.106 Z" fill="#000000" fill-rule="nonzero" fill-opacity="1" /><path clip-path="url(#clip640)" d="M165.464 171.05 L181.783 171.05 L181.783 174.985 L159.839 174.985 L159.839 171.05 Q162.501 168.296 167.084 163.666 Q171.69 159.013 172.871 157.671 Q175.116 155.148 175.996 153.411 Q176.899 151.652 176.899 149.962 Q176.899 147.208 174.954 145.472 Q173.033 143.736 169.931 143.736 Q167.732 143.736 165.278 144.499 Q162.848 145.263 160.07 146.814 L160.07 142.092 Q162.894 140.958 165.348 140.379 Q167.802 139.8 169.839 139.8 Q175.209 139.8 178.403 142.486 Q181.598 145.171 181.598 149.661 Q181.598 151.791 180.788 153.712 Q180.001 155.61 177.894 158.203 Q177.315 158.874 174.214 162.092 Q171.112 165.286 165.464 171.05 Z" fill="#000000" fill-rule="nonzero" fill-opacity="1" /><path clip-path="url(#clip640)" d="M201.598 143.504 Q197.987 143.504 196.158 147.069 Q194.352 150.611 194.352 157.74 Q194.352 164.847 196.158 168.411 Q197.987 171.953 201.598 171.953 Q205.232 171.953 207.037 168.411 Q208.866 164.847 208.866 157.74 Q208.866 150.611 207.037 147.069 Q205.232 143.504 201.598 143.504 M201.598 139.8 Q207.408 139.8 210.463 144.407 Q213.542 148.99 213.542 157.74 Q213.542 166.467 210.463 171.073 Q207.408 175.657 201.598 175.657 Q195.787 175.657 192.709 171.073 Q189.653 166.467 189.653 157.74 Q189.653 148.99 192.709 144.407 Q195.787 139.8 201.598 139.8 Z" fill="#000000" fill-rule="nonzero" fill-opacity="1" /><path clip-path="url(#clip640)" d="M21.7677 926.375 L39.6235 926.375 L39.6235 918.29 Q39.6235 913.803 37.3 911.352 Q34.9765 908.901 30.6797 908.901 Q26.4147 908.901 24.0912 911.352 Q21.7677 913.803 21.7677 918.29 L21.7677 926.375 M16.4842 932.804 L16.4842 918.29 Q16.4842 910.302 20.1126 906.227 Q23.7092 902.122 30.6797 902.122 Q37.7138 902.122 41.3104 906.227 Q44.907 910.302 44.907 918.29 L44.907 926.375 L64.0042 926.375 L64.0042 932.804 L16.4842 932.804 Z" fill="#000000" fill-rule="nonzero" fill-opacity="1" /><path clip-path="url(#clip640)" d="M33.8307 874.24 Q33.2578 875.226 33.0032 876.404 Q32.7167 877.55 32.7167 878.95 Q32.7167 883.916 35.9632 886.589 Q39.1779 889.231 45.2253 889.231 L64.0042 889.231 L64.0042 895.119 L28.3562 895.119 L28.3562 889.231 L33.8944 889.231 Q30.6479 887.385 29.0883 884.425 Q27.4968 881.465 27.4968 877.232 Q27.4968 876.627 27.5923 875.895 Q27.656 875.163 27.8151 874.272 L33.8307 874.24 Z" fill="#000000" fill-rule="nonzero" fill-opacity="1" /><path clip-path="url(#clip640)" d="M32.4621 855.716 Q32.4621 860.426 36.1542 863.163 Q39.8145 865.901 46.212 865.901 Q52.6095 865.901 56.3017 863.195 Q59.9619 860.458 59.9619 855.716 Q59.9619 851.037 56.2698 848.3 Q52.5777 845.562 46.212 845.562 Q39.8781 845.562 36.186 848.3 Q32.4621 851.037 32.4621 855.716 M27.4968 855.716 Q27.4968 848.077 32.4621 843.716 Q37.4273 839.356 46.212 839.356 Q54.9649 839.356 59.9619 843.716 Q64.9272 848.077 64.9272 855.716 Q64.9272 863.386 59.9619 867.747 Q54.9649 872.075 46.212 872.075 Q37.4273 872.075 32.4621 867.747 Q27.4968 863.386 27.4968 855.716 Z" fill="#000000" fill-rule="nonzero" fill-opacity="1" /><path clip-path="url(#clip640)" d="M46.212 804.058 Q39.7508 804.058 36.0905 806.731 Q32.3984 809.373 32.3984 814.02 Q32.3984 818.667 36.0905 821.341 Q39.7508 823.983 46.212 823.983 Q52.6732 823.983 56.3653 821.341 Q60.0256 818.667 60.0256 814.02 Q60.0256 809.373 56.3653 806.731 Q52.6732 804.058 46.212 804.058 M33.7671 823.983 Q30.5842 822.136 29.0564 819.336 Q27.4968 816.503 27.4968 812.588 Q27.4968 806.095 32.6531 802.053 Q37.8093 797.979 46.212 797.979 Q54.6147 797.979 59.771 802.053 Q64.9272 806.095 64.9272 812.588 Q64.9272 816.503 63.3994 819.336 Q61.8398 822.136 58.657 823.983 L64.0042 823.983 L64.0042 829.871 L14.479 829.871 L14.479 823.983 L33.7671 823.983 Z" fill="#000000" fill-rule="nonzero" fill-opacity="1" /><path clip-path="url(#clip640)" d="M46.0847 772.07 Q46.0847 779.168 47.7079 781.905 Q49.3312 784.642 53.2461 784.642 Q56.3653 784.642 58.2114 782.605 Q60.0256 780.537 60.0256 777.004 Q60.0256 772.134 56.5881 769.206 Q53.1188 766.246 47.3897 766.246 L46.0847 766.246 L46.0847 772.07 M43.6657 760.389 L64.0042 760.389 L64.0042 766.246 L58.5933 766.246 Q61.8398 768.251 63.3994 771.243 Q64.9272 774.235 64.9272 778.563 Q64.9272 784.038 61.8716 787.284 Q58.7843 790.499 53.6281 790.499 Q47.6125 790.499 44.5569 786.489 Q41.5014 782.446 41.5014 774.457 L41.5014 766.246 L40.9285 766.246 Q36.8862 766.246 34.6901 768.919 Q32.4621 771.561 32.4621 776.367 Q32.4621 779.423 33.1941 782.319 Q33.9262 785.215 35.3903 787.889 L29.9795 787.889 Q28.7381 784.674 28.1334 781.651 Q27.4968 778.627 27.4968 775.762 Q27.4968 768.028 31.5072 764.209 Q35.5176 760.389 43.6657 760.389 Z" fill="#000000" fill-rule="nonzero" fill-opacity="1" /><path clip-path="url(#clip640)" d="M46.212 722.736 Q39.7508 722.736 36.0905 725.41 Q32.3984 728.051 32.3984 732.698 Q32.3984 737.345 36.0905 740.019 Q39.7508 742.661 46.212 742.661 Q52.6732 742.661 56.3653 740.019 Q60.0256 737.345 60.0256 732.698 Q60.0256 728.051 56.3653 725.41 Q52.6732 722.736 46.212 722.736 M33.7671 742.661 Q30.5842 740.815 29.0564 738.014 Q27.4968 735.181 27.4968 731.266 Q27.4968 724.773 32.6531 720.731 Q37.8093 716.657 46.212 716.657 Q54.6147 716.657 59.771 720.731 Q64.9272 724.773 64.9272 731.266 Q64.9272 735.181 63.3994 738.014 Q61.8398 740.815 58.657 742.661 L64.0042 742.661 L64.0042 748.549 L14.479 748.549 L14.479 742.661 L33.7671 742.661 Z" fill="#000000" fill-rule="nonzero" fill-opacity="1" /><path clip-path="url(#clip640)" d="M28.3562 706.949 L28.3562 701.093 L64.0042 701.093 L64.0042 706.949 L28.3562 706.949 M14.479 706.949 L14.479 701.093 L21.895 701.093 L21.895 706.949 L14.479 706.949 Z" fill="#000000" fill-rule="nonzero" fill-opacity="1" /><path clip-path="url(#clip640)" d="M14.479 688.839 L14.479 682.982 L64.0042 682.982 L64.0042 688.839 L14.479 688.839 Z" fill="#000000" fill-rule="nonzero" fill-opacity="1" /><path clip-path="url(#clip640)" d="M28.3562 670.728 L28.3562 664.872 L64.0042 664.872 L64.0042 670.728 L28.3562 670.728 M14.479 670.728 L14.479 664.872 L21.895 664.872 L21.895 670.728 L14.479 670.728 Z" fill="#000000" fill-rule="nonzero" fill-opacity="1" /><path clip-path="url(#clip640)" d="M18.2347 646.825 L28.3562 646.825 L28.3562 634.762 L32.9077 634.762 L32.9077 646.825 L52.2594 646.825 Q56.6199 646.825 57.8613 645.647 Q59.1026 644.438 59.1026 640.778 L59.1026 634.762 L64.0042 634.762 L64.0042 640.778 Q64.0042 647.557 61.4897 650.135 Q58.9434 652.713 52.2594 652.713 L32.9077 652.713 L32.9077 657.01 L28.3562 657.01 L28.3562 652.713 L18.2347 652.713 L18.2347 646.825 Z" fill="#000000" fill-rule="nonzero" fill-opacity="1" /><path clip-path="url(#clip640)" d="M67.3143 612.227 Q73.68 614.71 75.6216 617.065 Q77.5631 619.421 77.5631 623.367 L77.5631 628.046 L72.6615 628.046 L72.6615 624.609 Q72.6615 622.19 71.5157 620.853 Q70.3699 619.516 66.1048 617.893 L63.4312 616.842 L28.3562 631.261 L28.3562 625.054 L56.238 613.914 L28.3562 602.774 L28.3562 596.568 L67.3143 612.227 Z" fill="#000000" fill-rule="nonzero" fill-opacity="1" /><path clip-path="url(#clip640)" d="M840.474 10.0578 L840.474 15.758 Q837.147 14.1666 834.195 13.3853 Q831.244 12.6041 828.495 12.6041 Q823.721 12.6041 821.117 14.4559 Q818.542 16.3078 818.542 19.7221 Q818.542 22.5867 820.249 24.0624 Q821.985 25.5091 826.788 26.4061 L830.318 27.1295 Q836.857 28.3737 839.954 31.5276 Q843.079 34.6526 843.079 39.9188 Q843.079 46.1977 838.854 49.4384 Q834.658 52.6791 826.528 52.6791 Q823.461 52.6791 819.988 51.9847 Q816.545 51.2902 812.841 49.9303 L812.841 43.9118 Q816.4 45.9083 819.815 46.921 Q823.229 47.9338 826.528 47.9338 Q831.533 47.9338 834.253 45.9662 Q836.973 43.9986 836.973 40.3528 Q836.973 37.1699 835.006 35.376 Q833.067 33.582 828.611 32.685 L825.052 31.9906 Q818.513 30.6885 815.59 27.9107 Q812.668 25.133 812.668 20.1851 Q812.668 14.4559 816.69 11.1573 Q820.741 7.85875 827.83 7.85875 Q830.868 7.85875 834.022 8.40852 Q837.176 8.95829 840.474 10.0578 Z" fill="#000000" fill-rule="nonzero" fill-opacity="1" /><path clip-path="url(#clip640)" d="M857.228 10.2314 L857.228 19.4328 L868.194 19.4328 L868.194 23.5705 L857.228 23.5705 L857.228 41.163 Q857.228 45.1271 858.298 46.2555 Q859.398 47.384 862.725 47.384 L868.194 47.384 L868.194 51.84 L862.725 51.84 Q856.562 51.84 854.218 49.5541 Q851.875 47.2393 851.875 41.163 L851.875 23.5705 L847.969 23.5705 L847.969 19.4328 L851.875 19.4328 L851.875 10.2314 L857.228 10.2314 Z" fill="#000000" fill-rule="nonzero" fill-opacity="1" /><path clip-path="url(#clip640)" d="M889.924 35.5496 Q883.472 35.5496 880.983 37.0253 Q878.495 38.501 878.495 42.06 Q878.495 44.8956 880.347 46.5738 Q882.228 48.2231 885.439 48.2231 Q889.866 48.2231 892.528 45.0981 Q895.219 41.9442 895.219 36.7359 L895.219 35.5496 L889.924 35.5496 M900.543 33.3505 L900.543 51.84 L895.219 51.84 L895.219 46.921 Q893.397 49.8724 890.677 51.2902 Q887.957 52.6791 884.022 52.6791 Q879.045 52.6791 876.093 49.9014 Q873.171 47.0947 873.171 42.4072 Q873.171 36.9385 876.817 34.1607 Q880.492 31.3829 887.754 31.3829 L895.219 31.3829 L895.219 30.8621 Q895.219 27.1874 892.789 25.1908 Q890.387 23.1654 886.018 23.1654 Q883.24 23.1654 880.607 23.8309 Q877.974 24.4964 875.544 25.8274 L875.544 20.9085 Q878.466 19.78 881.215 19.2302 Q883.964 18.6515 886.568 18.6515 Q893.599 18.6515 897.071 22.2973 Q900.543 25.9431 900.543 33.3505 Z" fill="#000000" fill-rule="nonzero" fill-opacity="1" /><path clip-path="url(#clip640)" d="M916.776 10.2314 L916.776 19.4328 L927.742 19.4328 L927.742 23.5705 L916.776 23.5705 L916.776 41.163 Q916.776 45.1271 917.847 46.2555 Q918.946 47.384 922.274 47.384 L927.742 47.384 L927.742 51.84 L922.274 51.84 Q916.111 51.84 913.767 49.5541 Q911.423 47.2393 911.423 41.163 L911.423 23.5705 L907.517 23.5705 L907.517 19.4328 L911.423 19.4328 L911.423 10.2314 L916.776 10.2314 Z" fill="#000000" fill-rule="nonzero" fill-opacity="1" /><path clip-path="url(#clip640)" d="M934.745 19.4328 L940.069 19.4328 L940.069 51.84 L934.745 51.84 L934.745 19.4328 M934.745 6.81709 L940.069 6.81709 L940.069 13.559 L934.745 13.559 L934.745 6.81709 Z" fill="#000000" fill-rule="nonzero" fill-opacity="1" /><path clip-path="url(#clip640)" d="M963.767 23.1654 Q959.484 23.1654 956.996 26.5218 Q954.507 29.8494 954.507 35.6653 Q954.507 41.4813 956.967 44.8377 Q959.455 48.1653 963.767 48.1653 Q968.02 48.1653 970.508 44.8088 Q972.997 41.4523 972.997 35.6653 Q972.997 29.9072 970.508 26.5508 Q968.02 23.1654 963.767 23.1654 M963.767 18.6515 Q970.711 18.6515 974.675 23.1654 Q978.639 27.6792 978.639 35.6653 Q978.639 43.6225 974.675 48.1653 Q970.711 52.6791 963.767 52.6791 Q956.793 52.6791 952.829 48.1653 Q948.894 43.6225 948.894 35.6653 Q948.894 27.6792 952.829 23.1654 Q956.793 18.6515 963.767 18.6515 Z" fill="#000000" fill-rule="nonzero" fill-opacity="1" /><path clip-path="url(#clip640)" d="M1014.4 32.2799 L1014.4 51.84 L1009.08 51.84 L1009.08 32.4535 Q1009.08 27.8529 1007.28 25.567 Q1005.49 23.2811 1001.9 23.2811 Q997.592 23.2811 995.103 26.03 Q992.615 28.7788 992.615 33.5241 L992.615 51.84 L987.262 51.84 L987.262 19.4328 L992.615 19.4328 L992.615 24.4675 Q994.524 21.545 997.1 20.0983 Q999.704 18.6515 1003.09 18.6515 Q1008.67 18.6515 1011.54 22.1237 Q1014.4 25.567 1014.4 32.2799 Z" fill="#000000" fill-rule="nonzero" fill-opacity="1" /><path clip-path="url(#clip640)" d="M1039.75 35.5496 Q1033.3 35.5496 1030.81 37.0253 Q1028.32 38.501 1028.32 42.06 Q1028.32 44.8956 1030.17 46.5738 Q1032.05 48.2231 1035.26 48.2231 Q1039.69 48.2231 1042.35 45.0981 Q1045.05 41.9442 1045.05 36.7359 L1045.05 35.5496 L1039.75 35.5496 M1050.37 33.3505 L1050.37 51.84 L1045.05 51.84 L1045.05 46.921 Q1043.22 49.8724 1040.5 51.2902 Q1037.78 52.6791 1033.85 52.6791 Q1028.87 52.6791 1025.92 49.9014 Q1023 47.0947 1023 42.4072 Q1023 36.9385 1026.64 34.1607 Q1030.32 31.3829 1037.58 31.3829 L1045.05 31.3829 L1045.05 30.8621 Q1045.05 27.1874 1042.61 25.1908 Q1040.21 23.1654 1035.84 23.1654 Q1033.07 23.1654 1030.43 23.8309 Q1027.8 24.4964 1025.37 25.8274 L1025.37 20.9085 Q1028.29 19.78 1031.04 19.2302 Q1033.79 18.6515 1036.39 18.6515 Q1043.42 18.6515 1046.9 22.2973 Q1050.37 25.9431 1050.37 33.3505 Z" fill="#000000" fill-rule="nonzero" fill-opacity="1" /><path clip-path="url(#clip640)" d="M1080.11 24.4096 Q1079.22 23.8888 1078.15 23.6573 Q1077.11 23.3969 1075.83 23.3969 Q1071.32 23.3969 1068.89 26.3482 Q1066.49 29.2707 1066.49 34.7683 L1066.49 51.84 L1061.13 51.84 L1061.13 19.4328 L1066.49 19.4328 L1066.49 24.4675 Q1068.16 21.5161 1070.86 20.0983 Q1073.55 18.6515 1077.39 18.6515 Q1077.94 18.6515 1078.61 18.7383 Q1079.28 18.7962 1080.09 18.9409 L1080.11 24.4096 Z" fill="#000000" fill-rule="nonzero" fill-opacity="1" /><path clip-path="url(#clip640)" d="M1099.18 54.8492 Q1096.93 60.6362 1094.78 62.4013 Q1092.64 64.1663 1089.06 64.1663 L1084.8 64.1663 L1084.8 59.7103 L1087.93 59.7103 Q1090.13 59.7103 1091.34 58.6687 Q1092.56 57.627 1094.03 53.7497 L1094.99 51.3192 L1081.88 19.4328 L1087.52 19.4328 L1097.65 44.7799 L1107.78 19.4328 L1113.42 19.4328 L1099.18 54.8492 Z" fill="#000000" fill-rule="nonzero" fill-opacity="1" /><path clip-path="url(#clip640)" d="M1145.68 13.4432 L1145.68 47.0368 L1152.74 47.0368 Q1161.68 47.0368 1165.82 42.9859 Q1169.99 38.935 1169.99 30.1966 Q1169.99 21.5161 1165.82 17.4941 Q1161.68 13.4432 1152.74 13.4432 L1145.68 13.4432 M1139.84 8.64 L1151.84 8.64 Q1164.4 8.64 1170.28 13.8772 Q1176.15 19.0855 1176.15 30.1966 Q1176.15 41.3655 1170.25 46.6028 Q1164.34 51.84 1151.84 51.84 L1139.84 51.84 L1139.84 8.64 Z" fill="#000000" fill-rule="nonzero" fill-opacity="1" /><path clip-path="url(#clip640)" d="M1185.24 19.4328 L1190.56 19.4328 L1190.56 51.84 L1185.24 51.84 L1185.24 19.4328 M1185.24 6.81709 L1190.56 6.81709 L1190.56 13.559 L1185.24 13.559 L1185.24 6.81709 Z" fill="#000000" fill-rule="nonzero" fill-opacity="1" /><path clip-path="url(#clip640)" d="M1222.36 20.3876 L1222.36 25.4223 Q1220.1 24.2649 1217.67 23.6862 Q1215.24 23.1075 1212.64 23.1075 Q1208.67 23.1075 1206.68 24.3228 Q1204.71 25.5381 1204.71 27.9686 Q1204.71 29.8204 1206.13 30.891 Q1207.54 31.9327 1211.83 32.8876 L1213.65 33.2926 Q1219.32 34.5079 1221.69 36.7359 Q1224.09 38.935 1224.09 42.8991 Q1224.09 47.4129 1220.51 50.046 Q1216.95 52.6791 1210.7 52.6791 Q1208.09 52.6791 1205.26 52.1583 Q1202.45 51.6664 1199.33 50.6537 L1199.33 45.156 Q1202.28 46.6896 1205.14 47.4708 Q1208.01 48.2231 1210.81 48.2231 Q1214.58 48.2231 1216.6 46.95 Q1218.63 45.6479 1218.63 43.3042 Q1218.63 41.134 1217.15 39.9766 Q1215.7 38.8192 1210.76 37.7486 L1208.9 37.3146 Q1203.96 36.273 1201.76 34.1318 Q1199.56 31.9616 1199.56 28.2001 Q1199.56 23.6283 1202.8 21.1399 Q1206.04 18.6515 1212 18.6515 Q1214.95 18.6515 1217.56 19.0855 Q1220.16 19.5196 1222.36 20.3876 Z" fill="#000000" fill-rule="nonzero" fill-opacity="1" /><path clip-path="url(#clip640)" d="M1237.84 10.2314 L1237.84 19.4328 L1248.81 19.4328 L1248.81 23.5705 L1237.84 23.5705 L1237.84 41.163 Q1237.84 45.1271 1238.91 46.2555 Q1240.01 47.384 1243.34 47.384 L1248.81 47.384 L1248.81 51.84 L1243.34 51.84 Q1237.17 51.84 1234.83 49.5541 Q1232.49 47.2393 1232.49 41.163 L1232.49 23.5705 L1228.58 23.5705 L1228.58 19.4328 L1232.49 19.4328 L1232.49 10.2314 L1237.84 10.2314 Z" fill="#000000" fill-rule="nonzero" fill-opacity="1" /><path clip-path="url(#clip640)" d="M1274.59 24.4096 Q1273.69 23.8888 1272.62 23.6573 Q1271.58 23.3969 1270.3 23.3969 Q1265.79 23.3969 1263.36 26.3482 Q1260.96 29.2707 1260.96 34.7683 L1260.96 51.84 L1255.61 51.84 L1255.61 19.4328 L1260.96 19.4328 L1260.96 24.4675 Q1262.64 21.5161 1265.33 20.0983 Q1268.02 18.6515 1271.87 18.6515 Q1272.42 18.6515 1273.08 18.7383 Q1273.75 18.7962 1274.56 18.9409 L1274.59 24.4096 Z" fill="#000000" fill-rule="nonzero" fill-opacity="1" /><path clip-path="url(#clip640)" d="M1280.17 19.4328 L1285.5 19.4328 L1285.5 51.84 L1280.17 51.84 L1280.17 19.4328 M1280.17 6.81709 L1285.5 6.81709 L1285.5 13.559 L1280.17 13.559 L1280.17 6.81709 Z" fill="#000000" fill-rule="nonzero" fill-opacity="1" /><path clip-path="url(#clip640)" d="M1319.9 35.6653 Q1319.9 29.7915 1317.47 26.464 Q1315.07 23.1075 1310.84 23.1075 Q1306.62 23.1075 1304.19 26.464 Q1301.79 29.7915 1301.79 35.6653 Q1301.79 41.5391 1304.19 44.8956 Q1306.62 48.2231 1310.84 48.2231 Q1315.07 48.2231 1317.47 44.8956 Q1319.9 41.5391 1319.9 35.6653 M1301.79 24.3517 Q1303.46 21.4582 1306.01 20.0693 Q1308.59 18.6515 1312.14 18.6515 Q1318.05 18.6515 1321.72 23.339 Q1325.43 28.0265 1325.43 35.6653 Q1325.43 43.3042 1321.72 47.9916 Q1318.05 52.6791 1312.14 52.6791 Q1308.59 52.6791 1306.01 51.2902 Q1303.46 49.8724 1301.79 46.9789 L1301.79 51.84 L1296.43 51.84 L1296.43 6.81709 L1301.79 6.81709 L1301.79 24.3517 Z" fill="#000000" fill-rule="nonzero" fill-opacity="1" /><path clip-path="url(#clip640)" d="M1333.7 39.0507 L1333.7 19.4328 L1339.02 19.4328 L1339.02 38.8482 Q1339.02 43.4488 1340.82 45.7636 Q1342.61 48.0495 1346.2 48.0495 Q1350.51 48.0495 1353 45.3007 Q1355.52 42.5519 1355.52 37.8065 L1355.52 19.4328 L1360.84 19.4328 L1360.84 51.84 L1355.52 51.84 L1355.52 46.8632 Q1353.58 49.8145 1351 51.2613 Q1348.46 52.6791 1345.07 52.6791 Q1339.49 52.6791 1336.59 49.2069 Q1333.7 45.7347 1333.7 39.0507 M1347.1 18.6515 L1347.1 18.6515 Z" fill="#000000" fill-rule="nonzero" fill-opacity="1" /><path clip-path="url(#clip640)" d="M1377.07 10.2314 L1377.07 19.4328 L1388.04 19.4328 L1388.04 23.5705 L1377.07 23.5705 L1377.07 41.163 Q1377.07 45.1271 1378.15 46.2555 Q1379.24 47.384 1382.57 47.384 L1388.04 47.384 L1388.04 51.84 L1382.57 51.84 Q1376.41 51.84 1374.07 49.5541 Q1371.72 47.2393 1371.72 41.163 L1371.72 23.5705 L1367.82 23.5705 L1367.82 19.4328 L1371.72 19.4328 L1371.72 10.2314 L1377.07 10.2314 Z" fill="#000000" fill-rule="nonzero" fill-opacity="1" /><path clip-path="url(#clip640)" d="M1395.04 19.4328 L1400.37 19.4328 L1400.37 51.84 L1395.04 51.84 L1395.04 19.4328 M1395.04 6.81709 L1400.37 6.81709 L1400.37 13.559 L1395.04 13.559 L1395.04 6.81709 Z" fill="#000000" fill-rule="nonzero" fill-opacity="1" /><path clip-path="url(#clip640)" d="M1424.06 23.1654 Q1419.78 23.1654 1417.29 26.5218 Q1414.81 29.8494 1414.81 35.6653 Q1414.81 41.4813 1417.27 44.8377 Q1419.75 48.1653 1424.06 48.1653 Q1428.32 48.1653 1430.81 44.8088 Q1433.3 41.4523 1433.3 35.6653 Q1433.3 29.9072 1430.81 26.5508 Q1428.32 23.1654 1424.06 23.1654 M1424.06 18.6515 Q1431.01 18.6515 1434.97 23.1654 Q1438.94 27.6792 1438.94 35.6653 Q1438.94 43.6225 1434.97 48.1653 Q1431.01 52.6791 1424.06 52.6791 Q1417.09 52.6791 1413.13 48.1653 Q1409.19 43.6225 1409.19 35.6653 Q1409.19 27.6792 1413.13 23.1654 Q1417.09 18.6515 1424.06 18.6515 Z" fill="#000000" fill-rule="nonzero" fill-opacity="1" /><path clip-path="url(#clip640)" d="M1474.7 32.2799 L1474.7 51.84 L1469.38 51.84 L1469.38 32.4535 Q1469.38 27.8529 1467.58 25.567 Q1465.79 23.2811 1462.2 23.2811 Q1457.89 23.2811 1455.4 26.03 Q1452.91 28.7788 1452.91 33.5241 L1452.91 51.84 L1447.56 51.84 L1447.56 19.4328 L1452.91 19.4328 L1452.91 24.4675 Q1454.82 21.545 1457.4 20.0983 Q1460 18.6515 1463.39 18.6515 Q1468.97 18.6515 1471.84 22.1237 Q1474.7 25.567 1474.7 32.2799 Z" fill="#000000" fill-rule="nonzero" fill-opacity="1" /><path clip-path="url(#clip640)" d="M1500.71 19.4328 L1531.76 19.4328 L1531.76 24.7568 L1527.68 24.7568 L1527.68 44.6641 Q1527.68 46.7474 1528.38 47.6734 Q1529.1 48.5703 1530.69 48.5703 Q1531.12 48.5703 1531.76 48.5125 Q1532.4 48.4257 1532.6 48.3967 L1532.6 52.2451 Q1531.59 52.6212 1530.52 52.7949 Q1529.45 52.9685 1528.38 52.9685 Q1524.9 52.9685 1523.57 51.0877 Q1522.24 49.178 1522.24 44.0854 L1522.24 24.7568 L1510.29 24.7568 L1510.29 51.84 L1504.85 51.84 L1504.85 24.7568 L1500.71 24.7568 L1500.71 19.4328 Z" fill="#000000" fill-rule="nonzero" fill-opacity="1" /><path clip-path="url(#clip640)" d="M1555.98 33.5241 L1609.45 33.5241 L1609.45 37.6908 L1555.98 37.6908 L1555.98 33.5241 Z" fill="#000000" fill-rule="nonzero" fill-opacity="1" /><path clip-path="url(#clip640)" d="M1637 8.64 L1642.84 8.64 L1642.84 26.898 L1662.23 8.64 L1669.75 8.64 L1648.31 28.7788 L1671.29 51.84 L1663.59 51.84 L1642.84 31.0357 L1642.84 51.84 L1637 51.84 L1637 8.64 Z" fill="#000000" fill-rule="nonzero" fill-opacity="1" /><path clip-path="url(#clip640)" d="M1676.32 24.9304 L1713.42 24.9304 L1713.42 29.7915 L1676.32 29.7915 L1676.32 24.9304 M1676.32 36.7359 L1713.42 36.7359 L1713.42 41.6549 L1676.32 41.6549 L1676.32 36.7359 Z" fill="#000000" fill-rule="nonzero" fill-opacity="1" /><path clip-path="url(#clip640)" d="M1727.04 46.921 L1736.59 46.921 L1736.59 13.964 L1726.2 16.0474 L1726.2 10.7233 L1736.53 8.64 L1742.38 8.64 L1742.38 46.921 L1751.93 46.921 L1751.93 51.84 L1727.04 51.84 L1727.04 46.921 Z" fill="#000000" fill-rule="nonzero" fill-opacity="1" /><path clip-path="url(#clip640)" d="M1764.75 46.921 L1774.29 46.921 L1774.29 13.964 L1763.91 16.0474 L1763.91 10.7233 L1774.24 8.64 L1780.08 8.64 L1780.08 46.921 L1789.63 46.921 L1789.63 51.84 L1764.75 51.84 L1764.75 46.921 Z" fill="#000000" fill-rule="nonzero" fill-opacity="1" /><path clip-path="url(#clip642)" d="M365.223 207.707 L365.223 1423.18 L503.878 1423.18 L503.878 207.707 L365.223 207.707 L365.223 207.707  Z" fill="#4682b4" fill-rule="evenodd" fill-opacity="0.7"/>
<polyline clip-path="url(#clip642)" style="stroke:#000000; stroke-linecap:round; stroke-linejoin:round; stroke-width:4; stroke-opacity:0.7; fill:none" points="365.223,207.707 365.223,1423.18 503.878,1423.18 503.878,207.707 365.223,207.707 "/>
<path clip-path="url(#clip642)" d="M538.542 935.171 L538.542 1423.18 L677.198 1423.18 L677.198 935.171 L538.542 935.171 L538.542 935.171  Z" fill="#4682b4" fill-rule="evenodd" fill-opacity="0.7"/>
<polyline clip-path="url(#clip642)" style="stroke:#000000; stroke-linecap:round; stroke-linejoin:round; stroke-width:4; stroke-opacity:0.7; fill:none" points="538.542,935.171 538.542,1423.18 677.198,1423.18 677.198,935.171 538.542,935.171 "/>
<path clip-path="url(#clip642)" d="M711.862 960.941 L711.862 1423.18 L850.518 1423.18 L850.518 960.941 L711.862 960.941 L711.862 960.941  Z" fill="#4682b4" fill-rule="evenodd" fill-opacity="0.7"/>
<polyline clip-path="url(#clip642)" style="stroke:#000000; stroke-linecap:round; stroke-linejoin:round; stroke-width:4; stroke-opacity:0.7; fill:none" points="711.862,960.941 711.862,1423.18 850.518,1423.18 850.518,960.941 711.862,960.941 "/>
<path clip-path="url(#clip642)" d="M885.182 1158.47 L885.182 1423.18 L1023.84 1423.18 L1023.84 1158.47 L885.182 1158.47 L885.182 1158.47  Z" fill="#4682b4" fill-rule="evenodd" fill-opacity="0.7"/>
<polyline clip-path="url(#clip642)" style="stroke:#000000; stroke-linecap:round; stroke-linejoin:round; stroke-width:4; stroke-opacity:0.7; fill:none" points="885.182,1158.47 885.182,1423.18 1023.84,1423.18 1023.84,1158.47 885.182,1158.47 "/>
<path clip-path="url(#clip642)" d="M1058.5 951.124 L1058.5 1423.18 L1197.16 1423.18 L1197.16 951.124 L1058.5 951.124 L1058.5 951.124  Z" fill="#4682b4" fill-rule="evenodd" fill-opacity="0.7"/>
<polyline clip-path="url(#clip642)" style="stroke:#000000; stroke-linecap:round; stroke-linejoin:round; stroke-width:4; stroke-opacity:0.7; fill:none" points="1058.5,951.124 1058.5,1423.18 1197.16,1423.18 1197.16,951.124 1058.5,951.124 "/>
<path clip-path="url(#clip642)" d="M1231.82 955.433 L1231.82 1423.18 L1370.48 1423.18 L1370.48 955.433 L1231.82 955.433 L1231.82 955.433  Z" fill="#4682b4" fill-rule="evenodd" fill-opacity="0.7"/>
<polyline clip-path="url(#clip642)" style="stroke:#000000; stroke-linecap:round; stroke-linejoin:round; stroke-width:4; stroke-opacity:0.7; fill:none" points="1231.82,955.433 1231.82,1423.18 1370.48,1423.18 1370.48,955.433 1231.82,955.433 "/>
<path clip-path="url(#clip642)" d="M1405.14 1111.45 L1405.14 1423.18 L1543.8 1423.18 L1543.8 1111.45 L1405.14 1111.45 L1405.14 1111.45  Z" fill="#4682b4" fill-rule="evenodd" fill-opacity="0.7"/>
<polyline clip-path="url(#clip642)" style="stroke:#000000; stroke-linecap:round; stroke-linejoin:round; stroke-width:4; stroke-opacity:0.7; fill:none" points="1405.14,1111.45 1405.14,1423.18 1543.8,1423.18 1543.8,1111.45 1405.14,1111.45 "/>
<path clip-path="url(#clip642)" d="M1578.46 1146.08 L1578.46 1423.18 L1717.12 1423.18 L1717.12 1146.08 L1578.46 1146.08 L1578.46 1146.08  Z" fill="#4682b4" fill-rule="evenodd" fill-opacity="0.7"/>
<polyline clip-path="url(#clip642)" style="stroke:#000000; stroke-linecap:round; stroke-linejoin:round; stroke-width:4; stroke-opacity:0.7; fill:none" points="1578.46,1146.08 1578.46,1423.18 1717.12,1423.18 1717.12,1146.08 1578.46,1146.08 "/>
<path clip-path="url(#clip642)" d="M1751.78 838.3 L1751.78 1423.18 L1890.44 1423.18 L1890.44 838.3 L1751.78 838.3 L1751.78 838.3  Z" fill="#4682b4" fill-rule="evenodd" fill-opacity="0.7"/>
<polyline clip-path="url(#clip642)" style="stroke:#000000; stroke-linecap:round; stroke-linejoin:round; stroke-width:4; stroke-opacity:0.7; fill:none" points="1751.78,838.3 1751.78,1423.18 1890.44,1423.18 1890.44,838.3 1751.78,838.3 "/>
<path clip-path="url(#clip642)" d="M1925.1 956.737 L1925.1 1423.18 L2063.76 1423.18 L2063.76 956.737 L1925.1 956.737 L1925.1 956.737  Z" fill="#4682b4" fill-rule="evenodd" fill-opacity="0.7"/>
<polyline clip-path="url(#clip642)" style="stroke:#000000; stroke-linecap:round; stroke-linejoin:round; stroke-width:4; stroke-opacity:0.7; fill:none" points="1925.1,956.737 1925.1,1423.18 2063.76,1423.18 2063.76,956.737 1925.1,956.737 "/>
<path clip-path="url(#clip642)" d="M2098.42 106.192 L2098.42 1423.18 L2237.08 1423.18 L2237.08 106.192 L2098.42 106.192 L2098.42 106.192  Z" fill="#4682b4" fill-rule="evenodd" fill-opacity="0.7"/>
<polyline clip-path="url(#clip642)" style="stroke:#000000; stroke-linecap:round; stroke-linejoin:round; stroke-width:4; stroke-opacity:0.7; fill:none" points="2098.42,106.192 2098.42,1423.18 2237.08,1423.18 2237.08,106.192 2098.42,106.192 "/>
<circle clip-path="url(#clip642)" style="fill:#4682b4; stroke:none; fill-opacity:0" cx="434.55" cy="207.707" r="2"/>
<circle clip-path="url(#clip642)" style="fill:#4682b4; stroke:none; fill-opacity:0" cx="607.87" cy="935.171" r="2"/>
<circle clip-path="url(#clip642)" style="fill:#4682b4; stroke:none; fill-opacity:0" cx="781.19" cy="960.941" r="2"/>
<circle clip-path="url(#clip642)" style="fill:#4682b4; stroke:none; fill-opacity:0" cx="954.51" cy="1158.47" r="2"/>
<circle clip-path="url(#clip642)" style="fill:#4682b4; stroke:none; fill-opacity:0" cx="1127.83" cy="951.124" r="2"/>
<circle clip-path="url(#clip642)" style="fill:#4682b4; stroke:none; fill-opacity:0" cx="1301.15" cy="955.433" r="2"/>
<circle clip-path="url(#clip642)" style="fill:#4682b4; stroke:none; fill-opacity:0" cx="1474.47" cy="1111.45" r="2"/>
<circle clip-path="url(#clip642)" style="fill:#4682b4; stroke:none; fill-opacity:0" cx="1647.79" cy="1146.08" r="2"/>
<circle clip-path="url(#clip642)" style="fill:#4682b4; stroke:none; fill-opacity:0" cx="1821.11" cy="838.3" r="2"/>
<circle clip-path="url(#clip642)" style="fill:#4682b4; stroke:none; fill-opacity:0" cx="1994.43" cy="956.737" r="2"/>
<circle clip-path="url(#clip642)" style="fill:#4682b4; stroke:none; fill-opacity:0" cx="2167.75" cy="106.192" r="2"/>
</svg>
