<?xml version="1.0" encoding="utf-8"?>
<svg xmlns="http://www.w3.org/2000/svg" xmlns:xlink="http://www.w3.org/1999/xlink" width="700" height="500" viewBox="0 0 2800 2000">
<defs>
  <clipPath id="clip820">
    <rect x="0" y="0" width="2800" height="2000"/>
  </clipPath>
</defs>
<path clip-path="url(#clip820)" d="M0 2000 L2800 2000 L2800 -4.44089e-14 L0 -4.44089e-14  Z" fill="#ffffff" fill-rule="evenodd" fill-opacity="1"/>
<defs>
  <clipPath id="clip821">
    <rect x="565" y="125" width="2109" height="1541"/>
  </clipPath>
</defs>
<path clip-path="url(#clip820)" d="M565.706 1666 L2674.02 1666 L2674.02 125.984 L565.706 125.984  Z" fill="#ffffff" fill-rule="evenodd" fill-opacity="1"/>
<polyline clip-path="url(#clip821)" style="stroke:#000000; stroke-linecap:round; stroke-linejoin:round; stroke-width:2; stroke-opacity:0.1; fill:none" points="625.376,1666 625.376,125.984 "/>
<polyline clip-path="url(#clip821)" style="stroke:#000000; stroke-linecap:round; stroke-linejoin:round; stroke-width:2; stroke-opacity:0.1; fill:none" points="1288.37,1666 1288.37,125.984 "/>
<polyline clip-path="url(#clip821)" style="stroke:#000000; stroke-linecap:round; stroke-linejoin:round; stroke-width:2; stroke-opacity:0.1; fill:none" points="1951.36,1666 1951.36,125.984 "/>
<polyline clip-path="url(#clip821)" style="stroke:#000000; stroke-linecap:round; stroke-linejoin:round; stroke-width:2; stroke-opacity:0.1; fill:none" points="2614.35,1666 2614.35,125.984 "/>
<polyline clip-path="url(#clip821)" style="stroke:#000000; stroke-linecap:round; stroke-linejoin:round; stroke-width:2; stroke-opacity:0.1; fill:none" points="565.706,1522.27 2674.02,1522.27 "/>
<polyline clip-path="url(#clip821)" style="stroke:#000000; stroke-linecap:round; stroke-linejoin:round; stroke-width:2; stroke-opacity:0.1; fill:none" points="565.706,1217.88 2674.02,1217.88 "/>
<polyline clip-path="url(#clip821)" style="stroke:#000000; stroke-linecap:round; stroke-linejoin:round; stroke-width:2; stroke-opacity:0.1; fill:none" points="565.706,913.493 2674.02,913.493 "/>
<polyline clip-path="url(#clip821)" style="stroke:#000000; stroke-linecap:round; stroke-linejoin:round; stroke-width:2; stroke-opacity:0.1; fill:none" points="565.706,609.106 2674.02,609.106 "/>
<polyline clip-path="url(#clip821)" style="stroke:#000000; stroke-linecap:round; stroke-linejoin:round; stroke-width:2; stroke-opacity:0.1; fill:none" points="565.706,304.718 2674.02,304.718 "/>
<polyline clip-path="url(#clip820)" style="stroke:#000000; stroke-linecap:round; stroke-linejoin:round; stroke-width:4; stroke-opacity:1; fill:none" points="565.706,1666 2674.02,1666 "/>
<polyline clip-path="url(#clip820)" style="stroke:#000000; stroke-linecap:round; stroke-linejoin:round; stroke-width:4; stroke-opacity:1; fill:none" points="625.376,1666 625.376,1647.1 "/>
<polyline clip-path="url(#clip820)" style="stroke:#000000; stroke-linecap:round; stroke-linejoin:round; stroke-width:4; stroke-opacity:1; fill:none" points="1288.37,1666 1288.37,1647.1 "/>
<polyline clip-path="url(#clip820)" style="stroke:#000000; stroke-linecap:round; stroke-linejoin:round; stroke-width:4; stroke-opacity:1; fill:none" points="1951.36,1666 1951.36,1647.1 "/>
<polyline clip-path="url(#clip820)" style="stroke:#000000; stroke-linecap:round; stroke-linejoin:round; stroke-width:4; stroke-opacity:1; fill:none" points="2614.35,1666 2614.35,1647.1 "/>
<path clip-path="url(#clip820)" d="M556.583 1736.23 L556.583 1724.63 L547.034 1724.63 L547.034 1719.83 L562.37 1719.83 L562.37 1738.38 Q558.984 1740.78 554.904 1742.02 Q550.824 1743.24 546.195 1743.24 Q536.068 1743.24 530.338 1737.33 Q524.638 1731.4 524.638 1720.84 Q524.638 1710.25 530.338 1704.35 Q536.068 1698.42 546.195 1698.42 Q550.419 1698.42 554.21 1699.46 Q558.029 1700.5 561.241 1702.53 L561.241 1708.75 Q558 1706 554.355 1704.61 Q550.709 1703.22 546.687 1703.22 Q538.759 1703.22 534.766 1707.65 Q530.801 1712.07 530.801 1720.84 Q530.801 1729.58 534.766 1734.01 Q538.759 1738.43 546.687 1738.43 Q549.783 1738.43 552.213 1737.91 Q554.644 1737.36 556.583 1736.23 Z" fill="#000000" fill-rule="nonzero" fill-opacity="1" /><path clip-path="url(#clip820)" d="M587.485 1704.96 L579.557 1726.45 L595.442 1726.45 L587.485 1704.96 M584.187 1699.2 L590.813 1699.2 L607.277 1742.4 L601.2 1742.4 L597.265 1731.32 L577.792 1731.32 L573.857 1742.4 L567.694 1742.4 L584.187 1699.2 Z" fill="#000000" fill-rule="nonzero" fill-opacity="1" /><path clip-path="url(#clip820)" d="M634.071 1722.14 Q635.951 1722.78 637.716 1724.86 Q639.51 1726.95 641.304 1730.59 L647.236 1742.4 L640.957 1742.4 L635.43 1731.32 Q633.289 1726.98 631.264 1725.56 Q629.267 1724.14 625.795 1724.14 L619.429 1724.14 L619.429 1742.4 L613.585 1742.4 L613.585 1699.2 L626.779 1699.2 Q634.186 1699.2 637.832 1702.29 Q641.478 1705.39 641.478 1711.64 Q641.478 1715.72 639.568 1718.41 Q637.687 1721.1 634.071 1722.14 M619.429 1704 L619.429 1719.34 L626.779 1719.34 Q631.003 1719.34 633.145 1717.4 Q635.315 1715.43 635.315 1711.64 Q635.315 1707.85 633.145 1705.94 Q631.003 1704 626.779 1704 L619.429 1704 Z" fill="#000000" fill-rule="nonzero" fill-opacity="1" /><path clip-path="url(#clip820)" d="M684.157 1702.53 L684.157 1708.69 Q681.206 1705.94 677.849 1704.58 Q674.522 1703.22 670.76 1703.22 Q663.353 1703.22 659.418 1707.76 Q655.482 1712.28 655.482 1720.84 Q655.482 1729.38 659.418 1733.92 Q663.353 1738.43 670.76 1738.43 Q674.522 1738.43 677.849 1737.07 Q681.206 1735.71 684.157 1732.96 L684.157 1739.07 Q681.09 1741.15 677.647 1742.2 Q674.232 1743.24 670.413 1743.24 Q660.604 1743.24 654.962 1737.25 Q649.319 1731.23 649.319 1720.84 Q649.319 1710.42 654.962 1704.43 Q660.604 1698.42 670.413 1698.42 Q674.29 1698.42 677.705 1699.46 Q681.148 1700.47 684.157 1702.53 Z" fill="#000000" fill-rule="nonzero" fill-opacity="1" /><path clip-path="url(#clip820)" d="M693.185 1699.2 L699.03 1699.2 L699.03 1716.91 L720.268 1716.91 L720.268 1699.2 L726.113 1699.2 L726.113 1742.4 L720.268 1742.4 L720.268 1721.82 L699.03 1721.82 L699.03 1742.4 L693.185 1742.4 L693.185 1699.2 Z" fill="#000000" fill-rule="nonzero" fill-opacity="1" /><path clip-path="url(#clip820)" d="M1200.82 1702.53 L1200.82 1708.69 Q1197.87 1705.94 1194.52 1704.58 Q1191.19 1703.22 1187.43 1703.22 Q1180.02 1703.22 1176.08 1707.76 Q1172.15 1712.28 1172.15 1720.84 Q1172.15 1729.38 1176.08 1733.92 Q1180.02 1738.43 1187.43 1738.43 Q1191.19 1738.43 1194.52 1737.07 Q1197.87 1735.71 1200.82 1732.96 L1200.82 1739.07 Q1197.76 1741.15 1194.31 1742.2 Q1190.9 1743.24 1187.08 1743.24 Q1177.27 1743.24 1171.63 1737.25 Q1165.99 1731.23 1165.99 1720.84 Q1165.99 1710.42 1171.63 1704.43 Q1177.27 1698.42 1187.08 1698.42 Q1190.96 1698.42 1194.37 1699.46 Q1197.81 1700.47 1200.82 1702.53 Z" fill="#000000" fill-rule="nonzero" fill-opacity="1" /><path clip-path="url(#clip820)" d="M1209.85 1699.2 L1215.7 1699.2 L1215.7 1716.91 L1236.93 1716.91 L1236.93 1699.2 L1242.78 1699.2 L1242.78 1742.4 L1236.93 1742.4 L1236.93 1721.82 L1215.7 1721.82 L1215.7 1742.4 L1209.85 1742.4 L1209.85 1699.2 Z" fill="#000000" fill-rule="nonzero" fill-opacity="1" /><path clip-path="url(#clip820)" d="M1254.41 1699.2 L1263.12 1699.2 L1274.14 1728.6 L1285.23 1699.2 L1293.94 1699.2 L1293.94 1742.4 L1288.24 1742.4 L1288.24 1704.46 L1277.1 1734.09 L1271.22 1734.09 L1260.08 1704.46 L1260.08 1742.4 L1254.41 1742.4 L1254.41 1699.2 Z" fill="#000000" fill-rule="nonzero" fill-opacity="1" /><path clip-path="url(#clip820)" d="M1305.54 1699.2 L1314.25 1699.2 L1325.27 1728.6 L1336.35 1699.2 L1345.06 1699.2 L1345.06 1742.4 L1339.36 1742.4 L1339.36 1704.46 L1328.22 1734.09 L1322.35 1734.09 L1311.21 1704.46 L1311.21 1742.4 L1305.54 1742.4 L1305.54 1699.2 Z" fill="#000000" fill-rule="nonzero" fill-opacity="1" /><path clip-path="url(#clip820)" d="M1353.74 1723.79 L1369.34 1723.79 L1369.34 1728.54 L1353.74 1728.54 L1353.74 1723.79 Z" fill="#000000" fill-rule="nonzero" fill-opacity="1" /><path clip-path="url(#clip820)" d="M1378.05 1699.2 L1385.92 1699.2 L1405.08 1735.34 L1405.08 1699.2 L1410.75 1699.2 L1410.75 1742.4 L1402.88 1742.4 L1383.72 1706.26 L1383.72 1742.4 L1378.05 1742.4 L1378.05 1699.2 Z" fill="#000000" fill-rule="nonzero" fill-opacity="1" /><path clip-path="url(#clip820)" d="M1872.16 1702.53 L1872.16 1708.69 Q1869.21 1705.94 1865.85 1704.58 Q1862.53 1703.22 1858.76 1703.22 Q1851.36 1703.22 1847.42 1707.76 Q1843.49 1712.28 1843.49 1720.84 Q1843.49 1729.38 1847.42 1733.92 Q1851.36 1738.43 1858.76 1738.43 Q1862.53 1738.43 1865.85 1737.07 Q1869.21 1735.71 1872.16 1732.96 L1872.16 1739.07 Q1869.09 1741.15 1865.65 1742.2 Q1862.24 1743.24 1858.42 1743.24 Q1848.61 1743.24 1842.97 1737.25 Q1837.32 1731.23 1837.32 1720.84 Q1837.32 1710.42 1842.97 1704.43 Q1848.61 1698.42 1858.42 1698.42 Q1862.29 1698.42 1865.71 1699.46 Q1869.15 1700.47 1872.16 1702.53 Z" fill="#000000" fill-rule="nonzero" fill-opacity="1" /><path clip-path="url(#clip820)" d="M1881.19 1699.2 L1887.03 1699.2 L1887.03 1716.91 L1908.27 1716.91 L1908.27 1699.2 L1914.12 1699.2 L1914.12 1742.4 L1908.27 1742.4 L1908.27 1721.82 L1887.03 1721.82 L1887.03 1742.4 L1881.19 1742.4 L1881.19 1699.2 Z" fill="#000000" fill-rule="nonzero" fill-opacity="1" /><path clip-path="url(#clip820)" d="M1925.75 1699.2 L1934.46 1699.2 L1945.48 1728.6 L1956.56 1699.2 L1965.27 1699.2 L1965.27 1742.4 L1959.57 1742.4 L1959.57 1704.46 L1948.43 1734.09 L1942.56 1734.09 L1931.42 1704.46 L1931.42 1742.4 L1925.75 1742.4 L1925.75 1699.2 Z" fill="#000000" fill-rule="nonzero" fill-opacity="1" /><path clip-path="url(#clip820)" d="M1976.88 1699.2 L1985.59 1699.2 L1996.61 1728.6 L2007.69 1699.2 L2016.4 1699.2 L2016.4 1742.4 L2010.7 1742.4 L2010.7 1704.46 L1999.56 1734.09 L1993.69 1734.09 L1982.55 1704.46 L1982.55 1742.4 L1976.88 1742.4 L1976.88 1699.2 Z" fill="#000000" fill-rule="nonzero" fill-opacity="1" /><path clip-path="url(#clip820)" d="M2025.08 1723.79 L2040.68 1723.79 L2040.68 1728.54 L2025.08 1728.54 L2025.08 1723.79 Z" fill="#000000" fill-rule="nonzero" fill-opacity="1" /><path clip-path="url(#clip820)" d="M2054.42 1700.79 L2054.42 1709.99 L2065.39 1709.99 L2065.39 1714.13 L2054.42 1714.13 L2054.42 1731.72 Q2054.42 1735.68 2055.49 1736.81 Q2056.59 1737.94 2059.92 1737.94 L2065.39 1737.94 L2065.39 1742.4 L2059.92 1742.4 Q2053.76 1742.4 2051.41 1740.11 Q2049.07 1737.8 2049.07 1731.72 L2049.07 1714.13 L2045.16 1714.13 L2045.16 1709.99 L2049.07 1709.99 L2049.07 1700.79 L2054.42 1700.79 Z" fill="#000000" fill-rule="nonzero" fill-opacity="1" /><path clip-path="url(#clip820)" d="M2529.71 1702.53 L2529.71 1708.69 Q2526.76 1705.94 2523.4 1704.58 Q2520.08 1703.22 2516.31 1703.22 Q2508.91 1703.22 2504.97 1707.76 Q2501.04 1712.28 2501.04 1720.84 Q2501.04 1729.38 2504.97 1733.92 Q2508.91 1738.43 2516.31 1738.43 Q2520.08 1738.43 2523.4 1737.07 Q2526.76 1735.71 2529.71 1732.96 L2529.71 1739.07 Q2526.64 1741.15 2523.2 1742.2 Q2519.79 1743.24 2515.97 1743.24 Q2506.16 1743.24 2500.52 1737.25 Q2494.87 1731.23 2494.87 1720.84 Q2494.87 1710.42 2500.52 1704.43 Q2506.16 1698.42 2515.97 1698.42 Q2519.84 1698.42 2523.26 1699.46 Q2526.7 1700.47 2529.71 1702.53 Z" fill="#000000" fill-rule="nonzero" fill-opacity="1" /><path clip-path="url(#clip820)" d="M2538.74 1699.2 L2544.58 1699.2 L2544.58 1716.91 L2565.82 1716.91 L2565.82 1699.2 L2571.67 1699.2 L2571.67 1742.4 L2565.82 1742.4 L2565.82 1721.82 L2544.58 1721.82 L2544.58 1742.4 L2538.74 1742.4 L2538.74 1699.2 Z" fill="#000000" fill-rule="nonzero" fill-opacity="1" /><path clip-path="url(#clip820)" d="M2583.3 1699.2 L2592.01 1699.2 L2603.03 1728.6 L2614.12 1699.2 L2622.82 1699.2 L2622.82 1742.4 L2617.12 1742.4 L2617.12 1704.46 L2605.98 1734.09 L2600.11 1734.09 L2588.97 1704.46 L2588.97 1742.4 L2583.3 1742.4 L2583.3 1699.2 Z" fill="#000000" fill-rule="nonzero" fill-opacity="1" /><path clip-path="url(#clip820)" d="M2634.43 1699.2 L2643.14 1699.2 L2654.16 1728.6 L2665.24 1699.2 L2673.95 1699.2 L2673.95 1742.4 L2668.25 1742.4 L2668.25 1704.46 L2657.11 1734.09 L2651.24 1734.09 L2640.1 1704.46 L2640.1 1742.4 L2634.43 1742.4 L2634.43 1699.2 Z" fill="#000000" fill-rule="nonzero" fill-opacity="1" /><path clip-path="url(#clip820)" d="M2682.63 1723.79 L2698.23 1723.79 L2698.23 1728.54 L2682.63 1728.54 L2682.63 1723.79 Z" fill="#000000" fill-rule="nonzero" fill-opacity="1" /><path clip-path="url(#clip820)" d="M2706.94 1699.2 L2712.78 1699.2 L2712.78 1737.48 L2733.82 1737.48 L2733.82 1742.4 L2706.94 1742.4 L2706.94 1699.2 Z" fill="#000000" fill-rule="nonzero" fill-opacity="1" /><polyline clip-path="url(#clip820)" style="stroke:#000000; stroke-linecap:round; stroke-linejoin:round; stroke-width:4; stroke-opacity:1; fill:none" points="565.706,1666 565.706,125.984 "/>
<polyline clip-path="url(#clip820)" style="stroke:#000000; stroke-linecap:round; stroke-linejoin:round; stroke-width:4; stroke-opacity:1; fill:none" points="565.706,1522.27 584.604,1522.27 "/>
<polyline clip-path="url(#clip820)" style="stroke:#000000; stroke-linecap:round; stroke-linejoin:round; stroke-width:4; stroke-opacity:1; fill:none" points="565.706,1217.88 584.604,1217.88 "/>
<polyline clip-path="url(#clip820)" style="stroke:#000000; stroke-linecap:round; stroke-linejoin:round; stroke-width:4; stroke-opacity:1; fill:none" points="565.706,913.493 584.604,913.493 "/>
<polyline clip-path="url(#clip820)" style="stroke:#000000; stroke-linecap:round; stroke-linejoin:round; stroke-width:4; stroke-opacity:1; fill:none" points="565.706,609.106 584.604,609.106 "/>
<polyline clip-path="url(#clip820)" style="stroke:#000000; stroke-linecap:round; stroke-linejoin:round; stroke-width:4; stroke-opacity:1; fill:none" points="565.706,304.718 584.604,304.718 "/>
<path clip-path="url(#clip820)" d="M446.797 1522.83 L483.892 1522.83 L483.892 1527.75 L446.797 1527.75 L446.797 1522.83 Z" fill="#000000" fill-rule="nonzero" fill-opacity="1" /><path clip-path="url(#clip820)" d="M496.681 1542.97 L496.681 1537.65 Q498.88 1538.69 501.137 1539.24 Q503.394 1539.79 505.564 1539.79 Q511.351 1539.79 514.389 1535.91 Q517.456 1532.01 517.89 1524.08 Q516.212 1526.57 513.637 1527.9 Q511.062 1529.23 507.937 1529.23 Q501.455 1529.23 497.665 1525.32 Q493.903 1521.39 493.903 1514.59 Q493.903 1507.93 497.839 1503.91 Q501.774 1499.89 508.313 1499.89 Q515.807 1499.89 519.742 1505.65 Q523.706 1511.37 523.706 1522.31 Q523.706 1532.53 518.845 1538.63 Q514.013 1544.71 505.825 1544.71 Q503.626 1544.71 501.369 1544.27 Q499.112 1543.84 496.681 1542.97 M508.313 1524.66 Q512.248 1524.66 514.534 1521.97 Q516.849 1519.27 516.849 1514.59 Q516.849 1509.93 514.534 1507.24 Q512.248 1504.52 508.313 1504.52 Q504.378 1504.52 502.063 1507.24 Q499.777 1509.93 499.777 1514.59 Q499.777 1519.27 502.063 1521.97 Q504.378 1524.66 508.313 1524.66 Z" fill="#000000" fill-rule="nonzero" fill-opacity="1" /><path clip-path="url(#clip820)" d="M446.681 1218.45 L483.776 1218.45 L483.776 1223.36 L446.681 1223.36 L446.681 1218.45 Z" fill="#000000" fill-rule="nonzero" fill-opacity="1" /><path clip-path="url(#clip820)" d="M508.892 1218.97 Q504.725 1218.97 502.323 1221.19 Q499.951 1223.42 499.951 1227.33 Q499.951 1231.23 502.323 1233.46 Q504.725 1235.69 508.892 1235.69 Q513.058 1235.69 515.46 1233.46 Q517.862 1231.21 517.862 1227.33 Q517.862 1223.42 515.46 1221.19 Q513.087 1218.97 508.892 1218.97 M503.047 1216.48 Q499.285 1215.55 497.173 1212.98 Q495.09 1210.4 495.09 1206.7 Q495.09 1201.52 498.764 1198.51 Q502.468 1195.5 508.892 1195.5 Q515.344 1195.5 519.019 1198.51 Q522.694 1201.52 522.694 1206.7 Q522.694 1210.4 520.581 1212.98 Q518.498 1215.55 514.766 1216.48 Q518.99 1217.46 521.334 1220.33 Q523.706 1223.19 523.706 1227.33 Q523.706 1233.61 519.858 1236.96 Q516.039 1240.32 508.892 1240.32 Q501.745 1240.32 497.896 1236.96 Q494.077 1233.61 494.077 1227.33 Q494.077 1223.19 496.45 1220.33 Q498.822 1217.46 503.047 1216.48 M500.906 1207.25 Q500.906 1210.6 502.989 1212.48 Q505.101 1214.37 508.892 1214.37 Q512.653 1214.37 514.766 1212.48 Q516.907 1210.6 516.907 1207.25 Q516.907 1203.89 514.766 1202.01 Q512.653 1200.13 508.892 1200.13 Q505.101 1200.13 502.989 1202.01 Q500.906 1203.89 500.906 1207.25 Z" fill="#000000" fill-rule="nonzero" fill-opacity="1" /><path clip-path="url(#clip820)" d="M447.694 914.058 L484.789 914.058 L484.789 918.976 L447.694 918.976 L447.694 914.058 Z" fill="#000000" fill-rule="nonzero" fill-opacity="1" /><path clip-path="url(#clip820)" d="M495.929 891.893 L523.706 891.893 L523.706 894.382 L508.024 935.093 L501.918 935.093 L516.675 896.812 L495.929 896.812 L495.929 891.893 Z" fill="#000000" fill-rule="nonzero" fill-opacity="1" /><path clip-path="url(#clip820)" d="M446.363 609.67 L483.458 609.67 L483.458 614.589 L446.363 614.589 L446.363 609.67 Z" fill="#000000" fill-rule="nonzero" fill-opacity="1" /><path clip-path="url(#clip820)" d="M509.297 606.776 Q505.362 606.776 503.047 609.467 Q500.761 612.158 500.761 616.846 Q500.761 621.504 503.047 624.224 Q505.362 626.915 509.297 626.915 Q513.232 626.915 515.518 624.224 Q517.833 621.504 517.833 616.846 Q517.833 612.158 515.518 609.467 Q513.232 606.776 509.297 606.776 M520.9 588.46 L520.9 593.784 Q518.701 592.743 516.444 592.193 Q514.216 591.643 512.017 591.643 Q506.23 591.643 503.163 595.549 Q500.124 599.456 499.69 607.355 Q501.398 604.838 503.973 603.507 Q506.548 602.147 509.644 602.147 Q516.154 602.147 519.916 606.111 Q523.706 610.046 523.706 616.846 Q523.706 623.501 519.771 627.523 Q515.836 631.545 509.297 631.545 Q501.803 631.545 497.839 625.815 Q493.874 620.057 493.874 609.149 Q493.874 598.906 498.736 592.83 Q503.597 586.724 511.785 586.724 Q513.984 586.724 516.212 587.158 Q518.469 587.592 520.9 588.46 Z" fill="#000000" fill-rule="nonzero" fill-opacity="1" /><path clip-path="url(#clip820)" d="M447.81 305.282 L484.905 305.282 L484.905 310.201 L447.81 310.201 L447.81 305.282 Z" fill="#000000" fill-rule="nonzero" fill-opacity="1" /><path clip-path="url(#clip820)" d="M497.578 283.118 L520.524 283.118 L520.524 288.037 L502.931 288.037 L502.931 298.627 Q504.204 298.193 505.477 297.99 Q506.751 297.759 508.024 297.759 Q515.257 297.759 519.482 301.723 Q523.706 305.687 523.706 312.458 Q523.706 319.431 519.366 323.308 Q515.026 327.157 507.127 327.157 Q504.407 327.157 501.571 326.694 Q498.764 326.231 495.755 325.305 L495.755 319.431 Q498.359 320.849 501.137 321.543 Q503.915 322.238 507.011 322.238 Q512.017 322.238 514.939 319.605 Q517.862 316.972 517.862 312.458 Q517.862 307.944 514.939 305.311 Q512.017 302.678 507.011 302.678 Q504.667 302.678 502.323 303.199 Q500.009 303.719 497.578 304.819 L497.578 283.118 Z" fill="#000000" fill-rule="nonzero" fill-opacity="1" /><path clip-path="url(#clip820)" d="M348.921 1433.29 L372.57 1442.01 L372.57 1424.54 L348.921 1433.29 M342.587 1436.92 L342.587 1429.63 L390.107 1411.52 L390.107 1418.2 L377.917 1422.53 L377.917 1443.95 L390.107 1448.28 L390.107 1455.06 L342.587 1436.92 Z" fill="#000000" fill-rule="nonzero" fill-opacity="1" /><path clip-path="url(#clip820)" d="M368.591 1375.2 L390.107 1375.2 L390.107 1381.06 L368.782 1381.06 Q363.721 1381.06 361.207 1383.03 Q358.692 1385 358.692 1388.95 Q358.692 1393.69 361.716 1396.43 Q364.74 1399.17 369.96 1399.17 L390.107 1399.17 L390.107 1405.06 L354.459 1405.06 L354.459 1399.17 L359.997 1399.17 Q356.783 1397.07 355.191 1394.23 Q353.6 1391.37 353.6 1387.65 Q353.6 1381.5 357.419 1378.35 Q361.207 1375.2 368.591 1375.2 Z" fill="#000000" fill-rule="nonzero" fill-opacity="1" /><path clip-path="url(#clip820)" d="M368.591 1333.89 L390.107 1333.89 L390.107 1339.74 L368.782 1339.74 Q363.721 1339.74 361.207 1341.72 Q358.692 1343.69 358.692 1347.64 Q358.692 1352.38 361.716 1355.12 Q364.74 1357.85 369.96 1357.85 L390.107 1357.85 L390.107 1363.74 L354.459 1363.74 L354.459 1357.85 L359.997 1357.85 Q356.783 1355.75 355.191 1352.92 Q353.6 1350.06 353.6 1346.33 Q353.6 1340.19 357.419 1337.04 Q361.207 1333.89 368.591 1333.89 Z" fill="#000000" fill-rule="nonzero" fill-opacity="1" /><path clip-path="url(#clip820)" d="M376.039 1322.81 L354.459 1322.81 L354.459 1316.96 L375.816 1316.96 Q380.877 1316.96 383.423 1314.98 Q385.938 1313.01 385.938 1309.06 Q385.938 1304.32 382.914 1301.58 Q379.89 1298.81 374.67 1298.81 L354.459 1298.81 L354.459 1292.96 L390.107 1292.96 L390.107 1298.81 L384.633 1298.81 Q387.879 1300.95 389.471 1303.78 Q391.03 1306.58 391.03 1310.3 Q391.03 1316.45 387.211 1319.63 Q383.391 1322.81 376.039 1322.81 M353.6 1308.08 L353.6 1308.08 Z" fill="#000000" fill-rule="nonzero" fill-opacity="1" /><path clip-path="url(#clip820)" d="M372.188 1264.69 Q372.188 1271.79 373.811 1274.53 Q375.434 1277.26 379.349 1277.26 Q382.468 1277.26 384.314 1275.23 Q386.129 1273.16 386.129 1269.63 Q386.129 1264.76 382.691 1261.83 Q379.222 1258.87 373.493 1258.87 L372.188 1258.87 L372.188 1264.69 M369.769 1253.01 L390.107 1253.01 L390.107 1258.87 L384.696 1258.87 Q387.943 1260.87 389.502 1263.87 Q391.03 1266.86 391.03 1271.19 Q391.03 1276.66 387.975 1279.91 Q384.887 1283.12 379.731 1283.12 Q373.715 1283.12 370.66 1279.11 Q367.604 1275.07 367.604 1267.08 L367.604 1258.87 L367.031 1258.87 Q362.989 1258.87 360.793 1261.54 Q358.565 1264.18 358.565 1268.99 Q358.565 1272.05 359.297 1274.94 Q360.029 1277.84 361.493 1280.51 L356.082 1280.51 Q354.841 1277.3 354.236 1274.27 Q353.6 1271.25 353.6 1268.38 Q353.6 1260.65 357.61 1256.83 Q361.621 1253.01 369.769 1253.01 Z" fill="#000000" fill-rule="nonzero" fill-opacity="1" /><path clip-path="url(#clip820)" d="M340.582 1240.95 L340.582 1235.09 L390.107 1235.09 L390.107 1240.95 L340.582 1240.95 Z" fill="#000000" fill-rule="nonzero" fill-opacity="1" /><path clip-path="url(#clip820)" d="M354.459 1222.84 L354.459 1216.98 L390.107 1216.98 L390.107 1222.84 L354.459 1222.84 M340.582 1222.84 L340.582 1216.98 L347.998 1216.98 L347.998 1222.84 L340.582 1222.84 Z" fill="#000000" fill-rule="nonzero" fill-opacity="1" /><path clip-path="url(#clip820)" d="M354.459 1207.27 L354.459 1179.46 L359.806 1179.46 L385.428 1201.48 L385.428 1179.46 L390.107 1179.46 L390.107 1208.07 L384.76 1208.07 L359.138 1186.04 L359.138 1207.27 L354.459 1207.27 Z" fill="#000000" fill-rule="nonzero" fill-opacity="1" /><path clip-path="url(#clip820)" d="M370.819 1140.02 L373.684 1140.02 L373.684 1166.95 Q379.731 1166.57 382.914 1163.32 Q386.065 1160.04 386.065 1154.22 Q386.065 1150.84 385.237 1147.69 Q384.41 1144.51 382.755 1141.39 L388.293 1141.39 Q389.63 1144.54 390.33 1147.85 Q391.03 1151.16 391.03 1154.57 Q391.03 1163.1 386.065 1168.09 Q381.1 1173.06 372.633 1173.06 Q363.88 1173.06 358.756 1168.35 Q353.6 1163.61 353.6 1155.58 Q353.6 1148.39 358.247 1144.22 Q362.862 1140.02 370.819 1140.02 M369.1 1145.88 Q364.294 1145.94 361.43 1148.58 Q358.565 1151.19 358.565 1155.52 Q358.565 1160.42 361.334 1163.38 Q364.103 1166.31 369.132 1166.76 L369.1 1145.88 Z" fill="#000000" fill-rule="nonzero" fill-opacity="1" /><path clip-path="url(#clip820)" d="M359.87 1106.95 L340.582 1106.95 L340.582 1101.09 L390.107 1101.09 L390.107 1106.95 L384.76 1106.95 Q387.943 1108.8 389.502 1111.63 Q391.03 1114.43 391.03 1118.38 Q391.03 1124.84 385.874 1128.91 Q380.718 1132.95 372.315 1132.95 Q363.912 1132.95 358.756 1128.91 Q353.6 1124.84 353.6 1118.38 Q353.6 1114.43 355.159 1111.63 Q356.687 1108.8 359.87 1106.95 M372.315 1126.91 Q378.776 1126.91 382.468 1124.27 Q386.129 1121.59 386.129 1116.94 Q386.129 1112.3 382.468 1109.62 Q378.776 1106.95 372.315 1106.95 Q365.854 1106.95 362.193 1109.62 Q358.501 1112.3 358.501 1116.94 Q358.501 1121.59 362.193 1124.27 Q365.854 1126.91 372.315 1126.91 Z" fill="#000000" fill-rule="nonzero" fill-opacity="1" /><path clip-path="url(#clip820)" d="M340.582 1068.31 L340.582 1062.45 L390.107 1062.45 L390.107 1068.31 L340.582 1068.31 Z" fill="#000000" fill-rule="nonzero" fill-opacity="1" /><path clip-path="url(#clip820)" d="M358.565 1036.39 Q358.565 1041.1 362.257 1043.83 Q365.917 1046.57 372.315 1046.57 Q378.712 1046.57 382.405 1043.87 Q386.065 1041.13 386.065 1036.39 Q386.065 1031.71 382.373 1028.97 Q378.681 1026.23 372.315 1026.23 Q365.981 1026.23 362.289 1028.97 Q358.565 1031.71 358.565 1036.39 M353.6 1036.39 Q353.6 1028.75 358.565 1024.39 Q363.53 1020.03 372.315 1020.03 Q381.068 1020.03 386.065 1024.39 Q391.03 1028.75 391.03 1036.39 Q391.03 1044.06 386.065 1048.42 Q381.068 1052.75 372.315 1052.75 Q363.53 1052.75 358.565 1048.42 Q353.6 1044.06 353.6 1036.39 Z" fill="#000000" fill-rule="nonzero" fill-opacity="1" /><path clip-path="url(#clip820)" d="M371.869 986.861 Q365.504 986.861 362.003 989.503 Q358.501 992.113 358.501 996.856 Q358.501 1001.57 362.003 1004.21 Q365.504 1006.82 371.869 1006.82 Q378.203 1006.82 381.704 1004.21 Q385.206 1001.57 385.206 996.856 Q385.206 992.113 381.704 989.503 Q378.203 986.861 371.869 986.861 M385.683 981.005 Q394.786 981.005 399.21 985.047 Q403.666 989.089 403.666 997.429 Q403.666 1000.52 403.189 1003.25 Q402.743 1005.99 401.788 1008.57 L396.091 1008.57 Q397.491 1005.99 398.16 1003.48 Q398.828 1000.96 398.828 998.352 Q398.828 992.591 395.804 989.726 Q392.813 986.861 386.733 986.861 L383.837 986.861 Q386.988 988.676 388.548 991.508 Q390.107 994.341 390.107 998.288 Q390.107 1004.84 385.11 1008.85 Q380.113 1012.87 371.869 1012.87 Q363.594 1012.87 358.597 1008.85 Q353.6 1004.84 353.6 998.288 Q353.6 994.341 355.159 991.508 Q356.719 988.676 359.87 986.861 L354.459 986.861 L354.459 981.005 L385.683 981.005 Z" fill="#000000" fill-rule="nonzero" fill-opacity="1" /><path clip-path="url(#clip820)" d="M370.819 917.73 L373.684 917.73 L373.684 944.657 Q379.731 944.275 382.914 941.028 Q386.065 937.75 386.065 931.925 Q386.065 928.552 385.237 925.401 Q384.41 922.218 382.755 919.099 L388.293 919.099 Q389.63 922.25 390.33 925.56 Q391.03 928.87 391.03 932.276 Q391.03 940.806 386.065 945.803 Q381.1 950.768 372.633 950.768 Q363.88 950.768 358.756 946.057 Q353.6 941.315 353.6 933.294 Q353.6 926.101 358.247 921.931 Q362.862 917.73 370.819 917.73 M369.1 923.586 Q364.294 923.65 361.43 926.292 Q358.565 928.902 358.565 933.23 Q358.565 938.132 361.334 941.092 Q364.103 944.02 369.132 944.466 L369.1 923.586 Z" fill="#000000" fill-rule="nonzero" fill-opacity="1" /><path clip-path="url(#clip820)" d="M354.459 879.631 L371.806 892.522 L390.107 878.963 L390.107 885.87 L376.103 896.246 L390.107 906.622 L390.107 913.529 L371.456 899.683 L354.459 912.351 L354.459 905.444 L367.159 895.991 L354.459 886.538 L354.459 879.631 Z" fill="#000000" fill-rule="nonzero" fill-opacity="1" /><path clip-path="url(#clip820)" d="M355.828 846.179 L361.302 846.179 Q359.934 848.662 359.265 851.176 Q358.565 853.659 358.565 856.205 Q358.565 861.903 362.193 865.054 Q365.79 868.205 372.315 868.205 Q378.84 868.205 382.468 865.054 Q386.065 861.903 386.065 856.205 Q386.065 853.659 385.396 851.176 Q384.696 848.662 383.328 846.179 L388.738 846.179 Q389.884 848.63 390.457 851.272 Q391.03 853.882 391.03 856.842 Q391.03 864.895 385.969 869.637 Q380.909 874.379 372.315 874.379 Q363.594 874.379 358.597 869.605 Q353.6 864.799 353.6 856.46 Q353.6 853.755 354.173 851.176 Q354.714 848.598 355.828 846.179 Z" fill="#000000" fill-rule="nonzero" fill-opacity="1" /><path clip-path="url(#clip820)" d="M370.819 805.502 L373.684 805.502 L373.684 832.429 Q379.731 832.047 382.914 828.801 Q386.065 825.523 386.065 819.698 Q386.065 816.324 385.237 813.173 Q384.41 809.99 382.755 806.871 L388.293 806.871 Q389.63 810.022 390.33 813.332 Q391.03 816.642 391.03 820.048 Q391.03 828.578 386.065 833.575 Q381.1 838.54 372.633 838.54 Q363.88 838.54 358.756 833.83 Q353.6 829.087 353.6 821.067 Q353.6 813.873 358.247 809.704 Q362.862 805.502 370.819 805.502 M369.1 811.359 Q364.294 811.423 361.43 814.064 Q358.565 816.674 358.565 821.003 Q358.565 825.905 361.334 828.865 Q364.103 831.793 369.132 832.238 L369.1 811.359 Z" fill="#000000" fill-rule="nonzero" fill-opacity="1" /><path clip-path="url(#clip820)" d="M355.509 773.165 L361.048 773.165 Q359.775 775.647 359.138 778.321 Q358.501 780.995 358.501 783.859 Q358.501 788.22 359.838 790.416 Q361.175 792.58 363.849 792.58 Q365.886 792.58 367.063 791.02 Q368.209 789.461 369.259 784.75 L369.705 782.745 Q371.042 776.507 373.493 773.897 Q375.912 771.255 380.272 771.255 Q385.237 771.255 388.134 775.202 Q391.03 779.117 391.03 785.992 Q391.03 788.856 390.457 791.975 Q389.916 795.063 388.802 798.5 L382.755 798.5 Q384.442 795.254 385.301 792.103 Q386.129 788.952 386.129 785.864 Q386.129 781.727 384.728 779.499 Q383.296 777.271 380.718 777.271 Q378.331 777.271 377.057 778.894 Q375.784 780.485 374.607 785.928 L374.129 787.965 Q372.983 793.408 370.628 795.827 Q368.241 798.246 364.103 798.246 Q359.074 798.246 356.337 794.681 Q353.6 791.116 353.6 784.559 Q353.6 781.313 354.077 778.448 Q354.555 775.584 355.509 773.165 Z" fill="#000000" fill-rule="nonzero" fill-opacity="1" /><path clip-path="url(#clip820)" d="M355.509 739.204 L361.048 739.204 Q359.775 741.686 359.138 744.36 Q358.501 747.033 358.501 749.898 Q358.501 754.259 359.838 756.455 Q361.175 758.619 363.849 758.619 Q365.886 758.619 367.063 757.059 Q368.209 755.5 369.259 750.789 L369.705 748.784 Q371.042 742.546 373.493 739.936 Q375.912 737.294 380.272 737.294 Q385.237 737.294 388.134 741.241 Q391.03 745.156 391.03 752.031 Q391.03 754.895 390.457 758.014 Q389.916 761.102 388.802 764.539 L382.755 764.539 Q384.442 761.293 385.301 758.142 Q386.129 754.991 386.129 751.903 Q386.129 747.766 384.728 745.538 Q383.296 743.31 380.718 743.31 Q378.331 743.31 377.057 744.933 Q375.784 746.524 374.607 751.967 L374.129 754.004 Q372.983 759.447 370.628 761.866 Q368.241 764.285 364.103 764.285 Q359.074 764.285 356.337 760.72 Q353.6 757.155 353.6 750.598 Q353.6 747.352 354.077 744.487 Q354.555 741.623 355.509 739.204 Z" fill="#000000" fill-rule="nonzero" fill-opacity="1" /><path clip-path="url(#clip820)" d="M371.869 683.79 Q365.504 683.79 362.003 686.432 Q358.501 689.042 358.501 693.784 Q358.501 698.495 362.003 701.137 Q365.504 703.747 371.869 703.747 Q378.203 703.747 381.704 701.137 Q385.206 698.495 385.206 693.784 Q385.206 689.042 381.704 686.432 Q378.203 683.79 371.869 683.79 M385.683 677.934 Q394.786 677.934 399.21 681.976 Q403.666 686.018 403.666 694.357 Q403.666 697.445 403.189 700.182 Q402.743 702.919 401.788 705.497 L396.091 705.497 Q397.491 702.919 398.16 700.405 Q398.828 697.89 398.828 695.28 Q398.828 689.519 395.804 686.655 Q392.813 683.79 386.733 683.79 L383.837 683.79 Q386.988 685.604 388.548 688.437 Q390.107 691.27 390.107 695.217 Q390.107 701.773 385.11 705.784 Q380.113 709.794 371.869 709.794 Q363.594 709.794 358.597 705.784 Q353.6 701.773 353.6 695.217 Q353.6 691.27 355.159 688.437 Q356.719 685.604 359.87 683.79 L354.459 683.79 L354.459 677.934 L385.683 677.934 Z" fill="#000000" fill-rule="nonzero" fill-opacity="1" /><path clip-path="url(#clip820)" d="M359.934 645.214 Q359.361 646.201 359.106 647.378 Q358.82 648.524 358.82 649.925 Q358.82 654.89 362.066 657.563 Q365.281 660.205 371.328 660.205 L390.107 660.205 L390.107 666.094 L354.459 666.094 L354.459 660.205 L359.997 660.205 Q356.751 658.359 355.191 655.399 Q353.6 652.439 353.6 648.206 Q353.6 647.601 353.695 646.869 Q353.759 646.137 353.918 645.246 L359.934 645.214 Z" fill="#000000" fill-rule="nonzero" fill-opacity="1" /><path clip-path="url(#clip820)" d="M358.565 626.69 Q358.565 631.4 362.257 634.138 Q365.917 636.875 372.315 636.875 Q378.712 636.875 382.405 634.169 Q386.065 631.432 386.065 626.69 Q386.065 622.011 382.373 619.274 Q378.681 616.536 372.315 616.536 Q365.981 616.536 362.289 619.274 Q358.565 622.011 358.565 626.69 M353.6 626.69 Q353.6 619.051 358.565 614.69 Q363.53 610.33 372.315 610.33 Q381.068 610.33 386.065 614.69 Q391.03 619.051 391.03 626.69 Q391.03 634.36 386.065 638.721 Q381.068 643.05 372.315 643.05 Q363.53 643.05 358.565 638.721 Q353.6 634.36 353.6 626.69 Z" fill="#000000" fill-rule="nonzero" fill-opacity="1" /><path clip-path="url(#clip820)" d="M354.459 604.028 L354.459 598.171 L382.277 590.851 L354.459 583.562 L354.459 576.655 L382.277 569.335 L354.459 562.046 L354.459 556.19 L390.107 565.515 L390.107 572.422 L360.889 580.093 L390.107 587.795 L390.107 594.702 L354.459 604.028 Z" fill="#000000" fill-rule="nonzero" fill-opacity="1" /><path clip-path="url(#clip820)" d="M344.338 541.517 L354.459 541.517 L354.459 529.454 L359.011 529.454 L359.011 541.517 L378.362 541.517 Q382.723 541.517 383.964 540.339 Q385.206 539.129 385.206 535.469 L385.206 529.454 L390.107 529.454 L390.107 535.469 Q390.107 542.249 387.593 544.827 Q385.046 547.405 378.362 547.405 L359.011 547.405 L359.011 551.702 L354.459 551.702 L354.459 547.405 L344.338 547.405 L344.338 541.517 Z" fill="#000000" fill-rule="nonzero" fill-opacity="1" /><path clip-path="url(#clip820)" d="M368.591 492.119 L390.107 492.119 L390.107 497.975 L368.782 497.975 Q363.721 497.975 361.207 499.949 Q358.692 501.922 358.692 505.869 Q358.692 510.611 361.716 513.348 Q364.74 516.086 369.96 516.086 L390.107 516.086 L390.107 521.974 L340.582 521.974 L340.582 516.086 L359.997 516.086 Q356.783 513.985 355.191 511.152 Q353.6 508.288 353.6 504.564 Q353.6 498.421 357.419 495.27 Q361.207 492.119 368.591 492.119 Z" fill="#000000" fill-rule="nonzero" fill-opacity="1" /><path clip-path="url(#clip820)" d="M359.934 439.061 Q359.361 440.047 359.106 441.225 Q358.82 442.371 358.82 443.771 Q358.82 448.736 362.066 451.41 Q365.281 454.052 371.328 454.052 L390.107 454.052 L390.107 459.94 L354.459 459.94 L354.459 454.052 L359.997 454.052 Q356.751 452.206 355.191 449.246 Q353.6 446.286 353.6 442.052 Q353.6 441.448 353.695 440.716 Q353.759 439.984 353.918 439.092 L359.934 439.061 Z" fill="#000000" fill-rule="nonzero" fill-opacity="1" /><path clip-path="url(#clip820)" d="M372.188 416.717 Q372.188 423.815 373.811 426.552 Q375.434 429.289 379.349 429.289 Q382.468 429.289 384.314 427.252 Q386.129 425.183 386.129 421.65 Q386.129 416.781 382.691 413.852 Q379.222 410.892 373.493 410.892 L372.188 410.892 L372.188 416.717 M369.769 405.036 L390.107 405.036 L390.107 410.892 L384.696 410.892 Q387.943 412.898 389.502 415.889 Q391.03 418.881 391.03 423.21 Q391.03 428.684 387.975 431.931 Q384.887 435.146 379.731 435.146 Q373.715 435.146 370.66 431.135 Q367.604 427.093 367.604 419.104 L367.604 410.892 L367.031 410.892 Q362.989 410.892 360.793 413.566 Q358.565 416.208 358.565 421.014 Q358.565 424.069 359.297 426.966 Q360.029 429.862 361.493 432.536 L356.082 432.536 Q354.841 429.321 354.236 426.297 Q353.6 423.274 353.6 420.409 Q353.6 412.675 357.61 408.855 Q361.621 405.036 369.769 405.036 Z" fill="#000000" fill-rule="nonzero" fill-opacity="1" /><path clip-path="url(#clip820)" d="M344.338 387.18 L354.459 387.18 L354.459 375.117 L359.011 375.117 L359.011 387.18 L378.362 387.18 Q382.723 387.18 383.964 386.002 Q385.206 384.793 385.206 381.133 L385.206 375.117 L390.107 375.117 L390.107 381.133 Q390.107 387.912 387.593 390.49 Q385.046 393.068 378.362 393.068 L359.011 393.068 L359.011 397.365 L354.459 397.365 L354.459 393.068 L344.338 393.068 L344.338 387.18 Z" fill="#000000" fill-rule="nonzero" fill-opacity="1" /><path clip-path="url(#clip820)" d="M370.819 336.923 L373.684 336.923 L373.684 363.85 Q379.731 363.468 382.914 360.221 Q386.065 356.943 386.065 351.118 Q386.065 347.745 385.237 344.593 Q384.41 341.411 382.755 338.291 L388.293 338.291 Q389.63 341.442 390.33 344.753 Q391.03 348.063 391.03 351.468 Q391.03 359.999 386.065 364.996 Q381.1 369.961 372.633 369.961 Q363.88 369.961 358.756 365.25 Q353.6 360.508 353.6 352.487 Q353.6 345.294 358.247 341.124 Q362.862 336.923 370.819 336.923 M369.1 342.779 Q364.294 342.843 361.43 345.485 Q358.565 348.095 358.565 352.423 Q358.565 357.325 361.334 360.285 Q364.103 363.213 369.132 363.659 L369.1 342.779 Z" fill="#000000" fill-rule="nonzero" fill-opacity="1" /><polyline clip-path="url(#clip821)" style="stroke:#000000; stroke-linecap:round; stroke-linejoin:round; stroke-width:4; stroke-opacity:1; fill:none" points="625.376,1622.41 625.376,169.57 "/>
<polyline clip-path="url(#clip821)" style="stroke:#000000; stroke-linecap:round; stroke-linejoin:round; stroke-width:4; stroke-opacity:1; fill:none" points="1288.37,1221.23 1288.37,446.258 "/>
<polyline clip-path="url(#clip821)" style="stroke:#000000; stroke-linecap:round; stroke-linejoin:round; stroke-width:4; stroke-opacity:1; fill:none" points="1951.36,1068.12 1951.36,556.751 "/>
<polyline clip-path="url(#clip821)" style="stroke:#000000; stroke-linecap:round; stroke-linejoin:round; stroke-width:4; stroke-opacity:1; fill:none" points="2614.35,1171.61 2614.35,612.149 "/>
<line clip-path="url(#clip821)" x1="649.376" y1="1622.41" x2="601.376" y2="1622.41" style="stroke:#000000; stroke-width:4; stroke-opacity:1"/>
<line clip-path="url(#clip821)" x1="649.376" y1="169.57" x2="601.376" y2="169.57" style="stroke:#000000; stroke-width:4; stroke-opacity:1"/>
<line clip-path="url(#clip821)" x1="1312.37" y1="1221.23" x2="1264.37" y2="1221.23" style="stroke:#000000; stroke-width:4; stroke-opacity:1"/>
<line clip-path="url(#clip821)" x1="1312.37" y1="446.258" x2="1264.37" y2="446.258" style="stroke:#000000; stroke-width:4; stroke-opacity:1"/>
<line clip-path="url(#clip821)" x1="1975.36" y1="1068.12" x2="1927.36" y2="1068.12" style="stroke:#000000; stroke-width:4; stroke-opacity:1"/>
<line clip-path="url(#clip821)" x1="1975.36" y1="556.751" x2="1927.36" y2="556.751" style="stroke:#000000; stroke-width:4; stroke-opacity:1"/>
<line clip-path="url(#clip821)" x1="2638.35" y1="1171.61" x2="2590.35" y2="1171.61" style="stroke:#000000; stroke-width:4; stroke-opacity:1"/>
<line clip-path="url(#clip821)" x1="2638.35" y1="612.149" x2="2590.35" y2="612.149" style="stroke:#000000; stroke-width:4; stroke-opacity:1"/>
<circle clip-path="url(#clip821)" cx="625.376" cy="578.362" r="21.6" fill="#000080" fill-rule="evenodd" fill-opacity="1" stroke="#000000" stroke-opacity="1" stroke-width="4"/>
<circle clip-path="url(#clip821)" cx="1288.37" cy="803.609" r="21.6" fill="#000080" fill-rule="evenodd" fill-opacity="1" stroke="#000000" stroke-opacity="1" stroke-width="4"/>
<circle clip-path="url(#clip821)" cx="1951.36" cy="786.564" r="21.6" fill="#000080" fill-rule="evenodd" fill-opacity="1" stroke="#000000" stroke-opacity="1" stroke-width="4"/>
<circle clip-path="url(#clip821)" cx="2614.35" cy="878.793" r="21.6" fill="#000080" fill-rule="evenodd" fill-opacity="1" stroke="#000000" stroke-opacity="1" stroke-width="4"/>
<polyline clip-path="url(#clip821)" style="stroke:#ff0000; stroke-linecap:round; stroke-linejoin:round; stroke-width:8; stroke-opacity:1; fill:none" stroke-dasharray="32, 20" points="-1542.6,725.99 4782.33,725.99 "/>
<path clip-path="url(#clip820)" d="M1909.34 352.278 L2603.74 352.278 L2603.74 177.318 L1909.34 177.318  Z" fill="#ffffff" fill-rule="evenodd" fill-opacity="1"/>
<polyline clip-path="url(#clip820)" style="stroke:#000000; stroke-linecap:round; stroke-linejoin:round; stroke-width:4; stroke-opacity:1; fill:none" points="1909.34,352.278 2603.74,352.278 2603.74,177.318 1909.34,177.318 1909.34,352.278 "/>
<circle clip-path="url(#clip820)" cx="2003.05" cy="235.638" r="23.9262" fill="#000080" fill-rule="evenodd" fill-opacity="1" stroke="#000000" stroke-opacity="1" stroke-width="4.43077"/>
<path clip-path="url(#clip820)" d="M2117.48 226.771 L2117.48 231.302 Q2115.45 230.26 2113.26 229.74 Q2111.07 229.219 2108.73 229.219 Q2105.16 229.219 2103.36 230.313 Q2101.59 231.406 2101.59 233.594 Q2101.59 235.26 2102.87 236.224 Q2104.14 237.161 2108 238.021 L2109.64 238.385 Q2114.74 239.479 2116.88 241.484 Q2119.04 243.464 2119.04 247.031 Q2119.04 251.094 2115.81 253.463 Q2112.61 255.833 2106.98 255.833 Q2104.64 255.833 2102.09 255.364 Q2099.56 254.922 2096.75 254.01 L2096.75 249.062 Q2099.4 250.443 2101.98 251.146 Q2104.56 251.823 2107.09 251.823 Q2110.47 251.823 2112.29 250.677 Q2114.12 249.505 2114.12 247.396 Q2114.12 245.443 2112.79 244.401 Q2111.49 243.359 2107.03 242.396 L2105.37 242.005 Q2100.91 241.068 2098.94 239.141 Q2096.96 237.188 2096.96 233.802 Q2096.96 229.688 2099.87 227.448 Q2102.79 225.208 2108.15 225.208 Q2110.81 225.208 2113.15 225.599 Q2115.5 225.99 2117.48 226.771 Z" fill="#000000" fill-rule="nonzero" fill-opacity="1" /><path clip-path="url(#clip820)" d="M2126.67 225.912 L2131.46 225.912 L2131.46 255.078 L2126.67 255.078 L2126.67 225.912 M2126.67 214.557 L2131.46 214.557 L2131.46 220.625 L2126.67 220.625 L2126.67 214.557 Z" fill="#000000" fill-rule="nonzero" fill-opacity="1" /><path clip-path="url(#clip820)" d="M2164.2 231.51 Q2165.99 228.281 2168.49 226.745 Q2170.99 225.208 2174.38 225.208 Q2178.94 225.208 2181.41 228.412 Q2183.88 231.589 2183.88 237.474 L2183.88 255.078 L2179.07 255.078 L2179.07 237.63 Q2179.07 233.438 2177.58 231.406 Q2176.1 229.375 2173.05 229.375 Q2169.33 229.375 2167.16 231.849 Q2165 234.323 2165 238.594 L2165 255.078 L2160.19 255.078 L2160.19 237.63 Q2160.19 233.411 2158.7 231.406 Q2157.22 229.375 2154.12 229.375 Q2150.45 229.375 2148.28 231.875 Q2146.12 234.349 2146.12 238.594 L2146.12 255.078 L2141.31 255.078 L2141.31 225.912 L2146.12 225.912 L2146.12 230.443 Q2147.76 227.76 2150.06 226.484 Q2152.35 225.208 2155.5 225.208 Q2158.67 225.208 2160.89 226.823 Q2163.13 228.438 2164.2 231.51 Z" fill="#000000" fill-rule="nonzero" fill-opacity="1" /><path clip-path="url(#clip820)" d="M2233.1 231.51 Q2234.9 228.281 2237.4 226.745 Q2239.9 225.208 2243.28 225.208 Q2247.84 225.208 2250.31 228.412 Q2252.79 231.589 2252.79 237.474 L2252.79 255.078 L2247.97 255.078 L2247.97 237.63 Q2247.97 233.438 2246.49 231.406 Q2245 229.375 2241.96 229.375 Q2238.23 229.375 2236.07 231.849 Q2233.91 234.323 2233.91 238.594 L2233.91 255.078 L2229.09 255.078 L2229.09 237.63 Q2229.09 233.411 2227.61 231.406 Q2226.12 229.375 2223.02 229.375 Q2219.35 229.375 2217.19 231.875 Q2215.03 234.349 2215.03 238.594 L2215.03 255.078 L2210.21 255.078 L2210.21 225.912 L2215.03 225.912 L2215.03 230.443 Q2216.67 227.76 2218.96 226.484 Q2221.25 225.208 2224.4 225.208 Q2227.58 225.208 2229.79 226.823 Q2232.03 228.438 2233.1 231.51 Z" fill="#000000" fill-rule="nonzero" fill-opacity="1" /><path clip-path="url(#clip820)" d="M2287.29 239.297 L2287.29 241.641 L2265.26 241.641 Q2265.58 246.588 2268.23 249.193 Q2270.91 251.771 2275.68 251.771 Q2278.44 251.771 2281.02 251.094 Q2283.62 250.417 2286.17 249.062 L2286.17 253.594 Q2283.6 254.687 2280.89 255.26 Q2278.18 255.833 2275.39 255.833 Q2268.41 255.833 2264.33 251.771 Q2260.26 247.708 2260.26 240.781 Q2260.26 233.62 2264.12 229.427 Q2268 225.208 2274.56 225.208 Q2280.44 225.208 2283.86 229.01 Q2287.29 232.786 2287.29 239.297 M2282.5 237.891 Q2282.45 233.958 2280.29 231.615 Q2278.15 229.271 2274.61 229.271 Q2270.6 229.271 2268.18 231.536 Q2265.78 233.802 2265.42 237.917 L2282.5 237.891 Z" fill="#000000" fill-rule="nonzero" fill-opacity="1" /><path clip-path="url(#clip820)" d="M2314.35 230.339 L2314.35 214.557 L2319.14 214.557 L2319.14 255.078 L2314.35 255.078 L2314.35 250.703 Q2312.84 253.307 2310.52 254.583 Q2308.23 255.833 2305 255.833 Q2299.72 255.833 2296.38 251.615 Q2293.08 247.396 2293.08 240.521 Q2293.08 233.646 2296.38 229.427 Q2299.72 225.208 2305 225.208 Q2308.23 225.208 2310.52 226.484 Q2312.84 227.734 2314.35 230.339 M2298.02 240.521 Q2298.02 245.807 2300.18 248.828 Q2302.37 251.823 2306.17 251.823 Q2309.98 251.823 2312.16 248.828 Q2314.35 245.807 2314.35 240.521 Q2314.35 235.234 2312.16 232.24 Q2309.98 229.219 2306.17 229.219 Q2302.37 229.219 2300.18 232.24 Q2298.02 235.234 2298.02 240.521 Z" fill="#000000" fill-rule="nonzero" fill-opacity="1" /><path clip-path="url(#clip820)" d="M2329.01 225.912 L2333.8 225.912 L2333.8 255.078 L2329.01 255.078 L2329.01 225.912 M2329.01 214.557 L2333.8 214.557 L2333.8 220.625 L2329.01 220.625 L2329.01 214.557 Z" fill="#000000" fill-rule="nonzero" fill-opacity="1" /><path clip-path="url(#clip820)" d="M2357.09 240.417 Q2351.28 240.417 2349.04 241.745 Q2346.8 243.073 2346.8 246.276 Q2346.8 248.828 2348.47 250.338 Q2350.16 251.823 2353.05 251.823 Q2357.03 251.823 2359.43 249.01 Q2361.85 246.172 2361.85 241.484 L2361.85 240.417 L2357.09 240.417 M2366.64 238.437 L2366.64 255.078 L2361.85 255.078 L2361.85 250.651 Q2360.21 253.307 2357.76 254.583 Q2355.31 255.833 2351.77 255.833 Q2347.29 255.833 2344.64 253.333 Q2342.01 250.807 2342.01 246.588 Q2342.01 241.667 2345.29 239.167 Q2348.6 236.667 2355.13 236.667 L2361.85 236.667 L2361.85 236.198 Q2361.85 232.891 2359.66 231.094 Q2357.5 229.271 2353.57 229.271 Q2351.07 229.271 2348.7 229.87 Q2346.33 230.469 2344.14 231.667 L2344.14 227.24 Q2346.77 226.224 2349.25 225.729 Q2351.72 225.208 2354.06 225.208 Q2360.39 225.208 2363.52 228.49 Q2366.64 231.771 2366.64 238.437 Z" fill="#000000" fill-rule="nonzero" fill-opacity="1" /><path clip-path="url(#clip820)" d="M2400.76 237.474 L2400.76 255.078 L2395.97 255.078 L2395.97 237.63 Q2395.97 233.49 2394.35 231.432 Q2392.74 229.375 2389.51 229.375 Q2385.63 229.375 2383.39 231.849 Q2381.15 234.323 2381.15 238.594 L2381.15 255.078 L2376.33 255.078 L2376.33 225.912 L2381.15 225.912 L2381.15 230.443 Q2382.87 227.813 2385.18 226.51 Q2387.53 225.208 2390.57 225.208 Q2395.6 225.208 2398.18 228.333 Q2400.76 231.432 2400.76 237.474 Z" fill="#000000" fill-rule="nonzero" fill-opacity="1" /><path clip-path="url(#clip820)" d="M2426.82 214.557 L2437.87 214.557 L2437.87 218.281 L2431.62 218.281 L2431.62 258.385 L2437.87 258.385 L2437.87 262.109 L2426.82 262.109 L2426.82 214.557 Z" fill="#000000" fill-rule="nonzero" fill-opacity="1" /><path clip-path="url(#clip820)" d="M2448.8 216.198 L2469.45 216.198 L2469.45 220.625 L2453.62 220.625 L2453.62 230.156 Q2454.77 229.766 2455.91 229.583 Q2457.06 229.375 2458.2 229.375 Q2464.71 229.375 2468.52 232.943 Q2472.32 236.51 2472.32 242.604 Q2472.32 248.88 2468.41 252.37 Q2464.51 255.833 2457.4 255.833 Q2454.95 255.833 2452.4 255.417 Q2449.87 255 2447.16 254.167 L2447.16 248.88 Q2449.51 250.156 2452.01 250.781 Q2454.51 251.406 2457.29 251.406 Q2461.8 251.406 2464.43 249.036 Q2467.06 246.667 2467.06 242.604 Q2467.06 238.542 2464.43 236.172 Q2461.8 233.802 2457.29 233.802 Q2455.18 233.802 2453.07 234.271 Q2450.99 234.74 2448.8 235.729 L2448.8 216.198 Z" fill="#000000" fill-rule="nonzero" fill-opacity="1" /><path clip-path="url(#clip820)" d="M2479.58 238.333 L2493.62 238.333 L2493.62 242.604 L2479.58 242.604 L2479.58 238.333 Z" fill="#000000" fill-rule="nonzero" fill-opacity="1" /><path clip-path="url(#clip820)" d="M2502.08 254.271 L2502.08 249.479 Q2504.06 250.417 2506.09 250.911 Q2508.13 251.406 2510.08 251.406 Q2515.29 251.406 2518.02 247.917 Q2520.78 244.401 2521.17 237.266 Q2519.66 239.505 2517.34 240.703 Q2515.03 241.901 2512.21 241.901 Q2506.38 241.901 2502.97 238.385 Q2499.58 234.844 2499.58 228.724 Q2499.58 222.734 2503.13 219.115 Q2506.67 215.495 2512.55 215.495 Q2519.3 215.495 2522.84 220.677 Q2526.41 225.833 2526.41 235.677 Q2526.41 244.87 2522.03 250.365 Q2517.68 255.833 2510.31 255.833 Q2508.33 255.833 2506.3 255.443 Q2504.27 255.052 2502.08 254.271 M2512.55 237.786 Q2516.09 237.786 2518.15 235.365 Q2520.24 232.943 2520.24 228.724 Q2520.24 224.531 2518.15 222.109 Q2516.09 219.662 2512.55 219.662 Q2509.01 219.662 2506.93 222.109 Q2504.87 224.531 2504.87 228.724 Q2504.87 232.943 2506.93 235.365 Q2509.01 237.786 2512.55 237.786 Z" fill="#000000" fill-rule="nonzero" fill-opacity="1" /><path clip-path="url(#clip820)" d="M2535.91 216.198 L2556.56 216.198 L2556.56 220.625 L2540.73 220.625 L2540.73 230.156 Q2541.88 229.766 2543.02 229.583 Q2544.17 229.375 2545.31 229.375 Q2551.82 229.375 2555.63 232.943 Q2559.43 236.51 2559.43 242.604 Q2559.43 248.88 2555.52 252.37 Q2551.62 255.833 2544.51 255.833 Q2542.06 255.833 2539.51 255.417 Q2536.98 255 2534.27 254.167 L2534.27 248.88 Q2536.62 250.156 2539.12 250.781 Q2541.62 251.406 2544.4 251.406 Q2548.91 251.406 2551.54 249.036 Q2554.17 246.667 2554.17 242.604 Q2554.17 238.542 2551.54 236.172 Q2548.91 233.802 2544.4 233.802 Q2542.29 233.802 2540.18 234.271 Q2538.1 234.74 2535.91 235.729 L2535.91 216.198 Z" fill="#000000" fill-rule="nonzero" fill-opacity="1" /><path clip-path="url(#clip820)" d="M2580.31 214.557 L2580.31 262.109 L2569.27 262.109 L2569.27 258.385 L2575.5 258.385 L2575.5 218.281 L2569.27 218.281 L2569.27 214.557 L2580.31 214.557 Z" fill="#000000" fill-rule="nonzero" fill-opacity="1" /><polyline clip-path="url(#clip820)" style="stroke:#ff0000; stroke-linecap:round; stroke-linejoin:round; stroke-width:9; stroke-opacity:1; fill:none" stroke-dasharray="36, 23" points="1932.77,293.958 2073.32,293.958 "/>
<path clip-path="url(#clip820)" d="M2110.13 287.591 Q2106.28 287.591 2104.04 290.612 Q2101.8 293.606 2101.8 298.841 Q2101.8 304.075 2104.01 307.096 Q2106.25 310.091 2110.13 310.091 Q2113.96 310.091 2116.2 307.07 Q2118.44 304.049 2118.44 298.841 Q2118.44 293.659 2116.2 290.638 Q2113.96 287.591 2110.13 287.591 M2110.13 283.528 Q2116.38 283.528 2119.95 287.591 Q2123.52 291.653 2123.52 298.841 Q2123.52 306.002 2119.95 310.091 Q2116.38 314.153 2110.13 314.153 Q2103.86 314.153 2100.29 310.091 Q2096.75 306.002 2096.75 298.841 Q2096.75 291.653 2100.29 287.591 Q2103.86 283.528 2110.13 283.528 Z" fill="#000000" fill-rule="nonzero" fill-opacity="1" /><path clip-path="url(#clip820)" d="M2152.4 298.841 Q2152.4 293.554 2150.21 290.56 Q2148.05 287.539 2144.25 287.539 Q2140.45 287.539 2138.26 290.56 Q2136.1 293.554 2136.1 298.841 Q2136.1 304.127 2138.26 307.148 Q2140.45 310.143 2144.25 310.143 Q2148.05 310.143 2150.21 307.148 Q2152.4 304.127 2152.4 298.841 M2136.1 288.659 Q2137.61 286.054 2139.9 284.804 Q2142.22 283.528 2145.42 283.528 Q2150.73 283.528 2154.04 287.747 Q2157.37 291.966 2157.37 298.841 Q2157.37 305.716 2154.04 309.935 Q2150.73 314.153 2145.42 314.153 Q2142.22 314.153 2139.9 312.903 Q2137.61 311.627 2136.1 309.023 L2136.1 313.398 L2131.28 313.398 L2131.28 272.877 L2136.1 272.877 L2136.1 288.659 Z" fill="#000000" fill-rule="nonzero" fill-opacity="1" /><path clip-path="url(#clip820)" d="M2183.91 285.091 L2183.91 289.622 Q2181.88 288.58 2179.69 288.06 Q2177.5 287.539 2175.16 287.539 Q2171.59 287.539 2169.79 288.633 Q2168.02 289.726 2168.02 291.914 Q2168.02 293.58 2169.3 294.544 Q2170.58 295.481 2174.43 296.341 L2176.07 296.705 Q2181.17 297.799 2183.31 299.804 Q2185.47 301.784 2185.47 305.351 Q2185.47 309.414 2182.24 311.783 Q2179.04 314.153 2173.41 314.153 Q2171.07 314.153 2168.52 313.684 Q2165.99 313.242 2163.18 312.33 L2163.18 307.382 Q2165.84 308.763 2168.41 309.466 Q2170.99 310.143 2173.52 310.143 Q2176.9 310.143 2178.73 308.997 Q2180.55 307.825 2180.55 305.716 Q2180.55 303.763 2179.22 302.721 Q2177.92 301.679 2173.47 300.716 L2171.8 300.325 Q2167.35 299.388 2165.37 297.461 Q2163.39 295.508 2163.39 292.122 Q2163.39 288.008 2166.3 285.768 Q2169.22 283.528 2174.59 283.528 Q2177.24 283.528 2179.59 283.919 Q2181.93 284.31 2183.91 285.091 Z" fill="#000000" fill-rule="nonzero" fill-opacity="1" /><path clip-path="url(#clip820)" d="M2218.05 297.617 L2218.05 299.961 L2196.02 299.961 Q2196.33 304.908 2198.99 307.513 Q2201.67 310.091 2206.43 310.091 Q2209.2 310.091 2211.77 309.414 Q2214.38 308.737 2216.93 307.382 L2216.93 311.914 Q2214.35 313.007 2211.64 313.58 Q2208.93 314.153 2206.15 314.153 Q2199.17 314.153 2195.08 310.091 Q2191.02 306.028 2191.02 299.101 Q2191.02 291.94 2194.87 287.747 Q2198.75 283.528 2205.32 283.528 Q2211.2 283.528 2214.61 287.33 Q2218.05 291.106 2218.05 297.617 M2213.26 296.211 Q2213.21 292.278 2211.04 289.935 Q2208.91 287.591 2205.37 287.591 Q2201.36 287.591 2198.93 289.856 Q2196.54 292.122 2196.17 296.237 L2213.26 296.211 Z" fill="#000000" fill-rule="nonzero" fill-opacity="1" /><path clip-path="url(#clip820)" d="M2242.81 288.711 Q2242.01 288.242 2241.04 288.034 Q2240.11 287.799 2238.96 287.799 Q2234.9 287.799 2232.71 290.455 Q2230.55 293.086 2230.55 298.034 L2230.55 313.398 L2225.73 313.398 L2225.73 284.232 L2230.55 284.232 L2230.55 288.763 Q2232.06 286.107 2234.48 284.83 Q2236.9 283.528 2240.37 283.528 Q2240.86 283.528 2241.46 283.607 Q2242.06 283.659 2242.79 283.789 L2242.81 288.711 Z" fill="#000000" fill-rule="nonzero" fill-opacity="1" /><path clip-path="url(#clip820)" d="M2244.4 284.232 L2249.48 284.232 L2258.6 308.711 L2267.71 284.232 L2272.79 284.232 L2261.85 313.398 L2255.34 313.398 L2244.4 284.232 Z" fill="#000000" fill-rule="nonzero" fill-opacity="1" /><path clip-path="url(#clip820)" d="M2304.35 297.617 L2304.35 299.961 L2282.32 299.961 Q2282.63 304.908 2285.29 307.513 Q2287.97 310.091 2292.74 310.091 Q2295.5 310.091 2298.08 309.414 Q2300.68 308.737 2303.23 307.382 L2303.23 311.914 Q2300.65 313.007 2297.94 313.58 Q2295.24 314.153 2292.45 314.153 Q2285.47 314.153 2281.38 310.091 Q2277.32 306.028 2277.32 299.101 Q2277.32 291.94 2281.17 287.747 Q2285.05 283.528 2291.62 283.528 Q2297.5 283.528 2300.91 287.33 Q2304.35 291.106 2304.35 297.617 M2299.56 296.211 Q2299.51 292.278 2297.35 289.935 Q2295.21 287.591 2291.67 287.591 Q2287.66 287.591 2285.24 289.856 Q2282.84 292.122 2282.48 296.237 L2299.56 296.211 Z" fill="#000000" fill-rule="nonzero" fill-opacity="1" /><path clip-path="url(#clip820)" d="M2331.41 288.659 L2331.41 272.877 L2336.2 272.877 L2336.2 313.398 L2331.41 313.398 L2331.41 309.023 Q2329.9 311.627 2327.58 312.903 Q2325.29 314.153 2322.06 314.153 Q2316.77 314.153 2313.44 309.935 Q2310.13 305.716 2310.13 298.841 Q2310.13 291.966 2313.44 287.747 Q2316.77 283.528 2322.06 283.528 Q2325.29 283.528 2327.58 284.804 Q2329.9 286.054 2331.41 288.659 M2315.08 298.841 Q2315.08 304.127 2317.24 307.148 Q2319.43 310.143 2323.23 310.143 Q2327.03 310.143 2329.22 307.148 Q2331.41 304.127 2331.41 298.841 Q2331.41 293.554 2329.22 290.56 Q2327.03 287.539 2323.23 287.539 Q2319.43 287.539 2317.24 290.56 Q2315.08 293.554 2315.08 298.841 Z" fill="#000000" fill-rule="nonzero" fill-opacity="1" /></svg>
