<?xml version="1.0" encoding="utf-8"?>
<svg xmlns="http://www.w3.org/2000/svg" xmlns:xlink="http://www.w3.org/1999/xlink" width="700" height="500" viewBox="0 0 2800 2000">
<defs>
  <clipPath id="clip490">
    <rect x="0" y="0" width="2800" height="2000"/>
  </clipPath>
</defs>
<path clip-path="url(#clip490)" d="M0 2000 L2800 2000 L2800 -4.44089e-14 L0 -4.44089e-14  Z" fill="#ffffff" fill-rule="evenodd" fill-opacity="1"/>
<defs>
  <clipPath id="clip491">
    <rect x="532" y="125" width="2142" height="1506"/>
  </clipPath>
</defs>
<path clip-path="url(#clip490)" d="M532.517 1630.83 L2674.02 1630.83 L2674.02 125.984 L532.517 125.984  Z" fill="#ffffff" fill-rule="evenodd" fill-opacity="1"/>
<polyline clip-path="url(#clip491)" style="stroke:#000000; stroke-linecap:round; stroke-linejoin:round; stroke-width:2; stroke-opacity:0.1; fill:none" points="585.076,1630.83 585.076,125.984 "/>
<polyline clip-path="url(#clip491)" style="stroke:#000000; stroke-linecap:round; stroke-linejoin:round; stroke-width:2; stroke-opacity:0.1; fill:none" points="987.523,1630.83 987.523,125.984 "/>
<polyline clip-path="url(#clip491)" style="stroke:#000000; stroke-linecap:round; stroke-linejoin:round; stroke-width:2; stroke-opacity:0.1; fill:none" points="1389.97,1630.83 1389.97,125.984 "/>
<polyline clip-path="url(#clip491)" style="stroke:#000000; stroke-linecap:round; stroke-linejoin:round; stroke-width:2; stroke-opacity:0.1; fill:none" points="1792.42,1630.83 1792.42,125.984 "/>
<polyline clip-path="url(#clip491)" style="stroke:#000000; stroke-linecap:round; stroke-linejoin:round; stroke-width:2; stroke-opacity:0.1; fill:none" points="2194.86,1630.83 2194.86,125.984 "/>
<polyline clip-path="url(#clip491)" style="stroke:#000000; stroke-linecap:round; stroke-linejoin:round; stroke-width:2; stroke-opacity:0.1; fill:none" points="2597.31,1630.83 2597.31,125.984 "/>
<polyline clip-path="url(#clip491)" style="stroke:#000000; stroke-linecap:round; stroke-linejoin:round; stroke-width:2; stroke-opacity:0.1; fill:none" points="532.517,1515.27 2674.02,1515.27 "/>
<polyline clip-path="url(#clip491)" style="stroke:#000000; stroke-linecap:round; stroke-linejoin:round; stroke-width:2; stroke-opacity:0.1; fill:none" points="532.517,1232.62 2674.02,1232.62 "/>
<polyline clip-path="url(#clip491)" style="stroke:#000000; stroke-linecap:round; stroke-linejoin:round; stroke-width:2; stroke-opacity:0.1; fill:none" points="532.517,949.974 2674.02,949.974 "/>
<polyline clip-path="url(#clip491)" style="stroke:#000000; stroke-linecap:round; stroke-linejoin:round; stroke-width:2; stroke-opacity:0.1; fill:none" points="532.517,667.325 2674.02,667.325 "/>
<polyline clip-path="url(#clip491)" style="stroke:#000000; stroke-linecap:round; stroke-linejoin:round; stroke-width:2; stroke-opacity:0.1; fill:none" points="532.517,384.676 2674.02,384.676 "/>
<polyline clip-path="url(#clip490)" style="stroke:#000000; stroke-linecap:round; stroke-linejoin:round; stroke-width:4; stroke-opacity:1; fill:none" points="532.517,1630.83 2674.02,1630.83 "/>
<polyline clip-path="url(#clip490)" style="stroke:#000000; stroke-linecap:round; stroke-linejoin:round; stroke-width:4; stroke-opacity:1; fill:none" points="585.076,1630.83 585.076,1611.93 "/>
<polyline clip-path="url(#clip490)" style="stroke:#000000; stroke-linecap:round; stroke-linejoin:round; stroke-width:4; stroke-opacity:1; fill:none" points="987.523,1630.83 987.523,1611.93 "/>
<polyline clip-path="url(#clip490)" style="stroke:#000000; stroke-linecap:round; stroke-linejoin:round; stroke-width:4; stroke-opacity:1; fill:none" points="1389.97,1630.83 1389.97,1611.93 "/>
<polyline clip-path="url(#clip490)" style="stroke:#000000; stroke-linecap:round; stroke-linejoin:round; stroke-width:4; stroke-opacity:1; fill:none" points="1792.42,1630.83 1792.42,1611.93 "/>
<polyline clip-path="url(#clip490)" style="stroke:#000000; stroke-linecap:round; stroke-linejoin:round; stroke-width:4; stroke-opacity:1; fill:none" points="2194.86,1630.83 2194.86,1611.93 "/>
<polyline clip-path="url(#clip490)" style="stroke:#000000; stroke-linecap:round; stroke-linejoin:round; stroke-width:4; stroke-opacity:1; fill:none" points="2597.31,1630.83 2597.31,1611.93 "/>
<path clip-path="url(#clip490)" d="M585.076 1667.88 Q580.562 1667.88 578.277 1672.34 Q576.02 1676.76 576.02 1685.67 Q576.02 1694.56 578.277 1699.01 Q580.562 1703.44 585.076 1703.44 Q589.619 1703.44 591.876 1699.01 Q594.162 1694.56 594.162 1685.67 Q594.162 1676.76 591.876 1672.34 Q589.619 1667.88 585.076 1667.88 M585.076 1663.25 Q592.339 1663.25 596.158 1669.01 Q600.007 1674.74 600.007 1685.67 Q600.007 1696.58 596.158 1702.34 Q592.339 1708.07 585.076 1708.07 Q577.814 1708.07 573.965 1702.34 Q570.146 1696.58 570.146 1685.67 Q570.146 1674.74 573.965 1669.01 Q577.814 1663.25 585.076 1663.25 Z" fill="#000000" fill-rule="nonzero" fill-opacity="1" /><path clip-path="url(#clip490)" d="M955.897 1664.03 L978.842 1664.03 L978.842 1668.95 L961.25 1668.95 L961.25 1679.54 Q962.523 1679.11 963.796 1678.9 Q965.069 1678.67 966.343 1678.67 Q973.576 1678.67 977.801 1682.64 Q982.025 1686.6 982.025 1693.37 Q982.025 1700.34 977.685 1704.22 Q973.345 1708.07 965.446 1708.07 Q962.726 1708.07 959.89 1707.61 Q957.083 1707.14 954.074 1706.22 L954.074 1700.34 Q956.678 1701.76 959.456 1702.46 Q962.234 1703.15 965.33 1703.15 Q970.336 1703.15 973.258 1700.52 Q976.18 1697.89 976.18 1693.37 Q976.18 1688.86 973.258 1686.22 Q970.336 1683.59 965.33 1683.59 Q962.986 1683.59 960.642 1684.11 Q958.328 1684.63 955.897 1685.73 L955.897 1664.03 Z" fill="#000000" fill-rule="nonzero" fill-opacity="1" /><path clip-path="url(#clip490)" d="M1006.04 1667.88 Q1001.53 1667.88 999.242 1672.34 Q996.985 1676.76 996.985 1685.67 Q996.985 1694.56 999.242 1699.01 Q1001.53 1703.44 1006.04 1703.44 Q1010.58 1703.44 1012.84 1699.01 Q1015.13 1694.56 1015.13 1685.67 Q1015.13 1676.76 1012.84 1672.34 Q1010.58 1667.88 1006.04 1667.88 M1006.04 1663.25 Q1013.3 1663.25 1017.12 1669.01 Q1020.97 1674.74 1020.97 1685.67 Q1020.97 1696.58 1017.12 1702.34 Q1013.3 1708.07 1006.04 1708.07 Q998.779 1708.07 994.93 1702.34 Q991.111 1696.58 991.111 1685.67 Q991.111 1674.74 994.93 1669.01 Q998.779 1663.25 1006.04 1663.25 Z" fill="#000000" fill-rule="nonzero" fill-opacity="1" /><path clip-path="url(#clip490)" d="M1339.48 1702.31 L1349.03 1702.31 L1349.03 1669.36 L1338.64 1671.44 L1338.64 1666.11 L1348.97 1664.03 L1354.81 1664.03 L1354.81 1702.31 L1364.36 1702.31 L1364.36 1707.23 L1339.48 1707.23 L1339.48 1702.31 Z" fill="#000000" fill-rule="nonzero" fill-opacity="1" /><path clip-path="url(#clip490)" d="M1388.67 1667.88 Q1384.15 1667.88 1381.87 1672.34 Q1379.61 1676.76 1379.61 1685.67 Q1379.61 1694.56 1381.87 1699.01 Q1384.15 1703.44 1388.67 1703.44 Q1393.21 1703.44 1395.47 1699.01 Q1397.75 1694.56 1397.75 1685.67 Q1397.75 1676.76 1395.47 1672.34 Q1393.21 1667.88 1388.67 1667.88 M1388.67 1663.25 Q1395.93 1663.25 1399.75 1669.01 Q1403.6 1674.74 1403.6 1685.67 Q1403.6 1696.58 1399.75 1702.34 Q1395.93 1708.07 1388.67 1708.07 Q1381.4 1708.07 1377.56 1702.34 Q1373.74 1696.58 1373.74 1685.67 Q1373.74 1674.74 1377.56 1669.01 Q1381.4 1663.25 1388.67 1663.25 Z" fill="#000000" fill-rule="nonzero" fill-opacity="1" /><path clip-path="url(#clip490)" d="M1426.37 1667.88 Q1421.86 1667.88 1419.57 1672.34 Q1417.31 1676.76 1417.31 1685.67 Q1417.31 1694.56 1419.57 1699.01 Q1421.86 1703.44 1426.37 1703.44 Q1430.91 1703.44 1433.17 1699.01 Q1435.46 1694.56 1435.46 1685.67 Q1435.46 1676.76 1433.17 1672.34 Q1430.91 1667.88 1426.37 1667.88 M1426.37 1663.25 Q1433.63 1663.25 1437.45 1669.01 Q1441.3 1674.74 1441.3 1685.67 Q1441.3 1696.58 1437.45 1702.34 Q1433.63 1708.07 1426.37 1708.07 Q1419.11 1708.07 1415.26 1702.34 Q1411.44 1696.58 1411.44 1685.67 Q1411.44 1674.74 1415.26 1669.01 Q1419.11 1663.25 1426.37 1663.25 Z" fill="#000000" fill-rule="nonzero" fill-opacity="1" /><path clip-path="url(#clip490)" d="M1741.92 1702.31 L1751.47 1702.31 L1751.47 1669.36 L1741.09 1671.44 L1741.09 1666.11 L1751.42 1664.03 L1757.26 1664.03 L1757.26 1702.31 L1766.81 1702.31 L1766.81 1707.23 L1741.92 1707.23 L1741.92 1702.31 Z" fill="#000000" fill-rule="nonzero" fill-opacity="1" /><path clip-path="url(#clip490)" d="M1778.67 1664.03 L1801.62 1664.03 L1801.62 1668.95 L1784.03 1668.95 L1784.03 1679.54 Q1785.3 1679.11 1786.57 1678.9 Q1787.84 1678.67 1789.12 1678.67 Q1796.35 1678.67 1800.58 1682.64 Q1804.8 1686.6 1804.8 1693.37 Q1804.8 1700.34 1800.46 1704.22 Q1796.12 1708.07 1788.22 1708.07 Q1785.5 1708.07 1782.67 1707.61 Q1779.86 1707.14 1776.85 1706.22 L1776.85 1700.34 Q1779.45 1701.76 1782.23 1702.46 Q1785.01 1703.15 1788.1 1703.15 Q1793.11 1703.15 1796.03 1700.52 Q1798.96 1697.89 1798.96 1693.37 Q1798.96 1688.86 1796.03 1686.22 Q1793.11 1683.59 1788.1 1683.59 Q1785.76 1683.59 1783.42 1684.11 Q1781.1 1684.63 1778.67 1685.73 L1778.67 1664.03 Z" fill="#000000" fill-rule="nonzero" fill-opacity="1" /><path clip-path="url(#clip490)" d="M1828.82 1667.88 Q1824.3 1667.88 1822.02 1672.34 Q1819.76 1676.76 1819.76 1685.67 Q1819.76 1694.56 1822.02 1699.01 Q1824.3 1703.44 1828.82 1703.44 Q1833.36 1703.44 1835.62 1699.01 Q1837.9 1694.56 1837.9 1685.67 Q1837.9 1676.76 1835.62 1672.34 Q1833.36 1667.88 1828.82 1667.88 M1828.82 1663.25 Q1836.08 1663.25 1839.9 1669.01 Q1843.75 1674.74 1843.75 1685.67 Q1843.75 1696.58 1839.9 1702.34 Q1836.08 1708.07 1828.82 1708.07 Q1821.55 1708.07 1817.71 1702.34 Q1813.89 1696.58 1813.89 1685.67 Q1813.89 1674.74 1817.71 1669.01 Q1821.55 1663.25 1828.82 1663.25 Z" fill="#000000" fill-rule="nonzero" fill-opacity="1" /><path clip-path="url(#clip490)" d="M2149.48 1702.31 L2169.88 1702.31 L2169.88 1707.23 L2142.45 1707.23 L2142.45 1702.31 Q2145.77 1698.87 2151.5 1693.08 Q2157.26 1687.27 2158.74 1685.59 Q2161.54 1682.43 2162.64 1680.26 Q2163.77 1678.06 2163.77 1675.95 Q2163.77 1672.51 2161.34 1670.34 Q2158.94 1668.17 2155.06 1668.17 Q2152.31 1668.17 2149.25 1669.12 Q2146.21 1670.08 2142.74 1672.02 L2142.74 1666.11 Q2146.27 1664.7 2149.33 1663.97 Q2152.4 1663.25 2154.95 1663.25 Q2161.66 1663.25 2165.65 1666.61 Q2169.65 1669.96 2169.65 1675.58 Q2169.65 1678.24 2168.63 1680.64 Q2167.65 1683.01 2165.02 1686.25 Q2164.29 1687.09 2160.42 1691.11 Q2156.54 1695.11 2149.48 1702.31 Z" fill="#000000" fill-rule="nonzero" fill-opacity="1" /><path clip-path="url(#clip490)" d="M2194.65 1667.88 Q2190.13 1667.88 2187.85 1672.34 Q2185.59 1676.76 2185.59 1685.67 Q2185.59 1694.56 2187.85 1699.01 Q2190.13 1703.44 2194.65 1703.44 Q2199.19 1703.44 2201.45 1699.01 Q2203.73 1694.56 2203.73 1685.67 Q2203.73 1676.76 2201.45 1672.34 Q2199.19 1667.88 2194.65 1667.88 M2194.65 1663.25 Q2201.91 1663.25 2205.73 1669.01 Q2209.58 1674.74 2209.58 1685.67 Q2209.58 1696.58 2205.73 1702.34 Q2201.91 1708.07 2194.65 1708.07 Q2187.38 1708.07 2183.53 1702.34 Q2179.72 1696.58 2179.72 1685.67 Q2179.72 1674.74 2183.53 1669.01 Q2187.38 1663.25 2194.65 1663.25 Z" fill="#000000" fill-rule="nonzero" fill-opacity="1" /><path clip-path="url(#clip490)" d="M2232.35 1667.88 Q2227.83 1667.88 2225.55 1672.34 Q2223.29 1676.76 2223.29 1685.67 Q2223.29 1694.56 2225.55 1699.01 Q2227.83 1703.44 2232.35 1703.44 Q2236.89 1703.44 2239.15 1699.01 Q2241.43 1694.56 2241.43 1685.67 Q2241.43 1676.76 2239.15 1672.34 Q2236.89 1667.88 2232.35 1667.88 M2232.35 1663.25 Q2239.61 1663.25 2243.43 1669.01 Q2247.28 1674.74 2247.28 1685.67 Q2247.28 1696.58 2243.43 1702.34 Q2239.61 1708.07 2232.35 1708.07 Q2225.09 1708.07 2221.24 1702.34 Q2217.42 1696.58 2217.42 1685.67 Q2217.42 1674.74 2221.24 1669.01 Q2225.09 1663.25 2232.35 1663.25 Z" fill="#000000" fill-rule="nonzero" fill-opacity="1" /><path clip-path="url(#clip490)" d="M2551.92 1702.31 L2572.32 1702.31 L2572.32 1707.23 L2544.89 1707.23 L2544.89 1702.31 Q2548.22 1698.87 2553.95 1693.08 Q2559.71 1687.27 2561.18 1685.59 Q2563.99 1682.43 2565.09 1680.26 Q2566.22 1678.06 2566.22 1675.95 Q2566.22 1672.51 2563.79 1670.34 Q2561.39 1668.17 2557.51 1668.17 Q2554.76 1668.17 2551.69 1669.12 Q2548.66 1670.08 2545.18 1672.02 L2545.18 1666.11 Q2548.71 1664.7 2551.78 1663.97 Q2554.85 1663.25 2557.39 1663.25 Q2564.11 1663.25 2568.1 1666.61 Q2572.09 1669.96 2572.09 1675.58 Q2572.09 1678.24 2571.08 1680.64 Q2570.1 1683.01 2567.46 1686.25 Q2566.74 1687.09 2562.86 1691.11 Q2558.98 1695.11 2551.92 1702.31 Z" fill="#000000" fill-rule="nonzero" fill-opacity="1" /><path clip-path="url(#clip490)" d="M2584.65 1664.03 L2607.6 1664.03 L2607.6 1668.95 L2590 1668.95 L2590 1679.54 Q2591.28 1679.11 2592.55 1678.9 Q2593.82 1678.67 2595.1 1678.67 Q2602.33 1678.67 2606.55 1682.64 Q2610.78 1686.6 2610.78 1693.37 Q2610.78 1700.34 2606.44 1704.22 Q2602.1 1708.07 2594.2 1708.07 Q2591.48 1708.07 2588.64 1707.61 Q2585.84 1707.14 2582.83 1706.22 L2582.83 1700.34 Q2585.43 1701.76 2588.21 1702.46 Q2590.99 1703.15 2594.08 1703.15 Q2599.09 1703.15 2602.01 1700.52 Q2604.93 1697.89 2604.93 1693.37 Q2604.93 1688.86 2602.01 1686.22 Q2599.09 1683.59 2594.08 1683.59 Q2591.74 1683.59 2589.4 1684.11 Q2587.08 1684.63 2584.65 1685.73 L2584.65 1664.03 Z" fill="#000000" fill-rule="nonzero" fill-opacity="1" /><path clip-path="url(#clip490)" d="M2634.79 1667.88 Q2630.28 1667.88 2628 1672.34 Q2625.74 1676.76 2625.74 1685.67 Q2625.74 1694.56 2628 1699.01 Q2630.28 1703.44 2634.79 1703.44 Q2639.34 1703.44 2641.59 1699.01 Q2643.88 1694.56 2643.88 1685.67 Q2643.88 1676.76 2641.59 1672.34 Q2639.34 1667.88 2634.79 1667.88 M2634.79 1663.25 Q2642.06 1663.25 2645.88 1669.01 Q2649.73 1674.74 2649.73 1685.67 Q2649.73 1696.58 2645.88 1702.34 Q2642.06 1708.07 2634.79 1708.07 Q2627.53 1708.07 2623.68 1702.34 Q2619.86 1696.58 2619.86 1685.67 Q2619.86 1674.74 2623.68 1669.01 Q2627.53 1663.25 2634.79 1663.25 Z" fill="#000000" fill-rule="nonzero" fill-opacity="1" /><path clip-path="url(#clip490)" d="M1310.13 1747.14 L1316.55 1747.14 L1316.55 1789.24 L1339.69 1789.24 L1339.69 1794.66 L1310.13 1794.66 L1310.13 1747.14 Z" fill="#000000" fill-rule="nonzero" fill-opacity="1" /><path clip-path="url(#clip490)" d="M1362.39 1776.74 Q1355.29 1776.74 1352.55 1778.36 Q1349.82 1779.98 1349.82 1783.9 Q1349.82 1787.02 1351.85 1788.86 Q1353.92 1790.68 1357.45 1790.68 Q1362.32 1790.68 1365.25 1787.24 Q1368.21 1783.77 1368.21 1778.04 L1368.21 1776.74 L1362.39 1776.74 M1374.07 1774.32 L1374.07 1794.66 L1368.21 1794.66 L1368.21 1789.24 Q1366.21 1792.49 1363.22 1794.05 Q1360.22 1795.58 1355.89 1795.58 Q1350.42 1795.58 1347.17 1792.52 Q1343.96 1789.44 1343.96 1784.28 Q1343.96 1778.26 1347.97 1775.21 Q1352.01 1772.15 1360 1772.15 L1368.21 1772.15 L1368.21 1771.58 Q1368.21 1767.54 1365.54 1765.34 Q1362.9 1763.11 1358.09 1763.11 Q1355.04 1763.11 1352.14 1763.85 Q1349.24 1764.58 1346.57 1766.04 L1346.57 1760.63 Q1349.78 1759.39 1352.81 1758.78 Q1355.83 1758.15 1358.7 1758.15 Q1366.43 1758.15 1370.25 1762.16 Q1374.07 1766.17 1374.07 1774.32 Z" fill="#000000" fill-rule="nonzero" fill-opacity="1" /><path clip-path="url(#clip490)" d="M1409.59 1776.42 Q1409.59 1770.05 1406.95 1766.55 Q1404.34 1763.05 1399.6 1763.05 Q1394.88 1763.05 1392.24 1766.55 Q1389.63 1770.05 1389.63 1776.42 Q1389.63 1782.75 1392.24 1786.25 Q1394.88 1789.75 1399.6 1789.75 Q1404.34 1789.75 1406.95 1786.25 Q1409.59 1782.75 1409.59 1776.42 M1415.45 1790.23 Q1415.45 1799.33 1411.4 1803.76 Q1407.36 1808.21 1399.02 1808.21 Q1395.94 1808.21 1393.2 1807.74 Q1390.46 1807.29 1387.88 1806.34 L1387.88 1800.64 Q1390.46 1802.04 1392.98 1802.71 Q1395.49 1803.38 1398.1 1803.38 Q1403.86 1803.38 1406.73 1800.35 Q1409.59 1797.36 1409.59 1791.28 L1409.59 1788.39 Q1407.78 1791.54 1404.94 1793.1 Q1402.11 1794.66 1398.16 1794.66 Q1391.61 1794.66 1387.6 1789.66 Q1383.59 1784.66 1383.59 1776.42 Q1383.59 1768.14 1387.6 1763.15 Q1391.61 1758.15 1398.16 1758.15 Q1402.11 1758.15 1404.94 1759.71 Q1407.78 1761.27 1409.59 1764.42 L1409.59 1759.01 L1415.45 1759.01 L1415.45 1790.23 Z" fill="#000000" fill-rule="nonzero" fill-opacity="1" /><path clip-path="url(#clip490)" d="M1462.3 1745.19 Q1458.03 1752.51 1455.96 1759.68 Q1453.89 1766.84 1453.89 1774.19 Q1453.89 1781.54 1455.96 1788.77 Q1458.06 1795.96 1462.3 1803.25 L1457.21 1803.25 Q1452.43 1795.77 1450.04 1788.54 Q1447.69 1781.32 1447.69 1774.19 Q1447.69 1767.09 1450.04 1759.9 Q1452.4 1752.71 1457.21 1745.19 L1462.3 1745.19 Z" fill="#000000" fill-rule="nonzero" fill-opacity="1" /><path clip-path="url(#clip490)" d="M1479.45 1748.89 L1479.45 1759.01 L1491.52 1759.01 L1491.52 1763.56 L1479.45 1763.56 L1479.45 1782.91 Q1479.45 1787.27 1480.63 1788.51 Q1481.84 1789.75 1485.5 1789.75 L1491.52 1789.75 L1491.52 1794.66 L1485.5 1794.66 Q1478.72 1794.66 1476.14 1792.14 Q1473.57 1789.59 1473.57 1782.91 L1473.57 1763.56 L1469.27 1763.56 L1469.27 1759.01 L1473.57 1759.01 L1473.57 1748.89 L1479.45 1748.89 Z" fill="#000000" fill-rule="nonzero" fill-opacity="1" /><path clip-path="url(#clip490)" d="M1519.88 1764.48 Q1518.89 1763.91 1517.71 1763.65 Q1516.57 1763.37 1515.16 1763.37 Q1510.2 1763.37 1507.53 1766.61 Q1504.88 1769.83 1504.88 1775.88 L1504.88 1794.66 L1499 1794.66 L1499 1759.01 L1504.88 1759.01 L1504.88 1764.55 Q1506.73 1761.3 1509.69 1759.74 Q1512.65 1758.15 1516.88 1758.15 Q1517.49 1758.15 1518.22 1758.24 Q1518.95 1758.31 1519.84 1758.47 L1519.88 1764.48 Z" fill="#000000" fill-rule="nonzero" fill-opacity="1" /><path clip-path="url(#clip490)" d="M1542.22 1776.74 Q1535.12 1776.74 1532.38 1778.36 Q1529.65 1779.98 1529.65 1783.9 Q1529.65 1787.02 1531.68 1788.86 Q1533.75 1790.68 1537.29 1790.68 Q1542.16 1790.68 1545.08 1787.24 Q1548.04 1783.77 1548.04 1778.04 L1548.04 1776.74 L1542.22 1776.74 M1553.9 1774.32 L1553.9 1794.66 L1548.04 1794.66 L1548.04 1789.24 Q1546.04 1792.49 1543.05 1794.05 Q1540.05 1795.58 1535.73 1795.58 Q1530.25 1795.58 1527.01 1792.52 Q1523.79 1789.44 1523.79 1784.28 Q1523.79 1778.26 1527.8 1775.21 Q1531.84 1772.15 1539.83 1772.15 L1548.04 1772.15 L1548.04 1771.58 Q1548.04 1767.54 1545.37 1765.34 Q1542.73 1763.11 1537.92 1763.11 Q1534.87 1763.11 1531.97 1763.85 Q1529.07 1764.58 1526.4 1766.04 L1526.4 1760.63 Q1529.62 1759.39 1532.64 1758.78 Q1535.66 1758.15 1538.53 1758.15 Q1546.26 1758.15 1550.08 1762.16 Q1553.9 1766.17 1553.9 1774.32 Z" fill="#000000" fill-rule="nonzero" fill-opacity="1" /><path clip-path="url(#clip490)" d="M1589.42 1764.42 L1589.42 1745.13 L1595.28 1745.13 L1595.28 1794.66 L1589.42 1794.66 L1589.42 1789.31 Q1587.57 1792.49 1584.74 1794.05 Q1581.94 1795.58 1577.99 1795.58 Q1571.53 1795.58 1567.46 1790.42 Q1563.42 1785.27 1563.42 1776.86 Q1563.42 1768.46 1567.46 1763.3 Q1571.53 1758.15 1577.99 1758.15 Q1581.94 1758.15 1584.74 1759.71 Q1587.57 1761.24 1589.42 1764.42 M1569.46 1776.86 Q1569.46 1783.32 1572.11 1787.02 Q1574.78 1790.68 1579.43 1790.68 Q1584.07 1790.68 1586.75 1787.02 Q1589.42 1783.32 1589.42 1776.86 Q1589.42 1770.4 1586.75 1766.74 Q1584.07 1763.05 1579.43 1763.05 Q1574.78 1763.05 1572.11 1766.74 Q1569.46 1770.4 1569.46 1776.86 Z" fill="#000000" fill-rule="nonzero" fill-opacity="1" /><path clip-path="url(#clip490)" d="M1607.34 1759.01 L1613.2 1759.01 L1613.2 1794.66 L1607.34 1794.66 L1607.34 1759.01 M1607.34 1745.13 L1613.2 1745.13 L1613.2 1752.55 L1607.34 1752.55 L1607.34 1745.13 Z" fill="#000000" fill-rule="nonzero" fill-opacity="1" /><path clip-path="url(#clip490)" d="M1655.08 1773.14 L1655.08 1794.66 L1649.23 1794.66 L1649.23 1773.33 Q1649.23 1768.27 1647.25 1765.76 Q1645.28 1763.24 1641.33 1763.24 Q1636.59 1763.24 1633.85 1766.26 Q1631.12 1769.29 1631.12 1774.51 L1631.12 1794.66 L1625.23 1794.66 L1625.23 1759.01 L1631.12 1759.01 L1631.12 1764.55 Q1633.22 1761.33 1636.05 1759.74 Q1638.91 1758.15 1642.64 1758.15 Q1648.78 1758.15 1651.93 1761.97 Q1655.08 1765.76 1655.08 1773.14 Z" fill="#000000" fill-rule="nonzero" fill-opacity="1" /><path clip-path="url(#clip490)" d="M1690.22 1776.42 Q1690.22 1770.05 1687.58 1766.55 Q1684.97 1763.05 1680.23 1763.05 Q1675.52 1763.05 1672.88 1766.55 Q1670.27 1770.05 1670.27 1776.42 Q1670.27 1782.75 1672.88 1786.25 Q1675.52 1789.75 1680.23 1789.75 Q1684.97 1789.75 1687.58 1786.25 Q1690.22 1782.75 1690.22 1776.42 M1696.08 1790.23 Q1696.08 1799.33 1692.04 1803.76 Q1687.99 1808.21 1679.65 1808.21 Q1676.57 1808.21 1673.83 1807.74 Q1671.09 1807.29 1668.51 1806.34 L1668.51 1800.64 Q1671.09 1802.04 1673.61 1802.71 Q1676.12 1803.38 1678.73 1803.38 Q1684.49 1803.38 1687.36 1800.35 Q1690.22 1797.36 1690.22 1791.28 L1690.22 1788.39 Q1688.41 1791.54 1685.57 1793.1 Q1682.74 1794.66 1678.8 1794.66 Q1672.24 1794.66 1668.23 1789.66 Q1664.22 1784.66 1664.22 1776.42 Q1664.22 1768.14 1668.23 1763.15 Q1672.24 1758.15 1678.8 1758.15 Q1682.74 1758.15 1685.57 1759.71 Q1688.41 1761.27 1690.22 1764.42 L1690.22 1759.01 L1696.08 1759.01 L1696.08 1790.23 Z" fill="#000000" fill-rule="nonzero" fill-opacity="1" /><path clip-path="url(#clip490)" d="M1752.32 1764.42 L1752.32 1745.13 L1758.18 1745.13 L1758.18 1794.66 L1752.32 1794.66 L1752.32 1789.31 Q1750.47 1792.49 1747.64 1794.05 Q1744.84 1795.58 1740.89 1795.58 Q1734.43 1795.58 1730.36 1790.42 Q1726.32 1785.27 1726.32 1776.86 Q1726.32 1768.46 1730.36 1763.3 Q1734.43 1758.15 1740.89 1758.15 Q1744.84 1758.15 1747.64 1759.71 Q1750.47 1761.24 1752.32 1764.42 M1732.36 1776.86 Q1732.36 1783.32 1735 1787.02 Q1737.68 1790.68 1742.33 1790.68 Q1746.97 1790.68 1749.65 1787.02 Q1752.32 1783.32 1752.32 1776.86 Q1752.32 1770.4 1749.65 1766.74 Q1746.97 1763.05 1742.33 1763.05 Q1737.68 1763.05 1735 1766.74 Q1732.36 1770.4 1732.36 1776.86 Z" fill="#000000" fill-rule="nonzero" fill-opacity="1" /><path clip-path="url(#clip490)" d="M1786.44 1776.74 Q1779.34 1776.74 1776.6 1778.36 Q1773.87 1779.98 1773.87 1783.9 Q1773.87 1787.02 1775.9 1788.86 Q1777.97 1790.68 1781.51 1790.68 Q1786.38 1790.68 1789.3 1787.24 Q1792.26 1783.77 1792.26 1778.04 L1792.26 1776.74 L1786.44 1776.74 M1798.12 1774.32 L1798.12 1794.66 L1792.26 1794.66 L1792.26 1789.24 Q1790.26 1792.49 1787.27 1794.05 Q1784.28 1795.58 1779.95 1795.58 Q1774.47 1795.58 1771.23 1792.52 Q1768.01 1789.44 1768.01 1784.28 Q1768.01 1778.26 1772.02 1775.21 Q1776.06 1772.15 1784.05 1772.15 L1792.26 1772.15 L1792.26 1771.58 Q1792.26 1767.54 1789.59 1765.34 Q1786.95 1763.11 1782.14 1763.11 Q1779.09 1763.11 1776.19 1763.85 Q1773.29 1764.58 1770.62 1766.04 L1770.62 1760.63 Q1773.84 1759.39 1776.86 1758.78 Q1779.88 1758.15 1782.75 1758.15 Q1790.48 1758.15 1794.3 1762.16 Q1798.12 1766.17 1798.12 1774.32 Z" fill="#000000" fill-rule="nonzero" fill-opacity="1" /><path clip-path="url(#clip490)" d="M1825.02 1797.97 Q1822.53 1804.33 1820.18 1806.27 Q1817.82 1808.21 1813.88 1808.21 L1809.2 1808.21 L1809.2 1803.31 L1812.63 1803.31 Q1815.05 1803.31 1816.39 1802.17 Q1817.73 1801.02 1819.35 1796.76 L1820.4 1794.08 L1805.98 1759.01 L1812.19 1759.01 L1823.33 1786.89 L1834.47 1759.01 L1840.68 1759.01 L1825.02 1797.97 Z" fill="#000000" fill-rule="nonzero" fill-opacity="1" /><path clip-path="url(#clip490)" d="M1871.49 1760.06 L1871.49 1765.6 Q1869 1764.32 1866.33 1763.69 Q1863.66 1763.05 1860.79 1763.05 Q1856.43 1763.05 1854.23 1764.39 Q1852.07 1765.72 1852.07 1768.4 Q1852.07 1770.43 1853.63 1771.61 Q1855.19 1772.76 1859.9 1773.81 L1861.9 1774.25 Q1868.14 1775.59 1870.75 1778.04 Q1873.4 1780.46 1873.4 1784.82 Q1873.4 1789.79 1869.45 1792.68 Q1865.53 1795.58 1858.66 1795.58 Q1855.79 1795.58 1852.67 1795.01 Q1849.59 1794.46 1846.15 1793.35 L1846.15 1787.3 Q1849.4 1788.99 1852.55 1789.85 Q1855.7 1790.68 1858.79 1790.68 Q1862.92 1790.68 1865.15 1789.28 Q1867.38 1787.84 1867.38 1785.27 Q1867.38 1782.88 1865.76 1781.61 Q1864.16 1780.33 1858.72 1779.16 L1856.69 1778.68 Q1851.24 1777.53 1848.82 1775.18 Q1846.4 1772.79 1846.4 1768.65 Q1846.4 1763.62 1849.97 1760.89 Q1853.53 1758.15 1860.09 1758.15 Q1863.34 1758.15 1866.2 1758.63 Q1869.07 1759.1 1871.49 1760.06 Z" fill="#000000" fill-rule="nonzero" fill-opacity="1" /><path clip-path="url(#clip490)" d="M1881.8 1745.19 L1886.89 1745.19 Q1891.66 1752.71 1894.02 1759.9 Q1896.41 1767.09 1896.41 1774.19 Q1896.41 1781.32 1894.02 1788.54 Q1891.66 1795.77 1886.89 1803.25 L1881.8 1803.25 Q1886.03 1795.96 1888.1 1788.77 Q1890.2 1781.54 1890.2 1774.19 Q1890.2 1766.84 1888.1 1759.68 Q1886.03 1752.51 1881.8 1745.19 Z" fill="#000000" fill-rule="nonzero" fill-opacity="1" /><polyline clip-path="url(#clip490)" style="stroke:#000000; stroke-linecap:round; stroke-linejoin:round; stroke-width:4; stroke-opacity:1; fill:none" points="532.517,1630.83 532.517,125.984 "/>
<polyline clip-path="url(#clip490)" style="stroke:#000000; stroke-linecap:round; stroke-linejoin:round; stroke-width:4; stroke-opacity:1; fill:none" points="532.517,1515.27 551.414,1515.27 "/>
<polyline clip-path="url(#clip490)" style="stroke:#000000; stroke-linecap:round; stroke-linejoin:round; stroke-width:4; stroke-opacity:1; fill:none" points="532.517,1232.62 551.414,1232.62 "/>
<polyline clip-path="url(#clip490)" style="stroke:#000000; stroke-linecap:round; stroke-linejoin:round; stroke-width:4; stroke-opacity:1; fill:none" points="532.517,949.974 551.414,949.974 "/>
<polyline clip-path="url(#clip490)" style="stroke:#000000; stroke-linecap:round; stroke-linejoin:round; stroke-width:4; stroke-opacity:1; fill:none" points="532.517,667.325 551.414,667.325 "/>
<polyline clip-path="url(#clip490)" style="stroke:#000000; stroke-linecap:round; stroke-linejoin:round; stroke-width:4; stroke-opacity:1; fill:none" points="532.517,384.676 551.414,384.676 "/>
<path clip-path="url(#clip490)" d="M320.379 1515.84 L357.474 1515.84 L357.474 1520.76 L320.379 1520.76 L320.379 1515.84 Z" fill="#000000" fill-rule="nonzero" fill-opacity="1" /><path clip-path="url(#clip490)" d="M382.589 1497.52 Q378.075 1497.52 375.789 1501.98 Q373.533 1506.4 373.533 1515.32 Q373.533 1524.2 375.789 1528.65 Q378.075 1533.08 382.589 1533.08 Q387.132 1533.08 389.389 1528.65 Q391.675 1524.2 391.675 1515.32 Q391.675 1506.4 389.389 1501.98 Q387.132 1497.52 382.589 1497.52 M382.589 1492.89 Q389.852 1492.89 393.671 1498.65 Q397.52 1504.38 397.52 1515.32 Q397.52 1526.22 393.671 1531.98 Q389.852 1537.71 382.589 1537.71 Q375.326 1537.71 371.478 1531.98 Q367.659 1526.22 367.659 1515.32 Q367.659 1504.38 371.478 1498.65 Q375.326 1492.89 382.589 1492.89 Z" fill="#000000" fill-rule="nonzero" fill-opacity="1" /><path clip-path="url(#clip490)" d="M407.792 1529.52 L413.897 1529.52 L413.897 1536.87 L407.792 1536.87 L407.792 1529.52 Z" fill="#000000" fill-rule="nonzero" fill-opacity="1" /><path clip-path="url(#clip490)" d="M439.128 1497.52 Q434.614 1497.52 432.328 1501.98 Q430.072 1506.4 430.072 1515.32 Q430.072 1524.2 432.328 1528.65 Q434.614 1533.08 439.128 1533.08 Q443.671 1533.08 445.928 1528.65 Q448.214 1524.2 448.214 1515.32 Q448.214 1506.4 445.928 1501.98 Q443.671 1497.52 439.128 1497.52 M439.128 1492.89 Q446.391 1492.89 450.21 1498.65 Q454.059 1504.38 454.059 1515.32 Q454.059 1526.22 450.21 1531.98 Q446.391 1537.71 439.128 1537.71 Q431.866 1537.71 428.017 1531.98 Q424.198 1526.22 424.198 1515.32 Q424.198 1504.38 428.017 1498.65 Q431.866 1492.89 439.128 1492.89 Z" fill="#000000" fill-rule="nonzero" fill-opacity="1" /><path clip-path="url(#clip490)" d="M464.388 1493.67 L487.334 1493.67 L487.334 1498.59 L469.741 1498.59 L469.741 1509.18 Q471.015 1508.75 472.288 1508.54 Q473.561 1508.31 474.834 1508.31 Q482.068 1508.31 486.292 1512.28 Q490.517 1516.24 490.517 1523.01 Q490.517 1529.99 486.177 1533.86 Q481.836 1537.71 473.937 1537.71 Q471.217 1537.71 468.382 1537.25 Q465.575 1536.79 462.566 1535.86 L462.566 1529.99 Q465.17 1531.4 467.948 1532.1 Q470.725 1532.79 473.821 1532.79 Q478.827 1532.79 481.75 1530.16 Q484.672 1527.53 484.672 1523.01 Q484.672 1518.5 481.75 1515.87 Q478.827 1513.23 473.821 1513.23 Q471.478 1513.23 469.134 1513.75 Q466.819 1514.27 464.388 1515.37 L464.388 1493.67 Z" fill="#000000" fill-rule="nonzero" fill-opacity="1" /><path clip-path="url(#clip490)" d="M381.345 1214.87 Q376.831 1214.87 374.545 1219.33 Q372.288 1223.75 372.288 1232.67 Q372.288 1241.55 374.545 1246.01 Q376.831 1250.43 381.345 1250.43 Q385.888 1250.43 388.145 1246.01 Q390.431 1241.55 390.431 1232.67 Q390.431 1223.75 388.145 1219.33 Q385.888 1214.87 381.345 1214.87 M381.345 1210.24 Q388.608 1210.24 392.427 1216 Q396.275 1221.73 396.275 1232.67 Q396.275 1243.57 392.427 1249.33 Q388.608 1255.06 381.345 1255.06 Q374.082 1255.06 370.234 1249.33 Q366.414 1243.57 366.414 1232.67 Q366.414 1221.73 370.234 1216 Q374.082 1210.24 381.345 1210.24 Z" fill="#000000" fill-rule="nonzero" fill-opacity="1" /><path clip-path="url(#clip490)" d="M406.547 1246.87 L412.653 1246.87 L412.653 1254.22 L406.547 1254.22 L406.547 1246.87 Z" fill="#000000" fill-rule="nonzero" fill-opacity="1" /><path clip-path="url(#clip490)" d="M437.884 1214.87 Q433.37 1214.87 431.084 1219.33 Q428.827 1223.75 428.827 1232.67 Q428.827 1241.55 431.084 1246.01 Q433.37 1250.43 437.884 1250.43 Q442.427 1250.43 444.684 1246.01 Q446.97 1241.55 446.97 1232.67 Q446.97 1223.75 444.684 1219.33 Q442.427 1214.87 437.884 1214.87 M437.884 1210.24 Q445.147 1210.24 448.966 1216 Q452.814 1221.73 452.814 1232.67 Q452.814 1243.57 448.966 1249.33 Q445.147 1255.06 437.884 1255.06 Q430.621 1255.06 426.773 1249.33 Q422.954 1243.57 422.954 1232.67 Q422.954 1221.73 426.773 1216 Q430.621 1210.24 437.884 1210.24 Z" fill="#000000" fill-rule="nonzero" fill-opacity="1" /><path clip-path="url(#clip490)" d="M475.586 1214.87 Q471.072 1214.87 468.787 1219.33 Q466.53 1223.75 466.53 1232.67 Q466.53 1241.55 468.787 1246.01 Q471.072 1250.43 475.586 1250.43 Q480.129 1250.43 482.386 1246.01 Q484.672 1241.55 484.672 1232.67 Q484.672 1223.75 482.386 1219.33 Q480.129 1214.87 475.586 1214.87 M475.586 1210.24 Q482.849 1210.24 486.668 1216 Q490.517 1221.73 490.517 1232.67 Q490.517 1243.57 486.668 1249.33 Q482.849 1255.06 475.586 1255.06 Q468.324 1255.06 464.475 1249.33 Q460.656 1243.57 460.656 1232.67 Q460.656 1221.73 464.475 1216 Q468.324 1210.24 475.586 1210.24 Z" fill="#000000" fill-rule="nonzero" fill-opacity="1" /><path clip-path="url(#clip490)" d="M382.589 932.222 Q378.075 932.222 375.789 936.678 Q373.533 941.105 373.533 950.017 Q373.533 958.9 375.789 963.356 Q378.075 967.783 382.589 967.783 Q387.132 967.783 389.389 963.356 Q391.675 958.9 391.675 950.017 Q391.675 941.105 389.389 936.678 Q387.132 932.222 382.589 932.222 M382.589 927.593 Q389.852 927.593 393.671 933.351 Q397.52 939.08 397.52 950.017 Q397.52 960.926 393.671 966.684 Q389.852 972.413 382.589 972.413 Q375.326 972.413 371.478 966.684 Q367.659 960.926 367.659 950.017 Q367.659 939.08 371.478 933.351 Q375.326 927.593 382.589 927.593 Z" fill="#000000" fill-rule="nonzero" fill-opacity="1" /><path clip-path="url(#clip490)" d="M407.792 964.224 L413.897 964.224 L413.897 971.574 L407.792 971.574 L407.792 964.224 Z" fill="#000000" fill-rule="nonzero" fill-opacity="1" /><path clip-path="url(#clip490)" d="M439.128 932.222 Q434.614 932.222 432.328 936.678 Q430.072 941.105 430.072 950.017 Q430.072 958.9 432.328 963.356 Q434.614 967.783 439.128 967.783 Q443.671 967.783 445.928 963.356 Q448.214 958.9 448.214 950.017 Q448.214 941.105 445.928 936.678 Q443.671 932.222 439.128 932.222 M439.128 927.593 Q446.391 927.593 450.21 933.351 Q454.059 939.08 454.059 950.017 Q454.059 960.926 450.21 966.684 Q446.391 972.413 439.128 972.413 Q431.866 972.413 428.017 966.684 Q424.198 960.926 424.198 950.017 Q424.198 939.08 428.017 933.351 Q431.866 927.593 439.128 927.593 Z" fill="#000000" fill-rule="nonzero" fill-opacity="1" /><path clip-path="url(#clip490)" d="M464.388 928.374 L487.334 928.374 L487.334 933.293 L469.741 933.293 L469.741 943.883 Q471.015 943.449 472.288 943.246 Q473.561 943.015 474.834 943.015 Q482.068 943.015 486.292 946.979 Q490.517 950.943 490.517 957.714 Q490.517 964.687 486.177 968.565 Q481.836 972.413 473.937 972.413 Q471.217 972.413 468.382 971.95 Q465.575 971.487 462.566 970.561 L462.566 964.687 Q465.17 966.105 467.948 966.8 Q470.725 967.494 473.821 967.494 Q478.827 967.494 481.75 964.861 Q484.672 962.228 484.672 957.714 Q484.672 953.2 481.75 950.567 Q478.827 947.934 473.821 947.934 Q471.478 947.934 469.134 948.455 Q466.819 948.976 464.388 950.075 L464.388 928.374 Z" fill="#000000" fill-rule="nonzero" fill-opacity="1" /><path clip-path="url(#clip490)" d="M381.345 649.573 Q376.831 649.573 374.545 654.029 Q372.288 658.456 372.288 667.368 Q372.288 676.251 374.545 680.707 Q376.831 685.134 381.345 685.134 Q385.888 685.134 388.145 680.707 Q390.431 676.251 390.431 667.368 Q390.431 658.456 388.145 654.029 Q385.888 649.573 381.345 649.573 M381.345 644.944 Q388.608 644.944 392.427 650.702 Q396.275 656.431 396.275 667.368 Q396.275 678.277 392.427 684.035 Q388.608 689.764 381.345 689.764 Q374.082 689.764 370.234 684.035 Q366.414 678.277 366.414 667.368 Q366.414 656.431 370.234 650.702 Q374.082 644.944 381.345 644.944 Z" fill="#000000" fill-rule="nonzero" fill-opacity="1" /><path clip-path="url(#clip490)" d="M406.547 681.575 L412.653 681.575 L412.653 688.925 L406.547 688.925 L406.547 681.575 Z" fill="#000000" fill-rule="nonzero" fill-opacity="1" /><path clip-path="url(#clip490)" d="M426.397 684.006 L435.945 684.006 L435.945 651.049 L425.558 653.132 L425.558 647.808 L435.887 645.725 L441.732 645.725 L441.732 684.006 L451.281 684.006 L451.281 688.925 L426.397 688.925 L426.397 684.006 Z" fill="#000000" fill-rule="nonzero" fill-opacity="1" /><path clip-path="url(#clip490)" d="M475.586 649.573 Q471.072 649.573 468.787 654.029 Q466.53 658.456 466.53 667.368 Q466.53 676.251 468.787 680.707 Q471.072 685.134 475.586 685.134 Q480.129 685.134 482.386 680.707 Q484.672 676.251 484.672 667.368 Q484.672 658.456 482.386 654.029 Q480.129 649.573 475.586 649.573 M475.586 644.944 Q482.849 644.944 486.668 650.702 Q490.517 656.431 490.517 667.368 Q490.517 678.277 486.668 684.035 Q482.849 689.764 475.586 689.764 Q468.324 689.764 464.475 684.035 Q460.656 678.277 460.656 667.368 Q460.656 656.431 464.475 650.702 Q468.324 644.944 475.586 644.944 Z" fill="#000000" fill-rule="nonzero" fill-opacity="1" /><path clip-path="url(#clip490)" d="M382.589 366.924 Q378.075 366.924 375.789 371.38 Q373.533 375.807 373.533 384.719 Q373.533 393.602 375.789 398.058 Q378.075 402.485 382.589 402.485 Q387.132 402.485 389.389 398.058 Q391.675 393.602 391.675 384.719 Q391.675 375.807 389.389 371.38 Q387.132 366.924 382.589 366.924 M382.589 362.295 Q389.852 362.295 393.671 368.053 Q397.52 373.782 397.52 384.719 Q397.52 395.628 393.671 401.386 Q389.852 407.115 382.589 407.115 Q375.326 407.115 371.478 401.386 Q367.659 395.628 367.659 384.719 Q367.659 373.782 371.478 368.053 Q375.326 362.295 382.589 362.295 Z" fill="#000000" fill-rule="nonzero" fill-opacity="1" /><path clip-path="url(#clip490)" d="M407.792 398.926 L413.897 398.926 L413.897 406.276 L407.792 406.276 L407.792 398.926 Z" fill="#000000" fill-rule="nonzero" fill-opacity="1" /><path clip-path="url(#clip490)" d="M427.641 401.357 L437.19 401.357 L437.19 368.4 L426.802 370.483 L426.802 365.159 L437.132 363.076 L442.977 363.076 L442.977 401.357 L452.525 401.357 L452.525 406.276 L427.641 406.276 L427.641 401.357 Z" fill="#000000" fill-rule="nonzero" fill-opacity="1" /><path clip-path="url(#clip490)" d="M464.388 363.076 L487.334 363.076 L487.334 367.995 L469.741 367.995 L469.741 378.585 Q471.015 378.151 472.288 377.948 Q473.561 377.717 474.834 377.717 Q482.068 377.717 486.292 381.681 Q490.517 385.645 490.517 392.416 Q490.517 399.389 486.177 403.267 Q481.836 407.115 473.937 407.115 Q471.217 407.115 468.382 406.652 Q465.575 406.189 462.566 405.263 L462.566 399.389 Q465.17 400.807 467.948 401.501 Q470.725 402.196 473.821 402.196 Q478.827 402.196 481.75 399.563 Q484.672 396.93 484.672 392.416 Q484.672 387.902 481.75 385.269 Q478.827 382.636 473.821 382.636 Q471.478 382.636 469.134 383.157 Q466.819 383.678 464.388 384.777 L464.388 363.076 Z" fill="#000000" fill-rule="nonzero" fill-opacity="1" /><path clip-path="url(#clip490)" d="M222.937 1004.56 L246.585 1013.28 L246.585 995.807 L222.937 1004.56 M216.603 1008.19 L216.603 1000.9 L264.123 982.79 L264.123 989.474 L251.933 993.802 L251.933 1015.22 L264.123 1019.55 L264.123 1026.33 L216.603 1008.19 Z" fill="#000000" fill-rule="nonzero" fill-opacity="1" /><path clip-path="url(#clip490)" d="M220.263 941.412 L227.043 941.412 Q224.019 944.659 222.523 948.351 Q221.027 952.011 221.027 956.149 Q221.027 964.297 226.024 968.626 Q230.989 972.955 240.411 972.955 Q249.8 972.955 254.797 968.626 Q259.762 964.297 259.762 956.149 Q259.762 952.011 258.266 948.351 Q256.77 944.659 253.747 941.412 L260.463 941.412 Q262.754 944.786 263.9 948.574 Q265.046 952.33 265.046 956.531 Q265.046 967.321 258.457 973.527 Q251.837 979.734 240.411 979.734 Q228.952 979.734 222.364 973.527 Q215.743 967.321 215.743 956.531 Q215.743 952.266 216.889 948.51 Q218.003 944.723 220.263 941.412 Z" fill="#000000" fill-rule="nonzero" fill-opacity="1" /><path clip-path="url(#clip490)" d="M216.603 931.482 L216.603 904.173 L222.014 904.173 L222.014 925.053 L236.018 925.053 L236.018 906.21 L241.429 906.21 L241.429 925.053 L264.123 925.053 L264.123 931.482 L216.603 931.482 Z" fill="#000000" fill-rule="nonzero" fill-opacity="1" /><path clip-path="url(#clip490)" d="M232.581 859.709 Q232.581 864.419 236.273 867.156 Q239.933 869.894 246.331 869.894 Q252.728 869.894 256.42 867.188 Q260.081 864.451 260.081 859.709 Q260.081 855.03 256.389 852.293 Q252.696 849.555 246.331 849.555 Q239.997 849.555 236.305 852.293 Q232.581 855.03 232.581 859.709 M227.616 859.709 Q227.616 852.07 232.581 847.709 Q237.546 843.349 246.331 843.349 Q255.084 843.349 260.081 847.709 Q265.046 852.07 265.046 859.709 Q265.046 867.379 260.081 871.74 Q255.084 876.068 246.331 876.068 Q237.546 876.068 232.581 871.74 Q227.616 867.379 227.616 859.709 Z" fill="#000000" fill-rule="nonzero" fill-opacity="1" /><path clip-path="url(#clip490)" d="M214.598 815.594 L219.467 815.594 L219.467 821.196 Q219.467 824.347 220.741 825.588 Q222.014 826.798 225.324 826.798 L228.475 826.798 L228.475 817.154 L233.026 817.154 L233.026 826.798 L264.123 826.798 L264.123 832.686 L233.026 832.686 L233.026 838.288 L228.475 838.288 L228.475 832.686 L225.992 832.686 Q220.04 832.686 217.335 829.917 Q214.598 827.148 214.598 821.132 L214.598 815.594 Z" fill="#000000" fill-rule="nonzero" fill-opacity="1" /><path clip-path="url(#clip490)" d="M257.343 757.316 L244.58 757.316 L244.58 767.82 L239.297 767.82 L239.297 750.951 L259.699 750.951 Q262.34 754.674 263.709 759.162 Q265.046 763.65 265.046 768.743 Q265.046 779.883 258.553 786.185 Q252.028 792.455 240.411 792.455 Q228.761 792.455 222.268 786.185 Q215.743 779.883 215.743 768.743 Q215.743 764.096 216.889 759.926 Q218.035 755.725 220.263 752.192 L227.106 752.192 Q224.083 755.757 222.555 759.767 Q221.027 763.777 221.027 768.202 Q221.027 776.923 225.897 781.315 Q230.767 785.675 240.411 785.675 Q250.023 785.675 254.893 781.315 Q259.762 776.923 259.762 768.202 Q259.762 764.796 259.189 762.122 Q258.585 759.449 257.343 757.316 Z" fill="#000000" fill-rule="nonzero" fill-opacity="1" /><path clip-path="url(#clip490)" d="M238.501 738.092 L244.166 738.092 L244.166 730.485 L246.713 730.485 L246.713 738.092 L257.534 738.092 Q259.985 738.092 260.685 737.328 Q261.386 736.564 261.386 734.272 L261.386 730.485 L264.123 730.485 L264.123 734.272 Q264.123 738.537 262.691 740.161 Q261.29 741.784 257.534 741.784 L246.713 741.784 L246.713 744.489 L244.166 744.489 L244.166 741.784 L238.501 741.784 L238.501 738.092 Z" fill="#000000" fill-rule="nonzero" fill-opacity="1" /><polyline clip-path="url(#clip491)" style="stroke:#d45e00; stroke-linecap:round; stroke-linejoin:round; stroke-width:8; stroke-opacity:1; fill:none" stroke-dasharray="32, 20" points="593.125,168.574 601.174,1163.28 609.223,1332.18 617.272,1287.47 625.321,1369.98 633.37,1443.43 641.419,881.318 649.468,1313.68 657.517,878.044 665.566,1336.41 673.615,1216.55 681.664,1322.18 689.712,1328.84 697.761,1313.79 705.81,1527.34 713.859,1081.02 721.908,1211.36 729.957,1274.96 738.006,1189.82 746.055,1055.04 754.104,1334.63 762.153,1558.18 770.202,1499.08 778.251,1358.35 786.3,1353.36 794.349,1450.33 802.398,1244.38 810.446,1130.6 818.495,1189.47 826.544,1398.51 834.593,1588.24 842.642,1522.57 850.691,1169.97 858.74,1159.67 866.789,1212.53 874.838,1003.17 882.887,1271.28 890.936,1197.67 898.985,1325.99 907.034,1404.91 915.083,1411.56 923.132,1217.77 931.18,1214.67 939.229,1262.35 947.278,1256.04 955.327,1418.11 963.376,1122.55 971.425,1267.2 979.474,1334.13 987.523,1314.54 995.572,1313.87 1003.62,1172.96 1011.67,1258.8 1019.72,1108.69 1027.77,1346.84 1035.82,1264.92 1043.87,1396.12 1051.91,1250.13 1059.96,1205.77 1068.01,1277.4 1076.06,1201.42 1084.11,1431.59 1092.16,1001.59 1100.21,1223.25 1108.26,1321.69 1116.31,1278.37 1124.35,1338.57 1132.4,1187.95 1140.45,1178.16 1148.5,1130.51 1156.55,1293.85 1164.6,1047.54 1172.65,1205.88 1180.7,1361.79 1188.75,1276.82 1196.8,1186.45 1204.84,1274.36 1212.89,1243.84 1220.94,1295.75 1228.99,1378.19 1237.04,1016.88 1245.09,983.491 1253.14,1221.62 1261.19,1388.78 1269.24,1361.06 1277.28,1355.97 1285.33,1158.63 1293.38,1138.4 1301.43,1286.32 1309.48,1181.84 1317.53,1278.47 1325.58,1315.18 1333.63,1451.91 1341.68,1350.94 1349.72,1242.06 1357.77,1036.66 1365.82,773.894 1373.87,1120.67 1381.92,1252.94 1389.97,1175.62 1398.02,1135.13 1406.07,1301.67 1414.12,1156.58 1422.17,1218.66 1430.21,1289.49 1438.26,1051.02 1446.31,1308.64 1454.36,1257.8 1462.41,1354.28 1470.46,1145.58 1478.51,1198.17 1486.56,1172.55 1494.61,1243.64 1502.65,1452.72 1510.7,1277.94 1518.75,1246.01 1526.8,1011.65 1534.85,1182.84 1542.9,1193.95 1550.95,1264.95 1559,1233.35 1567.05,1214.75 1575.1,1226.62 1583.14,1316.55 1591.19,1279.66 1599.24,1187.02 1607.29,1291.29 1615.34,1273.22 1623.39,1329.61 1631.44,1217.6 1639.49,1282.2 1647.54,1383.87 1655.58,1133.32 1663.63,1157.07 1671.68,923.925 1679.73,1395.02 1687.78,1277.36 1695.83,1213.05 1703.88,1251.36 1711.93,1463.66 1719.98,1425.37 1728.02,1153.68 1736.07,1345.43 1744.12,1275.62 1752.17,1277.79 1760.22,1163.62 1768.27,1141.73 1776.32,1200.23 1784.37,1174.47 1792.42,1237.42 1800.47,936.446 1808.51,1084.1 1816.56,1092.26 1824.61,967.124 1832.66,1060.7 1840.71,1191.46 1848.76,1318.03 1856.81,1184.66 1864.86,1076.79 1872.91,1102.18 1880.95,1328.65 1889,1280.25 1897.05,1153.75 1905.1,1351.55 1913.15,1300.88 1921.2,1198.06 1929.25,1173.81 1937.3,1157.75 1945.35,1244.54 1953.39,1440.19 1961.44,1178.49 1969.49,1118.77 1977.54,1164.3 1985.59,1424.86 1993.64,1183.31 2001.69,1270.48 2009.74,1348.58 2017.79,1210.14 2025.84,1158.44 2033.88,1172.69 2041.93,1490.75 2049.98,1324.17 2058.03,1335.15 2066.08,1145.57 2074.13,1158.76 2082.18,1115.6 2090.23,1063.07 2098.28,1281.7 2106.32,1349.9 2114.37,1422.05 2122.42,1270.26 2130.47,1312.29 2138.52,1175.58 2146.57,1185.88 2154.62,1277.98 2162.67,1157.79 2170.72,1282.39 2178.76,1369.14 2186.81,1226.59 2194.86,1234.49 2202.91,1160.51 2210.96,1195.92 2219.01,1218.27 2227.06,1379.78 2235.11,1225.47 2243.16,1101.86 2251.21,1039.8 2259.25,1303.69 2267.3,1289.64 2275.35,1196.05 2283.4,1299.49 2291.45,1128.72 2299.5,1256.24 2307.55,1181.08 2315.6,1285.05 2323.65,1290.39 2331.69,1087.73 2339.74,1202.49 2347.79,1097 2355.84,1228.82 2363.89,1314.41 2371.94,1488.59 2379.99,1191.43 2388.04,1211.81 2396.09,1233.1 2404.14,1279.37 2412.18,1372.08 2420.23,1514.57 2428.28,1240.26 2436.33,1296.02 2444.38,1168.44 2452.43,1130.83 2460.48,1323.3 2468.53,1371.49 2476.58,1291.36 2484.62,1370.25 2492.67,1385.97 2500.72,1090.82 2508.77,1162.58 2516.82,1213.9 2524.87,1210.36 2532.92,1198.8 2540.97,1237.39 2549.02,1208.1 2557.06,1035.75 2565.11,1205.24 2573.16,1303.8 2581.21,1198.07 2589.26,1180.76 2597.31,1208.61 2605.36,1182.29 2613.41,1329.12 "/>
<polyline clip-path="url(#clip491)" style="stroke:#009e73; stroke-linecap:round; stroke-linejoin:round; stroke-width:8; stroke-opacity:1; fill:none" points="593.125,689.426 601.174,1066.94 609.223,1180.64 617.272,1209.05 625.321,1196.51 633.37,1211.48 641.419,1193.85 649.468,1222.43 657.517,1225.92 665.566,1219.62 673.615,1223.61 681.664,1212.21 689.712,1235.7 697.761,1246.31 705.81,1236.31 713.859,1235.33 721.908,1213.99 729.957,1236.62 738.006,1237.2 746.055,1221.77 754.104,1227.8 762.153,1225.63 770.202,1229.5 778.251,1234.03 786.3,1233.29 794.349,1235.84 802.398,1237.04 810.446,1229.16 818.495,1222.86 826.544,1228.27 834.593,1234.21 842.642,1223.41 850.691,1219.54 858.74,1223.15 866.789,1228.59 874.838,1248.96 882.887,1235.98 890.936,1230.25 898.985,1239.17 907.034,1240.14 915.083,1239.93 923.132,1236.53 931.18,1255.28 939.229,1230.69 947.278,1230.42 955.327,1241.83 963.376,1230.16 971.425,1229.27 979.474,1229.72 987.523,1231.37 995.572,1227.02 1003.62,1232.59 1011.67,1242.12 1019.72,1244.05 1027.77,1240.18 1035.82,1230.63 1043.87,1243.76 1051.91,1231.98 1059.96,1233.28 1068.01,1231.55 1076.06,1235.08 1084.11,1235.08 1092.16,1238.39 1100.21,1234.73 1108.26,1244.9 1116.31,1228.49 1124.35,1245.24 1132.4,1253.35 1140.45,1240.38 1148.5,1235.73 1156.55,1231.25 1164.6,1235.09 1172.65,1238.23 1180.7,1241.63 1188.75,1234.31 1196.8,1224.78 1204.84,1226.47 1212.89,1229.14 1220.94,1227.03 1228.99,1222.91 1237.04,1227.45 1245.09,1230.33 1253.14,1242.59 1261.19,1240.88 1269.24,1241.4 1277.28,1223.69 1285.33,1236.29 1293.38,1246.87 1301.43,1238.94 1309.48,1230.12 1317.53,1233.01 1325.58,1238.4 1333.63,1251.99 1341.68,1236.57 1349.72,1240.56 1357.77,1247.26 1365.82,1246.75 1373.87,1239.39 1381.92,1238.21 1389.97,1241.62 1398.02,1228.29 1406.07,1250.74 1414.12,1235.83 1422.17,1229.5 1430.21,1229.41 1438.26,1220.09 1446.31,1241.43 1454.36,1234.97 1462.41,1232.91 1470.46,1233.65 1478.51,1240.32 1486.56,1229.96 1494.61,1229.61 1502.65,1234.49 1510.7,1230.62 1518.75,1229.2 1526.8,1235.38 1534.85,1237.82 1542.9,1239.39 1550.95,1238.34 1559,1240.77 1567.05,1238.65 1575.1,1234.49 1583.14,1241 1591.19,1238.22 1599.24,1244.9 1607.29,1235.11 1615.34,1249.04 1623.39,1235.95 1631.44,1232.9 1639.49,1236.69 1647.54,1231.14 1655.58,1240.36 1663.63,1240.76 1671.68,1240.62 1679.73,1235.27 1687.78,1230.3 1695.83,1231.76 1703.88,1237.17 1711.93,1241.27 1719.98,1251.72 1728.02,1233.97 1736.07,1228.07 1744.12,1228.43 1752.17,1228.54 1760.22,1237.17 1768.27,1241.08 1776.32,1235.45 1784.37,1234.13 1792.42,1234.99 1800.47,1241.86 1808.51,1242.73 1816.56,1233.66 1824.61,1231.86 1832.66,1235.98 1840.71,1228.21 1848.76,1243.62 1856.81,1247.22 1864.86,1234.27 1872.91,1236.94 1880.95,1236.61 1889,1241.16 1897.05,1225.39 1905.1,1231.04 1913.15,1246.37 1921.2,1225.22 1929.25,1230.73 1937.3,1235.61 1945.35,1230.57 1953.39,1227.32 1961.44,1232.59 1969.49,1240.83 1977.54,1249.47 1985.59,1243.83 1993.64,1234.51 2001.69,1228.49 2009.74,1234.81 2017.79,1245.52 2025.84,1227.48 2033.88,1245.8 2041.93,1239.07 2049.98,1223.6 2058.03,1236.82 2066.08,1243.06 2074.13,1239.29 2082.18,1226.22 2090.23,1241.57 2098.28,1215.9 2106.32,1228.57 2114.37,1235.68 2122.42,1253.22 2130.47,1234.49 2138.52,1237.8 2146.57,1240.04 2154.62,1241.17 2162.67,1233.7 2170.72,1231.42 2178.76,1224.28 2186.81,1239.65 2194.86,1225.23 2202.91,1232.34 2210.96,1241.48 2219.01,1236.49 2227.06,1226.15 2235.11,1236.82 2243.16,1236.99 2251.21,1236.14 2259.25,1239.96 2267.3,1231.26 2275.35,1239.98 2283.4,1238.12 2291.45,1230.52 2299.5,1251.81 2307.55,1242.32 2315.6,1241.45 2323.65,1244.3 2331.69,1229.65 2339.74,1231.16 2347.79,1228.68 2355.84,1245.31 2363.89,1242.57 2371.94,1231.13 2379.99,1233.7 2388.04,1231.65 2396.09,1223.06 2404.14,1235.48 2412.18,1232.52 2420.23,1221.72 2428.28,1230.41 2436.33,1235.46 2444.38,1237.83 2452.43,1242 2460.48,1229.94 2468.53,1245.87 2476.58,1235.7 2484.62,1232.51 2492.67,1239.96 2500.72,1236.91 2508.77,1229.56 2516.82,1220.84 2524.87,1239.52 2532.92,1224.13 2540.97,1229.56 2549.02,1239.68 2557.06,1239.97 2565.11,1226.37 2573.16,1240.88 2581.21,1235.49 2589.26,1238.1 2597.31,1231.86 2605.36,1242.11 2613.41,1245.54 "/>
<path clip-path="url(#clip491)" d="M593.125 890.651 L601.174 1270.18 L609.223 1381.59 L617.272 1412.48 L625.321 1374.76 L633.37 1414.22 L641.419 1371.24 L649.468 1405.83 L657.517 1390.31 L665.566 1421.58 L673.615 1387.94 L681.664 1376.47 L689.712 1400.45 L697.761 1418.14 L705.81 1375.12 L713.859 1406.92 L721.908 1348.79 L729.957 1390.22 L738.006 1387.45 L746.055 1380.67 L754.104 1362.05 L762.153 1367.85 L770.202 1402.19 L778.251 1400.76 L786.3 1373.76 L794.349 1371.61 L802.398 1373.3 L810.446 1386.21 L818.495 1370.1 L826.544 1390.38 L834.593 1384.86 L842.642 1388.06 L850.691 1365.85 L858.74 1360.41 L866.789 1377.41 L874.838 1400.97 L882.887 1393.17 L890.936 1372.85 L898.985 1369.96 L907.034 1374.05 L915.083 1392.59 L923.132 1377.96 L931.18 1381.23 L939.229 1359.61 L947.278 1366.49 L955.327 1392.51 L963.376 1377.4 L971.425 1364.69 L979.474 1371.12 L987.523 1379.35 L995.572 1379.09 L1003.62 1370.83 L1011.67 1376.24 L1019.72 1396.65 L1027.77 1369.14 L1035.82 1367.5 L1043.87 1393.56 L1051.91 1371.64 L1059.96 1403.32 L1068.01 1384.83 L1076.06 1393.37 L1084.11 1366.24 L1092.16 1394.85 L1100.21 1391.02 L1108.26 1389.66 L1116.31 1381.25 L1124.35 1398.37 L1132.4 1408.83 L1140.45 1368.72 L1148.5 1366.07 L1156.55 1378.07 L1164.6 1390.95 L1172.65 1389.09 L1180.7 1398.14 L1188.75 1373.84 L1196.8 1359.12 L1204.84 1375.59 L1212.89 1351.54 L1220.94 1375.91 L1228.99 1339.25 L1237.04 1356.54 L1245.09 1372.13 L1253.14 1397.35 L1261.19 1389.3 L1269.24 1378.95 L1277.28 1358.72 L1285.33 1358.98 L1293.38 1386.13 L1301.43 1374.84 L1309.48 1381.57 L1317.53 1367.77 L1325.58 1369.46 L1333.63 1380.69 L1341.68 1380.2 L1349.72 1360.98 L1357.77 1377.3 L1365.82 1391.17 L1373.87 1381.4 L1381.92 1380.78 L1389.97 1377.85 L1398.02 1369.48 L1406.07 1372.7 L1414.12 1381.96 L1422.17 1380.05 L1430.21 1363.77 L1438.26 1364.34 L1446.31 1398.19 L1454.36 1388.2 L1462.41 1395.21 L1470.46 1357.65 L1478.51 1400.2 L1486.56 1371.23 L1494.61 1349.87 L1502.65 1376.71 L1510.7 1387.18 L1518.75 1362.72 L1526.8 1369.69 L1534.85 1370.88 L1542.9 1374.35 L1550.95 1407 L1559 1370.55 L1567.05 1380.62 L1575.1 1387.12 L1583.14 1393.17 L1591.19 1388.97 L1599.24 1374.68 L1607.29 1377.65 L1615.34 1379.46 L1623.39 1361.61 L1631.44 1388.95 L1639.49 1377.61 L1647.54 1366.71 L1655.58 1375.58 L1663.63 1382.65 L1671.68 1395.27 L1679.73 1387.11 L1687.78 1357.18 L1695.83 1372.9 L1703.88 1368.13 L1711.93 1400.71 L1719.98 1372.31 L1728.02 1378.56 L1736.07 1359.08 L1744.12 1379.32 L1752.17 1349.68 L1760.22 1384.35 L1768.27 1384.44 L1776.32 1386.41 L1784.37 1374.06 L1792.42 1369.71 L1800.47 1367.21 L1808.51 1382.82 L1816.56 1386.83 L1824.61 1362.82 L1832.66 1359.2 L1840.71 1361.17 L1848.76 1369.8 L1856.81 1375.56 L1864.86 1363.63 L1872.91 1384.84 L1880.95 1374.34 L1889 1386.96 L1897.05 1357.21 L1905.1 1380.97 L1913.15 1383.35 L1921.2 1360.11 L1929.25 1381.15 L1937.3 1392.98 L1945.35 1376.28 L1953.39 1374.39 L1961.44 1378.53 L1969.49 1374.98 L1977.54 1389.46 L1985.59 1370.35 L1993.64 1380.33 L2001.69 1370.22 L2009.74 1352.08 L2017.79 1382.1 L2025.84 1351.53 L2033.88 1366.09 L2041.93 1384.05 L2049.98 1365.11 L2058.03 1364.92 L2066.08 1373.24 L2074.13 1361.76 L2082.18 1354.1 L2090.23 1378.8 L2098.28 1362.62 L2106.32 1372.12 L2114.37 1375.75 L2122.42 1391.38 L2130.47 1365.29 L2138.52 1380.35 L2146.57 1368.46 L2154.62 1368 L2162.67 1344.26 L2170.72 1346.02 L2178.76 1353.81 L2186.81 1396.82 L2194.86 1350.92 L2202.91 1373.93 L2210.96 1392.3 L2219.01 1377.84 L2227.06 1352.93 L2235.11 1379.1 L2243.16 1353.83 L2251.21 1374.29 L2259.25 1379.93 L2267.3 1369.9 L2275.35 1375.34 L2283.4 1374.8 L2291.45 1368.42 L2299.5 1375.16 L2307.55 1382.65 L2315.6 1382.14 L2323.65 1384.91 L2331.69 1359.57 L2339.74 1364.65 L2347.79 1369.66 L2355.84 1368.98 L2363.89 1374.23 L2371.94 1354.32 L2379.99 1390.94 L2388.04 1363.47 L2396.09 1357.73 L2404.14 1383.51 L2412.18 1370.86 L2420.23 1356.17 L2428.28 1368.11 L2436.33 1353.84 L2444.38 1363.96 L2452.43 1381.64 L2460.48 1353.01 L2468.53 1373.21 L2476.58 1367.48 L2484.62 1371.75 L2492.67 1359.62 L2500.72 1378.27 L2508.77 1378.76 L2516.82 1339.61 L2524.87 1359.68 L2532.92 1354.21 L2540.97 1357.12 L2549.02 1371.74 L2557.06 1362.04 L2565.11 1355.37 L2573.16 1377.41 L2581.21 1371.8 L2589.26 1364.1 L2597.31 1382.69 L2605.36 1366.06 L2613.41 1385.03 L2613.41 1118.21 L2605.36 1126.84 L2597.31 1091.89 L2589.26 1102.03 L2581.21 1081.59 L2573.16 1111.93 L2565.11 1062.73 L2557.06 1102.78 L2549.02 1119.95 L2540.97 1095.95 L2532.92 1100.96 L2524.87 1109.78 L2516.82 1081.46 L2508.77 1071.15 L2500.72 1096.75 L2492.67 1116.63 L2484.62 1114.93 L2476.58 1112.31 L2468.53 1108.64 L2460.48 1105.66 L2452.43 1091.34 L2444.38 1085.6 L2436.33 1100.02 L2428.28 1098.11 L2420.23 1073.59 L2412.18 1092.5 L2404.14 1095.93 L2396.09 1090.19 L2388.04 1096.85 L2379.99 1070.24 L2371.94 1101.56 L2363.89 1101.6 L2355.84 1111.08 L2347.79 1074.84 L2339.74 1087.67 L2331.69 1093.63 L2323.65 1086.86 L2315.6 1102.29 L2307.55 1094.53 L2299.5 1127.16 L2291.45 1093.32 L2283.4 1107.39 L2275.35 1100.79 L2267.3 1104.95 L2259.25 1107.34 L2251.21 1106.77 L2243.16 1087.02 L2235.11 1071.78 L2227.06 1116.08 L2219.01 1109.88 L2210.96 1099.86 L2202.91 1096.13 L2194.86 1086.68 L2186.81 1087.44 L2178.76 1090.93 L2170.72 1109.16 L2162.67 1108.28 L2154.62 1106.54 L2146.57 1102.43 L2138.52 1097.29 L2130.47 1118.93 L2122.42 1118.92 L2114.37 1116.17 L2106.32 1087.89 L2098.28 1066.73 L2090.23 1096.18 L2082.18 1103.65 L2074.13 1120.26 L2066.08 1103.15 L2058.03 1116.16 L2049.98 1101.64 L2041.93 1100.92 L2033.88 1119.5 L2025.84 1099.09 L2017.79 1106.59 L2009.74 1098.54 L2001.69 1093.66 L1993.64 1107.55 L1985.59 1103 L1977.54 1104.98 L1969.49 1098.66 L1961.44 1094.27 L1953.39 1080.91 L1945.35 1089.32 L1937.3 1099.38 L1929.25 1088.64 L1921.2 1104.65 L1913.15 1117.56 L1905.1 1095.19 L1897.05 1092.14 L1889 1090.16 L1880.95 1105.1 L1872.91 1097.75 L1864.86 1102.55 L1856.81 1115.49 L1848.76 1108.89 L1840.71 1089.83 L1832.66 1089.8 L1824.61 1100.6 L1816.56 1095.03 L1808.51 1109.62 L1800.47 1109.91 L1792.42 1110.56 L1784.37 1096.78 L1776.32 1111.08 L1768.27 1103.45 L1760.22 1082.48 L1752.17 1091.45 L1744.12 1069.56 L1736.07 1101.18 L1728.02 1090.24 L1719.98 1117.04 L1711.93 1102.55 L1703.88 1101.32 L1695.83 1092.01 L1687.78 1093.12 L1679.73 1100.94 L1671.68 1094.17 L1663.63 1107.64 L1655.58 1107.38 L1647.54 1106.79 L1639.49 1090.8 L1631.44 1096.34 L1623.39 1116.07 L1615.34 1127.02 L1607.29 1090.32 L1599.24 1090.18 L1591.19 1101.95 L1583.14 1090.72 L1575.1 1083.34 L1567.05 1084.12 L1559 1116.16 L1550.95 1083.83 L1542.9 1117.24 L1534.85 1102.29 L1526.8 1087.67 L1518.75 1107.81 L1510.7 1087.43 L1502.65 1100.19 L1494.61 1110.54 L1486.56 1089.75 L1478.51 1089.46 L1470.46 1107.69 L1462.41 1083.04 L1454.36 1076.5 L1446.31 1105.81 L1438.26 1077.41 L1430.21 1093.85 L1422.17 1096.04 L1414.12 1093.64 L1406.07 1098.3 L1398.02 1073.88 L1389.97 1100.7 L1381.92 1110.91 L1373.87 1099.8 L1365.82 1098.3 L1357.77 1115.23 L1349.72 1120.69 L1341.68 1110.98 L1333.63 1116.34 L1325.58 1117.64 L1317.53 1104.39 L1309.48 1085.89 L1301.43 1099.6 L1293.38 1103.51 L1285.33 1113.65 L1277.28 1102.59 L1269.24 1087.42 L1261.19 1078.78 L1253.14 1081.56 L1245.09 1084.5 L1237.04 1090.82 L1228.99 1086.2 L1220.94 1095.23 L1212.89 1087.06 L1204.84 1088.95 L1196.8 1090.64 L1188.75 1081.56 L1180.7 1102.83 L1172.65 1100.51 L1164.6 1093 L1156.55 1079.94 L1148.5 1107.07 L1140.45 1101.11 L1132.4 1102.32 L1124.35 1108.46 L1116.31 1091.89 L1108.26 1103.36 L1100.21 1091.4 L1092.16 1086.9 L1084.11 1094.17 L1076.06 1085.07 L1068.01 1072.26 L1059.96 1077.12 L1051.91 1100.4 L1043.87 1085.5 L1035.82 1085.11 L1027.77 1107.46 L1019.72 1094.61 L1011.67 1105.23 L1003.62 1097.35 L995.572 1079.32 L987.523 1079.51 L979.474 1080.21 L971.425 1077.83 L963.376 1095.94 L955.327 1085.34 L947.278 1070.92 L939.229 1077.79 L931.18 1114.62 L923.132 1108.58 L915.083 1105.29 L907.034 1103.63 L898.985 1106.52 L890.936 1085.86 L882.887 1074.72 L874.838 1107.98 L866.789 1041.6 L858.74 1078.03 L850.691 1073.28 L842.642 1055.69 L834.593 1090.94 L826.544 1073.12 L818.495 1081.48 L810.446 1076.35 L802.398 1110.51 L794.349 1091.41 L786.3 1064.66 L778.251 1068.76 L770.202 1070.39 L762.153 1096.65 L754.104 1068.31 L746.055 1051.07 L738.006 1088.58 L729.957 1089.29 L721.908 1067.87 L713.859 1059.04 L705.81 1062.89 L697.761 1092.05 L689.712 1085.86 L681.664 1041.28 L673.615 1052.36 L665.566 1032.87 L657.517 1058.06 L649.468 1043.77 L641.419 1003.98 L633.37 1039.68 L625.321 1002.25 L617.272 1007.96 L609.223 995.846 L601.174 873.803 L593.125 478.991  Z" fill="#009e73" fill-rule="evenodd" fill-opacity="0.2"/>
<polyline clip-path="url(#clip491)" style="stroke:#009e73; stroke-linecap:round; stroke-linejoin:round; stroke-width:4; stroke-opacity:0.2; fill:none" points="593.125,890.651 601.174,1270.18 609.223,1381.59 617.272,1412.48 625.321,1374.76 633.37,1414.22 641.419,1371.24 649.468,1405.83 657.517,1390.31 665.566,1421.58 673.615,1387.94 681.664,1376.47 689.712,1400.45 697.761,1418.14 705.81,1375.12 713.859,1406.92 721.908,1348.79 729.957,1390.22 738.006,1387.45 746.055,1380.67 754.104,1362.05 762.153,1367.85 770.202,1402.19 778.251,1400.76 786.3,1373.76 794.349,1371.61 802.398,1373.3 810.446,1386.21 818.495,1370.1 826.544,1390.38 834.593,1384.86 842.642,1388.06 850.691,1365.85 858.74,1360.41 866.789,1377.41 874.838,1400.97 882.887,1393.17 890.936,1372.85 898.985,1369.96 907.034,1374.05 915.083,1392.59 923.132,1377.96 931.18,1381.23 939.229,1359.61 947.278,1366.49 955.327,1392.51 963.376,1377.4 971.425,1364.69 979.474,1371.12 987.523,1379.35 995.572,1379.09 1003.62,1370.83 1011.67,1376.24 1019.72,1396.65 1027.77,1369.14 1035.82,1367.5 1043.87,1393.56 1051.91,1371.64 1059.96,1403.32 1068.01,1384.83 1076.06,1393.37 1084.11,1366.24 1092.16,1394.85 1100.21,1391.02 1108.26,1389.66 1116.31,1381.25 1124.35,1398.37 1132.4,1408.83 1140.45,1368.72 1148.5,1366.07 1156.55,1378.07 1164.6,1390.95 1172.65,1389.09 1180.7,1398.14 1188.75,1373.84 1196.8,1359.12 1204.84,1375.59 1212.89,1351.54 1220.94,1375.91 1228.99,1339.25 1237.04,1356.54 1245.09,1372.13 1253.14,1397.35 1261.19,1389.3 1269.24,1378.95 1277.28,1358.72 1285.33,1358.98 1293.38,1386.13 1301.43,1374.84 1309.48,1381.57 1317.53,1367.77 1325.58,1369.46 1333.63,1380.69 1341.68,1380.2 1349.72,1360.98 1357.77,1377.3 1365.82,1391.17 1373.87,1381.4 1381.92,1380.78 1389.97,1377.85 1398.02,1369.48 1406.07,1372.7 1414.12,1381.96 1422.17,1380.05 1430.21,1363.77 1438.26,1364.34 1446.31,1398.19 1454.36,1388.2 1462.41,1395.21 1470.46,1357.65 1478.51,1400.2 1486.56,1371.23 1494.61,1349.87 1502.65,1376.71 1510.7,1387.18 1518.75,1362.72 1526.8,1369.69 1534.85,1370.88 1542.9,1374.35 1550.95,1407 1559,1370.55 1567.05,1380.62 1575.1,1387.12 1583.14,1393.17 1591.19,1388.97 1599.24,1374.68 1607.29,1377.65 1615.34,1379.46 1623.39,1361.61 1631.44,1388.95 1639.49,1377.61 1647.54,1366.71 1655.58,1375.58 1663.63,1382.65 1671.68,1395.27 1679.73,1387.11 1687.78,1357.18 1695.83,1372.9 1703.88,1368.13 1711.93,1400.71 1719.98,1372.31 1728.02,1378.56 1736.07,1359.08 1744.12,1379.32 1752.17,1349.68 1760.22,1384.35 1768.27,1384.44 1776.32,1386.41 1784.37,1374.06 1792.42,1369.71 1800.47,1367.21 1808.51,1382.82 1816.56,1386.83 1824.61,1362.82 1832.66,1359.2 1840.71,1361.17 1848.76,1369.8 1856.81,1375.56 1864.86,1363.63 1872.91,1384.84 1880.95,1374.34 1889,1386.96 1897.05,1357.21 1905.1,1380.97 1913.15,1383.35 1921.2,1360.11 1929.25,1381.15 1937.3,1392.98 1945.35,1376.28 1953.39,1374.39 1961.44,1378.53 1969.49,1374.98 1977.54,1389.46 1985.59,1370.35 1993.64,1380.33 2001.69,1370.22 2009.74,1352.08 2017.79,1382.1 2025.84,1351.53 2033.88,1366.09 2041.93,1384.05 2049.98,1365.11 2058.03,1364.92 2066.08,1373.24 2074.13,1361.76 2082.18,1354.1 2090.23,1378.8 2098.28,1362.62 2106.32,1372.12 2114.37,1375.75 2122.42,1391.38 2130.47,1365.29 2138.52,1380.35 2146.57,1368.46 2154.62,1368 2162.67,1344.26 2170.72,1346.02 2178.76,1353.81 2186.81,1396.82 2194.86,1350.92 2202.91,1373.93 2210.96,1392.3 2219.01,1377.84 2227.06,1352.93 2235.11,1379.1 2243.16,1353.83 2251.21,1374.29 2259.25,1379.93 2267.3,1369.9 2275.35,1375.34 2283.4,1374.8 2291.45,1368.42 2299.5,1375.16 2307.55,1382.65 2315.6,1382.14 2323.65,1384.91 2331.69,1359.57 2339.74,1364.65 2347.79,1369.66 2355.84,1368.98 2363.89,1374.23 2371.94,1354.32 2379.99,1390.94 2388.04,1363.47 2396.09,1357.73 2404.14,1383.51 2412.18,1370.86 2420.23,1356.17 2428.28,1368.11 2436.33,1353.84 2444.38,1363.96 2452.43,1381.64 2460.48,1353.01 2468.53,1373.21 2476.58,1367.48 2484.62,1371.75 2492.67,1359.62 2500.72,1378.27 2508.77,1378.76 2516.82,1339.61 2524.87,1359.68 2532.92,1354.21 2540.97,1357.12 2549.02,1371.74 2557.06,1362.04 2565.11,1355.37 2573.16,1377.41 2581.21,1371.8 2589.26,1364.1 2597.31,1382.69 2605.36,1366.06 2613.41,1385.03 "/>
<polyline clip-path="url(#clip491)" style="stroke:#808080; stroke-linecap:round; stroke-linejoin:round; stroke-width:4; stroke-opacity:1; fill:none" stroke-dasharray="16, 10" points="-1608.98,942.309 4815.51,942.309 "/>
<polyline clip-path="url(#clip491)" style="stroke:#808080; stroke-linecap:round; stroke-linejoin:round; stroke-width:4; stroke-opacity:1; fill:none" stroke-dasharray="16, 10" points="-1608.98,1522.94 4815.51,1522.94 "/>
<path clip-path="url(#clip490)" d="M1976.71 467.746 L2602.63 467.746 L2602.63 176.146 L1976.71 176.146  Z" fill="#ffffff" fill-rule="evenodd" fill-opacity="1"/>
<polyline clip-path="url(#clip490)" style="stroke:#000000; stroke-linecap:round; stroke-linejoin:round; stroke-width:4; stroke-opacity:1; fill:none" points="1976.71,467.746 2602.63,467.746 2602.63,176.146 1976.71,176.146 1976.71,467.746 "/>
<polyline clip-path="url(#clip490)" style="stroke:#d45e00; stroke-linecap:round; stroke-linejoin:round; stroke-width:9; stroke-opacity:1; fill:none" stroke-dasharray="36, 23" points="2000.51,234.466 2143.27,234.466 "/>
<path clip-path="url(#clip490)" d="M2185.09 218.594 Q2179.36 218.594 2175.98 222.864 Q2172.62 227.135 2172.62 234.505 Q2172.62 241.849 2175.98 246.119 Q2179.36 250.39 2185.09 250.39 Q2190.82 250.39 2194.15 246.119 Q2197.51 241.849 2197.51 234.505 Q2197.51 227.135 2194.15 222.864 Q2190.82 218.594 2185.09 218.594 M2185.09 214.323 Q2193.27 214.323 2198.16 219.817 Q2203.06 225.286 2203.06 234.505 Q2203.06 243.698 2198.16 249.192 Q2193.27 254.661 2185.09 254.661 Q2176.89 254.661 2171.97 249.192 Q2167.07 243.724 2167.07 234.505 Q2167.07 225.286 2171.97 219.817 Q2176.89 214.323 2185.09 214.323 Z" fill="#000000" fill-rule="nonzero" fill-opacity="1" /><path clip-path="url(#clip490)" d="M2232.02 239.349 Q2232.02 234.062 2229.83 231.067 Q2227.67 228.047 2223.87 228.047 Q2220.06 228.047 2217.88 231.067 Q2215.71 234.062 2215.71 239.349 Q2215.71 244.635 2217.88 247.656 Q2220.06 250.651 2223.87 250.651 Q2227.67 250.651 2229.83 247.656 Q2232.02 244.635 2232.02 239.349 M2215.71 229.166 Q2217.23 226.562 2219.52 225.312 Q2221.83 224.036 2225.04 224.036 Q2230.35 224.036 2233.66 228.255 Q2236.99 232.474 2236.99 239.349 Q2236.99 246.224 2233.66 250.442 Q2230.35 254.661 2225.04 254.661 Q2221.83 254.661 2219.52 253.411 Q2217.23 252.135 2215.71 249.531 L2215.71 253.906 L2210.9 253.906 L2210.9 213.385 L2215.71 213.385 L2215.71 229.166 Z" fill="#000000" fill-rule="nonzero" fill-opacity="1" /><path clip-path="url(#clip490)" d="M2263.53 225.599 L2263.53 230.13 Q2261.5 229.088 2259.31 228.567 Q2257.12 228.047 2254.78 228.047 Q2251.21 228.047 2249.41 229.14 Q2247.64 230.234 2247.64 232.422 Q2247.64 234.088 2248.92 235.052 Q2250.19 235.989 2254.05 236.849 L2255.69 237.213 Q2260.79 238.307 2262.93 240.312 Q2265.09 242.291 2265.09 245.859 Q2265.09 249.921 2261.86 252.291 Q2258.66 254.661 2253.03 254.661 Q2250.69 254.661 2248.14 254.192 Q2245.61 253.75 2242.8 252.838 L2242.8 247.89 Q2245.45 249.27 2248.03 249.974 Q2250.61 250.651 2253.14 250.651 Q2256.52 250.651 2258.34 249.505 Q2260.17 248.333 2260.17 246.224 Q2260.17 244.27 2258.84 243.229 Q2257.54 242.187 2253.08 241.224 L2251.42 240.833 Q2246.96 239.895 2244.99 237.968 Q2243.01 236.015 2243.01 232.63 Q2243.01 228.515 2245.92 226.276 Q2248.84 224.036 2254.2 224.036 Q2256.86 224.036 2259.2 224.427 Q2261.55 224.817 2263.53 225.599 Z" fill="#000000" fill-rule="nonzero" fill-opacity="1" /><path clip-path="url(#clip490)" d="M2297.67 238.125 L2297.67 240.468 L2275.64 240.468 Q2275.95 245.416 2278.61 248.02 Q2281.29 250.599 2286.05 250.599 Q2288.81 250.599 2291.39 249.921 Q2294 249.244 2296.55 247.89 L2296.55 252.421 Q2293.97 253.515 2291.26 254.088 Q2288.55 254.661 2285.77 254.661 Q2278.79 254.661 2274.7 250.599 Q2270.64 246.536 2270.64 239.609 Q2270.64 232.448 2274.49 228.255 Q2278.37 224.036 2284.93 224.036 Q2290.82 224.036 2294.23 227.838 Q2297.67 231.614 2297.67 238.125 M2292.88 236.718 Q2292.82 232.786 2290.66 230.442 Q2288.53 228.099 2284.99 228.099 Q2280.98 228.099 2278.55 230.364 Q2276.16 232.63 2275.79 236.744 L2292.88 236.718 Z" fill="#000000" fill-rule="nonzero" fill-opacity="1" /><path clip-path="url(#clip490)" d="M2322.43 229.218 Q2321.63 228.75 2320.66 228.541 Q2319.72 228.307 2318.58 228.307 Q2314.52 228.307 2312.33 230.963 Q2310.17 233.593 2310.17 238.541 L2310.17 253.906 L2305.35 253.906 L2305.35 224.739 L2310.17 224.739 L2310.17 229.271 Q2311.68 226.614 2314.1 225.338 Q2316.52 224.036 2319.99 224.036 Q2320.48 224.036 2321.08 224.114 Q2321.68 224.166 2322.41 224.297 L2322.43 229.218 Z" fill="#000000" fill-rule="nonzero" fill-opacity="1" /><path clip-path="url(#clip490)" d="M2324.02 224.739 L2329.1 224.739 L2338.21 249.218 L2347.33 224.739 L2352.41 224.739 L2341.47 253.906 L2334.96 253.906 L2324.02 224.739 Z" fill="#000000" fill-rule="nonzero" fill-opacity="1" /><path clip-path="url(#clip490)" d="M2383.97 238.125 L2383.97 240.468 L2361.94 240.468 Q2362.25 245.416 2364.91 248.02 Q2367.59 250.599 2372.35 250.599 Q2375.12 250.599 2377.69 249.921 Q2380.3 249.244 2382.85 247.89 L2382.85 252.421 Q2380.27 253.515 2377.56 254.088 Q2374.85 254.661 2372.07 254.661 Q2365.09 254.661 2361 250.599 Q2356.94 246.536 2356.94 239.609 Q2356.94 232.448 2360.79 228.255 Q2364.67 224.036 2371.23 224.036 Q2377.12 224.036 2380.53 227.838 Q2383.97 231.614 2383.97 238.125 M2379.18 236.718 Q2379.13 232.786 2376.96 230.442 Q2374.83 228.099 2371.29 228.099 Q2367.28 228.099 2364.85 230.364 Q2362.46 232.63 2362.09 236.744 L2379.18 236.718 Z" fill="#000000" fill-rule="nonzero" fill-opacity="1" /><path clip-path="url(#clip490)" d="M2411.03 229.166 L2411.03 213.385 L2415.82 213.385 L2415.82 253.906 L2411.03 253.906 L2411.03 249.531 Q2409.52 252.135 2407.2 253.411 Q2404.91 254.661 2401.68 254.661 Q2396.39 254.661 2393.06 250.442 Q2389.75 246.224 2389.75 239.349 Q2389.75 232.474 2393.06 228.255 Q2396.39 224.036 2401.68 224.036 Q2404.91 224.036 2407.2 225.312 Q2409.52 226.562 2411.03 229.166 M2394.7 239.349 Q2394.7 244.635 2396.86 247.656 Q2399.05 250.651 2402.85 250.651 Q2406.65 250.651 2408.84 247.656 Q2411.03 244.635 2411.03 239.349 Q2411.03 234.062 2408.84 231.067 Q2406.65 228.047 2402.85 228.047 Q2399.05 228.047 2396.86 231.067 Q2394.7 234.062 2394.7 239.349 Z" fill="#000000" fill-rule="nonzero" fill-opacity="1" /><polyline clip-path="url(#clip490)" style="stroke:#009e73; stroke-linecap:round; stroke-linejoin:round; stroke-width:9; stroke-opacity:1; fill:none" points="2000.51,292.786 2143.27,292.786 "/>
<path clip-path="url(#clip490)" d="M2198.42 276.341 L2198.42 281.887 Q2195.77 279.414 2192.75 278.19 Q2189.75 276.966 2186.37 276.966 Q2179.7 276.966 2176.16 281.054 Q2172.62 285.117 2172.62 292.825 Q2172.62 300.507 2176.16 304.596 Q2179.7 308.658 2186.37 308.658 Q2189.75 308.658 2192.75 307.434 Q2195.77 306.21 2198.42 303.736 L2198.42 309.231 Q2195.66 311.106 2192.56 312.044 Q2189.49 312.981 2186.05 312.981 Q2177.23 312.981 2172.15 307.59 Q2167.07 302.174 2167.07 292.825 Q2167.07 283.45 2172.15 278.059 Q2177.23 272.643 2186.05 272.643 Q2189.54 272.643 2192.62 273.58 Q2195.72 274.492 2198.42 276.341 Z" fill="#000000" fill-rule="nonzero" fill-opacity="1" /><path clip-path="url(#clip490)" d="M2206.55 273.346 L2211.81 273.346 L2211.81 289.283 L2230.92 289.283 L2230.92 273.346 L2236.18 273.346 L2236.18 312.226 L2230.92 312.226 L2230.92 293.71 L2211.81 293.71 L2211.81 312.226 L2206.55 312.226 L2206.55 273.346 Z" fill="#000000" fill-rule="nonzero" fill-opacity="1" /><path clip-path="url(#clip490)" d="M2246.65 273.346 L2254.49 273.346 L2264.41 299.804 L2274.39 273.346 L2282.23 273.346 L2282.23 312.226 L2277.09 312.226 L2277.09 278.085 L2267.07 304.752 L2261.78 304.752 L2251.76 278.085 L2251.76 312.226 L2246.65 312.226 L2246.65 273.346 Z" fill="#000000" fill-rule="nonzero" fill-opacity="1" /><path clip-path="url(#clip490)" d="M2292.67 273.346 L2300.51 273.346 L2310.43 299.804 L2320.4 273.346 L2328.24 273.346 L2328.24 312.226 L2323.11 312.226 L2323.11 278.085 L2313.08 304.752 L2307.8 304.752 L2297.77 278.085 L2297.77 312.226 L2292.67 312.226 L2292.67 273.346 Z" fill="#000000" fill-rule="nonzero" fill-opacity="1" /><path clip-path="url(#clip490)" d="M2336.05 295.481 L2350.09 295.481 L2350.09 299.752 L2336.05 299.752 L2336.05 295.481 Z" fill="#000000" fill-rule="nonzero" fill-opacity="1" /><path clip-path="url(#clip490)" d="M2362.46 274.778 L2362.46 283.059 L2372.33 283.059 L2372.33 286.783 L2362.46 286.783 L2362.46 302.617 Q2362.46 306.184 2363.42 307.2 Q2364.41 308.215 2367.41 308.215 L2372.33 308.215 L2372.33 312.226 L2367.41 312.226 Q2361.86 312.226 2359.75 310.169 Q2357.64 308.085 2357.64 302.617 L2357.64 286.783 L2354.13 286.783 L2354.13 283.059 L2357.64 283.059 L2357.64 274.778 L2362.46 274.778 Z" fill="#000000" fill-rule="nonzero" fill-opacity="1" /><path clip-path="url(#clip490)" d="M2407.09 271.757 Q2403.6 277.747 2401.91 283.606 Q2400.22 289.466 2400.22 295.481 Q2400.22 301.497 2401.91 307.408 Q2403.63 313.294 2407.09 319.257 L2402.93 319.257 Q2399.02 313.137 2397.07 307.226 Q2395.14 301.314 2395.14 295.481 Q2395.14 289.674 2397.07 283.788 Q2399 277.903 2402.93 271.757 L2407.09 271.757 Z" fill="#000000" fill-rule="nonzero" fill-opacity="1" /><path clip-path="url(#clip490)" d="M2439.1 288.658 Q2440.9 285.429 2443.4 283.893 Q2445.9 282.356 2449.28 282.356 Q2453.84 282.356 2456.31 285.559 Q2458.79 288.736 2458.79 294.622 L2458.79 312.226 L2453.97 312.226 L2453.97 294.778 Q2453.97 290.585 2452.48 288.554 Q2451 286.523 2447.95 286.523 Q2444.23 286.523 2442.07 288.997 Q2439.91 291.471 2439.91 295.742 L2439.91 312.226 L2435.09 312.226 L2435.09 294.778 Q2435.09 290.559 2433.6 288.554 Q2432.12 286.523 2429.02 286.523 Q2425.35 286.523 2423.19 289.023 Q2421.03 291.497 2421.03 295.742 L2421.03 312.226 L2416.21 312.226 L2416.21 283.059 L2421.03 283.059 L2421.03 287.591 Q2422.67 284.908 2424.96 283.632 Q2427.25 282.356 2430.4 282.356 Q2433.58 282.356 2435.79 283.971 Q2438.03 285.585 2439.1 288.658 Z" fill="#000000" fill-rule="nonzero" fill-opacity="1" /><path clip-path="url(#clip490)" d="M2493.29 296.445 L2493.29 298.788 L2471.26 298.788 Q2471.57 303.736 2474.23 306.34 Q2476.91 308.919 2481.68 308.919 Q2484.44 308.919 2487.02 308.241 Q2489.62 307.564 2492.17 306.21 L2492.17 310.741 Q2489.59 311.835 2486.89 312.408 Q2484.18 312.981 2481.39 312.981 Q2474.41 312.981 2470.32 308.919 Q2466.26 304.856 2466.26 297.929 Q2466.26 290.768 2470.11 286.575 Q2473.99 282.356 2480.56 282.356 Q2486.44 282.356 2489.85 286.158 Q2493.29 289.934 2493.29 296.445 M2488.5 295.038 Q2488.45 291.106 2486.29 288.762 Q2484.15 286.419 2480.61 286.419 Q2476.6 286.419 2474.18 288.684 Q2471.78 290.95 2471.42 295.064 L2488.5 295.038 Z" fill="#000000" fill-rule="nonzero" fill-opacity="1" /><path clip-path="url(#clip490)" d="M2514.41 297.564 Q2508.6 297.564 2506.36 298.893 Q2504.12 300.221 2504.12 303.424 Q2504.12 305.976 2505.79 307.486 Q2507.48 308.971 2510.37 308.971 Q2514.36 308.971 2516.76 306.158 Q2519.18 303.32 2519.18 298.632 L2519.18 297.564 L2514.41 297.564 M2523.97 295.585 L2523.97 312.226 L2519.18 312.226 L2519.18 307.799 Q2517.54 310.455 2515.09 311.731 Q2512.64 312.981 2509.1 312.981 Q2504.62 312.981 2501.96 310.481 Q2499.33 307.955 2499.33 303.736 Q2499.33 298.814 2502.61 296.314 Q2505.92 293.814 2512.46 293.814 L2519.18 293.814 L2519.18 293.346 Q2519.18 290.038 2516.99 288.242 Q2514.83 286.419 2510.9 286.419 Q2508.4 286.419 2506.03 287.018 Q2503.66 287.617 2501.47 288.814 L2501.47 284.387 Q2504.1 283.372 2506.57 282.877 Q2509.05 282.356 2511.39 282.356 Q2517.72 282.356 2520.84 285.637 Q2523.97 288.919 2523.97 295.585 Z" fill="#000000" fill-rule="nonzero" fill-opacity="1" /><path clip-path="url(#clip490)" d="M2558.08 294.622 L2558.08 312.226 L2553.29 312.226 L2553.29 294.778 Q2553.29 290.637 2551.68 288.58 Q2550.06 286.523 2546.83 286.523 Q2542.95 286.523 2540.71 288.997 Q2538.47 291.471 2538.47 295.742 L2538.47 312.226 L2533.66 312.226 L2533.66 283.059 L2538.47 283.059 L2538.47 287.591 Q2540.19 284.96 2542.51 283.658 Q2544.85 282.356 2547.9 282.356 Q2552.93 282.356 2555.5 285.481 Q2558.08 288.58 2558.08 294.622 Z" fill="#000000" fill-rule="nonzero" fill-opacity="1" /><path clip-path="url(#clip490)" d="M2566.88 271.757 L2571.05 271.757 Q2574.96 277.903 2576.88 283.788 Q2578.84 289.674 2578.84 295.481 Q2578.84 301.314 2576.88 307.226 Q2574.96 313.137 2571.05 319.257 L2566.88 319.257 Q2570.35 313.294 2572.04 307.408 Q2573.76 301.497 2573.76 295.481 Q2573.76 289.466 2572.04 283.606 Q2570.35 277.747 2566.88 271.757 Z" fill="#000000" fill-rule="nonzero" fill-opacity="1" /><path clip-path="url(#clip490)" d="M2000.51 374.434 L2143.27 374.434 L2143.27 327.778 L2000.51 327.778 L2000.51 374.434  Z" fill="#009e73" fill-rule="evenodd" fill-opacity="0.2"/>
<polyline clip-path="url(#clip490)" style="stroke:#009e73; stroke-linecap:round; stroke-linejoin:round; stroke-width:4.5; stroke-opacity:0.2; fill:none" points="2000.51,327.778 2143.27,327.778 "/>
<path clip-path="url(#clip490)" d="M2167.82 366.119 L2176.42 366.119 L2176.42 336.457 L2167.07 338.332 L2167.07 333.541 L2176.37 331.666 L2181.63 331.666 L2181.63 366.119 L2190.22 366.119 L2190.22 370.546 L2167.82 370.546 L2167.82 366.119 Z" fill="#000000" fill-rule="nonzero" fill-opacity="1" /><path clip-path="url(#clip490)" d="M2212.1 335.129 Q2208.03 335.129 2205.98 339.14 Q2203.94 343.124 2203.94 351.145 Q2203.94 359.14 2205.98 363.15 Q2208.03 367.134 2212.1 367.134 Q2216.18 367.134 2218.21 363.15 Q2220.27 359.14 2220.27 351.145 Q2220.27 343.124 2218.21 339.14 Q2216.18 335.129 2212.1 335.129 M2212.1 330.963 Q2218.63 330.963 2222.07 336.145 Q2225.53 341.301 2225.53 351.145 Q2225.53 360.963 2222.07 366.145 Q2218.63 371.301 2212.1 371.301 Q2205.56 371.301 2202.1 366.145 Q2198.66 360.963 2198.66 351.145 Q2198.66 341.301 2202.1 336.145 Q2205.56 330.963 2212.1 330.963 Z" fill="#000000" fill-rule="nonzero" fill-opacity="1" /><path clip-path="url(#clip490)" d="M2231.68 353.801 L2245.71 353.801 L2245.71 358.072 L2231.68 358.072 L2231.68 353.801 Z" fill="#000000" fill-rule="nonzero" fill-opacity="1" /><path clip-path="url(#clip490)" d="M2254.18 369.739 L2254.18 364.947 Q2256.16 365.884 2258.19 366.379 Q2260.22 366.874 2262.17 366.874 Q2267.38 366.874 2270.12 363.384 Q2272.88 359.869 2273.27 352.733 Q2271.76 354.973 2269.44 356.171 Q2267.12 357.369 2264.31 357.369 Q2258.48 357.369 2255.06 353.853 Q2251.68 350.312 2251.68 344.192 Q2251.68 338.202 2255.22 334.582 Q2258.76 330.963 2264.65 330.963 Q2271.39 330.963 2274.93 336.145 Q2278.5 341.301 2278.5 351.145 Q2278.5 360.338 2274.13 365.832 Q2269.78 371.301 2262.41 371.301 Q2260.43 371.301 2258.4 370.91 Q2256.37 370.52 2254.18 369.739 M2264.65 353.254 Q2268.19 353.254 2270.25 350.832 Q2272.33 348.411 2272.33 344.192 Q2272.33 339.999 2270.25 337.577 Q2268.19 335.129 2264.65 335.129 Q2261.11 335.129 2259.02 337.577 Q2256.96 339.999 2256.96 344.192 Q2256.96 348.411 2259.02 350.832 Q2261.11 353.254 2264.65 353.254 Z" fill="#000000" fill-rule="nonzero" fill-opacity="1" /><path clip-path="url(#clip490)" d="M2299.2 335.129 Q2295.14 335.129 2293.08 339.14 Q2291.05 343.124 2291.05 351.145 Q2291.05 359.14 2293.08 363.15 Q2295.14 367.134 2299.2 367.134 Q2303.29 367.134 2305.32 363.15 Q2307.38 359.14 2307.38 351.145 Q2307.38 343.124 2305.32 339.14 Q2303.29 335.129 2299.2 335.129 M2299.2 330.963 Q2305.74 330.963 2309.18 336.145 Q2312.64 341.301 2312.64 351.145 Q2312.64 360.963 2309.18 366.145 Q2305.74 371.301 2299.2 371.301 Q2292.67 371.301 2289.2 366.145 Q2285.77 360.963 2285.77 351.145 Q2285.77 341.301 2289.2 336.145 Q2292.67 330.963 2299.2 330.963 Z" fill="#000000" fill-rule="nonzero" fill-opacity="1" /><path clip-path="url(#clip490)" d="M2325.95 333.098 L2325.95 341.379 L2335.82 341.379 L2335.82 345.103 L2325.95 345.103 L2325.95 360.937 Q2325.95 364.504 2326.91 365.52 Q2327.9 366.535 2330.9 366.535 L2335.82 366.535 L2335.82 370.546 L2330.9 370.546 Q2325.35 370.546 2323.24 368.489 Q2321.13 366.405 2321.13 360.937 L2321.13 345.103 L2317.62 345.103 L2317.62 341.379 L2321.13 341.379 L2321.13 333.098 L2325.95 333.098 Z" fill="#000000" fill-rule="nonzero" fill-opacity="1" /><path clip-path="url(#clip490)" d="M2366.37 352.942 L2366.37 370.546 L2361.57 370.546 L2361.57 353.098 Q2361.57 348.957 2359.96 346.9 Q2358.34 344.843 2355.12 344.843 Q2351.24 344.843 2349 347.317 Q2346.76 349.791 2346.76 354.062 L2346.76 370.546 L2341.94 370.546 L2341.94 330.025 L2346.76 330.025 L2346.76 345.911 Q2348.47 343.28 2350.79 341.978 Q2353.14 340.676 2356.18 340.676 Q2361.21 340.676 2363.79 343.801 Q2366.37 346.9 2366.37 352.942 Z" fill="#000000" fill-rule="nonzero" fill-opacity="1" /><path clip-path="url(#clip490)" d="M2397.51 366.171 L2397.51 381.64 L2392.69 381.64 L2392.69 341.379 L2397.51 341.379 L2397.51 345.806 Q2399.02 343.202 2401.31 341.952 Q2403.63 340.676 2406.83 340.676 Q2412.15 340.676 2415.45 344.895 Q2418.79 349.114 2418.79 355.989 Q2418.79 362.864 2415.45 367.082 Q2412.15 371.301 2406.83 371.301 Q2403.63 371.301 2401.31 370.051 Q2399.02 368.775 2397.51 366.171 M2413.81 355.989 Q2413.81 350.702 2411.63 347.707 Q2409.46 344.687 2405.66 344.687 Q2401.86 344.687 2399.67 347.707 Q2397.51 350.702 2397.51 355.989 Q2397.51 361.275 2399.67 364.296 Q2401.86 367.291 2405.66 367.291 Q2409.46 367.291 2411.63 364.296 Q2413.81 361.275 2413.81 355.989 Z" fill="#000000" fill-rule="nonzero" fill-opacity="1" /><path clip-path="url(#clip490)" d="M2447.72 342.499 L2447.72 346.978 Q2445.69 345.858 2443.63 345.312 Q2441.6 344.739 2439.52 344.739 Q2434.85 344.739 2432.28 347.707 Q2429.7 350.65 2429.7 355.989 Q2429.7 361.327 2432.28 364.296 Q2434.85 367.239 2439.52 367.239 Q2441.6 367.239 2443.63 366.692 Q2445.69 366.119 2447.72 364.999 L2447.72 369.426 Q2445.71 370.364 2443.55 370.832 Q2441.42 371.301 2439 371.301 Q2432.41 371.301 2428.53 367.16 Q2424.65 363.02 2424.65 355.989 Q2424.65 348.853 2428.55 344.765 Q2432.48 340.676 2439.31 340.676 Q2441.52 340.676 2443.63 341.145 Q2445.74 341.588 2447.72 342.499 Z" fill="#000000" fill-rule="nonzero" fill-opacity="1" /><path clip-path="url(#clip490)" d="M2460.79 333.098 L2460.79 341.379 L2470.66 341.379 L2470.66 345.103 L2460.79 345.103 L2460.79 360.937 Q2460.79 364.504 2461.76 365.52 Q2462.74 366.535 2465.74 366.535 L2470.66 366.535 L2470.66 370.546 L2465.74 370.546 Q2460.19 370.546 2458.08 368.489 Q2455.97 366.405 2455.97 360.937 L2455.97 345.103 L2452.46 345.103 L2452.46 341.379 L2455.97 341.379 L2455.97 333.098 L2460.79 333.098 Z" fill="#000000" fill-rule="nonzero" fill-opacity="1" /><path clip-path="url(#clip490)" d="M2476.96 330.025 L2481.76 330.025 L2481.76 370.546 L2476.96 370.546 L2476.96 330.025 Z" fill="#000000" fill-rule="nonzero" fill-opacity="1" /><polyline clip-path="url(#clip490)" style="stroke:#808080; stroke-linecap:round; stroke-linejoin:round; stroke-width:4.5; stroke-opacity:1; fill:none" stroke-dasharray="18, 11" points="2000.51,409.426 2143.27,409.426 "/>
<path clip-path="url(#clip490)" d="M2169.57 428.059 L2169.57 423.267 Q2171.55 424.204 2173.58 424.699 Q2175.61 425.194 2177.56 425.194 Q2182.77 425.194 2185.51 421.704 Q2188.27 418.189 2188.66 411.053 Q2187.15 413.293 2184.83 414.491 Q2182.51 415.689 2179.7 415.689 Q2173.87 415.689 2170.45 412.173 Q2167.07 408.632 2167.07 402.512 Q2167.07 396.522 2170.61 392.902 Q2174.15 389.283 2180.04 389.283 Q2186.78 389.283 2190.32 394.465 Q2193.89 399.621 2193.89 409.465 Q2193.89 418.658 2189.52 424.152 Q2185.17 429.621 2177.8 429.621 Q2175.82 429.621 2173.79 429.23 Q2171.76 428.84 2169.57 428.059 M2180.04 411.574 Q2183.58 411.574 2185.64 409.152 Q2187.72 406.731 2187.72 402.512 Q2187.72 398.319 2185.64 395.897 Q2183.58 393.449 2180.04 393.449 Q2176.5 393.449 2174.41 395.897 Q2172.36 398.319 2172.36 402.512 Q2172.36 406.731 2174.41 409.152 Q2176.5 411.574 2180.04 411.574 Z" fill="#000000" fill-rule="nonzero" fill-opacity="1" /><path clip-path="url(#clip490)" d="M2203.5 428.059 L2203.5 423.267 Q2205.48 424.204 2207.51 424.699 Q2209.54 425.194 2211.5 425.194 Q2216.7 425.194 2219.44 421.704 Q2222.2 418.189 2222.59 411.053 Q2221.08 413.293 2218.76 414.491 Q2216.44 415.689 2213.63 415.689 Q2207.8 415.689 2204.39 412.173 Q2201 408.632 2201 402.512 Q2201 396.522 2204.54 392.902 Q2208.08 389.283 2213.97 389.283 Q2220.71 389.283 2224.26 394.465 Q2227.82 399.621 2227.82 409.465 Q2227.82 418.658 2223.45 424.152 Q2219.1 429.621 2211.73 429.621 Q2209.75 429.621 2207.72 429.23 Q2205.69 428.84 2203.5 428.059 M2213.97 411.574 Q2217.51 411.574 2219.57 409.152 Q2221.65 406.731 2221.65 402.512 Q2221.65 398.319 2219.57 395.897 Q2217.51 393.449 2213.97 393.449 Q2210.43 393.449 2208.35 395.897 Q2206.29 398.319 2206.29 402.512 Q2206.29 406.731 2208.35 409.152 Q2210.43 411.574 2213.97 411.574 Z" fill="#000000" fill-rule="nonzero" fill-opacity="1" /><path clip-path="url(#clip490)" d="M2270.35 411.757 Q2268.08 411.757 2266.78 413.684 Q2265.51 415.611 2265.51 419.048 Q2265.51 422.434 2266.78 424.387 Q2268.08 426.314 2270.35 426.314 Q2272.56 426.314 2273.84 424.387 Q2275.14 422.434 2275.14 419.048 Q2275.14 415.637 2273.84 413.71 Q2272.56 411.757 2270.35 411.757 M2270.35 408.449 Q2274.46 408.449 2276.89 411.314 Q2279.31 414.178 2279.31 419.048 Q2279.31 423.918 2276.86 426.783 Q2274.44 429.621 2270.35 429.621 Q2266.18 429.621 2263.76 426.783 Q2261.34 423.918 2261.34 419.048 Q2261.34 414.152 2263.76 411.314 Q2266.21 408.449 2270.35 408.449 M2243.48 392.59 Q2241.24 392.59 2239.93 394.543 Q2238.66 396.47 2238.66 399.856 Q2238.66 403.293 2239.93 405.22 Q2241.21 407.147 2243.48 407.147 Q2245.74 407.147 2247.02 405.22 Q2248.32 403.293 2248.32 399.856 Q2248.32 396.496 2247.02 394.543 Q2245.71 392.59 2243.48 392.59 M2266.99 389.283 L2271.16 389.283 L2246.83 429.621 L2242.67 429.621 L2266.99 389.283 M2243.48 389.283 Q2247.59 389.283 2250.04 392.147 Q2252.49 394.986 2252.49 399.856 Q2252.49 404.777 2250.04 407.616 Q2247.62 410.454 2243.48 410.454 Q2239.33 410.454 2236.91 407.616 Q2234.52 404.751 2234.52 399.856 Q2234.52 395.012 2236.94 392.147 Q2239.36 389.283 2243.48 389.283 Z" fill="#000000" fill-rule="nonzero" fill-opacity="1" /><path clip-path="url(#clip490)" d="M2333.55 392.981 L2333.55 398.527 Q2330.9 396.054 2327.88 394.83 Q2324.88 393.606 2321.5 393.606 Q2314.83 393.606 2311.29 397.694 Q2307.75 401.757 2307.75 409.465 Q2307.75 417.147 2311.29 421.236 Q2314.83 425.298 2321.5 425.298 Q2324.88 425.298 2327.88 424.074 Q2330.9 422.85 2333.55 420.376 L2333.55 425.871 Q2330.79 427.746 2327.69 428.684 Q2324.62 429.621 2321.18 429.621 Q2312.36 429.621 2307.28 424.23 Q2302.2 418.814 2302.2 409.465 Q2302.2 400.09 2307.28 394.699 Q2312.36 389.283 2321.18 389.283 Q2324.67 389.283 2327.75 390.22 Q2330.84 391.132 2333.55 392.981 Z" fill="#000000" fill-rule="nonzero" fill-opacity="1" /><path clip-path="url(#clip490)" d="M2341.68 389.986 L2346.94 389.986 L2346.94 428.866 L2341.68 428.866 L2341.68 389.986 Z" fill="#000000" fill-rule="nonzero" fill-opacity="1" /></svg>
