<?xml version="1.0" encoding="utf-8"?>
<svg xmlns="http://www.w3.org/2000/svg" xmlns:xlink="http://www.w3.org/1999/xlink" width="600" height="400" viewBox="0 0 2400 1600">
<defs>
  <clipPath id="clip680">
    <rect x="0" y="0" width="2400" height="1600"/>
  </clipPath>
</defs>
<path clip-path="url(#clip680)" d="M0 1600 L2400 1600 L2400 8.88178e-14 L0 8.88178e-14  Z" fill="#ffffff" fill-rule="evenodd" fill-opacity="1"/>
<defs>
  <clipPath id="clip681">
    <rect x="176" y="880" width="2174" height="37"/>
  </clipPath>
</defs>
<path clip-path="url(#clip680)" d="M545.232 1241.31 L2274.02 1241.31 L2274.02 219.492 L545.232 219.492  Z" fill="#ffffff" fill-rule="evenodd" fill-opacity="1"/>
<defs>
  <clipPath id="clip682">
    <rect x="545" y="219" width="1730" height="1023"/>
  </clipPath>
</defs>
<polyline clip-path="url(#clip682)" style="stroke:#000000; stroke-linecap:round; stroke-linejoin:round; stroke-width:2; stroke-opacity:0.1; fill:none" points="566.517,1241.31 566.517,219.492 "/>
<polyline clip-path="url(#clip682)" style="stroke:#000000; stroke-linecap:round; stroke-linejoin:round; stroke-width:2; stroke-opacity:0.1; fill:none" points="842.946,1241.31 842.946,219.492 "/>
<polyline clip-path="url(#clip682)" style="stroke:#000000; stroke-linecap:round; stroke-linejoin:round; stroke-width:2; stroke-opacity:0.1; fill:none" points="1119.37,1241.31 1119.37,219.492 "/>
<polyline clip-path="url(#clip682)" style="stroke:#000000; stroke-linecap:round; stroke-linejoin:round; stroke-width:2; stroke-opacity:0.1; fill:none" points="1395.8,1241.31 1395.8,219.492 "/>
<polyline clip-path="url(#clip682)" style="stroke:#000000; stroke-linecap:round; stroke-linejoin:round; stroke-width:2; stroke-opacity:0.1; fill:none" points="1672.23,1241.31 1672.23,219.492 "/>
<polyline clip-path="url(#clip682)" style="stroke:#000000; stroke-linecap:round; stroke-linejoin:round; stroke-width:2; stroke-opacity:0.1; fill:none" points="1948.66,1241.31 1948.66,219.492 "/>
<polyline clip-path="url(#clip682)" style="stroke:#000000; stroke-linecap:round; stroke-linejoin:round; stroke-width:2; stroke-opacity:0.1; fill:none" points="2225.09,1241.31 2225.09,219.492 "/>
<polyline clip-path="url(#clip682)" style="stroke:#000000; stroke-linecap:round; stroke-linejoin:round; stroke-width:2; stroke-opacity:0.1; fill:none" points="545.232,1240.92 2274.02,1240.92 "/>
<polyline clip-path="url(#clip682)" style="stroke:#000000; stroke-linecap:round; stroke-linejoin:round; stroke-width:2; stroke-opacity:0.1; fill:none" points="545.232,1092.87 2274.02,1092.87 "/>
<polyline clip-path="url(#clip682)" style="stroke:#000000; stroke-linecap:round; stroke-linejoin:round; stroke-width:2; stroke-opacity:0.1; fill:none" points="545.232,944.827 2274.02,944.827 "/>
<polyline clip-path="url(#clip682)" style="stroke:#000000; stroke-linecap:round; stroke-linejoin:round; stroke-width:2; stroke-opacity:0.1; fill:none" points="545.232,796.78 2274.02,796.78 "/>
<polyline clip-path="url(#clip682)" style="stroke:#000000; stroke-linecap:round; stroke-linejoin:round; stroke-width:2; stroke-opacity:0.1; fill:none" points="545.232,648.733 2274.02,648.733 "/>
<polyline clip-path="url(#clip682)" style="stroke:#000000; stroke-linecap:round; stroke-linejoin:round; stroke-width:2; stroke-opacity:0.1; fill:none" points="545.232,500.686 2274.02,500.686 "/>
<polyline clip-path="url(#clip682)" style="stroke:#000000; stroke-linecap:round; stroke-linejoin:round; stroke-width:2; stroke-opacity:0.1; fill:none" points="545.232,352.639 2274.02,352.639 "/>
<polyline clip-path="url(#clip680)" style="stroke:#000000; stroke-linecap:round; stroke-linejoin:round; stroke-width:4; stroke-opacity:1; fill:none" points="545.232,1241.31 2274.02,1241.31 "/>
<polyline clip-path="url(#clip680)" style="stroke:#000000; stroke-linecap:round; stroke-linejoin:round; stroke-width:4; stroke-opacity:1; fill:none" points="566.517,1241.31 566.517,1222.41 "/>
<polyline clip-path="url(#clip680)" style="stroke:#000000; stroke-linecap:round; stroke-linejoin:round; stroke-width:4; stroke-opacity:1; fill:none" points="842.946,1241.31 842.946,1222.41 "/>
<polyline clip-path="url(#clip680)" style="stroke:#000000; stroke-linecap:round; stroke-linejoin:round; stroke-width:4; stroke-opacity:1; fill:none" points="1119.37,1241.31 1119.37,1222.41 "/>
<polyline clip-path="url(#clip680)" style="stroke:#000000; stroke-linecap:round; stroke-linejoin:round; stroke-width:4; stroke-opacity:1; fill:none" points="1395.8,1241.31 1395.8,1222.41 "/>
<polyline clip-path="url(#clip680)" style="stroke:#000000; stroke-linecap:round; stroke-linejoin:round; stroke-width:4; stroke-opacity:1; fill:none" points="1672.23,1241.31 1672.23,1222.41 "/>
<polyline clip-path="url(#clip680)" style="stroke:#000000; stroke-linecap:round; stroke-linejoin:round; stroke-width:4; stroke-opacity:1; fill:none" points="1948.66,1241.31 1948.66,1222.41 "/>
<polyline clip-path="url(#clip680)" style="stroke:#000000; stroke-linecap:round; stroke-linejoin:round; stroke-width:4; stroke-opacity:1; fill:none" points="2225.09,1241.31 2225.09,1222.41 "/>
<path clip-path="url(#clip680)" d="M566.517 1275.16 Q562.004 1275.16 559.718 1279.62 Q557.461 1284.04 557.461 1292.95 Q557.461 1301.84 559.718 1306.29 Q562.004 1310.72 566.517 1310.72 Q571.06 1310.72 573.317 1306.29 Q575.603 1301.84 575.603 1292.95 Q575.603 1284.04 573.317 1279.62 Q571.06 1275.16 566.517 1275.16 M566.517 1270.53 Q573.78 1270.53 577.599 1276.29 Q581.448 1282.02 581.448 1292.95 Q581.448 1303.86 577.599 1309.62 Q573.78 1315.35 566.517 1315.35 Q559.255 1315.35 555.406 1309.62 Q551.587 1303.86 551.587 1292.95 Q551.587 1282.02 555.406 1276.29 Q559.255 1270.53 566.517 1270.53 Z" fill="#000000" fill-rule="nonzero" fill-opacity="1" /><path clip-path="url(#clip680)" d="M811.305 1309.59 L820.854 1309.59 L820.854 1276.64 L810.466 1278.72 L810.466 1273.39 L820.796 1271.31 L826.641 1271.31 L826.641 1309.59 L836.189 1309.59 L836.189 1314.51 L811.305 1314.51 L811.305 1309.59 Z" fill="#000000" fill-rule="nonzero" fill-opacity="1" /><path clip-path="url(#clip680)" d="M860.495 1275.16 Q855.981 1275.16 853.695 1279.62 Q851.438 1284.04 851.438 1292.95 Q851.438 1301.84 853.695 1306.29 Q855.981 1310.72 860.495 1310.72 Q865.038 1310.72 867.295 1306.29 Q869.58 1301.84 869.58 1292.95 Q869.58 1284.04 867.295 1279.62 Q865.038 1275.16 860.495 1275.16 M860.495 1270.53 Q867.758 1270.53 871.577 1276.29 Q875.425 1282.02 875.425 1292.95 Q875.425 1303.86 871.577 1309.62 Q867.758 1315.35 860.495 1315.35 Q853.232 1315.35 849.384 1309.62 Q845.564 1303.86 845.564 1292.95 Q845.564 1282.02 849.384 1276.29 Q853.232 1270.53 860.495 1270.53 Z" fill="#000000" fill-rule="nonzero" fill-opacity="1" /><path clip-path="url(#clip680)" d="M1092.84 1309.59 L1113.24 1309.59 L1113.24 1314.51 L1085.81 1314.51 L1085.81 1309.59 Q1089.14 1306.15 1094.87 1300.36 Q1100.62 1294.55 1102.1 1292.87 Q1104.91 1289.71 1106.01 1287.54 Q1107.13 1285.34 1107.13 1283.23 Q1107.13 1279.79 1104.7 1277.62 Q1102.3 1275.45 1098.43 1275.45 Q1095.68 1275.45 1092.61 1276.4 Q1089.57 1277.36 1086.1 1279.3 L1086.1 1273.39 Q1089.63 1271.98 1092.7 1271.25 Q1095.76 1270.53 1098.31 1270.53 Q1105.02 1270.53 1109.02 1273.89 Q1113.01 1277.24 1113.01 1282.86 Q1113.01 1285.52 1112 1287.92 Q1111.01 1290.29 1108.38 1293.53 Q1107.66 1294.37 1103.78 1298.39 Q1099.9 1302.39 1092.84 1309.59 Z" fill="#000000" fill-rule="nonzero" fill-opacity="1" /><path clip-path="url(#clip680)" d="M1138.01 1275.16 Q1133.49 1275.16 1131.21 1279.62 Q1128.95 1284.04 1128.95 1292.95 Q1128.95 1301.84 1131.21 1306.29 Q1133.49 1310.72 1138.01 1310.72 Q1142.55 1310.72 1144.81 1306.29 Q1147.09 1301.84 1147.09 1292.95 Q1147.09 1284.04 1144.81 1279.62 Q1142.55 1275.16 1138.01 1275.16 M1138.01 1270.53 Q1145.27 1270.53 1149.09 1276.29 Q1152.94 1282.02 1152.94 1292.95 Q1152.94 1303.86 1149.09 1309.62 Q1145.27 1315.35 1138.01 1315.35 Q1130.75 1315.35 1126.9 1309.62 Q1123.08 1303.86 1123.08 1292.95 Q1123.08 1282.02 1126.9 1276.29 Q1130.75 1270.53 1138.01 1270.53 Z" fill="#000000" fill-rule="nonzero" fill-opacity="1" /><path clip-path="url(#clip680)" d="M1381.86 1291.22 Q1386.05 1292.12 1388.4 1294.95 Q1390.77 1297.79 1390.77 1301.95 Q1390.77 1308.35 1386.37 1311.85 Q1381.97 1315.35 1373.87 1315.35 Q1371.15 1315.35 1368.26 1314.8 Q1365.39 1314.28 1362.32 1313.21 L1362.32 1307.57 Q1364.76 1308.98 1367.65 1309.71 Q1370.54 1310.43 1373.7 1310.43 Q1379.19 1310.43 1382.06 1308.26 Q1384.95 1306.09 1384.95 1301.95 Q1384.95 1298.13 1382.26 1295.99 Q1379.6 1293.82 1374.82 1293.82 L1369.79 1293.82 L1369.79 1289.02 L1375.06 1289.02 Q1379.37 1289.02 1381.65 1287.31 Q1383.94 1285.58 1383.94 1282.34 Q1383.94 1279.01 1381.57 1277.24 Q1379.22 1275.45 1374.82 1275.45 Q1372.42 1275.45 1369.67 1275.97 Q1366.93 1276.49 1363.63 1277.59 L1363.63 1272.38 Q1366.95 1271.46 1369.85 1270.99 Q1372.77 1270.53 1375.35 1270.53 Q1382 1270.53 1385.88 1273.57 Q1389.76 1276.58 1389.76 1281.73 Q1389.76 1285.32 1387.7 1287.8 Q1385.65 1290.26 1381.86 1291.22 Z" fill="#000000" fill-rule="nonzero" fill-opacity="1" /><path clip-path="url(#clip680)" d="M1414.35 1275.16 Q1409.84 1275.16 1407.55 1279.62 Q1405.29 1284.04 1405.29 1292.95 Q1405.29 1301.84 1407.55 1306.29 Q1409.84 1310.72 1414.35 1310.72 Q1418.89 1310.72 1421.15 1306.29 Q1423.44 1301.84 1423.44 1292.95 Q1423.44 1284.04 1421.15 1279.62 Q1418.89 1275.16 1414.35 1275.16 M1414.35 1270.53 Q1421.61 1270.53 1425.43 1276.29 Q1429.28 1282.02 1429.28 1292.95 Q1429.28 1303.86 1425.43 1309.62 Q1421.61 1315.35 1414.35 1315.35 Q1407.09 1315.35 1403.24 1309.62 Q1399.42 1303.86 1399.42 1292.95 Q1399.42 1282.02 1403.24 1276.29 Q1407.09 1270.53 1414.35 1270.53 Z" fill="#000000" fill-rule="nonzero" fill-opacity="1" /><path clip-path="url(#clip680)" d="M1657.45 1276.4 L1642.69 1299.47 L1657.45 1299.47 L1657.45 1276.4 M1655.91 1271.31 L1663.26 1271.31 L1663.26 1299.47 L1669.42 1299.47 L1669.42 1304.33 L1663.26 1304.33 L1663.26 1314.51 L1657.45 1314.51 L1657.45 1304.33 L1637.94 1304.33 L1637.94 1298.68 L1655.91 1271.31 Z" fill="#000000" fill-rule="nonzero" fill-opacity="1" /><path clip-path="url(#clip680)" d="M1691.59 1275.16 Q1687.07 1275.16 1684.79 1279.62 Q1682.53 1284.04 1682.53 1292.95 Q1682.53 1301.84 1684.79 1306.29 Q1687.07 1310.72 1691.59 1310.72 Q1696.13 1310.72 1698.39 1306.29 Q1700.67 1301.84 1700.67 1292.95 Q1700.67 1284.04 1698.39 1279.62 Q1696.13 1275.16 1691.59 1275.16 M1691.59 1270.53 Q1698.85 1270.53 1702.67 1276.29 Q1706.52 1282.02 1706.52 1292.95 Q1706.52 1303.86 1702.67 1309.62 Q1698.85 1315.35 1691.59 1315.35 Q1684.33 1315.35 1680.48 1309.62 Q1676.66 1303.86 1676.66 1292.95 Q1676.66 1282.02 1680.48 1276.29 Q1684.33 1270.53 1691.59 1270.53 Z" fill="#000000" fill-rule="nonzero" fill-opacity="1" /><path clip-path="url(#clip680)" d="M1917.03 1271.31 L1939.98 1271.31 L1939.98 1276.23 L1922.39 1276.23 L1922.39 1286.82 Q1923.66 1286.39 1924.93 1286.18 Q1926.21 1285.95 1927.48 1285.95 Q1934.71 1285.95 1938.94 1289.92 Q1943.16 1293.88 1943.16 1300.65 Q1943.16 1307.62 1938.82 1311.5 Q1934.48 1315.35 1926.58 1315.35 Q1923.86 1315.35 1921.03 1314.89 Q1918.22 1314.42 1915.21 1313.5 L1915.21 1307.62 Q1917.81 1309.04 1920.59 1309.74 Q1923.37 1310.43 1926.47 1310.43 Q1931.47 1310.43 1934.39 1307.8 Q1937.32 1305.17 1937.32 1300.65 Q1937.32 1296.14 1934.39 1293.5 Q1931.47 1290.87 1926.47 1290.87 Q1924.12 1290.87 1921.78 1291.39 Q1919.46 1291.91 1917.03 1293.01 L1917.03 1271.31 Z" fill="#000000" fill-rule="nonzero" fill-opacity="1" /><path clip-path="url(#clip680)" d="M1967.18 1275.16 Q1962.66 1275.16 1960.38 1279.62 Q1958.12 1284.04 1958.12 1292.95 Q1958.12 1301.84 1960.38 1306.29 Q1962.66 1310.72 1967.18 1310.72 Q1971.72 1310.72 1973.98 1306.29 Q1976.26 1301.84 1976.26 1292.95 Q1976.26 1284.04 1973.98 1279.62 Q1971.72 1275.16 1967.18 1275.16 M1967.18 1270.53 Q1974.44 1270.53 1978.26 1276.29 Q1982.11 1282.02 1982.11 1292.95 Q1982.11 1303.86 1978.26 1309.62 Q1974.44 1315.35 1967.18 1315.35 Q1959.92 1315.35 1956.07 1309.62 Q1952.25 1303.86 1952.25 1292.95 Q1952.25 1282.02 1956.07 1276.29 Q1959.92 1270.53 1967.18 1270.53 Z" fill="#000000" fill-rule="nonzero" fill-opacity="1" /><path clip-path="url(#clip680)" d="M2206.84 1290.58 Q2202.91 1290.58 2200.59 1293.27 Q2198.31 1295.96 2198.31 1300.65 Q2198.31 1305.31 2200.59 1308.03 Q2202.91 1310.72 2206.84 1310.72 Q2210.78 1310.72 2213.07 1308.03 Q2215.38 1305.31 2215.38 1300.65 Q2215.38 1295.96 2213.07 1293.27 Q2210.78 1290.58 2206.84 1290.58 M2218.45 1272.27 L2218.45 1277.59 Q2216.25 1276.55 2213.99 1276 Q2211.76 1275.45 2209.56 1275.45 Q2203.78 1275.45 2200.71 1279.36 Q2197.67 1283.26 2197.24 1291.16 Q2198.95 1288.64 2201.52 1287.31 Q2204.1 1285.95 2207.19 1285.95 Q2213.7 1285.95 2217.46 1289.92 Q2221.25 1293.85 2221.25 1300.65 Q2221.25 1307.31 2217.32 1311.33 Q2213.38 1315.35 2206.84 1315.35 Q2199.35 1315.35 2195.39 1309.62 Q2191.42 1303.86 2191.42 1292.95 Q2191.42 1282.71 2196.28 1276.64 Q2201.14 1270.53 2209.33 1270.53 Q2211.53 1270.53 2213.76 1270.96 Q2216.02 1271.4 2218.45 1272.27 Z" fill="#000000" fill-rule="nonzero" fill-opacity="1" /><path clip-path="url(#clip680)" d="M2243.82 1275.16 Q2239.31 1275.16 2237.02 1279.62 Q2234.77 1284.04 2234.77 1292.95 Q2234.77 1301.84 2237.02 1306.29 Q2239.31 1310.72 2243.82 1310.72 Q2248.37 1310.72 2250.62 1306.29 Q2252.91 1301.84 2252.91 1292.95 Q2252.91 1284.04 2250.62 1279.62 Q2248.37 1275.16 2243.82 1275.16 M2243.82 1270.53 Q2251.09 1270.53 2254.91 1276.29 Q2258.75 1282.02 2258.75 1292.95 Q2258.75 1303.86 2254.91 1309.62 Q2251.09 1315.35 2243.82 1315.35 Q2236.56 1315.35 2232.71 1309.62 Q2228.89 1303.86 2228.89 1292.95 Q2228.89 1282.02 2232.71 1276.29 Q2236.56 1270.53 2243.82 1270.53 Z" fill="#000000" fill-rule="nonzero" fill-opacity="1" /><path clip-path="url(#clip680)" d="M1218.83 1351.62 L1248.87 1351.62 L1248.87 1357.03 L1225.26 1357.03 L1225.26 1371.09 L1247.89 1371.09 L1247.89 1376.51 L1225.26 1376.51 L1225.26 1393.72 L1249.45 1393.72 L1249.45 1399.14 L1218.83 1399.14 L1218.83 1351.62 Z" fill="#000000" fill-rule="nonzero" fill-opacity="1" /><path clip-path="url(#clip680)" d="M1260.01 1351.62 L1269.59 1351.62 L1281.72 1383.95 L1293.91 1351.62 L1303.49 1351.62 L1303.49 1399.14 L1297.22 1399.14 L1297.22 1357.41 L1284.97 1390 L1278.51 1390 L1266.25 1357.41 L1266.25 1399.14 L1260.01 1399.14 L1260.01 1351.62 Z" fill="#000000" fill-rule="nonzero" fill-opacity="1" /><path clip-path="url(#clip680)" d="M1336.72 1363.49 L1342.58 1363.49 L1342.58 1399.14 L1336.72 1399.14 L1336.72 1363.49 M1336.72 1349.61 L1342.58 1349.61 L1342.58 1357.03 L1336.72 1357.03 L1336.72 1349.61 Z" fill="#000000" fill-rule="nonzero" fill-opacity="1" /><path clip-path="url(#clip680)" d="M1360.62 1353.37 L1360.62 1363.49 L1372.69 1363.49 L1372.69 1368.04 L1360.62 1368.04 L1360.62 1387.39 Q1360.62 1391.75 1361.8 1392.99 Q1363.01 1394.23 1366.67 1394.23 L1372.69 1394.23 L1372.69 1399.14 L1366.67 1399.14 Q1359.89 1399.14 1357.31 1396.62 Q1354.74 1394.07 1354.74 1387.39 L1354.74 1368.04 L1350.44 1368.04 L1350.44 1363.49 L1354.74 1363.49 L1354.74 1353.37 L1360.62 1353.37 Z" fill="#000000" fill-rule="nonzero" fill-opacity="1" /><path clip-path="url(#clip680)" d="M1410.88 1379.85 L1410.88 1382.71 L1383.95 1382.71 Q1384.34 1388.76 1387.58 1391.94 Q1390.86 1395.09 1396.69 1395.09 Q1400.06 1395.09 1403.21 1394.27 Q1406.39 1393.44 1409.51 1391.78 L1409.51 1397.32 Q1406.36 1398.66 1403.05 1399.36 Q1399.74 1400.06 1396.34 1400.06 Q1387.81 1400.06 1382.81 1395.09 Q1377.84 1390.13 1377.84 1381.66 Q1377.84 1372.91 1382.55 1367.78 Q1387.3 1362.63 1395.32 1362.63 Q1402.51 1362.63 1406.68 1367.28 Q1410.88 1371.89 1410.88 1379.85 M1405.02 1378.13 Q1404.96 1373.32 1402.32 1370.46 Q1399.71 1367.59 1395.38 1367.59 Q1390.48 1367.59 1387.52 1370.36 Q1384.59 1373.13 1384.15 1378.16 L1405.02 1378.13 Z" fill="#000000" fill-rule="nonzero" fill-opacity="1" /><path clip-path="url(#clip680)" d="M1441.15 1368.96 Q1440.16 1368.39 1438.99 1368.13 Q1437.84 1367.85 1436.44 1367.85 Q1431.47 1367.85 1428.8 1371.09 Q1426.16 1374.31 1426.16 1380.36 L1426.16 1399.14 L1420.27 1399.14 L1420.27 1363.49 L1426.16 1363.49 L1426.16 1369.03 Q1428.01 1365.78 1430.97 1364.22 Q1433.93 1362.63 1438.16 1362.63 Q1438.76 1362.63 1439.5 1362.72 Q1440.23 1362.79 1441.12 1362.95 L1441.15 1368.96 Z" fill="#000000" fill-rule="nonzero" fill-opacity="1" /><path clip-path="url(#clip680)" d="M1463.49 1381.22 Q1456.4 1381.22 1453.66 1382.84 Q1450.92 1384.46 1450.92 1388.38 Q1450.92 1391.5 1452.96 1393.34 Q1455.03 1395.16 1458.56 1395.16 Q1463.43 1395.16 1466.36 1391.72 Q1469.32 1388.25 1469.32 1382.52 L1469.32 1381.22 L1463.49 1381.22 M1475.17 1378.8 L1475.17 1399.14 L1469.32 1399.14 L1469.32 1393.72 Q1467.31 1396.97 1464.32 1398.53 Q1461.33 1400.06 1457 1400.06 Q1451.53 1400.06 1448.28 1397 Q1445.07 1393.92 1445.07 1388.76 Q1445.07 1382.74 1449.08 1379.69 Q1453.12 1376.63 1461.11 1376.63 L1469.32 1376.63 L1469.32 1376.06 Q1469.32 1372.02 1466.64 1369.82 Q1464 1367.59 1459.2 1367.59 Q1456.14 1367.59 1453.25 1368.33 Q1450.35 1369.06 1447.68 1370.52 L1447.68 1365.11 Q1450.89 1363.87 1453.91 1363.26 Q1456.94 1362.63 1459.8 1362.63 Q1467.54 1362.63 1471.36 1366.64 Q1475.17 1370.65 1475.17 1378.8 Z" fill="#000000" fill-rule="nonzero" fill-opacity="1" /><path clip-path="url(#clip680)" d="M1493.03 1353.37 L1493.03 1363.49 L1505.09 1363.49 L1505.09 1368.04 L1493.03 1368.04 L1493.03 1387.39 Q1493.03 1391.75 1494.21 1392.99 Q1495.42 1394.23 1499.08 1394.23 L1505.09 1394.23 L1505.09 1399.14 L1499.08 1399.14 Q1492.3 1399.14 1489.72 1396.62 Q1487.14 1394.07 1487.14 1387.39 L1487.14 1368.04 L1482.85 1368.04 L1482.85 1363.49 L1487.14 1363.49 L1487.14 1353.37 L1493.03 1353.37 Z" fill="#000000" fill-rule="nonzero" fill-opacity="1" /><path clip-path="url(#clip680)" d="M1512.8 1363.49 L1518.65 1363.49 L1518.65 1399.14 L1512.8 1399.14 L1512.8 1363.49 M1512.8 1349.61 L1518.65 1349.61 L1518.65 1357.03 L1512.8 1357.03 L1512.8 1349.61 Z" fill="#000000" fill-rule="nonzero" fill-opacity="1" /><path clip-path="url(#clip680)" d="M1544.72 1367.59 Q1540.01 1367.59 1537.27 1371.29 Q1534.54 1374.95 1534.54 1381.34 Q1534.54 1387.74 1537.24 1391.43 Q1539.98 1395.09 1544.72 1395.09 Q1549.4 1395.09 1552.14 1391.4 Q1554.87 1387.71 1554.87 1381.34 Q1554.87 1375.01 1552.14 1371.32 Q1549.4 1367.59 1544.72 1367.59 M1544.72 1362.63 Q1552.36 1362.63 1556.72 1367.59 Q1561.08 1372.56 1561.08 1381.34 Q1561.08 1390.1 1556.72 1395.09 Q1552.36 1400.06 1544.72 1400.06 Q1537.05 1400.06 1532.69 1395.09 Q1528.36 1390.1 1528.36 1381.34 Q1528.36 1372.56 1532.69 1367.59 Q1537.05 1362.63 1544.72 1362.63 Z" fill="#000000" fill-rule="nonzero" fill-opacity="1" /><path clip-path="url(#clip680)" d="M1600.42 1377.62 L1600.42 1399.14 L1594.56 1399.14 L1594.56 1377.81 Q1594.56 1372.75 1592.59 1370.24 Q1590.62 1367.72 1586.67 1367.72 Q1581.93 1367.72 1579.19 1370.74 Q1576.45 1373.77 1576.45 1378.99 L1576.45 1399.14 L1570.57 1399.14 L1570.57 1363.49 L1576.45 1363.49 L1576.45 1369.03 Q1578.55 1365.81 1581.39 1364.22 Q1584.25 1362.63 1587.98 1362.63 Q1594.12 1362.63 1597.27 1366.45 Q1600.42 1370.24 1600.42 1377.62 Z" fill="#000000" fill-rule="nonzero" fill-opacity="1" /><polyline clip-path="url(#clip680)" style="stroke:#000000; stroke-linecap:round; stroke-linejoin:round; stroke-width:4; stroke-opacity:1; fill:none" points="545.232,1241.31 545.232,219.492 "/>
<polyline clip-path="url(#clip680)" style="stroke:#000000; stroke-linecap:round; stroke-linejoin:round; stroke-width:4; stroke-opacity:1; fill:none" points="545.232,1240.92 564.13,1240.92 "/>
<polyline clip-path="url(#clip680)" style="stroke:#000000; stroke-linecap:round; stroke-linejoin:round; stroke-width:4; stroke-opacity:1; fill:none" points="545.232,1092.87 564.13,1092.87 "/>
<polyline clip-path="url(#clip680)" style="stroke:#000000; stroke-linecap:round; stroke-linejoin:round; stroke-width:4; stroke-opacity:1; fill:none" points="545.232,944.827 564.13,944.827 "/>
<polyline clip-path="url(#clip680)" style="stroke:#000000; stroke-linecap:round; stroke-linejoin:round; stroke-width:4; stroke-opacity:1; fill:none" points="545.232,796.78 564.13,796.78 "/>
<polyline clip-path="url(#clip680)" style="stroke:#000000; stroke-linecap:round; stroke-linejoin:round; stroke-width:4; stroke-opacity:1; fill:none" points="545.232,648.733 564.13,648.733 "/>
<polyline clip-path="url(#clip680)" style="stroke:#000000; stroke-linecap:round; stroke-linejoin:round; stroke-width:4; stroke-opacity:1; fill:none" points="545.232,500.686 564.13,500.686 "/>
<polyline clip-path="url(#clip680)" style="stroke:#000000; stroke-linecap:round; stroke-linejoin:round; stroke-width:4; stroke-opacity:1; fill:none" points="545.232,352.639 564.13,352.639 "/>
<path clip-path="url(#clip680)" d="M318.985 1241.49 L356.079 1241.49 L356.079 1246.4 L318.985 1246.4 L318.985 1241.49 Z" fill="#000000" fill-rule="nonzero" fill-opacity="1" /><path clip-path="url(#clip680)" d="M368.753 1219.32 L391.698 1219.32 L391.698 1224.24 L374.106 1224.24 L374.106 1234.83 Q375.379 1234.4 376.652 1234.19 Q377.925 1233.96 379.198 1233.96 Q386.432 1233.96 390.657 1237.93 Q394.881 1241.89 394.881 1248.66 Q394.881 1255.64 390.541 1259.51 Q386.201 1263.36 378.301 1263.36 Q375.581 1263.36 372.746 1262.9 Q369.939 1262.43 366.93 1261.51 L366.93 1255.64 Q369.534 1257.05 372.312 1257.75 Q375.09 1258.44 378.186 1258.44 Q383.191 1258.44 386.114 1255.81 Q389.036 1253.18 389.036 1248.66 Q389.036 1244.15 386.114 1241.51 Q383.191 1238.88 378.186 1238.88 Q375.842 1238.88 373.498 1239.4 Q371.183 1239.92 368.753 1241.02 L368.753 1219.32 Z" fill="#000000" fill-rule="nonzero" fill-opacity="1" /><path clip-path="url(#clip680)" d="M422.456 1224.41 L407.699 1247.48 L422.456 1247.48 L422.456 1224.41 M420.923 1219.32 L428.272 1219.32 L428.272 1247.48 L434.435 1247.48 L434.435 1252.34 L428.272 1252.34 L428.272 1262.52 L422.456 1262.52 L422.456 1252.34 L402.954 1252.34 L402.954 1246.69 L420.923 1219.32 Z" fill="#000000" fill-rule="nonzero" fill-opacity="1" /><path clip-path="url(#clip680)" d="M456.6 1223.17 Q452.086 1223.17 449.8 1227.63 Q447.543 1232.05 447.543 1240.96 Q447.543 1249.85 449.8 1254.3 Q452.086 1258.73 456.6 1258.73 Q461.142 1258.73 463.399 1254.3 Q465.685 1249.85 465.685 1240.96 Q465.685 1232.05 463.399 1227.63 Q461.142 1223.17 456.6 1223.17 M456.6 1218.54 Q463.862 1218.54 467.682 1224.3 Q471.53 1230.03 471.53 1240.96 Q471.53 1251.87 467.682 1257.63 Q463.862 1263.36 456.6 1263.36 Q449.337 1263.36 445.489 1257.63 Q441.669 1251.87 441.669 1240.96 Q441.669 1230.03 445.489 1224.3 Q449.337 1218.54 456.6 1218.54 Z" fill="#000000" fill-rule="nonzero" fill-opacity="1" /><path clip-path="url(#clip680)" d="M494.302 1223.17 Q489.788 1223.17 487.502 1227.63 Q485.245 1232.05 485.245 1240.96 Q485.245 1249.85 487.502 1254.3 Q489.788 1258.73 494.302 1258.73 Q498.845 1258.73 501.102 1254.3 Q503.388 1249.85 503.388 1240.96 Q503.388 1232.05 501.102 1227.63 Q498.845 1223.17 494.302 1223.17 M494.302 1218.54 Q501.565 1218.54 505.384 1224.3 Q509.232 1230.03 509.232 1240.96 Q509.232 1251.87 505.384 1257.63 Q501.565 1263.36 494.302 1263.36 Q487.039 1263.36 483.191 1257.63 Q479.371 1251.87 479.371 1240.96 Q479.371 1230.03 483.191 1224.3 Q487.039 1218.54 494.302 1218.54 Z" fill="#000000" fill-rule="nonzero" fill-opacity="1" /><path clip-path="url(#clip680)" d="M318.985 1093.44 L356.079 1093.44 L356.079 1098.36 L318.985 1098.36 L318.985 1093.44 Z" fill="#000000" fill-rule="nonzero" fill-opacity="1" /><path clip-path="url(#clip680)" d="M368.753 1071.27 L391.698 1071.27 L391.698 1076.19 L374.106 1076.19 L374.106 1086.78 Q375.379 1086.35 376.652 1086.15 Q377.925 1085.92 379.198 1085.92 Q386.432 1085.92 390.657 1089.88 Q394.881 1093.84 394.881 1100.61 Q394.881 1107.59 390.541 1111.47 Q386.201 1115.31 378.301 1115.31 Q375.581 1115.31 372.746 1114.85 Q369.939 1114.39 366.93 1113.46 L366.93 1107.59 Q369.534 1109.01 372.312 1109.7 Q375.09 1110.39 378.186 1110.39 Q383.191 1110.39 386.114 1107.76 Q389.036 1105.13 389.036 1100.61 Q389.036 1096.1 386.114 1093.47 Q383.191 1090.83 378.186 1090.83 Q375.842 1090.83 373.498 1091.36 Q371.183 1091.88 368.753 1092.98 L368.753 1071.27 Z" fill="#000000" fill-rule="nonzero" fill-opacity="1" /><path clip-path="url(#clip680)" d="M424.106 1091.18 Q428.301 1092.08 430.645 1094.91 Q433.018 1097.75 433.018 1101.92 Q433.018 1108.31 428.619 1111.81 Q424.221 1115.31 416.119 1115.31 Q413.4 1115.31 410.506 1114.76 Q407.641 1114.24 404.574 1113.17 L404.574 1107.53 Q407.005 1108.95 409.898 1109.67 Q412.792 1110.39 415.946 1110.39 Q421.444 1110.39 424.308 1108.22 Q427.202 1106.05 427.202 1101.92 Q427.202 1098.1 424.511 1095.96 Q421.849 1093.79 417.074 1093.79 L412.04 1093.79 L412.04 1088.98 L417.306 1088.98 Q421.617 1088.98 423.903 1087.28 Q426.189 1085.54 426.189 1082.3 Q426.189 1078.97 423.816 1077.21 Q421.472 1075.41 417.074 1075.41 Q414.673 1075.41 411.924 1075.93 Q409.175 1076.45 405.876 1077.55 L405.876 1072.35 Q409.204 1071.42 412.097 1070.96 Q415.02 1070.49 417.595 1070.49 Q424.25 1070.49 428.128 1073.53 Q432.005 1076.54 432.005 1081.69 Q432.005 1085.28 429.95 1087.77 Q427.896 1090.23 424.106 1091.18 Z" fill="#000000" fill-rule="nonzero" fill-opacity="1" /><path clip-path="url(#clip680)" d="M456.6 1075.12 Q452.086 1075.12 449.8 1079.58 Q447.543 1084.01 447.543 1092.92 Q447.543 1101.8 449.8 1106.26 Q452.086 1110.68 456.6 1110.68 Q461.142 1110.68 463.399 1106.26 Q465.685 1101.8 465.685 1092.92 Q465.685 1084.01 463.399 1079.58 Q461.142 1075.12 456.6 1075.12 M456.6 1070.49 Q463.862 1070.49 467.682 1076.25 Q471.53 1081.98 471.53 1092.92 Q471.53 1103.83 467.682 1109.58 Q463.862 1115.31 456.6 1115.31 Q449.337 1115.31 445.489 1109.58 Q441.669 1103.83 441.669 1092.92 Q441.669 1081.98 445.489 1076.25 Q449.337 1070.49 456.6 1070.49 Z" fill="#000000" fill-rule="nonzero" fill-opacity="1" /><path clip-path="url(#clip680)" d="M494.302 1075.12 Q489.788 1075.12 487.502 1079.58 Q485.245 1084.01 485.245 1092.92 Q485.245 1101.8 487.502 1106.26 Q489.788 1110.68 494.302 1110.68 Q498.845 1110.68 501.102 1106.26 Q503.388 1101.8 503.388 1092.92 Q503.388 1084.01 501.102 1079.58 Q498.845 1075.12 494.302 1075.12 M494.302 1070.49 Q501.565 1070.49 505.384 1076.25 Q509.232 1081.98 509.232 1092.92 Q509.232 1103.83 505.384 1109.58 Q501.565 1115.31 494.302 1115.31 Q487.039 1115.31 483.191 1109.58 Q479.371 1103.83 479.371 1092.92 Q479.371 1081.98 483.191 1076.25 Q487.039 1070.49 494.302 1070.49 Z" fill="#000000" fill-rule="nonzero" fill-opacity="1" /><path clip-path="url(#clip680)" d="M318.985 945.392 L356.079 945.392 L356.079 950.31 L318.985 950.31 L318.985 945.392 Z" fill="#000000" fill-rule="nonzero" fill-opacity="1" /><path clip-path="url(#clip680)" d="M368.753 923.227 L391.698 923.227 L391.698 928.146 L374.106 928.146 L374.106 938.736 Q375.379 938.302 376.652 938.1 Q377.925 937.868 379.198 937.868 Q386.432 937.868 390.657 941.833 Q394.881 945.797 394.881 952.567 Q394.881 959.541 390.541 963.418 Q386.201 967.266 378.301 967.266 Q375.581 967.266 372.746 966.803 Q369.939 966.34 366.93 965.415 L366.93 959.541 Q369.534 960.959 372.312 961.653 Q375.09 962.347 378.186 962.347 Q383.191 962.347 386.114 959.714 Q389.036 957.081 389.036 952.567 Q389.036 948.054 386.114 945.42 Q383.191 942.787 378.186 942.787 Q375.842 942.787 373.498 943.308 Q371.183 943.829 368.753 944.929 L368.753 923.227 Z" fill="#000000" fill-rule="nonzero" fill-opacity="1" /><path clip-path="url(#clip680)" d="M411.432 961.508 L431.831 961.508 L431.831 966.427 L404.401 966.427 L404.401 961.508 Q407.728 958.065 413.457 952.278 Q419.216 946.462 420.691 944.784 Q423.498 941.63 424.597 939.46 Q425.726 937.261 425.726 935.149 Q425.726 931.705 423.295 929.535 Q420.894 927.365 417.016 927.365 Q414.268 927.365 411.201 928.32 Q408.162 929.275 404.69 931.213 L404.69 925.311 Q408.22 923.893 411.287 923.169 Q414.354 922.446 416.901 922.446 Q423.614 922.446 427.607 925.803 Q431.6 929.159 431.6 934.772 Q431.6 937.434 430.587 939.836 Q429.603 942.209 426.97 945.449 Q426.247 946.289 422.369 950.31 Q418.492 954.304 411.432 961.508 Z" fill="#000000" fill-rule="nonzero" fill-opacity="1" /><path clip-path="url(#clip680)" d="M456.6 927.076 Q452.086 927.076 449.8 931.532 Q447.543 935.959 447.543 944.871 Q447.543 953.754 449.8 958.21 Q452.086 962.637 456.6 962.637 Q461.142 962.637 463.399 958.21 Q465.685 953.754 465.685 944.871 Q465.685 935.959 463.399 931.532 Q461.142 927.076 456.6 927.076 M456.6 922.446 Q463.862 922.446 467.682 928.204 Q471.53 933.933 471.53 944.871 Q471.53 955.779 467.682 961.537 Q463.862 967.266 456.6 967.266 Q449.337 967.266 445.489 961.537 Q441.669 955.779 441.669 944.871 Q441.669 933.933 445.489 928.204 Q449.337 922.446 456.6 922.446 Z" fill="#000000" fill-rule="nonzero" fill-opacity="1" /><path clip-path="url(#clip680)" d="M494.302 927.076 Q489.788 927.076 487.502 931.532 Q485.245 935.959 485.245 944.871 Q485.245 953.754 487.502 958.21 Q489.788 962.637 494.302 962.637 Q498.845 962.637 501.102 958.21 Q503.388 953.754 503.388 944.871 Q503.388 935.959 501.102 931.532 Q498.845 927.076 494.302 927.076 M494.302 922.446 Q501.565 922.446 505.384 928.204 Q509.232 933.933 509.232 944.871 Q509.232 955.779 505.384 961.537 Q501.565 967.266 494.302 967.266 Q487.039 967.266 483.191 961.537 Q479.371 955.779 479.371 944.871 Q479.371 933.933 483.191 928.204 Q487.039 922.446 494.302 922.446 Z" fill="#000000" fill-rule="nonzero" fill-opacity="1" /><path clip-path="url(#clip680)" d="M318.985 797.344 L356.079 797.344 L356.079 802.263 L318.985 802.263 L318.985 797.344 Z" fill="#000000" fill-rule="nonzero" fill-opacity="1" /><path clip-path="url(#clip680)" d="M368.753 775.18 L391.698 775.18 L391.698 780.099 L374.106 780.099 L374.106 790.689 Q375.379 790.255 376.652 790.053 Q377.925 789.821 379.198 789.821 Q386.432 789.821 390.657 793.785 Q394.881 797.75 394.881 804.52 Q394.881 811.494 390.541 815.371 Q386.201 819.219 378.301 819.219 Q375.581 819.219 372.746 818.756 Q369.939 818.293 366.93 817.367 L366.93 811.494 Q369.534 812.911 372.312 813.606 Q375.09 814.3 378.186 814.3 Q383.191 814.3 386.114 811.667 Q389.036 809.034 389.036 804.52 Q389.036 800.006 386.114 797.373 Q383.191 794.74 378.186 794.74 Q375.842 794.74 373.498 795.261 Q371.183 795.782 368.753 796.881 L368.753 775.18 Z" fill="#000000" fill-rule="nonzero" fill-opacity="1" /><path clip-path="url(#clip680)" d="M407.41 813.461 L416.959 813.461 L416.959 780.504 L406.571 782.588 L406.571 777.264 L416.901 775.18 L422.746 775.18 L422.746 813.461 L432.294 813.461 L432.294 818.38 L407.41 818.38 L407.41 813.461 Z" fill="#000000" fill-rule="nonzero" fill-opacity="1" /><path clip-path="url(#clip680)" d="M456.6 779.029 Q452.086 779.029 449.8 783.485 Q447.543 787.912 447.543 796.824 Q447.543 805.707 449.8 810.163 Q452.086 814.59 456.6 814.59 Q461.142 814.59 463.399 810.163 Q465.685 805.707 465.685 796.824 Q465.685 787.912 463.399 783.485 Q461.142 779.029 456.6 779.029 M456.6 774.399 Q463.862 774.399 467.682 780.157 Q471.53 785.886 471.53 796.824 Q471.53 807.732 467.682 813.49 Q463.862 819.219 456.6 819.219 Q449.337 819.219 445.489 813.49 Q441.669 807.732 441.669 796.824 Q441.669 785.886 445.489 780.157 Q449.337 774.399 456.6 774.399 Z" fill="#000000" fill-rule="nonzero" fill-opacity="1" /><path clip-path="url(#clip680)" d="M494.302 779.029 Q489.788 779.029 487.502 783.485 Q485.245 787.912 485.245 796.824 Q485.245 805.707 487.502 810.163 Q489.788 814.59 494.302 814.59 Q498.845 814.59 501.102 810.163 Q503.388 805.707 503.388 796.824 Q503.388 787.912 501.102 783.485 Q498.845 779.029 494.302 779.029 M494.302 774.399 Q501.565 774.399 505.384 780.157 Q509.232 785.886 509.232 796.824 Q509.232 807.732 505.384 813.49 Q501.565 819.219 494.302 819.219 Q487.039 819.219 483.191 813.49 Q479.371 807.732 479.371 796.824 Q479.371 785.886 483.191 780.157 Q487.039 774.399 494.302 774.399 Z" fill="#000000" fill-rule="nonzero" fill-opacity="1" /><path clip-path="url(#clip680)" d="M318.985 649.297 L356.079 649.297 L356.079 654.216 L318.985 654.216 L318.985 649.297 Z" fill="#000000" fill-rule="nonzero" fill-opacity="1" /><path clip-path="url(#clip680)" d="M368.753 627.133 L391.698 627.133 L391.698 632.052 L374.106 632.052 L374.106 642.642 Q375.379 642.208 376.652 642.006 Q377.925 641.774 379.198 641.774 Q386.432 641.774 390.657 645.738 Q394.881 649.702 394.881 656.473 Q394.881 663.447 390.541 667.324 Q386.201 671.172 378.301 671.172 Q375.581 671.172 372.746 670.709 Q369.939 670.246 366.93 669.32 L366.93 663.447 Q369.534 664.864 372.312 665.559 Q375.09 666.253 378.186 666.253 Q383.191 666.253 386.114 663.62 Q389.036 660.987 389.036 656.473 Q389.036 651.959 386.114 649.326 Q383.191 646.693 378.186 646.693 Q375.842 646.693 373.498 647.214 Q371.183 647.735 368.753 648.834 L368.753 627.133 Z" fill="#000000" fill-rule="nonzero" fill-opacity="1" /><path clip-path="url(#clip680)" d="M418.897 630.981 Q414.383 630.981 412.097 635.437 Q409.841 639.864 409.841 648.776 Q409.841 657.66 412.097 662.116 Q414.383 666.543 418.897 666.543 Q423.44 666.543 425.697 662.116 Q427.983 657.66 427.983 648.776 Q427.983 639.864 425.697 635.437 Q423.44 630.981 418.897 630.981 M418.897 626.352 Q426.16 626.352 429.979 632.11 Q433.828 637.839 433.828 648.776 Q433.828 659.685 429.979 665.443 Q426.16 671.172 418.897 671.172 Q411.635 671.172 407.786 665.443 Q403.967 659.685 403.967 648.776 Q403.967 637.839 407.786 632.11 Q411.635 626.352 418.897 626.352 Z" fill="#000000" fill-rule="nonzero" fill-opacity="1" /><path clip-path="url(#clip680)" d="M456.6 630.981 Q452.086 630.981 449.8 635.437 Q447.543 639.864 447.543 648.776 Q447.543 657.66 449.8 662.116 Q452.086 666.543 456.6 666.543 Q461.142 666.543 463.399 662.116 Q465.685 657.66 465.685 648.776 Q465.685 639.864 463.399 635.437 Q461.142 630.981 456.6 630.981 M456.6 626.352 Q463.862 626.352 467.682 632.11 Q471.53 637.839 471.53 648.776 Q471.53 659.685 467.682 665.443 Q463.862 671.172 456.6 671.172 Q449.337 671.172 445.489 665.443 Q441.669 659.685 441.669 648.776 Q441.669 637.839 445.489 632.11 Q449.337 626.352 456.6 626.352 Z" fill="#000000" fill-rule="nonzero" fill-opacity="1" /><path clip-path="url(#clip680)" d="M494.302 630.981 Q489.788 630.981 487.502 635.437 Q485.245 639.864 485.245 648.776 Q485.245 657.66 487.502 662.116 Q489.788 666.543 494.302 666.543 Q498.845 666.543 501.102 662.116 Q503.388 657.66 503.388 648.776 Q503.388 639.864 501.102 635.437 Q498.845 630.981 494.302 630.981 M494.302 626.352 Q501.565 626.352 505.384 632.11 Q509.232 637.839 509.232 648.776 Q509.232 659.685 505.384 665.443 Q501.565 671.172 494.302 671.172 Q487.039 671.172 483.191 665.443 Q479.371 659.685 479.371 648.776 Q479.371 637.839 483.191 632.11 Q487.039 626.352 494.302 626.352 Z" fill="#000000" fill-rule="nonzero" fill-opacity="1" /><path clip-path="url(#clip680)" d="M318.985 501.25 L356.079 501.25 L356.079 506.169 L318.985 506.169 L318.985 501.25 Z" fill="#000000" fill-rule="nonzero" fill-opacity="1" /><path clip-path="url(#clip680)" d="M384.754 484.179 L369.997 507.24 L384.754 507.24 L384.754 484.179 M383.22 479.086 L390.57 479.086 L390.57 507.24 L396.733 507.24 L396.733 512.101 L390.57 512.101 L390.57 522.286 L384.754 522.286 L384.754 512.101 L365.252 512.101 L365.252 506.458 L383.22 479.086 Z" fill="#000000" fill-rule="nonzero" fill-opacity="1" /><path clip-path="url(#clip680)" d="M406.571 521.389 L406.571 516.065 Q408.77 517.107 411.027 517.656 Q413.284 518.206 415.454 518.206 Q421.241 518.206 424.279 514.329 Q427.346 510.423 427.78 502.494 Q426.102 504.983 423.527 506.314 Q420.952 507.645 417.827 507.645 Q411.345 507.645 407.555 503.739 Q403.793 499.803 403.793 493.004 Q403.793 486.349 407.728 482.327 Q411.663 478.305 418.203 478.305 Q425.697 478.305 429.632 484.063 Q433.596 489.792 433.596 500.729 Q433.596 510.943 428.735 517.049 Q423.903 523.125 415.714 523.125 Q413.515 523.125 411.258 522.691 Q409.001 522.257 406.571 521.389 M418.203 503.073 Q422.138 503.073 424.424 500.382 Q426.739 497.691 426.739 493.004 Q426.739 488.345 424.424 485.654 Q422.138 482.934 418.203 482.934 Q414.268 482.934 411.953 485.654 Q409.667 488.345 409.667 493.004 Q409.667 497.691 411.953 500.382 Q414.268 503.073 418.203 503.073 Z" fill="#000000" fill-rule="nonzero" fill-opacity="1" /><path clip-path="url(#clip680)" d="M456.6 482.934 Q452.086 482.934 449.8 487.39 Q447.543 491.817 447.543 500.729 Q447.543 509.612 449.8 514.068 Q452.086 518.495 456.6 518.495 Q461.142 518.495 463.399 514.068 Q465.685 509.612 465.685 500.729 Q465.685 491.817 463.399 487.39 Q461.142 482.934 456.6 482.934 M456.6 478.305 Q463.862 478.305 467.682 484.063 Q471.53 489.792 471.53 500.729 Q471.53 511.638 467.682 517.396 Q463.862 523.125 456.6 523.125 Q449.337 523.125 445.489 517.396 Q441.669 511.638 441.669 500.729 Q441.669 489.792 445.489 484.063 Q449.337 478.305 456.6 478.305 Z" fill="#000000" fill-rule="nonzero" fill-opacity="1" /><path clip-path="url(#clip680)" d="M494.302 482.934 Q489.788 482.934 487.502 487.39 Q485.245 491.817 485.245 500.729 Q485.245 509.612 487.502 514.068 Q489.788 518.495 494.302 518.495 Q498.845 518.495 501.102 514.068 Q503.388 509.612 503.388 500.729 Q503.388 491.817 501.102 487.39 Q498.845 482.934 494.302 482.934 M494.302 478.305 Q501.565 478.305 505.384 484.063 Q509.232 489.792 509.232 500.729 Q509.232 511.638 505.384 517.396 Q501.565 523.125 494.302 523.125 Q487.039 523.125 483.191 517.396 Q479.371 511.638 479.371 500.729 Q479.371 489.792 483.191 484.063 Q487.039 478.305 494.302 478.305 Z" fill="#000000" fill-rule="nonzero" fill-opacity="1" /><path clip-path="url(#clip680)" d="M318.985 353.203 L356.079 353.203 L356.079 358.122 L318.985 358.122 L318.985 353.203 Z" fill="#000000" fill-rule="nonzero" fill-opacity="1" /><path clip-path="url(#clip680)" d="M384.754 336.131 L369.997 359.193 L384.754 359.193 L384.754 336.131 M383.22 331.039 L390.57 331.039 L390.57 359.193 L396.733 359.193 L396.733 364.054 L390.57 364.054 L390.57 374.239 L384.754 374.239 L384.754 364.054 L365.252 364.054 L365.252 358.411 L383.22 331.039 Z" fill="#000000" fill-rule="nonzero" fill-opacity="1" /><path clip-path="url(#clip680)" d="M418.897 353.724 Q414.731 353.724 412.329 355.952 Q409.956 358.18 409.956 362.086 Q409.956 365.992 412.329 368.22 Q414.731 370.448 418.897 370.448 Q423.064 370.448 425.465 368.22 Q427.867 365.963 427.867 362.086 Q427.867 358.18 425.465 355.952 Q423.093 353.724 418.897 353.724 M413.052 351.235 Q409.291 350.31 407.179 347.734 Q405.095 345.159 405.095 341.455 Q405.095 336.276 408.77 333.267 Q412.474 330.258 418.897 330.258 Q425.35 330.258 429.024 333.267 Q432.699 336.276 432.699 341.455 Q432.699 345.159 430.587 347.734 Q428.504 350.31 424.771 351.235 Q428.996 352.219 431.339 355.084 Q433.712 357.948 433.712 362.086 Q433.712 368.365 429.864 371.721 Q426.044 375.078 418.897 375.078 Q411.75 375.078 407.902 371.721 Q404.082 368.365 404.082 362.086 Q404.082 357.948 406.455 355.084 Q408.828 352.219 413.052 351.235 M410.911 342.005 Q410.911 345.362 412.994 347.242 Q415.107 349.123 418.897 349.123 Q422.659 349.123 424.771 347.242 Q426.912 345.362 426.912 342.005 Q426.912 338.649 424.771 336.768 Q422.659 334.887 418.897 334.887 Q415.107 334.887 412.994 336.768 Q410.911 338.649 410.911 342.005 Z" fill="#000000" fill-rule="nonzero" fill-opacity="1" /><path clip-path="url(#clip680)" d="M456.6 334.887 Q452.086 334.887 449.8 339.343 Q447.543 343.77 447.543 352.682 Q447.543 361.565 449.8 366.021 Q452.086 370.448 456.6 370.448 Q461.142 370.448 463.399 366.021 Q465.685 361.565 465.685 352.682 Q465.685 343.77 463.399 339.343 Q461.142 334.887 456.6 334.887 M456.6 330.258 Q463.862 330.258 467.682 336.016 Q471.53 341.745 471.53 352.682 Q471.53 363.591 467.682 369.349 Q463.862 375.078 456.6 375.078 Q449.337 375.078 445.489 369.349 Q441.669 363.591 441.669 352.682 Q441.669 341.745 445.489 336.016 Q449.337 330.258 456.6 330.258 Z" fill="#000000" fill-rule="nonzero" fill-opacity="1" /><path clip-path="url(#clip680)" d="M494.302 334.887 Q489.788 334.887 487.502 339.343 Q485.245 343.77 485.245 352.682 Q485.245 361.565 487.502 366.021 Q489.788 370.448 494.302 370.448 Q498.845 370.448 501.102 366.021 Q503.388 361.565 503.388 352.682 Q503.388 343.77 501.102 339.343 Q498.845 334.887 494.302 334.887 M494.302 330.258 Q501.565 330.258 505.384 336.016 Q509.232 341.745 509.232 352.682 Q509.232 363.591 505.384 369.349 Q501.565 375.078 494.302 375.078 Q487.039 375.078 483.191 369.349 Q479.371 363.591 479.371 352.682 Q479.371 341.745 483.191 336.016 Q487.039 330.258 494.302 330.258 Z" fill="#000000" fill-rule="nonzero" fill-opacity="1" /><path clip-path="url(#clip680)" d="M226.492 1022.65 L263.445 1022.65 L263.445 1014.89 Q263.445 1005.05 258.989 1000.5 Q254.533 995.916 244.921 995.916 Q235.372 995.916 230.948 1000.5 Q226.492 1005.05 226.492 1014.89 L226.492 1022.65 M221.209 1029.08 L221.209 1015.87 Q221.209 1002.06 226.97 995.597 Q232.699 989.136 244.921 989.136 Q257.207 989.136 262.968 995.629 Q268.729 1002.12 268.729 1015.87 L268.729 1029.08 L221.209 1029.08 Z" fill="#000000" fill-rule="nonzero" fill-opacity="1" /><path clip-path="url(#clip680)" d="M250.809 962.941 Q250.809 970.039 252.432 972.776 Q254.056 975.513 257.971 975.513 Q261.09 975.513 262.936 973.476 Q264.75 971.408 264.75 967.875 Q264.75 963.005 261.313 960.077 Q257.843 957.117 252.114 957.117 L250.809 957.117 L250.809 962.941 M248.39 951.26 L268.729 951.26 L268.729 957.117 L263.318 957.117 Q266.564 959.122 268.124 962.114 Q269.652 965.105 269.652 969.434 Q269.652 974.909 266.596 978.155 Q263.509 981.37 258.352 981.37 Q252.337 981.37 249.281 977.359 Q246.226 973.317 246.226 965.328 L246.226 957.117 L245.653 957.117 Q241.611 957.117 239.414 959.79 Q237.186 962.432 237.186 967.238 Q237.186 970.294 237.919 973.19 Q238.651 976.086 240.115 978.76 L234.704 978.76 Q233.463 975.545 232.858 972.522 Q232.221 969.498 232.221 966.633 Q232.221 958.899 236.232 955.08 Q240.242 951.26 248.39 951.26 Z" fill="#000000" fill-rule="nonzero" fill-opacity="1" /><path clip-path="url(#clip680)" d="M222.959 933.404 L233.081 933.404 L233.081 921.341 L237.632 921.341 L237.632 933.404 L256.984 933.404 Q261.344 933.404 262.586 932.227 Q263.827 931.017 263.827 927.357 L263.827 921.341 L268.729 921.341 L268.729 927.357 Q268.729 934.136 266.214 936.714 Q263.668 939.293 256.984 939.293 L237.632 939.293 L237.632 943.589 L233.081 943.589 L233.081 939.293 L222.959 939.293 L222.959 933.404 Z" fill="#000000" fill-rule="nonzero" fill-opacity="1" /><path clip-path="url(#clip680)" d="M250.809 897.438 Q250.809 904.536 252.432 907.273 Q254.056 910.01 257.971 910.01 Q261.09 910.01 262.936 907.973 Q264.75 905.904 264.75 902.371 Q264.75 897.502 261.313 894.573 Q257.843 891.613 252.114 891.613 L250.809 891.613 L250.809 897.438 M248.39 885.757 L268.729 885.757 L268.729 891.613 L263.318 891.613 Q266.564 893.619 268.124 896.61 Q269.652 899.602 269.652 903.931 Q269.652 909.406 266.596 912.652 Q263.509 915.867 258.352 915.867 Q252.337 915.867 249.281 911.856 Q246.226 907.814 246.226 899.825 L246.226 891.613 L245.653 891.613 Q241.611 891.613 239.414 894.287 Q237.186 896.929 237.186 901.735 Q237.186 904.79 237.919 907.687 Q238.651 910.583 240.115 913.257 L234.704 913.257 Q233.463 910.042 232.858 907.018 Q232.221 903.995 232.221 901.13 Q232.221 893.396 236.232 889.576 Q240.242 885.757 248.39 885.757 Z" fill="#000000" fill-rule="nonzero" fill-opacity="1" /><path clip-path="url(#clip680)" d="M219.203 852.974 L219.203 847.117 L268.729 847.117 L268.729 852.974 L219.203 852.974 Z" fill="#000000" fill-rule="nonzero" fill-opacity="1" /><path clip-path="url(#clip680)" d="M237.186 821.05 Q237.186 825.76 240.879 828.497 Q244.539 831.235 250.936 831.235 Q257.334 831.235 261.026 828.529 Q264.686 825.792 264.686 821.05 Q264.686 816.371 260.994 813.634 Q257.302 810.896 250.936 810.896 Q244.603 810.896 240.91 813.634 Q237.186 816.371 237.186 821.05 M232.221 821.05 Q232.221 813.411 237.186 809.05 Q242.152 804.69 250.936 804.69 Q259.689 804.69 264.686 809.05 Q269.652 813.411 269.652 821.05 Q269.652 828.72 264.686 833.081 Q259.689 837.409 250.936 837.409 Q242.152 837.409 237.186 833.081 Q232.221 828.72 232.221 821.05 Z" fill="#000000" fill-rule="nonzero" fill-opacity="1" /><path clip-path="url(#clip680)" d="M250.491 771.524 Q244.125 771.524 240.624 774.166 Q237.123 776.776 237.123 781.519 Q237.123 786.229 240.624 788.871 Q244.125 791.481 250.491 791.481 Q256.825 791.481 260.326 788.871 Q263.827 786.229 263.827 781.519 Q263.827 776.776 260.326 774.166 Q256.825 771.524 250.491 771.524 M264.304 765.668 Q273.407 765.668 277.832 769.71 Q282.288 773.752 282.288 782.091 Q282.288 785.179 281.81 787.916 Q281.364 790.653 280.41 793.231 L274.712 793.231 Q276.113 790.653 276.781 788.139 Q277.45 785.624 277.45 783.014 Q277.45 777.253 274.426 774.389 Q271.434 771.524 265.355 771.524 L262.458 771.524 Q265.609 773.339 267.169 776.171 Q268.729 779.004 268.729 782.951 Q268.729 789.507 263.731 793.518 Q258.734 797.528 250.491 797.528 Q242.215 797.528 237.218 793.518 Q232.221 789.507 232.221 782.951 Q232.221 779.004 233.781 776.171 Q235.34 773.339 238.491 771.524 L233.081 771.524 L233.081 765.668 L264.304 765.668 Z" fill="#000000" fill-rule="nonzero" fill-opacity="1" /><path clip-path="url(#clip680)" d="M248.263 756.565 L248.263 739.409 L253.483 739.409 L253.483 756.565 L248.263 756.565 Z" fill="#000000" fill-rule="nonzero" fill-opacity="1" /><path clip-path="url(#clip680)" d="M219.203 730.084 L219.203 724.227 L268.729 724.227 L268.729 730.084 L219.203 730.084 Z" fill="#000000" fill-rule="nonzero" fill-opacity="1" /><path clip-path="url(#clip680)" d="M233.081 711.973 L233.081 706.117 L268.729 706.117 L268.729 711.973 L233.081 711.973 M219.203 711.973 L219.203 706.117 L226.619 706.117 L226.619 711.973 L219.203 711.973 Z" fill="#000000" fill-rule="nonzero" fill-opacity="1" /><path clip-path="url(#clip680)" d="M219.203 694.086 L219.203 688.197 L248.454 688.197 L233.081 670.723 L233.081 663.244 L249.759 682.15 L268.729 662.448 L268.729 670.087 L251.318 688.197 L268.729 688.197 L268.729 694.086 L219.203 694.086 Z" fill="#000000" fill-rule="nonzero" fill-opacity="1" /><path clip-path="url(#clip680)" d="M249.44 627.946 L252.305 627.946 L252.305 654.873 Q258.352 654.491 261.535 651.244 Q264.686 647.966 264.686 642.141 Q264.686 638.768 263.859 635.617 Q263.031 632.434 261.376 629.314 L266.914 629.314 Q268.251 632.465 268.951 635.776 Q269.652 639.086 269.652 642.491 Q269.652 651.022 264.686 656.019 Q259.721 660.984 251.255 660.984 Q242.502 660.984 237.377 656.273 Q232.221 651.531 232.221 643.51 Q232.221 636.317 236.868 632.147 Q241.483 627.946 249.44 627.946 M247.722 633.802 Q242.916 633.866 240.051 636.508 Q237.186 639.118 237.186 643.446 Q237.186 648.348 239.956 651.308 Q242.725 654.236 247.754 654.682 L247.722 633.802 Z" fill="#000000" fill-rule="nonzero" fill-opacity="1" /><path clip-path="url(#clip680)" d="M219.203 618.334 L219.203 612.477 L268.729 612.477 L268.729 618.334 L219.203 618.334 Z" fill="#000000" fill-rule="nonzero" fill-opacity="1" /><path clip-path="url(#clip680)" d="M233.081 600.223 L233.081 594.367 L268.729 594.367 L268.729 600.223 L233.081 600.223 M219.203 600.223 L219.203 594.367 L226.619 594.367 L226.619 600.223 L219.203 600.223 Z" fill="#000000" fill-rule="nonzero" fill-opacity="1" /><path clip-path="url(#clip680)" d="M247.212 552.48 L268.729 552.48 L268.729 558.337 L247.403 558.337 Q242.343 558.337 239.828 560.31 Q237.314 562.284 237.314 566.23 Q237.314 570.973 240.338 573.71 Q243.361 576.447 248.581 576.447 L268.729 576.447 L268.729 582.336 L219.203 582.336 L219.203 576.447 L238.619 576.447 Q235.404 574.347 233.813 571.514 Q232.221 568.649 232.221 564.925 Q232.221 558.782 236.041 555.631 Q239.828 552.48 247.212 552.48 Z" fill="#000000" fill-rule="nonzero" fill-opacity="1" /><path clip-path="url(#clip680)" d="M237.186 526.986 Q237.186 531.696 240.879 534.434 Q244.539 537.171 250.936 537.171 Q257.334 537.171 261.026 534.465 Q264.686 531.728 264.686 526.986 Q264.686 522.307 260.994 519.57 Q257.302 516.832 250.936 516.832 Q244.603 516.832 240.91 519.57 Q237.186 522.307 237.186 526.986 M232.221 526.986 Q232.221 519.347 237.186 514.986 Q242.152 510.626 250.936 510.626 Q259.689 510.626 264.686 514.986 Q269.652 519.347 269.652 526.986 Q269.652 534.656 264.686 539.017 Q259.689 543.346 250.936 543.346 Q242.152 543.346 237.186 539.017 Q232.221 534.656 232.221 526.986 Z" fill="#000000" fill-rule="nonzero" fill-opacity="1" /><path clip-path="url(#clip680)" d="M237.186 487.105 Q237.186 491.815 240.879 494.552 Q244.539 497.29 250.936 497.29 Q257.334 497.29 261.026 494.584 Q264.686 491.847 264.686 487.105 Q264.686 482.426 260.994 479.689 Q257.302 476.951 250.936 476.951 Q244.603 476.951 240.91 479.689 Q237.186 482.426 237.186 487.105 M232.221 487.105 Q232.221 479.466 237.186 475.105 Q242.152 470.745 250.936 470.745 Q259.689 470.745 264.686 475.105 Q269.652 479.466 269.652 487.105 Q269.652 494.775 264.686 499.136 Q259.689 503.464 250.936 503.464 Q242.152 503.464 237.186 499.136 Q232.221 494.775 232.221 487.105 Z" fill="#000000" fill-rule="nonzero" fill-opacity="1" /><path clip-path="url(#clip680)" d="M238.491 437.579 L219.203 437.579 L219.203 431.723 L268.729 431.723 L268.729 437.579 L263.381 437.579 Q266.564 439.425 268.124 442.258 Q269.652 445.059 269.652 449.006 Q269.652 455.467 264.495 459.541 Q259.339 463.583 250.936 463.583 Q242.534 463.583 237.377 459.541 Q232.221 455.467 232.221 449.006 Q232.221 445.059 233.781 442.258 Q235.309 439.425 238.491 437.579 M250.936 457.536 Q257.398 457.536 261.09 454.894 Q264.75 452.221 264.75 447.574 Q264.75 442.927 261.09 440.253 Q257.398 437.579 250.936 437.579 Q244.475 437.579 240.815 440.253 Q237.123 442.927 237.123 447.574 Q237.123 452.221 240.815 454.894 Q244.475 457.536 250.936 457.536 Z" fill="#000000" fill-rule="nonzero" fill-opacity="1" /><path clip-path="url(#clip680)" d="M601.985 25.7069 L601.985 40.3162 L608.6 40.3162 Q612.272 40.3162 614.277 38.4152 Q616.282 36.5141 616.282 32.9985 Q616.282 29.509 614.277 27.6079 Q612.272 25.7069 608.6 25.7069 L601.985 25.7069 M596.725 21.384 L608.6 21.384 Q615.136 21.384 618.469 24.3527 Q621.829 27.2954 621.829 32.9985 Q621.829 38.7537 618.469 41.6964 Q615.136 44.6391 608.6 44.6391 L601.985 44.6391 L601.985 60.264 L596.725 60.264 L596.725 21.384 Z" fill="#000000" fill-rule="nonzero" fill-opacity="1" /><path clip-path="url(#clip680)" d="M627.506 31.0975 L632.298 31.0975 L632.298 60.264 L627.506 60.264 L627.506 31.0975 M627.506 19.7434 L632.298 19.7434 L632.298 25.8111 L627.506 25.8111 L627.506 19.7434 Z" fill="#000000" fill-rule="nonzero" fill-opacity="1" /><path clip-path="url(#clip680)" d="M646.959 55.889 L646.959 71.3577 L642.141 71.3577 L642.141 31.0975 L646.959 31.0975 L646.959 35.5245 Q648.469 32.9204 650.761 31.6704 Q653.079 30.3944 656.282 30.3944 Q661.594 30.3944 664.901 34.6131 Q668.235 38.8318 668.235 45.7068 Q668.235 52.5817 664.901 56.8005 Q661.594 61.0192 656.282 61.0192 Q653.079 61.0192 650.761 59.7692 Q648.469 58.4932 646.959 55.889 M663.261 45.7068 Q663.261 40.4204 661.073 37.4256 Q658.912 34.4048 655.11 34.4048 Q651.308 34.4048 649.12 37.4256 Q646.959 40.4204 646.959 45.7068 Q646.959 50.9932 649.12 54.014 Q651.308 57.0088 655.11 57.0088 Q658.912 57.0088 661.073 54.014 Q663.261 50.9932 663.261 45.7068 Z" fill="#000000" fill-rule="nonzero" fill-opacity="1" /><path clip-path="url(#clip680)" d="M701.125 44.4828 L701.125 46.8266 L679.094 46.8266 Q679.407 51.7745 682.063 54.3786 Q684.745 56.9567 689.511 56.9567 Q692.271 56.9567 694.849 56.2796 Q697.453 55.6026 700.005 54.2484 L700.005 58.7796 Q697.427 59.8734 694.719 60.4463 Q692.011 61.0192 689.224 61.0192 Q682.245 61.0192 678.157 56.9567 Q674.094 52.8942 674.094 45.9672 Q674.094 38.8058 677.948 34.6131 Q681.828 30.3944 688.391 30.3944 Q694.276 30.3944 697.688 34.1964 Q701.125 37.9725 701.125 44.4828 M696.334 43.0766 Q696.282 39.1443 694.12 36.8006 Q691.985 34.4568 688.443 34.4568 Q684.433 34.4568 682.011 36.7225 Q679.615 38.9881 679.25 43.1026 L696.334 43.0766 Z" fill="#000000" fill-rule="nonzero" fill-opacity="1" /><path clip-path="url(#clip680)" d="M708.99 19.7434 L713.781 19.7434 L713.781 60.264 L708.99 60.264 L708.99 19.7434 Z" fill="#000000" fill-rule="nonzero" fill-opacity="1" /><path clip-path="url(#clip680)" d="M723.807 31.0975 L728.599 31.0975 L728.599 60.264 L723.807 60.264 L723.807 31.0975 M723.807 19.7434 L728.599 19.7434 L728.599 25.8111 L723.807 25.8111 L723.807 19.7434 Z" fill="#000000" fill-rule="nonzero" fill-opacity="1" /><path clip-path="url(#clip680)" d="M762.87 42.6599 L762.87 60.264 L758.078 60.264 L758.078 42.8162 Q758.078 38.6756 756.464 36.6183 Q754.849 34.561 751.62 34.561 Q747.74 34.561 745.5 37.035 Q743.26 39.5089 743.26 43.7797 L743.26 60.264 L738.443 60.264 L738.443 31.0975 L743.26 31.0975 L743.26 35.6287 Q744.979 32.9985 747.297 31.6964 Q749.641 30.3944 752.687 30.3944 Q757.713 30.3944 760.292 33.5194 Q762.87 36.6183 762.87 42.6599 Z" fill="#000000" fill-rule="nonzero" fill-opacity="1" /><path clip-path="url(#clip680)" d="M797.375 44.4828 L797.375 46.8266 L775.344 46.8266 Q775.656 51.7745 778.312 54.3786 Q780.995 56.9567 785.76 56.9567 Q788.521 56.9567 791.099 56.2796 Q793.703 55.6026 796.255 54.2484 L796.255 58.7796 Q793.677 59.8734 790.969 60.4463 Q788.26 61.0192 785.474 61.0192 Q778.495 61.0192 774.406 56.9567 Q770.344 52.8942 770.344 45.9672 Q770.344 38.8058 774.198 34.6131 Q778.078 30.3944 784.64 30.3944 Q790.526 30.3944 793.937 34.1964 Q797.375 37.9725 797.375 44.4828 M792.583 43.0766 Q792.531 39.1443 790.37 36.8006 Q788.234 34.4568 784.693 34.4568 Q780.682 34.4568 778.26 36.7225 Q775.864 38.9881 775.5 43.1026 L792.583 43.0766 Z" fill="#000000" fill-rule="nonzero" fill-opacity="1" /><path clip-path="url(#clip680)" d="M835.395 26.5663 L828.26 45.9151 L842.557 45.9151 L835.395 26.5663 M832.427 21.384 L838.39 21.384 L853.208 60.264 L847.739 60.264 L844.197 50.2901 L826.671 50.2901 L823.13 60.264 L817.583 60.264 L832.427 21.384 Z" fill="#000000" fill-rule="nonzero" fill-opacity="1" /><path clip-path="url(#clip680)" d="M873.208 43.7797 L921.332 43.7797 L921.332 47.5297 L873.208 47.5297 L873.208 43.7797 Z" fill="#000000" fill-rule="nonzero" fill-opacity="1" /><path clip-path="url(#clip680)" d="M951.384 41.6964 L951.384 55.9411 L959.822 55.9411 Q964.067 55.9411 966.098 54.1963 Q968.155 52.4255 968.155 48.8057 Q968.155 45.1599 966.098 43.4412 Q964.067 41.6964 959.822 41.6964 L951.384 41.6964 M951.384 25.7069 L951.384 37.4256 L959.171 37.4256 Q963.025 37.4256 964.9 35.9933 Q966.801 34.535 966.801 31.5662 Q966.801 28.6235 964.9 27.1652 Q963.025 25.7069 959.171 25.7069 L951.384 25.7069 M946.124 21.384 L959.561 21.384 Q965.577 21.384 968.832 23.884 Q972.087 26.384 972.087 30.9933 Q972.087 34.561 970.421 36.6704 Q968.754 38.7797 965.525 39.3006 Q969.405 40.1339 971.54 42.7901 Q973.702 45.4203 973.702 49.3786 Q973.702 54.5869 970.16 57.4255 Q966.619 60.264 960.082 60.264 L946.124 60.264 L946.124 21.384 Z" fill="#000000" fill-rule="nonzero" fill-opacity="1" /><path clip-path="url(#clip680)" d="M995.759 45.6026 Q989.952 45.6026 987.712 46.9307 Q985.473 48.2589 985.473 51.462 Q985.473 54.014 987.139 55.5244 Q988.832 57.0088 991.723 57.0088 Q995.707 57.0088 998.103 54.1963 Q1000.52 51.3578 1000.52 46.6703 L1000.52 45.6026 L995.759 45.6026 M1005.32 43.6235 L1005.32 60.264 L1000.52 60.264 L1000.52 55.8369 Q998.884 58.4932 996.436 59.7692 Q993.988 61.0192 990.447 61.0192 Q985.967 61.0192 983.311 58.5192 Q980.681 55.9932 980.681 51.7745 Q980.681 46.8526 983.962 44.3526 Q987.27 41.8526 993.806 41.8526 L1000.52 41.8526 L1000.52 41.3839 Q1000.52 38.0766 998.337 36.2798 Q996.176 34.4568 992.243 34.4568 Q989.744 34.4568 987.374 35.0558 Q985.004 35.6548 982.816 36.8527 L982.816 32.4256 Q985.447 31.41 987.921 30.9152 Q990.395 30.3944 992.738 30.3944 Q999.066 30.3944 1002.19 33.6756 Q1005.32 36.9568 1005.32 43.6235 Z" fill="#000000" fill-rule="nonzero" fill-opacity="1" /><path clip-path="url(#clip680)" d="M1014.69 48.7536 L1014.69 31.0975 L1019.48 31.0975 L1019.48 48.5714 Q1019.48 52.712 1021.1 54.7953 Q1022.71 56.8526 1025.94 56.8526 Q1029.82 56.8526 1032.06 54.3786 Q1034.33 51.9047 1034.33 47.6339 L1034.33 31.0975 L1039.12 31.0975 L1039.12 60.264 L1034.33 60.264 L1034.33 55.7849 Q1032.58 58.4411 1030.26 59.7432 Q1027.97 61.0192 1024.93 61.0192 Q1019.9 61.0192 1017.3 57.8942 Q1014.69 54.7692 1014.69 48.7536 M1026.75 30.3944 L1026.75 30.3944 Z" fill="#000000" fill-rule="nonzero" fill-opacity="1" /><path clip-path="url(#clip680)" d="M1071.7 36.6964 Q1073.49 33.4673 1075.99 31.9308 Q1078.49 30.3944 1081.88 30.3944 Q1086.44 30.3944 1088.91 33.5975 Q1091.38 36.7745 1091.38 42.6599 L1091.38 60.264 L1086.57 60.264 L1086.57 42.8162 Q1086.57 38.6235 1085.08 36.5923 Q1083.6 34.561 1080.55 34.561 Q1076.83 34.561 1074.66 37.035 Q1072.5 39.5089 1072.5 43.7797 L1072.5 60.264 L1067.69 60.264 L1067.69 42.8162 Q1067.69 38.5974 1066.2 36.5923 Q1064.72 34.561 1061.62 34.561 Q1057.95 34.561 1055.78 37.061 Q1053.62 39.5349 1053.62 43.7797 L1053.62 60.264 L1048.81 60.264 L1048.81 31.0975 L1053.62 31.0975 L1053.62 35.6287 Q1055.26 32.9464 1057.56 31.6704 Q1059.85 30.3944 1063 30.3944 Q1066.18 30.3944 1068.39 32.0089 Q1070.63 33.6235 1071.7 36.6964 Z" fill="#000000" fill-rule="nonzero" fill-opacity="1" /><path clip-path="url(#clip680)" d="M1098.52 43.5193 L1112.56 43.5193 L1112.56 47.7901 L1098.52 47.7901 L1098.52 43.5193 Z" fill="#000000" fill-rule="nonzero" fill-opacity="1" /><path clip-path="url(#clip680)" d="M1114.77 21.384 L1120.08 21.384 L1128.26 54.2484 L1136.41 21.384 L1142.32 21.384 L1150.5 54.2484 L1158.65 21.384 L1163.99 21.384 L1154.22 60.264 L1147.61 60.264 L1139.4 26.5142 L1131.12 60.264 L1124.51 60.264 L1114.77 21.384 Z" fill="#000000" fill-rule="nonzero" fill-opacity="1" /><path clip-path="url(#clip680)" d="M1192.58 44.4828 L1192.58 46.8266 L1170.55 46.8266 Q1170.86 51.7745 1173.52 54.3786 Q1176.2 56.9567 1180.97 56.9567 Q1183.73 56.9567 1186.3 56.2796 Q1188.91 55.6026 1191.46 54.2484 L1191.46 58.7796 Q1188.88 59.8734 1186.17 60.4463 Q1183.47 61.0192 1180.68 61.0192 Q1173.7 61.0192 1169.61 56.9567 Q1165.55 52.8942 1165.55 45.9672 Q1165.55 38.8058 1169.4 34.6131 Q1173.28 30.3944 1179.85 30.3944 Q1185.73 30.3944 1189.14 34.1964 Q1192.58 37.9725 1192.58 44.4828 M1187.79 43.0766 Q1187.74 39.1443 1185.58 36.8006 Q1183.44 34.4568 1179.9 34.4568 Q1175.89 34.4568 1173.47 36.7225 Q1171.07 38.9881 1170.71 43.1026 L1187.79 43.0766 Z" fill="#000000" fill-rule="nonzero" fill-opacity="1" /><path clip-path="url(#clip680)" d="M1200.45 19.7434 L1205.24 19.7434 L1205.24 60.264 L1200.45 60.264 L1200.45 19.7434 Z" fill="#000000" fill-rule="nonzero" fill-opacity="1" /><path clip-path="url(#clip680)" d="M1236.25 32.2173 L1236.25 36.6964 Q1234.22 35.5766 1232.16 35.0298 Q1230.13 34.4568 1228.05 34.4568 Q1223.39 34.4568 1220.81 37.4256 Q1218.23 40.3683 1218.23 45.7068 Q1218.23 51.0453 1220.81 54.014 Q1223.39 56.9567 1228.05 56.9567 Q1230.13 56.9567 1232.16 56.4099 Q1234.22 55.8369 1236.25 54.7172 L1236.25 59.1442 Q1234.25 60.0817 1232.09 60.5505 Q1229.95 61.0192 1227.53 61.0192 Q1220.94 61.0192 1217.06 56.8786 Q1213.18 52.738 1213.18 45.7068 Q1213.18 38.5714 1217.09 34.4829 Q1221.02 30.3944 1227.84 30.3944 Q1230.05 30.3944 1232.16 30.8631 Q1234.27 31.3058 1236.25 32.2173 Z" fill="#000000" fill-rule="nonzero" fill-opacity="1" /><path clip-path="url(#clip680)" d="M1268.83 42.6599 L1268.83 60.264 L1264.04 60.264 L1264.04 42.8162 Q1264.04 38.6756 1262.42 36.6183 Q1260.81 34.561 1257.58 34.561 Q1253.7 34.561 1251.46 37.035 Q1249.22 39.5089 1249.22 43.7797 L1249.22 60.264 L1244.4 60.264 L1244.4 19.7434 L1249.22 19.7434 L1249.22 35.6287 Q1250.94 32.9985 1253.26 31.6964 Q1255.6 30.3944 1258.65 30.3944 Q1263.67 30.3944 1266.25 33.5194 Q1268.83 36.6183 1268.83 42.6599 Z" fill="#000000" fill-rule="nonzero" fill-opacity="1" /><path clip-path="url(#clip680)" d="M1316.33 32.2173 L1316.33 36.6964 Q1314.3 35.5766 1312.24 35.0298 Q1310.21 34.4568 1308.13 34.4568 Q1303.47 34.4568 1300.89 37.4256 Q1298.31 40.3683 1298.31 45.7068 Q1298.31 51.0453 1300.89 54.014 Q1303.47 56.9567 1308.13 56.9567 Q1310.21 56.9567 1312.24 56.4099 Q1314.3 55.8369 1316.33 54.7172 L1316.33 59.1442 Q1314.33 60.0817 1312.16 60.5505 Q1310.03 61.0192 1307.61 61.0192 Q1301.02 61.0192 1297.14 56.8786 Q1293.26 52.738 1293.26 45.7068 Q1293.26 38.5714 1297.16 34.4829 Q1301.1 30.3944 1307.92 30.3944 Q1310.13 30.3944 1312.24 30.8631 Q1314.35 31.3058 1316.33 32.2173 Z" fill="#000000" fill-rule="nonzero" fill-opacity="1" /><path clip-path="url(#clip680)" d="M1335.97 34.4568 Q1332.11 34.4568 1329.87 37.4777 Q1327.63 40.4724 1327.63 45.7068 Q1327.63 50.9411 1329.85 53.962 Q1332.09 56.9567 1335.97 56.9567 Q1339.79 56.9567 1342.03 53.9359 Q1344.27 50.9151 1344.27 45.7068 Q1344.27 40.5245 1342.03 37.5037 Q1339.79 34.4568 1335.97 34.4568 M1335.97 30.3944 Q1342.22 30.3944 1345.78 34.4568 Q1349.35 38.5193 1349.35 45.7068 Q1349.35 52.8682 1345.78 56.9567 Q1342.22 61.0192 1335.97 61.0192 Q1329.69 61.0192 1326.12 56.9567 Q1322.58 52.8682 1322.58 45.7068 Q1322.58 38.5193 1326.12 34.4568 Q1329.69 30.3944 1335.97 30.3944 Z" fill="#000000" fill-rule="nonzero" fill-opacity="1" /><path clip-path="url(#clip680)" d="M1381.54 42.6599 L1381.54 60.264 L1376.75 60.264 L1376.75 42.8162 Q1376.75 38.6756 1375.13 36.6183 Q1373.52 34.561 1370.29 34.561 Q1366.41 34.561 1364.17 37.035 Q1361.93 39.5089 1361.93 43.7797 L1361.93 60.264 L1357.11 60.264 L1357.11 31.0975 L1361.93 31.0975 L1361.93 35.6287 Q1363.65 32.9985 1365.97 31.6964 Q1368.31 30.3944 1371.36 30.3944 Q1376.38 30.3944 1378.96 33.5194 Q1381.54 36.6183 1381.54 42.6599 Z" fill="#000000" fill-rule="nonzero" fill-opacity="1" /><path clip-path="url(#clip680)" d="M1387.66 31.0975 L1392.74 31.0975 L1401.85 55.5765 L1410.97 31.0975 L1416.04 31.0975 L1405.11 60.264 L1398.6 60.264 L1387.66 31.0975 Z" fill="#000000" fill-rule="nonzero" fill-opacity="1" /><path clip-path="url(#clip680)" d="M1447.61 44.4828 L1447.61 46.8266 L1425.57 46.8266 Q1425.89 51.7745 1428.54 54.3786 Q1431.23 56.9567 1435.99 56.9567 Q1438.75 56.9567 1441.33 56.2796 Q1443.93 55.6026 1446.49 54.2484 L1446.49 58.7796 Q1443.91 59.8734 1441.2 60.4463 Q1438.49 61.0192 1435.7 61.0192 Q1428.73 61.0192 1424.64 56.9567 Q1420.57 52.8942 1420.57 45.9672 Q1420.57 38.8058 1424.43 34.6131 Q1428.31 30.3944 1434.87 30.3944 Q1440.76 30.3944 1444.17 34.1964 Q1447.61 37.9725 1447.61 44.4828 M1442.81 43.0766 Q1442.76 39.1443 1440.6 36.8006 Q1438.47 34.4568 1434.92 34.4568 Q1430.91 34.4568 1428.49 36.7225 Q1426.1 38.9881 1425.73 43.1026 L1442.81 43.0766 Z" fill="#000000" fill-rule="nonzero" fill-opacity="1" /><path clip-path="url(#clip680)" d="M1472.37 35.5766 Q1471.56 35.1079 1470.6 34.8996 Q1469.66 34.6652 1468.52 34.6652 Q1464.45 34.6652 1462.27 37.3214 Q1460.11 39.9516 1460.11 44.8995 L1460.11 60.264 L1455.29 60.264 L1455.29 31.0975 L1460.11 31.0975 L1460.11 35.6287 Q1461.62 32.9725 1464.04 31.6964 Q1466.46 30.3944 1469.92 30.3944 Q1470.42 30.3944 1471.02 30.4725 Q1471.62 30.5246 1472.35 30.6548 L1472.37 35.5766 Z" fill="#000000" fill-rule="nonzero" fill-opacity="1" /><path clip-path="url(#clip680)" d="M1495.65 45.3422 Q1495.65 40.1339 1493.49 37.2693 Q1491.36 34.4048 1487.48 34.4048 Q1483.62 34.4048 1481.46 37.2693 Q1479.32 40.1339 1479.32 45.3422 Q1479.32 50.5245 1481.46 53.389 Q1483.62 56.2536 1487.48 56.2536 Q1491.36 56.2536 1493.49 53.389 Q1495.65 50.5245 1495.65 45.3422 M1500.44 56.6442 Q1500.44 64.0921 1497.14 67.7119 Q1493.83 71.3577 1487.01 71.3577 Q1484.48 71.3577 1482.24 70.9671 Q1480 70.6025 1477.89 69.8212 L1477.89 65.1598 Q1480 66.3056 1482.06 66.8525 Q1484.12 67.3994 1486.25 67.3994 Q1490.96 67.3994 1493.31 64.9254 Q1495.65 62.4775 1495.65 57.5036 L1495.65 55.1338 Q1494.17 57.7119 1491.85 58.988 Q1489.53 60.264 1486.3 60.264 Q1480.94 60.264 1477.66 56.1755 Q1474.38 52.087 1474.38 45.3422 Q1474.38 38.5714 1477.66 34.4829 Q1480.94 30.3944 1486.3 30.3944 Q1489.53 30.3944 1491.85 31.6704 Q1494.17 32.9464 1495.65 35.5245 L1495.65 31.0975 L1500.44 31.0975 L1500.44 56.6442 Z" fill="#000000" fill-rule="nonzero" fill-opacity="1" /><path clip-path="url(#clip680)" d="M1535.26 44.4828 L1535.26 46.8266 L1513.23 46.8266 Q1513.54 51.7745 1516.2 54.3786 Q1518.88 56.9567 1523.65 56.9567 Q1526.41 56.9567 1528.99 56.2796 Q1531.59 55.6026 1534.14 54.2484 L1534.14 58.7796 Q1531.56 59.8734 1528.86 60.4463 Q1526.15 61.0192 1523.36 61.0192 Q1516.38 61.0192 1512.29 56.9567 Q1508.23 52.8942 1508.23 45.9672 Q1508.23 38.8058 1512.08 34.6131 Q1515.96 30.3944 1522.53 30.3944 Q1528.41 30.3944 1531.82 34.1964 Q1535.26 37.9725 1535.26 44.4828 M1530.47 43.0766 Q1530.42 39.1443 1528.26 36.8006 Q1526.12 34.4568 1522.58 34.4568 Q1518.57 34.4568 1516.15 36.7225 Q1513.75 38.9881 1513.39 43.1026 L1530.47 43.0766 Z" fill="#000000" fill-rule="nonzero" fill-opacity="1" /><path clip-path="url(#clip680)" d="M1567.37 42.6599 L1567.37 60.264 L1562.58 60.264 L1562.58 42.8162 Q1562.58 38.6756 1560.96 36.6183 Q1559.35 34.561 1556.12 34.561 Q1552.24 34.561 1550 37.035 Q1547.76 39.5089 1547.76 43.7797 L1547.76 60.264 L1542.94 60.264 L1542.94 31.0975 L1547.76 31.0975 L1547.76 35.6287 Q1549.48 32.9985 1551.8 31.6964 Q1554.14 30.3944 1557.19 30.3944 Q1562.21 30.3944 1564.79 33.5194 Q1567.37 36.6183 1567.37 42.6599 Z" fill="#000000" fill-rule="nonzero" fill-opacity="1" /><path clip-path="url(#clip680)" d="M1597.92 32.2173 L1597.92 36.6964 Q1595.89 35.5766 1593.83 35.0298 Q1591.8 34.4568 1589.71 34.4568 Q1585.05 34.4568 1582.47 37.4256 Q1579.9 40.3683 1579.9 45.7068 Q1579.9 51.0453 1582.47 54.014 Q1585.05 56.9567 1589.71 56.9567 Q1591.8 56.9567 1593.83 56.4099 Q1595.89 55.8369 1597.92 54.7172 L1597.92 59.1442 Q1595.91 60.0817 1593.75 60.5505 Q1591.62 61.0192 1589.19 61.0192 Q1582.6 61.0192 1578.72 56.8786 Q1574.84 52.738 1574.84 45.7068 Q1574.84 38.5714 1578.75 34.4829 Q1582.68 30.3944 1589.51 30.3944 Q1591.72 30.3944 1593.83 30.8631 Q1595.94 31.3058 1597.92 32.2173 Z" fill="#000000" fill-rule="nonzero" fill-opacity="1" /><path clip-path="url(#clip680)" d="M1631.2 44.4828 L1631.2 46.8266 L1609.17 46.8266 Q1609.48 51.7745 1612.14 54.3786 Q1614.82 56.9567 1619.58 56.9567 Q1622.34 56.9567 1624.92 56.2796 Q1627.53 55.6026 1630.08 54.2484 L1630.08 58.7796 Q1627.5 59.8734 1624.79 60.4463 Q1622.08 61.0192 1619.3 61.0192 Q1612.32 61.0192 1608.23 56.9567 Q1604.17 52.8942 1604.17 45.9672 Q1604.17 38.8058 1608.02 34.6131 Q1611.9 30.3944 1618.46 30.3944 Q1624.35 30.3944 1627.76 34.1964 Q1631.2 37.9725 1631.2 44.4828 M1626.41 43.0766 Q1626.35 39.1443 1624.19 36.8006 Q1622.06 34.4568 1618.52 34.4568 Q1614.51 34.4568 1612.08 36.7225 Q1609.69 38.9881 1609.32 43.1026 L1626.41 43.0766 Z" fill="#000000" fill-rule="nonzero" fill-opacity="1" /><path clip-path="url(#clip680)" d="M1662.19 19.509 L1662.19 72.8421 L1657.76 72.8421 L1657.76 19.509 L1662.19 19.509 Z" fill="#000000" fill-rule="nonzero" fill-opacity="1" /><path clip-path="url(#clip680)" d="M1714.45 22.66 L1714.45 27.7902 Q1711.46 26.3579 1708.8 25.6548 Q1706.15 24.9517 1703.67 24.9517 Q1699.38 24.9517 1697.03 26.6183 Q1694.71 28.285 1694.71 31.3579 Q1694.71 33.936 1696.25 35.2641 Q1697.81 36.5662 1702.14 37.3735 L1705.31 38.0245 Q1711.2 39.1443 1713.98 41.9828 Q1716.8 44.7953 1716.8 49.5349 Q1716.8 55.1859 1712.99 58.1026 Q1709.22 61.0192 1701.9 61.0192 Q1699.14 61.0192 1696.02 60.3942 Q1692.92 59.7692 1689.58 58.5453 L1689.58 53.1286 Q1692.79 54.9255 1695.86 55.8369 Q1698.93 56.7484 1701.9 56.7484 Q1706.41 56.7484 1708.85 54.9776 Q1711.3 53.2067 1711.3 49.9255 Q1711.3 47.0609 1709.53 45.4464 Q1707.79 43.8318 1703.78 43.0245 L1700.57 42.3995 Q1694.69 41.2276 1692.06 38.7277 Q1689.43 36.2277 1689.43 31.7746 Q1689.43 26.6183 1693.05 23.6496 Q1696.69 20.6809 1703.07 20.6809 Q1705.81 20.6809 1708.65 21.1757 Q1711.48 21.6705 1714.45 22.66 Z" fill="#000000" fill-rule="nonzero" fill-opacity="1" /><path clip-path="url(#clip680)" d="M1730.26 25.7069 L1730.26 40.3162 L1736.87 40.3162 Q1740.55 40.3162 1742.55 38.4152 Q1744.56 36.5141 1744.56 32.9985 Q1744.56 29.509 1742.55 27.6079 Q1740.55 25.7069 1736.87 25.7069 L1730.26 25.7069 M1725 21.384 L1736.87 21.384 Q1743.41 21.384 1746.74 24.3527 Q1750.1 27.2954 1750.1 32.9985 Q1750.1 38.7537 1746.74 41.6964 Q1743.41 44.6391 1736.87 44.6391 L1730.26 44.6391 L1730.26 60.264 L1725 60.264 L1725 21.384 Z" fill="#000000" fill-rule="nonzero" fill-opacity="1" /><path clip-path="url(#clip680)" d="M1750.65 21.384 L1756.3 21.384 L1767.08 37.3735 L1777.79 21.384 L1783.44 21.384 L1769.69 41.7485 L1769.69 60.264 L1764.4 60.264 L1764.4 41.7485 L1750.65 21.384 Z" fill="#000000" fill-rule="nonzero" fill-opacity="1" /><path clip-path="url(#clip680)" d="M1811.48 19.509 L1811.48 72.8421 L1807.06 72.8421 L1807.06 19.509 L1811.48 19.509 Z" fill="#000000" fill-rule="nonzero" fill-opacity="1" /><path clip-path="url(#clip680)" d="M1869.56 24.3788 L1869.56 29.9256 Q1866.9 27.4517 1863.88 26.2277 Q1860.88 25.0038 1857.5 25.0038 Q1850.83 25.0038 1847.29 29.0923 Q1843.75 33.1548 1843.75 40.8631 Q1843.75 48.5453 1847.29 52.6338 Q1850.83 56.6963 1857.5 56.6963 Q1860.88 56.6963 1863.88 55.4724 Q1866.9 54.2484 1869.56 51.7745 L1869.56 57.2692 Q1866.8 59.1442 1863.7 60.0817 Q1860.62 61.0192 1857.19 61.0192 Q1848.36 61.0192 1843.28 55.6286 Q1838.2 50.212 1838.2 40.8631 Q1838.2 31.4881 1843.28 26.0975 Q1848.36 20.6809 1857.19 20.6809 Q1860.68 20.6809 1863.75 21.6184 Q1866.85 22.5298 1869.56 24.3788 Z" fill="#000000" fill-rule="nonzero" fill-opacity="1" /><path clip-path="url(#clip680)" d="M1877.68 21.384 L1882.94 21.384 L1882.94 37.3214 L1902.06 37.3214 L1902.06 21.384 L1907.32 21.384 L1907.32 60.264 L1902.06 60.264 L1902.06 41.7485 L1882.94 41.7485 L1882.94 60.264 L1877.68 60.264 L1877.68 21.384 Z" fill="#000000" fill-rule="nonzero" fill-opacity="1" /><path clip-path="url(#clip680)" d="M1917.79 21.384 L1925.62 21.384 L1935.55 47.8422 L1945.52 21.384 L1953.36 21.384 L1953.36 60.264 L1948.23 60.264 L1948.23 26.1236 L1938.2 52.7901 L1932.92 52.7901 L1922.89 26.1236 L1922.89 60.264 L1917.79 60.264 L1917.79 21.384 Z" fill="#000000" fill-rule="nonzero" fill-opacity="1" /><path clip-path="url(#clip680)" d="M1963.8 21.384 L1971.64 21.384 L1981.56 47.8422 L1991.54 21.384 L1999.37 21.384 L1999.37 60.264 L1994.24 60.264 L1994.24 26.1236 L1984.22 52.7901 L1978.93 52.7901 L1968.9 26.1236 L1968.9 60.264 L1963.8 60.264 L1963.8 21.384 Z" fill="#000000" fill-rule="nonzero" fill-opacity="1" /><path clip-path="url(#clip680)" d="M2007.19 43.5193 L2021.22 43.5193 L2021.22 47.7901 L2007.19 47.7901 L2007.19 43.5193 Z" fill="#000000" fill-rule="nonzero" fill-opacity="1" /><path clip-path="url(#clip680)" d="M2033.59 22.8163 L2033.59 31.0975 L2043.46 31.0975 L2043.46 34.8214 L2033.59 34.8214 L2033.59 50.6547 Q2033.59 54.2224 2034.56 55.238 Q2035.55 56.2536 2038.54 56.2536 L2043.46 56.2536 L2043.46 60.264 L2038.54 60.264 Q2032.99 60.264 2030.88 58.2067 Q2028.77 56.1234 2028.77 50.6547 L2028.77 34.8214 L2025.26 34.8214 L2025.26 31.0975 L2028.77 31.0975 L2028.77 22.8163 L2033.59 22.8163 Z" fill="#000000" fill-rule="nonzero" fill-opacity="1" /><path clip-path="url(#clip680)" d="M2050.99 53.6495 L2056.48 53.6495 L2056.48 58.1286 L2052.21 66.4619 L2048.85 66.4619 L2050.99 58.1286 L2050.99 53.6495 Z" fill="#000000" fill-rule="nonzero" fill-opacity="1" /><path clip-path="url(#clip680)" d="M2083.88 21.384 L2089.14 21.384 L2089.14 37.8162 L2106.59 21.384 L2113.36 21.384 L2094.06 39.5089 L2114.74 60.264 L2107.81 60.264 L2089.14 41.5401 L2089.14 60.264 L2083.88 60.264 L2083.88 21.384 Z" fill="#000000" fill-rule="nonzero" fill-opacity="1" /><path clip-path="url(#clip680)" d="M2119.27 36.0454 L2152.65 36.0454 L2152.65 40.4204 L2119.27 40.4204 L2119.27 36.0454 M2119.27 46.6703 L2152.65 46.6703 L2152.65 51.0974 L2119.27 51.0974 L2119.27 46.6703 Z" fill="#000000" fill-rule="nonzero" fill-opacity="1" /><path clip-path="url(#clip680)" d="M2164.92 55.8369 L2173.51 55.8369 L2173.51 26.1756 L2164.16 28.0506 L2164.16 23.259 L2173.46 21.384 L2178.72 21.384 L2178.72 55.8369 L2187.32 55.8369 L2187.32 60.264 L2164.92 60.264 L2164.92 55.8369 Z" fill="#000000" fill-rule="nonzero" fill-opacity="1" /><path clip-path="url(#clip680)" d="M2209.19 41.8006 Q2205.44 41.8006 2203.28 43.8058 Q2201.14 45.811 2201.14 49.3266 Q2201.14 52.8422 2203.28 54.8474 Q2205.44 56.8526 2209.19 56.8526 Q2212.94 56.8526 2215.1 54.8474 Q2217.26 52.8161 2217.26 49.3266 Q2217.26 45.811 2215.1 43.8058 Q2212.97 41.8006 2209.19 41.8006 M2203.93 39.561 Q2200.54 38.7277 2198.64 36.41 Q2196.77 34.0923 2196.77 30.7589 Q2196.77 26.0975 2200.08 23.3892 Q2203.41 20.6809 2209.19 20.6809 Q2215 20.6809 2218.3 23.3892 Q2221.61 26.0975 2221.61 30.7589 Q2221.61 34.0923 2219.71 36.41 Q2217.84 38.7277 2214.48 39.561 Q2218.28 40.4464 2220.39 43.0245 Q2222.52 45.6026 2222.52 49.3266 Q2222.52 54.9776 2219.06 57.9984 Q2215.62 61.0192 2209.19 61.0192 Q2202.76 61.0192 2199.29 57.9984 Q2195.86 54.9776 2195.86 49.3266 Q2195.86 45.6026 2197.99 43.0245 Q2200.13 40.4464 2203.93 39.561 M2202 31.2537 Q2202 34.2746 2203.88 35.9673 Q2205.78 37.66 2209.19 37.66 Q2212.58 37.66 2214.48 35.9673 Q2216.4 34.2746 2216.4 31.2537 Q2216.4 28.2329 2214.48 26.5402 Q2212.58 24.8475 2209.19 24.8475 Q2205.78 24.8475 2203.88 26.5402 Q2202 28.2329 2202 31.2537 Z" fill="#000000" fill-rule="nonzero" fill-opacity="1" /><path clip-path="url(#clip680)" d="M978.298 79.704 L1011.19 79.704 L1011.19 84.1311 L997.387 84.1311 L997.387 118.584 L992.1 118.584 L992.1 84.1311 L978.298 84.1311 L978.298 79.704 Z" fill="#000000" fill-rule="nonzero" fill-opacity="1" /><path clip-path="url(#clip680)" d="M1038.22 127.438 L1038.22 131.162 L1010.51 131.162 L1010.51 127.438 L1038.22 127.438 Z" fill="#000000" fill-rule="nonzero" fill-opacity="1" /><path clip-path="url(#clip680)" d="M1042.93 79.704 L1048.19 79.704 L1048.19 118.584 L1042.93 118.584 L1042.93 79.704 Z" fill="#000000" fill-rule="nonzero" fill-opacity="1" /><path clip-path="url(#clip680)" d="M1081.97 80.98 L1081.97 86.1102 Q1078.97 84.6779 1076.32 83.9748 Q1073.66 83.2717 1071.19 83.2717 Q1066.89 83.2717 1064.55 84.9383 Q1062.23 86.605 1062.23 89.6779 Q1062.23 92.256 1063.77 93.5841 Q1065.33 94.8862 1069.65 95.6935 L1072.83 96.3445 Q1078.71 97.4643 1081.5 100.303 Q1084.31 103.115 1084.31 107.855 Q1084.31 113.506 1080.51 116.423 Q1076.74 119.339 1069.42 119.339 Q1066.66 119.339 1063.53 118.714 Q1060.43 118.089 1057.1 116.865 L1057.1 111.449 Q1060.3 113.245 1063.38 114.157 Q1066.45 115.068 1069.42 115.068 Q1073.92 115.068 1076.37 113.298 Q1078.82 111.527 1078.82 108.246 Q1078.82 105.381 1077.05 103.766 Q1075.3 102.152 1071.29 101.345 L1068.09 100.72 Q1062.2 99.5476 1059.57 97.0477 Q1056.94 94.5477 1056.94 90.0946 Q1056.94 84.9383 1060.56 81.9696 Q1064.21 79.0009 1070.59 79.0009 Q1073.32 79.0009 1076.16 79.4957 Q1079 79.9905 1081.97 80.98 Z" fill="#000000" fill-rule="nonzero" fill-opacity="1" /><path clip-path="url(#clip680)" d="M1109.89 94.3654 L1143.27 94.3654 L1143.27 98.7404 L1109.89 98.7404 L1109.89 94.3654 M1109.89 104.99 L1143.27 104.99 L1143.27 109.417 L1109.89 109.417 L1109.89 104.99 Z" fill="#000000" fill-rule="nonzero" fill-opacity="1" /><path clip-path="url(#clip680)" d="M1176.11 114.157 L1194.47 114.157 L1194.47 118.584 L1169.78 118.584 L1169.78 114.157 Q1172.78 111.058 1177.93 105.85 Q1183.11 100.615 1184.44 99.1049 Q1186.97 96.2664 1187.96 94.3133 Q1188.97 92.3341 1188.97 90.4331 Q1188.97 87.3342 1186.79 85.3811 Q1184.63 83.4279 1181.14 83.4279 Q1178.66 83.4279 1175.9 84.2873 Q1173.17 85.1467 1170.04 86.8915 L1170.04 81.579 Q1173.22 80.303 1175.98 79.6519 Q1178.74 79.0009 1181.03 79.0009 Q1187.07 79.0009 1190.67 82.0217 Q1194.26 85.0425 1194.26 90.0946 Q1194.26 92.4904 1193.35 94.6518 Q1192.46 96.7872 1190.09 99.7039 Q1189.44 100.459 1185.95 104.079 Q1182.46 107.673 1176.11 114.157 Z" fill="#000000" fill-rule="nonzero" fill-opacity="1" /><path clip-path="url(#clip680)" d="M1205.56 79.704 L1226.21 79.704 L1226.21 84.1311 L1210.38 84.1311 L1210.38 93.6623 Q1211.53 93.2716 1212.67 93.0893 Q1213.82 92.881 1214.96 92.881 Q1221.47 92.881 1225.28 96.4487 Q1229.08 100.016 1229.08 106.11 Q1229.08 112.386 1225.17 115.876 Q1221.27 119.339 1214.16 119.339 Q1211.71 119.339 1209.16 118.923 Q1206.63 118.506 1203.92 117.673 L1203.92 112.386 Q1206.27 113.662 1208.77 114.287 Q1211.27 114.912 1214.05 114.912 Q1218.56 114.912 1221.19 112.542 Q1223.82 110.173 1223.82 106.11 Q1223.82 102.048 1221.19 99.6779 Q1218.56 97.3081 1214.05 97.3081 Q1211.94 97.3081 1209.83 97.7768 Q1207.75 98.2456 1205.56 99.2351 L1205.56 79.704 Z" fill="#000000" fill-rule="nonzero" fill-opacity="1" /><path clip-path="url(#clip680)" d="M1240.35 114.157 L1248.95 114.157 L1248.95 84.4956 L1239.6 86.3706 L1239.6 81.579 L1248.9 79.704 L1254.16 79.704 L1254.16 114.157 L1262.75 114.157 L1262.75 118.584 L1240.35 118.584 L1240.35 114.157 Z" fill="#000000" fill-rule="nonzero" fill-opacity="1" /><path clip-path="url(#clip680)" d="M1285.28 97.0477 Q1281.73 97.0477 1279.65 99.4695 Q1277.59 101.891 1277.59 106.11 Q1277.59 110.303 1279.65 112.751 Q1281.73 115.173 1285.28 115.173 Q1288.82 115.173 1290.87 112.751 Q1292.96 110.303 1292.96 106.11 Q1292.96 101.891 1290.87 99.4695 Q1288.82 97.0477 1285.28 97.0477 M1295.72 80.5634 L1295.72 85.355 Q1293.74 84.4175 1291.71 83.9227 Q1289.7 83.4279 1287.72 83.4279 Q1282.52 83.4279 1279.75 86.9435 Q1277.02 90.4592 1276.63 97.5685 Q1278.17 95.3029 1280.48 94.105 Q1282.8 92.881 1285.59 92.881 Q1291.45 92.881 1294.83 96.4487 Q1298.24 99.9903 1298.24 106.11 Q1298.24 112.1 1294.7 115.719 Q1291.16 119.339 1285.28 119.339 Q1278.53 119.339 1274.96 114.183 Q1271.4 109.001 1271.4 99.1831 Q1271.4 89.9644 1275.77 84.4956 Q1280.15 79.0009 1287.52 79.0009 Q1289.49 79.0009 1291.5 79.3915 Q1293.53 79.7821 1295.72 80.5634 Z" fill="#000000" fill-rule="nonzero" fill-opacity="1" /><path clip-path="url(#clip680)" d="M1334.88 92.7768 Q1331.03 92.7768 1328.79 95.7977 Q1326.55 98.7924 1326.55 104.027 Q1326.55 109.261 1328.77 112.282 Q1331 115.277 1334.88 115.277 Q1338.71 115.277 1340.95 112.256 Q1343.19 109.235 1343.19 104.027 Q1343.19 98.8445 1340.95 95.8237 Q1338.71 92.7768 1334.88 92.7768 M1334.88 88.7144 Q1341.13 88.7144 1344.7 92.7768 Q1348.27 96.8393 1348.27 104.027 Q1348.27 111.188 1344.7 115.277 Q1341.13 119.339 1334.88 119.339 Q1328.61 119.339 1325.04 115.277 Q1321.5 111.188 1321.5 104.027 Q1321.5 96.8393 1325.04 92.7768 Q1328.61 88.7144 1334.88 88.7144 Z" fill="#000000" fill-rule="nonzero" fill-opacity="1" /><path clip-path="url(#clip680)" d="M1377.15 104.027 Q1377.15 98.7404 1374.96 95.7456 Q1372.8 92.7248 1369 92.7248 Q1365.2 92.7248 1363.01 95.7456 Q1360.85 98.7404 1360.85 104.027 Q1360.85 109.313 1363.01 112.334 Q1365.2 115.329 1369 115.329 Q1372.8 115.329 1374.96 112.334 Q1377.15 109.313 1377.15 104.027 M1360.85 93.8445 Q1362.36 91.2404 1364.65 89.9904 Q1366.97 88.7144 1370.17 88.7144 Q1375.48 88.7144 1378.79 92.9331 Q1382.12 97.1518 1382.12 104.027 Q1382.12 110.902 1378.79 115.12 Q1375.48 119.339 1370.17 119.339 Q1366.97 119.339 1364.65 118.089 Q1362.36 116.813 1360.85 114.209 L1360.85 118.584 L1356.03 118.584 L1356.03 78.0634 L1360.85 78.0634 L1360.85 93.8445 Z" fill="#000000" fill-rule="nonzero" fill-opacity="1" /><path clip-path="url(#clip680)" d="M1408.66 90.2769 L1408.66 94.8081 Q1406.63 93.7664 1404.44 93.2456 Q1402.25 92.7248 1399.91 92.7248 Q1396.34 92.7248 1394.55 93.8185 Q1392.78 94.9123 1392.78 97.0997 Q1392.78 98.7664 1394.05 99.7299 Q1395.33 100.667 1399.18 101.527 L1400.82 101.891 Q1405.93 102.985 1408.06 104.99 Q1410.22 106.969 1410.22 110.537 Q1410.22 114.6 1406.99 116.969 Q1403.79 119.339 1398.17 119.339 Q1395.82 119.339 1393.27 118.87 Q1390.74 118.428 1387.93 117.516 L1387.93 112.568 Q1390.59 113.949 1393.17 114.652 Q1395.74 115.329 1398.27 115.329 Q1401.66 115.329 1403.48 114.183 Q1405.3 113.011 1405.3 110.902 Q1405.3 108.949 1403.97 107.907 Q1402.67 106.865 1398.22 105.902 L1396.55 105.511 Q1392.1 104.574 1390.12 102.647 Q1388.14 100.693 1388.14 97.3081 Q1388.14 93.1935 1391.06 90.9539 Q1393.97 88.7144 1399.34 88.7144 Q1401.99 88.7144 1404.34 89.105 Q1406.68 89.4956 1408.66 90.2769 Z" fill="#000000" fill-rule="nonzero" fill-opacity="1" /><path clip-path="url(#clip680)" d="M1440.98 77.829 L1440.98 131.162 L1436.55 131.162 L1436.55 77.829 L1440.98 77.829 Z" fill="#000000" fill-rule="nonzero" fill-opacity="1" /><path clip-path="url(#clip680)" d="M1492.44 95.0164 Q1494.23 91.7873 1496.73 90.2508 Q1499.23 88.7144 1502.62 88.7144 Q1507.18 88.7144 1509.65 91.9175 Q1512.12 95.0945 1512.12 100.98 L1512.12 118.584 L1507.31 118.584 L1507.31 101.136 Q1507.31 96.9435 1505.82 94.9123 Q1504.34 92.881 1501.29 92.881 Q1497.57 92.881 1495.4 95.355 Q1493.24 97.8289 1493.24 102.1 L1493.24 118.584 L1488.43 118.584 L1488.43 101.136 Q1488.43 96.9174 1486.94 94.9123 Q1485.46 92.881 1482.36 92.881 Q1478.69 92.881 1476.52 95.381 Q1474.36 97.8549 1474.36 102.1 L1474.36 118.584 L1469.55 118.584 L1469.55 89.4175 L1474.36 89.4175 L1474.36 93.9487 Q1476 91.2664 1478.3 89.9904 Q1480.59 88.7144 1483.74 88.7144 Q1486.92 88.7144 1489.13 90.3289 Q1491.37 91.9435 1492.44 95.0164 Z" fill="#000000" fill-rule="nonzero" fill-opacity="1" /><path clip-path="url(#clip680)" d="M1534.94 103.923 Q1529.13 103.923 1526.89 105.251 Q1524.65 106.579 1524.65 109.782 Q1524.65 112.334 1526.32 113.844 Q1528.01 115.329 1530.9 115.329 Q1534.88 115.329 1537.28 112.516 Q1539.7 109.678 1539.7 104.99 L1539.7 103.923 L1534.94 103.923 M1544.49 101.943 L1544.49 118.584 L1539.7 118.584 L1539.7 114.157 Q1538.06 116.813 1535.61 118.089 Q1533.17 119.339 1529.62 119.339 Q1525.14 119.339 1522.49 116.839 Q1519.86 114.313 1519.86 110.094 Q1519.86 105.173 1523.14 102.673 Q1526.45 100.173 1532.98 100.173 L1539.7 100.173 L1539.7 99.7039 Q1539.7 96.3966 1537.51 94.5998 Q1535.35 92.7768 1531.42 92.7768 Q1528.92 92.7768 1526.55 93.3758 Q1524.18 93.9748 1521.99 95.1727 L1521.99 90.7456 Q1524.62 89.73 1527.1 89.2352 Q1529.57 88.7144 1531.92 88.7144 Q1538.24 88.7144 1541.37 91.9956 Q1544.49 95.2768 1544.49 101.943 Z" fill="#000000" fill-rule="nonzero" fill-opacity="1" /><path clip-path="url(#clip680)" d="M1578.61 89.4175 L1568.06 103.61 L1579.15 118.584 L1573.5 118.584 L1565.01 107.126 L1556.52 118.584 L1550.87 118.584 L1562.2 103.324 L1551.84 89.4175 L1557.49 89.4175 L1565.22 99.8081 L1572.96 89.4175 L1578.61 89.4175 Z" fill="#000000" fill-rule="nonzero" fill-opacity="1" /><path clip-path="url(#clip680)" d="M1608.09 127.438 L1608.09 131.162 L1580.38 131.162 L1580.38 127.438 L1608.09 127.438 Z" fill="#000000" fill-rule="nonzero" fill-opacity="1" /><path clip-path="url(#clip680)" d="M1612.59 89.4175 L1617.38 89.4175 L1617.38 118.584 L1612.59 118.584 L1612.59 89.4175 M1612.59 78.0634 L1617.38 78.0634 L1617.38 84.1311 L1612.59 84.1311 L1612.59 78.0634 Z" fill="#000000" fill-rule="nonzero" fill-opacity="1" /><path clip-path="url(#clip680)" d="M1632.15 81.1363 L1632.15 89.4175 L1642.02 89.4175 L1642.02 93.1414 L1632.15 93.1414 L1632.15 108.975 Q1632.15 112.542 1633.11 113.558 Q1634.1 114.574 1637.1 114.574 L1642.02 114.574 L1642.02 118.584 L1637.1 118.584 Q1631.55 118.584 1629.44 116.527 Q1627.33 114.443 1627.33 108.975 L1627.33 93.1414 L1623.82 93.1414 L1623.82 89.4175 L1627.33 89.4175 L1627.33 81.1363 L1632.15 81.1363 Z" fill="#000000" fill-rule="nonzero" fill-opacity="1" /><path clip-path="url(#clip680)" d="M1673.27 102.803 L1673.27 105.147 L1651.24 105.147 Q1651.55 110.094 1654.21 112.699 Q1656.89 115.277 1661.65 115.277 Q1664.41 115.277 1666.99 114.6 Q1669.6 113.923 1672.15 112.568 L1672.15 117.1 Q1669.57 118.193 1666.86 118.766 Q1664.15 119.339 1661.37 119.339 Q1654.39 119.339 1650.3 115.277 Q1646.24 111.214 1646.24 104.287 Q1646.24 97.1258 1650.09 92.9331 Q1653.97 88.7144 1660.53 88.7144 Q1666.42 88.7144 1669.83 92.5164 Q1673.27 96.2925 1673.27 102.803 M1668.48 101.397 Q1668.42 97.4643 1666.26 95.1206 Q1664.13 92.7768 1660.59 92.7768 Q1656.58 92.7768 1654.15 95.0425 Q1651.76 97.3081 1651.39 101.423 L1668.48 101.397 Z" fill="#000000" fill-rule="nonzero" fill-opacity="1" /><path clip-path="url(#clip680)" d="M1698.03 93.8966 Q1697.23 93.4279 1696.26 93.2196 Q1695.33 92.9852 1694.18 92.9852 Q1690.12 92.9852 1687.93 95.6414 Q1685.77 98.2716 1685.77 103.219 L1685.77 118.584 L1680.95 118.584 L1680.95 89.4175 L1685.77 89.4175 L1685.77 93.9487 Q1687.28 91.2925 1689.7 90.0164 Q1692.12 88.7144 1695.59 88.7144 Q1696.08 88.7144 1696.68 88.7925 Q1697.28 88.8446 1698.01 88.9748 L1698.03 93.8966 Z" fill="#000000" fill-rule="nonzero" fill-opacity="1" /><path clip-path="url(#clip680)" d="M1720.64 94.3654 L1754.02 94.3654 L1754.02 98.7404 L1720.64 98.7404 L1720.64 94.3654 M1720.64 104.99 L1754.02 104.99 L1754.02 109.417 L1720.64 109.417 L1720.64 104.99 Z" fill="#000000" fill-rule="nonzero" fill-opacity="1" /><path clip-path="url(#clip680)" d="M1794.23 97.0477 Q1790.69 97.0477 1788.61 99.4695 Q1786.55 101.891 1786.55 106.11 Q1786.55 110.303 1788.61 112.751 Q1790.69 115.173 1794.23 115.173 Q1797.77 115.173 1799.83 112.751 Q1801.91 110.303 1801.91 106.11 Q1801.91 101.891 1799.83 99.4695 Q1797.77 97.0477 1794.23 97.0477 M1804.67 80.5634 L1804.67 85.355 Q1802.69 84.4175 1800.66 83.9227 Q1798.66 83.4279 1796.68 83.4279 Q1791.47 83.4279 1788.71 86.9435 Q1785.98 90.4592 1785.59 97.5685 Q1787.12 95.3029 1789.44 94.105 Q1791.76 92.881 1794.54 92.881 Q1800.4 92.881 1803.79 96.4487 Q1807.2 99.9903 1807.2 106.11 Q1807.2 112.1 1803.66 115.719 Q1800.12 119.339 1794.23 119.339 Q1787.49 119.339 1783.92 114.183 Q1780.35 109.001 1780.35 99.1831 Q1780.35 89.9644 1784.73 84.4956 Q1789.1 79.0009 1796.47 79.0009 Q1798.45 79.0009 1800.46 79.3915 Q1802.49 79.7821 1804.67 80.5634 Z" fill="#000000" fill-rule="nonzero" fill-opacity="1" /><path clip-path="url(#clip680)" d="M1827.51 83.1675 Q1823.45 83.1675 1821.39 87.1779 Q1819.36 91.1623 1819.36 99.1831 Q1819.36 107.178 1821.39 111.188 Q1823.45 115.173 1827.51 115.173 Q1831.6 115.173 1833.63 111.188 Q1835.69 107.178 1835.69 99.1831 Q1835.69 91.1623 1833.63 87.1779 Q1831.6 83.1675 1827.51 83.1675 M1827.51 79.0009 Q1834.05 79.0009 1837.49 84.1831 Q1840.95 89.3394 1840.95 99.1831 Q1840.95 109.001 1837.49 114.183 Q1834.05 119.339 1827.51 119.339 Q1820.98 119.339 1817.51 114.183 Q1814.08 109.001 1814.08 99.1831 Q1814.08 89.3394 1817.51 84.1831 Q1820.98 79.0009 1827.51 79.0009 Z" fill="#000000" fill-rule="nonzero" fill-opacity="1" /><polyline clip-path="url(#clip682)" style="stroke:#000080; stroke-linecap:round; stroke-linejoin:round; stroke-width:8; stroke-opacity:1; fill:none" points="594.16,1212.39 621.803,731.931 649.446,635.606 677.089,588.576 704.732,561.174 732.374,543.143 760.017,529.307 787.66,517.66 815.303,507.19 842.946,497.126 870.589,486.868 898.231,475.939 925.874,463.998 953.517,450.871 981.16,436.572 1008.8,421.342 1036.45,405.65 1064.09,390.009 1091.73,374.722 1119.37,359.966 1147.02,346.166 1174.66,334.075 1202.3,324.236 1229.95,316.569 1257.59,310.593 1285.23,305.801 1312.87,301.783 1340.52,298.245 1368.16,295.003 1395.8,291.962 1423.45,289.08 1451.09,286.341 1478.73,283.735 1506.37,281.26 1534.02,278.905 1561.66,276.65 1589.3,274.456 1616.95,272.287 1644.59,270.149 1672.23,268.042 1699.87,266.037 1727.52,264.216 1755.16,262.613 1782.8,261.228 1810.45,260.015 1838.09,258.934 1865.73,257.951 1893.37,257.043 1921.02,256.19 1948.66,255.378 1976.3,254.595 2003.95,253.834 2031.59,253.09 2059.23,252.361 2086.87,251.647 2114.52,250.95 2142.16,250.273 2169.8,249.621 2197.45,249 2225.09,248.412 "/>
<circle clip-path="url(#clip682)" cx="594.16" cy="1212.39" r="10.8" fill="#000080" fill-rule="evenodd" fill-opacity="1" stroke="#000000" stroke-opacity="1" stroke-width="3.2"/>
<circle clip-path="url(#clip682)" cx="621.803" cy="731.931" r="10.8" fill="#000080" fill-rule="evenodd" fill-opacity="1" stroke="#000000" stroke-opacity="1" stroke-width="3.2"/>
<circle clip-path="url(#clip682)" cx="649.446" cy="635.606" r="10.8" fill="#000080" fill-rule="evenodd" fill-opacity="1" stroke="#000000" stroke-opacity="1" stroke-width="3.2"/>
<circle clip-path="url(#clip682)" cx="677.089" cy="588.576" r="10.8" fill="#000080" fill-rule="evenodd" fill-opacity="1" stroke="#000000" stroke-opacity="1" stroke-width="3.2"/>
<circle clip-path="url(#clip682)" cx="704.732" cy="561.174" r="10.8" fill="#000080" fill-rule="evenodd" fill-opacity="1" stroke="#000000" stroke-opacity="1" stroke-width="3.2"/>
<circle clip-path="url(#clip682)" cx="732.374" cy="543.143" r="10.8" fill="#000080" fill-rule="evenodd" fill-opacity="1" stroke="#000000" stroke-opacity="1" stroke-width="3.2"/>
<circle clip-path="url(#clip682)" cx="760.017" cy="529.307" r="10.8" fill="#000080" fill-rule="evenodd" fill-opacity="1" stroke="#000000" stroke-opacity="1" stroke-width="3.2"/>
<circle clip-path="url(#clip682)" cx="787.66" cy="517.66" r="10.8" fill="#000080" fill-rule="evenodd" fill-opacity="1" stroke="#000000" stroke-opacity="1" stroke-width="3.2"/>
<circle clip-path="url(#clip682)" cx="815.303" cy="507.19" r="10.8" fill="#000080" fill-rule="evenodd" fill-opacity="1" stroke="#000000" stroke-opacity="1" stroke-width="3.2"/>
<circle clip-path="url(#clip682)" cx="842.946" cy="497.126" r="10.8" fill="#000080" fill-rule="evenodd" fill-opacity="1" stroke="#000000" stroke-opacity="1" stroke-width="3.2"/>
<circle clip-path="url(#clip682)" cx="870.589" cy="486.868" r="10.8" fill="#000080" fill-rule="evenodd" fill-opacity="1" stroke="#000000" stroke-opacity="1" stroke-width="3.2"/>
<circle clip-path="url(#clip682)" cx="898.231" cy="475.939" r="10.8" fill="#000080" fill-rule="evenodd" fill-opacity="1" stroke="#000000" stroke-opacity="1" stroke-width="3.2"/>
<circle clip-path="url(#clip682)" cx="925.874" cy="463.998" r="10.8" fill="#000080" fill-rule="evenodd" fill-opacity="1" stroke="#000000" stroke-opacity="1" stroke-width="3.2"/>
<circle clip-path="url(#clip682)" cx="953.517" cy="450.871" r="10.8" fill="#000080" fill-rule="evenodd" fill-opacity="1" stroke="#000000" stroke-opacity="1" stroke-width="3.2"/>
<circle clip-path="url(#clip682)" cx="981.16" cy="436.572" r="10.8" fill="#000080" fill-rule="evenodd" fill-opacity="1" stroke="#000000" stroke-opacity="1" stroke-width="3.2"/>
<circle clip-path="url(#clip682)" cx="1008.8" cy="421.342" r="10.8" fill="#000080" fill-rule="evenodd" fill-opacity="1" stroke="#000000" stroke-opacity="1" stroke-width="3.2"/>
<circle clip-path="url(#clip682)" cx="1036.45" cy="405.65" r="10.8" fill="#000080" fill-rule="evenodd" fill-opacity="1" stroke="#000000" stroke-opacity="1" stroke-width="3.2"/>
<circle clip-path="url(#clip682)" cx="1064.09" cy="390.009" r="10.8" fill="#000080" fill-rule="evenodd" fill-opacity="1" stroke="#000000" stroke-opacity="1" stroke-width="3.2"/>
<circle clip-path="url(#clip682)" cx="1091.73" cy="374.722" r="10.8" fill="#000080" fill-rule="evenodd" fill-opacity="1" stroke="#000000" stroke-opacity="1" stroke-width="3.2"/>
<circle clip-path="url(#clip682)" cx="1119.37" cy="359.966" r="10.8" fill="#000080" fill-rule="evenodd" fill-opacity="1" stroke="#000000" stroke-opacity="1" stroke-width="3.2"/>
<circle clip-path="url(#clip682)" cx="1147.02" cy="346.166" r="10.8" fill="#000080" fill-rule="evenodd" fill-opacity="1" stroke="#000000" stroke-opacity="1" stroke-width="3.2"/>
<circle clip-path="url(#clip682)" cx="1174.66" cy="334.075" r="10.8" fill="#000080" fill-rule="evenodd" fill-opacity="1" stroke="#000000" stroke-opacity="1" stroke-width="3.2"/>
<circle clip-path="url(#clip682)" cx="1202.3" cy="324.236" r="10.8" fill="#000080" fill-rule="evenodd" fill-opacity="1" stroke="#000000" stroke-opacity="1" stroke-width="3.2"/>
<circle clip-path="url(#clip682)" cx="1229.95" cy="316.569" r="10.8" fill="#000080" fill-rule="evenodd" fill-opacity="1" stroke="#000000" stroke-opacity="1" stroke-width="3.2"/>
<circle clip-path="url(#clip682)" cx="1257.59" cy="310.593" r="10.8" fill="#000080" fill-rule="evenodd" fill-opacity="1" stroke="#000000" stroke-opacity="1" stroke-width="3.2"/>
<circle clip-path="url(#clip682)" cx="1285.23" cy="305.801" r="10.8" fill="#000080" fill-rule="evenodd" fill-opacity="1" stroke="#000000" stroke-opacity="1" stroke-width="3.2"/>
<circle clip-path="url(#clip682)" cx="1312.87" cy="301.783" r="10.8" fill="#000080" fill-rule="evenodd" fill-opacity="1" stroke="#000000" stroke-opacity="1" stroke-width="3.2"/>
<circle clip-path="url(#clip682)" cx="1340.52" cy="298.245" r="10.8" fill="#000080" fill-rule="evenodd" fill-opacity="1" stroke="#000000" stroke-opacity="1" stroke-width="3.2"/>
<circle clip-path="url(#clip682)" cx="1368.16" cy="295.003" r="10.8" fill="#000080" fill-rule="evenodd" fill-opacity="1" stroke="#000000" stroke-opacity="1" stroke-width="3.2"/>
<circle clip-path="url(#clip682)" cx="1395.8" cy="291.962" r="10.8" fill="#000080" fill-rule="evenodd" fill-opacity="1" stroke="#000000" stroke-opacity="1" stroke-width="3.2"/>
<circle clip-path="url(#clip682)" cx="1423.45" cy="289.08" r="10.8" fill="#000080" fill-rule="evenodd" fill-opacity="1" stroke="#000000" stroke-opacity="1" stroke-width="3.2"/>
<circle clip-path="url(#clip682)" cx="1451.09" cy="286.341" r="10.8" fill="#000080" fill-rule="evenodd" fill-opacity="1" stroke="#000000" stroke-opacity="1" stroke-width="3.2"/>
<circle clip-path="url(#clip682)" cx="1478.73" cy="283.735" r="10.8" fill="#000080" fill-rule="evenodd" fill-opacity="1" stroke="#000000" stroke-opacity="1" stroke-width="3.2"/>
<circle clip-path="url(#clip682)" cx="1506.37" cy="281.26" r="10.8" fill="#000080" fill-rule="evenodd" fill-opacity="1" stroke="#000000" stroke-opacity="1" stroke-width="3.2"/>
<circle clip-path="url(#clip682)" cx="1534.02" cy="278.905" r="10.8" fill="#000080" fill-rule="evenodd" fill-opacity="1" stroke="#000000" stroke-opacity="1" stroke-width="3.2"/>
<circle clip-path="url(#clip682)" cx="1561.66" cy="276.65" r="10.8" fill="#000080" fill-rule="evenodd" fill-opacity="1" stroke="#000000" stroke-opacity="1" stroke-width="3.2"/>
<circle clip-path="url(#clip682)" cx="1589.3" cy="274.456" r="10.8" fill="#000080" fill-rule="evenodd" fill-opacity="1" stroke="#000000" stroke-opacity="1" stroke-width="3.2"/>
<circle clip-path="url(#clip682)" cx="1616.95" cy="272.287" r="10.8" fill="#000080" fill-rule="evenodd" fill-opacity="1" stroke="#000000" stroke-opacity="1" stroke-width="3.2"/>
<circle clip-path="url(#clip682)" cx="1644.59" cy="270.149" r="10.8" fill="#000080" fill-rule="evenodd" fill-opacity="1" stroke="#000000" stroke-opacity="1" stroke-width="3.2"/>
<circle clip-path="url(#clip682)" cx="1672.23" cy="268.042" r="10.8" fill="#000080" fill-rule="evenodd" fill-opacity="1" stroke="#000000" stroke-opacity="1" stroke-width="3.2"/>
<circle clip-path="url(#clip682)" cx="1699.87" cy="266.037" r="10.8" fill="#000080" fill-rule="evenodd" fill-opacity="1" stroke="#000000" stroke-opacity="1" stroke-width="3.2"/>
<circle clip-path="url(#clip682)" cx="1727.52" cy="264.216" r="10.8" fill="#000080" fill-rule="evenodd" fill-opacity="1" stroke="#000000" stroke-opacity="1" stroke-width="3.2"/>
<circle clip-path="url(#clip682)" cx="1755.16" cy="262.613" r="10.8" fill="#000080" fill-rule="evenodd" fill-opacity="1" stroke="#000000" stroke-opacity="1" stroke-width="3.2"/>
<circle clip-path="url(#clip682)" cx="1782.8" cy="261.228" r="10.8" fill="#000080" fill-rule="evenodd" fill-opacity="1" stroke="#000000" stroke-opacity="1" stroke-width="3.2"/>
<circle clip-path="url(#clip682)" cx="1810.45" cy="260.015" r="10.8" fill="#000080" fill-rule="evenodd" fill-opacity="1" stroke="#000000" stroke-opacity="1" stroke-width="3.2"/>
<circle clip-path="url(#clip682)" cx="1838.09" cy="258.934" r="10.8" fill="#000080" fill-rule="evenodd" fill-opacity="1" stroke="#000000" stroke-opacity="1" stroke-width="3.2"/>
<circle clip-path="url(#clip682)" cx="1865.73" cy="257.951" r="10.8" fill="#000080" fill-rule="evenodd" fill-opacity="1" stroke="#000000" stroke-opacity="1" stroke-width="3.2"/>
<circle clip-path="url(#clip682)" cx="1893.37" cy="257.043" r="10.8" fill="#000080" fill-rule="evenodd" fill-opacity="1" stroke="#000000" stroke-opacity="1" stroke-width="3.2"/>
<circle clip-path="url(#clip682)" cx="1921.02" cy="256.19" r="10.8" fill="#000080" fill-rule="evenodd" fill-opacity="1" stroke="#000000" stroke-opacity="1" stroke-width="3.2"/>
<circle clip-path="url(#clip682)" cx="1948.66" cy="255.378" r="10.8" fill="#000080" fill-rule="evenodd" fill-opacity="1" stroke="#000000" stroke-opacity="1" stroke-width="3.2"/>
<circle clip-path="url(#clip682)" cx="1976.3" cy="254.595" r="10.8" fill="#000080" fill-rule="evenodd" fill-opacity="1" stroke="#000000" stroke-opacity="1" stroke-width="3.2"/>
<circle clip-path="url(#clip682)" cx="2003.95" cy="253.834" r="10.8" fill="#000080" fill-rule="evenodd" fill-opacity="1" stroke="#000000" stroke-opacity="1" stroke-width="3.2"/>
<circle clip-path="url(#clip682)" cx="2031.59" cy="253.09" r="10.8" fill="#000080" fill-rule="evenodd" fill-opacity="1" stroke="#000000" stroke-opacity="1" stroke-width="3.2"/>
<circle clip-path="url(#clip682)" cx="2059.23" cy="252.361" r="10.8" fill="#000080" fill-rule="evenodd" fill-opacity="1" stroke="#000000" stroke-opacity="1" stroke-width="3.2"/>
<circle clip-path="url(#clip682)" cx="2086.87" cy="251.647" r="10.8" fill="#000080" fill-rule="evenodd" fill-opacity="1" stroke="#000000" stroke-opacity="1" stroke-width="3.2"/>
<circle clip-path="url(#clip682)" cx="2114.52" cy="250.95" r="10.8" fill="#000080" fill-rule="evenodd" fill-opacity="1" stroke="#000000" stroke-opacity="1" stroke-width="3.2"/>
<circle clip-path="url(#clip682)" cx="2142.16" cy="250.273" r="10.8" fill="#000080" fill-rule="evenodd" fill-opacity="1" stroke="#000000" stroke-opacity="1" stroke-width="3.2"/>
<circle clip-path="url(#clip682)" cx="2169.8" cy="249.621" r="10.8" fill="#000080" fill-rule="evenodd" fill-opacity="1" stroke="#000000" stroke-opacity="1" stroke-width="3.2"/>
<circle clip-path="url(#clip682)" cx="2197.45" cy="249" r="10.8" fill="#000080" fill-rule="evenodd" fill-opacity="1" stroke="#000000" stroke-opacity="1" stroke-width="3.2"/>
<circle clip-path="url(#clip682)" cx="2225.09" cy="248.412" r="10.8" fill="#000080" fill-rule="evenodd" fill-opacity="1" stroke="#000000" stroke-opacity="1" stroke-width="3.2"/>
</svg>
