<?xml version="1.0" encoding="utf-8"?>
<svg xmlns="http://www.w3.org/2000/svg" xmlns:xlink="http://www.w3.org/1999/xlink" width="700" height="500" viewBox="0 0 2800 2000">
<defs>
  <clipPath id="clip530">
    <rect x="0" y="0" width="2800" height="2000"/>
  </clipPath>
</defs>
<path clip-path="url(#clip530)" d="M0 2000 L2800 2000 L2800 -4.44089e-14 L0 -4.44089e-14  Z" fill="#ffffff" fill-rule="evenodd" fill-opacity="1"/>
<defs>
  <clipPath id="clip531">
    <rect x="532" y="125" width="2142" height="1506"/>
  </clipPath>
</defs>
<path clip-path="url(#clip530)" d="M532.517 1630.83 L2674.02 1630.83 L2674.02 125.984 L532.517 125.984  Z" fill="#ffffff" fill-rule="evenodd" fill-opacity="1"/>
<polyline clip-path="url(#clip531)" style="stroke:#000000; stroke-linecap:round; stroke-linejoin:round; stroke-width:2; stroke-opacity:0.1; fill:none" points="585.076,1630.83 585.076,125.984 "/>
<polyline clip-path="url(#clip531)" style="stroke:#000000; stroke-linecap:round; stroke-linejoin:round; stroke-width:2; stroke-opacity:0.1; fill:none" points="987.523,1630.83 987.523,125.984 "/>
<polyline clip-path="url(#clip531)" style="stroke:#000000; stroke-linecap:round; stroke-linejoin:round; stroke-width:2; stroke-opacity:0.1; fill:none" points="1389.97,1630.83 1389.97,125.984 "/>
<polyline clip-path="url(#clip531)" style="stroke:#000000; stroke-linecap:round; stroke-linejoin:round; stroke-width:2; stroke-opacity:0.1; fill:none" points="1792.42,1630.83 1792.42,125.984 "/>
<polyline clip-path="url(#clip531)" style="stroke:#000000; stroke-linecap:round; stroke-linejoin:round; stroke-width:2; stroke-opacity:0.1; fill:none" points="2194.86,1630.83 2194.86,125.984 "/>
<polyline clip-path="url(#clip531)" style="stroke:#000000; stroke-linecap:round; stroke-linejoin:round; stroke-width:2; stroke-opacity:0.1; fill:none" points="2597.31,1630.83 2597.31,125.984 "/>
<polyline clip-path="url(#clip531)" style="stroke:#000000; stroke-linecap:round; stroke-linejoin:round; stroke-width:2; stroke-opacity:0.1; fill:none" points="532.517,1515.27 2674.02,1515.27 "/>
<polyline clip-path="url(#clip531)" style="stroke:#000000; stroke-linecap:round; stroke-linejoin:round; stroke-width:2; stroke-opacity:0.1; fill:none" points="532.517,1232.62 2674.02,1232.62 "/>
<polyline clip-path="url(#clip531)" style="stroke:#000000; stroke-linecap:round; stroke-linejoin:round; stroke-width:2; stroke-opacity:0.1; fill:none" points="532.517,949.974 2674.02,949.974 "/>
<polyline clip-path="url(#clip531)" style="stroke:#000000; stroke-linecap:round; stroke-linejoin:round; stroke-width:2; stroke-opacity:0.1; fill:none" points="532.517,667.325 2674.02,667.325 "/>
<polyline clip-path="url(#clip531)" style="stroke:#000000; stroke-linecap:round; stroke-linejoin:round; stroke-width:2; stroke-opacity:0.1; fill:none" points="532.517,384.676 2674.02,384.676 "/>
<polyline clip-path="url(#clip530)" style="stroke:#000000; stroke-linecap:round; stroke-linejoin:round; stroke-width:4; stroke-opacity:1; fill:none" points="532.517,1630.83 2674.02,1630.83 "/>
<polyline clip-path="url(#clip530)" style="stroke:#000000; stroke-linecap:round; stroke-linejoin:round; stroke-width:4; stroke-opacity:1; fill:none" points="585.076,1630.83 585.076,1611.93 "/>
<polyline clip-path="url(#clip530)" style="stroke:#000000; stroke-linecap:round; stroke-linejoin:round; stroke-width:4; stroke-opacity:1; fill:none" points="987.523,1630.83 987.523,1611.93 "/>
<polyline clip-path="url(#clip530)" style="stroke:#000000; stroke-linecap:round; stroke-linejoin:round; stroke-width:4; stroke-opacity:1; fill:none" points="1389.97,1630.83 1389.97,1611.93 "/>
<polyline clip-path="url(#clip530)" style="stroke:#000000; stroke-linecap:round; stroke-linejoin:round; stroke-width:4; stroke-opacity:1; fill:none" points="1792.42,1630.83 1792.42,1611.93 "/>
<polyline clip-path="url(#clip530)" style="stroke:#000000; stroke-linecap:round; stroke-linejoin:round; stroke-width:4; stroke-opacity:1; fill:none" points="2194.86,1630.83 2194.86,1611.93 "/>
<polyline clip-path="url(#clip530)" style="stroke:#000000; stroke-linecap:round; stroke-linejoin:round; stroke-width:4; stroke-opacity:1; fill:none" points="2597.31,1630.83 2597.31,1611.93 "/>
<path clip-path="url(#clip530)" d="M585.076 1667.88 Q580.562 1667.88 578.277 1672.34 Q576.02 1676.76 576.02 1685.67 Q576.02 1694.56 578.277 1699.01 Q580.562 1703.44 585.076 1703.44 Q589.619 1703.44 591.876 1699.01 Q594.162 1694.56 594.162 1685.67 Q594.162 1676.76 591.876 1672.34 Q589.619 1667.88 585.076 1667.88 M585.076 1663.25 Q592.339 1663.25 596.158 1669.01 Q600.007 1674.74 600.007 1685.67 Q600.007 1696.58 596.158 1702.34 Q592.339 1708.07 585.076 1708.07 Q577.814 1708.07 573.965 1702.34 Q570.146 1696.58 570.146 1685.67 Q570.146 1674.74 573.965 1669.01 Q577.814 1663.25 585.076 1663.25 Z" fill="#000000" fill-rule="nonzero" fill-opacity="1" /><path clip-path="url(#clip530)" d="M955.897 1664.03 L978.842 1664.03 L978.842 1668.95 L961.25 1668.95 L961.25 1679.54 Q962.523 1679.11 963.796 1678.9 Q965.069 1678.67 966.343 1678.67 Q973.576 1678.67 977.801 1682.64 Q982.025 1686.6 982.025 1693.37 Q982.025 1700.34 977.685 1704.22 Q973.345 1708.07 965.446 1708.07 Q962.726 1708.07 959.89 1707.61 Q957.083 1707.14 954.074 1706.22 L954.074 1700.34 Q956.678 1701.76 959.456 1702.46 Q962.234 1703.15 965.33 1703.15 Q970.336 1703.15 973.258 1700.52 Q976.18 1697.89 976.18 1693.37 Q976.18 1688.86 973.258 1686.22 Q970.336 1683.59 965.33 1683.59 Q962.986 1683.59 960.642 1684.11 Q958.328 1684.63 955.897 1685.73 L955.897 1664.03 Z" fill="#000000" fill-rule="nonzero" fill-opacity="1" /><path clip-path="url(#clip530)" d="M1006.04 1667.88 Q1001.53 1667.88 999.242 1672.34 Q996.985 1676.76 996.985 1685.67 Q996.985 1694.56 999.242 1699.01 Q1001.53 1703.44 1006.04 1703.44 Q1010.58 1703.44 1012.84 1699.01 Q1015.13 1694.56 1015.13 1685.67 Q1015.13 1676.76 1012.84 1672.34 Q1010.58 1667.88 1006.04 1667.88 M1006.04 1663.25 Q1013.3 1663.25 1017.12 1669.01 Q1020.97 1674.74 1020.97 1685.67 Q1020.97 1696.58 1017.12 1702.34 Q1013.3 1708.07 1006.04 1708.07 Q998.779 1708.07 994.93 1702.34 Q991.111 1696.58 991.111 1685.67 Q991.111 1674.74 994.93 1669.01 Q998.779 1663.25 1006.04 1663.25 Z" fill="#000000" fill-rule="nonzero" fill-opacity="1" /><path clip-path="url(#clip530)" d="M1339.48 1702.31 L1349.03 1702.31 L1349.03 1669.36 L1338.64 1671.44 L1338.64 1666.11 L1348.97 1664.03 L1354.81 1664.03 L1354.81 1702.31 L1364.36 1702.31 L1364.36 1707.23 L1339.48 1707.23 L1339.48 1702.31 Z" fill="#000000" fill-rule="nonzero" fill-opacity="1" /><path clip-path="url(#clip530)" d="M1388.67 1667.88 Q1384.15 1667.88 1381.87 1672.34 Q1379.61 1676.76 1379.61 1685.67 Q1379.61 1694.56 1381.87 1699.01 Q1384.15 1703.44 1388.67 1703.44 Q1393.21 1703.44 1395.47 1699.01 Q1397.75 1694.56 1397.75 1685.67 Q1397.75 1676.76 1395.47 1672.34 Q1393.21 1667.88 1388.67 1667.88 M1388.67 1663.25 Q1395.93 1663.25 1399.75 1669.01 Q1403.6 1674.74 1403.6 1685.67 Q1403.6 1696.58 1399.75 1702.34 Q1395.93 1708.07 1388.67 1708.07 Q1381.4 1708.07 1377.56 1702.34 Q1373.74 1696.58 1373.74 1685.67 Q1373.74 1674.74 1377.56 1669.01 Q1381.4 1663.25 1388.67 1663.25 Z" fill="#000000" fill-rule="nonzero" fill-opacity="1" /><path clip-path="url(#clip530)" d="M1426.37 1667.88 Q1421.86 1667.88 1419.57 1672.34 Q1417.31 1676.76 1417.31 1685.67 Q1417.31 1694.56 1419.57 1699.01 Q1421.86 1703.44 1426.37 1703.44 Q1430.91 1703.44 1433.17 1699.01 Q1435.46 1694.56 1435.46 1685.67 Q1435.46 1676.76 1433.17 1672.34 Q1430.91 1667.88 1426.37 1667.88 M1426.37 1663.25 Q1433.63 1663.25 1437.45 1669.01 Q1441.3 1674.74 1441.3 1685.67 Q1441.3 1696.58 1437.45 1702.34 Q1433.63 1708.07 1426.37 1708.07 Q1419.11 1708.07 1415.26 1702.34 Q1411.44 1696.58 1411.44 1685.67 Q1411.44 1674.74 1415.26 1669.01 Q1419.11 1663.25 1426.37 1663.25 Z" fill="#000000" fill-rule="nonzero" fill-opacity="1" /><path clip-path="url(#clip530)" d="M1741.92 1702.31 L1751.47 1702.31 L1751.47 1669.36 L1741.09 1671.44 L1741.09 1666.11 L1751.42 1664.03 L1757.26 1664.03 L1757.26 1702.31 L1766.81 1702.31 L1766.81 1707.23 L1741.92 1707.23 L1741.92 1702.31 Z" fill="#000000" fill-rule="nonzero" fill-opacity="1" /><path clip-path="url(#clip530)" d="M1778.67 1664.03 L1801.62 1664.03 L1801.62 1668.95 L1784.03 1668.95 L1784.03 1679.54 Q1785.3 1679.11 1786.57 1678.9 Q1787.84 1678.67 1789.12 1678.67 Q1796.35 1678.67 1800.58 1682.64 Q1804.8 1686.6 1804.8 1693.37 Q1804.8 1700.34 1800.46 1704.22 Q1796.12 1708.07 1788.22 1708.07 Q1785.5 1708.07 1782.67 1707.61 Q1779.86 1707.14 1776.85 1706.22 L1776.85 1700.34 Q1779.45 1701.76 1782.23 1702.46 Q1785.01 1703.15 1788.1 1703.15 Q1793.11 1703.15 1796.03 1700.52 Q1798.96 1697.89 1798.96 1693.37 Q1798.96 1688.86 1796.03 1686.22 Q1793.11 1683.59 1788.1 1683.59 Q1785.76 1683.59 1783.42 1684.11 Q1781.1 1684.63 1778.67 1685.73 L1778.67 1664.03 Z" fill="#000000" fill-rule="nonzero" fill-opacity="1" /><path clip-path="url(#clip530)" d="M1828.82 1667.88 Q1824.3 1667.88 1822.02 1672.34 Q1819.76 1676.76 1819.76 1685.67 Q1819.76 1694.56 1822.02 1699.01 Q1824.3 1703.44 1828.82 1703.44 Q1833.36 1703.44 1835.62 1699.01 Q1837.9 1694.56 1837.9 1685.67 Q1837.9 1676.76 1835.62 1672.34 Q1833.36 1667.88 1828.82 1667.88 M1828.82 1663.25 Q1836.08 1663.25 1839.9 1669.01 Q1843.75 1674.74 1843.75 1685.67 Q1843.75 1696.58 1839.9 1702.34 Q1836.08 1708.07 1828.82 1708.07 Q1821.55 1708.07 1817.71 1702.34 Q1813.89 1696.58 1813.89 1685.67 Q1813.89 1674.74 1817.71 1669.01 Q1821.55 1663.25 1828.82 1663.25 Z" fill="#000000" fill-rule="nonzero" fill-opacity="1" /><path clip-path="url(#clip530)" d="M2149.48 1702.31 L2169.88 1702.31 L2169.88 1707.23 L2142.45 1707.23 L2142.45 1702.31 Q2145.77 1698.87 2151.5 1693.08 Q2157.26 1687.27 2158.74 1685.59 Q2161.54 1682.43 2162.64 1680.26 Q2163.77 1678.06 2163.77 1675.95 Q2163.77 1672.51 2161.34 1670.34 Q2158.94 1668.17 2155.06 1668.17 Q2152.31 1668.17 2149.25 1669.12 Q2146.21 1670.08 2142.74 1672.02 L2142.74 1666.11 Q2146.27 1664.7 2149.33 1663.97 Q2152.4 1663.25 2154.95 1663.25 Q2161.66 1663.25 2165.65 1666.61 Q2169.65 1669.96 2169.65 1675.58 Q2169.65 1678.24 2168.63 1680.64 Q2167.65 1683.01 2165.02 1686.25 Q2164.29 1687.09 2160.42 1691.11 Q2156.54 1695.11 2149.48 1702.31 Z" fill="#000000" fill-rule="nonzero" fill-opacity="1" /><path clip-path="url(#clip530)" d="M2194.65 1667.88 Q2190.13 1667.88 2187.85 1672.34 Q2185.59 1676.76 2185.59 1685.67 Q2185.59 1694.56 2187.85 1699.01 Q2190.13 1703.44 2194.65 1703.44 Q2199.19 1703.44 2201.45 1699.01 Q2203.73 1694.56 2203.73 1685.67 Q2203.73 1676.76 2201.45 1672.34 Q2199.19 1667.88 2194.65 1667.88 M2194.65 1663.25 Q2201.91 1663.25 2205.73 1669.01 Q2209.58 1674.74 2209.58 1685.67 Q2209.58 1696.58 2205.73 1702.34 Q2201.91 1708.07 2194.65 1708.07 Q2187.38 1708.07 2183.53 1702.34 Q2179.72 1696.58 2179.72 1685.67 Q2179.72 1674.74 2183.53 1669.01 Q2187.38 1663.25 2194.65 1663.25 Z" fill="#000000" fill-rule="nonzero" fill-opacity="1" /><path clip-path="url(#clip530)" d="M2232.35 1667.88 Q2227.83 1667.88 2225.55 1672.34 Q2223.29 1676.76 2223.29 1685.67 Q2223.29 1694.56 2225.55 1699.01 Q2227.83 1703.44 2232.35 1703.44 Q2236.89 1703.44 2239.15 1699.01 Q2241.43 1694.56 2241.43 1685.67 Q2241.43 1676.76 2239.15 1672.34 Q2236.89 1667.88 2232.35 1667.88 M2232.35 1663.25 Q2239.61 1663.25 2243.43 1669.01 Q2247.28 1674.74 2247.28 1685.67 Q2247.28 1696.58 2243.43 1702.34 Q2239.61 1708.07 2232.35 1708.07 Q2225.09 1708.07 2221.24 1702.34 Q2217.42 1696.58 2217.42 1685.67 Q2217.42 1674.74 2221.24 1669.01 Q2225.09 1663.25 2232.35 1663.25 Z" fill="#000000" fill-rule="nonzero" fill-opacity="1" /><path clip-path="url(#clip530)" d="M2551.92 1702.31 L2572.32 1702.31 L2572.32 1707.23 L2544.89 1707.23 L2544.89 1702.31 Q2548.22 1698.87 2553.95 1693.08 Q2559.71 1687.27 2561.18 1685.59 Q2563.99 1682.43 2565.09 1680.26 Q2566.22 1678.06 2566.22 1675.95 Q2566.22 1672.51 2563.79 1670.34 Q2561.39 1668.17 2557.51 1668.17 Q2554.76 1668.17 2551.69 1669.12 Q2548.66 1670.08 2545.18 1672.02 L2545.18 1666.11 Q2548.71 1664.7 2551.78 1663.97 Q2554.85 1663.25 2557.39 1663.25 Q2564.11 1663.25 2568.1 1666.61 Q2572.09 1669.96 2572.09 1675.58 Q2572.09 1678.24 2571.08 1680.64 Q2570.1 1683.01 2567.46 1686.25 Q2566.74 1687.09 2562.86 1691.11 Q2558.98 1695.11 2551.92 1702.31 Z" fill="#000000" fill-rule="nonzero" fill-opacity="1" /><path clip-path="url(#clip530)" d="M2584.65 1664.03 L2607.6 1664.03 L2607.6 1668.95 L2590 1668.95 L2590 1679.54 Q2591.28 1679.11 2592.55 1678.9 Q2593.82 1678.67 2595.1 1678.67 Q2602.33 1678.67 2606.55 1682.64 Q2610.78 1686.6 2610.78 1693.37 Q2610.78 1700.34 2606.44 1704.22 Q2602.1 1708.07 2594.2 1708.07 Q2591.48 1708.07 2588.64 1707.61 Q2585.84 1707.14 2582.83 1706.22 L2582.83 1700.34 Q2585.43 1701.76 2588.21 1702.46 Q2590.99 1703.15 2594.08 1703.15 Q2599.09 1703.15 2602.01 1700.52 Q2604.93 1697.89 2604.93 1693.37 Q2604.93 1688.86 2602.01 1686.22 Q2599.09 1683.59 2594.08 1683.59 Q2591.74 1683.59 2589.4 1684.11 Q2587.08 1684.63 2584.65 1685.73 L2584.65 1664.03 Z" fill="#000000" fill-rule="nonzero" fill-opacity="1" /><path clip-path="url(#clip530)" d="M2634.79 1667.88 Q2630.28 1667.88 2628 1672.34 Q2625.74 1676.76 2625.74 1685.67 Q2625.74 1694.56 2628 1699.01 Q2630.28 1703.44 2634.79 1703.44 Q2639.34 1703.44 2641.59 1699.01 Q2643.88 1694.56 2643.88 1685.67 Q2643.88 1676.76 2641.59 1672.34 Q2639.34 1667.88 2634.79 1667.88 M2634.79 1663.25 Q2642.06 1663.25 2645.88 1669.01 Q2649.73 1674.74 2649.73 1685.67 Q2649.73 1696.58 2645.88 1702.34 Q2642.06 1708.07 2634.79 1708.07 Q2627.53 1708.07 2623.68 1702.34 Q2619.86 1696.58 2619.86 1685.67 Q2619.86 1674.74 2623.68 1669.01 Q2627.53 1663.25 2634.79 1663.25 Z" fill="#000000" fill-rule="nonzero" fill-opacity="1" /><path clip-path="url(#clip530)" d="M1310.13 1747.14 L1316.55 1747.14 L1316.55 1789.24 L1339.69 1789.24 L1339.69 1794.66 L1310.13 1794.66 L1310.13 1747.14 Z" fill="#000000" fill-rule="nonzero" fill-opacity="1" /><path clip-path="url(#clip530)" d="M1362.39 1776.74 Q1355.29 1776.74 1352.55 1778.36 Q1349.82 1779.98 1349.82 1783.9 Q1349.82 1787.02 1351.85 1788.86 Q1353.92 1790.68 1357.45 1790.68 Q1362.32 1790.68 1365.25 1787.24 Q1368.21 1783.77 1368.21 1778.04 L1368.21 1776.74 L1362.39 1776.74 M1374.07 1774.32 L1374.07 1794.66 L1368.21 1794.66 L1368.21 1789.24 Q1366.21 1792.49 1363.22 1794.05 Q1360.22 1795.58 1355.89 1795.58 Q1350.42 1795.58 1347.17 1792.52 Q1343.96 1789.44 1343.96 1784.28 Q1343.96 1778.26 1347.97 1775.21 Q1352.01 1772.15 1360 1772.15 L1368.21 1772.15 L1368.21 1771.58 Q1368.21 1767.54 1365.54 1765.34 Q1362.9 1763.11 1358.09 1763.11 Q1355.04 1763.11 1352.14 1763.85 Q1349.24 1764.58 1346.57 1766.04 L1346.57 1760.63 Q1349.78 1759.39 1352.81 1758.78 Q1355.83 1758.15 1358.7 1758.15 Q1366.43 1758.15 1370.25 1762.16 Q1374.07 1766.17 1374.07 1774.32 Z" fill="#000000" fill-rule="nonzero" fill-opacity="1" /><path clip-path="url(#clip530)" d="M1409.59 1776.42 Q1409.59 1770.05 1406.95 1766.55 Q1404.34 1763.05 1399.6 1763.05 Q1394.88 1763.05 1392.24 1766.55 Q1389.63 1770.05 1389.63 1776.42 Q1389.63 1782.75 1392.24 1786.25 Q1394.88 1789.75 1399.6 1789.75 Q1404.34 1789.75 1406.95 1786.25 Q1409.59 1782.75 1409.59 1776.42 M1415.45 1790.23 Q1415.45 1799.33 1411.4 1803.76 Q1407.36 1808.21 1399.02 1808.21 Q1395.94 1808.21 1393.2 1807.74 Q1390.46 1807.29 1387.88 1806.34 L1387.88 1800.64 Q1390.46 1802.04 1392.98 1802.71 Q1395.49 1803.38 1398.1 1803.38 Q1403.86 1803.38 1406.73 1800.35 Q1409.59 1797.36 1409.59 1791.28 L1409.59 1788.39 Q1407.78 1791.54 1404.94 1793.1 Q1402.11 1794.66 1398.16 1794.66 Q1391.61 1794.66 1387.6 1789.66 Q1383.59 1784.66 1383.59 1776.42 Q1383.59 1768.14 1387.6 1763.15 Q1391.61 1758.15 1398.16 1758.15 Q1402.11 1758.15 1404.94 1759.71 Q1407.78 1761.27 1409.59 1764.42 L1409.59 1759.01 L1415.45 1759.01 L1415.45 1790.23 Z" fill="#000000" fill-rule="nonzero" fill-opacity="1" /><path clip-path="url(#clip530)" d="M1462.3 1745.19 Q1458.03 1752.51 1455.96 1759.68 Q1453.89 1766.84 1453.89 1774.19 Q1453.89 1781.54 1455.96 1788.77 Q1458.06 1795.96 1462.3 1803.25 L1457.21 1803.25 Q1452.43 1795.77 1450.04 1788.54 Q1447.69 1781.32 1447.69 1774.19 Q1447.69 1767.09 1450.04 1759.9 Q1452.4 1752.71 1457.21 1745.19 L1462.3 1745.19 Z" fill="#000000" fill-rule="nonzero" fill-opacity="1" /><path clip-path="url(#clip530)" d="M1479.45 1748.89 L1479.45 1759.01 L1491.52 1759.01 L1491.52 1763.56 L1479.45 1763.56 L1479.45 1782.91 Q1479.45 1787.27 1480.63 1788.51 Q1481.84 1789.75 1485.5 1789.75 L1491.52 1789.75 L1491.52 1794.66 L1485.5 1794.66 Q1478.72 1794.66 1476.14 1792.14 Q1473.57 1789.59 1473.57 1782.91 L1473.57 1763.56 L1469.27 1763.56 L1469.27 1759.01 L1473.57 1759.01 L1473.57 1748.89 L1479.45 1748.89 Z" fill="#000000" fill-rule="nonzero" fill-opacity="1" /><path clip-path="url(#clip530)" d="M1519.88 1764.48 Q1518.89 1763.91 1517.71 1763.65 Q1516.57 1763.37 1515.16 1763.37 Q1510.2 1763.37 1507.53 1766.61 Q1504.88 1769.83 1504.88 1775.88 L1504.88 1794.66 L1499 1794.66 L1499 1759.01 L1504.88 1759.01 L1504.88 1764.55 Q1506.73 1761.3 1509.69 1759.74 Q1512.65 1758.15 1516.88 1758.15 Q1517.49 1758.15 1518.22 1758.24 Q1518.95 1758.31 1519.84 1758.47 L1519.88 1764.48 Z" fill="#000000" fill-rule="nonzero" fill-opacity="1" /><path clip-path="url(#clip530)" d="M1542.22 1776.74 Q1535.12 1776.74 1532.38 1778.36 Q1529.65 1779.98 1529.65 1783.9 Q1529.65 1787.02 1531.68 1788.86 Q1533.75 1790.68 1537.29 1790.68 Q1542.16 1790.68 1545.08 1787.24 Q1548.04 1783.77 1548.04 1778.04 L1548.04 1776.74 L1542.22 1776.74 M1553.9 1774.32 L1553.9 1794.66 L1548.04 1794.66 L1548.04 1789.24 Q1546.04 1792.49 1543.05 1794.05 Q1540.05 1795.58 1535.73 1795.58 Q1530.25 1795.58 1527.01 1792.52 Q1523.79 1789.44 1523.79 1784.28 Q1523.79 1778.26 1527.8 1775.21 Q1531.84 1772.15 1539.83 1772.15 L1548.04 1772.15 L1548.04 1771.58 Q1548.04 1767.54 1545.37 1765.34 Q1542.73 1763.11 1537.92 1763.11 Q1534.87 1763.11 1531.97 1763.85 Q1529.07 1764.58 1526.4 1766.04 L1526.4 1760.63 Q1529.62 1759.39 1532.64 1758.78 Q1535.66 1758.15 1538.53 1758.15 Q1546.26 1758.15 1550.08 1762.16 Q1553.9 1766.17 1553.9 1774.32 Z" fill="#000000" fill-rule="nonzero" fill-opacity="1" /><path clip-path="url(#clip530)" d="M1589.42 1764.42 L1589.42 1745.13 L1595.28 1745.13 L1595.28 1794.66 L1589.42 1794.66 L1589.42 1789.31 Q1587.57 1792.49 1584.74 1794.05 Q1581.94 1795.58 1577.99 1795.58 Q1571.53 1795.58 1567.46 1790.42 Q1563.42 1785.27 1563.42 1776.86 Q1563.42 1768.46 1567.46 1763.3 Q1571.53 1758.15 1577.99 1758.15 Q1581.94 1758.15 1584.74 1759.71 Q1587.57 1761.24 1589.42 1764.42 M1569.46 1776.86 Q1569.46 1783.32 1572.11 1787.02 Q1574.78 1790.68 1579.43 1790.68 Q1584.07 1790.68 1586.75 1787.02 Q1589.42 1783.32 1589.42 1776.86 Q1589.42 1770.4 1586.75 1766.74 Q1584.07 1763.05 1579.43 1763.05 Q1574.78 1763.05 1572.11 1766.74 Q1569.46 1770.4 1569.46 1776.86 Z" fill="#000000" fill-rule="nonzero" fill-opacity="1" /><path clip-path="url(#clip530)" d="M1607.34 1759.01 L1613.2 1759.01 L1613.2 1794.66 L1607.34 1794.66 L1607.34 1759.01 M1607.34 1745.13 L1613.2 1745.13 L1613.2 1752.55 L1607.34 1752.55 L1607.34 1745.13 Z" fill="#000000" fill-rule="nonzero" fill-opacity="1" /><path clip-path="url(#clip530)" d="M1655.08 1773.14 L1655.08 1794.66 L1649.23 1794.66 L1649.23 1773.33 Q1649.23 1768.27 1647.25 1765.76 Q1645.28 1763.24 1641.33 1763.24 Q1636.59 1763.24 1633.85 1766.26 Q1631.12 1769.29 1631.12 1774.51 L1631.12 1794.66 L1625.23 1794.66 L1625.23 1759.01 L1631.12 1759.01 L1631.12 1764.55 Q1633.22 1761.33 1636.05 1759.74 Q1638.91 1758.15 1642.64 1758.15 Q1648.78 1758.15 1651.93 1761.97 Q1655.08 1765.76 1655.08 1773.14 Z" fill="#000000" fill-rule="nonzero" fill-opacity="1" /><path clip-path="url(#clip530)" d="M1690.22 1776.42 Q1690.22 1770.05 1687.58 1766.55 Q1684.97 1763.05 1680.23 1763.05 Q1675.52 1763.05 1672.88 1766.55 Q1670.27 1770.05 1670.27 1776.42 Q1670.27 1782.75 1672.88 1786.25 Q1675.52 1789.75 1680.23 1789.75 Q1684.97 1789.75 1687.58 1786.25 Q1690.22 1782.75 1690.22 1776.42 M1696.08 1790.23 Q1696.08 1799.33 1692.04 1803.76 Q1687.99 1808.21 1679.65 1808.21 Q1676.57 1808.21 1673.83 1807.74 Q1671.09 1807.29 1668.51 1806.34 L1668.51 1800.64 Q1671.09 1802.04 1673.61 1802.71 Q1676.12 1803.38 1678.73 1803.38 Q1684.49 1803.38 1687.36 1800.35 Q1690.22 1797.36 1690.22 1791.28 L1690.22 1788.39 Q1688.41 1791.54 1685.57 1793.1 Q1682.74 1794.66 1678.8 1794.66 Q1672.24 1794.66 1668.23 1789.66 Q1664.22 1784.66 1664.22 1776.42 Q1664.22 1768.14 1668.23 1763.15 Q1672.24 1758.15 1678.8 1758.15 Q1682.74 1758.15 1685.57 1759.71 Q1688.41 1761.27 1690.22 1764.42 L1690.22 1759.01 L1696.08 1759.01 L1696.08 1790.23 Z" fill="#000000" fill-rule="nonzero" fill-opacity="1" /><path clip-path="url(#clip530)" d="M1752.32 1764.42 L1752.32 1745.13 L1758.18 1745.13 L1758.18 1794.66 L1752.32 1794.66 L1752.32 1789.31 Q1750.47 1792.49 1747.64 1794.05 Q1744.84 1795.58 1740.89 1795.58 Q1734.43 1795.58 1730.36 1790.42 Q1726.32 1785.27 1726.32 1776.86 Q1726.32 1768.46 1730.36 1763.3 Q1734.43 1758.15 1740.89 1758.15 Q1744.84 1758.15 1747.64 1759.71 Q1750.47 1761.24 1752.32 1764.42 M1732.36 1776.86 Q1732.36 1783.32 1735 1787.02 Q1737.68 1790.68 1742.33 1790.68 Q1746.97 1790.68 1749.65 1787.02 Q1752.32 1783.32 1752.32 1776.86 Q1752.32 1770.4 1749.65 1766.74 Q1746.97 1763.05 1742.33 1763.05 Q1737.68 1763.05 1735 1766.74 Q1732.36 1770.4 1732.36 1776.86 Z" fill="#000000" fill-rule="nonzero" fill-opacity="1" /><path clip-path="url(#clip530)" d="M1786.44 1776.74 Q1779.34 1776.74 1776.6 1778.36 Q1773.87 1779.98 1773.87 1783.9 Q1773.87 1787.02 1775.9 1788.86 Q1777.97 1790.68 1781.51 1790.68 Q1786.38 1790.68 1789.3 1787.24 Q1792.26 1783.77 1792.26 1778.04 L1792.26 1776.74 L1786.44 1776.74 M1798.12 1774.32 L1798.12 1794.66 L1792.26 1794.66 L1792.26 1789.24 Q1790.26 1792.49 1787.27 1794.05 Q1784.28 1795.58 1779.95 1795.58 Q1774.47 1795.58 1771.23 1792.52 Q1768.01 1789.44 1768.01 1784.28 Q1768.01 1778.26 1772.02 1775.21 Q1776.06 1772.15 1784.05 1772.15 L1792.26 1772.15 L1792.26 1771.58 Q1792.26 1767.54 1789.59 1765.34 Q1786.95 1763.11 1782.14 1763.11 Q1779.09 1763.11 1776.19 1763.85 Q1773.29 1764.58 1770.62 1766.04 L1770.62 1760.63 Q1773.84 1759.39 1776.86 1758.78 Q1779.88 1758.15 1782.75 1758.15 Q1790.48 1758.15 1794.3 1762.16 Q1798.12 1766.17 1798.12 1774.32 Z" fill="#000000" fill-rule="nonzero" fill-opacity="1" /><path clip-path="url(#clip530)" d="M1825.02 1797.97 Q1822.53 1804.33 1820.18 1806.27 Q1817.82 1808.21 1813.88 1808.21 L1809.2 1808.21 L1809.2 1803.31 L1812.63 1803.31 Q1815.05 1803.31 1816.39 1802.17 Q1817.73 1801.02 1819.35 1796.76 L1820.4 1794.08 L1805.98 1759.01 L1812.19 1759.01 L1823.33 1786.89 L1834.47 1759.01 L1840.68 1759.01 L1825.02 1797.97 Z" fill="#000000" fill-rule="nonzero" fill-opacity="1" /><path clip-path="url(#clip530)" d="M1871.49 1760.06 L1871.49 1765.6 Q1869 1764.32 1866.33 1763.69 Q1863.66 1763.05 1860.79 1763.05 Q1856.43 1763.05 1854.23 1764.39 Q1852.07 1765.72 1852.07 1768.4 Q1852.07 1770.43 1853.63 1771.61 Q1855.19 1772.76 1859.9 1773.81 L1861.9 1774.25 Q1868.14 1775.59 1870.75 1778.04 Q1873.4 1780.46 1873.4 1784.82 Q1873.4 1789.79 1869.45 1792.68 Q1865.53 1795.58 1858.66 1795.58 Q1855.79 1795.58 1852.67 1795.01 Q1849.59 1794.46 1846.15 1793.35 L1846.15 1787.3 Q1849.4 1788.99 1852.55 1789.85 Q1855.7 1790.68 1858.79 1790.68 Q1862.92 1790.68 1865.15 1789.28 Q1867.38 1787.84 1867.38 1785.27 Q1867.38 1782.88 1865.76 1781.61 Q1864.16 1780.33 1858.72 1779.16 L1856.69 1778.68 Q1851.24 1777.53 1848.82 1775.18 Q1846.4 1772.79 1846.4 1768.65 Q1846.4 1763.62 1849.97 1760.89 Q1853.53 1758.15 1860.09 1758.15 Q1863.34 1758.15 1866.2 1758.63 Q1869.07 1759.1 1871.49 1760.06 Z" fill="#000000" fill-rule="nonzero" fill-opacity="1" /><path clip-path="url(#clip530)" d="M1881.8 1745.19 L1886.89 1745.19 Q1891.66 1752.71 1894.02 1759.9 Q1896.41 1767.09 1896.41 1774.19 Q1896.41 1781.32 1894.02 1788.54 Q1891.66 1795.77 1886.89 1803.25 L1881.8 1803.25 Q1886.03 1795.96 1888.1 1788.77 Q1890.2 1781.54 1890.2 1774.19 Q1890.2 1766.84 1888.1 1759.68 Q1886.03 1752.51 1881.8 1745.19 Z" fill="#000000" fill-rule="nonzero" fill-opacity="1" /><polyline clip-path="url(#clip530)" style="stroke:#000000; stroke-linecap:round; stroke-linejoin:round; stroke-width:4; stroke-opacity:1; fill:none" points="532.517,1630.83 532.517,125.984 "/>
<polyline clip-path="url(#clip530)" style="stroke:#000000; stroke-linecap:round; stroke-linejoin:round; stroke-width:4; stroke-opacity:1; fill:none" points="532.517,1515.27 551.414,1515.27 "/>
<polyline clip-path="url(#clip530)" style="stroke:#000000; stroke-linecap:round; stroke-linejoin:round; stroke-width:4; stroke-opacity:1; fill:none" points="532.517,1232.62 551.414,1232.62 "/>
<polyline clip-path="url(#clip530)" style="stroke:#000000; stroke-linecap:round; stroke-linejoin:round; stroke-width:4; stroke-opacity:1; fill:none" points="532.517,949.974 551.414,949.974 "/>
<polyline clip-path="url(#clip530)" style="stroke:#000000; stroke-linecap:round; stroke-linejoin:round; stroke-width:4; stroke-opacity:1; fill:none" points="532.517,667.325 551.414,667.325 "/>
<polyline clip-path="url(#clip530)" style="stroke:#000000; stroke-linecap:round; stroke-linejoin:round; stroke-width:4; stroke-opacity:1; fill:none" points="532.517,384.676 551.414,384.676 "/>
<path clip-path="url(#clip530)" d="M320.379 1515.84 L357.474 1515.84 L357.474 1520.76 L320.379 1520.76 L320.379 1515.84 Z" fill="#000000" fill-rule="nonzero" fill-opacity="1" /><path clip-path="url(#clip530)" d="M382.589 1497.52 Q378.075 1497.52 375.789 1501.98 Q373.533 1506.4 373.533 1515.32 Q373.533 1524.2 375.789 1528.65 Q378.075 1533.08 382.589 1533.08 Q387.132 1533.08 389.389 1528.65 Q391.675 1524.2 391.675 1515.32 Q391.675 1506.4 389.389 1501.98 Q387.132 1497.52 382.589 1497.52 M382.589 1492.89 Q389.852 1492.89 393.671 1498.65 Q397.52 1504.38 397.52 1515.32 Q397.52 1526.22 393.671 1531.98 Q389.852 1537.71 382.589 1537.71 Q375.326 1537.71 371.478 1531.98 Q367.659 1526.22 367.659 1515.32 Q367.659 1504.38 371.478 1498.65 Q375.326 1492.89 382.589 1492.89 Z" fill="#000000" fill-rule="nonzero" fill-opacity="1" /><path clip-path="url(#clip530)" d="M407.792 1529.52 L413.897 1529.52 L413.897 1536.87 L407.792 1536.87 L407.792 1529.52 Z" fill="#000000" fill-rule="nonzero" fill-opacity="1" /><path clip-path="url(#clip530)" d="M439.128 1497.52 Q434.614 1497.52 432.328 1501.98 Q430.072 1506.4 430.072 1515.32 Q430.072 1524.2 432.328 1528.65 Q434.614 1533.08 439.128 1533.08 Q443.671 1533.08 445.928 1528.65 Q448.214 1524.2 448.214 1515.32 Q448.214 1506.4 445.928 1501.98 Q443.671 1497.52 439.128 1497.52 M439.128 1492.89 Q446.391 1492.89 450.21 1498.65 Q454.059 1504.38 454.059 1515.32 Q454.059 1526.22 450.21 1531.98 Q446.391 1537.71 439.128 1537.71 Q431.866 1537.71 428.017 1531.98 Q424.198 1526.22 424.198 1515.32 Q424.198 1504.38 428.017 1498.65 Q431.866 1492.89 439.128 1492.89 Z" fill="#000000" fill-rule="nonzero" fill-opacity="1" /><path clip-path="url(#clip530)" d="M464.388 1493.67 L487.334 1493.67 L487.334 1498.59 L469.741 1498.59 L469.741 1509.18 Q471.015 1508.75 472.288 1508.54 Q473.561 1508.31 474.834 1508.31 Q482.068 1508.31 486.292 1512.28 Q490.517 1516.24 490.517 1523.01 Q490.517 1529.99 486.177 1533.86 Q481.836 1537.71 473.937 1537.71 Q471.217 1537.71 468.382 1537.25 Q465.575 1536.79 462.566 1535.86 L462.566 1529.99 Q465.17 1531.4 467.948 1532.1 Q470.725 1532.79 473.821 1532.79 Q478.827 1532.79 481.75 1530.16 Q484.672 1527.53 484.672 1523.01 Q484.672 1518.5 481.75 1515.87 Q478.827 1513.23 473.821 1513.23 Q471.478 1513.23 469.134 1513.75 Q466.819 1514.27 464.388 1515.37 L464.388 1493.67 Z" fill="#000000" fill-rule="nonzero" fill-opacity="1" /><path clip-path="url(#clip530)" d="M381.345 1214.87 Q376.831 1214.87 374.545 1219.33 Q372.288 1223.75 372.288 1232.67 Q372.288 1241.55 374.545 1246.01 Q376.831 1250.43 381.345 1250.43 Q385.888 1250.43 388.145 1246.01 Q390.431 1241.55 390.431 1232.67 Q390.431 1223.75 388.145 1219.33 Q385.888 1214.87 381.345 1214.87 M381.345 1210.24 Q388.608 1210.24 392.427 1216 Q396.275 1221.73 396.275 1232.67 Q396.275 1243.57 392.427 1249.33 Q388.608 1255.06 381.345 1255.06 Q374.082 1255.06 370.234 1249.33 Q366.414 1243.57 366.414 1232.67 Q366.414 1221.73 370.234 1216 Q374.082 1210.24 381.345 1210.24 Z" fill="#000000" fill-rule="nonzero" fill-opacity="1" /><path clip-path="url(#clip530)" d="M406.547 1246.87 L412.653 1246.87 L412.653 1254.22 L406.547 1254.22 L406.547 1246.87 Z" fill="#000000" fill-rule="nonzero" fill-opacity="1" /><path clip-path="url(#clip530)" d="M437.884 1214.87 Q433.37 1214.87 431.084 1219.33 Q428.827 1223.75 428.827 1232.67 Q428.827 1241.55 431.084 1246.01 Q433.37 1250.43 437.884 1250.43 Q442.427 1250.43 444.684 1246.01 Q446.97 1241.55 446.97 1232.67 Q446.97 1223.75 444.684 1219.33 Q442.427 1214.87 437.884 1214.87 M437.884 1210.24 Q445.147 1210.24 448.966 1216 Q452.814 1221.73 452.814 1232.67 Q452.814 1243.57 448.966 1249.33 Q445.147 1255.06 437.884 1255.06 Q430.621 1255.06 426.773 1249.33 Q422.954 1243.57 422.954 1232.67 Q422.954 1221.73 426.773 1216 Q430.621 1210.24 437.884 1210.24 Z" fill="#000000" fill-rule="nonzero" fill-opacity="1" /><path clip-path="url(#clip530)" d="M475.586 1214.87 Q471.072 1214.87 468.787 1219.33 Q466.53 1223.75 466.53 1232.67 Q466.53 1241.55 468.787 1246.01 Q471.072 1250.43 475.586 1250.43 Q480.129 1250.43 482.386 1246.01 Q484.672 1241.55 484.672 1232.67 Q484.672 1223.75 482.386 1219.33 Q480.129 1214.87 475.586 1214.87 M475.586 1210.24 Q482.849 1210.24 486.668 1216 Q490.517 1221.73 490.517 1232.67 Q490.517 1243.57 486.668 1249.33 Q482.849 1255.06 475.586 1255.06 Q468.324 1255.06 464.475 1249.33 Q460.656 1243.57 460.656 1232.67 Q460.656 1221.73 464.475 1216 Q468.324 1210.24 475.586 1210.24 Z" fill="#000000" fill-rule="nonzero" fill-opacity="1" /><path clip-path="url(#clip530)" d="M382.589 932.222 Q378.075 932.222 375.789 936.678 Q373.533 941.105 373.533 950.017 Q373.533 958.9 375.789 963.356 Q378.075 967.783 382.589 967.783 Q387.132 967.783 389.389 963.356 Q391.675 958.9 391.675 950.017 Q391.675 941.105 389.389 936.678 Q387.132 932.222 382.589 932.222 M382.589 927.593 Q389.852 927.593 393.671 933.351 Q397.52 939.08 397.52 950.017 Q397.52 960.926 393.671 966.684 Q389.852 972.413 382.589 972.413 Q375.326 972.413 371.478 966.684 Q367.659 960.926 367.659 950.017 Q367.659 939.08 371.478 933.351 Q375.326 927.593 382.589 927.593 Z" fill="#000000" fill-rule="nonzero" fill-opacity="1" /><path clip-path="url(#clip530)" d="M407.792 964.224 L413.897 964.224 L413.897 971.574 L407.792 971.574 L407.792 964.224 Z" fill="#000000" fill-rule="nonzero" fill-opacity="1" /><path clip-path="url(#clip530)" d="M439.128 932.222 Q434.614 932.222 432.328 936.678 Q430.072 941.105 430.072 950.017 Q430.072 958.9 432.328 963.356 Q434.614 967.783 439.128 967.783 Q443.671 967.783 445.928 963.356 Q448.214 958.9 448.214 950.017 Q448.214 941.105 445.928 936.678 Q443.671 932.222 439.128 932.222 M439.128 927.593 Q446.391 927.593 450.21 933.351 Q454.059 939.08 454.059 950.017 Q454.059 960.926 450.21 966.684 Q446.391 972.413 439.128 972.413 Q431.866 972.413 428.017 966.684 Q424.198 960.926 424.198 950.017 Q424.198 939.08 428.017 933.351 Q431.866 927.593 439.128 927.593 Z" fill="#000000" fill-rule="nonzero" fill-opacity="1" /><path clip-path="url(#clip530)" d="M464.388 928.374 L487.334 928.374 L487.334 933.293 L469.741 933.293 L469.741 943.883 Q471.015 943.449 472.288 943.246 Q473.561 943.015 474.834 943.015 Q482.068 943.015 486.292 946.979 Q490.517 950.943 490.517 957.714 Q490.517 964.687 486.177 968.565 Q481.836 972.413 473.937 972.413 Q471.217 972.413 468.382 971.95 Q465.575 971.487 462.566 970.561 L462.566 964.687 Q465.17 966.105 467.948 966.8 Q470.725 967.494 473.821 967.494 Q478.827 967.494 481.75 964.861 Q484.672 962.228 484.672 957.714 Q484.672 953.2 481.75 950.567 Q478.827 947.934 473.821 947.934 Q471.478 947.934 469.134 948.455 Q466.819 948.976 464.388 950.075 L464.388 928.374 Z" fill="#000000" fill-rule="nonzero" fill-opacity="1" /><path clip-path="url(#clip530)" d="M381.345 649.573 Q376.831 649.573 374.545 654.029 Q372.288 658.456 372.288 667.368 Q372.288 676.251 374.545 680.707 Q376.831 685.134 381.345 685.134 Q385.888 685.134 388.145 680.707 Q390.431 676.251 390.431 667.368 Q390.431 658.456 388.145 654.029 Q385.888 649.573 381.345 649.573 M381.345 644.944 Q388.608 644.944 392.427 650.702 Q396.275 656.431 396.275 667.368 Q396.275 678.277 392.427 684.035 Q388.608 689.764 381.345 689.764 Q374.082 689.764 370.234 684.035 Q366.414 678.277 366.414 667.368 Q366.414 656.431 370.234 650.702 Q374.082 644.944 381.345 644.944 Z" fill="#000000" fill-rule="nonzero" fill-opacity="1" /><path clip-path="url(#clip530)" d="M406.547 681.575 L412.653 681.575 L412.653 688.925 L406.547 688.925 L406.547 681.575 Z" fill="#000000" fill-rule="nonzero" fill-opacity="1" /><path clip-path="url(#clip530)" d="M426.397 684.006 L435.945 684.006 L435.945 651.049 L425.558 653.132 L425.558 647.808 L435.887 645.725 L441.732 645.725 L441.732 684.006 L451.281 684.006 L451.281 688.925 L426.397 688.925 L426.397 684.006 Z" fill="#000000" fill-rule="nonzero" fill-opacity="1" /><path clip-path="url(#clip530)" d="M475.586 649.573 Q471.072 649.573 468.787 654.029 Q466.53 658.456 466.53 667.368 Q466.53 676.251 468.787 680.707 Q471.072 685.134 475.586 685.134 Q480.129 685.134 482.386 680.707 Q484.672 676.251 484.672 667.368 Q484.672 658.456 482.386 654.029 Q480.129 649.573 475.586 649.573 M475.586 644.944 Q482.849 644.944 486.668 650.702 Q490.517 656.431 490.517 667.368 Q490.517 678.277 486.668 684.035 Q482.849 689.764 475.586 689.764 Q468.324 689.764 464.475 684.035 Q460.656 678.277 460.656 667.368 Q460.656 656.431 464.475 650.702 Q468.324 644.944 475.586 644.944 Z" fill="#000000" fill-rule="nonzero" fill-opacity="1" /><path clip-path="url(#clip530)" d="M382.589 366.924 Q378.075 366.924 375.789 371.38 Q373.533 375.807 373.533 384.719 Q373.533 393.602 375.789 398.058 Q378.075 402.485 382.589 402.485 Q387.132 402.485 389.389 398.058 Q391.675 393.602 391.675 384.719 Q391.675 375.807 389.389 371.38 Q387.132 366.924 382.589 366.924 M382.589 362.295 Q389.852 362.295 393.671 368.053 Q397.52 373.782 397.52 384.719 Q397.52 395.628 393.671 401.386 Q389.852 407.115 382.589 407.115 Q375.326 407.115 371.478 401.386 Q367.659 395.628 367.659 384.719 Q367.659 373.782 371.478 368.053 Q375.326 362.295 382.589 362.295 Z" fill="#000000" fill-rule="nonzero" fill-opacity="1" /><path clip-path="url(#clip530)" d="M407.792 398.926 L413.897 398.926 L413.897 406.276 L407.792 406.276 L407.792 398.926 Z" fill="#000000" fill-rule="nonzero" fill-opacity="1" /><path clip-path="url(#clip530)" d="M427.641 401.357 L437.19 401.357 L437.19 368.4 L426.802 370.483 L426.802 365.159 L437.132 363.076 L442.977 363.076 L442.977 401.357 L452.525 401.357 L452.525 406.276 L427.641 406.276 L427.641 401.357 Z" fill="#000000" fill-rule="nonzero" fill-opacity="1" /><path clip-path="url(#clip530)" d="M464.388 363.076 L487.334 363.076 L487.334 367.995 L469.741 367.995 L469.741 378.585 Q471.015 378.151 472.288 377.948 Q473.561 377.717 474.834 377.717 Q482.068 377.717 486.292 381.681 Q490.517 385.645 490.517 392.416 Q490.517 399.389 486.177 403.267 Q481.836 407.115 473.937 407.115 Q471.217 407.115 468.382 406.652 Q465.575 406.189 462.566 405.263 L462.566 399.389 Q465.17 400.807 467.948 401.501 Q470.725 402.196 473.821 402.196 Q478.827 402.196 481.75 399.563 Q484.672 396.93 484.672 392.416 Q484.672 387.902 481.75 385.269 Q478.827 382.636 473.821 382.636 Q471.478 382.636 469.134 383.157 Q466.819 383.678 464.388 384.777 L464.388 363.076 Z" fill="#000000" fill-rule="nonzero" fill-opacity="1" /><path clip-path="url(#clip530)" d="M222.937 1004.56 L246.585 1013.28 L246.585 995.807 L222.937 1004.56 M216.603 1008.19 L216.603 1000.9 L264.123 982.79 L264.123 989.474 L251.933 993.802 L251.933 1015.22 L264.123 1019.55 L264.123 1026.33 L216.603 1008.19 Z" fill="#000000" fill-rule="nonzero" fill-opacity="1" /><path clip-path="url(#clip530)" d="M220.263 941.412 L227.043 941.412 Q224.019 944.659 222.523 948.351 Q221.027 952.011 221.027 956.149 Q221.027 964.297 226.024 968.626 Q230.989 972.955 240.411 972.955 Q249.8 972.955 254.797 968.626 Q259.762 964.297 259.762 956.149 Q259.762 952.011 258.266 948.351 Q256.77 944.659 253.747 941.412 L260.463 941.412 Q262.754 944.786 263.9 948.574 Q265.046 952.33 265.046 956.531 Q265.046 967.321 258.457 973.527 Q251.837 979.734 240.411 979.734 Q228.952 979.734 222.364 973.527 Q215.743 967.321 215.743 956.531 Q215.743 952.266 216.889 948.51 Q218.003 944.723 220.263 941.412 Z" fill="#000000" fill-rule="nonzero" fill-opacity="1" /><path clip-path="url(#clip530)" d="M216.603 931.482 L216.603 904.173 L222.014 904.173 L222.014 925.053 L236.018 925.053 L236.018 906.21 L241.429 906.21 L241.429 925.053 L264.123 925.053 L264.123 931.482 L216.603 931.482 Z" fill="#000000" fill-rule="nonzero" fill-opacity="1" /><path clip-path="url(#clip530)" d="M232.581 859.709 Q232.581 864.419 236.273 867.156 Q239.933 869.894 246.331 869.894 Q252.728 869.894 256.42 867.188 Q260.081 864.451 260.081 859.709 Q260.081 855.03 256.389 852.293 Q252.696 849.555 246.331 849.555 Q239.997 849.555 236.305 852.293 Q232.581 855.03 232.581 859.709 M227.616 859.709 Q227.616 852.07 232.581 847.709 Q237.546 843.349 246.331 843.349 Q255.084 843.349 260.081 847.709 Q265.046 852.07 265.046 859.709 Q265.046 867.379 260.081 871.74 Q255.084 876.068 246.331 876.068 Q237.546 876.068 232.581 871.74 Q227.616 867.379 227.616 859.709 Z" fill="#000000" fill-rule="nonzero" fill-opacity="1" /><path clip-path="url(#clip530)" d="M214.598 815.594 L219.467 815.594 L219.467 821.196 Q219.467 824.347 220.741 825.588 Q222.014 826.798 225.324 826.798 L228.475 826.798 L228.475 817.154 L233.026 817.154 L233.026 826.798 L264.123 826.798 L264.123 832.686 L233.026 832.686 L233.026 838.288 L228.475 838.288 L228.475 832.686 L225.992 832.686 Q220.04 832.686 217.335 829.917 Q214.598 827.148 214.598 821.132 L214.598 815.594 Z" fill="#000000" fill-rule="nonzero" fill-opacity="1" /><path clip-path="url(#clip530)" d="M257.343 757.316 L244.58 757.316 L244.58 767.82 L239.297 767.82 L239.297 750.951 L259.699 750.951 Q262.34 754.674 263.709 759.162 Q265.046 763.65 265.046 768.743 Q265.046 779.883 258.553 786.185 Q252.028 792.455 240.411 792.455 Q228.761 792.455 222.268 786.185 Q215.743 779.883 215.743 768.743 Q215.743 764.096 216.889 759.926 Q218.035 755.725 220.263 752.192 L227.106 752.192 Q224.083 755.757 222.555 759.767 Q221.027 763.777 221.027 768.202 Q221.027 776.923 225.897 781.315 Q230.767 785.675 240.411 785.675 Q250.023 785.675 254.893 781.315 Q259.762 776.923 259.762 768.202 Q259.762 764.796 259.189 762.122 Q258.585 759.449 257.343 757.316 Z" fill="#000000" fill-rule="nonzero" fill-opacity="1" /><path clip-path="url(#clip530)" d="M238.501 738.092 L244.166 738.092 L244.166 730.485 L246.713 730.485 L246.713 738.092 L257.534 738.092 Q259.985 738.092 260.685 737.328 Q261.386 736.564 261.386 734.272 L261.386 730.485 L264.123 730.485 L264.123 734.272 Q264.123 738.537 262.691 740.161 Q261.29 741.784 257.534 741.784 L246.713 741.784 L246.713 744.489 L244.166 744.489 L244.166 741.784 L238.501 741.784 L238.501 738.092 Z" fill="#000000" fill-rule="nonzero" fill-opacity="1" /><polyline clip-path="url(#clip531)" style="stroke:#d45e00; stroke-linecap:round; stroke-linejoin:round; stroke-width:8; stroke-opacity:1; fill:none" stroke-dasharray="32, 20" points="593.125,168.574 601.174,1163.28 609.223,1332.18 617.272,1287.47 625.321,1369.98 633.37,1443.43 641.419,881.318 649.468,1313.68 657.517,878.044 665.566,1336.41 673.615,1216.55 681.664,1322.18 689.712,1328.84 697.761,1313.79 705.81,1527.34 713.859,1081.02 721.908,1211.36 729.957,1274.96 738.006,1189.82 746.055,1055.04 754.104,1334.63 762.153,1558.18 770.202,1499.08 778.251,1358.35 786.3,1353.36 794.349,1450.33 802.398,1244.38 810.446,1130.6 818.495,1189.47 826.544,1398.51 834.593,1588.24 842.642,1522.57 850.691,1169.97 858.74,1159.67 866.789,1212.53 874.838,1003.17 882.887,1271.28 890.936,1197.67 898.985,1325.99 907.034,1404.91 915.083,1411.56 923.132,1217.77 931.18,1214.67 939.229,1262.35 947.278,1256.04 955.327,1418.11 963.376,1122.55 971.425,1267.2 979.474,1334.13 987.523,1314.54 995.572,1313.87 1003.62,1172.96 1011.67,1258.8 1019.72,1108.69 1027.77,1346.84 1035.82,1264.92 1043.87,1396.12 1051.91,1250.13 1059.96,1205.77 1068.01,1277.4 1076.06,1201.42 1084.11,1431.59 1092.16,1001.59 1100.21,1223.25 1108.26,1321.69 1116.31,1278.37 1124.35,1338.57 1132.4,1187.95 1140.45,1178.16 1148.5,1130.51 1156.55,1293.85 1164.6,1047.54 1172.65,1205.88 1180.7,1361.79 1188.75,1276.82 1196.8,1186.45 1204.84,1274.36 1212.89,1243.84 1220.94,1295.75 1228.99,1378.19 1237.04,1016.88 1245.09,983.491 1253.14,1221.62 1261.19,1388.78 1269.24,1361.06 1277.28,1355.97 1285.33,1158.63 1293.38,1138.4 1301.43,1286.32 1309.48,1181.84 1317.53,1278.47 1325.58,1315.18 1333.63,1451.91 1341.68,1350.94 1349.72,1242.06 1357.77,1036.66 1365.82,773.894 1373.87,1120.67 1381.92,1252.94 1389.97,1175.62 1398.02,1135.13 1406.07,1301.67 1414.12,1156.58 1422.17,1218.66 1430.21,1289.49 1438.26,1051.02 1446.31,1308.64 1454.36,1257.8 1462.41,1354.28 1470.46,1145.58 1478.51,1198.17 1486.56,1172.55 1494.61,1243.64 1502.65,1452.72 1510.7,1277.94 1518.75,1246.01 1526.8,1011.65 1534.85,1182.84 1542.9,1193.95 1550.95,1264.95 1559,1233.35 1567.05,1214.75 1575.1,1226.62 1583.14,1316.55 1591.19,1279.66 1599.24,1187.02 1607.29,1291.29 1615.34,1273.22 1623.39,1329.61 1631.44,1217.6 1639.49,1282.2 1647.54,1383.87 1655.58,1133.32 1663.63,1157.07 1671.68,923.925 1679.73,1395.02 1687.78,1277.36 1695.83,1213.05 1703.88,1251.36 1711.93,1463.66 1719.98,1425.37 1728.02,1153.68 1736.07,1345.43 1744.12,1275.62 1752.17,1277.79 1760.22,1163.62 1768.27,1141.73 1776.32,1200.23 1784.37,1174.47 1792.42,1237.42 1800.47,936.446 1808.51,1084.1 1816.56,1092.26 1824.61,967.124 1832.66,1060.7 1840.71,1191.46 1848.76,1318.03 1856.81,1184.66 1864.86,1076.79 1872.91,1102.18 1880.95,1328.65 1889,1280.25 1897.05,1153.75 1905.1,1351.55 1913.15,1300.88 1921.2,1198.06 1929.25,1173.81 1937.3,1157.75 1945.35,1244.54 1953.39,1440.19 1961.44,1178.49 1969.49,1118.77 1977.54,1164.3 1985.59,1424.86 1993.64,1183.31 2001.69,1270.48 2009.74,1348.58 2017.79,1210.14 2025.84,1158.44 2033.88,1172.69 2041.93,1490.75 2049.98,1324.17 2058.03,1335.15 2066.08,1145.57 2074.13,1158.76 2082.18,1115.6 2090.23,1063.07 2098.28,1281.7 2106.32,1349.9 2114.37,1422.05 2122.42,1270.26 2130.47,1312.29 2138.52,1175.58 2146.57,1185.88 2154.62,1277.98 2162.67,1157.79 2170.72,1282.39 2178.76,1369.14 2186.81,1226.59 2194.86,1234.49 2202.91,1160.51 2210.96,1195.92 2219.01,1218.27 2227.06,1379.78 2235.11,1225.47 2243.16,1101.86 2251.21,1039.8 2259.25,1303.69 2267.3,1289.64 2275.35,1196.05 2283.4,1299.49 2291.45,1128.72 2299.5,1256.24 2307.55,1181.08 2315.6,1285.05 2323.65,1290.39 2331.69,1087.73 2339.74,1202.49 2347.79,1097 2355.84,1228.82 2363.89,1314.41 2371.94,1488.59 2379.99,1191.43 2388.04,1211.81 2396.09,1233.1 2404.14,1279.37 2412.18,1372.08 2420.23,1514.57 2428.28,1240.26 2436.33,1296.02 2444.38,1168.44 2452.43,1130.83 2460.48,1323.3 2468.53,1371.49 2476.58,1291.36 2484.62,1370.25 2492.67,1385.97 2500.72,1090.82 2508.77,1162.58 2516.82,1213.9 2524.87,1210.36 2532.92,1198.8 2540.97,1237.39 2549.02,1208.1 2557.06,1035.75 2565.11,1205.24 2573.16,1303.8 2581.21,1198.07 2589.26,1180.76 2597.31,1208.61 2605.36,1182.29 2613.41,1329.12 "/>
<polyline clip-path="url(#clip531)" style="stroke:#009e73; stroke-linecap:round; stroke-linejoin:round; stroke-width:8; stroke-opacity:1; fill:none" points="593.125,988.779 601.174,1114.67 609.223,1150.88 617.272,1195.06 625.321,1168.06 633.37,1161.18 641.419,1215.04 649.468,1189.35 657.517,1203.66 665.566,1205.85 673.615,1203.37 681.664,1200.43 689.712,1225.81 697.761,1218.05 705.81,1195.95 713.859,1212.2 721.908,1203.4 729.957,1223.17 738.006,1212.07 746.055,1232.53 754.104,1239.87 762.153,1221.75 770.202,1225.34 778.251,1219.36 786.3,1212.42 794.349,1231.84 802.398,1233.15 810.446,1228.08 818.495,1237.01 826.544,1235.39 834.593,1236.33 842.642,1221.33 850.691,1229.22 858.74,1224.66 866.789,1244.9 874.838,1238.94 882.887,1224.5 890.936,1227.53 898.985,1230.28 907.034,1233.93 915.083,1233.16 923.132,1234.74 931.18,1247.79 939.229,1238.92 947.278,1228.17 955.327,1234.37 963.376,1236.65 971.425,1237.72 979.474,1228.89 987.523,1231.63 995.572,1235.83 1003.62,1230.27 1011.67,1218.53 1019.72,1225.64 1027.77,1240.32 1035.82,1243.2 1043.87,1239.5 1051.91,1246.41 1059.96,1233.17 1068.01,1227.12 1076.06,1243.11 1084.11,1243.6 1092.16,1228.52 1100.21,1225.52 1108.26,1240.13 1116.31,1248.9 1124.35,1237.62 1132.4,1240.07 1140.45,1238.8 1148.5,1233.09 1156.55,1233.52 1164.6,1227.67 1172.65,1247.82 1180.7,1239.47 1188.75,1225.68 1196.8,1235.63 1204.84,1224.29 1212.89,1248.64 1220.94,1221.73 1228.99,1239.68 1237.04,1225.29 1245.09,1240.72 1253.14,1223.28 1261.19,1224.99 1269.24,1237.63 1277.28,1221.53 1285.33,1228.66 1293.38,1224.91 1301.43,1226.43 1309.48,1232.68 1317.53,1219.85 1325.58,1229.21 1333.63,1257.03 1341.68,1232.28 1349.72,1228.18 1357.77,1227.83 1365.82,1225.67 1373.87,1242.79 1381.92,1240.94 1389.97,1234.75 1398.02,1239.87 1406.07,1237.17 1414.12,1231.09 1422.17,1248.95 1430.21,1230.45 1438.26,1236.78 1446.31,1240.93 1454.36,1234.42 1462.41,1226.14 1470.46,1247.45 1478.51,1239.71 1486.56,1241.12 1494.61,1239.46 1502.65,1223.52 1510.7,1240.56 1518.75,1227.82 1526.8,1224.92 1534.85,1226.05 1542.9,1225.63 1550.95,1227.64 1559,1227.27 1567.05,1224.69 1575.1,1228.69 1583.14,1249.59 1591.19,1235.38 1599.24,1235.19 1607.29,1230.78 1615.34,1236.92 1623.39,1232.44 1631.44,1222.36 1639.49,1237.07 1647.54,1223.22 1655.58,1240 1663.63,1234.35 1671.68,1229.27 1679.73,1234.63 1687.78,1236.38 1695.83,1245.5 1703.88,1235.01 1711.93,1224.65 1719.98,1235.43 1728.02,1234.3 1736.07,1231.67 1744.12,1245.37 1752.17,1243.82 1760.22,1229.42 1768.27,1239.09 1776.32,1233.21 1784.37,1242.26 1792.42,1250.39 1800.47,1233.49 1808.51,1232.38 1816.56,1238.74 1824.61,1230.01 1832.66,1227.76 1840.71,1231.52 1848.76,1238.26 1856.81,1221.21 1864.86,1236.9 1872.91,1235.71 1880.95,1235.07 1889,1230.79 1897.05,1238.82 1905.1,1224.62 1913.15,1225.42 1921.2,1230.71 1929.25,1244.96 1937.3,1234.56 1945.35,1244.39 1953.39,1235.1 1961.44,1228.72 1969.49,1228.98 1977.54,1243.6 1985.59,1238.89 1993.64,1232.2 2001.69,1239.57 2009.74,1238.01 2017.79,1237.23 2025.84,1229.38 2033.88,1233.81 2041.93,1236.03 2049.98,1231.33 2058.03,1232.86 2066.08,1245.45 2074.13,1230.59 2082.18,1230.09 2090.23,1231.98 2098.28,1228.39 2106.32,1240.16 2114.37,1233.92 2122.42,1233.23 2130.47,1232.9 2138.52,1245.42 2146.57,1226.36 2154.62,1248.49 2162.67,1250.29 2170.72,1244.12 2178.76,1238.8 2186.81,1226.85 2194.86,1236.7 2202.91,1236.65 2210.96,1240.44 2219.01,1233.87 2227.06,1244.53 2235.11,1236.95 2243.16,1234.57 2251.21,1239.37 2259.25,1229.16 2267.3,1226.96 2275.35,1231.24 2283.4,1212.17 2291.45,1222.65 2299.5,1247.47 2307.55,1229.67 2315.6,1227.43 2323.65,1233.45 2331.69,1239.73 2339.74,1238.96 2347.79,1232.16 2355.84,1240.4 2363.89,1220.91 2371.94,1228.27 2379.99,1227.72 2388.04,1220.8 2396.09,1230.03 2404.14,1231.41 2412.18,1235.89 2420.23,1228.57 2428.28,1231.88 2436.33,1233.97 2444.38,1241.96 2452.43,1234.14 2460.48,1240.44 2468.53,1227.25 2476.58,1232.52 2484.62,1240.24 2492.67,1221.3 2500.72,1239.71 2508.77,1222.14 2516.82,1235.37 2524.87,1229.88 2532.92,1244.6 2540.97,1239.03 2549.02,1242.5 2557.06,1239.35 2565.11,1232.06 2573.16,1234.55 2581.21,1227.53 2589.26,1236.32 2597.31,1239.4 2605.36,1238.93 2613.41,1231.91 "/>
<path clip-path="url(#clip531)" d="M593.125 1233.19 L601.174 1333.11 L609.223 1360.55 L617.272 1411.8 L625.321 1369.38 L633.37 1368.35 L641.419 1424.69 L649.468 1414.11 L657.517 1403.7 L665.566 1390.07 L673.615 1415.53 L681.664 1409.09 L689.712 1405.77 L697.761 1399.03 L705.81 1373.28 L713.859 1374.49 L721.908 1393.49 L729.957 1403.16 L738.006 1401.3 L746.055 1400.17 L754.104 1387.97 L762.153 1399.17 L770.202 1385.51 L778.251 1392.3 L786.3 1358.56 L794.349 1389.89 L802.398 1400.36 L810.446 1390.36 L818.495 1367.85 L826.544 1388.87 L834.593 1386.43 L842.642 1385.67 L850.691 1371.2 L858.74 1377.25 L866.789 1392.47 L874.838 1408.02 L882.887 1377.92 L890.936 1379.37 L898.985 1369.49 L907.034 1384.02 L915.083 1382.1 L923.132 1374.48 L931.18 1406.5 L939.229 1403.74 L947.278 1373.36 L955.327 1397.4 L963.376 1395.22 L971.425 1377.39 L979.474 1370.95 L987.523 1379.12 L995.572 1375.01 L1003.62 1372.74 L1011.67 1367.97 L1019.72 1385.77 L1027.77 1379.27 L1035.82 1386.82 L1043.87 1387.71 L1051.91 1396.73 L1059.96 1388.41 L1068.01 1370.81 L1076.06 1396.03 L1084.11 1390.77 L1092.16 1362.5 L1100.21 1378.57 L1108.26 1366.32 L1116.31 1400.92 L1124.35 1398.36 L1132.4 1385.39 L1140.45 1377.24 L1148.5 1387.12 L1156.55 1376.84 L1164.6 1352.28 L1172.65 1391.02 L1180.7 1387.24 L1188.75 1368.79 L1196.8 1367.68 L1204.84 1380.76 L1212.89 1377.11 L1220.94 1357.75 L1228.99 1366.96 L1237.04 1386.96 L1245.09 1390.62 L1253.14 1362.21 L1261.19 1366.34 L1269.24 1394.5 L1277.28 1381.73 L1285.33 1360.73 L1293.38 1371.49 L1301.43 1375.54 L1309.48 1366.69 L1317.53 1363.36 L1325.58 1368.83 L1333.63 1370.32 L1341.68 1383.14 L1349.72 1366.39 L1357.77 1370.39 L1365.82 1359.53 L1373.87 1401.82 L1381.92 1376.55 L1389.97 1367.59 L1398.02 1372.07 L1406.07 1381.53 L1414.12 1391.19 L1422.17 1387.11 L1430.21 1346.59 L1438.26 1377.75 L1446.31 1365.99 L1454.36 1383.96 L1462.41 1367.89 L1470.46 1378.67 L1478.51 1373.56 L1486.56 1394.41 L1494.61 1385.24 L1502.65 1380.19 L1510.7 1376.47 L1518.75 1358.26 L1526.8 1386.72 L1534.85 1361.83 L1542.9 1341.75 L1550.95 1369.48 L1559 1348.88 L1567.05 1354.99 L1575.1 1352.01 L1583.14 1371.76 L1591.19 1372.74 L1599.24 1366.91 L1607.29 1369.72 L1615.34 1362.87 L1623.39 1363.48 L1631.44 1345.58 L1639.49 1362 L1647.54 1358.99 L1655.58 1361.85 L1663.63 1374.83 L1671.68 1347.78 L1679.73 1381.77 L1687.78 1386.36 L1695.83 1368.13 L1703.88 1383.27 L1711.93 1355.78 L1719.98 1359.96 L1728.02 1383.8 L1736.07 1369.63 L1744.12 1394.62 L1752.17 1383.28 L1760.22 1380.52 L1768.27 1388.75 L1776.32 1362.71 L1784.37 1372.39 L1792.42 1382.29 L1800.47 1372.43 L1808.51 1389.03 L1816.56 1366.02 L1824.61 1361.77 L1832.66 1361.33 L1840.71 1358.81 L1848.76 1371.36 L1856.81 1340.81 L1864.86 1364.67 L1872.91 1362.54 L1880.95 1387.85 L1889 1344.03 L1897.05 1382.27 L1905.1 1374.33 L1913.15 1368.19 L1921.2 1375.46 L1929.25 1366 L1937.3 1372.3 L1945.35 1355.36 L1953.39 1370.21 L1961.44 1358.65 L1969.49 1356.26 L1977.54 1366.56 L1985.59 1368.1 L1993.64 1384.38 L2001.69 1376.6 L2009.74 1372.22 L2017.79 1373.42 L2025.84 1368.42 L2033.88 1354.56 L2041.93 1377.83 L2049.98 1365.84 L2058.03 1347.52 L2066.08 1377.92 L2074.13 1360.45 L2082.18 1365.94 L2090.23 1366.71 L2098.28 1345.31 L2106.32 1384.61 L2114.37 1382.58 L2122.42 1350.78 L2130.47 1376.59 L2138.52 1379.33 L2146.57 1351.11 L2154.62 1368 L2162.67 1398.15 L2170.72 1384.26 L2178.76 1361.27 L2186.81 1348.77 L2194.86 1377.97 L2202.91 1384.16 L2210.96 1366.44 L2219.01 1352.97 L2227.06 1379.17 L2235.11 1385.98 L2243.16 1355.58 L2251.21 1383.33 L2259.25 1355.98 L2267.3 1357 L2275.35 1366.2 L2283.4 1366.03 L2291.45 1353.12 L2299.5 1385.04 L2307.55 1388.99 L2315.6 1345.63 L2323.65 1360.08 L2331.69 1391.55 L2339.74 1379.88 L2347.79 1361.09 L2355.84 1383.62 L2363.89 1355.78 L2371.94 1349.39 L2379.99 1375.64 L2388.04 1372.7 L2396.09 1368.46 L2404.14 1366.08 L2412.18 1371.94 L2420.23 1359.22 L2428.28 1356.68 L2436.33 1381.14 L2444.38 1361.48 L2452.43 1363.86 L2460.48 1359.18 L2468.53 1351.49 L2476.58 1370.07 L2484.62 1373.13 L2492.67 1348.95 L2500.72 1360.17 L2508.77 1342.25 L2516.82 1372.86 L2524.87 1389.85 L2532.92 1373.44 L2540.97 1372.3 L2549.02 1373.89 L2557.06 1376.38 L2565.11 1356.27 L2573.16 1355.22 L2581.21 1353.21 L2589.26 1354.58 L2597.31 1376.9 L2605.36 1364.08 L2613.41 1356.39 L2613.41 1108.03 L2605.36 1114.21 L2597.31 1095.61 L2589.26 1110.74 L2581.21 1080.12 L2573.16 1120.09 L2565.11 1083.92 L2557.06 1084.36 L2549.02 1103.34 L2540.97 1099.57 L2532.92 1119.73 L2524.87 1073.18 L2516.82 1094.41 L2508.77 1082.16 L2500.72 1106.31 L2492.67 1086.21 L2484.62 1109.77 L2476.58 1117.7 L2468.53 1118.83 L2460.48 1127.71 L2452.43 1107.06 L2444.38 1109.72 L2436.33 1094.31 L2428.28 1094.61 L2420.23 1082.88 L2412.18 1106.87 L2404.14 1086.74 L2396.09 1086.1 L2388.04 1074.65 L2379.99 1082.22 L2371.94 1100.62 L2363.89 1091.82 L2355.84 1107.51 L2347.79 1104.7 L2339.74 1106.31 L2331.69 1103.24 L2323.65 1093.98 L2315.6 1094.19 L2307.55 1063.84 L2299.5 1115.51 L2291.45 1084.07 L2283.4 1086.22 L2275.35 1093.96 L2267.3 1084.17 L2259.25 1095.66 L2251.21 1090.38 L2243.16 1112.48 L2235.11 1111.41 L2227.06 1115.62 L2219.01 1110.21 L2210.96 1109.55 L2202.91 1095 L2194.86 1104.38 L2186.81 1092.03 L2178.76 1097.44 L2170.72 1104.87 L2162.67 1130.43 L2154.62 1109.14 L2146.57 1089.69 L2138.52 1112.51 L2130.47 1117.05 L2122.42 1109.39 L2114.37 1096.61 L2106.32 1101.51 L2098.28 1107.8 L2090.23 1102.06 L2082.18 1069.02 L2074.13 1087.93 L2066.08 1116.64 L2058.03 1106.34 L2049.98 1095.63 L2041.93 1114.31 L2033.88 1091.83 L2025.84 1098.56 L2017.79 1102.09 L2009.74 1105.72 L2001.69 1117.82 L1993.64 1083.37 L1985.59 1089.99 L1977.54 1103.96 L1969.49 1086.62 L1961.44 1105.67 L1953.39 1095.42 L1945.35 1125.31 L1937.3 1104.36 L1929.25 1126.17 L1921.2 1087.79 L1913.15 1086.28 L1905.1 1094.61 L1897.05 1103.94 L1889 1109.79 L1880.95 1085.27 L1872.91 1105.61 L1864.86 1096.43 L1856.81 1086.73 L1848.76 1090.36 L1840.71 1095.26 L1832.66 1071.98 L1824.61 1097.24 L1816.56 1101.29 L1808.51 1081.71 L1800.47 1090.71 L1792.42 1127.05 L1784.37 1096.84 L1776.32 1096.89 L1768.27 1095.43 L1760.22 1086.55 L1752.17 1111.14 L1744.12 1109.58 L1736.07 1080.05 L1728.02 1097.26 L1719.98 1091.86 L1711.93 1111.71 L1703.88 1095.22 L1695.83 1120.12 L1687.78 1099.9 L1679.73 1096.4 L1671.68 1093.03 L1663.63 1079.39 L1655.58 1104.27 L1647.54 1060.95 L1639.49 1098.66 L1631.44 1101.19 L1623.39 1101.89 L1615.34 1108.15 L1607.29 1092.98 L1599.24 1079.14 L1591.19 1091.62 L1583.14 1128.7 L1575.1 1105.93 L1567.05 1105.86 L1559 1083.82 L1550.95 1079.01 L1542.9 1095.59 L1534.85 1083.78 L1526.8 1072.96 L1518.75 1081.98 L1510.7 1106.41 L1502.65 1087.22 L1494.61 1100.9 L1486.56 1102.61 L1478.51 1096.64 L1470.46 1103.19 L1462.41 1079.62 L1454.36 1105.8 L1446.31 1109.17 L1438.26 1095.75 L1430.21 1094.82 L1422.17 1097.03 L1414.12 1110 L1406.07 1089.26 L1398.02 1095.47 L1389.97 1108.75 L1381.92 1088.18 L1373.87 1098.62 L1365.82 1090.99 L1357.77 1068.38 L1349.72 1087.58 L1341.68 1077.46 L1333.63 1120.79 L1325.58 1091.61 L1317.53 1096.62 L1309.48 1107.57 L1301.43 1089.57 L1293.38 1077.71 L1285.33 1099.64 L1277.28 1069.59 L1269.24 1086.23 L1261.19 1079.9 L1253.14 1084.86 L1245.09 1097.25 L1237.04 1080.31 L1228.99 1121.47 L1220.94 1072.24 L1212.89 1125.8 L1204.84 1088.83 L1196.8 1082.76 L1188.75 1081.84 L1180.7 1077.62 L1172.65 1112.76 L1164.6 1110.17 L1156.55 1087.17 L1148.5 1094.28 L1140.45 1088.43 L1132.4 1089.69 L1124.35 1100.34 L1116.31 1108.76 L1108.26 1085.69 L1100.21 1073.55 L1092.16 1076.07 L1084.11 1110.56 L1076.06 1115.49 L1068.01 1085.38 L1059.96 1088.33 L1051.91 1096.23 L1043.87 1091.97 L1035.82 1089.36 L1027.77 1097.37 L1019.72 1088.08 L1011.67 1091.5 L1003.62 1102.68 L995.572 1102.7 L987.523 1089.33 L979.474 1075.09 L971.425 1084.53 L963.376 1084.9 L955.327 1078.25 L947.278 1082.19 L939.229 1088.93 L931.18 1067.35 L923.132 1101.28 L915.083 1082.4 L907.034 1093.1 L898.985 1098.44 L890.936 1082.04 L882.887 1065.34 L874.838 1076.92 L866.789 1099.85 L858.74 1081.13 L850.691 1049.36 L842.642 1062.46 L834.593 1099.04 L826.544 1086.64 L818.495 1084.24 L810.446 1060.73 L802.398 1078.29 L794.349 1078.66 L786.3 1047.39 L778.251 1072.9 L770.202 1045.36 L762.153 1048.03 L754.104 1098.99 L746.055 1066.88 L738.006 1028.71 L729.957 1041.02 L721.908 1032.76 L713.859 1040.63 L705.81 1007.59 L697.761 1030.13 L689.712 1037.6 L681.664 1000.19 L673.615 986.002 L665.566 1013.75 L657.517 991.064 L649.468 1009.14 L641.419 1020.36 L633.37 956.465 L625.321 967.723 L617.272 961.626 L609.223 930.186 L601.174 881.014 L593.125 765.574  Z" fill="#009e73" fill-rule="evenodd" fill-opacity="0.2"/>
<polyline clip-path="url(#clip531)" style="stroke:#009e73; stroke-linecap:round; stroke-linejoin:round; stroke-width:4; stroke-opacity:0.2; fill:none" points="593.125,1233.19 601.174,1333.11 609.223,1360.55 617.272,1411.8 625.321,1369.38 633.37,1368.35 641.419,1424.69 649.468,1414.11 657.517,1403.7 665.566,1390.07 673.615,1415.53 681.664,1409.09 689.712,1405.77 697.761,1399.03 705.81,1373.28 713.859,1374.49 721.908,1393.49 729.957,1403.16 738.006,1401.3 746.055,1400.17 754.104,1387.97 762.153,1399.17 770.202,1385.51 778.251,1392.3 786.3,1358.56 794.349,1389.89 802.398,1400.36 810.446,1390.36 818.495,1367.85 826.544,1388.87 834.593,1386.43 842.642,1385.67 850.691,1371.2 858.74,1377.25 866.789,1392.47 874.838,1408.02 882.887,1377.92 890.936,1379.37 898.985,1369.49 907.034,1384.02 915.083,1382.1 923.132,1374.48 931.18,1406.5 939.229,1403.74 947.278,1373.36 955.327,1397.4 963.376,1395.22 971.425,1377.39 979.474,1370.95 987.523,1379.12 995.572,1375.01 1003.62,1372.74 1011.67,1367.97 1019.72,1385.77 1027.77,1379.27 1035.82,1386.82 1043.87,1387.71 1051.91,1396.73 1059.96,1388.41 1068.01,1370.81 1076.06,1396.03 1084.11,1390.77 1092.16,1362.5 1100.21,1378.57 1108.26,1366.32 1116.31,1400.92 1124.35,1398.36 1132.4,1385.39 1140.45,1377.24 1148.5,1387.12 1156.55,1376.84 1164.6,1352.28 1172.65,1391.02 1180.7,1387.24 1188.75,1368.79 1196.8,1367.68 1204.84,1380.76 1212.89,1377.11 1220.94,1357.75 1228.99,1366.96 1237.04,1386.96 1245.09,1390.62 1253.14,1362.21 1261.19,1366.34 1269.24,1394.5 1277.28,1381.73 1285.33,1360.73 1293.38,1371.49 1301.43,1375.54 1309.48,1366.69 1317.53,1363.36 1325.58,1368.83 1333.63,1370.32 1341.68,1383.14 1349.72,1366.39 1357.77,1370.39 1365.82,1359.53 1373.87,1401.82 1381.92,1376.55 1389.97,1367.59 1398.02,1372.07 1406.07,1381.53 1414.12,1391.19 1422.17,1387.11 1430.21,1346.59 1438.26,1377.75 1446.31,1365.99 1454.36,1383.96 1462.41,1367.89 1470.46,1378.67 1478.51,1373.56 1486.56,1394.41 1494.61,1385.24 1502.65,1380.19 1510.7,1376.47 1518.75,1358.26 1526.8,1386.72 1534.85,1361.83 1542.9,1341.75 1550.95,1369.48 1559,1348.88 1567.05,1354.99 1575.1,1352.01 1583.14,1371.76 1591.19,1372.74 1599.24,1366.91 1607.29,1369.72 1615.34,1362.87 1623.39,1363.48 1631.44,1345.58 1639.49,1362 1647.54,1358.99 1655.58,1361.85 1663.63,1374.83 1671.68,1347.78 1679.73,1381.77 1687.78,1386.36 1695.83,1368.13 1703.88,1383.27 1711.93,1355.78 1719.98,1359.96 1728.02,1383.8 1736.07,1369.63 1744.12,1394.62 1752.17,1383.28 1760.22,1380.52 1768.27,1388.75 1776.32,1362.71 1784.37,1372.39 1792.42,1382.29 1800.47,1372.43 1808.51,1389.03 1816.56,1366.02 1824.61,1361.77 1832.66,1361.33 1840.71,1358.81 1848.76,1371.36 1856.81,1340.81 1864.86,1364.67 1872.91,1362.54 1880.95,1387.85 1889,1344.03 1897.05,1382.27 1905.1,1374.33 1913.15,1368.19 1921.2,1375.46 1929.25,1366 1937.3,1372.3 1945.35,1355.36 1953.39,1370.21 1961.44,1358.65 1969.49,1356.26 1977.54,1366.56 1985.59,1368.1 1993.64,1384.38 2001.69,1376.6 2009.74,1372.22 2017.79,1373.42 2025.84,1368.42 2033.88,1354.56 2041.93,1377.83 2049.98,1365.84 2058.03,1347.52 2066.08,1377.92 2074.13,1360.45 2082.18,1365.94 2090.23,1366.71 2098.28,1345.31 2106.32,1384.61 2114.37,1382.58 2122.42,1350.78 2130.47,1376.59 2138.52,1379.33 2146.57,1351.11 2154.62,1368 2162.67,1398.15 2170.72,1384.26 2178.76,1361.27 2186.81,1348.77 2194.86,1377.97 2202.91,1384.16 2210.96,1366.44 2219.01,1352.97 2227.06,1379.17 2235.11,1385.98 2243.16,1355.58 2251.21,1383.33 2259.25,1355.98 2267.3,1357 2275.35,1366.2 2283.4,1366.03 2291.45,1353.12 2299.5,1385.04 2307.55,1388.99 2315.6,1345.63 2323.65,1360.08 2331.69,1391.55 2339.74,1379.88 2347.79,1361.09 2355.84,1383.62 2363.89,1355.78 2371.94,1349.39 2379.99,1375.64 2388.04,1372.7 2396.09,1368.46 2404.14,1366.08 2412.18,1371.94 2420.23,1359.22 2428.28,1356.68 2436.33,1381.14 2444.38,1361.48 2452.43,1363.86 2460.48,1359.18 2468.53,1351.49 2476.58,1370.07 2484.62,1373.13 2492.67,1348.95 2500.72,1360.17 2508.77,1342.25 2516.82,1372.86 2524.87,1389.85 2532.92,1373.44 2540.97,1372.3 2549.02,1373.89 2557.06,1376.38 2565.11,1356.27 2573.16,1355.22 2581.21,1353.21 2589.26,1354.58 2597.31,1376.9 2605.36,1364.08 2613.41,1356.39 "/>
<polyline clip-path="url(#clip531)" style="stroke:#808080; stroke-linecap:round; stroke-linejoin:round; stroke-width:4; stroke-opacity:1; fill:none" stroke-dasharray="16, 10" points="-1608.98,942.309 4815.51,942.309 "/>
<polyline clip-path="url(#clip531)" style="stroke:#808080; stroke-linecap:round; stroke-linejoin:round; stroke-width:4; stroke-opacity:1; fill:none" stroke-dasharray="16, 10" points="-1608.98,1522.94 4815.51,1522.94 "/>
<path clip-path="url(#clip530)" d="M1957.73 467.746 L2602.63 467.746 L2602.63 176.146 L1957.73 176.146  Z" fill="#ffffff" fill-rule="evenodd" fill-opacity="1"/>
<polyline clip-path="url(#clip530)" style="stroke:#000000; stroke-linecap:round; stroke-linejoin:round; stroke-width:4; stroke-opacity:1; fill:none" points="1957.73,467.746 2602.63,467.746 2602.63,176.146 1957.73,176.146 1957.73,467.746 "/>
<polyline clip-path="url(#clip530)" style="stroke:#d45e00; stroke-linecap:round; stroke-linejoin:round; stroke-width:9; stroke-opacity:1; fill:none" stroke-dasharray="36, 23" points="1981.52,234.466 2124.29,234.466 "/>
<path clip-path="url(#clip530)" d="M2166.11 218.594 Q2160.38 218.594 2156.99 222.864 Q2153.63 227.135 2153.63 234.505 Q2153.63 241.849 2156.99 246.119 Q2160.38 250.39 2166.11 250.39 Q2171.83 250.39 2175.17 246.119 Q2178.53 241.849 2178.53 234.505 Q2178.53 227.135 2175.17 222.864 Q2171.83 218.594 2166.11 218.594 M2166.11 214.323 Q2174.28 214.323 2179.18 219.817 Q2184.07 225.286 2184.07 234.505 Q2184.07 243.698 2179.18 249.192 Q2174.28 254.661 2166.11 254.661 Q2157.9 254.661 2152.98 249.192 Q2148.09 243.724 2148.09 234.505 Q2148.09 225.286 2152.98 219.817 Q2157.9 214.323 2166.11 214.323 Z" fill="#000000" fill-rule="nonzero" fill-opacity="1" /><path clip-path="url(#clip530)" d="M2213.03 239.349 Q2213.03 234.062 2210.85 231.067 Q2208.68 228.047 2204.88 228.047 Q2201.08 228.047 2198.89 231.067 Q2196.73 234.062 2196.73 239.349 Q2196.73 244.635 2198.89 247.656 Q2201.08 250.651 2204.88 250.651 Q2208.68 250.651 2210.85 247.656 Q2213.03 244.635 2213.03 239.349 M2196.73 229.166 Q2198.24 226.562 2200.53 225.312 Q2202.85 224.036 2206.05 224.036 Q2211.37 224.036 2214.67 228.255 Q2218.01 232.474 2218.01 239.349 Q2218.01 246.224 2214.67 250.442 Q2211.37 254.661 2206.05 254.661 Q2202.85 254.661 2200.53 253.411 Q2198.24 252.135 2196.73 249.531 L2196.73 253.906 L2191.91 253.906 L2191.91 213.385 L2196.73 213.385 L2196.73 229.166 Z" fill="#000000" fill-rule="nonzero" fill-opacity="1" /><path clip-path="url(#clip530)" d="M2244.54 225.599 L2244.54 230.13 Q2242.51 229.088 2240.32 228.567 Q2238.14 228.047 2235.79 228.047 Q2232.23 228.047 2230.43 229.14 Q2228.66 230.234 2228.66 232.422 Q2228.66 234.088 2229.93 235.052 Q2231.21 235.989 2235.06 236.849 L2236.7 237.213 Q2241.81 238.307 2243.94 240.312 Q2246.11 242.291 2246.11 245.859 Q2246.11 249.921 2242.88 252.291 Q2239.67 254.661 2234.05 254.661 Q2231.7 254.661 2229.15 254.192 Q2226.63 253.75 2223.81 252.838 L2223.81 247.89 Q2226.47 249.27 2229.05 249.974 Q2231.63 250.651 2234.15 250.651 Q2237.54 250.651 2239.36 249.505 Q2241.18 248.333 2241.18 246.224 Q2241.18 244.27 2239.86 243.229 Q2238.55 242.187 2234.1 241.224 L2232.43 240.833 Q2227.98 239.895 2226 237.968 Q2224.02 236.015 2224.02 232.63 Q2224.02 228.515 2226.94 226.276 Q2229.86 224.036 2235.22 224.036 Q2237.88 224.036 2240.22 224.427 Q2242.56 224.817 2244.54 225.599 Z" fill="#000000" fill-rule="nonzero" fill-opacity="1" /><path clip-path="url(#clip530)" d="M2278.68 238.125 L2278.68 240.468 L2256.65 240.468 Q2256.96 245.416 2259.62 248.02 Q2262.3 250.599 2267.07 250.599 Q2269.83 250.599 2272.41 249.921 Q2275.01 249.244 2277.56 247.89 L2277.56 252.421 Q2274.99 253.515 2272.28 254.088 Q2269.57 254.661 2266.78 254.661 Q2259.8 254.661 2255.71 250.599 Q2251.65 246.536 2251.65 239.609 Q2251.65 232.448 2255.51 228.255 Q2259.39 224.036 2265.95 224.036 Q2271.83 224.036 2275.25 227.838 Q2278.68 231.614 2278.68 238.125 M2273.89 236.718 Q2273.84 232.786 2271.68 230.442 Q2269.54 228.099 2266 228.099 Q2261.99 228.099 2259.57 230.364 Q2257.17 232.63 2256.81 236.744 L2273.89 236.718 Z" fill="#000000" fill-rule="nonzero" fill-opacity="1" /><path clip-path="url(#clip530)" d="M2303.45 229.218 Q2302.64 228.75 2301.68 228.541 Q2300.74 228.307 2299.59 228.307 Q2295.53 228.307 2293.34 230.963 Q2291.18 233.593 2291.18 238.541 L2291.18 253.906 L2286.37 253.906 L2286.37 224.739 L2291.18 224.739 L2291.18 229.271 Q2292.69 226.614 2295.12 225.338 Q2297.54 224.036 2301 224.036 Q2301.5 224.036 2302.09 224.114 Q2302.69 224.166 2303.42 224.297 L2303.45 229.218 Z" fill="#000000" fill-rule="nonzero" fill-opacity="1" /><path clip-path="url(#clip530)" d="M2305.04 224.739 L2310.12 224.739 L2319.23 249.218 L2328.34 224.739 L2333.42 224.739 L2322.49 253.906 L2315.97 253.906 L2305.04 224.739 Z" fill="#000000" fill-rule="nonzero" fill-opacity="1" /><path clip-path="url(#clip530)" d="M2364.98 238.125 L2364.98 240.468 L2342.95 240.468 Q2343.27 245.416 2345.92 248.02 Q2348.6 250.599 2353.37 250.599 Q2356.13 250.599 2358.71 249.921 Q2361.31 249.244 2363.87 247.89 L2363.87 252.421 Q2361.29 253.515 2358.58 254.088 Q2355.87 254.661 2353.08 254.661 Q2346.1 254.661 2342.02 250.599 Q2337.95 246.536 2337.95 239.609 Q2337.95 232.448 2341.81 228.255 Q2345.69 224.036 2352.25 224.036 Q2358.14 224.036 2361.55 227.838 Q2364.98 231.614 2364.98 238.125 M2360.19 236.718 Q2360.14 232.786 2357.98 230.442 Q2355.84 228.099 2352.3 228.099 Q2348.29 228.099 2345.87 230.364 Q2343.47 232.63 2343.11 236.744 L2360.19 236.718 Z" fill="#000000" fill-rule="nonzero" fill-opacity="1" /><path clip-path="url(#clip530)" d="M2392.04 229.166 L2392.04 213.385 L2396.83 213.385 L2396.83 253.906 L2392.04 253.906 L2392.04 249.531 Q2390.53 252.135 2388.21 253.411 Q2385.92 254.661 2382.69 254.661 Q2377.41 254.661 2374.07 250.442 Q2370.77 246.224 2370.77 239.349 Q2370.77 232.474 2374.07 228.255 Q2377.41 224.036 2382.69 224.036 Q2385.92 224.036 2388.21 225.312 Q2390.53 226.562 2392.04 229.166 M2375.71 239.349 Q2375.71 244.635 2377.88 247.656 Q2380.06 250.651 2383.87 250.651 Q2387.67 250.651 2389.85 247.656 Q2392.04 244.635 2392.04 239.349 Q2392.04 234.062 2389.85 231.067 Q2387.67 228.047 2383.87 228.047 Q2380.06 228.047 2377.88 231.067 Q2375.71 234.062 2375.71 239.349 Z" fill="#000000" fill-rule="nonzero" fill-opacity="1" /><polyline clip-path="url(#clip530)" style="stroke:#009e73; stroke-linecap:round; stroke-linejoin:round; stroke-width:9; stroke-opacity:1; fill:none" points="1981.52,292.786 2124.29,292.786 "/>
<path clip-path="url(#clip530)" d="M2179.44 276.341 L2179.44 281.887 Q2176.78 279.414 2173.76 278.19 Q2170.77 276.966 2167.38 276.966 Q2160.72 276.966 2157.17 281.054 Q2153.63 285.117 2153.63 292.825 Q2153.63 300.507 2157.17 304.596 Q2160.72 308.658 2167.38 308.658 Q2170.77 308.658 2173.76 307.434 Q2176.78 306.21 2179.44 303.736 L2179.44 309.231 Q2176.68 311.106 2173.58 312.044 Q2170.51 312.981 2167.07 312.981 Q2158.24 312.981 2153.16 307.59 Q2148.09 302.174 2148.09 292.825 Q2148.09 283.45 2153.16 278.059 Q2158.24 272.643 2167.07 272.643 Q2170.56 272.643 2173.63 273.58 Q2176.73 274.492 2179.44 276.341 Z" fill="#000000" fill-rule="nonzero" fill-opacity="1" /><path clip-path="url(#clip530)" d="M2187.56 273.346 L2192.82 273.346 L2192.82 289.283 L2211.94 289.283 L2211.94 273.346 L2217.2 273.346 L2217.2 312.226 L2211.94 312.226 L2211.94 293.71 L2192.82 293.71 L2192.82 312.226 L2187.56 312.226 L2187.56 273.346 Z" fill="#000000" fill-rule="nonzero" fill-opacity="1" /><path clip-path="url(#clip530)" d="M2227.67 273.346 L2235.51 273.346 L2245.43 299.804 L2255.4 273.346 L2263.24 273.346 L2263.24 312.226 L2258.11 312.226 L2258.11 278.085 L2248.08 304.752 L2242.8 304.752 L2232.77 278.085 L2232.77 312.226 L2227.67 312.226 L2227.67 273.346 Z" fill="#000000" fill-rule="nonzero" fill-opacity="1" /><path clip-path="url(#clip530)" d="M2273.68 273.346 L2281.52 273.346 L2291.44 299.804 L2301.42 273.346 L2309.26 273.346 L2309.26 312.226 L2304.13 312.226 L2304.13 278.085 L2294.1 304.752 L2288.81 304.752 L2278.79 278.085 L2278.79 312.226 L2273.68 312.226 L2273.68 273.346 Z" fill="#000000" fill-rule="nonzero" fill-opacity="1" /><path clip-path="url(#clip530)" d="M2317.07 295.481 L2331.1 295.481 L2331.1 299.752 L2317.07 299.752 L2317.07 295.481 Z" fill="#000000" fill-rule="nonzero" fill-opacity="1" /><path clip-path="url(#clip530)" d="M2338.94 273.346 L2346.03 273.346 L2363.27 305.872 L2363.27 273.346 L2368.37 273.346 L2368.37 312.226 L2361.29 312.226 L2344.05 279.7 L2344.05 312.226 L2338.94 312.226 L2338.94 273.346 Z" fill="#000000" fill-rule="nonzero" fill-opacity="1" /><path clip-path="url(#clip530)" d="M2407.09 271.757 Q2403.6 277.747 2401.91 283.606 Q2400.22 289.466 2400.22 295.481 Q2400.22 301.497 2401.91 307.408 Q2403.63 313.294 2407.09 319.257 L2402.93 319.257 Q2399.02 313.137 2397.07 307.226 Q2395.14 301.314 2395.14 295.481 Q2395.14 289.674 2397.07 283.788 Q2399 277.903 2402.93 271.757 L2407.09 271.757 Z" fill="#000000" fill-rule="nonzero" fill-opacity="1" /><path clip-path="url(#clip530)" d="M2439.1 288.658 Q2440.9 285.429 2443.4 283.893 Q2445.9 282.356 2449.28 282.356 Q2453.84 282.356 2456.31 285.559 Q2458.79 288.736 2458.79 294.622 L2458.79 312.226 L2453.97 312.226 L2453.97 294.778 Q2453.97 290.585 2452.48 288.554 Q2451 286.523 2447.95 286.523 Q2444.23 286.523 2442.07 288.997 Q2439.91 291.471 2439.91 295.742 L2439.91 312.226 L2435.09 312.226 L2435.09 294.778 Q2435.09 290.559 2433.6 288.554 Q2432.12 286.523 2429.02 286.523 Q2425.35 286.523 2423.19 289.023 Q2421.03 291.497 2421.03 295.742 L2421.03 312.226 L2416.21 312.226 L2416.21 283.059 L2421.03 283.059 L2421.03 287.591 Q2422.67 284.908 2424.96 283.632 Q2427.25 282.356 2430.4 282.356 Q2433.58 282.356 2435.79 283.971 Q2438.03 285.585 2439.1 288.658 Z" fill="#000000" fill-rule="nonzero" fill-opacity="1" /><path clip-path="url(#clip530)" d="M2493.29 296.445 L2493.29 298.788 L2471.26 298.788 Q2471.57 303.736 2474.23 306.34 Q2476.91 308.919 2481.68 308.919 Q2484.44 308.919 2487.02 308.241 Q2489.62 307.564 2492.17 306.21 L2492.17 310.741 Q2489.59 311.835 2486.89 312.408 Q2484.18 312.981 2481.39 312.981 Q2474.41 312.981 2470.32 308.919 Q2466.26 304.856 2466.26 297.929 Q2466.26 290.768 2470.11 286.575 Q2473.99 282.356 2480.56 282.356 Q2486.44 282.356 2489.85 286.158 Q2493.29 289.934 2493.29 296.445 M2488.5 295.038 Q2488.45 291.106 2486.29 288.762 Q2484.15 286.419 2480.61 286.419 Q2476.6 286.419 2474.18 288.684 Q2471.78 290.95 2471.42 295.064 L2488.5 295.038 Z" fill="#000000" fill-rule="nonzero" fill-opacity="1" /><path clip-path="url(#clip530)" d="M2514.41 297.564 Q2508.6 297.564 2506.36 298.893 Q2504.12 300.221 2504.12 303.424 Q2504.12 305.976 2505.79 307.486 Q2507.48 308.971 2510.37 308.971 Q2514.36 308.971 2516.76 306.158 Q2519.18 303.32 2519.18 298.632 L2519.18 297.564 L2514.41 297.564 M2523.97 295.585 L2523.97 312.226 L2519.18 312.226 L2519.18 307.799 Q2517.54 310.455 2515.09 311.731 Q2512.64 312.981 2509.1 312.981 Q2504.62 312.981 2501.96 310.481 Q2499.33 307.955 2499.33 303.736 Q2499.33 298.814 2502.61 296.314 Q2505.92 293.814 2512.46 293.814 L2519.18 293.814 L2519.18 293.346 Q2519.18 290.038 2516.99 288.242 Q2514.83 286.419 2510.9 286.419 Q2508.4 286.419 2506.03 287.018 Q2503.66 287.617 2501.47 288.814 L2501.47 284.387 Q2504.1 283.372 2506.57 282.877 Q2509.05 282.356 2511.39 282.356 Q2517.72 282.356 2520.84 285.637 Q2523.97 288.919 2523.97 295.585 Z" fill="#000000" fill-rule="nonzero" fill-opacity="1" /><path clip-path="url(#clip530)" d="M2558.08 294.622 L2558.08 312.226 L2553.29 312.226 L2553.29 294.778 Q2553.29 290.637 2551.68 288.58 Q2550.06 286.523 2546.83 286.523 Q2542.95 286.523 2540.71 288.997 Q2538.47 291.471 2538.47 295.742 L2538.47 312.226 L2533.66 312.226 L2533.66 283.059 L2538.47 283.059 L2538.47 287.591 Q2540.19 284.96 2542.51 283.658 Q2544.85 282.356 2547.9 282.356 Q2552.93 282.356 2555.5 285.481 Q2558.08 288.58 2558.08 294.622 Z" fill="#000000" fill-rule="nonzero" fill-opacity="1" /><path clip-path="url(#clip530)" d="M2566.88 271.757 L2571.05 271.757 Q2574.96 277.903 2576.88 283.788 Q2578.84 289.674 2578.84 295.481 Q2578.84 301.314 2576.88 307.226 Q2574.96 313.137 2571.05 319.257 L2566.88 319.257 Q2570.35 313.294 2572.04 307.408 Q2573.76 301.497 2573.76 295.481 Q2573.76 289.466 2572.04 283.606 Q2570.35 277.747 2566.88 271.757 Z" fill="#000000" fill-rule="nonzero" fill-opacity="1" /><path clip-path="url(#clip530)" d="M1981.52 374.434 L2124.29 374.434 L2124.29 327.778 L1981.52 327.778 L1981.52 374.434  Z" fill="#009e73" fill-rule="evenodd" fill-opacity="0.2"/>
<polyline clip-path="url(#clip530)" style="stroke:#009e73; stroke-linecap:round; stroke-linejoin:round; stroke-width:4.5; stroke-opacity:0.2; fill:none" points="1981.52,327.778 2124.29,327.778 "/>
<path clip-path="url(#clip530)" d="M2148.84 366.119 L2157.43 366.119 L2157.43 336.457 L2148.09 338.332 L2148.09 333.541 L2157.38 331.666 L2162.64 331.666 L2162.64 366.119 L2171.24 366.119 L2171.24 370.546 L2148.84 370.546 L2148.84 366.119 Z" fill="#000000" fill-rule="nonzero" fill-opacity="1" /><path clip-path="url(#clip530)" d="M2193.11 335.129 Q2189.05 335.129 2186.99 339.14 Q2184.96 343.124 2184.96 351.145 Q2184.96 359.14 2186.99 363.15 Q2189.05 367.134 2193.11 367.134 Q2197.2 367.134 2199.23 363.15 Q2201.29 359.14 2201.29 351.145 Q2201.29 343.124 2199.23 339.14 Q2197.2 335.129 2193.11 335.129 M2193.11 330.963 Q2199.65 330.963 2203.08 336.145 Q2206.55 341.301 2206.55 351.145 Q2206.55 360.963 2203.08 366.145 Q2199.65 371.301 2193.11 371.301 Q2186.57 371.301 2183.11 366.145 Q2179.67 360.963 2179.67 351.145 Q2179.67 341.301 2183.11 336.145 Q2186.57 330.963 2193.11 330.963 Z" fill="#000000" fill-rule="nonzero" fill-opacity="1" /><path clip-path="url(#clip530)" d="M2212.69 353.801 L2226.73 353.801 L2226.73 358.072 L2212.69 358.072 L2212.69 353.801 Z" fill="#000000" fill-rule="nonzero" fill-opacity="1" /><path clip-path="url(#clip530)" d="M2235.19 369.739 L2235.19 364.947 Q2237.17 365.884 2239.2 366.379 Q2241.24 366.874 2243.19 366.874 Q2248.4 366.874 2251.13 363.384 Q2253.89 359.869 2254.28 352.733 Q2252.77 354.973 2250.45 356.171 Q2248.14 357.369 2245.32 357.369 Q2239.49 357.369 2236.08 353.853 Q2232.69 350.312 2232.69 344.192 Q2232.69 338.202 2236.24 334.582 Q2239.78 330.963 2245.66 330.963 Q2252.41 330.963 2255.95 336.145 Q2259.52 341.301 2259.52 351.145 Q2259.52 360.338 2255.14 365.832 Q2250.79 371.301 2243.42 371.301 Q2241.44 371.301 2239.41 370.91 Q2237.38 370.52 2235.19 369.739 M2245.66 353.254 Q2249.2 353.254 2251.26 350.832 Q2253.34 348.411 2253.34 344.192 Q2253.34 339.999 2251.26 337.577 Q2249.2 335.129 2245.66 335.129 Q2242.12 335.129 2240.04 337.577 Q2237.98 339.999 2237.98 344.192 Q2237.98 348.411 2240.04 350.832 Q2242.12 353.254 2245.66 353.254 Z" fill="#000000" fill-rule="nonzero" fill-opacity="1" /><path clip-path="url(#clip530)" d="M2280.22 335.129 Q2276.16 335.129 2274.1 339.14 Q2272.07 343.124 2272.07 351.145 Q2272.07 359.14 2274.1 363.15 Q2276.16 367.134 2280.22 367.134 Q2284.31 367.134 2286.34 363.15 Q2288.4 359.14 2288.4 351.145 Q2288.4 343.124 2286.34 339.14 Q2284.31 335.129 2280.22 335.129 M2280.22 330.963 Q2286.76 330.963 2290.19 336.145 Q2293.66 341.301 2293.66 351.145 Q2293.66 360.963 2290.19 366.145 Q2286.76 371.301 2280.22 371.301 Q2273.68 371.301 2270.22 366.145 Q2266.78 360.963 2266.78 351.145 Q2266.78 341.301 2270.22 336.145 Q2273.68 330.963 2280.22 330.963 Z" fill="#000000" fill-rule="nonzero" fill-opacity="1" /><path clip-path="url(#clip530)" d="M2306.96 333.098 L2306.96 341.379 L2316.83 341.379 L2316.83 345.103 L2306.96 345.103 L2306.96 360.937 Q2306.96 364.504 2307.93 365.52 Q2308.92 366.535 2311.91 366.535 L2316.83 366.535 L2316.83 370.546 L2311.91 370.546 Q2306.37 370.546 2304.26 368.489 Q2302.15 366.405 2302.15 360.937 L2302.15 345.103 L2298.63 345.103 L2298.63 341.379 L2302.15 341.379 L2302.15 333.098 L2306.96 333.098 Z" fill="#000000" fill-rule="nonzero" fill-opacity="1" /><path clip-path="url(#clip530)" d="M2347.38 352.942 L2347.38 370.546 L2342.59 370.546 L2342.59 353.098 Q2342.59 348.957 2340.97 346.9 Q2339.36 344.843 2336.13 344.843 Q2332.25 344.843 2330.01 347.317 Q2327.77 349.791 2327.77 354.062 L2327.77 370.546 L2322.95 370.546 L2322.95 330.025 L2327.77 330.025 L2327.77 345.911 Q2329.49 343.28 2331.81 341.978 Q2334.15 340.676 2337.2 340.676 Q2342.22 340.676 2344.8 343.801 Q2347.38 346.9 2347.38 352.942 Z" fill="#000000" fill-rule="nonzero" fill-opacity="1" /><path clip-path="url(#clip530)" d="M2378.53 366.171 L2378.53 381.64 L2373.71 381.64 L2373.71 341.379 L2378.53 341.379 L2378.53 345.806 Q2380.04 343.202 2382.33 341.952 Q2384.65 340.676 2387.85 340.676 Q2393.16 340.676 2396.47 344.895 Q2399.8 349.114 2399.8 355.989 Q2399.8 362.864 2396.47 367.082 Q2393.16 371.301 2387.85 371.301 Q2384.65 371.301 2382.33 370.051 Q2380.04 368.775 2378.53 366.171 M2394.83 355.989 Q2394.83 350.702 2392.64 347.707 Q2390.48 344.687 2386.68 344.687 Q2382.88 344.687 2380.69 347.707 Q2378.53 350.702 2378.53 355.989 Q2378.53 361.275 2380.69 364.296 Q2382.88 367.291 2386.68 367.291 Q2390.48 367.291 2392.64 364.296 Q2394.83 361.275 2394.83 355.989 Z" fill="#000000" fill-rule="nonzero" fill-opacity="1" /><path clip-path="url(#clip530)" d="M2428.73 342.499 L2428.73 346.978 Q2426.7 345.858 2424.65 345.312 Q2422.61 344.739 2420.53 344.739 Q2415.87 344.739 2413.29 347.707 Q2410.71 350.65 2410.71 355.989 Q2410.71 361.327 2413.29 364.296 Q2415.87 367.239 2420.53 367.239 Q2422.61 367.239 2424.65 366.692 Q2426.7 366.119 2428.73 364.999 L2428.73 369.426 Q2426.73 370.364 2424.57 370.832 Q2422.43 371.301 2420.01 371.301 Q2413.42 371.301 2409.54 367.16 Q2405.66 363.02 2405.66 355.989 Q2405.66 348.853 2409.57 344.765 Q2413.5 340.676 2420.32 340.676 Q2422.54 340.676 2424.65 341.145 Q2426.76 341.588 2428.73 342.499 Z" fill="#000000" fill-rule="nonzero" fill-opacity="1" /><path clip-path="url(#clip530)" d="M2441.81 333.098 L2441.81 341.379 L2451.68 341.379 L2451.68 345.103 L2441.81 345.103 L2441.81 360.937 Q2441.81 364.504 2442.77 365.52 Q2443.76 366.535 2446.76 366.535 L2451.68 366.535 L2451.68 370.546 L2446.76 370.546 Q2441.21 370.546 2439.1 368.489 Q2436.99 366.405 2436.99 360.937 L2436.99 345.103 L2433.47 345.103 L2433.47 341.379 L2436.99 341.379 L2436.99 333.098 L2441.81 333.098 Z" fill="#000000" fill-rule="nonzero" fill-opacity="1" /><path clip-path="url(#clip530)" d="M2457.98 330.025 L2462.77 330.025 L2462.77 370.546 L2457.98 370.546 L2457.98 330.025 Z" fill="#000000" fill-rule="nonzero" fill-opacity="1" /><polyline clip-path="url(#clip530)" style="stroke:#808080; stroke-linecap:round; stroke-linejoin:round; stroke-width:4.5; stroke-opacity:1; fill:none" stroke-dasharray="18, 11" points="1981.52,409.426 2124.29,409.426 "/>
<path clip-path="url(#clip530)" d="M2150.59 428.059 L2150.59 423.267 Q2152.56 424.204 2154.6 424.699 Q2156.63 425.194 2158.58 425.194 Q2163.79 425.194 2166.52 421.704 Q2169.28 418.189 2169.67 411.053 Q2168.16 413.293 2165.85 414.491 Q2163.53 415.689 2160.72 415.689 Q2154.88 415.689 2151.47 412.173 Q2148.09 408.632 2148.09 402.512 Q2148.09 396.522 2151.63 392.902 Q2155.17 389.283 2161.05 389.283 Q2167.8 389.283 2171.34 394.465 Q2174.91 399.621 2174.91 409.465 Q2174.91 418.658 2170.53 424.152 Q2166.18 429.621 2158.81 429.621 Q2156.84 429.621 2154.8 429.23 Q2152.77 428.84 2150.59 428.059 M2161.05 411.574 Q2164.6 411.574 2166.65 409.152 Q2168.74 406.731 2168.74 402.512 Q2168.74 398.319 2166.65 395.897 Q2164.6 393.449 2161.05 393.449 Q2157.51 393.449 2155.43 395.897 Q2153.37 398.319 2153.37 402.512 Q2153.37 406.731 2155.43 409.152 Q2157.51 411.574 2161.05 411.574 Z" fill="#000000" fill-rule="nonzero" fill-opacity="1" /><path clip-path="url(#clip530)" d="M2184.52 428.059 L2184.52 423.267 Q2186.5 424.204 2188.53 424.699 Q2190.56 425.194 2192.51 425.194 Q2197.72 425.194 2200.45 421.704 Q2203.22 418.189 2203.61 411.053 Q2202.1 413.293 2199.78 414.491 Q2197.46 415.689 2194.65 415.689 Q2188.81 415.689 2185.4 412.173 Q2182.02 408.632 2182.02 402.512 Q2182.02 396.522 2185.56 392.902 Q2189.1 389.283 2194.99 389.283 Q2201.73 389.283 2205.27 394.465 Q2208.84 399.621 2208.84 409.465 Q2208.84 418.658 2204.47 424.152 Q2200.12 429.621 2192.75 429.621 Q2190.77 429.621 2188.74 429.23 Q2186.7 428.84 2184.52 428.059 M2194.99 411.574 Q2198.53 411.574 2200.58 409.152 Q2202.67 406.731 2202.67 402.512 Q2202.67 398.319 2200.58 395.897 Q2198.53 393.449 2194.99 393.449 Q2191.44 393.449 2189.36 395.897 Q2187.3 398.319 2187.3 402.512 Q2187.3 406.731 2189.36 409.152 Q2191.44 411.574 2194.99 411.574 Z" fill="#000000" fill-rule="nonzero" fill-opacity="1" /><path clip-path="url(#clip530)" d="M2251.37 411.757 Q2249.1 411.757 2247.8 413.684 Q2246.52 415.611 2246.52 419.048 Q2246.52 422.434 2247.8 424.387 Q2249.1 426.314 2251.37 426.314 Q2253.58 426.314 2254.86 424.387 Q2256.16 422.434 2256.16 419.048 Q2256.16 415.637 2254.86 413.71 Q2253.58 411.757 2251.37 411.757 M2251.37 408.449 Q2255.48 408.449 2257.9 411.314 Q2260.32 414.178 2260.32 419.048 Q2260.32 423.918 2257.88 426.783 Q2255.45 429.621 2251.37 429.621 Q2247.2 429.621 2244.78 426.783 Q2242.36 423.918 2242.36 419.048 Q2242.36 414.152 2244.78 411.314 Q2247.23 408.449 2251.37 408.449 M2224.49 392.59 Q2222.25 392.59 2220.95 394.543 Q2219.67 396.47 2219.67 399.856 Q2219.67 403.293 2220.95 405.22 Q2222.23 407.147 2224.49 407.147 Q2226.76 407.147 2228.03 405.22 Q2229.33 403.293 2229.33 399.856 Q2229.33 396.496 2228.03 394.543 Q2226.73 392.59 2224.49 392.59 M2248.01 389.283 L2252.17 389.283 L2227.85 429.621 L2223.68 429.621 L2248.01 389.283 M2224.49 389.283 Q2228.61 389.283 2231.05 392.147 Q2233.5 394.986 2233.5 399.856 Q2233.5 404.777 2231.05 407.616 Q2228.63 410.454 2224.49 410.454 Q2220.35 410.454 2217.93 407.616 Q2215.53 404.751 2215.53 399.856 Q2215.53 395.012 2217.95 392.147 Q2220.38 389.283 2224.49 389.283 Z" fill="#000000" fill-rule="nonzero" fill-opacity="1" /><path clip-path="url(#clip530)" d="M2314.57 392.981 L2314.57 398.527 Q2311.91 396.054 2308.89 394.83 Q2305.9 393.606 2302.51 393.606 Q2295.84 393.606 2292.3 397.694 Q2288.76 401.757 2288.76 409.465 Q2288.76 417.147 2292.3 421.236 Q2295.84 425.298 2302.51 425.298 Q2305.9 425.298 2308.89 424.074 Q2311.91 422.85 2314.57 420.376 L2314.57 425.871 Q2311.81 427.746 2308.71 428.684 Q2305.64 429.621 2302.2 429.621 Q2293.37 429.621 2288.29 424.23 Q2283.21 418.814 2283.21 409.465 Q2283.21 400.09 2288.29 394.699 Q2293.37 389.283 2302.2 389.283 Q2305.69 389.283 2308.76 390.22 Q2311.86 391.132 2314.57 392.981 Z" fill="#000000" fill-rule="nonzero" fill-opacity="1" /><path clip-path="url(#clip530)" d="M2322.69 389.986 L2327.95 389.986 L2327.95 428.866 L2322.69 428.866 L2322.69 389.986 Z" fill="#000000" fill-rule="nonzero" fill-opacity="1" /></svg>
