<?xml version="1.0" encoding="utf-8"?>
<svg xmlns="http://www.w3.org/2000/svg" xmlns:xlink="http://www.w3.org/1999/xlink" width="600" height="400" viewBox="0 0 2400 1600">
<defs>
  <clipPath id="clip530">
    <rect x="0" y="0" width="2400" height="1600"/>
  </clipPath>
</defs>
<path clip-path="url(#clip530)" d="M0 1600 L2400 1600 L2400 8.88178e-14 L0 8.88178e-14  Z" fill="#ffffff" fill-rule="evenodd" fill-opacity="1"/>
<defs>
  <clipPath id="clip531">
    <rect x="1779" y="944" width="571" height="534"/>
  </clipPath>
</defs>
<path clip-path="url(#clip530)" d="M545.232 1241.31 L2274.02 1241.31 L2274.02 125.984 L545.232 125.984  Z" fill="#ffffff" fill-rule="evenodd" fill-opacity="1"/>
<defs>
  <clipPath id="clip532">
    <rect x="545" y="125" width="1730" height="1116"/>
  </clipPath>
</defs>
<polyline clip-path="url(#clip532)" style="stroke:#000000; stroke-linecap:round; stroke-linejoin:round; stroke-width:2; stroke-opacity:0.1; fill:none" points="566.517,1241.31 566.517,125.984 "/>
<polyline clip-path="url(#clip532)" style="stroke:#000000; stroke-linecap:round; stroke-linejoin:round; stroke-width:2; stroke-opacity:0.1; fill:none" points="842.946,1241.31 842.946,125.984 "/>
<polyline clip-path="url(#clip532)" style="stroke:#000000; stroke-linecap:round; stroke-linejoin:round; stroke-width:2; stroke-opacity:0.1; fill:none" points="1119.37,1241.31 1119.37,125.984 "/>
<polyline clip-path="url(#clip532)" style="stroke:#000000; stroke-linecap:round; stroke-linejoin:round; stroke-width:2; stroke-opacity:0.1; fill:none" points="1395.8,1241.31 1395.8,125.984 "/>
<polyline clip-path="url(#clip532)" style="stroke:#000000; stroke-linecap:round; stroke-linejoin:round; stroke-width:2; stroke-opacity:0.1; fill:none" points="1672.23,1241.31 1672.23,125.984 "/>
<polyline clip-path="url(#clip532)" style="stroke:#000000; stroke-linecap:round; stroke-linejoin:round; stroke-width:2; stroke-opacity:0.1; fill:none" points="1948.66,1241.31 1948.66,125.984 "/>
<polyline clip-path="url(#clip532)" style="stroke:#000000; stroke-linecap:round; stroke-linejoin:round; stroke-width:2; stroke-opacity:0.1; fill:none" points="2225.09,1241.31 2225.09,125.984 "/>
<polyline clip-path="url(#clip532)" style="stroke:#000000; stroke-linecap:round; stroke-linejoin:round; stroke-width:2; stroke-opacity:0.1; fill:none" points="545.232,1115.32 2274.02,1115.32 "/>
<polyline clip-path="url(#clip532)" style="stroke:#000000; stroke-linecap:round; stroke-linejoin:round; stroke-width:2; stroke-opacity:0.1; fill:none" points="545.232,965.933 2274.02,965.933 "/>
<polyline clip-path="url(#clip532)" style="stroke:#000000; stroke-linecap:round; stroke-linejoin:round; stroke-width:2; stroke-opacity:0.1; fill:none" points="545.232,816.548 2274.02,816.548 "/>
<polyline clip-path="url(#clip532)" style="stroke:#000000; stroke-linecap:round; stroke-linejoin:round; stroke-width:2; stroke-opacity:0.1; fill:none" points="545.232,667.163 2274.02,667.163 "/>
<polyline clip-path="url(#clip532)" style="stroke:#000000; stroke-linecap:round; stroke-linejoin:round; stroke-width:2; stroke-opacity:0.1; fill:none" points="545.232,517.779 2274.02,517.779 "/>
<polyline clip-path="url(#clip532)" style="stroke:#000000; stroke-linecap:round; stroke-linejoin:round; stroke-width:2; stroke-opacity:0.1; fill:none" points="545.232,368.394 2274.02,368.394 "/>
<polyline clip-path="url(#clip532)" style="stroke:#000000; stroke-linecap:round; stroke-linejoin:round; stroke-width:2; stroke-opacity:0.1; fill:none" points="545.232,219.009 2274.02,219.009 "/>
<polyline clip-path="url(#clip530)" style="stroke:#000000; stroke-linecap:round; stroke-linejoin:round; stroke-width:4; stroke-opacity:1; fill:none" points="545.232,1241.31 2274.02,1241.31 "/>
<polyline clip-path="url(#clip530)" style="stroke:#000000; stroke-linecap:round; stroke-linejoin:round; stroke-width:4; stroke-opacity:1; fill:none" points="566.517,1241.31 566.517,1222.41 "/>
<polyline clip-path="url(#clip530)" style="stroke:#000000; stroke-linecap:round; stroke-linejoin:round; stroke-width:4; stroke-opacity:1; fill:none" points="842.946,1241.31 842.946,1222.41 "/>
<polyline clip-path="url(#clip530)" style="stroke:#000000; stroke-linecap:round; stroke-linejoin:round; stroke-width:4; stroke-opacity:1; fill:none" points="1119.37,1241.31 1119.37,1222.41 "/>
<polyline clip-path="url(#clip530)" style="stroke:#000000; stroke-linecap:round; stroke-linejoin:round; stroke-width:4; stroke-opacity:1; fill:none" points="1395.8,1241.31 1395.8,1222.41 "/>
<polyline clip-path="url(#clip530)" style="stroke:#000000; stroke-linecap:round; stroke-linejoin:round; stroke-width:4; stroke-opacity:1; fill:none" points="1672.23,1241.31 1672.23,1222.41 "/>
<polyline clip-path="url(#clip530)" style="stroke:#000000; stroke-linecap:round; stroke-linejoin:round; stroke-width:4; stroke-opacity:1; fill:none" points="1948.66,1241.31 1948.66,1222.41 "/>
<polyline clip-path="url(#clip530)" style="stroke:#000000; stroke-linecap:round; stroke-linejoin:round; stroke-width:4; stroke-opacity:1; fill:none" points="2225.09,1241.31 2225.09,1222.41 "/>
<path clip-path="url(#clip530)" d="M566.517 1275.16 Q562.004 1275.16 559.718 1279.62 Q557.461 1284.04 557.461 1292.95 Q557.461 1301.84 559.718 1306.29 Q562.004 1310.72 566.517 1310.72 Q571.06 1310.72 573.317 1306.29 Q575.603 1301.84 575.603 1292.95 Q575.603 1284.04 573.317 1279.62 Q571.06 1275.16 566.517 1275.16 M566.517 1270.53 Q573.78 1270.53 577.599 1276.29 Q581.448 1282.02 581.448 1292.95 Q581.448 1303.86 577.599 1309.62 Q573.78 1315.35 566.517 1315.35 Q559.255 1315.35 555.406 1309.62 Q551.587 1303.86 551.587 1292.95 Q551.587 1282.02 555.406 1276.29 Q559.255 1270.53 566.517 1270.53 Z" fill="#000000" fill-rule="nonzero" fill-opacity="1" /><path clip-path="url(#clip530)" d="M811.305 1309.59 L820.854 1309.59 L820.854 1276.64 L810.466 1278.72 L810.466 1273.39 L820.796 1271.31 L826.641 1271.31 L826.641 1309.59 L836.189 1309.59 L836.189 1314.51 L811.305 1314.51 L811.305 1309.59 Z" fill="#000000" fill-rule="nonzero" fill-opacity="1" /><path clip-path="url(#clip530)" d="M860.495 1275.16 Q855.981 1275.16 853.695 1279.62 Q851.438 1284.04 851.438 1292.95 Q851.438 1301.84 853.695 1306.29 Q855.981 1310.72 860.495 1310.72 Q865.038 1310.72 867.295 1306.29 Q869.58 1301.84 869.58 1292.95 Q869.58 1284.04 867.295 1279.62 Q865.038 1275.16 860.495 1275.16 M860.495 1270.53 Q867.758 1270.53 871.577 1276.29 Q875.425 1282.02 875.425 1292.95 Q875.425 1303.86 871.577 1309.62 Q867.758 1315.35 860.495 1315.35 Q853.232 1315.35 849.384 1309.62 Q845.564 1303.86 845.564 1292.95 Q845.564 1282.02 849.384 1276.29 Q853.232 1270.53 860.495 1270.53 Z" fill="#000000" fill-rule="nonzero" fill-opacity="1" /><path clip-path="url(#clip530)" d="M1092.84 1309.59 L1113.24 1309.59 L1113.24 1314.51 L1085.81 1314.51 L1085.81 1309.59 Q1089.14 1306.15 1094.87 1300.36 Q1100.62 1294.55 1102.1 1292.87 Q1104.91 1289.71 1106.01 1287.54 Q1107.13 1285.34 1107.13 1283.23 Q1107.13 1279.79 1104.7 1277.62 Q1102.3 1275.45 1098.43 1275.45 Q1095.68 1275.45 1092.61 1276.4 Q1089.57 1277.36 1086.1 1279.3 L1086.1 1273.39 Q1089.63 1271.98 1092.7 1271.25 Q1095.76 1270.53 1098.31 1270.53 Q1105.02 1270.53 1109.02 1273.89 Q1113.01 1277.24 1113.01 1282.86 Q1113.01 1285.52 1112 1287.92 Q1111.01 1290.29 1108.38 1293.53 Q1107.66 1294.37 1103.78 1298.39 Q1099.9 1302.39 1092.84 1309.59 Z" fill="#000000" fill-rule="nonzero" fill-opacity="1" /><path clip-path="url(#clip530)" d="M1138.01 1275.16 Q1133.49 1275.16 1131.21 1279.62 Q1128.95 1284.04 1128.95 1292.95 Q1128.95 1301.84 1131.21 1306.29 Q1133.49 1310.72 1138.01 1310.72 Q1142.55 1310.72 1144.81 1306.29 Q1147.09 1301.84 1147.09 1292.95 Q1147.09 1284.04 1144.81 1279.62 Q1142.55 1275.16 1138.01 1275.16 M1138.01 1270.53 Q1145.27 1270.53 1149.09 1276.29 Q1152.94 1282.02 1152.94 1292.95 Q1152.94 1303.86 1149.09 1309.62 Q1145.27 1315.35 1138.01 1315.35 Q1130.75 1315.35 1126.9 1309.62 Q1123.08 1303.86 1123.08 1292.95 Q1123.08 1282.02 1126.9 1276.29 Q1130.75 1270.53 1138.01 1270.53 Z" fill="#000000" fill-rule="nonzero" fill-opacity="1" /><path clip-path="url(#clip530)" d="M1381.86 1291.22 Q1386.05 1292.12 1388.4 1294.95 Q1390.77 1297.79 1390.77 1301.95 Q1390.77 1308.35 1386.37 1311.85 Q1381.97 1315.35 1373.87 1315.35 Q1371.15 1315.35 1368.26 1314.8 Q1365.39 1314.28 1362.32 1313.21 L1362.32 1307.57 Q1364.76 1308.98 1367.65 1309.71 Q1370.54 1310.43 1373.7 1310.43 Q1379.19 1310.43 1382.06 1308.26 Q1384.95 1306.09 1384.95 1301.95 Q1384.95 1298.13 1382.26 1295.99 Q1379.6 1293.82 1374.82 1293.82 L1369.79 1293.82 L1369.79 1289.02 L1375.06 1289.02 Q1379.37 1289.02 1381.65 1287.31 Q1383.94 1285.58 1383.94 1282.34 Q1383.94 1279.01 1381.57 1277.24 Q1379.22 1275.45 1374.82 1275.45 Q1372.42 1275.45 1369.67 1275.97 Q1366.93 1276.49 1363.63 1277.59 L1363.63 1272.38 Q1366.95 1271.46 1369.85 1270.99 Q1372.77 1270.53 1375.35 1270.53 Q1382 1270.53 1385.88 1273.57 Q1389.76 1276.58 1389.76 1281.73 Q1389.76 1285.32 1387.7 1287.8 Q1385.65 1290.26 1381.86 1291.22 Z" fill="#000000" fill-rule="nonzero" fill-opacity="1" /><path clip-path="url(#clip530)" d="M1414.35 1275.16 Q1409.84 1275.16 1407.55 1279.62 Q1405.29 1284.04 1405.29 1292.95 Q1405.29 1301.84 1407.55 1306.29 Q1409.84 1310.72 1414.35 1310.72 Q1418.89 1310.72 1421.15 1306.29 Q1423.44 1301.84 1423.44 1292.95 Q1423.44 1284.04 1421.15 1279.62 Q1418.89 1275.16 1414.35 1275.16 M1414.35 1270.53 Q1421.61 1270.53 1425.43 1276.29 Q1429.28 1282.02 1429.28 1292.95 Q1429.28 1303.86 1425.43 1309.62 Q1421.61 1315.35 1414.35 1315.35 Q1407.09 1315.35 1403.24 1309.62 Q1399.42 1303.86 1399.42 1292.95 Q1399.42 1282.02 1403.24 1276.29 Q1407.09 1270.53 1414.35 1270.53 Z" fill="#000000" fill-rule="nonzero" fill-opacity="1" /><path clip-path="url(#clip530)" d="M1657.45 1276.4 L1642.69 1299.47 L1657.45 1299.47 L1657.45 1276.4 M1655.91 1271.31 L1663.26 1271.31 L1663.26 1299.47 L1669.42 1299.47 L1669.42 1304.33 L1663.26 1304.33 L1663.26 1314.51 L1657.45 1314.51 L1657.45 1304.33 L1637.94 1304.33 L1637.94 1298.68 L1655.91 1271.31 Z" fill="#000000" fill-rule="nonzero" fill-opacity="1" /><path clip-path="url(#clip530)" d="M1691.59 1275.16 Q1687.07 1275.16 1684.79 1279.62 Q1682.53 1284.04 1682.53 1292.95 Q1682.53 1301.84 1684.79 1306.29 Q1687.07 1310.72 1691.59 1310.72 Q1696.13 1310.72 1698.39 1306.29 Q1700.67 1301.84 1700.67 1292.95 Q1700.67 1284.04 1698.39 1279.62 Q1696.13 1275.16 1691.59 1275.16 M1691.59 1270.53 Q1698.85 1270.53 1702.67 1276.29 Q1706.52 1282.02 1706.52 1292.95 Q1706.52 1303.86 1702.67 1309.62 Q1698.85 1315.35 1691.59 1315.35 Q1684.33 1315.35 1680.48 1309.62 Q1676.66 1303.86 1676.66 1292.95 Q1676.66 1282.02 1680.48 1276.29 Q1684.33 1270.53 1691.59 1270.53 Z" fill="#000000" fill-rule="nonzero" fill-opacity="1" /><path clip-path="url(#clip530)" d="M1917.03 1271.31 L1939.98 1271.31 L1939.98 1276.23 L1922.39 1276.23 L1922.39 1286.82 Q1923.66 1286.39 1924.93 1286.18 Q1926.21 1285.95 1927.48 1285.95 Q1934.71 1285.95 1938.94 1289.92 Q1943.16 1293.88 1943.16 1300.65 Q1943.16 1307.62 1938.82 1311.5 Q1934.48 1315.35 1926.58 1315.35 Q1923.86 1315.35 1921.03 1314.89 Q1918.22 1314.42 1915.21 1313.5 L1915.21 1307.62 Q1917.81 1309.04 1920.59 1309.74 Q1923.37 1310.43 1926.47 1310.43 Q1931.47 1310.43 1934.39 1307.8 Q1937.32 1305.17 1937.32 1300.65 Q1937.32 1296.14 1934.39 1293.5 Q1931.47 1290.87 1926.47 1290.87 Q1924.12 1290.87 1921.78 1291.39 Q1919.46 1291.91 1917.03 1293.01 L1917.03 1271.31 Z" fill="#000000" fill-rule="nonzero" fill-opacity="1" /><path clip-path="url(#clip530)" d="M1967.18 1275.16 Q1962.66 1275.16 1960.38 1279.62 Q1958.12 1284.04 1958.12 1292.95 Q1958.12 1301.84 1960.38 1306.29 Q1962.66 1310.72 1967.18 1310.72 Q1971.72 1310.72 1973.98 1306.29 Q1976.26 1301.84 1976.26 1292.95 Q1976.26 1284.04 1973.98 1279.62 Q1971.72 1275.16 1967.18 1275.16 M1967.18 1270.53 Q1974.44 1270.53 1978.26 1276.29 Q1982.11 1282.02 1982.11 1292.95 Q1982.11 1303.86 1978.26 1309.62 Q1974.44 1315.35 1967.18 1315.35 Q1959.92 1315.35 1956.07 1309.62 Q1952.25 1303.86 1952.25 1292.95 Q1952.25 1282.02 1956.07 1276.29 Q1959.92 1270.53 1967.18 1270.53 Z" fill="#000000" fill-rule="nonzero" fill-opacity="1" /><path clip-path="url(#clip530)" d="M2206.84 1290.58 Q2202.91 1290.58 2200.59 1293.27 Q2198.31 1295.96 2198.31 1300.65 Q2198.31 1305.31 2200.59 1308.03 Q2202.91 1310.72 2206.84 1310.72 Q2210.78 1310.72 2213.07 1308.03 Q2215.38 1305.31 2215.38 1300.65 Q2215.38 1295.96 2213.07 1293.27 Q2210.78 1290.58 2206.84 1290.58 M2218.45 1272.27 L2218.45 1277.59 Q2216.25 1276.55 2213.99 1276 Q2211.76 1275.45 2209.56 1275.45 Q2203.78 1275.45 2200.71 1279.36 Q2197.67 1283.26 2197.24 1291.16 Q2198.95 1288.64 2201.52 1287.31 Q2204.1 1285.95 2207.19 1285.95 Q2213.7 1285.95 2217.46 1289.92 Q2221.25 1293.85 2221.25 1300.65 Q2221.25 1307.31 2217.32 1311.33 Q2213.38 1315.35 2206.84 1315.35 Q2199.35 1315.35 2195.39 1309.62 Q2191.42 1303.86 2191.42 1292.95 Q2191.42 1282.71 2196.28 1276.64 Q2201.14 1270.53 2209.33 1270.53 Q2211.53 1270.53 2213.76 1270.96 Q2216.02 1271.4 2218.45 1272.27 Z" fill="#000000" fill-rule="nonzero" fill-opacity="1" /><path clip-path="url(#clip530)" d="M2243.82 1275.16 Q2239.31 1275.16 2237.02 1279.62 Q2234.77 1284.04 2234.77 1292.95 Q2234.77 1301.84 2237.02 1306.29 Q2239.31 1310.72 2243.82 1310.72 Q2248.37 1310.72 2250.62 1306.29 Q2252.91 1301.84 2252.91 1292.95 Q2252.91 1284.04 2250.62 1279.62 Q2248.37 1275.16 2243.82 1275.16 M2243.82 1270.53 Q2251.09 1270.53 2254.91 1276.29 Q2258.75 1282.02 2258.75 1292.95 Q2258.75 1303.86 2254.91 1309.62 Q2251.09 1315.35 2243.82 1315.35 Q2236.56 1315.35 2232.71 1309.62 Q2228.89 1303.86 2228.89 1292.95 Q2228.89 1282.02 2232.71 1276.29 Q2236.56 1270.53 2243.82 1270.53 Z" fill="#000000" fill-rule="nonzero" fill-opacity="1" /><path clip-path="url(#clip530)" d="M1218.83 1351.62 L1248.87 1351.62 L1248.87 1357.03 L1225.26 1357.03 L1225.26 1371.09 L1247.89 1371.09 L1247.89 1376.51 L1225.26 1376.51 L1225.26 1393.72 L1249.45 1393.72 L1249.45 1399.14 L1218.83 1399.14 L1218.83 1351.62 Z" fill="#000000" fill-rule="nonzero" fill-opacity="1" /><path clip-path="url(#clip530)" d="M1260.01 1351.62 L1269.59 1351.62 L1281.72 1383.95 L1293.91 1351.62 L1303.49 1351.62 L1303.49 1399.14 L1297.22 1399.14 L1297.22 1357.41 L1284.97 1390 L1278.51 1390 L1266.25 1357.41 L1266.25 1399.14 L1260.01 1399.14 L1260.01 1351.62 Z" fill="#000000" fill-rule="nonzero" fill-opacity="1" /><path clip-path="url(#clip530)" d="M1336.72 1363.49 L1342.58 1363.49 L1342.58 1399.14 L1336.72 1399.14 L1336.72 1363.49 M1336.72 1349.61 L1342.58 1349.61 L1342.58 1357.03 L1336.72 1357.03 L1336.72 1349.61 Z" fill="#000000" fill-rule="nonzero" fill-opacity="1" /><path clip-path="url(#clip530)" d="M1360.62 1353.37 L1360.62 1363.49 L1372.69 1363.49 L1372.69 1368.04 L1360.62 1368.04 L1360.62 1387.39 Q1360.62 1391.75 1361.8 1392.99 Q1363.01 1394.23 1366.67 1394.23 L1372.69 1394.23 L1372.69 1399.14 L1366.67 1399.14 Q1359.89 1399.14 1357.31 1396.62 Q1354.74 1394.07 1354.74 1387.39 L1354.74 1368.04 L1350.44 1368.04 L1350.44 1363.49 L1354.74 1363.49 L1354.74 1353.37 L1360.62 1353.37 Z" fill="#000000" fill-rule="nonzero" fill-opacity="1" /><path clip-path="url(#clip530)" d="M1410.88 1379.85 L1410.88 1382.71 L1383.95 1382.71 Q1384.34 1388.76 1387.58 1391.94 Q1390.86 1395.09 1396.69 1395.09 Q1400.06 1395.09 1403.21 1394.27 Q1406.39 1393.44 1409.51 1391.78 L1409.51 1397.32 Q1406.36 1398.66 1403.05 1399.36 Q1399.74 1400.06 1396.34 1400.06 Q1387.81 1400.06 1382.81 1395.09 Q1377.84 1390.13 1377.84 1381.66 Q1377.84 1372.91 1382.55 1367.78 Q1387.3 1362.63 1395.32 1362.63 Q1402.51 1362.63 1406.68 1367.28 Q1410.88 1371.89 1410.88 1379.85 M1405.02 1378.13 Q1404.96 1373.32 1402.32 1370.46 Q1399.71 1367.59 1395.38 1367.59 Q1390.48 1367.59 1387.52 1370.36 Q1384.59 1373.13 1384.15 1378.16 L1405.02 1378.13 Z" fill="#000000" fill-rule="nonzero" fill-opacity="1" /><path clip-path="url(#clip530)" d="M1441.15 1368.96 Q1440.16 1368.39 1438.99 1368.13 Q1437.84 1367.85 1436.44 1367.85 Q1431.47 1367.85 1428.8 1371.09 Q1426.16 1374.31 1426.16 1380.36 L1426.16 1399.14 L1420.27 1399.14 L1420.27 1363.49 L1426.16 1363.49 L1426.16 1369.03 Q1428.01 1365.78 1430.97 1364.22 Q1433.93 1362.63 1438.16 1362.63 Q1438.76 1362.63 1439.5 1362.72 Q1440.23 1362.79 1441.12 1362.95 L1441.15 1368.96 Z" fill="#000000" fill-rule="nonzero" fill-opacity="1" /><path clip-path="url(#clip530)" d="M1463.49 1381.22 Q1456.4 1381.22 1453.66 1382.84 Q1450.92 1384.46 1450.92 1388.38 Q1450.92 1391.5 1452.96 1393.34 Q1455.03 1395.16 1458.56 1395.16 Q1463.43 1395.16 1466.36 1391.72 Q1469.32 1388.25 1469.32 1382.52 L1469.32 1381.22 L1463.49 1381.22 M1475.17 1378.8 L1475.17 1399.14 L1469.32 1399.14 L1469.32 1393.72 Q1467.31 1396.97 1464.32 1398.53 Q1461.33 1400.06 1457 1400.06 Q1451.53 1400.06 1448.28 1397 Q1445.07 1393.92 1445.07 1388.76 Q1445.07 1382.74 1449.08 1379.69 Q1453.12 1376.63 1461.11 1376.63 L1469.32 1376.63 L1469.32 1376.06 Q1469.32 1372.02 1466.64 1369.82 Q1464 1367.59 1459.2 1367.59 Q1456.14 1367.59 1453.25 1368.33 Q1450.35 1369.06 1447.68 1370.52 L1447.68 1365.11 Q1450.89 1363.87 1453.91 1363.26 Q1456.94 1362.63 1459.8 1362.63 Q1467.54 1362.63 1471.36 1366.64 Q1475.17 1370.65 1475.17 1378.8 Z" fill="#000000" fill-rule="nonzero" fill-opacity="1" /><path clip-path="url(#clip530)" d="M1493.03 1353.37 L1493.03 1363.49 L1505.09 1363.49 L1505.09 1368.04 L1493.03 1368.04 L1493.03 1387.39 Q1493.03 1391.75 1494.21 1392.99 Q1495.42 1394.23 1499.08 1394.23 L1505.09 1394.23 L1505.09 1399.14 L1499.08 1399.14 Q1492.3 1399.14 1489.72 1396.62 Q1487.14 1394.07 1487.14 1387.39 L1487.14 1368.04 L1482.85 1368.04 L1482.85 1363.49 L1487.14 1363.49 L1487.14 1353.37 L1493.03 1353.37 Z" fill="#000000" fill-rule="nonzero" fill-opacity="1" /><path clip-path="url(#clip530)" d="M1512.8 1363.49 L1518.65 1363.49 L1518.65 1399.14 L1512.8 1399.14 L1512.8 1363.49 M1512.8 1349.61 L1518.65 1349.61 L1518.65 1357.03 L1512.8 1357.03 L1512.8 1349.61 Z" fill="#000000" fill-rule="nonzero" fill-opacity="1" /><path clip-path="url(#clip530)" d="M1544.72 1367.59 Q1540.01 1367.59 1537.27 1371.29 Q1534.54 1374.95 1534.54 1381.34 Q1534.54 1387.74 1537.24 1391.43 Q1539.98 1395.09 1544.72 1395.09 Q1549.4 1395.09 1552.14 1391.4 Q1554.87 1387.71 1554.87 1381.34 Q1554.87 1375.01 1552.14 1371.32 Q1549.4 1367.59 1544.72 1367.59 M1544.72 1362.63 Q1552.36 1362.63 1556.72 1367.59 Q1561.08 1372.56 1561.08 1381.34 Q1561.08 1390.1 1556.72 1395.09 Q1552.36 1400.06 1544.72 1400.06 Q1537.05 1400.06 1532.69 1395.09 Q1528.36 1390.1 1528.36 1381.34 Q1528.36 1372.56 1532.69 1367.59 Q1537.05 1362.63 1544.72 1362.63 Z" fill="#000000" fill-rule="nonzero" fill-opacity="1" /><path clip-path="url(#clip530)" d="M1600.42 1377.62 L1600.42 1399.14 L1594.56 1399.14 L1594.56 1377.81 Q1594.56 1372.75 1592.59 1370.24 Q1590.62 1367.72 1586.67 1367.72 Q1581.93 1367.72 1579.19 1370.74 Q1576.45 1373.77 1576.45 1378.99 L1576.45 1399.14 L1570.57 1399.14 L1570.57 1363.49 L1576.45 1363.49 L1576.45 1369.03 Q1578.55 1365.81 1581.39 1364.22 Q1584.25 1362.63 1587.98 1362.63 Q1594.12 1362.63 1597.27 1366.45 Q1600.42 1370.24 1600.42 1377.62 Z" fill="#000000" fill-rule="nonzero" fill-opacity="1" /><polyline clip-path="url(#clip530)" style="stroke:#000000; stroke-linecap:round; stroke-linejoin:round; stroke-width:4; stroke-opacity:1; fill:none" points="545.232,1241.31 545.232,125.984 "/>
<polyline clip-path="url(#clip530)" style="stroke:#000000; stroke-linecap:round; stroke-linejoin:round; stroke-width:4; stroke-opacity:1; fill:none" points="545.232,1115.32 564.13,1115.32 "/>
<polyline clip-path="url(#clip530)" style="stroke:#000000; stroke-linecap:round; stroke-linejoin:round; stroke-width:4; stroke-opacity:1; fill:none" points="545.232,965.933 564.13,965.933 "/>
<polyline clip-path="url(#clip530)" style="stroke:#000000; stroke-linecap:round; stroke-linejoin:round; stroke-width:4; stroke-opacity:1; fill:none" points="545.232,816.548 564.13,816.548 "/>
<polyline clip-path="url(#clip530)" style="stroke:#000000; stroke-linecap:round; stroke-linejoin:round; stroke-width:4; stroke-opacity:1; fill:none" points="545.232,667.163 564.13,667.163 "/>
<polyline clip-path="url(#clip530)" style="stroke:#000000; stroke-linecap:round; stroke-linejoin:round; stroke-width:4; stroke-opacity:1; fill:none" points="545.232,517.779 564.13,517.779 "/>
<polyline clip-path="url(#clip530)" style="stroke:#000000; stroke-linecap:round; stroke-linejoin:round; stroke-width:4; stroke-opacity:1; fill:none" points="545.232,368.394 564.13,368.394 "/>
<polyline clip-path="url(#clip530)" style="stroke:#000000; stroke-linecap:round; stroke-linejoin:round; stroke-width:4; stroke-opacity:1; fill:none" points="545.232,219.009 564.13,219.009 "/>
<path clip-path="url(#clip530)" d="M318.985 1115.88 L356.079 1115.88 L356.079 1120.8 L318.985 1120.8 L318.985 1115.88 Z" fill="#000000" fill-rule="nonzero" fill-opacity="1" /><path clip-path="url(#clip530)" d="M368.753 1093.72 L391.698 1093.72 L391.698 1098.64 L374.106 1098.64 L374.106 1109.23 Q375.379 1108.79 376.652 1108.59 Q377.925 1108.36 379.198 1108.36 Q386.432 1108.36 390.657 1112.32 Q394.881 1116.29 394.881 1123.06 Q394.881 1130.03 390.541 1133.91 Q386.201 1137.76 378.301 1137.76 Q375.581 1137.76 372.746 1137.29 Q369.939 1136.83 366.93 1135.9 L366.93 1130.03 Q369.534 1131.45 372.312 1132.14 Q375.09 1132.84 378.186 1132.84 Q383.191 1132.84 386.114 1130.2 Q389.036 1127.57 389.036 1123.06 Q389.036 1118.54 386.114 1115.91 Q383.191 1113.28 378.186 1113.28 Q375.842 1113.28 373.498 1113.8 Q371.183 1114.32 368.753 1115.42 L368.753 1093.72 Z" fill="#000000" fill-rule="nonzero" fill-opacity="1" /><path clip-path="url(#clip530)" d="M422.456 1098.81 L407.699 1121.87 L422.456 1121.87 L422.456 1098.81 M420.923 1093.72 L428.272 1093.72 L428.272 1121.87 L434.435 1121.87 L434.435 1126.73 L428.272 1126.73 L428.272 1136.92 L422.456 1136.92 L422.456 1126.73 L402.954 1126.73 L402.954 1121.09 L420.923 1093.72 Z" fill="#000000" fill-rule="nonzero" fill-opacity="1" /><path clip-path="url(#clip530)" d="M456.6 1097.57 Q452.086 1097.57 449.8 1102.02 Q447.543 1106.45 447.543 1115.36 Q447.543 1124.24 449.8 1128.7 Q452.086 1133.13 456.6 1133.13 Q461.142 1133.13 463.399 1128.7 Q465.685 1124.24 465.685 1115.36 Q465.685 1106.45 463.399 1102.02 Q461.142 1097.57 456.6 1097.57 M456.6 1092.94 Q463.862 1092.94 467.682 1098.69 Q471.53 1104.42 471.53 1115.36 Q471.53 1126.27 467.682 1132.03 Q463.862 1137.76 456.6 1137.76 Q449.337 1137.76 445.489 1132.03 Q441.669 1126.27 441.669 1115.36 Q441.669 1104.42 445.489 1098.69 Q449.337 1092.94 456.6 1092.94 Z" fill="#000000" fill-rule="nonzero" fill-opacity="1" /><path clip-path="url(#clip530)" d="M494.302 1097.57 Q489.788 1097.57 487.502 1102.02 Q485.245 1106.45 485.245 1115.36 Q485.245 1124.24 487.502 1128.7 Q489.788 1133.13 494.302 1133.13 Q498.845 1133.13 501.102 1128.7 Q503.388 1124.24 503.388 1115.36 Q503.388 1106.45 501.102 1102.02 Q498.845 1097.57 494.302 1097.57 M494.302 1092.94 Q501.565 1092.94 505.384 1098.69 Q509.232 1104.42 509.232 1115.36 Q509.232 1126.27 505.384 1132.03 Q501.565 1137.76 494.302 1137.76 Q487.039 1137.76 483.191 1132.03 Q479.371 1126.27 479.371 1115.36 Q479.371 1104.42 483.191 1098.69 Q487.039 1092.94 494.302 1092.94 Z" fill="#000000" fill-rule="nonzero" fill-opacity="1" /><path clip-path="url(#clip530)" d="M318.985 966.497 L356.079 966.497 L356.079 971.416 L318.985 971.416 L318.985 966.497 Z" fill="#000000" fill-rule="nonzero" fill-opacity="1" /><path clip-path="url(#clip530)" d="M368.753 944.333 L391.698 944.333 L391.698 949.252 L374.106 949.252 L374.106 959.842 Q375.379 959.408 376.652 959.205 Q377.925 958.974 379.198 958.974 Q386.432 958.974 390.657 962.938 Q394.881 966.902 394.881 973.673 Q394.881 980.646 390.541 984.524 Q386.201 988.372 378.301 988.372 Q375.581 988.372 372.746 987.909 Q369.939 987.446 366.93 986.52 L366.93 980.646 Q369.534 982.064 372.312 982.759 Q375.09 983.453 378.186 983.453 Q383.191 983.453 386.114 980.82 Q389.036 978.187 389.036 973.673 Q389.036 969.159 386.114 966.526 Q383.191 963.893 378.186 963.893 Q375.842 963.893 373.498 964.414 Q371.183 964.935 368.753 966.034 L368.753 944.333 Z" fill="#000000" fill-rule="nonzero" fill-opacity="1" /><path clip-path="url(#clip530)" d="M424.106 964.24 Q428.301 965.137 430.645 967.973 Q433.018 970.808 433.018 974.975 Q433.018 981.37 428.619 984.871 Q424.221 988.372 416.119 988.372 Q413.4 988.372 410.506 987.822 Q407.641 987.301 404.574 986.231 L404.574 980.588 Q407.005 982.006 409.898 982.73 Q412.792 983.453 415.946 983.453 Q421.444 983.453 424.308 981.283 Q427.202 979.113 427.202 974.975 Q427.202 971.156 424.511 969.014 Q421.849 966.844 417.074 966.844 L412.04 966.844 L412.04 962.041 L417.306 962.041 Q421.617 962.041 423.903 960.334 Q426.189 958.598 426.189 955.357 Q426.189 952.03 423.816 950.264 Q421.472 948.471 417.074 948.471 Q414.673 948.471 411.924 948.991 Q409.175 949.512 405.876 950.612 L405.876 945.403 Q409.204 944.477 412.097 944.015 Q415.02 943.552 417.595 943.552 Q424.25 943.552 428.128 946.59 Q432.005 949.599 432.005 954.749 Q432.005 958.337 429.95 960.826 Q427.896 963.285 424.106 964.24 Z" fill="#000000" fill-rule="nonzero" fill-opacity="1" /><path clip-path="url(#clip530)" d="M456.6 948.181 Q452.086 948.181 449.8 952.637 Q447.543 957.064 447.543 965.976 Q447.543 974.859 449.8 979.315 Q452.086 983.742 456.6 983.742 Q461.142 983.742 463.399 979.315 Q465.685 974.859 465.685 965.976 Q465.685 957.064 463.399 952.637 Q461.142 948.181 456.6 948.181 M456.6 943.552 Q463.862 943.552 467.682 949.31 Q471.53 955.039 471.53 965.976 Q471.53 976.885 467.682 982.643 Q463.862 988.372 456.6 988.372 Q449.337 988.372 445.489 982.643 Q441.669 976.885 441.669 965.976 Q441.669 955.039 445.489 949.31 Q449.337 943.552 456.6 943.552 Z" fill="#000000" fill-rule="nonzero" fill-opacity="1" /><path clip-path="url(#clip530)" d="M494.302 948.181 Q489.788 948.181 487.502 952.637 Q485.245 957.064 485.245 965.976 Q485.245 974.859 487.502 979.315 Q489.788 983.742 494.302 983.742 Q498.845 983.742 501.102 979.315 Q503.388 974.859 503.388 965.976 Q503.388 957.064 501.102 952.637 Q498.845 948.181 494.302 948.181 M494.302 943.552 Q501.565 943.552 505.384 949.31 Q509.232 955.039 509.232 965.976 Q509.232 976.885 505.384 982.643 Q501.565 988.372 494.302 988.372 Q487.039 988.372 483.191 982.643 Q479.371 976.885 479.371 965.976 Q479.371 955.039 483.191 949.31 Q487.039 943.552 494.302 943.552 Z" fill="#000000" fill-rule="nonzero" fill-opacity="1" /><path clip-path="url(#clip530)" d="M318.985 817.112 L356.079 817.112 L356.079 822.031 L318.985 822.031 L318.985 817.112 Z" fill="#000000" fill-rule="nonzero" fill-opacity="1" /><path clip-path="url(#clip530)" d="M368.753 794.948 L391.698 794.948 L391.698 799.867 L374.106 799.867 L374.106 810.457 Q375.379 810.023 376.652 809.821 Q377.925 809.589 379.198 809.589 Q386.432 809.589 390.657 813.553 Q394.881 817.517 394.881 824.288 Q394.881 831.262 390.541 835.139 Q386.201 838.987 378.301 838.987 Q375.581 838.987 372.746 838.524 Q369.939 838.061 366.93 837.135 L366.93 831.262 Q369.534 832.679 372.312 833.374 Q375.09 834.068 378.186 834.068 Q383.191 834.068 386.114 831.435 Q389.036 828.802 389.036 824.288 Q389.036 819.774 386.114 817.141 Q383.191 814.508 378.186 814.508 Q375.842 814.508 373.498 815.029 Q371.183 815.55 368.753 816.649 L368.753 794.948 Z" fill="#000000" fill-rule="nonzero" fill-opacity="1" /><path clip-path="url(#clip530)" d="M411.432 833.229 L431.831 833.229 L431.831 838.148 L404.401 838.148 L404.401 833.229 Q407.728 829.786 413.457 823.999 Q419.216 818.183 420.691 816.505 Q423.498 813.351 424.597 811.181 Q425.726 808.982 425.726 806.869 Q425.726 803.426 423.295 801.256 Q420.894 799.086 417.016 799.086 Q414.268 799.086 411.201 800.041 Q408.162 800.995 404.69 802.934 L404.69 797.031 Q408.22 795.614 411.287 794.89 Q414.354 794.167 416.901 794.167 Q423.614 794.167 427.607 797.523 Q431.6 800.88 431.6 806.493 Q431.6 809.155 430.587 811.557 Q429.603 813.929 426.97 817.17 Q426.247 818.009 422.369 822.031 Q418.492 826.024 411.432 833.229 Z" fill="#000000" fill-rule="nonzero" fill-opacity="1" /><path clip-path="url(#clip530)" d="M456.6 798.796 Q452.086 798.796 449.8 803.252 Q447.543 807.679 447.543 816.591 Q447.543 825.475 449.8 829.931 Q452.086 834.358 456.6 834.358 Q461.142 834.358 463.399 829.931 Q465.685 825.475 465.685 816.591 Q465.685 807.679 463.399 803.252 Q461.142 798.796 456.6 798.796 M456.6 794.167 Q463.862 794.167 467.682 799.925 Q471.53 805.654 471.53 816.591 Q471.53 827.5 467.682 833.258 Q463.862 838.987 456.6 838.987 Q449.337 838.987 445.489 833.258 Q441.669 827.5 441.669 816.591 Q441.669 805.654 445.489 799.925 Q449.337 794.167 456.6 794.167 Z" fill="#000000" fill-rule="nonzero" fill-opacity="1" /><path clip-path="url(#clip530)" d="M494.302 798.796 Q489.788 798.796 487.502 803.252 Q485.245 807.679 485.245 816.591 Q485.245 825.475 487.502 829.931 Q489.788 834.358 494.302 834.358 Q498.845 834.358 501.102 829.931 Q503.388 825.475 503.388 816.591 Q503.388 807.679 501.102 803.252 Q498.845 798.796 494.302 798.796 M494.302 794.167 Q501.565 794.167 505.384 799.925 Q509.232 805.654 509.232 816.591 Q509.232 827.5 505.384 833.258 Q501.565 838.987 494.302 838.987 Q487.039 838.987 483.191 833.258 Q479.371 827.5 479.371 816.591 Q479.371 805.654 483.191 799.925 Q487.039 794.167 494.302 794.167 Z" fill="#000000" fill-rule="nonzero" fill-opacity="1" /><path clip-path="url(#clip530)" d="M318.985 667.728 L356.079 667.728 L356.079 672.647 L318.985 672.647 L318.985 667.728 Z" fill="#000000" fill-rule="nonzero" fill-opacity="1" /><path clip-path="url(#clip530)" d="M368.753 645.563 L391.698 645.563 L391.698 650.482 L374.106 650.482 L374.106 661.073 Q375.379 660.638 376.652 660.436 Q377.925 660.204 379.198 660.204 Q386.432 660.204 390.657 664.169 Q394.881 668.133 394.881 674.903 Q394.881 681.877 390.541 685.754 Q386.201 689.602 378.301 689.602 Q375.581 689.602 372.746 689.139 Q369.939 688.677 366.93 687.751 L366.93 681.877 Q369.534 683.295 372.312 683.989 Q375.09 684.683 378.186 684.683 Q383.191 684.683 386.114 682.05 Q389.036 679.417 389.036 674.903 Q389.036 670.39 386.114 667.757 Q383.191 665.123 378.186 665.123 Q375.842 665.123 373.498 665.644 Q371.183 666.165 368.753 667.265 L368.753 645.563 Z" fill="#000000" fill-rule="nonzero" fill-opacity="1" /><path clip-path="url(#clip530)" d="M407.41 683.844 L416.959 683.844 L416.959 650.887 L406.571 652.971 L406.571 647.647 L416.901 645.563 L422.746 645.563 L422.746 683.844 L432.294 683.844 L432.294 688.763 L407.41 688.763 L407.41 683.844 Z" fill="#000000" fill-rule="nonzero" fill-opacity="1" /><path clip-path="url(#clip530)" d="M456.6 649.412 Q452.086 649.412 449.8 653.868 Q447.543 658.295 447.543 667.207 Q447.543 676.09 449.8 680.546 Q452.086 684.973 456.6 684.973 Q461.142 684.973 463.399 680.546 Q465.685 676.09 465.685 667.207 Q465.685 658.295 463.399 653.868 Q461.142 649.412 456.6 649.412 M456.6 644.782 Q463.862 644.782 467.682 650.54 Q471.53 656.269 471.53 667.207 Q471.53 678.115 467.682 683.873 Q463.862 689.602 456.6 689.602 Q449.337 689.602 445.489 683.873 Q441.669 678.115 441.669 667.207 Q441.669 656.269 445.489 650.54 Q449.337 644.782 456.6 644.782 Z" fill="#000000" fill-rule="nonzero" fill-opacity="1" /><path clip-path="url(#clip530)" d="M494.302 649.412 Q489.788 649.412 487.502 653.868 Q485.245 658.295 485.245 667.207 Q485.245 676.09 487.502 680.546 Q489.788 684.973 494.302 684.973 Q498.845 684.973 501.102 680.546 Q503.388 676.09 503.388 667.207 Q503.388 658.295 501.102 653.868 Q498.845 649.412 494.302 649.412 M494.302 644.782 Q501.565 644.782 505.384 650.54 Q509.232 656.269 509.232 667.207 Q509.232 678.115 505.384 683.873 Q501.565 689.602 494.302 689.602 Q487.039 689.602 483.191 683.873 Q479.371 678.115 479.371 667.207 Q479.371 656.269 483.191 650.54 Q487.039 644.782 494.302 644.782 Z" fill="#000000" fill-rule="nonzero" fill-opacity="1" /><path clip-path="url(#clip530)" d="M318.985 518.343 L356.079 518.343 L356.079 523.262 L318.985 523.262 L318.985 518.343 Z" fill="#000000" fill-rule="nonzero" fill-opacity="1" /><path clip-path="url(#clip530)" d="M368.753 496.179 L391.698 496.179 L391.698 501.098 L374.106 501.098 L374.106 511.688 Q375.379 511.254 376.652 511.051 Q377.925 510.82 379.198 510.82 Q386.432 510.82 390.657 514.784 Q394.881 518.748 394.881 525.519 Q394.881 532.492 390.541 536.369 Q386.201 540.218 378.301 540.218 Q375.581 540.218 372.746 539.755 Q369.939 539.292 366.93 538.366 L366.93 532.492 Q369.534 533.91 372.312 534.604 Q375.09 535.299 378.186 535.299 Q383.191 535.299 386.114 532.666 Q389.036 530.033 389.036 525.519 Q389.036 521.005 386.114 518.372 Q383.191 515.739 378.186 515.739 Q375.842 515.739 373.498 516.26 Q371.183 516.78 368.753 517.88 L368.753 496.179 Z" fill="#000000" fill-rule="nonzero" fill-opacity="1" /><path clip-path="url(#clip530)" d="M418.897 500.027 Q414.383 500.027 412.097 504.483 Q409.841 508.91 409.841 517.822 Q409.841 526.705 412.097 531.161 Q414.383 535.588 418.897 535.588 Q423.44 535.588 425.697 531.161 Q427.983 526.705 427.983 517.822 Q427.983 508.91 425.697 504.483 Q423.44 500.027 418.897 500.027 M418.897 495.397 Q426.16 495.397 429.979 501.155 Q433.828 506.885 433.828 517.822 Q433.828 528.73 429.979 534.489 Q426.16 540.218 418.897 540.218 Q411.635 540.218 407.786 534.489 Q403.967 528.73 403.967 517.822 Q403.967 506.885 407.786 501.155 Q411.635 495.397 418.897 495.397 Z" fill="#000000" fill-rule="nonzero" fill-opacity="1" /><path clip-path="url(#clip530)" d="M456.6 500.027 Q452.086 500.027 449.8 504.483 Q447.543 508.91 447.543 517.822 Q447.543 526.705 449.8 531.161 Q452.086 535.588 456.6 535.588 Q461.142 535.588 463.399 531.161 Q465.685 526.705 465.685 517.822 Q465.685 508.91 463.399 504.483 Q461.142 500.027 456.6 500.027 M456.6 495.397 Q463.862 495.397 467.682 501.155 Q471.53 506.885 471.53 517.822 Q471.53 528.73 467.682 534.489 Q463.862 540.218 456.6 540.218 Q449.337 540.218 445.489 534.489 Q441.669 528.73 441.669 517.822 Q441.669 506.885 445.489 501.155 Q449.337 495.397 456.6 495.397 Z" fill="#000000" fill-rule="nonzero" fill-opacity="1" /><path clip-path="url(#clip530)" d="M494.302 500.027 Q489.788 500.027 487.502 504.483 Q485.245 508.91 485.245 517.822 Q485.245 526.705 487.502 531.161 Q489.788 535.588 494.302 535.588 Q498.845 535.588 501.102 531.161 Q503.388 526.705 503.388 517.822 Q503.388 508.91 501.102 504.483 Q498.845 500.027 494.302 500.027 M494.302 495.397 Q501.565 495.397 505.384 501.155 Q509.232 506.885 509.232 517.822 Q509.232 528.73 505.384 534.489 Q501.565 540.218 494.302 540.218 Q487.039 540.218 483.191 534.489 Q479.371 528.73 479.371 517.822 Q479.371 506.885 483.191 501.155 Q487.039 495.397 494.302 495.397 Z" fill="#000000" fill-rule="nonzero" fill-opacity="1" /><path clip-path="url(#clip530)" d="M318.985 368.958 L356.079 368.958 L356.079 373.877 L318.985 373.877 L318.985 368.958 Z" fill="#000000" fill-rule="nonzero" fill-opacity="1" /><path clip-path="url(#clip530)" d="M384.754 351.886 L369.997 374.948 L384.754 374.948 L384.754 351.886 M383.22 346.794 L390.57 346.794 L390.57 374.948 L396.733 374.948 L396.733 379.809 L390.57 379.809 L390.57 389.994 L384.754 389.994 L384.754 379.809 L365.252 379.809 L365.252 374.166 L383.22 346.794 Z" fill="#000000" fill-rule="nonzero" fill-opacity="1" /><path clip-path="url(#clip530)" d="M406.571 389.097 L406.571 383.773 Q408.77 384.814 411.027 385.364 Q413.284 385.914 415.454 385.914 Q421.241 385.914 424.279 382.037 Q427.346 378.13 427.78 370.202 Q426.102 372.691 423.527 374.022 Q420.952 375.353 417.827 375.353 Q411.345 375.353 407.555 371.446 Q403.793 367.511 403.793 360.712 Q403.793 354.057 407.728 350.035 Q411.663 346.013 418.203 346.013 Q425.697 346.013 429.632 351.771 Q433.596 357.5 433.596 368.437 Q433.596 378.651 428.735 384.757 Q423.903 390.833 415.714 390.833 Q413.515 390.833 411.258 390.399 Q409.001 389.965 406.571 389.097 M418.203 370.781 Q422.138 370.781 424.424 368.09 Q426.739 365.399 426.739 360.712 Q426.739 356.053 424.424 353.362 Q422.138 350.642 418.203 350.642 Q414.268 350.642 411.953 353.362 Q409.667 356.053 409.667 360.712 Q409.667 365.399 411.953 368.09 Q414.268 370.781 418.203 370.781 Z" fill="#000000" fill-rule="nonzero" fill-opacity="1" /><path clip-path="url(#clip530)" d="M456.6 350.642 Q452.086 350.642 449.8 355.098 Q447.543 359.525 447.543 368.437 Q447.543 377.32 449.8 381.776 Q452.086 386.203 456.6 386.203 Q461.142 386.203 463.399 381.776 Q465.685 377.32 465.685 368.437 Q465.685 359.525 463.399 355.098 Q461.142 350.642 456.6 350.642 M456.6 346.013 Q463.862 346.013 467.682 351.771 Q471.53 357.5 471.53 368.437 Q471.53 379.346 467.682 385.104 Q463.862 390.833 456.6 390.833 Q449.337 390.833 445.489 385.104 Q441.669 379.346 441.669 368.437 Q441.669 357.5 445.489 351.771 Q449.337 346.013 456.6 346.013 Z" fill="#000000" fill-rule="nonzero" fill-opacity="1" /><path clip-path="url(#clip530)" d="M494.302 350.642 Q489.788 350.642 487.502 355.098 Q485.245 359.525 485.245 368.437 Q485.245 377.32 487.502 381.776 Q489.788 386.203 494.302 386.203 Q498.845 386.203 501.102 381.776 Q503.388 377.32 503.388 368.437 Q503.388 359.525 501.102 355.098 Q498.845 350.642 494.302 350.642 M494.302 346.013 Q501.565 346.013 505.384 351.771 Q509.232 357.5 509.232 368.437 Q509.232 379.346 505.384 385.104 Q501.565 390.833 494.302 390.833 Q487.039 390.833 483.191 385.104 Q479.371 379.346 479.371 368.437 Q479.371 357.5 483.191 351.771 Q487.039 346.013 494.302 346.013 Z" fill="#000000" fill-rule="nonzero" fill-opacity="1" /><path clip-path="url(#clip530)" d="M318.985 219.573 L356.079 219.573 L356.079 224.492 L318.985 224.492 L318.985 219.573 Z" fill="#000000" fill-rule="nonzero" fill-opacity="1" /><path clip-path="url(#clip530)" d="M384.754 202.502 L369.997 225.563 L384.754 225.563 L384.754 202.502 M383.22 197.409 L390.57 197.409 L390.57 225.563 L396.733 225.563 L396.733 230.424 L390.57 230.424 L390.57 240.609 L384.754 240.609 L384.754 230.424 L365.252 230.424 L365.252 224.782 L383.22 197.409 Z" fill="#000000" fill-rule="nonzero" fill-opacity="1" /><path clip-path="url(#clip530)" d="M418.897 220.094 Q414.731 220.094 412.329 222.322 Q409.956 224.55 409.956 228.456 Q409.956 232.363 412.329 234.591 Q414.731 236.819 418.897 236.819 Q423.064 236.819 425.465 234.591 Q427.867 232.334 427.867 228.456 Q427.867 224.55 425.465 222.322 Q423.093 220.094 418.897 220.094 M413.052 217.606 Q409.291 216.68 407.179 214.105 Q405.095 211.529 405.095 207.826 Q405.095 202.646 408.77 199.637 Q412.474 196.628 418.897 196.628 Q425.35 196.628 429.024 199.637 Q432.699 202.646 432.699 207.826 Q432.699 211.529 430.587 214.105 Q428.504 216.68 424.771 217.606 Q428.996 218.59 431.339 221.454 Q433.712 224.319 433.712 228.456 Q433.712 234.735 429.864 238.092 Q426.044 241.448 418.897 241.448 Q411.75 241.448 407.902 238.092 Q404.082 234.735 404.082 228.456 Q404.082 224.319 406.455 221.454 Q408.828 218.59 413.052 217.606 M410.911 208.375 Q410.911 211.732 412.994 213.613 Q415.107 215.493 418.897 215.493 Q422.659 215.493 424.771 213.613 Q426.912 211.732 426.912 208.375 Q426.912 205.019 424.771 203.138 Q422.659 201.257 418.897 201.257 Q415.107 201.257 412.994 203.138 Q410.911 205.019 410.911 208.375 Z" fill="#000000" fill-rule="nonzero" fill-opacity="1" /><path clip-path="url(#clip530)" d="M456.6 201.257 Q452.086 201.257 449.8 205.713 Q447.543 210.141 447.543 219.053 Q447.543 227.936 449.8 232.392 Q452.086 236.819 456.6 236.819 Q461.142 236.819 463.399 232.392 Q465.685 227.936 465.685 219.053 Q465.685 210.141 463.399 205.713 Q461.142 201.257 456.6 201.257 M456.6 196.628 Q463.862 196.628 467.682 202.386 Q471.53 208.115 471.53 219.053 Q471.53 229.961 467.682 235.719 Q463.862 241.448 456.6 241.448 Q449.337 241.448 445.489 235.719 Q441.669 229.961 441.669 219.053 Q441.669 208.115 445.489 202.386 Q449.337 196.628 456.6 196.628 Z" fill="#000000" fill-rule="nonzero" fill-opacity="1" /><path clip-path="url(#clip530)" d="M494.302 201.257 Q489.788 201.257 487.502 205.713 Q485.245 210.141 485.245 219.053 Q485.245 227.936 487.502 232.392 Q489.788 236.819 494.302 236.819 Q498.845 236.819 501.102 232.392 Q503.388 227.936 503.388 219.053 Q503.388 210.141 501.102 205.713 Q498.845 201.257 494.302 201.257 M494.302 196.628 Q501.565 196.628 505.384 202.386 Q509.232 208.115 509.232 219.053 Q509.232 229.961 505.384 235.719 Q501.565 241.448 494.302 241.448 Q487.039 241.448 483.191 235.719 Q479.371 229.961 479.371 219.053 Q479.371 208.115 483.191 202.386 Q487.039 196.628 494.302 196.628 Z" fill="#000000" fill-rule="nonzero" fill-opacity="1" /><path clip-path="url(#clip530)" d="M226.492 975.897 L263.445 975.897 L263.445 968.131 Q263.445 958.296 258.989 953.745 Q254.533 949.161 244.921 949.161 Q235.372 949.161 230.948 953.745 Q226.492 958.296 226.492 968.131 L226.492 975.897 M221.209 982.327 L221.209 969.118 Q221.209 955.304 226.97 948.843 Q232.699 942.382 244.921 942.382 Q257.207 942.382 262.968 948.875 Q268.729 955.368 268.729 969.118 L268.729 982.327 L221.209 982.327 Z" fill="#000000" fill-rule="nonzero" fill-opacity="1" /><path clip-path="url(#clip530)" d="M250.809 916.187 Q250.809 923.285 252.432 926.022 Q254.056 928.759 257.971 928.759 Q261.09 928.759 262.936 926.722 Q264.75 924.654 264.75 921.121 Q264.75 916.251 261.313 913.323 Q257.843 910.363 252.114 910.363 L250.809 910.363 L250.809 916.187 M248.39 904.506 L268.729 904.506 L268.729 910.363 L263.318 910.363 Q266.564 912.368 268.124 915.36 Q269.652 918.351 269.652 922.68 Q269.652 928.155 266.596 931.401 Q263.509 934.616 258.352 934.616 Q252.337 934.616 249.281 930.605 Q246.226 926.563 246.226 918.574 L246.226 910.363 L245.653 910.363 Q241.611 910.363 239.414 913.036 Q237.186 915.678 237.186 920.484 Q237.186 923.54 237.919 926.436 Q238.651 929.332 240.115 932.006 L234.704 932.006 Q233.463 928.791 232.858 925.768 Q232.221 922.744 232.221 919.879 Q232.221 912.145 236.232 908.325 Q240.242 904.506 248.39 904.506 Z" fill="#000000" fill-rule="nonzero" fill-opacity="1" /><path clip-path="url(#clip530)" d="M222.959 886.65 L233.081 886.65 L233.081 874.587 L237.632 874.587 L237.632 886.65 L256.984 886.65 Q261.344 886.65 262.586 885.473 Q263.827 884.263 263.827 880.603 L263.827 874.587 L268.729 874.587 L268.729 880.603 Q268.729 887.382 266.214 889.96 Q263.668 892.539 256.984 892.539 L237.632 892.539 L237.632 896.835 L233.081 896.835 L233.081 892.539 L222.959 892.539 L222.959 886.65 Z" fill="#000000" fill-rule="nonzero" fill-opacity="1" /><path clip-path="url(#clip530)" d="M250.809 850.684 Q250.809 857.782 252.432 860.519 Q254.056 863.256 257.971 863.256 Q261.09 863.256 262.936 861.219 Q264.75 859.15 264.75 855.617 Q264.75 850.748 261.313 847.819 Q257.843 844.859 252.114 844.859 L250.809 844.859 L250.809 850.684 M248.39 839.003 L268.729 839.003 L268.729 844.859 L263.318 844.859 Q266.564 846.865 268.124 849.856 Q269.652 852.848 269.652 857.177 Q269.652 862.652 266.596 865.898 Q263.509 869.113 258.352 869.113 Q252.337 869.113 249.281 865.102 Q246.226 861.06 246.226 853.071 L246.226 844.859 L245.653 844.859 Q241.611 844.859 239.414 847.533 Q237.186 850.175 237.186 854.981 Q237.186 858.036 237.919 860.933 Q238.651 863.829 240.115 866.503 L234.704 866.503 Q233.463 863.288 232.858 860.264 Q232.221 857.241 232.221 854.376 Q232.221 846.642 236.232 842.822 Q240.242 839.003 248.39 839.003 Z" fill="#000000" fill-rule="nonzero" fill-opacity="1" /><path clip-path="url(#clip530)" d="M219.203 806.22 L219.203 800.363 L268.729 800.363 L268.729 806.22 L219.203 806.22 Z" fill="#000000" fill-rule="nonzero" fill-opacity="1" /><path clip-path="url(#clip530)" d="M237.186 774.296 Q237.186 779.006 240.879 781.743 Q244.539 784.481 250.936 784.481 Q257.334 784.481 261.026 781.775 Q264.686 779.038 264.686 774.296 Q264.686 769.617 260.994 766.879 Q257.302 764.142 250.936 764.142 Q244.603 764.142 240.91 766.879 Q237.186 769.617 237.186 774.296 M232.221 774.296 Q232.221 766.657 237.186 762.296 Q242.152 757.936 250.936 757.936 Q259.689 757.936 264.686 762.296 Q269.652 766.657 269.652 774.296 Q269.652 781.966 264.686 786.327 Q259.689 790.655 250.936 790.655 Q242.152 790.655 237.186 786.327 Q232.221 781.966 232.221 774.296 Z" fill="#000000" fill-rule="nonzero" fill-opacity="1" /><path clip-path="url(#clip530)" d="M250.491 724.77 Q244.125 724.77 240.624 727.412 Q237.123 730.022 237.123 734.764 Q237.123 739.475 240.624 742.117 Q244.125 744.727 250.491 744.727 Q256.825 744.727 260.326 742.117 Q263.827 739.475 263.827 734.764 Q263.827 730.022 260.326 727.412 Q256.825 724.77 250.491 724.77 M264.304 718.914 Q273.407 718.914 277.832 722.956 Q282.288 726.998 282.288 735.337 Q282.288 738.425 281.81 741.162 Q281.364 743.899 280.41 746.477 L274.712 746.477 Q276.113 743.899 276.781 741.385 Q277.45 738.87 277.45 736.26 Q277.45 730.499 274.426 727.635 Q271.434 724.77 265.355 724.77 L262.458 724.77 Q265.609 726.585 267.169 729.417 Q268.729 732.25 268.729 736.197 Q268.729 742.753 263.731 746.764 Q258.734 750.774 250.491 750.774 Q242.215 750.774 237.218 746.764 Q232.221 742.753 232.221 736.197 Q232.221 732.25 233.781 729.417 Q235.34 726.585 238.491 724.77 L233.081 724.77 L233.081 718.914 L264.304 718.914 Z" fill="#000000" fill-rule="nonzero" fill-opacity="1" /><path clip-path="url(#clip530)" d="M248.263 709.811 L248.263 692.655 L253.483 692.655 L253.483 709.811 L248.263 709.811 Z" fill="#000000" fill-rule="nonzero" fill-opacity="1" /><path clip-path="url(#clip530)" d="M219.203 683.33 L219.203 677.473 L268.729 677.473 L268.729 683.33 L219.203 683.33 Z" fill="#000000" fill-rule="nonzero" fill-opacity="1" /><path clip-path="url(#clip530)" d="M233.081 665.219 L233.081 659.363 L268.729 659.363 L268.729 665.219 L233.081 665.219 M219.203 665.219 L219.203 659.363 L226.619 659.363 L226.619 665.219 L219.203 665.219 Z" fill="#000000" fill-rule="nonzero" fill-opacity="1" /><path clip-path="url(#clip530)" d="M219.203 647.332 L219.203 641.443 L248.454 641.443 L233.081 623.969 L233.081 616.49 L249.759 635.396 L268.729 615.694 L268.729 623.333 L251.318 641.443 L268.729 641.443 L268.729 647.332 L219.203 647.332 Z" fill="#000000" fill-rule="nonzero" fill-opacity="1" /><path clip-path="url(#clip530)" d="M249.44 581.192 L252.305 581.192 L252.305 608.119 Q258.352 607.737 261.535 604.49 Q264.686 601.212 264.686 595.387 Q264.686 592.014 263.859 588.863 Q263.031 585.68 261.376 582.56 L266.914 582.56 Q268.251 585.711 268.951 589.022 Q269.652 592.332 269.652 595.737 Q269.652 604.268 264.686 609.265 Q259.721 614.23 251.255 614.23 Q242.502 614.23 237.377 609.519 Q232.221 604.777 232.221 596.756 Q232.221 589.563 236.868 585.393 Q241.483 581.192 249.44 581.192 M247.722 587.048 Q242.916 587.112 240.051 589.754 Q237.186 592.364 237.186 596.692 Q237.186 601.594 239.956 604.554 Q242.725 607.482 247.754 607.928 L247.722 587.048 Z" fill="#000000" fill-rule="nonzero" fill-opacity="1" /><path clip-path="url(#clip530)" d="M219.203 571.58 L219.203 565.723 L268.729 565.723 L268.729 571.58 L219.203 571.58 Z" fill="#000000" fill-rule="nonzero" fill-opacity="1" /><path clip-path="url(#clip530)" d="M233.081 553.469 L233.081 547.613 L268.729 547.613 L268.729 553.469 L233.081 553.469 M219.203 553.469 L219.203 547.613 L226.619 547.613 L226.619 553.469 L219.203 553.469 Z" fill="#000000" fill-rule="nonzero" fill-opacity="1" /><path clip-path="url(#clip530)" d="M247.212 505.726 L268.729 505.726 L268.729 511.583 L247.403 511.583 Q242.343 511.583 239.828 513.556 Q237.314 515.53 237.314 519.476 Q237.314 524.219 240.338 526.956 Q243.361 529.693 248.581 529.693 L268.729 529.693 L268.729 535.582 L219.203 535.582 L219.203 529.693 L238.619 529.693 Q235.404 527.593 233.813 524.76 Q232.221 521.895 232.221 518.171 Q232.221 512.028 236.041 508.877 Q239.828 505.726 247.212 505.726 Z" fill="#000000" fill-rule="nonzero" fill-opacity="1" /><path clip-path="url(#clip530)" d="M237.186 480.232 Q237.186 484.942 240.879 487.68 Q244.539 490.417 250.936 490.417 Q257.334 490.417 261.026 487.711 Q264.686 484.974 264.686 480.232 Q264.686 475.553 260.994 472.816 Q257.302 470.078 250.936 470.078 Q244.603 470.078 240.91 472.816 Q237.186 475.553 237.186 480.232 M232.221 480.232 Q232.221 472.593 237.186 468.232 Q242.152 463.872 250.936 463.872 Q259.689 463.872 264.686 468.232 Q269.652 472.593 269.652 480.232 Q269.652 487.902 264.686 492.263 Q259.689 496.592 250.936 496.592 Q242.152 496.592 237.186 492.263 Q232.221 487.902 232.221 480.232 Z" fill="#000000" fill-rule="nonzero" fill-opacity="1" /><path clip-path="url(#clip530)" d="M237.186 440.351 Q237.186 445.061 240.879 447.798 Q244.539 450.536 250.936 450.536 Q257.334 450.536 261.026 447.83 Q264.686 445.093 264.686 440.351 Q264.686 435.672 260.994 432.935 Q257.302 430.197 250.936 430.197 Q244.603 430.197 240.91 432.935 Q237.186 435.672 237.186 440.351 M232.221 440.351 Q232.221 432.712 237.186 428.351 Q242.152 423.991 250.936 423.991 Q259.689 423.991 264.686 428.351 Q269.652 432.712 269.652 440.351 Q269.652 448.021 264.686 452.382 Q259.689 456.71 250.936 456.71 Q242.152 456.71 237.186 452.382 Q232.221 448.021 232.221 440.351 Z" fill="#000000" fill-rule="nonzero" fill-opacity="1" /><path clip-path="url(#clip530)" d="M238.491 390.825 L219.203 390.825 L219.203 384.969 L268.729 384.969 L268.729 390.825 L263.381 390.825 Q266.564 392.671 268.124 395.504 Q269.652 398.305 269.652 402.252 Q269.652 408.713 264.495 412.787 Q259.339 416.829 250.936 416.829 Q242.534 416.829 237.377 412.787 Q232.221 408.713 232.221 402.252 Q232.221 398.305 233.781 395.504 Q235.309 392.671 238.491 390.825 M250.936 410.782 Q257.398 410.782 261.09 408.14 Q264.75 405.466 264.75 400.82 Q264.75 396.173 261.09 393.499 Q257.398 390.825 250.936 390.825 Q244.475 390.825 240.815 393.499 Q237.123 396.173 237.123 400.82 Q237.123 405.466 240.815 408.14 Q244.475 410.782 250.936 410.782 Z" fill="#000000" fill-rule="nonzero" fill-opacity="1" /><polyline clip-path="url(#clip532)" style="stroke:#000080; stroke-linecap:round; stroke-linejoin:round; stroke-width:8; stroke-opacity:1; fill:none" points="594.16,1209.75 621.803,661.37 649.446,561.245 677.089,511.572 704.732,480.568 732.374,456.696 760.017,436.867 787.66,419.152 815.303,402.971 842.946,387.769 870.589,372.094 898.231,354.173 925.874,336.23 953.517,318.483 981.16,299.328 1008.8,279.097 1036.45,260.918 1064.09,246.097 1091.73,232.829 1119.37,222.672 1147.02,214.948 1174.66,208.915 1202.3,203.873 1229.95,199.503 1257.59,195.808 1285.23,192.49 1312.87,189.622 1340.52,186.982 1368.16,184.709 1395.8,182.719 1423.45,180.848 1451.09,179.006 1478.73,177.468 1506.37,176.056 1534.02,174.737 1561.66,173.358 1589.3,172.205 1616.95,171.161 1644.59,170.155 1672.23,169.181 1699.87,168.338 1727.52,167.532 1755.16,166.811 1782.8,166.149 1810.45,165.521 1838.09,164.909 1865.73,164.313 1893.37,163.677 1921.02,163.027 1948.66,162.427 1976.3,161.898 2003.95,161.399 2031.59,160.939 2059.23,160.475 2086.87,160.033 2114.52,159.566 2142.16,159.064 2169.8,158.533 2197.45,158.035 2225.09,157.55 "/>
<circle clip-path="url(#clip532)" cx="594.16" cy="1209.75" r="10.8" fill="#000080" fill-rule="evenodd" fill-opacity="1" stroke="#000000" stroke-opacity="1" stroke-width="3.2"/>
<circle clip-path="url(#clip532)" cx="621.803" cy="661.37" r="10.8" fill="#000080" fill-rule="evenodd" fill-opacity="1" stroke="#000000" stroke-opacity="1" stroke-width="3.2"/>
<circle clip-path="url(#clip532)" cx="649.446" cy="561.245" r="10.8" fill="#000080" fill-rule="evenodd" fill-opacity="1" stroke="#000000" stroke-opacity="1" stroke-width="3.2"/>
<circle clip-path="url(#clip532)" cx="677.089" cy="511.572" r="10.8" fill="#000080" fill-rule="evenodd" fill-opacity="1" stroke="#000000" stroke-opacity="1" stroke-width="3.2"/>
<circle clip-path="url(#clip532)" cx="704.732" cy="480.568" r="10.8" fill="#000080" fill-rule="evenodd" fill-opacity="1" stroke="#000000" stroke-opacity="1" stroke-width="3.2"/>
<circle clip-path="url(#clip532)" cx="732.374" cy="456.696" r="10.8" fill="#000080" fill-rule="evenodd" fill-opacity="1" stroke="#000000" stroke-opacity="1" stroke-width="3.2"/>
<circle clip-path="url(#clip532)" cx="760.017" cy="436.867" r="10.8" fill="#000080" fill-rule="evenodd" fill-opacity="1" stroke="#000000" stroke-opacity="1" stroke-width="3.2"/>
<circle clip-path="url(#clip532)" cx="787.66" cy="419.152" r="10.8" fill="#000080" fill-rule="evenodd" fill-opacity="1" stroke="#000000" stroke-opacity="1" stroke-width="3.2"/>
<circle clip-path="url(#clip532)" cx="815.303" cy="402.971" r="10.8" fill="#000080" fill-rule="evenodd" fill-opacity="1" stroke="#000000" stroke-opacity="1" stroke-width="3.2"/>
<circle clip-path="url(#clip532)" cx="842.946" cy="387.769" r="10.8" fill="#000080" fill-rule="evenodd" fill-opacity="1" stroke="#000000" stroke-opacity="1" stroke-width="3.2"/>
<circle clip-path="url(#clip532)" cx="870.589" cy="372.094" r="10.8" fill="#000080" fill-rule="evenodd" fill-opacity="1" stroke="#000000" stroke-opacity="1" stroke-width="3.2"/>
<circle clip-path="url(#clip532)" cx="898.231" cy="354.173" r="10.8" fill="#000080" fill-rule="evenodd" fill-opacity="1" stroke="#000000" stroke-opacity="1" stroke-width="3.2"/>
<circle clip-path="url(#clip532)" cx="925.874" cy="336.23" r="10.8" fill="#000080" fill-rule="evenodd" fill-opacity="1" stroke="#000000" stroke-opacity="1" stroke-width="3.2"/>
<circle clip-path="url(#clip532)" cx="953.517" cy="318.483" r="10.8" fill="#000080" fill-rule="evenodd" fill-opacity="1" stroke="#000000" stroke-opacity="1" stroke-width="3.2"/>
<circle clip-path="url(#clip532)" cx="981.16" cy="299.328" r="10.8" fill="#000080" fill-rule="evenodd" fill-opacity="1" stroke="#000000" stroke-opacity="1" stroke-width="3.2"/>
<circle clip-path="url(#clip532)" cx="1008.8" cy="279.097" r="10.8" fill="#000080" fill-rule="evenodd" fill-opacity="1" stroke="#000000" stroke-opacity="1" stroke-width="3.2"/>
<circle clip-path="url(#clip532)" cx="1036.45" cy="260.918" r="10.8" fill="#000080" fill-rule="evenodd" fill-opacity="1" stroke="#000000" stroke-opacity="1" stroke-width="3.2"/>
<circle clip-path="url(#clip532)" cx="1064.09" cy="246.097" r="10.8" fill="#000080" fill-rule="evenodd" fill-opacity="1" stroke="#000000" stroke-opacity="1" stroke-width="3.2"/>
<circle clip-path="url(#clip532)" cx="1091.73" cy="232.829" r="10.8" fill="#000080" fill-rule="evenodd" fill-opacity="1" stroke="#000000" stroke-opacity="1" stroke-width="3.2"/>
<circle clip-path="url(#clip532)" cx="1119.37" cy="222.672" r="10.8" fill="#000080" fill-rule="evenodd" fill-opacity="1" stroke="#000000" stroke-opacity="1" stroke-width="3.2"/>
<circle clip-path="url(#clip532)" cx="1147.02" cy="214.948" r="10.8" fill="#000080" fill-rule="evenodd" fill-opacity="1" stroke="#000000" stroke-opacity="1" stroke-width="3.2"/>
<circle clip-path="url(#clip532)" cx="1174.66" cy="208.915" r="10.8" fill="#000080" fill-rule="evenodd" fill-opacity="1" stroke="#000000" stroke-opacity="1" stroke-width="3.2"/>
<circle clip-path="url(#clip532)" cx="1202.3" cy="203.873" r="10.8" fill="#000080" fill-rule="evenodd" fill-opacity="1" stroke="#000000" stroke-opacity="1" stroke-width="3.2"/>
<circle clip-path="url(#clip532)" cx="1229.95" cy="199.503" r="10.8" fill="#000080" fill-rule="evenodd" fill-opacity="1" stroke="#000000" stroke-opacity="1" stroke-width="3.2"/>
<circle clip-path="url(#clip532)" cx="1257.59" cy="195.808" r="10.8" fill="#000080" fill-rule="evenodd" fill-opacity="1" stroke="#000000" stroke-opacity="1" stroke-width="3.2"/>
<circle clip-path="url(#clip532)" cx="1285.23" cy="192.49" r="10.8" fill="#000080" fill-rule="evenodd" fill-opacity="1" stroke="#000000" stroke-opacity="1" stroke-width="3.2"/>
<circle clip-path="url(#clip532)" cx="1312.87" cy="189.622" r="10.8" fill="#000080" fill-rule="evenodd" fill-opacity="1" stroke="#000000" stroke-opacity="1" stroke-width="3.2"/>
<circle clip-path="url(#clip532)" cx="1340.52" cy="186.982" r="10.8" fill="#000080" fill-rule="evenodd" fill-opacity="1" stroke="#000000" stroke-opacity="1" stroke-width="3.2"/>
<circle clip-path="url(#clip532)" cx="1368.16" cy="184.709" r="10.8" fill="#000080" fill-rule="evenodd" fill-opacity="1" stroke="#000000" stroke-opacity="1" stroke-width="3.2"/>
<circle clip-path="url(#clip532)" cx="1395.8" cy="182.719" r="10.8" fill="#000080" fill-rule="evenodd" fill-opacity="1" stroke="#000000" stroke-opacity="1" stroke-width="3.2"/>
<circle clip-path="url(#clip532)" cx="1423.45" cy="180.848" r="10.8" fill="#000080" fill-rule="evenodd" fill-opacity="1" stroke="#000000" stroke-opacity="1" stroke-width="3.2"/>
<circle clip-path="url(#clip532)" cx="1451.09" cy="179.006" r="10.8" fill="#000080" fill-rule="evenodd" fill-opacity="1" stroke="#000000" stroke-opacity="1" stroke-width="3.2"/>
<circle clip-path="url(#clip532)" cx="1478.73" cy="177.468" r="10.8" fill="#000080" fill-rule="evenodd" fill-opacity="1" stroke="#000000" stroke-opacity="1" stroke-width="3.2"/>
<circle clip-path="url(#clip532)" cx="1506.37" cy="176.056" r="10.8" fill="#000080" fill-rule="evenodd" fill-opacity="1" stroke="#000000" stroke-opacity="1" stroke-width="3.2"/>
<circle clip-path="url(#clip532)" cx="1534.02" cy="174.737" r="10.8" fill="#000080" fill-rule="evenodd" fill-opacity="1" stroke="#000000" stroke-opacity="1" stroke-width="3.2"/>
<circle clip-path="url(#clip532)" cx="1561.66" cy="173.358" r="10.8" fill="#000080" fill-rule="evenodd" fill-opacity="1" stroke="#000000" stroke-opacity="1" stroke-width="3.2"/>
<circle clip-path="url(#clip532)" cx="1589.3" cy="172.205" r="10.8" fill="#000080" fill-rule="evenodd" fill-opacity="1" stroke="#000000" stroke-opacity="1" stroke-width="3.2"/>
<circle clip-path="url(#clip532)" cx="1616.95" cy="171.161" r="10.8" fill="#000080" fill-rule="evenodd" fill-opacity="1" stroke="#000000" stroke-opacity="1" stroke-width="3.2"/>
<circle clip-path="url(#clip532)" cx="1644.59" cy="170.155" r="10.8" fill="#000080" fill-rule="evenodd" fill-opacity="1" stroke="#000000" stroke-opacity="1" stroke-width="3.2"/>
<circle clip-path="url(#clip532)" cx="1672.23" cy="169.181" r="10.8" fill="#000080" fill-rule="evenodd" fill-opacity="1" stroke="#000000" stroke-opacity="1" stroke-width="3.2"/>
<circle clip-path="url(#clip532)" cx="1699.87" cy="168.338" r="10.8" fill="#000080" fill-rule="evenodd" fill-opacity="1" stroke="#000000" stroke-opacity="1" stroke-width="3.2"/>
<circle clip-path="url(#clip532)" cx="1727.52" cy="167.532" r="10.8" fill="#000080" fill-rule="evenodd" fill-opacity="1" stroke="#000000" stroke-opacity="1" stroke-width="3.2"/>
<circle clip-path="url(#clip532)" cx="1755.16" cy="166.811" r="10.8" fill="#000080" fill-rule="evenodd" fill-opacity="1" stroke="#000000" stroke-opacity="1" stroke-width="3.2"/>
<circle clip-path="url(#clip532)" cx="1782.8" cy="166.149" r="10.8" fill="#000080" fill-rule="evenodd" fill-opacity="1" stroke="#000000" stroke-opacity="1" stroke-width="3.2"/>
<circle clip-path="url(#clip532)" cx="1810.45" cy="165.521" r="10.8" fill="#000080" fill-rule="evenodd" fill-opacity="1" stroke="#000000" stroke-opacity="1" stroke-width="3.2"/>
<circle clip-path="url(#clip532)" cx="1838.09" cy="164.909" r="10.8" fill="#000080" fill-rule="evenodd" fill-opacity="1" stroke="#000000" stroke-opacity="1" stroke-width="3.2"/>
<circle clip-path="url(#clip532)" cx="1865.73" cy="164.313" r="10.8" fill="#000080" fill-rule="evenodd" fill-opacity="1" stroke="#000000" stroke-opacity="1" stroke-width="3.2"/>
<circle clip-path="url(#clip532)" cx="1893.37" cy="163.677" r="10.8" fill="#000080" fill-rule="evenodd" fill-opacity="1" stroke="#000000" stroke-opacity="1" stroke-width="3.2"/>
<circle clip-path="url(#clip532)" cx="1921.02" cy="163.027" r="10.8" fill="#000080" fill-rule="evenodd" fill-opacity="1" stroke="#000000" stroke-opacity="1" stroke-width="3.2"/>
<circle clip-path="url(#clip532)" cx="1948.66" cy="162.427" r="10.8" fill="#000080" fill-rule="evenodd" fill-opacity="1" stroke="#000000" stroke-opacity="1" stroke-width="3.2"/>
<circle clip-path="url(#clip532)" cx="1976.3" cy="161.898" r="10.8" fill="#000080" fill-rule="evenodd" fill-opacity="1" stroke="#000000" stroke-opacity="1" stroke-width="3.2"/>
<circle clip-path="url(#clip532)" cx="2003.95" cy="161.399" r="10.8" fill="#000080" fill-rule="evenodd" fill-opacity="1" stroke="#000000" stroke-opacity="1" stroke-width="3.2"/>
<circle clip-path="url(#clip532)" cx="2031.59" cy="160.939" r="10.8" fill="#000080" fill-rule="evenodd" fill-opacity="1" stroke="#000000" stroke-opacity="1" stroke-width="3.2"/>
<circle clip-path="url(#clip532)" cx="2059.23" cy="160.475" r="10.8" fill="#000080" fill-rule="evenodd" fill-opacity="1" stroke="#000000" stroke-opacity="1" stroke-width="3.2"/>
<circle clip-path="url(#clip532)" cx="2086.87" cy="160.033" r="10.8" fill="#000080" fill-rule="evenodd" fill-opacity="1" stroke="#000000" stroke-opacity="1" stroke-width="3.2"/>
<circle clip-path="url(#clip532)" cx="2114.52" cy="159.566" r="10.8" fill="#000080" fill-rule="evenodd" fill-opacity="1" stroke="#000000" stroke-opacity="1" stroke-width="3.2"/>
<circle clip-path="url(#clip532)" cx="2142.16" cy="159.064" r="10.8" fill="#000080" fill-rule="evenodd" fill-opacity="1" stroke="#000000" stroke-opacity="1" stroke-width="3.2"/>
<circle clip-path="url(#clip532)" cx="2169.8" cy="158.533" r="10.8" fill="#000080" fill-rule="evenodd" fill-opacity="1" stroke="#000000" stroke-opacity="1" stroke-width="3.2"/>
<circle clip-path="url(#clip532)" cx="2197.45" cy="158.035" r="10.8" fill="#000080" fill-rule="evenodd" fill-opacity="1" stroke="#000000" stroke-opacity="1" stroke-width="3.2"/>
<circle clip-path="url(#clip532)" cx="2225.09" cy="157.55" r="10.8" fill="#000080" fill-rule="evenodd" fill-opacity="1" stroke="#000000" stroke-opacity="1" stroke-width="3.2"/>
</svg>
