<?xml version="1.0" encoding="utf-8"?>
<svg xmlns="http://www.w3.org/2000/svg" xmlns:xlink="http://www.w3.org/1999/xlink" width="600" height="400" viewBox="0 0 2400 1600">
<defs>
  <clipPath id="clip850">
    <rect x="0" y="0" width="2400" height="1600"/>
  </clipPath>
</defs>
<path clip-path="url(#clip850)" d="M0 1600 L2400 1600 L2400 8.88178e-14 L0 8.88178e-14  Z" fill="#ffffff" fill-rule="evenodd" fill-opacity="1"/>
<defs>
  <clipPath id="clip851">
    <rect x="313" y="640" width="2012" height="49"/>
  </clipPath>
</defs>
<path clip-path="url(#clip850)" d="M545.232 1241.31 L2274.02 1241.31 L2274.02 125.984 L545.232 125.984  Z" fill="#ffffff" fill-rule="evenodd" fill-opacity="1"/>
<defs>
  <clipPath id="clip852">
    <rect x="545" y="125" width="1730" height="1116"/>
  </clipPath>
</defs>
<polyline clip-path="url(#clip852)" style="stroke:#000000; stroke-linecap:round; stroke-linejoin:round; stroke-width:2; stroke-opacity:0.1; fill:none" points="566.517,1241.31 566.517,125.984 "/>
<polyline clip-path="url(#clip852)" style="stroke:#000000; stroke-linecap:round; stroke-linejoin:round; stroke-width:2; stroke-opacity:0.1; fill:none" points="842.946,1241.31 842.946,125.984 "/>
<polyline clip-path="url(#clip852)" style="stroke:#000000; stroke-linecap:round; stroke-linejoin:round; stroke-width:2; stroke-opacity:0.1; fill:none" points="1119.37,1241.31 1119.37,125.984 "/>
<polyline clip-path="url(#clip852)" style="stroke:#000000; stroke-linecap:round; stroke-linejoin:round; stroke-width:2; stroke-opacity:0.1; fill:none" points="1395.8,1241.31 1395.8,125.984 "/>
<polyline clip-path="url(#clip852)" style="stroke:#000000; stroke-linecap:round; stroke-linejoin:round; stroke-width:2; stroke-opacity:0.1; fill:none" points="1672.23,1241.31 1672.23,125.984 "/>
<polyline clip-path="url(#clip852)" style="stroke:#000000; stroke-linecap:round; stroke-linejoin:round; stroke-width:2; stroke-opacity:0.1; fill:none" points="1948.66,1241.31 1948.66,125.984 "/>
<polyline clip-path="url(#clip852)" style="stroke:#000000; stroke-linecap:round; stroke-linejoin:round; stroke-width:2; stroke-opacity:0.1; fill:none" points="2225.09,1241.31 2225.09,125.984 "/>
<polyline clip-path="url(#clip852)" style="stroke:#000000; stroke-linecap:round; stroke-linejoin:round; stroke-width:2; stroke-opacity:0.1; fill:none" points="545.232,1162.23 2274.02,1162.23 "/>
<polyline clip-path="url(#clip852)" style="stroke:#000000; stroke-linecap:round; stroke-linejoin:round; stroke-width:2; stroke-opacity:0.1; fill:none" points="545.232,994.305 2274.02,994.305 "/>
<polyline clip-path="url(#clip852)" style="stroke:#000000; stroke-linecap:round; stroke-linejoin:round; stroke-width:2; stroke-opacity:0.1; fill:none" points="545.232,826.385 2274.02,826.385 "/>
<polyline clip-path="url(#clip852)" style="stroke:#000000; stroke-linecap:round; stroke-linejoin:round; stroke-width:2; stroke-opacity:0.1; fill:none" points="545.232,658.465 2274.02,658.465 "/>
<polyline clip-path="url(#clip852)" style="stroke:#000000; stroke-linecap:round; stroke-linejoin:round; stroke-width:2; stroke-opacity:0.1; fill:none" points="545.232,490.546 2274.02,490.546 "/>
<polyline clip-path="url(#clip852)" style="stroke:#000000; stroke-linecap:round; stroke-linejoin:round; stroke-width:2; stroke-opacity:0.1; fill:none" points="545.232,322.626 2274.02,322.626 "/>
<polyline clip-path="url(#clip852)" style="stroke:#000000; stroke-linecap:round; stroke-linejoin:round; stroke-width:2; stroke-opacity:0.1; fill:none" points="545.232,154.706 2274.02,154.706 "/>
<polyline clip-path="url(#clip850)" style="stroke:#000000; stroke-linecap:round; stroke-linejoin:round; stroke-width:4; stroke-opacity:1; fill:none" points="545.232,1241.31 2274.02,1241.31 "/>
<polyline clip-path="url(#clip850)" style="stroke:#000000; stroke-linecap:round; stroke-linejoin:round; stroke-width:4; stroke-opacity:1; fill:none" points="566.517,1241.31 566.517,1222.41 "/>
<polyline clip-path="url(#clip850)" style="stroke:#000000; stroke-linecap:round; stroke-linejoin:round; stroke-width:4; stroke-opacity:1; fill:none" points="842.946,1241.31 842.946,1222.41 "/>
<polyline clip-path="url(#clip850)" style="stroke:#000000; stroke-linecap:round; stroke-linejoin:round; stroke-width:4; stroke-opacity:1; fill:none" points="1119.37,1241.31 1119.37,1222.41 "/>
<polyline clip-path="url(#clip850)" style="stroke:#000000; stroke-linecap:round; stroke-linejoin:round; stroke-width:4; stroke-opacity:1; fill:none" points="1395.8,1241.31 1395.8,1222.41 "/>
<polyline clip-path="url(#clip850)" style="stroke:#000000; stroke-linecap:round; stroke-linejoin:round; stroke-width:4; stroke-opacity:1; fill:none" points="1672.23,1241.31 1672.23,1222.41 "/>
<polyline clip-path="url(#clip850)" style="stroke:#000000; stroke-linecap:round; stroke-linejoin:round; stroke-width:4; stroke-opacity:1; fill:none" points="1948.66,1241.31 1948.66,1222.41 "/>
<polyline clip-path="url(#clip850)" style="stroke:#000000; stroke-linecap:round; stroke-linejoin:round; stroke-width:4; stroke-opacity:1; fill:none" points="2225.09,1241.31 2225.09,1222.41 "/>
<path clip-path="url(#clip850)" d="M566.517 1275.16 Q562.004 1275.16 559.718 1279.62 Q557.461 1284.04 557.461 1292.95 Q557.461 1301.84 559.718 1306.29 Q562.004 1310.72 566.517 1310.72 Q571.06 1310.72 573.317 1306.29 Q575.603 1301.84 575.603 1292.95 Q575.603 1284.04 573.317 1279.62 Q571.06 1275.16 566.517 1275.16 M566.517 1270.53 Q573.78 1270.53 577.599 1276.29 Q581.448 1282.02 581.448 1292.95 Q581.448 1303.86 577.599 1309.62 Q573.78 1315.35 566.517 1315.35 Q559.255 1315.35 555.406 1309.62 Q551.587 1303.86 551.587 1292.95 Q551.587 1282.02 555.406 1276.29 Q559.255 1270.53 566.517 1270.53 Z" fill="#000000" fill-rule="nonzero" fill-opacity="1" /><path clip-path="url(#clip850)" d="M811.305 1309.59 L820.854 1309.59 L820.854 1276.64 L810.466 1278.72 L810.466 1273.39 L820.796 1271.31 L826.641 1271.31 L826.641 1309.59 L836.189 1309.59 L836.189 1314.51 L811.305 1314.51 L811.305 1309.59 Z" fill="#000000" fill-rule="nonzero" fill-opacity="1" /><path clip-path="url(#clip850)" d="M860.495 1275.16 Q855.981 1275.16 853.695 1279.62 Q851.438 1284.04 851.438 1292.95 Q851.438 1301.84 853.695 1306.29 Q855.981 1310.72 860.495 1310.72 Q865.038 1310.72 867.295 1306.29 Q869.58 1301.84 869.58 1292.95 Q869.58 1284.04 867.295 1279.62 Q865.038 1275.16 860.495 1275.16 M860.495 1270.53 Q867.758 1270.53 871.577 1276.29 Q875.425 1282.02 875.425 1292.95 Q875.425 1303.86 871.577 1309.62 Q867.758 1315.35 860.495 1315.35 Q853.232 1315.35 849.384 1309.62 Q845.564 1303.86 845.564 1292.95 Q845.564 1282.02 849.384 1276.29 Q853.232 1270.53 860.495 1270.53 Z" fill="#000000" fill-rule="nonzero" fill-opacity="1" /><path clip-path="url(#clip850)" d="M1092.84 1309.59 L1113.24 1309.59 L1113.24 1314.51 L1085.81 1314.51 L1085.81 1309.59 Q1089.14 1306.15 1094.87 1300.36 Q1100.62 1294.55 1102.1 1292.87 Q1104.91 1289.71 1106.01 1287.54 Q1107.13 1285.34 1107.13 1283.23 Q1107.13 1279.79 1104.7 1277.62 Q1102.3 1275.45 1098.43 1275.45 Q1095.68 1275.45 1092.61 1276.4 Q1089.57 1277.36 1086.1 1279.3 L1086.1 1273.39 Q1089.63 1271.98 1092.7 1271.25 Q1095.76 1270.53 1098.31 1270.53 Q1105.02 1270.53 1109.02 1273.89 Q1113.01 1277.24 1113.01 1282.86 Q1113.01 1285.52 1112 1287.92 Q1111.01 1290.29 1108.38 1293.53 Q1107.66 1294.37 1103.78 1298.39 Q1099.9 1302.39 1092.84 1309.59 Z" fill="#000000" fill-rule="nonzero" fill-opacity="1" /><path clip-path="url(#clip850)" d="M1138.01 1275.16 Q1133.49 1275.16 1131.21 1279.62 Q1128.95 1284.04 1128.95 1292.95 Q1128.95 1301.84 1131.21 1306.29 Q1133.49 1310.72 1138.01 1310.72 Q1142.55 1310.72 1144.81 1306.29 Q1147.09 1301.84 1147.09 1292.95 Q1147.09 1284.04 1144.81 1279.62 Q1142.55 1275.16 1138.01 1275.16 M1138.01 1270.53 Q1145.27 1270.53 1149.09 1276.29 Q1152.94 1282.02 1152.94 1292.95 Q1152.94 1303.86 1149.09 1309.62 Q1145.27 1315.35 1138.01 1315.35 Q1130.75 1315.35 1126.9 1309.62 Q1123.08 1303.86 1123.08 1292.95 Q1123.08 1282.02 1126.9 1276.29 Q1130.75 1270.53 1138.01 1270.53 Z" fill="#000000" fill-rule="nonzero" fill-opacity="1" /><path clip-path="url(#clip850)" d="M1381.86 1291.22 Q1386.05 1292.12 1388.4 1294.95 Q1390.77 1297.79 1390.77 1301.95 Q1390.77 1308.35 1386.37 1311.85 Q1381.97 1315.35 1373.87 1315.35 Q1371.15 1315.35 1368.26 1314.8 Q1365.39 1314.28 1362.32 1313.21 L1362.32 1307.57 Q1364.76 1308.98 1367.65 1309.71 Q1370.54 1310.43 1373.7 1310.43 Q1379.19 1310.43 1382.06 1308.26 Q1384.95 1306.09 1384.95 1301.95 Q1384.95 1298.13 1382.26 1295.99 Q1379.6 1293.82 1374.82 1293.82 L1369.79 1293.82 L1369.79 1289.02 L1375.06 1289.02 Q1379.37 1289.02 1381.65 1287.31 Q1383.94 1285.58 1383.94 1282.34 Q1383.94 1279.01 1381.57 1277.24 Q1379.22 1275.45 1374.82 1275.45 Q1372.42 1275.45 1369.67 1275.97 Q1366.93 1276.49 1363.63 1277.59 L1363.63 1272.38 Q1366.95 1271.46 1369.85 1270.99 Q1372.77 1270.53 1375.35 1270.53 Q1382 1270.53 1385.88 1273.57 Q1389.76 1276.58 1389.76 1281.73 Q1389.76 1285.32 1387.7 1287.8 Q1385.65 1290.26 1381.86 1291.22 Z" fill="#000000" fill-rule="nonzero" fill-opacity="1" /><path clip-path="url(#clip850)" d="M1414.35 1275.16 Q1409.84 1275.16 1407.55 1279.62 Q1405.29 1284.04 1405.29 1292.95 Q1405.29 1301.84 1407.55 1306.29 Q1409.84 1310.72 1414.35 1310.72 Q1418.89 1310.72 1421.15 1306.29 Q1423.44 1301.84 1423.44 1292.95 Q1423.44 1284.04 1421.15 1279.62 Q1418.89 1275.16 1414.35 1275.16 M1414.35 1270.53 Q1421.61 1270.53 1425.43 1276.29 Q1429.28 1282.02 1429.28 1292.95 Q1429.28 1303.86 1425.43 1309.62 Q1421.61 1315.35 1414.35 1315.35 Q1407.09 1315.35 1403.24 1309.62 Q1399.42 1303.86 1399.42 1292.95 Q1399.42 1282.02 1403.24 1276.29 Q1407.09 1270.53 1414.35 1270.53 Z" fill="#000000" fill-rule="nonzero" fill-opacity="1" /><path clip-path="url(#clip850)" d="M1657.45 1276.4 L1642.69 1299.47 L1657.45 1299.47 L1657.45 1276.4 M1655.91 1271.31 L1663.26 1271.31 L1663.26 1299.47 L1669.42 1299.47 L1669.42 1304.33 L1663.26 1304.33 L1663.26 1314.51 L1657.45 1314.51 L1657.45 1304.33 L1637.94 1304.33 L1637.94 1298.68 L1655.91 1271.31 Z" fill="#000000" fill-rule="nonzero" fill-opacity="1" /><path clip-path="url(#clip850)" d="M1691.59 1275.16 Q1687.07 1275.16 1684.79 1279.62 Q1682.53 1284.04 1682.53 1292.95 Q1682.53 1301.84 1684.79 1306.29 Q1687.07 1310.72 1691.59 1310.72 Q1696.13 1310.72 1698.39 1306.29 Q1700.67 1301.84 1700.67 1292.95 Q1700.67 1284.04 1698.39 1279.62 Q1696.13 1275.16 1691.59 1275.16 M1691.59 1270.53 Q1698.85 1270.53 1702.67 1276.29 Q1706.52 1282.02 1706.52 1292.95 Q1706.52 1303.86 1702.67 1309.62 Q1698.85 1315.35 1691.59 1315.35 Q1684.33 1315.35 1680.48 1309.62 Q1676.66 1303.86 1676.66 1292.95 Q1676.66 1282.02 1680.48 1276.29 Q1684.33 1270.53 1691.59 1270.53 Z" fill="#000000" fill-rule="nonzero" fill-opacity="1" /><path clip-path="url(#clip850)" d="M1917.03 1271.31 L1939.98 1271.31 L1939.98 1276.23 L1922.39 1276.23 L1922.39 1286.82 Q1923.66 1286.39 1924.93 1286.18 Q1926.21 1285.95 1927.48 1285.95 Q1934.71 1285.95 1938.94 1289.92 Q1943.16 1293.88 1943.16 1300.65 Q1943.16 1307.62 1938.82 1311.5 Q1934.48 1315.35 1926.58 1315.35 Q1923.86 1315.35 1921.03 1314.89 Q1918.22 1314.42 1915.21 1313.5 L1915.21 1307.62 Q1917.81 1309.04 1920.59 1309.74 Q1923.37 1310.43 1926.47 1310.43 Q1931.47 1310.43 1934.39 1307.8 Q1937.32 1305.17 1937.32 1300.65 Q1937.32 1296.14 1934.39 1293.5 Q1931.47 1290.87 1926.47 1290.87 Q1924.12 1290.87 1921.78 1291.39 Q1919.46 1291.91 1917.03 1293.01 L1917.03 1271.31 Z" fill="#000000" fill-rule="nonzero" fill-opacity="1" /><path clip-path="url(#clip850)" d="M1967.18 1275.16 Q1962.66 1275.16 1960.38 1279.62 Q1958.12 1284.04 1958.12 1292.95 Q1958.12 1301.84 1960.38 1306.29 Q1962.66 1310.72 1967.18 1310.72 Q1971.72 1310.72 1973.98 1306.29 Q1976.26 1301.84 1976.26 1292.95 Q1976.26 1284.04 1973.98 1279.62 Q1971.72 1275.16 1967.18 1275.16 M1967.18 1270.53 Q1974.44 1270.53 1978.26 1276.29 Q1982.11 1282.02 1982.11 1292.95 Q1982.11 1303.86 1978.26 1309.62 Q1974.44 1315.35 1967.18 1315.35 Q1959.92 1315.35 1956.07 1309.62 Q1952.25 1303.86 1952.25 1292.95 Q1952.25 1282.02 1956.07 1276.29 Q1959.92 1270.53 1967.18 1270.53 Z" fill="#000000" fill-rule="nonzero" fill-opacity="1" /><path clip-path="url(#clip850)" d="M2206.84 1290.58 Q2202.91 1290.58 2200.59 1293.27 Q2198.31 1295.96 2198.31 1300.65 Q2198.31 1305.31 2200.59 1308.03 Q2202.91 1310.72 2206.84 1310.72 Q2210.78 1310.72 2213.07 1308.03 Q2215.38 1305.31 2215.38 1300.65 Q2215.38 1295.96 2213.07 1293.27 Q2210.78 1290.58 2206.84 1290.58 M2218.45 1272.27 L2218.45 1277.59 Q2216.25 1276.55 2213.99 1276 Q2211.76 1275.45 2209.56 1275.45 Q2203.78 1275.45 2200.71 1279.36 Q2197.67 1283.26 2197.24 1291.16 Q2198.95 1288.64 2201.52 1287.31 Q2204.1 1285.95 2207.19 1285.95 Q2213.7 1285.95 2217.46 1289.92 Q2221.25 1293.85 2221.25 1300.65 Q2221.25 1307.31 2217.32 1311.33 Q2213.38 1315.35 2206.84 1315.35 Q2199.35 1315.35 2195.39 1309.62 Q2191.42 1303.86 2191.42 1292.95 Q2191.42 1282.71 2196.28 1276.64 Q2201.14 1270.53 2209.33 1270.53 Q2211.53 1270.53 2213.76 1270.96 Q2216.02 1271.4 2218.45 1272.27 Z" fill="#000000" fill-rule="nonzero" fill-opacity="1" /><path clip-path="url(#clip850)" d="M2243.82 1275.16 Q2239.31 1275.16 2237.02 1279.62 Q2234.77 1284.04 2234.77 1292.95 Q2234.77 1301.84 2237.02 1306.29 Q2239.31 1310.72 2243.82 1310.72 Q2248.37 1310.72 2250.62 1306.29 Q2252.91 1301.84 2252.91 1292.95 Q2252.91 1284.04 2250.62 1279.62 Q2248.37 1275.16 2243.82 1275.16 M2243.82 1270.53 Q2251.09 1270.53 2254.91 1276.29 Q2258.75 1282.02 2258.75 1292.95 Q2258.75 1303.86 2254.91 1309.62 Q2251.09 1315.35 2243.82 1315.35 Q2236.56 1315.35 2232.71 1309.62 Q2228.89 1303.86 2228.89 1292.95 Q2228.89 1282.02 2232.71 1276.29 Q2236.56 1270.53 2243.82 1270.53 Z" fill="#000000" fill-rule="nonzero" fill-opacity="1" /><path clip-path="url(#clip850)" d="M1277.34 1351.62 L1283.77 1351.62 L1283.77 1399.14 L1277.34 1399.14 L1277.34 1351.62 Z" fill="#000000" fill-rule="nonzero" fill-opacity="1" /><path clip-path="url(#clip850)" d="M1302.11 1353.37 L1302.11 1363.49 L1314.17 1363.49 L1314.17 1368.04 L1302.11 1368.04 L1302.11 1387.39 Q1302.11 1391.75 1303.28 1392.99 Q1304.49 1394.23 1308.15 1394.23 L1314.17 1394.23 L1314.17 1399.14 L1308.15 1399.14 Q1301.38 1399.14 1298.8 1396.62 Q1296.22 1394.07 1296.22 1387.39 L1296.22 1368.04 L1291.92 1368.04 L1291.92 1363.49 L1296.22 1363.49 L1296.22 1353.37 L1302.11 1353.37 Z" fill="#000000" fill-rule="nonzero" fill-opacity="1" /><path clip-path="url(#clip850)" d="M1352.36 1379.85 L1352.36 1382.71 L1325.44 1382.71 Q1325.82 1388.76 1329.07 1391.94 Q1332.34 1395.09 1338.17 1395.09 Q1341.54 1395.09 1344.69 1394.27 Q1347.88 1393.44 1351 1391.78 L1351 1397.32 Q1347.84 1398.66 1344.53 1399.36 Q1341.22 1400.06 1337.82 1400.06 Q1329.29 1400.06 1324.29 1395.09 Q1319.33 1390.13 1319.33 1381.66 Q1319.33 1372.91 1324.04 1367.78 Q1328.78 1362.63 1336.8 1362.63 Q1343.99 1362.63 1348.16 1367.28 Q1352.36 1371.89 1352.36 1379.85 M1346.51 1378.13 Q1346.44 1373.32 1343.8 1370.46 Q1341.19 1367.59 1336.86 1367.59 Q1331.96 1367.59 1329 1370.36 Q1326.07 1373.13 1325.63 1378.16 L1346.51 1378.13 Z" fill="#000000" fill-rule="nonzero" fill-opacity="1" /><path clip-path="url(#clip850)" d="M1382.63 1368.96 Q1381.65 1368.39 1380.47 1368.13 Q1379.32 1367.85 1377.92 1367.85 Q1372.96 1367.85 1370.28 1371.09 Q1367.64 1374.31 1367.64 1380.36 L1367.64 1399.14 L1361.75 1399.14 L1361.75 1363.49 L1367.64 1363.49 L1367.64 1369.03 Q1369.49 1365.78 1372.45 1364.22 Q1375.41 1362.63 1379.64 1362.63 Q1380.25 1362.63 1380.98 1362.72 Q1381.71 1362.79 1382.6 1362.95 L1382.63 1368.96 Z" fill="#000000" fill-rule="nonzero" fill-opacity="1" /><path clip-path="url(#clip850)" d="M1404.98 1381.22 Q1397.88 1381.22 1395.14 1382.84 Q1392.4 1384.46 1392.4 1388.38 Q1392.4 1391.5 1394.44 1393.34 Q1396.51 1395.16 1400.04 1395.16 Q1404.91 1395.16 1407.84 1391.72 Q1410.8 1388.25 1410.8 1382.52 L1410.8 1381.22 L1404.98 1381.22 M1416.66 1378.8 L1416.66 1399.14 L1410.8 1399.14 L1410.8 1393.72 Q1408.8 1396.97 1405.8 1398.53 Q1402.81 1400.06 1398.48 1400.06 Q1393.01 1400.06 1389.76 1397 Q1386.55 1393.92 1386.55 1388.76 Q1386.55 1382.74 1390.56 1379.69 Q1394.6 1376.63 1402.59 1376.63 L1410.8 1376.63 L1410.8 1376.06 Q1410.8 1372.02 1408.13 1369.82 Q1405.49 1367.59 1400.68 1367.59 Q1397.62 1367.59 1394.73 1368.33 Q1391.83 1369.06 1389.16 1370.52 L1389.16 1365.11 Q1392.37 1363.87 1395.4 1363.26 Q1398.42 1362.63 1401.28 1362.63 Q1409.02 1362.63 1412.84 1366.64 Q1416.66 1370.65 1416.66 1378.8 Z" fill="#000000" fill-rule="nonzero" fill-opacity="1" /><path clip-path="url(#clip850)" d="M1434.51 1353.37 L1434.51 1363.49 L1446.58 1363.49 L1446.58 1368.04 L1434.51 1368.04 L1434.51 1387.39 Q1434.51 1391.75 1435.69 1392.99 Q1436.9 1394.23 1440.56 1394.23 L1446.58 1394.23 L1446.58 1399.14 L1440.56 1399.14 Q1433.78 1399.14 1431.2 1396.62 Q1428.63 1394.07 1428.63 1387.39 L1428.63 1368.04 L1424.33 1368.04 L1424.33 1363.49 L1428.63 1363.49 L1428.63 1353.37 L1434.51 1353.37 Z" fill="#000000" fill-rule="nonzero" fill-opacity="1" /><path clip-path="url(#clip850)" d="M1454.28 1363.49 L1460.14 1363.49 L1460.14 1399.14 L1454.28 1399.14 L1454.28 1363.49 M1454.28 1349.61 L1460.14 1349.61 L1460.14 1357.03 L1454.28 1357.03 L1454.28 1349.61 Z" fill="#000000" fill-rule="nonzero" fill-opacity="1" /><path clip-path="url(#clip850)" d="M1486.2 1367.59 Q1481.49 1367.59 1478.76 1371.29 Q1476.02 1374.95 1476.02 1381.34 Q1476.02 1387.74 1478.72 1391.43 Q1481.46 1395.09 1486.2 1395.09 Q1490.88 1395.09 1493.62 1391.4 Q1496.36 1387.71 1496.36 1381.34 Q1496.36 1375.01 1493.62 1371.32 Q1490.88 1367.59 1486.2 1367.59 M1486.2 1362.63 Q1493.84 1362.63 1498.2 1367.59 Q1502.56 1372.56 1502.56 1381.34 Q1502.56 1390.1 1498.2 1395.09 Q1493.84 1400.06 1486.2 1400.06 Q1478.53 1400.06 1474.17 1395.09 Q1469.84 1390.1 1469.84 1381.34 Q1469.84 1372.56 1474.17 1367.59 Q1478.53 1362.63 1486.2 1362.63 Z" fill="#000000" fill-rule="nonzero" fill-opacity="1" /><path clip-path="url(#clip850)" d="M1541.9 1377.62 L1541.9 1399.14 L1536.05 1399.14 L1536.05 1377.81 Q1536.05 1372.75 1534.07 1370.24 Q1532.1 1367.72 1528.15 1367.72 Q1523.41 1367.72 1520.67 1370.74 Q1517.94 1373.77 1517.94 1378.99 L1517.94 1399.14 L1512.05 1399.14 L1512.05 1363.49 L1517.94 1363.49 L1517.94 1369.03 Q1520.04 1365.81 1522.87 1364.22 Q1525.73 1362.63 1529.46 1362.63 Q1535.6 1362.63 1538.75 1366.45 Q1541.9 1370.24 1541.9 1377.62 Z" fill="#000000" fill-rule="nonzero" fill-opacity="1" /><polyline clip-path="url(#clip850)" style="stroke:#000000; stroke-linecap:round; stroke-linejoin:round; stroke-width:4; stroke-opacity:1; fill:none" points="545.232,1241.31 545.232,125.984 "/>
<polyline clip-path="url(#clip850)" style="stroke:#000000; stroke-linecap:round; stroke-linejoin:round; stroke-width:4; stroke-opacity:1; fill:none" points="545.232,1162.23 564.13,1162.23 "/>
<polyline clip-path="url(#clip850)" style="stroke:#000000; stroke-linecap:round; stroke-linejoin:round; stroke-width:4; stroke-opacity:1; fill:none" points="545.232,994.305 564.13,994.305 "/>
<polyline clip-path="url(#clip850)" style="stroke:#000000; stroke-linecap:round; stroke-linejoin:round; stroke-width:4; stroke-opacity:1; fill:none" points="545.232,826.385 564.13,826.385 "/>
<polyline clip-path="url(#clip850)" style="stroke:#000000; stroke-linecap:round; stroke-linejoin:round; stroke-width:4; stroke-opacity:1; fill:none" points="545.232,658.465 564.13,658.465 "/>
<polyline clip-path="url(#clip850)" style="stroke:#000000; stroke-linecap:round; stroke-linejoin:round; stroke-width:4; stroke-opacity:1; fill:none" points="545.232,490.546 564.13,490.546 "/>
<polyline clip-path="url(#clip850)" style="stroke:#000000; stroke-linecap:round; stroke-linejoin:round; stroke-width:4; stroke-opacity:1; fill:none" points="545.232,322.626 564.13,322.626 "/>
<polyline clip-path="url(#clip850)" style="stroke:#000000; stroke-linecap:round; stroke-linejoin:round; stroke-width:4; stroke-opacity:1; fill:none" points="545.232,154.706 564.13,154.706 "/>
<path clip-path="url(#clip850)" d="M318.985 1162.79 L356.079 1162.79 L356.079 1167.71 L318.985 1167.71 L318.985 1162.79 Z" fill="#000000" fill-rule="nonzero" fill-opacity="1" /><path clip-path="url(#clip850)" d="M368.753 1140.63 L391.698 1140.63 L391.698 1145.54 L374.106 1145.54 L374.106 1156.13 Q375.379 1155.7 376.652 1155.5 Q377.925 1155.27 379.198 1155.27 Q386.432 1155.27 390.657 1159.23 Q394.881 1163.19 394.881 1169.97 Q394.881 1176.94 390.541 1180.82 Q386.201 1184.66 378.301 1184.66 Q375.581 1184.66 372.746 1184.2 Q369.939 1183.74 366.93 1182.81 L366.93 1176.94 Q369.534 1178.36 372.312 1179.05 Q375.09 1179.75 378.186 1179.75 Q383.191 1179.75 386.114 1177.11 Q389.036 1174.48 389.036 1169.97 Q389.036 1165.45 386.114 1162.82 Q383.191 1160.19 378.186 1160.19 Q375.842 1160.19 373.498 1160.71 Q371.183 1161.23 368.753 1162.33 L368.753 1140.63 Z" fill="#000000" fill-rule="nonzero" fill-opacity="1" /><path clip-path="url(#clip850)" d="M422.456 1145.72 L407.699 1168.78 L422.456 1168.78 L422.456 1145.72 M420.923 1140.63 L428.272 1140.63 L428.272 1168.78 L434.435 1168.78 L434.435 1173.64 L428.272 1173.64 L428.272 1183.83 L422.456 1183.83 L422.456 1173.64 L402.954 1173.64 L402.954 1168 L420.923 1140.63 Z" fill="#000000" fill-rule="nonzero" fill-opacity="1" /><path clip-path="url(#clip850)" d="M456.6 1144.47 Q452.086 1144.47 449.8 1148.93 Q447.543 1153.36 447.543 1162.27 Q447.543 1171.15 449.8 1175.61 Q452.086 1180.03 456.6 1180.03 Q461.142 1180.03 463.399 1175.61 Q465.685 1171.15 465.685 1162.27 Q465.685 1153.36 463.399 1148.93 Q461.142 1144.47 456.6 1144.47 M456.6 1139.84 Q463.862 1139.84 467.682 1145.6 Q471.53 1151.33 471.53 1162.27 Q471.53 1173.18 467.682 1178.94 Q463.862 1184.66 456.6 1184.66 Q449.337 1184.66 445.489 1178.94 Q441.669 1173.18 441.669 1162.27 Q441.669 1151.33 445.489 1145.6 Q449.337 1139.84 456.6 1139.84 Z" fill="#000000" fill-rule="nonzero" fill-opacity="1" /><path clip-path="url(#clip850)" d="M494.302 1144.47 Q489.788 1144.47 487.502 1148.93 Q485.245 1153.36 485.245 1162.27 Q485.245 1171.15 487.502 1175.61 Q489.788 1180.03 494.302 1180.03 Q498.845 1180.03 501.102 1175.61 Q503.388 1171.15 503.388 1162.27 Q503.388 1153.36 501.102 1148.93 Q498.845 1144.47 494.302 1144.47 M494.302 1139.84 Q501.565 1139.84 505.384 1145.6 Q509.232 1151.33 509.232 1162.27 Q509.232 1173.18 505.384 1178.94 Q501.565 1184.66 494.302 1184.66 Q487.039 1184.66 483.191 1178.94 Q479.371 1173.18 479.371 1162.27 Q479.371 1151.33 483.191 1145.6 Q487.039 1139.84 494.302 1139.84 Z" fill="#000000" fill-rule="nonzero" fill-opacity="1" /><path clip-path="url(#clip850)" d="M318.985 994.869 L356.079 994.869 L356.079 999.788 L318.985 999.788 L318.985 994.869 Z" fill="#000000" fill-rule="nonzero" fill-opacity="1" /><path clip-path="url(#clip850)" d="M368.753 972.705 L391.698 972.705 L391.698 977.624 L374.106 977.624 L374.106 988.214 Q375.379 987.78 376.652 987.578 Q377.925 987.346 379.198 987.346 Q386.432 987.346 390.657 991.31 Q394.881 995.274 394.881 1002.05 Q394.881 1009.02 390.541 1012.9 Q386.201 1016.74 378.301 1016.74 Q375.581 1016.74 372.746 1016.28 Q369.939 1015.82 366.93 1014.89 L366.93 1009.02 Q369.534 1010.44 372.312 1011.13 Q375.09 1011.83 378.186 1011.83 Q383.191 1011.83 386.114 1009.19 Q389.036 1006.56 389.036 1002.05 Q389.036 997.531 386.114 994.898 Q383.191 992.265 378.186 992.265 Q375.842 992.265 373.498 992.786 Q371.183 993.307 368.753 994.406 L368.753 972.705 Z" fill="#000000" fill-rule="nonzero" fill-opacity="1" /><path clip-path="url(#clip850)" d="M424.106 992.612 Q428.301 993.509 430.645 996.345 Q433.018 999.181 433.018 1003.35 Q433.018 1009.74 428.619 1013.24 Q424.221 1016.74 416.119 1016.74 Q413.4 1016.74 410.506 1016.19 Q407.641 1015.67 404.574 1014.6 L404.574 1008.96 Q407.005 1010.38 409.898 1011.1 Q412.792 1011.83 415.946 1011.83 Q421.444 1011.83 424.308 1009.66 Q427.202 1007.49 427.202 1003.35 Q427.202 999.528 424.511 997.387 Q421.849 995.217 417.074 995.217 L412.04 995.217 L412.04 990.413 L417.306 990.413 Q421.617 990.413 423.903 988.706 Q426.189 986.97 426.189 983.729 Q426.189 980.402 423.816 978.637 Q421.472 976.843 417.074 976.843 Q414.673 976.843 411.924 977.364 Q409.175 977.885 405.876 978.984 L405.876 973.776 Q409.204 972.85 412.097 972.387 Q415.02 971.924 417.595 971.924 Q424.25 971.924 428.128 974.962 Q432.005 977.971 432.005 983.122 Q432.005 986.71 429.95 989.198 Q427.896 991.658 424.106 992.612 Z" fill="#000000" fill-rule="nonzero" fill-opacity="1" /><path clip-path="url(#clip850)" d="M456.6 976.554 Q452.086 976.554 449.8 981.009 Q447.543 985.437 447.543 994.349 Q447.543 1003.23 449.8 1007.69 Q452.086 1012.11 456.6 1012.11 Q461.142 1012.11 463.399 1007.69 Q465.685 1003.23 465.685 994.349 Q465.685 985.437 463.399 981.009 Q461.142 976.554 456.6 976.554 M456.6 971.924 Q463.862 971.924 467.682 977.682 Q471.53 983.411 471.53 994.349 Q471.53 1005.26 467.682 1011.02 Q463.862 1016.74 456.6 1016.74 Q449.337 1016.74 445.489 1011.02 Q441.669 1005.26 441.669 994.349 Q441.669 983.411 445.489 977.682 Q449.337 971.924 456.6 971.924 Z" fill="#000000" fill-rule="nonzero" fill-opacity="1" /><path clip-path="url(#clip850)" d="M494.302 976.554 Q489.788 976.554 487.502 981.009 Q485.245 985.437 485.245 994.349 Q485.245 1003.23 487.502 1007.69 Q489.788 1012.11 494.302 1012.11 Q498.845 1012.11 501.102 1007.69 Q503.388 1003.23 503.388 994.349 Q503.388 985.437 501.102 981.009 Q498.845 976.554 494.302 976.554 M494.302 971.924 Q501.565 971.924 505.384 977.682 Q509.232 983.411 509.232 994.349 Q509.232 1005.26 505.384 1011.02 Q501.565 1016.74 494.302 1016.74 Q487.039 1016.74 483.191 1011.02 Q479.371 1005.26 479.371 994.349 Q479.371 983.411 483.191 977.682 Q487.039 971.924 494.302 971.924 Z" fill="#000000" fill-rule="nonzero" fill-opacity="1" /><path clip-path="url(#clip850)" d="M318.985 826.949 L356.079 826.949 L356.079 831.868 L318.985 831.868 L318.985 826.949 Z" fill="#000000" fill-rule="nonzero" fill-opacity="1" /><path clip-path="url(#clip850)" d="M368.753 804.785 L391.698 804.785 L391.698 809.704 L374.106 809.704 L374.106 820.294 Q375.379 819.86 376.652 819.658 Q377.925 819.426 379.198 819.426 Q386.432 819.426 390.657 823.39 Q394.881 827.355 394.881 834.125 Q394.881 841.099 390.541 844.976 Q386.201 848.824 378.301 848.824 Q375.581 848.824 372.746 848.361 Q369.939 847.898 366.93 846.973 L366.93 841.099 Q369.534 842.517 372.312 843.211 Q375.09 843.905 378.186 843.905 Q383.191 843.905 386.114 841.272 Q389.036 838.639 389.036 834.125 Q389.036 829.612 386.114 826.978 Q383.191 824.345 378.186 824.345 Q375.842 824.345 373.498 824.866 Q371.183 825.387 368.753 826.487 L368.753 804.785 Z" fill="#000000" fill-rule="nonzero" fill-opacity="1" /><path clip-path="url(#clip850)" d="M411.432 843.066 L431.831 843.066 L431.831 847.985 L404.401 847.985 L404.401 843.066 Q407.728 839.623 413.457 833.836 Q419.216 828.02 420.691 826.342 Q423.498 823.188 424.597 821.018 Q425.726 818.819 425.726 816.706 Q425.726 813.263 423.295 811.093 Q420.894 808.923 417.016 808.923 Q414.268 808.923 411.201 809.878 Q408.162 810.833 404.69 812.771 L404.69 806.869 Q408.22 805.451 411.287 804.727 Q414.354 804.004 416.901 804.004 Q423.614 804.004 427.607 807.36 Q431.6 810.717 431.6 816.33 Q431.6 818.992 430.587 821.394 Q429.603 823.767 426.97 827.007 Q426.247 827.846 422.369 831.868 Q418.492 835.861 411.432 843.066 Z" fill="#000000" fill-rule="nonzero" fill-opacity="1" /><path clip-path="url(#clip850)" d="M456.6 808.634 Q452.086 808.634 449.8 813.09 Q447.543 817.517 447.543 826.429 Q447.543 835.312 449.8 839.768 Q452.086 844.195 456.6 844.195 Q461.142 844.195 463.399 839.768 Q465.685 835.312 465.685 826.429 Q465.685 817.517 463.399 813.09 Q461.142 808.634 456.6 808.634 M456.6 804.004 Q463.862 804.004 467.682 809.762 Q471.53 815.491 471.53 826.429 Q471.53 837.337 467.682 843.095 Q463.862 848.824 456.6 848.824 Q449.337 848.824 445.489 843.095 Q441.669 837.337 441.669 826.429 Q441.669 815.491 445.489 809.762 Q449.337 804.004 456.6 804.004 Z" fill="#000000" fill-rule="nonzero" fill-opacity="1" /><path clip-path="url(#clip850)" d="M494.302 808.634 Q489.788 808.634 487.502 813.09 Q485.245 817.517 485.245 826.429 Q485.245 835.312 487.502 839.768 Q489.788 844.195 494.302 844.195 Q498.845 844.195 501.102 839.768 Q503.388 835.312 503.388 826.429 Q503.388 817.517 501.102 813.09 Q498.845 808.634 494.302 808.634 M494.302 804.004 Q501.565 804.004 505.384 809.762 Q509.232 815.491 509.232 826.429 Q509.232 837.337 505.384 843.095 Q501.565 848.824 494.302 848.824 Q487.039 848.824 483.191 843.095 Q479.371 837.337 479.371 826.429 Q479.371 815.491 483.191 809.762 Q487.039 804.004 494.302 804.004 Z" fill="#000000" fill-rule="nonzero" fill-opacity="1" /><path clip-path="url(#clip850)" d="M318.985 659.03 L356.079 659.03 L356.079 663.949 L318.985 663.949 L318.985 659.03 Z" fill="#000000" fill-rule="nonzero" fill-opacity="1" /><path clip-path="url(#clip850)" d="M368.753 636.865 L391.698 636.865 L391.698 641.784 L374.106 641.784 L374.106 652.375 Q375.379 651.941 376.652 651.738 Q377.925 651.507 379.198 651.507 Q386.432 651.507 390.657 655.471 Q394.881 659.435 394.881 666.206 Q394.881 673.179 390.541 677.056 Q386.201 680.905 378.301 680.905 Q375.581 680.905 372.746 680.442 Q369.939 679.979 366.93 679.053 L366.93 673.179 Q369.534 674.597 372.312 675.291 Q375.09 675.986 378.186 675.986 Q383.191 675.986 386.114 673.352 Q389.036 670.719 389.036 666.206 Q389.036 661.692 386.114 659.059 Q383.191 656.425 378.186 656.425 Q375.842 656.425 373.498 656.946 Q371.183 657.467 368.753 658.567 L368.753 636.865 Z" fill="#000000" fill-rule="nonzero" fill-opacity="1" /><path clip-path="url(#clip850)" d="M407.41 675.146 L416.959 675.146 L416.959 642.189 L406.571 644.273 L406.571 638.949 L416.901 636.865 L422.746 636.865 L422.746 675.146 L432.294 675.146 L432.294 680.065 L407.41 680.065 L407.41 675.146 Z" fill="#000000" fill-rule="nonzero" fill-opacity="1" /><path clip-path="url(#clip850)" d="M456.6 640.714 Q452.086 640.714 449.8 645.17 Q447.543 649.597 447.543 658.509 Q447.543 667.392 449.8 671.848 Q452.086 676.275 456.6 676.275 Q461.142 676.275 463.399 671.848 Q465.685 667.392 465.685 658.509 Q465.685 649.597 463.399 645.17 Q461.142 640.714 456.6 640.714 M456.6 636.084 Q463.862 636.084 467.682 641.842 Q471.53 647.571 471.53 658.509 Q471.53 669.417 467.682 675.175 Q463.862 680.905 456.6 680.905 Q449.337 680.905 445.489 675.175 Q441.669 669.417 441.669 658.509 Q441.669 647.571 445.489 641.842 Q449.337 636.084 456.6 636.084 Z" fill="#000000" fill-rule="nonzero" fill-opacity="1" /><path clip-path="url(#clip850)" d="M494.302 640.714 Q489.788 640.714 487.502 645.17 Q485.245 649.597 485.245 658.509 Q485.245 667.392 487.502 671.848 Q489.788 676.275 494.302 676.275 Q498.845 676.275 501.102 671.848 Q503.388 667.392 503.388 658.509 Q503.388 649.597 501.102 645.17 Q498.845 640.714 494.302 640.714 M494.302 636.084 Q501.565 636.084 505.384 641.842 Q509.232 647.571 509.232 658.509 Q509.232 669.417 505.384 675.175 Q501.565 680.905 494.302 680.905 Q487.039 680.905 483.191 675.175 Q479.371 669.417 479.371 658.509 Q479.371 647.571 483.191 641.842 Q487.039 636.084 494.302 636.084 Z" fill="#000000" fill-rule="nonzero" fill-opacity="1" /><path clip-path="url(#clip850)" d="M318.985 491.11 L356.079 491.11 L356.079 496.029 L318.985 496.029 L318.985 491.11 Z" fill="#000000" fill-rule="nonzero" fill-opacity="1" /><path clip-path="url(#clip850)" d="M368.753 468.946 L391.698 468.946 L391.698 473.864 L374.106 473.864 L374.106 484.455 Q375.379 484.021 376.652 483.818 Q377.925 483.587 379.198 483.587 Q386.432 483.587 390.657 487.551 Q394.881 491.515 394.881 498.286 Q394.881 505.259 390.541 509.136 Q386.201 512.985 378.301 512.985 Q375.581 512.985 372.746 512.522 Q369.939 512.059 366.93 511.133 L366.93 505.259 Q369.534 506.677 372.312 507.371 Q375.09 508.066 378.186 508.066 Q383.191 508.066 386.114 505.433 Q389.036 502.799 389.036 498.286 Q389.036 493.772 386.114 491.139 Q383.191 488.506 378.186 488.506 Q375.842 488.506 373.498 489.026 Q371.183 489.547 368.753 490.647 L368.753 468.946 Z" fill="#000000" fill-rule="nonzero" fill-opacity="1" /><path clip-path="url(#clip850)" d="M418.897 472.794 Q414.383 472.794 412.097 477.25 Q409.841 481.677 409.841 490.589 Q409.841 499.472 412.097 503.928 Q414.383 508.355 418.897 508.355 Q423.44 508.355 425.697 503.928 Q427.983 499.472 427.983 490.589 Q427.983 481.677 425.697 477.25 Q423.44 472.794 418.897 472.794 M418.897 468.164 Q426.16 468.164 429.979 473.922 Q433.828 479.651 433.828 490.589 Q433.828 501.497 429.979 507.255 Q426.16 512.985 418.897 512.985 Q411.635 512.985 407.786 507.255 Q403.967 501.497 403.967 490.589 Q403.967 479.651 407.786 473.922 Q411.635 468.164 418.897 468.164 Z" fill="#000000" fill-rule="nonzero" fill-opacity="1" /><path clip-path="url(#clip850)" d="M456.6 472.794 Q452.086 472.794 449.8 477.25 Q447.543 481.677 447.543 490.589 Q447.543 499.472 449.8 503.928 Q452.086 508.355 456.6 508.355 Q461.142 508.355 463.399 503.928 Q465.685 499.472 465.685 490.589 Q465.685 481.677 463.399 477.25 Q461.142 472.794 456.6 472.794 M456.6 468.164 Q463.862 468.164 467.682 473.922 Q471.53 479.651 471.53 490.589 Q471.53 501.497 467.682 507.255 Q463.862 512.985 456.6 512.985 Q449.337 512.985 445.489 507.255 Q441.669 501.497 441.669 490.589 Q441.669 479.651 445.489 473.922 Q449.337 468.164 456.6 468.164 Z" fill="#000000" fill-rule="nonzero" fill-opacity="1" /><path clip-path="url(#clip850)" d="M494.302 472.794 Q489.788 472.794 487.502 477.25 Q485.245 481.677 485.245 490.589 Q485.245 499.472 487.502 503.928 Q489.788 508.355 494.302 508.355 Q498.845 508.355 501.102 503.928 Q503.388 499.472 503.388 490.589 Q503.388 481.677 501.102 477.25 Q498.845 472.794 494.302 472.794 M494.302 468.164 Q501.565 468.164 505.384 473.922 Q509.232 479.651 509.232 490.589 Q509.232 501.497 505.384 507.255 Q501.565 512.985 494.302 512.985 Q487.039 512.985 483.191 507.255 Q479.371 501.497 479.371 490.589 Q479.371 479.651 483.191 473.922 Q487.039 468.164 494.302 468.164 Z" fill="#000000" fill-rule="nonzero" fill-opacity="1" /><path clip-path="url(#clip850)" d="M318.985 323.19 L356.079 323.19 L356.079 328.109 L318.985 328.109 L318.985 323.19 Z" fill="#000000" fill-rule="nonzero" fill-opacity="1" /><path clip-path="url(#clip850)" d="M384.754 306.118 L369.997 329.179 L384.754 329.179 L384.754 306.118 M383.22 301.026 L390.57 301.026 L390.57 329.179 L396.733 329.179 L396.733 334.041 L390.57 334.041 L390.57 344.226 L384.754 344.226 L384.754 334.041 L365.252 334.041 L365.252 328.398 L383.22 301.026 Z" fill="#000000" fill-rule="nonzero" fill-opacity="1" /><path clip-path="url(#clip850)" d="M406.571 343.329 L406.571 338.005 Q408.77 339.046 411.027 339.596 Q413.284 340.146 415.454 340.146 Q421.241 340.146 424.279 336.268 Q427.346 332.362 427.78 324.434 Q426.102 326.922 423.527 328.253 Q420.952 329.585 417.827 329.585 Q411.345 329.585 407.555 325.678 Q403.793 321.743 403.793 314.943 Q403.793 308.288 407.728 304.266 Q411.663 300.244 418.203 300.244 Q425.697 300.244 429.632 306.002 Q433.596 311.732 433.596 322.669 Q433.596 332.883 428.735 338.988 Q423.903 345.065 415.714 345.065 Q413.515 345.065 411.258 344.631 Q409.001 344.197 406.571 343.329 M418.203 325.013 Q422.138 325.013 424.424 322.322 Q426.739 319.631 426.739 314.943 Q426.739 310.285 424.424 307.594 Q422.138 304.874 418.203 304.874 Q414.268 304.874 411.953 307.594 Q409.667 310.285 409.667 314.943 Q409.667 319.631 411.953 322.322 Q414.268 325.013 418.203 325.013 Z" fill="#000000" fill-rule="nonzero" fill-opacity="1" /><path clip-path="url(#clip850)" d="M456.6 304.874 Q452.086 304.874 449.8 309.33 Q447.543 313.757 447.543 322.669 Q447.543 331.552 449.8 336.008 Q452.086 340.435 456.6 340.435 Q461.142 340.435 463.399 336.008 Q465.685 331.552 465.685 322.669 Q465.685 313.757 463.399 309.33 Q461.142 304.874 456.6 304.874 M456.6 300.244 Q463.862 300.244 467.682 306.002 Q471.53 311.732 471.53 322.669 Q471.53 333.578 467.682 339.336 Q463.862 345.065 456.6 345.065 Q449.337 345.065 445.489 339.336 Q441.669 333.578 441.669 322.669 Q441.669 311.732 445.489 306.002 Q449.337 300.244 456.6 300.244 Z" fill="#000000" fill-rule="nonzero" fill-opacity="1" /><path clip-path="url(#clip850)" d="M494.302 304.874 Q489.788 304.874 487.502 309.33 Q485.245 313.757 485.245 322.669 Q485.245 331.552 487.502 336.008 Q489.788 340.435 494.302 340.435 Q498.845 340.435 501.102 336.008 Q503.388 331.552 503.388 322.669 Q503.388 313.757 501.102 309.33 Q498.845 304.874 494.302 304.874 M494.302 300.244 Q501.565 300.244 505.384 306.002 Q509.232 311.732 509.232 322.669 Q509.232 333.578 505.384 339.336 Q501.565 345.065 494.302 345.065 Q487.039 345.065 483.191 339.336 Q479.371 333.578 479.371 322.669 Q479.371 311.732 483.191 306.002 Q487.039 300.244 494.302 300.244 Z" fill="#000000" fill-rule="nonzero" fill-opacity="1" /><path clip-path="url(#clip850)" d="M318.985 155.27 L356.079 155.27 L356.079 160.189 L318.985 160.189 L318.985 155.27 Z" fill="#000000" fill-rule="nonzero" fill-opacity="1" /><path clip-path="url(#clip850)" d="M384.754 138.198 L369.997 161.26 L384.754 161.26 L384.754 138.198 M383.22 133.106 L390.57 133.106 L390.57 161.26 L396.733 161.26 L396.733 166.121 L390.57 166.121 L390.57 176.306 L384.754 176.306 L384.754 166.121 L365.252 166.121 L365.252 160.478 L383.22 133.106 Z" fill="#000000" fill-rule="nonzero" fill-opacity="1" /><path clip-path="url(#clip850)" d="M418.897 155.791 Q414.731 155.791 412.329 158.019 Q409.956 160.247 409.956 164.153 Q409.956 168.059 412.329 170.287 Q414.731 172.515 418.897 172.515 Q423.064 172.515 425.465 170.287 Q427.867 168.03 427.867 164.153 Q427.867 160.247 425.465 158.019 Q423.093 155.791 418.897 155.791 M413.052 153.302 Q409.291 152.376 407.179 149.801 Q405.095 147.226 405.095 143.522 Q405.095 138.343 408.77 135.334 Q412.474 132.325 418.897 132.325 Q425.35 132.325 429.024 135.334 Q432.699 138.343 432.699 143.522 Q432.699 147.226 430.587 149.801 Q428.504 152.376 424.771 153.302 Q428.996 154.286 431.339 157.151 Q433.712 160.015 433.712 164.153 Q433.712 170.432 429.864 173.788 Q426.044 177.145 418.897 177.145 Q411.75 177.145 407.902 173.788 Q404.082 170.432 404.082 164.153 Q404.082 160.015 406.455 157.151 Q408.828 154.286 413.052 153.302 M410.911 144.072 Q410.911 147.429 412.994 149.309 Q415.107 151.19 418.897 151.19 Q422.659 151.19 424.771 149.309 Q426.912 147.429 426.912 144.072 Q426.912 140.716 424.771 138.835 Q422.659 136.954 418.897 136.954 Q415.107 136.954 412.994 138.835 Q410.911 140.716 410.911 144.072 Z" fill="#000000" fill-rule="nonzero" fill-opacity="1" /><path clip-path="url(#clip850)" d="M456.6 136.954 Q452.086 136.954 449.8 141.41 Q447.543 145.837 447.543 154.749 Q447.543 163.632 449.8 168.088 Q452.086 172.515 456.6 172.515 Q461.142 172.515 463.399 168.088 Q465.685 163.632 465.685 154.749 Q465.685 145.837 463.399 141.41 Q461.142 136.954 456.6 136.954 M456.6 132.325 Q463.862 132.325 467.682 138.083 Q471.53 143.812 471.53 154.749 Q471.53 165.658 467.682 171.416 Q463.862 177.145 456.6 177.145 Q449.337 177.145 445.489 171.416 Q441.669 165.658 441.669 154.749 Q441.669 143.812 445.489 138.083 Q449.337 132.325 456.6 132.325 Z" fill="#000000" fill-rule="nonzero" fill-opacity="1" /><path clip-path="url(#clip850)" d="M494.302 136.954 Q489.788 136.954 487.502 141.41 Q485.245 145.837 485.245 154.749 Q485.245 163.632 487.502 168.088 Q489.788 172.515 494.302 172.515 Q498.845 172.515 501.102 168.088 Q503.388 163.632 503.388 154.749 Q503.388 145.837 501.102 141.41 Q498.845 136.954 494.302 136.954 M494.302 132.325 Q501.565 132.325 505.384 138.083 Q509.232 143.812 509.232 154.749 Q509.232 165.658 505.384 171.416 Q501.565 177.145 494.302 177.145 Q487.039 177.145 483.191 171.416 Q479.371 165.658 479.371 154.749 Q479.371 143.812 483.191 138.083 Q487.039 132.325 494.302 132.325 Z" fill="#000000" fill-rule="nonzero" fill-opacity="1" /><path clip-path="url(#clip850)" d="M221.209 911.779 L221.209 905.35 L263.318 905.35 L263.318 882.21 L268.729 882.21 L268.729 911.779 L221.209 911.779 Z" fill="#000000" fill-rule="nonzero" fill-opacity="1" /><path clip-path="url(#clip850)" d="M237.186 863.049 Q237.186 867.76 240.879 870.497 Q244.539 873.235 250.936 873.235 Q257.334 873.235 261.026 870.529 Q264.686 867.792 264.686 863.049 Q264.686 858.371 260.994 855.633 Q257.302 852.896 250.936 852.896 Q244.603 852.896 240.91 855.633 Q237.186 858.371 237.186 863.049 M232.221 863.049 Q232.221 855.411 237.186 851.05 Q242.152 846.69 250.936 846.69 Q259.689 846.69 264.686 851.05 Q269.652 855.411 269.652 863.049 Q269.652 870.72 264.686 875.081 Q259.689 879.409 250.936 879.409 Q242.152 879.409 237.186 875.081 Q232.221 870.72 232.221 863.049 Z" fill="#000000" fill-rule="nonzero" fill-opacity="1" /><path clip-path="url(#clip850)" d="M250.491 813.524 Q244.125 813.524 240.624 816.166 Q237.123 818.776 237.123 823.518 Q237.123 828.229 240.624 830.871 Q244.125 833.481 250.491 833.481 Q256.825 833.481 260.326 830.871 Q263.827 828.229 263.827 823.518 Q263.827 818.776 260.326 816.166 Q256.825 813.524 250.491 813.524 M264.304 807.668 Q273.407 807.668 277.832 811.71 Q282.288 815.752 282.288 824.091 Q282.288 827.179 281.81 829.916 Q281.364 832.653 280.41 835.231 L274.712 835.231 Q276.113 832.653 276.781 830.139 Q277.45 827.624 277.45 825.014 Q277.45 819.253 274.426 816.389 Q271.434 813.524 265.355 813.524 L262.458 813.524 Q265.609 815.338 267.169 818.171 Q268.729 821.004 268.729 824.951 Q268.729 831.507 263.731 835.518 Q258.734 839.528 250.491 839.528 Q242.215 839.528 237.218 835.518 Q232.221 831.507 232.221 824.951 Q232.221 821.004 233.781 818.171 Q235.34 815.338 238.491 813.524 L233.081 813.524 L233.081 807.668 L264.304 807.668 Z" fill="#000000" fill-rule="nonzero" fill-opacity="1" /><path clip-path="url(#clip850)" d="M248.263 798.565 L248.263 781.409 L253.483 781.409 L253.483 798.565 L248.263 798.565 Z" fill="#000000" fill-rule="nonzero" fill-opacity="1" /><path clip-path="url(#clip850)" d="M221.209 771.829 L221.209 765.399 L263.318 765.399 L263.318 742.26 L268.729 742.26 L268.729 771.829 L221.209 771.829 Z" fill="#000000" fill-rule="nonzero" fill-opacity="1" /><path clip-path="url(#clip850)" d="M233.081 735.767 L233.081 729.911 L268.729 729.911 L268.729 735.767 L233.081 735.767 M219.203 735.767 L219.203 729.911 L226.619 729.911 L226.619 735.767 L219.203 735.767 Z" fill="#000000" fill-rule="nonzero" fill-opacity="1" /><path clip-path="url(#clip850)" d="M219.203 717.879 L219.203 711.991 L248.454 711.991 L233.081 694.517 L233.081 687.038 L249.759 705.944 L268.729 686.242 L268.729 693.881 L251.318 711.991 L268.729 711.991 L268.729 717.879 L219.203 717.879 Z" fill="#000000" fill-rule="nonzero" fill-opacity="1" /><path clip-path="url(#clip850)" d="M249.44 651.74 L252.305 651.74 L252.305 678.667 Q258.352 678.285 261.535 675.038 Q264.686 671.76 264.686 665.935 Q264.686 662.561 263.859 659.41 Q263.031 656.228 261.376 653.108 L266.914 653.108 Q268.251 656.259 268.951 659.57 Q269.652 662.88 269.652 666.285 Q269.652 674.815 264.686 679.813 Q259.721 684.778 251.255 684.778 Q242.502 684.778 237.377 680.067 Q232.221 675.325 232.221 667.304 Q232.221 660.111 236.868 655.941 Q241.483 651.74 249.44 651.74 M247.722 657.596 Q242.916 657.66 240.051 660.302 Q237.186 662.912 237.186 667.24 Q237.186 672.142 239.956 675.102 Q242.725 678.03 247.754 678.476 L247.722 657.596 Z" fill="#000000" fill-rule="nonzero" fill-opacity="1" /><path clip-path="url(#clip850)" d="M219.203 642.128 L219.203 636.271 L268.729 636.271 L268.729 642.128 L219.203 642.128 Z" fill="#000000" fill-rule="nonzero" fill-opacity="1" /><path clip-path="url(#clip850)" d="M233.081 624.017 L233.081 618.161 L268.729 618.161 L268.729 624.017 L233.081 624.017 M219.203 624.017 L219.203 618.161 L226.619 618.161 L226.619 624.017 L219.203 624.017 Z" fill="#000000" fill-rule="nonzero" fill-opacity="1" /><path clip-path="url(#clip850)" d="M247.212 576.274 L268.729 576.274 L268.729 582.131 L247.403 582.131 Q242.343 582.131 239.828 584.104 Q237.314 586.078 237.314 590.024 Q237.314 594.767 240.338 597.504 Q243.361 600.241 248.581 600.241 L268.729 600.241 L268.729 606.129 L219.203 606.129 L219.203 600.241 L238.619 600.241 Q235.404 598.141 233.813 595.308 Q232.221 592.443 232.221 588.719 Q232.221 582.576 236.041 579.425 Q239.828 576.274 247.212 576.274 Z" fill="#000000" fill-rule="nonzero" fill-opacity="1" /><path clip-path="url(#clip850)" d="M237.186 550.78 Q237.186 555.49 240.879 558.228 Q244.539 560.965 250.936 560.965 Q257.334 560.965 261.026 558.259 Q264.686 555.522 264.686 550.78 Q264.686 546.101 260.994 543.364 Q257.302 540.626 250.936 540.626 Q244.603 540.626 240.91 543.364 Q237.186 546.101 237.186 550.78 M232.221 550.78 Q232.221 543.141 237.186 538.78 Q242.152 534.42 250.936 534.42 Q259.689 534.42 264.686 538.78 Q269.652 543.141 269.652 550.78 Q269.652 558.45 264.686 562.811 Q259.689 567.14 250.936 567.14 Q242.152 567.14 237.186 562.811 Q232.221 558.45 232.221 550.78 Z" fill="#000000" fill-rule="nonzero" fill-opacity="1" /><path clip-path="url(#clip850)" d="M237.186 510.899 Q237.186 515.609 240.879 518.346 Q244.539 521.084 250.936 521.084 Q257.334 521.084 261.026 518.378 Q264.686 515.641 264.686 510.899 Q264.686 506.22 260.994 503.482 Q257.302 500.745 250.936 500.745 Q244.603 500.745 240.91 503.482 Q237.186 506.22 237.186 510.899 M232.221 510.899 Q232.221 503.26 237.186 498.899 Q242.152 494.539 250.936 494.539 Q259.689 494.539 264.686 498.899 Q269.652 503.26 269.652 510.899 Q269.652 518.569 264.686 522.93 Q259.689 527.258 250.936 527.258 Q242.152 527.258 237.186 522.93 Q232.221 518.569 232.221 510.899 Z" fill="#000000" fill-rule="nonzero" fill-opacity="1" /><path clip-path="url(#clip850)" d="M238.491 461.373 L219.203 461.373 L219.203 455.517 L268.729 455.517 L268.729 461.373 L263.381 461.373 Q266.564 463.219 268.124 466.052 Q269.652 468.853 269.652 472.8 Q269.652 479.261 264.495 483.335 Q259.339 487.377 250.936 487.377 Q242.534 487.377 237.377 483.335 Q232.221 479.261 232.221 472.8 Q232.221 468.853 233.781 466.052 Q235.309 463.219 238.491 461.373 M250.936 481.33 Q257.398 481.33 261.09 478.688 Q264.75 476.014 264.75 471.367 Q264.75 466.721 261.09 464.047 Q257.398 461.373 250.936 461.373 Q244.475 461.373 240.815 464.047 Q237.123 466.721 237.123 471.367 Q237.123 476.014 240.815 478.688 Q244.475 481.33 250.936 481.33 Z" fill="#000000" fill-rule="nonzero" fill-opacity="1" /><polyline clip-path="url(#clip852)" style="stroke:#000080; stroke-linecap:round; stroke-linejoin:round; stroke-width:8; stroke-opacity:1; fill:none" points="594.16,1209.75 621.803,694.402 649.446,608.922 677.089,560.335 704.732,523.762 732.374,492.744 760.017,464.955 787.66,439.518 815.303,416.086 842.946,394.44 870.589,374.356 898.231,355.586 925.874,337.818 953.517,320.785 981.16,304.832 1008.8,291.037 1036.45,280.013 1064.09,271.543 1091.73,265.101 1119.37,260.155 1147.02,256.272 1174.66,253.134 1202.3,250.513 1229.95,248.249 1257.59,246.223 1285.23,244.349 1312.87,242.562 1340.52,240.811 1368.16,239.058 1395.8,237.271 1423.45,235.428 1451.09,233.512 1478.73,231.51 1506.37,229.414 1534.02,227.216 1561.66,224.914 1589.3,222.509 1616.95,220.002 1644.59,217.397 1672.23,214.687 1699.87,211.853 1727.52,208.866 1755.16,205.688 1782.8,202.285 1810.45,198.632 1838.09,194.729 1865.73,190.616 1893.37,186.38 1921.02,182.161 1948.66,178.128 1976.3,174.437 2003.95,171.192 2031.59,168.419 2059.23,166.082 2086.87,164.107 2114.52,162.417 2142.16,160.953 2169.8,159.672 2197.45,158.545 2225.09,157.55 "/>
<circle clip-path="url(#clip852)" cx="594.16" cy="1209.75" r="10.8" fill="#000080" fill-rule="evenodd" fill-opacity="1" stroke="#000000" stroke-opacity="1" stroke-width="3.2"/>
<circle clip-path="url(#clip852)" cx="621.803" cy="694.402" r="10.8" fill="#000080" fill-rule="evenodd" fill-opacity="1" stroke="#000000" stroke-opacity="1" stroke-width="3.2"/>
<circle clip-path="url(#clip852)" cx="649.446" cy="608.922" r="10.8" fill="#000080" fill-rule="evenodd" fill-opacity="1" stroke="#000000" stroke-opacity="1" stroke-width="3.2"/>
<circle clip-path="url(#clip852)" cx="677.089" cy="560.335" r="10.8" fill="#000080" fill-rule="evenodd" fill-opacity="1" stroke="#000000" stroke-opacity="1" stroke-width="3.2"/>
<circle clip-path="url(#clip852)" cx="704.732" cy="523.762" r="10.8" fill="#000080" fill-rule="evenodd" fill-opacity="1" stroke="#000000" stroke-opacity="1" stroke-width="3.2"/>
<circle clip-path="url(#clip852)" cx="732.374" cy="492.744" r="10.8" fill="#000080" fill-rule="evenodd" fill-opacity="1" stroke="#000000" stroke-opacity="1" stroke-width="3.2"/>
<circle clip-path="url(#clip852)" cx="760.017" cy="464.955" r="10.8" fill="#000080" fill-rule="evenodd" fill-opacity="1" stroke="#000000" stroke-opacity="1" stroke-width="3.2"/>
<circle clip-path="url(#clip852)" cx="787.66" cy="439.518" r="10.8" fill="#000080" fill-rule="evenodd" fill-opacity="1" stroke="#000000" stroke-opacity="1" stroke-width="3.2"/>
<circle clip-path="url(#clip852)" cx="815.303" cy="416.086" r="10.8" fill="#000080" fill-rule="evenodd" fill-opacity="1" stroke="#000000" stroke-opacity="1" stroke-width="3.2"/>
<circle clip-path="url(#clip852)" cx="842.946" cy="394.44" r="10.8" fill="#000080" fill-rule="evenodd" fill-opacity="1" stroke="#000000" stroke-opacity="1" stroke-width="3.2"/>
<circle clip-path="url(#clip852)" cx="870.589" cy="374.356" r="10.8" fill="#000080" fill-rule="evenodd" fill-opacity="1" stroke="#000000" stroke-opacity="1" stroke-width="3.2"/>
<circle clip-path="url(#clip852)" cx="898.231" cy="355.586" r="10.8" fill="#000080" fill-rule="evenodd" fill-opacity="1" stroke="#000000" stroke-opacity="1" stroke-width="3.2"/>
<circle clip-path="url(#clip852)" cx="925.874" cy="337.818" r="10.8" fill="#000080" fill-rule="evenodd" fill-opacity="1" stroke="#000000" stroke-opacity="1" stroke-width="3.2"/>
<circle clip-path="url(#clip852)" cx="953.517" cy="320.785" r="10.8" fill="#000080" fill-rule="evenodd" fill-opacity="1" stroke="#000000" stroke-opacity="1" stroke-width="3.2"/>
<circle clip-path="url(#clip852)" cx="981.16" cy="304.832" r="10.8" fill="#000080" fill-rule="evenodd" fill-opacity="1" stroke="#000000" stroke-opacity="1" stroke-width="3.2"/>
<circle clip-path="url(#clip852)" cx="1008.8" cy="291.037" r="10.8" fill="#000080" fill-rule="evenodd" fill-opacity="1" stroke="#000000" stroke-opacity="1" stroke-width="3.2"/>
<circle clip-path="url(#clip852)" cx="1036.45" cy="280.013" r="10.8" fill="#000080" fill-rule="evenodd" fill-opacity="1" stroke="#000000" stroke-opacity="1" stroke-width="3.2"/>
<circle clip-path="url(#clip852)" cx="1064.09" cy="271.543" r="10.8" fill="#000080" fill-rule="evenodd" fill-opacity="1" stroke="#000000" stroke-opacity="1" stroke-width="3.2"/>
<circle clip-path="url(#clip852)" cx="1091.73" cy="265.101" r="10.8" fill="#000080" fill-rule="evenodd" fill-opacity="1" stroke="#000000" stroke-opacity="1" stroke-width="3.2"/>
<circle clip-path="url(#clip852)" cx="1119.37" cy="260.155" r="10.8" fill="#000080" fill-rule="evenodd" fill-opacity="1" stroke="#000000" stroke-opacity="1" stroke-width="3.2"/>
<circle clip-path="url(#clip852)" cx="1147.02" cy="256.272" r="10.8" fill="#000080" fill-rule="evenodd" fill-opacity="1" stroke="#000000" stroke-opacity="1" stroke-width="3.2"/>
<circle clip-path="url(#clip852)" cx="1174.66" cy="253.134" r="10.8" fill="#000080" fill-rule="evenodd" fill-opacity="1" stroke="#000000" stroke-opacity="1" stroke-width="3.2"/>
<circle clip-path="url(#clip852)" cx="1202.3" cy="250.513" r="10.8" fill="#000080" fill-rule="evenodd" fill-opacity="1" stroke="#000000" stroke-opacity="1" stroke-width="3.2"/>
<circle clip-path="url(#clip852)" cx="1229.95" cy="248.249" r="10.8" fill="#000080" fill-rule="evenodd" fill-opacity="1" stroke="#000000" stroke-opacity="1" stroke-width="3.2"/>
<circle clip-path="url(#clip852)" cx="1257.59" cy="246.223" r="10.8" fill="#000080" fill-rule="evenodd" fill-opacity="1" stroke="#000000" stroke-opacity="1" stroke-width="3.2"/>
<circle clip-path="url(#clip852)" cx="1285.23" cy="244.349" r="10.8" fill="#000080" fill-rule="evenodd" fill-opacity="1" stroke="#000000" stroke-opacity="1" stroke-width="3.2"/>
<circle clip-path="url(#clip852)" cx="1312.87" cy="242.562" r="10.8" fill="#000080" fill-rule="evenodd" fill-opacity="1" stroke="#000000" stroke-opacity="1" stroke-width="3.2"/>
<circle clip-path="url(#clip852)" cx="1340.52" cy="240.811" r="10.8" fill="#000080" fill-rule="evenodd" fill-opacity="1" stroke="#000000" stroke-opacity="1" stroke-width="3.2"/>
<circle clip-path="url(#clip852)" cx="1368.16" cy="239.058" r="10.8" fill="#000080" fill-rule="evenodd" fill-opacity="1" stroke="#000000" stroke-opacity="1" stroke-width="3.2"/>
<circle clip-path="url(#clip852)" cx="1395.8" cy="237.271" r="10.8" fill="#000080" fill-rule="evenodd" fill-opacity="1" stroke="#000000" stroke-opacity="1" stroke-width="3.2"/>
<circle clip-path="url(#clip852)" cx="1423.45" cy="235.428" r="10.8" fill="#000080" fill-rule="evenodd" fill-opacity="1" stroke="#000000" stroke-opacity="1" stroke-width="3.2"/>
<circle clip-path="url(#clip852)" cx="1451.09" cy="233.512" r="10.8" fill="#000080" fill-rule="evenodd" fill-opacity="1" stroke="#000000" stroke-opacity="1" stroke-width="3.2"/>
<circle clip-path="url(#clip852)" cx="1478.73" cy="231.51" r="10.8" fill="#000080" fill-rule="evenodd" fill-opacity="1" stroke="#000000" stroke-opacity="1" stroke-width="3.2"/>
<circle clip-path="url(#clip852)" cx="1506.37" cy="229.414" r="10.8" fill="#000080" fill-rule="evenodd" fill-opacity="1" stroke="#000000" stroke-opacity="1" stroke-width="3.2"/>
<circle clip-path="url(#clip852)" cx="1534.02" cy="227.216" r="10.8" fill="#000080" fill-rule="evenodd" fill-opacity="1" stroke="#000000" stroke-opacity="1" stroke-width="3.2"/>
<circle clip-path="url(#clip852)" cx="1561.66" cy="224.914" r="10.8" fill="#000080" fill-rule="evenodd" fill-opacity="1" stroke="#000000" stroke-opacity="1" stroke-width="3.2"/>
<circle clip-path="url(#clip852)" cx="1589.3" cy="222.509" r="10.8" fill="#000080" fill-rule="evenodd" fill-opacity="1" stroke="#000000" stroke-opacity="1" stroke-width="3.2"/>
<circle clip-path="url(#clip852)" cx="1616.95" cy="220.002" r="10.8" fill="#000080" fill-rule="evenodd" fill-opacity="1" stroke="#000000" stroke-opacity="1" stroke-width="3.2"/>
<circle clip-path="url(#clip852)" cx="1644.59" cy="217.397" r="10.8" fill="#000080" fill-rule="evenodd" fill-opacity="1" stroke="#000000" stroke-opacity="1" stroke-width="3.2"/>
<circle clip-path="url(#clip852)" cx="1672.23" cy="214.687" r="10.8" fill="#000080" fill-rule="evenodd" fill-opacity="1" stroke="#000000" stroke-opacity="1" stroke-width="3.2"/>
<circle clip-path="url(#clip852)" cx="1699.87" cy="211.853" r="10.8" fill="#000080" fill-rule="evenodd" fill-opacity="1" stroke="#000000" stroke-opacity="1" stroke-width="3.2"/>
<circle clip-path="url(#clip852)" cx="1727.52" cy="208.866" r="10.8" fill="#000080" fill-rule="evenodd" fill-opacity="1" stroke="#000000" stroke-opacity="1" stroke-width="3.2"/>
<circle clip-path="url(#clip852)" cx="1755.16" cy="205.688" r="10.8" fill="#000080" fill-rule="evenodd" fill-opacity="1" stroke="#000000" stroke-opacity="1" stroke-width="3.2"/>
<circle clip-path="url(#clip852)" cx="1782.8" cy="202.285" r="10.8" fill="#000080" fill-rule="evenodd" fill-opacity="1" stroke="#000000" stroke-opacity="1" stroke-width="3.2"/>
<circle clip-path="url(#clip852)" cx="1810.45" cy="198.632" r="10.8" fill="#000080" fill-rule="evenodd" fill-opacity="1" stroke="#000000" stroke-opacity="1" stroke-width="3.2"/>
<circle clip-path="url(#clip852)" cx="1838.09" cy="194.729" r="10.8" fill="#000080" fill-rule="evenodd" fill-opacity="1" stroke="#000000" stroke-opacity="1" stroke-width="3.2"/>
<circle clip-path="url(#clip852)" cx="1865.73" cy="190.616" r="10.8" fill="#000080" fill-rule="evenodd" fill-opacity="1" stroke="#000000" stroke-opacity="1" stroke-width="3.2"/>
<circle clip-path="url(#clip852)" cx="1893.37" cy="186.38" r="10.8" fill="#000080" fill-rule="evenodd" fill-opacity="1" stroke="#000000" stroke-opacity="1" stroke-width="3.2"/>
<circle clip-path="url(#clip852)" cx="1921.02" cy="182.161" r="10.8" fill="#000080" fill-rule="evenodd" fill-opacity="1" stroke="#000000" stroke-opacity="1" stroke-width="3.2"/>
<circle clip-path="url(#clip852)" cx="1948.66" cy="178.128" r="10.8" fill="#000080" fill-rule="evenodd" fill-opacity="1" stroke="#000000" stroke-opacity="1" stroke-width="3.2"/>
<circle clip-path="url(#clip852)" cx="1976.3" cy="174.437" r="10.8" fill="#000080" fill-rule="evenodd" fill-opacity="1" stroke="#000000" stroke-opacity="1" stroke-width="3.2"/>
<circle clip-path="url(#clip852)" cx="2003.95" cy="171.192" r="10.8" fill="#000080" fill-rule="evenodd" fill-opacity="1" stroke="#000000" stroke-opacity="1" stroke-width="3.2"/>
<circle clip-path="url(#clip852)" cx="2031.59" cy="168.419" r="10.8" fill="#000080" fill-rule="evenodd" fill-opacity="1" stroke="#000000" stroke-opacity="1" stroke-width="3.2"/>
<circle clip-path="url(#clip852)" cx="2059.23" cy="166.082" r="10.8" fill="#000080" fill-rule="evenodd" fill-opacity="1" stroke="#000000" stroke-opacity="1" stroke-width="3.2"/>
<circle clip-path="url(#clip852)" cx="2086.87" cy="164.107" r="10.8" fill="#000080" fill-rule="evenodd" fill-opacity="1" stroke="#000000" stroke-opacity="1" stroke-width="3.2"/>
<circle clip-path="url(#clip852)" cx="2114.52" cy="162.417" r="10.8" fill="#000080" fill-rule="evenodd" fill-opacity="1" stroke="#000000" stroke-opacity="1" stroke-width="3.2"/>
<circle clip-path="url(#clip852)" cx="2142.16" cy="160.953" r="10.8" fill="#000080" fill-rule="evenodd" fill-opacity="1" stroke="#000000" stroke-opacity="1" stroke-width="3.2"/>
<circle clip-path="url(#clip852)" cx="2169.8" cy="159.672" r="10.8" fill="#000080" fill-rule="evenodd" fill-opacity="1" stroke="#000000" stroke-opacity="1" stroke-width="3.2"/>
<circle clip-path="url(#clip852)" cx="2197.45" cy="158.545" r="10.8" fill="#000080" fill-rule="evenodd" fill-opacity="1" stroke="#000000" stroke-opacity="1" stroke-width="3.2"/>
<circle clip-path="url(#clip852)" cx="2225.09" cy="157.55" r="10.8" fill="#000080" fill-rule="evenodd" fill-opacity="1" stroke="#000000" stroke-opacity="1" stroke-width="3.2"/>
</svg>
