<?xml version="1.0" encoding="utf-8"?>
<svg xmlns="http://www.w3.org/2000/svg" xmlns:xlink="http://www.w3.org/1999/xlink" width="600" height="400" viewBox="0 0 2400 1600">
<defs>
  <clipPath id="clip900">
    <rect x="0" y="0" width="2400" height="1600"/>
  </clipPath>
</defs>
<path clip-path="url(#clip900)" d="M0 1600 L2400 1600 L2400 8.88178e-14 L0 8.88178e-14  Z" fill="#ffffff" fill-rule="evenodd" fill-opacity="1"/>
<defs>
  <clipPath id="clip901">
    <rect x="586" y="0" width="1423" height="1247"/>
  </clipPath>
</defs>
<path clip-path="url(#clip900)" d="M479.087 1241.31 L2274.02 1241.31 L2274.02 180.612 L479.087 180.612  Z" fill="#ffffff" fill-rule="evenodd" fill-opacity="1"/>
<defs>
  <clipPath id="clip902">
    <rect x="479" y="180" width="1796" height="1062"/>
  </clipPath>
</defs>
<polyline clip-path="url(#clip902)" style="stroke:#000000; stroke-linecap:round; stroke-linejoin:round; stroke-width:2; stroke-opacity:0.1; fill:none" points="523.964,1241.31 523.964,180.612 "/>
<polyline clip-path="url(#clip902)" style="stroke:#000000; stroke-linecap:round; stroke-linejoin:round; stroke-width:2; stroke-opacity:0.1; fill:none" points="972.694,1241.31 972.694,180.612 "/>
<polyline clip-path="url(#clip902)" style="stroke:#000000; stroke-linecap:round; stroke-linejoin:round; stroke-width:2; stroke-opacity:0.1; fill:none" points="1421.42,1241.31 1421.42,180.612 "/>
<polyline clip-path="url(#clip902)" style="stroke:#000000; stroke-linecap:round; stroke-linejoin:round; stroke-width:2; stroke-opacity:0.1; fill:none" points="1870.15,1241.31 1870.15,180.612 "/>
<polyline clip-path="url(#clip902)" style="stroke:#000000; stroke-linecap:round; stroke-linejoin:round; stroke-width:2; stroke-opacity:0.1; fill:none" points="479.087,1241.31 2274.02,1241.31 "/>
<polyline clip-path="url(#clip902)" style="stroke:#000000; stroke-linecap:round; stroke-linejoin:round; stroke-width:2; stroke-opacity:0.1; fill:none" points="479.087,1061.89 2274.02,1061.89 "/>
<polyline clip-path="url(#clip902)" style="stroke:#000000; stroke-linecap:round; stroke-linejoin:round; stroke-width:2; stroke-opacity:0.1; fill:none" points="479.087,882.463 2274.02,882.463 "/>
<polyline clip-path="url(#clip902)" style="stroke:#000000; stroke-linecap:round; stroke-linejoin:round; stroke-width:2; stroke-opacity:0.1; fill:none" points="479.087,703.038 2274.02,703.038 "/>
<polyline clip-path="url(#clip902)" style="stroke:#000000; stroke-linecap:round; stroke-linejoin:round; stroke-width:2; stroke-opacity:0.1; fill:none" points="479.087,523.614 2274.02,523.614 "/>
<polyline clip-path="url(#clip902)" style="stroke:#000000; stroke-linecap:round; stroke-linejoin:round; stroke-width:2; stroke-opacity:0.1; fill:none" points="479.087,344.19 2274.02,344.19 "/>
<polyline clip-path="url(#clip900)" style="stroke:#000000; stroke-linecap:round; stroke-linejoin:round; stroke-width:4; stroke-opacity:1; fill:none" points="479.087,1241.31 2274.02,1241.31 "/>
<polyline clip-path="url(#clip900)" style="stroke:#000000; stroke-linecap:round; stroke-linejoin:round; stroke-width:4; stroke-opacity:1; fill:none" points="523.964,1241.31 523.964,1222.41 "/>
<polyline clip-path="url(#clip900)" style="stroke:#000000; stroke-linecap:round; stroke-linejoin:round; stroke-width:4; stroke-opacity:1; fill:none" points="972.694,1241.31 972.694,1222.41 "/>
<polyline clip-path="url(#clip900)" style="stroke:#000000; stroke-linecap:round; stroke-linejoin:round; stroke-width:4; stroke-opacity:1; fill:none" points="1421.42,1241.31 1421.42,1222.41 "/>
<polyline clip-path="url(#clip900)" style="stroke:#000000; stroke-linecap:round; stroke-linejoin:round; stroke-width:4; stroke-opacity:1; fill:none" points="1870.15,1241.31 1870.15,1222.41 "/>
<path clip-path="url(#clip900)" d="M523.964 1275.16 Q519.45 1275.16 517.164 1279.62 Q514.907 1284.04 514.907 1292.95 Q514.907 1301.84 517.164 1306.29 Q519.45 1310.72 523.964 1310.72 Q528.506 1310.72 530.763 1306.29 Q533.049 1301.84 533.049 1292.95 Q533.049 1284.04 530.763 1279.62 Q528.506 1275.16 523.964 1275.16 M523.964 1270.53 Q531.226 1270.53 535.046 1276.29 Q538.894 1282.02 538.894 1292.95 Q538.894 1303.86 535.046 1309.62 Q531.226 1315.35 523.964 1315.35 Q516.701 1315.35 512.852 1309.62 Q509.033 1303.86 509.033 1292.95 Q509.033 1282.02 512.852 1276.29 Q516.701 1270.53 523.964 1270.53 Z" fill="#000000" fill-rule="nonzero" fill-opacity="1" /><path clip-path="url(#clip900)" d="M960.541 1271.31 L983.487 1271.31 L983.487 1276.23 L965.894 1276.23 L965.894 1286.82 Q967.167 1286.39 968.441 1286.18 Q969.714 1285.95 970.987 1285.95 Q978.221 1285.95 982.445 1289.92 Q986.67 1293.88 986.67 1300.65 Q986.67 1307.62 982.329 1311.5 Q977.989 1315.35 970.09 1315.35 Q967.37 1315.35 964.534 1314.89 Q961.728 1314.42 958.718 1313.5 L958.718 1307.62 Q961.322 1309.04 964.1 1309.74 Q966.878 1310.43 969.974 1310.43 Q974.98 1310.43 977.902 1307.8 Q980.825 1305.17 980.825 1300.65 Q980.825 1296.14 977.902 1293.5 Q974.98 1290.87 969.974 1290.87 Q967.63 1290.87 965.287 1291.39 Q962.972 1291.91 960.541 1293.01 L960.541 1271.31 Z" fill="#000000" fill-rule="nonzero" fill-opacity="1" /><path clip-path="url(#clip900)" d="M1389.78 1309.59 L1399.33 1309.59 L1399.33 1276.64 L1388.94 1278.72 L1388.94 1273.39 L1399.27 1271.31 L1405.12 1271.31 L1405.12 1309.59 L1414.67 1309.59 L1414.67 1314.51 L1389.78 1314.51 L1389.78 1309.59 Z" fill="#000000" fill-rule="nonzero" fill-opacity="1" /><path clip-path="url(#clip900)" d="M1438.97 1275.16 Q1434.46 1275.16 1432.17 1279.62 Q1429.92 1284.04 1429.92 1292.95 Q1429.92 1301.84 1432.17 1306.29 Q1434.46 1310.72 1438.97 1310.72 Q1443.52 1310.72 1445.77 1306.29 Q1448.06 1301.84 1448.06 1292.95 Q1448.06 1284.04 1445.77 1279.62 Q1443.52 1275.16 1438.97 1275.16 M1438.97 1270.53 Q1446.24 1270.53 1450.06 1276.29 Q1453.9 1282.02 1453.9 1292.95 Q1453.9 1303.86 1450.06 1309.62 Q1446.24 1315.35 1438.97 1315.35 Q1431.71 1315.35 1427.86 1309.62 Q1424.04 1303.86 1424.04 1292.95 Q1424.04 1282.02 1427.86 1276.29 Q1431.71 1270.53 1438.97 1270.53 Z" fill="#000000" fill-rule="nonzero" fill-opacity="1" /><path clip-path="url(#clip900)" d="M1839.14 1309.59 L1848.68 1309.59 L1848.68 1276.64 L1838.3 1278.72 L1838.3 1273.39 L1848.63 1271.31 L1854.47 1271.31 L1854.47 1309.59 L1864.02 1309.59 L1864.02 1314.51 L1839.14 1314.51 L1839.14 1309.59 Z" fill="#000000" fill-rule="nonzero" fill-opacity="1" /><path clip-path="url(#clip900)" d="M1875.88 1271.31 L1898.83 1271.31 L1898.83 1276.23 L1881.24 1276.23 L1881.24 1286.82 Q1882.51 1286.39 1883.78 1286.18 Q1885.06 1285.95 1886.33 1285.95 Q1893.56 1285.95 1897.79 1289.92 Q1902.01 1293.88 1902.01 1300.65 Q1902.01 1307.62 1897.67 1311.5 Q1893.33 1315.35 1885.43 1315.35 Q1882.71 1315.35 1879.88 1314.89 Q1877.07 1314.42 1874.06 1313.5 L1874.06 1307.62 Q1876.67 1309.04 1879.44 1309.74 Q1882.22 1310.43 1885.32 1310.43 Q1890.32 1310.43 1893.24 1307.8 Q1896.17 1305.17 1896.17 1300.65 Q1896.17 1296.14 1893.24 1293.5 Q1890.32 1290.87 1885.32 1290.87 Q1882.97 1290.87 1880.63 1291.39 Q1878.31 1291.91 1875.88 1293.01 L1875.88 1271.31 Z" fill="#000000" fill-rule="nonzero" fill-opacity="1" /><path clip-path="url(#clip900)" d="M1224.55 1353.18 L1224.55 1359.45 Q1220.89 1357.69 1217.65 1356.84 Q1214.4 1355.98 1211.38 1355.98 Q1206.13 1355.98 1203.26 1358.01 Q1200.43 1360.05 1200.43 1363.81 Q1200.43 1366.96 1202.31 1368.58 Q1204.22 1370.17 1209.5 1371.16 L1213.38 1371.95 Q1220.58 1373.32 1223.98 1376.79 Q1227.42 1380.23 1227.42 1386.02 Q1227.42 1392.93 1222.77 1396.49 Q1218.16 1400.06 1209.21 1400.06 Q1205.84 1400.06 1202.02 1399.29 Q1198.23 1398.53 1194.16 1397.03 L1194.16 1390.41 Q1198.07 1392.61 1201.83 1393.72 Q1205.58 1394.84 1209.21 1394.84 Q1214.72 1394.84 1217.71 1392.67 Q1220.7 1390.51 1220.7 1386.5 Q1220.7 1383 1218.54 1381.03 Q1216.41 1379.05 1211.5 1378.07 L1207.59 1377.3 Q1200.4 1375.87 1197.18 1372.81 Q1193.97 1369.76 1193.97 1364.32 Q1193.97 1358.01 1198.39 1354.38 Q1202.85 1350.76 1210.65 1350.76 Q1213.99 1350.76 1217.46 1351.36 Q1220.93 1351.97 1224.55 1353.18 Z" fill="#000000" fill-rule="nonzero" fill-opacity="1" /><path clip-path="url(#clip900)" d="M1242.98 1353.37 L1242.98 1363.49 L1255.05 1363.49 L1255.05 1368.04 L1242.98 1368.04 L1242.98 1387.39 Q1242.98 1391.75 1244.16 1392.99 Q1245.37 1394.23 1249.03 1394.23 L1255.05 1394.23 L1255.05 1399.14 L1249.03 1399.14 Q1242.25 1399.14 1239.67 1396.62 Q1237.09 1394.07 1237.09 1387.39 L1237.09 1368.04 L1232.8 1368.04 L1232.8 1363.49 L1237.09 1363.49 L1237.09 1353.37 L1242.98 1353.37 Z" fill="#000000" fill-rule="nonzero" fill-opacity="1" /><path clip-path="url(#clip900)" d="M1278.95 1381.22 Q1271.85 1381.22 1269.11 1382.84 Q1266.38 1384.46 1266.38 1388.38 Q1266.38 1391.5 1268.41 1393.34 Q1270.48 1395.16 1274.02 1395.16 Q1278.89 1395.16 1281.81 1391.72 Q1284.77 1388.25 1284.77 1382.52 L1284.77 1381.22 L1278.95 1381.22 M1290.63 1378.8 L1290.63 1399.14 L1284.77 1399.14 L1284.77 1393.72 Q1282.77 1396.97 1279.78 1398.53 Q1276.78 1400.06 1272.46 1400.06 Q1266.98 1400.06 1263.74 1397 Q1260.52 1393.92 1260.52 1388.76 Q1260.52 1382.74 1264.53 1379.69 Q1268.57 1376.63 1276.56 1376.63 L1284.77 1376.63 L1284.77 1376.06 Q1284.77 1372.02 1282.1 1369.82 Q1279.46 1367.59 1274.65 1367.59 Q1271.6 1367.59 1268.7 1368.33 Q1265.8 1369.06 1263.13 1370.52 L1263.13 1365.11 Q1266.35 1363.87 1269.37 1363.26 Q1272.39 1362.63 1275.26 1362.63 Q1282.99 1362.63 1286.81 1366.64 Q1290.63 1370.65 1290.63 1378.8 Z" fill="#000000" fill-rule="nonzero" fill-opacity="1" /><path clip-path="url(#clip900)" d="M1308.49 1353.37 L1308.49 1363.49 L1320.55 1363.49 L1320.55 1368.04 L1308.49 1368.04 L1308.49 1387.39 Q1308.49 1391.75 1309.66 1392.99 Q1310.87 1394.23 1314.53 1394.23 L1320.55 1394.23 L1320.55 1399.14 L1314.53 1399.14 Q1307.75 1399.14 1305.18 1396.62 Q1302.6 1394.07 1302.6 1387.39 L1302.6 1368.04 L1298.3 1368.04 L1298.3 1363.49 L1302.6 1363.49 L1302.6 1353.37 L1308.49 1353.37 Z" fill="#000000" fill-rule="nonzero" fill-opacity="1" /><path clip-path="url(#clip900)" d="M1358.74 1379.85 L1358.74 1382.71 L1331.82 1382.71 Q1332.2 1388.76 1335.44 1391.94 Q1338.72 1395.09 1344.55 1395.09 Q1347.92 1395.09 1351.07 1394.27 Q1354.26 1393.44 1357.37 1391.78 L1357.37 1397.32 Q1354.22 1398.66 1350.91 1399.36 Q1347.6 1400.06 1344.2 1400.06 Q1335.67 1400.06 1330.67 1395.09 Q1325.71 1390.13 1325.71 1381.66 Q1325.71 1372.91 1330.42 1367.78 Q1335.16 1362.63 1343.18 1362.63 Q1350.37 1362.63 1354.54 1367.28 Q1358.74 1371.89 1358.74 1379.85 M1352.89 1378.13 Q1352.82 1373.32 1350.18 1370.46 Q1347.57 1367.59 1343.24 1367.59 Q1338.34 1367.59 1335.38 1370.36 Q1332.45 1373.13 1332.01 1378.16 L1352.89 1378.13 Z" fill="#000000" fill-rule="nonzero" fill-opacity="1" /><path clip-path="url(#clip900)" d="M1389.08 1363.49 L1394.93 1363.49 L1394.93 1399.14 L1389.08 1399.14 L1389.08 1363.49 M1389.08 1349.61 L1394.93 1349.61 L1394.93 1357.03 L1389.08 1357.03 L1389.08 1349.61 Z" fill="#000000" fill-rule="nonzero" fill-opacity="1" /><path clip-path="url(#clip900)" d="M1436.82 1377.62 L1436.82 1399.14 L1430.96 1399.14 L1430.96 1377.81 Q1430.96 1372.75 1428.99 1370.24 Q1427.02 1367.72 1423.07 1367.72 Q1418.33 1367.72 1415.59 1370.74 Q1412.85 1373.77 1412.85 1378.99 L1412.85 1399.14 L1406.96 1399.14 L1406.96 1363.49 L1412.85 1363.49 L1412.85 1369.03 Q1414.95 1365.81 1417.79 1364.22 Q1420.65 1362.63 1424.37 1362.63 Q1430.52 1362.63 1433.67 1366.45 Q1436.82 1370.24 1436.82 1377.62 Z" fill="#000000" fill-rule="nonzero" fill-opacity="1" /><path clip-path="url(#clip900)" d="M1471.96 1368.9 L1471.96 1349.61 L1477.81 1349.61 L1477.81 1399.14 L1471.96 1399.14 L1471.96 1393.79 Q1470.11 1396.97 1467.28 1398.53 Q1464.48 1400.06 1460.53 1400.06 Q1454.07 1400.06 1450 1394.9 Q1445.95 1389.75 1445.95 1381.34 Q1445.95 1372.94 1450 1367.78 Q1454.07 1362.63 1460.53 1362.63 Q1464.48 1362.63 1467.28 1364.19 Q1470.11 1365.72 1471.96 1368.9 M1452 1381.34 Q1452 1387.8 1454.64 1391.5 Q1457.32 1395.16 1461.96 1395.16 Q1466.61 1395.16 1469.28 1391.5 Q1471.96 1387.8 1471.96 1381.34 Q1471.96 1374.88 1469.28 1371.22 Q1466.61 1367.53 1461.96 1367.53 Q1457.32 1367.53 1454.64 1371.22 Q1452 1374.88 1452 1381.34 Z" fill="#000000" fill-rule="nonzero" fill-opacity="1" /><path clip-path="url(#clip900)" d="M1520.37 1379.85 L1520.37 1382.71 L1493.44 1382.71 Q1493.82 1388.76 1497.07 1391.94 Q1500.35 1395.09 1506.17 1395.09 Q1509.55 1395.09 1512.7 1394.27 Q1515.88 1393.44 1519 1391.78 L1519 1397.32 Q1515.85 1398.66 1512.54 1399.36 Q1509.23 1400.06 1505.82 1400.06 Q1497.29 1400.06 1492.3 1395.09 Q1487.33 1390.13 1487.33 1381.66 Q1487.33 1372.91 1492.04 1367.78 Q1496.78 1362.63 1504.8 1362.63 Q1512 1362.63 1516.17 1367.28 Q1520.37 1371.89 1520.37 1379.85 M1514.51 1378.13 Q1514.45 1373.32 1511.81 1370.46 Q1509.2 1367.59 1504.87 1367.59 Q1499.97 1367.59 1497.01 1370.36 Q1494.08 1373.13 1493.63 1378.16 L1514.51 1378.13 Z" fill="#000000" fill-rule="nonzero" fill-opacity="1" /><path clip-path="url(#clip900)" d="M1558.47 1363.49 L1545.58 1380.83 L1559.14 1399.14 L1552.23 1399.14 L1541.85 1385.13 L1531.48 1399.14 L1524.57 1399.14 L1538.42 1380.48 L1525.75 1363.49 L1532.65 1363.49 L1542.11 1376.19 L1551.56 1363.49 L1558.47 1363.49 Z" fill="#000000" fill-rule="nonzero" fill-opacity="1" /><polyline clip-path="url(#clip900)" style="stroke:#000000; stroke-linecap:round; stroke-linejoin:round; stroke-width:4; stroke-opacity:1; fill:none" points="479.087,1241.31 479.087,180.612 "/>
<polyline clip-path="url(#clip900)" style="stroke:#000000; stroke-linecap:round; stroke-linejoin:round; stroke-width:4; stroke-opacity:1; fill:none" points="479.087,1241.31 497.985,1241.31 "/>
<polyline clip-path="url(#clip900)" style="stroke:#000000; stroke-linecap:round; stroke-linejoin:round; stroke-width:4; stroke-opacity:1; fill:none" points="479.087,1061.89 497.985,1061.89 "/>
<polyline clip-path="url(#clip900)" style="stroke:#000000; stroke-linecap:round; stroke-linejoin:round; stroke-width:4; stroke-opacity:1; fill:none" points="479.087,882.463 497.985,882.463 "/>
<polyline clip-path="url(#clip900)" style="stroke:#000000; stroke-linecap:round; stroke-linejoin:round; stroke-width:4; stroke-opacity:1; fill:none" points="479.087,703.038 497.985,703.038 "/>
<polyline clip-path="url(#clip900)" style="stroke:#000000; stroke-linecap:round; stroke-linejoin:round; stroke-width:4; stroke-opacity:1; fill:none" points="479.087,523.614 497.985,523.614 "/>
<polyline clip-path="url(#clip900)" style="stroke:#000000; stroke-linecap:round; stroke-linejoin:round; stroke-width:4; stroke-opacity:1; fill:none" points="479.087,344.19 497.985,344.19 "/>
<path clip-path="url(#clip900)" d="M333.915 1223.56 Q329.401 1223.56 327.115 1228.02 Q324.858 1232.44 324.858 1241.35 Q324.858 1250.24 327.115 1254.69 Q329.401 1259.12 333.915 1259.12 Q338.458 1259.12 340.715 1254.69 Q343.001 1250.24 343.001 1241.35 Q343.001 1232.44 340.715 1228.02 Q338.458 1223.56 333.915 1223.56 M333.915 1218.93 Q341.178 1218.93 344.997 1224.69 Q348.846 1230.42 348.846 1241.35 Q348.846 1252.26 344.997 1258.02 Q341.178 1263.75 333.915 1263.75 Q326.652 1263.75 322.804 1258.02 Q318.985 1252.26 318.985 1241.35 Q318.985 1230.42 322.804 1224.69 Q326.652 1218.93 333.915 1218.93 Z" fill="#000000" fill-rule="nonzero" fill-opacity="1" /><path clip-path="url(#clip900)" d="M359.117 1255.56 L365.223 1255.56 L365.223 1262.91 L359.117 1262.91 L359.117 1255.56 Z" fill="#000000" fill-rule="nonzero" fill-opacity="1" /><path clip-path="url(#clip900)" d="M390.454 1223.56 Q385.94 1223.56 383.654 1228.02 Q381.397 1232.44 381.397 1241.35 Q381.397 1250.24 383.654 1254.69 Q385.94 1259.12 390.454 1259.12 Q394.997 1259.12 397.254 1254.69 Q399.54 1250.24 399.54 1241.35 Q399.54 1232.44 397.254 1228.02 Q394.997 1223.56 390.454 1223.56 M390.454 1218.93 Q397.717 1218.93 401.536 1224.69 Q405.385 1230.42 405.385 1241.35 Q405.385 1252.26 401.536 1258.02 Q397.717 1263.75 390.454 1263.75 Q383.191 1263.75 379.343 1258.02 Q375.524 1252.26 375.524 1241.35 Q375.524 1230.42 379.343 1224.69 Q383.191 1218.93 390.454 1218.93 Z" fill="#000000" fill-rule="nonzero" fill-opacity="1" /><path clip-path="url(#clip900)" d="M428.156 1223.56 Q423.643 1223.56 421.357 1228.02 Q419.1 1232.44 419.1 1241.35 Q419.1 1250.24 421.357 1254.69 Q423.643 1259.12 428.156 1259.12 Q432.699 1259.12 434.956 1254.69 Q437.242 1250.24 437.242 1241.35 Q437.242 1232.44 434.956 1228.02 Q432.699 1223.56 428.156 1223.56 M428.156 1218.93 Q435.419 1218.93 439.239 1224.69 Q443.087 1230.42 443.087 1241.35 Q443.087 1252.26 439.239 1258.02 Q435.419 1263.75 428.156 1263.75 Q420.894 1263.75 417.045 1258.02 Q413.226 1252.26 413.226 1241.35 Q413.226 1230.42 417.045 1224.69 Q420.894 1218.93 428.156 1218.93 Z" fill="#000000" fill-rule="nonzero" fill-opacity="1" /><path clip-path="url(#clip900)" d="M335.159 1044.14 Q330.645 1044.14 328.36 1048.59 Q326.103 1053.02 326.103 1061.93 Q326.103 1070.81 328.36 1075.27 Q330.645 1079.7 335.159 1079.7 Q339.702 1079.7 341.959 1075.27 Q344.245 1070.81 344.245 1061.93 Q344.245 1053.02 341.959 1048.59 Q339.702 1044.14 335.159 1044.14 M335.159 1039.51 Q342.422 1039.51 346.241 1045.26 Q350.09 1050.99 350.09 1061.93 Q350.09 1072.84 346.241 1078.6 Q342.422 1084.33 335.159 1084.33 Q327.897 1084.33 324.048 1078.6 Q320.229 1072.84 320.229 1061.93 Q320.229 1050.99 324.048 1045.26 Q327.897 1039.51 335.159 1039.51 Z" fill="#000000" fill-rule="nonzero" fill-opacity="1" /><path clip-path="url(#clip900)" d="M360.362 1076.14 L366.467 1076.14 L366.467 1083.49 L360.362 1083.49 L360.362 1076.14 Z" fill="#000000" fill-rule="nonzero" fill-opacity="1" /><path clip-path="url(#clip900)" d="M391.698 1044.14 Q387.184 1044.14 384.899 1048.59 Q382.642 1053.02 382.642 1061.93 Q382.642 1070.81 384.899 1075.27 Q387.184 1079.7 391.698 1079.7 Q396.241 1079.7 398.498 1075.27 Q400.784 1070.81 400.784 1061.93 Q400.784 1053.02 398.498 1048.59 Q396.241 1044.14 391.698 1044.14 M391.698 1039.51 Q398.961 1039.51 402.78 1045.26 Q406.629 1050.99 406.629 1061.93 Q406.629 1072.84 402.78 1078.6 Q398.961 1084.33 391.698 1084.33 Q384.436 1084.33 380.587 1078.6 Q376.768 1072.84 376.768 1061.93 Q376.768 1050.99 380.587 1045.26 Q384.436 1039.51 391.698 1039.51 Z" fill="#000000" fill-rule="nonzero" fill-opacity="1" /><path clip-path="url(#clip900)" d="M416.959 1040.29 L439.904 1040.29 L439.904 1045.21 L422.312 1045.21 L422.312 1055.8 Q423.585 1055.36 424.858 1055.16 Q426.131 1054.93 427.404 1054.93 Q434.638 1054.93 438.862 1058.89 Q443.087 1062.86 443.087 1069.63 Q443.087 1076.6 438.747 1080.48 Q434.406 1084.33 426.507 1084.33 Q423.787 1084.33 420.952 1083.86 Q418.145 1083.4 415.136 1082.47 L415.136 1076.6 Q417.74 1078.02 420.518 1078.71 Q423.295 1079.41 426.391 1079.41 Q431.397 1079.41 434.32 1076.77 Q437.242 1074.14 437.242 1069.63 Q437.242 1065.11 434.32 1062.48 Q431.397 1059.85 426.391 1059.85 Q424.048 1059.85 421.704 1060.37 Q419.389 1060.89 416.959 1061.99 L416.959 1040.29 Z" fill="#000000" fill-rule="nonzero" fill-opacity="1" /><path clip-path="url(#clip900)" d="M333.915 864.711 Q329.401 864.711 327.115 869.167 Q324.858 873.594 324.858 882.506 Q324.858 891.389 327.115 895.845 Q329.401 900.272 333.915 900.272 Q338.458 900.272 340.715 895.845 Q343.001 891.389 343.001 882.506 Q343.001 873.594 340.715 869.167 Q338.458 864.711 333.915 864.711 M333.915 860.081 Q341.178 860.081 344.997 865.84 Q348.846 871.569 348.846 882.506 Q348.846 893.415 344.997 899.173 Q341.178 904.902 333.915 904.902 Q326.652 904.902 322.804 899.173 Q318.985 893.415 318.985 882.506 Q318.985 871.569 322.804 865.84 Q326.652 860.081 333.915 860.081 Z" fill="#000000" fill-rule="nonzero" fill-opacity="1" /><path clip-path="url(#clip900)" d="M359.117 896.713 L365.223 896.713 L365.223 904.063 L359.117 904.063 L359.117 896.713 Z" fill="#000000" fill-rule="nonzero" fill-opacity="1" /><path clip-path="url(#clip900)" d="M378.967 899.144 L388.515 899.144 L388.515 866.187 L378.128 868.27 L378.128 862.946 L388.458 860.863 L394.302 860.863 L394.302 899.144 L403.851 899.144 L403.851 904.063 L378.967 904.063 L378.967 899.144 Z" fill="#000000" fill-rule="nonzero" fill-opacity="1" /><path clip-path="url(#clip900)" d="M428.156 864.711 Q423.643 864.711 421.357 869.167 Q419.1 873.594 419.1 882.506 Q419.1 891.389 421.357 895.845 Q423.643 900.272 428.156 900.272 Q432.699 900.272 434.956 895.845 Q437.242 891.389 437.242 882.506 Q437.242 873.594 434.956 869.167 Q432.699 864.711 428.156 864.711 M428.156 860.081 Q435.419 860.081 439.239 865.84 Q443.087 871.569 443.087 882.506 Q443.087 893.415 439.239 899.173 Q435.419 904.902 428.156 904.902 Q420.894 904.902 417.045 899.173 Q413.226 893.415 413.226 882.506 Q413.226 871.569 417.045 865.84 Q420.894 860.081 428.156 860.081 Z" fill="#000000" fill-rule="nonzero" fill-opacity="1" /><path clip-path="url(#clip900)" d="M335.159 685.287 Q330.645 685.287 328.36 689.743 Q326.103 694.17 326.103 703.082 Q326.103 711.965 328.36 716.421 Q330.645 720.848 335.159 720.848 Q339.702 720.848 341.959 716.421 Q344.245 711.965 344.245 703.082 Q344.245 694.17 341.959 689.743 Q339.702 685.287 335.159 685.287 M335.159 680.657 Q342.422 680.657 346.241 686.415 Q350.09 692.144 350.09 703.082 Q350.09 713.99 346.241 719.748 Q342.422 725.477 335.159 725.477 Q327.897 725.477 324.048 719.748 Q320.229 713.99 320.229 703.082 Q320.229 692.144 324.048 686.415 Q327.897 680.657 335.159 680.657 Z" fill="#000000" fill-rule="nonzero" fill-opacity="1" /><path clip-path="url(#clip900)" d="M360.362 717.289 L366.467 717.289 L366.467 724.638 L360.362 724.638 L360.362 717.289 Z" fill="#000000" fill-rule="nonzero" fill-opacity="1" /><path clip-path="url(#clip900)" d="M380.211 719.719 L389.76 719.719 L389.76 686.762 L379.372 688.846 L379.372 683.522 L389.702 681.438 L395.547 681.438 L395.547 719.719 L405.095 719.719 L405.095 724.638 L380.211 724.638 L380.211 719.719 Z" fill="#000000" fill-rule="nonzero" fill-opacity="1" /><path clip-path="url(#clip900)" d="M416.959 681.438 L439.904 681.438 L439.904 686.357 L422.312 686.357 L422.312 696.948 Q423.585 696.514 424.858 696.311 Q426.131 696.079 427.404 696.079 Q434.638 696.079 438.862 700.044 Q443.087 704.008 443.087 710.778 Q443.087 717.752 438.747 721.629 Q434.406 725.477 426.507 725.477 Q423.787 725.477 420.952 725.015 Q418.145 724.552 415.136 723.626 L415.136 717.752 Q417.74 719.17 420.518 719.864 Q423.295 720.559 426.391 720.559 Q431.397 720.559 434.32 717.925 Q437.242 715.292 437.242 710.778 Q437.242 706.265 434.32 703.632 Q431.397 700.998 426.391 700.998 Q424.048 700.998 421.704 701.519 Q419.389 702.04 416.959 703.14 L416.959 681.438 Z" fill="#000000" fill-rule="nonzero" fill-opacity="1" /><path clip-path="url(#clip900)" d="M333.915 505.862 Q329.401 505.862 327.115 510.318 Q324.858 514.745 324.858 523.657 Q324.858 532.54 327.115 536.996 Q329.401 541.423 333.915 541.423 Q338.458 541.423 340.715 536.996 Q343.001 532.54 343.001 523.657 Q343.001 514.745 340.715 510.318 Q338.458 505.862 333.915 505.862 M333.915 501.233 Q341.178 501.233 344.997 506.991 Q348.846 512.72 348.846 523.657 Q348.846 534.566 344.997 540.324 Q341.178 546.053 333.915 546.053 Q326.652 546.053 322.804 540.324 Q318.985 534.566 318.985 523.657 Q318.985 512.72 322.804 506.991 Q326.652 501.233 333.915 501.233 Z" fill="#000000" fill-rule="nonzero" fill-opacity="1" /><path clip-path="url(#clip900)" d="M359.117 537.864 L365.223 537.864 L365.223 545.214 L359.117 545.214 L359.117 537.864 Z" fill="#000000" fill-rule="nonzero" fill-opacity="1" /><path clip-path="url(#clip900)" d="M382.989 540.295 L403.388 540.295 L403.388 545.214 L375.958 545.214 L375.958 540.295 Q379.285 536.852 385.014 531.065 Q390.772 525.249 392.248 523.571 Q395.055 520.417 396.154 518.247 Q397.283 516.047 397.283 513.935 Q397.283 510.492 394.852 508.322 Q392.451 506.152 388.573 506.152 Q385.824 506.152 382.757 507.107 Q379.719 508.061 376.247 510 L376.247 504.097 Q379.777 502.679 382.844 501.956 Q385.911 501.233 388.458 501.233 Q395.171 501.233 399.164 504.589 Q403.157 507.946 403.157 513.559 Q403.157 516.221 402.144 518.623 Q401.16 520.995 398.527 524.236 Q397.804 525.075 393.926 529.097 Q390.049 533.09 382.989 540.295 Z" fill="#000000" fill-rule="nonzero" fill-opacity="1" /><path clip-path="url(#clip900)" d="M428.156 505.862 Q423.643 505.862 421.357 510.318 Q419.1 514.745 419.1 523.657 Q419.1 532.54 421.357 536.996 Q423.643 541.423 428.156 541.423 Q432.699 541.423 434.956 536.996 Q437.242 532.54 437.242 523.657 Q437.242 514.745 434.956 510.318 Q432.699 505.862 428.156 505.862 M428.156 501.233 Q435.419 501.233 439.239 506.991 Q443.087 512.72 443.087 523.657 Q443.087 534.566 439.239 540.324 Q435.419 546.053 428.156 546.053 Q420.894 546.053 417.045 540.324 Q413.226 534.566 413.226 523.657 Q413.226 512.72 417.045 506.991 Q420.894 501.233 428.156 501.233 Z" fill="#000000" fill-rule="nonzero" fill-opacity="1" /><path clip-path="url(#clip900)" d="M335.159 326.438 Q330.645 326.438 328.36 330.894 Q326.103 335.321 326.103 344.233 Q326.103 353.116 328.36 357.572 Q330.645 361.999 335.159 361.999 Q339.702 361.999 341.959 357.572 Q344.245 353.116 344.245 344.233 Q344.245 335.321 341.959 330.894 Q339.702 326.438 335.159 326.438 M335.159 321.808 Q342.422 321.808 346.241 327.566 Q350.09 333.296 350.09 344.233 Q350.09 355.142 346.241 360.9 Q342.422 366.629 335.159 366.629 Q327.897 366.629 324.048 360.9 Q320.229 355.142 320.229 344.233 Q320.229 333.296 324.048 327.566 Q327.897 321.808 335.159 321.808 Z" fill="#000000" fill-rule="nonzero" fill-opacity="1" /><path clip-path="url(#clip900)" d="M360.362 358.44 L366.467 358.44 L366.467 365.79 L360.362 365.79 L360.362 358.44 Z" fill="#000000" fill-rule="nonzero" fill-opacity="1" /><path clip-path="url(#clip900)" d="M384.233 360.871 L404.632 360.871 L404.632 365.79 L377.202 365.79 L377.202 360.871 Q380.529 357.427 386.259 351.64 Q392.017 345.824 393.492 344.146 Q396.299 340.992 397.398 338.822 Q398.527 336.623 398.527 334.511 Q398.527 331.068 396.096 328.897 Q393.695 326.727 389.818 326.727 Q387.069 326.727 384.002 327.682 Q380.963 328.637 377.491 330.576 L377.491 324.673 Q381.021 323.255 384.088 322.532 Q387.155 321.808 389.702 321.808 Q396.415 321.808 400.408 325.165 Q404.401 328.521 404.401 334.135 Q404.401 336.797 403.388 339.198 Q402.404 341.571 399.771 344.812 Q399.048 345.651 395.171 349.673 Q391.293 353.666 384.233 360.871 Z" fill="#000000" fill-rule="nonzero" fill-opacity="1" /><path clip-path="url(#clip900)" d="M416.959 322.59 L439.904 322.59 L439.904 327.509 L422.312 327.509 L422.312 338.099 Q423.585 337.665 424.858 337.462 Q426.131 337.231 427.404 337.231 Q434.638 337.231 438.862 341.195 Q443.087 345.159 443.087 351.93 Q443.087 358.903 438.747 362.78 Q434.406 366.629 426.507 366.629 Q423.787 366.629 420.952 366.166 Q418.145 365.703 415.136 364.777 L415.136 358.903 Q417.74 360.321 420.518 361.015 Q423.295 361.71 426.391 361.71 Q431.397 361.71 434.32 359.077 Q437.242 356.444 437.242 351.93 Q437.242 347.416 434.32 344.783 Q431.397 342.15 426.391 342.15 Q424.048 342.15 421.704 342.671 Q419.389 343.191 416.959 344.291 L416.959 322.59 Z" fill="#000000" fill-rule="nonzero" fill-opacity="1" /><path clip-path="url(#clip900)" d="M222.768 1106.19 L229.038 1106.19 Q227.288 1109.85 226.428 1113.1 Q225.569 1116.35 225.569 1119.37 Q225.569 1124.62 227.606 1127.49 Q229.643 1130.32 233.399 1130.32 Q236.55 1130.32 238.173 1128.44 Q239.765 1126.53 240.751 1121.25 L241.547 1117.36 Q242.916 1110.17 246.385 1106.77 Q249.822 1103.33 255.615 1103.33 Q262.522 1103.33 266.087 1107.98 Q269.652 1112.59 269.652 1121.53 Q269.652 1124.91 268.888 1128.73 Q268.124 1132.51 266.628 1136.59 L260.008 1136.59 Q262.204 1132.67 263.318 1128.92 Q264.432 1125.16 264.432 1121.53 Q264.432 1116.03 262.267 1113.04 Q260.103 1110.04 256.093 1110.04 Q252.592 1110.04 250.618 1112.21 Q248.645 1114.34 247.658 1119.24 L246.894 1123.16 Q245.462 1130.35 242.406 1133.57 Q239.351 1136.78 233.908 1136.78 Q227.606 1136.78 223.978 1132.36 Q220.349 1127.9 220.349 1120.1 Q220.349 1116.76 220.954 1113.29 Q221.559 1109.82 222.768 1106.19 Z" fill="#000000" fill-rule="nonzero" fill-opacity="1" /><path clip-path="url(#clip900)" d="M222.959 1087.76 L233.081 1087.76 L233.081 1075.7 L237.632 1075.7 L237.632 1087.76 L256.984 1087.76 Q261.344 1087.76 262.586 1086.59 Q263.827 1085.38 263.827 1081.72 L263.827 1075.7 L268.729 1075.7 L268.729 1081.72 Q268.729 1088.5 266.214 1091.07 Q263.668 1093.65 256.984 1093.65 L237.632 1093.65 L237.632 1097.95 L233.081 1097.95 L233.081 1093.65 L222.959 1093.65 L222.959 1087.76 Z" fill="#000000" fill-rule="nonzero" fill-opacity="1" /><path clip-path="url(#clip900)" d="M250.809 1051.8 Q250.809 1058.9 252.432 1061.63 Q254.056 1064.37 257.971 1064.37 Q261.09 1064.37 262.936 1062.33 Q264.75 1060.26 264.75 1056.73 Q264.75 1051.86 261.313 1048.93 Q257.843 1045.97 252.114 1045.97 L250.809 1045.97 L250.809 1051.8 M248.39 1040.12 L268.729 1040.12 L268.729 1045.97 L263.318 1045.97 Q266.564 1047.98 268.124 1050.97 Q269.652 1053.96 269.652 1058.29 Q269.652 1063.77 266.596 1067.01 Q263.509 1070.23 258.352 1070.23 Q252.337 1070.23 249.281 1066.22 Q246.226 1062.17 246.226 1054.18 L246.226 1045.97 L245.653 1045.97 Q241.611 1045.97 239.414 1048.65 Q237.186 1051.29 237.186 1056.09 Q237.186 1059.15 237.919 1062.05 Q238.651 1064.94 240.115 1067.62 L234.704 1067.62 Q233.463 1064.4 232.858 1061.38 Q232.221 1058.35 232.221 1055.49 Q232.221 1047.76 236.232 1043.94 Q240.242 1040.12 248.39 1040.12 Z" fill="#000000" fill-rule="nonzero" fill-opacity="1" /><path clip-path="url(#clip900)" d="M222.959 1022.26 L233.081 1022.26 L233.081 1010.2 L237.632 1010.2 L237.632 1022.26 L256.984 1022.26 Q261.344 1022.26 262.586 1021.08 Q263.827 1019.87 263.827 1016.21 L263.827 1010.2 L268.729 1010.2 L268.729 1016.21 Q268.729 1022.99 266.214 1025.57 Q263.668 1028.15 256.984 1028.15 L237.632 1028.15 L237.632 1032.45 L233.081 1032.45 L233.081 1028.15 L222.959 1028.15 L222.959 1022.26 Z" fill="#000000" fill-rule="nonzero" fill-opacity="1" /><path clip-path="url(#clip900)" d="M233.081 1002.5 L233.081 996.639 L268.729 996.639 L268.729 1002.5 L233.081 1002.5 M219.203 1002.5 L219.203 996.639 L226.619 996.639 L226.619 1002.5 L219.203 1002.5 Z" fill="#000000" fill-rule="nonzero" fill-opacity="1" /><path clip-path="url(#clip900)" d="M237.186 970.571 Q237.186 975.282 240.879 978.019 Q244.539 980.756 250.936 980.756 Q257.334 980.756 261.026 978.051 Q264.686 975.314 264.686 970.571 Q264.686 965.893 260.994 963.155 Q257.302 960.418 250.936 960.418 Q244.603 960.418 240.91 963.155 Q237.186 965.893 237.186 970.571 M232.221 970.571 Q232.221 962.932 237.186 958.572 Q242.152 954.211 250.936 954.211 Q259.689 954.211 264.686 958.572 Q269.652 962.932 269.652 970.571 Q269.652 978.242 264.686 982.603 Q259.689 986.931 250.936 986.931 Q242.152 986.931 237.186 982.603 Q232.221 978.242 232.221 970.571 Z" fill="#000000" fill-rule="nonzero" fill-opacity="1" /><path clip-path="url(#clip900)" d="M247.212 914.871 L268.729 914.871 L268.729 920.728 L247.403 920.728 Q242.343 920.728 239.828 922.701 Q237.314 924.675 237.314 928.621 Q237.314 933.364 240.338 936.101 Q243.361 938.838 248.581 938.838 L268.729 938.838 L268.729 944.727 L233.081 944.727 L233.081 938.838 L238.619 938.838 Q235.404 936.738 233.813 933.905 Q232.221 931.04 232.221 927.316 Q232.221 921.173 236.041 918.022 Q239.828 914.871 247.212 914.871 Z" fill="#000000" fill-rule="nonzero" fill-opacity="1" /><path clip-path="url(#clip900)" d="M250.809 886.99 Q250.809 894.087 252.432 896.825 Q254.056 899.562 257.971 899.562 Q261.09 899.562 262.936 897.525 Q264.75 895.456 264.75 891.923 Q264.75 887.053 261.313 884.125 Q257.843 881.165 252.114 881.165 L250.809 881.165 L250.809 886.99 M248.39 875.309 L268.729 875.309 L268.729 881.165 L263.318 881.165 Q266.564 883.17 268.124 886.162 Q269.652 889.154 269.652 893.483 Q269.652 898.957 266.596 902.204 Q263.509 905.418 258.352 905.418 Q252.337 905.418 249.281 901.408 Q246.226 897.366 246.226 889.377 L246.226 881.165 L245.653 881.165 Q241.611 881.165 239.414 883.839 Q237.186 886.48 237.186 891.286 Q237.186 894.342 237.919 897.238 Q238.651 900.135 240.115 902.808 L234.704 902.808 Q233.463 899.594 232.858 896.57 Q232.221 893.546 232.221 890.682 Q232.221 882.947 236.232 879.128 Q240.242 875.309 248.39 875.309 Z" fill="#000000" fill-rule="nonzero" fill-opacity="1" /><path clip-path="url(#clip900)" d="M238.555 842.589 Q237.982 843.575 237.728 844.753 Q237.441 845.899 237.441 847.299 Q237.441 852.265 240.688 854.938 Q243.902 857.58 249.95 857.58 L268.729 857.58 L268.729 863.468 L233.081 863.468 L233.081 857.58 L238.619 857.58 Q235.372 855.734 233.813 852.774 Q232.221 849.814 232.221 845.581 Q232.221 844.976 232.317 844.244 Q232.38 843.512 232.54 842.621 L238.555 842.589 Z" fill="#000000" fill-rule="nonzero" fill-opacity="1" /><path clip-path="url(#clip900)" d="M272.039 821.614 Q278.404 824.096 280.346 826.452 Q282.288 828.807 282.288 832.754 L282.288 837.433 L277.386 837.433 L277.386 833.995 Q277.386 831.576 276.24 830.239 Q275.094 828.903 270.829 827.279 L268.156 826.229 L233.081 840.647 L233.081 834.441 L260.962 823.301 L233.081 812.161 L233.081 805.954 L272.039 821.614 Z" fill="#000000" fill-rule="nonzero" fill-opacity="1" /><path clip-path="url(#clip900)" d="M263.381 771.484 L282.288 771.484 L282.288 777.372 L233.081 777.372 L233.081 771.484 L238.491 771.484 Q235.309 769.638 233.781 766.837 Q232.221 764.004 232.221 760.089 Q232.221 753.596 237.377 749.554 Q242.534 745.48 250.936 745.48 Q259.339 745.48 264.495 749.554 Q269.652 753.596 269.652 760.089 Q269.652 764.004 268.124 766.837 Q266.564 769.638 263.381 771.484 M250.936 751.559 Q244.475 751.559 240.815 754.233 Q237.123 756.875 237.123 761.522 Q237.123 766.168 240.815 768.842 Q244.475 771.484 250.936 771.484 Q257.398 771.484 261.09 768.842 Q264.75 766.168 264.75 761.522 Q264.75 756.875 261.09 754.233 Q257.398 751.559 250.936 751.559 Z" fill="#000000" fill-rule="nonzero" fill-opacity="1" /><path clip-path="url(#clip900)" d="M238.555 715.116 Q237.982 716.102 237.728 717.28 Q237.441 718.426 237.441 719.826 Q237.441 724.791 240.688 727.465 Q243.902 730.107 249.95 730.107 L268.729 730.107 L268.729 735.995 L233.081 735.995 L233.081 730.107 L238.619 730.107 Q235.372 728.261 233.813 725.301 Q232.221 722.341 232.221 718.107 Q232.221 717.503 232.317 716.771 Q232.38 716.039 232.54 715.147 L238.555 715.116 Z" fill="#000000" fill-rule="nonzero" fill-opacity="1" /><path clip-path="url(#clip900)" d="M237.186 696.591 Q237.186 701.302 240.879 704.039 Q244.539 706.776 250.936 706.776 Q257.334 706.776 261.026 704.071 Q264.686 701.334 264.686 696.591 Q264.686 691.913 260.994 689.175 Q257.302 686.438 250.936 686.438 Q244.603 686.438 240.91 689.175 Q237.186 691.913 237.186 696.591 M232.221 696.591 Q232.221 688.952 237.186 684.592 Q242.152 680.231 250.936 680.231 Q259.689 680.231 264.686 684.592 Q269.652 688.952 269.652 696.591 Q269.652 704.262 264.686 708.622 Q259.689 712.951 250.936 712.951 Q242.152 712.951 237.186 708.622 Q232.221 704.262 232.221 696.591 Z" fill="#000000" fill-rule="nonzero" fill-opacity="1" /><path clip-path="url(#clip900)" d="M250.936 644.934 Q244.475 644.934 240.815 647.607 Q237.123 650.249 237.123 654.896 Q237.123 659.543 240.815 662.216 Q244.475 664.858 250.936 664.858 Q257.398 664.858 261.09 662.216 Q264.75 659.543 264.75 654.896 Q264.75 650.249 261.09 647.607 Q257.398 644.934 250.936 644.934 M238.491 664.858 Q235.309 663.012 233.781 660.211 Q232.221 657.379 232.221 653.464 Q232.221 646.971 237.377 642.928 Q242.534 638.854 250.936 638.854 Q259.339 638.854 264.495 642.928 Q269.652 646.971 269.652 653.464 Q269.652 657.379 268.124 660.211 Q266.564 663.012 263.381 664.858 L268.729 664.858 L268.729 670.747 L219.203 670.747 L219.203 664.858 L238.491 664.858 Z" fill="#000000" fill-rule="nonzero" fill-opacity="1" /><path clip-path="url(#clip900)" d="M250.809 612.946 Q250.809 620.044 252.432 622.781 Q254.056 625.518 257.971 625.518 Q261.09 625.518 262.936 623.481 Q264.75 621.412 264.75 617.879 Q264.75 613.01 261.313 610.081 Q257.843 607.121 252.114 607.121 L250.809 607.121 L250.809 612.946 M248.39 601.265 L268.729 601.265 L268.729 607.121 L263.318 607.121 Q266.564 609.126 268.124 612.118 Q269.652 615.11 269.652 619.439 Q269.652 624.913 266.596 628.16 Q263.509 631.375 258.352 631.375 Q252.337 631.375 249.281 627.364 Q246.226 623.322 246.226 615.333 L246.226 607.121 L245.653 607.121 Q241.611 607.121 239.414 609.795 Q237.186 612.437 237.186 617.243 Q237.186 620.298 237.919 623.195 Q238.651 626.091 240.115 628.765 L234.704 628.765 Q233.463 625.55 232.858 622.526 Q232.221 619.503 232.221 616.638 Q232.221 608.904 236.232 605.084 Q240.242 601.265 248.39 601.265 Z" fill="#000000" fill-rule="nonzero" fill-opacity="1" /><path clip-path="url(#clip900)" d="M250.936 563.612 Q244.475 563.612 240.815 566.285 Q237.123 568.927 237.123 573.574 Q237.123 578.221 240.815 580.895 Q244.475 583.536 250.936 583.536 Q257.398 583.536 261.09 580.895 Q264.75 578.221 264.75 573.574 Q264.75 568.927 261.09 566.285 Q257.398 563.612 250.936 563.612 M238.491 583.536 Q235.309 581.69 233.781 578.889 Q232.221 576.057 232.221 572.142 Q232.221 565.649 237.377 561.606 Q242.534 557.532 250.936 557.532 Q259.339 557.532 264.495 561.606 Q269.652 565.649 269.652 572.142 Q269.652 576.057 268.124 578.889 Q266.564 581.69 263.381 583.536 L268.729 583.536 L268.729 589.425 L219.203 589.425 L219.203 583.536 L238.491 583.536 Z" fill="#000000" fill-rule="nonzero" fill-opacity="1" /><path clip-path="url(#clip900)" d="M233.081 547.825 L233.081 541.968 L268.729 541.968 L268.729 547.825 L233.081 547.825 M219.203 547.825 L219.203 541.968 L226.619 541.968 L226.619 547.825 L219.203 547.825 Z" fill="#000000" fill-rule="nonzero" fill-opacity="1" /><path clip-path="url(#clip900)" d="M219.203 529.714 L219.203 523.858 L268.729 523.858 L268.729 529.714 L219.203 529.714 Z" fill="#000000" fill-rule="nonzero" fill-opacity="1" /><path clip-path="url(#clip900)" d="M233.081 511.604 L233.081 505.747 L268.729 505.747 L268.729 511.604 L233.081 511.604 M219.203 511.604 L219.203 505.747 L226.619 505.747 L226.619 511.604 L219.203 511.604 Z" fill="#000000" fill-rule="nonzero" fill-opacity="1" /><path clip-path="url(#clip900)" d="M222.959 487.701 L233.081 487.701 L233.081 475.638 L237.632 475.638 L237.632 487.701 L256.984 487.701 Q261.344 487.701 262.586 486.523 Q263.827 485.314 263.827 481.653 L263.827 475.638 L268.729 475.638 L268.729 481.653 Q268.729 488.433 266.214 491.011 Q263.668 493.589 256.984 493.589 L237.632 493.589 L237.632 497.886 L233.081 497.886 L233.081 493.589 L222.959 493.589 L222.959 487.701 Z" fill="#000000" fill-rule="nonzero" fill-opacity="1" /><path clip-path="url(#clip900)" d="M272.039 453.103 Q278.404 455.586 280.346 457.941 Q282.288 460.296 282.288 464.243 L282.288 468.922 L277.386 468.922 L277.386 465.484 Q277.386 463.065 276.24 461.729 Q275.094 460.392 270.829 458.769 L268.156 457.718 L233.081 472.136 L233.081 465.93 L260.962 454.79 L233.081 443.65 L233.081 437.443 L272.039 453.103 Z" fill="#000000" fill-rule="nonzero" fill-opacity="1" /><path clip-path="url(#clip900)" d="M263.381 402.973 L282.288 402.973 L282.288 408.861 L233.081 408.861 L233.081 402.973 L238.491 402.973 Q235.309 401.127 233.781 398.326 Q232.221 395.493 232.221 391.578 Q232.221 385.085 237.377 381.043 Q242.534 376.969 250.936 376.969 Q259.339 376.969 264.495 381.043 Q269.652 385.085 269.652 391.578 Q269.652 395.493 268.124 398.326 Q266.564 401.127 263.381 402.973 M250.936 383.048 Q244.475 383.048 240.815 385.722 Q237.123 388.364 237.123 393.011 Q237.123 397.658 240.815 400.331 Q244.475 402.973 250.936 402.973 Q257.398 402.973 261.09 400.331 Q264.75 397.658 264.75 393.011 Q264.75 388.364 261.09 385.722 Q257.398 383.048 250.936 383.048 Z" fill="#000000" fill-rule="nonzero" fill-opacity="1" /><path clip-path="url(#clip900)" d="M233.081 367.261 L233.081 361.405 L268.729 361.405 L268.729 367.261 L233.081 367.261 M219.203 367.261 L219.203 361.405 L226.619 361.405 L226.619 367.261 L219.203 367.261 Z" fill="#000000" fill-rule="nonzero" fill-opacity="1" /><path clip-path="url(#clip900)" d="M279.55 322.065 L284.102 322.065 L284.102 355.931 L279.55 355.931 L279.55 322.065 Z" fill="#000000" fill-rule="nonzero" fill-opacity="1" /><path clip-path="url(#clip900)" d="M219.203 316.781 L219.203 310.893 L248.454 310.893 L233.081 293.419 L233.081 285.94 L249.759 304.846 L268.729 285.144 L268.729 292.783 L251.318 310.893 L268.729 310.893 L268.729 316.781 L219.203 316.781 Z" fill="#000000" fill-rule="nonzero" fill-opacity="1" /><path clip-path="url(#clip900)" d="M439.108 9.05203 L439.108 14.1822 Q436.114 12.7499 433.457 12.0468 Q430.801 11.3437 428.327 11.3437 Q424.03 11.3437 421.687 13.0103 Q419.369 14.677 419.369 17.7499 Q419.369 20.328 420.905 21.6561 Q422.468 22.9582 426.791 23.7655 L429.968 24.4165 Q435.853 25.5363 438.64 28.3748 Q441.452 31.1873 441.452 35.9269 Q441.452 41.5779 437.65 44.4946 Q433.874 47.4112 426.556 47.4112 Q423.796 47.4112 420.671 46.7862 Q417.572 46.1612 414.239 44.9373 L414.239 39.5206 Q417.442 41.3175 420.515 42.2289 Q423.588 43.1404 426.556 43.1404 Q431.062 43.1404 433.51 41.3696 Q435.957 39.5987 435.957 36.3175 Q435.957 33.4529 434.187 31.8384 Q432.442 30.2238 428.431 29.4165 L425.228 28.7915 Q419.343 27.6196 416.713 25.1197 Q414.083 22.6197 414.083 18.1666 Q414.083 13.0103 417.702 10.0416 Q421.348 7.07288 427.728 7.07288 Q430.463 7.07288 433.301 7.56767 Q436.14 8.06246 439.108 9.05203 Z" fill="#000000" fill-rule="nonzero" fill-opacity="1" /><path clip-path="url(#clip900)" d="M454.186 9.20828 L454.186 17.4895 L464.056 17.4895 L464.056 21.2134 L454.186 21.2134 L454.186 37.0467 Q454.186 40.6144 455.15 41.63 Q456.14 42.6456 459.134 42.6456 L464.056 42.6456 L464.056 46.656 L459.134 46.656 Q453.588 46.656 451.478 44.5987 Q449.369 42.5154 449.369 37.0467 L449.369 21.2134 L445.853 21.2134 L445.853 17.4895 L449.369 17.4895 L449.369 9.20828 L454.186 9.20828 Z" fill="#000000" fill-rule="nonzero" fill-opacity="1" /><path clip-path="url(#clip900)" d="M483.613 31.9946 Q477.806 31.9946 475.567 33.3227 Q473.327 34.6509 473.327 37.854 Q473.327 40.406 474.994 41.9164 Q476.686 43.4008 479.577 43.4008 Q483.561 43.4008 485.957 40.5883 Q488.379 37.7498 488.379 33.0623 L488.379 31.9946 L483.613 31.9946 M493.171 30.0155 L493.171 46.656 L488.379 46.656 L488.379 42.2289 Q486.738 44.8852 484.29 46.1612 Q481.843 47.4112 478.301 47.4112 Q473.822 47.4112 471.166 44.9112 Q468.535 42.3852 468.535 38.1665 Q468.535 33.2446 471.817 30.7446 Q475.124 28.2446 481.66 28.2446 L488.379 28.2446 L488.379 27.7759 Q488.379 24.4686 486.192 22.6718 Q484.03 20.8488 480.098 20.8488 Q477.598 20.8488 475.228 21.4478 Q472.858 22.0468 470.671 23.2447 L470.671 18.8176 Q473.301 17.802 475.775 17.3072 Q478.249 16.7864 480.593 16.7864 Q486.921 16.7864 490.046 20.0676 Q493.171 23.3488 493.171 30.0155 Z" fill="#000000" fill-rule="nonzero" fill-opacity="1" /><path clip-path="url(#clip900)" d="M507.78 9.20828 L507.78 17.4895 L517.65 17.4895 L517.65 21.2134 L507.78 21.2134 L507.78 37.0467 Q507.78 40.6144 508.743 41.63 Q509.733 42.6456 512.728 42.6456 L517.65 42.6456 L517.65 46.656 L512.728 46.656 Q507.181 46.656 505.072 44.5987 Q502.962 42.5154 502.962 37.0467 L502.962 21.2134 L499.447 21.2134 L499.447 17.4895 L502.962 17.4895 L502.962 9.20828 L507.78 9.20828 Z" fill="#000000" fill-rule="nonzero" fill-opacity="1" /><path clip-path="url(#clip900)" d="M523.952 17.4895 L528.743 17.4895 L528.743 46.656 L523.952 46.656 L523.952 17.4895 M523.952 6.13538 L528.743 6.13538 L528.743 12.2031 L523.952 12.2031 L523.952 6.13538 Z" fill="#000000" fill-rule="nonzero" fill-opacity="1" /><path clip-path="url(#clip900)" d="M550.071 20.8488 Q546.217 20.8488 543.978 23.8697 Q541.738 26.8644 541.738 32.0988 Q541.738 37.3331 543.952 40.354 Q546.191 43.3487 550.071 43.3487 Q553.899 43.3487 556.139 40.3279 Q558.379 37.3071 558.379 32.0988 Q558.379 26.9165 556.139 23.8957 Q553.899 20.8488 550.071 20.8488 M550.071 16.7864 Q556.321 16.7864 559.889 20.8488 Q563.457 24.9113 563.457 32.0988 Q563.457 39.2602 559.889 43.3487 Q556.321 47.4112 550.071 47.4112 Q543.795 47.4112 540.228 43.3487 Q536.686 39.2602 536.686 32.0988 Q536.686 24.9113 540.228 20.8488 Q543.795 16.7864 550.071 16.7864 Z" fill="#000000" fill-rule="nonzero" fill-opacity="1" /><path clip-path="url(#clip900)" d="M595.644 29.0519 L595.644 46.656 L590.852 46.656 L590.852 29.2082 Q590.852 25.0676 589.238 23.0103 Q587.623 20.953 584.394 20.953 Q580.514 20.953 578.274 23.427 Q576.035 25.9009 576.035 30.1717 L576.035 46.656 L571.217 46.656 L571.217 17.4895 L576.035 17.4895 L576.035 22.0207 Q577.754 19.3905 580.071 18.0884 Q582.415 16.7864 585.462 16.7864 Q590.488 16.7864 593.066 19.9114 Q595.644 23.0103 595.644 29.0519 Z" fill="#000000" fill-rule="nonzero" fill-opacity="1" /><path clip-path="url(#clip900)" d="M618.456 31.9946 Q612.649 31.9946 610.41 33.3227 Q608.17 34.6509 608.17 37.854 Q608.17 40.406 609.837 41.9164 Q611.529 43.4008 614.42 43.4008 Q618.404 43.4008 620.8 40.5883 Q623.222 37.7498 623.222 33.0623 L623.222 31.9946 L618.456 31.9946 M628.014 30.0155 L628.014 46.656 L623.222 46.656 L623.222 42.2289 Q621.581 44.8852 619.134 46.1612 Q616.686 47.4112 613.144 47.4112 Q608.665 47.4112 606.009 44.9112 Q603.378 42.3852 603.378 38.1665 Q603.378 33.2446 606.66 30.7446 Q609.967 28.2446 616.503 28.2446 L623.222 28.2446 L623.222 27.7759 Q623.222 24.4686 621.035 22.6718 Q618.873 20.8488 614.941 20.8488 Q612.441 20.8488 610.071 21.4478 Q607.701 22.0468 605.514 23.2447 L605.514 18.8176 Q608.144 17.802 610.618 17.3072 Q613.092 16.7864 615.436 16.7864 Q621.764 16.7864 624.889 20.0676 Q628.014 23.3488 628.014 30.0155 Z" fill="#000000" fill-rule="nonzero" fill-opacity="1" /><path clip-path="url(#clip900)" d="M654.784 21.9686 Q653.977 21.4999 653.014 21.2916 Q652.076 21.0572 650.93 21.0572 Q646.868 21.0572 644.68 23.7134 Q642.519 26.3436 642.519 31.2915 L642.519 46.656 L637.701 46.656 L637.701 17.4895 L642.519 17.4895 L642.519 22.0207 Q644.029 19.3645 646.451 18.0884 Q648.873 16.7864 652.336 16.7864 Q652.831 16.7864 653.43 16.8645 Q654.029 16.9166 654.758 17.0468 L654.784 21.9686 Z" fill="#000000" fill-rule="nonzero" fill-opacity="1" /><path clip-path="url(#clip900)" d="M671.946 49.3643 Q669.914 54.5726 667.987 56.1612 Q666.06 57.7497 662.831 57.7497 L659.003 57.7497 L659.003 53.7393 L661.816 53.7393 Q663.795 53.7393 664.888 52.8018 Q665.982 51.8643 667.31 48.3747 L668.17 46.1873 L656.373 17.4895 L661.451 17.4895 L670.566 40.3019 L679.68 17.4895 L684.758 17.4895 L671.946 49.3643 Z" fill="#000000" fill-rule="nonzero" fill-opacity="1" /><path clip-path="url(#clip900)" d="M727.518 21.9165 L727.518 6.13538 L732.31 6.13538 L732.31 46.656 L727.518 46.656 L727.518 42.281 Q726.008 44.8852 723.69 46.1612 Q721.399 47.4112 718.169 47.4112 Q712.883 47.4112 709.55 43.1925 Q706.242 38.9737 706.242 32.0988 Q706.242 25.2238 709.55 21.0051 Q712.883 16.7864 718.169 16.7864 Q721.399 16.7864 723.69 18.0624 Q726.008 19.3124 727.518 21.9165 M711.19 32.0988 Q711.19 37.3852 713.352 40.406 Q715.539 43.4008 719.341 43.4008 Q723.143 43.4008 725.331 40.406 Q727.518 37.3852 727.518 32.0988 Q727.518 26.8124 725.331 23.8176 Q723.143 20.7968 719.341 20.7968 Q715.539 20.7968 713.352 23.8176 Q711.19 26.8124 711.19 32.0988 Z" fill="#000000" fill-rule="nonzero" fill-opacity="1" /><path clip-path="url(#clip900)" d="M742.18 17.4895 L746.971 17.4895 L746.971 46.656 L742.18 46.656 L742.18 17.4895 M742.18 6.13538 L746.971 6.13538 L746.971 12.2031 L742.18 12.2031 L742.18 6.13538 Z" fill="#000000" fill-rule="nonzero" fill-opacity="1" /><path clip-path="url(#clip900)" d="M775.591 18.3489 L775.591 22.8801 Q773.56 21.8384 771.372 21.3176 Q769.185 20.7968 766.841 20.7968 Q763.273 20.7968 761.477 21.8905 Q759.706 22.9843 759.706 25.1717 Q759.706 26.8384 760.982 27.8019 Q762.258 28.7394 766.112 29.5988 L767.753 29.9634 Q772.857 31.0571 774.992 33.0623 Q777.153 35.0415 777.153 38.6092 Q777.153 42.6716 773.924 45.0414 Q770.721 47.4112 765.096 47.4112 Q762.753 47.4112 760.2 46.9425 Q757.674 46.4998 754.862 45.5883 L754.862 40.6404 Q757.518 42.0206 760.096 42.7237 Q762.674 43.4008 765.2 43.4008 Q768.586 43.4008 770.409 42.255 Q772.232 41.0831 772.232 38.9737 Q772.232 37.0206 770.904 35.979 Q769.601 34.9373 765.148 33.9738 L763.482 33.5832 Q759.029 32.6457 757.049 30.7186 Q755.07 28.7655 755.07 25.3801 Q755.07 21.2655 757.987 19.0259 Q760.904 16.7864 766.268 16.7864 Q768.924 16.7864 771.268 17.177 Q773.612 17.5676 775.591 18.3489 Z" fill="#000000" fill-rule="nonzero" fill-opacity="1" /><path clip-path="url(#clip900)" d="M789.523 9.20828 L789.523 17.4895 L799.393 17.4895 L799.393 21.2134 L789.523 21.2134 L789.523 37.0467 Q789.523 40.6144 790.487 41.63 Q791.476 42.6456 794.471 42.6456 L799.393 42.6456 L799.393 46.656 L794.471 46.656 Q788.924 46.656 786.815 44.5987 Q784.706 42.5154 784.706 37.0467 L784.706 21.2134 L781.19 21.2134 L781.19 17.4895 L784.706 17.4895 L784.706 9.20828 L789.523 9.20828 Z" fill="#000000" fill-rule="nonzero" fill-opacity="1" /><path clip-path="url(#clip900)" d="M822.596 21.9686 Q821.789 21.4999 820.825 21.2916 Q819.888 21.0572 818.742 21.0572 Q814.679 21.0572 812.492 23.7134 Q810.33 26.3436 810.33 31.2915 L810.33 46.656 L805.513 46.656 L805.513 17.4895 L810.33 17.4895 L810.33 22.0207 Q811.841 19.3645 814.263 18.0884 Q816.685 16.7864 820.148 16.7864 Q820.643 16.7864 821.242 16.8645 Q821.841 16.9166 822.57 17.0468 L822.596 21.9686 Z" fill="#000000" fill-rule="nonzero" fill-opacity="1" /><path clip-path="url(#clip900)" d="M827.622 17.4895 L832.414 17.4895 L832.414 46.656 L827.622 46.656 L827.622 17.4895 M827.622 6.13538 L832.414 6.13538 L832.414 12.2031 L827.622 12.2031 L827.622 6.13538 Z" fill="#000000" fill-rule="nonzero" fill-opacity="1" /><path clip-path="url(#clip900)" d="M863.377 32.0988 Q863.377 26.8124 861.19 23.8176 Q859.028 20.7968 855.226 20.7968 Q851.424 20.7968 849.236 23.8176 Q847.075 26.8124 847.075 32.0988 Q847.075 37.3852 849.236 40.406 Q851.424 43.4008 855.226 43.4008 Q859.028 43.4008 861.19 40.406 Q863.377 37.3852 863.377 32.0988 M847.075 21.9165 Q848.585 19.3124 850.877 18.0624 Q853.195 16.7864 856.398 16.7864 Q861.71 16.7864 865.018 21.0051 Q868.351 25.2238 868.351 32.0988 Q868.351 38.9737 865.018 43.1925 Q861.71 47.4112 856.398 47.4112 Q853.195 47.4112 850.877 46.1612 Q848.585 44.8852 847.075 42.281 L847.075 46.656 L842.257 46.656 L842.257 6.13538 L847.075 6.13538 L847.075 21.9165 Z" fill="#000000" fill-rule="nonzero" fill-opacity="1" /><path clip-path="url(#clip900)" d="M875.799 35.1456 L875.799 17.4895 L880.59 17.4895 L880.59 34.9634 Q880.59 39.104 882.205 41.1873 Q883.82 43.2446 887.049 43.2446 Q890.929 43.2446 893.169 40.7706 Q895.434 38.2967 895.434 34.0259 L895.434 17.4895 L900.226 17.4895 L900.226 46.656 L895.434 46.656 L895.434 42.1769 Q893.689 44.8331 891.372 46.1352 Q889.08 47.4112 886.033 47.4112 Q881.007 47.4112 878.403 44.2862 Q875.799 41.1612 875.799 35.1456 M887.856 16.7864 L887.856 16.7864 Z" fill="#000000" fill-rule="nonzero" fill-opacity="1" /><path clip-path="url(#clip900)" d="M914.835 9.20828 L914.835 17.4895 L924.705 17.4895 L924.705 21.2134 L914.835 21.2134 L914.835 37.0467 Q914.835 40.6144 915.799 41.63 Q916.788 42.6456 919.783 42.6456 L924.705 42.6456 L924.705 46.656 L919.783 46.656 Q914.236 46.656 912.127 44.5987 Q910.017 42.5154 910.017 37.0467 L910.017 21.2134 L906.502 21.2134 L906.502 17.4895 L910.017 17.4895 L910.017 9.20828 L914.835 9.20828 Z" fill="#000000" fill-rule="nonzero" fill-opacity="1" /><path clip-path="url(#clip900)" d="M931.007 17.4895 L935.798 17.4895 L935.798 46.656 L931.007 46.656 L931.007 17.4895 M931.007 6.13538 L935.798 6.13538 L935.798 12.2031 L931.007 12.2031 L931.007 6.13538 Z" fill="#000000" fill-rule="nonzero" fill-opacity="1" /><path clip-path="url(#clip900)" d="M957.126 20.8488 Q953.272 20.8488 951.033 23.8697 Q948.793 26.8644 948.793 32.0988 Q948.793 37.3331 951.007 40.354 Q953.246 43.3487 957.126 43.3487 Q960.955 43.3487 963.194 40.3279 Q965.434 37.3071 965.434 32.0988 Q965.434 26.9165 963.194 23.8957 Q960.955 20.8488 957.126 20.8488 M957.126 16.7864 Q963.376 16.7864 966.944 20.8488 Q970.512 24.9113 970.512 32.0988 Q970.512 39.2602 966.944 43.3487 Q963.376 47.4112 957.126 47.4112 Q950.85 47.4112 947.283 43.3487 Q943.741 39.2602 943.741 32.0988 Q943.741 24.9113 947.283 20.8488 Q950.85 16.7864 957.126 16.7864 Z" fill="#000000" fill-rule="nonzero" fill-opacity="1" /><path clip-path="url(#clip900)" d="M1002.7 29.0519 L1002.7 46.656 L997.908 46.656 L997.908 29.2082 Q997.908 25.0676 996.293 23.0103 Q994.678 20.953 991.449 20.953 Q987.569 20.953 985.329 23.427 Q983.09 25.9009 983.09 30.1717 L983.09 46.656 L978.272 46.656 L978.272 17.4895 L983.09 17.4895 L983.09 22.0207 Q984.809 19.3905 987.126 18.0884 Q989.47 16.7864 992.517 16.7864 Q997.543 16.7864 1000.12 19.9114 Q1002.7 23.0103 1002.7 29.0519 Z" fill="#000000" fill-rule="nonzero" fill-opacity="1" /><path clip-path="url(#clip900)" d="M1033.84 42.281 L1033.84 57.7497 L1029.03 57.7497 L1029.03 17.4895 L1033.84 17.4895 L1033.84 21.9165 Q1035.36 19.3124 1037.65 18.0624 Q1039.96 16.7864 1043.17 16.7864 Q1048.48 16.7864 1051.79 21.0051 Q1055.12 25.2238 1055.12 32.0988 Q1055.12 38.9737 1051.79 43.1925 Q1048.48 47.4112 1043.17 47.4112 Q1039.96 47.4112 1037.65 46.1612 Q1035.36 44.8852 1033.84 42.281 M1050.15 32.0988 Q1050.15 26.8124 1047.96 23.8176 Q1045.8 20.7968 1042 20.7968 Q1038.19 20.7968 1036.01 23.8176 Q1033.84 26.8124 1033.84 32.0988 Q1033.84 37.3852 1036.01 40.406 Q1038.19 43.4008 1042 43.4008 Q1045.8 43.4008 1047.96 40.406 Q1050.15 37.3852 1050.15 32.0988 Z" fill="#000000" fill-rule="nonzero" fill-opacity="1" /><path clip-path="url(#clip900)" d="M1063.06 17.4895 L1067.86 17.4895 L1067.86 46.656 L1063.06 46.656 L1063.06 17.4895 M1063.06 6.13538 L1067.86 6.13538 L1067.86 12.2031 L1063.06 12.2031 L1063.06 6.13538 Z" fill="#000000" fill-rule="nonzero" fill-opacity="1" /><path clip-path="url(#clip900)" d="M1106.34 6.18747 Q1102.85 12.177 1101.16 18.0364 Q1099.47 23.8957 1099.47 29.9113 Q1099.47 35.9269 1101.16 41.8383 Q1102.88 47.7237 1106.34 53.6872 L1102.18 53.6872 Q1098.27 47.5675 1096.32 41.656 Q1094.39 35.7446 1094.39 29.9113 Q1094.39 24.104 1096.32 18.2187 Q1098.25 12.3333 1102.18 6.18747 L1106.34 6.18747 Z" fill="#000000" fill-rule="nonzero" fill-opacity="1" /><path clip-path="url(#clip900)" d="M1116.27 22.4374 L1149.65 22.4374 L1149.65 26.8124 L1116.27 26.8124 L1116.27 22.4374 M1116.27 33.0623 L1149.65 33.0623 L1149.65 37.4894 L1116.27 37.4894 L1116.27 33.0623 Z" fill="#000000" fill-rule="nonzero" fill-opacity="1" /><path clip-path="url(#clip900)" d="M1177.28 6.13538 L1182.07 6.13538 L1182.07 46.656 L1177.28 46.656 L1177.28 6.13538 Z" fill="#000000" fill-rule="nonzero" fill-opacity="1" /><path clip-path="url(#clip900)" d="M1217.05 30.8748 L1217.05 33.2186 L1195.02 33.2186 Q1195.33 38.1665 1197.98 40.7706 Q1200.67 43.3487 1205.43 43.3487 Q1208.19 43.3487 1210.77 42.6716 Q1213.38 41.9946 1215.93 40.6404 L1215.93 45.1716 Q1213.35 46.2654 1210.64 46.8383 Q1207.93 47.4112 1205.15 47.4112 Q1198.17 47.4112 1194.08 43.3487 Q1190.02 39.2862 1190.02 32.3592 Q1190.02 25.1978 1193.87 21.0051 Q1197.75 16.7864 1204.31 16.7864 Q1210.2 16.7864 1213.61 20.5884 Q1217.05 24.3645 1217.05 30.8748 M1212.26 29.4686 Q1212.2 25.5363 1210.04 23.1926 Q1207.91 20.8488 1204.36 20.8488 Q1200.35 20.8488 1197.93 23.1145 Q1195.54 25.3801 1195.17 29.4946 L1212.26 29.4686 Z" fill="#000000" fill-rule="nonzero" fill-opacity="1" /><path clip-path="url(#clip900)" d="M1239.68 6.13538 L1239.68 10.1197 L1235.09 10.1197 Q1232.52 10.1197 1231.5 11.1614 Q1230.51 12.2031 1230.51 14.9114 L1230.51 17.4895 L1238.4 17.4895 L1238.4 21.2134 L1230.51 21.2134 L1230.51 46.656 L1225.69 46.656 L1225.69 21.2134 L1221.11 21.2134 L1221.11 17.4895 L1225.69 17.4895 L1225.69 15.4583 Q1225.69 10.5885 1227.96 8.37496 Q1230.22 6.13538 1235.15 6.13538 L1239.68 6.13538 Z" fill="#000000" fill-rule="nonzero" fill-opacity="1" /><path clip-path="url(#clip900)" d="M1247.49 9.20828 L1247.49 17.4895 L1257.36 17.4895 L1257.36 21.2134 L1247.49 21.2134 L1247.49 37.0467 Q1247.49 40.6144 1248.45 41.63 Q1249.44 42.6456 1252.44 42.6456 L1257.36 42.6456 L1257.36 46.656 L1252.44 46.656 Q1246.89 46.656 1244.78 44.5987 Q1242.67 42.5154 1242.67 37.0467 L1242.67 21.2134 L1239.16 21.2134 L1239.16 17.4895 L1242.67 17.4895 L1242.67 9.20828 L1247.49 9.20828 Z" fill="#000000" fill-rule="nonzero" fill-opacity="1" /><path clip-path="url(#clip900)" d="M1305.56 30.8748 L1305.56 33.2186 L1283.53 33.2186 Q1283.84 38.1665 1286.5 40.7706 Q1289.18 43.3487 1293.95 43.3487 Q1296.71 43.3487 1299.29 42.6716 Q1301.89 41.9946 1304.44 40.6404 L1304.44 45.1716 Q1301.86 46.2654 1299.16 46.8383 Q1296.45 47.4112 1293.66 47.4112 Q1286.68 47.4112 1282.59 43.3487 Q1278.53 39.2862 1278.53 32.3592 Q1278.53 25.1978 1282.39 21.0051 Q1286.27 16.7864 1292.83 16.7864 Q1298.71 16.7864 1302.12 20.5884 Q1305.56 24.3645 1305.56 30.8748 M1300.77 29.4686 Q1300.72 25.5363 1298.56 23.1926 Q1296.42 20.8488 1292.88 20.8488 Q1288.87 20.8488 1286.45 23.1145 Q1284.05 25.3801 1283.69 29.4946 L1300.77 29.4686 Z" fill="#000000" fill-rule="nonzero" fill-opacity="1" /><path clip-path="url(#clip900)" d="M1313.43 17.4895 L1318.22 17.4895 L1318.22 46.656 L1313.43 46.656 L1313.43 17.4895 M1313.43 6.13538 L1318.22 6.13538 L1318.22 12.2031 L1313.43 12.2031 L1313.43 6.13538 Z" fill="#000000" fill-rule="nonzero" fill-opacity="1" /><path clip-path="url(#clip900)" d="M1347.44 31.7342 Q1347.44 26.5259 1345.28 23.6613 Q1343.14 20.7968 1339.26 20.7968 Q1335.41 20.7968 1333.24 23.6613 Q1331.11 26.5259 1331.11 31.7342 Q1331.11 36.9165 1333.24 39.781 Q1335.41 42.6456 1339.26 42.6456 Q1343.14 42.6456 1345.28 39.781 Q1347.44 36.9165 1347.44 31.7342 M1352.23 43.0362 Q1352.23 50.4841 1348.92 54.1039 Q1345.61 57.7497 1338.79 57.7497 Q1336.27 57.7497 1334.03 57.3591 Q1331.79 56.9945 1329.68 56.2132 L1329.68 51.5518 Q1331.79 52.6976 1333.84 53.2445 Q1335.9 53.7914 1338.04 53.7914 Q1342.75 53.7914 1345.09 51.3174 Q1347.44 48.8695 1347.44 43.8956 L1347.44 41.5258 Q1345.95 44.1039 1343.63 45.38 Q1341.32 46.656 1338.09 46.656 Q1332.72 46.656 1329.44 42.5675 Q1326.16 38.479 1326.16 31.7342 Q1326.16 24.9634 1329.44 20.8749 Q1332.72 16.7864 1338.09 16.7864 Q1341.32 16.7864 1343.63 18.0624 Q1345.95 19.3384 1347.44 21.9165 L1347.44 17.4895 L1352.23 17.4895 L1352.23 43.0362 Z" fill="#000000" fill-rule="nonzero" fill-opacity="1" /><path clip-path="url(#clip900)" d="M1387.05 30.8748 L1387.05 33.2186 L1365.01 33.2186 Q1365.33 38.1665 1367.98 40.7706 Q1370.67 43.3487 1375.43 43.3487 Q1378.19 43.3487 1380.77 42.6716 Q1383.37 41.9946 1385.93 40.6404 L1385.93 45.1716 Q1383.35 46.2654 1380.64 46.8383 Q1377.93 47.4112 1375.15 47.4112 Q1368.17 47.4112 1364.08 43.3487 Q1360.01 39.2862 1360.01 32.3592 Q1360.01 25.1978 1363.87 21.0051 Q1367.75 16.7864 1374.31 16.7864 Q1380.2 16.7864 1383.61 20.5884 Q1387.05 24.3645 1387.05 30.8748 M1382.25 29.4686 Q1382.2 25.5363 1380.04 23.1926 Q1377.91 20.8488 1374.36 20.8488 Q1370.35 20.8488 1367.93 23.1145 Q1365.54 25.3801 1365.17 29.4946 L1382.25 29.4686 Z" fill="#000000" fill-rule="nonzero" fill-opacity="1" /><path clip-path="url(#clip900)" d="M1419.16 29.0519 L1419.16 46.656 L1414.36 46.656 L1414.36 29.2082 Q1414.36 25.0676 1412.75 23.0103 Q1411.13 20.953 1407.91 20.953 Q1404.03 20.953 1401.79 23.427 Q1399.55 25.9009 1399.55 30.1717 L1399.55 46.656 L1394.73 46.656 L1394.73 17.4895 L1399.55 17.4895 L1399.55 22.0207 Q1401.26 19.3905 1403.58 18.0884 Q1405.93 16.7864 1408.97 16.7864 Q1414 16.7864 1416.58 19.9114 Q1419.16 23.0103 1419.16 29.0519 Z" fill="#000000" fill-rule="nonzero" fill-opacity="1" /><path clip-path="url(#clip900)" d="M1425.28 17.4895 L1430.35 17.4895 L1439.47 41.9685 L1448.58 17.4895 L1453.66 17.4895 L1442.72 46.656 L1436.21 46.656 L1425.28 17.4895 Z" fill="#000000" fill-rule="nonzero" fill-opacity="1" /><path clip-path="url(#clip900)" d="M1485.22 30.8748 L1485.22 33.2186 L1463.19 33.2186 Q1463.5 38.1665 1466.16 40.7706 Q1468.84 43.3487 1473.61 43.3487 Q1476.37 43.3487 1478.95 42.6716 Q1481.55 41.9946 1484.1 40.6404 L1484.1 45.1716 Q1481.52 46.2654 1478.82 46.8383 Q1476.11 47.4112 1473.32 47.4112 Q1466.34 47.4112 1462.25 43.3487 Q1458.19 39.2862 1458.19 32.3592 Q1458.19 25.1978 1462.05 21.0051 Q1465.93 16.7864 1472.49 16.7864 Q1478.37 16.7864 1481.79 20.5884 Q1485.22 24.3645 1485.22 30.8748 M1480.43 29.4686 Q1480.38 25.5363 1478.22 23.1926 Q1476.08 20.8488 1472.54 20.8488 Q1468.53 20.8488 1466.11 23.1145 Q1463.71 25.3801 1463.35 29.4946 L1480.43 29.4686 Z" fill="#000000" fill-rule="nonzero" fill-opacity="1" /><path clip-path="url(#clip900)" d="M1514.08 18.6093 L1514.08 23.0884 Q1512.05 21.9686 1509.99 21.4218 Q1507.96 20.8488 1505.87 20.8488 Q1501.21 20.8488 1498.63 23.8176 Q1496.06 26.7603 1496.06 32.0988 Q1496.06 37.4373 1498.63 40.406 Q1501.21 43.3487 1505.87 43.3487 Q1507.96 43.3487 1509.99 42.8019 Q1512.05 42.2289 1514.08 41.1092 L1514.08 45.5362 Q1512.07 46.4737 1509.91 46.9425 Q1507.77 47.4112 1505.35 47.4112 Q1498.76 47.4112 1494.88 43.2706 Q1491 39.13 1491 32.0988 Q1491 24.9634 1494.91 20.8749 Q1498.84 16.7864 1505.67 16.7864 Q1507.88 16.7864 1509.99 17.2551 Q1512.1 17.6978 1514.08 18.6093 Z" fill="#000000" fill-rule="nonzero" fill-opacity="1" /><path clip-path="url(#clip900)" d="M1527.15 9.20828 L1527.15 17.4895 L1537.02 17.4895 L1537.02 21.2134 L1527.15 21.2134 L1527.15 37.0467 Q1527.15 40.6144 1528.11 41.63 Q1529.1 42.6456 1532.1 42.6456 L1537.02 42.6456 L1537.02 46.656 L1532.1 46.656 Q1526.55 46.656 1524.44 44.5987 Q1522.33 42.5154 1522.33 37.0467 L1522.33 21.2134 L1518.82 21.2134 L1518.82 17.4895 L1522.33 17.4895 L1522.33 9.20828 L1527.15 9.20828 Z" fill="#000000" fill-rule="nonzero" fill-opacity="1" /><path clip-path="url(#clip900)" d="M1554.62 20.8488 Q1550.77 20.8488 1548.53 23.8697 Q1546.29 26.8644 1546.29 32.0988 Q1546.29 37.3331 1548.5 40.354 Q1550.74 43.3487 1554.62 43.3487 Q1558.45 43.3487 1560.69 40.3279 Q1562.93 37.3071 1562.93 32.0988 Q1562.93 26.9165 1560.69 23.8957 Q1558.45 20.8488 1554.62 20.8488 M1554.62 16.7864 Q1560.87 16.7864 1564.44 20.8488 Q1568.01 24.9113 1568.01 32.0988 Q1568.01 39.2602 1564.44 43.3487 Q1560.87 47.4112 1554.62 47.4112 Q1548.35 47.4112 1544.78 43.3487 Q1541.24 39.2602 1541.24 32.0988 Q1541.24 24.9113 1544.78 20.8488 Q1548.35 16.7864 1554.62 16.7864 Z" fill="#000000" fill-rule="nonzero" fill-opacity="1" /><path clip-path="url(#clip900)" d="M1592.85 21.9686 Q1592.04 21.4999 1591.08 21.2916 Q1590.14 21.0572 1589 21.0572 Q1584.94 21.0572 1582.75 23.7134 Q1580.59 26.3436 1580.59 31.2915 L1580.59 46.656 L1575.77 46.656 L1575.77 17.4895 L1580.59 17.4895 L1580.59 22.0207 Q1582.1 19.3645 1584.52 18.0884 Q1586.94 16.7864 1590.4 16.7864 Q1590.9 16.7864 1591.5 16.8645 Q1592.1 16.9166 1592.83 17.0468 L1592.85 21.9686 Z" fill="#000000" fill-rule="nonzero" fill-opacity="1" /><path clip-path="url(#clip900)" d="M1626.13 20.8488 Q1622.28 20.8488 1620.04 23.8697 Q1617.8 26.8644 1617.8 32.0988 Q1617.8 37.3331 1620.01 40.354 Q1622.25 43.3487 1626.13 43.3487 Q1629.96 43.3487 1632.2 40.3279 Q1634.44 37.3071 1634.44 32.0988 Q1634.44 26.9165 1632.2 23.8957 Q1629.96 20.8488 1626.13 20.8488 M1626.13 16.7864 Q1632.38 16.7864 1635.95 20.8488 Q1639.52 24.9113 1639.52 32.0988 Q1639.52 39.2602 1635.95 43.3487 Q1632.38 47.4112 1626.13 47.4112 Q1619.86 47.4112 1616.29 43.3487 Q1612.75 39.2602 1612.75 32.0988 Q1612.75 24.9113 1616.29 20.8488 Q1619.86 16.7864 1626.13 16.7864 Z" fill="#000000" fill-rule="nonzero" fill-opacity="1" /><path clip-path="url(#clip900)" d="M1662.23 6.13538 L1662.23 10.1197 L1657.64 10.1197 Q1655.07 10.1197 1654.05 11.1614 Q1653.06 12.2031 1653.06 14.9114 L1653.06 17.4895 L1660.95 17.4895 L1660.95 21.2134 L1653.06 21.2134 L1653.06 46.656 L1648.24 46.656 L1648.24 21.2134 L1643.66 21.2134 L1643.66 17.4895 L1648.24 17.4895 L1648.24 15.4583 Q1648.24 10.5885 1650.51 8.37496 Q1652.77 6.13538 1657.7 6.13538 L1662.23 6.13538 Z" fill="#000000" fill-rule="nonzero" fill-opacity="1" /><path clip-path="url(#clip900)" d="M1678.01 7.776 L1710.9 7.776 L1710.9 12.2031 L1697.1 12.2031 L1697.1 46.656 L1691.81 46.656 L1691.81 12.2031 L1678.01 12.2031 L1678.01 7.776 Z" fill="#000000" fill-rule="nonzero" fill-opacity="1" /><path clip-path="url(#clip900)" d="M1715.01 6.18747 L1719.18 6.18747 Q1723.09 12.3333 1725.01 18.2187 Q1726.97 24.104 1726.97 29.9113 Q1726.97 35.7446 1725.01 41.656 Q1723.09 47.5675 1719.18 53.6872 L1715.01 53.6872 Q1718.48 47.7237 1720.17 41.8383 Q1721.89 35.9269 1721.89 29.9113 Q1721.89 23.8957 1720.17 18.0364 Q1718.48 12.177 1715.01 6.18747 Z" fill="#000000" fill-rule="nonzero" fill-opacity="1" /><path clip-path="url(#clip900)" d="M1759.7 5.90101 L1759.7 59.2341 L1755.27 59.2341 L1755.27 5.90101 L1759.7 5.90101 Z" fill="#000000" fill-rule="nonzero" fill-opacity="1" /><path clip-path="url(#clip900)" d="M1811.97 9.05203 L1811.97 14.1822 Q1808.97 12.7499 1806.31 12.0468 Q1803.66 11.3437 1801.18 11.3437 Q1796.89 11.3437 1794.54 13.0103 Q1792.23 14.677 1792.23 17.7499 Q1792.23 20.328 1793.76 21.6561 Q1795.33 22.9582 1799.65 23.7655 L1802.83 24.4165 Q1808.71 25.5363 1811.5 28.3748 Q1814.31 31.1873 1814.31 35.9269 Q1814.31 41.5779 1810.51 44.4946 Q1806.73 47.4112 1799.41 47.4112 Q1796.65 47.4112 1793.53 46.7862 Q1790.43 46.1612 1787.1 44.9373 L1787.1 39.5206 Q1790.3 41.3175 1793.37 42.2289 Q1796.44 43.1404 1799.41 43.1404 Q1803.92 43.1404 1806.37 41.3696 Q1808.81 39.5987 1808.81 36.3175 Q1808.81 33.4529 1807.04 31.8384 Q1805.3 30.2238 1801.29 29.4165 L1798.09 28.7915 Q1792.2 27.6196 1789.57 25.1197 Q1786.94 22.6197 1786.94 18.1666 Q1786.94 13.0103 1790.56 10.0416 Q1794.21 7.07288 1800.59 7.07288 Q1803.32 7.07288 1806.16 7.56767 Q1809 8.06246 1811.97 9.05203 Z" fill="#000000" fill-rule="nonzero" fill-opacity="1" /><path clip-path="url(#clip900)" d="M1827.77 12.0989 L1827.77 26.7082 L1834.39 26.7082 Q1838.06 26.7082 1840.06 24.8072 Q1842.07 22.9061 1842.07 19.3905 Q1842.07 15.901 1840.06 13.9999 Q1838.06 12.0989 1834.39 12.0989 L1827.77 12.0989 M1822.51 7.776 L1834.39 7.776 Q1840.92 7.776 1844.26 10.7447 Q1847.62 13.6874 1847.62 19.3905 Q1847.62 25.1457 1844.26 28.0884 Q1840.92 31.0311 1834.39 31.0311 L1827.77 31.0311 L1827.77 46.656 L1822.51 46.656 L1822.51 7.776 Z" fill="#000000" fill-rule="nonzero" fill-opacity="1" /><path clip-path="url(#clip900)" d="M1848.16 7.776 L1853.81 7.776 L1864.6 23.7655 L1875.3 7.776 L1880.95 7.776 L1867.2 28.1405 L1867.2 46.656 L1861.91 46.656 L1861.91 28.1405 L1848.16 7.776 Z" fill="#000000" fill-rule="nonzero" fill-opacity="1" /><path clip-path="url(#clip900)" d="M1909 5.90101 L1909 59.2341 L1904.57 59.2341 L1904.57 5.90101 L1909 5.90101 Z" fill="#000000" fill-rule="nonzero" fill-opacity="1" /><path clip-path="url(#clip900)" d="M1967.07 10.7708 L1967.07 16.3176 Q1964.41 13.8437 1961.39 12.6197 Q1958.4 11.3958 1955.01 11.3958 Q1948.35 11.3958 1944.8 15.4843 Q1941.26 19.5468 1941.26 27.2551 Q1941.26 34.9373 1944.8 39.0258 Q1948.35 43.0883 1955.01 43.0883 Q1958.4 43.0883 1961.39 41.8644 Q1964.41 40.6404 1967.07 38.1665 L1967.07 43.6612 Q1964.31 45.5362 1961.21 46.4737 Q1958.14 47.4112 1954.7 47.4112 Q1945.87 47.4112 1940.79 42.0206 Q1935.72 36.604 1935.72 27.2551 Q1935.72 17.8801 1940.79 12.4895 Q1945.87 7.07288 1954.7 7.07288 Q1958.19 7.07288 1961.26 8.01037 Q1964.36 8.92183 1967.07 10.7708 Z" fill="#000000" fill-rule="nonzero" fill-opacity="1" /><path clip-path="url(#clip900)" d="M1975.19 7.776 L1980.45 7.776 L1980.45 23.7134 L1999.57 23.7134 L1999.57 7.776 L2004.83 7.776 L2004.83 46.656 L1999.57 46.656 L1999.57 28.1405 L1980.45 28.1405 L1980.45 46.656 L1975.19 46.656 L1975.19 7.776 Z" fill="#000000" fill-rule="nonzero" fill-opacity="1" /><path clip-path="url(#clip900)" d="M2015.3 7.776 L2023.14 7.776 L2033.06 34.2342 L2043.03 7.776 L2050.87 7.776 L2050.87 46.656 L2045.74 46.656 L2045.74 12.5156 L2035.71 39.1821 L2030.43 39.1821 L2020.4 12.5156 L2020.4 46.656 L2015.3 46.656 L2015.3 7.776 Z" fill="#000000" fill-rule="nonzero" fill-opacity="1" /><path clip-path="url(#clip900)" d="M2061.31 7.776 L2069.15 7.776 L2079.07 34.2342 L2089.05 7.776 L2096.89 7.776 L2096.89 46.656 L2091.76 46.656 L2091.76 12.5156 L2081.73 39.1821 L2076.44 39.1821 L2066.42 12.5156 L2066.42 46.656 L2061.31 46.656 L2061.31 7.776 Z" fill="#000000" fill-rule="nonzero" fill-opacity="1" /><path clip-path="url(#clip900)" d="M2104.7 29.9113 L2118.73 29.9113 L2118.73 34.1821 L2104.7 34.1821 L2104.7 29.9113 Z" fill="#000000" fill-rule="nonzero" fill-opacity="1" /><path clip-path="url(#clip900)" d="M2126.57 7.776 L2133.66 7.776 L2150.9 40.3019 L2150.9 7.776 L2156 7.776 L2156 46.656 L2148.92 46.656 L2131.68 14.1301 L2131.68 46.656 L2126.57 46.656 L2126.57 7.776 Z" fill="#000000" fill-rule="nonzero" fill-opacity="1" /><path clip-path="url(#clip900)" d="M2167.48 40.0415 L2172.98 40.0415 L2172.98 44.5206 L2168.71 52.8539 L2165.35 52.8539 L2167.48 44.5206 L2167.48 40.0415 Z" fill="#000000" fill-rule="nonzero" fill-opacity="1" /><path clip-path="url(#clip900)" d="M2200.38 7.776 L2205.64 7.776 L2205.64 24.2082 L2223.08 7.776 L2229.85 7.776 L2210.56 25.9009 L2231.23 46.656 L2224.31 46.656 L2205.64 27.9321 L2205.64 46.656 L2200.38 46.656 L2200.38 7.776 Z" fill="#000000" fill-rule="nonzero" fill-opacity="1" /><path clip-path="url(#clip900)" d="M2235.77 22.4374 L2269.15 22.4374 L2269.15 26.8124 L2235.77 26.8124 L2235.77 22.4374 M2235.77 33.0623 L2269.15 33.0623 L2269.15 37.4894 L2235.77 37.4894 L2235.77 33.0623 Z" fill="#000000" fill-rule="nonzero" fill-opacity="1" /><path clip-path="url(#clip900)" d="M2281.42 42.2289 L2290.01 42.2289 L2290.01 12.5676 L2280.66 14.4426 L2280.66 9.65099 L2289.96 7.776 L2295.22 7.776 L2295.22 42.2289 L2303.81 42.2289 L2303.81 46.656 L2281.42 46.656 L2281.42 42.2289 Z" fill="#000000" fill-rule="nonzero" fill-opacity="1" /><path clip-path="url(#clip900)" d="M2325.69 28.1926 Q2321.94 28.1926 2319.78 30.1978 Q2317.64 32.203 2317.64 35.7186 Q2317.64 39.2342 2319.78 41.2394 Q2321.94 43.2446 2325.69 43.2446 Q2329.44 43.2446 2331.6 41.2394 Q2333.76 39.2081 2333.76 35.7186 Q2333.76 32.203 2331.6 30.1978 Q2329.46 28.1926 2325.69 28.1926 M2320.43 25.953 Q2317.04 25.1197 2315.14 22.802 Q2313.27 20.4843 2313.27 17.1509 Q2313.27 12.4895 2316.57 9.7812 Q2319.91 7.07288 2325.69 7.07288 Q2331.49 7.07288 2334.8 9.7812 Q2338.11 12.4895 2338.11 17.1509 Q2338.11 20.4843 2336.21 22.802 Q2334.33 25.1197 2330.97 25.953 Q2334.78 26.8384 2336.88 29.4165 Q2339.02 31.9946 2339.02 35.7186 Q2339.02 41.3696 2335.56 44.3904 Q2332.12 47.4112 2325.69 47.4112 Q2319.25 47.4112 2315.79 44.3904 Q2312.35 41.3696 2312.35 35.7186 Q2312.35 31.9946 2314.49 29.4165 Q2316.62 26.8384 2320.43 25.953 M2318.5 17.6457 Q2318.5 20.6666 2320.37 22.3593 Q2322.28 24.052 2325.69 24.052 Q2329.07 24.052 2330.97 22.3593 Q2332.9 20.6666 2332.9 17.6457 Q2332.9 14.6249 2330.97 12.9322 Q2329.07 11.2395 2325.69 11.2395 Q2322.28 11.2395 2320.37 12.9322 Q2318.5 14.6249 2318.5 17.6457 Z" fill="#000000" fill-rule="nonzero" fill-opacity="1" /><path clip-path="url(#clip902)" d="M577.811 934.809 L577.811 1241.31 L649.608 1241.31 L649.608 934.809 L577.811 934.809 L577.811 934.809  Z" fill="#4682b4" fill-rule="evenodd" fill-opacity="0.7"/>
<polyline clip-path="url(#clip902)" style="stroke:#000000; stroke-linecap:round; stroke-linejoin:round; stroke-width:4; stroke-opacity:0.7; fill:none" points="577.811,934.809 577.811,1241.31 649.608,1241.31 649.608,934.809 577.811,934.809 "/>
<path clip-path="url(#clip902)" d="M667.557 1156.8 L667.557 1241.31 L739.354 1241.31 L739.354 1156.8 L667.557 1156.8 L667.557 1156.8  Z" fill="#4682b4" fill-rule="evenodd" fill-opacity="0.7"/>
<polyline clip-path="url(#clip902)" style="stroke:#000000; stroke-linecap:round; stroke-linejoin:round; stroke-width:4; stroke-opacity:0.7; fill:none" points="667.557,1156.8 667.557,1241.31 739.354,1241.31 739.354,1156.8 667.557,1156.8 "/>
<path clip-path="url(#clip902)" d="M757.303 1135.67 L757.303 1241.31 L829.1 1241.31 L829.1 1135.67 L757.303 1135.67 L757.303 1135.67  Z" fill="#4682b4" fill-rule="evenodd" fill-opacity="0.7"/>
<polyline clip-path="url(#clip902)" style="stroke:#000000; stroke-linecap:round; stroke-linejoin:round; stroke-width:4; stroke-opacity:0.7; fill:none" points="757.303,1135.67 757.303,1241.31 829.1,1241.31 829.1,1135.67 757.303,1135.67 "/>
<path clip-path="url(#clip902)" d="M847.049 1136.29 L847.049 1241.31 L918.846 1241.31 L918.846 1136.29 L847.049 1136.29 L847.049 1136.29  Z" fill="#4682b4" fill-rule="evenodd" fill-opacity="0.7"/>
<polyline clip-path="url(#clip902)" style="stroke:#000000; stroke-linecap:round; stroke-linejoin:round; stroke-width:4; stroke-opacity:0.7; fill:none" points="847.049,1136.29 847.049,1241.31 918.846,1241.31 918.846,1136.29 847.049,1136.29 "/>
<path clip-path="url(#clip902)" d="M936.796 1146.69 L936.796 1241.31 L1008.59 1241.31 L1008.59 1146.69 L936.796 1146.69 L936.796 1146.69  Z" fill="#4682b4" fill-rule="evenodd" fill-opacity="0.7"/>
<polyline clip-path="url(#clip902)" style="stroke:#000000; stroke-linecap:round; stroke-linejoin:round; stroke-width:4; stroke-opacity:0.7; fill:none" points="936.796,1146.69 936.796,1241.31 1008.59,1241.31 1008.59,1146.69 936.796,1146.69 "/>
<path clip-path="url(#clip902)" d="M1026.54 1058.48 L1026.54 1241.31 L1098.34 1241.31 L1098.34 1058.48 L1026.54 1058.48 L1026.54 1058.48  Z" fill="#4682b4" fill-rule="evenodd" fill-opacity="0.7"/>
<polyline clip-path="url(#clip902)" style="stroke:#000000; stroke-linecap:round; stroke-linejoin:round; stroke-width:4; stroke-opacity:0.7; fill:none" points="1026.54,1058.48 1026.54,1241.31 1098.34,1241.31 1098.34,1058.48 1026.54,1058.48 "/>
<path clip-path="url(#clip902)" d="M1116.29 1056.64 L1116.29 1241.31 L1188.08 1241.31 L1188.08 1056.64 L1116.29 1056.64 L1116.29 1056.64  Z" fill="#4682b4" fill-rule="evenodd" fill-opacity="0.7"/>
<polyline clip-path="url(#clip902)" style="stroke:#000000; stroke-linecap:round; stroke-linejoin:round; stroke-width:4; stroke-opacity:0.7; fill:none" points="1116.29,1056.64 1116.29,1241.31 1188.08,1241.31 1188.08,1056.64 1116.29,1056.64 "/>
<path clip-path="url(#clip902)" d="M1206.03 1120.35 L1206.03 1241.31 L1277.83 1241.31 L1277.83 1120.35 L1206.03 1120.35 L1206.03 1120.35  Z" fill="#4682b4" fill-rule="evenodd" fill-opacity="0.7"/>
<polyline clip-path="url(#clip902)" style="stroke:#000000; stroke-linecap:round; stroke-linejoin:round; stroke-width:4; stroke-opacity:0.7; fill:none" points="1206.03,1120.35 1206.03,1241.31 1277.83,1241.31 1277.83,1120.35 1206.03,1120.35 "/>
<path clip-path="url(#clip902)" d="M1295.78 1118.36 L1295.78 1241.31 L1367.58 1241.31 L1367.58 1118.36 L1295.78 1118.36 L1295.78 1118.36  Z" fill="#4682b4" fill-rule="evenodd" fill-opacity="0.7"/>
<polyline clip-path="url(#clip902)" style="stroke:#000000; stroke-linecap:round; stroke-linejoin:round; stroke-width:4; stroke-opacity:0.7; fill:none" points="1295.78,1118.36 1295.78,1241.31 1367.58,1241.31 1367.58,1118.36 1295.78,1118.36 "/>
<path clip-path="url(#clip902)" d="M1385.53 1031.17 L1385.53 1241.31 L1457.32 1241.31 L1457.32 1031.17 L1385.53 1031.17 L1385.53 1031.17  Z" fill="#4682b4" fill-rule="evenodd" fill-opacity="0.7"/>
<polyline clip-path="url(#clip902)" style="stroke:#000000; stroke-linecap:round; stroke-linejoin:round; stroke-width:4; stroke-opacity:0.7; fill:none" points="1385.53,1031.17 1385.53,1241.31 1457.32,1241.31 1457.32,1031.17 1385.53,1031.17 "/>
<path clip-path="url(#clip902)" d="M1475.27 1087.35 L1475.27 1241.31 L1547.07 1241.31 L1547.07 1087.35 L1475.27 1087.35 L1475.27 1087.35  Z" fill="#4682b4" fill-rule="evenodd" fill-opacity="0.7"/>
<polyline clip-path="url(#clip902)" style="stroke:#000000; stroke-linecap:round; stroke-linejoin:round; stroke-width:4; stroke-opacity:0.7; fill:none" points="1475.27,1087.35 1475.27,1241.31 1547.07,1241.31 1547.07,1087.35 1475.27,1087.35 "/>
<path clip-path="url(#clip902)" d="M1565.02 1055.27 L1565.02 1241.31 L1636.81 1241.31 L1636.81 1055.27 L1565.02 1055.27 L1565.02 1055.27  Z" fill="#4682b4" fill-rule="evenodd" fill-opacity="0.7"/>
<polyline clip-path="url(#clip902)" style="stroke:#000000; stroke-linecap:round; stroke-linejoin:round; stroke-width:4; stroke-opacity:0.7; fill:none" points="1565.02,1055.27 1565.02,1241.31 1636.81,1241.31 1636.81,1055.27 1565.02,1055.27 "/>
<path clip-path="url(#clip902)" d="M1654.76 1142.08 L1654.76 1241.31 L1726.56 1241.31 L1726.56 1142.08 L1654.76 1142.08 L1654.76 1142.08  Z" fill="#4682b4" fill-rule="evenodd" fill-opacity="0.7"/>
<polyline clip-path="url(#clip902)" style="stroke:#000000; stroke-linecap:round; stroke-linejoin:round; stroke-width:4; stroke-opacity:0.7; fill:none" points="1654.76,1142.08 1654.76,1241.31 1726.56,1241.31 1726.56,1142.08 1654.76,1142.08 "/>
<path clip-path="url(#clip902)" d="M1744.51 1049.95 L1744.51 1241.31 L1816.31 1241.31 L1816.31 1049.95 L1744.51 1049.95 L1744.51 1049.95  Z" fill="#4682b4" fill-rule="evenodd" fill-opacity="0.7"/>
<polyline clip-path="url(#clip902)" style="stroke:#000000; stroke-linecap:round; stroke-linejoin:round; stroke-width:4; stroke-opacity:0.7; fill:none" points="1744.51,1049.95 1744.51,1241.31 1816.31,1241.31 1816.31,1049.95 1744.51,1049.95 "/>
<path clip-path="url(#clip902)" d="M1834.26 1105.01 L1834.26 1241.31 L1906.05 1241.31 L1906.05 1105.01 L1834.26 1105.01 L1834.26 1105.01  Z" fill="#4682b4" fill-rule="evenodd" fill-opacity="0.7"/>
<polyline clip-path="url(#clip902)" style="stroke:#000000; stroke-linecap:round; stroke-linejoin:round; stroke-width:4; stroke-opacity:0.7; fill:none" points="1834.26,1105.01 1834.26,1241.31 1906.05,1241.31 1906.05,1105.01 1834.26,1105.01 "/>
<path clip-path="url(#clip902)" d="M1924 1104.58 L1924 1241.31 L1995.8 1241.31 L1995.8 1104.58 L1924 1104.58 L1924 1104.58  Z" fill="#4682b4" fill-rule="evenodd" fill-opacity="0.7"/>
<polyline clip-path="url(#clip902)" style="stroke:#000000; stroke-linecap:round; stroke-linejoin:round; stroke-width:4; stroke-opacity:0.7; fill:none" points="1924,1104.58 1924,1241.31 1995.8,1241.31 1995.8,1104.58 1924,1104.58 "/>
<path clip-path="url(#clip902)" d="M2013.75 1135 L2013.75 1241.31 L2085.55 1241.31 L2085.55 1135 L2013.75 1135 L2013.75 1135  Z" fill="#4682b4" fill-rule="evenodd" fill-opacity="0.7"/>
<polyline clip-path="url(#clip902)" style="stroke:#000000; stroke-linecap:round; stroke-linejoin:round; stroke-width:4; stroke-opacity:0.7; fill:none" points="2013.75,1135 2013.75,1241.31 2085.55,1241.31 2085.55,1135 2013.75,1135 "/>
<path clip-path="url(#clip902)" d="M2103.49 180.612 L2103.49 1241.31 L2175.29 1241.31 L2175.29 180.612 L2103.49 180.612 L2103.49 180.612  Z" fill="#4682b4" fill-rule="evenodd" fill-opacity="0.7"/>
<polyline clip-path="url(#clip902)" style="stroke:#000000; stroke-linecap:round; stroke-linejoin:round; stroke-width:4; stroke-opacity:0.7; fill:none" points="2103.49,180.612 2103.49,1241.31 2175.29,1241.31 2175.29,180.612 2103.49,180.612 "/>
<circle clip-path="url(#clip902)" style="fill:#4682b4; stroke:none; fill-opacity:0" cx="613.71" cy="934.809" r="2"/>
<circle clip-path="url(#clip902)" style="fill:#4682b4; stroke:none; fill-opacity:0" cx="703.456" cy="1156.8" r="2"/>
<circle clip-path="url(#clip902)" style="fill:#4682b4; stroke:none; fill-opacity:0" cx="793.202" cy="1135.67" r="2"/>
<circle clip-path="url(#clip902)" style="fill:#4682b4; stroke:none; fill-opacity:0" cx="882.948" cy="1136.29" r="2"/>
<circle clip-path="url(#clip902)" style="fill:#4682b4; stroke:none; fill-opacity:0" cx="972.694" cy="1146.69" r="2"/>
<circle clip-path="url(#clip902)" style="fill:#4682b4; stroke:none; fill-opacity:0" cx="1062.44" cy="1058.48" r="2"/>
<circle clip-path="url(#clip902)" style="fill:#4682b4; stroke:none; fill-opacity:0" cx="1152.19" cy="1056.64" r="2"/>
<circle clip-path="url(#clip902)" style="fill:#4682b4; stroke:none; fill-opacity:0" cx="1241.93" cy="1120.35" r="2"/>
<circle clip-path="url(#clip902)" style="fill:#4682b4; stroke:none; fill-opacity:0" cx="1331.68" cy="1118.36" r="2"/>
<circle clip-path="url(#clip902)" style="fill:#4682b4; stroke:none; fill-opacity:0" cx="1421.42" cy="1031.17" r="2"/>
<circle clip-path="url(#clip902)" style="fill:#4682b4; stroke:none; fill-opacity:0" cx="1511.17" cy="1087.35" r="2"/>
<circle clip-path="url(#clip902)" style="fill:#4682b4; stroke:none; fill-opacity:0" cx="1600.92" cy="1055.27" r="2"/>
<circle clip-path="url(#clip902)" style="fill:#4682b4; stroke:none; fill-opacity:0" cx="1690.66" cy="1142.08" r="2"/>
<circle clip-path="url(#clip902)" style="fill:#4682b4; stroke:none; fill-opacity:0" cx="1780.41" cy="1049.95" r="2"/>
<circle clip-path="url(#clip902)" style="fill:#4682b4; stroke:none; fill-opacity:0" cx="1870.15" cy="1105.01" r="2"/>
<circle clip-path="url(#clip902)" style="fill:#4682b4; stroke:none; fill-opacity:0" cx="1959.9" cy="1104.58" r="2"/>
<circle clip-path="url(#clip902)" style="fill:#4682b4; stroke:none; fill-opacity:0" cx="2049.65" cy="1135" r="2"/>
<circle clip-path="url(#clip902)" style="fill:#4682b4; stroke:none; fill-opacity:0" cx="2139.39" cy="180.612" r="2"/>
</svg>
