<?xml version="1.0" encoding="utf-8"?>
<svg xmlns="http://www.w3.org/2000/svg" xmlns:xlink="http://www.w3.org/1999/xlink" width="700" height="500" viewBox="0 0 2800 2000">
<defs>
  <clipPath id="clip710">
    <rect x="0" y="0" width="2800" height="2000"/>
  </clipPath>
</defs>
<path clip-path="url(#clip710)" d="M0 2000 L2800 2000 L2800 -4.44089e-14 L0 -4.44089e-14  Z" fill="#ffffff" fill-rule="evenodd" fill-opacity="1"/>
<defs>
  <clipPath id="clip711">
    <rect x="532" y="125" width="2142" height="1506"/>
  </clipPath>
</defs>
<path clip-path="url(#clip710)" d="M532.517 1630.83 L2674.02 1630.83 L2674.02 125.984 L532.517 125.984  Z" fill="#ffffff" fill-rule="evenodd" fill-opacity="1"/>
<polyline clip-path="url(#clip711)" style="stroke:#000000; stroke-linecap:round; stroke-linejoin:round; stroke-width:2; stroke-opacity:0.1; fill:none" points="585.076,1630.83 585.076,125.984 "/>
<polyline clip-path="url(#clip711)" style="stroke:#000000; stroke-linecap:round; stroke-linejoin:round; stroke-width:2; stroke-opacity:0.1; fill:none" points="987.523,1630.83 987.523,125.984 "/>
<polyline clip-path="url(#clip711)" style="stroke:#000000; stroke-linecap:round; stroke-linejoin:round; stroke-width:2; stroke-opacity:0.1; fill:none" points="1389.97,1630.83 1389.97,125.984 "/>
<polyline clip-path="url(#clip711)" style="stroke:#000000; stroke-linecap:round; stroke-linejoin:round; stroke-width:2; stroke-opacity:0.1; fill:none" points="1792.42,1630.83 1792.42,125.984 "/>
<polyline clip-path="url(#clip711)" style="stroke:#000000; stroke-linecap:round; stroke-linejoin:round; stroke-width:2; stroke-opacity:0.1; fill:none" points="2194.86,1630.83 2194.86,125.984 "/>
<polyline clip-path="url(#clip711)" style="stroke:#000000; stroke-linecap:round; stroke-linejoin:round; stroke-width:2; stroke-opacity:0.1; fill:none" points="2597.31,1630.83 2597.31,125.984 "/>
<polyline clip-path="url(#clip711)" style="stroke:#000000; stroke-linecap:round; stroke-linejoin:round; stroke-width:2; stroke-opacity:0.1; fill:none" points="532.517,1515.27 2674.02,1515.27 "/>
<polyline clip-path="url(#clip711)" style="stroke:#000000; stroke-linecap:round; stroke-linejoin:round; stroke-width:2; stroke-opacity:0.1; fill:none" points="532.517,1232.62 2674.02,1232.62 "/>
<polyline clip-path="url(#clip711)" style="stroke:#000000; stroke-linecap:round; stroke-linejoin:round; stroke-width:2; stroke-opacity:0.1; fill:none" points="532.517,949.974 2674.02,949.974 "/>
<polyline clip-path="url(#clip711)" style="stroke:#000000; stroke-linecap:round; stroke-linejoin:round; stroke-width:2; stroke-opacity:0.1; fill:none" points="532.517,667.325 2674.02,667.325 "/>
<polyline clip-path="url(#clip711)" style="stroke:#000000; stroke-linecap:round; stroke-linejoin:round; stroke-width:2; stroke-opacity:0.1; fill:none" points="532.517,384.676 2674.02,384.676 "/>
<polyline clip-path="url(#clip710)" style="stroke:#000000; stroke-linecap:round; stroke-linejoin:round; stroke-width:4; stroke-opacity:1; fill:none" points="532.517,1630.83 2674.02,1630.83 "/>
<polyline clip-path="url(#clip710)" style="stroke:#000000; stroke-linecap:round; stroke-linejoin:round; stroke-width:4; stroke-opacity:1; fill:none" points="585.076,1630.83 585.076,1611.93 "/>
<polyline clip-path="url(#clip710)" style="stroke:#000000; stroke-linecap:round; stroke-linejoin:round; stroke-width:4; stroke-opacity:1; fill:none" points="987.523,1630.83 987.523,1611.93 "/>
<polyline clip-path="url(#clip710)" style="stroke:#000000; stroke-linecap:round; stroke-linejoin:round; stroke-width:4; stroke-opacity:1; fill:none" points="1389.97,1630.83 1389.97,1611.93 "/>
<polyline clip-path="url(#clip710)" style="stroke:#000000; stroke-linecap:round; stroke-linejoin:round; stroke-width:4; stroke-opacity:1; fill:none" points="1792.42,1630.83 1792.42,1611.93 "/>
<polyline clip-path="url(#clip710)" style="stroke:#000000; stroke-linecap:round; stroke-linejoin:round; stroke-width:4; stroke-opacity:1; fill:none" points="2194.86,1630.83 2194.86,1611.93 "/>
<polyline clip-path="url(#clip710)" style="stroke:#000000; stroke-linecap:round; stroke-linejoin:round; stroke-width:4; stroke-opacity:1; fill:none" points="2597.31,1630.83 2597.31,1611.93 "/>
<path clip-path="url(#clip710)" d="M585.076 1667.88 Q580.562 1667.88 578.277 1672.34 Q576.02 1676.76 576.02 1685.67 Q576.02 1694.56 578.277 1699.01 Q580.562 1703.44 585.076 1703.44 Q589.619 1703.44 591.876 1699.01 Q594.162 1694.56 594.162 1685.67 Q594.162 1676.76 591.876 1672.34 Q589.619 1667.88 585.076 1667.88 M585.076 1663.25 Q592.339 1663.25 596.158 1669.01 Q600.007 1674.74 600.007 1685.67 Q600.007 1696.58 596.158 1702.34 Q592.339 1708.07 585.076 1708.07 Q577.814 1708.07 573.965 1702.34 Q570.146 1696.58 570.146 1685.67 Q570.146 1674.74 573.965 1669.01 Q577.814 1663.25 585.076 1663.25 Z" fill="#000000" fill-rule="nonzero" fill-opacity="1" /><path clip-path="url(#clip710)" d="M955.897 1664.03 L978.842 1664.03 L978.842 1668.95 L961.25 1668.95 L961.25 1679.54 Q962.523 1679.11 963.796 1678.9 Q965.069 1678.67 966.343 1678.67 Q973.576 1678.67 977.801 1682.64 Q982.025 1686.6 982.025 1693.37 Q982.025 1700.34 977.685 1704.22 Q973.345 1708.07 965.446 1708.07 Q962.726 1708.07 959.89 1707.61 Q957.083 1707.14 954.074 1706.22 L954.074 1700.34 Q956.678 1701.76 959.456 1702.46 Q962.234 1703.15 965.33 1703.15 Q970.336 1703.15 973.258 1700.52 Q976.18 1697.89 976.18 1693.37 Q976.18 1688.86 973.258 1686.22 Q970.336 1683.59 965.33 1683.59 Q962.986 1683.59 960.642 1684.11 Q958.328 1684.63 955.897 1685.73 L955.897 1664.03 Z" fill="#000000" fill-rule="nonzero" fill-opacity="1" /><path clip-path="url(#clip710)" d="M1006.04 1667.88 Q1001.53 1667.88 999.242 1672.34 Q996.985 1676.76 996.985 1685.67 Q996.985 1694.56 999.242 1699.01 Q1001.53 1703.44 1006.04 1703.44 Q1010.58 1703.44 1012.84 1699.01 Q1015.13 1694.56 1015.13 1685.67 Q1015.13 1676.76 1012.84 1672.34 Q1010.58 1667.88 1006.04 1667.88 M1006.04 1663.25 Q1013.3 1663.25 1017.12 1669.01 Q1020.97 1674.74 1020.97 1685.67 Q1020.97 1696.58 1017.12 1702.34 Q1013.3 1708.07 1006.04 1708.07 Q998.779 1708.07 994.93 1702.34 Q991.111 1696.58 991.111 1685.67 Q991.111 1674.74 994.93 1669.01 Q998.779 1663.25 1006.04 1663.25 Z" fill="#000000" fill-rule="nonzero" fill-opacity="1" /><path clip-path="url(#clip710)" d="M1339.48 1702.31 L1349.03 1702.31 L1349.03 1669.36 L1338.64 1671.44 L1338.64 1666.11 L1348.97 1664.03 L1354.81 1664.03 L1354.81 1702.31 L1364.36 1702.31 L1364.36 1707.23 L1339.48 1707.23 L1339.48 1702.31 Z" fill="#000000" fill-rule="nonzero" fill-opacity="1" /><path clip-path="url(#clip710)" d="M1388.67 1667.88 Q1384.15 1667.88 1381.87 1672.34 Q1379.61 1676.76 1379.61 1685.67 Q1379.61 1694.56 1381.87 1699.01 Q1384.15 1703.44 1388.67 1703.44 Q1393.21 1703.44 1395.47 1699.01 Q1397.75 1694.56 1397.75 1685.67 Q1397.75 1676.76 1395.47 1672.34 Q1393.21 1667.88 1388.67 1667.88 M1388.67 1663.25 Q1395.93 1663.25 1399.75 1669.01 Q1403.6 1674.74 1403.6 1685.67 Q1403.6 1696.58 1399.75 1702.34 Q1395.93 1708.07 1388.67 1708.07 Q1381.4 1708.07 1377.56 1702.34 Q1373.74 1696.58 1373.74 1685.67 Q1373.74 1674.74 1377.56 1669.01 Q1381.4 1663.25 1388.67 1663.25 Z" fill="#000000" fill-rule="nonzero" fill-opacity="1" /><path clip-path="url(#clip710)" d="M1426.37 1667.88 Q1421.86 1667.88 1419.57 1672.34 Q1417.31 1676.76 1417.31 1685.67 Q1417.31 1694.56 1419.57 1699.01 Q1421.86 1703.44 1426.37 1703.44 Q1430.91 1703.44 1433.17 1699.01 Q1435.46 1694.56 1435.46 1685.67 Q1435.46 1676.76 1433.17 1672.34 Q1430.91 1667.88 1426.37 1667.88 M1426.37 1663.25 Q1433.63 1663.25 1437.45 1669.01 Q1441.3 1674.74 1441.3 1685.67 Q1441.3 1696.58 1437.45 1702.34 Q1433.63 1708.07 1426.37 1708.07 Q1419.11 1708.07 1415.26 1702.34 Q1411.44 1696.58 1411.44 1685.67 Q1411.44 1674.74 1415.26 1669.01 Q1419.11 1663.25 1426.37 1663.25 Z" fill="#000000" fill-rule="nonzero" fill-opacity="1" /><path clip-path="url(#clip710)" d="M1741.92 1702.31 L1751.47 1702.31 L1751.47 1669.36 L1741.09 1671.44 L1741.09 1666.11 L1751.42 1664.03 L1757.26 1664.03 L1757.26 1702.31 L1766.81 1702.31 L1766.81 1707.23 L1741.92 1707.23 L1741.92 1702.31 Z" fill="#000000" fill-rule="nonzero" fill-opacity="1" /><path clip-path="url(#clip710)" d="M1778.67 1664.03 L1801.62 1664.03 L1801.62 1668.95 L1784.03 1668.95 L1784.03 1679.54 Q1785.3 1679.11 1786.57 1678.9 Q1787.84 1678.67 1789.12 1678.67 Q1796.35 1678.67 1800.58 1682.64 Q1804.8 1686.6 1804.8 1693.37 Q1804.8 1700.34 1800.46 1704.22 Q1796.12 1708.07 1788.22 1708.07 Q1785.5 1708.07 1782.67 1707.61 Q1779.86 1707.14 1776.85 1706.22 L1776.85 1700.34 Q1779.45 1701.76 1782.23 1702.46 Q1785.01 1703.15 1788.1 1703.15 Q1793.11 1703.15 1796.03 1700.52 Q1798.96 1697.89 1798.96 1693.37 Q1798.96 1688.86 1796.03 1686.22 Q1793.11 1683.59 1788.1 1683.59 Q1785.76 1683.59 1783.42 1684.11 Q1781.1 1684.63 1778.67 1685.73 L1778.67 1664.03 Z" fill="#000000" fill-rule="nonzero" fill-opacity="1" /><path clip-path="url(#clip710)" d="M1828.82 1667.88 Q1824.3 1667.88 1822.02 1672.34 Q1819.76 1676.76 1819.76 1685.67 Q1819.76 1694.56 1822.02 1699.01 Q1824.3 1703.44 1828.82 1703.44 Q1833.36 1703.44 1835.62 1699.01 Q1837.9 1694.56 1837.9 1685.67 Q1837.9 1676.76 1835.62 1672.34 Q1833.36 1667.88 1828.82 1667.88 M1828.82 1663.25 Q1836.08 1663.25 1839.9 1669.01 Q1843.75 1674.74 1843.75 1685.67 Q1843.75 1696.58 1839.9 1702.34 Q1836.08 1708.07 1828.82 1708.07 Q1821.55 1708.07 1817.71 1702.34 Q1813.89 1696.58 1813.89 1685.67 Q1813.89 1674.74 1817.71 1669.01 Q1821.55 1663.25 1828.82 1663.25 Z" fill="#000000" fill-rule="nonzero" fill-opacity="1" /><path clip-path="url(#clip710)" d="M2149.48 1702.31 L2169.88 1702.31 L2169.88 1707.23 L2142.45 1707.23 L2142.45 1702.31 Q2145.77 1698.87 2151.5 1693.08 Q2157.26 1687.27 2158.74 1685.59 Q2161.54 1682.43 2162.64 1680.26 Q2163.77 1678.06 2163.77 1675.95 Q2163.77 1672.51 2161.34 1670.34 Q2158.94 1668.17 2155.06 1668.17 Q2152.31 1668.17 2149.25 1669.12 Q2146.21 1670.08 2142.74 1672.02 L2142.74 1666.11 Q2146.27 1664.7 2149.33 1663.97 Q2152.4 1663.25 2154.95 1663.25 Q2161.66 1663.25 2165.65 1666.61 Q2169.65 1669.96 2169.65 1675.58 Q2169.65 1678.24 2168.63 1680.64 Q2167.65 1683.01 2165.02 1686.25 Q2164.29 1687.09 2160.42 1691.11 Q2156.54 1695.11 2149.48 1702.31 Z" fill="#000000" fill-rule="nonzero" fill-opacity="1" /><path clip-path="url(#clip710)" d="M2194.65 1667.88 Q2190.13 1667.88 2187.85 1672.34 Q2185.59 1676.76 2185.59 1685.67 Q2185.59 1694.56 2187.85 1699.01 Q2190.13 1703.44 2194.65 1703.44 Q2199.19 1703.44 2201.45 1699.01 Q2203.73 1694.56 2203.73 1685.67 Q2203.73 1676.76 2201.45 1672.34 Q2199.19 1667.88 2194.65 1667.88 M2194.65 1663.25 Q2201.91 1663.25 2205.73 1669.01 Q2209.58 1674.74 2209.58 1685.67 Q2209.58 1696.58 2205.73 1702.34 Q2201.91 1708.07 2194.65 1708.07 Q2187.38 1708.07 2183.53 1702.34 Q2179.72 1696.58 2179.72 1685.67 Q2179.72 1674.74 2183.53 1669.01 Q2187.38 1663.25 2194.65 1663.25 Z" fill="#000000" fill-rule="nonzero" fill-opacity="1" /><path clip-path="url(#clip710)" d="M2232.35 1667.88 Q2227.83 1667.88 2225.55 1672.34 Q2223.29 1676.76 2223.29 1685.67 Q2223.29 1694.56 2225.55 1699.01 Q2227.83 1703.44 2232.35 1703.44 Q2236.89 1703.44 2239.15 1699.01 Q2241.43 1694.56 2241.43 1685.67 Q2241.43 1676.76 2239.15 1672.34 Q2236.89 1667.88 2232.35 1667.88 M2232.35 1663.25 Q2239.61 1663.25 2243.43 1669.01 Q2247.28 1674.74 2247.28 1685.67 Q2247.28 1696.58 2243.43 1702.34 Q2239.61 1708.07 2232.35 1708.07 Q2225.09 1708.07 2221.24 1702.34 Q2217.42 1696.58 2217.42 1685.67 Q2217.42 1674.74 2221.24 1669.01 Q2225.09 1663.25 2232.35 1663.25 Z" fill="#000000" fill-rule="nonzero" fill-opacity="1" /><path clip-path="url(#clip710)" d="M2551.92 1702.31 L2572.32 1702.31 L2572.32 1707.23 L2544.89 1707.23 L2544.89 1702.31 Q2548.22 1698.87 2553.95 1693.08 Q2559.71 1687.27 2561.18 1685.59 Q2563.99 1682.43 2565.09 1680.26 Q2566.22 1678.06 2566.22 1675.95 Q2566.22 1672.51 2563.79 1670.34 Q2561.39 1668.17 2557.51 1668.17 Q2554.76 1668.17 2551.69 1669.12 Q2548.66 1670.08 2545.18 1672.02 L2545.18 1666.11 Q2548.71 1664.7 2551.78 1663.97 Q2554.85 1663.25 2557.39 1663.25 Q2564.11 1663.25 2568.1 1666.61 Q2572.09 1669.96 2572.09 1675.58 Q2572.09 1678.24 2571.08 1680.64 Q2570.1 1683.01 2567.46 1686.25 Q2566.74 1687.09 2562.86 1691.11 Q2558.98 1695.11 2551.92 1702.31 Z" fill="#000000" fill-rule="nonzero" fill-opacity="1" /><path clip-path="url(#clip710)" d="M2584.65 1664.03 L2607.6 1664.03 L2607.6 1668.95 L2590 1668.95 L2590 1679.54 Q2591.28 1679.11 2592.55 1678.9 Q2593.82 1678.67 2595.1 1678.67 Q2602.33 1678.67 2606.55 1682.64 Q2610.78 1686.6 2610.78 1693.37 Q2610.78 1700.34 2606.44 1704.22 Q2602.1 1708.07 2594.2 1708.07 Q2591.48 1708.07 2588.64 1707.61 Q2585.84 1707.14 2582.83 1706.22 L2582.83 1700.34 Q2585.43 1701.76 2588.21 1702.46 Q2590.99 1703.15 2594.08 1703.15 Q2599.09 1703.15 2602.01 1700.52 Q2604.93 1697.89 2604.93 1693.37 Q2604.93 1688.86 2602.01 1686.22 Q2599.09 1683.59 2594.08 1683.59 Q2591.74 1683.59 2589.4 1684.11 Q2587.08 1684.63 2584.65 1685.73 L2584.65 1664.03 Z" fill="#000000" fill-rule="nonzero" fill-opacity="1" /><path clip-path="url(#clip710)" d="M2634.79 1667.88 Q2630.28 1667.88 2628 1672.34 Q2625.74 1676.76 2625.74 1685.67 Q2625.74 1694.56 2628 1699.01 Q2630.28 1703.44 2634.79 1703.44 Q2639.34 1703.44 2641.59 1699.01 Q2643.88 1694.56 2643.88 1685.67 Q2643.88 1676.76 2641.59 1672.34 Q2639.34 1667.88 2634.79 1667.88 M2634.79 1663.25 Q2642.06 1663.25 2645.88 1669.01 Q2649.73 1674.74 2649.73 1685.67 Q2649.73 1696.58 2645.88 1702.34 Q2642.06 1708.07 2634.79 1708.07 Q2627.53 1708.07 2623.68 1702.34 Q2619.86 1696.58 2619.86 1685.67 Q2619.86 1674.74 2623.68 1669.01 Q2627.53 1663.25 2634.79 1663.25 Z" fill="#000000" fill-rule="nonzero" fill-opacity="1" /><path clip-path="url(#clip710)" d="M1310.13 1747.14 L1316.55 1747.14 L1316.55 1789.24 L1339.69 1789.24 L1339.69 1794.66 L1310.13 1794.66 L1310.13 1747.14 Z" fill="#000000" fill-rule="nonzero" fill-opacity="1" /><path clip-path="url(#clip710)" d="M1362.39 1776.74 Q1355.29 1776.74 1352.55 1778.36 Q1349.82 1779.98 1349.82 1783.9 Q1349.82 1787.02 1351.85 1788.86 Q1353.92 1790.68 1357.45 1790.68 Q1362.32 1790.68 1365.25 1787.24 Q1368.21 1783.77 1368.21 1778.04 L1368.21 1776.74 L1362.39 1776.74 M1374.07 1774.32 L1374.07 1794.66 L1368.21 1794.66 L1368.21 1789.24 Q1366.21 1792.49 1363.22 1794.05 Q1360.22 1795.58 1355.89 1795.58 Q1350.42 1795.58 1347.17 1792.52 Q1343.96 1789.44 1343.96 1784.28 Q1343.96 1778.26 1347.97 1775.21 Q1352.01 1772.15 1360 1772.15 L1368.21 1772.15 L1368.21 1771.58 Q1368.21 1767.54 1365.54 1765.34 Q1362.9 1763.11 1358.09 1763.11 Q1355.04 1763.11 1352.14 1763.85 Q1349.24 1764.58 1346.57 1766.04 L1346.57 1760.63 Q1349.78 1759.39 1352.81 1758.78 Q1355.83 1758.15 1358.7 1758.15 Q1366.43 1758.15 1370.25 1762.16 Q1374.07 1766.17 1374.07 1774.32 Z" fill="#000000" fill-rule="nonzero" fill-opacity="1" /><path clip-path="url(#clip710)" d="M1409.59 1776.42 Q1409.59 1770.05 1406.95 1766.55 Q1404.34 1763.05 1399.6 1763.05 Q1394.88 1763.05 1392.24 1766.55 Q1389.63 1770.05 1389.63 1776.42 Q1389.63 1782.75 1392.24 1786.25 Q1394.88 1789.75 1399.6 1789.75 Q1404.34 1789.75 1406.95 1786.25 Q1409.59 1782.75 1409.59 1776.42 M1415.45 1790.23 Q1415.45 1799.33 1411.4 1803.76 Q1407.36 1808.21 1399.02 1808.21 Q1395.94 1808.21 1393.2 1807.74 Q1390.46 1807.29 1387.88 1806.34 L1387.88 1800.64 Q1390.46 1802.04 1392.98 1802.71 Q1395.49 1803.38 1398.1 1803.38 Q1403.86 1803.38 1406.73 1800.35 Q1409.59 1797.36 1409.59 1791.28 L1409.59 1788.39 Q1407.78 1791.54 1404.94 1793.1 Q1402.11 1794.66 1398.16 1794.66 Q1391.61 1794.66 1387.6 1789.66 Q1383.59 1784.66 1383.59 1776.42 Q1383.59 1768.14 1387.6 1763.15 Q1391.61 1758.15 1398.16 1758.15 Q1402.11 1758.15 1404.94 1759.71 Q1407.78 1761.27 1409.59 1764.42 L1409.59 1759.01 L1415.45 1759.01 L1415.45 1790.23 Z" fill="#000000" fill-rule="nonzero" fill-opacity="1" /><path clip-path="url(#clip710)" d="M1462.3 1745.19 Q1458.03 1752.51 1455.96 1759.68 Q1453.89 1766.84 1453.89 1774.19 Q1453.89 1781.54 1455.96 1788.77 Q1458.06 1795.96 1462.3 1803.25 L1457.21 1803.25 Q1452.43 1795.77 1450.04 1788.54 Q1447.69 1781.32 1447.69 1774.19 Q1447.69 1767.09 1450.04 1759.9 Q1452.4 1752.71 1457.21 1745.19 L1462.3 1745.19 Z" fill="#000000" fill-rule="nonzero" fill-opacity="1" /><path clip-path="url(#clip710)" d="M1479.45 1748.89 L1479.45 1759.01 L1491.52 1759.01 L1491.52 1763.56 L1479.45 1763.56 L1479.45 1782.91 Q1479.45 1787.27 1480.63 1788.51 Q1481.84 1789.75 1485.5 1789.75 L1491.52 1789.75 L1491.52 1794.66 L1485.5 1794.66 Q1478.72 1794.66 1476.14 1792.14 Q1473.57 1789.59 1473.57 1782.91 L1473.57 1763.56 L1469.27 1763.56 L1469.27 1759.01 L1473.57 1759.01 L1473.57 1748.89 L1479.45 1748.89 Z" fill="#000000" fill-rule="nonzero" fill-opacity="1" /><path clip-path="url(#clip710)" d="M1519.88 1764.48 Q1518.89 1763.91 1517.71 1763.65 Q1516.57 1763.37 1515.16 1763.37 Q1510.2 1763.37 1507.53 1766.61 Q1504.88 1769.83 1504.88 1775.88 L1504.88 1794.66 L1499 1794.66 L1499 1759.01 L1504.88 1759.01 L1504.88 1764.55 Q1506.73 1761.3 1509.69 1759.74 Q1512.65 1758.15 1516.88 1758.15 Q1517.49 1758.15 1518.22 1758.24 Q1518.95 1758.31 1519.84 1758.47 L1519.88 1764.48 Z" fill="#000000" fill-rule="nonzero" fill-opacity="1" /><path clip-path="url(#clip710)" d="M1542.22 1776.74 Q1535.12 1776.74 1532.38 1778.36 Q1529.65 1779.98 1529.65 1783.9 Q1529.65 1787.02 1531.68 1788.86 Q1533.75 1790.68 1537.29 1790.68 Q1542.16 1790.68 1545.08 1787.24 Q1548.04 1783.77 1548.04 1778.04 L1548.04 1776.74 L1542.22 1776.74 M1553.9 1774.32 L1553.9 1794.66 L1548.04 1794.66 L1548.04 1789.24 Q1546.04 1792.49 1543.05 1794.05 Q1540.05 1795.58 1535.73 1795.58 Q1530.25 1795.58 1527.01 1792.52 Q1523.79 1789.44 1523.79 1784.28 Q1523.79 1778.26 1527.8 1775.21 Q1531.84 1772.15 1539.83 1772.15 L1548.04 1772.15 L1548.04 1771.58 Q1548.04 1767.54 1545.37 1765.34 Q1542.73 1763.11 1537.92 1763.11 Q1534.87 1763.11 1531.97 1763.85 Q1529.07 1764.58 1526.4 1766.04 L1526.4 1760.63 Q1529.62 1759.39 1532.64 1758.78 Q1535.66 1758.15 1538.53 1758.15 Q1546.26 1758.15 1550.08 1762.16 Q1553.9 1766.17 1553.9 1774.32 Z" fill="#000000" fill-rule="nonzero" fill-opacity="1" /><path clip-path="url(#clip710)" d="M1589.42 1764.42 L1589.42 1745.13 L1595.28 1745.13 L1595.28 1794.66 L1589.42 1794.66 L1589.42 1789.31 Q1587.57 1792.49 1584.74 1794.05 Q1581.94 1795.58 1577.99 1795.58 Q1571.53 1795.58 1567.46 1790.42 Q1563.42 1785.27 1563.42 1776.86 Q1563.42 1768.46 1567.46 1763.3 Q1571.53 1758.15 1577.99 1758.15 Q1581.94 1758.15 1584.74 1759.71 Q1587.57 1761.24 1589.42 1764.42 M1569.46 1776.86 Q1569.46 1783.32 1572.11 1787.02 Q1574.78 1790.68 1579.43 1790.68 Q1584.07 1790.68 1586.75 1787.02 Q1589.42 1783.32 1589.42 1776.86 Q1589.42 1770.4 1586.75 1766.74 Q1584.07 1763.05 1579.43 1763.05 Q1574.78 1763.05 1572.11 1766.74 Q1569.46 1770.4 1569.46 1776.86 Z" fill="#000000" fill-rule="nonzero" fill-opacity="1" /><path clip-path="url(#clip710)" d="M1607.34 1759.01 L1613.2 1759.01 L1613.2 1794.66 L1607.34 1794.66 L1607.34 1759.01 M1607.34 1745.13 L1613.2 1745.13 L1613.2 1752.55 L1607.34 1752.55 L1607.34 1745.13 Z" fill="#000000" fill-rule="nonzero" fill-opacity="1" /><path clip-path="url(#clip710)" d="M1655.08 1773.14 L1655.08 1794.66 L1649.23 1794.66 L1649.23 1773.33 Q1649.23 1768.27 1647.25 1765.76 Q1645.28 1763.24 1641.33 1763.24 Q1636.59 1763.24 1633.85 1766.26 Q1631.12 1769.29 1631.12 1774.51 L1631.12 1794.66 L1625.23 1794.66 L1625.23 1759.01 L1631.12 1759.01 L1631.12 1764.55 Q1633.22 1761.33 1636.05 1759.74 Q1638.91 1758.15 1642.64 1758.15 Q1648.78 1758.15 1651.93 1761.97 Q1655.08 1765.76 1655.08 1773.14 Z" fill="#000000" fill-rule="nonzero" fill-opacity="1" /><path clip-path="url(#clip710)" d="M1690.22 1776.42 Q1690.22 1770.05 1687.58 1766.55 Q1684.97 1763.05 1680.23 1763.05 Q1675.52 1763.05 1672.88 1766.55 Q1670.27 1770.05 1670.27 1776.42 Q1670.27 1782.75 1672.88 1786.25 Q1675.52 1789.75 1680.23 1789.75 Q1684.97 1789.75 1687.58 1786.25 Q1690.22 1782.75 1690.22 1776.42 M1696.08 1790.23 Q1696.08 1799.33 1692.04 1803.76 Q1687.99 1808.21 1679.65 1808.21 Q1676.57 1808.21 1673.83 1807.74 Q1671.09 1807.29 1668.51 1806.34 L1668.51 1800.64 Q1671.09 1802.04 1673.61 1802.71 Q1676.12 1803.38 1678.73 1803.38 Q1684.49 1803.38 1687.36 1800.35 Q1690.22 1797.36 1690.22 1791.28 L1690.22 1788.39 Q1688.41 1791.54 1685.57 1793.1 Q1682.74 1794.66 1678.8 1794.66 Q1672.24 1794.66 1668.23 1789.66 Q1664.22 1784.66 1664.22 1776.42 Q1664.22 1768.14 1668.23 1763.15 Q1672.24 1758.15 1678.8 1758.15 Q1682.74 1758.15 1685.57 1759.71 Q1688.41 1761.27 1690.22 1764.42 L1690.22 1759.01 L1696.08 1759.01 L1696.08 1790.23 Z" fill="#000000" fill-rule="nonzero" fill-opacity="1" /><path clip-path="url(#clip710)" d="M1752.32 1764.42 L1752.32 1745.13 L1758.18 1745.13 L1758.18 1794.66 L1752.32 1794.66 L1752.32 1789.31 Q1750.47 1792.49 1747.64 1794.05 Q1744.84 1795.58 1740.89 1795.58 Q1734.43 1795.58 1730.36 1790.42 Q1726.32 1785.27 1726.32 1776.86 Q1726.32 1768.46 1730.36 1763.3 Q1734.43 1758.15 1740.89 1758.15 Q1744.84 1758.15 1747.64 1759.71 Q1750.47 1761.24 1752.32 1764.42 M1732.36 1776.86 Q1732.36 1783.32 1735 1787.02 Q1737.68 1790.68 1742.33 1790.68 Q1746.97 1790.68 1749.65 1787.02 Q1752.32 1783.32 1752.32 1776.86 Q1752.32 1770.4 1749.65 1766.74 Q1746.97 1763.05 1742.33 1763.05 Q1737.68 1763.05 1735 1766.74 Q1732.36 1770.4 1732.36 1776.86 Z" fill="#000000" fill-rule="nonzero" fill-opacity="1" /><path clip-path="url(#clip710)" d="M1786.44 1776.74 Q1779.34 1776.74 1776.6 1778.36 Q1773.87 1779.98 1773.87 1783.9 Q1773.87 1787.02 1775.9 1788.86 Q1777.97 1790.68 1781.51 1790.68 Q1786.38 1790.68 1789.3 1787.24 Q1792.26 1783.77 1792.26 1778.04 L1792.26 1776.74 L1786.44 1776.74 M1798.12 1774.32 L1798.12 1794.66 L1792.26 1794.66 L1792.26 1789.24 Q1790.26 1792.49 1787.27 1794.05 Q1784.28 1795.58 1779.95 1795.58 Q1774.47 1795.58 1771.23 1792.52 Q1768.01 1789.44 1768.01 1784.28 Q1768.01 1778.26 1772.02 1775.21 Q1776.06 1772.15 1784.05 1772.15 L1792.26 1772.15 L1792.26 1771.58 Q1792.26 1767.54 1789.59 1765.34 Q1786.95 1763.11 1782.14 1763.11 Q1779.09 1763.11 1776.19 1763.85 Q1773.29 1764.58 1770.62 1766.04 L1770.62 1760.63 Q1773.84 1759.39 1776.86 1758.78 Q1779.88 1758.15 1782.75 1758.15 Q1790.48 1758.15 1794.3 1762.16 Q1798.12 1766.17 1798.12 1774.32 Z" fill="#000000" fill-rule="nonzero" fill-opacity="1" /><path clip-path="url(#clip710)" d="M1825.02 1797.97 Q1822.53 1804.33 1820.18 1806.27 Q1817.82 1808.21 1813.88 1808.21 L1809.2 1808.21 L1809.2 1803.31 L1812.63 1803.31 Q1815.05 1803.31 1816.39 1802.17 Q1817.73 1801.02 1819.35 1796.76 L1820.4 1794.08 L1805.98 1759.01 L1812.19 1759.01 L1823.33 1786.89 L1834.47 1759.01 L1840.68 1759.01 L1825.02 1797.97 Z" fill="#000000" fill-rule="nonzero" fill-opacity="1" /><path clip-path="url(#clip710)" d="M1871.49 1760.06 L1871.49 1765.6 Q1869 1764.32 1866.33 1763.69 Q1863.66 1763.05 1860.79 1763.05 Q1856.43 1763.05 1854.23 1764.39 Q1852.07 1765.72 1852.07 1768.4 Q1852.07 1770.43 1853.63 1771.61 Q1855.19 1772.76 1859.9 1773.81 L1861.9 1774.25 Q1868.14 1775.59 1870.75 1778.04 Q1873.4 1780.46 1873.4 1784.82 Q1873.4 1789.79 1869.45 1792.68 Q1865.53 1795.58 1858.66 1795.58 Q1855.79 1795.58 1852.67 1795.01 Q1849.59 1794.46 1846.15 1793.35 L1846.15 1787.3 Q1849.4 1788.99 1852.55 1789.85 Q1855.7 1790.68 1858.79 1790.68 Q1862.92 1790.68 1865.15 1789.28 Q1867.38 1787.84 1867.38 1785.27 Q1867.38 1782.88 1865.76 1781.61 Q1864.16 1780.33 1858.72 1779.16 L1856.69 1778.68 Q1851.24 1777.53 1848.82 1775.18 Q1846.4 1772.79 1846.4 1768.65 Q1846.4 1763.62 1849.97 1760.89 Q1853.53 1758.15 1860.09 1758.15 Q1863.34 1758.15 1866.2 1758.63 Q1869.07 1759.1 1871.49 1760.06 Z" fill="#000000" fill-rule="nonzero" fill-opacity="1" /><path clip-path="url(#clip710)" d="M1881.8 1745.19 L1886.89 1745.19 Q1891.66 1752.71 1894.02 1759.9 Q1896.41 1767.09 1896.41 1774.19 Q1896.41 1781.32 1894.02 1788.54 Q1891.66 1795.77 1886.89 1803.25 L1881.8 1803.25 Q1886.03 1795.96 1888.1 1788.77 Q1890.2 1781.54 1890.2 1774.19 Q1890.2 1766.84 1888.1 1759.68 Q1886.03 1752.51 1881.8 1745.19 Z" fill="#000000" fill-rule="nonzero" fill-opacity="1" /><polyline clip-path="url(#clip710)" style="stroke:#000000; stroke-linecap:round; stroke-linejoin:round; stroke-width:4; stroke-opacity:1; fill:none" points="532.517,1630.83 532.517,125.984 "/>
<polyline clip-path="url(#clip710)" style="stroke:#000000; stroke-linecap:round; stroke-linejoin:round; stroke-width:4; stroke-opacity:1; fill:none" points="532.517,1515.27 551.414,1515.27 "/>
<polyline clip-path="url(#clip710)" style="stroke:#000000; stroke-linecap:round; stroke-linejoin:round; stroke-width:4; stroke-opacity:1; fill:none" points="532.517,1232.62 551.414,1232.62 "/>
<polyline clip-path="url(#clip710)" style="stroke:#000000; stroke-linecap:round; stroke-linejoin:round; stroke-width:4; stroke-opacity:1; fill:none" points="532.517,949.974 551.414,949.974 "/>
<polyline clip-path="url(#clip710)" style="stroke:#000000; stroke-linecap:round; stroke-linejoin:round; stroke-width:4; stroke-opacity:1; fill:none" points="532.517,667.325 551.414,667.325 "/>
<polyline clip-path="url(#clip710)" style="stroke:#000000; stroke-linecap:round; stroke-linejoin:round; stroke-width:4; stroke-opacity:1; fill:none" points="532.517,384.676 551.414,384.676 "/>
<path clip-path="url(#clip710)" d="M320.379 1515.84 L357.474 1515.84 L357.474 1520.76 L320.379 1520.76 L320.379 1515.84 Z" fill="#000000" fill-rule="nonzero" fill-opacity="1" /><path clip-path="url(#clip710)" d="M382.589 1497.52 Q378.075 1497.52 375.789 1501.98 Q373.533 1506.4 373.533 1515.32 Q373.533 1524.2 375.789 1528.65 Q378.075 1533.08 382.589 1533.08 Q387.132 1533.08 389.389 1528.65 Q391.675 1524.2 391.675 1515.32 Q391.675 1506.4 389.389 1501.98 Q387.132 1497.52 382.589 1497.52 M382.589 1492.89 Q389.852 1492.89 393.671 1498.65 Q397.52 1504.38 397.52 1515.32 Q397.52 1526.22 393.671 1531.98 Q389.852 1537.71 382.589 1537.71 Q375.326 1537.71 371.478 1531.98 Q367.659 1526.22 367.659 1515.32 Q367.659 1504.38 371.478 1498.65 Q375.326 1492.89 382.589 1492.89 Z" fill="#000000" fill-rule="nonzero" fill-opacity="1" /><path clip-path="url(#clip710)" d="M407.792 1529.52 L413.897 1529.52 L413.897 1536.87 L407.792 1536.87 L407.792 1529.52 Z" fill="#000000" fill-rule="nonzero" fill-opacity="1" /><path clip-path="url(#clip710)" d="M439.128 1497.52 Q434.614 1497.52 432.328 1501.98 Q430.072 1506.4 430.072 1515.32 Q430.072 1524.2 432.328 1528.65 Q434.614 1533.08 439.128 1533.08 Q443.671 1533.08 445.928 1528.65 Q448.214 1524.2 448.214 1515.32 Q448.214 1506.4 445.928 1501.98 Q443.671 1497.52 439.128 1497.52 M439.128 1492.89 Q446.391 1492.89 450.21 1498.65 Q454.059 1504.38 454.059 1515.32 Q454.059 1526.22 450.21 1531.98 Q446.391 1537.71 439.128 1537.71 Q431.866 1537.71 428.017 1531.98 Q424.198 1526.22 424.198 1515.32 Q424.198 1504.38 428.017 1498.65 Q431.866 1492.89 439.128 1492.89 Z" fill="#000000" fill-rule="nonzero" fill-opacity="1" /><path clip-path="url(#clip710)" d="M464.388 1493.67 L487.334 1493.67 L487.334 1498.59 L469.741 1498.59 L469.741 1509.18 Q471.015 1508.75 472.288 1508.54 Q473.561 1508.31 474.834 1508.31 Q482.068 1508.31 486.292 1512.28 Q490.517 1516.24 490.517 1523.01 Q490.517 1529.99 486.177 1533.86 Q481.836 1537.71 473.937 1537.71 Q471.217 1537.71 468.382 1537.25 Q465.575 1536.79 462.566 1535.86 L462.566 1529.99 Q465.17 1531.4 467.948 1532.1 Q470.725 1532.79 473.821 1532.79 Q478.827 1532.79 481.75 1530.16 Q484.672 1527.53 484.672 1523.01 Q484.672 1518.5 481.75 1515.87 Q478.827 1513.23 473.821 1513.23 Q471.478 1513.23 469.134 1513.75 Q466.819 1514.27 464.388 1515.37 L464.388 1493.67 Z" fill="#000000" fill-rule="nonzero" fill-opacity="1" /><path clip-path="url(#clip710)" d="M381.345 1214.87 Q376.831 1214.87 374.545 1219.33 Q372.288 1223.75 372.288 1232.67 Q372.288 1241.55 374.545 1246.01 Q376.831 1250.43 381.345 1250.43 Q385.888 1250.43 388.145 1246.01 Q390.431 1241.55 390.431 1232.67 Q390.431 1223.75 388.145 1219.33 Q385.888 1214.87 381.345 1214.87 M381.345 1210.24 Q388.608 1210.24 392.427 1216 Q396.275 1221.73 396.275 1232.67 Q396.275 1243.57 392.427 1249.33 Q388.608 1255.06 381.345 1255.06 Q374.082 1255.06 370.234 1249.33 Q366.414 1243.57 366.414 1232.67 Q366.414 1221.73 370.234 1216 Q374.082 1210.24 381.345 1210.24 Z" fill="#000000" fill-rule="nonzero" fill-opacity="1" /><path clip-path="url(#clip710)" d="M406.547 1246.87 L412.653 1246.87 L412.653 1254.22 L406.547 1254.22 L406.547 1246.87 Z" fill="#000000" fill-rule="nonzero" fill-opacity="1" /><path clip-path="url(#clip710)" d="M437.884 1214.87 Q433.37 1214.87 431.084 1219.33 Q428.827 1223.75 428.827 1232.67 Q428.827 1241.55 431.084 1246.01 Q433.37 1250.43 437.884 1250.43 Q442.427 1250.43 444.684 1246.01 Q446.97 1241.55 446.97 1232.67 Q446.97 1223.75 444.684 1219.33 Q442.427 1214.87 437.884 1214.87 M437.884 1210.24 Q445.147 1210.24 448.966 1216 Q452.814 1221.73 452.814 1232.67 Q452.814 1243.57 448.966 1249.33 Q445.147 1255.06 437.884 1255.06 Q430.621 1255.06 426.773 1249.33 Q422.954 1243.57 422.954 1232.67 Q422.954 1221.73 426.773 1216 Q430.621 1210.24 437.884 1210.24 Z" fill="#000000" fill-rule="nonzero" fill-opacity="1" /><path clip-path="url(#clip710)" d="M475.586 1214.87 Q471.072 1214.87 468.787 1219.33 Q466.53 1223.75 466.53 1232.67 Q466.53 1241.55 468.787 1246.01 Q471.072 1250.43 475.586 1250.43 Q480.129 1250.43 482.386 1246.01 Q484.672 1241.55 484.672 1232.67 Q484.672 1223.75 482.386 1219.33 Q480.129 1214.87 475.586 1214.87 M475.586 1210.24 Q482.849 1210.24 486.668 1216 Q490.517 1221.73 490.517 1232.67 Q490.517 1243.57 486.668 1249.33 Q482.849 1255.06 475.586 1255.06 Q468.324 1255.06 464.475 1249.33 Q460.656 1243.57 460.656 1232.67 Q460.656 1221.73 464.475 1216 Q468.324 1210.24 475.586 1210.24 Z" fill="#000000" fill-rule="nonzero" fill-opacity="1" /><path clip-path="url(#clip710)" d="M382.589 932.222 Q378.075 932.222 375.789 936.678 Q373.533 941.105 373.533 950.017 Q373.533 958.9 375.789 963.356 Q378.075 967.783 382.589 967.783 Q387.132 967.783 389.389 963.356 Q391.675 958.9 391.675 950.017 Q391.675 941.105 389.389 936.678 Q387.132 932.222 382.589 932.222 M382.589 927.593 Q389.852 927.593 393.671 933.351 Q397.52 939.08 397.52 950.017 Q397.52 960.926 393.671 966.684 Q389.852 972.413 382.589 972.413 Q375.326 972.413 371.478 966.684 Q367.659 960.926 367.659 950.017 Q367.659 939.08 371.478 933.351 Q375.326 927.593 382.589 927.593 Z" fill="#000000" fill-rule="nonzero" fill-opacity="1" /><path clip-path="url(#clip710)" d="M407.792 964.224 L413.897 964.224 L413.897 971.574 L407.792 971.574 L407.792 964.224 Z" fill="#000000" fill-rule="nonzero" fill-opacity="1" /><path clip-path="url(#clip710)" d="M439.128 932.222 Q434.614 932.222 432.328 936.678 Q430.072 941.105 430.072 950.017 Q430.072 958.9 432.328 963.356 Q434.614 967.783 439.128 967.783 Q443.671 967.783 445.928 963.356 Q448.214 958.9 448.214 950.017 Q448.214 941.105 445.928 936.678 Q443.671 932.222 439.128 932.222 M439.128 927.593 Q446.391 927.593 450.21 933.351 Q454.059 939.08 454.059 950.017 Q454.059 960.926 450.21 966.684 Q446.391 972.413 439.128 972.413 Q431.866 972.413 428.017 966.684 Q424.198 960.926 424.198 950.017 Q424.198 939.08 428.017 933.351 Q431.866 927.593 439.128 927.593 Z" fill="#000000" fill-rule="nonzero" fill-opacity="1" /><path clip-path="url(#clip710)" d="M464.388 928.374 L487.334 928.374 L487.334 933.293 L469.741 933.293 L469.741 943.883 Q471.015 943.449 472.288 943.246 Q473.561 943.015 474.834 943.015 Q482.068 943.015 486.292 946.979 Q490.517 950.943 490.517 957.714 Q490.517 964.687 486.177 968.565 Q481.836 972.413 473.937 972.413 Q471.217 972.413 468.382 971.95 Q465.575 971.487 462.566 970.561 L462.566 964.687 Q465.17 966.105 467.948 966.8 Q470.725 967.494 473.821 967.494 Q478.827 967.494 481.75 964.861 Q484.672 962.228 484.672 957.714 Q484.672 953.2 481.75 950.567 Q478.827 947.934 473.821 947.934 Q471.478 947.934 469.134 948.455 Q466.819 948.976 464.388 950.075 L464.388 928.374 Z" fill="#000000" fill-rule="nonzero" fill-opacity="1" /><path clip-path="url(#clip710)" d="M381.345 649.573 Q376.831 649.573 374.545 654.029 Q372.288 658.456 372.288 667.368 Q372.288 676.251 374.545 680.707 Q376.831 685.134 381.345 685.134 Q385.888 685.134 388.145 680.707 Q390.431 676.251 390.431 667.368 Q390.431 658.456 388.145 654.029 Q385.888 649.573 381.345 649.573 M381.345 644.944 Q388.608 644.944 392.427 650.702 Q396.275 656.431 396.275 667.368 Q396.275 678.277 392.427 684.035 Q388.608 689.764 381.345 689.764 Q374.082 689.764 370.234 684.035 Q366.414 678.277 366.414 667.368 Q366.414 656.431 370.234 650.702 Q374.082 644.944 381.345 644.944 Z" fill="#000000" fill-rule="nonzero" fill-opacity="1" /><path clip-path="url(#clip710)" d="M406.547 681.575 L412.653 681.575 L412.653 688.925 L406.547 688.925 L406.547 681.575 Z" fill="#000000" fill-rule="nonzero" fill-opacity="1" /><path clip-path="url(#clip710)" d="M426.397 684.006 L435.945 684.006 L435.945 651.049 L425.558 653.132 L425.558 647.808 L435.887 645.725 L441.732 645.725 L441.732 684.006 L451.281 684.006 L451.281 688.925 L426.397 688.925 L426.397 684.006 Z" fill="#000000" fill-rule="nonzero" fill-opacity="1" /><path clip-path="url(#clip710)" d="M475.586 649.573 Q471.072 649.573 468.787 654.029 Q466.53 658.456 466.53 667.368 Q466.53 676.251 468.787 680.707 Q471.072 685.134 475.586 685.134 Q480.129 685.134 482.386 680.707 Q484.672 676.251 484.672 667.368 Q484.672 658.456 482.386 654.029 Q480.129 649.573 475.586 649.573 M475.586 644.944 Q482.849 644.944 486.668 650.702 Q490.517 656.431 490.517 667.368 Q490.517 678.277 486.668 684.035 Q482.849 689.764 475.586 689.764 Q468.324 689.764 464.475 684.035 Q460.656 678.277 460.656 667.368 Q460.656 656.431 464.475 650.702 Q468.324 644.944 475.586 644.944 Z" fill="#000000" fill-rule="nonzero" fill-opacity="1" /><path clip-path="url(#clip710)" d="M382.589 366.924 Q378.075 366.924 375.789 371.38 Q373.533 375.807 373.533 384.719 Q373.533 393.602 375.789 398.058 Q378.075 402.485 382.589 402.485 Q387.132 402.485 389.389 398.058 Q391.675 393.602 391.675 384.719 Q391.675 375.807 389.389 371.38 Q387.132 366.924 382.589 366.924 M382.589 362.295 Q389.852 362.295 393.671 368.053 Q397.52 373.782 397.52 384.719 Q397.52 395.628 393.671 401.386 Q389.852 407.115 382.589 407.115 Q375.326 407.115 371.478 401.386 Q367.659 395.628 367.659 384.719 Q367.659 373.782 371.478 368.053 Q375.326 362.295 382.589 362.295 Z" fill="#000000" fill-rule="nonzero" fill-opacity="1" /><path clip-path="url(#clip710)" d="M407.792 398.926 L413.897 398.926 L413.897 406.276 L407.792 406.276 L407.792 398.926 Z" fill="#000000" fill-rule="nonzero" fill-opacity="1" /><path clip-path="url(#clip710)" d="M427.641 401.357 L437.19 401.357 L437.19 368.4 L426.802 370.483 L426.802 365.159 L437.132 363.076 L442.977 363.076 L442.977 401.357 L452.525 401.357 L452.525 406.276 L427.641 406.276 L427.641 401.357 Z" fill="#000000" fill-rule="nonzero" fill-opacity="1" /><path clip-path="url(#clip710)" d="M464.388 363.076 L487.334 363.076 L487.334 367.995 L469.741 367.995 L469.741 378.585 Q471.015 378.151 472.288 377.948 Q473.561 377.717 474.834 377.717 Q482.068 377.717 486.292 381.681 Q490.517 385.645 490.517 392.416 Q490.517 399.389 486.177 403.267 Q481.836 407.115 473.937 407.115 Q471.217 407.115 468.382 406.652 Q465.575 406.189 462.566 405.263 L462.566 399.389 Q465.17 400.807 467.948 401.501 Q470.725 402.196 473.821 402.196 Q478.827 402.196 481.75 399.563 Q484.672 396.93 484.672 392.416 Q484.672 387.902 481.75 385.269 Q478.827 382.636 473.821 382.636 Q471.478 382.636 469.134 383.157 Q466.819 383.678 464.388 384.777 L464.388 363.076 Z" fill="#000000" fill-rule="nonzero" fill-opacity="1" /><path clip-path="url(#clip710)" d="M222.937 1025.3 L246.585 1034.02 L246.585 1016.54 L222.937 1025.3 M216.603 1028.93 L216.603 1021.64 L264.123 1003.53 L264.123 1010.21 L251.933 1014.54 L251.933 1035.96 L264.123 1040.29 L264.123 1047.07 L216.603 1028.93 Z" fill="#000000" fill-rule="nonzero" fill-opacity="1" /><path clip-path="url(#clip710)" d="M220.263 962.149 L227.043 962.149 Q224.019 965.395 222.523 969.087 Q221.027 972.748 221.027 976.885 Q221.027 985.033 226.024 989.362 Q230.989 993.691 240.411 993.691 Q249.8 993.691 254.797 989.362 Q259.762 985.033 259.762 976.885 Q259.762 972.748 258.266 969.087 Q256.77 965.395 253.747 962.149 L260.463 962.149 Q262.754 965.523 263.9 969.31 Q265.046 973.066 265.046 977.267 Q265.046 988.057 258.457 994.264 Q251.837 1000.47 240.411 1000.47 Q228.952 1000.47 222.364 994.264 Q215.743 988.057 215.743 977.267 Q215.743 973.002 216.889 969.247 Q218.003 965.459 220.263 962.149 Z" fill="#000000" fill-rule="nonzero" fill-opacity="1" /><path clip-path="url(#clip710)" d="M216.603 952.218 L216.603 924.909 L222.014 924.909 L222.014 945.789 L236.018 945.789 L236.018 926.946 L241.429 926.946 L241.429 945.789 L264.123 945.789 L264.123 952.218 L216.603 952.218 Z" fill="#000000" fill-rule="nonzero" fill-opacity="1" /><path clip-path="url(#clip710)" d="M232.581 880.445 Q232.581 885.156 236.273 887.893 Q239.933 890.63 246.331 890.63 Q252.728 890.63 256.42 887.925 Q260.081 885.187 260.081 880.445 Q260.081 875.766 256.389 873.029 Q252.696 870.292 246.331 870.292 Q239.997 870.292 236.305 873.029 Q232.581 875.766 232.581 880.445 M227.616 880.445 Q227.616 872.806 232.581 868.446 Q237.546 864.085 246.331 864.085 Q255.084 864.085 260.081 868.446 Q265.046 872.806 265.046 880.445 Q265.046 888.116 260.081 892.476 Q255.084 896.805 246.331 896.805 Q237.546 896.805 232.581 892.476 Q227.616 888.116 227.616 880.445 Z" fill="#000000" fill-rule="nonzero" fill-opacity="1" /><path clip-path="url(#clip710)" d="M214.598 836.331 L219.467 836.331 L219.467 841.932 Q219.467 845.083 220.741 846.325 Q222.014 847.534 225.324 847.534 L228.475 847.534 L228.475 837.89 L233.026 837.89 L233.026 847.534 L264.123 847.534 L264.123 853.422 L233.026 853.422 L233.026 859.024 L228.475 859.024 L228.475 853.422 L225.992 853.422 Q220.04 853.422 217.335 850.653 Q214.598 847.884 214.598 841.869 L214.598 836.331 Z" fill="#000000" fill-rule="nonzero" fill-opacity="1" /><path clip-path="url(#clip710)" d="M257.343 778.053 L244.58 778.053 L244.58 788.556 L239.297 788.556 L239.297 771.687 L259.699 771.687 Q262.34 775.411 263.709 779.899 Q265.046 784.386 265.046 789.479 Q265.046 800.619 258.553 806.921 Q252.028 813.191 240.411 813.191 Q228.761 813.191 222.268 806.921 Q215.743 800.619 215.743 789.479 Q215.743 784.832 216.889 780.662 Q218.035 776.461 220.263 772.928 L227.106 772.928 Q224.083 776.493 222.555 780.503 Q221.027 784.514 221.027 788.938 Q221.027 797.659 225.897 802.051 Q230.767 806.412 240.411 806.412 Q250.023 806.412 254.893 802.051 Q259.762 797.659 259.762 788.938 Q259.762 785.532 259.189 782.859 Q258.585 780.185 257.343 778.053 Z" fill="#000000" fill-rule="nonzero" fill-opacity="1" /><path clip-path="url(#clip710)" d="M274.945 733.111 L279.496 733.111 L279.496 766.976 L274.945 766.976 L274.945 733.111 Z" fill="#000000" fill-rule="nonzero" fill-opacity="1" /><path clip-path="url(#clip710)" d="M218.353 721.811 L228.475 721.811 L228.475 709.748 L233.026 709.748 L233.026 721.811 L252.378 721.811 Q256.739 721.811 257.98 720.634 Q259.221 719.424 259.221 715.764 L259.221 709.748 L264.123 709.748 L264.123 715.764 Q264.123 722.544 261.608 725.122 Q259.062 727.7 252.378 727.7 L233.026 727.7 L233.026 731.997 L228.475 731.997 L228.475 727.7 L218.353 727.7 L218.353 721.811 Z" fill="#000000" fill-rule="nonzero" fill-opacity="1" /><polyline clip-path="url(#clip711)" style="stroke:#d45e00; stroke-linecap:round; stroke-linejoin:round; stroke-width:8; stroke-opacity:1; fill:none" stroke-dasharray="32, 20" points="593.125,168.574 601.174,1163.28 609.223,1332.18 617.272,1287.47 625.321,1369.98 633.37,1443.43 641.419,881.318 649.468,1313.68 657.517,878.044 665.566,1336.41 673.615,1216.55 681.664,1322.18 689.712,1328.84 697.761,1313.79 705.81,1527.34 713.859,1081.02 721.908,1211.36 729.957,1274.96 738.006,1189.82 746.055,1055.04 754.104,1334.63 762.153,1558.18 770.202,1499.08 778.251,1358.35 786.3,1353.36 794.349,1450.33 802.398,1244.38 810.446,1130.6 818.495,1189.47 826.544,1398.51 834.593,1588.24 842.642,1522.57 850.691,1169.97 858.74,1159.67 866.789,1212.53 874.838,1003.17 882.887,1271.28 890.936,1197.67 898.985,1325.99 907.034,1404.91 915.083,1411.56 923.132,1217.77 931.18,1214.67 939.229,1262.35 947.278,1256.04 955.327,1418.11 963.376,1122.55 971.425,1267.2 979.474,1334.13 987.523,1314.54 995.572,1313.87 1003.62,1172.96 1011.67,1258.8 1019.72,1108.69 1027.77,1346.84 1035.82,1264.92 1043.87,1396.12 1051.91,1250.13 1059.96,1205.77 1068.01,1277.4 1076.06,1201.42 1084.11,1431.59 1092.16,1001.59 1100.21,1223.25 1108.26,1321.69 1116.31,1278.37 1124.35,1338.57 1132.4,1187.95 1140.45,1178.16 1148.5,1130.51 1156.55,1293.85 1164.6,1047.54 1172.65,1205.88 1180.7,1361.79 1188.75,1276.82 1196.8,1186.45 1204.84,1274.36 1212.89,1243.84 1220.94,1295.75 1228.99,1378.19 1237.04,1016.88 1245.09,983.491 1253.14,1221.62 1261.19,1388.78 1269.24,1361.06 1277.28,1355.97 1285.33,1158.63 1293.38,1138.4 1301.43,1286.32 1309.48,1181.84 1317.53,1278.47 1325.58,1315.18 1333.63,1451.91 1341.68,1350.94 1349.72,1242.06 1357.77,1036.66 1365.82,773.894 1373.87,1120.67 1381.92,1252.94 1389.97,1175.62 1398.02,1135.13 1406.07,1301.67 1414.12,1156.58 1422.17,1218.66 1430.21,1289.49 1438.26,1051.02 1446.31,1308.64 1454.36,1257.8 1462.41,1354.28 1470.46,1145.58 1478.51,1198.17 1486.56,1172.55 1494.61,1243.64 1502.65,1452.72 1510.7,1277.94 1518.75,1246.01 1526.8,1011.65 1534.85,1182.84 1542.9,1193.95 1550.95,1264.95 1559,1233.35 1567.05,1214.75 1575.1,1226.62 1583.14,1316.55 1591.19,1279.66 1599.24,1187.02 1607.29,1291.29 1615.34,1273.22 1623.39,1329.61 1631.44,1217.6 1639.49,1282.2 1647.54,1383.87 1655.58,1133.32 1663.63,1157.07 1671.68,923.925 1679.73,1395.02 1687.78,1277.36 1695.83,1213.05 1703.88,1251.36 1711.93,1463.66 1719.98,1425.37 1728.02,1153.68 1736.07,1345.43 1744.12,1275.62 1752.17,1277.79 1760.22,1163.62 1768.27,1141.73 1776.32,1200.23 1784.37,1174.47 1792.42,1237.42 1800.47,936.446 1808.51,1084.1 1816.56,1092.26 1824.61,967.124 1832.66,1060.7 1840.71,1191.46 1848.76,1318.03 1856.81,1184.66 1864.86,1076.79 1872.91,1102.18 1880.95,1328.65 1889,1280.25 1897.05,1153.75 1905.1,1351.55 1913.15,1300.88 1921.2,1198.06 1929.25,1173.81 1937.3,1157.75 1945.35,1244.54 1953.39,1440.19 1961.44,1178.49 1969.49,1118.77 1977.54,1164.3 1985.59,1424.86 1993.64,1183.31 2001.69,1270.48 2009.74,1348.58 2017.79,1210.14 2025.84,1158.44 2033.88,1172.69 2041.93,1490.75 2049.98,1324.17 2058.03,1335.15 2066.08,1145.57 2074.13,1158.76 2082.18,1115.6 2090.23,1063.07 2098.28,1281.7 2106.32,1349.9 2114.37,1422.05 2122.42,1270.26 2130.47,1312.29 2138.52,1175.58 2146.57,1185.88 2154.62,1277.98 2162.67,1157.79 2170.72,1282.39 2178.76,1369.14 2186.81,1226.59 2194.86,1234.49 2202.91,1160.51 2210.96,1195.92 2219.01,1218.27 2227.06,1379.78 2235.11,1225.47 2243.16,1101.86 2251.21,1039.8 2259.25,1303.69 2267.3,1289.64 2275.35,1196.05 2283.4,1299.49 2291.45,1128.72 2299.5,1256.24 2307.55,1181.08 2315.6,1285.05 2323.65,1290.39 2331.69,1087.73 2339.74,1202.49 2347.79,1097 2355.84,1228.82 2363.89,1314.41 2371.94,1488.59 2379.99,1191.43 2388.04,1211.81 2396.09,1233.1 2404.14,1279.37 2412.18,1372.08 2420.23,1514.57 2428.28,1240.26 2436.33,1296.02 2444.38,1168.44 2452.43,1130.83 2460.48,1323.3 2468.53,1371.49 2476.58,1291.36 2484.62,1370.25 2492.67,1385.97 2500.72,1090.82 2508.77,1162.58 2516.82,1213.9 2524.87,1210.36 2532.92,1198.8 2540.97,1237.39 2549.02,1208.1 2557.06,1035.75 2565.11,1205.24 2573.16,1303.8 2581.21,1198.07 2589.26,1180.76 2597.31,1208.61 2605.36,1182.29 2613.41,1329.12 "/>
<polyline clip-path="url(#clip711)" style="stroke:#009e73; stroke-linecap:round; stroke-linejoin:round; stroke-width:8; stroke-opacity:1; fill:none" points="593.125,829.774 601.174,1164.14 609.223,1192.35 617.272,1209.36 625.321,1237.73 633.37,1220.89 641.419,1226.64 649.468,1218.34 657.517,1208.88 665.566,1214.56 673.615,1212.19 681.664,1219.46 689.712,1228.9 697.761,1226.08 705.81,1219.51 713.859,1232.67 721.908,1219.98 729.957,1242.37 738.006,1220.51 746.055,1222.26 754.104,1233.83 762.153,1246.42 770.202,1224.89 778.251,1243.1 786.3,1225.02 794.349,1229.87 802.398,1239.75 810.446,1235.22 818.495,1236.39 826.544,1218.6 834.593,1219.5 842.642,1241.9 850.691,1212.44 858.74,1231.3 866.789,1243.37 874.838,1228.7 882.887,1229.08 890.936,1252.35 898.985,1240.7 907.034,1231.38 915.083,1216.59 923.132,1234.92 931.18,1234.17 939.229,1227.21 947.278,1240.43 955.327,1235.65 963.376,1236.82 971.425,1235.79 979.474,1245.88 987.523,1230.9 995.572,1235.13 1003.62,1226.41 1011.67,1230.04 1019.72,1226.39 1027.77,1214.74 1035.82,1236.22 1043.87,1242.33 1051.91,1242.14 1059.96,1236.1 1068.01,1242.68 1076.06,1234.49 1084.11,1240.16 1092.16,1231.66 1100.21,1230.29 1108.26,1245.07 1116.31,1225.38 1124.35,1239.65 1132.4,1245.47 1140.45,1233.49 1148.5,1222.34 1156.55,1239.01 1164.6,1228.16 1172.65,1228.46 1180.7,1226.48 1188.75,1237.68 1196.8,1232.23 1204.84,1245.26 1212.89,1248.05 1220.94,1227.17 1228.99,1232.95 1237.04,1230.3 1245.09,1240.79 1253.14,1221.24 1261.19,1242.96 1269.24,1241.2 1277.28,1243.34 1285.33,1246.73 1293.38,1227.2 1301.43,1222.09 1309.48,1240.74 1317.53,1240.89 1325.58,1225 1333.63,1227.42 1341.68,1227.25 1349.72,1235.89 1357.77,1228.53 1365.82,1237.36 1373.87,1246.58 1381.92,1219.77 1389.97,1218.92 1398.02,1241.57 1406.07,1235.51 1414.12,1225.27 1422.17,1234.44 1430.21,1233.54 1438.26,1241.88 1446.31,1229.24 1454.36,1232.2 1462.41,1235.22 1470.46,1242.57 1478.51,1247.25 1486.56,1247.07 1494.61,1241.08 1502.65,1236.55 1510.7,1239.87 1518.75,1249.79 1526.8,1219.27 1534.85,1241.16 1542.9,1236.93 1550.95,1226.73 1559,1237.9 1567.05,1245.66 1575.1,1246.21 1583.14,1231.74 1591.19,1239.13 1599.24,1235.19 1607.29,1243.66 1615.34,1253.45 1623.39,1225.47 1631.44,1250.2 1639.49,1242.02 1647.54,1227.54 1655.58,1230.77 1663.63,1236.48 1671.68,1247.54 1679.73,1224.12 1687.78,1224.59 1695.83,1241.4 1703.88,1238.51 1711.93,1243.8 1719.98,1222.01 1728.02,1226.44 1736.07,1236.7 1744.12,1231.17 1752.17,1225.9 1760.22,1230.93 1768.27,1249.09 1776.32,1237.03 1784.37,1252.71 1792.42,1240.24 1800.47,1222.94 1808.51,1243.15 1816.56,1240.61 1824.61,1234.9 1832.66,1233.36 1840.71,1242.36 1848.76,1225.76 1856.81,1231.23 1864.86,1228.74 1872.91,1238.53 1880.95,1245.11 1889,1225.12 1897.05,1242.95 1905.1,1229.61 1913.15,1227.17 1921.2,1234.48 1929.25,1217.78 1937.3,1237.95 1945.35,1232.67 1953.39,1209.21 1961.44,1238.99 1969.49,1220.93 1977.54,1229.87 1985.59,1239.37 1993.64,1244.33 2001.69,1225.52 2009.74,1240.72 2017.79,1246.41 2025.84,1242.02 2033.88,1246.75 2041.93,1237.24 2049.98,1246.63 2058.03,1237.84 2066.08,1231.91 2074.13,1232.73 2082.18,1244.35 2090.23,1219.14 2098.28,1244.6 2106.32,1239.17 2114.37,1219.24 2122.42,1233.77 2130.47,1239.6 2138.52,1229.33 2146.57,1233.97 2154.62,1236.54 2162.67,1222.45 2170.72,1222.06 2178.76,1226.35 2186.81,1235.36 2194.86,1235.77 2202.91,1233.02 2210.96,1248.1 2219.01,1247.76 2227.06,1232.49 2235.11,1235.59 2243.16,1230.64 2251.21,1238.95 2259.25,1229.32 2267.3,1236.92 2275.35,1238.92 2283.4,1241.08 2291.45,1236.98 2299.5,1233.74 2307.55,1239.62 2315.6,1235.6 2323.65,1226.96 2331.69,1228.41 2339.74,1238.1 2347.79,1239.73 2355.84,1239.97 2363.89,1247.17 2371.94,1232.34 2379.99,1244.73 2388.04,1236.18 2396.09,1239.88 2404.14,1236.25 2412.18,1231.49 2420.23,1219.59 2428.28,1221.26 2436.33,1240.44 2444.38,1223.26 2452.43,1239.16 2460.48,1240.32 2468.53,1235.72 2476.58,1232.37 2484.62,1229.81 2492.67,1233.13 2500.72,1241.13 2508.77,1247.4 2516.82,1237.02 2524.87,1241.32 2532.92,1227.77 2540.97,1238.37 2549.02,1246.54 2557.06,1239.68 2565.11,1231.52 2573.16,1240.58 2581.21,1234.88 2589.26,1231.53 2597.31,1238.96 2605.36,1232.72 2613.41,1230.5 "/>
<path clip-path="url(#clip711)" d="M593.125 1047.31 L601.174 1336.67 L609.223 1364.52 L617.272 1397.56 L625.321 1417.89 L633.37 1402.59 L641.419 1391.61 L649.468 1378.58 L657.517 1378.88 L665.566 1392.99 L673.615 1380.31 L681.664 1370.26 L689.712 1398.78 L697.761 1368.13 L705.81 1378.7 L713.859 1386.64 L721.908 1363.73 L729.957 1405.31 L738.006 1372.91 L746.055 1397.45 L754.104 1363.64 L762.153 1390.07 L770.202 1370 L778.251 1387.79 L786.3 1371.09 L794.349 1348.2 L802.398 1398.5 L810.446 1398.61 L818.495 1389.68 L826.544 1359.46 L834.593 1338.3 L842.642 1379.72 L850.691 1361.23 L858.74 1377.9 L866.789 1374.37 L874.838 1366.67 L882.887 1370.61 L890.936 1388.86 L898.985 1383.42 L907.034 1383.69 L915.083 1374.15 L923.132 1372.71 L931.18 1376.53 L939.229 1383.86 L947.278 1392.91 L955.327 1375.62 L963.376 1383.13 L971.425 1372.92 L979.474 1385.5 L987.523 1373.17 L995.572 1383.95 L1003.62 1378.62 L1011.67 1371.46 L1019.72 1359.87 L1027.77 1350.64 L1035.82 1385.92 L1043.87 1372.45 L1051.91 1387.73 L1059.96 1381.55 L1068.01 1377.05 L1076.06 1379.26 L1084.11 1383.63 L1092.16 1358.44 L1100.21 1367.05 L1108.26 1397.41 L1116.31 1361.13 L1124.35 1397.74 L1132.4 1380.26 L1140.45 1385.89 L1148.5 1358.06 L1156.55 1381.68 L1164.6 1388.18 L1172.65 1366.12 L1180.7 1367.98 L1188.75 1384.71 L1196.8 1382.24 L1204.84 1386.58 L1212.89 1390.96 L1220.94 1363.81 L1228.99 1367.26 L1237.04 1370.27 L1245.09 1406.3 L1253.14 1363.49 L1261.19 1394.69 L1269.24 1374.2 L1277.28 1385.45 L1285.33 1393.78 L1293.38 1386.47 L1301.43 1381.92 L1309.48 1370.82 L1317.53 1370.61 L1325.58 1365.34 L1333.63 1373.44 L1341.68 1382.94 L1349.72 1373.51 L1357.77 1358.44 L1365.82 1371.06 L1373.87 1367.01 L1381.92 1362.31 L1389.97 1376.2 L1398.02 1380.26 L1406.07 1390.03 L1414.12 1381.03 L1422.17 1386.66 L1430.21 1374.96 L1438.26 1387.76 L1446.31 1362.92 L1454.36 1354.98 L1462.41 1371.34 L1470.46 1390.33 L1478.51 1387.76 L1486.56 1390.29 L1494.61 1367.11 L1502.65 1364.37 L1510.7 1376.07 L1518.75 1394.21 L1526.8 1363.26 L1534.85 1368.54 L1542.9 1359.73 L1550.95 1378.71 L1559 1361.97 L1567.05 1359.37 L1575.1 1390.49 L1583.14 1382.69 L1591.19 1391.66 L1599.24 1382.23 L1607.29 1378.77 L1615.34 1381.22 L1623.39 1381.99 L1631.44 1382.01 L1639.49 1372.67 L1647.54 1384.82 L1655.58 1398.06 L1663.63 1399.77 L1671.68 1396.66 L1679.73 1374.79 L1687.78 1353.32 L1695.83 1373.1 L1703.88 1380.63 L1711.93 1393.32 L1719.98 1359.03 L1728.02 1365.25 L1736.07 1370.08 L1744.12 1362.4 L1752.17 1346.48 L1760.22 1365.39 L1768.27 1385.13 L1776.32 1381.29 L1784.37 1405.89 L1792.42 1393.22 L1800.47 1360.46 L1808.51 1390.6 L1816.56 1383.49 L1824.61 1363.84 L1832.66 1375.71 L1840.71 1380.55 L1848.76 1363.56 L1856.81 1374.08 L1864.86 1376.66 L1872.91 1386.17 L1880.95 1373.8 L1889 1345.25 L1897.05 1380.04 L1905.1 1374.64 L1913.15 1357.28 L1921.2 1377.6 L1929.25 1340.29 L1937.3 1366.64 L1945.35 1373.12 L1953.39 1341.01 L1961.44 1364.51 L1969.49 1357.46 L1977.54 1379.41 L1985.59 1371.74 L1993.64 1380.71 L2001.69 1343.73 L2009.74 1370.06 L2017.79 1374.56 L2025.84 1366.38 L2033.88 1388.83 L2041.93 1373.48 L2049.98 1380.91 L2058.03 1369.18 L2066.08 1359.36 L2074.13 1386.64 L2082.18 1368.98 L2090.23 1347.93 L2098.28 1388.27 L2106.32 1382.34 L2114.37 1335.44 L2122.42 1353.24 L2130.47 1362.66 L2138.52 1350.59 L2146.57 1364.6 L2154.62 1381.25 L2162.67 1359.05 L2170.72 1358.01 L2178.76 1371.55 L2186.81 1356.21 L2194.86 1359.28 L2202.91 1365.43 L2210.96 1398.12 L2219.01 1370.03 L2227.06 1363.85 L2235.11 1389.78 L2243.16 1375.72 L2251.21 1380.49 L2259.25 1368.41 L2267.3 1388.63 L2275.35 1380.66 L2283.4 1373.34 L2291.45 1386.97 L2299.5 1358.4 L2307.55 1373.41 L2315.6 1365.3 L2323.65 1360.13 L2331.69 1368.77 L2339.74 1372.85 L2347.79 1368.94 L2355.84 1378.04 L2363.89 1388.84 L2371.94 1368.39 L2379.99 1379.09 L2388.04 1364.24 L2396.09 1367.8 L2404.14 1367.26 L2412.18 1357.38 L2420.23 1368.58 L2428.28 1346.58 L2436.33 1358.02 L2444.38 1346.85 L2452.43 1399.65 L2460.48 1371.44 L2468.53 1361.5 L2476.58 1360.2 L2484.62 1374.81 L2492.67 1364.07 L2500.72 1346.78 L2508.77 1379.12 L2516.82 1374.61 L2524.87 1372.05 L2532.92 1371.84 L2540.97 1394.43 L2549.02 1378.25 L2557.06 1382.11 L2565.11 1345.05 L2573.16 1380.56 L2581.21 1368.9 L2589.26 1342.91 L2597.31 1370.24 L2605.36 1377.09 L2613.41 1366.02 L2613.41 1107.95 L2605.36 1106.16 L2597.31 1099.22 L2589.26 1091.46 L2581.21 1118.01 L2573.16 1108.78 L2565.11 1104.44 L2557.06 1098.32 L2549.02 1116.56 L2540.97 1098.33 L2532.92 1088.16 L2524.87 1096.21 L2516.82 1107.93 L2508.77 1100.84 L2500.72 1127.33 L2492.67 1093.83 L2484.62 1082.67 L2476.58 1115.7 L2468.53 1117.25 L2460.48 1115.03 L2452.43 1095.29 L2444.38 1100.56 L2436.33 1119.08 L2428.28 1095.82 L2420.23 1081.55 L2412.18 1109.77 L2404.14 1111.98 L2396.09 1095.62 L2388.04 1097.28 L2379.99 1118.83 L2371.94 1096.16 L2363.89 1113.08 L2355.84 1105.7 L2347.79 1122.59 L2339.74 1096.94 L2331.69 1073.53 L2323.65 1088.45 L2315.6 1115.24 L2307.55 1118.34 L2299.5 1096.11 L2291.45 1097.75 L2283.4 1121.32 L2275.35 1103.7 L2267.3 1087.16 L2259.25 1092.58 L2251.21 1111.04 L2243.16 1118.36 L2235.11 1099.74 L2227.06 1102.71 L2219.01 1105.59 L2210.96 1115.96 L2202.91 1091.37 L2194.86 1108.61 L2186.81 1116.6 L2178.76 1100.66 L2170.72 1082.72 L2162.67 1083.33 L2154.62 1099.66 L2146.57 1103.03 L2138.52 1093.77 L2130.47 1110.18 L2122.42 1100.74 L2114.37 1099.45 L2106.32 1111.65 L2098.28 1111.66 L2090.23 1096.76 L2082.18 1108.75 L2074.13 1100.76 L2066.08 1101.22 L2058.03 1091.02 L2049.98 1128.02 L2041.93 1085.82 L2033.88 1105.87 L2025.84 1120.72 L2017.79 1100.52 L2009.74 1113.39 L2001.69 1093.84 L1993.64 1102.5 L1985.59 1097 L1977.54 1105.97 L1969.49 1083.7 L1961.44 1094.65 L1953.39 1057.43 L1945.35 1101.83 L1937.3 1109.85 L1929.25 1096.2 L1921.2 1081.01 L1913.15 1096.52 L1905.1 1094.84 L1897.05 1108.24 L1889 1089.99 L1880.95 1116.8 L1872.91 1085.81 L1864.86 1074.57 L1856.81 1109.47 L1848.76 1083.5 L1840.71 1099.93 L1832.66 1087.94 L1824.61 1086.06 L1816.56 1090.39 L1808.51 1114.22 L1800.47 1079.72 L1792.42 1090.45 L1784.37 1119.27 L1776.32 1105.11 L1768.27 1103.14 L1760.22 1091.87 L1752.17 1109.09 L1744.12 1099.49 L1736.07 1103.03 L1728.02 1086.01 L1719.98 1060.59 L1711.93 1084.69 L1703.88 1084.81 L1695.83 1092.47 L1687.78 1118.49 L1679.73 1060.47 L1671.68 1101.93 L1663.63 1081.14 L1655.58 1066.42 L1647.54 1086.18 L1639.49 1101.43 L1631.44 1114.99 L1623.39 1082.18 L1615.34 1127.11 L1607.29 1122.07 L1599.24 1099.25 L1591.19 1082.57 L1583.14 1090.41 L1575.1 1113.36 L1567.05 1112.09 L1559 1111.85 L1550.95 1087.37 L1542.9 1123.13 L1534.85 1116.18 L1526.8 1085.84 L1518.75 1087.48 L1510.7 1092.17 L1502.65 1098.83 L1494.61 1093.31 L1486.56 1104.12 L1478.51 1109.58 L1470.46 1107.26 L1462.41 1102.84 L1454.36 1088.86 L1446.31 1099.55 L1438.26 1093.57 L1430.21 1102.94 L1422.17 1091.32 L1414.12 1076.7 L1406.07 1094.77 L1398.02 1093.44 L1389.97 1062.17 L1381.92 1073.67 L1373.87 1122.94 L1365.82 1109.25 L1357.77 1105.75 L1349.72 1092 L1341.68 1086.47 L1333.63 1081.24 L1325.58 1080.13 L1317.53 1111.67 L1309.48 1101.71 L1301.43 1065.04 L1293.38 1078.4 L1285.33 1087.82 L1277.28 1091.64 L1269.24 1092.75 L1261.19 1106.37 L1253.14 1088.69 L1245.09 1103.05 L1237.04 1092.72 L1228.99 1091.08 L1220.94 1085.23 L1212.89 1090.93 L1204.84 1108.29 L1196.8 1084.61 L1188.75 1077.87 L1180.7 1086.32 L1172.65 1099.2 L1164.6 1058.51 L1156.55 1069.57 L1148.5 1080.46 L1140.45 1097.6 L1132.4 1092.29 L1124.35 1102.44 L1116.31 1087.41 L1108.26 1106.61 L1100.21 1096.7 L1092.16 1089.88 L1084.11 1081.3 L1076.06 1085.56 L1068.01 1100.51 L1059.96 1093.56 L1051.91 1099.3 L1043.87 1113.53 L1035.82 1091.17 L1027.77 1078.98 L1019.72 1097.2 L1011.67 1089.03 L1003.62 1078.55 L995.572 1086.94 L987.523 1091.21 L979.474 1114.3 L971.425 1096.43 L963.376 1087.27 L955.327 1097.41 L947.278 1084.22 L939.229 1079.88 L931.18 1090.92 L923.132 1081.35 L915.083 1071.26 L907.034 1094.81 L898.985 1088.17 L890.936 1117 L882.887 1090.11 L874.838 1093.1 L866.789 1119.9 L858.74 1092.56 L850.691 1056.88 L842.642 1093.04 L834.593 1087.61 L826.544 1066.42 L818.495 1102.6 L810.446 1095.27 L802.398 1087.68 L794.349 1100.98 L786.3 1092.27 L778.251 1106.19 L770.202 1099.05 L762.153 1112.26 L754.104 1084.14 L746.055 1067.58 L738.006 1058.6 L729.957 1080.26 L721.908 1082.11 L713.859 1084.03 L705.81 1048.41 L697.761 1076.99 L689.712 1048.89 L681.664 1071.42 L673.615 1070.28 L665.566 1070.11 L657.517 1054.07 L649.468 1042.01 L641.419 1067.76 L633.37 1016.95 L625.321 1048.73 L617.272 1006.27 L609.223 1004.01 L601.174 976.054 L593.125 615.641  Z" fill="#009e73" fill-rule="evenodd" fill-opacity="0.2"/>
<polyline clip-path="url(#clip711)" style="stroke:#009e73; stroke-linecap:round; stroke-linejoin:round; stroke-width:4; stroke-opacity:0.2; fill:none" points="593.125,1047.31 601.174,1336.67 609.223,1364.52 617.272,1397.56 625.321,1417.89 633.37,1402.59 641.419,1391.61 649.468,1378.58 657.517,1378.88 665.566,1392.99 673.615,1380.31 681.664,1370.26 689.712,1398.78 697.761,1368.13 705.81,1378.7 713.859,1386.64 721.908,1363.73 729.957,1405.31 738.006,1372.91 746.055,1397.45 754.104,1363.64 762.153,1390.07 770.202,1370 778.251,1387.79 786.3,1371.09 794.349,1348.2 802.398,1398.5 810.446,1398.61 818.495,1389.68 826.544,1359.46 834.593,1338.3 842.642,1379.72 850.691,1361.23 858.74,1377.9 866.789,1374.37 874.838,1366.67 882.887,1370.61 890.936,1388.86 898.985,1383.42 907.034,1383.69 915.083,1374.15 923.132,1372.71 931.18,1376.53 939.229,1383.86 947.278,1392.91 955.327,1375.62 963.376,1383.13 971.425,1372.92 979.474,1385.5 987.523,1373.17 995.572,1383.95 1003.62,1378.62 1011.67,1371.46 1019.72,1359.87 1027.77,1350.64 1035.82,1385.92 1043.87,1372.45 1051.91,1387.73 1059.96,1381.55 1068.01,1377.05 1076.06,1379.26 1084.11,1383.63 1092.16,1358.44 1100.21,1367.05 1108.26,1397.41 1116.31,1361.13 1124.35,1397.74 1132.4,1380.26 1140.45,1385.89 1148.5,1358.06 1156.55,1381.68 1164.6,1388.18 1172.65,1366.12 1180.7,1367.98 1188.75,1384.71 1196.8,1382.24 1204.84,1386.58 1212.89,1390.96 1220.94,1363.81 1228.99,1367.26 1237.04,1370.27 1245.09,1406.3 1253.14,1363.49 1261.19,1394.69 1269.24,1374.2 1277.28,1385.45 1285.33,1393.78 1293.38,1386.47 1301.43,1381.92 1309.48,1370.82 1317.53,1370.61 1325.58,1365.34 1333.63,1373.44 1341.68,1382.94 1349.72,1373.51 1357.77,1358.44 1365.82,1371.06 1373.87,1367.01 1381.92,1362.31 1389.97,1376.2 1398.02,1380.26 1406.07,1390.03 1414.12,1381.03 1422.17,1386.66 1430.21,1374.96 1438.26,1387.76 1446.31,1362.92 1454.36,1354.98 1462.41,1371.34 1470.46,1390.33 1478.51,1387.76 1486.56,1390.29 1494.61,1367.11 1502.65,1364.37 1510.7,1376.07 1518.75,1394.21 1526.8,1363.26 1534.85,1368.54 1542.9,1359.73 1550.95,1378.71 1559,1361.97 1567.05,1359.37 1575.1,1390.49 1583.14,1382.69 1591.19,1391.66 1599.24,1382.23 1607.29,1378.77 1615.34,1381.22 1623.39,1381.99 1631.44,1382.01 1639.49,1372.67 1647.54,1384.82 1655.58,1398.06 1663.63,1399.77 1671.68,1396.66 1679.73,1374.79 1687.78,1353.32 1695.83,1373.1 1703.88,1380.63 1711.93,1393.32 1719.98,1359.03 1728.02,1365.25 1736.07,1370.08 1744.12,1362.4 1752.17,1346.48 1760.22,1365.39 1768.27,1385.13 1776.32,1381.29 1784.37,1405.89 1792.42,1393.22 1800.47,1360.46 1808.51,1390.6 1816.56,1383.49 1824.61,1363.84 1832.66,1375.71 1840.71,1380.55 1848.76,1363.56 1856.81,1374.08 1864.86,1376.66 1872.91,1386.17 1880.95,1373.8 1889,1345.25 1897.05,1380.04 1905.1,1374.64 1913.15,1357.28 1921.2,1377.6 1929.25,1340.29 1937.3,1366.64 1945.35,1373.12 1953.39,1341.01 1961.44,1364.51 1969.49,1357.46 1977.54,1379.41 1985.59,1371.74 1993.64,1380.71 2001.69,1343.73 2009.74,1370.06 2017.79,1374.56 2025.84,1366.38 2033.88,1388.83 2041.93,1373.48 2049.98,1380.91 2058.03,1369.18 2066.08,1359.36 2074.13,1386.64 2082.18,1368.98 2090.23,1347.93 2098.28,1388.27 2106.32,1382.34 2114.37,1335.44 2122.42,1353.24 2130.47,1362.66 2138.52,1350.59 2146.57,1364.6 2154.62,1381.25 2162.67,1359.05 2170.72,1358.01 2178.76,1371.55 2186.81,1356.21 2194.86,1359.28 2202.91,1365.43 2210.96,1398.12 2219.01,1370.03 2227.06,1363.85 2235.11,1389.78 2243.16,1375.72 2251.21,1380.49 2259.25,1368.41 2267.3,1388.63 2275.35,1380.66 2283.4,1373.34 2291.45,1386.97 2299.5,1358.4 2307.55,1373.41 2315.6,1365.3 2323.65,1360.13 2331.69,1368.77 2339.74,1372.85 2347.79,1368.94 2355.84,1378.04 2363.89,1388.84 2371.94,1368.39 2379.99,1379.09 2388.04,1364.24 2396.09,1367.8 2404.14,1367.26 2412.18,1357.38 2420.23,1368.58 2428.28,1346.58 2436.33,1358.02 2444.38,1346.85 2452.43,1399.65 2460.48,1371.44 2468.53,1361.5 2476.58,1360.2 2484.62,1374.81 2492.67,1364.07 2500.72,1346.78 2508.77,1379.12 2516.82,1374.61 2524.87,1372.05 2532.92,1371.84 2540.97,1394.43 2549.02,1378.25 2557.06,1382.11 2565.11,1345.05 2573.16,1380.56 2581.21,1368.9 2589.26,1342.91 2597.31,1370.24 2605.36,1377.09 2613.41,1366.02 "/>
<polyline clip-path="url(#clip711)" style="stroke:#808080; stroke-linecap:round; stroke-linejoin:round; stroke-width:4; stroke-opacity:1; fill:none" stroke-dasharray="16, 10" points="-1608.98,942.309 4815.51,942.309 "/>
<polyline clip-path="url(#clip711)" style="stroke:#808080; stroke-linecap:round; stroke-linejoin:round; stroke-width:4; stroke-opacity:1; fill:none" stroke-dasharray="16, 10" points="-1608.98,1522.94 4815.51,1522.94 "/>
<path clip-path="url(#clip710)" d="M1967.91 467.746 L2602.63 467.746 L2602.63 176.146 L1967.91 176.146  Z" fill="#ffffff" fill-rule="evenodd" fill-opacity="1"/>
<polyline clip-path="url(#clip710)" style="stroke:#000000; stroke-linecap:round; stroke-linejoin:round; stroke-width:4; stroke-opacity:1; fill:none" points="1967.91,467.746 2602.63,467.746 2602.63,176.146 1967.91,176.146 1967.91,467.746 "/>
<polyline clip-path="url(#clip710)" style="stroke:#d45e00; stroke-linecap:round; stroke-linejoin:round; stroke-width:9; stroke-opacity:1; fill:none" stroke-dasharray="36, 23" points="1991.71,234.466 2134.47,234.466 "/>
<path clip-path="url(#clip710)" d="M2176.29 218.594 Q2170.56 218.594 2167.17 222.864 Q2163.81 227.135 2163.81 234.505 Q2163.81 241.849 2167.17 246.119 Q2170.56 250.39 2176.29 250.39 Q2182.02 250.39 2185.35 246.119 Q2188.71 241.849 2188.71 234.505 Q2188.71 227.135 2185.35 222.864 Q2182.02 218.594 2176.29 218.594 M2176.29 214.323 Q2184.47 214.323 2189.36 219.817 Q2194.26 225.286 2194.26 234.505 Q2194.26 243.698 2189.36 249.192 Q2184.47 254.661 2176.29 254.661 Q2168.09 254.661 2163.16 249.192 Q2158.27 243.724 2158.27 234.505 Q2158.27 225.286 2163.16 219.817 Q2168.09 214.323 2176.29 214.323 Z" fill="#000000" fill-rule="nonzero" fill-opacity="1" /><path clip-path="url(#clip710)" d="M2223.21 239.349 Q2223.21 234.062 2221.03 231.067 Q2218.87 228.047 2215.06 228.047 Q2211.26 228.047 2209.07 231.067 Q2206.91 234.062 2206.91 239.349 Q2206.91 244.635 2209.07 247.656 Q2211.26 250.651 2215.06 250.651 Q2218.87 250.651 2221.03 247.656 Q2223.21 244.635 2223.21 239.349 M2206.91 229.166 Q2208.42 226.562 2210.71 225.312 Q2213.03 224.036 2216.24 224.036 Q2221.55 224.036 2224.86 228.255 Q2228.19 232.474 2228.19 239.349 Q2228.19 246.224 2224.86 250.442 Q2221.55 254.661 2216.24 254.661 Q2213.03 254.661 2210.71 253.411 Q2208.42 252.135 2206.91 249.531 L2206.91 253.906 L2202.1 253.906 L2202.1 213.385 L2206.91 213.385 L2206.91 229.166 Z" fill="#000000" fill-rule="nonzero" fill-opacity="1" /><path clip-path="url(#clip710)" d="M2254.73 225.599 L2254.73 230.13 Q2252.69 229.088 2250.51 228.567 Q2248.32 228.047 2245.98 228.047 Q2242.41 228.047 2240.61 229.14 Q2238.84 230.234 2238.84 232.422 Q2238.84 234.088 2240.12 235.052 Q2241.39 235.989 2245.25 236.849 L2246.89 237.213 Q2251.99 238.307 2254.13 240.312 Q2256.29 242.291 2256.29 245.859 Q2256.29 249.921 2253.06 252.291 Q2249.86 254.661 2244.23 254.661 Q2241.89 254.661 2239.33 254.192 Q2236.81 253.75 2234 252.838 L2234 247.89 Q2236.65 249.27 2239.23 249.974 Q2241.81 250.651 2244.33 250.651 Q2247.72 250.651 2249.54 249.505 Q2251.37 248.333 2251.37 246.224 Q2251.37 244.27 2250.04 243.229 Q2248.74 242.187 2244.28 241.224 L2242.62 240.833 Q2238.16 239.895 2236.18 237.968 Q2234.2 236.015 2234.2 232.63 Q2234.2 228.515 2237.12 226.276 Q2240.04 224.036 2245.4 224.036 Q2248.06 224.036 2250.4 224.427 Q2252.75 224.817 2254.73 225.599 Z" fill="#000000" fill-rule="nonzero" fill-opacity="1" /><path clip-path="url(#clip710)" d="M2288.87 238.125 L2288.87 240.468 L2266.83 240.468 Q2267.15 245.416 2269.8 248.02 Q2272.49 250.599 2277.25 250.599 Q2280.01 250.599 2282.59 249.921 Q2285.19 249.244 2287.75 247.89 L2287.75 252.421 Q2285.17 253.515 2282.46 254.088 Q2279.75 254.661 2276.96 254.661 Q2269.99 254.661 2265.9 250.599 Q2261.83 246.536 2261.83 239.609 Q2261.83 232.448 2265.69 228.255 Q2269.57 224.036 2276.13 224.036 Q2282.02 224.036 2285.43 227.838 Q2288.87 231.614 2288.87 238.125 M2284.07 236.718 Q2284.02 232.786 2281.86 230.442 Q2279.73 228.099 2276.18 228.099 Q2272.17 228.099 2269.75 230.364 Q2267.36 232.63 2266.99 236.744 L2284.07 236.718 Z" fill="#000000" fill-rule="nonzero" fill-opacity="1" /><path clip-path="url(#clip710)" d="M2313.63 229.218 Q2312.82 228.75 2311.86 228.541 Q2310.92 228.307 2309.78 228.307 Q2305.71 228.307 2303.53 230.963 Q2301.37 233.593 2301.37 238.541 L2301.37 253.906 L2296.55 253.906 L2296.55 224.739 L2301.37 224.739 L2301.37 229.271 Q2302.88 226.614 2305.3 225.338 Q2307.72 224.036 2311.18 224.036 Q2311.68 224.036 2312.28 224.114 Q2312.88 224.166 2313.61 224.297 L2313.63 229.218 Z" fill="#000000" fill-rule="nonzero" fill-opacity="1" /><path clip-path="url(#clip710)" d="M2315.22 224.739 L2320.3 224.739 L2329.41 249.218 L2338.53 224.739 L2343.6 224.739 L2332.67 253.906 L2326.16 253.906 L2315.22 224.739 Z" fill="#000000" fill-rule="nonzero" fill-opacity="1" /><path clip-path="url(#clip710)" d="M2375.17 238.125 L2375.17 240.468 L2353.14 240.468 Q2353.45 245.416 2356.1 248.02 Q2358.79 250.599 2363.55 250.599 Q2366.31 250.599 2368.89 249.921 Q2371.5 249.244 2374.05 247.89 L2374.05 252.421 Q2371.47 253.515 2368.76 254.088 Q2366.05 254.661 2363.27 254.661 Q2356.29 254.661 2352.2 250.599 Q2348.14 246.536 2348.14 239.609 Q2348.14 232.448 2351.99 228.255 Q2355.87 224.036 2362.43 224.036 Q2368.32 224.036 2371.73 227.838 Q2375.17 231.614 2375.17 238.125 M2370.38 236.718 Q2370.32 232.786 2368.16 230.442 Q2366.03 228.099 2362.49 228.099 Q2358.47 228.099 2356.05 230.364 Q2353.66 232.63 2353.29 236.744 L2370.38 236.718 Z" fill="#000000" fill-rule="nonzero" fill-opacity="1" /><path clip-path="url(#clip710)" d="M2402.22 229.166 L2402.22 213.385 L2407.02 213.385 L2407.02 253.906 L2402.22 253.906 L2402.22 249.531 Q2400.71 252.135 2398.4 253.411 Q2396.1 254.661 2392.88 254.661 Q2387.59 254.661 2384.26 250.442 Q2380.95 246.224 2380.95 239.349 Q2380.95 232.474 2384.26 228.255 Q2387.59 224.036 2392.88 224.036 Q2396.1 224.036 2398.4 225.312 Q2400.71 226.562 2402.22 229.166 M2385.9 239.349 Q2385.9 244.635 2388.06 247.656 Q2390.25 250.651 2394.05 250.651 Q2397.85 250.651 2400.04 247.656 Q2402.22 244.635 2402.22 239.349 Q2402.22 234.062 2400.04 231.067 Q2397.85 228.047 2394.05 228.047 Q2390.25 228.047 2388.06 231.067 Q2385.9 234.062 2385.9 239.349 Z" fill="#000000" fill-rule="nonzero" fill-opacity="1" /><polyline clip-path="url(#clip710)" style="stroke:#009e73; stroke-linecap:round; stroke-linejoin:round; stroke-width:9; stroke-opacity:1; fill:none" points="1991.71,292.786 2134.47,292.786 "/>
<path clip-path="url(#clip710)" d="M2189.62 276.341 L2189.62 281.887 Q2186.97 279.414 2183.94 278.19 Q2180.95 276.966 2177.56 276.966 Q2170.9 276.966 2167.36 281.054 Q2163.81 285.117 2163.81 292.825 Q2163.81 300.507 2167.36 304.596 Q2170.9 308.658 2177.56 308.658 Q2180.95 308.658 2183.94 307.434 Q2186.97 306.21 2189.62 303.736 L2189.62 309.231 Q2186.86 311.106 2183.76 312.044 Q2180.69 312.981 2177.25 312.981 Q2168.42 312.981 2163.35 307.59 Q2158.27 302.174 2158.27 292.825 Q2158.27 283.45 2163.35 278.059 Q2168.42 272.643 2177.25 272.643 Q2180.74 272.643 2183.81 273.58 Q2186.91 274.492 2189.62 276.341 Z" fill="#000000" fill-rule="nonzero" fill-opacity="1" /><path clip-path="url(#clip710)" d="M2197.75 273.346 L2203.01 273.346 L2203.01 289.283 L2222.12 289.283 L2222.12 273.346 L2227.38 273.346 L2227.38 312.226 L2222.12 312.226 L2222.12 293.71 L2203.01 293.71 L2203.01 312.226 L2197.75 312.226 L2197.75 273.346 Z" fill="#000000" fill-rule="nonzero" fill-opacity="1" /><path clip-path="url(#clip710)" d="M2237.85 273.346 L2245.69 273.346 L2255.61 299.804 L2265.58 273.346 L2273.42 273.346 L2273.42 312.226 L2268.29 312.226 L2268.29 278.085 L2258.27 304.752 L2252.98 304.752 L2242.95 278.085 L2242.95 312.226 L2237.85 312.226 L2237.85 273.346 Z" fill="#000000" fill-rule="nonzero" fill-opacity="1" /><path clip-path="url(#clip710)" d="M2283.87 273.346 L2291.7 273.346 L2301.63 299.804 L2311.6 273.346 L2319.44 273.346 L2319.44 312.226 L2314.31 312.226 L2314.31 278.085 L2304.28 304.752 L2299 304.752 L2288.97 278.085 L2288.97 312.226 L2283.87 312.226 L2283.87 273.346 Z" fill="#000000" fill-rule="nonzero" fill-opacity="1" /><path clip-path="url(#clip710)" d="M2327.25 295.481 L2341.29 295.481 L2341.29 299.752 L2327.25 299.752 L2327.25 295.481 Z" fill="#000000" fill-rule="nonzero" fill-opacity="1" /><path clip-path="url(#clip710)" d="M2349.13 273.346 L2354.39 273.346 L2354.39 307.799 L2373.32 307.799 L2373.32 312.226 L2349.13 312.226 L2349.13 273.346 Z" fill="#000000" fill-rule="nonzero" fill-opacity="1" /><path clip-path="url(#clip710)" d="M2407.09 271.757 Q2403.6 277.747 2401.91 283.606 Q2400.22 289.466 2400.22 295.481 Q2400.22 301.497 2401.91 307.408 Q2403.63 313.294 2407.09 319.257 L2402.93 319.257 Q2399.02 313.137 2397.07 307.226 Q2395.14 301.314 2395.14 295.481 Q2395.14 289.674 2397.07 283.788 Q2399 277.903 2402.93 271.757 L2407.09 271.757 Z" fill="#000000" fill-rule="nonzero" fill-opacity="1" /><path clip-path="url(#clip710)" d="M2439.1 288.658 Q2440.9 285.429 2443.4 283.893 Q2445.9 282.356 2449.28 282.356 Q2453.84 282.356 2456.31 285.559 Q2458.79 288.736 2458.79 294.622 L2458.79 312.226 L2453.97 312.226 L2453.97 294.778 Q2453.97 290.585 2452.48 288.554 Q2451 286.523 2447.95 286.523 Q2444.23 286.523 2442.07 288.997 Q2439.91 291.471 2439.91 295.742 L2439.91 312.226 L2435.09 312.226 L2435.09 294.778 Q2435.09 290.559 2433.6 288.554 Q2432.12 286.523 2429.02 286.523 Q2425.35 286.523 2423.19 289.023 Q2421.03 291.497 2421.03 295.742 L2421.03 312.226 L2416.21 312.226 L2416.21 283.059 L2421.03 283.059 L2421.03 287.591 Q2422.67 284.908 2424.96 283.632 Q2427.25 282.356 2430.4 282.356 Q2433.58 282.356 2435.79 283.971 Q2438.03 285.585 2439.1 288.658 Z" fill="#000000" fill-rule="nonzero" fill-opacity="1" /><path clip-path="url(#clip710)" d="M2493.29 296.445 L2493.29 298.788 L2471.26 298.788 Q2471.57 303.736 2474.23 306.34 Q2476.91 308.919 2481.68 308.919 Q2484.44 308.919 2487.02 308.241 Q2489.62 307.564 2492.17 306.21 L2492.17 310.741 Q2489.59 311.835 2486.89 312.408 Q2484.18 312.981 2481.39 312.981 Q2474.41 312.981 2470.32 308.919 Q2466.26 304.856 2466.26 297.929 Q2466.26 290.768 2470.11 286.575 Q2473.99 282.356 2480.56 282.356 Q2486.44 282.356 2489.85 286.158 Q2493.29 289.934 2493.29 296.445 M2488.5 295.038 Q2488.45 291.106 2486.29 288.762 Q2484.15 286.419 2480.61 286.419 Q2476.6 286.419 2474.18 288.684 Q2471.78 290.95 2471.42 295.064 L2488.5 295.038 Z" fill="#000000" fill-rule="nonzero" fill-opacity="1" /><path clip-path="url(#clip710)" d="M2514.41 297.564 Q2508.6 297.564 2506.36 298.893 Q2504.12 300.221 2504.12 303.424 Q2504.12 305.976 2505.79 307.486 Q2507.48 308.971 2510.37 308.971 Q2514.36 308.971 2516.76 306.158 Q2519.18 303.32 2519.18 298.632 L2519.18 297.564 L2514.41 297.564 M2523.97 295.585 L2523.97 312.226 L2519.18 312.226 L2519.18 307.799 Q2517.54 310.455 2515.09 311.731 Q2512.64 312.981 2509.1 312.981 Q2504.62 312.981 2501.96 310.481 Q2499.33 307.955 2499.33 303.736 Q2499.33 298.814 2502.61 296.314 Q2505.92 293.814 2512.46 293.814 L2519.18 293.814 L2519.18 293.346 Q2519.18 290.038 2516.99 288.242 Q2514.83 286.419 2510.9 286.419 Q2508.4 286.419 2506.03 287.018 Q2503.66 287.617 2501.47 288.814 L2501.47 284.387 Q2504.1 283.372 2506.57 282.877 Q2509.05 282.356 2511.39 282.356 Q2517.72 282.356 2520.84 285.637 Q2523.97 288.919 2523.97 295.585 Z" fill="#000000" fill-rule="nonzero" fill-opacity="1" /><path clip-path="url(#clip710)" d="M2558.08 294.622 L2558.08 312.226 L2553.29 312.226 L2553.29 294.778 Q2553.29 290.637 2551.68 288.58 Q2550.06 286.523 2546.83 286.523 Q2542.95 286.523 2540.71 288.997 Q2538.47 291.471 2538.47 295.742 L2538.47 312.226 L2533.66 312.226 L2533.66 283.059 L2538.47 283.059 L2538.47 287.591 Q2540.19 284.96 2542.51 283.658 Q2544.85 282.356 2547.9 282.356 Q2552.93 282.356 2555.5 285.481 Q2558.08 288.58 2558.08 294.622 Z" fill="#000000" fill-rule="nonzero" fill-opacity="1" /><path clip-path="url(#clip710)" d="M2566.88 271.757 L2571.05 271.757 Q2574.96 277.903 2576.88 283.788 Q2578.84 289.674 2578.84 295.481 Q2578.84 301.314 2576.88 307.226 Q2574.96 313.137 2571.05 319.257 L2566.88 319.257 Q2570.35 313.294 2572.04 307.408 Q2573.76 301.497 2573.76 295.481 Q2573.76 289.466 2572.04 283.606 Q2570.35 277.747 2566.88 271.757 Z" fill="#000000" fill-rule="nonzero" fill-opacity="1" /><path clip-path="url(#clip710)" d="M1991.71 374.434 L2134.47 374.434 L2134.47 327.778 L1991.71 327.778 L1991.71 374.434  Z" fill="#009e73" fill-rule="evenodd" fill-opacity="0.2"/>
<polyline clip-path="url(#clip710)" style="stroke:#009e73; stroke-linecap:round; stroke-linejoin:round; stroke-width:4.5; stroke-opacity:0.2; fill:none" points="1991.71,327.778 2134.47,327.778 "/>
<path clip-path="url(#clip710)" d="M2159.02 366.119 L2167.62 366.119 L2167.62 336.457 L2158.27 338.332 L2158.27 333.541 L2167.56 331.666 L2172.82 331.666 L2172.82 366.119 L2181.42 366.119 L2181.42 370.546 L2159.02 370.546 L2159.02 366.119 Z" fill="#000000" fill-rule="nonzero" fill-opacity="1" /><path clip-path="url(#clip710)" d="M2203.29 335.129 Q2199.23 335.129 2197.17 339.14 Q2195.14 343.124 2195.14 351.145 Q2195.14 359.14 2197.17 363.15 Q2199.23 367.134 2203.29 367.134 Q2207.38 367.134 2209.41 363.15 Q2211.47 359.14 2211.47 351.145 Q2211.47 343.124 2209.41 339.14 Q2207.38 335.129 2203.29 335.129 M2203.29 330.963 Q2209.83 330.963 2213.27 336.145 Q2216.73 341.301 2216.73 351.145 Q2216.73 360.963 2213.27 366.145 Q2209.83 371.301 2203.29 371.301 Q2196.76 371.301 2193.29 366.145 Q2189.86 360.963 2189.86 351.145 Q2189.86 341.301 2193.29 336.145 Q2196.76 330.963 2203.29 330.963 Z" fill="#000000" fill-rule="nonzero" fill-opacity="1" /><path clip-path="url(#clip710)" d="M2222.88 353.801 L2236.91 353.801 L2236.91 358.072 L2222.88 358.072 L2222.88 353.801 Z" fill="#000000" fill-rule="nonzero" fill-opacity="1" /><path clip-path="url(#clip710)" d="M2245.38 369.739 L2245.38 364.947 Q2247.36 365.884 2249.39 366.379 Q2251.42 366.874 2253.37 366.874 Q2258.58 366.874 2261.31 363.384 Q2264.07 359.869 2264.46 352.733 Q2262.95 354.973 2260.64 356.171 Q2258.32 357.369 2255.51 357.369 Q2249.67 357.369 2246.26 353.853 Q2242.88 350.312 2242.88 344.192 Q2242.88 338.202 2246.42 334.582 Q2249.96 330.963 2255.84 330.963 Q2262.59 330.963 2266.13 336.145 Q2269.7 341.301 2269.7 351.145 Q2269.7 360.338 2265.32 365.832 Q2260.98 371.301 2253.61 371.301 Q2251.63 371.301 2249.59 370.91 Q2247.56 370.52 2245.38 369.739 M2255.84 353.254 Q2259.39 353.254 2261.44 350.832 Q2263.53 348.411 2263.53 344.192 Q2263.53 339.999 2261.44 337.577 Q2259.39 335.129 2255.84 335.129 Q2252.3 335.129 2250.22 337.577 Q2248.16 339.999 2248.16 344.192 Q2248.16 348.411 2250.22 350.832 Q2252.3 353.254 2255.84 353.254 Z" fill="#000000" fill-rule="nonzero" fill-opacity="1" /><path clip-path="url(#clip710)" d="M2290.4 335.129 Q2286.34 335.129 2284.28 339.14 Q2282.25 343.124 2282.25 351.145 Q2282.25 359.14 2284.28 363.15 Q2286.34 367.134 2290.4 367.134 Q2294.49 367.134 2296.52 363.15 Q2298.58 359.14 2298.58 351.145 Q2298.58 343.124 2296.52 339.14 Q2294.49 335.129 2290.4 335.129 M2290.4 330.963 Q2296.94 330.963 2300.38 336.145 Q2303.84 341.301 2303.84 351.145 Q2303.84 360.963 2300.38 366.145 Q2296.94 371.301 2290.4 371.301 Q2283.87 371.301 2280.4 366.145 Q2276.96 360.963 2276.96 351.145 Q2276.96 341.301 2280.4 336.145 Q2283.87 330.963 2290.4 330.963 Z" fill="#000000" fill-rule="nonzero" fill-opacity="1" /><path clip-path="url(#clip710)" d="M2317.15 333.098 L2317.15 341.379 L2327.02 341.379 L2327.02 345.103 L2317.15 345.103 L2317.15 360.937 Q2317.15 364.504 2318.11 365.52 Q2319.1 366.535 2322.09 366.535 L2327.02 366.535 L2327.02 370.546 L2322.09 370.546 Q2316.55 370.546 2314.44 368.489 Q2312.33 366.405 2312.33 360.937 L2312.33 345.103 L2308.81 345.103 L2308.81 341.379 L2312.33 341.379 L2312.33 333.098 L2317.15 333.098 Z" fill="#000000" fill-rule="nonzero" fill-opacity="1" /><path clip-path="url(#clip710)" d="M2357.56 352.942 L2357.56 370.546 L2352.77 370.546 L2352.77 353.098 Q2352.77 348.957 2351.16 346.9 Q2349.54 344.843 2346.31 344.843 Q2342.43 344.843 2340.19 347.317 Q2337.95 349.791 2337.95 354.062 L2337.95 370.546 L2333.14 370.546 L2333.14 330.025 L2337.95 330.025 L2337.95 345.911 Q2339.67 343.28 2341.99 341.978 Q2344.33 340.676 2347.38 340.676 Q2352.41 340.676 2354.99 343.801 Q2357.56 346.9 2357.56 352.942 Z" fill="#000000" fill-rule="nonzero" fill-opacity="1" /><path clip-path="url(#clip710)" d="M2388.71 366.171 L2388.71 381.64 L2383.89 381.64 L2383.89 341.379 L2388.71 341.379 L2388.71 345.806 Q2390.22 343.202 2392.51 341.952 Q2394.83 340.676 2398.03 340.676 Q2403.34 340.676 2406.65 344.895 Q2409.98 349.114 2409.98 355.989 Q2409.98 362.864 2406.65 367.082 Q2403.34 371.301 2398.03 371.301 Q2394.83 371.301 2392.51 370.051 Q2390.22 368.775 2388.71 366.171 M2405.01 355.989 Q2405.01 350.702 2402.82 347.707 Q2400.66 344.687 2396.86 344.687 Q2393.06 344.687 2390.87 347.707 Q2388.71 350.702 2388.71 355.989 Q2388.71 361.275 2390.87 364.296 Q2393.06 367.291 2396.86 367.291 Q2400.66 367.291 2402.82 364.296 Q2405.01 361.275 2405.01 355.989 Z" fill="#000000" fill-rule="nonzero" fill-opacity="1" /><path clip-path="url(#clip710)" d="M2438.92 342.499 L2438.92 346.978 Q2436.89 345.858 2434.83 345.312 Q2432.8 344.739 2430.71 344.739 Q2426.05 344.739 2423.47 347.707 Q2420.9 350.65 2420.9 355.989 Q2420.9 361.327 2423.47 364.296 Q2426.05 367.239 2430.71 367.239 Q2432.8 367.239 2434.83 366.692 Q2436.89 366.119 2438.92 364.999 L2438.92 369.426 Q2436.91 370.364 2434.75 370.832 Q2432.61 371.301 2430.19 371.301 Q2423.6 371.301 2419.72 367.16 Q2415.84 363.02 2415.84 355.989 Q2415.84 348.853 2419.75 344.765 Q2423.68 340.676 2430.51 340.676 Q2432.72 340.676 2434.83 341.145 Q2436.94 341.588 2438.92 342.499 Z" fill="#000000" fill-rule="nonzero" fill-opacity="1" /><path clip-path="url(#clip710)" d="M2451.99 333.098 L2451.99 341.379 L2461.86 341.379 L2461.86 345.103 L2451.99 345.103 L2451.99 360.937 Q2451.99 364.504 2452.95 365.52 Q2453.94 366.535 2456.94 366.535 L2461.86 366.535 L2461.86 370.546 L2456.94 370.546 Q2451.39 370.546 2449.28 368.489 Q2447.17 366.405 2447.17 360.937 L2447.17 345.103 L2443.66 345.103 L2443.66 341.379 L2447.17 341.379 L2447.17 333.098 L2451.99 333.098 Z" fill="#000000" fill-rule="nonzero" fill-opacity="1" /><path clip-path="url(#clip710)" d="M2468.16 330.025 L2472.95 330.025 L2472.95 370.546 L2468.16 370.546 L2468.16 330.025 Z" fill="#000000" fill-rule="nonzero" fill-opacity="1" /><polyline clip-path="url(#clip710)" style="stroke:#808080; stroke-linecap:round; stroke-linejoin:round; stroke-width:4.5; stroke-opacity:1; fill:none" stroke-dasharray="18, 11" points="1991.71,409.426 2134.47,409.426 "/>
<path clip-path="url(#clip710)" d="M2160.77 428.059 L2160.77 423.267 Q2162.75 424.204 2164.78 424.699 Q2166.81 425.194 2168.76 425.194 Q2173.97 425.194 2176.7 421.704 Q2179.47 418.189 2179.86 411.053 Q2178.35 413.293 2176.03 414.491 Q2173.71 415.689 2170.9 415.689 Q2165.06 415.689 2161.65 412.173 Q2158.27 408.632 2158.27 402.512 Q2158.27 396.522 2161.81 392.902 Q2165.35 389.283 2171.24 389.283 Q2177.98 389.283 2181.52 394.465 Q2185.09 399.621 2185.09 409.465 Q2185.09 418.658 2180.72 424.152 Q2176.37 429.621 2169 429.621 Q2167.02 429.621 2164.99 429.23 Q2162.95 428.84 2160.77 428.059 M2171.24 411.574 Q2174.78 411.574 2176.83 409.152 Q2178.92 406.731 2178.92 402.512 Q2178.92 398.319 2176.83 395.897 Q2174.78 393.449 2171.24 393.449 Q2167.69 393.449 2165.61 395.897 Q2163.55 398.319 2163.55 402.512 Q2163.55 406.731 2165.61 409.152 Q2167.69 411.574 2171.24 411.574 Z" fill="#000000" fill-rule="nonzero" fill-opacity="1" /><path clip-path="url(#clip710)" d="M2194.7 428.059 L2194.7 423.267 Q2196.68 424.204 2198.71 424.699 Q2200.74 425.194 2202.69 425.194 Q2207.9 425.194 2210.64 421.704 Q2213.4 418.189 2213.79 411.053 Q2212.28 413.293 2209.96 414.491 Q2207.64 415.689 2204.83 415.689 Q2199 415.689 2195.58 412.173 Q2192.2 408.632 2192.2 402.512 Q2192.2 396.522 2195.74 392.902 Q2199.28 389.283 2205.17 389.283 Q2211.91 389.283 2215.45 394.465 Q2219.02 399.621 2219.02 409.465 Q2219.02 418.658 2214.65 424.152 Q2210.3 429.621 2202.93 429.621 Q2200.95 429.621 2198.92 429.23 Q2196.89 428.84 2194.7 428.059 M2205.17 411.574 Q2208.71 411.574 2210.77 409.152 Q2212.85 406.731 2212.85 402.512 Q2212.85 398.319 2210.77 395.897 Q2208.71 393.449 2205.17 393.449 Q2201.63 393.449 2199.54 395.897 Q2197.49 398.319 2197.49 402.512 Q2197.49 406.731 2199.54 409.152 Q2201.63 411.574 2205.17 411.574 Z" fill="#000000" fill-rule="nonzero" fill-opacity="1" /><path clip-path="url(#clip710)" d="M2261.55 411.757 Q2259.28 411.757 2257.98 413.684 Q2256.7 415.611 2256.7 419.048 Q2256.7 422.434 2257.98 424.387 Q2259.28 426.314 2261.55 426.314 Q2263.76 426.314 2265.04 424.387 Q2266.34 422.434 2266.34 419.048 Q2266.34 415.637 2265.04 413.71 Q2263.76 411.757 2261.55 411.757 M2261.55 408.449 Q2265.66 408.449 2268.08 411.314 Q2270.51 414.178 2270.51 419.048 Q2270.51 423.918 2268.06 426.783 Q2265.64 429.621 2261.55 429.621 Q2257.38 429.621 2254.96 426.783 Q2252.54 423.918 2252.54 419.048 Q2252.54 414.152 2254.96 411.314 Q2257.41 408.449 2261.55 408.449 M2234.67 392.59 Q2232.43 392.59 2231.13 394.543 Q2229.86 396.47 2229.86 399.856 Q2229.86 403.293 2231.13 405.22 Q2232.41 407.147 2234.67 407.147 Q2236.94 407.147 2238.21 405.22 Q2239.52 403.293 2239.52 399.856 Q2239.52 396.496 2238.21 394.543 Q2236.91 392.59 2234.67 392.59 M2258.19 389.283 L2262.36 389.283 L2238.03 429.621 L2233.87 429.621 L2258.19 389.283 M2234.67 389.283 Q2238.79 389.283 2241.24 392.147 Q2243.68 394.986 2243.68 399.856 Q2243.68 404.777 2241.24 407.616 Q2238.81 410.454 2234.67 410.454 Q2230.53 410.454 2228.11 407.616 Q2225.71 404.751 2225.71 399.856 Q2225.71 395.012 2228.14 392.147 Q2230.56 389.283 2234.67 389.283 Z" fill="#000000" fill-rule="nonzero" fill-opacity="1" /><path clip-path="url(#clip710)" d="M2324.75 392.981 L2324.75 398.527 Q2322.09 396.054 2319.07 394.83 Q2316.08 393.606 2312.69 393.606 Q2306.03 393.606 2302.49 397.694 Q2298.94 401.757 2298.94 409.465 Q2298.94 417.147 2302.49 421.236 Q2306.03 425.298 2312.69 425.298 Q2316.08 425.298 2319.07 424.074 Q2322.09 422.85 2324.75 420.376 L2324.75 425.871 Q2321.99 427.746 2318.89 428.684 Q2315.82 429.621 2312.38 429.621 Q2303.55 429.621 2298.47 424.23 Q2293.4 418.814 2293.4 409.465 Q2293.4 400.09 2298.47 394.699 Q2303.55 389.283 2312.38 389.283 Q2315.87 389.283 2318.94 390.22 Q2322.04 391.132 2324.75 392.981 Z" fill="#000000" fill-rule="nonzero" fill-opacity="1" /><path clip-path="url(#clip710)" d="M2332.88 389.986 L2338.14 389.986 L2338.14 428.866 L2332.88 428.866 L2332.88 389.986 Z" fill="#000000" fill-rule="nonzero" fill-opacity="1" /></svg>
