<?xml version="1.0" encoding="utf-8"?>
<svg xmlns="http://www.w3.org/2000/svg" xmlns:xlink="http://www.w3.org/1999/xlink" width="600" height="400" viewBox="0 0 2400 1600">
<defs>
  <clipPath id="clip400">
    <rect x="0" y="0" width="2400" height="1600"/>
  </clipPath>
</defs>
<path clip-path="url(#clip400)" d="M0 1600 L2400 1600 L2400 8.88178e-14 L0 8.88178e-14  Z" fill="#ffffff" fill-rule="evenodd" fill-opacity="1"/>
<defs>
  <clipPath id="clip401">
    <rect x="313" y="640" width="2012" height="49"/>
  </clipPath>
</defs>
<path clip-path="url(#clip400)" d="M545.232 1241.31 L2274.02 1241.31 L2274.02 125.984 L545.232 125.984  Z" fill="#ffffff" fill-rule="evenodd" fill-opacity="1"/>
<defs>
  <clipPath id="clip402">
    <rect x="545" y="125" width="1730" height="1116"/>
  </clipPath>
</defs>
<polyline clip-path="url(#clip402)" style="stroke:#000000; stroke-linecap:round; stroke-linejoin:round; stroke-width:2; stroke-opacity:0.1; fill:none" points="566.517,1241.31 566.517,125.984 "/>
<polyline clip-path="url(#clip402)" style="stroke:#000000; stroke-linecap:round; stroke-linejoin:round; stroke-width:2; stroke-opacity:0.1; fill:none" points="842.946,1241.31 842.946,125.984 "/>
<polyline clip-path="url(#clip402)" style="stroke:#000000; stroke-linecap:round; stroke-linejoin:round; stroke-width:2; stroke-opacity:0.1; fill:none" points="1119.37,1241.31 1119.37,125.984 "/>
<polyline clip-path="url(#clip402)" style="stroke:#000000; stroke-linecap:round; stroke-linejoin:round; stroke-width:2; stroke-opacity:0.1; fill:none" points="1395.8,1241.31 1395.8,125.984 "/>
<polyline clip-path="url(#clip402)" style="stroke:#000000; stroke-linecap:round; stroke-linejoin:round; stroke-width:2; stroke-opacity:0.1; fill:none" points="1672.23,1241.31 1672.23,125.984 "/>
<polyline clip-path="url(#clip402)" style="stroke:#000000; stroke-linecap:round; stroke-linejoin:round; stroke-width:2; stroke-opacity:0.1; fill:none" points="1948.66,1241.31 1948.66,125.984 "/>
<polyline clip-path="url(#clip402)" style="stroke:#000000; stroke-linecap:round; stroke-linejoin:round; stroke-width:2; stroke-opacity:0.1; fill:none" points="2225.09,1241.31 2225.09,125.984 "/>
<polyline clip-path="url(#clip402)" style="stroke:#000000; stroke-linecap:round; stroke-linejoin:round; stroke-width:2; stroke-opacity:0.1; fill:none" points="545.232,1107.72 2274.02,1107.72 "/>
<polyline clip-path="url(#clip402)" style="stroke:#000000; stroke-linecap:round; stroke-linejoin:round; stroke-width:2; stroke-opacity:0.1; fill:none" points="545.232,938.262 2274.02,938.262 "/>
<polyline clip-path="url(#clip402)" style="stroke:#000000; stroke-linecap:round; stroke-linejoin:round; stroke-width:2; stroke-opacity:0.1; fill:none" points="545.232,768.806 2274.02,768.806 "/>
<polyline clip-path="url(#clip402)" style="stroke:#000000; stroke-linecap:round; stroke-linejoin:round; stroke-width:2; stroke-opacity:0.1; fill:none" points="545.232,599.351 2274.02,599.351 "/>
<polyline clip-path="url(#clip402)" style="stroke:#000000; stroke-linecap:round; stroke-linejoin:round; stroke-width:2; stroke-opacity:0.1; fill:none" points="545.232,429.895 2274.02,429.895 "/>
<polyline clip-path="url(#clip402)" style="stroke:#000000; stroke-linecap:round; stroke-linejoin:round; stroke-width:2; stroke-opacity:0.1; fill:none" points="545.232,260.44 2274.02,260.44 "/>
<polyline clip-path="url(#clip400)" style="stroke:#000000; stroke-linecap:round; stroke-linejoin:round; stroke-width:4; stroke-opacity:1; fill:none" points="545.232,1241.31 2274.02,1241.31 "/>
<polyline clip-path="url(#clip400)" style="stroke:#000000; stroke-linecap:round; stroke-linejoin:round; stroke-width:4; stroke-opacity:1; fill:none" points="566.517,1241.31 566.517,1222.41 "/>
<polyline clip-path="url(#clip400)" style="stroke:#000000; stroke-linecap:round; stroke-linejoin:round; stroke-width:4; stroke-opacity:1; fill:none" points="842.946,1241.31 842.946,1222.41 "/>
<polyline clip-path="url(#clip400)" style="stroke:#000000; stroke-linecap:round; stroke-linejoin:round; stroke-width:4; stroke-opacity:1; fill:none" points="1119.37,1241.31 1119.37,1222.41 "/>
<polyline clip-path="url(#clip400)" style="stroke:#000000; stroke-linecap:round; stroke-linejoin:round; stroke-width:4; stroke-opacity:1; fill:none" points="1395.8,1241.31 1395.8,1222.41 "/>
<polyline clip-path="url(#clip400)" style="stroke:#000000; stroke-linecap:round; stroke-linejoin:round; stroke-width:4; stroke-opacity:1; fill:none" points="1672.23,1241.31 1672.23,1222.41 "/>
<polyline clip-path="url(#clip400)" style="stroke:#000000; stroke-linecap:round; stroke-linejoin:round; stroke-width:4; stroke-opacity:1; fill:none" points="1948.66,1241.31 1948.66,1222.41 "/>
<polyline clip-path="url(#clip400)" style="stroke:#000000; stroke-linecap:round; stroke-linejoin:round; stroke-width:4; stroke-opacity:1; fill:none" points="2225.09,1241.31 2225.09,1222.41 "/>
<path clip-path="url(#clip400)" d="M566.517 1275.16 Q562.004 1275.16 559.718 1279.62 Q557.461 1284.04 557.461 1292.95 Q557.461 1301.84 559.718 1306.29 Q562.004 1310.72 566.517 1310.72 Q571.06 1310.72 573.317 1306.29 Q575.603 1301.84 575.603 1292.95 Q575.603 1284.04 573.317 1279.62 Q571.06 1275.16 566.517 1275.16 M566.517 1270.53 Q573.78 1270.53 577.599 1276.29 Q581.448 1282.02 581.448 1292.95 Q581.448 1303.86 577.599 1309.62 Q573.78 1315.35 566.517 1315.35 Q559.255 1315.35 555.406 1309.62 Q551.587 1303.86 551.587 1292.95 Q551.587 1282.02 555.406 1276.29 Q559.255 1270.53 566.517 1270.53 Z" fill="#000000" fill-rule="nonzero" fill-opacity="1" /><path clip-path="url(#clip400)" d="M811.305 1309.59 L820.854 1309.59 L820.854 1276.64 L810.466 1278.72 L810.466 1273.39 L820.796 1271.31 L826.641 1271.31 L826.641 1309.59 L836.189 1309.59 L836.189 1314.51 L811.305 1314.51 L811.305 1309.59 Z" fill="#000000" fill-rule="nonzero" fill-opacity="1" /><path clip-path="url(#clip400)" d="M860.495 1275.16 Q855.981 1275.16 853.695 1279.62 Q851.438 1284.04 851.438 1292.95 Q851.438 1301.84 853.695 1306.29 Q855.981 1310.72 860.495 1310.72 Q865.038 1310.72 867.295 1306.29 Q869.58 1301.84 869.58 1292.95 Q869.58 1284.04 867.295 1279.62 Q865.038 1275.16 860.495 1275.16 M860.495 1270.53 Q867.758 1270.53 871.577 1276.29 Q875.425 1282.02 875.425 1292.95 Q875.425 1303.86 871.577 1309.62 Q867.758 1315.35 860.495 1315.35 Q853.232 1315.35 849.384 1309.62 Q845.564 1303.86 845.564 1292.95 Q845.564 1282.02 849.384 1276.29 Q853.232 1270.53 860.495 1270.53 Z" fill="#000000" fill-rule="nonzero" fill-opacity="1" /><path clip-path="url(#clip400)" d="M1092.84 1309.59 L1113.24 1309.59 L1113.24 1314.51 L1085.81 1314.51 L1085.81 1309.59 Q1089.14 1306.15 1094.87 1300.36 Q1100.62 1294.55 1102.1 1292.87 Q1104.91 1289.71 1106.01 1287.54 Q1107.13 1285.34 1107.13 1283.23 Q1107.13 1279.79 1104.7 1277.62 Q1102.3 1275.45 1098.43 1275.45 Q1095.68 1275.45 1092.61 1276.4 Q1089.57 1277.36 1086.1 1279.3 L1086.1 1273.39 Q1089.63 1271.98 1092.7 1271.25 Q1095.76 1270.53 1098.31 1270.53 Q1105.02 1270.53 1109.02 1273.89 Q1113.01 1277.24 1113.01 1282.86 Q1113.01 1285.52 1112 1287.92 Q1111.01 1290.29 1108.38 1293.53 Q1107.66 1294.37 1103.78 1298.39 Q1099.9 1302.39 1092.84 1309.59 Z" fill="#000000" fill-rule="nonzero" fill-opacity="1" /><path clip-path="url(#clip400)" d="M1138.01 1275.16 Q1133.49 1275.16 1131.21 1279.62 Q1128.95 1284.04 1128.95 1292.95 Q1128.95 1301.84 1131.21 1306.29 Q1133.49 1310.72 1138.01 1310.72 Q1142.55 1310.72 1144.81 1306.29 Q1147.09 1301.84 1147.09 1292.95 Q1147.09 1284.04 1144.81 1279.62 Q1142.55 1275.16 1138.01 1275.16 M1138.01 1270.53 Q1145.27 1270.53 1149.09 1276.29 Q1152.94 1282.02 1152.94 1292.95 Q1152.94 1303.86 1149.09 1309.62 Q1145.27 1315.35 1138.01 1315.35 Q1130.75 1315.35 1126.9 1309.62 Q1123.08 1303.86 1123.08 1292.95 Q1123.08 1282.02 1126.9 1276.29 Q1130.75 1270.53 1138.01 1270.53 Z" fill="#000000" fill-rule="nonzero" fill-opacity="1" /><path clip-path="url(#clip400)" d="M1381.86 1291.22 Q1386.05 1292.12 1388.4 1294.95 Q1390.77 1297.79 1390.77 1301.95 Q1390.77 1308.35 1386.37 1311.85 Q1381.97 1315.35 1373.87 1315.35 Q1371.15 1315.35 1368.26 1314.8 Q1365.39 1314.28 1362.32 1313.21 L1362.32 1307.57 Q1364.76 1308.98 1367.65 1309.71 Q1370.54 1310.43 1373.7 1310.43 Q1379.19 1310.43 1382.06 1308.26 Q1384.95 1306.09 1384.95 1301.95 Q1384.95 1298.13 1382.26 1295.99 Q1379.6 1293.82 1374.82 1293.82 L1369.79 1293.82 L1369.79 1289.02 L1375.06 1289.02 Q1379.37 1289.02 1381.65 1287.31 Q1383.94 1285.58 1383.94 1282.34 Q1383.94 1279.01 1381.57 1277.24 Q1379.22 1275.45 1374.82 1275.45 Q1372.42 1275.45 1369.67 1275.97 Q1366.93 1276.49 1363.63 1277.59 L1363.63 1272.38 Q1366.95 1271.46 1369.85 1270.99 Q1372.77 1270.53 1375.35 1270.53 Q1382 1270.53 1385.88 1273.57 Q1389.76 1276.58 1389.76 1281.73 Q1389.76 1285.32 1387.7 1287.8 Q1385.65 1290.26 1381.86 1291.22 Z" fill="#000000" fill-rule="nonzero" fill-opacity="1" /><path clip-path="url(#clip400)" d="M1414.35 1275.16 Q1409.84 1275.16 1407.55 1279.62 Q1405.29 1284.04 1405.29 1292.95 Q1405.29 1301.84 1407.55 1306.29 Q1409.84 1310.72 1414.35 1310.72 Q1418.89 1310.72 1421.15 1306.29 Q1423.44 1301.84 1423.44 1292.95 Q1423.44 1284.04 1421.15 1279.62 Q1418.89 1275.16 1414.35 1275.16 M1414.35 1270.53 Q1421.61 1270.53 1425.43 1276.29 Q1429.28 1282.02 1429.28 1292.95 Q1429.28 1303.86 1425.43 1309.62 Q1421.61 1315.35 1414.35 1315.35 Q1407.09 1315.35 1403.24 1309.62 Q1399.42 1303.86 1399.42 1292.95 Q1399.42 1282.02 1403.24 1276.29 Q1407.09 1270.53 1414.35 1270.53 Z" fill="#000000" fill-rule="nonzero" fill-opacity="1" /><path clip-path="url(#clip400)" d="M1657.45 1276.4 L1642.69 1299.47 L1657.45 1299.47 L1657.45 1276.4 M1655.91 1271.31 L1663.26 1271.31 L1663.26 1299.47 L1669.42 1299.47 L1669.42 1304.33 L1663.26 1304.33 L1663.26 1314.51 L1657.45 1314.51 L1657.45 1304.33 L1637.94 1304.33 L1637.94 1298.68 L1655.91 1271.31 Z" fill="#000000" fill-rule="nonzero" fill-opacity="1" /><path clip-path="url(#clip400)" d="M1691.59 1275.16 Q1687.07 1275.16 1684.79 1279.62 Q1682.53 1284.04 1682.53 1292.95 Q1682.53 1301.84 1684.79 1306.29 Q1687.07 1310.72 1691.59 1310.72 Q1696.13 1310.72 1698.39 1306.29 Q1700.67 1301.84 1700.67 1292.95 Q1700.67 1284.04 1698.39 1279.62 Q1696.13 1275.16 1691.59 1275.16 M1691.59 1270.53 Q1698.85 1270.53 1702.67 1276.29 Q1706.52 1282.02 1706.52 1292.95 Q1706.52 1303.86 1702.67 1309.62 Q1698.85 1315.35 1691.59 1315.35 Q1684.33 1315.35 1680.48 1309.62 Q1676.66 1303.86 1676.66 1292.95 Q1676.66 1282.02 1680.48 1276.29 Q1684.33 1270.53 1691.59 1270.53 Z" fill="#000000" fill-rule="nonzero" fill-opacity="1" /><path clip-path="url(#clip400)" d="M1917.03 1271.31 L1939.98 1271.31 L1939.98 1276.23 L1922.39 1276.23 L1922.39 1286.82 Q1923.66 1286.39 1924.93 1286.18 Q1926.21 1285.95 1927.48 1285.95 Q1934.71 1285.95 1938.94 1289.92 Q1943.16 1293.88 1943.16 1300.65 Q1943.16 1307.62 1938.82 1311.5 Q1934.48 1315.35 1926.58 1315.35 Q1923.86 1315.35 1921.03 1314.89 Q1918.22 1314.42 1915.21 1313.5 L1915.21 1307.62 Q1917.81 1309.04 1920.59 1309.74 Q1923.37 1310.43 1926.47 1310.43 Q1931.47 1310.43 1934.39 1307.8 Q1937.32 1305.17 1937.32 1300.65 Q1937.32 1296.14 1934.39 1293.5 Q1931.47 1290.87 1926.47 1290.87 Q1924.12 1290.87 1921.78 1291.39 Q1919.46 1291.91 1917.03 1293.01 L1917.03 1271.31 Z" fill="#000000" fill-rule="nonzero" fill-opacity="1" /><path clip-path="url(#clip400)" d="M1967.18 1275.16 Q1962.66 1275.16 1960.38 1279.62 Q1958.12 1284.04 1958.12 1292.95 Q1958.12 1301.84 1960.38 1306.29 Q1962.66 1310.72 1967.18 1310.72 Q1971.72 1310.72 1973.98 1306.29 Q1976.26 1301.84 1976.26 1292.95 Q1976.26 1284.04 1973.98 1279.62 Q1971.72 1275.16 1967.18 1275.16 M1967.18 1270.53 Q1974.44 1270.53 1978.26 1276.29 Q1982.11 1282.02 1982.11 1292.95 Q1982.11 1303.86 1978.26 1309.62 Q1974.44 1315.35 1967.18 1315.35 Q1959.92 1315.35 1956.07 1309.62 Q1952.25 1303.86 1952.25 1292.95 Q1952.25 1282.02 1956.07 1276.29 Q1959.92 1270.53 1967.18 1270.53 Z" fill="#000000" fill-rule="nonzero" fill-opacity="1" /><path clip-path="url(#clip400)" d="M2206.84 1290.58 Q2202.91 1290.58 2200.59 1293.27 Q2198.31 1295.96 2198.31 1300.65 Q2198.31 1305.31 2200.59 1308.03 Q2202.91 1310.72 2206.84 1310.72 Q2210.78 1310.72 2213.07 1308.03 Q2215.38 1305.31 2215.38 1300.65 Q2215.38 1295.96 2213.07 1293.27 Q2210.78 1290.58 2206.84 1290.58 M2218.45 1272.27 L2218.45 1277.59 Q2216.25 1276.55 2213.99 1276 Q2211.76 1275.45 2209.56 1275.45 Q2203.78 1275.45 2200.71 1279.36 Q2197.67 1283.26 2197.24 1291.16 Q2198.95 1288.64 2201.52 1287.31 Q2204.1 1285.95 2207.19 1285.95 Q2213.7 1285.95 2217.46 1289.92 Q2221.25 1293.85 2221.25 1300.65 Q2221.25 1307.31 2217.32 1311.33 Q2213.38 1315.35 2206.84 1315.35 Q2199.35 1315.35 2195.39 1309.62 Q2191.42 1303.86 2191.42 1292.95 Q2191.42 1282.71 2196.28 1276.64 Q2201.14 1270.53 2209.33 1270.53 Q2211.53 1270.53 2213.76 1270.96 Q2216.02 1271.4 2218.45 1272.27 Z" fill="#000000" fill-rule="nonzero" fill-opacity="1" /><path clip-path="url(#clip400)" d="M2243.82 1275.16 Q2239.31 1275.16 2237.02 1279.62 Q2234.77 1284.04 2234.77 1292.95 Q2234.77 1301.84 2237.02 1306.29 Q2239.31 1310.72 2243.82 1310.72 Q2248.37 1310.72 2250.62 1306.29 Q2252.91 1301.84 2252.91 1292.95 Q2252.91 1284.04 2250.62 1279.62 Q2248.37 1275.16 2243.82 1275.16 M2243.82 1270.53 Q2251.09 1270.53 2254.91 1276.29 Q2258.75 1282.02 2258.75 1292.95 Q2258.75 1303.86 2254.91 1309.62 Q2251.09 1315.35 2243.82 1315.35 Q2236.56 1315.35 2232.71 1309.62 Q2228.89 1303.86 2228.89 1292.95 Q2228.89 1282.02 2232.71 1276.29 Q2236.56 1270.53 2243.82 1270.53 Z" fill="#000000" fill-rule="nonzero" fill-opacity="1" /><path clip-path="url(#clip400)" d="M1277.34 1351.62 L1283.77 1351.62 L1283.77 1399.14 L1277.34 1399.14 L1277.34 1351.62 Z" fill="#000000" fill-rule="nonzero" fill-opacity="1" /><path clip-path="url(#clip400)" d="M1302.11 1353.37 L1302.11 1363.49 L1314.17 1363.49 L1314.17 1368.04 L1302.11 1368.04 L1302.11 1387.39 Q1302.11 1391.75 1303.28 1392.99 Q1304.49 1394.23 1308.15 1394.23 L1314.17 1394.23 L1314.17 1399.14 L1308.15 1399.14 Q1301.38 1399.14 1298.8 1396.62 Q1296.22 1394.07 1296.22 1387.39 L1296.22 1368.04 L1291.92 1368.04 L1291.92 1363.49 L1296.22 1363.49 L1296.22 1353.37 L1302.11 1353.37 Z" fill="#000000" fill-rule="nonzero" fill-opacity="1" /><path clip-path="url(#clip400)" d="M1352.36 1379.85 L1352.36 1382.71 L1325.44 1382.71 Q1325.82 1388.76 1329.07 1391.94 Q1332.34 1395.09 1338.17 1395.09 Q1341.54 1395.09 1344.69 1394.27 Q1347.88 1393.44 1351 1391.78 L1351 1397.32 Q1347.84 1398.66 1344.53 1399.36 Q1341.22 1400.06 1337.82 1400.06 Q1329.29 1400.06 1324.29 1395.09 Q1319.33 1390.13 1319.33 1381.66 Q1319.33 1372.91 1324.04 1367.78 Q1328.78 1362.63 1336.8 1362.63 Q1343.99 1362.63 1348.16 1367.28 Q1352.36 1371.89 1352.36 1379.85 M1346.51 1378.13 Q1346.44 1373.32 1343.8 1370.46 Q1341.19 1367.59 1336.86 1367.59 Q1331.96 1367.59 1329 1370.36 Q1326.07 1373.13 1325.63 1378.16 L1346.51 1378.13 Z" fill="#000000" fill-rule="nonzero" fill-opacity="1" /><path clip-path="url(#clip400)" d="M1382.63 1368.96 Q1381.65 1368.39 1380.47 1368.13 Q1379.32 1367.85 1377.92 1367.85 Q1372.96 1367.85 1370.28 1371.09 Q1367.64 1374.31 1367.64 1380.36 L1367.64 1399.14 L1361.75 1399.14 L1361.75 1363.49 L1367.64 1363.49 L1367.64 1369.03 Q1369.49 1365.78 1372.45 1364.22 Q1375.41 1362.63 1379.64 1362.63 Q1380.25 1362.63 1380.98 1362.72 Q1381.71 1362.79 1382.6 1362.95 L1382.63 1368.96 Z" fill="#000000" fill-rule="nonzero" fill-opacity="1" /><path clip-path="url(#clip400)" d="M1404.98 1381.22 Q1397.88 1381.22 1395.14 1382.84 Q1392.4 1384.46 1392.4 1388.38 Q1392.4 1391.5 1394.44 1393.34 Q1396.51 1395.16 1400.04 1395.16 Q1404.91 1395.16 1407.84 1391.72 Q1410.8 1388.25 1410.8 1382.52 L1410.8 1381.22 L1404.98 1381.22 M1416.66 1378.8 L1416.66 1399.14 L1410.8 1399.14 L1410.8 1393.72 Q1408.8 1396.97 1405.8 1398.53 Q1402.81 1400.06 1398.48 1400.06 Q1393.01 1400.06 1389.76 1397 Q1386.55 1393.92 1386.55 1388.76 Q1386.55 1382.74 1390.56 1379.69 Q1394.6 1376.63 1402.59 1376.63 L1410.8 1376.63 L1410.8 1376.06 Q1410.8 1372.02 1408.13 1369.82 Q1405.49 1367.59 1400.68 1367.59 Q1397.62 1367.59 1394.73 1368.33 Q1391.83 1369.06 1389.16 1370.52 L1389.16 1365.11 Q1392.37 1363.87 1395.4 1363.26 Q1398.42 1362.63 1401.28 1362.63 Q1409.02 1362.63 1412.84 1366.64 Q1416.66 1370.65 1416.66 1378.8 Z" fill="#000000" fill-rule="nonzero" fill-opacity="1" /><path clip-path="url(#clip400)" d="M1434.51 1353.37 L1434.51 1363.49 L1446.58 1363.49 L1446.58 1368.04 L1434.51 1368.04 L1434.51 1387.39 Q1434.51 1391.75 1435.69 1392.99 Q1436.9 1394.23 1440.56 1394.23 L1446.58 1394.23 L1446.58 1399.14 L1440.56 1399.14 Q1433.78 1399.14 1431.2 1396.62 Q1428.63 1394.07 1428.63 1387.39 L1428.63 1368.04 L1424.33 1368.04 L1424.33 1363.49 L1428.63 1363.49 L1428.63 1353.37 L1434.51 1353.37 Z" fill="#000000" fill-rule="nonzero" fill-opacity="1" /><path clip-path="url(#clip400)" d="M1454.28 1363.49 L1460.14 1363.49 L1460.14 1399.14 L1454.28 1399.14 L1454.28 1363.49 M1454.28 1349.61 L1460.14 1349.61 L1460.14 1357.03 L1454.28 1357.03 L1454.28 1349.61 Z" fill="#000000" fill-rule="nonzero" fill-opacity="1" /><path clip-path="url(#clip400)" d="M1486.2 1367.59 Q1481.49 1367.59 1478.76 1371.29 Q1476.02 1374.95 1476.02 1381.34 Q1476.02 1387.74 1478.72 1391.43 Q1481.46 1395.09 1486.2 1395.09 Q1490.88 1395.09 1493.62 1391.4 Q1496.36 1387.71 1496.36 1381.34 Q1496.36 1375.01 1493.62 1371.32 Q1490.88 1367.59 1486.2 1367.59 M1486.2 1362.63 Q1493.84 1362.63 1498.2 1367.59 Q1502.56 1372.56 1502.56 1381.34 Q1502.56 1390.1 1498.2 1395.09 Q1493.84 1400.06 1486.2 1400.06 Q1478.53 1400.06 1474.17 1395.09 Q1469.84 1390.1 1469.84 1381.34 Q1469.84 1372.56 1474.17 1367.59 Q1478.53 1362.63 1486.2 1362.63 Z" fill="#000000" fill-rule="nonzero" fill-opacity="1" /><path clip-path="url(#clip400)" d="M1541.9 1377.62 L1541.9 1399.14 L1536.05 1399.14 L1536.05 1377.81 Q1536.05 1372.75 1534.07 1370.24 Q1532.1 1367.72 1528.15 1367.72 Q1523.41 1367.72 1520.67 1370.74 Q1517.94 1373.77 1517.94 1378.99 L1517.94 1399.14 L1512.05 1399.14 L1512.05 1363.49 L1517.94 1363.49 L1517.94 1369.03 Q1520.04 1365.81 1522.87 1364.22 Q1525.73 1362.63 1529.46 1362.63 Q1535.6 1362.63 1538.75 1366.45 Q1541.9 1370.24 1541.9 1377.62 Z" fill="#000000" fill-rule="nonzero" fill-opacity="1" /><polyline clip-path="url(#clip400)" style="stroke:#000000; stroke-linecap:round; stroke-linejoin:round; stroke-width:4; stroke-opacity:1; fill:none" points="545.232,1241.31 545.232,125.984 "/>
<polyline clip-path="url(#clip400)" style="stroke:#000000; stroke-linecap:round; stroke-linejoin:round; stroke-width:4; stroke-opacity:1; fill:none" points="545.232,1107.72 564.13,1107.72 "/>
<polyline clip-path="url(#clip400)" style="stroke:#000000; stroke-linecap:round; stroke-linejoin:round; stroke-width:4; stroke-opacity:1; fill:none" points="545.232,938.262 564.13,938.262 "/>
<polyline clip-path="url(#clip400)" style="stroke:#000000; stroke-linecap:round; stroke-linejoin:round; stroke-width:4; stroke-opacity:1; fill:none" points="545.232,768.806 564.13,768.806 "/>
<polyline clip-path="url(#clip400)" style="stroke:#000000; stroke-linecap:round; stroke-linejoin:round; stroke-width:4; stroke-opacity:1; fill:none" points="545.232,599.351 564.13,599.351 "/>
<polyline clip-path="url(#clip400)" style="stroke:#000000; stroke-linecap:round; stroke-linejoin:round; stroke-width:4; stroke-opacity:1; fill:none" points="545.232,429.895 564.13,429.895 "/>
<polyline clip-path="url(#clip400)" style="stroke:#000000; stroke-linecap:round; stroke-linejoin:round; stroke-width:4; stroke-opacity:1; fill:none" points="545.232,260.44 564.13,260.44 "/>
<path clip-path="url(#clip400)" d="M318.985 1108.28 L356.079 1108.28 L356.079 1113.2 L318.985 1113.2 L318.985 1108.28 Z" fill="#000000" fill-rule="nonzero" fill-opacity="1" /><path clip-path="url(#clip400)" d="M368.753 1086.12 L391.698 1086.12 L391.698 1091.04 L374.106 1091.04 L374.106 1101.63 Q375.379 1101.19 376.652 1100.99 Q377.925 1100.76 379.198 1100.76 Q386.432 1100.76 390.657 1104.72 Q394.881 1108.69 394.881 1115.46 Q394.881 1122.43 390.541 1126.31 Q386.201 1130.16 378.301 1130.16 Q375.581 1130.16 372.746 1129.69 Q369.939 1129.23 366.93 1128.3 L366.93 1122.43 Q369.534 1123.85 372.312 1124.54 Q375.09 1125.24 378.186 1125.24 Q383.191 1125.24 386.114 1122.6 Q389.036 1119.97 389.036 1115.46 Q389.036 1110.94 386.114 1108.31 Q383.191 1105.68 378.186 1105.68 Q375.842 1105.68 373.498 1106.2 Q371.183 1106.72 368.753 1107.82 L368.753 1086.12 Z" fill="#000000" fill-rule="nonzero" fill-opacity="1" /><path clip-path="url(#clip400)" d="M422.456 1091.21 L407.699 1114.27 L422.456 1114.27 L422.456 1091.21 M420.923 1086.12 L428.272 1086.12 L428.272 1114.27 L434.435 1114.27 L434.435 1119.13 L428.272 1119.13 L428.272 1129.32 L422.456 1129.32 L422.456 1119.13 L402.954 1119.13 L402.954 1113.49 L420.923 1086.12 Z" fill="#000000" fill-rule="nonzero" fill-opacity="1" /><path clip-path="url(#clip400)" d="M456.6 1089.97 Q452.086 1089.97 449.8 1094.42 Q447.543 1098.85 447.543 1107.76 Q447.543 1116.64 449.8 1121.1 Q452.086 1125.53 456.6 1125.53 Q461.142 1125.53 463.399 1121.1 Q465.685 1116.64 465.685 1107.76 Q465.685 1098.85 463.399 1094.42 Q461.142 1089.97 456.6 1089.97 M456.6 1085.34 Q463.862 1085.34 467.682 1091.09 Q471.53 1096.82 471.53 1107.76 Q471.53 1118.67 467.682 1124.43 Q463.862 1130.16 456.6 1130.16 Q449.337 1130.16 445.489 1124.43 Q441.669 1118.67 441.669 1107.76 Q441.669 1096.82 445.489 1091.09 Q449.337 1085.34 456.6 1085.34 Z" fill="#000000" fill-rule="nonzero" fill-opacity="1" /><path clip-path="url(#clip400)" d="M494.302 1089.97 Q489.788 1089.97 487.502 1094.42 Q485.245 1098.85 485.245 1107.76 Q485.245 1116.64 487.502 1121.1 Q489.788 1125.53 494.302 1125.53 Q498.845 1125.53 501.102 1121.1 Q503.388 1116.64 503.388 1107.76 Q503.388 1098.85 501.102 1094.42 Q498.845 1089.97 494.302 1089.97 M494.302 1085.34 Q501.565 1085.34 505.384 1091.09 Q509.232 1096.82 509.232 1107.76 Q509.232 1118.67 505.384 1124.43 Q501.565 1130.16 494.302 1130.16 Q487.039 1130.16 483.191 1124.43 Q479.371 1118.67 479.371 1107.76 Q479.371 1096.82 483.191 1091.09 Q487.039 1085.34 494.302 1085.34 Z" fill="#000000" fill-rule="nonzero" fill-opacity="1" /><path clip-path="url(#clip400)" d="M318.985 938.826 L356.079 938.826 L356.079 943.745 L318.985 943.745 L318.985 938.826 Z" fill="#000000" fill-rule="nonzero" fill-opacity="1" /><path clip-path="url(#clip400)" d="M368.753 916.662 L391.698 916.662 L391.698 921.58 L374.106 921.58 L374.106 932.171 Q375.379 931.737 376.652 931.534 Q377.925 931.303 379.198 931.303 Q386.432 931.303 390.657 935.267 Q394.881 939.231 394.881 946.002 Q394.881 952.975 390.541 956.852 Q386.201 960.701 378.301 960.701 Q375.581 960.701 372.746 960.238 Q369.939 959.775 366.93 958.849 L366.93 952.975 Q369.534 954.393 372.312 955.087 Q375.09 955.782 378.186 955.782 Q383.191 955.782 386.114 953.149 Q389.036 950.515 389.036 946.002 Q389.036 941.488 386.114 938.855 Q383.191 936.222 378.186 936.222 Q375.842 936.222 373.498 936.742 Q371.183 937.263 368.753 938.363 L368.753 916.662 Z" fill="#000000" fill-rule="nonzero" fill-opacity="1" /><path clip-path="url(#clip400)" d="M424.106 936.569 Q428.301 937.466 430.645 940.301 Q433.018 943.137 433.018 947.304 Q433.018 953.698 428.619 957.199 Q424.221 960.701 416.119 960.701 Q413.4 960.701 410.506 960.151 Q407.641 959.63 404.574 958.559 L404.574 952.917 Q407.005 954.335 409.898 955.058 Q412.792 955.782 415.946 955.782 Q421.444 955.782 424.308 953.612 Q427.202 951.441 427.202 947.304 Q427.202 943.484 424.511 941.343 Q421.849 939.173 417.074 939.173 L412.04 939.173 L412.04 934.37 L417.306 934.37 Q421.617 934.37 423.903 932.663 Q426.189 930.926 426.189 927.686 Q426.189 924.358 423.816 922.593 Q421.472 920.799 417.074 920.799 Q414.673 920.799 411.924 921.32 Q409.175 921.841 405.876 922.94 L405.876 917.732 Q409.204 916.806 412.097 916.343 Q415.02 915.88 417.595 915.88 Q424.25 915.88 428.128 918.918 Q432.005 921.928 432.005 927.078 Q432.005 930.666 429.95 933.154 Q427.896 935.614 424.106 936.569 Z" fill="#000000" fill-rule="nonzero" fill-opacity="1" /><path clip-path="url(#clip400)" d="M456.6 920.51 Q452.086 920.51 449.8 924.966 Q447.543 929.393 447.543 938.305 Q447.543 947.188 449.8 951.644 Q452.086 956.071 456.6 956.071 Q461.142 956.071 463.399 951.644 Q465.685 947.188 465.685 938.305 Q465.685 929.393 463.399 924.966 Q461.142 920.51 456.6 920.51 M456.6 915.88 Q463.862 915.88 467.682 921.638 Q471.53 927.367 471.53 938.305 Q471.53 949.213 467.682 954.971 Q463.862 960.701 456.6 960.701 Q449.337 960.701 445.489 954.971 Q441.669 949.213 441.669 938.305 Q441.669 927.367 445.489 921.638 Q449.337 915.88 456.6 915.88 Z" fill="#000000" fill-rule="nonzero" fill-opacity="1" /><path clip-path="url(#clip400)" d="M494.302 920.51 Q489.788 920.51 487.502 924.966 Q485.245 929.393 485.245 938.305 Q485.245 947.188 487.502 951.644 Q489.788 956.071 494.302 956.071 Q498.845 956.071 501.102 951.644 Q503.388 947.188 503.388 938.305 Q503.388 929.393 501.102 924.966 Q498.845 920.51 494.302 920.51 M494.302 915.88 Q501.565 915.88 505.384 921.638 Q509.232 927.367 509.232 938.305 Q509.232 949.213 505.384 954.971 Q501.565 960.701 494.302 960.701 Q487.039 960.701 483.191 954.971 Q479.371 949.213 479.371 938.305 Q479.371 927.367 483.191 921.638 Q487.039 915.88 494.302 915.88 Z" fill="#000000" fill-rule="nonzero" fill-opacity="1" /><path clip-path="url(#clip400)" d="M318.985 769.37 L356.079 769.37 L356.079 774.289 L318.985 774.289 L318.985 769.37 Z" fill="#000000" fill-rule="nonzero" fill-opacity="1" /><path clip-path="url(#clip400)" d="M368.753 747.206 L391.698 747.206 L391.698 752.125 L374.106 752.125 L374.106 762.715 Q375.379 762.281 376.652 762.079 Q377.925 761.847 379.198 761.847 Q386.432 761.847 390.657 765.811 Q394.881 769.775 394.881 776.546 Q394.881 783.52 390.541 787.397 Q386.201 791.245 378.301 791.245 Q375.581 791.245 372.746 790.782 Q369.939 790.319 366.93 789.393 L366.93 783.52 Q369.534 784.937 372.312 785.632 Q375.09 786.326 378.186 786.326 Q383.191 786.326 386.114 783.693 Q389.036 781.06 389.036 776.546 Q389.036 772.032 386.114 769.399 Q383.191 766.766 378.186 766.766 Q375.842 766.766 373.498 767.287 Q371.183 767.808 368.753 768.907 L368.753 747.206 Z" fill="#000000" fill-rule="nonzero" fill-opacity="1" /><path clip-path="url(#clip400)" d="M411.432 785.487 L431.831 785.487 L431.831 790.406 L404.401 790.406 L404.401 785.487 Q407.728 782.044 413.457 776.257 Q419.216 770.441 420.691 768.763 Q423.498 765.609 424.597 763.439 Q425.726 761.24 425.726 759.127 Q425.726 755.684 423.295 753.514 Q420.894 751.344 417.016 751.344 Q414.268 751.344 411.201 752.299 Q408.162 753.254 404.69 755.192 L404.69 749.289 Q408.22 747.872 411.287 747.148 Q414.354 746.425 416.901 746.425 Q423.614 746.425 427.607 749.781 Q431.6 753.138 431.6 758.751 Q431.6 761.413 430.587 763.815 Q429.603 766.187 426.97 769.428 Q426.247 770.267 422.369 774.289 Q418.492 778.282 411.432 785.487 Z" fill="#000000" fill-rule="nonzero" fill-opacity="1" /><path clip-path="url(#clip400)" d="M456.6 751.054 Q452.086 751.054 449.8 755.51 Q447.543 759.938 447.543 768.85 Q447.543 777.733 449.8 782.189 Q452.086 786.616 456.6 786.616 Q461.142 786.616 463.399 782.189 Q465.685 777.733 465.685 768.85 Q465.685 759.938 463.399 755.51 Q461.142 751.054 456.6 751.054 M456.6 746.425 Q463.862 746.425 467.682 752.183 Q471.53 757.912 471.53 768.85 Q471.53 779.758 467.682 785.516 Q463.862 791.245 456.6 791.245 Q449.337 791.245 445.489 785.516 Q441.669 779.758 441.669 768.85 Q441.669 757.912 445.489 752.183 Q449.337 746.425 456.6 746.425 Z" fill="#000000" fill-rule="nonzero" fill-opacity="1" /><path clip-path="url(#clip400)" d="M494.302 751.054 Q489.788 751.054 487.502 755.51 Q485.245 759.938 485.245 768.85 Q485.245 777.733 487.502 782.189 Q489.788 786.616 494.302 786.616 Q498.845 786.616 501.102 782.189 Q503.388 777.733 503.388 768.85 Q503.388 759.938 501.102 755.51 Q498.845 751.054 494.302 751.054 M494.302 746.425 Q501.565 746.425 505.384 752.183 Q509.232 757.912 509.232 768.85 Q509.232 779.758 505.384 785.516 Q501.565 791.245 494.302 791.245 Q487.039 791.245 483.191 785.516 Q479.371 779.758 479.371 768.85 Q479.371 757.912 483.191 752.183 Q487.039 746.425 494.302 746.425 Z" fill="#000000" fill-rule="nonzero" fill-opacity="1" /><path clip-path="url(#clip400)" d="M318.985 599.915 L356.079 599.915 L356.079 604.834 L318.985 604.834 L318.985 599.915 Z" fill="#000000" fill-rule="nonzero" fill-opacity="1" /><path clip-path="url(#clip400)" d="M368.753 577.751 L391.698 577.751 L391.698 582.67 L374.106 582.67 L374.106 593.26 Q375.379 592.826 376.652 592.623 Q377.925 592.392 379.198 592.392 Q386.432 592.392 390.657 596.356 Q394.881 600.32 394.881 607.091 Q394.881 614.064 390.541 617.941 Q386.201 621.79 378.301 621.79 Q375.581 621.79 372.746 621.327 Q369.939 620.864 366.93 619.938 L366.93 614.064 Q369.534 615.482 372.312 616.176 Q375.09 616.871 378.186 616.871 Q383.191 616.871 386.114 614.238 Q389.036 611.605 389.036 607.091 Q389.036 602.577 386.114 599.944 Q383.191 597.311 378.186 597.311 Q375.842 597.311 373.498 597.832 Q371.183 598.352 368.753 599.452 L368.753 577.751 Z" fill="#000000" fill-rule="nonzero" fill-opacity="1" /><path clip-path="url(#clip400)" d="M407.41 616.032 L416.959 616.032 L416.959 583.075 L406.571 585.158 L406.571 579.834 L416.901 577.751 L422.746 577.751 L422.746 616.032 L432.294 616.032 L432.294 620.951 L407.41 620.951 L407.41 616.032 Z" fill="#000000" fill-rule="nonzero" fill-opacity="1" /><path clip-path="url(#clip400)" d="M456.6 581.599 Q452.086 581.599 449.8 586.055 Q447.543 590.482 447.543 599.394 Q447.543 608.277 449.8 612.733 Q452.086 617.16 456.6 617.16 Q461.142 617.16 463.399 612.733 Q465.685 608.277 465.685 599.394 Q465.685 590.482 463.399 586.055 Q461.142 581.599 456.6 581.599 M456.6 576.969 Q463.862 576.969 467.682 582.728 Q471.53 588.457 471.53 599.394 Q471.53 610.303 467.682 616.061 Q463.862 621.79 456.6 621.79 Q449.337 621.79 445.489 616.061 Q441.669 610.303 441.669 599.394 Q441.669 588.457 445.489 582.728 Q449.337 576.969 456.6 576.969 Z" fill="#000000" fill-rule="nonzero" fill-opacity="1" /><path clip-path="url(#clip400)" d="M494.302 581.599 Q489.788 581.599 487.502 586.055 Q485.245 590.482 485.245 599.394 Q485.245 608.277 487.502 612.733 Q489.788 617.16 494.302 617.16 Q498.845 617.16 501.102 612.733 Q503.388 608.277 503.388 599.394 Q503.388 590.482 501.102 586.055 Q498.845 581.599 494.302 581.599 M494.302 576.969 Q501.565 576.969 505.384 582.728 Q509.232 588.457 509.232 599.394 Q509.232 610.303 505.384 616.061 Q501.565 621.79 494.302 621.79 Q487.039 621.79 483.191 616.061 Q479.371 610.303 479.371 599.394 Q479.371 588.457 483.191 582.728 Q487.039 576.969 494.302 576.969 Z" fill="#000000" fill-rule="nonzero" fill-opacity="1" /><path clip-path="url(#clip400)" d="M318.985 430.46 L356.079 430.46 L356.079 435.379 L318.985 435.379 L318.985 430.46 Z" fill="#000000" fill-rule="nonzero" fill-opacity="1" /><path clip-path="url(#clip400)" d="M368.753 408.295 L391.698 408.295 L391.698 413.214 L374.106 413.214 L374.106 423.805 Q375.379 423.37 376.652 423.168 Q377.925 422.936 379.198 422.936 Q386.432 422.936 390.657 426.901 Q394.881 430.865 394.881 437.635 Q394.881 444.609 390.541 448.486 Q386.201 452.334 378.301 452.334 Q375.581 452.334 372.746 451.871 Q369.939 451.409 366.93 450.483 L366.93 444.609 Q369.534 446.027 372.312 446.721 Q375.09 447.415 378.186 447.415 Q383.191 447.415 386.114 444.782 Q389.036 442.149 389.036 437.635 Q389.036 433.122 386.114 430.488 Q383.191 427.855 378.186 427.855 Q375.842 427.855 373.498 428.376 Q371.183 428.897 368.753 429.997 L368.753 408.295 Z" fill="#000000" fill-rule="nonzero" fill-opacity="1" /><path clip-path="url(#clip400)" d="M418.897 412.144 Q414.383 412.144 412.097 416.6 Q409.841 421.027 409.841 429.939 Q409.841 438.822 412.097 443.278 Q414.383 447.705 418.897 447.705 Q423.44 447.705 425.697 443.278 Q427.983 438.822 427.983 429.939 Q427.983 421.027 425.697 416.6 Q423.44 412.144 418.897 412.144 M418.897 407.514 Q426.16 407.514 429.979 413.272 Q433.828 419.001 433.828 429.939 Q433.828 440.847 429.979 446.605 Q426.16 452.334 418.897 452.334 Q411.635 452.334 407.786 446.605 Q403.967 440.847 403.967 429.939 Q403.967 419.001 407.786 413.272 Q411.635 407.514 418.897 407.514 Z" fill="#000000" fill-rule="nonzero" fill-opacity="1" /><path clip-path="url(#clip400)" d="M456.6 412.144 Q452.086 412.144 449.8 416.6 Q447.543 421.027 447.543 429.939 Q447.543 438.822 449.8 443.278 Q452.086 447.705 456.6 447.705 Q461.142 447.705 463.399 443.278 Q465.685 438.822 465.685 429.939 Q465.685 421.027 463.399 416.6 Q461.142 412.144 456.6 412.144 M456.6 407.514 Q463.862 407.514 467.682 413.272 Q471.53 419.001 471.53 429.939 Q471.53 440.847 467.682 446.605 Q463.862 452.334 456.6 452.334 Q449.337 452.334 445.489 446.605 Q441.669 440.847 441.669 429.939 Q441.669 419.001 445.489 413.272 Q449.337 407.514 456.6 407.514 Z" fill="#000000" fill-rule="nonzero" fill-opacity="1" /><path clip-path="url(#clip400)" d="M494.302 412.144 Q489.788 412.144 487.502 416.6 Q485.245 421.027 485.245 429.939 Q485.245 438.822 487.502 443.278 Q489.788 447.705 494.302 447.705 Q498.845 447.705 501.102 443.278 Q503.388 438.822 503.388 429.939 Q503.388 421.027 501.102 416.6 Q498.845 412.144 494.302 412.144 M494.302 407.514 Q501.565 407.514 505.384 413.272 Q509.232 419.001 509.232 429.939 Q509.232 440.847 505.384 446.605 Q501.565 452.334 494.302 452.334 Q487.039 452.334 483.191 446.605 Q479.371 440.847 479.371 429.939 Q479.371 419.001 483.191 413.272 Q487.039 407.514 494.302 407.514 Z" fill="#000000" fill-rule="nonzero" fill-opacity="1" /><path clip-path="url(#clip400)" d="M318.985 261.004 L356.079 261.004 L356.079 265.923 L318.985 265.923 L318.985 261.004 Z" fill="#000000" fill-rule="nonzero" fill-opacity="1" /><path clip-path="url(#clip400)" d="M384.754 243.933 L369.997 266.994 L384.754 266.994 L384.754 243.933 M383.22 238.84 L390.57 238.84 L390.57 266.994 L396.733 266.994 L396.733 271.855 L390.57 271.855 L390.57 282.04 L384.754 282.04 L384.754 271.855 L365.252 271.855 L365.252 266.212 L383.22 238.84 Z" fill="#000000" fill-rule="nonzero" fill-opacity="1" /><path clip-path="url(#clip400)" d="M406.571 281.143 L406.571 275.819 Q408.77 276.861 411.027 277.41 Q413.284 277.96 415.454 277.96 Q421.241 277.96 424.279 274.083 Q427.346 270.177 427.78 262.248 Q426.102 264.737 423.527 266.068 Q420.952 267.399 417.827 267.399 Q411.345 267.399 407.555 263.493 Q403.793 259.557 403.793 252.758 Q403.793 246.103 407.728 242.081 Q411.663 238.059 418.203 238.059 Q425.697 238.059 429.632 243.817 Q433.596 249.546 433.596 260.483 Q433.596 270.697 428.735 276.803 Q423.903 282.879 415.714 282.879 Q413.515 282.879 411.258 282.445 Q409.001 282.011 406.571 281.143 M418.203 262.827 Q422.138 262.827 424.424 260.136 Q426.739 257.445 426.739 252.758 Q426.739 248.099 424.424 245.408 Q422.138 242.688 418.203 242.688 Q414.268 242.688 411.953 245.408 Q409.667 248.099 409.667 252.758 Q409.667 257.445 411.953 260.136 Q414.268 262.827 418.203 262.827 Z" fill="#000000" fill-rule="nonzero" fill-opacity="1" /><path clip-path="url(#clip400)" d="M456.6 242.688 Q452.086 242.688 449.8 247.144 Q447.543 251.571 447.543 260.483 Q447.543 269.366 449.8 273.822 Q452.086 278.249 456.6 278.249 Q461.142 278.249 463.399 273.822 Q465.685 269.366 465.685 260.483 Q465.685 251.571 463.399 247.144 Q461.142 242.688 456.6 242.688 M456.6 238.059 Q463.862 238.059 467.682 243.817 Q471.53 249.546 471.53 260.483 Q471.53 271.392 467.682 277.15 Q463.862 282.879 456.6 282.879 Q449.337 282.879 445.489 277.15 Q441.669 271.392 441.669 260.483 Q441.669 249.546 445.489 243.817 Q449.337 238.059 456.6 238.059 Z" fill="#000000" fill-rule="nonzero" fill-opacity="1" /><path clip-path="url(#clip400)" d="M494.302 242.688 Q489.788 242.688 487.502 247.144 Q485.245 251.571 485.245 260.483 Q485.245 269.366 487.502 273.822 Q489.788 278.249 494.302 278.249 Q498.845 278.249 501.102 273.822 Q503.388 269.366 503.388 260.483 Q503.388 251.571 501.102 247.144 Q498.845 242.688 494.302 242.688 M494.302 238.059 Q501.565 238.059 505.384 243.817 Q509.232 249.546 509.232 260.483 Q509.232 271.392 505.384 277.15 Q501.565 282.879 494.302 282.879 Q487.039 282.879 483.191 277.15 Q479.371 271.392 479.371 260.483 Q479.371 249.546 483.191 243.817 Q487.039 238.059 494.302 238.059 Z" fill="#000000" fill-rule="nonzero" fill-opacity="1" /><path clip-path="url(#clip400)" d="M221.209 911.779 L221.209 905.35 L263.318 905.35 L263.318 882.21 L268.729 882.21 L268.729 911.779 L221.209 911.779 Z" fill="#000000" fill-rule="nonzero" fill-opacity="1" /><path clip-path="url(#clip400)" d="M237.186 863.049 Q237.186 867.76 240.879 870.497 Q244.539 873.235 250.936 873.235 Q257.334 873.235 261.026 870.529 Q264.686 867.792 264.686 863.049 Q264.686 858.371 260.994 855.633 Q257.302 852.896 250.936 852.896 Q244.603 852.896 240.91 855.633 Q237.186 858.371 237.186 863.049 M232.221 863.049 Q232.221 855.411 237.186 851.05 Q242.152 846.69 250.936 846.69 Q259.689 846.69 264.686 851.05 Q269.652 855.411 269.652 863.049 Q269.652 870.72 264.686 875.081 Q259.689 879.409 250.936 879.409 Q242.152 879.409 237.186 875.081 Q232.221 870.72 232.221 863.049 Z" fill="#000000" fill-rule="nonzero" fill-opacity="1" /><path clip-path="url(#clip400)" d="M250.491 813.524 Q244.125 813.524 240.624 816.166 Q237.123 818.776 237.123 823.518 Q237.123 828.229 240.624 830.871 Q244.125 833.481 250.491 833.481 Q256.825 833.481 260.326 830.871 Q263.827 828.229 263.827 823.518 Q263.827 818.776 260.326 816.166 Q256.825 813.524 250.491 813.524 M264.304 807.668 Q273.407 807.668 277.832 811.71 Q282.288 815.752 282.288 824.091 Q282.288 827.179 281.81 829.916 Q281.364 832.653 280.41 835.231 L274.712 835.231 Q276.113 832.653 276.781 830.139 Q277.45 827.624 277.45 825.014 Q277.45 819.253 274.426 816.389 Q271.434 813.524 265.355 813.524 L262.458 813.524 Q265.609 815.338 267.169 818.171 Q268.729 821.004 268.729 824.951 Q268.729 831.507 263.731 835.518 Q258.734 839.528 250.491 839.528 Q242.215 839.528 237.218 835.518 Q232.221 831.507 232.221 824.951 Q232.221 821.004 233.781 818.171 Q235.34 815.338 238.491 813.524 L233.081 813.524 L233.081 807.668 L264.304 807.668 Z" fill="#000000" fill-rule="nonzero" fill-opacity="1" /><path clip-path="url(#clip400)" d="M248.263 798.565 L248.263 781.409 L253.483 781.409 L253.483 798.565 L248.263 798.565 Z" fill="#000000" fill-rule="nonzero" fill-opacity="1" /><path clip-path="url(#clip400)" d="M221.209 771.829 L221.209 765.399 L263.318 765.399 L263.318 742.26 L268.729 742.26 L268.729 771.829 L221.209 771.829 Z" fill="#000000" fill-rule="nonzero" fill-opacity="1" /><path clip-path="url(#clip400)" d="M233.081 735.767 L233.081 729.911 L268.729 729.911 L268.729 735.767 L233.081 735.767 M219.203 735.767 L219.203 729.911 L226.619 729.911 L226.619 735.767 L219.203 735.767 Z" fill="#000000" fill-rule="nonzero" fill-opacity="1" /><path clip-path="url(#clip400)" d="M219.203 717.879 L219.203 711.991 L248.454 711.991 L233.081 694.517 L233.081 687.038 L249.759 705.944 L268.729 686.242 L268.729 693.881 L251.318 711.991 L268.729 711.991 L268.729 717.879 L219.203 717.879 Z" fill="#000000" fill-rule="nonzero" fill-opacity="1" /><path clip-path="url(#clip400)" d="M249.44 651.74 L252.305 651.74 L252.305 678.667 Q258.352 678.285 261.535 675.038 Q264.686 671.76 264.686 665.935 Q264.686 662.561 263.859 659.41 Q263.031 656.228 261.376 653.108 L266.914 653.108 Q268.251 656.259 268.951 659.57 Q269.652 662.88 269.652 666.285 Q269.652 674.815 264.686 679.813 Q259.721 684.778 251.255 684.778 Q242.502 684.778 237.377 680.067 Q232.221 675.325 232.221 667.304 Q232.221 660.111 236.868 655.941 Q241.483 651.74 249.44 651.74 M247.722 657.596 Q242.916 657.66 240.051 660.302 Q237.186 662.912 237.186 667.24 Q237.186 672.142 239.956 675.102 Q242.725 678.03 247.754 678.476 L247.722 657.596 Z" fill="#000000" fill-rule="nonzero" fill-opacity="1" /><path clip-path="url(#clip400)" d="M219.203 642.128 L219.203 636.271 L268.729 636.271 L268.729 642.128 L219.203 642.128 Z" fill="#000000" fill-rule="nonzero" fill-opacity="1" /><path clip-path="url(#clip400)" d="M233.081 624.017 L233.081 618.161 L268.729 618.161 L268.729 624.017 L233.081 624.017 M219.203 624.017 L219.203 618.161 L226.619 618.161 L226.619 624.017 L219.203 624.017 Z" fill="#000000" fill-rule="nonzero" fill-opacity="1" /><path clip-path="url(#clip400)" d="M247.212 576.274 L268.729 576.274 L268.729 582.131 L247.403 582.131 Q242.343 582.131 239.828 584.104 Q237.314 586.078 237.314 590.024 Q237.314 594.767 240.338 597.504 Q243.361 600.241 248.581 600.241 L268.729 600.241 L268.729 606.129 L219.203 606.129 L219.203 600.241 L238.619 600.241 Q235.404 598.141 233.813 595.308 Q232.221 592.443 232.221 588.719 Q232.221 582.576 236.041 579.425 Q239.828 576.274 247.212 576.274 Z" fill="#000000" fill-rule="nonzero" fill-opacity="1" /><path clip-path="url(#clip400)" d="M237.186 550.78 Q237.186 555.49 240.879 558.228 Q244.539 560.965 250.936 560.965 Q257.334 560.965 261.026 558.259 Q264.686 555.522 264.686 550.78 Q264.686 546.101 260.994 543.364 Q257.302 540.626 250.936 540.626 Q244.603 540.626 240.91 543.364 Q237.186 546.101 237.186 550.78 M232.221 550.78 Q232.221 543.141 237.186 538.78 Q242.152 534.42 250.936 534.42 Q259.689 534.42 264.686 538.78 Q269.652 543.141 269.652 550.78 Q269.652 558.45 264.686 562.811 Q259.689 567.14 250.936 567.14 Q242.152 567.14 237.186 562.811 Q232.221 558.45 232.221 550.78 Z" fill="#000000" fill-rule="nonzero" fill-opacity="1" /><path clip-path="url(#clip400)" d="M237.186 510.899 Q237.186 515.609 240.879 518.346 Q244.539 521.084 250.936 521.084 Q257.334 521.084 261.026 518.378 Q264.686 515.641 264.686 510.899 Q264.686 506.22 260.994 503.482 Q257.302 500.745 250.936 500.745 Q244.603 500.745 240.91 503.482 Q237.186 506.22 237.186 510.899 M232.221 510.899 Q232.221 503.26 237.186 498.899 Q242.152 494.539 250.936 494.539 Q259.689 494.539 264.686 498.899 Q269.652 503.26 269.652 510.899 Q269.652 518.569 264.686 522.93 Q259.689 527.258 250.936 527.258 Q242.152 527.258 237.186 522.93 Q232.221 518.569 232.221 510.899 Z" fill="#000000" fill-rule="nonzero" fill-opacity="1" /><path clip-path="url(#clip400)" d="M238.491 461.373 L219.203 461.373 L219.203 455.517 L268.729 455.517 L268.729 461.373 L263.381 461.373 Q266.564 463.219 268.124 466.052 Q269.652 468.853 269.652 472.8 Q269.652 479.261 264.495 483.335 Q259.339 487.377 250.936 487.377 Q242.534 487.377 237.377 483.335 Q232.221 479.261 232.221 472.8 Q232.221 468.853 233.781 466.052 Q235.309 463.219 238.491 461.373 M250.936 481.33 Q257.398 481.33 261.09 478.688 Q264.75 476.014 264.75 471.367 Q264.75 466.721 261.09 464.047 Q257.398 461.373 250.936 461.373 Q244.475 461.373 240.815 464.047 Q237.123 466.721 237.123 471.367 Q237.123 476.014 240.815 478.688 Q244.475 481.33 250.936 481.33 Z" fill="#000000" fill-rule="nonzero" fill-opacity="1" /><polyline clip-path="url(#clip402)" style="stroke:#000080; stroke-linecap:round; stroke-linejoin:round; stroke-width:8; stroke-opacity:1; fill:none" points="594.16,1209.75 621.803,738.426 649.446,646.293 677.089,592.096 704.732,551.215 732.374,516.843 760.017,486.264 787.66,458.089 815.303,431.331 842.946,405.164 870.589,379.404 898.231,355.136 925.874,333.712 953.517,315.683 981.16,301.065 1008.8,289.564 1036.45,280.658 1064.09,273.74 1091.73,268.247 1119.37,263.737 1147.02,259.891 1174.66,256.49 1202.3,253.384 1229.95,250.462 1257.59,247.64 1285.23,244.85 1312.87,242.045 1340.52,239.191 1368.16,236.267 1395.8,233.271 1423.45,230.205 1451.09,227.083 1478.73,223.916 1506.37,220.711 1534.02,217.467 1561.66,214.175 1589.3,210.82 1616.95,207.38 1644.59,203.836 1672.23,200.177 1699.87,196.416 1727.52,192.605 1755.16,188.839 1782.8,185.247 1810.45,181.959 1838.09,179.058 1865.73,176.554 1893.37,174.397 1921.02,172.494 1948.66,170.743 1976.3,169.051 2003.95,167.363 2031.59,165.687 2059.23,164.081 2086.87,162.607 2114.52,161.297 2142.16,160.152 2169.8,159.159 2197.45,158.298 2225.09,157.55 "/>
<circle clip-path="url(#clip402)" cx="594.16" cy="1209.75" r="10.8" fill="#000080" fill-rule="evenodd" fill-opacity="1" stroke="#000000" stroke-opacity="1" stroke-width="3.2"/>
<circle clip-path="url(#clip402)" cx="621.803" cy="738.426" r="10.8" fill="#000080" fill-rule="evenodd" fill-opacity="1" stroke="#000000" stroke-opacity="1" stroke-width="3.2"/>
<circle clip-path="url(#clip402)" cx="649.446" cy="646.293" r="10.8" fill="#000080" fill-rule="evenodd" fill-opacity="1" stroke="#000000" stroke-opacity="1" stroke-width="3.2"/>
<circle clip-path="url(#clip402)" cx="677.089" cy="592.096" r="10.8" fill="#000080" fill-rule="evenodd" fill-opacity="1" stroke="#000000" stroke-opacity="1" stroke-width="3.2"/>
<circle clip-path="url(#clip402)" cx="704.732" cy="551.215" r="10.8" fill="#000080" fill-rule="evenodd" fill-opacity="1" stroke="#000000" stroke-opacity="1" stroke-width="3.2"/>
<circle clip-path="url(#clip402)" cx="732.374" cy="516.843" r="10.8" fill="#000080" fill-rule="evenodd" fill-opacity="1" stroke="#000000" stroke-opacity="1" stroke-width="3.2"/>
<circle clip-path="url(#clip402)" cx="760.017" cy="486.264" r="10.8" fill="#000080" fill-rule="evenodd" fill-opacity="1" stroke="#000000" stroke-opacity="1" stroke-width="3.2"/>
<circle clip-path="url(#clip402)" cx="787.66" cy="458.089" r="10.8" fill="#000080" fill-rule="evenodd" fill-opacity="1" stroke="#000000" stroke-opacity="1" stroke-width="3.2"/>
<circle clip-path="url(#clip402)" cx="815.303" cy="431.331" r="10.8" fill="#000080" fill-rule="evenodd" fill-opacity="1" stroke="#000000" stroke-opacity="1" stroke-width="3.2"/>
<circle clip-path="url(#clip402)" cx="842.946" cy="405.164" r="10.8" fill="#000080" fill-rule="evenodd" fill-opacity="1" stroke="#000000" stroke-opacity="1" stroke-width="3.2"/>
<circle clip-path="url(#clip402)" cx="870.589" cy="379.404" r="10.8" fill="#000080" fill-rule="evenodd" fill-opacity="1" stroke="#000000" stroke-opacity="1" stroke-width="3.2"/>
<circle clip-path="url(#clip402)" cx="898.231" cy="355.136" r="10.8" fill="#000080" fill-rule="evenodd" fill-opacity="1" stroke="#000000" stroke-opacity="1" stroke-width="3.2"/>
<circle clip-path="url(#clip402)" cx="925.874" cy="333.712" r="10.8" fill="#000080" fill-rule="evenodd" fill-opacity="1" stroke="#000000" stroke-opacity="1" stroke-width="3.2"/>
<circle clip-path="url(#clip402)" cx="953.517" cy="315.683" r="10.8" fill="#000080" fill-rule="evenodd" fill-opacity="1" stroke="#000000" stroke-opacity="1" stroke-width="3.2"/>
<circle clip-path="url(#clip402)" cx="981.16" cy="301.065" r="10.8" fill="#000080" fill-rule="evenodd" fill-opacity="1" stroke="#000000" stroke-opacity="1" stroke-width="3.2"/>
<circle clip-path="url(#clip402)" cx="1008.8" cy="289.564" r="10.8" fill="#000080" fill-rule="evenodd" fill-opacity="1" stroke="#000000" stroke-opacity="1" stroke-width="3.2"/>
<circle clip-path="url(#clip402)" cx="1036.45" cy="280.658" r="10.8" fill="#000080" fill-rule="evenodd" fill-opacity="1" stroke="#000000" stroke-opacity="1" stroke-width="3.2"/>
<circle clip-path="url(#clip402)" cx="1064.09" cy="273.74" r="10.8" fill="#000080" fill-rule="evenodd" fill-opacity="1" stroke="#000000" stroke-opacity="1" stroke-width="3.2"/>
<circle clip-path="url(#clip402)" cx="1091.73" cy="268.247" r="10.8" fill="#000080" fill-rule="evenodd" fill-opacity="1" stroke="#000000" stroke-opacity="1" stroke-width="3.2"/>
<circle clip-path="url(#clip402)" cx="1119.37" cy="263.737" r="10.8" fill="#000080" fill-rule="evenodd" fill-opacity="1" stroke="#000000" stroke-opacity="1" stroke-width="3.2"/>
<circle clip-path="url(#clip402)" cx="1147.02" cy="259.891" r="10.8" fill="#000080" fill-rule="evenodd" fill-opacity="1" stroke="#000000" stroke-opacity="1" stroke-width="3.2"/>
<circle clip-path="url(#clip402)" cx="1174.66" cy="256.49" r="10.8" fill="#000080" fill-rule="evenodd" fill-opacity="1" stroke="#000000" stroke-opacity="1" stroke-width="3.2"/>
<circle clip-path="url(#clip402)" cx="1202.3" cy="253.384" r="10.8" fill="#000080" fill-rule="evenodd" fill-opacity="1" stroke="#000000" stroke-opacity="1" stroke-width="3.2"/>
<circle clip-path="url(#clip402)" cx="1229.95" cy="250.462" r="10.8" fill="#000080" fill-rule="evenodd" fill-opacity="1" stroke="#000000" stroke-opacity="1" stroke-width="3.2"/>
<circle clip-path="url(#clip402)" cx="1257.59" cy="247.64" r="10.8" fill="#000080" fill-rule="evenodd" fill-opacity="1" stroke="#000000" stroke-opacity="1" stroke-width="3.2"/>
<circle clip-path="url(#clip402)" cx="1285.23" cy="244.85" r="10.8" fill="#000080" fill-rule="evenodd" fill-opacity="1" stroke="#000000" stroke-opacity="1" stroke-width="3.2"/>
<circle clip-path="url(#clip402)" cx="1312.87" cy="242.045" r="10.8" fill="#000080" fill-rule="evenodd" fill-opacity="1" stroke="#000000" stroke-opacity="1" stroke-width="3.2"/>
<circle clip-path="url(#clip402)" cx="1340.52" cy="239.191" r="10.8" fill="#000080" fill-rule="evenodd" fill-opacity="1" stroke="#000000" stroke-opacity="1" stroke-width="3.2"/>
<circle clip-path="url(#clip402)" cx="1368.16" cy="236.267" r="10.8" fill="#000080" fill-rule="evenodd" fill-opacity="1" stroke="#000000" stroke-opacity="1" stroke-width="3.2"/>
<circle clip-path="url(#clip402)" cx="1395.8" cy="233.271" r="10.8" fill="#000080" fill-rule="evenodd" fill-opacity="1" stroke="#000000" stroke-opacity="1" stroke-width="3.2"/>
<circle clip-path="url(#clip402)" cx="1423.45" cy="230.205" r="10.8" fill="#000080" fill-rule="evenodd" fill-opacity="1" stroke="#000000" stroke-opacity="1" stroke-width="3.2"/>
<circle clip-path="url(#clip402)" cx="1451.09" cy="227.083" r="10.8" fill="#000080" fill-rule="evenodd" fill-opacity="1" stroke="#000000" stroke-opacity="1" stroke-width="3.2"/>
<circle clip-path="url(#clip402)" cx="1478.73" cy="223.916" r="10.8" fill="#000080" fill-rule="evenodd" fill-opacity="1" stroke="#000000" stroke-opacity="1" stroke-width="3.2"/>
<circle clip-path="url(#clip402)" cx="1506.37" cy="220.711" r="10.8" fill="#000080" fill-rule="evenodd" fill-opacity="1" stroke="#000000" stroke-opacity="1" stroke-width="3.2"/>
<circle clip-path="url(#clip402)" cx="1534.02" cy="217.467" r="10.8" fill="#000080" fill-rule="evenodd" fill-opacity="1" stroke="#000000" stroke-opacity="1" stroke-width="3.2"/>
<circle clip-path="url(#clip402)" cx="1561.66" cy="214.175" r="10.8" fill="#000080" fill-rule="evenodd" fill-opacity="1" stroke="#000000" stroke-opacity="1" stroke-width="3.2"/>
<circle clip-path="url(#clip402)" cx="1589.3" cy="210.82" r="10.8" fill="#000080" fill-rule="evenodd" fill-opacity="1" stroke="#000000" stroke-opacity="1" stroke-width="3.2"/>
<circle clip-path="url(#clip402)" cx="1616.95" cy="207.38" r="10.8" fill="#000080" fill-rule="evenodd" fill-opacity="1" stroke="#000000" stroke-opacity="1" stroke-width="3.2"/>
<circle clip-path="url(#clip402)" cx="1644.59" cy="203.836" r="10.8" fill="#000080" fill-rule="evenodd" fill-opacity="1" stroke="#000000" stroke-opacity="1" stroke-width="3.2"/>
<circle clip-path="url(#clip402)" cx="1672.23" cy="200.177" r="10.8" fill="#000080" fill-rule="evenodd" fill-opacity="1" stroke="#000000" stroke-opacity="1" stroke-width="3.2"/>
<circle clip-path="url(#clip402)" cx="1699.87" cy="196.416" r="10.8" fill="#000080" fill-rule="evenodd" fill-opacity="1" stroke="#000000" stroke-opacity="1" stroke-width="3.2"/>
<circle clip-path="url(#clip402)" cx="1727.52" cy="192.605" r="10.8" fill="#000080" fill-rule="evenodd" fill-opacity="1" stroke="#000000" stroke-opacity="1" stroke-width="3.2"/>
<circle clip-path="url(#clip402)" cx="1755.16" cy="188.839" r="10.8" fill="#000080" fill-rule="evenodd" fill-opacity="1" stroke="#000000" stroke-opacity="1" stroke-width="3.2"/>
<circle clip-path="url(#clip402)" cx="1782.8" cy="185.247" r="10.8" fill="#000080" fill-rule="evenodd" fill-opacity="1" stroke="#000000" stroke-opacity="1" stroke-width="3.2"/>
<circle clip-path="url(#clip402)" cx="1810.45" cy="181.959" r="10.8" fill="#000080" fill-rule="evenodd" fill-opacity="1" stroke="#000000" stroke-opacity="1" stroke-width="3.2"/>
<circle clip-path="url(#clip402)" cx="1838.09" cy="179.058" r="10.8" fill="#000080" fill-rule="evenodd" fill-opacity="1" stroke="#000000" stroke-opacity="1" stroke-width="3.2"/>
<circle clip-path="url(#clip402)" cx="1865.73" cy="176.554" r="10.8" fill="#000080" fill-rule="evenodd" fill-opacity="1" stroke="#000000" stroke-opacity="1" stroke-width="3.2"/>
<circle clip-path="url(#clip402)" cx="1893.37" cy="174.397" r="10.8" fill="#000080" fill-rule="evenodd" fill-opacity="1" stroke="#000000" stroke-opacity="1" stroke-width="3.2"/>
<circle clip-path="url(#clip402)" cx="1921.02" cy="172.494" r="10.8" fill="#000080" fill-rule="evenodd" fill-opacity="1" stroke="#000000" stroke-opacity="1" stroke-width="3.2"/>
<circle clip-path="url(#clip402)" cx="1948.66" cy="170.743" r="10.8" fill="#000080" fill-rule="evenodd" fill-opacity="1" stroke="#000000" stroke-opacity="1" stroke-width="3.2"/>
<circle clip-path="url(#clip402)" cx="1976.3" cy="169.051" r="10.8" fill="#000080" fill-rule="evenodd" fill-opacity="1" stroke="#000000" stroke-opacity="1" stroke-width="3.2"/>
<circle clip-path="url(#clip402)" cx="2003.95" cy="167.363" r="10.8" fill="#000080" fill-rule="evenodd" fill-opacity="1" stroke="#000000" stroke-opacity="1" stroke-width="3.2"/>
<circle clip-path="url(#clip402)" cx="2031.59" cy="165.687" r="10.8" fill="#000080" fill-rule="evenodd" fill-opacity="1" stroke="#000000" stroke-opacity="1" stroke-width="3.2"/>
<circle clip-path="url(#clip402)" cx="2059.23" cy="164.081" r="10.8" fill="#000080" fill-rule="evenodd" fill-opacity="1" stroke="#000000" stroke-opacity="1" stroke-width="3.2"/>
<circle clip-path="url(#clip402)" cx="2086.87" cy="162.607" r="10.8" fill="#000080" fill-rule="evenodd" fill-opacity="1" stroke="#000000" stroke-opacity="1" stroke-width="3.2"/>
<circle clip-path="url(#clip402)" cx="2114.52" cy="161.297" r="10.8" fill="#000080" fill-rule="evenodd" fill-opacity="1" stroke="#000000" stroke-opacity="1" stroke-width="3.2"/>
<circle clip-path="url(#clip402)" cx="2142.16" cy="160.152" r="10.8" fill="#000080" fill-rule="evenodd" fill-opacity="1" stroke="#000000" stroke-opacity="1" stroke-width="3.2"/>
<circle clip-path="url(#clip402)" cx="2169.8" cy="159.159" r="10.8" fill="#000080" fill-rule="evenodd" fill-opacity="1" stroke="#000000" stroke-opacity="1" stroke-width="3.2"/>
<circle clip-path="url(#clip402)" cx="2197.45" cy="158.298" r="10.8" fill="#000080" fill-rule="evenodd" fill-opacity="1" stroke="#000000" stroke-opacity="1" stroke-width="3.2"/>
<circle clip-path="url(#clip402)" cx="2225.09" cy="157.55" r="10.8" fill="#000080" fill-rule="evenodd" fill-opacity="1" stroke="#000000" stroke-opacity="1" stroke-width="3.2"/>
</svg>
