<?xml version="1.0" encoding="utf-8"?>
<svg xmlns="http://www.w3.org/2000/svg" xmlns:xlink="http://www.w3.org/1999/xlink" width="700" height="500" viewBox="0 0 2800 2000">
<defs>
  <clipPath id="clip640">
    <rect x="0" y="0" width="2800" height="2000"/>
  </clipPath>
</defs>
<path clip-path="url(#clip640)" d="M0 2000 L2800 2000 L2800 -4.44089e-14 L0 -4.44089e-14  Z" fill="#ffffff" fill-rule="evenodd" fill-opacity="1"/>
<defs>
  <clipPath id="clip641">
    <rect x="448" y="125" width="2226" height="1506"/>
  </clipPath>
</defs>
<path clip-path="url(#clip640)" d="M448.779 1630.83 L2674.02 1630.83 L2674.02 125.984 L448.779 125.984  Z" fill="#ffffff" fill-rule="evenodd" fill-opacity="1"/>
<polyline clip-path="url(#clip641)" style="stroke:#000000; stroke-linecap:round; stroke-linejoin:round; stroke-width:2; stroke-opacity:0.1; fill:none" points="503.394,1630.83 503.394,125.984 "/>
<polyline clip-path="url(#clip641)" style="stroke:#000000; stroke-linecap:round; stroke-linejoin:round; stroke-width:2; stroke-opacity:0.1; fill:none" points="921.577,1630.83 921.577,125.984 "/>
<polyline clip-path="url(#clip641)" style="stroke:#000000; stroke-linecap:round; stroke-linejoin:round; stroke-width:2; stroke-opacity:0.1; fill:none" points="1339.76,1630.83 1339.76,125.984 "/>
<polyline clip-path="url(#clip641)" style="stroke:#000000; stroke-linecap:round; stroke-linejoin:round; stroke-width:2; stroke-opacity:0.1; fill:none" points="1757.94,1630.83 1757.94,125.984 "/>
<polyline clip-path="url(#clip641)" style="stroke:#000000; stroke-linecap:round; stroke-linejoin:round; stroke-width:2; stroke-opacity:0.1; fill:none" points="2176.13,1630.83 2176.13,125.984 "/>
<polyline clip-path="url(#clip641)" style="stroke:#000000; stroke-linecap:round; stroke-linejoin:round; stroke-width:2; stroke-opacity:0.1; fill:none" points="2594.31,1630.83 2594.31,125.984 "/>
<polyline clip-path="url(#clip641)" style="stroke:#000000; stroke-linecap:round; stroke-linejoin:round; stroke-width:2; stroke-opacity:0.1; fill:none" points="448.779,1388.59 2674.02,1388.59 "/>
<polyline clip-path="url(#clip641)" style="stroke:#000000; stroke-linecap:round; stroke-linejoin:round; stroke-width:2; stroke-opacity:0.1; fill:none" points="448.779,1010.76 2674.02,1010.76 "/>
<polyline clip-path="url(#clip641)" style="stroke:#000000; stroke-linecap:round; stroke-linejoin:round; stroke-width:2; stroke-opacity:0.1; fill:none" points="448.779,632.942 2674.02,632.942 "/>
<polyline clip-path="url(#clip641)" style="stroke:#000000; stroke-linecap:round; stroke-linejoin:round; stroke-width:2; stroke-opacity:0.1; fill:none" points="448.779,255.12 2674.02,255.12 "/>
<polyline clip-path="url(#clip640)" style="stroke:#000000; stroke-linecap:round; stroke-linejoin:round; stroke-width:4; stroke-opacity:1; fill:none" points="448.779,1630.83 2674.02,1630.83 "/>
<polyline clip-path="url(#clip640)" style="stroke:#000000; stroke-linecap:round; stroke-linejoin:round; stroke-width:4; stroke-opacity:1; fill:none" points="503.394,1630.83 503.394,1611.93 "/>
<polyline clip-path="url(#clip640)" style="stroke:#000000; stroke-linecap:round; stroke-linejoin:round; stroke-width:4; stroke-opacity:1; fill:none" points="921.577,1630.83 921.577,1611.93 "/>
<polyline clip-path="url(#clip640)" style="stroke:#000000; stroke-linecap:round; stroke-linejoin:round; stroke-width:4; stroke-opacity:1; fill:none" points="1339.76,1630.83 1339.76,1611.93 "/>
<polyline clip-path="url(#clip640)" style="stroke:#000000; stroke-linecap:round; stroke-linejoin:round; stroke-width:4; stroke-opacity:1; fill:none" points="1757.94,1630.83 1757.94,1611.93 "/>
<polyline clip-path="url(#clip640)" style="stroke:#000000; stroke-linecap:round; stroke-linejoin:round; stroke-width:4; stroke-opacity:1; fill:none" points="2176.13,1630.83 2176.13,1611.93 "/>
<polyline clip-path="url(#clip640)" style="stroke:#000000; stroke-linecap:round; stroke-linejoin:round; stroke-width:4; stroke-opacity:1; fill:none" points="2594.31,1630.83 2594.31,1611.93 "/>
<path clip-path="url(#clip640)" d="M503.394 1667.88 Q498.88 1667.88 496.594 1672.34 Q494.337 1676.76 494.337 1685.67 Q494.337 1694.56 496.594 1699.01 Q498.88 1703.44 503.394 1703.44 Q507.936 1703.44 510.193 1699.01 Q512.479 1694.56 512.479 1685.67 Q512.479 1676.76 510.193 1672.34 Q507.936 1667.88 503.394 1667.88 M503.394 1663.25 Q510.656 1663.25 514.476 1669.01 Q518.324 1674.74 518.324 1685.67 Q518.324 1696.58 514.476 1702.34 Q510.656 1708.07 503.394 1708.07 Q496.131 1708.07 492.283 1702.34 Q488.463 1696.58 488.463 1685.67 Q488.463 1674.74 492.283 1669.01 Q496.131 1663.25 503.394 1663.25 Z" fill="#000000" fill-rule="nonzero" fill-opacity="1" /><path clip-path="url(#clip640)" d="M889.951 1664.03 L912.896 1664.03 L912.896 1668.95 L895.304 1668.95 L895.304 1679.54 Q896.577 1679.11 897.85 1678.9 Q899.123 1678.67 900.396 1678.67 Q907.63 1678.67 911.855 1682.64 Q916.079 1686.6 916.079 1693.37 Q916.079 1700.34 911.739 1704.22 Q907.399 1708.07 899.499 1708.07 Q896.78 1708.07 893.944 1707.61 Q891.137 1707.14 888.128 1706.22 L888.128 1700.34 Q890.732 1701.76 893.51 1702.46 Q896.288 1703.15 899.384 1703.15 Q904.389 1703.15 907.312 1700.52 Q910.234 1697.89 910.234 1693.37 Q910.234 1688.86 907.312 1686.22 Q904.389 1683.59 899.384 1683.59 Q897.04 1683.59 894.696 1684.11 Q892.381 1684.63 889.951 1685.73 L889.951 1664.03 Z" fill="#000000" fill-rule="nonzero" fill-opacity="1" /><path clip-path="url(#clip640)" d="M940.095 1667.88 Q935.581 1667.88 933.296 1672.34 Q931.039 1676.76 931.039 1685.67 Q931.039 1694.56 933.296 1699.01 Q935.581 1703.44 940.095 1703.44 Q944.638 1703.44 946.895 1699.01 Q949.181 1694.56 949.181 1685.67 Q949.181 1676.76 946.895 1672.34 Q944.638 1667.88 940.095 1667.88 M940.095 1663.25 Q947.358 1663.25 951.177 1669.01 Q955.026 1674.74 955.026 1685.67 Q955.026 1696.58 951.177 1702.34 Q947.358 1708.07 940.095 1708.07 Q932.833 1708.07 928.984 1702.34 Q925.165 1696.58 925.165 1685.67 Q925.165 1674.74 928.984 1669.01 Q932.833 1663.25 940.095 1663.25 Z" fill="#000000" fill-rule="nonzero" fill-opacity="1" /><path clip-path="url(#clip640)" d="M1289.27 1702.31 L1298.82 1702.31 L1298.82 1669.36 L1288.43 1671.44 L1288.43 1666.11 L1298.76 1664.03 L1304.6 1664.03 L1304.6 1702.31 L1314.15 1702.31 L1314.15 1707.23 L1289.27 1707.23 L1289.27 1702.31 Z" fill="#000000" fill-rule="nonzero" fill-opacity="1" /><path clip-path="url(#clip640)" d="M1338.46 1667.88 Q1333.94 1667.88 1331.66 1672.34 Q1329.4 1676.76 1329.4 1685.67 Q1329.4 1694.56 1331.66 1699.01 Q1333.94 1703.44 1338.46 1703.44 Q1343 1703.44 1345.26 1699.01 Q1347.54 1694.56 1347.54 1685.67 Q1347.54 1676.76 1345.26 1672.34 Q1343 1667.88 1338.46 1667.88 M1338.46 1663.25 Q1345.72 1663.25 1349.54 1669.01 Q1353.39 1674.74 1353.39 1685.67 Q1353.39 1696.58 1349.54 1702.34 Q1345.72 1708.07 1338.46 1708.07 Q1331.2 1708.07 1327.35 1702.34 Q1323.53 1696.58 1323.53 1685.67 Q1323.53 1674.74 1327.35 1669.01 Q1331.2 1663.25 1338.46 1663.25 Z" fill="#000000" fill-rule="nonzero" fill-opacity="1" /><path clip-path="url(#clip640)" d="M1376.16 1667.88 Q1371.65 1667.88 1369.36 1672.34 Q1367.1 1676.76 1367.1 1685.67 Q1367.1 1694.56 1369.36 1699.01 Q1371.65 1703.44 1376.16 1703.44 Q1380.7 1703.44 1382.96 1699.01 Q1385.25 1694.56 1385.25 1685.67 Q1385.25 1676.76 1382.96 1672.34 Q1380.7 1667.88 1376.16 1667.88 M1376.16 1663.25 Q1383.42 1663.25 1387.24 1669.01 Q1391.09 1674.74 1391.09 1685.67 Q1391.09 1696.58 1387.24 1702.34 Q1383.42 1708.07 1376.16 1708.07 Q1368.9 1708.07 1365.05 1702.34 Q1361.23 1696.58 1361.23 1685.67 Q1361.23 1674.74 1365.05 1669.01 Q1368.9 1663.25 1376.16 1663.25 Z" fill="#000000" fill-rule="nonzero" fill-opacity="1" /><path clip-path="url(#clip640)" d="M1707.45 1702.31 L1717 1702.31 L1717 1669.36 L1706.61 1671.44 L1706.61 1666.11 L1716.94 1664.03 L1722.79 1664.03 L1722.79 1702.31 L1732.34 1702.31 L1732.34 1707.23 L1707.45 1707.23 L1707.45 1702.31 Z" fill="#000000" fill-rule="nonzero" fill-opacity="1" /><path clip-path="url(#clip640)" d="M1744.2 1664.03 L1767.14 1664.03 L1767.14 1668.95 L1749.55 1668.95 L1749.55 1679.54 Q1750.83 1679.11 1752.1 1678.9 Q1753.37 1678.67 1754.64 1678.67 Q1761.88 1678.67 1766.1 1682.64 Q1770.33 1686.6 1770.33 1693.37 Q1770.33 1700.34 1765.99 1704.22 Q1761.65 1708.07 1753.75 1708.07 Q1751.03 1708.07 1748.19 1707.61 Q1745.39 1707.14 1742.38 1706.22 L1742.38 1700.34 Q1744.98 1701.76 1747.76 1702.46 Q1750.54 1703.15 1753.63 1703.15 Q1758.64 1703.15 1761.56 1700.52 Q1764.48 1697.89 1764.48 1693.37 Q1764.48 1688.86 1761.56 1686.22 Q1758.64 1683.59 1753.63 1683.59 Q1751.29 1683.59 1748.94 1684.11 Q1746.63 1684.63 1744.2 1685.73 L1744.2 1664.03 Z" fill="#000000" fill-rule="nonzero" fill-opacity="1" /><path clip-path="url(#clip640)" d="M1794.34 1667.88 Q1789.83 1667.88 1787.54 1672.34 Q1785.29 1676.76 1785.29 1685.67 Q1785.29 1694.56 1787.54 1699.01 Q1789.83 1703.44 1794.34 1703.44 Q1798.89 1703.44 1801.14 1699.01 Q1803.43 1694.56 1803.43 1685.67 Q1803.43 1676.76 1801.14 1672.34 Q1798.89 1667.88 1794.34 1667.88 M1794.34 1663.25 Q1801.61 1663.25 1805.43 1669.01 Q1809.27 1674.74 1809.27 1685.67 Q1809.27 1696.58 1805.43 1702.34 Q1801.61 1708.07 1794.34 1708.07 Q1787.08 1708.07 1783.23 1702.34 Q1779.41 1696.58 1779.41 1685.67 Q1779.41 1674.74 1783.23 1669.01 Q1787.08 1663.25 1794.34 1663.25 Z" fill="#000000" fill-rule="nonzero" fill-opacity="1" /><path clip-path="url(#clip640)" d="M2130.74 1702.31 L2151.14 1702.31 L2151.14 1707.23 L2123.71 1707.23 L2123.71 1702.31 Q2127.04 1698.87 2132.77 1693.08 Q2138.53 1687.27 2140 1685.59 Q2142.81 1682.43 2143.91 1680.26 Q2145.04 1678.06 2145.04 1675.95 Q2145.04 1672.51 2142.61 1670.34 Q2140.2 1668.17 2136.33 1668.17 Q2133.58 1668.17 2130.51 1669.12 Q2127.47 1670.08 2124 1672.02 L2124 1666.11 Q2127.53 1664.7 2130.6 1663.97 Q2133.66 1663.25 2136.21 1663.25 Q2142.92 1663.25 2146.92 1666.61 Q2150.91 1669.96 2150.91 1675.58 Q2150.91 1678.24 2149.9 1680.64 Q2148.91 1683.01 2146.28 1686.25 Q2145.56 1687.09 2141.68 1691.11 Q2137.8 1695.11 2130.74 1702.31 Z" fill="#000000" fill-rule="nonzero" fill-opacity="1" /><path clip-path="url(#clip640)" d="M2175.91 1667.88 Q2171.4 1667.88 2169.11 1672.34 Q2166.85 1676.76 2166.85 1685.67 Q2166.85 1694.56 2169.11 1699.01 Q2171.4 1703.44 2175.91 1703.44 Q2180.45 1703.44 2182.71 1699.01 Q2185 1694.56 2185 1685.67 Q2185 1676.76 2182.71 1672.34 Q2180.45 1667.88 2175.91 1667.88 M2175.91 1663.25 Q2183.17 1663.25 2186.99 1669.01 Q2190.84 1674.74 2190.84 1685.67 Q2190.84 1696.58 2186.99 1702.34 Q2183.17 1708.07 2175.91 1708.07 Q2168.65 1708.07 2164.8 1702.34 Q2160.98 1696.58 2160.98 1685.67 Q2160.98 1674.74 2164.8 1669.01 Q2168.65 1663.25 2175.91 1663.25 Z" fill="#000000" fill-rule="nonzero" fill-opacity="1" /><path clip-path="url(#clip640)" d="M2213.61 1667.88 Q2209.1 1667.88 2206.81 1672.34 Q2204.56 1676.76 2204.56 1685.67 Q2204.56 1694.56 2206.81 1699.01 Q2209.1 1703.44 2213.61 1703.44 Q2218.15 1703.44 2220.41 1699.01 Q2222.7 1694.56 2222.7 1685.67 Q2222.7 1676.76 2220.41 1672.34 Q2218.15 1667.88 2213.61 1667.88 M2213.61 1663.25 Q2220.87 1663.25 2224.69 1669.01 Q2228.54 1674.74 2228.54 1685.67 Q2228.54 1696.58 2224.69 1702.34 Q2220.87 1708.07 2213.61 1708.07 Q2206.35 1708.07 2202.5 1702.34 Q2198.68 1696.58 2198.68 1685.67 Q2198.68 1674.74 2202.5 1669.01 Q2206.35 1663.25 2213.61 1663.25 Z" fill="#000000" fill-rule="nonzero" fill-opacity="1" /><path clip-path="url(#clip640)" d="M2548.93 1702.31 L2569.32 1702.31 L2569.32 1707.23 L2541.89 1707.23 L2541.89 1702.31 Q2545.22 1698.87 2550.95 1693.08 Q2556.71 1687.27 2558.18 1685.59 Q2560.99 1682.43 2562.09 1680.26 Q2563.22 1678.06 2563.22 1675.95 Q2563.22 1672.51 2560.79 1670.34 Q2558.39 1668.17 2554.51 1668.17 Q2551.76 1668.17 2548.69 1669.12 Q2545.66 1670.08 2542.18 1672.02 L2542.18 1666.11 Q2545.71 1664.7 2548.78 1663.97 Q2551.85 1663.25 2554.39 1663.25 Q2561.11 1663.25 2565.1 1666.61 Q2569.09 1669.96 2569.09 1675.58 Q2569.09 1678.24 2568.08 1680.64 Q2567.1 1683.01 2564.46 1686.25 Q2563.74 1687.09 2559.86 1691.11 Q2555.99 1695.11 2548.93 1702.31 Z" fill="#000000" fill-rule="nonzero" fill-opacity="1" /><path clip-path="url(#clip640)" d="M2581.65 1664.03 L2604.6 1664.03 L2604.6 1668.95 L2587 1668.95 L2587 1679.54 Q2588.28 1679.11 2589.55 1678.9 Q2590.82 1678.67 2592.1 1678.67 Q2599.33 1678.67 2603.55 1682.64 Q2607.78 1686.6 2607.78 1693.37 Q2607.78 1700.34 2603.44 1704.22 Q2599.1 1708.07 2591.2 1708.07 Q2588.48 1708.07 2585.64 1707.61 Q2582.84 1707.14 2579.83 1706.22 L2579.83 1700.34 Q2582.43 1701.76 2585.21 1702.46 Q2587.99 1703.15 2591.08 1703.15 Q2596.09 1703.15 2599.01 1700.52 Q2601.93 1697.89 2601.93 1693.37 Q2601.93 1688.86 2599.01 1686.22 Q2596.09 1683.59 2591.08 1683.59 Q2588.74 1683.59 2586.4 1684.11 Q2584.08 1684.63 2581.65 1685.73 L2581.65 1664.03 Z" fill="#000000" fill-rule="nonzero" fill-opacity="1" /><path clip-path="url(#clip640)" d="M2631.8 1667.88 Q2627.28 1667.88 2625 1672.34 Q2622.74 1676.76 2622.74 1685.67 Q2622.74 1694.56 2625 1699.01 Q2627.28 1703.44 2631.8 1703.44 Q2636.34 1703.44 2638.6 1699.01 Q2640.88 1694.56 2640.88 1685.67 Q2640.88 1676.76 2638.6 1672.34 Q2636.34 1667.88 2631.8 1667.88 M2631.8 1663.25 Q2639.06 1663.25 2642.88 1669.01 Q2646.73 1674.74 2646.73 1685.67 Q2646.73 1696.58 2642.88 1702.34 Q2639.06 1708.07 2631.8 1708.07 Q2624.53 1708.07 2620.68 1702.34 Q2616.86 1696.58 2616.86 1685.67 Q2616.86 1674.74 2620.68 1669.01 Q2624.53 1663.25 2631.8 1663.25 Z" fill="#000000" fill-rule="nonzero" fill-opacity="1" /><path clip-path="url(#clip640)" d="M1268.26 1747.14 L1274.69 1747.14 L1274.69 1789.24 L1297.83 1789.24 L1297.83 1794.66 L1268.26 1794.66 L1268.26 1747.14 Z" fill="#000000" fill-rule="nonzero" fill-opacity="1" /><path clip-path="url(#clip640)" d="M1320.52 1776.74 Q1313.42 1776.74 1310.68 1778.36 Q1307.95 1779.98 1307.95 1783.9 Q1307.95 1787.02 1309.98 1788.86 Q1312.05 1790.68 1315.59 1790.68 Q1320.46 1790.68 1323.38 1787.24 Q1326.34 1783.77 1326.34 1778.04 L1326.34 1776.74 L1320.52 1776.74 M1332.2 1774.32 L1332.2 1794.66 L1326.34 1794.66 L1326.34 1789.24 Q1324.34 1792.49 1321.35 1794.05 Q1318.35 1795.58 1314.03 1795.58 Q1308.55 1795.58 1305.3 1792.52 Q1302.09 1789.44 1302.09 1784.28 Q1302.09 1778.26 1306.1 1775.21 Q1310.14 1772.15 1318.13 1772.15 L1326.34 1772.15 L1326.34 1771.58 Q1326.34 1767.54 1323.67 1765.34 Q1321.03 1763.11 1316.22 1763.11 Q1313.17 1763.11 1310.27 1763.85 Q1307.37 1764.58 1304.7 1766.04 L1304.7 1760.63 Q1307.91 1759.39 1310.94 1758.78 Q1313.96 1758.15 1316.83 1758.15 Q1324.56 1758.15 1328.38 1762.16 Q1332.2 1766.17 1332.2 1774.32 Z" fill="#000000" fill-rule="nonzero" fill-opacity="1" /><path clip-path="url(#clip640)" d="M1367.72 1776.42 Q1367.72 1770.05 1365.08 1766.55 Q1362.47 1763.05 1357.73 1763.05 Q1353.02 1763.05 1350.37 1766.55 Q1347.76 1770.05 1347.76 1776.42 Q1347.76 1782.75 1350.37 1786.25 Q1353.02 1789.75 1357.73 1789.75 Q1362.47 1789.75 1365.08 1786.25 Q1367.72 1782.75 1367.72 1776.42 M1373.58 1790.23 Q1373.58 1799.33 1369.53 1803.76 Q1365.49 1808.21 1357.15 1808.21 Q1354.07 1808.21 1351.33 1807.74 Q1348.59 1807.29 1346.01 1806.34 L1346.01 1800.64 Q1348.59 1802.04 1351.11 1802.71 Q1353.62 1803.38 1356.23 1803.38 Q1361.99 1803.38 1364.86 1800.35 Q1367.72 1797.36 1367.72 1791.28 L1367.72 1788.39 Q1365.91 1791.54 1363.07 1793.1 Q1360.24 1794.66 1356.29 1794.66 Q1349.74 1794.66 1345.73 1789.66 Q1341.72 1784.66 1341.72 1776.42 Q1341.72 1768.14 1345.73 1763.15 Q1349.74 1758.15 1356.29 1758.15 Q1360.24 1758.15 1363.07 1759.71 Q1365.91 1761.27 1367.72 1764.42 L1367.72 1759.01 L1373.58 1759.01 L1373.58 1790.23 Z" fill="#000000" fill-rule="nonzero" fill-opacity="1" /><path clip-path="url(#clip640)" d="M1420.43 1745.19 Q1416.16 1752.51 1414.09 1759.68 Q1412.03 1766.84 1412.03 1774.19 Q1412.03 1781.54 1414.09 1788.77 Q1416.2 1795.96 1420.43 1803.25 L1415.34 1803.25 Q1410.56 1795.77 1408.17 1788.54 Q1405.82 1781.32 1405.82 1774.19 Q1405.82 1767.09 1408.17 1759.9 Q1410.53 1752.71 1415.34 1745.19 L1420.43 1745.19 Z" fill="#000000" fill-rule="nonzero" fill-opacity="1" /><path clip-path="url(#clip640)" d="M1437.58 1748.89 L1437.58 1759.01 L1449.65 1759.01 L1449.65 1763.56 L1437.58 1763.56 L1437.58 1782.91 Q1437.58 1787.27 1438.76 1788.51 Q1439.97 1789.75 1443.63 1789.75 L1449.65 1789.75 L1449.65 1794.66 L1443.63 1794.66 Q1436.85 1794.66 1434.27 1792.14 Q1431.7 1789.59 1431.7 1782.91 L1431.7 1763.56 L1427.4 1763.56 L1427.4 1759.01 L1431.7 1759.01 L1431.7 1748.89 L1437.58 1748.89 Z" fill="#000000" fill-rule="nonzero" fill-opacity="1" /><path clip-path="url(#clip640)" d="M1478.01 1764.48 Q1477.02 1763.91 1475.84 1763.65 Q1474.7 1763.37 1473.3 1763.37 Q1468.33 1763.37 1465.66 1766.61 Q1463.02 1769.83 1463.02 1775.88 L1463.02 1794.66 L1457.13 1794.66 L1457.13 1759.01 L1463.02 1759.01 L1463.02 1764.55 Q1464.86 1761.3 1467.82 1759.74 Q1470.78 1758.15 1475.01 1758.15 Q1475.62 1758.15 1476.35 1758.24 Q1477.08 1758.31 1477.97 1758.47 L1478.01 1764.48 Z" fill="#000000" fill-rule="nonzero" fill-opacity="1" /><path clip-path="url(#clip640)" d="M1500.35 1776.74 Q1493.25 1776.74 1490.52 1778.36 Q1487.78 1779.98 1487.78 1783.9 Q1487.78 1787.02 1489.81 1788.86 Q1491.88 1790.68 1495.42 1790.68 Q1500.29 1790.68 1503.21 1787.24 Q1506.17 1783.77 1506.17 1778.04 L1506.17 1776.74 L1500.35 1776.74 M1512.03 1774.32 L1512.03 1794.66 L1506.17 1794.66 L1506.17 1789.24 Q1504.17 1792.49 1501.18 1794.05 Q1498.19 1795.58 1493.86 1795.58 Q1488.38 1795.58 1485.14 1792.52 Q1481.92 1789.44 1481.92 1784.28 Q1481.92 1778.26 1485.93 1775.21 Q1489.97 1772.15 1497.96 1772.15 L1506.17 1772.15 L1506.17 1771.58 Q1506.17 1767.54 1503.5 1765.34 Q1500.86 1763.11 1496.05 1763.11 Q1493 1763.11 1490.1 1763.85 Q1487.2 1764.58 1484.53 1766.04 L1484.53 1760.63 Q1487.75 1759.39 1490.77 1758.78 Q1493.79 1758.15 1496.66 1758.15 Q1504.39 1758.15 1508.21 1762.16 Q1512.03 1766.17 1512.03 1774.32 Z" fill="#000000" fill-rule="nonzero" fill-opacity="1" /><path clip-path="url(#clip640)" d="M1547.55 1764.42 L1547.55 1745.13 L1553.41 1745.13 L1553.41 1794.66 L1547.55 1794.66 L1547.55 1789.31 Q1545.71 1792.49 1542.87 1794.05 Q1540.07 1795.58 1536.13 1795.58 Q1529.66 1795.58 1525.59 1790.42 Q1521.55 1785.27 1521.55 1776.86 Q1521.55 1768.46 1525.59 1763.3 Q1529.66 1758.15 1536.13 1758.15 Q1540.07 1758.15 1542.87 1759.71 Q1545.71 1761.24 1547.55 1764.42 M1527.6 1776.86 Q1527.6 1783.32 1530.24 1787.02 Q1532.91 1790.68 1537.56 1790.68 Q1542.2 1790.68 1544.88 1787.02 Q1547.55 1783.32 1547.55 1776.86 Q1547.55 1770.4 1544.88 1766.74 Q1542.2 1763.05 1537.56 1763.05 Q1532.91 1763.05 1530.24 1766.74 Q1527.6 1770.4 1527.6 1776.86 Z" fill="#000000" fill-rule="nonzero" fill-opacity="1" /><path clip-path="url(#clip640)" d="M1565.47 1759.01 L1571.33 1759.01 L1571.33 1794.66 L1565.47 1794.66 L1565.47 1759.01 M1565.47 1745.13 L1571.33 1745.13 L1571.33 1752.55 L1565.47 1752.55 L1565.47 1745.13 Z" fill="#000000" fill-rule="nonzero" fill-opacity="1" /><path clip-path="url(#clip640)" d="M1613.21 1773.14 L1613.21 1794.66 L1607.36 1794.66 L1607.36 1773.33 Q1607.36 1768.27 1605.38 1765.76 Q1603.41 1763.24 1599.46 1763.24 Q1594.72 1763.24 1591.98 1766.26 Q1589.25 1769.29 1589.25 1774.51 L1589.25 1794.66 L1583.36 1794.66 L1583.36 1759.01 L1589.25 1759.01 L1589.25 1764.55 Q1591.35 1761.33 1594.18 1759.74 Q1597.05 1758.15 1600.77 1758.15 Q1606.91 1758.15 1610.06 1761.97 Q1613.21 1765.76 1613.21 1773.14 Z" fill="#000000" fill-rule="nonzero" fill-opacity="1" /><path clip-path="url(#clip640)" d="M1648.35 1776.42 Q1648.35 1770.05 1645.71 1766.55 Q1643.1 1763.05 1638.36 1763.05 Q1633.65 1763.05 1631.01 1766.55 Q1628.4 1770.05 1628.4 1776.42 Q1628.4 1782.75 1631.01 1786.25 Q1633.65 1789.75 1638.36 1789.75 Q1643.1 1789.75 1645.71 1786.25 Q1648.35 1782.75 1648.35 1776.42 M1654.21 1790.23 Q1654.21 1799.33 1650.17 1803.76 Q1646.12 1808.21 1637.79 1808.21 Q1634.7 1808.21 1631.96 1807.74 Q1629.22 1807.29 1626.65 1806.34 L1626.65 1800.64 Q1629.22 1802.04 1631.74 1802.71 Q1634.25 1803.38 1636.86 1803.38 Q1642.62 1803.38 1645.49 1800.35 Q1648.35 1797.36 1648.35 1791.28 L1648.35 1788.39 Q1646.54 1791.54 1643.71 1793.1 Q1640.87 1794.66 1636.93 1794.66 Q1630.37 1794.66 1626.36 1789.66 Q1622.35 1784.66 1622.35 1776.42 Q1622.35 1768.14 1626.36 1763.15 Q1630.37 1758.15 1636.93 1758.15 Q1640.87 1758.15 1643.71 1759.71 Q1646.54 1761.27 1648.35 1764.42 L1648.35 1759.01 L1654.21 1759.01 L1654.21 1790.23 Z" fill="#000000" fill-rule="nonzero" fill-opacity="1" /><path clip-path="url(#clip640)" d="M1710.45 1764.42 L1710.45 1745.13 L1716.31 1745.13 L1716.31 1794.66 L1710.45 1794.66 L1710.45 1789.31 Q1708.6 1792.49 1705.77 1794.05 Q1702.97 1795.58 1699.02 1795.58 Q1692.56 1795.58 1688.49 1790.42 Q1684.45 1785.27 1684.45 1776.86 Q1684.45 1768.46 1688.49 1763.3 Q1692.56 1758.15 1699.02 1758.15 Q1702.97 1758.15 1705.77 1759.71 Q1708.6 1761.24 1710.45 1764.42 M1690.49 1776.86 Q1690.49 1783.32 1693.14 1787.02 Q1695.81 1790.68 1700.46 1790.68 Q1705.1 1790.68 1707.78 1787.02 Q1710.45 1783.32 1710.45 1776.86 Q1710.45 1770.4 1707.78 1766.74 Q1705.1 1763.05 1700.46 1763.05 Q1695.81 1763.05 1693.14 1766.74 Q1690.49 1770.4 1690.49 1776.86 Z" fill="#000000" fill-rule="nonzero" fill-opacity="1" /><path clip-path="url(#clip640)" d="M1744.57 1776.74 Q1737.47 1776.74 1734.74 1778.36 Q1732 1779.98 1732 1783.9 Q1732 1787.02 1734.04 1788.86 Q1736.1 1790.68 1739.64 1790.68 Q1744.51 1790.68 1747.44 1787.24 Q1750.4 1783.77 1750.4 1778.04 L1750.4 1776.74 L1744.57 1776.74 M1756.25 1774.32 L1756.25 1794.66 L1750.4 1794.66 L1750.4 1789.24 Q1748.39 1792.49 1745.4 1794.05 Q1742.41 1795.58 1738.08 1795.58 Q1732.6 1795.58 1729.36 1792.52 Q1726.14 1789.44 1726.14 1784.28 Q1726.14 1778.26 1730.15 1775.21 Q1734.19 1772.15 1742.18 1772.15 L1750.4 1772.15 L1750.4 1771.58 Q1750.4 1767.54 1747.72 1765.34 Q1745.08 1763.11 1740.27 1763.11 Q1737.22 1763.11 1734.32 1763.85 Q1731.43 1764.58 1728.75 1766.04 L1728.75 1760.63 Q1731.97 1759.39 1734.99 1758.78 Q1738.01 1758.15 1740.88 1758.15 Q1748.61 1758.15 1752.43 1762.16 Q1756.25 1766.17 1756.25 1774.32 Z" fill="#000000" fill-rule="nonzero" fill-opacity="1" /><path clip-path="url(#clip640)" d="M1783.15 1797.97 Q1780.66 1804.33 1778.31 1806.27 Q1775.95 1808.21 1772.01 1808.21 L1767.33 1808.21 L1767.33 1803.31 L1770.77 1803.31 Q1773.18 1803.31 1774.52 1802.17 Q1775.86 1801.02 1777.48 1796.76 L1778.53 1794.08 L1764.11 1759.01 L1770.32 1759.01 L1781.46 1786.89 L1792.6 1759.01 L1798.81 1759.01 L1783.15 1797.97 Z" fill="#000000" fill-rule="nonzero" fill-opacity="1" /><path clip-path="url(#clip640)" d="M1829.62 1760.06 L1829.62 1765.6 Q1827.13 1764.32 1824.46 1763.69 Q1821.79 1763.05 1818.92 1763.05 Q1814.56 1763.05 1812.37 1764.39 Q1810.2 1765.72 1810.2 1768.4 Q1810.2 1770.43 1811.76 1771.61 Q1813.32 1772.76 1818.03 1773.81 L1820.04 1774.25 Q1826.27 1775.59 1828.88 1778.04 Q1831.53 1780.46 1831.53 1784.82 Q1831.53 1789.79 1827.58 1792.68 Q1823.66 1795.58 1816.79 1795.58 Q1813.92 1795.58 1810.81 1795.01 Q1807.72 1794.46 1804.28 1793.35 L1804.28 1787.3 Q1807.53 1788.99 1810.68 1789.85 Q1813.83 1790.68 1816.92 1790.68 Q1821.05 1790.68 1823.28 1789.28 Q1825.51 1787.84 1825.51 1785.27 Q1825.51 1782.88 1823.89 1781.61 Q1822.3 1780.33 1816.85 1779.16 L1814.82 1778.68 Q1809.37 1777.53 1806.95 1775.18 Q1804.54 1772.79 1804.54 1768.65 Q1804.54 1763.62 1808.1 1760.89 Q1811.67 1758.15 1818.22 1758.15 Q1821.47 1758.15 1824.33 1758.63 Q1827.2 1759.1 1829.62 1760.06 Z" fill="#000000" fill-rule="nonzero" fill-opacity="1" /><path clip-path="url(#clip640)" d="M1839.93 1745.19 L1845.02 1745.19 Q1849.8 1752.71 1852.15 1759.9 Q1854.54 1767.09 1854.54 1774.19 Q1854.54 1781.32 1852.15 1788.54 Q1849.8 1795.77 1845.02 1803.25 L1839.93 1803.25 Q1844.16 1795.96 1846.23 1788.77 Q1848.33 1781.54 1848.33 1774.19 Q1848.33 1766.84 1846.23 1759.68 Q1844.16 1752.51 1839.93 1745.19 Z" fill="#000000" fill-rule="nonzero" fill-opacity="1" /><polyline clip-path="url(#clip640)" style="stroke:#000000; stroke-linecap:round; stroke-linejoin:round; stroke-width:4; stroke-opacity:1; fill:none" points="448.779,1630.83 448.779,125.984 "/>
<polyline clip-path="url(#clip640)" style="stroke:#000000; stroke-linecap:round; stroke-linejoin:round; stroke-width:4; stroke-opacity:1; fill:none" points="448.779,1388.59 467.676,1388.59 "/>
<polyline clip-path="url(#clip640)" style="stroke:#000000; stroke-linecap:round; stroke-linejoin:round; stroke-width:4; stroke-opacity:1; fill:none" points="448.779,1010.76 467.676,1010.76 "/>
<polyline clip-path="url(#clip640)" style="stroke:#000000; stroke-linecap:round; stroke-linejoin:round; stroke-width:4; stroke-opacity:1; fill:none" points="448.779,632.942 467.676,632.942 "/>
<polyline clip-path="url(#clip640)" style="stroke:#000000; stroke-linecap:round; stroke-linejoin:round; stroke-width:4; stroke-opacity:1; fill:none" points="448.779,255.12 467.676,255.12 "/>
<path clip-path="url(#clip640)" d="M335.309 1370.83 Q330.795 1370.83 328.51 1375.29 Q326.253 1379.72 326.253 1388.63 Q326.253 1397.51 328.51 1401.97 Q330.795 1406.4 335.309 1406.4 Q339.852 1406.4 342.109 1401.97 Q344.395 1397.51 344.395 1388.63 Q344.395 1379.72 342.109 1375.29 Q339.852 1370.83 335.309 1370.83 M335.309 1366.2 Q342.572 1366.2 346.391 1371.96 Q350.24 1377.69 350.24 1388.63 Q350.24 1399.54 346.391 1405.3 Q342.572 1411.02 335.309 1411.02 Q328.047 1411.02 324.198 1405.3 Q320.379 1399.54 320.379 1388.63 Q320.379 1377.69 324.198 1371.96 Q328.047 1366.2 335.309 1366.2 Z" fill="#000000" fill-rule="nonzero" fill-opacity="1" /><path clip-path="url(#clip640)" d="M360.512 1402.84 L366.617 1402.84 L366.617 1410.19 L360.512 1410.19 L360.512 1402.84 Z" fill="#000000" fill-rule="nonzero" fill-opacity="1" /><path clip-path="url(#clip640)" d="M391.848 1370.83 Q387.335 1370.83 385.049 1375.29 Q382.792 1379.72 382.792 1388.63 Q382.792 1397.51 385.049 1401.97 Q387.335 1406.4 391.848 1406.4 Q396.391 1406.4 398.648 1401.97 Q400.934 1397.51 400.934 1388.63 Q400.934 1379.72 398.648 1375.29 Q396.391 1370.83 391.848 1370.83 M391.848 1366.2 Q399.111 1366.2 402.93 1371.96 Q406.779 1377.69 406.779 1388.63 Q406.779 1399.54 402.93 1405.3 Q399.111 1411.02 391.848 1411.02 Q384.586 1411.02 380.737 1405.3 Q376.918 1399.54 376.918 1388.63 Q376.918 1377.69 380.737 1371.96 Q384.586 1366.2 391.848 1366.2 Z" fill="#000000" fill-rule="nonzero" fill-opacity="1" /><path clip-path="url(#clip640)" d="M336.843 993.012 Q332.329 993.012 330.043 997.468 Q327.786 1001.9 327.786 1010.81 Q327.786 1019.69 330.043 1024.15 Q332.329 1028.57 336.843 1028.57 Q341.386 1028.57 343.643 1024.15 Q345.928 1019.69 345.928 1010.81 Q345.928 1001.9 343.643 997.468 Q341.386 993.012 336.843 993.012 M336.843 988.383 Q344.106 988.383 347.925 994.141 Q351.773 999.87 351.773 1010.81 Q351.773 1021.72 347.925 1027.47 Q344.106 1033.2 336.843 1033.2 Q329.58 1033.2 325.732 1027.47 Q321.912 1021.72 321.912 1010.81 Q321.912 999.87 325.732 994.141 Q329.58 988.383 336.843 988.383 Z" fill="#000000" fill-rule="nonzero" fill-opacity="1" /><path clip-path="url(#clip640)" d="M362.045 1025.01 L368.151 1025.01 L368.151 1032.36 L362.045 1032.36 L362.045 1025.01 Z" fill="#000000" fill-rule="nonzero" fill-opacity="1" /><path clip-path="url(#clip640)" d="M381.895 1027.44 L391.443 1027.44 L391.443 994.488 L381.056 996.571 L381.056 991.247 L391.385 989.164 L397.23 989.164 L397.23 1027.44 L406.779 1027.44 L406.779 1032.36 L381.895 1032.36 L381.895 1027.44 Z" fill="#000000" fill-rule="nonzero" fill-opacity="1" /><path clip-path="url(#clip640)" d="M337.306 615.19 Q332.792 615.19 330.506 619.646 Q328.249 624.073 328.249 632.985 Q328.249 641.868 330.506 646.324 Q332.792 650.751 337.306 650.751 Q341.849 650.751 344.106 646.324 Q346.391 641.868 346.391 632.985 Q346.391 624.073 344.106 619.646 Q341.849 615.19 337.306 615.19 M337.306 610.561 Q344.569 610.561 348.388 616.319 Q352.236 622.048 352.236 632.985 Q352.236 643.894 348.388 649.652 Q344.569 655.381 337.306 655.381 Q330.043 655.381 326.195 649.652 Q322.375 643.894 322.375 632.985 Q322.375 622.048 326.195 616.319 Q330.043 610.561 337.306 610.561 Z" fill="#000000" fill-rule="nonzero" fill-opacity="1" /><path clip-path="url(#clip640)" d="M362.508 647.192 L368.614 647.192 L368.614 654.542 L362.508 654.542 L362.508 647.192 Z" fill="#000000" fill-rule="nonzero" fill-opacity="1" /><path clip-path="url(#clip640)" d="M386.38 649.623 L406.779 649.623 L406.779 654.542 L379.348 654.542 L379.348 649.623 Q382.676 646.18 388.405 640.393 Q394.163 634.577 395.639 632.899 Q398.446 629.745 399.545 627.575 Q400.674 625.375 400.674 623.263 Q400.674 619.82 398.243 617.65 Q395.841 615.48 391.964 615.48 Q389.215 615.48 386.148 616.435 Q383.11 617.389 379.638 619.328 L379.638 613.425 Q383.168 612.007 386.235 611.284 Q389.302 610.561 391.848 610.561 Q398.561 610.561 402.554 613.917 Q406.547 617.274 406.547 622.887 Q406.547 625.549 405.535 627.951 Q404.551 630.323 401.918 633.564 Q401.194 634.403 397.317 638.425 Q393.44 642.418 386.38 649.623 Z" fill="#000000" fill-rule="nonzero" fill-opacity="1" /><path clip-path="url(#clip640)" d="M336.12 237.368 Q331.606 237.368 329.32 241.824 Q327.063 246.252 327.063 255.164 Q327.063 264.047 329.32 268.503 Q331.606 272.93 336.12 272.93 Q340.662 272.93 342.919 268.503 Q345.205 264.047 345.205 255.164 Q345.205 246.252 342.919 241.824 Q340.662 237.368 336.12 237.368 M336.12 232.739 Q343.382 232.739 347.202 238.497 Q351.05 244.226 351.05 255.164 Q351.05 266.072 347.202 271.83 Q343.382 277.559 336.12 277.559 Q328.857 277.559 325.008 271.83 Q321.189 266.072 321.189 255.164 Q321.189 244.226 325.008 238.497 Q328.857 232.739 336.12 232.739 Z" fill="#000000" fill-rule="nonzero" fill-opacity="1" /><path clip-path="url(#clip640)" d="M361.322 269.371 L367.427 269.371 L367.427 276.72 L361.322 276.72 L361.322 269.371 Z" fill="#000000" fill-rule="nonzero" fill-opacity="1" /><path clip-path="url(#clip640)" d="M397.867 253.427 Q402.062 254.324 404.406 257.16 Q406.779 259.996 406.779 264.162 Q406.779 270.557 402.381 274.058 Q397.983 277.559 389.881 277.559 Q387.161 277.559 384.267 277.009 Q381.403 276.489 378.336 275.418 L378.336 269.776 Q380.766 271.194 383.66 271.917 Q386.553 272.64 389.707 272.64 Q395.205 272.64 398.069 270.47 Q400.963 268.3 400.963 264.162 Q400.963 260.343 398.272 258.202 Q395.61 256.032 390.836 256.032 L385.801 256.032 L385.801 251.228 L391.067 251.228 Q395.378 251.228 397.664 249.521 Q399.95 247.785 399.95 244.544 Q399.95 241.217 397.578 239.452 Q395.234 237.658 390.836 237.658 Q388.434 237.658 385.685 238.179 Q382.936 238.7 379.638 239.799 L379.638 234.591 Q382.965 233.665 385.859 233.202 Q388.781 232.739 391.356 232.739 Q398.012 232.739 401.889 235.777 Q405.766 238.786 405.766 243.937 Q405.766 247.525 403.712 250.013 Q401.657 252.473 397.867 253.427 Z" fill="#000000" fill-rule="nonzero" fill-opacity="1" /><path clip-path="url(#clip640)" d="M222.937 1043.9 L246.585 1052.62 L246.585 1035.15 L222.937 1043.9 M216.603 1047.53 L216.603 1040.24 L264.123 1022.13 L264.123 1028.81 L251.933 1033.14 L251.933 1054.56 L264.123 1058.89 L264.123 1065.67 L216.603 1047.53 Z" fill="#000000" fill-rule="nonzero" fill-opacity="1" /><path clip-path="url(#clip640)" d="M220.263 980.753 L227.043 980.753 Q224.019 983.999 222.523 987.691 Q221.027 991.351 221.027 995.489 Q221.027 1003.64 226.024 1007.97 Q230.989 1012.29 240.411 1012.29 Q249.8 1012.29 254.797 1007.97 Q259.762 1003.64 259.762 995.489 Q259.762 991.351 258.266 987.691 Q256.77 983.999 253.747 980.753 L260.463 980.753 Q262.754 984.126 263.9 987.914 Q265.046 991.67 265.046 995.871 Q265.046 1006.66 258.457 1012.87 Q251.837 1019.07 240.411 1019.07 Q228.952 1019.07 222.364 1012.87 Q215.743 1006.66 215.743 995.871 Q215.743 991.606 216.889 987.85 Q218.003 984.063 220.263 980.753 Z" fill="#000000" fill-rule="nonzero" fill-opacity="1" /><path clip-path="url(#clip640)" d="M216.603 970.822 L216.603 943.513 L222.014 943.513 L222.014 964.393 L236.018 964.393 L236.018 945.55 L241.429 945.55 L241.429 964.393 L264.123 964.393 L264.123 970.822 L216.603 970.822 Z" fill="#000000" fill-rule="nonzero" fill-opacity="1" /><path clip-path="url(#clip640)" d="M232.581 899.049 Q232.581 903.759 236.273 906.497 Q239.933 909.234 246.331 909.234 Q252.728 909.234 256.42 906.528 Q260.081 903.791 260.081 899.049 Q260.081 894.37 256.389 891.633 Q252.696 888.895 246.331 888.895 Q239.997 888.895 236.305 891.633 Q232.581 894.37 232.581 899.049 M227.616 899.049 Q227.616 891.41 232.581 887.049 Q237.546 882.689 246.331 882.689 Q255.084 882.689 260.081 887.049 Q265.046 891.41 265.046 899.049 Q265.046 906.719 260.081 911.08 Q255.084 915.409 246.331 915.409 Q237.546 915.409 232.581 911.08 Q227.616 906.719 227.616 899.049 Z" fill="#000000" fill-rule="nonzero" fill-opacity="1" /><path clip-path="url(#clip640)" d="M214.598 854.934 L219.467 854.934 L219.467 860.536 Q219.467 863.687 220.741 864.928 Q222.014 866.138 225.324 866.138 L228.475 866.138 L228.475 856.494 L233.026 856.494 L233.026 866.138 L264.123 866.138 L264.123 872.026 L233.026 872.026 L233.026 877.628 L228.475 877.628 L228.475 872.026 L225.992 872.026 Q220.04 872.026 217.335 869.257 Q214.598 866.488 214.598 860.472 L214.598 854.934 Z" fill="#000000" fill-rule="nonzero" fill-opacity="1" /><path clip-path="url(#clip640)" d="M214.311 821.769 L279.496 821.769 L279.496 827.18 L214.311 827.18 L214.311 821.769 Z" fill="#000000" fill-rule="nonzero" fill-opacity="1" /><path clip-path="url(#clip640)" d="M257.343 774.695 L244.58 774.695 L244.58 785.198 L239.297 785.198 L239.297 768.329 L259.699 768.329 Q262.34 772.053 263.709 776.541 Q265.046 781.028 265.046 786.121 Q265.046 797.261 258.553 803.563 Q252.028 809.833 240.411 809.833 Q228.761 809.833 222.268 803.563 Q215.743 797.261 215.743 786.121 Q215.743 781.474 216.889 777.305 Q218.035 773.103 220.263 769.57 L227.106 769.57 Q224.083 773.135 222.555 777.145 Q221.027 781.156 221.027 785.58 Q221.027 794.301 225.897 798.693 Q230.767 803.054 240.411 803.054 Q250.023 803.054 254.893 798.693 Q259.762 794.301 259.762 785.58 Q259.762 782.174 259.189 779.501 Q258.585 776.827 257.343 774.695 Z" fill="#000000" fill-rule="nonzero" fill-opacity="1" /><path clip-path="url(#clip640)" d="M274.945 729.753 L279.496 729.753 L279.496 763.618 L274.945 763.618 L274.945 729.753 Z" fill="#000000" fill-rule="nonzero" fill-opacity="1" /><path clip-path="url(#clip640)" d="M218.353 718.454 L228.475 718.454 L228.475 706.391 L233.026 706.391 L233.026 718.454 L252.378 718.454 Q256.739 718.454 257.98 717.276 Q259.221 716.066 259.221 712.406 L259.221 706.391 L264.123 706.391 L264.123 712.406 Q264.123 719.186 261.608 721.764 Q259.062 724.342 252.378 724.342 L233.026 724.342 L233.026 728.639 L228.475 728.639 L228.475 724.342 L218.353 724.342 L218.353 718.454 Z" fill="#000000" fill-rule="nonzero" fill-opacity="1" /><path clip-path="url(#clip640)" d="M214.311 691.145 L279.496 691.145 L279.496 696.556 L214.311 696.556 L214.311 691.145 Z" fill="#000000" fill-rule="nonzero" fill-opacity="1" /><polyline clip-path="url(#clip641)" style="stroke:#d45e00; stroke-linecap:round; stroke-linejoin:round; stroke-width:8; stroke-opacity:1; fill:none" stroke-dasharray="32, 20" points="511.757,240.015 520.121,384.313 528.485,172.561 536.848,309.897 545.212,382.358 553.576,464.561 561.939,467.948 570.303,327.946 578.667,392.099 587.03,355.173 595.394,623.994 603.758,608.576 612.121,542.419 620.485,633.803 628.849,605.034 637.212,812.295 645.576,483.98 653.94,560.406 662.303,793.592 670.667,636.849 679.031,804.964 687.394,783.55 695.758,708.463 704.122,912.972 712.485,844.928 720.849,832.864 729.213,912.465 737.576,953.882 745.94,780.895 754.304,879.912 762.667,934.699 771.031,981.08 779.395,933.071 787.758,1008.81 796.122,972.9 804.486,951.876 812.849,993.575 821.213,938.271 829.577,907.98 837.94,1044.93 846.304,999.716 854.668,995.761 863.031,1014.42 871.395,1152.88 879.759,1066.99 888.122,928.172 896.486,1209.42 904.85,1125.21 913.213,1034.19 921.577,1168.02 929.941,1092.51 938.304,1128.22 946.668,1103.01 955.032,1149.06 963.395,1061.28 971.759,1115.26 980.123,1150.7 988.486,1135.39 996.85,1075.42 1005.21,1227 1013.58,1173.15 1021.94,1191.52 1030.3,1067.67 1038.67,1238.42 1047.03,1215.74 1055.4,1181.23 1063.76,1261.6 1072.12,1169.95 1080.49,1240.36 1088.85,1245.87 1097.21,1248.66 1105.58,1117.52 1113.94,1262.87 1122.3,1224.16 1130.67,1165.07 1139.03,1123.97 1147.4,1227.98 1155.76,1259.2 1164.12,1222.44 1172.49,1289.92 1180.85,1235.2 1189.21,1204.27 1197.58,1313.65 1205.94,1301.63 1214.31,1256.98 1222.67,1311.1 1231.03,1305.1 1239.4,1256.75 1247.76,1324.29 1256.12,1246.4 1264.49,1262.1 1272.85,1179.48 1281.21,1326.61 1289.58,1210.52 1297.94,1208.95 1306.31,1256.52 1314.67,1121.55 1323.03,1216.62 1331.4,1236.46 1339.76,1184.66 1348.12,1175.36 1356.49,1188.78 1364.85,1184.96 1373.21,1271.81 1381.58,1146.12 1389.94,1188.49 1398.31,1221.42 1406.67,1316.3 1415.03,1203.94 1423.4,1324.2 1431.76,1230.93 1440.12,1307.81 1448.49,1216.39 1456.85,1247.01 1465.22,1220.78 1473.58,1195.58 1481.94,1214.65 1490.31,1249.61 1498.67,1163.48 1507.03,1126.19 1515.4,1166.06 1523.76,1185.43 1532.12,1232.5 1540.49,1189.59 1548.85,1252.39 1557.22,1201.95 1565.58,1240.53 1573.94,1244.96 1582.31,1170.96 1590.67,1171.4 1599.03,1110.29 1607.4,1281.95 1615.76,1239.19 1624.12,1223.82 1632.49,1261.97 1640.85,1234.7 1649.22,1293.07 1657.58,1143.93 1665.94,1200.88 1674.31,1251.78 1682.67,1261.16 1691.03,1232.2 1699.4,1230.74 1707.76,1237.13 1716.13,1224.5 1724.49,1195.46 1732.85,1393.76 1741.22,1237.95 1749.58,1231.18 1757.94,1285 1766.31,1108.98 1774.67,1196.95 1783.03,1211.62 1791.4,1223.56 1799.76,1232.22 1808.13,1187.31 1816.49,1272.19 1824.85,1210.26 1833.22,1256.45 1841.58,1145.81 1849.94,1145.63 1858.31,1212.64 1866.67,1234.18 1875.03,1268.82 1883.4,1280.38 1891.76,1297.58 1900.13,1328.55 1908.49,1206.64 1916.85,1205.13 1925.22,1239.16 1933.58,1288.18 1941.94,1200.18 1950.31,1214.24 1958.67,1232.46 1967.04,1385.87 1975.4,1260.3 1983.76,1260.95 1992.13,1371.12 2000.49,1279.84 2008.85,1388.45 2017.22,1376.79 2025.58,1269.33 2033.94,1321.65 2042.31,1409.93 2050.67,1382.97 2059.04,1434.92 2067.4,1360.51 2075.76,1390.13 2084.13,1352.63 2092.49,1396.69 2100.85,1388.5 2109.22,1350.62 2117.58,1395.92 2125.94,1374.17 2134.31,1393.37 2142.67,1412.74 2151.04,1316.12 2159.4,1314.67 2167.76,1367.72 2176.13,1414.27 2184.49,1302.71 2192.85,1346.15 2201.22,1257.81 2209.58,1315.16 2217.95,1425.82 2226.31,1301.79 2234.67,1319.98 2243.04,1338.5 2251.4,1362.13 2259.76,1415.24 2268.13,1270.23 2276.49,1330.09 2284.85,1418.92 2293.22,1286.76 2301.58,1372.45 2309.95,1300.08 2318.31,1331.87 2326.67,1390.76 2335.04,1379.84 2343.4,1472.91 2351.76,1313.36 2360.13,1402.18 2368.49,1438.71 2376.85,1352.82 2385.22,1453.35 2393.58,1455.86 2401.95,1461.76 2410.31,1475.42 2418.67,1489.94 2427.04,1545.05 2435.4,1444.97 2443.76,1494.2 2452.13,1540.05 2460.49,1452.31 2468.86,1473.23 2477.22,1516.93 2485.58,1457.01 2493.95,1584.64 2502.31,1457.11 2510.67,1491 2519.04,1547.81 2527.4,1437.25 2535.76,1588.24 2544.13,1506.7 2552.49,1490.12 2560.86,1527.58 2569.22,1557.7 2577.58,1472.57 2585.95,1483.64 2594.31,1554.81 2602.67,1483.54 2611.04,1543.41 "/>
<polyline clip-path="url(#clip641)" style="stroke:#009e73; stroke-linecap:round; stroke-linejoin:round; stroke-width:8; stroke-opacity:1; fill:none" points="511.757,327.298 520.121,374.535 528.485,430.115 536.848,478.69 545.212,522.603 553.576,563.457 561.939,604.592 570.303,637.174 578.667,681.28 587.03,724.356 595.394,768.128 603.758,795.164 612.121,817.543 620.485,854.235 628.849,888.22 637.212,905.095 645.576,931.637 653.94,947.773 662.303,967.201 670.667,993.521 679.031,1013.22 687.394,1028.53 695.758,1051.36 704.122,1061.44 712.485,1080.56 720.849,1090.92 729.213,1109.34 737.576,1122.54 745.94,1130.1 754.304,1148.35 762.667,1162.29 771.031,1168.07 779.395,1182.07 787.758,1182.38 796.122,1195.13 804.486,1210.19 812.849,1212.69 821.213,1227.07 829.577,1234.32 837.94,1242.43 846.304,1242.55 854.668,1263.73 863.031,1266.05 871.395,1276.57 879.759,1285.69 888.122,1286.56 896.486,1299.75 904.85,1306.83 913.213,1302.72 921.577,1312.19 929.941,1309.29 938.304,1317.88 946.668,1321.97 955.032,1319.33 963.395,1324.48 971.759,1327.99 980.123,1336.8 988.486,1344.31 996.85,1339.11 1005.21,1343.35 1013.58,1352.04 1021.94,1353.02 1030.3,1355.39 1038.67,1359.2 1047.03,1361.09 1055.4,1363.88 1063.76,1360.6 1072.12,1371.73 1080.49,1365.8 1088.85,1367.78 1097.21,1370.79 1105.58,1372.59 1113.94,1369.32 1122.3,1366.52 1130.67,1372.36 1139.03,1377.04 1147.4,1378.46 1155.76,1380.75 1164.12,1386.27 1172.49,1383.29 1180.85,1384.1 1189.21,1385.78 1197.58,1388.57 1205.94,1381.16 1214.31,1390.8 1222.67,1384.16 1231.03,1388.94 1239.4,1388.59 1247.76,1387.17 1256.12,1395.41 1264.49,1398.09 1272.85,1391.08 1281.21,1391.85 1289.58,1394.77 1297.94,1397.13 1306.31,1393.24 1314.67,1401.49 1323.03,1405.11 1331.4,1400.91 1339.76,1401.01 1348.12,1404.86 1356.49,1413.88 1364.85,1408.48 1373.21,1410.87 1381.58,1405.56 1389.94,1406.83 1398.31,1412.41 1406.67,1411.74 1415.03,1413.06 1423.4,1420.24 1431.76,1411.41 1440.12,1411.21 1448.49,1409.42 1456.85,1417.26 1465.22,1404.9 1473.58,1411.64 1481.94,1409.43 1490.31,1413.54 1498.67,1409.56 1507.03,1415.99 1515.4,1411.86 1523.76,1403.65 1532.12,1405.31 1540.49,1405.5 1548.85,1403.98 1557.22,1405.67 1565.58,1408.78 1573.94,1408.11 1582.31,1412.57 1590.67,1408.32 1599.03,1405.37 1607.4,1404.59 1615.76,1407.3 1624.12,1401.82 1632.49,1406.54 1640.85,1406.75 1649.22,1405.07 1657.58,1415.86 1665.94,1408.25 1674.31,1407.27 1682.67,1412.82 1691.03,1410.11 1699.4,1408.86 1707.76,1407.65 1716.13,1413.88 1724.49,1416.52 1732.85,1416.47 1741.22,1420 1749.58,1414.99 1757.94,1421.59 1766.31,1422.72 1774.67,1416.62 1783.03,1416.6 1791.4,1411.99 1799.76,1414.14 1808.13,1413.43 1816.49,1418.95 1824.85,1412.71 1833.22,1414.19 1841.58,1416.61 1849.94,1410.99 1858.31,1408.63 1866.67,1413.87 1875.03,1414.43 1883.4,1411.09 1891.76,1416 1900.13,1426.81 1908.49,1417.66 1916.85,1419.67 1925.22,1415.73 1933.58,1418.5 1941.94,1414.4 1950.31,1416.8 1958.67,1417.29 1967.04,1417.24 1975.4,1415.79 1983.76,1422.37 1992.13,1423.83 2000.49,1416.59 2008.85,1418.89 2017.22,1427.21 2025.58,1421.24 2033.94,1425.36 2042.31,1424 2050.67,1424.95 2059.04,1416.04 2067.4,1415.49 2075.76,1422.8 2084.13,1429.48 2092.49,1420.04 2100.85,1421.5 2109.22,1419.41 2117.58,1422.81 2125.94,1423.5 2134.31,1430.46 2142.67,1426.25 2151.04,1421.11 2159.4,1422.29 2167.76,1416.59 2176.13,1414.07 2184.49,1419.31 2192.85,1420.31 2201.22,1417.14 2209.58,1416.46 2217.95,1415.91 2226.31,1411.05 2234.67,1415.01 2243.04,1417.99 2251.4,1416.77 2259.76,1416.28 2268.13,1413.09 2276.49,1416.3 2284.85,1427.69 2293.22,1417.66 2301.58,1415.01 2309.95,1412.99 2318.31,1413.62 2326.67,1421.95 2335.04,1421.99 2343.4,1414.01 2351.76,1412.82 2360.13,1415.8 2368.49,1416.15 2376.85,1416.12 2385.22,1419.82 2393.58,1417.78 2401.95,1416.97 2410.31,1417.21 2418.67,1406.26 2427.04,1411.57 2435.4,1416.52 2443.76,1413.16 2452.13,1416.51 2460.49,1411.88 2468.86,1411.63 2477.22,1418.4 2485.58,1414.84 2493.95,1410.07 2502.31,1403.72 2510.67,1405.46 2519.04,1411.77 2527.4,1405.93 2535.76,1410.18 2544.13,1411.71 2552.49,1407.62 2560.86,1404.88 2569.22,1405.51 2577.58,1399.58 2585.95,1405.93 2594.31,1407.19 2602.67,1405.26 2611.04,1410.52 "/>
<path clip-path="url(#clip641)" d="M511.757 462.528 L520.121 526.905 L528.485 574.062 L536.848 622.132 L545.212 669.807 L553.576 707.305 L561.939 744.178 L570.303 821.78 L578.667 829.077 L587.03 882.484 L595.394 933.308 L603.758 961.861 L612.121 989.256 L620.485 1010.98 L628.849 1047.75 L637.212 1085.17 L645.576 1089.72 L653.94 1138.74 L662.303 1151.94 L670.667 1181.57 L679.031 1186.07 L687.394 1190.88 L695.758 1222.85 L704.122 1224.26 L712.485 1231.42 L720.849 1242.35 L729.213 1260.63 L737.576 1286.32 L745.94 1301.03 L754.304 1307.98 L762.667 1330.53 L771.031 1340.22 L779.395 1358.3 L787.758 1358.21 L796.122 1355.67 L804.486 1381.99 L812.849 1378.53 L821.213 1383.34 L829.577 1381.36 L837.94 1392.21 L846.304 1410.81 L854.668 1417.87 L863.031 1418.65 L871.395 1415.05 L879.759 1430.26 L888.122 1448.01 L896.486 1450.99 L904.85 1463.03 L913.213 1466 L921.577 1469.48 L929.941 1451.98 L938.304 1488.67 L946.668 1496.03 L955.032 1486.32 L963.395 1494.72 L971.759 1486.01 L980.123 1492.81 L988.486 1489.88 L996.85 1497.36 L1005.21 1505.5 L1013.58 1515.97 L1021.94 1514.61 L1030.3 1513.46 L1038.67 1489.03 L1047.03 1512.55 L1055.4 1486.89 L1063.76 1514.87 L1072.12 1510.9 L1080.49 1499.26 L1088.85 1502.99 L1097.21 1502.95 L1105.58 1520.95 L1113.94 1529.81 L1122.3 1520.75 L1130.67 1518.45 L1139.03 1513.44 L1147.4 1529.23 L1155.76 1528.28 L1164.12 1531.24 L1172.49 1525.17 L1180.85 1515.01 L1189.21 1533.27 L1197.58 1544.17 L1205.94 1526.86 L1214.31 1550.27 L1222.67 1520.8 L1231.03 1514.16 L1239.4 1526.57 L1247.76 1518.62 L1256.12 1523 L1264.49 1532.71 L1272.85 1530.93 L1281.21 1521.23 L1289.58 1523.34 L1297.94 1530.83 L1306.31 1551.35 L1314.67 1527.33 L1323.03 1541.55 L1331.4 1523.79 L1339.76 1532.7 L1348.12 1524.52 L1356.49 1551.03 L1364.85 1532.73 L1373.21 1539.47 L1381.58 1545.73 L1389.94 1531.25 L1398.31 1537.04 L1406.67 1540.96 L1415.03 1561.32 L1423.4 1558.07 L1431.76 1545.86 L1440.12 1543.95 L1448.49 1537.83 L1456.85 1572.47 L1465.22 1553.8 L1473.58 1543.17 L1481.94 1538.11 L1490.31 1540.09 L1498.67 1550.91 L1507.03 1548.44 L1515.4 1538.48 L1523.76 1537.31 L1532.12 1542 L1540.49 1551.95 L1548.85 1554.81 L1557.22 1551.28 L1565.58 1546.39 L1573.94 1548.87 L1582.31 1564.68 L1590.67 1553.48 L1599.03 1539.33 L1607.4 1549.35 L1615.76 1541.17 L1624.12 1539.35 L1632.49 1544.56 L1640.85 1537.16 L1649.22 1550.37 L1657.58 1564.14 L1665.94 1539.17 L1674.31 1542.73 L1682.67 1548.55 L1691.03 1552.26 L1699.4 1561.47 L1707.76 1543.67 L1716.13 1556.11 L1724.49 1565.63 L1732.85 1555.53 L1741.22 1570.87 L1749.58 1550.06 L1757.94 1560.03 L1766.31 1564.3 L1774.67 1554.1 L1783.03 1551.7 L1791.4 1544.24 L1799.76 1543.18 L1808.13 1537.89 L1816.49 1556.82 L1824.85 1553.46 L1833.22 1551.26 L1841.58 1556.88 L1849.94 1544.99 L1858.31 1544.53 L1866.67 1540.24 L1875.03 1531.76 L1883.4 1548.09 L1891.76 1557.53 L1900.13 1571.42 L1908.49 1557.27 L1916.85 1569.57 L1925.22 1565.98 L1933.58 1569.45 L1941.94 1557.08 L1950.31 1549.92 L1958.67 1557.36 L1967.04 1550.82 L1975.4 1555.12 L1983.76 1563.05 L1992.13 1572.51 L2000.49 1558.44 L2008.85 1572.06 L2017.22 1565.31 L2025.58 1574.36 L2033.94 1574.38 L2042.31 1568.6 L2050.67 1546.01 L2059.04 1564.3 L2067.4 1567.31 L2075.76 1557.3 L2084.13 1563.05 L2092.49 1543.07 L2100.85 1549.87 L2109.22 1573.59 L2117.58 1544.06 L2125.94 1549.11 L2134.31 1563.94 L2142.67 1557.29 L2151.04 1547.43 L2159.4 1557.65 L2167.76 1534.95 L2176.13 1554.6 L2184.49 1556.14 L2192.85 1558.62 L2201.22 1560.22 L2209.58 1553.07 L2217.95 1553.88 L2226.31 1542.52 L2234.67 1542.29 L2243.04 1569.73 L2251.4 1551.2 L2259.76 1552.92 L2268.13 1548.1 L2276.49 1543.13 L2284.85 1565.78 L2293.22 1566.2 L2301.58 1544.11 L2309.95 1556.27 L2318.31 1544.28 L2326.67 1562.67 L2335.04 1561.5 L2343.4 1565.26 L2351.76 1554.95 L2360.13 1560.72 L2368.49 1557.1 L2376.85 1551.12 L2385.22 1558.48 L2393.58 1555.33 L2401.95 1548.75 L2410.31 1565.83 L2418.67 1554.12 L2427.04 1550.65 L2435.4 1553.88 L2443.76 1558.56 L2452.13 1552.59 L2460.49 1556.52 L2468.86 1552.45 L2477.22 1550.77 L2485.58 1550.11 L2493.95 1566.72 L2502.31 1546.08 L2510.67 1552.28 L2519.04 1556.6 L2527.4 1556 L2535.76 1549.27 L2544.13 1553.07 L2552.49 1547.14 L2560.86 1558.07 L2569.22 1549 L2577.58 1539.59 L2585.95 1535.79 L2594.31 1539.41 L2602.67 1551.41 L2611.04 1551.61 L2611.04 1267.92 L2602.67 1263.5 L2594.31 1256.13 L2585.95 1268.25 L2577.58 1234.66 L2569.22 1253.32 L2560.86 1235.74 L2552.49 1247.66 L2544.13 1258.78 L2535.76 1255.36 L2527.4 1246.33 L2519.04 1256.91 L2510.67 1257.39 L2502.31 1254.56 L2493.95 1275.26 L2485.58 1277.23 L2477.22 1254.31 L2468.86 1253.78 L2460.49 1270.16 L2452.13 1272.47 L2443.76 1262.03 L2435.4 1278.12 L2427.04 1278.88 L2418.67 1249.92 L2410.31 1270.54 L2401.95 1283.08 L2393.58 1282.51 L2385.22 1288.84 L2376.85 1276.02 L2368.49 1274.42 L2360.13 1261.15 L2351.76 1255.35 L2343.4 1261.77 L2335.04 1283.3 L2326.67 1283.1 L2318.31 1258.3 L2309.95 1273.09 L2301.58 1287.06 L2293.22 1261.99 L2284.85 1271.66 L2276.49 1251.88 L2268.13 1254.38 L2259.76 1259.34 L2251.4 1274.44 L2243.04 1266.19 L2234.67 1277.89 L2226.31 1276.1 L2217.95 1263.71 L2209.58 1278.36 L2201.22 1266.12 L2192.85 1277.9 L2184.49 1286.05 L2176.13 1258.02 L2167.76 1269.71 L2159.4 1277.65 L2151.04 1265.81 L2142.67 1279.81 L2134.31 1266.64 L2125.94 1278.16 L2117.58 1270.4 L2109.22 1280.78 L2100.85 1285.38 L2092.49 1274.63 L2084.13 1300.62 L2075.76 1266.1 L2067.4 1272.16 L2059.04 1279.57 L2050.67 1283.52 L2042.31 1283.35 L2033.94 1278.52 L2025.58 1254.54 L2017.22 1277.04 L2008.85 1278.18 L2000.49 1257.85 L1992.13 1267.22 L1983.76 1255.67 L1975.4 1263.68 L1967.04 1266.04 L1958.67 1253.69 L1950.31 1273.53 L1941.94 1264.95 L1933.58 1290.24 L1925.22 1267.25 L1916.85 1291.99 L1908.49 1277.47 L1900.13 1268.87 L1891.76 1275.09 L1883.4 1246.52 L1875.03 1265.27 L1866.67 1260.89 L1858.31 1277.64 L1849.94 1274.07 L1841.58 1290.43 L1833.22 1263.74 L1824.85 1285.95 L1816.49 1268.29 L1808.13 1290.81 L1799.76 1280.56 L1791.4 1271.5 L1783.03 1279.12 L1774.67 1270.92 L1766.31 1280.78 L1757.94 1281.86 L1749.58 1273.78 L1741.22 1284.51 L1732.85 1275.81 L1724.49 1282.27 L1716.13 1278.18 L1707.76 1267.55 L1699.4 1261.54 L1691.03 1272.15 L1682.67 1263.18 L1674.31 1262.39 L1665.94 1277.39 L1657.58 1270.19 L1649.22 1254.95 L1640.85 1265.24 L1632.49 1272.32 L1624.12 1257.08 L1615.76 1264.96 L1607.4 1264.25 L1599.03 1262.64 L1590.67 1273.56 L1582.31 1278.49 L1573.94 1256.37 L1565.58 1260.18 L1557.22 1255.75 L1548.85 1267.06 L1540.49 1250.62 L1532.12 1261.86 L1523.76 1277.75 L1515.4 1267.6 L1507.03 1277.26 L1498.67 1269.84 L1490.31 1281.37 L1481.94 1275.04 L1473.58 1262.38 L1465.22 1262.44 L1456.85 1283.92 L1448.49 1260.56 L1440.12 1263.82 L1431.76 1265.04 L1423.4 1282.17 L1415.03 1262.75 L1406.67 1279.06 L1398.31 1272.79 L1389.94 1272.69 L1381.58 1260.18 L1373.21 1262.93 L1364.85 1280.62 L1356.49 1274.98 L1348.12 1269.41 L1339.76 1261.88 L1331.4 1256.09 L1323.03 1280.82 L1314.67 1276.37 L1306.31 1245.56 L1297.94 1266.57 L1289.58 1271.65 L1281.21 1240.98 L1272.85 1248.77 L1264.49 1268.26 L1256.12 1273.98 L1247.76 1248.56 L1239.4 1246.51 L1231.03 1255.54 L1222.67 1249.12 L1214.31 1253.7 L1205.94 1239.91 L1197.58 1238.75 L1189.21 1231.96 L1180.85 1248.11 L1172.49 1225.16 L1164.12 1244.41 L1155.76 1230.73 L1147.4 1209.93 L1139.03 1232.24 L1130.67 1218.91 L1122.3 1214.62 L1113.94 1231.15 L1105.58 1231.58 L1097.21 1229.67 L1088.85 1214.27 L1080.49 1213.12 L1072.12 1223.62 L1063.76 1211.14 L1055.4 1215.42 L1047.03 1213.6 L1038.67 1202.48 L1030.3 1208.19 L1021.94 1191.18 L1013.58 1172.97 L1005.21 1191.23 L996.85 1174.07 L988.486 1181.61 L980.123 1192.88 L971.759 1166.61 L963.395 1165.53 L955.032 1151.27 L946.668 1147.45 L938.304 1157.46 L929.941 1135.93 L921.577 1162.81 L913.213 1124.68 L904.85 1148.8 L896.486 1140.76 L888.122 1140.79 L879.759 1127.45 L871.395 1119.02 L863.031 1095.98 L854.668 1108.32 L846.304 1070.54 L837.94 1078.52 L829.577 1071.53 L821.213 1049.31 L812.849 1055.62 L804.486 1030.49 L796.122 1029.58 L787.758 1020.56 L779.395 1018.32 L771.031 988.422 L762.667 984.905 L754.304 967.32 L745.94 959.569 L737.576 939.507 L729.213 929.32 L720.849 906.045 L712.485 915.587 L704.122 876.458 L695.758 868.179 L687.394 847.682 L679.031 848.836 L670.667 820.486 L662.303 789.568 L653.94 760.423 L645.576 744.333 L637.212 722.111 L628.849 714.342 L620.485 685.545 L612.121 643.505 L603.758 625.185 L595.394 599.517 L587.03 568.74 L578.667 549.204 L570.303 480.052 L561.939 451.623 L553.576 415.041 L545.212 375.086 L536.848 345.305 L528.485 286.598 L520.121 218.336 L511.757 168.574  Z" fill="#009e73" fill-rule="evenodd" fill-opacity="0.2"/>
<polyline clip-path="url(#clip641)" style="stroke:#009e73; stroke-linecap:round; stroke-linejoin:round; stroke-width:4; stroke-opacity:0.2; fill:none" points="511.757,462.528 520.121,526.905 528.485,574.062 536.848,622.132 545.212,669.807 553.576,707.305 561.939,744.178 570.303,821.78 578.667,829.077 587.03,882.484 595.394,933.308 603.758,961.861 612.121,989.256 620.485,1010.98 628.849,1047.75 637.212,1085.17 645.576,1089.72 653.94,1138.74 662.303,1151.94 670.667,1181.57 679.031,1186.07 687.394,1190.88 695.758,1222.85 704.122,1224.26 712.485,1231.42 720.849,1242.35 729.213,1260.63 737.576,1286.32 745.94,1301.03 754.304,1307.98 762.667,1330.53 771.031,1340.22 779.395,1358.3 787.758,1358.21 796.122,1355.67 804.486,1381.99 812.849,1378.53 821.213,1383.34 829.577,1381.36 837.94,1392.21 846.304,1410.81 854.668,1417.87 863.031,1418.65 871.395,1415.05 879.759,1430.26 888.122,1448.01 896.486,1450.99 904.85,1463.03 913.213,1466 921.577,1469.48 929.941,1451.98 938.304,1488.67 946.668,1496.03 955.032,1486.32 963.395,1494.72 971.759,1486.01 980.123,1492.81 988.486,1489.88 996.85,1497.36 1005.21,1505.5 1013.58,1515.97 1021.94,1514.61 1030.3,1513.46 1038.67,1489.03 1047.03,1512.55 1055.4,1486.89 1063.76,1514.87 1072.12,1510.9 1080.49,1499.26 1088.85,1502.99 1097.21,1502.95 1105.58,1520.95 1113.94,1529.81 1122.3,1520.75 1130.67,1518.45 1139.03,1513.44 1147.4,1529.23 1155.76,1528.28 1164.12,1531.24 1172.49,1525.17 1180.85,1515.01 1189.21,1533.27 1197.58,1544.17 1205.94,1526.86 1214.31,1550.27 1222.67,1520.8 1231.03,1514.16 1239.4,1526.57 1247.76,1518.62 1256.12,1523 1264.49,1532.71 1272.85,1530.93 1281.21,1521.23 1289.58,1523.34 1297.94,1530.83 1306.31,1551.35 1314.67,1527.33 1323.03,1541.55 1331.4,1523.79 1339.76,1532.7 1348.12,1524.52 1356.49,1551.03 1364.85,1532.73 1373.21,1539.47 1381.58,1545.73 1389.94,1531.25 1398.31,1537.04 1406.67,1540.96 1415.03,1561.32 1423.4,1558.07 1431.76,1545.86 1440.12,1543.95 1448.49,1537.83 1456.85,1572.47 1465.22,1553.8 1473.58,1543.17 1481.94,1538.11 1490.31,1540.09 1498.67,1550.91 1507.03,1548.44 1515.4,1538.48 1523.76,1537.31 1532.12,1542 1540.49,1551.95 1548.85,1554.81 1557.22,1551.28 1565.58,1546.39 1573.94,1548.87 1582.31,1564.68 1590.67,1553.48 1599.03,1539.33 1607.4,1549.35 1615.76,1541.17 1624.12,1539.35 1632.49,1544.56 1640.85,1537.16 1649.22,1550.37 1657.58,1564.14 1665.94,1539.17 1674.31,1542.73 1682.67,1548.55 1691.03,1552.26 1699.4,1561.47 1707.76,1543.67 1716.13,1556.11 1724.49,1565.63 1732.85,1555.53 1741.22,1570.87 1749.58,1550.06 1757.94,1560.03 1766.31,1564.3 1774.67,1554.1 1783.03,1551.7 1791.4,1544.24 1799.76,1543.18 1808.13,1537.89 1816.49,1556.82 1824.85,1553.46 1833.22,1551.26 1841.58,1556.88 1849.94,1544.99 1858.31,1544.53 1866.67,1540.24 1875.03,1531.76 1883.4,1548.09 1891.76,1557.53 1900.13,1571.42 1908.49,1557.27 1916.85,1569.57 1925.22,1565.98 1933.58,1569.45 1941.94,1557.08 1950.31,1549.92 1958.67,1557.36 1967.04,1550.82 1975.4,1555.12 1983.76,1563.05 1992.13,1572.51 2000.49,1558.44 2008.85,1572.06 2017.22,1565.31 2025.58,1574.36 2033.94,1574.38 2042.31,1568.6 2050.67,1546.01 2059.04,1564.3 2067.4,1567.31 2075.76,1557.3 2084.13,1563.05 2092.49,1543.07 2100.85,1549.87 2109.22,1573.59 2117.58,1544.06 2125.94,1549.11 2134.31,1563.94 2142.67,1557.29 2151.04,1547.43 2159.4,1557.65 2167.76,1534.95 2176.13,1554.6 2184.49,1556.14 2192.85,1558.62 2201.22,1560.22 2209.58,1553.07 2217.95,1553.88 2226.31,1542.52 2234.67,1542.29 2243.04,1569.73 2251.4,1551.2 2259.76,1552.92 2268.13,1548.1 2276.49,1543.13 2284.85,1565.78 2293.22,1566.2 2301.58,1544.11 2309.95,1556.27 2318.31,1544.28 2326.67,1562.67 2335.04,1561.5 2343.4,1565.26 2351.76,1554.95 2360.13,1560.72 2368.49,1557.1 2376.85,1551.12 2385.22,1558.48 2393.58,1555.33 2401.95,1548.75 2410.31,1565.83 2418.67,1554.12 2427.04,1550.65 2435.4,1553.88 2443.76,1558.56 2452.13,1552.59 2460.49,1556.52 2468.86,1552.45 2477.22,1550.77 2485.58,1550.11 2493.95,1566.72 2502.31,1546.08 2510.67,1552.28 2519.04,1556.6 2527.4,1556 2535.76,1549.27 2544.13,1553.07 2552.49,1547.14 2560.86,1558.07 2569.22,1549 2577.58,1539.59 2585.95,1535.79 2594.31,1539.41 2602.67,1551.41 2611.04,1551.61 "/>
<path clip-path="url(#clip640)" d="M1946.56 409.426 L2599.84 409.426 L2599.84 176.146 L1946.56 176.146  Z" fill="#ffffff" fill-rule="evenodd" fill-opacity="1"/>
<polyline clip-path="url(#clip640)" style="stroke:#000000; stroke-linecap:round; stroke-linejoin:round; stroke-width:4; stroke-opacity:1; fill:none" points="1946.56,409.426 2599.84,409.426 2599.84,176.146 1946.56,176.146 1946.56,409.426 "/>
<polyline clip-path="url(#clip640)" style="stroke:#d45e00; stroke-linecap:round; stroke-linejoin:round; stroke-width:9; stroke-opacity:1; fill:none" stroke-dasharray="36, 23" points="1971.29,234.466 2119.64,234.466 "/>
<path clip-path="url(#clip640)" d="M2162.38 218.594 Q2156.66 218.594 2153.27 222.864 Q2149.91 227.135 2149.91 234.505 Q2149.91 241.849 2153.27 246.119 Q2156.66 250.39 2162.38 250.39 Q2168.11 250.39 2171.45 246.119 Q2174.81 241.849 2174.81 234.505 Q2174.81 227.135 2171.45 222.864 Q2168.11 218.594 2162.38 218.594 M2162.38 214.323 Q2170.56 214.323 2175.46 219.817 Q2180.35 225.286 2180.35 234.505 Q2180.35 243.698 2175.46 249.192 Q2170.56 254.661 2162.38 254.661 Q2154.18 254.661 2149.26 249.192 Q2144.36 243.724 2144.36 234.505 Q2144.36 225.286 2149.26 219.817 Q2154.18 214.323 2162.38 214.323 Z" fill="#000000" fill-rule="nonzero" fill-opacity="1" /><path clip-path="url(#clip640)" d="M2209.31 239.349 Q2209.31 234.062 2207.12 231.067 Q2204.96 228.047 2201.16 228.047 Q2197.36 228.047 2195.17 231.067 Q2193.01 234.062 2193.01 239.349 Q2193.01 244.635 2195.17 247.656 Q2197.36 250.651 2201.16 250.651 Q2204.96 250.651 2207.12 247.656 Q2209.31 244.635 2209.31 239.349 M2193.01 229.166 Q2194.52 226.562 2196.81 225.312 Q2199.13 224.036 2202.33 224.036 Q2207.64 224.036 2210.95 228.255 Q2214.28 232.474 2214.28 239.349 Q2214.28 246.224 2210.95 250.442 Q2207.64 254.661 2202.33 254.661 Q2199.13 254.661 2196.81 253.411 Q2194.52 252.135 2193.01 249.531 L2193.01 253.906 L2188.19 253.906 L2188.19 213.385 L2193.01 213.385 L2193.01 229.166 Z" fill="#000000" fill-rule="nonzero" fill-opacity="1" /><path clip-path="url(#clip640)" d="M2240.82 225.599 L2240.82 230.13 Q2238.79 229.088 2236.6 228.567 Q2234.42 228.047 2232.07 228.047 Q2228.5 228.047 2226.71 229.14 Q2224.94 230.234 2224.94 232.422 Q2224.94 234.088 2226.21 235.052 Q2227.49 235.989 2231.34 236.849 L2232.98 237.213 Q2238.09 238.307 2240.22 240.312 Q2242.38 242.291 2242.38 245.859 Q2242.38 249.921 2239.15 252.291 Q2235.95 254.661 2230.33 254.661 Q2227.98 254.661 2225.43 254.192 Q2222.9 253.75 2220.09 252.838 L2220.09 247.89 Q2222.75 249.27 2225.33 249.974 Q2227.9 250.651 2230.43 250.651 Q2233.82 250.651 2235.64 249.505 Q2237.46 248.333 2237.46 246.224 Q2237.46 244.27 2236.13 243.229 Q2234.83 242.187 2230.38 241.224 L2228.71 240.833 Q2224.26 239.895 2222.28 237.968 Q2220.3 236.015 2220.3 232.63 Q2220.3 228.515 2223.22 226.276 Q2226.13 224.036 2231.5 224.036 Q2234.15 224.036 2236.5 224.427 Q2238.84 224.817 2240.82 225.599 Z" fill="#000000" fill-rule="nonzero" fill-opacity="1" /><path clip-path="url(#clip640)" d="M2274.96 238.125 L2274.96 240.468 L2252.93 240.468 Q2253.24 245.416 2255.9 248.02 Q2258.58 250.599 2263.35 250.599 Q2266.11 250.599 2268.69 249.921 Q2271.29 249.244 2273.84 247.89 L2273.84 252.421 Q2271.26 253.515 2268.56 254.088 Q2265.85 254.661 2263.06 254.661 Q2256.08 254.661 2251.99 250.599 Q2247.93 246.536 2247.93 239.609 Q2247.93 232.448 2251.78 228.255 Q2255.66 224.036 2262.23 224.036 Q2268.11 224.036 2271.52 227.838 Q2274.96 231.614 2274.96 238.125 M2270.17 236.718 Q2270.12 232.786 2267.96 230.442 Q2265.82 228.099 2262.28 228.099 Q2258.27 228.099 2255.85 230.364 Q2253.45 232.63 2253.09 236.744 L2270.17 236.718 Z" fill="#000000" fill-rule="nonzero" fill-opacity="1" /><path clip-path="url(#clip640)" d="M2299.73 229.218 Q2298.92 228.75 2297.96 228.541 Q2297.02 228.307 2295.87 228.307 Q2291.81 228.307 2289.62 230.963 Q2287.46 233.593 2287.46 238.541 L2287.46 253.906 L2282.64 253.906 L2282.64 224.739 L2287.46 224.739 L2287.46 229.271 Q2288.97 226.614 2291.39 225.338 Q2293.82 224.036 2297.28 224.036 Q2297.77 224.036 2298.37 224.114 Q2298.97 224.166 2299.7 224.297 L2299.73 229.218 Z" fill="#000000" fill-rule="nonzero" fill-opacity="1" /><path clip-path="url(#clip640)" d="M2301.32 224.739 L2306.39 224.739 L2315.51 249.218 L2324.62 224.739 L2329.7 224.739 L2318.76 253.906 L2312.25 253.906 L2301.32 224.739 Z" fill="#000000" fill-rule="nonzero" fill-opacity="1" /><path clip-path="url(#clip640)" d="M2361.26 238.125 L2361.26 240.468 L2339.23 240.468 Q2339.54 245.416 2342.2 248.02 Q2344.88 250.599 2349.65 250.599 Q2352.41 250.599 2354.99 249.921 Q2357.59 249.244 2360.14 247.89 L2360.14 252.421 Q2357.57 253.515 2354.86 254.088 Q2352.15 254.661 2349.36 254.661 Q2342.38 254.661 2338.29 250.599 Q2334.23 246.536 2334.23 239.609 Q2334.23 232.448 2338.09 228.255 Q2341.97 224.036 2348.53 224.036 Q2354.41 224.036 2357.83 227.838 Q2361.26 231.614 2361.26 238.125 M2356.47 236.718 Q2356.42 232.786 2354.26 230.442 Q2352.12 228.099 2348.58 228.099 Q2344.57 228.099 2342.15 230.364 Q2339.75 232.63 2339.39 236.744 L2356.47 236.718 Z" fill="#000000" fill-rule="nonzero" fill-opacity="1" /><path clip-path="url(#clip640)" d="M2388.32 229.166 L2388.32 213.385 L2393.11 213.385 L2393.11 253.906 L2388.32 253.906 L2388.32 249.531 Q2386.81 252.135 2384.49 253.411 Q2382.2 254.661 2378.97 254.661 Q2373.69 254.661 2370.35 250.442 Q2367.04 246.224 2367.04 239.349 Q2367.04 232.474 2370.35 228.255 Q2373.69 224.036 2378.97 224.036 Q2382.2 224.036 2384.49 225.312 Q2386.81 226.562 2388.32 229.166 M2371.99 239.349 Q2371.99 244.635 2374.15 247.656 Q2376.34 250.651 2380.14 250.651 Q2383.95 250.651 2386.13 247.656 Q2388.32 244.635 2388.32 239.349 Q2388.32 234.062 2386.13 231.067 Q2383.95 228.047 2380.14 228.047 Q2376.34 228.047 2374.15 231.067 Q2371.99 234.062 2371.99 239.349 Z" fill="#000000" fill-rule="nonzero" fill-opacity="1" /><polyline clip-path="url(#clip640)" style="stroke:#009e73; stroke-linecap:round; stroke-linejoin:round; stroke-width:9; stroke-opacity:1; fill:none" points="1971.29,292.786 2119.64,292.786 "/>
<path clip-path="url(#clip640)" d="M2175.72 276.341 L2175.72 281.887 Q2173.06 279.414 2170.04 278.19 Q2167.05 276.966 2163.66 276.966 Q2156.99 276.966 2153.45 281.054 Q2149.91 285.117 2149.91 292.825 Q2149.91 300.507 2153.45 304.596 Q2156.99 308.658 2163.66 308.658 Q2167.05 308.658 2170.04 307.434 Q2173.06 306.21 2175.72 303.736 L2175.72 309.231 Q2172.96 311.106 2169.86 312.044 Q2166.79 312.981 2163.35 312.981 Q2154.52 312.981 2149.44 307.59 Q2144.36 302.174 2144.36 292.825 Q2144.36 283.45 2149.44 278.059 Q2154.52 272.643 2163.35 272.643 Q2166.84 272.643 2169.91 273.58 Q2173.01 274.492 2175.72 276.341 Z" fill="#000000" fill-rule="nonzero" fill-opacity="1" /><path clip-path="url(#clip640)" d="M2183.84 273.346 L2189.1 273.346 L2189.1 289.283 L2208.22 289.283 L2208.22 273.346 L2213.48 273.346 L2213.48 312.226 L2208.22 312.226 L2208.22 293.71 L2189.1 293.71 L2189.1 312.226 L2183.84 312.226 L2183.84 273.346 Z" fill="#000000" fill-rule="nonzero" fill-opacity="1" /><path clip-path="url(#clip640)" d="M2223.95 273.346 L2231.78 273.346 L2241.71 299.804 L2251.68 273.346 L2259.52 273.346 L2259.52 312.226 L2254.39 312.226 L2254.39 278.085 L2244.36 304.752 L2239.08 304.752 L2229.05 278.085 L2229.05 312.226 L2223.95 312.226 L2223.95 273.346 Z" fill="#000000" fill-rule="nonzero" fill-opacity="1" /><path clip-path="url(#clip640)" d="M2269.96 273.346 L2277.8 273.346 L2287.72 299.804 L2297.7 273.346 L2305.53 273.346 L2305.53 312.226 L2300.4 312.226 L2300.4 278.085 L2290.38 304.752 L2285.09 304.752 L2275.07 278.085 L2275.07 312.226 L2269.96 312.226 L2269.96 273.346 Z" fill="#000000" fill-rule="nonzero" fill-opacity="1" /><path clip-path="url(#clip640)" d="M2313.35 295.481 L2327.38 295.481 L2327.38 299.752 L2313.35 299.752 L2313.35 295.481 Z" fill="#000000" fill-rule="nonzero" fill-opacity="1" /><path clip-path="url(#clip640)" d="M2335.22 273.346 L2342.31 273.346 L2359.54 305.872 L2359.54 273.346 L2364.65 273.346 L2364.65 312.226 L2357.57 312.226 L2340.33 279.7 L2340.33 312.226 L2335.22 312.226 L2335.22 273.346 Z" fill="#000000" fill-rule="nonzero" fill-opacity="1" /><path clip-path="url(#clip640)" d="M2403.37 271.757 Q2399.88 277.747 2398.19 283.606 Q2396.5 289.466 2396.5 295.481 Q2396.5 301.497 2398.19 307.408 Q2399.91 313.294 2403.37 319.257 L2399.21 319.257 Q2395.3 313.137 2393.35 307.226 Q2391.42 301.314 2391.42 295.481 Q2391.42 289.674 2393.35 283.788 Q2395.27 277.903 2399.21 271.757 L2403.37 271.757 Z" fill="#000000" fill-rule="nonzero" fill-opacity="1" /><path clip-path="url(#clip640)" d="M2435.38 288.658 Q2437.17 285.429 2439.67 283.893 Q2442.17 282.356 2445.56 282.356 Q2450.12 282.356 2452.59 285.559 Q2455.06 288.736 2455.06 294.622 L2455.06 312.226 L2450.25 312.226 L2450.25 294.778 Q2450.25 290.585 2448.76 288.554 Q2447.28 286.523 2444.23 286.523 Q2440.51 286.523 2438.35 288.997 Q2436.18 291.471 2436.18 295.742 L2436.18 312.226 L2431.37 312.226 L2431.37 294.778 Q2431.37 290.559 2429.88 288.554 Q2428.4 286.523 2425.3 286.523 Q2421.63 286.523 2419.47 289.023 Q2417.3 291.497 2417.3 295.742 L2417.3 312.226 L2412.49 312.226 L2412.49 283.059 L2417.3 283.059 L2417.3 287.591 Q2418.95 284.908 2421.24 283.632 Q2423.53 282.356 2426.68 282.356 Q2429.86 282.356 2432.07 283.971 Q2434.31 285.585 2435.38 288.658 Z" fill="#000000" fill-rule="nonzero" fill-opacity="1" /><path clip-path="url(#clip640)" d="M2489.57 296.445 L2489.57 298.788 L2467.54 298.788 Q2467.85 303.736 2470.51 306.34 Q2473.19 308.919 2477.96 308.919 Q2480.72 308.919 2483.29 308.241 Q2485.9 307.564 2488.45 306.21 L2488.45 310.741 Q2485.87 311.835 2483.16 312.408 Q2480.46 312.981 2477.67 312.981 Q2470.69 312.981 2466.6 308.919 Q2462.54 304.856 2462.54 297.929 Q2462.54 290.768 2466.39 286.575 Q2470.27 282.356 2476.84 282.356 Q2482.72 282.356 2486.13 286.158 Q2489.57 289.934 2489.57 296.445 M2484.78 295.038 Q2484.73 291.106 2482.56 288.762 Q2480.43 286.419 2476.89 286.419 Q2472.88 286.419 2470.46 288.684 Q2468.06 290.95 2467.7 295.064 L2484.78 295.038 Z" fill="#000000" fill-rule="nonzero" fill-opacity="1" /><path clip-path="url(#clip640)" d="M2510.69 297.564 Q2504.88 297.564 2502.64 298.893 Q2500.4 300.221 2500.4 303.424 Q2500.4 305.976 2502.07 307.486 Q2503.76 308.971 2506.65 308.971 Q2510.64 308.971 2513.03 306.158 Q2515.46 303.32 2515.46 298.632 L2515.46 297.564 L2510.69 297.564 M2520.25 295.585 L2520.25 312.226 L2515.46 312.226 L2515.46 307.799 Q2513.81 310.455 2511.37 311.731 Q2508.92 312.981 2505.38 312.981 Q2500.9 312.981 2498.24 310.481 Q2495.61 307.955 2495.61 303.736 Q2495.61 298.814 2498.89 296.314 Q2502.2 293.814 2508.74 293.814 L2515.46 293.814 L2515.46 293.346 Q2515.46 290.038 2513.27 288.242 Q2511.11 286.419 2507.17 286.419 Q2504.67 286.419 2502.3 287.018 Q2499.93 287.617 2497.75 288.814 L2497.75 284.387 Q2500.38 283.372 2502.85 282.877 Q2505.33 282.356 2507.67 282.356 Q2514 282.356 2517.12 285.637 Q2520.25 288.919 2520.25 295.585 Z" fill="#000000" fill-rule="nonzero" fill-opacity="1" /><path clip-path="url(#clip640)" d="M2554.36 294.622 L2554.36 312.226 L2549.57 312.226 L2549.57 294.778 Q2549.57 290.637 2547.96 288.58 Q2546.34 286.523 2543.11 286.523 Q2539.23 286.523 2536.99 288.997 Q2534.75 291.471 2534.75 295.742 L2534.75 312.226 L2529.93 312.226 L2529.93 283.059 L2534.75 283.059 L2534.75 287.591 Q2536.47 284.96 2538.79 283.658 Q2541.13 282.356 2544.18 282.356 Q2549.21 282.356 2551.78 285.481 Q2554.36 288.58 2554.36 294.622 Z" fill="#000000" fill-rule="nonzero" fill-opacity="1" /><path clip-path="url(#clip640)" d="M2563.16 271.757 L2567.33 271.757 Q2571.24 277.903 2573.16 283.788 Q2575.12 289.674 2575.12 295.481 Q2575.12 301.314 2573.16 307.226 Q2571.24 313.137 2567.33 319.257 L2563.16 319.257 Q2566.63 313.294 2568.32 307.408 Q2570.04 301.497 2570.04 295.481 Q2570.04 289.466 2568.32 283.606 Q2566.63 277.747 2563.16 271.757 Z" fill="#000000" fill-rule="nonzero" fill-opacity="1" /><path clip-path="url(#clip640)" d="M1971.29 374.434 L2119.64 374.434 L2119.64 327.778 L1971.29 327.778 L1971.29 374.434  Z" fill="#009e73" fill-rule="evenodd" fill-opacity="0.2"/>
<polyline clip-path="url(#clip640)" style="stroke:#009e73; stroke-linecap:round; stroke-linejoin:round; stroke-width:4.5; stroke-opacity:0.2; fill:none" points="1971.29,327.778 2119.64,327.778 "/>
<path clip-path="url(#clip640)" d="M2145.12 366.119 L2153.71 366.119 L2153.71 336.457 L2144.36 338.332 L2144.36 333.541 L2153.66 331.666 L2158.92 331.666 L2158.92 366.119 L2167.51 366.119 L2167.51 370.546 L2145.12 370.546 L2145.12 366.119 Z" fill="#000000" fill-rule="nonzero" fill-opacity="1" /><path clip-path="url(#clip640)" d="M2189.39 335.129 Q2185.33 335.129 2183.27 339.14 Q2181.24 343.124 2181.24 351.145 Q2181.24 359.14 2183.27 363.15 Q2185.33 367.134 2189.39 367.134 Q2193.48 367.134 2195.51 363.15 Q2197.57 359.14 2197.57 351.145 Q2197.57 343.124 2195.51 339.14 Q2193.48 335.129 2189.39 335.129 M2189.39 330.963 Q2195.93 330.963 2199.36 336.145 Q2202.83 341.301 2202.83 351.145 Q2202.83 360.963 2199.36 366.145 Q2195.93 371.301 2189.39 371.301 Q2182.85 371.301 2179.39 366.145 Q2175.95 360.963 2175.95 351.145 Q2175.95 341.301 2179.39 336.145 Q2182.85 330.963 2189.39 330.963 Z" fill="#000000" fill-rule="nonzero" fill-opacity="1" /><path clip-path="url(#clip640)" d="M2208.97 353.801 L2223.01 353.801 L2223.01 358.072 L2208.97 358.072 L2208.97 353.801 Z" fill="#000000" fill-rule="nonzero" fill-opacity="1" /><path clip-path="url(#clip640)" d="M2231.47 369.739 L2231.47 364.947 Q2233.45 365.884 2235.48 366.379 Q2237.51 366.874 2239.47 366.874 Q2244.68 366.874 2247.41 363.384 Q2250.17 359.869 2250.56 352.733 Q2249.05 354.973 2246.73 356.171 Q2244.41 357.369 2241.6 357.369 Q2235.77 357.369 2232.36 353.853 Q2228.97 350.312 2228.97 344.192 Q2228.97 338.202 2232.51 334.582 Q2236.06 330.963 2241.94 330.963 Q2248.69 330.963 2252.23 336.145 Q2255.8 341.301 2255.8 351.145 Q2255.8 360.338 2251.42 365.832 Q2247.07 371.301 2239.7 371.301 Q2237.72 371.301 2235.69 370.91 Q2233.66 370.52 2231.47 369.739 M2241.94 353.254 Q2245.48 353.254 2247.54 350.832 Q2249.62 348.411 2249.62 344.192 Q2249.62 339.999 2247.54 337.577 Q2245.48 335.129 2241.94 335.129 Q2238.4 335.129 2236.32 337.577 Q2234.26 339.999 2234.26 344.192 Q2234.26 348.411 2236.32 350.832 Q2238.4 353.254 2241.94 353.254 Z" fill="#000000" fill-rule="nonzero" fill-opacity="1" /><path clip-path="url(#clip640)" d="M2276.5 335.129 Q2272.44 335.129 2270.38 339.14 Q2268.35 343.124 2268.35 351.145 Q2268.35 359.14 2270.38 363.15 Q2272.44 367.134 2276.5 367.134 Q2280.59 367.134 2282.62 363.15 Q2284.68 359.14 2284.68 351.145 Q2284.68 343.124 2282.62 339.14 Q2280.59 335.129 2276.5 335.129 M2276.5 330.963 Q2283.03 330.963 2286.47 336.145 Q2289.94 341.301 2289.94 351.145 Q2289.94 360.963 2286.47 366.145 Q2283.03 371.301 2276.5 371.301 Q2269.96 371.301 2266.5 366.145 Q2263.06 360.963 2263.06 351.145 Q2263.06 341.301 2266.5 336.145 Q2269.96 330.963 2276.5 330.963 Z" fill="#000000" fill-rule="nonzero" fill-opacity="1" /><path clip-path="url(#clip640)" d="M2303.24 333.098 L2303.24 341.379 L2313.11 341.379 L2313.11 345.103 L2303.24 345.103 L2303.24 360.937 Q2303.24 364.504 2304.21 365.52 Q2305.2 366.535 2308.19 366.535 L2313.11 366.535 L2313.11 370.546 L2308.19 370.546 Q2302.64 370.546 2300.53 368.489 Q2298.43 366.405 2298.43 360.937 L2298.43 345.103 L2294.91 345.103 L2294.91 341.379 L2298.43 341.379 L2298.43 333.098 L2303.24 333.098 Z" fill="#000000" fill-rule="nonzero" fill-opacity="1" /><path clip-path="url(#clip640)" d="M2343.66 352.942 L2343.66 370.546 L2338.87 370.546 L2338.87 353.098 Q2338.87 348.957 2337.25 346.9 Q2335.64 344.843 2332.41 344.843 Q2328.53 344.843 2326.29 347.317 Q2324.05 349.791 2324.05 354.062 L2324.05 370.546 L2319.23 370.546 L2319.23 330.025 L2324.05 330.025 L2324.05 345.911 Q2325.77 343.28 2328.09 341.978 Q2330.43 340.676 2333.48 340.676 Q2338.5 340.676 2341.08 343.801 Q2343.66 346.9 2343.66 352.942 Z" fill="#000000" fill-rule="nonzero" fill-opacity="1" /><path clip-path="url(#clip640)" d="M2374.8 366.171 L2374.8 381.64 L2369.99 381.64 L2369.99 341.379 L2374.8 341.379 L2374.8 345.806 Q2376.32 343.202 2378.61 341.952 Q2380.92 340.676 2384.13 340.676 Q2389.44 340.676 2392.75 344.895 Q2396.08 349.114 2396.08 355.989 Q2396.08 362.864 2392.75 367.082 Q2389.44 371.301 2384.13 371.301 Q2380.92 371.301 2378.61 370.051 Q2376.32 368.775 2374.8 366.171 M2391.11 355.989 Q2391.11 350.702 2388.92 347.707 Q2386.76 344.687 2382.96 344.687 Q2379.15 344.687 2376.97 347.707 Q2374.8 350.702 2374.8 355.989 Q2374.8 361.275 2376.97 364.296 Q2379.15 367.291 2382.96 367.291 Q2386.76 367.291 2388.92 364.296 Q2391.11 361.275 2391.11 355.989 Z" fill="#000000" fill-rule="nonzero" fill-opacity="1" /><path clip-path="url(#clip640)" d="M2425.01 342.499 L2425.01 346.978 Q2422.98 345.858 2420.92 345.312 Q2418.89 344.739 2416.81 344.739 Q2412.15 344.739 2409.57 347.707 Q2406.99 350.65 2406.99 355.989 Q2406.99 361.327 2409.57 364.296 Q2412.15 367.239 2416.81 367.239 Q2418.89 367.239 2420.92 366.692 Q2422.98 366.119 2425.01 364.999 L2425.01 369.426 Q2423.01 370.364 2420.85 370.832 Q2418.71 371.301 2416.29 371.301 Q2409.7 371.301 2405.82 367.16 Q2401.94 363.02 2401.94 355.989 Q2401.94 348.853 2405.85 344.765 Q2409.78 340.676 2416.6 340.676 Q2418.82 340.676 2420.92 341.145 Q2423.03 341.588 2425.01 342.499 Z" fill="#000000" fill-rule="nonzero" fill-opacity="1" /><path clip-path="url(#clip640)" d="M2438.09 333.098 L2438.09 341.379 L2447.96 341.379 L2447.96 345.103 L2438.09 345.103 L2438.09 360.937 Q2438.09 364.504 2439.05 365.52 Q2440.04 366.535 2443.03 366.535 L2447.96 366.535 L2447.96 370.546 L2443.03 370.546 Q2437.49 370.546 2435.38 368.489 Q2433.27 366.405 2433.27 360.937 L2433.27 345.103 L2429.75 345.103 L2429.75 341.379 L2433.27 341.379 L2433.27 333.098 L2438.09 333.098 Z" fill="#000000" fill-rule="nonzero" fill-opacity="1" /><path clip-path="url(#clip640)" d="M2454.26 330.025 L2459.05 330.025 L2459.05 370.546 L2454.26 370.546 L2454.26 330.025 Z" fill="#000000" fill-rule="nonzero" fill-opacity="1" /></svg>
