<?xml version="1.0" encoding="utf-8"?>
<svg xmlns="http://www.w3.org/2000/svg" xmlns:xlink="http://www.w3.org/1999/xlink" width="600" height="400" viewBox="0 0 2400 1600">
<defs>
  <clipPath id="clip440">
    <rect x="0" y="0" width="2400" height="1600"/>
  </clipPath>
</defs>
<path clip-path="url(#clip440)" d="M0 1600 L2400 1600 L2400 8.88178e-14 L0 8.88178e-14  Z" fill="#ffffff" fill-rule="evenodd" fill-opacity="1"/>
<defs>
  <clipPath id="clip441">
    <rect x="479" y="180" width="1796" height="1062"/>
  </clipPath>
</defs>
<path clip-path="url(#clip440)" d="M476.483 1241.31 L2274.02 1241.31 L2274.02 180.612 L476.483 180.612  Z" fill="#ffffff" fill-rule="evenodd" fill-opacity="1"/>
<defs>
  <clipPath id="clip442">
    <rect x="476" y="180" width="1799" height="1062"/>
  </clipPath>
</defs>
<polyline clip-path="url(#clip442)" style="stroke:#000000; stroke-linecap:round; stroke-linejoin:round; stroke-width:2; stroke-opacity:0.1; fill:none" points="521.424,1241.31 521.424,180.612 "/>
<polyline clip-path="url(#clip442)" style="stroke:#000000; stroke-linecap:round; stroke-linejoin:round; stroke-width:2; stroke-opacity:0.1; fill:none" points="970.806,1241.31 970.806,180.612 "/>
<polyline clip-path="url(#clip442)" style="stroke:#000000; stroke-linecap:round; stroke-linejoin:round; stroke-width:2; stroke-opacity:0.1; fill:none" points="1420.19,1241.31 1420.19,180.612 "/>
<polyline clip-path="url(#clip442)" style="stroke:#000000; stroke-linecap:round; stroke-linejoin:round; stroke-width:2; stroke-opacity:0.1; fill:none" points="1869.57,1241.31 1869.57,180.612 "/>
<polyline clip-path="url(#clip442)" style="stroke:#000000; stroke-linecap:round; stroke-linejoin:round; stroke-width:2; stroke-opacity:0.1; fill:none" points="476.483,1241.31 2274.02,1241.31 "/>
<polyline clip-path="url(#clip442)" style="stroke:#000000; stroke-linecap:round; stroke-linejoin:round; stroke-width:2; stroke-opacity:0.1; fill:none" points="476.483,1012.9 2274.02,1012.9 "/>
<polyline clip-path="url(#clip442)" style="stroke:#000000; stroke-linecap:round; stroke-linejoin:round; stroke-width:2; stroke-opacity:0.1; fill:none" points="476.483,784.482 2274.02,784.482 "/>
<polyline clip-path="url(#clip442)" style="stroke:#000000; stroke-linecap:round; stroke-linejoin:round; stroke-width:2; stroke-opacity:0.1; fill:none" points="476.483,556.067 2274.02,556.067 "/>
<polyline clip-path="url(#clip442)" style="stroke:#000000; stroke-linecap:round; stroke-linejoin:round; stroke-width:2; stroke-opacity:0.1; fill:none" points="476.483,327.652 2274.02,327.652 "/>
<polyline clip-path="url(#clip440)" style="stroke:#000000; stroke-linecap:round; stroke-linejoin:round; stroke-width:4; stroke-opacity:1; fill:none" points="476.483,1241.31 2274.02,1241.31 "/>
<polyline clip-path="url(#clip440)" style="stroke:#000000; stroke-linecap:round; stroke-linejoin:round; stroke-width:4; stroke-opacity:1; fill:none" points="521.424,1241.31 521.424,1222.41 "/>
<polyline clip-path="url(#clip440)" style="stroke:#000000; stroke-linecap:round; stroke-linejoin:round; stroke-width:4; stroke-opacity:1; fill:none" points="970.806,1241.31 970.806,1222.41 "/>
<polyline clip-path="url(#clip440)" style="stroke:#000000; stroke-linecap:round; stroke-linejoin:round; stroke-width:4; stroke-opacity:1; fill:none" points="1420.19,1241.31 1420.19,1222.41 "/>
<polyline clip-path="url(#clip440)" style="stroke:#000000; stroke-linecap:round; stroke-linejoin:round; stroke-width:4; stroke-opacity:1; fill:none" points="1869.57,1241.31 1869.57,1222.41 "/>
<path clip-path="url(#clip440)" d="M521.424 1275.16 Q516.911 1275.16 514.625 1279.62 Q512.368 1284.04 512.368 1292.95 Q512.368 1301.84 514.625 1306.29 Q516.911 1310.72 521.424 1310.72 Q525.967 1310.72 528.224 1306.29 Q530.51 1301.84 530.51 1292.95 Q530.51 1284.04 528.224 1279.62 Q525.967 1275.16 521.424 1275.16 M521.424 1270.53 Q528.687 1270.53 532.507 1276.29 Q536.355 1282.02 536.355 1292.95 Q536.355 1303.86 532.507 1309.62 Q528.687 1315.35 521.424 1315.35 Q514.162 1315.35 510.313 1309.62 Q506.494 1303.86 506.494 1292.95 Q506.494 1282.02 510.313 1276.29 Q514.162 1270.53 521.424 1270.53 Z" fill="#000000" fill-rule="nonzero" fill-opacity="1" /><path clip-path="url(#clip440)" d="M958.653 1271.31 L981.599 1271.31 L981.599 1276.23 L964.006 1276.23 L964.006 1286.82 Q965.279 1286.39 966.552 1286.18 Q967.826 1285.95 969.099 1285.95 Q976.333 1285.95 980.557 1289.92 Q984.782 1293.88 984.782 1300.65 Q984.782 1307.62 980.441 1311.5 Q976.101 1315.35 968.202 1315.35 Q965.482 1315.35 962.646 1314.89 Q959.84 1314.42 956.83 1313.5 L956.83 1307.62 Q959.434 1309.04 962.212 1309.74 Q964.99 1310.43 968.086 1310.43 Q973.092 1310.43 976.014 1307.8 Q978.937 1305.17 978.937 1300.65 Q978.937 1296.14 976.014 1293.5 Q973.092 1290.87 968.086 1290.87 Q965.742 1290.87 963.399 1291.39 Q961.084 1291.91 958.653 1293.01 L958.653 1271.31 Z" fill="#000000" fill-rule="nonzero" fill-opacity="1" /><path clip-path="url(#clip440)" d="M1388.55 1309.59 L1398.1 1309.59 L1398.1 1276.64 L1387.71 1278.72 L1387.71 1273.39 L1398.04 1271.31 L1403.88 1271.31 L1403.88 1309.59 L1413.43 1309.59 L1413.43 1314.51 L1388.55 1314.51 L1388.55 1309.59 Z" fill="#000000" fill-rule="nonzero" fill-opacity="1" /><path clip-path="url(#clip440)" d="M1437.74 1275.16 Q1433.22 1275.16 1430.94 1279.62 Q1428.68 1284.04 1428.68 1292.95 Q1428.68 1301.84 1430.94 1306.29 Q1433.22 1310.72 1437.74 1310.72 Q1442.28 1310.72 1444.54 1306.29 Q1446.82 1301.84 1446.82 1292.95 Q1446.82 1284.04 1444.54 1279.62 Q1442.28 1275.16 1437.74 1275.16 M1437.74 1270.53 Q1445 1270.53 1448.82 1276.29 Q1452.67 1282.02 1452.67 1292.95 Q1452.67 1303.86 1448.82 1309.62 Q1445 1315.35 1437.74 1315.35 Q1430.47 1315.35 1426.63 1309.62 Q1422.81 1303.86 1422.81 1292.95 Q1422.81 1282.02 1426.63 1276.29 Q1430.47 1270.53 1437.74 1270.53 Z" fill="#000000" fill-rule="nonzero" fill-opacity="1" /><path clip-path="url(#clip440)" d="M1838.55 1309.59 L1848.1 1309.59 L1848.1 1276.64 L1837.71 1278.72 L1837.71 1273.39 L1848.04 1271.31 L1853.89 1271.31 L1853.89 1309.59 L1863.43 1309.59 L1863.43 1314.51 L1838.55 1314.51 L1838.55 1309.59 Z" fill="#000000" fill-rule="nonzero" fill-opacity="1" /><path clip-path="url(#clip440)" d="M1875.3 1271.31 L1898.24 1271.31 L1898.24 1276.23 L1880.65 1276.23 L1880.65 1286.82 Q1881.92 1286.39 1883.2 1286.18 Q1884.47 1285.95 1885.74 1285.95 Q1892.98 1285.95 1897.2 1289.92 Q1901.43 1293.88 1901.43 1300.65 Q1901.43 1307.62 1897.09 1311.5 Q1892.75 1315.35 1884.85 1315.35 Q1882.13 1315.35 1879.29 1314.89 Q1876.48 1314.42 1873.48 1313.5 L1873.48 1307.62 Q1876.08 1309.04 1878.86 1309.74 Q1881.63 1310.43 1884.73 1310.43 Q1889.74 1310.43 1892.66 1307.8 Q1895.58 1305.17 1895.58 1300.65 Q1895.58 1296.14 1892.66 1293.5 Q1889.74 1290.87 1884.73 1290.87 Q1882.39 1290.87 1880.04 1291.39 Q1877.73 1291.91 1875.3 1293.01 L1875.3 1271.31 Z" fill="#000000" fill-rule="nonzero" fill-opacity="1" /><path clip-path="url(#clip440)" d="M1223.25 1353.18 L1223.25 1359.45 Q1219.59 1357.69 1216.35 1356.84 Q1213.1 1355.98 1210.08 1355.98 Q1204.82 1355.98 1201.96 1358.01 Q1199.13 1360.05 1199.13 1363.81 Q1199.13 1366.96 1201 1368.58 Q1202.91 1370.17 1208.2 1371.16 L1212.08 1371.95 Q1219.27 1373.32 1222.68 1376.79 Q1226.12 1380.23 1226.12 1386.02 Q1226.12 1392.93 1221.47 1396.49 Q1216.85 1400.06 1207.91 1400.06 Q1204.54 1400.06 1200.72 1399.29 Q1196.93 1398.53 1192.86 1397.03 L1192.86 1390.41 Q1196.77 1392.61 1200.53 1393.72 Q1204.28 1394.84 1207.91 1394.84 Q1213.42 1394.84 1216.41 1392.67 Q1219.4 1390.51 1219.4 1386.5 Q1219.4 1383 1217.24 1381.03 Q1215.1 1379.05 1210.2 1378.07 L1206.29 1377.3 Q1199.09 1375.87 1195.88 1372.81 Q1192.66 1369.76 1192.66 1364.32 Q1192.66 1358.01 1197.09 1354.38 Q1201.55 1350.76 1209.34 1350.76 Q1212.69 1350.76 1216.15 1351.36 Q1219.62 1351.97 1223.25 1353.18 Z" fill="#000000" fill-rule="nonzero" fill-opacity="1" /><path clip-path="url(#clip440)" d="M1241.68 1353.37 L1241.68 1363.49 L1253.74 1363.49 L1253.74 1368.04 L1241.68 1368.04 L1241.68 1387.39 Q1241.68 1391.75 1242.86 1392.99 Q1244.07 1394.23 1247.73 1394.23 L1253.74 1394.23 L1253.74 1399.14 L1247.73 1399.14 Q1240.95 1399.14 1238.37 1396.62 Q1235.79 1394.07 1235.79 1387.39 L1235.79 1368.04 L1231.5 1368.04 L1231.5 1363.49 L1235.79 1363.49 L1235.79 1353.37 L1241.68 1353.37 Z" fill="#000000" fill-rule="nonzero" fill-opacity="1" /><path clip-path="url(#clip440)" d="M1277.65 1381.22 Q1270.55 1381.22 1267.81 1382.84 Q1265.07 1384.46 1265.07 1388.38 Q1265.07 1391.5 1267.11 1393.34 Q1269.18 1395.16 1272.71 1395.16 Q1277.58 1395.16 1280.51 1391.72 Q1283.47 1388.25 1283.47 1382.52 L1283.47 1381.22 L1277.65 1381.22 M1289.33 1378.8 L1289.33 1399.14 L1283.47 1399.14 L1283.47 1393.72 Q1281.47 1396.97 1278.47 1398.53 Q1275.48 1400.06 1271.15 1400.06 Q1265.68 1400.06 1262.43 1397 Q1259.22 1393.92 1259.22 1388.76 Q1259.22 1382.74 1263.23 1379.69 Q1267.27 1376.63 1275.26 1376.63 L1283.47 1376.63 L1283.47 1376.06 Q1283.47 1372.02 1280.8 1369.82 Q1278.16 1367.59 1273.35 1367.59 Q1270.29 1367.59 1267.4 1368.33 Q1264.5 1369.06 1261.83 1370.52 L1261.83 1365.11 Q1265.04 1363.87 1268.07 1363.26 Q1271.09 1362.63 1273.95 1362.63 Q1281.69 1362.63 1285.51 1366.64 Q1289.33 1370.65 1289.33 1378.8 Z" fill="#000000" fill-rule="nonzero" fill-opacity="1" /><path clip-path="url(#clip440)" d="M1307.18 1353.37 L1307.18 1363.49 L1319.25 1363.49 L1319.25 1368.04 L1307.18 1368.04 L1307.18 1387.39 Q1307.18 1391.75 1308.36 1392.99 Q1309.57 1394.23 1313.23 1394.23 L1319.25 1394.23 L1319.25 1399.14 L1313.23 1399.14 Q1306.45 1399.14 1303.87 1396.62 Q1301.3 1394.07 1301.3 1387.39 L1301.3 1368.04 L1297 1368.04 L1297 1363.49 L1301.3 1363.49 L1301.3 1353.37 L1307.18 1353.37 Z" fill="#000000" fill-rule="nonzero" fill-opacity="1" /><path clip-path="url(#clip440)" d="M1357.44 1379.85 L1357.44 1382.71 L1330.51 1382.71 Q1330.9 1388.76 1334.14 1391.94 Q1337.42 1395.09 1343.25 1395.09 Q1346.62 1395.09 1349.77 1394.27 Q1352.95 1393.44 1356.07 1391.78 L1356.07 1397.32 Q1352.92 1398.66 1349.61 1399.36 Q1346.3 1400.06 1342.9 1400.06 Q1334.37 1400.06 1329.37 1395.09 Q1324.4 1390.13 1324.4 1381.66 Q1324.4 1372.91 1329.11 1367.78 Q1333.86 1362.63 1341.88 1362.63 Q1349.07 1362.63 1353.24 1367.28 Q1357.44 1371.89 1357.44 1379.85 M1351.58 1378.13 Q1351.52 1373.32 1348.88 1370.46 Q1346.27 1367.59 1341.94 1367.59 Q1337.04 1367.59 1334.08 1370.36 Q1331.15 1373.13 1330.71 1378.16 L1351.58 1378.13 Z" fill="#000000" fill-rule="nonzero" fill-opacity="1" /><path clip-path="url(#clip440)" d="M1387.77 1363.49 L1393.63 1363.49 L1393.63 1399.14 L1387.77 1399.14 L1387.77 1363.49 M1387.77 1349.61 L1393.63 1349.61 L1393.63 1357.03 L1387.77 1357.03 L1387.77 1349.61 Z" fill="#000000" fill-rule="nonzero" fill-opacity="1" /><path clip-path="url(#clip440)" d="M1435.52 1377.62 L1435.52 1399.14 L1429.66 1399.14 L1429.66 1377.81 Q1429.66 1372.75 1427.69 1370.24 Q1425.71 1367.72 1421.77 1367.72 Q1417.02 1367.72 1414.29 1370.74 Q1411.55 1373.77 1411.55 1378.99 L1411.55 1399.14 L1405.66 1399.14 L1405.66 1363.49 L1411.55 1363.49 L1411.55 1369.03 Q1413.65 1365.81 1416.48 1364.22 Q1419.35 1362.63 1423.07 1362.63 Q1429.21 1362.63 1432.37 1366.45 Q1435.52 1370.24 1435.52 1377.62 Z" fill="#000000" fill-rule="nonzero" fill-opacity="1" /><path clip-path="url(#clip440)" d="M1470.66 1368.9 L1470.66 1349.61 L1476.51 1349.61 L1476.51 1399.14 L1470.66 1399.14 L1470.66 1393.79 Q1468.81 1396.97 1465.98 1398.53 Q1463.18 1400.06 1459.23 1400.06 Q1452.77 1400.06 1448.69 1394.9 Q1444.65 1389.75 1444.65 1381.34 Q1444.65 1372.94 1448.69 1367.78 Q1452.77 1362.63 1459.23 1362.63 Q1463.18 1362.63 1465.98 1364.19 Q1468.81 1365.72 1470.66 1368.9 M1450.7 1381.34 Q1450.7 1387.8 1453.34 1391.5 Q1456.01 1395.16 1460.66 1395.16 Q1465.31 1395.16 1467.98 1391.5 Q1470.66 1387.8 1470.66 1381.34 Q1470.66 1374.88 1467.98 1371.22 Q1465.31 1367.53 1460.66 1367.53 Q1456.01 1367.53 1453.34 1371.22 Q1450.7 1374.88 1450.7 1381.34 Z" fill="#000000" fill-rule="nonzero" fill-opacity="1" /><path clip-path="url(#clip440)" d="M1519.07 1379.85 L1519.07 1382.71 L1492.14 1382.71 Q1492.52 1388.76 1495.77 1391.94 Q1499.05 1395.09 1504.87 1395.09 Q1508.24 1395.09 1511.4 1394.27 Q1514.58 1393.44 1517.7 1391.78 L1517.7 1397.32 Q1514.55 1398.66 1511.24 1399.36 Q1507.93 1400.06 1504.52 1400.06 Q1495.99 1400.06 1490.99 1395.09 Q1486.03 1390.13 1486.03 1381.66 Q1486.03 1372.91 1490.74 1367.78 Q1495.48 1362.63 1503.5 1362.63 Q1510.7 1362.63 1514.87 1367.28 Q1519.07 1371.89 1519.07 1379.85 M1513.21 1378.13 Q1513.15 1373.32 1510.5 1370.46 Q1507.89 1367.59 1503.57 1367.59 Q1498.66 1367.59 1495.7 1370.36 Q1492.78 1373.13 1492.33 1378.16 L1513.21 1378.13 Z" fill="#000000" fill-rule="nonzero" fill-opacity="1" /><path clip-path="url(#clip440)" d="M1557.17 1363.49 L1544.27 1380.83 L1557.83 1399.14 L1550.93 1399.14 L1540.55 1385.13 L1530.17 1399.14 L1523.27 1399.14 L1537.11 1380.48 L1524.45 1363.49 L1531.35 1363.49 L1540.81 1376.19 L1550.26 1363.49 L1557.17 1363.49 Z" fill="#000000" fill-rule="nonzero" fill-opacity="1" /><polyline clip-path="url(#clip440)" style="stroke:#000000; stroke-linecap:round; stroke-linejoin:round; stroke-width:4; stroke-opacity:1; fill:none" points="476.483,1241.31 476.483,180.612 "/>
<polyline clip-path="url(#clip440)" style="stroke:#000000; stroke-linecap:round; stroke-linejoin:round; stroke-width:4; stroke-opacity:1; fill:none" points="476.483,1241.31 495.38,1241.31 "/>
<polyline clip-path="url(#clip440)" style="stroke:#000000; stroke-linecap:round; stroke-linejoin:round; stroke-width:4; stroke-opacity:1; fill:none" points="476.483,1012.9 495.38,1012.9 "/>
<polyline clip-path="url(#clip440)" style="stroke:#000000; stroke-linecap:round; stroke-linejoin:round; stroke-width:4; stroke-opacity:1; fill:none" points="476.483,784.482 495.38,784.482 "/>
<polyline clip-path="url(#clip440)" style="stroke:#000000; stroke-linecap:round; stroke-linejoin:round; stroke-width:4; stroke-opacity:1; fill:none" points="476.483,556.067 495.38,556.067 "/>
<polyline clip-path="url(#clip440)" style="stroke:#000000; stroke-linecap:round; stroke-linejoin:round; stroke-width:4; stroke-opacity:1; fill:none" points="476.483,327.652 495.38,327.652 "/>
<path clip-path="url(#clip440)" d="M369.013 1223.56 Q364.499 1223.56 362.214 1228.02 Q359.957 1232.44 359.957 1241.35 Q359.957 1250.24 362.214 1254.69 Q364.499 1259.12 369.013 1259.12 Q373.556 1259.12 375.813 1254.69 Q378.099 1250.24 378.099 1241.35 Q378.099 1232.44 375.813 1228.02 Q373.556 1223.56 369.013 1223.56 M369.013 1218.93 Q376.276 1218.93 380.095 1224.69 Q383.944 1230.42 383.944 1241.35 Q383.944 1252.26 380.095 1258.02 Q376.276 1263.75 369.013 1263.75 Q361.751 1263.75 357.902 1258.02 Q354.083 1252.26 354.083 1241.35 Q354.083 1230.42 357.902 1224.69 Q361.751 1218.93 369.013 1218.93 Z" fill="#000000" fill-rule="nonzero" fill-opacity="1" /><path clip-path="url(#clip440)" d="M394.216 1255.56 L400.321 1255.56 L400.321 1262.91 L394.216 1262.91 L394.216 1255.56 Z" fill="#000000" fill-rule="nonzero" fill-opacity="1" /><path clip-path="url(#clip440)" d="M425.552 1223.56 Q421.038 1223.56 418.753 1228.02 Q416.496 1232.44 416.496 1241.35 Q416.496 1250.24 418.753 1254.69 Q421.038 1259.12 425.552 1259.12 Q430.095 1259.12 432.352 1254.69 Q434.638 1250.24 434.638 1241.35 Q434.638 1232.44 432.352 1228.02 Q430.095 1223.56 425.552 1223.56 M425.552 1218.93 Q432.815 1218.93 436.634 1224.69 Q440.483 1230.42 440.483 1241.35 Q440.483 1252.26 436.634 1258.02 Q432.815 1263.75 425.552 1263.75 Q418.29 1263.75 414.441 1258.02 Q410.622 1252.26 410.622 1241.35 Q410.622 1230.42 414.441 1224.69 Q418.29 1218.93 425.552 1218.93 Z" fill="#000000" fill-rule="nonzero" fill-opacity="1" /><path clip-path="url(#clip440)" d="M362.792 1029.58 L383.191 1029.58 L383.191 1034.5 L355.761 1034.5 L355.761 1029.58 Q359.089 1026.13 364.818 1020.35 Q370.576 1014.53 372.051 1012.85 Q374.858 1009.7 375.958 1007.53 Q377.086 1005.33 377.086 1003.22 Q377.086 999.775 374.656 997.605 Q372.254 995.434 368.377 995.434 Q365.628 995.434 362.561 996.389 Q359.523 997.344 356.05 999.283 L356.05 993.38 Q359.58 991.962 362.648 991.239 Q365.715 990.515 368.261 990.515 Q374.974 990.515 378.967 993.872 Q382.96 997.228 382.96 1002.84 Q382.96 1005.5 381.947 1007.91 Q380.963 1010.28 378.33 1013.52 Q377.607 1014.36 373.73 1018.38 Q369.852 1022.37 362.792 1029.58 Z" fill="#000000" fill-rule="nonzero" fill-opacity="1" /><path clip-path="url(#clip440)" d="M395.46 1027.15 L401.565 1027.15 L401.565 1034.5 L395.46 1034.5 L395.46 1027.15 Z" fill="#000000" fill-rule="nonzero" fill-opacity="1" /><path clip-path="url(#clip440)" d="M414.354 991.297 L437.3 991.297 L437.3 996.216 L419.707 996.216 L419.707 1006.81 Q420.981 1006.37 422.254 1006.17 Q423.527 1005.94 424.8 1005.94 Q432.034 1005.94 436.258 1009.9 Q440.483 1013.87 440.483 1020.64 Q440.483 1027.61 436.143 1031.49 Q431.802 1035.34 423.903 1035.34 Q421.183 1035.34 418.347 1034.87 Q415.541 1034.41 412.532 1033.48 L412.532 1027.61 Q415.136 1029.03 417.913 1029.72 Q420.691 1030.42 423.787 1030.42 Q428.793 1030.42 431.715 1027.78 Q434.638 1025.15 434.638 1020.64 Q434.638 1016.12 431.715 1013.49 Q428.793 1010.86 423.787 1010.86 Q421.444 1010.86 419.1 1011.38 Q416.785 1011.9 414.354 1013 L414.354 991.297 Z" fill="#000000" fill-rule="nonzero" fill-opacity="1" /><path clip-path="url(#clip440)" d="M356.571 762.882 L379.517 762.882 L379.517 767.801 L361.924 767.801 L361.924 778.391 Q363.197 777.957 364.47 777.755 Q365.744 777.523 367.017 777.523 Q374.25 777.523 378.475 781.487 Q382.7 785.451 382.7 792.222 Q382.7 799.195 378.359 803.073 Q374.019 806.921 366.12 806.921 Q363.4 806.921 360.564 806.458 Q357.758 805.995 354.748 805.069 L354.748 799.195 Q357.352 800.613 360.13 801.308 Q362.908 802.002 366.004 802.002 Q371.01 802.002 373.932 799.369 Q376.855 796.736 376.855 792.222 Q376.855 787.708 373.932 785.075 Q371.01 782.442 366.004 782.442 Q363.66 782.442 361.317 782.963 Q359.002 783.484 356.571 784.583 L356.571 762.882 Z" fill="#000000" fill-rule="nonzero" fill-opacity="1" /><path clip-path="url(#clip440)" d="M394.216 798.732 L400.321 798.732 L400.321 806.082 L394.216 806.082 L394.216 798.732 Z" fill="#000000" fill-rule="nonzero" fill-opacity="1" /><path clip-path="url(#clip440)" d="M425.552 766.73 Q421.038 766.73 418.753 771.186 Q416.496 775.613 416.496 784.525 Q416.496 793.408 418.753 797.864 Q421.038 802.291 425.552 802.291 Q430.095 802.291 432.352 797.864 Q434.638 793.408 434.638 784.525 Q434.638 775.613 432.352 771.186 Q430.095 766.73 425.552 766.73 M425.552 762.101 Q432.815 762.101 436.634 767.859 Q440.483 773.588 440.483 784.525 Q440.483 795.434 436.634 801.192 Q432.815 806.921 425.552 806.921 Q418.29 806.921 414.441 801.192 Q410.622 795.434 410.622 784.525 Q410.622 773.588 414.441 767.859 Q418.29 762.101 425.552 762.101 Z" fill="#000000" fill-rule="nonzero" fill-opacity="1" /><path clip-path="url(#clip440)" d="M356.282 534.467 L384.059 534.467 L384.059 536.956 L368.377 577.667 L362.271 577.667 L377.028 539.386 L356.282 539.386 L356.282 534.467 Z" fill="#000000" fill-rule="nonzero" fill-opacity="1" /><path clip-path="url(#clip440)" d="M395.46 570.318 L401.565 570.318 L401.565 577.667 L395.46 577.667 L395.46 570.318 Z" fill="#000000" fill-rule="nonzero" fill-opacity="1" /><path clip-path="url(#clip440)" d="M414.354 534.467 L437.3 534.467 L437.3 539.386 L419.707 539.386 L419.707 549.976 Q420.981 549.542 422.254 549.34 Q423.527 549.108 424.8 549.108 Q432.034 549.108 436.258 553.072 Q440.483 557.037 440.483 563.807 Q440.483 570.781 436.143 574.658 Q431.802 578.506 423.903 578.506 Q421.183 578.506 418.347 578.043 Q415.541 577.58 412.532 576.654 L412.532 570.781 Q415.136 572.198 417.913 572.893 Q420.691 573.587 423.787 573.587 Q428.793 573.587 431.715 570.954 Q434.638 568.321 434.638 563.807 Q434.638 559.293 431.715 556.66 Q428.793 554.027 423.787 554.027 Q421.444 554.027 419.1 554.548 Q416.785 555.069 414.354 556.168 L414.354 534.467 Z" fill="#000000" fill-rule="nonzero" fill-opacity="1" /><path clip-path="url(#clip440)" d="M319.824 344.333 L329.372 344.333 L329.372 311.376 L318.985 313.46 L318.985 308.136 L329.314 306.052 L335.159 306.052 L335.159 344.333 L344.708 344.333 L344.708 349.252 L319.824 349.252 L319.824 344.333 Z" fill="#000000" fill-rule="nonzero" fill-opacity="1" /><path clip-path="url(#clip440)" d="M369.013 309.901 Q364.499 309.901 362.214 314.357 Q359.957 318.784 359.957 327.696 Q359.957 336.579 362.214 341.035 Q364.499 345.462 369.013 345.462 Q373.556 345.462 375.813 341.035 Q378.099 336.579 378.099 327.696 Q378.099 318.784 375.813 314.357 Q373.556 309.901 369.013 309.901 M369.013 305.271 Q376.276 305.271 380.095 311.029 Q383.944 316.758 383.944 327.696 Q383.944 338.604 380.095 344.362 Q376.276 350.092 369.013 350.092 Q361.751 350.092 357.902 344.362 Q354.083 338.604 354.083 327.696 Q354.083 316.758 357.902 311.029 Q361.751 305.271 369.013 305.271 Z" fill="#000000" fill-rule="nonzero" fill-opacity="1" /><path clip-path="url(#clip440)" d="M394.216 341.903 L400.321 341.903 L400.321 349.252 L394.216 349.252 L394.216 341.903 Z" fill="#000000" fill-rule="nonzero" fill-opacity="1" /><path clip-path="url(#clip440)" d="M425.552 309.901 Q421.038 309.901 418.753 314.357 Q416.496 318.784 416.496 327.696 Q416.496 336.579 418.753 341.035 Q421.038 345.462 425.552 345.462 Q430.095 345.462 432.352 341.035 Q434.638 336.579 434.638 327.696 Q434.638 318.784 432.352 314.357 Q430.095 309.901 425.552 309.901 M425.552 305.271 Q432.815 305.271 436.634 311.029 Q440.483 316.758 440.483 327.696 Q440.483 338.604 436.634 344.362 Q432.815 350.092 425.552 350.092 Q418.29 350.092 414.441 344.362 Q410.622 338.604 410.622 327.696 Q410.622 316.758 414.441 311.029 Q418.29 305.271 425.552 305.271 Z" fill="#000000" fill-rule="nonzero" fill-opacity="1" /><path clip-path="url(#clip440)" d="M221.209 1349.84 L221.209 1319.79 L226.619 1319.79 L226.619 1343.41 L240.688 1343.41 L240.688 1320.78 L246.098 1320.78 L246.098 1343.41 L263.318 1343.41 L263.318 1319.22 L268.729 1319.22 L268.729 1349.84 L221.209 1349.84 Z" fill="#000000" fill-rule="nonzero" fill-opacity="1" /><path clip-path="url(#clip440)" d="M233.081 1279.28 L250.427 1292.17 L268.729 1278.61 L268.729 1285.51 L254.724 1295.89 L268.729 1306.27 L268.729 1313.17 L250.077 1299.33 L233.081 1312 L233.081 1305.09 L245.78 1295.64 L233.081 1286.18 L233.081 1279.28 Z" fill="#000000" fill-rule="nonzero" fill-opacity="1" /><path clip-path="url(#clip440)" d="M263.381 1264.67 L282.288 1264.67 L282.288 1270.56 L233.081 1270.56 L233.081 1264.67 L238.491 1264.67 Q235.309 1262.82 233.781 1260.02 Q232.221 1257.19 232.221 1253.27 Q232.221 1246.78 237.377 1242.74 Q242.534 1238.66 250.936 1238.66 Q259.339 1238.66 264.495 1242.74 Q269.652 1246.78 269.652 1253.27 Q269.652 1257.19 268.124 1260.02 Q266.564 1262.82 263.381 1264.67 M250.936 1244.74 Q244.475 1244.74 240.815 1247.42 Q237.123 1250.06 237.123 1254.7 Q237.123 1259.35 240.815 1262.03 Q244.475 1264.67 250.936 1264.67 Q257.398 1264.67 261.09 1262.03 Q264.75 1259.35 264.75 1254.7 Q264.75 1250.06 261.09 1247.42 Q257.398 1244.74 250.936 1244.74 Z" fill="#000000" fill-rule="nonzero" fill-opacity="1" /><path clip-path="url(#clip440)" d="M249.44 1198.46 L252.305 1198.46 L252.305 1225.39 Q258.352 1225.01 261.535 1221.76 Q264.686 1218.48 264.686 1212.66 Q264.686 1209.29 263.859 1206.13 Q263.031 1202.95 261.376 1199.83 L266.914 1199.83 Q268.251 1202.98 268.951 1206.29 Q269.652 1209.6 269.652 1213.01 Q269.652 1221.54 264.686 1226.54 Q259.721 1231.5 251.255 1231.5 Q242.502 1231.5 237.377 1226.79 Q232.221 1222.05 232.221 1214.03 Q232.221 1206.83 236.868 1202.66 Q241.483 1198.46 249.44 1198.46 M247.722 1204.32 Q242.916 1204.38 240.051 1207.03 Q237.186 1209.64 237.186 1213.96 Q237.186 1218.87 239.956 1221.83 Q242.725 1224.75 247.754 1225.2 L247.722 1204.32 Z" fill="#000000" fill-rule="nonzero" fill-opacity="1" /><path clip-path="url(#clip440)" d="M234.449 1163.2 L239.924 1163.2 Q238.555 1165.68 237.887 1168.19 Q237.186 1170.68 237.186 1173.22 Q237.186 1178.92 240.815 1182.07 Q244.412 1185.22 250.936 1185.22 Q257.461 1185.22 261.09 1182.07 Q264.686 1178.92 264.686 1173.22 Q264.686 1170.68 264.018 1168.19 Q263.318 1165.68 261.949 1163.2 L267.36 1163.2 Q268.506 1165.65 269.079 1168.29 Q269.652 1170.9 269.652 1173.86 Q269.652 1181.91 264.591 1186.66 Q259.53 1191.4 250.936 1191.4 Q242.215 1191.4 237.218 1186.62 Q232.221 1181.82 232.221 1173.48 Q232.221 1170.77 232.794 1168.19 Q233.335 1165.62 234.449 1163.2 Z" fill="#000000" fill-rule="nonzero" fill-opacity="1" /><path clip-path="url(#clip440)" d="M222.959 1147.22 L233.081 1147.22 L233.081 1135.16 L237.632 1135.16 L237.632 1147.22 L256.984 1147.22 Q261.344 1147.22 262.586 1146.04 Q263.827 1144.83 263.827 1141.17 L263.827 1135.16 L268.729 1135.16 L268.729 1141.17 Q268.729 1147.95 266.214 1150.53 Q263.668 1153.11 256.984 1153.11 L237.632 1153.11 L237.632 1157.4 L233.081 1157.4 L233.081 1153.11 L222.959 1153.11 L222.959 1147.22 Z" fill="#000000" fill-rule="nonzero" fill-opacity="1" /><path clip-path="url(#clip440)" d="M249.44 1096.96 L252.305 1096.96 L252.305 1123.89 Q258.352 1123.51 261.535 1120.26 Q264.686 1116.98 264.686 1111.16 Q264.686 1107.78 263.859 1104.63 Q263.031 1101.45 261.376 1098.33 L266.914 1098.33 Q268.251 1101.48 268.951 1104.79 Q269.652 1108.1 269.652 1111.51 Q269.652 1120.04 264.686 1125.04 Q259.721 1130 251.255 1130 Q242.502 1130 237.377 1125.29 Q232.221 1120.55 232.221 1112.53 Q232.221 1105.33 236.868 1101.16 Q241.483 1096.96 249.44 1096.96 M247.722 1102.82 Q242.916 1102.88 240.051 1105.52 Q237.186 1108.13 237.186 1112.46 Q237.186 1117.36 239.956 1120.32 Q242.725 1123.25 247.754 1123.7 L247.722 1102.82 Z" fill="#000000" fill-rule="nonzero" fill-opacity="1" /><path clip-path="url(#clip440)" d="M238.491 1063.89 L219.203 1063.89 L219.203 1058.04 L268.729 1058.04 L268.729 1063.89 L263.381 1063.89 Q266.564 1065.74 268.124 1068.57 Q269.652 1071.37 269.652 1075.32 Q269.652 1081.78 264.495 1085.85 Q259.339 1089.9 250.936 1089.9 Q242.534 1089.9 237.377 1085.85 Q232.221 1081.78 232.221 1075.32 Q232.221 1071.37 233.781 1068.57 Q235.309 1065.74 238.491 1063.89 M250.936 1083.85 Q257.398 1083.85 261.09 1081.21 Q264.75 1078.53 264.75 1073.89 Q264.75 1069.24 261.09 1066.57 Q257.398 1063.89 250.936 1063.89 Q244.475 1063.89 240.815 1066.57 Q237.123 1069.24 237.123 1073.89 Q237.123 1078.53 240.815 1081.21 Q244.475 1083.85 250.936 1083.85 Z" fill="#000000" fill-rule="nonzero" fill-opacity="1" /><path clip-path="url(#clip440)" d="M238.555 1004.6 Q237.982 1005.58 237.728 1006.76 Q237.441 1007.91 237.441 1009.31 Q237.441 1014.27 240.688 1016.95 Q243.902 1019.59 249.95 1019.59 L268.729 1019.59 L268.729 1025.48 L233.081 1025.48 L233.081 1019.59 L238.619 1019.59 Q235.372 1017.74 233.813 1014.78 Q232.221 1011.82 232.221 1007.59 Q232.221 1006.98 232.317 1006.25 Q232.38 1005.52 232.54 1004.63 L238.555 1004.6 Z" fill="#000000" fill-rule="nonzero" fill-opacity="1" /><path clip-path="url(#clip440)" d="M249.44 969.394 L252.305 969.394 L252.305 996.321 Q258.352 995.939 261.535 992.692 Q264.686 989.414 264.686 983.589 Q264.686 980.215 263.859 977.064 Q263.031 973.881 261.376 970.762 L266.914 970.762 Q268.251 973.913 268.951 977.223 Q269.652 980.534 269.652 983.939 Q269.652 992.469 264.686 997.466 Q259.721 1002.43 251.255 1002.43 Q242.502 1002.43 237.377 997.721 Q232.221 992.979 232.221 984.958 Q232.221 977.765 236.868 973.595 Q241.483 969.394 249.44 969.394 M247.722 975.25 Q242.916 975.314 240.051 977.956 Q237.186 980.565 237.186 984.894 Q237.186 989.796 239.956 992.756 Q242.725 995.684 247.754 996.13 L247.722 975.25 Z" fill="#000000" fill-rule="nonzero" fill-opacity="1" /><path clip-path="url(#clip440)" d="M234.131 937.056 L239.669 937.056 Q238.396 939.539 237.759 942.212 Q237.123 944.886 237.123 947.75 Q237.123 952.111 238.46 954.307 Q239.796 956.471 242.47 956.471 Q244.507 956.471 245.685 954.912 Q246.831 953.352 247.881 948.641 L248.326 946.636 Q249.663 940.398 252.114 937.788 Q254.533 935.146 258.894 935.146 Q263.859 935.146 266.755 939.093 Q269.652 943.008 269.652 949.883 Q269.652 952.747 269.079 955.867 Q268.538 958.954 267.424 962.391 L261.376 962.391 Q263.063 959.145 263.922 955.994 Q264.75 952.843 264.75 949.755 Q264.75 945.618 263.35 943.39 Q261.917 941.162 259.339 941.162 Q256.952 941.162 255.679 942.785 Q254.406 944.376 253.228 949.819 L252.751 951.856 Q251.605 957.299 249.25 959.718 Q246.862 962.137 242.725 962.137 Q237.696 962.137 234.958 958.572 Q232.221 955.007 232.221 948.45 Q232.221 945.204 232.699 942.339 Q233.176 939.475 234.131 937.056 Z" fill="#000000" fill-rule="nonzero" fill-opacity="1" /><path clip-path="url(#clip440)" d="M233.081 925.82 L233.081 919.964 L268.729 919.964 L268.729 925.82 L233.081 925.82 M219.203 925.82 L219.203 919.964 L226.619 919.964 L226.619 925.82 L219.203 925.82 Z" fill="#000000" fill-rule="nonzero" fill-opacity="1" /><path clip-path="url(#clip440)" d="M238.491 884.252 L219.203 884.252 L219.203 878.396 L268.729 878.396 L268.729 884.252 L263.381 884.252 Q266.564 886.098 268.124 888.931 Q269.652 891.732 269.652 895.679 Q269.652 902.14 264.495 906.214 Q259.339 910.256 250.936 910.256 Q242.534 910.256 237.377 906.214 Q232.221 902.14 232.221 895.679 Q232.221 891.732 233.781 888.931 Q235.309 886.098 238.491 884.252 M250.936 904.209 Q257.398 904.209 261.09 901.567 Q264.75 898.893 264.75 894.246 Q264.75 889.6 261.09 886.926 Q257.398 884.252 250.936 884.252 Q244.475 884.252 240.815 886.926 Q237.123 889.6 237.123 894.246 Q237.123 898.893 240.815 901.567 Q244.475 904.209 250.936 904.209 Z" fill="#000000" fill-rule="nonzero" fill-opacity="1" /><path clip-path="url(#clip440)" d="M249.44 835.841 L252.305 835.841 L252.305 862.768 Q258.352 862.386 261.535 859.14 Q264.686 855.861 264.686 850.037 Q264.686 846.663 263.859 843.512 Q263.031 840.329 261.376 837.21 L266.914 837.21 Q268.251 840.361 268.951 843.671 Q269.652 846.981 269.652 850.387 Q269.652 858.917 264.686 863.914 Q259.721 868.879 251.255 868.879 Q242.502 868.879 237.377 864.169 Q232.221 859.426 232.221 851.405 Q232.221 844.212 236.868 840.043 Q241.483 835.841 249.44 835.841 M247.722 841.698 Q242.916 841.761 240.051 844.403 Q237.186 847.013 237.186 851.342 Q237.186 856.243 239.956 859.203 Q242.725 862.132 247.754 862.577 L247.722 841.698 Z" fill="#000000" fill-rule="nonzero" fill-opacity="1" /><path clip-path="url(#clip440)" d="M247.212 796.597 L268.729 796.597 L268.729 802.453 L247.403 802.453 Q242.343 802.453 239.828 804.426 Q237.314 806.4 237.314 810.346 Q237.314 815.089 240.338 817.826 Q243.361 820.563 248.581 820.563 L268.729 820.563 L268.729 826.452 L233.081 826.452 L233.081 820.563 L238.619 820.563 Q235.404 818.463 233.813 815.63 Q232.221 812.765 232.221 809.042 Q232.221 802.899 236.041 799.748 Q239.828 796.597 247.212 796.597 Z" fill="#000000" fill-rule="nonzero" fill-opacity="1" /><path clip-path="url(#clip440)" d="M234.449 759.262 L239.924 759.262 Q238.555 761.744 237.887 764.259 Q237.186 766.741 237.186 769.288 Q237.186 774.985 240.815 778.136 Q244.412 781.287 250.936 781.287 Q257.461 781.287 261.09 778.136 Q264.686 774.985 264.686 769.288 Q264.686 766.741 264.018 764.259 Q263.318 761.744 261.949 759.262 L267.36 759.262 Q268.506 761.712 269.079 764.354 Q269.652 766.964 269.652 769.924 Q269.652 777.977 264.591 782.719 Q259.53 787.462 250.936 787.462 Q242.215 787.462 237.218 782.687 Q232.221 777.881 232.221 769.542 Q232.221 766.837 232.794 764.259 Q233.335 761.681 234.449 759.262 Z" fill="#000000" fill-rule="nonzero" fill-opacity="1" /><path clip-path="url(#clip440)" d="M249.44 718.585 L252.305 718.585 L252.305 745.512 Q258.352 745.13 261.535 741.883 Q264.686 738.605 264.686 732.78 Q264.686 729.407 263.859 726.255 Q263.031 723.073 261.376 719.953 L266.914 719.953 Q268.251 723.104 268.951 726.415 Q269.652 729.725 269.652 733.13 Q269.652 741.661 264.686 746.658 Q259.721 751.623 251.255 751.623 Q242.502 751.623 237.377 746.912 Q232.221 742.17 232.221 734.149 Q232.221 726.956 236.868 722.786 Q241.483 718.585 249.44 718.585 M247.722 724.441 Q242.916 724.505 240.051 727.147 Q237.186 729.757 237.186 734.085 Q237.186 738.987 239.956 741.947 Q242.725 744.875 247.754 745.321 L247.722 724.441 Z" fill="#000000" fill-rule="nonzero" fill-opacity="1" /><path clip-path="url(#clip440)" d="M222.959 682.459 L233.081 682.459 L233.081 670.396 L237.632 670.396 L237.632 682.459 L256.984 682.459 Q261.344 682.459 262.586 681.282 Q263.827 680.072 263.827 676.412 L263.827 670.396 L268.729 670.396 L268.729 676.412 Q268.729 683.191 266.214 685.77 Q263.668 688.348 256.984 688.348 L237.632 688.348 L237.632 692.645 L233.081 692.645 L233.081 688.348 L222.959 688.348 L222.959 682.459 Z" fill="#000000" fill-rule="nonzero" fill-opacity="1" /><path clip-path="url(#clip440)" d="M233.081 662.694 L233.081 656.837 L268.729 656.837 L268.729 662.694 L233.081 662.694 M219.203 662.694 L219.203 656.837 L226.619 656.837 L226.619 662.694 L219.203 662.694 Z" fill="#000000" fill-rule="nonzero" fill-opacity="1" /><path clip-path="url(#clip440)" d="M239.924 616.829 Q235.977 614.633 234.099 611.577 Q232.221 608.522 232.221 604.384 Q232.221 598.814 236.136 595.79 Q240.019 592.767 247.212 592.767 L268.729 592.767 L268.729 598.655 L247.403 598.655 Q242.279 598.655 239.796 600.469 Q237.314 602.283 237.314 606.007 Q237.314 610.559 240.338 613.201 Q243.361 615.842 248.581 615.842 L268.729 615.842 L268.729 621.731 L247.403 621.731 Q242.247 621.731 239.796 623.545 Q237.314 625.359 237.314 629.147 Q237.314 633.634 240.369 636.276 Q243.393 638.918 248.581 638.918 L268.729 638.918 L268.729 644.806 L233.081 644.806 L233.081 638.918 L238.619 638.918 Q235.34 636.913 233.781 634.112 Q232.221 631.311 232.221 627.46 Q232.221 623.577 234.195 620.871 Q236.168 618.134 239.924 616.829 Z" fill="#000000" fill-rule="nonzero" fill-opacity="1" /><path clip-path="url(#clip440)" d="M249.44 550.594 L252.305 550.594 L252.305 577.521 Q258.352 577.139 261.535 573.892 Q264.686 570.614 264.686 564.789 Q264.686 561.416 263.859 558.265 Q263.031 555.082 261.376 551.962 L266.914 551.962 Q268.251 555.113 268.951 558.424 Q269.652 561.734 269.652 565.139 Q269.652 573.67 264.686 578.667 Q259.721 583.632 251.255 583.632 Q242.502 583.632 237.377 578.921 Q232.221 574.179 232.221 566.158 Q232.221 558.965 236.868 554.795 Q241.483 550.594 249.44 550.594 M247.722 556.45 Q242.916 556.514 240.051 559.156 Q237.186 561.766 237.186 566.094 Q237.186 570.996 239.956 573.956 Q242.725 576.884 247.754 577.33 L247.722 556.45 Z" fill="#000000" fill-rule="nonzero" fill-opacity="1" /><path clip-path="url(#clip440)" d="M219.267 506.193 Q226.588 510.458 233.749 512.527 Q240.91 514.596 248.263 514.596 Q255.615 514.596 262.84 512.527 Q270.034 510.426 277.322 506.193 L277.322 511.286 Q269.843 516.06 262.617 518.447 Q255.392 520.802 248.263 520.802 Q241.165 520.802 233.972 518.447 Q226.779 516.092 219.267 511.286 L219.267 506.193 Z" fill="#000000" fill-rule="nonzero" fill-opacity="1" /><path clip-path="url(#clip440)" d="M222.959 489.037 L233.081 489.037 L233.081 476.974 L237.632 476.974 L237.632 489.037 L256.984 489.037 Q261.344 489.037 262.586 487.86 Q263.827 486.65 263.827 482.99 L263.827 476.974 L268.729 476.974 L268.729 482.99 Q268.729 489.769 266.214 492.348 Q263.668 494.926 256.984 494.926 L237.632 494.926 L237.632 499.223 L233.081 499.223 L233.081 494.926 L222.959 494.926 L222.959 489.037 Z" fill="#000000" fill-rule="nonzero" fill-opacity="1" /><path clip-path="url(#clip440)" d="M238.555 448.615 Q237.982 449.602 237.728 450.78 Q237.441 451.925 237.441 453.326 Q237.441 458.291 240.688 460.965 Q243.902 463.606 249.95 463.606 L268.729 463.606 L268.729 469.495 L233.081 469.495 L233.081 463.606 L238.619 463.606 Q235.372 461.76 233.813 458.8 Q232.221 455.84 232.221 451.607 Q232.221 451.002 232.317 450.27 Q232.38 449.538 232.54 448.647 L238.555 448.615 Z" fill="#000000" fill-rule="nonzero" fill-opacity="1" /><path clip-path="url(#clip440)" d="M250.809 426.272 Q250.809 433.369 252.432 436.107 Q254.056 438.844 257.971 438.844 Q261.09 438.844 262.936 436.807 Q264.75 434.738 264.75 431.205 Q264.75 426.335 261.313 423.407 Q257.843 420.447 252.114 420.447 L250.809 420.447 L250.809 426.272 M248.39 414.591 L268.729 414.591 L268.729 420.447 L263.318 420.447 Q266.564 422.452 268.124 425.444 Q269.652 428.436 269.652 432.765 Q269.652 438.239 266.596 441.486 Q263.509 444.7 258.352 444.7 Q252.337 444.7 249.281 440.69 Q246.226 436.648 246.226 428.659 L246.226 420.447 L245.653 420.447 Q241.611 420.447 239.414 423.121 Q237.186 425.762 237.186 430.568 Q237.186 433.624 237.919 436.52 Q238.651 439.417 240.115 442.09 L234.704 442.09 Q233.463 438.876 232.858 435.852 Q232.221 432.828 232.221 429.964 Q232.221 422.229 236.232 418.41 Q240.242 414.591 248.39 414.591 Z" fill="#000000" fill-rule="nonzero" fill-opacity="1" /><path clip-path="url(#clip440)" d="M238.491 379.07 L219.203 379.07 L219.203 373.213 L268.729 373.213 L268.729 379.07 L263.381 379.07 Q266.564 380.916 268.124 383.749 Q269.652 386.55 269.652 390.496 Q269.652 396.957 264.495 401.032 Q259.339 405.074 250.936 405.074 Q242.534 405.074 237.377 401.032 Q232.221 396.957 232.221 390.496 Q232.221 386.55 233.781 383.749 Q235.309 380.916 238.491 379.07 M250.936 399.026 Q257.398 399.026 261.09 396.385 Q264.75 393.711 264.75 389.064 Q264.75 384.417 261.09 381.743 Q257.398 379.07 250.936 379.07 Q244.475 379.07 240.815 381.743 Q237.123 384.417 237.123 389.064 Q237.123 393.711 240.815 396.385 Q244.475 399.026 250.936 399.026 Z" fill="#000000" fill-rule="nonzero" fill-opacity="1" /><path clip-path="url(#clip440)" d="M233.081 361.15 L233.081 355.294 L268.729 355.294 L268.729 361.15 L233.081 361.15 M219.203 361.15 L219.203 355.294 L226.619 355.294 L226.619 361.15 L219.203 361.15 Z" fill="#000000" fill-rule="nonzero" fill-opacity="1" /><path clip-path="url(#clip440)" d="M247.212 313.408 L268.729 313.408 L268.729 319.264 L247.403 319.264 Q242.343 319.264 239.828 321.237 Q237.314 323.211 237.314 327.158 Q237.314 331.9 240.338 334.637 Q243.361 337.374 248.581 337.374 L268.729 337.374 L268.729 343.263 L233.081 343.263 L233.081 337.374 L238.619 337.374 Q235.404 335.274 233.813 332.441 Q232.221 329.576 232.221 325.853 Q232.221 319.71 236.041 316.559 Q239.828 313.408 247.212 313.408 Z" fill="#000000" fill-rule="nonzero" fill-opacity="1" /><path clip-path="url(#clip440)" d="M250.491 278.269 Q244.125 278.269 240.624 280.911 Q237.123 283.521 237.123 288.263 Q237.123 292.974 240.624 295.615 Q244.125 298.225 250.491 298.225 Q256.825 298.225 260.326 295.615 Q263.827 292.974 263.827 288.263 Q263.827 283.521 260.326 280.911 Q256.825 278.269 250.491 278.269 M264.304 272.412 Q273.407 272.412 277.832 276.455 Q282.288 280.497 282.288 288.836 Q282.288 291.923 281.81 294.661 Q281.364 297.398 280.41 299.976 L274.712 299.976 Q276.113 297.398 276.781 294.883 Q277.45 292.369 277.45 289.759 Q277.45 283.998 274.426 281.133 Q271.434 278.269 265.355 278.269 L262.458 278.269 Q265.609 280.083 267.169 282.916 Q268.729 285.749 268.729 289.695 Q268.729 296.252 263.731 300.262 Q258.734 304.273 250.491 304.273 Q242.215 304.273 237.218 300.262 Q232.221 296.252 232.221 289.695 Q232.221 285.749 233.781 282.916 Q235.34 280.083 238.491 278.269 L233.081 278.269 L233.081 272.412 L264.304 272.412 Z" fill="#000000" fill-rule="nonzero" fill-opacity="1" /><path clip-path="url(#clip440)" d="M238.491 216.171 L219.203 216.171 L219.203 210.315 L268.729 210.315 L268.729 216.171 L263.381 216.171 Q266.564 218.017 268.124 220.85 Q269.652 223.651 269.652 227.598 Q269.652 234.059 264.495 238.133 Q259.339 242.175 250.936 242.175 Q242.534 242.175 237.377 238.133 Q232.221 234.059 232.221 227.598 Q232.221 223.651 233.781 220.85 Q235.309 218.017 238.491 216.171 M250.936 236.128 Q257.398 236.128 261.09 233.486 Q264.75 230.813 264.75 226.166 Q264.75 221.519 261.09 218.845 Q257.398 216.171 250.936 216.171 Q244.475 216.171 240.815 218.845 Q237.123 221.519 237.123 226.166 Q237.123 230.813 240.815 233.486 Q244.475 236.128 250.936 236.128 Z" fill="#000000" fill-rule="nonzero" fill-opacity="1" /><path clip-path="url(#clip440)" d="M250.809 182.051 Q250.809 189.149 252.432 191.886 Q254.056 194.624 257.971 194.624 Q261.09 194.624 262.936 192.586 Q264.75 190.518 264.75 186.985 Q264.75 182.115 261.313 179.187 Q257.843 176.227 252.114 176.227 L250.809 176.227 L250.809 182.051 M248.39 170.37 L268.729 170.37 L268.729 176.227 L263.318 176.227 Q266.564 178.232 268.124 181.224 Q269.652 184.216 269.652 188.544 Q269.652 194.019 266.596 197.265 Q263.509 200.48 258.352 200.48 Q252.337 200.48 249.281 196.47 Q246.226 192.427 246.226 184.438 L246.226 176.227 L245.653 176.227 Q241.611 176.227 239.414 178.9 Q237.186 181.542 237.186 186.348 Q237.186 189.404 237.919 192.3 Q238.651 195.196 240.115 197.87 L234.704 197.87 Q233.463 194.655 232.858 191.632 Q232.221 188.608 232.221 185.743 Q232.221 178.009 236.232 174.19 Q240.242 170.37 248.39 170.37 Z" fill="#000000" fill-rule="nonzero" fill-opacity="1" /><path clip-path="url(#clip440)" d="M272.039 143.475 Q278.404 145.958 280.346 148.313 Q282.288 150.668 282.288 154.615 L282.288 159.294 L277.386 159.294 L277.386 155.856 Q277.386 153.437 276.24 152.101 Q275.094 150.764 270.829 149.141 L268.156 148.09 L233.081 162.509 L233.081 156.302 L260.962 145.162 L233.081 134.022 L233.081 127.815 L272.039 143.475 Z" fill="#000000" fill-rule="nonzero" fill-opacity="1" /><path clip-path="url(#clip440)" d="M234.131 97.0054 L239.669 97.0054 Q238.396 99.488 237.759 102.162 Q237.123 104.835 237.123 107.7 Q237.123 112.06 238.46 114.256 Q239.796 116.421 242.47 116.421 Q244.507 116.421 245.685 114.861 Q246.831 113.302 247.881 108.591 L248.326 106.586 Q249.663 100.347 252.114 97.7375 Q254.533 95.0957 258.894 95.0957 Q263.859 95.0957 266.755 99.0424 Q269.652 102.957 269.652 109.832 Q269.652 112.697 269.079 115.816 Q268.538 118.903 267.424 122.341 L261.376 122.341 Q263.063 119.094 263.922 115.943 Q264.75 112.792 264.75 109.705 Q264.75 105.567 263.35 103.339 Q261.917 101.111 259.339 101.111 Q256.952 101.111 255.679 102.735 Q254.406 104.326 253.228 109.769 L252.751 111.806 Q251.605 117.248 249.25 119.667 Q246.862 122.086 242.725 122.086 Q237.696 122.086 234.958 118.521 Q232.221 114.957 232.221 108.4 Q232.221 105.154 232.699 102.289 Q233.176 99.4244 234.131 97.0054 Z" fill="#000000" fill-rule="nonzero" fill-opacity="1" /><path clip-path="url(#clip440)" d="M219.267 86.693 L219.267 81.6004 Q226.779 76.8261 233.972 74.4708 Q241.165 72.0837 248.263 72.0837 Q255.392 72.0837 262.617 74.4708 Q269.843 76.8261 277.322 81.6004 L277.322 86.693 Q270.034 82.4598 262.84 80.3909 Q255.615 78.2902 248.263 78.2902 Q240.91 78.2902 233.749 80.3909 Q226.588 82.4598 219.267 86.693 Z" fill="#000000" fill-rule="nonzero" fill-opacity="1" /><path clip-path="url(#clip440)" d="M625.969 7.776 L633.053 7.776 L650.292 40.3019 L650.292 7.776 L655.396 7.776 L655.396 46.656 L648.313 46.656 L631.074 14.1301 L631.074 46.656 L625.969 46.656 L625.969 7.776 Z" fill="#000000" fill-rule="nonzero" fill-opacity="1" /><path clip-path="url(#clip440)" d="M678.912 31.9946 Q673.105 31.9946 670.865 33.3227 Q668.625 34.6509 668.625 37.854 Q668.625 40.406 670.292 41.9164 Q671.985 43.4008 674.875 43.4008 Q678.86 43.4008 681.256 40.5883 Q683.677 37.7498 683.677 33.0623 L683.677 31.9946 L678.912 31.9946 M688.469 30.0155 L688.469 46.656 L683.677 46.656 L683.677 42.2289 Q682.037 44.8852 679.589 46.1612 Q677.141 47.4112 673.599 47.4112 Q669.12 47.4112 666.464 44.9112 Q663.834 42.3852 663.834 38.1665 Q663.834 33.2446 667.115 30.7446 Q670.422 28.2446 676.959 28.2446 L683.677 28.2446 L683.677 27.7759 Q683.677 24.4686 681.49 22.6718 Q679.329 20.8488 675.396 20.8488 Q672.896 20.8488 670.526 21.4478 Q668.157 22.0468 665.969 23.2447 L665.969 18.8176 Q668.599 17.802 671.073 17.3072 Q673.547 16.7864 675.891 16.7864 Q682.219 16.7864 685.344 20.0676 Q688.469 23.3488 688.469 30.0155 Z" fill="#000000" fill-rule="nonzero" fill-opacity="1" /><path clip-path="url(#clip440)" d="M703.078 9.20828 L703.078 17.4895 L712.948 17.4895 L712.948 21.2134 L703.078 21.2134 L703.078 37.0467 Q703.078 40.6144 704.042 41.63 Q705.031 42.6456 708.026 42.6456 L712.948 42.6456 L712.948 46.656 L708.026 46.656 Q702.479 46.656 700.37 44.5987 Q698.261 42.5154 698.261 37.0467 L698.261 21.2134 L694.745 21.2134 L694.745 17.4895 L698.261 17.4895 L698.261 9.20828 L703.078 9.20828 Z" fill="#000000" fill-rule="nonzero" fill-opacity="1" /><path clip-path="url(#clip440)" d="M718.755 35.1456 L718.755 17.4895 L723.547 17.4895 L723.547 34.9634 Q723.547 39.104 725.162 41.1873 Q726.776 43.2446 730.005 43.2446 Q733.886 43.2446 736.125 40.7706 Q738.391 38.2967 738.391 34.0259 L738.391 17.4895 L743.182 17.4895 L743.182 46.656 L738.391 46.656 L738.391 42.1769 Q736.646 44.8331 734.328 46.1352 Q732.037 47.4112 728.99 47.4112 Q723.964 47.4112 721.36 44.2862 Q718.755 41.1612 718.755 35.1456 M730.813 16.7864 L730.813 16.7864 Z" fill="#000000" fill-rule="nonzero" fill-opacity="1" /><path clip-path="url(#clip440)" d="M769.953 21.9686 Q769.146 21.4999 768.182 21.2916 Q767.245 21.0572 766.099 21.0572 Q762.036 21.0572 759.849 23.7134 Q757.687 26.3436 757.687 31.2915 L757.687 46.656 L752.87 46.656 L752.87 17.4895 L757.687 17.4895 L757.687 22.0207 Q759.198 19.3645 761.62 18.0884 Q764.042 16.7864 767.505 16.7864 Q768 16.7864 768.599 16.8645 Q769.198 16.9166 769.927 17.0468 L769.953 21.9686 Z" fill="#000000" fill-rule="nonzero" fill-opacity="1" /><path clip-path="url(#clip440)" d="M788.234 31.9946 Q782.427 31.9946 780.187 33.3227 Q777.948 34.6509 777.948 37.854 Q777.948 40.406 779.614 41.9164 Q781.307 43.4008 784.198 43.4008 Q788.182 43.4008 790.578 40.5883 Q793 37.7498 793 33.0623 L793 31.9946 L788.234 31.9946 M797.791 30.0155 L797.791 46.656 L793 46.656 L793 42.2289 Q791.359 44.8852 788.911 46.1612 Q786.463 47.4112 782.922 47.4112 Q778.443 47.4112 775.786 44.9112 Q773.156 42.3852 773.156 38.1665 Q773.156 33.2446 776.437 30.7446 Q779.745 28.2446 786.281 28.2446 L793 28.2446 L793 27.7759 Q793 24.4686 790.812 22.6718 Q788.651 20.8488 784.719 20.8488 Q782.219 20.8488 779.849 21.4478 Q777.479 22.0468 775.292 23.2447 L775.292 18.8176 Q777.922 17.802 780.396 17.3072 Q782.87 16.7864 785.213 16.7864 Q791.541 16.7864 794.666 20.0676 Q797.791 23.3488 797.791 30.0155 Z" fill="#000000" fill-rule="nonzero" fill-opacity="1" /><path clip-path="url(#clip440)" d="M807.661 6.13538 L812.453 6.13538 L812.453 46.656 L807.661 46.656 L807.661 6.13538 Z" fill="#000000" fill-rule="nonzero" fill-opacity="1" /><path clip-path="url(#clip440)" d="M856.333 21.9686 Q855.525 21.4999 854.562 21.2916 Q853.624 21.0572 852.479 21.0572 Q848.416 21.0572 846.229 23.7134 Q844.067 26.3436 844.067 31.2915 L844.067 46.656 L839.25 46.656 L839.25 17.4895 L844.067 17.4895 L844.067 22.0207 Q845.578 19.3645 847.999 18.0884 Q850.421 16.7864 853.885 16.7864 Q854.38 16.7864 854.979 16.8645 Q855.578 16.9166 856.307 17.0468 L856.333 21.9686 Z" fill="#000000" fill-rule="nonzero" fill-opacity="1" /><path clip-path="url(#clip440)" d="M885.135 30.8748 L885.135 33.2186 L863.104 33.2186 Q863.416 38.1665 866.072 40.7706 Q868.755 43.3487 873.52 43.3487 Q876.281 43.3487 878.859 42.6716 Q881.463 41.9946 884.015 40.6404 L884.015 45.1716 Q881.437 46.2654 878.728 46.8383 Q876.02 47.4112 873.234 47.4112 Q866.255 47.4112 862.166 43.3487 Q858.104 39.2862 858.104 32.3592 Q858.104 25.1978 861.958 21.0051 Q865.838 16.7864 872.4 16.7864 Q878.286 16.7864 881.697 20.5884 Q885.135 24.3645 885.135 30.8748 M880.343 29.4686 Q880.291 25.5363 878.13 23.1926 Q875.994 20.8488 872.452 20.8488 Q868.442 20.8488 866.02 23.1145 Q863.624 25.3801 863.26 29.4946 L880.343 29.4686 Z" fill="#000000" fill-rule="nonzero" fill-opacity="1" /><path clip-path="url(#clip440)" d="M911.593 18.3489 L911.593 22.8801 Q909.562 21.8384 907.374 21.3176 Q905.187 20.7968 902.843 20.7968 Q899.275 20.7968 897.478 21.8905 Q895.708 22.9843 895.708 25.1717 Q895.708 26.8384 896.984 27.8019 Q898.26 28.7394 902.114 29.5988 L903.754 29.9634 Q908.859 31.0571 910.994 33.0623 Q913.155 35.0415 913.155 38.6092 Q913.155 42.6716 909.926 45.0414 Q906.723 47.4112 901.098 47.4112 Q898.754 47.4112 896.202 46.9425 Q893.676 46.4998 890.864 45.5883 L890.864 40.6404 Q893.52 42.0206 896.098 42.7237 Q898.676 43.4008 901.202 43.4008 Q904.588 43.4008 906.411 42.255 Q908.234 41.0831 908.234 38.9737 Q908.234 37.0206 906.905 35.979 Q905.603 34.9373 901.15 33.9738 L899.484 33.5832 Q895.03 32.6457 893.051 30.7186 Q891.072 28.7655 891.072 25.3801 Q891.072 21.2655 893.989 19.0259 Q896.905 16.7864 902.27 16.7864 Q904.926 16.7864 907.27 17.177 Q909.614 17.5676 911.593 18.3489 Z" fill="#000000" fill-rule="nonzero" fill-opacity="1" /><path clip-path="url(#clip440)" d="M920.786 17.4895 L925.577 17.4895 L925.577 46.656 L920.786 46.656 L920.786 17.4895 M920.786 6.13538 L925.577 6.13538 L925.577 12.2031 L920.786 12.2031 L920.786 6.13538 Z" fill="#000000" fill-rule="nonzero" fill-opacity="1" /><path clip-path="url(#clip440)" d="M954.796 21.9165 L954.796 6.13538 L959.587 6.13538 L959.587 46.656 L954.796 46.656 L954.796 42.281 Q953.285 44.8852 950.968 46.1612 Q948.676 47.4112 945.447 47.4112 Q940.16 47.4112 936.827 43.1925 Q933.52 38.9737 933.52 32.0988 Q933.52 25.2238 936.827 21.0051 Q940.16 16.7864 945.447 16.7864 Q948.676 16.7864 950.968 18.0624 Q953.285 19.3124 954.796 21.9165 M938.468 32.0988 Q938.468 37.3852 940.629 40.406 Q942.817 43.4008 946.619 43.4008 Q950.421 43.4008 952.608 40.406 Q954.796 37.3852 954.796 32.0988 Q954.796 26.8124 952.608 23.8176 Q950.421 20.7968 946.619 20.7968 Q942.817 20.7968 940.629 23.8176 Q938.468 26.8124 938.468 32.0988 Z" fill="#000000" fill-rule="nonzero" fill-opacity="1" /><path clip-path="url(#clip440)" d="M994.405 30.8748 L994.405 33.2186 L972.374 33.2186 Q972.686 38.1665 975.343 40.7706 Q978.025 43.3487 982.79 43.3487 Q985.551 43.3487 988.129 42.6716 Q990.733 41.9946 993.285 40.6404 L993.285 45.1716 Q990.707 46.2654 987.999 46.8383 Q985.29 47.4112 982.504 47.4112 Q975.525 47.4112 971.436 43.3487 Q967.374 39.2862 967.374 32.3592 Q967.374 25.1978 971.228 21.0051 Q975.108 16.7864 981.671 16.7864 Q987.556 16.7864 990.967 20.5884 Q994.405 24.3645 994.405 30.8748 M989.613 29.4686 Q989.561 25.5363 987.4 23.1926 Q985.264 20.8488 981.723 20.8488 Q977.712 20.8488 975.29 23.1145 Q972.895 25.3801 972.53 29.4946 L989.613 29.4686 Z" fill="#000000" fill-rule="nonzero" fill-opacity="1" /><path clip-path="url(#clip440)" d="M1026.51 29.0519 L1026.51 46.656 L1021.72 46.656 L1021.72 29.2082 Q1021.72 25.0676 1020.11 23.0103 Q1018.49 20.953 1015.26 20.953 Q1011.38 20.953 1009.14 23.427 Q1006.9 25.9009 1006.9 30.1717 L1006.9 46.656 L1002.09 46.656 L1002.09 17.4895 L1006.9 17.4895 L1006.9 22.0207 Q1008.62 19.3905 1010.94 18.0884 Q1013.29 16.7864 1016.33 16.7864 Q1021.36 16.7864 1023.94 19.9114 Q1026.51 23.0103 1026.51 29.0519 Z" fill="#000000" fill-rule="nonzero" fill-opacity="1" /><path clip-path="url(#clip440)" d="M1057.06 18.6093 L1057.06 23.0884 Q1055.03 21.9686 1052.97 21.4218 Q1050.94 20.8488 1048.86 20.8488 Q1044.2 20.8488 1041.62 23.8176 Q1039.04 26.7603 1039.04 32.0988 Q1039.04 37.4373 1041.62 40.406 Q1044.2 43.3487 1048.86 43.3487 Q1050.94 43.3487 1052.97 42.8019 Q1055.03 42.2289 1057.06 41.1092 L1057.06 45.5362 Q1055.06 46.4737 1052.89 46.9425 Q1050.76 47.4112 1048.34 47.4112 Q1041.75 47.4112 1037.87 43.2706 Q1033.99 39.13 1033.99 32.0988 Q1033.99 24.9634 1037.89 20.8749 Q1041.83 16.7864 1048.65 16.7864 Q1050.86 16.7864 1052.97 17.2551 Q1055.08 17.6978 1057.06 18.6093 Z" fill="#000000" fill-rule="nonzero" fill-opacity="1" /><path clip-path="url(#clip440)" d="M1090.34 30.8748 L1090.34 33.2186 L1068.31 33.2186 Q1068.62 38.1665 1071.28 40.7706 Q1073.96 43.3487 1078.73 43.3487 Q1081.49 43.3487 1084.07 42.6716 Q1086.67 41.9946 1089.22 40.6404 L1089.22 45.1716 Q1086.64 46.2654 1083.94 46.8383 Q1081.23 47.4112 1078.44 47.4112 Q1071.46 47.4112 1067.37 43.3487 Q1063.31 39.2862 1063.31 32.3592 Q1063.31 25.1978 1067.16 21.0051 Q1071.05 16.7864 1077.61 16.7864 Q1083.49 16.7864 1086.9 20.5884 Q1090.34 24.3645 1090.34 30.8748 M1085.55 29.4686 Q1085.5 25.5363 1083.34 23.1926 Q1081.2 20.8488 1077.66 20.8488 Q1073.65 20.8488 1071.23 23.1145 Q1068.83 25.3801 1068.47 29.4946 L1085.55 29.4686 Z" fill="#000000" fill-rule="nonzero" fill-opacity="1" /><path clip-path="url(#clip440)" d="M1119.9 9.20828 L1119.9 17.4895 L1129.77 17.4895 L1129.77 21.2134 L1119.9 21.2134 L1119.9 37.0467 Q1119.9 40.6144 1120.86 41.63 Q1121.85 42.6456 1124.85 42.6456 L1129.77 42.6456 L1129.77 46.656 L1124.85 46.656 Q1119.3 46.656 1117.19 44.5987 Q1115.08 42.5154 1115.08 37.0467 L1115.08 21.2134 L1111.57 21.2134 L1111.57 17.4895 L1115.08 17.4895 L1115.08 9.20828 L1119.9 9.20828 Z" fill="#000000" fill-rule="nonzero" fill-opacity="1" /><path clip-path="url(#clip440)" d="M1136.07 17.4895 L1140.86 17.4895 L1140.86 46.656 L1136.07 46.656 L1136.07 17.4895 M1136.07 6.13538 L1140.86 6.13538 L1140.86 12.2031 L1136.07 12.2031 L1136.07 6.13538 Z" fill="#000000" fill-rule="nonzero" fill-opacity="1" /><path clip-path="url(#clip440)" d="M1173.6 23.0884 Q1175.39 19.8593 1177.89 18.3228 Q1180.39 16.7864 1183.78 16.7864 Q1188.34 16.7864 1190.81 19.9895 Q1193.28 23.1665 1193.28 29.0519 L1193.28 46.656 L1188.47 46.656 L1188.47 29.2082 Q1188.47 25.0155 1186.98 22.9843 Q1185.5 20.953 1182.45 20.953 Q1178.73 20.953 1176.57 23.427 Q1174.4 25.9009 1174.4 30.1717 L1174.4 46.656 L1169.59 46.656 L1169.59 29.2082 Q1169.59 24.9894 1168.1 22.9843 Q1166.62 20.953 1163.52 20.953 Q1159.85 20.953 1157.69 23.453 Q1155.52 25.9269 1155.52 30.1717 L1155.52 46.656 L1150.71 46.656 L1150.71 17.4895 L1155.52 17.4895 L1155.52 22.0207 Q1157.16 19.3384 1159.46 18.0624 Q1161.75 16.7864 1164.9 16.7864 Q1168.08 16.7864 1170.29 18.4009 Q1172.53 20.0155 1173.6 23.0884 Z" fill="#000000" fill-rule="nonzero" fill-opacity="1" /><path clip-path="url(#clip440)" d="M1227.79 30.8748 L1227.79 33.2186 L1205.76 33.2186 Q1206.07 38.1665 1208.73 40.7706 Q1211.41 43.3487 1216.17 43.3487 Q1218.93 43.3487 1221.51 42.6716 Q1224.12 41.9946 1226.67 40.6404 L1226.67 45.1716 Q1224.09 46.2654 1221.38 46.8383 Q1218.67 47.4112 1215.89 47.4112 Q1208.91 47.4112 1204.82 43.3487 Q1200.76 39.2862 1200.76 32.3592 Q1200.76 25.1978 1204.61 21.0051 Q1208.49 16.7864 1215.05 16.7864 Q1220.94 16.7864 1224.35 20.5884 Q1227.79 24.3645 1227.79 30.8748 M1223 29.4686 Q1222.95 25.5363 1220.78 23.1926 Q1218.65 20.8488 1215.11 20.8488 Q1211.1 20.8488 1208.67 23.1145 Q1206.28 25.3801 1205.91 29.4946 L1223 29.4686 Z" fill="#000000" fill-rule="nonzero" fill-opacity="1" /><path clip-path="url(#clip440)" d="M1254.2 42.2289 L1262.79 42.2289 L1262.79 12.5676 L1253.44 14.4426 L1253.44 9.65099 L1262.74 7.776 L1268 7.776 L1268 42.2289 L1276.59 42.2289 L1276.59 46.656 L1254.2 46.656 L1254.2 42.2289 Z" fill="#000000" fill-rule="nonzero" fill-opacity="1" /><path clip-path="url(#clip440)" d="M1295.05 7.776 L1299.48 7.776 L1285.94 51.6039 L1281.51 51.6039 L1295.05 7.776 Z" fill="#000000" fill-rule="nonzero" fill-opacity="1" /><path clip-path="url(#clip440)" d="M1316.02 6.18747 Q1312.53 12.177 1310.84 18.0364 Q1309.14 23.8957 1309.14 29.9113 Q1309.14 35.9269 1310.84 41.8383 Q1312.55 47.7237 1316.02 53.6872 L1311.85 53.6872 Q1307.94 47.5675 1305.99 41.656 Q1304.06 35.7446 1304.06 29.9113 Q1304.06 24.104 1305.99 18.2187 Q1307.92 12.3333 1311.85 6.18747 L1316.02 6.18747 Z" fill="#000000" fill-rule="nonzero" fill-opacity="1" /><path clip-path="url(#clip440)" d="M1326.9 42.2289 L1335.5 42.2289 L1335.5 12.5676 L1326.15 14.4426 L1326.15 9.65099 L1335.44 7.776 L1340.71 7.776 L1340.71 42.2289 L1349.3 42.2289 L1349.3 46.656 L1326.9 46.656 L1326.9 42.2289 Z" fill="#000000" fill-rule="nonzero" fill-opacity="1" /><path clip-path="url(#clip440)" d="M1373.78 29.9113 L1387.81 29.9113 L1387.81 34.1821 L1373.78 34.1821 L1373.78 29.9113 Z" fill="#000000" fill-rule="nonzero" fill-opacity="1" /><path clip-path="url(#clip440)" d="M1407.22 7.776 L1440.11 7.776 L1440.11 12.2031 L1426.3 12.2031 L1426.3 46.656 L1421.02 46.656 L1421.02 12.2031 L1407.22 12.2031 L1407.22 7.776 Z" fill="#000000" fill-rule="nonzero" fill-opacity="1" /><path clip-path="url(#clip440)" d="M1467.14 55.5101 L1467.14 59.2341 L1439.43 59.2341 L1439.43 55.5101 L1467.14 55.5101 Z" fill="#000000" fill-rule="nonzero" fill-opacity="1" /><path clip-path="url(#clip440)" d="M1471.64 17.4895 L1476.43 17.4895 L1476.43 46.656 L1471.64 46.656 L1471.64 17.4895 M1471.64 6.13538 L1476.43 6.13538 L1476.43 12.2031 L1471.64 12.2031 L1471.64 6.13538 Z" fill="#000000" fill-rule="nonzero" fill-opacity="1" /><path clip-path="url(#clip440)" d="M1486.46 17.4895 L1491.25 17.4895 L1491.25 46.656 L1486.46 46.656 L1486.46 17.4895 M1486.46 6.13538 L1491.25 6.13538 L1491.25 12.2031 L1486.46 12.2031 L1486.46 6.13538 Z" fill="#000000" fill-rule="nonzero" fill-opacity="1" /><path clip-path="url(#clip440)" d="M1500.52 6.18747 L1504.69 6.18747 Q1508.59 12.3333 1510.52 18.2187 Q1512.48 24.104 1512.48 29.9113 Q1512.48 35.7446 1510.52 41.656 Q1508.59 47.5675 1504.69 53.6872 L1500.52 53.6872 Q1503.99 47.7237 1505.68 41.8383 Q1507.4 35.9269 1507.4 29.9113 Q1507.4 23.8957 1505.68 18.0364 Q1503.99 12.177 1500.52 6.18747 Z" fill="#000000" fill-rule="nonzero" fill-opacity="1" /><path clip-path="url(#clip440)" d="M1545.21 5.90101 L1545.21 59.2341 L1540.78 59.2341 L1540.78 5.90101 L1545.21 5.90101 Z" fill="#000000" fill-rule="nonzero" fill-opacity="1" /><path clip-path="url(#clip440)" d="M1597.47 9.05203 L1597.47 14.1822 Q1594.48 12.7499 1591.82 12.0468 Q1589.17 11.3437 1586.69 11.3437 Q1582.4 11.3437 1580.05 13.0103 Q1577.74 14.677 1577.74 17.7499 Q1577.74 20.328 1579.27 21.6561 Q1580.83 22.9582 1585.16 23.7655 L1588.33 24.4165 Q1594.22 25.5363 1597.01 28.3748 Q1599.82 31.1873 1599.82 35.9269 Q1599.82 41.5779 1596.02 44.4946 Q1592.24 47.4112 1584.92 47.4112 Q1582.16 47.4112 1579.04 46.7862 Q1575.94 46.1612 1572.6 44.9373 L1572.6 39.5206 Q1575.81 41.3175 1578.88 42.2289 Q1581.95 43.1404 1584.92 43.1404 Q1589.43 43.1404 1591.88 41.3696 Q1594.32 39.5987 1594.32 36.3175 Q1594.32 33.4529 1592.55 31.8384 Q1590.81 30.2238 1586.8 29.4165 L1583.59 28.7915 Q1577.71 27.6196 1575.08 25.1197 Q1572.45 22.6197 1572.45 18.1666 Q1572.45 13.0103 1576.07 10.0416 Q1579.71 7.07288 1586.09 7.07288 Q1588.83 7.07288 1591.67 7.56767 Q1594.51 8.06246 1597.47 9.05203 Z" fill="#000000" fill-rule="nonzero" fill-opacity="1" /><path clip-path="url(#clip440)" d="M1613.28 12.0989 L1613.28 26.7082 L1619.9 26.7082 Q1623.57 26.7082 1625.57 24.8072 Q1627.58 22.9061 1627.58 19.3905 Q1627.58 15.901 1625.57 13.9999 Q1623.57 12.0989 1619.9 12.0989 L1613.28 12.0989 M1608.02 7.776 L1619.9 7.776 Q1626.43 7.776 1629.77 10.7447 Q1633.13 13.6874 1633.13 19.3905 Q1633.13 25.1457 1629.77 28.0884 Q1626.43 31.0311 1619.9 31.0311 L1613.28 31.0311 L1613.28 46.656 L1608.02 46.656 L1608.02 7.776 Z" fill="#000000" fill-rule="nonzero" fill-opacity="1" /><path clip-path="url(#clip440)" d="M1633.67 7.776 L1639.32 7.776 L1650.1 23.7655 L1660.81 7.776 L1666.46 7.776 L1652.71 28.1405 L1652.71 46.656 L1647.42 46.656 L1647.42 28.1405 L1633.67 7.776 Z" fill="#000000" fill-rule="nonzero" fill-opacity="1" /><path clip-path="url(#clip440)" d="M1694.51 5.90101 L1694.51 59.2341 L1690.08 59.2341 L1690.08 5.90101 L1694.51 5.90101 Z" fill="#000000" fill-rule="nonzero" fill-opacity="1" /><path clip-path="url(#clip440)" d="M1752.58 10.7708 L1752.58 16.3176 Q1749.92 13.8437 1746.9 12.6197 Q1743.91 11.3958 1740.52 11.3958 Q1733.85 11.3958 1730.31 15.4843 Q1726.77 19.5468 1726.77 27.2551 Q1726.77 34.9373 1730.31 39.0258 Q1733.85 43.0883 1740.52 43.0883 Q1743.91 43.0883 1746.9 41.8644 Q1749.92 40.6404 1752.58 38.1665 L1752.58 43.6612 Q1749.82 45.5362 1746.72 46.4737 Q1743.65 47.4112 1740.21 47.4112 Q1731.38 47.4112 1726.3 42.0206 Q1721.22 36.604 1721.22 27.2551 Q1721.22 17.8801 1726.3 12.4895 Q1731.38 7.07288 1740.21 7.07288 Q1743.7 7.07288 1746.77 8.01037 Q1749.87 8.92183 1752.58 10.7708 Z" fill="#000000" fill-rule="nonzero" fill-opacity="1" /><path clip-path="url(#clip440)" d="M1760.7 7.776 L1765.96 7.776 L1765.96 23.7134 L1785.08 23.7134 L1785.08 7.776 L1790.34 7.776 L1790.34 46.656 L1785.08 46.656 L1785.08 28.1405 L1765.96 28.1405 L1765.96 46.656 L1760.7 46.656 L1760.7 7.776 Z" fill="#000000" fill-rule="nonzero" fill-opacity="1" /><path clip-path="url(#clip440)" d="M1800.81 7.776 L1808.65 7.776 L1818.57 34.2342 L1828.54 7.776 L1836.38 7.776 L1836.38 46.656 L1831.25 46.656 L1831.25 12.5156 L1821.22 39.1821 L1815.94 39.1821 L1805.91 12.5156 L1805.91 46.656 L1800.81 46.656 L1800.81 7.776 Z" fill="#000000" fill-rule="nonzero" fill-opacity="1" /><path clip-path="url(#clip440)" d="M1846.82 7.776 L1854.66 7.776 L1864.58 34.2342 L1874.56 7.776 L1882.39 7.776 L1882.39 46.656 L1877.26 46.656 L1877.26 12.5156 L1867.24 39.1821 L1861.95 39.1821 L1851.93 12.5156 L1851.93 46.656 L1846.82 46.656 L1846.82 7.776 Z" fill="#000000" fill-rule="nonzero" fill-opacity="1" /><path clip-path="url(#clip440)" d="M1890.21 29.9113 L1904.24 29.9113 L1904.24 34.1821 L1890.21 34.1821 L1890.21 29.9113 Z" fill="#000000" fill-rule="nonzero" fill-opacity="1" /><path clip-path="url(#clip440)" d="M1912.08 7.776 L1919.17 7.776 L1936.41 40.3019 L1936.41 7.776 L1941.51 7.776 L1941.51 46.656 L1934.43 46.656 L1917.19 14.1301 L1917.19 46.656 L1912.08 46.656 L1912.08 7.776 Z" fill="#000000" fill-rule="nonzero" fill-opacity="1" /><path clip-path="url(#clip440)" d="M1952.99 40.0415 L1958.49 40.0415 L1958.49 44.5206 L1954.22 52.8539 L1950.86 52.8539 L1952.99 44.5206 L1952.99 40.0415 Z" fill="#000000" fill-rule="nonzero" fill-opacity="1" /><path clip-path="url(#clip440)" d="M1985.88 7.776 L1991.14 7.776 L1991.14 24.2082 L2008.59 7.776 L2015.36 7.776 L1996.07 25.9009 L2016.74 46.656 L2009.82 46.656 L1991.14 27.9321 L1991.14 46.656 L1985.88 46.656 L1985.88 7.776 Z" fill="#000000" fill-rule="nonzero" fill-opacity="1" /><path clip-path="url(#clip440)" d="M2021.27 22.4374 L2054.66 22.4374 L2054.66 26.8124 L2021.27 26.8124 L2021.27 22.4374 M2021.27 33.0623 L2054.66 33.0623 L2054.66 37.4894 L2021.27 37.4894 L2021.27 33.0623 Z" fill="#000000" fill-rule="nonzero" fill-opacity="1" /><path clip-path="url(#clip440)" d="M2066.93 42.2289 L2075.52 42.2289 L2075.52 12.5676 L2066.17 14.4426 L2066.17 9.65099 L2075.47 7.776 L2080.73 7.776 L2080.73 42.2289 L2089.32 42.2289 L2089.32 46.656 L2066.93 46.656 L2066.93 42.2289 Z" fill="#000000" fill-rule="nonzero" fill-opacity="1" /><path clip-path="url(#clip440)" d="M2111.2 28.1926 Q2107.45 28.1926 2105.28 30.1978 Q2103.15 32.203 2103.15 35.7186 Q2103.15 39.2342 2105.28 41.2394 Q2107.45 43.2446 2111.2 43.2446 Q2114.95 43.2446 2117.11 41.2394 Q2119.27 39.2081 2119.27 35.7186 Q2119.27 32.203 2117.11 30.1978 Q2114.97 28.1926 2111.2 28.1926 M2105.94 25.953 Q2102.55 25.1197 2100.65 22.802 Q2098.77 20.4843 2098.77 17.1509 Q2098.77 12.4895 2102.08 9.7812 Q2105.41 7.07288 2111.2 7.07288 Q2117 7.07288 2120.31 9.7812 Q2123.62 12.4895 2123.62 17.1509 Q2123.62 20.4843 2121.72 22.802 Q2119.84 25.1197 2116.48 25.953 Q2120.28 26.8384 2122.39 29.4165 Q2124.53 31.9946 2124.53 35.7186 Q2124.53 41.3696 2121.07 44.3904 Q2117.63 47.4112 2111.2 47.4112 Q2104.76 47.4112 2101.3 44.3904 Q2097.86 41.3696 2097.86 35.7186 Q2097.86 31.9946 2100 29.4165 Q2102.13 26.8384 2105.94 25.953 M2104.01 17.6457 Q2104.01 20.6666 2105.88 22.3593 Q2107.78 24.052 2111.2 24.052 Q2114.58 24.052 2116.48 22.3593 Q2118.41 20.6666 2118.41 17.6457 Q2118.41 14.6249 2116.48 12.9322 Q2114.58 11.2395 2111.2 11.2395 Q2107.78 11.2395 2105.88 12.9322 Q2104.01 14.6249 2104.01 17.6457 Z" fill="#000000" fill-rule="nonzero" fill-opacity="1" /><path clip-path="url(#clip442)" d="M575.35 245.683 L575.35 1241.31 L647.251 1241.31 L647.251 245.683 L575.35 245.683 L575.35 245.683  Z" fill="#4682b4" fill-rule="evenodd" fill-opacity="0.7"/>
<polyline clip-path="url(#clip442)" style="stroke:#000000; stroke-linecap:round; stroke-linejoin:round; stroke-width:4; stroke-opacity:0.7; fill:none" points="575.35,245.683 575.35,1241.31 647.251,1241.31 647.251,245.683 575.35,245.683 "/>
<path clip-path="url(#clip442)" d="M665.227 1141.74 L665.227 1241.31 L737.128 1241.31 L737.128 1141.74 L665.227 1141.74 L665.227 1141.74  Z" fill="#4682b4" fill-rule="evenodd" fill-opacity="0.7"/>
<polyline clip-path="url(#clip442)" style="stroke:#000000; stroke-linecap:round; stroke-linejoin:round; stroke-width:4; stroke-opacity:0.7; fill:none" points="665.227,1141.74 665.227,1241.31 737.128,1241.31 737.128,1141.74 665.227,1141.74 "/>
<path clip-path="url(#clip442)" d="M755.103 1142.58 L755.103 1241.31 L827.004 1241.31 L827.004 1142.58 L755.103 1142.58 L755.103 1142.58  Z" fill="#4682b4" fill-rule="evenodd" fill-opacity="0.7"/>
<polyline clip-path="url(#clip442)" style="stroke:#000000; stroke-linecap:round; stroke-linejoin:round; stroke-width:4; stroke-opacity:0.7; fill:none" points="755.103,1142.58 755.103,1241.31 827.004,1241.31 827.004,1142.58 755.103,1142.58 "/>
<path clip-path="url(#clip442)" d="M844.979 1149.95 L844.979 1241.31 L916.88 1241.31 L916.88 1149.95 L844.979 1149.95 L844.979 1149.95  Z" fill="#4682b4" fill-rule="evenodd" fill-opacity="0.7"/>
<polyline clip-path="url(#clip442)" style="stroke:#000000; stroke-linecap:round; stroke-linejoin:round; stroke-width:4; stroke-opacity:0.7; fill:none" points="844.979,1149.95 844.979,1241.31 916.88,1241.31 916.88,1149.95 844.979,1149.95 "/>
<path clip-path="url(#clip442)" d="M934.855 1131.39 L934.855 1241.31 L1006.76 1241.31 L1006.76 1131.39 L934.855 1131.39 L934.855 1131.39  Z" fill="#4682b4" fill-rule="evenodd" fill-opacity="0.7"/>
<polyline clip-path="url(#clip442)" style="stroke:#000000; stroke-linecap:round; stroke-linejoin:round; stroke-width:4; stroke-opacity:0.7; fill:none" points="934.855,1131.39 934.855,1241.31 1006.76,1241.31 1006.76,1131.39 934.855,1131.39 "/>
<path clip-path="url(#clip442)" d="M1024.73 1133.54 L1024.73 1241.31 L1096.63 1241.31 L1096.63 1133.54 L1024.73 1133.54 L1024.73 1133.54  Z" fill="#4682b4" fill-rule="evenodd" fill-opacity="0.7"/>
<polyline clip-path="url(#clip442)" style="stroke:#000000; stroke-linecap:round; stroke-linejoin:round; stroke-width:4; stroke-opacity:0.7; fill:none" points="1024.73,1133.54 1024.73,1241.31 1096.63,1241.31 1096.63,1133.54 1024.73,1133.54 "/>
<path clip-path="url(#clip442)" d="M1114.61 1134.48 L1114.61 1241.31 L1186.51 1241.31 L1186.51 1134.48 L1114.61 1134.48 L1114.61 1134.48  Z" fill="#4682b4" fill-rule="evenodd" fill-opacity="0.7"/>
<polyline clip-path="url(#clip442)" style="stroke:#000000; stroke-linecap:round; stroke-linejoin:round; stroke-width:4; stroke-opacity:0.7; fill:none" points="1114.61,1134.48 1114.61,1241.31 1186.51,1241.31 1186.51,1134.48 1114.61,1134.48 "/>
<path clip-path="url(#clip442)" d="M1204.48 1140.37 L1204.48 1241.31 L1276.39 1241.31 L1276.39 1140.37 L1204.48 1140.37 L1204.48 1140.37  Z" fill="#4682b4" fill-rule="evenodd" fill-opacity="0.7"/>
<polyline clip-path="url(#clip442)" style="stroke:#000000; stroke-linecap:round; stroke-linejoin:round; stroke-width:4; stroke-opacity:0.7; fill:none" points="1204.48,1140.37 1204.48,1241.31 1276.39,1241.31 1276.39,1140.37 1204.48,1140.37 "/>
<path clip-path="url(#clip442)" d="M1294.36 1130.4 L1294.36 1241.31 L1366.26 1241.31 L1366.26 1130.4 L1294.36 1130.4 L1294.36 1130.4  Z" fill="#4682b4" fill-rule="evenodd" fill-opacity="0.7"/>
<polyline clip-path="url(#clip442)" style="stroke:#000000; stroke-linecap:round; stroke-linejoin:round; stroke-width:4; stroke-opacity:0.7; fill:none" points="1294.36,1130.4 1294.36,1241.31 1366.26,1241.31 1366.26,1130.4 1294.36,1130.4 "/>
<path clip-path="url(#clip442)" d="M1384.24 1124.29 L1384.24 1241.31 L1456.14 1241.31 L1456.14 1124.29 L1384.24 1124.29 L1384.24 1124.29  Z" fill="#4682b4" fill-rule="evenodd" fill-opacity="0.7"/>
<polyline clip-path="url(#clip442)" style="stroke:#000000; stroke-linecap:round; stroke-linejoin:round; stroke-width:4; stroke-opacity:0.7; fill:none" points="1384.24,1124.29 1384.24,1241.31 1456.14,1241.31 1456.14,1124.29 1384.24,1124.29 "/>
<path clip-path="url(#clip442)" d="M1474.11 1149.93 L1474.11 1241.31 L1546.01 1241.31 L1546.01 1149.93 L1474.11 1149.93 L1474.11 1149.93  Z" fill="#4682b4" fill-rule="evenodd" fill-opacity="0.7"/>
<polyline clip-path="url(#clip442)" style="stroke:#000000; stroke-linecap:round; stroke-linejoin:round; stroke-width:4; stroke-opacity:0.7; fill:none" points="1474.11,1149.93 1474.11,1241.31 1546.01,1241.31 1546.01,1149.93 1474.11,1149.93 "/>
<path clip-path="url(#clip442)" d="M1563.99 1134.85 L1563.99 1241.31 L1635.89 1241.31 L1635.89 1134.85 L1563.99 1134.85 L1563.99 1134.85  Z" fill="#4682b4" fill-rule="evenodd" fill-opacity="0.7"/>
<polyline clip-path="url(#clip442)" style="stroke:#000000; stroke-linecap:round; stroke-linejoin:round; stroke-width:4; stroke-opacity:0.7; fill:none" points="1563.99,1134.85 1563.99,1241.31 1635.89,1241.31 1635.89,1134.85 1563.99,1134.85 "/>
<path clip-path="url(#clip442)" d="M1653.87 1146.68 L1653.87 1241.31 L1725.77 1241.31 L1725.77 1146.68 L1653.87 1146.68 L1653.87 1146.68  Z" fill="#4682b4" fill-rule="evenodd" fill-opacity="0.7"/>
<polyline clip-path="url(#clip442)" style="stroke:#000000; stroke-linecap:round; stroke-linejoin:round; stroke-width:4; stroke-opacity:0.7; fill:none" points="1653.87,1146.68 1653.87,1241.31 1725.77,1241.31 1725.77,1146.68 1653.87,1146.68 "/>
<path clip-path="url(#clip442)" d="M1743.74 1139.03 L1743.74 1241.31 L1815.64 1241.31 L1815.64 1139.03 L1743.74 1139.03 L1743.74 1139.03  Z" fill="#4682b4" fill-rule="evenodd" fill-opacity="0.7"/>
<polyline clip-path="url(#clip442)" style="stroke:#000000; stroke-linecap:round; stroke-linejoin:round; stroke-width:4; stroke-opacity:0.7; fill:none" points="1743.74,1139.03 1743.74,1241.31 1815.64,1241.31 1815.64,1139.03 1743.74,1139.03 "/>
<path clip-path="url(#clip442)" d="M1833.62 1140.85 L1833.62 1241.31 L1905.52 1241.31 L1905.52 1140.85 L1833.62 1140.85 L1833.62 1140.85  Z" fill="#4682b4" fill-rule="evenodd" fill-opacity="0.7"/>
<polyline clip-path="url(#clip442)" style="stroke:#000000; stroke-linecap:round; stroke-linejoin:round; stroke-width:4; stroke-opacity:0.7; fill:none" points="1833.62,1140.85 1833.62,1241.31 1905.52,1241.31 1905.52,1140.85 1833.62,1140.85 "/>
<path clip-path="url(#clip442)" d="M1923.49 1145.05 L1923.49 1241.31 L1995.4 1241.31 L1995.4 1145.05 L1923.49 1145.05 L1923.49 1145.05  Z" fill="#4682b4" fill-rule="evenodd" fill-opacity="0.7"/>
<polyline clip-path="url(#clip442)" style="stroke:#000000; stroke-linecap:round; stroke-linejoin:round; stroke-width:4; stroke-opacity:0.7; fill:none" points="1923.49,1145.05 1923.49,1241.31 1995.4,1241.31 1995.4,1145.05 1923.49,1145.05 "/>
<path clip-path="url(#clip442)" d="M2013.37 1149.69 L2013.37 1241.31 L2085.27 1241.31 L2085.27 1149.69 L2013.37 1149.69 L2013.37 1149.69  Z" fill="#4682b4" fill-rule="evenodd" fill-opacity="0.7"/>
<polyline clip-path="url(#clip442)" style="stroke:#000000; stroke-linecap:round; stroke-linejoin:round; stroke-width:4; stroke-opacity:0.7; fill:none" points="2013.37,1149.69 2013.37,1241.31 2085.27,1241.31 2085.27,1149.69 2013.37,1149.69 "/>
<path clip-path="url(#clip442)" d="M2103.25 180.612 L2103.25 1241.31 L2175.15 1241.31 L2175.15 180.612 L2103.25 180.612 L2103.25 180.612  Z" fill="#4682b4" fill-rule="evenodd" fill-opacity="0.7"/>
<polyline clip-path="url(#clip442)" style="stroke:#000000; stroke-linecap:round; stroke-linejoin:round; stroke-width:4; stroke-opacity:0.7; fill:none" points="2103.25,180.612 2103.25,1241.31 2175.15,1241.31 2175.15,180.612 2103.25,180.612 "/>
<circle clip-path="url(#clip442)" style="fill:#4682b4; stroke:none; fill-opacity:0" cx="611.301" cy="245.683" r="2"/>
<circle clip-path="url(#clip442)" style="fill:#4682b4; stroke:none; fill-opacity:0" cx="701.177" cy="1141.74" r="2"/>
<circle clip-path="url(#clip442)" style="fill:#4682b4; stroke:none; fill-opacity:0" cx="791.053" cy="1142.58" r="2"/>
<circle clip-path="url(#clip442)" style="fill:#4682b4; stroke:none; fill-opacity:0" cx="880.93" cy="1149.95" r="2"/>
<circle clip-path="url(#clip442)" style="fill:#4682b4; stroke:none; fill-opacity:0" cx="970.806" cy="1131.39" r="2"/>
<circle clip-path="url(#clip442)" style="fill:#4682b4; stroke:none; fill-opacity:0" cx="1060.68" cy="1133.54" r="2"/>
<circle clip-path="url(#clip442)" style="fill:#4682b4; stroke:none; fill-opacity:0" cx="1150.56" cy="1134.48" r="2"/>
<circle clip-path="url(#clip442)" style="fill:#4682b4; stroke:none; fill-opacity:0" cx="1240.43" cy="1140.37" r="2"/>
<circle clip-path="url(#clip442)" style="fill:#4682b4; stroke:none; fill-opacity:0" cx="1330.31" cy="1130.4" r="2"/>
<circle clip-path="url(#clip442)" style="fill:#4682b4; stroke:none; fill-opacity:0" cx="1420.19" cy="1124.29" r="2"/>
<circle clip-path="url(#clip442)" style="fill:#4682b4; stroke:none; fill-opacity:0" cx="1510.06" cy="1149.93" r="2"/>
<circle clip-path="url(#clip442)" style="fill:#4682b4; stroke:none; fill-opacity:0" cx="1599.94" cy="1134.85" r="2"/>
<circle clip-path="url(#clip442)" style="fill:#4682b4; stroke:none; fill-opacity:0" cx="1689.82" cy="1146.68" r="2"/>
<circle clip-path="url(#clip442)" style="fill:#4682b4; stroke:none; fill-opacity:0" cx="1779.69" cy="1139.03" r="2"/>
<circle clip-path="url(#clip442)" style="fill:#4682b4; stroke:none; fill-opacity:0" cx="1869.57" cy="1140.85" r="2"/>
<circle clip-path="url(#clip442)" style="fill:#4682b4; stroke:none; fill-opacity:0" cx="1959.45" cy="1145.05" r="2"/>
<circle clip-path="url(#clip442)" style="fill:#4682b4; stroke:none; fill-opacity:0" cx="2049.32" cy="1149.69" r="2"/>
<circle clip-path="url(#clip442)" style="fill:#4682b4; stroke:none; fill-opacity:0" cx="2139.2" cy="180.612" r="2"/>
</svg>
