<?xml version="1.0" encoding="utf-8"?>
<svg xmlns="http://www.w3.org/2000/svg" xmlns:xlink="http://www.w3.org/1999/xlink" width="600" height="400" viewBox="0 0 2400 1600">
<defs>
  <clipPath id="clip550">
    <rect x="0" y="0" width="2400" height="1600"/>
  </clipPath>
</defs>
<path clip-path="url(#clip550)" d="M0 1600 L2400 1600 L2400 8.88178e-14 L0 8.88178e-14  Z" fill="#ffffff" fill-rule="evenodd" fill-opacity="1"/>
<defs>
  <clipPath id="clip551">
    <rect x="461" y="125" width="1814" height="1116"/>
  </clipPath>
</defs>
<path clip-path="url(#clip550)" d="M457.646 1241.31 L2274.02 1241.31 L2274.02 125.984 L457.646 125.984  Z" fill="#ffffff" fill-rule="evenodd" fill-opacity="1"/>
<defs>
  <clipPath id="clip552">
    <rect x="457" y="125" width="1817" height="1116"/>
  </clipPath>
</defs>
<polyline clip-path="url(#clip552)" style="stroke:#000000; stroke-linecap:round; stroke-linejoin:round; stroke-width:2; stroke-opacity:0.1; fill:none" points="557.55,1241.31 557.55,125.984 "/>
<polyline clip-path="url(#clip552)" style="stroke:#000000; stroke-linecap:round; stroke-linejoin:round; stroke-width:2; stroke-opacity:0.1; fill:none" points="903.956,1241.31 903.956,125.984 "/>
<polyline clip-path="url(#clip552)" style="stroke:#000000; stroke-linecap:round; stroke-linejoin:round; stroke-width:2; stroke-opacity:0.1; fill:none" points="1250.36,1241.31 1250.36,125.984 "/>
<polyline clip-path="url(#clip552)" style="stroke:#000000; stroke-linecap:round; stroke-linejoin:round; stroke-width:2; stroke-opacity:0.1; fill:none" points="1596.77,1241.31 1596.77,125.984 "/>
<polyline clip-path="url(#clip552)" style="stroke:#000000; stroke-linecap:round; stroke-linejoin:round; stroke-width:2; stroke-opacity:0.1; fill:none" points="1943.17,1241.31 1943.17,125.984 "/>
<polyline clip-path="url(#clip552)" style="stroke:#000000; stroke-linecap:round; stroke-linejoin:round; stroke-width:2; stroke-opacity:0.1; fill:none" points="457.646,1241.31 2274.02,1241.31 "/>
<polyline clip-path="url(#clip552)" style="stroke:#000000; stroke-linecap:round; stroke-linejoin:round; stroke-width:2; stroke-opacity:0.1; fill:none" points="457.646,1018.25 2274.02,1018.25 "/>
<polyline clip-path="url(#clip552)" style="stroke:#000000; stroke-linecap:round; stroke-linejoin:round; stroke-width:2; stroke-opacity:0.1; fill:none" points="457.646,795.181 2274.02,795.181 "/>
<polyline clip-path="url(#clip552)" style="stroke:#000000; stroke-linecap:round; stroke-linejoin:round; stroke-width:2; stroke-opacity:0.1; fill:none" points="457.646,572.115 2274.02,572.115 "/>
<polyline clip-path="url(#clip552)" style="stroke:#000000; stroke-linecap:round; stroke-linejoin:round; stroke-width:2; stroke-opacity:0.1; fill:none" points="457.646,349.05 2274.02,349.05 "/>
<polyline clip-path="url(#clip552)" style="stroke:#000000; stroke-linecap:round; stroke-linejoin:round; stroke-width:2; stroke-opacity:0.1; fill:none" points="457.646,125.984 2274.02,125.984 "/>
<polyline clip-path="url(#clip550)" style="stroke:#000000; stroke-linecap:round; stroke-linejoin:round; stroke-width:4; stroke-opacity:1; fill:none" points="457.646,1241.31 2274.02,1241.31 "/>
<polyline clip-path="url(#clip550)" style="stroke:#000000; stroke-linecap:round; stroke-linejoin:round; stroke-width:4; stroke-opacity:1; fill:none" points="557.55,1241.31 557.55,1222.41 "/>
<polyline clip-path="url(#clip550)" style="stroke:#000000; stroke-linecap:round; stroke-linejoin:round; stroke-width:4; stroke-opacity:1; fill:none" points="903.956,1241.31 903.956,1222.41 "/>
<polyline clip-path="url(#clip550)" style="stroke:#000000; stroke-linecap:round; stroke-linejoin:round; stroke-width:4; stroke-opacity:1; fill:none" points="1250.36,1241.31 1250.36,1222.41 "/>
<polyline clip-path="url(#clip550)" style="stroke:#000000; stroke-linecap:round; stroke-linejoin:round; stroke-width:4; stroke-opacity:1; fill:none" points="1596.77,1241.31 1596.77,1222.41 "/>
<polyline clip-path="url(#clip550)" style="stroke:#000000; stroke-linecap:round; stroke-linejoin:round; stroke-width:4; stroke-opacity:1; fill:none" points="1943.17,1241.31 1943.17,1222.41 "/>
<path clip-path="url(#clip550)" d="M557.55 1275.16 Q553.036 1275.16 550.75 1279.62 Q548.493 1284.04 548.493 1292.95 Q548.493 1301.84 550.75 1306.29 Q553.036 1310.72 557.55 1310.72 Q562.092 1310.72 564.349 1306.29 Q566.635 1301.84 566.635 1292.95 Q566.635 1284.04 564.349 1279.62 Q562.092 1275.16 557.55 1275.16 M557.55 1270.53 Q564.812 1270.53 568.632 1276.29 Q572.48 1282.02 572.48 1292.95 Q572.48 1303.86 568.632 1309.62 Q564.812 1315.35 557.55 1315.35 Q550.287 1315.35 546.439 1309.62 Q542.619 1303.86 542.619 1292.95 Q542.619 1282.02 546.439 1276.29 Q550.287 1270.53 557.55 1270.53 Z" fill="#000000" fill-rule="nonzero" fill-opacity="1" /><path clip-path="url(#clip550)" d="M871.158 1291.22 Q875.354 1292.12 877.697 1294.95 Q880.07 1297.79 880.07 1301.95 Q880.07 1308.35 875.672 1311.85 Q871.274 1315.35 863.172 1315.35 Q860.452 1315.35 857.559 1314.8 Q854.694 1314.28 851.627 1313.21 L851.627 1307.57 Q854.057 1308.98 856.951 1309.71 Q859.844 1310.43 862.998 1310.43 Q868.496 1310.43 871.361 1308.26 Q874.254 1306.09 874.254 1301.95 Q874.254 1298.13 871.563 1295.99 Q868.901 1293.82 864.127 1293.82 L859.092 1293.82 L859.092 1289.02 L864.358 1289.02 Q868.67 1289.02 870.955 1287.31 Q873.241 1285.58 873.241 1282.34 Q873.241 1279.01 870.869 1277.24 Q868.525 1275.45 864.127 1275.45 Q861.725 1275.45 858.976 1275.97 Q856.228 1276.49 852.929 1277.59 L852.929 1272.38 Q856.256 1271.46 859.15 1270.99 Q862.072 1270.53 864.648 1270.53 Q871.303 1270.53 875.18 1273.57 Q879.057 1276.58 879.057 1281.73 Q879.057 1285.32 877.003 1287.8 Q874.949 1290.26 871.158 1291.22 Z" fill="#000000" fill-rule="nonzero" fill-opacity="1" /><path clip-path="url(#clip550)" d="M903.652 1275.16 Q899.138 1275.16 896.852 1279.62 Q894.595 1284.04 894.595 1292.95 Q894.595 1301.84 896.852 1306.29 Q899.138 1310.72 903.652 1310.72 Q908.195 1310.72 910.452 1306.29 Q912.738 1301.84 912.738 1292.95 Q912.738 1284.04 910.452 1279.62 Q908.195 1275.16 903.652 1275.16 M903.652 1270.53 Q910.915 1270.53 914.734 1276.29 Q918.583 1282.02 918.583 1292.95 Q918.583 1303.86 914.734 1309.62 Q910.915 1315.35 903.652 1315.35 Q896.389 1315.35 892.541 1309.62 Q888.722 1303.86 888.722 1292.95 Q888.722 1282.02 892.541 1276.29 Q896.389 1270.53 903.652 1270.53 Z" fill="#000000" fill-rule="nonzero" fill-opacity="1" /><path clip-path="url(#clip550)" d="M941.354 1275.16 Q936.841 1275.16 934.555 1279.62 Q932.298 1284.04 932.298 1292.95 Q932.298 1301.84 934.555 1306.29 Q936.841 1310.72 941.354 1310.72 Q945.897 1310.72 948.154 1306.29 Q950.44 1301.84 950.44 1292.95 Q950.44 1284.04 948.154 1279.62 Q945.897 1275.16 941.354 1275.16 M941.354 1270.53 Q948.617 1270.53 952.437 1276.29 Q956.285 1282.02 956.285 1292.95 Q956.285 1303.86 952.437 1309.62 Q948.617 1315.35 941.354 1315.35 Q934.092 1315.35 930.243 1309.62 Q926.424 1303.86 926.424 1292.95 Q926.424 1282.02 930.243 1276.29 Q934.092 1270.53 941.354 1270.53 Z" fill="#000000" fill-rule="nonzero" fill-opacity="1" /><path clip-path="url(#clip550)" d="M1213.27 1290.58 Q1209.33 1290.58 1207.02 1293.27 Q1204.73 1295.96 1204.73 1300.65 Q1204.73 1305.31 1207.02 1308.03 Q1209.33 1310.72 1213.27 1310.72 Q1217.2 1310.72 1219.49 1308.03 Q1221.8 1305.31 1221.8 1300.65 Q1221.8 1295.96 1219.49 1293.27 Q1217.2 1290.58 1213.27 1290.58 M1224.87 1272.27 L1224.87 1277.59 Q1222.67 1276.55 1220.41 1276 Q1218.19 1275.45 1215.99 1275.45 Q1210.2 1275.45 1207.13 1279.36 Q1204.1 1283.26 1203.66 1291.16 Q1205.37 1288.64 1207.94 1287.31 Q1210.52 1285.95 1213.61 1285.95 Q1220.13 1285.95 1223.89 1289.92 Q1227.68 1293.85 1227.68 1300.65 Q1227.68 1307.31 1223.74 1311.33 Q1219.81 1315.35 1213.27 1315.35 Q1205.77 1315.35 1201.81 1309.62 Q1197.85 1303.86 1197.85 1292.95 Q1197.85 1282.71 1202.71 1276.64 Q1207.57 1270.53 1215.76 1270.53 Q1217.95 1270.53 1220.18 1270.96 Q1222.44 1271.4 1224.87 1272.27 Z" fill="#000000" fill-rule="nonzero" fill-opacity="1" /><path clip-path="url(#clip550)" d="M1250.25 1275.16 Q1245.73 1275.16 1243.45 1279.62 Q1241.19 1284.04 1241.19 1292.95 Q1241.19 1301.84 1243.45 1306.29 Q1245.73 1310.72 1250.25 1310.72 Q1254.79 1310.72 1257.05 1306.29 Q1259.33 1301.84 1259.33 1292.95 Q1259.33 1284.04 1257.05 1279.62 Q1254.79 1275.16 1250.25 1275.16 M1250.25 1270.53 Q1257.51 1270.53 1261.33 1276.29 Q1265.18 1282.02 1265.18 1292.95 Q1265.18 1303.86 1261.33 1309.62 Q1257.51 1315.35 1250.25 1315.35 Q1242.98 1315.35 1239.14 1309.62 Q1235.32 1303.86 1235.32 1292.95 Q1235.32 1282.02 1239.14 1276.29 Q1242.98 1270.53 1250.25 1270.53 Z" fill="#000000" fill-rule="nonzero" fill-opacity="1" /><path clip-path="url(#clip550)" d="M1287.95 1275.16 Q1283.43 1275.16 1281.15 1279.62 Q1278.89 1284.04 1278.89 1292.95 Q1278.89 1301.84 1281.15 1306.29 Q1283.43 1310.72 1287.95 1310.72 Q1292.49 1310.72 1294.75 1306.29 Q1297.03 1301.84 1297.03 1292.95 Q1297.03 1284.04 1294.75 1279.62 Q1292.49 1275.16 1287.95 1275.16 M1287.95 1270.53 Q1295.21 1270.53 1299.03 1276.29 Q1302.88 1282.02 1302.88 1292.95 Q1302.88 1303.86 1299.03 1309.62 Q1295.21 1315.35 1287.95 1315.35 Q1280.69 1315.35 1276.84 1309.62 Q1273.02 1303.86 1273.02 1292.95 Q1273.02 1282.02 1276.84 1276.29 Q1280.69 1270.53 1287.95 1270.53 Z" fill="#000000" fill-rule="nonzero" fill-opacity="1" /><path clip-path="url(#clip550)" d="M1546.83 1313.61 L1546.83 1308.29 Q1549.03 1309.33 1551.28 1309.88 Q1553.54 1310.43 1555.71 1310.43 Q1561.5 1310.43 1564.53 1306.55 Q1567.6 1302.65 1568.04 1294.72 Q1566.36 1297.21 1563.78 1298.54 Q1561.21 1299.87 1558.08 1299.87 Q1551.6 1299.87 1547.81 1295.96 Q1544.05 1292.03 1544.05 1285.23 Q1544.05 1278.57 1547.98 1274.55 Q1551.92 1270.53 1558.46 1270.53 Q1565.95 1270.53 1569.89 1276.29 Q1573.85 1282.02 1573.85 1292.95 Q1573.85 1303.17 1568.99 1309.27 Q1564.16 1315.35 1555.97 1315.35 Q1553.77 1315.35 1551.51 1314.92 Q1549.26 1314.48 1546.83 1313.61 M1558.46 1295.3 Q1562.39 1295.3 1564.68 1292.61 Q1566.99 1289.92 1566.99 1285.23 Q1566.99 1280.57 1564.68 1277.88 Q1562.39 1275.16 1558.46 1275.16 Q1554.52 1275.16 1552.21 1277.88 Q1549.92 1280.57 1549.92 1285.23 Q1549.92 1289.92 1552.21 1292.61 Q1554.52 1295.3 1558.46 1295.3 Z" fill="#000000" fill-rule="nonzero" fill-opacity="1" /><path clip-path="url(#clip550)" d="M1596.86 1275.16 Q1592.34 1275.16 1590.06 1279.62 Q1587.8 1284.04 1587.8 1292.95 Q1587.8 1301.84 1590.06 1306.29 Q1592.34 1310.72 1596.86 1310.72 Q1601.4 1310.72 1603.65 1306.29 Q1605.94 1301.84 1605.94 1292.95 Q1605.94 1284.04 1603.65 1279.62 Q1601.4 1275.16 1596.86 1275.16 M1596.86 1270.53 Q1604.12 1270.53 1607.94 1276.29 Q1611.79 1282.02 1611.79 1292.95 Q1611.79 1303.86 1607.94 1309.62 Q1604.12 1315.35 1596.86 1315.35 Q1589.59 1315.35 1585.74 1309.62 Q1581.92 1303.86 1581.92 1292.95 Q1581.92 1282.02 1585.74 1276.29 Q1589.59 1270.53 1596.86 1270.53 Z" fill="#000000" fill-rule="nonzero" fill-opacity="1" /><path clip-path="url(#clip550)" d="M1634.56 1275.16 Q1630.04 1275.16 1627.76 1279.62 Q1625.5 1284.04 1625.5 1292.95 Q1625.5 1301.84 1627.76 1306.29 Q1630.04 1310.72 1634.56 1310.72 Q1639.1 1310.72 1641.36 1306.29 Q1643.64 1301.84 1643.64 1292.95 Q1643.64 1284.04 1641.36 1279.62 Q1639.1 1275.16 1634.56 1275.16 M1634.56 1270.53 Q1641.82 1270.53 1645.64 1276.29 Q1649.49 1282.02 1649.49 1292.95 Q1649.49 1303.86 1645.64 1309.62 Q1641.82 1315.35 1634.56 1315.35 Q1627.29 1315.35 1623.45 1309.62 Q1619.63 1303.86 1619.63 1292.95 Q1619.63 1282.02 1623.45 1276.29 Q1627.29 1270.53 1634.56 1270.53 Z" fill="#000000" fill-rule="nonzero" fill-opacity="1" /><path clip-path="url(#clip550)" d="M1873.83 1309.59 L1883.38 1309.59 L1883.38 1276.64 L1872.99 1278.72 L1872.99 1273.39 L1883.32 1271.31 L1889.17 1271.31 L1889.17 1309.59 L1898.72 1309.59 L1898.72 1314.51 L1873.83 1314.51 L1873.83 1309.59 Z" fill="#000000" fill-rule="nonzero" fill-opacity="1" /><path clip-path="url(#clip550)" d="M1915.56 1309.59 L1935.96 1309.59 L1935.96 1314.51 L1908.52 1314.51 L1908.52 1309.59 Q1911.85 1306.15 1917.58 1300.36 Q1923.34 1294.55 1924.82 1292.87 Q1927.62 1289.71 1928.72 1287.54 Q1929.85 1285.34 1929.85 1283.23 Q1929.85 1279.79 1927.42 1277.62 Q1925.02 1275.45 1921.14 1275.45 Q1918.39 1275.45 1915.32 1276.4 Q1912.29 1277.36 1908.81 1279.3 L1908.81 1273.39 Q1912.34 1271.98 1915.41 1271.25 Q1918.48 1270.53 1921.02 1270.53 Q1927.74 1270.53 1931.73 1273.89 Q1935.72 1277.24 1935.72 1282.86 Q1935.72 1285.52 1934.71 1287.92 Q1933.73 1290.29 1931.09 1293.53 Q1930.37 1294.37 1926.49 1298.39 Q1922.62 1302.39 1915.56 1309.59 Z" fill="#000000" fill-rule="nonzero" fill-opacity="1" /><path clip-path="url(#clip550)" d="M1960.72 1275.16 Q1956.21 1275.16 1953.92 1279.62 Q1951.67 1284.04 1951.67 1292.95 Q1951.67 1301.84 1953.92 1306.29 Q1956.21 1310.72 1960.72 1310.72 Q1965.27 1310.72 1967.52 1306.29 Q1969.81 1301.84 1969.81 1292.95 Q1969.81 1284.04 1967.52 1279.62 Q1965.27 1275.16 1960.72 1275.16 M1960.72 1270.53 Q1967.99 1270.53 1971.81 1276.29 Q1975.65 1282.02 1975.65 1292.95 Q1975.65 1303.86 1971.81 1309.62 Q1967.99 1315.35 1960.72 1315.35 Q1953.46 1315.35 1949.61 1309.62 Q1945.79 1303.86 1945.79 1292.95 Q1945.79 1282.02 1949.61 1276.29 Q1953.46 1270.53 1960.72 1270.53 Z" fill="#000000" fill-rule="nonzero" fill-opacity="1" /><path clip-path="url(#clip550)" d="M1998.43 1275.16 Q1993.91 1275.16 1991.63 1279.62 Q1989.37 1284.04 1989.37 1292.95 Q1989.37 1301.84 1991.63 1306.29 Q1993.91 1310.72 1998.43 1310.72 Q2002.97 1310.72 2005.23 1306.29 Q2007.51 1301.84 2007.51 1292.95 Q2007.51 1284.04 2005.23 1279.62 Q2002.97 1275.16 1998.43 1275.16 M1998.43 1270.53 Q2005.69 1270.53 2009.51 1276.29 Q2013.36 1282.02 2013.36 1292.95 Q2013.36 1303.86 2009.51 1309.62 Q2005.69 1315.35 1998.43 1315.35 Q1991.16 1315.35 1987.32 1309.62 Q1983.5 1303.86 1983.5 1292.95 Q1983.5 1282.02 1987.32 1276.29 Q1991.16 1270.53 1998.43 1270.53 Z" fill="#000000" fill-rule="nonzero" fill-opacity="1" /><path clip-path="url(#clip550)" d="M666.59 1351.62 L706.789 1351.62 L706.789 1357.03 L689.92 1357.03 L689.92 1399.14 L683.459 1399.14 L683.459 1357.03 L666.59 1357.03 L666.59 1351.62 Z" fill="#000000" fill-rule="nonzero" fill-opacity="1" /><path clip-path="url(#clip550)" d="M732.157 1379.85 L732.157 1382.71 L705.23 1382.71 Q705.612 1388.76 708.858 1391.94 Q712.136 1395.09 717.961 1395.09 Q721.335 1395.09 724.486 1394.27 Q727.669 1393.44 730.788 1391.78 L730.788 1397.32 Q727.637 1398.66 724.327 1399.36 Q721.017 1400.06 717.611 1400.06 Q709.081 1400.06 704.084 1395.09 Q699.119 1390.13 699.119 1381.66 Q699.119 1372.91 703.829 1367.78 Q708.572 1362.63 716.592 1362.63 Q723.786 1362.63 727.955 1367.28 Q732.157 1371.89 732.157 1379.85 M726.3 1378.13 Q726.237 1373.32 723.595 1370.46 Q720.985 1367.59 716.656 1367.59 Q711.755 1367.59 708.794 1370.36 Q705.866 1373.13 705.421 1378.16 L726.3 1378.13 Z" fill="#000000" fill-rule="nonzero" fill-opacity="1" /><path clip-path="url(#clip550)" d="M762.426 1368.96 Q761.439 1368.39 760.261 1368.13 Q759.115 1367.85 757.715 1367.85 Q752.75 1367.85 750.076 1371.09 Q747.434 1374.31 747.434 1380.36 L747.434 1399.14 L741.546 1399.14 L741.546 1363.49 L747.434 1363.49 L747.434 1369.03 Q749.28 1365.78 752.24 1364.22 Q755.2 1362.63 759.434 1362.63 Q760.038 1362.63 760.77 1362.72 Q761.503 1362.79 762.394 1362.95 L762.426 1368.96 Z" fill="#000000" fill-rule="nonzero" fill-opacity="1" /><path clip-path="url(#clip550)" d="M795.177 1370.33 Q797.373 1366.38 800.429 1364.51 Q803.484 1362.63 807.622 1362.63 Q813.192 1362.63 816.216 1366.54 Q819.24 1370.43 819.24 1377.62 L819.24 1399.14 L813.351 1399.14 L813.351 1377.81 Q813.351 1372.69 811.537 1370.2 Q809.723 1367.72 805.999 1367.72 Q801.447 1367.72 798.806 1370.74 Q796.164 1373.77 796.164 1378.99 L796.164 1399.14 L790.276 1399.14 L790.276 1377.81 Q790.276 1372.65 788.461 1370.2 Q786.647 1367.72 782.859 1367.72 Q778.372 1367.72 775.73 1370.78 Q773.088 1373.8 773.088 1378.99 L773.088 1399.14 L767.2 1399.14 L767.2 1363.49 L773.088 1363.49 L773.088 1369.03 Q775.093 1365.75 777.894 1364.19 Q780.695 1362.63 784.546 1362.63 Q788.429 1362.63 791.135 1364.6 Q793.872 1366.57 795.177 1370.33 Z" fill="#000000" fill-rule="nonzero" fill-opacity="1" /><path clip-path="url(#clip550)" d="M830.921 1363.49 L836.777 1363.49 L836.777 1399.14 L830.921 1399.14 L830.921 1363.49 M830.921 1349.61 L836.777 1349.61 L836.777 1357.03 L830.921 1357.03 L830.921 1349.61 Z" fill="#000000" fill-rule="nonzero" fill-opacity="1" /><path clip-path="url(#clip550)" d="M878.663 1377.62 L878.663 1399.14 L872.807 1399.14 L872.807 1377.81 Q872.807 1372.75 870.834 1370.24 Q868.86 1367.72 864.913 1367.72 Q860.171 1367.72 857.434 1370.74 Q854.696 1373.77 854.696 1378.99 L854.696 1399.14 L848.808 1399.14 L848.808 1363.49 L854.696 1363.49 L854.696 1369.03 Q856.797 1365.81 859.63 1364.22 Q862.494 1362.63 866.218 1362.63 Q872.361 1362.63 875.512 1366.45 Q878.663 1370.24 878.663 1377.62 Z" fill="#000000" fill-rule="nonzero" fill-opacity="1" /><path clip-path="url(#clip550)" d="M906.545 1381.22 Q899.447 1381.22 896.71 1382.84 Q893.973 1384.46 893.973 1388.38 Q893.973 1391.5 896.01 1393.34 Q898.079 1395.16 901.612 1395.16 Q906.482 1395.16 909.41 1391.72 Q912.37 1388.25 912.37 1382.52 L912.37 1381.22 L906.545 1381.22 M918.226 1378.8 L918.226 1399.14 L912.37 1399.14 L912.37 1393.72 Q910.365 1396.97 907.373 1398.53 Q904.381 1400.06 900.052 1400.06 Q894.578 1400.06 891.331 1397 Q888.116 1393.92 888.116 1388.76 Q888.116 1382.74 892.127 1379.69 Q896.169 1376.63 904.158 1376.63 L912.37 1376.63 L912.37 1376.06 Q912.37 1372.02 909.696 1369.82 Q907.054 1367.59 902.248 1367.59 Q899.193 1367.59 896.296 1368.33 Q893.4 1369.06 890.726 1370.52 L890.726 1365.11 Q893.941 1363.87 896.965 1363.26 Q899.988 1362.63 902.853 1362.63 Q910.587 1362.63 914.407 1366.64 Q918.226 1370.65 918.226 1378.8 Z" fill="#000000" fill-rule="nonzero" fill-opacity="1" /><path clip-path="url(#clip550)" d="M930.289 1349.61 L936.146 1349.61 L936.146 1399.14 L930.289 1399.14 L930.289 1349.61 Z" fill="#000000" fill-rule="nonzero" fill-opacity="1" /><path clip-path="url(#clip550)" d="M974.786 1393.79 L974.786 1412.69 L968.897 1412.69 L968.897 1363.49 L974.786 1363.49 L974.786 1368.9 Q976.632 1365.72 979.433 1364.19 Q982.265 1362.63 986.18 1362.63 Q992.673 1362.63 996.715 1367.78 Q1000.79 1372.94 1000.79 1381.34 Q1000.79 1389.75 996.715 1394.9 Q992.673 1400.06 986.18 1400.06 Q982.265 1400.06 979.433 1398.53 Q976.632 1396.97 974.786 1393.79 M994.71 1381.34 Q994.71 1374.88 992.037 1371.22 Q989.395 1367.53 984.748 1367.53 Q980.101 1367.53 977.427 1371.22 Q974.786 1374.88 974.786 1381.34 Q974.786 1387.8 977.427 1391.5 Q980.101 1395.16 984.748 1395.16 Q989.395 1395.16 992.037 1391.5 Q994.71 1387.8 994.71 1381.34 Z" fill="#000000" fill-rule="nonzero" fill-opacity="1" /><path clip-path="url(#clip550)" d="M1031.15 1368.96 Q1030.17 1368.39 1028.99 1368.13 Q1027.84 1367.85 1026.44 1367.85 Q1021.48 1367.85 1018.8 1371.09 Q1016.16 1374.31 1016.16 1380.36 L1016.16 1399.14 L1010.27 1399.14 L1010.27 1363.49 L1016.16 1363.49 L1016.16 1369.03 Q1018.01 1365.78 1020.97 1364.22 Q1023.93 1362.63 1028.16 1362.63 Q1028.77 1362.63 1029.5 1362.72 Q1030.23 1362.79 1031.12 1362.95 L1031.15 1368.96 Z" fill="#000000" fill-rule="nonzero" fill-opacity="1" /><path clip-path="url(#clip550)" d="M1037.3 1363.49 L1043.15 1363.49 L1043.15 1399.14 L1037.3 1399.14 L1037.3 1363.49 M1037.3 1349.61 L1043.15 1349.61 L1043.15 1357.03 L1037.3 1357.03 L1037.3 1349.61 Z" fill="#000000" fill-rule="nonzero" fill-opacity="1" /><path clip-path="url(#clip550)" d="M1081.06 1364.86 L1081.06 1370.33 Q1078.58 1368.96 1076.06 1368.29 Q1073.58 1367.59 1071.04 1367.59 Q1065.34 1367.59 1062.19 1371.22 Q1059.04 1374.82 1059.04 1381.34 Q1059.04 1387.87 1062.19 1391.5 Q1065.34 1395.09 1071.04 1395.09 Q1073.58 1395.09 1076.06 1394.42 Q1078.58 1393.72 1081.06 1392.36 L1081.06 1397.77 Q1078.61 1398.91 1075.97 1399.49 Q1073.36 1400.06 1070.4 1400.06 Q1062.35 1400.06 1057.6 1395 Q1052.86 1389.94 1052.86 1381.34 Q1052.86 1372.62 1057.64 1367.63 Q1062.44 1362.63 1070.78 1362.63 Q1073.49 1362.63 1076.06 1363.2 Q1078.64 1363.74 1081.06 1364.86 Z" fill="#000000" fill-rule="nonzero" fill-opacity="1" /><path clip-path="url(#clip550)" d="M1121.74 1379.85 L1121.74 1382.71 L1094.81 1382.71 Q1095.19 1388.76 1098.44 1391.94 Q1101.72 1395.09 1107.54 1395.09 Q1110.92 1395.09 1114.07 1394.27 Q1117.25 1393.44 1120.37 1391.78 L1120.37 1397.32 Q1117.22 1398.66 1113.91 1399.36 Q1110.6 1400.06 1107.19 1400.06 Q1098.66 1400.06 1093.67 1395.09 Q1088.7 1390.13 1088.7 1381.66 Q1088.7 1372.91 1093.41 1367.78 Q1098.15 1362.63 1106.17 1362.63 Q1113.37 1362.63 1117.54 1367.28 Q1121.74 1371.89 1121.74 1379.85 M1115.88 1378.13 Q1115.82 1373.32 1113.18 1370.46 Q1110.57 1367.59 1106.24 1367.59 Q1101.34 1367.59 1098.38 1370.36 Q1095.45 1373.13 1095 1378.16 L1115.88 1378.13 Z" fill="#000000" fill-rule="nonzero" fill-opacity="1" /><path clip-path="url(#clip550)" d="M1168.27 1381.22 Q1161.17 1381.22 1158.44 1382.84 Q1155.7 1384.46 1155.7 1388.38 Q1155.7 1391.5 1157.74 1393.34 Q1159.8 1395.16 1163.34 1395.16 Q1168.21 1395.16 1171.14 1391.72 Q1174.1 1388.25 1174.1 1382.52 L1174.1 1381.22 L1168.27 1381.22 M1179.95 1378.8 L1179.95 1399.14 L1174.1 1399.14 L1174.1 1393.72 Q1172.09 1396.97 1169.1 1398.53 Q1166.11 1400.06 1161.78 1400.06 Q1156.3 1400.06 1153.06 1397 Q1149.84 1393.92 1149.84 1388.76 Q1149.84 1382.74 1153.85 1379.69 Q1157.9 1376.63 1165.88 1376.63 L1174.1 1376.63 L1174.1 1376.06 Q1174.1 1372.02 1171.42 1369.82 Q1168.78 1367.59 1163.97 1367.59 Q1160.92 1367.59 1158.02 1368.33 Q1155.13 1369.06 1152.45 1370.52 L1152.45 1365.11 Q1155.67 1363.87 1158.69 1363.26 Q1161.71 1362.63 1164.58 1362.63 Q1172.31 1362.63 1176.13 1366.64 Q1179.95 1370.65 1179.95 1378.8 Z" fill="#000000" fill-rule="nonzero" fill-opacity="1" /><path clip-path="url(#clip550)" d="M1197.81 1353.37 L1197.81 1363.49 L1209.87 1363.49 L1209.87 1368.04 L1197.81 1368.04 L1197.81 1387.39 Q1197.81 1391.75 1198.99 1392.99 Q1200.2 1394.23 1203.86 1394.23 L1209.87 1394.23 L1209.87 1399.14 L1203.86 1399.14 Q1197.08 1399.14 1194.5 1396.62 Q1191.92 1394.07 1191.92 1387.39 L1191.92 1368.04 L1187.62 1368.04 L1187.62 1363.49 L1191.92 1363.49 L1191.92 1353.37 L1197.81 1353.37 Z" fill="#000000" fill-rule="nonzero" fill-opacity="1" /><path clip-path="url(#clip550)" d="M1268.79 1379.85 L1268.79 1382.71 L1241.86 1382.71 Q1242.24 1388.76 1245.49 1391.94 Q1248.77 1395.09 1254.59 1395.09 Q1257.96 1395.09 1261.12 1394.27 Q1264.3 1393.44 1267.42 1391.78 L1267.42 1397.32 Q1264.27 1398.66 1260.96 1399.36 Q1257.65 1400.06 1254.24 1400.06 Q1245.71 1400.06 1240.71 1395.09 Q1235.75 1390.13 1235.75 1381.66 Q1235.75 1372.91 1240.46 1367.78 Q1245.2 1362.63 1253.22 1362.63 Q1260.41 1362.63 1264.58 1367.28 Q1268.79 1371.89 1268.79 1379.85 M1262.93 1378.13 Q1262.87 1373.32 1260.22 1370.46 Q1257.61 1367.59 1253.29 1367.59 Q1248.38 1367.59 1245.42 1370.36 Q1242.5 1373.13 1242.05 1378.16 L1262.93 1378.13 Z" fill="#000000" fill-rule="nonzero" fill-opacity="1" /><path clip-path="url(#clip550)" d="M1308.03 1377.62 L1308.03 1399.14 L1302.17 1399.14 L1302.17 1377.81 Q1302.17 1372.75 1300.2 1370.24 Q1298.23 1367.72 1294.28 1367.72 Q1289.54 1367.72 1286.8 1370.74 Q1284.06 1373.77 1284.06 1378.99 L1284.06 1399.14 L1278.18 1399.14 L1278.18 1363.49 L1284.06 1363.49 L1284.06 1369.03 Q1286.16 1365.81 1289 1364.22 Q1291.86 1362.63 1295.59 1362.63 Q1301.73 1362.63 1304.88 1366.45 Q1308.03 1370.24 1308.03 1377.62 Z" fill="#000000" fill-rule="nonzero" fill-opacity="1" /><path clip-path="url(#clip550)" d="M1343.17 1368.9 L1343.17 1349.61 L1349.03 1349.61 L1349.03 1399.14 L1343.17 1399.14 L1343.17 1393.79 Q1341.32 1396.97 1338.49 1398.53 Q1335.69 1400.06 1331.74 1400.06 Q1325.28 1400.06 1321.21 1394.9 Q1317.17 1389.75 1317.17 1381.34 Q1317.17 1372.94 1321.21 1367.78 Q1325.28 1362.63 1331.74 1362.63 Q1335.69 1362.63 1338.49 1364.19 Q1341.32 1365.72 1343.17 1368.9 M1323.21 1381.34 Q1323.21 1387.8 1325.85 1391.5 Q1328.53 1395.16 1333.17 1395.16 Q1337.82 1395.16 1340.5 1391.5 Q1343.17 1387.8 1343.17 1381.34 Q1343.17 1374.88 1340.5 1371.22 Q1337.82 1367.53 1333.17 1367.53 Q1328.53 1367.53 1325.85 1371.22 Q1323.21 1374.88 1323.21 1381.34 Z" fill="#000000" fill-rule="nonzero" fill-opacity="1" /><path clip-path="url(#clip550)" d="M1395.62 1367.59 Q1390.91 1367.59 1388.17 1371.29 Q1385.44 1374.95 1385.44 1381.34 Q1385.44 1387.74 1388.14 1391.43 Q1390.88 1395.09 1395.62 1395.09 Q1400.3 1395.09 1403.04 1391.4 Q1405.78 1387.71 1405.78 1381.34 Q1405.78 1375.01 1403.04 1371.32 Q1400.3 1367.59 1395.62 1367.59 M1395.62 1362.63 Q1403.26 1362.63 1407.62 1367.59 Q1411.98 1372.56 1411.98 1381.34 Q1411.98 1390.1 1407.62 1395.09 Q1403.26 1400.06 1395.62 1400.06 Q1387.95 1400.06 1383.59 1395.09 Q1379.26 1390.1 1379.26 1381.34 Q1379.26 1372.56 1383.59 1367.59 Q1387.95 1362.63 1395.62 1362.63 Z" fill="#000000" fill-rule="nonzero" fill-opacity="1" /><path clip-path="url(#clip550)" d="M1439.74 1349.61 L1439.74 1354.48 L1434.13 1354.48 Q1430.98 1354.48 1429.74 1355.75 Q1428.53 1357.03 1428.53 1360.34 L1428.53 1363.49 L1438.18 1363.49 L1438.18 1368.04 L1428.53 1368.04 L1428.53 1399.14 L1422.64 1399.14 L1422.64 1368.04 L1417.04 1368.04 L1417.04 1363.49 L1422.64 1363.49 L1422.64 1361 Q1422.64 1355.05 1425.41 1352.35 Q1428.18 1349.61 1434.2 1349.61 L1439.74 1349.61 Z" fill="#000000" fill-rule="nonzero" fill-opacity="1" /><path clip-path="url(#clip550)" d="M1484.9 1355.98 Q1477.9 1355.98 1473.76 1361.2 Q1469.66 1366.42 1469.66 1375.42 Q1469.66 1384.4 1473.76 1389.62 Q1477.9 1394.84 1484.9 1394.84 Q1491.9 1394.84 1495.98 1389.62 Q1500.08 1384.4 1500.08 1375.42 Q1500.08 1366.42 1495.98 1361.2 Q1491.9 1355.98 1484.9 1355.98 M1484.9 1350.76 Q1494.9 1350.76 1500.88 1357.47 Q1506.86 1364.16 1506.86 1375.42 Q1506.86 1386.66 1500.88 1393.37 Q1494.9 1400.06 1484.9 1400.06 Q1474.88 1400.06 1468.86 1393.37 Q1462.88 1386.69 1462.88 1375.42 Q1462.88 1364.16 1468.86 1357.47 Q1474.88 1350.76 1484.9 1350.76 Z" fill="#000000" fill-rule="nonzero" fill-opacity="1" /><path clip-path="url(#clip550)" d="M1530.48 1367.59 Q1525.77 1367.59 1523.03 1371.29 Q1520.29 1374.95 1520.29 1381.34 Q1520.29 1387.74 1523 1391.43 Q1525.74 1395.09 1530.48 1395.09 Q1535.16 1395.09 1537.9 1391.4 Q1540.63 1387.71 1540.63 1381.34 Q1540.63 1375.01 1537.9 1371.32 Q1535.16 1367.59 1530.48 1367.59 M1530.48 1362.63 Q1538.12 1362.63 1542.48 1367.59 Q1546.84 1372.56 1546.84 1381.34 Q1546.84 1390.1 1542.48 1395.09 Q1538.12 1400.06 1530.48 1400.06 Q1522.81 1400.06 1518.45 1395.09 Q1514.12 1390.1 1514.12 1381.34 Q1514.12 1372.56 1518.45 1367.59 Q1522.81 1362.63 1530.48 1362.63 Z" fill="#000000" fill-rule="nonzero" fill-opacity="1" /><path clip-path="url(#clip550)" d="M1585.29 1353.18 L1585.29 1359.45 Q1581.63 1357.69 1578.38 1356.84 Q1575.14 1355.98 1572.11 1355.98 Q1566.86 1355.98 1564 1358.01 Q1561.16 1360.05 1561.16 1363.81 Q1561.16 1366.96 1563.04 1368.58 Q1564.95 1370.17 1570.23 1371.16 L1574.12 1371.95 Q1581.31 1373.32 1584.72 1376.79 Q1588.15 1380.23 1588.15 1386.02 Q1588.15 1392.93 1583.51 1396.49 Q1578.89 1400.06 1569.95 1400.06 Q1566.57 1400.06 1562.75 1399.29 Q1558.97 1398.53 1554.89 1397.03 L1554.89 1390.41 Q1558.81 1392.61 1562.56 1393.72 Q1566.32 1394.84 1569.95 1394.84 Q1575.45 1394.84 1578.45 1392.67 Q1581.44 1390.51 1581.44 1386.5 Q1581.44 1383 1579.27 1381.03 Q1577.14 1379.05 1572.24 1378.07 L1568.32 1377.3 Q1561.13 1375.87 1557.92 1372.81 Q1554.7 1369.76 1554.7 1364.32 Q1554.7 1358.01 1559.13 1354.38 Q1563.58 1350.76 1571.38 1350.76 Q1574.72 1350.76 1578.19 1351.36 Q1581.66 1351.97 1585.29 1353.18 Z" fill="#000000" fill-rule="nonzero" fill-opacity="1" /><path clip-path="url(#clip550)" d="M1615.24 1363.49 L1621.1 1363.49 L1628.42 1391.31 L1635.71 1363.49 L1642.61 1363.49 L1649.93 1391.31 L1657.22 1363.49 L1663.08 1363.49 L1653.75 1399.14 L1646.85 1399.14 L1639.17 1369.92 L1631.47 1399.14 L1624.57 1399.14 L1615.24 1363.49 Z" fill="#000000" fill-rule="nonzero" fill-opacity="1" /><path clip-path="url(#clip550)" d="M1671.96 1363.49 L1677.81 1363.49 L1677.81 1399.14 L1671.96 1399.14 L1671.96 1363.49 M1671.96 1349.61 L1677.81 1349.61 L1677.81 1357.03 L1671.96 1357.03 L1671.96 1349.61 Z" fill="#000000" fill-rule="nonzero" fill-opacity="1" /><path clip-path="url(#clip550)" d="M1719.7 1377.62 L1719.7 1399.14 L1713.84 1399.14 L1713.84 1377.81 Q1713.84 1372.75 1711.87 1370.24 Q1709.9 1367.72 1705.95 1367.72 Q1701.21 1367.72 1698.47 1370.74 Q1695.73 1373.77 1695.73 1378.99 L1695.73 1399.14 L1689.85 1399.14 L1689.85 1363.49 L1695.73 1363.49 L1695.73 1369.03 Q1697.83 1365.81 1700.67 1364.22 Q1703.53 1362.63 1707.26 1362.63 Q1713.4 1362.63 1716.55 1366.45 Q1719.7 1370.24 1719.7 1377.62 Z" fill="#000000" fill-rule="nonzero" fill-opacity="1" /><path clip-path="url(#clip550)" d="M1754.84 1368.9 L1754.84 1349.61 L1760.7 1349.61 L1760.7 1399.14 L1754.84 1399.14 L1754.84 1393.79 Q1752.99 1396.97 1750.16 1398.53 Q1747.36 1400.06 1743.41 1400.06 Q1736.95 1400.06 1732.88 1394.9 Q1728.84 1389.75 1728.84 1381.34 Q1728.84 1372.94 1732.88 1367.78 Q1736.95 1362.63 1743.41 1362.63 Q1747.36 1362.63 1750.16 1364.19 Q1752.99 1365.72 1754.84 1368.9 M1734.88 1381.34 Q1734.88 1387.8 1737.52 1391.5 Q1740.2 1395.16 1744.85 1395.16 Q1749.49 1395.16 1752.17 1391.5 Q1754.84 1387.8 1754.84 1381.34 Q1754.84 1374.88 1752.17 1371.22 Q1749.49 1367.53 1744.85 1367.53 Q1740.2 1367.53 1737.52 1371.22 Q1734.88 1374.88 1734.88 1381.34 Z" fill="#000000" fill-rule="nonzero" fill-opacity="1" /><path clip-path="url(#clip550)" d="M1786.57 1367.59 Q1781.86 1367.59 1779.12 1371.29 Q1776.39 1374.95 1776.39 1381.34 Q1776.39 1387.74 1779.09 1391.43 Q1781.83 1395.09 1786.57 1395.09 Q1791.25 1395.09 1793.99 1391.4 Q1796.73 1387.71 1796.73 1381.34 Q1796.73 1375.01 1793.99 1371.32 Q1791.25 1367.59 1786.57 1367.59 M1786.57 1362.63 Q1794.21 1362.63 1798.57 1367.59 Q1802.93 1372.56 1802.93 1381.34 Q1802.93 1390.1 1798.57 1395.09 Q1794.21 1400.06 1786.57 1400.06 Q1778.9 1400.06 1774.54 1395.09 Q1770.21 1390.1 1770.21 1381.34 Q1770.21 1372.56 1774.54 1367.59 Q1778.9 1362.63 1786.57 1362.63 Z" fill="#000000" fill-rule="nonzero" fill-opacity="1" /><path clip-path="url(#clip550)" d="M1809.23 1363.49 L1815.09 1363.49 L1822.41 1391.31 L1829.7 1363.49 L1836.61 1363.49 L1843.93 1391.31 L1851.22 1363.49 L1857.07 1363.49 L1847.75 1399.14 L1840.84 1399.14 L1833.17 1369.92 L1825.47 1399.14 L1818.56 1399.14 L1809.23 1363.49 Z" fill="#000000" fill-rule="nonzero" fill-opacity="1" /><path clip-path="url(#clip550)" d="M1900.74 1349.67 Q1896.48 1356.99 1894.41 1364.16 Q1892.34 1371.32 1892.34 1378.67 Q1892.34 1386.02 1894.41 1393.25 Q1896.51 1400.44 1900.74 1407.73 L1895.65 1407.73 Q1890.87 1400.25 1888.49 1393.02 Q1886.13 1385.8 1886.13 1378.67 Q1886.13 1371.57 1888.49 1364.38 Q1890.84 1357.19 1895.65 1349.67 L1900.74 1349.67 Z" fill="#000000" fill-rule="nonzero" fill-opacity="1" /><path clip-path="url(#clip550)" d="M1911.63 1351.62 L1918.09 1351.62 L1918.09 1380.48 Q1918.09 1388.12 1920.86 1391.5 Q1923.63 1394.84 1929.83 1394.84 Q1936.01 1394.84 1938.78 1391.5 Q1941.55 1388.12 1941.55 1380.48 L1941.55 1351.62 L1948.01 1351.62 L1948.01 1381.28 Q1948.01 1390.57 1943.39 1395.32 Q1938.81 1400.06 1929.83 1400.06 Q1920.83 1400.06 1916.21 1395.32 Q1911.63 1390.57 1911.63 1381.28 L1911.63 1351.62 Z" fill="#000000" fill-rule="nonzero" fill-opacity="1" /><path clip-path="url(#clip550)" d="M1988.56 1353.18 L1988.56 1359.45 Q1984.9 1357.69 1981.65 1356.84 Q1978.4 1355.98 1975.38 1355.98 Q1970.13 1355.98 1967.26 1358.01 Q1964.43 1360.05 1964.43 1363.81 Q1964.43 1366.96 1966.31 1368.58 Q1968.22 1370.17 1973.5 1371.16 L1977.38 1371.95 Q1984.58 1373.32 1987.98 1376.79 Q1991.42 1380.23 1991.42 1386.02 Q1991.42 1392.93 1986.77 1396.49 Q1982.16 1400.06 1973.21 1400.06 Q1969.84 1400.06 1966.02 1399.29 Q1962.23 1398.53 1958.16 1397.03 L1958.16 1390.41 Q1962.07 1392.61 1965.83 1393.72 Q1969.59 1394.84 1973.21 1394.84 Q1978.72 1394.84 1981.71 1392.67 Q1984.7 1390.51 1984.7 1386.5 Q1984.7 1383 1982.54 1381.03 Q1980.41 1379.05 1975.51 1378.07 L1971.59 1377.3 Q1964.4 1375.87 1961.18 1372.81 Q1957.97 1369.76 1957.97 1364.32 Q1957.97 1358.01 1962.39 1354.38 Q1966.85 1350.76 1974.65 1350.76 Q1977.99 1350.76 1981.46 1351.36 Q1984.93 1351.97 1988.56 1353.18 Z" fill="#000000" fill-rule="nonzero" fill-opacity="1" /><path clip-path="url(#clip550)" d="M2007.88 1356.9 L2007.88 1393.85 L2015.64 1393.85 Q2025.48 1393.85 2030.03 1389.4 Q2034.61 1384.94 2034.61 1375.33 Q2034.61 1365.78 2030.03 1361.36 Q2025.48 1356.9 2015.64 1356.9 L2007.88 1356.9 M2001.45 1351.62 L2014.66 1351.62 Q2028.47 1351.62 2034.93 1357.38 Q2041.39 1363.11 2041.39 1375.33 Q2041.39 1387.61 2034.9 1393.37 Q2028.41 1399.14 2014.66 1399.14 L2001.45 1399.14 L2001.45 1351.62 Z" fill="#000000" fill-rule="nonzero" fill-opacity="1" /><path clip-path="url(#clip550)" d="M2050.46 1349.67 L2055.56 1349.67 Q2060.33 1357.19 2062.68 1364.38 Q2065.07 1371.57 2065.07 1378.67 Q2065.07 1385.8 2062.68 1393.02 Q2060.33 1400.25 2055.56 1407.73 L2050.46 1407.73 Q2054.7 1400.44 2056.76 1393.25 Q2058.87 1386.02 2058.87 1378.67 Q2058.87 1371.32 2056.76 1364.16 Q2054.7 1356.99 2050.46 1349.67 Z" fill="#000000" fill-rule="nonzero" fill-opacity="1" /><polyline clip-path="url(#clip550)" style="stroke:#000000; stroke-linecap:round; stroke-linejoin:round; stroke-width:4; stroke-opacity:1; fill:none" points="457.646,1241.31 457.646,125.984 "/>
<polyline clip-path="url(#clip550)" style="stroke:#000000; stroke-linecap:round; stroke-linejoin:round; stroke-width:4; stroke-opacity:1; fill:none" points="457.646,1241.31 476.544,1241.31 "/>
<polyline clip-path="url(#clip550)" style="stroke:#000000; stroke-linecap:round; stroke-linejoin:round; stroke-width:4; stroke-opacity:1; fill:none" points="457.646,1018.25 476.544,1018.25 "/>
<polyline clip-path="url(#clip550)" style="stroke:#000000; stroke-linecap:round; stroke-linejoin:round; stroke-width:4; stroke-opacity:1; fill:none" points="457.646,795.181 476.544,795.181 "/>
<polyline clip-path="url(#clip550)" style="stroke:#000000; stroke-linecap:round; stroke-linejoin:round; stroke-width:4; stroke-opacity:1; fill:none" points="457.646,572.115 476.544,572.115 "/>
<polyline clip-path="url(#clip550)" style="stroke:#000000; stroke-linecap:round; stroke-linejoin:round; stroke-width:4; stroke-opacity:1; fill:none" points="457.646,349.05 476.544,349.05 "/>
<polyline clip-path="url(#clip550)" style="stroke:#000000; stroke-linecap:round; stroke-linejoin:round; stroke-width:4; stroke-opacity:1; fill:none" points="457.646,125.984 476.544,125.984 "/>
<path clip-path="url(#clip550)" d="M406.716 1223.56 Q402.202 1223.56 399.916 1228.02 Q397.659 1232.44 397.659 1241.35 Q397.659 1250.24 399.916 1254.69 Q402.202 1259.12 406.716 1259.12 Q411.258 1259.12 413.515 1254.69 Q415.801 1250.24 415.801 1241.35 Q415.801 1232.44 413.515 1228.02 Q411.258 1223.56 406.716 1223.56 M406.716 1218.93 Q413.978 1218.93 417.798 1224.69 Q421.646 1230.42 421.646 1241.35 Q421.646 1252.26 417.798 1258.02 Q413.978 1263.75 406.716 1263.75 Q399.453 1263.75 395.605 1258.02 Q391.785 1252.26 391.785 1241.35 Q391.785 1230.42 395.605 1224.69 Q399.453 1218.93 406.716 1218.93 Z" fill="#000000" fill-rule="nonzero" fill-opacity="1" /><path clip-path="url(#clip550)" d="M362.792 1034.93 L383.191 1034.93 L383.191 1039.85 L355.761 1039.85 L355.761 1034.93 Q359.089 1031.48 364.818 1025.7 Q370.576 1019.88 372.051 1018.2 Q374.858 1015.05 375.958 1012.88 Q377.086 1010.68 377.086 1008.57 Q377.086 1005.12 374.656 1002.95 Q372.254 1000.78 368.377 1000.78 Q365.628 1000.78 362.561 1001.74 Q359.523 1002.69 356.05 1004.63 L356.05 998.729 Q359.58 997.312 362.648 996.588 Q365.715 995.865 368.261 995.865 Q374.974 995.865 378.967 999.221 Q382.96 1002.58 382.96 1008.19 Q382.96 1010.85 381.947 1013.25 Q380.963 1015.63 378.33 1018.87 Q377.607 1019.71 373.73 1023.73 Q369.852 1027.72 362.792 1034.93 Z" fill="#000000" fill-rule="nonzero" fill-opacity="1" /><path clip-path="url(#clip550)" d="M395.518 996.646 L418.463 996.646 L418.463 1001.57 L400.871 1001.57 L400.871 1012.16 Q402.144 1011.72 403.417 1011.52 Q404.69 1011.29 405.963 1011.29 Q413.197 1011.29 417.422 1015.25 Q421.646 1019.22 421.646 1025.99 Q421.646 1032.96 417.306 1036.84 Q412.966 1040.69 405.066 1040.69 Q402.346 1040.69 399.511 1040.22 Q396.704 1039.76 393.695 1038.83 L393.695 1032.96 Q396.299 1034.38 399.077 1035.07 Q401.854 1035.77 404.951 1035.77 Q409.956 1035.77 412.879 1033.13 Q415.801 1030.5 415.801 1025.99 Q415.801 1021.47 412.879 1018.84 Q409.956 1016.21 404.951 1016.21 Q402.607 1016.21 400.263 1016.73 Q397.948 1017.25 395.518 1018.35 L395.518 996.646 Z" fill="#000000" fill-rule="nonzero" fill-opacity="1" /><path clip-path="url(#clip550)" d="M356.571 773.581 L379.517 773.581 L379.517 778.5 L361.924 778.5 L361.924 789.09 Q363.197 788.656 364.47 788.453 Q365.744 788.222 367.017 788.222 Q374.25 788.222 378.475 792.186 Q382.7 796.15 382.7 802.921 Q382.7 809.894 378.359 813.771 Q374.019 817.62 366.12 817.62 Q363.4 817.62 360.564 817.157 Q357.758 816.694 354.748 815.768 L354.748 809.894 Q357.352 811.312 360.13 812.006 Q362.908 812.701 366.004 812.701 Q371.01 812.701 373.932 810.068 Q376.855 807.435 376.855 802.921 Q376.855 798.407 373.932 795.774 Q371.01 793.141 366.004 793.141 Q363.66 793.141 361.317 793.662 Q359.002 794.182 356.571 795.282 L356.571 773.581 Z" fill="#000000" fill-rule="nonzero" fill-opacity="1" /><path clip-path="url(#clip550)" d="M406.716 777.429 Q402.202 777.429 399.916 781.885 Q397.659 786.312 397.659 795.224 Q397.659 804.107 399.916 808.563 Q402.202 812.99 406.716 812.99 Q411.258 812.99 413.515 808.563 Q415.801 804.107 415.801 795.224 Q415.801 786.312 413.515 781.885 Q411.258 777.429 406.716 777.429 M406.716 772.799 Q413.978 772.799 417.798 778.557 Q421.646 784.287 421.646 795.224 Q421.646 806.133 417.798 811.891 Q413.978 817.62 406.716 817.62 Q399.453 817.62 395.605 811.891 Q391.785 806.133 391.785 795.224 Q391.785 784.287 395.605 778.557 Q399.453 772.799 406.716 772.799 Z" fill="#000000" fill-rule="nonzero" fill-opacity="1" /><path clip-path="url(#clip550)" d="M356.282 550.515 L384.059 550.515 L384.059 553.004 L368.377 593.715 L362.271 593.715 L377.028 555.434 L356.282 555.434 L356.282 550.515 Z" fill="#000000" fill-rule="nonzero" fill-opacity="1" /><path clip-path="url(#clip550)" d="M395.518 550.515 L418.463 550.515 L418.463 555.434 L400.871 555.434 L400.871 566.024 Q402.144 565.59 403.417 565.388 Q404.69 565.156 405.963 565.156 Q413.197 565.156 417.422 569.12 Q421.646 573.084 421.646 579.855 Q421.646 586.829 417.306 590.706 Q412.966 594.554 405.066 594.554 Q402.346 594.554 399.511 594.091 Q396.704 593.628 393.695 592.702 L393.695 586.829 Q396.299 588.246 399.077 588.941 Q401.854 589.635 404.951 589.635 Q409.956 589.635 412.879 587.002 Q415.801 584.369 415.801 579.855 Q415.801 575.341 412.879 572.708 Q409.956 570.075 404.951 570.075 Q402.607 570.075 400.263 570.596 Q397.948 571.117 395.518 572.216 L395.518 550.515 Z" fill="#000000" fill-rule="nonzero" fill-opacity="1" /><path clip-path="url(#clip550)" d="M319.824 365.731 L329.372 365.731 L329.372 332.774 L318.985 334.857 L318.985 329.533 L329.314 327.45 L335.159 327.45 L335.159 365.731 L344.708 365.731 L344.708 370.65 L319.824 370.65 L319.824 365.731 Z" fill="#000000" fill-rule="nonzero" fill-opacity="1" /><path clip-path="url(#clip550)" d="M369.013 331.298 Q364.499 331.298 362.214 335.754 Q359.957 340.181 359.957 349.093 Q359.957 357.976 362.214 362.432 Q364.499 366.859 369.013 366.859 Q373.556 366.859 375.813 362.432 Q378.099 357.976 378.099 349.093 Q378.099 340.181 375.813 335.754 Q373.556 331.298 369.013 331.298 M369.013 326.668 Q376.276 326.668 380.095 332.427 Q383.944 338.156 383.944 349.093 Q383.944 360.002 380.095 365.76 Q376.276 371.489 369.013 371.489 Q361.751 371.489 357.902 365.76 Q354.083 360.002 354.083 349.093 Q354.083 338.156 357.902 332.427 Q361.751 326.668 369.013 326.668 Z" fill="#000000" fill-rule="nonzero" fill-opacity="1" /><path clip-path="url(#clip550)" d="M406.716 331.298 Q402.202 331.298 399.916 335.754 Q397.659 340.181 397.659 349.093 Q397.659 357.976 399.916 362.432 Q402.202 366.859 406.716 366.859 Q411.258 366.859 413.515 362.432 Q415.801 357.976 415.801 349.093 Q415.801 340.181 413.515 335.754 Q411.258 331.298 406.716 331.298 M406.716 326.668 Q413.978 326.668 417.798 332.427 Q421.646 338.156 421.646 349.093 Q421.646 360.002 417.798 365.76 Q413.978 371.489 406.716 371.489 Q399.453 371.489 395.605 365.76 Q391.785 360.002 391.785 349.093 Q391.785 338.156 395.605 332.427 Q399.453 326.668 406.716 326.668 Z" fill="#000000" fill-rule="nonzero" fill-opacity="1" /><path clip-path="url(#clip550)" d="M321.068 142.665 L330.616 142.665 L330.616 109.708 L320.229 111.792 L320.229 106.468 L330.559 104.384 L336.403 104.384 L336.403 142.665 L345.952 142.665 L345.952 147.584 L321.068 147.584 L321.068 142.665 Z" fill="#000000" fill-rule="nonzero" fill-opacity="1" /><path clip-path="url(#clip550)" d="M362.792 142.665 L383.191 142.665 L383.191 147.584 L355.761 147.584 L355.761 142.665 Q359.089 139.222 364.818 133.435 Q370.576 127.619 372.051 125.941 Q374.858 122.787 375.958 120.617 Q377.086 118.418 377.086 116.305 Q377.086 112.862 374.656 110.692 Q372.254 108.522 368.377 108.522 Q365.628 108.522 362.561 109.477 Q359.523 110.432 356.05 112.37 L356.05 106.468 Q359.58 105.05 362.648 104.326 Q365.715 103.603 368.261 103.603 Q374.974 103.603 378.967 106.959 Q382.96 110.316 382.96 115.929 Q382.96 118.591 381.947 120.993 Q380.963 123.366 378.33 126.606 Q377.607 127.445 373.73 131.467 Q369.852 135.46 362.792 142.665 Z" fill="#000000" fill-rule="nonzero" fill-opacity="1" /><path clip-path="url(#clip550)" d="M395.518 104.384 L418.463 104.384 L418.463 109.303 L400.871 109.303 L400.871 119.893 Q402.144 119.459 403.417 119.257 Q404.69 119.025 405.963 119.025 Q413.197 119.025 417.422 122.989 Q421.646 126.954 421.646 133.724 Q421.646 140.698 417.306 144.575 Q412.966 148.423 405.066 148.423 Q402.346 148.423 399.511 147.96 Q396.704 147.497 393.695 146.572 L393.695 140.698 Q396.299 142.116 399.077 142.81 Q401.854 143.504 404.951 143.504 Q409.956 143.504 412.879 140.871 Q415.801 138.238 415.801 133.724 Q415.801 129.211 412.879 126.577 Q409.956 123.944 404.951 123.944 Q402.607 123.944 400.263 124.465 Q397.948 124.986 395.518 126.086 L395.518 104.384 Z" fill="#000000" fill-rule="nonzero" fill-opacity="1" /><path clip-path="url(#clip550)" d="M224.869 739.507 L231.648 739.507 Q228.625 742.753 227.129 746.446 Q225.633 750.106 225.633 754.244 Q225.633 762.392 230.63 766.72 Q235.595 771.049 245.016 771.049 Q254.406 771.049 259.403 766.72 Q264.368 762.392 264.368 754.244 Q264.368 750.106 262.872 746.446 Q261.376 742.753 258.352 739.507 L265.068 739.507 Q267.36 742.881 268.506 746.668 Q269.652 750.424 269.652 754.626 Q269.652 765.415 263.063 771.622 Q256.443 777.829 245.016 777.829 Q233.558 777.829 226.97 771.622 Q220.349 765.415 220.349 754.626 Q220.349 750.36 221.495 746.605 Q222.609 742.817 224.869 739.507 Z" fill="#000000" fill-rule="nonzero" fill-opacity="1" /><path clip-path="url(#clip550)" d="M237.186 716.017 Q237.186 720.728 240.879 723.465 Q244.539 726.203 250.936 726.203 Q257.334 726.203 261.026 723.497 Q264.686 720.76 264.686 716.017 Q264.686 711.339 260.994 708.601 Q257.302 705.864 250.936 705.864 Q244.603 705.864 240.91 708.601 Q237.186 711.339 237.186 716.017 M232.221 716.017 Q232.221 708.379 237.186 704.018 Q242.152 699.658 250.936 699.658 Q259.689 699.658 264.686 704.018 Q269.652 708.379 269.652 716.017 Q269.652 723.688 264.686 728.049 Q259.689 732.377 250.936 732.377 Q242.152 732.377 237.186 728.049 Q232.221 723.688 232.221 716.017 Z" fill="#000000" fill-rule="nonzero" fill-opacity="1" /><path clip-path="url(#clip550)" d="M254.66 690.555 L233.081 690.555 L233.081 684.698 L254.438 684.698 Q259.498 684.698 262.045 682.725 Q264.559 680.751 264.559 676.805 Q264.559 672.062 261.535 669.325 Q258.512 666.556 253.292 666.556 L233.081 666.556 L233.081 660.7 L268.729 660.7 L268.729 666.556 L263.254 666.556 Q266.501 668.688 268.092 671.521 Q269.652 674.322 269.652 678.046 Q269.652 684.189 265.832 687.372 Q262.013 690.555 254.66 690.555 M232.221 675.818 L232.221 675.818 Z" fill="#000000" fill-rule="nonzero" fill-opacity="1" /><path clip-path="url(#clip550)" d="M247.212 619.004 L268.729 619.004 L268.729 624.861 L247.403 624.861 Q242.343 624.861 239.828 626.834 Q237.314 628.807 237.314 632.754 Q237.314 637.497 240.338 640.234 Q243.361 642.971 248.581 642.971 L268.729 642.971 L268.729 648.859 L233.081 648.859 L233.081 642.971 L238.619 642.971 Q235.404 640.87 233.813 638.038 Q232.221 635.173 232.221 631.449 Q232.221 625.306 236.041 622.155 Q239.828 619.004 247.212 619.004 Z" fill="#000000" fill-rule="nonzero" fill-opacity="1" /><path clip-path="url(#clip550)" d="M222.959 601.53 L233.081 601.53 L233.081 589.467 L237.632 589.467 L237.632 601.53 L256.984 601.53 Q261.344 601.53 262.586 600.353 Q263.827 599.143 263.827 595.483 L263.827 589.467 L268.729 589.467 L268.729 595.483 Q268.729 602.262 266.214 604.84 Q263.668 607.419 256.984 607.419 L237.632 607.419 L237.632 611.715 L233.081 611.715 L233.081 607.419 L222.959 607.419 L222.959 601.53 Z" fill="#000000" fill-rule="nonzero" fill-opacity="1" /><path clip-path="url(#clip552)" d="M557.55 991.478 L557.55 1241.31 L615.284 1241.31 L615.284 991.478 L557.55 991.478 L557.55 991.478  Z" fill="#4682b4" fill-rule="evenodd" fill-opacity="0.6"/>
<polyline clip-path="url(#clip552)" style="stroke:#000000; stroke-linecap:round; stroke-linejoin:round; stroke-width:4; stroke-opacity:1; fill:none" points="557.55,991.478 557.55,1241.31 615.284,1241.31 615.284,991.478 557.55,991.478 "/>
<path clip-path="url(#clip552)" d="M615.284 331.204 L615.284 1241.31 L673.018 1241.31 L673.018 331.204 L615.284 331.204 L615.284 331.204  Z" fill="#4682b4" fill-rule="evenodd" fill-opacity="0.6"/>
<polyline clip-path="url(#clip552)" style="stroke:#000000; stroke-linecap:round; stroke-linejoin:round; stroke-width:4; stroke-opacity:1; fill:none" points="615.284,331.204 615.284,1241.31 673.018,1241.31 673.018,331.204 615.284,331.204 "/>
<path clip-path="url(#clip552)" d="M673.018 125.984 L673.018 1241.31 L730.753 1241.31 L730.753 125.984 L673.018 125.984 L673.018 125.984  Z" fill="#4682b4" fill-rule="evenodd" fill-opacity="0.6"/>
<polyline clip-path="url(#clip552)" style="stroke:#000000; stroke-linecap:round; stroke-linejoin:round; stroke-width:4; stroke-opacity:1; fill:none" points="673.018,125.984 673.018,1241.31 730.753,1241.31 730.753,125.984 673.018,125.984 "/>
<path clip-path="url(#clip552)" d="M730.753 572.115 L730.753 1241.31 L788.487 1241.31 L788.487 572.115 L730.753 572.115 L730.753 572.115  Z" fill="#4682b4" fill-rule="evenodd" fill-opacity="0.6"/>
<polyline clip-path="url(#clip552)" style="stroke:#000000; stroke-linecap:round; stroke-linejoin:round; stroke-width:4; stroke-opacity:1; fill:none" points="730.753,572.115 730.753,1241.31 788.487,1241.31 788.487,572.115 730.753,572.115 "/>
<path clip-path="url(#clip552)" d="M788.487 750.568 L788.487 1241.31 L846.222 1241.31 L846.222 750.568 L788.487 750.568 L788.487 750.568  Z" fill="#4682b4" fill-rule="evenodd" fill-opacity="0.6"/>
<polyline clip-path="url(#clip552)" style="stroke:#000000; stroke-linecap:round; stroke-linejoin:round; stroke-width:4; stroke-opacity:1; fill:none" points="788.487,750.568 788.487,1241.31 846.222,1241.31 846.222,750.568 788.487,750.568 "/>
<path clip-path="url(#clip552)" d="M846.222 857.639 L846.222 1241.31 L903.956 1241.31 L903.956 857.639 L846.222 857.639 L846.222 857.639  Z" fill="#4682b4" fill-rule="evenodd" fill-opacity="0.6"/>
<polyline clip-path="url(#clip552)" style="stroke:#000000; stroke-linecap:round; stroke-linejoin:round; stroke-width:4; stroke-opacity:1; fill:none" points="846.222,857.639 846.222,1241.31 903.956,1241.31 903.956,857.639 846.222,857.639 "/>
<path clip-path="url(#clip552)" d="M903.956 1062.86 L903.956 1241.31 L961.69 1241.31 L961.69 1062.86 L903.956 1062.86 L903.956 1062.86  Z" fill="#4682b4" fill-rule="evenodd" fill-opacity="0.6"/>
<polyline clip-path="url(#clip552)" style="stroke:#000000; stroke-linecap:round; stroke-linejoin:round; stroke-width:4; stroke-opacity:1; fill:none" points="903.956,1062.86 903.956,1241.31 961.69,1241.31 961.69,1062.86 903.956,1062.86 "/>
<path clip-path="url(#clip552)" d="M961.69 1062.86 L961.69 1241.31 L1019.42 1241.31 L1019.42 1062.86 L961.69 1062.86 L961.69 1062.86  Z" fill="#4682b4" fill-rule="evenodd" fill-opacity="0.6"/>
<polyline clip-path="url(#clip552)" style="stroke:#000000; stroke-linecap:round; stroke-linejoin:round; stroke-width:4; stroke-opacity:1; fill:none" points="961.69,1062.86 961.69,1241.31 1019.42,1241.31 1019.42,1062.86 961.69,1062.86 "/>
<path clip-path="url(#clip552)" d="M1019.42 1152.09 L1019.42 1241.31 L1077.16 1241.31 L1077.16 1152.09 L1019.42 1152.09 L1019.42 1152.09  Z" fill="#4682b4" fill-rule="evenodd" fill-opacity="0.6"/>
<polyline clip-path="url(#clip552)" style="stroke:#000000; stroke-linecap:round; stroke-linejoin:round; stroke-width:4; stroke-opacity:1; fill:none" points="1019.42,1152.09 1019.42,1241.31 1077.16,1241.31 1077.16,1152.09 1019.42,1152.09 "/>
<path clip-path="url(#clip552)" d="M1077.16 1178.85 L1077.16 1241.31 L1134.89 1241.31 L1134.89 1178.85 L1077.16 1178.85 L1077.16 1178.85  Z" fill="#4682b4" fill-rule="evenodd" fill-opacity="0.6"/>
<polyline clip-path="url(#clip552)" style="stroke:#000000; stroke-linecap:round; stroke-linejoin:round; stroke-width:4; stroke-opacity:1; fill:none" points="1077.16,1178.85 1077.16,1241.31 1134.89,1241.31 1134.89,1178.85 1077.16,1178.85 "/>
<path clip-path="url(#clip552)" d="M1134.89 1214.54 L1134.89 1241.31 L1192.63 1241.31 L1192.63 1214.54 L1134.89 1214.54 L1134.89 1214.54  Z" fill="#4682b4" fill-rule="evenodd" fill-opacity="0.6"/>
<polyline clip-path="url(#clip552)" style="stroke:#000000; stroke-linecap:round; stroke-linejoin:round; stroke-width:4; stroke-opacity:1; fill:none" points="1134.89,1214.54 1134.89,1241.31 1192.63,1241.31 1192.63,1214.54 1134.89,1214.54 "/>
<path clip-path="url(#clip552)" d="M1192.63 1196.7 L1192.63 1241.31 L1250.36 1241.31 L1250.36 1196.7 L1192.63 1196.7 L1192.63 1196.7  Z" fill="#4682b4" fill-rule="evenodd" fill-opacity="0.6"/>
<polyline clip-path="url(#clip552)" style="stroke:#000000; stroke-linecap:round; stroke-linejoin:round; stroke-width:4; stroke-opacity:1; fill:none" points="1192.63,1196.7 1192.63,1241.31 1250.36,1241.31 1250.36,1196.7 1192.63,1196.7 "/>
<path clip-path="url(#clip552)" d="M1250.36 1196.7 L1250.36 1241.31 L1308.1 1241.31 L1308.1 1196.7 L1250.36 1196.7 L1250.36 1196.7  Z" fill="#4682b4" fill-rule="evenodd" fill-opacity="0.6"/>
<polyline clip-path="url(#clip552)" style="stroke:#000000; stroke-linecap:round; stroke-linejoin:round; stroke-width:4; stroke-opacity:1; fill:none" points="1250.36,1196.7 1250.36,1241.31 1308.1,1241.31 1308.1,1196.7 1250.36,1196.7 "/>
<path clip-path="url(#clip552)" d="M1308.1 1232.39 L1308.1 1241.31 L1365.83 1241.31 L1365.83 1232.39 L1308.1 1232.39 L1308.1 1232.39  Z" fill="#4682b4" fill-rule="evenodd" fill-opacity="0.6"/>
<polyline clip-path="url(#clip552)" style="stroke:#000000; stroke-linecap:round; stroke-linejoin:round; stroke-width:4; stroke-opacity:1; fill:none" points="1308.1,1232.39 1308.1,1241.31 1365.83,1241.31 1365.83,1232.39 1308.1,1232.39 "/>
<path clip-path="url(#clip552)" d="M1365.83 1241.31 L1365.83 1241.31 L1423.57 1241.31 L1423.57 1241.31 L1365.83 1241.31 L1365.83 1241.31  Z" fill="#4682b4" fill-rule="evenodd" fill-opacity="0.6"/>
<polyline clip-path="url(#clip552)" style="stroke:#000000; stroke-linecap:round; stroke-linejoin:round; stroke-width:4; stroke-opacity:1; fill:none" points="1365.83,1241.31 1365.83,1241.31 1423.57,1241.31 1365.83,1241.31 "/>
<path clip-path="url(#clip552)" d="M1423.57 1241.31 L1423.57 1241.31 L1481.3 1241.31 L1481.3 1241.31 L1423.57 1241.31 L1423.57 1241.31  Z" fill="#4682b4" fill-rule="evenodd" fill-opacity="0.6"/>
<polyline clip-path="url(#clip552)" style="stroke:#000000; stroke-linecap:round; stroke-linejoin:round; stroke-width:4; stroke-opacity:1; fill:none" points="1423.57,1241.31 1423.57,1241.31 1481.3,1241.31 1423.57,1241.31 "/>
<path clip-path="url(#clip552)" d="M1481.3 1241.31 L1481.3 1241.31 L1539.03 1241.31 L1539.03 1241.31 L1481.3 1241.31 L1481.3 1241.31  Z" fill="#4682b4" fill-rule="evenodd" fill-opacity="0.6"/>
<polyline clip-path="url(#clip552)" style="stroke:#000000; stroke-linecap:round; stroke-linejoin:round; stroke-width:4; stroke-opacity:1; fill:none" points="1481.3,1241.31 1481.3,1241.31 1539.03,1241.31 1481.3,1241.31 "/>
<path clip-path="url(#clip552)" d="M1539.03 1241.31 L1539.03 1241.31 L1596.77 1241.31 L1596.77 1241.31 L1539.03 1241.31 L1539.03 1241.31  Z" fill="#4682b4" fill-rule="evenodd" fill-opacity="0.6"/>
<polyline clip-path="url(#clip552)" style="stroke:#000000; stroke-linecap:round; stroke-linejoin:round; stroke-width:4; stroke-opacity:1; fill:none" points="1539.03,1241.31 1539.03,1241.31 1596.77,1241.31 1539.03,1241.31 "/>
<path clip-path="url(#clip552)" d="M1596.77 1241.31 L1596.77 1241.31 L1654.5 1241.31 L1654.5 1241.31 L1596.77 1241.31 L1596.77 1241.31  Z" fill="#4682b4" fill-rule="evenodd" fill-opacity="0.6"/>
<polyline clip-path="url(#clip552)" style="stroke:#000000; stroke-linecap:round; stroke-linejoin:round; stroke-width:4; stroke-opacity:1; fill:none" points="1596.77,1241.31 1596.77,1241.31 1654.5,1241.31 1596.77,1241.31 "/>
<path clip-path="url(#clip552)" d="M1654.5 1241.31 L1654.5 1241.31 L1712.24 1241.31 L1712.24 1241.31 L1654.5 1241.31 L1654.5 1241.31  Z" fill="#4682b4" fill-rule="evenodd" fill-opacity="0.6"/>
<polyline clip-path="url(#clip552)" style="stroke:#000000; stroke-linecap:round; stroke-linejoin:round; stroke-width:4; stroke-opacity:1; fill:none" points="1654.5,1241.31 1654.5,1241.31 1712.24,1241.31 1654.5,1241.31 "/>
<path clip-path="url(#clip552)" d="M1712.24 1241.31 L1712.24 1241.31 L1769.97 1241.31 L1769.97 1241.31 L1712.24 1241.31 L1712.24 1241.31  Z" fill="#4682b4" fill-rule="evenodd" fill-opacity="0.6"/>
<polyline clip-path="url(#clip552)" style="stroke:#000000; stroke-linecap:round; stroke-linejoin:round; stroke-width:4; stroke-opacity:1; fill:none" points="1712.24,1241.31 1712.24,1241.31 1769.97,1241.31 1712.24,1241.31 "/>
<path clip-path="url(#clip552)" d="M1769.97 1241.31 L1769.97 1241.31 L1827.71 1241.31 L1827.71 1241.31 L1769.97 1241.31 L1769.97 1241.31  Z" fill="#4682b4" fill-rule="evenodd" fill-opacity="0.6"/>
<polyline clip-path="url(#clip552)" style="stroke:#000000; stroke-linecap:round; stroke-linejoin:round; stroke-width:4; stroke-opacity:1; fill:none" points="1769.97,1241.31 1769.97,1241.31 1827.71,1241.31 1769.97,1241.31 "/>
<path clip-path="url(#clip552)" d="M1827.71 1241.31 L1827.71 1241.31 L1885.44 1241.31 L1885.44 1241.31 L1827.71 1241.31 L1827.71 1241.31  Z" fill="#4682b4" fill-rule="evenodd" fill-opacity="0.6"/>
<polyline clip-path="url(#clip552)" style="stroke:#000000; stroke-linecap:round; stroke-linejoin:round; stroke-width:4; stroke-opacity:1; fill:none" points="1827.71,1241.31 1827.71,1241.31 1885.44,1241.31 1827.71,1241.31 "/>
<path clip-path="url(#clip552)" d="M1885.44 1241.31 L1885.44 1241.31 L1943.17 1241.31 L1943.17 1241.31 L1885.44 1241.31 L1885.44 1241.31  Z" fill="#4682b4" fill-rule="evenodd" fill-opacity="0.6"/>
<polyline clip-path="url(#clip552)" style="stroke:#000000; stroke-linecap:round; stroke-linejoin:round; stroke-width:4; stroke-opacity:1; fill:none" points="1885.44,1241.31 1885.44,1241.31 1943.17,1241.31 1885.44,1241.31 "/>
<path clip-path="url(#clip552)" d="M1943.17 1241.31 L1943.17 1241.31 L2000.91 1241.31 L2000.91 1241.31 L1943.17 1241.31 L1943.17 1241.31  Z" fill="#4682b4" fill-rule="evenodd" fill-opacity="0.6"/>
<polyline clip-path="url(#clip552)" style="stroke:#000000; stroke-linecap:round; stroke-linejoin:round; stroke-width:4; stroke-opacity:1; fill:none" points="1943.17,1241.31 1943.17,1241.31 2000.91,1241.31 1943.17,1241.31 "/>
<path clip-path="url(#clip552)" d="M2000.91 1241.31 L2000.91 1241.31 L2058.64 1241.31 L2058.64 1241.31 L2000.91 1241.31 L2000.91 1241.31  Z" fill="#4682b4" fill-rule="evenodd" fill-opacity="0.6"/>
<polyline clip-path="url(#clip552)" style="stroke:#000000; stroke-linecap:round; stroke-linejoin:round; stroke-width:4; stroke-opacity:1; fill:none" points="2000.91,1241.31 2000.91,1241.31 2058.64,1241.31 2000.91,1241.31 "/>
<path clip-path="url(#clip552)" d="M2058.64 1241.31 L2058.64 1241.31 L2116.38 1241.31 L2116.38 1241.31 L2058.64 1241.31 L2058.64 1241.31  Z" fill="#4682b4" fill-rule="evenodd" fill-opacity="0.6"/>
<polyline clip-path="url(#clip552)" style="stroke:#000000; stroke-linecap:round; stroke-linejoin:round; stroke-width:4; stroke-opacity:1; fill:none" points="2058.64,1241.31 2058.64,1241.31 2116.38,1241.31 2058.64,1241.31 "/>
<path clip-path="url(#clip552)" d="M2116.38 1232.39 L2116.38 1241.31 L2174.11 1241.31 L2174.11 1232.39 L2116.38 1232.39 L2116.38 1232.39  Z" fill="#4682b4" fill-rule="evenodd" fill-opacity="0.6"/>
<polyline clip-path="url(#clip552)" style="stroke:#000000; stroke-linecap:round; stroke-linejoin:round; stroke-width:4; stroke-opacity:1; fill:none" points="2116.38,1232.39 2116.38,1241.31 2174.11,1241.31 2174.11,1232.39 2116.38,1232.39 "/>
<circle clip-path="url(#clip552)" style="fill:#4682b4; stroke:none; fill-opacity:0" cx="586.417" cy="991.478" r="2"/>
<circle clip-path="url(#clip552)" style="fill:#4682b4; stroke:none; fill-opacity:0" cx="644.151" cy="331.204" r="2"/>
<circle clip-path="url(#clip552)" style="fill:#4682b4; stroke:none; fill-opacity:0" cx="701.886" cy="125.984" r="2"/>
<circle clip-path="url(#clip552)" style="fill:#4682b4; stroke:none; fill-opacity:0" cx="759.62" cy="572.115" r="2"/>
<circle clip-path="url(#clip552)" style="fill:#4682b4; stroke:none; fill-opacity:0" cx="817.354" cy="750.568" r="2"/>
<circle clip-path="url(#clip552)" style="fill:#4682b4; stroke:none; fill-opacity:0" cx="875.089" cy="857.639" r="2"/>
<circle clip-path="url(#clip552)" style="fill:#4682b4; stroke:none; fill-opacity:0" cx="932.823" cy="1062.86" r="2"/>
<circle clip-path="url(#clip552)" style="fill:#4682b4; stroke:none; fill-opacity:0" cx="990.557" cy="1062.86" r="2"/>
<circle clip-path="url(#clip552)" style="fill:#4682b4; stroke:none; fill-opacity:0" cx="1048.29" cy="1152.09" r="2"/>
<circle clip-path="url(#clip552)" style="fill:#4682b4; stroke:none; fill-opacity:0" cx="1106.03" cy="1178.85" r="2"/>
<circle clip-path="url(#clip552)" style="fill:#4682b4; stroke:none; fill-opacity:0" cx="1163.76" cy="1214.54" r="2"/>
<circle clip-path="url(#clip552)" style="fill:#4682b4; stroke:none; fill-opacity:0" cx="1221.49" cy="1196.7" r="2"/>
<circle clip-path="url(#clip552)" style="fill:#4682b4; stroke:none; fill-opacity:0" cx="1279.23" cy="1196.7" r="2"/>
<circle clip-path="url(#clip552)" style="fill:#4682b4; stroke:none; fill-opacity:0" cx="1336.96" cy="1232.39" r="2"/>
<circle clip-path="url(#clip552)" style="fill:#4682b4; stroke:none; fill-opacity:0" cx="1394.7" cy="1241.31" r="2"/>
<circle clip-path="url(#clip552)" style="fill:#4682b4; stroke:none; fill-opacity:0" cx="1452.43" cy="1241.31" r="2"/>
<circle clip-path="url(#clip552)" style="fill:#4682b4; stroke:none; fill-opacity:0" cx="1510.17" cy="1241.31" r="2"/>
<circle clip-path="url(#clip552)" style="fill:#4682b4; stroke:none; fill-opacity:0" cx="1567.9" cy="1241.31" r="2"/>
<circle clip-path="url(#clip552)" style="fill:#4682b4; stroke:none; fill-opacity:0" cx="1625.64" cy="1241.31" r="2"/>
<circle clip-path="url(#clip552)" style="fill:#4682b4; stroke:none; fill-opacity:0" cx="1683.37" cy="1241.31" r="2"/>
<circle clip-path="url(#clip552)" style="fill:#4682b4; stroke:none; fill-opacity:0" cx="1741.1" cy="1241.31" r="2"/>
<circle clip-path="url(#clip552)" style="fill:#4682b4; stroke:none; fill-opacity:0" cx="1798.84" cy="1241.31" r="2"/>
<circle clip-path="url(#clip552)" style="fill:#4682b4; stroke:none; fill-opacity:0" cx="1856.57" cy="1241.31" r="2"/>
<circle clip-path="url(#clip552)" style="fill:#4682b4; stroke:none; fill-opacity:0" cx="1914.31" cy="1241.31" r="2"/>
<circle clip-path="url(#clip552)" style="fill:#4682b4; stroke:none; fill-opacity:0" cx="1972.04" cy="1241.31" r="2"/>
<circle clip-path="url(#clip552)" style="fill:#4682b4; stroke:none; fill-opacity:0" cx="2029.78" cy="1241.31" r="2"/>
<circle clip-path="url(#clip552)" style="fill:#4682b4; stroke:none; fill-opacity:0" cx="2087.51" cy="1241.31" r="2"/>
<circle clip-path="url(#clip552)" style="fill:#4682b4; stroke:none; fill-opacity:0" cx="2145.24" cy="1232.39" r="2"/>
<polyline clip-path="url(#clip552)" style="stroke:#ff0000; stroke-linecap:round; stroke-linejoin:round; stroke-width:8; stroke-opacity:1; fill:none" points="786.261,2356.64 786.261,-989.343 "/>
<polyline clip-path="url(#clip552)" style="stroke:#0000ff; stroke-linecap:round; stroke-linejoin:round; stroke-width:8; stroke-opacity:1; fill:none" stroke-dasharray="32, 20" points="726.425,2356.64 726.425,-989.343 "/>
<path clip-path="url(#clip550)" d="M1351.24 396.442 L2213.47 396.442 L2213.47 163.162 L1351.24 163.162  Z" fill="#ffffff" fill-rule="evenodd" fill-opacity="1"/>
<polyline clip-path="url(#clip550)" style="stroke:#000000; stroke-linecap:round; stroke-linejoin:round; stroke-width:4; stroke-opacity:1; fill:none" points="1351.24,396.442 2213.47,396.442 2213.47,163.162 1351.24,163.162 1351.24,396.442 "/>
<path clip-path="url(#clip550)" d="M1371.42 244.81 L1492.51 244.81 L1492.51 198.154 L1371.42 198.154 L1371.42 244.81  Z" fill="#4682b4" fill-rule="evenodd" fill-opacity="0.6"/>
<polyline clip-path="url(#clip550)" style="stroke:#000000; stroke-linecap:round; stroke-linejoin:round; stroke-width:4.5; stroke-opacity:1; fill:none" points="1371.42,244.81 1492.51,244.81 1492.51,198.154 1371.42,198.154 1371.42,244.81 "/>
<path clip-path="url(#clip550)" d="M1537.72 203.318 L1537.72 208.448 Q1534.72 207.016 1532.07 206.313 Q1529.41 205.61 1526.94 205.61 Q1522.64 205.61 1520.3 207.276 Q1517.98 208.943 1517.98 212.016 Q1517.98 214.594 1519.52 215.922 Q1521.08 217.224 1525.4 218.031 L1528.58 218.682 Q1534.46 219.802 1537.25 222.641 Q1540.06 225.453 1540.06 230.193 Q1540.06 235.844 1536.26 238.76 Q1532.48 241.677 1525.17 241.677 Q1522.41 241.677 1519.28 241.052 Q1516.18 240.427 1512.85 239.203 L1512.85 233.786 Q1516.05 235.583 1519.13 236.495 Q1522.2 237.406 1525.17 237.406 Q1529.67 237.406 1532.12 235.635 Q1534.57 233.865 1534.57 230.583 Q1534.57 227.719 1532.8 226.104 Q1531.05 224.49 1527.04 223.682 L1523.84 223.057 Q1517.95 221.885 1515.32 219.385 Q1512.69 216.885 1512.69 212.432 Q1512.69 207.276 1516.31 204.307 Q1519.96 201.339 1526.34 201.339 Q1529.07 201.339 1531.91 201.833 Q1534.75 202.328 1537.72 203.318 Z" fill="#000000" fill-rule="nonzero" fill-opacity="1" /><path clip-path="url(#clip550)" d="M1548.06 211.755 L1552.85 211.755 L1552.85 240.922 L1548.06 240.922 L1548.06 211.755 M1548.06 200.401 L1552.85 200.401 L1552.85 206.469 L1548.06 206.469 L1548.06 200.401 Z" fill="#000000" fill-rule="nonzero" fill-opacity="1" /><path clip-path="url(#clip550)" d="M1585.58 217.354 Q1587.38 214.125 1589.88 212.589 Q1592.38 211.052 1595.77 211.052 Q1600.32 211.052 1602.8 214.255 Q1605.27 217.432 1605.27 223.318 L1605.27 240.922 L1600.45 240.922 L1600.45 223.474 Q1600.45 219.281 1598.97 217.25 Q1597.48 215.219 1594.44 215.219 Q1590.71 215.219 1588.55 217.693 Q1586.39 220.167 1586.39 224.438 L1586.39 240.922 L1581.57 240.922 L1581.57 223.474 Q1581.57 219.255 1580.09 217.25 Q1578.6 215.219 1575.51 215.219 Q1571.83 215.219 1569.67 217.719 Q1567.51 220.193 1567.51 224.438 L1567.51 240.922 L1562.69 240.922 L1562.69 211.755 L1567.51 211.755 L1567.51 216.287 Q1569.15 213.604 1571.44 212.328 Q1573.73 211.052 1576.89 211.052 Q1580.06 211.052 1582.28 212.667 Q1584.52 214.281 1585.58 217.354 Z" fill="#000000" fill-rule="nonzero" fill-opacity="1" /><path clip-path="url(#clip550)" d="M1614.33 229.411 L1614.33 211.755 L1619.12 211.755 L1619.12 229.229 Q1619.12 233.37 1620.74 235.453 Q1622.35 237.51 1625.58 237.51 Q1629.46 237.51 1631.7 235.036 Q1633.97 232.562 1633.97 228.292 L1633.97 211.755 L1638.76 211.755 L1638.76 240.922 L1633.97 240.922 L1633.97 236.443 Q1632.22 239.099 1629.91 240.401 Q1627.61 241.677 1624.57 241.677 Q1619.54 241.677 1616.94 238.552 Q1614.33 235.427 1614.33 229.411 M1626.39 211.052 L1626.39 211.052 Z" fill="#000000" fill-rule="nonzero" fill-opacity="1" /><path clip-path="url(#clip550)" d="M1648.63 200.401 L1653.42 200.401 L1653.42 240.922 L1648.63 240.922 L1648.63 200.401 Z" fill="#000000" fill-rule="nonzero" fill-opacity="1" /><path clip-path="url(#clip550)" d="M1676.7 226.26 Q1670.9 226.26 1668.66 227.589 Q1666.42 228.917 1666.42 232.12 Q1666.42 234.672 1668.08 236.182 Q1669.78 237.667 1672.67 237.667 Q1676.65 237.667 1679.05 234.854 Q1681.47 232.016 1681.47 227.328 L1681.47 226.26 L1676.7 226.26 M1686.26 224.281 L1686.26 240.922 L1681.47 240.922 L1681.47 236.495 Q1679.83 239.151 1677.38 240.427 Q1674.93 241.677 1671.39 241.677 Q1666.91 241.677 1664.25 239.177 Q1661.62 236.651 1661.62 232.432 Q1661.62 227.51 1664.91 225.01 Q1668.21 222.51 1674.75 222.51 L1681.47 222.51 L1681.47 222.042 Q1681.47 218.734 1679.28 216.938 Q1677.12 215.115 1673.19 215.115 Q1670.69 215.115 1668.32 215.714 Q1665.95 216.313 1663.76 217.51 L1663.76 213.083 Q1666.39 212.068 1668.86 211.573 Q1671.34 211.052 1673.68 211.052 Q1680.01 211.052 1683.13 214.333 Q1686.26 217.615 1686.26 224.281 Z" fill="#000000" fill-rule="nonzero" fill-opacity="1" /><path clip-path="url(#clip550)" d="M1700.87 203.474 L1700.87 211.755 L1710.74 211.755 L1710.74 215.479 L1700.87 215.479 L1700.87 231.313 Q1700.87 234.88 1701.83 235.896 Q1702.82 236.911 1705.82 236.911 L1710.74 236.911 L1710.74 240.922 L1705.82 240.922 Q1700.27 240.922 1698.16 238.865 Q1696.05 236.781 1696.05 231.313 L1696.05 215.479 L1692.54 215.479 L1692.54 211.755 L1696.05 211.755 L1696.05 203.474 L1700.87 203.474 Z" fill="#000000" fill-rule="nonzero" fill-opacity="1" /><path clip-path="url(#clip550)" d="M1741.99 225.141 L1741.99 227.484 L1719.96 227.484 Q1720.27 232.432 1722.93 235.036 Q1725.61 237.615 1730.37 237.615 Q1733.13 237.615 1735.71 236.937 Q1738.32 236.26 1740.87 234.906 L1740.87 239.437 Q1738.29 240.531 1735.58 241.104 Q1732.87 241.677 1730.09 241.677 Q1723.11 241.677 1719.02 237.615 Q1714.96 233.552 1714.96 226.625 Q1714.96 219.464 1718.81 215.271 Q1722.69 211.052 1729.25 211.052 Q1735.14 211.052 1738.55 214.854 Q1741.99 218.63 1741.99 225.141 M1737.2 223.734 Q1737.14 219.802 1734.98 217.458 Q1732.85 215.115 1729.31 215.115 Q1725.3 215.115 1722.87 217.38 Q1720.48 219.646 1720.11 223.76 L1737.2 223.734 Z" fill="#000000" fill-rule="nonzero" fill-opacity="1" /><path clip-path="url(#clip550)" d="M1769.05 216.182 L1769.05 200.401 L1773.84 200.401 L1773.84 240.922 L1769.05 240.922 L1769.05 236.547 Q1767.54 239.151 1765.22 240.427 Q1762.93 241.677 1759.7 241.677 Q1754.41 241.677 1751.08 237.458 Q1747.77 233.24 1747.77 226.365 Q1747.77 219.49 1751.08 215.271 Q1754.41 211.052 1759.7 211.052 Q1762.93 211.052 1765.22 212.328 Q1767.54 213.578 1769.05 216.182 M1752.72 226.365 Q1752.72 231.651 1754.88 234.672 Q1757.07 237.667 1760.87 237.667 Q1764.67 237.667 1766.86 234.672 Q1769.05 231.651 1769.05 226.365 Q1769.05 221.078 1766.86 218.083 Q1764.67 215.063 1760.87 215.063 Q1757.07 215.063 1754.88 218.083 Q1752.72 221.078 1752.72 226.365 Z" fill="#000000" fill-rule="nonzero" fill-opacity="1" /><path clip-path="url(#clip550)" d="M1805.4 203.474 L1805.4 211.755 L1815.27 211.755 L1815.27 215.479 L1805.4 215.479 L1805.4 231.313 Q1805.4 234.88 1806.36 235.896 Q1807.35 236.911 1810.35 236.911 L1815.27 236.911 L1815.27 240.922 L1810.35 240.922 Q1804.8 240.922 1802.69 238.865 Q1800.58 236.781 1800.58 231.313 L1800.58 215.479 L1797.07 215.479 L1797.07 211.755 L1800.58 211.755 L1800.58 203.474 L1805.4 203.474 Z" fill="#000000" fill-rule="nonzero" fill-opacity="1" /><path clip-path="url(#clip550)" d="M1846.52 225.141 L1846.52 227.484 L1824.49 227.484 Q1824.8 232.432 1827.46 235.036 Q1830.14 237.615 1834.9 237.615 Q1837.67 237.615 1840.24 236.937 Q1842.85 236.26 1845.4 234.906 L1845.4 239.437 Q1842.82 240.531 1840.11 241.104 Q1837.4 241.677 1834.62 241.677 Q1827.64 241.677 1823.55 237.615 Q1819.49 233.552 1819.49 226.625 Q1819.49 219.464 1823.34 215.271 Q1827.22 211.052 1833.78 211.052 Q1839.67 211.052 1843.08 214.854 Q1846.52 218.63 1846.52 225.141 M1841.73 223.734 Q1841.68 219.802 1839.51 217.458 Q1837.38 215.115 1833.84 215.115 Q1829.83 215.115 1827.4 217.38 Q1825.01 219.646 1824.64 223.76 L1841.73 223.734 Z" fill="#000000" fill-rule="nonzero" fill-opacity="1" /><path clip-path="url(#clip550)" d="M1871.28 216.234 Q1870.48 215.766 1869.51 215.557 Q1868.58 215.323 1867.43 215.323 Q1863.37 215.323 1861.18 217.979 Q1859.02 220.609 1859.02 225.557 L1859.02 240.922 L1854.2 240.922 L1854.2 211.755 L1859.02 211.755 L1859.02 216.287 Q1860.53 213.63 1862.95 212.354 Q1865.37 211.052 1868.84 211.052 Q1869.33 211.052 1869.93 211.13 Q1870.53 211.182 1871.26 211.313 L1871.28 216.234 Z" fill="#000000" fill-rule="nonzero" fill-opacity="1" /><path clip-path="url(#clip550)" d="M1898.08 217.354 Q1899.88 214.125 1902.38 212.589 Q1904.88 211.052 1908.26 211.052 Q1912.82 211.052 1915.29 214.255 Q1917.77 217.432 1917.77 223.318 L1917.77 240.922 L1912.95 240.922 L1912.95 223.474 Q1912.95 219.281 1911.47 217.25 Q1909.98 215.219 1906.94 215.219 Q1903.21 215.219 1901.05 217.693 Q1898.89 220.167 1898.89 224.438 L1898.89 240.922 L1894.07 240.922 L1894.07 223.474 Q1894.07 219.255 1892.59 217.25 Q1891.1 215.219 1888 215.219 Q1884.33 215.219 1882.17 217.719 Q1880.01 220.193 1880.01 224.438 L1880.01 240.922 L1875.19 240.922 L1875.19 211.755 L1880.01 211.755 L1880.01 216.287 Q1881.65 213.604 1883.94 212.328 Q1886.23 211.052 1889.38 211.052 Q1892.56 211.052 1894.77 212.667 Q1897.01 214.281 1898.08 217.354 Z" fill="#000000" fill-rule="nonzero" fill-opacity="1" /><path clip-path="url(#clip550)" d="M1927.33 211.755 L1932.12 211.755 L1932.12 240.922 L1927.33 240.922 L1927.33 211.755 M1927.33 200.401 L1932.12 200.401 L1932.12 206.469 L1927.33 206.469 L1927.33 200.401 Z" fill="#000000" fill-rule="nonzero" fill-opacity="1" /><path clip-path="url(#clip550)" d="M1966.39 223.318 L1966.39 240.922 L1961.6 240.922 L1961.6 223.474 Q1961.6 219.333 1959.98 217.276 Q1958.37 215.219 1955.14 215.219 Q1951.26 215.219 1949.02 217.693 Q1946.78 220.167 1946.78 224.438 L1946.78 240.922 L1941.96 240.922 L1941.96 211.755 L1946.78 211.755 L1946.78 216.287 Q1948.5 213.656 1950.82 212.354 Q1953.16 211.052 1956.21 211.052 Q1961.23 211.052 1963.81 214.177 Q1966.39 217.276 1966.39 223.318 Z" fill="#000000" fill-rule="nonzero" fill-opacity="1" /><path clip-path="url(#clip550)" d="M1989.2 226.26 Q1983.39 226.26 1981.15 227.589 Q1978.91 228.917 1978.91 232.12 Q1978.91 234.672 1980.58 236.182 Q1982.27 237.667 1985.16 237.667 Q1989.15 237.667 1991.54 234.854 Q1993.97 232.016 1993.97 227.328 L1993.97 226.26 L1989.2 226.26 M1998.76 224.281 L1998.76 240.922 L1993.97 240.922 L1993.97 236.495 Q1992.33 239.151 1989.88 240.427 Q1987.43 241.677 1983.89 241.677 Q1979.41 241.677 1976.75 239.177 Q1974.12 236.651 1974.12 232.432 Q1974.12 227.51 1977.4 225.01 Q1980.71 222.51 1987.25 222.51 L1993.97 222.51 L1993.97 222.042 Q1993.97 218.734 1991.78 216.938 Q1989.62 215.115 1985.69 215.115 Q1983.19 215.115 1980.82 215.714 Q1978.45 216.313 1976.26 217.51 L1976.26 213.083 Q1978.89 212.068 1981.36 211.573 Q1983.84 211.052 1986.18 211.052 Q1992.51 211.052 1995.63 214.333 Q1998.76 217.615 1998.76 224.281 Z" fill="#000000" fill-rule="nonzero" fill-opacity="1" /><path clip-path="url(#clip550)" d="M2008.63 200.401 L2013.42 200.401 L2013.42 240.922 L2008.63 240.922 L2008.63 200.401 Z" fill="#000000" fill-rule="nonzero" fill-opacity="1" /><path clip-path="url(#clip550)" d="M2045.03 236.547 L2045.03 252.016 L2040.22 252.016 L2040.22 211.755 L2045.03 211.755 L2045.03 216.182 Q2046.54 213.578 2048.84 212.328 Q2051.15 211.052 2054.36 211.052 Q2059.67 211.052 2062.98 215.271 Q2066.31 219.49 2066.31 226.365 Q2066.31 233.24 2062.98 237.458 Q2059.67 241.677 2054.36 241.677 Q2051.15 241.677 2048.84 240.427 Q2046.54 239.151 2045.03 236.547 M2061.34 226.365 Q2061.34 221.078 2059.15 218.083 Q2056.99 215.063 2053.18 215.063 Q2049.38 215.063 2047.2 218.083 Q2045.03 221.078 2045.03 226.365 Q2045.03 231.651 2047.2 234.672 Q2049.38 237.667 2053.18 237.667 Q2056.99 237.667 2059.15 234.672 Q2061.34 231.651 2061.34 226.365 Z" fill="#000000" fill-rule="nonzero" fill-opacity="1" /><path clip-path="url(#clip550)" d="M2091.15 216.234 Q2090.35 215.766 2089.38 215.557 Q2088.45 215.323 2087.3 215.323 Q2083.24 215.323 2081.05 217.979 Q2078.89 220.609 2078.89 225.557 L2078.89 240.922 L2074.07 240.922 L2074.07 211.755 L2078.89 211.755 L2078.89 216.287 Q2080.4 213.63 2082.82 212.354 Q2085.24 211.052 2088.71 211.052 Q2089.2 211.052 2089.8 211.13 Q2090.4 211.182 2091.13 211.313 L2091.15 216.234 Z" fill="#000000" fill-rule="nonzero" fill-opacity="1" /><path clip-path="url(#clip550)" d="M2096.18 211.755 L2100.97 211.755 L2100.97 240.922 L2096.18 240.922 L2096.18 211.755 M2096.18 200.401 L2100.97 200.401 L2100.97 206.469 L2096.18 206.469 L2096.18 200.401 Z" fill="#000000" fill-rule="nonzero" fill-opacity="1" /><path clip-path="url(#clip550)" d="M2131.99 212.875 L2131.99 217.354 Q2129.96 216.234 2127.9 215.688 Q2125.87 215.115 2123.78 215.115 Q2119.12 215.115 2116.54 218.083 Q2113.97 221.026 2113.97 226.365 Q2113.97 231.703 2116.54 234.672 Q2119.12 237.615 2123.78 237.615 Q2125.87 237.615 2127.9 237.068 Q2129.96 236.495 2131.99 235.375 L2131.99 239.802 Q2129.98 240.74 2127.82 241.208 Q2125.68 241.677 2123.26 241.677 Q2116.67 241.677 2112.79 237.536 Q2108.91 233.396 2108.91 226.365 Q2108.91 219.229 2112.82 215.141 Q2116.75 211.052 2123.58 211.052 Q2125.79 211.052 2127.9 211.521 Q2130.01 211.964 2131.99 212.875 Z" fill="#000000" fill-rule="nonzero" fill-opacity="1" /><path clip-path="url(#clip550)" d="M2165.27 225.141 L2165.27 227.484 L2143.24 227.484 Q2143.55 232.432 2146.21 235.036 Q2148.89 237.615 2153.65 237.615 Q2156.41 237.615 2158.99 236.937 Q2161.6 236.26 2164.15 234.906 L2164.15 239.437 Q2161.57 240.531 2158.86 241.104 Q2156.15 241.677 2153.37 241.677 Q2146.39 241.677 2142.3 237.615 Q2138.24 233.552 2138.24 226.625 Q2138.24 219.464 2142.09 215.271 Q2145.97 211.052 2152.53 211.052 Q2158.42 211.052 2161.83 214.854 Q2165.27 218.63 2165.27 225.141 M2160.48 223.734 Q2160.42 219.802 2158.26 217.458 Q2156.13 215.115 2152.59 215.115 Q2148.57 215.115 2146.15 217.38 Q2143.76 219.646 2143.39 223.76 L2160.48 223.734 Z" fill="#000000" fill-rule="nonzero" fill-opacity="1" /><path clip-path="url(#clip550)" d="M2191.73 212.615 L2191.73 217.146 Q2189.69 216.104 2187.51 215.583 Q2185.32 215.063 2182.98 215.063 Q2179.41 215.063 2177.61 216.156 Q2175.84 217.25 2175.84 219.438 Q2175.84 221.104 2177.12 222.068 Q2178.39 223.005 2182.25 223.865 L2183.89 224.229 Q2188.99 225.323 2191.13 227.328 Q2193.29 229.307 2193.29 232.875 Q2193.29 236.937 2190.06 239.307 Q2186.86 241.677 2181.23 241.677 Q2178.89 241.677 2176.34 241.208 Q2173.81 240.766 2171 239.854 L2171 234.906 Q2173.65 236.286 2176.23 236.99 Q2178.81 237.667 2181.34 237.667 Q2184.72 237.667 2186.54 236.521 Q2188.37 235.349 2188.37 233.24 Q2188.37 231.286 2187.04 230.245 Q2185.74 229.203 2181.28 228.24 L2179.62 227.849 Q2175.16 226.911 2173.18 224.984 Q2171.2 223.031 2171.2 219.646 Q2171.2 215.531 2174.12 213.292 Q2177.04 211.052 2182.4 211.052 Q2185.06 211.052 2187.4 211.443 Q2189.75 211.833 2191.73 212.615 Z" fill="#000000" fill-rule="nonzero" fill-opacity="1" /><polyline clip-path="url(#clip550)" style="stroke:#ff0000; stroke-linecap:round; stroke-linejoin:round; stroke-width:9; stroke-opacity:1; fill:none" points="1371.42,279.802 1492.51,279.802 "/>
<path clip-path="url(#clip550)" d="M1530.71 263.93 Q1524.98 263.93 1521.6 268.2 Q1518.24 272.471 1518.24 279.841 Q1518.24 287.185 1521.6 291.455 Q1524.98 295.726 1530.71 295.726 Q1536.44 295.726 1539.78 291.455 Q1543.14 287.185 1543.14 279.841 Q1543.14 272.471 1539.78 268.2 Q1536.44 263.93 1530.71 263.93 M1530.71 259.659 Q1538.89 259.659 1543.79 265.153 Q1548.68 270.622 1548.68 279.841 Q1548.68 289.034 1543.79 294.528 Q1538.89 299.997 1530.71 299.997 Q1522.51 299.997 1517.59 294.528 Q1512.69 289.06 1512.69 279.841 Q1512.69 270.622 1517.59 265.153 Q1522.51 259.659 1530.71 259.659 Z" fill="#000000" fill-rule="nonzero" fill-opacity="1" /><path clip-path="url(#clip550)" d="M1577.64 284.685 Q1577.64 279.398 1575.45 276.403 Q1573.29 273.383 1569.49 273.383 Q1565.69 273.383 1563.5 276.403 Q1561.34 279.398 1561.34 284.685 Q1561.34 289.971 1563.5 292.992 Q1565.69 295.987 1569.49 295.987 Q1573.29 295.987 1575.45 292.992 Q1577.64 289.971 1577.64 284.685 M1561.34 274.502 Q1562.85 271.898 1565.14 270.648 Q1567.46 269.372 1570.66 269.372 Q1575.97 269.372 1579.28 273.591 Q1582.61 277.81 1582.61 284.685 Q1582.61 291.56 1579.28 295.778 Q1575.97 299.997 1570.66 299.997 Q1567.46 299.997 1565.14 298.747 Q1562.85 297.471 1561.34 294.867 L1561.34 299.242 L1556.52 299.242 L1556.52 258.721 L1561.34 258.721 L1561.34 274.502 Z" fill="#000000" fill-rule="nonzero" fill-opacity="1" /><path clip-path="url(#clip550)" d="M1609.15 270.935 L1609.15 275.466 Q1607.12 274.424 1604.93 273.903 Q1602.74 273.383 1600.4 273.383 Q1596.83 273.383 1595.04 274.476 Q1593.27 275.57 1593.27 277.758 Q1593.27 279.424 1594.54 280.388 Q1595.82 281.325 1599.67 282.185 L1601.31 282.549 Q1606.42 283.643 1608.55 285.648 Q1610.71 287.627 1610.71 291.195 Q1610.71 295.257 1607.48 297.627 Q1604.28 299.997 1598.66 299.997 Q1596.31 299.997 1593.76 299.528 Q1591.23 299.086 1588.42 298.174 L1588.42 293.226 Q1591.08 294.606 1593.66 295.31 Q1596.23 295.987 1598.76 295.987 Q1602.15 295.987 1603.97 294.841 Q1605.79 293.669 1605.79 291.56 Q1605.79 289.606 1604.46 288.565 Q1603.16 287.523 1598.71 286.56 L1597.04 286.169 Q1592.59 285.231 1590.61 283.304 Q1588.63 281.351 1588.63 277.966 Q1588.63 273.851 1591.55 271.612 Q1594.46 269.372 1599.83 269.372 Q1602.48 269.372 1604.83 269.763 Q1607.17 270.153 1609.15 270.935 Z" fill="#000000" fill-rule="nonzero" fill-opacity="1" /><path clip-path="url(#clip550)" d="M1643.29 283.461 L1643.29 285.804 L1621.26 285.804 Q1621.57 290.752 1624.23 293.356 Q1626.91 295.935 1631.68 295.935 Q1634.44 295.935 1637.02 295.257 Q1639.62 294.58 1642.17 293.226 L1642.17 297.757 Q1639.59 298.851 1636.88 299.424 Q1634.18 299.997 1631.39 299.997 Q1624.41 299.997 1620.32 295.935 Q1616.26 291.872 1616.26 284.945 Q1616.26 277.784 1620.11 273.591 Q1623.99 269.372 1630.56 269.372 Q1636.44 269.372 1639.85 273.174 Q1643.29 276.95 1643.29 283.461 M1638.5 282.054 Q1638.45 278.122 1636.29 275.778 Q1634.15 273.435 1630.61 273.435 Q1626.6 273.435 1624.18 275.7 Q1621.78 277.966 1621.42 282.08 L1638.5 282.054 Z" fill="#000000" fill-rule="nonzero" fill-opacity="1" /><path clip-path="url(#clip550)" d="M1668.06 274.554 Q1667.25 274.086 1666.29 273.877 Q1665.35 273.643 1664.2 273.643 Q1660.14 273.643 1657.95 276.299 Q1655.79 278.929 1655.79 283.877 L1655.79 299.242 L1650.97 299.242 L1650.97 270.075 L1655.79 270.075 L1655.79 274.607 Q1657.3 271.95 1659.72 270.674 Q1662.15 269.372 1665.61 269.372 Q1666.1 269.372 1666.7 269.45 Q1667.3 269.502 1668.03 269.633 L1668.06 274.554 Z" fill="#000000" fill-rule="nonzero" fill-opacity="1" /><path clip-path="url(#clip550)" d="M1669.65 270.075 L1674.72 270.075 L1683.84 294.554 L1692.95 270.075 L1698.03 270.075 L1687.09 299.242 L1680.58 299.242 L1669.65 270.075 Z" fill="#000000" fill-rule="nonzero" fill-opacity="1" /><path clip-path="url(#clip550)" d="M1729.59 283.461 L1729.59 285.804 L1707.56 285.804 Q1707.87 290.752 1710.53 293.356 Q1713.21 295.935 1717.98 295.935 Q1720.74 295.935 1723.32 295.257 Q1725.92 294.58 1728.47 293.226 L1728.47 297.757 Q1725.89 298.851 1723.19 299.424 Q1720.48 299.997 1717.69 299.997 Q1710.71 299.997 1706.62 295.935 Q1702.56 291.872 1702.56 284.945 Q1702.56 277.784 1706.42 273.591 Q1710.3 269.372 1716.86 269.372 Q1722.74 269.372 1726.16 273.174 Q1729.59 276.95 1729.59 283.461 M1724.8 282.054 Q1724.75 278.122 1722.59 275.778 Q1720.45 273.435 1716.91 273.435 Q1712.9 273.435 1710.48 275.7 Q1708.08 277.966 1707.72 282.08 L1724.8 282.054 Z" fill="#000000" fill-rule="nonzero" fill-opacity="1" /><path clip-path="url(#clip550)" d="M1756.65 274.502 L1756.65 258.721 L1761.44 258.721 L1761.44 299.242 L1756.65 299.242 L1756.65 294.867 Q1755.14 297.471 1752.82 298.747 Q1750.53 299.997 1747.3 299.997 Q1742.01 299.997 1738.68 295.778 Q1735.37 291.56 1735.37 284.685 Q1735.37 277.81 1738.68 273.591 Q1742.01 269.372 1747.3 269.372 Q1750.53 269.372 1752.82 270.648 Q1755.14 271.898 1756.65 274.502 M1740.32 284.685 Q1740.32 289.971 1742.48 292.992 Q1744.67 295.987 1748.47 295.987 Q1752.27 295.987 1754.46 292.992 Q1756.65 289.971 1756.65 284.685 Q1756.65 279.398 1754.46 276.403 Q1752.27 273.383 1748.47 273.383 Q1744.67 273.383 1742.48 276.403 Q1740.32 279.398 1740.32 284.685 Z" fill="#000000" fill-rule="nonzero" fill-opacity="1" /><path clip-path="url(#clip550)" d="M1793 261.794 L1793 270.075 L1802.87 270.075 L1802.87 273.799 L1793 273.799 L1793 289.633 Q1793 293.2 1793.97 294.216 Q1794.96 295.231 1797.95 295.231 L1802.87 295.231 L1802.87 299.242 L1797.95 299.242 Q1792.4 299.242 1790.3 297.185 Q1788.19 295.101 1788.19 289.633 L1788.19 273.799 L1784.67 273.799 L1784.67 270.075 L1788.19 270.075 L1788.19 261.794 L1793 261.794 Z" fill="#000000" fill-rule="nonzero" fill-opacity="1" /><path clip-path="url(#clip550)" d="M1834.12 283.461 L1834.12 285.804 L1812.09 285.804 Q1812.4 290.752 1815.06 293.356 Q1817.74 295.935 1822.51 295.935 Q1825.27 295.935 1827.85 295.257 Q1830.45 294.58 1833 293.226 L1833 297.757 Q1830.43 298.851 1827.72 299.424 Q1825.01 299.997 1822.22 299.997 Q1815.24 299.997 1811.15 295.935 Q1807.09 291.872 1807.09 284.945 Q1807.09 277.784 1810.95 273.591 Q1814.83 269.372 1821.39 269.372 Q1827.27 269.372 1830.69 273.174 Q1834.12 276.95 1834.12 283.461 M1829.33 282.054 Q1829.28 278.122 1827.12 275.778 Q1824.98 273.435 1821.44 273.435 Q1817.43 273.435 1815.01 275.7 Q1812.61 277.966 1812.25 282.08 L1829.33 282.054 Z" fill="#000000" fill-rule="nonzero" fill-opacity="1" /><path clip-path="url(#clip550)" d="M1858.89 274.554 Q1858.08 274.086 1857.12 273.877 Q1856.18 273.643 1855.03 273.643 Q1850.97 273.643 1848.78 276.299 Q1846.62 278.929 1846.62 283.877 L1846.62 299.242 L1841.81 299.242 L1841.81 270.075 L1846.62 270.075 L1846.62 274.607 Q1848.13 271.95 1850.56 270.674 Q1852.98 269.372 1856.44 269.372 Q1856.94 269.372 1857.53 269.45 Q1858.13 269.502 1858.86 269.633 L1858.89 274.554 Z" fill="#000000" fill-rule="nonzero" fill-opacity="1" /><path clip-path="url(#clip550)" d="M1885.69 275.674 Q1887.48 272.445 1889.98 270.909 Q1892.48 269.372 1895.87 269.372 Q1900.43 269.372 1902.9 272.575 Q1905.37 275.752 1905.37 281.638 L1905.37 299.242 L1900.56 299.242 L1900.56 281.794 Q1900.56 277.601 1899.07 275.57 Q1897.59 273.539 1894.54 273.539 Q1890.82 273.539 1888.65 276.013 Q1886.49 278.487 1886.49 282.758 L1886.49 299.242 L1881.68 299.242 L1881.68 281.794 Q1881.68 277.575 1880.19 275.57 Q1878.71 273.539 1875.61 273.539 Q1871.94 273.539 1869.77 276.039 Q1867.61 278.513 1867.61 282.758 L1867.61 299.242 L1862.8 299.242 L1862.8 270.075 L1867.61 270.075 L1867.61 274.607 Q1869.25 271.924 1871.55 270.648 Q1873.84 269.372 1876.99 269.372 Q1880.16 269.372 1882.38 270.987 Q1884.62 272.601 1885.69 275.674 Z" fill="#000000" fill-rule="nonzero" fill-opacity="1" /><path clip-path="url(#clip550)" d="M1914.93 270.075 L1919.72 270.075 L1919.72 299.242 L1914.93 299.242 L1914.93 270.075 M1914.93 258.721 L1919.72 258.721 L1919.72 264.789 L1914.93 264.789 L1914.93 258.721 Z" fill="#000000" fill-rule="nonzero" fill-opacity="1" /><path clip-path="url(#clip550)" d="M1953.99 281.638 L1953.99 299.242 L1949.2 299.242 L1949.2 281.794 Q1949.2 277.653 1947.59 275.596 Q1945.97 273.539 1942.74 273.539 Q1938.86 273.539 1936.62 276.013 Q1934.38 278.487 1934.38 282.758 L1934.38 299.242 L1929.57 299.242 L1929.57 270.075 L1934.38 270.075 L1934.38 274.607 Q1936.1 271.976 1938.42 270.674 Q1940.76 269.372 1943.81 269.372 Q1948.84 269.372 1951.41 272.497 Q1953.99 275.596 1953.99 281.638 Z" fill="#000000" fill-rule="nonzero" fill-opacity="1" /><path clip-path="url(#clip550)" d="M1976.8 284.58 Q1971 284.58 1968.76 285.909 Q1966.52 287.237 1966.52 290.44 Q1966.52 292.992 1968.19 294.502 Q1969.88 295.987 1972.77 295.987 Q1976.75 295.987 1979.15 293.174 Q1981.57 290.336 1981.57 285.648 L1981.57 284.58 L1976.8 284.58 M1986.36 282.601 L1986.36 299.242 L1981.57 299.242 L1981.57 294.815 Q1979.93 297.471 1977.48 298.747 Q1975.03 299.997 1971.49 299.997 Q1967.01 299.997 1964.36 297.497 Q1961.73 294.971 1961.73 290.752 Q1961.73 285.83 1965.01 283.33 Q1968.32 280.83 1974.85 280.83 L1981.57 280.83 L1981.57 280.362 Q1981.57 277.054 1979.38 275.258 Q1977.22 273.435 1973.29 273.435 Q1970.79 273.435 1968.42 274.034 Q1966.05 274.633 1963.86 275.83 L1963.86 271.403 Q1966.49 270.388 1968.97 269.893 Q1971.44 269.372 1973.78 269.372 Q1980.11 269.372 1983.24 272.653 Q1986.36 275.935 1986.36 282.601 Z" fill="#000000" fill-rule="nonzero" fill-opacity="1" /><path clip-path="url(#clip550)" d="M1996.23 258.721 L2001.02 258.721 L2001.02 299.242 L1996.23 299.242 L1996.23 258.721 Z" fill="#000000" fill-rule="nonzero" fill-opacity="1" /><polyline clip-path="url(#clip550)" style="stroke:#0000ff; stroke-linecap:round; stroke-linejoin:round; stroke-width:9; stroke-opacity:1; fill:none" stroke-dasharray="36, 23" points="1371.42,338.122 1492.51,338.122 "/>
<path clip-path="url(#clip550)" d="M1537.72 319.958 L1537.72 325.088 Q1534.72 323.656 1532.07 322.953 Q1529.41 322.25 1526.94 322.25 Q1522.64 322.25 1520.3 323.916 Q1517.98 325.583 1517.98 328.656 Q1517.98 331.234 1519.52 332.562 Q1521.08 333.864 1525.4 334.671 L1528.58 335.322 Q1534.46 336.442 1537.25 339.281 Q1540.06 342.093 1540.06 346.833 Q1540.06 352.484 1536.26 355.4 Q1532.48 358.317 1525.17 358.317 Q1522.41 358.317 1519.28 357.692 Q1516.18 357.067 1512.85 355.843 L1512.85 350.426 Q1516.05 352.223 1519.13 353.135 Q1522.2 354.046 1525.17 354.046 Q1529.67 354.046 1532.12 352.275 Q1534.57 350.505 1534.57 347.223 Q1534.57 344.359 1532.8 342.744 Q1531.05 341.13 1527.04 340.322 L1523.84 339.697 Q1517.95 338.525 1515.32 336.025 Q1512.69 333.525 1512.69 329.072 Q1512.69 323.916 1516.31 320.947 Q1519.96 317.979 1526.34 317.979 Q1529.07 317.979 1531.91 318.473 Q1534.75 318.968 1537.72 319.958 Z" fill="#000000" fill-rule="nonzero" fill-opacity="1" /><path clip-path="url(#clip550)" d="M1548.06 328.395 L1552.85 328.395 L1552.85 357.562 L1548.06 357.562 L1548.06 328.395 M1548.06 317.041 L1552.85 317.041 L1552.85 323.109 L1548.06 323.109 L1548.06 317.041 Z" fill="#000000" fill-rule="nonzero" fill-opacity="1" /><path clip-path="url(#clip550)" d="M1585.58 333.994 Q1587.38 330.765 1589.88 329.229 Q1592.38 327.692 1595.77 327.692 Q1600.32 327.692 1602.8 330.895 Q1605.27 334.072 1605.27 339.958 L1605.27 357.562 L1600.45 357.562 L1600.45 340.114 Q1600.45 335.921 1598.97 333.89 Q1597.48 331.859 1594.44 331.859 Q1590.71 331.859 1588.55 334.333 Q1586.39 336.807 1586.39 341.078 L1586.39 357.562 L1581.57 357.562 L1581.57 340.114 Q1581.57 335.895 1580.09 333.89 Q1578.6 331.859 1575.51 331.859 Q1571.83 331.859 1569.67 334.359 Q1567.51 336.833 1567.51 341.078 L1567.51 357.562 L1562.69 357.562 L1562.69 328.395 L1567.51 328.395 L1567.51 332.927 Q1569.15 330.244 1571.44 328.968 Q1573.73 327.692 1576.89 327.692 Q1580.06 327.692 1582.28 329.307 Q1584.52 330.921 1585.58 333.994 Z" fill="#000000" fill-rule="nonzero" fill-opacity="1" /><path clip-path="url(#clip550)" d="M1614.33 346.051 L1614.33 328.395 L1619.12 328.395 L1619.12 345.869 Q1619.12 350.01 1620.74 352.093 Q1622.35 354.15 1625.58 354.15 Q1629.46 354.15 1631.7 351.676 Q1633.97 349.202 1633.97 344.932 L1633.97 328.395 L1638.76 328.395 L1638.76 357.562 L1633.97 357.562 L1633.97 353.083 Q1632.22 355.739 1629.91 357.041 Q1627.61 358.317 1624.57 358.317 Q1619.54 358.317 1616.94 355.192 Q1614.33 352.067 1614.33 346.051 M1626.39 327.692 L1626.39 327.692 Z" fill="#000000" fill-rule="nonzero" fill-opacity="1" /><path clip-path="url(#clip550)" d="M1648.63 317.041 L1653.42 317.041 L1653.42 357.562 L1648.63 357.562 L1648.63 317.041 Z" fill="#000000" fill-rule="nonzero" fill-opacity="1" /><path clip-path="url(#clip550)" d="M1676.7 342.9 Q1670.9 342.9 1668.66 344.229 Q1666.42 345.557 1666.42 348.76 Q1666.42 351.312 1668.08 352.822 Q1669.78 354.307 1672.67 354.307 Q1676.65 354.307 1679.05 351.494 Q1681.47 348.656 1681.47 343.968 L1681.47 342.9 L1676.7 342.9 M1686.26 340.921 L1686.26 357.562 L1681.47 357.562 L1681.47 353.135 Q1679.83 355.791 1677.38 357.067 Q1674.93 358.317 1671.39 358.317 Q1666.91 358.317 1664.25 355.817 Q1661.62 353.291 1661.62 349.072 Q1661.62 344.15 1664.91 341.65 Q1668.21 339.15 1674.75 339.15 L1681.47 339.15 L1681.47 338.682 Q1681.47 335.374 1679.28 333.578 Q1677.12 331.755 1673.19 331.755 Q1670.69 331.755 1668.32 332.354 Q1665.95 332.953 1663.76 334.15 L1663.76 329.723 Q1666.39 328.708 1668.86 328.213 Q1671.34 327.692 1673.68 327.692 Q1680.01 327.692 1683.13 330.973 Q1686.26 334.255 1686.26 340.921 Z" fill="#000000" fill-rule="nonzero" fill-opacity="1" /><path clip-path="url(#clip550)" d="M1700.87 320.114 L1700.87 328.395 L1710.74 328.395 L1710.74 332.119 L1700.87 332.119 L1700.87 347.953 Q1700.87 351.52 1701.83 352.536 Q1702.82 353.551 1705.82 353.551 L1710.74 353.551 L1710.74 357.562 L1705.82 357.562 Q1700.27 357.562 1698.16 355.505 Q1696.05 353.421 1696.05 347.953 L1696.05 332.119 L1692.54 332.119 L1692.54 328.395 L1696.05 328.395 L1696.05 320.114 L1700.87 320.114 Z" fill="#000000" fill-rule="nonzero" fill-opacity="1" /><path clip-path="url(#clip550)" d="M1741.99 341.781 L1741.99 344.124 L1719.96 344.124 Q1720.27 349.072 1722.93 351.676 Q1725.61 354.255 1730.37 354.255 Q1733.13 354.255 1735.71 353.577 Q1738.32 352.9 1740.87 351.546 L1740.87 356.077 Q1738.29 357.171 1735.58 357.744 Q1732.87 358.317 1730.09 358.317 Q1723.11 358.317 1719.02 354.255 Q1714.96 350.192 1714.96 343.265 Q1714.96 336.104 1718.81 331.911 Q1722.69 327.692 1729.25 327.692 Q1735.14 327.692 1738.55 331.494 Q1741.99 335.27 1741.99 341.781 M1737.2 340.374 Q1737.14 336.442 1734.98 334.098 Q1732.85 331.755 1729.31 331.755 Q1725.3 331.755 1722.87 334.02 Q1720.48 336.286 1720.11 340.4 L1737.2 340.374 Z" fill="#000000" fill-rule="nonzero" fill-opacity="1" /><path clip-path="url(#clip550)" d="M1769.05 332.822 L1769.05 317.041 L1773.84 317.041 L1773.84 357.562 L1769.05 357.562 L1769.05 353.187 Q1767.54 355.791 1765.22 357.067 Q1762.93 358.317 1759.7 358.317 Q1754.41 358.317 1751.08 354.098 Q1747.77 349.88 1747.77 343.005 Q1747.77 336.13 1751.08 331.911 Q1754.41 327.692 1759.7 327.692 Q1762.93 327.692 1765.22 328.968 Q1767.54 330.218 1769.05 332.822 M1752.72 343.005 Q1752.72 348.291 1754.88 351.312 Q1757.07 354.307 1760.87 354.307 Q1764.67 354.307 1766.86 351.312 Q1769.05 348.291 1769.05 343.005 Q1769.05 337.718 1766.86 334.723 Q1764.67 331.703 1760.87 331.703 Q1757.07 331.703 1754.88 334.723 Q1752.72 337.718 1752.72 343.005 Z" fill="#000000" fill-rule="nonzero" fill-opacity="1" /><path clip-path="url(#clip550)" d="M1823.37 333.994 Q1825.17 330.765 1827.67 329.229 Q1830.17 327.692 1833.55 327.692 Q1838.11 327.692 1840.58 330.895 Q1843.06 334.072 1843.06 339.958 L1843.06 357.562 L1838.24 357.562 L1838.24 340.114 Q1838.24 335.921 1836.75 333.89 Q1835.27 331.859 1832.22 331.859 Q1828.5 331.859 1826.34 334.333 Q1824.18 336.807 1824.18 341.078 L1824.18 357.562 L1819.36 357.562 L1819.36 340.114 Q1819.36 335.895 1817.87 333.89 Q1816.39 331.859 1813.29 331.859 Q1809.62 331.859 1807.46 334.359 Q1805.3 336.833 1805.3 341.078 L1805.3 357.562 L1800.48 357.562 L1800.48 328.395 L1805.3 328.395 L1805.3 332.927 Q1806.94 330.244 1809.23 328.968 Q1811.52 327.692 1814.67 327.692 Q1817.85 327.692 1820.06 329.307 Q1822.3 330.921 1823.37 333.994 Z" fill="#000000" fill-rule="nonzero" fill-opacity="1" /><path clip-path="url(#clip550)" d="M1877.56 341.781 L1877.56 344.124 L1855.53 344.124 Q1855.84 349.072 1858.5 351.676 Q1861.18 354.255 1865.95 354.255 Q1868.71 354.255 1871.28 353.577 Q1873.89 352.9 1876.44 351.546 L1876.44 356.077 Q1873.86 357.171 1871.15 357.744 Q1868.45 358.317 1865.66 358.317 Q1858.68 358.317 1854.59 354.255 Q1850.53 350.192 1850.53 343.265 Q1850.53 336.104 1854.38 331.911 Q1858.26 327.692 1864.83 327.692 Q1870.71 327.692 1874.12 331.494 Q1877.56 335.27 1877.56 341.781 M1872.77 340.374 Q1872.72 336.442 1870.56 334.098 Q1868.42 331.755 1864.88 331.755 Q1860.87 331.755 1858.45 334.02 Q1856.05 336.286 1855.69 340.4 L1872.77 340.374 Z" fill="#000000" fill-rule="nonzero" fill-opacity="1" /><path clip-path="url(#clip550)" d="M1904.62 332.822 L1904.62 317.041 L1909.41 317.041 L1909.41 357.562 L1904.62 357.562 L1904.62 353.187 Q1903.11 355.791 1900.79 357.067 Q1898.5 358.317 1895.27 358.317 Q1889.98 358.317 1886.65 354.098 Q1883.34 349.88 1883.34 343.005 Q1883.34 336.13 1886.65 331.911 Q1889.98 327.692 1895.27 327.692 Q1898.5 327.692 1900.79 328.968 Q1903.11 330.218 1904.62 332.822 M1888.29 343.005 Q1888.29 348.291 1890.45 351.312 Q1892.64 354.307 1896.44 354.307 Q1900.24 354.307 1902.43 351.312 Q1904.62 348.291 1904.62 343.005 Q1904.62 337.718 1902.43 334.723 Q1900.24 331.703 1896.44 331.703 Q1892.64 331.703 1890.45 334.723 Q1888.29 337.718 1888.29 343.005 Z" fill="#000000" fill-rule="nonzero" fill-opacity="1" /><path clip-path="url(#clip550)" d="M1919.28 328.395 L1924.07 328.395 L1924.07 357.562 L1919.28 357.562 L1919.28 328.395 M1919.28 317.041 L1924.07 317.041 L1924.07 323.109 L1919.28 323.109 L1919.28 317.041 Z" fill="#000000" fill-rule="nonzero" fill-opacity="1" /><path clip-path="url(#clip550)" d="M1947.35 342.9 Q1941.54 342.9 1939.31 344.229 Q1937.07 345.557 1937.07 348.76 Q1937.07 351.312 1938.73 352.822 Q1940.42 354.307 1943.32 354.307 Q1947.3 354.307 1949.7 351.494 Q1952.12 348.656 1952.12 343.968 L1952.12 342.9 L1947.35 342.9 M1956.91 340.921 L1956.91 357.562 L1952.12 357.562 L1952.12 353.135 Q1950.48 355.791 1948.03 357.067 Q1945.58 358.317 1942.04 358.317 Q1937.56 358.317 1934.9 355.817 Q1932.27 353.291 1932.27 349.072 Q1932.27 344.15 1935.56 341.65 Q1938.86 339.15 1945.4 339.15 L1952.12 339.15 L1952.12 338.682 Q1952.12 335.374 1949.93 333.578 Q1947.77 331.755 1943.84 331.755 Q1941.34 331.755 1938.97 332.354 Q1936.6 332.953 1934.41 334.15 L1934.41 329.723 Q1937.04 328.708 1939.51 328.213 Q1941.99 327.692 1944.33 327.692 Q1950.66 327.692 1953.78 330.973 Q1956.91 334.255 1956.91 340.921 Z" fill="#000000" fill-rule="nonzero" fill-opacity="1" /><path clip-path="url(#clip550)" d="M1991.02 339.958 L1991.02 357.562 L1986.23 357.562 L1986.23 340.114 Q1986.23 335.973 1984.62 333.916 Q1983 331.859 1979.77 331.859 Q1975.89 331.859 1973.65 334.333 Q1971.41 336.807 1971.41 341.078 L1971.41 357.562 L1966.6 357.562 L1966.6 328.395 L1971.41 328.395 L1971.41 332.927 Q1973.13 330.296 1975.45 328.994 Q1977.79 327.692 1980.84 327.692 Q1985.87 327.692 1988.45 330.817 Q1991.02 333.916 1991.02 339.958 Z" fill="#000000" fill-rule="nonzero" fill-opacity="1" /></svg>
