<?xml version="1.0" encoding="utf-8"?>
<svg xmlns="http://www.w3.org/2000/svg" xmlns:xlink="http://www.w3.org/1999/xlink" width="700" height="500" viewBox="0 0 2800 2000">
<defs>
  <clipPath id="clip020">
    <rect x="0" y="0" width="2800" height="2000"/>
  </clipPath>
</defs>
<path clip-path="url(#clip020)" d="M0 2000 L2800 2000 L2800 -4.44089e-14 L0 -4.44089e-14  Z" fill="#ffffff" fill-rule="evenodd" fill-opacity="1"/>
<defs>
  <clipPath id="clip021">
    <rect x="532" y="125" width="2142" height="1506"/>
  </clipPath>
</defs>
<path clip-path="url(#clip020)" d="M448.779 1630.83 L2674.02 1630.83 L2674.02 125.984 L448.779 125.984  Z" fill="#ffffff" fill-rule="evenodd" fill-opacity="1"/>
<defs>
  <clipPath id="clip022">
    <rect x="448" y="125" width="2226" height="1506"/>
  </clipPath>
</defs>
<polyline clip-path="url(#clip022)" style="stroke:#000000; stroke-linecap:round; stroke-linejoin:round; stroke-width:2; stroke-opacity:0.1; fill:none" points="503.36,1630.83 503.36,125.984 "/>
<polyline clip-path="url(#clip022)" style="stroke:#000000; stroke-linecap:round; stroke-linejoin:round; stroke-width:2; stroke-opacity:0.1; fill:none" points="923.216,1630.83 923.216,125.984 "/>
<polyline clip-path="url(#clip022)" style="stroke:#000000; stroke-linecap:round; stroke-linejoin:round; stroke-width:2; stroke-opacity:0.1; fill:none" points="1343.07,1630.83 1343.07,125.984 "/>
<polyline clip-path="url(#clip022)" style="stroke:#000000; stroke-linecap:round; stroke-linejoin:round; stroke-width:2; stroke-opacity:0.1; fill:none" points="1762.93,1630.83 1762.93,125.984 "/>
<polyline clip-path="url(#clip022)" style="stroke:#000000; stroke-linecap:round; stroke-linejoin:round; stroke-width:2; stroke-opacity:0.1; fill:none" points="2182.78,1630.83 2182.78,125.984 "/>
<polyline clip-path="url(#clip022)" style="stroke:#000000; stroke-linecap:round; stroke-linejoin:round; stroke-width:2; stroke-opacity:0.1; fill:none" points="2602.64,1630.83 2602.64,125.984 "/>
<polyline clip-path="url(#clip022)" style="stroke:#000000; stroke-linecap:round; stroke-linejoin:round; stroke-width:2; stroke-opacity:0.1; fill:none" points="448.779,1388.02 2674.02,1388.02 "/>
<polyline clip-path="url(#clip022)" style="stroke:#000000; stroke-linecap:round; stroke-linejoin:round; stroke-width:2; stroke-opacity:0.1; fill:none" points="448.779,1009.14 2674.02,1009.14 "/>
<polyline clip-path="url(#clip022)" style="stroke:#000000; stroke-linecap:round; stroke-linejoin:round; stroke-width:2; stroke-opacity:0.1; fill:none" points="448.779,630.252 2674.02,630.252 "/>
<polyline clip-path="url(#clip022)" style="stroke:#000000; stroke-linecap:round; stroke-linejoin:round; stroke-width:2; stroke-opacity:0.1; fill:none" points="448.779,251.366 2674.02,251.366 "/>
<polyline clip-path="url(#clip020)" style="stroke:#000000; stroke-linecap:round; stroke-linejoin:round; stroke-width:4; stroke-opacity:1; fill:none" points="448.779,1630.83 2674.02,1630.83 "/>
<polyline clip-path="url(#clip020)" style="stroke:#000000; stroke-linecap:round; stroke-linejoin:round; stroke-width:4; stroke-opacity:1; fill:none" points="503.36,1630.83 503.36,1611.93 "/>
<polyline clip-path="url(#clip020)" style="stroke:#000000; stroke-linecap:round; stroke-linejoin:round; stroke-width:4; stroke-opacity:1; fill:none" points="923.216,1630.83 923.216,1611.93 "/>
<polyline clip-path="url(#clip020)" style="stroke:#000000; stroke-linecap:round; stroke-linejoin:round; stroke-width:4; stroke-opacity:1; fill:none" points="1343.07,1630.83 1343.07,1611.93 "/>
<polyline clip-path="url(#clip020)" style="stroke:#000000; stroke-linecap:round; stroke-linejoin:round; stroke-width:4; stroke-opacity:1; fill:none" points="1762.93,1630.83 1762.93,1611.93 "/>
<polyline clip-path="url(#clip020)" style="stroke:#000000; stroke-linecap:round; stroke-linejoin:round; stroke-width:4; stroke-opacity:1; fill:none" points="2182.78,1630.83 2182.78,1611.93 "/>
<polyline clip-path="url(#clip020)" style="stroke:#000000; stroke-linecap:round; stroke-linejoin:round; stroke-width:4; stroke-opacity:1; fill:none" points="2602.64,1630.83 2602.64,1611.93 "/>
<path clip-path="url(#clip020)" d="M503.36 1667.88 Q498.846 1667.88 496.56 1672.34 Q494.303 1676.76 494.303 1685.67 Q494.303 1694.56 496.56 1699.01 Q498.846 1703.44 503.36 1703.44 Q507.903 1703.44 510.16 1699.01 Q512.446 1694.56 512.446 1685.67 Q512.446 1676.76 510.16 1672.34 Q507.903 1667.88 503.36 1667.88 M503.36 1663.25 Q510.623 1663.25 514.442 1669.01 Q518.291 1674.74 518.291 1685.67 Q518.291 1696.58 514.442 1702.34 Q510.623 1708.07 503.36 1708.07 Q496.097 1708.07 492.249 1702.34 Q488.43 1696.58 488.43 1685.67 Q488.43 1674.74 492.249 1669.01 Q496.097 1663.25 503.36 1663.25 Z" fill="#000000" fill-rule="nonzero" fill-opacity="1" /><path clip-path="url(#clip020)" d="M891.59 1664.03 L914.536 1664.03 L914.536 1668.95 L896.943 1668.95 L896.943 1679.54 Q898.216 1679.11 899.489 1678.9 Q900.763 1678.67 902.036 1678.67 Q909.269 1678.67 913.494 1682.64 Q917.718 1686.6 917.718 1693.37 Q917.718 1700.34 913.378 1704.22 Q909.038 1708.07 901.139 1708.07 Q898.419 1708.07 895.583 1707.61 Q892.777 1707.14 889.767 1706.22 L889.767 1700.34 Q892.371 1701.76 895.149 1702.46 Q897.927 1703.15 901.023 1703.15 Q906.029 1703.15 908.951 1700.52 Q911.874 1697.89 911.874 1693.37 Q911.874 1688.86 908.951 1686.22 Q906.029 1683.59 901.023 1683.59 Q898.679 1683.59 896.336 1684.11 Q894.021 1684.63 891.59 1685.73 L891.59 1664.03 Z" fill="#000000" fill-rule="nonzero" fill-opacity="1" /><path clip-path="url(#clip020)" d="M941.735 1667.88 Q937.221 1667.88 934.935 1672.34 Q932.678 1676.76 932.678 1685.67 Q932.678 1694.56 934.935 1699.01 Q937.221 1703.44 941.735 1703.44 Q946.277 1703.44 948.534 1699.01 Q950.82 1694.56 950.82 1685.67 Q950.82 1676.76 948.534 1672.34 Q946.277 1667.88 941.735 1667.88 M941.735 1663.25 Q948.997 1663.25 952.817 1669.01 Q956.665 1674.74 956.665 1685.67 Q956.665 1696.58 952.817 1702.34 Q948.997 1708.07 941.735 1708.07 Q934.472 1708.07 930.624 1702.34 Q926.804 1696.58 926.804 1685.67 Q926.804 1674.74 930.624 1669.01 Q934.472 1663.25 941.735 1663.25 Z" fill="#000000" fill-rule="nonzero" fill-opacity="1" /><path clip-path="url(#clip020)" d="M1292.58 1702.31 L1302.13 1702.31 L1302.13 1669.36 L1291.74 1671.44 L1291.74 1666.11 L1302.07 1664.03 L1307.92 1664.03 L1307.92 1702.31 L1317.46 1702.31 L1317.46 1707.23 L1292.58 1707.23 L1292.58 1702.31 Z" fill="#000000" fill-rule="nonzero" fill-opacity="1" /><path clip-path="url(#clip020)" d="M1341.77 1667.88 Q1337.26 1667.88 1334.97 1672.34 Q1332.71 1676.76 1332.71 1685.67 Q1332.71 1694.56 1334.97 1699.01 Q1337.26 1703.44 1341.77 1703.44 Q1346.31 1703.44 1348.57 1699.01 Q1350.86 1694.56 1350.86 1685.67 Q1350.86 1676.76 1348.57 1672.34 Q1346.31 1667.88 1341.77 1667.88 M1341.77 1663.25 Q1349.03 1663.25 1352.85 1669.01 Q1356.7 1674.74 1356.7 1685.67 Q1356.7 1696.58 1352.85 1702.34 Q1349.03 1708.07 1341.77 1708.07 Q1334.51 1708.07 1330.66 1702.34 Q1326.84 1696.58 1326.84 1685.67 Q1326.84 1674.74 1330.66 1669.01 Q1334.51 1663.25 1341.77 1663.25 Z" fill="#000000" fill-rule="nonzero" fill-opacity="1" /><path clip-path="url(#clip020)" d="M1379.47 1667.88 Q1374.96 1667.88 1372.67 1672.34 Q1370.42 1676.76 1370.42 1685.67 Q1370.42 1694.56 1372.67 1699.01 Q1374.96 1703.44 1379.47 1703.44 Q1384.02 1703.44 1386.27 1699.01 Q1388.56 1694.56 1388.56 1685.67 Q1388.56 1676.76 1386.27 1672.34 Q1384.02 1667.88 1379.47 1667.88 M1379.47 1663.25 Q1386.74 1663.25 1390.55 1669.01 Q1394.4 1674.74 1394.4 1685.67 Q1394.4 1696.58 1390.55 1702.34 Q1386.74 1708.07 1379.47 1708.07 Q1372.21 1708.07 1368.36 1702.34 Q1364.54 1696.58 1364.54 1685.67 Q1364.54 1674.74 1368.36 1669.01 Q1372.21 1663.25 1379.47 1663.25 Z" fill="#000000" fill-rule="nonzero" fill-opacity="1" /><path clip-path="url(#clip020)" d="M1712.44 1702.31 L1721.99 1702.31 L1721.99 1669.36 L1711.6 1671.44 L1711.6 1666.11 L1721.93 1664.03 L1727.77 1664.03 L1727.77 1702.31 L1737.32 1702.31 L1737.32 1707.23 L1712.44 1707.23 L1712.44 1702.31 Z" fill="#000000" fill-rule="nonzero" fill-opacity="1" /><path clip-path="url(#clip020)" d="M1749.18 1664.03 L1772.13 1664.03 L1772.13 1668.95 L1754.54 1668.95 L1754.54 1679.54 Q1755.81 1679.11 1757.08 1678.9 Q1758.36 1678.67 1759.63 1678.67 Q1766.86 1678.67 1771.09 1682.64 Q1775.31 1686.6 1775.31 1693.37 Q1775.31 1700.34 1770.97 1704.22 Q1766.63 1708.07 1758.73 1708.07 Q1756.01 1708.07 1753.18 1707.61 Q1750.37 1707.14 1747.36 1706.22 L1747.36 1700.34 Q1749.97 1701.76 1752.74 1702.46 Q1755.52 1703.15 1758.62 1703.15 Q1763.62 1703.15 1766.55 1700.52 Q1769.47 1697.89 1769.47 1693.37 Q1769.47 1688.86 1766.55 1686.22 Q1763.62 1683.59 1758.62 1683.59 Q1756.27 1683.59 1753.93 1684.11 Q1751.61 1684.63 1749.18 1685.73 L1749.18 1664.03 Z" fill="#000000" fill-rule="nonzero" fill-opacity="1" /><path clip-path="url(#clip020)" d="M1799.33 1667.88 Q1794.81 1667.88 1792.53 1672.34 Q1790.27 1676.76 1790.27 1685.67 Q1790.27 1694.56 1792.53 1699.01 Q1794.81 1703.44 1799.33 1703.44 Q1803.87 1703.44 1806.13 1699.01 Q1808.41 1694.56 1808.41 1685.67 Q1808.41 1676.76 1806.13 1672.34 Q1803.87 1667.88 1799.33 1667.88 M1799.33 1663.25 Q1806.59 1663.25 1810.41 1669.01 Q1814.26 1674.74 1814.26 1685.67 Q1814.26 1696.58 1810.41 1702.34 Q1806.59 1708.07 1799.33 1708.07 Q1792.07 1708.07 1788.22 1702.34 Q1784.4 1696.58 1784.4 1685.67 Q1784.4 1674.74 1788.22 1669.01 Q1792.07 1663.25 1799.33 1663.25 Z" fill="#000000" fill-rule="nonzero" fill-opacity="1" /><path clip-path="url(#clip020)" d="M2137.4 1702.31 L2157.8 1702.31 L2157.8 1707.23 L2130.37 1707.23 L2130.37 1702.31 Q2133.7 1698.87 2139.43 1693.08 Q2145.18 1687.27 2146.66 1685.59 Q2149.47 1682.43 2150.57 1680.26 Q2151.69 1678.06 2151.69 1675.95 Q2151.69 1672.51 2149.26 1670.34 Q2146.86 1668.17 2142.98 1668.17 Q2140.24 1668.17 2137.17 1669.12 Q2134.13 1670.08 2130.66 1672.02 L2130.66 1666.11 Q2134.19 1664.7 2137.25 1663.97 Q2140.32 1663.25 2142.87 1663.25 Q2149.58 1663.25 2153.57 1666.61 Q2157.57 1669.96 2157.57 1675.58 Q2157.57 1678.24 2156.55 1680.64 Q2155.57 1683.01 2152.94 1686.25 Q2152.21 1687.09 2148.34 1691.11 Q2144.46 1695.11 2137.4 1702.31 Z" fill="#000000" fill-rule="nonzero" fill-opacity="1" /><path clip-path="url(#clip020)" d="M2182.57 1667.88 Q2178.05 1667.88 2175.77 1672.34 Q2173.51 1676.76 2173.51 1685.67 Q2173.51 1694.56 2175.77 1699.01 Q2178.05 1703.44 2182.57 1703.44 Q2187.11 1703.44 2189.37 1699.01 Q2191.65 1694.56 2191.65 1685.67 Q2191.65 1676.76 2189.37 1672.34 Q2187.11 1667.88 2182.57 1667.88 M2182.57 1663.25 Q2189.83 1663.25 2193.65 1669.01 Q2197.5 1674.74 2197.5 1685.67 Q2197.5 1696.58 2193.65 1702.34 Q2189.83 1708.07 2182.57 1708.07 Q2175.3 1708.07 2171.46 1702.34 Q2167.64 1696.58 2167.64 1685.67 Q2167.64 1674.74 2171.46 1669.01 Q2175.3 1663.25 2182.57 1663.25 Z" fill="#000000" fill-rule="nonzero" fill-opacity="1" /><path clip-path="url(#clip020)" d="M2220.27 1667.88 Q2215.76 1667.88 2213.47 1672.34 Q2211.21 1676.76 2211.21 1685.67 Q2211.21 1694.56 2213.47 1699.01 Q2215.76 1703.44 2220.27 1703.44 Q2224.81 1703.44 2227.07 1699.01 Q2229.36 1694.56 2229.36 1685.67 Q2229.36 1676.76 2227.07 1672.34 Q2224.81 1667.88 2220.27 1667.88 M2220.27 1663.25 Q2227.53 1663.25 2231.35 1669.01 Q2235.2 1674.74 2235.2 1685.67 Q2235.2 1696.58 2231.35 1702.34 Q2227.53 1708.07 2220.27 1708.07 Q2213.01 1708.07 2209.16 1702.34 Q2205.34 1696.58 2205.34 1685.67 Q2205.34 1674.74 2209.16 1669.01 Q2213.01 1663.25 2220.27 1663.25 Z" fill="#000000" fill-rule="nonzero" fill-opacity="1" /><path clip-path="url(#clip020)" d="M2557.26 1702.31 L2577.65 1702.31 L2577.65 1707.23 L2550.22 1707.23 L2550.22 1702.31 Q2553.55 1698.87 2559.28 1693.08 Q2565.04 1687.27 2566.51 1685.59 Q2569.32 1682.43 2570.42 1680.26 Q2571.55 1678.06 2571.55 1675.95 Q2571.55 1672.51 2569.12 1670.34 Q2566.72 1668.17 2562.84 1668.17 Q2560.09 1668.17 2557.02 1669.12 Q2553.99 1670.08 2550.51 1672.02 L2550.51 1666.11 Q2554.04 1664.7 2557.11 1663.97 Q2560.18 1663.25 2562.72 1663.25 Q2569.44 1663.25 2573.43 1666.61 Q2577.42 1669.96 2577.42 1675.58 Q2577.42 1678.24 2576.41 1680.64 Q2575.43 1683.01 2572.79 1686.25 Q2572.07 1687.09 2568.19 1691.11 Q2564.32 1695.11 2557.26 1702.31 Z" fill="#000000" fill-rule="nonzero" fill-opacity="1" /><path clip-path="url(#clip020)" d="M2589.98 1664.03 L2612.93 1664.03 L2612.93 1668.95 L2595.33 1668.95 L2595.33 1679.54 Q2596.61 1679.11 2597.88 1678.9 Q2599.15 1678.67 2600.43 1678.67 Q2607.66 1678.67 2611.88 1682.64 Q2616.11 1686.6 2616.11 1693.37 Q2616.11 1700.34 2611.77 1704.22 Q2607.43 1708.07 2599.53 1708.07 Q2596.81 1708.07 2593.97 1707.61 Q2591.17 1707.14 2588.16 1706.22 L2588.16 1700.34 Q2590.76 1701.76 2593.54 1702.46 Q2596.32 1703.15 2599.41 1703.15 Q2604.42 1703.15 2607.34 1700.52 Q2610.26 1697.89 2610.26 1693.37 Q2610.26 1688.86 2607.34 1686.22 Q2604.42 1683.59 2599.41 1683.59 Q2597.07 1683.59 2594.73 1684.11 Q2592.41 1684.63 2589.98 1685.73 L2589.98 1664.03 Z" fill="#000000" fill-rule="nonzero" fill-opacity="1" /><path clip-path="url(#clip020)" d="M2640.13 1667.88 Q2635.61 1667.88 2633.33 1672.34 Q2631.07 1676.76 2631.07 1685.67 Q2631.07 1694.56 2633.33 1699.01 Q2635.61 1703.44 2640.13 1703.44 Q2644.67 1703.44 2646.93 1699.01 Q2649.21 1694.56 2649.21 1685.67 Q2649.21 1676.76 2646.93 1672.34 Q2644.67 1667.88 2640.13 1667.88 M2640.13 1663.25 Q2647.39 1663.25 2651.21 1669.01 Q2655.06 1674.74 2655.06 1685.67 Q2655.06 1696.58 2651.21 1702.34 Q2647.39 1708.07 2640.13 1708.07 Q2632.86 1708.07 2629.01 1702.34 Q2625.2 1696.58 2625.2 1685.67 Q2625.2 1674.74 2629.01 1669.01 Q2632.86 1663.25 2640.13 1663.25 Z" fill="#000000" fill-rule="nonzero" fill-opacity="1" /><path clip-path="url(#clip020)" d="M1508.74 1747.14 L1515.17 1747.14 L1515.17 1789.24 L1538.31 1789.24 L1538.31 1794.66 L1508.74 1794.66 L1508.74 1747.14 Z" fill="#000000" fill-rule="nonzero" fill-opacity="1" /><path clip-path="url(#clip020)" d="M1561 1776.74 Q1553.9 1776.74 1551.16 1778.36 Q1548.43 1779.98 1548.43 1783.9 Q1548.43 1787.02 1550.46 1788.86 Q1552.53 1790.68 1556.07 1790.68 Q1560.94 1790.68 1563.86 1787.24 Q1566.82 1783.77 1566.82 1778.04 L1566.82 1776.74 L1561 1776.74 M1572.68 1774.32 L1572.68 1794.66 L1566.82 1794.66 L1566.82 1789.24 Q1564.82 1792.49 1561.83 1794.05 Q1558.84 1795.58 1554.51 1795.58 Q1549.03 1795.58 1545.79 1792.52 Q1542.57 1789.44 1542.57 1784.28 Q1542.57 1778.26 1546.58 1775.21 Q1550.62 1772.15 1558.61 1772.15 L1566.82 1772.15 L1566.82 1771.58 Q1566.82 1767.54 1564.15 1765.34 Q1561.51 1763.11 1556.7 1763.11 Q1553.65 1763.11 1550.75 1763.85 Q1547.85 1764.58 1545.18 1766.04 L1545.18 1760.63 Q1548.4 1759.39 1551.42 1758.78 Q1554.44 1758.15 1557.31 1758.15 Q1565.04 1758.15 1568.86 1762.16 Q1572.68 1766.17 1572.68 1774.32 Z" fill="#000000" fill-rule="nonzero" fill-opacity="1" /><path clip-path="url(#clip020)" d="M1608.2 1776.42 Q1608.2 1770.05 1605.56 1766.55 Q1602.95 1763.05 1598.21 1763.05 Q1593.5 1763.05 1590.85 1766.55 Q1588.24 1770.05 1588.24 1776.42 Q1588.24 1782.75 1590.85 1786.25 Q1593.5 1789.75 1598.21 1789.75 Q1602.95 1789.75 1605.56 1786.25 Q1608.2 1782.75 1608.2 1776.42 M1614.06 1790.23 Q1614.06 1799.33 1610.02 1803.76 Q1605.97 1808.21 1597.63 1808.21 Q1594.55 1808.21 1591.81 1807.74 Q1589.07 1807.29 1586.49 1806.34 L1586.49 1800.64 Q1589.07 1802.04 1591.59 1802.71 Q1594.1 1803.38 1596.71 1803.38 Q1602.47 1803.38 1605.34 1800.35 Q1608.2 1797.36 1608.2 1791.28 L1608.2 1788.39 Q1606.39 1791.54 1603.55 1793.1 Q1600.72 1794.66 1596.77 1794.66 Q1590.22 1794.66 1586.21 1789.66 Q1582.2 1784.66 1582.2 1776.42 Q1582.2 1768.14 1586.21 1763.15 Q1590.22 1758.15 1596.77 1758.15 Q1600.72 1758.15 1603.55 1759.71 Q1606.39 1761.27 1608.2 1764.42 L1608.2 1759.01 L1614.06 1759.01 L1614.06 1790.23 Z" fill="#000000" fill-rule="nonzero" fill-opacity="1" /><polyline clip-path="url(#clip020)" style="stroke:#000000; stroke-linecap:round; stroke-linejoin:round; stroke-width:4; stroke-opacity:1; fill:none" points="448.779,1630.83 448.779,125.984 "/>
<polyline clip-path="url(#clip020)" style="stroke:#000000; stroke-linecap:round; stroke-linejoin:round; stroke-width:4; stroke-opacity:1; fill:none" points="448.779,1388.02 467.676,1388.02 "/>
<polyline clip-path="url(#clip020)" style="stroke:#000000; stroke-linecap:round; stroke-linejoin:round; stroke-width:4; stroke-opacity:1; fill:none" points="448.779,1009.14 467.676,1009.14 "/>
<polyline clip-path="url(#clip020)" style="stroke:#000000; stroke-linecap:round; stroke-linejoin:round; stroke-width:4; stroke-opacity:1; fill:none" points="448.779,630.252 467.676,630.252 "/>
<polyline clip-path="url(#clip020)" style="stroke:#000000; stroke-linecap:round; stroke-linejoin:round; stroke-width:4; stroke-opacity:1; fill:none" points="448.779,251.366 467.676,251.366 "/>
<path clip-path="url(#clip020)" d="M335.309 1370.27 Q330.795 1370.27 328.51 1374.73 Q326.253 1379.15 326.253 1388.07 Q326.253 1396.95 328.51 1401.41 Q330.795 1405.83 335.309 1405.83 Q339.852 1405.83 342.109 1401.41 Q344.395 1396.95 344.395 1388.07 Q344.395 1379.15 342.109 1374.73 Q339.852 1370.27 335.309 1370.27 M335.309 1365.64 Q342.572 1365.64 346.391 1371.4 Q350.24 1377.13 350.24 1388.07 Q350.24 1398.98 346.391 1404.73 Q342.572 1410.46 335.309 1410.46 Q328.047 1410.46 324.198 1404.73 Q320.379 1398.98 320.379 1388.07 Q320.379 1377.13 324.198 1371.4 Q328.047 1365.64 335.309 1365.64 Z" fill="#000000" fill-rule="nonzero" fill-opacity="1" /><path clip-path="url(#clip020)" d="M360.512 1402.27 L366.617 1402.27 L366.617 1409.62 L360.512 1409.62 L360.512 1402.27 Z" fill="#000000" fill-rule="nonzero" fill-opacity="1" /><path clip-path="url(#clip020)" d="M391.848 1370.27 Q387.335 1370.27 385.049 1374.73 Q382.792 1379.15 382.792 1388.07 Q382.792 1396.95 385.049 1401.41 Q387.335 1405.83 391.848 1405.83 Q396.391 1405.83 398.648 1401.41 Q400.934 1396.95 400.934 1388.07 Q400.934 1379.15 398.648 1374.73 Q396.391 1370.27 391.848 1370.27 M391.848 1365.64 Q399.111 1365.64 402.93 1371.4 Q406.779 1377.13 406.779 1388.07 Q406.779 1398.98 402.93 1404.73 Q399.111 1410.46 391.848 1410.46 Q384.586 1410.46 380.737 1404.73 Q376.918 1398.98 376.918 1388.07 Q376.918 1377.13 380.737 1371.4 Q384.586 1365.64 391.848 1365.64 Z" fill="#000000" fill-rule="nonzero" fill-opacity="1" /><path clip-path="url(#clip020)" d="M336.843 991.386 Q332.329 991.386 330.043 995.842 Q327.786 1000.27 327.786 1009.18 Q327.786 1018.06 330.043 1022.52 Q332.329 1026.95 336.843 1026.95 Q341.386 1026.95 343.643 1022.52 Q345.928 1018.06 345.928 1009.18 Q345.928 1000.27 343.643 995.842 Q341.386 991.386 336.843 991.386 M336.843 986.756 Q344.106 986.756 347.925 992.514 Q351.773 998.243 351.773 1009.18 Q351.773 1020.09 347.925 1025.85 Q344.106 1031.58 336.843 1031.58 Q329.58 1031.58 325.732 1025.85 Q321.912 1020.09 321.912 1009.18 Q321.912 998.243 325.732 992.514 Q329.58 986.756 336.843 986.756 Z" fill="#000000" fill-rule="nonzero" fill-opacity="1" /><path clip-path="url(#clip020)" d="M362.045 1023.39 L368.151 1023.39 L368.151 1030.74 L362.045 1030.74 L362.045 1023.39 Z" fill="#000000" fill-rule="nonzero" fill-opacity="1" /><path clip-path="url(#clip020)" d="M381.895 1025.82 L391.443 1025.82 L391.443 992.861 L381.056 994.945 L381.056 989.621 L391.385 987.537 L397.23 987.537 L397.23 1025.82 L406.779 1025.82 L406.779 1030.74 L381.895 1030.74 L381.895 1025.82 Z" fill="#000000" fill-rule="nonzero" fill-opacity="1" /><path clip-path="url(#clip020)" d="M337.306 612.5 Q332.792 612.5 330.506 616.956 Q328.249 621.383 328.249 630.295 Q328.249 639.178 330.506 643.634 Q332.792 648.061 337.306 648.061 Q341.849 648.061 344.106 643.634 Q346.391 639.178 346.391 630.295 Q346.391 621.383 344.106 616.956 Q341.849 612.5 337.306 612.5 M337.306 607.87 Q344.569 607.87 348.388 613.628 Q352.236 619.357 352.236 630.295 Q352.236 641.203 348.388 646.961 Q344.569 652.691 337.306 652.691 Q330.043 652.691 326.195 646.961 Q322.375 641.203 322.375 630.295 Q322.375 619.357 326.195 613.628 Q330.043 607.87 337.306 607.87 Z" fill="#000000" fill-rule="nonzero" fill-opacity="1" /><path clip-path="url(#clip020)" d="M362.508 644.502 L368.614 644.502 L368.614 651.852 L362.508 651.852 L362.508 644.502 Z" fill="#000000" fill-rule="nonzero" fill-opacity="1" /><path clip-path="url(#clip020)" d="M386.38 646.933 L406.779 646.933 L406.779 651.852 L379.348 651.852 L379.348 646.933 Q382.676 643.489 388.405 637.702 Q394.163 631.886 395.639 630.208 Q398.446 627.054 399.545 624.884 Q400.674 622.685 400.674 620.573 Q400.674 617.129 398.243 614.959 Q395.841 612.789 391.964 612.789 Q389.215 612.789 386.148 613.744 Q383.11 614.699 379.638 616.638 L379.638 610.735 Q383.168 609.317 386.235 608.594 Q389.302 607.87 391.848 607.87 Q398.561 607.87 402.554 611.227 Q406.547 614.583 406.547 620.197 Q406.547 622.859 405.535 625.26 Q404.551 627.633 401.918 630.874 Q401.194 631.713 397.317 635.735 Q393.44 639.728 386.38 646.933 Z" fill="#000000" fill-rule="nonzero" fill-opacity="1" /><path clip-path="url(#clip020)" d="M336.12 233.614 Q331.606 233.614 329.32 238.07 Q327.063 242.497 327.063 251.409 Q327.063 260.292 329.32 264.748 Q331.606 269.175 336.12 269.175 Q340.662 269.175 342.919 264.748 Q345.205 260.292 345.205 251.409 Q345.205 242.497 342.919 238.07 Q340.662 233.614 336.12 233.614 M336.12 228.984 Q343.382 228.984 347.202 234.742 Q351.05 240.472 351.05 251.409 Q351.05 262.318 347.202 268.076 Q343.382 273.805 336.12 273.805 Q328.857 273.805 325.008 268.076 Q321.189 262.318 321.189 251.409 Q321.189 240.472 325.008 234.742 Q328.857 228.984 336.12 228.984 Z" fill="#000000" fill-rule="nonzero" fill-opacity="1" /><path clip-path="url(#clip020)" d="M361.322 265.616 L367.427 265.616 L367.427 272.966 L361.322 272.966 L361.322 265.616 Z" fill="#000000" fill-rule="nonzero" fill-opacity="1" /><path clip-path="url(#clip020)" d="M397.867 249.673 Q402.062 250.57 404.406 253.406 Q406.779 256.241 406.779 260.408 Q406.779 266.802 402.381 270.304 Q397.983 273.805 389.881 273.805 Q387.161 273.805 384.267 273.255 Q381.403 272.734 378.336 271.664 L378.336 266.021 Q380.766 267.439 383.66 268.162 Q386.553 268.886 389.707 268.886 Q395.205 268.886 398.069 266.716 Q400.963 264.545 400.963 260.408 Q400.963 256.588 398.272 254.447 Q395.61 252.277 390.836 252.277 L385.801 252.277 L385.801 247.474 L391.067 247.474 Q395.378 247.474 397.664 245.767 Q399.95 244.031 399.95 240.79 Q399.95 237.462 397.578 235.697 Q395.234 233.903 390.836 233.903 Q388.434 233.903 385.685 234.424 Q382.936 234.945 379.638 236.044 L379.638 230.836 Q382.965 229.91 385.859 229.447 Q388.781 228.984 391.356 228.984 Q398.012 228.984 401.889 232.023 Q405.766 235.032 405.766 240.182 Q405.766 243.77 403.712 246.259 Q401.657 248.718 397.867 249.673 Z" fill="#000000" fill-rule="nonzero" fill-opacity="1" /><path clip-path="url(#clip020)" d="M222.937 917.716 L246.585 926.437 L246.585 908.963 L222.937 917.716 M216.603 921.345 L216.603 914.056 L264.123 895.945 L264.123 902.629 L251.933 906.958 L251.933 928.379 L264.123 932.707 L264.123 939.487 L216.603 921.345 Z" fill="#000000" fill-rule="nonzero" fill-opacity="1" /><path clip-path="url(#clip020)" d="M220.263 854.568 L227.043 854.568 Q224.019 857.815 222.523 861.507 Q221.027 865.167 221.027 869.305 Q221.027 877.453 226.024 881.782 Q230.989 886.11 240.411 886.11 Q249.8 886.11 254.797 881.782 Q259.762 877.453 259.762 869.305 Q259.762 865.167 258.266 861.507 Q256.77 857.815 253.747 854.568 L260.463 854.568 Q262.754 857.942 263.9 861.73 Q265.046 865.485 265.046 869.687 Q265.046 880.477 258.457 886.683 Q251.837 892.89 240.411 892.89 Q228.952 892.89 222.364 886.683 Q215.743 880.477 215.743 869.687 Q215.743 865.422 216.889 861.666 Q218.003 857.878 220.263 854.568 Z" fill="#000000" fill-rule="nonzero" fill-opacity="1" /><path clip-path="url(#clip020)" d="M216.603 844.638 L216.603 817.329 L222.014 817.329 L222.014 838.208 L236.018 838.208 L236.018 819.366 L241.429 819.366 L241.429 838.208 L264.123 838.208 L264.123 844.638 L216.603 844.638 Z" fill="#000000" fill-rule="nonzero" fill-opacity="1" /><polyline clip-path="url(#clip022)" style="stroke:#ff8c00; stroke-linecap:round; stroke-linejoin:round; stroke-width:8; stroke-opacity:1; fill:none" points="511.757,236.218 520.154,236.218 520.154,380.922 528.551,380.922 528.551,168.574 536.949,168.574 536.949,306.297 545.346,306.297 545.346,378.962 553.743,378.962 553.743,461.396 562.14,461.396 562.14,464.793 570.537,464.793 570.537,324.396 578.934,324.396 578.934,388.73 587.331,388.73 587.331,351.7 595.728,351.7 595.728,621.278 604.126,621.278 604.126,605.817 612.523,605.817 612.523,539.474 620.92,539.474 620.92,631.115 629.317,631.115 629.317,602.265 637.714,602.265 637.714,810.109 646.111,810.109 646.111,480.87 654.508,480.87 654.508,557.511 662.905,557.511 662.905,791.354 671.303,791.354 671.303,634.17 679.7,634.17 679.7,802.758 688.097,802.758 688.097,781.284 696.494,781.284 696.494,705.985 704.891,705.985 704.891,911.07 713.288,911.07 713.288,842.834 721.685,842.834 721.685,830.737 730.082,830.737 730.082,910.562 738.48,910.562 738.48,952.095 746.877,952.095 746.877,778.621 755.274,778.621 755.274,877.917 763.671,877.917 763.671,932.858 772.068,932.858 772.068,979.37 780.465,979.37 780.465,931.226 788.862,931.226 788.862,1007.18 797.259,1007.18 797.259,971.167 805.656,971.167 805.656,950.084 814.054,950.084 814.054,991.9 822.451,991.9 822.451,936.44 830.848,936.44 830.848,906.064 839.245,906.064 839.245,1043.4 847.642,1043.4 847.642,998.059 856.039,998.059 856.039,994.093 864.436,994.093 864.436,1012.8 872.833,1012.8 872.833,1151.65 881.231,1151.65 881.231,1065.52 889.628,1065.52 889.628,926.313 898.025,926.313 898.025,1208.35 906.422,1208.35 906.422,1123.9 914.819,1123.9 914.819,1032.63 923.216,1032.63 923.216,1166.84 931.613,1166.84 931.613,1091.11 940.01,1091.11 940.01,1126.92 948.408,1126.92 948.408,1101.64 956.805,1101.64 956.805,1147.82 965.202,1147.82 965.202,1059.8 973.599,1059.8 973.599,1113.93 981.996,1113.93 981.996,1149.47 990.393,1149.47 990.393,1134.12 998.79,1134.12 998.79,1073.98 1007.19,1073.98 1007.19,1225.99 1015.58,1225.99 1015.58,1171.98 1023.98,1171.98 1023.98,1190.41 1032.38,1190.41 1032.38,1066.2 1040.78,1066.2 1040.78,1237.44 1049.17,1237.44 1049.17,1214.69 1057.57,1214.69 1057.57,1180.08 1065.97,1180.08 1065.97,1260.68 1074.36,1260.68 1074.36,1168.77 1082.76,1168.77 1082.76,1239.38 1091.16,1239.38 1091.16,1244.9 1099.56,1244.9 1099.56,1247.71 1107.95,1247.71 1107.95,1116.2 1116.35,1116.2 1116.35,1261.95 1124.75,1261.95 1124.75,1223.13 1133.14,1223.13 1133.14,1163.88 1141.54,1163.88 1141.54,1122.66 1149.94,1122.66 1149.94,1226.97 1158.34,1226.97 1158.34,1258.27 1166.73,1258.27 1166.73,1221.41 1175.13,1221.41 1175.13,1289.08 1183.53,1289.08 1183.53,1234.21 1191.92,1234.21 1191.92,1203.18 1200.32,1203.18 1200.32,1312.87 1208.72,1312.87 1208.72,1300.82 1217.12,1300.82 1217.12,1256.05 1225.51,1256.05 1225.51,1310.32 1233.91,1310.32 1233.91,1304.31 1242.31,1304.31 1242.31,1255.82 1250.7,1255.82 1250.7,1323.54 1259.1,1323.54 1259.1,1245.44 1267.5,1245.44 1267.5,1261.18 1275.9,1261.18 1275.9,1178.33 1284.29,1178.33 1284.29,1325.88 1292.69,1325.88 1292.69,1209.46 1301.09,1209.46 1301.09,1207.88 1309.48,1207.88 1309.48,1255.59 1317.88,1255.59 1317.88,1120.24 1326.28,1120.24 1326.28,1215.57 1334.68,1215.57 1334.68,1235.47 1343.07,1235.47 1343.07,1183.53 1351.47,1183.53 1351.47,1174.2 1359.87,1174.2 1359.87,1187.66 1368.26,1187.66 1368.26,1183.82 1376.66,1183.82 1376.66,1270.92 1385.06,1270.92 1385.06,1144.87 1393.45,1144.87 1393.45,1187.36 1401.85,1187.36 1401.85,1220.39 1410.25,1220.39 1410.25,1315.53 1418.65,1315.53 1418.65,1202.86 1427.04,1202.86 1427.04,1323.46 1435.44,1323.46 1435.44,1229.92 1443.84,1229.92 1443.84,1307.02 1452.23,1307.02 1452.23,1215.34 1460.63,1215.34 1460.63,1246.05 1469.03,1246.05 1469.03,1219.75 1477.43,1219.75 1477.43,1194.48 1485.82,1194.48 1485.82,1213.6 1494.22,1213.6 1494.22,1248.66 1502.62,1248.66 1502.62,1162.28 1511.01,1162.28 1511.01,1124.89 1519.41,1124.89 1519.41,1164.87 1527.81,1164.87 1527.81,1184.3 1536.21,1184.3 1536.21,1231.5 1544.6,1231.5 1544.6,1188.47 1553,1188.47 1553,1251.45 1561.4,1251.45 1561.4,1200.86 1569.79,1200.86 1569.79,1239.55 1578.19,1239.55 1578.19,1243.99 1586.59,1243.99 1586.59,1169.78 1594.99,1169.78 1594.99,1170.22 1603.38,1170.22 1603.38,1108.94 1611.78,1108.94 1611.78,1281.08 1620.18,1281.08 1620.18,1238.21 1628.57,1238.21 1628.57,1222.79 1636.97,1222.79 1636.97,1261.06 1645.37,1261.06 1645.37,1233.7 1653.77,1233.7 1653.77,1292.23 1662.16,1292.23 1662.16,1142.68 1670.56,1142.68 1670.56,1199.79 1678.96,1199.79 1678.96,1250.83 1687.35,1250.83 1687.35,1260.24 1695.75,1260.24 1695.75,1231.2 1704.15,1231.2 1704.15,1229.74 1712.55,1229.74 1712.55,1236.15 1720.94,1236.15 1720.94,1223.48 1729.34,1223.48 1729.34,1194.35 1737.74,1194.35 1737.74,1393.21 1746.13,1393.21 1746.13,1236.97 1754.53,1236.97 1754.53,1230.18 1762.93,1230.18 1762.93,1284.15 1771.33,1284.15 1771.33,1107.63 1779.72,1107.63 1779.72,1195.85 1788.12,1195.85 1788.12,1210.56 1796.52,1210.56 1796.52,1222.54 1804.91,1222.54 1804.91,1231.22 1813.31,1231.22 1813.31,1186.18 1821.71,1186.18 1821.71,1271.3 1830.11,1271.3 1830.11,1209.2 1838.5,1209.2 1838.5,1255.52 1846.9,1255.52 1846.9,1144.56 1855.3,1144.56 1855.3,1144.39 1863.69,1144.39 1863.69,1211.58 1872.09,1211.58 1872.09,1233.18 1880.49,1233.18 1880.49,1267.92 1888.88,1267.92 1888.88,1279.51 1897.28,1279.51 1897.28,1296.77 1905.68,1296.77 1905.68,1327.82 1914.08,1327.82 1914.08,1205.57 1922.47,1205.57 1922.47,1204.06 1930.87,1204.06 1930.87,1238.18 1939.27,1238.18 1939.27,1287.34 1947.66,1287.34 1947.66,1199.09 1956.06,1199.09 1956.06,1213.18 1964.46,1213.18 1964.46,1231.46 1972.86,1231.46 1972.86,1385.3 1981.25,1385.3 1981.25,1259.38 1989.65,1259.38 1989.65,1260.03 1998.05,1260.03 1998.05,1370.51 2006.44,1370.51 2006.44,1278.97 2014.84,1278.97 2014.84,1387.88 2023.24,1387.88 2023.24,1376.19 2031.64,1376.19 2031.64,1268.44 2040.03,1268.44 2040.03,1320.9 2048.43,1320.9 2048.43,1409.43 2056.83,1409.43 2056.83,1382.39 2065.22,1382.39 2065.22,1434.48 2073.62,1434.48 2073.62,1359.87 2082.02,1359.87 2082.02,1389.57 2090.42,1389.57 2090.42,1351.96 2098.81,1351.96 2098.81,1396.15 2107.21,1396.15 2107.21,1387.94 2115.61,1387.94 2115.61,1349.95 2124,1349.95 2124,1395.38 2132.4,1395.38 2132.4,1373.57 2140.8,1373.57 2140.8,1392.82 2149.2,1392.82 2149.2,1412.24 2157.59,1412.24 2157.59,1315.36 2165.99,1315.36 2165.99,1313.9 2174.39,1313.9 2174.39,1367.1 2182.78,1367.1 2182.78,1413.78 2191.18,1413.78 2191.18,1301.91 2199.58,1301.91 2199.58,1345.47 2207.98,1345.47 2207.98,1256.88 2216.37,1256.88 2216.37,1314.39 2224.77,1314.39 2224.77,1425.36 2233.17,1425.36 2233.17,1300.98 2241.56,1300.98 2241.56,1319.22 2249.96,1319.22 2249.96,1337.8 2258.36,1337.8 2258.36,1361.49 2266.76,1361.49 2266.76,1414.76 2275.15,1414.76 2275.15,1269.33 2283.55,1269.33 2283.55,1329.36 2291.95,1329.36 2291.95,1418.45 2300.34,1418.45 2300.34,1285.91 2308.74,1285.91 2308.74,1371.84 2317.14,1371.84 2317.14,1299.27 2325.54,1299.27 2325.54,1331.14 2333.93,1331.14 2333.93,1390.2 2342.33,1390.2 2342.33,1379.25 2350.73,1379.25 2350.73,1472.59 2359.12,1472.59 2359.12,1312.59 2367.52,1312.59 2367.52,1401.65 2375.92,1401.65 2375.92,1438.29 2384.32,1438.29 2384.32,1352.16 2392.71,1352.16 2392.71,1452.97 2401.11,1452.97 2401.11,1455.49 2409.51,1455.49 2409.51,1461.41 2417.9,1461.41 2417.9,1475.11 2426.3,1475.11 2426.3,1489.66 2434.7,1489.66 2434.7,1544.93 2443.09,1544.93 2443.09,1444.57 2451.49,1444.57 2451.49,1493.94 2459.89,1493.94 2459.89,1539.91 2468.29,1539.91 2468.29,1451.93 2476.68,1451.93 2476.68,1472.9 2485.08,1472.9 2485.08,1516.73 2493.48,1516.73 2493.48,1456.64 2501.87,1456.64 2501.87,1584.63 2510.27,1584.63 2510.27,1456.74 2518.67,1456.74 2518.67,1490.73 2527.07,1490.73 2527.07,1547.69 2535.46,1547.69 2535.46,1436.82 2543.86,1436.82 2543.86,1588.24 2552.26,1588.24 2552.26,1506.47 2560.65,1506.47 2560.65,1489.85 2569.05,1489.85 2569.05,1527.41 2577.45,1527.41 2577.45,1557.62 2585.85,1557.62 2585.85,1472.24 2594.24,1472.24 2594.24,1483.34 2602.64,1483.34 2602.64,1554.71 2611.04,1554.71 2611.04,1483.24 "/>
<polyline clip-path="url(#clip022)" style="stroke:#808080; stroke-linecap:round; stroke-linejoin:round; stroke-width:6; stroke-opacity:1; fill:none" stroke-dasharray="24, 15" points="511.757,1193.44 520.154,1193.44 528.551,1193.44 536.949,1193.44 545.346,1193.44 553.743,1193.44 562.14,1193.44 570.537,1193.44 578.934,1193.44 587.331,1193.44 595.728,1193.44 604.126,1193.44 612.523,1193.44 620.92,1193.44 629.317,1193.44 637.714,1193.44 646.111,1193.44 654.508,1193.44 662.905,1193.44 671.303,1193.44 679.7,1193.44 688.097,1193.44 696.494,1193.44 704.891,1193.44 713.288,1193.44 721.685,1193.44 730.082,1193.44 738.48,1193.44 746.877,1193.44 755.274,1193.44 763.671,1193.44 772.068,1193.44 780.465,1193.44 788.862,1193.44 797.259,1193.44 805.656,1193.44 814.054,1193.44 822.451,1193.44 830.848,1193.44 839.245,1193.44 847.642,1193.44 856.039,1193.44 864.436,1193.44 872.833,1193.44 881.231,1193.44 889.628,1193.44 898.025,1193.44 906.422,1193.44 914.819,1193.44 923.216,1193.44 931.613,1193.44 940.01,1193.44 948.408,1193.44 956.805,1193.44 965.202,1193.44 973.599,1193.44 981.996,1193.44 990.393,1193.44 998.79,1193.44 1007.19,1193.44 1015.58,1193.44 1023.98,1193.44 1032.38,1193.44 1040.78,1193.44 1049.17,1193.44 1057.57,1193.44 1065.97,1193.44 1074.36,1193.44 1082.76,1193.44 1091.16,1193.44 1099.56,1193.44 1107.95,1193.44 1116.35,1193.44 1124.75,1193.44 1133.14,1193.44 1141.54,1193.44 1149.94,1193.44 1158.34,1193.44 1166.73,1193.44 1175.13,1193.44 1183.53,1193.44 1191.92,1193.44 1200.32,1193.44 1208.72,1193.44 1217.12,1193.44 1225.51,1193.44 1233.91,1193.44 1242.31,1193.44 1250.7,1193.44 1259.1,1193.44 1267.5,1193.44 1275.9,1193.44 1284.29,1193.44 1292.69,1193.44 1301.09,1193.44 1309.48,1193.44 1317.88,1193.44 1326.28,1193.44 1334.68,1193.44 1343.07,1193.44 1351.47,1193.44 1359.87,1193.44 1368.26,1193.44 1376.66,1193.44 1385.06,1193.44 1393.45,1193.44 1401.85,1193.44 1410.25,1193.44 1418.65,1193.44 1427.04,1193.44 1435.44,1193.44 1443.84,1193.44 1452.23,1193.44 1460.63,1193.44 1469.03,1193.44 1477.43,1193.44 1485.82,1193.44 1494.22,1193.44 1502.62,1193.44 1511.01,1193.44 1519.41,1193.44 1527.81,1193.44 1536.21,1193.44 1544.6,1193.44 1553,1193.44 1561.4,1193.44 1569.79,1193.44 1578.19,1193.44 1586.59,1193.44 1594.99,1193.44 1603.38,1193.44 1611.78,1193.44 1620.18,1193.44 1628.57,1193.44 1636.97,1193.44 1645.37,1193.44 1653.77,1193.44 1662.16,1193.44 1670.56,1193.44 1678.96,1193.44 1687.35,1193.44 1695.75,1193.44 1704.15,1193.44 1712.55,1193.44 1720.94,1193.44 1729.34,1193.44 1737.74,1193.44 1746.13,1193.44 1754.53,1193.44 1762.93,1193.44 1771.33,1193.44 1779.72,1193.44 1788.12,1193.44 1796.52,1193.44 1804.91,1193.44 1813.31,1193.44 1821.71,1193.44 1830.11,1193.44 1838.5,1193.44 1846.9,1193.44 1855.3,1193.44 1863.69,1193.44 1872.09,1193.44 1880.49,1193.44 1888.88,1193.44 1897.28,1193.44 1905.68,1193.44 1914.08,1193.44 1922.47,1193.44 1930.87,1193.44 1939.27,1193.44 1947.66,1193.44 1956.06,1193.44 1964.46,1193.44 1972.86,1193.44 1981.25,1193.44 1989.65,1193.44 1998.05,1193.44 2006.44,1193.44 2014.84,1193.44 2023.24,1193.44 2031.64,1193.44 2040.03,1193.44 2048.43,1193.44 2056.83,1193.44 2065.22,1193.44 2073.62,1193.44 2082.02,1193.44 2090.42,1193.44 2098.81,1193.44 2107.21,1193.44 2115.61,1193.44 2124,1193.44 2132.4,1193.44 2140.8,1193.44 2149.2,1193.44 2157.59,1193.44 2165.99,1193.44 2174.39,1193.44 2182.78,1193.44 2191.18,1193.44 2199.58,1193.44 2207.98,1193.44 2216.37,1193.44 2224.77,1193.44 2233.17,1193.44 2241.56,1193.44 2249.96,1193.44 2258.36,1193.44 2266.76,1193.44 2275.15,1193.44 2283.55,1193.44 2291.95,1193.44 2300.34,1193.44 2308.74,1193.44 2317.14,1193.44 2325.54,1193.44 2333.93,1193.44 2342.33,1193.44 2350.73,1193.44 2359.12,1193.44 2367.52,1193.44 2375.92,1193.44 2384.32,1193.44 2392.71,1193.44 2401.11,1193.44 2409.51,1193.44 2417.9,1193.44 2426.3,1193.44 2434.7,1193.44 2443.09,1193.44 2451.49,1193.44 2459.89,1193.44 2468.29,1193.44 2476.68,1193.44 2485.08,1193.44 2493.48,1193.44 2501.87,1193.44 2510.27,1193.44 2518.67,1193.44 2527.07,1193.44 2535.46,1193.44 2543.86,1193.44 2552.26,1193.44 2560.65,1193.44 2569.05,1193.44 2577.45,1193.44 2585.85,1193.44 2594.24,1193.44 2602.64,1193.44 2611.04,1193.44 "/>
<polyline clip-path="url(#clip022)" style="stroke:#808080; stroke-linecap:round; stroke-linejoin:round; stroke-width:6; stroke-opacity:1; fill:none" stroke-dasharray="24, 15" points="511.757,1582.6 520.154,1582.6 528.551,1582.6 536.949,1582.6 545.346,1582.6 553.743,1582.6 562.14,1582.6 570.537,1582.6 578.934,1582.6 587.331,1582.6 595.728,1582.6 604.126,1582.6 612.523,1582.6 620.92,1582.6 629.317,1582.6 637.714,1582.6 646.111,1582.6 654.508,1582.6 662.905,1582.6 671.303,1582.6 679.7,1582.6 688.097,1582.6 696.494,1582.6 704.891,1582.6 713.288,1582.6 721.685,1582.6 730.082,1582.6 738.48,1582.6 746.877,1582.6 755.274,1582.6 763.671,1582.6 772.068,1582.6 780.465,1582.6 788.862,1582.6 797.259,1582.6 805.656,1582.6 814.054,1582.6 822.451,1582.6 830.848,1582.6 839.245,1582.6 847.642,1582.6 856.039,1582.6 864.436,1582.6 872.833,1582.6 881.231,1582.6 889.628,1582.6 898.025,1582.6 906.422,1582.6 914.819,1582.6 923.216,1582.6 931.613,1582.6 940.01,1582.6 948.408,1582.6 956.805,1582.6 965.202,1582.6 973.599,1582.6 981.996,1582.6 990.393,1582.6 998.79,1582.6 1007.19,1582.6 1015.58,1582.6 1023.98,1582.6 1032.38,1582.6 1040.78,1582.6 1049.17,1582.6 1057.57,1582.6 1065.97,1582.6 1074.36,1582.6 1082.76,1582.6 1091.16,1582.6 1099.56,1582.6 1107.95,1582.6 1116.35,1582.6 1124.75,1582.6 1133.14,1582.6 1141.54,1582.6 1149.94,1582.6 1158.34,1582.6 1166.73,1582.6 1175.13,1582.6 1183.53,1582.6 1191.92,1582.6 1200.32,1582.6 1208.72,1582.6 1217.12,1582.6 1225.51,1582.6 1233.91,1582.6 1242.31,1582.6 1250.7,1582.6 1259.1,1582.6 1267.5,1582.6 1275.9,1582.6 1284.29,1582.6 1292.69,1582.6 1301.09,1582.6 1309.48,1582.6 1317.88,1582.6 1326.28,1582.6 1334.68,1582.6 1343.07,1582.6 1351.47,1582.6 1359.87,1582.6 1368.26,1582.6 1376.66,1582.6 1385.06,1582.6 1393.45,1582.6 1401.85,1582.6 1410.25,1582.6 1418.65,1582.6 1427.04,1582.6 1435.44,1582.6 1443.84,1582.6 1452.23,1582.6 1460.63,1582.6 1469.03,1582.6 1477.43,1582.6 1485.82,1582.6 1494.22,1582.6 1502.62,1582.6 1511.01,1582.6 1519.41,1582.6 1527.81,1582.6 1536.21,1582.6 1544.6,1582.6 1553,1582.6 1561.4,1582.6 1569.79,1582.6 1578.19,1582.6 1586.59,1582.6 1594.99,1582.6 1603.38,1582.6 1611.78,1582.6 1620.18,1582.6 1628.57,1582.6 1636.97,1582.6 1645.37,1582.6 1653.77,1582.6 1662.16,1582.6 1670.56,1582.6 1678.96,1582.6 1687.35,1582.6 1695.75,1582.6 1704.15,1582.6 1712.55,1582.6 1720.94,1582.6 1729.34,1582.6 1737.74,1582.6 1746.13,1582.6 1754.53,1582.6 1762.93,1582.6 1771.33,1582.6 1779.72,1582.6 1788.12,1582.6 1796.52,1582.6 1804.91,1582.6 1813.31,1582.6 1821.71,1582.6 1830.11,1582.6 1838.5,1582.6 1846.9,1582.6 1855.3,1582.6 1863.69,1582.6 1872.09,1582.6 1880.49,1582.6 1888.88,1582.6 1897.28,1582.6 1905.68,1582.6 1914.08,1582.6 1922.47,1582.6 1930.87,1582.6 1939.27,1582.6 1947.66,1582.6 1956.06,1582.6 1964.46,1582.6 1972.86,1582.6 1981.25,1582.6 1989.65,1582.6 1998.05,1582.6 2006.44,1582.6 2014.84,1582.6 2023.24,1582.6 2031.64,1582.6 2040.03,1582.6 2048.43,1582.6 2056.83,1582.6 2065.22,1582.6 2073.62,1582.6 2082.02,1582.6 2090.42,1582.6 2098.81,1582.6 2107.21,1582.6 2115.61,1582.6 2124,1582.6 2132.4,1582.6 2140.8,1582.6 2149.2,1582.6 2157.59,1582.6 2165.99,1582.6 2174.39,1582.6 2182.78,1582.6 2191.18,1582.6 2199.58,1582.6 2207.98,1582.6 2216.37,1582.6 2224.77,1582.6 2233.17,1582.6 2241.56,1582.6 2249.96,1582.6 2258.36,1582.6 2266.76,1582.6 2275.15,1582.6 2283.55,1582.6 2291.95,1582.6 2300.34,1582.6 2308.74,1582.6 2317.14,1582.6 2325.54,1582.6 2333.93,1582.6 2342.33,1582.6 2350.73,1582.6 2359.12,1582.6 2367.52,1582.6 2375.92,1582.6 2384.32,1582.6 2392.71,1582.6 2401.11,1582.6 2409.51,1582.6 2417.9,1582.6 2426.3,1582.6 2434.7,1582.6 2443.09,1582.6 2451.49,1582.6 2459.89,1582.6 2468.29,1582.6 2476.68,1582.6 2485.08,1582.6 2493.48,1582.6 2501.87,1582.6 2510.27,1582.6 2518.67,1582.6 2527.07,1582.6 2535.46,1582.6 2543.86,1582.6 2552.26,1582.6 2560.65,1582.6 2569.05,1582.6 2577.45,1582.6 2585.85,1582.6 2594.24,1582.6 2602.64,1582.6 2611.04,1582.6 "/>
<path clip-path="url(#clip020)" d="M2144.25 351.106 L2599.84 351.106 L2599.84 176.146 L2144.25 176.146  Z" fill="#ffffff" fill-rule="evenodd" fill-opacity="1"/>
<polyline clip-path="url(#clip020)" style="stroke:#000000; stroke-linecap:round; stroke-linejoin:round; stroke-width:4; stroke-opacity:1; fill:none" points="2144.25,351.106 2599.84,351.106 2599.84,176.146 2144.25,176.146 2144.25,351.106 "/>
<polyline clip-path="url(#clip020)" style="stroke:#ff8c00; stroke-linecap:round; stroke-linejoin:round; stroke-width:9; stroke-opacity:1; fill:none" points="2168.97,234.466 2317.32,234.466 "/>
<path clip-path="url(#clip020)" d="M2359.86 220.208 L2352.72 239.557 L2367.02 239.557 L2359.86 220.208 M2356.89 215.026 L2362.85 215.026 L2377.67 253.906 L2372.2 253.906 L2368.66 243.932 L2351.13 243.932 L2347.59 253.906 L2342.04 253.906 L2356.89 215.026 Z" fill="#000000" fill-rule="nonzero" fill-opacity="1" /><path clip-path="url(#clip020)" d="M2411.52 218.021 L2411.52 223.567 Q2408.87 221.094 2405.85 219.87 Q2402.85 218.646 2399.47 218.646 Q2392.8 218.646 2389.26 222.734 Q2385.72 226.797 2385.72 234.505 Q2385.72 242.187 2389.26 246.276 Q2392.8 250.338 2399.47 250.338 Q2402.85 250.338 2405.85 249.114 Q2408.87 247.89 2411.52 245.416 L2411.52 250.911 Q2408.76 252.786 2405.66 253.724 Q2402.59 254.661 2399.15 254.661 Q2390.33 254.661 2385.25 249.27 Q2380.17 243.854 2380.17 234.505 Q2380.17 225.13 2385.25 219.739 Q2390.33 214.323 2399.15 214.323 Q2402.64 214.323 2405.72 215.26 Q2408.82 216.172 2411.52 218.021 Z" fill="#000000" fill-rule="nonzero" fill-opacity="1" /><path clip-path="url(#clip020)" d="M2419.65 215.026 L2441.99 215.026 L2441.99 219.453 L2424.91 219.453 L2424.91 230.911 L2440.33 230.911 L2440.33 235.338 L2424.91 235.338 L2424.91 253.906 L2419.65 253.906 L2419.65 215.026 Z" fill="#000000" fill-rule="nonzero" fill-opacity="1" /><path clip-path="url(#clip020)" d="M2461.63 213.437 Q2458.14 219.427 2456.45 225.286 Q2454.75 231.146 2454.75 237.161 Q2454.75 243.177 2456.45 249.088 Q2458.16 254.974 2461.63 260.937 L2457.46 260.937 Q2453.55 254.817 2451.6 248.906 Q2449.67 242.994 2449.67 237.161 Q2449.67 231.354 2451.6 225.468 Q2453.53 219.583 2457.46 213.437 L2461.63 213.437 Z" fill="#000000" fill-rule="nonzero" fill-opacity="1" /><path clip-path="url(#clip020)" d="M2477.1 213.151 L2477.1 266.484 L2472.67 266.484 L2472.67 213.151 L2477.1 213.151 Z" fill="#000000" fill-rule="nonzero" fill-opacity="1" /><path clip-path="url(#clip020)" d="M2515.61 248.359 L2515.61 237.916 L2507.02 237.916 L2507.02 233.593 L2520.82 233.593 L2520.82 250.286 Q2517.77 252.448 2514.1 253.567 Q2510.43 254.661 2506.26 254.661 Q2497.15 254.661 2491.99 249.349 Q2486.86 244.01 2486.86 234.505 Q2486.86 224.974 2491.99 219.661 Q2497.15 214.323 2506.26 214.323 Q2510.06 214.323 2513.48 215.26 Q2516.91 216.198 2519.8 218.021 L2519.8 223.62 Q2516.89 221.146 2513.61 219.896 Q2510.33 218.646 2506.71 218.646 Q2499.57 218.646 2495.98 222.63 Q2492.41 226.614 2492.41 234.505 Q2492.41 242.369 2495.98 246.354 Q2499.57 250.338 2506.71 250.338 Q2509.49 250.338 2511.68 249.869 Q2513.87 249.375 2515.61 248.359 Z" fill="#000000" fill-rule="nonzero" fill-opacity="1" /><path clip-path="url(#clip020)" d="M2531.34 232.942 L2531.34 237.578 L2537.56 237.578 L2537.56 239.661 L2531.34 239.661 L2531.34 248.515 Q2531.34 250.52 2531.97 251.093 Q2532.59 251.666 2534.47 251.666 L2537.56 251.666 L2537.56 253.906 L2534.47 253.906 Q2530.98 253.906 2529.65 252.734 Q2528.32 251.588 2528.32 248.515 L2528.32 239.661 L2526.11 239.661 L2526.11 237.578 L2528.32 237.578 L2528.32 232.942 L2531.34 232.942 Z" fill="#000000" fill-rule="nonzero" fill-opacity="1" /><path clip-path="url(#clip020)" d="M2552.12 213.151 L2552.12 266.484 L2547.69 266.484 L2547.69 213.151 L2552.12 213.151 Z" fill="#000000" fill-rule="nonzero" fill-opacity="1" /><path clip-path="url(#clip020)" d="M2563.16 213.437 L2567.33 213.437 Q2571.24 219.583 2573.16 225.468 Q2575.12 231.354 2575.12 237.161 Q2575.12 242.994 2573.16 248.906 Q2571.24 254.817 2567.33 260.937 L2563.16 260.937 Q2566.63 254.974 2568.32 249.088 Q2570.04 243.177 2570.04 237.161 Q2570.04 231.146 2568.32 225.286 Q2566.63 219.427 2563.16 213.437 Z" fill="#000000" fill-rule="nonzero" fill-opacity="1" /><polyline clip-path="url(#clip020)" style="stroke:#808080; stroke-linecap:round; stroke-linejoin:round; stroke-width:6.75; stroke-opacity:1; fill:none" stroke-dasharray="27, 17" points="2168.97,292.786 2317.32,292.786 "/>
<path clip-path="url(#clip020)" d="M2344.54 311.419 L2344.54 306.627 Q2346.52 307.564 2348.56 308.059 Q2350.59 308.554 2352.54 308.554 Q2357.75 308.554 2360.48 305.064 Q2363.24 301.549 2363.63 294.413 Q2362.12 296.653 2359.8 297.851 Q2357.49 299.049 2354.67 299.049 Q2348.84 299.049 2345.43 295.533 Q2342.04 291.992 2342.04 285.872 Q2342.04 279.882 2345.59 276.262 Q2349.13 272.643 2355.01 272.643 Q2361.76 272.643 2365.3 277.825 Q2368.87 282.981 2368.87 292.825 Q2368.87 302.018 2364.49 307.512 Q2360.14 312.981 2352.77 312.981 Q2350.79 312.981 2348.76 312.59 Q2346.73 312.2 2344.54 311.419 M2355.01 294.934 Q2358.55 294.934 2360.61 292.512 Q2362.7 290.091 2362.7 285.872 Q2362.7 281.679 2360.61 279.257 Q2358.55 276.809 2355.01 276.809 Q2351.47 276.809 2349.39 279.257 Q2347.33 281.679 2347.33 285.872 Q2347.33 290.091 2349.39 292.512 Q2351.47 294.934 2355.01 294.934 Z" fill="#000000" fill-rule="nonzero" fill-opacity="1" /><path clip-path="url(#clip020)" d="M2378.48 311.419 L2378.48 306.627 Q2380.46 307.564 2382.49 308.059 Q2384.52 308.554 2386.47 308.554 Q2391.68 308.554 2394.41 305.064 Q2397.17 301.549 2397.57 294.413 Q2396.05 296.653 2393.74 297.851 Q2391.42 299.049 2388.61 299.049 Q2382.77 299.049 2379.36 295.533 Q2375.98 291.992 2375.98 285.872 Q2375.98 279.882 2379.52 276.262 Q2383.06 272.643 2388.95 272.643 Q2395.69 272.643 2399.23 277.825 Q2402.8 282.981 2402.8 292.825 Q2402.8 302.018 2398.42 307.512 Q2394.08 312.981 2386.71 312.981 Q2384.73 312.981 2382.7 312.59 Q2380.66 312.2 2378.48 311.419 M2388.95 294.934 Q2392.49 294.934 2394.54 292.512 Q2396.63 290.091 2396.63 285.872 Q2396.63 281.679 2394.54 279.257 Q2392.49 276.809 2388.95 276.809 Q2385.4 276.809 2383.32 279.257 Q2381.26 281.679 2381.26 285.872 Q2381.26 290.091 2383.32 292.512 Q2385.4 294.934 2388.95 294.934 Z" fill="#000000" fill-rule="nonzero" fill-opacity="1" /><path clip-path="url(#clip020)" d="M2445.33 295.117 Q2443.06 295.117 2441.76 297.044 Q2440.48 298.971 2440.48 302.408 Q2440.48 305.794 2441.76 307.747 Q2443.06 309.674 2445.33 309.674 Q2447.54 309.674 2448.81 307.747 Q2450.12 305.794 2450.12 302.408 Q2450.12 298.997 2448.81 297.07 Q2447.54 295.117 2445.33 295.117 M2445.33 291.809 Q2449.44 291.809 2451.86 294.674 Q2454.28 297.538 2454.28 302.408 Q2454.28 307.278 2451.84 310.143 Q2449.41 312.981 2445.33 312.981 Q2441.16 312.981 2438.74 310.143 Q2436.31 307.278 2436.31 302.408 Q2436.31 297.512 2438.74 294.674 Q2441.18 291.809 2445.33 291.809 M2418.45 275.95 Q2416.21 275.95 2414.91 277.903 Q2413.63 279.83 2413.63 283.216 Q2413.63 286.653 2414.91 288.58 Q2416.18 290.507 2418.45 290.507 Q2420.72 290.507 2421.99 288.58 Q2423.29 286.653 2423.29 283.216 Q2423.29 279.856 2421.99 277.903 Q2420.69 275.95 2418.45 275.95 M2441.97 272.643 L2446.13 272.643 L2421.81 312.981 L2417.64 312.981 L2441.97 272.643 M2418.45 272.643 Q2422.57 272.643 2425.01 275.507 Q2427.46 278.346 2427.46 283.216 Q2427.46 288.137 2425.01 290.976 Q2422.59 293.814 2418.45 293.814 Q2414.31 293.814 2411.89 290.976 Q2409.49 288.111 2409.49 283.216 Q2409.49 278.372 2411.91 275.507 Q2414.34 272.643 2418.45 272.643 Z" fill="#000000" fill-rule="nonzero" fill-opacity="1" /><path clip-path="url(#clip020)" d="M2508.53 276.341 L2508.53 281.887 Q2505.87 279.414 2502.85 278.19 Q2499.86 276.966 2496.47 276.966 Q2489.8 276.966 2486.26 281.054 Q2482.72 285.117 2482.72 292.825 Q2482.72 300.507 2486.26 304.596 Q2489.8 308.658 2496.47 308.658 Q2499.86 308.658 2502.85 307.434 Q2505.87 306.21 2508.53 303.736 L2508.53 309.231 Q2505.77 311.106 2502.67 312.044 Q2499.6 312.981 2496.16 312.981 Q2487.33 312.981 2482.25 307.59 Q2477.17 302.174 2477.17 292.825 Q2477.17 283.45 2482.25 278.059 Q2487.33 272.643 2496.16 272.643 Q2499.65 272.643 2502.72 273.58 Q2505.82 274.492 2508.53 276.341 Z" fill="#000000" fill-rule="nonzero" fill-opacity="1" /><path clip-path="url(#clip020)" d="M2516.65 273.346 L2521.91 273.346 L2521.91 312.226 L2516.65 312.226 L2516.65 273.346 Z" fill="#000000" fill-rule="nonzero" fill-opacity="1" /></svg>
