<?xml version="1.0" encoding="utf-8"?>
<svg xmlns="http://www.w3.org/2000/svg" xmlns:xlink="http://www.w3.org/1999/xlink" width="700" height="500" viewBox="0 0 2800 2000">
<defs>
  <clipPath id="clip000">
    <rect x="0" y="0" width="2800" height="2000"/>
  </clipPath>
</defs>
<path clip-path="url(#clip000)" d="M0 2000 L2800 2000 L2800 -4.44089e-14 L0 -4.44089e-14  Z" fill="#ffffff" fill-rule="evenodd" fill-opacity="1"/>
<defs>
  <clipPath id="clip001">
    <rect x="494" y="125" width="2180" height="1506"/>
  </clipPath>
</defs>
<path clip-path="url(#clip000)" d="M494.525 1630.83 L2674.02 1630.83 L2674.02 125.984 L494.525 125.984  Z" fill="#ffffff" fill-rule="evenodd" fill-opacity="1"/>
<polyline clip-path="url(#clip001)" style="stroke:#000000; stroke-linecap:round; stroke-linejoin:round; stroke-width:2; stroke-opacity:0.1; fill:none" points="548.017,1630.83 548.017,125.984 "/>
<polyline clip-path="url(#clip001)" style="stroke:#000000; stroke-linecap:round; stroke-linejoin:round; stroke-width:2; stroke-opacity:0.1; fill:none" points="957.603,1630.83 957.603,125.984 "/>
<polyline clip-path="url(#clip001)" style="stroke:#000000; stroke-linecap:round; stroke-linejoin:round; stroke-width:2; stroke-opacity:0.1; fill:none" points="1367.19,1630.83 1367.19,125.984 "/>
<polyline clip-path="url(#clip001)" style="stroke:#000000; stroke-linecap:round; stroke-linejoin:round; stroke-width:2; stroke-opacity:0.1; fill:none" points="1776.78,1630.83 1776.78,125.984 "/>
<polyline clip-path="url(#clip001)" style="stroke:#000000; stroke-linecap:round; stroke-linejoin:round; stroke-width:2; stroke-opacity:0.1; fill:none" points="2186.36,1630.83 2186.36,125.984 "/>
<polyline clip-path="url(#clip001)" style="stroke:#000000; stroke-linecap:round; stroke-linejoin:round; stroke-width:2; stroke-opacity:0.1; fill:none" points="2595.95,1630.83 2595.95,125.984 "/>
<polyline clip-path="url(#clip001)" style="stroke:#000000; stroke-linecap:round; stroke-linejoin:round; stroke-width:2; stroke-opacity:0.1; fill:none" points="494.525,1568.87 2674.02,1568.87 "/>
<polyline clip-path="url(#clip001)" style="stroke:#000000; stroke-linecap:round; stroke-linejoin:round; stroke-width:2; stroke-opacity:0.1; fill:none" points="494.525,1266.16 2674.02,1266.16 "/>
<polyline clip-path="url(#clip001)" style="stroke:#000000; stroke-linecap:round; stroke-linejoin:round; stroke-width:2; stroke-opacity:0.1; fill:none" points="494.525,963.458 2674.02,963.458 "/>
<polyline clip-path="url(#clip001)" style="stroke:#000000; stroke-linecap:round; stroke-linejoin:round; stroke-width:2; stroke-opacity:0.1; fill:none" points="494.525,660.752 2674.02,660.752 "/>
<polyline clip-path="url(#clip001)" style="stroke:#000000; stroke-linecap:round; stroke-linejoin:round; stroke-width:2; stroke-opacity:0.1; fill:none" points="494.525,358.046 2674.02,358.046 "/>
<polyline clip-path="url(#clip000)" style="stroke:#000000; stroke-linecap:round; stroke-linejoin:round; stroke-width:4; stroke-opacity:1; fill:none" points="494.525,1630.83 2674.02,1630.83 "/>
<polyline clip-path="url(#clip000)" style="stroke:#000000; stroke-linecap:round; stroke-linejoin:round; stroke-width:4; stroke-opacity:1; fill:none" points="548.017,1630.83 548.017,1611.93 "/>
<polyline clip-path="url(#clip000)" style="stroke:#000000; stroke-linecap:round; stroke-linejoin:round; stroke-width:4; stroke-opacity:1; fill:none" points="957.603,1630.83 957.603,1611.93 "/>
<polyline clip-path="url(#clip000)" style="stroke:#000000; stroke-linecap:round; stroke-linejoin:round; stroke-width:4; stroke-opacity:1; fill:none" points="1367.19,1630.83 1367.19,1611.93 "/>
<polyline clip-path="url(#clip000)" style="stroke:#000000; stroke-linecap:round; stroke-linejoin:round; stroke-width:4; stroke-opacity:1; fill:none" points="1776.78,1630.83 1776.78,1611.93 "/>
<polyline clip-path="url(#clip000)" style="stroke:#000000; stroke-linecap:round; stroke-linejoin:round; stroke-width:4; stroke-opacity:1; fill:none" points="2186.36,1630.83 2186.36,1611.93 "/>
<polyline clip-path="url(#clip000)" style="stroke:#000000; stroke-linecap:round; stroke-linejoin:round; stroke-width:4; stroke-opacity:1; fill:none" points="2595.95,1630.83 2595.95,1611.93 "/>
<path clip-path="url(#clip000)" d="M548.017 1667.88 Q543.503 1667.88 541.217 1672.34 Q538.96 1676.76 538.96 1685.67 Q538.96 1694.56 541.217 1699.01 Q543.503 1703.44 548.017 1703.44 Q552.56 1703.44 554.817 1699.01 Q557.103 1694.56 557.103 1685.67 Q557.103 1676.76 554.817 1672.34 Q552.56 1667.88 548.017 1667.88 M548.017 1663.25 Q555.28 1663.25 559.099 1669.01 Q562.948 1674.74 562.948 1685.67 Q562.948 1696.58 559.099 1702.34 Q555.28 1708.07 548.017 1708.07 Q540.754 1708.07 536.906 1702.34 Q533.087 1696.58 533.087 1685.67 Q533.087 1674.74 536.906 1669.01 Q540.754 1663.25 548.017 1663.25 Z" fill="#000000" fill-rule="nonzero" fill-opacity="1" /><path clip-path="url(#clip000)" d="M925.977 1664.03 L948.923 1664.03 L948.923 1668.95 L931.33 1668.95 L931.33 1679.54 Q932.604 1679.11 933.877 1678.9 Q935.15 1678.67 936.423 1678.67 Q943.657 1678.67 947.881 1682.64 Q952.106 1686.6 952.106 1693.37 Q952.106 1700.34 947.765 1704.22 Q943.425 1708.07 935.526 1708.07 Q932.806 1708.07 929.97 1707.61 Q927.164 1707.14 924.155 1706.22 L924.155 1700.34 Q926.759 1701.76 929.536 1702.46 Q932.314 1703.15 935.41 1703.15 Q940.416 1703.15 943.338 1700.52 Q946.261 1697.89 946.261 1693.37 Q946.261 1688.86 943.338 1686.22 Q940.416 1683.59 935.41 1683.59 Q933.066 1683.59 930.723 1684.11 Q928.408 1684.63 925.977 1685.73 L925.977 1664.03 Z" fill="#000000" fill-rule="nonzero" fill-opacity="1" /><path clip-path="url(#clip000)" d="M976.122 1667.88 Q971.608 1667.88 969.322 1672.34 Q967.065 1676.76 967.065 1685.67 Q967.065 1694.56 969.322 1699.01 Q971.608 1703.44 976.122 1703.44 Q980.665 1703.44 982.922 1699.01 Q985.207 1694.56 985.207 1685.67 Q985.207 1676.76 982.922 1672.34 Q980.665 1667.88 976.122 1667.88 M976.122 1663.25 Q983.385 1663.25 987.204 1669.01 Q991.052 1674.74 991.052 1685.67 Q991.052 1696.58 987.204 1702.34 Q983.385 1708.07 976.122 1708.07 Q968.859 1708.07 965.011 1702.34 Q961.191 1696.58 961.191 1685.67 Q961.191 1674.74 965.011 1669.01 Q968.859 1663.25 976.122 1663.25 Z" fill="#000000" fill-rule="nonzero" fill-opacity="1" /><path clip-path="url(#clip000)" d="M1316.7 1702.31 L1326.25 1702.31 L1326.25 1669.36 L1315.86 1671.44 L1315.86 1666.11 L1326.19 1664.03 L1332.03 1664.03 L1332.03 1702.31 L1341.58 1702.31 L1341.58 1707.23 L1316.7 1707.23 L1316.7 1702.31 Z" fill="#000000" fill-rule="nonzero" fill-opacity="1" /><path clip-path="url(#clip000)" d="M1365.89 1667.88 Q1361.37 1667.88 1359.09 1672.34 Q1356.83 1676.76 1356.83 1685.67 Q1356.83 1694.56 1359.09 1699.01 Q1361.37 1703.44 1365.89 1703.44 Q1370.43 1703.44 1372.69 1699.01 Q1374.97 1694.56 1374.97 1685.67 Q1374.97 1676.76 1372.69 1672.34 Q1370.43 1667.88 1365.89 1667.88 M1365.89 1663.25 Q1373.15 1663.25 1376.97 1669.01 Q1380.82 1674.74 1380.82 1685.67 Q1380.82 1696.58 1376.97 1702.34 Q1373.15 1708.07 1365.89 1708.07 Q1358.62 1708.07 1354.78 1702.34 Q1350.96 1696.58 1350.96 1685.67 Q1350.96 1674.74 1354.78 1669.01 Q1358.62 1663.25 1365.89 1663.25 Z" fill="#000000" fill-rule="nonzero" fill-opacity="1" /><path clip-path="url(#clip000)" d="M1403.59 1667.88 Q1399.08 1667.88 1396.79 1672.34 Q1394.53 1676.76 1394.53 1685.67 Q1394.53 1694.56 1396.79 1699.01 Q1399.08 1703.44 1403.59 1703.44 Q1408.13 1703.44 1410.39 1699.01 Q1412.68 1694.56 1412.68 1685.67 Q1412.68 1676.76 1410.39 1672.34 Q1408.13 1667.88 1403.59 1667.88 M1403.59 1663.25 Q1410.85 1663.25 1414.67 1669.01 Q1418.52 1674.74 1418.52 1685.67 Q1418.52 1696.58 1414.67 1702.34 Q1410.85 1708.07 1403.59 1708.07 Q1396.33 1708.07 1392.48 1702.34 Q1388.66 1696.58 1388.66 1685.67 Q1388.66 1674.74 1392.48 1669.01 Q1396.33 1663.25 1403.59 1663.25 Z" fill="#000000" fill-rule="nonzero" fill-opacity="1" /><path clip-path="url(#clip000)" d="M1726.28 1702.31 L1735.83 1702.31 L1735.83 1669.36 L1725.45 1671.44 L1725.45 1666.11 L1735.78 1664.03 L1741.62 1664.03 L1741.62 1702.31 L1751.17 1702.31 L1751.17 1707.23 L1726.28 1707.23 L1726.28 1702.31 Z" fill="#000000" fill-rule="nonzero" fill-opacity="1" /><path clip-path="url(#clip000)" d="M1763.03 1664.03 L1785.98 1664.03 L1785.98 1668.95 L1768.38 1668.95 L1768.38 1679.54 Q1769.66 1679.11 1770.93 1678.9 Q1772.2 1678.67 1773.48 1678.67 Q1780.71 1678.67 1784.94 1682.64 Q1789.16 1686.6 1789.16 1693.37 Q1789.16 1700.34 1784.82 1704.22 Q1780.48 1708.07 1772.58 1708.07 Q1769.86 1708.07 1767.02 1707.61 Q1764.22 1707.14 1761.21 1706.22 L1761.21 1700.34 Q1763.81 1701.76 1766.59 1702.46 Q1769.37 1703.15 1772.46 1703.15 Q1777.47 1703.15 1780.39 1700.52 Q1783.32 1697.89 1783.32 1693.37 Q1783.32 1688.86 1780.39 1686.22 Q1777.47 1683.59 1772.46 1683.59 Q1770.12 1683.59 1767.78 1684.11 Q1765.46 1684.63 1763.03 1685.73 L1763.03 1664.03 Z" fill="#000000" fill-rule="nonzero" fill-opacity="1" /><path clip-path="url(#clip000)" d="M1813.18 1667.88 Q1808.66 1667.88 1806.38 1672.34 Q1804.12 1676.76 1804.12 1685.67 Q1804.12 1694.56 1806.38 1699.01 Q1808.66 1703.44 1813.18 1703.44 Q1817.72 1703.44 1819.98 1699.01 Q1822.26 1694.56 1822.26 1685.67 Q1822.26 1676.76 1819.98 1672.34 Q1817.72 1667.88 1813.18 1667.88 M1813.18 1663.25 Q1820.44 1663.25 1824.26 1669.01 Q1828.11 1674.74 1828.11 1685.67 Q1828.11 1696.58 1824.26 1702.34 Q1820.44 1708.07 1813.18 1708.07 Q1805.91 1708.07 1802.07 1702.34 Q1798.25 1696.58 1798.25 1685.67 Q1798.25 1674.74 1802.07 1669.01 Q1805.91 1663.25 1813.18 1663.25 Z" fill="#000000" fill-rule="nonzero" fill-opacity="1" /><path clip-path="url(#clip000)" d="M2140.98 1702.31 L2161.38 1702.31 L2161.38 1707.23 L2133.95 1707.23 L2133.95 1702.31 Q2137.27 1698.87 2143 1693.08 Q2148.76 1687.27 2150.24 1685.59 Q2153.04 1682.43 2154.14 1680.26 Q2155.27 1678.06 2155.27 1675.95 Q2155.27 1672.51 2152.84 1670.34 Q2150.44 1668.17 2146.56 1668.17 Q2143.81 1668.17 2140.75 1669.12 Q2137.71 1670.08 2134.24 1672.02 L2134.24 1666.11 Q2137.77 1664.7 2140.83 1663.97 Q2143.9 1663.25 2146.45 1663.25 Q2153.16 1663.25 2157.15 1666.61 Q2161.15 1669.96 2161.15 1675.58 Q2161.15 1678.24 2160.13 1680.64 Q2159.15 1683.01 2156.52 1686.25 Q2155.79 1687.09 2151.92 1691.11 Q2148.04 1695.11 2140.98 1702.31 Z" fill="#000000" fill-rule="nonzero" fill-opacity="1" /><path clip-path="url(#clip000)" d="M2186.15 1667.88 Q2181.63 1667.88 2179.35 1672.34 Q2177.09 1676.76 2177.09 1685.67 Q2177.09 1694.56 2179.35 1699.01 Q2181.63 1703.44 2186.15 1703.44 Q2190.69 1703.44 2192.95 1699.01 Q2195.23 1694.56 2195.23 1685.67 Q2195.23 1676.76 2192.95 1672.34 Q2190.69 1667.88 2186.15 1667.88 M2186.15 1663.25 Q2193.41 1663.25 2197.23 1669.01 Q2201.08 1674.74 2201.08 1685.67 Q2201.08 1696.58 2197.23 1702.34 Q2193.41 1708.07 2186.15 1708.07 Q2178.88 1708.07 2175.03 1702.34 Q2171.21 1696.58 2171.21 1685.67 Q2171.21 1674.74 2175.03 1669.01 Q2178.88 1663.25 2186.15 1663.25 Z" fill="#000000" fill-rule="nonzero" fill-opacity="1" /><path clip-path="url(#clip000)" d="M2223.85 1667.88 Q2219.33 1667.88 2217.05 1672.34 Q2214.79 1676.76 2214.79 1685.67 Q2214.79 1694.56 2217.05 1699.01 Q2219.33 1703.44 2223.85 1703.44 Q2228.39 1703.44 2230.65 1699.01 Q2232.93 1694.56 2232.93 1685.67 Q2232.93 1676.76 2230.65 1672.34 Q2228.39 1667.88 2223.85 1667.88 M2223.85 1663.25 Q2231.11 1663.25 2234.93 1669.01 Q2238.78 1674.74 2238.78 1685.67 Q2238.78 1696.58 2234.93 1702.34 Q2231.11 1708.07 2223.85 1708.07 Q2216.58 1708.07 2212.74 1702.34 Q2208.92 1696.58 2208.92 1685.67 Q2208.92 1674.74 2212.74 1669.01 Q2216.58 1663.25 2223.85 1663.25 Z" fill="#000000" fill-rule="nonzero" fill-opacity="1" /><path clip-path="url(#clip000)" d="M2550.56 1702.31 L2570.96 1702.31 L2570.96 1707.23 L2543.53 1707.23 L2543.53 1702.31 Q2546.86 1698.87 2552.59 1693.08 Q2558.35 1687.27 2559.82 1685.59 Q2562.63 1682.43 2563.73 1680.26 Q2564.86 1678.06 2564.86 1675.95 Q2564.86 1672.51 2562.43 1670.34 Q2560.03 1668.17 2556.15 1668.17 Q2553.4 1668.17 2550.33 1669.12 Q2547.29 1670.08 2543.82 1672.02 L2543.82 1666.11 Q2547.35 1664.7 2550.42 1663.97 Q2553.49 1663.25 2556.03 1663.25 Q2562.75 1663.25 2566.74 1666.61 Q2570.73 1669.96 2570.73 1675.58 Q2570.73 1678.24 2569.72 1680.64 Q2568.74 1683.01 2566.1 1686.25 Q2565.38 1687.09 2561.5 1691.11 Q2557.62 1695.11 2550.56 1702.31 Z" fill="#000000" fill-rule="nonzero" fill-opacity="1" /><path clip-path="url(#clip000)" d="M2583.29 1664.03 L2606.24 1664.03 L2606.24 1668.95 L2588.64 1668.95 L2588.64 1679.54 Q2589.92 1679.11 2591.19 1678.9 Q2592.46 1678.67 2593.74 1678.67 Q2600.97 1678.67 2605.19 1682.64 Q2609.42 1686.6 2609.42 1693.37 Q2609.42 1700.34 2605.08 1704.22 Q2600.74 1708.07 2592.84 1708.07 Q2590.12 1708.07 2587.28 1707.61 Q2584.48 1707.14 2581.47 1706.22 L2581.47 1700.34 Q2584.07 1701.76 2586.85 1702.46 Q2589.63 1703.15 2592.72 1703.15 Q2597.73 1703.15 2600.65 1700.52 Q2603.57 1697.89 2603.57 1693.37 Q2603.57 1688.86 2600.65 1686.22 Q2597.73 1683.59 2592.72 1683.59 Q2590.38 1683.59 2588.03 1684.11 Q2585.72 1684.63 2583.29 1685.73 L2583.29 1664.03 Z" fill="#000000" fill-rule="nonzero" fill-opacity="1" /><path clip-path="url(#clip000)" d="M2633.43 1667.88 Q2628.92 1667.88 2626.63 1672.34 Q2624.38 1676.76 2624.38 1685.67 Q2624.38 1694.56 2626.63 1699.01 Q2628.92 1703.44 2633.43 1703.44 Q2637.98 1703.44 2640.23 1699.01 Q2642.52 1694.56 2642.52 1685.67 Q2642.52 1676.76 2640.23 1672.34 Q2637.98 1667.88 2633.43 1667.88 M2633.43 1663.25 Q2640.7 1663.25 2644.52 1669.01 Q2648.36 1674.74 2648.36 1685.67 Q2648.36 1696.58 2644.52 1702.34 Q2640.7 1708.07 2633.43 1708.07 Q2626.17 1708.07 2622.32 1702.34 Q2618.5 1696.58 2618.5 1685.67 Q2618.5 1674.74 2622.32 1669.01 Q2626.17 1663.25 2633.43 1663.25 Z" fill="#000000" fill-rule="nonzero" fill-opacity="1" /><path clip-path="url(#clip000)" d="M1291.13 1747.14 L1297.56 1747.14 L1297.56 1789.24 L1320.7 1789.24 L1320.7 1794.66 L1291.13 1794.66 L1291.13 1747.14 Z" fill="#000000" fill-rule="nonzero" fill-opacity="1" /><path clip-path="url(#clip000)" d="M1343.39 1776.74 Q1336.29 1776.74 1333.56 1778.36 Q1330.82 1779.98 1330.82 1783.9 Q1330.82 1787.02 1332.86 1788.86 Q1334.93 1790.68 1338.46 1790.68 Q1343.33 1790.68 1346.26 1787.24 Q1349.22 1783.77 1349.22 1778.04 L1349.22 1776.74 L1343.39 1776.74 M1355.07 1774.32 L1355.07 1794.66 L1349.22 1794.66 L1349.22 1789.24 Q1347.21 1792.49 1344.22 1794.05 Q1341.23 1795.58 1336.9 1795.58 Q1331.42 1795.58 1328.18 1792.52 Q1324.96 1789.44 1324.96 1784.28 Q1324.96 1778.26 1328.97 1775.21 Q1333.02 1772.15 1341 1772.15 L1349.22 1772.15 L1349.22 1771.58 Q1349.22 1767.54 1346.54 1765.34 Q1343.9 1763.11 1339.1 1763.11 Q1336.04 1763.11 1333.14 1763.85 Q1330.25 1764.58 1327.57 1766.04 L1327.57 1760.63 Q1330.79 1759.39 1333.81 1758.78 Q1336.84 1758.15 1339.7 1758.15 Q1347.43 1758.15 1351.25 1762.16 Q1355.07 1766.17 1355.07 1774.32 Z" fill="#000000" fill-rule="nonzero" fill-opacity="1" /><path clip-path="url(#clip000)" d="M1390.59 1776.42 Q1390.59 1770.05 1387.95 1766.55 Q1385.34 1763.05 1380.6 1763.05 Q1375.89 1763.05 1373.25 1766.55 Q1370.64 1770.05 1370.64 1776.42 Q1370.64 1782.75 1373.25 1786.25 Q1375.89 1789.75 1380.6 1789.75 Q1385.34 1789.75 1387.95 1786.25 Q1390.59 1782.75 1390.59 1776.42 M1396.45 1790.23 Q1396.45 1799.33 1392.41 1803.76 Q1388.37 1808.21 1380.03 1808.21 Q1376.94 1808.21 1374.2 1807.74 Q1371.46 1807.29 1368.89 1806.34 L1368.89 1800.64 Q1371.46 1802.04 1373.98 1802.71 Q1376.49 1803.38 1379.1 1803.38 Q1384.86 1803.38 1387.73 1800.35 Q1390.59 1797.36 1390.59 1791.28 L1390.59 1788.39 Q1388.78 1791.54 1385.95 1793.1 Q1383.11 1794.66 1379.17 1794.66 Q1372.61 1794.66 1368.6 1789.66 Q1364.59 1784.66 1364.59 1776.42 Q1364.59 1768.14 1368.6 1763.15 Q1372.61 1758.15 1379.17 1758.15 Q1383.11 1758.15 1385.95 1759.71 Q1388.78 1761.27 1390.59 1764.42 L1390.59 1759.01 L1396.45 1759.01 L1396.45 1790.23 Z" fill="#000000" fill-rule="nonzero" fill-opacity="1" /><path clip-path="url(#clip000)" d="M1443.3 1745.19 Q1439.04 1752.51 1436.97 1759.68 Q1434.9 1766.84 1434.9 1774.19 Q1434.9 1781.54 1436.97 1788.77 Q1439.07 1795.96 1443.3 1803.25 L1438.21 1803.25 Q1433.44 1795.77 1431.05 1788.54 Q1428.69 1781.32 1428.69 1774.19 Q1428.69 1767.09 1431.05 1759.9 Q1433.4 1752.71 1438.21 1745.19 L1443.3 1745.19 Z" fill="#000000" fill-rule="nonzero" fill-opacity="1" /><path clip-path="url(#clip000)" d="M1460.46 1748.89 L1460.46 1759.01 L1472.52 1759.01 L1472.52 1763.56 L1460.46 1763.56 L1460.46 1782.91 Q1460.46 1787.27 1461.64 1788.51 Q1462.84 1789.75 1466.5 1789.75 L1472.52 1789.75 L1472.52 1794.66 L1466.5 1794.66 Q1459.73 1794.66 1457.15 1792.14 Q1454.57 1789.59 1454.57 1782.91 L1454.57 1763.56 L1450.27 1763.56 L1450.27 1759.01 L1454.57 1759.01 L1454.57 1748.89 L1460.46 1748.89 Z" fill="#000000" fill-rule="nonzero" fill-opacity="1" /><path clip-path="url(#clip000)" d="M1500.88 1764.48 Q1499.89 1763.91 1498.72 1763.65 Q1497.57 1763.37 1496.17 1763.37 Q1491.2 1763.37 1488.53 1766.61 Q1485.89 1769.83 1485.89 1775.88 L1485.89 1794.66 L1480 1794.66 L1480 1759.01 L1485.89 1759.01 L1485.89 1764.55 Q1487.73 1761.3 1490.69 1759.74 Q1493.65 1758.15 1497.89 1758.15 Q1498.49 1758.15 1499.22 1758.24 Q1499.96 1758.31 1500.85 1758.47 L1500.88 1764.48 Z" fill="#000000" fill-rule="nonzero" fill-opacity="1" /><path clip-path="url(#clip000)" d="M1523.22 1776.74 Q1516.13 1776.74 1513.39 1778.36 Q1510.65 1779.98 1510.65 1783.9 Q1510.65 1787.02 1512.69 1788.86 Q1514.76 1790.68 1518.29 1790.68 Q1523.16 1790.68 1526.09 1787.24 Q1529.05 1783.77 1529.05 1778.04 L1529.05 1776.74 L1523.22 1776.74 M1534.9 1774.32 L1534.9 1794.66 L1529.05 1794.66 L1529.05 1789.24 Q1527.04 1792.49 1524.05 1794.05 Q1521.06 1795.58 1516.73 1795.58 Q1511.26 1795.58 1508.01 1792.52 Q1504.79 1789.44 1504.79 1784.28 Q1504.79 1778.26 1508.8 1775.21 Q1512.85 1772.15 1520.84 1772.15 L1529.05 1772.15 L1529.05 1771.58 Q1529.05 1767.54 1526.37 1765.34 Q1523.73 1763.11 1518.93 1763.11 Q1515.87 1763.11 1512.97 1763.85 Q1510.08 1764.58 1507.4 1766.04 L1507.4 1760.63 Q1510.62 1759.39 1513.64 1758.78 Q1516.67 1758.15 1519.53 1758.15 Q1527.27 1758.15 1531.08 1762.16 Q1534.9 1766.17 1534.9 1774.32 Z" fill="#000000" fill-rule="nonzero" fill-opacity="1" /><path clip-path="url(#clip000)" d="M1570.43 1764.42 L1570.43 1745.13 L1576.28 1745.13 L1576.28 1794.66 L1570.43 1794.66 L1570.43 1789.31 Q1568.58 1792.49 1565.75 1794.05 Q1562.95 1795.58 1559 1795.58 Q1552.54 1795.58 1548.46 1790.42 Q1544.42 1785.27 1544.42 1776.86 Q1544.42 1768.46 1548.46 1763.3 Q1552.54 1758.15 1559 1758.15 Q1562.95 1758.15 1565.75 1759.71 Q1568.58 1761.24 1570.43 1764.42 M1550.47 1776.86 Q1550.47 1783.32 1553.11 1787.02 Q1555.78 1790.68 1560.43 1790.68 Q1565.08 1790.68 1567.75 1787.02 Q1570.43 1783.32 1570.43 1776.86 Q1570.43 1770.4 1567.75 1766.74 Q1565.08 1763.05 1560.43 1763.05 Q1555.78 1763.05 1553.11 1766.74 Q1550.47 1770.4 1550.47 1776.86 Z" fill="#000000" fill-rule="nonzero" fill-opacity="1" /><path clip-path="url(#clip000)" d="M1588.34 1759.01 L1594.2 1759.01 L1594.2 1794.66 L1588.34 1794.66 L1588.34 1759.01 M1588.34 1745.13 L1594.2 1745.13 L1594.2 1752.55 L1588.34 1752.55 L1588.34 1745.13 Z" fill="#000000" fill-rule="nonzero" fill-opacity="1" /><path clip-path="url(#clip000)" d="M1636.09 1773.14 L1636.09 1794.66 L1630.23 1794.66 L1630.23 1773.33 Q1630.23 1768.27 1628.26 1765.76 Q1626.28 1763.24 1622.34 1763.24 Q1617.59 1763.24 1614.86 1766.26 Q1612.12 1769.29 1612.12 1774.51 L1612.12 1794.66 L1606.23 1794.66 L1606.23 1759.01 L1612.12 1759.01 L1612.12 1764.55 Q1614.22 1761.33 1617.05 1759.74 Q1619.92 1758.15 1623.64 1758.15 Q1629.79 1758.15 1632.94 1761.97 Q1636.09 1765.76 1636.09 1773.14 Z" fill="#000000" fill-rule="nonzero" fill-opacity="1" /><path clip-path="url(#clip000)" d="M1671.23 1776.42 Q1671.23 1770.05 1668.58 1766.55 Q1665.97 1763.05 1661.23 1763.05 Q1656.52 1763.05 1653.88 1766.55 Q1651.27 1770.05 1651.27 1776.42 Q1651.27 1782.75 1653.88 1786.25 Q1656.52 1789.75 1661.23 1789.75 Q1665.97 1789.75 1668.58 1786.25 Q1671.23 1782.75 1671.23 1776.42 M1677.08 1790.23 Q1677.08 1799.33 1673.04 1803.76 Q1669 1808.21 1660.66 1808.21 Q1657.57 1808.21 1654.83 1807.74 Q1652.1 1807.29 1649.52 1806.34 L1649.52 1800.64 Q1652.1 1802.04 1654.61 1802.71 Q1657.13 1803.38 1659.74 1803.38 Q1665.5 1803.38 1668.36 1800.35 Q1671.23 1797.36 1671.23 1791.28 L1671.23 1788.39 Q1669.41 1791.54 1666.58 1793.1 Q1663.75 1794.66 1659.8 1794.66 Q1653.24 1794.66 1649.23 1789.66 Q1645.22 1784.66 1645.22 1776.42 Q1645.22 1768.14 1649.23 1763.15 Q1653.24 1758.15 1659.8 1758.15 Q1663.75 1758.15 1666.58 1759.71 Q1669.41 1761.27 1671.23 1764.42 L1671.23 1759.01 L1677.08 1759.01 L1677.08 1790.23 Z" fill="#000000" fill-rule="nonzero" fill-opacity="1" /><path clip-path="url(#clip000)" d="M1733.32 1764.42 L1733.32 1745.13 L1739.18 1745.13 L1739.18 1794.66 L1733.32 1794.66 L1733.32 1789.31 Q1731.48 1792.49 1728.64 1794.05 Q1725.84 1795.58 1721.9 1795.58 Q1715.44 1795.58 1711.36 1790.42 Q1707.32 1785.27 1707.32 1776.86 Q1707.32 1768.46 1711.36 1763.3 Q1715.44 1758.15 1721.9 1758.15 Q1725.84 1758.15 1728.64 1759.71 Q1731.48 1761.24 1733.32 1764.42 M1713.37 1776.86 Q1713.37 1783.32 1716.01 1787.02 Q1718.68 1790.68 1723.33 1790.68 Q1727.98 1790.68 1730.65 1787.02 Q1733.32 1783.32 1733.32 1776.86 Q1733.32 1770.4 1730.65 1766.74 Q1727.98 1763.05 1723.33 1763.05 Q1718.68 1763.05 1716.01 1766.74 Q1713.37 1770.4 1713.37 1776.86 Z" fill="#000000" fill-rule="nonzero" fill-opacity="1" /><path clip-path="url(#clip000)" d="M1767.44 1776.74 Q1760.35 1776.74 1757.61 1778.36 Q1754.87 1779.98 1754.87 1783.9 Q1754.87 1787.02 1756.91 1788.86 Q1758.98 1790.68 1762.51 1790.68 Q1767.38 1790.68 1770.31 1787.24 Q1773.27 1783.77 1773.27 1778.04 L1773.27 1776.74 L1767.44 1776.74 M1779.12 1774.32 L1779.12 1794.66 L1773.27 1794.66 L1773.27 1789.24 Q1771.26 1792.49 1768.27 1794.05 Q1765.28 1795.58 1760.95 1795.58 Q1755.48 1795.58 1752.23 1792.52 Q1749.01 1789.44 1749.01 1784.28 Q1749.01 1778.26 1753.03 1775.21 Q1757.07 1772.15 1765.06 1772.15 L1773.27 1772.15 L1773.27 1771.58 Q1773.27 1767.54 1770.59 1765.34 Q1767.95 1763.11 1763.15 1763.11 Q1760.09 1763.11 1757.19 1763.85 Q1754.3 1764.58 1751.62 1766.04 L1751.62 1760.63 Q1754.84 1759.39 1757.86 1758.78 Q1760.89 1758.15 1763.75 1758.15 Q1771.49 1758.15 1775.31 1762.16 Q1779.12 1766.17 1779.12 1774.32 Z" fill="#000000" fill-rule="nonzero" fill-opacity="1" /><path clip-path="url(#clip000)" d="M1806.02 1797.97 Q1803.54 1804.33 1801.18 1806.27 Q1798.83 1808.21 1794.88 1808.21 L1790.2 1808.21 L1790.2 1803.31 L1793.64 1803.31 Q1796.06 1803.31 1797.39 1802.17 Q1798.73 1801.02 1800.35 1796.76 L1801.4 1794.08 L1786.99 1759.01 L1793.19 1759.01 L1804.33 1786.89 L1815.47 1759.01 L1821.68 1759.01 L1806.02 1797.97 Z" fill="#000000" fill-rule="nonzero" fill-opacity="1" /><path clip-path="url(#clip000)" d="M1852.49 1760.06 L1852.49 1765.6 Q1850.01 1764.32 1847.33 1763.69 Q1844.66 1763.05 1841.8 1763.05 Q1837.43 1763.05 1835.24 1764.39 Q1833.07 1765.72 1833.07 1768.4 Q1833.07 1770.43 1834.63 1771.61 Q1836.19 1772.76 1840.9 1773.81 L1842.91 1774.25 Q1849.15 1775.59 1851.76 1778.04 Q1854.4 1780.46 1854.4 1784.82 Q1854.4 1789.79 1850.45 1792.68 Q1846.54 1795.58 1839.66 1795.58 Q1836.8 1795.58 1833.68 1795.01 Q1830.59 1794.46 1827.15 1793.35 L1827.15 1787.3 Q1830.4 1788.99 1833.55 1789.85 Q1836.7 1790.68 1839.79 1790.68 Q1843.93 1790.68 1846.16 1789.28 Q1848.38 1787.84 1848.38 1785.27 Q1848.38 1782.88 1846.76 1781.61 Q1845.17 1780.33 1839.73 1779.16 L1837.69 1778.68 Q1832.25 1777.53 1829.83 1775.18 Q1827.41 1772.79 1827.41 1768.65 Q1827.41 1763.62 1830.97 1760.89 Q1834.54 1758.15 1841.09 1758.15 Q1844.34 1758.15 1847.21 1758.63 Q1850.07 1759.1 1852.49 1760.06 Z" fill="#000000" fill-rule="nonzero" fill-opacity="1" /><path clip-path="url(#clip000)" d="M1862.8 1745.19 L1867.89 1745.19 Q1872.67 1752.71 1875.02 1759.9 Q1877.41 1767.09 1877.41 1774.19 Q1877.41 1781.32 1875.02 1788.54 Q1872.67 1795.77 1867.89 1803.25 L1862.8 1803.25 Q1867.04 1795.96 1869.1 1788.77 Q1871.2 1781.54 1871.2 1774.19 Q1871.2 1766.84 1869.1 1759.68 Q1867.04 1752.51 1862.8 1745.19 Z" fill="#000000" fill-rule="nonzero" fill-opacity="1" /><polyline clip-path="url(#clip000)" style="stroke:#000000; stroke-linecap:round; stroke-linejoin:round; stroke-width:4; stroke-opacity:1; fill:none" points="494.525,1630.83 494.525,125.984 "/>
<polyline clip-path="url(#clip000)" style="stroke:#000000; stroke-linecap:round; stroke-linejoin:round; stroke-width:4; stroke-opacity:1; fill:none" points="494.525,1568.87 513.423,1568.87 "/>
<polyline clip-path="url(#clip000)" style="stroke:#000000; stroke-linecap:round; stroke-linejoin:round; stroke-width:4; stroke-opacity:1; fill:none" points="494.525,1266.16 513.423,1266.16 "/>
<polyline clip-path="url(#clip000)" style="stroke:#000000; stroke-linecap:round; stroke-linejoin:round; stroke-width:4; stroke-opacity:1; fill:none" points="494.525,963.458 513.423,963.458 "/>
<polyline clip-path="url(#clip000)" style="stroke:#000000; stroke-linecap:round; stroke-linejoin:round; stroke-width:4; stroke-opacity:1; fill:none" points="494.525,660.752 513.423,660.752 "/>
<polyline clip-path="url(#clip000)" style="stroke:#000000; stroke-linecap:round; stroke-linejoin:round; stroke-width:4; stroke-opacity:1; fill:none" points="494.525,358.046 513.423,358.046 "/>
<path clip-path="url(#clip000)" d="M320.379 1569.43 L357.474 1569.43 L357.474 1574.35 L320.379 1574.35 L320.379 1569.43 Z" fill="#000000" fill-rule="nonzero" fill-opacity="1" /><path clip-path="url(#clip000)" d="M382.589 1551.12 Q378.075 1551.12 375.789 1555.57 Q373.533 1560 373.533 1568.91 Q373.533 1577.8 375.789 1582.25 Q378.075 1586.68 382.589 1586.68 Q387.132 1586.68 389.389 1582.25 Q391.675 1577.8 391.675 1568.91 Q391.675 1560 389.389 1555.57 Q387.132 1551.12 382.589 1551.12 M382.589 1546.49 Q389.852 1546.49 393.671 1552.25 Q397.52 1557.98 397.52 1568.91 Q397.52 1579.82 393.671 1585.58 Q389.852 1591.31 382.589 1591.31 Q375.326 1591.31 371.478 1585.58 Q367.659 1579.82 367.659 1568.91 Q367.659 1557.98 371.478 1552.25 Q375.326 1546.49 382.589 1546.49 Z" fill="#000000" fill-rule="nonzero" fill-opacity="1" /><path clip-path="url(#clip000)" d="M407.792 1583.12 L413.897 1583.12 L413.897 1590.47 L407.792 1590.47 L407.792 1583.12 Z" fill="#000000" fill-rule="nonzero" fill-opacity="1" /><path clip-path="url(#clip000)" d="M427.641 1585.55 L437.19 1585.55 L437.19 1552.59 L426.802 1554.68 L426.802 1549.35 L437.132 1547.27 L442.977 1547.27 L442.977 1585.55 L452.525 1585.55 L452.525 1590.47 L427.641 1590.47 L427.641 1585.55 Z" fill="#000000" fill-rule="nonzero" fill-opacity="1" /><path clip-path="url(#clip000)" d="M381.056 1248.41 Q376.542 1248.41 374.256 1252.87 Q371.999 1257.3 371.999 1266.21 Q371.999 1275.09 374.256 1279.55 Q376.542 1283.97 381.056 1283.97 Q385.598 1283.97 387.855 1279.55 Q390.141 1275.09 390.141 1266.21 Q390.141 1257.3 387.855 1252.87 Q385.598 1248.41 381.056 1248.41 M381.056 1243.78 Q388.318 1243.78 392.138 1249.54 Q395.986 1255.27 395.986 1266.21 Q395.986 1277.12 392.138 1282.87 Q388.318 1288.6 381.056 1288.6 Q373.793 1288.6 369.945 1282.87 Q366.125 1277.12 366.125 1266.21 Q366.125 1255.27 369.945 1249.54 Q373.793 1243.78 381.056 1243.78 Z" fill="#000000" fill-rule="nonzero" fill-opacity="1" /><path clip-path="url(#clip000)" d="M406.258 1280.41 L412.363 1280.41 L412.363 1287.76 L406.258 1287.76 L406.258 1280.41 Z" fill="#000000" fill-rule="nonzero" fill-opacity="1" /><path clip-path="url(#clip000)" d="M437.595 1248.41 Q433.081 1248.41 430.795 1252.87 Q428.538 1257.3 428.538 1266.21 Q428.538 1275.09 430.795 1279.55 Q433.081 1283.97 437.595 1283.97 Q442.137 1283.97 444.394 1279.55 Q446.68 1275.09 446.68 1266.21 Q446.68 1257.3 444.394 1252.87 Q442.137 1248.41 437.595 1248.41 M437.595 1243.78 Q444.857 1243.78 448.677 1249.54 Q452.525 1255.27 452.525 1266.21 Q452.525 1277.12 448.677 1282.87 Q444.857 1288.6 437.595 1288.6 Q430.332 1288.6 426.484 1282.87 Q422.664 1277.12 422.664 1266.21 Q422.664 1255.27 426.484 1249.54 Q430.332 1243.78 437.595 1243.78 Z" fill="#000000" fill-rule="nonzero" fill-opacity="1" /><path clip-path="url(#clip000)" d="M382.589 945.706 Q378.075 945.706 375.789 950.162 Q373.533 954.589 373.533 963.501 Q373.533 972.384 375.789 976.84 Q378.075 981.267 382.589 981.267 Q387.132 981.267 389.389 976.84 Q391.675 972.384 391.675 963.501 Q391.675 954.589 389.389 950.162 Q387.132 945.706 382.589 945.706 M382.589 941.077 Q389.852 941.077 393.671 946.835 Q397.52 952.564 397.52 963.501 Q397.52 974.41 393.671 980.168 Q389.852 985.897 382.589 985.897 Q375.326 985.897 371.478 980.168 Q367.659 974.41 367.659 963.501 Q367.659 952.564 371.478 946.835 Q375.326 941.077 382.589 941.077 Z" fill="#000000" fill-rule="nonzero" fill-opacity="1" /><path clip-path="url(#clip000)" d="M407.792 977.708 L413.897 977.708 L413.897 985.058 L407.792 985.058 L407.792 977.708 Z" fill="#000000" fill-rule="nonzero" fill-opacity="1" /><path clip-path="url(#clip000)" d="M427.641 980.139 L437.19 980.139 L437.19 947.182 L426.802 949.265 L426.802 943.941 L437.132 941.858 L442.977 941.858 L442.977 980.139 L452.525 980.139 L452.525 985.058 L427.641 985.058 L427.641 980.139 Z" fill="#000000" fill-rule="nonzero" fill-opacity="1" /><path clip-path="url(#clip000)" d="M383.052 643 Q378.538 643 376.252 647.456 Q373.995 651.883 373.995 660.795 Q373.995 669.678 376.252 674.134 Q378.538 678.561 383.052 678.561 Q387.595 678.561 389.852 674.134 Q392.138 669.678 392.138 660.795 Q392.138 651.883 389.852 647.456 Q387.595 643 383.052 643 M383.052 638.37 Q390.315 638.37 394.134 644.129 Q397.983 649.858 397.983 660.795 Q397.983 671.704 394.134 677.462 Q390.315 683.191 383.052 683.191 Q375.789 683.191 371.941 677.462 Q368.122 671.704 368.122 660.795 Q368.122 649.858 371.941 644.129 Q375.789 638.37 383.052 638.37 Z" fill="#000000" fill-rule="nonzero" fill-opacity="1" /><path clip-path="url(#clip000)" d="M408.255 675.002 L414.36 675.002 L414.36 682.352 L408.255 682.352 L408.255 675.002 Z" fill="#000000" fill-rule="nonzero" fill-opacity="1" /><path clip-path="url(#clip000)" d="M432.126 677.433 L452.525 677.433 L452.525 682.352 L425.095 682.352 L425.095 677.433 Q428.422 673.989 434.151 668.202 Q439.909 662.387 441.385 660.708 Q444.192 657.554 445.291 655.384 Q446.42 653.185 446.42 651.073 Q446.42 647.63 443.989 645.46 Q441.588 643.289 437.71 643.289 Q434.962 643.289 431.894 644.244 Q428.856 645.199 425.384 647.138 L425.384 641.235 Q428.914 639.817 431.981 639.094 Q435.048 638.37 437.595 638.37 Q444.308 638.37 448.301 641.727 Q452.294 645.083 452.294 650.697 Q452.294 653.359 451.281 655.76 Q450.297 658.133 447.664 661.374 Q446.941 662.213 443.063 666.235 Q439.186 670.228 432.126 677.433 Z" fill="#000000" fill-rule="nonzero" fill-opacity="1" /><path clip-path="url(#clip000)" d="M381.866 340.294 Q377.352 340.294 375.066 344.75 Q372.809 349.177 372.809 358.089 Q372.809 366.972 375.066 371.428 Q377.352 375.855 381.866 375.855 Q386.409 375.855 388.666 371.428 Q390.951 366.972 390.951 358.089 Q390.951 349.177 388.666 344.75 Q386.409 340.294 381.866 340.294 M381.866 335.664 Q389.128 335.664 392.948 341.422 Q396.796 347.152 396.796 358.089 Q396.796 368.998 392.948 374.756 Q389.128 380.485 381.866 380.485 Q374.603 380.485 370.755 374.756 Q366.935 368.998 366.935 358.089 Q366.935 347.152 370.755 341.422 Q374.603 335.664 381.866 335.664 Z" fill="#000000" fill-rule="nonzero" fill-opacity="1" /><path clip-path="url(#clip000)" d="M407.068 372.296 L413.173 372.296 L413.173 379.646 L407.068 379.646 L407.068 372.296 Z" fill="#000000" fill-rule="nonzero" fill-opacity="1" /><path clip-path="url(#clip000)" d="M443.613 356.353 Q447.809 357.25 450.152 360.086 Q452.525 362.921 452.525 367.088 Q452.525 373.482 448.127 376.984 Q443.729 380.485 435.627 380.485 Q432.907 380.485 430.014 379.935 Q427.149 379.414 424.082 378.344 L424.082 372.701 Q426.513 374.119 429.406 374.842 Q432.3 375.566 435.453 375.566 Q440.951 375.566 443.816 373.396 Q446.709 371.226 446.709 367.088 Q446.709 363.268 444.018 361.127 Q441.356 358.957 436.582 358.957 L431.547 358.957 L431.547 354.154 L436.813 354.154 Q441.125 354.154 443.411 352.447 Q445.696 350.711 445.696 347.47 Q445.696 344.142 443.324 342.377 Q440.98 340.583 436.582 340.583 Q434.18 340.583 431.431 341.104 Q428.683 341.625 425.384 342.725 L425.384 337.516 Q428.712 336.59 431.605 336.127 Q434.528 335.664 437.103 335.664 Q443.758 335.664 447.635 338.703 Q451.512 341.712 451.512 346.862 Q451.512 350.45 449.458 352.939 Q447.404 355.398 443.613 356.353 Z" fill="#000000" fill-rule="nonzero" fill-opacity="1" /><path clip-path="url(#clip000)" d="M222.937 1043.9 L246.585 1052.62 L246.585 1035.15 L222.937 1043.9 M216.603 1047.53 L216.603 1040.24 L264.123 1022.13 L264.123 1028.81 L251.933 1033.14 L251.933 1054.56 L264.123 1058.89 L264.123 1065.67 L216.603 1047.53 Z" fill="#000000" fill-rule="nonzero" fill-opacity="1" /><path clip-path="url(#clip000)" d="M220.263 980.753 L227.043 980.753 Q224.019 983.999 222.523 987.691 Q221.027 991.351 221.027 995.489 Q221.027 1003.64 226.024 1007.97 Q230.989 1012.29 240.411 1012.29 Q249.8 1012.29 254.797 1007.97 Q259.762 1003.64 259.762 995.489 Q259.762 991.351 258.266 987.691 Q256.77 983.999 253.747 980.753 L260.463 980.753 Q262.754 984.126 263.9 987.914 Q265.046 991.67 265.046 995.871 Q265.046 1006.66 258.457 1012.87 Q251.837 1019.07 240.411 1019.07 Q228.952 1019.07 222.364 1012.87 Q215.743 1006.66 215.743 995.871 Q215.743 991.606 216.889 987.85 Q218.003 984.063 220.263 980.753 Z" fill="#000000" fill-rule="nonzero" fill-opacity="1" /><path clip-path="url(#clip000)" d="M216.603 970.822 L216.603 943.513 L222.014 943.513 L222.014 964.393 L236.018 964.393 L236.018 945.55 L241.429 945.55 L241.429 964.393 L264.123 964.393 L264.123 970.822 L216.603 970.822 Z" fill="#000000" fill-rule="nonzero" fill-opacity="1" /><path clip-path="url(#clip000)" d="M232.581 899.049 Q232.581 903.759 236.273 906.497 Q239.933 909.234 246.331 909.234 Q252.728 909.234 256.42 906.528 Q260.081 903.791 260.081 899.049 Q260.081 894.37 256.389 891.633 Q252.696 888.895 246.331 888.895 Q239.997 888.895 236.305 891.633 Q232.581 894.37 232.581 899.049 M227.616 899.049 Q227.616 891.41 232.581 887.049 Q237.546 882.689 246.331 882.689 Q255.084 882.689 260.081 887.049 Q265.046 891.41 265.046 899.049 Q265.046 906.719 260.081 911.08 Q255.084 915.409 246.331 915.409 Q237.546 915.409 232.581 911.08 Q227.616 906.719 227.616 899.049 Z" fill="#000000" fill-rule="nonzero" fill-opacity="1" /><path clip-path="url(#clip000)" d="M214.598 854.934 L219.467 854.934 L219.467 860.536 Q219.467 863.687 220.741 864.928 Q222.014 866.138 225.324 866.138 L228.475 866.138 L228.475 856.494 L233.026 856.494 L233.026 866.138 L264.123 866.138 L264.123 872.026 L233.026 872.026 L233.026 877.628 L228.475 877.628 L228.475 872.026 L225.992 872.026 Q220.04 872.026 217.335 869.257 Q214.598 866.488 214.598 860.472 L214.598 854.934 Z" fill="#000000" fill-rule="nonzero" fill-opacity="1" /><path clip-path="url(#clip000)" d="M214.311 821.769 L279.496 821.769 L279.496 827.18 L214.311 827.18 L214.311 821.769 Z" fill="#000000" fill-rule="nonzero" fill-opacity="1" /><path clip-path="url(#clip000)" d="M257.343 774.695 L244.58 774.695 L244.58 785.198 L239.297 785.198 L239.297 768.329 L259.699 768.329 Q262.34 772.053 263.709 776.541 Q265.046 781.028 265.046 786.121 Q265.046 797.261 258.553 803.563 Q252.028 809.833 240.411 809.833 Q228.761 809.833 222.268 803.563 Q215.743 797.261 215.743 786.121 Q215.743 781.474 216.889 777.305 Q218.035 773.103 220.263 769.57 L227.106 769.57 Q224.083 773.135 222.555 777.145 Q221.027 781.156 221.027 785.58 Q221.027 794.301 225.897 798.693 Q230.767 803.054 240.411 803.054 Q250.023 803.054 254.893 798.693 Q259.762 794.301 259.762 785.58 Q259.762 782.174 259.189 779.501 Q258.585 776.827 257.343 774.695 Z" fill="#000000" fill-rule="nonzero" fill-opacity="1" /><path clip-path="url(#clip000)" d="M274.945 729.753 L279.496 729.753 L279.496 763.618 L274.945 763.618 L274.945 729.753 Z" fill="#000000" fill-rule="nonzero" fill-opacity="1" /><path clip-path="url(#clip000)" d="M218.353 718.454 L228.475 718.454 L228.475 706.391 L233.026 706.391 L233.026 718.454 L252.378 718.454 Q256.739 718.454 257.98 717.276 Q259.221 716.066 259.221 712.406 L259.221 706.391 L264.123 706.391 L264.123 712.406 Q264.123 719.186 261.608 721.764 Q259.062 724.342 252.378 724.342 L233.026 724.342 L233.026 728.639 L228.475 728.639 L228.475 724.342 L218.353 724.342 L218.353 718.454 Z" fill="#000000" fill-rule="nonzero" fill-opacity="1" /><path clip-path="url(#clip000)" d="M214.311 691.145 L279.496 691.145 L279.496 696.556 L214.311 696.556 L214.311 691.145 Z" fill="#000000" fill-rule="nonzero" fill-opacity="1" /><polyline clip-path="url(#clip001)" style="stroke:#d45e00; stroke-linecap:round; stroke-linejoin:round; stroke-width:8; stroke-opacity:1; fill:none" stroke-dasharray="32, 20" points="556.209,542.53 564.401,676.645 572.592,814.42 580.784,748.595 588.976,809.072 597.167,862.578 605.359,601.077 613.551,760.373 621.743,796.77 629.934,730.236 638.126,817.658 646.318,814.041 654.51,773.139 662.701,1045.39 670.893,999.876 679.085,1129.32 687.276,1010.84 695.468,1071.54 703.66,1044.41 711.852,970.056 720.043,1154.81 728.235,1007.6 736.427,986.23 744.619,1152.43 752.81,1031.33 761.002,1214.76 769.194,1275.33 777.385,1325.63 785.577,1029.04 793.769,1261.96 801.961,1360.57 810.152,1246.49 818.344,1189.2 826.536,1248.99 834.728,1123.78 842.919,1393.07 851.111,1431.5 859.303,1406.14 867.494,1357.8 875.686,1239.95 883.878,1291.28 892.07,1171.22 900.261,1446.56 908.453,1334.33 916.645,1411.63 924.837,1284.11 933.028,1370.4 941.22,1179.4 949.412,1277.29 957.603,1383.88 965.795,1397.02 973.987,1388.16 982.179,1313.91 990.37,1259.21 998.562,1250.58 1006.75,1306.95 1014.95,1447.8 1023.14,1148.75 1031.33,1375.78 1039.52,1354.14 1047.71,1194.48 1055.9,1357.95 1064.1,1295.45 1072.29,1360.39 1080.48,1354.05 1088.67,1310.12 1096.86,1264.41 1105.05,1233.26 1113.25,1263.92 1121.44,1077.13 1129.63,1206.22 1137.82,1441.73 1146.01,1256.99 1154.2,1346.98 1162.4,1325.1 1170.59,1326.41 1178.78,1429.68 1186.97,1260.65 1195.16,1400.95 1203.36,1444.98 1211.55,1221.26 1219.74,1339.23 1227.93,1407.78 1236.12,1460.47 1244.31,1456.56 1252.51,1390.52 1260.7,1534.84 1268.89,1407.94 1277.08,1469.46 1285.27,1392.68 1293.46,1374.38 1301.66,1548.77 1309.85,1351.55 1318.04,1468.6 1326.23,1279.22 1334.42,1210.89 1342.61,1435.41 1350.81,1427.63 1359,1276.55 1367.19,1236.48 1375.38,1233.06 1383.57,1365.71 1391.76,1221.83 1399.96,1310.09 1408.15,1265.87 1416.34,1559.11 1424.53,1421.13 1432.72,1446.89 1440.92,1431.62 1449.11,1478.94 1457.3,1262.79 1465.49,1371.54 1473.68,1534.28 1481.87,1477.5 1490.07,1528.07 1498.26,1395.97 1506.45,1475.57 1514.64,1331 1522.83,1411.34 1531.02,1471.29 1539.22,1562.12 1547.41,1468.09 1555.6,1488.65 1563.79,1479.88 1571.98,1386.74 1580.17,1383.53 1588.37,1551.38 1596.56,1452.41 1604.75,1348.12 1612.94,1519.38 1621.13,1559.36 1629.32,1588.24 1637.52,1516.15 1645.71,1422.45 1653.9,1501.43 1662.09,1331.92 1670.28,1377.47 1678.48,1385.39 1686.67,1205.8 1694.86,1422.91 1703.05,1380.13 1711.24,1336.7 1719.43,1344.44 1727.63,1251.81 1735.82,1342.79 1744.01,1219.92 1752.2,1443.87 1760.39,1326.31 1768.58,1197.46 1776.78,1360.83 1784.97,1032.77 1793.16,1385.67 1801.35,1287.49 1809.54,1341.75 1817.73,1393.15 1825.93,1313.89 1834.12,1258.5 1842.31,1211.11 1850.5,1189.95 1858.69,1276.81 1866.88,1281.99 1875.08,1338.37 1883.27,1214.78 1891.46,1260.05 1899.65,1382.51 1907.84,982.462 1916.04,1196.1 1924.23,1237.68 1932.42,1157.14 1940.61,1144.73 1948.8,1318.5 1956.99,1375.81 1965.19,1244.04 1973.38,1168.27 1981.57,1274.77 1989.76,1375.79 1997.95,1126.08 2006.14,1176.1 2014.34,1157.4 2022.53,1311.4 2030.72,1332.88 2038.91,1416.24 2047.1,1487.23 2055.29,1336.42 2063.49,1357.54 2071.68,1256.26 2079.87,1399.26 2088.06,1384.97 2096.25,1451.01 2104.45,1432.38 2112.64,1458.37 2120.83,1215.83 2129.02,1445.39 2137.21,1550.44 2145.4,1345.09 2153.6,1492.99 2161.79,1407.36 2169.98,1263.8 2178.17,1225.89 2186.36,1381.36 2194.55,1463.05 2202.75,1225.09 2210.94,1450.43 2219.13,1445.84 2227.32,1466.2 2235.51,1447.55 2243.7,1341.24 2251.9,1314.76 2260.09,1232.15 2268.28,1375.35 2276.47,1324.96 2284.66,1192 2292.85,1441.31 2301.05,1338.06 2309.24,1284.7 2317.43,1314.2 2325.62,1324.69 2333.81,1323.75 2342.01,1252.6 2350.2,1190.27 2358.39,1116.92 2366.58,1206.98 2374.77,1302.52 2382.96,1122.32 2391.16,1404.64 2399.35,1384.12 2407.54,1029.64 2415.73,1027.59 2423.92,1179.3 2432.11,1193.89 2440.31,1156.07 2448.5,1185.87 2456.69,1179.22 2464.88,1008.25 2473.07,1270.11 2481.26,1253 2489.46,1023.03 2497.65,1192.91 2505.84,1077.56 2514.03,1003.37 2522.22,1005.98 2530.41,1089.09 2538.61,1278.53 2546.8,986.118 2554.99,1108.07 2563.18,1069.66 2571.37,1003.28 2579.57,1127.99 2587.76,1197.13 2595.95,1132.37 2604.14,1169.91 2612.33,1217.42 "/>
<polyline clip-path="url(#clip001)" style="stroke:#009e73; stroke-linecap:round; stroke-linejoin:round; stroke-width:8; stroke-opacity:1; fill:none" points="556.209,412.15 564.401,504.546 572.592,551.416 580.784,599.09 588.976,650.545 597.167,691.189 605.359,744.822 613.551,775.33 621.743,791.966 629.934,840.302 638.126,861.233 646.318,885.978 654.51,907.391 662.701,962.447 670.893,984.781 679.085,1001.04 687.276,1020.21 695.468,1033.37 703.66,1032.49 711.852,1050.27 720.043,1080.47 728.235,1109.7 736.427,1106.33 744.619,1117.6 752.81,1139.12 761.002,1152.65 769.194,1164.3 777.385,1173.01 785.577,1177.35 793.769,1193.94 801.961,1195.81 810.152,1210.17 818.344,1215.81 826.536,1231.41 834.728,1227.93 842.919,1245.21 851.111,1245.97 859.303,1253.04 867.494,1261.38 875.686,1255.18 883.878,1251.73 892.07,1259.37 900.261,1268.5 908.453,1264.42 916.645,1277.05 924.837,1269.03 933.028,1296.59 941.22,1295.26 949.412,1301.34 957.603,1291.21 965.795,1298.95 973.987,1302.85 982.179,1294.82 990.37,1288.97 998.562,1306.9 1006.75,1296.23 1014.95,1300.05 1023.14,1301.47 1031.33,1308.57 1039.52,1314.26 1047.71,1307.67 1055.9,1309.75 1064.1,1305.25 1072.29,1324.34 1080.48,1308.03 1088.67,1314.39 1096.86,1320.41 1105.05,1315.46 1113.25,1315.94 1121.44,1319.25 1129.63,1310.37 1137.82,1303.84 1146.01,1307.53 1154.2,1319.03 1162.4,1320.57 1170.59,1312.63 1178.78,1314.57 1186.97,1304.96 1195.16,1310.3 1203.36,1317.79 1211.55,1302.83 1219.74,1297.84 1227.93,1318.62 1236.12,1318.37 1244.31,1307.07 1252.51,1318.1 1260.7,1310.24 1268.89,1311.55 1277.08,1319.16 1285.27,1313.03 1293.46,1315.06 1301.66,1305.42 1309.85,1309.02 1318.04,1312.81 1326.23,1310.09 1334.42,1306.59 1342.61,1302.25 1350.81,1313.87 1359,1317.47 1367.19,1304.25 1375.38,1303.61 1383.57,1313.26 1391.76,1304.71 1399.96,1293.49 1408.15,1300.85 1416.34,1300.44 1424.53,1303.5 1432.72,1296.35 1440.92,1315.19 1449.11,1308.13 1457.3,1308.23 1465.49,1306.96 1473.68,1309.47 1481.87,1304.12 1490.07,1300.94 1498.26,1301.18 1506.45,1300.45 1514.64,1305.31 1522.83,1305.91 1531.02,1310.1 1539.22,1320.45 1547.41,1319.48 1555.6,1312.03 1563.79,1316.73 1571.98,1305.32 1580.17,1310.62 1588.37,1307.01 1596.56,1315.41 1604.75,1302.8 1612.94,1312.3 1621.13,1296.69 1629.32,1302.16 1637.52,1297.76 1645.71,1294.83 1653.9,1292.54 1662.09,1282.61 1670.28,1292.22 1678.48,1290.94 1686.67,1293.09 1694.86,1293.25 1703.05,1287.07 1711.24,1291.84 1719.43,1294.13 1727.63,1295.51 1735.82,1303.33 1744.01,1296.14 1752.2,1301.57 1760.39,1296.35 1768.58,1294.12 1776.78,1292.83 1784.97,1294.03 1793.16,1299.41 1801.35,1295.6 1809.54,1292.6 1817.73,1293.39 1825.93,1294.63 1834.12,1293.08 1842.31,1289.86 1850.5,1281.32 1858.69,1289.79 1866.88,1293.75 1875.08,1297.95 1883.27,1283.1 1891.46,1291.9 1899.65,1289.1 1907.84,1298.59 1916.04,1300.04 1924.23,1297.78 1932.42,1299.71 1940.61,1296.43 1948.8,1293.95 1956.99,1294.39 1965.19,1292.35 1973.38,1295.66 1981.57,1299.31 1989.76,1285.04 1997.95,1288.13 2006.14,1288.79 2014.34,1290.75 2022.53,1277.67 2030.72,1283.81 2038.91,1273.11 2047.1,1275.7 2055.29,1292.27 2063.49,1292.48 2071.68,1295.02 2079.87,1295.4 2088.06,1292.24 2096.25,1294.62 2104.45,1298.89 2112.64,1299.62 2120.83,1307.31 2129.02,1305.16 2137.21,1306.08 2145.4,1302.09 2153.6,1305.76 2161.79,1301.8 2169.98,1305.04 2178.17,1305.2 2186.36,1308.86 2194.55,1302.54 2202.75,1311.07 2210.94,1302.73 2219.13,1303.61 2227.32,1307.58 2235.51,1304.33 2243.7,1322.11 2251.9,1312.46 2260.09,1308.72 2268.28,1311.67 2276.47,1306.79 2284.66,1303.16 2292.85,1302.96 2301.05,1306.45 2309.24,1304.64 2317.43,1306.91 2325.62,1300.93 2333.81,1301.19 2342.01,1309.68 2350.2,1306.46 2358.39,1297.96 2366.58,1314.58 2374.77,1302.99 2382.96,1302.56 2391.16,1305.18 2399.35,1309.48 2407.54,1302.93 2415.73,1309.81 2423.92,1319.54 2432.11,1317.82 2440.31,1310.48 2448.5,1305.93 2456.69,1312.5 2464.88,1310.5 2473.07,1313.29 2481.26,1303.29 2489.46,1301.2 2497.65,1310.47 2505.84,1308.16 2514.03,1305.29 2522.22,1303.17 2530.41,1301.33 2538.61,1300.4 2546.8,1305.23 2554.99,1305.32 2563.18,1298.45 2571.37,1304.12 2579.57,1297.59 2587.76,1293.77 2595.95,1295.4 2604.14,1300.86 2612.33,1292.78 "/>
<path clip-path="url(#clip001)" d="M556.209 715.6 L564.401 784.441 L572.592 813.676 L580.784 859.862 L588.976 952.114 L597.167 945.434 L605.359 988.33 L613.551 1044.79 L621.743 1089.65 L629.934 1101.95 L638.126 1102.6 L646.318 1143.85 L654.51 1166.25 L662.701 1188.9 L670.893 1211.43 L679.085 1234.55 L687.276 1246.68 L695.468 1255.89 L703.66 1265.73 L711.852 1278.6 L720.043 1287.49 L728.235 1334.33 L736.427 1321.16 L744.619 1335.48 L752.81 1325.72 L761.002 1360.94 L769.194 1385.73 L777.385 1387.15 L785.577 1377.62 L793.769 1406.98 L801.961 1407.95 L810.152 1443.33 L818.344 1445.05 L826.536 1434.2 L834.728 1443.35 L842.919 1461.69 L851.111 1450.81 L859.303 1474.93 L867.494 1441.53 L875.686 1457.07 L883.878 1450.97 L892.07 1454.09 L900.261 1469.48 L908.453 1466.31 L916.645 1502.59 L924.837 1460.82 L933.028 1510.72 L941.22 1527.81 L949.412 1493.15 L957.603 1495.97 L965.795 1513.57 L973.987 1485.11 L982.179 1484.89 L990.37 1481.5 L998.562 1522.02 L1006.75 1489.33 L1014.95 1502.93 L1023.14 1540.23 L1031.33 1528.21 L1039.52 1507.89 L1047.71 1495.13 L1055.9 1500.49 L1064.1 1497.73 L1072.29 1533.2 L1080.48 1491.14 L1088.67 1541.03 L1096.86 1507.97 L1105.05 1526.08 L1113.25 1520.7 L1121.44 1518.5 L1129.63 1502.79 L1137.82 1497.53 L1146.01 1511.12 L1154.2 1533.68 L1162.4 1512.31 L1170.59 1509.66 L1178.78 1494.25 L1186.97 1493.31 L1195.16 1468.24 L1203.36 1501.56 L1211.55 1495.71 L1219.74 1517.26 L1227.93 1512.8 L1236.12 1522.35 L1244.31 1486.62 L1252.51 1503.42 L1260.7 1479.36 L1268.89 1494.03 L1277.08 1490.22 L1285.27 1487.78 L1293.46 1503.35 L1301.66 1487.6 L1309.85 1499.86 L1318.04 1489.26 L1326.23 1491.17 L1334.42 1501.21 L1342.61 1474.5 L1350.81 1498.95 L1359 1477.1 L1367.19 1478.03 L1375.38 1476.26 L1383.57 1505.32 L1391.76 1483.54 L1399.96 1478.7 L1408.15 1480.13 L1416.34 1483.56 L1424.53 1486.36 L1432.72 1464.27 L1440.92 1495.05 L1449.11 1475.48 L1457.3 1483.56 L1465.49 1482 L1473.68 1497.23 L1481.87 1482.27 L1490.07 1458.96 L1498.26 1471.92 L1506.45 1471.86 L1514.64 1473.4 L1522.83 1471.1 L1531.02 1481.96 L1539.22 1495.54 L1547.41 1517.13 L1555.6 1486.97 L1563.79 1494.82 L1571.98 1476.95 L1580.17 1505.39 L1588.37 1492.54 L1596.56 1501.53 L1604.75 1468.02 L1612.94 1507.06 L1621.13 1491.14 L1629.32 1498.93 L1637.52 1464.25 L1645.71 1475.12 L1653.9 1467.89 L1662.09 1468.49 L1670.28 1470.35 L1678.48 1464.36 L1686.67 1460.7 L1694.86 1462.46 L1703.05 1472.11 L1711.24 1495.69 L1719.43 1476.95 L1727.63 1472.59 L1735.82 1470.95 L1744.01 1461.66 L1752.2 1464.35 L1760.39 1461.66 L1768.58 1463.85 L1776.78 1462.77 L1784.97 1456.59 L1793.16 1475.21 L1801.35 1453.28 L1809.54 1443.52 L1817.73 1450.41 L1825.93 1459.31 L1834.12 1471.77 L1842.31 1453.73 L1850.5 1481.69 L1858.69 1450.11 L1866.88 1444.48 L1875.08 1465.74 L1883.27 1452.03 L1891.46 1455.63 L1899.65 1443.74 L1907.84 1460.59 L1916.04 1458 L1924.23 1468.54 L1932.42 1472.47 L1940.61 1474.46 L1948.8 1445.21 L1956.99 1446.14 L1965.19 1459.51 L1973.38 1462.98 L1981.57 1459.56 L1989.76 1453.46 L1997.95 1439.45 L2006.14 1445.94 L2014.34 1465.85 L2022.53 1470.87 L2030.72 1434.09 L2038.91 1438.21 L2047.1 1430.11 L2055.29 1462.43 L2063.49 1460.41 L2071.68 1483.29 L2079.87 1465.52 L2088.06 1466.99 L2096.25 1478.12 L2104.45 1484.66 L2112.64 1455.21 L2120.83 1471.56 L2129.02 1453.26 L2137.21 1458.52 L2145.4 1486.75 L2153.6 1488.92 L2161.79 1466.12 L2169.98 1465.46 L2178.17 1475.75 L2186.36 1475.91 L2194.55 1466.26 L2202.75 1466.24 L2210.94 1470.37 L2219.13 1484.45 L2227.32 1485.18 L2235.51 1485.76 L2243.7 1484.88 L2251.9 1462.9 L2260.09 1482.53 L2268.28 1492.93 L2276.47 1484.43 L2284.66 1480.86 L2292.85 1463.04 L2301.05 1464.39 L2309.24 1462.77 L2317.43 1475.69 L2325.62 1463.43 L2333.81 1451.44 L2342.01 1457.28 L2350.2 1470.75 L2358.39 1470.06 L2366.58 1494.74 L2374.77 1465.6 L2382.96 1471.26 L2391.16 1475.14 L2399.35 1475.73 L2407.54 1470.91 L2415.73 1471.45 L2423.92 1470.06 L2432.11 1470.21 L2440.31 1474.27 L2448.5 1474.95 L2456.69 1472.52 L2464.88 1476.25 L2473.07 1453.68 L2481.26 1460.63 L2489.46 1462.59 L2497.65 1454.65 L2505.84 1478.13 L2514.03 1461.24 L2522.22 1461.17 L2530.41 1453.53 L2538.61 1466.16 L2546.8 1450.99 L2554.99 1443.83 L2563.18 1438.84 L2571.37 1461.7 L2579.57 1437.26 L2587.76 1442 L2595.95 1445.95 L2604.14 1440.56 L2612.33 1430.55 L2612.33 1129.89 L2604.14 1151.63 L2595.95 1140.72 L2587.76 1138.8 L2579.57 1144.08 L2571.37 1137.04 L2563.18 1140.59 L2554.99 1141.54 L2546.8 1146.69 L2538.61 1152.49 L2530.41 1134.79 L2522.22 1138.25 L2514.03 1150.62 L2505.84 1118.86 L2497.65 1134.43 L2489.46 1137.91 L2481.26 1122.09 L2473.07 1149.27 L2464.88 1119.06 L2456.69 1123.79 L2448.5 1129.42 L2440.31 1146.34 L2432.11 1139.04 L2423.92 1157.56 L2415.73 1146.16 L2407.54 1133.99 L2399.35 1147.01 L2391.16 1115.8 L2382.96 1145.44 L2374.77 1143.68 L2366.58 1141.91 L2358.39 1123.06 L2350.2 1134 L2342.01 1138.96 L2333.81 1132.11 L2325.62 1125.89 L2317.43 1139.5 L2309.24 1140.03 L2301.05 1135.71 L2292.85 1124.15 L2284.66 1122.43 L2276.47 1140.85 L2268.28 1135.53 L2260.09 1124.75 L2251.9 1139.33 L2243.7 1118.24 L2235.51 1127.48 L2227.32 1136.22 L2219.13 1118.14 L2210.94 1127.15 L2202.75 1163.98 L2194.55 1141.37 L2186.36 1136.92 L2178.17 1130.8 L2169.98 1140.67 L2161.79 1108.35 L2153.6 1139.19 L2145.4 1117.7 L2137.21 1152.93 L2129.02 1144.52 L2120.83 1140.73 L2112.64 1111.34 L2104.45 1104.99 L2096.25 1118.77 L2088.06 1100.78 L2079.87 1103.39 L2071.68 1106.84 L2063.49 1122.13 L2055.29 1111.74 L2047.1 1090.53 L2038.91 1081.02 L2030.72 1085.34 L2022.53 1072.33 L2014.34 1083.32 L2006.14 1110.12 L1997.95 1109.12 L1989.76 1094.36 L1981.57 1103.79 L1973.38 1095.56 L1965.19 1112.05 L1956.99 1110.64 L1948.8 1100.4 L1940.61 1099.56 L1932.42 1117.37 L1924.23 1111.82 L1916.04 1146.36 L1907.84 1147.9 L1899.65 1142.19 L1891.46 1117.19 L1883.27 1092.34 L1875.08 1130.36 L1866.88 1114.37 L1858.69 1102.76 L1850.5 1104.66 L1842.31 1125.67 L1834.12 1104.51 L1825.93 1099.9 L1817.73 1128.86 L1809.54 1132.56 L1801.35 1143.49 L1793.16 1133.6 L1784.97 1128.82 L1776.78 1126.64 L1768.58 1127.69 L1760.39 1123.82 L1752.2 1142.07 L1744.01 1099.51 L1735.82 1146.12 L1727.63 1116.8 L1719.43 1115.22 L1711.24 1099.55 L1703.05 1112.22 L1694.86 1128.65 L1686.67 1117.62 L1678.48 1121.32 L1670.28 1110.17 L1662.09 1113.24 L1653.9 1087.86 L1645.71 1105.54 L1637.52 1086.06 L1629.32 1087.09 L1621.13 1103.26 L1612.94 1081.5 L1604.75 1109.5 L1596.56 1144.38 L1588.37 1123.62 L1580.17 1125.98 L1571.98 1122.31 L1563.79 1139.5 L1555.6 1111.3 L1547.41 1107.67 L1539.22 1126.29 L1531.02 1112.49 L1522.83 1101.56 L1514.64 1118.72 L1506.45 1115.15 L1498.26 1119.17 L1490.07 1117.36 L1481.87 1120.83 L1473.68 1133.25 L1465.49 1154.12 L1457.3 1117.33 L1449.11 1126.4 L1440.92 1129.14 L1432.72 1121.65 L1424.53 1098.44 L1416.34 1125.12 L1408.15 1135.67 L1399.96 1106.87 L1391.76 1134.08 L1383.57 1118.81 L1375.38 1124.72 L1367.19 1110.48 L1359 1146.82 L1350.81 1144.49 L1342.61 1105.59 L1334.42 1113.99 L1326.23 1119.62 L1318.04 1129.96 L1309.85 1095.73 L1301.66 1124.58 L1293.46 1132.31 L1285.27 1122.23 L1277.08 1117.66 L1268.89 1102.25 L1260.7 1114.07 L1252.51 1130.76 L1244.31 1114.38 L1236.12 1115.63 L1227.93 1152.24 L1219.74 1116.39 L1211.55 1100.75 L1203.36 1134.92 L1195.16 1105.31 L1186.97 1102.15 L1178.78 1137.38 L1170.59 1113.87 L1162.4 1110.81 L1154.2 1123.72 L1146.01 1094.39 L1137.82 1115.81 L1129.63 1115.54 L1121.44 1117.65 L1113.25 1107.63 L1105.05 1128.75 L1096.86 1130.02 L1088.67 1091.38 L1080.48 1095.43 L1072.29 1103.7 L1064.1 1085.19 L1055.9 1088.93 L1047.71 1079.84 L1039.52 1100.57 L1031.33 1095.92 L1023.14 1085.49 L1014.95 1071.18 L1006.75 1107.41 L998.562 1093.45 L990.37 1079.67 L982.179 1083.18 L973.987 1087.51 L965.795 1084.3 L957.603 1056.28 L949.412 1074.65 L941.22 1064.83 L933.028 1077.55 L924.837 1063.94 L916.645 1029.88 L908.453 1074.77 L900.261 1056.2 L892.07 1038.19 L883.878 1020.66 L875.686 1034.35 L867.494 1062.35 L859.303 1023.04 L851.111 995.146 L842.919 994.586 L834.728 1003.99 L826.536 1001.18 L818.344 979.866 L810.152 976.97 L801.961 968.124 L793.769 970.382 L785.577 925.742 L777.385 938.893 L769.194 942.183 L761.002 953.509 L752.81 920.908 L744.619 874.019 L736.427 887.837 L728.235 893.933 L720.043 857.3 L711.852 794.744 L703.66 820.775 L695.468 818.773 L687.276 795.945 L679.085 807.266 L670.893 748.471 L662.701 709.565 L654.51 680.322 L646.318 625.248 L638.126 578.13 L629.934 595.545 L621.743 508.668 L613.551 483.867 L605.359 496.258 L597.167 400.314 L588.976 341.344 L580.784 334.262 L572.592 243.605 L564.401 229.65 L556.209 168.574  Z" fill="#009e73" fill-rule="evenodd" fill-opacity="0.2"/>
<polyline clip-path="url(#clip001)" style="stroke:#009e73; stroke-linecap:round; stroke-linejoin:round; stroke-width:4; stroke-opacity:0.2; fill:none" points="556.209,715.6 564.401,784.441 572.592,813.676 580.784,859.862 588.976,952.114 597.167,945.434 605.359,988.33 613.551,1044.79 621.743,1089.65 629.934,1101.95 638.126,1102.6 646.318,1143.85 654.51,1166.25 662.701,1188.9 670.893,1211.43 679.085,1234.55 687.276,1246.68 695.468,1255.89 703.66,1265.73 711.852,1278.6 720.043,1287.49 728.235,1334.33 736.427,1321.16 744.619,1335.48 752.81,1325.72 761.002,1360.94 769.194,1385.73 777.385,1387.15 785.577,1377.62 793.769,1406.98 801.961,1407.95 810.152,1443.33 818.344,1445.05 826.536,1434.2 834.728,1443.35 842.919,1461.69 851.111,1450.81 859.303,1474.93 867.494,1441.53 875.686,1457.07 883.878,1450.97 892.07,1454.09 900.261,1469.48 908.453,1466.31 916.645,1502.59 924.837,1460.82 933.028,1510.72 941.22,1527.81 949.412,1493.15 957.603,1495.97 965.795,1513.57 973.987,1485.11 982.179,1484.89 990.37,1481.5 998.562,1522.02 1006.75,1489.33 1014.95,1502.93 1023.14,1540.23 1031.33,1528.21 1039.52,1507.89 1047.71,1495.13 1055.9,1500.49 1064.1,1497.73 1072.29,1533.2 1080.48,1491.14 1088.67,1541.03 1096.86,1507.97 1105.05,1526.08 1113.25,1520.7 1121.44,1518.5 1129.63,1502.79 1137.82,1497.53 1146.01,1511.12 1154.2,1533.68 1162.4,1512.31 1170.59,1509.66 1178.78,1494.25 1186.97,1493.31 1195.16,1468.24 1203.36,1501.56 1211.55,1495.71 1219.74,1517.26 1227.93,1512.8 1236.12,1522.35 1244.31,1486.62 1252.51,1503.42 1260.7,1479.36 1268.89,1494.03 1277.08,1490.22 1285.27,1487.78 1293.46,1503.35 1301.66,1487.6 1309.85,1499.86 1318.04,1489.26 1326.23,1491.17 1334.42,1501.21 1342.61,1474.5 1350.81,1498.95 1359,1477.1 1367.19,1478.03 1375.38,1476.26 1383.57,1505.32 1391.76,1483.54 1399.96,1478.7 1408.15,1480.13 1416.34,1483.56 1424.53,1486.36 1432.72,1464.27 1440.92,1495.05 1449.11,1475.48 1457.3,1483.56 1465.49,1482 1473.68,1497.23 1481.87,1482.27 1490.07,1458.96 1498.26,1471.92 1506.45,1471.86 1514.64,1473.4 1522.83,1471.1 1531.02,1481.96 1539.22,1495.54 1547.41,1517.13 1555.6,1486.97 1563.79,1494.82 1571.98,1476.95 1580.17,1505.39 1588.37,1492.54 1596.56,1501.53 1604.75,1468.02 1612.94,1507.06 1621.13,1491.14 1629.32,1498.93 1637.52,1464.25 1645.71,1475.12 1653.9,1467.89 1662.09,1468.49 1670.28,1470.35 1678.48,1464.36 1686.67,1460.7 1694.86,1462.46 1703.05,1472.11 1711.24,1495.69 1719.43,1476.95 1727.63,1472.59 1735.82,1470.95 1744.01,1461.66 1752.2,1464.35 1760.39,1461.66 1768.58,1463.85 1776.78,1462.77 1784.97,1456.59 1793.16,1475.21 1801.35,1453.28 1809.54,1443.52 1817.73,1450.41 1825.93,1459.31 1834.12,1471.77 1842.31,1453.73 1850.5,1481.69 1858.69,1450.11 1866.88,1444.48 1875.08,1465.74 1883.27,1452.03 1891.46,1455.63 1899.65,1443.74 1907.84,1460.59 1916.04,1458 1924.23,1468.54 1932.42,1472.47 1940.61,1474.46 1948.8,1445.21 1956.99,1446.14 1965.19,1459.51 1973.38,1462.98 1981.57,1459.56 1989.76,1453.46 1997.95,1439.45 2006.14,1445.94 2014.34,1465.85 2022.53,1470.87 2030.72,1434.09 2038.91,1438.21 2047.1,1430.11 2055.29,1462.43 2063.49,1460.41 2071.68,1483.29 2079.87,1465.52 2088.06,1466.99 2096.25,1478.12 2104.45,1484.66 2112.64,1455.21 2120.83,1471.56 2129.02,1453.26 2137.21,1458.52 2145.4,1486.75 2153.6,1488.92 2161.79,1466.12 2169.98,1465.46 2178.17,1475.75 2186.36,1475.91 2194.55,1466.26 2202.75,1466.24 2210.94,1470.37 2219.13,1484.45 2227.32,1485.18 2235.51,1485.76 2243.7,1484.88 2251.9,1462.9 2260.09,1482.53 2268.28,1492.93 2276.47,1484.43 2284.66,1480.86 2292.85,1463.04 2301.05,1464.39 2309.24,1462.77 2317.43,1475.69 2325.62,1463.43 2333.81,1451.44 2342.01,1457.28 2350.2,1470.75 2358.39,1470.06 2366.58,1494.74 2374.77,1465.6 2382.96,1471.26 2391.16,1475.14 2399.35,1475.73 2407.54,1470.91 2415.73,1471.45 2423.92,1470.06 2432.11,1470.21 2440.31,1474.27 2448.5,1474.95 2456.69,1472.52 2464.88,1476.25 2473.07,1453.68 2481.26,1460.63 2489.46,1462.59 2497.65,1454.65 2505.84,1478.13 2514.03,1461.24 2522.22,1461.17 2530.41,1453.53 2538.61,1466.16 2546.8,1450.99 2554.99,1443.83 2563.18,1438.84 2571.37,1461.7 2579.57,1437.26 2587.76,1442 2595.95,1445.95 2604.14,1440.56 2612.33,1430.55 "/>
<path clip-path="url(#clip000)" d="M1952.66 409.426 L2601.37 409.426 L2601.37 176.146 L1952.66 176.146  Z" fill="#ffffff" fill-rule="evenodd" fill-opacity="1"/>
<polyline clip-path="url(#clip000)" style="stroke:#000000; stroke-linecap:round; stroke-linejoin:round; stroke-width:4; stroke-opacity:1; fill:none" points="1952.66,409.426 2601.37,409.426 2601.37,176.146 1952.66,176.146 1952.66,409.426 "/>
<polyline clip-path="url(#clip000)" style="stroke:#d45e00; stroke-linecap:round; stroke-linejoin:round; stroke-width:9; stroke-opacity:1; fill:none" stroke-dasharray="36, 23" points="1976.88,234.466 2122.18,234.466 "/>
<path clip-path="url(#clip000)" d="M2164.42 218.594 Q2158.69 218.594 2155.3 222.864 Q2151.94 227.135 2151.94 234.505 Q2151.94 241.849 2155.3 246.119 Q2158.69 250.39 2164.42 250.39 Q2170.15 250.39 2173.48 246.119 Q2176.84 241.849 2176.84 234.505 Q2176.84 227.135 2173.48 222.864 Q2170.15 218.594 2164.42 218.594 M2164.42 214.323 Q2172.59 214.323 2177.49 219.817 Q2182.39 225.286 2182.39 234.505 Q2182.39 243.698 2177.49 249.192 Q2172.59 254.661 2164.42 254.661 Q2156.21 254.661 2151.29 249.192 Q2146.4 243.724 2146.4 234.505 Q2146.4 225.286 2151.29 219.817 Q2156.21 214.323 2164.42 214.323 Z" fill="#000000" fill-rule="nonzero" fill-opacity="1" /><path clip-path="url(#clip000)" d="M2211.34 239.349 Q2211.34 234.062 2209.16 231.067 Q2207 228.047 2203.19 228.047 Q2199.39 228.047 2197.2 231.067 Q2195.04 234.062 2195.04 239.349 Q2195.04 244.635 2197.2 247.656 Q2199.39 250.651 2203.19 250.651 Q2207 250.651 2209.16 247.656 Q2211.34 244.635 2211.34 239.349 M2195.04 229.166 Q2196.55 226.562 2198.84 225.312 Q2201.16 224.036 2204.37 224.036 Q2209.68 224.036 2212.98 228.255 Q2216.32 232.474 2216.32 239.349 Q2216.32 246.224 2212.98 250.442 Q2209.68 254.661 2204.37 254.661 Q2201.16 254.661 2198.84 253.411 Q2196.55 252.135 2195.04 249.531 L2195.04 253.906 L2190.22 253.906 L2190.22 213.385 L2195.04 213.385 L2195.04 229.166 Z" fill="#000000" fill-rule="nonzero" fill-opacity="1" /><path clip-path="url(#clip000)" d="M2242.85 225.599 L2242.85 230.13 Q2240.82 229.088 2238.64 228.567 Q2236.45 228.047 2234.1 228.047 Q2230.54 228.047 2228.74 229.14 Q2226.97 230.234 2226.97 232.422 Q2226.97 234.088 2228.25 235.052 Q2229.52 235.989 2233.38 236.849 L2235.02 237.213 Q2240.12 238.307 2242.26 240.312 Q2244.42 242.291 2244.42 245.859 Q2244.42 249.921 2241.19 252.291 Q2237.98 254.661 2232.36 254.661 Q2230.02 254.661 2227.46 254.192 Q2224.94 253.75 2222.13 252.838 L2222.13 247.89 Q2224.78 249.27 2227.36 249.974 Q2229.94 250.651 2232.46 250.651 Q2235.85 250.651 2237.67 249.505 Q2239.5 248.333 2239.5 246.224 Q2239.5 244.27 2238.17 243.229 Q2236.86 242.187 2232.41 241.224 L2230.75 240.833 Q2226.29 239.895 2224.31 237.968 Q2222.33 236.015 2222.33 232.63 Q2222.33 228.515 2225.25 226.276 Q2228.17 224.036 2233.53 224.036 Q2236.19 224.036 2238.53 224.427 Q2240.88 224.817 2242.85 225.599 Z" fill="#000000" fill-rule="nonzero" fill-opacity="1" /><path clip-path="url(#clip000)" d="M2276.99 238.125 L2276.99 240.468 L2254.96 240.468 Q2255.28 245.416 2257.93 248.02 Q2260.61 250.599 2265.38 250.599 Q2268.14 250.599 2270.72 249.921 Q2273.32 249.244 2275.88 247.89 L2275.88 252.421 Q2273.3 253.515 2270.59 254.088 Q2267.88 254.661 2265.09 254.661 Q2258.11 254.661 2254.03 250.599 Q2249.96 246.536 2249.96 239.609 Q2249.96 232.448 2253.82 228.255 Q2257.7 224.036 2264.26 224.036 Q2270.15 224.036 2273.56 227.838 Q2276.99 231.614 2276.99 238.125 M2272.2 236.718 Q2272.15 232.786 2269.99 230.442 Q2267.85 228.099 2264.31 228.099 Q2260.3 228.099 2257.88 230.364 Q2255.48 232.63 2255.12 236.744 L2272.2 236.718 Z" fill="#000000" fill-rule="nonzero" fill-opacity="1" /><path clip-path="url(#clip000)" d="M2301.76 229.218 Q2300.95 228.75 2299.99 228.541 Q2299.05 228.307 2297.91 228.307 Q2293.84 228.307 2291.66 230.963 Q2289.49 233.593 2289.49 238.541 L2289.49 253.906 L2284.68 253.906 L2284.68 224.739 L2289.49 224.739 L2289.49 229.271 Q2291.01 226.614 2293.43 225.338 Q2295.85 224.036 2299.31 224.036 Q2299.81 224.036 2300.41 224.114 Q2301.01 224.166 2301.73 224.297 L2301.76 229.218 Z" fill="#000000" fill-rule="nonzero" fill-opacity="1" /><path clip-path="url(#clip000)" d="M2303.35 224.739 L2308.43 224.739 L2317.54 249.218 L2326.66 224.739 L2331.73 224.739 L2320.8 253.906 L2314.29 253.906 L2303.35 224.739 Z" fill="#000000" fill-rule="nonzero" fill-opacity="1" /><path clip-path="url(#clip000)" d="M2363.3 238.125 L2363.3 240.468 L2341.27 240.468 Q2341.58 245.416 2344.23 248.02 Q2346.92 250.599 2351.68 250.599 Q2354.44 250.599 2357.02 249.921 Q2359.62 249.244 2362.18 247.89 L2362.18 252.421 Q2359.6 253.515 2356.89 254.088 Q2354.18 254.661 2351.4 254.661 Q2344.42 254.661 2340.33 250.599 Q2336.27 246.536 2336.27 239.609 Q2336.27 232.448 2340.12 228.255 Q2344 224.036 2350.56 224.036 Q2356.45 224.036 2359.86 227.838 Q2363.3 231.614 2363.3 238.125 M2358.5 236.718 Q2358.45 232.786 2356.29 230.442 Q2354.16 228.099 2350.61 228.099 Q2346.6 228.099 2344.18 230.364 Q2341.79 232.63 2341.42 236.744 L2358.5 236.718 Z" fill="#000000" fill-rule="nonzero" fill-opacity="1" /><path clip-path="url(#clip000)" d="M2390.35 229.166 L2390.35 213.385 L2395.15 213.385 L2395.15 253.906 L2390.35 253.906 L2390.35 249.531 Q2388.84 252.135 2386.53 253.411 Q2384.23 254.661 2381 254.661 Q2375.72 254.661 2372.38 250.442 Q2369.08 246.224 2369.08 239.349 Q2369.08 232.474 2372.38 228.255 Q2375.72 224.036 2381 224.036 Q2384.23 224.036 2386.53 225.312 Q2388.84 226.562 2390.35 229.166 M2374.03 239.349 Q2374.03 244.635 2376.19 247.656 Q2378.37 250.651 2382.18 250.651 Q2385.98 250.651 2388.17 247.656 Q2390.35 244.635 2390.35 239.349 Q2390.35 234.062 2388.17 231.067 Q2385.98 228.047 2382.18 228.047 Q2378.37 228.047 2376.19 231.067 Q2374.03 234.062 2374.03 239.349 Z" fill="#000000" fill-rule="nonzero" fill-opacity="1" /><path clip-path="url(#clip000)" d="M2437.96 218.594 Q2432.23 218.594 2428.84 222.864 Q2425.48 227.135 2425.48 234.505 Q2425.48 241.849 2428.84 246.119 Q2432.23 250.39 2437.96 250.39 Q2443.69 250.39 2447.02 246.119 Q2450.38 241.849 2450.38 234.505 Q2450.38 227.135 2447.02 222.864 Q2443.69 218.594 2437.96 218.594 M2437.96 214.323 Q2446.13 214.323 2451.03 219.817 Q2455.93 225.286 2455.93 234.505 Q2455.93 243.698 2451.03 249.192 Q2446.13 254.661 2437.96 254.661 Q2429.75 254.661 2424.83 249.192 Q2419.94 243.724 2419.94 234.505 Q2419.94 225.286 2424.83 219.817 Q2429.75 214.323 2437.96 214.323 Z" fill="#000000" fill-rule="nonzero" fill-opacity="1" /><path clip-path="url(#clip000)" d="M2475.25 228.099 Q2471.39 228.099 2469.16 231.119 Q2466.92 234.114 2466.92 239.349 Q2466.92 244.583 2469.13 247.604 Q2471.37 250.599 2475.25 250.599 Q2479.08 250.599 2481.32 247.578 Q2483.56 244.557 2483.56 239.349 Q2483.56 234.166 2481.32 231.146 Q2479.08 228.099 2475.25 228.099 M2475.25 224.036 Q2481.5 224.036 2485.07 228.099 Q2488.63 232.161 2488.63 239.349 Q2488.63 246.51 2485.07 250.599 Q2481.5 254.661 2475.25 254.661 Q2468.97 254.661 2465.41 250.599 Q2461.86 246.51 2461.86 239.349 Q2461.86 232.161 2465.41 228.099 Q2468.97 224.036 2475.25 224.036 Z" fill="#000000" fill-rule="nonzero" fill-opacity="1" /><path clip-path="url(#clip000)" d="M2520.09 216.302 L2520.09 221.432 Q2517.1 220 2514.44 219.297 Q2511.79 218.594 2509.31 218.594 Q2505.01 218.594 2502.67 220.26 Q2500.35 221.927 2500.35 225 Q2500.35 227.578 2501.89 228.906 Q2503.45 230.208 2507.77 231.015 L2510.95 231.666 Q2516.84 232.786 2519.62 235.625 Q2522.44 238.437 2522.44 243.177 Q2522.44 248.828 2518.63 251.744 Q2514.86 254.661 2507.54 254.661 Q2504.78 254.661 2501.66 254.036 Q2498.56 253.411 2495.22 252.187 L2495.22 246.77 Q2498.43 248.567 2501.5 249.479 Q2504.57 250.39 2507.54 250.39 Q2512.05 250.39 2514.49 248.619 Q2516.94 246.849 2516.94 243.567 Q2516.94 240.703 2515.17 239.088 Q2513.43 237.474 2509.42 236.666 L2506.21 236.041 Q2500.33 234.869 2497.7 232.369 Q2495.07 229.869 2495.07 225.416 Q2495.07 220.26 2498.69 217.291 Q2502.33 214.323 2508.71 214.323 Q2511.45 214.323 2514.29 214.817 Q2517.12 215.312 2520.09 216.302 Z" fill="#000000" fill-rule="nonzero" fill-opacity="1" /><polyline clip-path="url(#clip000)" style="stroke:#009e73; stroke-linecap:round; stroke-linejoin:round; stroke-width:9; stroke-opacity:1; fill:none" points="1976.88,292.786 2122.18,292.786 "/>
<path clip-path="url(#clip000)" d="M2177.75 276.341 L2177.75 281.887 Q2175.09 279.414 2172.07 278.19 Q2169.08 276.966 2165.69 276.966 Q2159.03 276.966 2155.49 281.054 Q2151.94 285.117 2151.94 292.825 Q2151.94 300.507 2155.49 304.596 Q2159.03 308.658 2165.69 308.658 Q2169.08 308.658 2172.07 307.434 Q2175.09 306.21 2177.75 303.736 L2177.75 309.231 Q2174.99 311.106 2171.89 312.044 Q2168.82 312.981 2165.38 312.981 Q2156.55 312.981 2151.47 307.59 Q2146.4 302.174 2146.4 292.825 Q2146.4 283.45 2151.47 278.059 Q2156.55 272.643 2165.38 272.643 Q2168.87 272.643 2171.94 273.58 Q2175.04 274.492 2177.75 276.341 Z" fill="#000000" fill-rule="nonzero" fill-opacity="1" /><path clip-path="url(#clip000)" d="M2185.88 273.346 L2191.14 273.346 L2191.14 289.283 L2210.25 289.283 L2210.25 273.346 L2215.51 273.346 L2215.51 312.226 L2210.25 312.226 L2210.25 293.71 L2191.14 293.71 L2191.14 312.226 L2185.88 312.226 L2185.88 273.346 Z" fill="#000000" fill-rule="nonzero" fill-opacity="1" /><path clip-path="url(#clip000)" d="M2225.98 273.346 L2233.82 273.346 L2243.74 299.804 L2253.71 273.346 L2261.55 273.346 L2261.55 312.226 L2256.42 312.226 L2256.42 278.085 L2246.4 304.752 L2241.11 304.752 L2231.08 278.085 L2231.08 312.226 L2225.98 312.226 L2225.98 273.346 Z" fill="#000000" fill-rule="nonzero" fill-opacity="1" /><path clip-path="url(#clip000)" d="M2271.99 273.346 L2279.83 273.346 L2289.76 299.804 L2299.73 273.346 L2307.57 273.346 L2307.57 312.226 L2302.44 312.226 L2302.44 278.085 L2292.41 304.752 L2287.13 304.752 L2277.1 278.085 L2277.1 312.226 L2271.99 312.226 L2271.99 273.346 Z" fill="#000000" fill-rule="nonzero" fill-opacity="1" /><path clip-path="url(#clip000)" d="M2315.38 295.481 L2329.42 295.481 L2329.42 299.752 L2315.38 299.752 L2315.38 295.481 Z" fill="#000000" fill-rule="nonzero" fill-opacity="1" /><path clip-path="url(#clip000)" d="M2337.25 273.346 L2344.34 273.346 L2361.58 305.872 L2361.58 273.346 L2366.68 273.346 L2366.68 312.226 L2359.6 312.226 L2342.36 279.7 L2342.36 312.226 L2337.25 312.226 L2337.25 273.346 Z" fill="#000000" fill-rule="nonzero" fill-opacity="1" /><path clip-path="url(#clip000)" d="M2405.41 271.757 Q2401.92 277.747 2400.22 283.606 Q2398.53 289.466 2398.53 295.481 Q2398.53 301.497 2400.22 307.408 Q2401.94 313.294 2405.41 319.257 L2401.24 319.257 Q2397.33 313.137 2395.38 307.226 Q2393.45 301.314 2393.45 295.481 Q2393.45 289.674 2395.38 283.788 Q2397.31 277.903 2401.24 271.757 L2405.41 271.757 Z" fill="#000000" fill-rule="nonzero" fill-opacity="1" /><path clip-path="url(#clip000)" d="M2437.41 288.658 Q2439.21 285.429 2441.71 283.893 Q2444.21 282.356 2447.59 282.356 Q2452.15 282.356 2454.62 285.559 Q2457.1 288.736 2457.1 294.622 L2457.1 312.226 L2452.28 312.226 L2452.28 294.778 Q2452.28 290.585 2450.8 288.554 Q2449.31 286.523 2446.26 286.523 Q2442.54 286.523 2440.38 288.997 Q2438.22 291.471 2438.22 295.742 L2438.22 312.226 L2433.4 312.226 L2433.4 294.778 Q2433.4 290.559 2431.92 288.554 Q2430.43 286.523 2427.33 286.523 Q2423.66 286.523 2421.5 289.023 Q2419.34 291.497 2419.34 295.742 L2419.34 312.226 L2414.52 312.226 L2414.52 283.059 L2419.34 283.059 L2419.34 287.591 Q2420.98 284.908 2423.27 283.632 Q2425.56 282.356 2428.71 282.356 Q2431.89 282.356 2434.1 283.971 Q2436.34 285.585 2437.41 288.658 Z" fill="#000000" fill-rule="nonzero" fill-opacity="1" /><path clip-path="url(#clip000)" d="M2491.6 296.445 L2491.6 298.788 L2469.57 298.788 Q2469.88 303.736 2472.54 306.34 Q2475.22 308.919 2479.99 308.919 Q2482.75 308.919 2485.33 308.241 Q2487.93 307.564 2490.48 306.21 L2490.48 310.741 Q2487.91 311.835 2485.2 312.408 Q2482.49 312.981 2479.7 312.981 Q2472.72 312.981 2468.63 308.919 Q2464.57 304.856 2464.57 297.929 Q2464.57 290.768 2468.43 286.575 Q2472.31 282.356 2478.87 282.356 Q2484.75 282.356 2488.17 286.158 Q2491.6 289.934 2491.6 296.445 M2486.81 295.038 Q2486.76 291.106 2484.6 288.762 Q2482.46 286.419 2478.92 286.419 Q2474.91 286.419 2472.49 288.684 Q2470.09 290.95 2469.73 295.064 L2486.81 295.038 Z" fill="#000000" fill-rule="nonzero" fill-opacity="1" /><path clip-path="url(#clip000)" d="M2512.72 297.564 Q2506.92 297.564 2504.68 298.893 Q2502.44 300.221 2502.44 303.424 Q2502.44 305.976 2504.1 307.486 Q2505.8 308.971 2508.69 308.971 Q2512.67 308.971 2515.07 306.158 Q2517.49 303.32 2517.49 298.632 L2517.49 297.564 L2512.72 297.564 M2522.28 295.585 L2522.28 312.226 L2517.49 312.226 L2517.49 307.799 Q2515.85 310.455 2513.4 311.731 Q2510.95 312.981 2507.41 312.981 Q2502.93 312.981 2500.27 310.481 Q2497.64 307.955 2497.64 303.736 Q2497.64 298.814 2500.93 296.314 Q2504.23 293.814 2510.77 293.814 L2517.49 293.814 L2517.49 293.346 Q2517.49 290.038 2515.3 288.242 Q2513.14 286.419 2509.21 286.419 Q2506.71 286.419 2504.34 287.018 Q2501.97 287.617 2499.78 288.814 L2499.78 284.387 Q2502.41 283.372 2504.88 282.877 Q2507.36 282.356 2509.7 282.356 Q2516.03 282.356 2519.16 285.637 Q2522.28 288.919 2522.28 295.585 Z" fill="#000000" fill-rule="nonzero" fill-opacity="1" /><path clip-path="url(#clip000)" d="M2556.39 294.622 L2556.39 312.226 L2551.6 312.226 L2551.6 294.778 Q2551.6 290.637 2549.99 288.58 Q2548.37 286.523 2545.14 286.523 Q2541.26 286.523 2539.02 288.997 Q2536.79 291.471 2536.79 295.742 L2536.79 312.226 L2531.97 312.226 L2531.97 283.059 L2536.79 283.059 L2536.79 287.591 Q2538.5 284.96 2540.82 283.658 Q2543.17 282.356 2546.21 282.356 Q2551.24 282.356 2553.82 285.481 Q2556.39 288.58 2556.39 294.622 Z" fill="#000000" fill-rule="nonzero" fill-opacity="1" /><path clip-path="url(#clip000)" d="M2565.2 271.757 L2569.36 271.757 Q2573.27 277.903 2575.2 283.788 Q2577.15 289.674 2577.15 295.481 Q2577.15 301.314 2575.2 307.226 Q2573.27 313.137 2569.36 319.257 L2565.2 319.257 Q2568.66 313.294 2570.35 307.408 Q2572.07 301.497 2572.07 295.481 Q2572.07 289.466 2570.35 283.606 Q2568.66 277.747 2565.2 271.757 Z" fill="#000000" fill-rule="nonzero" fill-opacity="1" /><path clip-path="url(#clip000)" d="M1976.88 374.434 L2122.18 374.434 L2122.18 327.778 L1976.88 327.778 L1976.88 374.434  Z" fill="#009e73" fill-rule="evenodd" fill-opacity="0.2"/>
<polyline clip-path="url(#clip000)" style="stroke:#009e73; stroke-linecap:round; stroke-linejoin:round; stroke-width:4.5; stroke-opacity:0.2; fill:none" points="1976.88,327.778 2122.18,327.778 "/>
<path clip-path="url(#clip000)" d="M2147.15 366.119 L2155.75 366.119 L2155.75 336.457 L2146.4 338.332 L2146.4 333.541 L2155.69 331.666 L2160.95 331.666 L2160.95 366.119 L2169.55 366.119 L2169.55 370.546 L2147.15 370.546 L2147.15 366.119 Z" fill="#000000" fill-rule="nonzero" fill-opacity="1" /><path clip-path="url(#clip000)" d="M2191.42 335.129 Q2187.36 335.129 2185.3 339.14 Q2183.27 343.124 2183.27 351.145 Q2183.27 359.14 2185.3 363.15 Q2187.36 367.134 2191.42 367.134 Q2195.51 367.134 2197.54 363.15 Q2199.6 359.14 2199.6 351.145 Q2199.6 343.124 2197.54 339.14 Q2195.51 335.129 2191.42 335.129 M2191.42 330.963 Q2197.96 330.963 2201.4 336.145 Q2204.86 341.301 2204.86 351.145 Q2204.86 360.963 2201.4 366.145 Q2197.96 371.301 2191.42 371.301 Q2184.89 371.301 2181.42 366.145 Q2177.98 360.963 2177.98 351.145 Q2177.98 341.301 2181.42 336.145 Q2184.89 330.963 2191.42 330.963 Z" fill="#000000" fill-rule="nonzero" fill-opacity="1" /><path clip-path="url(#clip000)" d="M2211.01 353.801 L2225.04 353.801 L2225.04 358.072 L2211.01 358.072 L2211.01 353.801 Z" fill="#000000" fill-rule="nonzero" fill-opacity="1" /><path clip-path="url(#clip000)" d="M2233.51 369.739 L2233.51 364.947 Q2235.48 365.884 2237.52 366.379 Q2239.55 366.874 2241.5 366.874 Q2246.71 366.874 2249.44 363.384 Q2252.2 359.869 2252.59 352.733 Q2251.08 354.973 2248.77 356.171 Q2246.45 357.369 2243.64 357.369 Q2237.8 357.369 2234.39 353.853 Q2231.01 350.312 2231.01 344.192 Q2231.01 338.202 2234.55 334.582 Q2238.09 330.963 2243.97 330.963 Q2250.72 330.963 2254.26 336.145 Q2257.83 341.301 2257.83 351.145 Q2257.83 360.338 2253.45 365.832 Q2249.1 371.301 2241.73 371.301 Q2239.76 371.301 2237.72 370.91 Q2235.69 370.52 2233.51 369.739 M2243.97 353.254 Q2247.52 353.254 2249.57 350.832 Q2251.66 348.411 2251.66 344.192 Q2251.66 339.999 2249.57 337.577 Q2247.52 335.129 2243.97 335.129 Q2240.43 335.129 2238.35 337.577 Q2236.29 339.999 2236.29 344.192 Q2236.29 348.411 2238.35 350.832 Q2240.43 353.254 2243.97 353.254 Z" fill="#000000" fill-rule="nonzero" fill-opacity="1" /><path clip-path="url(#clip000)" d="M2278.53 335.129 Q2274.47 335.129 2272.41 339.14 Q2270.38 343.124 2270.38 351.145 Q2270.38 359.14 2272.41 363.15 Q2274.47 367.134 2278.53 367.134 Q2282.62 367.134 2284.65 363.15 Q2286.71 359.14 2286.71 351.145 Q2286.71 343.124 2284.65 339.14 Q2282.62 335.129 2278.53 335.129 M2278.53 330.963 Q2285.07 330.963 2288.51 336.145 Q2291.97 341.301 2291.97 351.145 Q2291.97 360.963 2288.51 366.145 Q2285.07 371.301 2278.53 371.301 Q2271.99 371.301 2268.53 366.145 Q2265.09 360.963 2265.09 351.145 Q2265.09 341.301 2268.53 336.145 Q2271.99 330.963 2278.53 330.963 Z" fill="#000000" fill-rule="nonzero" fill-opacity="1" /><path clip-path="url(#clip000)" d="M2305.28 333.098 L2305.28 341.379 L2315.15 341.379 L2315.15 345.103 L2305.28 345.103 L2305.28 360.937 Q2305.28 364.504 2306.24 365.52 Q2307.23 366.535 2310.22 366.535 L2315.15 366.535 L2315.15 370.546 L2310.22 370.546 Q2304.68 370.546 2302.57 368.489 Q2300.46 366.405 2300.46 360.937 L2300.46 345.103 L2296.94 345.103 L2296.94 341.379 L2300.46 341.379 L2300.46 333.098 L2305.28 333.098 Z" fill="#000000" fill-rule="nonzero" fill-opacity="1" /><path clip-path="url(#clip000)" d="M2345.69 352.942 L2345.69 370.546 L2340.9 370.546 L2340.9 353.098 Q2340.9 348.957 2339.29 346.9 Q2337.67 344.843 2334.44 344.843 Q2330.56 344.843 2328.32 347.317 Q2326.08 349.791 2326.08 354.062 L2326.08 370.546 L2321.27 370.546 L2321.27 330.025 L2326.08 330.025 L2326.08 345.911 Q2327.8 343.28 2330.12 341.978 Q2332.46 340.676 2335.51 340.676 Q2340.54 340.676 2343.11 343.801 Q2345.69 346.9 2345.69 352.942 Z" fill="#000000" fill-rule="nonzero" fill-opacity="1" /><path clip-path="url(#clip000)" d="M2376.84 366.171 L2376.84 381.64 L2372.02 381.64 L2372.02 341.379 L2376.84 341.379 L2376.84 345.806 Q2378.35 343.202 2380.64 341.952 Q2382.96 340.676 2386.16 340.676 Q2391.47 340.676 2394.78 344.895 Q2398.11 349.114 2398.11 355.989 Q2398.11 362.864 2394.78 367.082 Q2391.47 371.301 2386.16 371.301 Q2382.96 371.301 2380.64 370.051 Q2378.35 368.775 2376.84 366.171 M2393.14 355.989 Q2393.14 350.702 2390.95 347.707 Q2388.79 344.687 2384.99 344.687 Q2381.19 344.687 2379 347.707 Q2376.84 350.702 2376.84 355.989 Q2376.84 361.275 2379 364.296 Q2381.19 367.291 2384.99 367.291 Q2388.79 367.291 2390.95 364.296 Q2393.14 361.275 2393.14 355.989 Z" fill="#000000" fill-rule="nonzero" fill-opacity="1" /><path clip-path="url(#clip000)" d="M2427.05 342.499 L2427.05 346.978 Q2425.01 345.858 2422.96 345.312 Q2420.93 344.739 2418.84 344.739 Q2414.18 344.739 2411.6 347.707 Q2409.03 350.65 2409.03 355.989 Q2409.03 361.327 2411.6 364.296 Q2414.18 367.239 2418.84 367.239 Q2420.93 367.239 2422.96 366.692 Q2425.01 366.119 2427.05 364.999 L2427.05 369.426 Q2425.04 370.364 2422.88 370.832 Q2420.74 371.301 2418.32 371.301 Q2411.73 371.301 2407.85 367.16 Q2403.97 363.02 2403.97 355.989 Q2403.97 348.853 2407.88 344.765 Q2411.81 340.676 2418.63 340.676 Q2420.85 340.676 2422.96 341.145 Q2425.07 341.588 2427.05 342.499 Z" fill="#000000" fill-rule="nonzero" fill-opacity="1" /><path clip-path="url(#clip000)" d="M2440.12 333.098 L2440.12 341.379 L2449.99 341.379 L2449.99 345.103 L2440.12 345.103 L2440.12 360.937 Q2440.12 364.504 2441.08 365.52 Q2442.07 366.535 2445.07 366.535 L2449.99 366.535 L2449.99 370.546 L2445.07 370.546 Q2439.52 370.546 2437.41 368.489 Q2435.3 366.405 2435.3 360.937 L2435.3 345.103 L2431.79 345.103 L2431.79 341.379 L2435.3 341.379 L2435.3 333.098 L2440.12 333.098 Z" fill="#000000" fill-rule="nonzero" fill-opacity="1" /><path clip-path="url(#clip000)" d="M2456.29 330.025 L2461.08 330.025 L2461.08 370.546 L2456.29 370.546 L2456.29 330.025 Z" fill="#000000" fill-rule="nonzero" fill-opacity="1" /></svg>
