<?xml version="1.0" encoding="utf-8"?>
<svg xmlns="http://www.w3.org/2000/svg" xmlns:xlink="http://www.w3.org/1999/xlink" width="600" height="400" viewBox="0 0 2400 1600">
<defs>
  <clipPath id="clip810">
    <rect x="0" y="0" width="2400" height="1600"/>
  </clipPath>
</defs>
<path clip-path="url(#clip810)" d="M0 1600 L2400 1600 L2400 8.88178e-14 L0 8.88178e-14  Z" fill="#ffffff" fill-rule="evenodd" fill-opacity="1"/>
<defs>
  <clipPath id="clip811">
    <rect x="1779" y="944" width="571" height="534"/>
  </clipPath>
</defs>
<path clip-path="url(#clip810)" d="M545.232 1241.31 L2274.02 1241.31 L2274.02 125.984 L545.232 125.984  Z" fill="#ffffff" fill-rule="evenodd" fill-opacity="1"/>
<defs>
  <clipPath id="clip812">
    <rect x="545" y="125" width="1730" height="1116"/>
  </clipPath>
</defs>
<polyline clip-path="url(#clip812)" style="stroke:#000000; stroke-linecap:round; stroke-linejoin:round; stroke-width:2; stroke-opacity:0.1; fill:none" points="566.517,1241.31 566.517,125.984 "/>
<polyline clip-path="url(#clip812)" style="stroke:#000000; stroke-linecap:round; stroke-linejoin:round; stroke-width:2; stroke-opacity:0.1; fill:none" points="842.946,1241.31 842.946,125.984 "/>
<polyline clip-path="url(#clip812)" style="stroke:#000000; stroke-linecap:round; stroke-linejoin:round; stroke-width:2; stroke-opacity:0.1; fill:none" points="1119.37,1241.31 1119.37,125.984 "/>
<polyline clip-path="url(#clip812)" style="stroke:#000000; stroke-linecap:round; stroke-linejoin:round; stroke-width:2; stroke-opacity:0.1; fill:none" points="1395.8,1241.31 1395.8,125.984 "/>
<polyline clip-path="url(#clip812)" style="stroke:#000000; stroke-linecap:round; stroke-linejoin:round; stroke-width:2; stroke-opacity:0.1; fill:none" points="1672.23,1241.31 1672.23,125.984 "/>
<polyline clip-path="url(#clip812)" style="stroke:#000000; stroke-linecap:round; stroke-linejoin:round; stroke-width:2; stroke-opacity:0.1; fill:none" points="1948.66,1241.31 1948.66,125.984 "/>
<polyline clip-path="url(#clip812)" style="stroke:#000000; stroke-linecap:round; stroke-linejoin:round; stroke-width:2; stroke-opacity:0.1; fill:none" points="2225.09,1241.31 2225.09,125.984 "/>
<polyline clip-path="url(#clip812)" style="stroke:#000000; stroke-linecap:round; stroke-linejoin:round; stroke-width:2; stroke-opacity:0.1; fill:none" points="545.232,1159.94 2274.02,1159.94 "/>
<polyline clip-path="url(#clip812)" style="stroke:#000000; stroke-linecap:round; stroke-linejoin:round; stroke-width:2; stroke-opacity:0.1; fill:none" points="545.232,1009.57 2274.02,1009.57 "/>
<polyline clip-path="url(#clip812)" style="stroke:#000000; stroke-linecap:round; stroke-linejoin:round; stroke-width:2; stroke-opacity:0.1; fill:none" points="545.232,859.195 2274.02,859.195 "/>
<polyline clip-path="url(#clip812)" style="stroke:#000000; stroke-linecap:round; stroke-linejoin:round; stroke-width:2; stroke-opacity:0.1; fill:none" points="545.232,708.824 2274.02,708.824 "/>
<polyline clip-path="url(#clip812)" style="stroke:#000000; stroke-linecap:round; stroke-linejoin:round; stroke-width:2; stroke-opacity:0.1; fill:none" points="545.232,558.453 2274.02,558.453 "/>
<polyline clip-path="url(#clip812)" style="stroke:#000000; stroke-linecap:round; stroke-linejoin:round; stroke-width:2; stroke-opacity:0.1; fill:none" points="545.232,408.083 2274.02,408.083 "/>
<polyline clip-path="url(#clip812)" style="stroke:#000000; stroke-linecap:round; stroke-linejoin:round; stroke-width:2; stroke-opacity:0.1; fill:none" points="545.232,257.712 2274.02,257.712 "/>
<polyline clip-path="url(#clip810)" style="stroke:#000000; stroke-linecap:round; stroke-linejoin:round; stroke-width:4; stroke-opacity:1; fill:none" points="545.232,1241.31 2274.02,1241.31 "/>
<polyline clip-path="url(#clip810)" style="stroke:#000000; stroke-linecap:round; stroke-linejoin:round; stroke-width:4; stroke-opacity:1; fill:none" points="566.517,1241.31 566.517,1222.41 "/>
<polyline clip-path="url(#clip810)" style="stroke:#000000; stroke-linecap:round; stroke-linejoin:round; stroke-width:4; stroke-opacity:1; fill:none" points="842.946,1241.31 842.946,1222.41 "/>
<polyline clip-path="url(#clip810)" style="stroke:#000000; stroke-linecap:round; stroke-linejoin:round; stroke-width:4; stroke-opacity:1; fill:none" points="1119.37,1241.31 1119.37,1222.41 "/>
<polyline clip-path="url(#clip810)" style="stroke:#000000; stroke-linecap:round; stroke-linejoin:round; stroke-width:4; stroke-opacity:1; fill:none" points="1395.8,1241.31 1395.8,1222.41 "/>
<polyline clip-path="url(#clip810)" style="stroke:#000000; stroke-linecap:round; stroke-linejoin:round; stroke-width:4; stroke-opacity:1; fill:none" points="1672.23,1241.31 1672.23,1222.41 "/>
<polyline clip-path="url(#clip810)" style="stroke:#000000; stroke-linecap:round; stroke-linejoin:round; stroke-width:4; stroke-opacity:1; fill:none" points="1948.66,1241.31 1948.66,1222.41 "/>
<polyline clip-path="url(#clip810)" style="stroke:#000000; stroke-linecap:round; stroke-linejoin:round; stroke-width:4; stroke-opacity:1; fill:none" points="2225.09,1241.31 2225.09,1222.41 "/>
<path clip-path="url(#clip810)" d="M566.517 1275.16 Q562.004 1275.16 559.718 1279.62 Q557.461 1284.04 557.461 1292.95 Q557.461 1301.84 559.718 1306.29 Q562.004 1310.72 566.517 1310.72 Q571.06 1310.72 573.317 1306.29 Q575.603 1301.84 575.603 1292.95 Q575.603 1284.04 573.317 1279.62 Q571.06 1275.16 566.517 1275.16 M566.517 1270.53 Q573.78 1270.53 577.599 1276.29 Q581.448 1282.02 581.448 1292.95 Q581.448 1303.86 577.599 1309.62 Q573.78 1315.35 566.517 1315.35 Q559.255 1315.35 555.406 1309.62 Q551.587 1303.86 551.587 1292.95 Q551.587 1282.02 555.406 1276.29 Q559.255 1270.53 566.517 1270.53 Z" fill="#000000" fill-rule="nonzero" fill-opacity="1" /><path clip-path="url(#clip810)" d="M811.305 1309.59 L820.854 1309.59 L820.854 1276.64 L810.466 1278.72 L810.466 1273.39 L820.796 1271.31 L826.641 1271.31 L826.641 1309.59 L836.189 1309.59 L836.189 1314.51 L811.305 1314.51 L811.305 1309.59 Z" fill="#000000" fill-rule="nonzero" fill-opacity="1" /><path clip-path="url(#clip810)" d="M860.495 1275.16 Q855.981 1275.16 853.695 1279.62 Q851.438 1284.04 851.438 1292.95 Q851.438 1301.84 853.695 1306.29 Q855.981 1310.72 860.495 1310.72 Q865.038 1310.72 867.295 1306.29 Q869.58 1301.84 869.58 1292.95 Q869.58 1284.04 867.295 1279.62 Q865.038 1275.16 860.495 1275.16 M860.495 1270.53 Q867.758 1270.53 871.577 1276.29 Q875.425 1282.02 875.425 1292.95 Q875.425 1303.86 871.577 1309.62 Q867.758 1315.35 860.495 1315.35 Q853.232 1315.35 849.384 1309.62 Q845.564 1303.86 845.564 1292.95 Q845.564 1282.02 849.384 1276.29 Q853.232 1270.53 860.495 1270.53 Z" fill="#000000" fill-rule="nonzero" fill-opacity="1" /><path clip-path="url(#clip810)" d="M1092.84 1309.59 L1113.24 1309.59 L1113.24 1314.51 L1085.81 1314.51 L1085.81 1309.59 Q1089.14 1306.15 1094.87 1300.36 Q1100.62 1294.55 1102.1 1292.87 Q1104.91 1289.71 1106.01 1287.54 Q1107.13 1285.34 1107.13 1283.23 Q1107.13 1279.79 1104.7 1277.62 Q1102.3 1275.45 1098.43 1275.45 Q1095.68 1275.45 1092.61 1276.4 Q1089.57 1277.36 1086.1 1279.3 L1086.1 1273.39 Q1089.63 1271.98 1092.7 1271.25 Q1095.76 1270.53 1098.31 1270.53 Q1105.02 1270.53 1109.02 1273.89 Q1113.01 1277.24 1113.01 1282.86 Q1113.01 1285.52 1112 1287.92 Q1111.01 1290.29 1108.38 1293.53 Q1107.66 1294.37 1103.78 1298.39 Q1099.9 1302.39 1092.84 1309.59 Z" fill="#000000" fill-rule="nonzero" fill-opacity="1" /><path clip-path="url(#clip810)" d="M1138.01 1275.16 Q1133.49 1275.16 1131.21 1279.62 Q1128.95 1284.04 1128.95 1292.95 Q1128.95 1301.84 1131.21 1306.29 Q1133.49 1310.72 1138.01 1310.72 Q1142.55 1310.72 1144.81 1306.29 Q1147.09 1301.84 1147.09 1292.95 Q1147.09 1284.04 1144.81 1279.62 Q1142.55 1275.16 1138.01 1275.16 M1138.01 1270.53 Q1145.27 1270.53 1149.09 1276.29 Q1152.94 1282.02 1152.94 1292.95 Q1152.94 1303.86 1149.09 1309.62 Q1145.27 1315.35 1138.01 1315.35 Q1130.75 1315.35 1126.9 1309.62 Q1123.08 1303.86 1123.08 1292.95 Q1123.08 1282.02 1126.9 1276.29 Q1130.75 1270.53 1138.01 1270.53 Z" fill="#000000" fill-rule="nonzero" fill-opacity="1" /><path clip-path="url(#clip810)" d="M1381.86 1291.22 Q1386.05 1292.12 1388.4 1294.95 Q1390.77 1297.79 1390.77 1301.95 Q1390.77 1308.35 1386.37 1311.85 Q1381.97 1315.35 1373.87 1315.35 Q1371.15 1315.35 1368.26 1314.8 Q1365.39 1314.28 1362.32 1313.21 L1362.32 1307.57 Q1364.76 1308.98 1367.65 1309.71 Q1370.54 1310.43 1373.7 1310.43 Q1379.19 1310.43 1382.06 1308.26 Q1384.95 1306.09 1384.95 1301.95 Q1384.95 1298.13 1382.26 1295.99 Q1379.6 1293.82 1374.82 1293.82 L1369.79 1293.82 L1369.79 1289.02 L1375.06 1289.02 Q1379.37 1289.02 1381.65 1287.31 Q1383.94 1285.58 1383.94 1282.34 Q1383.94 1279.01 1381.57 1277.24 Q1379.22 1275.45 1374.82 1275.45 Q1372.42 1275.45 1369.67 1275.97 Q1366.93 1276.49 1363.63 1277.59 L1363.63 1272.38 Q1366.95 1271.46 1369.85 1270.99 Q1372.77 1270.53 1375.35 1270.53 Q1382 1270.53 1385.88 1273.57 Q1389.76 1276.58 1389.76 1281.73 Q1389.76 1285.32 1387.7 1287.8 Q1385.65 1290.26 1381.86 1291.22 Z" fill="#000000" fill-rule="nonzero" fill-opacity="1" /><path clip-path="url(#clip810)" d="M1414.35 1275.16 Q1409.84 1275.16 1407.55 1279.62 Q1405.29 1284.04 1405.29 1292.95 Q1405.29 1301.84 1407.55 1306.29 Q1409.84 1310.72 1414.35 1310.72 Q1418.89 1310.72 1421.15 1306.29 Q1423.44 1301.84 1423.44 1292.95 Q1423.44 1284.04 1421.15 1279.62 Q1418.89 1275.16 1414.35 1275.16 M1414.35 1270.53 Q1421.61 1270.53 1425.43 1276.29 Q1429.28 1282.02 1429.28 1292.95 Q1429.28 1303.86 1425.43 1309.62 Q1421.61 1315.35 1414.35 1315.35 Q1407.09 1315.35 1403.24 1309.62 Q1399.42 1303.86 1399.42 1292.95 Q1399.42 1282.02 1403.24 1276.29 Q1407.09 1270.53 1414.35 1270.53 Z" fill="#000000" fill-rule="nonzero" fill-opacity="1" /><path clip-path="url(#clip810)" d="M1657.45 1276.4 L1642.69 1299.47 L1657.45 1299.47 L1657.45 1276.4 M1655.91 1271.31 L1663.26 1271.31 L1663.26 1299.47 L1669.42 1299.47 L1669.42 1304.33 L1663.26 1304.33 L1663.26 1314.51 L1657.45 1314.51 L1657.45 1304.33 L1637.94 1304.33 L1637.94 1298.68 L1655.91 1271.31 Z" fill="#000000" fill-rule="nonzero" fill-opacity="1" /><path clip-path="url(#clip810)" d="M1691.59 1275.16 Q1687.07 1275.16 1684.79 1279.62 Q1682.53 1284.04 1682.53 1292.95 Q1682.53 1301.84 1684.79 1306.29 Q1687.07 1310.72 1691.59 1310.72 Q1696.13 1310.72 1698.39 1306.29 Q1700.67 1301.84 1700.67 1292.95 Q1700.67 1284.04 1698.39 1279.62 Q1696.13 1275.16 1691.59 1275.16 M1691.59 1270.53 Q1698.85 1270.53 1702.67 1276.29 Q1706.52 1282.02 1706.52 1292.95 Q1706.52 1303.86 1702.67 1309.62 Q1698.85 1315.35 1691.59 1315.35 Q1684.33 1315.35 1680.48 1309.62 Q1676.66 1303.86 1676.66 1292.95 Q1676.66 1282.02 1680.48 1276.29 Q1684.33 1270.53 1691.59 1270.53 Z" fill="#000000" fill-rule="nonzero" fill-opacity="1" /><path clip-path="url(#clip810)" d="M1917.03 1271.31 L1939.98 1271.31 L1939.98 1276.23 L1922.39 1276.23 L1922.39 1286.82 Q1923.66 1286.39 1924.93 1286.18 Q1926.21 1285.95 1927.48 1285.95 Q1934.71 1285.95 1938.94 1289.92 Q1943.16 1293.88 1943.16 1300.65 Q1943.16 1307.62 1938.82 1311.5 Q1934.48 1315.35 1926.58 1315.35 Q1923.86 1315.35 1921.03 1314.89 Q1918.22 1314.42 1915.21 1313.5 L1915.21 1307.62 Q1917.81 1309.04 1920.59 1309.74 Q1923.37 1310.43 1926.47 1310.43 Q1931.47 1310.43 1934.39 1307.8 Q1937.32 1305.17 1937.32 1300.65 Q1937.32 1296.14 1934.39 1293.5 Q1931.47 1290.87 1926.47 1290.87 Q1924.12 1290.87 1921.78 1291.39 Q1919.46 1291.91 1917.03 1293.01 L1917.03 1271.31 Z" fill="#000000" fill-rule="nonzero" fill-opacity="1" /><path clip-path="url(#clip810)" d="M1967.18 1275.16 Q1962.66 1275.16 1960.38 1279.62 Q1958.12 1284.04 1958.12 1292.95 Q1958.12 1301.84 1960.38 1306.29 Q1962.66 1310.72 1967.18 1310.72 Q1971.72 1310.72 1973.98 1306.29 Q1976.26 1301.84 1976.26 1292.95 Q1976.26 1284.04 1973.98 1279.62 Q1971.72 1275.16 1967.18 1275.16 M1967.18 1270.53 Q1974.44 1270.53 1978.26 1276.29 Q1982.11 1282.02 1982.11 1292.95 Q1982.11 1303.86 1978.26 1309.62 Q1974.44 1315.35 1967.18 1315.35 Q1959.92 1315.35 1956.07 1309.62 Q1952.25 1303.86 1952.25 1292.95 Q1952.25 1282.02 1956.07 1276.29 Q1959.92 1270.53 1967.18 1270.53 Z" fill="#000000" fill-rule="nonzero" fill-opacity="1" /><path clip-path="url(#clip810)" d="M2206.84 1290.58 Q2202.91 1290.58 2200.59 1293.27 Q2198.31 1295.96 2198.31 1300.65 Q2198.31 1305.31 2200.59 1308.03 Q2202.91 1310.72 2206.84 1310.72 Q2210.78 1310.72 2213.07 1308.03 Q2215.38 1305.31 2215.38 1300.65 Q2215.38 1295.96 2213.07 1293.27 Q2210.78 1290.58 2206.84 1290.58 M2218.45 1272.27 L2218.45 1277.59 Q2216.25 1276.55 2213.99 1276 Q2211.76 1275.45 2209.56 1275.45 Q2203.78 1275.45 2200.71 1279.36 Q2197.67 1283.26 2197.24 1291.16 Q2198.95 1288.64 2201.52 1287.31 Q2204.1 1285.95 2207.19 1285.95 Q2213.7 1285.95 2217.46 1289.92 Q2221.25 1293.85 2221.25 1300.65 Q2221.25 1307.31 2217.32 1311.33 Q2213.38 1315.35 2206.84 1315.35 Q2199.35 1315.35 2195.39 1309.62 Q2191.42 1303.86 2191.42 1292.95 Q2191.42 1282.71 2196.28 1276.64 Q2201.14 1270.53 2209.33 1270.53 Q2211.53 1270.53 2213.76 1270.96 Q2216.02 1271.4 2218.45 1272.27 Z" fill="#000000" fill-rule="nonzero" fill-opacity="1" /><path clip-path="url(#clip810)" d="M2243.82 1275.16 Q2239.31 1275.16 2237.02 1279.62 Q2234.77 1284.04 2234.77 1292.95 Q2234.77 1301.84 2237.02 1306.29 Q2239.31 1310.72 2243.82 1310.72 Q2248.37 1310.72 2250.62 1306.29 Q2252.91 1301.84 2252.91 1292.95 Q2252.91 1284.04 2250.62 1279.62 Q2248.37 1275.16 2243.82 1275.16 M2243.82 1270.53 Q2251.09 1270.53 2254.91 1276.29 Q2258.75 1282.02 2258.75 1292.95 Q2258.75 1303.86 2254.91 1309.62 Q2251.09 1315.35 2243.82 1315.35 Q2236.56 1315.35 2232.71 1309.62 Q2228.89 1303.86 2228.89 1292.95 Q2228.89 1282.02 2232.71 1276.29 Q2236.56 1270.53 2243.82 1270.53 Z" fill="#000000" fill-rule="nonzero" fill-opacity="1" /><path clip-path="url(#clip810)" d="M1218.83 1351.62 L1248.87 1351.62 L1248.87 1357.03 L1225.26 1357.03 L1225.26 1371.09 L1247.89 1371.09 L1247.89 1376.51 L1225.26 1376.51 L1225.26 1393.72 L1249.45 1393.72 L1249.45 1399.14 L1218.83 1399.14 L1218.83 1351.62 Z" fill="#000000" fill-rule="nonzero" fill-opacity="1" /><path clip-path="url(#clip810)" d="M1260.01 1351.62 L1269.59 1351.62 L1281.72 1383.95 L1293.91 1351.62 L1303.49 1351.62 L1303.49 1399.14 L1297.22 1399.14 L1297.22 1357.41 L1284.97 1390 L1278.51 1390 L1266.25 1357.41 L1266.25 1399.14 L1260.01 1399.14 L1260.01 1351.62 Z" fill="#000000" fill-rule="nonzero" fill-opacity="1" /><path clip-path="url(#clip810)" d="M1336.72 1363.49 L1342.58 1363.49 L1342.58 1399.14 L1336.72 1399.14 L1336.72 1363.49 M1336.72 1349.61 L1342.58 1349.61 L1342.58 1357.03 L1336.72 1357.03 L1336.72 1349.61 Z" fill="#000000" fill-rule="nonzero" fill-opacity="1" /><path clip-path="url(#clip810)" d="M1360.62 1353.37 L1360.62 1363.49 L1372.69 1363.49 L1372.69 1368.04 L1360.62 1368.04 L1360.62 1387.39 Q1360.62 1391.75 1361.8 1392.99 Q1363.01 1394.23 1366.67 1394.23 L1372.69 1394.23 L1372.69 1399.14 L1366.67 1399.14 Q1359.89 1399.14 1357.31 1396.62 Q1354.74 1394.07 1354.74 1387.39 L1354.74 1368.04 L1350.44 1368.04 L1350.44 1363.49 L1354.74 1363.49 L1354.74 1353.37 L1360.62 1353.37 Z" fill="#000000" fill-rule="nonzero" fill-opacity="1" /><path clip-path="url(#clip810)" d="M1410.88 1379.85 L1410.88 1382.71 L1383.95 1382.71 Q1384.34 1388.76 1387.58 1391.94 Q1390.86 1395.09 1396.69 1395.09 Q1400.06 1395.09 1403.21 1394.27 Q1406.39 1393.44 1409.51 1391.78 L1409.51 1397.32 Q1406.36 1398.66 1403.05 1399.36 Q1399.74 1400.06 1396.34 1400.06 Q1387.81 1400.06 1382.81 1395.09 Q1377.84 1390.13 1377.84 1381.66 Q1377.84 1372.91 1382.55 1367.78 Q1387.3 1362.63 1395.32 1362.63 Q1402.51 1362.63 1406.68 1367.28 Q1410.88 1371.89 1410.88 1379.85 M1405.02 1378.13 Q1404.96 1373.32 1402.32 1370.46 Q1399.71 1367.59 1395.38 1367.59 Q1390.48 1367.59 1387.52 1370.36 Q1384.59 1373.13 1384.15 1378.16 L1405.02 1378.13 Z" fill="#000000" fill-rule="nonzero" fill-opacity="1" /><path clip-path="url(#clip810)" d="M1441.15 1368.96 Q1440.16 1368.39 1438.99 1368.13 Q1437.84 1367.85 1436.44 1367.85 Q1431.47 1367.85 1428.8 1371.09 Q1426.16 1374.31 1426.16 1380.36 L1426.16 1399.14 L1420.27 1399.14 L1420.27 1363.49 L1426.16 1363.49 L1426.16 1369.03 Q1428.01 1365.78 1430.97 1364.22 Q1433.93 1362.63 1438.16 1362.63 Q1438.76 1362.63 1439.5 1362.72 Q1440.23 1362.79 1441.12 1362.95 L1441.15 1368.96 Z" fill="#000000" fill-rule="nonzero" fill-opacity="1" /><path clip-path="url(#clip810)" d="M1463.49 1381.22 Q1456.4 1381.22 1453.66 1382.84 Q1450.92 1384.46 1450.92 1388.38 Q1450.92 1391.5 1452.96 1393.34 Q1455.03 1395.16 1458.56 1395.16 Q1463.43 1395.16 1466.36 1391.72 Q1469.32 1388.25 1469.32 1382.52 L1469.32 1381.22 L1463.49 1381.22 M1475.17 1378.8 L1475.17 1399.14 L1469.32 1399.14 L1469.32 1393.72 Q1467.31 1396.97 1464.32 1398.53 Q1461.33 1400.06 1457 1400.06 Q1451.53 1400.06 1448.28 1397 Q1445.07 1393.92 1445.07 1388.76 Q1445.07 1382.74 1449.08 1379.69 Q1453.12 1376.63 1461.11 1376.63 L1469.32 1376.63 L1469.32 1376.06 Q1469.32 1372.02 1466.64 1369.82 Q1464 1367.59 1459.2 1367.59 Q1456.14 1367.59 1453.25 1368.33 Q1450.35 1369.06 1447.68 1370.52 L1447.68 1365.11 Q1450.89 1363.87 1453.91 1363.26 Q1456.94 1362.63 1459.8 1362.63 Q1467.54 1362.63 1471.36 1366.64 Q1475.17 1370.65 1475.17 1378.8 Z" fill="#000000" fill-rule="nonzero" fill-opacity="1" /><path clip-path="url(#clip810)" d="M1493.03 1353.37 L1493.03 1363.49 L1505.09 1363.49 L1505.09 1368.04 L1493.03 1368.04 L1493.03 1387.39 Q1493.03 1391.75 1494.21 1392.99 Q1495.42 1394.23 1499.08 1394.23 L1505.09 1394.23 L1505.09 1399.14 L1499.08 1399.14 Q1492.3 1399.14 1489.72 1396.62 Q1487.14 1394.07 1487.14 1387.39 L1487.14 1368.04 L1482.85 1368.04 L1482.85 1363.49 L1487.14 1363.49 L1487.14 1353.37 L1493.03 1353.37 Z" fill="#000000" fill-rule="nonzero" fill-opacity="1" /><path clip-path="url(#clip810)" d="M1512.8 1363.49 L1518.65 1363.49 L1518.65 1399.14 L1512.8 1399.14 L1512.8 1363.49 M1512.8 1349.61 L1518.65 1349.61 L1518.65 1357.03 L1512.8 1357.03 L1512.8 1349.61 Z" fill="#000000" fill-rule="nonzero" fill-opacity="1" /><path clip-path="url(#clip810)" d="M1544.72 1367.59 Q1540.01 1367.59 1537.27 1371.29 Q1534.54 1374.95 1534.54 1381.34 Q1534.54 1387.74 1537.24 1391.43 Q1539.98 1395.09 1544.72 1395.09 Q1549.4 1395.09 1552.14 1391.4 Q1554.87 1387.71 1554.87 1381.34 Q1554.87 1375.01 1552.14 1371.32 Q1549.4 1367.59 1544.72 1367.59 M1544.72 1362.63 Q1552.36 1362.63 1556.72 1367.59 Q1561.08 1372.56 1561.08 1381.34 Q1561.08 1390.1 1556.72 1395.09 Q1552.36 1400.06 1544.72 1400.06 Q1537.05 1400.06 1532.69 1395.09 Q1528.36 1390.1 1528.36 1381.34 Q1528.36 1372.56 1532.69 1367.59 Q1537.05 1362.63 1544.72 1362.63 Z" fill="#000000" fill-rule="nonzero" fill-opacity="1" /><path clip-path="url(#clip810)" d="M1600.42 1377.62 L1600.42 1399.14 L1594.56 1399.14 L1594.56 1377.81 Q1594.56 1372.75 1592.59 1370.24 Q1590.62 1367.72 1586.67 1367.72 Q1581.93 1367.72 1579.19 1370.74 Q1576.45 1373.77 1576.45 1378.99 L1576.45 1399.14 L1570.57 1399.14 L1570.57 1363.49 L1576.45 1363.49 L1576.45 1369.03 Q1578.55 1365.81 1581.39 1364.22 Q1584.25 1362.63 1587.98 1362.63 Q1594.12 1362.63 1597.27 1366.45 Q1600.42 1370.24 1600.42 1377.62 Z" fill="#000000" fill-rule="nonzero" fill-opacity="1" /><polyline clip-path="url(#clip810)" style="stroke:#000000; stroke-linecap:round; stroke-linejoin:round; stroke-width:4; stroke-opacity:1; fill:none" points="545.232,1241.31 545.232,125.984 "/>
<polyline clip-path="url(#clip810)" style="stroke:#000000; stroke-linecap:round; stroke-linejoin:round; stroke-width:4; stroke-opacity:1; fill:none" points="545.232,1159.94 564.13,1159.94 "/>
<polyline clip-path="url(#clip810)" style="stroke:#000000; stroke-linecap:round; stroke-linejoin:round; stroke-width:4; stroke-opacity:1; fill:none" points="545.232,1009.57 564.13,1009.57 "/>
<polyline clip-path="url(#clip810)" style="stroke:#000000; stroke-linecap:round; stroke-linejoin:round; stroke-width:4; stroke-opacity:1; fill:none" points="545.232,859.195 564.13,859.195 "/>
<polyline clip-path="url(#clip810)" style="stroke:#000000; stroke-linecap:round; stroke-linejoin:round; stroke-width:4; stroke-opacity:1; fill:none" points="545.232,708.824 564.13,708.824 "/>
<polyline clip-path="url(#clip810)" style="stroke:#000000; stroke-linecap:round; stroke-linejoin:round; stroke-width:4; stroke-opacity:1; fill:none" points="545.232,558.453 564.13,558.453 "/>
<polyline clip-path="url(#clip810)" style="stroke:#000000; stroke-linecap:round; stroke-linejoin:round; stroke-width:4; stroke-opacity:1; fill:none" points="545.232,408.083 564.13,408.083 "/>
<polyline clip-path="url(#clip810)" style="stroke:#000000; stroke-linecap:round; stroke-linejoin:round; stroke-width:4; stroke-opacity:1; fill:none" points="545.232,257.712 564.13,257.712 "/>
<path clip-path="url(#clip810)" d="M318.985 1160.5 L356.079 1160.5 L356.079 1165.42 L318.985 1165.42 L318.985 1160.5 Z" fill="#000000" fill-rule="nonzero" fill-opacity="1" /><path clip-path="url(#clip810)" d="M368.753 1138.34 L391.698 1138.34 L391.698 1143.26 L374.106 1143.26 L374.106 1153.85 Q375.379 1153.41 376.652 1153.21 Q377.925 1152.98 379.198 1152.98 Q386.432 1152.98 390.657 1156.94 Q394.881 1160.91 394.881 1167.68 Q394.881 1174.65 390.541 1178.53 Q386.201 1182.38 378.301 1182.38 Q375.581 1182.38 372.746 1181.91 Q369.939 1181.45 366.93 1180.52 L366.93 1174.65 Q369.534 1176.07 372.312 1176.76 Q375.09 1177.46 378.186 1177.46 Q383.191 1177.46 386.114 1174.82 Q389.036 1172.19 389.036 1167.68 Q389.036 1163.16 386.114 1160.53 Q383.191 1157.9 378.186 1157.9 Q375.842 1157.9 373.498 1158.42 Q371.183 1158.94 368.753 1160.04 L368.753 1138.34 Z" fill="#000000" fill-rule="nonzero" fill-opacity="1" /><path clip-path="url(#clip810)" d="M422.456 1143.43 L407.699 1166.49 L422.456 1166.49 L422.456 1143.43 M420.923 1138.34 L428.272 1138.34 L428.272 1166.49 L434.435 1166.49 L434.435 1171.35 L428.272 1171.35 L428.272 1181.54 L422.456 1181.54 L422.456 1171.35 L402.954 1171.35 L402.954 1165.71 L420.923 1138.34 Z" fill="#000000" fill-rule="nonzero" fill-opacity="1" /><path clip-path="url(#clip810)" d="M456.6 1142.19 Q452.086 1142.19 449.8 1146.64 Q447.543 1151.07 447.543 1159.98 Q447.543 1168.86 449.8 1173.32 Q452.086 1177.75 456.6 1177.75 Q461.142 1177.75 463.399 1173.32 Q465.685 1168.86 465.685 1159.98 Q465.685 1151.07 463.399 1146.64 Q461.142 1142.19 456.6 1142.19 M456.6 1137.56 Q463.862 1137.56 467.682 1143.31 Q471.53 1149.04 471.53 1159.98 Q471.53 1170.89 467.682 1176.65 Q463.862 1182.38 456.6 1182.38 Q449.337 1182.38 445.489 1176.65 Q441.669 1170.89 441.669 1159.98 Q441.669 1149.04 445.489 1143.31 Q449.337 1137.56 456.6 1137.56 Z" fill="#000000" fill-rule="nonzero" fill-opacity="1" /><path clip-path="url(#clip810)" d="M494.302 1142.19 Q489.788 1142.19 487.502 1146.64 Q485.245 1151.07 485.245 1159.98 Q485.245 1168.86 487.502 1173.32 Q489.788 1177.75 494.302 1177.75 Q498.845 1177.75 501.102 1173.32 Q503.388 1168.86 503.388 1159.98 Q503.388 1151.07 501.102 1146.64 Q498.845 1142.19 494.302 1142.19 M494.302 1137.56 Q501.565 1137.56 505.384 1143.31 Q509.232 1149.04 509.232 1159.98 Q509.232 1170.89 505.384 1176.65 Q501.565 1182.38 494.302 1182.38 Q487.039 1182.38 483.191 1176.65 Q479.371 1170.89 479.371 1159.98 Q479.371 1149.04 483.191 1143.31 Q487.039 1137.56 494.302 1137.56 Z" fill="#000000" fill-rule="nonzero" fill-opacity="1" /><path clip-path="url(#clip810)" d="M318.985 1010.13 L356.079 1010.13 L356.079 1015.05 L318.985 1015.05 L318.985 1010.13 Z" fill="#000000" fill-rule="nonzero" fill-opacity="1" /><path clip-path="url(#clip810)" d="M368.753 987.966 L391.698 987.966 L391.698 992.885 L374.106 992.885 L374.106 1003.48 Q375.379 1003.04 376.652 1002.84 Q377.925 1002.61 379.198 1002.61 Q386.432 1002.61 390.657 1006.57 Q394.881 1010.54 394.881 1017.31 Q394.881 1024.28 390.541 1028.16 Q386.201 1032.01 378.301 1032.01 Q375.581 1032.01 372.746 1031.54 Q369.939 1031.08 366.93 1030.15 L366.93 1024.28 Q369.534 1025.7 372.312 1026.39 Q375.09 1027.09 378.186 1027.09 Q383.191 1027.09 386.114 1024.45 Q389.036 1021.82 389.036 1017.31 Q389.036 1012.79 386.114 1010.16 Q383.191 1007.53 378.186 1007.53 Q375.842 1007.53 373.498 1008.05 Q371.183 1008.57 368.753 1009.67 L368.753 987.966 Z" fill="#000000" fill-rule="nonzero" fill-opacity="1" /><path clip-path="url(#clip810)" d="M424.106 1007.87 Q428.301 1008.77 430.645 1011.61 Q433.018 1014.44 433.018 1018.61 Q433.018 1025 428.619 1028.5 Q424.221 1032.01 416.119 1032.01 Q413.4 1032.01 410.506 1031.46 Q407.641 1030.93 404.574 1029.86 L404.574 1024.22 Q407.005 1025.64 409.898 1026.36 Q412.792 1027.09 415.946 1027.09 Q421.444 1027.09 424.308 1024.92 Q427.202 1022.75 427.202 1018.61 Q427.202 1014.79 424.511 1012.65 Q421.849 1010.48 417.074 1010.48 L412.04 1010.48 L412.04 1005.67 L417.306 1005.67 Q421.617 1005.67 423.903 1003.97 Q426.189 1002.23 426.189 998.99 Q426.189 995.663 423.816 993.898 Q421.472 992.104 417.074 992.104 Q414.673 992.104 411.924 992.625 Q409.175 993.146 405.876 994.245 L405.876 989.037 Q409.204 988.111 412.097 987.648 Q415.02 987.185 417.595 987.185 Q424.25 987.185 428.128 990.223 Q432.005 993.232 432.005 998.383 Q432.005 1001.97 429.95 1004.46 Q427.896 1006.92 424.106 1007.87 Z" fill="#000000" fill-rule="nonzero" fill-opacity="1" /><path clip-path="url(#clip810)" d="M456.6 991.815 Q452.086 991.815 449.8 996.271 Q447.543 1000.7 447.543 1009.61 Q447.543 1018.49 449.8 1022.95 Q452.086 1027.38 456.6 1027.38 Q461.142 1027.38 463.399 1022.95 Q465.685 1018.49 465.685 1009.61 Q465.685 1000.7 463.399 996.271 Q461.142 991.815 456.6 991.815 M456.6 987.185 Q463.862 987.185 467.682 992.943 Q471.53 998.672 471.53 1009.61 Q471.53 1020.52 467.682 1026.28 Q463.862 1032.01 456.6 1032.01 Q449.337 1032.01 445.489 1026.28 Q441.669 1020.52 441.669 1009.61 Q441.669 998.672 445.489 992.943 Q449.337 987.185 456.6 987.185 Z" fill="#000000" fill-rule="nonzero" fill-opacity="1" /><path clip-path="url(#clip810)" d="M494.302 991.815 Q489.788 991.815 487.502 996.271 Q485.245 1000.7 485.245 1009.61 Q485.245 1018.49 487.502 1022.95 Q489.788 1027.38 494.302 1027.38 Q498.845 1027.38 501.102 1022.95 Q503.388 1018.49 503.388 1009.61 Q503.388 1000.7 501.102 996.271 Q498.845 991.815 494.302 991.815 M494.302 987.185 Q501.565 987.185 505.384 992.943 Q509.232 998.672 509.232 1009.61 Q509.232 1020.52 505.384 1026.28 Q501.565 1032.01 494.302 1032.01 Q487.039 1032.01 483.191 1026.28 Q479.371 1020.52 479.371 1009.61 Q479.371 998.672 483.191 992.943 Q487.039 987.185 494.302 987.185 Z" fill="#000000" fill-rule="nonzero" fill-opacity="1" /><path clip-path="url(#clip810)" d="M318.985 859.76 L356.079 859.76 L356.079 864.678 L318.985 864.678 L318.985 859.76 Z" fill="#000000" fill-rule="nonzero" fill-opacity="1" /><path clip-path="url(#clip810)" d="M368.753 837.595 L391.698 837.595 L391.698 842.514 L374.106 842.514 L374.106 853.104 Q375.379 852.67 376.652 852.468 Q377.925 852.236 379.198 852.236 Q386.432 852.236 390.657 856.201 Q394.881 860.165 394.881 866.935 Q394.881 873.909 390.541 877.786 Q386.201 881.634 378.301 881.634 Q375.581 881.634 372.746 881.171 Q369.939 880.708 366.93 879.783 L366.93 873.909 Q369.534 875.327 372.312 876.021 Q375.09 876.715 378.186 876.715 Q383.191 876.715 386.114 874.082 Q389.036 871.449 389.036 866.935 Q389.036 862.422 386.114 859.788 Q383.191 857.155 378.186 857.155 Q375.842 857.155 373.498 857.676 Q371.183 858.197 368.753 859.297 L368.753 837.595 Z" fill="#000000" fill-rule="nonzero" fill-opacity="1" /><path clip-path="url(#clip810)" d="M411.432 875.876 L431.831 875.876 L431.831 880.795 L404.401 880.795 L404.401 875.876 Q407.728 872.433 413.457 866.646 Q419.216 860.83 420.691 859.152 Q423.498 855.998 424.597 853.828 Q425.726 851.629 425.726 849.517 Q425.726 846.073 423.295 843.903 Q420.894 841.733 417.016 841.733 Q414.268 841.733 411.201 842.688 Q408.162 843.643 404.69 845.581 L404.69 839.679 Q408.22 838.261 411.287 837.537 Q414.354 836.814 416.901 836.814 Q423.614 836.814 427.607 840.171 Q431.6 843.527 431.6 849.14 Q431.6 851.802 430.587 854.204 Q429.603 856.577 426.97 859.817 Q426.247 860.657 422.369 864.678 Q418.492 868.672 411.432 875.876 Z" fill="#000000" fill-rule="nonzero" fill-opacity="1" /><path clip-path="url(#clip810)" d="M456.6 841.444 Q452.086 841.444 449.8 845.9 Q447.543 850.327 447.543 859.239 Q447.543 868.122 449.8 872.578 Q452.086 877.005 456.6 877.005 Q461.142 877.005 463.399 872.578 Q465.685 868.122 465.685 859.239 Q465.685 850.327 463.399 845.9 Q461.142 841.444 456.6 841.444 M456.6 836.814 Q463.862 836.814 467.682 842.572 Q471.53 848.301 471.53 859.239 Q471.53 870.147 467.682 875.905 Q463.862 881.634 456.6 881.634 Q449.337 881.634 445.489 875.905 Q441.669 870.147 441.669 859.239 Q441.669 848.301 445.489 842.572 Q449.337 836.814 456.6 836.814 Z" fill="#000000" fill-rule="nonzero" fill-opacity="1" /><path clip-path="url(#clip810)" d="M494.302 841.444 Q489.788 841.444 487.502 845.9 Q485.245 850.327 485.245 859.239 Q485.245 868.122 487.502 872.578 Q489.788 877.005 494.302 877.005 Q498.845 877.005 501.102 872.578 Q503.388 868.122 503.388 859.239 Q503.388 850.327 501.102 845.9 Q498.845 841.444 494.302 841.444 M494.302 836.814 Q501.565 836.814 505.384 842.572 Q509.232 848.301 509.232 859.239 Q509.232 870.147 505.384 875.905 Q501.565 881.634 494.302 881.634 Q487.039 881.634 483.191 875.905 Q479.371 870.147 479.371 859.239 Q479.371 848.301 483.191 842.572 Q487.039 836.814 494.302 836.814 Z" fill="#000000" fill-rule="nonzero" fill-opacity="1" /><path clip-path="url(#clip810)" d="M318.985 709.389 L356.079 709.389 L356.079 714.308 L318.985 714.308 L318.985 709.389 Z" fill="#000000" fill-rule="nonzero" fill-opacity="1" /><path clip-path="url(#clip810)" d="M368.753 687.224 L391.698 687.224 L391.698 692.143 L374.106 692.143 L374.106 702.734 Q375.379 702.3 376.652 702.097 Q377.925 701.866 379.198 701.866 Q386.432 701.866 390.657 705.83 Q394.881 709.794 394.881 716.565 Q394.881 723.538 390.541 727.415 Q386.201 731.264 378.301 731.264 Q375.581 731.264 372.746 730.801 Q369.939 730.338 366.93 729.412 L366.93 723.538 Q369.534 724.956 372.312 725.65 Q375.09 726.345 378.186 726.345 Q383.191 726.345 386.114 723.711 Q389.036 721.078 389.036 716.565 Q389.036 712.051 386.114 709.418 Q383.191 706.784 378.186 706.784 Q375.842 706.784 373.498 707.305 Q371.183 707.826 368.753 708.926 L368.753 687.224 Z" fill="#000000" fill-rule="nonzero" fill-opacity="1" /><path clip-path="url(#clip810)" d="M407.41 725.505 L416.959 725.505 L416.959 692.548 L406.571 694.632 L406.571 689.308 L416.901 687.224 L422.746 687.224 L422.746 725.505 L432.294 725.505 L432.294 730.424 L407.41 730.424 L407.41 725.505 Z" fill="#000000" fill-rule="nonzero" fill-opacity="1" /><path clip-path="url(#clip810)" d="M456.6 691.073 Q452.086 691.073 449.8 695.529 Q447.543 699.956 447.543 708.868 Q447.543 717.751 449.8 722.207 Q452.086 726.634 456.6 726.634 Q461.142 726.634 463.399 722.207 Q465.685 717.751 465.685 708.868 Q465.685 699.956 463.399 695.529 Q461.142 691.073 456.6 691.073 M456.6 686.443 Q463.862 686.443 467.682 692.201 Q471.53 697.93 471.53 708.868 Q471.53 719.776 467.682 725.534 Q463.862 731.264 456.6 731.264 Q449.337 731.264 445.489 725.534 Q441.669 719.776 441.669 708.868 Q441.669 697.93 445.489 692.201 Q449.337 686.443 456.6 686.443 Z" fill="#000000" fill-rule="nonzero" fill-opacity="1" /><path clip-path="url(#clip810)" d="M494.302 691.073 Q489.788 691.073 487.502 695.529 Q485.245 699.956 485.245 708.868 Q485.245 717.751 487.502 722.207 Q489.788 726.634 494.302 726.634 Q498.845 726.634 501.102 722.207 Q503.388 717.751 503.388 708.868 Q503.388 699.956 501.102 695.529 Q498.845 691.073 494.302 691.073 M494.302 686.443 Q501.565 686.443 505.384 692.201 Q509.232 697.93 509.232 708.868 Q509.232 719.776 505.384 725.534 Q501.565 731.264 494.302 731.264 Q487.039 731.264 483.191 725.534 Q479.371 719.776 479.371 708.868 Q479.371 697.93 483.191 692.201 Q487.039 686.443 494.302 686.443 Z" fill="#000000" fill-rule="nonzero" fill-opacity="1" /><path clip-path="url(#clip810)" d="M318.985 559.018 L356.079 559.018 L356.079 563.937 L318.985 563.937 L318.985 559.018 Z" fill="#000000" fill-rule="nonzero" fill-opacity="1" /><path clip-path="url(#clip810)" d="M368.753 536.853 L391.698 536.853 L391.698 541.772 L374.106 541.772 L374.106 552.363 Q375.379 551.929 376.652 551.726 Q377.925 551.495 379.198 551.495 Q386.432 551.495 390.657 555.459 Q394.881 559.423 394.881 566.194 Q394.881 573.167 390.541 577.044 Q386.201 580.893 378.301 580.893 Q375.581 580.893 372.746 580.43 Q369.939 579.967 366.93 579.041 L366.93 573.167 Q369.534 574.585 372.312 575.279 Q375.09 575.974 378.186 575.974 Q383.191 575.974 386.114 573.341 Q389.036 570.707 389.036 566.194 Q389.036 561.68 386.114 559.047 Q383.191 556.414 378.186 556.414 Q375.842 556.414 373.498 556.934 Q371.183 557.455 368.753 558.555 L368.753 536.853 Z" fill="#000000" fill-rule="nonzero" fill-opacity="1" /><path clip-path="url(#clip810)" d="M418.897 540.702 Q414.383 540.702 412.097 545.158 Q409.841 549.585 409.841 558.497 Q409.841 567.38 412.097 571.836 Q414.383 576.263 418.897 576.263 Q423.44 576.263 425.697 571.836 Q427.983 567.38 427.983 558.497 Q427.983 549.585 425.697 545.158 Q423.44 540.702 418.897 540.702 M418.897 536.072 Q426.16 536.072 429.979 541.83 Q433.828 547.559 433.828 558.497 Q433.828 569.405 429.979 575.163 Q426.16 580.893 418.897 580.893 Q411.635 580.893 407.786 575.163 Q403.967 569.405 403.967 558.497 Q403.967 547.559 407.786 541.83 Q411.635 536.072 418.897 536.072 Z" fill="#000000" fill-rule="nonzero" fill-opacity="1" /><path clip-path="url(#clip810)" d="M456.6 540.702 Q452.086 540.702 449.8 545.158 Q447.543 549.585 447.543 558.497 Q447.543 567.38 449.8 571.836 Q452.086 576.263 456.6 576.263 Q461.142 576.263 463.399 571.836 Q465.685 567.38 465.685 558.497 Q465.685 549.585 463.399 545.158 Q461.142 540.702 456.6 540.702 M456.6 536.072 Q463.862 536.072 467.682 541.83 Q471.53 547.559 471.53 558.497 Q471.53 569.405 467.682 575.163 Q463.862 580.893 456.6 580.893 Q449.337 580.893 445.489 575.163 Q441.669 569.405 441.669 558.497 Q441.669 547.559 445.489 541.83 Q449.337 536.072 456.6 536.072 Z" fill="#000000" fill-rule="nonzero" fill-opacity="1" /><path clip-path="url(#clip810)" d="M494.302 540.702 Q489.788 540.702 487.502 545.158 Q485.245 549.585 485.245 558.497 Q485.245 567.38 487.502 571.836 Q489.788 576.263 494.302 576.263 Q498.845 576.263 501.102 571.836 Q503.388 567.38 503.388 558.497 Q503.388 549.585 501.102 545.158 Q498.845 540.702 494.302 540.702 M494.302 536.072 Q501.565 536.072 505.384 541.83 Q509.232 547.559 509.232 558.497 Q509.232 569.405 505.384 575.163 Q501.565 580.893 494.302 580.893 Q487.039 580.893 483.191 575.163 Q479.371 569.405 479.371 558.497 Q479.371 547.559 483.191 541.83 Q487.039 536.072 494.302 536.072 Z" fill="#000000" fill-rule="nonzero" fill-opacity="1" /><path clip-path="url(#clip810)" d="M318.985 408.647 L356.079 408.647 L356.079 413.566 L318.985 413.566 L318.985 408.647 Z" fill="#000000" fill-rule="nonzero" fill-opacity="1" /><path clip-path="url(#clip810)" d="M384.754 391.575 L369.997 414.636 L384.754 414.636 L384.754 391.575 M383.22 386.483 L390.57 386.483 L390.57 414.636 L396.733 414.636 L396.733 419.497 L390.57 419.497 L390.57 429.683 L384.754 429.683 L384.754 419.497 L365.252 419.497 L365.252 413.855 L383.22 386.483 Z" fill="#000000" fill-rule="nonzero" fill-opacity="1" /><path clip-path="url(#clip810)" d="M406.571 428.786 L406.571 423.462 Q408.77 424.503 411.027 425.053 Q413.284 425.603 415.454 425.603 Q421.241 425.603 424.279 421.725 Q427.346 417.819 427.78 409.891 Q426.102 412.379 423.527 413.71 Q420.952 415.041 417.827 415.041 Q411.345 415.041 407.555 411.135 Q403.793 407.2 403.793 400.4 Q403.793 393.745 407.728 389.723 Q411.663 385.701 418.203 385.701 Q425.697 385.701 429.632 391.459 Q433.596 397.189 433.596 408.126 Q433.596 418.34 428.735 424.445 Q423.903 430.522 415.714 430.522 Q413.515 430.522 411.258 430.088 Q409.001 429.654 406.571 428.786 M418.203 410.47 Q422.138 410.47 424.424 407.779 Q426.739 405.088 426.739 400.4 Q426.739 395.742 424.424 393.051 Q422.138 390.331 418.203 390.331 Q414.268 390.331 411.953 393.051 Q409.667 395.742 409.667 400.4 Q409.667 405.088 411.953 407.779 Q414.268 410.47 418.203 410.47 Z" fill="#000000" fill-rule="nonzero" fill-opacity="1" /><path clip-path="url(#clip810)" d="M456.6 390.331 Q452.086 390.331 449.8 394.787 Q447.543 399.214 447.543 408.126 Q447.543 417.009 449.8 421.465 Q452.086 425.892 456.6 425.892 Q461.142 425.892 463.399 421.465 Q465.685 417.009 465.685 408.126 Q465.685 399.214 463.399 394.787 Q461.142 390.331 456.6 390.331 M456.6 385.701 Q463.862 385.701 467.682 391.459 Q471.53 397.189 471.53 408.126 Q471.53 419.034 467.682 424.793 Q463.862 430.522 456.6 430.522 Q449.337 430.522 445.489 424.793 Q441.669 419.034 441.669 408.126 Q441.669 397.189 445.489 391.459 Q449.337 385.701 456.6 385.701 Z" fill="#000000" fill-rule="nonzero" fill-opacity="1" /><path clip-path="url(#clip810)" d="M494.302 390.331 Q489.788 390.331 487.502 394.787 Q485.245 399.214 485.245 408.126 Q485.245 417.009 487.502 421.465 Q489.788 425.892 494.302 425.892 Q498.845 425.892 501.102 421.465 Q503.388 417.009 503.388 408.126 Q503.388 399.214 501.102 394.787 Q498.845 390.331 494.302 390.331 M494.302 385.701 Q501.565 385.701 505.384 391.459 Q509.232 397.189 509.232 408.126 Q509.232 419.034 505.384 424.793 Q501.565 430.522 494.302 430.522 Q487.039 430.522 483.191 424.793 Q479.371 419.034 479.371 408.126 Q479.371 397.189 483.191 391.459 Q487.039 385.701 494.302 385.701 Z" fill="#000000" fill-rule="nonzero" fill-opacity="1" /><path clip-path="url(#clip810)" d="M318.985 258.276 L356.079 258.276 L356.079 263.195 L318.985 263.195 L318.985 258.276 Z" fill="#000000" fill-rule="nonzero" fill-opacity="1" /><path clip-path="url(#clip810)" d="M384.754 241.204 L369.997 264.265 L384.754 264.265 L384.754 241.204 M383.22 236.112 L390.57 236.112 L390.57 264.265 L396.733 264.265 L396.733 269.127 L390.57 269.127 L390.57 279.312 L384.754 279.312 L384.754 269.127 L365.252 269.127 L365.252 263.484 L383.22 236.112 Z" fill="#000000" fill-rule="nonzero" fill-opacity="1" /><path clip-path="url(#clip810)" d="M418.897 258.797 Q414.731 258.797 412.329 261.025 Q409.956 263.253 409.956 267.159 Q409.956 271.065 412.329 273.293 Q414.731 275.521 418.897 275.521 Q423.064 275.521 425.465 273.293 Q427.867 271.036 427.867 267.159 Q427.867 263.253 425.465 261.025 Q423.093 258.797 418.897 258.797 M413.052 256.308 Q409.291 255.382 407.179 252.807 Q405.095 250.232 405.095 246.528 Q405.095 241.349 408.77 238.34 Q412.474 235.33 418.897 235.33 Q425.35 235.33 429.024 238.34 Q432.699 241.349 432.699 246.528 Q432.699 250.232 430.587 252.807 Q428.504 255.382 424.771 256.308 Q428.996 257.292 431.339 260.157 Q433.712 263.021 433.712 267.159 Q433.712 273.438 429.864 276.794 Q426.044 280.151 418.897 280.151 Q411.75 280.151 407.902 276.794 Q404.082 273.438 404.082 267.159 Q404.082 263.021 406.455 260.157 Q408.828 257.292 413.052 256.308 M410.911 247.078 Q410.911 250.435 412.994 252.315 Q415.107 254.196 418.897 254.196 Q422.659 254.196 424.771 252.315 Q426.912 250.435 426.912 247.078 Q426.912 243.722 424.771 241.841 Q422.659 239.96 418.897 239.96 Q415.107 239.96 412.994 241.841 Q410.911 243.722 410.911 247.078 Z" fill="#000000" fill-rule="nonzero" fill-opacity="1" /><path clip-path="url(#clip810)" d="M456.6 239.96 Q452.086 239.96 449.8 244.416 Q447.543 248.843 447.543 257.755 Q447.543 266.638 449.8 271.094 Q452.086 275.521 456.6 275.521 Q461.142 275.521 463.399 271.094 Q465.685 266.638 465.685 257.755 Q465.685 248.843 463.399 244.416 Q461.142 239.96 456.6 239.96 M456.6 235.33 Q463.862 235.33 467.682 241.088 Q471.53 246.818 471.53 257.755 Q471.53 268.664 467.682 274.422 Q463.862 280.151 456.6 280.151 Q449.337 280.151 445.489 274.422 Q441.669 268.664 441.669 257.755 Q441.669 246.818 445.489 241.088 Q449.337 235.33 456.6 235.33 Z" fill="#000000" fill-rule="nonzero" fill-opacity="1" /><path clip-path="url(#clip810)" d="M494.302 239.96 Q489.788 239.96 487.502 244.416 Q485.245 248.843 485.245 257.755 Q485.245 266.638 487.502 271.094 Q489.788 275.521 494.302 275.521 Q498.845 275.521 501.102 271.094 Q503.388 266.638 503.388 257.755 Q503.388 248.843 501.102 244.416 Q498.845 239.96 494.302 239.96 M494.302 235.33 Q501.565 235.33 505.384 241.088 Q509.232 246.818 509.232 257.755 Q509.232 268.664 505.384 274.422 Q501.565 280.151 494.302 280.151 Q487.039 280.151 483.191 274.422 Q479.371 268.664 479.371 257.755 Q479.371 246.818 483.191 241.088 Q487.039 235.33 494.302 235.33 Z" fill="#000000" fill-rule="nonzero" fill-opacity="1" /><path clip-path="url(#clip810)" d="M226.492 975.897 L263.445 975.897 L263.445 968.131 Q263.445 958.296 258.989 953.745 Q254.533 949.161 244.921 949.161 Q235.372 949.161 230.948 953.745 Q226.492 958.296 226.492 968.131 L226.492 975.897 M221.209 982.327 L221.209 969.118 Q221.209 955.304 226.97 948.843 Q232.699 942.382 244.921 942.382 Q257.207 942.382 262.968 948.875 Q268.729 955.368 268.729 969.118 L268.729 982.327 L221.209 982.327 Z" fill="#000000" fill-rule="nonzero" fill-opacity="1" /><path clip-path="url(#clip810)" d="M250.809 916.187 Q250.809 923.285 252.432 926.022 Q254.056 928.759 257.971 928.759 Q261.09 928.759 262.936 926.722 Q264.75 924.654 264.75 921.121 Q264.75 916.251 261.313 913.323 Q257.843 910.363 252.114 910.363 L250.809 910.363 L250.809 916.187 M248.39 904.506 L268.729 904.506 L268.729 910.363 L263.318 910.363 Q266.564 912.368 268.124 915.36 Q269.652 918.351 269.652 922.68 Q269.652 928.155 266.596 931.401 Q263.509 934.616 258.352 934.616 Q252.337 934.616 249.281 930.605 Q246.226 926.563 246.226 918.574 L246.226 910.363 L245.653 910.363 Q241.611 910.363 239.414 913.036 Q237.186 915.678 237.186 920.484 Q237.186 923.54 237.919 926.436 Q238.651 929.332 240.115 932.006 L234.704 932.006 Q233.463 928.791 232.858 925.768 Q232.221 922.744 232.221 919.879 Q232.221 912.145 236.232 908.325 Q240.242 904.506 248.39 904.506 Z" fill="#000000" fill-rule="nonzero" fill-opacity="1" /><path clip-path="url(#clip810)" d="M222.959 886.65 L233.081 886.65 L233.081 874.587 L237.632 874.587 L237.632 886.65 L256.984 886.65 Q261.344 886.65 262.586 885.473 Q263.827 884.263 263.827 880.603 L263.827 874.587 L268.729 874.587 L268.729 880.603 Q268.729 887.382 266.214 889.96 Q263.668 892.539 256.984 892.539 L237.632 892.539 L237.632 896.835 L233.081 896.835 L233.081 892.539 L222.959 892.539 L222.959 886.65 Z" fill="#000000" fill-rule="nonzero" fill-opacity="1" /><path clip-path="url(#clip810)" d="M250.809 850.684 Q250.809 857.782 252.432 860.519 Q254.056 863.256 257.971 863.256 Q261.09 863.256 262.936 861.219 Q264.75 859.15 264.75 855.617 Q264.75 850.748 261.313 847.819 Q257.843 844.859 252.114 844.859 L250.809 844.859 L250.809 850.684 M248.39 839.003 L268.729 839.003 L268.729 844.859 L263.318 844.859 Q266.564 846.865 268.124 849.856 Q269.652 852.848 269.652 857.177 Q269.652 862.652 266.596 865.898 Q263.509 869.113 258.352 869.113 Q252.337 869.113 249.281 865.102 Q246.226 861.06 246.226 853.071 L246.226 844.859 L245.653 844.859 Q241.611 844.859 239.414 847.533 Q237.186 850.175 237.186 854.981 Q237.186 858.036 237.919 860.933 Q238.651 863.829 240.115 866.503 L234.704 866.503 Q233.463 863.288 232.858 860.264 Q232.221 857.241 232.221 854.376 Q232.221 846.642 236.232 842.822 Q240.242 839.003 248.39 839.003 Z" fill="#000000" fill-rule="nonzero" fill-opacity="1" /><path clip-path="url(#clip810)" d="M219.203 806.22 L219.203 800.363 L268.729 800.363 L268.729 806.22 L219.203 806.22 Z" fill="#000000" fill-rule="nonzero" fill-opacity="1" /><path clip-path="url(#clip810)" d="M237.186 774.296 Q237.186 779.006 240.879 781.743 Q244.539 784.481 250.936 784.481 Q257.334 784.481 261.026 781.775 Q264.686 779.038 264.686 774.296 Q264.686 769.617 260.994 766.879 Q257.302 764.142 250.936 764.142 Q244.603 764.142 240.91 766.879 Q237.186 769.617 237.186 774.296 M232.221 774.296 Q232.221 766.657 237.186 762.296 Q242.152 757.936 250.936 757.936 Q259.689 757.936 264.686 762.296 Q269.652 766.657 269.652 774.296 Q269.652 781.966 264.686 786.327 Q259.689 790.655 250.936 790.655 Q242.152 790.655 237.186 786.327 Q232.221 781.966 232.221 774.296 Z" fill="#000000" fill-rule="nonzero" fill-opacity="1" /><path clip-path="url(#clip810)" d="M250.491 724.77 Q244.125 724.77 240.624 727.412 Q237.123 730.022 237.123 734.764 Q237.123 739.475 240.624 742.117 Q244.125 744.727 250.491 744.727 Q256.825 744.727 260.326 742.117 Q263.827 739.475 263.827 734.764 Q263.827 730.022 260.326 727.412 Q256.825 724.77 250.491 724.77 M264.304 718.914 Q273.407 718.914 277.832 722.956 Q282.288 726.998 282.288 735.337 Q282.288 738.425 281.81 741.162 Q281.364 743.899 280.41 746.477 L274.712 746.477 Q276.113 743.899 276.781 741.385 Q277.45 738.87 277.45 736.26 Q277.45 730.499 274.426 727.635 Q271.434 724.77 265.355 724.77 L262.458 724.77 Q265.609 726.585 267.169 729.417 Q268.729 732.25 268.729 736.197 Q268.729 742.753 263.731 746.764 Q258.734 750.774 250.491 750.774 Q242.215 750.774 237.218 746.764 Q232.221 742.753 232.221 736.197 Q232.221 732.25 233.781 729.417 Q235.34 726.585 238.491 724.77 L233.081 724.77 L233.081 718.914 L264.304 718.914 Z" fill="#000000" fill-rule="nonzero" fill-opacity="1" /><path clip-path="url(#clip810)" d="M248.263 709.811 L248.263 692.655 L253.483 692.655 L253.483 709.811 L248.263 709.811 Z" fill="#000000" fill-rule="nonzero" fill-opacity="1" /><path clip-path="url(#clip810)" d="M219.203 683.33 L219.203 677.473 L268.729 677.473 L268.729 683.33 L219.203 683.33 Z" fill="#000000" fill-rule="nonzero" fill-opacity="1" /><path clip-path="url(#clip810)" d="M233.081 665.219 L233.081 659.363 L268.729 659.363 L268.729 665.219 L233.081 665.219 M219.203 665.219 L219.203 659.363 L226.619 659.363 L226.619 665.219 L219.203 665.219 Z" fill="#000000" fill-rule="nonzero" fill-opacity="1" /><path clip-path="url(#clip810)" d="M219.203 647.332 L219.203 641.443 L248.454 641.443 L233.081 623.969 L233.081 616.49 L249.759 635.396 L268.729 615.694 L268.729 623.333 L251.318 641.443 L268.729 641.443 L268.729 647.332 L219.203 647.332 Z" fill="#000000" fill-rule="nonzero" fill-opacity="1" /><path clip-path="url(#clip810)" d="M249.44 581.192 L252.305 581.192 L252.305 608.119 Q258.352 607.737 261.535 604.49 Q264.686 601.212 264.686 595.387 Q264.686 592.014 263.859 588.863 Q263.031 585.68 261.376 582.56 L266.914 582.56 Q268.251 585.711 268.951 589.022 Q269.652 592.332 269.652 595.737 Q269.652 604.268 264.686 609.265 Q259.721 614.23 251.255 614.23 Q242.502 614.23 237.377 609.519 Q232.221 604.777 232.221 596.756 Q232.221 589.563 236.868 585.393 Q241.483 581.192 249.44 581.192 M247.722 587.048 Q242.916 587.112 240.051 589.754 Q237.186 592.364 237.186 596.692 Q237.186 601.594 239.956 604.554 Q242.725 607.482 247.754 607.928 L247.722 587.048 Z" fill="#000000" fill-rule="nonzero" fill-opacity="1" /><path clip-path="url(#clip810)" d="M219.203 571.58 L219.203 565.723 L268.729 565.723 L268.729 571.58 L219.203 571.58 Z" fill="#000000" fill-rule="nonzero" fill-opacity="1" /><path clip-path="url(#clip810)" d="M233.081 553.469 L233.081 547.613 L268.729 547.613 L268.729 553.469 L233.081 553.469 M219.203 553.469 L219.203 547.613 L226.619 547.613 L226.619 553.469 L219.203 553.469 Z" fill="#000000" fill-rule="nonzero" fill-opacity="1" /><path clip-path="url(#clip810)" d="M247.212 505.726 L268.729 505.726 L268.729 511.583 L247.403 511.583 Q242.343 511.583 239.828 513.556 Q237.314 515.53 237.314 519.476 Q237.314 524.219 240.338 526.956 Q243.361 529.693 248.581 529.693 L268.729 529.693 L268.729 535.582 L219.203 535.582 L219.203 529.693 L238.619 529.693 Q235.404 527.593 233.813 524.76 Q232.221 521.895 232.221 518.171 Q232.221 512.028 236.041 508.877 Q239.828 505.726 247.212 505.726 Z" fill="#000000" fill-rule="nonzero" fill-opacity="1" /><path clip-path="url(#clip810)" d="M237.186 480.232 Q237.186 484.942 240.879 487.68 Q244.539 490.417 250.936 490.417 Q257.334 490.417 261.026 487.711 Q264.686 484.974 264.686 480.232 Q264.686 475.553 260.994 472.816 Q257.302 470.078 250.936 470.078 Q244.603 470.078 240.91 472.816 Q237.186 475.553 237.186 480.232 M232.221 480.232 Q232.221 472.593 237.186 468.232 Q242.152 463.872 250.936 463.872 Q259.689 463.872 264.686 468.232 Q269.652 472.593 269.652 480.232 Q269.652 487.902 264.686 492.263 Q259.689 496.592 250.936 496.592 Q242.152 496.592 237.186 492.263 Q232.221 487.902 232.221 480.232 Z" fill="#000000" fill-rule="nonzero" fill-opacity="1" /><path clip-path="url(#clip810)" d="M237.186 440.351 Q237.186 445.061 240.879 447.798 Q244.539 450.536 250.936 450.536 Q257.334 450.536 261.026 447.83 Q264.686 445.093 264.686 440.351 Q264.686 435.672 260.994 432.935 Q257.302 430.197 250.936 430.197 Q244.603 430.197 240.91 432.935 Q237.186 435.672 237.186 440.351 M232.221 440.351 Q232.221 432.712 237.186 428.351 Q242.152 423.991 250.936 423.991 Q259.689 423.991 264.686 428.351 Q269.652 432.712 269.652 440.351 Q269.652 448.021 264.686 452.382 Q259.689 456.71 250.936 456.71 Q242.152 456.71 237.186 452.382 Q232.221 448.021 232.221 440.351 Z" fill="#000000" fill-rule="nonzero" fill-opacity="1" /><path clip-path="url(#clip810)" d="M238.491 390.825 L219.203 390.825 L219.203 384.969 L268.729 384.969 L268.729 390.825 L263.381 390.825 Q266.564 392.671 268.124 395.504 Q269.652 398.305 269.652 402.252 Q269.652 408.713 264.495 412.787 Q259.339 416.829 250.936 416.829 Q242.534 416.829 237.377 412.787 Q232.221 408.713 232.221 402.252 Q232.221 398.305 233.781 395.504 Q235.309 392.671 238.491 390.825 M250.936 410.782 Q257.398 410.782 261.09 408.14 Q264.75 405.466 264.75 400.82 Q264.75 396.173 261.09 393.499 Q257.398 390.825 250.936 390.825 Q244.475 390.825 240.815 393.499 Q237.123 396.173 237.123 400.82 Q237.123 405.466 240.815 408.14 Q244.475 410.782 250.936 410.782 Z" fill="#000000" fill-rule="nonzero" fill-opacity="1" /><polyline clip-path="url(#clip812)" style="stroke:#000080; stroke-linecap:round; stroke-linejoin:round; stroke-width:8; stroke-opacity:1; fill:none" points="594.16,1209.75 621.803,680.636 649.446,591.328 677.089,542.872 704.732,508.771 732.374,481.426 760.017,457.793 787.66,436.461 815.303,416.716 842.946,398.195 870.589,380.758 898.231,364.394 925.874,349.111 953.517,334.782 981.16,321.057 1008.8,307.498 1036.45,294.061 1064.09,281.51 1091.73,270.665 1119.37,261.653 1147.02,254.189 1174.66,247.917 1202.3,242.53 1229.95,237.815 1257.59,233.65 1285.23,229.958 1312.87,226.663 1340.52,223.692 1368.16,220.984 1395.8,218.49 1423.45,216.168 1451.09,213.982 1478.73,211.9 1506.37,209.89 1534.02,207.925 1561.66,205.979 1589.3,204.029 1616.95,202.057 1644.59,200.043 1672.23,197.971 1699.87,195.828 1727.52,193.597 1755.16,191.265 1782.8,188.818 1810.45,186.25 1838.09,183.567 1865.73,180.804 1893.37,178.032 1921.02,175.335 1948.66,172.779 1976.3,170.41 2003.95,168.251 2031.59,166.311 2059.23,164.585 2086.87,163.06 2114.52,161.714 2142.16,160.519 2169.8,159.446 2197.45,158.466 2225.09,157.55 "/>
<circle clip-path="url(#clip812)" cx="594.16" cy="1209.75" r="10.8" fill="#000080" fill-rule="evenodd" fill-opacity="1" stroke="#000000" stroke-opacity="1" stroke-width="3.2"/>
<circle clip-path="url(#clip812)" cx="621.803" cy="680.636" r="10.8" fill="#000080" fill-rule="evenodd" fill-opacity="1" stroke="#000000" stroke-opacity="1" stroke-width="3.2"/>
<circle clip-path="url(#clip812)" cx="649.446" cy="591.328" r="10.8" fill="#000080" fill-rule="evenodd" fill-opacity="1" stroke="#000000" stroke-opacity="1" stroke-width="3.2"/>
<circle clip-path="url(#clip812)" cx="677.089" cy="542.872" r="10.8" fill="#000080" fill-rule="evenodd" fill-opacity="1" stroke="#000000" stroke-opacity="1" stroke-width="3.2"/>
<circle clip-path="url(#clip812)" cx="704.732" cy="508.771" r="10.8" fill="#000080" fill-rule="evenodd" fill-opacity="1" stroke="#000000" stroke-opacity="1" stroke-width="3.2"/>
<circle clip-path="url(#clip812)" cx="732.374" cy="481.426" r="10.8" fill="#000080" fill-rule="evenodd" fill-opacity="1" stroke="#000000" stroke-opacity="1" stroke-width="3.2"/>
<circle clip-path="url(#clip812)" cx="760.017" cy="457.793" r="10.8" fill="#000080" fill-rule="evenodd" fill-opacity="1" stroke="#000000" stroke-opacity="1" stroke-width="3.2"/>
<circle clip-path="url(#clip812)" cx="787.66" cy="436.461" r="10.8" fill="#000080" fill-rule="evenodd" fill-opacity="1" stroke="#000000" stroke-opacity="1" stroke-width="3.2"/>
<circle clip-path="url(#clip812)" cx="815.303" cy="416.716" r="10.8" fill="#000080" fill-rule="evenodd" fill-opacity="1" stroke="#000000" stroke-opacity="1" stroke-width="3.2"/>
<circle clip-path="url(#clip812)" cx="842.946" cy="398.195" r="10.8" fill="#000080" fill-rule="evenodd" fill-opacity="1" stroke="#000000" stroke-opacity="1" stroke-width="3.2"/>
<circle clip-path="url(#clip812)" cx="870.589" cy="380.758" r="10.8" fill="#000080" fill-rule="evenodd" fill-opacity="1" stroke="#000000" stroke-opacity="1" stroke-width="3.2"/>
<circle clip-path="url(#clip812)" cx="898.231" cy="364.394" r="10.8" fill="#000080" fill-rule="evenodd" fill-opacity="1" stroke="#000000" stroke-opacity="1" stroke-width="3.2"/>
<circle clip-path="url(#clip812)" cx="925.874" cy="349.111" r="10.8" fill="#000080" fill-rule="evenodd" fill-opacity="1" stroke="#000000" stroke-opacity="1" stroke-width="3.2"/>
<circle clip-path="url(#clip812)" cx="953.517" cy="334.782" r="10.8" fill="#000080" fill-rule="evenodd" fill-opacity="1" stroke="#000000" stroke-opacity="1" stroke-width="3.2"/>
<circle clip-path="url(#clip812)" cx="981.16" cy="321.057" r="10.8" fill="#000080" fill-rule="evenodd" fill-opacity="1" stroke="#000000" stroke-opacity="1" stroke-width="3.2"/>
<circle clip-path="url(#clip812)" cx="1008.8" cy="307.498" r="10.8" fill="#000080" fill-rule="evenodd" fill-opacity="1" stroke="#000000" stroke-opacity="1" stroke-width="3.2"/>
<circle clip-path="url(#clip812)" cx="1036.45" cy="294.061" r="10.8" fill="#000080" fill-rule="evenodd" fill-opacity="1" stroke="#000000" stroke-opacity="1" stroke-width="3.2"/>
<circle clip-path="url(#clip812)" cx="1064.09" cy="281.51" r="10.8" fill="#000080" fill-rule="evenodd" fill-opacity="1" stroke="#000000" stroke-opacity="1" stroke-width="3.2"/>
<circle clip-path="url(#clip812)" cx="1091.73" cy="270.665" r="10.8" fill="#000080" fill-rule="evenodd" fill-opacity="1" stroke="#000000" stroke-opacity="1" stroke-width="3.2"/>
<circle clip-path="url(#clip812)" cx="1119.37" cy="261.653" r="10.8" fill="#000080" fill-rule="evenodd" fill-opacity="1" stroke="#000000" stroke-opacity="1" stroke-width="3.2"/>
<circle clip-path="url(#clip812)" cx="1147.02" cy="254.189" r="10.8" fill="#000080" fill-rule="evenodd" fill-opacity="1" stroke="#000000" stroke-opacity="1" stroke-width="3.2"/>
<circle clip-path="url(#clip812)" cx="1174.66" cy="247.917" r="10.8" fill="#000080" fill-rule="evenodd" fill-opacity="1" stroke="#000000" stroke-opacity="1" stroke-width="3.2"/>
<circle clip-path="url(#clip812)" cx="1202.3" cy="242.53" r="10.8" fill="#000080" fill-rule="evenodd" fill-opacity="1" stroke="#000000" stroke-opacity="1" stroke-width="3.2"/>
<circle clip-path="url(#clip812)" cx="1229.95" cy="237.815" r="10.8" fill="#000080" fill-rule="evenodd" fill-opacity="1" stroke="#000000" stroke-opacity="1" stroke-width="3.2"/>
<circle clip-path="url(#clip812)" cx="1257.59" cy="233.65" r="10.8" fill="#000080" fill-rule="evenodd" fill-opacity="1" stroke="#000000" stroke-opacity="1" stroke-width="3.2"/>
<circle clip-path="url(#clip812)" cx="1285.23" cy="229.958" r="10.8" fill="#000080" fill-rule="evenodd" fill-opacity="1" stroke="#000000" stroke-opacity="1" stroke-width="3.2"/>
<circle clip-path="url(#clip812)" cx="1312.87" cy="226.663" r="10.8" fill="#000080" fill-rule="evenodd" fill-opacity="1" stroke="#000000" stroke-opacity="1" stroke-width="3.2"/>
<circle clip-path="url(#clip812)" cx="1340.52" cy="223.692" r="10.8" fill="#000080" fill-rule="evenodd" fill-opacity="1" stroke="#000000" stroke-opacity="1" stroke-width="3.2"/>
<circle clip-path="url(#clip812)" cx="1368.16" cy="220.984" r="10.8" fill="#000080" fill-rule="evenodd" fill-opacity="1" stroke="#000000" stroke-opacity="1" stroke-width="3.2"/>
<circle clip-path="url(#clip812)" cx="1395.8" cy="218.49" r="10.8" fill="#000080" fill-rule="evenodd" fill-opacity="1" stroke="#000000" stroke-opacity="1" stroke-width="3.2"/>
<circle clip-path="url(#clip812)" cx="1423.45" cy="216.168" r="10.8" fill="#000080" fill-rule="evenodd" fill-opacity="1" stroke="#000000" stroke-opacity="1" stroke-width="3.2"/>
<circle clip-path="url(#clip812)" cx="1451.09" cy="213.982" r="10.8" fill="#000080" fill-rule="evenodd" fill-opacity="1" stroke="#000000" stroke-opacity="1" stroke-width="3.2"/>
<circle clip-path="url(#clip812)" cx="1478.73" cy="211.9" r="10.8" fill="#000080" fill-rule="evenodd" fill-opacity="1" stroke="#000000" stroke-opacity="1" stroke-width="3.2"/>
<circle clip-path="url(#clip812)" cx="1506.37" cy="209.89" r="10.8" fill="#000080" fill-rule="evenodd" fill-opacity="1" stroke="#000000" stroke-opacity="1" stroke-width="3.2"/>
<circle clip-path="url(#clip812)" cx="1534.02" cy="207.925" r="10.8" fill="#000080" fill-rule="evenodd" fill-opacity="1" stroke="#000000" stroke-opacity="1" stroke-width="3.2"/>
<circle clip-path="url(#clip812)" cx="1561.66" cy="205.979" r="10.8" fill="#000080" fill-rule="evenodd" fill-opacity="1" stroke="#000000" stroke-opacity="1" stroke-width="3.2"/>
<circle clip-path="url(#clip812)" cx="1589.3" cy="204.029" r="10.8" fill="#000080" fill-rule="evenodd" fill-opacity="1" stroke="#000000" stroke-opacity="1" stroke-width="3.2"/>
<circle clip-path="url(#clip812)" cx="1616.95" cy="202.057" r="10.8" fill="#000080" fill-rule="evenodd" fill-opacity="1" stroke="#000000" stroke-opacity="1" stroke-width="3.2"/>
<circle clip-path="url(#clip812)" cx="1644.59" cy="200.043" r="10.8" fill="#000080" fill-rule="evenodd" fill-opacity="1" stroke="#000000" stroke-opacity="1" stroke-width="3.2"/>
<circle clip-path="url(#clip812)" cx="1672.23" cy="197.971" r="10.8" fill="#000080" fill-rule="evenodd" fill-opacity="1" stroke="#000000" stroke-opacity="1" stroke-width="3.2"/>
<circle clip-path="url(#clip812)" cx="1699.87" cy="195.828" r="10.8" fill="#000080" fill-rule="evenodd" fill-opacity="1" stroke="#000000" stroke-opacity="1" stroke-width="3.2"/>
<circle clip-path="url(#clip812)" cx="1727.52" cy="193.597" r="10.8" fill="#000080" fill-rule="evenodd" fill-opacity="1" stroke="#000000" stroke-opacity="1" stroke-width="3.2"/>
<circle clip-path="url(#clip812)" cx="1755.16" cy="191.265" r="10.8" fill="#000080" fill-rule="evenodd" fill-opacity="1" stroke="#000000" stroke-opacity="1" stroke-width="3.2"/>
<circle clip-path="url(#clip812)" cx="1782.8" cy="188.818" r="10.8" fill="#000080" fill-rule="evenodd" fill-opacity="1" stroke="#000000" stroke-opacity="1" stroke-width="3.2"/>
<circle clip-path="url(#clip812)" cx="1810.45" cy="186.25" r="10.8" fill="#000080" fill-rule="evenodd" fill-opacity="1" stroke="#000000" stroke-opacity="1" stroke-width="3.2"/>
<circle clip-path="url(#clip812)" cx="1838.09" cy="183.567" r="10.8" fill="#000080" fill-rule="evenodd" fill-opacity="1" stroke="#000000" stroke-opacity="1" stroke-width="3.2"/>
<circle clip-path="url(#clip812)" cx="1865.73" cy="180.804" r="10.8" fill="#000080" fill-rule="evenodd" fill-opacity="1" stroke="#000000" stroke-opacity="1" stroke-width="3.2"/>
<circle clip-path="url(#clip812)" cx="1893.37" cy="178.032" r="10.8" fill="#000080" fill-rule="evenodd" fill-opacity="1" stroke="#000000" stroke-opacity="1" stroke-width="3.2"/>
<circle clip-path="url(#clip812)" cx="1921.02" cy="175.335" r="10.8" fill="#000080" fill-rule="evenodd" fill-opacity="1" stroke="#000000" stroke-opacity="1" stroke-width="3.2"/>
<circle clip-path="url(#clip812)" cx="1948.66" cy="172.779" r="10.8" fill="#000080" fill-rule="evenodd" fill-opacity="1" stroke="#000000" stroke-opacity="1" stroke-width="3.2"/>
<circle clip-path="url(#clip812)" cx="1976.3" cy="170.41" r="10.8" fill="#000080" fill-rule="evenodd" fill-opacity="1" stroke="#000000" stroke-opacity="1" stroke-width="3.2"/>
<circle clip-path="url(#clip812)" cx="2003.95" cy="168.251" r="10.8" fill="#000080" fill-rule="evenodd" fill-opacity="1" stroke="#000000" stroke-opacity="1" stroke-width="3.2"/>
<circle clip-path="url(#clip812)" cx="2031.59" cy="166.311" r="10.8" fill="#000080" fill-rule="evenodd" fill-opacity="1" stroke="#000000" stroke-opacity="1" stroke-width="3.2"/>
<circle clip-path="url(#clip812)" cx="2059.23" cy="164.585" r="10.8" fill="#000080" fill-rule="evenodd" fill-opacity="1" stroke="#000000" stroke-opacity="1" stroke-width="3.2"/>
<circle clip-path="url(#clip812)" cx="2086.87" cy="163.06" r="10.8" fill="#000080" fill-rule="evenodd" fill-opacity="1" stroke="#000000" stroke-opacity="1" stroke-width="3.2"/>
<circle clip-path="url(#clip812)" cx="2114.52" cy="161.714" r="10.8" fill="#000080" fill-rule="evenodd" fill-opacity="1" stroke="#000000" stroke-opacity="1" stroke-width="3.2"/>
<circle clip-path="url(#clip812)" cx="2142.16" cy="160.519" r="10.8" fill="#000080" fill-rule="evenodd" fill-opacity="1" stroke="#000000" stroke-opacity="1" stroke-width="3.2"/>
<circle clip-path="url(#clip812)" cx="2169.8" cy="159.446" r="10.8" fill="#000080" fill-rule="evenodd" fill-opacity="1" stroke="#000000" stroke-opacity="1" stroke-width="3.2"/>
<circle clip-path="url(#clip812)" cx="2197.45" cy="158.466" r="10.8" fill="#000080" fill-rule="evenodd" fill-opacity="1" stroke="#000000" stroke-opacity="1" stroke-width="3.2"/>
<circle clip-path="url(#clip812)" cx="2225.09" cy="157.55" r="10.8" fill="#000080" fill-rule="evenodd" fill-opacity="1" stroke="#000000" stroke-opacity="1" stroke-width="3.2"/>
</svg>
