<?xml version="1.0" encoding="utf-8"?>
<svg xmlns="http://www.w3.org/2000/svg" xmlns:xlink="http://www.w3.org/1999/xlink" width="700" height="500" viewBox="0 0 2800 2000">
<defs>
  <clipPath id="clip240">
    <rect x="0" y="0" width="2800" height="2000"/>
  </clipPath>
</defs>
<path clip-path="url(#clip240)" d="M0 2000 L2800 2000 L2800 -4.44089e-14 L0 -4.44089e-14  Z" fill="#ffffff" fill-rule="evenodd" fill-opacity="1"/>
<defs>
  <clipPath id="clip241">
    <rect x="448" y="125" width="2226" height="1506"/>
  </clipPath>
</defs>
<path clip-path="url(#clip240)" d="M448.779 1630.83 L2674.02 1630.83 L2674.02 125.984 L448.779 125.984  Z" fill="#ffffff" fill-rule="evenodd" fill-opacity="1"/>
<polyline clip-path="url(#clip241)" style="stroke:#000000; stroke-linecap:round; stroke-linejoin:round; stroke-width:2; stroke-opacity:0.1; fill:none" points="503.394,1630.83 503.394,125.984 "/>
<polyline clip-path="url(#clip241)" style="stroke:#000000; stroke-linecap:round; stroke-linejoin:round; stroke-width:2; stroke-opacity:0.1; fill:none" points="921.577,1630.83 921.577,125.984 "/>
<polyline clip-path="url(#clip241)" style="stroke:#000000; stroke-linecap:round; stroke-linejoin:round; stroke-width:2; stroke-opacity:0.1; fill:none" points="1339.76,1630.83 1339.76,125.984 "/>
<polyline clip-path="url(#clip241)" style="stroke:#000000; stroke-linecap:round; stroke-linejoin:round; stroke-width:2; stroke-opacity:0.1; fill:none" points="1757.94,1630.83 1757.94,125.984 "/>
<polyline clip-path="url(#clip241)" style="stroke:#000000; stroke-linecap:round; stroke-linejoin:round; stroke-width:2; stroke-opacity:0.1; fill:none" points="2176.13,1630.83 2176.13,125.984 "/>
<polyline clip-path="url(#clip241)" style="stroke:#000000; stroke-linecap:round; stroke-linejoin:round; stroke-width:2; stroke-opacity:0.1; fill:none" points="2594.31,1630.83 2594.31,125.984 "/>
<polyline clip-path="url(#clip241)" style="stroke:#000000; stroke-linecap:round; stroke-linejoin:round; stroke-width:2; stroke-opacity:0.1; fill:none" points="448.779,1402.24 2674.02,1402.24 "/>
<polyline clip-path="url(#clip241)" style="stroke:#000000; stroke-linecap:round; stroke-linejoin:round; stroke-width:2; stroke-opacity:0.1; fill:none" points="448.779,1050.25 2674.02,1050.25 "/>
<polyline clip-path="url(#clip241)" style="stroke:#000000; stroke-linecap:round; stroke-linejoin:round; stroke-width:2; stroke-opacity:0.1; fill:none" points="448.779,698.263 2674.02,698.263 "/>
<polyline clip-path="url(#clip241)" style="stroke:#000000; stroke-linecap:round; stroke-linejoin:round; stroke-width:2; stroke-opacity:0.1; fill:none" points="448.779,346.276 2674.02,346.276 "/>
<polyline clip-path="url(#clip240)" style="stroke:#000000; stroke-linecap:round; stroke-linejoin:round; stroke-width:4; stroke-opacity:1; fill:none" points="448.779,1630.83 2674.02,1630.83 "/>
<polyline clip-path="url(#clip240)" style="stroke:#000000; stroke-linecap:round; stroke-linejoin:round; stroke-width:4; stroke-opacity:1; fill:none" points="503.394,1630.83 503.394,1611.93 "/>
<polyline clip-path="url(#clip240)" style="stroke:#000000; stroke-linecap:round; stroke-linejoin:round; stroke-width:4; stroke-opacity:1; fill:none" points="921.577,1630.83 921.577,1611.93 "/>
<polyline clip-path="url(#clip240)" style="stroke:#000000; stroke-linecap:round; stroke-linejoin:round; stroke-width:4; stroke-opacity:1; fill:none" points="1339.76,1630.83 1339.76,1611.93 "/>
<polyline clip-path="url(#clip240)" style="stroke:#000000; stroke-linecap:round; stroke-linejoin:round; stroke-width:4; stroke-opacity:1; fill:none" points="1757.94,1630.83 1757.94,1611.93 "/>
<polyline clip-path="url(#clip240)" style="stroke:#000000; stroke-linecap:round; stroke-linejoin:round; stroke-width:4; stroke-opacity:1; fill:none" points="2176.13,1630.83 2176.13,1611.93 "/>
<polyline clip-path="url(#clip240)" style="stroke:#000000; stroke-linecap:round; stroke-linejoin:round; stroke-width:4; stroke-opacity:1; fill:none" points="2594.31,1630.83 2594.31,1611.93 "/>
<path clip-path="url(#clip240)" d="M503.394 1667.88 Q498.88 1667.88 496.594 1672.34 Q494.337 1676.76 494.337 1685.67 Q494.337 1694.56 496.594 1699.01 Q498.88 1703.44 503.394 1703.44 Q507.936 1703.44 510.193 1699.01 Q512.479 1694.56 512.479 1685.67 Q512.479 1676.76 510.193 1672.34 Q507.936 1667.88 503.394 1667.88 M503.394 1663.25 Q510.656 1663.25 514.476 1669.01 Q518.324 1674.74 518.324 1685.67 Q518.324 1696.58 514.476 1702.34 Q510.656 1708.07 503.394 1708.07 Q496.131 1708.07 492.283 1702.34 Q488.463 1696.58 488.463 1685.67 Q488.463 1674.74 492.283 1669.01 Q496.131 1663.25 503.394 1663.25 Z" fill="#000000" fill-rule="nonzero" fill-opacity="1" /><path clip-path="url(#clip240)" d="M889.951 1664.03 L912.896 1664.03 L912.896 1668.95 L895.304 1668.95 L895.304 1679.54 Q896.577 1679.11 897.85 1678.9 Q899.123 1678.67 900.396 1678.67 Q907.63 1678.67 911.855 1682.64 Q916.079 1686.6 916.079 1693.37 Q916.079 1700.34 911.739 1704.22 Q907.399 1708.07 899.499 1708.07 Q896.78 1708.07 893.944 1707.61 Q891.137 1707.14 888.128 1706.22 L888.128 1700.34 Q890.732 1701.76 893.51 1702.46 Q896.288 1703.15 899.384 1703.15 Q904.389 1703.15 907.312 1700.52 Q910.234 1697.89 910.234 1693.37 Q910.234 1688.86 907.312 1686.22 Q904.389 1683.59 899.384 1683.59 Q897.04 1683.59 894.696 1684.11 Q892.381 1684.63 889.951 1685.73 L889.951 1664.03 Z" fill="#000000" fill-rule="nonzero" fill-opacity="1" /><path clip-path="url(#clip240)" d="M940.095 1667.88 Q935.581 1667.88 933.296 1672.34 Q931.039 1676.76 931.039 1685.67 Q931.039 1694.56 933.296 1699.01 Q935.581 1703.44 940.095 1703.44 Q944.638 1703.44 946.895 1699.01 Q949.181 1694.56 949.181 1685.67 Q949.181 1676.76 946.895 1672.34 Q944.638 1667.88 940.095 1667.88 M940.095 1663.25 Q947.358 1663.25 951.177 1669.01 Q955.026 1674.74 955.026 1685.67 Q955.026 1696.58 951.177 1702.34 Q947.358 1708.07 940.095 1708.07 Q932.833 1708.07 928.984 1702.34 Q925.165 1696.58 925.165 1685.67 Q925.165 1674.74 928.984 1669.01 Q932.833 1663.25 940.095 1663.25 Z" fill="#000000" fill-rule="nonzero" fill-opacity="1" /><path clip-path="url(#clip240)" d="M1289.27 1702.31 L1298.82 1702.31 L1298.82 1669.36 L1288.43 1671.44 L1288.43 1666.11 L1298.76 1664.03 L1304.6 1664.03 L1304.6 1702.31 L1314.15 1702.31 L1314.15 1707.23 L1289.27 1707.23 L1289.27 1702.31 Z" fill="#000000" fill-rule="nonzero" fill-opacity="1" /><path clip-path="url(#clip240)" d="M1338.46 1667.88 Q1333.94 1667.88 1331.66 1672.34 Q1329.4 1676.76 1329.4 1685.67 Q1329.4 1694.56 1331.66 1699.01 Q1333.94 1703.44 1338.46 1703.44 Q1343 1703.44 1345.26 1699.01 Q1347.54 1694.56 1347.54 1685.67 Q1347.54 1676.76 1345.26 1672.34 Q1343 1667.88 1338.46 1667.88 M1338.46 1663.25 Q1345.72 1663.25 1349.54 1669.01 Q1353.39 1674.74 1353.39 1685.67 Q1353.39 1696.58 1349.54 1702.34 Q1345.72 1708.07 1338.46 1708.07 Q1331.2 1708.07 1327.35 1702.34 Q1323.53 1696.58 1323.53 1685.67 Q1323.53 1674.74 1327.35 1669.01 Q1331.2 1663.25 1338.46 1663.25 Z" fill="#000000" fill-rule="nonzero" fill-opacity="1" /><path clip-path="url(#clip240)" d="M1376.16 1667.88 Q1371.65 1667.88 1369.36 1672.34 Q1367.1 1676.76 1367.1 1685.67 Q1367.1 1694.56 1369.36 1699.01 Q1371.65 1703.44 1376.16 1703.44 Q1380.7 1703.44 1382.96 1699.01 Q1385.25 1694.56 1385.25 1685.67 Q1385.25 1676.76 1382.96 1672.34 Q1380.7 1667.88 1376.16 1667.88 M1376.16 1663.25 Q1383.42 1663.25 1387.24 1669.01 Q1391.09 1674.74 1391.09 1685.67 Q1391.09 1696.58 1387.24 1702.34 Q1383.42 1708.07 1376.16 1708.07 Q1368.9 1708.07 1365.05 1702.34 Q1361.23 1696.58 1361.23 1685.67 Q1361.23 1674.74 1365.05 1669.01 Q1368.9 1663.25 1376.16 1663.25 Z" fill="#000000" fill-rule="nonzero" fill-opacity="1" /><path clip-path="url(#clip240)" d="M1707.45 1702.31 L1717 1702.31 L1717 1669.36 L1706.61 1671.44 L1706.61 1666.11 L1716.94 1664.03 L1722.79 1664.03 L1722.79 1702.31 L1732.34 1702.31 L1732.34 1707.23 L1707.45 1707.23 L1707.45 1702.31 Z" fill="#000000" fill-rule="nonzero" fill-opacity="1" /><path clip-path="url(#clip240)" d="M1744.2 1664.03 L1767.14 1664.03 L1767.14 1668.95 L1749.55 1668.95 L1749.55 1679.54 Q1750.83 1679.11 1752.1 1678.9 Q1753.37 1678.67 1754.64 1678.67 Q1761.88 1678.67 1766.1 1682.64 Q1770.33 1686.6 1770.33 1693.37 Q1770.33 1700.34 1765.99 1704.22 Q1761.65 1708.07 1753.75 1708.07 Q1751.03 1708.07 1748.19 1707.61 Q1745.39 1707.14 1742.38 1706.22 L1742.38 1700.34 Q1744.98 1701.76 1747.76 1702.46 Q1750.54 1703.15 1753.63 1703.15 Q1758.64 1703.15 1761.56 1700.52 Q1764.48 1697.89 1764.48 1693.37 Q1764.48 1688.86 1761.56 1686.22 Q1758.64 1683.59 1753.63 1683.59 Q1751.29 1683.59 1748.94 1684.11 Q1746.63 1684.63 1744.2 1685.73 L1744.2 1664.03 Z" fill="#000000" fill-rule="nonzero" fill-opacity="1" /><path clip-path="url(#clip240)" d="M1794.34 1667.88 Q1789.83 1667.88 1787.54 1672.34 Q1785.29 1676.76 1785.29 1685.67 Q1785.29 1694.56 1787.54 1699.01 Q1789.83 1703.44 1794.34 1703.44 Q1798.89 1703.44 1801.14 1699.01 Q1803.43 1694.56 1803.43 1685.67 Q1803.43 1676.76 1801.14 1672.34 Q1798.89 1667.88 1794.34 1667.88 M1794.34 1663.25 Q1801.61 1663.25 1805.43 1669.01 Q1809.27 1674.74 1809.27 1685.67 Q1809.27 1696.58 1805.43 1702.34 Q1801.61 1708.07 1794.34 1708.07 Q1787.08 1708.07 1783.23 1702.34 Q1779.41 1696.58 1779.41 1685.67 Q1779.41 1674.74 1783.23 1669.01 Q1787.08 1663.25 1794.34 1663.25 Z" fill="#000000" fill-rule="nonzero" fill-opacity="1" /><path clip-path="url(#clip240)" d="M2130.74 1702.31 L2151.14 1702.31 L2151.14 1707.23 L2123.71 1707.23 L2123.71 1702.31 Q2127.04 1698.87 2132.77 1693.08 Q2138.53 1687.27 2140 1685.59 Q2142.81 1682.43 2143.91 1680.26 Q2145.04 1678.06 2145.04 1675.95 Q2145.04 1672.51 2142.61 1670.34 Q2140.2 1668.17 2136.33 1668.17 Q2133.58 1668.17 2130.51 1669.12 Q2127.47 1670.08 2124 1672.02 L2124 1666.11 Q2127.53 1664.7 2130.6 1663.97 Q2133.66 1663.25 2136.21 1663.25 Q2142.92 1663.25 2146.92 1666.61 Q2150.91 1669.96 2150.91 1675.58 Q2150.91 1678.24 2149.9 1680.64 Q2148.91 1683.01 2146.28 1686.25 Q2145.56 1687.09 2141.68 1691.11 Q2137.8 1695.11 2130.74 1702.31 Z" fill="#000000" fill-rule="nonzero" fill-opacity="1" /><path clip-path="url(#clip240)" d="M2175.91 1667.88 Q2171.4 1667.88 2169.11 1672.34 Q2166.85 1676.76 2166.85 1685.67 Q2166.85 1694.56 2169.11 1699.01 Q2171.4 1703.44 2175.91 1703.44 Q2180.45 1703.44 2182.71 1699.01 Q2185 1694.56 2185 1685.67 Q2185 1676.76 2182.71 1672.34 Q2180.45 1667.88 2175.91 1667.88 M2175.91 1663.25 Q2183.17 1663.25 2186.99 1669.01 Q2190.84 1674.74 2190.84 1685.67 Q2190.84 1696.58 2186.99 1702.34 Q2183.17 1708.07 2175.91 1708.07 Q2168.65 1708.07 2164.8 1702.34 Q2160.98 1696.58 2160.98 1685.67 Q2160.98 1674.74 2164.8 1669.01 Q2168.65 1663.25 2175.91 1663.25 Z" fill="#000000" fill-rule="nonzero" fill-opacity="1" /><path clip-path="url(#clip240)" d="M2213.61 1667.88 Q2209.1 1667.88 2206.81 1672.34 Q2204.56 1676.76 2204.56 1685.67 Q2204.56 1694.56 2206.81 1699.01 Q2209.1 1703.44 2213.61 1703.44 Q2218.15 1703.44 2220.41 1699.01 Q2222.7 1694.56 2222.7 1685.67 Q2222.7 1676.76 2220.41 1672.34 Q2218.15 1667.88 2213.61 1667.88 M2213.61 1663.25 Q2220.87 1663.25 2224.69 1669.01 Q2228.54 1674.74 2228.54 1685.67 Q2228.54 1696.58 2224.69 1702.34 Q2220.87 1708.07 2213.61 1708.07 Q2206.35 1708.07 2202.5 1702.34 Q2198.68 1696.58 2198.68 1685.67 Q2198.68 1674.74 2202.5 1669.01 Q2206.35 1663.25 2213.61 1663.25 Z" fill="#000000" fill-rule="nonzero" fill-opacity="1" /><path clip-path="url(#clip240)" d="M2548.93 1702.31 L2569.32 1702.31 L2569.32 1707.23 L2541.89 1707.23 L2541.89 1702.31 Q2545.22 1698.87 2550.95 1693.08 Q2556.71 1687.27 2558.18 1685.59 Q2560.99 1682.43 2562.09 1680.26 Q2563.22 1678.06 2563.22 1675.95 Q2563.22 1672.51 2560.79 1670.34 Q2558.39 1668.17 2554.51 1668.17 Q2551.76 1668.17 2548.69 1669.12 Q2545.66 1670.08 2542.18 1672.02 L2542.18 1666.11 Q2545.71 1664.7 2548.78 1663.97 Q2551.85 1663.25 2554.39 1663.25 Q2561.11 1663.25 2565.1 1666.61 Q2569.09 1669.96 2569.09 1675.58 Q2569.09 1678.24 2568.08 1680.64 Q2567.1 1683.01 2564.46 1686.25 Q2563.74 1687.09 2559.86 1691.11 Q2555.99 1695.11 2548.93 1702.31 Z" fill="#000000" fill-rule="nonzero" fill-opacity="1" /><path clip-path="url(#clip240)" d="M2581.65 1664.03 L2604.6 1664.03 L2604.6 1668.95 L2587 1668.95 L2587 1679.54 Q2588.28 1679.11 2589.55 1678.9 Q2590.82 1678.67 2592.1 1678.67 Q2599.33 1678.67 2603.55 1682.64 Q2607.78 1686.6 2607.78 1693.37 Q2607.78 1700.34 2603.44 1704.22 Q2599.1 1708.07 2591.2 1708.07 Q2588.48 1708.07 2585.64 1707.61 Q2582.84 1707.14 2579.83 1706.22 L2579.83 1700.34 Q2582.43 1701.76 2585.21 1702.46 Q2587.99 1703.15 2591.08 1703.15 Q2596.09 1703.15 2599.01 1700.52 Q2601.93 1697.89 2601.93 1693.37 Q2601.93 1688.86 2599.01 1686.22 Q2596.09 1683.59 2591.08 1683.59 Q2588.74 1683.59 2586.4 1684.11 Q2584.08 1684.63 2581.65 1685.73 L2581.65 1664.03 Z" fill="#000000" fill-rule="nonzero" fill-opacity="1" /><path clip-path="url(#clip240)" d="M2631.8 1667.88 Q2627.28 1667.88 2625 1672.34 Q2622.74 1676.76 2622.74 1685.67 Q2622.74 1694.56 2625 1699.01 Q2627.28 1703.44 2631.8 1703.44 Q2636.34 1703.44 2638.6 1699.01 Q2640.88 1694.56 2640.88 1685.67 Q2640.88 1676.76 2638.6 1672.34 Q2636.34 1667.88 2631.8 1667.88 M2631.8 1663.25 Q2639.06 1663.25 2642.88 1669.01 Q2646.73 1674.74 2646.73 1685.67 Q2646.73 1696.58 2642.88 1702.34 Q2639.06 1708.07 2631.8 1708.07 Q2624.53 1708.07 2620.68 1702.34 Q2616.86 1696.58 2616.86 1685.67 Q2616.86 1674.74 2620.68 1669.01 Q2624.53 1663.25 2631.8 1663.25 Z" fill="#000000" fill-rule="nonzero" fill-opacity="1" /><path clip-path="url(#clip240)" d="M1268.26 1747.14 L1274.69 1747.14 L1274.69 1789.24 L1297.83 1789.24 L1297.83 1794.66 L1268.26 1794.66 L1268.26 1747.14 Z" fill="#000000" fill-rule="nonzero" fill-opacity="1" /><path clip-path="url(#clip240)" d="M1320.52 1776.74 Q1313.42 1776.74 1310.68 1778.36 Q1307.95 1779.98 1307.95 1783.9 Q1307.95 1787.02 1309.98 1788.86 Q1312.05 1790.68 1315.59 1790.68 Q1320.46 1790.68 1323.38 1787.24 Q1326.34 1783.77 1326.34 1778.04 L1326.34 1776.74 L1320.52 1776.74 M1332.2 1774.32 L1332.2 1794.66 L1326.34 1794.66 L1326.34 1789.24 Q1324.34 1792.49 1321.35 1794.05 Q1318.35 1795.58 1314.03 1795.58 Q1308.55 1795.58 1305.3 1792.52 Q1302.09 1789.44 1302.09 1784.28 Q1302.09 1778.26 1306.1 1775.21 Q1310.14 1772.15 1318.13 1772.15 L1326.34 1772.15 L1326.34 1771.58 Q1326.34 1767.54 1323.67 1765.34 Q1321.03 1763.11 1316.22 1763.11 Q1313.17 1763.11 1310.27 1763.85 Q1307.37 1764.58 1304.7 1766.04 L1304.7 1760.63 Q1307.91 1759.39 1310.94 1758.78 Q1313.96 1758.15 1316.83 1758.15 Q1324.56 1758.15 1328.38 1762.16 Q1332.2 1766.17 1332.2 1774.32 Z" fill="#000000" fill-rule="nonzero" fill-opacity="1" /><path clip-path="url(#clip240)" d="M1367.72 1776.42 Q1367.72 1770.05 1365.08 1766.55 Q1362.47 1763.05 1357.73 1763.05 Q1353.02 1763.05 1350.37 1766.55 Q1347.76 1770.05 1347.76 1776.42 Q1347.76 1782.75 1350.37 1786.25 Q1353.02 1789.75 1357.73 1789.75 Q1362.47 1789.75 1365.08 1786.25 Q1367.72 1782.75 1367.72 1776.42 M1373.58 1790.23 Q1373.58 1799.33 1369.53 1803.76 Q1365.49 1808.21 1357.15 1808.21 Q1354.07 1808.21 1351.33 1807.74 Q1348.59 1807.29 1346.01 1806.34 L1346.01 1800.64 Q1348.59 1802.04 1351.11 1802.71 Q1353.62 1803.38 1356.23 1803.38 Q1361.99 1803.38 1364.86 1800.35 Q1367.72 1797.36 1367.72 1791.28 L1367.72 1788.39 Q1365.91 1791.54 1363.07 1793.1 Q1360.24 1794.66 1356.29 1794.66 Q1349.74 1794.66 1345.73 1789.66 Q1341.72 1784.66 1341.72 1776.42 Q1341.72 1768.14 1345.73 1763.15 Q1349.74 1758.15 1356.29 1758.15 Q1360.24 1758.15 1363.07 1759.71 Q1365.91 1761.27 1367.72 1764.42 L1367.72 1759.01 L1373.58 1759.01 L1373.58 1790.23 Z" fill="#000000" fill-rule="nonzero" fill-opacity="1" /><path clip-path="url(#clip240)" d="M1420.43 1745.19 Q1416.16 1752.51 1414.09 1759.68 Q1412.03 1766.84 1412.03 1774.19 Q1412.03 1781.54 1414.09 1788.77 Q1416.2 1795.96 1420.43 1803.25 L1415.34 1803.25 Q1410.56 1795.77 1408.17 1788.54 Q1405.82 1781.32 1405.82 1774.19 Q1405.82 1767.09 1408.17 1759.9 Q1410.53 1752.71 1415.34 1745.19 L1420.43 1745.19 Z" fill="#000000" fill-rule="nonzero" fill-opacity="1" /><path clip-path="url(#clip240)" d="M1437.58 1748.89 L1437.58 1759.01 L1449.65 1759.01 L1449.65 1763.56 L1437.58 1763.56 L1437.58 1782.91 Q1437.58 1787.27 1438.76 1788.51 Q1439.97 1789.75 1443.63 1789.75 L1449.65 1789.75 L1449.65 1794.66 L1443.63 1794.66 Q1436.85 1794.66 1434.27 1792.14 Q1431.7 1789.59 1431.7 1782.91 L1431.7 1763.56 L1427.4 1763.56 L1427.4 1759.01 L1431.7 1759.01 L1431.7 1748.89 L1437.58 1748.89 Z" fill="#000000" fill-rule="nonzero" fill-opacity="1" /><path clip-path="url(#clip240)" d="M1478.01 1764.48 Q1477.02 1763.91 1475.84 1763.65 Q1474.7 1763.37 1473.3 1763.37 Q1468.33 1763.37 1465.66 1766.61 Q1463.02 1769.83 1463.02 1775.88 L1463.02 1794.66 L1457.13 1794.66 L1457.13 1759.01 L1463.02 1759.01 L1463.02 1764.55 Q1464.86 1761.3 1467.82 1759.74 Q1470.78 1758.15 1475.01 1758.15 Q1475.62 1758.15 1476.35 1758.24 Q1477.08 1758.31 1477.97 1758.47 L1478.01 1764.48 Z" fill="#000000" fill-rule="nonzero" fill-opacity="1" /><path clip-path="url(#clip240)" d="M1500.35 1776.74 Q1493.25 1776.74 1490.52 1778.36 Q1487.78 1779.98 1487.78 1783.9 Q1487.78 1787.02 1489.81 1788.86 Q1491.88 1790.68 1495.42 1790.68 Q1500.29 1790.68 1503.21 1787.24 Q1506.17 1783.77 1506.17 1778.04 L1506.17 1776.74 L1500.35 1776.74 M1512.03 1774.32 L1512.03 1794.66 L1506.17 1794.66 L1506.17 1789.24 Q1504.17 1792.49 1501.18 1794.05 Q1498.19 1795.58 1493.86 1795.58 Q1488.38 1795.58 1485.14 1792.52 Q1481.92 1789.44 1481.92 1784.28 Q1481.92 1778.26 1485.93 1775.21 Q1489.97 1772.15 1497.96 1772.15 L1506.17 1772.15 L1506.17 1771.58 Q1506.17 1767.54 1503.5 1765.34 Q1500.86 1763.11 1496.05 1763.11 Q1493 1763.11 1490.1 1763.85 Q1487.2 1764.58 1484.53 1766.04 L1484.53 1760.63 Q1487.75 1759.39 1490.77 1758.78 Q1493.79 1758.15 1496.66 1758.15 Q1504.39 1758.15 1508.21 1762.16 Q1512.03 1766.17 1512.03 1774.32 Z" fill="#000000" fill-rule="nonzero" fill-opacity="1" /><path clip-path="url(#clip240)" d="M1547.55 1764.42 L1547.55 1745.13 L1553.41 1745.13 L1553.41 1794.66 L1547.55 1794.66 L1547.55 1789.31 Q1545.71 1792.49 1542.87 1794.05 Q1540.07 1795.58 1536.13 1795.58 Q1529.66 1795.58 1525.59 1790.42 Q1521.55 1785.27 1521.55 1776.86 Q1521.55 1768.46 1525.59 1763.3 Q1529.66 1758.15 1536.13 1758.15 Q1540.07 1758.15 1542.87 1759.71 Q1545.71 1761.24 1547.55 1764.42 M1527.6 1776.86 Q1527.6 1783.32 1530.24 1787.02 Q1532.91 1790.68 1537.56 1790.68 Q1542.2 1790.68 1544.88 1787.02 Q1547.55 1783.32 1547.55 1776.86 Q1547.55 1770.4 1544.88 1766.74 Q1542.2 1763.05 1537.56 1763.05 Q1532.91 1763.05 1530.24 1766.74 Q1527.6 1770.4 1527.6 1776.86 Z" fill="#000000" fill-rule="nonzero" fill-opacity="1" /><path clip-path="url(#clip240)" d="M1565.47 1759.01 L1571.33 1759.01 L1571.33 1794.66 L1565.47 1794.66 L1565.47 1759.01 M1565.47 1745.13 L1571.33 1745.13 L1571.33 1752.55 L1565.47 1752.55 L1565.47 1745.13 Z" fill="#000000" fill-rule="nonzero" fill-opacity="1" /><path clip-path="url(#clip240)" d="M1613.21 1773.14 L1613.21 1794.66 L1607.36 1794.66 L1607.36 1773.33 Q1607.36 1768.27 1605.38 1765.76 Q1603.41 1763.24 1599.46 1763.24 Q1594.72 1763.24 1591.98 1766.26 Q1589.25 1769.29 1589.25 1774.51 L1589.25 1794.66 L1583.36 1794.66 L1583.36 1759.01 L1589.25 1759.01 L1589.25 1764.55 Q1591.35 1761.33 1594.18 1759.74 Q1597.05 1758.15 1600.77 1758.15 Q1606.91 1758.15 1610.06 1761.97 Q1613.21 1765.76 1613.21 1773.14 Z" fill="#000000" fill-rule="nonzero" fill-opacity="1" /><path clip-path="url(#clip240)" d="M1648.35 1776.42 Q1648.35 1770.05 1645.71 1766.55 Q1643.1 1763.05 1638.36 1763.05 Q1633.65 1763.05 1631.01 1766.55 Q1628.4 1770.05 1628.4 1776.42 Q1628.4 1782.75 1631.01 1786.25 Q1633.65 1789.75 1638.36 1789.75 Q1643.1 1789.75 1645.71 1786.25 Q1648.35 1782.75 1648.35 1776.42 M1654.21 1790.23 Q1654.21 1799.33 1650.17 1803.76 Q1646.12 1808.21 1637.79 1808.21 Q1634.7 1808.21 1631.96 1807.74 Q1629.22 1807.29 1626.65 1806.34 L1626.65 1800.64 Q1629.22 1802.04 1631.74 1802.71 Q1634.25 1803.38 1636.86 1803.38 Q1642.62 1803.38 1645.49 1800.35 Q1648.35 1797.36 1648.35 1791.28 L1648.35 1788.39 Q1646.54 1791.54 1643.71 1793.1 Q1640.87 1794.66 1636.93 1794.66 Q1630.37 1794.66 1626.36 1789.66 Q1622.35 1784.66 1622.35 1776.42 Q1622.35 1768.14 1626.36 1763.15 Q1630.37 1758.15 1636.93 1758.15 Q1640.87 1758.15 1643.71 1759.71 Q1646.54 1761.27 1648.35 1764.42 L1648.35 1759.01 L1654.21 1759.01 L1654.21 1790.23 Z" fill="#000000" fill-rule="nonzero" fill-opacity="1" /><path clip-path="url(#clip240)" d="M1710.45 1764.42 L1710.45 1745.13 L1716.31 1745.13 L1716.31 1794.66 L1710.45 1794.66 L1710.45 1789.31 Q1708.6 1792.49 1705.77 1794.05 Q1702.97 1795.58 1699.02 1795.58 Q1692.56 1795.58 1688.49 1790.42 Q1684.45 1785.27 1684.45 1776.86 Q1684.45 1768.46 1688.49 1763.3 Q1692.56 1758.15 1699.02 1758.15 Q1702.97 1758.15 1705.77 1759.71 Q1708.6 1761.24 1710.45 1764.42 M1690.49 1776.86 Q1690.49 1783.32 1693.14 1787.02 Q1695.81 1790.68 1700.46 1790.68 Q1705.1 1790.68 1707.78 1787.02 Q1710.45 1783.32 1710.45 1776.86 Q1710.45 1770.4 1707.78 1766.74 Q1705.1 1763.05 1700.46 1763.05 Q1695.81 1763.05 1693.14 1766.74 Q1690.49 1770.4 1690.49 1776.86 Z" fill="#000000" fill-rule="nonzero" fill-opacity="1" /><path clip-path="url(#clip240)" d="M1744.57 1776.74 Q1737.47 1776.74 1734.74 1778.36 Q1732 1779.98 1732 1783.9 Q1732 1787.02 1734.04 1788.86 Q1736.1 1790.68 1739.64 1790.68 Q1744.51 1790.68 1747.44 1787.24 Q1750.4 1783.77 1750.4 1778.04 L1750.4 1776.74 L1744.57 1776.74 M1756.25 1774.32 L1756.25 1794.66 L1750.4 1794.66 L1750.4 1789.24 Q1748.39 1792.49 1745.4 1794.05 Q1742.41 1795.58 1738.08 1795.58 Q1732.6 1795.58 1729.36 1792.52 Q1726.14 1789.44 1726.14 1784.28 Q1726.14 1778.26 1730.15 1775.21 Q1734.19 1772.15 1742.18 1772.15 L1750.4 1772.15 L1750.4 1771.58 Q1750.4 1767.54 1747.72 1765.34 Q1745.08 1763.11 1740.27 1763.11 Q1737.22 1763.11 1734.32 1763.85 Q1731.43 1764.58 1728.75 1766.04 L1728.75 1760.63 Q1731.97 1759.39 1734.99 1758.78 Q1738.01 1758.15 1740.88 1758.15 Q1748.61 1758.15 1752.43 1762.16 Q1756.25 1766.17 1756.25 1774.32 Z" fill="#000000" fill-rule="nonzero" fill-opacity="1" /><path clip-path="url(#clip240)" d="M1783.15 1797.97 Q1780.66 1804.33 1778.31 1806.27 Q1775.95 1808.21 1772.01 1808.21 L1767.33 1808.21 L1767.33 1803.31 L1770.77 1803.31 Q1773.18 1803.31 1774.52 1802.17 Q1775.86 1801.02 1777.48 1796.76 L1778.53 1794.08 L1764.11 1759.01 L1770.32 1759.01 L1781.46 1786.89 L1792.6 1759.01 L1798.81 1759.01 L1783.15 1797.97 Z" fill="#000000" fill-rule="nonzero" fill-opacity="1" /><path clip-path="url(#clip240)" d="M1829.62 1760.06 L1829.62 1765.6 Q1827.13 1764.32 1824.46 1763.69 Q1821.79 1763.05 1818.92 1763.05 Q1814.56 1763.05 1812.37 1764.39 Q1810.2 1765.72 1810.2 1768.4 Q1810.2 1770.43 1811.76 1771.61 Q1813.32 1772.76 1818.03 1773.81 L1820.04 1774.25 Q1826.27 1775.59 1828.88 1778.04 Q1831.53 1780.46 1831.53 1784.82 Q1831.53 1789.79 1827.58 1792.68 Q1823.66 1795.58 1816.79 1795.58 Q1813.92 1795.58 1810.81 1795.01 Q1807.72 1794.46 1804.28 1793.35 L1804.28 1787.3 Q1807.53 1788.99 1810.68 1789.85 Q1813.83 1790.68 1816.92 1790.68 Q1821.05 1790.68 1823.28 1789.28 Q1825.51 1787.84 1825.51 1785.27 Q1825.51 1782.88 1823.89 1781.61 Q1822.3 1780.33 1816.85 1779.16 L1814.82 1778.68 Q1809.37 1777.53 1806.95 1775.18 Q1804.54 1772.79 1804.54 1768.65 Q1804.54 1763.62 1808.1 1760.89 Q1811.67 1758.15 1818.22 1758.15 Q1821.47 1758.15 1824.33 1758.63 Q1827.2 1759.1 1829.62 1760.06 Z" fill="#000000" fill-rule="nonzero" fill-opacity="1" /><path clip-path="url(#clip240)" d="M1839.93 1745.19 L1845.02 1745.19 Q1849.8 1752.71 1852.15 1759.9 Q1854.54 1767.09 1854.54 1774.19 Q1854.54 1781.32 1852.15 1788.54 Q1849.8 1795.77 1845.02 1803.25 L1839.93 1803.25 Q1844.16 1795.96 1846.23 1788.77 Q1848.33 1781.54 1848.33 1774.19 Q1848.33 1766.84 1846.23 1759.68 Q1844.16 1752.51 1839.93 1745.19 Z" fill="#000000" fill-rule="nonzero" fill-opacity="1" /><polyline clip-path="url(#clip240)" style="stroke:#000000; stroke-linecap:round; stroke-linejoin:round; stroke-width:4; stroke-opacity:1; fill:none" points="448.779,1630.83 448.779,125.984 "/>
<polyline clip-path="url(#clip240)" style="stroke:#000000; stroke-linecap:round; stroke-linejoin:round; stroke-width:4; stroke-opacity:1; fill:none" points="448.779,1402.24 467.676,1402.24 "/>
<polyline clip-path="url(#clip240)" style="stroke:#000000; stroke-linecap:round; stroke-linejoin:round; stroke-width:4; stroke-opacity:1; fill:none" points="448.779,1050.25 467.676,1050.25 "/>
<polyline clip-path="url(#clip240)" style="stroke:#000000; stroke-linecap:round; stroke-linejoin:round; stroke-width:4; stroke-opacity:1; fill:none" points="448.779,698.263 467.676,698.263 "/>
<polyline clip-path="url(#clip240)" style="stroke:#000000; stroke-linecap:round; stroke-linejoin:round; stroke-width:4; stroke-opacity:1; fill:none" points="448.779,346.276 467.676,346.276 "/>
<path clip-path="url(#clip240)" d="M335.309 1384.49 Q330.795 1384.49 328.51 1388.94 Q326.253 1393.37 326.253 1402.28 Q326.253 1411.16 328.51 1415.62 Q330.795 1420.05 335.309 1420.05 Q339.852 1420.05 342.109 1415.62 Q344.395 1411.16 344.395 1402.28 Q344.395 1393.37 342.109 1388.94 Q339.852 1384.49 335.309 1384.49 M335.309 1379.86 Q342.572 1379.86 346.391 1385.61 Q350.24 1391.34 350.24 1402.28 Q350.24 1413.19 346.391 1418.95 Q342.572 1424.68 335.309 1424.68 Q328.047 1424.68 324.198 1418.95 Q320.379 1413.19 320.379 1402.28 Q320.379 1391.34 324.198 1385.61 Q328.047 1379.86 335.309 1379.86 Z" fill="#000000" fill-rule="nonzero" fill-opacity="1" /><path clip-path="url(#clip240)" d="M360.512 1416.49 L366.617 1416.49 L366.617 1423.84 L360.512 1423.84 L360.512 1416.49 Z" fill="#000000" fill-rule="nonzero" fill-opacity="1" /><path clip-path="url(#clip240)" d="M391.848 1384.49 Q387.335 1384.49 385.049 1388.94 Q382.792 1393.37 382.792 1402.28 Q382.792 1411.16 385.049 1415.62 Q387.335 1420.05 391.848 1420.05 Q396.391 1420.05 398.648 1415.62 Q400.934 1411.16 400.934 1402.28 Q400.934 1393.37 398.648 1388.94 Q396.391 1384.49 391.848 1384.49 M391.848 1379.86 Q399.111 1379.86 402.93 1385.61 Q406.779 1391.34 406.779 1402.28 Q406.779 1413.19 402.93 1418.95 Q399.111 1424.68 391.848 1424.68 Q384.586 1424.68 380.737 1418.95 Q376.918 1413.19 376.918 1402.28 Q376.918 1391.34 380.737 1385.61 Q384.586 1379.86 391.848 1379.86 Z" fill="#000000" fill-rule="nonzero" fill-opacity="1" /><path clip-path="url(#clip240)" d="M336.843 1032.5 Q332.329 1032.5 330.043 1036.95 Q327.786 1041.38 327.786 1050.29 Q327.786 1059.18 330.043 1063.63 Q332.329 1068.06 336.843 1068.06 Q341.386 1068.06 343.643 1063.63 Q345.928 1059.18 345.928 1050.29 Q345.928 1041.38 343.643 1036.95 Q341.386 1032.5 336.843 1032.5 M336.843 1027.87 Q344.106 1027.87 347.925 1033.63 Q351.773 1039.36 351.773 1050.29 Q351.773 1061.2 347.925 1066.96 Q344.106 1072.69 336.843 1072.69 Q329.58 1072.69 325.732 1066.96 Q321.912 1061.2 321.912 1050.29 Q321.912 1039.36 325.732 1033.63 Q329.58 1027.87 336.843 1027.87 Z" fill="#000000" fill-rule="nonzero" fill-opacity="1" /><path clip-path="url(#clip240)" d="M362.045 1064.5 L368.151 1064.5 L368.151 1071.85 L362.045 1071.85 L362.045 1064.5 Z" fill="#000000" fill-rule="nonzero" fill-opacity="1" /><path clip-path="url(#clip240)" d="M381.895 1066.93 L391.443 1066.93 L391.443 1033.97 L381.056 1036.06 L381.056 1030.73 L391.385 1028.65 L397.23 1028.65 L397.23 1066.93 L406.779 1066.93 L406.779 1071.85 L381.895 1071.85 L381.895 1066.93 Z" fill="#000000" fill-rule="nonzero" fill-opacity="1" /><path clip-path="url(#clip240)" d="M337.306 680.511 Q332.792 680.511 330.506 684.967 Q328.249 689.395 328.249 698.306 Q328.249 707.19 330.506 711.646 Q332.792 716.073 337.306 716.073 Q341.849 716.073 344.106 711.646 Q346.391 707.19 346.391 698.306 Q346.391 689.395 344.106 684.967 Q341.849 680.511 337.306 680.511 M337.306 675.882 Q344.569 675.882 348.388 681.64 Q352.236 687.369 352.236 698.306 Q352.236 709.215 348.388 714.973 Q344.569 720.702 337.306 720.702 Q330.043 720.702 326.195 714.973 Q322.375 709.215 322.375 698.306 Q322.375 687.369 326.195 681.64 Q330.043 675.882 337.306 675.882 Z" fill="#000000" fill-rule="nonzero" fill-opacity="1" /><path clip-path="url(#clip240)" d="M362.508 712.514 L368.614 712.514 L368.614 719.863 L362.508 719.863 L362.508 712.514 Z" fill="#000000" fill-rule="nonzero" fill-opacity="1" /><path clip-path="url(#clip240)" d="M386.38 714.944 L406.779 714.944 L406.779 719.863 L379.348 719.863 L379.348 714.944 Q382.676 711.501 388.405 705.714 Q394.163 699.898 395.639 698.22 Q398.446 695.066 399.545 692.896 Q400.674 690.697 400.674 688.584 Q400.674 685.141 398.243 682.971 Q395.841 680.801 391.964 680.801 Q389.215 680.801 386.148 681.756 Q383.11 682.711 379.638 684.649 L379.638 678.746 Q383.168 677.329 386.235 676.605 Q389.302 675.882 391.848 675.882 Q398.561 675.882 402.554 679.238 Q406.547 682.595 406.547 688.208 Q406.547 690.87 405.535 693.272 Q404.551 695.644 401.918 698.885 Q401.194 699.724 397.317 703.746 Q393.44 707.739 386.38 714.944 Z" fill="#000000" fill-rule="nonzero" fill-opacity="1" /><path clip-path="url(#clip240)" d="M336.12 328.524 Q331.606 328.524 329.32 332.98 Q327.063 337.407 327.063 346.319 Q327.063 355.202 329.32 359.658 Q331.606 364.085 336.12 364.085 Q340.662 364.085 342.919 359.658 Q345.205 355.202 345.205 346.319 Q345.205 337.407 342.919 332.98 Q340.662 328.524 336.12 328.524 M336.12 323.895 Q343.382 323.895 347.202 329.653 Q351.05 335.382 351.05 346.319 Q351.05 357.228 347.202 362.986 Q343.382 368.715 336.12 368.715 Q328.857 368.715 325.008 362.986 Q321.189 357.228 321.189 346.319 Q321.189 335.382 325.008 329.653 Q328.857 323.895 336.12 323.895 Z" fill="#000000" fill-rule="nonzero" fill-opacity="1" /><path clip-path="url(#clip240)" d="M361.322 360.526 L367.427 360.526 L367.427 367.876 L361.322 367.876 L361.322 360.526 Z" fill="#000000" fill-rule="nonzero" fill-opacity="1" /><path clip-path="url(#clip240)" d="M397.867 344.583 Q402.062 345.48 404.406 348.316 Q406.779 351.151 406.779 355.318 Q406.779 361.713 402.381 365.214 Q397.983 368.715 389.881 368.715 Q387.161 368.715 384.267 368.165 Q381.403 367.644 378.336 366.574 L378.336 360.931 Q380.766 362.349 383.66 363.073 Q386.553 363.796 389.707 363.796 Q395.205 363.796 398.069 361.626 Q400.963 359.456 400.963 355.318 Q400.963 351.499 398.272 349.357 Q395.61 347.187 390.836 347.187 L385.801 347.187 L385.801 342.384 L391.067 342.384 Q395.378 342.384 397.664 340.677 Q399.95 338.941 399.95 335.7 Q399.95 332.373 397.578 330.607 Q395.234 328.814 390.836 328.814 Q388.434 328.814 385.685 329.334 Q382.936 329.855 379.638 330.955 L379.638 325.746 Q382.965 324.82 385.859 324.358 Q388.781 323.895 391.356 323.895 Q398.012 323.895 401.889 326.933 Q405.766 329.942 405.766 335.092 Q405.766 338.68 403.712 341.169 Q401.657 343.628 397.867 344.583 Z" fill="#000000" fill-rule="nonzero" fill-opacity="1" /><path clip-path="url(#clip240)" d="M222.937 1043.9 L246.585 1052.62 L246.585 1035.15 L222.937 1043.9 M216.603 1047.53 L216.603 1040.24 L264.123 1022.13 L264.123 1028.81 L251.933 1033.14 L251.933 1054.56 L264.123 1058.89 L264.123 1065.67 L216.603 1047.53 Z" fill="#000000" fill-rule="nonzero" fill-opacity="1" /><path clip-path="url(#clip240)" d="M220.263 980.753 L227.043 980.753 Q224.019 983.999 222.523 987.691 Q221.027 991.351 221.027 995.489 Q221.027 1003.64 226.024 1007.97 Q230.989 1012.29 240.411 1012.29 Q249.8 1012.29 254.797 1007.97 Q259.762 1003.64 259.762 995.489 Q259.762 991.351 258.266 987.691 Q256.77 983.999 253.747 980.753 L260.463 980.753 Q262.754 984.126 263.9 987.914 Q265.046 991.67 265.046 995.871 Q265.046 1006.66 258.457 1012.87 Q251.837 1019.07 240.411 1019.07 Q228.952 1019.07 222.364 1012.87 Q215.743 1006.66 215.743 995.871 Q215.743 991.606 216.889 987.85 Q218.003 984.063 220.263 980.753 Z" fill="#000000" fill-rule="nonzero" fill-opacity="1" /><path clip-path="url(#clip240)" d="M216.603 970.822 L216.603 943.513 L222.014 943.513 L222.014 964.393 L236.018 964.393 L236.018 945.55 L241.429 945.55 L241.429 964.393 L264.123 964.393 L264.123 970.822 L216.603 970.822 Z" fill="#000000" fill-rule="nonzero" fill-opacity="1" /><path clip-path="url(#clip240)" d="M232.581 899.049 Q232.581 903.759 236.273 906.497 Q239.933 909.234 246.331 909.234 Q252.728 909.234 256.42 906.528 Q260.081 903.791 260.081 899.049 Q260.081 894.37 256.389 891.633 Q252.696 888.895 246.331 888.895 Q239.997 888.895 236.305 891.633 Q232.581 894.37 232.581 899.049 M227.616 899.049 Q227.616 891.41 232.581 887.049 Q237.546 882.689 246.331 882.689 Q255.084 882.689 260.081 887.049 Q265.046 891.41 265.046 899.049 Q265.046 906.719 260.081 911.08 Q255.084 915.409 246.331 915.409 Q237.546 915.409 232.581 911.08 Q227.616 906.719 227.616 899.049 Z" fill="#000000" fill-rule="nonzero" fill-opacity="1" /><path clip-path="url(#clip240)" d="M214.598 854.934 L219.467 854.934 L219.467 860.536 Q219.467 863.687 220.741 864.928 Q222.014 866.138 225.324 866.138 L228.475 866.138 L228.475 856.494 L233.026 856.494 L233.026 866.138 L264.123 866.138 L264.123 872.026 L233.026 872.026 L233.026 877.628 L228.475 877.628 L228.475 872.026 L225.992 872.026 Q220.04 872.026 217.335 869.257 Q214.598 866.488 214.598 860.472 L214.598 854.934 Z" fill="#000000" fill-rule="nonzero" fill-opacity="1" /><path clip-path="url(#clip240)" d="M214.311 821.769 L279.496 821.769 L279.496 827.18 L214.311 827.18 L214.311 821.769 Z" fill="#000000" fill-rule="nonzero" fill-opacity="1" /><path clip-path="url(#clip240)" d="M257.343 774.695 L244.58 774.695 L244.58 785.198 L239.297 785.198 L239.297 768.329 L259.699 768.329 Q262.34 772.053 263.709 776.541 Q265.046 781.028 265.046 786.121 Q265.046 797.261 258.553 803.563 Q252.028 809.833 240.411 809.833 Q228.761 809.833 222.268 803.563 Q215.743 797.261 215.743 786.121 Q215.743 781.474 216.889 777.305 Q218.035 773.103 220.263 769.57 L227.106 769.57 Q224.083 773.135 222.555 777.145 Q221.027 781.156 221.027 785.58 Q221.027 794.301 225.897 798.693 Q230.767 803.054 240.411 803.054 Q250.023 803.054 254.893 798.693 Q259.762 794.301 259.762 785.58 Q259.762 782.174 259.189 779.501 Q258.585 776.827 257.343 774.695 Z" fill="#000000" fill-rule="nonzero" fill-opacity="1" /><path clip-path="url(#clip240)" d="M274.945 729.753 L279.496 729.753 L279.496 763.618 L274.945 763.618 L274.945 729.753 Z" fill="#000000" fill-rule="nonzero" fill-opacity="1" /><path clip-path="url(#clip240)" d="M218.353 718.454 L228.475 718.454 L228.475 706.391 L233.026 706.391 L233.026 718.454 L252.378 718.454 Q256.739 718.454 257.98 717.276 Q259.221 716.066 259.221 712.406 L259.221 706.391 L264.123 706.391 L264.123 712.406 Q264.123 719.186 261.608 721.764 Q259.062 724.342 252.378 724.342 L233.026 724.342 L233.026 728.639 L228.475 728.639 L228.475 724.342 L218.353 724.342 L218.353 718.454 Z" fill="#000000" fill-rule="nonzero" fill-opacity="1" /><path clip-path="url(#clip240)" d="M214.311 691.145 L279.496 691.145 L279.496 696.556 L214.311 696.556 L214.311 691.145 Z" fill="#000000" fill-rule="nonzero" fill-opacity="1" /><polyline clip-path="url(#clip241)" style="stroke:#d45e00; stroke-linecap:round; stroke-linejoin:round; stroke-width:8; stroke-opacity:1; fill:none" stroke-dasharray="32, 20" points="511.757,332.204 520.121,466.635 528.485,269.362 536.848,397.307 545.212,464.814 553.576,541.395 561.939,544.551 570.303,414.122 578.667,473.888 587.03,439.487 595.394,689.927 603.758,675.563 612.121,613.93 620.485,699.065 628.849,672.263 637.212,865.352 645.576,559.486 653.94,630.687 662.303,847.928 670.667,701.903 679.031,858.522 687.394,838.573 695.758,768.62 704.122,959.145 712.485,895.754 720.849,884.515 729.213,958.673 737.576,997.258 745.94,836.099 754.304,928.346 762.667,979.387 771.031,1022.6 779.395,977.87 787.758,1048.43 796.122,1014.98 804.486,995.389 812.849,1034.24 821.213,982.714 829.577,954.494 837.94,1082.08 846.304,1039.96 854.668,1036.27 863.031,1053.65 871.395,1182.65 879.759,1102.63 888.122,973.306 896.486,1235.32 904.85,1156.87 913.213,1072.07 921.577,1196.76 929.941,1126.4 938.304,1159.67 946.668,1136.19 955.032,1179.09 963.395,1097.32 971.759,1147.6 980.123,1180.62 988.486,1166.36 996.85,1110.49 1005.21,1251.71 1013.58,1201.53 1021.94,1218.65 1030.3,1103.26 1038.67,1262.34 1047.03,1241.21 1055.4,1209.06 1063.76,1283.93 1072.12,1198.55 1080.49,1264.14 1088.85,1269.28 1097.21,1271.88 1105.58,1149.71 1113.94,1285.12 1122.3,1249.05 1130.67,1194.01 1139.03,1155.71 1147.4,1252.62 1155.76,1281.7 1164.12,1247.46 1172.49,1310.32 1180.85,1259.34 1189.21,1230.52 1197.58,1332.42 1205.94,1321.23 1214.31,1279.63 1222.67,1330.05 1231.03,1324.46 1239.4,1279.42 1247.76,1342.33 1256.12,1269.78 1264.49,1284.4 1272.85,1207.43 1281.21,1344.5 1289.58,1236.35 1297.94,1234.88 1306.31,1279.2 1314.67,1153.46 1323.03,1242.03 1331.4,1260.52 1339.76,1212.26 1348.12,1203.59 1356.49,1216.1 1364.85,1212.53 1373.21,1293.45 1381.58,1176.35 1389.94,1215.82 1398.31,1246.5 1406.67,1334.89 1415.03,1230.22 1423.4,1342.25 1431.76,1255.36 1440.12,1326.99 1448.49,1241.81 1456.85,1270.35 1465.22,1245.91 1473.58,1222.43 1481.94,1240.19 1490.31,1272.77 1498.67,1192.53 1507.03,1157.78 1515.4,1194.93 1523.76,1212.98 1532.12,1256.82 1540.49,1216.85 1548.85,1275.36 1557.22,1228.36 1565.58,1264.31 1573.94,1268.43 1582.31,1199.49 1590.67,1199.9 1599.03,1142.97 1607.4,1302.89 1615.76,1263.06 1624.12,1248.74 1632.49,1284.28 1640.85,1258.87 1649.22,1313.25 1657.58,1174.31 1665.94,1227.37 1674.31,1274.79 1682.67,1283.53 1691.03,1256.55 1699.4,1255.19 1707.76,1261.14 1716.13,1249.37 1724.49,1222.32 1732.85,1407.06 1741.22,1261.91 1749.58,1255.6 1757.94,1305.74 1766.31,1141.75 1774.67,1223.71 1783.03,1237.37 1791.4,1248.5 1799.76,1256.56 1808.13,1214.72 1816.49,1293.8 1824.85,1236.11 1833.22,1279.14 1841.58,1176.06 1849.94,1175.9 1858.31,1238.32 1866.67,1258.39 1875.03,1290.66 1883.4,1301.43 1891.76,1317.46 1900.13,1346.31 1908.49,1232.74 1916.85,1231.33 1925.22,1263.03 1933.58,1308.7 1941.94,1226.72 1950.31,1239.81 1958.67,1256.79 1967.04,1399.71 1975.4,1282.73 1983.76,1283.33 1992.13,1385.97 2000.49,1300.93 2008.85,1402.11 2017.22,1391.25 2025.58,1291.14 2033.94,1339.88 2042.31,1422.13 2050.67,1397 2059.04,1445.4 2067.4,1376.08 2075.76,1403.68 2084.13,1368.74 2092.49,1409.79 2100.85,1402.16 2109.22,1366.87 2117.58,1409.07 2125.94,1388.81 2134.31,1406.69 2142.67,1424.74 2151.04,1334.73 2159.4,1333.38 2167.76,1382.8 2176.13,1426.17 2184.49,1322.24 2192.85,1362.71 2201.22,1280.41 2209.58,1333.83 2217.95,1436.93 2226.31,1321.37 2234.67,1338.32 2243.04,1355.58 2251.4,1377.59 2259.76,1427.07 2268.13,1291.97 2276.49,1347.74 2284.85,1430.5 2293.22,1307.38 2301.58,1387.21 2309.95,1319.79 2318.31,1349.4 2326.67,1404.26 2335.04,1394.09 2343.4,1480.8 2351.76,1332.16 2360.13,1414.9 2368.49,1448.94 2376.85,1368.92 2385.22,1462.58 2393.58,1464.91 2401.95,1470.41 2410.31,1483.14 2418.67,1496.66 2427.04,1548 2435.4,1454.77 2443.76,1500.63 2452.13,1543.35 2460.49,1461.61 2468.86,1481.09 2477.22,1521.81 2485.58,1465.99 2493.95,1584.89 2502.31,1466.07 2510.67,1497.65 2519.04,1550.57 2527.4,1447.57 2535.76,1588.24 2544.13,1512.27 2552.49,1496.83 2560.86,1531.72 2569.22,1559.79 2577.58,1480.48 2585.95,1490.79 2594.31,1557.1 2602.67,1490.7 2611.04,1546.48 "/>
<polyline clip-path="url(#clip241)" style="stroke:#009e73; stroke-linecap:round; stroke-linejoin:round; stroke-width:8; stroke-opacity:1; fill:none" points="511.757,319.903 520.121,425.635 528.485,499.315 536.848,566.851 545.212,632.388 553.576,684.369 561.939,733.889 570.303,782.966 578.667,824.098 587.03,875.712 595.394,914.668 603.758,952.602 612.121,988.876 620.485,1024.69 628.849,1049.26 637.212,1079.62 645.576,1101.9 653.94,1123.23 662.303,1136.9 670.667,1163.6 679.031,1181.89 687.394,1199.97 695.758,1222.65 704.122,1235.57 712.485,1246.21 720.849,1263.71 729.213,1271.37 737.576,1282 745.94,1289.88 754.304,1302.42 762.667,1313.3 771.031,1308.26 779.395,1325.03 787.758,1330.39 796.122,1335.22 804.486,1346.59 812.849,1350.07 821.213,1355.49 829.577,1358.84 837.94,1367.48 846.304,1366.31 854.668,1373.03 863.031,1373.59 871.395,1384.87 879.759,1383.13 888.122,1387.51 896.486,1392.74 904.85,1395.18 913.213,1401.82 921.577,1398.84 929.941,1395.6 938.304,1397.06 946.668,1400.38 955.032,1402.35 963.395,1397.74 971.759,1397.24 980.123,1402.56 988.486,1412.82 996.85,1410.94 1005.21,1410.84 1013.58,1414.05 1021.94,1405.55 1030.3,1409.04 1038.67,1406.52 1047.03,1406.56 1055.4,1413.92 1063.76,1415.2 1072.12,1418.2 1080.49,1409.26 1088.85,1410.32 1097.21,1406.33 1105.58,1406.27 1113.94,1400.85 1122.3,1408.92 1130.67,1410.32 1139.03,1404.87 1147.4,1405.35 1155.76,1402.6 1164.12,1402.14 1172.49,1406 1180.85,1403.6 1189.21,1405.11 1197.58,1411.77 1205.94,1402.22 1214.31,1401.33 1222.67,1405.77 1231.03,1404.99 1239.4,1399.69 1247.76,1400.84 1256.12,1413.33 1264.49,1407.78 1272.85,1407.81 1281.21,1411.3 1289.58,1401.29 1297.94,1410.35 1306.31,1406.95 1314.67,1409.03 1323.03,1410.01 1331.4,1413.7 1339.76,1401.57 1348.12,1407.08 1356.49,1415.3 1364.85,1405.12 1373.21,1409.06 1381.58,1404.26 1389.94,1407.6 1398.31,1405.64 1406.67,1407.19 1415.03,1407.99 1423.4,1407.76 1431.76,1407.08 1440.12,1409.13 1448.49,1399.58 1456.85,1403.05 1465.22,1401.85 1473.58,1407.83 1481.94,1407.17 1490.31,1405.92 1498.67,1407.86 1507.03,1409.55 1515.4,1409.51 1523.76,1407.28 1532.12,1409.77 1540.49,1408.32 1548.85,1412.41 1557.22,1415.08 1565.58,1419.24 1573.94,1416.02 1582.31,1414.95 1590.67,1417.4 1599.03,1409.39 1607.4,1410.24 1615.76,1413.15 1624.12,1407.52 1632.49,1413.74 1640.85,1408.9 1649.22,1408.3 1657.58,1417.46 1665.94,1408.68 1674.31,1409.16 1682.67,1404.44 1691.03,1411.32 1699.4,1414.56 1707.76,1412.08 1716.13,1416.04 1724.49,1412.61 1732.85,1422.18 1741.22,1416.4 1749.58,1420.63 1757.94,1427.82 1766.31,1421.79 1774.67,1417.33 1783.03,1425.1 1791.4,1426.48 1799.76,1425.09 1808.13,1420.88 1816.49,1422.22 1824.85,1421.39 1833.22,1418.47 1841.58,1424.9 1849.94,1419.56 1858.31,1414.47 1866.67,1418.97 1875.03,1417.03 1883.4,1411.01 1891.76,1420.56 1900.13,1420.11 1908.49,1415.93 1916.85,1414.84 1925.22,1416.02 1933.58,1417.8 1941.94,1411.64 1950.31,1403.85 1958.67,1414.06 1967.04,1412.82 1975.4,1405.78 1983.76,1415.09 1992.13,1410.42 2000.49,1403.47 2008.85,1413.45 2017.22,1417.37 2025.58,1407.77 2033.94,1405.65 2042.31,1419.37 2050.67,1415.24 2059.04,1414.78 2067.4,1409.52 2075.76,1409.34 2084.13,1413.42 2092.49,1412.25 2100.85,1419.48 2109.22,1414.4 2117.58,1419.57 2125.94,1417.09 2134.31,1417.66 2142.67,1424.37 2151.04,1417.38 2159.4,1415.83 2167.76,1417.21 2176.13,1414.11 2184.49,1415.04 2192.85,1411.21 2201.22,1407.86 2209.58,1412.78 2217.95,1416.11 2226.31,1412.38 2234.67,1416.89 2243.04,1412.29 2251.4,1411.36 2259.76,1413.15 2268.13,1413.93 2276.49,1411.46 2284.85,1414.38 2293.22,1408.86 2301.58,1411.5 2309.95,1407.99 2318.31,1411.17 2326.67,1412.63 2335.04,1418.72 2343.4,1419.97 2351.76,1420.59 2360.13,1416.33 2368.49,1412.13 2376.85,1413.11 2385.22,1408.24 2393.58,1412.19 2401.95,1419.2 2410.31,1409.82 2418.67,1408.99 2427.04,1415.94 2435.4,1403 2443.76,1415.68 2452.13,1406.04 2460.49,1414.76 2468.86,1418 2477.22,1410.95 2485.58,1420.74 2493.95,1409.42 2502.31,1413.41 2510.67,1413.9 2519.04,1413.57 2527.4,1410.35 2535.76,1405.98 2544.13,1410.12 2552.49,1409.5 2560.86,1412.97 2569.22,1409.14 2577.58,1406.56 2585.95,1406.67 2594.31,1406.14 2602.67,1408.46 2611.04,1421.92 "/>
<path clip-path="url(#clip241)" d="M511.757 455.07 L520.121 583.251 L528.485 636.816 L536.848 724.492 L545.212 799.216 L553.576 833.335 L561.939 900.541 L570.303 947.61 L578.667 1000.9 L587.03 1028.59 L595.394 1082.35 L603.758 1105 L612.121 1135.14 L620.485 1180.88 L628.849 1188.84 L637.212 1233.68 L645.576 1249.05 L653.94 1273.26 L662.303 1289.53 L670.667 1310.3 L679.031 1321.35 L687.394 1366.56 L695.758 1373.89 L704.122 1373.48 L712.485 1381.75 L720.849 1416.03 L729.213 1420.54 L737.576 1409.77 L745.94 1436.25 L754.304 1439.29 L762.667 1434.85 L771.031 1442.05 L779.395 1461.07 L787.758 1468.68 L796.122 1465.76 L804.486 1478.58 L812.849 1479.52 L821.213 1490.17 L829.577 1493.8 L837.94 1489.34 L846.304 1489.96 L854.668 1504.15 L863.031 1509.64 L871.395 1527.94 L879.759 1513.09 L888.122 1496.85 L896.486 1513.1 L904.85 1525.01 L913.213 1540.25 L921.577 1517.05 L929.941 1512.55 L938.304 1537.63 L946.668 1514.26 L955.032 1536.61 L963.395 1517.16 L971.759 1531.75 L980.123 1518.33 L988.486 1520.1 L996.85 1530.04 L1005.21 1533.16 L1013.58 1548.25 L1021.94 1533.64 L1030.3 1534.86 L1038.67 1531.47 L1047.03 1535.17 L1055.4 1559.08 L1063.76 1549.32 L1072.12 1531.93 L1080.49 1550.59 L1088.85 1539.25 L1097.21 1535.64 L1105.58 1518.95 L1113.94 1532.09 L1122.3 1533.16 L1130.67 1525.5 L1139.03 1535.74 L1147.4 1531.28 L1155.76 1514.49 L1164.12 1549.2 L1172.49 1526.07 L1180.85 1533.27 L1189.21 1522.01 L1197.58 1523.84 L1205.94 1536.19 L1214.31 1523.52 L1222.67 1531.71 L1231.03 1517.73 L1239.4 1526.48 L1247.76 1528.45 L1256.12 1540.03 L1264.49 1538.71 L1272.85 1549.29 L1281.21 1544.01 L1289.58 1525.69 L1297.94 1540.84 L1306.31 1534.85 L1314.67 1528.35 L1323.03 1536.65 L1331.4 1541.95 L1339.76 1527.34 L1348.12 1551.01 L1356.49 1552.21 L1364.85 1550.11 L1373.21 1540.01 L1381.58 1534.13 L1389.94 1540.77 L1398.31 1537.22 L1406.67 1530.08 L1415.03 1545.17 L1423.4 1535.51 L1431.76 1545.8 L1440.12 1543.33 L1448.49 1537.75 L1456.85 1541.53 L1465.22 1529.23 L1473.58 1545.14 L1481.94 1537.85 L1490.31 1529.04 L1498.67 1539.84 L1507.03 1532.4 L1515.4 1538.93 L1523.76 1541.46 L1532.12 1541.72 L1540.49 1542.48 L1548.85 1541.68 L1557.22 1543.12 L1565.58 1533.5 L1573.94 1545.44 L1582.31 1553.54 L1590.67 1543.55 L1599.03 1551.98 L1607.4 1536 L1615.76 1530.84 L1624.12 1539.29 L1632.49 1538.65 L1640.85 1527.49 L1649.22 1531.34 L1657.58 1542.42 L1665.94 1530.99 L1674.31 1542.09 L1682.67 1513.64 L1691.03 1528.75 L1699.4 1528.02 L1707.76 1548.1 L1716.13 1538.02 L1724.49 1531.99 L1732.85 1536.68 L1741.22 1526.34 L1749.58 1535.16 L1757.94 1539.12 L1766.31 1556.57 L1774.67 1534.63 L1783.03 1547.72 L1791.4 1552.37 L1799.76 1530.21 L1808.13 1547.23 L1816.49 1544.69 L1824.85 1546.32 L1833.22 1551.6 L1841.58 1547.98 L1849.94 1543.61 L1858.31 1551.18 L1866.67 1541.45 L1875.03 1530.91 L1883.4 1551.62 L1891.76 1550.76 L1900.13 1554.07 L1908.49 1549.72 L1916.85 1539.37 L1925.22 1557.28 L1933.58 1554.99 L1941.94 1534.73 L1950.31 1528.85 L1958.67 1530.63 L1967.04 1536.36 L1975.4 1531.01 L1983.76 1533.9 L1992.13 1525.85 L2000.49 1538.28 L2008.85 1552.14 L2017.22 1556.74 L2025.58 1538.3 L2033.94 1531.41 L2042.31 1549.86 L2050.67 1528.45 L2059.04 1544.21 L2067.4 1535.4 L2075.76 1532.48 L2084.13 1537.59 L2092.49 1549.64 L2100.85 1541.5 L2109.22 1544.1 L2117.58 1554.56 L2125.94 1551.9 L2134.31 1555.05 L2142.67 1556.51 L2151.04 1542.57 L2159.4 1527.32 L2167.76 1521.84 L2176.13 1546 L2184.49 1535.74 L2192.85 1530.07 L2201.22 1527.32 L2209.58 1537.47 L2217.95 1543.96 L2226.31 1532.62 L2234.67 1541.08 L2243.04 1524.7 L2251.4 1527.58 L2259.76 1533.78 L2268.13 1529.04 L2276.49 1521.91 L2284.85 1540.52 L2293.22 1509.26 L2301.58 1519.93 L2309.95 1529.19 L2318.31 1522.8 L2326.67 1529.1 L2335.04 1549.88 L2343.4 1562.36 L2351.76 1547.3 L2360.13 1536.63 L2368.49 1534.34 L2376.85 1538.17 L2385.22 1539.74 L2393.58 1533.85 L2401.95 1548.18 L2410.31 1536.5 L2418.67 1523.55 L2427.04 1529.17 L2435.4 1530.6 L2443.76 1546.63 L2452.13 1538.61 L2460.49 1532.7 L2468.86 1539.98 L2477.22 1547.75 L2485.58 1545.01 L2493.95 1532.36 L2502.31 1536.98 L2510.67 1554.76 L2519.04 1532.09 L2527.4 1531.18 L2535.76 1524.87 L2544.13 1519.24 L2552.49 1536.74 L2560.86 1528.38 L2569.22 1531.93 L2577.58 1536.96 L2585.95 1536.53 L2594.31 1539.72 L2602.67 1541.66 L2611.04 1540.09 L2611.04 1302.62 L2602.67 1267.24 L2594.31 1272.94 L2585.95 1277.03 L2577.58 1280.14 L2569.22 1298.95 L2560.86 1304.62 L2552.49 1283.37 L2544.13 1276.22 L2535.76 1275.99 L2527.4 1276.49 L2519.04 1285.77 L2510.67 1278.03 L2502.31 1289.35 L2493.95 1267.21 L2485.58 1288 L2477.22 1270.3 L2468.86 1287.41 L2460.49 1280.72 L2452.13 1292.35 L2443.76 1291.34 L2435.4 1285.3 L2427.04 1291.73 L2418.67 1291.51 L2410.31 1289.6 L2401.95 1290.91 L2393.58 1298.79 L2385.22 1284.29 L2376.85 1272.55 L2368.49 1293.77 L2360.13 1302.08 L2351.76 1300.07 L2343.4 1300.89 L2335.04 1304.21 L2326.67 1302.73 L2318.31 1303.61 L2309.95 1290.15 L2301.58 1311.38 L2293.22 1294.6 L2284.85 1306.14 L2276.49 1315.91 L2268.13 1309.8 L2259.76 1295.83 L2251.4 1305.45 L2243.04 1283.24 L2234.67 1293.13 L2226.31 1284.41 L2217.95 1300.47 L2209.58 1282.18 L2201.22 1286.84 L2192.85 1282.97 L2184.49 1275 L2176.13 1284.62 L2167.76 1297.7 L2159.4 1289.99 L2151.04 1288.46 L2142.67 1299.53 L2134.31 1292.39 L2125.94 1279.89 L2117.58 1291.37 L2109.22 1277.55 L2100.85 1279.56 L2092.49 1286.95 L2084.13 1291.71 L2075.76 1282.04 L2067.4 1301 L2059.04 1291.65 L2050.67 1291.44 L2042.31 1278.37 L2033.94 1263.48 L2025.58 1279.84 L2017.22 1289.27 L2008.85 1293.52 L2000.49 1252.05 L1992.13 1297.96 L1983.76 1276.09 L1975.4 1294.96 L1967.04 1290.84 L1958.67 1297.39 L1950.31 1279.89 L1941.94 1291.5 L1933.58 1297.1 L1925.22 1292.07 L1916.85 1284.61 L1908.49 1280.56 L1900.13 1306.72 L1891.76 1308.06 L1883.4 1282.92 L1875.03 1297.6 L1866.67 1304.54 L1858.31 1288.37 L1849.94 1308.3 L1841.58 1305.5 L1833.22 1295.47 L1824.85 1304.56 L1816.49 1302.72 L1808.13 1285.78 L1799.76 1322.41 L1791.4 1303.5 L1783.03 1307.2 L1774.67 1300.5 L1766.31 1281.85 L1757.94 1290.39 L1749.58 1288.05 L1741.22 1295.82 L1732.85 1300.44 L1724.49 1284.09 L1716.13 1306.19 L1707.76 1307.33 L1699.4 1290.47 L1691.03 1287.94 L1682.67 1281.22 L1674.31 1282.18 L1665.94 1297.33 L1657.58 1290.52 L1649.22 1287.95 L1640.85 1285.04 L1632.49 1294.38 L1624.12 1271.45 L1615.76 1279.63 L1607.4 1284.38 L1599.03 1275.74 L1590.67 1282.72 L1582.31 1273.71 L1573.94 1263.99 L1565.58 1286.45 L1557.22 1273.14 L1548.85 1284.52 L1540.49 1262.1 L1532.12 1269.44 L1523.76 1264.37 L1515.4 1273.72 L1507.03 1270.44 L1498.67 1271.95 L1490.31 1271.98 L1481.94 1279.02 L1473.58 1279.81 L1465.22 1261.04 L1456.85 1266.46 L1448.49 1276.88 L1440.12 1279.73 L1431.76 1258.11 L1423.4 1275.47 L1415.03 1289.57 L1406.67 1262.07 L1398.31 1281.87 L1389.94 1273.95 L1381.58 1275 L1373.21 1270.42 L1364.85 1274 L1356.49 1268.29 L1348.12 1262.19 L1339.76 1273.22 L1331.4 1289.02 L1323.03 1296.87 L1314.67 1284.71 L1306.31 1279.27 L1297.94 1246.24 L1289.58 1253.89 L1281.21 1284.72 L1272.85 1252.31 L1264.49 1260.82 L1256.12 1286.26 L1247.76 1262.38 L1239.4 1259.86 L1231.03 1264.65 L1222.67 1264.55 L1214.31 1265.04 L1205.94 1265.2 L1197.58 1280.56 L1189.21 1278.05 L1180.85 1260.72 L1172.49 1275.02 L1164.12 1261.43 L1155.76 1268.81 L1147.4 1274.37 L1139.03 1284.66 L1130.67 1280.38 L1122.3 1275.14 L1113.94 1270.52 L1105.58 1280.11 L1097.21 1286.21 L1088.85 1284.71 L1080.49 1269.89 L1072.12 1276.64 L1063.76 1264.53 L1055.4 1274.64 L1047.03 1279.97 L1038.67 1279.04 L1030.3 1276.53 L1021.94 1289.2 L1013.58 1278.22 L1005.21 1297.01 L996.85 1283.28 L988.486 1304.98 L980.123 1284.79 L971.759 1281.35 L963.395 1272.09 L955.032 1262.17 L946.668 1280.46 L938.304 1271.66 L929.941 1286.48 L921.577 1265.77 L913.213 1273.45 L904.85 1276.5 L896.486 1275.22 L888.122 1268.71 L879.759 1247.62 L871.395 1241.19 L863.031 1230.02 L854.668 1225.99 L846.304 1238.01 L837.94 1221.7 L829.577 1224.96 L821.213 1232.88 L812.849 1205.63 L804.486 1200.92 L796.122 1191.58 L787.758 1190.62 L779.395 1187.61 L771.031 1176.55 L762.667 1168.6 L754.304 1159.9 L745.94 1145.37 L737.576 1139.42 L729.213 1118.6 L720.849 1117.61 L712.485 1085.33 L704.122 1071.21 L695.758 1047.62 L687.394 1032.04 L679.031 1018.78 L670.667 1001.01 L662.303 979.234 L653.94 964.024 L645.576 957.343 L637.212 927.887 L628.849 893.557 L620.485 859.349 L612.121 845.145 L603.758 799.569 L595.394 767.737 L587.03 711.677 L578.667 651.156 L570.303 626.354 L561.939 582.938 L553.576 546.369 L545.212 479.497 L536.848 400.359 L528.485 334.528 L520.121 274.956 L511.757 168.574  Z" fill="#009e73" fill-rule="evenodd" fill-opacity="0.2"/>
<polyline clip-path="url(#clip241)" style="stroke:#009e73; stroke-linecap:round; stroke-linejoin:round; stroke-width:4; stroke-opacity:0.2; fill:none" points="511.757,455.07 520.121,583.251 528.485,636.816 536.848,724.492 545.212,799.216 553.576,833.335 561.939,900.541 570.303,947.61 578.667,1000.9 587.03,1028.59 595.394,1082.35 603.758,1105 612.121,1135.14 620.485,1180.88 628.849,1188.84 637.212,1233.68 645.576,1249.05 653.94,1273.26 662.303,1289.53 670.667,1310.3 679.031,1321.35 687.394,1366.56 695.758,1373.89 704.122,1373.48 712.485,1381.75 720.849,1416.03 729.213,1420.54 737.576,1409.77 745.94,1436.25 754.304,1439.29 762.667,1434.85 771.031,1442.05 779.395,1461.07 787.758,1468.68 796.122,1465.76 804.486,1478.58 812.849,1479.52 821.213,1490.17 829.577,1493.8 837.94,1489.34 846.304,1489.96 854.668,1504.15 863.031,1509.64 871.395,1527.94 879.759,1513.09 888.122,1496.85 896.486,1513.1 904.85,1525.01 913.213,1540.25 921.577,1517.05 929.941,1512.55 938.304,1537.63 946.668,1514.26 955.032,1536.61 963.395,1517.16 971.759,1531.75 980.123,1518.33 988.486,1520.1 996.85,1530.04 1005.21,1533.16 1013.58,1548.25 1021.94,1533.64 1030.3,1534.86 1038.67,1531.47 1047.03,1535.17 1055.4,1559.08 1063.76,1549.32 1072.12,1531.93 1080.49,1550.59 1088.85,1539.25 1097.21,1535.64 1105.58,1518.95 1113.94,1532.09 1122.3,1533.16 1130.67,1525.5 1139.03,1535.74 1147.4,1531.28 1155.76,1514.49 1164.12,1549.2 1172.49,1526.07 1180.85,1533.27 1189.21,1522.01 1197.58,1523.84 1205.94,1536.19 1214.31,1523.52 1222.67,1531.71 1231.03,1517.73 1239.4,1526.48 1247.76,1528.45 1256.12,1540.03 1264.49,1538.71 1272.85,1549.29 1281.21,1544.01 1289.58,1525.69 1297.94,1540.84 1306.31,1534.85 1314.67,1528.35 1323.03,1536.65 1331.4,1541.95 1339.76,1527.34 1348.12,1551.01 1356.49,1552.21 1364.85,1550.11 1373.21,1540.01 1381.58,1534.13 1389.94,1540.77 1398.31,1537.22 1406.67,1530.08 1415.03,1545.17 1423.4,1535.51 1431.76,1545.8 1440.12,1543.33 1448.49,1537.75 1456.85,1541.53 1465.22,1529.23 1473.58,1545.14 1481.94,1537.85 1490.31,1529.04 1498.67,1539.84 1507.03,1532.4 1515.4,1538.93 1523.76,1541.46 1532.12,1541.72 1540.49,1542.48 1548.85,1541.68 1557.22,1543.12 1565.58,1533.5 1573.94,1545.44 1582.31,1553.54 1590.67,1543.55 1599.03,1551.98 1607.4,1536 1615.76,1530.84 1624.12,1539.29 1632.49,1538.65 1640.85,1527.49 1649.22,1531.34 1657.58,1542.42 1665.94,1530.99 1674.31,1542.09 1682.67,1513.64 1691.03,1528.75 1699.4,1528.02 1707.76,1548.1 1716.13,1538.02 1724.49,1531.99 1732.85,1536.68 1741.22,1526.34 1749.58,1535.16 1757.94,1539.12 1766.31,1556.57 1774.67,1534.63 1783.03,1547.72 1791.4,1552.37 1799.76,1530.21 1808.13,1547.23 1816.49,1544.69 1824.85,1546.32 1833.22,1551.6 1841.58,1547.98 1849.94,1543.61 1858.31,1551.18 1866.67,1541.45 1875.03,1530.91 1883.4,1551.62 1891.76,1550.76 1900.13,1554.07 1908.49,1549.72 1916.85,1539.37 1925.22,1557.28 1933.58,1554.99 1941.94,1534.73 1950.31,1528.85 1958.67,1530.63 1967.04,1536.36 1975.4,1531.01 1983.76,1533.9 1992.13,1525.85 2000.49,1538.28 2008.85,1552.14 2017.22,1556.74 2025.58,1538.3 2033.94,1531.41 2042.31,1549.86 2050.67,1528.45 2059.04,1544.21 2067.4,1535.4 2075.76,1532.48 2084.13,1537.59 2092.49,1549.64 2100.85,1541.5 2109.22,1544.1 2117.58,1554.56 2125.94,1551.9 2134.31,1555.05 2142.67,1556.51 2151.04,1542.57 2159.4,1527.32 2167.76,1521.84 2176.13,1546 2184.49,1535.74 2192.85,1530.07 2201.22,1527.32 2209.58,1537.47 2217.95,1543.96 2226.31,1532.62 2234.67,1541.08 2243.04,1524.7 2251.4,1527.58 2259.76,1533.78 2268.13,1529.04 2276.49,1521.91 2284.85,1540.52 2293.22,1509.26 2301.58,1519.93 2309.95,1529.19 2318.31,1522.8 2326.67,1529.1 2335.04,1549.88 2343.4,1562.36 2351.76,1547.3 2360.13,1536.63 2368.49,1534.34 2376.85,1538.17 2385.22,1539.74 2393.58,1533.85 2401.95,1548.18 2410.31,1536.5 2418.67,1523.55 2427.04,1529.17 2435.4,1530.6 2443.76,1546.63 2452.13,1538.61 2460.49,1532.7 2468.86,1539.98 2477.22,1547.75 2485.58,1545.01 2493.95,1532.36 2502.31,1536.98 2510.67,1554.76 2519.04,1532.09 2527.4,1531.18 2535.76,1524.87 2544.13,1519.24 2552.49,1536.74 2560.86,1528.38 2569.22,1531.93 2577.58,1536.96 2585.95,1536.53 2594.31,1539.72 2602.67,1541.66 2611.04,1540.09 "/>
<path clip-path="url(#clip240)" d="M1946.56 409.426 L2599.84 409.426 L2599.84 176.146 L1946.56 176.146  Z" fill="#ffffff" fill-rule="evenodd" fill-opacity="1"/>
<polyline clip-path="url(#clip240)" style="stroke:#000000; stroke-linecap:round; stroke-linejoin:round; stroke-width:4; stroke-opacity:1; fill:none" points="1946.56,409.426 2599.84,409.426 2599.84,176.146 1946.56,176.146 1946.56,409.426 "/>
<polyline clip-path="url(#clip240)" style="stroke:#d45e00; stroke-linecap:round; stroke-linejoin:round; stroke-width:9; stroke-opacity:1; fill:none" stroke-dasharray="36, 23" points="1971.29,234.466 2119.64,234.466 "/>
<path clip-path="url(#clip240)" d="M2162.38 218.594 Q2156.66 218.594 2153.27 222.864 Q2149.91 227.135 2149.91 234.505 Q2149.91 241.849 2153.27 246.119 Q2156.66 250.39 2162.38 250.39 Q2168.11 250.39 2171.45 246.119 Q2174.81 241.849 2174.81 234.505 Q2174.81 227.135 2171.45 222.864 Q2168.11 218.594 2162.38 218.594 M2162.38 214.323 Q2170.56 214.323 2175.46 219.817 Q2180.35 225.286 2180.35 234.505 Q2180.35 243.698 2175.46 249.192 Q2170.56 254.661 2162.38 254.661 Q2154.18 254.661 2149.26 249.192 Q2144.36 243.724 2144.36 234.505 Q2144.36 225.286 2149.26 219.817 Q2154.18 214.323 2162.38 214.323 Z" fill="#000000" fill-rule="nonzero" fill-opacity="1" /><path clip-path="url(#clip240)" d="M2209.31 239.349 Q2209.31 234.062 2207.12 231.067 Q2204.96 228.047 2201.16 228.047 Q2197.36 228.047 2195.17 231.067 Q2193.01 234.062 2193.01 239.349 Q2193.01 244.635 2195.17 247.656 Q2197.36 250.651 2201.16 250.651 Q2204.96 250.651 2207.12 247.656 Q2209.31 244.635 2209.31 239.349 M2193.01 229.166 Q2194.52 226.562 2196.81 225.312 Q2199.13 224.036 2202.33 224.036 Q2207.64 224.036 2210.95 228.255 Q2214.28 232.474 2214.28 239.349 Q2214.28 246.224 2210.95 250.442 Q2207.64 254.661 2202.33 254.661 Q2199.13 254.661 2196.81 253.411 Q2194.52 252.135 2193.01 249.531 L2193.01 253.906 L2188.19 253.906 L2188.19 213.385 L2193.01 213.385 L2193.01 229.166 Z" fill="#000000" fill-rule="nonzero" fill-opacity="1" /><path clip-path="url(#clip240)" d="M2240.82 225.599 L2240.82 230.13 Q2238.79 229.088 2236.6 228.567 Q2234.42 228.047 2232.07 228.047 Q2228.5 228.047 2226.71 229.14 Q2224.94 230.234 2224.94 232.422 Q2224.94 234.088 2226.21 235.052 Q2227.49 235.989 2231.34 236.849 L2232.98 237.213 Q2238.09 238.307 2240.22 240.312 Q2242.38 242.291 2242.38 245.859 Q2242.38 249.921 2239.15 252.291 Q2235.95 254.661 2230.33 254.661 Q2227.98 254.661 2225.43 254.192 Q2222.9 253.75 2220.09 252.838 L2220.09 247.89 Q2222.75 249.27 2225.33 249.974 Q2227.9 250.651 2230.43 250.651 Q2233.82 250.651 2235.64 249.505 Q2237.46 248.333 2237.46 246.224 Q2237.46 244.27 2236.13 243.229 Q2234.83 242.187 2230.38 241.224 L2228.71 240.833 Q2224.26 239.895 2222.28 237.968 Q2220.3 236.015 2220.3 232.63 Q2220.3 228.515 2223.22 226.276 Q2226.13 224.036 2231.5 224.036 Q2234.15 224.036 2236.5 224.427 Q2238.84 224.817 2240.82 225.599 Z" fill="#000000" fill-rule="nonzero" fill-opacity="1" /><path clip-path="url(#clip240)" d="M2274.96 238.125 L2274.96 240.468 L2252.93 240.468 Q2253.24 245.416 2255.9 248.02 Q2258.58 250.599 2263.35 250.599 Q2266.11 250.599 2268.69 249.921 Q2271.29 249.244 2273.84 247.89 L2273.84 252.421 Q2271.26 253.515 2268.56 254.088 Q2265.85 254.661 2263.06 254.661 Q2256.08 254.661 2251.99 250.599 Q2247.93 246.536 2247.93 239.609 Q2247.93 232.448 2251.78 228.255 Q2255.66 224.036 2262.23 224.036 Q2268.11 224.036 2271.52 227.838 Q2274.96 231.614 2274.96 238.125 M2270.17 236.718 Q2270.12 232.786 2267.96 230.442 Q2265.82 228.099 2262.28 228.099 Q2258.27 228.099 2255.85 230.364 Q2253.45 232.63 2253.09 236.744 L2270.17 236.718 Z" fill="#000000" fill-rule="nonzero" fill-opacity="1" /><path clip-path="url(#clip240)" d="M2299.73 229.218 Q2298.92 228.75 2297.96 228.541 Q2297.02 228.307 2295.87 228.307 Q2291.81 228.307 2289.62 230.963 Q2287.46 233.593 2287.46 238.541 L2287.46 253.906 L2282.64 253.906 L2282.64 224.739 L2287.46 224.739 L2287.46 229.271 Q2288.97 226.614 2291.39 225.338 Q2293.82 224.036 2297.28 224.036 Q2297.77 224.036 2298.37 224.114 Q2298.97 224.166 2299.7 224.297 L2299.73 229.218 Z" fill="#000000" fill-rule="nonzero" fill-opacity="1" /><path clip-path="url(#clip240)" d="M2301.32 224.739 L2306.39 224.739 L2315.51 249.218 L2324.62 224.739 L2329.7 224.739 L2318.76 253.906 L2312.25 253.906 L2301.32 224.739 Z" fill="#000000" fill-rule="nonzero" fill-opacity="1" /><path clip-path="url(#clip240)" d="M2361.26 238.125 L2361.26 240.468 L2339.23 240.468 Q2339.54 245.416 2342.2 248.02 Q2344.88 250.599 2349.65 250.599 Q2352.41 250.599 2354.99 249.921 Q2357.59 249.244 2360.14 247.89 L2360.14 252.421 Q2357.57 253.515 2354.86 254.088 Q2352.15 254.661 2349.36 254.661 Q2342.38 254.661 2338.29 250.599 Q2334.23 246.536 2334.23 239.609 Q2334.23 232.448 2338.09 228.255 Q2341.97 224.036 2348.53 224.036 Q2354.41 224.036 2357.83 227.838 Q2361.26 231.614 2361.26 238.125 M2356.47 236.718 Q2356.42 232.786 2354.26 230.442 Q2352.12 228.099 2348.58 228.099 Q2344.57 228.099 2342.15 230.364 Q2339.75 232.63 2339.39 236.744 L2356.47 236.718 Z" fill="#000000" fill-rule="nonzero" fill-opacity="1" /><path clip-path="url(#clip240)" d="M2388.32 229.166 L2388.32 213.385 L2393.11 213.385 L2393.11 253.906 L2388.32 253.906 L2388.32 249.531 Q2386.81 252.135 2384.49 253.411 Q2382.2 254.661 2378.97 254.661 Q2373.69 254.661 2370.35 250.442 Q2367.04 246.224 2367.04 239.349 Q2367.04 232.474 2370.35 228.255 Q2373.69 224.036 2378.97 224.036 Q2382.2 224.036 2384.49 225.312 Q2386.81 226.562 2388.32 229.166 M2371.99 239.349 Q2371.99 244.635 2374.15 247.656 Q2376.34 250.651 2380.14 250.651 Q2383.95 250.651 2386.13 247.656 Q2388.32 244.635 2388.32 239.349 Q2388.32 234.062 2386.13 231.067 Q2383.95 228.047 2380.14 228.047 Q2376.34 228.047 2374.15 231.067 Q2371.99 234.062 2371.99 239.349 Z" fill="#000000" fill-rule="nonzero" fill-opacity="1" /><polyline clip-path="url(#clip240)" style="stroke:#009e73; stroke-linecap:round; stroke-linejoin:round; stroke-width:9; stroke-opacity:1; fill:none" points="1971.29,292.786 2119.64,292.786 "/>
<path clip-path="url(#clip240)" d="M2175.72 276.341 L2175.72 281.887 Q2173.06 279.414 2170.04 278.19 Q2167.05 276.966 2163.66 276.966 Q2156.99 276.966 2153.45 281.054 Q2149.91 285.117 2149.91 292.825 Q2149.91 300.507 2153.45 304.596 Q2156.99 308.658 2163.66 308.658 Q2167.05 308.658 2170.04 307.434 Q2173.06 306.21 2175.72 303.736 L2175.72 309.231 Q2172.96 311.106 2169.86 312.044 Q2166.79 312.981 2163.35 312.981 Q2154.52 312.981 2149.44 307.59 Q2144.36 302.174 2144.36 292.825 Q2144.36 283.45 2149.44 278.059 Q2154.52 272.643 2163.35 272.643 Q2166.84 272.643 2169.91 273.58 Q2173.01 274.492 2175.72 276.341 Z" fill="#000000" fill-rule="nonzero" fill-opacity="1" /><path clip-path="url(#clip240)" d="M2183.84 273.346 L2189.1 273.346 L2189.1 289.283 L2208.22 289.283 L2208.22 273.346 L2213.48 273.346 L2213.48 312.226 L2208.22 312.226 L2208.22 293.71 L2189.1 293.71 L2189.1 312.226 L2183.84 312.226 L2183.84 273.346 Z" fill="#000000" fill-rule="nonzero" fill-opacity="1" /><path clip-path="url(#clip240)" d="M2223.95 273.346 L2231.78 273.346 L2241.71 299.804 L2251.68 273.346 L2259.52 273.346 L2259.52 312.226 L2254.39 312.226 L2254.39 278.085 L2244.36 304.752 L2239.08 304.752 L2229.05 278.085 L2229.05 312.226 L2223.95 312.226 L2223.95 273.346 Z" fill="#000000" fill-rule="nonzero" fill-opacity="1" /><path clip-path="url(#clip240)" d="M2269.96 273.346 L2277.8 273.346 L2287.72 299.804 L2297.7 273.346 L2305.53 273.346 L2305.53 312.226 L2300.4 312.226 L2300.4 278.085 L2290.38 304.752 L2285.09 304.752 L2275.07 278.085 L2275.07 312.226 L2269.96 312.226 L2269.96 273.346 Z" fill="#000000" fill-rule="nonzero" fill-opacity="1" /><path clip-path="url(#clip240)" d="M2313.35 295.481 L2327.38 295.481 L2327.38 299.752 L2313.35 299.752 L2313.35 295.481 Z" fill="#000000" fill-rule="nonzero" fill-opacity="1" /><path clip-path="url(#clip240)" d="M2335.22 273.346 L2342.31 273.346 L2359.54 305.872 L2359.54 273.346 L2364.65 273.346 L2364.65 312.226 L2357.57 312.226 L2340.33 279.7 L2340.33 312.226 L2335.22 312.226 L2335.22 273.346 Z" fill="#000000" fill-rule="nonzero" fill-opacity="1" /><path clip-path="url(#clip240)" d="M2403.37 271.757 Q2399.88 277.747 2398.19 283.606 Q2396.5 289.466 2396.5 295.481 Q2396.5 301.497 2398.19 307.408 Q2399.91 313.294 2403.37 319.257 L2399.21 319.257 Q2395.3 313.137 2393.35 307.226 Q2391.42 301.314 2391.42 295.481 Q2391.42 289.674 2393.35 283.788 Q2395.27 277.903 2399.21 271.757 L2403.37 271.757 Z" fill="#000000" fill-rule="nonzero" fill-opacity="1" /><path clip-path="url(#clip240)" d="M2435.38 288.658 Q2437.17 285.429 2439.67 283.893 Q2442.17 282.356 2445.56 282.356 Q2450.12 282.356 2452.59 285.559 Q2455.06 288.736 2455.06 294.622 L2455.06 312.226 L2450.25 312.226 L2450.25 294.778 Q2450.25 290.585 2448.76 288.554 Q2447.28 286.523 2444.23 286.523 Q2440.51 286.523 2438.35 288.997 Q2436.18 291.471 2436.18 295.742 L2436.18 312.226 L2431.37 312.226 L2431.37 294.778 Q2431.37 290.559 2429.88 288.554 Q2428.4 286.523 2425.3 286.523 Q2421.63 286.523 2419.47 289.023 Q2417.3 291.497 2417.3 295.742 L2417.3 312.226 L2412.49 312.226 L2412.49 283.059 L2417.3 283.059 L2417.3 287.591 Q2418.95 284.908 2421.24 283.632 Q2423.53 282.356 2426.68 282.356 Q2429.86 282.356 2432.07 283.971 Q2434.31 285.585 2435.38 288.658 Z" fill="#000000" fill-rule="nonzero" fill-opacity="1" /><path clip-path="url(#clip240)" d="M2489.57 296.445 L2489.57 298.788 L2467.54 298.788 Q2467.85 303.736 2470.51 306.34 Q2473.19 308.919 2477.96 308.919 Q2480.72 308.919 2483.29 308.241 Q2485.9 307.564 2488.45 306.21 L2488.45 310.741 Q2485.87 311.835 2483.16 312.408 Q2480.46 312.981 2477.67 312.981 Q2470.69 312.981 2466.6 308.919 Q2462.54 304.856 2462.54 297.929 Q2462.54 290.768 2466.39 286.575 Q2470.27 282.356 2476.84 282.356 Q2482.72 282.356 2486.13 286.158 Q2489.57 289.934 2489.57 296.445 M2484.78 295.038 Q2484.73 291.106 2482.56 288.762 Q2480.43 286.419 2476.89 286.419 Q2472.88 286.419 2470.46 288.684 Q2468.06 290.95 2467.7 295.064 L2484.78 295.038 Z" fill="#000000" fill-rule="nonzero" fill-opacity="1" /><path clip-path="url(#clip240)" d="M2510.69 297.564 Q2504.88 297.564 2502.64 298.893 Q2500.4 300.221 2500.4 303.424 Q2500.4 305.976 2502.07 307.486 Q2503.76 308.971 2506.65 308.971 Q2510.64 308.971 2513.03 306.158 Q2515.46 303.32 2515.46 298.632 L2515.46 297.564 L2510.69 297.564 M2520.25 295.585 L2520.25 312.226 L2515.46 312.226 L2515.46 307.799 Q2513.81 310.455 2511.37 311.731 Q2508.92 312.981 2505.38 312.981 Q2500.9 312.981 2498.24 310.481 Q2495.61 307.955 2495.61 303.736 Q2495.61 298.814 2498.89 296.314 Q2502.2 293.814 2508.74 293.814 L2515.46 293.814 L2515.46 293.346 Q2515.46 290.038 2513.27 288.242 Q2511.11 286.419 2507.17 286.419 Q2504.67 286.419 2502.3 287.018 Q2499.93 287.617 2497.75 288.814 L2497.75 284.387 Q2500.38 283.372 2502.85 282.877 Q2505.33 282.356 2507.67 282.356 Q2514 282.356 2517.12 285.637 Q2520.25 288.919 2520.25 295.585 Z" fill="#000000" fill-rule="nonzero" fill-opacity="1" /><path clip-path="url(#clip240)" d="M2554.36 294.622 L2554.36 312.226 L2549.57 312.226 L2549.57 294.778 Q2549.57 290.637 2547.96 288.58 Q2546.34 286.523 2543.11 286.523 Q2539.23 286.523 2536.99 288.997 Q2534.75 291.471 2534.75 295.742 L2534.75 312.226 L2529.93 312.226 L2529.93 283.059 L2534.75 283.059 L2534.75 287.591 Q2536.47 284.96 2538.79 283.658 Q2541.13 282.356 2544.18 282.356 Q2549.21 282.356 2551.78 285.481 Q2554.36 288.58 2554.36 294.622 Z" fill="#000000" fill-rule="nonzero" fill-opacity="1" /><path clip-path="url(#clip240)" d="M2563.16 271.757 L2567.33 271.757 Q2571.24 277.903 2573.16 283.788 Q2575.12 289.674 2575.12 295.481 Q2575.12 301.314 2573.16 307.226 Q2571.24 313.137 2567.33 319.257 L2563.16 319.257 Q2566.63 313.294 2568.32 307.408 Q2570.04 301.497 2570.04 295.481 Q2570.04 289.466 2568.32 283.606 Q2566.63 277.747 2563.16 271.757 Z" fill="#000000" fill-rule="nonzero" fill-opacity="1" /><path clip-path="url(#clip240)" d="M1971.29 374.434 L2119.64 374.434 L2119.64 327.778 L1971.29 327.778 L1971.29 374.434  Z" fill="#009e73" fill-rule="evenodd" fill-opacity="0.2"/>
<polyline clip-path="url(#clip240)" style="stroke:#009e73; stroke-linecap:round; stroke-linejoin:round; stroke-width:4.5; stroke-opacity:0.2; fill:none" points="1971.29,327.778 2119.64,327.778 "/>
<path clip-path="url(#clip240)" d="M2145.12 366.119 L2153.71 366.119 L2153.71 336.457 L2144.36 338.332 L2144.36 333.541 L2153.66 331.666 L2158.92 331.666 L2158.92 366.119 L2167.51 366.119 L2167.51 370.546 L2145.12 370.546 L2145.12 366.119 Z" fill="#000000" fill-rule="nonzero" fill-opacity="1" /><path clip-path="url(#clip240)" d="M2189.39 335.129 Q2185.33 335.129 2183.27 339.14 Q2181.24 343.124 2181.24 351.145 Q2181.24 359.14 2183.27 363.15 Q2185.33 367.134 2189.39 367.134 Q2193.48 367.134 2195.51 363.15 Q2197.57 359.14 2197.57 351.145 Q2197.57 343.124 2195.51 339.14 Q2193.48 335.129 2189.39 335.129 M2189.39 330.963 Q2195.93 330.963 2199.36 336.145 Q2202.83 341.301 2202.83 351.145 Q2202.83 360.963 2199.36 366.145 Q2195.93 371.301 2189.39 371.301 Q2182.85 371.301 2179.39 366.145 Q2175.95 360.963 2175.95 351.145 Q2175.95 341.301 2179.39 336.145 Q2182.85 330.963 2189.39 330.963 Z" fill="#000000" fill-rule="nonzero" fill-opacity="1" /><path clip-path="url(#clip240)" d="M2208.97 353.801 L2223.01 353.801 L2223.01 358.072 L2208.97 358.072 L2208.97 353.801 Z" fill="#000000" fill-rule="nonzero" fill-opacity="1" /><path clip-path="url(#clip240)" d="M2231.47 369.739 L2231.47 364.947 Q2233.45 365.884 2235.48 366.379 Q2237.51 366.874 2239.47 366.874 Q2244.68 366.874 2247.41 363.384 Q2250.17 359.869 2250.56 352.733 Q2249.05 354.973 2246.73 356.171 Q2244.41 357.369 2241.6 357.369 Q2235.77 357.369 2232.36 353.853 Q2228.97 350.312 2228.97 344.192 Q2228.97 338.202 2232.51 334.582 Q2236.06 330.963 2241.94 330.963 Q2248.69 330.963 2252.23 336.145 Q2255.8 341.301 2255.8 351.145 Q2255.8 360.338 2251.42 365.832 Q2247.07 371.301 2239.7 371.301 Q2237.72 371.301 2235.69 370.91 Q2233.66 370.52 2231.47 369.739 M2241.94 353.254 Q2245.48 353.254 2247.54 350.832 Q2249.62 348.411 2249.62 344.192 Q2249.62 339.999 2247.54 337.577 Q2245.48 335.129 2241.94 335.129 Q2238.4 335.129 2236.32 337.577 Q2234.26 339.999 2234.26 344.192 Q2234.26 348.411 2236.32 350.832 Q2238.4 353.254 2241.94 353.254 Z" fill="#000000" fill-rule="nonzero" fill-opacity="1" /><path clip-path="url(#clip240)" d="M2276.5 335.129 Q2272.44 335.129 2270.38 339.14 Q2268.35 343.124 2268.35 351.145 Q2268.35 359.14 2270.38 363.15 Q2272.44 367.134 2276.5 367.134 Q2280.59 367.134 2282.62 363.15 Q2284.68 359.14 2284.68 351.145 Q2284.68 343.124 2282.62 339.14 Q2280.59 335.129 2276.5 335.129 M2276.5 330.963 Q2283.03 330.963 2286.47 336.145 Q2289.94 341.301 2289.94 351.145 Q2289.94 360.963 2286.47 366.145 Q2283.03 371.301 2276.5 371.301 Q2269.96 371.301 2266.5 366.145 Q2263.06 360.963 2263.06 351.145 Q2263.06 341.301 2266.5 336.145 Q2269.96 330.963 2276.5 330.963 Z" fill="#000000" fill-rule="nonzero" fill-opacity="1" /><path clip-path="url(#clip240)" d="M2303.24 333.098 L2303.24 341.379 L2313.11 341.379 L2313.11 345.103 L2303.24 345.103 L2303.24 360.937 Q2303.24 364.504 2304.21 365.52 Q2305.2 366.535 2308.19 366.535 L2313.11 366.535 L2313.11 370.546 L2308.19 370.546 Q2302.64 370.546 2300.53 368.489 Q2298.43 366.405 2298.43 360.937 L2298.43 345.103 L2294.91 345.103 L2294.91 341.379 L2298.43 341.379 L2298.43 333.098 L2303.24 333.098 Z" fill="#000000" fill-rule="nonzero" fill-opacity="1" /><path clip-path="url(#clip240)" d="M2343.66 352.942 L2343.66 370.546 L2338.87 370.546 L2338.87 353.098 Q2338.87 348.957 2337.25 346.9 Q2335.64 344.843 2332.41 344.843 Q2328.53 344.843 2326.29 347.317 Q2324.05 349.791 2324.05 354.062 L2324.05 370.546 L2319.23 370.546 L2319.23 330.025 L2324.05 330.025 L2324.05 345.911 Q2325.77 343.28 2328.09 341.978 Q2330.43 340.676 2333.48 340.676 Q2338.5 340.676 2341.08 343.801 Q2343.66 346.9 2343.66 352.942 Z" fill="#000000" fill-rule="nonzero" fill-opacity="1" /><path clip-path="url(#clip240)" d="M2374.8 366.171 L2374.8 381.64 L2369.99 381.64 L2369.99 341.379 L2374.8 341.379 L2374.8 345.806 Q2376.32 343.202 2378.61 341.952 Q2380.92 340.676 2384.13 340.676 Q2389.44 340.676 2392.75 344.895 Q2396.08 349.114 2396.08 355.989 Q2396.08 362.864 2392.75 367.082 Q2389.44 371.301 2384.13 371.301 Q2380.92 371.301 2378.61 370.051 Q2376.32 368.775 2374.8 366.171 M2391.11 355.989 Q2391.11 350.702 2388.92 347.707 Q2386.76 344.687 2382.96 344.687 Q2379.15 344.687 2376.97 347.707 Q2374.8 350.702 2374.8 355.989 Q2374.8 361.275 2376.97 364.296 Q2379.15 367.291 2382.96 367.291 Q2386.76 367.291 2388.92 364.296 Q2391.11 361.275 2391.11 355.989 Z" fill="#000000" fill-rule="nonzero" fill-opacity="1" /><path clip-path="url(#clip240)" d="M2425.01 342.499 L2425.01 346.978 Q2422.98 345.858 2420.92 345.312 Q2418.89 344.739 2416.81 344.739 Q2412.15 344.739 2409.57 347.707 Q2406.99 350.65 2406.99 355.989 Q2406.99 361.327 2409.57 364.296 Q2412.15 367.239 2416.81 367.239 Q2418.89 367.239 2420.92 366.692 Q2422.98 366.119 2425.01 364.999 L2425.01 369.426 Q2423.01 370.364 2420.85 370.832 Q2418.71 371.301 2416.29 371.301 Q2409.7 371.301 2405.82 367.16 Q2401.94 363.02 2401.94 355.989 Q2401.94 348.853 2405.85 344.765 Q2409.78 340.676 2416.6 340.676 Q2418.82 340.676 2420.92 341.145 Q2423.03 341.588 2425.01 342.499 Z" fill="#000000" fill-rule="nonzero" fill-opacity="1" /><path clip-path="url(#clip240)" d="M2438.09 333.098 L2438.09 341.379 L2447.96 341.379 L2447.96 345.103 L2438.09 345.103 L2438.09 360.937 Q2438.09 364.504 2439.05 365.52 Q2440.04 366.535 2443.03 366.535 L2447.96 366.535 L2447.96 370.546 L2443.03 370.546 Q2437.49 370.546 2435.38 368.489 Q2433.27 366.405 2433.27 360.937 L2433.27 345.103 L2429.75 345.103 L2429.75 341.379 L2433.27 341.379 L2433.27 333.098 L2438.09 333.098 Z" fill="#000000" fill-rule="nonzero" fill-opacity="1" /><path clip-path="url(#clip240)" d="M2454.26 330.025 L2459.05 330.025 L2459.05 370.546 L2454.26 370.546 L2454.26 330.025 Z" fill="#000000" fill-rule="nonzero" fill-opacity="1" /></svg>
