<?xml version="1.0" encoding="utf-8"?>
<svg xmlns="http://www.w3.org/2000/svg" xmlns:xlink="http://www.w3.org/1999/xlink" width="700" height="500" viewBox="0 0 2800 2000">
<defs>
  <clipPath id="clip060">
    <rect x="0" y="0" width="2800" height="2000"/>
  </clipPath>
</defs>
<path clip-path="url(#clip060)" d="M0 2000 L2800 2000 L2800 -4.44089e-14 L0 -4.44089e-14  Z" fill="#ffffff" fill-rule="evenodd" fill-opacity="1"/>
<defs>
  <clipPath id="clip061">
    <rect x="477" y="125" width="2198" height="1506"/>
  </clipPath>
</defs>
<path clip-path="url(#clip060)" d="M477.222 1630.83 L2674.02 1630.83 L2674.02 125.984 L477.222 125.984  Z" fill="#ffffff" fill-rule="evenodd" fill-opacity="1"/>
<polyline clip-path="url(#clip061)" style="stroke:#000000; stroke-linecap:round; stroke-linejoin:round; stroke-width:2; stroke-opacity:0.1; fill:none" points="756.531,1630.83 756.531,125.984 "/>
<polyline clip-path="url(#clip061)" style="stroke:#000000; stroke-linecap:round; stroke-linejoin:round; stroke-width:2; stroke-opacity:0.1; fill:none" points="1230.68,1630.83 1230.68,125.984 "/>
<polyline clip-path="url(#clip061)" style="stroke:#000000; stroke-linecap:round; stroke-linejoin:round; stroke-width:2; stroke-opacity:0.1; fill:none" points="1704.83,1630.83 1704.83,125.984 "/>
<polyline clip-path="url(#clip061)" style="stroke:#000000; stroke-linecap:round; stroke-linejoin:round; stroke-width:2; stroke-opacity:0.1; fill:none" points="2178.98,1630.83 2178.98,125.984 "/>
<polyline clip-path="url(#clip061)" style="stroke:#000000; stroke-linecap:round; stroke-linejoin:round; stroke-width:2; stroke-opacity:0.1; fill:none" points="2653.13,1630.83 2653.13,125.984 "/>
<polyline clip-path="url(#clip061)" style="stroke:#000000; stroke-linecap:round; stroke-linejoin:round; stroke-width:2; stroke-opacity:0.1; fill:none" points="477.222,1442.71 2674.02,1442.71 "/>
<polyline clip-path="url(#clip061)" style="stroke:#000000; stroke-linecap:round; stroke-linejoin:round; stroke-width:2; stroke-opacity:0.1; fill:none" points="477.222,1124.93 2674.02,1124.93 "/>
<polyline clip-path="url(#clip061)" style="stroke:#000000; stroke-linecap:round; stroke-linejoin:round; stroke-width:2; stroke-opacity:0.1; fill:none" points="477.222,807.146 2674.02,807.146 "/>
<polyline clip-path="url(#clip061)" style="stroke:#000000; stroke-linecap:round; stroke-linejoin:round; stroke-width:2; stroke-opacity:0.1; fill:none" points="477.222,489.362 2674.02,489.362 "/>
<polyline clip-path="url(#clip061)" style="stroke:#000000; stroke-linecap:round; stroke-linejoin:round; stroke-width:2; stroke-opacity:0.1; fill:none" points="477.222,171.579 2674.02,171.579 "/>
<polyline clip-path="url(#clip060)" style="stroke:#000000; stroke-linecap:round; stroke-linejoin:round; stroke-width:4; stroke-opacity:1; fill:none" points="477.222,1630.83 2674.02,1630.83 "/>
<polyline clip-path="url(#clip060)" style="stroke:#000000; stroke-linecap:round; stroke-linejoin:round; stroke-width:4; stroke-opacity:1; fill:none" points="756.531,1630.83 756.531,1611.93 "/>
<polyline clip-path="url(#clip060)" style="stroke:#000000; stroke-linecap:round; stroke-linejoin:round; stroke-width:4; stroke-opacity:1; fill:none" points="1230.68,1630.83 1230.68,1611.93 "/>
<polyline clip-path="url(#clip060)" style="stroke:#000000; stroke-linecap:round; stroke-linejoin:round; stroke-width:4; stroke-opacity:1; fill:none" points="1704.83,1630.83 1704.83,1611.93 "/>
<polyline clip-path="url(#clip060)" style="stroke:#000000; stroke-linecap:round; stroke-linejoin:round; stroke-width:4; stroke-opacity:1; fill:none" points="2178.98,1630.83 2178.98,1611.93 "/>
<polyline clip-path="url(#clip060)" style="stroke:#000000; stroke-linecap:round; stroke-linejoin:round; stroke-width:4; stroke-opacity:1; fill:none" points="2653.13,1630.83 2653.13,1611.93 "/>
<path clip-path="url(#clip060)" d="M699.11 1686.2 L736.205 1686.2 L736.205 1691.11 L699.11 1691.11 L699.11 1686.2 Z" fill="#000000" fill-rule="nonzero" fill-opacity="1" /><path clip-path="url(#clip060)" d="M749.833 1702.31 L759.382 1702.31 L759.382 1669.36 L748.994 1671.44 L748.994 1666.11 L759.324 1664.03 L765.169 1664.03 L765.169 1702.31 L774.717 1702.31 L774.717 1707.23 L749.833 1707.23 L749.833 1702.31 Z" fill="#000000" fill-rule="nonzero" fill-opacity="1" /><path clip-path="url(#clip060)" d="M799.022 1667.88 Q794.509 1667.88 792.223 1672.34 Q789.966 1676.76 789.966 1685.67 Q789.966 1694.56 792.223 1699.01 Q794.509 1703.44 799.022 1703.44 Q803.565 1703.44 805.822 1699.01 Q808.108 1694.56 808.108 1685.67 Q808.108 1676.76 805.822 1672.34 Q803.565 1667.88 799.022 1667.88 M799.022 1663.25 Q806.285 1663.25 810.105 1669.01 Q813.953 1674.74 813.953 1685.67 Q813.953 1696.58 810.105 1702.34 Q806.285 1708.07 799.022 1708.07 Q791.76 1708.07 787.911 1702.34 Q784.092 1696.58 784.092 1685.67 Q784.092 1674.74 787.911 1669.01 Q791.76 1663.25 799.022 1663.25 Z" fill="#000000" fill-rule="nonzero" fill-opacity="1" /><path clip-path="url(#clip060)" d="M1192.73 1686.2 L1229.83 1686.2 L1229.83 1691.11 L1192.73 1691.11 L1192.73 1686.2 Z" fill="#000000" fill-rule="nonzero" fill-opacity="1" /><path clip-path="url(#clip060)" d="M1242.5 1664.03 L1265.45 1664.03 L1265.45 1668.95 L1247.85 1668.95 L1247.85 1679.54 Q1249.13 1679.11 1250.4 1678.9 Q1251.67 1678.67 1252.95 1678.67 Q1260.18 1678.67 1264.41 1682.64 Q1268.63 1686.6 1268.63 1693.37 Q1268.63 1700.34 1264.29 1704.22 Q1259.95 1708.07 1252.05 1708.07 Q1249.33 1708.07 1246.49 1707.61 Q1243.69 1707.14 1240.68 1706.22 L1240.68 1700.34 Q1243.28 1701.76 1246.06 1702.46 Q1248.84 1703.15 1251.93 1703.15 Q1256.94 1703.15 1259.86 1700.52 Q1262.78 1697.89 1262.78 1693.37 Q1262.78 1688.86 1259.86 1686.22 Q1256.94 1683.59 1251.93 1683.59 Q1249.59 1683.59 1247.25 1684.11 Q1244.93 1684.63 1242.5 1685.73 L1242.5 1664.03 Z" fill="#000000" fill-rule="nonzero" fill-opacity="1" /><path clip-path="url(#clip060)" d="M1704.83 1667.88 Q1700.32 1667.88 1698.03 1672.34 Q1695.77 1676.76 1695.77 1685.67 Q1695.77 1694.56 1698.03 1699.01 Q1700.32 1703.44 1704.83 1703.44 Q1709.37 1703.44 1711.63 1699.01 Q1713.92 1694.56 1713.92 1685.67 Q1713.92 1676.76 1711.63 1672.34 Q1709.37 1667.88 1704.83 1667.88 M1704.83 1663.25 Q1712.09 1663.25 1715.91 1669.01 Q1719.76 1674.74 1719.76 1685.67 Q1719.76 1696.58 1715.91 1702.34 Q1712.09 1708.07 1704.83 1708.07 Q1697.57 1708.07 1693.72 1702.34 Q1689.9 1696.58 1689.9 1685.67 Q1689.9 1674.74 1693.72 1669.01 Q1697.57 1663.25 1704.83 1663.25 Z" fill="#000000" fill-rule="nonzero" fill-opacity="1" /><path clip-path="url(#clip060)" d="M2166.83 1664.03 L2189.77 1664.03 L2189.77 1668.95 L2172.18 1668.95 L2172.18 1679.54 Q2173.45 1679.11 2174.73 1678.9 Q2176 1678.67 2177.27 1678.67 Q2184.51 1678.67 2188.73 1682.64 Q2192.96 1686.6 2192.96 1693.37 Q2192.96 1700.34 2188.62 1704.22 Q2184.28 1708.07 2176.38 1708.07 Q2173.66 1708.07 2170.82 1707.61 Q2168.01 1707.14 2165.01 1706.22 L2165.01 1700.34 Q2167.61 1701.76 2170.39 1702.46 Q2173.17 1703.15 2176.26 1703.15 Q2181.27 1703.15 2184.19 1700.52 Q2187.11 1697.89 2187.11 1693.37 Q2187.11 1688.86 2184.19 1686.22 Q2181.27 1683.59 2176.26 1683.59 Q2173.92 1683.59 2171.57 1684.11 Q2169.26 1684.63 2166.83 1685.73 L2166.83 1664.03 Z" fill="#000000" fill-rule="nonzero" fill-opacity="1" /><path clip-path="url(#clip060)" d="M2621.49 1702.31 L2631.04 1702.31 L2631.04 1669.36 L2620.65 1671.44 L2620.65 1666.11 L2630.98 1664.03 L2636.83 1664.03 L2636.83 1702.31 L2646.37 1702.31 L2646.37 1707.23 L2621.49 1707.23 L2621.49 1702.31 Z" fill="#000000" fill-rule="nonzero" fill-opacity="1" /><path clip-path="url(#clip060)" d="M2670.68 1667.88 Q2666.17 1667.88 2663.88 1672.34 Q2661.62 1676.76 2661.62 1685.67 Q2661.62 1694.56 2663.88 1699.01 Q2666.17 1703.44 2670.68 1703.44 Q2675.22 1703.44 2677.48 1699.01 Q2679.77 1694.56 2679.77 1685.67 Q2679.77 1676.76 2677.48 1672.34 Q2675.22 1667.88 2670.68 1667.88 M2670.68 1663.25 Q2677.94 1663.25 2681.76 1669.01 Q2685.61 1674.74 2685.61 1685.67 Q2685.61 1696.58 2681.76 1702.34 Q2677.94 1708.07 2670.68 1708.07 Q2663.42 1708.07 2659.57 1702.34 Q2655.75 1696.58 2655.75 1685.67 Q2655.75 1674.74 2659.57 1669.01 Q2663.42 1663.25 2670.68 1663.25 Z" fill="#000000" fill-rule="nonzero" fill-opacity="1" /><path clip-path="url(#clip060)" d="M1284.01 1751.5 Q1277 1751.5 1272.87 1756.72 Q1268.76 1761.94 1268.76 1770.94 Q1268.76 1779.92 1272.87 1785.14 Q1277 1790.36 1284.01 1790.36 Q1291.01 1790.36 1295.08 1785.14 Q1299.19 1779.92 1299.19 1770.94 Q1299.19 1761.94 1295.08 1756.72 Q1291.01 1751.5 1284.01 1751.5 M1284.01 1746.28 Q1294 1746.28 1299.98 1752.99 Q1305.97 1759.68 1305.97 1770.94 Q1305.97 1782.18 1299.98 1788.89 Q1294 1795.58 1284.01 1795.58 Q1273.98 1795.58 1267.96 1788.89 Q1261.98 1782.21 1261.98 1770.94 Q1261.98 1759.68 1267.96 1752.99 Q1273.98 1746.28 1284.01 1746.28 Z" fill="#000000" fill-rule="nonzero" fill-opacity="1" /><path clip-path="url(#clip060)" d="M1341.36 1776.86 Q1341.36 1770.4 1338.69 1766.74 Q1336.05 1763.05 1331.4 1763.05 Q1326.75 1763.05 1324.08 1766.74 Q1321.44 1770.4 1321.44 1776.86 Q1321.44 1783.32 1324.08 1787.02 Q1326.75 1790.68 1331.4 1790.68 Q1336.05 1790.68 1338.69 1787.02 Q1341.36 1783.32 1341.36 1776.86 M1321.44 1764.42 Q1323.28 1761.24 1326.08 1759.71 Q1328.92 1758.15 1332.83 1758.15 Q1339.32 1758.15 1343.37 1763.3 Q1347.44 1768.46 1347.44 1776.86 Q1347.44 1785.27 1343.37 1790.42 Q1339.32 1795.58 1332.83 1795.58 Q1328.92 1795.58 1326.08 1794.05 Q1323.28 1792.49 1321.44 1789.31 L1321.44 1794.66 L1315.55 1794.66 L1315.55 1745.13 L1321.44 1745.13 L1321.44 1764.42 Z" fill="#000000" fill-rule="nonzero" fill-opacity="1" /><path clip-path="url(#clip060)" d="M1379.87 1760.06 L1379.87 1765.6 Q1377.39 1764.32 1374.72 1763.69 Q1372.04 1763.05 1369.18 1763.05 Q1364.82 1763.05 1362.62 1764.39 Q1360.46 1765.72 1360.46 1768.4 Q1360.46 1770.43 1362.02 1771.61 Q1363.58 1772.76 1368.29 1773.81 L1370.29 1774.25 Q1376.53 1775.59 1379.14 1778.04 Q1381.78 1780.46 1381.78 1784.82 Q1381.78 1789.79 1377.84 1792.68 Q1373.92 1795.58 1367.05 1795.58 Q1364.18 1795.58 1361.06 1795.01 Q1357.98 1794.46 1354.54 1793.35 L1354.54 1787.3 Q1357.78 1788.99 1360.94 1789.85 Q1364.09 1790.68 1367.17 1790.68 Q1371.31 1790.68 1373.54 1789.28 Q1375.77 1787.84 1375.77 1785.27 Q1375.77 1782.88 1374.14 1781.61 Q1372.55 1780.33 1367.11 1779.16 L1365.07 1778.68 Q1359.63 1777.53 1357.21 1775.18 Q1354.79 1772.79 1354.79 1768.65 Q1354.79 1763.62 1358.36 1760.89 Q1361.92 1758.15 1368.48 1758.15 Q1371.73 1758.15 1374.59 1758.63 Q1377.45 1759.1 1379.87 1760.06 Z" fill="#000000" fill-rule="nonzero" fill-opacity="1" /><path clip-path="url(#clip060)" d="M1421.6 1775.37 L1421.6 1778.23 L1394.67 1778.23 Q1395.06 1784.28 1398.3 1787.46 Q1401.58 1790.61 1407.41 1790.61 Q1410.78 1790.61 1413.93 1789.79 Q1417.11 1788.96 1420.23 1787.3 L1420.23 1792.84 Q1417.08 1794.18 1413.77 1794.88 Q1410.46 1795.58 1407.05 1795.58 Q1398.52 1795.58 1393.53 1790.61 Q1388.56 1785.65 1388.56 1777.18 Q1388.56 1768.43 1393.27 1763.3 Q1398.02 1758.15 1406.04 1758.15 Q1413.23 1758.15 1417.4 1762.8 Q1421.6 1767.41 1421.6 1775.37 M1415.74 1773.65 Q1415.68 1768.84 1413.04 1765.98 Q1410.43 1763.11 1406.1 1763.11 Q1401.2 1763.11 1398.24 1765.88 Q1395.31 1768.65 1394.86 1773.68 L1415.74 1773.65 Z" fill="#000000" fill-rule="nonzero" fill-opacity="1" /><path clip-path="url(#clip060)" d="M1451.87 1764.48 Q1450.88 1763.91 1449.71 1763.65 Q1448.56 1763.37 1447.16 1763.37 Q1442.19 1763.37 1439.52 1766.61 Q1436.88 1769.83 1436.88 1775.88 L1436.88 1794.66 L1430.99 1794.66 L1430.99 1759.01 L1436.88 1759.01 L1436.88 1764.55 Q1438.72 1761.3 1441.68 1759.74 Q1444.64 1758.15 1448.88 1758.15 Q1449.48 1758.15 1450.21 1758.24 Q1450.95 1758.31 1451.84 1758.47 L1451.87 1764.48 Z" fill="#000000" fill-rule="nonzero" fill-opacity="1" /><path clip-path="url(#clip060)" d="M1453.81 1759.01 L1460.02 1759.01 L1471.16 1788.93 L1482.3 1759.01 L1488.5 1759.01 L1475.14 1794.66 L1467.18 1794.66 L1453.81 1759.01 Z" fill="#000000" fill-rule="nonzero" fill-opacity="1" /><path clip-path="url(#clip060)" d="M1527.08 1775.37 L1527.08 1778.23 L1500.15 1778.23 Q1500.54 1784.28 1503.78 1787.46 Q1507.06 1790.61 1512.88 1790.61 Q1516.26 1790.61 1519.41 1789.79 Q1522.59 1788.96 1525.71 1787.3 L1525.71 1792.84 Q1522.56 1794.18 1519.25 1794.88 Q1515.94 1795.58 1512.53 1795.58 Q1504 1795.58 1499.01 1790.61 Q1494.04 1785.65 1494.04 1777.18 Q1494.04 1768.43 1498.75 1763.3 Q1503.5 1758.15 1511.52 1758.15 Q1518.71 1758.15 1522.88 1762.8 Q1527.08 1767.41 1527.08 1775.37 M1521.22 1773.65 Q1521.16 1768.84 1518.52 1765.98 Q1515.91 1763.11 1511.58 1763.11 Q1506.68 1763.11 1503.72 1765.88 Q1500.79 1768.65 1500.34 1773.68 L1521.22 1773.65 Z" fill="#000000" fill-rule="nonzero" fill-opacity="1" /><path clip-path="url(#clip060)" d="M1560.15 1764.42 L1560.15 1745.13 L1566.01 1745.13 L1566.01 1794.66 L1560.15 1794.66 L1560.15 1789.31 Q1558.3 1792.49 1555.47 1794.05 Q1552.67 1795.58 1548.72 1795.58 Q1542.26 1795.58 1538.19 1790.42 Q1534.15 1785.27 1534.15 1776.86 Q1534.15 1768.46 1538.19 1763.3 Q1542.26 1758.15 1548.72 1758.15 Q1552.67 1758.15 1555.47 1759.71 Q1558.3 1761.24 1560.15 1764.42 M1540.19 1776.86 Q1540.19 1783.32 1542.84 1787.02 Q1545.51 1790.68 1550.16 1790.68 Q1554.8 1790.68 1557.48 1787.02 Q1560.15 1783.32 1560.15 1776.86 Q1560.15 1770.4 1557.48 1766.74 Q1554.8 1763.05 1550.16 1763.05 Q1545.51 1763.05 1542.84 1766.74 Q1540.19 1770.4 1540.19 1776.86 Z" fill="#000000" fill-rule="nonzero" fill-opacity="1" /><path clip-path="url(#clip060)" d="M1602.29 1776.86 Q1602.29 1783.32 1604.93 1787.02 Q1607.61 1790.68 1612.25 1790.68 Q1616.9 1790.68 1619.57 1787.02 Q1622.25 1783.32 1622.25 1776.86 Q1622.25 1770.4 1619.57 1766.74 Q1616.9 1763.05 1612.25 1763.05 Q1607.61 1763.05 1604.93 1766.74 Q1602.29 1770.4 1602.29 1776.86 M1622.25 1789.31 Q1620.4 1792.49 1617.57 1794.05 Q1614.77 1795.58 1610.82 1795.58 Q1604.36 1795.58 1600.29 1790.42 Q1596.24 1785.27 1596.24 1776.86 Q1596.24 1768.46 1600.29 1763.3 Q1604.36 1758.15 1610.82 1758.15 Q1614.77 1758.15 1617.57 1759.71 Q1620.4 1761.24 1622.25 1764.42 L1622.25 1759.01 L1628.1 1759.01 L1628.1 1808.21 L1622.25 1808.21 L1622.25 1789.31 Z" fill="#000000" fill-rule="nonzero" fill-opacity="1" /><path clip-path="url(#clip060)" d="M1639.56 1780.59 L1639.56 1759.01 L1645.42 1759.01 L1645.42 1780.36 Q1645.42 1785.43 1647.39 1787.97 Q1649.37 1790.49 1653.31 1790.49 Q1658.05 1790.49 1660.79 1787.46 Q1663.56 1784.44 1663.56 1779.22 L1663.56 1759.01 L1669.42 1759.01 L1669.42 1794.66 L1663.56 1794.66 L1663.56 1789.18 Q1661.43 1792.43 1658.6 1794.02 Q1655.79 1795.58 1652.07 1795.58 Q1645.93 1795.58 1642.75 1791.76 Q1639.56 1787.94 1639.56 1780.59 M1654.3 1758.15 L1654.3 1758.15 Z" fill="#000000" fill-rule="nonzero" fill-opacity="1" /><path clip-path="url(#clip060)" d="M1697.68 1776.74 Q1690.58 1776.74 1687.85 1778.36 Q1685.11 1779.98 1685.11 1783.9 Q1685.11 1787.02 1687.15 1788.86 Q1689.21 1790.68 1692.75 1790.68 Q1697.62 1790.68 1700.55 1787.24 Q1703.51 1783.77 1703.51 1778.04 L1703.51 1776.74 L1697.68 1776.74 M1709.36 1774.32 L1709.36 1794.66 L1703.51 1794.66 L1703.51 1789.24 Q1701.5 1792.49 1698.51 1794.05 Q1695.52 1795.58 1691.19 1795.58 Q1685.71 1795.58 1682.47 1792.52 Q1679.25 1789.44 1679.25 1784.28 Q1679.25 1778.26 1683.26 1775.21 Q1687.31 1772.15 1695.29 1772.15 L1703.51 1772.15 L1703.51 1771.58 Q1703.51 1767.54 1700.83 1765.34 Q1698.19 1763.11 1693.38 1763.11 Q1690.33 1763.11 1687.43 1763.85 Q1684.54 1764.58 1681.86 1766.04 L1681.86 1760.63 Q1685.08 1759.39 1688.1 1758.78 Q1691.12 1758.15 1693.99 1758.15 Q1701.72 1758.15 1705.54 1762.16 Q1709.36 1766.17 1709.36 1774.32 Z" fill="#000000" fill-rule="nonzero" fill-opacity="1" /><path clip-path="url(#clip060)" d="M1751.06 1773.14 L1751.06 1794.66 L1745.2 1794.66 L1745.2 1773.33 Q1745.2 1768.27 1743.23 1765.76 Q1741.25 1763.24 1737.31 1763.24 Q1732.57 1763.24 1729.83 1766.26 Q1727.09 1769.29 1727.09 1774.51 L1727.09 1794.66 L1721.2 1794.66 L1721.2 1759.01 L1727.09 1759.01 L1727.09 1764.55 Q1729.19 1761.33 1732.02 1759.74 Q1734.89 1758.15 1738.61 1758.15 Q1744.76 1758.15 1747.91 1761.97 Q1751.06 1765.76 1751.06 1773.14 Z" fill="#000000" fill-rule="nonzero" fill-opacity="1" /><path clip-path="url(#clip060)" d="M1768.53 1748.89 L1768.53 1759.01 L1780.59 1759.01 L1780.59 1763.56 L1768.53 1763.56 L1768.53 1782.91 Q1768.53 1787.27 1769.71 1788.51 Q1770.92 1789.75 1774.58 1789.75 L1780.59 1789.75 L1780.59 1794.66 L1774.58 1794.66 Q1767.8 1794.66 1765.22 1792.14 Q1762.64 1789.59 1762.64 1782.91 L1762.64 1763.56 L1758.35 1763.56 L1758.35 1759.01 L1762.64 1759.01 L1762.64 1748.89 L1768.53 1748.89 Z" fill="#000000" fill-rule="nonzero" fill-opacity="1" /><path clip-path="url(#clip060)" d="M1788.3 1759.01 L1794.15 1759.01 L1794.15 1794.66 L1788.3 1794.66 L1788.3 1759.01 M1788.3 1745.13 L1794.15 1745.13 L1794.15 1752.55 L1788.3 1752.55 L1788.3 1745.13 Z" fill="#000000" fill-rule="nonzero" fill-opacity="1" /><path clip-path="url(#clip060)" d="M1806.41 1745.13 L1812.26 1745.13 L1812.26 1794.66 L1806.41 1794.66 L1806.41 1745.13 Z" fill="#000000" fill-rule="nonzero" fill-opacity="1" /><path clip-path="url(#clip060)" d="M1855.01 1775.37 L1855.01 1778.23 L1828.08 1778.23 Q1828.46 1784.28 1831.71 1787.46 Q1834.99 1790.61 1840.81 1790.61 Q1844.19 1790.61 1847.34 1789.79 Q1850.52 1788.96 1853.64 1787.3 L1853.64 1792.84 Q1850.49 1794.18 1847.18 1794.88 Q1843.87 1795.58 1840.46 1795.58 Q1831.93 1795.58 1826.94 1790.61 Q1821.97 1785.65 1821.97 1777.18 Q1821.97 1768.43 1826.68 1763.3 Q1831.42 1758.15 1839.45 1758.15 Q1846.64 1758.15 1850.81 1762.8 Q1855.01 1767.41 1855.01 1775.37 M1849.15 1773.65 Q1849.09 1768.84 1846.45 1765.98 Q1843.84 1763.11 1839.51 1763.11 Q1834.61 1763.11 1831.65 1765.88 Q1828.72 1768.65 1828.27 1773.68 L1849.15 1773.65 Z" fill="#000000" fill-rule="nonzero" fill-opacity="1" /><path clip-path="url(#clip060)" d="M1887.35 1760.06 L1887.35 1765.6 Q1884.86 1764.32 1882.19 1763.69 Q1879.52 1763.05 1876.65 1763.05 Q1872.29 1763.05 1870.1 1764.39 Q1867.93 1765.72 1867.93 1768.4 Q1867.93 1770.43 1869.49 1771.61 Q1871.05 1772.76 1875.76 1773.81 L1877.77 1774.25 Q1884.01 1775.59 1886.62 1778.04 Q1889.26 1780.46 1889.26 1784.82 Q1889.26 1789.79 1885.31 1792.68 Q1881.4 1795.58 1874.52 1795.58 Q1871.66 1795.58 1868.54 1795.01 Q1865.45 1794.46 1862.01 1793.35 L1862.01 1787.3 Q1865.26 1788.99 1868.41 1789.85 Q1871.56 1790.68 1874.65 1790.68 Q1878.79 1790.68 1881.01 1789.28 Q1883.24 1787.84 1883.24 1785.27 Q1883.24 1782.88 1881.62 1781.61 Q1880.03 1780.33 1874.58 1779.16 L1872.55 1778.68 Q1867.1 1777.53 1864.69 1775.18 Q1862.27 1772.79 1862.27 1768.65 Q1862.27 1763.62 1865.83 1760.89 Q1869.4 1758.15 1875.95 1758.15 Q1879.2 1758.15 1882.06 1758.63 Q1884.93 1759.1 1887.35 1760.06 Z" fill="#000000" fill-rule="nonzero" fill-opacity="1" /><polyline clip-path="url(#clip060)" style="stroke:#000000; stroke-linecap:round; stroke-linejoin:round; stroke-width:4; stroke-opacity:1; fill:none" points="477.222,1630.83 477.222,125.984 "/>
<polyline clip-path="url(#clip060)" style="stroke:#000000; stroke-linecap:round; stroke-linejoin:round; stroke-width:4; stroke-opacity:1; fill:none" points="477.222,1442.71 496.12,1442.71 "/>
<polyline clip-path="url(#clip060)" style="stroke:#000000; stroke-linecap:round; stroke-linejoin:round; stroke-width:4; stroke-opacity:1; fill:none" points="477.222,1124.93 496.12,1124.93 "/>
<polyline clip-path="url(#clip060)" style="stroke:#000000; stroke-linecap:round; stroke-linejoin:round; stroke-width:4; stroke-opacity:1; fill:none" points="477.222,807.146 496.12,807.146 "/>
<polyline clip-path="url(#clip060)" style="stroke:#000000; stroke-linecap:round; stroke-linejoin:round; stroke-width:4; stroke-opacity:1; fill:none" points="477.222,489.362 496.12,489.362 "/>
<polyline clip-path="url(#clip060)" style="stroke:#000000; stroke-linecap:round; stroke-linejoin:round; stroke-width:4; stroke-opacity:1; fill:none" points="477.222,171.579 496.12,171.579 "/>
<path clip-path="url(#clip060)" d="M320.379 1443.28 L357.474 1443.28 L357.474 1448.2 L320.379 1448.2 L320.379 1443.28 Z" fill="#000000" fill-rule="nonzero" fill-opacity="1" /><path clip-path="url(#clip060)" d="M371.102 1459.39 L380.651 1459.39 L380.651 1426.44 L370.263 1428.52 L370.263 1423.2 L380.593 1421.11 L386.438 1421.11 L386.438 1459.39 L395.986 1459.39 L395.986 1464.31 L371.102 1464.31 L371.102 1459.39 Z" fill="#000000" fill-rule="nonzero" fill-opacity="1" /><path clip-path="url(#clip060)" d="M420.292 1424.96 Q415.778 1424.96 413.492 1429.42 Q411.235 1433.84 411.235 1442.76 Q411.235 1451.64 413.492 1456.1 Q415.778 1460.52 420.292 1460.52 Q424.834 1460.52 427.091 1456.1 Q429.377 1451.64 429.377 1442.76 Q429.377 1433.84 427.091 1429.42 Q424.834 1424.96 420.292 1424.96 M420.292 1420.33 Q427.554 1420.33 431.374 1426.09 Q435.222 1431.82 435.222 1442.76 Q435.222 1453.67 431.374 1459.42 Q427.554 1465.15 420.292 1465.15 Q413.029 1465.15 409.18 1459.42 Q405.361 1453.67 405.361 1442.76 Q405.361 1431.82 409.18 1426.09 Q413.029 1420.33 420.292 1420.33 Z" fill="#000000" fill-rule="nonzero" fill-opacity="1" /><path clip-path="url(#clip060)" d="M359.325 1125.49 L396.42 1125.49 L396.42 1130.41 L359.325 1130.41 L359.325 1125.49 Z" fill="#000000" fill-rule="nonzero" fill-opacity="1" /><path clip-path="url(#clip060)" d="M409.094 1103.33 L432.039 1103.33 L432.039 1108.25 L414.447 1108.25 L414.447 1118.84 Q415.72 1118.4 416.993 1118.2 Q418.266 1117.97 419.539 1117.97 Q426.773 1117.97 430.997 1121.93 Q435.222 1125.9 435.222 1132.67 Q435.222 1139.64 430.882 1143.52 Q426.541 1147.37 418.642 1147.37 Q415.922 1147.37 413.087 1146.91 Q410.28 1146.44 407.271 1145.52 L407.271 1139.64 Q409.875 1141.06 412.653 1141.76 Q415.43 1142.45 418.526 1142.45 Q423.532 1142.45 426.455 1139.82 Q429.377 1137.18 429.377 1132.67 Q429.377 1128.16 426.455 1125.52 Q423.532 1122.89 418.526 1122.89 Q416.183 1122.89 413.839 1123.41 Q411.524 1123.93 409.094 1125.03 L409.094 1103.33 Z" fill="#000000" fill-rule="nonzero" fill-opacity="1" /><path clip-path="url(#clip060)" d="M420.292 789.394 Q415.778 789.394 413.492 793.85 Q411.235 798.277 411.235 807.189 Q411.235 816.072 413.492 820.528 Q415.778 824.955 420.292 824.955 Q424.834 824.955 427.091 820.528 Q429.377 816.072 429.377 807.189 Q429.377 798.277 427.091 793.85 Q424.834 789.394 420.292 789.394 M420.292 784.765 Q427.554 784.765 431.374 790.523 Q435.222 796.252 435.222 807.189 Q435.222 818.098 431.374 823.856 Q427.554 829.585 420.292 829.585 Q413.029 829.585 409.18 823.856 Q405.361 818.098 405.361 807.189 Q405.361 796.252 409.18 790.523 Q413.029 784.765 420.292 784.765 Z" fill="#000000" fill-rule="nonzero" fill-opacity="1" /><path clip-path="url(#clip060)" d="M409.094 467.762 L432.039 467.762 L432.039 472.681 L414.447 472.681 L414.447 483.271 Q415.72 482.837 416.993 482.635 Q418.266 482.403 419.539 482.403 Q426.773 482.403 430.997 486.367 Q435.222 490.332 435.222 497.102 Q435.222 504.076 430.882 507.953 Q426.541 511.801 418.642 511.801 Q415.922 511.801 413.087 511.338 Q410.28 510.875 407.271 509.95 L407.271 504.076 Q409.875 505.494 412.653 506.188 Q415.43 506.882 418.526 506.882 Q423.532 506.882 426.455 504.249 Q429.377 501.616 429.377 497.102 Q429.377 492.588 426.455 489.955 Q423.532 487.322 418.526 487.322 Q416.183 487.322 413.839 487.843 Q411.524 488.364 409.094 489.464 L409.094 467.762 Z" fill="#000000" fill-rule="nonzero" fill-opacity="1" /><path clip-path="url(#clip060)" d="M371.102 188.26 L380.651 188.26 L380.651 155.303 L370.263 157.386 L370.263 152.062 L380.593 149.979 L386.438 149.979 L386.438 188.26 L395.986 188.26 L395.986 193.179 L371.102 193.179 L371.102 188.26 Z" fill="#000000" fill-rule="nonzero" fill-opacity="1" /><path clip-path="url(#clip060)" d="M420.292 153.827 Q415.778 153.827 413.492 158.283 Q411.235 162.71 411.235 171.622 Q411.235 180.505 413.492 184.961 Q415.778 189.388 420.292 189.388 Q424.834 189.388 427.091 184.961 Q429.377 180.505 429.377 171.622 Q429.377 162.71 427.091 158.283 Q424.834 153.827 420.292 153.827 M420.292 149.197 Q427.554 149.197 431.374 154.955 Q435.222 160.685 435.222 171.622 Q435.222 182.531 431.374 188.289 Q427.554 194.018 420.292 194.018 Q413.029 194.018 409.18 188.289 Q405.361 182.531 405.361 171.622 Q405.361 160.685 409.18 154.955 Q413.029 149.197 420.292 149.197 Z" fill="#000000" fill-rule="nonzero" fill-opacity="1" /><path clip-path="url(#clip060)" d="M218.162 1169.03 L224.433 1169.03 Q222.682 1172.69 221.823 1175.94 Q220.963 1179.19 220.963 1182.21 Q220.963 1187.46 223 1190.33 Q225.037 1193.16 228.793 1193.16 Q231.944 1193.16 233.567 1191.28 Q235.159 1189.37 236.146 1184.09 L236.941 1180.21 Q238.31 1173.01 241.779 1169.61 Q245.217 1166.17 251.009 1166.17 Q257.916 1166.17 261.481 1170.82 Q265.046 1175.43 265.046 1184.38 Q265.046 1187.75 264.282 1191.57 Q263.518 1195.36 262.022 1199.43 L255.402 1199.43 Q257.598 1195.52 258.712 1191.76 Q259.826 1188 259.826 1184.38 Q259.826 1178.87 257.662 1175.88 Q255.497 1172.89 251.487 1172.89 Q247.986 1172.89 246.012 1175.05 Q244.039 1177.18 243.052 1182.08 L242.288 1186 Q240.856 1193.19 237.801 1196.41 Q234.745 1199.62 229.302 1199.62 Q223 1199.62 219.372 1195.2 Q215.743 1190.74 215.743 1182.94 Q215.743 1179.6 216.348 1176.13 Q216.953 1172.66 218.162 1169.03 Z" fill="#000000" fill-rule="nonzero" fill-opacity="1" /><path clip-path="url(#clip060)" d="M228.475 1156.4 L228.475 1150.54 L264.123 1150.54 L264.123 1156.4 L228.475 1156.4 M214.598 1156.4 L214.598 1150.54 L222.014 1150.54 L222.014 1156.4 L214.598 1156.4 Z" fill="#000000" fill-rule="nonzero" fill-opacity="1" /><path clip-path="url(#clip060)" d="M235.318 1110.53 Q231.371 1108.34 229.493 1105.28 Q227.616 1102.23 227.616 1098.09 Q227.616 1092.52 231.53 1089.49 Q235.414 1086.47 242.607 1086.47 L264.123 1086.47 L264.123 1092.36 L242.798 1092.36 Q237.673 1092.36 235.191 1094.17 Q232.708 1095.99 232.708 1099.71 Q232.708 1104.26 235.732 1106.9 Q238.756 1109.55 243.975 1109.55 L264.123 1109.55 L264.123 1115.43 L242.798 1115.43 Q237.642 1115.43 235.191 1117.25 Q232.708 1119.06 232.708 1122.85 Q232.708 1127.34 235.764 1129.98 Q238.787 1132.62 243.975 1132.62 L264.123 1132.62 L264.123 1138.51 L228.475 1138.51 L228.475 1132.62 L234.013 1132.62 Q230.735 1130.62 229.175 1127.82 Q227.616 1125.02 227.616 1121.16 Q227.616 1117.28 229.589 1114.58 Q231.562 1111.84 235.318 1110.53 Z" fill="#000000" fill-rule="nonzero" fill-opacity="1" /><path clip-path="url(#clip060)" d="M250.055 1075.39 L228.475 1075.39 L228.475 1069.54 L249.832 1069.54 Q254.893 1069.54 257.439 1067.56 Q259.953 1065.59 259.953 1061.64 Q259.953 1056.9 256.93 1054.17 Q253.906 1051.4 248.686 1051.4 L228.475 1051.4 L228.475 1045.54 L264.123 1045.54 L264.123 1051.4 L258.648 1051.4 Q261.895 1053.53 263.486 1056.36 Q265.046 1059.16 265.046 1062.89 Q265.046 1069.03 261.226 1072.21 Q257.407 1075.39 250.055 1075.39 M227.616 1060.66 L227.616 1060.66 Z" fill="#000000" fill-rule="nonzero" fill-opacity="1" /><path clip-path="url(#clip060)" d="M214.598 1033.48 L214.598 1027.62 L264.123 1027.62 L264.123 1033.48 L214.598 1033.48 Z" fill="#000000" fill-rule="nonzero" fill-opacity="1" /><path clip-path="url(#clip060)" d="M246.203 999.165 Q246.203 1006.26 247.827 1009 Q249.45 1011.74 253.365 1011.74 Q256.484 1011.74 258.33 1009.7 Q260.144 1007.63 260.144 1004.1 Q260.144 999.229 256.707 996.301 Q253.237 993.341 247.508 993.341 L246.203 993.341 L246.203 999.165 M243.784 987.484 L264.123 987.484 L264.123 993.341 L258.712 993.341 Q261.959 995.346 263.518 998.338 Q265.046 1001.33 265.046 1005.66 Q265.046 1011.13 261.99 1014.38 Q258.903 1017.59 253.747 1017.59 Q247.731 1017.59 244.676 1013.58 Q241.62 1009.54 241.62 1001.55 L241.62 993.341 L241.047 993.341 Q237.005 993.341 234.809 996.014 Q232.581 998.656 232.581 1003.46 Q232.581 1006.52 233.313 1009.41 Q234.045 1012.31 235.509 1014.98 L230.098 1014.98 Q228.857 1011.77 228.252 1008.75 Q227.616 1005.72 227.616 1002.86 Q227.616 995.123 231.626 991.304 Q235.636 987.484 243.784 987.484 Z" fill="#000000" fill-rule="nonzero" fill-opacity="1" /><path clip-path="url(#clip060)" d="M218.353 969.628 L228.475 969.628 L228.475 957.565 L233.026 957.565 L233.026 969.628 L252.378 969.628 Q256.739 969.628 257.98 968.451 Q259.221 967.241 259.221 963.581 L259.221 957.565 L264.123 957.565 L264.123 963.581 Q264.123 970.361 261.608 972.939 Q259.062 975.517 252.378 975.517 L233.026 975.517 L233.026 979.814 L228.475 979.814 L228.475 975.517 L218.353 975.517 L218.353 969.628 Z" fill="#000000" fill-rule="nonzero" fill-opacity="1" /><path clip-path="url(#clip060)" d="M244.835 919.371 L247.699 919.371 L247.699 946.298 Q253.747 945.916 256.93 942.67 Q260.081 939.391 260.081 933.567 Q260.081 930.193 259.253 927.042 Q258.426 923.859 256.77 920.74 L262.309 920.74 Q263.645 923.891 264.346 927.201 Q265.046 930.511 265.046 933.917 Q265.046 942.447 260.081 947.444 Q255.115 952.409 246.649 952.409 Q237.896 952.409 232.772 947.699 Q227.616 942.956 227.616 934.935 Q227.616 927.742 232.262 923.573 Q236.878 919.371 244.835 919.371 M243.116 925.228 Q238.31 925.291 235.445 927.933 Q232.581 930.543 232.581 934.872 Q232.581 939.773 235.35 942.733 Q238.119 945.662 243.148 946.107 L243.116 925.228 Z" fill="#000000" fill-rule="nonzero" fill-opacity="1" /><path clip-path="url(#clip060)" d="M233.886 886.301 L214.598 886.301 L214.598 880.445 L264.123 880.445 L264.123 886.301 L258.776 886.301 Q261.959 888.147 263.518 890.98 Q265.046 893.781 265.046 897.728 Q265.046 904.189 259.89 908.263 Q254.733 912.305 246.331 912.305 Q237.928 912.305 232.772 908.263 Q227.616 904.189 227.616 897.728 Q227.616 893.781 229.175 890.98 Q230.703 888.147 233.886 886.301 M246.331 906.258 Q252.792 906.258 256.484 903.616 Q260.144 900.942 260.144 896.296 Q260.144 891.649 256.484 888.975 Q252.792 886.301 246.331 886.301 Q239.87 886.301 236.209 888.975 Q232.517 891.649 232.517 896.296 Q232.517 900.942 236.209 903.616 Q239.87 906.258 246.331 906.258 Z" fill="#000000" fill-rule="nonzero" fill-opacity="1" /><path clip-path="url(#clip060)" d="M246.331 844.16 Q252.792 844.16 256.484 841.519 Q260.144 838.845 260.144 834.198 Q260.144 829.551 256.484 826.877 Q252.792 824.204 246.331 824.204 Q239.87 824.204 236.209 826.877 Q232.517 829.551 232.517 834.198 Q232.517 838.845 236.209 841.519 Q239.87 844.16 246.331 844.16 M258.776 824.204 Q261.959 826.05 263.518 828.883 Q265.046 831.684 265.046 835.63 Q265.046 842.092 259.89 846.166 Q254.733 850.208 246.331 850.208 Q237.928 850.208 232.772 846.166 Q227.616 842.092 227.616 835.63 Q227.616 831.684 229.175 828.883 Q230.703 826.05 233.886 824.204 L228.475 824.204 L228.475 818.347 L277.682 818.347 L277.682 824.204 L258.776 824.204 Z" fill="#000000" fill-rule="nonzero" fill-opacity="1" /><path clip-path="url(#clip060)" d="M250.055 806.889 L228.475 806.889 L228.475 801.033 L249.832 801.033 Q254.893 801.033 257.439 799.059 Q259.953 797.086 259.953 793.139 Q259.953 788.397 256.93 785.66 Q253.906 782.89 248.686 782.89 L228.475 782.89 L228.475 777.034 L264.123 777.034 L264.123 782.89 L258.648 782.89 Q261.895 785.023 263.486 787.856 Q265.046 790.657 265.046 794.381 Q265.046 800.523 261.226 803.706 Q257.407 806.889 250.055 806.889 M227.616 792.153 L227.616 792.153 Z" fill="#000000" fill-rule="nonzero" fill-opacity="1" /><path clip-path="url(#clip060)" d="M246.203 748.77 Q246.203 755.868 247.827 758.605 Q249.45 761.343 253.365 761.343 Q256.484 761.343 258.33 759.306 Q260.144 757.237 260.144 753.704 Q260.144 748.834 256.707 745.906 Q253.237 742.946 247.508 742.946 L246.203 742.946 L246.203 748.77 M243.784 737.089 L264.123 737.089 L264.123 742.946 L258.712 742.946 Q261.959 744.951 263.518 747.943 Q265.046 750.935 265.046 755.263 Q265.046 760.738 261.99 763.984 Q258.903 767.199 253.747 767.199 Q247.731 767.199 244.676 763.189 Q241.62 759.146 241.62 751.157 L241.62 742.946 L241.047 742.946 Q237.005 742.946 234.809 745.619 Q232.581 748.261 232.581 753.067 Q232.581 756.123 233.313 759.019 Q234.045 761.915 235.509 764.589 L230.098 764.589 Q228.857 761.374 228.252 758.351 Q227.616 755.327 227.616 752.462 Q227.616 744.728 231.626 740.909 Q235.636 737.089 243.784 737.089 Z" fill="#000000" fill-rule="nonzero" fill-opacity="1" /><path clip-path="url(#clip060)" d="M242.607 695.394 L264.123 695.394 L264.123 701.25 L242.798 701.25 Q237.737 701.25 235.223 703.224 Q232.708 705.197 232.708 709.144 Q232.708 713.886 235.732 716.623 Q238.756 719.361 243.975 719.361 L264.123 719.361 L264.123 725.249 L228.475 725.249 L228.475 719.361 L234.013 719.361 Q230.798 717.26 229.207 714.427 Q227.616 711.563 227.616 707.839 Q227.616 701.696 231.435 698.545 Q235.223 695.394 242.607 695.394 Z" fill="#000000" fill-rule="nonzero" fill-opacity="1" /><path clip-path="url(#clip060)" d="M218.353 677.92 L228.475 677.92 L228.475 665.857 L233.026 665.857 L233.026 677.92 L252.378 677.92 Q256.739 677.92 257.98 676.742 Q259.221 675.533 259.221 671.873 L259.221 665.857 L264.123 665.857 L264.123 671.873 Q264.123 678.652 261.608 681.23 Q259.062 683.808 252.378 683.808 L233.026 683.808 L233.026 688.105 L228.475 688.105 L228.475 683.808 L218.353 683.808 L218.353 677.92 Z" fill="#000000" fill-rule="nonzero" fill-opacity="1" /><path clip-path="url(#clip060)" d="M228.475 658.154 L228.475 652.298 L264.123 652.298 L264.123 658.154 L228.475 658.154 M214.598 658.154 L214.598 652.298 L222.014 652.298 L222.014 658.154 L214.598 658.154 Z" fill="#000000" fill-rule="nonzero" fill-opacity="1" /><path clip-path="url(#clip060)" d="M214.598 640.044 L214.598 634.188 L264.123 634.188 L264.123 640.044 L214.598 640.044 Z" fill="#000000" fill-rule="nonzero" fill-opacity="1" /><path clip-path="url(#clip060)" d="M244.835 591.442 L247.699 591.442 L247.699 618.369 Q253.747 617.987 256.93 614.74 Q260.081 611.462 260.081 605.637 Q260.081 602.264 259.253 599.112 Q258.426 595.93 256.77 592.81 L262.309 592.81 Q263.645 595.961 264.346 599.272 Q265.046 602.582 265.046 605.987 Q265.046 614.518 260.081 619.515 Q255.115 624.48 246.649 624.48 Q237.896 624.48 232.772 619.769 Q227.616 615.027 227.616 607.006 Q227.616 599.813 232.262 595.643 Q236.878 591.442 244.835 591.442 M243.116 597.298 Q238.31 597.362 235.445 600.004 Q232.581 602.614 232.581 606.942 Q232.581 611.844 235.35 614.804 Q238.119 617.732 243.148 618.178 L243.116 597.298 Z" fill="#000000" fill-rule="nonzero" fill-opacity="1" /><path clip-path="url(#clip060)" d="M229.525 559.104 L235.063 559.104 Q233.79 561.587 233.154 564.26 Q232.517 566.934 232.517 569.798 Q232.517 574.159 233.854 576.355 Q235.191 578.519 237.864 578.519 Q239.901 578.519 241.079 576.96 Q242.225 575.4 243.275 570.69 L243.721 568.684 Q245.058 562.446 247.508 559.836 Q249.927 557.194 254.288 557.194 Q259.253 557.194 262.149 561.141 Q265.046 565.056 265.046 571.931 Q265.046 574.795 264.473 577.915 Q263.932 581.002 262.818 584.44 L256.77 584.44 Q258.457 581.193 259.317 578.042 Q260.144 574.891 260.144 571.804 Q260.144 567.666 258.744 565.438 Q257.312 563.21 254.733 563.21 Q252.346 563.21 251.073 564.833 Q249.8 566.425 248.622 571.867 L248.145 573.904 Q246.999 579.347 244.644 581.766 Q242.257 584.185 238.119 584.185 Q233.09 584.185 230.353 580.62 Q227.616 577.055 227.616 570.499 Q227.616 567.252 228.093 564.388 Q228.57 561.523 229.525 559.104 Z" fill="#000000" fill-rule="nonzero" fill-opacity="1" /><polyline clip-path="url(#clip061)" style="stroke:#000000; stroke-linecap:round; stroke-linejoin:round; stroke-width:8; stroke-opacity:1; fill:none" stroke-dasharray="32, 20" points="539.395,1588.24 1000.19,1279.41 1104.96,1209.19 1165.61,1168.54 1213.2,1136.65 1261.63,1104.19 1294.55,1082.12 1328.35,1059.47 1347.87,1046.39 1366.8,1033.7 1382.8,1022.98 1396.84,1013.57 1408.61,1005.68 1427.62,992.936 1439.89,984.715 1451.28,977.081 1456.01,973.911 1466,967.214 1476.84,959.952 1483.5,955.483 1490.12,951.05 1496.52,946.759 1503.33,942.193 1511.04,937.026 1519.14,931.6 1526.18,926.878 1532.15,922.88 1537.47,919.312 1541.86,916.372 1548.64,911.825 1554.47,907.923 1560.99,903.549 1564.99,900.867 1569.53,897.826 1572.59,895.778 1577.04,892.796 1580.37,890.56 1584.25,887.964 1589.22,884.633 1592.55,882.399 1595.83,880.198 1598.05,878.715 1602.91,875.453 1605.64,873.626 1608.4,871.774 1610.8,870.166 1614.83,867.466 1618.02,865.329 1620.55,863.636 1623.28,861.804 1625.96,860.006 1628.74,858.146 1633.28,855.1 1636.19,853.152 1637.56,852.233 1640.8,850.058 1643.53,848.233 1645.72,846.761 1648.36,844.992 1650.13,843.809 1651.98,842.57 1654.59,840.819 1656.73,839.381 1659.05,837.83 1661.94,835.894 1664.07,834.467 1666.04,833.147 1667.61,832.094 1669.61,830.754 1672.54,828.791 1674.24,827.646 1676.47,826.154 1678.57,824.744 1680.87,823.204 1682.07,822.403 1685.2,820.306 1686.5,819.431 1687.81,818.557 1688.99,817.762 1690.68,816.63 1692.27,815.562 1693.96,814.429 1695.18,813.613 1697.21,812.252 1698.53,811.37 1699.87,810.468 1701.31,809.508 1703.77,807.856 1705.14,806.938 1706.15,806.265 1707.81,805.149 1709.24,804.193 1711.39,802.752 1712.42,802.058 1713.87,801.089 1714.7,800.534 1716.59,799.268 1717.75,798.485 1719.54,797.284 1720.68,796.521 1722.14,795.542 1722.76,795.132 1725.04,793.604 1726.86,792.38 1728.78,791.095 1730.79,789.75 1732.73,788.449 1733.72,787.786 1736.17,786.143 1738.01,784.909 1739.05,784.214 1739.78,783.723 1741.9,782.301 1744.44,780.597 1746.16,779.444 1747.57,778.501 1749.65,777.106 1751.13,776.117 1752.1,775.468 1754.06,774.153 1755.68,773.068 1757.65,771.748 1759.18,770.722 1760.96,769.53 1762.55,768.463 1764.69,767.026 1766.19,766.019 1768.22,764.659 1770.88,762.877 1773.01,761.452 1775.25,759.949 1776.31,759.236 1778.63,757.684 1780.33,756.548 1781.92,755.479 1783.55,754.386 1785.99,752.753 1788.75,750.902 1790.18,749.942 1792.54,748.365 1795.55,746.344 1797.36,745.133 1800.86,742.787 1802.83,741.469 1804.15,740.583 1806.65,738.904 1808.13,737.912 1810.72,736.176 1813.91,734.041 1815.79,732.78 1818.69,730.833 1821.44,728.995 1823.37,727.696 1824.69,726.816 1828.01,724.591 1830.84,722.69 1832.13,721.829 1835.34,719.677 1839.53,716.869 1841.99,715.217 1844.53,713.515 1847.17,711.749 1850.62,709.438 1853.82,707.289 1858.44,704.194 1861.57,702.096 1863.68,700.682 1866.86,698.552 1870.39,696.184 1874.39,693.503 1878.24,690.926 1883.1,687.665 1887.29,684.856 1894.98,679.707 1903.07,674.285 1907.37,671.401 1912.17,668.184 1917.5,664.615 1922.51,661.251 1927.53,657.888 1934.55,653.186 1940.05,649.495 1946.63,645.09 1956.66,638.369 1964.95,632.812 1975.27,625.895 1984.04,620.013 1991.01,615.342 1999.29,609.792 2011.83,601.393 2023.76,593.391 2039.92,582.56 2054.19,573.002 2075.25,558.886 2100.16,542.188 2127.73,523.711 2161.83,500.86 2199.22,475.795 2327.59,389.764 2611.84,199.251 "/>
<circle clip-path="url(#clip061)" cx="539.395" cy="1524.72" r="10.8" fill="#0071b1" fill-rule="evenodd" fill-opacity="0.7" stroke="#000000" stroke-opacity="0.7" stroke-width="4"/>
<circle clip-path="url(#clip061)" cx="1000.19" cy="1309.12" r="10.8" fill="#0071b1" fill-rule="evenodd" fill-opacity="0.7" stroke="#000000" stroke-opacity="0.7" stroke-width="4"/>
<circle clip-path="url(#clip061)" cx="1104.96" cy="1225.83" r="10.8" fill="#0071b1" fill-rule="evenodd" fill-opacity="0.7" stroke="#000000" stroke-opacity="0.7" stroke-width="4"/>
<circle clip-path="url(#clip061)" cx="1165.61" cy="1173.62" r="10.8" fill="#0071b1" fill-rule="evenodd" fill-opacity="0.7" stroke="#000000" stroke-opacity="0.7" stroke-width="4"/>
<circle clip-path="url(#clip061)" cx="1213.2" cy="1136.87" r="10.8" fill="#0071b1" fill-rule="evenodd" fill-opacity="0.7" stroke="#000000" stroke-opacity="0.7" stroke-width="4"/>
<circle clip-path="url(#clip061)" cx="1261.63" cy="1109.49" r="10.8" fill="#0071b1" fill-rule="evenodd" fill-opacity="0.7" stroke="#000000" stroke-opacity="0.7" stroke-width="4"/>
<circle clip-path="url(#clip061)" cx="1294.55" cy="1086.82" r="10.8" fill="#0071b1" fill-rule="evenodd" fill-opacity="0.7" stroke="#000000" stroke-opacity="0.7" stroke-width="4"/>
<circle clip-path="url(#clip061)" cx="1328.35" cy="1067.85" r="10.8" fill="#0071b1" fill-rule="evenodd" fill-opacity="0.7" stroke="#000000" stroke-opacity="0.7" stroke-width="4"/>
<circle clip-path="url(#clip061)" cx="1347.87" cy="1051.6" r="10.8" fill="#0071b1" fill-rule="evenodd" fill-opacity="0.7" stroke="#000000" stroke-opacity="0.7" stroke-width="4"/>
<circle clip-path="url(#clip061)" cx="1366.8" cy="1037.67" r="10.8" fill="#0071b1" fill-rule="evenodd" fill-opacity="0.7" stroke="#000000" stroke-opacity="0.7" stroke-width="4"/>
<circle clip-path="url(#clip061)" cx="1382.8" cy="1025.53" r="10.8" fill="#0071b1" fill-rule="evenodd" fill-opacity="0.7" stroke="#000000" stroke-opacity="0.7" stroke-width="4"/>
<circle clip-path="url(#clip061)" cx="1396.84" cy="1014.74" r="10.8" fill="#0071b1" fill-rule="evenodd" fill-opacity="0.7" stroke="#000000" stroke-opacity="0.7" stroke-width="4"/>
<circle clip-path="url(#clip061)" cx="1408.61" cy="1005.29" r="10.8" fill="#0071b1" fill-rule="evenodd" fill-opacity="0.7" stroke="#000000" stroke-opacity="0.7" stroke-width="4"/>
<circle clip-path="url(#clip061)" cx="1427.62" cy="996.757" r="10.8" fill="#0071b1" fill-rule="evenodd" fill-opacity="0.7" stroke="#000000" stroke-opacity="0.7" stroke-width="4"/>
<circle clip-path="url(#clip061)" cx="1439.89" cy="989.009" r="10.8" fill="#0071b1" fill-rule="evenodd" fill-opacity="0.7" stroke="#000000" stroke-opacity="0.7" stroke-width="4"/>
<circle clip-path="url(#clip061)" cx="1451.28" cy="982.108" r="10.8" fill="#0071b1" fill-rule="evenodd" fill-opacity="0.7" stroke="#000000" stroke-opacity="0.7" stroke-width="4"/>
<circle clip-path="url(#clip061)" cx="1456.01" cy="975.694" r="10.8" fill="#0071b1" fill-rule="evenodd" fill-opacity="0.7" stroke="#000000" stroke-opacity="0.7" stroke-width="4"/>
<circle clip-path="url(#clip061)" cx="1466" cy="969.776" r="10.8" fill="#0071b1" fill-rule="evenodd" fill-opacity="0.7" stroke="#000000" stroke-opacity="0.7" stroke-width="4"/>
<circle clip-path="url(#clip061)" cx="1476.84" cy="964.271" r="10.8" fill="#0071b1" fill-rule="evenodd" fill-opacity="0.7" stroke="#000000" stroke-opacity="0.7" stroke-width="4"/>
<circle clip-path="url(#clip061)" cx="1483.5" cy="958.957" r="10.8" fill="#0071b1" fill-rule="evenodd" fill-opacity="0.7" stroke="#000000" stroke-opacity="0.7" stroke-width="4"/>
<circle clip-path="url(#clip061)" cx="1490.12" cy="953.955" r="10.8" fill="#0071b1" fill-rule="evenodd" fill-opacity="0.7" stroke="#000000" stroke-opacity="0.7" stroke-width="4"/>
<circle clip-path="url(#clip061)" cx="1496.52" cy="949.105" r="10.8" fill="#0071b1" fill-rule="evenodd" fill-opacity="0.7" stroke="#000000" stroke-opacity="0.7" stroke-width="4"/>
<circle clip-path="url(#clip061)" cx="1503.33" cy="944.5" r="10.8" fill="#0071b1" fill-rule="evenodd" fill-opacity="0.7" stroke="#000000" stroke-opacity="0.7" stroke-width="4"/>
<circle clip-path="url(#clip061)" cx="1511.04" cy="939.94" r="10.8" fill="#0071b1" fill-rule="evenodd" fill-opacity="0.7" stroke="#000000" stroke-opacity="0.7" stroke-width="4"/>
<circle clip-path="url(#clip061)" cx="1519.14" cy="935.447" r="10.8" fill="#0071b1" fill-rule="evenodd" fill-opacity="0.7" stroke="#000000" stroke-opacity="0.7" stroke-width="4"/>
<circle clip-path="url(#clip061)" cx="1526.18" cy="930.991" r="10.8" fill="#0071b1" fill-rule="evenodd" fill-opacity="0.7" stroke="#000000" stroke-opacity="0.7" stroke-width="4"/>
<circle clip-path="url(#clip061)" cx="1532.15" cy="926.674" r="10.8" fill="#0071b1" fill-rule="evenodd" fill-opacity="0.7" stroke="#000000" stroke-opacity="0.7" stroke-width="4"/>
<circle clip-path="url(#clip061)" cx="1537.47" cy="922.451" r="10.8" fill="#0071b1" fill-rule="evenodd" fill-opacity="0.7" stroke="#000000" stroke-opacity="0.7" stroke-width="4"/>
<circle clip-path="url(#clip061)" cx="1541.86" cy="918.221" r="10.8" fill="#0071b1" fill-rule="evenodd" fill-opacity="0.7" stroke="#000000" stroke-opacity="0.7" stroke-width="4"/>
<circle clip-path="url(#clip061)" cx="1548.64" cy="914.171" r="10.8" fill="#0071b1" fill-rule="evenodd" fill-opacity="0.7" stroke="#000000" stroke-opacity="0.7" stroke-width="4"/>
<circle clip-path="url(#clip061)" cx="1554.47" cy="910.236" r="10.8" fill="#0071b1" fill-rule="evenodd" fill-opacity="0.7" stroke="#000000" stroke-opacity="0.7" stroke-width="4"/>
<circle clip-path="url(#clip061)" cx="1560.99" cy="906.468" r="10.8" fill="#0071b1" fill-rule="evenodd" fill-opacity="0.7" stroke="#000000" stroke-opacity="0.7" stroke-width="4"/>
<circle clip-path="url(#clip061)" cx="1564.99" cy="903.001" r="10.8" fill="#0071b1" fill-rule="evenodd" fill-opacity="0.7" stroke="#000000" stroke-opacity="0.7" stroke-width="4"/>
<circle clip-path="url(#clip061)" cx="1569.53" cy="899.655" r="10.8" fill="#0071b1" fill-rule="evenodd" fill-opacity="0.7" stroke="#000000" stroke-opacity="0.7" stroke-width="4"/>
<circle clip-path="url(#clip061)" cx="1572.59" cy="896.521" r="10.8" fill="#0071b1" fill-rule="evenodd" fill-opacity="0.7" stroke="#000000" stroke-opacity="0.7" stroke-width="4"/>
<circle clip-path="url(#clip061)" cx="1577.04" cy="893.62" r="10.8" fill="#0071b1" fill-rule="evenodd" fill-opacity="0.7" stroke="#000000" stroke-opacity="0.7" stroke-width="4"/>
<circle clip-path="url(#clip061)" cx="1580.37" cy="890.877" r="10.8" fill="#0071b1" fill-rule="evenodd" fill-opacity="0.7" stroke="#000000" stroke-opacity="0.7" stroke-width="4"/>
<circle clip-path="url(#clip061)" cx="1584.25" cy="888.251" r="10.8" fill="#0071b1" fill-rule="evenodd" fill-opacity="0.7" stroke="#000000" stroke-opacity="0.7" stroke-width="4"/>
<circle clip-path="url(#clip061)" cx="1589.22" cy="885.796" r="10.8" fill="#0071b1" fill-rule="evenodd" fill-opacity="0.7" stroke="#000000" stroke-opacity="0.7" stroke-width="4"/>
<circle clip-path="url(#clip061)" cx="1592.55" cy="883.418" r="10.8" fill="#0071b1" fill-rule="evenodd" fill-opacity="0.7" stroke="#000000" stroke-opacity="0.7" stroke-width="4"/>
<circle clip-path="url(#clip061)" cx="1595.83" cy="881.131" r="10.8" fill="#0071b1" fill-rule="evenodd" fill-opacity="0.7" stroke="#000000" stroke-opacity="0.7" stroke-width="4"/>
<circle clip-path="url(#clip061)" cx="1598.05" cy="878.923" r="10.8" fill="#0071b1" fill-rule="evenodd" fill-opacity="0.7" stroke="#000000" stroke-opacity="0.7" stroke-width="4"/>
<circle clip-path="url(#clip061)" cx="1602.91" cy="876.771" r="10.8" fill="#0071b1" fill-rule="evenodd" fill-opacity="0.7" stroke="#000000" stroke-opacity="0.7" stroke-width="4"/>
<circle clip-path="url(#clip061)" cx="1605.64" cy="874.707" r="10.8" fill="#0071b1" fill-rule="evenodd" fill-opacity="0.7" stroke="#000000" stroke-opacity="0.7" stroke-width="4"/>
<circle clip-path="url(#clip061)" cx="1608.4" cy="872.645" r="10.8" fill="#0071b1" fill-rule="evenodd" fill-opacity="0.7" stroke="#000000" stroke-opacity="0.7" stroke-width="4"/>
<circle clip-path="url(#clip061)" cx="1610.8" cy="870.598" r="10.8" fill="#0071b1" fill-rule="evenodd" fill-opacity="0.7" stroke="#000000" stroke-opacity="0.7" stroke-width="4"/>
<circle clip-path="url(#clip061)" cx="1614.83" cy="868.6" r="10.8" fill="#0071b1" fill-rule="evenodd" fill-opacity="0.7" stroke="#000000" stroke-opacity="0.7" stroke-width="4"/>
<circle clip-path="url(#clip061)" cx="1618.02" cy="866.596" r="10.8" fill="#0071b1" fill-rule="evenodd" fill-opacity="0.7" stroke="#000000" stroke-opacity="0.7" stroke-width="4"/>
<circle clip-path="url(#clip061)" cx="1620.55" cy="864.564" r="10.8" fill="#0071b1" fill-rule="evenodd" fill-opacity="0.7" stroke="#000000" stroke-opacity="0.7" stroke-width="4"/>
<circle clip-path="url(#clip061)" cx="1623.28" cy="862.546" r="10.8" fill="#0071b1" fill-rule="evenodd" fill-opacity="0.7" stroke="#000000" stroke-opacity="0.7" stroke-width="4"/>
<circle clip-path="url(#clip061)" cx="1625.96" cy="860.513" r="10.8" fill="#0071b1" fill-rule="evenodd" fill-opacity="0.7" stroke="#000000" stroke-opacity="0.7" stroke-width="4"/>
<circle clip-path="url(#clip061)" cx="1628.74" cy="858.488" r="10.8" fill="#0071b1" fill-rule="evenodd" fill-opacity="0.7" stroke="#000000" stroke-opacity="0.7" stroke-width="4"/>
<circle clip-path="url(#clip061)" cx="1633.28" cy="856.467" r="10.8" fill="#0071b1" fill-rule="evenodd" fill-opacity="0.7" stroke="#000000" stroke-opacity="0.7" stroke-width="4"/>
<circle clip-path="url(#clip061)" cx="1636.19" cy="854.472" r="10.8" fill="#0071b1" fill-rule="evenodd" fill-opacity="0.7" stroke="#000000" stroke-opacity="0.7" stroke-width="4"/>
<circle clip-path="url(#clip061)" cx="1637.56" cy="852.494" r="10.8" fill="#0071b1" fill-rule="evenodd" fill-opacity="0.7" stroke="#000000" stroke-opacity="0.7" stroke-width="4"/>
<circle clip-path="url(#clip061)" cx="1640.8" cy="850.614" r="10.8" fill="#0071b1" fill-rule="evenodd" fill-opacity="0.7" stroke="#000000" stroke-opacity="0.7" stroke-width="4"/>
<circle clip-path="url(#clip061)" cx="1643.53" cy="848.808" r="10.8" fill="#0071b1" fill-rule="evenodd" fill-opacity="0.7" stroke="#000000" stroke-opacity="0.7" stroke-width="4"/>
<circle clip-path="url(#clip061)" cx="1645.72" cy="847.106" r="10.8" fill="#0071b1" fill-rule="evenodd" fill-opacity="0.7" stroke="#000000" stroke-opacity="0.7" stroke-width="4"/>
<circle clip-path="url(#clip061)" cx="1648.36" cy="845.486" r="10.8" fill="#0071b1" fill-rule="evenodd" fill-opacity="0.7" stroke="#000000" stroke-opacity="0.7" stroke-width="4"/>
<circle clip-path="url(#clip061)" cx="1650.13" cy="843.923" r="10.8" fill="#0071b1" fill-rule="evenodd" fill-opacity="0.7" stroke="#000000" stroke-opacity="0.7" stroke-width="4"/>
<circle clip-path="url(#clip061)" cx="1651.98" cy="842.407" r="10.8" fill="#0071b1" fill-rule="evenodd" fill-opacity="0.7" stroke="#000000" stroke-opacity="0.7" stroke-width="4"/>
<circle clip-path="url(#clip061)" cx="1654.59" cy="840.915" r="10.8" fill="#0071b1" fill-rule="evenodd" fill-opacity="0.7" stroke="#000000" stroke-opacity="0.7" stroke-width="4"/>
<circle clip-path="url(#clip061)" cx="1656.73" cy="839.466" r="10.8" fill="#0071b1" fill-rule="evenodd" fill-opacity="0.7" stroke="#000000" stroke-opacity="0.7" stroke-width="4"/>
<circle clip-path="url(#clip061)" cx="1659.05" cy="837.998" r="10.8" fill="#0071b1" fill-rule="evenodd" fill-opacity="0.7" stroke="#000000" stroke-opacity="0.7" stroke-width="4"/>
<circle clip-path="url(#clip061)" cx="1661.94" cy="836.528" r="10.8" fill="#0071b1" fill-rule="evenodd" fill-opacity="0.7" stroke="#000000" stroke-opacity="0.7" stroke-width="4"/>
<circle clip-path="url(#clip061)" cx="1664.07" cy="835.021" r="10.8" fill="#0071b1" fill-rule="evenodd" fill-opacity="0.7" stroke="#000000" stroke-opacity="0.7" stroke-width="4"/>
<circle clip-path="url(#clip061)" cx="1666.04" cy="833.516" r="10.8" fill="#0071b1" fill-rule="evenodd" fill-opacity="0.7" stroke="#000000" stroke-opacity="0.7" stroke-width="4"/>
<circle clip-path="url(#clip061)" cx="1667.61" cy="831.977" r="10.8" fill="#0071b1" fill-rule="evenodd" fill-opacity="0.7" stroke="#000000" stroke-opacity="0.7" stroke-width="4"/>
<circle clip-path="url(#clip061)" cx="1669.61" cy="830.444" r="10.8" fill="#0071b1" fill-rule="evenodd" fill-opacity="0.7" stroke="#000000" stroke-opacity="0.7" stroke-width="4"/>
<circle clip-path="url(#clip061)" cx="1672.54" cy="828.924" r="10.8" fill="#0071b1" fill-rule="evenodd" fill-opacity="0.7" stroke="#000000" stroke-opacity="0.7" stroke-width="4"/>
<circle clip-path="url(#clip061)" cx="1674.24" cy="827.47" r="10.8" fill="#0071b1" fill-rule="evenodd" fill-opacity="0.7" stroke="#000000" stroke-opacity="0.7" stroke-width="4"/>
<circle clip-path="url(#clip061)" cx="1676.47" cy="826.072" r="10.8" fill="#0071b1" fill-rule="evenodd" fill-opacity="0.7" stroke="#000000" stroke-opacity="0.7" stroke-width="4"/>
<circle clip-path="url(#clip061)" cx="1678.57" cy="824.751" r="10.8" fill="#0071b1" fill-rule="evenodd" fill-opacity="0.7" stroke="#000000" stroke-opacity="0.7" stroke-width="4"/>
<circle clip-path="url(#clip061)" cx="1680.87" cy="823.477" r="10.8" fill="#0071b1" fill-rule="evenodd" fill-opacity="0.7" stroke="#000000" stroke-opacity="0.7" stroke-width="4"/>
<circle clip-path="url(#clip061)" cx="1682.07" cy="822.234" r="10.8" fill="#0071b1" fill-rule="evenodd" fill-opacity="0.7" stroke="#000000" stroke-opacity="0.7" stroke-width="4"/>
<circle clip-path="url(#clip061)" cx="1685.2" cy="821.066" r="10.8" fill="#0071b1" fill-rule="evenodd" fill-opacity="0.7" stroke="#000000" stroke-opacity="0.7" stroke-width="4"/>
<circle clip-path="url(#clip061)" cx="1686.5" cy="819.943" r="10.8" fill="#0071b1" fill-rule="evenodd" fill-opacity="0.7" stroke="#000000" stroke-opacity="0.7" stroke-width="4"/>
<circle clip-path="url(#clip061)" cx="1687.81" cy="818.836" r="10.8" fill="#0071b1" fill-rule="evenodd" fill-opacity="0.7" stroke="#000000" stroke-opacity="0.7" stroke-width="4"/>
<circle clip-path="url(#clip061)" cx="1688.99" cy="817.741" r="10.8" fill="#0071b1" fill-rule="evenodd" fill-opacity="0.7" stroke="#000000" stroke-opacity="0.7" stroke-width="4"/>
<circle clip-path="url(#clip061)" cx="1690.68" cy="816.666" r="10.8" fill="#0071b1" fill-rule="evenodd" fill-opacity="0.7" stroke="#000000" stroke-opacity="0.7" stroke-width="4"/>
<circle clip-path="url(#clip061)" cx="1692.27" cy="815.604" r="10.8" fill="#0071b1" fill-rule="evenodd" fill-opacity="0.7" stroke="#000000" stroke-opacity="0.7" stroke-width="4"/>
<circle clip-path="url(#clip061)" cx="1693.96" cy="814.549" r="10.8" fill="#0071b1" fill-rule="evenodd" fill-opacity="0.7" stroke="#000000" stroke-opacity="0.7" stroke-width="4"/>
<circle clip-path="url(#clip061)" cx="1695.18" cy="813.522" r="10.8" fill="#0071b1" fill-rule="evenodd" fill-opacity="0.7" stroke="#000000" stroke-opacity="0.7" stroke-width="4"/>
<circle clip-path="url(#clip061)" cx="1697.21" cy="812.477" r="10.8" fill="#0071b1" fill-rule="evenodd" fill-opacity="0.7" stroke="#000000" stroke-opacity="0.7" stroke-width="4"/>
<circle clip-path="url(#clip061)" cx="1698.53" cy="811.433" r="10.8" fill="#0071b1" fill-rule="evenodd" fill-opacity="0.7" stroke="#000000" stroke-opacity="0.7" stroke-width="4"/>
<circle clip-path="url(#clip061)" cx="1699.87" cy="810.393" r="10.8" fill="#0071b1" fill-rule="evenodd" fill-opacity="0.7" stroke="#000000" stroke-opacity="0.7" stroke-width="4"/>
<circle clip-path="url(#clip061)" cx="1701.31" cy="809.388" r="10.8" fill="#0071b1" fill-rule="evenodd" fill-opacity="0.7" stroke="#000000" stroke-opacity="0.7" stroke-width="4"/>
<circle clip-path="url(#clip061)" cx="1703.77" cy="808.373" r="10.8" fill="#0071b1" fill-rule="evenodd" fill-opacity="0.7" stroke="#000000" stroke-opacity="0.7" stroke-width="4"/>
<circle clip-path="url(#clip061)" cx="1705.14" cy="807.362" r="10.8" fill="#0071b1" fill-rule="evenodd" fill-opacity="0.7" stroke="#000000" stroke-opacity="0.7" stroke-width="4"/>
<circle clip-path="url(#clip061)" cx="1706.15" cy="806.354" r="10.8" fill="#0071b1" fill-rule="evenodd" fill-opacity="0.7" stroke="#000000" stroke-opacity="0.7" stroke-width="4"/>
<circle clip-path="url(#clip061)" cx="1707.81" cy="805.353" r="10.8" fill="#0071b1" fill-rule="evenodd" fill-opacity="0.7" stroke="#000000" stroke-opacity="0.7" stroke-width="4"/>
<circle clip-path="url(#clip061)" cx="1709.24" cy="804.355" r="10.8" fill="#0071b1" fill-rule="evenodd" fill-opacity="0.7" stroke="#000000" stroke-opacity="0.7" stroke-width="4"/>
<circle clip-path="url(#clip061)" cx="1711.39" cy="803.364" r="10.8" fill="#0071b1" fill-rule="evenodd" fill-opacity="0.7" stroke="#000000" stroke-opacity="0.7" stroke-width="4"/>
<circle clip-path="url(#clip061)" cx="1712.42" cy="802.362" r="10.8" fill="#0071b1" fill-rule="evenodd" fill-opacity="0.7" stroke="#000000" stroke-opacity="0.7" stroke-width="4"/>
<circle clip-path="url(#clip061)" cx="1713.87" cy="801.363" r="10.8" fill="#0071b1" fill-rule="evenodd" fill-opacity="0.7" stroke="#000000" stroke-opacity="0.7" stroke-width="4"/>
<circle clip-path="url(#clip061)" cx="1714.7" cy="800.365" r="10.8" fill="#0071b1" fill-rule="evenodd" fill-opacity="0.7" stroke="#000000" stroke-opacity="0.7" stroke-width="4"/>
<circle clip-path="url(#clip061)" cx="1716.59" cy="799.356" r="10.8" fill="#0071b1" fill-rule="evenodd" fill-opacity="0.7" stroke="#000000" stroke-opacity="0.7" stroke-width="4"/>
<circle clip-path="url(#clip061)" cx="1717.75" cy="798.343" r="10.8" fill="#0071b1" fill-rule="evenodd" fill-opacity="0.7" stroke="#000000" stroke-opacity="0.7" stroke-width="4"/>
<circle clip-path="url(#clip061)" cx="1719.54" cy="797.316" r="10.8" fill="#0071b1" fill-rule="evenodd" fill-opacity="0.7" stroke="#000000" stroke-opacity="0.7" stroke-width="4"/>
<circle clip-path="url(#clip061)" cx="1720.68" cy="796.294" r="10.8" fill="#0071b1" fill-rule="evenodd" fill-opacity="0.7" stroke="#000000" stroke-opacity="0.7" stroke-width="4"/>
<circle clip-path="url(#clip061)" cx="1722.14" cy="795.248" r="10.8" fill="#0071b1" fill-rule="evenodd" fill-opacity="0.7" stroke="#000000" stroke-opacity="0.7" stroke-width="4"/>
<circle clip-path="url(#clip061)" cx="1722.76" cy="794.202" r="10.8" fill="#0071b1" fill-rule="evenodd" fill-opacity="0.7" stroke="#000000" stroke-opacity="0.7" stroke-width="4"/>
<circle clip-path="url(#clip061)" cx="1725.04" cy="793.141" r="10.8" fill="#0071b1" fill-rule="evenodd" fill-opacity="0.7" stroke="#000000" stroke-opacity="0.7" stroke-width="4"/>
<circle clip-path="url(#clip061)" cx="1726.86" cy="792.063" r="10.8" fill="#0071b1" fill-rule="evenodd" fill-opacity="0.7" stroke="#000000" stroke-opacity="0.7" stroke-width="4"/>
<circle clip-path="url(#clip061)" cx="1728.78" cy="791" r="10.8" fill="#0071b1" fill-rule="evenodd" fill-opacity="0.7" stroke="#000000" stroke-opacity="0.7" stroke-width="4"/>
<circle clip-path="url(#clip061)" cx="1730.79" cy="789.905" r="10.8" fill="#0071b1" fill-rule="evenodd" fill-opacity="0.7" stroke="#000000" stroke-opacity="0.7" stroke-width="4"/>
<circle clip-path="url(#clip061)" cx="1732.73" cy="788.796" r="10.8" fill="#0071b1" fill-rule="evenodd" fill-opacity="0.7" stroke="#000000" stroke-opacity="0.7" stroke-width="4"/>
<circle clip-path="url(#clip061)" cx="1733.72" cy="787.694" r="10.8" fill="#0071b1" fill-rule="evenodd" fill-opacity="0.7" stroke="#000000" stroke-opacity="0.7" stroke-width="4"/>
<circle clip-path="url(#clip061)" cx="1736.17" cy="786.588" r="10.8" fill="#0071b1" fill-rule="evenodd" fill-opacity="0.7" stroke="#000000" stroke-opacity="0.7" stroke-width="4"/>
<circle clip-path="url(#clip061)" cx="1738.01" cy="785.488" r="10.8" fill="#0071b1" fill-rule="evenodd" fill-opacity="0.7" stroke="#000000" stroke-opacity="0.7" stroke-width="4"/>
<circle clip-path="url(#clip061)" cx="1739.05" cy="784.391" r="10.8" fill="#0071b1" fill-rule="evenodd" fill-opacity="0.7" stroke="#000000" stroke-opacity="0.7" stroke-width="4"/>
<circle clip-path="url(#clip061)" cx="1739.78" cy="783.275" r="10.8" fill="#0071b1" fill-rule="evenodd" fill-opacity="0.7" stroke="#000000" stroke-opacity="0.7" stroke-width="4"/>
<circle clip-path="url(#clip061)" cx="1741.9" cy="782.176" r="10.8" fill="#0071b1" fill-rule="evenodd" fill-opacity="0.7" stroke="#000000" stroke-opacity="0.7" stroke-width="4"/>
<circle clip-path="url(#clip061)" cx="1744.44" cy="781.056" r="10.8" fill="#0071b1" fill-rule="evenodd" fill-opacity="0.7" stroke="#000000" stroke-opacity="0.7" stroke-width="4"/>
<circle clip-path="url(#clip061)" cx="1746.16" cy="779.927" r="10.8" fill="#0071b1" fill-rule="evenodd" fill-opacity="0.7" stroke="#000000" stroke-opacity="0.7" stroke-width="4"/>
<circle clip-path="url(#clip061)" cx="1747.57" cy="778.794" r="10.8" fill="#0071b1" fill-rule="evenodd" fill-opacity="0.7" stroke="#000000" stroke-opacity="0.7" stroke-width="4"/>
<circle clip-path="url(#clip061)" cx="1749.65" cy="777.645" r="10.8" fill="#0071b1" fill-rule="evenodd" fill-opacity="0.7" stroke="#000000" stroke-opacity="0.7" stroke-width="4"/>
<circle clip-path="url(#clip061)" cx="1751.13" cy="776.474" r="10.8" fill="#0071b1" fill-rule="evenodd" fill-opacity="0.7" stroke="#000000" stroke-opacity="0.7" stroke-width="4"/>
<circle clip-path="url(#clip061)" cx="1752.1" cy="775.292" r="10.8" fill="#0071b1" fill-rule="evenodd" fill-opacity="0.7" stroke="#000000" stroke-opacity="0.7" stroke-width="4"/>
<circle clip-path="url(#clip061)" cx="1754.06" cy="774.1" r="10.8" fill="#0071b1" fill-rule="evenodd" fill-opacity="0.7" stroke="#000000" stroke-opacity="0.7" stroke-width="4"/>
<circle clip-path="url(#clip061)" cx="1755.68" cy="772.893" r="10.8" fill="#0071b1" fill-rule="evenodd" fill-opacity="0.7" stroke="#000000" stroke-opacity="0.7" stroke-width="4"/>
<circle clip-path="url(#clip061)" cx="1757.65" cy="771.663" r="10.8" fill="#0071b1" fill-rule="evenodd" fill-opacity="0.7" stroke="#000000" stroke-opacity="0.7" stroke-width="4"/>
<circle clip-path="url(#clip061)" cx="1759.18" cy="770.421" r="10.8" fill="#0071b1" fill-rule="evenodd" fill-opacity="0.7" stroke="#000000" stroke-opacity="0.7" stroke-width="4"/>
<circle clip-path="url(#clip061)" cx="1760.96" cy="769.16" r="10.8" fill="#0071b1" fill-rule="evenodd" fill-opacity="0.7" stroke="#000000" stroke-opacity="0.7" stroke-width="4"/>
<circle clip-path="url(#clip061)" cx="1762.55" cy="767.915" r="10.8" fill="#0071b1" fill-rule="evenodd" fill-opacity="0.7" stroke="#000000" stroke-opacity="0.7" stroke-width="4"/>
<circle clip-path="url(#clip061)" cx="1764.69" cy="766.631" r="10.8" fill="#0071b1" fill-rule="evenodd" fill-opacity="0.7" stroke="#000000" stroke-opacity="0.7" stroke-width="4"/>
<circle clip-path="url(#clip061)" cx="1766.19" cy="765.33" r="10.8" fill="#0071b1" fill-rule="evenodd" fill-opacity="0.7" stroke="#000000" stroke-opacity="0.7" stroke-width="4"/>
<circle clip-path="url(#clip061)" cx="1768.22" cy="764.01" r="10.8" fill="#0071b1" fill-rule="evenodd" fill-opacity="0.7" stroke="#000000" stroke-opacity="0.7" stroke-width="4"/>
<circle clip-path="url(#clip061)" cx="1770.88" cy="762.664" r="10.8" fill="#0071b1" fill-rule="evenodd" fill-opacity="0.7" stroke="#000000" stroke-opacity="0.7" stroke-width="4"/>
<circle clip-path="url(#clip061)" cx="1773.01" cy="761.313" r="10.8" fill="#0071b1" fill-rule="evenodd" fill-opacity="0.7" stroke="#000000" stroke-opacity="0.7" stroke-width="4"/>
<circle clip-path="url(#clip061)" cx="1775.25" cy="759.931" r="10.8" fill="#0071b1" fill-rule="evenodd" fill-opacity="0.7" stroke="#000000" stroke-opacity="0.7" stroke-width="4"/>
<circle clip-path="url(#clip061)" cx="1776.31" cy="758.538" r="10.8" fill="#0071b1" fill-rule="evenodd" fill-opacity="0.7" stroke="#000000" stroke-opacity="0.7" stroke-width="4"/>
<circle clip-path="url(#clip061)" cx="1778.63" cy="757.143" r="10.8" fill="#0071b1" fill-rule="evenodd" fill-opacity="0.7" stroke="#000000" stroke-opacity="0.7" stroke-width="4"/>
<circle clip-path="url(#clip061)" cx="1780.33" cy="755.739" r="10.8" fill="#0071b1" fill-rule="evenodd" fill-opacity="0.7" stroke="#000000" stroke-opacity="0.7" stroke-width="4"/>
<circle clip-path="url(#clip061)" cx="1781.92" cy="754.308" r="10.8" fill="#0071b1" fill-rule="evenodd" fill-opacity="0.7" stroke="#000000" stroke-opacity="0.7" stroke-width="4"/>
<circle clip-path="url(#clip061)" cx="1783.55" cy="752.863" r="10.8" fill="#0071b1" fill-rule="evenodd" fill-opacity="0.7" stroke="#000000" stroke-opacity="0.7" stroke-width="4"/>
<circle clip-path="url(#clip061)" cx="1785.99" cy="751.44" r="10.8" fill="#0071b1" fill-rule="evenodd" fill-opacity="0.7" stroke="#000000" stroke-opacity="0.7" stroke-width="4"/>
<circle clip-path="url(#clip061)" cx="1788.75" cy="750.021" r="10.8" fill="#0071b1" fill-rule="evenodd" fill-opacity="0.7" stroke="#000000" stroke-opacity="0.7" stroke-width="4"/>
<circle clip-path="url(#clip061)" cx="1790.18" cy="748.583" r="10.8" fill="#0071b1" fill-rule="evenodd" fill-opacity="0.7" stroke="#000000" stroke-opacity="0.7" stroke-width="4"/>
<circle clip-path="url(#clip061)" cx="1792.54" cy="747.151" r="10.8" fill="#0071b1" fill-rule="evenodd" fill-opacity="0.7" stroke="#000000" stroke-opacity="0.7" stroke-width="4"/>
<circle clip-path="url(#clip061)" cx="1795.55" cy="745.712" r="10.8" fill="#0071b1" fill-rule="evenodd" fill-opacity="0.7" stroke="#000000" stroke-opacity="0.7" stroke-width="4"/>
<circle clip-path="url(#clip061)" cx="1797.36" cy="744.28" r="10.8" fill="#0071b1" fill-rule="evenodd" fill-opacity="0.7" stroke="#000000" stroke-opacity="0.7" stroke-width="4"/>
<circle clip-path="url(#clip061)" cx="1800.86" cy="742.863" r="10.8" fill="#0071b1" fill-rule="evenodd" fill-opacity="0.7" stroke="#000000" stroke-opacity="0.7" stroke-width="4"/>
<circle clip-path="url(#clip061)" cx="1802.83" cy="741.413" r="10.8" fill="#0071b1" fill-rule="evenodd" fill-opacity="0.7" stroke="#000000" stroke-opacity="0.7" stroke-width="4"/>
<circle clip-path="url(#clip061)" cx="1804.15" cy="739.981" r="10.8" fill="#0071b1" fill-rule="evenodd" fill-opacity="0.7" stroke="#000000" stroke-opacity="0.7" stroke-width="4"/>
<circle clip-path="url(#clip061)" cx="1806.65" cy="738.545" r="10.8" fill="#0071b1" fill-rule="evenodd" fill-opacity="0.7" stroke="#000000" stroke-opacity="0.7" stroke-width="4"/>
<circle clip-path="url(#clip061)" cx="1808.13" cy="737.139" r="10.8" fill="#0071b1" fill-rule="evenodd" fill-opacity="0.7" stroke="#000000" stroke-opacity="0.7" stroke-width="4"/>
<circle clip-path="url(#clip061)" cx="1810.72" cy="735.699" r="10.8" fill="#0071b1" fill-rule="evenodd" fill-opacity="0.7" stroke="#000000" stroke-opacity="0.7" stroke-width="4"/>
<circle clip-path="url(#clip061)" cx="1813.91" cy="734.236" r="10.8" fill="#0071b1" fill-rule="evenodd" fill-opacity="0.7" stroke="#000000" stroke-opacity="0.7" stroke-width="4"/>
<circle clip-path="url(#clip061)" cx="1815.79" cy="732.755" r="10.8" fill="#0071b1" fill-rule="evenodd" fill-opacity="0.7" stroke="#000000" stroke-opacity="0.7" stroke-width="4"/>
<circle clip-path="url(#clip061)" cx="1818.69" cy="731.253" r="10.8" fill="#0071b1" fill-rule="evenodd" fill-opacity="0.7" stroke="#000000" stroke-opacity="0.7" stroke-width="4"/>
<circle clip-path="url(#clip061)" cx="1821.44" cy="729.753" r="10.8" fill="#0071b1" fill-rule="evenodd" fill-opacity="0.7" stroke="#000000" stroke-opacity="0.7" stroke-width="4"/>
<circle clip-path="url(#clip061)" cx="1823.37" cy="728.221" r="10.8" fill="#0071b1" fill-rule="evenodd" fill-opacity="0.7" stroke="#000000" stroke-opacity="0.7" stroke-width="4"/>
<circle clip-path="url(#clip061)" cx="1824.69" cy="726.638" r="10.8" fill="#0071b1" fill-rule="evenodd" fill-opacity="0.7" stroke="#000000" stroke-opacity="0.7" stroke-width="4"/>
<circle clip-path="url(#clip061)" cx="1828.01" cy="725.027" r="10.8" fill="#0071b1" fill-rule="evenodd" fill-opacity="0.7" stroke="#000000" stroke-opacity="0.7" stroke-width="4"/>
<circle clip-path="url(#clip061)" cx="1830.84" cy="723.361" r="10.8" fill="#0071b1" fill-rule="evenodd" fill-opacity="0.7" stroke="#000000" stroke-opacity="0.7" stroke-width="4"/>
<circle clip-path="url(#clip061)" cx="1832.13" cy="721.656" r="10.8" fill="#0071b1" fill-rule="evenodd" fill-opacity="0.7" stroke="#000000" stroke-opacity="0.7" stroke-width="4"/>
<circle clip-path="url(#clip061)" cx="1835.34" cy="719.872" r="10.8" fill="#0071b1" fill-rule="evenodd" fill-opacity="0.7" stroke="#000000" stroke-opacity="0.7" stroke-width="4"/>
<circle clip-path="url(#clip061)" cx="1839.53" cy="718.05" r="10.8" fill="#0071b1" fill-rule="evenodd" fill-opacity="0.7" stroke="#000000" stroke-opacity="0.7" stroke-width="4"/>
<circle clip-path="url(#clip061)" cx="1841.99" cy="716.157" r="10.8" fill="#0071b1" fill-rule="evenodd" fill-opacity="0.7" stroke="#000000" stroke-opacity="0.7" stroke-width="4"/>
<circle clip-path="url(#clip061)" cx="1844.53" cy="714.212" r="10.8" fill="#0071b1" fill-rule="evenodd" fill-opacity="0.7" stroke="#000000" stroke-opacity="0.7" stroke-width="4"/>
<circle clip-path="url(#clip061)" cx="1847.17" cy="712.212" r="10.8" fill="#0071b1" fill-rule="evenodd" fill-opacity="0.7" stroke="#000000" stroke-opacity="0.7" stroke-width="4"/>
<circle clip-path="url(#clip061)" cx="1850.62" cy="710.116" r="10.8" fill="#0071b1" fill-rule="evenodd" fill-opacity="0.7" stroke="#000000" stroke-opacity="0.7" stroke-width="4"/>
<circle clip-path="url(#clip061)" cx="1853.82" cy="707.982" r="10.8" fill="#0071b1" fill-rule="evenodd" fill-opacity="0.7" stroke="#000000" stroke-opacity="0.7" stroke-width="4"/>
<circle clip-path="url(#clip061)" cx="1858.44" cy="705.771" r="10.8" fill="#0071b1" fill-rule="evenodd" fill-opacity="0.7" stroke="#000000" stroke-opacity="0.7" stroke-width="4"/>
<circle clip-path="url(#clip061)" cx="1861.57" cy="703.464" r="10.8" fill="#0071b1" fill-rule="evenodd" fill-opacity="0.7" stroke="#000000" stroke-opacity="0.7" stroke-width="4"/>
<circle clip-path="url(#clip061)" cx="1863.68" cy="701.143" r="10.8" fill="#0071b1" fill-rule="evenodd" fill-opacity="0.7" stroke="#000000" stroke-opacity="0.7" stroke-width="4"/>
<circle clip-path="url(#clip061)" cx="1866.86" cy="698.718" r="10.8" fill="#0071b1" fill-rule="evenodd" fill-opacity="0.7" stroke="#000000" stroke-opacity="0.7" stroke-width="4"/>
<circle clip-path="url(#clip061)" cx="1870.39" cy="696.188" r="10.8" fill="#0071b1" fill-rule="evenodd" fill-opacity="0.7" stroke="#000000" stroke-opacity="0.7" stroke-width="4"/>
<circle clip-path="url(#clip061)" cx="1874.39" cy="693.548" r="10.8" fill="#0071b1" fill-rule="evenodd" fill-opacity="0.7" stroke="#000000" stroke-opacity="0.7" stroke-width="4"/>
<circle clip-path="url(#clip061)" cx="1878.24" cy="690.806" r="10.8" fill="#0071b1" fill-rule="evenodd" fill-opacity="0.7" stroke="#000000" stroke-opacity="0.7" stroke-width="4"/>
<circle clip-path="url(#clip061)" cx="1883.1" cy="687.871" r="10.8" fill="#0071b1" fill-rule="evenodd" fill-opacity="0.7" stroke="#000000" stroke-opacity="0.7" stroke-width="4"/>
<circle clip-path="url(#clip061)" cx="1887.29" cy="684.795" r="10.8" fill="#0071b1" fill-rule="evenodd" fill-opacity="0.7" stroke="#000000" stroke-opacity="0.7" stroke-width="4"/>
<circle clip-path="url(#clip061)" cx="1894.98" cy="681.546" r="10.8" fill="#0071b1" fill-rule="evenodd" fill-opacity="0.7" stroke="#000000" stroke-opacity="0.7" stroke-width="4"/>
<circle clip-path="url(#clip061)" cx="1903.07" cy="678.048" r="10.8" fill="#0071b1" fill-rule="evenodd" fill-opacity="0.7" stroke="#000000" stroke-opacity="0.7" stroke-width="4"/>
<circle clip-path="url(#clip061)" cx="1907.37" cy="674.405" r="10.8" fill="#0071b1" fill-rule="evenodd" fill-opacity="0.7" stroke="#000000" stroke-opacity="0.7" stroke-width="4"/>
<circle clip-path="url(#clip061)" cx="1912.17" cy="670.526" r="10.8" fill="#0071b1" fill-rule="evenodd" fill-opacity="0.7" stroke="#000000" stroke-opacity="0.7" stroke-width="4"/>
<circle clip-path="url(#clip061)" cx="1917.5" cy="666.402" r="10.8" fill="#0071b1" fill-rule="evenodd" fill-opacity="0.7" stroke="#000000" stroke-opacity="0.7" stroke-width="4"/>
<circle clip-path="url(#clip061)" cx="1922.51" cy="662.008" r="10.8" fill="#0071b1" fill-rule="evenodd" fill-opacity="0.7" stroke="#000000" stroke-opacity="0.7" stroke-width="4"/>
<circle clip-path="url(#clip061)" cx="1927.53" cy="657.477" r="10.8" fill="#0071b1" fill-rule="evenodd" fill-opacity="0.7" stroke="#000000" stroke-opacity="0.7" stroke-width="4"/>
<circle clip-path="url(#clip061)" cx="1934.55" cy="652.793" r="10.8" fill="#0071b1" fill-rule="evenodd" fill-opacity="0.7" stroke="#000000" stroke-opacity="0.7" stroke-width="4"/>
<circle clip-path="url(#clip061)" cx="1940.05" cy="647.837" r="10.8" fill="#0071b1" fill-rule="evenodd" fill-opacity="0.7" stroke="#000000" stroke-opacity="0.7" stroke-width="4"/>
<circle clip-path="url(#clip061)" cx="1946.63" cy="642.815" r="10.8" fill="#0071b1" fill-rule="evenodd" fill-opacity="0.7" stroke="#000000" stroke-opacity="0.7" stroke-width="4"/>
<circle clip-path="url(#clip061)" cx="1956.66" cy="637.549" r="10.8" fill="#0071b1" fill-rule="evenodd" fill-opacity="0.7" stroke="#000000" stroke-opacity="0.7" stroke-width="4"/>
<circle clip-path="url(#clip061)" cx="1964.95" cy="632.098" r="10.8" fill="#0071b1" fill-rule="evenodd" fill-opacity="0.7" stroke="#000000" stroke-opacity="0.7" stroke-width="4"/>
<circle clip-path="url(#clip061)" cx="1975.27" cy="626.308" r="10.8" fill="#0071b1" fill-rule="evenodd" fill-opacity="0.7" stroke="#000000" stroke-opacity="0.7" stroke-width="4"/>
<circle clip-path="url(#clip061)" cx="1984.04" cy="620.139" r="10.8" fill="#0071b1" fill-rule="evenodd" fill-opacity="0.7" stroke="#000000" stroke-opacity="0.7" stroke-width="4"/>
<circle clip-path="url(#clip061)" cx="1991.01" cy="613.468" r="10.8" fill="#0071b1" fill-rule="evenodd" fill-opacity="0.7" stroke="#000000" stroke-opacity="0.7" stroke-width="4"/>
<circle clip-path="url(#clip061)" cx="1999.29" cy="606.352" r="10.8" fill="#0071b1" fill-rule="evenodd" fill-opacity="0.7" stroke="#000000" stroke-opacity="0.7" stroke-width="4"/>
<circle clip-path="url(#clip061)" cx="2011.83" cy="598.437" r="10.8" fill="#0071b1" fill-rule="evenodd" fill-opacity="0.7" stroke="#000000" stroke-opacity="0.7" stroke-width="4"/>
<circle clip-path="url(#clip061)" cx="2023.76" cy="589.379" r="10.8" fill="#0071b1" fill-rule="evenodd" fill-opacity="0.7" stroke="#000000" stroke-opacity="0.7" stroke-width="4"/>
<circle clip-path="url(#clip061)" cx="2039.92" cy="579.223" r="10.8" fill="#0071b1" fill-rule="evenodd" fill-opacity="0.7" stroke="#000000" stroke-opacity="0.7" stroke-width="4"/>
<circle clip-path="url(#clip061)" cx="2054.19" cy="567.255" r="10.8" fill="#0071b1" fill-rule="evenodd" fill-opacity="0.7" stroke="#000000" stroke-opacity="0.7" stroke-width="4"/>
<circle clip-path="url(#clip061)" cx="2075.25" cy="552.819" r="10.8" fill="#0071b1" fill-rule="evenodd" fill-opacity="0.7" stroke="#000000" stroke-opacity="0.7" stroke-width="4"/>
<circle clip-path="url(#clip061)" cx="2100.16" cy="535.026" r="10.8" fill="#0071b1" fill-rule="evenodd" fill-opacity="0.7" stroke="#000000" stroke-opacity="0.7" stroke-width="4"/>
<circle clip-path="url(#clip061)" cx="2127.73" cy="512.859" r="10.8" fill="#0071b1" fill-rule="evenodd" fill-opacity="0.7" stroke="#000000" stroke-opacity="0.7" stroke-width="4"/>
<circle clip-path="url(#clip061)" cx="2161.83" cy="483.915" r="10.8" fill="#0071b1" fill-rule="evenodd" fill-opacity="0.7" stroke="#000000" stroke-opacity="0.7" stroke-width="4"/>
<circle clip-path="url(#clip061)" cx="2199.22" cy="442.333" r="10.8" fill="#0071b1" fill-rule="evenodd" fill-opacity="0.7" stroke="#000000" stroke-opacity="0.7" stroke-width="4"/>
<circle clip-path="url(#clip061)" cx="2327.59" cy="372.997" r="10.8" fill="#0071b1" fill-rule="evenodd" fill-opacity="0.7" stroke="#000000" stroke-opacity="0.7" stroke-width="4"/>
<circle clip-path="url(#clip061)" cx="2611.84" cy="168.574" r="10.8" fill="#0071b1" fill-rule="evenodd" fill-opacity="0.7" stroke="#000000" stroke-opacity="0.7" stroke-width="4"/>
<path clip-path="url(#clip060)" d="M550.448 351.106 L1213.69 351.106 L1213.69 176.146 L550.448 176.146  Z" fill="#ffffff" fill-rule="evenodd" fill-opacity="1"/>
<polyline clip-path="url(#clip060)" style="stroke:#000000; stroke-linecap:round; stroke-linejoin:round; stroke-width:4; stroke-opacity:1; fill:none" points="550.448,351.106 1213.69,351.106 1213.69,176.146 550.448,176.146 550.448,351.106 "/>
<polyline clip-path="url(#clip060)" style="stroke:#000000; stroke-linecap:round; stroke-linejoin:round; stroke-width:9; stroke-opacity:1; fill:none" stroke-dasharray="36, 23" points="574.857,234.466 721.31,234.466 "/>
<path clip-path="url(#clip060)" d="M745.719 215.026 L750.979 215.026 L750.979 253.906 L745.719 253.906 L745.719 215.026 Z" fill="#000000" fill-rule="nonzero" fill-opacity="1" /><path clip-path="url(#clip060)" d="M780.432 229.166 L780.432 213.385 L785.224 213.385 L785.224 253.906 L780.432 253.906 L780.432 249.531 Q778.922 252.135 776.604 253.411 Q774.313 254.661 771.083 254.661 Q765.797 254.661 762.464 250.442 Q759.156 246.224 759.156 239.349 Q759.156 232.474 762.464 228.255 Q765.797 224.036 771.083 224.036 Q774.313 224.036 776.604 225.312 Q778.922 226.562 780.432 229.166 M764.104 239.349 Q764.104 244.635 766.266 247.656 Q768.453 250.651 772.255 250.651 Q776.057 250.651 778.245 247.656 Q780.432 244.635 780.432 239.349 Q780.432 234.062 778.245 231.067 Q776.057 228.047 772.255 228.047 Q768.453 228.047 766.266 231.067 Q764.104 234.062 764.104 239.349 Z" fill="#000000" fill-rule="nonzero" fill-opacity="1" /><path clip-path="url(#clip060)" d="M820.042 238.125 L820.042 240.468 L798.01 240.468 Q798.323 245.416 800.979 248.02 Q803.661 250.599 808.427 250.599 Q811.187 250.599 813.766 249.921 Q816.37 249.244 818.922 247.89 L818.922 252.421 Q816.344 253.515 813.635 254.088 Q810.927 254.661 808.141 254.661 Q801.161 254.661 797.073 250.599 Q793.01 246.536 793.01 239.609 Q793.01 232.448 796.865 228.255 Q800.745 224.036 807.307 224.036 Q813.193 224.036 816.604 227.838 Q820.042 231.614 820.042 238.125 M815.25 236.718 Q815.198 232.786 813.036 230.442 Q810.901 228.099 807.359 228.099 Q803.349 228.099 800.927 230.364 Q798.531 232.63 798.167 236.744 L815.25 236.718 Z" fill="#000000" fill-rule="nonzero" fill-opacity="1" /><path clip-path="url(#clip060)" d="M852.151 236.302 L852.151 253.906 L847.359 253.906 L847.359 236.458 Q847.359 232.317 845.745 230.26 Q844.13 228.203 840.901 228.203 Q837.021 228.203 834.781 230.677 Q832.541 233.151 832.541 237.422 L832.541 253.906 L827.724 253.906 L827.724 224.739 L832.541 224.739 L832.541 229.271 Q834.26 226.64 836.578 225.338 Q838.922 224.036 841.968 224.036 Q846.995 224.036 849.573 227.161 Q852.151 230.26 852.151 236.302 Z" fill="#000000" fill-rule="nonzero" fill-opacity="1" /><path clip-path="url(#clip060)" d="M866.448 216.458 L866.448 224.739 L876.317 224.739 L876.317 228.463 L866.448 228.463 L866.448 244.297 Q866.448 247.864 867.411 248.88 Q868.401 249.895 871.395 249.895 L876.317 249.895 L876.317 253.906 L871.395 253.906 Q865.849 253.906 863.739 251.849 Q861.63 249.765 861.63 244.297 L861.63 228.463 L858.114 228.463 L858.114 224.739 L861.63 224.739 L861.63 216.458 L866.448 216.458 Z" fill="#000000" fill-rule="nonzero" fill-opacity="1" /><path clip-path="url(#clip060)" d="M882.619 224.739 L887.411 224.739 L887.411 253.906 L882.619 253.906 L882.619 224.739 M882.619 213.385 L887.411 213.385 L887.411 219.453 L882.619 219.453 L882.619 213.385 Z" fill="#000000" fill-rule="nonzero" fill-opacity="1" /><path clip-path="url(#clip060)" d="M902.176 216.458 L902.176 224.739 L912.046 224.739 L912.046 228.463 L902.176 228.463 L902.176 244.297 Q902.176 247.864 903.14 248.88 Q904.13 249.895 907.124 249.895 L912.046 249.895 L912.046 253.906 L907.124 253.906 Q901.578 253.906 899.468 251.849 Q897.359 249.765 897.359 244.297 L897.359 228.463 L893.843 228.463 L893.843 224.739 L897.359 224.739 L897.359 216.458 L902.176 216.458 Z" fill="#000000" fill-rule="nonzero" fill-opacity="1" /><path clip-path="url(#clip060)" d="M930.484 256.614 Q928.452 261.822 926.525 263.411 Q924.598 265 921.369 265 L917.541 265 L917.541 260.989 L920.353 260.989 Q922.333 260.989 923.426 260.052 Q924.52 259.114 925.848 255.625 L926.708 253.437 L914.911 224.739 L919.989 224.739 L929.103 247.552 L938.218 224.739 L943.296 224.739 L930.484 256.614 Z" fill="#000000" fill-rule="nonzero" fill-opacity="1" /><path clip-path="url(#clip060)" d="M978.374 213.437 Q974.884 219.427 973.192 225.286 Q971.499 231.146 971.499 237.161 Q971.499 243.177 973.192 249.088 Q974.91 254.974 978.374 260.937 L974.207 260.937 Q970.301 254.817 968.348 248.906 Q966.421 242.994 966.421 237.161 Q966.421 231.354 968.348 225.468 Q970.275 219.583 974.207 213.437 L978.374 213.437 Z" fill="#000000" fill-rule="nonzero" fill-opacity="1" /><path clip-path="url(#clip060)" d="M992.306 249.531 L992.306 265 L987.489 265 L987.489 224.739 L992.306 224.739 L992.306 229.166 Q993.817 226.562 996.108 225.312 Q998.426 224.036 1001.63 224.036 Q1006.94 224.036 1010.25 228.255 Q1013.58 232.474 1013.58 239.349 Q1013.58 246.224 1010.25 250.442 Q1006.94 254.661 1001.63 254.661 Q998.426 254.661 996.108 253.411 Q993.817 252.135 992.306 249.531 M1008.61 239.349 Q1008.61 234.062 1006.42 231.067 Q1004.26 228.047 1000.46 228.047 Q996.655 228.047 994.468 231.067 Q992.306 234.062 992.306 239.349 Q992.306 244.635 994.468 247.656 Q996.655 250.651 1000.46 250.651 Q1004.26 250.651 1006.42 247.656 Q1008.61 244.635 1008.61 239.349 Z" fill="#000000" fill-rule="nonzero" fill-opacity="1" /><path clip-path="url(#clip060)" d="M1046.47 238.125 L1046.47 240.468 L1024.44 240.468 Q1024.75 245.416 1027.41 248.02 Q1030.09 250.599 1034.86 250.599 Q1037.62 250.599 1040.2 249.921 Q1042.8 249.244 1045.35 247.89 L1045.35 252.421 Q1042.77 253.515 1040.07 254.088 Q1037.36 254.661 1034.57 254.661 Q1027.59 254.661 1023.5 250.599 Q1019.44 246.536 1019.44 239.609 Q1019.44 232.448 1023.3 228.255 Q1027.18 224.036 1033.74 224.036 Q1039.62 224.036 1043.04 227.838 Q1046.47 231.614 1046.47 238.125 M1041.68 236.718 Q1041.63 232.786 1039.47 230.442 Q1037.33 228.099 1033.79 228.099 Q1029.78 228.099 1027.36 230.364 Q1024.96 232.63 1024.6 236.744 L1041.68 236.718 Z" fill="#000000" fill-rule="nonzero" fill-opacity="1" /><path clip-path="url(#clip060)" d="M1071.24 229.218 Q1070.43 228.75 1069.47 228.541 Q1068.53 228.307 1067.38 228.307 Q1063.32 228.307 1061.13 230.963 Q1058.97 233.593 1058.97 238.541 L1058.97 253.906 L1054.15 253.906 L1054.15 224.739 L1058.97 224.739 L1058.97 229.271 Q1060.48 226.614 1062.9 225.338 Q1065.33 224.036 1068.79 224.036 Q1069.28 224.036 1069.88 224.114 Q1070.48 224.166 1071.21 224.297 L1071.24 229.218 Z" fill="#000000" fill-rule="nonzero" fill-opacity="1" /><path clip-path="url(#clip060)" d="M1091.03 213.385 L1091.03 217.37 L1086.45 217.37 Q1083.87 217.37 1082.85 218.411 Q1081.86 219.453 1081.86 222.161 L1081.86 224.739 L1089.75 224.739 L1089.75 228.463 L1081.86 228.463 L1081.86 253.906 L1077.05 253.906 L1077.05 228.463 L1072.46 228.463 L1072.46 224.739 L1077.05 224.739 L1077.05 222.708 Q1077.05 217.838 1079.31 215.625 Q1081.58 213.385 1086.5 213.385 L1091.03 213.385 Z" fill="#000000" fill-rule="nonzero" fill-opacity="1" /><path clip-path="url(#clip060)" d="M1119.99 238.125 L1119.99 240.468 L1097.96 240.468 Q1098.27 245.416 1100.93 248.02 Q1103.61 250.599 1108.37 250.599 Q1111.13 250.599 1113.71 249.921 Q1116.32 249.244 1118.87 247.89 L1118.87 252.421 Q1116.29 253.515 1113.58 254.088 Q1110.87 254.661 1108.09 254.661 Q1101.11 254.661 1097.02 250.599 Q1092.96 246.536 1092.96 239.609 Q1092.96 232.448 1096.81 228.255 Q1100.69 224.036 1107.25 224.036 Q1113.14 224.036 1116.55 227.838 Q1119.99 231.614 1119.99 238.125 M1115.2 236.718 Q1115.14 232.786 1112.98 230.442 Q1110.85 228.099 1107.31 228.099 Q1103.3 228.099 1100.87 230.364 Q1098.48 232.63 1098.11 236.744 L1115.2 236.718 Z" fill="#000000" fill-rule="nonzero" fill-opacity="1" /><path clip-path="url(#clip060)" d="M1148.84 225.859 L1148.84 230.338 Q1146.81 229.218 1144.75 228.672 Q1142.72 228.099 1140.64 228.099 Q1135.98 228.099 1133.4 231.067 Q1130.82 234.01 1130.82 239.349 Q1130.82 244.687 1133.4 247.656 Q1135.98 250.599 1140.64 250.599 Q1142.72 250.599 1144.75 250.052 Q1146.81 249.479 1148.84 248.359 L1148.84 252.786 Q1146.84 253.724 1144.68 254.192 Q1142.54 254.661 1140.12 254.661 Q1133.53 254.661 1129.65 250.52 Q1125.77 246.38 1125.77 239.349 Q1125.77 232.213 1129.68 228.125 Q1133.61 224.036 1140.43 224.036 Q1142.64 224.036 1144.75 224.505 Q1146.86 224.948 1148.84 225.859 Z" fill="#000000" fill-rule="nonzero" fill-opacity="1" /><path clip-path="url(#clip060)" d="M1161.91 216.458 L1161.91 224.739 L1171.78 224.739 L1171.78 228.463 L1161.91 228.463 L1161.91 244.297 Q1161.91 247.864 1162.88 248.88 Q1163.87 249.895 1166.86 249.895 L1171.78 249.895 L1171.78 253.906 L1166.86 253.906 Q1161.32 253.906 1159.21 251.849 Q1157.1 249.765 1157.1 244.297 L1157.1 228.463 L1153.58 228.463 L1153.58 224.739 L1157.1 224.739 L1157.1 216.458 L1161.91 216.458 Z" fill="#000000" fill-rule="nonzero" fill-opacity="1" /><path clip-path="url(#clip060)" d="M1177.33 213.437 L1181.5 213.437 Q1185.4 219.583 1187.33 225.468 Q1189.28 231.354 1189.28 237.161 Q1189.28 242.994 1187.33 248.906 Q1185.4 254.817 1181.5 260.937 L1177.33 260.937 Q1180.79 254.974 1182.49 249.088 Q1184.21 243.177 1184.21 237.161 Q1184.21 231.146 1182.49 225.286 Q1180.79 219.427 1177.33 213.437 Z" fill="#000000" fill-rule="nonzero" fill-opacity="1" /><circle clip-path="url(#clip060)" cx="648.084" cy="292.786" r="22.2171" fill="#0071b1" fill-rule="evenodd" fill-opacity="0.7" stroke="#000000" stroke-opacity="0.7" stroke-width="8.22857"/>
<path clip-path="url(#clip060)" d="M777.073 276.341 L777.073 281.887 Q774.417 279.414 771.396 278.19 Q768.401 276.966 765.016 276.966 Q758.349 276.966 754.807 281.054 Q751.266 285.117 751.266 292.825 Q751.266 300.507 754.807 304.596 Q758.349 308.658 765.016 308.658 Q768.401 308.658 771.396 307.434 Q774.417 306.21 777.073 303.736 L777.073 309.231 Q774.313 311.106 771.214 312.044 Q768.141 312.981 764.703 312.981 Q755.875 312.981 750.797 307.59 Q745.719 302.174 745.719 292.825 Q745.719 283.45 750.797 278.059 Q755.875 272.643 764.703 272.643 Q768.193 272.643 771.266 273.58 Q774.365 274.492 777.073 276.341 Z" fill="#000000" fill-rule="nonzero" fill-opacity="1" /><path clip-path="url(#clip060)" d="M785.198 273.346 L790.458 273.346 L790.458 289.283 L809.573 289.283 L809.573 273.346 L814.833 273.346 L814.833 312.226 L809.573 312.226 L809.573 293.71 L790.458 293.71 L790.458 312.226 L785.198 312.226 L785.198 273.346 Z" fill="#000000" fill-rule="nonzero" fill-opacity="1" /><path clip-path="url(#clip060)" d="M825.302 273.346 L833.14 273.346 L843.062 299.804 L853.036 273.346 L860.875 273.346 L860.875 312.226 L855.744 312.226 L855.744 278.085 L845.718 304.752 L840.432 304.752 L830.406 278.085 L830.406 312.226 L825.302 312.226 L825.302 273.346 Z" fill="#000000" fill-rule="nonzero" fill-opacity="1" /><path clip-path="url(#clip060)" d="M871.317 273.346 L879.156 273.346 L889.078 299.804 L899.052 273.346 L906.89 273.346 L906.89 312.226 L901.76 312.226 L901.76 278.085 L891.734 304.752 L886.447 304.752 L876.421 278.085 L876.421 312.226 L871.317 312.226 L871.317 273.346 Z" fill="#000000" fill-rule="nonzero" fill-opacity="1" /><path clip-path="url(#clip060)" d="M914.702 295.481 L928.739 295.481 L928.739 299.752 L914.702 299.752 L914.702 295.481 Z" fill="#000000" fill-rule="nonzero" fill-opacity="1" /><path clip-path="url(#clip060)" d="M936.577 273.346 L943.661 273.346 L960.9 305.872 L960.9 273.346 L966.004 273.346 L966.004 312.226 L958.921 312.226 L941.681 279.7 L941.681 312.226 L936.577 312.226 L936.577 273.346 Z" fill="#000000" fill-rule="nonzero" fill-opacity="1" /></svg>
