<?xml version="1.0" encoding="utf-8"?>
<svg xmlns="http://www.w3.org/2000/svg" xmlns:xlink="http://www.w3.org/1999/xlink" width="700" height="500" viewBox="0 0 2800 2000">
<defs>
  <clipPath id="clip990">
    <rect x="0" y="0" width="2800" height="2000"/>
  </clipPath>
</defs>
<path clip-path="url(#clip990)" d="M0 2000 L2800 2000 L2800 -4.44089e-14 L0 -4.44089e-14  Z" fill="#ffffff" fill-rule="evenodd" fill-opacity="1"/>
<defs>
  <clipPath id="clip991">
    <rect x="477" y="125" width="2198" height="1506"/>
  </clipPath>
</defs>
<path clip-path="url(#clip990)" d="M532.517 1630.83 L2674.02 1630.83 L2674.02 125.984 L532.517 125.984  Z" fill="#ffffff" fill-rule="evenodd" fill-opacity="1"/>
<defs>
  <clipPath id="clip992">
    <rect x="532" y="125" width="2142" height="1506"/>
  </clipPath>
</defs>
<polyline clip-path="url(#clip992)" style="stroke:#000000; stroke-linecap:round; stroke-linejoin:round; stroke-width:2; stroke-opacity:0.1; fill:none" points="585.044,1630.83 585.044,125.984 "/>
<polyline clip-path="url(#clip992)" style="stroke:#000000; stroke-linecap:round; stroke-linejoin:round; stroke-width:2; stroke-opacity:0.1; fill:none" points="989.101,1630.83 989.101,125.984 "/>
<polyline clip-path="url(#clip992)" style="stroke:#000000; stroke-linecap:round; stroke-linejoin:round; stroke-width:2; stroke-opacity:0.1; fill:none" points="1393.16,1630.83 1393.16,125.984 "/>
<polyline clip-path="url(#clip992)" style="stroke:#000000; stroke-linecap:round; stroke-linejoin:round; stroke-width:2; stroke-opacity:0.1; fill:none" points="1797.21,1630.83 1797.21,125.984 "/>
<polyline clip-path="url(#clip992)" style="stroke:#000000; stroke-linecap:round; stroke-linejoin:round; stroke-width:2; stroke-opacity:0.1; fill:none" points="2201.27,1630.83 2201.27,125.984 "/>
<polyline clip-path="url(#clip992)" style="stroke:#000000; stroke-linecap:round; stroke-linejoin:round; stroke-width:2; stroke-opacity:0.1; fill:none" points="2605.33,1630.83 2605.33,125.984 "/>
<polyline clip-path="url(#clip992)" style="stroke:#000000; stroke-linecap:round; stroke-linejoin:round; stroke-width:2; stroke-opacity:0.1; fill:none" points="532.517,1515.27 2674.02,1515.27 "/>
<polyline clip-path="url(#clip992)" style="stroke:#000000; stroke-linecap:round; stroke-linejoin:round; stroke-width:2; stroke-opacity:0.1; fill:none" points="532.517,1232.62 2674.02,1232.62 "/>
<polyline clip-path="url(#clip992)" style="stroke:#000000; stroke-linecap:round; stroke-linejoin:round; stroke-width:2; stroke-opacity:0.1; fill:none" points="532.517,949.974 2674.02,949.974 "/>
<polyline clip-path="url(#clip992)" style="stroke:#000000; stroke-linecap:round; stroke-linejoin:round; stroke-width:2; stroke-opacity:0.1; fill:none" points="532.517,667.325 2674.02,667.325 "/>
<polyline clip-path="url(#clip992)" style="stroke:#000000; stroke-linecap:round; stroke-linejoin:round; stroke-width:2; stroke-opacity:0.1; fill:none" points="532.517,384.676 2674.02,384.676 "/>
<polyline clip-path="url(#clip990)" style="stroke:#000000; stroke-linecap:round; stroke-linejoin:round; stroke-width:4; stroke-opacity:1; fill:none" points="532.517,1630.83 2674.02,1630.83 "/>
<polyline clip-path="url(#clip990)" style="stroke:#000000; stroke-linecap:round; stroke-linejoin:round; stroke-width:4; stroke-opacity:1; fill:none" points="585.044,1630.83 585.044,1611.93 "/>
<polyline clip-path="url(#clip990)" style="stroke:#000000; stroke-linecap:round; stroke-linejoin:round; stroke-width:4; stroke-opacity:1; fill:none" points="989.101,1630.83 989.101,1611.93 "/>
<polyline clip-path="url(#clip990)" style="stroke:#000000; stroke-linecap:round; stroke-linejoin:round; stroke-width:4; stroke-opacity:1; fill:none" points="1393.16,1630.83 1393.16,1611.93 "/>
<polyline clip-path="url(#clip990)" style="stroke:#000000; stroke-linecap:round; stroke-linejoin:round; stroke-width:4; stroke-opacity:1; fill:none" points="1797.21,1630.83 1797.21,1611.93 "/>
<polyline clip-path="url(#clip990)" style="stroke:#000000; stroke-linecap:round; stroke-linejoin:round; stroke-width:4; stroke-opacity:1; fill:none" points="2201.27,1630.83 2201.27,1611.93 "/>
<polyline clip-path="url(#clip990)" style="stroke:#000000; stroke-linecap:round; stroke-linejoin:round; stroke-width:4; stroke-opacity:1; fill:none" points="2605.33,1630.83 2605.33,1611.93 "/>
<path clip-path="url(#clip990)" d="M585.044 1667.88 Q580.53 1667.88 578.244 1672.34 Q575.987 1676.76 575.987 1685.67 Q575.987 1694.56 578.244 1699.01 Q580.53 1703.44 585.044 1703.44 Q589.587 1703.44 591.844 1699.01 Q594.13 1694.56 594.13 1685.67 Q594.13 1676.76 591.844 1672.34 Q589.587 1667.88 585.044 1667.88 M585.044 1663.25 Q592.307 1663.25 596.126 1669.01 Q599.975 1674.74 599.975 1685.67 Q599.975 1696.58 596.126 1702.34 Q592.307 1708.07 585.044 1708.07 Q577.781 1708.07 573.933 1702.34 Q570.114 1696.58 570.114 1685.67 Q570.114 1674.74 573.933 1669.01 Q577.781 1663.25 585.044 1663.25 Z" fill="#000000" fill-rule="nonzero" fill-opacity="1" /><path clip-path="url(#clip990)" d="M957.475 1664.03 L980.42 1664.03 L980.42 1668.95 L962.828 1668.95 L962.828 1679.54 Q964.101 1679.11 965.374 1678.9 Q966.647 1678.67 967.92 1678.67 Q975.154 1678.67 979.378 1682.64 Q983.603 1686.6 983.603 1693.37 Q983.603 1700.34 979.263 1704.22 Q974.922 1708.07 967.023 1708.07 Q964.303 1708.07 961.468 1707.61 Q958.661 1707.14 955.652 1706.22 L955.652 1700.34 Q958.256 1701.76 961.034 1702.46 Q963.811 1703.15 966.907 1703.15 Q971.913 1703.15 974.836 1700.52 Q977.758 1697.89 977.758 1693.37 Q977.758 1688.86 974.836 1686.22 Q971.913 1683.59 966.907 1683.59 Q964.564 1683.59 962.22 1684.11 Q959.905 1684.63 957.475 1685.73 L957.475 1664.03 Z" fill="#000000" fill-rule="nonzero" fill-opacity="1" /><path clip-path="url(#clip990)" d="M1007.62 1667.88 Q1003.11 1667.88 1000.82 1672.34 Q998.562 1676.76 998.562 1685.67 Q998.562 1694.56 1000.82 1699.01 Q1003.11 1703.44 1007.62 1703.44 Q1012.16 1703.44 1014.42 1699.01 Q1016.7 1694.56 1016.7 1685.67 Q1016.7 1676.76 1014.42 1672.34 Q1012.16 1667.88 1007.62 1667.88 M1007.62 1663.25 Q1014.88 1663.25 1018.7 1669.01 Q1022.55 1674.74 1022.55 1685.67 Q1022.55 1696.58 1018.7 1702.34 Q1014.88 1708.07 1007.62 1708.07 Q1000.36 1708.07 996.508 1702.34 Q992.689 1696.58 992.689 1685.67 Q992.689 1674.74 996.508 1669.01 Q1000.36 1663.25 1007.62 1663.25 Z" fill="#000000" fill-rule="nonzero" fill-opacity="1" /><path clip-path="url(#clip990)" d="M1342.67 1702.31 L1352.21 1702.31 L1352.21 1669.36 L1341.83 1671.44 L1341.83 1666.11 L1352.16 1664.03 L1358 1664.03 L1358 1702.31 L1367.55 1702.31 L1367.55 1707.23 L1342.67 1707.23 L1342.67 1702.31 Z" fill="#000000" fill-rule="nonzero" fill-opacity="1" /><path clip-path="url(#clip990)" d="M1391.85 1667.88 Q1387.34 1667.88 1385.06 1672.34 Q1382.8 1676.76 1382.8 1685.67 Q1382.8 1694.56 1385.06 1699.01 Q1387.34 1703.44 1391.85 1703.44 Q1396.4 1703.44 1398.65 1699.01 Q1400.94 1694.56 1400.94 1685.67 Q1400.94 1676.76 1398.65 1672.34 Q1396.4 1667.88 1391.85 1667.88 M1391.85 1663.25 Q1399.12 1663.25 1402.94 1669.01 Q1406.79 1674.74 1406.79 1685.67 Q1406.79 1696.58 1402.94 1702.34 Q1399.12 1708.07 1391.85 1708.07 Q1384.59 1708.07 1380.74 1702.34 Q1376.92 1696.58 1376.92 1685.67 Q1376.92 1674.74 1380.74 1669.01 Q1384.59 1663.25 1391.85 1663.25 Z" fill="#000000" fill-rule="nonzero" fill-opacity="1" /><path clip-path="url(#clip990)" d="M1429.56 1667.88 Q1425.04 1667.88 1422.76 1672.34 Q1420.5 1676.76 1420.5 1685.67 Q1420.5 1694.56 1422.76 1699.01 Q1425.04 1703.44 1429.56 1703.44 Q1434.1 1703.44 1436.36 1699.01 Q1438.64 1694.56 1438.64 1685.67 Q1438.64 1676.76 1436.36 1672.34 Q1434.1 1667.88 1429.56 1667.88 M1429.56 1663.25 Q1436.82 1663.25 1440.64 1669.01 Q1444.49 1674.74 1444.49 1685.67 Q1444.49 1696.58 1440.64 1702.34 Q1436.82 1708.07 1429.56 1708.07 Q1422.29 1708.07 1418.45 1702.34 Q1414.63 1696.58 1414.63 1685.67 Q1414.63 1674.74 1418.45 1669.01 Q1422.29 1663.25 1429.56 1663.25 Z" fill="#000000" fill-rule="nonzero" fill-opacity="1" /><path clip-path="url(#clip990)" d="M1746.72 1702.31 L1756.27 1702.31 L1756.27 1669.36 L1745.88 1671.44 L1745.88 1666.11 L1756.21 1664.03 L1762.06 1664.03 L1762.06 1702.31 L1771.61 1702.31 L1771.61 1707.23 L1746.72 1707.23 L1746.72 1702.31 Z" fill="#000000" fill-rule="nonzero" fill-opacity="1" /><path clip-path="url(#clip990)" d="M1783.47 1664.03 L1806.41 1664.03 L1806.41 1668.95 L1788.82 1668.95 L1788.82 1679.54 Q1790.1 1679.11 1791.37 1678.9 Q1792.64 1678.67 1793.91 1678.67 Q1801.15 1678.67 1805.37 1682.64 Q1809.6 1686.6 1809.6 1693.37 Q1809.6 1700.34 1805.26 1704.22 Q1800.92 1708.07 1793.02 1708.07 Q1790.3 1708.07 1787.46 1707.61 Q1784.66 1707.14 1781.65 1706.22 L1781.65 1700.34 Q1784.25 1701.76 1787.03 1702.46 Q1789.81 1703.15 1792.9 1703.15 Q1797.91 1703.15 1800.83 1700.52 Q1803.75 1697.89 1803.75 1693.37 Q1803.75 1688.86 1800.83 1686.22 Q1797.91 1683.59 1792.9 1683.59 Q1790.56 1683.59 1788.21 1684.11 Q1785.9 1684.63 1783.47 1685.73 L1783.47 1664.03 Z" fill="#000000" fill-rule="nonzero" fill-opacity="1" /><path clip-path="url(#clip990)" d="M1833.61 1667.88 Q1829.1 1667.88 1826.81 1672.34 Q1824.56 1676.76 1824.56 1685.67 Q1824.56 1694.56 1826.81 1699.01 Q1829.1 1703.44 1833.61 1703.44 Q1838.16 1703.44 1840.41 1699.01 Q1842.7 1694.56 1842.7 1685.67 Q1842.7 1676.76 1840.41 1672.34 Q1838.16 1667.88 1833.61 1667.88 M1833.61 1663.25 Q1840.88 1663.25 1844.7 1669.01 Q1848.54 1674.74 1848.54 1685.67 Q1848.54 1696.58 1844.7 1702.34 Q1840.88 1708.07 1833.61 1708.07 Q1826.35 1708.07 1822.5 1702.34 Q1818.68 1696.58 1818.68 1685.67 Q1818.68 1674.74 1822.5 1669.01 Q1826.35 1663.25 1833.61 1663.25 Z" fill="#000000" fill-rule="nonzero" fill-opacity="1" /><path clip-path="url(#clip990)" d="M2155.89 1702.31 L2176.28 1702.31 L2176.28 1707.23 L2148.85 1707.23 L2148.85 1702.31 Q2152.18 1698.87 2157.91 1693.08 Q2163.67 1687.27 2165.14 1685.59 Q2167.95 1682.43 2169.05 1680.26 Q2170.18 1678.06 2170.18 1675.95 Q2170.18 1672.51 2167.75 1670.34 Q2165.35 1668.17 2161.47 1668.17 Q2158.72 1668.17 2155.65 1669.12 Q2152.62 1670.08 2149.14 1672.02 L2149.14 1666.11 Q2152.67 1664.7 2155.74 1663.97 Q2158.81 1663.25 2161.35 1663.25 Q2168.07 1663.25 2172.06 1666.61 Q2176.05 1669.96 2176.05 1675.58 Q2176.05 1678.24 2175.04 1680.64 Q2174.06 1683.01 2171.42 1686.25 Q2170.7 1687.09 2166.82 1691.11 Q2162.95 1695.11 2155.89 1702.31 Z" fill="#000000" fill-rule="nonzero" fill-opacity="1" /><path clip-path="url(#clip990)" d="M2201.05 1667.88 Q2196.54 1667.88 2194.25 1672.34 Q2192 1676.76 2192 1685.67 Q2192 1694.56 2194.25 1699.01 Q2196.54 1703.44 2201.05 1703.44 Q2205.6 1703.44 2207.85 1699.01 Q2210.14 1694.56 2210.14 1685.67 Q2210.14 1676.76 2207.85 1672.34 Q2205.6 1667.88 2201.05 1667.88 M2201.05 1663.25 Q2208.32 1663.25 2212.13 1669.01 Q2215.98 1674.74 2215.98 1685.67 Q2215.98 1696.58 2212.13 1702.34 Q2208.32 1708.07 2201.05 1708.07 Q2193.79 1708.07 2189.94 1702.34 Q2186.12 1696.58 2186.12 1685.67 Q2186.12 1674.74 2189.94 1669.01 Q2193.79 1663.25 2201.05 1663.25 Z" fill="#000000" fill-rule="nonzero" fill-opacity="1" /><path clip-path="url(#clip990)" d="M2238.76 1667.88 Q2234.24 1667.88 2231.96 1672.34 Q2229.7 1676.76 2229.7 1685.67 Q2229.7 1694.56 2231.96 1699.01 Q2234.24 1703.44 2238.76 1703.44 Q2243.3 1703.44 2245.55 1699.01 Q2247.84 1694.56 2247.84 1685.67 Q2247.84 1676.76 2245.55 1672.34 Q2243.3 1667.88 2238.76 1667.88 M2238.76 1663.25 Q2246.02 1663.25 2249.84 1669.01 Q2253.69 1674.74 2253.69 1685.67 Q2253.69 1696.58 2249.84 1702.34 Q2246.02 1708.07 2238.76 1708.07 Q2231.49 1708.07 2227.64 1702.34 Q2223.82 1696.58 2223.82 1685.67 Q2223.82 1674.74 2227.64 1669.01 Q2231.49 1663.25 2238.76 1663.25 Z" fill="#000000" fill-rule="nonzero" fill-opacity="1" /><path clip-path="url(#clip990)" d="M2559.94 1702.31 L2580.34 1702.31 L2580.34 1707.23 L2552.91 1707.23 L2552.91 1702.31 Q2556.24 1698.87 2561.97 1693.08 Q2567.73 1687.27 2569.2 1685.59 Q2572.01 1682.43 2573.11 1680.26 Q2574.24 1678.06 2574.24 1675.95 Q2574.24 1672.51 2571.8 1670.34 Q2569.4 1668.17 2565.53 1668.17 Q2562.78 1668.17 2559.71 1669.12 Q2556.67 1670.08 2553.2 1672.02 L2553.2 1666.11 Q2556.73 1664.7 2559.8 1663.97 Q2562.86 1663.25 2565.41 1663.25 Q2572.12 1663.25 2576.12 1666.61 Q2580.11 1669.96 2580.11 1675.58 Q2580.11 1678.24 2579.1 1680.64 Q2578.11 1683.01 2575.48 1686.25 Q2574.76 1687.09 2570.88 1691.11 Q2567 1695.11 2559.94 1702.31 Z" fill="#000000" fill-rule="nonzero" fill-opacity="1" /><path clip-path="url(#clip990)" d="M2592.67 1664.03 L2615.61 1664.03 L2615.61 1668.95 L2598.02 1668.95 L2598.02 1679.54 Q2599.29 1679.11 2600.57 1678.9 Q2601.84 1678.67 2603.11 1678.67 Q2610.35 1678.67 2614.57 1682.64 Q2618.8 1686.6 2618.8 1693.37 Q2618.8 1700.34 2614.46 1704.22 Q2610.11 1708.07 2602.22 1708.07 Q2599.5 1708.07 2596.66 1707.61 Q2593.85 1707.14 2590.84 1706.22 L2590.84 1700.34 Q2593.45 1701.76 2596.23 1702.46 Q2599 1703.15 2602.1 1703.15 Q2607.11 1703.15 2610.03 1700.52 Q2612.95 1697.89 2612.95 1693.37 Q2612.95 1688.86 2610.03 1686.22 Q2607.11 1683.59 2602.1 1683.59 Q2599.76 1683.59 2597.41 1684.11 Q2595.1 1684.63 2592.67 1685.73 L2592.67 1664.03 Z" fill="#000000" fill-rule="nonzero" fill-opacity="1" /><path clip-path="url(#clip990)" d="M2642.81 1667.88 Q2638.3 1667.88 2636.01 1672.34 Q2633.75 1676.76 2633.75 1685.67 Q2633.75 1694.56 2636.01 1699.01 Q2638.3 1703.44 2642.81 1703.44 Q2647.35 1703.44 2649.61 1699.01 Q2651.9 1694.56 2651.9 1685.67 Q2651.9 1676.76 2649.61 1672.34 Q2647.35 1667.88 2642.81 1667.88 M2642.81 1663.25 Q2650.07 1663.25 2653.89 1669.01 Q2657.74 1674.74 2657.74 1685.67 Q2657.74 1696.58 2653.89 1702.34 Q2650.07 1708.07 2642.81 1708.07 Q2635.55 1708.07 2631.7 1702.34 Q2627.88 1696.58 2627.88 1685.67 Q2627.88 1674.74 2631.7 1669.01 Q2635.55 1663.25 2642.81 1663.25 Z" fill="#000000" fill-rule="nonzero" fill-opacity="1" /><path clip-path="url(#clip990)" d="M1550.61 1747.14 L1557.04 1747.14 L1557.04 1789.24 L1580.17 1789.24 L1580.17 1794.66 L1550.61 1794.66 L1550.61 1747.14 Z" fill="#000000" fill-rule="nonzero" fill-opacity="1" /><path clip-path="url(#clip990)" d="M1602.87 1776.74 Q1595.77 1776.74 1593.03 1778.36 Q1590.3 1779.98 1590.3 1783.9 Q1590.3 1787.02 1592.33 1788.86 Q1594.4 1790.68 1597.94 1790.68 Q1602.8 1790.68 1605.73 1787.24 Q1608.69 1783.77 1608.69 1778.04 L1608.69 1776.74 L1602.87 1776.74 M1614.55 1774.32 L1614.55 1794.66 L1608.69 1794.66 L1608.69 1789.24 Q1606.69 1792.49 1603.7 1794.05 Q1600.7 1795.58 1596.38 1795.58 Q1590.9 1795.58 1587.65 1792.52 Q1584.44 1789.44 1584.44 1784.28 Q1584.44 1778.26 1588.45 1775.21 Q1592.49 1772.15 1600.48 1772.15 L1608.69 1772.15 L1608.69 1771.58 Q1608.69 1767.54 1606.02 1765.34 Q1603.38 1763.11 1598.57 1763.11 Q1595.52 1763.11 1592.62 1763.85 Q1589.72 1764.58 1587.05 1766.04 L1587.05 1760.63 Q1590.26 1759.39 1593.29 1758.78 Q1596.31 1758.15 1599.18 1758.15 Q1606.91 1758.15 1610.73 1762.16 Q1614.55 1766.17 1614.55 1774.32 Z" fill="#000000" fill-rule="nonzero" fill-opacity="1" /><path clip-path="url(#clip990)" d="M1650.07 1776.42 Q1650.07 1770.05 1647.43 1766.55 Q1644.82 1763.05 1640.08 1763.05 Q1635.37 1763.05 1632.72 1766.55 Q1630.11 1770.05 1630.11 1776.42 Q1630.11 1782.75 1632.72 1786.25 Q1635.37 1789.75 1640.08 1789.75 Q1644.82 1789.75 1647.43 1786.25 Q1650.07 1782.75 1650.07 1776.42 M1655.93 1790.23 Q1655.93 1799.33 1651.88 1803.76 Q1647.84 1808.21 1639.5 1808.21 Q1636.42 1808.21 1633.68 1807.74 Q1630.94 1807.29 1628.36 1806.34 L1628.36 1800.64 Q1630.94 1802.04 1633.46 1802.71 Q1635.97 1803.38 1638.58 1803.38 Q1644.34 1803.38 1647.21 1800.35 Q1650.07 1797.36 1650.07 1791.28 L1650.07 1788.39 Q1648.26 1791.54 1645.42 1793.1 Q1642.59 1794.66 1638.64 1794.66 Q1632.09 1794.66 1628.08 1789.66 Q1624.07 1784.66 1624.07 1776.42 Q1624.07 1768.14 1628.08 1763.15 Q1632.09 1758.15 1638.64 1758.15 Q1642.59 1758.15 1645.42 1759.71 Q1648.26 1761.27 1650.07 1764.42 L1650.07 1759.01 L1655.93 1759.01 L1655.93 1790.23 Z" fill="#000000" fill-rule="nonzero" fill-opacity="1" /><polyline clip-path="url(#clip990)" style="stroke:#000000; stroke-linecap:round; stroke-linejoin:round; stroke-width:4; stroke-opacity:1; fill:none" points="532.517,1630.83 532.517,125.984 "/>
<polyline clip-path="url(#clip990)" style="stroke:#000000; stroke-linecap:round; stroke-linejoin:round; stroke-width:4; stroke-opacity:1; fill:none" points="532.517,1515.27 551.414,1515.27 "/>
<polyline clip-path="url(#clip990)" style="stroke:#000000; stroke-linecap:round; stroke-linejoin:round; stroke-width:4; stroke-opacity:1; fill:none" points="532.517,1232.62 551.414,1232.62 "/>
<polyline clip-path="url(#clip990)" style="stroke:#000000; stroke-linecap:round; stroke-linejoin:round; stroke-width:4; stroke-opacity:1; fill:none" points="532.517,949.974 551.414,949.974 "/>
<polyline clip-path="url(#clip990)" style="stroke:#000000; stroke-linecap:round; stroke-linejoin:round; stroke-width:4; stroke-opacity:1; fill:none" points="532.517,667.325 551.414,667.325 "/>
<polyline clip-path="url(#clip990)" style="stroke:#000000; stroke-linecap:round; stroke-linejoin:round; stroke-width:4; stroke-opacity:1; fill:none" points="532.517,384.676 551.414,384.676 "/>
<path clip-path="url(#clip990)" d="M320.379 1515.84 L357.474 1515.84 L357.474 1520.76 L320.379 1520.76 L320.379 1515.84 Z" fill="#000000" fill-rule="nonzero" fill-opacity="1" /><path clip-path="url(#clip990)" d="M382.589 1497.52 Q378.075 1497.52 375.789 1501.98 Q373.533 1506.4 373.533 1515.32 Q373.533 1524.2 375.789 1528.65 Q378.075 1533.08 382.589 1533.08 Q387.132 1533.08 389.389 1528.65 Q391.675 1524.2 391.675 1515.32 Q391.675 1506.4 389.389 1501.98 Q387.132 1497.52 382.589 1497.52 M382.589 1492.89 Q389.852 1492.89 393.671 1498.65 Q397.52 1504.38 397.52 1515.32 Q397.52 1526.22 393.671 1531.98 Q389.852 1537.71 382.589 1537.71 Q375.326 1537.71 371.478 1531.98 Q367.659 1526.22 367.659 1515.32 Q367.659 1504.38 371.478 1498.65 Q375.326 1492.89 382.589 1492.89 Z" fill="#000000" fill-rule="nonzero" fill-opacity="1" /><path clip-path="url(#clip990)" d="M407.792 1529.52 L413.897 1529.52 L413.897 1536.87 L407.792 1536.87 L407.792 1529.52 Z" fill="#000000" fill-rule="nonzero" fill-opacity="1" /><path clip-path="url(#clip990)" d="M439.128 1497.52 Q434.614 1497.52 432.328 1501.98 Q430.072 1506.4 430.072 1515.32 Q430.072 1524.2 432.328 1528.65 Q434.614 1533.08 439.128 1533.08 Q443.671 1533.08 445.928 1528.65 Q448.214 1524.2 448.214 1515.32 Q448.214 1506.4 445.928 1501.98 Q443.671 1497.52 439.128 1497.52 M439.128 1492.89 Q446.391 1492.89 450.21 1498.65 Q454.059 1504.38 454.059 1515.32 Q454.059 1526.22 450.21 1531.98 Q446.391 1537.71 439.128 1537.71 Q431.866 1537.71 428.017 1531.98 Q424.198 1526.22 424.198 1515.32 Q424.198 1504.38 428.017 1498.65 Q431.866 1492.89 439.128 1492.89 Z" fill="#000000" fill-rule="nonzero" fill-opacity="1" /><path clip-path="url(#clip990)" d="M464.388 1493.67 L487.334 1493.67 L487.334 1498.59 L469.741 1498.59 L469.741 1509.18 Q471.015 1508.75 472.288 1508.54 Q473.561 1508.31 474.834 1508.31 Q482.068 1508.31 486.292 1512.28 Q490.517 1516.24 490.517 1523.01 Q490.517 1529.99 486.177 1533.86 Q481.836 1537.71 473.937 1537.71 Q471.217 1537.71 468.382 1537.25 Q465.575 1536.79 462.566 1535.86 L462.566 1529.99 Q465.17 1531.4 467.948 1532.1 Q470.725 1532.79 473.821 1532.79 Q478.827 1532.79 481.75 1530.16 Q484.672 1527.53 484.672 1523.01 Q484.672 1518.5 481.75 1515.87 Q478.827 1513.23 473.821 1513.23 Q471.478 1513.23 469.134 1513.75 Q466.819 1514.27 464.388 1515.37 L464.388 1493.67 Z" fill="#000000" fill-rule="nonzero" fill-opacity="1" /><path clip-path="url(#clip990)" d="M381.345 1214.87 Q376.831 1214.87 374.545 1219.33 Q372.288 1223.75 372.288 1232.67 Q372.288 1241.55 374.545 1246.01 Q376.831 1250.43 381.345 1250.43 Q385.888 1250.43 388.145 1246.01 Q390.431 1241.55 390.431 1232.67 Q390.431 1223.75 388.145 1219.33 Q385.888 1214.87 381.345 1214.87 M381.345 1210.24 Q388.608 1210.24 392.427 1216 Q396.275 1221.73 396.275 1232.67 Q396.275 1243.57 392.427 1249.33 Q388.608 1255.06 381.345 1255.06 Q374.082 1255.06 370.234 1249.33 Q366.414 1243.57 366.414 1232.67 Q366.414 1221.73 370.234 1216 Q374.082 1210.24 381.345 1210.24 Z" fill="#000000" fill-rule="nonzero" fill-opacity="1" /><path clip-path="url(#clip990)" d="M406.547 1246.87 L412.653 1246.87 L412.653 1254.22 L406.547 1254.22 L406.547 1246.87 Z" fill="#000000" fill-rule="nonzero" fill-opacity="1" /><path clip-path="url(#clip990)" d="M437.884 1214.87 Q433.37 1214.87 431.084 1219.33 Q428.827 1223.75 428.827 1232.67 Q428.827 1241.55 431.084 1246.01 Q433.37 1250.43 437.884 1250.43 Q442.427 1250.43 444.684 1246.01 Q446.97 1241.55 446.97 1232.67 Q446.97 1223.75 444.684 1219.33 Q442.427 1214.87 437.884 1214.87 M437.884 1210.24 Q445.147 1210.24 448.966 1216 Q452.814 1221.73 452.814 1232.67 Q452.814 1243.57 448.966 1249.33 Q445.147 1255.06 437.884 1255.06 Q430.621 1255.06 426.773 1249.33 Q422.954 1243.57 422.954 1232.67 Q422.954 1221.73 426.773 1216 Q430.621 1210.24 437.884 1210.24 Z" fill="#000000" fill-rule="nonzero" fill-opacity="1" /><path clip-path="url(#clip990)" d="M475.586 1214.87 Q471.072 1214.87 468.787 1219.33 Q466.53 1223.75 466.53 1232.67 Q466.53 1241.55 468.787 1246.01 Q471.072 1250.43 475.586 1250.43 Q480.129 1250.43 482.386 1246.01 Q484.672 1241.55 484.672 1232.67 Q484.672 1223.75 482.386 1219.33 Q480.129 1214.87 475.586 1214.87 M475.586 1210.24 Q482.849 1210.24 486.668 1216 Q490.517 1221.73 490.517 1232.67 Q490.517 1243.57 486.668 1249.33 Q482.849 1255.06 475.586 1255.06 Q468.324 1255.06 464.475 1249.33 Q460.656 1243.57 460.656 1232.67 Q460.656 1221.73 464.475 1216 Q468.324 1210.24 475.586 1210.24 Z" fill="#000000" fill-rule="nonzero" fill-opacity="1" /><path clip-path="url(#clip990)" d="M382.589 932.222 Q378.075 932.222 375.789 936.678 Q373.533 941.105 373.533 950.017 Q373.533 958.9 375.789 963.356 Q378.075 967.783 382.589 967.783 Q387.132 967.783 389.389 963.356 Q391.675 958.9 391.675 950.017 Q391.675 941.105 389.389 936.678 Q387.132 932.222 382.589 932.222 M382.589 927.593 Q389.852 927.593 393.671 933.351 Q397.52 939.08 397.52 950.017 Q397.52 960.926 393.671 966.684 Q389.852 972.413 382.589 972.413 Q375.326 972.413 371.478 966.684 Q367.659 960.926 367.659 950.017 Q367.659 939.08 371.478 933.351 Q375.326 927.593 382.589 927.593 Z" fill="#000000" fill-rule="nonzero" fill-opacity="1" /><path clip-path="url(#clip990)" d="M407.792 964.224 L413.897 964.224 L413.897 971.574 L407.792 971.574 L407.792 964.224 Z" fill="#000000" fill-rule="nonzero" fill-opacity="1" /><path clip-path="url(#clip990)" d="M439.128 932.222 Q434.614 932.222 432.328 936.678 Q430.072 941.105 430.072 950.017 Q430.072 958.9 432.328 963.356 Q434.614 967.783 439.128 967.783 Q443.671 967.783 445.928 963.356 Q448.214 958.9 448.214 950.017 Q448.214 941.105 445.928 936.678 Q443.671 932.222 439.128 932.222 M439.128 927.593 Q446.391 927.593 450.21 933.351 Q454.059 939.08 454.059 950.017 Q454.059 960.926 450.21 966.684 Q446.391 972.413 439.128 972.413 Q431.866 972.413 428.017 966.684 Q424.198 960.926 424.198 950.017 Q424.198 939.08 428.017 933.351 Q431.866 927.593 439.128 927.593 Z" fill="#000000" fill-rule="nonzero" fill-opacity="1" /><path clip-path="url(#clip990)" d="M464.388 928.374 L487.334 928.374 L487.334 933.293 L469.741 933.293 L469.741 943.883 Q471.015 943.449 472.288 943.246 Q473.561 943.015 474.834 943.015 Q482.068 943.015 486.292 946.979 Q490.517 950.943 490.517 957.714 Q490.517 964.687 486.177 968.565 Q481.836 972.413 473.937 972.413 Q471.217 972.413 468.382 971.95 Q465.575 971.487 462.566 970.561 L462.566 964.687 Q465.17 966.105 467.948 966.8 Q470.725 967.494 473.821 967.494 Q478.827 967.494 481.75 964.861 Q484.672 962.228 484.672 957.714 Q484.672 953.2 481.75 950.567 Q478.827 947.934 473.821 947.934 Q471.478 947.934 469.134 948.455 Q466.819 948.976 464.388 950.075 L464.388 928.374 Z" fill="#000000" fill-rule="nonzero" fill-opacity="1" /><path clip-path="url(#clip990)" d="M381.345 649.573 Q376.831 649.573 374.545 654.029 Q372.288 658.456 372.288 667.368 Q372.288 676.251 374.545 680.707 Q376.831 685.134 381.345 685.134 Q385.888 685.134 388.145 680.707 Q390.431 676.251 390.431 667.368 Q390.431 658.456 388.145 654.029 Q385.888 649.573 381.345 649.573 M381.345 644.944 Q388.608 644.944 392.427 650.702 Q396.275 656.431 396.275 667.368 Q396.275 678.277 392.427 684.035 Q388.608 689.764 381.345 689.764 Q374.082 689.764 370.234 684.035 Q366.414 678.277 366.414 667.368 Q366.414 656.431 370.234 650.702 Q374.082 644.944 381.345 644.944 Z" fill="#000000" fill-rule="nonzero" fill-opacity="1" /><path clip-path="url(#clip990)" d="M406.547 681.575 L412.653 681.575 L412.653 688.925 L406.547 688.925 L406.547 681.575 Z" fill="#000000" fill-rule="nonzero" fill-opacity="1" /><path clip-path="url(#clip990)" d="M426.397 684.006 L435.945 684.006 L435.945 651.049 L425.558 653.132 L425.558 647.808 L435.887 645.725 L441.732 645.725 L441.732 684.006 L451.281 684.006 L451.281 688.925 L426.397 688.925 L426.397 684.006 Z" fill="#000000" fill-rule="nonzero" fill-opacity="1" /><path clip-path="url(#clip990)" d="M475.586 649.573 Q471.072 649.573 468.787 654.029 Q466.53 658.456 466.53 667.368 Q466.53 676.251 468.787 680.707 Q471.072 685.134 475.586 685.134 Q480.129 685.134 482.386 680.707 Q484.672 676.251 484.672 667.368 Q484.672 658.456 482.386 654.029 Q480.129 649.573 475.586 649.573 M475.586 644.944 Q482.849 644.944 486.668 650.702 Q490.517 656.431 490.517 667.368 Q490.517 678.277 486.668 684.035 Q482.849 689.764 475.586 689.764 Q468.324 689.764 464.475 684.035 Q460.656 678.277 460.656 667.368 Q460.656 656.431 464.475 650.702 Q468.324 644.944 475.586 644.944 Z" fill="#000000" fill-rule="nonzero" fill-opacity="1" /><path clip-path="url(#clip990)" d="M382.589 366.924 Q378.075 366.924 375.789 371.38 Q373.533 375.807 373.533 384.719 Q373.533 393.602 375.789 398.058 Q378.075 402.485 382.589 402.485 Q387.132 402.485 389.389 398.058 Q391.675 393.602 391.675 384.719 Q391.675 375.807 389.389 371.38 Q387.132 366.924 382.589 366.924 M382.589 362.295 Q389.852 362.295 393.671 368.053 Q397.52 373.782 397.52 384.719 Q397.52 395.628 393.671 401.386 Q389.852 407.115 382.589 407.115 Q375.326 407.115 371.478 401.386 Q367.659 395.628 367.659 384.719 Q367.659 373.782 371.478 368.053 Q375.326 362.295 382.589 362.295 Z" fill="#000000" fill-rule="nonzero" fill-opacity="1" /><path clip-path="url(#clip990)" d="M407.792 398.926 L413.897 398.926 L413.897 406.276 L407.792 406.276 L407.792 398.926 Z" fill="#000000" fill-rule="nonzero" fill-opacity="1" /><path clip-path="url(#clip990)" d="M427.641 401.357 L437.19 401.357 L437.19 368.4 L426.802 370.483 L426.802 365.159 L437.132 363.076 L442.977 363.076 L442.977 401.357 L452.525 401.357 L452.525 406.276 L427.641 406.276 L427.641 401.357 Z" fill="#000000" fill-rule="nonzero" fill-opacity="1" /><path clip-path="url(#clip990)" d="M464.388 363.076 L487.334 363.076 L487.334 367.995 L469.741 367.995 L469.741 378.585 Q471.015 378.151 472.288 377.948 Q473.561 377.717 474.834 377.717 Q482.068 377.717 486.292 381.681 Q490.517 385.645 490.517 392.416 Q490.517 399.389 486.177 403.267 Q481.836 407.115 473.937 407.115 Q471.217 407.115 468.382 406.652 Q465.575 406.189 462.566 405.263 L462.566 399.389 Q465.17 400.807 467.948 401.501 Q470.725 402.196 473.821 402.196 Q478.827 402.196 481.75 399.563 Q484.672 396.93 484.672 392.416 Q484.672 387.902 481.75 385.269 Q478.827 382.636 473.821 382.636 Q471.478 382.636 469.134 383.157 Q466.819 383.678 464.388 384.777 L464.388 363.076 Z" fill="#000000" fill-rule="nonzero" fill-opacity="1" /><path clip-path="url(#clip990)" d="M222.937 917.716 L246.585 926.437 L246.585 908.963 L222.937 917.716 M216.603 921.345 L216.603 914.056 L264.123 895.945 L264.123 902.629 L251.933 906.958 L251.933 928.379 L264.123 932.707 L264.123 939.487 L216.603 921.345 Z" fill="#000000" fill-rule="nonzero" fill-opacity="1" /><path clip-path="url(#clip990)" d="M220.263 854.568 L227.043 854.568 Q224.019 857.815 222.523 861.507 Q221.027 865.167 221.027 869.305 Q221.027 877.453 226.024 881.782 Q230.989 886.11 240.411 886.11 Q249.8 886.11 254.797 881.782 Q259.762 877.453 259.762 869.305 Q259.762 865.167 258.266 861.507 Q256.77 857.815 253.747 854.568 L260.463 854.568 Q262.754 857.942 263.9 861.73 Q265.046 865.485 265.046 869.687 Q265.046 880.477 258.457 886.683 Q251.837 892.89 240.411 892.89 Q228.952 892.89 222.364 886.683 Q215.743 880.477 215.743 869.687 Q215.743 865.422 216.889 861.666 Q218.003 857.878 220.263 854.568 Z" fill="#000000" fill-rule="nonzero" fill-opacity="1" /><path clip-path="url(#clip990)" d="M216.603 844.638 L216.603 817.329 L222.014 817.329 L222.014 838.208 L236.018 838.208 L236.018 819.366 L241.429 819.366 L241.429 838.208 L264.123 838.208 L264.123 844.638 L216.603 844.638 Z" fill="#000000" fill-rule="nonzero" fill-opacity="1" /><polyline clip-path="url(#clip992)" style="stroke:#4682b4; stroke-linecap:round; stroke-linejoin:round; stroke-width:8; stroke-opacity:1; fill:none" points="593.125,168.574 601.206,168.574 601.206,1163.28 609.288,1163.28 609.288,1332.18 617.369,1332.18 617.369,1287.47 625.45,1287.47 625.45,1369.98 633.531,1369.98 633.531,1443.43 641.612,1443.43 641.612,881.318 649.693,881.318 649.693,1313.68 657.774,1313.68 657.774,878.044 665.855,878.044 665.855,1336.41 673.937,1336.41 673.937,1216.55 682.018,1216.55 682.018,1322.18 690.099,1322.18 690.099,1328.84 698.18,1328.84 698.18,1313.79 706.261,1313.79 706.261,1527.34 714.342,1527.34 714.342,1081.02 722.423,1081.02 722.423,1211.36 730.504,1211.36 730.504,1274.96 738.586,1274.96 738.586,1189.82 746.667,1189.82 746.667,1055.04 754.748,1055.04 754.748,1334.63 762.829,1334.63 762.829,1558.18 770.91,1558.18 770.91,1499.08 778.991,1499.08 778.991,1358.35 787.072,1358.35 787.072,1353.36 795.153,1353.36 795.153,1450.33 803.235,1450.33 803.235,1244.38 811.316,1244.38 811.316,1130.6 819.397,1130.6 819.397,1189.47 827.478,1189.47 827.478,1398.51 835.559,1398.51 835.559,1588.24 843.64,1588.24 843.64,1522.57 851.721,1522.57 851.721,1169.97 859.803,1169.97 859.803,1159.67 867.884,1159.67 867.884,1212.53 875.965,1212.53 875.965,1003.17 884.046,1003.17 884.046,1271.28 892.127,1271.28 892.127,1197.67 900.208,1197.67 900.208,1325.99 908.289,1325.99 908.289,1404.91 916.37,1404.91 916.37,1411.56 924.452,1411.56 924.452,1217.77 932.533,1217.77 932.533,1214.67 940.614,1214.67 940.614,1262.35 948.695,1262.35 948.695,1256.04 956.776,1256.04 956.776,1418.11 964.857,1418.11 964.857,1122.55 972.938,1122.55 972.938,1267.2 981.019,1267.2 981.019,1334.13 989.101,1334.13 989.101,1314.54 997.182,1314.54 997.182,1313.87 1005.26,1313.87 1005.26,1172.96 1013.34,1172.96 1013.34,1258.8 1021.43,1258.8 1021.43,1108.69 1029.51,1108.69 1029.51,1346.84 1037.59,1346.84 1037.59,1264.92 1045.67,1264.92 1045.67,1396.12 1053.75,1396.12 1053.75,1250.13 1061.83,1250.13 1061.83,1205.77 1069.91,1205.77 1069.91,1277.4 1077.99,1277.4 1077.99,1201.42 1086.07,1201.42 1086.07,1431.59 1094.16,1431.59 1094.16,1001.59 1102.24,1001.59 1102.24,1223.25 1110.32,1223.25 1110.32,1321.69 1118.4,1321.69 1118.4,1278.37 1126.48,1278.37 1126.48,1338.57 1134.56,1338.57 1134.56,1187.95 1142.64,1187.95 1142.64,1178.16 1150.72,1178.16 1150.72,1130.51 1158.8,1130.51 1158.8,1293.85 1166.89,1293.85 1166.89,1047.54 1174.97,1047.54 1174.97,1205.88 1183.05,1205.88 1183.05,1361.79 1191.13,1361.79 1191.13,1276.82 1199.21,1276.82 1199.21,1186.45 1207.29,1186.45 1207.29,1274.36 1215.37,1274.36 1215.37,1243.84 1223.45,1243.84 1223.45,1295.75 1231.53,1295.75 1231.53,1378.19 1239.62,1378.19 1239.62,1016.88 1247.7,1016.88 1247.7,983.491 1255.78,983.491 1255.78,1221.62 1263.86,1221.62 1263.86,1388.78 1271.94,1388.78 1271.94,1361.06 1280.02,1361.06 1280.02,1355.97 1288.1,1355.97 1288.1,1158.63 1296.18,1158.63 1296.18,1138.4 1304.26,1138.4 1304.26,1286.32 1312.35,1286.32 1312.35,1181.84 1320.43,1181.84 1320.43,1278.47 1328.51,1278.47 1328.51,1315.18 1336.59,1315.18 1336.59,1451.91 1344.67,1451.91 1344.67,1350.94 1352.75,1350.94 1352.75,1242.06 1360.83,1242.06 1360.83,1036.66 1368.91,1036.66 1368.91,773.894 1376.99,773.894 1376.99,1120.67 1385.08,1120.67 1385.08,1252.94 1393.16,1252.94 1393.16,1175.62 1401.24,1175.62 1401.24,1135.13 1409.32,1135.13 1409.32,1301.67 1417.4,1301.67 1417.4,1156.58 1425.48,1156.58 1425.48,1218.66 1433.56,1218.66 1433.56,1289.49 1441.64,1289.49 1441.64,1051.02 1449.72,1051.02 1449.72,1308.64 1457.81,1308.64 1457.81,1257.8 1465.89,1257.8 1465.89,1354.28 1473.97,1354.28 1473.97,1145.58 1482.05,1145.58 1482.05,1198.17 1490.13,1198.17 1490.13,1172.55 1498.21,1172.55 1498.21,1243.64 1506.29,1243.64 1506.29,1452.72 1514.37,1452.72 1514.37,1277.94 1522.46,1277.94 1522.46,1246.01 1530.54,1246.01 1530.54,1011.65 1538.62,1011.65 1538.62,1182.84 1546.7,1182.84 1546.7,1193.95 1554.78,1193.95 1554.78,1264.95 1562.86,1264.95 1562.86,1233.35 1570.94,1233.35 1570.94,1214.75 1579.02,1214.75 1579.02,1226.62 1587.1,1226.62 1587.1,1316.55 1595.19,1316.55 1595.19,1279.66 1603.27,1279.66 1603.27,1187.02 1611.35,1187.02 1611.35,1291.29 1619.43,1291.29 1619.43,1273.22 1627.51,1273.22 1627.51,1329.61 1635.59,1329.61 1635.59,1217.6 1643.67,1217.6 1643.67,1282.2 1651.75,1282.2 1651.75,1383.87 1659.83,1383.87 1659.83,1133.32 1667.92,1133.32 1667.92,1157.07 1676,1157.07 1676,923.925 1684.08,923.925 1684.08,1395.02 1692.16,1395.02 1692.16,1277.36 1700.24,1277.36 1700.24,1213.05 1708.32,1213.05 1708.32,1251.36 1716.4,1251.36 1716.4,1463.66 1724.48,1463.66 1724.48,1425.37 1732.56,1425.37 1732.56,1153.68 1740.65,1153.68 1740.65,1345.43 1748.73,1345.43 1748.73,1275.62 1756.81,1275.62 1756.81,1277.79 1764.89,1277.79 1764.89,1163.62 1772.97,1163.62 1772.97,1141.73 1781.05,1141.73 1781.05,1200.23 1789.13,1200.23 1789.13,1174.47 1797.21,1174.47 1797.21,1237.42 1805.29,1237.42 1805.29,936.446 1813.38,936.446 1813.38,1084.1 1821.46,1084.1 1821.46,1092.26 1829.54,1092.26 1829.54,967.124 1837.62,967.124 1837.62,1060.7 1845.7,1060.7 1845.7,1191.46 1853.78,1191.46 1853.78,1318.03 1861.86,1318.03 1861.86,1184.66 1869.94,1184.66 1869.94,1076.79 1878.02,1076.79 1878.02,1102.18 1886.11,1102.18 1886.11,1328.65 1894.19,1328.65 1894.19,1280.25 1902.27,1280.25 1902.27,1153.75 1910.35,1153.75 1910.35,1351.55 1918.43,1351.55 1918.43,1300.88 1926.51,1300.88 1926.51,1198.06 1934.59,1198.06 1934.59,1173.81 1942.67,1173.81 1942.67,1157.75 1950.75,1157.75 1950.75,1244.54 1958.84,1244.54 1958.84,1440.19 1966.92,1440.19 1966.92,1178.49 1975,1178.49 1975,1118.77 1983.08,1118.77 1983.08,1164.3 1991.16,1164.3 1991.16,1424.86 1999.24,1424.86 1999.24,1183.31 2007.32,1183.31 2007.32,1270.48 2015.4,1270.48 2015.4,1348.58 2023.48,1348.58 2023.48,1210.14 2031.57,1210.14 2031.57,1158.44 2039.65,1158.44 2039.65,1172.69 2047.73,1172.69 2047.73,1490.75 2055.81,1490.75 2055.81,1324.17 2063.89,1324.17 2063.89,1335.15 2071.97,1335.15 2071.97,1145.57 2080.05,1145.57 2080.05,1158.76 2088.13,1158.76 2088.13,1115.6 2096.22,1115.6 2096.22,1063.07 2104.3,1063.07 2104.3,1281.7 2112.38,1281.7 2112.38,1349.9 2120.46,1349.9 2120.46,1422.05 2128.54,1422.05 2128.54,1270.26 2136.62,1270.26 2136.62,1312.29 2144.7,1312.29 2144.7,1175.58 2152.78,1175.58 2152.78,1185.88 2160.86,1185.88 2160.86,1277.98 2168.95,1277.98 2168.95,1157.79 2177.03,1157.79 2177.03,1282.39 2185.11,1282.39 2185.11,1369.14 2193.19,1369.14 2193.19,1226.59 2201.27,1226.59 2201.27,1234.49 2209.35,1234.49 2209.35,1160.51 2217.43,1160.51 2217.43,1195.92 2225.51,1195.92 2225.51,1218.27 2233.59,1218.27 2233.59,1379.78 2241.68,1379.78 2241.68,1225.47 2249.76,1225.47 2249.76,1101.86 2257.84,1101.86 2257.84,1039.8 2265.92,1039.8 2265.92,1303.69 2274,1303.69 2274,1289.64 2282.08,1289.64 2282.08,1196.05 2290.16,1196.05 2290.16,1299.49 2298.24,1299.49 2298.24,1128.72 2306.32,1128.72 2306.32,1256.24 2314.41,1256.24 2314.41,1181.08 2322.49,1181.08 2322.49,1285.05 2330.57,1285.05 2330.57,1290.39 2338.65,1290.39 2338.65,1087.73 2346.73,1087.73 2346.73,1202.49 2354.81,1202.49 2354.81,1097 2362.89,1097 2362.89,1228.82 2370.97,1228.82 2370.97,1314.41 2379.05,1314.41 2379.05,1488.59 2387.14,1488.59 2387.14,1191.43 2395.22,1191.43 2395.22,1211.81 2403.3,1211.81 2403.3,1233.1 2411.38,1233.1 2411.38,1279.37 2419.46,1279.37 2419.46,1372.08 2427.54,1372.08 2427.54,1514.57 2435.62,1514.57 2435.62,1240.26 2443.7,1240.26 2443.7,1296.02 2451.78,1296.02 2451.78,1168.44 2459.87,1168.44 2459.87,1130.83 2467.95,1130.83 2467.95,1323.3 2476.03,1323.3 2476.03,1371.49 2484.11,1371.49 2484.11,1291.36 2492.19,1291.36 2492.19,1370.25 2500.27,1370.25 2500.27,1385.97 2508.35,1385.97 2508.35,1090.82 2516.43,1090.82 2516.43,1162.58 2524.51,1162.58 2524.51,1213.9 2532.6,1213.9 2532.6,1210.36 2540.68,1210.36 2540.68,1198.8 2548.76,1198.8 2548.76,1237.39 2556.84,1237.39 2556.84,1208.1 2564.92,1208.1 2564.92,1035.75 2573,1035.75 2573,1205.24 2581.08,1205.24 2581.08,1303.8 2589.16,1303.8 2589.16,1198.07 2597.25,1198.07 2597.25,1180.76 2605.33,1180.76 2605.33,1208.61 2613.41,1208.61 2613.41,1182.29 "/>
<polyline clip-path="url(#clip992)" style="stroke:#808080; stroke-linecap:round; stroke-linejoin:round; stroke-width:6; stroke-opacity:1; fill:none" stroke-dasharray="24, 15" points="593.125,942.309 601.206,942.309 609.288,942.309 617.369,942.309 625.45,942.309 633.531,942.309 641.612,942.309 649.693,942.309 657.774,942.309 665.855,942.309 673.937,942.309 682.018,942.309 690.099,942.309 698.18,942.309 706.261,942.309 714.342,942.309 722.423,942.309 730.504,942.309 738.586,942.309 746.667,942.309 754.748,942.309 762.829,942.309 770.91,942.309 778.991,942.309 787.072,942.309 795.153,942.309 803.235,942.309 811.316,942.309 819.397,942.309 827.478,942.309 835.559,942.309 843.64,942.309 851.721,942.309 859.803,942.309 867.884,942.309 875.965,942.309 884.046,942.309 892.127,942.309 900.208,942.309 908.289,942.309 916.37,942.309 924.452,942.309 932.533,942.309 940.614,942.309 948.695,942.309 956.776,942.309 964.857,942.309 972.938,942.309 981.019,942.309 989.101,942.309 997.182,942.309 1005.26,942.309 1013.34,942.309 1021.43,942.309 1029.51,942.309 1037.59,942.309 1045.67,942.309 1053.75,942.309 1061.83,942.309 1069.91,942.309 1077.99,942.309 1086.07,942.309 1094.16,942.309 1102.24,942.309 1110.32,942.309 1118.4,942.309 1126.48,942.309 1134.56,942.309 1142.64,942.309 1150.72,942.309 1158.8,942.309 1166.89,942.309 1174.97,942.309 1183.05,942.309 1191.13,942.309 1199.21,942.309 1207.29,942.309 1215.37,942.309 1223.45,942.309 1231.53,942.309 1239.62,942.309 1247.7,942.309 1255.78,942.309 1263.86,942.309 1271.94,942.309 1280.02,942.309 1288.1,942.309 1296.18,942.309 1304.26,942.309 1312.35,942.309 1320.43,942.309 1328.51,942.309 1336.59,942.309 1344.67,942.309 1352.75,942.309 1360.83,942.309 1368.91,942.309 1376.99,942.309 1385.08,942.309 1393.16,942.309 1401.24,942.309 1409.32,942.309 1417.4,942.309 1425.48,942.309 1433.56,942.309 1441.64,942.309 1449.72,942.309 1457.81,942.309 1465.89,942.309 1473.97,942.309 1482.05,942.309 1490.13,942.309 1498.21,942.309 1506.29,942.309 1514.37,942.309 1522.46,942.309 1530.54,942.309 1538.62,942.309 1546.7,942.309 1554.78,942.309 1562.86,942.309 1570.94,942.309 1579.02,942.309 1587.1,942.309 1595.19,942.309 1603.27,942.309 1611.35,942.309 1619.43,942.309 1627.51,942.309 1635.59,942.309 1643.67,942.309 1651.75,942.309 1659.83,942.309 1667.92,942.309 1676,942.309 1684.08,942.309 1692.16,942.309 1700.24,942.309 1708.32,942.309 1716.4,942.309 1724.48,942.309 1732.56,942.309 1740.65,942.309 1748.73,942.309 1756.81,942.309 1764.89,942.309 1772.97,942.309 1781.05,942.309 1789.13,942.309 1797.21,942.309 1805.29,942.309 1813.38,942.309 1821.46,942.309 1829.54,942.309 1837.62,942.309 1845.7,942.309 1853.78,942.309 1861.86,942.309 1869.94,942.309 1878.02,942.309 1886.11,942.309 1894.19,942.309 1902.27,942.309 1910.35,942.309 1918.43,942.309 1926.51,942.309 1934.59,942.309 1942.67,942.309 1950.75,942.309 1958.84,942.309 1966.92,942.309 1975,942.309 1983.08,942.309 1991.16,942.309 1999.24,942.309 2007.32,942.309 2015.4,942.309 2023.48,942.309 2031.57,942.309 2039.65,942.309 2047.73,942.309 2055.81,942.309 2063.89,942.309 2071.97,942.309 2080.05,942.309 2088.13,942.309 2096.22,942.309 2104.3,942.309 2112.38,942.309 2120.46,942.309 2128.54,942.309 2136.62,942.309 2144.7,942.309 2152.78,942.309 2160.86,942.309 2168.95,942.309 2177.03,942.309 2185.11,942.309 2193.19,942.309 2201.27,942.309 2209.35,942.309 2217.43,942.309 2225.51,942.309 2233.59,942.309 2241.68,942.309 2249.76,942.309 2257.84,942.309 2265.92,942.309 2274,942.309 2282.08,942.309 2290.16,942.309 2298.24,942.309 2306.32,942.309 2314.41,942.309 2322.49,942.309 2330.57,942.309 2338.65,942.309 2346.73,942.309 2354.81,942.309 2362.89,942.309 2370.97,942.309 2379.05,942.309 2387.14,942.309 2395.22,942.309 2403.3,942.309 2411.38,942.309 2419.46,942.309 2427.54,942.309 2435.62,942.309 2443.7,942.309 2451.78,942.309 2459.87,942.309 2467.95,942.309 2476.03,942.309 2484.11,942.309 2492.19,942.309 2500.27,942.309 2508.35,942.309 2516.43,942.309 2524.51,942.309 2532.6,942.309 2540.68,942.309 2548.76,942.309 2556.84,942.309 2564.92,942.309 2573,942.309 2581.08,942.309 2589.16,942.309 2597.25,942.309 2605.33,942.309 2613.41,942.309 "/>
<polyline clip-path="url(#clip992)" style="stroke:#808080; stroke-linecap:round; stroke-linejoin:round; stroke-width:6; stroke-opacity:1; fill:none" stroke-dasharray="24, 15" points="593.125,1522.94 601.206,1522.94 609.288,1522.94 617.369,1522.94 625.45,1522.94 633.531,1522.94 641.612,1522.94 649.693,1522.94 657.774,1522.94 665.855,1522.94 673.937,1522.94 682.018,1522.94 690.099,1522.94 698.18,1522.94 706.261,1522.94 714.342,1522.94 722.423,1522.94 730.504,1522.94 738.586,1522.94 746.667,1522.94 754.748,1522.94 762.829,1522.94 770.91,1522.94 778.991,1522.94 787.072,1522.94 795.153,1522.94 803.235,1522.94 811.316,1522.94 819.397,1522.94 827.478,1522.94 835.559,1522.94 843.64,1522.94 851.721,1522.94 859.803,1522.94 867.884,1522.94 875.965,1522.94 884.046,1522.94 892.127,1522.94 900.208,1522.94 908.289,1522.94 916.37,1522.94 924.452,1522.94 932.533,1522.94 940.614,1522.94 948.695,1522.94 956.776,1522.94 964.857,1522.94 972.938,1522.94 981.019,1522.94 989.101,1522.94 997.182,1522.94 1005.26,1522.94 1013.34,1522.94 1021.43,1522.94 1029.51,1522.94 1037.59,1522.94 1045.67,1522.94 1053.75,1522.94 1061.83,1522.94 1069.91,1522.94 1077.99,1522.94 1086.07,1522.94 1094.16,1522.94 1102.24,1522.94 1110.32,1522.94 1118.4,1522.94 1126.48,1522.94 1134.56,1522.94 1142.64,1522.94 1150.72,1522.94 1158.8,1522.94 1166.89,1522.94 1174.97,1522.94 1183.05,1522.94 1191.13,1522.94 1199.21,1522.94 1207.29,1522.94 1215.37,1522.94 1223.45,1522.94 1231.53,1522.94 1239.62,1522.94 1247.7,1522.94 1255.78,1522.94 1263.86,1522.94 1271.94,1522.94 1280.02,1522.94 1288.1,1522.94 1296.18,1522.94 1304.26,1522.94 1312.35,1522.94 1320.43,1522.94 1328.51,1522.94 1336.59,1522.94 1344.67,1522.94 1352.75,1522.94 1360.83,1522.94 1368.91,1522.94 1376.99,1522.94 1385.08,1522.94 1393.16,1522.94 1401.24,1522.94 1409.32,1522.94 1417.4,1522.94 1425.48,1522.94 1433.56,1522.94 1441.64,1522.94 1449.72,1522.94 1457.81,1522.94 1465.89,1522.94 1473.97,1522.94 1482.05,1522.94 1490.13,1522.94 1498.21,1522.94 1506.29,1522.94 1514.37,1522.94 1522.46,1522.94 1530.54,1522.94 1538.62,1522.94 1546.7,1522.94 1554.78,1522.94 1562.86,1522.94 1570.94,1522.94 1579.02,1522.94 1587.1,1522.94 1595.19,1522.94 1603.27,1522.94 1611.35,1522.94 1619.43,1522.94 1627.51,1522.94 1635.59,1522.94 1643.67,1522.94 1651.75,1522.94 1659.83,1522.94 1667.92,1522.94 1676,1522.94 1684.08,1522.94 1692.16,1522.94 1700.24,1522.94 1708.32,1522.94 1716.4,1522.94 1724.48,1522.94 1732.56,1522.94 1740.65,1522.94 1748.73,1522.94 1756.81,1522.94 1764.89,1522.94 1772.97,1522.94 1781.05,1522.94 1789.13,1522.94 1797.21,1522.94 1805.29,1522.94 1813.38,1522.94 1821.46,1522.94 1829.54,1522.94 1837.62,1522.94 1845.7,1522.94 1853.78,1522.94 1861.86,1522.94 1869.94,1522.94 1878.02,1522.94 1886.11,1522.94 1894.19,1522.94 1902.27,1522.94 1910.35,1522.94 1918.43,1522.94 1926.51,1522.94 1934.59,1522.94 1942.67,1522.94 1950.75,1522.94 1958.84,1522.94 1966.92,1522.94 1975,1522.94 1983.08,1522.94 1991.16,1522.94 1999.24,1522.94 2007.32,1522.94 2015.4,1522.94 2023.48,1522.94 2031.57,1522.94 2039.65,1522.94 2047.73,1522.94 2055.81,1522.94 2063.89,1522.94 2071.97,1522.94 2080.05,1522.94 2088.13,1522.94 2096.22,1522.94 2104.3,1522.94 2112.38,1522.94 2120.46,1522.94 2128.54,1522.94 2136.62,1522.94 2144.7,1522.94 2152.78,1522.94 2160.86,1522.94 2168.95,1522.94 2177.03,1522.94 2185.11,1522.94 2193.19,1522.94 2201.27,1522.94 2209.35,1522.94 2217.43,1522.94 2225.51,1522.94 2233.59,1522.94 2241.68,1522.94 2249.76,1522.94 2257.84,1522.94 2265.92,1522.94 2274,1522.94 2282.08,1522.94 2290.16,1522.94 2298.24,1522.94 2306.32,1522.94 2314.41,1522.94 2322.49,1522.94 2330.57,1522.94 2338.65,1522.94 2346.73,1522.94 2354.81,1522.94 2362.89,1522.94 2370.97,1522.94 2379.05,1522.94 2387.14,1522.94 2395.22,1522.94 2403.3,1522.94 2411.38,1522.94 2419.46,1522.94 2427.54,1522.94 2435.62,1522.94 2443.7,1522.94 2451.78,1522.94 2459.87,1522.94 2467.95,1522.94 2476.03,1522.94 2484.11,1522.94 2492.19,1522.94 2500.27,1522.94 2508.35,1522.94 2516.43,1522.94 2524.51,1522.94 2532.6,1522.94 2540.68,1522.94 2548.76,1522.94 2556.84,1522.94 2564.92,1522.94 2573,1522.94 2581.08,1522.94 2589.16,1522.94 2597.25,1522.94 2605.33,1522.94 2613.41,1522.94 "/>
<path clip-path="url(#clip990)" d="M2191.35 351.106 L2602.63 351.106 L2602.63 176.146 L2191.35 176.146  Z" fill="#ffffff" fill-rule="evenodd" fill-opacity="1"/>
<polyline clip-path="url(#clip990)" style="stroke:#000000; stroke-linecap:round; stroke-linejoin:round; stroke-width:4; stroke-opacity:1; fill:none" points="2191.35,351.106 2602.63,351.106 2602.63,176.146 2191.35,176.146 2191.35,351.106 "/>
<polyline clip-path="url(#clip990)" style="stroke:#4682b4; stroke-linecap:round; stroke-linejoin:round; stroke-width:9; stroke-opacity:1; fill:none" points="2215.14,234.466 2357.91,234.466 "/>
<path clip-path="url(#clip990)" d="M2399.52 220.208 L2392.38 239.557 L2406.68 239.557 L2399.52 220.208 M2396.55 215.026 L2402.51 215.026 L2417.33 253.906 L2411.86 253.906 L2408.32 243.932 L2390.79 243.932 L2387.25 253.906 L2381.7 253.906 L2396.55 215.026 Z" fill="#000000" fill-rule="nonzero" fill-opacity="1" /><path clip-path="url(#clip990)" d="M2451.18 218.021 L2451.18 223.567 Q2448.53 221.094 2445.51 219.87 Q2442.51 218.646 2439.13 218.646 Q2432.46 218.646 2428.92 222.734 Q2425.38 226.797 2425.38 234.505 Q2425.38 242.187 2428.92 246.276 Q2432.46 250.338 2439.13 250.338 Q2442.51 250.338 2445.51 249.114 Q2448.53 247.89 2451.18 245.416 L2451.18 250.911 Q2448.42 252.786 2445.32 253.724 Q2442.25 254.661 2438.81 254.661 Q2429.98 254.661 2424.91 249.27 Q2419.83 243.854 2419.83 234.505 Q2419.83 225.13 2424.91 219.739 Q2429.98 214.323 2438.81 214.323 Q2442.3 214.323 2445.38 215.26 Q2448.47 216.172 2451.18 218.021 Z" fill="#000000" fill-rule="nonzero" fill-opacity="1" /><path clip-path="url(#clip990)" d="M2459.31 215.026 L2481.65 215.026 L2481.65 219.453 L2464.57 219.453 L2464.57 230.911 L2479.98 230.911 L2479.98 235.338 L2464.57 235.338 L2464.57 253.906 L2459.31 253.906 L2459.31 215.026 Z" fill="#000000" fill-rule="nonzero" fill-opacity="1" /><path clip-path="url(#clip990)" d="M2501.29 213.437 Q2497.8 219.427 2496.1 225.286 Q2494.41 231.146 2494.41 237.161 Q2494.41 243.177 2496.1 249.088 Q2497.82 254.974 2501.29 260.937 L2497.12 260.937 Q2493.21 254.817 2491.26 248.906 Q2489.33 242.994 2489.33 237.161 Q2489.33 231.354 2491.26 225.468 Q2493.19 219.583 2497.12 213.437 L2501.29 213.437 Z" fill="#000000" fill-rule="nonzero" fill-opacity="1" /><path clip-path="url(#clip990)" d="M2537.3 248.359 L2537.3 237.916 L2528.71 237.916 L2528.71 233.593 L2542.51 233.593 L2542.51 250.286 Q2539.46 252.448 2535.79 253.567 Q2532.12 254.661 2527.95 254.661 Q2518.84 254.661 2513.68 249.349 Q2508.55 244.01 2508.55 234.505 Q2508.55 224.974 2513.68 219.661 Q2518.84 214.323 2527.95 214.323 Q2531.75 214.323 2535.17 215.26 Q2538.6 216.198 2541.49 218.021 L2541.49 223.62 Q2538.58 221.146 2535.3 219.896 Q2532.02 218.646 2528.4 218.646 Q2521.26 218.646 2517.67 222.63 Q2514.1 226.614 2514.1 234.505 Q2514.1 242.369 2517.67 246.354 Q2521.26 250.338 2528.4 250.338 Q2531.18 250.338 2533.37 249.869 Q2535.56 249.375 2537.3 248.359 Z" fill="#000000" fill-rule="nonzero" fill-opacity="1" /><path clip-path="url(#clip990)" d="M2553.03 232.942 L2553.03 237.578 L2559.25 237.578 L2559.25 239.661 L2553.03 239.661 L2553.03 248.515 Q2553.03 250.52 2553.66 251.093 Q2554.28 251.666 2556.16 251.666 L2559.25 251.666 L2559.25 253.906 L2556.16 253.906 Q2552.67 253.906 2551.34 252.734 Q2550.01 251.588 2550.01 248.515 L2550.01 239.661 L2547.8 239.661 L2547.8 237.578 L2550.01 237.578 L2550.01 232.942 L2553.03 232.942 Z" fill="#000000" fill-rule="nonzero" fill-opacity="1" /><path clip-path="url(#clip990)" d="M2566.88 213.437 L2571.05 213.437 Q2574.96 219.583 2576.88 225.468 Q2578.84 231.354 2578.84 237.161 Q2578.84 242.994 2576.88 248.906 Q2574.96 254.817 2571.05 260.937 L2566.88 260.937 Q2570.35 254.974 2572.04 249.088 Q2573.76 243.177 2573.76 237.161 Q2573.76 231.146 2572.04 225.286 Q2570.35 219.427 2566.88 213.437 Z" fill="#000000" fill-rule="nonzero" fill-opacity="1" /><polyline clip-path="url(#clip990)" style="stroke:#808080; stroke-linecap:round; stroke-linejoin:round; stroke-width:6.75; stroke-opacity:1; fill:none" stroke-dasharray="27, 17" points="2215.14,292.786 2357.91,292.786 "/>
<path clip-path="url(#clip990)" d="M2384.2 311.419 L2384.2 306.627 Q2386.18 307.564 2388.21 308.059 Q2390.25 308.554 2392.2 308.554 Q2397.41 308.554 2400.14 305.064 Q2402.9 301.549 2403.29 294.413 Q2401.78 296.653 2399.46 297.851 Q2397.15 299.049 2394.33 299.049 Q2388.5 299.049 2385.09 295.533 Q2381.7 291.992 2381.7 285.872 Q2381.7 279.882 2385.25 276.262 Q2388.79 272.643 2394.67 272.643 Q2401.42 272.643 2404.96 277.825 Q2408.53 282.981 2408.53 292.825 Q2408.53 302.018 2404.15 307.512 Q2399.8 312.981 2392.43 312.981 Q2390.45 312.981 2388.42 312.59 Q2386.39 312.2 2384.2 311.419 M2394.67 294.934 Q2398.21 294.934 2400.27 292.512 Q2402.35 290.091 2402.35 285.872 Q2402.35 281.679 2400.27 279.257 Q2398.21 276.809 2394.67 276.809 Q2391.13 276.809 2389.05 279.257 Q2386.99 281.679 2386.99 285.872 Q2386.99 290.091 2389.05 292.512 Q2391.13 294.934 2394.67 294.934 Z" fill="#000000" fill-rule="nonzero" fill-opacity="1" /><path clip-path="url(#clip990)" d="M2418.14 311.419 L2418.14 306.627 Q2420.11 307.564 2422.15 308.059 Q2424.18 308.554 2426.13 308.554 Q2431.34 308.554 2434.07 305.064 Q2436.83 301.549 2437.22 294.413 Q2435.71 296.653 2433.4 297.851 Q2431.08 299.049 2428.27 299.049 Q2422.43 299.049 2419.02 295.533 Q2415.64 291.992 2415.64 285.872 Q2415.64 279.882 2419.18 276.262 Q2422.72 272.643 2428.6 272.643 Q2435.35 272.643 2438.89 277.825 Q2442.46 282.981 2442.46 292.825 Q2442.46 302.018 2438.08 307.512 Q2433.73 312.981 2426.36 312.981 Q2424.39 312.981 2422.35 312.59 Q2420.32 312.2 2418.14 311.419 M2428.6 294.934 Q2432.15 294.934 2434.2 292.512 Q2436.29 290.091 2436.29 285.872 Q2436.29 281.679 2434.2 279.257 Q2432.15 276.809 2428.6 276.809 Q2425.06 276.809 2422.98 279.257 Q2420.92 281.679 2420.92 285.872 Q2420.92 290.091 2422.98 292.512 Q2425.06 294.934 2428.6 294.934 Z" fill="#000000" fill-rule="nonzero" fill-opacity="1" /><path clip-path="url(#clip990)" d="M2484.98 295.117 Q2482.72 295.117 2481.42 297.044 Q2480.14 298.971 2480.14 302.408 Q2480.14 305.794 2481.42 307.747 Q2482.72 309.674 2484.98 309.674 Q2487.2 309.674 2488.47 307.747 Q2489.78 305.794 2489.78 302.408 Q2489.78 298.997 2488.47 297.07 Q2487.2 295.117 2484.98 295.117 M2484.98 291.809 Q2489.1 291.809 2491.52 294.674 Q2493.94 297.538 2493.94 302.408 Q2493.94 307.278 2491.49 310.143 Q2489.07 312.981 2484.98 312.981 Q2480.82 312.981 2478.4 310.143 Q2475.97 307.278 2475.97 302.408 Q2475.97 297.512 2478.4 294.674 Q2480.84 291.809 2484.98 291.809 M2458.11 275.95 Q2455.87 275.95 2454.57 277.903 Q2453.29 279.83 2453.29 283.216 Q2453.29 286.653 2454.57 288.58 Q2455.84 290.507 2458.11 290.507 Q2460.38 290.507 2461.65 288.58 Q2462.95 286.653 2462.95 283.216 Q2462.95 279.856 2461.65 277.903 Q2460.35 275.95 2458.11 275.95 M2481.62 272.643 L2485.79 272.643 L2461.47 312.981 L2457.3 312.981 L2481.62 272.643 M2458.11 272.643 Q2462.22 272.643 2464.67 275.507 Q2467.12 278.346 2467.12 283.216 Q2467.12 288.137 2464.67 290.976 Q2462.25 293.814 2458.11 293.814 Q2453.97 293.814 2451.55 290.976 Q2449.15 288.111 2449.15 283.216 Q2449.15 278.372 2451.57 275.507 Q2453.99 272.643 2458.11 272.643 Z" fill="#000000" fill-rule="nonzero" fill-opacity="1" /><path clip-path="url(#clip990)" d="M2548.19 276.341 L2548.19 281.887 Q2545.53 279.414 2542.51 278.19 Q2539.52 276.966 2536.13 276.966 Q2529.46 276.966 2525.92 281.054 Q2522.38 285.117 2522.38 292.825 Q2522.38 300.507 2525.92 304.596 Q2529.46 308.658 2536.13 308.658 Q2539.52 308.658 2542.51 307.434 Q2545.53 306.21 2548.19 303.736 L2548.19 309.231 Q2545.43 311.106 2542.33 312.044 Q2539.25 312.981 2535.82 312.981 Q2526.99 312.981 2521.91 307.59 Q2516.83 302.174 2516.83 292.825 Q2516.83 283.45 2521.91 278.059 Q2526.99 272.643 2535.82 272.643 Q2539.31 272.643 2542.38 273.58 Q2545.48 274.492 2548.19 276.341 Z" fill="#000000" fill-rule="nonzero" fill-opacity="1" /><path clip-path="url(#clip990)" d="M2556.31 273.346 L2561.57 273.346 L2561.57 312.226 L2556.31 312.226 L2556.31 273.346 Z" fill="#000000" fill-rule="nonzero" fill-opacity="1" /></svg>
