<?xml version="1.0" encoding="utf-8"?>
<svg xmlns="http://www.w3.org/2000/svg" xmlns:xlink="http://www.w3.org/1999/xlink" width="1200" height="350" viewBox="0 0 4800 1400">
<defs>
  <clipPath id="clip400">
    <rect x="0" y="0" width="4800" height="1400"/>
  </clipPath>
</defs>
<path clip-path="url(#clip400)" d="M0 1400 L4800 1400 L4800 -8.88178e-14 L0 -8.88178e-14  Z" fill="#ffffff" fill-rule="evenodd" fill-opacity="1"/>
<defs>
  <clipPath id="clip401">
    <rect x="467" y="125" width="4208" height="969"/>
  </clipPath>
</defs>
<path clip-path="url(#clip400)" d="M467.098 1094.34 L4674.02 1094.34 L4674.02 125.984 L467.098 125.984  Z" fill="#ffffff" fill-rule="evenodd" fill-opacity="1"/>
<polyline clip-path="url(#clip401)" style="stroke:#000000; stroke-linecap:round; stroke-linejoin:round; stroke-width:2; stroke-opacity:0.1; fill:none" points="579.211,1094.34 579.211,125.984 "/>
<polyline clip-path="url(#clip401)" style="stroke:#000000; stroke-linecap:round; stroke-linejoin:round; stroke-width:2; stroke-opacity:0.1; fill:none" points="1274.27,1094.34 1274.27,125.984 "/>
<polyline clip-path="url(#clip401)" style="stroke:#000000; stroke-linecap:round; stroke-linejoin:round; stroke-width:2; stroke-opacity:0.1; fill:none" points="1969.33,1094.34 1969.33,125.984 "/>
<polyline clip-path="url(#clip401)" style="stroke:#000000; stroke-linecap:round; stroke-linejoin:round; stroke-width:2; stroke-opacity:0.1; fill:none" points="2664.39,1094.34 2664.39,125.984 "/>
<polyline clip-path="url(#clip401)" style="stroke:#000000; stroke-linecap:round; stroke-linejoin:round; stroke-width:2; stroke-opacity:0.1; fill:none" points="3359.45,1094.34 3359.45,125.984 "/>
<polyline clip-path="url(#clip401)" style="stroke:#000000; stroke-linecap:round; stroke-linejoin:round; stroke-width:2; stroke-opacity:0.1; fill:none" points="4054.51,1094.34 4054.51,125.984 "/>
<polyline clip-path="url(#clip401)" style="stroke:#000000; stroke-linecap:round; stroke-linejoin:round; stroke-width:2; stroke-opacity:0.1; fill:none" points="467.098,932.958 4674.02,932.958 "/>
<polyline clip-path="url(#clip401)" style="stroke:#000000; stroke-linecap:round; stroke-linejoin:round; stroke-width:2; stroke-opacity:0.1; fill:none" points="467.098,740.086 4674.02,740.086 "/>
<polyline clip-path="url(#clip401)" style="stroke:#000000; stroke-linecap:round; stroke-linejoin:round; stroke-width:2; stroke-opacity:0.1; fill:none" points="467.098,547.214 4674.02,547.214 "/>
<polyline clip-path="url(#clip401)" style="stroke:#000000; stroke-linecap:round; stroke-linejoin:round; stroke-width:2; stroke-opacity:0.1; fill:none" points="467.098,354.342 4674.02,354.342 "/>
<polyline clip-path="url(#clip401)" style="stroke:#000000; stroke-linecap:round; stroke-linejoin:round; stroke-width:2; stroke-opacity:0.1; fill:none" points="467.098,161.47 4674.02,161.47 "/>
<polyline clip-path="url(#clip400)" style="stroke:#000000; stroke-linecap:round; stroke-linejoin:round; stroke-width:4; stroke-opacity:1; fill:none" points="467.098,1094.34 4674.02,1094.34 "/>
<polyline clip-path="url(#clip400)" style="stroke:#000000; stroke-linecap:round; stroke-linejoin:round; stroke-width:4; stroke-opacity:1; fill:none" points="579.211,1094.34 579.211,1075.44 "/>
<polyline clip-path="url(#clip400)" style="stroke:#000000; stroke-linecap:round; stroke-linejoin:round; stroke-width:4; stroke-opacity:1; fill:none" points="1274.27,1094.34 1274.27,1075.44 "/>
<polyline clip-path="url(#clip400)" style="stroke:#000000; stroke-linecap:round; stroke-linejoin:round; stroke-width:4; stroke-opacity:1; fill:none" points="1969.33,1094.34 1969.33,1075.44 "/>
<polyline clip-path="url(#clip400)" style="stroke:#000000; stroke-linecap:round; stroke-linejoin:round; stroke-width:4; stroke-opacity:1; fill:none" points="2664.39,1094.34 2664.39,1075.44 "/>
<polyline clip-path="url(#clip400)" style="stroke:#000000; stroke-linecap:round; stroke-linejoin:round; stroke-width:4; stroke-opacity:1; fill:none" points="3359.45,1094.34 3359.45,1075.44 "/>
<polyline clip-path="url(#clip400)" style="stroke:#000000; stroke-linecap:round; stroke-linejoin:round; stroke-width:4; stroke-opacity:1; fill:none" points="4054.51,1094.34 4054.51,1075.44 "/>
<path clip-path="url(#clip400)" d="M579.211 1147.39 Q574.697 1147.39 572.411 1151.85 Q570.154 1156.27 570.154 1165.18 Q570.154 1174.07 572.411 1178.52 Q574.697 1182.95 579.211 1182.95 Q583.754 1182.95 586.011 1178.52 Q588.296 1174.07 588.296 1165.18 Q588.296 1156.27 586.011 1151.85 Q583.754 1147.39 579.211 1147.39 M579.211 1142.76 Q586.474 1142.76 590.293 1148.52 Q594.141 1154.25 594.141 1165.18 Q594.141 1176.09 590.293 1181.85 Q586.474 1187.58 579.211 1187.58 Q571.948 1187.58 568.1 1181.85 Q564.28 1176.09 564.28 1165.18 Q564.28 1154.25 568.1 1148.52 Q571.948 1142.76 579.211 1142.76 Z" fill="#000000" fill-rule="nonzero" fill-opacity="1" /><path clip-path="url(#clip400)" d="M1223.78 1181.82 L1233.33 1181.82 L1233.33 1148.87 L1222.94 1150.95 L1222.94 1145.62 L1233.27 1143.54 L1239.11 1143.54 L1239.11 1181.82 L1248.66 1181.82 L1248.66 1186.74 L1223.78 1186.74 L1223.78 1181.82 Z" fill="#000000" fill-rule="nonzero" fill-opacity="1" /><path clip-path="url(#clip400)" d="M1272.97 1147.39 Q1268.45 1147.39 1266.17 1151.85 Q1263.91 1156.27 1263.91 1165.18 Q1263.91 1174.07 1266.17 1178.52 Q1268.45 1182.95 1272.97 1182.95 Q1277.51 1182.95 1279.77 1178.52 Q1282.05 1174.07 1282.05 1165.18 Q1282.05 1156.27 1279.77 1151.85 Q1277.51 1147.39 1272.97 1147.39 M1272.97 1142.76 Q1280.23 1142.76 1284.05 1148.52 Q1287.9 1154.25 1287.9 1165.18 Q1287.9 1176.09 1284.05 1181.85 Q1280.23 1187.58 1272.97 1187.58 Q1265.71 1187.58 1261.86 1181.85 Q1258.04 1176.09 1258.04 1165.18 Q1258.04 1154.25 1261.86 1148.52 Q1265.71 1142.76 1272.97 1142.76 Z" fill="#000000" fill-rule="nonzero" fill-opacity="1" /><path clip-path="url(#clip400)" d="M1310.67 1147.39 Q1306.16 1147.39 1303.87 1151.85 Q1301.61 1156.27 1301.61 1165.18 Q1301.61 1174.07 1303.87 1178.52 Q1306.16 1182.95 1310.67 1182.95 Q1315.21 1182.95 1317.47 1178.52 Q1319.76 1174.07 1319.76 1165.18 Q1319.76 1156.27 1317.47 1151.85 Q1315.21 1147.39 1310.67 1147.39 M1310.67 1142.76 Q1317.93 1142.76 1321.75 1148.52 Q1325.6 1154.25 1325.6 1165.18 Q1325.6 1176.09 1321.75 1181.85 Q1317.93 1187.58 1310.67 1187.58 Q1303.41 1187.58 1299.56 1181.85 Q1295.74 1176.09 1295.74 1165.18 Q1295.74 1154.25 1299.56 1148.52 Q1303.41 1142.76 1310.67 1142.76 Z" fill="#000000" fill-rule="nonzero" fill-opacity="1" /><path clip-path="url(#clip400)" d="M1923.95 1181.82 L1944.34 1181.82 L1944.34 1186.74 L1916.91 1186.74 L1916.91 1181.82 Q1920.24 1178.38 1925.97 1172.59 Q1931.73 1166.78 1933.2 1165.1 Q1936.01 1161.94 1937.11 1159.77 Q1938.24 1157.57 1938.24 1155.46 Q1938.24 1152.02 1935.81 1149.85 Q1933.41 1147.68 1929.53 1147.68 Q1926.78 1147.68 1923.71 1148.63 Q1920.68 1149.59 1917.2 1151.53 L1917.2 1145.62 Q1920.73 1144.21 1923.8 1143.48 Q1926.87 1142.76 1929.41 1142.76 Q1936.13 1142.76 1940.12 1146.12 Q1944.11 1149.47 1944.11 1155.09 Q1944.11 1157.75 1943.1 1160.15 Q1942.12 1162.52 1939.48 1165.76 Q1938.76 1166.6 1934.88 1170.62 Q1931.01 1174.62 1923.95 1181.82 Z" fill="#000000" fill-rule="nonzero" fill-opacity="1" /><path clip-path="url(#clip400)" d="M1969.11 1147.39 Q1964.6 1147.39 1962.31 1151.85 Q1960.06 1156.27 1960.06 1165.18 Q1960.06 1174.07 1962.31 1178.52 Q1964.6 1182.95 1969.11 1182.95 Q1973.66 1182.95 1975.91 1178.52 Q1978.2 1174.07 1978.2 1165.18 Q1978.2 1156.27 1975.91 1151.85 Q1973.66 1147.39 1969.11 1147.39 M1969.11 1142.76 Q1976.38 1142.76 1980.2 1148.52 Q1984.04 1154.25 1984.04 1165.18 Q1984.04 1176.09 1980.2 1181.85 Q1976.38 1187.58 1969.11 1187.58 Q1961.85 1187.58 1958 1181.85 Q1954.18 1176.09 1954.18 1165.18 Q1954.18 1154.25 1958 1148.52 Q1961.85 1142.76 1969.11 1142.76 Z" fill="#000000" fill-rule="nonzero" fill-opacity="1" /><path clip-path="url(#clip400)" d="M2006.82 1147.39 Q2002.3 1147.39 2000.02 1151.85 Q1997.76 1156.27 1997.76 1165.18 Q1997.76 1174.07 2000.02 1178.52 Q2002.3 1182.95 2006.82 1182.95 Q2011.36 1182.95 2013.62 1178.52 Q2015.9 1174.07 2015.9 1165.18 Q2015.9 1156.27 2013.62 1151.85 Q2011.36 1147.39 2006.82 1147.39 M2006.82 1142.76 Q2014.08 1142.76 2017.9 1148.52 Q2021.75 1154.25 2021.75 1165.18 Q2021.75 1176.09 2017.9 1181.85 Q2014.08 1187.58 2006.82 1187.58 Q1999.55 1187.58 1995.7 1181.85 Q1991.88 1176.09 1991.88 1165.18 Q1991.88 1154.25 1995.7 1148.52 Q1999.55 1142.76 2006.82 1142.76 Z" fill="#000000" fill-rule="nonzero" fill-opacity="1" /><path clip-path="url(#clip400)" d="M2631.59 1163.45 Q2635.79 1164.35 2638.13 1167.18 Q2640.5 1170.02 2640.5 1174.18 Q2640.5 1180.58 2636.11 1184.08 Q2631.71 1187.58 2623.61 1187.58 Q2620.89 1187.58 2617.99 1187.03 Q2615.13 1186.51 2612.06 1185.44 L2612.06 1179.8 Q2614.49 1181.21 2617.38 1181.94 Q2620.28 1182.66 2623.43 1182.66 Q2628.93 1182.66 2631.79 1180.49 Q2634.69 1178.32 2634.69 1174.18 Q2634.69 1170.36 2632 1168.22 Q2629.33 1166.05 2624.56 1166.05 L2619.53 1166.05 L2619.53 1161.25 L2624.79 1161.25 Q2629.1 1161.25 2631.39 1159.54 Q2633.68 1157.81 2633.68 1154.57 Q2633.68 1151.24 2631.3 1149.47 Q2628.96 1147.68 2624.56 1147.68 Q2622.16 1147.68 2619.41 1148.2 Q2616.66 1148.72 2613.36 1149.82 L2613.36 1144.61 Q2616.69 1143.69 2619.58 1143.22 Q2622.51 1142.76 2625.08 1142.76 Q2631.74 1142.76 2635.61 1145.8 Q2639.49 1148.81 2639.49 1153.96 Q2639.49 1157.55 2637.44 1160.03 Q2635.38 1162.49 2631.59 1163.45 Z" fill="#000000" fill-rule="nonzero" fill-opacity="1" /><path clip-path="url(#clip400)" d="M2664.09 1147.39 Q2659.57 1147.39 2657.29 1151.85 Q2655.03 1156.27 2655.03 1165.18 Q2655.03 1174.07 2657.29 1178.52 Q2659.57 1182.95 2664.09 1182.95 Q2668.63 1182.95 2670.89 1178.52 Q2673.17 1174.07 2673.17 1165.18 Q2673.17 1156.27 2670.89 1151.85 Q2668.63 1147.39 2664.09 1147.39 M2664.09 1142.76 Q2671.35 1142.76 2675.17 1148.52 Q2679.02 1154.25 2679.02 1165.18 Q2679.02 1176.09 2675.17 1181.85 Q2671.35 1187.58 2664.09 1187.58 Q2656.82 1187.58 2652.97 1181.85 Q2649.16 1176.09 2649.16 1165.18 Q2649.16 1154.25 2652.97 1148.52 Q2656.82 1142.76 2664.09 1142.76 Z" fill="#000000" fill-rule="nonzero" fill-opacity="1" /><path clip-path="url(#clip400)" d="M2701.79 1147.39 Q2697.27 1147.39 2694.99 1151.85 Q2692.73 1156.27 2692.73 1165.18 Q2692.73 1174.07 2694.99 1178.52 Q2697.27 1182.95 2701.79 1182.95 Q2706.33 1182.95 2708.59 1178.52 Q2710.87 1174.07 2710.87 1165.18 Q2710.87 1156.27 2708.59 1151.85 Q2706.33 1147.39 2701.79 1147.39 M2701.79 1142.76 Q2709.05 1142.76 2712.87 1148.52 Q2716.72 1154.25 2716.72 1165.18 Q2716.72 1176.09 2712.87 1181.85 Q2709.05 1187.58 2701.79 1187.58 Q2694.53 1187.58 2690.68 1181.85 Q2686.86 1176.09 2686.86 1165.18 Q2686.86 1154.25 2690.68 1148.52 Q2694.53 1142.76 2701.79 1142.76 Z" fill="#000000" fill-rule="nonzero" fill-opacity="1" /><path clip-path="url(#clip400)" d="M3325.81 1148.63 L3311.06 1171.7 L3325.81 1171.7 L3325.81 1148.63 M3324.28 1143.54 L3331.63 1143.54 L3331.63 1171.7 L3337.79 1171.7 L3337.79 1176.56 L3331.63 1176.56 L3331.63 1186.74 L3325.81 1186.74 L3325.81 1176.56 L3306.31 1176.56 L3306.31 1170.91 L3324.28 1143.54 Z" fill="#000000" fill-rule="nonzero" fill-opacity="1" /><path clip-path="url(#clip400)" d="M3359.96 1147.39 Q3355.44 1147.39 3353.16 1151.85 Q3350.9 1156.27 3350.9 1165.18 Q3350.9 1174.07 3353.16 1178.52 Q3355.44 1182.95 3359.96 1182.95 Q3364.5 1182.95 3366.76 1178.52 Q3369.04 1174.07 3369.04 1165.18 Q3369.04 1156.27 3366.76 1151.85 Q3364.5 1147.39 3359.96 1147.39 M3359.96 1142.76 Q3367.22 1142.76 3371.04 1148.52 Q3374.89 1154.25 3374.89 1165.18 Q3374.89 1176.09 3371.04 1181.85 Q3367.22 1187.58 3359.96 1187.58 Q3352.69 1187.58 3348.84 1181.85 Q3345.03 1176.09 3345.03 1165.18 Q3345.03 1154.25 3348.84 1148.52 Q3352.69 1142.76 3359.96 1142.76 Z" fill="#000000" fill-rule="nonzero" fill-opacity="1" /><path clip-path="url(#clip400)" d="M3397.66 1147.39 Q3393.14 1147.39 3390.86 1151.85 Q3388.6 1156.27 3388.6 1165.18 Q3388.6 1174.07 3390.86 1178.52 Q3393.14 1182.95 3397.66 1182.95 Q3402.2 1182.95 3404.46 1178.52 Q3406.74 1174.07 3406.74 1165.18 Q3406.74 1156.27 3404.46 1151.85 Q3402.2 1147.39 3397.66 1147.39 M3397.66 1142.76 Q3404.92 1142.76 3408.74 1148.52 Q3412.59 1154.25 3412.59 1165.18 Q3412.59 1176.09 3408.74 1181.85 Q3404.92 1187.58 3397.66 1187.58 Q3390.4 1187.58 3386.55 1181.85 Q3382.73 1176.09 3382.73 1165.18 Q3382.73 1154.25 3386.55 1148.52 Q3390.4 1142.76 3397.66 1142.76 Z" fill="#000000" fill-rule="nonzero" fill-opacity="1" /><path clip-path="url(#clip400)" d="M4004.03 1143.54 L4026.98 1143.54 L4026.98 1148.46 L4009.38 1148.46 L4009.38 1159.05 Q4010.66 1158.62 4011.93 1158.41 Q4013.2 1158.18 4014.48 1158.18 Q4021.71 1158.18 4025.94 1162.15 Q4030.16 1166.11 4030.16 1172.88 Q4030.16 1179.85 4025.82 1183.73 Q4021.48 1187.58 4013.58 1187.58 Q4010.86 1187.58 4008.02 1187.12 Q4005.22 1186.65 4002.21 1185.73 L4002.21 1179.85 Q4004.81 1181.27 4007.59 1181.97 Q4010.37 1182.66 4013.46 1182.66 Q4018.47 1182.66 4021.39 1180.03 Q4024.32 1177.4 4024.32 1172.88 Q4024.32 1168.37 4021.39 1165.73 Q4018.47 1163.1 4013.46 1163.1 Q4011.12 1163.1 4008.78 1163.62 Q4006.46 1164.14 4004.03 1165.24 L4004.03 1143.54 Z" fill="#000000" fill-rule="nonzero" fill-opacity="1" /><path clip-path="url(#clip400)" d="M4054.18 1147.39 Q4049.66 1147.39 4047.38 1151.85 Q4045.12 1156.27 4045.12 1165.18 Q4045.12 1174.07 4047.38 1178.52 Q4049.66 1182.95 4054.18 1182.95 Q4058.72 1182.95 4060.98 1178.52 Q4063.26 1174.07 4063.26 1165.18 Q4063.26 1156.27 4060.98 1151.85 Q4058.72 1147.39 4054.18 1147.39 M4054.18 1142.76 Q4061.44 1142.76 4065.26 1148.52 Q4069.11 1154.25 4069.11 1165.18 Q4069.11 1176.09 4065.26 1181.85 Q4061.44 1187.58 4054.18 1187.58 Q4046.91 1187.58 4043.07 1181.85 Q4039.25 1176.09 4039.25 1165.18 Q4039.25 1154.25 4043.07 1148.52 Q4046.91 1142.76 4054.18 1142.76 Z" fill="#000000" fill-rule="nonzero" fill-opacity="1" /><path clip-path="url(#clip400)" d="M4091.88 1147.39 Q4087.36 1147.39 4085.08 1151.85 Q4082.82 1156.27 4082.82 1165.18 Q4082.82 1174.07 4085.08 1178.52 Q4087.36 1182.95 4091.88 1182.95 Q4096.42 1182.95 4098.68 1178.52 Q4100.96 1174.07 4100.96 1165.18 Q4100.96 1156.27 4098.68 1151.85 Q4096.42 1147.39 4091.88 1147.39 M4091.88 1142.76 Q4099.14 1142.76 4102.96 1148.52 Q4106.81 1154.25 4106.81 1165.18 Q4106.81 1176.09 4102.96 1181.85 Q4099.14 1187.58 4091.88 1187.58 Q4084.62 1187.58 4080.77 1181.85 Q4076.95 1176.09 4076.95 1165.18 Q4076.95 1154.25 4080.77 1148.52 Q4084.62 1142.76 4091.88 1142.76 Z" fill="#000000" fill-rule="nonzero" fill-opacity="1" /><path clip-path="url(#clip400)" d="M2181.77 1240.65 L2221.97 1240.65 L2221.97 1246.06 L2205.1 1246.06 L2205.1 1288.17 L2198.64 1288.17 L2198.64 1246.06 L2181.77 1246.06 L2181.77 1240.65 Z" fill="#000000" fill-rule="nonzero" fill-opacity="1" /><path clip-path="url(#clip400)" d="M2239 1257.99 Q2238.01 1257.42 2236.83 1257.16 Q2235.69 1256.88 2234.29 1256.88 Q2229.32 1256.88 2226.65 1260.12 Q2224.01 1263.34 2224.01 1269.39 L2224.01 1288.17 L2218.12 1288.17 L2218.12 1252.52 L2224.01 1252.52 L2224.01 1258.06 Q2225.85 1254.81 2228.81 1253.25 Q2231.77 1251.66 2236.01 1251.66 Q2236.61 1251.66 2237.34 1251.75 Q2238.08 1251.82 2238.97 1251.98 L2239 1257.99 Z" fill="#000000" fill-rule="nonzero" fill-opacity="1" /><path clip-path="url(#clip400)" d="M2261.34 1270.25 Q2254.24 1270.25 2251.51 1271.87 Q2248.77 1273.49 2248.77 1277.41 Q2248.77 1280.53 2250.81 1282.37 Q2252.88 1284.19 2256.41 1284.19 Q2261.28 1284.19 2264.21 1280.75 Q2267.17 1277.28 2267.17 1271.55 L2267.17 1270.25 L2261.34 1270.25 M2273.02 1267.83 L2273.02 1288.17 L2267.17 1288.17 L2267.17 1282.75 Q2265.16 1286 2262.17 1287.56 Q2259.18 1289.09 2254.85 1289.09 Q2249.37 1289.09 2246.13 1286.03 Q2242.91 1282.95 2242.91 1277.79 Q2242.91 1271.77 2246.92 1268.72 Q2250.97 1265.66 2258.96 1265.66 L2267.17 1265.66 L2267.17 1265.09 Q2267.17 1261.05 2264.49 1258.85 Q2261.85 1256.62 2257.05 1256.62 Q2253.99 1256.62 2251.09 1257.36 Q2248.2 1258.09 2245.52 1259.55 L2245.52 1254.14 Q2248.74 1252.9 2251.76 1252.29 Q2254.79 1251.66 2257.65 1251.66 Q2265.38 1251.66 2269.2 1255.67 Q2273.02 1259.68 2273.02 1267.83 Z" fill="#000000" fill-rule="nonzero" fill-opacity="1" /><path clip-path="url(#clip400)" d="M2308.54 1257.93 L2308.54 1238.64 L2314.4 1238.64 L2314.4 1288.17 L2308.54 1288.17 L2308.54 1282.82 Q2306.7 1286 2303.87 1287.56 Q2301.06 1289.09 2297.12 1289.09 Q2290.66 1289.09 2286.58 1283.93 Q2282.54 1278.78 2282.54 1270.37 Q2282.54 1261.97 2286.58 1256.81 Q2290.66 1251.66 2297.12 1251.66 Q2301.06 1251.66 2303.87 1253.22 Q2306.7 1254.75 2308.54 1257.93 M2288.59 1270.37 Q2288.59 1276.83 2291.23 1280.53 Q2293.9 1284.19 2298.55 1284.19 Q2303.2 1284.19 2305.87 1280.53 Q2308.54 1276.83 2308.54 1270.37 Q2308.54 1263.91 2305.87 1260.25 Q2303.2 1256.56 2298.55 1256.56 Q2293.9 1256.56 2291.23 1260.25 Q2288.59 1263.91 2288.59 1270.37 Z" fill="#000000" fill-rule="nonzero" fill-opacity="1" /><path clip-path="url(#clip400)" d="M2326.46 1252.52 L2332.32 1252.52 L2332.32 1288.17 L2326.46 1288.17 L2326.46 1252.52 M2326.46 1238.64 L2332.32 1238.64 L2332.32 1246.06 L2326.46 1246.06 L2326.46 1238.64 Z" fill="#000000" fill-rule="nonzero" fill-opacity="1" /><path clip-path="url(#clip400)" d="M2374.21 1266.65 L2374.21 1288.17 L2368.35 1288.17 L2368.35 1266.84 Q2368.35 1261.78 2366.38 1259.27 Q2364.4 1256.75 2360.46 1256.75 Q2355.71 1256.75 2352.98 1259.77 Q2350.24 1262.8 2350.24 1268.02 L2350.24 1288.17 L2344.35 1288.17 L2344.35 1252.52 L2350.24 1252.52 L2350.24 1258.06 Q2352.34 1254.84 2355.17 1253.25 Q2358.04 1251.66 2361.76 1251.66 Q2367.9 1251.66 2371.06 1255.48 Q2374.21 1259.27 2374.21 1266.65 Z" fill="#000000" fill-rule="nonzero" fill-opacity="1" /><path clip-path="url(#clip400)" d="M2409.35 1269.93 Q2409.35 1263.56 2406.7 1260.06 Q2404.09 1256.56 2399.35 1256.56 Q2394.64 1256.56 2392 1260.06 Q2389.39 1263.56 2389.39 1269.93 Q2389.39 1276.26 2392 1279.76 Q2394.64 1283.26 2399.35 1283.26 Q2404.09 1283.26 2406.7 1279.76 Q2409.35 1276.26 2409.35 1269.93 M2415.2 1283.74 Q2415.2 1292.84 2411.16 1297.27 Q2407.12 1301.72 2398.78 1301.72 Q2395.69 1301.72 2392.95 1301.25 Q2390.22 1300.8 2387.64 1299.85 L2387.64 1294.15 Q2390.22 1295.55 2392.73 1296.22 Q2395.25 1296.89 2397.86 1296.89 Q2403.62 1296.89 2406.48 1293.86 Q2409.35 1290.87 2409.35 1284.79 L2409.35 1281.9 Q2407.53 1285.05 2404.7 1286.61 Q2401.87 1288.17 2397.92 1288.17 Q2391.36 1288.17 2387.35 1283.17 Q2383.34 1278.17 2383.34 1269.93 Q2383.34 1261.65 2387.35 1256.66 Q2391.36 1251.66 2397.92 1251.66 Q2401.87 1251.66 2404.7 1253.22 Q2407.53 1254.78 2409.35 1257.93 L2409.35 1252.52 L2415.2 1252.52 L2415.2 1283.74 Z" fill="#000000" fill-rule="nonzero" fill-opacity="1" /><path clip-path="url(#clip400)" d="M2471.44 1257.93 L2471.44 1238.64 L2477.3 1238.64 L2477.3 1288.17 L2471.44 1288.17 L2471.44 1282.82 Q2469.6 1286 2466.76 1287.56 Q2463.96 1289.09 2460.02 1289.09 Q2453.56 1289.09 2449.48 1283.93 Q2445.44 1278.78 2445.44 1270.37 Q2445.44 1261.97 2449.48 1256.81 Q2453.56 1251.66 2460.02 1251.66 Q2463.96 1251.66 2466.76 1253.22 Q2469.6 1254.75 2471.44 1257.93 M2451.49 1270.37 Q2451.49 1276.83 2454.13 1280.53 Q2456.8 1284.19 2461.45 1284.19 Q2466.1 1284.19 2468.77 1280.53 Q2471.44 1276.83 2471.44 1270.37 Q2471.44 1263.91 2468.77 1260.25 Q2466.1 1256.56 2461.45 1256.56 Q2456.8 1256.56 2454.13 1260.25 Q2451.49 1263.91 2451.49 1270.37 Z" fill="#000000" fill-rule="nonzero" fill-opacity="1" /><path clip-path="url(#clip400)" d="M2505.56 1270.25 Q2498.47 1270.25 2495.73 1271.87 Q2492.99 1273.49 2492.99 1277.41 Q2492.99 1280.53 2495.03 1282.37 Q2497.1 1284.19 2500.63 1284.19 Q2505.5 1284.19 2508.43 1280.75 Q2511.39 1277.28 2511.39 1271.55 L2511.39 1270.25 L2505.56 1270.25 M2517.24 1267.83 L2517.24 1288.17 L2511.39 1288.17 L2511.39 1282.75 Q2509.38 1286 2506.39 1287.56 Q2503.4 1289.09 2499.07 1289.09 Q2493.6 1289.09 2490.35 1286.03 Q2487.13 1282.95 2487.13 1277.79 Q2487.13 1271.77 2491.14 1268.72 Q2495.19 1265.66 2503.18 1265.66 L2511.39 1265.66 L2511.39 1265.09 Q2511.39 1261.05 2508.71 1258.85 Q2506.07 1256.62 2501.27 1256.62 Q2498.21 1256.62 2495.31 1257.36 Q2492.42 1258.09 2489.74 1259.55 L2489.74 1254.14 Q2492.96 1252.9 2495.98 1252.29 Q2499.01 1251.66 2501.87 1251.66 Q2509.61 1251.66 2513.42 1255.67 Q2517.24 1259.68 2517.24 1267.83 Z" fill="#000000" fill-rule="nonzero" fill-opacity="1" /><path clip-path="url(#clip400)" d="M2544.14 1291.48 Q2541.66 1297.84 2539.3 1299.78 Q2536.95 1301.72 2533 1301.72 L2528.32 1301.72 L2528.32 1296.82 L2531.76 1296.82 Q2534.18 1296.82 2535.51 1295.68 Q2536.85 1294.53 2538.47 1290.27 L2539.52 1287.59 L2525.11 1252.52 L2531.31 1252.52 L2542.45 1280.4 L2553.59 1252.52 L2559.8 1252.52 L2544.14 1291.48 Z" fill="#000000" fill-rule="nonzero" fill-opacity="1" /><path clip-path="url(#clip400)" d="M2602.67 1238.7 Q2598.41 1246.02 2596.34 1253.19 Q2594.27 1260.35 2594.27 1267.7 Q2594.27 1275.05 2596.34 1282.28 Q2598.44 1289.47 2602.67 1296.76 L2597.58 1296.76 Q2592.8 1289.28 2590.42 1282.05 Q2588.06 1274.83 2588.06 1267.7 Q2588.06 1260.6 2590.42 1253.41 Q2592.77 1246.22 2597.58 1238.7 L2602.67 1238.7 Z" fill="#000000" fill-rule="nonzero" fill-opacity="1" /><path clip-path="url(#clip400)" d="M2633.58 1245.01 Q2626.57 1245.01 2622.44 1250.23 Q2618.33 1255.45 2618.33 1264.45 Q2618.33 1273.43 2622.44 1278.65 Q2626.57 1283.87 2633.58 1283.87 Q2640.58 1283.87 2644.65 1278.65 Q2648.76 1273.43 2648.76 1264.45 Q2648.76 1255.45 2644.65 1250.23 Q2640.58 1245.01 2633.58 1245.01 M2633.58 1239.79 Q2643.57 1239.79 2649.56 1246.5 Q2655.54 1253.19 2655.54 1264.45 Q2655.54 1275.69 2649.56 1282.4 Q2643.57 1289.09 2633.58 1289.09 Q2623.55 1289.09 2617.54 1282.4 Q2611.55 1275.72 2611.55 1264.45 Q2611.55 1253.19 2617.54 1246.5 Q2623.55 1239.79 2633.58 1239.79 Z" fill="#000000" fill-rule="nonzero" fill-opacity="1" /><path clip-path="url(#clip400)" d="M2679.16 1256.62 Q2674.45 1256.62 2671.71 1260.32 Q2668.97 1263.98 2668.97 1270.37 Q2668.97 1276.77 2671.68 1280.46 Q2674.41 1284.12 2679.16 1284.12 Q2683.83 1284.12 2686.57 1280.43 Q2689.31 1276.74 2689.31 1270.37 Q2689.31 1264.04 2686.57 1260.35 Q2683.83 1256.62 2679.16 1256.62 M2679.16 1251.66 Q2686.79 1251.66 2691.16 1256.62 Q2695.52 1261.59 2695.52 1270.37 Q2695.52 1279.13 2691.16 1284.12 Q2686.79 1289.09 2679.16 1289.09 Q2671.49 1289.09 2667.12 1284.12 Q2662.8 1279.13 2662.8 1270.37 Q2662.8 1261.59 2667.12 1256.62 Q2671.49 1251.66 2679.16 1251.66 Z" fill="#000000" fill-rule="nonzero" fill-opacity="1" /><path clip-path="url(#clip400)" d="M2733.96 1242.21 L2733.96 1248.48 Q2730.3 1246.72 2727.06 1245.87 Q2723.81 1245.01 2720.79 1245.01 Q2715.54 1245.01 2712.67 1247.04 Q2709.84 1249.08 2709.84 1252.84 Q2709.84 1255.99 2711.72 1257.61 Q2713.63 1259.2 2718.91 1260.19 L2722.79 1260.98 Q2729.99 1262.35 2733.39 1265.82 Q2736.83 1269.26 2736.83 1275.05 Q2736.83 1281.96 2732.18 1285.52 Q2727.57 1289.09 2718.62 1289.09 Q2715.25 1289.09 2711.43 1288.32 Q2707.64 1287.56 2703.57 1286.06 L2703.57 1279.44 Q2707.48 1281.64 2711.24 1282.75 Q2714.99 1283.87 2718.62 1283.87 Q2724.13 1283.87 2727.12 1281.7 Q2730.11 1279.54 2730.11 1275.53 Q2730.11 1272.03 2727.95 1270.06 Q2725.82 1268.08 2720.91 1267.1 L2717 1266.33 Q2709.81 1264.9 2706.59 1261.84 Q2703.38 1258.79 2703.38 1253.35 Q2703.38 1247.04 2707.8 1243.41 Q2712.26 1239.79 2720.06 1239.79 Q2723.4 1239.79 2726.87 1240.39 Q2730.34 1241 2733.96 1242.21 Z" fill="#000000" fill-rule="nonzero" fill-opacity="1" /><path clip-path="url(#clip400)" d="M2767.32 1252.52 L2773.18 1252.52 L2773.18 1288.17 L2767.32 1288.17 L2767.32 1252.52 M2767.32 1238.64 L2773.18 1238.64 L2773.18 1246.06 L2767.32 1246.06 L2767.32 1238.64 Z" fill="#000000" fill-rule="nonzero" fill-opacity="1" /><path clip-path="url(#clip400)" d="M2815.06 1266.65 L2815.06 1288.17 L2809.21 1288.17 L2809.21 1266.84 Q2809.21 1261.78 2807.23 1259.27 Q2805.26 1256.75 2801.31 1256.75 Q2796.57 1256.75 2793.83 1259.77 Q2791.1 1262.8 2791.1 1268.02 L2791.1 1288.17 L2785.21 1288.17 L2785.21 1252.52 L2791.1 1252.52 L2791.1 1258.06 Q2793.2 1254.84 2796.03 1253.25 Q2798.89 1251.66 2802.62 1251.66 Q2808.76 1251.66 2811.91 1255.48 Q2815.06 1259.27 2815.06 1266.65 Z" fill="#000000" fill-rule="nonzero" fill-opacity="1" /><path clip-path="url(#clip400)" d="M2850.2 1257.93 L2850.2 1238.64 L2856.06 1238.64 L2856.06 1288.17 L2850.2 1288.17 L2850.2 1282.82 Q2848.36 1286 2845.52 1287.56 Q2842.72 1289.09 2838.78 1289.09 Q2832.31 1289.09 2828.24 1283.93 Q2824.2 1278.78 2824.2 1270.37 Q2824.2 1261.97 2828.24 1256.81 Q2832.31 1251.66 2838.78 1251.66 Q2842.72 1251.66 2845.52 1253.22 Q2848.36 1254.75 2850.2 1257.93 M2830.25 1270.37 Q2830.25 1276.83 2832.89 1280.53 Q2835.56 1284.19 2840.21 1284.19 Q2844.86 1284.19 2847.53 1280.53 Q2850.2 1276.83 2850.2 1270.37 Q2850.2 1263.91 2847.53 1260.25 Q2844.86 1256.56 2840.21 1256.56 Q2835.56 1256.56 2832.89 1260.25 Q2830.25 1263.91 2830.25 1270.37 Z" fill="#000000" fill-rule="nonzero" fill-opacity="1" /><path clip-path="url(#clip400)" d="M2898.61 1268.88 L2898.61 1271.74 L2871.69 1271.74 Q2872.07 1277.79 2875.31 1280.97 Q2878.59 1284.12 2884.42 1284.12 Q2887.79 1284.12 2890.94 1283.3 Q2894.13 1282.47 2897.24 1280.81 L2897.24 1286.35 Q2894.09 1287.69 2890.78 1288.39 Q2887.47 1289.09 2884.07 1289.09 Q2875.54 1289.09 2870.54 1284.12 Q2865.58 1279.16 2865.58 1270.69 Q2865.58 1261.94 2870.29 1256.81 Q2875.03 1251.66 2883.05 1251.66 Q2890.24 1251.66 2894.41 1256.31 Q2898.61 1260.92 2898.61 1268.88 M2892.76 1267.16 Q2892.69 1262.35 2890.05 1259.49 Q2887.44 1256.62 2883.11 1256.62 Q2878.21 1256.62 2875.25 1259.39 Q2872.32 1262.16 2871.88 1267.19 L2892.76 1267.16 Z" fill="#000000" fill-rule="nonzero" fill-opacity="1" /><path clip-path="url(#clip400)" d="M2936.71 1252.52 L2923.82 1269.86 L2937.38 1288.17 L2930.47 1288.17 L2920.1 1274.16 L2909.72 1288.17 L2902.81 1288.17 L2916.66 1269.51 L2903.99 1252.52 L2910.9 1252.52 L2920.35 1265.22 L2929.81 1252.52 L2936.71 1252.52 Z" fill="#000000" fill-rule="nonzero" fill-opacity="1" /><path clip-path="url(#clip400)" d="M2944.73 1238.7 L2949.83 1238.7 Q2954.6 1246.22 2956.96 1253.41 Q2959.34 1260.6 2959.34 1267.7 Q2959.34 1274.83 2956.96 1282.05 Q2954.6 1289.28 2949.83 1296.76 L2944.73 1296.76 Q2948.97 1289.47 2951.04 1282.28 Q2953.14 1275.05 2953.14 1267.7 Q2953.14 1260.35 2951.04 1253.19 Q2948.97 1246.02 2944.73 1238.7 Z" fill="#000000" fill-rule="nonzero" fill-opacity="1" /><polyline clip-path="url(#clip400)" style="stroke:#000000; stroke-linecap:round; stroke-linejoin:round; stroke-width:4; stroke-opacity:1; fill:none" points="467.098,1094.34 467.098,125.984 "/>
<polyline clip-path="url(#clip400)" style="stroke:#000000; stroke-linecap:round; stroke-linejoin:round; stroke-width:4; stroke-opacity:1; fill:none" points="467.098,932.958 485.995,932.958 "/>
<polyline clip-path="url(#clip400)" style="stroke:#000000; stroke-linecap:round; stroke-linejoin:round; stroke-width:4; stroke-opacity:1; fill:none" points="467.098,740.086 485.995,740.086 "/>
<polyline clip-path="url(#clip400)" style="stroke:#000000; stroke-linecap:round; stroke-linejoin:round; stroke-width:4; stroke-opacity:1; fill:none" points="467.098,547.214 485.995,547.214 "/>
<polyline clip-path="url(#clip400)" style="stroke:#000000; stroke-linecap:round; stroke-linejoin:round; stroke-width:4; stroke-opacity:1; fill:none" points="467.098,354.342 485.995,354.342 "/>
<polyline clip-path="url(#clip400)" style="stroke:#000000; stroke-linecap:round; stroke-linejoin:round; stroke-width:4; stroke-opacity:1; fill:none" points="467.098,161.47 485.995,161.47 "/>
<path clip-path="url(#clip400)" d="M280.255 933.522 L317.349 933.522 L317.349 938.441 L280.255 938.441 L280.255 933.522 Z" fill="#000000" fill-rule="nonzero" fill-opacity="1" /><path clip-path="url(#clip400)" d="M330.978 949.639 L340.526 949.639 L340.526 916.682 L330.139 918.765 L330.139 913.441 L340.468 911.358 L346.313 911.358 L346.313 949.639 L355.862 949.639 L355.862 954.558 L330.978 954.558 L330.978 949.639 Z" fill="#000000" fill-rule="nonzero" fill-opacity="1" /><path clip-path="url(#clip400)" d="M380.167 915.206 Q375.653 915.206 373.367 919.662 Q371.111 924.089 371.111 933.001 Q371.111 941.884 373.367 946.34 Q375.653 950.768 380.167 950.768 Q384.71 950.768 386.967 946.34 Q389.253 941.884 389.253 933.001 Q389.253 924.089 386.967 919.662 Q384.71 915.206 380.167 915.206 M380.167 910.577 Q387.43 910.577 391.249 916.335 Q395.098 922.064 395.098 933.001 Q395.098 943.91 391.249 949.668 Q387.43 955.397 380.167 955.397 Q372.905 955.397 369.056 949.668 Q365.237 943.91 365.237 933.001 Q365.237 922.064 369.056 916.335 Q372.905 910.577 380.167 910.577 Z" fill="#000000" fill-rule="nonzero" fill-opacity="1" /><path clip-path="url(#clip400)" d="M319.201 740.65 L356.296 740.65 L356.296 745.569 L319.201 745.569 L319.201 740.65 Z" fill="#000000" fill-rule="nonzero" fill-opacity="1" /><path clip-path="url(#clip400)" d="M368.969 718.486 L391.915 718.486 L391.915 723.405 L374.322 723.405 L374.322 733.995 Q375.595 733.561 376.869 733.359 Q378.142 733.127 379.415 733.127 Q386.649 733.127 390.873 737.091 Q395.098 741.055 395.098 747.826 Q395.098 754.799 390.757 758.677 Q386.417 762.525 378.518 762.525 Q375.798 762.525 372.962 762.062 Q370.156 761.599 367.146 760.673 L367.146 754.799 Q369.751 756.217 372.528 756.912 Q375.306 757.606 378.402 757.606 Q383.408 757.606 386.33 754.973 Q389.253 752.34 389.253 747.826 Q389.253 743.312 386.33 740.679 Q383.408 738.046 378.402 738.046 Q376.058 738.046 373.715 738.567 Q371.4 739.088 368.969 740.187 L368.969 718.486 Z" fill="#000000" fill-rule="nonzero" fill-opacity="1" /><path clip-path="url(#clip400)" d="M380.167 529.462 Q375.653 529.462 373.367 533.918 Q371.111 538.345 371.111 547.257 Q371.111 556.14 373.367 560.596 Q375.653 565.023 380.167 565.023 Q384.71 565.023 386.967 560.596 Q389.253 556.14 389.253 547.257 Q389.253 538.345 386.967 533.918 Q384.71 529.462 380.167 529.462 M380.167 524.833 Q387.43 524.833 391.249 530.591 Q395.098 536.32 395.098 547.257 Q395.098 558.166 391.249 563.924 Q387.43 569.653 380.167 569.653 Q372.905 569.653 369.056 563.924 Q365.237 558.166 365.237 547.257 Q365.237 536.32 369.056 530.591 Q372.905 524.833 380.167 524.833 Z" fill="#000000" fill-rule="nonzero" fill-opacity="1" /><path clip-path="url(#clip400)" d="M368.969 332.742 L391.915 332.742 L391.915 337.661 L374.322 337.661 L374.322 348.251 Q375.595 347.817 376.869 347.615 Q378.142 347.383 379.415 347.383 Q386.649 347.383 390.873 351.347 Q395.098 355.311 395.098 362.082 Q395.098 369.055 390.757 372.933 Q386.417 376.781 378.518 376.781 Q375.798 376.781 372.962 376.318 Q370.156 375.855 367.146 374.929 L367.146 369.055 Q369.751 370.473 372.528 371.168 Q375.306 371.862 378.402 371.862 Q383.408 371.862 386.33 369.229 Q389.253 366.596 389.253 362.082 Q389.253 357.568 386.33 354.935 Q383.408 352.302 378.402 352.302 Q376.058 352.302 373.715 352.823 Q371.4 353.344 368.969 354.443 L368.969 332.742 Z" fill="#000000" fill-rule="nonzero" fill-opacity="1" /><path clip-path="url(#clip400)" d="M330.978 178.151 L340.526 178.151 L340.526 145.194 L330.139 147.277 L330.139 141.953 L340.468 139.87 L346.313 139.87 L346.313 178.151 L355.862 178.151 L355.862 183.07 L330.978 183.07 L330.978 178.151 Z" fill="#000000" fill-rule="nonzero" fill-opacity="1" /><path clip-path="url(#clip400)" d="M380.167 143.718 Q375.653 143.718 373.367 148.174 Q371.111 152.601 371.111 161.513 Q371.111 170.396 373.367 174.852 Q375.653 179.279 380.167 179.279 Q384.71 179.279 386.967 174.852 Q389.253 170.396 389.253 161.513 Q389.253 152.601 386.967 148.174 Q384.71 143.718 380.167 143.718 M380.167 139.089 Q387.43 139.089 391.249 144.847 Q395.098 150.576 395.098 161.513 Q395.098 172.422 391.249 178.18 Q387.43 183.909 380.167 183.909 Q372.905 183.909 369.056 178.18 Q365.237 172.422 365.237 161.513 Q365.237 150.576 369.056 144.847 Q372.905 139.089 380.167 139.089 Z" fill="#000000" fill-rule="nonzero" fill-opacity="1" /><path clip-path="url(#clip400)" d="M152.812 1102.06 L176.461 1110.78 L176.461 1093.3 L152.812 1102.06 M146.479 1105.69 L146.479 1098.4 L193.999 1080.29 L193.999 1086.97 L181.808 1091.3 L181.808 1112.72 L193.999 1117.05 L193.999 1123.83 L146.479 1105.69 Z" fill="#000000" fill-rule="nonzero" fill-opacity="1" /><path clip-path="url(#clip400)" d="M172.482 1043.97 L193.999 1043.97 L193.999 1049.83 L172.673 1049.83 Q167.613 1049.83 165.098 1051.8 Q162.584 1053.77 162.584 1057.72 Q162.584 1062.46 165.608 1065.2 Q168.631 1067.94 173.851 1067.94 L193.999 1067.94 L193.999 1073.83 L158.351 1073.83 L158.351 1067.94 L163.889 1067.94 Q160.674 1065.84 159.083 1063 Q157.491 1060.14 157.491 1056.41 Q157.491 1050.27 161.311 1047.12 Q165.098 1043.97 172.482 1043.97 Z" fill="#000000" fill-rule="nonzero" fill-opacity="1" /><path clip-path="url(#clip400)" d="M172.482 1002.66 L193.999 1002.66 L193.999 1008.51 L172.673 1008.51 Q167.613 1008.51 165.098 1010.49 Q162.584 1012.46 162.584 1016.41 Q162.584 1021.15 165.608 1023.89 Q168.631 1026.62 173.851 1026.62 L193.999 1026.62 L193.999 1032.51 L158.351 1032.51 L158.351 1026.62 L163.889 1026.62 Q160.674 1024.52 159.083 1021.69 Q157.491 1018.83 157.491 1015.1 Q157.491 1008.96 161.311 1005.81 Q165.098 1002.66 172.482 1002.66 Z" fill="#000000" fill-rule="nonzero" fill-opacity="1" /><path clip-path="url(#clip400)" d="M179.93 991.58 L158.351 991.58 L158.351 985.724 L179.708 985.724 Q184.768 985.724 187.315 983.75 Q189.829 981.777 189.829 977.83 Q189.829 973.088 186.805 970.35 Q183.782 967.581 178.562 967.581 L158.351 967.581 L158.351 961.725 L193.999 961.725 L193.999 967.581 L188.524 967.581 Q191.771 969.714 193.362 972.547 Q194.922 975.348 194.922 979.071 Q194.922 985.214 191.102 988.397 Q187.283 991.58 179.93 991.58 M157.491 976.843 L157.491 976.843 Z" fill="#000000" fill-rule="nonzero" fill-opacity="1" /><path clip-path="url(#clip400)" d="M176.079 933.461 Q176.079 940.559 177.702 943.296 Q179.326 946.033 183.241 946.033 Q186.36 946.033 188.206 943.996 Q190.02 941.928 190.02 938.395 Q190.02 933.525 186.583 930.597 Q183.113 927.637 177.384 927.637 L176.079 927.637 L176.079 933.461 M173.66 921.78 L193.999 921.78 L193.999 927.637 L188.588 927.637 Q191.834 929.642 193.394 932.634 Q194.922 935.626 194.922 939.954 Q194.922 945.429 191.866 948.675 Q188.779 951.89 183.622 951.89 Q177.607 951.89 174.551 947.88 Q171.496 943.837 171.496 935.848 L171.496 927.637 L170.923 927.637 Q166.881 927.637 164.684 930.31 Q162.456 932.952 162.456 937.758 Q162.456 940.814 163.189 943.71 Q163.921 946.606 165.385 949.28 L159.974 949.28 Q158.733 946.065 158.128 943.042 Q157.491 940.018 157.491 937.153 Q157.491 929.419 161.502 925.6 Q165.512 921.78 173.66 921.78 Z" fill="#000000" fill-rule="nonzero" fill-opacity="1" /><path clip-path="url(#clip400)" d="M144.473 909.717 L144.473 903.861 L193.999 903.861 L193.999 909.717 L144.473 909.717 Z" fill="#000000" fill-rule="nonzero" fill-opacity="1" /><path clip-path="url(#clip400)" d="M158.351 891.607 L158.351 885.75 L193.999 885.75 L193.999 891.607 L158.351 891.607 M144.473 891.607 L144.473 885.75 L151.889 885.75 L151.889 891.607 L144.473 891.607 Z" fill="#000000" fill-rule="nonzero" fill-opacity="1" /><path clip-path="url(#clip400)" d="M158.351 876.043 L158.351 848.224 L163.698 848.224 L189.32 870.25 L189.32 848.224 L193.999 848.224 L193.999 876.838 L188.651 876.838 L163.029 854.813 L163.029 876.043 L158.351 876.043 Z" fill="#000000" fill-rule="nonzero" fill-opacity="1" /><path clip-path="url(#clip400)" d="M174.71 808.789 L177.575 808.789 L177.575 835.716 Q183.622 835.334 186.805 832.087 Q189.956 828.809 189.956 822.984 Q189.956 819.611 189.129 816.46 Q188.301 813.277 186.646 810.157 L192.184 810.157 Q193.521 813.308 194.221 816.619 Q194.922 819.929 194.922 823.334 Q194.922 831.865 189.956 836.862 Q184.991 841.827 176.525 841.827 Q167.772 841.827 162.647 837.116 Q157.491 832.374 157.491 824.353 Q157.491 817.16 162.138 812.99 Q166.753 808.789 174.71 808.789 M172.992 814.645 Q168.186 814.709 165.321 817.351 Q162.456 819.961 162.456 824.289 Q162.456 829.191 165.226 832.151 Q167.995 835.079 173.024 835.525 L172.992 814.645 Z" fill="#000000" fill-rule="nonzero" fill-opacity="1" /><path clip-path="url(#clip400)" d="M163.761 775.719 L144.473 775.719 L144.473 769.863 L193.999 769.863 L193.999 775.719 L188.651 775.719 Q191.834 777.565 193.394 780.398 Q194.922 783.199 194.922 787.145 Q194.922 793.607 189.765 797.681 Q184.609 801.723 176.206 801.723 Q167.804 801.723 162.647 797.681 Q157.491 793.607 157.491 787.145 Q157.491 783.199 159.051 780.398 Q160.579 777.565 163.761 775.719 M176.206 795.675 Q182.668 795.675 186.36 793.034 Q190.02 790.36 190.02 785.713 Q190.02 781.066 186.36 778.393 Q182.668 775.719 176.206 775.719 Q169.745 775.719 166.085 778.393 Q162.393 781.066 162.393 785.713 Q162.393 790.36 166.085 793.034 Q169.745 795.675 176.206 795.675 Z" fill="#000000" fill-rule="nonzero" fill-opacity="1" /><path clip-path="url(#clip400)" d="M174.71 706.587 L177.575 706.587 L177.575 733.514 Q183.622 733.132 186.805 729.886 Q189.956 726.608 189.956 720.783 Q189.956 717.409 189.129 714.258 Q188.301 711.075 186.646 707.956 L192.184 707.956 Q193.521 711.107 194.221 714.417 Q194.922 717.727 194.922 721.133 Q194.922 729.663 189.956 734.66 Q184.991 739.625 176.525 739.625 Q167.772 739.625 162.647 734.915 Q157.491 730.172 157.491 722.152 Q157.491 714.958 162.138 710.789 Q166.753 706.587 174.71 706.587 M172.992 712.444 Q168.186 712.508 165.321 715.149 Q162.456 717.759 162.456 722.088 Q162.456 726.99 165.226 729.95 Q167.995 732.878 173.024 733.323 L172.992 712.444 Z" fill="#000000" fill-rule="nonzero" fill-opacity="1" /><path clip-path="url(#clip400)" d="M158.351 668.489 L175.697 681.379 L193.999 667.82 L193.999 674.727 L179.994 685.103 L193.999 695.479 L193.999 702.386 L175.347 688.541 L158.351 701.208 L158.351 694.302 L171.05 684.849 L158.351 675.395 L158.351 668.489 Z" fill="#000000" fill-rule="nonzero" fill-opacity="1" /><path clip-path="url(#clip400)" d="M159.719 635.037 L165.194 635.037 Q163.825 637.519 163.157 640.034 Q162.456 642.517 162.456 645.063 Q162.456 650.76 166.085 653.911 Q169.682 657.062 176.206 657.062 Q182.731 657.062 186.36 653.911 Q189.956 650.76 189.956 645.063 Q189.956 642.517 189.288 640.034 Q188.588 637.519 187.219 635.037 L192.63 635.037 Q193.776 637.488 194.349 640.129 Q194.922 642.739 194.922 645.699 Q194.922 653.752 189.861 658.495 Q184.8 663.237 176.206 663.237 Q167.485 663.237 162.488 658.463 Q157.491 653.657 157.491 645.317 Q157.491 642.612 158.064 640.034 Q158.605 637.456 159.719 635.037 Z" fill="#000000" fill-rule="nonzero" fill-opacity="1" /><path clip-path="url(#clip400)" d="M174.71 594.36 L177.575 594.36 L177.575 621.287 Q183.622 620.905 186.805 617.658 Q189.956 614.38 189.956 608.556 Q189.956 605.182 189.129 602.031 Q188.301 598.848 186.646 595.729 L192.184 595.729 Q193.521 598.88 194.221 602.19 Q194.922 605.5 194.922 608.906 Q194.922 617.436 189.956 622.433 Q184.991 627.398 176.525 627.398 Q167.772 627.398 162.647 622.687 Q157.491 617.945 157.491 609.924 Q157.491 602.731 162.138 598.561 Q166.753 594.36 174.71 594.36 M172.992 600.216 Q168.186 600.28 165.321 602.922 Q162.456 605.532 162.456 609.861 Q162.456 614.762 165.226 617.722 Q167.995 620.65 173.024 621.096 L172.992 600.216 Z" fill="#000000" fill-rule="nonzero" fill-opacity="1" /><path clip-path="url(#clip400)" d="M159.401 562.022 L164.939 562.022 Q163.666 564.505 163.029 567.178 Q162.393 569.852 162.393 572.717 Q162.393 577.077 163.73 579.273 Q165.066 581.438 167.74 581.438 Q169.777 581.438 170.955 579.878 Q172.101 578.318 173.151 573.608 L173.596 571.603 Q174.933 565.364 177.384 562.754 Q179.803 560.113 184.164 560.113 Q189.129 560.113 192.025 564.059 Q194.922 567.974 194.922 574.849 Q194.922 577.714 194.349 580.833 Q193.808 583.92 192.694 587.358 L186.646 587.358 Q188.333 584.111 189.192 580.96 Q190.02 577.809 190.02 574.722 Q190.02 570.584 188.62 568.356 Q187.187 566.128 184.609 566.128 Q182.222 566.128 180.949 567.751 Q179.676 569.343 178.498 574.785 L178.021 576.822 Q176.875 582.265 174.52 584.684 Q172.132 587.103 167.995 587.103 Q162.966 587.103 160.228 583.538 Q157.491 579.974 157.491 573.417 Q157.491 570.17 157.969 567.306 Q158.446 564.441 159.401 562.022 Z" fill="#000000" fill-rule="nonzero" fill-opacity="1" /><path clip-path="url(#clip400)" d="M159.401 528.061 L164.939 528.061 Q163.666 530.544 163.029 533.217 Q162.393 535.891 162.393 538.756 Q162.393 543.116 163.73 545.312 Q165.066 547.477 167.74 547.477 Q169.777 547.477 170.955 545.917 Q172.101 544.357 173.151 539.647 L173.596 537.642 Q174.933 531.403 177.384 528.793 Q179.803 526.151 184.164 526.151 Q189.129 526.151 192.025 530.098 Q194.922 534.013 194.922 540.888 Q194.922 543.753 194.349 546.872 Q193.808 549.959 192.694 553.397 L186.646 553.397 Q188.333 550.15 189.192 546.999 Q190.02 543.848 190.02 540.761 Q190.02 536.623 188.62 534.395 Q187.187 532.167 184.609 532.167 Q182.222 532.167 180.949 533.79 Q179.676 535.382 178.498 540.824 L178.021 542.861 Q176.875 548.304 174.52 550.723 Q172.132 553.142 167.995 553.142 Q162.966 553.142 160.228 549.577 Q157.491 546.012 157.491 539.456 Q157.491 536.209 157.969 533.345 Q158.446 530.48 159.401 528.061 Z" fill="#000000" fill-rule="nonzero" fill-opacity="1" /><path clip-path="url(#clip400)" d="M144.473 496.105 L144.473 490.249 L193.999 490.249 L193.999 496.105 L144.473 496.105 Z" fill="#000000" fill-rule="nonzero" fill-opacity="1" /><path clip-path="url(#clip400)" d="M162.456 464.181 Q162.456 468.892 166.149 471.629 Q169.809 474.366 176.206 474.366 Q182.604 474.366 186.296 471.661 Q189.956 468.924 189.956 464.181 Q189.956 459.503 186.264 456.765 Q182.572 454.028 176.206 454.028 Q169.873 454.028 166.18 456.765 Q162.456 459.503 162.456 464.181 M157.491 464.181 Q157.491 456.542 162.456 452.182 Q167.422 447.821 176.206 447.821 Q184.959 447.821 189.956 452.182 Q194.922 456.542 194.922 464.181 Q194.922 471.852 189.956 476.212 Q184.959 480.541 176.206 480.541 Q167.422 480.541 162.456 476.212 Q157.491 471.852 157.491 464.181 Z" fill="#000000" fill-rule="nonzero" fill-opacity="1" /><path clip-path="url(#clip400)" d="M175.761 414.656 Q169.395 414.656 165.894 417.298 Q162.393 419.908 162.393 424.65 Q162.393 429.361 165.894 432.003 Q169.395 434.613 175.761 434.613 Q182.095 434.613 185.596 432.003 Q189.097 429.361 189.097 424.65 Q189.097 419.908 185.596 417.298 Q182.095 414.656 175.761 414.656 M189.574 408.8 Q198.677 408.8 203.102 412.842 Q207.558 416.884 207.558 425.223 Q207.558 428.311 207.08 431.048 Q206.634 433.785 205.68 436.363 L199.982 436.363 Q201.383 433.785 202.051 431.271 Q202.72 428.756 202.72 426.146 Q202.72 420.385 199.696 417.521 Q196.704 414.656 190.625 414.656 L187.728 414.656 Q190.879 416.47 192.439 419.303 Q193.999 422.136 193.999 426.083 Q193.999 432.639 189.001 436.65 Q184.004 440.66 175.761 440.66 Q167.485 440.66 162.488 436.65 Q157.491 432.639 157.491 426.083 Q157.491 422.136 159.051 419.303 Q160.61 416.47 163.761 414.656 L158.351 414.656 L158.351 408.8 L189.574 408.8 Z" fill="#000000" fill-rule="nonzero" fill-opacity="1" /><path clip-path="url(#clip400)" d="M163.825 355.36 Q163.252 356.346 162.998 357.524 Q162.711 358.67 162.711 360.07 Q162.711 365.035 165.958 367.709 Q169.172 370.351 175.22 370.351 L193.999 370.351 L193.999 376.239 L158.351 376.239 L158.351 370.351 L163.889 370.351 Q160.642 368.505 159.083 365.545 Q157.491 362.585 157.491 358.351 Q157.491 357.747 157.587 357.015 Q157.65 356.283 157.81 355.391 L163.825 355.36 Z" fill="#000000" fill-rule="nonzero" fill-opacity="1" /><path clip-path="url(#clip400)" d="M174.71 320.157 L177.575 320.157 L177.575 347.084 Q183.622 346.702 186.805 343.456 Q189.956 340.177 189.956 334.353 Q189.956 330.979 189.129 327.828 Q188.301 324.645 186.646 321.526 L192.184 321.526 Q193.521 324.677 194.221 327.987 Q194.922 331.297 194.922 334.703 Q194.922 343.233 189.956 348.23 Q184.991 353.195 176.525 353.195 Q167.772 353.195 162.647 348.485 Q157.491 343.742 157.491 335.721 Q157.491 328.528 162.138 324.359 Q166.753 320.157 174.71 320.157 M172.992 326.014 Q168.186 326.077 165.321 328.719 Q162.456 331.329 162.456 335.658 Q162.456 340.559 165.226 343.519 Q167.995 346.448 173.024 346.893 L172.992 326.014 Z" fill="#000000" fill-rule="nonzero" fill-opacity="1" /><path clip-path="url(#clip400)" d="M148.229 304.752 L158.351 304.752 L158.351 292.689 L162.902 292.689 L162.902 304.752 L182.254 304.752 Q186.614 304.752 187.856 303.575 Q189.097 302.365 189.097 298.705 L189.097 292.689 L193.999 292.689 L193.999 298.705 Q193.999 305.484 191.484 308.062 Q188.938 310.64 182.254 310.64 L162.902 310.64 L162.902 314.937 L158.351 314.937 L158.351 310.64 L148.229 310.64 L148.229 304.752 Z" fill="#000000" fill-rule="nonzero" fill-opacity="1" /><path clip-path="url(#clip400)" d="M179.93 285.591 L158.351 285.591 L158.351 279.735 L179.708 279.735 Q184.768 279.735 187.315 277.762 Q189.829 275.788 189.829 271.841 Q189.829 267.099 186.805 264.362 Q183.782 261.593 178.562 261.593 L158.351 261.593 L158.351 255.736 L193.999 255.736 L193.999 261.593 L188.524 261.593 Q191.771 263.725 193.362 266.558 Q194.922 269.359 194.922 273.083 Q194.922 279.226 191.102 282.409 Q187.283 285.591 179.93 285.591 M157.491 270.855 L157.491 270.855 Z" fill="#000000" fill-rule="nonzero" fill-opacity="1" /><path clip-path="url(#clip400)" d="M163.825 223.017 Q163.252 224.003 162.998 225.181 Q162.711 226.327 162.711 227.727 Q162.711 232.692 165.958 235.366 Q169.172 238.008 175.22 238.008 L193.999 238.008 L193.999 243.896 L158.351 243.896 L158.351 238.008 L163.889 238.008 Q160.642 236.162 159.083 233.202 Q157.491 230.242 157.491 226.008 Q157.491 225.404 157.587 224.672 Q157.65 223.94 157.81 223.048 L163.825 223.017 Z" fill="#000000" fill-rule="nonzero" fill-opacity="1" /><path clip-path="url(#clip400)" d="M172.482 188.387 L193.999 188.387 L193.999 194.244 L172.673 194.244 Q167.613 194.244 165.098 196.217 Q162.584 198.19 162.584 202.137 Q162.584 206.879 165.608 209.617 Q168.631 212.354 173.851 212.354 L193.999 212.354 L193.999 218.242 L158.351 218.242 L158.351 212.354 L163.889 212.354 Q160.674 210.253 159.083 207.421 Q157.491 204.556 157.491 200.832 Q157.491 194.689 161.311 191.538 Q165.098 188.387 172.482 188.387 Z" fill="#000000" fill-rule="nonzero" fill-opacity="1" /><path clip-path="url(#clip400)" d="M187.219 123.33 L174.456 123.33 L174.456 133.833 L169.172 133.833 L169.172 116.964 L189.574 116.964 Q192.216 120.688 193.585 125.176 Q194.922 129.663 194.922 134.756 Q194.922 145.896 188.429 152.198 Q181.904 158.468 170.286 158.468 Q158.637 158.468 152.144 152.198 Q145.619 145.896 145.619 134.756 Q145.619 130.109 146.765 125.939 Q147.911 121.738 150.139 118.205 L156.982 118.205 Q153.958 121.77 152.431 125.78 Q150.903 129.791 150.903 134.215 Q150.903 142.936 155.772 147.328 Q160.642 151.689 170.286 151.689 Q179.899 151.689 184.768 147.328 Q189.638 142.936 189.638 134.215 Q189.638 130.809 189.065 128.136 Q188.46 125.462 187.219 123.33 Z" fill="#000000" fill-rule="nonzero" fill-opacity="1" /><path clip-path="url(#clip400)" d="M168.377 104.105 L174.042 104.105 L174.042 96.4981 L176.588 96.4981 L176.588 104.105 L187.41 104.105 Q189.861 104.105 190.561 103.341 Q191.261 102.577 191.261 100.286 L191.261 96.4981 L193.999 96.4981 L193.999 100.286 Q193.999 104.551 192.566 106.174 Q191.166 107.797 187.41 107.797 L176.588 107.797 L176.588 110.503 L174.042 110.503 L174.042 107.797 L168.377 107.797 L168.377 104.105 Z" fill="#000000" fill-rule="nonzero" fill-opacity="1" /><polyline clip-path="url(#clip401)" style="stroke:#d45e00; stroke-linecap:round; stroke-linejoin:round; stroke-width:2.4; stroke-opacity:0.75; fill:none" points="586.161,557.094 593.112,466.74 600.063,514.979 607.013,503.277 613.964,554.706 620.914,521.233 627.865,581.416 634.816,611.709 641.766,486.154 648.717,440.896 655.667,472.328 662.618,539.586 669.569,495.427 676.519,541.251 683.47,532.329 690.42,516.271 697.371,515.02 704.322,646.194 711.272,533.512 718.223,419.634 725.173,548.137 732.124,545.808 739.075,465.417 746.025,530.307 752.976,503.18 759.926,523.658 766.877,688.852 773.828,499.432 780.778,468.388 787.729,544.124 794.679,634.582 801.63,559.211 808.581,353.053 815.531,497.256 822.482,573.229 829.432,563.491 836.383,550.971 843.333,510.64 850.284,484.308 857.235,519.142 864.185,637.91 871.136,509.841 878.086,464.755 885.037,551.542 891.988,611.104 898.938,463.552 905.889,523.84 912.839,580.905 919.79,633.401 926.741,484.141 933.691,534.309 940.642,473.321 947.592,455.523 954.543,566.754 961.494,574.279 968.444,554.925 975.395,526.158 982.345,502.65 989.296,563.282 996.247,622.463 1003.2,526.534 1010.15,580.41 1017.1,551.496 1024.05,523.557 1031,569.675 1037.95,613.849 1044.9,504.166 1051.85,625.223 1058.8,623.412 1065.75,627.042 1072.7,586.36 1079.65,574.789 1086.6,622.604 1093.55,508.63 1100.51,438.791 1107.46,530.078 1114.41,618.406 1121.36,424.206 1128.31,517.687 1135.26,619.473 1142.21,609.269 1149.16,532.247 1156.11,408.757 1163.06,469.828 1170.01,493.321 1176.96,558.034 1183.91,506.168 1190.86,514.032 1197.81,543.661 1204.76,524.373 1211.72,440.59 1218.67,514.489 1225.62,565.412 1232.57,520.941 1239.52,544.104 1246.47,559.425 1253.42,579.6 1260.37,530.827 1267.32,539.746 1274.27,597.078 1281.22,601.314 1288.17,544.278 1295.12,495.64 1302.07,537.976 1309.02,447.432 1315.97,514.672 1322.92,545.484 1329.88,543.493 1336.83,537.408 1343.78,429.683 1350.73,542.797 1357.68,550.601 1364.63,481.565 1371.58,506.482 1378.53,550.345 1385.48,600.761 1392.43,551.344 1399.38,553.795 1406.33,532.244 1413.28,529.081 1420.23,545.221 1427.18,567.16 1434.13,510.456 1441.08,486.234 1448.04,489.646 1454.99,519.121 1461.94,530.877 1468.89,489.53 1475.84,569.614 1482.79,507.451 1489.74,521.265 1496.69,517.384 1503.64,634.92 1510.59,622.741 1517.54,616.174 1524.49,490.72 1531.44,525.557 1538.39,726.161 1545.34,603.277 1552.29,505.666 1559.24,523.634 1566.2,595.093 1573.15,417.872 1580.1,631.71 1587.05,776.763 1594,807.623 1600.95,445.184 1607.9,548.669 1614.85,468.456 1621.8,476.231 1628.75,519.737 1635.7,440.448 1642.65,476.49 1649.6,402.807 1656.55,507.123 1663.5,480.793 1670.45,517.976 1677.41,526.3 1684.36,584.219 1691.31,499.531 1698.26,539.711 1705.21,550.727 1712.16,591.494 1719.11,517.261 1726.06,523.198 1733.01,657.995 1739.96,611.63 1746.91,576.623 1753.86,673.067 1760.81,504.595 1767.76,511.217 1774.71,520.744 1781.66,401.696 1788.61,467.563 1795.57,541.871 1802.52,518.867 1809.47,546.446 1816.42,442.36 1823.37,579.885 1830.32,519.845 1837.27,531.396 1844.22,544.604 1851.17,519.361 1858.12,544.162 1865.07,549.956 1872.02,601.357 1878.97,554.504 1885.92,565.551 1892.87,484.538 1899.82,577.208 1906.77,505.747 1913.73,477.314 1920.68,544.925 1927.63,497.926 1934.58,476.332 1941.53,575.188 1948.48,552.279 1955.43,510.458 1962.38,532.805 1969.33,567.999 1976.28,551.72 1983.23,617.083 1990.18,539.891 1997.13,519.191 2004.08,536.218 2011.03,547.801 2017.98,552.199 2024.93,706.36 2031.89,533.274 2038.84,581.664 2045.79,474.597 2052.74,313.636 2059.69,447.6 2066.64,497.924 2073.59,530.913 2080.54,570.792 2087.49,544.408 2094.44,590.019 2101.39,667.327 2108.34,543.359 2115.29,530.673 2122.24,552.251 2129.19,482.096 2136.14,504.747 2143.1,501.433 2150.05,512.963 2157,560.597 2163.95,503.509 2170.9,520.781 2177.85,545.034 2184.8,501.06 2191.75,533.218 2198.7,540.032 2205.65,579.781 2212.6,577.72 2219.55,493.423 2226.5,571.027 2233.45,566.53 2240.4,510.755 2247.35,584.702 2254.3,692.878 2261.26,664.66 2268.21,536.543 2275.16,483.527 2282.11,441.836 2289.06,516.837 2296.01,652.093 2302.96,642.203 2309.91,582.716 2316.86,488.451 2323.81,451.108 2330.76,633.274 2337.71,588.789 2344.66,653.214 2351.61,594.862 2358.56,501.192 2365.51,389.293 2372.46,530.028 2379.42,464.448 2386.37,483.667 2393.32,466.301 2400.27,522.424 2407.22,539.457 2414.17,705.579 2421.12,481.703 2428.07,557.624 2435.02,515.35 2441.97,539.702 2448.92,671.998 2455.87,485.591 2462.82,518.796 2469.77,499.626 2476.72,586.244 2483.67,525.588 2490.62,542.056 2497.58,589.206 2504.53,458.742 2511.48,506.202 2518.43,544.681 2525.38,524.019 2532.33,582.444 2539.28,639.397 2546.23,622.293 2553.18,627.639 2560.13,522.682 2567.08,632.62 2574.03,581.875 2580.98,552.351 2587.93,708.142 2594.88,521.642 2601.83,636.807 2608.79,580.752 2615.74,702.358 2622.69,648.617 2629.64,515.378 2636.59,650.812 2643.54,439.778 2650.49,435.512 2657.44,627.248 2664.39,469.664 2671.34,541.057 2678.29,620.324 2685.24,360.624 2692.19,514.344 2699.14,621.631 2706.09,588.503 2713.04,717.99 2719.99,588.389 2726.95,491.383 2733.9,515.839 2740.85,858.16 2747.8,1066.94 2754.75,811.178 2761.7,432.956 2768.65,269.056 2775.6,498.312 2782.55,455.439 2789.5,362.923 2796.45,552.961 2803.4,753.025 2810.35,554.057 2817.3,800.71 2824.25,340.31 2831.2,300.792 2838.15,459.56 2845.11,459.239 2852.06,522.809 2859.01,492.002 2865.96,579.456 2872.91,389.032 2879.86,446.031 2886.81,573.599 2893.76,622.094 2900.71,545.414 2907.66,442.626 2914.61,571.5 2921.56,293.516 2928.51,427.813 2935.46,539.362 2942.41,526.761 2949.36,484.783 2956.31,534.696 2963.27,557.324 2970.22,638.458 2977.17,598.585 2984.12,632.48 2991.07,384.935 2998.02,527.206 3004.97,548.539 3011.92,571.522 3018.87,518.264 3025.82,463.874 3032.77,518.076 3039.72,575.223 3046.67,483.13 3053.62,532.322 3060.57,519.215 3067.52,535.456 3074.47,546.577 3081.43,613.722 3088.38,482.4 3095.33,600.518 3102.28,554.357 3109.23,598.62 3116.18,520.136 3123.13,405.706 3130.08,528.186 3137.03,493.678 3143.98,491.724 3150.93,498.571 3157.88,540.444 3164.83,520.784 3171.78,460.893 3178.73,605.901 3185.68,550.568 3192.64,512.16 3199.59,510.15 3206.54,570.147 3213.49,545.366 3220.44,541.344 3227.39,580.233 3234.34,475.614 3241.29,532.037 3248.24,513.912 3255.19,572.648 3262.14,490.288 3269.09,501.263 3276.04,525.601 3282.99,540.383 3289.94,558.534 3296.89,567.022 3303.84,542.519 3310.8,743.477 3317.75,442.274 3324.7,548.269 3331.65,513.305 3338.6,530.511 3345.55,490.116 3352.5,536.873 3359.45,489.099 3366.4,492.753 3373.35,546.212 3380.3,548.892 3387.25,562.417 3394.2,583.211 3401.15,607.985 3408.1,560.047 3415.05,423.853 3422,548.347 3428.96,552.716 3435.91,508.569 3442.86,524.125 3449.81,588.038 3456.76,643.024 3463.71,490.834 3470.66,483.136 3477.61,539.822 3484.56,527.972 3491.51,532.236 3498.46,499.714 3505.41,488.397 3512.36,527.952 3519.31,513.125 3526.26,546.852 3533.21,565.263 3540.16,493.903 3547.12,546.809 3554.07,505.805 3561.02,562.773 3567.97,587.431 3574.92,607.494 3581.87,502.715 3588.82,506.051 3595.77,533.722 3602.72,509.577 3609.67,518.889 3616.62,525.338 3623.57,534.208 3630.52,570.132 3637.47,511.54 3644.42,562.729 3651.37,687.413 3658.33,536.248 3665.28,563.869 3672.23,487.823 3679.18,583.949 3686.13,556.655 3693.08,424.398 3700.03,527.876 3706.98,602.354 3713.93,505.691 3720.88,459.188 3727.83,449.19 3734.78,503.829 3741.73,541.67 3748.68,607.346 3755.63,553.269 3762.58,541.299 3769.53,634.577 3776.49,530.344 3783.44,628.248 3790.39,630.014 3797.34,367.372 3804.29,510.095 3811.24,527.274 3818.19,667.512 3825.14,596.618 3832.09,598.735 3839.04,641.752 3845.99,527.993 3852.94,573.241 3859.89,597.818 3866.84,396.662 3873.79,492.737 3880.74,422.905 3887.69,515.068 3894.65,571.663 3901.6,528.56 3908.55,525.016 3915.5,545.913 3922.45,512.286 3929.4,583.563 3936.35,542.844 3943.3,523.241 3950.25,524.164 3957.2,610.358 3964.15,566.154 3971.1,587.954 3978.05,613.64 3985,489.336 3991.95,514.415 3998.9,484.889 4005.85,510.928 4012.81,507.502 4019.76,540.116 4026.71,585.223 4033.66,549.662 4040.61,597.224 4047.56,558.966 4054.51,478.941 4061.46,507.12 4068.41,536.962 4075.36,578.556 4082.31,486.408 4089.26,534.694 4096.21,563.811 4103.16,613.955 4110.11,478.475 4117.06,563.631 4124.02,727.268 4130.97,490.095 4137.92,466.188 4144.87,547.753 4151.82,495.147 4158.77,509.756 4165.72,545.35 4172.67,616.321 4179.62,540.322 4186.57,491.529 4193.52,635.058 4200.47,583.135 4207.42,652.941 4214.37,416.636 4221.32,465.935 4228.27,552.563 4235.22,561.774 4242.18,650.989 4249.13,582.516 4256.08,569.136 4263.03,471.292 4269.98,589.083 4276.93,492.368 4283.88,619.479 4290.83,491.155 4297.78,461.91 4304.73,607.361 4311.68,596.085 4318.63,535.537 4325.58,675.209 4332.53,420.017 4339.48,625.608 4346.43,643.166 4353.38,585.485 4360.34,425.523 4367.29,594.576 4374.24,655.348 4381.19,601.685 4388.14,477.848 4395.09,513.232 4402.04,644.25 4408.99,644.957 4415.94,678.89 4422.89,419.959 4429.84,607.789 4436.79,497.553 4443.74,673.61 4450.69,724.08 4457.64,593.531 4464.59,366.101 4471.54,401.907 4478.5,592.313 4485.45,470.666 4492.4,579.423 4499.35,268.602 4506.3,499.039 4513.25,523.187 4520.2,506.32 4527.15,409.441 4534.1,469.296 4541.05,507.66 4548,423.612 4554.95,570.853 "/>
<polyline clip-path="url(#clip401)" style="stroke:#0071b1; stroke-linecap:round; stroke-linejoin:round; stroke-width:2.4; stroke-opacity:0.55; fill:none" points="586.161,552.844 593.112,557.867 600.063,529.739 607.013,545.309 613.964,502.521 620.914,498.128 627.865,422.853 634.816,566.873 641.766,490.185 648.717,552.854 655.667,500.997 662.618,548.742 669.569,616.269 676.519,477.682 683.47,710.413 690.42,620.875 697.371,463.59 704.322,520.745 711.272,656.166 718.223,524.286 725.173,490.789 732.124,492.627 739.075,492.753 746.025,538.754 752.976,545.643 759.926,571.575 766.877,507.032 773.828,578.832 780.778,567.845 787.729,657.654 794.679,584.773 801.63,536.719 808.581,568.09 815.531,593.527 822.482,601.411 829.432,543.401 836.383,511.945 843.333,506.79 850.284,522.534 857.235,508.948 864.185,512.587 871.136,578.588 878.086,568.299 885.037,573.738 891.988,511.711 898.938,446.224 905.889,532.449 912.839,553.69 919.79,535.998 926.741,526.501 933.691,482.194 940.642,557.332 947.592,535.913 954.543,634.123 961.494,654.273 968.444,524.818 975.395,540.5 982.345,565.409 989.296,507.685 996.247,455.554 1003.2,611.713 1010.15,692.06 1017.1,555.909 1024.05,533.006 1031,569.181 1037.95,694.587 1044.9,651.106 1051.85,600.047 1058.8,534.333 1065.75,613.811 1072.7,621.048 1079.65,553.697 1086.6,575.907 1093.55,567.97 1100.51,525.818 1107.46,517.697 1114.41,617.02 1121.36,581.889 1128.31,691.816 1135.26,640.161 1142.21,606.873 1149.16,450.794 1156.11,603.906 1163.06,630.957 1170.01,495.06 1176.96,636.833 1183.91,220.003 1190.86,351.748 1197.81,313.245 1204.76,694.187 1211.72,578.925 1218.67,324.828 1225.62,578.42 1232.57,436.436 1239.52,661.247 1246.47,515.768 1253.42,607.081 1260.37,554.91 1267.32,649.235 1274.27,350.89 1281.22,511.503 1288.17,449.308 1295.12,525.638 1302.07,560.454 1309.02,631.857 1315.97,618.821 1322.92,421.757 1329.88,607.344 1336.83,472.536 1343.78,504.33 1350.73,545.668 1357.68,387.985 1364.63,483.898 1371.58,440.318 1378.53,455.456 1385.48,498.949 1392.43,474.556 1399.38,532.791 1406.33,504.592 1413.28,521.557 1420.23,529.974 1427.18,693.282 1434.13,603.72 1441.08,478.596 1448.04,511.812 1454.99,544.826 1461.94,501.844 1468.89,505.63 1475.84,588.902 1482.79,519.226 1489.74,576.053 1496.69,445.981 1503.64,533.561 1510.59,519.738 1517.54,561.253 1524.49,532.572 1531.44,482.543 1538.39,509.376 1545.34,589.337 1552.29,556.36 1559.24,496.875 1566.2,513.037 1573.15,597.048 1580.1,555.26 1587.05,534.959 1594,504.25 1600.95,519.736 1607.9,537.291 1614.85,539.406 1621.8,552.013 1628.75,578.019 1635.7,558.452 1642.65,508.117 1649.6,448.532 1656.55,507.752 1663.5,532.644 1670.45,543.173 1677.41,525.402 1684.36,452.759 1691.31,598.656 1698.26,509.488 1705.21,546.31 1712.16,550.936 1719.11,625.328 1726.06,583.097 1733.01,610.451 1739.96,523.54 1746.91,443.161 1753.86,582.574 1760.81,586.012 1767.76,531.727 1774.71,541.871 1781.66,541.846 1788.61,500.987 1795.57,437.555 1802.52,465.685 1809.47,508.269 1816.42,515.554 1823.37,536.466 1830.32,532.029 1837.27,611.831 1844.22,571.574 1851.17,550.819 1858.12,612.434 1865.07,511.338 1872.02,551.752 1878.97,490.242 1885.92,491.723 1892.87,494.344 1899.82,541.605 1906.77,547.398 1913.73,583.008 1920.68,546.491 1927.63,583.153 1934.58,489.885 1941.53,504.884 1948.48,543.248 1955.43,495.271 1962.38,534.716 1969.33,573.575 1976.28,592.104 1983.23,552.582 1990.18,540.367 1997.13,511.541 2004.08,495.705 2011.03,515.773 2017.98,554.863 2024.93,570.087 2031.89,571.405 2038.84,690.296 2045.79,572.67 2052.74,506.989 2059.69,550.076 2066.64,613.599 2073.59,409.53 2080.54,467.046 2087.49,484.604 2094.44,490.099 2101.39,500.836 2108.34,527.567 2115.29,512.629 2122.24,464.991 2129.19,512.276 2136.14,455.52 2143.1,498.285 2150.05,401.402 2157,511.984 2163.95,598.93 2170.9,531.656 2177.85,561.011 2184.8,497.094 2191.75,571.611 2198.7,580.219 2205.65,520.891 2212.6,584.262 2219.55,547.87 2226.5,578.632 2233.45,495.103 2240.4,574.131 2247.35,596.591 2254.3,559.105 2261.26,533.103 2268.21,470.51 2275.16,525.163 2282.11,500.531 2289.06,496.185 2296.01,494.073 2302.96,547.486 2309.91,598.006 2316.86,571.561 2323.81,602.229 2330.76,629.506 2337.71,653.527 2344.66,522.553 2351.61,527.424 2358.56,243.456 2365.51,605.081 2372.46,683.255 2379.42,606.967 2386.37,445.052 2393.32,153.391 2400.27,676.151 2407.22,594.774 2414.17,659.59 2421.12,556.499 2428.07,570.533 2435.02,494.444 2441.97,552.618 2448.92,511.918 2455.87,555.574 2462.82,367.477 2469.77,542.272 2476.72,838.718 2483.67,634.296 2490.62,413.249 2497.58,565.69 2504.53,446.746 2511.48,500.451 2518.43,525.531 2525.38,513.371 2532.33,437.773 2539.28,519.571 2546.23,566.634 2553.18,571.536 2560.13,634.596 2567.08,556.717 2574.03,545.954 2580.98,588.812 2587.93,572.866 2594.88,480.526 2601.83,506.386 2608.79,510.72 2615.74,542.715 2622.69,509.023 2629.64,587.027 2636.59,495.117 2643.54,521.934 2650.49,523.67 2657.44,546.667 2664.39,554.621 2671.34,518.91 2678.29,599.163 2685.24,576.518 2692.19,552.581 2699.14,549.744 2706.09,541.887 2713.04,503.607 2719.99,476.416 2726.95,546.178 2733.9,552.109 2740.85,552.112 2747.8,516.054 2754.75,532.772 2761.7,479.389 2768.65,521.933 2775.6,559.829 2782.55,539.531 2789.5,549.567 2796.45,509.718 2803.4,509.399 2810.35,612.933 2817.3,529.265 2824.25,582.507 2831.2,528.133 2838.15,1013.25 2845.11,694.483 2852.06,666.477 2859.01,459.021 2865.96,815.643 2872.91,458.648 2879.86,433.246 2886.81,701.183 2893.76,1055.98 2900.71,878.446 2907.66,602.95 2914.61,836.271 2921.56,250.587 2928.51,747.865 2935.46,609.249 2942.41,510.892 2949.36,729.997 2956.31,652.959 2963.27,728.85 2970.22,543.702 2977.17,784.438 2984.12,546.536 2991.07,1000.42 2998.02,873.471 3004.97,412.158 3011.92,773.122 3018.87,421.703 3025.82,386.802 3032.77,487.924 3039.72,274.594 3046.67,846.091 3053.62,547.492 3060.57,455.688 3067.52,670.224 3074.47,952.061 3081.43,344.524 3088.38,798.598 3095.33,612.606 3102.28,417.109 3109.23,553.643 3116.18,593.313 3123.13,549.452 3130.08,734.556 3137.03,384.664 3143.98,466.598 3150.93,532.331 3157.88,533.02 3164.83,530.658 3171.78,644.676 3178.73,587.509 3185.68,549.6 3192.64,525.79 3199.59,540.781 3206.54,574.885 3213.49,554.845 3220.44,561.869 3227.39,531.447 3234.34,540.894 3241.29,549.623 3248.24,517.13 3255.19,558.836 3262.14,568.571 3269.09,499.172 3276.04,527.174 3282.99,575.14 3289.94,514.557 3296.89,508.346 3303.84,524.75 3310.8,534.116 3317.75,552.928 3324.7,506.002 3331.65,498.137 3338.6,560.764 3345.55,523.424 3352.5,564.305 3359.45,554.644 3366.4,543.455 3373.35,568.618 3380.3,574.672 3387.25,598.694 3394.2,525.843 3401.15,620.195 3408.1,580.767 3415.05,510.788 3422,507.858 3428.96,541.115 3435.91,506.88 3442.86,607.898 3449.81,647.096 3456.76,525.033 3463.71,560.233 3470.66,555.334 3477.61,532.352 3484.56,465.402 3491.51,558.205 3498.46,529.952 3505.41,532.882 3512.36,522.607 3519.31,528.467 3526.26,553.897 3533.21,534.162 3540.16,488.467 3547.12,507.905 3554.07,502.894 3561.02,460.365 3567.97,476.483 3574.92,530.518 3581.87,524.303 3588.82,528.619 3595.77,612.383 3602.72,578.885 3609.67,505.239 3616.62,506.199 3623.57,550.045 3630.52,556.093 3637.47,577.032 3644.42,571.825 3651.37,595.568 3658.33,610.178 3665.28,507.777 3672.23,534.031 3679.18,530.565 3686.13,557.743 3693.08,413.272 3700.03,541.298 3706.98,585.897 3713.93,452.009 3720.88,490.799 3727.83,570.248 3734.78,429.624 3741.73,501.561 3748.68,568.613 3755.63,501.852 3762.58,432.521 3769.53,543.14 3776.49,585.519 3783.44,534.787 3790.39,521.891 3797.34,515.504 3804.29,656.456 3811.24,500.786 3818.19,529.444 3825.14,544.859 3832.09,525.637 3839.04,490.653 3845.99,563.331 3852.94,531.211 3859.89,419.082 3866.84,519.177 3873.79,580.075 3880.74,491.341 3887.69,544.446 3894.65,459.887 3901.6,552.591 3908.55,533.01 3915.5,543.854 3922.45,533.635 3929.4,569.872 3936.35,552.915 3943.3,498.624 3950.25,518.488 3957.2,592.005 3964.15,554.854 3971.1,534.606 3978.05,502.567 3985,554.727 3991.95,632.805 3998.9,581.242 4005.85,534.528 4012.81,551.089 4019.76,578.806 4026.71,497.292 4033.66,567.378 4040.61,654.915 4047.56,579.421 4054.51,463.716 4061.46,541.81 4068.41,652.752 4075.36,410.432 4082.31,647.538 4089.26,376.075 4096.21,648.93 4103.16,281.445 4110.11,632.01 4117.06,341.262 4124.02,476.29 4130.97,673.29 4137.92,443.446 4144.87,632.912 4151.82,608.504 4158.77,359.218 4165.72,936.577 4172.67,378.06 4179.62,802.731 4186.57,483.879 4193.52,457.288 4200.47,815.662 4207.42,421.901 4214.37,479.062 4221.32,647.407 4228.27,807.923 4235.22,579.779 4242.18,632.132 4249.13,456.205 4256.08,738.495 4263.03,582.615 4269.98,373.516 4276.93,1028.55 4283.88,501.295 4290.83,559.828 4297.78,658.005 4304.73,827.474 4311.68,711.781 4318.63,605.874 4325.58,649.049 4332.53,314.256 4339.48,488.248 4346.43,583.981 4353.38,515.463 4360.34,524.76 4367.29,539.102 4374.24,516.144 4381.19,613.079 4388.14,530.666 4395.09,760.73 4402.04,492.935 4408.99,525.937 4415.94,402.464 4422.89,565.835 4429.84,491.933 4436.79,489.715 4443.74,463.319 4450.69,626.97 4457.64,701.703 4464.59,553.074 4471.54,662.245 4478.5,363.015 4485.45,632.293 4492.4,485.212 4499.35,544.041 4506.3,559.808 4513.25,456.148 4520.2,525.34 4527.15,514.376 4534.1,485.612 4541.05,483.826 4548,560.309 4554.95,496.545 "/>
<path clip-path="url(#clip400)" d="M607.328 1062.06 L1715.13 1062.06 L1715.13 887.103 L607.328 887.103  Z" fill="#ffffff" fill-rule="evenodd" fill-opacity="1"/>
<polyline clip-path="url(#clip400)" style="stroke:#000000; stroke-linecap:round; stroke-linejoin:round; stroke-width:4; stroke-opacity:1; fill:none" points="607.328,1062.06 1715.13,1062.06 1715.13,887.103 607.328,887.103 607.328,1062.06 "/>
<polyline clip-path="url(#clip400)" style="stroke:#d45e00; stroke-linecap:round; stroke-linejoin:round; stroke-width:2.7; stroke-opacity:0.75; fill:none" points="654.072,945.423 934.533,945.423 "/>
<path clip-path="url(#clip400)" d="M999.297 929.551 Q993.568 929.551 990.183 933.821 Q986.823 938.092 986.823 945.462 Q986.823 952.806 990.183 957.077 Q993.568 961.347 999.297 961.347 Q1005.03 961.347 1008.36 957.077 Q1011.72 952.806 1011.72 945.462 Q1011.72 938.092 1008.36 933.821 Q1005.03 929.551 999.297 929.551 M999.297 925.28 Q1007.47 925.28 1012.37 930.775 Q1017.27 936.243 1017.27 945.462 Q1017.27 954.655 1012.37 960.149 Q1007.47 965.618 999.297 965.618 Q991.094 965.618 986.172 960.149 Q981.277 954.681 981.277 945.462 Q981.277 936.243 986.172 930.775 Q991.094 925.28 999.297 925.28 Z" fill="#000000" fill-rule="nonzero" fill-opacity="1" /><path clip-path="url(#clip400)" d="M1046.22 950.306 Q1046.22 945.019 1044.04 942.025 Q1041.88 939.004 1038.07 939.004 Q1034.27 939.004 1032.08 942.025 Q1029.92 945.019 1029.92 950.306 Q1029.92 955.592 1032.08 958.613 Q1034.27 961.608 1038.07 961.608 Q1041.88 961.608 1044.04 958.613 Q1046.22 955.592 1046.22 950.306 M1029.92 940.123 Q1031.43 937.519 1033.72 936.269 Q1036.04 934.993 1039.25 934.993 Q1044.56 934.993 1047.86 939.212 Q1051.2 943.431 1051.2 950.306 Q1051.2 957.181 1047.86 961.399 Q1044.56 965.618 1039.25 965.618 Q1036.04 965.618 1033.72 964.368 Q1031.43 963.092 1029.92 960.488 L1029.92 964.863 L1025.1 964.863 L1025.1 924.342 L1029.92 924.342 L1029.92 940.123 Z" fill="#000000" fill-rule="nonzero" fill-opacity="1" /><path clip-path="url(#clip400)" d="M1077.73 936.556 L1077.73 941.087 Q1075.7 940.045 1073.52 939.525 Q1071.33 939.004 1068.98 939.004 Q1065.42 939.004 1063.62 940.097 Q1061.85 941.191 1061.85 943.379 Q1061.85 945.045 1063.13 946.009 Q1064.4 946.946 1068.26 947.806 L1069.9 948.17 Q1075 949.264 1077.14 951.269 Q1079.3 953.248 1079.3 956.816 Q1079.3 960.879 1076.07 963.248 Q1072.86 965.618 1067.24 965.618 Q1064.9 965.618 1062.34 965.149 Q1059.82 964.707 1057.01 963.795 L1057.01 958.847 Q1059.66 960.228 1062.24 960.931 Q1064.82 961.608 1067.34 961.608 Q1070.73 961.608 1072.55 960.462 Q1074.38 959.29 1074.38 957.181 Q1074.38 955.228 1073.05 954.186 Q1071.74 953.144 1067.29 952.181 L1065.63 951.79 Q1061.17 950.853 1059.19 948.926 Q1057.21 946.972 1057.21 943.587 Q1057.21 939.472 1060.13 937.233 Q1063.05 934.993 1068.41 934.993 Q1071.07 934.993 1073.41 935.384 Q1075.76 935.775 1077.73 936.556 Z" fill="#000000" fill-rule="nonzero" fill-opacity="1" /><path clip-path="url(#clip400)" d="M1111.87 949.082 L1111.87 951.425 L1089.84 951.425 Q1090.16 956.373 1092.81 958.978 Q1095.49 961.556 1100.26 961.556 Q1103.02 961.556 1105.6 960.879 Q1108.2 960.201 1110.76 958.847 L1110.76 963.379 Q1108.18 964.472 1105.47 965.045 Q1102.76 965.618 1099.97 965.618 Q1092.99 965.618 1088.91 961.556 Q1084.84 957.493 1084.84 950.566 Q1084.84 943.405 1088.7 939.212 Q1092.58 934.993 1099.14 934.993 Q1105.03 934.993 1108.44 938.795 Q1111.87 942.571 1111.87 949.082 M1107.08 947.676 Q1107.03 943.743 1104.87 941.4 Q1102.73 939.056 1099.19 939.056 Q1095.18 939.056 1092.76 941.321 Q1090.36 943.587 1090 947.702 L1107.08 947.676 Z" fill="#000000" fill-rule="nonzero" fill-opacity="1" /><path clip-path="url(#clip400)" d="M1136.64 940.176 Q1135.83 939.707 1134.87 939.498 Q1133.93 939.264 1132.79 939.264 Q1128.72 939.264 1126.54 941.92 Q1124.37 944.551 1124.37 949.498 L1124.37 964.863 L1119.56 964.863 L1119.56 935.696 L1124.37 935.696 L1124.37 940.228 Q1125.89 937.571 1128.31 936.295 Q1130.73 934.993 1134.19 934.993 Q1134.69 934.993 1135.29 935.071 Q1135.89 935.123 1136.61 935.254 L1136.64 940.176 Z" fill="#000000" fill-rule="nonzero" fill-opacity="1" /><path clip-path="url(#clip400)" d="M1138.23 935.696 L1143.31 935.696 L1152.42 960.175 L1161.54 935.696 L1166.61 935.696 L1155.68 964.863 L1149.17 964.863 L1138.23 935.696 Z" fill="#000000" fill-rule="nonzero" fill-opacity="1" /><path clip-path="url(#clip400)" d="M1198.18 949.082 L1198.18 951.425 L1176.15 951.425 Q1176.46 956.373 1179.11 958.978 Q1181.8 961.556 1186.56 961.556 Q1189.32 961.556 1191.9 960.879 Q1194.5 960.201 1197.06 958.847 L1197.06 963.379 Q1194.48 964.472 1191.77 965.045 Q1189.06 965.618 1186.28 965.618 Q1179.3 965.618 1175.21 961.556 Q1171.15 957.493 1171.15 950.566 Q1171.15 943.405 1175 939.212 Q1178.88 934.993 1185.44 934.993 Q1191.33 934.993 1194.74 938.795 Q1198.18 942.571 1198.18 949.082 M1193.38 947.676 Q1193.33 943.743 1191.17 941.4 Q1189.04 939.056 1185.49 939.056 Q1181.48 939.056 1179.06 941.321 Q1176.67 943.587 1176.3 947.702 L1193.38 947.676 Z" fill="#000000" fill-rule="nonzero" fill-opacity="1" /><path clip-path="url(#clip400)" d="M1225.23 940.123 L1225.23 924.342 L1230.03 924.342 L1230.03 964.863 L1225.23 964.863 L1225.23 960.488 Q1223.72 963.092 1221.41 964.368 Q1219.11 965.618 1215.88 965.618 Q1210.6 965.618 1207.26 961.399 Q1203.96 957.181 1203.96 950.306 Q1203.96 943.431 1207.26 939.212 Q1210.6 934.993 1215.88 934.993 Q1219.11 934.993 1221.41 936.269 Q1223.72 937.519 1225.23 940.123 M1208.91 950.306 Q1208.91 955.592 1211.07 958.613 Q1213.25 961.608 1217.06 961.608 Q1220.86 961.608 1223.05 958.613 Q1225.23 955.592 1225.23 950.306 Q1225.23 945.019 1223.05 942.025 Q1220.86 939.004 1217.06 939.004 Q1213.25 939.004 1211.07 942.025 Q1208.91 945.019 1208.91 950.306 Z" fill="#000000" fill-rule="nonzero" fill-opacity="1" /><path clip-path="url(#clip400)" d="M1272.84 929.551 Q1267.11 929.551 1263.72 933.821 Q1260.36 938.092 1260.36 945.462 Q1260.36 952.806 1263.72 957.077 Q1267.11 961.347 1272.84 961.347 Q1278.57 961.347 1281.9 957.077 Q1285.26 952.806 1285.26 945.462 Q1285.26 938.092 1281.9 933.821 Q1278.57 929.551 1272.84 929.551 M1272.84 925.28 Q1281.01 925.28 1285.91 930.775 Q1290.81 936.243 1290.81 945.462 Q1290.81 954.655 1285.91 960.149 Q1281.01 965.618 1272.84 965.618 Q1264.63 965.618 1259.71 960.149 Q1254.82 954.681 1254.82 945.462 Q1254.82 936.243 1259.71 930.775 Q1264.63 925.28 1272.84 925.28 Z" fill="#000000" fill-rule="nonzero" fill-opacity="1" /><path clip-path="url(#clip400)" d="M1310.13 939.056 Q1306.27 939.056 1304.04 942.077 Q1301.8 945.071 1301.8 950.306 Q1301.8 955.54 1304.01 958.561 Q1306.25 961.556 1310.13 961.556 Q1313.96 961.556 1316.2 958.535 Q1318.44 955.514 1318.44 950.306 Q1318.44 945.123 1316.2 942.103 Q1313.96 939.056 1310.13 939.056 M1310.13 934.993 Q1316.38 934.993 1319.95 939.056 Q1323.51 943.118 1323.51 950.306 Q1323.51 957.467 1319.95 961.556 Q1316.38 965.618 1310.13 965.618 Q1303.85 965.618 1300.29 961.556 Q1296.74 957.467 1296.74 950.306 Q1296.74 943.118 1300.29 939.056 Q1303.85 934.993 1310.13 934.993 Z" fill="#000000" fill-rule="nonzero" fill-opacity="1" /><path clip-path="url(#clip400)" d="M1354.97 927.259 L1354.97 932.389 Q1351.98 930.957 1349.32 930.254 Q1346.67 929.551 1344.19 929.551 Q1339.89 929.551 1337.55 931.217 Q1335.23 932.884 1335.23 935.957 Q1335.23 938.535 1336.77 939.863 Q1338.33 941.165 1342.65 941.972 L1345.83 942.623 Q1351.72 943.743 1354.5 946.582 Q1357.32 949.394 1357.32 954.134 Q1357.32 959.785 1353.51 962.701 Q1349.74 965.618 1342.42 965.618 Q1339.66 965.618 1336.54 964.993 Q1333.44 964.368 1330.1 963.144 L1330.1 957.728 Q1333.31 959.524 1336.38 960.436 Q1339.45 961.347 1342.42 961.347 Q1346.93 961.347 1349.37 959.576 Q1351.82 957.806 1351.82 954.524 Q1351.82 951.66 1350.05 950.045 Q1348.31 948.431 1344.3 947.623 L1341.09 946.998 Q1335.21 945.827 1332.58 943.327 Q1329.95 940.827 1329.95 936.373 Q1329.95 931.217 1333.57 928.249 Q1337.21 925.28 1343.59 925.28 Q1346.33 925.28 1349.17 925.775 Q1352 926.269 1354.97 927.259 Z" fill="#000000" fill-rule="nonzero" fill-opacity="1" /><polyline clip-path="url(#clip400)" style="stroke:#0071b1; stroke-linecap:round; stroke-linejoin:round; stroke-width:2.7; stroke-opacity:0.55; fill:none" points="654.072,1003.74 934.533,1003.74 "/>
<path clip-path="url(#clip400)" d="M1012.63 987.298 L1012.63 992.845 Q1009.97 990.371 1006.95 989.147 Q1003.96 987.923 1000.57 987.923 Q993.907 987.923 990.365 992.011 Q986.823 996.074 986.823 1003.78 Q986.823 1011.46 990.365 1015.55 Q993.907 1019.62 1000.57 1019.62 Q1003.96 1019.62 1006.95 1018.39 Q1009.97 1017.17 1012.63 1014.69 L1012.63 1020.19 Q1009.87 1022.06 1006.77 1023 Q1003.7 1023.94 1000.26 1023.94 Q991.433 1023.94 986.355 1018.55 Q981.277 1013.13 981.277 1003.78 Q981.277 994.407 986.355 989.016 Q991.433 983.6 1000.26 983.6 Q1003.75 983.6 1006.82 984.537 Q1009.92 985.449 1012.63 987.298 Z" fill="#000000" fill-rule="nonzero" fill-opacity="1" /><path clip-path="url(#clip400)" d="M1020.76 984.303 L1026.02 984.303 L1026.02 1000.24 L1045.13 1000.24 L1045.13 984.303 L1050.39 984.303 L1050.39 1023.18 L1045.13 1023.18 L1045.13 1004.67 L1026.02 1004.67 L1026.02 1023.18 L1020.76 1023.18 L1020.76 984.303 Z" fill="#000000" fill-rule="nonzero" fill-opacity="1" /><path clip-path="url(#clip400)" d="M1060.86 984.303 L1068.7 984.303 L1078.62 1010.76 L1088.59 984.303 L1096.43 984.303 L1096.43 1023.18 L1091.3 1023.18 L1091.3 989.042 L1081.28 1015.71 L1075.99 1015.71 L1065.96 989.042 L1065.96 1023.18 L1060.86 1023.18 L1060.86 984.303 Z" fill="#000000" fill-rule="nonzero" fill-opacity="1" /><path clip-path="url(#clip400)" d="M1106.87 984.303 L1114.71 984.303 L1124.64 1010.76 L1134.61 984.303 L1142.45 984.303 L1142.45 1023.18 L1137.32 1023.18 L1137.32 989.042 L1127.29 1015.71 L1122 1015.71 L1111.98 989.042 L1111.98 1023.18 L1106.87 1023.18 L1106.87 984.303 Z" fill="#000000" fill-rule="nonzero" fill-opacity="1" /><path clip-path="url(#clip400)" d="M1150.26 1006.44 L1164.3 1006.44 L1164.3 1010.71 L1150.26 1010.71 L1150.26 1006.44 Z" fill="#000000" fill-rule="nonzero" fill-opacity="1" /><path clip-path="url(#clip400)" d="M1172.13 984.303 L1179.22 984.303 L1196.46 1016.83 L1196.46 984.303 L1201.56 984.303 L1201.56 1023.18 L1194.48 1023.18 L1177.24 990.657 L1177.24 1023.18 L1172.13 1023.18 L1172.13 984.303 Z" fill="#000000" fill-rule="nonzero" fill-opacity="1" /><path clip-path="url(#clip400)" d="M1240.29 982.714 Q1236.8 988.704 1235.1 994.563 Q1233.41 1000.42 1233.41 1006.44 Q1233.41 1012.45 1235.1 1018.37 Q1236.82 1024.25 1240.29 1030.21 L1236.12 1030.21 Q1232.21 1024.09 1230.26 1018.18 Q1228.33 1012.27 1228.33 1006.44 Q1228.33 1000.63 1230.26 994.746 Q1232.19 988.86 1236.12 982.714 L1240.29 982.714 Z" fill="#000000" fill-rule="nonzero" fill-opacity="1" /><path clip-path="url(#clip400)" d="M1268.18 994.876 L1268.18 999.407 Q1266.14 998.365 1263.96 997.845 Q1261.77 997.324 1259.43 997.324 Q1255.86 997.324 1254.06 998.417 Q1252.29 999.511 1252.29 1001.7 Q1252.29 1003.37 1253.57 1004.33 Q1254.84 1005.27 1258.7 1006.13 L1260.34 1006.49 Q1265.44 1007.58 1267.58 1009.59 Q1269.74 1011.57 1269.74 1015.14 Q1269.74 1019.2 1266.51 1021.57 Q1263.31 1023.94 1257.68 1023.94 Q1255.34 1023.94 1252.79 1023.47 Q1250.26 1023.03 1247.45 1022.12 L1247.45 1017.17 Q1250.1 1018.55 1252.68 1019.25 Q1255.26 1019.93 1257.79 1019.93 Q1261.17 1019.93 1262.99 1018.78 Q1264.82 1017.61 1264.82 1015.5 Q1264.82 1013.55 1263.49 1012.51 Q1262.19 1011.46 1257.73 1010.5 L1256.07 1010.11 Q1251.61 1009.17 1249.63 1007.25 Q1247.66 1005.29 1247.66 1001.91 Q1247.66 997.792 1250.57 995.553 Q1253.49 993.313 1258.85 993.313 Q1261.51 993.313 1263.85 993.704 Q1266.2 994.095 1268.18 994.876 Z" fill="#000000" fill-rule="nonzero" fill-opacity="1" /><path clip-path="url(#clip400)" d="M1277.37 994.016 L1282.16 994.016 L1282.16 1023.18 L1277.37 1023.18 L1277.37 994.016 M1277.37 982.662 L1282.16 982.662 L1282.16 988.73 L1277.37 988.73 L1277.37 982.662 Z" fill="#000000" fill-rule="nonzero" fill-opacity="1" /><path clip-path="url(#clip400)" d="M1316.43 1005.58 L1316.43 1023.18 L1311.64 1023.18 L1311.64 1005.74 Q1311.64 1001.59 1310.02 999.537 Q1308.41 997.48 1305.18 997.48 Q1301.3 997.48 1299.06 999.954 Q1296.82 1002.43 1296.82 1006.7 L1296.82 1023.18 L1292 1023.18 L1292 994.016 L1296.82 994.016 L1296.82 998.548 Q1298.54 995.917 1300.86 994.615 Q1303.2 993.313 1306.25 993.313 Q1311.27 993.313 1313.85 996.438 Q1316.43 999.537 1316.43 1005.58 Z" fill="#000000" fill-rule="nonzero" fill-opacity="1" /><path clip-path="url(#clip400)" d="M1345.18 1008.26 Q1345.18 1003.05 1343.02 1000.19 Q1340.88 997.324 1337 997.324 Q1333.15 997.324 1330.99 1000.19 Q1328.85 1003.05 1328.85 1008.26 Q1328.85 1013.44 1330.99 1016.31 Q1333.15 1019.17 1337 1019.17 Q1340.88 1019.17 1343.02 1016.31 Q1345.18 1013.44 1345.18 1008.26 M1349.97 1019.56 Q1349.97 1027.01 1346.67 1030.63 Q1343.36 1034.28 1336.54 1034.28 Q1334.01 1034.28 1331.77 1033.89 Q1329.53 1033.52 1327.42 1032.74 L1327.42 1028.08 Q1329.53 1029.22 1331.59 1029.77 Q1333.64 1030.32 1335.78 1030.32 Q1340.49 1030.32 1342.84 1027.84 Q1345.18 1025.4 1345.18 1020.42 L1345.18 1018.05 Q1343.7 1020.63 1341.38 1021.91 Q1339.06 1023.18 1335.83 1023.18 Q1330.47 1023.18 1327.19 1019.09 Q1323.9 1015.01 1323.9 1008.26 Q1323.9 1001.49 1327.19 997.402 Q1330.47 993.313 1335.83 993.313 Q1339.06 993.313 1341.38 994.589 Q1343.7 995.865 1345.18 998.443 L1345.18 994.016 L1349.97 994.016 L1349.97 1019.56 Z" fill="#000000" fill-rule="nonzero" fill-opacity="1" /><path clip-path="url(#clip400)" d="M1359.84 982.662 L1364.63 982.662 L1364.63 1023.18 L1359.84 1023.18 L1359.84 982.662 Z" fill="#000000" fill-rule="nonzero" fill-opacity="1" /><path clip-path="url(#clip400)" d="M1399.61 1007.4 L1399.61 1009.75 L1377.58 1009.75 Q1377.89 1014.69 1380.55 1017.3 Q1383.23 1019.88 1387.99 1019.88 Q1390.75 1019.88 1393.33 1019.2 Q1395.94 1018.52 1398.49 1017.17 L1398.49 1021.7 Q1395.91 1022.79 1393.2 1023.37 Q1390.49 1023.94 1387.71 1023.94 Q1380.73 1023.94 1376.64 1019.88 Q1372.58 1015.81 1372.58 1008.89 Q1372.58 1001.72 1376.43 997.532 Q1380.31 993.313 1386.87 993.313 Q1392.76 993.313 1396.17 997.115 Q1399.61 1000.89 1399.61 1007.4 M1394.82 1006 Q1394.76 1002.06 1392.6 999.72 Q1390.47 997.376 1386.93 997.376 Q1382.92 997.376 1380.49 999.641 Q1378.1 1001.91 1377.73 1006.02 L1394.82 1006 Z" fill="#000000" fill-rule="nonzero" fill-opacity="1" /><path clip-path="url(#clip400)" d="M1443.02 994.876 L1443.02 999.407 Q1440.99 998.365 1438.8 997.845 Q1436.61 997.324 1434.27 997.324 Q1430.7 997.324 1428.9 998.417 Q1427.13 999.511 1427.13 1001.7 Q1427.13 1003.37 1428.41 1004.33 Q1429.69 1005.27 1433.54 1006.13 L1435.18 1006.49 Q1440.28 1007.58 1442.42 1009.59 Q1444.58 1011.57 1444.58 1015.14 Q1444.58 1019.2 1441.35 1021.57 Q1438.15 1023.94 1432.52 1023.94 Q1430.18 1023.94 1427.63 1023.47 Q1425.1 1023.03 1422.29 1022.12 L1422.29 1017.17 Q1424.95 1018.55 1427.52 1019.25 Q1430.1 1019.93 1432.63 1019.93 Q1436.01 1019.93 1437.84 1018.78 Q1439.66 1017.61 1439.66 1015.5 Q1439.66 1013.55 1438.33 1012.51 Q1437.03 1011.46 1432.58 1010.5 L1430.91 1010.11 Q1426.46 1009.17 1424.48 1007.25 Q1422.5 1005.29 1422.5 1001.91 Q1422.5 997.792 1425.41 995.553 Q1428.33 993.313 1433.7 993.313 Q1436.35 993.313 1438.7 993.704 Q1441.04 994.095 1443.02 994.876 Z" fill="#000000" fill-rule="nonzero" fill-opacity="1" /><path clip-path="url(#clip400)" d="M1452.21 994.016 L1457 994.016 L1457 1023.18 L1452.21 1023.18 L1452.21 994.016 M1452.21 982.662 L1457 982.662 L1457 988.73 L1452.21 988.73 L1452.21 982.662 Z" fill="#000000" fill-rule="nonzero" fill-opacity="1" /><path clip-path="url(#clip400)" d="M1489.74 999.615 Q1491.53 996.386 1494.03 994.85 Q1496.53 993.313 1499.92 993.313 Q1504.48 993.313 1506.95 996.516 Q1509.42 999.693 1509.42 1005.58 L1509.42 1023.18 L1504.61 1023.18 L1504.61 1005.74 Q1504.61 1001.54 1503.12 999.511 Q1501.64 997.48 1498.59 997.48 Q1494.87 997.48 1492.71 999.954 Q1490.54 1002.43 1490.54 1006.7 L1490.54 1023.18 L1485.73 1023.18 L1485.73 1005.74 Q1485.73 1001.52 1484.24 999.511 Q1482.76 997.48 1479.66 997.48 Q1475.99 997.48 1473.83 999.98 Q1471.66 1002.45 1471.66 1006.7 L1471.66 1023.18 L1466.85 1023.18 L1466.85 994.016 L1471.66 994.016 L1471.66 998.548 Q1473.31 995.865 1475.6 994.589 Q1477.89 993.313 1481.04 993.313 Q1484.22 993.313 1486.43 994.928 Q1488.67 996.542 1489.74 999.615 Z" fill="#000000" fill-rule="nonzero" fill-opacity="1" /><path clip-path="url(#clip400)" d="M1540.57 1018.81 L1540.57 1034.28 L1535.75 1034.28 L1535.75 994.016 L1540.57 994.016 L1540.57 998.443 Q1542.08 995.839 1544.37 994.589 Q1546.69 993.313 1549.89 993.313 Q1555.21 993.313 1558.51 997.532 Q1561.85 1001.75 1561.85 1008.63 Q1561.85 1015.5 1558.51 1019.72 Q1555.21 1023.94 1549.89 1023.94 Q1546.69 1023.94 1544.37 1022.69 Q1542.08 1021.41 1540.57 1018.81 M1556.87 1008.63 Q1556.87 1003.34 1554.68 1000.34 Q1552.52 997.324 1548.72 997.324 Q1544.92 997.324 1542.73 1000.34 Q1540.57 1003.34 1540.57 1008.63 Q1540.57 1013.91 1542.73 1016.93 Q1544.92 1019.93 1548.72 1019.93 Q1552.52 1019.93 1554.68 1016.93 Q1556.87 1013.91 1556.87 1008.63 Z" fill="#000000" fill-rule="nonzero" fill-opacity="1" /><path clip-path="url(#clip400)" d="M1583.04 1008.52 Q1577.24 1008.52 1575 1009.85 Q1572.76 1011.18 1572.76 1014.38 Q1572.76 1016.93 1574.42 1018.44 Q1576.12 1019.93 1579.01 1019.93 Q1582.99 1019.93 1585.39 1017.12 Q1587.81 1014.28 1587.81 1009.59 L1587.81 1008.52 L1583.04 1008.52 M1592.6 1006.54 L1592.6 1023.18 L1587.81 1023.18 L1587.81 1018.76 Q1586.17 1021.41 1583.72 1022.69 Q1581.27 1023.94 1577.73 1023.94 Q1573.25 1023.94 1570.6 1021.44 Q1567.97 1018.91 1567.97 1014.69 Q1567.97 1009.77 1571.25 1007.27 Q1574.55 1004.77 1581.09 1004.77 L1587.81 1004.77 L1587.81 1004.3 Q1587.81 1001 1585.62 999.199 Q1583.46 997.376 1579.53 997.376 Q1577.03 997.376 1574.66 997.975 Q1572.29 998.574 1570.1 999.772 L1570.1 995.345 Q1572.73 994.329 1575.21 993.834 Q1577.68 993.313 1580.02 993.313 Q1586.35 993.313 1589.48 996.595 Q1592.6 999.876 1592.6 1006.54 Z" fill="#000000" fill-rule="nonzero" fill-opacity="1" /><path clip-path="url(#clip400)" d="M1607.21 985.735 L1607.21 994.016 L1617.08 994.016 L1617.08 997.74 L1607.21 997.74 L1607.21 1013.57 Q1607.21 1017.14 1608.17 1018.16 Q1609.16 1019.17 1612.16 1019.17 L1617.08 1019.17 L1617.08 1023.18 L1612.16 1023.18 Q1606.61 1023.18 1604.5 1021.13 Q1602.39 1019.04 1602.39 1013.57 L1602.39 997.74 L1598.88 997.74 L1598.88 994.016 L1602.39 994.016 L1602.39 985.735 L1607.21 985.735 Z" fill="#000000" fill-rule="nonzero" fill-opacity="1" /><path clip-path="url(#clip400)" d="M1647.63 1005.58 L1647.63 1023.18 L1642.84 1023.18 L1642.84 1005.74 Q1642.84 1001.59 1641.22 999.537 Q1639.61 997.48 1636.38 997.48 Q1632.5 997.48 1630.26 999.954 Q1628.02 1002.43 1628.02 1006.7 L1628.02 1023.18 L1623.2 1023.18 L1623.2 982.662 L1628.02 982.662 L1628.02 998.548 Q1629.74 995.917 1632.05 994.615 Q1634.4 993.313 1637.44 993.313 Q1642.47 993.313 1645.05 996.438 Q1647.63 999.537 1647.63 1005.58 Z" fill="#000000" fill-rule="nonzero" fill-opacity="1" /><path clip-path="url(#clip400)" d="M1656.43 982.714 L1660.6 982.714 Q1664.5 988.86 1666.43 994.746 Q1668.38 1000.63 1668.38 1006.44 Q1668.38 1012.27 1666.43 1018.18 Q1664.5 1024.09 1660.6 1030.21 L1656.43 1030.21 Q1659.89 1024.25 1661.59 1018.37 Q1663.3 1012.45 1663.3 1006.44 Q1663.3 1000.42 1661.59 994.563 Q1659.89 988.704 1656.43 982.714 Z" fill="#000000" fill-rule="nonzero" fill-opacity="1" /></svg>
