<?xml version="1.0" encoding="utf-8"?>
<svg xmlns="http://www.w3.org/2000/svg" xmlns:xlink="http://www.w3.org/1999/xlink" width="600" height="400" viewBox="0 0 2400 1600">
<defs>
  <clipPath id="clip800">
    <rect x="0" y="0" width="2400" height="1600"/>
  </clipPath>
</defs>
<path clip-path="url(#clip800)" d="M0 1600 L2400 1600 L2400 8.88178e-14 L0 8.88178e-14  Z" fill="#ffffff" fill-rule="evenodd" fill-opacity="1"/>
<defs>
  <clipPath id="clip801">
    <rect x="1509" y="872" width="816" height="504"/>
  </clipPath>
</defs>
<path clip-path="url(#clip800)" d="M545.232 1241.31 L2274.02 1241.31 L2274.02 184.932 L545.232 184.932  Z" fill="#ffffff" fill-rule="evenodd" fill-opacity="1"/>
<defs>
  <clipPath id="clip802">
    <rect x="545" y="184" width="1730" height="1057"/>
  </clipPath>
</defs>
<polyline clip-path="url(#clip802)" style="stroke:#000000; stroke-linecap:round; stroke-linejoin:round; stroke-width:2; stroke-opacity:0.1; fill:none" points="562.796,1241.31 562.796,184.932 "/>
<polyline clip-path="url(#clip802)" style="stroke:#000000; stroke-linecap:round; stroke-linejoin:round; stroke-width:2; stroke-opacity:0.1; fill:none" points="876.436,1241.31 876.436,184.932 "/>
<polyline clip-path="url(#clip802)" style="stroke:#000000; stroke-linecap:round; stroke-linejoin:round; stroke-width:2; stroke-opacity:0.1; fill:none" points="1190.08,1241.31 1190.08,184.932 "/>
<polyline clip-path="url(#clip802)" style="stroke:#000000; stroke-linecap:round; stroke-linejoin:round; stroke-width:2; stroke-opacity:0.1; fill:none" points="1503.72,1241.31 1503.72,184.932 "/>
<polyline clip-path="url(#clip802)" style="stroke:#000000; stroke-linecap:round; stroke-linejoin:round; stroke-width:2; stroke-opacity:0.1; fill:none" points="1817.36,1241.31 1817.36,184.932 "/>
<polyline clip-path="url(#clip802)" style="stroke:#000000; stroke-linecap:round; stroke-linejoin:round; stroke-width:2; stroke-opacity:0.1; fill:none" points="2131,1241.31 2131,184.932 "/>
<polyline clip-path="url(#clip802)" style="stroke:#000000; stroke-linecap:round; stroke-linejoin:round; stroke-width:2; stroke-opacity:0.1; fill:none" points="545.232,1102.61 2274.02,1102.61 "/>
<polyline clip-path="url(#clip802)" style="stroke:#000000; stroke-linecap:round; stroke-linejoin:round; stroke-width:2; stroke-opacity:0.1; fill:none" points="545.232,960.03 2274.02,960.03 "/>
<polyline clip-path="url(#clip802)" style="stroke:#000000; stroke-linecap:round; stroke-linejoin:round; stroke-width:2; stroke-opacity:0.1; fill:none" points="545.232,817.445 2274.02,817.445 "/>
<polyline clip-path="url(#clip802)" style="stroke:#000000; stroke-linecap:round; stroke-linejoin:round; stroke-width:2; stroke-opacity:0.1; fill:none" points="545.232,674.861 2274.02,674.861 "/>
<polyline clip-path="url(#clip802)" style="stroke:#000000; stroke-linecap:round; stroke-linejoin:round; stroke-width:2; stroke-opacity:0.1; fill:none" points="545.232,532.276 2274.02,532.276 "/>
<polyline clip-path="url(#clip802)" style="stroke:#000000; stroke-linecap:round; stroke-linejoin:round; stroke-width:2; stroke-opacity:0.1; fill:none" points="545.232,389.692 2274.02,389.692 "/>
<polyline clip-path="url(#clip802)" style="stroke:#000000; stroke-linecap:round; stroke-linejoin:round; stroke-width:2; stroke-opacity:0.1; fill:none" points="545.232,247.107 2274.02,247.107 "/>
<polyline clip-path="url(#clip800)" style="stroke:#000000; stroke-linecap:round; stroke-linejoin:round; stroke-width:4; stroke-opacity:1; fill:none" points="545.232,1241.31 2274.02,1241.31 "/>
<polyline clip-path="url(#clip800)" style="stroke:#000000; stroke-linecap:round; stroke-linejoin:round; stroke-width:4; stroke-opacity:1; fill:none" points="562.796,1241.31 562.796,1222.41 "/>
<polyline clip-path="url(#clip800)" style="stroke:#000000; stroke-linecap:round; stroke-linejoin:round; stroke-width:4; stroke-opacity:1; fill:none" points="876.436,1241.31 876.436,1222.41 "/>
<polyline clip-path="url(#clip800)" style="stroke:#000000; stroke-linecap:round; stroke-linejoin:round; stroke-width:4; stroke-opacity:1; fill:none" points="1190.08,1241.31 1190.08,1222.41 "/>
<polyline clip-path="url(#clip800)" style="stroke:#000000; stroke-linecap:round; stroke-linejoin:round; stroke-width:4; stroke-opacity:1; fill:none" points="1503.72,1241.31 1503.72,1222.41 "/>
<polyline clip-path="url(#clip800)" style="stroke:#000000; stroke-linecap:round; stroke-linejoin:round; stroke-width:4; stroke-opacity:1; fill:none" points="1817.36,1241.31 1817.36,1222.41 "/>
<polyline clip-path="url(#clip800)" style="stroke:#000000; stroke-linecap:round; stroke-linejoin:round; stroke-width:4; stroke-opacity:1; fill:none" points="2131,1241.31 2131,1222.41 "/>
<path clip-path="url(#clip800)" d="M562.796 1275.16 Q558.282 1275.16 555.996 1279.62 Q553.74 1284.04 553.74 1292.95 Q553.74 1301.84 555.996 1306.29 Q558.282 1310.72 562.796 1310.72 Q567.339 1310.72 569.596 1306.29 Q571.882 1301.84 571.882 1292.95 Q571.882 1284.04 569.596 1279.62 Q567.339 1275.16 562.796 1275.16 M562.796 1270.53 Q570.059 1270.53 573.878 1276.29 Q577.727 1282.02 577.727 1292.95 Q577.727 1303.86 573.878 1309.62 Q570.059 1315.35 562.796 1315.35 Q555.534 1315.35 551.685 1309.62 Q547.866 1303.86 547.866 1292.95 Q547.866 1282.02 551.685 1276.29 Q555.534 1270.53 562.796 1270.53 Z" fill="#000000" fill-rule="nonzero" fill-opacity="1" /><path clip-path="url(#clip800)" d="M844.796 1309.59 L854.344 1309.59 L854.344 1276.64 L843.957 1278.72 L843.957 1273.39 L854.286 1271.31 L860.131 1271.31 L860.131 1309.59 L869.68 1309.59 L869.68 1314.51 L844.796 1314.51 L844.796 1309.59 Z" fill="#000000" fill-rule="nonzero" fill-opacity="1" /><path clip-path="url(#clip800)" d="M893.985 1275.16 Q889.471 1275.16 887.186 1279.62 Q884.929 1284.04 884.929 1292.95 Q884.929 1301.84 887.186 1306.29 Q889.471 1310.72 893.985 1310.72 Q898.528 1310.72 900.785 1306.29 Q903.071 1301.84 903.071 1292.95 Q903.071 1284.04 900.785 1279.62 Q898.528 1275.16 893.985 1275.16 M893.985 1270.53 Q901.248 1270.53 905.067 1276.29 Q908.916 1282.02 908.916 1292.95 Q908.916 1303.86 905.067 1309.62 Q901.248 1315.35 893.985 1315.35 Q886.723 1315.35 882.874 1309.62 Q879.055 1303.86 879.055 1292.95 Q879.055 1282.02 882.874 1276.29 Q886.723 1270.53 893.985 1270.53 Z" fill="#000000" fill-rule="nonzero" fill-opacity="1" /><path clip-path="url(#clip800)" d="M1163.54 1309.59 L1183.94 1309.59 L1183.94 1314.51 L1156.51 1314.51 L1156.51 1309.59 Q1159.84 1306.15 1165.57 1300.36 Q1171.33 1294.55 1172.8 1292.87 Q1175.61 1289.71 1176.71 1287.54 Q1177.84 1285.34 1177.84 1283.23 Q1177.84 1279.79 1175.41 1277.62 Q1173 1275.45 1169.13 1275.45 Q1166.38 1275.45 1163.31 1276.4 Q1160.27 1277.36 1156.8 1279.3 L1156.8 1273.39 Q1160.33 1271.98 1163.4 1271.25 Q1166.47 1270.53 1169.01 1270.53 Q1175.72 1270.53 1179.72 1273.89 Q1183.71 1277.24 1183.71 1282.86 Q1183.71 1285.52 1182.7 1287.92 Q1181.71 1290.29 1179.08 1293.53 Q1178.36 1294.37 1174.48 1298.39 Q1170.6 1302.39 1163.54 1309.59 Z" fill="#000000" fill-rule="nonzero" fill-opacity="1" /><path clip-path="url(#clip800)" d="M1208.71 1275.16 Q1204.2 1275.16 1201.91 1279.62 Q1199.65 1284.04 1199.65 1292.95 Q1199.65 1301.84 1201.91 1306.29 Q1204.2 1310.72 1208.71 1310.72 Q1213.25 1310.72 1215.51 1306.29 Q1217.8 1301.84 1217.8 1292.95 Q1217.8 1284.04 1215.51 1279.62 Q1213.25 1275.16 1208.71 1275.16 M1208.71 1270.53 Q1215.97 1270.53 1219.79 1276.29 Q1223.64 1282.02 1223.64 1292.95 Q1223.64 1303.86 1219.79 1309.62 Q1215.97 1315.35 1208.71 1315.35 Q1201.45 1315.35 1197.6 1309.62 Q1193.78 1303.86 1193.78 1292.95 Q1193.78 1282.02 1197.6 1276.29 Q1201.45 1270.53 1208.71 1270.53 Z" fill="#000000" fill-rule="nonzero" fill-opacity="1" /><path clip-path="url(#clip800)" d="M1489.77 1291.22 Q1493.96 1292.12 1496.31 1294.95 Q1498.68 1297.79 1498.68 1301.95 Q1498.68 1308.35 1494.28 1311.85 Q1489.89 1315.35 1481.78 1315.35 Q1479.06 1315.35 1476.17 1314.8 Q1473.31 1314.28 1470.24 1313.21 L1470.24 1307.57 Q1472.67 1308.98 1475.56 1309.71 Q1478.46 1310.43 1481.61 1310.43 Q1487.11 1310.43 1489.97 1308.26 Q1492.87 1306.09 1492.87 1301.95 Q1492.87 1298.13 1490.17 1295.99 Q1487.51 1293.82 1482.74 1293.82 L1477.7 1293.82 L1477.7 1289.02 L1482.97 1289.02 Q1487.28 1289.02 1489.57 1287.31 Q1491.85 1285.58 1491.85 1282.34 Q1491.85 1279.01 1489.48 1277.24 Q1487.14 1275.45 1482.74 1275.45 Q1480.34 1275.45 1477.59 1275.97 Q1474.84 1276.49 1471.54 1277.59 L1471.54 1272.38 Q1474.87 1271.46 1477.76 1270.99 Q1480.68 1270.53 1483.26 1270.53 Q1489.91 1270.53 1493.79 1273.57 Q1497.67 1276.58 1497.67 1281.73 Q1497.67 1285.32 1495.61 1287.8 Q1493.56 1290.26 1489.77 1291.22 Z" fill="#000000" fill-rule="nonzero" fill-opacity="1" /><path clip-path="url(#clip800)" d="M1522.26 1275.16 Q1517.75 1275.16 1515.46 1279.62 Q1513.21 1284.04 1513.21 1292.95 Q1513.21 1301.84 1515.46 1306.29 Q1517.75 1310.72 1522.26 1310.72 Q1526.81 1310.72 1529.06 1306.29 Q1531.35 1301.84 1531.35 1292.95 Q1531.35 1284.04 1529.06 1279.62 Q1526.81 1275.16 1522.26 1275.16 M1522.26 1270.53 Q1529.53 1270.53 1533.35 1276.29 Q1537.19 1282.02 1537.19 1292.95 Q1537.19 1303.86 1533.35 1309.62 Q1529.53 1315.35 1522.26 1315.35 Q1515 1315.35 1511.15 1309.62 Q1507.33 1303.86 1507.33 1292.95 Q1507.33 1282.02 1511.15 1276.29 Q1515 1270.53 1522.26 1270.53 Z" fill="#000000" fill-rule="nonzero" fill-opacity="1" /><path clip-path="url(#clip800)" d="M1802.57 1276.4 L1787.81 1299.47 L1802.57 1299.47 L1802.57 1276.4 M1801.04 1271.31 L1808.39 1271.31 L1808.39 1299.47 L1814.55 1299.47 L1814.55 1304.33 L1808.39 1304.33 L1808.39 1314.51 L1802.57 1314.51 L1802.57 1304.33 L1783.07 1304.33 L1783.07 1298.68 L1801.04 1271.31 Z" fill="#000000" fill-rule="nonzero" fill-opacity="1" /><path clip-path="url(#clip800)" d="M1836.71 1275.16 Q1832.2 1275.16 1829.91 1279.62 Q1827.66 1284.04 1827.66 1292.95 Q1827.66 1301.84 1829.91 1306.29 Q1832.2 1310.72 1836.71 1310.72 Q1841.26 1310.72 1843.51 1306.29 Q1845.8 1301.84 1845.8 1292.95 Q1845.8 1284.04 1843.51 1279.62 Q1841.26 1275.16 1836.71 1275.16 M1836.71 1270.53 Q1843.98 1270.53 1847.8 1276.29 Q1851.64 1282.02 1851.64 1292.95 Q1851.64 1303.86 1847.8 1309.62 Q1843.98 1315.35 1836.71 1315.35 Q1829.45 1315.35 1825.6 1309.62 Q1821.78 1303.86 1821.78 1292.95 Q1821.78 1282.02 1825.6 1276.29 Q1829.45 1270.53 1836.71 1270.53 Z" fill="#000000" fill-rule="nonzero" fill-opacity="1" /><path clip-path="url(#clip800)" d="M2099.37 1271.31 L2122.32 1271.31 L2122.32 1276.23 L2104.72 1276.23 L2104.72 1286.82 Q2106 1286.39 2107.27 1286.18 Q2108.54 1285.95 2109.82 1285.95 Q2117.05 1285.95 2121.27 1289.92 Q2125.5 1293.88 2125.5 1300.65 Q2125.5 1307.62 2121.16 1311.5 Q2116.82 1315.35 2108.92 1315.35 Q2106.2 1315.35 2103.36 1314.89 Q2100.56 1314.42 2097.55 1313.5 L2097.55 1307.62 Q2100.15 1309.04 2102.93 1309.74 Q2105.71 1310.43 2108.8 1310.43 Q2113.81 1310.43 2116.73 1307.8 Q2119.65 1305.17 2119.65 1300.65 Q2119.65 1296.14 2116.73 1293.5 Q2113.81 1290.87 2108.8 1290.87 Q2106.46 1290.87 2104.12 1291.39 Q2101.8 1291.91 2099.37 1293.01 L2099.37 1271.31 Z" fill="#000000" fill-rule="nonzero" fill-opacity="1" /><path clip-path="url(#clip800)" d="M2149.51 1275.16 Q2145 1275.16 2142.71 1279.62 Q2140.46 1284.04 2140.46 1292.95 Q2140.46 1301.84 2142.71 1306.29 Q2145 1310.72 2149.51 1310.72 Q2154.06 1310.72 2156.31 1306.29 Q2158.6 1301.84 2158.6 1292.95 Q2158.6 1284.04 2156.31 1279.62 Q2154.06 1275.16 2149.51 1275.16 M2149.51 1270.53 Q2156.78 1270.53 2160.6 1276.29 Q2164.44 1282.02 2164.44 1292.95 Q2164.44 1303.86 2160.6 1309.62 Q2156.78 1315.35 2149.51 1315.35 Q2142.25 1315.35 2138.4 1309.62 Q2134.58 1303.86 2134.58 1292.95 Q2134.58 1282.02 2138.4 1276.29 Q2142.25 1270.53 2149.51 1270.53 Z" fill="#000000" fill-rule="nonzero" fill-opacity="1" /><path clip-path="url(#clip800)" d="M1277.34 1351.62 L1283.77 1351.62 L1283.77 1399.14 L1277.34 1399.14 L1277.34 1351.62 Z" fill="#000000" fill-rule="nonzero" fill-opacity="1" /><path clip-path="url(#clip800)" d="M1302.11 1353.37 L1302.11 1363.49 L1314.17 1363.49 L1314.17 1368.04 L1302.11 1368.04 L1302.11 1387.39 Q1302.11 1391.75 1303.28 1392.99 Q1304.49 1394.23 1308.15 1394.23 L1314.17 1394.23 L1314.17 1399.14 L1308.15 1399.14 Q1301.38 1399.14 1298.8 1396.62 Q1296.22 1394.07 1296.22 1387.39 L1296.22 1368.04 L1291.92 1368.04 L1291.92 1363.49 L1296.22 1363.49 L1296.22 1353.37 L1302.11 1353.37 Z" fill="#000000" fill-rule="nonzero" fill-opacity="1" /><path clip-path="url(#clip800)" d="M1352.36 1379.85 L1352.36 1382.71 L1325.44 1382.71 Q1325.82 1388.76 1329.07 1391.94 Q1332.34 1395.09 1338.17 1395.09 Q1341.54 1395.09 1344.69 1394.27 Q1347.88 1393.44 1351 1391.78 L1351 1397.32 Q1347.84 1398.66 1344.53 1399.36 Q1341.22 1400.06 1337.82 1400.06 Q1329.29 1400.06 1324.29 1395.09 Q1319.33 1390.13 1319.33 1381.66 Q1319.33 1372.91 1324.04 1367.78 Q1328.78 1362.63 1336.8 1362.63 Q1343.99 1362.63 1348.16 1367.28 Q1352.36 1371.89 1352.36 1379.85 M1346.51 1378.13 Q1346.44 1373.32 1343.8 1370.46 Q1341.19 1367.59 1336.86 1367.59 Q1331.96 1367.59 1329 1370.36 Q1326.07 1373.13 1325.63 1378.16 L1346.51 1378.13 Z" fill="#000000" fill-rule="nonzero" fill-opacity="1" /><path clip-path="url(#clip800)" d="M1382.63 1368.96 Q1381.65 1368.39 1380.47 1368.13 Q1379.32 1367.85 1377.92 1367.85 Q1372.96 1367.85 1370.28 1371.09 Q1367.64 1374.31 1367.64 1380.36 L1367.64 1399.14 L1361.75 1399.14 L1361.75 1363.49 L1367.64 1363.49 L1367.64 1369.03 Q1369.49 1365.78 1372.45 1364.22 Q1375.41 1362.63 1379.64 1362.63 Q1380.25 1362.63 1380.98 1362.72 Q1381.71 1362.79 1382.6 1362.95 L1382.63 1368.96 Z" fill="#000000" fill-rule="nonzero" fill-opacity="1" /><path clip-path="url(#clip800)" d="M1404.98 1381.22 Q1397.88 1381.22 1395.14 1382.84 Q1392.4 1384.46 1392.4 1388.38 Q1392.4 1391.5 1394.44 1393.34 Q1396.51 1395.16 1400.04 1395.16 Q1404.91 1395.16 1407.84 1391.72 Q1410.8 1388.25 1410.8 1382.52 L1410.8 1381.22 L1404.98 1381.22 M1416.66 1378.8 L1416.66 1399.14 L1410.8 1399.14 L1410.8 1393.72 Q1408.8 1396.97 1405.8 1398.53 Q1402.81 1400.06 1398.48 1400.06 Q1393.01 1400.06 1389.76 1397 Q1386.55 1393.92 1386.55 1388.76 Q1386.55 1382.74 1390.56 1379.69 Q1394.6 1376.63 1402.59 1376.63 L1410.8 1376.63 L1410.8 1376.06 Q1410.8 1372.02 1408.13 1369.82 Q1405.49 1367.59 1400.68 1367.59 Q1397.62 1367.59 1394.73 1368.33 Q1391.83 1369.06 1389.16 1370.52 L1389.16 1365.11 Q1392.37 1363.87 1395.4 1363.26 Q1398.42 1362.63 1401.28 1362.63 Q1409.02 1362.63 1412.84 1366.64 Q1416.66 1370.65 1416.66 1378.8 Z" fill="#000000" fill-rule="nonzero" fill-opacity="1" /><path clip-path="url(#clip800)" d="M1434.51 1353.37 L1434.51 1363.49 L1446.58 1363.49 L1446.58 1368.04 L1434.51 1368.04 L1434.51 1387.39 Q1434.51 1391.75 1435.69 1392.99 Q1436.9 1394.23 1440.56 1394.23 L1446.58 1394.23 L1446.58 1399.14 L1440.56 1399.14 Q1433.78 1399.14 1431.2 1396.62 Q1428.63 1394.07 1428.63 1387.39 L1428.63 1368.04 L1424.33 1368.04 L1424.33 1363.49 L1428.63 1363.49 L1428.63 1353.37 L1434.51 1353.37 Z" fill="#000000" fill-rule="nonzero" fill-opacity="1" /><path clip-path="url(#clip800)" d="M1454.28 1363.49 L1460.14 1363.49 L1460.14 1399.14 L1454.28 1399.14 L1454.28 1363.49 M1454.28 1349.61 L1460.14 1349.61 L1460.14 1357.03 L1454.28 1357.03 L1454.28 1349.61 Z" fill="#000000" fill-rule="nonzero" fill-opacity="1" /><path clip-path="url(#clip800)" d="M1486.2 1367.59 Q1481.49 1367.59 1478.76 1371.29 Q1476.02 1374.95 1476.02 1381.34 Q1476.02 1387.74 1478.72 1391.43 Q1481.46 1395.09 1486.2 1395.09 Q1490.88 1395.09 1493.62 1391.4 Q1496.36 1387.71 1496.36 1381.34 Q1496.36 1375.01 1493.62 1371.32 Q1490.88 1367.59 1486.2 1367.59 M1486.2 1362.63 Q1493.84 1362.63 1498.2 1367.59 Q1502.56 1372.56 1502.56 1381.34 Q1502.56 1390.1 1498.2 1395.09 Q1493.84 1400.06 1486.2 1400.06 Q1478.53 1400.06 1474.17 1395.09 Q1469.84 1390.1 1469.84 1381.34 Q1469.84 1372.56 1474.17 1367.59 Q1478.53 1362.63 1486.2 1362.63 Z" fill="#000000" fill-rule="nonzero" fill-opacity="1" /><path clip-path="url(#clip800)" d="M1541.9 1377.62 L1541.9 1399.14 L1536.05 1399.14 L1536.05 1377.81 Q1536.05 1372.75 1534.07 1370.24 Q1532.1 1367.72 1528.15 1367.72 Q1523.41 1367.72 1520.67 1370.74 Q1517.94 1373.77 1517.94 1378.99 L1517.94 1399.14 L1512.05 1399.14 L1512.05 1363.49 L1517.94 1363.49 L1517.94 1369.03 Q1520.04 1365.81 1522.87 1364.22 Q1525.73 1362.63 1529.46 1362.63 Q1535.6 1362.63 1538.75 1366.45 Q1541.9 1370.24 1541.9 1377.62 Z" fill="#000000" fill-rule="nonzero" fill-opacity="1" /><polyline clip-path="url(#clip800)" style="stroke:#000000; stroke-linecap:round; stroke-linejoin:round; stroke-width:4; stroke-opacity:1; fill:none" points="545.232,1241.31 545.232,184.932 "/>
<polyline clip-path="url(#clip800)" style="stroke:#000000; stroke-linecap:round; stroke-linejoin:round; stroke-width:4; stroke-opacity:1; fill:none" points="545.232,1102.61 564.13,1102.61 "/>
<polyline clip-path="url(#clip800)" style="stroke:#000000; stroke-linecap:round; stroke-linejoin:round; stroke-width:4; stroke-opacity:1; fill:none" points="545.232,960.03 564.13,960.03 "/>
<polyline clip-path="url(#clip800)" style="stroke:#000000; stroke-linecap:round; stroke-linejoin:round; stroke-width:4; stroke-opacity:1; fill:none" points="545.232,817.445 564.13,817.445 "/>
<polyline clip-path="url(#clip800)" style="stroke:#000000; stroke-linecap:round; stroke-linejoin:round; stroke-width:4; stroke-opacity:1; fill:none" points="545.232,674.861 564.13,674.861 "/>
<polyline clip-path="url(#clip800)" style="stroke:#000000; stroke-linecap:round; stroke-linejoin:round; stroke-width:4; stroke-opacity:1; fill:none" points="545.232,532.276 564.13,532.276 "/>
<polyline clip-path="url(#clip800)" style="stroke:#000000; stroke-linecap:round; stroke-linejoin:round; stroke-width:4; stroke-opacity:1; fill:none" points="545.232,389.692 564.13,389.692 "/>
<polyline clip-path="url(#clip800)" style="stroke:#000000; stroke-linecap:round; stroke-linejoin:round; stroke-width:4; stroke-opacity:1; fill:none" points="545.232,247.107 564.13,247.107 "/>
<path clip-path="url(#clip800)" d="M318.985 1103.18 L356.079 1103.18 L356.079 1108.1 L318.985 1108.1 L318.985 1103.18 Z" fill="#000000" fill-rule="nonzero" fill-opacity="1" /><path clip-path="url(#clip800)" d="M368.753 1081.01 L391.698 1081.01 L391.698 1085.93 L374.106 1085.93 L374.106 1096.52 Q375.379 1096.09 376.652 1095.89 Q377.925 1095.66 379.198 1095.66 Q386.432 1095.66 390.657 1099.62 Q394.881 1103.58 394.881 1110.35 Q394.881 1117.33 390.541 1121.2 Q386.201 1125.05 378.301 1125.05 Q375.581 1125.05 372.746 1124.59 Q369.939 1124.13 366.93 1123.2 L366.93 1117.33 Q369.534 1118.75 372.312 1119.44 Q375.09 1120.13 378.186 1120.13 Q383.191 1120.13 386.114 1117.5 Q389.036 1114.87 389.036 1110.35 Q389.036 1105.84 386.114 1103.21 Q383.191 1100.57 378.186 1100.57 Q375.842 1100.57 373.498 1101.09 Q371.183 1101.62 368.753 1102.72 L368.753 1081.01 Z" fill="#000000" fill-rule="nonzero" fill-opacity="1" /><path clip-path="url(#clip800)" d="M419.621 1100.28 Q415.685 1100.28 413.371 1102.98 Q411.085 1105.67 411.085 1110.35 Q411.085 1115.01 413.371 1117.73 Q415.685 1120.42 419.621 1120.42 Q423.556 1120.42 425.842 1117.73 Q428.156 1115.01 428.156 1110.35 Q428.156 1105.67 425.842 1102.98 Q423.556 1100.28 419.621 1100.28 M431.224 1081.97 L431.224 1087.29 Q429.024 1086.25 426.768 1085.7 Q424.54 1085.15 422.34 1085.15 Q416.553 1085.15 413.486 1089.06 Q410.448 1092.96 410.014 1100.86 Q411.721 1098.35 414.297 1097.02 Q416.872 1095.66 419.968 1095.66 Q426.478 1095.66 430.24 1099.62 Q434.03 1103.55 434.03 1110.35 Q434.03 1117.01 430.095 1121.03 Q426.16 1125.05 419.621 1125.05 Q412.126 1125.05 408.162 1119.32 Q404.198 1113.57 404.198 1102.66 Q404.198 1092.41 409.059 1086.34 Q413.92 1080.23 422.109 1080.23 Q424.308 1080.23 426.536 1080.67 Q428.793 1081.1 431.224 1081.97 Z" fill="#000000" fill-rule="nonzero" fill-opacity="1" /><path clip-path="url(#clip800)" d="M456.6 1084.86 Q452.086 1084.86 449.8 1089.32 Q447.543 1093.75 447.543 1102.66 Q447.543 1111.54 449.8 1116 Q452.086 1120.42 456.6 1120.42 Q461.142 1120.42 463.399 1116 Q465.685 1111.54 465.685 1102.66 Q465.685 1093.75 463.399 1089.32 Q461.142 1084.86 456.6 1084.86 M456.6 1080.23 Q463.862 1080.23 467.682 1085.99 Q471.53 1091.72 471.53 1102.66 Q471.53 1113.57 467.682 1119.32 Q463.862 1125.05 456.6 1125.05 Q449.337 1125.05 445.489 1119.32 Q441.669 1113.57 441.669 1102.66 Q441.669 1091.72 445.489 1085.99 Q449.337 1080.23 456.6 1080.23 Z" fill="#000000" fill-rule="nonzero" fill-opacity="1" /><path clip-path="url(#clip800)" d="M494.302 1084.86 Q489.788 1084.86 487.502 1089.32 Q485.245 1093.75 485.245 1102.66 Q485.245 1111.54 487.502 1116 Q489.788 1120.42 494.302 1120.42 Q498.845 1120.42 501.102 1116 Q503.388 1111.54 503.388 1102.66 Q503.388 1093.75 501.102 1089.32 Q498.845 1084.86 494.302 1084.86 M494.302 1080.23 Q501.565 1080.23 505.384 1085.99 Q509.232 1091.72 509.232 1102.66 Q509.232 1113.57 505.384 1119.32 Q501.565 1125.05 494.302 1125.05 Q487.039 1125.05 483.191 1119.32 Q479.371 1113.57 479.371 1102.66 Q479.371 1091.72 483.191 1085.99 Q487.039 1080.23 494.302 1080.23 Z" fill="#000000" fill-rule="nonzero" fill-opacity="1" /><path clip-path="url(#clip800)" d="M318.985 960.594 L356.079 960.594 L356.079 965.513 L318.985 965.513 L318.985 960.594 Z" fill="#000000" fill-rule="nonzero" fill-opacity="1" /><path clip-path="url(#clip800)" d="M368.753 938.43 L391.698 938.43 L391.698 943.349 L374.106 943.349 L374.106 953.939 Q375.379 953.505 376.652 953.302 Q377.925 953.071 379.198 953.071 Q386.432 953.071 390.657 957.035 Q394.881 960.999 394.881 967.77 Q394.881 974.743 390.541 978.62 Q386.201 982.469 378.301 982.469 Q375.581 982.469 372.746 982.006 Q369.939 981.543 366.93 980.617 L366.93 974.743 Q369.534 976.161 372.312 976.855 Q375.09 977.55 378.186 977.55 Q383.191 977.55 386.114 974.917 Q389.036 972.284 389.036 967.77 Q389.036 963.256 386.114 960.623 Q383.191 957.99 378.186 957.99 Q375.842 957.99 373.498 958.51 Q371.183 959.031 368.753 960.131 L368.753 938.43 Z" fill="#000000" fill-rule="nonzero" fill-opacity="1" /><path clip-path="url(#clip800)" d="M406.455 938.43 L429.401 938.43 L429.401 943.349 L411.808 943.349 L411.808 953.939 Q413.081 953.505 414.354 953.302 Q415.628 953.071 416.901 953.071 Q424.134 953.071 428.359 957.035 Q432.583 960.999 432.583 967.77 Q432.583 974.743 428.243 978.62 Q423.903 982.469 416.004 982.469 Q413.284 982.469 410.448 982.006 Q407.641 981.543 404.632 980.617 L404.632 974.743 Q407.236 976.161 410.014 976.855 Q412.792 977.55 415.888 977.55 Q420.894 977.55 423.816 974.917 Q426.739 972.284 426.739 967.77 Q426.739 963.256 423.816 960.623 Q420.894 957.99 415.888 957.99 Q413.544 957.99 411.201 958.51 Q408.886 959.031 406.455 960.131 L406.455 938.43 Z" fill="#000000" fill-rule="nonzero" fill-opacity="1" /><path clip-path="url(#clip800)" d="M456.6 942.278 Q452.086 942.278 449.8 946.734 Q447.543 951.161 447.543 960.073 Q447.543 968.956 449.8 973.412 Q452.086 977.839 456.6 977.839 Q461.142 977.839 463.399 973.412 Q465.685 968.956 465.685 960.073 Q465.685 951.161 463.399 946.734 Q461.142 942.278 456.6 942.278 M456.6 937.648 Q463.862 937.648 467.682 943.406 Q471.53 949.136 471.53 960.073 Q471.53 970.981 467.682 976.74 Q463.862 982.469 456.6 982.469 Q449.337 982.469 445.489 976.74 Q441.669 970.981 441.669 960.073 Q441.669 949.136 445.489 943.406 Q449.337 937.648 456.6 937.648 Z" fill="#000000" fill-rule="nonzero" fill-opacity="1" /><path clip-path="url(#clip800)" d="M494.302 942.278 Q489.788 942.278 487.502 946.734 Q485.245 951.161 485.245 960.073 Q485.245 968.956 487.502 973.412 Q489.788 977.839 494.302 977.839 Q498.845 977.839 501.102 973.412 Q503.388 968.956 503.388 960.073 Q503.388 951.161 501.102 946.734 Q498.845 942.278 494.302 942.278 M494.302 937.648 Q501.565 937.648 505.384 943.406 Q509.232 949.136 509.232 960.073 Q509.232 970.981 505.384 976.74 Q501.565 982.469 494.302 982.469 Q487.039 982.469 483.191 976.74 Q479.371 970.981 479.371 960.073 Q479.371 949.136 483.191 943.406 Q487.039 937.648 494.302 937.648 Z" fill="#000000" fill-rule="nonzero" fill-opacity="1" /><path clip-path="url(#clip800)" d="M318.985 818.009 L356.079 818.009 L356.079 822.928 L318.985 822.928 L318.985 818.009 Z" fill="#000000" fill-rule="nonzero" fill-opacity="1" /><path clip-path="url(#clip800)" d="M368.753 795.845 L391.698 795.845 L391.698 800.764 L374.106 800.764 L374.106 811.354 Q375.379 810.92 376.652 810.718 Q377.925 810.486 379.198 810.486 Q386.432 810.486 390.657 814.45 Q394.881 818.414 394.881 825.185 Q394.881 832.159 390.541 836.036 Q386.201 839.884 378.301 839.884 Q375.581 839.884 372.746 839.421 Q369.939 838.958 366.93 838.032 L366.93 832.159 Q369.534 833.576 372.312 834.271 Q375.09 834.965 378.186 834.965 Q383.191 834.965 386.114 832.332 Q389.036 829.699 389.036 825.185 Q389.036 820.671 386.114 818.038 Q383.191 815.405 378.186 815.405 Q375.842 815.405 373.498 815.926 Q371.183 816.447 368.753 817.546 L368.753 795.845 Z" fill="#000000" fill-rule="nonzero" fill-opacity="1" /><path clip-path="url(#clip800)" d="M422.456 800.938 L407.699 823.999 L422.456 823.999 L422.456 800.938 M420.923 795.845 L428.272 795.845 L428.272 823.999 L434.435 823.999 L434.435 828.86 L428.272 828.86 L428.272 839.045 L422.456 839.045 L422.456 828.86 L402.954 828.86 L402.954 823.218 L420.923 795.845 Z" fill="#000000" fill-rule="nonzero" fill-opacity="1" /><path clip-path="url(#clip800)" d="M456.6 799.693 Q452.086 799.693 449.8 804.149 Q447.543 808.577 447.543 817.489 Q447.543 826.372 449.8 830.828 Q452.086 835.255 456.6 835.255 Q461.142 835.255 463.399 830.828 Q465.685 826.372 465.685 817.489 Q465.685 808.577 463.399 804.149 Q461.142 799.693 456.6 799.693 M456.6 795.064 Q463.862 795.064 467.682 800.822 Q471.53 806.551 471.53 817.489 Q471.53 828.397 467.682 834.155 Q463.862 839.884 456.6 839.884 Q449.337 839.884 445.489 834.155 Q441.669 828.397 441.669 817.489 Q441.669 806.551 445.489 800.822 Q449.337 795.064 456.6 795.064 Z" fill="#000000" fill-rule="nonzero" fill-opacity="1" /><path clip-path="url(#clip800)" d="M494.302 799.693 Q489.788 799.693 487.502 804.149 Q485.245 808.577 485.245 817.489 Q485.245 826.372 487.502 830.828 Q489.788 835.255 494.302 835.255 Q498.845 835.255 501.102 830.828 Q503.388 826.372 503.388 817.489 Q503.388 808.577 501.102 804.149 Q498.845 799.693 494.302 799.693 M494.302 795.064 Q501.565 795.064 505.384 800.822 Q509.232 806.551 509.232 817.489 Q509.232 828.397 505.384 834.155 Q501.565 839.884 494.302 839.884 Q487.039 839.884 483.191 834.155 Q479.371 828.397 479.371 817.489 Q479.371 806.551 483.191 800.822 Q487.039 795.064 494.302 795.064 Z" fill="#000000" fill-rule="nonzero" fill-opacity="1" /><path clip-path="url(#clip800)" d="M318.985 675.425 L356.079 675.425 L356.079 680.344 L318.985 680.344 L318.985 675.425 Z" fill="#000000" fill-rule="nonzero" fill-opacity="1" /><path clip-path="url(#clip800)" d="M368.753 653.261 L391.698 653.261 L391.698 658.18 L374.106 658.18 L374.106 668.77 Q375.379 668.336 376.652 668.133 Q377.925 667.902 379.198 667.902 Q386.432 667.902 390.657 671.866 Q394.881 675.83 394.881 682.601 Q394.881 689.574 390.541 693.451 Q386.201 697.3 378.301 697.3 Q375.581 697.3 372.746 696.837 Q369.939 696.374 366.93 695.448 L366.93 689.574 Q369.534 690.992 372.312 691.686 Q375.09 692.381 378.186 692.381 Q383.191 692.381 386.114 689.748 Q389.036 687.115 389.036 682.601 Q389.036 678.087 386.114 675.454 Q383.191 672.821 378.186 672.821 Q375.842 672.821 373.498 673.342 Q371.183 673.862 368.753 674.962 L368.753 653.261 Z" fill="#000000" fill-rule="nonzero" fill-opacity="1" /><path clip-path="url(#clip800)" d="M424.106 673.168 Q428.301 674.065 430.645 676.901 Q433.018 679.736 433.018 683.903 Q433.018 690.298 428.619 693.799 Q424.221 697.3 416.119 697.3 Q413.4 697.3 410.506 696.75 Q407.641 696.229 404.574 695.159 L404.574 689.516 Q407.005 690.934 409.898 691.658 Q412.792 692.381 415.946 692.381 Q421.444 692.381 424.308 690.211 Q427.202 688.041 427.202 683.903 Q427.202 680.083 424.511 677.942 Q421.849 675.772 417.074 675.772 L412.04 675.772 L412.04 670.969 L417.306 670.969 Q421.617 670.969 423.903 669.262 Q426.189 667.526 426.189 664.285 Q426.189 660.957 423.816 659.192 Q421.472 657.398 417.074 657.398 Q414.673 657.398 411.924 657.919 Q409.175 658.44 405.876 659.54 L405.876 654.331 Q409.204 653.405 412.097 652.942 Q415.02 652.479 417.595 652.479 Q424.25 652.479 428.128 655.518 Q432.005 658.527 432.005 663.677 Q432.005 667.265 429.95 669.754 Q427.896 672.213 424.106 673.168 Z" fill="#000000" fill-rule="nonzero" fill-opacity="1" /><path clip-path="url(#clip800)" d="M456.6 657.109 Q452.086 657.109 449.8 661.565 Q447.543 665.992 447.543 674.904 Q447.543 683.787 449.8 688.243 Q452.086 692.67 456.6 692.67 Q461.142 692.67 463.399 688.243 Q465.685 683.787 465.685 674.904 Q465.685 665.992 463.399 661.565 Q461.142 657.109 456.6 657.109 M456.6 652.479 Q463.862 652.479 467.682 658.238 Q471.53 663.967 471.53 674.904 Q471.53 685.813 467.682 691.571 Q463.862 697.3 456.6 697.3 Q449.337 697.3 445.489 691.571 Q441.669 685.813 441.669 674.904 Q441.669 663.967 445.489 658.238 Q449.337 652.479 456.6 652.479 Z" fill="#000000" fill-rule="nonzero" fill-opacity="1" /><path clip-path="url(#clip800)" d="M494.302 657.109 Q489.788 657.109 487.502 661.565 Q485.245 665.992 485.245 674.904 Q485.245 683.787 487.502 688.243 Q489.788 692.67 494.302 692.67 Q498.845 692.67 501.102 688.243 Q503.388 683.787 503.388 674.904 Q503.388 665.992 501.102 661.565 Q498.845 657.109 494.302 657.109 M494.302 652.479 Q501.565 652.479 505.384 658.238 Q509.232 663.967 509.232 674.904 Q509.232 685.813 505.384 691.571 Q501.565 697.3 494.302 697.3 Q487.039 697.3 483.191 691.571 Q479.371 685.813 479.371 674.904 Q479.371 663.967 483.191 658.238 Q487.039 652.479 494.302 652.479 Z" fill="#000000" fill-rule="nonzero" fill-opacity="1" /><path clip-path="url(#clip800)" d="M318.985 532.841 L356.079 532.841 L356.079 537.759 L318.985 537.759 L318.985 532.841 Z" fill="#000000" fill-rule="nonzero" fill-opacity="1" /><path clip-path="url(#clip800)" d="M368.753 510.676 L391.698 510.676 L391.698 515.595 L374.106 515.595 L374.106 526.185 Q375.379 525.751 376.652 525.549 Q377.925 525.317 379.198 525.317 Q386.432 525.317 390.657 529.282 Q394.881 533.246 394.881 540.016 Q394.881 546.99 390.541 550.867 Q386.201 554.715 378.301 554.715 Q375.581 554.715 372.746 554.252 Q369.939 553.79 366.93 552.864 L366.93 546.99 Q369.534 548.408 372.312 549.102 Q375.09 549.796 378.186 549.796 Q383.191 549.796 386.114 547.163 Q389.036 544.53 389.036 540.016 Q389.036 535.503 386.114 532.869 Q383.191 530.236 378.186 530.236 Q375.842 530.236 373.498 530.757 Q371.183 531.278 368.753 532.378 L368.753 510.676 Z" fill="#000000" fill-rule="nonzero" fill-opacity="1" /><path clip-path="url(#clip800)" d="M411.432 548.957 L431.831 548.957 L431.831 553.876 L404.401 553.876 L404.401 548.957 Q407.728 545.514 413.457 539.727 Q419.216 533.911 420.691 532.233 Q423.498 529.079 424.597 526.909 Q425.726 524.71 425.726 522.598 Q425.726 519.154 423.295 516.984 Q420.894 514.814 417.016 514.814 Q414.268 514.814 411.201 515.769 Q408.162 516.724 404.69 518.662 L404.69 512.76 Q408.22 511.342 411.287 510.618 Q414.354 509.895 416.901 509.895 Q423.614 509.895 427.607 513.252 Q431.6 516.608 431.6 522.221 Q431.6 524.883 430.587 527.285 Q429.603 529.658 426.97 532.898 Q426.247 533.738 422.369 537.759 Q418.492 541.753 411.432 548.957 Z" fill="#000000" fill-rule="nonzero" fill-opacity="1" /><path clip-path="url(#clip800)" d="M456.6 514.525 Q452.086 514.525 449.8 518.981 Q447.543 523.408 447.543 532.32 Q447.543 541.203 449.8 545.659 Q452.086 550.086 456.6 550.086 Q461.142 550.086 463.399 545.659 Q465.685 541.203 465.685 532.32 Q465.685 523.408 463.399 518.981 Q461.142 514.525 456.6 514.525 M456.6 509.895 Q463.862 509.895 467.682 515.653 Q471.53 521.382 471.53 532.32 Q471.53 543.228 467.682 548.986 Q463.862 554.715 456.6 554.715 Q449.337 554.715 445.489 548.986 Q441.669 543.228 441.669 532.32 Q441.669 521.382 445.489 515.653 Q449.337 509.895 456.6 509.895 Z" fill="#000000" fill-rule="nonzero" fill-opacity="1" /><path clip-path="url(#clip800)" d="M494.302 514.525 Q489.788 514.525 487.502 518.981 Q485.245 523.408 485.245 532.32 Q485.245 541.203 487.502 545.659 Q489.788 550.086 494.302 550.086 Q498.845 550.086 501.102 545.659 Q503.388 541.203 503.388 532.32 Q503.388 523.408 501.102 518.981 Q498.845 514.525 494.302 514.525 M494.302 509.895 Q501.565 509.895 505.384 515.653 Q509.232 521.382 509.232 532.32 Q509.232 543.228 505.384 548.986 Q501.565 554.715 494.302 554.715 Q487.039 554.715 483.191 548.986 Q479.371 543.228 479.371 532.32 Q479.371 521.382 483.191 515.653 Q487.039 509.895 494.302 509.895 Z" fill="#000000" fill-rule="nonzero" fill-opacity="1" /><path clip-path="url(#clip800)" d="M318.985 390.256 L356.079 390.256 L356.079 395.175 L318.985 395.175 L318.985 390.256 Z" fill="#000000" fill-rule="nonzero" fill-opacity="1" /><path clip-path="url(#clip800)" d="M368.753 368.092 L391.698 368.092 L391.698 373.011 L374.106 373.011 L374.106 383.601 Q375.379 383.167 376.652 382.964 Q377.925 382.733 379.198 382.733 Q386.432 382.733 390.657 386.697 Q394.881 390.661 394.881 397.432 Q394.881 404.405 390.541 408.283 Q386.201 412.131 378.301 412.131 Q375.581 412.131 372.746 411.668 Q369.939 411.205 366.93 410.279 L366.93 404.405 Q369.534 405.823 372.312 406.518 Q375.09 407.212 378.186 407.212 Q383.191 407.212 386.114 404.579 Q389.036 401.946 389.036 397.432 Q389.036 392.918 386.114 390.285 Q383.191 387.652 378.186 387.652 Q375.842 387.652 373.498 388.173 Q371.183 388.694 368.753 389.793 L368.753 368.092 Z" fill="#000000" fill-rule="nonzero" fill-opacity="1" /><path clip-path="url(#clip800)" d="M407.41 406.373 L416.959 406.373 L416.959 373.416 L406.571 375.499 L406.571 370.175 L416.901 368.092 L422.746 368.092 L422.746 406.373 L432.294 406.373 L432.294 411.292 L407.41 411.292 L407.41 406.373 Z" fill="#000000" fill-rule="nonzero" fill-opacity="1" /><path clip-path="url(#clip800)" d="M456.6 371.94 Q452.086 371.94 449.8 376.396 Q447.543 380.823 447.543 389.735 Q447.543 398.618 449.8 403.074 Q452.086 407.501 456.6 407.501 Q461.142 407.501 463.399 403.074 Q465.685 398.618 465.685 389.735 Q465.685 380.823 463.399 376.396 Q461.142 371.94 456.6 371.94 M456.6 367.311 Q463.862 367.311 467.682 373.069 Q471.53 378.798 471.53 389.735 Q471.53 400.644 467.682 406.402 Q463.862 412.131 456.6 412.131 Q449.337 412.131 445.489 406.402 Q441.669 400.644 441.669 389.735 Q441.669 378.798 445.489 373.069 Q449.337 367.311 456.6 367.311 Z" fill="#000000" fill-rule="nonzero" fill-opacity="1" /><path clip-path="url(#clip800)" d="M494.302 371.94 Q489.788 371.94 487.502 376.396 Q485.245 380.823 485.245 389.735 Q485.245 398.618 487.502 403.074 Q489.788 407.501 494.302 407.501 Q498.845 407.501 501.102 403.074 Q503.388 398.618 503.388 389.735 Q503.388 380.823 501.102 376.396 Q498.845 371.94 494.302 371.94 M494.302 367.311 Q501.565 367.311 505.384 373.069 Q509.232 378.798 509.232 389.735 Q509.232 400.644 505.384 406.402 Q501.565 412.131 494.302 412.131 Q487.039 412.131 483.191 406.402 Q479.371 400.644 479.371 389.735 Q479.371 378.798 483.191 373.069 Q487.039 367.311 494.302 367.311 Z" fill="#000000" fill-rule="nonzero" fill-opacity="1" /><path clip-path="url(#clip800)" d="M318.985 247.672 L356.079 247.672 L356.079 252.591 L318.985 252.591 L318.985 247.672 Z" fill="#000000" fill-rule="nonzero" fill-opacity="1" /><path clip-path="url(#clip800)" d="M368.753 225.507 L391.698 225.507 L391.698 230.426 L374.106 230.426 L374.106 241.017 Q375.379 240.583 376.652 240.38 Q377.925 240.149 379.198 240.149 Q386.432 240.149 390.657 244.113 Q394.881 248.077 394.881 254.848 Q394.881 261.821 390.541 265.698 Q386.201 269.547 378.301 269.547 Q375.581 269.547 372.746 269.084 Q369.939 268.621 366.93 267.695 L366.93 261.821 Q369.534 263.239 372.312 263.933 Q375.09 264.628 378.186 264.628 Q383.191 264.628 386.114 261.995 Q389.036 259.361 389.036 254.848 Q389.036 250.334 386.114 247.701 Q383.191 245.068 378.186 245.068 Q375.842 245.068 373.498 245.588 Q371.183 246.109 368.753 247.209 L368.753 225.507 Z" fill="#000000" fill-rule="nonzero" fill-opacity="1" /><path clip-path="url(#clip800)" d="M418.897 229.356 Q414.383 229.356 412.097 233.812 Q409.841 238.239 409.841 247.151 Q409.841 256.034 412.097 260.49 Q414.383 264.917 418.897 264.917 Q423.44 264.917 425.697 260.49 Q427.983 256.034 427.983 247.151 Q427.983 238.239 425.697 233.812 Q423.44 229.356 418.897 229.356 M418.897 224.726 Q426.16 224.726 429.979 230.484 Q433.828 236.213 433.828 247.151 Q433.828 258.059 429.979 263.817 Q426.16 269.547 418.897 269.547 Q411.635 269.547 407.786 263.817 Q403.967 258.059 403.967 247.151 Q403.967 236.213 407.786 230.484 Q411.635 224.726 418.897 224.726 Z" fill="#000000" fill-rule="nonzero" fill-opacity="1" /><path clip-path="url(#clip800)" d="M456.6 229.356 Q452.086 229.356 449.8 233.812 Q447.543 238.239 447.543 247.151 Q447.543 256.034 449.8 260.49 Q452.086 264.917 456.6 264.917 Q461.142 264.917 463.399 260.49 Q465.685 256.034 465.685 247.151 Q465.685 238.239 463.399 233.812 Q461.142 229.356 456.6 229.356 M456.6 224.726 Q463.862 224.726 467.682 230.484 Q471.53 236.213 471.53 247.151 Q471.53 258.059 467.682 263.817 Q463.862 269.547 456.6 269.547 Q449.337 269.547 445.489 263.817 Q441.669 258.059 441.669 247.151 Q441.669 236.213 445.489 230.484 Q449.337 224.726 456.6 224.726 Z" fill="#000000" fill-rule="nonzero" fill-opacity="1" /><path clip-path="url(#clip800)" d="M494.302 229.356 Q489.788 229.356 487.502 233.812 Q485.245 238.239 485.245 247.151 Q485.245 256.034 487.502 260.49 Q489.788 264.917 494.302 264.917 Q498.845 264.917 501.102 260.49 Q503.388 256.034 503.388 247.151 Q503.388 238.239 501.102 233.812 Q498.845 229.356 494.302 229.356 M494.302 224.726 Q501.565 224.726 505.384 230.484 Q509.232 236.213 509.232 247.151 Q509.232 258.059 505.384 263.817 Q501.565 269.547 494.302 269.547 Q487.039 269.547 483.191 263.817 Q479.371 258.059 479.371 247.151 Q479.371 236.213 483.191 230.484 Q487.039 224.726 494.302 224.726 Z" fill="#000000" fill-rule="nonzero" fill-opacity="1" /><path clip-path="url(#clip800)" d="M221.209 941.253 L221.209 934.824 L263.318 934.824 L263.318 911.684 L268.729 911.684 L268.729 941.253 L221.209 941.253 Z" fill="#000000" fill-rule="nonzero" fill-opacity="1" /><path clip-path="url(#clip800)" d="M237.186 892.523 Q237.186 897.234 240.879 899.971 Q244.539 902.709 250.936 902.709 Q257.334 902.709 261.026 900.003 Q264.686 897.266 264.686 892.523 Q264.686 887.845 260.994 885.107 Q257.302 882.37 250.936 882.37 Q244.603 882.37 240.91 885.107 Q237.186 887.845 237.186 892.523 M232.221 892.523 Q232.221 884.885 237.186 880.524 Q242.152 876.164 250.936 876.164 Q259.689 876.164 264.686 880.524 Q269.652 884.885 269.652 892.523 Q269.652 900.194 264.686 904.555 Q259.689 908.883 250.936 908.883 Q242.152 908.883 237.186 904.555 Q232.221 900.194 232.221 892.523 Z" fill="#000000" fill-rule="nonzero" fill-opacity="1" /><path clip-path="url(#clip800)" d="M250.491 842.998 Q244.125 842.998 240.624 845.64 Q237.123 848.25 237.123 852.992 Q237.123 857.703 240.624 860.345 Q244.125 862.955 250.491 862.955 Q256.825 862.955 260.326 860.345 Q263.827 857.703 263.827 852.992 Q263.827 848.25 260.326 845.64 Q256.825 842.998 250.491 842.998 M264.304 837.142 Q273.407 837.142 277.832 841.184 Q282.288 845.226 282.288 853.565 Q282.288 856.653 281.81 859.39 Q281.364 862.127 280.41 864.705 L274.712 864.705 Q276.113 862.127 276.781 859.613 Q277.45 857.098 277.45 854.488 Q277.45 848.727 274.426 845.863 Q271.434 842.998 265.355 842.998 L262.458 842.998 Q265.609 844.812 267.169 847.645 Q268.729 850.478 268.729 854.425 Q268.729 860.981 263.731 864.992 Q258.734 869.002 250.491 869.002 Q242.215 869.002 237.218 864.992 Q232.221 860.981 232.221 854.425 Q232.221 850.478 233.781 847.645 Q235.34 844.812 238.491 842.998 L233.081 842.998 L233.081 837.142 L264.304 837.142 Z" fill="#000000" fill-rule="nonzero" fill-opacity="1" /><path clip-path="url(#clip800)" d="M248.263 828.039 L248.263 810.883 L253.483 810.883 L253.483 828.039 L248.263 828.039 Z" fill="#000000" fill-rule="nonzero" fill-opacity="1" /><path clip-path="url(#clip800)" d="M221.209 801.303 L221.209 794.873 L263.318 794.873 L263.318 771.734 L268.729 771.734 L268.729 801.303 L221.209 801.303 Z" fill="#000000" fill-rule="nonzero" fill-opacity="1" /><path clip-path="url(#clip800)" d="M233.081 765.241 L233.081 759.385 L268.729 759.385 L268.729 765.241 L233.081 765.241 M219.203 765.241 L219.203 759.385 L226.619 759.385 L226.619 765.241 L219.203 765.241 Z" fill="#000000" fill-rule="nonzero" fill-opacity="1" /><path clip-path="url(#clip800)" d="M219.203 747.353 L219.203 741.465 L248.454 741.465 L233.081 723.991 L233.081 716.512 L249.759 735.418 L268.729 715.716 L268.729 723.355 L251.318 741.465 L268.729 741.465 L268.729 747.353 L219.203 747.353 Z" fill="#000000" fill-rule="nonzero" fill-opacity="1" /><path clip-path="url(#clip800)" d="M249.44 681.214 L252.305 681.214 L252.305 708.141 Q258.352 707.759 261.535 704.512 Q264.686 701.234 264.686 695.409 Q264.686 692.035 263.859 688.884 Q263.031 685.702 261.376 682.582 L266.914 682.582 Q268.251 685.733 268.951 689.044 Q269.652 692.354 269.652 695.759 Q269.652 704.289 264.686 709.287 Q259.721 714.252 251.255 714.252 Q242.502 714.252 237.377 709.541 Q232.221 704.799 232.221 696.778 Q232.221 689.585 236.868 685.415 Q241.483 681.214 249.44 681.214 M247.722 687.07 Q242.916 687.134 240.051 689.776 Q237.186 692.386 237.186 696.714 Q237.186 701.616 239.956 704.576 Q242.725 707.504 247.754 707.95 L247.722 687.07 Z" fill="#000000" fill-rule="nonzero" fill-opacity="1" /><path clip-path="url(#clip800)" d="M219.203 671.602 L219.203 665.745 L268.729 665.745 L268.729 671.602 L219.203 671.602 Z" fill="#000000" fill-rule="nonzero" fill-opacity="1" /><path clip-path="url(#clip800)" d="M233.081 653.491 L233.081 647.635 L268.729 647.635 L268.729 653.491 L233.081 653.491 M219.203 653.491 L219.203 647.635 L226.619 647.635 L226.619 653.491 L219.203 653.491 Z" fill="#000000" fill-rule="nonzero" fill-opacity="1" /><path clip-path="url(#clip800)" d="M247.212 605.748 L268.729 605.748 L268.729 611.605 L247.403 611.605 Q242.343 611.605 239.828 613.578 Q237.314 615.552 237.314 619.498 Q237.314 624.241 240.338 626.978 Q243.361 629.715 248.581 629.715 L268.729 629.715 L268.729 635.603 L219.203 635.603 L219.203 629.715 L238.619 629.715 Q235.404 627.615 233.813 624.782 Q232.221 621.917 232.221 618.193 Q232.221 612.05 236.041 608.899 Q239.828 605.748 247.212 605.748 Z" fill="#000000" fill-rule="nonzero" fill-opacity="1" /><path clip-path="url(#clip800)" d="M237.186 580.254 Q237.186 584.964 240.879 587.702 Q244.539 590.439 250.936 590.439 Q257.334 590.439 261.026 587.733 Q264.686 584.996 264.686 580.254 Q264.686 575.575 260.994 572.838 Q257.302 570.1 250.936 570.1 Q244.603 570.1 240.91 572.838 Q237.186 575.575 237.186 580.254 M232.221 580.254 Q232.221 572.615 237.186 568.254 Q242.152 563.894 250.936 563.894 Q259.689 563.894 264.686 568.254 Q269.652 572.615 269.652 580.254 Q269.652 587.924 264.686 592.285 Q259.689 596.614 250.936 596.614 Q242.152 596.614 237.186 592.285 Q232.221 587.924 232.221 580.254 Z" fill="#000000" fill-rule="nonzero" fill-opacity="1" /><path clip-path="url(#clip800)" d="M237.186 540.373 Q237.186 545.083 240.879 547.82 Q244.539 550.558 250.936 550.558 Q257.334 550.558 261.026 547.852 Q264.686 545.115 264.686 540.373 Q264.686 535.694 260.994 532.956 Q257.302 530.219 250.936 530.219 Q244.603 530.219 240.91 532.956 Q237.186 535.694 237.186 540.373 M232.221 540.373 Q232.221 532.734 237.186 528.373 Q242.152 524.013 250.936 524.013 Q259.689 524.013 264.686 528.373 Q269.652 532.734 269.652 540.373 Q269.652 548.043 264.686 552.404 Q259.689 556.732 250.936 556.732 Q242.152 556.732 237.186 552.404 Q232.221 548.043 232.221 540.373 Z" fill="#000000" fill-rule="nonzero" fill-opacity="1" /><path clip-path="url(#clip800)" d="M238.491 490.847 L219.203 490.847 L219.203 484.991 L268.729 484.991 L268.729 490.847 L263.381 490.847 Q266.564 492.693 268.124 495.526 Q269.652 498.327 269.652 502.274 Q269.652 508.735 264.495 512.809 Q259.339 516.851 250.936 516.851 Q242.534 516.851 237.377 512.809 Q232.221 508.735 232.221 502.274 Q232.221 498.327 233.781 495.526 Q235.309 492.693 238.491 490.847 M250.936 510.804 Q257.398 510.804 261.09 508.162 Q264.75 505.488 264.75 500.841 Q264.75 496.195 261.09 493.521 Q257.398 490.847 250.936 490.847 Q244.475 490.847 240.815 493.521 Q237.123 496.195 237.123 500.841 Q237.123 505.488 240.815 508.162 Q244.475 510.804 250.936 510.804 Z" fill="#000000" fill-rule="nonzero" fill-opacity="1" /><path clip-path="url(#clip800)" d="M862.839 31.2093 L862.839 47.0368 L872.214 47.0368 Q876.93 47.0368 879.187 45.0981 Q881.473 43.1306 881.473 39.1086 Q881.473 35.0577 879.187 33.148 Q876.93 31.2093 872.214 31.2093 L862.839 31.2093 M862.839 13.4432 L862.839 26.464 L871.49 26.464 Q875.773 26.464 877.856 24.8726 Q879.968 23.2522 879.968 19.9536 Q879.968 16.6839 877.856 15.0636 Q875.773 13.4432 871.49 13.4432 L862.839 13.4432 M856.994 8.64 L871.924 8.64 Q878.608 8.64 882.225 11.4178 Q885.842 14.1955 885.842 19.317 Q885.842 23.2811 883.99 25.6249 Q882.138 27.9686 878.551 28.5473 Q882.862 29.4732 885.235 32.4246 Q887.636 35.347 887.636 39.7452 Q887.636 45.5322 883.701 48.6861 Q879.766 51.84 872.503 51.84 L856.994 51.84 L856.994 8.64 Z" fill="#000000" fill-rule="nonzero" fill-opacity="1" /><path clip-path="url(#clip800)" d="M912.144 35.5496 Q905.692 35.5496 903.203 37.0253 Q900.715 38.501 900.715 42.06 Q900.715 44.8956 902.567 46.5738 Q904.447 48.2231 907.659 48.2231 Q912.086 48.2231 914.748 45.0981 Q917.439 41.9442 917.439 36.7359 L917.439 35.5496 L912.144 35.5496 M922.763 33.3505 L922.763 51.84 L917.439 51.84 L917.439 46.921 Q915.616 49.8724 912.896 51.2902 Q910.177 52.6791 906.241 52.6791 Q901.265 52.6791 898.313 49.9014 Q895.391 47.0947 895.391 42.4072 Q895.391 36.9385 899.037 34.1607 Q902.711 31.3829 909.974 31.3829 L917.439 31.3829 L917.439 30.8621 Q917.439 27.1874 915.009 25.1908 Q912.607 23.1654 908.238 23.1654 Q905.46 23.1654 902.827 23.8309 Q900.194 24.4964 897.763 25.8274 L897.763 20.9085 Q900.686 19.78 903.435 19.2302 Q906.183 18.6515 908.788 18.6515 Q915.819 18.6515 919.291 22.2973 Q922.763 25.9431 922.763 33.3505 Z" fill="#000000" fill-rule="nonzero" fill-opacity="1" /><path clip-path="url(#clip800)" d="M933.18 39.0507 L933.18 19.4328 L938.504 19.4328 L938.504 38.8482 Q938.504 43.4488 940.298 45.7636 Q942.092 48.0495 945.68 48.0495 Q949.991 48.0495 952.48 45.3007 Q954.997 42.5519 954.997 37.8065 L954.997 19.4328 L960.321 19.4328 L960.321 51.84 L954.997 51.84 L954.997 46.8632 Q953.058 49.8145 950.483 51.2613 Q947.937 52.6791 944.551 52.6791 Q938.967 52.6791 936.073 49.2069 Q933.18 45.7347 933.18 39.0507 M946.577 18.6515 L946.577 18.6515 Z" fill="#000000" fill-rule="nonzero" fill-opacity="1" /><path clip-path="url(#clip800)" d="M996.519 25.6538 Q998.515 22.0659 1001.29 20.3587 Q1004.07 18.6515 1007.83 18.6515 Q1012.9 18.6515 1015.64 22.2105 Q1018.39 25.7406 1018.39 32.2799 L1018.39 51.84 L1013.04 51.84 L1013.04 32.4535 Q1013.04 27.795 1011.39 25.5381 Q1009.74 23.2811 1006.36 23.2811 Q1002.22 23.2811 999.817 26.03 Q997.416 28.7788 997.416 33.5241 L997.416 51.84 L992.063 51.84 L992.063 32.4535 Q992.063 27.7661 990.413 25.5381 Q988.764 23.2811 985.321 23.2811 Q981.241 23.2811 978.839 26.0589 Q976.438 28.8077 976.438 33.5241 L976.438 51.84 L971.085 51.84 L971.085 19.4328 L976.438 19.4328 L976.438 24.4675 Q978.261 21.4872 980.807 20.0693 Q983.353 18.6515 986.854 18.6515 Q990.384 18.6515 992.844 20.4455 Q995.332 22.2395 996.519 25.6538 Z" fill="#000000" fill-rule="nonzero" fill-opacity="1" /><path clip-path="url(#clip800)" d="M1026.32 33.2348 L1041.92 33.2348 L1041.92 37.9801 L1026.32 37.9801 L1026.32 33.2348 Z" fill="#000000" fill-rule="nonzero" fill-opacity="1" /><path clip-path="url(#clip800)" d="M1044.38 8.64 L1050.28 8.64 L1059.37 45.156 L1068.42 8.64 L1074.99 8.64 L1084.08 45.156 L1093.13 8.64 L1099.06 8.64 L1088.21 51.84 L1080.86 51.84 L1071.75 14.3402 L1062.55 51.84 L1055.2 51.84 L1044.38 8.64 Z" fill="#000000" fill-rule="nonzero" fill-opacity="1" /><path clip-path="url(#clip800)" d="M1130.84 34.3054 L1130.84 36.9095 L1106.36 36.9095 Q1106.7 42.4072 1109.65 45.3007 Q1112.63 48.1653 1117.93 48.1653 Q1121 48.1653 1123.86 47.4129 Q1126.76 46.6606 1129.59 45.156 L1129.59 50.1907 Q1126.73 51.406 1123.72 52.0425 Q1120.71 52.6791 1117.61 52.6791 Q1109.86 52.6791 1105.31 48.1653 Q1100.8 43.6514 1100.8 35.9547 Q1100.8 27.9975 1105.08 23.339 Q1109.39 18.6515 1116.69 18.6515 Q1123.23 18.6515 1127.02 22.876 Q1130.84 27.0716 1130.84 34.3054 M1125.51 32.7429 Q1125.45 28.3737 1123.05 25.7695 Q1120.68 23.1654 1116.74 23.1654 Q1112.29 23.1654 1109.6 25.6827 Q1106.93 28.2001 1106.53 32.7718 L1125.51 32.7429 Z" fill="#000000" fill-rule="nonzero" fill-opacity="1" /><path clip-path="url(#clip800)" d="M1139.57 6.81709 L1144.9 6.81709 L1144.9 51.84 L1139.57 51.84 L1139.57 6.81709 Z" fill="#000000" fill-rule="nonzero" fill-opacity="1" /><path clip-path="url(#clip800)" d="M1179.36 20.677 L1179.36 25.6538 Q1177.1 24.4096 1174.82 23.802 Q1172.56 23.1654 1170.24 23.1654 Q1165.07 23.1654 1162.2 26.464 Q1159.34 29.7336 1159.34 35.6653 Q1159.34 41.597 1162.2 44.8956 Q1165.07 48.1653 1170.24 48.1653 Q1172.56 48.1653 1174.82 47.5576 Q1177.1 46.921 1179.36 45.6768 L1179.36 50.5958 Q1177.13 51.6375 1174.73 52.1583 Q1172.36 52.6791 1169.67 52.6791 Q1162.35 52.6791 1158.03 48.0784 Q1153.72 43.4778 1153.72 35.6653 Q1153.72 27.7371 1158.06 23.1943 Q1162.43 18.6515 1170.01 18.6515 Q1172.47 18.6515 1174.82 19.1724 Q1177.16 19.6642 1179.36 20.677 Z" fill="#000000" fill-rule="nonzero" fill-opacity="1" /><path clip-path="url(#clip800)" d="M1215.56 32.2799 L1215.56 51.84 L1210.23 51.84 L1210.23 32.4535 Q1210.23 27.8529 1208.44 25.567 Q1206.64 23.2811 1203.06 23.2811 Q1198.75 23.2811 1196.26 26.03 Q1193.77 28.7788 1193.77 33.5241 L1193.77 51.84 L1188.42 51.84 L1188.42 6.81709 L1193.77 6.81709 L1193.77 24.4675 Q1195.68 21.545 1198.25 20.0983 Q1200.86 18.6515 1204.24 18.6515 Q1209.83 18.6515 1212.69 22.1237 Q1215.56 25.567 1215.56 32.2799 Z" fill="#000000" fill-rule="nonzero" fill-opacity="1" /><path clip-path="url(#clip800)" d="M1277.59 11.9675 L1277.59 18.1307 Q1274.64 15.3819 1271.29 14.0219 Q1267.96 12.662 1264.2 12.662 Q1256.79 12.662 1252.85 17.2048 Q1248.92 21.7186 1248.92 30.2834 Q1248.92 38.8192 1252.85 43.362 Q1256.79 47.8759 1264.2 47.8759 Q1267.96 47.8759 1271.29 46.516 Q1274.64 45.156 1277.59 42.4072 L1277.59 48.5125 Q1274.53 50.5958 1271.08 51.6375 Q1267.67 52.6791 1263.85 52.6791 Q1254.04 52.6791 1248.4 46.6896 Q1242.76 40.6711 1242.76 30.2834 Q1242.76 19.8668 1248.4 13.8772 Q1254.04 7.85875 1263.85 7.85875 Q1267.73 7.85875 1271.14 8.90042 Q1274.58 9.91314 1277.59 11.9675 Z" fill="#000000" fill-rule="nonzero" fill-opacity="1" /><path clip-path="url(#clip800)" d="M1298.95 23.1654 Q1294.67 23.1654 1292.18 26.5218 Q1289.69 29.8494 1289.69 35.6653 Q1289.69 41.4813 1292.15 44.8377 Q1294.64 48.1653 1298.95 48.1653 Q1303.2 48.1653 1305.69 44.8088 Q1308.18 41.4523 1308.18 35.6653 Q1308.18 29.9072 1305.69 26.5508 Q1303.2 23.1654 1298.95 23.1654 M1298.95 18.6515 Q1305.89 18.6515 1309.86 23.1654 Q1313.82 27.6792 1313.82 35.6653 Q1313.82 43.6225 1309.86 48.1653 Q1305.89 52.6791 1298.95 52.6791 Q1291.97 52.6791 1288.01 48.1653 Q1284.07 43.6225 1284.07 35.6653 Q1284.07 27.6792 1288.01 23.1654 Q1291.97 18.6515 1298.95 18.6515 Z" fill="#000000" fill-rule="nonzero" fill-opacity="1" /><path clip-path="url(#clip800)" d="M1349.58 32.2799 L1349.58 51.84 L1344.26 51.84 L1344.26 32.4535 Q1344.26 27.8529 1342.47 25.567 Q1340.67 23.2811 1337.08 23.2811 Q1332.77 23.2811 1330.28 26.03 Q1327.8 28.7788 1327.8 33.5241 L1327.8 51.84 L1322.44 51.84 L1322.44 19.4328 L1327.8 19.4328 L1327.8 24.4675 Q1329.71 21.545 1332.28 20.0983 Q1334.88 18.6515 1338.27 18.6515 Q1343.85 18.6515 1346.72 22.1237 Q1349.58 25.567 1349.58 32.2799 Z" fill="#000000" fill-rule="nonzero" fill-opacity="1" /><path clip-path="url(#clip800)" d="M1356.38 19.4328 L1362.03 19.4328 L1372.15 46.6317 L1382.28 19.4328 L1387.92 19.4328 L1375.77 51.84 L1368.54 51.84 L1356.38 19.4328 Z" fill="#000000" fill-rule="nonzero" fill-opacity="1" /><path clip-path="url(#clip800)" d="M1422.99 34.3054 L1422.99 36.9095 L1398.51 36.9095 Q1398.86 42.4072 1401.81 45.3007 Q1404.79 48.1653 1410.09 48.1653 Q1413.15 48.1653 1416.02 47.4129 Q1418.91 46.6606 1421.75 45.156 L1421.75 50.1907 Q1418.88 51.406 1415.87 52.0425 Q1412.86 52.6791 1409.77 52.6791 Q1402.01 52.6791 1397.47 48.1653 Q1392.96 43.6514 1392.96 35.9547 Q1392.96 27.9975 1397.24 23.339 Q1401.55 18.6515 1408.84 18.6515 Q1415.38 18.6515 1419.17 22.876 Q1422.99 27.0716 1422.99 34.3054 M1417.67 32.7429 Q1417.61 28.3737 1415.21 25.7695 Q1412.84 23.1654 1408.9 23.1654 Q1404.44 23.1654 1401.75 25.6827 Q1399.09 28.2001 1398.69 32.7718 L1417.67 32.7429 Z" fill="#000000" fill-rule="nonzero" fill-opacity="1" /><path clip-path="url(#clip800)" d="M1450.51 24.4096 Q1449.61 23.8888 1448.54 23.6573 Q1447.5 23.3969 1446.23 23.3969 Q1441.71 23.3969 1439.28 26.3482 Q1436.88 29.2707 1436.88 34.7683 L1436.88 51.84 L1431.53 51.84 L1431.53 19.4328 L1436.88 19.4328 L1436.88 24.4675 Q1438.56 21.5161 1441.25 20.0983 Q1443.94 18.6515 1447.79 18.6515 Q1448.34 18.6515 1449 18.7383 Q1449.67 18.7962 1450.48 18.9409 L1450.51 24.4096 Z" fill="#000000" fill-rule="nonzero" fill-opacity="1" /><path clip-path="url(#clip800)" d="M1476.38 35.2602 Q1476.38 29.4732 1473.98 26.2904 Q1471.6 23.1075 1467.29 23.1075 Q1463.01 23.1075 1460.61 26.2904 Q1458.23 29.4732 1458.23 35.2602 Q1458.23 41.0183 1460.61 44.2012 Q1463.01 47.384 1467.29 47.384 Q1471.6 47.384 1473.98 44.2012 Q1476.38 41.0183 1476.38 35.2602 M1481.7 47.818 Q1481.7 56.0934 1478.03 60.1154 Q1474.35 64.1663 1466.77 64.1663 Q1463.96 64.1663 1461.48 63.7323 Q1458.99 63.3272 1456.64 62.4592 L1456.64 57.2798 Q1458.99 58.5529 1461.27 59.1606 Q1463.56 59.7682 1465.93 59.7682 Q1471.17 59.7682 1473.77 57.0194 Q1476.38 54.2995 1476.38 48.7729 L1476.38 46.1398 Q1474.73 49.0044 1472.15 50.4222 Q1469.58 51.84 1465.99 51.84 Q1460.03 51.84 1456.38 47.2972 Q1452.74 42.7544 1452.74 35.2602 Q1452.74 27.7371 1456.38 23.1943 Q1460.03 18.6515 1465.99 18.6515 Q1469.58 18.6515 1472.15 20.0693 Q1474.73 21.4872 1476.38 24.3517 L1476.38 19.4328 L1481.7 19.4328 L1481.7 47.818 Z" fill="#000000" fill-rule="nonzero" fill-opacity="1" /><path clip-path="url(#clip800)" d="M1520.39 34.3054 L1520.39 36.9095 L1495.91 36.9095 Q1496.26 42.4072 1499.21 45.3007 Q1502.19 48.1653 1507.48 48.1653 Q1510.55 48.1653 1513.41 47.4129 Q1516.31 46.6606 1519.14 45.156 L1519.14 50.1907 Q1516.28 51.406 1513.27 52.0425 Q1510.26 52.6791 1507.16 52.6791 Q1499.41 52.6791 1494.87 48.1653 Q1490.35 43.6514 1490.35 35.9547 Q1490.35 27.9975 1494.64 23.339 Q1498.95 18.6515 1506.24 18.6515 Q1512.78 18.6515 1516.57 22.876 Q1520.39 27.0716 1520.39 34.3054 M1515.06 32.7429 Q1515.01 28.3737 1512.6 25.7695 Q1510.23 23.1654 1506.3 23.1654 Q1501.84 23.1654 1499.15 25.6827 Q1496.49 28.2001 1496.08 32.7718 L1515.06 32.7429 Z" fill="#000000" fill-rule="nonzero" fill-opacity="1" /><path clip-path="url(#clip800)" d="M1556.06 32.2799 L1556.06 51.84 L1550.74 51.84 L1550.74 32.4535 Q1550.74 27.8529 1548.95 25.567 Q1547.15 23.2811 1543.56 23.2811 Q1539.25 23.2811 1536.76 26.03 Q1534.28 28.7788 1534.28 33.5241 L1534.28 51.84 L1528.92 51.84 L1528.92 19.4328 L1534.28 19.4328 L1534.28 24.4675 Q1536.19 21.545 1538.76 20.0983 Q1541.37 18.6515 1544.75 18.6515 Q1550.34 18.6515 1553.2 22.1237 Q1556.06 25.567 1556.06 32.2799 Z" fill="#000000" fill-rule="nonzero" fill-opacity="1" /><path clip-path="url(#clip800)" d="M1590.01 20.677 L1590.01 25.6538 Q1587.75 24.4096 1585.46 23.802 Q1583.21 23.1654 1580.89 23.1654 Q1575.71 23.1654 1572.85 26.464 Q1569.98 29.7336 1569.98 35.6653 Q1569.98 41.597 1572.85 44.8956 Q1575.71 48.1653 1580.89 48.1653 Q1583.21 48.1653 1585.46 47.5576 Q1587.75 46.921 1590.01 45.6768 L1590.01 50.5958 Q1587.78 51.6375 1585.38 52.1583 Q1583 52.6791 1580.31 52.6791 Q1572.99 52.6791 1568.68 48.0784 Q1564.37 43.4778 1564.37 35.6653 Q1564.37 27.7371 1568.71 23.1943 Q1573.08 18.6515 1580.66 18.6515 Q1583.12 18.6515 1585.46 19.1724 Q1587.81 19.6642 1590.01 20.677 Z" fill="#000000" fill-rule="nonzero" fill-opacity="1" /><path clip-path="url(#clip800)" d="M1626.98 34.3054 L1626.98 36.9095 L1602.5 36.9095 Q1602.85 42.4072 1605.8 45.3007 Q1608.78 48.1653 1614.08 48.1653 Q1617.15 48.1653 1620.01 47.4129 Q1622.9 46.6606 1625.74 45.156 L1625.74 50.1907 Q1622.88 51.406 1619.87 52.0425 Q1616.86 52.6791 1613.76 52.6791 Q1606.01 52.6791 1601.46 48.1653 Q1596.95 43.6514 1596.95 35.9547 Q1596.95 27.9975 1601.23 23.339 Q1605.54 18.6515 1612.83 18.6515 Q1619.37 18.6515 1623.16 22.876 Q1626.98 27.0716 1626.98 34.3054 M1621.66 32.7429 Q1621.6 28.3737 1619.2 25.7695 Q1616.83 23.1654 1612.89 23.1654 Q1608.44 23.1654 1605.75 25.6827 Q1603.08 28.2001 1602.68 32.7718 L1621.66 32.7429 Z" fill="#000000" fill-rule="nonzero" fill-opacity="1" /><path clip-path="url(#clip800)" d="M1667.35 6.87496 Q1663.47 13.53 1661.59 20.0404 Q1659.71 26.5508 1659.71 33.2348 Q1659.71 39.9188 1661.59 46.487 Q1663.5 53.0263 1667.35 59.6525 L1662.72 59.6525 Q1658.38 52.8527 1656.21 46.2845 Q1654.07 39.7162 1654.07 33.2348 Q1654.07 26.7823 1656.21 20.2429 Q1658.35 13.7036 1662.72 6.87496 L1667.35 6.87496 Z" fill="#000000" fill-rule="nonzero" fill-opacity="1" /><path clip-path="url(#clip800)" d="M1703.81 10.0578 L1703.81 15.758 Q1700.48 14.1666 1697.53 13.3853 Q1694.58 12.6041 1691.83 12.6041 Q1687.05 12.6041 1684.45 14.4559 Q1681.87 16.3078 1681.87 19.7221 Q1681.87 22.5867 1683.58 24.0624 Q1685.32 25.5091 1690.12 26.4061 L1693.65 27.1295 Q1700.19 28.3737 1703.29 31.5276 Q1706.41 34.6526 1706.41 39.9188 Q1706.41 46.1977 1702.19 49.4384 Q1697.99 52.6791 1689.86 52.6791 Q1686.79 52.6791 1683.32 51.9847 Q1679.88 51.2902 1676.17 49.9303 L1676.17 43.9118 Q1679.73 45.9083 1683.15 46.921 Q1686.56 47.9338 1689.86 47.9338 Q1694.87 47.9338 1697.59 45.9662 Q1700.31 43.9986 1700.31 40.3528 Q1700.31 37.1699 1698.34 35.376 Q1696.4 33.582 1691.94 32.685 L1688.38 31.9906 Q1681.84 30.6885 1678.92 27.9107 Q1676 25.133 1676 20.1851 Q1676 14.4559 1680.02 11.1573 Q1684.07 7.85875 1691.16 7.85875 Q1694.2 7.85875 1697.35 8.40852 Q1700.51 8.95829 1703.81 10.0578 Z" fill="#000000" fill-rule="nonzero" fill-opacity="1" /><path clip-path="url(#clip800)" d="M1721.37 13.4432 L1721.37 29.6758 L1728.72 29.6758 Q1732.8 29.6758 1735.03 27.5635 Q1737.26 25.4513 1737.26 21.545 Q1737.26 17.6677 1735.03 15.5555 Q1732.8 13.4432 1728.72 13.4432 L1721.37 13.4432 M1715.53 8.64 L1728.72 8.64 Q1735.98 8.64 1739.69 11.9386 Q1743.42 15.2083 1743.42 21.545 Q1743.42 27.9397 1739.69 31.2093 Q1735.98 34.479 1728.72 34.479 L1721.37 34.479 L1721.37 51.84 L1715.53 51.84 L1715.53 8.64 Z" fill="#000000" fill-rule="nonzero" fill-opacity="1" /><path clip-path="url(#clip800)" d="M1744.03 8.64 L1750.31 8.64 L1762.28 26.4061 L1774.18 8.64 L1780.46 8.64 L1765.18 31.2672 L1765.18 51.84 L1759.3 51.84 L1759.3 31.2672 L1744.03 8.64 Z" fill="#000000" fill-rule="nonzero" fill-opacity="1" /><path clip-path="url(#clip800)" d="M1787.28 44.4905 L1793.39 44.4905 L1793.39 49.4673 L1788.64 58.7265 L1784.91 58.7265 L1787.28 49.4673 L1787.28 44.4905 Z" fill="#000000" fill-rule="nonzero" fill-opacity="1" /><path clip-path="url(#clip800)" d="M1823.83 8.64 L1829.67 8.64 L1829.67 26.898 L1849.06 8.64 L1856.58 8.64 L1835.14 28.7788 L1858.12 51.84 L1850.42 51.84 L1829.67 31.0357 L1829.67 51.84 L1823.83 51.84 L1823.83 8.64 Z" fill="#000000" fill-rule="nonzero" fill-opacity="1" /><path clip-path="url(#clip800)" d="M1863.15 24.9304 L1900.25 24.9304 L1900.25 29.7915 L1863.15 29.7915 L1863.15 24.9304 M1863.15 36.7359 L1900.25 36.7359 L1900.25 41.6549 L1863.15 41.6549 L1863.15 36.7359 Z" fill="#000000" fill-rule="nonzero" fill-opacity="1" /><path clip-path="url(#clip800)" d="M1930.57 28.5473 Q1934.77 29.4443 1937.11 32.2799 Q1939.48 35.1156 1939.48 39.2822 Q1939.48 45.6768 1935.08 49.178 Q1930.69 52.6791 1922.58 52.6791 Q1919.86 52.6791 1916.97 52.1294 Q1914.11 51.6085 1911.04 50.5379 L1911.04 44.8956 Q1913.47 46.3134 1916.36 47.0368 Q1919.26 47.7602 1922.41 47.7602 Q1927.91 47.7602 1930.77 45.59 Q1933.67 43.4199 1933.67 39.2822 Q1933.67 35.4628 1930.98 33.3216 Q1928.31 31.1515 1923.54 31.1515 L1918.5 31.1515 L1918.5 26.3482 L1923.77 26.3482 Q1928.08 26.3482 1930.37 24.6411 Q1932.65 22.905 1932.65 19.6642 Q1932.65 16.3367 1930.28 14.5717 Q1927.94 12.7777 1923.54 12.7777 Q1921.14 12.7777 1918.39 13.2985 Q1915.64 13.8194 1912.34 14.9189 L1912.34 9.7106 Q1915.67 8.78468 1918.56 8.32171 Q1921.48 7.85875 1924.06 7.85875 Q1930.72 7.85875 1934.59 10.8969 Q1938.47 13.9062 1938.47 19.0566 Q1938.47 22.6446 1936.42 25.133 Q1934.36 27.5924 1930.57 28.5473 Z" fill="#000000" fill-rule="nonzero" fill-opacity="1" /><path clip-path="url(#clip800)" d="M1948.97 6.87496 L1953.6 6.87496 Q1957.94 13.7036 1960.08 20.2429 Q1962.25 26.7823 1962.25 33.2348 Q1962.25 39.7162 1960.08 46.2845 Q1957.94 52.8527 1953.6 59.6525 L1948.97 59.6525 Q1952.82 53.0263 1954.7 46.487 Q1956.61 39.9188 1956.61 33.2348 Q1956.61 26.5508 1954.7 20.0404 Q1952.82 13.53 1948.97 6.87496 Z" fill="#000000" fill-rule="nonzero" fill-opacity="1" /><polyline clip-path="url(#clip802)" style="stroke:#000080; stroke-linecap:round; stroke-linejoin:round; stroke-width:8; stroke-opacity:1; fill:none" points="594.16,1211.41 625.524,881.371 656.888,759.8 688.252,679.504 719.616,608.238 750.98,545.098 782.344,493.494 813.708,451.618 845.072,416.695 876.436,386.972 907.8,361.597 939.164,340.107 970.528,322.019 1001.89,306.705 1033.26,293.477 1064.62,281.706 1095.98,270.91 1127.35,260.789 1158.71,251.257 1190.08,242.447 1221.44,234.661 1252.8,228.222 1284.17,223.321 1315.53,219.925 1346.9,217.78 1378.26,216.522 1409.62,215.813 1440.99,215.418 1472.35,215.194 1503.72,215.064 1535.08,214.985 1566.44,214.936 1597.81,214.905 1629.17,214.884 1660.54,214.869 1691.9,214.859 1723.26,214.852 1754.63,214.846 1785.99,214.843 1817.36,214.84 1848.72,214.837 1880.08,214.836 1911.45,214.834 1942.81,214.833 1974.18,214.832 2005.54,214.832 2036.9,214.831 2068.27,214.831 2099.63,214.831 2131,214.83 2162.36,214.83 2193.72,214.83 2225.09,214.83 "/>
<circle clip-path="url(#clip802)" cx="594.16" cy="1211.41" r="10.8" fill="#000080" fill-rule="evenodd" fill-opacity="1" stroke="#000000" stroke-opacity="1" stroke-width="3.2"/>
<circle clip-path="url(#clip802)" cx="625.524" cy="881.371" r="10.8" fill="#000080" fill-rule="evenodd" fill-opacity="1" stroke="#000000" stroke-opacity="1" stroke-width="3.2"/>
<circle clip-path="url(#clip802)" cx="656.888" cy="759.8" r="10.8" fill="#000080" fill-rule="evenodd" fill-opacity="1" stroke="#000000" stroke-opacity="1" stroke-width="3.2"/>
<circle clip-path="url(#clip802)" cx="688.252" cy="679.504" r="10.8" fill="#000080" fill-rule="evenodd" fill-opacity="1" stroke="#000000" stroke-opacity="1" stroke-width="3.2"/>
<circle clip-path="url(#clip802)" cx="719.616" cy="608.238" r="10.8" fill="#000080" fill-rule="evenodd" fill-opacity="1" stroke="#000000" stroke-opacity="1" stroke-width="3.2"/>
<circle clip-path="url(#clip802)" cx="750.98" cy="545.098" r="10.8" fill="#000080" fill-rule="evenodd" fill-opacity="1" stroke="#000000" stroke-opacity="1" stroke-width="3.2"/>
<circle clip-path="url(#clip802)" cx="782.344" cy="493.494" r="10.8" fill="#000080" fill-rule="evenodd" fill-opacity="1" stroke="#000000" stroke-opacity="1" stroke-width="3.2"/>
<circle clip-path="url(#clip802)" cx="813.708" cy="451.618" r="10.8" fill="#000080" fill-rule="evenodd" fill-opacity="1" stroke="#000000" stroke-opacity="1" stroke-width="3.2"/>
<circle clip-path="url(#clip802)" cx="845.072" cy="416.695" r="10.8" fill="#000080" fill-rule="evenodd" fill-opacity="1" stroke="#000000" stroke-opacity="1" stroke-width="3.2"/>
<circle clip-path="url(#clip802)" cx="876.436" cy="386.972" r="10.8" fill="#000080" fill-rule="evenodd" fill-opacity="1" stroke="#000000" stroke-opacity="1" stroke-width="3.2"/>
<circle clip-path="url(#clip802)" cx="907.8" cy="361.597" r="10.8" fill="#000080" fill-rule="evenodd" fill-opacity="1" stroke="#000000" stroke-opacity="1" stroke-width="3.2"/>
<circle clip-path="url(#clip802)" cx="939.164" cy="340.107" r="10.8" fill="#000080" fill-rule="evenodd" fill-opacity="1" stroke="#000000" stroke-opacity="1" stroke-width="3.2"/>
<circle clip-path="url(#clip802)" cx="970.528" cy="322.019" r="10.8" fill="#000080" fill-rule="evenodd" fill-opacity="1" stroke="#000000" stroke-opacity="1" stroke-width="3.2"/>
<circle clip-path="url(#clip802)" cx="1001.89" cy="306.705" r="10.8" fill="#000080" fill-rule="evenodd" fill-opacity="1" stroke="#000000" stroke-opacity="1" stroke-width="3.2"/>
<circle clip-path="url(#clip802)" cx="1033.26" cy="293.477" r="10.8" fill="#000080" fill-rule="evenodd" fill-opacity="1" stroke="#000000" stroke-opacity="1" stroke-width="3.2"/>
<circle clip-path="url(#clip802)" cx="1064.62" cy="281.706" r="10.8" fill="#000080" fill-rule="evenodd" fill-opacity="1" stroke="#000000" stroke-opacity="1" stroke-width="3.2"/>
<circle clip-path="url(#clip802)" cx="1095.98" cy="270.91" r="10.8" fill="#000080" fill-rule="evenodd" fill-opacity="1" stroke="#000000" stroke-opacity="1" stroke-width="3.2"/>
<circle clip-path="url(#clip802)" cx="1127.35" cy="260.789" r="10.8" fill="#000080" fill-rule="evenodd" fill-opacity="1" stroke="#000000" stroke-opacity="1" stroke-width="3.2"/>
<circle clip-path="url(#clip802)" cx="1158.71" cy="251.257" r="10.8" fill="#000080" fill-rule="evenodd" fill-opacity="1" stroke="#000000" stroke-opacity="1" stroke-width="3.2"/>
<circle clip-path="url(#clip802)" cx="1190.08" cy="242.447" r="10.8" fill="#000080" fill-rule="evenodd" fill-opacity="1" stroke="#000000" stroke-opacity="1" stroke-width="3.2"/>
<circle clip-path="url(#clip802)" cx="1221.44" cy="234.661" r="10.8" fill="#000080" fill-rule="evenodd" fill-opacity="1" stroke="#000000" stroke-opacity="1" stroke-width="3.2"/>
<circle clip-path="url(#clip802)" cx="1252.8" cy="228.222" r="10.8" fill="#000080" fill-rule="evenodd" fill-opacity="1" stroke="#000000" stroke-opacity="1" stroke-width="3.2"/>
<circle clip-path="url(#clip802)" cx="1284.17" cy="223.321" r="10.8" fill="#000080" fill-rule="evenodd" fill-opacity="1" stroke="#000000" stroke-opacity="1" stroke-width="3.2"/>
<circle clip-path="url(#clip802)" cx="1315.53" cy="219.925" r="10.8" fill="#000080" fill-rule="evenodd" fill-opacity="1" stroke="#000000" stroke-opacity="1" stroke-width="3.2"/>
<circle clip-path="url(#clip802)" cx="1346.9" cy="217.78" r="10.8" fill="#000080" fill-rule="evenodd" fill-opacity="1" stroke="#000000" stroke-opacity="1" stroke-width="3.2"/>
<circle clip-path="url(#clip802)" cx="1378.26" cy="216.522" r="10.8" fill="#000080" fill-rule="evenodd" fill-opacity="1" stroke="#000000" stroke-opacity="1" stroke-width="3.2"/>
<circle clip-path="url(#clip802)" cx="1409.62" cy="215.813" r="10.8" fill="#000080" fill-rule="evenodd" fill-opacity="1" stroke="#000000" stroke-opacity="1" stroke-width="3.2"/>
<circle clip-path="url(#clip802)" cx="1440.99" cy="215.418" r="10.8" fill="#000080" fill-rule="evenodd" fill-opacity="1" stroke="#000000" stroke-opacity="1" stroke-width="3.2"/>
<circle clip-path="url(#clip802)" cx="1472.35" cy="215.194" r="10.8" fill="#000080" fill-rule="evenodd" fill-opacity="1" stroke="#000000" stroke-opacity="1" stroke-width="3.2"/>
<circle clip-path="url(#clip802)" cx="1503.72" cy="215.064" r="10.8" fill="#000080" fill-rule="evenodd" fill-opacity="1" stroke="#000000" stroke-opacity="1" stroke-width="3.2"/>
<circle clip-path="url(#clip802)" cx="1535.08" cy="214.985" r="10.8" fill="#000080" fill-rule="evenodd" fill-opacity="1" stroke="#000000" stroke-opacity="1" stroke-width="3.2"/>
<circle clip-path="url(#clip802)" cx="1566.44" cy="214.936" r="10.8" fill="#000080" fill-rule="evenodd" fill-opacity="1" stroke="#000000" stroke-opacity="1" stroke-width="3.2"/>
<circle clip-path="url(#clip802)" cx="1597.81" cy="214.905" r="10.8" fill="#000080" fill-rule="evenodd" fill-opacity="1" stroke="#000000" stroke-opacity="1" stroke-width="3.2"/>
<circle clip-path="url(#clip802)" cx="1629.17" cy="214.884" r="10.8" fill="#000080" fill-rule="evenodd" fill-opacity="1" stroke="#000000" stroke-opacity="1" stroke-width="3.2"/>
<circle clip-path="url(#clip802)" cx="1660.54" cy="214.869" r="10.8" fill="#000080" fill-rule="evenodd" fill-opacity="1" stroke="#000000" stroke-opacity="1" stroke-width="3.2"/>
<circle clip-path="url(#clip802)" cx="1691.9" cy="214.859" r="10.8" fill="#000080" fill-rule="evenodd" fill-opacity="1" stroke="#000000" stroke-opacity="1" stroke-width="3.2"/>
<circle clip-path="url(#clip802)" cx="1723.26" cy="214.852" r="10.8" fill="#000080" fill-rule="evenodd" fill-opacity="1" stroke="#000000" stroke-opacity="1" stroke-width="3.2"/>
<circle clip-path="url(#clip802)" cx="1754.63" cy="214.846" r="10.8" fill="#000080" fill-rule="evenodd" fill-opacity="1" stroke="#000000" stroke-opacity="1" stroke-width="3.2"/>
<circle clip-path="url(#clip802)" cx="1785.99" cy="214.843" r="10.8" fill="#000080" fill-rule="evenodd" fill-opacity="1" stroke="#000000" stroke-opacity="1" stroke-width="3.2"/>
<circle clip-path="url(#clip802)" cx="1817.36" cy="214.84" r="10.8" fill="#000080" fill-rule="evenodd" fill-opacity="1" stroke="#000000" stroke-opacity="1" stroke-width="3.2"/>
<circle clip-path="url(#clip802)" cx="1848.72" cy="214.837" r="10.8" fill="#000080" fill-rule="evenodd" fill-opacity="1" stroke="#000000" stroke-opacity="1" stroke-width="3.2"/>
<circle clip-path="url(#clip802)" cx="1880.08" cy="214.836" r="10.8" fill="#000080" fill-rule="evenodd" fill-opacity="1" stroke="#000000" stroke-opacity="1" stroke-width="3.2"/>
<circle clip-path="url(#clip802)" cx="1911.45" cy="214.834" r="10.8" fill="#000080" fill-rule="evenodd" fill-opacity="1" stroke="#000000" stroke-opacity="1" stroke-width="3.2"/>
<circle clip-path="url(#clip802)" cx="1942.81" cy="214.833" r="10.8" fill="#000080" fill-rule="evenodd" fill-opacity="1" stroke="#000000" stroke-opacity="1" stroke-width="3.2"/>
<circle clip-path="url(#clip802)" cx="1974.18" cy="214.832" r="10.8" fill="#000080" fill-rule="evenodd" fill-opacity="1" stroke="#000000" stroke-opacity="1" stroke-width="3.2"/>
<circle clip-path="url(#clip802)" cx="2005.54" cy="214.832" r="10.8" fill="#000080" fill-rule="evenodd" fill-opacity="1" stroke="#000000" stroke-opacity="1" stroke-width="3.2"/>
<circle clip-path="url(#clip802)" cx="2036.9" cy="214.831" r="10.8" fill="#000080" fill-rule="evenodd" fill-opacity="1" stroke="#000000" stroke-opacity="1" stroke-width="3.2"/>
<circle clip-path="url(#clip802)" cx="2068.27" cy="214.831" r="10.8" fill="#000080" fill-rule="evenodd" fill-opacity="1" stroke="#000000" stroke-opacity="1" stroke-width="3.2"/>
<circle clip-path="url(#clip802)" cx="2099.63" cy="214.831" r="10.8" fill="#000080" fill-rule="evenodd" fill-opacity="1" stroke="#000000" stroke-opacity="1" stroke-width="3.2"/>
<circle clip-path="url(#clip802)" cx="2131" cy="214.83" r="10.8" fill="#000080" fill-rule="evenodd" fill-opacity="1" stroke="#000000" stroke-opacity="1" stroke-width="3.2"/>
<circle clip-path="url(#clip802)" cx="2162.36" cy="214.83" r="10.8" fill="#000080" fill-rule="evenodd" fill-opacity="1" stroke="#000000" stroke-opacity="1" stroke-width="3.2"/>
<circle clip-path="url(#clip802)" cx="2193.72" cy="214.83" r="10.8" fill="#000080" fill-rule="evenodd" fill-opacity="1" stroke="#000000" stroke-opacity="1" stroke-width="3.2"/>
<circle clip-path="url(#clip802)" cx="2225.09" cy="214.83" r="10.8" fill="#000080" fill-rule="evenodd" fill-opacity="1" stroke="#000000" stroke-opacity="1" stroke-width="3.2"/>
</svg>
