<?xml version="1.0" encoding="utf-8"?>
<svg xmlns="http://www.w3.org/2000/svg" xmlns:xlink="http://www.w3.org/1999/xlink" width="700" height="500" viewBox="0 0 2800 2000">
<defs>
  <clipPath id="clip790">
    <rect x="0" y="0" width="2800" height="2000"/>
  </clipPath>
</defs>
<path clip-path="url(#clip790)" d="M0 2000 L2800 2000 L2800 -4.44089e-14 L0 -4.44089e-14  Z" fill="#ffffff" fill-rule="evenodd" fill-opacity="1"/>
<defs>
  <clipPath id="clip791">
    <rect x="448" y="125" width="2226" height="1506"/>
  </clipPath>
</defs>
<path clip-path="url(#clip790)" d="M448.779 1630.83 L2674.02 1630.83 L2674.02 125.984 L448.779 125.984  Z" fill="#ffffff" fill-rule="evenodd" fill-opacity="1"/>
<polyline clip-path="url(#clip791)" style="stroke:#000000; stroke-linecap:round; stroke-linejoin:round; stroke-width:2; stroke-opacity:0.1; fill:none" points="503.394,1630.83 503.394,125.984 "/>
<polyline clip-path="url(#clip791)" style="stroke:#000000; stroke-linecap:round; stroke-linejoin:round; stroke-width:2; stroke-opacity:0.1; fill:none" points="921.577,1630.83 921.577,125.984 "/>
<polyline clip-path="url(#clip791)" style="stroke:#000000; stroke-linecap:round; stroke-linejoin:round; stroke-width:2; stroke-opacity:0.1; fill:none" points="1339.76,1630.83 1339.76,125.984 "/>
<polyline clip-path="url(#clip791)" style="stroke:#000000; stroke-linecap:round; stroke-linejoin:round; stroke-width:2; stroke-opacity:0.1; fill:none" points="1757.94,1630.83 1757.94,125.984 "/>
<polyline clip-path="url(#clip791)" style="stroke:#000000; stroke-linecap:round; stroke-linejoin:round; stroke-width:2; stroke-opacity:0.1; fill:none" points="2176.13,1630.83 2176.13,125.984 "/>
<polyline clip-path="url(#clip791)" style="stroke:#000000; stroke-linecap:round; stroke-linejoin:round; stroke-width:2; stroke-opacity:0.1; fill:none" points="2594.31,1630.83 2594.31,125.984 "/>
<polyline clip-path="url(#clip791)" style="stroke:#000000; stroke-linecap:round; stroke-linejoin:round; stroke-width:2; stroke-opacity:0.1; fill:none" points="448.779,1388.02 2674.02,1388.02 "/>
<polyline clip-path="url(#clip791)" style="stroke:#000000; stroke-linecap:round; stroke-linejoin:round; stroke-width:2; stroke-opacity:0.1; fill:none" points="448.779,1009.14 2674.02,1009.14 "/>
<polyline clip-path="url(#clip791)" style="stroke:#000000; stroke-linecap:round; stroke-linejoin:round; stroke-width:2; stroke-opacity:0.1; fill:none" points="448.779,630.252 2674.02,630.252 "/>
<polyline clip-path="url(#clip791)" style="stroke:#000000; stroke-linecap:round; stroke-linejoin:round; stroke-width:2; stroke-opacity:0.1; fill:none" points="448.779,251.366 2674.02,251.366 "/>
<polyline clip-path="url(#clip790)" style="stroke:#000000; stroke-linecap:round; stroke-linejoin:round; stroke-width:4; stroke-opacity:1; fill:none" points="448.779,1630.83 2674.02,1630.83 "/>
<polyline clip-path="url(#clip790)" style="stroke:#000000; stroke-linecap:round; stroke-linejoin:round; stroke-width:4; stroke-opacity:1; fill:none" points="503.394,1630.83 503.394,1611.93 "/>
<polyline clip-path="url(#clip790)" style="stroke:#000000; stroke-linecap:round; stroke-linejoin:round; stroke-width:4; stroke-opacity:1; fill:none" points="921.577,1630.83 921.577,1611.93 "/>
<polyline clip-path="url(#clip790)" style="stroke:#000000; stroke-linecap:round; stroke-linejoin:round; stroke-width:4; stroke-opacity:1; fill:none" points="1339.76,1630.83 1339.76,1611.93 "/>
<polyline clip-path="url(#clip790)" style="stroke:#000000; stroke-linecap:round; stroke-linejoin:round; stroke-width:4; stroke-opacity:1; fill:none" points="1757.94,1630.83 1757.94,1611.93 "/>
<polyline clip-path="url(#clip790)" style="stroke:#000000; stroke-linecap:round; stroke-linejoin:round; stroke-width:4; stroke-opacity:1; fill:none" points="2176.13,1630.83 2176.13,1611.93 "/>
<polyline clip-path="url(#clip790)" style="stroke:#000000; stroke-linecap:round; stroke-linejoin:round; stroke-width:4; stroke-opacity:1; fill:none" points="2594.31,1630.83 2594.31,1611.93 "/>
<path clip-path="url(#clip790)" d="M503.394 1667.88 Q498.88 1667.88 496.594 1672.34 Q494.337 1676.76 494.337 1685.67 Q494.337 1694.56 496.594 1699.01 Q498.88 1703.44 503.394 1703.44 Q507.936 1703.44 510.193 1699.01 Q512.479 1694.56 512.479 1685.67 Q512.479 1676.76 510.193 1672.34 Q507.936 1667.88 503.394 1667.88 M503.394 1663.25 Q510.656 1663.25 514.476 1669.01 Q518.324 1674.74 518.324 1685.67 Q518.324 1696.58 514.476 1702.34 Q510.656 1708.07 503.394 1708.07 Q496.131 1708.07 492.283 1702.34 Q488.463 1696.58 488.463 1685.67 Q488.463 1674.74 492.283 1669.01 Q496.131 1663.25 503.394 1663.25 Z" fill="#000000" fill-rule="nonzero" fill-opacity="1" /><path clip-path="url(#clip790)" d="M889.951 1664.03 L912.896 1664.03 L912.896 1668.95 L895.304 1668.95 L895.304 1679.54 Q896.577 1679.11 897.85 1678.9 Q899.123 1678.67 900.396 1678.67 Q907.63 1678.67 911.855 1682.64 Q916.079 1686.6 916.079 1693.37 Q916.079 1700.34 911.739 1704.22 Q907.399 1708.07 899.499 1708.07 Q896.78 1708.07 893.944 1707.61 Q891.137 1707.14 888.128 1706.22 L888.128 1700.34 Q890.732 1701.76 893.51 1702.46 Q896.288 1703.15 899.384 1703.15 Q904.389 1703.15 907.312 1700.52 Q910.234 1697.89 910.234 1693.37 Q910.234 1688.86 907.312 1686.22 Q904.389 1683.59 899.384 1683.59 Q897.04 1683.59 894.696 1684.11 Q892.381 1684.63 889.951 1685.73 L889.951 1664.03 Z" fill="#000000" fill-rule="nonzero" fill-opacity="1" /><path clip-path="url(#clip790)" d="M940.095 1667.88 Q935.581 1667.88 933.296 1672.34 Q931.039 1676.76 931.039 1685.67 Q931.039 1694.56 933.296 1699.01 Q935.581 1703.44 940.095 1703.44 Q944.638 1703.44 946.895 1699.01 Q949.181 1694.56 949.181 1685.67 Q949.181 1676.76 946.895 1672.34 Q944.638 1667.88 940.095 1667.88 M940.095 1663.25 Q947.358 1663.25 951.177 1669.01 Q955.026 1674.74 955.026 1685.67 Q955.026 1696.58 951.177 1702.34 Q947.358 1708.07 940.095 1708.07 Q932.833 1708.07 928.984 1702.34 Q925.165 1696.58 925.165 1685.67 Q925.165 1674.74 928.984 1669.01 Q932.833 1663.25 940.095 1663.25 Z" fill="#000000" fill-rule="nonzero" fill-opacity="1" /><path clip-path="url(#clip790)" d="M1289.27 1702.31 L1298.82 1702.31 L1298.82 1669.36 L1288.43 1671.44 L1288.43 1666.11 L1298.76 1664.03 L1304.6 1664.03 L1304.6 1702.31 L1314.15 1702.31 L1314.15 1707.23 L1289.27 1707.23 L1289.27 1702.31 Z" fill="#000000" fill-rule="nonzero" fill-opacity="1" /><path clip-path="url(#clip790)" d="M1338.46 1667.88 Q1333.94 1667.88 1331.66 1672.34 Q1329.4 1676.76 1329.4 1685.67 Q1329.4 1694.56 1331.66 1699.01 Q1333.94 1703.44 1338.46 1703.44 Q1343 1703.44 1345.26 1699.01 Q1347.54 1694.56 1347.54 1685.67 Q1347.54 1676.76 1345.26 1672.34 Q1343 1667.88 1338.46 1667.88 M1338.46 1663.25 Q1345.72 1663.25 1349.54 1669.01 Q1353.39 1674.74 1353.39 1685.67 Q1353.39 1696.58 1349.54 1702.34 Q1345.72 1708.07 1338.46 1708.07 Q1331.2 1708.07 1327.35 1702.34 Q1323.53 1696.58 1323.53 1685.67 Q1323.53 1674.74 1327.35 1669.01 Q1331.2 1663.25 1338.46 1663.25 Z" fill="#000000" fill-rule="nonzero" fill-opacity="1" /><path clip-path="url(#clip790)" d="M1376.16 1667.88 Q1371.65 1667.88 1369.36 1672.34 Q1367.1 1676.76 1367.1 1685.67 Q1367.1 1694.56 1369.36 1699.01 Q1371.65 1703.44 1376.16 1703.44 Q1380.7 1703.44 1382.96 1699.01 Q1385.25 1694.56 1385.25 1685.67 Q1385.25 1676.76 1382.96 1672.34 Q1380.7 1667.88 1376.16 1667.88 M1376.16 1663.25 Q1383.42 1663.25 1387.24 1669.01 Q1391.09 1674.74 1391.09 1685.67 Q1391.09 1696.58 1387.24 1702.34 Q1383.42 1708.07 1376.16 1708.07 Q1368.9 1708.07 1365.05 1702.34 Q1361.23 1696.58 1361.23 1685.67 Q1361.23 1674.74 1365.05 1669.01 Q1368.9 1663.25 1376.16 1663.25 Z" fill="#000000" fill-rule="nonzero" fill-opacity="1" /><path clip-path="url(#clip790)" d="M1707.45 1702.31 L1717 1702.31 L1717 1669.36 L1706.61 1671.44 L1706.61 1666.11 L1716.94 1664.03 L1722.79 1664.03 L1722.79 1702.31 L1732.34 1702.31 L1732.34 1707.23 L1707.45 1707.23 L1707.45 1702.31 Z" fill="#000000" fill-rule="nonzero" fill-opacity="1" /><path clip-path="url(#clip790)" d="M1744.2 1664.03 L1767.14 1664.03 L1767.14 1668.95 L1749.55 1668.95 L1749.55 1679.54 Q1750.83 1679.11 1752.1 1678.9 Q1753.37 1678.67 1754.64 1678.67 Q1761.88 1678.67 1766.1 1682.64 Q1770.33 1686.6 1770.33 1693.37 Q1770.33 1700.34 1765.99 1704.22 Q1761.65 1708.07 1753.75 1708.07 Q1751.03 1708.07 1748.19 1707.61 Q1745.39 1707.14 1742.38 1706.22 L1742.38 1700.34 Q1744.98 1701.76 1747.76 1702.46 Q1750.54 1703.15 1753.63 1703.15 Q1758.64 1703.15 1761.56 1700.52 Q1764.48 1697.89 1764.48 1693.37 Q1764.48 1688.86 1761.56 1686.22 Q1758.64 1683.59 1753.63 1683.59 Q1751.29 1683.59 1748.94 1684.11 Q1746.63 1684.63 1744.2 1685.73 L1744.2 1664.03 Z" fill="#000000" fill-rule="nonzero" fill-opacity="1" /><path clip-path="url(#clip790)" d="M1794.34 1667.88 Q1789.83 1667.88 1787.54 1672.34 Q1785.29 1676.76 1785.29 1685.67 Q1785.29 1694.56 1787.54 1699.01 Q1789.83 1703.44 1794.34 1703.44 Q1798.89 1703.44 1801.14 1699.01 Q1803.43 1694.56 1803.43 1685.67 Q1803.43 1676.76 1801.14 1672.34 Q1798.89 1667.88 1794.34 1667.88 M1794.34 1663.25 Q1801.61 1663.25 1805.43 1669.01 Q1809.27 1674.74 1809.27 1685.67 Q1809.27 1696.58 1805.43 1702.34 Q1801.61 1708.07 1794.34 1708.07 Q1787.08 1708.07 1783.23 1702.34 Q1779.41 1696.58 1779.41 1685.67 Q1779.41 1674.74 1783.23 1669.01 Q1787.08 1663.25 1794.34 1663.25 Z" fill="#000000" fill-rule="nonzero" fill-opacity="1" /><path clip-path="url(#clip790)" d="M2130.74 1702.31 L2151.14 1702.31 L2151.14 1707.23 L2123.71 1707.23 L2123.71 1702.31 Q2127.04 1698.87 2132.77 1693.08 Q2138.53 1687.27 2140 1685.59 Q2142.81 1682.43 2143.91 1680.26 Q2145.04 1678.06 2145.04 1675.95 Q2145.04 1672.51 2142.61 1670.34 Q2140.2 1668.17 2136.33 1668.17 Q2133.58 1668.17 2130.51 1669.12 Q2127.47 1670.08 2124 1672.02 L2124 1666.11 Q2127.53 1664.7 2130.6 1663.97 Q2133.66 1663.25 2136.21 1663.25 Q2142.92 1663.25 2146.92 1666.61 Q2150.91 1669.96 2150.91 1675.58 Q2150.91 1678.24 2149.9 1680.64 Q2148.91 1683.01 2146.28 1686.25 Q2145.56 1687.09 2141.68 1691.11 Q2137.8 1695.11 2130.74 1702.31 Z" fill="#000000" fill-rule="nonzero" fill-opacity="1" /><path clip-path="url(#clip790)" d="M2175.91 1667.88 Q2171.4 1667.88 2169.11 1672.34 Q2166.85 1676.76 2166.85 1685.67 Q2166.85 1694.56 2169.11 1699.01 Q2171.4 1703.44 2175.91 1703.44 Q2180.45 1703.44 2182.71 1699.01 Q2185 1694.56 2185 1685.67 Q2185 1676.76 2182.71 1672.34 Q2180.45 1667.88 2175.91 1667.88 M2175.91 1663.25 Q2183.17 1663.25 2186.99 1669.01 Q2190.84 1674.74 2190.84 1685.67 Q2190.84 1696.58 2186.99 1702.34 Q2183.17 1708.07 2175.91 1708.07 Q2168.65 1708.07 2164.8 1702.34 Q2160.98 1696.58 2160.98 1685.67 Q2160.98 1674.74 2164.8 1669.01 Q2168.65 1663.25 2175.91 1663.25 Z" fill="#000000" fill-rule="nonzero" fill-opacity="1" /><path clip-path="url(#clip790)" d="M2213.61 1667.88 Q2209.1 1667.88 2206.81 1672.34 Q2204.56 1676.76 2204.56 1685.67 Q2204.56 1694.56 2206.81 1699.01 Q2209.1 1703.44 2213.61 1703.44 Q2218.15 1703.44 2220.41 1699.01 Q2222.7 1694.56 2222.7 1685.67 Q2222.7 1676.76 2220.41 1672.34 Q2218.15 1667.88 2213.61 1667.88 M2213.61 1663.25 Q2220.87 1663.25 2224.69 1669.01 Q2228.54 1674.74 2228.54 1685.67 Q2228.54 1696.58 2224.69 1702.34 Q2220.87 1708.07 2213.61 1708.07 Q2206.35 1708.07 2202.5 1702.34 Q2198.68 1696.58 2198.68 1685.67 Q2198.68 1674.74 2202.5 1669.01 Q2206.35 1663.25 2213.61 1663.25 Z" fill="#000000" fill-rule="nonzero" fill-opacity="1" /><path clip-path="url(#clip790)" d="M2548.93 1702.31 L2569.32 1702.31 L2569.32 1707.23 L2541.89 1707.23 L2541.89 1702.31 Q2545.22 1698.87 2550.95 1693.08 Q2556.71 1687.27 2558.18 1685.59 Q2560.99 1682.43 2562.09 1680.26 Q2563.22 1678.06 2563.22 1675.95 Q2563.22 1672.51 2560.79 1670.34 Q2558.39 1668.17 2554.51 1668.17 Q2551.76 1668.17 2548.69 1669.12 Q2545.66 1670.08 2542.18 1672.02 L2542.18 1666.11 Q2545.71 1664.7 2548.78 1663.97 Q2551.85 1663.25 2554.39 1663.25 Q2561.11 1663.25 2565.1 1666.61 Q2569.09 1669.96 2569.09 1675.58 Q2569.09 1678.24 2568.08 1680.64 Q2567.1 1683.01 2564.46 1686.25 Q2563.74 1687.09 2559.86 1691.11 Q2555.99 1695.11 2548.93 1702.31 Z" fill="#000000" fill-rule="nonzero" fill-opacity="1" /><path clip-path="url(#clip790)" d="M2581.65 1664.03 L2604.6 1664.03 L2604.6 1668.95 L2587 1668.95 L2587 1679.54 Q2588.28 1679.11 2589.55 1678.9 Q2590.82 1678.67 2592.1 1678.67 Q2599.33 1678.67 2603.55 1682.64 Q2607.78 1686.6 2607.78 1693.37 Q2607.78 1700.34 2603.44 1704.22 Q2599.1 1708.07 2591.2 1708.07 Q2588.48 1708.07 2585.64 1707.61 Q2582.84 1707.14 2579.83 1706.22 L2579.83 1700.34 Q2582.43 1701.76 2585.21 1702.46 Q2587.99 1703.15 2591.08 1703.15 Q2596.09 1703.15 2599.01 1700.52 Q2601.93 1697.89 2601.93 1693.37 Q2601.93 1688.86 2599.01 1686.22 Q2596.09 1683.59 2591.08 1683.59 Q2588.74 1683.59 2586.4 1684.11 Q2584.08 1684.63 2581.65 1685.73 L2581.65 1664.03 Z" fill="#000000" fill-rule="nonzero" fill-opacity="1" /><path clip-path="url(#clip790)" d="M2631.8 1667.88 Q2627.28 1667.88 2625 1672.34 Q2622.74 1676.76 2622.74 1685.67 Q2622.74 1694.56 2625 1699.01 Q2627.28 1703.44 2631.8 1703.44 Q2636.34 1703.44 2638.6 1699.01 Q2640.88 1694.56 2640.88 1685.67 Q2640.88 1676.76 2638.6 1672.34 Q2636.34 1667.88 2631.8 1667.88 M2631.8 1663.25 Q2639.06 1663.25 2642.88 1669.01 Q2646.73 1674.74 2646.73 1685.67 Q2646.73 1696.58 2642.88 1702.34 Q2639.06 1708.07 2631.8 1708.07 Q2624.53 1708.07 2620.68 1702.34 Q2616.86 1696.58 2616.86 1685.67 Q2616.86 1674.74 2620.68 1669.01 Q2624.53 1663.25 2631.8 1663.25 Z" fill="#000000" fill-rule="nonzero" fill-opacity="1" /><path clip-path="url(#clip790)" d="M1268.26 1747.14 L1274.69 1747.14 L1274.69 1789.24 L1297.83 1789.24 L1297.83 1794.66 L1268.26 1794.66 L1268.26 1747.14 Z" fill="#000000" fill-rule="nonzero" fill-opacity="1" /><path clip-path="url(#clip790)" d="M1320.52 1776.74 Q1313.42 1776.74 1310.68 1778.36 Q1307.95 1779.98 1307.95 1783.9 Q1307.95 1787.02 1309.98 1788.86 Q1312.05 1790.68 1315.59 1790.68 Q1320.46 1790.68 1323.38 1787.24 Q1326.34 1783.77 1326.34 1778.04 L1326.34 1776.74 L1320.52 1776.74 M1332.2 1774.32 L1332.2 1794.66 L1326.34 1794.66 L1326.34 1789.24 Q1324.34 1792.49 1321.35 1794.05 Q1318.35 1795.58 1314.03 1795.58 Q1308.55 1795.58 1305.3 1792.52 Q1302.09 1789.44 1302.09 1784.28 Q1302.09 1778.26 1306.1 1775.21 Q1310.14 1772.15 1318.13 1772.15 L1326.34 1772.15 L1326.34 1771.58 Q1326.34 1767.54 1323.67 1765.34 Q1321.03 1763.11 1316.22 1763.11 Q1313.17 1763.11 1310.27 1763.85 Q1307.37 1764.58 1304.7 1766.04 L1304.7 1760.63 Q1307.91 1759.39 1310.94 1758.78 Q1313.96 1758.15 1316.83 1758.15 Q1324.56 1758.15 1328.38 1762.16 Q1332.2 1766.17 1332.2 1774.32 Z" fill="#000000" fill-rule="nonzero" fill-opacity="1" /><path clip-path="url(#clip790)" d="M1367.72 1776.42 Q1367.72 1770.05 1365.08 1766.55 Q1362.47 1763.05 1357.73 1763.05 Q1353.02 1763.05 1350.37 1766.55 Q1347.76 1770.05 1347.76 1776.42 Q1347.76 1782.75 1350.37 1786.25 Q1353.02 1789.75 1357.73 1789.75 Q1362.47 1789.75 1365.08 1786.25 Q1367.72 1782.75 1367.72 1776.42 M1373.58 1790.23 Q1373.58 1799.33 1369.53 1803.76 Q1365.49 1808.21 1357.15 1808.21 Q1354.07 1808.21 1351.33 1807.74 Q1348.59 1807.29 1346.01 1806.34 L1346.01 1800.64 Q1348.59 1802.04 1351.11 1802.71 Q1353.62 1803.38 1356.23 1803.38 Q1361.99 1803.38 1364.86 1800.35 Q1367.72 1797.36 1367.72 1791.28 L1367.72 1788.39 Q1365.91 1791.54 1363.07 1793.1 Q1360.24 1794.66 1356.29 1794.66 Q1349.74 1794.66 1345.73 1789.66 Q1341.72 1784.66 1341.72 1776.42 Q1341.72 1768.14 1345.73 1763.15 Q1349.74 1758.15 1356.29 1758.15 Q1360.24 1758.15 1363.07 1759.71 Q1365.91 1761.27 1367.72 1764.42 L1367.72 1759.01 L1373.58 1759.01 L1373.58 1790.23 Z" fill="#000000" fill-rule="nonzero" fill-opacity="1" /><path clip-path="url(#clip790)" d="M1420.43 1745.19 Q1416.16 1752.51 1414.09 1759.68 Q1412.03 1766.84 1412.03 1774.19 Q1412.03 1781.54 1414.09 1788.77 Q1416.2 1795.96 1420.43 1803.25 L1415.34 1803.25 Q1410.56 1795.77 1408.17 1788.54 Q1405.82 1781.32 1405.82 1774.19 Q1405.82 1767.09 1408.17 1759.9 Q1410.53 1752.71 1415.34 1745.19 L1420.43 1745.19 Z" fill="#000000" fill-rule="nonzero" fill-opacity="1" /><path clip-path="url(#clip790)" d="M1437.58 1748.89 L1437.58 1759.01 L1449.65 1759.01 L1449.65 1763.56 L1437.58 1763.56 L1437.58 1782.91 Q1437.58 1787.27 1438.76 1788.51 Q1439.97 1789.75 1443.63 1789.75 L1449.65 1789.75 L1449.65 1794.66 L1443.63 1794.66 Q1436.85 1794.66 1434.27 1792.14 Q1431.7 1789.59 1431.7 1782.91 L1431.7 1763.56 L1427.4 1763.56 L1427.4 1759.01 L1431.7 1759.01 L1431.7 1748.89 L1437.58 1748.89 Z" fill="#000000" fill-rule="nonzero" fill-opacity="1" /><path clip-path="url(#clip790)" d="M1478.01 1764.48 Q1477.02 1763.91 1475.84 1763.65 Q1474.7 1763.37 1473.3 1763.37 Q1468.33 1763.37 1465.66 1766.61 Q1463.02 1769.83 1463.02 1775.88 L1463.02 1794.66 L1457.13 1794.66 L1457.13 1759.01 L1463.02 1759.01 L1463.02 1764.55 Q1464.86 1761.3 1467.82 1759.74 Q1470.78 1758.15 1475.01 1758.15 Q1475.62 1758.15 1476.35 1758.24 Q1477.08 1758.31 1477.97 1758.47 L1478.01 1764.48 Z" fill="#000000" fill-rule="nonzero" fill-opacity="1" /><path clip-path="url(#clip790)" d="M1500.35 1776.74 Q1493.25 1776.74 1490.52 1778.36 Q1487.78 1779.98 1487.78 1783.9 Q1487.78 1787.02 1489.81 1788.86 Q1491.88 1790.68 1495.42 1790.68 Q1500.29 1790.68 1503.21 1787.24 Q1506.17 1783.77 1506.17 1778.04 L1506.17 1776.74 L1500.35 1776.74 M1512.03 1774.32 L1512.03 1794.66 L1506.17 1794.66 L1506.17 1789.24 Q1504.17 1792.49 1501.18 1794.05 Q1498.19 1795.58 1493.86 1795.58 Q1488.38 1795.58 1485.14 1792.52 Q1481.92 1789.44 1481.92 1784.28 Q1481.92 1778.26 1485.93 1775.21 Q1489.97 1772.15 1497.96 1772.15 L1506.17 1772.15 L1506.17 1771.58 Q1506.17 1767.54 1503.5 1765.34 Q1500.86 1763.11 1496.05 1763.11 Q1493 1763.11 1490.1 1763.85 Q1487.2 1764.58 1484.53 1766.04 L1484.53 1760.63 Q1487.75 1759.39 1490.77 1758.78 Q1493.79 1758.15 1496.66 1758.15 Q1504.39 1758.15 1508.21 1762.16 Q1512.03 1766.17 1512.03 1774.32 Z" fill="#000000" fill-rule="nonzero" fill-opacity="1" /><path clip-path="url(#clip790)" d="M1547.55 1764.42 L1547.55 1745.13 L1553.41 1745.13 L1553.41 1794.66 L1547.55 1794.66 L1547.55 1789.31 Q1545.71 1792.49 1542.87 1794.05 Q1540.07 1795.58 1536.13 1795.58 Q1529.66 1795.58 1525.59 1790.42 Q1521.55 1785.27 1521.55 1776.86 Q1521.55 1768.46 1525.59 1763.3 Q1529.66 1758.15 1536.13 1758.15 Q1540.07 1758.15 1542.87 1759.71 Q1545.71 1761.24 1547.55 1764.42 M1527.6 1776.86 Q1527.6 1783.32 1530.24 1787.02 Q1532.91 1790.68 1537.56 1790.68 Q1542.2 1790.68 1544.88 1787.02 Q1547.55 1783.32 1547.55 1776.86 Q1547.55 1770.4 1544.88 1766.74 Q1542.2 1763.05 1537.56 1763.05 Q1532.91 1763.05 1530.24 1766.74 Q1527.6 1770.4 1527.6 1776.86 Z" fill="#000000" fill-rule="nonzero" fill-opacity="1" /><path clip-path="url(#clip790)" d="M1565.47 1759.01 L1571.33 1759.01 L1571.33 1794.66 L1565.47 1794.66 L1565.47 1759.01 M1565.47 1745.13 L1571.33 1745.13 L1571.33 1752.55 L1565.47 1752.55 L1565.47 1745.13 Z" fill="#000000" fill-rule="nonzero" fill-opacity="1" /><path clip-path="url(#clip790)" d="M1613.21 1773.14 L1613.21 1794.66 L1607.36 1794.66 L1607.36 1773.33 Q1607.36 1768.27 1605.38 1765.76 Q1603.41 1763.24 1599.46 1763.24 Q1594.72 1763.24 1591.98 1766.26 Q1589.25 1769.29 1589.25 1774.51 L1589.25 1794.66 L1583.36 1794.66 L1583.36 1759.01 L1589.25 1759.01 L1589.25 1764.55 Q1591.35 1761.33 1594.18 1759.74 Q1597.05 1758.15 1600.77 1758.15 Q1606.91 1758.15 1610.06 1761.97 Q1613.21 1765.76 1613.21 1773.14 Z" fill="#000000" fill-rule="nonzero" fill-opacity="1" /><path clip-path="url(#clip790)" d="M1648.35 1776.42 Q1648.35 1770.05 1645.71 1766.55 Q1643.1 1763.05 1638.36 1763.05 Q1633.65 1763.05 1631.01 1766.55 Q1628.4 1770.05 1628.4 1776.42 Q1628.4 1782.75 1631.01 1786.25 Q1633.65 1789.75 1638.36 1789.75 Q1643.1 1789.75 1645.71 1786.25 Q1648.35 1782.75 1648.35 1776.42 M1654.21 1790.23 Q1654.21 1799.33 1650.17 1803.76 Q1646.12 1808.21 1637.79 1808.21 Q1634.7 1808.21 1631.96 1807.74 Q1629.22 1807.29 1626.65 1806.34 L1626.65 1800.64 Q1629.22 1802.04 1631.74 1802.71 Q1634.25 1803.38 1636.86 1803.38 Q1642.62 1803.38 1645.49 1800.35 Q1648.35 1797.36 1648.35 1791.28 L1648.35 1788.39 Q1646.54 1791.54 1643.71 1793.1 Q1640.87 1794.66 1636.93 1794.66 Q1630.37 1794.66 1626.36 1789.66 Q1622.35 1784.66 1622.35 1776.42 Q1622.35 1768.14 1626.36 1763.15 Q1630.37 1758.15 1636.93 1758.15 Q1640.87 1758.15 1643.71 1759.71 Q1646.54 1761.27 1648.35 1764.42 L1648.35 1759.01 L1654.21 1759.01 L1654.21 1790.23 Z" fill="#000000" fill-rule="nonzero" fill-opacity="1" /><path clip-path="url(#clip790)" d="M1710.45 1764.42 L1710.45 1745.13 L1716.31 1745.13 L1716.31 1794.66 L1710.45 1794.66 L1710.45 1789.31 Q1708.6 1792.49 1705.77 1794.05 Q1702.97 1795.58 1699.02 1795.58 Q1692.56 1795.58 1688.49 1790.42 Q1684.45 1785.27 1684.45 1776.86 Q1684.45 1768.46 1688.49 1763.3 Q1692.56 1758.15 1699.02 1758.15 Q1702.97 1758.15 1705.77 1759.71 Q1708.6 1761.24 1710.45 1764.42 M1690.49 1776.86 Q1690.49 1783.32 1693.14 1787.02 Q1695.81 1790.68 1700.46 1790.68 Q1705.1 1790.68 1707.78 1787.02 Q1710.45 1783.32 1710.45 1776.86 Q1710.45 1770.4 1707.78 1766.74 Q1705.1 1763.05 1700.46 1763.05 Q1695.81 1763.05 1693.14 1766.74 Q1690.49 1770.4 1690.49 1776.86 Z" fill="#000000" fill-rule="nonzero" fill-opacity="1" /><path clip-path="url(#clip790)" d="M1744.57 1776.74 Q1737.47 1776.74 1734.74 1778.36 Q1732 1779.98 1732 1783.9 Q1732 1787.02 1734.04 1788.86 Q1736.1 1790.68 1739.64 1790.68 Q1744.51 1790.68 1747.44 1787.24 Q1750.4 1783.77 1750.4 1778.04 L1750.4 1776.74 L1744.57 1776.74 M1756.25 1774.32 L1756.25 1794.66 L1750.4 1794.66 L1750.4 1789.24 Q1748.39 1792.49 1745.4 1794.05 Q1742.41 1795.58 1738.08 1795.58 Q1732.6 1795.58 1729.36 1792.52 Q1726.14 1789.44 1726.14 1784.28 Q1726.14 1778.26 1730.15 1775.21 Q1734.19 1772.15 1742.18 1772.15 L1750.4 1772.15 L1750.4 1771.58 Q1750.4 1767.54 1747.72 1765.34 Q1745.08 1763.11 1740.27 1763.11 Q1737.22 1763.11 1734.32 1763.85 Q1731.43 1764.58 1728.75 1766.04 L1728.75 1760.63 Q1731.97 1759.39 1734.99 1758.78 Q1738.01 1758.15 1740.88 1758.15 Q1748.61 1758.15 1752.43 1762.16 Q1756.25 1766.17 1756.25 1774.32 Z" fill="#000000" fill-rule="nonzero" fill-opacity="1" /><path clip-path="url(#clip790)" d="M1783.15 1797.97 Q1780.66 1804.33 1778.31 1806.27 Q1775.95 1808.21 1772.01 1808.21 L1767.33 1808.21 L1767.33 1803.31 L1770.77 1803.31 Q1773.18 1803.31 1774.52 1802.17 Q1775.86 1801.02 1777.48 1796.76 L1778.53 1794.08 L1764.11 1759.01 L1770.32 1759.01 L1781.46 1786.89 L1792.6 1759.01 L1798.81 1759.01 L1783.15 1797.97 Z" fill="#000000" fill-rule="nonzero" fill-opacity="1" /><path clip-path="url(#clip790)" d="M1829.62 1760.06 L1829.62 1765.6 Q1827.13 1764.32 1824.46 1763.69 Q1821.79 1763.05 1818.92 1763.05 Q1814.56 1763.05 1812.37 1764.39 Q1810.2 1765.72 1810.2 1768.4 Q1810.2 1770.43 1811.76 1771.61 Q1813.32 1772.76 1818.03 1773.81 L1820.04 1774.25 Q1826.27 1775.59 1828.88 1778.04 Q1831.53 1780.46 1831.53 1784.82 Q1831.53 1789.79 1827.58 1792.68 Q1823.66 1795.58 1816.79 1795.58 Q1813.92 1795.58 1810.81 1795.01 Q1807.72 1794.46 1804.28 1793.35 L1804.28 1787.3 Q1807.53 1788.99 1810.68 1789.85 Q1813.83 1790.68 1816.92 1790.68 Q1821.05 1790.68 1823.28 1789.28 Q1825.51 1787.84 1825.51 1785.27 Q1825.51 1782.88 1823.89 1781.61 Q1822.3 1780.33 1816.85 1779.16 L1814.82 1778.68 Q1809.37 1777.53 1806.95 1775.18 Q1804.54 1772.79 1804.54 1768.65 Q1804.54 1763.62 1808.1 1760.89 Q1811.67 1758.15 1818.22 1758.15 Q1821.47 1758.15 1824.33 1758.63 Q1827.2 1759.1 1829.62 1760.06 Z" fill="#000000" fill-rule="nonzero" fill-opacity="1" /><path clip-path="url(#clip790)" d="M1839.93 1745.19 L1845.02 1745.19 Q1849.8 1752.71 1852.15 1759.9 Q1854.54 1767.09 1854.54 1774.19 Q1854.54 1781.32 1852.15 1788.54 Q1849.8 1795.77 1845.02 1803.25 L1839.93 1803.25 Q1844.16 1795.96 1846.23 1788.77 Q1848.33 1781.54 1848.33 1774.19 Q1848.33 1766.84 1846.23 1759.68 Q1844.16 1752.51 1839.93 1745.19 Z" fill="#000000" fill-rule="nonzero" fill-opacity="1" /><polyline clip-path="url(#clip790)" style="stroke:#000000; stroke-linecap:round; stroke-linejoin:round; stroke-width:4; stroke-opacity:1; fill:none" points="448.779,1630.83 448.779,125.984 "/>
<polyline clip-path="url(#clip790)" style="stroke:#000000; stroke-linecap:round; stroke-linejoin:round; stroke-width:4; stroke-opacity:1; fill:none" points="448.779,1388.02 467.676,1388.02 "/>
<polyline clip-path="url(#clip790)" style="stroke:#000000; stroke-linecap:round; stroke-linejoin:round; stroke-width:4; stroke-opacity:1; fill:none" points="448.779,1009.14 467.676,1009.14 "/>
<polyline clip-path="url(#clip790)" style="stroke:#000000; stroke-linecap:round; stroke-linejoin:round; stroke-width:4; stroke-opacity:1; fill:none" points="448.779,630.252 467.676,630.252 "/>
<polyline clip-path="url(#clip790)" style="stroke:#000000; stroke-linecap:round; stroke-linejoin:round; stroke-width:4; stroke-opacity:1; fill:none" points="448.779,251.366 467.676,251.366 "/>
<path clip-path="url(#clip790)" d="M335.309 1370.27 Q330.795 1370.27 328.51 1374.73 Q326.253 1379.15 326.253 1388.07 Q326.253 1396.95 328.51 1401.41 Q330.795 1405.83 335.309 1405.83 Q339.852 1405.83 342.109 1401.41 Q344.395 1396.95 344.395 1388.07 Q344.395 1379.15 342.109 1374.73 Q339.852 1370.27 335.309 1370.27 M335.309 1365.64 Q342.572 1365.64 346.391 1371.4 Q350.24 1377.13 350.24 1388.07 Q350.24 1398.98 346.391 1404.73 Q342.572 1410.46 335.309 1410.46 Q328.047 1410.46 324.198 1404.73 Q320.379 1398.98 320.379 1388.07 Q320.379 1377.13 324.198 1371.4 Q328.047 1365.64 335.309 1365.64 Z" fill="#000000" fill-rule="nonzero" fill-opacity="1" /><path clip-path="url(#clip790)" d="M360.512 1402.27 L366.617 1402.27 L366.617 1409.62 L360.512 1409.62 L360.512 1402.27 Z" fill="#000000" fill-rule="nonzero" fill-opacity="1" /><path clip-path="url(#clip790)" d="M391.848 1370.27 Q387.335 1370.27 385.049 1374.73 Q382.792 1379.15 382.792 1388.07 Q382.792 1396.95 385.049 1401.41 Q387.335 1405.83 391.848 1405.83 Q396.391 1405.83 398.648 1401.41 Q400.934 1396.95 400.934 1388.07 Q400.934 1379.15 398.648 1374.73 Q396.391 1370.27 391.848 1370.27 M391.848 1365.64 Q399.111 1365.64 402.93 1371.4 Q406.779 1377.13 406.779 1388.07 Q406.779 1398.98 402.93 1404.73 Q399.111 1410.46 391.848 1410.46 Q384.586 1410.46 380.737 1404.73 Q376.918 1398.98 376.918 1388.07 Q376.918 1377.13 380.737 1371.4 Q384.586 1365.64 391.848 1365.64 Z" fill="#000000" fill-rule="nonzero" fill-opacity="1" /><path clip-path="url(#clip790)" d="M336.843 991.386 Q332.329 991.386 330.043 995.842 Q327.786 1000.27 327.786 1009.18 Q327.786 1018.06 330.043 1022.52 Q332.329 1026.95 336.843 1026.95 Q341.386 1026.95 343.643 1022.52 Q345.928 1018.06 345.928 1009.18 Q345.928 1000.27 343.643 995.842 Q341.386 991.386 336.843 991.386 M336.843 986.756 Q344.106 986.756 347.925 992.514 Q351.773 998.243 351.773 1009.18 Q351.773 1020.09 347.925 1025.85 Q344.106 1031.58 336.843 1031.58 Q329.58 1031.58 325.732 1025.85 Q321.912 1020.09 321.912 1009.18 Q321.912 998.243 325.732 992.514 Q329.58 986.756 336.843 986.756 Z" fill="#000000" fill-rule="nonzero" fill-opacity="1" /><path clip-path="url(#clip790)" d="M362.045 1023.39 L368.151 1023.39 L368.151 1030.74 L362.045 1030.74 L362.045 1023.39 Z" fill="#000000" fill-rule="nonzero" fill-opacity="1" /><path clip-path="url(#clip790)" d="M381.895 1025.82 L391.443 1025.82 L391.443 992.861 L381.056 994.945 L381.056 989.621 L391.385 987.537 L397.23 987.537 L397.23 1025.82 L406.779 1025.82 L406.779 1030.74 L381.895 1030.74 L381.895 1025.82 Z" fill="#000000" fill-rule="nonzero" fill-opacity="1" /><path clip-path="url(#clip790)" d="M337.306 612.5 Q332.792 612.5 330.506 616.956 Q328.249 621.383 328.249 630.295 Q328.249 639.178 330.506 643.634 Q332.792 648.061 337.306 648.061 Q341.849 648.061 344.106 643.634 Q346.391 639.178 346.391 630.295 Q346.391 621.383 344.106 616.956 Q341.849 612.5 337.306 612.5 M337.306 607.87 Q344.569 607.87 348.388 613.628 Q352.236 619.357 352.236 630.295 Q352.236 641.203 348.388 646.961 Q344.569 652.691 337.306 652.691 Q330.043 652.691 326.195 646.961 Q322.375 641.203 322.375 630.295 Q322.375 619.357 326.195 613.628 Q330.043 607.87 337.306 607.87 Z" fill="#000000" fill-rule="nonzero" fill-opacity="1" /><path clip-path="url(#clip790)" d="M362.508 644.502 L368.614 644.502 L368.614 651.852 L362.508 651.852 L362.508 644.502 Z" fill="#000000" fill-rule="nonzero" fill-opacity="1" /><path clip-path="url(#clip790)" d="M386.38 646.933 L406.779 646.933 L406.779 651.852 L379.348 651.852 L379.348 646.933 Q382.676 643.489 388.405 637.702 Q394.163 631.886 395.639 630.208 Q398.446 627.054 399.545 624.884 Q400.674 622.685 400.674 620.573 Q400.674 617.129 398.243 614.959 Q395.841 612.789 391.964 612.789 Q389.215 612.789 386.148 613.744 Q383.11 614.699 379.638 616.638 L379.638 610.735 Q383.168 609.317 386.235 608.594 Q389.302 607.87 391.848 607.87 Q398.561 607.87 402.554 611.227 Q406.547 614.583 406.547 620.197 Q406.547 622.859 405.535 625.26 Q404.551 627.633 401.918 630.874 Q401.194 631.713 397.317 635.735 Q393.44 639.728 386.38 646.933 Z" fill="#000000" fill-rule="nonzero" fill-opacity="1" /><path clip-path="url(#clip790)" d="M336.12 233.614 Q331.606 233.614 329.32 238.07 Q327.063 242.497 327.063 251.409 Q327.063 260.292 329.32 264.748 Q331.606 269.175 336.12 269.175 Q340.662 269.175 342.919 264.748 Q345.205 260.292 345.205 251.409 Q345.205 242.497 342.919 238.07 Q340.662 233.614 336.12 233.614 M336.12 228.984 Q343.382 228.984 347.202 234.742 Q351.05 240.472 351.05 251.409 Q351.05 262.318 347.202 268.076 Q343.382 273.805 336.12 273.805 Q328.857 273.805 325.008 268.076 Q321.189 262.318 321.189 251.409 Q321.189 240.472 325.008 234.742 Q328.857 228.984 336.12 228.984 Z" fill="#000000" fill-rule="nonzero" fill-opacity="1" /><path clip-path="url(#clip790)" d="M361.322 265.616 L367.427 265.616 L367.427 272.966 L361.322 272.966 L361.322 265.616 Z" fill="#000000" fill-rule="nonzero" fill-opacity="1" /><path clip-path="url(#clip790)" d="M397.867 249.673 Q402.062 250.57 404.406 253.406 Q406.779 256.241 406.779 260.408 Q406.779 266.802 402.381 270.304 Q397.983 273.805 389.881 273.805 Q387.161 273.805 384.267 273.255 Q381.403 272.734 378.336 271.664 L378.336 266.021 Q380.766 267.439 383.66 268.162 Q386.553 268.886 389.707 268.886 Q395.205 268.886 398.069 266.716 Q400.963 264.545 400.963 260.408 Q400.963 256.588 398.272 254.447 Q395.61 252.277 390.836 252.277 L385.801 252.277 L385.801 247.474 L391.067 247.474 Q395.378 247.474 397.664 245.767 Q399.95 244.031 399.95 240.79 Q399.95 237.462 397.578 235.697 Q395.234 233.903 390.836 233.903 Q388.434 233.903 385.685 234.424 Q382.936 234.945 379.638 236.044 L379.638 230.836 Q382.965 229.91 385.859 229.447 Q388.781 228.984 391.356 228.984 Q398.012 228.984 401.889 232.023 Q405.766 235.032 405.766 240.182 Q405.766 243.77 403.712 246.259 Q401.657 248.718 397.867 249.673 Z" fill="#000000" fill-rule="nonzero" fill-opacity="1" /><path clip-path="url(#clip790)" d="M222.937 1024.44 L246.585 1033.16 L246.585 1015.68 L222.937 1024.44 M216.603 1028.07 L216.603 1020.78 L264.123 1002.67 L264.123 1009.35 L251.933 1013.68 L251.933 1035.1 L264.123 1039.43 L264.123 1046.21 L216.603 1028.07 Z" fill="#000000" fill-rule="nonzero" fill-opacity="1" /><path clip-path="url(#clip790)" d="M220.263 961.289 L227.043 961.289 Q224.019 964.536 222.523 968.228 Q221.027 971.888 221.027 976.026 Q221.027 984.174 226.024 988.503 Q230.989 992.831 240.411 992.831 Q249.8 992.831 254.797 988.503 Q259.762 984.174 259.762 976.026 Q259.762 971.888 258.266 968.228 Q256.77 964.536 253.747 961.289 L260.463 961.289 Q262.754 964.663 263.9 968.451 Q265.046 972.207 265.046 976.408 Q265.046 987.198 258.457 993.404 Q251.837 999.611 240.411 999.611 Q228.952 999.611 222.364 993.404 Q215.743 987.198 215.743 976.408 Q215.743 972.143 216.889 968.387 Q218.003 964.6 220.263 961.289 Z" fill="#000000" fill-rule="nonzero" fill-opacity="1" /><path clip-path="url(#clip790)" d="M216.603 951.359 L216.603 924.05 L222.014 924.05 L222.014 944.93 L236.018 944.93 L236.018 926.087 L241.429 926.087 L241.429 944.93 L264.123 944.93 L264.123 951.359 L216.603 951.359 Z" fill="#000000" fill-rule="nonzero" fill-opacity="1" /><path clip-path="url(#clip790)" d="M232.581 879.586 Q232.581 884.296 236.273 887.033 Q239.933 889.771 246.331 889.771 Q252.728 889.771 256.42 887.065 Q260.081 884.328 260.081 879.586 Q260.081 874.907 256.389 872.169 Q252.696 869.432 246.331 869.432 Q239.997 869.432 236.305 872.169 Q232.581 874.907 232.581 879.586 M227.616 879.586 Q227.616 871.947 232.581 867.586 Q237.546 863.226 246.331 863.226 Q255.084 863.226 260.081 867.586 Q265.046 871.947 265.046 879.586 Q265.046 887.256 260.081 891.617 Q255.084 895.945 246.331 895.945 Q237.546 895.945 232.581 891.617 Q227.616 887.256 227.616 879.586 Z" fill="#000000" fill-rule="nonzero" fill-opacity="1" /><path clip-path="url(#clip790)" d="M214.598 835.471 L219.467 835.471 L219.467 841.073 Q219.467 844.224 220.741 845.465 Q222.014 846.675 225.324 846.675 L228.475 846.675 L228.475 837.031 L233.026 837.031 L233.026 846.675 L264.123 846.675 L264.123 852.563 L233.026 852.563 L233.026 858.165 L228.475 858.165 L228.475 852.563 L225.992 852.563 Q220.04 852.563 217.335 849.794 Q214.598 847.025 214.598 841.009 L214.598 835.471 Z" fill="#000000" fill-rule="nonzero" fill-opacity="1" /><path clip-path="url(#clip790)" d="M214.311 802.306 L279.496 802.306 L279.496 807.717 L214.311 807.717 L214.311 802.306 Z" fill="#000000" fill-rule="nonzero" fill-opacity="1" /><path clip-path="url(#clip790)" d="M257.343 755.231 L244.58 755.231 L244.58 765.735 L239.297 765.735 L239.297 748.866 L259.699 748.866 Q262.34 752.59 263.709 757.078 Q265.046 761.565 265.046 766.658 Q265.046 777.798 258.553 784.1 Q252.028 790.37 240.411 790.37 Q228.761 790.37 222.268 784.1 Q215.743 777.798 215.743 766.658 Q215.743 762.011 216.889 757.841 Q218.035 753.64 220.263 750.107 L227.106 750.107 Q224.083 753.672 222.555 757.682 Q221.027 761.693 221.027 766.117 Q221.027 774.838 225.897 779.23 Q230.767 783.591 240.411 783.591 Q250.023 783.591 254.893 779.23 Q259.762 774.838 259.762 766.117 Q259.762 762.711 259.189 760.038 Q258.585 757.364 257.343 755.231 Z" fill="#000000" fill-rule="nonzero" fill-opacity="1" /><path clip-path="url(#clip790)" d="M238.501 736.007 L244.166 736.007 L244.166 728.4 L246.713 728.4 L246.713 736.007 L257.534 736.007 Q259.985 736.007 260.685 735.243 Q261.386 734.479 261.386 732.188 L261.386 728.4 L264.123 728.4 L264.123 732.188 Q264.123 736.453 262.691 738.076 Q261.29 739.699 257.534 739.699 L246.713 739.699 L246.713 742.405 L244.166 742.405 L244.166 739.699 L238.501 739.699 L238.501 736.007 Z" fill="#000000" fill-rule="nonzero" fill-opacity="1" /><path clip-path="url(#clip790)" d="M214.311 710.608 L279.496 710.608 L279.496 716.019 L214.311 716.019 L214.311 710.608 Z" fill="#000000" fill-rule="nonzero" fill-opacity="1" /><polyline clip-path="url(#clip791)" style="stroke:#d45e00; stroke-linecap:round; stroke-linejoin:round; stroke-width:8; stroke-opacity:1; fill:none" stroke-dasharray="32, 20" points="511.757,236.218 520.121,380.922 528.485,168.574 536.848,306.297 545.212,378.962 553.576,461.396 561.939,464.793 570.303,324.396 578.667,388.73 587.03,351.7 595.394,621.278 603.758,605.817 612.121,539.474 620.485,631.115 628.849,602.265 637.212,810.109 645.576,480.87 653.94,557.511 662.303,791.354 670.667,634.17 679.031,802.758 687.394,781.284 695.758,705.985 704.122,911.07 712.485,842.834 720.849,830.737 729.213,910.562 737.576,952.095 745.94,778.621 754.304,877.917 762.667,932.858 771.031,979.37 779.395,931.226 787.758,1007.18 796.122,971.167 804.486,950.084 812.849,991.9 821.213,936.44 829.577,906.064 837.94,1043.4 846.304,998.059 854.668,994.093 863.031,1012.8 871.395,1151.65 879.759,1065.52 888.122,926.313 896.486,1208.35 904.85,1123.9 913.213,1032.63 921.577,1166.84 929.941,1091.11 938.304,1126.92 946.668,1101.64 955.032,1147.82 963.395,1059.8 971.759,1113.93 980.123,1149.47 988.486,1134.12 996.85,1073.98 1005.21,1225.99 1013.58,1171.98 1021.94,1190.41 1030.3,1066.2 1038.67,1237.44 1047.03,1214.69 1055.4,1180.08 1063.76,1260.68 1072.12,1168.77 1080.49,1239.38 1088.85,1244.9 1097.21,1247.71 1105.58,1116.2 1113.94,1261.95 1122.3,1223.13 1130.67,1163.88 1139.03,1122.66 1147.4,1226.97 1155.76,1258.27 1164.12,1221.41 1172.49,1289.08 1180.85,1234.21 1189.21,1203.18 1197.58,1312.87 1205.94,1300.82 1214.31,1256.05 1222.67,1310.32 1231.03,1304.31 1239.4,1255.82 1247.76,1323.54 1256.12,1245.44 1264.49,1261.18 1272.85,1178.33 1281.21,1325.88 1289.58,1209.46 1297.94,1207.88 1306.31,1255.59 1314.67,1120.24 1323.03,1215.57 1331.4,1235.47 1339.76,1183.53 1348.12,1174.2 1356.49,1187.66 1364.85,1183.82 1373.21,1270.92 1381.58,1144.87 1389.94,1187.36 1398.31,1220.39 1406.67,1315.53 1415.03,1202.86 1423.4,1323.46 1431.76,1229.92 1440.12,1307.02 1448.49,1215.34 1456.85,1246.05 1465.22,1219.75 1473.58,1194.48 1481.94,1213.6 1490.31,1248.66 1498.67,1162.28 1507.03,1124.89 1515.4,1164.87 1523.76,1184.3 1532.12,1231.5 1540.49,1188.47 1548.85,1251.45 1557.22,1200.86 1565.58,1239.55 1573.94,1243.99 1582.31,1169.78 1590.67,1170.22 1599.03,1108.94 1607.4,1281.08 1615.76,1238.21 1624.12,1222.79 1632.49,1261.06 1640.85,1233.7 1649.22,1292.23 1657.58,1142.68 1665.94,1199.79 1674.31,1250.83 1682.67,1260.24 1691.03,1231.2 1699.4,1229.74 1707.76,1236.15 1716.13,1223.48 1724.49,1194.35 1732.85,1393.21 1741.22,1236.97 1749.58,1230.18 1757.94,1284.15 1766.31,1107.63 1774.67,1195.85 1783.03,1210.56 1791.4,1222.54 1799.76,1231.22 1808.13,1186.18 1816.49,1271.3 1824.85,1209.2 1833.22,1255.52 1841.58,1144.56 1849.94,1144.39 1858.31,1211.58 1866.67,1233.18 1875.03,1267.92 1883.4,1279.51 1891.76,1296.77 1900.13,1327.82 1908.49,1205.57 1916.85,1204.06 1925.22,1238.18 1933.58,1287.34 1941.94,1199.09 1950.31,1213.18 1958.67,1231.46 1967.04,1385.3 1975.4,1259.38 1983.76,1260.03 1992.13,1370.51 2000.49,1278.97 2008.85,1387.88 2017.22,1376.19 2025.58,1268.44 2033.94,1320.9 2042.31,1409.43 2050.67,1382.39 2059.04,1434.48 2067.4,1359.87 2075.76,1389.57 2084.13,1351.96 2092.49,1396.15 2100.85,1387.94 2109.22,1349.95 2117.58,1395.38 2125.94,1373.57 2134.31,1392.82 2142.67,1412.24 2151.04,1315.36 2159.4,1313.9 2167.76,1367.1 2176.13,1413.78 2184.49,1301.91 2192.85,1345.47 2201.22,1256.88 2209.58,1314.39 2217.95,1425.36 2226.31,1300.98 2234.67,1319.22 2243.04,1337.8 2251.4,1361.49 2259.76,1414.76 2268.13,1269.33 2276.49,1329.36 2284.85,1418.45 2293.22,1285.91 2301.58,1371.84 2309.95,1299.27 2318.31,1331.14 2326.67,1390.2 2335.04,1379.25 2343.4,1472.59 2351.76,1312.59 2360.13,1401.65 2368.49,1438.29 2376.85,1352.16 2385.22,1452.97 2393.58,1455.49 2401.95,1461.41 2410.31,1475.11 2418.67,1489.66 2427.04,1544.93 2435.4,1444.57 2443.76,1493.94 2452.13,1539.91 2460.49,1451.93 2468.86,1472.9 2477.22,1516.73 2485.58,1456.64 2493.95,1584.63 2502.31,1456.74 2510.67,1490.73 2519.04,1547.69 2527.4,1436.82 2535.76,1588.24 2544.13,1506.47 2552.49,1489.85 2560.86,1527.41 2569.22,1557.62 2577.58,1472.24 2585.95,1483.34 2594.31,1554.71 2602.67,1483.24 2611.04,1543.29 "/>
<polyline clip-path="url(#clip791)" style="stroke:#009e73; stroke-linecap:round; stroke-linejoin:round; stroke-width:8; stroke-opacity:1; fill:none" points="511.757,444.068 520.121,565.238 528.485,644.423 536.848,706.807 545.212,764.076 553.576,831.659 561.939,884.742 570.303,929.861 578.667,970.254 587.03,1012.12 595.394,1049.08 603.758,1078.44 612.121,1113.62 620.485,1137.88 628.849,1155.31 637.212,1180.55 645.576,1193.43 653.94,1220.15 662.303,1228.68 670.667,1248.29 679.031,1266.9 687.394,1268.74 695.758,1297.98 704.122,1292.48 712.485,1303.9 720.849,1310.64 729.213,1316.24 737.576,1333.83 745.94,1329.44 754.304,1334.66 762.667,1349.37 771.031,1350.72 779.395,1356.8 787.758,1365.08 796.122,1359.53 804.486,1370.01 812.849,1365.78 821.213,1369.21 829.577,1367.28 837.94,1369.58 846.304,1382.27 854.668,1385.22 863.031,1385.51 871.395,1385.92 879.759,1395.08 888.122,1390.23 896.486,1399.19 904.85,1390.91 913.213,1394.34 921.577,1396.69 929.941,1391.1 938.304,1393.51 946.668,1390.37 955.032,1399.38 963.395,1397.64 971.759,1394.39 980.123,1401.43 988.486,1394.2 996.85,1398.71 1005.21,1402.71 1013.58,1399.57 1021.94,1389.86 1030.3,1403.6 1038.67,1395.66 1047.03,1398.86 1055.4,1403.07 1063.76,1403.41 1072.12,1391.65 1080.49,1399.27 1088.85,1389.48 1097.21,1394.92 1105.58,1394.83 1113.94,1396.23 1122.3,1391.43 1130.67,1397.54 1139.03,1395.57 1147.4,1392.47 1155.76,1389.01 1164.12,1393.35 1172.49,1393.88 1180.85,1397.53 1189.21,1394.2 1197.58,1394.17 1205.94,1398.01 1214.31,1389.34 1222.67,1394.51 1231.03,1405.24 1239.4,1393.76 1247.76,1403.25 1256.12,1393.91 1264.49,1397.34 1272.85,1394.9 1281.21,1398.36 1289.58,1401.32 1297.94,1394.79 1306.31,1398.28 1314.67,1390.46 1323.03,1397.43 1331.4,1398.87 1339.76,1393.84 1348.12,1390.63 1356.49,1396.74 1364.85,1395.53 1373.21,1396.5 1381.58,1394.97 1389.94,1384.22 1398.31,1395.56 1406.67,1395.37 1415.03,1396.84 1423.4,1404.7 1431.76,1403.27 1440.12,1396.1 1448.49,1397.33 1456.85,1388.82 1465.22,1397.41 1473.58,1400.64 1481.94,1398.63 1490.31,1399.56 1498.67,1393.89 1507.03,1395.33 1515.4,1406.78 1523.76,1403.22 1532.12,1394.13 1540.49,1394.43 1548.85,1390.86 1557.22,1394.86 1565.58,1398.42 1573.94,1395.27 1582.31,1397.76 1590.67,1388.73 1599.03,1389.83 1607.4,1393.54 1615.76,1391.43 1624.12,1398.47 1632.49,1391.9 1640.85,1393.68 1649.22,1398.77 1657.58,1395.77 1665.94,1390.84 1674.31,1396.23 1682.67,1395.06 1691.03,1393.8 1699.4,1393.69 1707.76,1391.94 1716.13,1393.3 1724.49,1396.44 1732.85,1392.8 1741.22,1390.9 1749.58,1394.95 1757.94,1388.87 1766.31,1400.22 1774.67,1391.9 1783.03,1395.3 1791.4,1394.45 1799.76,1395.47 1808.13,1392.5 1816.49,1396.77 1824.85,1391.04 1833.22,1384.96 1841.58,1383.41 1849.94,1387.61 1858.31,1390.56 1866.67,1390.49 1875.03,1395.99 1883.4,1394.75 1891.76,1399.35 1900.13,1396.33 1908.49,1392.3 1916.85,1387.3 1925.22,1394.56 1933.58,1400.04 1941.94,1393.89 1950.31,1393.37 1958.67,1399.84 1967.04,1399.85 1975.4,1397.95 1983.76,1400.3 1992.13,1406.19 2000.49,1402.3 2008.85,1399.42 2017.22,1397.04 2025.58,1393.05 2033.94,1391.41 2042.31,1395.54 2050.67,1388.33 2059.04,1386.84 2067.4,1398.21 2075.76,1389.58 2084.13,1388.02 2092.49,1392.62 2100.85,1389.51 2109.22,1389.19 2117.58,1397.63 2125.94,1401.35 2134.31,1394.92 2142.67,1389.6 2151.04,1396.14 2159.4,1395.19 2167.76,1393.02 2176.13,1390.48 2184.49,1389.84 2192.85,1396.69 2201.22,1393.02 2209.58,1397.61 2217.95,1394.41 2226.31,1394.62 2234.67,1402.42 2243.04,1400.2 2251.4,1397.89 2259.76,1409.9 2268.13,1405.99 2276.49,1405.13 2284.85,1406.38 2293.22,1398.62 2301.58,1401.71 2309.95,1399.98 2318.31,1398.5 2326.67,1398.85 2335.04,1396.18 2343.4,1399.16 2351.76,1399.35 2360.13,1401.9 2368.49,1399.35 2376.85,1402.86 2385.22,1397.02 2393.58,1395.9 2401.95,1389.38 2410.31,1390 2418.67,1390.36 2427.04,1394.81 2435.4,1395.02 2443.76,1396.56 2452.13,1394.45 2460.49,1400.57 2468.86,1390.18 2477.22,1394.39 2485.58,1392.29 2493.95,1395.58 2502.31,1392.08 2510.67,1395.61 2519.04,1392.61 2527.4,1396.14 2535.76,1387.31 2544.13,1392.69 2552.49,1396.03 2560.86,1395.19 2569.22,1393.12 2577.58,1399.14 2585.95,1398.58 2594.31,1400.2 2602.67,1402.43 2611.04,1401.82 "/>
<path clip-path="url(#clip791)" d="M511.757 561.841 L520.121 696.633 L528.485 768.213 L536.848 838.868 L545.212 891.096 L553.576 952.24 L561.939 990.536 L570.303 1038.2 L578.667 1084.28 L587.03 1132.9 L595.394 1153.89 L603.758 1191.85 L612.121 1239.68 L620.485 1271.76 L628.849 1297.69 L637.212 1304.41 L645.576 1300.31 L653.94 1341.74 L662.303 1349.34 L670.667 1367.87 L679.031 1389.96 L687.394 1390.06 L695.758 1423.12 L704.122 1398.28 L712.485 1418.7 L720.849 1438.9 L729.213 1448.17 L737.576 1460.71 L745.94 1446.39 L754.304 1449.7 L762.667 1467.05 L771.031 1487.34 L779.395 1474.52 L787.758 1493.58 L796.122 1493.5 L804.486 1498.23 L812.849 1488.07 L821.213 1474.81 L829.577 1471.69 L837.94 1500.68 L846.304 1495.56 L854.668 1505.26 L863.031 1493.64 L871.395 1512.04 L879.759 1506.59 L888.122 1517.44 L896.486 1510.2 L904.85 1500.97 L913.213 1503.99 L921.577 1507.9 L929.941 1510.97 L938.304 1498.33 L946.668 1499.4 L955.032 1515.91 L963.395 1502.93 L971.759 1522.57 L980.123 1511.6 L988.486 1508.2 L996.85 1514.96 L1005.21 1499.15 L1013.58 1506.38 L1021.94 1514.38 L1030.3 1512.7 L1038.67 1516.59 L1047.03 1519.81 L1055.4 1512.77 L1063.76 1521.99 L1072.12 1505.62 L1080.49 1512.15 L1088.85 1511.51 L1097.21 1524.48 L1105.58 1515.14 L1113.94 1510.28 L1122.3 1521.38 L1130.67 1511.97 L1139.03 1501.59 L1147.4 1513.97 L1155.76 1513.29 L1164.12 1535.1 L1172.49 1518.29 L1180.85 1524.47 L1189.21 1519.5 L1197.58 1529.97 L1205.94 1503.84 L1214.31 1509.4 L1222.67 1512.08 L1231.03 1526 L1239.4 1509.3 L1247.76 1520.26 L1256.12 1511.15 L1264.49 1505.04 L1272.85 1515.56 L1281.21 1531.1 L1289.58 1517.24 L1297.94 1514.84 L1306.31 1517.34 L1314.67 1502.8 L1323.03 1534.2 L1331.4 1506.7 L1339.76 1506.14 L1348.12 1520.03 L1356.49 1521.58 L1364.85 1508.5 L1373.21 1522.07 L1381.58 1515.97 L1389.94 1506.68 L1398.31 1515.31 L1406.67 1515.06 L1415.03 1519.75 L1423.4 1519.13 L1431.76 1531.19 L1440.12 1516.51 L1448.49 1508.64 L1456.85 1511.41 L1465.22 1505.86 L1473.58 1535.74 L1481.94 1520.87 L1490.31 1519.1 L1498.67 1509.31 L1507.03 1516.24 L1515.4 1528.76 L1523.76 1519.67 L1532.12 1526.85 L1540.49 1508.62 L1548.85 1501.16 L1557.22 1518.5 L1565.58 1535.2 L1573.94 1502.95 L1582.31 1533.47 L1590.67 1510.59 L1599.03 1526.69 L1607.4 1530 L1615.76 1519.31 L1624.12 1516.05 L1632.49 1513.93 L1640.85 1513.01 L1649.22 1532.76 L1657.58 1523.03 L1665.94 1525.54 L1674.31 1515.77 L1682.67 1524 L1691.03 1504.08 L1699.4 1515.63 L1707.76 1510.97 L1716.13 1520.73 L1724.49 1502.18 L1732.85 1516.24 L1741.22 1500.38 L1749.58 1516.55 L1757.94 1500.16 L1766.31 1534.17 L1774.67 1512.06 L1783.03 1532.94 L1791.4 1515.58 L1799.76 1528.14 L1808.13 1502.62 L1816.49 1511.98 L1824.85 1513.6 L1833.22 1509 L1841.58 1501.57 L1849.94 1518.36 L1858.31 1513.94 L1866.67 1502.34 L1875.03 1523.93 L1883.4 1516.82 L1891.76 1514.91 L1900.13 1506.36 L1908.49 1514.76 L1916.85 1505.61 L1925.22 1501.67 L1933.58 1522.87 L1941.94 1515.4 L1950.31 1518.29 L1958.67 1512.68 L1967.04 1512.36 L1975.4 1505.08 L1983.76 1495.29 L1992.13 1523.54 L2000.49 1512.16 L2008.85 1511.28 L2017.22 1510.46 L2025.58 1517.64 L2033.94 1518.48 L2042.31 1509.7 L2050.67 1507.82 L2059.04 1489.97 L2067.4 1511.03 L2075.76 1502.93 L2084.13 1498.46 L2092.49 1524.5 L2100.85 1498.9 L2109.22 1499.53 L2117.58 1513.27 L2125.94 1519.46 L2134.31 1512.13 L2142.67 1509.22 L2151.04 1505.55 L2159.4 1518.51 L2167.76 1502.27 L2176.13 1511.64 L2184.49 1521.31 L2192.85 1516.26 L2201.22 1516.46 L2209.58 1507.98 L2217.95 1523.34 L2226.31 1516.16 L2234.67 1515.42 L2243.04 1504.71 L2251.4 1510.47 L2259.76 1532.02 L2268.13 1503.09 L2276.49 1529.17 L2284.85 1527.73 L2293.22 1484.48 L2301.58 1527.07 L2309.95 1510.55 L2318.31 1504.21 L2326.67 1508.59 L2335.04 1512.78 L2343.4 1509.8 L2351.76 1507.05 L2360.13 1510.11 L2368.49 1528.8 L2376.85 1527.97 L2385.22 1499.09 L2393.58 1513.36 L2401.95 1516.15 L2410.31 1503 L2418.67 1508.35 L2427.04 1515.35 L2435.4 1520.2 L2443.76 1517.93 L2452.13 1511 L2460.49 1520.23 L2468.86 1516.38 L2477.22 1517.98 L2485.58 1506.83 L2493.95 1533.09 L2502.31 1501.02 L2510.67 1500.39 L2519.04 1509.39 L2527.4 1501.68 L2535.76 1497.33 L2544.13 1488.88 L2552.49 1504.21 L2560.86 1506.43 L2569.22 1506.15 L2577.58 1510.61 L2585.95 1524.84 L2594.31 1509.81 L2602.67 1507.35 L2611.04 1515.85 L2611.04 1282.48 L2602.67 1290.11 L2594.31 1288.18 L2585.95 1289.44 L2577.58 1291.95 L2569.22 1273.4 L2560.86 1299.71 L2552.49 1282.89 L2544.13 1280.67 L2535.76 1267.55 L2527.4 1285.82 L2519.04 1283.42 L2510.67 1279.13 L2502.31 1281.83 L2493.95 1260.93 L2485.58 1274.92 L2477.22 1258.54 L2468.86 1268.58 L2460.49 1274.9 L2452.13 1289.89 L2443.76 1270.24 L2435.4 1272.61 L2427.04 1273.58 L2418.67 1273.74 L2410.31 1275.29 L2401.95 1275.19 L2393.58 1288.38 L2385.22 1268.31 L2376.85 1286 L2368.49 1285.18 L2360.13 1268.71 L2351.76 1288.75 L2343.4 1289.37 L2335.04 1275.13 L2326.67 1277.04 L2318.31 1264.9 L2309.95 1286.82 L2301.58 1280.57 L2293.22 1289.82 L2284.85 1279.82 L2276.49 1278.78 L2268.13 1300.73 L2259.76 1274.24 L2251.4 1261.86 L2243.04 1276.05 L2234.67 1275.62 L2226.31 1291.17 L2217.95 1277.48 L2209.58 1287.05 L2201.22 1276.53 L2192.85 1285.26 L2184.49 1259.91 L2176.13 1261.05 L2167.76 1286.68 L2159.4 1267.17 L2151.04 1272.72 L2142.67 1263.99 L2134.31 1270.53 L2125.94 1279.37 L2117.58 1278.16 L2109.22 1276.07 L2100.85 1269.54 L2092.49 1267.17 L2084.13 1271.96 L2075.76 1280.96 L2067.4 1263.6 L2059.04 1269.93 L2050.67 1274.38 L2042.31 1276.32 L2033.94 1264.63 L2025.58 1279.38 L2017.22 1297.58 L2008.85 1272.59 L2000.49 1282.77 L1992.13 1285.14 L1983.76 1282.18 L1975.4 1279.67 L1967.04 1283.2 L1958.67 1289.59 L1950.31 1282.11 L1941.94 1271.72 L1933.58 1271.57 L1925.22 1275.7 L1916.85 1282.3 L1908.49 1275.81 L1900.13 1279.99 L1891.76 1290.85 L1883.4 1284.23 L1875.03 1270.18 L1866.67 1281.33 L1858.31 1282.54 L1849.94 1253.26 L1841.58 1276.05 L1833.22 1268.73 L1824.85 1273.77 L1816.49 1276.42 L1808.13 1261.76 L1799.76 1272.91 L1791.4 1261.5 L1783.03 1278.71 L1774.67 1265.57 L1766.31 1261.99 L1757.94 1275.49 L1749.58 1266.27 L1741.22 1251.15 L1732.85 1255.84 L1724.49 1285.08 L1716.13 1272.75 L1707.76 1263.41 L1699.4 1256.29 L1691.03 1257.36 L1682.67 1260.46 L1674.31 1268.81 L1665.94 1261.91 L1657.58 1267.65 L1649.22 1269.02 L1640.85 1272.1 L1632.49 1259.65 L1624.12 1266.7 L1615.76 1268.72 L1607.4 1252.45 L1599.03 1263.88 L1590.67 1258.01 L1582.31 1273.25 L1573.94 1292.42 L1565.58 1271.31 L1557.22 1279.11 L1548.85 1268.46 L1540.49 1267.99 L1532.12 1277.77 L1523.76 1296.39 L1515.4 1282.88 L1507.03 1275.19 L1498.67 1280.61 L1490.31 1275.5 L1481.94 1291.23 L1473.58 1291.63 L1465.22 1288.66 L1456.85 1282.92 L1448.49 1277.69 L1440.12 1275.9 L1431.76 1280.48 L1423.4 1291.7 L1415.03 1278.36 L1406.67 1283.33 L1398.31 1258.47 L1389.94 1259.07 L1381.58 1285.17 L1373.21 1270.21 L1364.85 1269.83 L1356.49 1280.14 L1348.12 1258.61 L1339.76 1272.25 L1331.4 1282.75 L1323.03 1269.66 L1314.67 1271.98 L1306.31 1276.3 L1297.94 1283.11 L1289.58 1291.16 L1281.21 1284.8 L1272.85 1269.28 L1264.49 1276.07 L1256.12 1274.09 L1247.76 1278.26 L1239.4 1263.96 L1231.03 1276.27 L1222.67 1269.9 L1214.31 1250.12 L1205.94 1277.57 L1197.58 1262.17 L1189.21 1271.34 L1180.85 1266.7 L1172.49 1263.47 L1164.12 1255.68 L1155.76 1266.84 L1147.4 1276.15 L1139.03 1271.92 L1130.67 1287.71 L1122.3 1252.3 L1113.94 1276.34 L1105.58 1265.06 L1097.21 1251.6 L1088.85 1277.3 L1080.49 1283.87 L1072.12 1268.35 L1063.76 1289.58 L1055.4 1286.74 L1047.03 1271.2 L1038.67 1275.04 L1030.3 1297.88 L1021.94 1281.08 L1013.58 1283.52 L1005.21 1279.48 L996.85 1278.91 L988.486 1277.8 L980.123 1276.65 L971.759 1272.68 L963.395 1287.69 L955.032 1290.53 L946.668 1287.73 L938.304 1277.46 L929.941 1281.12 L921.577 1288.54 L913.213 1280.34 L904.85 1280.4 L896.486 1283.65 L888.122 1266.73 L879.759 1275.57 L871.395 1270.25 L863.031 1273.46 L854.668 1261.7 L846.304 1262.76 L837.94 1233.13 L829.577 1241.01 L821.213 1263.97 L812.849 1239.69 L804.486 1228.99 L796.122 1231.7 L787.758 1239.16 L779.395 1223.55 L771.031 1229.02 L762.667 1215.96 L754.304 1219.6 L745.94 1193.58 L737.576 1218.09 L729.213 1200.78 L720.849 1166.49 L712.485 1174.45 L704.122 1155.62 L695.758 1157.51 L687.394 1129.61 L679.031 1130.12 L670.667 1125.28 L662.303 1098.44 L653.94 1097.34 L645.576 1068.68 L637.212 1045.91 L628.849 1023.18 L620.485 1015.48 L612.121 1004.03 L603.758 951.467 L595.394 938.079 L587.03 884.282 L578.667 850.06 L570.303 828.068 L561.939 783.477 L553.576 715.099 L545.212 643.77 L536.848 595.582 L528.485 530.201 L520.121 433.743 L511.757 323.046  Z" fill="#009e73" fill-rule="evenodd" fill-opacity="0.2"/>
<polyline clip-path="url(#clip791)" style="stroke:#009e73; stroke-linecap:round; stroke-linejoin:round; stroke-width:4; stroke-opacity:0.2; fill:none" points="511.757,561.841 520.121,696.633 528.485,768.213 536.848,838.868 545.212,891.096 553.576,952.24 561.939,990.536 570.303,1038.2 578.667,1084.28 587.03,1132.9 595.394,1153.89 603.758,1191.85 612.121,1239.68 620.485,1271.76 628.849,1297.69 637.212,1304.41 645.576,1300.31 653.94,1341.74 662.303,1349.34 670.667,1367.87 679.031,1389.96 687.394,1390.06 695.758,1423.12 704.122,1398.28 712.485,1418.7 720.849,1438.9 729.213,1448.17 737.576,1460.71 745.94,1446.39 754.304,1449.7 762.667,1467.05 771.031,1487.34 779.395,1474.52 787.758,1493.58 796.122,1493.5 804.486,1498.23 812.849,1488.07 821.213,1474.81 829.577,1471.69 837.94,1500.68 846.304,1495.56 854.668,1505.26 863.031,1493.64 871.395,1512.04 879.759,1506.59 888.122,1517.44 896.486,1510.2 904.85,1500.97 913.213,1503.99 921.577,1507.9 929.941,1510.97 938.304,1498.33 946.668,1499.4 955.032,1515.91 963.395,1502.93 971.759,1522.57 980.123,1511.6 988.486,1508.2 996.85,1514.96 1005.21,1499.15 1013.58,1506.38 1021.94,1514.38 1030.3,1512.7 1038.67,1516.59 1047.03,1519.81 1055.4,1512.77 1063.76,1521.99 1072.12,1505.62 1080.49,1512.15 1088.85,1511.51 1097.21,1524.48 1105.58,1515.14 1113.94,1510.28 1122.3,1521.38 1130.67,1511.97 1139.03,1501.59 1147.4,1513.97 1155.76,1513.29 1164.12,1535.1 1172.49,1518.29 1180.85,1524.47 1189.21,1519.5 1197.58,1529.97 1205.94,1503.84 1214.31,1509.4 1222.67,1512.08 1231.03,1526 1239.4,1509.3 1247.76,1520.26 1256.12,1511.15 1264.49,1505.04 1272.85,1515.56 1281.21,1531.1 1289.58,1517.24 1297.94,1514.84 1306.31,1517.34 1314.67,1502.8 1323.03,1534.2 1331.4,1506.7 1339.76,1506.14 1348.12,1520.03 1356.49,1521.58 1364.85,1508.5 1373.21,1522.07 1381.58,1515.97 1389.94,1506.68 1398.31,1515.31 1406.67,1515.06 1415.03,1519.75 1423.4,1519.13 1431.76,1531.19 1440.12,1516.51 1448.49,1508.64 1456.85,1511.41 1465.22,1505.86 1473.58,1535.74 1481.94,1520.87 1490.31,1519.1 1498.67,1509.31 1507.03,1516.24 1515.4,1528.76 1523.76,1519.67 1532.12,1526.85 1540.49,1508.62 1548.85,1501.16 1557.22,1518.5 1565.58,1535.2 1573.94,1502.95 1582.31,1533.47 1590.67,1510.59 1599.03,1526.69 1607.4,1530 1615.76,1519.31 1624.12,1516.05 1632.49,1513.93 1640.85,1513.01 1649.22,1532.76 1657.58,1523.03 1665.94,1525.54 1674.31,1515.77 1682.67,1524 1691.03,1504.08 1699.4,1515.63 1707.76,1510.97 1716.13,1520.73 1724.49,1502.18 1732.85,1516.24 1741.22,1500.38 1749.58,1516.55 1757.94,1500.16 1766.31,1534.17 1774.67,1512.06 1783.03,1532.94 1791.4,1515.58 1799.76,1528.14 1808.13,1502.62 1816.49,1511.98 1824.85,1513.6 1833.22,1509 1841.58,1501.57 1849.94,1518.36 1858.31,1513.94 1866.67,1502.34 1875.03,1523.93 1883.4,1516.82 1891.76,1514.91 1900.13,1506.36 1908.49,1514.76 1916.85,1505.61 1925.22,1501.67 1933.58,1522.87 1941.94,1515.4 1950.31,1518.29 1958.67,1512.68 1967.04,1512.36 1975.4,1505.08 1983.76,1495.29 1992.13,1523.54 2000.49,1512.16 2008.85,1511.28 2017.22,1510.46 2025.58,1517.64 2033.94,1518.48 2042.31,1509.7 2050.67,1507.82 2059.04,1489.97 2067.4,1511.03 2075.76,1502.93 2084.13,1498.46 2092.49,1524.5 2100.85,1498.9 2109.22,1499.53 2117.58,1513.27 2125.94,1519.46 2134.31,1512.13 2142.67,1509.22 2151.04,1505.55 2159.4,1518.51 2167.76,1502.27 2176.13,1511.64 2184.49,1521.31 2192.85,1516.26 2201.22,1516.46 2209.58,1507.98 2217.95,1523.34 2226.31,1516.16 2234.67,1515.42 2243.04,1504.71 2251.4,1510.47 2259.76,1532.02 2268.13,1503.09 2276.49,1529.17 2284.85,1527.73 2293.22,1484.48 2301.58,1527.07 2309.95,1510.55 2318.31,1504.21 2326.67,1508.59 2335.04,1512.78 2343.4,1509.8 2351.76,1507.05 2360.13,1510.11 2368.49,1528.8 2376.85,1527.97 2385.22,1499.09 2393.58,1513.36 2401.95,1516.15 2410.31,1503 2418.67,1508.35 2427.04,1515.35 2435.4,1520.2 2443.76,1517.93 2452.13,1511 2460.49,1520.23 2468.86,1516.38 2477.22,1517.98 2485.58,1506.83 2493.95,1533.09 2502.31,1501.02 2510.67,1500.39 2519.04,1509.39 2527.4,1501.68 2535.76,1497.33 2544.13,1488.88 2552.49,1504.21 2560.86,1506.43 2569.22,1506.15 2577.58,1510.61 2585.95,1524.84 2594.31,1509.81 2602.67,1507.35 2611.04,1515.85 "/>
<path clip-path="url(#clip790)" d="M1868.41 409.426 L2599.84 409.426 L2599.84 176.146 L1868.41 176.146  Z" fill="#ffffff" fill-rule="evenodd" fill-opacity="1"/>
<polyline clip-path="url(#clip790)" style="stroke:#000000; stroke-linecap:round; stroke-linejoin:round; stroke-width:4; stroke-opacity:1; fill:none" points="1868.41,409.426 2599.84,409.426 2599.84,176.146 1868.41,176.146 1868.41,409.426 "/>
<polyline clip-path="url(#clip790)" style="stroke:#d45e00; stroke-linecap:round; stroke-linejoin:round; stroke-width:9; stroke-opacity:1; fill:none" stroke-dasharray="36, 23" points="1893.14,234.466 2041.49,234.466 "/>
<path clip-path="url(#clip790)" d="M2084.23 218.594 Q2078.5 218.594 2075.12 222.864 Q2071.76 227.135 2071.76 234.505 Q2071.76 241.849 2075.12 246.119 Q2078.5 250.39 2084.23 250.39 Q2089.96 250.39 2093.3 246.119 Q2096.66 241.849 2096.66 234.505 Q2096.66 227.135 2093.3 222.864 Q2089.96 218.594 2084.23 218.594 M2084.23 214.323 Q2092.41 214.323 2097.31 219.817 Q2102.2 225.286 2102.2 234.505 Q2102.2 243.698 2097.31 249.192 Q2092.41 254.661 2084.23 254.661 Q2076.03 254.661 2071.11 249.192 Q2066.21 243.724 2066.21 234.505 Q2066.21 225.286 2071.11 219.817 Q2076.03 214.323 2084.23 214.323 Z" fill="#000000" fill-rule="nonzero" fill-opacity="1" /><path clip-path="url(#clip790)" d="M2131.16 239.349 Q2131.16 234.062 2128.97 231.067 Q2126.81 228.047 2123.01 228.047 Q2119.21 228.047 2117.02 231.067 Q2114.86 234.062 2114.86 239.349 Q2114.86 244.635 2117.02 247.656 Q2119.21 250.651 2123.01 250.651 Q2126.81 250.651 2128.97 247.656 Q2131.16 244.635 2131.16 239.349 M2114.86 229.166 Q2116.37 226.562 2118.66 225.312 Q2120.98 224.036 2124.18 224.036 Q2129.49 224.036 2132.8 228.255 Q2136.13 232.474 2136.13 239.349 Q2136.13 246.224 2132.8 250.442 Q2129.49 254.661 2124.18 254.661 Q2120.98 254.661 2118.66 253.411 Q2116.37 252.135 2114.86 249.531 L2114.86 253.906 L2110.04 253.906 L2110.04 213.385 L2114.86 213.385 L2114.86 229.166 Z" fill="#000000" fill-rule="nonzero" fill-opacity="1" /><path clip-path="url(#clip790)" d="M2162.67 225.599 L2162.67 230.13 Q2160.64 229.088 2158.45 228.567 Q2156.26 228.047 2153.92 228.047 Q2150.35 228.047 2148.56 229.14 Q2146.79 230.234 2146.79 232.422 Q2146.79 234.088 2148.06 235.052 Q2149.34 235.989 2153.19 236.849 L2154.83 237.213 Q2159.94 238.307 2162.07 240.312 Q2164.23 242.291 2164.23 245.859 Q2164.23 249.921 2161 252.291 Q2157.8 254.661 2152.18 254.661 Q2149.83 254.661 2147.28 254.192 Q2144.75 253.75 2141.94 252.838 L2141.94 247.89 Q2144.6 249.27 2147.18 249.974 Q2149.75 250.651 2152.28 250.651 Q2155.67 250.651 2157.49 249.505 Q2159.31 248.333 2159.31 246.224 Q2159.31 244.27 2157.98 243.229 Q2156.68 242.187 2152.23 241.224 L2150.56 240.833 Q2146.11 239.895 2144.13 237.968 Q2142.15 236.015 2142.15 232.63 Q2142.15 228.515 2145.07 226.276 Q2147.98 224.036 2153.35 224.036 Q2156 224.036 2158.35 224.427 Q2160.69 224.817 2162.67 225.599 Z" fill="#000000" fill-rule="nonzero" fill-opacity="1" /><path clip-path="url(#clip790)" d="M2196.81 238.125 L2196.81 240.468 L2174.78 240.468 Q2175.09 245.416 2177.75 248.02 Q2180.43 250.599 2185.2 250.599 Q2187.96 250.599 2190.54 249.921 Q2193.14 249.244 2195.69 247.89 L2195.69 252.421 Q2193.11 253.515 2190.4 254.088 Q2187.7 254.661 2184.91 254.661 Q2177.93 254.661 2173.84 250.599 Q2169.78 246.536 2169.78 239.609 Q2169.78 232.448 2173.63 228.255 Q2177.51 224.036 2184.08 224.036 Q2189.96 224.036 2193.37 227.838 Q2196.81 231.614 2196.81 238.125 M2192.02 236.718 Q2191.97 232.786 2189.81 230.442 Q2187.67 228.099 2184.13 228.099 Q2180.12 228.099 2177.7 230.364 Q2175.3 232.63 2174.94 236.744 L2192.02 236.718 Z" fill="#000000" fill-rule="nonzero" fill-opacity="1" /><path clip-path="url(#clip790)" d="M2221.58 229.218 Q2220.77 228.75 2219.81 228.541 Q2218.87 228.307 2217.72 228.307 Q2213.66 228.307 2211.47 230.963 Q2209.31 233.593 2209.31 238.541 L2209.31 253.906 L2204.49 253.906 L2204.49 224.739 L2209.31 224.739 L2209.31 229.271 Q2210.82 226.614 2213.24 225.338 Q2215.67 224.036 2219.13 224.036 Q2219.62 224.036 2220.22 224.114 Q2220.82 224.166 2221.55 224.297 L2221.58 229.218 Z" fill="#000000" fill-rule="nonzero" fill-opacity="1" /><path clip-path="url(#clip790)" d="M2223.17 224.739 L2228.24 224.739 L2237.36 249.218 L2246.47 224.739 L2251.55 224.739 L2240.61 253.906 L2234.1 253.906 L2223.17 224.739 Z" fill="#000000" fill-rule="nonzero" fill-opacity="1" /><path clip-path="url(#clip790)" d="M2283.11 238.125 L2283.11 240.468 L2261.08 240.468 Q2261.39 245.416 2264.05 248.02 Q2266.73 250.599 2271.5 250.599 Q2274.26 250.599 2276.84 249.921 Q2279.44 249.244 2281.99 247.89 L2281.99 252.421 Q2279.41 253.515 2276.71 254.088 Q2274 254.661 2271.21 254.661 Q2264.23 254.661 2260.14 250.599 Q2256.08 246.536 2256.08 239.609 Q2256.08 232.448 2259.94 228.255 Q2263.82 224.036 2270.38 224.036 Q2276.26 224.036 2279.68 227.838 Q2283.11 231.614 2283.11 238.125 M2278.32 236.718 Q2278.27 232.786 2276.11 230.442 Q2273.97 228.099 2270.43 228.099 Q2266.42 228.099 2264 230.364 Q2261.6 232.63 2261.24 236.744 L2278.32 236.718 Z" fill="#000000" fill-rule="nonzero" fill-opacity="1" /><path clip-path="url(#clip790)" d="M2310.17 229.166 L2310.17 213.385 L2314.96 213.385 L2314.96 253.906 L2310.17 253.906 L2310.17 249.531 Q2308.66 252.135 2306.34 253.411 Q2304.05 254.661 2300.82 254.661 Q2295.53 254.661 2292.2 250.442 Q2288.89 246.224 2288.89 239.349 Q2288.89 232.474 2292.2 228.255 Q2295.53 224.036 2300.82 224.036 Q2304.05 224.036 2306.34 225.312 Q2308.66 226.562 2310.17 229.166 M2293.84 239.349 Q2293.84 244.635 2296 247.656 Q2298.19 250.651 2301.99 250.651 Q2305.79 250.651 2307.98 247.656 Q2310.17 244.635 2310.17 239.349 Q2310.17 234.062 2307.98 231.067 Q2305.79 228.047 2301.99 228.047 Q2298.19 228.047 2296 231.067 Q2293.84 234.062 2293.84 239.349 Z" fill="#000000" fill-rule="nonzero" fill-opacity="1" /><polyline clip-path="url(#clip790)" style="stroke:#009e73; stroke-linecap:round; stroke-linejoin:round; stroke-width:9; stroke-opacity:1; fill:none" points="1893.14,292.786 2041.49,292.786 "/>
<path clip-path="url(#clip790)" d="M2097.57 276.341 L2097.57 281.887 Q2094.91 279.414 2091.89 278.19 Q2088.89 276.966 2085.51 276.966 Q2078.84 276.966 2075.3 281.054 Q2071.76 285.117 2071.76 292.825 Q2071.76 300.507 2075.3 304.596 Q2078.84 308.658 2085.51 308.658 Q2088.89 308.658 2091.89 307.434 Q2094.91 306.21 2097.57 303.736 L2097.57 309.231 Q2094.81 311.106 2091.71 312.044 Q2088.63 312.981 2085.2 312.981 Q2076.37 312.981 2071.29 307.59 Q2066.21 302.174 2066.21 292.825 Q2066.21 283.45 2071.29 278.059 Q2076.37 272.643 2085.2 272.643 Q2088.69 272.643 2091.76 273.58 Q2094.86 274.492 2097.57 276.341 Z" fill="#000000" fill-rule="nonzero" fill-opacity="1" /><path clip-path="url(#clip790)" d="M2105.69 273.346 L2110.95 273.346 L2110.95 289.283 L2130.07 289.283 L2130.07 273.346 L2135.33 273.346 L2135.33 312.226 L2130.07 312.226 L2130.07 293.71 L2110.95 293.71 L2110.95 312.226 L2105.69 312.226 L2105.69 273.346 Z" fill="#000000" fill-rule="nonzero" fill-opacity="1" /><path clip-path="url(#clip790)" d="M2145.8 273.346 L2153.63 273.346 L2163.56 299.804 L2173.53 273.346 L2181.37 273.346 L2181.37 312.226 L2176.24 312.226 L2176.24 278.085 L2166.21 304.752 L2160.93 304.752 L2150.9 278.085 L2150.9 312.226 L2145.8 312.226 L2145.8 273.346 Z" fill="#000000" fill-rule="nonzero" fill-opacity="1" /><path clip-path="url(#clip790)" d="M2191.81 273.346 L2199.65 273.346 L2209.57 299.804 L2219.55 273.346 L2227.38 273.346 L2227.38 312.226 L2222.25 312.226 L2222.25 278.085 L2212.23 304.752 L2206.94 304.752 L2196.92 278.085 L2196.92 312.226 L2191.81 312.226 L2191.81 273.346 Z" fill="#000000" fill-rule="nonzero" fill-opacity="1" /><path clip-path="url(#clip790)" d="M2235.2 295.481 L2249.23 295.481 L2249.23 299.752 L2235.2 299.752 L2235.2 295.481 Z" fill="#000000" fill-rule="nonzero" fill-opacity="1" /><path clip-path="url(#clip790)" d="M2285.53 306.679 L2285.53 296.236 L2276.94 296.236 L2276.94 291.913 L2290.74 291.913 L2290.74 308.606 Q2287.7 310.768 2284.02 311.887 Q2280.35 312.981 2276.19 312.981 Q2267.07 312.981 2261.91 307.669 Q2256.78 302.33 2256.78 292.825 Q2256.78 283.294 2261.91 277.981 Q2267.07 272.643 2276.19 272.643 Q2279.99 272.643 2283.4 273.58 Q2286.84 274.518 2289.73 276.341 L2289.73 281.94 Q2286.81 279.466 2283.53 278.216 Q2280.25 276.966 2276.63 276.966 Q2269.49 276.966 2265.9 280.95 Q2262.33 284.934 2262.33 292.825 Q2262.33 300.689 2265.9 304.674 Q2269.49 308.658 2276.63 308.658 Q2279.41 308.658 2281.6 308.189 Q2283.79 307.695 2285.53 306.679 Z" fill="#000000" fill-rule="nonzero" fill-opacity="1" /><path clip-path="url(#clip790)" d="M2300.35 273.346 L2324.94 273.346 L2324.94 277.773 L2305.61 277.773 L2305.61 289.283 L2324.13 289.283 L2324.13 293.71 L2305.61 293.71 L2305.61 307.799 L2325.4 307.799 L2325.4 312.226 L2300.35 312.226 L2300.35 273.346 Z" fill="#000000" fill-rule="nonzero" fill-opacity="1" /><path clip-path="url(#clip790)" d="M2339.31 277.669 L2339.31 307.903 L2345.66 307.903 Q2353.71 307.903 2357.44 304.257 Q2361.19 300.611 2361.19 292.747 Q2361.19 284.934 2357.44 281.315 Q2353.71 277.669 2345.66 277.669 L2339.31 277.669 M2334.05 273.346 L2344.86 273.346 Q2356.16 273.346 2361.45 278.059 Q2366.73 282.747 2366.73 292.747 Q2366.73 302.799 2361.42 307.512 Q2356.11 312.226 2344.86 312.226 L2334.05 312.226 L2334.05 273.346 Z" fill="#000000" fill-rule="nonzero" fill-opacity="1" /><path clip-path="url(#clip790)" d="M2403.37 271.757 Q2399.88 277.747 2398.19 283.606 Q2396.5 289.466 2396.5 295.481 Q2396.5 301.497 2398.19 307.408 Q2399.91 313.294 2403.37 319.257 L2399.21 319.257 Q2395.3 313.137 2393.35 307.226 Q2391.42 301.314 2391.42 295.481 Q2391.42 289.674 2393.35 283.788 Q2395.27 277.903 2399.21 271.757 L2403.37 271.757 Z" fill="#000000" fill-rule="nonzero" fill-opacity="1" /><path clip-path="url(#clip790)" d="M2435.38 288.658 Q2437.17 285.429 2439.67 283.893 Q2442.17 282.356 2445.56 282.356 Q2450.12 282.356 2452.59 285.559 Q2455.06 288.736 2455.06 294.622 L2455.06 312.226 L2450.25 312.226 L2450.25 294.778 Q2450.25 290.585 2448.76 288.554 Q2447.28 286.523 2444.23 286.523 Q2440.51 286.523 2438.35 288.997 Q2436.18 291.471 2436.18 295.742 L2436.18 312.226 L2431.37 312.226 L2431.37 294.778 Q2431.37 290.559 2429.88 288.554 Q2428.4 286.523 2425.3 286.523 Q2421.63 286.523 2419.47 289.023 Q2417.3 291.497 2417.3 295.742 L2417.3 312.226 L2412.49 312.226 L2412.49 283.059 L2417.3 283.059 L2417.3 287.591 Q2418.95 284.908 2421.24 283.632 Q2423.53 282.356 2426.68 282.356 Q2429.86 282.356 2432.07 283.971 Q2434.31 285.585 2435.38 288.658 Z" fill="#000000" fill-rule="nonzero" fill-opacity="1" /><path clip-path="url(#clip790)" d="M2489.57 296.445 L2489.57 298.788 L2467.54 298.788 Q2467.85 303.736 2470.51 306.34 Q2473.19 308.919 2477.96 308.919 Q2480.72 308.919 2483.29 308.241 Q2485.9 307.564 2488.45 306.21 L2488.45 310.741 Q2485.87 311.835 2483.16 312.408 Q2480.46 312.981 2477.67 312.981 Q2470.69 312.981 2466.6 308.919 Q2462.54 304.856 2462.54 297.929 Q2462.54 290.768 2466.39 286.575 Q2470.27 282.356 2476.84 282.356 Q2482.72 282.356 2486.13 286.158 Q2489.57 289.934 2489.57 296.445 M2484.78 295.038 Q2484.73 291.106 2482.56 288.762 Q2480.43 286.419 2476.89 286.419 Q2472.88 286.419 2470.46 288.684 Q2468.06 290.95 2467.7 295.064 L2484.78 295.038 Z" fill="#000000" fill-rule="nonzero" fill-opacity="1" /><path clip-path="url(#clip790)" d="M2510.69 297.564 Q2504.88 297.564 2502.64 298.893 Q2500.4 300.221 2500.4 303.424 Q2500.4 305.976 2502.07 307.486 Q2503.76 308.971 2506.65 308.971 Q2510.64 308.971 2513.03 306.158 Q2515.46 303.32 2515.46 298.632 L2515.46 297.564 L2510.69 297.564 M2520.25 295.585 L2520.25 312.226 L2515.46 312.226 L2515.46 307.799 Q2513.81 310.455 2511.37 311.731 Q2508.92 312.981 2505.38 312.981 Q2500.9 312.981 2498.24 310.481 Q2495.61 307.955 2495.61 303.736 Q2495.61 298.814 2498.89 296.314 Q2502.2 293.814 2508.74 293.814 L2515.46 293.814 L2515.46 293.346 Q2515.46 290.038 2513.27 288.242 Q2511.11 286.419 2507.17 286.419 Q2504.67 286.419 2502.3 287.018 Q2499.93 287.617 2497.75 288.814 L2497.75 284.387 Q2500.38 283.372 2502.85 282.877 Q2505.33 282.356 2507.67 282.356 Q2514 282.356 2517.12 285.637 Q2520.25 288.919 2520.25 295.585 Z" fill="#000000" fill-rule="nonzero" fill-opacity="1" /><path clip-path="url(#clip790)" d="M2554.36 294.622 L2554.36 312.226 L2549.57 312.226 L2549.57 294.778 Q2549.57 290.637 2547.96 288.58 Q2546.34 286.523 2543.11 286.523 Q2539.23 286.523 2536.99 288.997 Q2534.75 291.471 2534.75 295.742 L2534.75 312.226 L2529.93 312.226 L2529.93 283.059 L2534.75 283.059 L2534.75 287.591 Q2536.47 284.96 2538.79 283.658 Q2541.13 282.356 2544.18 282.356 Q2549.21 282.356 2551.78 285.481 Q2554.36 288.58 2554.36 294.622 Z" fill="#000000" fill-rule="nonzero" fill-opacity="1" /><path clip-path="url(#clip790)" d="M2563.16 271.757 L2567.33 271.757 Q2571.24 277.903 2573.16 283.788 Q2575.12 289.674 2575.12 295.481 Q2575.12 301.314 2573.16 307.226 Q2571.24 313.137 2567.33 319.257 L2563.16 319.257 Q2566.63 313.294 2568.32 307.408 Q2570.04 301.497 2570.04 295.481 Q2570.04 289.466 2568.32 283.606 Q2566.63 277.747 2563.16 271.757 Z" fill="#000000" fill-rule="nonzero" fill-opacity="1" /><path clip-path="url(#clip790)" d="M1893.14 374.434 L2041.49 374.434 L2041.49 327.778 L1893.14 327.778 L1893.14 374.434  Z" fill="#009e73" fill-rule="evenodd" fill-opacity="0.2"/>
<polyline clip-path="url(#clip790)" style="stroke:#009e73; stroke-linecap:round; stroke-linejoin:round; stroke-width:4.5; stroke-opacity:0.2; fill:none" points="1893.14,327.778 2041.49,327.778 "/>
<path clip-path="url(#clip790)" d="M2066.97 366.119 L2075.56 366.119 L2075.56 336.457 L2066.21 338.332 L2066.21 333.541 L2075.51 331.666 L2080.77 331.666 L2080.77 366.119 L2089.36 366.119 L2089.36 370.546 L2066.97 370.546 L2066.97 366.119 Z" fill="#000000" fill-rule="nonzero" fill-opacity="1" /><path clip-path="url(#clip790)" d="M2111.24 335.129 Q2107.18 335.129 2105.12 339.14 Q2103.09 343.124 2103.09 351.145 Q2103.09 359.14 2105.12 363.15 Q2107.18 367.134 2111.24 367.134 Q2115.33 367.134 2117.36 363.15 Q2119.42 359.14 2119.42 351.145 Q2119.42 343.124 2117.36 339.14 Q2115.33 335.129 2111.24 335.129 M2111.24 330.963 Q2117.78 330.963 2121.21 336.145 Q2124.68 341.301 2124.68 351.145 Q2124.68 360.963 2121.21 366.145 Q2117.78 371.301 2111.24 371.301 Q2104.7 371.301 2101.24 366.145 Q2097.8 360.963 2097.8 351.145 Q2097.8 341.301 2101.24 336.145 Q2104.7 330.963 2111.24 330.963 Z" fill="#000000" fill-rule="nonzero" fill-opacity="1" /><path clip-path="url(#clip790)" d="M2130.82 353.801 L2144.86 353.801 L2144.86 358.072 L2130.82 358.072 L2130.82 353.801 Z" fill="#000000" fill-rule="nonzero" fill-opacity="1" /><path clip-path="url(#clip790)" d="M2153.32 369.739 L2153.32 364.947 Q2155.3 365.884 2157.33 366.379 Q2159.36 366.874 2161.32 366.874 Q2166.52 366.874 2169.26 363.384 Q2172.02 359.869 2172.41 352.733 Q2170.9 354.973 2168.58 356.171 Q2166.26 357.369 2163.45 357.369 Q2157.62 357.369 2154.21 353.853 Q2150.82 350.312 2150.82 344.192 Q2150.82 338.202 2154.36 334.582 Q2157.91 330.963 2163.79 330.963 Q2170.54 330.963 2174.08 336.145 Q2177.64 341.301 2177.64 351.145 Q2177.64 360.338 2173.27 365.832 Q2168.92 371.301 2161.55 371.301 Q2159.57 371.301 2157.54 370.91 Q2155.51 370.52 2153.32 369.739 M2163.79 353.254 Q2167.33 353.254 2169.39 350.832 Q2171.47 348.411 2171.47 344.192 Q2171.47 339.999 2169.39 337.577 Q2167.33 335.129 2163.79 335.129 Q2160.25 335.129 2158.17 337.577 Q2156.11 339.999 2156.11 344.192 Q2156.11 348.411 2158.17 350.832 Q2160.25 353.254 2163.79 353.254 Z" fill="#000000" fill-rule="nonzero" fill-opacity="1" /><path clip-path="url(#clip790)" d="M2198.35 335.129 Q2194.29 335.129 2192.23 339.14 Q2190.2 343.124 2190.2 351.145 Q2190.2 359.14 2192.23 363.15 Q2194.29 367.134 2198.35 367.134 Q2202.44 367.134 2204.47 363.15 Q2206.52 359.14 2206.52 351.145 Q2206.52 343.124 2204.47 339.14 Q2202.44 335.129 2198.35 335.129 M2198.35 330.963 Q2204.88 330.963 2208.32 336.145 Q2211.78 341.301 2211.78 351.145 Q2211.78 360.963 2208.32 366.145 Q2204.88 371.301 2198.35 371.301 Q2191.81 371.301 2188.35 366.145 Q2184.91 360.963 2184.91 351.145 Q2184.91 341.301 2188.35 336.145 Q2191.81 330.963 2198.35 330.963 Z" fill="#000000" fill-rule="nonzero" fill-opacity="1" /><path clip-path="url(#clip790)" d="M2225.09 333.098 L2225.09 341.379 L2234.96 341.379 L2234.96 345.103 L2225.09 345.103 L2225.09 360.937 Q2225.09 364.504 2226.06 365.52 Q2227.05 366.535 2230.04 366.535 L2234.96 366.535 L2234.96 370.546 L2230.04 370.546 Q2224.49 370.546 2222.38 368.489 Q2220.27 366.405 2220.27 360.937 L2220.27 345.103 L2216.76 345.103 L2216.76 341.379 L2220.27 341.379 L2220.27 333.098 L2225.09 333.098 Z" fill="#000000" fill-rule="nonzero" fill-opacity="1" /><path clip-path="url(#clip790)" d="M2265.51 352.942 L2265.51 370.546 L2260.72 370.546 L2260.72 353.098 Q2260.72 348.957 2259.1 346.9 Q2257.49 344.843 2254.26 344.843 Q2250.38 344.843 2248.14 347.317 Q2245.9 349.791 2245.9 354.062 L2245.9 370.546 L2241.08 370.546 L2241.08 330.025 L2245.9 330.025 L2245.9 345.911 Q2247.62 343.28 2249.94 341.978 Q2252.28 340.676 2255.33 340.676 Q2260.35 340.676 2262.93 343.801 Q2265.51 346.9 2265.51 352.942 Z" fill="#000000" fill-rule="nonzero" fill-opacity="1" /><path clip-path="url(#clip790)" d="M2296.65 366.171 L2296.65 381.64 L2291.84 381.64 L2291.84 341.379 L2296.65 341.379 L2296.65 345.806 Q2298.16 343.202 2300.46 341.952 Q2302.77 340.676 2305.98 340.676 Q2311.29 340.676 2314.6 344.895 Q2317.93 349.114 2317.93 355.989 Q2317.93 362.864 2314.6 367.082 Q2311.29 371.301 2305.98 371.301 Q2302.77 371.301 2300.46 370.051 Q2298.16 368.775 2296.65 366.171 M2312.96 355.989 Q2312.96 350.702 2310.77 347.707 Q2308.61 344.687 2304.81 344.687 Q2301 344.687 2298.82 347.707 Q2296.65 350.702 2296.65 355.989 Q2296.65 361.275 2298.82 364.296 Q2301 367.291 2304.81 367.291 Q2308.61 367.291 2310.77 364.296 Q2312.96 361.275 2312.96 355.989 Z" fill="#000000" fill-rule="nonzero" fill-opacity="1" /><path clip-path="url(#clip790)" d="M2346.86 342.499 L2346.86 346.978 Q2344.83 345.858 2342.77 345.312 Q2340.74 344.739 2338.66 344.739 Q2334 344.739 2331.42 347.707 Q2328.84 350.65 2328.84 355.989 Q2328.84 361.327 2331.42 364.296 Q2334 367.239 2338.66 367.239 Q2340.74 367.239 2342.77 366.692 Q2344.83 366.119 2346.86 364.999 L2346.86 369.426 Q2344.86 370.364 2342.7 370.832 Q2340.56 371.301 2338.14 371.301 Q2331.55 371.301 2327.67 367.16 Q2323.79 363.02 2323.79 355.989 Q2323.79 348.853 2327.7 344.765 Q2331.63 340.676 2338.45 340.676 Q2340.66 340.676 2342.77 341.145 Q2344.88 341.588 2346.86 342.499 Z" fill="#000000" fill-rule="nonzero" fill-opacity="1" /><path clip-path="url(#clip790)" d="M2359.94 333.098 L2359.94 341.379 L2369.8 341.379 L2369.8 345.103 L2359.94 345.103 L2359.94 360.937 Q2359.94 364.504 2360.9 365.52 Q2361.89 366.535 2364.88 366.535 L2369.8 366.535 L2369.8 370.546 L2364.88 370.546 Q2359.34 370.546 2357.23 368.489 Q2355.12 366.405 2355.12 360.937 L2355.12 345.103 L2351.6 345.103 L2351.6 341.379 L2355.12 341.379 L2355.12 333.098 L2359.94 333.098 Z" fill="#000000" fill-rule="nonzero" fill-opacity="1" /><path clip-path="url(#clip790)" d="M2376.11 330.025 L2380.9 330.025 L2380.9 370.546 L2376.11 370.546 L2376.11 330.025 Z" fill="#000000" fill-rule="nonzero" fill-opacity="1" /></svg>
