<?xml version="1.0" encoding="utf-8"?>
<svg xmlns="http://www.w3.org/2000/svg" xmlns:xlink="http://www.w3.org/1999/xlink" width="700" height="500" viewBox="0 0 2800 2000">
<defs>
  <clipPath id="clip880">
    <rect x="0" y="0" width="2800" height="2000"/>
  </clipPath>
</defs>
<path clip-path="url(#clip880)" d="M0 2000 L2800 2000 L2800 -4.44089e-14 L0 -4.44089e-14  Z" fill="#ffffff" fill-rule="evenodd" fill-opacity="1"/>
<defs>
  <clipPath id="clip881">
    <rect x="448" y="125" width="2226" height="1506"/>
  </clipPath>
</defs>
<path clip-path="url(#clip880)" d="M448.779 1630.83 L2674.02 1630.83 L2674.02 125.984 L448.779 125.984  Z" fill="#ffffff" fill-rule="evenodd" fill-opacity="1"/>
<polyline clip-path="url(#clip881)" style="stroke:#000000; stroke-linecap:round; stroke-linejoin:round; stroke-width:2; stroke-opacity:0.1; fill:none" points="503.394,1630.83 503.394,125.984 "/>
<polyline clip-path="url(#clip881)" style="stroke:#000000; stroke-linecap:round; stroke-linejoin:round; stroke-width:2; stroke-opacity:0.1; fill:none" points="921.577,1630.83 921.577,125.984 "/>
<polyline clip-path="url(#clip881)" style="stroke:#000000; stroke-linecap:round; stroke-linejoin:round; stroke-width:2; stroke-opacity:0.1; fill:none" points="1339.76,1630.83 1339.76,125.984 "/>
<polyline clip-path="url(#clip881)" style="stroke:#000000; stroke-linecap:round; stroke-linejoin:round; stroke-width:2; stroke-opacity:0.1; fill:none" points="1757.94,1630.83 1757.94,125.984 "/>
<polyline clip-path="url(#clip881)" style="stroke:#000000; stroke-linecap:round; stroke-linejoin:round; stroke-width:2; stroke-opacity:0.1; fill:none" points="2176.13,1630.83 2176.13,125.984 "/>
<polyline clip-path="url(#clip881)" style="stroke:#000000; stroke-linecap:round; stroke-linejoin:round; stroke-width:2; stroke-opacity:0.1; fill:none" points="2594.31,1630.83 2594.31,125.984 "/>
<polyline clip-path="url(#clip881)" style="stroke:#000000; stroke-linecap:round; stroke-linejoin:round; stroke-width:2; stroke-opacity:0.1; fill:none" points="448.779,1398.19 2674.02,1398.19 "/>
<polyline clip-path="url(#clip881)" style="stroke:#000000; stroke-linecap:round; stroke-linejoin:round; stroke-width:2; stroke-opacity:0.1; fill:none" points="448.779,1038.56 2674.02,1038.56 "/>
<polyline clip-path="url(#clip881)" style="stroke:#000000; stroke-linecap:round; stroke-linejoin:round; stroke-width:2; stroke-opacity:0.1; fill:none" points="448.779,678.918 2674.02,678.918 "/>
<polyline clip-path="url(#clip881)" style="stroke:#000000; stroke-linecap:round; stroke-linejoin:round; stroke-width:2; stroke-opacity:0.1; fill:none" points="448.779,319.28 2674.02,319.28 "/>
<polyline clip-path="url(#clip880)" style="stroke:#000000; stroke-linecap:round; stroke-linejoin:round; stroke-width:4; stroke-opacity:1; fill:none" points="448.779,1630.83 2674.02,1630.83 "/>
<polyline clip-path="url(#clip880)" style="stroke:#000000; stroke-linecap:round; stroke-linejoin:round; stroke-width:4; stroke-opacity:1; fill:none" points="503.394,1630.83 503.394,1611.93 "/>
<polyline clip-path="url(#clip880)" style="stroke:#000000; stroke-linecap:round; stroke-linejoin:round; stroke-width:4; stroke-opacity:1; fill:none" points="921.577,1630.83 921.577,1611.93 "/>
<polyline clip-path="url(#clip880)" style="stroke:#000000; stroke-linecap:round; stroke-linejoin:round; stroke-width:4; stroke-opacity:1; fill:none" points="1339.76,1630.83 1339.76,1611.93 "/>
<polyline clip-path="url(#clip880)" style="stroke:#000000; stroke-linecap:round; stroke-linejoin:round; stroke-width:4; stroke-opacity:1; fill:none" points="1757.94,1630.83 1757.94,1611.93 "/>
<polyline clip-path="url(#clip880)" style="stroke:#000000; stroke-linecap:round; stroke-linejoin:round; stroke-width:4; stroke-opacity:1; fill:none" points="2176.13,1630.83 2176.13,1611.93 "/>
<polyline clip-path="url(#clip880)" style="stroke:#000000; stroke-linecap:round; stroke-linejoin:round; stroke-width:4; stroke-opacity:1; fill:none" points="2594.31,1630.83 2594.31,1611.93 "/>
<path clip-path="url(#clip880)" d="M503.394 1667.88 Q498.88 1667.88 496.594 1672.34 Q494.337 1676.76 494.337 1685.67 Q494.337 1694.56 496.594 1699.01 Q498.88 1703.44 503.394 1703.44 Q507.936 1703.44 510.193 1699.01 Q512.479 1694.56 512.479 1685.67 Q512.479 1676.76 510.193 1672.34 Q507.936 1667.88 503.394 1667.88 M503.394 1663.25 Q510.656 1663.25 514.476 1669.01 Q518.324 1674.74 518.324 1685.67 Q518.324 1696.58 514.476 1702.34 Q510.656 1708.07 503.394 1708.07 Q496.131 1708.07 492.283 1702.34 Q488.463 1696.58 488.463 1685.67 Q488.463 1674.74 492.283 1669.01 Q496.131 1663.25 503.394 1663.25 Z" fill="#000000" fill-rule="nonzero" fill-opacity="1" /><path clip-path="url(#clip880)" d="M889.951 1664.03 L912.896 1664.03 L912.896 1668.95 L895.304 1668.95 L895.304 1679.54 Q896.577 1679.11 897.85 1678.9 Q899.123 1678.67 900.396 1678.67 Q907.63 1678.67 911.855 1682.64 Q916.079 1686.6 916.079 1693.37 Q916.079 1700.34 911.739 1704.22 Q907.399 1708.07 899.499 1708.07 Q896.78 1708.07 893.944 1707.61 Q891.137 1707.14 888.128 1706.22 L888.128 1700.34 Q890.732 1701.76 893.51 1702.46 Q896.288 1703.15 899.384 1703.15 Q904.389 1703.15 907.312 1700.52 Q910.234 1697.89 910.234 1693.37 Q910.234 1688.86 907.312 1686.22 Q904.389 1683.59 899.384 1683.59 Q897.04 1683.59 894.696 1684.11 Q892.381 1684.63 889.951 1685.73 L889.951 1664.03 Z" fill="#000000" fill-rule="nonzero" fill-opacity="1" /><path clip-path="url(#clip880)" d="M940.095 1667.88 Q935.581 1667.88 933.296 1672.34 Q931.039 1676.76 931.039 1685.67 Q931.039 1694.56 933.296 1699.01 Q935.581 1703.44 940.095 1703.44 Q944.638 1703.44 946.895 1699.01 Q949.181 1694.56 949.181 1685.67 Q949.181 1676.76 946.895 1672.34 Q944.638 1667.88 940.095 1667.88 M940.095 1663.25 Q947.358 1663.25 951.177 1669.01 Q955.026 1674.74 955.026 1685.67 Q955.026 1696.58 951.177 1702.34 Q947.358 1708.07 940.095 1708.07 Q932.833 1708.07 928.984 1702.34 Q925.165 1696.58 925.165 1685.67 Q925.165 1674.74 928.984 1669.01 Q932.833 1663.25 940.095 1663.25 Z" fill="#000000" fill-rule="nonzero" fill-opacity="1" /><path clip-path="url(#clip880)" d="M1289.27 1702.31 L1298.82 1702.31 L1298.82 1669.36 L1288.43 1671.44 L1288.43 1666.11 L1298.76 1664.03 L1304.6 1664.03 L1304.6 1702.31 L1314.15 1702.31 L1314.15 1707.23 L1289.27 1707.23 L1289.27 1702.31 Z" fill="#000000" fill-rule="nonzero" fill-opacity="1" /><path clip-path="url(#clip880)" d="M1338.46 1667.88 Q1333.94 1667.88 1331.66 1672.34 Q1329.4 1676.76 1329.4 1685.67 Q1329.4 1694.56 1331.66 1699.01 Q1333.94 1703.44 1338.46 1703.44 Q1343 1703.44 1345.26 1699.01 Q1347.54 1694.56 1347.54 1685.67 Q1347.54 1676.76 1345.26 1672.34 Q1343 1667.88 1338.46 1667.88 M1338.46 1663.25 Q1345.72 1663.25 1349.54 1669.01 Q1353.39 1674.74 1353.39 1685.67 Q1353.39 1696.58 1349.54 1702.34 Q1345.72 1708.07 1338.46 1708.07 Q1331.2 1708.07 1327.35 1702.34 Q1323.53 1696.58 1323.53 1685.67 Q1323.53 1674.74 1327.35 1669.01 Q1331.2 1663.25 1338.46 1663.25 Z" fill="#000000" fill-rule="nonzero" fill-opacity="1" /><path clip-path="url(#clip880)" d="M1376.16 1667.88 Q1371.65 1667.88 1369.36 1672.34 Q1367.1 1676.76 1367.1 1685.67 Q1367.1 1694.56 1369.36 1699.01 Q1371.65 1703.44 1376.16 1703.44 Q1380.7 1703.44 1382.96 1699.01 Q1385.25 1694.56 1385.25 1685.67 Q1385.25 1676.76 1382.96 1672.34 Q1380.7 1667.88 1376.16 1667.88 M1376.16 1663.25 Q1383.42 1663.25 1387.24 1669.01 Q1391.09 1674.74 1391.09 1685.67 Q1391.09 1696.58 1387.24 1702.34 Q1383.42 1708.07 1376.16 1708.07 Q1368.9 1708.07 1365.05 1702.34 Q1361.23 1696.58 1361.23 1685.67 Q1361.23 1674.74 1365.05 1669.01 Q1368.9 1663.25 1376.16 1663.25 Z" fill="#000000" fill-rule="nonzero" fill-opacity="1" /><path clip-path="url(#clip880)" d="M1707.45 1702.31 L1717 1702.31 L1717 1669.36 L1706.61 1671.44 L1706.61 1666.11 L1716.94 1664.03 L1722.79 1664.03 L1722.79 1702.31 L1732.34 1702.31 L1732.34 1707.23 L1707.45 1707.23 L1707.45 1702.31 Z" fill="#000000" fill-rule="nonzero" fill-opacity="1" /><path clip-path="url(#clip880)" d="M1744.2 1664.03 L1767.14 1664.03 L1767.14 1668.95 L1749.55 1668.95 L1749.55 1679.54 Q1750.83 1679.11 1752.1 1678.9 Q1753.37 1678.67 1754.64 1678.67 Q1761.88 1678.67 1766.1 1682.64 Q1770.33 1686.6 1770.33 1693.37 Q1770.33 1700.34 1765.99 1704.22 Q1761.65 1708.07 1753.75 1708.07 Q1751.03 1708.07 1748.19 1707.61 Q1745.39 1707.14 1742.38 1706.22 L1742.38 1700.34 Q1744.98 1701.76 1747.76 1702.46 Q1750.54 1703.15 1753.63 1703.15 Q1758.64 1703.15 1761.56 1700.52 Q1764.48 1697.89 1764.48 1693.37 Q1764.48 1688.86 1761.56 1686.22 Q1758.64 1683.59 1753.63 1683.59 Q1751.29 1683.59 1748.94 1684.11 Q1746.63 1684.63 1744.2 1685.73 L1744.2 1664.03 Z" fill="#000000" fill-rule="nonzero" fill-opacity="1" /><path clip-path="url(#clip880)" d="M1794.34 1667.88 Q1789.83 1667.88 1787.54 1672.34 Q1785.29 1676.76 1785.29 1685.67 Q1785.29 1694.56 1787.54 1699.01 Q1789.83 1703.44 1794.34 1703.44 Q1798.89 1703.44 1801.14 1699.01 Q1803.43 1694.56 1803.43 1685.67 Q1803.43 1676.76 1801.14 1672.34 Q1798.89 1667.88 1794.34 1667.88 M1794.34 1663.25 Q1801.61 1663.25 1805.43 1669.01 Q1809.27 1674.74 1809.27 1685.67 Q1809.27 1696.58 1805.43 1702.34 Q1801.61 1708.07 1794.34 1708.07 Q1787.08 1708.07 1783.23 1702.34 Q1779.41 1696.58 1779.41 1685.67 Q1779.41 1674.74 1783.23 1669.01 Q1787.08 1663.25 1794.34 1663.25 Z" fill="#000000" fill-rule="nonzero" fill-opacity="1" /><path clip-path="url(#clip880)" d="M2130.74 1702.31 L2151.14 1702.31 L2151.14 1707.23 L2123.71 1707.23 L2123.71 1702.31 Q2127.04 1698.87 2132.77 1693.08 Q2138.53 1687.27 2140 1685.59 Q2142.81 1682.43 2143.91 1680.26 Q2145.04 1678.06 2145.04 1675.95 Q2145.04 1672.51 2142.61 1670.34 Q2140.2 1668.17 2136.33 1668.17 Q2133.58 1668.17 2130.51 1669.12 Q2127.47 1670.08 2124 1672.02 L2124 1666.11 Q2127.53 1664.7 2130.6 1663.97 Q2133.66 1663.25 2136.21 1663.25 Q2142.92 1663.25 2146.92 1666.61 Q2150.91 1669.96 2150.91 1675.58 Q2150.91 1678.24 2149.9 1680.64 Q2148.91 1683.01 2146.28 1686.25 Q2145.56 1687.09 2141.68 1691.11 Q2137.8 1695.11 2130.74 1702.31 Z" fill="#000000" fill-rule="nonzero" fill-opacity="1" /><path clip-path="url(#clip880)" d="M2175.91 1667.88 Q2171.4 1667.88 2169.11 1672.34 Q2166.85 1676.76 2166.85 1685.67 Q2166.85 1694.56 2169.11 1699.01 Q2171.4 1703.44 2175.91 1703.44 Q2180.45 1703.44 2182.71 1699.01 Q2185 1694.56 2185 1685.67 Q2185 1676.76 2182.71 1672.34 Q2180.45 1667.88 2175.91 1667.88 M2175.91 1663.25 Q2183.17 1663.25 2186.99 1669.01 Q2190.84 1674.74 2190.84 1685.67 Q2190.84 1696.58 2186.99 1702.34 Q2183.17 1708.07 2175.91 1708.07 Q2168.65 1708.07 2164.8 1702.34 Q2160.98 1696.58 2160.98 1685.67 Q2160.98 1674.74 2164.8 1669.01 Q2168.65 1663.25 2175.91 1663.25 Z" fill="#000000" fill-rule="nonzero" fill-opacity="1" /><path clip-path="url(#clip880)" d="M2213.61 1667.88 Q2209.1 1667.88 2206.81 1672.34 Q2204.56 1676.76 2204.56 1685.67 Q2204.56 1694.56 2206.81 1699.01 Q2209.1 1703.44 2213.61 1703.44 Q2218.15 1703.44 2220.41 1699.01 Q2222.7 1694.56 2222.7 1685.67 Q2222.7 1676.76 2220.41 1672.34 Q2218.15 1667.88 2213.61 1667.88 M2213.61 1663.25 Q2220.87 1663.25 2224.69 1669.01 Q2228.54 1674.74 2228.54 1685.67 Q2228.54 1696.58 2224.69 1702.34 Q2220.87 1708.07 2213.61 1708.07 Q2206.35 1708.07 2202.5 1702.34 Q2198.68 1696.58 2198.68 1685.67 Q2198.68 1674.74 2202.5 1669.01 Q2206.35 1663.25 2213.61 1663.25 Z" fill="#000000" fill-rule="nonzero" fill-opacity="1" /><path clip-path="url(#clip880)" d="M2548.93 1702.31 L2569.32 1702.31 L2569.32 1707.23 L2541.89 1707.23 L2541.89 1702.31 Q2545.22 1698.87 2550.95 1693.08 Q2556.71 1687.27 2558.18 1685.59 Q2560.99 1682.43 2562.09 1680.26 Q2563.22 1678.06 2563.22 1675.95 Q2563.22 1672.51 2560.79 1670.34 Q2558.39 1668.17 2554.51 1668.17 Q2551.76 1668.17 2548.69 1669.12 Q2545.66 1670.08 2542.18 1672.02 L2542.18 1666.11 Q2545.71 1664.7 2548.78 1663.97 Q2551.85 1663.25 2554.39 1663.25 Q2561.11 1663.25 2565.1 1666.61 Q2569.09 1669.96 2569.09 1675.58 Q2569.09 1678.24 2568.08 1680.64 Q2567.1 1683.01 2564.46 1686.25 Q2563.74 1687.09 2559.86 1691.11 Q2555.99 1695.11 2548.93 1702.31 Z" fill="#000000" fill-rule="nonzero" fill-opacity="1" /><path clip-path="url(#clip880)" d="M2581.65 1664.03 L2604.6 1664.03 L2604.6 1668.95 L2587 1668.95 L2587 1679.54 Q2588.28 1679.11 2589.55 1678.9 Q2590.82 1678.67 2592.1 1678.67 Q2599.33 1678.67 2603.55 1682.64 Q2607.78 1686.6 2607.78 1693.37 Q2607.78 1700.34 2603.44 1704.22 Q2599.1 1708.07 2591.2 1708.07 Q2588.48 1708.07 2585.64 1707.61 Q2582.84 1707.14 2579.83 1706.22 L2579.83 1700.34 Q2582.43 1701.76 2585.21 1702.46 Q2587.99 1703.15 2591.08 1703.15 Q2596.09 1703.15 2599.01 1700.52 Q2601.93 1697.89 2601.93 1693.37 Q2601.93 1688.86 2599.01 1686.22 Q2596.09 1683.59 2591.08 1683.59 Q2588.74 1683.59 2586.4 1684.11 Q2584.08 1684.63 2581.65 1685.73 L2581.65 1664.03 Z" fill="#000000" fill-rule="nonzero" fill-opacity="1" /><path clip-path="url(#clip880)" d="M2631.8 1667.88 Q2627.28 1667.88 2625 1672.34 Q2622.74 1676.76 2622.74 1685.67 Q2622.74 1694.56 2625 1699.01 Q2627.28 1703.44 2631.8 1703.44 Q2636.34 1703.44 2638.6 1699.01 Q2640.88 1694.56 2640.88 1685.67 Q2640.88 1676.76 2638.6 1672.34 Q2636.34 1667.88 2631.8 1667.88 M2631.8 1663.25 Q2639.06 1663.25 2642.88 1669.01 Q2646.73 1674.74 2646.73 1685.67 Q2646.73 1696.58 2642.88 1702.34 Q2639.06 1708.07 2631.8 1708.07 Q2624.53 1708.07 2620.68 1702.34 Q2616.86 1696.58 2616.86 1685.67 Q2616.86 1674.74 2620.68 1669.01 Q2624.53 1663.25 2631.8 1663.25 Z" fill="#000000" fill-rule="nonzero" fill-opacity="1" /><path clip-path="url(#clip880)" d="M1268.26 1747.14 L1274.69 1747.14 L1274.69 1789.24 L1297.83 1789.24 L1297.83 1794.66 L1268.26 1794.66 L1268.26 1747.14 Z" fill="#000000" fill-rule="nonzero" fill-opacity="1" /><path clip-path="url(#clip880)" d="M1320.52 1776.74 Q1313.42 1776.74 1310.68 1778.36 Q1307.95 1779.98 1307.95 1783.9 Q1307.95 1787.02 1309.98 1788.86 Q1312.05 1790.68 1315.59 1790.68 Q1320.46 1790.68 1323.38 1787.24 Q1326.34 1783.77 1326.34 1778.04 L1326.34 1776.74 L1320.52 1776.74 M1332.2 1774.32 L1332.2 1794.66 L1326.34 1794.66 L1326.34 1789.24 Q1324.34 1792.49 1321.35 1794.05 Q1318.35 1795.58 1314.03 1795.58 Q1308.55 1795.58 1305.3 1792.52 Q1302.09 1789.44 1302.09 1784.28 Q1302.09 1778.26 1306.1 1775.21 Q1310.14 1772.15 1318.13 1772.15 L1326.34 1772.15 L1326.34 1771.58 Q1326.34 1767.54 1323.67 1765.34 Q1321.03 1763.11 1316.22 1763.11 Q1313.17 1763.11 1310.27 1763.85 Q1307.37 1764.58 1304.7 1766.04 L1304.7 1760.63 Q1307.91 1759.39 1310.94 1758.78 Q1313.96 1758.15 1316.83 1758.15 Q1324.56 1758.15 1328.38 1762.16 Q1332.2 1766.17 1332.2 1774.32 Z" fill="#000000" fill-rule="nonzero" fill-opacity="1" /><path clip-path="url(#clip880)" d="M1367.72 1776.42 Q1367.72 1770.05 1365.08 1766.55 Q1362.47 1763.05 1357.73 1763.05 Q1353.02 1763.05 1350.37 1766.55 Q1347.76 1770.05 1347.76 1776.42 Q1347.76 1782.75 1350.37 1786.25 Q1353.02 1789.75 1357.73 1789.75 Q1362.47 1789.75 1365.08 1786.25 Q1367.72 1782.75 1367.72 1776.42 M1373.58 1790.23 Q1373.58 1799.33 1369.53 1803.76 Q1365.49 1808.21 1357.15 1808.21 Q1354.07 1808.21 1351.33 1807.74 Q1348.59 1807.29 1346.01 1806.34 L1346.01 1800.64 Q1348.59 1802.04 1351.11 1802.71 Q1353.62 1803.38 1356.23 1803.38 Q1361.99 1803.38 1364.86 1800.35 Q1367.72 1797.36 1367.72 1791.28 L1367.72 1788.39 Q1365.91 1791.54 1363.07 1793.1 Q1360.24 1794.66 1356.29 1794.66 Q1349.74 1794.66 1345.73 1789.66 Q1341.72 1784.66 1341.72 1776.42 Q1341.72 1768.14 1345.73 1763.15 Q1349.74 1758.15 1356.29 1758.15 Q1360.24 1758.15 1363.07 1759.71 Q1365.91 1761.27 1367.72 1764.42 L1367.72 1759.01 L1373.58 1759.01 L1373.58 1790.23 Z" fill="#000000" fill-rule="nonzero" fill-opacity="1" /><path clip-path="url(#clip880)" d="M1420.43 1745.19 Q1416.16 1752.51 1414.09 1759.68 Q1412.03 1766.84 1412.03 1774.19 Q1412.03 1781.54 1414.09 1788.77 Q1416.2 1795.96 1420.43 1803.25 L1415.34 1803.25 Q1410.56 1795.77 1408.17 1788.54 Q1405.82 1781.32 1405.82 1774.19 Q1405.82 1767.09 1408.17 1759.9 Q1410.53 1752.71 1415.34 1745.19 L1420.43 1745.19 Z" fill="#000000" fill-rule="nonzero" fill-opacity="1" /><path clip-path="url(#clip880)" d="M1437.58 1748.89 L1437.58 1759.01 L1449.65 1759.01 L1449.65 1763.56 L1437.58 1763.56 L1437.58 1782.91 Q1437.58 1787.27 1438.76 1788.51 Q1439.97 1789.75 1443.63 1789.75 L1449.65 1789.75 L1449.65 1794.66 L1443.63 1794.66 Q1436.85 1794.66 1434.27 1792.14 Q1431.7 1789.59 1431.7 1782.91 L1431.7 1763.56 L1427.4 1763.56 L1427.4 1759.01 L1431.7 1759.01 L1431.7 1748.89 L1437.58 1748.89 Z" fill="#000000" fill-rule="nonzero" fill-opacity="1" /><path clip-path="url(#clip880)" d="M1478.01 1764.48 Q1477.02 1763.91 1475.84 1763.65 Q1474.7 1763.37 1473.3 1763.37 Q1468.33 1763.37 1465.66 1766.61 Q1463.02 1769.83 1463.02 1775.88 L1463.02 1794.66 L1457.13 1794.66 L1457.13 1759.01 L1463.02 1759.01 L1463.02 1764.55 Q1464.86 1761.3 1467.82 1759.74 Q1470.78 1758.15 1475.01 1758.15 Q1475.62 1758.15 1476.35 1758.24 Q1477.08 1758.31 1477.97 1758.47 L1478.01 1764.48 Z" fill="#000000" fill-rule="nonzero" fill-opacity="1" /><path clip-path="url(#clip880)" d="M1500.35 1776.74 Q1493.25 1776.74 1490.52 1778.36 Q1487.78 1779.98 1487.78 1783.9 Q1487.78 1787.02 1489.81 1788.86 Q1491.88 1790.68 1495.42 1790.68 Q1500.29 1790.68 1503.21 1787.24 Q1506.17 1783.77 1506.17 1778.04 L1506.17 1776.74 L1500.35 1776.74 M1512.03 1774.32 L1512.03 1794.66 L1506.17 1794.66 L1506.17 1789.24 Q1504.17 1792.49 1501.18 1794.05 Q1498.19 1795.58 1493.86 1795.58 Q1488.38 1795.58 1485.14 1792.52 Q1481.92 1789.44 1481.92 1784.28 Q1481.92 1778.26 1485.93 1775.21 Q1489.97 1772.15 1497.96 1772.15 L1506.17 1772.15 L1506.17 1771.58 Q1506.17 1767.54 1503.5 1765.34 Q1500.86 1763.11 1496.05 1763.11 Q1493 1763.11 1490.1 1763.85 Q1487.2 1764.58 1484.53 1766.04 L1484.53 1760.63 Q1487.75 1759.39 1490.77 1758.78 Q1493.79 1758.15 1496.66 1758.15 Q1504.39 1758.15 1508.21 1762.16 Q1512.03 1766.17 1512.03 1774.32 Z" fill="#000000" fill-rule="nonzero" fill-opacity="1" /><path clip-path="url(#clip880)" d="M1547.55 1764.42 L1547.55 1745.13 L1553.41 1745.13 L1553.41 1794.66 L1547.55 1794.66 L1547.55 1789.31 Q1545.71 1792.49 1542.87 1794.05 Q1540.07 1795.58 1536.13 1795.58 Q1529.66 1795.58 1525.59 1790.42 Q1521.55 1785.27 1521.55 1776.86 Q1521.55 1768.46 1525.59 1763.3 Q1529.66 1758.15 1536.13 1758.15 Q1540.07 1758.15 1542.87 1759.71 Q1545.71 1761.24 1547.55 1764.42 M1527.6 1776.86 Q1527.6 1783.32 1530.24 1787.02 Q1532.91 1790.68 1537.56 1790.68 Q1542.2 1790.68 1544.88 1787.02 Q1547.55 1783.32 1547.55 1776.86 Q1547.55 1770.4 1544.88 1766.74 Q1542.2 1763.05 1537.56 1763.05 Q1532.91 1763.05 1530.24 1766.74 Q1527.6 1770.4 1527.6 1776.86 Z" fill="#000000" fill-rule="nonzero" fill-opacity="1" /><path clip-path="url(#clip880)" d="M1565.47 1759.01 L1571.33 1759.01 L1571.33 1794.66 L1565.47 1794.66 L1565.47 1759.01 M1565.47 1745.13 L1571.33 1745.13 L1571.33 1752.55 L1565.47 1752.55 L1565.47 1745.13 Z" fill="#000000" fill-rule="nonzero" fill-opacity="1" /><path clip-path="url(#clip880)" d="M1613.21 1773.14 L1613.21 1794.66 L1607.36 1794.66 L1607.36 1773.33 Q1607.36 1768.27 1605.38 1765.76 Q1603.41 1763.24 1599.46 1763.24 Q1594.72 1763.24 1591.98 1766.26 Q1589.25 1769.29 1589.25 1774.51 L1589.25 1794.66 L1583.36 1794.66 L1583.36 1759.01 L1589.25 1759.01 L1589.25 1764.55 Q1591.35 1761.33 1594.18 1759.74 Q1597.05 1758.15 1600.77 1758.15 Q1606.91 1758.15 1610.06 1761.97 Q1613.21 1765.76 1613.21 1773.14 Z" fill="#000000" fill-rule="nonzero" fill-opacity="1" /><path clip-path="url(#clip880)" d="M1648.35 1776.42 Q1648.35 1770.05 1645.71 1766.55 Q1643.1 1763.05 1638.36 1763.05 Q1633.65 1763.05 1631.01 1766.55 Q1628.4 1770.05 1628.4 1776.42 Q1628.4 1782.75 1631.01 1786.25 Q1633.65 1789.75 1638.36 1789.75 Q1643.1 1789.75 1645.71 1786.25 Q1648.35 1782.75 1648.35 1776.42 M1654.21 1790.23 Q1654.21 1799.33 1650.17 1803.76 Q1646.12 1808.21 1637.79 1808.21 Q1634.7 1808.21 1631.96 1807.74 Q1629.22 1807.29 1626.65 1806.34 L1626.65 1800.64 Q1629.22 1802.04 1631.74 1802.71 Q1634.25 1803.38 1636.86 1803.38 Q1642.62 1803.38 1645.49 1800.35 Q1648.35 1797.36 1648.35 1791.28 L1648.35 1788.39 Q1646.54 1791.54 1643.71 1793.1 Q1640.87 1794.66 1636.93 1794.66 Q1630.37 1794.66 1626.36 1789.66 Q1622.35 1784.66 1622.35 1776.42 Q1622.35 1768.14 1626.36 1763.15 Q1630.37 1758.15 1636.93 1758.15 Q1640.87 1758.15 1643.71 1759.71 Q1646.54 1761.27 1648.35 1764.42 L1648.35 1759.01 L1654.21 1759.01 L1654.21 1790.23 Z" fill="#000000" fill-rule="nonzero" fill-opacity="1" /><path clip-path="url(#clip880)" d="M1710.45 1764.42 L1710.45 1745.13 L1716.31 1745.13 L1716.31 1794.66 L1710.45 1794.66 L1710.45 1789.31 Q1708.6 1792.49 1705.77 1794.05 Q1702.97 1795.58 1699.02 1795.58 Q1692.56 1795.58 1688.49 1790.42 Q1684.45 1785.27 1684.45 1776.86 Q1684.45 1768.46 1688.49 1763.3 Q1692.56 1758.15 1699.02 1758.15 Q1702.97 1758.15 1705.77 1759.71 Q1708.6 1761.24 1710.45 1764.42 M1690.49 1776.86 Q1690.49 1783.32 1693.14 1787.02 Q1695.81 1790.68 1700.46 1790.68 Q1705.1 1790.68 1707.78 1787.02 Q1710.45 1783.32 1710.45 1776.86 Q1710.45 1770.4 1707.78 1766.74 Q1705.1 1763.05 1700.46 1763.05 Q1695.81 1763.05 1693.14 1766.74 Q1690.49 1770.4 1690.49 1776.86 Z" fill="#000000" fill-rule="nonzero" fill-opacity="1" /><path clip-path="url(#clip880)" d="M1744.57 1776.74 Q1737.47 1776.74 1734.74 1778.36 Q1732 1779.98 1732 1783.9 Q1732 1787.02 1734.04 1788.86 Q1736.1 1790.68 1739.64 1790.68 Q1744.51 1790.68 1747.44 1787.24 Q1750.4 1783.77 1750.4 1778.04 L1750.4 1776.74 L1744.57 1776.74 M1756.25 1774.32 L1756.25 1794.66 L1750.4 1794.66 L1750.4 1789.24 Q1748.39 1792.49 1745.4 1794.05 Q1742.41 1795.58 1738.08 1795.58 Q1732.6 1795.58 1729.36 1792.52 Q1726.14 1789.44 1726.14 1784.28 Q1726.14 1778.26 1730.15 1775.21 Q1734.19 1772.15 1742.18 1772.15 L1750.4 1772.15 L1750.4 1771.58 Q1750.4 1767.54 1747.72 1765.34 Q1745.08 1763.11 1740.27 1763.11 Q1737.22 1763.11 1734.32 1763.85 Q1731.43 1764.58 1728.75 1766.04 L1728.75 1760.63 Q1731.97 1759.39 1734.99 1758.78 Q1738.01 1758.15 1740.88 1758.15 Q1748.61 1758.15 1752.43 1762.16 Q1756.25 1766.17 1756.25 1774.32 Z" fill="#000000" fill-rule="nonzero" fill-opacity="1" /><path clip-path="url(#clip880)" d="M1783.15 1797.97 Q1780.66 1804.33 1778.31 1806.27 Q1775.95 1808.21 1772.01 1808.21 L1767.33 1808.21 L1767.33 1803.31 L1770.77 1803.31 Q1773.18 1803.31 1774.52 1802.17 Q1775.86 1801.02 1777.48 1796.76 L1778.53 1794.08 L1764.11 1759.01 L1770.32 1759.01 L1781.46 1786.89 L1792.6 1759.01 L1798.81 1759.01 L1783.15 1797.97 Z" fill="#000000" fill-rule="nonzero" fill-opacity="1" /><path clip-path="url(#clip880)" d="M1829.62 1760.06 L1829.62 1765.6 Q1827.13 1764.32 1824.46 1763.69 Q1821.79 1763.05 1818.92 1763.05 Q1814.56 1763.05 1812.37 1764.39 Q1810.2 1765.72 1810.2 1768.4 Q1810.2 1770.43 1811.76 1771.61 Q1813.32 1772.76 1818.03 1773.81 L1820.04 1774.25 Q1826.27 1775.59 1828.88 1778.04 Q1831.53 1780.46 1831.53 1784.82 Q1831.53 1789.79 1827.58 1792.68 Q1823.66 1795.58 1816.79 1795.58 Q1813.92 1795.58 1810.81 1795.01 Q1807.72 1794.46 1804.28 1793.35 L1804.28 1787.3 Q1807.53 1788.99 1810.68 1789.85 Q1813.83 1790.68 1816.92 1790.68 Q1821.05 1790.68 1823.28 1789.28 Q1825.51 1787.84 1825.51 1785.27 Q1825.51 1782.88 1823.89 1781.61 Q1822.3 1780.33 1816.85 1779.16 L1814.82 1778.68 Q1809.37 1777.53 1806.95 1775.18 Q1804.54 1772.79 1804.54 1768.65 Q1804.54 1763.62 1808.1 1760.89 Q1811.67 1758.15 1818.22 1758.15 Q1821.47 1758.15 1824.33 1758.63 Q1827.2 1759.1 1829.62 1760.06 Z" fill="#000000" fill-rule="nonzero" fill-opacity="1" /><path clip-path="url(#clip880)" d="M1839.93 1745.19 L1845.02 1745.19 Q1849.8 1752.71 1852.15 1759.9 Q1854.54 1767.09 1854.54 1774.19 Q1854.54 1781.32 1852.15 1788.54 Q1849.8 1795.77 1845.02 1803.25 L1839.93 1803.25 Q1844.16 1795.96 1846.23 1788.77 Q1848.33 1781.54 1848.33 1774.19 Q1848.33 1766.84 1846.23 1759.68 Q1844.16 1752.51 1839.93 1745.19 Z" fill="#000000" fill-rule="nonzero" fill-opacity="1" /><polyline clip-path="url(#clip880)" style="stroke:#000000; stroke-linecap:round; stroke-linejoin:round; stroke-width:4; stroke-opacity:1; fill:none" points="448.779,1630.83 448.779,125.984 "/>
<polyline clip-path="url(#clip880)" style="stroke:#000000; stroke-linecap:round; stroke-linejoin:round; stroke-width:4; stroke-opacity:1; fill:none" points="448.779,1398.19 467.676,1398.19 "/>
<polyline clip-path="url(#clip880)" style="stroke:#000000; stroke-linecap:round; stroke-linejoin:round; stroke-width:4; stroke-opacity:1; fill:none" points="448.779,1038.56 467.676,1038.56 "/>
<polyline clip-path="url(#clip880)" style="stroke:#000000; stroke-linecap:round; stroke-linejoin:round; stroke-width:4; stroke-opacity:1; fill:none" points="448.779,678.918 467.676,678.918 "/>
<polyline clip-path="url(#clip880)" style="stroke:#000000; stroke-linecap:round; stroke-linejoin:round; stroke-width:4; stroke-opacity:1; fill:none" points="448.779,319.28 467.676,319.28 "/>
<path clip-path="url(#clip880)" d="M335.309 1380.44 Q330.795 1380.44 328.51 1384.9 Q326.253 1389.33 326.253 1398.24 Q326.253 1407.12 328.51 1411.58 Q330.795 1416 335.309 1416 Q339.852 1416 342.109 1411.58 Q344.395 1407.12 344.395 1398.24 Q344.395 1389.33 342.109 1384.9 Q339.852 1380.44 335.309 1380.44 M335.309 1375.81 Q342.572 1375.81 346.391 1381.57 Q350.24 1387.3 350.24 1398.24 Q350.24 1409.15 346.391 1414.9 Q342.572 1420.63 335.309 1420.63 Q328.047 1420.63 324.198 1414.9 Q320.379 1409.15 320.379 1398.24 Q320.379 1387.3 324.198 1381.57 Q328.047 1375.81 335.309 1375.81 Z" fill="#000000" fill-rule="nonzero" fill-opacity="1" /><path clip-path="url(#clip880)" d="M360.512 1412.45 L366.617 1412.45 L366.617 1419.79 L360.512 1419.79 L360.512 1412.45 Z" fill="#000000" fill-rule="nonzero" fill-opacity="1" /><path clip-path="url(#clip880)" d="M391.848 1380.44 Q387.335 1380.44 385.049 1384.9 Q382.792 1389.33 382.792 1398.24 Q382.792 1407.12 385.049 1411.58 Q387.335 1416 391.848 1416 Q396.391 1416 398.648 1411.58 Q400.934 1407.12 400.934 1398.24 Q400.934 1389.33 398.648 1384.9 Q396.391 1380.44 391.848 1380.44 M391.848 1375.81 Q399.111 1375.81 402.93 1381.57 Q406.779 1387.3 406.779 1398.24 Q406.779 1409.15 402.93 1414.9 Q399.111 1420.63 391.848 1420.63 Q384.586 1420.63 380.737 1414.9 Q376.918 1409.15 376.918 1398.24 Q376.918 1387.3 380.737 1381.57 Q384.586 1375.81 391.848 1375.81 Z" fill="#000000" fill-rule="nonzero" fill-opacity="1" /><path clip-path="url(#clip880)" d="M336.843 1020.8 Q332.329 1020.8 330.043 1025.26 Q327.786 1029.69 327.786 1038.6 Q327.786 1047.48 330.043 1051.94 Q332.329 1056.37 336.843 1056.37 Q341.386 1056.37 343.643 1051.94 Q345.928 1047.48 345.928 1038.6 Q345.928 1029.69 343.643 1025.26 Q341.386 1020.8 336.843 1020.8 M336.843 1016.18 Q344.106 1016.18 347.925 1021.93 Q351.773 1027.66 351.773 1038.6 Q351.773 1049.51 347.925 1055.27 Q344.106 1061 336.843 1061 Q329.58 1061 325.732 1055.27 Q321.912 1049.51 321.912 1038.6 Q321.912 1027.66 325.732 1021.93 Q329.58 1016.18 336.843 1016.18 Z" fill="#000000" fill-rule="nonzero" fill-opacity="1" /><path clip-path="url(#clip880)" d="M362.045 1052.81 L368.151 1052.81 L368.151 1060.16 L362.045 1060.16 L362.045 1052.81 Z" fill="#000000" fill-rule="nonzero" fill-opacity="1" /><path clip-path="url(#clip880)" d="M381.895 1055.24 L391.443 1055.24 L391.443 1022.28 L381.056 1024.36 L381.056 1019.04 L391.385 1016.96 L397.23 1016.96 L397.23 1055.24 L406.779 1055.24 L406.779 1060.16 L381.895 1060.16 L381.895 1055.24 Z" fill="#000000" fill-rule="nonzero" fill-opacity="1" /><path clip-path="url(#clip880)" d="M337.306 661.167 Q332.792 661.167 330.506 665.623 Q328.249 670.05 328.249 678.962 Q328.249 687.845 330.506 692.301 Q332.792 696.728 337.306 696.728 Q341.849 696.728 344.106 692.301 Q346.391 687.845 346.391 678.962 Q346.391 670.05 344.106 665.623 Q341.849 661.167 337.306 661.167 M337.306 656.537 Q344.569 656.537 348.388 662.295 Q352.236 668.024 352.236 678.962 Q352.236 689.87 348.388 695.628 Q344.569 701.357 337.306 701.357 Q330.043 701.357 326.195 695.628 Q322.375 689.87 322.375 678.962 Q322.375 668.024 326.195 662.295 Q330.043 656.537 337.306 656.537 Z" fill="#000000" fill-rule="nonzero" fill-opacity="1" /><path clip-path="url(#clip880)" d="M362.508 693.169 L368.614 693.169 L368.614 700.518 L362.508 700.518 L362.508 693.169 Z" fill="#000000" fill-rule="nonzero" fill-opacity="1" /><path clip-path="url(#clip880)" d="M386.38 695.599 L406.779 695.599 L406.779 700.518 L379.348 700.518 L379.348 695.599 Q382.676 692.156 388.405 686.369 Q394.163 680.553 395.639 678.875 Q398.446 675.721 399.545 673.551 Q400.674 671.352 400.674 669.24 Q400.674 665.796 398.243 663.626 Q395.841 661.456 391.964 661.456 Q389.215 661.456 386.148 662.411 Q383.11 663.366 379.638 665.304 L379.638 659.402 Q383.168 657.984 386.235 657.26 Q389.302 656.537 391.848 656.537 Q398.561 656.537 402.554 659.894 Q406.547 663.25 406.547 668.863 Q406.547 671.525 405.535 673.927 Q404.551 676.3 401.918 679.54 Q401.194 680.38 397.317 684.402 Q393.44 688.395 386.38 695.599 Z" fill="#000000" fill-rule="nonzero" fill-opacity="1" /><path clip-path="url(#clip880)" d="M336.12 301.529 Q331.606 301.529 329.32 305.985 Q327.063 310.412 327.063 319.324 Q327.063 328.207 329.32 332.663 Q331.606 337.09 336.12 337.09 Q340.662 337.09 342.919 332.663 Q345.205 328.207 345.205 319.324 Q345.205 310.412 342.919 305.985 Q340.662 301.529 336.12 301.529 M336.12 296.899 Q343.382 296.899 347.202 302.657 Q351.05 308.386 351.05 319.324 Q351.05 330.232 347.202 335.99 Q343.382 341.719 336.12 341.719 Q328.857 341.719 325.008 335.99 Q321.189 330.232 321.189 319.324 Q321.189 308.386 325.008 302.657 Q328.857 296.899 336.12 296.899 Z" fill="#000000" fill-rule="nonzero" fill-opacity="1" /><path clip-path="url(#clip880)" d="M361.322 333.531 L367.427 333.531 L367.427 340.88 L361.322 340.88 L361.322 333.531 Z" fill="#000000" fill-rule="nonzero" fill-opacity="1" /><path clip-path="url(#clip880)" d="M397.867 317.587 Q402.062 318.484 404.406 321.32 Q406.779 324.156 406.779 328.322 Q406.779 334.717 402.381 338.218 Q397.983 341.719 389.881 341.719 Q387.161 341.719 384.267 341.17 Q381.403 340.649 378.336 339.578 L378.336 333.936 Q380.766 335.354 383.66 336.077 Q386.553 336.8 389.707 336.8 Q395.205 336.8 398.069 334.63 Q400.963 332.46 400.963 328.322 Q400.963 324.503 398.272 322.362 Q395.61 320.192 390.836 320.192 L385.801 320.192 L385.801 315.388 L391.067 315.388 Q395.378 315.388 397.664 313.681 Q399.95 311.945 399.95 308.704 Q399.95 305.377 397.578 303.612 Q395.234 301.818 390.836 301.818 Q388.434 301.818 385.685 302.339 Q382.936 302.86 379.638 303.959 L379.638 298.751 Q382.965 297.825 385.859 297.362 Q388.781 296.899 391.356 296.899 Q398.012 296.899 401.889 299.937 Q405.766 302.946 405.766 308.097 Q405.766 311.685 403.712 314.173 Q401.657 316.633 397.867 317.587 Z" fill="#000000" fill-rule="nonzero" fill-opacity="1" /><path clip-path="url(#clip880)" d="M222.937 1043.9 L246.585 1052.62 L246.585 1035.15 L222.937 1043.9 M216.603 1047.53 L216.603 1040.24 L264.123 1022.13 L264.123 1028.81 L251.933 1033.14 L251.933 1054.56 L264.123 1058.89 L264.123 1065.67 L216.603 1047.53 Z" fill="#000000" fill-rule="nonzero" fill-opacity="1" /><path clip-path="url(#clip880)" d="M220.263 980.753 L227.043 980.753 Q224.019 983.999 222.523 987.691 Q221.027 991.351 221.027 995.489 Q221.027 1003.64 226.024 1007.97 Q230.989 1012.29 240.411 1012.29 Q249.8 1012.29 254.797 1007.97 Q259.762 1003.64 259.762 995.489 Q259.762 991.351 258.266 987.691 Q256.77 983.999 253.747 980.753 L260.463 980.753 Q262.754 984.126 263.9 987.914 Q265.046 991.67 265.046 995.871 Q265.046 1006.66 258.457 1012.87 Q251.837 1019.07 240.411 1019.07 Q228.952 1019.07 222.364 1012.87 Q215.743 1006.66 215.743 995.871 Q215.743 991.606 216.889 987.85 Q218.003 984.063 220.263 980.753 Z" fill="#000000" fill-rule="nonzero" fill-opacity="1" /><path clip-path="url(#clip880)" d="M216.603 970.822 L216.603 943.513 L222.014 943.513 L222.014 964.393 L236.018 964.393 L236.018 945.55 L241.429 945.55 L241.429 964.393 L264.123 964.393 L264.123 970.822 L216.603 970.822 Z" fill="#000000" fill-rule="nonzero" fill-opacity="1" /><path clip-path="url(#clip880)" d="M232.581 899.049 Q232.581 903.759 236.273 906.497 Q239.933 909.234 246.331 909.234 Q252.728 909.234 256.42 906.528 Q260.081 903.791 260.081 899.049 Q260.081 894.37 256.389 891.633 Q252.696 888.895 246.331 888.895 Q239.997 888.895 236.305 891.633 Q232.581 894.37 232.581 899.049 M227.616 899.049 Q227.616 891.41 232.581 887.049 Q237.546 882.689 246.331 882.689 Q255.084 882.689 260.081 887.049 Q265.046 891.41 265.046 899.049 Q265.046 906.719 260.081 911.08 Q255.084 915.409 246.331 915.409 Q237.546 915.409 232.581 911.08 Q227.616 906.719 227.616 899.049 Z" fill="#000000" fill-rule="nonzero" fill-opacity="1" /><path clip-path="url(#clip880)" d="M214.598 854.934 L219.467 854.934 L219.467 860.536 Q219.467 863.687 220.741 864.928 Q222.014 866.138 225.324 866.138 L228.475 866.138 L228.475 856.494 L233.026 856.494 L233.026 866.138 L264.123 866.138 L264.123 872.026 L233.026 872.026 L233.026 877.628 L228.475 877.628 L228.475 872.026 L225.992 872.026 Q220.04 872.026 217.335 869.257 Q214.598 866.488 214.598 860.472 L214.598 854.934 Z" fill="#000000" fill-rule="nonzero" fill-opacity="1" /><path clip-path="url(#clip880)" d="M214.311 821.769 L279.496 821.769 L279.496 827.18 L214.311 827.18 L214.311 821.769 Z" fill="#000000" fill-rule="nonzero" fill-opacity="1" /><path clip-path="url(#clip880)" d="M257.343 774.695 L244.58 774.695 L244.58 785.198 L239.297 785.198 L239.297 768.329 L259.699 768.329 Q262.34 772.053 263.709 776.541 Q265.046 781.028 265.046 786.121 Q265.046 797.261 258.553 803.563 Q252.028 809.833 240.411 809.833 Q228.761 809.833 222.268 803.563 Q215.743 797.261 215.743 786.121 Q215.743 781.474 216.889 777.305 Q218.035 773.103 220.263 769.57 L227.106 769.57 Q224.083 773.135 222.555 777.145 Q221.027 781.156 221.027 785.58 Q221.027 794.301 225.897 798.693 Q230.767 803.054 240.411 803.054 Q250.023 803.054 254.893 798.693 Q259.762 794.301 259.762 785.58 Q259.762 782.174 259.189 779.501 Q258.585 776.827 257.343 774.695 Z" fill="#000000" fill-rule="nonzero" fill-opacity="1" /><path clip-path="url(#clip880)" d="M274.945 729.753 L279.496 729.753 L279.496 763.618 L274.945 763.618 L274.945 729.753 Z" fill="#000000" fill-rule="nonzero" fill-opacity="1" /><path clip-path="url(#clip880)" d="M218.353 718.454 L228.475 718.454 L228.475 706.391 L233.026 706.391 L233.026 718.454 L252.378 718.454 Q256.739 718.454 257.98 717.276 Q259.221 716.066 259.221 712.406 L259.221 706.391 L264.123 706.391 L264.123 712.406 Q264.123 719.186 261.608 721.764 Q259.062 724.342 252.378 724.342 L233.026 724.342 L233.026 728.639 L228.475 728.639 L228.475 724.342 L218.353 724.342 L218.353 718.454 Z" fill="#000000" fill-rule="nonzero" fill-opacity="1" /><path clip-path="url(#clip880)" d="M214.311 691.145 L279.496 691.145 L279.496 696.556 L214.311 696.556 L214.311 691.145 Z" fill="#000000" fill-rule="nonzero" fill-opacity="1" /><polyline clip-path="url(#clip881)" style="stroke:#d45e00; stroke-linecap:round; stroke-linejoin:round; stroke-width:8; stroke-opacity:1; fill:none" stroke-dasharray="32, 20" points="511.757,304.902 520.121,442.255 528.485,240.695 536.848,371.421 545.212,440.394 553.576,518.641 561.939,521.865 570.303,388.601 578.667,449.667 587.03,414.518 595.394,670.401 603.758,655.725 612.121,592.752 620.485,679.738 628.849,652.353 637.212,849.639 645.576,537.125 653.94,609.873 662.303,831.836 670.667,682.637 679.031,842.661 687.394,822.278 695.758,750.804 704.122,945.471 712.485,880.702 720.849,869.218 729.213,944.988 737.576,984.412 745.94,819.75 754.304,914.002 762.667,966.152 771.031,1010.3 779.395,964.603 787.758,1036.7 796.122,1002.52 804.486,982.503 812.849,1022.2 821.213,969.552 829.577,940.719 837.94,1071.08 846.304,1028.04 854.668,1024.28 863.031,1042.03 871.395,1173.83 879.759,1092.07 888.122,959.94 896.486,1227.65 904.85,1147.49 913.213,1060.85 921.577,1188.25 929.941,1116.37 938.304,1150.36 946.668,1126.36 955.032,1170.2 963.395,1086.64 971.759,1138.02 980.123,1171.76 988.486,1157.19 996.85,1100.1 1005.21,1244.39 1013.58,1193.12 1021.94,1210.62 1030.3,1092.72 1038.67,1255.26 1047.03,1233.67 1055.4,1200.82 1063.76,1277.32 1072.12,1190.08 1080.49,1257.1 1088.85,1262.35 1097.21,1265.01 1105.58,1140.18 1113.94,1278.53 1122.3,1241.68 1130.67,1185.44 1139.03,1146.31 1147.4,1245.32 1155.76,1275.04 1164.12,1240.05 1172.49,1304.28 1180.85,1252.2 1189.21,1222.75 1197.58,1326.86 1205.94,1315.42 1214.31,1272.93 1222.67,1324.44 1231.03,1318.73 1239.4,1272.71 1247.76,1336.99 1256.12,1262.86 1264.49,1277.79 1272.85,1199.16 1281.21,1339.21 1289.58,1228.7 1297.94,1227.2 1306.31,1272.48 1314.67,1144.01 1323.03,1234.5 1331.4,1253.39 1339.76,1204.09 1348.12,1195.23 1356.49,1208.01 1364.85,1204.37 1373.21,1287.04 1381.58,1167.4 1389.94,1207.73 1398.31,1239.07 1406.67,1329.39 1415.03,1222.44 1423.4,1336.91 1431.76,1248.12 1440.12,1321.31 1448.49,1234.28 1456.85,1263.44 1465.22,1238.47 1473.58,1214.48 1481.94,1232.63 1490.31,1265.91 1498.67,1183.92 1507.03,1148.43 1515.4,1186.38 1523.76,1204.82 1532.12,1249.62 1540.49,1208.78 1548.85,1268.56 1557.22,1220.54 1565.58,1257.27 1573.94,1261.48 1582.31,1191.04 1590.67,1191.46 1599.03,1133.29 1607.4,1296.69 1615.76,1255.99 1624.12,1241.36 1632.49,1277.68 1640.85,1251.72 1649.22,1307.27 1657.58,1165.31 1665.94,1219.53 1674.31,1267.97 1682.67,1276.9 1691.03,1249.34 1699.4,1247.95 1707.76,1254.03 1716.13,1242.01 1724.49,1214.36 1732.85,1403.12 1741.22,1254.81 1749.58,1248.37 1757.94,1299.6 1766.31,1132.05 1774.67,1215.78 1783.03,1229.75 1791.4,1241.11 1799.76,1249.35 1808.13,1206.6 1816.49,1287.4 1824.85,1228.45 1833.22,1272.42 1841.58,1167.1 1849.94,1166.94 1858.31,1230.71 1866.67,1251.22 1875.03,1284.2 1883.4,1295.2 1891.76,1311.57 1900.13,1341.05 1908.49,1225.01 1916.85,1223.57 1925.22,1255.96 1933.58,1302.63 1941.94,1218.86 1950.31,1232.24 1958.67,1249.59 1967.04,1395.61 1975.4,1276.08 1983.76,1276.7 1992.13,1381.57 2000.49,1294.68 2008.85,1398.06 2017.22,1386.96 2025.58,1284.68 2033.94,1334.48 2042.31,1418.51 2050.67,1392.84 2059.04,1442.3 2067.4,1371.47 2075.76,1399.66 2084.13,1363.97 2092.49,1405.91 2100.85,1398.11 2109.22,1362.05 2117.58,1405.18 2125.94,1384.47 2134.31,1402.75 2142.67,1421.18 2151.04,1329.22 2159.4,1327.84 2167.76,1378.33 2176.13,1422.64 2184.49,1316.46 2192.85,1357.81 2201.22,1273.72 2209.58,1328.3 2217.95,1433.64 2226.31,1315.57 2234.67,1332.89 2243.04,1350.52 2251.4,1373.01 2259.76,1423.57 2268.13,1285.53 2276.49,1342.52 2284.85,1427.07 2293.22,1301.27 2301.58,1382.84 2309.95,1313.95 2318.31,1344.2 2326.67,1400.26 2335.04,1389.87 2343.4,1478.46 2351.76,1326.59 2360.13,1411.13 2368.49,1445.91 2376.85,1364.15 2385.22,1459.85 2393.58,1462.23 2401.95,1467.85 2410.31,1480.85 2418.67,1494.67 2427.04,1547.13 2435.4,1451.87 2443.76,1498.73 2452.13,1542.37 2460.49,1458.85 2468.86,1478.76 2477.22,1520.36 2485.58,1463.33 2493.95,1584.82 2502.31,1463.42 2510.67,1495.68 2519.04,1549.75 2527.4,1444.51 2535.76,1588.24 2544.13,1510.62 2552.49,1494.84 2560.86,1530.5 2569.22,1559.17 2577.58,1478.14 2585.95,1488.67 2594.31,1556.42 2602.67,1488.58 2611.04,1545.57 "/>
<polyline clip-path="url(#clip881)" style="stroke:#009e73; stroke-linecap:round; stroke-linejoin:round; stroke-width:8; stroke-opacity:1; fill:none" points="511.757,329.404 520.121,416.143 528.485,487.614 536.848,548.247 545.212,607.161 553.576,650.867 561.939,701.833 570.303,757.178 578.667,791.061 587.03,836.624 595.394,874.424 603.758,916.044 612.121,937.921 620.485,966.576 628.849,994.349 637.212,1022.06 645.576,1045.67 653.94,1073.13 662.303,1092.86 670.667,1113.81 679.031,1132.6 687.394,1150.84 695.758,1162.69 704.122,1186.37 712.485,1193.93 720.849,1198.83 729.213,1221.17 737.576,1235.86 745.94,1245.76 754.304,1256.04 762.667,1267.39 771.031,1272.23 779.395,1282.53 787.758,1286.26 796.122,1293.49 804.486,1313.11 812.849,1319.27 821.213,1314.27 829.577,1318.07 837.94,1328.86 846.304,1330.66 854.668,1339.73 863.031,1344.59 871.395,1351.76 879.759,1351.23 888.122,1356.25 896.486,1358.68 904.85,1368.61 913.213,1368.62 921.577,1369.23 929.941,1367.3 938.304,1373.13 946.668,1374.49 955.032,1379.72 963.395,1379.83 971.759,1375.27 980.123,1373.35 988.486,1380.43 996.85,1380.74 1005.21,1383.55 1013.58,1381.87 1021.94,1383.64 1030.3,1389.82 1038.67,1389.21 1047.03,1384.52 1055.4,1396.16 1063.76,1389.09 1072.12,1396.56 1080.49,1393.09 1088.85,1392.89 1097.21,1394.67 1105.58,1399.03 1113.94,1395.01 1122.3,1395.7 1130.67,1394.01 1139.03,1401.24 1147.4,1397.01 1155.76,1403.91 1164.12,1395.49 1172.49,1396.65 1180.85,1396.98 1189.21,1397.77 1197.58,1405.39 1205.94,1397.33 1214.31,1408.85 1222.67,1400.92 1231.03,1410.58 1239.4,1411.46 1247.76,1407.02 1256.12,1413.39 1264.49,1407.86 1272.85,1409.05 1281.21,1407.4 1289.58,1408.6 1297.94,1409.24 1306.31,1401.08 1314.67,1406.18 1323.03,1410.59 1331.4,1406.34 1339.76,1401.3 1348.12,1410.93 1356.49,1410.64 1364.85,1409.69 1373.21,1409.41 1381.58,1409.65 1389.94,1405.15 1398.31,1411.66 1406.67,1406.47 1415.03,1414.95 1423.4,1415.94 1431.76,1412.84 1440.12,1414.93 1448.49,1407.75 1456.85,1416.33 1465.22,1415.38 1473.58,1412.07 1481.94,1405.11 1490.31,1410.69 1498.67,1406.63 1507.03,1416.57 1515.4,1411.64 1523.76,1410.18 1532.12,1407.09 1540.49,1412.72 1548.85,1414.68 1557.22,1415.25 1565.58,1408.1 1573.94,1412.59 1582.31,1410.55 1590.67,1417.81 1599.03,1412.47 1607.4,1410.6 1615.76,1413.2 1624.12,1408.5 1632.49,1411.87 1640.85,1419.46 1649.22,1413.59 1657.58,1415.55 1665.94,1411.97 1674.31,1409.05 1682.67,1419.67 1691.03,1408.64 1699.4,1410.73 1707.76,1405.19 1716.13,1409.99 1724.49,1414.16 1732.85,1414.32 1741.22,1412.74 1749.58,1409.28 1757.94,1411.21 1766.31,1409.44 1774.67,1413.55 1783.03,1413.28 1791.4,1409.68 1799.76,1410 1808.13,1405.07 1816.49,1409.66 1824.85,1407.56 1833.22,1408.1 1841.58,1406.65 1849.94,1407.74 1858.31,1401.29 1866.67,1416.21 1875.03,1407.67 1883.4,1405.21 1891.76,1409.48 1900.13,1414.09 1908.49,1410.62 1916.85,1411.8 1925.22,1410.13 1933.58,1407.22 1941.94,1414.28 1950.31,1406.75 1958.67,1408.48 1967.04,1407.27 1975.4,1411.81 1983.76,1415.01 1992.13,1417.37 2000.49,1410.52 2008.85,1413.85 2017.22,1420.52 2025.58,1414.41 2033.94,1414.26 2042.31,1419.25 2050.67,1413.76 2059.04,1409.73 2067.4,1412.07 2075.76,1409.66 2084.13,1411.41 2092.49,1410.4 2100.85,1412.59 2109.22,1410.99 2117.58,1412.37 2125.94,1407.98 2134.31,1416.51 2142.67,1414.38 2151.04,1413.83 2159.4,1415.16 2167.76,1416.01 2176.13,1406.02 2184.49,1415.16 2192.85,1412.85 2201.22,1415.32 2209.58,1413.54 2217.95,1414.43 2226.31,1401.25 2234.67,1412.29 2243.04,1412.47 2251.4,1412.71 2259.76,1411.58 2268.13,1408.9 2276.49,1411.03 2284.85,1413.61 2293.22,1413.37 2301.58,1410.4 2309.95,1416.57 2318.31,1411.35 2326.67,1417.53 2335.04,1414.11 2343.4,1412.93 2351.76,1409.76 2360.13,1413.7 2368.49,1410.98 2376.85,1412.15 2385.22,1416.56 2393.58,1419.64 2401.95,1417.35 2410.31,1424.79 2418.67,1421.22 2427.04,1418.23 2435.4,1418.68 2443.76,1420.87 2452.13,1417.53 2460.49,1418.43 2468.86,1425.12 2477.22,1416.86 2485.58,1423.97 2493.95,1422.76 2502.31,1420.84 2510.67,1419.77 2519.04,1417.64 2527.4,1420.37 2535.76,1420.23 2544.13,1419.14 2552.49,1416.8 2560.86,1416.51 2569.22,1416.38 2577.58,1416.07 2585.95,1417.91 2594.31,1415.16 2602.67,1418.61 2611.04,1421.34 "/>
<path clip-path="url(#clip881)" d="M511.757 487.176 L520.121 565.894 L528.485 639.89 L536.848 703.54 L545.212 764.148 L553.576 822.948 L561.939 853.54 L570.303 924.298 L578.667 955.792 L587.03 993.937 L595.394 1046.34 L603.758 1079.89 L612.121 1103.42 L620.485 1147.31 L628.849 1154.4 L637.212 1175.74 L645.576 1184.28 L653.94 1213.87 L662.303 1256.72 L670.667 1270.19 L679.031 1274.49 L687.394 1306.1 L695.758 1319.32 L704.122 1338.26 L712.485 1336.9 L720.849 1343.1 L729.213 1364.83 L737.576 1368.61 L745.94 1382.95 L754.304 1396.87 L762.667 1404.29 L771.031 1412.25 L779.395 1417.63 L787.758 1436.3 L796.122 1430.69 L804.486 1464.79 L812.849 1460.93 L821.213 1453.64 L829.577 1449.54 L837.94 1482.52 L846.304 1471.15 L854.668 1474.29 L863.031 1478.88 L871.395 1486.13 L879.759 1486.3 L888.122 1481.58 L896.486 1507.03 L904.85 1508.22 L913.213 1510.24 L921.577 1515.85 L929.941 1510.64 L938.304 1506.49 L946.668 1517.64 L955.032 1511.76 L963.395 1526.01 L971.759 1522.5 L980.123 1520.44 L988.486 1513.41 L996.85 1516.82 L1005.21 1540.47 L1013.58 1522.86 L1021.94 1536.52 L1030.3 1528.21 L1038.67 1517.16 L1047.03 1520.29 L1055.4 1536.84 L1063.76 1530.5 L1072.12 1534.18 L1080.49 1531.5 L1088.85 1525.65 L1097.21 1543.45 L1105.58 1534.72 L1113.94 1535.07 L1122.3 1541.69 L1130.67 1537.88 L1139.03 1545.66 L1147.4 1533.58 L1155.76 1536.58 L1164.12 1538.02 L1172.49 1537.71 L1180.85 1536.08 L1189.21 1543.9 L1197.58 1538.69 L1205.94 1539.3 L1214.31 1544.46 L1222.67 1543.25 L1231.03 1526.74 L1239.4 1551.79 L1247.76 1530.92 L1256.12 1541.35 L1264.49 1540.79 L1272.85 1543.7 L1281.21 1539.41 L1289.58 1551.63 L1297.94 1532.83 L1306.31 1526.29 L1314.67 1533.05 L1323.03 1525.38 L1331.4 1537.72 L1339.76 1515.29 L1348.12 1516.88 L1356.49 1532.44 L1364.85 1536.88 L1373.21 1525.93 L1381.58 1536.28 L1389.94 1543.25 L1398.31 1550.44 L1406.67 1532.71 L1415.03 1544.38 L1423.4 1548.92 L1431.76 1549.36 L1440.12 1550.4 L1448.49 1536.33 L1456.85 1549.76 L1465.22 1549.86 L1473.58 1552.94 L1481.94 1548.1 L1490.31 1541.15 L1498.67 1529.75 L1507.03 1538.68 L1515.4 1542.72 L1523.76 1548.98 L1532.12 1547.8 L1540.49 1524.44 L1548.85 1546.14 L1557.22 1538.16 L1565.58 1553.56 L1573.94 1545.3 L1582.31 1536.83 L1590.67 1540.59 L1599.03 1545.94 L1607.4 1553.85 L1615.76 1531.02 L1624.12 1546 L1632.49 1537.75 L1640.85 1544.04 L1649.22 1549.59 L1657.58 1550.67 L1665.94 1558.78 L1674.31 1548.97 L1682.67 1545.01 L1691.03 1539.15 L1699.4 1542.84 L1707.76 1545.21 L1716.13 1550.77 L1724.49 1546.32 L1732.85 1557.75 L1741.22 1547.28 L1749.58 1539.23 L1757.94 1533.57 L1766.31 1545.16 L1774.67 1543.35 L1783.03 1527.48 L1791.4 1538.61 L1799.76 1520.07 L1808.13 1542.46 L1816.49 1545.48 L1824.85 1540.94 L1833.22 1542.98 L1841.58 1539.83 L1849.94 1546.56 L1858.31 1540.41 L1866.67 1543.91 L1875.03 1540.97 L1883.4 1538.37 L1891.76 1540.25 L1900.13 1549.53 L1908.49 1541.09 L1916.85 1547.02 L1925.22 1546.93 L1933.58 1542.34 L1941.94 1542.99 L1950.31 1549.42 L1958.67 1531.16 L1967.04 1542.7 L1975.4 1545.54 L1983.76 1553.63 L1992.13 1556.73 L2000.49 1562.19 L2008.85 1553.36 L2017.22 1567.93 L2025.58 1550.87 L2033.94 1535.65 L2042.31 1540.22 L2050.67 1535.48 L2059.04 1533.58 L2067.4 1534.43 L2075.76 1546.42 L2084.13 1543.06 L2092.49 1536.38 L2100.85 1559.58 L2109.22 1541.89 L2117.58 1562.81 L2125.94 1545.56 L2134.31 1551.12 L2142.67 1546.68 L2151.04 1540.13 L2159.4 1543.65 L2167.76 1566.94 L2176.13 1544.87 L2184.49 1555.3 L2192.85 1539.21 L2201.22 1553.12 L2209.58 1549.96 L2217.95 1542.57 L2226.31 1529.07 L2234.67 1543.57 L2243.04 1529.64 L2251.4 1523.63 L2259.76 1540.55 L2268.13 1538.87 L2276.49 1536.23 L2284.85 1534.01 L2293.22 1539.96 L2301.58 1523.34 L2309.95 1542.21 L2318.31 1536.82 L2326.67 1547.46 L2335.04 1532.57 L2343.4 1525.62 L2351.76 1536.11 L2360.13 1544.57 L2368.49 1544.28 L2376.85 1540.41 L2385.22 1542.12 L2393.58 1538.48 L2401.95 1544.81 L2410.31 1556.39 L2418.67 1541.67 L2427.04 1542.44 L2435.4 1556.5 L2443.76 1555.86 L2452.13 1550.74 L2460.49 1553.87 L2468.86 1562 L2477.22 1549.62 L2485.58 1539.8 L2493.95 1554.21 L2502.31 1557.41 L2510.67 1540.21 L2519.04 1542.4 L2527.4 1548.33 L2535.76 1552.3 L2544.13 1560.59 L2552.49 1549.93 L2560.86 1549.15 L2569.22 1540.72 L2577.58 1550.01 L2585.95 1536.12 L2594.31 1533.93 L2602.67 1552.35 L2611.04 1548.33 L2611.04 1301.28 L2602.67 1287.38 L2594.31 1273.56 L2585.95 1290.18 L2577.58 1277.35 L2569.22 1300.09 L2560.86 1286.07 L2552.49 1275.82 L2544.13 1266.91 L2535.76 1298.41 L2527.4 1274.57 L2519.04 1280.07 L2510.67 1288.31 L2502.31 1288.29 L2493.95 1298.2 L2485.58 1297.07 L2477.22 1274.44 L2468.86 1301.97 L2460.49 1285.32 L2452.13 1288.78 L2443.76 1292.05 L2435.4 1277.79 L2427.04 1286.38 L2418.67 1290.16 L2410.31 1288.89 L2401.95 1287.79 L2393.58 1292.28 L2385.22 1272.15 L2376.85 1278.35 L2368.49 1264.7 L2360.13 1275.59 L2351.76 1274.9 L2343.4 1290.2 L2335.04 1287.48 L2326.67 1287.41 L2318.31 1276.37 L2309.95 1284.11 L2301.58 1273.47 L2293.22 1283.26 L2284.85 1275.26 L2276.49 1257.18 L2268.13 1268.79 L2259.76 1275.84 L2251.4 1272.08 L2243.04 1275.06 L2234.67 1264.31 L2226.31 1271.88 L2217.95 1294.53 L2209.58 1288.2 L2201.22 1270.27 L2192.85 1298.33 L2184.49 1290.73 L2176.13 1270.21 L2167.76 1277.54 L2159.4 1287.21 L2151.04 1288.29 L2142.67 1274.47 L2134.31 1292.29 L2125.94 1272.22 L2117.58 1279.44 L2109.22 1287.17 L2100.85 1283.67 L2092.49 1297.51 L2084.13 1291.68 L2075.76 1257.82 L2067.4 1279.52 L2059.04 1276.82 L2050.67 1275.68 L2042.31 1291.97 L2033.94 1268.39 L2025.58 1253.26 L2017.22 1277.65 L2008.85 1257.49 L2000.49 1248.93 L1992.13 1277.51 L1983.76 1262.57 L1975.4 1271.69 L1967.04 1266.14 L1958.67 1279.76 L1950.31 1273.29 L1941.94 1284.9 L1933.58 1267.22 L1925.22 1266.05 L1916.85 1270.04 L1908.49 1275.66 L1900.13 1285.15 L1891.76 1273.97 L1883.4 1254.71 L1875.03 1283.05 L1866.67 1284.95 L1858.31 1255.84 L1849.94 1291.28 L1841.58 1270.95 L1833.22 1265.02 L1824.85 1281.52 L1816.49 1274.6 L1808.13 1278.84 L1799.76 1262 L1791.4 1268.28 L1783.03 1278.88 L1774.67 1279.52 L1766.31 1289.34 L1757.94 1282.68 L1749.58 1272 L1741.22 1254.55 L1732.85 1258.18 L1724.49 1265.79 L1716.13 1257.12 L1707.76 1240.98 L1699.4 1277.07 L1691.03 1256.39 L1682.67 1269.06 L1674.31 1276.69 L1665.94 1253.96 L1657.58 1264.76 L1649.22 1261.47 L1640.85 1281.31 L1632.49 1281.21 L1624.12 1262.82 L1615.76 1292.38 L1607.4 1275.56 L1599.03 1271.24 L1590.67 1278.09 L1582.31 1273.67 L1573.94 1281.64 L1565.58 1260.27 L1557.22 1293.58 L1548.85 1282.36 L1540.49 1276.83 L1532.12 1253.82 L1523.76 1262.24 L1515.4 1280.08 L1507.03 1276.98 L1498.67 1278.51 L1490.31 1271.39 L1481.94 1267.34 L1473.58 1275.4 L1465.22 1275.86 L1456.85 1269.45 L1448.49 1272.91 L1440.12 1291.17 L1431.76 1271.62 L1423.4 1261.04 L1415.03 1284.5 L1406.67 1274.98 L1398.31 1266.64 L1389.94 1261.45 L1381.58 1275.7 L1373.21 1257.04 L1364.85 1278.33 L1356.49 1268.45 L1348.12 1293.53 L1339.76 1274.54 L1331.4 1285.63 L1323.03 1288.07 L1314.67 1257.68 L1306.31 1275.43 L1297.94 1277.09 L1289.58 1268.93 L1281.21 1269.1 L1272.85 1285.46 L1264.49 1289.14 L1256.12 1293.71 L1247.76 1271.25 L1239.4 1280.93 L1231.03 1278.72 L1222.67 1280.46 L1214.31 1265.69 L1205.94 1264.76 L1197.58 1275.81 L1189.21 1261.51 L1180.85 1261.38 L1172.49 1245.45 L1164.12 1272.12 L1155.76 1263.7 L1147.4 1271.27 L1139.03 1259.2 L1130.67 1246.86 L1122.3 1236.28 L1113.94 1248.65 L1105.58 1253.56 L1097.21 1255.92 L1088.85 1234.15 L1080.49 1247.76 L1072.12 1239.99 L1063.76 1245.06 L1055.4 1248.64 L1047.03 1227.92 L1038.67 1249.48 L1030.3 1256.42 L1021.94 1220.84 L1013.58 1239.91 L1005.21 1226.42 L996.85 1227.6 L988.486 1235.07 L980.123 1220.18 L971.759 1223.67 L963.395 1229.03 L955.032 1228.85 L946.668 1240.65 L938.304 1218.4 L929.941 1211.59 L921.577 1221.41 L913.213 1222.45 L904.85 1215.05 L896.486 1193.07 L888.122 1209.66 L879.759 1198.97 L871.395 1217.34 L863.031 1203.03 L854.668 1193.59 L846.304 1185.49 L837.94 1188.32 L829.577 1172.63 L821.213 1186.09 L812.849 1173.79 L804.486 1150.24 L796.122 1147.89 L787.758 1117.01 L779.395 1127.88 L771.031 1122.75 L762.667 1112.68 L754.304 1115.08 L745.94 1112.79 L737.576 1087.29 L729.213 1070.39 L720.849 1045.65 L712.485 1041.76 L704.122 1023.71 L695.758 987.244 L687.394 1001.07 L679.031 983.711 L670.667 954.233 L662.303 916.043 L653.94 905.522 L645.576 869.312 L637.212 855.041 L628.849 819.545 L620.485 803.802 L612.121 782.839 L603.758 758.696 L595.394 711.43 L587.03 684.773 L578.667 644.287 L570.303 583.248 L561.939 550.687 L553.576 474.236 L545.212 454.89 L536.848 392.536 L528.485 333.723 L520.121 258.263 L511.757 168.574  Z" fill="#009e73" fill-rule="evenodd" fill-opacity="0.2"/>
<polyline clip-path="url(#clip881)" style="stroke:#009e73; stroke-linecap:round; stroke-linejoin:round; stroke-width:4; stroke-opacity:0.2; fill:none" points="511.757,487.176 520.121,565.894 528.485,639.89 536.848,703.54 545.212,764.148 553.576,822.948 561.939,853.54 570.303,924.298 578.667,955.792 587.03,993.937 595.394,1046.34 603.758,1079.89 612.121,1103.42 620.485,1147.31 628.849,1154.4 637.212,1175.74 645.576,1184.28 653.94,1213.87 662.303,1256.72 670.667,1270.19 679.031,1274.49 687.394,1306.1 695.758,1319.32 704.122,1338.26 712.485,1336.9 720.849,1343.1 729.213,1364.83 737.576,1368.61 745.94,1382.95 754.304,1396.87 762.667,1404.29 771.031,1412.25 779.395,1417.63 787.758,1436.3 796.122,1430.69 804.486,1464.79 812.849,1460.93 821.213,1453.64 829.577,1449.54 837.94,1482.52 846.304,1471.15 854.668,1474.29 863.031,1478.88 871.395,1486.13 879.759,1486.3 888.122,1481.58 896.486,1507.03 904.85,1508.22 913.213,1510.24 921.577,1515.85 929.941,1510.64 938.304,1506.49 946.668,1517.64 955.032,1511.76 963.395,1526.01 971.759,1522.5 980.123,1520.44 988.486,1513.41 996.85,1516.82 1005.21,1540.47 1013.58,1522.86 1021.94,1536.52 1030.3,1528.21 1038.67,1517.16 1047.03,1520.29 1055.4,1536.84 1063.76,1530.5 1072.12,1534.18 1080.49,1531.5 1088.85,1525.65 1097.21,1543.45 1105.58,1534.72 1113.94,1535.07 1122.3,1541.69 1130.67,1537.88 1139.03,1545.66 1147.4,1533.58 1155.76,1536.58 1164.12,1538.02 1172.49,1537.71 1180.85,1536.08 1189.21,1543.9 1197.58,1538.69 1205.94,1539.3 1214.31,1544.46 1222.67,1543.25 1231.03,1526.74 1239.4,1551.79 1247.76,1530.92 1256.12,1541.35 1264.49,1540.79 1272.85,1543.7 1281.21,1539.41 1289.58,1551.63 1297.94,1532.83 1306.31,1526.29 1314.67,1533.05 1323.03,1525.38 1331.4,1537.72 1339.76,1515.29 1348.12,1516.88 1356.49,1532.44 1364.85,1536.88 1373.21,1525.93 1381.58,1536.28 1389.94,1543.25 1398.31,1550.44 1406.67,1532.71 1415.03,1544.38 1423.4,1548.92 1431.76,1549.36 1440.12,1550.4 1448.49,1536.33 1456.85,1549.76 1465.22,1549.86 1473.58,1552.94 1481.94,1548.1 1490.31,1541.15 1498.67,1529.75 1507.03,1538.68 1515.4,1542.72 1523.76,1548.98 1532.12,1547.8 1540.49,1524.44 1548.85,1546.14 1557.22,1538.16 1565.58,1553.56 1573.94,1545.3 1582.31,1536.83 1590.67,1540.59 1599.03,1545.94 1607.4,1553.85 1615.76,1531.02 1624.12,1546 1632.49,1537.75 1640.85,1544.04 1649.22,1549.59 1657.58,1550.67 1665.94,1558.78 1674.31,1548.97 1682.67,1545.01 1691.03,1539.15 1699.4,1542.84 1707.76,1545.21 1716.13,1550.77 1724.49,1546.32 1732.85,1557.75 1741.22,1547.28 1749.58,1539.23 1757.94,1533.57 1766.31,1545.16 1774.67,1543.35 1783.03,1527.48 1791.4,1538.61 1799.76,1520.07 1808.13,1542.46 1816.49,1545.48 1824.85,1540.94 1833.22,1542.98 1841.58,1539.83 1849.94,1546.56 1858.31,1540.41 1866.67,1543.91 1875.03,1540.97 1883.4,1538.37 1891.76,1540.25 1900.13,1549.53 1908.49,1541.09 1916.85,1547.02 1925.22,1546.93 1933.58,1542.34 1941.94,1542.99 1950.31,1549.42 1958.67,1531.16 1967.04,1542.7 1975.4,1545.54 1983.76,1553.63 1992.13,1556.73 2000.49,1562.19 2008.85,1553.36 2017.22,1567.93 2025.58,1550.87 2033.94,1535.65 2042.31,1540.22 2050.67,1535.48 2059.04,1533.58 2067.4,1534.43 2075.76,1546.42 2084.13,1543.06 2092.49,1536.38 2100.85,1559.58 2109.22,1541.89 2117.58,1562.81 2125.94,1545.56 2134.31,1551.12 2142.67,1546.68 2151.04,1540.13 2159.4,1543.65 2167.76,1566.94 2176.13,1544.87 2184.49,1555.3 2192.85,1539.21 2201.22,1553.12 2209.58,1549.96 2217.95,1542.57 2226.31,1529.07 2234.67,1543.57 2243.04,1529.64 2251.4,1523.63 2259.76,1540.55 2268.13,1538.87 2276.49,1536.23 2284.85,1534.01 2293.22,1539.96 2301.58,1523.34 2309.95,1542.21 2318.31,1536.82 2326.67,1547.46 2335.04,1532.57 2343.4,1525.62 2351.76,1536.11 2360.13,1544.57 2368.49,1544.28 2376.85,1540.41 2385.22,1542.12 2393.58,1538.48 2401.95,1544.81 2410.31,1556.39 2418.67,1541.67 2427.04,1542.44 2435.4,1556.5 2443.76,1555.86 2452.13,1550.74 2460.49,1553.87 2468.86,1562 2477.22,1549.62 2485.58,1539.8 2493.95,1554.21 2502.31,1557.41 2510.67,1540.21 2519.04,1542.4 2527.4,1548.33 2535.76,1552.3 2544.13,1560.59 2552.49,1549.93 2560.86,1549.15 2569.22,1540.72 2577.58,1550.01 2585.95,1536.12 2594.31,1533.93 2602.67,1552.35 2611.04,1548.33 "/>
<path clip-path="url(#clip880)" d="M1946.56 409.426 L2599.84 409.426 L2599.84 176.146 L1946.56 176.146  Z" fill="#ffffff" fill-rule="evenodd" fill-opacity="1"/>
<polyline clip-path="url(#clip880)" style="stroke:#000000; stroke-linecap:round; stroke-linejoin:round; stroke-width:4; stroke-opacity:1; fill:none" points="1946.56,409.426 2599.84,409.426 2599.84,176.146 1946.56,176.146 1946.56,409.426 "/>
<polyline clip-path="url(#clip880)" style="stroke:#d45e00; stroke-linecap:round; stroke-linejoin:round; stroke-width:9; stroke-opacity:1; fill:none" stroke-dasharray="36, 23" points="1971.29,234.466 2119.64,234.466 "/>
<path clip-path="url(#clip880)" d="M2162.38 218.594 Q2156.66 218.594 2153.27 222.864 Q2149.91 227.135 2149.91 234.505 Q2149.91 241.849 2153.27 246.119 Q2156.66 250.39 2162.38 250.39 Q2168.11 250.39 2171.45 246.119 Q2174.81 241.849 2174.81 234.505 Q2174.81 227.135 2171.45 222.864 Q2168.11 218.594 2162.38 218.594 M2162.38 214.323 Q2170.56 214.323 2175.46 219.817 Q2180.35 225.286 2180.35 234.505 Q2180.35 243.698 2175.46 249.192 Q2170.56 254.661 2162.38 254.661 Q2154.18 254.661 2149.26 249.192 Q2144.36 243.724 2144.36 234.505 Q2144.36 225.286 2149.26 219.817 Q2154.18 214.323 2162.38 214.323 Z" fill="#000000" fill-rule="nonzero" fill-opacity="1" /><path clip-path="url(#clip880)" d="M2209.31 239.349 Q2209.31 234.062 2207.12 231.067 Q2204.96 228.047 2201.16 228.047 Q2197.36 228.047 2195.17 231.067 Q2193.01 234.062 2193.01 239.349 Q2193.01 244.635 2195.17 247.656 Q2197.36 250.651 2201.16 250.651 Q2204.96 250.651 2207.12 247.656 Q2209.31 244.635 2209.31 239.349 M2193.01 229.166 Q2194.52 226.562 2196.81 225.312 Q2199.13 224.036 2202.33 224.036 Q2207.64 224.036 2210.95 228.255 Q2214.28 232.474 2214.28 239.349 Q2214.28 246.224 2210.95 250.442 Q2207.64 254.661 2202.33 254.661 Q2199.13 254.661 2196.81 253.411 Q2194.52 252.135 2193.01 249.531 L2193.01 253.906 L2188.19 253.906 L2188.19 213.385 L2193.01 213.385 L2193.01 229.166 Z" fill="#000000" fill-rule="nonzero" fill-opacity="1" /><path clip-path="url(#clip880)" d="M2240.82 225.599 L2240.82 230.13 Q2238.79 229.088 2236.6 228.567 Q2234.42 228.047 2232.07 228.047 Q2228.5 228.047 2226.71 229.14 Q2224.94 230.234 2224.94 232.422 Q2224.94 234.088 2226.21 235.052 Q2227.49 235.989 2231.34 236.849 L2232.98 237.213 Q2238.09 238.307 2240.22 240.312 Q2242.38 242.291 2242.38 245.859 Q2242.38 249.921 2239.15 252.291 Q2235.95 254.661 2230.33 254.661 Q2227.98 254.661 2225.43 254.192 Q2222.9 253.75 2220.09 252.838 L2220.09 247.89 Q2222.75 249.27 2225.33 249.974 Q2227.9 250.651 2230.43 250.651 Q2233.82 250.651 2235.64 249.505 Q2237.46 248.333 2237.46 246.224 Q2237.46 244.27 2236.13 243.229 Q2234.83 242.187 2230.38 241.224 L2228.71 240.833 Q2224.26 239.895 2222.28 237.968 Q2220.3 236.015 2220.3 232.63 Q2220.3 228.515 2223.22 226.276 Q2226.13 224.036 2231.5 224.036 Q2234.15 224.036 2236.5 224.427 Q2238.84 224.817 2240.82 225.599 Z" fill="#000000" fill-rule="nonzero" fill-opacity="1" /><path clip-path="url(#clip880)" d="M2274.96 238.125 L2274.96 240.468 L2252.93 240.468 Q2253.24 245.416 2255.9 248.02 Q2258.58 250.599 2263.35 250.599 Q2266.11 250.599 2268.69 249.921 Q2271.29 249.244 2273.84 247.89 L2273.84 252.421 Q2271.26 253.515 2268.56 254.088 Q2265.85 254.661 2263.06 254.661 Q2256.08 254.661 2251.99 250.599 Q2247.93 246.536 2247.93 239.609 Q2247.93 232.448 2251.78 228.255 Q2255.66 224.036 2262.23 224.036 Q2268.11 224.036 2271.52 227.838 Q2274.96 231.614 2274.96 238.125 M2270.17 236.718 Q2270.12 232.786 2267.96 230.442 Q2265.82 228.099 2262.28 228.099 Q2258.27 228.099 2255.85 230.364 Q2253.45 232.63 2253.09 236.744 L2270.17 236.718 Z" fill="#000000" fill-rule="nonzero" fill-opacity="1" /><path clip-path="url(#clip880)" d="M2299.73 229.218 Q2298.92 228.75 2297.96 228.541 Q2297.02 228.307 2295.87 228.307 Q2291.81 228.307 2289.62 230.963 Q2287.46 233.593 2287.46 238.541 L2287.46 253.906 L2282.64 253.906 L2282.64 224.739 L2287.46 224.739 L2287.46 229.271 Q2288.97 226.614 2291.39 225.338 Q2293.82 224.036 2297.28 224.036 Q2297.77 224.036 2298.37 224.114 Q2298.97 224.166 2299.7 224.297 L2299.73 229.218 Z" fill="#000000" fill-rule="nonzero" fill-opacity="1" /><path clip-path="url(#clip880)" d="M2301.32 224.739 L2306.39 224.739 L2315.51 249.218 L2324.62 224.739 L2329.7 224.739 L2318.76 253.906 L2312.25 253.906 L2301.32 224.739 Z" fill="#000000" fill-rule="nonzero" fill-opacity="1" /><path clip-path="url(#clip880)" d="M2361.26 238.125 L2361.26 240.468 L2339.23 240.468 Q2339.54 245.416 2342.2 248.02 Q2344.88 250.599 2349.65 250.599 Q2352.41 250.599 2354.99 249.921 Q2357.59 249.244 2360.14 247.89 L2360.14 252.421 Q2357.57 253.515 2354.86 254.088 Q2352.15 254.661 2349.36 254.661 Q2342.38 254.661 2338.29 250.599 Q2334.23 246.536 2334.23 239.609 Q2334.23 232.448 2338.09 228.255 Q2341.97 224.036 2348.53 224.036 Q2354.41 224.036 2357.83 227.838 Q2361.26 231.614 2361.26 238.125 M2356.47 236.718 Q2356.42 232.786 2354.26 230.442 Q2352.12 228.099 2348.58 228.099 Q2344.57 228.099 2342.15 230.364 Q2339.75 232.63 2339.39 236.744 L2356.47 236.718 Z" fill="#000000" fill-rule="nonzero" fill-opacity="1" /><path clip-path="url(#clip880)" d="M2388.32 229.166 L2388.32 213.385 L2393.11 213.385 L2393.11 253.906 L2388.32 253.906 L2388.32 249.531 Q2386.81 252.135 2384.49 253.411 Q2382.2 254.661 2378.97 254.661 Q2373.69 254.661 2370.35 250.442 Q2367.04 246.224 2367.04 239.349 Q2367.04 232.474 2370.35 228.255 Q2373.69 224.036 2378.97 224.036 Q2382.2 224.036 2384.49 225.312 Q2386.81 226.562 2388.32 229.166 M2371.99 239.349 Q2371.99 244.635 2374.15 247.656 Q2376.34 250.651 2380.14 250.651 Q2383.95 250.651 2386.13 247.656 Q2388.32 244.635 2388.32 239.349 Q2388.32 234.062 2386.13 231.067 Q2383.95 228.047 2380.14 228.047 Q2376.34 228.047 2374.15 231.067 Q2371.99 234.062 2371.99 239.349 Z" fill="#000000" fill-rule="nonzero" fill-opacity="1" /><polyline clip-path="url(#clip880)" style="stroke:#009e73; stroke-linecap:round; stroke-linejoin:round; stroke-width:9; stroke-opacity:1; fill:none" points="1971.29,292.786 2119.64,292.786 "/>
<path clip-path="url(#clip880)" d="M2175.72 276.341 L2175.72 281.887 Q2173.06 279.414 2170.04 278.19 Q2167.05 276.966 2163.66 276.966 Q2156.99 276.966 2153.45 281.054 Q2149.91 285.117 2149.91 292.825 Q2149.91 300.507 2153.45 304.596 Q2156.99 308.658 2163.66 308.658 Q2167.05 308.658 2170.04 307.434 Q2173.06 306.21 2175.72 303.736 L2175.72 309.231 Q2172.96 311.106 2169.86 312.044 Q2166.79 312.981 2163.35 312.981 Q2154.52 312.981 2149.44 307.59 Q2144.36 302.174 2144.36 292.825 Q2144.36 283.45 2149.44 278.059 Q2154.52 272.643 2163.35 272.643 Q2166.84 272.643 2169.91 273.58 Q2173.01 274.492 2175.72 276.341 Z" fill="#000000" fill-rule="nonzero" fill-opacity="1" /><path clip-path="url(#clip880)" d="M2183.84 273.346 L2189.1 273.346 L2189.1 289.283 L2208.22 289.283 L2208.22 273.346 L2213.48 273.346 L2213.48 312.226 L2208.22 312.226 L2208.22 293.71 L2189.1 293.71 L2189.1 312.226 L2183.84 312.226 L2183.84 273.346 Z" fill="#000000" fill-rule="nonzero" fill-opacity="1" /><path clip-path="url(#clip880)" d="M2223.95 273.346 L2231.78 273.346 L2241.71 299.804 L2251.68 273.346 L2259.52 273.346 L2259.52 312.226 L2254.39 312.226 L2254.39 278.085 L2244.36 304.752 L2239.08 304.752 L2229.05 278.085 L2229.05 312.226 L2223.95 312.226 L2223.95 273.346 Z" fill="#000000" fill-rule="nonzero" fill-opacity="1" /><path clip-path="url(#clip880)" d="M2269.96 273.346 L2277.8 273.346 L2287.72 299.804 L2297.7 273.346 L2305.53 273.346 L2305.53 312.226 L2300.4 312.226 L2300.4 278.085 L2290.38 304.752 L2285.09 304.752 L2275.07 278.085 L2275.07 312.226 L2269.96 312.226 L2269.96 273.346 Z" fill="#000000" fill-rule="nonzero" fill-opacity="1" /><path clip-path="url(#clip880)" d="M2313.35 295.481 L2327.38 295.481 L2327.38 299.752 L2313.35 299.752 L2313.35 295.481 Z" fill="#000000" fill-rule="nonzero" fill-opacity="1" /><path clip-path="url(#clip880)" d="M2335.22 273.346 L2342.31 273.346 L2359.54 305.872 L2359.54 273.346 L2364.65 273.346 L2364.65 312.226 L2357.57 312.226 L2340.33 279.7 L2340.33 312.226 L2335.22 312.226 L2335.22 273.346 Z" fill="#000000" fill-rule="nonzero" fill-opacity="1" /><path clip-path="url(#clip880)" d="M2403.37 271.757 Q2399.88 277.747 2398.19 283.606 Q2396.5 289.466 2396.5 295.481 Q2396.5 301.497 2398.19 307.408 Q2399.91 313.294 2403.37 319.257 L2399.21 319.257 Q2395.3 313.137 2393.35 307.226 Q2391.42 301.314 2391.42 295.481 Q2391.42 289.674 2393.35 283.788 Q2395.27 277.903 2399.21 271.757 L2403.37 271.757 Z" fill="#000000" fill-rule="nonzero" fill-opacity="1" /><path clip-path="url(#clip880)" d="M2435.38 288.658 Q2437.17 285.429 2439.67 283.893 Q2442.17 282.356 2445.56 282.356 Q2450.12 282.356 2452.59 285.559 Q2455.06 288.736 2455.06 294.622 L2455.06 312.226 L2450.25 312.226 L2450.25 294.778 Q2450.25 290.585 2448.76 288.554 Q2447.28 286.523 2444.23 286.523 Q2440.51 286.523 2438.35 288.997 Q2436.18 291.471 2436.18 295.742 L2436.18 312.226 L2431.37 312.226 L2431.37 294.778 Q2431.37 290.559 2429.88 288.554 Q2428.4 286.523 2425.3 286.523 Q2421.63 286.523 2419.47 289.023 Q2417.3 291.497 2417.3 295.742 L2417.3 312.226 L2412.49 312.226 L2412.49 283.059 L2417.3 283.059 L2417.3 287.591 Q2418.95 284.908 2421.24 283.632 Q2423.53 282.356 2426.68 282.356 Q2429.86 282.356 2432.07 283.971 Q2434.31 285.585 2435.38 288.658 Z" fill="#000000" fill-rule="nonzero" fill-opacity="1" /><path clip-path="url(#clip880)" d="M2489.57 296.445 L2489.57 298.788 L2467.54 298.788 Q2467.85 303.736 2470.51 306.34 Q2473.19 308.919 2477.96 308.919 Q2480.72 308.919 2483.29 308.241 Q2485.9 307.564 2488.45 306.21 L2488.45 310.741 Q2485.87 311.835 2483.16 312.408 Q2480.46 312.981 2477.67 312.981 Q2470.69 312.981 2466.6 308.919 Q2462.54 304.856 2462.54 297.929 Q2462.54 290.768 2466.39 286.575 Q2470.27 282.356 2476.84 282.356 Q2482.72 282.356 2486.13 286.158 Q2489.57 289.934 2489.57 296.445 M2484.78 295.038 Q2484.73 291.106 2482.56 288.762 Q2480.43 286.419 2476.89 286.419 Q2472.88 286.419 2470.46 288.684 Q2468.06 290.95 2467.7 295.064 L2484.78 295.038 Z" fill="#000000" fill-rule="nonzero" fill-opacity="1" /><path clip-path="url(#clip880)" d="M2510.69 297.564 Q2504.88 297.564 2502.64 298.893 Q2500.4 300.221 2500.4 303.424 Q2500.4 305.976 2502.07 307.486 Q2503.76 308.971 2506.65 308.971 Q2510.64 308.971 2513.03 306.158 Q2515.46 303.32 2515.46 298.632 L2515.46 297.564 L2510.69 297.564 M2520.25 295.585 L2520.25 312.226 L2515.46 312.226 L2515.46 307.799 Q2513.81 310.455 2511.37 311.731 Q2508.92 312.981 2505.38 312.981 Q2500.9 312.981 2498.24 310.481 Q2495.61 307.955 2495.61 303.736 Q2495.61 298.814 2498.89 296.314 Q2502.2 293.814 2508.74 293.814 L2515.46 293.814 L2515.46 293.346 Q2515.46 290.038 2513.27 288.242 Q2511.11 286.419 2507.17 286.419 Q2504.67 286.419 2502.3 287.018 Q2499.93 287.617 2497.75 288.814 L2497.75 284.387 Q2500.38 283.372 2502.85 282.877 Q2505.33 282.356 2507.67 282.356 Q2514 282.356 2517.12 285.637 Q2520.25 288.919 2520.25 295.585 Z" fill="#000000" fill-rule="nonzero" fill-opacity="1" /><path clip-path="url(#clip880)" d="M2554.36 294.622 L2554.36 312.226 L2549.57 312.226 L2549.57 294.778 Q2549.57 290.637 2547.96 288.58 Q2546.34 286.523 2543.11 286.523 Q2539.23 286.523 2536.99 288.997 Q2534.75 291.471 2534.75 295.742 L2534.75 312.226 L2529.93 312.226 L2529.93 283.059 L2534.75 283.059 L2534.75 287.591 Q2536.47 284.96 2538.79 283.658 Q2541.13 282.356 2544.18 282.356 Q2549.21 282.356 2551.78 285.481 Q2554.36 288.58 2554.36 294.622 Z" fill="#000000" fill-rule="nonzero" fill-opacity="1" /><path clip-path="url(#clip880)" d="M2563.16 271.757 L2567.33 271.757 Q2571.24 277.903 2573.16 283.788 Q2575.12 289.674 2575.12 295.481 Q2575.12 301.314 2573.16 307.226 Q2571.24 313.137 2567.33 319.257 L2563.16 319.257 Q2566.63 313.294 2568.32 307.408 Q2570.04 301.497 2570.04 295.481 Q2570.04 289.466 2568.32 283.606 Q2566.63 277.747 2563.16 271.757 Z" fill="#000000" fill-rule="nonzero" fill-opacity="1" /><path clip-path="url(#clip880)" d="M1971.29 374.434 L2119.64 374.434 L2119.64 327.778 L1971.29 327.778 L1971.29 374.434  Z" fill="#009e73" fill-rule="evenodd" fill-opacity="0.2"/>
<polyline clip-path="url(#clip880)" style="stroke:#009e73; stroke-linecap:round; stroke-linejoin:round; stroke-width:4.5; stroke-opacity:0.2; fill:none" points="1971.29,327.778 2119.64,327.778 "/>
<path clip-path="url(#clip880)" d="M2145.12 366.119 L2153.71 366.119 L2153.71 336.457 L2144.36 338.332 L2144.36 333.541 L2153.66 331.666 L2158.92 331.666 L2158.92 366.119 L2167.51 366.119 L2167.51 370.546 L2145.12 370.546 L2145.12 366.119 Z" fill="#000000" fill-rule="nonzero" fill-opacity="1" /><path clip-path="url(#clip880)" d="M2189.39 335.129 Q2185.33 335.129 2183.27 339.14 Q2181.24 343.124 2181.24 351.145 Q2181.24 359.14 2183.27 363.15 Q2185.33 367.134 2189.39 367.134 Q2193.48 367.134 2195.51 363.15 Q2197.57 359.14 2197.57 351.145 Q2197.57 343.124 2195.51 339.14 Q2193.48 335.129 2189.39 335.129 M2189.39 330.963 Q2195.93 330.963 2199.36 336.145 Q2202.83 341.301 2202.83 351.145 Q2202.83 360.963 2199.36 366.145 Q2195.93 371.301 2189.39 371.301 Q2182.85 371.301 2179.39 366.145 Q2175.95 360.963 2175.95 351.145 Q2175.95 341.301 2179.39 336.145 Q2182.85 330.963 2189.39 330.963 Z" fill="#000000" fill-rule="nonzero" fill-opacity="1" /><path clip-path="url(#clip880)" d="M2208.97 353.801 L2223.01 353.801 L2223.01 358.072 L2208.97 358.072 L2208.97 353.801 Z" fill="#000000" fill-rule="nonzero" fill-opacity="1" /><path clip-path="url(#clip880)" d="M2231.47 369.739 L2231.47 364.947 Q2233.45 365.884 2235.48 366.379 Q2237.51 366.874 2239.47 366.874 Q2244.68 366.874 2247.41 363.384 Q2250.17 359.869 2250.56 352.733 Q2249.05 354.973 2246.73 356.171 Q2244.41 357.369 2241.6 357.369 Q2235.77 357.369 2232.36 353.853 Q2228.97 350.312 2228.97 344.192 Q2228.97 338.202 2232.51 334.582 Q2236.06 330.963 2241.94 330.963 Q2248.69 330.963 2252.23 336.145 Q2255.8 341.301 2255.8 351.145 Q2255.8 360.338 2251.42 365.832 Q2247.07 371.301 2239.7 371.301 Q2237.72 371.301 2235.69 370.91 Q2233.66 370.52 2231.47 369.739 M2241.94 353.254 Q2245.48 353.254 2247.54 350.832 Q2249.62 348.411 2249.62 344.192 Q2249.62 339.999 2247.54 337.577 Q2245.48 335.129 2241.94 335.129 Q2238.4 335.129 2236.32 337.577 Q2234.26 339.999 2234.26 344.192 Q2234.26 348.411 2236.32 350.832 Q2238.4 353.254 2241.94 353.254 Z" fill="#000000" fill-rule="nonzero" fill-opacity="1" /><path clip-path="url(#clip880)" d="M2276.5 335.129 Q2272.44 335.129 2270.38 339.14 Q2268.35 343.124 2268.35 351.145 Q2268.35 359.14 2270.38 363.15 Q2272.44 367.134 2276.5 367.134 Q2280.59 367.134 2282.62 363.15 Q2284.68 359.14 2284.68 351.145 Q2284.68 343.124 2282.62 339.14 Q2280.59 335.129 2276.5 335.129 M2276.5 330.963 Q2283.03 330.963 2286.47 336.145 Q2289.94 341.301 2289.94 351.145 Q2289.94 360.963 2286.47 366.145 Q2283.03 371.301 2276.5 371.301 Q2269.96 371.301 2266.5 366.145 Q2263.06 360.963 2263.06 351.145 Q2263.06 341.301 2266.5 336.145 Q2269.96 330.963 2276.5 330.963 Z" fill="#000000" fill-rule="nonzero" fill-opacity="1" /><path clip-path="url(#clip880)" d="M2303.24 333.098 L2303.24 341.379 L2313.11 341.379 L2313.11 345.103 L2303.24 345.103 L2303.24 360.937 Q2303.24 364.504 2304.21 365.52 Q2305.2 366.535 2308.19 366.535 L2313.11 366.535 L2313.11 370.546 L2308.19 370.546 Q2302.64 370.546 2300.53 368.489 Q2298.43 366.405 2298.43 360.937 L2298.43 345.103 L2294.91 345.103 L2294.91 341.379 L2298.43 341.379 L2298.43 333.098 L2303.24 333.098 Z" fill="#000000" fill-rule="nonzero" fill-opacity="1" /><path clip-path="url(#clip880)" d="M2343.66 352.942 L2343.66 370.546 L2338.87 370.546 L2338.87 353.098 Q2338.87 348.957 2337.25 346.9 Q2335.64 344.843 2332.41 344.843 Q2328.53 344.843 2326.29 347.317 Q2324.05 349.791 2324.05 354.062 L2324.05 370.546 L2319.23 370.546 L2319.23 330.025 L2324.05 330.025 L2324.05 345.911 Q2325.77 343.28 2328.09 341.978 Q2330.43 340.676 2333.48 340.676 Q2338.5 340.676 2341.08 343.801 Q2343.66 346.9 2343.66 352.942 Z" fill="#000000" fill-rule="nonzero" fill-opacity="1" /><path clip-path="url(#clip880)" d="M2374.8 366.171 L2374.8 381.64 L2369.99 381.64 L2369.99 341.379 L2374.8 341.379 L2374.8 345.806 Q2376.32 343.202 2378.61 341.952 Q2380.92 340.676 2384.13 340.676 Q2389.44 340.676 2392.75 344.895 Q2396.08 349.114 2396.08 355.989 Q2396.08 362.864 2392.75 367.082 Q2389.44 371.301 2384.13 371.301 Q2380.92 371.301 2378.61 370.051 Q2376.32 368.775 2374.8 366.171 M2391.11 355.989 Q2391.11 350.702 2388.92 347.707 Q2386.76 344.687 2382.96 344.687 Q2379.15 344.687 2376.97 347.707 Q2374.8 350.702 2374.8 355.989 Q2374.8 361.275 2376.97 364.296 Q2379.15 367.291 2382.96 367.291 Q2386.76 367.291 2388.92 364.296 Q2391.11 361.275 2391.11 355.989 Z" fill="#000000" fill-rule="nonzero" fill-opacity="1" /><path clip-path="url(#clip880)" d="M2425.01 342.499 L2425.01 346.978 Q2422.98 345.858 2420.92 345.312 Q2418.89 344.739 2416.81 344.739 Q2412.15 344.739 2409.57 347.707 Q2406.99 350.65 2406.99 355.989 Q2406.99 361.327 2409.57 364.296 Q2412.15 367.239 2416.81 367.239 Q2418.89 367.239 2420.92 366.692 Q2422.98 366.119 2425.01 364.999 L2425.01 369.426 Q2423.01 370.364 2420.85 370.832 Q2418.71 371.301 2416.29 371.301 Q2409.7 371.301 2405.82 367.16 Q2401.94 363.02 2401.94 355.989 Q2401.94 348.853 2405.85 344.765 Q2409.78 340.676 2416.6 340.676 Q2418.82 340.676 2420.92 341.145 Q2423.03 341.588 2425.01 342.499 Z" fill="#000000" fill-rule="nonzero" fill-opacity="1" /><path clip-path="url(#clip880)" d="M2438.09 333.098 L2438.09 341.379 L2447.96 341.379 L2447.96 345.103 L2438.09 345.103 L2438.09 360.937 Q2438.09 364.504 2439.05 365.52 Q2440.04 366.535 2443.03 366.535 L2447.96 366.535 L2447.96 370.546 L2443.03 370.546 Q2437.49 370.546 2435.38 368.489 Q2433.27 366.405 2433.27 360.937 L2433.27 345.103 L2429.75 345.103 L2429.75 341.379 L2433.27 341.379 L2433.27 333.098 L2438.09 333.098 Z" fill="#000000" fill-rule="nonzero" fill-opacity="1" /><path clip-path="url(#clip880)" d="M2454.26 330.025 L2459.05 330.025 L2459.05 370.546 L2454.26 370.546 L2454.26 330.025 Z" fill="#000000" fill-rule="nonzero" fill-opacity="1" /></svg>
