<?xml version="1.0" encoding="utf-8"?>
<svg xmlns="http://www.w3.org/2000/svg" xmlns:xlink="http://www.w3.org/1999/xlink" width="700" height="450" viewBox="0 0 2800 1800">
<defs>
  <clipPath id="clip250">
    <rect x="0" y="0" width="2800" height="1800"/>
  </clipPath>
</defs>
<path clip-path="url(#clip250)" d="M0 1800 L2800 1800 L2800 -1.33227e-13 L0 -1.33227e-13  Z" fill="#ffffff" fill-rule="evenodd" fill-opacity="1"/>
<defs>
  <clipPath id="clip251">
    <rect x="500" y="125" width="2175" height="1318"/>
  </clipPath>
</defs>
<path clip-path="url(#clip250)" d="M500.024 1442.55 L2674.02 1442.55 L2674.02 125.984 L500.024 125.984  Z" fill="#ffffff" fill-rule="evenodd" fill-opacity="1"/>
<polyline clip-path="url(#clip251)" style="stroke:#000000; stroke-linecap:round; stroke-linejoin:round; stroke-width:2; stroke-opacity:0.1; fill:none" points="781.295,1442.55 781.295,125.984 "/>
<polyline clip-path="url(#clip251)" style="stroke:#000000; stroke-linecap:round; stroke-linejoin:round; stroke-width:2; stroke-opacity:0.1; fill:none" points="1147.53,1442.55 1147.53,125.984 "/>
<polyline clip-path="url(#clip251)" style="stroke:#000000; stroke-linecap:round; stroke-linejoin:round; stroke-width:2; stroke-opacity:0.1; fill:none" points="1513.77,1442.55 1513.77,125.984 "/>
<polyline clip-path="url(#clip251)" style="stroke:#000000; stroke-linecap:round; stroke-linejoin:round; stroke-width:2; stroke-opacity:0.1; fill:none" points="1880.01,1442.55 1880.01,125.984 "/>
<polyline clip-path="url(#clip251)" style="stroke:#000000; stroke-linecap:round; stroke-linejoin:round; stroke-width:2; stroke-opacity:0.1; fill:none" points="2246.25,1442.55 2246.25,125.984 "/>
<polyline clip-path="url(#clip251)" style="stroke:#000000; stroke-linecap:round; stroke-linejoin:round; stroke-width:2; stroke-opacity:0.1; fill:none" points="2612.49,1442.55 2612.49,125.984 "/>
<polyline clip-path="url(#clip251)" style="stroke:#000000; stroke-linecap:round; stroke-linejoin:round; stroke-width:2; stroke-opacity:0.1; fill:none" points="500.024,1335.77 2674.02,1335.77 "/>
<polyline clip-path="url(#clip251)" style="stroke:#000000; stroke-linecap:round; stroke-linejoin:round; stroke-width:2; stroke-opacity:0.1; fill:none" points="500.024,1026.18 2674.02,1026.18 "/>
<polyline clip-path="url(#clip251)" style="stroke:#000000; stroke-linecap:round; stroke-linejoin:round; stroke-width:2; stroke-opacity:0.1; fill:none" points="500.024,716.593 2674.02,716.593 "/>
<polyline clip-path="url(#clip251)" style="stroke:#000000; stroke-linecap:round; stroke-linejoin:round; stroke-width:2; stroke-opacity:0.1; fill:none" points="500.024,407.004 2674.02,407.004 "/>
<polyline clip-path="url(#clip250)" style="stroke:#000000; stroke-linecap:round; stroke-linejoin:round; stroke-width:4; stroke-opacity:1; fill:none" points="500.024,1442.55 2674.02,1442.55 "/>
<polyline clip-path="url(#clip250)" style="stroke:#000000; stroke-linecap:round; stroke-linejoin:round; stroke-width:4; stroke-opacity:1; fill:none" points="781.295,1442.55 781.295,1423.65 "/>
<polyline clip-path="url(#clip250)" style="stroke:#000000; stroke-linecap:round; stroke-linejoin:round; stroke-width:4; stroke-opacity:1; fill:none" points="1147.53,1442.55 1147.53,1423.65 "/>
<polyline clip-path="url(#clip250)" style="stroke:#000000; stroke-linecap:round; stroke-linejoin:round; stroke-width:4; stroke-opacity:1; fill:none" points="1513.77,1442.55 1513.77,1423.65 "/>
<polyline clip-path="url(#clip250)" style="stroke:#000000; stroke-linecap:round; stroke-linejoin:round; stroke-width:4; stroke-opacity:1; fill:none" points="1880.01,1442.55 1880.01,1423.65 "/>
<polyline clip-path="url(#clip250)" style="stroke:#000000; stroke-linecap:round; stroke-linejoin:round; stroke-width:4; stroke-opacity:1; fill:none" points="2246.25,1442.55 2246.25,1423.65 "/>
<polyline clip-path="url(#clip250)" style="stroke:#000000; stroke-linecap:round; stroke-linejoin:round; stroke-width:4; stroke-opacity:1; fill:none" points="2612.49,1442.55 2612.49,1423.65 "/>
<path clip-path="url(#clip250)" d="M769.142 1475.75 L792.088 1475.75 L792.088 1480.67 L774.495 1480.67 L774.495 1491.26 Q775.769 1490.83 777.042 1490.62 Q778.315 1490.39 779.588 1490.39 Q786.822 1490.39 791.046 1494.36 Q795.271 1498.32 795.271 1505.09 Q795.271 1512.06 790.93 1515.94 Q786.59 1519.79 778.691 1519.79 Q775.971 1519.79 773.135 1519.33 Q770.329 1518.86 767.319 1517.94 L767.319 1512.06 Q769.924 1513.48 772.701 1514.18 Q775.479 1514.87 778.575 1514.87 Q783.581 1514.87 786.503 1512.24 Q789.426 1509.61 789.426 1505.09 Q789.426 1500.58 786.503 1497.94 Q783.581 1495.31 778.575 1495.31 Q776.231 1495.31 773.888 1495.83 Q771.573 1496.35 769.142 1497.45 L769.142 1475.75 Z" fill="#000000" fill-rule="nonzero" fill-opacity="1" /><path clip-path="url(#clip250)" d="M1115.89 1514.03 L1125.44 1514.03 L1125.44 1481.08 L1115.05 1483.16 L1115.05 1477.83 L1125.38 1475.75 L1131.23 1475.75 L1131.23 1514.03 L1140.78 1514.03 L1140.78 1518.95 L1115.89 1518.95 L1115.89 1514.03 Z" fill="#000000" fill-rule="nonzero" fill-opacity="1" /><path clip-path="url(#clip250)" d="M1165.08 1479.6 Q1160.57 1479.6 1158.28 1484.06 Q1156.03 1488.48 1156.03 1497.39 Q1156.03 1506.28 1158.28 1510.73 Q1160.57 1515.16 1165.08 1515.16 Q1169.63 1515.16 1171.88 1510.73 Q1174.17 1506.28 1174.17 1497.39 Q1174.17 1488.48 1171.88 1484.06 Q1169.63 1479.6 1165.08 1479.6 M1165.08 1474.97 Q1172.35 1474.97 1176.16 1480.73 Q1180.01 1486.46 1180.01 1497.39 Q1180.01 1508.3 1176.16 1514.06 Q1172.35 1519.79 1165.08 1519.79 Q1157.82 1519.79 1153.97 1514.06 Q1150.15 1508.3 1150.15 1497.39 Q1150.15 1486.46 1153.97 1480.73 Q1157.82 1474.97 1165.08 1474.97 Z" fill="#000000" fill-rule="nonzero" fill-opacity="1" /><path clip-path="url(#clip250)" d="M1482.75 1514.03 L1492.3 1514.03 L1492.3 1481.08 L1481.91 1483.16 L1481.91 1477.83 L1492.24 1475.75 L1498.09 1475.75 L1498.09 1514.03 L1507.64 1514.03 L1507.64 1518.95 L1482.75 1518.95 L1482.75 1514.03 Z" fill="#000000" fill-rule="nonzero" fill-opacity="1" /><path clip-path="url(#clip250)" d="M1519.5 1475.75 L1542.45 1475.75 L1542.45 1480.67 L1524.85 1480.67 L1524.85 1491.26 Q1526.13 1490.83 1527.4 1490.62 Q1528.67 1490.39 1529.95 1490.39 Q1537.18 1490.39 1541.41 1494.36 Q1545.63 1498.32 1545.63 1505.09 Q1545.63 1512.06 1541.29 1515.94 Q1536.95 1519.79 1529.05 1519.79 Q1526.33 1519.79 1523.49 1519.33 Q1520.69 1518.86 1517.68 1517.94 L1517.68 1512.06 Q1520.28 1513.48 1523.06 1514.18 Q1525.84 1514.87 1528.93 1514.87 Q1533.94 1514.87 1536.86 1512.24 Q1539.78 1509.61 1539.78 1505.09 Q1539.78 1500.58 1536.86 1497.94 Q1533.94 1495.31 1528.93 1495.31 Q1526.59 1495.31 1524.25 1495.83 Q1521.93 1496.35 1519.5 1497.45 L1519.5 1475.75 Z" fill="#000000" fill-rule="nonzero" fill-opacity="1" /><path clip-path="url(#clip250)" d="M1853.48 1514.03 L1873.88 1514.03 L1873.88 1518.95 L1846.45 1518.95 L1846.45 1514.03 Q1849.77 1510.59 1855.5 1504.8 Q1861.26 1498.99 1862.74 1497.31 Q1865.54 1494.15 1866.64 1491.98 Q1867.77 1489.78 1867.77 1487.67 Q1867.77 1484.23 1865.34 1482.06 Q1862.94 1479.89 1859.06 1479.89 Q1856.31 1479.89 1853.25 1480.84 Q1850.21 1481.8 1846.74 1483.74 L1846.74 1477.83 Q1850.27 1476.42 1853.33 1475.69 Q1856.4 1474.97 1858.95 1474.97 Q1865.66 1474.97 1869.65 1478.33 Q1873.64 1481.68 1873.64 1487.3 Q1873.64 1489.96 1872.63 1492.36 Q1871.65 1494.73 1869.02 1497.97 Q1868.29 1498.81 1864.41 1502.83 Q1860.54 1506.83 1853.48 1514.03 Z" fill="#000000" fill-rule="nonzero" fill-opacity="1" /><path clip-path="url(#clip250)" d="M1898.64 1479.6 Q1894.13 1479.6 1891.85 1484.06 Q1889.59 1488.48 1889.59 1497.39 Q1889.59 1506.28 1891.85 1510.73 Q1894.13 1515.16 1898.64 1515.16 Q1903.19 1515.16 1905.44 1510.73 Q1907.73 1506.28 1907.73 1497.39 Q1907.73 1488.48 1905.44 1484.06 Q1903.19 1479.6 1898.64 1479.6 M1898.64 1474.97 Q1905.91 1474.97 1909.73 1480.73 Q1913.58 1486.46 1913.58 1497.39 Q1913.58 1508.3 1909.73 1514.06 Q1905.91 1519.79 1898.64 1519.79 Q1891.38 1519.79 1887.53 1514.06 Q1883.71 1508.3 1883.71 1497.39 Q1883.71 1486.46 1887.53 1480.73 Q1891.38 1474.97 1898.64 1474.97 Z" fill="#000000" fill-rule="nonzero" fill-opacity="1" /><path clip-path="url(#clip250)" d="M2220.34 1514.03 L2240.74 1514.03 L2240.74 1518.95 L2213.31 1518.95 L2213.31 1514.03 Q2216.63 1510.59 2222.36 1504.8 Q2228.12 1498.99 2229.6 1497.31 Q2232.4 1494.15 2233.5 1491.98 Q2234.63 1489.78 2234.63 1487.67 Q2234.63 1484.23 2232.2 1482.06 Q2229.8 1479.89 2225.92 1479.89 Q2223.17 1479.89 2220.11 1480.84 Q2217.07 1481.8 2213.6 1483.74 L2213.6 1477.83 Q2217.13 1476.42 2220.19 1475.69 Q2223.26 1474.97 2225.81 1474.97 Q2232.52 1474.97 2236.51 1478.33 Q2240.51 1481.68 2240.51 1487.3 Q2240.51 1489.96 2239.49 1492.36 Q2238.51 1494.73 2235.88 1497.97 Q2235.15 1498.81 2231.28 1502.83 Q2227.4 1506.83 2220.34 1514.03 Z" fill="#000000" fill-rule="nonzero" fill-opacity="1" /><path clip-path="url(#clip250)" d="M2253.06 1475.75 L2276.01 1475.75 L2276.01 1480.67 L2258.42 1480.67 L2258.42 1491.26 Q2259.69 1490.83 2260.96 1490.62 Q2262.24 1490.39 2263.51 1490.39 Q2270.74 1490.39 2274.97 1494.36 Q2279.19 1498.32 2279.19 1505.09 Q2279.19 1512.06 2274.85 1515.94 Q2270.51 1519.79 2262.61 1519.79 Q2259.89 1519.79 2257.06 1519.33 Q2254.25 1518.86 2251.24 1517.94 L2251.24 1512.06 Q2253.84 1513.48 2256.62 1514.18 Q2259.4 1514.87 2262.5 1514.87 Q2267.5 1514.87 2270.42 1512.24 Q2273.35 1509.61 2273.35 1505.09 Q2273.35 1500.58 2270.42 1497.94 Q2267.5 1495.31 2262.5 1495.31 Q2260.15 1495.31 2257.81 1495.83 Q2255.49 1496.35 2253.06 1497.45 L2253.06 1475.75 Z" fill="#000000" fill-rule="nonzero" fill-opacity="1" /><path clip-path="url(#clip250)" d="M2598.54 1495.66 Q2602.74 1496.56 2605.08 1499.39 Q2607.45 1502.23 2607.45 1506.39 Q2607.45 1512.79 2603.05 1516.29 Q2598.66 1519.79 2590.55 1519.79 Q2587.84 1519.79 2584.94 1519.24 Q2582.08 1518.72 2579.01 1517.65 L2579.01 1512.01 Q2581.44 1513.42 2584.33 1514.15 Q2587.23 1514.87 2590.38 1514.87 Q2595.88 1514.87 2598.74 1512.7 Q2601.64 1510.53 2601.64 1506.39 Q2601.64 1502.57 2598.95 1500.43 Q2596.28 1498.26 2591.51 1498.26 L2586.48 1498.26 L2586.48 1493.46 L2591.74 1493.46 Q2596.05 1493.46 2598.34 1491.75 Q2600.62 1490.02 2600.62 1486.78 Q2600.62 1483.45 2598.25 1481.68 Q2595.91 1479.89 2591.51 1479.89 Q2589.11 1479.89 2586.36 1480.41 Q2583.61 1480.93 2580.31 1482.03 L2580.31 1476.82 Q2583.64 1475.9 2586.53 1475.43 Q2589.46 1474.97 2592.03 1474.97 Q2598.69 1474.97 2602.56 1478.01 Q2606.44 1481.02 2606.44 1486.17 Q2606.44 1489.76 2604.39 1492.24 Q2602.33 1494.7 2598.54 1495.66 Z" fill="#000000" fill-rule="nonzero" fill-opacity="1" /><path clip-path="url(#clip250)" d="M2631.04 1479.6 Q2626.52 1479.6 2624.24 1484.06 Q2621.98 1488.48 2621.98 1497.39 Q2621.98 1506.28 2624.24 1510.73 Q2626.52 1515.16 2631.04 1515.16 Q2635.58 1515.16 2637.83 1510.73 Q2640.12 1506.28 2640.12 1497.39 Q2640.12 1488.48 2637.83 1484.06 Q2635.58 1479.6 2631.04 1479.6 M2631.04 1474.97 Q2638.3 1474.97 2642.12 1480.73 Q2645.97 1486.46 2645.97 1497.39 Q2645.97 1508.3 2642.12 1514.06 Q2638.3 1519.79 2631.04 1519.79 Q2623.77 1519.79 2619.92 1514.06 Q2616.1 1508.3 2616.1 1497.39 Q2616.1 1486.46 2619.92 1480.73 Q2623.77 1474.97 2631.04 1474.97 Z" fill="#000000" fill-rule="nonzero" fill-opacity="1" /><path clip-path="url(#clip250)" d="M946.12 1606.38 L935.235 1570.73 L941.537 1570.73 L950.736 1600.65 Q954.555 1596.7 957.738 1591.23 Q960.157 1587.12 960.284 1583.55 Q960.348 1581.87 959.584 1578.68 Q958.693 1574.9 955.319 1570.73 L961.239 1570.73 L961.239 1570.73 Q963.435 1573.56 964.899 1577.51 Q966.236 1581.14 966.236 1583.62 Q966.236 1589.86 961.907 1595.43 Q956.274 1602.68 952.359 1606.38 L946.12 1606.38 Z" fill="#000000" fill-rule="nonzero" fill-opacity="1" /><path clip-path="url(#clip250)" d="M1010.22 1556.91 Q1005.96 1564.23 1003.89 1571.4 Q1001.82 1578.56 1001.82 1585.91 Q1001.82 1593.26 1003.89 1600.49 Q1005.99 1607.68 1010.22 1614.97 L1005.13 1614.97 Q1000.36 1607.49 997.969 1600.26 Q995.614 1593.04 995.614 1585.91 Q995.614 1578.81 997.969 1571.62 Q1000.32 1564.43 1005.13 1556.91 L1010.22 1556.91 Z" fill="#000000" fill-rule="nonzero" fill-opacity="1" /><path clip-path="url(#clip250)" d="M1050.33 1560.42 L1050.33 1566.69 Q1046.67 1564.93 1043.42 1564.08 Q1040.17 1563.22 1037.15 1563.22 Q1031.9 1563.22 1029.03 1565.25 Q1026.2 1567.29 1026.2 1571.05 Q1026.2 1574.2 1028.08 1575.82 Q1029.99 1577.41 1035.27 1578.4 L1039.16 1579.19 Q1046.35 1580.56 1049.75 1584.03 Q1053.19 1587.47 1053.19 1593.26 Q1053.19 1600.17 1048.54 1603.73 Q1043.93 1607.3 1034.99 1607.3 Q1031.61 1607.3 1027.79 1606.53 Q1024 1605.77 1019.93 1604.27 L1019.93 1597.65 Q1023.85 1599.85 1027.6 1600.96 Q1031.36 1602.08 1034.99 1602.08 Q1040.49 1602.08 1043.48 1599.91 Q1046.48 1597.75 1046.48 1593.74 Q1046.48 1590.24 1044.31 1588.27 Q1042.18 1586.29 1037.28 1585.31 L1033.36 1584.54 Q1026.17 1583.11 1022.95 1580.05 Q1019.74 1577 1019.74 1571.56 Q1019.74 1565.25 1024.16 1561.62 Q1028.62 1558 1036.42 1558 Q1039.76 1558 1043.23 1558.6 Q1046.7 1559.21 1050.33 1560.42 Z" fill="#000000" fill-rule="nonzero" fill-opacity="1" /><path clip-path="url(#clip250)" d="M1068.76 1560.61 L1068.76 1570.73 L1080.82 1570.73 L1080.82 1575.28 L1068.76 1575.28 L1068.76 1594.63 Q1068.76 1598.99 1069.93 1600.23 Q1071.14 1601.47 1074.8 1601.47 L1080.82 1601.47 L1080.82 1606.38 L1074.8 1606.38 Q1068.02 1606.38 1065.45 1603.86 Q1062.87 1601.31 1062.87 1594.63 L1062.87 1575.28 L1058.57 1575.28 L1058.57 1570.73 L1062.87 1570.73 L1062.87 1560.61 L1068.76 1560.61 Z" fill="#000000" fill-rule="nonzero" fill-opacity="1" /><path clip-path="url(#clip250)" d="M1087.92 1592.31 L1087.92 1570.73 L1093.77 1570.73 L1093.77 1592.08 Q1093.77 1597.15 1095.75 1599.69 Q1097.72 1602.21 1101.67 1602.21 Q1106.41 1602.21 1109.15 1599.18 Q1111.92 1596.16 1111.92 1590.94 L1111.92 1570.73 L1117.77 1570.73 L1117.77 1606.38 L1111.92 1606.38 L1111.92 1600.9 Q1109.78 1604.15 1106.95 1605.74 Q1104.15 1607.3 1100.43 1607.3 Q1094.28 1607.3 1091.1 1603.48 Q1087.92 1599.66 1087.92 1592.31 M1102.65 1569.87 L1102.65 1569.87 Z" fill="#000000" fill-rule="nonzero" fill-opacity="1" /><path clip-path="url(#clip250)" d="M1153.29 1576.14 L1153.29 1556.85 L1159.15 1556.85 L1159.15 1606.38 L1153.29 1606.38 L1153.29 1601.03 Q1151.45 1604.21 1148.61 1605.77 Q1145.81 1607.3 1141.87 1607.3 Q1135.4 1607.3 1131.33 1602.14 Q1127.29 1596.99 1127.29 1588.58 Q1127.29 1580.18 1131.33 1575.02 Q1135.4 1569.87 1141.87 1569.87 Q1145.81 1569.87 1148.61 1571.43 Q1151.45 1572.96 1153.29 1576.14 M1133.34 1588.58 Q1133.34 1595.04 1135.98 1598.74 Q1138.65 1602.4 1143.3 1602.4 Q1147.95 1602.4 1150.62 1598.74 Q1153.29 1595.04 1153.29 1588.58 Q1153.29 1582.12 1150.62 1578.46 Q1147.95 1574.77 1143.3 1574.77 Q1138.65 1574.77 1135.98 1578.46 Q1133.34 1582.12 1133.34 1588.58 Z" fill="#000000" fill-rule="nonzero" fill-opacity="1" /><path clip-path="url(#clip250)" d="M1201.7 1587.09 L1201.7 1589.95 L1174.78 1589.95 Q1175.16 1596 1178.41 1599.18 Q1181.68 1602.33 1187.51 1602.33 Q1190.88 1602.33 1194.03 1601.51 Q1197.22 1600.68 1200.33 1599.02 L1200.33 1604.56 Q1197.18 1605.9 1193.87 1606.6 Q1190.56 1607.3 1187.16 1607.3 Q1178.63 1607.3 1173.63 1602.33 Q1168.67 1597.37 1168.67 1588.9 Q1168.67 1580.15 1173.38 1575.02 Q1178.12 1569.87 1186.14 1569.87 Q1193.33 1569.87 1197.5 1574.52 Q1201.7 1579.13 1201.7 1587.09 M1195.85 1585.37 Q1195.78 1580.56 1193.14 1577.7 Q1190.53 1574.83 1186.2 1574.83 Q1181.3 1574.83 1178.34 1577.6 Q1175.41 1580.37 1174.97 1585.4 L1195.85 1585.37 Z" fill="#000000" fill-rule="nonzero" fill-opacity="1" /><path clip-path="url(#clip250)" d="M1240.95 1584.86 L1240.95 1606.38 L1235.09 1606.38 L1235.09 1585.05 Q1235.09 1579.99 1233.12 1577.48 Q1231.15 1574.96 1227.2 1574.96 Q1222.46 1574.96 1219.72 1577.98 Q1216.98 1581.01 1216.98 1586.23 L1216.98 1606.38 L1211.09 1606.38 L1211.09 1570.73 L1216.98 1570.73 L1216.98 1576.27 Q1219.08 1573.05 1221.91 1571.46 Q1224.78 1569.87 1228.5 1569.87 Q1234.65 1569.87 1237.8 1573.69 Q1240.95 1577.48 1240.95 1584.86 Z" fill="#000000" fill-rule="nonzero" fill-opacity="1" /><path clip-path="url(#clip250)" d="M1258.42 1560.61 L1258.42 1570.73 L1270.49 1570.73 L1270.49 1575.28 L1258.42 1575.28 L1258.42 1594.63 Q1258.42 1598.99 1259.6 1600.23 Q1260.81 1601.47 1264.47 1601.47 L1270.49 1601.47 L1270.49 1606.38 L1264.47 1606.38 Q1257.69 1606.38 1255.11 1603.86 Q1252.53 1601.31 1252.53 1594.63 L1252.53 1575.28 L1248.24 1575.28 L1248.24 1570.73 L1252.53 1570.73 L1252.53 1560.61 L1258.42 1560.61 Z" fill="#000000" fill-rule="nonzero" fill-opacity="1" /><path clip-path="url(#clip250)" d="M1275.23 1585.91 L1292.38 1585.91 L1292.38 1591.13 L1275.23 1591.13 L1275.23 1585.91 Z" fill="#000000" fill-rule="nonzero" fill-opacity="1" /><path clip-path="url(#clip250)" d="M1307.5 1560.61 L1307.5 1570.73 L1319.56 1570.73 L1319.56 1575.28 L1307.5 1575.28 L1307.5 1594.63 Q1307.5 1598.99 1308.68 1600.23 Q1309.89 1601.47 1313.55 1601.47 L1319.56 1601.47 L1319.56 1606.38 L1313.55 1606.38 Q1306.77 1606.38 1304.19 1603.86 Q1301.61 1601.31 1301.61 1594.63 L1301.61 1575.28 L1297.32 1575.28 L1297.32 1570.73 L1301.61 1570.73 L1301.61 1560.61 L1307.5 1560.61 Z" fill="#000000" fill-rule="nonzero" fill-opacity="1" /><path clip-path="url(#clip250)" d="M1373.64 1572.1 L1373.64 1577.57 Q1371.16 1576.2 1368.64 1575.53 Q1366.16 1574.83 1363.62 1574.83 Q1357.92 1574.83 1354.77 1578.46 Q1351.62 1582.06 1351.62 1588.58 Q1351.62 1595.11 1354.77 1598.74 Q1357.92 1602.33 1363.62 1602.33 Q1366.16 1602.33 1368.64 1601.66 Q1371.16 1600.96 1373.64 1599.6 L1373.64 1605.01 Q1371.19 1606.15 1368.55 1606.73 Q1365.94 1607.3 1362.98 1607.3 Q1354.93 1607.3 1350.18 1602.24 Q1345.44 1597.18 1345.44 1588.58 Q1345.44 1579.86 1350.22 1574.87 Q1355.02 1569.87 1363.36 1569.87 Q1366.07 1569.87 1368.64 1570.44 Q1371.22 1570.98 1373.64 1572.1 Z" fill="#000000" fill-rule="nonzero" fill-opacity="1" /><path clip-path="url(#clip250)" d="M1397.64 1574.83 Q1392.93 1574.83 1390.19 1578.53 Q1387.45 1582.19 1387.45 1588.58 Q1387.45 1594.98 1390.16 1598.67 Q1392.9 1602.33 1397.64 1602.33 Q1402.32 1602.33 1405.06 1598.64 Q1407.79 1594.95 1407.79 1588.58 Q1407.79 1582.25 1405.06 1578.56 Q1402.32 1574.83 1397.64 1574.83 M1397.64 1569.87 Q1405.28 1569.87 1409.64 1574.83 Q1414 1579.8 1414 1588.58 Q1414 1597.34 1409.64 1602.33 Q1405.28 1607.3 1397.64 1607.3 Q1389.97 1607.3 1385.61 1602.33 Q1381.28 1597.34 1381.28 1588.58 Q1381.28 1579.8 1385.61 1574.83 Q1389.97 1569.87 1397.64 1569.87 Z" fill="#000000" fill-rule="nonzero" fill-opacity="1" /><path clip-path="url(#clip250)" d="M1429.37 1601.03 L1429.37 1619.93 L1423.48 1619.93 L1423.48 1570.73 L1429.37 1570.73 L1429.37 1576.14 Q1431.22 1572.96 1434.02 1571.43 Q1436.85 1569.87 1440.77 1569.87 Q1447.26 1569.87 1451.3 1575.02 Q1455.38 1580.18 1455.38 1588.58 Q1455.38 1596.99 1451.3 1602.14 Q1447.26 1607.3 1440.77 1607.3 Q1436.85 1607.3 1434.02 1605.77 Q1431.22 1604.21 1429.37 1601.03 M1449.3 1588.58 Q1449.3 1582.12 1446.62 1578.46 Q1443.98 1574.77 1439.34 1574.77 Q1434.69 1574.77 1432.01 1578.46 Q1429.37 1582.12 1429.37 1588.58 Q1429.37 1595.04 1432.01 1598.74 Q1434.69 1602.4 1439.34 1602.4 Q1443.98 1602.4 1446.62 1598.74 Q1449.3 1595.04 1449.3 1588.58 Z" fill="#000000" fill-rule="nonzero" fill-opacity="1" /><path clip-path="url(#clip250)" d="M1464.48 1592.31 L1464.48 1570.73 L1470.34 1570.73 L1470.34 1592.08 Q1470.34 1597.15 1472.31 1599.69 Q1474.28 1602.21 1478.23 1602.21 Q1482.97 1602.21 1485.71 1599.18 Q1488.48 1596.16 1488.48 1590.94 L1488.48 1570.73 L1494.34 1570.73 L1494.34 1606.38 L1488.48 1606.38 L1488.48 1600.9 Q1486.35 1604.15 1483.51 1605.74 Q1480.71 1607.3 1476.99 1607.3 Q1470.85 1607.3 1467.66 1603.48 Q1464.48 1599.66 1464.48 1592.31 M1479.22 1569.87 L1479.22 1569.87 Z" fill="#000000" fill-rule="nonzero" fill-opacity="1" /><path clip-path="url(#clip250)" d="M1506.4 1556.85 L1512.25 1556.85 L1512.25 1606.38 L1506.4 1606.38 L1506.4 1556.85 Z" fill="#000000" fill-rule="nonzero" fill-opacity="1" /><path clip-path="url(#clip250)" d="M1540.71 1588.46 Q1533.61 1588.46 1530.87 1590.08 Q1528.14 1591.7 1528.14 1595.62 Q1528.14 1598.74 1530.17 1600.58 Q1532.24 1602.4 1535.78 1602.4 Q1540.65 1602.4 1543.57 1598.96 Q1546.53 1595.49 1546.53 1589.76 L1546.53 1588.46 L1540.71 1588.46 M1552.39 1586.04 L1552.39 1606.38 L1546.53 1606.38 L1546.53 1600.96 Q1544.53 1604.21 1541.54 1605.77 Q1538.54 1607.3 1534.22 1607.3 Q1528.74 1607.3 1525.5 1604.24 Q1522.28 1601.16 1522.28 1596 Q1522.28 1589.98 1526.29 1586.93 Q1530.33 1583.87 1538.32 1583.87 L1546.53 1583.87 L1546.53 1583.3 Q1546.53 1579.26 1543.86 1577.06 Q1541.22 1574.83 1536.41 1574.83 Q1533.36 1574.83 1530.46 1575.57 Q1527.56 1576.3 1524.89 1577.76 L1524.89 1572.35 Q1528.11 1571.11 1531.13 1570.5 Q1534.15 1569.87 1537.02 1569.87 Q1544.75 1569.87 1548.57 1573.88 Q1552.39 1577.89 1552.39 1586.04 Z" fill="#000000" fill-rule="nonzero" fill-opacity="1" /><path clip-path="url(#clip250)" d="M1608.63 1576.14 L1608.63 1556.85 L1614.49 1556.85 L1614.49 1606.38 L1608.63 1606.38 L1608.63 1601.03 Q1606.79 1604.21 1603.95 1605.77 Q1601.15 1607.3 1597.2 1607.3 Q1590.74 1607.3 1586.67 1602.14 Q1582.63 1596.99 1582.63 1588.58 Q1582.63 1580.18 1586.67 1575.02 Q1590.74 1569.87 1597.2 1569.87 Q1601.15 1569.87 1603.95 1571.43 Q1606.79 1572.96 1608.63 1576.14 M1588.67 1588.58 Q1588.67 1595.04 1591.32 1598.74 Q1593.99 1602.4 1598.64 1602.4 Q1603.28 1602.4 1605.96 1598.74 Q1608.63 1595.04 1608.63 1588.58 Q1608.63 1582.12 1605.96 1578.46 Q1603.28 1574.77 1598.64 1574.77 Q1593.99 1574.77 1591.32 1578.46 Q1588.67 1582.12 1588.67 1588.58 Z" fill="#000000" fill-rule="nonzero" fill-opacity="1" /><path clip-path="url(#clip250)" d="M1657.04 1587.09 L1657.04 1589.95 L1630.12 1589.95 Q1630.5 1596 1633.74 1599.18 Q1637.02 1602.33 1642.85 1602.33 Q1646.22 1602.33 1649.37 1601.51 Q1652.55 1600.68 1655.67 1599.02 L1655.67 1604.56 Q1652.52 1605.9 1649.21 1606.6 Q1645.9 1607.3 1642.5 1607.3 Q1633.97 1607.3 1628.97 1602.33 Q1624 1597.37 1624 1588.9 Q1624 1580.15 1628.72 1575.02 Q1633.46 1569.87 1641.48 1569.87 Q1648.67 1569.87 1652.84 1574.52 Q1657.04 1579.13 1657.04 1587.09 M1651.19 1585.37 Q1651.12 1580.56 1648.48 1577.7 Q1645.87 1574.83 1641.54 1574.83 Q1636.64 1574.83 1633.68 1577.6 Q1630.75 1580.37 1630.31 1585.4 L1651.19 1585.37 Z" fill="#000000" fill-rule="nonzero" fill-opacity="1" /><path clip-path="url(#clip250)" d="M1690.11 1588.14 Q1690.11 1581.77 1687.47 1578.27 Q1684.86 1574.77 1680.12 1574.77 Q1675.41 1574.77 1672.77 1578.27 Q1670.16 1581.77 1670.16 1588.14 Q1670.16 1594.47 1672.77 1597.97 Q1675.41 1601.47 1680.12 1601.47 Q1684.86 1601.47 1687.47 1597.97 Q1690.11 1594.47 1690.11 1588.14 M1695.97 1601.95 Q1695.97 1611.05 1691.93 1615.48 Q1687.88 1619.93 1679.55 1619.93 Q1676.46 1619.93 1673.72 1619.46 Q1670.98 1619.01 1668.41 1618.06 L1668.41 1612.36 Q1670.98 1613.76 1673.5 1614.43 Q1676.01 1615.1 1678.62 1615.1 Q1684.38 1615.1 1687.25 1612.07 Q1690.11 1609.08 1690.11 1603 L1690.11 1600.11 Q1688.3 1603.26 1685.47 1604.82 Q1682.63 1606.38 1678.69 1606.38 Q1672.13 1606.38 1668.12 1601.38 Q1664.11 1596.38 1664.11 1588.14 Q1664.11 1579.86 1668.12 1574.87 Q1672.13 1569.87 1678.69 1569.87 Q1682.63 1569.87 1685.47 1571.43 Q1688.3 1572.99 1690.11 1576.14 L1690.11 1570.73 L1695.97 1570.73 L1695.97 1601.95 Z" fill="#000000" fill-rule="nonzero" fill-opacity="1" /><path clip-path="url(#clip250)" d="M1728.69 1576.2 Q1727.7 1575.63 1726.52 1575.37 Q1725.38 1575.09 1723.98 1575.09 Q1719.01 1575.09 1716.34 1578.33 Q1713.7 1581.55 1713.7 1587.6 L1713.7 1606.38 L1707.81 1606.38 L1707.81 1570.73 L1713.7 1570.73 L1713.7 1576.27 Q1715.54 1573.02 1718.5 1571.46 Q1721.46 1569.87 1725.7 1569.87 Q1726.3 1569.87 1727.03 1569.96 Q1727.77 1570.03 1728.66 1570.19 L1728.69 1576.2 Z" fill="#000000" fill-rule="nonzero" fill-opacity="1" /><path clip-path="url(#clip250)" d="M1763.89 1587.09 L1763.89 1589.95 L1736.96 1589.95 Q1737.35 1596 1740.59 1599.18 Q1743.87 1602.33 1749.7 1602.33 Q1753.07 1602.33 1756.22 1601.51 Q1759.4 1600.68 1762.52 1599.02 L1762.52 1604.56 Q1759.37 1605.9 1756.06 1606.6 Q1752.75 1607.3 1749.35 1607.3 Q1740.82 1607.3 1735.82 1602.33 Q1730.85 1597.37 1730.85 1588.9 Q1730.85 1580.15 1735.56 1575.02 Q1740.31 1569.87 1748.33 1569.87 Q1755.52 1569.87 1759.69 1574.52 Q1763.89 1579.13 1763.89 1587.09 M1758.03 1585.37 Q1757.97 1580.56 1755.33 1577.7 Q1752.72 1574.83 1748.39 1574.83 Q1743.49 1574.83 1740.53 1577.6 Q1737.6 1580.37 1737.16 1585.4 L1758.03 1585.37 Z" fill="#000000" fill-rule="nonzero" fill-opacity="1" /><path clip-path="url(#clip250)" d="M1803.99 1587.09 L1803.99 1589.95 L1777.07 1589.95 Q1777.45 1596 1780.7 1599.18 Q1783.97 1602.33 1789.8 1602.33 Q1793.17 1602.33 1796.32 1601.51 Q1799.51 1600.68 1802.63 1599.02 L1802.63 1604.56 Q1799.48 1605.9 1796.17 1606.6 Q1792.85 1607.3 1789.45 1607.3 Q1780.92 1607.3 1775.92 1602.33 Q1770.96 1597.37 1770.96 1588.9 Q1770.96 1580.15 1775.67 1575.02 Q1780.41 1569.87 1788.43 1569.87 Q1795.62 1569.87 1799.79 1574.52 Q1803.99 1579.13 1803.99 1587.09 M1798.14 1585.37 Q1798.07 1580.56 1795.43 1577.7 Q1792.82 1574.83 1788.49 1574.83 Q1783.59 1574.83 1780.63 1577.6 Q1777.7 1580.37 1777.26 1585.4 L1798.14 1585.37 Z" fill="#000000" fill-rule="nonzero" fill-opacity="1" /><path clip-path="url(#clip250)" d="M1836.33 1571.78 L1836.33 1577.32 Q1833.85 1576.04 1831.18 1575.41 Q1828.5 1574.77 1825.64 1574.77 Q1821.28 1574.77 1819.08 1576.11 Q1816.92 1577.44 1816.92 1580.12 Q1816.92 1582.15 1818.48 1583.33 Q1820.04 1584.48 1824.75 1585.53 L1826.75 1585.97 Q1832.99 1587.31 1835.6 1589.76 Q1838.24 1592.18 1838.24 1596.54 Q1838.24 1601.51 1834.3 1604.4 Q1830.38 1607.3 1823.51 1607.3 Q1820.64 1607.3 1817.52 1606.73 Q1814.43 1606.18 1811 1605.07 L1811 1599.02 Q1814.24 1600.71 1817.39 1601.57 Q1820.55 1602.4 1823.63 1602.4 Q1827.77 1602.4 1830 1601 Q1832.23 1599.56 1832.23 1596.99 Q1832.23 1594.6 1830.6 1593.33 Q1829.01 1592.05 1823.57 1590.88 L1821.53 1590.4 Q1816.09 1589.25 1813.67 1586.9 Q1811.25 1584.51 1811.25 1580.37 Q1811.25 1575.34 1814.82 1572.61 Q1818.38 1569.87 1824.94 1569.87 Q1828.18 1569.87 1831.05 1570.35 Q1833.91 1570.82 1836.33 1571.78 Z" fill="#000000" fill-rule="nonzero" fill-opacity="1" /><path clip-path="url(#clip250)" d="M1882.1 1574.83 Q1877.39 1574.83 1874.65 1578.53 Q1871.92 1582.19 1871.92 1588.58 Q1871.92 1594.98 1874.62 1598.67 Q1877.36 1602.33 1882.1 1602.33 Q1886.78 1602.33 1889.52 1598.64 Q1892.26 1594.95 1892.26 1588.58 Q1892.26 1582.25 1889.52 1578.56 Q1886.78 1574.83 1882.1 1574.83 M1882.1 1569.87 Q1889.74 1569.87 1894.1 1574.83 Q1898.46 1579.8 1898.46 1588.58 Q1898.46 1597.34 1894.1 1602.33 Q1889.74 1607.3 1882.1 1607.3 Q1874.43 1607.3 1870.07 1602.33 Q1865.74 1597.34 1865.74 1588.58 Q1865.74 1579.8 1870.07 1574.83 Q1874.43 1569.87 1882.1 1569.87 Z" fill="#000000" fill-rule="nonzero" fill-opacity="1" /><path clip-path="url(#clip250)" d="M1926.22 1556.85 L1926.22 1561.72 L1920.61 1561.72 Q1917.46 1561.72 1916.22 1562.99 Q1915.01 1564.27 1915.01 1567.58 L1915.01 1570.73 L1924.66 1570.73 L1924.66 1575.28 L1915.01 1575.28 L1915.01 1606.38 L1909.12 1606.38 L1909.12 1575.28 L1903.52 1575.28 L1903.52 1570.73 L1909.12 1570.73 L1909.12 1568.24 Q1909.12 1562.29 1911.89 1559.59 Q1914.66 1556.85 1920.68 1556.85 L1926.22 1556.85 Z" fill="#000000" fill-rule="nonzero" fill-opacity="1" /><path clip-path="url(#clip250)" d="M1969.89 1556.85 L1969.89 1561.72 L1964.28 1561.72 Q1961.13 1561.72 1959.89 1562.99 Q1958.68 1564.27 1958.68 1567.58 L1958.68 1570.73 L1968.33 1570.73 L1968.33 1575.28 L1958.68 1575.28 L1958.68 1606.38 L1952.79 1606.38 L1952.79 1575.28 L1947.19 1575.28 L1947.19 1570.73 L1952.79 1570.73 L1952.79 1568.24 Q1952.79 1562.29 1955.56 1559.59 Q1958.33 1556.85 1964.35 1556.85 L1969.89 1556.85 Z" fill="#000000" fill-rule="nonzero" fill-opacity="1" /><path clip-path="url(#clip250)" d="M1995.44 1576.2 Q1994.46 1575.63 1993.28 1575.37 Q1992.13 1575.09 1990.73 1575.09 Q1985.77 1575.09 1983.09 1578.33 Q1980.45 1581.55 1980.45 1587.6 L1980.45 1606.38 L1974.56 1606.38 L1974.56 1570.73 L1980.45 1570.73 L1980.45 1576.27 Q1982.3 1573.02 1985.26 1571.46 Q1988.22 1569.87 1992.45 1569.87 Q1993.06 1569.87 1993.79 1569.96 Q1994.52 1570.03 1995.41 1570.19 L1995.44 1576.2 Z" fill="#000000" fill-rule="nonzero" fill-opacity="1" /><path clip-path="url(#clip250)" d="M2030.65 1587.09 L2030.65 1589.95 L2003.72 1589.95 Q2004.1 1596 2007.35 1599.18 Q2010.63 1602.33 2016.45 1602.33 Q2019.82 1602.33 2022.98 1601.51 Q2026.16 1600.68 2029.28 1599.02 L2029.28 1604.56 Q2026.13 1605.9 2022.82 1606.6 Q2019.51 1607.3 2016.1 1607.3 Q2007.57 1607.3 2002.57 1602.33 Q1997.61 1597.37 1997.61 1588.9 Q1997.61 1580.15 2002.32 1575.02 Q2007.06 1569.87 2015.08 1569.87 Q2022.28 1569.87 2026.44 1574.52 Q2030.65 1579.13 2030.65 1587.09 M2024.79 1585.37 Q2024.73 1580.56 2022.08 1577.7 Q2019.47 1574.83 2015.15 1574.83 Q2010.24 1574.83 2007.28 1577.6 Q2004.36 1580.37 2003.91 1585.4 L2024.79 1585.37 Z" fill="#000000" fill-rule="nonzero" fill-opacity="1" /><path clip-path="url(#clip250)" d="M2070.75 1587.09 L2070.75 1589.95 L2043.82 1589.95 Q2044.2 1596 2047.45 1599.18 Q2050.73 1602.33 2056.55 1602.33 Q2059.93 1602.33 2063.08 1601.51 Q2066.26 1600.68 2069.38 1599.02 L2069.38 1604.56 Q2066.23 1605.9 2062.92 1606.6 Q2059.61 1607.3 2056.2 1607.3 Q2047.67 1607.3 2042.68 1602.33 Q2037.71 1597.37 2037.71 1588.9 Q2037.71 1580.15 2042.42 1575.02 Q2047.16 1569.87 2055.19 1569.87 Q2062.38 1569.87 2066.55 1574.52 Q2070.75 1579.13 2070.75 1587.09 M2064.89 1585.37 Q2064.83 1580.56 2062.19 1577.7 Q2059.58 1574.83 2055.25 1574.83 Q2050.35 1574.83 2047.39 1577.6 Q2044.46 1580.37 2044.01 1585.4 L2064.89 1585.37 Z" fill="#000000" fill-rule="nonzero" fill-opacity="1" /><path clip-path="url(#clip250)" d="M2103.82 1576.14 L2103.82 1556.85 L2109.68 1556.85 L2109.68 1606.38 L2103.82 1606.38 L2103.82 1601.03 Q2101.97 1604.21 2099.14 1605.77 Q2096.34 1607.3 2092.39 1607.3 Q2085.93 1607.3 2081.86 1602.14 Q2077.82 1596.99 2077.82 1588.58 Q2077.82 1580.18 2081.86 1575.02 Q2085.93 1569.87 2092.39 1569.87 Q2096.34 1569.87 2099.14 1571.43 Q2101.97 1572.96 2103.82 1576.14 M2083.86 1588.58 Q2083.86 1595.04 2086.51 1598.74 Q2089.18 1602.4 2093.83 1602.4 Q2098.47 1602.4 2101.15 1598.74 Q2103.82 1595.04 2103.82 1588.58 Q2103.82 1582.12 2101.15 1578.46 Q2098.47 1574.77 2093.83 1574.77 Q2089.18 1574.77 2086.51 1578.46 Q2083.86 1582.12 2083.86 1588.58 Z" fill="#000000" fill-rule="nonzero" fill-opacity="1" /><path clip-path="url(#clip250)" d="M2135.55 1574.83 Q2130.84 1574.83 2128.1 1578.53 Q2125.37 1582.19 2125.37 1588.58 Q2125.37 1594.98 2128.07 1598.67 Q2130.81 1602.33 2135.55 1602.33 Q2140.23 1602.33 2142.97 1598.64 Q2145.71 1594.95 2145.71 1588.58 Q2145.71 1582.25 2142.97 1578.56 Q2140.23 1574.83 2135.55 1574.83 M2135.55 1569.87 Q2143.19 1569.87 2147.55 1574.83 Q2151.91 1579.8 2151.91 1588.58 Q2151.91 1597.34 2147.55 1602.33 Q2143.19 1607.3 2135.55 1607.3 Q2127.88 1607.3 2123.52 1602.33 Q2119.19 1597.34 2119.19 1588.58 Q2119.19 1579.8 2123.52 1574.83 Q2127.88 1569.87 2135.55 1569.87 Z" fill="#000000" fill-rule="nonzero" fill-opacity="1" /><path clip-path="url(#clip250)" d="M2189.37 1577.57 Q2191.57 1573.62 2194.63 1571.75 Q2197.68 1569.87 2201.82 1569.87 Q2207.39 1569.87 2210.41 1573.78 Q2213.44 1577.67 2213.44 1584.86 L2213.44 1606.38 L2207.55 1606.38 L2207.55 1585.05 Q2207.55 1579.93 2205.73 1577.44 Q2203.92 1574.96 2200.2 1574.96 Q2195.65 1574.96 2193 1577.98 Q2190.36 1581.01 2190.36 1586.23 L2190.36 1606.38 L2184.47 1606.38 L2184.47 1585.05 Q2184.47 1579.89 2182.66 1577.44 Q2180.84 1574.96 2177.06 1574.96 Q2172.57 1574.96 2169.93 1578.02 Q2167.29 1581.04 2167.29 1586.23 L2167.29 1606.38 L2161.4 1606.38 L2161.4 1570.73 L2167.29 1570.73 L2167.29 1576.27 Q2169.29 1572.99 2172.09 1571.43 Q2174.89 1569.87 2178.74 1569.87 Q2182.63 1569.87 2185.33 1571.84 Q2188.07 1573.81 2189.37 1577.57 Z" fill="#000000" fill-rule="nonzero" fill-opacity="1" /><path clip-path="url(#clip250)" d="M2224.2 1556.91 L2229.29 1556.91 Q2234.06 1564.43 2236.42 1571.62 Q2238.8 1578.81 2238.8 1585.91 Q2238.8 1593.04 2236.42 1600.26 Q2234.06 1607.49 2229.29 1614.97 L2224.2 1614.97 Q2228.43 1607.68 2230.5 1600.49 Q2232.6 1593.26 2232.6 1585.91 Q2232.6 1578.56 2230.5 1571.4 Q2228.43 1564.23 2224.2 1556.91 Z" fill="#000000" fill-rule="nonzero" fill-opacity="1" /><polyline clip-path="url(#clip250)" style="stroke:#000000; stroke-linecap:round; stroke-linejoin:round; stroke-width:4; stroke-opacity:1; fill:none" points="500.024,1442.55 500.024,125.984 "/>
<polyline clip-path="url(#clip250)" style="stroke:#000000; stroke-linecap:round; stroke-linejoin:round; stroke-width:4; stroke-opacity:1; fill:none" points="500.024,1335.77 518.922,1335.77 "/>
<polyline clip-path="url(#clip250)" style="stroke:#000000; stroke-linecap:round; stroke-linejoin:round; stroke-width:4; stroke-opacity:1; fill:none" points="500.024,1026.18 518.922,1026.18 "/>
<polyline clip-path="url(#clip250)" style="stroke:#000000; stroke-linecap:round; stroke-linejoin:round; stroke-width:4; stroke-opacity:1; fill:none" points="500.024,716.593 518.922,716.593 "/>
<polyline clip-path="url(#clip250)" style="stroke:#000000; stroke-linecap:round; stroke-linejoin:round; stroke-width:4; stroke-opacity:1; fill:none" points="500.024,407.004 518.922,407.004 "/>
<path clip-path="url(#clip250)" d="M317.544 1314.17 L340.49 1314.17 L340.49 1319.09 L322.897 1319.09 L322.897 1329.68 Q324.17 1329.25 325.444 1329.04 Q326.717 1328.81 327.99 1328.81 Q335.224 1328.81 339.448 1332.78 Q343.673 1336.74 343.673 1343.51 Q343.673 1350.49 339.332 1354.36 Q334.992 1358.21 327.093 1358.21 Q324.373 1358.21 321.537 1357.75 Q318.731 1357.29 315.721 1356.36 L315.721 1350.49 Q318.326 1351.9 321.103 1352.6 Q323.881 1353.29 326.977 1353.29 Q331.983 1353.29 334.905 1350.66 Q337.828 1348.03 337.828 1343.51 Q337.828 1339 334.905 1336.37 Q331.983 1333.73 326.977 1333.73 Q324.633 1333.73 322.29 1334.25 Q319.975 1334.77 317.544 1335.87 L317.544 1314.17 Z" fill="#000000" fill-rule="nonzero" fill-opacity="1" /><path clip-path="url(#clip250)" d="M371.248 1319.26 L356.491 1342.33 L371.248 1342.33 L371.248 1319.26 M369.714 1314.17 L377.064 1314.17 L377.064 1342.33 L383.227 1342.33 L383.227 1347.19 L377.064 1347.19 L377.064 1357.37 L371.248 1357.37 L371.248 1347.19 L351.746 1347.19 L351.746 1341.54 L369.714 1314.17 Z" fill="#000000" fill-rule="nonzero" fill-opacity="1" /><path clip-path="url(#clip250)" d="M405.391 1318.02 Q400.877 1318.02 398.591 1322.48 Q396.334 1326.9 396.334 1335.82 Q396.334 1344.7 398.591 1349.15 Q400.877 1353.58 405.391 1353.58 Q409.934 1353.58 412.191 1349.15 Q414.477 1344.7 414.477 1335.82 Q414.477 1326.9 412.191 1322.48 Q409.934 1318.02 405.391 1318.02 M405.391 1313.39 Q412.654 1313.39 416.473 1319.15 Q420.322 1324.88 420.322 1335.82 Q420.322 1346.72 416.473 1352.48 Q412.654 1358.21 405.391 1358.21 Q398.128 1358.21 394.28 1352.48 Q390.461 1346.72 390.461 1335.82 Q390.461 1324.88 394.28 1319.15 Q398.128 1313.39 405.391 1313.39 Z" fill="#000000" fill-rule="nonzero" fill-opacity="1" /><path clip-path="url(#clip250)" d="M443.093 1318.02 Q438.58 1318.02 436.294 1322.48 Q434.037 1326.9 434.037 1335.82 Q434.037 1344.7 436.294 1349.15 Q438.58 1353.58 443.093 1353.58 Q447.636 1353.58 449.893 1349.15 Q452.179 1344.7 452.179 1335.82 Q452.179 1326.9 449.893 1322.48 Q447.636 1318.02 443.093 1318.02 M443.093 1313.39 Q450.356 1313.39 454.176 1319.15 Q458.024 1324.88 458.024 1335.82 Q458.024 1346.72 454.176 1352.48 Q450.356 1358.21 443.093 1358.21 Q435.831 1358.21 431.982 1352.48 Q428.163 1346.72 428.163 1335.82 Q428.163 1324.88 431.982 1319.15 Q435.831 1313.39 443.093 1313.39 Z" fill="#000000" fill-rule="nonzero" fill-opacity="1" /><path clip-path="url(#clip250)" d="M317.544 1004.58 L340.49 1004.58 L340.49 1009.5 L322.897 1009.5 L322.897 1020.09 Q324.17 1019.66 325.444 1019.46 Q326.717 1019.22 327.99 1019.22 Q335.224 1019.22 339.448 1023.19 Q343.673 1027.15 343.673 1033.92 Q343.673 1040.9 339.332 1044.77 Q334.992 1048.62 327.093 1048.62 Q324.373 1048.62 321.537 1048.16 Q318.731 1047.7 315.721 1046.77 L315.721 1040.9 Q318.326 1042.31 321.103 1043.01 Q323.881 1043.7 326.977 1043.7 Q331.983 1043.7 334.905 1041.07 Q337.828 1038.44 337.828 1033.92 Q337.828 1029.41 334.905 1026.78 Q331.983 1024.14 326.977 1024.14 Q324.633 1024.14 322.29 1024.66 Q319.975 1025.18 317.544 1026.28 L317.544 1004.58 Z" fill="#000000" fill-rule="nonzero" fill-opacity="1" /><path clip-path="url(#clip250)" d="M368.412 1023.85 Q364.477 1023.85 362.162 1026.54 Q359.876 1029.24 359.876 1033.92 Q359.876 1038.58 362.162 1041.3 Q364.477 1043.99 368.412 1043.99 Q372.347 1043.99 374.633 1041.3 Q376.948 1038.58 376.948 1033.92 Q376.948 1029.24 374.633 1026.54 Q372.347 1023.85 368.412 1023.85 M380.015 1005.54 L380.015 1010.86 Q377.816 1009.82 375.559 1009.27 Q373.331 1008.72 371.132 1008.72 Q365.345 1008.72 362.278 1012.63 Q359.24 1016.53 358.806 1024.43 Q360.513 1021.91 363.088 1020.58 Q365.663 1019.22 368.759 1019.22 Q375.27 1019.22 379.031 1023.19 Q382.822 1027.12 382.822 1033.92 Q382.822 1040.58 378.887 1044.6 Q374.951 1048.62 368.412 1048.62 Q360.918 1048.62 356.954 1042.89 Q352.99 1037.13 352.99 1026.23 Q352.99 1015.98 357.851 1009.91 Q362.712 1003.8 370.901 1003.8 Q373.1 1003.8 375.328 1004.24 Q377.585 1004.67 380.015 1005.54 Z" fill="#000000" fill-rule="nonzero" fill-opacity="1" /><path clip-path="url(#clip250)" d="M405.391 1008.43 Q400.877 1008.43 398.591 1012.89 Q396.334 1017.31 396.334 1026.23 Q396.334 1035.11 398.591 1039.57 Q400.877 1043.99 405.391 1043.99 Q409.934 1043.99 412.191 1039.57 Q414.477 1035.11 414.477 1026.23 Q414.477 1017.31 412.191 1012.89 Q409.934 1008.43 405.391 1008.43 M405.391 1003.8 Q412.654 1003.8 416.473 1009.56 Q420.322 1015.29 420.322 1026.23 Q420.322 1037.13 416.473 1042.89 Q412.654 1048.62 405.391 1048.62 Q398.128 1048.62 394.28 1042.89 Q390.461 1037.13 390.461 1026.23 Q390.461 1015.29 394.28 1009.56 Q398.128 1003.8 405.391 1003.8 Z" fill="#000000" fill-rule="nonzero" fill-opacity="1" /><path clip-path="url(#clip250)" d="M443.093 1008.43 Q438.58 1008.43 436.294 1012.89 Q434.037 1017.31 434.037 1026.23 Q434.037 1035.11 436.294 1039.57 Q438.58 1043.99 443.093 1043.99 Q447.636 1043.99 449.893 1039.57 Q452.179 1035.11 452.179 1026.23 Q452.179 1017.31 449.893 1012.89 Q447.636 1008.43 443.093 1008.43 M443.093 1003.8 Q450.356 1003.8 454.176 1009.56 Q458.024 1015.29 458.024 1026.23 Q458.024 1037.13 454.176 1042.89 Q450.356 1048.62 443.093 1048.62 Q435.831 1048.62 431.982 1042.89 Q428.163 1037.13 428.163 1026.23 Q428.163 1015.29 431.982 1009.56 Q435.831 1003.8 443.093 1003.8 Z" fill="#000000" fill-rule="nonzero" fill-opacity="1" /><path clip-path="url(#clip250)" d="M317.544 694.993 L340.49 694.993 L340.49 699.912 L322.897 699.912 L322.897 710.503 Q324.17 710.069 325.444 709.866 Q326.717 709.635 327.99 709.635 Q335.224 709.635 339.448 713.599 Q343.673 717.563 343.673 724.334 Q343.673 731.307 339.332 735.184 Q334.992 739.033 327.093 739.033 Q324.373 739.033 321.537 738.57 Q318.731 738.107 315.721 737.181 L315.721 731.307 Q318.326 732.725 321.103 733.419 Q323.881 734.114 326.977 734.114 Q331.983 734.114 334.905 731.48 Q337.828 728.847 337.828 724.334 Q337.828 719.82 334.905 717.187 Q331.983 714.553 326.977 714.553 Q324.633 714.553 322.29 715.074 Q319.975 715.595 317.544 716.695 L317.544 694.993 Z" fill="#000000" fill-rule="nonzero" fill-opacity="1" /><path clip-path="url(#clip250)" d="M367.689 717.678 Q363.522 717.678 361.121 719.906 Q358.748 722.134 358.748 726.041 Q358.748 729.947 361.121 732.175 Q363.522 734.403 367.689 734.403 Q371.855 734.403 374.257 732.175 Q376.659 729.918 376.659 726.041 Q376.659 722.134 374.257 719.906 Q371.884 717.678 367.689 717.678 M361.844 715.19 Q358.082 714.264 355.97 711.689 Q353.887 709.114 353.887 705.41 Q353.887 700.231 357.562 697.221 Q361.265 694.212 367.689 694.212 Q374.141 694.212 377.816 697.221 Q381.491 700.231 381.491 705.41 Q381.491 709.114 379.379 711.689 Q377.295 714.264 373.563 715.19 Q377.787 716.174 380.131 719.038 Q382.503 721.903 382.503 726.041 Q382.503 732.32 378.655 735.676 Q374.836 739.033 367.689 739.033 Q360.542 739.033 356.693 735.676 Q352.874 732.32 352.874 726.041 Q352.874 721.903 355.247 719.038 Q357.619 716.174 361.844 715.19 M359.703 705.96 Q359.703 709.316 361.786 711.197 Q363.898 713.078 367.689 713.078 Q371.45 713.078 373.563 711.197 Q375.704 709.316 375.704 705.96 Q375.704 702.603 373.563 700.723 Q371.45 698.842 367.689 698.842 Q363.898 698.842 361.786 700.723 Q359.703 702.603 359.703 705.96 Z" fill="#000000" fill-rule="nonzero" fill-opacity="1" /><path clip-path="url(#clip250)" d="M405.391 698.842 Q400.877 698.842 398.591 703.298 Q396.334 707.725 396.334 716.637 Q396.334 725.52 398.591 729.976 Q400.877 734.403 405.391 734.403 Q409.934 734.403 412.191 729.976 Q414.477 725.52 414.477 716.637 Q414.477 707.725 412.191 703.298 Q409.934 698.842 405.391 698.842 M405.391 694.212 Q412.654 694.212 416.473 699.97 Q420.322 705.699 420.322 716.637 Q420.322 727.545 416.473 733.303 Q412.654 739.033 405.391 739.033 Q398.128 739.033 394.28 733.303 Q390.461 727.545 390.461 716.637 Q390.461 705.699 394.28 699.97 Q398.128 694.212 405.391 694.212 Z" fill="#000000" fill-rule="nonzero" fill-opacity="1" /><path clip-path="url(#clip250)" d="M443.093 698.842 Q438.58 698.842 436.294 703.298 Q434.037 707.725 434.037 716.637 Q434.037 725.52 436.294 729.976 Q438.58 734.403 443.093 734.403 Q447.636 734.403 449.893 729.976 Q452.179 725.52 452.179 716.637 Q452.179 707.725 449.893 703.298 Q447.636 698.842 443.093 698.842 M443.093 694.212 Q450.356 694.212 454.176 699.97 Q458.024 705.699 458.024 716.637 Q458.024 727.545 454.176 733.303 Q450.356 739.033 443.093 739.033 Q435.831 739.033 431.982 733.303 Q428.163 727.545 428.163 716.637 Q428.163 705.699 431.982 699.97 Q435.831 694.212 443.093 694.212 Z" fill="#000000" fill-rule="nonzero" fill-opacity="1" /><path clip-path="url(#clip250)" d="M330.71 404.675 Q326.775 404.675 324.46 407.366 Q322.174 410.057 322.174 414.744 Q322.174 419.403 324.46 422.123 Q326.775 424.814 330.71 424.814 Q334.645 424.814 336.931 422.123 Q339.246 419.403 339.246 414.744 Q339.246 410.057 336.931 407.366 Q334.645 404.675 330.71 404.675 M342.313 386.359 L342.313 391.683 Q340.114 390.641 337.857 390.092 Q335.629 389.542 333.43 389.542 Q327.643 389.542 324.576 393.448 Q321.537 397.354 321.103 405.254 Q322.811 402.736 325.386 401.405 Q327.961 400.045 331.057 400.045 Q337.567 400.045 341.329 404.009 Q345.119 407.945 345.119 414.744 Q345.119 421.399 341.184 425.421 Q337.249 429.443 330.71 429.443 Q323.216 429.443 319.252 423.714 Q315.287 417.956 315.287 407.048 Q315.287 396.805 320.149 390.728 Q325.01 384.623 333.198 384.623 Q335.397 384.623 337.625 385.057 Q339.882 385.491 342.313 386.359 Z" fill="#000000" fill-rule="nonzero" fill-opacity="1" /><path clip-path="url(#clip250)" d="M367.689 389.253 Q363.175 389.253 360.889 393.709 Q358.632 398.136 358.632 407.048 Q358.632 415.931 360.889 420.387 Q363.175 424.814 367.689 424.814 Q372.232 424.814 374.488 420.387 Q376.774 415.931 376.774 407.048 Q376.774 398.136 374.488 393.709 Q372.232 389.253 367.689 389.253 M367.689 384.623 Q374.951 384.623 378.771 390.381 Q382.619 396.11 382.619 407.048 Q382.619 417.956 378.771 423.714 Q374.951 429.443 367.689 429.443 Q360.426 429.443 356.578 423.714 Q352.758 417.956 352.758 407.048 Q352.758 396.11 356.578 390.381 Q360.426 384.623 367.689 384.623 Z" fill="#000000" fill-rule="nonzero" fill-opacity="1" /><path clip-path="url(#clip250)" d="M405.391 389.253 Q400.877 389.253 398.591 393.709 Q396.334 398.136 396.334 407.048 Q396.334 415.931 398.591 420.387 Q400.877 424.814 405.391 424.814 Q409.934 424.814 412.191 420.387 Q414.477 415.931 414.477 407.048 Q414.477 398.136 412.191 393.709 Q409.934 389.253 405.391 389.253 M405.391 384.623 Q412.654 384.623 416.473 390.381 Q420.322 396.11 420.322 407.048 Q420.322 417.956 416.473 423.714 Q412.654 429.443 405.391 429.443 Q398.128 429.443 394.28 423.714 Q390.461 417.956 390.461 407.048 Q390.461 396.11 394.28 390.381 Q398.128 384.623 405.391 384.623 Z" fill="#000000" fill-rule="nonzero" fill-opacity="1" /><path clip-path="url(#clip250)" d="M443.093 389.253 Q438.58 389.253 436.294 393.709 Q434.037 398.136 434.037 407.048 Q434.037 415.931 436.294 420.387 Q438.58 424.814 443.093 424.814 Q447.636 424.814 449.893 420.387 Q452.179 415.931 452.179 407.048 Q452.179 398.136 449.893 393.709 Q447.636 389.253 443.093 389.253 M443.093 384.623 Q450.356 384.623 454.176 390.381 Q458.024 396.11 458.024 407.048 Q458.024 417.956 454.176 423.714 Q450.356 429.443 443.093 429.443 Q435.831 429.443 431.982 423.714 Q428.163 417.956 428.163 407.048 Q428.163 396.11 431.982 390.381 Q435.831 384.623 443.093 384.623 Z" fill="#000000" fill-rule="nonzero" fill-opacity="1" /><path clip-path="url(#clip250)" d="M253.684 1102.43 L272.59 1102.43 L272.59 1108.31 L223.383 1108.31 L223.383 1102.43 L228.794 1102.43 Q225.611 1100.58 224.084 1097.78 Q222.524 1094.95 222.524 1091.03 Q222.524 1084.54 227.68 1080.5 Q232.837 1076.42 241.239 1076.42 Q249.642 1076.42 254.798 1080.5 Q259.954 1084.54 259.954 1091.03 Q259.954 1094.95 258.427 1097.78 Q256.867 1100.58 253.684 1102.43 M241.239 1082.5 Q234.778 1082.5 231.118 1085.17 Q227.426 1087.82 227.426 1092.46 Q227.426 1097.11 231.118 1099.78 Q234.778 1102.43 241.239 1102.43 Q247.7 1102.43 251.393 1099.78 Q255.053 1097.11 255.053 1092.46 Q255.053 1087.82 251.393 1085.17 Q247.7 1082.5 241.239 1082.5 Z" fill="#000000" fill-rule="nonzero" fill-opacity="1" /><path clip-path="url(#clip250)" d="M228.858 1046.06 Q228.285 1047.04 228.03 1048.22 Q227.744 1049.37 227.744 1050.77 Q227.744 1055.73 230.99 1058.41 Q234.205 1061.05 240.253 1061.05 L259.031 1061.05 L259.031 1066.94 L223.383 1066.94 L223.383 1061.05 L228.922 1061.05 Q225.675 1059.2 224.116 1056.24 Q222.524 1053.28 222.524 1049.05 Q222.524 1048.44 222.62 1047.71 Q222.683 1046.98 222.842 1046.09 L228.858 1046.06 Z" fill="#000000" fill-rule="nonzero" fill-opacity="1" /><path clip-path="url(#clip250)" d="M227.489 1027.53 Q227.489 1032.24 231.181 1034.98 Q234.842 1037.72 241.239 1037.72 Q247.637 1037.72 251.329 1035.01 Q254.989 1032.28 254.989 1027.53 Q254.989 1022.85 251.297 1020.12 Q247.605 1017.38 241.239 1017.38 Q234.905 1017.38 231.213 1020.12 Q227.489 1022.85 227.489 1027.53 M222.524 1027.53 Q222.524 1019.89 227.489 1015.53 Q232.455 1011.17 241.239 1011.17 Q249.992 1011.17 254.989 1015.53 Q259.954 1019.89 259.954 1027.53 Q259.954 1035.2 254.989 1039.56 Q249.992 1043.89 241.239 1043.89 Q232.455 1043.89 227.489 1039.56 Q222.524 1035.2 222.524 1027.53 Z" fill="#000000" fill-rule="nonzero" fill-opacity="1" /><path clip-path="url(#clip250)" d="M209.506 983.419 L214.376 983.419 L214.376 989.021 Q214.376 992.172 215.649 993.413 Q216.922 994.623 220.232 994.623 L223.383 994.623 L223.383 984.979 L227.935 984.979 L227.935 994.623 L259.031 994.623 L259.031 1000.51 L227.935 1000.51 L227.935 1006.11 L223.383 1006.11 L223.383 1000.51 L220.901 1000.51 Q214.949 1000.51 212.243 997.742 Q209.506 994.973 209.506 988.957 L209.506 983.419 Z" fill="#000000" fill-rule="nonzero" fill-opacity="1" /><path clip-path="url(#clip250)" d="M223.383 978.517 L223.383 972.661 L259.031 972.661 L259.031 978.517 L223.383 978.517 M209.506 978.517 L209.506 972.661 L216.922 972.661 L216.922 978.517 L209.506 978.517 Z" fill="#000000" fill-rule="nonzero" fill-opacity="1" /><path clip-path="url(#clip250)" d="M209.506 960.407 L209.506 954.551 L259.031 954.551 L259.031 960.407 L209.506 960.407 Z" fill="#000000" fill-rule="nonzero" fill-opacity="1" /><path clip-path="url(#clip250)" d="M239.743 911.805 L242.608 911.805 L242.608 938.732 Q248.655 938.35 251.838 935.103 Q254.989 931.825 254.989 926 Q254.989 922.627 254.162 919.475 Q253.334 916.293 251.679 913.173 L257.217 913.173 Q258.554 916.324 259.254 919.635 Q259.954 922.945 259.954 926.35 Q259.954 934.88 254.989 939.878 Q250.024 944.843 241.558 944.843 Q232.805 944.843 227.68 940.132 Q222.524 935.39 222.524 927.369 Q222.524 920.176 227.171 916.006 Q231.786 911.805 239.743 911.805 M238.025 917.661 Q233.218 917.725 230.354 920.367 Q227.489 922.977 227.489 927.305 Q227.489 932.207 230.258 935.167 Q233.028 938.095 238.056 938.541 L238.025 917.661 Z" fill="#000000" fill-rule="nonzero" fill-opacity="1" /><path clip-path="url(#clip250)" d="M209.506 881.472 L209.506 875.616 L259.031 875.616 L259.031 881.472 L209.506 881.472 Z" fill="#000000" fill-rule="nonzero" fill-opacity="1" /><path clip-path="url(#clip250)" d="M227.489 849.548 Q227.489 854.259 231.181 856.996 Q234.842 859.733 241.239 859.733 Q247.637 859.733 251.329 857.028 Q254.989 854.291 254.989 849.548 Q254.989 844.869 251.297 842.132 Q247.605 839.395 241.239 839.395 Q234.905 839.395 231.213 842.132 Q227.489 844.869 227.489 849.548 M222.524 849.548 Q222.524 841.909 227.489 837.549 Q232.455 833.188 241.239 833.188 Q249.992 833.188 254.989 837.549 Q259.954 841.909 259.954 849.548 Q259.954 857.219 254.989 861.579 Q249.992 865.908 241.239 865.908 Q232.455 865.908 227.489 861.579 Q222.524 857.219 222.524 849.548 Z" fill="#000000" fill-rule="nonzero" fill-opacity="1" /><path clip-path="url(#clip250)" d="M240.794 800.023 Q234.428 800.023 230.927 802.665 Q227.426 805.275 227.426 810.017 Q227.426 814.728 230.927 817.37 Q234.428 819.979 240.794 819.979 Q247.128 819.979 250.629 817.37 Q254.13 814.728 254.13 810.017 Q254.13 805.275 250.629 802.665 Q247.128 800.023 240.794 800.023 M254.607 794.167 Q263.71 794.167 268.134 798.209 Q272.59 802.251 272.59 810.59 Q272.59 813.677 272.113 816.415 Q271.667 819.152 270.712 821.73 L265.015 821.73 Q266.416 819.152 267.084 816.637 Q267.752 814.123 267.752 811.513 Q267.752 805.752 264.729 802.888 Q261.737 800.023 255.658 800.023 L252.761 800.023 Q255.912 801.837 257.472 804.67 Q259.031 807.503 259.031 811.449 Q259.031 818.006 254.034 822.017 Q249.037 826.027 240.794 826.027 Q232.518 826.027 227.521 822.017 Q222.524 818.006 222.524 811.449 Q222.524 807.503 224.084 804.67 Q225.643 801.837 228.794 800.023 L223.383 800.023 L223.383 794.167 L254.607 794.167 Z" fill="#000000" fill-rule="nonzero" fill-opacity="1" /><path clip-path="url(#clip250)" d="M238.566 785.064 L238.566 767.908 L243.786 767.908 L243.786 785.064 L238.566 785.064 Z" fill="#000000" fill-rule="nonzero" fill-opacity="1" /><path clip-path="url(#clip250)" d="M209.506 758.582 L209.506 752.726 L259.031 752.726 L259.031 758.582 L209.506 758.582 Z" fill="#000000" fill-rule="nonzero" fill-opacity="1" /><path clip-path="url(#clip250)" d="M223.383 740.472 L223.383 734.615 L259.031 734.615 L259.031 740.472 L223.383 740.472 M209.506 740.472 L209.506 734.615 L216.922 734.615 L216.922 740.472 L209.506 740.472 Z" fill="#000000" fill-rule="nonzero" fill-opacity="1" /><path clip-path="url(#clip250)" d="M209.506 722.584 L209.506 716.696 L238.757 716.696 L223.383 699.222 L223.383 691.742 L240.062 710.648 L259.031 690.947 L259.031 698.585 L241.621 716.696 L259.031 716.696 L259.031 722.584 L209.506 722.584 Z" fill="#000000" fill-rule="nonzero" fill-opacity="1" /><path clip-path="url(#clip250)" d="M239.743 656.444 L242.608 656.444 L242.608 683.371 Q248.655 682.989 251.838 679.743 Q254.989 676.465 254.989 670.64 Q254.989 667.266 254.162 664.115 Q253.334 660.932 251.679 657.813 L257.217 657.813 Q258.554 660.964 259.254 664.274 Q259.954 667.584 259.954 670.99 Q259.954 679.52 254.989 684.517 Q250.024 689.483 241.558 689.483 Q232.805 689.483 227.68 684.772 Q222.524 680.029 222.524 672.009 Q222.524 664.815 227.171 660.646 Q231.786 656.444 239.743 656.444 M238.025 662.301 Q233.218 662.365 230.354 665.006 Q227.489 667.616 227.489 671.945 Q227.489 676.847 230.258 679.807 Q233.028 682.735 238.056 683.18 L238.025 662.301 Z" fill="#000000" fill-rule="nonzero" fill-opacity="1" /><path clip-path="url(#clip250)" d="M209.506 646.832 L209.506 640.976 L259.031 640.976 L259.031 646.832 L209.506 646.832 Z" fill="#000000" fill-rule="nonzero" fill-opacity="1" /><path clip-path="url(#clip250)" d="M223.383 628.722 L223.383 622.865 L259.031 622.865 L259.031 628.722 L223.383 628.722 M209.506 628.722 L209.506 622.865 L216.922 622.865 L216.922 628.722 L209.506 628.722 Z" fill="#000000" fill-rule="nonzero" fill-opacity="1" /><path clip-path="url(#clip250)" d="M237.515 580.979 L259.031 580.979 L259.031 586.835 L237.706 586.835 Q232.646 586.835 230.131 588.809 Q227.617 590.782 227.617 594.729 Q227.617 599.471 230.64 602.209 Q233.664 604.946 238.884 604.946 L259.031 604.946 L259.031 610.834 L209.506 610.834 L209.506 604.946 L228.922 604.946 Q225.707 602.845 224.116 600.012 Q222.524 597.148 222.524 593.424 Q222.524 587.281 226.344 584.13 Q230.131 580.979 237.515 580.979 Z" fill="#000000" fill-rule="nonzero" fill-opacity="1" /><path clip-path="url(#clip250)" d="M227.489 555.484 Q227.489 560.195 231.181 562.932 Q234.842 565.67 241.239 565.67 Q247.637 565.67 251.329 562.964 Q254.989 560.227 254.989 555.484 Q254.989 550.806 251.297 548.068 Q247.605 545.331 241.239 545.331 Q234.905 545.331 231.213 548.068 Q227.489 550.806 227.489 555.484 M222.524 555.484 Q222.524 547.846 227.489 543.485 Q232.455 539.125 241.239 539.125 Q249.992 539.125 254.989 543.485 Q259.954 547.846 259.954 555.484 Q259.954 563.155 254.989 567.516 Q249.992 571.844 241.239 571.844 Q232.455 571.844 227.489 567.516 Q222.524 563.155 222.524 555.484 Z" fill="#000000" fill-rule="nonzero" fill-opacity="1" /><path clip-path="url(#clip250)" d="M227.489 515.603 Q227.489 520.314 231.181 523.051 Q234.842 525.788 241.239 525.788 Q247.637 525.788 251.329 523.083 Q254.989 520.346 254.989 515.603 Q254.989 510.924 251.297 508.187 Q247.605 505.45 241.239 505.45 Q234.905 505.45 231.213 508.187 Q227.489 510.924 227.489 515.603 M222.524 515.603 Q222.524 507.964 227.489 503.604 Q232.455 499.243 241.239 499.243 Q249.992 499.243 254.989 503.604 Q259.954 507.964 259.954 515.603 Q259.954 523.274 254.989 527.634 Q249.992 531.963 241.239 531.963 Q232.455 531.963 227.489 527.634 Q222.524 523.274 222.524 515.603 Z" fill="#000000" fill-rule="nonzero" fill-opacity="1" /><path clip-path="url(#clip250)" d="M228.794 466.078 L209.506 466.078 L209.506 460.222 L259.031 460.222 L259.031 466.078 L253.684 466.078 Q256.867 467.924 258.427 470.757 Q259.954 473.558 259.954 477.504 Q259.954 483.966 254.798 488.04 Q249.642 492.082 241.239 492.082 Q232.837 492.082 227.68 488.04 Q222.524 483.966 222.524 477.504 Q222.524 473.558 224.084 470.757 Q225.611 467.924 228.794 466.078 M241.239 486.035 Q247.7 486.035 251.393 483.393 Q255.053 480.719 255.053 476.072 Q255.053 471.425 251.393 468.752 Q247.7 466.078 241.239 466.078 Q234.778 466.078 231.118 468.752 Q227.426 471.425 227.426 476.072 Q227.426 480.719 231.118 483.393 Q234.778 486.035 241.239 486.035 Z" fill="#000000" fill-rule="nonzero" fill-opacity="1" /><polyline clip-path="url(#clip251)" style="stroke:#000080; stroke-linecap:round; stroke-linejoin:round; stroke-width:8; stroke-opacity:1; fill:none" points="561.552,1405.29 634.8,521.732 708.047,267.069 781.295,185.069 854.543,163.246 1001.04,177.339 1147.53,211.116 1513.77,293.11 1880.01,354.751 2612.49,435.738 "/>
<circle clip-path="url(#clip251)" cx="561.552" cy="1405.29" r="14.4" fill="#000080" fill-rule="evenodd" fill-opacity="1" stroke="#000000" stroke-opacity="1" stroke-width="3.6"/>
<circle clip-path="url(#clip251)" cx="634.8" cy="521.732" r="14.4" fill="#000080" fill-rule="evenodd" fill-opacity="1" stroke="#000000" stroke-opacity="1" stroke-width="3.6"/>
<circle clip-path="url(#clip251)" cx="708.047" cy="267.069" r="14.4" fill="#000080" fill-rule="evenodd" fill-opacity="1" stroke="#000000" stroke-opacity="1" stroke-width="3.6"/>
<circle clip-path="url(#clip251)" cx="781.295" cy="185.069" r="14.4" fill="#000080" fill-rule="evenodd" fill-opacity="1" stroke="#000000" stroke-opacity="1" stroke-width="3.6"/>
<circle clip-path="url(#clip251)" cx="854.543" cy="163.246" r="14.4" fill="#000080" fill-rule="evenodd" fill-opacity="1" stroke="#000000" stroke-opacity="1" stroke-width="3.6"/>
<circle clip-path="url(#clip251)" cx="1001.04" cy="177.339" r="14.4" fill="#000080" fill-rule="evenodd" fill-opacity="1" stroke="#000000" stroke-opacity="1" stroke-width="3.6"/>
<circle clip-path="url(#clip251)" cx="1147.53" cy="211.116" r="14.4" fill="#000080" fill-rule="evenodd" fill-opacity="1" stroke="#000000" stroke-opacity="1" stroke-width="3.6"/>
<circle clip-path="url(#clip251)" cx="1513.77" cy="293.11" r="14.4" fill="#000080" fill-rule="evenodd" fill-opacity="1" stroke="#000000" stroke-opacity="1" stroke-width="3.6"/>
<circle clip-path="url(#clip251)" cx="1880.01" cy="354.751" r="14.4" fill="#000080" fill-rule="evenodd" fill-opacity="1" stroke="#000000" stroke-opacity="1" stroke-width="3.6"/>
<circle clip-path="url(#clip251)" cx="2612.49" cy="435.738" r="14.4" fill="#000080" fill-rule="evenodd" fill-opacity="1" stroke="#000000" stroke-opacity="1" stroke-width="3.6"/>
<polyline clip-path="url(#clip251)" style="stroke:#ff0000; stroke-linecap:round; stroke-linejoin:round; stroke-width:8; stroke-opacity:1; fill:none" stroke-dasharray="32, 20" points="854.543,2759.12 854.543,-1190.58 "/>
<path clip-path="url(#clip250)" d="M2073.6 1398.67 L2601.55 1398.67 L2601.55 1223.71 L2073.6 1223.71  Z" fill="#ffffff" fill-rule="evenodd" fill-opacity="1"/>
<polyline clip-path="url(#clip250)" style="stroke:#000000; stroke-linecap:round; stroke-linejoin:round; stroke-width:4; stroke-opacity:1; fill:none" points="2073.6,1398.67 2601.55,1398.67 2601.55,1223.71 2073.6,1223.71 2073.6,1398.67 "/>
<polyline clip-path="url(#clip250)" style="stroke:#000080; stroke-linecap:round; stroke-linejoin:round; stroke-width:9; stroke-opacity:1; fill:none" points="2097.76,1282.03 2242.69,1282.03 "/>
<circle clip-path="url(#clip250)" cx="2170.23" cy="1282.03" r="17.8929" fill="#000080" fill-rule="evenodd" fill-opacity="1" stroke="#000000" stroke-opacity="1" stroke-width="5.76"/>
<path clip-path="url(#clip250)" d="M2271.67 1297.09 L2271.67 1312.56 L2266.85 1312.56 L2266.85 1272.3 L2271.67 1272.3 L2271.67 1276.73 Q2273.18 1274.12 2275.47 1272.87 Q2277.79 1271.6 2280.99 1271.6 Q2286.3 1271.6 2289.61 1275.82 Q2292.94 1280.03 2292.94 1286.91 Q2292.94 1293.78 2289.61 1298 Q2286.3 1302.22 2280.99 1302.22 Q2277.79 1302.22 2275.47 1300.97 Q2273.18 1299.7 2271.67 1297.09 M2287.97 1286.91 Q2287.97 1281.62 2285.78 1278.63 Q2283.62 1275.61 2279.82 1275.61 Q2276.02 1275.61 2273.83 1278.63 Q2271.67 1281.62 2271.67 1286.91 Q2271.67 1292.2 2273.83 1295.22 Q2276.02 1298.21 2279.82 1298.21 Q2283.62 1298.21 2285.78 1295.22 Q2287.97 1292.2 2287.97 1286.91 Z" fill="#000000" fill-rule="nonzero" fill-opacity="1" /><path clip-path="url(#clip250)" d="M2317.79 1276.78 Q2316.98 1276.31 2316.02 1276.1 Q2315.08 1275.87 2313.93 1275.87 Q2309.87 1275.87 2307.68 1278.52 Q2305.52 1281.15 2305.52 1286.1 L2305.52 1301.47 L2300.7 1301.47 L2300.7 1272.3 L2305.52 1272.3 L2305.52 1276.83 Q2307.03 1274.17 2309.45 1272.9 Q2311.87 1271.6 2315.34 1271.6 Q2315.83 1271.6 2316.43 1271.67 Q2317.03 1271.73 2317.76 1271.86 L2317.79 1276.78 Z" fill="#000000" fill-rule="nonzero" fill-opacity="1" /><path clip-path="url(#clip250)" d="M2332.94 1275.66 Q2329.09 1275.66 2326.85 1278.68 Q2324.61 1281.67 2324.61 1286.91 Q2324.61 1292.14 2326.82 1295.16 Q2329.06 1298.16 2332.94 1298.16 Q2336.77 1298.16 2339.01 1295.14 Q2341.25 1292.12 2341.25 1286.91 Q2341.25 1281.73 2339.01 1278.71 Q2336.77 1275.66 2332.94 1275.66 M2332.94 1271.6 Q2339.19 1271.6 2342.76 1275.66 Q2346.33 1279.72 2346.33 1286.91 Q2346.33 1294.07 2342.76 1298.16 Q2339.19 1302.22 2332.94 1302.22 Q2326.67 1302.22 2323.1 1298.16 Q2319.56 1294.07 2319.56 1286.91 Q2319.56 1279.72 2323.1 1275.66 Q2326.67 1271.6 2332.94 1271.6 Z" fill="#000000" fill-rule="nonzero" fill-opacity="1" /><path clip-path="url(#clip250)" d="M2369.04 1260.95 L2369.04 1264.93 L2364.45 1264.93 Q2361.87 1264.93 2360.86 1265.97 Q2359.87 1267.01 2359.87 1269.72 L2359.87 1272.3 L2367.76 1272.3 L2367.76 1276.02 L2359.87 1276.02 L2359.87 1301.47 L2355.05 1301.47 L2355.05 1276.02 L2350.47 1276.02 L2350.47 1272.3 L2355.05 1272.3 L2355.05 1270.27 Q2355.05 1265.4 2357.32 1263.18 Q2359.58 1260.95 2364.5 1260.95 L2369.04 1260.95 Z" fill="#000000" fill-rule="nonzero" fill-opacity="1" /><path clip-path="url(#clip250)" d="M2373.05 1272.3 L2377.84 1272.3 L2377.84 1301.47 L2373.05 1301.47 L2373.05 1272.3 M2373.05 1260.95 L2377.84 1260.95 L2377.84 1267.01 L2373.05 1267.01 L2373.05 1260.95 Z" fill="#000000" fill-rule="nonzero" fill-opacity="1" /><path clip-path="url(#clip250)" d="M2387.86 1260.95 L2392.66 1260.95 L2392.66 1301.47 L2387.86 1301.47 L2387.86 1260.95 Z" fill="#000000" fill-rule="nonzero" fill-opacity="1" /><path clip-path="url(#clip250)" d="M2427.63 1285.68 L2427.63 1288.03 L2405.6 1288.03 Q2405.91 1292.98 2408.57 1295.58 Q2411.25 1298.16 2416.01 1298.16 Q2418.77 1298.16 2421.35 1297.48 Q2423.96 1296.8 2426.51 1295.45 L2426.51 1299.98 Q2423.93 1301.08 2421.22 1301.65 Q2418.51 1302.22 2415.73 1302.22 Q2408.75 1302.22 2404.66 1298.16 Q2400.6 1294.1 2400.6 1287.17 Q2400.6 1280.01 2404.45 1275.82 Q2408.33 1271.6 2414.89 1271.6 Q2420.78 1271.6 2424.19 1275.4 Q2427.63 1279.17 2427.63 1285.68 M2422.84 1284.28 Q2422.79 1280.35 2420.62 1278 Q2418.49 1275.66 2414.95 1275.66 Q2410.94 1275.66 2408.51 1277.92 Q2406.12 1280.19 2405.75 1284.3 L2422.84 1284.28 Z" fill="#000000" fill-rule="nonzero" fill-opacity="1" /><path clip-path="url(#clip250)" d="M2452.45 1260.95 L2457.24 1260.95 L2457.24 1301.47 L2452.45 1301.47 L2452.45 1260.95 Z" fill="#000000" fill-rule="nonzero" fill-opacity="1" /><path clip-path="url(#clip250)" d="M2478.57 1275.66 Q2474.71 1275.66 2472.47 1278.68 Q2470.23 1281.67 2470.23 1286.91 Q2470.23 1292.14 2472.45 1295.16 Q2474.69 1298.16 2478.57 1298.16 Q2482.39 1298.16 2484.63 1295.14 Q2486.87 1292.12 2486.87 1286.91 Q2486.87 1281.73 2484.63 1278.71 Q2482.39 1275.66 2478.57 1275.66 M2478.57 1271.6 Q2484.82 1271.6 2488.38 1275.66 Q2491.95 1279.72 2491.95 1286.91 Q2491.95 1294.07 2488.38 1298.16 Q2484.82 1302.22 2478.57 1302.22 Q2472.29 1302.22 2468.72 1298.16 Q2465.18 1294.07 2465.18 1286.91 Q2465.18 1279.72 2468.72 1275.66 Q2472.29 1271.6 2478.57 1271.6 Z" fill="#000000" fill-rule="nonzero" fill-opacity="1" /><path clip-path="url(#clip250)" d="M2519.09 1286.54 Q2519.09 1281.34 2516.93 1278.47 Q2514.79 1275.61 2510.91 1275.61 Q2507.06 1275.61 2504.89 1278.47 Q2502.76 1281.34 2502.76 1286.54 Q2502.76 1291.73 2504.89 1294.59 Q2507.06 1297.46 2510.91 1297.46 Q2514.79 1297.46 2516.93 1294.59 Q2519.09 1291.73 2519.09 1286.54 M2523.88 1297.85 Q2523.88 1305.29 2520.57 1308.91 Q2517.26 1312.56 2510.44 1312.56 Q2507.92 1312.56 2505.68 1312.17 Q2503.44 1311.8 2501.33 1311.02 L2501.33 1306.36 Q2503.44 1307.51 2505.49 1308.05 Q2507.55 1308.6 2509.69 1308.6 Q2514.4 1308.6 2516.74 1306.13 Q2519.09 1303.68 2519.09 1298.71 L2519.09 1296.34 Q2517.6 1298.91 2515.28 1300.19 Q2512.97 1301.47 2509.74 1301.47 Q2504.37 1301.47 2501.09 1297.38 Q2497.81 1293.29 2497.81 1286.54 Q2497.81 1279.77 2501.09 1275.68 Q2504.37 1271.6 2509.74 1271.6 Q2512.97 1271.6 2515.28 1272.87 Q2517.6 1274.15 2519.09 1276.73 L2519.09 1272.3 L2523.88 1272.3 L2523.88 1297.85 Z" fill="#000000" fill-rule="nonzero" fill-opacity="1" /><path clip-path="url(#clip250)" d="M2531.33 1284.72 L2545.36 1284.72 L2545.36 1288.99 L2531.33 1288.99 L2531.33 1284.72 Z" fill="#000000" fill-rule="nonzero" fill-opacity="1" /><path clip-path="url(#clip250)" d="M2553.2 1262.59 L2558.46 1262.59 L2558.46 1297.04 L2577.39 1297.04 L2577.39 1301.47 L2553.2 1301.47 L2553.2 1262.59 Z" fill="#000000" fill-rule="nonzero" fill-opacity="1" /><polyline clip-path="url(#clip250)" style="stroke:#ff0000; stroke-linecap:round; stroke-linejoin:round; stroke-width:9; stroke-opacity:1; fill:none" stroke-dasharray="36, 23" points="2097.76,1340.35 2242.69,1340.35 "/>
<path clip-path="url(#clip250)" d="M2275.75 1359.79 L2266.85 1330.62 L2272 1330.62 L2279.53 1355.1 Q2282.66 1351.87 2285.26 1347.39 Q2287.24 1344.03 2287.34 1341.11 Q2287.4 1339.73 2286.77 1337.13 Q2286.04 1334.03 2283.28 1330.62 L2288.12 1330.62 L2288.12 1330.62 Q2289.92 1332.94 2291.12 1336.17 Q2292.21 1339.13 2292.21 1341.17 Q2292.21 1346.27 2288.67 1350.83 Q2284.06 1356.77 2280.86 1359.79 L2275.75 1359.79 Z" fill="#000000" fill-rule="nonzero" fill-opacity="1" /><path clip-path="url(#clip250)" d="M2319.79 1327.31 L2310.44 1332.36 L2319.79 1337.44 L2318.28 1339.99 L2309.53 1334.71 L2309.53 1344.53 L2306.56 1344.53 L2306.56 1334.71 L2297.81 1339.99 L2296.3 1337.44 L2305.65 1332.36 L2296.3 1327.31 L2297.81 1324.73 L2306.56 1330.02 L2306.56 1320.2 L2309.53 1320.2 L2309.53 1330.02 L2318.28 1324.73 L2319.79 1327.31 Z" fill="#000000" fill-rule="nonzero" fill-opacity="1" /><path clip-path="url(#clip250)" d="M2343.98 1335.57 L2377.37 1335.57 L2377.37 1339.94 L2343.98 1339.94 L2343.98 1335.57 M2343.98 1346.19 L2377.37 1346.19 L2377.37 1350.62 L2343.98 1350.62 L2343.98 1346.19 Z" fill="#000000" fill-rule="nonzero" fill-opacity="1" /><path clip-path="url(#clip250)" d="M2417.58 1338.25 Q2414.04 1338.25 2411.95 1340.67 Q2409.89 1343.09 2409.89 1347.31 Q2409.89 1351.5 2411.95 1353.95 Q2414.04 1356.37 2417.58 1356.37 Q2421.12 1356.37 2423.18 1353.95 Q2425.26 1351.5 2425.26 1347.31 Q2425.26 1343.09 2423.18 1340.67 Q2421.12 1338.25 2417.58 1338.25 M2428.02 1321.77 L2428.02 1326.56 Q2426.04 1325.62 2424.01 1325.12 Q2422 1324.63 2420.02 1324.63 Q2414.82 1324.63 2412.06 1328.15 Q2409.32 1331.66 2408.93 1338.77 Q2410.47 1336.5 2412.79 1335.31 Q2415.1 1334.08 2417.89 1334.08 Q2423.75 1334.08 2427.13 1337.65 Q2430.55 1341.19 2430.55 1347.31 Q2430.55 1353.3 2427 1356.92 Q2423.46 1360.54 2417.58 1360.54 Q2410.83 1360.54 2407.26 1355.38 Q2403.7 1350.2 2403.7 1340.38 Q2403.7 1331.17 2408.07 1325.7 Q2412.45 1320.2 2419.82 1320.2 Q2421.8 1320.2 2423.8 1320.59 Q2425.83 1320.98 2428.02 1321.77 Z" fill="#000000" fill-rule="nonzero" fill-opacity="1" /></svg>
