<?xml version="1.0" encoding="utf-8"?>
<svg xmlns="http://www.w3.org/2000/svg" xmlns:xlink="http://www.w3.org/1999/xlink" width="700" height="500" viewBox="0 0 2800 2000">
<defs>
  <clipPath id="clip310">
    <rect x="0" y="0" width="2800" height="2000"/>
  </clipPath>
</defs>
<path clip-path="url(#clip310)" d="M0 2000 L2800 2000 L2800 -4.44089e-14 L0 -4.44089e-14  Z" fill="#ffffff" fill-rule="evenodd" fill-opacity="1"/>
<defs>
  <clipPath id="clip311">
    <rect x="435" y="125" width="2240" height="1515"/>
  </clipPath>
</defs>
<path clip-path="url(#clip310)" d="M435.12 1640.09 L2674.02 1640.09 L2674.02 125.984 L435.12 125.984  Z" fill="#ffffff" fill-rule="evenodd" fill-opacity="1"/>
<polyline clip-path="url(#clip311)" style="stroke:#000000; stroke-linecap:round; stroke-linejoin:round; stroke-width:2; stroke-opacity:0.1; fill:none" points="683.886,1640.09 683.886,125.984 "/>
<polyline clip-path="url(#clip311)" style="stroke:#000000; stroke-linecap:round; stroke-linejoin:round; stroke-width:2; stroke-opacity:0.1; fill:none" points="994.844,1640.09 994.844,125.984 "/>
<polyline clip-path="url(#clip311)" style="stroke:#000000; stroke-linecap:round; stroke-linejoin:round; stroke-width:2; stroke-opacity:0.1; fill:none" points="1305.8,1640.09 1305.8,125.984 "/>
<polyline clip-path="url(#clip311)" style="stroke:#000000; stroke-linecap:round; stroke-linejoin:round; stroke-width:2; stroke-opacity:0.1; fill:none" points="1616.76,1640.09 1616.76,125.984 "/>
<polyline clip-path="url(#clip311)" style="stroke:#000000; stroke-linecap:round; stroke-linejoin:round; stroke-width:2; stroke-opacity:0.1; fill:none" points="1927.72,1640.09 1927.72,125.984 "/>
<polyline clip-path="url(#clip311)" style="stroke:#000000; stroke-linecap:round; stroke-linejoin:round; stroke-width:2; stroke-opacity:0.1; fill:none" points="2238.67,1640.09 2238.67,125.984 "/>
<polyline clip-path="url(#clip311)" style="stroke:#000000; stroke-linecap:round; stroke-linejoin:round; stroke-width:2; stroke-opacity:0.1; fill:none" points="2549.63,1640.09 2549.63,125.984 "/>
<polyline clip-path="url(#clip311)" style="stroke:#000000; stroke-linecap:round; stroke-linejoin:round; stroke-width:2; stroke-opacity:0.1; fill:none" points="435.12,1584.01 2674.02,1584.01 "/>
<polyline clip-path="url(#clip311)" style="stroke:#000000; stroke-linecap:round; stroke-linejoin:round; stroke-width:2; stroke-opacity:0.1; fill:none" points="435.12,1303.62 2674.02,1303.62 "/>
<polyline clip-path="url(#clip311)" style="stroke:#000000; stroke-linecap:round; stroke-linejoin:round; stroke-width:2; stroke-opacity:0.1; fill:none" points="435.12,1023.23 2674.02,1023.23 "/>
<polyline clip-path="url(#clip311)" style="stroke:#000000; stroke-linecap:round; stroke-linejoin:round; stroke-width:2; stroke-opacity:0.1; fill:none" points="435.12,742.842 2674.02,742.842 "/>
<polyline clip-path="url(#clip311)" style="stroke:#000000; stroke-linecap:round; stroke-linejoin:round; stroke-width:2; stroke-opacity:0.1; fill:none" points="435.12,462.452 2674.02,462.452 "/>
<polyline clip-path="url(#clip311)" style="stroke:#000000; stroke-linecap:round; stroke-linejoin:round; stroke-width:2; stroke-opacity:0.1; fill:none" points="435.12,182.062 2674.02,182.062 "/>
<polyline clip-path="url(#clip310)" style="stroke:#000000; stroke-linecap:round; stroke-linejoin:round; stroke-width:4; stroke-opacity:1; fill:none" points="435.12,1640.09 2674.02,1640.09 "/>
<polyline clip-path="url(#clip310)" style="stroke:#000000; stroke-linecap:round; stroke-linejoin:round; stroke-width:4; stroke-opacity:1; fill:none" points="683.886,1640.09 683.886,1621.19 "/>
<polyline clip-path="url(#clip310)" style="stroke:#000000; stroke-linecap:round; stroke-linejoin:round; stroke-width:4; stroke-opacity:1; fill:none" points="994.844,1640.09 994.844,1621.19 "/>
<polyline clip-path="url(#clip310)" style="stroke:#000000; stroke-linecap:round; stroke-linejoin:round; stroke-width:4; stroke-opacity:1; fill:none" points="1305.8,1640.09 1305.8,1621.19 "/>
<polyline clip-path="url(#clip310)" style="stroke:#000000; stroke-linecap:round; stroke-linejoin:round; stroke-width:4; stroke-opacity:1; fill:none" points="1616.76,1640.09 1616.76,1621.19 "/>
<polyline clip-path="url(#clip310)" style="stroke:#000000; stroke-linecap:round; stroke-linejoin:round; stroke-width:4; stroke-opacity:1; fill:none" points="1927.72,1640.09 1927.72,1621.19 "/>
<polyline clip-path="url(#clip310)" style="stroke:#000000; stroke-linecap:round; stroke-linejoin:round; stroke-width:4; stroke-opacity:1; fill:none" points="2238.67,1640.09 2238.67,1621.19 "/>
<polyline clip-path="url(#clip310)" style="stroke:#000000; stroke-linecap:round; stroke-linejoin:round; stroke-width:4; stroke-opacity:1; fill:none" points="2549.63,1640.09 2549.63,1621.19 "/>
<path clip-path="url(#clip310)" d="M652.089 1706.66 L670.448 1706.66 L670.448 1711.09 L645.761 1711.09 L645.761 1706.66 Q648.756 1703.56 653.912 1698.35 Q659.094 1693.12 660.422 1691.61 Q662.949 1688.77 663.938 1686.82 Q664.954 1684.84 664.954 1682.94 Q664.954 1679.84 662.766 1677.89 Q660.605 1675.93 657.115 1675.93 Q654.641 1675.93 651.881 1676.79 Q649.146 1677.65 646.022 1679.4 L646.022 1674.08 Q649.199 1672.81 651.959 1672.16 Q654.719 1671.51 657.011 1671.51 Q663.053 1671.51 666.646 1674.53 Q670.24 1677.55 670.24 1682.6 Q670.24 1685 669.329 1687.16 Q668.443 1689.29 666.073 1692.21 Q665.422 1692.96 661.933 1696.58 Q658.443 1700.18 652.089 1706.66 Z" fill="#000000" fill-rule="nonzero" fill-opacity="1" /><path clip-path="url(#clip310)" d="M681.49 1704.47 L686.985 1704.47 L686.985 1711.09 L681.49 1711.09 L681.49 1704.47 Z" fill="#000000" fill-rule="nonzero" fill-opacity="1" /><path clip-path="url(#clip310)" d="M698.495 1672.21 L719.146 1672.21 L719.146 1676.64 L703.313 1676.64 L703.313 1686.17 Q704.459 1685.78 705.605 1685.59 Q706.75 1685.39 707.896 1685.39 Q714.407 1685.39 718.209 1688.95 Q722.011 1692.52 722.011 1698.61 Q722.011 1704.89 718.104 1708.38 Q714.198 1711.84 707.089 1711.84 Q704.641 1711.84 702.089 1711.43 Q699.563 1711.01 696.855 1710.18 L696.855 1704.89 Q699.198 1706.17 701.698 1706.79 Q704.198 1707.42 706.985 1707.42 Q711.49 1707.42 714.12 1705.05 Q716.75 1702.68 716.75 1698.61 Q716.75 1694.55 714.12 1692.18 Q711.49 1689.81 706.985 1689.81 Q704.875 1689.81 702.766 1690.28 Q700.683 1690.75 698.495 1691.74 L698.495 1672.21 Z" fill="#000000" fill-rule="nonzero" fill-opacity="1" /><path clip-path="url(#clip310)" d="M957.904 1672.21 L978.555 1672.21 L978.555 1676.64 L962.721 1676.64 L962.721 1686.17 Q963.867 1685.78 965.013 1685.59 Q966.159 1685.39 967.305 1685.39 Q973.815 1685.39 977.617 1688.95 Q981.419 1692.52 981.419 1698.61 Q981.419 1704.89 977.513 1708.38 Q973.607 1711.84 966.497 1711.84 Q964.05 1711.84 961.498 1711.43 Q958.971 1711.01 956.263 1710.18 L956.263 1704.89 Q958.607 1706.17 961.107 1706.79 Q963.607 1707.42 966.393 1707.42 Q970.898 1707.42 973.529 1705.05 Q976.159 1702.68 976.159 1698.61 Q976.159 1694.55 973.529 1692.18 Q970.898 1689.81 966.393 1689.81 Q964.284 1689.81 962.175 1690.28 Q960.091 1690.75 957.904 1691.74 L957.904 1672.21 Z" fill="#000000" fill-rule="nonzero" fill-opacity="1" /><path clip-path="url(#clip310)" d="M991.784 1704.47 L997.279 1704.47 L997.279 1711.09 L991.784 1711.09 L991.784 1704.47 Z" fill="#000000" fill-rule="nonzero" fill-opacity="1" /><path clip-path="url(#clip310)" d="M1019.99 1675.67 Q1015.92 1675.67 1013.87 1679.68 Q1011.84 1683.67 1011.84 1691.69 Q1011.84 1699.68 1013.87 1703.69 Q1015.92 1707.68 1019.99 1707.68 Q1024.08 1707.68 1026.11 1703.69 Q1028.16 1699.68 1028.16 1691.69 Q1028.16 1683.67 1026.11 1679.68 Q1024.08 1675.67 1019.99 1675.67 M1019.99 1671.51 Q1026.52 1671.51 1029.96 1676.69 Q1033.42 1681.84 1033.42 1691.69 Q1033.42 1701.51 1029.96 1706.69 Q1026.52 1711.84 1019.99 1711.84 Q1013.45 1711.84 1009.99 1706.69 Q1006.55 1701.51 1006.55 1691.69 Q1006.55 1681.84 1009.99 1676.69 Q1013.45 1671.51 1019.99 1671.51 Z" fill="#000000" fill-rule="nonzero" fill-opacity="1" /><path clip-path="url(#clip310)" d="M1267.91 1672.21 L1292.91 1672.21 L1292.91 1674.45 L1278.8 1711.09 L1273.3 1711.09 L1286.58 1676.64 L1267.91 1676.64 L1267.91 1672.21 Z" fill="#000000" fill-rule="nonzero" fill-opacity="1" /><path clip-path="url(#clip310)" d="M1303.17 1704.47 L1308.67 1704.47 L1308.67 1711.09 L1303.17 1711.09 L1303.17 1704.47 Z" fill="#000000" fill-rule="nonzero" fill-opacity="1" /><path clip-path="url(#clip310)" d="M1320.18 1672.21 L1340.83 1672.21 L1340.83 1676.64 L1324.99 1676.64 L1324.99 1686.17 Q1326.14 1685.78 1327.29 1685.59 Q1328.43 1685.39 1329.58 1685.39 Q1336.09 1685.39 1339.89 1688.95 Q1343.69 1692.52 1343.69 1698.61 Q1343.69 1704.89 1339.79 1708.38 Q1335.88 1711.84 1328.77 1711.84 Q1326.32 1711.84 1323.77 1711.43 Q1321.24 1711.01 1318.54 1710.18 L1318.54 1704.89 Q1320.88 1706.17 1323.38 1706.79 Q1325.88 1707.42 1328.67 1707.42 Q1333.17 1707.42 1335.8 1705.05 Q1338.43 1702.68 1338.43 1698.61 Q1338.43 1694.55 1335.8 1692.18 Q1333.17 1689.81 1328.67 1689.81 Q1326.56 1689.81 1324.45 1690.28 Q1322.36 1690.75 1320.18 1691.74 L1320.18 1672.21 Z" fill="#000000" fill-rule="nonzero" fill-opacity="1" /><path clip-path="url(#clip310)" d="M1562.84 1706.66 L1571.43 1706.66 L1571.43 1677 L1562.09 1678.88 L1562.09 1674.08 L1571.38 1672.21 L1576.64 1672.21 L1576.64 1706.66 L1585.24 1706.66 L1585.24 1711.09 L1562.84 1711.09 L1562.84 1706.66 Z" fill="#000000" fill-rule="nonzero" fill-opacity="1" /><path clip-path="url(#clip310)" d="M1607.11 1675.67 Q1603.05 1675.67 1600.99 1679.68 Q1598.96 1683.67 1598.96 1691.69 Q1598.96 1699.68 1600.99 1703.69 Q1603.05 1707.68 1607.11 1707.68 Q1611.2 1707.68 1613.23 1703.69 Q1615.29 1699.68 1615.29 1691.69 Q1615.29 1683.67 1613.23 1679.68 Q1611.2 1675.67 1607.11 1675.67 M1607.11 1671.51 Q1613.65 1671.51 1617.08 1676.69 Q1620.55 1681.84 1620.55 1691.69 Q1620.55 1701.51 1617.08 1706.69 Q1613.65 1711.84 1607.11 1711.84 Q1600.57 1711.84 1597.11 1706.69 Q1593.67 1701.51 1593.67 1691.69 Q1593.67 1681.84 1597.11 1676.69 Q1600.57 1671.51 1607.11 1671.51 Z" fill="#000000" fill-rule="nonzero" fill-opacity="1" /><path clip-path="url(#clip310)" d="M1629.79 1704.47 L1635.29 1704.47 L1635.29 1711.09 L1629.79 1711.09 L1629.79 1704.47 Z" fill="#000000" fill-rule="nonzero" fill-opacity="1" /><path clip-path="url(#clip310)" d="M1658 1675.67 Q1653.93 1675.67 1651.88 1679.68 Q1649.85 1683.67 1649.85 1691.69 Q1649.85 1699.68 1651.88 1703.69 Q1653.93 1707.68 1658 1707.68 Q1662.08 1707.68 1664.12 1703.69 Q1666.17 1699.68 1666.17 1691.69 Q1666.17 1683.67 1664.12 1679.68 Q1662.08 1675.67 1658 1675.67 M1658 1671.51 Q1664.53 1671.51 1667.97 1676.69 Q1671.43 1681.84 1671.43 1691.69 Q1671.43 1701.51 1667.97 1706.69 Q1664.53 1711.84 1658 1711.84 Q1651.46 1711.84 1648 1706.69 Q1644.56 1701.51 1644.56 1691.69 Q1644.56 1681.84 1648 1676.69 Q1651.46 1671.51 1658 1671.51 Z" fill="#000000" fill-rule="nonzero" fill-opacity="1" /><path clip-path="url(#clip310)" d="M1874.36 1706.66 L1882.95 1706.66 L1882.95 1677 L1873.6 1678.88 L1873.6 1674.08 L1882.9 1672.21 L1888.16 1672.21 L1888.16 1706.66 L1896.75 1706.66 L1896.75 1711.09 L1874.36 1711.09 L1874.36 1706.66 Z" fill="#000000" fill-rule="nonzero" fill-opacity="1" /><path clip-path="url(#clip310)" d="M1911.91 1706.66 L1930.27 1706.66 L1930.27 1711.09 L1905.58 1711.09 L1905.58 1706.66 Q1908.58 1703.56 1913.73 1698.35 Q1918.92 1693.12 1920.24 1691.61 Q1922.77 1688.77 1923.76 1686.82 Q1924.77 1684.84 1924.77 1682.94 Q1924.77 1679.84 1922.59 1677.89 Q1920.43 1675.93 1916.94 1675.93 Q1914.46 1675.93 1911.7 1676.79 Q1908.97 1677.65 1905.84 1679.4 L1905.84 1674.08 Q1909.02 1672.81 1911.78 1672.16 Q1914.54 1671.51 1916.83 1671.51 Q1922.87 1671.51 1926.47 1674.53 Q1930.06 1677.55 1930.06 1682.6 Q1930.06 1685 1929.15 1687.16 Q1928.26 1689.29 1925.89 1692.21 Q1925.24 1692.96 1921.75 1696.58 Q1918.26 1700.18 1911.91 1706.66 Z" fill="#000000" fill-rule="nonzero" fill-opacity="1" /><path clip-path="url(#clip310)" d="M1941.31 1704.47 L1946.81 1704.47 L1946.81 1711.09 L1941.31 1711.09 L1941.31 1704.47 Z" fill="#000000" fill-rule="nonzero" fill-opacity="1" /><path clip-path="url(#clip310)" d="M1958.32 1672.21 L1978.97 1672.21 L1978.97 1676.64 L1963.13 1676.64 L1963.13 1686.17 Q1964.28 1685.78 1965.43 1685.59 Q1966.57 1685.39 1967.72 1685.39 Q1974.23 1685.39 1978.03 1688.95 Q1981.83 1692.52 1981.83 1698.61 Q1981.83 1704.89 1977.93 1708.38 Q1974.02 1711.84 1966.91 1711.84 Q1964.46 1711.84 1961.91 1711.43 Q1959.38 1711.01 1956.68 1710.18 L1956.68 1704.89 Q1959.02 1706.17 1961.52 1706.79 Q1964.02 1707.42 1966.81 1707.42 Q1971.31 1707.42 1973.94 1705.05 Q1976.57 1702.68 1976.57 1698.61 Q1976.57 1694.55 1973.94 1692.18 Q1971.31 1689.81 1966.81 1689.81 Q1964.7 1689.81 1962.59 1690.28 Q1960.5 1690.75 1958.32 1691.74 L1958.32 1672.21 Z" fill="#000000" fill-rule="nonzero" fill-opacity="1" /><path clip-path="url(#clip310)" d="M2184.76 1706.66 L2193.35 1706.66 L2193.35 1677 L2184 1678.88 L2184 1674.08 L2193.3 1672.21 L2198.56 1672.21 L2198.56 1706.66 L2207.15 1706.66 L2207.15 1711.09 L2184.76 1711.09 L2184.76 1706.66 Z" fill="#000000" fill-rule="nonzero" fill-opacity="1" /><path clip-path="url(#clip310)" d="M2217.83 1672.21 L2238.48 1672.21 L2238.48 1676.64 L2222.65 1676.64 L2222.65 1686.17 Q2223.79 1685.78 2224.94 1685.59 Q2226.08 1685.39 2227.23 1685.39 Q2233.74 1685.39 2237.54 1688.95 Q2241.34 1692.52 2241.34 1698.61 Q2241.34 1704.89 2237.44 1708.38 Q2233.53 1711.84 2226.42 1711.84 Q2223.97 1711.84 2221.42 1711.43 Q2218.9 1711.01 2216.19 1710.18 L2216.19 1704.89 Q2218.53 1706.17 2221.03 1706.79 Q2223.53 1707.42 2226.32 1707.42 Q2230.82 1707.42 2233.45 1705.05 Q2236.08 1702.68 2236.08 1698.61 Q2236.08 1694.55 2233.45 1692.18 Q2230.82 1689.81 2226.32 1689.81 Q2224.21 1689.81 2222.1 1690.28 Q2220.02 1690.75 2217.83 1691.74 L2217.83 1672.21 Z" fill="#000000" fill-rule="nonzero" fill-opacity="1" /><path clip-path="url(#clip310)" d="M2251.71 1704.47 L2257.2 1704.47 L2257.2 1711.09 L2251.71 1711.09 L2251.71 1704.47 Z" fill="#000000" fill-rule="nonzero" fill-opacity="1" /><path clip-path="url(#clip310)" d="M2279.91 1675.67 Q2275.85 1675.67 2273.79 1679.68 Q2271.76 1683.67 2271.76 1691.69 Q2271.76 1699.68 2273.79 1703.69 Q2275.85 1707.68 2279.91 1707.68 Q2284 1707.68 2286.03 1703.69 Q2288.09 1699.68 2288.09 1691.69 Q2288.09 1683.67 2286.03 1679.68 Q2284 1675.67 2279.91 1675.67 M2279.91 1671.51 Q2286.45 1671.51 2289.89 1676.69 Q2293.35 1681.84 2293.35 1691.69 Q2293.35 1701.51 2289.89 1706.69 Q2286.45 1711.84 2279.91 1711.84 Q2273.38 1711.84 2269.91 1706.69 Q2266.47 1701.51 2266.47 1691.69 Q2266.47 1681.84 2269.91 1676.69 Q2273.38 1671.51 2279.91 1671.51 Z" fill="#000000" fill-rule="nonzero" fill-opacity="1" /><path clip-path="url(#clip310)" d="M2496.27 1706.66 L2504.87 1706.66 L2504.87 1677 L2495.52 1678.88 L2495.52 1674.08 L2504.82 1672.21 L2510.08 1672.21 L2510.08 1706.66 L2518.67 1706.66 L2518.67 1711.09 L2496.27 1711.09 L2496.27 1706.66 Z" fill="#000000" fill-rule="nonzero" fill-opacity="1" /><path clip-path="url(#clip310)" d="M2527.97 1672.21 L2552.97 1672.21 L2552.97 1674.45 L2538.85 1711.09 L2533.36 1711.09 L2546.64 1676.64 L2527.97 1676.64 L2527.97 1672.21 Z" fill="#000000" fill-rule="nonzero" fill-opacity="1" /><path clip-path="url(#clip310)" d="M2563.23 1704.47 L2568.72 1704.47 L2568.72 1711.09 L2563.23 1711.09 L2563.23 1704.47 Z" fill="#000000" fill-rule="nonzero" fill-opacity="1" /><path clip-path="url(#clip310)" d="M2580.23 1672.21 L2600.88 1672.21 L2600.88 1676.64 L2585.05 1676.64 L2585.05 1686.17 Q2586.19 1685.78 2587.34 1685.59 Q2588.49 1685.39 2589.63 1685.39 Q2596.14 1685.39 2599.94 1688.95 Q2603.75 1692.52 2603.75 1698.61 Q2603.75 1704.89 2599.84 1708.38 Q2595.93 1711.84 2588.83 1711.84 Q2586.38 1711.84 2583.83 1711.43 Q2581.3 1711.01 2578.59 1710.18 L2578.59 1704.89 Q2580.93 1706.17 2583.43 1706.79 Q2585.93 1707.42 2588.72 1707.42 Q2593.23 1707.42 2595.86 1705.05 Q2598.49 1702.68 2598.49 1698.61 Q2598.49 1694.55 2595.86 1692.18 Q2593.23 1689.81 2588.72 1689.81 Q2586.61 1689.81 2584.5 1690.28 Q2582.42 1690.75 2580.23 1691.74 L2580.23 1672.21 Z" fill="#000000" fill-rule="nonzero" fill-opacity="1" /><path clip-path="url(#clip310)" d="M990.016 1750.47 L990.016 1756.17 Q986.689 1754.58 983.737 1753.79 Q980.786 1753.01 978.037 1753.01 Q973.263 1753.01 970.659 1754.86 Q968.084 1756.72 968.084 1760.13 Q968.084 1763 969.791 1764.47 Q971.527 1765.92 976.33 1766.81 L979.86 1767.54 Q986.399 1768.78 989.495 1771.94 Q992.62 1775.06 992.62 1780.33 Q992.62 1786.61 988.396 1789.85 Q984.2 1793.09 976.07 1793.09 Q973.003 1793.09 969.53 1792.39 Q966.087 1791.7 962.383 1790.34 L962.383 1784.32 Q965.942 1786.32 969.357 1787.33 Q972.771 1788.34 976.07 1788.34 Q981.075 1788.34 983.795 1786.37 Q986.515 1784.41 986.515 1780.76 Q986.515 1777.58 984.548 1775.78 Q982.609 1773.99 978.153 1773.09 L974.594 1772.4 Q968.055 1771.1 965.132 1768.32 Q962.21 1765.54 962.21 1760.59 Q962.21 1754.86 966.232 1751.57 Q970.283 1748.27 977.372 1748.27 Q980.41 1748.27 983.564 1748.82 Q986.718 1749.37 990.016 1750.47 Z" fill="#000000" fill-rule="nonzero" fill-opacity="1" /><path clip-path="url(#clip310)" d="M1006.77 1750.64 L1006.77 1759.84 L1017.74 1759.84 L1017.74 1763.98 L1006.77 1763.98 L1006.77 1781.57 Q1006.77 1785.54 1007.84 1786.66 Q1008.94 1787.79 1012.27 1787.79 L1017.74 1787.79 L1017.74 1792.25 L1012.27 1792.25 Q1006.1 1792.25 1003.76 1789.96 Q1001.42 1787.65 1001.42 1781.57 L1001.42 1763.98 L997.511 1763.98 L997.511 1759.84 L1001.42 1759.84 L1001.42 1750.64 L1006.77 1750.64 Z" fill="#000000" fill-rule="nonzero" fill-opacity="1" /><path clip-path="url(#clip310)" d="M1039.47 1775.96 Q1033.01 1775.96 1030.53 1777.43 Q1028.04 1778.91 1028.04 1782.47 Q1028.04 1785.3 1029.89 1786.98 Q1031.77 1788.63 1034.98 1788.63 Q1039.41 1788.63 1042.07 1785.51 Q1044.76 1782.35 1044.76 1777.14 L1044.76 1775.96 L1039.47 1775.96 M1050.09 1773.76 L1050.09 1792.25 L1044.76 1792.25 L1044.76 1787.33 Q1042.94 1790.28 1040.22 1791.7 Q1037.5 1793.09 1033.56 1793.09 Q1028.59 1793.09 1025.64 1790.31 Q1022.71 1787.5 1022.71 1782.82 Q1022.71 1777.35 1026.36 1774.57 Q1030.03 1771.79 1037.3 1771.79 L1044.76 1771.79 L1044.76 1771.27 Q1044.76 1767.6 1042.33 1765.6 Q1039.93 1763.57 1035.56 1763.57 Q1032.78 1763.57 1030.15 1764.24 Q1027.52 1764.91 1025.09 1766.24 L1025.09 1761.32 Q1028.01 1760.19 1030.76 1759.64 Q1033.51 1759.06 1036.11 1759.06 Q1043.14 1759.06 1046.61 1762.71 Q1050.09 1766.35 1050.09 1773.76 Z" fill="#000000" fill-rule="nonzero" fill-opacity="1" /><path clip-path="url(#clip310)" d="M1066.32 1750.64 L1066.32 1759.84 L1077.28 1759.84 L1077.28 1763.98 L1066.32 1763.98 L1066.32 1781.57 Q1066.32 1785.54 1067.39 1786.66 Q1068.49 1787.79 1071.82 1787.79 L1077.28 1787.79 L1077.28 1792.25 L1071.82 1792.25 Q1065.65 1792.25 1063.31 1789.96 Q1060.97 1787.65 1060.97 1781.57 L1060.97 1763.98 L1057.06 1763.98 L1057.06 1759.84 L1060.97 1759.84 L1060.97 1750.64 L1066.32 1750.64 Z" fill="#000000" fill-rule="nonzero" fill-opacity="1" /><path clip-path="url(#clip310)" d="M1112.01 1774.71 L1112.01 1777.32 L1087.53 1777.32 Q1087.87 1782.82 1090.83 1785.71 Q1093.81 1788.57 1099.1 1788.57 Q1102.17 1788.57 1105.03 1787.82 Q1107.93 1787.07 1110.76 1785.56 L1110.76 1790.6 Q1107.9 1791.81 1104.89 1792.45 Q1101.88 1793.09 1098.78 1793.09 Q1091.03 1793.09 1086.49 1788.57 Q1081.97 1784.06 1081.97 1776.36 Q1081.97 1768.41 1086.25 1763.75 Q1090.57 1759.06 1097.86 1759.06 Q1104.4 1759.06 1108.19 1763.28 Q1112.01 1767.48 1112.01 1774.71 M1106.68 1773.15 Q1106.62 1768.78 1104.22 1766.18 Q1101.85 1763.57 1097.92 1763.57 Q1093.46 1763.57 1090.77 1766.09 Q1088.11 1768.61 1087.7 1773.18 L1106.68 1773.15 Z" fill="#000000" fill-rule="nonzero" fill-opacity="1" /><path clip-path="url(#clip310)" d="M1158.36 1764.82 Q1157.46 1764.3 1156.39 1764.07 Q1155.35 1763.81 1154.08 1763.81 Q1149.56 1763.81 1147.13 1766.76 Q1144.73 1769.68 1144.73 1775.18 L1144.73 1792.25 L1139.38 1792.25 L1139.38 1759.84 L1144.73 1759.84 L1144.73 1764.88 Q1146.41 1761.92 1149.1 1760.51 Q1151.79 1759.06 1155.64 1759.06 Q1156.19 1759.06 1156.86 1759.15 Q1157.52 1759.2 1158.33 1759.35 L1158.36 1764.82 Z" fill="#000000" fill-rule="nonzero" fill-opacity="1" /><path clip-path="url(#clip310)" d="M1178.67 1775.96 Q1172.22 1775.96 1169.73 1777.43 Q1167.24 1778.91 1167.24 1782.47 Q1167.24 1785.3 1169.1 1786.98 Q1170.98 1788.63 1174.19 1788.63 Q1178.61 1788.63 1181.28 1785.51 Q1183.97 1782.35 1183.97 1777.14 L1183.97 1775.96 L1178.67 1775.96 M1189.29 1773.76 L1189.29 1792.25 L1183.97 1792.25 L1183.97 1787.33 Q1182.14 1790.28 1179.43 1791.7 Q1176.71 1793.09 1172.77 1793.09 Q1167.79 1793.09 1164.84 1790.31 Q1161.92 1787.5 1161.92 1782.82 Q1161.92 1777.35 1165.57 1774.57 Q1169.24 1771.79 1176.5 1771.79 L1183.97 1771.79 L1183.97 1771.27 Q1183.97 1767.6 1181.54 1765.6 Q1179.14 1763.57 1174.77 1763.57 Q1171.99 1763.57 1169.36 1764.24 Q1166.72 1764.91 1164.29 1766.24 L1164.29 1761.32 Q1167.21 1760.19 1169.96 1759.64 Q1172.71 1759.06 1175.32 1759.06 Q1182.35 1759.06 1185.82 1762.71 Q1189.29 1766.35 1189.29 1773.76 Z" fill="#000000" fill-rule="nonzero" fill-opacity="1" /><path clip-path="url(#clip310)" d="M1227.2 1772.69 L1227.2 1792.25 L1221.87 1792.25 L1221.87 1772.86 Q1221.87 1768.26 1220.08 1765.98 Q1218.28 1763.69 1214.7 1763.69 Q1210.39 1763.69 1207.9 1766.44 Q1205.41 1769.19 1205.41 1773.93 L1205.41 1792.25 L1200.06 1792.25 L1200.06 1759.84 L1205.41 1759.84 L1205.41 1764.88 Q1207.32 1761.95 1209.89 1760.51 Q1212.5 1759.06 1215.88 1759.06 Q1221.47 1759.06 1224.33 1762.53 Q1227.2 1765.98 1227.2 1772.69 Z" fill="#000000" fill-rule="nonzero" fill-opacity="1" /><path clip-path="url(#clip310)" d="M1237.61 1747.23 L1242.97 1747.23 L1242.97 1773.82 L1258.85 1759.84 L1265.65 1759.84 L1248.46 1775 L1266.37 1792.25 L1259.43 1792.25 L1242.97 1776.42 L1242.97 1792.25 L1237.61 1792.25 L1237.61 1747.23 Z" fill="#000000" fill-rule="nonzero" fill-opacity="1" /><path clip-path="url(#clip310)" d="M1303.53 1763.57 Q1299.24 1763.57 1296.76 1766.93 Q1294.27 1770.26 1294.27 1776.07 Q1294.27 1781.89 1296.73 1785.25 Q1299.22 1788.57 1303.53 1788.57 Q1307.78 1788.57 1310.27 1785.22 Q1312.76 1781.86 1312.76 1776.07 Q1312.76 1770.32 1310.27 1766.96 Q1307.78 1763.57 1303.53 1763.57 M1303.53 1759.06 Q1310.47 1759.06 1314.44 1763.57 Q1318.4 1768.09 1318.4 1776.07 Q1318.4 1784.03 1314.44 1788.57 Q1310.47 1793.09 1303.53 1793.09 Q1296.55 1793.09 1292.59 1788.57 Q1288.65 1784.03 1288.65 1776.07 Q1288.65 1768.09 1292.59 1763.57 Q1296.55 1759.06 1303.53 1759.06 Z" fill="#000000" fill-rule="nonzero" fill-opacity="1" /><path clip-path="url(#clip310)" d="M1346 1764.82 Q1345.11 1764.3 1344.04 1764.07 Q1342.99 1763.81 1341.72 1763.81 Q1337.21 1763.81 1334.78 1766.76 Q1332.38 1769.68 1332.38 1775.18 L1332.38 1792.25 L1327.02 1792.25 L1327.02 1759.84 L1332.38 1759.84 L1332.38 1764.88 Q1334.05 1761.92 1336.74 1760.51 Q1339.44 1759.06 1343.28 1759.06 Q1343.83 1759.06 1344.5 1759.15 Q1345.16 1759.2 1345.98 1759.35 L1346 1764.82 Z" fill="#000000" fill-rule="nonzero" fill-opacity="1" /><path clip-path="url(#clip310)" d="M1371.87 1764.76 L1371.87 1747.23 L1377.2 1747.23 L1377.2 1792.25 L1371.87 1792.25 L1371.87 1787.39 Q1370.19 1790.28 1367.62 1791.7 Q1365.07 1793.09 1361.48 1793.09 Q1355.61 1793.09 1351.91 1788.4 Q1348.23 1783.71 1348.23 1776.07 Q1348.23 1768.44 1351.91 1763.75 Q1355.61 1759.06 1361.48 1759.06 Q1365.07 1759.06 1367.62 1760.48 Q1370.19 1761.87 1371.87 1764.76 M1353.73 1776.07 Q1353.73 1781.95 1356.13 1785.3 Q1358.56 1788.63 1362.79 1788.63 Q1367.01 1788.63 1369.44 1785.3 Q1371.87 1781.95 1371.87 1776.07 Q1371.87 1770.2 1369.44 1766.87 Q1367.01 1763.52 1362.79 1763.52 Q1358.56 1763.52 1356.13 1766.87 Q1353.73 1770.2 1353.73 1776.07 Z" fill="#000000" fill-rule="nonzero" fill-opacity="1" /><path clip-path="url(#clip310)" d="M1415.88 1774.71 L1415.88 1777.32 L1391.4 1777.32 Q1391.75 1782.82 1394.7 1785.71 Q1397.68 1788.57 1402.98 1788.57 Q1406.04 1788.57 1408.91 1787.82 Q1411.8 1787.07 1414.64 1785.56 L1414.64 1790.6 Q1411.77 1791.81 1408.76 1792.45 Q1405.75 1793.09 1402.66 1793.09 Q1394.9 1793.09 1390.36 1788.57 Q1385.85 1784.06 1385.85 1776.36 Q1385.85 1768.41 1390.13 1763.75 Q1394.44 1759.06 1401.73 1759.06 Q1408.27 1759.06 1412.06 1763.28 Q1415.88 1767.48 1415.88 1774.71 M1410.56 1773.15 Q1410.5 1768.78 1408.1 1766.18 Q1405.73 1763.57 1401.79 1763.57 Q1397.33 1763.57 1394.64 1766.09 Q1391.98 1768.61 1391.58 1773.18 L1410.56 1773.15 Z" fill="#000000" fill-rule="nonzero" fill-opacity="1" /><path clip-path="url(#clip310)" d="M1443.4 1764.82 Q1442.5 1764.3 1441.43 1764.07 Q1440.39 1763.81 1439.12 1763.81 Q1434.6 1763.81 1432.17 1766.76 Q1429.77 1769.68 1429.77 1775.18 L1429.77 1792.25 L1424.42 1792.25 L1424.42 1759.84 L1429.77 1759.84 L1429.77 1764.88 Q1431.45 1761.92 1434.14 1760.51 Q1436.83 1759.06 1440.68 1759.06 Q1441.23 1759.06 1441.89 1759.15 Q1442.56 1759.2 1443.37 1759.35 L1443.4 1764.82 Z" fill="#000000" fill-rule="nonzero" fill-opacity="1" /><path clip-path="url(#clip310)" d="M1475.4 1774.71 L1475.4 1777.32 L1450.92 1777.32 Q1451.27 1782.82 1454.22 1785.71 Q1457.2 1788.57 1462.5 1788.57 Q1465.56 1788.57 1468.43 1787.82 Q1471.32 1787.07 1474.16 1785.56 L1474.16 1790.6 Q1471.29 1791.81 1468.28 1792.45 Q1465.27 1793.09 1462.18 1793.09 Q1454.42 1793.09 1449.88 1788.57 Q1445.37 1784.06 1445.37 1776.36 Q1445.37 1768.41 1449.65 1763.75 Q1453.96 1759.06 1461.25 1759.06 Q1467.79 1759.06 1471.58 1763.28 Q1475.4 1767.48 1475.4 1774.71 M1470.08 1773.15 Q1470.02 1768.78 1467.62 1766.18 Q1465.25 1763.57 1461.31 1763.57 Q1456.85 1763.57 1454.16 1766.09 Q1451.5 1768.61 1451.1 1773.18 L1470.08 1773.15 Z" fill="#000000" fill-rule="nonzero" fill-opacity="1" /><path clip-path="url(#clip310)" d="M1505.46 1764.76 L1505.46 1747.23 L1510.79 1747.23 L1510.79 1792.25 L1505.46 1792.25 L1505.46 1787.39 Q1503.79 1790.28 1501.21 1791.7 Q1498.67 1793.09 1495.08 1793.09 Q1489.2 1793.09 1485.5 1788.4 Q1481.83 1783.71 1481.83 1776.07 Q1481.83 1768.44 1485.5 1763.75 Q1489.2 1759.06 1495.08 1759.06 Q1498.67 1759.06 1501.21 1760.48 Q1503.79 1761.87 1505.46 1764.76 M1487.32 1776.07 Q1487.32 1781.95 1489.72 1785.3 Q1492.15 1788.63 1496.38 1788.63 Q1500.6 1788.63 1503.03 1785.3 Q1505.46 1781.95 1505.46 1776.07 Q1505.46 1770.2 1503.03 1766.87 Q1500.6 1763.52 1496.38 1763.52 Q1492.15 1763.52 1489.72 1766.87 Q1487.32 1770.2 1487.32 1776.07 Z" fill="#000000" fill-rule="nonzero" fill-opacity="1" /><path clip-path="url(#clip310)" d="M1563.86 1776.07 Q1563.86 1770.2 1561.43 1766.87 Q1559.02 1763.52 1554.8 1763.52 Q1550.57 1763.52 1548.14 1766.87 Q1545.74 1770.2 1545.74 1776.07 Q1545.74 1781.95 1548.14 1785.3 Q1550.57 1788.63 1554.8 1788.63 Q1559.02 1788.63 1561.43 1785.3 Q1563.86 1781.95 1563.86 1776.07 M1545.74 1764.76 Q1547.42 1761.87 1549.97 1760.48 Q1552.54 1759.06 1556.1 1759.06 Q1562 1759.06 1565.68 1763.75 Q1569.38 1768.44 1569.38 1776.07 Q1569.38 1783.71 1565.68 1788.4 Q1562 1793.09 1556.1 1793.09 Q1552.54 1793.09 1549.97 1791.7 Q1547.42 1790.28 1545.74 1787.39 L1545.74 1792.25 L1540.39 1792.25 L1540.39 1747.23 L1545.74 1747.23 L1545.74 1764.76 Z" fill="#000000" fill-rule="nonzero" fill-opacity="1" /><path clip-path="url(#clip310)" d="M1591.69 1795.26 Q1589.43 1801.04 1587.29 1802.81 Q1585.15 1804.57 1581.56 1804.57 L1577.31 1804.57 L1577.31 1800.12 L1580.44 1800.12 Q1582.63 1800.12 1583.85 1799.08 Q1585.07 1798.04 1586.54 1794.16 L1587.5 1791.73 L1574.39 1759.84 L1580.03 1759.84 L1590.16 1785.19 L1600.29 1759.84 L1605.93 1759.84 L1591.69 1795.26 Z" fill="#000000" fill-rule="nonzero" fill-opacity="1" /><path clip-path="url(#clip310)" d="M1652.77 1760.8 L1652.77 1765.83 Q1650.52 1764.67 1648.09 1764.09 Q1645.66 1763.52 1643.05 1763.52 Q1639.09 1763.52 1637.09 1764.73 Q1635.12 1765.95 1635.12 1768.38 Q1635.12 1770.23 1636.54 1771.3 Q1637.96 1772.34 1642.24 1773.3 L1644.06 1773.7 Q1649.74 1774.92 1652.11 1777.14 Q1654.51 1779.34 1654.51 1783.31 Q1654.51 1787.82 1650.92 1790.45 Q1647.36 1793.09 1641.11 1793.09 Q1638.51 1793.09 1635.67 1792.57 Q1632.87 1792.08 1629.74 1791.06 L1629.74 1785.56 Q1632.69 1787.1 1635.56 1787.88 Q1638.42 1788.63 1641.23 1788.63 Q1644.99 1788.63 1647.02 1787.36 Q1649.04 1786.06 1649.04 1783.71 Q1649.04 1781.54 1647.56 1780.39 Q1646.12 1779.23 1641.17 1778.16 L1639.32 1777.72 Q1634.37 1776.68 1632.17 1774.54 Q1629.97 1772.37 1629.97 1768.61 Q1629.97 1764.04 1633.21 1761.55 Q1636.45 1759.06 1642.41 1759.06 Q1645.37 1759.06 1647.97 1759.49 Q1650.57 1759.93 1652.77 1760.8 Z" fill="#000000" fill-rule="nonzero" fill-opacity="1" /><path clip-path="url(#clip310)" d="M1662.99 1759.84 L1668.31 1759.84 L1668.31 1792.25 L1662.99 1792.25 L1662.99 1759.84 M1662.99 1747.23 L1668.31 1747.23 L1668.31 1753.97 L1662.99 1753.97 L1662.99 1747.23 Z" fill="#000000" fill-rule="nonzero" fill-opacity="1" /><path clip-path="url(#clip310)" d="M1700.78 1775.67 Q1700.78 1769.88 1698.37 1766.7 Q1696 1763.52 1691.69 1763.52 Q1687.41 1763.52 1685.01 1766.7 Q1682.63 1769.88 1682.63 1775.67 Q1682.63 1781.43 1685.01 1784.61 Q1687.41 1787.79 1691.69 1787.79 Q1696 1787.79 1698.37 1784.61 Q1700.78 1781.43 1700.78 1775.67 M1706.1 1788.23 Q1706.1 1796.5 1702.43 1800.52 Q1698.75 1804.57 1691.17 1804.57 Q1688.36 1804.57 1685.87 1804.14 Q1683.39 1803.74 1681.04 1802.87 L1681.04 1797.69 Q1683.39 1798.96 1685.67 1799.57 Q1687.96 1800.18 1690.33 1800.18 Q1695.57 1800.18 1698.17 1797.43 Q1700.78 1794.71 1700.78 1789.18 L1700.78 1786.55 Q1699.13 1789.41 1696.55 1790.83 Q1693.98 1792.25 1690.39 1792.25 Q1684.43 1792.25 1680.78 1787.71 Q1677.14 1783.16 1677.14 1775.67 Q1677.14 1768.15 1680.78 1763.6 Q1684.43 1759.06 1690.39 1759.06 Q1693.98 1759.06 1696.55 1760.48 Q1699.13 1761.9 1700.78 1764.76 L1700.78 1759.84 L1706.1 1759.84 L1706.1 1788.23 Z" fill="#000000" fill-rule="nonzero" fill-opacity="1" /><path clip-path="url(#clip310)" d="M1742.3 1766.06 Q1744.29 1762.47 1747.07 1760.77 Q1749.85 1759.06 1753.61 1759.06 Q1758.68 1759.06 1761.42 1762.62 Q1764.17 1766.15 1764.17 1772.69 L1764.17 1792.25 L1758.82 1792.25 L1758.82 1772.86 Q1758.82 1768.2 1757.17 1765.95 Q1755.52 1763.69 1752.14 1763.69 Q1748 1763.69 1745.6 1766.44 Q1743.2 1769.19 1743.2 1773.93 L1743.2 1792.25 L1737.84 1792.25 L1737.84 1772.86 Q1737.84 1768.17 1736.19 1765.95 Q1734.54 1763.69 1731.1 1763.69 Q1727.02 1763.69 1724.62 1766.47 Q1722.22 1769.22 1722.22 1773.93 L1722.22 1792.25 L1716.86 1792.25 L1716.86 1759.84 L1722.22 1759.84 L1722.22 1764.88 Q1724.04 1761.9 1726.59 1760.48 Q1729.13 1759.06 1732.63 1759.06 Q1736.16 1759.06 1738.62 1760.85 Q1741.11 1762.65 1742.3 1766.06 Z" fill="#000000" fill-rule="nonzero" fill-opacity="1" /><path clip-path="url(#clip310)" d="M1789.52 1775.96 Q1783.07 1775.96 1780.58 1777.43 Q1778.09 1778.91 1778.09 1782.47 Q1778.09 1785.3 1779.94 1786.98 Q1781.82 1788.63 1785.04 1788.63 Q1789.46 1788.63 1792.12 1785.51 Q1794.82 1782.35 1794.82 1777.14 L1794.82 1775.96 L1789.52 1775.96 M1800.14 1773.76 L1800.14 1792.25 L1794.82 1792.25 L1794.82 1787.33 Q1792.99 1790.28 1790.27 1791.7 Q1787.55 1793.09 1783.62 1793.09 Q1778.64 1793.09 1775.69 1790.31 Q1772.77 1787.5 1772.77 1782.82 Q1772.77 1777.35 1776.41 1774.57 Q1780.09 1771.79 1787.35 1771.79 L1794.82 1771.79 L1794.82 1771.27 Q1794.82 1767.6 1792.38 1765.6 Q1789.98 1763.57 1785.61 1763.57 Q1782.84 1763.57 1780.2 1764.24 Q1777.57 1764.91 1775.14 1766.24 L1775.14 1761.32 Q1778.06 1760.19 1780.81 1759.64 Q1783.56 1759.06 1786.16 1759.06 Q1793.19 1759.06 1796.67 1762.71 Q1800.14 1766.35 1800.14 1773.76 Z" fill="#000000" fill-rule="nonzero" fill-opacity="1" /><path clip-path="url(#clip310)" d="M1835.73 1802.09 L1835.73 1806.22 L1804.94 1806.22 L1804.94 1802.09 L1835.73 1802.09 Z" fill="#000000" fill-rule="nonzero" fill-opacity="1" /><path clip-path="url(#clip310)" d="M1868.45 1774.71 L1868.45 1777.32 L1843.98 1777.32 Q1844.32 1782.82 1847.27 1785.71 Q1850.25 1788.57 1855.55 1788.57 Q1858.62 1788.57 1861.48 1787.82 Q1864.38 1787.07 1867.21 1785.56 L1867.21 1790.6 Q1864.35 1791.81 1861.34 1792.45 Q1858.33 1793.09 1855.23 1793.09 Q1847.48 1793.09 1842.93 1788.57 Q1838.42 1784.06 1838.42 1776.36 Q1838.42 1768.41 1842.7 1763.75 Q1847.01 1759.06 1854.31 1759.06 Q1860.84 1759.06 1864.64 1763.28 Q1868.45 1767.48 1868.45 1774.71 M1863.13 1773.15 Q1863.07 1768.78 1860.67 1766.18 Q1858.3 1763.57 1854.36 1763.57 Q1849.91 1763.57 1847.22 1766.09 Q1844.55 1768.61 1844.15 1773.18 L1863.13 1773.15 Z" fill="#000000" fill-rule="nonzero" fill-opacity="1" /><path clip-path="url(#clip310)" d="M1880.38 1776.07 Q1880.38 1781.95 1882.78 1785.3 Q1885.21 1788.63 1889.43 1788.63 Q1893.66 1788.63 1896.09 1785.3 Q1898.52 1781.95 1898.52 1776.07 Q1898.52 1770.2 1896.09 1766.87 Q1893.66 1763.52 1889.43 1763.52 Q1885.21 1763.52 1882.78 1766.87 Q1880.38 1770.2 1880.38 1776.07 M1898.52 1787.39 Q1896.84 1790.28 1894.26 1791.7 Q1891.72 1793.09 1888.13 1793.09 Q1882.26 1793.09 1878.55 1788.4 Q1874.88 1783.71 1874.88 1776.07 Q1874.88 1768.44 1878.55 1763.75 Q1882.26 1759.06 1888.13 1759.06 Q1891.72 1759.06 1894.26 1760.48 Q1896.84 1761.87 1898.52 1764.76 L1898.52 1759.84 L1903.84 1759.84 L1903.84 1804.57 L1898.52 1804.57 L1898.52 1787.39 Z" fill="#000000" fill-rule="nonzero" fill-opacity="1" /><path clip-path="url(#clip310)" d="M1914.26 1779.46 L1914.26 1759.84 L1919.58 1759.84 L1919.58 1779.26 Q1919.58 1783.86 1921.38 1786.17 Q1923.17 1788.46 1926.76 1788.46 Q1931.07 1788.46 1933.56 1785.71 Q1936.08 1782.96 1936.08 1778.22 L1936.08 1759.84 L1941.4 1759.84 L1941.4 1792.25 L1936.08 1792.25 L1936.08 1787.27 Q1934.14 1790.22 1931.56 1791.67 Q1929.02 1793.09 1925.63 1793.09 Q1920.05 1793.09 1917.15 1789.62 Q1914.26 1786.14 1914.26 1779.46 M1927.66 1759.06 L1927.66 1759.06 Z" fill="#000000" fill-rule="nonzero" fill-opacity="1" /><path clip-path="url(#clip310)" d="M1952.37 1759.84 L1957.69 1759.84 L1957.69 1792.25 L1952.37 1792.25 L1952.37 1759.84 M1952.37 1747.23 L1957.69 1747.23 L1957.69 1753.97 L1952.37 1753.97 L1952.37 1747.23 Z" fill="#000000" fill-rule="nonzero" fill-opacity="1" /><path clip-path="url(#clip310)" d="M1965.01 1759.84 L1970.65 1759.84 L1980.78 1787.04 L1990.91 1759.84 L1996.55 1759.84 L1984.4 1792.25 L1977.16 1792.25 L1965.01 1759.84 Z" fill="#000000" fill-rule="nonzero" fill-opacity="1" /><path clip-path="url(#clip310)" d="M2018.63 1775.96 Q2012.18 1775.96 2009.69 1777.43 Q2007.2 1778.91 2007.2 1782.47 Q2007.2 1785.3 2009.05 1786.98 Q2010.93 1788.63 2014.14 1788.63 Q2018.57 1788.63 2021.23 1785.51 Q2023.92 1782.35 2023.92 1777.14 L2023.92 1775.96 L2018.63 1775.96 M2029.25 1773.76 L2029.25 1792.25 L2023.92 1792.25 L2023.92 1787.33 Q2022.1 1790.28 2019.38 1791.7 Q2016.66 1793.09 2012.72 1793.09 Q2007.75 1793.09 2004.8 1790.31 Q2001.87 1787.5 2001.87 1782.82 Q2001.87 1777.35 2005.52 1774.57 Q2009.19 1771.79 2016.46 1771.79 L2023.92 1771.79 L2023.92 1771.27 Q2023.92 1767.6 2021.49 1765.6 Q2019.09 1763.57 2014.72 1763.57 Q2011.94 1763.57 2009.31 1764.24 Q2006.68 1764.91 2004.25 1766.24 L2004.25 1761.32 Q2007.17 1760.19 2009.92 1759.64 Q2012.67 1759.06 2015.27 1759.06 Q2022.3 1759.06 2025.77 1762.71 Q2029.25 1766.35 2029.25 1773.76 Z" fill="#000000" fill-rule="nonzero" fill-opacity="1" /><path clip-path="url(#clip310)" d="M2040.21 1747.23 L2045.54 1747.23 L2045.54 1792.25 L2040.21 1792.25 L2040.21 1747.23 Z" fill="#000000" fill-rule="nonzero" fill-opacity="1" /><path clip-path="url(#clip310)" d="M2084.4 1774.71 L2084.4 1777.32 L2059.92 1777.32 Q2060.27 1782.82 2063.22 1785.71 Q2066.2 1788.57 2071.49 1788.57 Q2074.56 1788.57 2077.42 1787.82 Q2080.32 1787.07 2083.15 1785.56 L2083.15 1790.6 Q2080.29 1791.81 2077.28 1792.45 Q2074.27 1793.09 2071.17 1793.09 Q2063.42 1793.09 2058.88 1788.57 Q2054.36 1784.06 2054.36 1776.36 Q2054.36 1768.41 2058.64 1763.75 Q2062.96 1759.06 2070.25 1759.06 Q2076.79 1759.06 2080.58 1763.28 Q2084.4 1767.48 2084.4 1774.71 M2079.07 1773.15 Q2079.02 1768.78 2076.61 1766.18 Q2074.24 1763.57 2070.31 1763.57 Q2065.85 1763.57 2063.16 1766.09 Q2060.5 1768.61 2060.09 1773.18 L2079.07 1773.15 Z" fill="#000000" fill-rule="nonzero" fill-opacity="1" /><path clip-path="url(#clip310)" d="M2120.07 1772.69 L2120.07 1792.25 L2114.75 1792.25 L2114.75 1772.86 Q2114.75 1768.26 2112.96 1765.98 Q2111.16 1763.69 2107.57 1763.69 Q2103.26 1763.69 2100.77 1766.44 Q2098.29 1769.19 2098.29 1773.93 L2098.29 1792.25 L2092.93 1792.25 L2092.93 1759.84 L2098.29 1759.84 L2098.29 1764.88 Q2100.2 1761.95 2102.77 1760.51 Q2105.37 1759.06 2108.76 1759.06 Q2114.34 1759.06 2117.21 1762.53 Q2120.07 1765.98 2120.07 1772.69 Z" fill="#000000" fill-rule="nonzero" fill-opacity="1" /><path clip-path="url(#clip310)" d="M2135.96 1750.64 L2135.96 1759.84 L2146.93 1759.84 L2146.93 1763.98 L2135.96 1763.98 L2135.96 1781.57 Q2135.96 1785.54 2137.03 1786.66 Q2138.13 1787.79 2141.46 1787.79 L2146.93 1787.79 L2146.93 1792.25 L2141.46 1792.25 Q2135.29 1792.25 2132.95 1789.96 Q2130.61 1787.65 2130.61 1781.57 L2130.61 1763.98 L2126.7 1763.98 L2126.7 1759.84 L2130.61 1759.84 L2130.61 1750.64 L2135.96 1750.64 Z" fill="#000000" fill-rule="nonzero" fill-opacity="1" /><polyline clip-path="url(#clip310)" style="stroke:#000000; stroke-linecap:round; stroke-linejoin:round; stroke-width:4; stroke-opacity:1; fill:none" points="435.12,1640.09 435.12,125.984 "/>
<polyline clip-path="url(#clip310)" style="stroke:#000000; stroke-linecap:round; stroke-linejoin:round; stroke-width:4; stroke-opacity:1; fill:none" points="435.12,1584.01 454.017,1584.01 "/>
<polyline clip-path="url(#clip310)" style="stroke:#000000; stroke-linecap:round; stroke-linejoin:round; stroke-width:4; stroke-opacity:1; fill:none" points="435.12,1303.62 454.017,1303.62 "/>
<polyline clip-path="url(#clip310)" style="stroke:#000000; stroke-linecap:round; stroke-linejoin:round; stroke-width:4; stroke-opacity:1; fill:none" points="435.12,1023.23 454.017,1023.23 "/>
<polyline clip-path="url(#clip310)" style="stroke:#000000; stroke-linecap:round; stroke-linejoin:round; stroke-width:4; stroke-opacity:1; fill:none" points="435.12,742.842 454.017,742.842 "/>
<polyline clip-path="url(#clip310)" style="stroke:#000000; stroke-linecap:round; stroke-linejoin:round; stroke-width:4; stroke-opacity:1; fill:none" points="435.12,462.452 454.017,462.452 "/>
<polyline clip-path="url(#clip310)" style="stroke:#000000; stroke-linecap:round; stroke-linejoin:round; stroke-width:4; stroke-opacity:1; fill:none" points="435.12,182.062 454.017,182.062 "/>
<path clip-path="url(#clip310)" d="M329.917 1568.03 Q325.854 1568.03 323.797 1572.04 Q321.766 1576.03 321.766 1584.05 Q321.766 1592.04 323.797 1596.05 Q325.854 1600.04 329.917 1600.04 Q334.005 1600.04 336.037 1596.05 Q338.094 1592.04 338.094 1584.05 Q338.094 1576.03 336.037 1572.04 Q334.005 1568.03 329.917 1568.03 M329.917 1563.87 Q336.453 1563.87 339.891 1569.05 Q343.354 1574.21 343.354 1584.05 Q343.354 1593.87 339.891 1599.05 Q336.453 1604.21 329.917 1604.21 Q323.38 1604.21 319.917 1599.05 Q316.479 1593.87 316.479 1584.05 Q316.479 1574.21 319.917 1569.05 Q323.38 1563.87 329.917 1563.87 Z" fill="#000000" fill-rule="nonzero" fill-opacity="1" /><path clip-path="url(#clip310)" d="M352.599 1596.84 L358.094 1596.84 L358.094 1603.45 L352.599 1603.45 L352.599 1596.84 Z" fill="#000000" fill-rule="nonzero" fill-opacity="1" /><path clip-path="url(#clip310)" d="M369.604 1564.57 L390.255 1564.57 L390.255 1569 L374.422 1569 L374.422 1578.53 Q375.568 1578.14 376.713 1577.96 Q377.859 1577.75 379.005 1577.75 Q385.516 1577.75 389.318 1581.32 Q393.12 1584.88 393.12 1590.98 Q393.12 1597.25 389.213 1600.74 Q385.307 1604.21 378.198 1604.21 Q375.75 1604.21 373.198 1603.79 Q370.672 1603.37 367.964 1602.54 L367.964 1597.25 Q370.307 1598.53 372.807 1599.15 Q375.307 1599.78 378.094 1599.78 Q382.599 1599.78 385.229 1597.41 Q387.859 1595.04 387.859 1590.98 Q387.859 1586.91 385.229 1584.54 Q382.599 1582.17 378.094 1582.17 Q375.984 1582.17 373.875 1582.64 Q371.792 1583.11 369.604 1584.1 L369.604 1564.57 Z" fill="#000000" fill-rule="nonzero" fill-opacity="1" /><path clip-path="url(#clip310)" d="M318.459 1318.63 L327.052 1318.63 L327.052 1288.97 L317.703 1290.85 L317.703 1286.06 L327 1284.18 L332.261 1284.18 L332.261 1318.63 L340.854 1318.63 L340.854 1323.06 L318.459 1323.06 L318.459 1318.63 Z" fill="#000000" fill-rule="nonzero" fill-opacity="1" /><path clip-path="url(#clip310)" d="M351.479 1316.45 L356.974 1316.45 L356.974 1323.06 L351.479 1323.06 L351.479 1316.45 Z" fill="#000000" fill-rule="nonzero" fill-opacity="1" /><path clip-path="url(#clip310)" d="M379.682 1287.64 Q375.62 1287.64 373.562 1291.65 Q371.531 1295.64 371.531 1303.66 Q371.531 1311.65 373.562 1315.67 Q375.62 1319.65 379.682 1319.65 Q383.771 1319.65 385.802 1315.67 Q387.859 1311.65 387.859 1303.66 Q387.859 1295.64 385.802 1291.65 Q383.771 1287.64 379.682 1287.64 M379.682 1283.48 Q386.219 1283.48 389.656 1288.66 Q393.12 1293.82 393.12 1303.66 Q393.12 1313.48 389.656 1318.66 Q386.219 1323.82 379.682 1323.82 Q373.146 1323.82 369.682 1318.66 Q366.245 1313.48 366.245 1303.66 Q366.245 1293.82 369.682 1288.66 Q373.146 1283.48 379.682 1283.48 Z" fill="#000000" fill-rule="nonzero" fill-opacity="1" /><path clip-path="url(#clip310)" d="M319.578 1038.24 L328.172 1038.24 L328.172 1008.58 L318.823 1010.46 L318.823 1005.67 L328.12 1003.79 L333.38 1003.79 L333.38 1038.24 L341.974 1038.24 L341.974 1042.67 L319.578 1042.67 L319.578 1038.24 Z" fill="#000000" fill-rule="nonzero" fill-opacity="1" /><path clip-path="url(#clip310)" d="M352.599 1036.06 L358.094 1036.06 L358.094 1042.67 L352.599 1042.67 L352.599 1036.06 Z" fill="#000000" fill-rule="nonzero" fill-opacity="1" /><path clip-path="url(#clip310)" d="M369.604 1003.79 L390.255 1003.79 L390.255 1008.22 L374.422 1008.22 L374.422 1017.75 Q375.568 1017.36 376.713 1017.18 Q377.859 1016.97 379.005 1016.97 Q385.516 1016.97 389.318 1020.54 Q393.12 1024.1 393.12 1030.2 Q393.12 1036.47 389.213 1039.96 Q385.307 1043.43 378.198 1043.43 Q375.75 1043.43 373.198 1043.01 Q370.672 1042.59 367.964 1041.76 L367.964 1036.47 Q370.307 1037.75 372.807 1038.37 Q375.307 1039 378.094 1039 Q382.599 1039 385.229 1036.63 Q387.859 1034.26 387.859 1030.2 Q387.859 1026.13 385.229 1023.77 Q382.599 1021.4 378.094 1021.4 Q375.984 1021.4 373.875 1021.86 Q371.792 1022.33 369.604 1023.32 L369.604 1003.79 Z" fill="#000000" fill-rule="nonzero" fill-opacity="1" /><path clip-path="url(#clip310)" d="M322.078 757.855 L340.438 757.855 L340.438 762.282 L315.75 762.282 L315.75 757.855 Q318.745 754.756 323.901 749.547 Q329.084 744.313 330.412 742.803 Q332.938 739.964 333.927 738.011 Q334.943 736.032 334.943 734.131 Q334.943 731.032 332.755 729.079 Q330.594 727.126 327.104 727.126 Q324.63 727.126 321.87 727.985 Q319.136 728.844 316.011 730.589 L316.011 725.277 Q319.188 724.001 321.948 723.35 Q324.709 722.698 327 722.698 Q333.042 722.698 336.636 725.719 Q340.229 728.74 340.229 733.792 Q340.229 736.188 339.318 738.349 Q338.432 740.485 336.063 743.401 Q335.412 744.157 331.922 747.776 Q328.433 751.37 322.078 757.855 Z" fill="#000000" fill-rule="nonzero" fill-opacity="1" /><path clip-path="url(#clip310)" d="M351.479 755.667 L356.974 755.667 L356.974 762.282 L351.479 762.282 L351.479 755.667 Z" fill="#000000" fill-rule="nonzero" fill-opacity="1" /><path clip-path="url(#clip310)" d="M379.682 726.865 Q375.62 726.865 373.562 730.876 Q371.531 734.86 371.531 742.881 Q371.531 750.875 373.562 754.886 Q375.62 758.87 379.682 758.87 Q383.771 758.87 385.802 754.886 Q387.859 750.875 387.859 742.881 Q387.859 734.86 385.802 730.876 Q383.771 726.865 379.682 726.865 M379.682 722.698 Q386.219 722.698 389.656 727.881 Q393.12 733.037 393.12 742.881 Q393.12 752.698 389.656 757.881 Q386.219 763.037 379.682 763.037 Q373.146 763.037 369.682 757.881 Q366.245 752.698 366.245 742.881 Q366.245 733.037 369.682 727.881 Q373.146 722.698 379.682 722.698 Z" fill="#000000" fill-rule="nonzero" fill-opacity="1" /><path clip-path="url(#clip310)" d="M323.198 477.465 L341.557 477.465 L341.557 481.892 L316.87 481.892 L316.87 477.465 Q319.865 474.366 325.021 469.158 Q330.203 463.923 331.531 462.413 Q334.057 459.574 335.047 457.621 Q336.063 455.642 336.063 453.741 Q336.063 450.642 333.875 448.689 Q331.714 446.736 328.224 446.736 Q325.75 446.736 322.99 447.595 Q320.255 448.455 317.13 450.199 L317.13 444.887 Q320.308 443.611 323.068 442.96 Q325.828 442.309 328.12 442.309 Q334.162 442.309 337.755 445.33 Q341.349 448.35 341.349 453.402 Q341.349 455.798 340.438 457.96 Q339.552 460.095 337.182 463.012 Q336.531 463.767 333.042 467.387 Q329.552 470.98 323.198 477.465 Z" fill="#000000" fill-rule="nonzero" fill-opacity="1" /><path clip-path="url(#clip310)" d="M352.599 475.277 L358.094 475.277 L358.094 481.892 L352.599 481.892 L352.599 475.277 Z" fill="#000000" fill-rule="nonzero" fill-opacity="1" /><path clip-path="url(#clip310)" d="M369.604 443.012 L390.255 443.012 L390.255 447.439 L374.422 447.439 L374.422 456.97 Q375.568 456.58 376.713 456.397 Q377.859 456.189 379.005 456.189 Q385.516 456.189 389.318 459.757 Q393.12 463.324 393.12 469.418 Q393.12 475.694 389.213 479.184 Q385.307 482.647 378.198 482.647 Q375.75 482.647 373.198 482.23 Q370.672 481.814 367.964 480.98 L367.964 475.694 Q370.307 476.97 372.807 477.595 Q375.307 478.22 378.094 478.22 Q382.599 478.22 385.229 475.85 Q387.859 473.48 387.859 469.418 Q387.859 465.356 385.229 462.986 Q382.599 460.616 378.094 460.616 Q375.984 460.616 373.875 461.085 Q371.792 461.553 369.604 462.543 L369.604 443.012 Z" fill="#000000" fill-rule="nonzero" fill-opacity="1" /><path clip-path="url(#clip310)" d="M333.485 180.539 Q337.261 181.346 339.37 183.898 Q341.505 186.45 341.505 190.2 Q341.505 195.955 337.547 199.106 Q333.589 202.257 326.297 202.257 Q323.849 202.257 321.245 201.763 Q318.667 201.294 315.907 200.33 L315.907 195.252 Q318.094 196.528 320.698 197.179 Q323.302 197.83 326.141 197.83 Q331.089 197.83 333.667 195.877 Q336.271 193.924 336.271 190.2 Q336.271 186.763 333.849 184.836 Q331.453 182.883 327.156 182.883 L322.625 182.883 L322.625 178.56 L327.365 178.56 Q331.245 178.56 333.302 177.023 Q335.36 175.461 335.36 172.544 Q335.36 169.549 333.224 167.961 Q331.115 166.346 327.156 166.346 Q324.995 166.346 322.521 166.815 Q320.047 167.284 317.078 168.273 L317.078 163.586 Q320.073 162.752 322.677 162.336 Q325.308 161.919 327.625 161.919 Q333.615 161.919 337.104 164.653 Q340.594 167.362 340.594 171.997 Q340.594 175.226 338.745 177.466 Q336.896 179.679 333.485 180.539 Z" fill="#000000" fill-rule="nonzero" fill-opacity="1" /><path clip-path="url(#clip310)" d="M351.479 194.888 L356.974 194.888 L356.974 201.502 L351.479 201.502 L351.479 194.888 Z" fill="#000000" fill-rule="nonzero" fill-opacity="1" /><path clip-path="url(#clip310)" d="M379.682 166.086 Q375.62 166.086 373.562 170.096 Q371.531 174.08 371.531 182.101 Q371.531 190.096 373.562 194.106 Q375.62 198.091 379.682 198.091 Q383.771 198.091 385.802 194.106 Q387.859 190.096 387.859 182.101 Q387.859 174.08 385.802 170.096 Q383.771 166.086 379.682 166.086 M379.682 161.919 Q386.219 161.919 389.656 167.101 Q393.12 172.258 393.12 182.101 Q393.12 191.919 389.656 197.101 Q386.219 202.257 379.682 202.257 Q373.146 202.257 369.682 197.101 Q366.245 191.919 366.245 182.101 Q366.245 172.258 369.682 167.101 Q373.146 161.919 379.682 161.919 Z" fill="#000000" fill-rule="nonzero" fill-opacity="1" /><path clip-path="url(#clip310)" d="M217.59 1267.16 L217.59 1242.34 L222.509 1242.34 L222.509 1261.32 L235.241 1261.32 L235.241 1244.19 L240.16 1244.19 L240.16 1261.32 L260.79 1261.32 L260.79 1267.16 L217.59 1267.16 Z" fill="#000000" fill-rule="nonzero" fill-opacity="1" /><path clip-path="url(#clip310)" d="M228.383 1237.62 L228.383 1232.3 L260.79 1232.3 L260.79 1237.62 L228.383 1237.62 M215.767 1237.62 L215.767 1232.3 L222.509 1232.3 L222.509 1237.62 L215.767 1237.62 Z" fill="#000000" fill-rule="nonzero" fill-opacity="1" /><path clip-path="url(#clip310)" d="M219.182 1215.89 L228.383 1215.89 L228.383 1204.92 L232.521 1204.92 L232.521 1215.89 L250.113 1215.89 Q254.077 1215.89 255.206 1214.82 Q256.334 1213.72 256.334 1210.39 L256.334 1204.92 L260.79 1204.92 L260.79 1210.39 Q260.79 1216.56 258.504 1218.9 Q256.19 1221.24 250.113 1221.24 L232.521 1221.24 L232.521 1225.15 L228.383 1225.15 L228.383 1221.24 L219.182 1221.24 L219.182 1215.89 Z" fill="#000000" fill-rule="nonzero" fill-opacity="1" /><path clip-path="url(#clip310)" d="M219.182 1192.66 L228.383 1192.66 L228.383 1181.69 L232.521 1181.69 L232.521 1192.66 L250.113 1192.66 Q254.077 1192.66 255.206 1191.59 Q256.334 1190.49 256.334 1187.16 L256.334 1181.69 L260.79 1181.69 L260.79 1187.16 Q260.79 1193.32 258.504 1195.66 Q256.19 1198.01 250.113 1198.01 L232.521 1198.01 L232.521 1201.91 L228.383 1201.91 L228.383 1198.01 L219.182 1198.01 L219.182 1192.66 Z" fill="#000000" fill-rule="nonzero" fill-opacity="1" /><path clip-path="url(#clip310)" d="M243.256 1146.97 L245.86 1146.97 L245.86 1171.45 Q251.357 1171.1 254.251 1168.15 Q257.116 1165.17 257.116 1159.87 Q257.116 1156.81 256.363 1153.94 Q255.611 1151.05 254.106 1148.21 L259.141 1148.21 Q260.356 1151.08 260.993 1154.09 Q261.629 1157.09 261.629 1160.19 Q261.629 1167.95 257.116 1172.49 Q252.602 1177 244.905 1177 Q236.948 1177 232.289 1172.72 Q227.602 1168.41 227.602 1161.12 Q227.602 1154.58 231.826 1150.79 Q236.022 1146.97 243.256 1146.97 M241.693 1152.29 Q237.324 1152.35 234.72 1154.75 Q232.116 1157.12 232.116 1161.06 Q232.116 1165.51 234.633 1168.21 Q237.15 1170.87 241.722 1171.27 L241.693 1152.29 Z" fill="#000000" fill-rule="nonzero" fill-opacity="1" /><path clip-path="url(#clip310)" d="M233.302 1116.9 L215.767 1116.9 L215.767 1111.58 L260.79 1111.58 L260.79 1116.9 L255.929 1116.9 Q258.823 1118.58 260.241 1121.16 Q261.629 1123.7 261.629 1127.29 Q261.629 1133.17 256.942 1136.87 Q252.254 1140.54 244.616 1140.54 Q236.977 1140.54 232.289 1136.87 Q227.602 1133.17 227.602 1127.29 Q227.602 1123.7 229.02 1121.16 Q230.408 1118.58 233.302 1116.9 M244.616 1135.05 Q250.489 1135.05 253.846 1132.64 Q257.173 1130.21 257.173 1125.99 Q257.173 1121.76 253.846 1119.33 Q250.489 1116.9 244.616 1116.9 Q238.742 1116.9 235.414 1119.33 Q232.058 1121.76 232.058 1125.99 Q232.058 1130.21 235.414 1132.64 Q238.742 1135.05 244.616 1135.05 Z" fill="#000000" fill-rule="nonzero" fill-opacity="1" /><path clip-path="url(#clip310)" d="M229.338 1061.12 L234.373 1061.12 Q233.215 1063.37 232.636 1065.8 Q232.058 1068.24 232.058 1070.84 Q232.058 1074.8 233.273 1076.8 Q234.488 1078.77 236.919 1078.77 Q238.771 1078.77 239.841 1077.35 Q240.883 1075.93 241.838 1071.65 L242.243 1069.83 Q243.458 1064.16 245.686 1061.78 Q247.885 1059.38 251.849 1059.38 Q256.363 1059.38 258.996 1062.97 Q261.629 1066.53 261.629 1072.78 Q261.629 1075.38 261.109 1078.22 Q260.617 1081.02 259.604 1084.15 L254.106 1084.15 Q255.64 1081.2 256.421 1078.33 Q257.173 1075.47 257.173 1072.66 Q257.173 1068.9 255.9 1066.88 Q254.598 1064.85 252.254 1064.85 Q250.084 1064.85 248.927 1066.33 Q247.77 1067.77 246.699 1072.72 L246.265 1074.57 Q245.223 1079.52 243.082 1081.72 Q240.912 1083.92 237.15 1083.92 Q232.579 1083.92 230.09 1080.68 Q227.602 1077.44 227.602 1071.48 Q227.602 1068.52 228.036 1065.92 Q228.47 1063.32 229.338 1061.12 Z" fill="#000000" fill-rule="nonzero" fill-opacity="1" /><path clip-path="url(#clip310)" d="M241.23 1023.96 L260.79 1023.96 L260.79 1029.29 L241.404 1029.29 Q236.803 1029.29 234.517 1031.08 Q232.231 1032.88 232.231 1036.46 Q232.231 1040.78 234.98 1043.26 Q237.729 1045.75 242.474 1045.75 L260.79 1045.75 L260.79 1051.11 L215.767 1051.11 L215.767 1045.75 L233.418 1045.75 Q230.495 1043.84 229.049 1041.27 Q227.602 1038.66 227.602 1035.28 Q227.602 1029.69 231.074 1026.83 Q234.517 1023.96 241.23 1023.96 Z" fill="#000000" fill-rule="nonzero" fill-opacity="1" /><path clip-path="url(#clip310)" d="M244.5 998.617 Q244.5 1005.07 245.976 1007.56 Q247.451 1010.05 251.01 1010.05 Q253.846 1010.05 255.524 1008.19 Q257.173 1006.31 257.173 1003.1 Q257.173 998.675 254.048 996.013 Q250.895 993.322 245.686 993.322 L244.5 993.322 L244.5 998.617 M242.301 987.998 L260.79 987.998 L260.79 993.322 L255.871 993.322 Q258.823 995.145 260.241 997.865 Q261.629 1000.59 261.629 1004.52 Q261.629 1009.5 258.852 1012.45 Q256.045 1015.37 251.357 1015.37 Q245.889 1015.37 243.111 1011.72 Q240.333 1008.05 240.333 1000.79 L240.333 993.322 L239.812 993.322 Q236.138 993.322 234.141 995.753 Q232.116 998.154 232.116 1002.52 Q232.116 1005.3 232.781 1007.93 Q233.447 1010.57 234.778 1013 L229.859 1013 Q228.73 1010.08 228.181 1007.33 Q227.602 1004.58 227.602 1001.97 Q227.602 994.943 231.248 991.47 Q234.893 987.998 242.301 987.998 Z" fill="#000000" fill-rule="nonzero" fill-opacity="1" /><path clip-path="url(#clip310)" d="M255.929 971.881 L273.117 971.881 L273.117 977.234 L228.383 977.234 L228.383 971.881 L233.302 971.881 Q230.408 970.203 229.02 967.657 Q227.602 965.082 227.602 961.523 Q227.602 955.62 232.289 951.945 Q236.977 948.242 244.616 948.242 Q252.254 948.242 256.942 951.945 Q261.629 955.62 261.629 961.523 Q261.629 965.082 260.241 967.657 Q258.823 970.203 255.929 971.881 M244.616 953.768 Q238.742 953.768 235.414 956.199 Q232.058 958.6 232.058 962.825 Q232.058 967.049 235.414 969.48 Q238.742 971.881 244.616 971.881 Q250.489 971.881 253.846 969.48 Q257.173 967.049 257.173 962.825 Q257.173 958.6 253.846 956.199 Q250.489 953.768 244.616 953.768 Z" fill="#000000" fill-rule="nonzero" fill-opacity="1" /><path clip-path="url(#clip310)" d="M243.256 911.697 L245.86 911.697 L245.86 936.176 Q251.357 935.828 254.251 932.877 Q257.116 929.897 257.116 924.602 Q257.116 921.535 256.363 918.67 Q255.611 915.776 254.106 912.941 L259.141 912.941 Q260.356 915.805 260.993 918.815 Q261.629 921.824 261.629 924.92 Q261.629 932.674 257.116 937.217 Q252.602 941.731 244.905 941.731 Q236.948 941.731 232.289 937.449 Q227.602 933.137 227.602 925.846 Q227.602 919.307 231.826 915.516 Q236.022 911.697 243.256 911.697 M241.693 917.021 Q237.324 917.079 234.72 919.48 Q232.116 921.853 232.116 925.788 Q232.116 930.244 234.633 932.935 Q237.15 935.597 241.722 936.002 L241.693 917.021 Z" fill="#000000" fill-rule="nonzero" fill-opacity="1" /><path clip-path="url(#clip310)" d="M255.929 878.971 L273.117 878.971 L273.117 884.324 L228.383 884.324 L228.383 878.971 L233.302 878.971 Q230.408 877.293 229.02 874.747 Q227.602 872.171 227.602 868.612 Q227.602 862.71 232.289 859.035 Q236.977 855.331 244.616 855.331 Q252.254 855.331 256.942 859.035 Q261.629 862.71 261.629 868.612 Q261.629 872.171 260.241 874.747 Q258.823 877.293 255.929 878.971 M244.616 860.858 Q238.742 860.858 235.414 863.288 Q232.058 865.69 232.058 869.914 Q232.058 874.139 235.414 876.569 Q238.742 878.971 244.616 878.971 Q250.489 878.971 253.846 876.569 Q257.173 874.139 257.173 869.914 Q257.173 865.69 253.846 863.288 Q250.489 860.858 244.616 860.858 Z" fill="#000000" fill-rule="nonzero" fill-opacity="1" /><path clip-path="url(#clip310)" d="M244.5 831.778 Q244.5 838.231 245.976 840.719 Q247.451 843.207 251.01 843.207 Q253.846 843.207 255.524 841.356 Q257.173 839.475 257.173 836.263 Q257.173 831.836 254.048 829.174 Q250.895 826.483 245.686 826.483 L244.5 826.483 L244.5 831.778 M242.301 821.159 L260.79 821.159 L260.79 826.483 L255.871 826.483 Q258.823 828.306 260.241 831.026 Q261.629 833.746 261.629 837.681 Q261.629 842.658 258.852 845.609 Q256.045 848.531 251.357 848.531 Q245.889 848.531 243.111 844.886 Q240.333 841.211 240.333 833.948 L240.333 826.483 L239.812 826.483 Q236.138 826.483 234.141 828.913 Q232.116 831.315 232.116 835.684 Q232.116 838.462 232.781 841.095 Q233.447 843.728 234.778 846.159 L229.859 846.159 Q228.73 843.236 228.181 840.487 Q227.602 837.739 227.602 835.135 Q227.602 828.103 231.248 824.631 Q234.893 821.159 242.301 821.159 Z" fill="#000000" fill-rule="nonzero" fill-opacity="1" /><path clip-path="url(#clip310)" d="M233.36 791.414 Q232.839 792.311 232.608 793.381 Q232.347 794.423 232.347 795.696 Q232.347 800.21 235.299 802.64 Q238.221 805.042 243.719 805.042 L260.79 805.042 L260.79 810.395 L228.383 810.395 L228.383 805.042 L233.418 805.042 Q230.466 803.364 229.049 800.673 Q227.602 797.982 227.602 794.134 Q227.602 793.584 227.689 792.918 Q227.746 792.253 227.891 791.443 L233.36 791.414 Z" fill="#000000" fill-rule="nonzero" fill-opacity="1" /><path clip-path="url(#clip310)" d="M244.5 771.101 Q244.5 777.554 245.976 780.042 Q247.451 782.531 251.01 782.531 Q253.846 782.531 255.524 780.679 Q257.173 778.798 257.173 775.586 Q257.173 771.159 254.048 768.497 Q250.895 765.806 245.686 765.806 L244.5 765.806 L244.5 771.101 M242.301 760.482 L260.79 760.482 L260.79 765.806 L255.871 765.806 Q258.823 767.629 260.241 770.349 Q261.629 773.069 261.629 777.004 Q261.629 781.981 258.852 784.932 Q256.045 787.855 251.357 787.855 Q245.889 787.855 243.111 784.209 Q240.333 780.534 240.333 773.271 L240.333 765.806 L239.812 765.806 Q236.138 765.806 234.141 768.237 Q232.116 770.638 232.116 775.008 Q232.116 777.785 232.781 780.418 Q233.447 783.051 234.778 785.482 L229.859 785.482 Q228.73 782.56 228.181 779.811 Q227.602 777.062 227.602 774.458 Q227.602 767.427 231.248 763.954 Q234.893 760.482 242.301 760.482 Z" fill="#000000" fill-rule="nonzero" fill-opacity="1" /><path clip-path="url(#clip310)" d="M234.604 724.284 Q231.016 722.288 229.309 719.51 Q227.602 716.732 227.602 712.971 Q227.602 707.907 231.161 705.158 Q234.691 702.41 241.23 702.41 L260.79 702.41 L260.79 707.763 L241.404 707.763 Q236.745 707.763 234.488 709.412 Q232.231 711.061 232.231 714.446 Q232.231 718.584 234.98 720.986 Q237.729 723.387 242.474 723.387 L260.79 723.387 L260.79 728.74 L241.404 728.74 Q236.716 728.74 234.488 730.39 Q232.231 732.039 232.231 735.482 Q232.231 739.562 235.009 741.964 Q237.758 744.365 242.474 744.365 L260.79 744.365 L260.79 749.718 L228.383 749.718 L228.383 744.365 L233.418 744.365 Q230.437 742.542 229.02 739.996 Q227.602 737.45 227.602 733.949 Q227.602 730.419 229.396 727.959 Q231.19 725.471 234.604 724.284 Z" fill="#000000" fill-rule="nonzero" fill-opacity="1" /><path clip-path="url(#clip310)" d="M243.256 664.071 L245.86 664.071 L245.86 688.55 Q251.357 688.202 254.251 685.251 Q257.116 682.271 257.116 676.976 Q257.116 673.909 256.363 671.044 Q255.611 668.15 254.106 665.315 L259.141 665.315 Q260.356 668.179 260.993 671.189 Q261.629 674.198 261.629 677.294 Q261.629 685.049 257.116 689.591 Q252.602 694.105 244.905 694.105 Q236.948 694.105 232.289 689.823 Q227.602 685.511 227.602 678.22 Q227.602 671.681 231.826 667.89 Q236.022 664.071 243.256 664.071 M241.693 669.395 Q237.324 669.453 234.72 671.854 Q232.116 674.227 232.116 678.162 Q232.116 682.618 234.633 685.309 Q237.15 687.971 241.722 688.376 L241.693 669.395 Z" fill="#000000" fill-rule="nonzero" fill-opacity="1" /><path clip-path="url(#clip310)" d="M219.182 650.066 L228.383 650.066 L228.383 639.1 L232.521 639.1 L232.521 650.066 L250.113 650.066 Q254.077 650.066 255.206 648.995 Q256.334 647.896 256.334 644.568 L256.334 639.1 L260.79 639.1 L260.79 644.568 Q260.79 650.732 258.504 653.075 Q256.19 655.419 250.113 655.419 L232.521 655.419 L232.521 659.325 L228.383 659.325 L228.383 655.419 L219.182 655.419 L219.182 650.066 Z" fill="#000000" fill-rule="nonzero" fill-opacity="1" /><path clip-path="url(#clip310)" d="M243.256 604.378 L245.86 604.378 L245.86 628.857 Q251.357 628.509 254.251 625.558 Q257.116 622.578 257.116 617.283 Q257.116 614.216 256.363 611.351 Q255.611 608.457 254.106 605.622 L259.141 605.622 Q260.356 608.486 260.993 611.496 Q261.629 614.505 261.629 617.601 Q261.629 625.356 257.116 629.898 Q252.602 634.412 244.905 634.412 Q236.948 634.412 232.289 630.13 Q227.602 625.818 227.602 618.527 Q227.602 611.988 231.826 608.197 Q236.022 604.378 243.256 604.378 M241.693 609.702 Q237.324 609.76 234.72 612.161 Q232.116 614.534 232.116 618.469 Q232.116 622.925 234.633 625.616 Q237.15 628.278 241.722 628.683 L241.693 609.702 Z" fill="#000000" fill-rule="nonzero" fill-opacity="1" /><path clip-path="url(#clip310)" d="M233.36 576.86 Q232.839 577.757 232.608 578.828 Q232.347 579.87 232.347 581.143 Q232.347 585.657 235.299 588.087 Q238.221 590.489 243.719 590.489 L260.79 590.489 L260.79 595.842 L228.383 595.842 L228.383 590.489 L233.418 590.489 Q230.466 588.811 229.049 586.12 Q227.602 583.429 227.602 579.58 Q227.602 579.031 227.689 578.365 Q227.746 577.7 227.891 576.889 L233.36 576.86 Z" fill="#000000" fill-rule="nonzero" fill-opacity="1" /><path clip-path="url(#clip310)" d="M255.929 547.289 L273.117 547.289 L273.117 552.642 L228.383 552.642 L228.383 547.289 L233.302 547.289 Q230.408 545.611 229.02 543.064 Q227.602 540.489 227.602 536.93 Q227.602 531.027 232.289 527.353 Q236.977 523.649 244.616 523.649 Q252.254 523.649 256.942 527.353 Q261.629 531.027 261.629 536.93 Q261.629 540.489 260.241 543.064 Q258.823 545.611 255.929 547.289 M244.616 529.175 Q238.742 529.175 235.414 531.606 Q232.058 534.008 232.058 538.232 Q232.058 542.457 235.414 544.887 Q238.742 547.289 244.616 547.289 Q250.489 547.289 253.846 544.887 Q257.173 542.457 257.173 538.232 Q257.173 534.008 253.846 531.606 Q250.489 529.175 244.616 529.175 Z" fill="#000000" fill-rule="nonzero" fill-opacity="1" /><path clip-path="url(#clip310)" d="M235.588 517.023 L235.588 513.637 L250.46 513.637 L242.648 503.626 L242.648 499.343 L251.126 510.194 L260.79 498.909 L260.79 503.279 L251.936 513.637 L260.79 513.637 L260.79 517.023 L235.588 517.023 Z" fill="#000000" fill-rule="nonzero" fill-opacity="1" /><circle clip-path="url(#clip311)" cx="497.311" cy="182.062" r="25.2" fill="#0071b1" fill-rule="evenodd" fill-opacity="1" stroke="#000000" stroke-opacity="1" stroke-width="4"/>
<circle clip-path="url(#clip311)" cx="621.694" cy="182.062" r="25.2" fill="#0071b1" fill-rule="evenodd" fill-opacity="1" stroke="#000000" stroke-opacity="1" stroke-width="4"/>
<circle clip-path="url(#clip311)" cx="746.077" cy="182.062" r="25.2" fill="#0071b1" fill-rule="evenodd" fill-opacity="1" stroke="#000000" stroke-opacity="1" stroke-width="4"/>
<circle clip-path="url(#clip311)" cx="870.461" cy="182.062" r="25.2" fill="#0071b1" fill-rule="evenodd" fill-opacity="1" stroke="#000000" stroke-opacity="1" stroke-width="4"/>
<circle clip-path="url(#clip311)" cx="994.844" cy="425.819" r="25.2" fill="#0071b1" fill-rule="evenodd" fill-opacity="1" stroke="#000000" stroke-opacity="1" stroke-width="4"/>
<circle clip-path="url(#clip311)" cx="1119.23" cy="182.062" r="25.2" fill="#0071b1" fill-rule="evenodd" fill-opacity="1" stroke="#000000" stroke-opacity="1" stroke-width="4"/>
<circle clip-path="url(#clip311)" cx="1243.61" cy="182.062" r="25.2" fill="#0071b1" fill-rule="evenodd" fill-opacity="1" stroke="#000000" stroke-opacity="1" stroke-width="4"/>
<circle clip-path="url(#clip311)" cx="1367.99" cy="1169.46" r="25.2" fill="#0071b1" fill-rule="evenodd" fill-opacity="1" stroke="#000000" stroke-opacity="1" stroke-width="4"/>
<circle clip-path="url(#clip311)" cx="1492.38" cy="182.062" r="25.2" fill="#0071b1" fill-rule="evenodd" fill-opacity="1" stroke="#000000" stroke-opacity="1" stroke-width="4"/>
<circle clip-path="url(#clip311)" cx="1616.76" cy="182.062" r="25.2" fill="#0071b1" fill-rule="evenodd" fill-opacity="1" stroke="#000000" stroke-opacity="1" stroke-width="4"/>
<circle clip-path="url(#clip311)" cx="1741.14" cy="182.062" r="25.2" fill="#0071b1" fill-rule="evenodd" fill-opacity="1" stroke="#000000" stroke-opacity="1" stroke-width="4"/>
<circle clip-path="url(#clip311)" cx="1865.53" cy="182.062" r="25.2" fill="#0071b1" fill-rule="evenodd" fill-opacity="1" stroke="#000000" stroke-opacity="1" stroke-width="4"/>
<circle clip-path="url(#clip311)" cx="1989.91" cy="1353.16" r="25.2" fill="#0071b1" fill-rule="evenodd" fill-opacity="1" stroke="#000000" stroke-opacity="1" stroke-width="4"/>
<circle clip-path="url(#clip311)" cx="2114.29" cy="182.062" r="25.2" fill="#0071b1" fill-rule="evenodd" fill-opacity="1" stroke="#000000" stroke-opacity="1" stroke-width="4"/>
<circle clip-path="url(#clip311)" cx="2238.67" cy="1380.63" r="25.2" fill="#0071b1" fill-rule="evenodd" fill-opacity="1" stroke="#000000" stroke-opacity="1" stroke-width="4"/>
<circle clip-path="url(#clip311)" cx="2363.06" cy="949.543" r="25.2" fill="#0071b1" fill-rule="evenodd" fill-opacity="1" stroke="#000000" stroke-opacity="1" stroke-width="4"/>
<circle clip-path="url(#clip311)" cx="2487.44" cy="593.632" r="25.2" fill="#0071b1" fill-rule="evenodd" fill-opacity="1" stroke="#000000" stroke-opacity="1" stroke-width="4"/>
<circle clip-path="url(#clip311)" cx="2611.82" cy="1202.23" r="25.2" fill="#0071b1" fill-rule="evenodd" fill-opacity="1" stroke="#000000" stroke-opacity="1" stroke-width="4"/>
<polyline clip-path="url(#clip311)" style="stroke:#009e73; stroke-linecap:round; stroke-linejoin:round; stroke-width:8; stroke-opacity:1; fill:none" stroke-dasharray="32, 20" points="-1803.78,742.842 4912.91,742.842 "/>
<polyline clip-path="url(#clip311)" style="stroke:#d45e00; stroke-linecap:round; stroke-linejoin:round; stroke-width:8; stroke-opacity:1; fill:none" stroke-dasharray="32, 20" points="-1803.78,1303.62 4912.91,1303.62 "/>
<path clip-path="url(#clip310)" d="M1984.2 383.814 L2599.39 383.814 L2599.39 176.454 L1984.2 176.454  Z" fill="#ffffff" fill-rule="evenodd" fill-opacity="1"/>
<polyline clip-path="url(#clip310)" style="stroke:#000000; stroke-linecap:round; stroke-linejoin:round; stroke-width:4; stroke-opacity:1; fill:none" points="1984.2,383.814 2599.39,383.814 2599.39,176.454 1984.2,176.454 1984.2,383.814 "/>
<circle clip-path="url(#clip310)" cx="2083.71" cy="228.294" r="21.504" fill="#0071b1" fill-rule="evenodd" fill-opacity="1" stroke="#000000" stroke-opacity="1" stroke-width="3.41333"/>
<path clip-path="url(#clip310)" d="M2183.22 211.014 L2203.08 211.014 L2203.08 214.95 L2187.89 214.95 L2187.89 225.135 L2201.59 225.135 L2201.59 229.07 L2187.89 229.07 L2187.89 245.574 L2183.22 245.574 L2183.22 211.014 Z" fill="#000000" fill-rule="nonzero" fill-opacity="1" /><path clip-path="url(#clip310)" d="M2206.85 219.649 L2211.11 219.649 L2211.11 245.574 L2206.85 245.574 L2206.85 219.649 M2206.85 209.556 L2211.11 209.556 L2211.11 214.95 L2206.85 214.95 L2206.85 209.556 Z" fill="#000000" fill-rule="nonzero" fill-opacity="1" /><path clip-path="url(#clip310)" d="M2224.23 212.288 L2224.23 219.649 L2233.01 219.649 L2233.01 222.959 L2224.23 222.959 L2224.23 237.033 Q2224.23 240.204 2225.09 241.107 Q2225.97 242.01 2228.63 242.01 L2233.01 242.01 L2233.01 245.574 L2228.63 245.574 Q2223.7 245.574 2221.83 243.746 Q2219.95 241.894 2219.95 237.033 L2219.95 222.959 L2216.83 222.959 L2216.83 219.649 L2219.95 219.649 L2219.95 212.288 L2224.23 212.288 Z" fill="#000000" fill-rule="nonzero" fill-opacity="1" /><path clip-path="url(#clip310)" d="M2242.82 212.288 L2242.82 219.649 L2251.59 219.649 L2251.59 222.959 L2242.82 222.959 L2242.82 237.033 Q2242.82 240.204 2243.68 241.107 Q2244.56 242.01 2247.22 242.01 L2251.59 242.01 L2251.59 245.574 L2247.22 245.574 Q2242.29 245.574 2240.41 243.746 Q2238.54 241.894 2238.54 237.033 L2238.54 222.959 L2235.41 222.959 L2235.41 219.649 L2238.54 219.649 L2238.54 212.288 L2242.82 212.288 Z" fill="#000000" fill-rule="nonzero" fill-opacity="1" /><path clip-path="url(#clip310)" d="M2279.37 231.547 L2279.37 233.63 L2259.79 233.63 Q2260.07 238.028 2262.43 240.343 Q2264.81 242.635 2269.05 242.635 Q2271.5 242.635 2273.79 242.033 Q2276.11 241.431 2278.38 240.227 L2278.38 244.255 Q2276.08 245.227 2273.68 245.736 Q2271.27 246.246 2268.79 246.246 Q2262.59 246.246 2258.96 242.635 Q2255.34 239.024 2255.34 232.866 Q2255.34 226.5 2258.77 222.774 Q2262.22 219.024 2268.05 219.024 Q2273.28 219.024 2276.32 222.403 Q2279.37 225.76 2279.37 231.547 M2275.11 230.297 Q2275.07 226.801 2273.15 224.718 Q2271.25 222.635 2268.1 222.635 Q2264.53 222.635 2262.38 224.649 Q2260.25 226.662 2259.93 230.32 L2275.11 230.297 Z" fill="#000000" fill-rule="nonzero" fill-opacity="1" /><path clip-path="url(#clip310)" d="M2303.42 223.584 L2303.42 209.556 L2307.68 209.556 L2307.68 245.574 L2303.42 245.574 L2303.42 241.686 Q2302.08 244 2300.02 245.135 Q2297.98 246.246 2295.11 246.246 Q2290.41 246.246 2287.45 242.496 Q2284.51 238.746 2284.51 232.635 Q2284.51 226.524 2287.45 222.774 Q2290.41 219.024 2295.11 219.024 Q2297.98 219.024 2300.02 220.158 Q2302.08 221.269 2303.42 223.584 M2288.91 232.635 Q2288.91 237.334 2290.83 240.019 Q2292.77 242.681 2296.15 242.681 Q2299.53 242.681 2301.48 240.019 Q2303.42 237.334 2303.42 232.635 Q2303.42 227.936 2301.48 225.274 Q2299.53 222.588 2296.15 222.588 Q2292.77 222.588 2290.83 225.274 Q2288.91 227.936 2288.91 232.635 Z" fill="#000000" fill-rule="nonzero" fill-opacity="1" /><path clip-path="url(#clip310)" d="M2335.64 241.686 L2335.64 255.435 L2331.36 255.435 L2331.36 219.649 L2335.64 219.649 L2335.64 223.584 Q2336.99 221.269 2339.02 220.158 Q2341.08 219.024 2343.93 219.024 Q2348.65 219.024 2351.59 222.774 Q2354.56 226.524 2354.56 232.635 Q2354.56 238.746 2351.59 242.496 Q2348.65 246.246 2343.93 246.246 Q2341.08 246.246 2339.02 245.135 Q2336.99 244 2335.64 241.686 M2350.14 232.635 Q2350.14 227.936 2348.19 225.274 Q2346.27 222.588 2342.89 222.588 Q2339.51 222.588 2337.57 225.274 Q2335.64 227.936 2335.64 232.635 Q2335.64 237.334 2337.57 240.019 Q2339.51 242.681 2342.89 242.681 Q2346.27 242.681 2348.19 240.019 Q2350.14 237.334 2350.14 232.635 Z" fill="#000000" fill-rule="nonzero" fill-opacity="1" /><path clip-path="url(#clip310)" d="M2359.86 225.412 L2362.57 225.412 L2362.57 237.311 L2370.58 231.061 L2374 231.061 L2365.32 237.843 L2374.35 245.574 L2370.85 245.574 L2362.57 238.491 L2362.57 245.574 L2359.86 245.574 L2359.86 225.412 Z" fill="#000000" fill-rule="nonzero" fill-opacity="1" /><polyline clip-path="url(#clip310)" style="stroke:#009e73; stroke-linecap:round; stroke-linejoin:round; stroke-width:8; stroke-opacity:1; fill:none" stroke-dasharray="32, 20" points="2009.08,280.134 2158.34,280.134 "/>
<path clip-path="url(#clip310)" d="M2187.5 293.526 L2187.5 307.275 L2183.22 307.275 L2183.22 271.489 L2187.5 271.489 L2187.5 275.424 Q2188.84 273.109 2190.88 271.998 Q2192.94 270.864 2195.78 270.864 Q2200.51 270.864 2203.45 274.614 Q2206.41 278.364 2206.41 284.475 Q2206.41 290.586 2203.45 294.336 Q2200.51 298.086 2195.78 298.086 Q2192.94 298.086 2190.88 296.975 Q2188.84 295.84 2187.5 293.526 M2201.99 284.475 Q2201.99 279.776 2200.04 277.114 Q2198.12 274.428 2194.74 274.428 Q2191.36 274.428 2189.42 277.114 Q2187.5 279.776 2187.5 284.475 Q2187.5 289.174 2189.42 291.859 Q2191.36 294.521 2194.74 294.521 Q2198.12 294.521 2200.04 291.859 Q2201.99 289.174 2201.99 284.475 Z" fill="#000000" fill-rule="nonzero" fill-opacity="1" /><path clip-path="url(#clip310)" d="M2229.09 275.887 L2258.77 275.887 L2258.77 279.776 L2229.09 279.776 L2229.09 275.887 M2229.09 285.331 L2258.77 285.331 L2258.77 289.266 L2229.09 289.266 L2229.09 285.331 Z" fill="#000000" fill-rule="nonzero" fill-opacity="1" /><path clip-path="url(#clip310)" d="M2287.96 293.479 L2304.28 293.479 L2304.28 297.414 L2282.33 297.414 L2282.33 293.479 Q2285 290.725 2289.58 286.095 Q2294.19 281.442 2295.37 280.1 Q2297.61 277.577 2298.49 275.84 Q2299.39 274.081 2299.39 272.391 Q2299.39 269.637 2297.45 267.901 Q2295.53 266.165 2292.43 266.165 Q2290.23 266.165 2287.77 266.928 Q2285.34 267.692 2282.57 269.243 L2282.57 264.521 Q2285.39 263.387 2287.84 262.808 Q2290.3 262.229 2292.33 262.229 Q2297.71 262.229 2300.9 264.915 Q2304.09 267.6 2304.09 272.09 Q2304.09 274.22 2303.28 276.141 Q2302.5 278.04 2300.39 280.632 Q2299.81 281.303 2296.71 284.521 Q2293.61 287.715 2287.96 293.479 Z" fill="#000000" fill-rule="nonzero" fill-opacity="1" /><path clip-path="url(#clip310)" d="M2338.79 261.442 Q2335.69 266.766 2334.19 271.975 Q2332.68 277.183 2332.68 282.53 Q2332.68 287.877 2334.19 293.132 Q2335.71 298.363 2338.79 303.664 L2335.09 303.664 Q2331.62 298.225 2329.88 292.97 Q2328.17 287.715 2328.17 282.53 Q2328.17 277.368 2329.88 272.137 Q2331.59 266.905 2335.09 261.442 L2338.79 261.442 Z" fill="#000000" fill-rule="nonzero" fill-opacity="1" /><path clip-path="url(#clip310)" d="M2370.81 292.484 L2370.81 283.202 L2363.17 283.202 L2363.17 279.359 L2375.44 279.359 L2375.44 294.197 Q2372.73 296.118 2369.46 297.113 Q2366.2 298.086 2362.5 298.086 Q2354.39 298.086 2349.81 293.363 Q2345.25 288.618 2345.25 280.169 Q2345.25 271.697 2349.81 266.975 Q2354.39 262.229 2362.5 262.229 Q2365.88 262.229 2368.91 263.063 Q2371.96 263.896 2374.53 265.516 L2374.53 270.493 Q2371.94 268.294 2369.02 267.183 Q2366.11 266.072 2362.89 266.072 Q2356.55 266.072 2353.35 269.614 Q2350.18 273.155 2350.18 280.169 Q2350.18 287.16 2353.35 290.701 Q2356.55 294.243 2362.89 294.243 Q2365.37 294.243 2367.31 293.826 Q2369.26 293.387 2370.81 292.484 Z" fill="#000000" fill-rule="nonzero" fill-opacity="1" /><path clip-path="url(#clip310)" d="M2395.58 284.382 Q2390.41 284.382 2388.42 285.563 Q2386.43 286.743 2386.43 289.59 Q2386.43 291.859 2387.91 293.201 Q2389.42 294.521 2391.99 294.521 Q2395.53 294.521 2397.66 292.021 Q2399.81 289.498 2399.81 285.331 L2399.81 284.382 L2395.58 284.382 M2404.07 282.623 L2404.07 297.414 L2399.81 297.414 L2399.81 293.479 Q2398.35 295.84 2396.18 296.975 Q2394 298.086 2390.85 298.086 Q2386.87 298.086 2384.51 295.863 Q2382.17 293.618 2382.17 289.868 Q2382.17 285.493 2385.09 283.271 Q2388.03 281.049 2393.84 281.049 L2399.81 281.049 L2399.81 280.632 Q2399.81 277.692 2397.87 276.095 Q2395.95 274.475 2392.45 274.475 Q2390.23 274.475 2388.12 275.007 Q2386.01 275.54 2384.07 276.604 L2384.07 272.669 Q2386.41 271.766 2388.61 271.327 Q2390.81 270.864 2392.89 270.864 Q2398.51 270.864 2401.29 273.78 Q2404.07 276.697 2404.07 282.623 Z" fill="#000000" fill-rule="nonzero" fill-opacity="1" /><path clip-path="url(#clip310)" d="M2412.4 287.183 L2412.4 271.489 L2416.66 271.489 L2416.66 287.021 Q2416.66 290.701 2418.1 292.553 Q2419.53 294.382 2422.4 294.382 Q2425.85 294.382 2427.84 292.183 Q2429.86 289.984 2429.86 286.188 L2429.86 271.489 L2434.12 271.489 L2434.12 297.414 L2429.86 297.414 L2429.86 293.433 Q2428.31 295.794 2426.25 296.951 Q2424.21 298.086 2421.5 298.086 Q2417.03 298.086 2414.72 295.308 Q2412.4 292.53 2412.4 287.183 M2423.12 270.864 L2423.12 270.864 Z" fill="#000000" fill-rule="nonzero" fill-opacity="1" /><path clip-path="url(#clip310)" d="M2459.42 272.252 L2459.42 276.28 Q2457.61 275.354 2455.67 274.891 Q2453.72 274.428 2451.64 274.428 Q2448.47 274.428 2446.87 275.401 Q2445.3 276.373 2445.3 278.317 Q2445.3 279.799 2446.43 280.655 Q2447.57 281.489 2450.99 282.252 L2452.45 282.577 Q2456.99 283.549 2458.88 285.331 Q2460.81 287.09 2460.81 290.262 Q2460.81 293.873 2457.94 295.979 Q2455.09 298.086 2450.09 298.086 Q2448.01 298.086 2445.74 297.669 Q2443.49 297.276 2440.99 296.465 L2440.99 292.067 Q2443.35 293.294 2445.64 293.919 Q2447.94 294.521 2450.18 294.521 Q2453.19 294.521 2454.81 293.502 Q2456.43 292.461 2456.43 290.586 Q2456.43 288.85 2455.25 287.924 Q2454.09 286.998 2450.13 286.141 L2448.65 285.794 Q2444.7 284.961 2442.94 283.248 Q2441.18 281.512 2441.18 278.502 Q2441.18 274.845 2443.77 272.854 Q2446.36 270.864 2451.13 270.864 Q2453.49 270.864 2455.57 271.211 Q2457.66 271.558 2459.42 272.252 Z" fill="#000000" fill-rule="nonzero" fill-opacity="1" /><path clip-path="url(#clip310)" d="M2484.12 272.252 L2484.12 276.28 Q2482.31 275.354 2480.37 274.891 Q2478.42 274.428 2476.34 274.428 Q2473.17 274.428 2471.57 275.401 Q2470 276.373 2470 278.317 Q2470 279.799 2471.13 280.655 Q2472.26 281.489 2475.69 282.252 L2477.15 282.577 Q2481.69 283.549 2483.58 285.331 Q2485.51 287.09 2485.51 290.262 Q2485.51 293.873 2482.63 295.979 Q2479.79 298.086 2474.79 298.086 Q2472.7 298.086 2470.44 297.669 Q2468.19 297.276 2465.69 296.465 L2465.69 292.067 Q2468.05 293.294 2470.34 293.919 Q2472.63 294.521 2474.88 294.521 Q2477.89 294.521 2479.51 293.502 Q2481.13 292.461 2481.13 290.586 Q2481.13 288.85 2479.95 287.924 Q2478.79 286.998 2474.83 286.141 L2473.35 285.794 Q2469.39 284.961 2467.63 283.248 Q2465.88 281.512 2465.88 278.502 Q2465.88 274.845 2468.47 272.854 Q2471.06 270.864 2475.83 270.864 Q2478.19 270.864 2480.27 271.211 Q2482.36 271.558 2484.12 272.252 Z" fill="#000000" fill-rule="nonzero" fill-opacity="1" /><path clip-path="url(#clip310)" d="M2492.29 271.489 L2496.55 271.489 L2496.55 297.414 L2492.29 297.414 L2492.29 271.489 M2492.29 261.396 L2496.55 261.396 L2496.55 266.79 L2492.29 266.79 L2492.29 261.396 Z" fill="#000000" fill-rule="nonzero" fill-opacity="1" /><path clip-path="url(#clip310)" d="M2517.24 284.382 Q2512.08 284.382 2510.09 285.563 Q2508.1 286.743 2508.1 289.59 Q2508.1 291.859 2509.58 293.201 Q2511.08 294.521 2513.65 294.521 Q2517.19 294.521 2519.32 292.021 Q2521.48 289.498 2521.48 285.331 L2521.48 284.382 L2517.24 284.382 M2525.74 282.623 L2525.74 297.414 L2521.48 297.414 L2521.48 293.479 Q2520.02 295.84 2517.84 296.975 Q2515.67 298.086 2512.52 298.086 Q2508.54 298.086 2506.18 295.863 Q2503.84 293.618 2503.84 289.868 Q2503.84 285.493 2506.75 283.271 Q2509.69 281.049 2515.5 281.049 L2521.48 281.049 L2521.48 280.632 Q2521.48 277.692 2519.53 276.095 Q2517.61 274.475 2514.12 274.475 Q2511.89 274.475 2509.79 275.007 Q2507.68 275.54 2505.74 276.604 L2505.74 272.669 Q2508.07 271.766 2510.27 271.327 Q2512.47 270.864 2514.56 270.864 Q2520.18 270.864 2522.96 273.78 Q2525.74 276.697 2525.74 282.623 Z" fill="#000000" fill-rule="nonzero" fill-opacity="1" /><path clip-path="url(#clip310)" d="M2556.06 281.766 L2556.06 297.414 L2551.8 297.414 L2551.8 281.905 Q2551.8 278.225 2550.37 276.396 Q2548.93 274.567 2546.06 274.567 Q2542.61 274.567 2540.62 276.766 Q2538.63 278.965 2538.63 282.762 L2538.63 297.414 L2534.35 297.414 L2534.35 271.489 L2538.63 271.489 L2538.63 275.516 Q2540.16 273.178 2542.22 272.021 Q2544.3 270.864 2547.01 270.864 Q2551.48 270.864 2553.77 273.641 Q2556.06 276.396 2556.06 281.766 Z" fill="#000000" fill-rule="nonzero" fill-opacity="1" /><path clip-path="url(#clip310)" d="M2563.88 261.442 L2567.59 261.442 Q2571.06 266.905 2572.77 272.137 Q2574.51 277.368 2574.51 282.53 Q2574.51 287.715 2572.77 292.97 Q2571.06 298.225 2567.59 303.664 L2563.88 303.664 Q2566.96 298.363 2568.47 293.132 Q2570 287.877 2570 282.53 Q2570 277.183 2568.47 271.975 Q2566.96 266.766 2563.88 261.442 Z" fill="#000000" fill-rule="nonzero" fill-opacity="1" /><polyline clip-path="url(#clip310)" style="stroke:#d45e00; stroke-linecap:round; stroke-linejoin:round; stroke-width:8; stroke-opacity:1; fill:none" stroke-dasharray="32, 20" points="2009.08,331.974 2158.34,331.974 "/>
<path clip-path="url(#clip310)" d="M2187.5 345.366 L2187.5 359.115 L2183.22 359.115 L2183.22 323.329 L2187.5 323.329 L2187.5 327.264 Q2188.84 324.949 2190.88 323.838 Q2192.94 322.704 2195.78 322.704 Q2200.51 322.704 2203.45 326.454 Q2206.41 330.204 2206.41 336.315 Q2206.41 342.426 2203.45 346.176 Q2200.51 349.926 2195.78 349.926 Q2192.94 349.926 2190.88 348.815 Q2188.84 347.68 2187.5 345.366 M2201.99 336.315 Q2201.99 331.616 2200.04 328.954 Q2198.12 326.268 2194.74 326.268 Q2191.36 326.268 2189.42 328.954 Q2187.5 331.616 2187.5 336.315 Q2187.5 341.014 2189.42 343.699 Q2191.36 346.361 2194.74 346.361 Q2198.12 346.361 2200.04 343.699 Q2201.99 341.014 2201.99 336.315 Z" fill="#000000" fill-rule="nonzero" fill-opacity="1" /><path clip-path="url(#clip310)" d="M2229.09 327.727 L2258.77 327.727 L2258.77 331.616 L2229.09 331.616 L2229.09 327.727 M2229.09 337.171 L2258.77 337.171 L2258.77 341.106 L2229.09 341.106 L2229.09 337.171 Z" fill="#000000" fill-rule="nonzero" fill-opacity="1" /><path clip-path="url(#clip310)" d="M2284.74 345.319 L2292.38 345.319 L2292.38 318.954 L2284.07 320.62 L2284.07 316.361 L2292.33 314.694 L2297.01 314.694 L2297.01 345.319 L2304.65 345.319 L2304.65 349.254 L2284.74 349.254 L2284.74 345.319 Z" fill="#000000" fill-rule="nonzero" fill-opacity="1" /><path clip-path="url(#clip310)" d="M2338.79 313.282 Q2335.69 318.606 2334.19 323.815 Q2332.68 329.023 2332.68 334.37 Q2332.68 339.717 2334.19 344.972 Q2335.71 350.203 2338.79 355.504 L2335.09 355.504 Q2331.62 350.065 2329.88 344.81 Q2328.17 339.555 2328.17 334.37 Q2328.17 329.208 2329.88 323.977 Q2331.59 318.745 2335.09 313.282 L2338.79 313.282 Z" fill="#000000" fill-rule="nonzero" fill-opacity="1" /><path clip-path="url(#clip310)" d="M2347.24 314.694 L2351.92 314.694 L2351.92 345.319 L2368.75 345.319 L2368.75 349.254 L2347.24 349.254 L2347.24 314.694 Z" fill="#000000" fill-rule="nonzero" fill-opacity="1" /><path clip-path="url(#clip310)" d="M2385.25 336.222 Q2380.09 336.222 2378.1 337.403 Q2376.11 338.583 2376.11 341.43 Q2376.11 343.699 2377.59 345.041 Q2379.09 346.361 2381.66 346.361 Q2385.2 346.361 2387.33 343.861 Q2389.49 341.338 2389.49 337.171 L2389.49 336.222 L2385.25 336.222 M2393.75 334.463 L2393.75 349.254 L2389.49 349.254 L2389.49 345.319 Q2388.03 347.68 2385.85 348.815 Q2383.68 349.926 2380.53 349.926 Q2376.55 349.926 2374.19 347.703 Q2371.85 345.458 2371.85 341.708 Q2371.85 337.333 2374.76 335.111 Q2377.7 332.889 2383.51 332.889 L2389.49 332.889 L2389.49 332.472 Q2389.49 329.532 2387.54 327.935 Q2385.62 326.315 2382.13 326.315 Q2379.9 326.315 2377.8 326.847 Q2375.69 327.38 2373.75 328.444 L2373.75 324.509 Q2376.08 323.606 2378.28 323.167 Q2380.48 322.704 2382.57 322.704 Q2388.19 322.704 2390.97 325.62 Q2393.75 328.537 2393.75 334.463 Z" fill="#000000" fill-rule="nonzero" fill-opacity="1" /><path clip-path="url(#clip310)" d="M2406.64 345.366 L2406.64 359.115 L2402.36 359.115 L2402.36 323.329 L2406.64 323.329 L2406.64 327.264 Q2407.98 324.949 2410.02 323.838 Q2412.08 322.704 2414.93 322.704 Q2419.65 322.704 2422.59 326.454 Q2425.55 330.204 2425.55 336.315 Q2425.55 342.426 2422.59 346.176 Q2419.65 349.926 2414.93 349.926 Q2412.08 349.926 2410.02 348.815 Q2407.98 347.68 2406.64 345.366 M2421.13 336.315 Q2421.13 331.616 2419.19 328.954 Q2417.26 326.268 2413.89 326.268 Q2410.51 326.268 2408.56 328.954 Q2406.64 331.616 2406.64 336.315 Q2406.64 341.014 2408.56 343.699 Q2410.51 346.361 2413.89 346.361 Q2417.26 346.361 2419.19 343.699 Q2421.13 341.014 2421.13 336.315 Z" fill="#000000" fill-rule="nonzero" fill-opacity="1" /><path clip-path="url(#clip310)" d="M2432.61 313.236 L2436.87 313.236 L2436.87 349.254 L2432.61 349.254 L2432.61 313.236 Z" fill="#000000" fill-rule="nonzero" fill-opacity="1" /><path clip-path="url(#clip310)" d="M2457.57 336.222 Q2452.4 336.222 2450.41 337.403 Q2448.42 338.583 2448.42 341.43 Q2448.42 343.699 2449.9 345.041 Q2451.41 346.361 2453.98 346.361 Q2457.52 346.361 2459.65 343.861 Q2461.8 341.338 2461.8 337.171 L2461.8 336.222 L2457.57 336.222 M2466.06 334.463 L2466.06 349.254 L2461.8 349.254 L2461.8 345.319 Q2460.34 347.68 2458.17 348.815 Q2455.99 349.926 2452.84 349.926 Q2448.86 349.926 2446.5 347.703 Q2444.16 345.458 2444.16 341.708 Q2444.16 337.333 2447.08 335.111 Q2450.02 332.889 2455.83 332.889 L2461.8 332.889 L2461.8 332.472 Q2461.8 329.532 2459.86 327.935 Q2457.94 326.315 2454.44 326.315 Q2452.22 326.315 2450.11 326.847 Q2448.01 327.38 2446.06 328.444 L2446.06 324.509 Q2448.4 323.606 2450.6 323.167 Q2452.8 322.704 2454.88 322.704 Q2460.51 322.704 2463.28 325.62 Q2466.06 328.537 2466.06 334.463 Z" fill="#000000" fill-rule="nonzero" fill-opacity="1" /><path clip-path="url(#clip310)" d="M2493.49 324.324 L2493.49 328.305 Q2491.69 327.31 2489.86 326.824 Q2488.05 326.315 2486.2 326.315 Q2482.06 326.315 2479.76 328.954 Q2477.47 331.569 2477.47 336.315 Q2477.47 341.06 2479.76 343.699 Q2482.06 346.315 2486.2 346.315 Q2488.05 346.315 2489.86 345.828 Q2491.69 345.319 2493.49 344.324 L2493.49 348.259 Q2491.71 349.092 2489.79 349.509 Q2487.89 349.926 2485.74 349.926 Q2479.88 349.926 2476.43 346.245 Q2472.98 342.565 2472.98 336.315 Q2472.98 329.972 2476.45 326.338 Q2479.95 322.704 2486.01 322.704 Q2487.98 322.704 2489.86 323.12 Q2491.73 323.514 2493.49 324.324 Z" fill="#000000" fill-rule="nonzero" fill-opacity="1" /><path clip-path="url(#clip310)" d="M2523.07 335.227 L2523.07 337.31 L2503.49 337.31 Q2503.77 341.708 2506.13 344.023 Q2508.51 346.315 2512.75 346.315 Q2515.2 346.315 2517.5 345.713 Q2519.81 345.111 2522.08 343.907 L2522.08 347.935 Q2519.79 348.907 2517.38 349.416 Q2514.97 349.926 2512.5 349.926 Q2506.29 349.926 2502.66 346.315 Q2499.05 342.704 2499.05 336.546 Q2499.05 330.18 2502.47 326.454 Q2505.92 322.704 2511.75 322.704 Q2516.99 322.704 2520.02 326.083 Q2523.07 329.44 2523.07 335.227 M2518.82 333.977 Q2518.77 330.481 2516.85 328.398 Q2514.95 326.315 2511.8 326.315 Q2508.24 326.315 2506.08 328.329 Q2503.95 330.342 2503.63 334 L2518.82 333.977 Z" fill="#000000" fill-rule="nonzero" fill-opacity="1" /><path clip-path="url(#clip310)" d="M2529.39 313.282 L2533.1 313.282 Q2536.57 318.745 2538.28 323.977 Q2540.02 329.208 2540.02 334.37 Q2540.02 339.555 2538.28 344.81 Q2536.57 350.065 2533.1 355.504 L2529.39 355.504 Q2532.47 350.203 2533.98 344.972 Q2535.5 339.717 2535.5 334.37 Q2535.5 329.023 2533.98 323.815 Q2532.47 318.606 2529.39 313.282 Z" fill="#000000" fill-rule="nonzero" fill-opacity="1" /></svg>
