<?xml version="1.0" encoding="utf-8"?>
<svg xmlns="http://www.w3.org/2000/svg" xmlns:xlink="http://www.w3.org/1999/xlink" width="700" height="500" viewBox="0 0 2800 2000">
<defs>
  <clipPath id="clip720">
    <rect x="0" y="0" width="2800" height="2000"/>
  </clipPath>
</defs>
<path clip-path="url(#clip720)" d="M0 2000 L2800 2000 L2800 -4.44089e-14 L0 -4.44089e-14  Z" fill="#ffffff" fill-rule="evenodd" fill-opacity="1"/>
<defs>
  <clipPath id="clip721">
    <rect x="477" y="125" width="2198" height="1506"/>
  </clipPath>
</defs>
<path clip-path="url(#clip720)" d="M477.222 1630.83 L2674.02 1630.83 L2674.02 125.984 L477.222 125.984  Z" fill="#ffffff" fill-rule="evenodd" fill-opacity="1"/>
<polyline clip-path="url(#clip721)" style="stroke:#000000; stroke-linecap:round; stroke-linejoin:round; stroke-width:2; stroke-opacity:0.1; fill:none" points="756.531,1630.83 756.531,125.984 "/>
<polyline clip-path="url(#clip721)" style="stroke:#000000; stroke-linecap:round; stroke-linejoin:round; stroke-width:2; stroke-opacity:0.1; fill:none" points="1230.68,1630.83 1230.68,125.984 "/>
<polyline clip-path="url(#clip721)" style="stroke:#000000; stroke-linecap:round; stroke-linejoin:round; stroke-width:2; stroke-opacity:0.1; fill:none" points="1704.83,1630.83 1704.83,125.984 "/>
<polyline clip-path="url(#clip721)" style="stroke:#000000; stroke-linecap:round; stroke-linejoin:round; stroke-width:2; stroke-opacity:0.1; fill:none" points="2178.98,1630.83 2178.98,125.984 "/>
<polyline clip-path="url(#clip721)" style="stroke:#000000; stroke-linecap:round; stroke-linejoin:round; stroke-width:2; stroke-opacity:0.1; fill:none" points="2653.13,1630.83 2653.13,125.984 "/>
<polyline clip-path="url(#clip721)" style="stroke:#000000; stroke-linecap:round; stroke-linejoin:round; stroke-width:2; stroke-opacity:0.1; fill:none" points="477.222,1439.3 2674.02,1439.3 "/>
<polyline clip-path="url(#clip721)" style="stroke:#000000; stroke-linecap:round; stroke-linejoin:round; stroke-width:2; stroke-opacity:0.1; fill:none" points="477.222,1136.58 2674.02,1136.58 "/>
<polyline clip-path="url(#clip721)" style="stroke:#000000; stroke-linecap:round; stroke-linejoin:round; stroke-width:2; stroke-opacity:0.1; fill:none" points="477.222,833.855 2674.02,833.855 "/>
<polyline clip-path="url(#clip721)" style="stroke:#000000; stroke-linecap:round; stroke-linejoin:round; stroke-width:2; stroke-opacity:0.1; fill:none" points="477.222,531.132 2674.02,531.132 "/>
<polyline clip-path="url(#clip721)" style="stroke:#000000; stroke-linecap:round; stroke-linejoin:round; stroke-width:2; stroke-opacity:0.1; fill:none" points="477.222,228.41 2674.02,228.41 "/>
<polyline clip-path="url(#clip720)" style="stroke:#000000; stroke-linecap:round; stroke-linejoin:round; stroke-width:4; stroke-opacity:1; fill:none" points="477.222,1630.83 2674.02,1630.83 "/>
<polyline clip-path="url(#clip720)" style="stroke:#000000; stroke-linecap:round; stroke-linejoin:round; stroke-width:4; stroke-opacity:1; fill:none" points="756.531,1630.83 756.531,1611.93 "/>
<polyline clip-path="url(#clip720)" style="stroke:#000000; stroke-linecap:round; stroke-linejoin:round; stroke-width:4; stroke-opacity:1; fill:none" points="1230.68,1630.83 1230.68,1611.93 "/>
<polyline clip-path="url(#clip720)" style="stroke:#000000; stroke-linecap:round; stroke-linejoin:round; stroke-width:4; stroke-opacity:1; fill:none" points="1704.83,1630.83 1704.83,1611.93 "/>
<polyline clip-path="url(#clip720)" style="stroke:#000000; stroke-linecap:round; stroke-linejoin:round; stroke-width:4; stroke-opacity:1; fill:none" points="2178.98,1630.83 2178.98,1611.93 "/>
<polyline clip-path="url(#clip720)" style="stroke:#000000; stroke-linecap:round; stroke-linejoin:round; stroke-width:4; stroke-opacity:1; fill:none" points="2653.13,1630.83 2653.13,1611.93 "/>
<path clip-path="url(#clip720)" d="M699.11 1686.2 L736.205 1686.2 L736.205 1691.11 L699.11 1691.11 L699.11 1686.2 Z" fill="#000000" fill-rule="nonzero" fill-opacity="1" /><path clip-path="url(#clip720)" d="M749.833 1702.31 L759.382 1702.31 L759.382 1669.36 L748.994 1671.44 L748.994 1666.11 L759.324 1664.03 L765.169 1664.03 L765.169 1702.31 L774.717 1702.31 L774.717 1707.23 L749.833 1707.23 L749.833 1702.31 Z" fill="#000000" fill-rule="nonzero" fill-opacity="1" /><path clip-path="url(#clip720)" d="M799.022 1667.88 Q794.509 1667.88 792.223 1672.34 Q789.966 1676.76 789.966 1685.67 Q789.966 1694.56 792.223 1699.01 Q794.509 1703.44 799.022 1703.44 Q803.565 1703.44 805.822 1699.01 Q808.108 1694.56 808.108 1685.67 Q808.108 1676.76 805.822 1672.34 Q803.565 1667.88 799.022 1667.88 M799.022 1663.25 Q806.285 1663.25 810.105 1669.01 Q813.953 1674.74 813.953 1685.67 Q813.953 1696.58 810.105 1702.34 Q806.285 1708.07 799.022 1708.07 Q791.76 1708.07 787.911 1702.34 Q784.092 1696.58 784.092 1685.67 Q784.092 1674.74 787.911 1669.01 Q791.76 1663.25 799.022 1663.25 Z" fill="#000000" fill-rule="nonzero" fill-opacity="1" /><path clip-path="url(#clip720)" d="M1192.73 1686.2 L1229.83 1686.2 L1229.83 1691.11 L1192.73 1691.11 L1192.73 1686.2 Z" fill="#000000" fill-rule="nonzero" fill-opacity="1" /><path clip-path="url(#clip720)" d="M1242.5 1664.03 L1265.45 1664.03 L1265.45 1668.95 L1247.85 1668.95 L1247.85 1679.54 Q1249.13 1679.11 1250.4 1678.9 Q1251.67 1678.67 1252.95 1678.67 Q1260.18 1678.67 1264.41 1682.64 Q1268.63 1686.6 1268.63 1693.37 Q1268.63 1700.34 1264.29 1704.22 Q1259.95 1708.07 1252.05 1708.07 Q1249.33 1708.07 1246.49 1707.61 Q1243.69 1707.14 1240.68 1706.22 L1240.68 1700.34 Q1243.28 1701.76 1246.06 1702.46 Q1248.84 1703.15 1251.93 1703.15 Q1256.94 1703.15 1259.86 1700.52 Q1262.78 1697.89 1262.78 1693.37 Q1262.78 1688.86 1259.86 1686.22 Q1256.94 1683.59 1251.93 1683.59 Q1249.59 1683.59 1247.25 1684.11 Q1244.93 1684.63 1242.5 1685.73 L1242.5 1664.03 Z" fill="#000000" fill-rule="nonzero" fill-opacity="1" /><path clip-path="url(#clip720)" d="M1704.83 1667.88 Q1700.32 1667.88 1698.03 1672.34 Q1695.77 1676.76 1695.77 1685.67 Q1695.77 1694.56 1698.03 1699.01 Q1700.32 1703.44 1704.83 1703.44 Q1709.37 1703.44 1711.63 1699.01 Q1713.92 1694.56 1713.92 1685.67 Q1713.92 1676.76 1711.63 1672.34 Q1709.37 1667.88 1704.83 1667.88 M1704.83 1663.25 Q1712.09 1663.25 1715.91 1669.01 Q1719.76 1674.74 1719.76 1685.67 Q1719.76 1696.58 1715.91 1702.34 Q1712.09 1708.07 1704.83 1708.07 Q1697.57 1708.07 1693.72 1702.34 Q1689.9 1696.58 1689.9 1685.67 Q1689.9 1674.74 1693.72 1669.01 Q1697.57 1663.25 1704.83 1663.25 Z" fill="#000000" fill-rule="nonzero" fill-opacity="1" /><path clip-path="url(#clip720)" d="M2166.83 1664.03 L2189.77 1664.03 L2189.77 1668.95 L2172.18 1668.95 L2172.18 1679.54 Q2173.45 1679.11 2174.73 1678.9 Q2176 1678.67 2177.27 1678.67 Q2184.51 1678.67 2188.73 1682.64 Q2192.96 1686.6 2192.96 1693.37 Q2192.96 1700.34 2188.62 1704.22 Q2184.28 1708.07 2176.38 1708.07 Q2173.66 1708.07 2170.82 1707.61 Q2168.01 1707.14 2165.01 1706.22 L2165.01 1700.34 Q2167.61 1701.76 2170.39 1702.46 Q2173.17 1703.15 2176.26 1703.15 Q2181.27 1703.15 2184.19 1700.52 Q2187.11 1697.89 2187.11 1693.37 Q2187.11 1688.86 2184.19 1686.22 Q2181.27 1683.59 2176.26 1683.59 Q2173.92 1683.59 2171.57 1684.11 Q2169.26 1684.63 2166.83 1685.73 L2166.83 1664.03 Z" fill="#000000" fill-rule="nonzero" fill-opacity="1" /><path clip-path="url(#clip720)" d="M2621.49 1702.31 L2631.04 1702.31 L2631.04 1669.36 L2620.65 1671.44 L2620.65 1666.11 L2630.98 1664.03 L2636.83 1664.03 L2636.83 1702.31 L2646.37 1702.31 L2646.37 1707.23 L2621.49 1707.23 L2621.49 1702.31 Z" fill="#000000" fill-rule="nonzero" fill-opacity="1" /><path clip-path="url(#clip720)" d="M2670.68 1667.88 Q2666.17 1667.88 2663.88 1672.34 Q2661.62 1676.76 2661.62 1685.67 Q2661.62 1694.56 2663.88 1699.01 Q2666.17 1703.44 2670.68 1703.44 Q2675.22 1703.44 2677.48 1699.01 Q2679.77 1694.56 2679.77 1685.67 Q2679.77 1676.76 2677.48 1672.34 Q2675.22 1667.88 2670.68 1667.88 M2670.68 1663.25 Q2677.94 1663.25 2681.76 1669.01 Q2685.61 1674.74 2685.61 1685.67 Q2685.61 1696.58 2681.76 1702.34 Q2677.94 1708.07 2670.68 1708.07 Q2663.42 1708.07 2659.57 1702.34 Q2655.75 1696.58 2655.75 1685.67 Q2655.75 1674.74 2659.57 1669.01 Q2663.42 1663.25 2670.68 1663.25 Z" fill="#000000" fill-rule="nonzero" fill-opacity="1" /><path clip-path="url(#clip720)" d="M1284.01 1751.5 Q1277 1751.5 1272.87 1756.72 Q1268.76 1761.94 1268.76 1770.94 Q1268.76 1779.92 1272.87 1785.14 Q1277 1790.36 1284.01 1790.36 Q1291.01 1790.36 1295.08 1785.14 Q1299.19 1779.92 1299.19 1770.94 Q1299.19 1761.94 1295.08 1756.72 Q1291.01 1751.5 1284.01 1751.5 M1284.01 1746.28 Q1294 1746.28 1299.98 1752.99 Q1305.97 1759.68 1305.97 1770.94 Q1305.97 1782.18 1299.98 1788.89 Q1294 1795.58 1284.01 1795.58 Q1273.98 1795.58 1267.96 1788.89 Q1261.98 1782.21 1261.98 1770.94 Q1261.98 1759.68 1267.96 1752.99 Q1273.98 1746.28 1284.01 1746.28 Z" fill="#000000" fill-rule="nonzero" fill-opacity="1" /><path clip-path="url(#clip720)" d="M1341.36 1776.86 Q1341.36 1770.4 1338.69 1766.74 Q1336.05 1763.05 1331.4 1763.05 Q1326.75 1763.05 1324.08 1766.74 Q1321.44 1770.4 1321.44 1776.86 Q1321.44 1783.32 1324.08 1787.02 Q1326.75 1790.68 1331.4 1790.68 Q1336.05 1790.68 1338.69 1787.02 Q1341.36 1783.32 1341.36 1776.86 M1321.44 1764.42 Q1323.28 1761.24 1326.08 1759.71 Q1328.92 1758.15 1332.83 1758.15 Q1339.32 1758.15 1343.37 1763.3 Q1347.44 1768.46 1347.44 1776.86 Q1347.44 1785.27 1343.37 1790.42 Q1339.32 1795.58 1332.83 1795.58 Q1328.92 1795.58 1326.08 1794.05 Q1323.28 1792.49 1321.44 1789.31 L1321.44 1794.66 L1315.55 1794.66 L1315.55 1745.13 L1321.44 1745.13 L1321.44 1764.42 Z" fill="#000000" fill-rule="nonzero" fill-opacity="1" /><path clip-path="url(#clip720)" d="M1379.87 1760.06 L1379.87 1765.6 Q1377.39 1764.32 1374.72 1763.69 Q1372.04 1763.05 1369.18 1763.05 Q1364.82 1763.05 1362.62 1764.39 Q1360.46 1765.72 1360.46 1768.4 Q1360.46 1770.43 1362.02 1771.61 Q1363.58 1772.76 1368.29 1773.81 L1370.29 1774.25 Q1376.53 1775.59 1379.14 1778.04 Q1381.78 1780.46 1381.78 1784.82 Q1381.78 1789.79 1377.84 1792.68 Q1373.92 1795.58 1367.05 1795.58 Q1364.18 1795.58 1361.06 1795.01 Q1357.98 1794.46 1354.54 1793.35 L1354.54 1787.3 Q1357.78 1788.99 1360.94 1789.85 Q1364.09 1790.68 1367.17 1790.68 Q1371.31 1790.68 1373.54 1789.28 Q1375.77 1787.84 1375.77 1785.27 Q1375.77 1782.88 1374.14 1781.61 Q1372.55 1780.33 1367.11 1779.16 L1365.07 1778.68 Q1359.63 1777.53 1357.21 1775.18 Q1354.79 1772.79 1354.79 1768.65 Q1354.79 1763.62 1358.36 1760.89 Q1361.92 1758.15 1368.48 1758.15 Q1371.73 1758.15 1374.59 1758.63 Q1377.45 1759.1 1379.87 1760.06 Z" fill="#000000" fill-rule="nonzero" fill-opacity="1" /><path clip-path="url(#clip720)" d="M1421.6 1775.37 L1421.6 1778.23 L1394.67 1778.23 Q1395.06 1784.28 1398.3 1787.46 Q1401.58 1790.61 1407.41 1790.61 Q1410.78 1790.61 1413.93 1789.79 Q1417.11 1788.96 1420.23 1787.3 L1420.23 1792.84 Q1417.08 1794.18 1413.77 1794.88 Q1410.46 1795.58 1407.05 1795.58 Q1398.52 1795.58 1393.53 1790.61 Q1388.56 1785.65 1388.56 1777.18 Q1388.56 1768.43 1393.27 1763.3 Q1398.02 1758.15 1406.04 1758.15 Q1413.23 1758.15 1417.4 1762.8 Q1421.6 1767.41 1421.6 1775.37 M1415.74 1773.65 Q1415.68 1768.84 1413.04 1765.98 Q1410.43 1763.11 1406.1 1763.11 Q1401.2 1763.11 1398.24 1765.88 Q1395.31 1768.65 1394.86 1773.68 L1415.74 1773.65 Z" fill="#000000" fill-rule="nonzero" fill-opacity="1" /><path clip-path="url(#clip720)" d="M1451.87 1764.48 Q1450.88 1763.91 1449.71 1763.65 Q1448.56 1763.37 1447.16 1763.37 Q1442.19 1763.37 1439.52 1766.61 Q1436.88 1769.83 1436.88 1775.88 L1436.88 1794.66 L1430.99 1794.66 L1430.99 1759.01 L1436.88 1759.01 L1436.88 1764.55 Q1438.72 1761.3 1441.68 1759.74 Q1444.64 1758.15 1448.88 1758.15 Q1449.48 1758.15 1450.21 1758.24 Q1450.95 1758.31 1451.84 1758.47 L1451.87 1764.48 Z" fill="#000000" fill-rule="nonzero" fill-opacity="1" /><path clip-path="url(#clip720)" d="M1453.81 1759.01 L1460.02 1759.01 L1471.16 1788.93 L1482.3 1759.01 L1488.5 1759.01 L1475.14 1794.66 L1467.18 1794.66 L1453.81 1759.01 Z" fill="#000000" fill-rule="nonzero" fill-opacity="1" /><path clip-path="url(#clip720)" d="M1527.08 1775.37 L1527.08 1778.23 L1500.15 1778.23 Q1500.54 1784.28 1503.78 1787.46 Q1507.06 1790.61 1512.88 1790.61 Q1516.26 1790.61 1519.41 1789.79 Q1522.59 1788.96 1525.71 1787.3 L1525.71 1792.84 Q1522.56 1794.18 1519.25 1794.88 Q1515.94 1795.58 1512.53 1795.58 Q1504 1795.58 1499.01 1790.61 Q1494.04 1785.65 1494.04 1777.18 Q1494.04 1768.43 1498.75 1763.3 Q1503.5 1758.15 1511.52 1758.15 Q1518.71 1758.15 1522.88 1762.8 Q1527.08 1767.41 1527.08 1775.37 M1521.22 1773.65 Q1521.16 1768.84 1518.52 1765.98 Q1515.91 1763.11 1511.58 1763.11 Q1506.68 1763.11 1503.72 1765.88 Q1500.79 1768.65 1500.34 1773.68 L1521.22 1773.65 Z" fill="#000000" fill-rule="nonzero" fill-opacity="1" /><path clip-path="url(#clip720)" d="M1560.15 1764.42 L1560.15 1745.13 L1566.01 1745.13 L1566.01 1794.66 L1560.15 1794.66 L1560.15 1789.31 Q1558.3 1792.49 1555.47 1794.05 Q1552.67 1795.58 1548.72 1795.58 Q1542.26 1795.58 1538.19 1790.42 Q1534.15 1785.27 1534.15 1776.86 Q1534.15 1768.46 1538.19 1763.3 Q1542.26 1758.15 1548.72 1758.15 Q1552.67 1758.15 1555.47 1759.71 Q1558.3 1761.24 1560.15 1764.42 M1540.19 1776.86 Q1540.19 1783.32 1542.84 1787.02 Q1545.51 1790.68 1550.16 1790.68 Q1554.8 1790.68 1557.48 1787.02 Q1560.15 1783.32 1560.15 1776.86 Q1560.15 1770.4 1557.48 1766.74 Q1554.8 1763.05 1550.16 1763.05 Q1545.51 1763.05 1542.84 1766.74 Q1540.19 1770.4 1540.19 1776.86 Z" fill="#000000" fill-rule="nonzero" fill-opacity="1" /><path clip-path="url(#clip720)" d="M1602.29 1776.86 Q1602.29 1783.32 1604.93 1787.02 Q1607.61 1790.68 1612.25 1790.68 Q1616.9 1790.68 1619.57 1787.02 Q1622.25 1783.32 1622.25 1776.86 Q1622.25 1770.4 1619.57 1766.74 Q1616.9 1763.05 1612.25 1763.05 Q1607.61 1763.05 1604.93 1766.74 Q1602.29 1770.4 1602.29 1776.86 M1622.25 1789.31 Q1620.4 1792.49 1617.57 1794.05 Q1614.77 1795.58 1610.82 1795.58 Q1604.36 1795.58 1600.29 1790.42 Q1596.24 1785.27 1596.24 1776.86 Q1596.24 1768.46 1600.29 1763.3 Q1604.36 1758.15 1610.82 1758.15 Q1614.77 1758.15 1617.57 1759.71 Q1620.4 1761.24 1622.25 1764.42 L1622.25 1759.01 L1628.1 1759.01 L1628.1 1808.21 L1622.25 1808.21 L1622.25 1789.31 Z" fill="#000000" fill-rule="nonzero" fill-opacity="1" /><path clip-path="url(#clip720)" d="M1639.56 1780.59 L1639.56 1759.01 L1645.42 1759.01 L1645.42 1780.36 Q1645.42 1785.43 1647.39 1787.97 Q1649.37 1790.49 1653.31 1790.49 Q1658.05 1790.49 1660.79 1787.46 Q1663.56 1784.44 1663.56 1779.22 L1663.56 1759.01 L1669.42 1759.01 L1669.42 1794.66 L1663.56 1794.66 L1663.56 1789.18 Q1661.43 1792.43 1658.6 1794.02 Q1655.79 1795.58 1652.07 1795.58 Q1645.93 1795.58 1642.75 1791.76 Q1639.56 1787.94 1639.56 1780.59 M1654.3 1758.15 L1654.3 1758.15 Z" fill="#000000" fill-rule="nonzero" fill-opacity="1" /><path clip-path="url(#clip720)" d="M1697.68 1776.74 Q1690.58 1776.74 1687.85 1778.36 Q1685.11 1779.98 1685.11 1783.9 Q1685.11 1787.02 1687.15 1788.86 Q1689.21 1790.68 1692.75 1790.68 Q1697.62 1790.68 1700.55 1787.24 Q1703.51 1783.77 1703.51 1778.04 L1703.51 1776.74 L1697.68 1776.74 M1709.36 1774.32 L1709.36 1794.66 L1703.51 1794.66 L1703.51 1789.24 Q1701.5 1792.49 1698.51 1794.05 Q1695.52 1795.58 1691.19 1795.58 Q1685.71 1795.58 1682.47 1792.52 Q1679.25 1789.44 1679.25 1784.28 Q1679.25 1778.26 1683.26 1775.21 Q1687.31 1772.15 1695.29 1772.15 L1703.51 1772.15 L1703.51 1771.58 Q1703.51 1767.54 1700.83 1765.34 Q1698.19 1763.11 1693.38 1763.11 Q1690.33 1763.11 1687.43 1763.85 Q1684.54 1764.58 1681.86 1766.04 L1681.86 1760.63 Q1685.08 1759.39 1688.1 1758.78 Q1691.12 1758.15 1693.99 1758.15 Q1701.72 1758.15 1705.54 1762.16 Q1709.36 1766.17 1709.36 1774.32 Z" fill="#000000" fill-rule="nonzero" fill-opacity="1" /><path clip-path="url(#clip720)" d="M1751.06 1773.14 L1751.06 1794.66 L1745.2 1794.66 L1745.2 1773.33 Q1745.2 1768.27 1743.23 1765.76 Q1741.25 1763.24 1737.31 1763.24 Q1732.57 1763.24 1729.83 1766.26 Q1727.09 1769.29 1727.09 1774.51 L1727.09 1794.66 L1721.2 1794.66 L1721.2 1759.01 L1727.09 1759.01 L1727.09 1764.55 Q1729.19 1761.33 1732.02 1759.74 Q1734.89 1758.15 1738.61 1758.15 Q1744.76 1758.15 1747.91 1761.97 Q1751.06 1765.76 1751.06 1773.14 Z" fill="#000000" fill-rule="nonzero" fill-opacity="1" /><path clip-path="url(#clip720)" d="M1768.53 1748.89 L1768.53 1759.01 L1780.59 1759.01 L1780.59 1763.56 L1768.53 1763.56 L1768.53 1782.91 Q1768.53 1787.27 1769.71 1788.51 Q1770.92 1789.75 1774.58 1789.75 L1780.59 1789.75 L1780.59 1794.66 L1774.58 1794.66 Q1767.8 1794.66 1765.22 1792.14 Q1762.64 1789.59 1762.64 1782.91 L1762.64 1763.56 L1758.35 1763.56 L1758.35 1759.01 L1762.64 1759.01 L1762.64 1748.89 L1768.53 1748.89 Z" fill="#000000" fill-rule="nonzero" fill-opacity="1" /><path clip-path="url(#clip720)" d="M1788.3 1759.01 L1794.15 1759.01 L1794.15 1794.66 L1788.3 1794.66 L1788.3 1759.01 M1788.3 1745.13 L1794.15 1745.13 L1794.15 1752.55 L1788.3 1752.55 L1788.3 1745.13 Z" fill="#000000" fill-rule="nonzero" fill-opacity="1" /><path clip-path="url(#clip720)" d="M1806.41 1745.13 L1812.26 1745.13 L1812.26 1794.66 L1806.41 1794.66 L1806.41 1745.13 Z" fill="#000000" fill-rule="nonzero" fill-opacity="1" /><path clip-path="url(#clip720)" d="M1855.01 1775.37 L1855.01 1778.23 L1828.08 1778.23 Q1828.46 1784.28 1831.71 1787.46 Q1834.99 1790.61 1840.81 1790.61 Q1844.19 1790.61 1847.34 1789.79 Q1850.52 1788.96 1853.64 1787.3 L1853.64 1792.84 Q1850.49 1794.18 1847.18 1794.88 Q1843.87 1795.58 1840.46 1795.58 Q1831.93 1795.58 1826.94 1790.61 Q1821.97 1785.65 1821.97 1777.18 Q1821.97 1768.43 1826.68 1763.3 Q1831.42 1758.15 1839.45 1758.15 Q1846.64 1758.15 1850.81 1762.8 Q1855.01 1767.41 1855.01 1775.37 M1849.15 1773.65 Q1849.09 1768.84 1846.45 1765.98 Q1843.84 1763.11 1839.51 1763.11 Q1834.61 1763.11 1831.65 1765.88 Q1828.72 1768.65 1828.27 1773.68 L1849.15 1773.65 Z" fill="#000000" fill-rule="nonzero" fill-opacity="1" /><path clip-path="url(#clip720)" d="M1887.35 1760.06 L1887.35 1765.6 Q1884.86 1764.32 1882.19 1763.69 Q1879.52 1763.05 1876.65 1763.05 Q1872.29 1763.05 1870.1 1764.39 Q1867.93 1765.72 1867.93 1768.4 Q1867.93 1770.43 1869.49 1771.61 Q1871.05 1772.76 1875.76 1773.81 L1877.77 1774.25 Q1884.01 1775.59 1886.62 1778.04 Q1889.26 1780.46 1889.26 1784.82 Q1889.26 1789.79 1885.31 1792.68 Q1881.4 1795.58 1874.52 1795.58 Q1871.66 1795.58 1868.54 1795.01 Q1865.45 1794.46 1862.01 1793.35 L1862.01 1787.3 Q1865.26 1788.99 1868.41 1789.85 Q1871.56 1790.68 1874.65 1790.68 Q1878.79 1790.68 1881.01 1789.28 Q1883.24 1787.84 1883.24 1785.27 Q1883.24 1782.88 1881.62 1781.61 Q1880.03 1780.33 1874.58 1779.16 L1872.55 1778.68 Q1867.1 1777.53 1864.69 1775.18 Q1862.27 1772.79 1862.27 1768.65 Q1862.27 1763.62 1865.83 1760.89 Q1869.4 1758.15 1875.95 1758.15 Q1879.2 1758.15 1882.06 1758.63 Q1884.93 1759.1 1887.35 1760.06 Z" fill="#000000" fill-rule="nonzero" fill-opacity="1" /><polyline clip-path="url(#clip720)" style="stroke:#000000; stroke-linecap:round; stroke-linejoin:round; stroke-width:4; stroke-opacity:1; fill:none" points="477.222,1630.83 477.222,125.984 "/>
<polyline clip-path="url(#clip720)" style="stroke:#000000; stroke-linecap:round; stroke-linejoin:round; stroke-width:4; stroke-opacity:1; fill:none" points="477.222,1439.3 496.12,1439.3 "/>
<polyline clip-path="url(#clip720)" style="stroke:#000000; stroke-linecap:round; stroke-linejoin:round; stroke-width:4; stroke-opacity:1; fill:none" points="477.222,1136.58 496.12,1136.58 "/>
<polyline clip-path="url(#clip720)" style="stroke:#000000; stroke-linecap:round; stroke-linejoin:round; stroke-width:4; stroke-opacity:1; fill:none" points="477.222,833.855 496.12,833.855 "/>
<polyline clip-path="url(#clip720)" style="stroke:#000000; stroke-linecap:round; stroke-linejoin:round; stroke-width:4; stroke-opacity:1; fill:none" points="477.222,531.132 496.12,531.132 "/>
<polyline clip-path="url(#clip720)" style="stroke:#000000; stroke-linecap:round; stroke-linejoin:round; stroke-width:4; stroke-opacity:1; fill:none" points="477.222,228.41 496.12,228.41 "/>
<path clip-path="url(#clip720)" d="M320.379 1439.86 L357.474 1439.86 L357.474 1444.78 L320.379 1444.78 L320.379 1439.86 Z" fill="#000000" fill-rule="nonzero" fill-opacity="1" /><path clip-path="url(#clip720)" d="M371.102 1455.98 L380.651 1455.98 L380.651 1423.02 L370.263 1425.11 L370.263 1419.78 L380.593 1417.7 L386.438 1417.7 L386.438 1455.98 L395.986 1455.98 L395.986 1460.9 L371.102 1460.9 L371.102 1455.98 Z" fill="#000000" fill-rule="nonzero" fill-opacity="1" /><path clip-path="url(#clip720)" d="M420.292 1421.55 Q415.778 1421.55 413.492 1426 Q411.235 1430.43 411.235 1439.34 Q411.235 1448.23 413.492 1452.68 Q415.778 1457.11 420.292 1457.11 Q424.834 1457.11 427.091 1452.68 Q429.377 1448.23 429.377 1439.34 Q429.377 1430.43 427.091 1426 Q424.834 1421.55 420.292 1421.55 M420.292 1416.92 Q427.554 1416.92 431.374 1422.68 Q435.222 1428.41 435.222 1439.34 Q435.222 1450.25 431.374 1456.01 Q427.554 1461.74 420.292 1461.74 Q413.029 1461.74 409.18 1456.01 Q405.361 1450.25 405.361 1439.34 Q405.361 1428.41 409.18 1422.68 Q413.029 1416.92 420.292 1416.92 Z" fill="#000000" fill-rule="nonzero" fill-opacity="1" /><path clip-path="url(#clip720)" d="M359.325 1137.14 L396.42 1137.14 L396.42 1142.06 L359.325 1142.06 L359.325 1137.14 Z" fill="#000000" fill-rule="nonzero" fill-opacity="1" /><path clip-path="url(#clip720)" d="M409.094 1114.98 L432.039 1114.98 L432.039 1119.9 L414.447 1119.9 L414.447 1130.49 Q415.72 1130.05 416.993 1129.85 Q418.266 1129.62 419.539 1129.62 Q426.773 1129.62 430.997 1133.58 Q435.222 1137.55 435.222 1144.32 Q435.222 1151.29 430.882 1155.17 Q426.541 1159.02 418.642 1159.02 Q415.922 1159.02 413.087 1158.55 Q410.28 1158.09 407.271 1157.16 L407.271 1151.29 Q409.875 1152.71 412.653 1153.4 Q415.43 1154.1 418.526 1154.1 Q423.532 1154.1 426.455 1151.46 Q429.377 1148.83 429.377 1144.32 Q429.377 1139.8 426.455 1137.17 Q423.532 1134.54 418.526 1134.54 Q416.183 1134.54 413.839 1135.06 Q411.524 1135.58 409.094 1136.68 L409.094 1114.98 Z" fill="#000000" fill-rule="nonzero" fill-opacity="1" /><path clip-path="url(#clip720)" d="M420.292 816.103 Q415.778 816.103 413.492 820.559 Q411.235 824.986 411.235 833.898 Q411.235 842.781 413.492 847.237 Q415.778 851.664 420.292 851.664 Q424.834 851.664 427.091 847.237 Q429.377 842.781 429.377 833.898 Q429.377 824.986 427.091 820.559 Q424.834 816.103 420.292 816.103 M420.292 811.473 Q427.554 811.473 431.374 817.232 Q435.222 822.961 435.222 833.898 Q435.222 844.807 431.374 850.565 Q427.554 856.294 420.292 856.294 Q413.029 856.294 409.18 850.565 Q405.361 844.807 405.361 833.898 Q405.361 822.961 409.18 817.232 Q413.029 811.473 420.292 811.473 Z" fill="#000000" fill-rule="nonzero" fill-opacity="1" /><path clip-path="url(#clip720)" d="M409.094 509.532 L432.039 509.532 L432.039 514.451 L414.447 514.451 L414.447 525.041 Q415.72 524.607 416.993 524.405 Q418.266 524.173 419.539 524.173 Q426.773 524.173 430.997 528.137 Q435.222 532.101 435.222 538.872 Q435.222 545.846 430.882 549.723 Q426.541 553.571 418.642 553.571 Q415.922 553.571 413.087 553.108 Q410.28 552.645 407.271 551.719 L407.271 545.846 Q409.875 547.263 412.653 547.958 Q415.43 548.652 418.526 548.652 Q423.532 548.652 426.455 546.019 Q429.377 543.386 429.377 538.872 Q429.377 534.358 426.455 531.725 Q423.532 529.092 418.526 529.092 Q416.183 529.092 413.839 529.613 Q411.524 530.134 409.094 531.233 L409.094 509.532 Z" fill="#000000" fill-rule="nonzero" fill-opacity="1" /><path clip-path="url(#clip720)" d="M371.102 245.091 L380.651 245.091 L380.651 212.134 L370.263 214.217 L370.263 208.893 L380.593 206.81 L386.438 206.81 L386.438 245.091 L395.986 245.091 L395.986 250.01 L371.102 250.01 L371.102 245.091 Z" fill="#000000" fill-rule="nonzero" fill-opacity="1" /><path clip-path="url(#clip720)" d="M420.292 210.658 Q415.778 210.658 413.492 215.114 Q411.235 219.541 411.235 228.453 Q411.235 237.336 413.492 241.792 Q415.778 246.219 420.292 246.219 Q424.834 246.219 427.091 241.792 Q429.377 237.336 429.377 228.453 Q429.377 219.541 427.091 215.114 Q424.834 210.658 420.292 210.658 M420.292 206.028 Q427.554 206.028 431.374 211.786 Q435.222 217.516 435.222 228.453 Q435.222 239.361 431.374 245.12 Q427.554 250.849 420.292 250.849 Q413.029 250.849 409.18 245.12 Q405.361 239.361 405.361 228.453 Q405.361 217.516 409.18 211.786 Q413.029 206.028 420.292 206.028 Z" fill="#000000" fill-rule="nonzero" fill-opacity="1" /><path clip-path="url(#clip720)" d="M218.162 1169.03 L224.433 1169.03 Q222.682 1172.69 221.823 1175.94 Q220.963 1179.19 220.963 1182.21 Q220.963 1187.46 223 1190.33 Q225.037 1193.16 228.793 1193.16 Q231.944 1193.16 233.567 1191.28 Q235.159 1189.37 236.146 1184.09 L236.941 1180.21 Q238.31 1173.01 241.779 1169.61 Q245.217 1166.17 251.009 1166.17 Q257.916 1166.17 261.481 1170.82 Q265.046 1175.43 265.046 1184.38 Q265.046 1187.75 264.282 1191.57 Q263.518 1195.36 262.022 1199.43 L255.402 1199.43 Q257.598 1195.52 258.712 1191.76 Q259.826 1188 259.826 1184.38 Q259.826 1178.87 257.662 1175.88 Q255.497 1172.89 251.487 1172.89 Q247.986 1172.89 246.012 1175.05 Q244.039 1177.18 243.052 1182.08 L242.288 1186 Q240.856 1193.19 237.801 1196.41 Q234.745 1199.62 229.302 1199.62 Q223 1199.62 219.372 1195.2 Q215.743 1190.74 215.743 1182.94 Q215.743 1179.6 216.348 1176.13 Q216.953 1172.66 218.162 1169.03 Z" fill="#000000" fill-rule="nonzero" fill-opacity="1" /><path clip-path="url(#clip720)" d="M228.475 1156.4 L228.475 1150.54 L264.123 1150.54 L264.123 1156.4 L228.475 1156.4 M214.598 1156.4 L214.598 1150.54 L222.014 1150.54 L222.014 1156.4 L214.598 1156.4 Z" fill="#000000" fill-rule="nonzero" fill-opacity="1" /><path clip-path="url(#clip720)" d="M235.318 1110.53 Q231.371 1108.34 229.493 1105.28 Q227.616 1102.23 227.616 1098.09 Q227.616 1092.52 231.53 1089.49 Q235.414 1086.47 242.607 1086.47 L264.123 1086.47 L264.123 1092.36 L242.798 1092.36 Q237.673 1092.36 235.191 1094.17 Q232.708 1095.99 232.708 1099.71 Q232.708 1104.26 235.732 1106.9 Q238.756 1109.55 243.975 1109.55 L264.123 1109.55 L264.123 1115.43 L242.798 1115.43 Q237.642 1115.43 235.191 1117.25 Q232.708 1119.06 232.708 1122.85 Q232.708 1127.34 235.764 1129.98 Q238.787 1132.62 243.975 1132.62 L264.123 1132.62 L264.123 1138.51 L228.475 1138.51 L228.475 1132.62 L234.013 1132.62 Q230.735 1130.62 229.175 1127.82 Q227.616 1125.02 227.616 1121.16 Q227.616 1117.28 229.589 1114.58 Q231.562 1111.84 235.318 1110.53 Z" fill="#000000" fill-rule="nonzero" fill-opacity="1" /><path clip-path="url(#clip720)" d="M250.055 1075.39 L228.475 1075.39 L228.475 1069.54 L249.832 1069.54 Q254.893 1069.54 257.439 1067.56 Q259.953 1065.59 259.953 1061.64 Q259.953 1056.9 256.93 1054.17 Q253.906 1051.4 248.686 1051.4 L228.475 1051.4 L228.475 1045.54 L264.123 1045.54 L264.123 1051.4 L258.648 1051.4 Q261.895 1053.53 263.486 1056.36 Q265.046 1059.16 265.046 1062.89 Q265.046 1069.03 261.226 1072.21 Q257.407 1075.39 250.055 1075.39 M227.616 1060.66 L227.616 1060.66 Z" fill="#000000" fill-rule="nonzero" fill-opacity="1" /><path clip-path="url(#clip720)" d="M214.598 1033.48 L214.598 1027.62 L264.123 1027.62 L264.123 1033.48 L214.598 1033.48 Z" fill="#000000" fill-rule="nonzero" fill-opacity="1" /><path clip-path="url(#clip720)" d="M246.203 999.165 Q246.203 1006.26 247.827 1009 Q249.45 1011.74 253.365 1011.74 Q256.484 1011.74 258.33 1009.7 Q260.144 1007.63 260.144 1004.1 Q260.144 999.229 256.707 996.301 Q253.237 993.341 247.508 993.341 L246.203 993.341 L246.203 999.165 M243.784 987.484 L264.123 987.484 L264.123 993.341 L258.712 993.341 Q261.959 995.346 263.518 998.338 Q265.046 1001.33 265.046 1005.66 Q265.046 1011.13 261.99 1014.38 Q258.903 1017.59 253.747 1017.59 Q247.731 1017.59 244.676 1013.58 Q241.62 1009.54 241.62 1001.55 L241.62 993.341 L241.047 993.341 Q237.005 993.341 234.809 996.014 Q232.581 998.656 232.581 1003.46 Q232.581 1006.52 233.313 1009.41 Q234.045 1012.31 235.509 1014.98 L230.098 1014.98 Q228.857 1011.77 228.252 1008.75 Q227.616 1005.72 227.616 1002.86 Q227.616 995.123 231.626 991.304 Q235.636 987.484 243.784 987.484 Z" fill="#000000" fill-rule="nonzero" fill-opacity="1" /><path clip-path="url(#clip720)" d="M218.353 969.628 L228.475 969.628 L228.475 957.565 L233.026 957.565 L233.026 969.628 L252.378 969.628 Q256.739 969.628 257.98 968.451 Q259.221 967.241 259.221 963.581 L259.221 957.565 L264.123 957.565 L264.123 963.581 Q264.123 970.361 261.608 972.939 Q259.062 975.517 252.378 975.517 L233.026 975.517 L233.026 979.814 L228.475 979.814 L228.475 975.517 L218.353 975.517 L218.353 969.628 Z" fill="#000000" fill-rule="nonzero" fill-opacity="1" /><path clip-path="url(#clip720)" d="M244.835 919.371 L247.699 919.371 L247.699 946.298 Q253.747 945.916 256.93 942.67 Q260.081 939.391 260.081 933.567 Q260.081 930.193 259.253 927.042 Q258.426 923.859 256.77 920.74 L262.309 920.74 Q263.645 923.891 264.346 927.201 Q265.046 930.511 265.046 933.917 Q265.046 942.447 260.081 947.444 Q255.115 952.409 246.649 952.409 Q237.896 952.409 232.772 947.699 Q227.616 942.956 227.616 934.935 Q227.616 927.742 232.262 923.573 Q236.878 919.371 244.835 919.371 M243.116 925.228 Q238.31 925.291 235.445 927.933 Q232.581 930.543 232.581 934.872 Q232.581 939.773 235.35 942.733 Q238.119 945.662 243.148 946.107 L243.116 925.228 Z" fill="#000000" fill-rule="nonzero" fill-opacity="1" /><path clip-path="url(#clip720)" d="M233.886 886.301 L214.598 886.301 L214.598 880.445 L264.123 880.445 L264.123 886.301 L258.776 886.301 Q261.959 888.147 263.518 890.98 Q265.046 893.781 265.046 897.728 Q265.046 904.189 259.89 908.263 Q254.733 912.305 246.331 912.305 Q237.928 912.305 232.772 908.263 Q227.616 904.189 227.616 897.728 Q227.616 893.781 229.175 890.98 Q230.703 888.147 233.886 886.301 M246.331 906.258 Q252.792 906.258 256.484 903.616 Q260.144 900.942 260.144 896.296 Q260.144 891.649 256.484 888.975 Q252.792 886.301 246.331 886.301 Q239.87 886.301 236.209 888.975 Q232.517 891.649 232.517 896.296 Q232.517 900.942 236.209 903.616 Q239.87 906.258 246.331 906.258 Z" fill="#000000" fill-rule="nonzero" fill-opacity="1" /><path clip-path="url(#clip720)" d="M246.331 844.16 Q252.792 844.16 256.484 841.519 Q260.144 838.845 260.144 834.198 Q260.144 829.551 256.484 826.877 Q252.792 824.204 246.331 824.204 Q239.87 824.204 236.209 826.877 Q232.517 829.551 232.517 834.198 Q232.517 838.845 236.209 841.519 Q239.87 844.16 246.331 844.16 M258.776 824.204 Q261.959 826.05 263.518 828.883 Q265.046 831.684 265.046 835.63 Q265.046 842.092 259.89 846.166 Q254.733 850.208 246.331 850.208 Q237.928 850.208 232.772 846.166 Q227.616 842.092 227.616 835.63 Q227.616 831.684 229.175 828.883 Q230.703 826.05 233.886 824.204 L228.475 824.204 L228.475 818.347 L277.682 818.347 L277.682 824.204 L258.776 824.204 Z" fill="#000000" fill-rule="nonzero" fill-opacity="1" /><path clip-path="url(#clip720)" d="M250.055 806.889 L228.475 806.889 L228.475 801.033 L249.832 801.033 Q254.893 801.033 257.439 799.059 Q259.953 797.086 259.953 793.139 Q259.953 788.397 256.93 785.66 Q253.906 782.89 248.686 782.89 L228.475 782.89 L228.475 777.034 L264.123 777.034 L264.123 782.89 L258.648 782.89 Q261.895 785.023 263.486 787.856 Q265.046 790.657 265.046 794.381 Q265.046 800.523 261.226 803.706 Q257.407 806.889 250.055 806.889 M227.616 792.153 L227.616 792.153 Z" fill="#000000" fill-rule="nonzero" fill-opacity="1" /><path clip-path="url(#clip720)" d="M246.203 748.77 Q246.203 755.868 247.827 758.605 Q249.45 761.343 253.365 761.343 Q256.484 761.343 258.33 759.306 Q260.144 757.237 260.144 753.704 Q260.144 748.834 256.707 745.906 Q253.237 742.946 247.508 742.946 L246.203 742.946 L246.203 748.77 M243.784 737.089 L264.123 737.089 L264.123 742.946 L258.712 742.946 Q261.959 744.951 263.518 747.943 Q265.046 750.935 265.046 755.263 Q265.046 760.738 261.99 763.984 Q258.903 767.199 253.747 767.199 Q247.731 767.199 244.676 763.189 Q241.62 759.146 241.62 751.157 L241.62 742.946 L241.047 742.946 Q237.005 742.946 234.809 745.619 Q232.581 748.261 232.581 753.067 Q232.581 756.123 233.313 759.019 Q234.045 761.915 235.509 764.589 L230.098 764.589 Q228.857 761.374 228.252 758.351 Q227.616 755.327 227.616 752.462 Q227.616 744.728 231.626 740.909 Q235.636 737.089 243.784 737.089 Z" fill="#000000" fill-rule="nonzero" fill-opacity="1" /><path clip-path="url(#clip720)" d="M242.607 695.394 L264.123 695.394 L264.123 701.25 L242.798 701.25 Q237.737 701.25 235.223 703.224 Q232.708 705.197 232.708 709.144 Q232.708 713.886 235.732 716.623 Q238.756 719.361 243.975 719.361 L264.123 719.361 L264.123 725.249 L228.475 725.249 L228.475 719.361 L234.013 719.361 Q230.798 717.26 229.207 714.427 Q227.616 711.563 227.616 707.839 Q227.616 701.696 231.435 698.545 Q235.223 695.394 242.607 695.394 Z" fill="#000000" fill-rule="nonzero" fill-opacity="1" /><path clip-path="url(#clip720)" d="M218.353 677.92 L228.475 677.92 L228.475 665.857 L233.026 665.857 L233.026 677.92 L252.378 677.92 Q256.739 677.92 257.98 676.742 Q259.221 675.533 259.221 671.873 L259.221 665.857 L264.123 665.857 L264.123 671.873 Q264.123 678.652 261.608 681.23 Q259.062 683.808 252.378 683.808 L233.026 683.808 L233.026 688.105 L228.475 688.105 L228.475 683.808 L218.353 683.808 L218.353 677.92 Z" fill="#000000" fill-rule="nonzero" fill-opacity="1" /><path clip-path="url(#clip720)" d="M228.475 658.154 L228.475 652.298 L264.123 652.298 L264.123 658.154 L228.475 658.154 M214.598 658.154 L214.598 652.298 L222.014 652.298 L222.014 658.154 L214.598 658.154 Z" fill="#000000" fill-rule="nonzero" fill-opacity="1" /><path clip-path="url(#clip720)" d="M214.598 640.044 L214.598 634.188 L264.123 634.188 L264.123 640.044 L214.598 640.044 Z" fill="#000000" fill-rule="nonzero" fill-opacity="1" /><path clip-path="url(#clip720)" d="M244.835 591.442 L247.699 591.442 L247.699 618.369 Q253.747 617.987 256.93 614.74 Q260.081 611.462 260.081 605.637 Q260.081 602.264 259.253 599.112 Q258.426 595.93 256.77 592.81 L262.309 592.81 Q263.645 595.961 264.346 599.272 Q265.046 602.582 265.046 605.987 Q265.046 614.518 260.081 619.515 Q255.115 624.48 246.649 624.48 Q237.896 624.48 232.772 619.769 Q227.616 615.027 227.616 607.006 Q227.616 599.813 232.262 595.643 Q236.878 591.442 244.835 591.442 M243.116 597.298 Q238.31 597.362 235.445 600.004 Q232.581 602.614 232.581 606.942 Q232.581 611.844 235.35 614.804 Q238.119 617.732 243.148 618.178 L243.116 597.298 Z" fill="#000000" fill-rule="nonzero" fill-opacity="1" /><path clip-path="url(#clip720)" d="M229.525 559.104 L235.063 559.104 Q233.79 561.587 233.154 564.26 Q232.517 566.934 232.517 569.798 Q232.517 574.159 233.854 576.355 Q235.191 578.519 237.864 578.519 Q239.901 578.519 241.079 576.96 Q242.225 575.4 243.275 570.69 L243.721 568.684 Q245.058 562.446 247.508 559.836 Q249.927 557.194 254.288 557.194 Q259.253 557.194 262.149 561.141 Q265.046 565.056 265.046 571.931 Q265.046 574.795 264.473 577.915 Q263.932 581.002 262.818 584.44 L256.77 584.44 Q258.457 581.193 259.317 578.042 Q260.144 574.891 260.144 571.804 Q260.144 567.666 258.744 565.438 Q257.312 563.21 254.733 563.21 Q252.346 563.21 251.073 564.833 Q249.8 566.425 248.622 571.867 L248.145 573.904 Q246.999 579.347 244.644 581.766 Q242.257 584.185 238.119 584.185 Q233.09 584.185 230.353 580.62 Q227.616 577.055 227.616 570.499 Q227.616 567.252 228.093 564.388 Q228.57 561.523 229.525 559.104 Z" fill="#000000" fill-rule="nonzero" fill-opacity="1" /><polyline clip-path="url(#clip721)" style="stroke:#000000; stroke-linecap:round; stroke-linejoin:round; stroke-width:8; stroke-opacity:1; fill:none" stroke-dasharray="32, 20" points="539.395,1577.93 1000.19,1283.73 1104.96,1216.84 1165.61,1178.12 1213.2,1147.74 1261.63,1116.82 1294.55,1095.8 1328.35,1074.22 1347.87,1061.76 1366.8,1049.67 1382.8,1039.46 1396.84,1030.49 1408.61,1022.98 1427.62,1010.84 1439.89,1003.01 1451.28,995.736 1456.01,992.717 1466,986.336 1476.84,979.419 1483.5,975.161 1490.12,970.938 1496.52,966.851 1503.33,962.502 1511.04,957.58 1519.14,952.411 1526.18,947.912 1532.15,944.104 1537.47,940.705 1541.86,937.904 1548.64,933.572 1554.47,929.855 1560.99,925.689 1564.99,923.134 1569.53,920.237 1572.59,918.286 1577.04,915.445 1580.37,913.316 1584.25,910.843 1589.22,907.669 1592.55,905.541 1595.83,903.444 1598.05,902.032 1602.91,898.925 1605.64,897.184 1608.4,895.42 1610.8,893.888 1614.83,891.316 1618.02,889.28 1620.55,887.667 1623.28,885.922 1625.96,884.21 1628.74,882.438 1633.28,879.536 1636.19,877.68 1637.56,876.805 1640.8,874.733 1643.53,872.995 1645.72,871.593 1648.36,869.907 1650.13,868.781 1651.98,867.6 1654.59,865.932 1656.73,864.562 1659.05,863.085 1661.94,861.24 1664.07,859.881 1666.04,858.624 1667.61,857.62 1669.61,856.344 1672.54,854.474 1674.24,853.383 1676.47,851.962 1678.57,850.619 1680.87,849.152 1682.07,848.389 1685.2,846.391 1686.5,845.557 1687.81,844.725 1688.99,843.968 1690.68,842.889 1692.27,841.872 1693.96,840.792 1695.18,840.016 1697.21,838.719 1698.53,837.878 1699.87,837.02 1701.31,836.105 1703.77,834.531 1705.14,833.657 1706.15,833.016 1707.81,831.953 1709.24,831.042 1711.39,829.669 1712.42,829.008 1713.87,828.085 1714.7,827.556 1716.59,826.35 1717.75,825.604 1719.54,824.461 1720.68,823.733 1722.14,822.801 1722.76,822.41 1725.04,820.955 1726.86,819.789 1728.78,818.565 1730.79,817.283 1732.73,816.044 1733.72,815.413 1736.17,813.848 1738.01,812.672 1739.05,812.01 1739.78,811.542 1741.9,810.188 1744.44,808.564 1746.16,807.466 1747.57,806.568 1749.65,805.238 1751.13,804.297 1752.1,803.679 1754.06,802.426 1755.68,801.392 1757.65,800.135 1759.18,799.157 1760.96,798.022 1762.55,797.006 1764.69,795.636 1766.19,794.677 1768.22,793.382 1770.88,791.684 1773.01,790.326 1775.25,788.894 1776.31,788.216 1778.63,786.737 1780.33,785.655 1781.92,784.637 1783.55,783.596 1785.99,782.039 1788.75,780.277 1790.18,779.362 1792.54,777.86 1795.55,775.934 1797.36,774.781 1800.86,772.546 1802.83,771.29 1804.15,770.446 1806.65,768.847 1808.13,767.902 1810.72,766.248 1813.91,764.215 1815.79,763.013 1818.69,761.158 1821.44,759.408 1823.37,758.17 1824.69,757.333 1828.01,755.212 1830.84,753.402 1832.13,752.581 1835.34,750.531 1839.53,747.857 1841.99,746.282 1844.53,744.662 1847.17,742.979 1850.62,740.778 1853.82,738.73 1858.44,735.782 1861.57,733.783 1863.68,732.436 1866.86,730.408 1870.39,728.152 1874.39,725.598 1878.24,723.143 1883.1,720.037 1887.29,717.361 1894.98,712.456 1903.07,707.29 1907.37,704.543 1912.17,701.479 1917.5,698.079 1922.51,694.875 1927.53,691.671 1934.55,687.191 1940.05,683.676 1946.63,679.48 1956.66,673.077 1964.95,667.783 1975.27,661.194 1984.04,655.591 1991.01,651.141 1999.29,645.855 2011.83,637.853 2023.76,630.231 2039.92,619.913 2054.19,610.808 2075.25,597.361 2100.16,581.455 2127.73,563.853 2161.83,542.085 2199.22,518.208 2327.59,436.255 2611.84,254.77 "/>
<circle clip-path="url(#clip721)" cx="539.395" cy="1588.24" r="10.8" fill="#0071b1" fill-rule="evenodd" fill-opacity="0.7" stroke="#000000" stroke-opacity="0.7" stroke-width="4"/>
<circle clip-path="url(#clip721)" cx="1000.19" cy="1330.53" r="10.8" fill="#0071b1" fill-rule="evenodd" fill-opacity="0.7" stroke="#000000" stroke-opacity="0.7" stroke-width="4"/>
<circle clip-path="url(#clip721)" cx="1104.96" cy="1244.22" r="10.8" fill="#0071b1" fill-rule="evenodd" fill-opacity="0.7" stroke="#000000" stroke-opacity="0.7" stroke-width="4"/>
<circle clip-path="url(#clip721)" cx="1165.61" cy="1190.09" r="10.8" fill="#0071b1" fill-rule="evenodd" fill-opacity="0.7" stroke="#000000" stroke-opacity="0.7" stroke-width="4"/>
<circle clip-path="url(#clip721)" cx="1213.2" cy="1151.75" r="10.8" fill="#0071b1" fill-rule="evenodd" fill-opacity="0.7" stroke="#000000" stroke-opacity="0.7" stroke-width="4"/>
<circle clip-path="url(#clip721)" cx="1261.63" cy="1122.08" r="10.8" fill="#0071b1" fill-rule="evenodd" fill-opacity="0.7" stroke="#000000" stroke-opacity="0.7" stroke-width="4"/>
<circle clip-path="url(#clip721)" cx="1294.55" cy="1097.48" r="10.8" fill="#0071b1" fill-rule="evenodd" fill-opacity="0.7" stroke="#000000" stroke-opacity="0.7" stroke-width="4"/>
<circle clip-path="url(#clip721)" cx="1328.35" cy="1077.13" r="10.8" fill="#0071b1" fill-rule="evenodd" fill-opacity="0.7" stroke="#000000" stroke-opacity="0.7" stroke-width="4"/>
<circle clip-path="url(#clip721)" cx="1347.87" cy="1060.14" r="10.8" fill="#0071b1" fill-rule="evenodd" fill-opacity="0.7" stroke="#000000" stroke-opacity="0.7" stroke-width="4"/>
<circle clip-path="url(#clip721)" cx="1366.8" cy="1045.71" r="10.8" fill="#0071b1" fill-rule="evenodd" fill-opacity="0.7" stroke="#000000" stroke-opacity="0.7" stroke-width="4"/>
<circle clip-path="url(#clip721)" cx="1382.8" cy="1033.17" r="10.8" fill="#0071b1" fill-rule="evenodd" fill-opacity="0.7" stroke="#000000" stroke-opacity="0.7" stroke-width="4"/>
<circle clip-path="url(#clip721)" cx="1396.84" cy="1022.27" r="10.8" fill="#0071b1" fill-rule="evenodd" fill-opacity="0.7" stroke="#000000" stroke-opacity="0.7" stroke-width="4"/>
<circle clip-path="url(#clip721)" cx="1408.61" cy="1012.88" r="10.8" fill="#0071b1" fill-rule="evenodd" fill-opacity="0.7" stroke="#000000" stroke-opacity="0.7" stroke-width="4"/>
<circle clip-path="url(#clip721)" cx="1427.62" cy="1004.64" r="10.8" fill="#0071b1" fill-rule="evenodd" fill-opacity="0.7" stroke="#000000" stroke-opacity="0.7" stroke-width="4"/>
<circle clip-path="url(#clip721)" cx="1439.89" cy="997.306" r="10.8" fill="#0071b1" fill-rule="evenodd" fill-opacity="0.7" stroke="#000000" stroke-opacity="0.7" stroke-width="4"/>
<circle clip-path="url(#clip721)" cx="1451.28" cy="990.836" r="10.8" fill="#0071b1" fill-rule="evenodd" fill-opacity="0.7" stroke="#000000" stroke-opacity="0.7" stroke-width="4"/>
<circle clip-path="url(#clip721)" cx="1456.01" cy="985.064" r="10.8" fill="#0071b1" fill-rule="evenodd" fill-opacity="0.7" stroke="#000000" stroke-opacity="0.7" stroke-width="4"/>
<circle clip-path="url(#clip721)" cx="1466" cy="979.899" r="10.8" fill="#0071b1" fill-rule="evenodd" fill-opacity="0.7" stroke="#000000" stroke-opacity="0.7" stroke-width="4"/>
<circle clip-path="url(#clip721)" cx="1476.84" cy="975.022" r="10.8" fill="#0071b1" fill-rule="evenodd" fill-opacity="0.7" stroke="#000000" stroke-opacity="0.7" stroke-width="4"/>
<circle clip-path="url(#clip721)" cx="1483.5" cy="970.201" r="10.8" fill="#0071b1" fill-rule="evenodd" fill-opacity="0.7" stroke="#000000" stroke-opacity="0.7" stroke-width="4"/>
<circle clip-path="url(#clip721)" cx="1490.12" cy="965.422" r="10.8" fill="#0071b1" fill-rule="evenodd" fill-opacity="0.7" stroke="#000000" stroke-opacity="0.7" stroke-width="4"/>
<circle clip-path="url(#clip721)" cx="1496.52" cy="960.647" r="10.8" fill="#0071b1" fill-rule="evenodd" fill-opacity="0.7" stroke="#000000" stroke-opacity="0.7" stroke-width="4"/>
<circle clip-path="url(#clip721)" cx="1503.33" cy="956.03" r="10.8" fill="#0071b1" fill-rule="evenodd" fill-opacity="0.7" stroke="#000000" stroke-opacity="0.7" stroke-width="4"/>
<circle clip-path="url(#clip721)" cx="1511.04" cy="951.807" r="10.8" fill="#0071b1" fill-rule="evenodd" fill-opacity="0.7" stroke="#000000" stroke-opacity="0.7" stroke-width="4"/>
<circle clip-path="url(#clip721)" cx="1519.14" cy="947.799" r="10.8" fill="#0071b1" fill-rule="evenodd" fill-opacity="0.7" stroke="#000000" stroke-opacity="0.7" stroke-width="4"/>
<circle clip-path="url(#clip721)" cx="1526.18" cy="944.144" r="10.8" fill="#0071b1" fill-rule="evenodd" fill-opacity="0.7" stroke="#000000" stroke-opacity="0.7" stroke-width="4"/>
<circle clip-path="url(#clip721)" cx="1532.15" cy="940.832" r="10.8" fill="#0071b1" fill-rule="evenodd" fill-opacity="0.7" stroke="#000000" stroke-opacity="0.7" stroke-width="4"/>
<circle clip-path="url(#clip721)" cx="1537.47" cy="937.797" r="10.8" fill="#0071b1" fill-rule="evenodd" fill-opacity="0.7" stroke="#000000" stroke-opacity="0.7" stroke-width="4"/>
<circle clip-path="url(#clip721)" cx="1541.86" cy="934.739" r="10.8" fill="#0071b1" fill-rule="evenodd" fill-opacity="0.7" stroke="#000000" stroke-opacity="0.7" stroke-width="4"/>
<circle clip-path="url(#clip721)" cx="1548.64" cy="931.534" r="10.8" fill="#0071b1" fill-rule="evenodd" fill-opacity="0.7" stroke="#000000" stroke-opacity="0.7" stroke-width="4"/>
<circle clip-path="url(#clip721)" cx="1554.47" cy="928.202" r="10.8" fill="#0071b1" fill-rule="evenodd" fill-opacity="0.7" stroke="#000000" stroke-opacity="0.7" stroke-width="4"/>
<circle clip-path="url(#clip721)" cx="1560.99" cy="924.866" r="10.8" fill="#0071b1" fill-rule="evenodd" fill-opacity="0.7" stroke="#000000" stroke-opacity="0.7" stroke-width="4"/>
<circle clip-path="url(#clip721)" cx="1564.99" cy="921.567" r="10.8" fill="#0071b1" fill-rule="evenodd" fill-opacity="0.7" stroke="#000000" stroke-opacity="0.7" stroke-width="4"/>
<circle clip-path="url(#clip721)" cx="1569.53" cy="918.395" r="10.8" fill="#0071b1" fill-rule="evenodd" fill-opacity="0.7" stroke="#000000" stroke-opacity="0.7" stroke-width="4"/>
<circle clip-path="url(#clip721)" cx="1572.59" cy="915.466" r="10.8" fill="#0071b1" fill-rule="evenodd" fill-opacity="0.7" stroke="#000000" stroke-opacity="0.7" stroke-width="4"/>
<circle clip-path="url(#clip721)" cx="1577.04" cy="912.79" r="10.8" fill="#0071b1" fill-rule="evenodd" fill-opacity="0.7" stroke="#000000" stroke-opacity="0.7" stroke-width="4"/>
<circle clip-path="url(#clip721)" cx="1580.37" cy="910.41" r="10.8" fill="#0071b1" fill-rule="evenodd" fill-opacity="0.7" stroke="#000000" stroke-opacity="0.7" stroke-width="4"/>
<circle clip-path="url(#clip721)" cx="1584.25" cy="908.302" r="10.8" fill="#0071b1" fill-rule="evenodd" fill-opacity="0.7" stroke="#000000" stroke-opacity="0.7" stroke-width="4"/>
<circle clip-path="url(#clip721)" cx="1589.22" cy="906.394" r="10.8" fill="#0071b1" fill-rule="evenodd" fill-opacity="0.7" stroke="#000000" stroke-opacity="0.7" stroke-width="4"/>
<circle clip-path="url(#clip721)" cx="1592.55" cy="904.563" r="10.8" fill="#0071b1" fill-rule="evenodd" fill-opacity="0.7" stroke="#000000" stroke-opacity="0.7" stroke-width="4"/>
<circle clip-path="url(#clip721)" cx="1595.83" cy="902.536" r="10.8" fill="#0071b1" fill-rule="evenodd" fill-opacity="0.7" stroke="#000000" stroke-opacity="0.7" stroke-width="4"/>
<circle clip-path="url(#clip721)" cx="1598.05" cy="900.315" r="10.8" fill="#0071b1" fill-rule="evenodd" fill-opacity="0.7" stroke="#000000" stroke-opacity="0.7" stroke-width="4"/>
<circle clip-path="url(#clip721)" cx="1602.91" cy="897.963" r="10.8" fill="#0071b1" fill-rule="evenodd" fill-opacity="0.7" stroke="#000000" stroke-opacity="0.7" stroke-width="4"/>
<circle clip-path="url(#clip721)" cx="1605.64" cy="895.706" r="10.8" fill="#0071b1" fill-rule="evenodd" fill-opacity="0.7" stroke="#000000" stroke-opacity="0.7" stroke-width="4"/>
<circle clip-path="url(#clip721)" cx="1608.4" cy="893.611" r="10.8" fill="#0071b1" fill-rule="evenodd" fill-opacity="0.7" stroke="#000000" stroke-opacity="0.7" stroke-width="4"/>
<circle clip-path="url(#clip721)" cx="1610.8" cy="891.749" r="10.8" fill="#0071b1" fill-rule="evenodd" fill-opacity="0.7" stroke="#000000" stroke-opacity="0.7" stroke-width="4"/>
<circle clip-path="url(#clip721)" cx="1614.83" cy="890.197" r="10.8" fill="#0071b1" fill-rule="evenodd" fill-opacity="0.7" stroke="#000000" stroke-opacity="0.7" stroke-width="4"/>
<circle clip-path="url(#clip721)" cx="1618.02" cy="888.914" r="10.8" fill="#0071b1" fill-rule="evenodd" fill-opacity="0.7" stroke="#000000" stroke-opacity="0.7" stroke-width="4"/>
<circle clip-path="url(#clip721)" cx="1620.55" cy="887.643" r="10.8" fill="#0071b1" fill-rule="evenodd" fill-opacity="0.7" stroke="#000000" stroke-opacity="0.7" stroke-width="4"/>
<circle clip-path="url(#clip721)" cx="1623.28" cy="886.148" r="10.8" fill="#0071b1" fill-rule="evenodd" fill-opacity="0.7" stroke="#000000" stroke-opacity="0.7" stroke-width="4"/>
<circle clip-path="url(#clip721)" cx="1625.96" cy="884.411" r="10.8" fill="#0071b1" fill-rule="evenodd" fill-opacity="0.7" stroke="#000000" stroke-opacity="0.7" stroke-width="4"/>
<circle clip-path="url(#clip721)" cx="1628.74" cy="882.477" r="10.8" fill="#0071b1" fill-rule="evenodd" fill-opacity="0.7" stroke="#000000" stroke-opacity="0.7" stroke-width="4"/>
<circle clip-path="url(#clip721)" cx="1633.28" cy="880.433" r="10.8" fill="#0071b1" fill-rule="evenodd" fill-opacity="0.7" stroke="#000000" stroke-opacity="0.7" stroke-width="4"/>
<circle clip-path="url(#clip721)" cx="1636.19" cy="878.42" r="10.8" fill="#0071b1" fill-rule="evenodd" fill-opacity="0.7" stroke="#000000" stroke-opacity="0.7" stroke-width="4"/>
<circle clip-path="url(#clip721)" cx="1637.56" cy="876.557" r="10.8" fill="#0071b1" fill-rule="evenodd" fill-opacity="0.7" stroke="#000000" stroke-opacity="0.7" stroke-width="4"/>
<circle clip-path="url(#clip721)" cx="1640.8" cy="874.846" r="10.8" fill="#0071b1" fill-rule="evenodd" fill-opacity="0.7" stroke="#000000" stroke-opacity="0.7" stroke-width="4"/>
<circle clip-path="url(#clip721)" cx="1643.53" cy="873.317" r="10.8" fill="#0071b1" fill-rule="evenodd" fill-opacity="0.7" stroke="#000000" stroke-opacity="0.7" stroke-width="4"/>
<circle clip-path="url(#clip721)" cx="1645.72" cy="871.952" r="10.8" fill="#0071b1" fill-rule="evenodd" fill-opacity="0.7" stroke="#000000" stroke-opacity="0.7" stroke-width="4"/>
<circle clip-path="url(#clip721)" cx="1648.36" cy="870.741" r="10.8" fill="#0071b1" fill-rule="evenodd" fill-opacity="0.7" stroke="#000000" stroke-opacity="0.7" stroke-width="4"/>
<circle clip-path="url(#clip721)" cx="1650.13" cy="869.66" r="10.8" fill="#0071b1" fill-rule="evenodd" fill-opacity="0.7" stroke="#000000" stroke-opacity="0.7" stroke-width="4"/>
<circle clip-path="url(#clip721)" cx="1651.98" cy="868.652" r="10.8" fill="#0071b1" fill-rule="evenodd" fill-opacity="0.7" stroke="#000000" stroke-opacity="0.7" stroke-width="4"/>
<circle clip-path="url(#clip721)" cx="1654.59" cy="867.534" r="10.8" fill="#0071b1" fill-rule="evenodd" fill-opacity="0.7" stroke="#000000" stroke-opacity="0.7" stroke-width="4"/>
<circle clip-path="url(#clip721)" cx="1656.73" cy="866.304" r="10.8" fill="#0071b1" fill-rule="evenodd" fill-opacity="0.7" stroke="#000000" stroke-opacity="0.7" stroke-width="4"/>
<circle clip-path="url(#clip721)" cx="1659.05" cy="864.978" r="10.8" fill="#0071b1" fill-rule="evenodd" fill-opacity="0.7" stroke="#000000" stroke-opacity="0.7" stroke-width="4"/>
<circle clip-path="url(#clip721)" cx="1661.94" cy="863.544" r="10.8" fill="#0071b1" fill-rule="evenodd" fill-opacity="0.7" stroke="#000000" stroke-opacity="0.7" stroke-width="4"/>
<circle clip-path="url(#clip721)" cx="1664.07" cy="862.027" r="10.8" fill="#0071b1" fill-rule="evenodd" fill-opacity="0.7" stroke="#000000" stroke-opacity="0.7" stroke-width="4"/>
<circle clip-path="url(#clip721)" cx="1666.04" cy="860.451" r="10.8" fill="#0071b1" fill-rule="evenodd" fill-opacity="0.7" stroke="#000000" stroke-opacity="0.7" stroke-width="4"/>
<circle clip-path="url(#clip721)" cx="1667.61" cy="858.834" r="10.8" fill="#0071b1" fill-rule="evenodd" fill-opacity="0.7" stroke="#000000" stroke-opacity="0.7" stroke-width="4"/>
<circle clip-path="url(#clip721)" cx="1669.61" cy="857.266" r="10.8" fill="#0071b1" fill-rule="evenodd" fill-opacity="0.7" stroke="#000000" stroke-opacity="0.7" stroke-width="4"/>
<circle clip-path="url(#clip721)" cx="1672.54" cy="855.781" r="10.8" fill="#0071b1" fill-rule="evenodd" fill-opacity="0.7" stroke="#000000" stroke-opacity="0.7" stroke-width="4"/>
<circle clip-path="url(#clip721)" cx="1674.24" cy="854.397" r="10.8" fill="#0071b1" fill-rule="evenodd" fill-opacity="0.7" stroke="#000000" stroke-opacity="0.7" stroke-width="4"/>
<circle clip-path="url(#clip721)" cx="1676.47" cy="853.088" r="10.8" fill="#0071b1" fill-rule="evenodd" fill-opacity="0.7" stroke="#000000" stroke-opacity="0.7" stroke-width="4"/>
<circle clip-path="url(#clip721)" cx="1678.57" cy="851.898" r="10.8" fill="#0071b1" fill-rule="evenodd" fill-opacity="0.7" stroke="#000000" stroke-opacity="0.7" stroke-width="4"/>
<circle clip-path="url(#clip721)" cx="1680.87" cy="850.826" r="10.8" fill="#0071b1" fill-rule="evenodd" fill-opacity="0.7" stroke="#000000" stroke-opacity="0.7" stroke-width="4"/>
<circle clip-path="url(#clip721)" cx="1682.07" cy="849.775" r="10.8" fill="#0071b1" fill-rule="evenodd" fill-opacity="0.7" stroke="#000000" stroke-opacity="0.7" stroke-width="4"/>
<circle clip-path="url(#clip721)" cx="1685.2" cy="848.661" r="10.8" fill="#0071b1" fill-rule="evenodd" fill-opacity="0.7" stroke="#000000" stroke-opacity="0.7" stroke-width="4"/>
<circle clip-path="url(#clip721)" cx="1686.5" cy="847.479" r="10.8" fill="#0071b1" fill-rule="evenodd" fill-opacity="0.7" stroke="#000000" stroke-opacity="0.7" stroke-width="4"/>
<circle clip-path="url(#clip721)" cx="1687.81" cy="846.265" r="10.8" fill="#0071b1" fill-rule="evenodd" fill-opacity="0.7" stroke="#000000" stroke-opacity="0.7" stroke-width="4"/>
<circle clip-path="url(#clip721)" cx="1688.99" cy="845.028" r="10.8" fill="#0071b1" fill-rule="evenodd" fill-opacity="0.7" stroke="#000000" stroke-opacity="0.7" stroke-width="4"/>
<circle clip-path="url(#clip721)" cx="1690.68" cy="843.856" r="10.8" fill="#0071b1" fill-rule="evenodd" fill-opacity="0.7" stroke="#000000" stroke-opacity="0.7" stroke-width="4"/>
<circle clip-path="url(#clip721)" cx="1692.27" cy="842.768" r="10.8" fill="#0071b1" fill-rule="evenodd" fill-opacity="0.7" stroke="#000000" stroke-opacity="0.7" stroke-width="4"/>
<circle clip-path="url(#clip721)" cx="1693.96" cy="841.776" r="10.8" fill="#0071b1" fill-rule="evenodd" fill-opacity="0.7" stroke="#000000" stroke-opacity="0.7" stroke-width="4"/>
<circle clip-path="url(#clip721)" cx="1695.18" cy="840.908" r="10.8" fill="#0071b1" fill-rule="evenodd" fill-opacity="0.7" stroke="#000000" stroke-opacity="0.7" stroke-width="4"/>
<circle clip-path="url(#clip721)" cx="1697.21" cy="840.14" r="10.8" fill="#0071b1" fill-rule="evenodd" fill-opacity="0.7" stroke="#000000" stroke-opacity="0.7" stroke-width="4"/>
<circle clip-path="url(#clip721)" cx="1698.53" cy="839.421" r="10.8" fill="#0071b1" fill-rule="evenodd" fill-opacity="0.7" stroke="#000000" stroke-opacity="0.7" stroke-width="4"/>
<circle clip-path="url(#clip721)" cx="1699.87" cy="838.581" r="10.8" fill="#0071b1" fill-rule="evenodd" fill-opacity="0.7" stroke="#000000" stroke-opacity="0.7" stroke-width="4"/>
<circle clip-path="url(#clip721)" cx="1701.31" cy="837.621" r="10.8" fill="#0071b1" fill-rule="evenodd" fill-opacity="0.7" stroke="#000000" stroke-opacity="0.7" stroke-width="4"/>
<circle clip-path="url(#clip721)" cx="1703.77" cy="836.525" r="10.8" fill="#0071b1" fill-rule="evenodd" fill-opacity="0.7" stroke="#000000" stroke-opacity="0.7" stroke-width="4"/>
<circle clip-path="url(#clip721)" cx="1705.14" cy="835.319" r="10.8" fill="#0071b1" fill-rule="evenodd" fill-opacity="0.7" stroke="#000000" stroke-opacity="0.7" stroke-width="4"/>
<circle clip-path="url(#clip721)" cx="1706.15" cy="834.071" r="10.8" fill="#0071b1" fill-rule="evenodd" fill-opacity="0.7" stroke="#000000" stroke-opacity="0.7" stroke-width="4"/>
<circle clip-path="url(#clip721)" cx="1707.81" cy="832.878" r="10.8" fill="#0071b1" fill-rule="evenodd" fill-opacity="0.7" stroke="#000000" stroke-opacity="0.7" stroke-width="4"/>
<circle clip-path="url(#clip721)" cx="1709.24" cy="831.785" r="10.8" fill="#0071b1" fill-rule="evenodd" fill-opacity="0.7" stroke="#000000" stroke-opacity="0.7" stroke-width="4"/>
<circle clip-path="url(#clip721)" cx="1711.39" cy="830.806" r="10.8" fill="#0071b1" fill-rule="evenodd" fill-opacity="0.7" stroke="#000000" stroke-opacity="0.7" stroke-width="4"/>
<circle clip-path="url(#clip721)" cx="1712.42" cy="829.96" r="10.8" fill="#0071b1" fill-rule="evenodd" fill-opacity="0.7" stroke="#000000" stroke-opacity="0.7" stroke-width="4"/>
<circle clip-path="url(#clip721)" cx="1713.87" cy="829.206" r="10.8" fill="#0071b1" fill-rule="evenodd" fill-opacity="0.7" stroke="#000000" stroke-opacity="0.7" stroke-width="4"/>
<circle clip-path="url(#clip721)" cx="1714.7" cy="828.435" r="10.8" fill="#0071b1" fill-rule="evenodd" fill-opacity="0.7" stroke="#000000" stroke-opacity="0.7" stroke-width="4"/>
<circle clip-path="url(#clip721)" cx="1716.59" cy="827.598" r="10.8" fill="#0071b1" fill-rule="evenodd" fill-opacity="0.7" stroke="#000000" stroke-opacity="0.7" stroke-width="4"/>
<circle clip-path="url(#clip721)" cx="1717.75" cy="826.714" r="10.8" fill="#0071b1" fill-rule="evenodd" fill-opacity="0.7" stroke="#000000" stroke-opacity="0.7" stroke-width="4"/>
<circle clip-path="url(#clip721)" cx="1719.54" cy="825.768" r="10.8" fill="#0071b1" fill-rule="evenodd" fill-opacity="0.7" stroke="#000000" stroke-opacity="0.7" stroke-width="4"/>
<circle clip-path="url(#clip721)" cx="1720.68" cy="824.817" r="10.8" fill="#0071b1" fill-rule="evenodd" fill-opacity="0.7" stroke="#000000" stroke-opacity="0.7" stroke-width="4"/>
<circle clip-path="url(#clip721)" cx="1722.14" cy="823.872" r="10.8" fill="#0071b1" fill-rule="evenodd" fill-opacity="0.7" stroke="#000000" stroke-opacity="0.7" stroke-width="4"/>
<circle clip-path="url(#clip721)" cx="1722.76" cy="822.955" r="10.8" fill="#0071b1" fill-rule="evenodd" fill-opacity="0.7" stroke="#000000" stroke-opacity="0.7" stroke-width="4"/>
<circle clip-path="url(#clip721)" cx="1725.04" cy="822.062" r="10.8" fill="#0071b1" fill-rule="evenodd" fill-opacity="0.7" stroke="#000000" stroke-opacity="0.7" stroke-width="4"/>
<circle clip-path="url(#clip721)" cx="1726.86" cy="821.12" r="10.8" fill="#0071b1" fill-rule="evenodd" fill-opacity="0.7" stroke="#000000" stroke-opacity="0.7" stroke-width="4"/>
<circle clip-path="url(#clip721)" cx="1728.78" cy="820.079" r="10.8" fill="#0071b1" fill-rule="evenodd" fill-opacity="0.7" stroke="#000000" stroke-opacity="0.7" stroke-width="4"/>
<circle clip-path="url(#clip721)" cx="1730.79" cy="818.965" r="10.8" fill="#0071b1" fill-rule="evenodd" fill-opacity="0.7" stroke="#000000" stroke-opacity="0.7" stroke-width="4"/>
<circle clip-path="url(#clip721)" cx="1732.73" cy="817.777" r="10.8" fill="#0071b1" fill-rule="evenodd" fill-opacity="0.7" stroke="#000000" stroke-opacity="0.7" stroke-width="4"/>
<circle clip-path="url(#clip721)" cx="1733.72" cy="816.525" r="10.8" fill="#0071b1" fill-rule="evenodd" fill-opacity="0.7" stroke="#000000" stroke-opacity="0.7" stroke-width="4"/>
<circle clip-path="url(#clip721)" cx="1736.17" cy="815.204" r="10.8" fill="#0071b1" fill-rule="evenodd" fill-opacity="0.7" stroke="#000000" stroke-opacity="0.7" stroke-width="4"/>
<circle clip-path="url(#clip721)" cx="1738.01" cy="813.904" r="10.8" fill="#0071b1" fill-rule="evenodd" fill-opacity="0.7" stroke="#000000" stroke-opacity="0.7" stroke-width="4"/>
<circle clip-path="url(#clip721)" cx="1739.05" cy="812.607" r="10.8" fill="#0071b1" fill-rule="evenodd" fill-opacity="0.7" stroke="#000000" stroke-opacity="0.7" stroke-width="4"/>
<circle clip-path="url(#clip721)" cx="1739.78" cy="811.375" r="10.8" fill="#0071b1" fill-rule="evenodd" fill-opacity="0.7" stroke="#000000" stroke-opacity="0.7" stroke-width="4"/>
<circle clip-path="url(#clip721)" cx="1741.9" cy="810.215" r="10.8" fill="#0071b1" fill-rule="evenodd" fill-opacity="0.7" stroke="#000000" stroke-opacity="0.7" stroke-width="4"/>
<circle clip-path="url(#clip721)" cx="1744.44" cy="809.148" r="10.8" fill="#0071b1" fill-rule="evenodd" fill-opacity="0.7" stroke="#000000" stroke-opacity="0.7" stroke-width="4"/>
<circle clip-path="url(#clip721)" cx="1746.16" cy="808.145" r="10.8" fill="#0071b1" fill-rule="evenodd" fill-opacity="0.7" stroke="#000000" stroke-opacity="0.7" stroke-width="4"/>
<circle clip-path="url(#clip721)" cx="1747.57" cy="807.239" r="10.8" fill="#0071b1" fill-rule="evenodd" fill-opacity="0.7" stroke="#000000" stroke-opacity="0.7" stroke-width="4"/>
<circle clip-path="url(#clip721)" cx="1749.65" cy="806.312" r="10.8" fill="#0071b1" fill-rule="evenodd" fill-opacity="0.7" stroke="#000000" stroke-opacity="0.7" stroke-width="4"/>
<circle clip-path="url(#clip721)" cx="1751.13" cy="805.316" r="10.8" fill="#0071b1" fill-rule="evenodd" fill-opacity="0.7" stroke="#000000" stroke-opacity="0.7" stroke-width="4"/>
<circle clip-path="url(#clip721)" cx="1752.1" cy="804.273" r="10.8" fill="#0071b1" fill-rule="evenodd" fill-opacity="0.7" stroke="#000000" stroke-opacity="0.7" stroke-width="4"/>
<circle clip-path="url(#clip721)" cx="1754.06" cy="803.183" r="10.8" fill="#0071b1" fill-rule="evenodd" fill-opacity="0.7" stroke="#000000" stroke-opacity="0.7" stroke-width="4"/>
<circle clip-path="url(#clip721)" cx="1755.68" cy="802.061" r="10.8" fill="#0071b1" fill-rule="evenodd" fill-opacity="0.7" stroke="#000000" stroke-opacity="0.7" stroke-width="4"/>
<circle clip-path="url(#clip721)" cx="1757.65" cy="800.923" r="10.8" fill="#0071b1" fill-rule="evenodd" fill-opacity="0.7" stroke="#000000" stroke-opacity="0.7" stroke-width="4"/>
<circle clip-path="url(#clip721)" cx="1759.18" cy="799.797" r="10.8" fill="#0071b1" fill-rule="evenodd" fill-opacity="0.7" stroke="#000000" stroke-opacity="0.7" stroke-width="4"/>
<circle clip-path="url(#clip721)" cx="1760.96" cy="798.721" r="10.8" fill="#0071b1" fill-rule="evenodd" fill-opacity="0.7" stroke="#000000" stroke-opacity="0.7" stroke-width="4"/>
<circle clip-path="url(#clip721)" cx="1762.55" cy="797.691" r="10.8" fill="#0071b1" fill-rule="evenodd" fill-opacity="0.7" stroke="#000000" stroke-opacity="0.7" stroke-width="4"/>
<circle clip-path="url(#clip721)" cx="1764.69" cy="796.601" r="10.8" fill="#0071b1" fill-rule="evenodd" fill-opacity="0.7" stroke="#000000" stroke-opacity="0.7" stroke-width="4"/>
<circle clip-path="url(#clip721)" cx="1766.19" cy="795.426" r="10.8" fill="#0071b1" fill-rule="evenodd" fill-opacity="0.7" stroke="#000000" stroke-opacity="0.7" stroke-width="4"/>
<circle clip-path="url(#clip721)" cx="1768.22" cy="794.138" r="10.8" fill="#0071b1" fill-rule="evenodd" fill-opacity="0.7" stroke="#000000" stroke-opacity="0.7" stroke-width="4"/>
<circle clip-path="url(#clip721)" cx="1770.88" cy="792.743" r="10.8" fill="#0071b1" fill-rule="evenodd" fill-opacity="0.7" stroke="#000000" stroke-opacity="0.7" stroke-width="4"/>
<circle clip-path="url(#clip721)" cx="1773.01" cy="791.267" r="10.8" fill="#0071b1" fill-rule="evenodd" fill-opacity="0.7" stroke="#000000" stroke-opacity="0.7" stroke-width="4"/>
<circle clip-path="url(#clip721)" cx="1775.25" cy="789.726" r="10.8" fill="#0071b1" fill-rule="evenodd" fill-opacity="0.7" stroke="#000000" stroke-opacity="0.7" stroke-width="4"/>
<circle clip-path="url(#clip721)" cx="1776.31" cy="788.174" r="10.8" fill="#0071b1" fill-rule="evenodd" fill-opacity="0.7" stroke="#000000" stroke-opacity="0.7" stroke-width="4"/>
<circle clip-path="url(#clip721)" cx="1778.63" cy="786.655" r="10.8" fill="#0071b1" fill-rule="evenodd" fill-opacity="0.7" stroke="#000000" stroke-opacity="0.7" stroke-width="4"/>
<circle clip-path="url(#clip721)" cx="1780.33" cy="785.152" r="10.8" fill="#0071b1" fill-rule="evenodd" fill-opacity="0.7" stroke="#000000" stroke-opacity="0.7" stroke-width="4"/>
<circle clip-path="url(#clip721)" cx="1781.92" cy="783.744" r="10.8" fill="#0071b1" fill-rule="evenodd" fill-opacity="0.7" stroke="#000000" stroke-opacity="0.7" stroke-width="4"/>
<circle clip-path="url(#clip721)" cx="1783.55" cy="782.406" r="10.8" fill="#0071b1" fill-rule="evenodd" fill-opacity="0.7" stroke="#000000" stroke-opacity="0.7" stroke-width="4"/>
<circle clip-path="url(#clip721)" cx="1785.99" cy="781.167" r="10.8" fill="#0071b1" fill-rule="evenodd" fill-opacity="0.7" stroke="#000000" stroke-opacity="0.7" stroke-width="4"/>
<circle clip-path="url(#clip721)" cx="1788.75" cy="779.998" r="10.8" fill="#0071b1" fill-rule="evenodd" fill-opacity="0.7" stroke="#000000" stroke-opacity="0.7" stroke-width="4"/>
<circle clip-path="url(#clip721)" cx="1790.18" cy="778.783" r="10.8" fill="#0071b1" fill-rule="evenodd" fill-opacity="0.7" stroke="#000000" stroke-opacity="0.7" stroke-width="4"/>
<circle clip-path="url(#clip721)" cx="1792.54" cy="777.487" r="10.8" fill="#0071b1" fill-rule="evenodd" fill-opacity="0.7" stroke="#000000" stroke-opacity="0.7" stroke-width="4"/>
<circle clip-path="url(#clip721)" cx="1795.55" cy="776.114" r="10.8" fill="#0071b1" fill-rule="evenodd" fill-opacity="0.7" stroke="#000000" stroke-opacity="0.7" stroke-width="4"/>
<circle clip-path="url(#clip721)" cx="1797.36" cy="774.656" r="10.8" fill="#0071b1" fill-rule="evenodd" fill-opacity="0.7" stroke="#000000" stroke-opacity="0.7" stroke-width="4"/>
<circle clip-path="url(#clip721)" cx="1800.86" cy="773.138" r="10.8" fill="#0071b1" fill-rule="evenodd" fill-opacity="0.7" stroke="#000000" stroke-opacity="0.7" stroke-width="4"/>
<circle clip-path="url(#clip721)" cx="1802.83" cy="771.588" r="10.8" fill="#0071b1" fill-rule="evenodd" fill-opacity="0.7" stroke="#000000" stroke-opacity="0.7" stroke-width="4"/>
<circle clip-path="url(#clip721)" cx="1804.15" cy="770.056" r="10.8" fill="#0071b1" fill-rule="evenodd" fill-opacity="0.7" stroke="#000000" stroke-opacity="0.7" stroke-width="4"/>
<circle clip-path="url(#clip721)" cx="1806.65" cy="768.533" r="10.8" fill="#0071b1" fill-rule="evenodd" fill-opacity="0.7" stroke="#000000" stroke-opacity="0.7" stroke-width="4"/>
<circle clip-path="url(#clip721)" cx="1808.13" cy="767.032" r="10.8" fill="#0071b1" fill-rule="evenodd" fill-opacity="0.7" stroke="#000000" stroke-opacity="0.7" stroke-width="4"/>
<circle clip-path="url(#clip721)" cx="1810.72" cy="765.608" r="10.8" fill="#0071b1" fill-rule="evenodd" fill-opacity="0.7" stroke="#000000" stroke-opacity="0.7" stroke-width="4"/>
<circle clip-path="url(#clip721)" cx="1813.91" cy="764.26" r="10.8" fill="#0071b1" fill-rule="evenodd" fill-opacity="0.7" stroke="#000000" stroke-opacity="0.7" stroke-width="4"/>
<circle clip-path="url(#clip721)" cx="1815.79" cy="762.995" r="10.8" fill="#0071b1" fill-rule="evenodd" fill-opacity="0.7" stroke="#000000" stroke-opacity="0.7" stroke-width="4"/>
<circle clip-path="url(#clip721)" cx="1818.69" cy="761.717" r="10.8" fill="#0071b1" fill-rule="evenodd" fill-opacity="0.7" stroke="#000000" stroke-opacity="0.7" stroke-width="4"/>
<circle clip-path="url(#clip721)" cx="1821.44" cy="760.343" r="10.8" fill="#0071b1" fill-rule="evenodd" fill-opacity="0.7" stroke="#000000" stroke-opacity="0.7" stroke-width="4"/>
<circle clip-path="url(#clip721)" cx="1823.37" cy="758.842" r="10.8" fill="#0071b1" fill-rule="evenodd" fill-opacity="0.7" stroke="#000000" stroke-opacity="0.7" stroke-width="4"/>
<circle clip-path="url(#clip721)" cx="1824.69" cy="757.205" r="10.8" fill="#0071b1" fill-rule="evenodd" fill-opacity="0.7" stroke="#000000" stroke-opacity="0.7" stroke-width="4"/>
<circle clip-path="url(#clip721)" cx="1828.01" cy="755.432" r="10.8" fill="#0071b1" fill-rule="evenodd" fill-opacity="0.7" stroke="#000000" stroke-opacity="0.7" stroke-width="4"/>
<circle clip-path="url(#clip721)" cx="1830.84" cy="753.565" r="10.8" fill="#0071b1" fill-rule="evenodd" fill-opacity="0.7" stroke="#000000" stroke-opacity="0.7" stroke-width="4"/>
<circle clip-path="url(#clip721)" cx="1832.13" cy="751.578" r="10.8" fill="#0071b1" fill-rule="evenodd" fill-opacity="0.7" stroke="#000000" stroke-opacity="0.7" stroke-width="4"/>
<circle clip-path="url(#clip721)" cx="1835.34" cy="749.566" r="10.8" fill="#0071b1" fill-rule="evenodd" fill-opacity="0.7" stroke="#000000" stroke-opacity="0.7" stroke-width="4"/>
<circle clip-path="url(#clip721)" cx="1839.53" cy="747.503" r="10.8" fill="#0071b1" fill-rule="evenodd" fill-opacity="0.7" stroke="#000000" stroke-opacity="0.7" stroke-width="4"/>
<circle clip-path="url(#clip721)" cx="1841.99" cy="745.423" r="10.8" fill="#0071b1" fill-rule="evenodd" fill-opacity="0.7" stroke="#000000" stroke-opacity="0.7" stroke-width="4"/>
<circle clip-path="url(#clip721)" cx="1844.53" cy="743.452" r="10.8" fill="#0071b1" fill-rule="evenodd" fill-opacity="0.7" stroke="#000000" stroke-opacity="0.7" stroke-width="4"/>
<circle clip-path="url(#clip721)" cx="1847.17" cy="741.612" r="10.8" fill="#0071b1" fill-rule="evenodd" fill-opacity="0.7" stroke="#000000" stroke-opacity="0.7" stroke-width="4"/>
<circle clip-path="url(#clip721)" cx="1850.62" cy="739.801" r="10.8" fill="#0071b1" fill-rule="evenodd" fill-opacity="0.7" stroke="#000000" stroke-opacity="0.7" stroke-width="4"/>
<circle clip-path="url(#clip721)" cx="1853.82" cy="737.897" r="10.8" fill="#0071b1" fill-rule="evenodd" fill-opacity="0.7" stroke="#000000" stroke-opacity="0.7" stroke-width="4"/>
<circle clip-path="url(#clip721)" cx="1858.44" cy="735.931" r="10.8" fill="#0071b1" fill-rule="evenodd" fill-opacity="0.7" stroke="#000000" stroke-opacity="0.7" stroke-width="4"/>
<circle clip-path="url(#clip721)" cx="1861.57" cy="733.985" r="10.8" fill="#0071b1" fill-rule="evenodd" fill-opacity="0.7" stroke="#000000" stroke-opacity="0.7" stroke-width="4"/>
<circle clip-path="url(#clip721)" cx="1863.68" cy="732.115" r="10.8" fill="#0071b1" fill-rule="evenodd" fill-opacity="0.7" stroke="#000000" stroke-opacity="0.7" stroke-width="4"/>
<circle clip-path="url(#clip721)" cx="1866.86" cy="730.148" r="10.8" fill="#0071b1" fill-rule="evenodd" fill-opacity="0.7" stroke="#000000" stroke-opacity="0.7" stroke-width="4"/>
<circle clip-path="url(#clip721)" cx="1870.39" cy="727.879" r="10.8" fill="#0071b1" fill-rule="evenodd" fill-opacity="0.7" stroke="#000000" stroke-opacity="0.7" stroke-width="4"/>
<circle clip-path="url(#clip721)" cx="1874.39" cy="725.178" r="10.8" fill="#0071b1" fill-rule="evenodd" fill-opacity="0.7" stroke="#000000" stroke-opacity="0.7" stroke-width="4"/>
<circle clip-path="url(#clip721)" cx="1878.24" cy="722.085" r="10.8" fill="#0071b1" fill-rule="evenodd" fill-opacity="0.7" stroke="#000000" stroke-opacity="0.7" stroke-width="4"/>
<circle clip-path="url(#clip721)" cx="1883.1" cy="718.534" r="10.8" fill="#0071b1" fill-rule="evenodd" fill-opacity="0.7" stroke="#000000" stroke-opacity="0.7" stroke-width="4"/>
<circle clip-path="url(#clip721)" cx="1887.29" cy="714.681" r="10.8" fill="#0071b1" fill-rule="evenodd" fill-opacity="0.7" stroke="#000000" stroke-opacity="0.7" stroke-width="4"/>
<circle clip-path="url(#clip721)" cx="1894.98" cy="710.695" r="10.8" fill="#0071b1" fill-rule="evenodd" fill-opacity="0.7" stroke="#000000" stroke-opacity="0.7" stroke-width="4"/>
<circle clip-path="url(#clip721)" cx="1903.07" cy="706.687" r="10.8" fill="#0071b1" fill-rule="evenodd" fill-opacity="0.7" stroke="#000000" stroke-opacity="0.7" stroke-width="4"/>
<circle clip-path="url(#clip721)" cx="1907.37" cy="702.805" r="10.8" fill="#0071b1" fill-rule="evenodd" fill-opacity="0.7" stroke="#000000" stroke-opacity="0.7" stroke-width="4"/>
<circle clip-path="url(#clip721)" cx="1912.17" cy="699.188" r="10.8" fill="#0071b1" fill-rule="evenodd" fill-opacity="0.7" stroke="#000000" stroke-opacity="0.7" stroke-width="4"/>
<circle clip-path="url(#clip721)" cx="1917.5" cy="695.845" r="10.8" fill="#0071b1" fill-rule="evenodd" fill-opacity="0.7" stroke="#000000" stroke-opacity="0.7" stroke-width="4"/>
<circle clip-path="url(#clip721)" cx="1922.51" cy="692.279" r="10.8" fill="#0071b1" fill-rule="evenodd" fill-opacity="0.7" stroke="#000000" stroke-opacity="0.7" stroke-width="4"/>
<circle clip-path="url(#clip721)" cx="1927.53" cy="688.394" r="10.8" fill="#0071b1" fill-rule="evenodd" fill-opacity="0.7" stroke="#000000" stroke-opacity="0.7" stroke-width="4"/>
<circle clip-path="url(#clip721)" cx="1934.55" cy="684.205" r="10.8" fill="#0071b1" fill-rule="evenodd" fill-opacity="0.7" stroke="#000000" stroke-opacity="0.7" stroke-width="4"/>
<circle clip-path="url(#clip721)" cx="1940.05" cy="679.546" r="10.8" fill="#0071b1" fill-rule="evenodd" fill-opacity="0.7" stroke="#000000" stroke-opacity="0.7" stroke-width="4"/>
<circle clip-path="url(#clip721)" cx="1946.63" cy="674.533" r="10.8" fill="#0071b1" fill-rule="evenodd" fill-opacity="0.7" stroke="#000000" stroke-opacity="0.7" stroke-width="4"/>
<circle clip-path="url(#clip721)" cx="1956.66" cy="669.274" r="10.8" fill="#0071b1" fill-rule="evenodd" fill-opacity="0.7" stroke="#000000" stroke-opacity="0.7" stroke-width="4"/>
<circle clip-path="url(#clip721)" cx="1964.95" cy="663.824" r="10.8" fill="#0071b1" fill-rule="evenodd" fill-opacity="0.7" stroke="#000000" stroke-opacity="0.7" stroke-width="4"/>
<circle clip-path="url(#clip721)" cx="1975.27" cy="658.394" r="10.8" fill="#0071b1" fill-rule="evenodd" fill-opacity="0.7" stroke="#000000" stroke-opacity="0.7" stroke-width="4"/>
<circle clip-path="url(#clip721)" cx="1984.04" cy="652.895" r="10.8" fill="#0071b1" fill-rule="evenodd" fill-opacity="0.7" stroke="#000000" stroke-opacity="0.7" stroke-width="4"/>
<circle clip-path="url(#clip721)" cx="1991.01" cy="647.116" r="10.8" fill="#0071b1" fill-rule="evenodd" fill-opacity="0.7" stroke="#000000" stroke-opacity="0.7" stroke-width="4"/>
<circle clip-path="url(#clip721)" cx="1999.29" cy="640.719" r="10.8" fill="#0071b1" fill-rule="evenodd" fill-opacity="0.7" stroke="#000000" stroke-opacity="0.7" stroke-width="4"/>
<circle clip-path="url(#clip721)" cx="2011.83" cy="633.493" r="10.8" fill="#0071b1" fill-rule="evenodd" fill-opacity="0.7" stroke="#000000" stroke-opacity="0.7" stroke-width="4"/>
<circle clip-path="url(#clip721)" cx="2023.76" cy="625.272" r="10.8" fill="#0071b1" fill-rule="evenodd" fill-opacity="0.7" stroke="#000000" stroke-opacity="0.7" stroke-width="4"/>
<circle clip-path="url(#clip721)" cx="2039.92" cy="615.911" r="10.8" fill="#0071b1" fill-rule="evenodd" fill-opacity="0.7" stroke="#000000" stroke-opacity="0.7" stroke-width="4"/>
<circle clip-path="url(#clip721)" cx="2054.19" cy="604.946" r="10.8" fill="#0071b1" fill-rule="evenodd" fill-opacity="0.7" stroke="#000000" stroke-opacity="0.7" stroke-width="4"/>
<circle clip-path="url(#clip721)" cx="2075.25" cy="591.655" r="10.8" fill="#0071b1" fill-rule="evenodd" fill-opacity="0.7" stroke="#000000" stroke-opacity="0.7" stroke-width="4"/>
<circle clip-path="url(#clip721)" cx="2100.16" cy="575.696" r="10.8" fill="#0071b1" fill-rule="evenodd" fill-opacity="0.7" stroke="#000000" stroke-opacity="0.7" stroke-width="4"/>
<circle clip-path="url(#clip721)" cx="2127.73" cy="555.214" r="10.8" fill="#0071b1" fill-rule="evenodd" fill-opacity="0.7" stroke="#000000" stroke-opacity="0.7" stroke-width="4"/>
<circle clip-path="url(#clip721)" cx="2161.83" cy="527.484" r="10.8" fill="#0071b1" fill-rule="evenodd" fill-opacity="0.7" stroke="#000000" stroke-opacity="0.7" stroke-width="4"/>
<circle clip-path="url(#clip721)" cx="2199.22" cy="485.557" r="10.8" fill="#0071b1" fill-rule="evenodd" fill-opacity="0.7" stroke="#000000" stroke-opacity="0.7" stroke-width="4"/>
<circle clip-path="url(#clip721)" cx="2327.59" cy="412.41" r="10.8" fill="#0071b1" fill-rule="evenodd" fill-opacity="0.7" stroke="#000000" stroke-opacity="0.7" stroke-width="4"/>
<circle clip-path="url(#clip721)" cx="2611.84" cy="168.574" r="10.8" fill="#0071b1" fill-rule="evenodd" fill-opacity="0.7" stroke="#000000" stroke-opacity="0.7" stroke-width="4"/>
<path clip-path="url(#clip720)" d="M550.448 351.106 L1213.69 351.106 L1213.69 176.146 L550.448 176.146  Z" fill="#ffffff" fill-rule="evenodd" fill-opacity="1"/>
<polyline clip-path="url(#clip720)" style="stroke:#000000; stroke-linecap:round; stroke-linejoin:round; stroke-width:4; stroke-opacity:1; fill:none" points="550.448,351.106 1213.69,351.106 1213.69,176.146 550.448,176.146 550.448,351.106 "/>
<polyline clip-path="url(#clip720)" style="stroke:#000000; stroke-linecap:round; stroke-linejoin:round; stroke-width:9; stroke-opacity:1; fill:none" stroke-dasharray="36, 23" points="574.857,234.466 721.31,234.466 "/>
<path clip-path="url(#clip720)" d="M745.719 215.026 L750.979 215.026 L750.979 253.906 L745.719 253.906 L745.719 215.026 Z" fill="#000000" fill-rule="nonzero" fill-opacity="1" /><path clip-path="url(#clip720)" d="M780.432 229.166 L780.432 213.385 L785.224 213.385 L785.224 253.906 L780.432 253.906 L780.432 249.531 Q778.922 252.135 776.604 253.411 Q774.313 254.661 771.083 254.661 Q765.797 254.661 762.464 250.442 Q759.156 246.224 759.156 239.349 Q759.156 232.474 762.464 228.255 Q765.797 224.036 771.083 224.036 Q774.313 224.036 776.604 225.312 Q778.922 226.562 780.432 229.166 M764.104 239.349 Q764.104 244.635 766.266 247.656 Q768.453 250.651 772.255 250.651 Q776.057 250.651 778.245 247.656 Q780.432 244.635 780.432 239.349 Q780.432 234.062 778.245 231.067 Q776.057 228.047 772.255 228.047 Q768.453 228.047 766.266 231.067 Q764.104 234.062 764.104 239.349 Z" fill="#000000" fill-rule="nonzero" fill-opacity="1" /><path clip-path="url(#clip720)" d="M820.042 238.125 L820.042 240.468 L798.01 240.468 Q798.323 245.416 800.979 248.02 Q803.661 250.599 808.427 250.599 Q811.187 250.599 813.766 249.921 Q816.37 249.244 818.922 247.89 L818.922 252.421 Q816.344 253.515 813.635 254.088 Q810.927 254.661 808.141 254.661 Q801.161 254.661 797.073 250.599 Q793.01 246.536 793.01 239.609 Q793.01 232.448 796.865 228.255 Q800.745 224.036 807.307 224.036 Q813.193 224.036 816.604 227.838 Q820.042 231.614 820.042 238.125 M815.25 236.718 Q815.198 232.786 813.036 230.442 Q810.901 228.099 807.359 228.099 Q803.349 228.099 800.927 230.364 Q798.531 232.63 798.167 236.744 L815.25 236.718 Z" fill="#000000" fill-rule="nonzero" fill-opacity="1" /><path clip-path="url(#clip720)" d="M852.151 236.302 L852.151 253.906 L847.359 253.906 L847.359 236.458 Q847.359 232.317 845.745 230.26 Q844.13 228.203 840.901 228.203 Q837.021 228.203 834.781 230.677 Q832.541 233.151 832.541 237.422 L832.541 253.906 L827.724 253.906 L827.724 224.739 L832.541 224.739 L832.541 229.271 Q834.26 226.64 836.578 225.338 Q838.922 224.036 841.968 224.036 Q846.995 224.036 849.573 227.161 Q852.151 230.26 852.151 236.302 Z" fill="#000000" fill-rule="nonzero" fill-opacity="1" /><path clip-path="url(#clip720)" d="M866.448 216.458 L866.448 224.739 L876.317 224.739 L876.317 228.463 L866.448 228.463 L866.448 244.297 Q866.448 247.864 867.411 248.88 Q868.401 249.895 871.395 249.895 L876.317 249.895 L876.317 253.906 L871.395 253.906 Q865.849 253.906 863.739 251.849 Q861.63 249.765 861.63 244.297 L861.63 228.463 L858.114 228.463 L858.114 224.739 L861.63 224.739 L861.63 216.458 L866.448 216.458 Z" fill="#000000" fill-rule="nonzero" fill-opacity="1" /><path clip-path="url(#clip720)" d="M882.619 224.739 L887.411 224.739 L887.411 253.906 L882.619 253.906 L882.619 224.739 M882.619 213.385 L887.411 213.385 L887.411 219.453 L882.619 219.453 L882.619 213.385 Z" fill="#000000" fill-rule="nonzero" fill-opacity="1" /><path clip-path="url(#clip720)" d="M902.176 216.458 L902.176 224.739 L912.046 224.739 L912.046 228.463 L902.176 228.463 L902.176 244.297 Q902.176 247.864 903.14 248.88 Q904.13 249.895 907.124 249.895 L912.046 249.895 L912.046 253.906 L907.124 253.906 Q901.578 253.906 899.468 251.849 Q897.359 249.765 897.359 244.297 L897.359 228.463 L893.843 228.463 L893.843 224.739 L897.359 224.739 L897.359 216.458 L902.176 216.458 Z" fill="#000000" fill-rule="nonzero" fill-opacity="1" /><path clip-path="url(#clip720)" d="M930.484 256.614 Q928.452 261.822 926.525 263.411 Q924.598 265 921.369 265 L917.541 265 L917.541 260.989 L920.353 260.989 Q922.333 260.989 923.426 260.052 Q924.52 259.114 925.848 255.625 L926.708 253.437 L914.911 224.739 L919.989 224.739 L929.103 247.552 L938.218 224.739 L943.296 224.739 L930.484 256.614 Z" fill="#000000" fill-rule="nonzero" fill-opacity="1" /><path clip-path="url(#clip720)" d="M978.374 213.437 Q974.884 219.427 973.192 225.286 Q971.499 231.146 971.499 237.161 Q971.499 243.177 973.192 249.088 Q974.91 254.974 978.374 260.937 L974.207 260.937 Q970.301 254.817 968.348 248.906 Q966.421 242.994 966.421 237.161 Q966.421 231.354 968.348 225.468 Q970.275 219.583 974.207 213.437 L978.374 213.437 Z" fill="#000000" fill-rule="nonzero" fill-opacity="1" /><path clip-path="url(#clip720)" d="M992.306 249.531 L992.306 265 L987.489 265 L987.489 224.739 L992.306 224.739 L992.306 229.166 Q993.817 226.562 996.108 225.312 Q998.426 224.036 1001.63 224.036 Q1006.94 224.036 1010.25 228.255 Q1013.58 232.474 1013.58 239.349 Q1013.58 246.224 1010.25 250.442 Q1006.94 254.661 1001.63 254.661 Q998.426 254.661 996.108 253.411 Q993.817 252.135 992.306 249.531 M1008.61 239.349 Q1008.61 234.062 1006.42 231.067 Q1004.26 228.047 1000.46 228.047 Q996.655 228.047 994.468 231.067 Q992.306 234.062 992.306 239.349 Q992.306 244.635 994.468 247.656 Q996.655 250.651 1000.46 250.651 Q1004.26 250.651 1006.42 247.656 Q1008.61 244.635 1008.61 239.349 Z" fill="#000000" fill-rule="nonzero" fill-opacity="1" /><path clip-path="url(#clip720)" d="M1046.47 238.125 L1046.47 240.468 L1024.44 240.468 Q1024.75 245.416 1027.41 248.02 Q1030.09 250.599 1034.86 250.599 Q1037.62 250.599 1040.2 249.921 Q1042.8 249.244 1045.35 247.89 L1045.35 252.421 Q1042.77 253.515 1040.07 254.088 Q1037.36 254.661 1034.57 254.661 Q1027.59 254.661 1023.5 250.599 Q1019.44 246.536 1019.44 239.609 Q1019.44 232.448 1023.3 228.255 Q1027.18 224.036 1033.74 224.036 Q1039.62 224.036 1043.04 227.838 Q1046.47 231.614 1046.47 238.125 M1041.68 236.718 Q1041.63 232.786 1039.47 230.442 Q1037.33 228.099 1033.79 228.099 Q1029.78 228.099 1027.36 230.364 Q1024.96 232.63 1024.6 236.744 L1041.68 236.718 Z" fill="#000000" fill-rule="nonzero" fill-opacity="1" /><path clip-path="url(#clip720)" d="M1071.24 229.218 Q1070.43 228.75 1069.47 228.541 Q1068.53 228.307 1067.38 228.307 Q1063.32 228.307 1061.13 230.963 Q1058.97 233.593 1058.97 238.541 L1058.97 253.906 L1054.15 253.906 L1054.15 224.739 L1058.97 224.739 L1058.97 229.271 Q1060.48 226.614 1062.9 225.338 Q1065.33 224.036 1068.79 224.036 Q1069.28 224.036 1069.88 224.114 Q1070.48 224.166 1071.21 224.297 L1071.24 229.218 Z" fill="#000000" fill-rule="nonzero" fill-opacity="1" /><path clip-path="url(#clip720)" d="M1091.03 213.385 L1091.03 217.37 L1086.45 217.37 Q1083.87 217.37 1082.85 218.411 Q1081.86 219.453 1081.86 222.161 L1081.86 224.739 L1089.75 224.739 L1089.75 228.463 L1081.86 228.463 L1081.86 253.906 L1077.05 253.906 L1077.05 228.463 L1072.46 228.463 L1072.46 224.739 L1077.05 224.739 L1077.05 222.708 Q1077.05 217.838 1079.31 215.625 Q1081.58 213.385 1086.5 213.385 L1091.03 213.385 Z" fill="#000000" fill-rule="nonzero" fill-opacity="1" /><path clip-path="url(#clip720)" d="M1119.99 238.125 L1119.99 240.468 L1097.96 240.468 Q1098.27 245.416 1100.93 248.02 Q1103.61 250.599 1108.37 250.599 Q1111.13 250.599 1113.71 249.921 Q1116.32 249.244 1118.87 247.89 L1118.87 252.421 Q1116.29 253.515 1113.58 254.088 Q1110.87 254.661 1108.09 254.661 Q1101.11 254.661 1097.02 250.599 Q1092.96 246.536 1092.96 239.609 Q1092.96 232.448 1096.81 228.255 Q1100.69 224.036 1107.25 224.036 Q1113.14 224.036 1116.55 227.838 Q1119.99 231.614 1119.99 238.125 M1115.2 236.718 Q1115.14 232.786 1112.98 230.442 Q1110.85 228.099 1107.31 228.099 Q1103.3 228.099 1100.87 230.364 Q1098.48 232.63 1098.11 236.744 L1115.2 236.718 Z" fill="#000000" fill-rule="nonzero" fill-opacity="1" /><path clip-path="url(#clip720)" d="M1148.84 225.859 L1148.84 230.338 Q1146.81 229.218 1144.75 228.672 Q1142.72 228.099 1140.64 228.099 Q1135.98 228.099 1133.4 231.067 Q1130.82 234.01 1130.82 239.349 Q1130.82 244.687 1133.4 247.656 Q1135.98 250.599 1140.64 250.599 Q1142.72 250.599 1144.75 250.052 Q1146.81 249.479 1148.84 248.359 L1148.84 252.786 Q1146.84 253.724 1144.68 254.192 Q1142.54 254.661 1140.12 254.661 Q1133.53 254.661 1129.65 250.52 Q1125.77 246.38 1125.77 239.349 Q1125.77 232.213 1129.68 228.125 Q1133.61 224.036 1140.43 224.036 Q1142.64 224.036 1144.75 224.505 Q1146.86 224.948 1148.84 225.859 Z" fill="#000000" fill-rule="nonzero" fill-opacity="1" /><path clip-path="url(#clip720)" d="M1161.91 216.458 L1161.91 224.739 L1171.78 224.739 L1171.78 228.463 L1161.91 228.463 L1161.91 244.297 Q1161.91 247.864 1162.88 248.88 Q1163.87 249.895 1166.86 249.895 L1171.78 249.895 L1171.78 253.906 L1166.86 253.906 Q1161.32 253.906 1159.21 251.849 Q1157.1 249.765 1157.1 244.297 L1157.1 228.463 L1153.58 228.463 L1153.58 224.739 L1157.1 224.739 L1157.1 216.458 L1161.91 216.458 Z" fill="#000000" fill-rule="nonzero" fill-opacity="1" /><path clip-path="url(#clip720)" d="M1177.33 213.437 L1181.5 213.437 Q1185.4 219.583 1187.33 225.468 Q1189.28 231.354 1189.28 237.161 Q1189.28 242.994 1187.33 248.906 Q1185.4 254.817 1181.5 260.937 L1177.33 260.937 Q1180.79 254.974 1182.49 249.088 Q1184.21 243.177 1184.21 237.161 Q1184.21 231.146 1182.49 225.286 Q1180.79 219.427 1177.33 213.437 Z" fill="#000000" fill-rule="nonzero" fill-opacity="1" /><circle clip-path="url(#clip720)" cx="648.084" cy="292.786" r="22.2171" fill="#0071b1" fill-rule="evenodd" fill-opacity="0.7" stroke="#000000" stroke-opacity="0.7" stroke-width="8.22857"/>
<path clip-path="url(#clip720)" d="M777.073 276.341 L777.073 281.887 Q774.417 279.414 771.396 278.19 Q768.401 276.966 765.016 276.966 Q758.349 276.966 754.807 281.054 Q751.266 285.117 751.266 292.825 Q751.266 300.507 754.807 304.596 Q758.349 308.658 765.016 308.658 Q768.401 308.658 771.396 307.434 Q774.417 306.21 777.073 303.736 L777.073 309.231 Q774.313 311.106 771.214 312.044 Q768.141 312.981 764.703 312.981 Q755.875 312.981 750.797 307.59 Q745.719 302.174 745.719 292.825 Q745.719 283.45 750.797 278.059 Q755.875 272.643 764.703 272.643 Q768.193 272.643 771.266 273.58 Q774.365 274.492 777.073 276.341 Z" fill="#000000" fill-rule="nonzero" fill-opacity="1" /><path clip-path="url(#clip720)" d="M785.198 273.346 L790.458 273.346 L790.458 289.283 L809.573 289.283 L809.573 273.346 L814.833 273.346 L814.833 312.226 L809.573 312.226 L809.573 293.71 L790.458 293.71 L790.458 312.226 L785.198 312.226 L785.198 273.346 Z" fill="#000000" fill-rule="nonzero" fill-opacity="1" /><path clip-path="url(#clip720)" d="M825.302 273.346 L833.14 273.346 L843.062 299.804 L853.036 273.346 L860.875 273.346 L860.875 312.226 L855.744 312.226 L855.744 278.085 L845.718 304.752 L840.432 304.752 L830.406 278.085 L830.406 312.226 L825.302 312.226 L825.302 273.346 Z" fill="#000000" fill-rule="nonzero" fill-opacity="1" /><path clip-path="url(#clip720)" d="M871.317 273.346 L879.156 273.346 L889.078 299.804 L899.052 273.346 L906.89 273.346 L906.89 312.226 L901.76 312.226 L901.76 278.085 L891.734 304.752 L886.447 304.752 L876.421 278.085 L876.421 312.226 L871.317 312.226 L871.317 273.346 Z" fill="#000000" fill-rule="nonzero" fill-opacity="1" /><path clip-path="url(#clip720)" d="M914.702 295.481 L928.739 295.481 L928.739 299.752 L914.702 299.752 L914.702 295.481 Z" fill="#000000" fill-rule="nonzero" fill-opacity="1" /><path clip-path="url(#clip720)" d="M936.577 273.346 L941.838 273.346 L941.838 307.799 L960.77 307.799 L960.77 312.226 L936.577 312.226 L936.577 273.346 Z" fill="#000000" fill-rule="nonzero" fill-opacity="1" /></svg>
