<?xml version="1.0" encoding="utf-8"?>
<svg xmlns="http://www.w3.org/2000/svg" xmlns:xlink="http://www.w3.org/1999/xlink" width="700" height="500" viewBox="0 0 2800 2000">
<defs>
  <clipPath id="clip790">
    <rect x="0" y="0" width="2800" height="2000"/>
  </clipPath>
</defs>
<path clip-path="url(#clip790)" d="M0 2000 L2800 2000 L2800 -4.44089e-14 L0 -4.44089e-14  Z" fill="#ffffff" fill-rule="evenodd" fill-opacity="1"/>
<defs>
  <clipPath id="clip791">
    <rect x="448" y="125" width="2226" height="1506"/>
  </clipPath>
</defs>
<path clip-path="url(#clip790)" d="M448.779 1630.83 L2674.02 1630.83 L2674.02 125.984 L448.779 125.984  Z" fill="#ffffff" fill-rule="evenodd" fill-opacity="1"/>
<polyline clip-path="url(#clip791)" style="stroke:#000000; stroke-linecap:round; stroke-linejoin:round; stroke-width:2; stroke-opacity:0.1; fill:none" points="503.394,1630.83 503.394,125.984 "/>
<polyline clip-path="url(#clip791)" style="stroke:#000000; stroke-linecap:round; stroke-linejoin:round; stroke-width:2; stroke-opacity:0.1; fill:none" points="921.577,1630.83 921.577,125.984 "/>
<polyline clip-path="url(#clip791)" style="stroke:#000000; stroke-linecap:round; stroke-linejoin:round; stroke-width:2; stroke-opacity:0.1; fill:none" points="1339.76,1630.83 1339.76,125.984 "/>
<polyline clip-path="url(#clip791)" style="stroke:#000000; stroke-linecap:round; stroke-linejoin:round; stroke-width:2; stroke-opacity:0.1; fill:none" points="1757.94,1630.83 1757.94,125.984 "/>
<polyline clip-path="url(#clip791)" style="stroke:#000000; stroke-linecap:round; stroke-linejoin:round; stroke-width:2; stroke-opacity:0.1; fill:none" points="2176.13,1630.83 2176.13,125.984 "/>
<polyline clip-path="url(#clip791)" style="stroke:#000000; stroke-linecap:round; stroke-linejoin:round; stroke-width:2; stroke-opacity:0.1; fill:none" points="2594.31,1630.83 2594.31,125.984 "/>
<polyline clip-path="url(#clip791)" style="stroke:#000000; stroke-linecap:round; stroke-linejoin:round; stroke-width:2; stroke-opacity:0.1; fill:none" points="448.779,1388.02 2674.02,1388.02 "/>
<polyline clip-path="url(#clip791)" style="stroke:#000000; stroke-linecap:round; stroke-linejoin:round; stroke-width:2; stroke-opacity:0.1; fill:none" points="448.779,1009.14 2674.02,1009.14 "/>
<polyline clip-path="url(#clip791)" style="stroke:#000000; stroke-linecap:round; stroke-linejoin:round; stroke-width:2; stroke-opacity:0.1; fill:none" points="448.779,630.252 2674.02,630.252 "/>
<polyline clip-path="url(#clip791)" style="stroke:#000000; stroke-linecap:round; stroke-linejoin:round; stroke-width:2; stroke-opacity:0.1; fill:none" points="448.779,251.366 2674.02,251.366 "/>
<polyline clip-path="url(#clip790)" style="stroke:#000000; stroke-linecap:round; stroke-linejoin:round; stroke-width:4; stroke-opacity:1; fill:none" points="448.779,1630.83 2674.02,1630.83 "/>
<polyline clip-path="url(#clip790)" style="stroke:#000000; stroke-linecap:round; stroke-linejoin:round; stroke-width:4; stroke-opacity:1; fill:none" points="503.394,1630.83 503.394,1611.93 "/>
<polyline clip-path="url(#clip790)" style="stroke:#000000; stroke-linecap:round; stroke-linejoin:round; stroke-width:4; stroke-opacity:1; fill:none" points="921.577,1630.83 921.577,1611.93 "/>
<polyline clip-path="url(#clip790)" style="stroke:#000000; stroke-linecap:round; stroke-linejoin:round; stroke-width:4; stroke-opacity:1; fill:none" points="1339.76,1630.83 1339.76,1611.93 "/>
<polyline clip-path="url(#clip790)" style="stroke:#000000; stroke-linecap:round; stroke-linejoin:round; stroke-width:4; stroke-opacity:1; fill:none" points="1757.94,1630.83 1757.94,1611.93 "/>
<polyline clip-path="url(#clip790)" style="stroke:#000000; stroke-linecap:round; stroke-linejoin:round; stroke-width:4; stroke-opacity:1; fill:none" points="2176.13,1630.83 2176.13,1611.93 "/>
<polyline clip-path="url(#clip790)" style="stroke:#000000; stroke-linecap:round; stroke-linejoin:round; stroke-width:4; stroke-opacity:1; fill:none" points="2594.31,1630.83 2594.31,1611.93 "/>
<path clip-path="url(#clip790)" d="M503.394 1667.88 Q498.88 1667.88 496.594 1672.34 Q494.337 1676.76 494.337 1685.67 Q494.337 1694.56 496.594 1699.01 Q498.88 1703.44 503.394 1703.44 Q507.936 1703.44 510.193 1699.01 Q512.479 1694.56 512.479 1685.67 Q512.479 1676.76 510.193 1672.34 Q507.936 1667.88 503.394 1667.88 M503.394 1663.25 Q510.656 1663.25 514.476 1669.01 Q518.324 1674.74 518.324 1685.67 Q518.324 1696.58 514.476 1702.34 Q510.656 1708.07 503.394 1708.07 Q496.131 1708.07 492.283 1702.34 Q488.463 1696.58 488.463 1685.67 Q488.463 1674.74 492.283 1669.01 Q496.131 1663.25 503.394 1663.25 Z" fill="#000000" fill-rule="nonzero" fill-opacity="1" /><path clip-path="url(#clip790)" d="M889.951 1664.03 L912.896 1664.03 L912.896 1668.95 L895.304 1668.95 L895.304 1679.54 Q896.577 1679.11 897.85 1678.9 Q899.123 1678.67 900.396 1678.67 Q907.63 1678.67 911.855 1682.64 Q916.079 1686.6 916.079 1693.37 Q916.079 1700.34 911.739 1704.22 Q907.399 1708.07 899.499 1708.07 Q896.78 1708.07 893.944 1707.61 Q891.137 1707.14 888.128 1706.22 L888.128 1700.34 Q890.732 1701.76 893.51 1702.46 Q896.288 1703.15 899.384 1703.15 Q904.389 1703.15 907.312 1700.52 Q910.234 1697.89 910.234 1693.37 Q910.234 1688.86 907.312 1686.22 Q904.389 1683.59 899.384 1683.59 Q897.04 1683.59 894.696 1684.11 Q892.381 1684.63 889.951 1685.73 L889.951 1664.03 Z" fill="#000000" fill-rule="nonzero" fill-opacity="1" /><path clip-path="url(#clip790)" d="M940.095 1667.88 Q935.581 1667.88 933.296 1672.34 Q931.039 1676.76 931.039 1685.67 Q931.039 1694.56 933.296 1699.01 Q935.581 1703.44 940.095 1703.44 Q944.638 1703.44 946.895 1699.01 Q949.181 1694.56 949.181 1685.67 Q949.181 1676.76 946.895 1672.34 Q944.638 1667.88 940.095 1667.88 M940.095 1663.25 Q947.358 1663.25 951.177 1669.01 Q955.026 1674.74 955.026 1685.67 Q955.026 1696.58 951.177 1702.34 Q947.358 1708.07 940.095 1708.07 Q932.833 1708.07 928.984 1702.34 Q925.165 1696.58 925.165 1685.67 Q925.165 1674.74 928.984 1669.01 Q932.833 1663.25 940.095 1663.25 Z" fill="#000000" fill-rule="nonzero" fill-opacity="1" /><path clip-path="url(#clip790)" d="M1289.27 1702.31 L1298.82 1702.31 L1298.82 1669.36 L1288.43 1671.44 L1288.43 1666.11 L1298.76 1664.03 L1304.6 1664.03 L1304.6 1702.31 L1314.15 1702.31 L1314.15 1707.23 L1289.27 1707.23 L1289.27 1702.31 Z" fill="#000000" fill-rule="nonzero" fill-opacity="1" /><path clip-path="url(#clip790)" d="M1338.46 1667.88 Q1333.94 1667.88 1331.66 1672.34 Q1329.4 1676.76 1329.4 1685.67 Q1329.4 1694.56 1331.66 1699.01 Q1333.94 1703.44 1338.46 1703.44 Q1343 1703.44 1345.26 1699.01 Q1347.54 1694.56 1347.54 1685.67 Q1347.54 1676.76 1345.26 1672.34 Q1343 1667.88 1338.46 1667.88 M1338.46 1663.25 Q1345.72 1663.25 1349.54 1669.01 Q1353.39 1674.74 1353.39 1685.67 Q1353.39 1696.58 1349.54 1702.34 Q1345.72 1708.07 1338.46 1708.07 Q1331.2 1708.07 1327.35 1702.34 Q1323.53 1696.58 1323.53 1685.67 Q1323.53 1674.74 1327.35 1669.01 Q1331.2 1663.25 1338.46 1663.25 Z" fill="#000000" fill-rule="nonzero" fill-opacity="1" /><path clip-path="url(#clip790)" d="M1376.16 1667.88 Q1371.65 1667.88 1369.36 1672.34 Q1367.1 1676.76 1367.1 1685.67 Q1367.1 1694.56 1369.36 1699.01 Q1371.65 1703.44 1376.16 1703.44 Q1380.7 1703.44 1382.96 1699.01 Q1385.25 1694.56 1385.25 1685.67 Q1385.25 1676.76 1382.96 1672.34 Q1380.7 1667.88 1376.16 1667.88 M1376.16 1663.25 Q1383.42 1663.25 1387.24 1669.01 Q1391.09 1674.74 1391.09 1685.67 Q1391.09 1696.58 1387.24 1702.34 Q1383.42 1708.07 1376.16 1708.07 Q1368.9 1708.07 1365.05 1702.34 Q1361.23 1696.58 1361.23 1685.67 Q1361.23 1674.74 1365.05 1669.01 Q1368.9 1663.25 1376.16 1663.25 Z" fill="#000000" fill-rule="nonzero" fill-opacity="1" /><path clip-path="url(#clip790)" d="M1707.45 1702.31 L1717 1702.31 L1717 1669.36 L1706.61 1671.44 L1706.61 1666.11 L1716.94 1664.03 L1722.79 1664.03 L1722.79 1702.31 L1732.34 1702.31 L1732.34 1707.23 L1707.45 1707.23 L1707.45 1702.31 Z" fill="#000000" fill-rule="nonzero" fill-opacity="1" /><path clip-path="url(#clip790)" d="M1744.2 1664.03 L1767.14 1664.03 L1767.14 1668.95 L1749.55 1668.95 L1749.55 1679.54 Q1750.83 1679.11 1752.1 1678.9 Q1753.37 1678.67 1754.64 1678.67 Q1761.88 1678.67 1766.1 1682.64 Q1770.33 1686.6 1770.33 1693.37 Q1770.33 1700.34 1765.99 1704.22 Q1761.65 1708.07 1753.75 1708.07 Q1751.03 1708.07 1748.19 1707.61 Q1745.39 1707.14 1742.38 1706.22 L1742.38 1700.34 Q1744.98 1701.76 1747.76 1702.46 Q1750.54 1703.15 1753.63 1703.15 Q1758.64 1703.15 1761.56 1700.52 Q1764.48 1697.89 1764.48 1693.37 Q1764.48 1688.86 1761.56 1686.22 Q1758.64 1683.59 1753.63 1683.59 Q1751.29 1683.59 1748.94 1684.11 Q1746.63 1684.63 1744.2 1685.73 L1744.2 1664.03 Z" fill="#000000" fill-rule="nonzero" fill-opacity="1" /><path clip-path="url(#clip790)" d="M1794.34 1667.88 Q1789.83 1667.88 1787.54 1672.34 Q1785.29 1676.76 1785.29 1685.67 Q1785.29 1694.56 1787.54 1699.01 Q1789.83 1703.44 1794.34 1703.44 Q1798.89 1703.44 1801.14 1699.01 Q1803.43 1694.56 1803.43 1685.67 Q1803.43 1676.76 1801.14 1672.34 Q1798.89 1667.88 1794.34 1667.88 M1794.34 1663.25 Q1801.61 1663.25 1805.43 1669.01 Q1809.27 1674.74 1809.27 1685.67 Q1809.27 1696.58 1805.43 1702.34 Q1801.61 1708.07 1794.34 1708.07 Q1787.08 1708.07 1783.23 1702.34 Q1779.41 1696.58 1779.41 1685.67 Q1779.41 1674.74 1783.23 1669.01 Q1787.08 1663.25 1794.34 1663.25 Z" fill="#000000" fill-rule="nonzero" fill-opacity="1" /><path clip-path="url(#clip790)" d="M2130.74 1702.31 L2151.14 1702.31 L2151.14 1707.23 L2123.71 1707.23 L2123.71 1702.31 Q2127.04 1698.87 2132.77 1693.08 Q2138.53 1687.27 2140 1685.59 Q2142.81 1682.43 2143.91 1680.26 Q2145.04 1678.06 2145.04 1675.95 Q2145.04 1672.51 2142.61 1670.34 Q2140.2 1668.17 2136.33 1668.17 Q2133.58 1668.17 2130.51 1669.12 Q2127.47 1670.08 2124 1672.02 L2124 1666.11 Q2127.53 1664.7 2130.6 1663.97 Q2133.66 1663.25 2136.21 1663.25 Q2142.92 1663.25 2146.92 1666.61 Q2150.91 1669.96 2150.91 1675.58 Q2150.91 1678.24 2149.9 1680.64 Q2148.91 1683.01 2146.28 1686.25 Q2145.56 1687.09 2141.68 1691.11 Q2137.8 1695.11 2130.74 1702.31 Z" fill="#000000" fill-rule="nonzero" fill-opacity="1" /><path clip-path="url(#clip790)" d="M2175.91 1667.88 Q2171.4 1667.88 2169.11 1672.34 Q2166.85 1676.76 2166.85 1685.67 Q2166.85 1694.56 2169.11 1699.01 Q2171.4 1703.44 2175.91 1703.44 Q2180.45 1703.44 2182.71 1699.01 Q2185 1694.56 2185 1685.67 Q2185 1676.76 2182.71 1672.34 Q2180.45 1667.88 2175.91 1667.88 M2175.91 1663.25 Q2183.17 1663.25 2186.99 1669.01 Q2190.84 1674.74 2190.84 1685.67 Q2190.84 1696.58 2186.99 1702.34 Q2183.17 1708.07 2175.91 1708.07 Q2168.65 1708.07 2164.8 1702.34 Q2160.98 1696.58 2160.98 1685.67 Q2160.98 1674.74 2164.8 1669.01 Q2168.65 1663.25 2175.91 1663.25 Z" fill="#000000" fill-rule="nonzero" fill-opacity="1" /><path clip-path="url(#clip790)" d="M2213.61 1667.88 Q2209.1 1667.88 2206.81 1672.34 Q2204.56 1676.76 2204.56 1685.67 Q2204.56 1694.56 2206.81 1699.01 Q2209.1 1703.44 2213.61 1703.44 Q2218.15 1703.44 2220.41 1699.01 Q2222.7 1694.56 2222.7 1685.67 Q2222.7 1676.76 2220.41 1672.34 Q2218.15 1667.88 2213.61 1667.88 M2213.61 1663.25 Q2220.87 1663.25 2224.69 1669.01 Q2228.54 1674.74 2228.54 1685.67 Q2228.54 1696.58 2224.69 1702.34 Q2220.87 1708.07 2213.61 1708.07 Q2206.35 1708.07 2202.5 1702.34 Q2198.68 1696.58 2198.68 1685.67 Q2198.68 1674.74 2202.5 1669.01 Q2206.35 1663.25 2213.61 1663.25 Z" fill="#000000" fill-rule="nonzero" fill-opacity="1" /><path clip-path="url(#clip790)" d="M2548.93 1702.31 L2569.32 1702.31 L2569.32 1707.23 L2541.89 1707.23 L2541.89 1702.31 Q2545.22 1698.87 2550.95 1693.08 Q2556.71 1687.27 2558.18 1685.59 Q2560.99 1682.43 2562.09 1680.26 Q2563.22 1678.06 2563.22 1675.95 Q2563.22 1672.51 2560.79 1670.34 Q2558.39 1668.17 2554.51 1668.17 Q2551.76 1668.17 2548.69 1669.12 Q2545.66 1670.08 2542.18 1672.02 L2542.18 1666.11 Q2545.71 1664.7 2548.78 1663.97 Q2551.85 1663.25 2554.39 1663.25 Q2561.11 1663.25 2565.1 1666.61 Q2569.09 1669.96 2569.09 1675.58 Q2569.09 1678.24 2568.08 1680.64 Q2567.1 1683.01 2564.46 1686.25 Q2563.74 1687.09 2559.86 1691.11 Q2555.99 1695.11 2548.93 1702.31 Z" fill="#000000" fill-rule="nonzero" fill-opacity="1" /><path clip-path="url(#clip790)" d="M2581.65 1664.03 L2604.6 1664.03 L2604.6 1668.95 L2587 1668.95 L2587 1679.54 Q2588.28 1679.11 2589.55 1678.9 Q2590.82 1678.67 2592.1 1678.67 Q2599.33 1678.67 2603.55 1682.64 Q2607.78 1686.6 2607.78 1693.37 Q2607.78 1700.34 2603.44 1704.22 Q2599.1 1708.07 2591.2 1708.07 Q2588.48 1708.07 2585.64 1707.61 Q2582.84 1707.14 2579.83 1706.22 L2579.83 1700.34 Q2582.43 1701.76 2585.21 1702.46 Q2587.99 1703.15 2591.08 1703.15 Q2596.09 1703.15 2599.01 1700.52 Q2601.93 1697.89 2601.93 1693.37 Q2601.93 1688.86 2599.01 1686.22 Q2596.09 1683.59 2591.08 1683.59 Q2588.74 1683.59 2586.4 1684.11 Q2584.08 1684.63 2581.65 1685.73 L2581.65 1664.03 Z" fill="#000000" fill-rule="nonzero" fill-opacity="1" /><path clip-path="url(#clip790)" d="M2631.8 1667.88 Q2627.28 1667.88 2625 1672.34 Q2622.74 1676.76 2622.74 1685.67 Q2622.74 1694.56 2625 1699.01 Q2627.28 1703.44 2631.8 1703.44 Q2636.34 1703.44 2638.6 1699.01 Q2640.88 1694.56 2640.88 1685.67 Q2640.88 1676.76 2638.6 1672.34 Q2636.34 1667.88 2631.8 1667.88 M2631.8 1663.25 Q2639.06 1663.25 2642.88 1669.01 Q2646.73 1674.74 2646.73 1685.67 Q2646.73 1696.58 2642.88 1702.34 Q2639.06 1708.07 2631.8 1708.07 Q2624.53 1708.07 2620.68 1702.34 Q2616.86 1696.58 2616.86 1685.67 Q2616.86 1674.74 2620.68 1669.01 Q2624.53 1663.25 2631.8 1663.25 Z" fill="#000000" fill-rule="nonzero" fill-opacity="1" /><path clip-path="url(#clip790)" d="M1268.26 1747.14 L1274.69 1747.14 L1274.69 1789.24 L1297.83 1789.24 L1297.83 1794.66 L1268.26 1794.66 L1268.26 1747.14 Z" fill="#000000" fill-rule="nonzero" fill-opacity="1" /><path clip-path="url(#clip790)" d="M1320.52 1776.74 Q1313.42 1776.74 1310.68 1778.36 Q1307.95 1779.98 1307.95 1783.9 Q1307.95 1787.02 1309.98 1788.86 Q1312.05 1790.68 1315.59 1790.68 Q1320.46 1790.68 1323.38 1787.24 Q1326.34 1783.77 1326.34 1778.04 L1326.34 1776.74 L1320.52 1776.74 M1332.2 1774.32 L1332.2 1794.66 L1326.34 1794.66 L1326.34 1789.24 Q1324.34 1792.49 1321.35 1794.05 Q1318.35 1795.58 1314.03 1795.58 Q1308.55 1795.58 1305.3 1792.52 Q1302.09 1789.44 1302.09 1784.28 Q1302.09 1778.26 1306.1 1775.21 Q1310.14 1772.15 1318.13 1772.15 L1326.34 1772.15 L1326.34 1771.58 Q1326.34 1767.54 1323.67 1765.34 Q1321.03 1763.11 1316.22 1763.11 Q1313.17 1763.11 1310.27 1763.85 Q1307.37 1764.58 1304.7 1766.04 L1304.7 1760.63 Q1307.91 1759.39 1310.94 1758.78 Q1313.96 1758.15 1316.83 1758.15 Q1324.56 1758.15 1328.38 1762.16 Q1332.2 1766.17 1332.2 1774.32 Z" fill="#000000" fill-rule="nonzero" fill-opacity="1" /><path clip-path="url(#clip790)" d="M1367.72 1776.42 Q1367.72 1770.05 1365.08 1766.55 Q1362.47 1763.05 1357.73 1763.05 Q1353.02 1763.05 1350.37 1766.55 Q1347.76 1770.05 1347.76 1776.42 Q1347.76 1782.75 1350.37 1786.25 Q1353.02 1789.75 1357.73 1789.75 Q1362.47 1789.75 1365.08 1786.25 Q1367.72 1782.75 1367.72 1776.42 M1373.58 1790.23 Q1373.58 1799.33 1369.53 1803.76 Q1365.49 1808.21 1357.15 1808.21 Q1354.07 1808.21 1351.33 1807.74 Q1348.59 1807.29 1346.01 1806.34 L1346.01 1800.64 Q1348.59 1802.04 1351.11 1802.71 Q1353.62 1803.38 1356.23 1803.38 Q1361.99 1803.38 1364.86 1800.35 Q1367.72 1797.36 1367.72 1791.28 L1367.72 1788.39 Q1365.91 1791.54 1363.07 1793.1 Q1360.24 1794.66 1356.29 1794.66 Q1349.74 1794.66 1345.73 1789.66 Q1341.72 1784.66 1341.72 1776.42 Q1341.72 1768.14 1345.73 1763.15 Q1349.74 1758.15 1356.29 1758.15 Q1360.24 1758.15 1363.07 1759.71 Q1365.91 1761.27 1367.72 1764.42 L1367.72 1759.01 L1373.58 1759.01 L1373.58 1790.23 Z" fill="#000000" fill-rule="nonzero" fill-opacity="1" /><path clip-path="url(#clip790)" d="M1420.43 1745.19 Q1416.16 1752.51 1414.09 1759.68 Q1412.03 1766.84 1412.03 1774.19 Q1412.03 1781.54 1414.09 1788.77 Q1416.2 1795.96 1420.43 1803.25 L1415.34 1803.25 Q1410.56 1795.77 1408.17 1788.54 Q1405.82 1781.32 1405.82 1774.19 Q1405.82 1767.09 1408.17 1759.9 Q1410.53 1752.71 1415.34 1745.19 L1420.43 1745.19 Z" fill="#000000" fill-rule="nonzero" fill-opacity="1" /><path clip-path="url(#clip790)" d="M1437.58 1748.89 L1437.58 1759.01 L1449.65 1759.01 L1449.65 1763.56 L1437.58 1763.56 L1437.58 1782.91 Q1437.58 1787.27 1438.76 1788.51 Q1439.97 1789.75 1443.63 1789.75 L1449.65 1789.75 L1449.65 1794.66 L1443.63 1794.66 Q1436.85 1794.66 1434.27 1792.14 Q1431.7 1789.59 1431.7 1782.91 L1431.7 1763.56 L1427.4 1763.56 L1427.4 1759.01 L1431.7 1759.01 L1431.7 1748.89 L1437.58 1748.89 Z" fill="#000000" fill-rule="nonzero" fill-opacity="1" /><path clip-path="url(#clip790)" d="M1478.01 1764.48 Q1477.02 1763.91 1475.84 1763.65 Q1474.7 1763.37 1473.3 1763.37 Q1468.33 1763.37 1465.66 1766.61 Q1463.02 1769.83 1463.02 1775.88 L1463.02 1794.66 L1457.13 1794.66 L1457.13 1759.01 L1463.02 1759.01 L1463.02 1764.55 Q1464.86 1761.3 1467.82 1759.74 Q1470.78 1758.15 1475.01 1758.15 Q1475.62 1758.15 1476.35 1758.24 Q1477.08 1758.31 1477.97 1758.47 L1478.01 1764.48 Z" fill="#000000" fill-rule="nonzero" fill-opacity="1" /><path clip-path="url(#clip790)" d="M1500.35 1776.74 Q1493.25 1776.74 1490.52 1778.36 Q1487.78 1779.98 1487.78 1783.9 Q1487.78 1787.02 1489.81 1788.86 Q1491.88 1790.68 1495.42 1790.68 Q1500.29 1790.68 1503.21 1787.24 Q1506.17 1783.77 1506.17 1778.04 L1506.17 1776.74 L1500.35 1776.74 M1512.03 1774.32 L1512.03 1794.66 L1506.17 1794.66 L1506.17 1789.24 Q1504.17 1792.49 1501.18 1794.05 Q1498.19 1795.58 1493.86 1795.58 Q1488.38 1795.58 1485.14 1792.52 Q1481.92 1789.44 1481.92 1784.28 Q1481.92 1778.26 1485.93 1775.21 Q1489.97 1772.15 1497.96 1772.15 L1506.17 1772.15 L1506.17 1771.58 Q1506.17 1767.54 1503.5 1765.34 Q1500.86 1763.11 1496.05 1763.11 Q1493 1763.11 1490.1 1763.85 Q1487.2 1764.58 1484.53 1766.04 L1484.53 1760.63 Q1487.75 1759.39 1490.77 1758.78 Q1493.79 1758.15 1496.66 1758.15 Q1504.39 1758.15 1508.21 1762.16 Q1512.03 1766.17 1512.03 1774.32 Z" fill="#000000" fill-rule="nonzero" fill-opacity="1" /><path clip-path="url(#clip790)" d="M1547.55 1764.42 L1547.55 1745.13 L1553.41 1745.13 L1553.41 1794.66 L1547.55 1794.66 L1547.55 1789.31 Q1545.71 1792.49 1542.87 1794.05 Q1540.07 1795.58 1536.13 1795.58 Q1529.66 1795.58 1525.59 1790.42 Q1521.55 1785.27 1521.55 1776.86 Q1521.55 1768.46 1525.59 1763.3 Q1529.66 1758.15 1536.13 1758.15 Q1540.07 1758.15 1542.87 1759.71 Q1545.71 1761.24 1547.55 1764.42 M1527.6 1776.86 Q1527.6 1783.32 1530.24 1787.02 Q1532.91 1790.68 1537.56 1790.68 Q1542.2 1790.68 1544.88 1787.02 Q1547.55 1783.32 1547.55 1776.86 Q1547.55 1770.4 1544.88 1766.74 Q1542.2 1763.05 1537.56 1763.05 Q1532.91 1763.05 1530.24 1766.74 Q1527.6 1770.4 1527.6 1776.86 Z" fill="#000000" fill-rule="nonzero" fill-opacity="1" /><path clip-path="url(#clip790)" d="M1565.47 1759.01 L1571.33 1759.01 L1571.33 1794.66 L1565.47 1794.66 L1565.47 1759.01 M1565.47 1745.13 L1571.33 1745.13 L1571.33 1752.55 L1565.47 1752.55 L1565.47 1745.13 Z" fill="#000000" fill-rule="nonzero" fill-opacity="1" /><path clip-path="url(#clip790)" d="M1613.21 1773.14 L1613.21 1794.66 L1607.36 1794.66 L1607.36 1773.33 Q1607.36 1768.27 1605.38 1765.76 Q1603.41 1763.24 1599.46 1763.24 Q1594.72 1763.24 1591.98 1766.26 Q1589.25 1769.29 1589.25 1774.51 L1589.25 1794.66 L1583.36 1794.66 L1583.36 1759.01 L1589.25 1759.01 L1589.25 1764.55 Q1591.35 1761.33 1594.18 1759.74 Q1597.05 1758.15 1600.77 1758.15 Q1606.91 1758.15 1610.06 1761.97 Q1613.21 1765.76 1613.21 1773.14 Z" fill="#000000" fill-rule="nonzero" fill-opacity="1" /><path clip-path="url(#clip790)" d="M1648.35 1776.42 Q1648.35 1770.05 1645.71 1766.55 Q1643.1 1763.05 1638.36 1763.05 Q1633.65 1763.05 1631.01 1766.55 Q1628.4 1770.05 1628.4 1776.42 Q1628.4 1782.75 1631.01 1786.25 Q1633.65 1789.75 1638.36 1789.75 Q1643.1 1789.75 1645.71 1786.25 Q1648.35 1782.75 1648.35 1776.42 M1654.21 1790.23 Q1654.21 1799.33 1650.17 1803.76 Q1646.12 1808.21 1637.79 1808.21 Q1634.7 1808.21 1631.96 1807.74 Q1629.22 1807.29 1626.65 1806.34 L1626.65 1800.64 Q1629.22 1802.04 1631.74 1802.71 Q1634.25 1803.38 1636.86 1803.38 Q1642.62 1803.38 1645.49 1800.35 Q1648.35 1797.36 1648.35 1791.28 L1648.35 1788.39 Q1646.54 1791.54 1643.71 1793.1 Q1640.87 1794.66 1636.93 1794.66 Q1630.37 1794.66 1626.36 1789.66 Q1622.35 1784.66 1622.35 1776.42 Q1622.35 1768.14 1626.36 1763.15 Q1630.37 1758.15 1636.93 1758.15 Q1640.87 1758.15 1643.71 1759.71 Q1646.54 1761.27 1648.35 1764.42 L1648.35 1759.01 L1654.21 1759.01 L1654.21 1790.23 Z" fill="#000000" fill-rule="nonzero" fill-opacity="1" /><path clip-path="url(#clip790)" d="M1710.45 1764.42 L1710.45 1745.13 L1716.31 1745.13 L1716.31 1794.66 L1710.45 1794.66 L1710.45 1789.31 Q1708.6 1792.49 1705.77 1794.05 Q1702.97 1795.58 1699.02 1795.58 Q1692.56 1795.58 1688.49 1790.42 Q1684.45 1785.27 1684.45 1776.86 Q1684.45 1768.46 1688.49 1763.3 Q1692.56 1758.15 1699.02 1758.15 Q1702.97 1758.15 1705.77 1759.71 Q1708.6 1761.24 1710.45 1764.42 M1690.49 1776.86 Q1690.49 1783.32 1693.14 1787.02 Q1695.81 1790.68 1700.46 1790.68 Q1705.1 1790.68 1707.78 1787.02 Q1710.45 1783.32 1710.45 1776.86 Q1710.45 1770.4 1707.78 1766.74 Q1705.1 1763.05 1700.46 1763.05 Q1695.81 1763.05 1693.14 1766.74 Q1690.49 1770.4 1690.49 1776.86 Z" fill="#000000" fill-rule="nonzero" fill-opacity="1" /><path clip-path="url(#clip790)" d="M1744.57 1776.74 Q1737.47 1776.74 1734.74 1778.36 Q1732 1779.98 1732 1783.9 Q1732 1787.02 1734.04 1788.86 Q1736.1 1790.68 1739.64 1790.68 Q1744.51 1790.68 1747.44 1787.24 Q1750.4 1783.77 1750.4 1778.04 L1750.4 1776.74 L1744.57 1776.74 M1756.25 1774.32 L1756.25 1794.66 L1750.4 1794.66 L1750.4 1789.24 Q1748.39 1792.49 1745.4 1794.05 Q1742.41 1795.58 1738.08 1795.58 Q1732.6 1795.58 1729.36 1792.52 Q1726.14 1789.44 1726.14 1784.28 Q1726.14 1778.26 1730.15 1775.21 Q1734.19 1772.15 1742.18 1772.15 L1750.4 1772.15 L1750.4 1771.58 Q1750.4 1767.54 1747.72 1765.34 Q1745.08 1763.11 1740.27 1763.11 Q1737.22 1763.11 1734.32 1763.85 Q1731.43 1764.58 1728.75 1766.04 L1728.75 1760.63 Q1731.97 1759.39 1734.99 1758.78 Q1738.01 1758.15 1740.88 1758.15 Q1748.61 1758.15 1752.43 1762.16 Q1756.25 1766.17 1756.25 1774.32 Z" fill="#000000" fill-rule="nonzero" fill-opacity="1" /><path clip-path="url(#clip790)" d="M1783.15 1797.97 Q1780.66 1804.33 1778.31 1806.27 Q1775.95 1808.21 1772.01 1808.21 L1767.33 1808.21 L1767.33 1803.31 L1770.77 1803.31 Q1773.18 1803.31 1774.52 1802.17 Q1775.86 1801.02 1777.48 1796.76 L1778.53 1794.08 L1764.11 1759.01 L1770.32 1759.01 L1781.46 1786.89 L1792.6 1759.01 L1798.81 1759.01 L1783.15 1797.97 Z" fill="#000000" fill-rule="nonzero" fill-opacity="1" /><path clip-path="url(#clip790)" d="M1829.62 1760.06 L1829.62 1765.6 Q1827.13 1764.32 1824.46 1763.69 Q1821.79 1763.05 1818.92 1763.05 Q1814.56 1763.05 1812.37 1764.39 Q1810.2 1765.72 1810.2 1768.4 Q1810.2 1770.43 1811.76 1771.61 Q1813.32 1772.76 1818.03 1773.81 L1820.04 1774.25 Q1826.27 1775.59 1828.88 1778.04 Q1831.53 1780.46 1831.53 1784.82 Q1831.53 1789.79 1827.58 1792.68 Q1823.66 1795.58 1816.79 1795.58 Q1813.92 1795.58 1810.81 1795.01 Q1807.72 1794.46 1804.28 1793.35 L1804.28 1787.3 Q1807.53 1788.99 1810.68 1789.85 Q1813.83 1790.68 1816.92 1790.68 Q1821.05 1790.68 1823.28 1789.28 Q1825.51 1787.84 1825.51 1785.27 Q1825.51 1782.88 1823.89 1781.61 Q1822.3 1780.33 1816.85 1779.16 L1814.82 1778.68 Q1809.37 1777.53 1806.95 1775.18 Q1804.54 1772.79 1804.54 1768.65 Q1804.54 1763.62 1808.1 1760.89 Q1811.67 1758.15 1818.22 1758.15 Q1821.47 1758.15 1824.33 1758.63 Q1827.2 1759.1 1829.62 1760.06 Z" fill="#000000" fill-rule="nonzero" fill-opacity="1" /><path clip-path="url(#clip790)" d="M1839.93 1745.19 L1845.02 1745.19 Q1849.8 1752.71 1852.15 1759.9 Q1854.54 1767.09 1854.54 1774.19 Q1854.54 1781.32 1852.15 1788.54 Q1849.8 1795.77 1845.02 1803.25 L1839.93 1803.25 Q1844.16 1795.96 1846.23 1788.77 Q1848.33 1781.54 1848.33 1774.19 Q1848.33 1766.84 1846.23 1759.68 Q1844.16 1752.51 1839.93 1745.19 Z" fill="#000000" fill-rule="nonzero" fill-opacity="1" /><polyline clip-path="url(#clip790)" style="stroke:#000000; stroke-linecap:round; stroke-linejoin:round; stroke-width:4; stroke-opacity:1; fill:none" points="448.779,1630.83 448.779,125.984 "/>
<polyline clip-path="url(#clip790)" style="stroke:#000000; stroke-linecap:round; stroke-linejoin:round; stroke-width:4; stroke-opacity:1; fill:none" points="448.779,1388.02 467.676,1388.02 "/>
<polyline clip-path="url(#clip790)" style="stroke:#000000; stroke-linecap:round; stroke-linejoin:round; stroke-width:4; stroke-opacity:1; fill:none" points="448.779,1009.14 467.676,1009.14 "/>
<polyline clip-path="url(#clip790)" style="stroke:#000000; stroke-linecap:round; stroke-linejoin:round; stroke-width:4; stroke-opacity:1; fill:none" points="448.779,630.252 467.676,630.252 "/>
<polyline clip-path="url(#clip790)" style="stroke:#000000; stroke-linecap:round; stroke-linejoin:round; stroke-width:4; stroke-opacity:1; fill:none" points="448.779,251.366 467.676,251.366 "/>
<path clip-path="url(#clip790)" d="M335.309 1370.27 Q330.795 1370.27 328.51 1374.73 Q326.253 1379.15 326.253 1388.07 Q326.253 1396.95 328.51 1401.41 Q330.795 1405.83 335.309 1405.83 Q339.852 1405.83 342.109 1401.41 Q344.395 1396.95 344.395 1388.07 Q344.395 1379.15 342.109 1374.73 Q339.852 1370.27 335.309 1370.27 M335.309 1365.64 Q342.572 1365.64 346.391 1371.4 Q350.24 1377.13 350.24 1388.07 Q350.24 1398.98 346.391 1404.73 Q342.572 1410.46 335.309 1410.46 Q328.047 1410.46 324.198 1404.73 Q320.379 1398.98 320.379 1388.07 Q320.379 1377.13 324.198 1371.4 Q328.047 1365.64 335.309 1365.64 Z" fill="#000000" fill-rule="nonzero" fill-opacity="1" /><path clip-path="url(#clip790)" d="M360.512 1402.27 L366.617 1402.27 L366.617 1409.62 L360.512 1409.62 L360.512 1402.27 Z" fill="#000000" fill-rule="nonzero" fill-opacity="1" /><path clip-path="url(#clip790)" d="M391.848 1370.27 Q387.335 1370.27 385.049 1374.73 Q382.792 1379.15 382.792 1388.07 Q382.792 1396.95 385.049 1401.41 Q387.335 1405.83 391.848 1405.83 Q396.391 1405.83 398.648 1401.41 Q400.934 1396.95 400.934 1388.07 Q400.934 1379.15 398.648 1374.73 Q396.391 1370.27 391.848 1370.27 M391.848 1365.64 Q399.111 1365.64 402.93 1371.4 Q406.779 1377.13 406.779 1388.07 Q406.779 1398.98 402.93 1404.73 Q399.111 1410.46 391.848 1410.46 Q384.586 1410.46 380.737 1404.73 Q376.918 1398.98 376.918 1388.07 Q376.918 1377.13 380.737 1371.4 Q384.586 1365.64 391.848 1365.64 Z" fill="#000000" fill-rule="nonzero" fill-opacity="1" /><path clip-path="url(#clip790)" d="M336.843 991.386 Q332.329 991.386 330.043 995.842 Q327.786 1000.27 327.786 1009.18 Q327.786 1018.06 330.043 1022.52 Q332.329 1026.95 336.843 1026.95 Q341.386 1026.95 343.643 1022.52 Q345.928 1018.06 345.928 1009.18 Q345.928 1000.27 343.643 995.842 Q341.386 991.386 336.843 991.386 M336.843 986.756 Q344.106 986.756 347.925 992.514 Q351.773 998.243 351.773 1009.18 Q351.773 1020.09 347.925 1025.85 Q344.106 1031.58 336.843 1031.58 Q329.58 1031.58 325.732 1025.85 Q321.912 1020.09 321.912 1009.18 Q321.912 998.243 325.732 992.514 Q329.58 986.756 336.843 986.756 Z" fill="#000000" fill-rule="nonzero" fill-opacity="1" /><path clip-path="url(#clip790)" d="M362.045 1023.39 L368.151 1023.39 L368.151 1030.74 L362.045 1030.74 L362.045 1023.39 Z" fill="#000000" fill-rule="nonzero" fill-opacity="1" /><path clip-path="url(#clip790)" d="M381.895 1025.82 L391.443 1025.82 L391.443 992.861 L381.056 994.945 L381.056 989.621 L391.385 987.537 L397.23 987.537 L397.23 1025.82 L406.779 1025.82 L406.779 1030.74 L381.895 1030.74 L381.895 1025.82 Z" fill="#000000" fill-rule="nonzero" fill-opacity="1" /><path clip-path="url(#clip790)" d="M337.306 612.5 Q332.792 612.5 330.506 616.956 Q328.249 621.383 328.249 630.295 Q328.249 639.178 330.506 643.634 Q332.792 648.061 337.306 648.061 Q341.849 648.061 344.106 643.634 Q346.391 639.178 346.391 630.295 Q346.391 621.383 344.106 616.956 Q341.849 612.5 337.306 612.5 M337.306 607.87 Q344.569 607.87 348.388 613.628 Q352.236 619.357 352.236 630.295 Q352.236 641.203 348.388 646.961 Q344.569 652.691 337.306 652.691 Q330.043 652.691 326.195 646.961 Q322.375 641.203 322.375 630.295 Q322.375 619.357 326.195 613.628 Q330.043 607.87 337.306 607.87 Z" fill="#000000" fill-rule="nonzero" fill-opacity="1" /><path clip-path="url(#clip790)" d="M362.508 644.502 L368.614 644.502 L368.614 651.852 L362.508 651.852 L362.508 644.502 Z" fill="#000000" fill-rule="nonzero" fill-opacity="1" /><path clip-path="url(#clip790)" d="M386.38 646.933 L406.779 646.933 L406.779 651.852 L379.348 651.852 L379.348 646.933 Q382.676 643.489 388.405 637.702 Q394.163 631.886 395.639 630.208 Q398.446 627.054 399.545 624.884 Q400.674 622.685 400.674 620.573 Q400.674 617.129 398.243 614.959 Q395.841 612.789 391.964 612.789 Q389.215 612.789 386.148 613.744 Q383.11 614.699 379.638 616.638 L379.638 610.735 Q383.168 609.317 386.235 608.594 Q389.302 607.87 391.848 607.87 Q398.561 607.87 402.554 611.227 Q406.547 614.583 406.547 620.197 Q406.547 622.859 405.535 625.26 Q404.551 627.633 401.918 630.874 Q401.194 631.713 397.317 635.735 Q393.44 639.728 386.38 646.933 Z" fill="#000000" fill-rule="nonzero" fill-opacity="1" /><path clip-path="url(#clip790)" d="M336.12 233.614 Q331.606 233.614 329.32 238.07 Q327.063 242.497 327.063 251.409 Q327.063 260.292 329.32 264.748 Q331.606 269.175 336.12 269.175 Q340.662 269.175 342.919 264.748 Q345.205 260.292 345.205 251.409 Q345.205 242.497 342.919 238.07 Q340.662 233.614 336.12 233.614 M336.12 228.984 Q343.382 228.984 347.202 234.742 Q351.05 240.472 351.05 251.409 Q351.05 262.318 347.202 268.076 Q343.382 273.805 336.12 273.805 Q328.857 273.805 325.008 268.076 Q321.189 262.318 321.189 251.409 Q321.189 240.472 325.008 234.742 Q328.857 228.984 336.12 228.984 Z" fill="#000000" fill-rule="nonzero" fill-opacity="1" /><path clip-path="url(#clip790)" d="M361.322 265.616 L367.427 265.616 L367.427 272.966 L361.322 272.966 L361.322 265.616 Z" fill="#000000" fill-rule="nonzero" fill-opacity="1" /><path clip-path="url(#clip790)" d="M397.867 249.673 Q402.062 250.57 404.406 253.406 Q406.779 256.241 406.779 260.408 Q406.779 266.802 402.381 270.304 Q397.983 273.805 389.881 273.805 Q387.161 273.805 384.267 273.255 Q381.403 272.734 378.336 271.664 L378.336 266.021 Q380.766 267.439 383.66 268.162 Q386.553 268.886 389.707 268.886 Q395.205 268.886 398.069 266.716 Q400.963 264.545 400.963 260.408 Q400.963 256.588 398.272 254.447 Q395.61 252.277 390.836 252.277 L385.801 252.277 L385.801 247.474 L391.067 247.474 Q395.378 247.474 397.664 245.767 Q399.95 244.031 399.95 240.79 Q399.95 237.462 397.578 235.697 Q395.234 233.903 390.836 233.903 Q388.434 233.903 385.685 234.424 Q382.936 234.945 379.638 236.044 L379.638 230.836 Q382.965 229.91 385.859 229.447 Q388.781 228.984 391.356 228.984 Q398.012 228.984 401.889 232.023 Q405.766 235.032 405.766 240.182 Q405.766 243.77 403.712 246.259 Q401.657 248.718 397.867 249.673 Z" fill="#000000" fill-rule="nonzero" fill-opacity="1" /><path clip-path="url(#clip790)" d="M222.937 1024.44 L246.585 1033.16 L246.585 1015.68 L222.937 1024.44 M216.603 1028.07 L216.603 1020.78 L264.123 1002.67 L264.123 1009.35 L251.933 1013.68 L251.933 1035.1 L264.123 1039.43 L264.123 1046.21 L216.603 1028.07 Z" fill="#000000" fill-rule="nonzero" fill-opacity="1" /><path clip-path="url(#clip790)" d="M220.263 961.289 L227.043 961.289 Q224.019 964.536 222.523 968.228 Q221.027 971.888 221.027 976.026 Q221.027 984.174 226.024 988.503 Q230.989 992.831 240.411 992.831 Q249.8 992.831 254.797 988.503 Q259.762 984.174 259.762 976.026 Q259.762 971.888 258.266 968.228 Q256.77 964.536 253.747 961.289 L260.463 961.289 Q262.754 964.663 263.9 968.451 Q265.046 972.207 265.046 976.408 Q265.046 987.198 258.457 993.404 Q251.837 999.611 240.411 999.611 Q228.952 999.611 222.364 993.404 Q215.743 987.198 215.743 976.408 Q215.743 972.143 216.889 968.387 Q218.003 964.6 220.263 961.289 Z" fill="#000000" fill-rule="nonzero" fill-opacity="1" /><path clip-path="url(#clip790)" d="M216.603 951.359 L216.603 924.05 L222.014 924.05 L222.014 944.93 L236.018 944.93 L236.018 926.087 L241.429 926.087 L241.429 944.93 L264.123 944.93 L264.123 951.359 L216.603 951.359 Z" fill="#000000" fill-rule="nonzero" fill-opacity="1" /><path clip-path="url(#clip790)" d="M232.581 879.586 Q232.581 884.296 236.273 887.033 Q239.933 889.771 246.331 889.771 Q252.728 889.771 256.42 887.065 Q260.081 884.328 260.081 879.586 Q260.081 874.907 256.389 872.169 Q252.696 869.432 246.331 869.432 Q239.997 869.432 236.305 872.169 Q232.581 874.907 232.581 879.586 M227.616 879.586 Q227.616 871.947 232.581 867.586 Q237.546 863.226 246.331 863.226 Q255.084 863.226 260.081 867.586 Q265.046 871.947 265.046 879.586 Q265.046 887.256 260.081 891.617 Q255.084 895.945 246.331 895.945 Q237.546 895.945 232.581 891.617 Q227.616 887.256 227.616 879.586 Z" fill="#000000" fill-rule="nonzero" fill-opacity="1" /><path clip-path="url(#clip790)" d="M214.598 835.471 L219.467 835.471 L219.467 841.073 Q219.467 844.224 220.741 845.465 Q222.014 846.675 225.324 846.675 L228.475 846.675 L228.475 837.031 L233.026 837.031 L233.026 846.675 L264.123 846.675 L264.123 852.563 L233.026 852.563 L233.026 858.165 L228.475 858.165 L228.475 852.563 L225.992 852.563 Q220.04 852.563 217.335 849.794 Q214.598 847.025 214.598 841.009 L214.598 835.471 Z" fill="#000000" fill-rule="nonzero" fill-opacity="1" /><path clip-path="url(#clip790)" d="M214.311 802.306 L279.496 802.306 L279.496 807.717 L214.311 807.717 L214.311 802.306 Z" fill="#000000" fill-rule="nonzero" fill-opacity="1" /><path clip-path="url(#clip790)" d="M257.343 755.231 L244.58 755.231 L244.58 765.735 L239.297 765.735 L239.297 748.866 L259.699 748.866 Q262.34 752.59 263.709 757.078 Q265.046 761.565 265.046 766.658 Q265.046 777.798 258.553 784.1 Q252.028 790.37 240.411 790.37 Q228.761 790.37 222.268 784.1 Q215.743 777.798 215.743 766.658 Q215.743 762.011 216.889 757.841 Q218.035 753.64 220.263 750.107 L227.106 750.107 Q224.083 753.672 222.555 757.682 Q221.027 761.693 221.027 766.117 Q221.027 774.838 225.897 779.23 Q230.767 783.591 240.411 783.591 Q250.023 783.591 254.893 779.23 Q259.762 774.838 259.762 766.117 Q259.762 762.711 259.189 760.038 Q258.585 757.364 257.343 755.231 Z" fill="#000000" fill-rule="nonzero" fill-opacity="1" /><path clip-path="url(#clip790)" d="M238.501 736.007 L244.166 736.007 L244.166 728.4 L246.713 728.4 L246.713 736.007 L257.534 736.007 Q259.985 736.007 260.685 735.243 Q261.386 734.479 261.386 732.188 L261.386 728.4 L264.123 728.4 L264.123 732.188 Q264.123 736.453 262.691 738.076 Q261.29 739.699 257.534 739.699 L246.713 739.699 L246.713 742.405 L244.166 742.405 L244.166 739.699 L238.501 739.699 L238.501 736.007 Z" fill="#000000" fill-rule="nonzero" fill-opacity="1" /><path clip-path="url(#clip790)" d="M214.311 710.608 L279.496 710.608 L279.496 716.019 L214.311 716.019 L214.311 710.608 Z" fill="#000000" fill-rule="nonzero" fill-opacity="1" /><polyline clip-path="url(#clip791)" style="stroke:#d45e00; stroke-linecap:round; stroke-linejoin:round; stroke-width:8; stroke-opacity:1; fill:none" stroke-dasharray="32, 20" points="511.757,236.218 520.121,380.922 528.485,168.574 536.848,306.297 545.212,378.962 553.576,461.396 561.939,464.793 570.303,324.396 578.667,388.73 587.03,351.7 595.394,621.278 603.758,605.817 612.121,539.474 620.485,631.115 628.849,602.265 637.212,810.109 645.576,480.87 653.94,557.511 662.303,791.354 670.667,634.17 679.031,802.758 687.394,781.284 695.758,705.985 704.122,911.07 712.485,842.834 720.849,830.737 729.213,910.562 737.576,952.095 745.94,778.621 754.304,877.917 762.667,932.858 771.031,979.37 779.395,931.226 787.758,1007.18 796.122,971.167 804.486,950.084 812.849,991.9 821.213,936.44 829.577,906.064 837.94,1043.4 846.304,998.059 854.668,994.093 863.031,1012.8 871.395,1151.65 879.759,1065.52 888.122,926.313 896.486,1208.35 904.85,1123.9 913.213,1032.63 921.577,1166.84 929.941,1091.11 938.304,1126.92 946.668,1101.64 955.032,1147.82 963.395,1059.8 971.759,1113.93 980.123,1149.47 988.486,1134.12 996.85,1073.98 1005.21,1225.99 1013.58,1171.98 1021.94,1190.41 1030.3,1066.2 1038.67,1237.44 1047.03,1214.69 1055.4,1180.08 1063.76,1260.68 1072.12,1168.77 1080.49,1239.38 1088.85,1244.9 1097.21,1247.71 1105.58,1116.2 1113.94,1261.95 1122.3,1223.13 1130.67,1163.88 1139.03,1122.66 1147.4,1226.97 1155.76,1258.27 1164.12,1221.41 1172.49,1289.08 1180.85,1234.21 1189.21,1203.18 1197.58,1312.87 1205.94,1300.82 1214.31,1256.05 1222.67,1310.32 1231.03,1304.31 1239.4,1255.82 1247.76,1323.54 1256.12,1245.44 1264.49,1261.18 1272.85,1178.33 1281.21,1325.88 1289.58,1209.46 1297.94,1207.88 1306.31,1255.59 1314.67,1120.24 1323.03,1215.57 1331.4,1235.47 1339.76,1183.53 1348.12,1174.2 1356.49,1187.66 1364.85,1183.82 1373.21,1270.92 1381.58,1144.87 1389.94,1187.36 1398.31,1220.39 1406.67,1315.53 1415.03,1202.86 1423.4,1323.46 1431.76,1229.92 1440.12,1307.02 1448.49,1215.34 1456.85,1246.05 1465.22,1219.75 1473.58,1194.48 1481.94,1213.6 1490.31,1248.66 1498.67,1162.28 1507.03,1124.89 1515.4,1164.87 1523.76,1184.3 1532.12,1231.5 1540.49,1188.47 1548.85,1251.45 1557.22,1200.86 1565.58,1239.55 1573.94,1243.99 1582.31,1169.78 1590.67,1170.22 1599.03,1108.94 1607.4,1281.08 1615.76,1238.21 1624.12,1222.79 1632.49,1261.06 1640.85,1233.7 1649.22,1292.23 1657.58,1142.68 1665.94,1199.79 1674.31,1250.83 1682.67,1260.24 1691.03,1231.2 1699.4,1229.74 1707.76,1236.15 1716.13,1223.48 1724.49,1194.35 1732.85,1393.21 1741.22,1236.97 1749.58,1230.18 1757.94,1284.15 1766.31,1107.63 1774.67,1195.85 1783.03,1210.56 1791.4,1222.54 1799.76,1231.22 1808.13,1186.18 1816.49,1271.3 1824.85,1209.2 1833.22,1255.52 1841.58,1144.56 1849.94,1144.39 1858.31,1211.58 1866.67,1233.18 1875.03,1267.92 1883.4,1279.51 1891.76,1296.77 1900.13,1327.82 1908.49,1205.57 1916.85,1204.06 1925.22,1238.18 1933.58,1287.34 1941.94,1199.09 1950.31,1213.18 1958.67,1231.46 1967.04,1385.3 1975.4,1259.38 1983.76,1260.03 1992.13,1370.51 2000.49,1278.97 2008.85,1387.88 2017.22,1376.19 2025.58,1268.44 2033.94,1320.9 2042.31,1409.43 2050.67,1382.39 2059.04,1434.48 2067.4,1359.87 2075.76,1389.57 2084.13,1351.96 2092.49,1396.15 2100.85,1387.94 2109.22,1349.95 2117.58,1395.38 2125.94,1373.57 2134.31,1392.82 2142.67,1412.24 2151.04,1315.36 2159.4,1313.9 2167.76,1367.1 2176.13,1413.78 2184.49,1301.91 2192.85,1345.47 2201.22,1256.88 2209.58,1314.39 2217.95,1425.36 2226.31,1300.98 2234.67,1319.22 2243.04,1337.8 2251.4,1361.49 2259.76,1414.76 2268.13,1269.33 2276.49,1329.36 2284.85,1418.45 2293.22,1285.91 2301.58,1371.84 2309.95,1299.27 2318.31,1331.14 2326.67,1390.2 2335.04,1379.25 2343.4,1472.59 2351.76,1312.59 2360.13,1401.65 2368.49,1438.29 2376.85,1352.16 2385.22,1452.97 2393.58,1455.49 2401.95,1461.41 2410.31,1475.11 2418.67,1489.66 2427.04,1544.93 2435.4,1444.57 2443.76,1493.94 2452.13,1539.91 2460.49,1451.93 2468.86,1472.9 2477.22,1516.73 2485.58,1456.64 2493.95,1584.63 2502.31,1456.74 2510.67,1490.73 2519.04,1547.69 2527.4,1436.82 2535.76,1588.24 2544.13,1506.47 2552.49,1489.85 2560.86,1527.41 2569.22,1557.62 2577.58,1472.24 2585.95,1483.34 2594.31,1554.71 2602.67,1483.24 2611.04,1543.29 "/>
<polyline clip-path="url(#clip791)" style="stroke:#009e73; stroke-linecap:round; stroke-linejoin:round; stroke-width:8; stroke-opacity:1; fill:none" points="511.757,507.892 520.121,636.002 528.485,726.933 536.848,801.723 545.212,873.844 553.576,934.237 561.939,973.378 570.303,1027.26 578.667,1061.31 587.03,1084.62 595.394,1117.79 603.758,1158.92 612.121,1183.48 620.485,1204.69 628.849,1223.7 637.212,1237.73 645.576,1253.53 653.94,1271.28 662.303,1283.4 670.667,1297.59 679.031,1312.82 687.394,1314.83 695.758,1324.47 704.122,1324.81 712.485,1334.44 720.849,1340.39 729.213,1345.99 737.576,1355.93 745.94,1356.61 754.304,1355.78 762.667,1364.73 771.031,1366.39 779.395,1370.02 787.758,1375.77 796.122,1377.54 804.486,1380.97 812.849,1380.52 821.213,1374.13 829.577,1379.73 837.94,1377.78 846.304,1373.99 854.668,1384.96 863.031,1378.33 871.395,1371.71 879.759,1378.09 888.122,1376.4 896.486,1384.13 904.85,1379.43 913.213,1380.22 921.577,1384.83 929.941,1380.06 938.304,1381.26 946.668,1385.98 955.032,1386.52 963.395,1393.35 971.759,1377.87 980.123,1386.99 988.486,1384.38 996.85,1390.75 1005.21,1387.1 1013.58,1394.11 1021.94,1396.62 1030.3,1397.68 1038.67,1394.83 1047.03,1394.34 1055.4,1398.95 1063.76,1386.82 1072.12,1391.99 1080.49,1392.97 1088.85,1394.96 1097.21,1388.81 1105.58,1393.23 1113.94,1388.59 1122.3,1384.68 1130.67,1391.72 1139.03,1392.75 1147.4,1387.14 1155.76,1386.51 1164.12,1383.37 1172.49,1389.47 1180.85,1392.63 1189.21,1395.58 1197.58,1385.86 1205.94,1386.72 1214.31,1386.61 1222.67,1386.9 1231.03,1384.67 1239.4,1389 1247.76,1386.38 1256.12,1392.7 1264.49,1386.93 1272.85,1385.07 1281.21,1393.99 1289.58,1385.6 1297.94,1382.97 1306.31,1388.7 1314.67,1390.61 1323.03,1390.91 1331.4,1389.09 1339.76,1391.08 1348.12,1396 1356.49,1395.98 1364.85,1385.32 1373.21,1394.97 1381.58,1393.16 1389.94,1392.07 1398.31,1396.98 1406.67,1394.99 1415.03,1397.49 1423.4,1397.96 1431.76,1397.8 1440.12,1401.21 1448.49,1397.06 1456.85,1395.5 1465.22,1399.78 1473.58,1398.91 1481.94,1396.02 1490.31,1390.35 1498.67,1395.02 1507.03,1394.47 1515.4,1390.28 1523.76,1396.3 1532.12,1397.04 1540.49,1387.98 1548.85,1395.68 1557.22,1384.89 1565.58,1395.07 1573.94,1395.15 1582.31,1389.13 1590.67,1391 1599.03,1394.69 1607.4,1389 1615.76,1395.82 1624.12,1390.68 1632.49,1394.16 1640.85,1388.74 1649.22,1397.98 1657.58,1398.6 1665.94,1399.25 1674.31,1397.92 1682.67,1388.34 1691.03,1398.43 1699.4,1403.13 1707.76,1390.32 1716.13,1390.07 1724.49,1384.01 1732.85,1389.9 1741.22,1395.28 1749.58,1399.11 1757.94,1392.88 1766.31,1393.86 1774.67,1394.76 1783.03,1396.43 1791.4,1394.06 1799.76,1397.32 1808.13,1400.68 1816.49,1400.8 1824.85,1397.85 1833.22,1399 1841.58,1394.14 1849.94,1394.46 1858.31,1397.2 1866.67,1400.79 1875.03,1397.4 1883.4,1391.09 1891.76,1389.14 1900.13,1400.65 1908.49,1391.63 1916.85,1399.91 1925.22,1395.8 1933.58,1398.31 1941.94,1394.92 1950.31,1399.41 1958.67,1396.82 1967.04,1402.34 1975.4,1403.05 1983.76,1401.11 1992.13,1400.31 2000.49,1401.96 2008.85,1399.39 2017.22,1398.36 2025.58,1393.53 2033.94,1391.59 2042.31,1388.46 2050.67,1397.54 2059.04,1396.64 2067.4,1396.23 2075.76,1395.09 2084.13,1399.29 2092.49,1400.67 2100.85,1394.61 2109.22,1398.75 2117.58,1400.99 2125.94,1387.18 2134.31,1394.85 2142.67,1393.45 2151.04,1393.55 2159.4,1389.45 2167.76,1396.56 2176.13,1396.58 2184.49,1387.42 2192.85,1387.46 2201.22,1396.98 2209.58,1390.56 2217.95,1387.04 2226.31,1394.12 2234.67,1387.69 2243.04,1393.08 2251.4,1389.05 2259.76,1392.84 2268.13,1396.2 2276.49,1389.76 2284.85,1397.96 2293.22,1391.21 2301.58,1398.73 2309.95,1393.89 2318.31,1397.12 2326.67,1397.7 2335.04,1386.19 2343.4,1392.25 2351.76,1392.89 2360.13,1389.66 2368.49,1395.14 2376.85,1398.25 2385.22,1392.02 2393.58,1394.11 2401.95,1395.79 2410.31,1398.63 2418.67,1395.73 2427.04,1398.16 2435.4,1393.16 2443.76,1398.41 2452.13,1403.1 2460.49,1395.93 2468.86,1401.83 2477.22,1393.06 2485.58,1399.87 2493.95,1397.14 2502.31,1406.95 2510.67,1400.43 2519.04,1401.65 2527.4,1407.96 2535.76,1394.26 2544.13,1396.43 2552.49,1397.42 2560.86,1411.73 2569.22,1402.13 2577.58,1402.16 2585.95,1404 2594.31,1406.53 2602.67,1407.06 2611.04,1403.4 "/>
<path clip-path="url(#clip791)" d="M511.757 627.838 L520.121 770.448 L528.485 843.691 L536.848 918.005 L545.212 985.278 L553.576 1048.23 L561.939 1078.77 L570.303 1133.96 L578.667 1168.84 L587.03 1206.39 L595.394 1248.85 L603.758 1268.97 L612.121 1316.29 L620.485 1325.06 L628.849 1329.71 L637.212 1360.5 L645.576 1352.55 L653.94 1383.67 L662.303 1398.97 L670.667 1414.38 L679.031 1451.08 L687.394 1431.76 L695.758 1444.43 L704.122 1436.95 L712.485 1448.59 L720.849 1454.48 L729.213 1442.84 L737.576 1466.38 L745.94 1456.78 L754.304 1462.95 L762.667 1472.51 L771.031 1476.31 L779.395 1487.46 L787.758 1485.84 L796.122 1487.5 L804.486 1491.87 L812.849 1489.75 L821.213 1492.29 L829.577 1488.38 L837.94 1483.89 L846.304 1498.46 L854.668 1499.55 L863.031 1478.4 L871.395 1483.36 L879.759 1497.92 L888.122 1484.21 L896.486 1495.95 L904.85 1480.31 L913.213 1491.71 L921.577 1493.89 L929.941 1483.58 L938.304 1489.88 L946.668 1495.84 L955.032 1499.32 L963.395 1493.91 L971.759 1492.97 L980.123 1505.92 L988.486 1501.71 L996.85 1512.35 L1005.21 1500.09 L1013.58 1504.4 L1021.94 1492.31 L1030.3 1513.69 L1038.67 1496.17 L1047.03 1503.54 L1055.4 1515.71 L1063.76 1512.35 L1072.12 1504.24 L1080.49 1504.86 L1088.85 1513.79 L1097.21 1527.99 L1105.58 1511.59 L1113.94 1496.37 L1122.3 1516.55 L1130.67 1507.32 L1139.03 1500.4 L1147.4 1494.56 L1155.76 1500.34 L1164.12 1506.2 L1172.49 1500.7 L1180.85 1505.83 L1189.21 1511.1 L1197.58 1495.03 L1205.94 1502.83 L1214.31 1498.73 L1222.67 1497.41 L1231.03 1497.02 L1239.4 1506.29 L1247.76 1494.83 L1256.12 1499.6 L1264.49 1493.7 L1272.85 1494.97 L1281.21 1503.22 L1289.58 1496.33 L1297.94 1494.88 L1306.31 1489.31 L1314.67 1504.91 L1323.03 1504.92 L1331.4 1508.03 L1339.76 1512.39 L1348.12 1523.61 L1356.49 1512.3 L1364.85 1507.59 L1373.21 1510.37 L1381.58 1518.21 L1389.94 1503.68 L1398.31 1504.22 L1406.67 1512.23 L1415.03 1512.99 L1423.4 1512.23 L1431.76 1513.99 L1440.12 1512.57 L1448.49 1504.59 L1456.85 1511.88 L1465.22 1508.32 L1473.58 1508.71 L1481.94 1502.11 L1490.31 1501.6 L1498.67 1510.34 L1507.03 1504.29 L1515.4 1512.33 L1523.76 1504.59 L1532.12 1502.56 L1540.49 1511.53 L1548.85 1494.34 L1557.22 1491.72 L1565.58 1515.23 L1573.94 1510.7 L1582.31 1491.9 L1590.67 1517.1 L1599.03 1522.01 L1607.4 1494.99 L1615.76 1506.11 L1624.12 1508.51 L1632.49 1510.82 L1640.85 1489.46 L1649.22 1507.66 L1657.58 1506.74 L1665.94 1512.81 L1674.31 1507.56 L1682.67 1498.74 L1691.03 1508.4 L1699.4 1511.59 L1707.76 1509.4 L1716.13 1501.17 L1724.49 1517.18 L1732.85 1500.81 L1741.22 1502.59 L1749.58 1504.34 L1757.94 1494.05 L1766.31 1495.6 L1774.67 1498.71 L1783.03 1507.91 L1791.4 1495.26 L1799.76 1497.01 L1808.13 1497.94 L1816.49 1507.28 L1824.85 1505.31 L1833.22 1500.5 L1841.58 1503.72 L1849.94 1492.18 L1858.31 1492.38 L1866.67 1516.74 L1875.03 1515.54 L1883.4 1499.46 L1891.76 1497.41 L1900.13 1508.38 L1908.49 1504.3 L1916.85 1506.33 L1925.22 1505.57 L1933.58 1510.99 L1941.94 1510.46 L1950.31 1509.84 L1958.67 1511.47 L1967.04 1523.62 L1975.4 1512.45 L1983.76 1510.4 L1992.13 1520.47 L2000.49 1516.45 L2008.85 1510.15 L2017.22 1512.04 L2025.58 1503.21 L2033.94 1497.07 L2042.31 1517.55 L2050.67 1513.61 L2059.04 1509.67 L2067.4 1510.59 L2075.76 1504.88 L2084.13 1511.24 L2092.49 1508.96 L2100.85 1528.47 L2109.22 1513.36 L2117.58 1501.77 L2125.94 1503.07 L2134.31 1513.65 L2142.67 1498.54 L2151.04 1506.12 L2159.4 1500.86 L2167.76 1505.71 L2176.13 1526.68 L2184.49 1496.77 L2192.85 1497.99 L2201.22 1509.54 L2209.58 1507.67 L2217.95 1491.1 L2226.31 1510.19 L2234.67 1491.07 L2243.04 1509.02 L2251.4 1487.98 L2259.76 1495.34 L2268.13 1508.13 L2276.49 1498.04 L2284.85 1508.51 L2293.22 1505.82 L2301.58 1521.58 L2309.95 1517.1 L2318.31 1505.73 L2326.67 1504.07 L2335.04 1513.39 L2343.4 1497.87 L2351.76 1498.94 L2360.13 1504.47 L2368.49 1512.6 L2376.85 1506.54 L2385.22 1525.99 L2393.58 1503.87 L2401.95 1496.03 L2410.31 1495.96 L2418.67 1498.52 L2427.04 1503.14 L2435.4 1499.84 L2443.76 1505.79 L2452.13 1501.84 L2460.49 1509.69 L2468.86 1498.66 L2477.22 1510.07 L2485.58 1499.64 L2493.95 1499.21 L2502.31 1532.29 L2510.67 1510.64 L2519.04 1502.42 L2527.4 1499.4 L2535.76 1503.81 L2544.13 1507.49 L2552.49 1507.27 L2560.86 1514.25 L2569.22 1503.62 L2577.58 1514.39 L2585.95 1510.28 L2594.31 1528.42 L2602.67 1526.06 L2611.04 1513.05 L2611.04 1297.51 L2602.67 1284.51 L2594.31 1280.28 L2585.95 1300.8 L2577.58 1304.59 L2569.22 1305.62 L2560.86 1307.63 L2552.49 1288.7 L2544.13 1282.66 L2535.76 1283.65 L2527.4 1306.28 L2519.04 1298.45 L2510.67 1286 L2502.31 1293.15 L2493.95 1297.88 L2485.58 1298.83 L2477.22 1282.26 L2468.86 1309.96 L2460.49 1273.31 L2452.13 1293.09 L2443.76 1277.51 L2435.4 1289.42 L2427.04 1279.89 L2418.67 1295.05 L2410.31 1278.28 L2401.95 1291.47 L2393.58 1280.11 L2385.22 1280.75 L2376.85 1286.35 L2368.49 1277.18 L2360.13 1277.94 L2351.76 1282.82 L2343.4 1255.07 L2335.04 1272.12 L2326.67 1301.67 L2318.31 1278.86 L2309.95 1278.76 L2301.58 1268.43 L2293.22 1287.75 L2284.85 1280.68 L2276.49 1278.63 L2268.13 1279.87 L2259.76 1289.28 L2251.4 1260.15 L2243.04 1283.09 L2234.67 1276.92 L2226.31 1264.07 L2217.95 1265.98 L2209.58 1267.34 L2201.22 1282.22 L2192.85 1275.62 L2184.49 1258.38 L2176.13 1267.21 L2167.76 1293.68 L2159.4 1262.1 L2151.04 1277.61 L2142.67 1270.73 L2134.31 1274.73 L2125.94 1267.74 L2117.58 1297.15 L2109.22 1277.02 L2100.85 1288.95 L2092.49 1277.58 L2084.13 1280.22 L2075.76 1274.62 L2067.4 1280.41 L2059.04 1280.9 L2050.67 1287.01 L2042.31 1261.1 L2033.94 1280.28 L2025.58 1271.54 L2017.22 1287.5 L2008.85 1288.45 L2000.49 1289.85 L1992.13 1259.66 L1983.76 1288.33 L1975.4 1280.77 L1967.04 1284.17 L1958.67 1279.64 L1950.31 1293.55 L1941.94 1284.42 L1933.58 1284.56 L1925.22 1282.02 L1916.85 1285.78 L1908.49 1289.75 L1900.13 1285.07 L1891.76 1279.5 L1883.4 1275.53 L1875.03 1281.97 L1866.67 1279.02 L1858.31 1288.01 L1849.94 1287.76 L1841.58 1268.84 L1833.22 1286.96 L1824.85 1292.4 L1816.49 1300.8 L1808.13 1297.47 L1799.76 1292.48 L1791.4 1285.88 L1783.03 1287.05 L1774.67 1294.57 L1766.31 1286.31 L1757.94 1285.04 L1749.58 1298.96 L1741.22 1279.06 L1732.85 1280.05 L1724.49 1268.6 L1716.13 1251.47 L1707.76 1270.49 L1699.4 1296.58 L1691.03 1290.92 L1682.67 1288.89 L1674.31 1279.5 L1665.94 1297.14 L1657.58 1285.28 L1649.22 1278.74 L1640.85 1269.01 L1632.49 1286.24 L1624.12 1268.98 L1615.76 1282.12 L1607.4 1265.66 L1599.03 1273.55 L1590.67 1268.03 L1582.31 1285.58 L1573.94 1284.32 L1565.58 1272.73 L1557.22 1268.86 L1548.85 1278.28 L1540.49 1264.25 L1532.12 1276.64 L1523.76 1267.54 L1515.4 1271.39 L1507.03 1265.05 L1498.67 1285.65 L1490.31 1288.11 L1481.94 1287.83 L1473.58 1291.73 L1465.22 1298.71 L1456.85 1271.85 L1448.49 1284.91 L1440.12 1298.02 L1431.76 1274.58 L1423.4 1283.1 L1415.03 1262.97 L1406.67 1276.59 L1398.31 1276.58 L1389.94 1288.88 L1381.58 1275.49 L1373.21 1286.52 L1364.85 1276.63 L1356.49 1268.73 L1348.12 1276.2 L1339.76 1265.41 L1331.4 1248.48 L1323.03 1287.79 L1314.67 1265.15 L1306.31 1272.74 L1297.94 1268.98 L1289.58 1263.21 L1281.21 1280.61 L1272.85 1250.91 L1264.49 1279.67 L1256.12 1268.02 L1247.76 1276.56 L1239.4 1260.66 L1231.03 1255.44 L1222.67 1275.86 L1214.31 1286.61 L1205.94 1277.14 L1197.58 1275.46 L1189.21 1278.61 L1180.85 1287 L1172.49 1286.96 L1164.12 1259.72 L1155.76 1279.32 L1147.4 1270.45 L1139.03 1282.6 L1130.67 1263.49 L1122.3 1266.31 L1113.94 1284.08 L1105.58 1277.16 L1097.21 1272.31 L1088.85 1270.08 L1080.49 1260.86 L1072.12 1278.57 L1063.76 1270.16 L1055.4 1289.53 L1047.03 1279.93 L1038.67 1284.67 L1030.3 1291.01 L1021.94 1293.81 L1013.58 1273.2 L1005.21 1267.12 L996.85 1275.02 L988.486 1270.19 L980.123 1271.34 L971.759 1266.09 L963.395 1277.11 L955.032 1281.84 L946.668 1280.34 L938.304 1279.94 L929.941 1264.68 L921.577 1268.93 L913.213 1256.61 L904.85 1265.07 L896.486 1264.94 L888.122 1270.61 L879.759 1252.37 L871.395 1241.97 L863.031 1253.87 L854.668 1267.3 L846.304 1238.6 L837.94 1265.82 L829.577 1265.17 L821.213 1252.02 L812.849 1267.95 L804.486 1264.84 L796.122 1262.12 L787.758 1261.13 L779.395 1261.79 L771.031 1256.68 L762.667 1263.34 L754.304 1235.38 L745.94 1230.12 L737.576 1225.89 L729.213 1246.03 L720.849 1217.99 L712.485 1216.39 L704.122 1207.23 L695.758 1204.6 L687.394 1180.67 L679.031 1178.18 L670.667 1169.3 L662.303 1166.37 L653.94 1153.96 L645.576 1139.55 L637.212 1125.15 L628.849 1100.88 L620.485 1090.8 L612.121 1060.03 L603.758 1039.34 L595.394 981.889 L587.03 965.521 L578.667 942.81 L570.303 914.859 L561.939 864.853 L553.576 831.471 L545.212 768.327 L536.848 688.729 L528.485 615.382 L520.121 515.479 L511.757 378.76  Z" fill="#009e73" fill-rule="evenodd" fill-opacity="0.2"/>
<polyline clip-path="url(#clip791)" style="stroke:#009e73; stroke-linecap:round; stroke-linejoin:round; stroke-width:4; stroke-opacity:0.2; fill:none" points="511.757,627.838 520.121,770.448 528.485,843.691 536.848,918.005 545.212,985.278 553.576,1048.23 561.939,1078.77 570.303,1133.96 578.667,1168.84 587.03,1206.39 595.394,1248.85 603.758,1268.97 612.121,1316.29 620.485,1325.06 628.849,1329.71 637.212,1360.5 645.576,1352.55 653.94,1383.67 662.303,1398.97 670.667,1414.38 679.031,1451.08 687.394,1431.76 695.758,1444.43 704.122,1436.95 712.485,1448.59 720.849,1454.48 729.213,1442.84 737.576,1466.38 745.94,1456.78 754.304,1462.95 762.667,1472.51 771.031,1476.31 779.395,1487.46 787.758,1485.84 796.122,1487.5 804.486,1491.87 812.849,1489.75 821.213,1492.29 829.577,1488.38 837.94,1483.89 846.304,1498.46 854.668,1499.55 863.031,1478.4 871.395,1483.36 879.759,1497.92 888.122,1484.21 896.486,1495.95 904.85,1480.31 913.213,1491.71 921.577,1493.89 929.941,1483.58 938.304,1489.88 946.668,1495.84 955.032,1499.32 963.395,1493.91 971.759,1492.97 980.123,1505.92 988.486,1501.71 996.85,1512.35 1005.21,1500.09 1013.58,1504.4 1021.94,1492.31 1030.3,1513.69 1038.67,1496.17 1047.03,1503.54 1055.4,1515.71 1063.76,1512.35 1072.12,1504.24 1080.49,1504.86 1088.85,1513.79 1097.21,1527.99 1105.58,1511.59 1113.94,1496.37 1122.3,1516.55 1130.67,1507.32 1139.03,1500.4 1147.4,1494.56 1155.76,1500.34 1164.12,1506.2 1172.49,1500.7 1180.85,1505.83 1189.21,1511.1 1197.58,1495.03 1205.94,1502.83 1214.31,1498.73 1222.67,1497.41 1231.03,1497.02 1239.4,1506.29 1247.76,1494.83 1256.12,1499.6 1264.49,1493.7 1272.85,1494.97 1281.21,1503.22 1289.58,1496.33 1297.94,1494.88 1306.31,1489.31 1314.67,1504.91 1323.03,1504.92 1331.4,1508.03 1339.76,1512.39 1348.12,1523.61 1356.49,1512.3 1364.85,1507.59 1373.21,1510.37 1381.58,1518.21 1389.94,1503.68 1398.31,1504.22 1406.67,1512.23 1415.03,1512.99 1423.4,1512.23 1431.76,1513.99 1440.12,1512.57 1448.49,1504.59 1456.85,1511.88 1465.22,1508.32 1473.58,1508.71 1481.94,1502.11 1490.31,1501.6 1498.67,1510.34 1507.03,1504.29 1515.4,1512.33 1523.76,1504.59 1532.12,1502.56 1540.49,1511.53 1548.85,1494.34 1557.22,1491.72 1565.58,1515.23 1573.94,1510.7 1582.31,1491.9 1590.67,1517.1 1599.03,1522.01 1607.4,1494.99 1615.76,1506.11 1624.12,1508.51 1632.49,1510.82 1640.85,1489.46 1649.22,1507.66 1657.58,1506.74 1665.94,1512.81 1674.31,1507.56 1682.67,1498.74 1691.03,1508.4 1699.4,1511.59 1707.76,1509.4 1716.13,1501.17 1724.49,1517.18 1732.85,1500.81 1741.22,1502.59 1749.58,1504.34 1757.94,1494.05 1766.31,1495.6 1774.67,1498.71 1783.03,1507.91 1791.4,1495.26 1799.76,1497.01 1808.13,1497.94 1816.49,1507.28 1824.85,1505.31 1833.22,1500.5 1841.58,1503.72 1849.94,1492.18 1858.31,1492.38 1866.67,1516.74 1875.03,1515.54 1883.4,1499.46 1891.76,1497.41 1900.13,1508.38 1908.49,1504.3 1916.85,1506.33 1925.22,1505.57 1933.58,1510.99 1941.94,1510.46 1950.31,1509.84 1958.67,1511.47 1967.04,1523.62 1975.4,1512.45 1983.76,1510.4 1992.13,1520.47 2000.49,1516.45 2008.85,1510.15 2017.22,1512.04 2025.58,1503.21 2033.94,1497.07 2042.31,1517.55 2050.67,1513.61 2059.04,1509.67 2067.4,1510.59 2075.76,1504.88 2084.13,1511.24 2092.49,1508.96 2100.85,1528.47 2109.22,1513.36 2117.58,1501.77 2125.94,1503.07 2134.31,1513.65 2142.67,1498.54 2151.04,1506.12 2159.4,1500.86 2167.76,1505.71 2176.13,1526.68 2184.49,1496.77 2192.85,1497.99 2201.22,1509.54 2209.58,1507.67 2217.95,1491.1 2226.31,1510.19 2234.67,1491.07 2243.04,1509.02 2251.4,1487.98 2259.76,1495.34 2268.13,1508.13 2276.49,1498.04 2284.85,1508.51 2293.22,1505.82 2301.58,1521.58 2309.95,1517.1 2318.31,1505.73 2326.67,1504.07 2335.04,1513.39 2343.4,1497.87 2351.76,1498.94 2360.13,1504.47 2368.49,1512.6 2376.85,1506.54 2385.22,1525.99 2393.58,1503.87 2401.95,1496.03 2410.31,1495.96 2418.67,1498.52 2427.04,1503.14 2435.4,1499.84 2443.76,1505.79 2452.13,1501.84 2460.49,1509.69 2468.86,1498.66 2477.22,1510.07 2485.58,1499.64 2493.95,1499.21 2502.31,1532.29 2510.67,1510.64 2519.04,1502.42 2527.4,1499.4 2535.76,1503.81 2544.13,1507.49 2552.49,1507.27 2560.86,1514.25 2569.22,1503.62 2577.58,1514.39 2585.95,1510.28 2594.31,1528.42 2602.67,1526.06 2611.04,1513.05 "/>
<path clip-path="url(#clip790)" d="M1956.75 409.426 L2599.84 409.426 L2599.84 176.146 L1956.75 176.146  Z" fill="#ffffff" fill-rule="evenodd" fill-opacity="1"/>
<polyline clip-path="url(#clip790)" style="stroke:#000000; stroke-linecap:round; stroke-linejoin:round; stroke-width:4; stroke-opacity:1; fill:none" points="1956.75,409.426 2599.84,409.426 2599.84,176.146 1956.75,176.146 1956.75,409.426 "/>
<polyline clip-path="url(#clip790)" style="stroke:#d45e00; stroke-linecap:round; stroke-linejoin:round; stroke-width:9; stroke-opacity:1; fill:none" stroke-dasharray="36, 23" points="1981.47,234.466 2129.82,234.466 "/>
<path clip-path="url(#clip790)" d="M2172.57 218.594 Q2166.84 218.594 2163.45 222.864 Q2160.09 227.135 2160.09 234.505 Q2160.09 241.849 2163.45 246.119 Q2166.84 250.39 2172.57 250.39 Q2178.3 250.39 2181.63 246.119 Q2184.99 241.849 2184.99 234.505 Q2184.99 227.135 2181.63 222.864 Q2178.3 218.594 2172.57 218.594 M2172.57 214.323 Q2180.74 214.323 2185.64 219.817 Q2190.54 225.286 2190.54 234.505 Q2190.54 243.698 2185.64 249.192 Q2180.74 254.661 2172.57 254.661 Q2164.36 254.661 2159.44 249.192 Q2154.55 243.724 2154.55 234.505 Q2154.55 225.286 2159.44 219.817 Q2164.36 214.323 2172.57 214.323 Z" fill="#000000" fill-rule="nonzero" fill-opacity="1" /><path clip-path="url(#clip790)" d="M2219.49 239.349 Q2219.49 234.062 2217.31 231.067 Q2215.14 228.047 2211.34 228.047 Q2207.54 228.047 2205.35 231.067 Q2203.19 234.062 2203.19 239.349 Q2203.19 244.635 2205.35 247.656 Q2207.54 250.651 2211.34 250.651 Q2215.14 250.651 2217.31 247.656 Q2219.49 244.635 2219.49 239.349 M2203.19 229.166 Q2204.7 226.562 2206.99 225.312 Q2209.31 224.036 2212.51 224.036 Q2217.83 224.036 2221.13 228.255 Q2224.47 232.474 2224.47 239.349 Q2224.47 246.224 2221.13 250.442 Q2217.83 254.661 2212.51 254.661 Q2209.31 254.661 2206.99 253.411 Q2204.7 252.135 2203.19 249.531 L2203.19 253.906 L2198.37 253.906 L2198.37 213.385 L2203.19 213.385 L2203.19 229.166 Z" fill="#000000" fill-rule="nonzero" fill-opacity="1" /><path clip-path="url(#clip790)" d="M2251 225.599 L2251 230.13 Q2248.97 229.088 2246.78 228.567 Q2244.6 228.047 2242.25 228.047 Q2238.69 228.047 2236.89 229.14 Q2235.12 230.234 2235.12 232.422 Q2235.12 234.088 2236.39 235.052 Q2237.67 235.989 2241.52 236.849 L2243.16 237.213 Q2248.27 238.307 2250.4 240.312 Q2252.57 242.291 2252.57 245.859 Q2252.57 249.921 2249.34 252.291 Q2246.13 254.661 2240.51 254.661 Q2238.17 254.661 2235.61 254.192 Q2233.09 253.75 2230.27 252.838 L2230.27 247.89 Q2232.93 249.27 2235.51 249.974 Q2238.09 250.651 2240.61 250.651 Q2244 250.651 2245.82 249.505 Q2247.64 248.333 2247.64 246.224 Q2247.64 244.27 2246.32 243.229 Q2245.01 242.187 2240.56 241.224 L2238.89 240.833 Q2234.44 239.895 2232.46 237.968 Q2230.48 236.015 2230.48 232.63 Q2230.48 228.515 2233.4 226.276 Q2236.32 224.036 2241.68 224.036 Q2244.34 224.036 2246.68 224.427 Q2249.02 224.817 2251 225.599 Z" fill="#000000" fill-rule="nonzero" fill-opacity="1" /><path clip-path="url(#clip790)" d="M2285.14 238.125 L2285.14 240.468 L2263.11 240.468 Q2263.43 245.416 2266.08 248.02 Q2268.76 250.599 2273.53 250.599 Q2276.29 250.599 2278.87 249.921 Q2281.47 249.244 2284.02 247.89 L2284.02 252.421 Q2281.45 253.515 2278.74 254.088 Q2276.03 254.661 2273.24 254.661 Q2266.26 254.661 2262.18 250.599 Q2258.11 246.536 2258.11 239.609 Q2258.11 232.448 2261.97 228.255 Q2265.85 224.036 2272.41 224.036 Q2278.3 224.036 2281.71 227.838 Q2285.14 231.614 2285.14 238.125 M2280.35 236.718 Q2280.3 232.786 2278.14 230.442 Q2276 228.099 2272.46 228.099 Q2268.45 228.099 2266.03 230.364 Q2263.63 232.63 2263.27 236.744 L2280.35 236.718 Z" fill="#000000" fill-rule="nonzero" fill-opacity="1" /><path clip-path="url(#clip790)" d="M2309.91 229.218 Q2309.1 228.75 2308.14 228.541 Q2307.2 228.307 2306.06 228.307 Q2301.99 228.307 2299.81 230.963 Q2297.64 233.593 2297.64 238.541 L2297.64 253.906 L2292.83 253.906 L2292.83 224.739 L2297.64 224.739 L2297.64 229.271 Q2299.15 226.614 2301.58 225.338 Q2304 224.036 2307.46 224.036 Q2307.96 224.036 2308.56 224.114 Q2309.15 224.166 2309.88 224.297 L2309.91 229.218 Z" fill="#000000" fill-rule="nonzero" fill-opacity="1" /><path clip-path="url(#clip790)" d="M2311.5 224.739 L2316.58 224.739 L2325.69 249.218 L2334.81 224.739 L2339.88 224.739 L2328.95 253.906 L2322.44 253.906 L2311.5 224.739 Z" fill="#000000" fill-rule="nonzero" fill-opacity="1" /><path clip-path="url(#clip790)" d="M2371.45 238.125 L2371.45 240.468 L2349.41 240.468 Q2349.73 245.416 2352.38 248.02 Q2355.07 250.599 2359.83 250.599 Q2362.59 250.599 2365.17 249.921 Q2367.77 249.244 2370.33 247.89 L2370.33 252.421 Q2367.75 253.515 2365.04 254.088 Q2362.33 254.661 2359.54 254.661 Q2352.57 254.661 2348.48 250.599 Q2344.41 246.536 2344.41 239.609 Q2344.41 232.448 2348.27 228.255 Q2352.15 224.036 2358.71 224.036 Q2364.6 224.036 2368.01 227.838 Q2371.45 231.614 2371.45 238.125 M2366.65 236.718 Q2366.6 232.786 2364.44 230.442 Q2362.3 228.099 2358.76 228.099 Q2354.75 228.099 2352.33 230.364 Q2349.94 232.63 2349.57 236.744 L2366.65 236.718 Z" fill="#000000" fill-rule="nonzero" fill-opacity="1" /><path clip-path="url(#clip790)" d="M2398.5 229.166 L2398.5 213.385 L2403.29 213.385 L2403.29 253.906 L2398.5 253.906 L2398.5 249.531 Q2396.99 252.135 2394.67 253.411 Q2392.38 254.661 2389.15 254.661 Q2383.87 254.661 2380.53 250.442 Q2377.23 246.224 2377.23 239.349 Q2377.23 232.474 2380.53 228.255 Q2383.87 224.036 2389.15 224.036 Q2392.38 224.036 2394.67 225.312 Q2396.99 226.562 2398.5 229.166 M2382.17 239.349 Q2382.17 244.635 2384.34 247.656 Q2386.52 250.651 2390.33 250.651 Q2394.13 250.651 2396.32 247.656 Q2398.5 244.635 2398.5 239.349 Q2398.5 234.062 2396.32 231.067 Q2394.13 228.047 2390.33 228.047 Q2386.52 228.047 2384.34 231.067 Q2382.17 234.062 2382.17 239.349 Z" fill="#000000" fill-rule="nonzero" fill-opacity="1" /><polyline clip-path="url(#clip790)" style="stroke:#009e73; stroke-linecap:round; stroke-linejoin:round; stroke-width:9; stroke-opacity:1; fill:none" points="1981.47,292.786 2129.82,292.786 "/>
<path clip-path="url(#clip790)" d="M2185.9 276.341 L2185.9 281.887 Q2183.24 279.414 2180.22 278.19 Q2177.23 276.966 2173.84 276.966 Q2167.18 276.966 2163.63 281.054 Q2160.09 285.117 2160.09 292.825 Q2160.09 300.507 2163.63 304.596 Q2167.18 308.658 2173.84 308.658 Q2177.23 308.658 2180.22 307.434 Q2183.24 306.21 2185.9 303.736 L2185.9 309.231 Q2183.14 311.106 2180.04 312.044 Q2176.97 312.981 2173.53 312.981 Q2164.7 312.981 2159.62 307.59 Q2154.55 302.174 2154.55 292.825 Q2154.55 283.45 2159.62 278.059 Q2164.7 272.643 2173.53 272.643 Q2177.02 272.643 2180.09 273.58 Q2183.19 274.492 2185.9 276.341 Z" fill="#000000" fill-rule="nonzero" fill-opacity="1" /><path clip-path="url(#clip790)" d="M2194.02 273.346 L2199.29 273.346 L2199.29 289.283 L2218.4 289.283 L2218.4 273.346 L2223.66 273.346 L2223.66 312.226 L2218.4 312.226 L2218.4 293.71 L2199.29 293.71 L2199.29 312.226 L2194.02 312.226 L2194.02 273.346 Z" fill="#000000" fill-rule="nonzero" fill-opacity="1" /><path clip-path="url(#clip790)" d="M2234.13 273.346 L2241.97 273.346 L2251.89 299.804 L2261.86 273.346 L2269.7 273.346 L2269.7 312.226 L2264.57 312.226 L2264.57 278.085 L2254.55 304.752 L2249.26 304.752 L2239.23 278.085 L2239.23 312.226 L2234.13 312.226 L2234.13 273.346 Z" fill="#000000" fill-rule="nonzero" fill-opacity="1" /><path clip-path="url(#clip790)" d="M2280.14 273.346 L2287.98 273.346 L2297.9 299.804 L2307.88 273.346 L2315.72 273.346 L2315.72 312.226 L2310.59 312.226 L2310.59 278.085 L2300.56 304.752 L2295.27 304.752 L2285.25 278.085 L2285.25 312.226 L2280.14 312.226 L2280.14 273.346 Z" fill="#000000" fill-rule="nonzero" fill-opacity="1" /><path clip-path="url(#clip790)" d="M2323.53 295.481 L2337.57 295.481 L2337.57 299.752 L2323.53 299.752 L2323.53 295.481 Z" fill="#000000" fill-rule="nonzero" fill-opacity="1" /><path clip-path="url(#clip790)" d="M2345.4 273.346 L2350.66 273.346 L2350.66 307.799 L2369.6 307.799 L2369.6 312.226 L2345.4 312.226 L2345.4 273.346 Z" fill="#000000" fill-rule="nonzero" fill-opacity="1" /><path clip-path="url(#clip790)" d="M2403.37 271.757 Q2399.88 277.747 2398.19 283.606 Q2396.5 289.466 2396.5 295.481 Q2396.5 301.497 2398.19 307.408 Q2399.91 313.294 2403.37 319.257 L2399.21 319.257 Q2395.3 313.137 2393.35 307.226 Q2391.42 301.314 2391.42 295.481 Q2391.42 289.674 2393.35 283.788 Q2395.27 277.903 2399.21 271.757 L2403.37 271.757 Z" fill="#000000" fill-rule="nonzero" fill-opacity="1" /><path clip-path="url(#clip790)" d="M2435.38 288.658 Q2437.17 285.429 2439.67 283.893 Q2442.17 282.356 2445.56 282.356 Q2450.12 282.356 2452.59 285.559 Q2455.06 288.736 2455.06 294.622 L2455.06 312.226 L2450.25 312.226 L2450.25 294.778 Q2450.25 290.585 2448.76 288.554 Q2447.28 286.523 2444.23 286.523 Q2440.51 286.523 2438.35 288.997 Q2436.18 291.471 2436.18 295.742 L2436.18 312.226 L2431.37 312.226 L2431.37 294.778 Q2431.37 290.559 2429.88 288.554 Q2428.4 286.523 2425.3 286.523 Q2421.63 286.523 2419.47 289.023 Q2417.3 291.497 2417.3 295.742 L2417.3 312.226 L2412.49 312.226 L2412.49 283.059 L2417.3 283.059 L2417.3 287.591 Q2418.95 284.908 2421.24 283.632 Q2423.53 282.356 2426.68 282.356 Q2429.86 282.356 2432.07 283.971 Q2434.31 285.585 2435.38 288.658 Z" fill="#000000" fill-rule="nonzero" fill-opacity="1" /><path clip-path="url(#clip790)" d="M2489.57 296.445 L2489.57 298.788 L2467.54 298.788 Q2467.85 303.736 2470.51 306.34 Q2473.19 308.919 2477.96 308.919 Q2480.72 308.919 2483.29 308.241 Q2485.9 307.564 2488.45 306.21 L2488.45 310.741 Q2485.87 311.835 2483.16 312.408 Q2480.46 312.981 2477.67 312.981 Q2470.69 312.981 2466.6 308.919 Q2462.54 304.856 2462.54 297.929 Q2462.54 290.768 2466.39 286.575 Q2470.27 282.356 2476.84 282.356 Q2482.72 282.356 2486.13 286.158 Q2489.57 289.934 2489.57 296.445 M2484.78 295.038 Q2484.73 291.106 2482.56 288.762 Q2480.43 286.419 2476.89 286.419 Q2472.88 286.419 2470.46 288.684 Q2468.06 290.95 2467.7 295.064 L2484.78 295.038 Z" fill="#000000" fill-rule="nonzero" fill-opacity="1" /><path clip-path="url(#clip790)" d="M2510.69 297.564 Q2504.88 297.564 2502.64 298.893 Q2500.4 300.221 2500.4 303.424 Q2500.4 305.976 2502.07 307.486 Q2503.76 308.971 2506.65 308.971 Q2510.64 308.971 2513.03 306.158 Q2515.46 303.32 2515.46 298.632 L2515.46 297.564 L2510.69 297.564 M2520.25 295.585 L2520.25 312.226 L2515.46 312.226 L2515.46 307.799 Q2513.81 310.455 2511.37 311.731 Q2508.92 312.981 2505.38 312.981 Q2500.9 312.981 2498.24 310.481 Q2495.61 307.955 2495.61 303.736 Q2495.61 298.814 2498.89 296.314 Q2502.2 293.814 2508.74 293.814 L2515.46 293.814 L2515.46 293.346 Q2515.46 290.038 2513.27 288.242 Q2511.11 286.419 2507.17 286.419 Q2504.67 286.419 2502.3 287.018 Q2499.93 287.617 2497.75 288.814 L2497.75 284.387 Q2500.38 283.372 2502.85 282.877 Q2505.33 282.356 2507.67 282.356 Q2514 282.356 2517.12 285.637 Q2520.25 288.919 2520.25 295.585 Z" fill="#000000" fill-rule="nonzero" fill-opacity="1" /><path clip-path="url(#clip790)" d="M2554.36 294.622 L2554.36 312.226 L2549.57 312.226 L2549.57 294.778 Q2549.57 290.637 2547.96 288.58 Q2546.34 286.523 2543.11 286.523 Q2539.23 286.523 2536.99 288.997 Q2534.75 291.471 2534.75 295.742 L2534.75 312.226 L2529.93 312.226 L2529.93 283.059 L2534.75 283.059 L2534.75 287.591 Q2536.47 284.96 2538.79 283.658 Q2541.13 282.356 2544.18 282.356 Q2549.21 282.356 2551.78 285.481 Q2554.36 288.58 2554.36 294.622 Z" fill="#000000" fill-rule="nonzero" fill-opacity="1" /><path clip-path="url(#clip790)" d="M2563.16 271.757 L2567.33 271.757 Q2571.24 277.903 2573.16 283.788 Q2575.12 289.674 2575.12 295.481 Q2575.12 301.314 2573.16 307.226 Q2571.24 313.137 2567.33 319.257 L2563.16 319.257 Q2566.63 313.294 2568.32 307.408 Q2570.04 301.497 2570.04 295.481 Q2570.04 289.466 2568.32 283.606 Q2566.63 277.747 2563.16 271.757 Z" fill="#000000" fill-rule="nonzero" fill-opacity="1" /><path clip-path="url(#clip790)" d="M1981.47 374.434 L2129.82 374.434 L2129.82 327.778 L1981.47 327.778 L1981.47 374.434  Z" fill="#009e73" fill-rule="evenodd" fill-opacity="0.2"/>
<polyline clip-path="url(#clip790)" style="stroke:#009e73; stroke-linecap:round; stroke-linejoin:round; stroke-width:4.5; stroke-opacity:0.2; fill:none" points="1981.47,327.778 2129.82,327.778 "/>
<path clip-path="url(#clip790)" d="M2155.3 366.119 L2163.89 366.119 L2163.89 336.457 L2154.55 338.332 L2154.55 333.541 L2163.84 331.666 L2169.1 331.666 L2169.1 366.119 L2177.7 366.119 L2177.7 370.546 L2155.3 370.546 L2155.3 366.119 Z" fill="#000000" fill-rule="nonzero" fill-opacity="1" /><path clip-path="url(#clip790)" d="M2199.57 335.129 Q2195.51 335.129 2193.45 339.14 Q2191.42 343.124 2191.42 351.145 Q2191.42 359.14 2193.45 363.15 Q2195.51 367.134 2199.57 367.134 Q2203.66 367.134 2205.69 363.15 Q2207.75 359.14 2207.75 351.145 Q2207.75 343.124 2205.69 339.14 Q2203.66 335.129 2199.57 335.129 M2199.57 330.963 Q2206.11 330.963 2209.55 336.145 Q2213.01 341.301 2213.01 351.145 Q2213.01 360.963 2209.55 366.145 Q2206.11 371.301 2199.57 371.301 Q2193.04 371.301 2189.57 366.145 Q2186.13 360.963 2186.13 351.145 Q2186.13 341.301 2189.57 336.145 Q2193.04 330.963 2199.57 330.963 Z" fill="#000000" fill-rule="nonzero" fill-opacity="1" /><path clip-path="url(#clip790)" d="M2219.15 353.801 L2233.19 353.801 L2233.19 358.072 L2219.15 358.072 L2219.15 353.801 Z" fill="#000000" fill-rule="nonzero" fill-opacity="1" /><path clip-path="url(#clip790)" d="M2241.65 369.739 L2241.65 364.947 Q2243.63 365.884 2245.66 366.379 Q2247.7 366.874 2249.65 366.874 Q2254.86 366.874 2257.59 363.384 Q2260.35 359.869 2260.74 352.733 Q2259.23 354.973 2256.91 356.171 Q2254.6 357.369 2251.78 357.369 Q2245.95 357.369 2242.54 353.853 Q2239.15 350.312 2239.15 344.192 Q2239.15 338.202 2242.7 334.582 Q2246.24 330.963 2252.12 330.963 Q2258.87 330.963 2262.41 336.145 Q2265.98 341.301 2265.98 351.145 Q2265.98 360.338 2261.6 365.832 Q2257.25 371.301 2249.88 371.301 Q2247.9 371.301 2245.87 370.91 Q2243.84 370.52 2241.65 369.739 M2252.12 353.254 Q2255.66 353.254 2257.72 350.832 Q2259.81 348.411 2259.81 344.192 Q2259.81 339.999 2257.72 337.577 Q2255.66 335.129 2252.12 335.129 Q2248.58 335.129 2246.5 337.577 Q2244.44 339.999 2244.44 344.192 Q2244.44 348.411 2246.5 350.832 Q2248.58 353.254 2252.12 353.254 Z" fill="#000000" fill-rule="nonzero" fill-opacity="1" /><path clip-path="url(#clip790)" d="M2286.68 335.129 Q2282.62 335.129 2280.56 339.14 Q2278.53 343.124 2278.53 351.145 Q2278.53 359.14 2280.56 363.15 Q2282.62 367.134 2286.68 367.134 Q2290.77 367.134 2292.8 363.15 Q2294.86 359.14 2294.86 351.145 Q2294.86 343.124 2292.8 339.14 Q2290.77 335.129 2286.68 335.129 M2286.68 330.963 Q2293.22 330.963 2296.65 336.145 Q2300.12 341.301 2300.12 351.145 Q2300.12 360.963 2296.65 366.145 Q2293.22 371.301 2286.68 371.301 Q2280.14 371.301 2276.68 366.145 Q2273.24 360.963 2273.24 351.145 Q2273.24 341.301 2276.68 336.145 Q2280.14 330.963 2286.68 330.963 Z" fill="#000000" fill-rule="nonzero" fill-opacity="1" /><path clip-path="url(#clip790)" d="M2313.43 333.098 L2313.43 341.379 L2323.29 341.379 L2323.29 345.103 L2313.43 345.103 L2313.43 360.937 Q2313.43 364.504 2314.39 365.52 Q2315.38 366.535 2318.37 366.535 L2323.29 366.535 L2323.29 370.546 L2318.37 370.546 Q2312.83 370.546 2310.72 368.489 Q2308.61 366.405 2308.61 360.937 L2308.61 345.103 L2305.09 345.103 L2305.09 341.379 L2308.61 341.379 L2308.61 333.098 L2313.43 333.098 Z" fill="#000000" fill-rule="nonzero" fill-opacity="1" /><path clip-path="url(#clip790)" d="M2353.84 352.942 L2353.84 370.546 L2349.05 370.546 L2349.05 353.098 Q2349.05 348.957 2347.44 346.9 Q2345.82 344.843 2342.59 344.843 Q2338.71 344.843 2336.47 347.317 Q2334.23 349.791 2334.23 354.062 L2334.23 370.546 L2329.41 370.546 L2329.41 330.025 L2334.23 330.025 L2334.23 345.911 Q2335.95 343.28 2338.27 341.978 Q2340.61 340.676 2343.66 340.676 Q2348.69 340.676 2351.26 343.801 Q2353.84 346.9 2353.84 352.942 Z" fill="#000000" fill-rule="nonzero" fill-opacity="1" /><path clip-path="url(#clip790)" d="M2384.99 366.171 L2384.99 381.64 L2380.17 381.64 L2380.17 341.379 L2384.99 341.379 L2384.99 345.806 Q2386.5 343.202 2388.79 341.952 Q2391.11 340.676 2394.31 340.676 Q2399.62 340.676 2402.93 344.895 Q2406.26 349.114 2406.26 355.989 Q2406.26 362.864 2402.93 367.082 Q2399.62 371.301 2394.31 371.301 Q2391.11 371.301 2388.79 370.051 Q2386.5 368.775 2384.99 366.171 M2401.29 355.989 Q2401.29 350.702 2399.1 347.707 Q2396.94 344.687 2393.14 344.687 Q2389.34 344.687 2387.15 347.707 Q2384.99 350.702 2384.99 355.989 Q2384.99 361.275 2387.15 364.296 Q2389.34 367.291 2393.14 367.291 Q2396.94 367.291 2399.1 364.296 Q2401.29 361.275 2401.29 355.989 Z" fill="#000000" fill-rule="nonzero" fill-opacity="1" /><path clip-path="url(#clip790)" d="M2435.2 342.499 L2435.2 346.978 Q2433.16 345.858 2431.11 345.312 Q2429.08 344.739 2426.99 344.739 Q2422.33 344.739 2419.75 347.707 Q2417.17 350.65 2417.17 355.989 Q2417.17 361.327 2419.75 364.296 Q2422.33 367.239 2426.99 367.239 Q2429.08 367.239 2431.11 366.692 Q2433.16 366.119 2435.2 364.999 L2435.2 369.426 Q2433.19 370.364 2431.03 370.832 Q2428.89 371.301 2426.47 371.301 Q2419.88 371.301 2416 367.16 Q2412.12 363.02 2412.12 355.989 Q2412.12 348.853 2416.03 344.765 Q2419.96 340.676 2426.78 340.676 Q2429 340.676 2431.11 341.145 Q2433.22 341.588 2435.2 342.499 Z" fill="#000000" fill-rule="nonzero" fill-opacity="1" /><path clip-path="url(#clip790)" d="M2448.27 333.098 L2448.27 341.379 L2458.14 341.379 L2458.14 345.103 L2448.27 345.103 L2448.27 360.937 Q2448.27 364.504 2449.23 365.52 Q2450.22 366.535 2453.22 366.535 L2458.14 366.535 L2458.14 370.546 L2453.22 370.546 Q2447.67 370.546 2445.56 368.489 Q2443.45 366.405 2443.45 360.937 L2443.45 345.103 L2439.93 345.103 L2439.93 341.379 L2443.45 341.379 L2443.45 333.098 L2448.27 333.098 Z" fill="#000000" fill-rule="nonzero" fill-opacity="1" /><path clip-path="url(#clip790)" d="M2464.44 330.025 L2469.23 330.025 L2469.23 370.546 L2464.44 370.546 L2464.44 330.025 Z" fill="#000000" fill-rule="nonzero" fill-opacity="1" /></svg>
