<?xml version="1.0" encoding="utf-8"?>
<svg xmlns="http://www.w3.org/2000/svg" xmlns:xlink="http://www.w3.org/1999/xlink" width="600" height="400" viewBox="0 0 2400 1600">
<defs>
  <clipPath id="clip950">
    <rect x="0" y="0" width="2400" height="1600"/>
  </clipPath>
</defs>
<path clip-path="url(#clip950)" d="M0 1600 L2400 1600 L2400 8.88178e-14 L0 8.88178e-14  Z" fill="#ffffff" fill-rule="evenodd" fill-opacity="1"/>
<defs>
  <clipPath id="clip951">
    <rect x="313" y="640" width="2012" height="49"/>
  </clipPath>
</defs>
<path clip-path="url(#clip950)" d="M545.232 1241.31 L2274.02 1241.31 L2274.02 125.984 L545.232 125.984  Z" fill="#ffffff" fill-rule="evenodd" fill-opacity="1"/>
<defs>
  <clipPath id="clip952">
    <rect x="545" y="125" width="1730" height="1116"/>
  </clipPath>
</defs>
<polyline clip-path="url(#clip952)" style="stroke:#000000; stroke-linecap:round; stroke-linejoin:round; stroke-width:2; stroke-opacity:0.1; fill:none" points="566.517,1241.31 566.517,125.984 "/>
<polyline clip-path="url(#clip952)" style="stroke:#000000; stroke-linecap:round; stroke-linejoin:round; stroke-width:2; stroke-opacity:0.1; fill:none" points="842.946,1241.31 842.946,125.984 "/>
<polyline clip-path="url(#clip952)" style="stroke:#000000; stroke-linecap:round; stroke-linejoin:round; stroke-width:2; stroke-opacity:0.1; fill:none" points="1119.37,1241.31 1119.37,125.984 "/>
<polyline clip-path="url(#clip952)" style="stroke:#000000; stroke-linecap:round; stroke-linejoin:round; stroke-width:2; stroke-opacity:0.1; fill:none" points="1395.8,1241.31 1395.8,125.984 "/>
<polyline clip-path="url(#clip952)" style="stroke:#000000; stroke-linecap:round; stroke-linejoin:round; stroke-width:2; stroke-opacity:0.1; fill:none" points="1672.23,1241.31 1672.23,125.984 "/>
<polyline clip-path="url(#clip952)" style="stroke:#000000; stroke-linecap:round; stroke-linejoin:round; stroke-width:2; stroke-opacity:0.1; fill:none" points="1948.66,1241.31 1948.66,125.984 "/>
<polyline clip-path="url(#clip952)" style="stroke:#000000; stroke-linecap:round; stroke-linejoin:round; stroke-width:2; stroke-opacity:0.1; fill:none" points="2225.09,1241.31 2225.09,125.984 "/>
<polyline clip-path="url(#clip952)" style="stroke:#000000; stroke-linecap:round; stroke-linejoin:round; stroke-width:2; stroke-opacity:0.1; fill:none" points="545.232,1208.17 2274.02,1208.17 "/>
<polyline clip-path="url(#clip952)" style="stroke:#000000; stroke-linecap:round; stroke-linejoin:round; stroke-width:2; stroke-opacity:0.1; fill:none" points="545.232,1039.35 2274.02,1039.35 "/>
<polyline clip-path="url(#clip952)" style="stroke:#000000; stroke-linecap:round; stroke-linejoin:round; stroke-width:2; stroke-opacity:0.1; fill:none" points="545.232,870.528 2274.02,870.528 "/>
<polyline clip-path="url(#clip952)" style="stroke:#000000; stroke-linecap:round; stroke-linejoin:round; stroke-width:2; stroke-opacity:0.1; fill:none" points="545.232,701.708 2274.02,701.708 "/>
<polyline clip-path="url(#clip952)" style="stroke:#000000; stroke-linecap:round; stroke-linejoin:round; stroke-width:2; stroke-opacity:0.1; fill:none" points="545.232,532.887 2274.02,532.887 "/>
<polyline clip-path="url(#clip952)" style="stroke:#000000; stroke-linecap:round; stroke-linejoin:round; stroke-width:2; stroke-opacity:0.1; fill:none" points="545.232,364.066 2274.02,364.066 "/>
<polyline clip-path="url(#clip952)" style="stroke:#000000; stroke-linecap:round; stroke-linejoin:round; stroke-width:2; stroke-opacity:0.1; fill:none" points="545.232,195.245 2274.02,195.245 "/>
<polyline clip-path="url(#clip950)" style="stroke:#000000; stroke-linecap:round; stroke-linejoin:round; stroke-width:4; stroke-opacity:1; fill:none" points="545.232,1241.31 2274.02,1241.31 "/>
<polyline clip-path="url(#clip950)" style="stroke:#000000; stroke-linecap:round; stroke-linejoin:round; stroke-width:4; stroke-opacity:1; fill:none" points="566.517,1241.31 566.517,1222.41 "/>
<polyline clip-path="url(#clip950)" style="stroke:#000000; stroke-linecap:round; stroke-linejoin:round; stroke-width:4; stroke-opacity:1; fill:none" points="842.946,1241.31 842.946,1222.41 "/>
<polyline clip-path="url(#clip950)" style="stroke:#000000; stroke-linecap:round; stroke-linejoin:round; stroke-width:4; stroke-opacity:1; fill:none" points="1119.37,1241.31 1119.37,1222.41 "/>
<polyline clip-path="url(#clip950)" style="stroke:#000000; stroke-linecap:round; stroke-linejoin:round; stroke-width:4; stroke-opacity:1; fill:none" points="1395.8,1241.31 1395.8,1222.41 "/>
<polyline clip-path="url(#clip950)" style="stroke:#000000; stroke-linecap:round; stroke-linejoin:round; stroke-width:4; stroke-opacity:1; fill:none" points="1672.23,1241.31 1672.23,1222.41 "/>
<polyline clip-path="url(#clip950)" style="stroke:#000000; stroke-linecap:round; stroke-linejoin:round; stroke-width:4; stroke-opacity:1; fill:none" points="1948.66,1241.31 1948.66,1222.41 "/>
<polyline clip-path="url(#clip950)" style="stroke:#000000; stroke-linecap:round; stroke-linejoin:round; stroke-width:4; stroke-opacity:1; fill:none" points="2225.09,1241.31 2225.09,1222.41 "/>
<path clip-path="url(#clip950)" d="M566.517 1275.16 Q562.004 1275.16 559.718 1279.62 Q557.461 1284.04 557.461 1292.95 Q557.461 1301.84 559.718 1306.29 Q562.004 1310.72 566.517 1310.72 Q571.06 1310.72 573.317 1306.29 Q575.603 1301.84 575.603 1292.95 Q575.603 1284.04 573.317 1279.62 Q571.06 1275.16 566.517 1275.16 M566.517 1270.53 Q573.78 1270.53 577.599 1276.29 Q581.448 1282.02 581.448 1292.95 Q581.448 1303.86 577.599 1309.62 Q573.78 1315.35 566.517 1315.35 Q559.255 1315.35 555.406 1309.62 Q551.587 1303.86 551.587 1292.95 Q551.587 1282.02 555.406 1276.29 Q559.255 1270.53 566.517 1270.53 Z" fill="#000000" fill-rule="nonzero" fill-opacity="1" /><path clip-path="url(#clip950)" d="M811.305 1309.59 L820.854 1309.59 L820.854 1276.64 L810.466 1278.72 L810.466 1273.39 L820.796 1271.31 L826.641 1271.31 L826.641 1309.59 L836.189 1309.59 L836.189 1314.51 L811.305 1314.51 L811.305 1309.59 Z" fill="#000000" fill-rule="nonzero" fill-opacity="1" /><path clip-path="url(#clip950)" d="M860.495 1275.16 Q855.981 1275.16 853.695 1279.62 Q851.438 1284.04 851.438 1292.95 Q851.438 1301.84 853.695 1306.29 Q855.981 1310.72 860.495 1310.72 Q865.038 1310.72 867.295 1306.29 Q869.58 1301.84 869.58 1292.95 Q869.58 1284.04 867.295 1279.62 Q865.038 1275.16 860.495 1275.16 M860.495 1270.53 Q867.758 1270.53 871.577 1276.29 Q875.425 1282.02 875.425 1292.95 Q875.425 1303.86 871.577 1309.62 Q867.758 1315.35 860.495 1315.35 Q853.232 1315.35 849.384 1309.62 Q845.564 1303.86 845.564 1292.95 Q845.564 1282.02 849.384 1276.29 Q853.232 1270.53 860.495 1270.53 Z" fill="#000000" fill-rule="nonzero" fill-opacity="1" /><path clip-path="url(#clip950)" d="M1092.84 1309.59 L1113.24 1309.59 L1113.24 1314.51 L1085.81 1314.51 L1085.81 1309.59 Q1089.14 1306.15 1094.87 1300.36 Q1100.62 1294.55 1102.1 1292.87 Q1104.91 1289.71 1106.01 1287.54 Q1107.13 1285.34 1107.13 1283.23 Q1107.13 1279.79 1104.7 1277.62 Q1102.3 1275.45 1098.43 1275.45 Q1095.68 1275.45 1092.61 1276.4 Q1089.57 1277.36 1086.1 1279.3 L1086.1 1273.39 Q1089.63 1271.98 1092.7 1271.25 Q1095.76 1270.53 1098.31 1270.53 Q1105.02 1270.53 1109.02 1273.89 Q1113.01 1277.24 1113.01 1282.86 Q1113.01 1285.52 1112 1287.92 Q1111.01 1290.29 1108.38 1293.53 Q1107.66 1294.37 1103.78 1298.39 Q1099.9 1302.39 1092.84 1309.59 Z" fill="#000000" fill-rule="nonzero" fill-opacity="1" /><path clip-path="url(#clip950)" d="M1138.01 1275.16 Q1133.49 1275.16 1131.21 1279.62 Q1128.95 1284.04 1128.95 1292.95 Q1128.95 1301.84 1131.21 1306.29 Q1133.49 1310.72 1138.01 1310.72 Q1142.55 1310.72 1144.81 1306.29 Q1147.09 1301.84 1147.09 1292.95 Q1147.09 1284.04 1144.81 1279.62 Q1142.55 1275.16 1138.01 1275.16 M1138.01 1270.53 Q1145.27 1270.53 1149.09 1276.29 Q1152.94 1282.02 1152.94 1292.95 Q1152.94 1303.86 1149.09 1309.62 Q1145.27 1315.35 1138.01 1315.35 Q1130.75 1315.35 1126.9 1309.62 Q1123.08 1303.86 1123.08 1292.95 Q1123.08 1282.02 1126.9 1276.29 Q1130.75 1270.53 1138.01 1270.53 Z" fill="#000000" fill-rule="nonzero" fill-opacity="1" /><path clip-path="url(#clip950)" d="M1381.86 1291.22 Q1386.05 1292.12 1388.4 1294.95 Q1390.77 1297.79 1390.77 1301.95 Q1390.77 1308.35 1386.37 1311.85 Q1381.97 1315.35 1373.87 1315.35 Q1371.15 1315.35 1368.26 1314.8 Q1365.39 1314.28 1362.32 1313.21 L1362.32 1307.57 Q1364.76 1308.98 1367.65 1309.71 Q1370.54 1310.43 1373.7 1310.43 Q1379.19 1310.43 1382.06 1308.26 Q1384.95 1306.09 1384.95 1301.95 Q1384.95 1298.13 1382.26 1295.99 Q1379.6 1293.82 1374.82 1293.82 L1369.79 1293.82 L1369.79 1289.02 L1375.06 1289.02 Q1379.37 1289.02 1381.65 1287.31 Q1383.94 1285.58 1383.94 1282.34 Q1383.94 1279.01 1381.57 1277.24 Q1379.22 1275.45 1374.82 1275.45 Q1372.42 1275.45 1369.67 1275.97 Q1366.93 1276.49 1363.63 1277.59 L1363.63 1272.38 Q1366.95 1271.46 1369.85 1270.99 Q1372.77 1270.53 1375.35 1270.53 Q1382 1270.53 1385.88 1273.57 Q1389.76 1276.58 1389.76 1281.73 Q1389.76 1285.32 1387.7 1287.8 Q1385.65 1290.26 1381.86 1291.22 Z" fill="#000000" fill-rule="nonzero" fill-opacity="1" /><path clip-path="url(#clip950)" d="M1414.35 1275.16 Q1409.84 1275.16 1407.55 1279.62 Q1405.29 1284.04 1405.29 1292.95 Q1405.29 1301.84 1407.55 1306.29 Q1409.84 1310.72 1414.35 1310.72 Q1418.89 1310.72 1421.15 1306.29 Q1423.44 1301.84 1423.44 1292.95 Q1423.44 1284.04 1421.15 1279.62 Q1418.89 1275.16 1414.35 1275.16 M1414.35 1270.53 Q1421.61 1270.53 1425.43 1276.29 Q1429.28 1282.02 1429.28 1292.95 Q1429.28 1303.86 1425.43 1309.62 Q1421.61 1315.35 1414.35 1315.35 Q1407.09 1315.35 1403.24 1309.62 Q1399.42 1303.86 1399.42 1292.95 Q1399.42 1282.02 1403.24 1276.29 Q1407.09 1270.53 1414.35 1270.53 Z" fill="#000000" fill-rule="nonzero" fill-opacity="1" /><path clip-path="url(#clip950)" d="M1657.45 1276.4 L1642.69 1299.47 L1657.45 1299.47 L1657.45 1276.4 M1655.91 1271.31 L1663.26 1271.31 L1663.26 1299.47 L1669.42 1299.47 L1669.42 1304.33 L1663.26 1304.33 L1663.26 1314.51 L1657.45 1314.51 L1657.45 1304.33 L1637.94 1304.33 L1637.94 1298.68 L1655.91 1271.31 Z" fill="#000000" fill-rule="nonzero" fill-opacity="1" /><path clip-path="url(#clip950)" d="M1691.59 1275.16 Q1687.07 1275.16 1684.79 1279.62 Q1682.53 1284.04 1682.53 1292.95 Q1682.53 1301.84 1684.79 1306.29 Q1687.07 1310.72 1691.59 1310.72 Q1696.13 1310.72 1698.39 1306.29 Q1700.67 1301.84 1700.67 1292.95 Q1700.67 1284.04 1698.39 1279.62 Q1696.13 1275.16 1691.59 1275.16 M1691.59 1270.53 Q1698.85 1270.53 1702.67 1276.29 Q1706.52 1282.02 1706.52 1292.95 Q1706.52 1303.86 1702.67 1309.62 Q1698.85 1315.35 1691.59 1315.35 Q1684.33 1315.35 1680.48 1309.62 Q1676.66 1303.86 1676.66 1292.95 Q1676.66 1282.02 1680.48 1276.29 Q1684.33 1270.53 1691.59 1270.53 Z" fill="#000000" fill-rule="nonzero" fill-opacity="1" /><path clip-path="url(#clip950)" d="M1917.03 1271.31 L1939.98 1271.31 L1939.98 1276.23 L1922.39 1276.23 L1922.39 1286.82 Q1923.66 1286.39 1924.93 1286.18 Q1926.21 1285.95 1927.48 1285.95 Q1934.71 1285.95 1938.94 1289.92 Q1943.16 1293.88 1943.16 1300.65 Q1943.16 1307.62 1938.82 1311.5 Q1934.48 1315.35 1926.58 1315.35 Q1923.86 1315.35 1921.03 1314.89 Q1918.22 1314.42 1915.21 1313.5 L1915.21 1307.62 Q1917.81 1309.04 1920.59 1309.74 Q1923.37 1310.43 1926.47 1310.43 Q1931.47 1310.43 1934.39 1307.8 Q1937.32 1305.17 1937.32 1300.65 Q1937.32 1296.14 1934.39 1293.5 Q1931.47 1290.87 1926.47 1290.87 Q1924.12 1290.87 1921.78 1291.39 Q1919.46 1291.91 1917.03 1293.01 L1917.03 1271.31 Z" fill="#000000" fill-rule="nonzero" fill-opacity="1" /><path clip-path="url(#clip950)" d="M1967.18 1275.16 Q1962.66 1275.16 1960.38 1279.62 Q1958.12 1284.04 1958.12 1292.95 Q1958.12 1301.84 1960.38 1306.29 Q1962.66 1310.72 1967.18 1310.72 Q1971.72 1310.72 1973.98 1306.29 Q1976.26 1301.84 1976.26 1292.95 Q1976.26 1284.04 1973.98 1279.62 Q1971.72 1275.16 1967.18 1275.16 M1967.18 1270.53 Q1974.44 1270.53 1978.26 1276.29 Q1982.11 1282.02 1982.11 1292.95 Q1982.11 1303.86 1978.26 1309.62 Q1974.44 1315.35 1967.18 1315.35 Q1959.92 1315.35 1956.07 1309.62 Q1952.25 1303.86 1952.25 1292.95 Q1952.25 1282.02 1956.07 1276.29 Q1959.92 1270.53 1967.18 1270.53 Z" fill="#000000" fill-rule="nonzero" fill-opacity="1" /><path clip-path="url(#clip950)" d="M2206.84 1290.58 Q2202.91 1290.58 2200.59 1293.27 Q2198.31 1295.96 2198.31 1300.65 Q2198.31 1305.31 2200.59 1308.03 Q2202.91 1310.72 2206.84 1310.72 Q2210.78 1310.72 2213.07 1308.03 Q2215.38 1305.31 2215.38 1300.65 Q2215.38 1295.96 2213.07 1293.27 Q2210.78 1290.58 2206.84 1290.58 M2218.45 1272.27 L2218.45 1277.59 Q2216.25 1276.55 2213.99 1276 Q2211.76 1275.45 2209.56 1275.45 Q2203.78 1275.45 2200.71 1279.36 Q2197.67 1283.26 2197.24 1291.16 Q2198.95 1288.64 2201.52 1287.31 Q2204.1 1285.95 2207.19 1285.95 Q2213.7 1285.95 2217.46 1289.92 Q2221.25 1293.85 2221.25 1300.65 Q2221.25 1307.31 2217.32 1311.33 Q2213.38 1315.35 2206.84 1315.35 Q2199.35 1315.35 2195.39 1309.62 Q2191.42 1303.86 2191.42 1292.95 Q2191.42 1282.71 2196.28 1276.64 Q2201.14 1270.53 2209.33 1270.53 Q2211.53 1270.53 2213.76 1270.96 Q2216.02 1271.4 2218.45 1272.27 Z" fill="#000000" fill-rule="nonzero" fill-opacity="1" /><path clip-path="url(#clip950)" d="M2243.82 1275.16 Q2239.31 1275.16 2237.02 1279.62 Q2234.77 1284.04 2234.77 1292.95 Q2234.77 1301.84 2237.02 1306.29 Q2239.31 1310.72 2243.82 1310.72 Q2248.37 1310.72 2250.62 1306.29 Q2252.91 1301.84 2252.91 1292.95 Q2252.91 1284.04 2250.62 1279.62 Q2248.37 1275.16 2243.82 1275.16 M2243.82 1270.53 Q2251.09 1270.53 2254.91 1276.29 Q2258.75 1282.02 2258.75 1292.95 Q2258.75 1303.86 2254.91 1309.62 Q2251.09 1315.35 2243.82 1315.35 Q2236.56 1315.35 2232.71 1309.62 Q2228.89 1303.86 2228.89 1292.95 Q2228.89 1282.02 2232.71 1276.29 Q2236.56 1270.53 2243.82 1270.53 Z" fill="#000000" fill-rule="nonzero" fill-opacity="1" /><path clip-path="url(#clip950)" d="M1277.34 1351.62 L1283.77 1351.62 L1283.77 1399.14 L1277.34 1399.14 L1277.34 1351.62 Z" fill="#000000" fill-rule="nonzero" fill-opacity="1" /><path clip-path="url(#clip950)" d="M1302.11 1353.37 L1302.11 1363.49 L1314.17 1363.49 L1314.17 1368.04 L1302.11 1368.04 L1302.11 1387.39 Q1302.11 1391.75 1303.28 1392.99 Q1304.49 1394.23 1308.15 1394.23 L1314.17 1394.23 L1314.17 1399.14 L1308.15 1399.14 Q1301.38 1399.14 1298.8 1396.62 Q1296.22 1394.07 1296.22 1387.39 L1296.22 1368.04 L1291.92 1368.04 L1291.92 1363.49 L1296.22 1363.49 L1296.22 1353.37 L1302.11 1353.37 Z" fill="#000000" fill-rule="nonzero" fill-opacity="1" /><path clip-path="url(#clip950)" d="M1352.36 1379.85 L1352.36 1382.71 L1325.44 1382.71 Q1325.82 1388.76 1329.07 1391.94 Q1332.34 1395.09 1338.17 1395.09 Q1341.54 1395.09 1344.69 1394.27 Q1347.88 1393.44 1351 1391.78 L1351 1397.32 Q1347.84 1398.66 1344.53 1399.36 Q1341.22 1400.06 1337.82 1400.06 Q1329.29 1400.06 1324.29 1395.09 Q1319.33 1390.13 1319.33 1381.66 Q1319.33 1372.91 1324.04 1367.78 Q1328.78 1362.63 1336.8 1362.63 Q1343.99 1362.63 1348.16 1367.28 Q1352.36 1371.89 1352.36 1379.85 M1346.51 1378.13 Q1346.44 1373.32 1343.8 1370.46 Q1341.19 1367.59 1336.86 1367.59 Q1331.96 1367.59 1329 1370.36 Q1326.07 1373.13 1325.63 1378.16 L1346.51 1378.13 Z" fill="#000000" fill-rule="nonzero" fill-opacity="1" /><path clip-path="url(#clip950)" d="M1382.63 1368.96 Q1381.65 1368.39 1380.47 1368.13 Q1379.32 1367.85 1377.92 1367.85 Q1372.96 1367.85 1370.28 1371.09 Q1367.64 1374.31 1367.64 1380.36 L1367.64 1399.14 L1361.75 1399.14 L1361.75 1363.49 L1367.64 1363.49 L1367.64 1369.03 Q1369.49 1365.78 1372.45 1364.22 Q1375.41 1362.63 1379.64 1362.63 Q1380.25 1362.63 1380.98 1362.72 Q1381.71 1362.79 1382.6 1362.95 L1382.63 1368.96 Z" fill="#000000" fill-rule="nonzero" fill-opacity="1" /><path clip-path="url(#clip950)" d="M1404.98 1381.22 Q1397.88 1381.22 1395.14 1382.84 Q1392.4 1384.46 1392.4 1388.38 Q1392.4 1391.5 1394.44 1393.34 Q1396.51 1395.16 1400.04 1395.16 Q1404.91 1395.16 1407.84 1391.72 Q1410.8 1388.25 1410.8 1382.52 L1410.8 1381.22 L1404.98 1381.22 M1416.66 1378.8 L1416.66 1399.14 L1410.8 1399.14 L1410.8 1393.72 Q1408.8 1396.97 1405.8 1398.53 Q1402.81 1400.06 1398.48 1400.06 Q1393.01 1400.06 1389.76 1397 Q1386.55 1393.92 1386.55 1388.76 Q1386.55 1382.74 1390.56 1379.69 Q1394.6 1376.63 1402.59 1376.63 L1410.8 1376.63 L1410.8 1376.06 Q1410.8 1372.02 1408.13 1369.82 Q1405.49 1367.59 1400.68 1367.59 Q1397.62 1367.59 1394.73 1368.33 Q1391.83 1369.06 1389.16 1370.52 L1389.16 1365.11 Q1392.37 1363.87 1395.4 1363.26 Q1398.42 1362.63 1401.28 1362.63 Q1409.02 1362.63 1412.84 1366.64 Q1416.66 1370.65 1416.66 1378.8 Z" fill="#000000" fill-rule="nonzero" fill-opacity="1" /><path clip-path="url(#clip950)" d="M1434.51 1353.37 L1434.51 1363.49 L1446.58 1363.49 L1446.58 1368.04 L1434.51 1368.04 L1434.51 1387.39 Q1434.51 1391.75 1435.69 1392.99 Q1436.9 1394.23 1440.56 1394.23 L1446.58 1394.23 L1446.58 1399.14 L1440.56 1399.14 Q1433.78 1399.14 1431.2 1396.62 Q1428.63 1394.07 1428.63 1387.39 L1428.63 1368.04 L1424.33 1368.04 L1424.33 1363.49 L1428.63 1363.49 L1428.63 1353.37 L1434.51 1353.37 Z" fill="#000000" fill-rule="nonzero" fill-opacity="1" /><path clip-path="url(#clip950)" d="M1454.28 1363.49 L1460.14 1363.49 L1460.14 1399.14 L1454.28 1399.14 L1454.28 1363.49 M1454.28 1349.61 L1460.14 1349.61 L1460.14 1357.03 L1454.28 1357.03 L1454.28 1349.61 Z" fill="#000000" fill-rule="nonzero" fill-opacity="1" /><path clip-path="url(#clip950)" d="M1486.2 1367.59 Q1481.49 1367.59 1478.76 1371.29 Q1476.02 1374.95 1476.02 1381.34 Q1476.02 1387.74 1478.72 1391.43 Q1481.46 1395.09 1486.2 1395.09 Q1490.88 1395.09 1493.62 1391.4 Q1496.36 1387.71 1496.36 1381.34 Q1496.36 1375.01 1493.62 1371.32 Q1490.88 1367.59 1486.2 1367.59 M1486.2 1362.63 Q1493.84 1362.63 1498.2 1367.59 Q1502.56 1372.56 1502.56 1381.34 Q1502.56 1390.1 1498.2 1395.09 Q1493.84 1400.06 1486.2 1400.06 Q1478.53 1400.06 1474.17 1395.09 Q1469.84 1390.1 1469.84 1381.34 Q1469.84 1372.56 1474.17 1367.59 Q1478.53 1362.63 1486.2 1362.63 Z" fill="#000000" fill-rule="nonzero" fill-opacity="1" /><path clip-path="url(#clip950)" d="M1541.9 1377.62 L1541.9 1399.14 L1536.05 1399.14 L1536.05 1377.81 Q1536.05 1372.75 1534.07 1370.24 Q1532.1 1367.72 1528.15 1367.72 Q1523.41 1367.72 1520.67 1370.74 Q1517.94 1373.77 1517.94 1378.99 L1517.94 1399.14 L1512.05 1399.14 L1512.05 1363.49 L1517.94 1363.49 L1517.94 1369.03 Q1520.04 1365.81 1522.87 1364.22 Q1525.73 1362.63 1529.46 1362.63 Q1535.6 1362.63 1538.75 1366.45 Q1541.9 1370.24 1541.9 1377.62 Z" fill="#000000" fill-rule="nonzero" fill-opacity="1" /><polyline clip-path="url(#clip950)" style="stroke:#000000; stroke-linecap:round; stroke-linejoin:round; stroke-width:4; stroke-opacity:1; fill:none" points="545.232,1241.31 545.232,125.984 "/>
<polyline clip-path="url(#clip950)" style="stroke:#000000; stroke-linecap:round; stroke-linejoin:round; stroke-width:4; stroke-opacity:1; fill:none" points="545.232,1208.17 564.13,1208.17 "/>
<polyline clip-path="url(#clip950)" style="stroke:#000000; stroke-linecap:round; stroke-linejoin:round; stroke-width:4; stroke-opacity:1; fill:none" points="545.232,1039.35 564.13,1039.35 "/>
<polyline clip-path="url(#clip950)" style="stroke:#000000; stroke-linecap:round; stroke-linejoin:round; stroke-width:4; stroke-opacity:1; fill:none" points="545.232,870.528 564.13,870.528 "/>
<polyline clip-path="url(#clip950)" style="stroke:#000000; stroke-linecap:round; stroke-linejoin:round; stroke-width:4; stroke-opacity:1; fill:none" points="545.232,701.708 564.13,701.708 "/>
<polyline clip-path="url(#clip950)" style="stroke:#000000; stroke-linecap:round; stroke-linejoin:round; stroke-width:4; stroke-opacity:1; fill:none" points="545.232,532.887 564.13,532.887 "/>
<polyline clip-path="url(#clip950)" style="stroke:#000000; stroke-linecap:round; stroke-linejoin:round; stroke-width:4; stroke-opacity:1; fill:none" points="545.232,364.066 564.13,364.066 "/>
<polyline clip-path="url(#clip950)" style="stroke:#000000; stroke-linecap:round; stroke-linejoin:round; stroke-width:4; stroke-opacity:1; fill:none" points="545.232,195.245 564.13,195.245 "/>
<path clip-path="url(#clip950)" d="M318.985 1208.73 L356.079 1208.73 L356.079 1213.65 L318.985 1213.65 L318.985 1208.73 Z" fill="#000000" fill-rule="nonzero" fill-opacity="1" /><path clip-path="url(#clip950)" d="M368.753 1186.57 L391.698 1186.57 L391.698 1191.49 L374.106 1191.49 L374.106 1202.08 Q375.379 1201.65 376.652 1201.44 Q377.925 1201.21 379.198 1201.21 Q386.432 1201.21 390.657 1205.18 Q394.881 1209.14 394.881 1215.91 Q394.881 1222.88 390.541 1226.76 Q386.201 1230.61 378.301 1230.61 Q375.581 1230.61 372.746 1230.15 Q369.939 1229.68 366.93 1228.76 L366.93 1222.88 Q369.534 1224.3 372.312 1225 Q375.09 1225.69 378.186 1225.69 Q383.191 1225.69 386.114 1223.06 Q389.036 1220.42 389.036 1215.91 Q389.036 1211.4 386.114 1208.76 Q383.191 1206.13 378.186 1206.13 Q375.842 1206.13 373.498 1206.65 Q371.183 1207.17 368.753 1208.27 L368.753 1186.57 Z" fill="#000000" fill-rule="nonzero" fill-opacity="1" /><path clip-path="url(#clip950)" d="M406.455 1186.57 L429.401 1186.57 L429.401 1191.49 L411.808 1191.49 L411.808 1202.08 Q413.081 1201.65 414.354 1201.44 Q415.628 1201.21 416.901 1201.21 Q424.134 1201.21 428.359 1205.18 Q432.583 1209.14 432.583 1215.91 Q432.583 1222.88 428.243 1226.76 Q423.903 1230.61 416.004 1230.61 Q413.284 1230.61 410.448 1230.15 Q407.641 1229.68 404.632 1228.76 L404.632 1222.88 Q407.236 1224.3 410.014 1225 Q412.792 1225.69 415.888 1225.69 Q420.894 1225.69 423.816 1223.06 Q426.739 1220.42 426.739 1215.91 Q426.739 1211.4 423.816 1208.76 Q420.894 1206.13 415.888 1206.13 Q413.544 1206.13 411.201 1206.65 Q408.886 1207.17 406.455 1208.27 L406.455 1186.57 Z" fill="#000000" fill-rule="nonzero" fill-opacity="1" /><path clip-path="url(#clip950)" d="M456.6 1190.42 Q452.086 1190.42 449.8 1194.87 Q447.543 1199.3 447.543 1208.21 Q447.543 1217.1 449.8 1221.55 Q452.086 1225.98 456.6 1225.98 Q461.142 1225.98 463.399 1221.55 Q465.685 1217.1 465.685 1208.21 Q465.685 1199.3 463.399 1194.87 Q461.142 1190.42 456.6 1190.42 M456.6 1185.79 Q463.862 1185.79 467.682 1191.55 Q471.53 1197.28 471.53 1208.21 Q471.53 1219.12 467.682 1224.88 Q463.862 1230.61 456.6 1230.61 Q449.337 1230.61 445.489 1224.88 Q441.669 1219.12 441.669 1208.21 Q441.669 1197.28 445.489 1191.55 Q449.337 1185.79 456.6 1185.79 Z" fill="#000000" fill-rule="nonzero" fill-opacity="1" /><path clip-path="url(#clip950)" d="M494.302 1190.42 Q489.788 1190.42 487.502 1194.87 Q485.245 1199.3 485.245 1208.21 Q485.245 1217.1 487.502 1221.55 Q489.788 1225.98 494.302 1225.98 Q498.845 1225.98 501.102 1221.55 Q503.388 1217.1 503.388 1208.21 Q503.388 1199.3 501.102 1194.87 Q498.845 1190.42 494.302 1190.42 M494.302 1185.79 Q501.565 1185.79 505.384 1191.55 Q509.232 1197.28 509.232 1208.21 Q509.232 1219.12 505.384 1224.88 Q501.565 1230.61 494.302 1230.61 Q487.039 1230.61 483.191 1224.88 Q479.371 1219.12 479.371 1208.21 Q479.371 1197.28 483.191 1191.55 Q487.039 1185.79 494.302 1185.79 Z" fill="#000000" fill-rule="nonzero" fill-opacity="1" /><path clip-path="url(#clip950)" d="M318.985 1039.91 L356.079 1039.91 L356.079 1044.83 L318.985 1044.83 L318.985 1039.91 Z" fill="#000000" fill-rule="nonzero" fill-opacity="1" /><path clip-path="url(#clip950)" d="M368.753 1017.75 L391.698 1017.75 L391.698 1022.67 L374.106 1022.67 L374.106 1033.26 Q375.379 1032.82 376.652 1032.62 Q377.925 1032.39 379.198 1032.39 Q386.432 1032.39 390.657 1036.35 Q394.881 1040.32 394.881 1047.09 Q394.881 1054.06 390.541 1057.94 Q386.201 1061.79 378.301 1061.79 Q375.581 1061.79 372.746 1061.33 Q369.939 1060.86 366.93 1059.94 L366.93 1054.06 Q369.534 1055.48 372.312 1056.18 Q375.09 1056.87 378.186 1056.87 Q383.191 1056.87 386.114 1054.24 Q389.036 1051.6 389.036 1047.09 Q389.036 1042.58 386.114 1039.94 Q383.191 1037.31 378.186 1037.31 Q375.842 1037.31 373.498 1037.83 Q371.183 1038.35 368.753 1039.45 L368.753 1017.75 Z" fill="#000000" fill-rule="nonzero" fill-opacity="1" /><path clip-path="url(#clip950)" d="M422.456 1022.84 L407.699 1045.9 L422.456 1045.9 L422.456 1022.84 M420.923 1017.75 L428.272 1017.75 L428.272 1045.9 L434.435 1045.9 L434.435 1050.76 L428.272 1050.76 L428.272 1060.95 L422.456 1060.95 L422.456 1050.76 L402.954 1050.76 L402.954 1045.12 L420.923 1017.75 Z" fill="#000000" fill-rule="nonzero" fill-opacity="1" /><path clip-path="url(#clip950)" d="M456.6 1021.6 Q452.086 1021.6 449.8 1026.05 Q447.543 1030.48 447.543 1039.39 Q447.543 1048.28 449.8 1052.73 Q452.086 1057.16 456.6 1057.16 Q461.142 1057.16 463.399 1052.73 Q465.685 1048.28 465.685 1039.39 Q465.685 1030.48 463.399 1026.05 Q461.142 1021.6 456.6 1021.6 M456.6 1016.97 Q463.862 1016.97 467.682 1022.73 Q471.53 1028.46 471.53 1039.39 Q471.53 1050.3 467.682 1056.06 Q463.862 1061.79 456.6 1061.79 Q449.337 1061.79 445.489 1056.06 Q441.669 1050.3 441.669 1039.39 Q441.669 1028.46 445.489 1022.73 Q449.337 1016.97 456.6 1016.97 Z" fill="#000000" fill-rule="nonzero" fill-opacity="1" /><path clip-path="url(#clip950)" d="M494.302 1021.6 Q489.788 1021.6 487.502 1026.05 Q485.245 1030.48 485.245 1039.39 Q485.245 1048.28 487.502 1052.73 Q489.788 1057.16 494.302 1057.16 Q498.845 1057.16 501.102 1052.73 Q503.388 1048.28 503.388 1039.39 Q503.388 1030.48 501.102 1026.05 Q498.845 1021.6 494.302 1021.6 M494.302 1016.97 Q501.565 1016.97 505.384 1022.73 Q509.232 1028.46 509.232 1039.39 Q509.232 1050.3 505.384 1056.06 Q501.565 1061.79 494.302 1061.79 Q487.039 1061.79 483.191 1056.06 Q479.371 1050.3 479.371 1039.39 Q479.371 1028.46 483.191 1022.73 Q487.039 1016.97 494.302 1016.97 Z" fill="#000000" fill-rule="nonzero" fill-opacity="1" /><path clip-path="url(#clip950)" d="M318.985 871.093 L356.079 871.093 L356.079 876.012 L318.985 876.012 L318.985 871.093 Z" fill="#000000" fill-rule="nonzero" fill-opacity="1" /><path clip-path="url(#clip950)" d="M368.753 848.928 L391.698 848.928 L391.698 853.847 L374.106 853.847 L374.106 864.438 Q375.379 864.004 376.652 863.801 Q377.925 863.57 379.198 863.57 Q386.432 863.57 390.657 867.534 Q394.881 871.498 394.881 878.269 Q394.881 885.242 390.541 889.119 Q386.201 892.968 378.301 892.968 Q375.581 892.968 372.746 892.505 Q369.939 892.042 366.93 891.116 L366.93 885.242 Q369.534 886.66 372.312 887.354 Q375.09 888.049 378.186 888.049 Q383.191 888.049 386.114 885.416 Q389.036 882.782 389.036 878.269 Q389.036 873.755 386.114 871.122 Q383.191 868.489 378.186 868.489 Q375.842 868.489 373.498 869.009 Q371.183 869.53 368.753 870.63 L368.753 848.928 Z" fill="#000000" fill-rule="nonzero" fill-opacity="1" /><path clip-path="url(#clip950)" d="M424.106 868.836 Q428.301 869.733 430.645 872.568 Q433.018 875.404 433.018 879.571 Q433.018 885.965 428.619 889.466 Q424.221 892.968 416.119 892.968 Q413.4 892.968 410.506 892.418 Q407.641 891.897 404.574 890.826 L404.574 885.184 Q407.005 886.602 409.898 887.325 Q412.792 888.049 415.946 888.049 Q421.444 888.049 424.308 885.878 Q427.202 883.708 427.202 879.571 Q427.202 875.751 424.511 873.61 Q421.849 871.44 417.074 871.44 L412.04 871.44 L412.04 866.637 L417.306 866.637 Q421.617 866.637 423.903 864.93 Q426.189 863.193 426.189 859.953 Q426.189 856.625 423.816 854.86 Q421.472 853.066 417.074 853.066 Q414.673 853.066 411.924 853.587 Q409.175 854.108 405.876 855.207 L405.876 849.999 Q409.204 849.073 412.097 848.61 Q415.02 848.147 417.595 848.147 Q424.25 848.147 428.128 851.185 Q432.005 854.195 432.005 859.345 Q432.005 862.933 429.95 865.421 Q427.896 867.881 424.106 868.836 Z" fill="#000000" fill-rule="nonzero" fill-opacity="1" /><path clip-path="url(#clip950)" d="M456.6 852.777 Q452.086 852.777 449.8 857.233 Q447.543 861.66 447.543 870.572 Q447.543 879.455 449.8 883.911 Q452.086 888.338 456.6 888.338 Q461.142 888.338 463.399 883.911 Q465.685 879.455 465.685 870.572 Q465.685 861.66 463.399 857.233 Q461.142 852.777 456.6 852.777 M456.6 848.147 Q463.862 848.147 467.682 853.905 Q471.53 859.634 471.53 870.572 Q471.53 881.48 467.682 887.238 Q463.862 892.968 456.6 892.968 Q449.337 892.968 445.489 887.238 Q441.669 881.48 441.669 870.572 Q441.669 859.634 445.489 853.905 Q449.337 848.147 456.6 848.147 Z" fill="#000000" fill-rule="nonzero" fill-opacity="1" /><path clip-path="url(#clip950)" d="M494.302 852.777 Q489.788 852.777 487.502 857.233 Q485.245 861.66 485.245 870.572 Q485.245 879.455 487.502 883.911 Q489.788 888.338 494.302 888.338 Q498.845 888.338 501.102 883.911 Q503.388 879.455 503.388 870.572 Q503.388 861.66 501.102 857.233 Q498.845 852.777 494.302 852.777 M494.302 848.147 Q501.565 848.147 505.384 853.905 Q509.232 859.634 509.232 870.572 Q509.232 881.48 505.384 887.238 Q501.565 892.968 494.302 892.968 Q487.039 892.968 483.191 887.238 Q479.371 881.48 479.371 870.572 Q479.371 859.634 483.191 853.905 Q487.039 848.147 494.302 848.147 Z" fill="#000000" fill-rule="nonzero" fill-opacity="1" /><path clip-path="url(#clip950)" d="M318.985 702.272 L356.079 702.272 L356.079 707.191 L318.985 707.191 L318.985 702.272 Z" fill="#000000" fill-rule="nonzero" fill-opacity="1" /><path clip-path="url(#clip950)" d="M368.753 680.108 L391.698 680.108 L391.698 685.027 L374.106 685.027 L374.106 695.617 Q375.379 695.183 376.652 694.98 Q377.925 694.749 379.198 694.749 Q386.432 694.749 390.657 698.713 Q394.881 702.677 394.881 709.448 Q394.881 716.421 390.541 720.298 Q386.201 724.147 378.301 724.147 Q375.581 724.147 372.746 723.684 Q369.939 723.221 366.93 722.295 L366.93 716.421 Q369.534 717.839 372.312 718.533 Q375.09 719.228 378.186 719.228 Q383.191 719.228 386.114 716.595 Q389.036 713.962 389.036 709.448 Q389.036 704.934 386.114 702.301 Q383.191 699.668 378.186 699.668 Q375.842 699.668 373.498 700.188 Q371.183 700.709 368.753 701.809 L368.753 680.108 Z" fill="#000000" fill-rule="nonzero" fill-opacity="1" /><path clip-path="url(#clip950)" d="M411.432 718.389 L431.831 718.389 L431.831 723.308 L404.401 723.308 L404.401 718.389 Q407.728 714.945 413.457 709.158 Q419.216 703.342 420.691 701.664 Q423.498 698.51 424.597 696.34 Q425.726 694.141 425.726 692.029 Q425.726 688.586 423.295 686.415 Q420.894 684.245 417.016 684.245 Q414.268 684.245 411.201 685.2 Q408.162 686.155 404.69 688.094 L404.69 682.191 Q408.22 680.773 411.287 680.05 Q414.354 679.326 416.901 679.326 Q423.614 679.326 427.607 682.683 Q431.6 686.039 431.6 691.653 Q431.6 694.315 430.587 696.716 Q429.603 699.089 426.97 702.33 Q426.247 703.169 422.369 707.191 Q418.492 711.184 411.432 718.389 Z" fill="#000000" fill-rule="nonzero" fill-opacity="1" /><path clip-path="url(#clip950)" d="M456.6 683.956 Q452.086 683.956 449.8 688.412 Q447.543 692.839 447.543 701.751 Q447.543 710.634 449.8 715.09 Q452.086 719.517 456.6 719.517 Q461.142 719.517 463.399 715.09 Q465.685 710.634 465.685 701.751 Q465.685 692.839 463.399 688.412 Q461.142 683.956 456.6 683.956 M456.6 679.326 Q463.862 679.326 467.682 685.084 Q471.53 690.814 471.53 701.751 Q471.53 712.659 467.682 718.418 Q463.862 724.147 456.6 724.147 Q449.337 724.147 445.489 718.418 Q441.669 712.659 441.669 701.751 Q441.669 690.814 445.489 685.084 Q449.337 679.326 456.6 679.326 Z" fill="#000000" fill-rule="nonzero" fill-opacity="1" /><path clip-path="url(#clip950)" d="M494.302 683.956 Q489.788 683.956 487.502 688.412 Q485.245 692.839 485.245 701.751 Q485.245 710.634 487.502 715.09 Q489.788 719.517 494.302 719.517 Q498.845 719.517 501.102 715.09 Q503.388 710.634 503.388 701.751 Q503.388 692.839 501.102 688.412 Q498.845 683.956 494.302 683.956 M494.302 679.326 Q501.565 679.326 505.384 685.084 Q509.232 690.814 509.232 701.751 Q509.232 712.659 505.384 718.418 Q501.565 724.147 494.302 724.147 Q487.039 724.147 483.191 718.418 Q479.371 712.659 479.371 701.751 Q479.371 690.814 483.191 685.084 Q487.039 679.326 494.302 679.326 Z" fill="#000000" fill-rule="nonzero" fill-opacity="1" /><path clip-path="url(#clip950)" d="M318.985 533.451 L356.079 533.451 L356.079 538.37 L318.985 538.37 L318.985 533.451 Z" fill="#000000" fill-rule="nonzero" fill-opacity="1" /><path clip-path="url(#clip950)" d="M368.753 511.287 L391.698 511.287 L391.698 516.206 L374.106 516.206 L374.106 526.796 Q375.379 526.362 376.652 526.159 Q377.925 525.928 379.198 525.928 Q386.432 525.928 390.657 529.892 Q394.881 533.856 394.881 540.627 Q394.881 547.6 390.541 551.477 Q386.201 555.326 378.301 555.326 Q375.581 555.326 372.746 554.863 Q369.939 554.4 366.93 553.474 L366.93 547.6 Q369.534 549.018 372.312 549.712 Q375.09 550.407 378.186 550.407 Q383.191 550.407 386.114 547.774 Q389.036 545.141 389.036 540.627 Q389.036 536.113 386.114 533.48 Q383.191 530.847 378.186 530.847 Q375.842 530.847 373.498 531.368 Q371.183 531.888 368.753 532.988 L368.753 511.287 Z" fill="#000000" fill-rule="nonzero" fill-opacity="1" /><path clip-path="url(#clip950)" d="M407.41 549.568 L416.959 549.568 L416.959 516.611 L406.571 518.694 L406.571 513.37 L416.901 511.287 L422.746 511.287 L422.746 549.568 L432.294 549.568 L432.294 554.487 L407.41 554.487 L407.41 549.568 Z" fill="#000000" fill-rule="nonzero" fill-opacity="1" /><path clip-path="url(#clip950)" d="M456.6 515.135 Q452.086 515.135 449.8 519.591 Q447.543 524.018 447.543 532.93 Q447.543 541.813 449.8 546.269 Q452.086 550.696 456.6 550.696 Q461.142 550.696 463.399 546.269 Q465.685 541.813 465.685 532.93 Q465.685 524.018 463.399 519.591 Q461.142 515.135 456.6 515.135 M456.6 510.505 Q463.862 510.505 467.682 516.264 Q471.53 521.993 471.53 532.93 Q471.53 543.839 467.682 549.597 Q463.862 555.326 456.6 555.326 Q449.337 555.326 445.489 549.597 Q441.669 543.839 441.669 532.93 Q441.669 521.993 445.489 516.264 Q449.337 510.505 456.6 510.505 Z" fill="#000000" fill-rule="nonzero" fill-opacity="1" /><path clip-path="url(#clip950)" d="M494.302 515.135 Q489.788 515.135 487.502 519.591 Q485.245 524.018 485.245 532.93 Q485.245 541.813 487.502 546.269 Q489.788 550.696 494.302 550.696 Q498.845 550.696 501.102 546.269 Q503.388 541.813 503.388 532.93 Q503.388 524.018 501.102 519.591 Q498.845 515.135 494.302 515.135 M494.302 510.505 Q501.565 510.505 505.384 516.264 Q509.232 521.993 509.232 532.93 Q509.232 543.839 505.384 549.597 Q501.565 555.326 494.302 555.326 Q487.039 555.326 483.191 549.597 Q479.371 543.839 479.371 532.93 Q479.371 521.993 483.191 516.264 Q487.039 510.505 494.302 510.505 Z" fill="#000000" fill-rule="nonzero" fill-opacity="1" /><path clip-path="url(#clip950)" d="M318.985 364.63 L356.079 364.63 L356.079 369.549 L318.985 369.549 L318.985 364.63 Z" fill="#000000" fill-rule="nonzero" fill-opacity="1" /><path clip-path="url(#clip950)" d="M368.753 342.466 L391.698 342.466 L391.698 347.385 L374.106 347.385 L374.106 357.975 Q375.379 357.541 376.652 357.338 Q377.925 357.107 379.198 357.107 Q386.432 357.107 390.657 361.071 Q394.881 365.035 394.881 371.806 Q394.881 378.779 390.541 382.657 Q386.201 386.505 378.301 386.505 Q375.581 386.505 372.746 386.042 Q369.939 385.579 366.93 384.653 L366.93 378.779 Q369.534 380.197 372.312 380.892 Q375.09 381.586 378.186 381.586 Q383.191 381.586 386.114 378.953 Q389.036 376.32 389.036 371.806 Q389.036 367.292 386.114 364.659 Q383.191 362.026 378.186 362.026 Q375.842 362.026 373.498 362.547 Q371.183 363.068 368.753 364.167 L368.753 342.466 Z" fill="#000000" fill-rule="nonzero" fill-opacity="1" /><path clip-path="url(#clip950)" d="M418.897 346.314 Q414.383 346.314 412.097 350.77 Q409.841 355.197 409.841 364.109 Q409.841 372.992 412.097 377.448 Q414.383 381.875 418.897 381.875 Q423.44 381.875 425.697 377.448 Q427.983 372.992 427.983 364.109 Q427.983 355.197 425.697 350.77 Q423.44 346.314 418.897 346.314 M418.897 341.685 Q426.16 341.685 429.979 347.443 Q433.828 353.172 433.828 364.109 Q433.828 375.018 429.979 380.776 Q426.16 386.505 418.897 386.505 Q411.635 386.505 407.786 380.776 Q403.967 375.018 403.967 364.109 Q403.967 353.172 407.786 347.443 Q411.635 341.685 418.897 341.685 Z" fill="#000000" fill-rule="nonzero" fill-opacity="1" /><path clip-path="url(#clip950)" d="M456.6 346.314 Q452.086 346.314 449.8 350.77 Q447.543 355.197 447.543 364.109 Q447.543 372.992 449.8 377.448 Q452.086 381.875 456.6 381.875 Q461.142 381.875 463.399 377.448 Q465.685 372.992 465.685 364.109 Q465.685 355.197 463.399 350.77 Q461.142 346.314 456.6 346.314 M456.6 341.685 Q463.862 341.685 467.682 347.443 Q471.53 353.172 471.53 364.109 Q471.53 375.018 467.682 380.776 Q463.862 386.505 456.6 386.505 Q449.337 386.505 445.489 380.776 Q441.669 375.018 441.669 364.109 Q441.669 353.172 445.489 347.443 Q449.337 341.685 456.6 341.685 Z" fill="#000000" fill-rule="nonzero" fill-opacity="1" /><path clip-path="url(#clip950)" d="M494.302 346.314 Q489.788 346.314 487.502 350.77 Q485.245 355.197 485.245 364.109 Q485.245 372.992 487.502 377.448 Q489.788 381.875 494.302 381.875 Q498.845 381.875 501.102 377.448 Q503.388 372.992 503.388 364.109 Q503.388 355.197 501.102 350.77 Q498.845 346.314 494.302 346.314 M494.302 341.685 Q501.565 341.685 505.384 347.443 Q509.232 353.172 509.232 364.109 Q509.232 375.018 505.384 380.776 Q501.565 386.505 494.302 386.505 Q487.039 386.505 483.191 380.776 Q479.371 375.018 479.371 364.109 Q479.371 353.172 483.191 347.443 Q487.039 341.685 494.302 341.685 Z" fill="#000000" fill-rule="nonzero" fill-opacity="1" /><path clip-path="url(#clip950)" d="M318.985 195.809 L356.079 195.809 L356.079 200.728 L318.985 200.728 L318.985 195.809 Z" fill="#000000" fill-rule="nonzero" fill-opacity="1" /><path clip-path="url(#clip950)" d="M384.754 178.738 L369.997 201.799 L384.754 201.799 L384.754 178.738 M383.22 173.645 L390.57 173.645 L390.57 201.799 L396.733 201.799 L396.733 206.66 L390.57 206.66 L390.57 216.845 L384.754 216.845 L384.754 206.66 L365.252 206.66 L365.252 201.017 L383.22 173.645 Z" fill="#000000" fill-rule="nonzero" fill-opacity="1" /><path clip-path="url(#clip950)" d="M406.571 215.948 L406.571 210.624 Q408.77 211.666 411.027 212.215 Q413.284 212.765 415.454 212.765 Q421.241 212.765 424.279 208.888 Q427.346 204.982 427.78 197.053 Q426.102 199.542 423.527 200.873 Q420.952 202.204 417.827 202.204 Q411.345 202.204 407.555 198.298 Q403.793 194.362 403.793 187.563 Q403.793 180.908 407.728 176.886 Q411.663 172.864 418.203 172.864 Q425.697 172.864 429.632 178.622 Q433.596 184.351 433.596 195.288 Q433.596 205.502 428.735 211.608 Q423.903 217.684 415.714 217.684 Q413.515 217.684 411.258 217.25 Q409.001 216.816 406.571 215.948 M418.203 197.632 Q422.138 197.632 424.424 194.941 Q426.739 192.25 426.739 187.563 Q426.739 182.904 424.424 180.213 Q422.138 177.493 418.203 177.493 Q414.268 177.493 411.953 180.213 Q409.667 182.904 409.667 187.563 Q409.667 192.25 411.953 194.941 Q414.268 197.632 418.203 197.632 Z" fill="#000000" fill-rule="nonzero" fill-opacity="1" /><path clip-path="url(#clip950)" d="M456.6 177.493 Q452.086 177.493 449.8 181.949 Q447.543 186.376 447.543 195.288 Q447.543 204.171 449.8 208.627 Q452.086 213.054 456.6 213.054 Q461.142 213.054 463.399 208.627 Q465.685 204.171 465.685 195.288 Q465.685 186.376 463.399 181.949 Q461.142 177.493 456.6 177.493 M456.6 172.864 Q463.862 172.864 467.682 178.622 Q471.53 184.351 471.53 195.288 Q471.53 206.197 467.682 211.955 Q463.862 217.684 456.6 217.684 Q449.337 217.684 445.489 211.955 Q441.669 206.197 441.669 195.288 Q441.669 184.351 445.489 178.622 Q449.337 172.864 456.6 172.864 Z" fill="#000000" fill-rule="nonzero" fill-opacity="1" /><path clip-path="url(#clip950)" d="M494.302 177.493 Q489.788 177.493 487.502 181.949 Q485.245 186.376 485.245 195.288 Q485.245 204.171 487.502 208.627 Q489.788 213.054 494.302 213.054 Q498.845 213.054 501.102 208.627 Q503.388 204.171 503.388 195.288 Q503.388 186.376 501.102 181.949 Q498.845 177.493 494.302 177.493 M494.302 172.864 Q501.565 172.864 505.384 178.622 Q509.232 184.351 509.232 195.288 Q509.232 206.197 505.384 211.955 Q501.565 217.684 494.302 217.684 Q487.039 217.684 483.191 211.955 Q479.371 206.197 479.371 195.288 Q479.371 184.351 483.191 178.622 Q487.039 172.864 494.302 172.864 Z" fill="#000000" fill-rule="nonzero" fill-opacity="1" /><path clip-path="url(#clip950)" d="M221.209 911.779 L221.209 905.35 L263.318 905.35 L263.318 882.21 L268.729 882.21 L268.729 911.779 L221.209 911.779 Z" fill="#000000" fill-rule="nonzero" fill-opacity="1" /><path clip-path="url(#clip950)" d="M237.186 863.049 Q237.186 867.76 240.879 870.497 Q244.539 873.235 250.936 873.235 Q257.334 873.235 261.026 870.529 Q264.686 867.792 264.686 863.049 Q264.686 858.371 260.994 855.633 Q257.302 852.896 250.936 852.896 Q244.603 852.896 240.91 855.633 Q237.186 858.371 237.186 863.049 M232.221 863.049 Q232.221 855.411 237.186 851.05 Q242.152 846.69 250.936 846.69 Q259.689 846.69 264.686 851.05 Q269.652 855.411 269.652 863.049 Q269.652 870.72 264.686 875.081 Q259.689 879.409 250.936 879.409 Q242.152 879.409 237.186 875.081 Q232.221 870.72 232.221 863.049 Z" fill="#000000" fill-rule="nonzero" fill-opacity="1" /><path clip-path="url(#clip950)" d="M250.491 813.524 Q244.125 813.524 240.624 816.166 Q237.123 818.776 237.123 823.518 Q237.123 828.229 240.624 830.871 Q244.125 833.481 250.491 833.481 Q256.825 833.481 260.326 830.871 Q263.827 828.229 263.827 823.518 Q263.827 818.776 260.326 816.166 Q256.825 813.524 250.491 813.524 M264.304 807.668 Q273.407 807.668 277.832 811.71 Q282.288 815.752 282.288 824.091 Q282.288 827.179 281.81 829.916 Q281.364 832.653 280.41 835.231 L274.712 835.231 Q276.113 832.653 276.781 830.139 Q277.45 827.624 277.45 825.014 Q277.45 819.253 274.426 816.389 Q271.434 813.524 265.355 813.524 L262.458 813.524 Q265.609 815.338 267.169 818.171 Q268.729 821.004 268.729 824.951 Q268.729 831.507 263.731 835.518 Q258.734 839.528 250.491 839.528 Q242.215 839.528 237.218 835.518 Q232.221 831.507 232.221 824.951 Q232.221 821.004 233.781 818.171 Q235.34 815.338 238.491 813.524 L233.081 813.524 L233.081 807.668 L264.304 807.668 Z" fill="#000000" fill-rule="nonzero" fill-opacity="1" /><path clip-path="url(#clip950)" d="M248.263 798.565 L248.263 781.409 L253.483 781.409 L253.483 798.565 L248.263 798.565 Z" fill="#000000" fill-rule="nonzero" fill-opacity="1" /><path clip-path="url(#clip950)" d="M221.209 771.829 L221.209 765.399 L263.318 765.399 L263.318 742.26 L268.729 742.26 L268.729 771.829 L221.209 771.829 Z" fill="#000000" fill-rule="nonzero" fill-opacity="1" /><path clip-path="url(#clip950)" d="M233.081 735.767 L233.081 729.911 L268.729 729.911 L268.729 735.767 L233.081 735.767 M219.203 735.767 L219.203 729.911 L226.619 729.911 L226.619 735.767 L219.203 735.767 Z" fill="#000000" fill-rule="nonzero" fill-opacity="1" /><path clip-path="url(#clip950)" d="M219.203 717.879 L219.203 711.991 L248.454 711.991 L233.081 694.517 L233.081 687.038 L249.759 705.944 L268.729 686.242 L268.729 693.881 L251.318 711.991 L268.729 711.991 L268.729 717.879 L219.203 717.879 Z" fill="#000000" fill-rule="nonzero" fill-opacity="1" /><path clip-path="url(#clip950)" d="M249.44 651.74 L252.305 651.74 L252.305 678.667 Q258.352 678.285 261.535 675.038 Q264.686 671.76 264.686 665.935 Q264.686 662.561 263.859 659.41 Q263.031 656.228 261.376 653.108 L266.914 653.108 Q268.251 656.259 268.951 659.57 Q269.652 662.88 269.652 666.285 Q269.652 674.815 264.686 679.813 Q259.721 684.778 251.255 684.778 Q242.502 684.778 237.377 680.067 Q232.221 675.325 232.221 667.304 Q232.221 660.111 236.868 655.941 Q241.483 651.74 249.44 651.74 M247.722 657.596 Q242.916 657.66 240.051 660.302 Q237.186 662.912 237.186 667.24 Q237.186 672.142 239.956 675.102 Q242.725 678.03 247.754 678.476 L247.722 657.596 Z" fill="#000000" fill-rule="nonzero" fill-opacity="1" /><path clip-path="url(#clip950)" d="M219.203 642.128 L219.203 636.271 L268.729 636.271 L268.729 642.128 L219.203 642.128 Z" fill="#000000" fill-rule="nonzero" fill-opacity="1" /><path clip-path="url(#clip950)" d="M233.081 624.017 L233.081 618.161 L268.729 618.161 L268.729 624.017 L233.081 624.017 M219.203 624.017 L219.203 618.161 L226.619 618.161 L226.619 624.017 L219.203 624.017 Z" fill="#000000" fill-rule="nonzero" fill-opacity="1" /><path clip-path="url(#clip950)" d="M247.212 576.274 L268.729 576.274 L268.729 582.131 L247.403 582.131 Q242.343 582.131 239.828 584.104 Q237.314 586.078 237.314 590.024 Q237.314 594.767 240.338 597.504 Q243.361 600.241 248.581 600.241 L268.729 600.241 L268.729 606.129 L219.203 606.129 L219.203 600.241 L238.619 600.241 Q235.404 598.141 233.813 595.308 Q232.221 592.443 232.221 588.719 Q232.221 582.576 236.041 579.425 Q239.828 576.274 247.212 576.274 Z" fill="#000000" fill-rule="nonzero" fill-opacity="1" /><path clip-path="url(#clip950)" d="M237.186 550.78 Q237.186 555.49 240.879 558.228 Q244.539 560.965 250.936 560.965 Q257.334 560.965 261.026 558.259 Q264.686 555.522 264.686 550.78 Q264.686 546.101 260.994 543.364 Q257.302 540.626 250.936 540.626 Q244.603 540.626 240.91 543.364 Q237.186 546.101 237.186 550.78 M232.221 550.78 Q232.221 543.141 237.186 538.78 Q242.152 534.42 250.936 534.42 Q259.689 534.42 264.686 538.78 Q269.652 543.141 269.652 550.78 Q269.652 558.45 264.686 562.811 Q259.689 567.14 250.936 567.14 Q242.152 567.14 237.186 562.811 Q232.221 558.45 232.221 550.78 Z" fill="#000000" fill-rule="nonzero" fill-opacity="1" /><path clip-path="url(#clip950)" d="M237.186 510.899 Q237.186 515.609 240.879 518.346 Q244.539 521.084 250.936 521.084 Q257.334 521.084 261.026 518.378 Q264.686 515.641 264.686 510.899 Q264.686 506.22 260.994 503.482 Q257.302 500.745 250.936 500.745 Q244.603 500.745 240.91 503.482 Q237.186 506.22 237.186 510.899 M232.221 510.899 Q232.221 503.26 237.186 498.899 Q242.152 494.539 250.936 494.539 Q259.689 494.539 264.686 498.899 Q269.652 503.26 269.652 510.899 Q269.652 518.569 264.686 522.93 Q259.689 527.258 250.936 527.258 Q242.152 527.258 237.186 522.93 Q232.221 518.569 232.221 510.899 Z" fill="#000000" fill-rule="nonzero" fill-opacity="1" /><path clip-path="url(#clip950)" d="M238.491 461.373 L219.203 461.373 L219.203 455.517 L268.729 455.517 L268.729 461.373 L263.381 461.373 Q266.564 463.219 268.124 466.052 Q269.652 468.853 269.652 472.8 Q269.652 479.261 264.495 483.335 Q259.339 487.377 250.936 487.377 Q242.534 487.377 237.377 483.335 Q232.221 479.261 232.221 472.8 Q232.221 468.853 233.781 466.052 Q235.309 463.219 238.491 461.373 M250.936 481.33 Q257.398 481.33 261.09 478.688 Q264.75 476.014 264.75 471.367 Q264.75 466.721 261.09 464.047 Q257.398 461.373 250.936 461.373 Q244.475 461.373 240.815 464.047 Q237.123 466.721 237.123 471.367 Q237.123 476.014 240.815 478.688 Q244.475 481.33 250.936 481.33 Z" fill="#000000" fill-rule="nonzero" fill-opacity="1" /><polyline clip-path="url(#clip952)" style="stroke:#000080; stroke-linecap:round; stroke-linejoin:round; stroke-width:8; stroke-opacity:1; fill:none" points="594.16,1209.75 621.803,784.747 649.446,679.457 677.089,614.464 704.732,565.071 732.374,523.633 760.017,486.538 787.66,451.401 815.303,416.706 842.946,383.15 870.589,353.326 898.231,328.326 925.874,307.857 953.517,291.171 981.16,277.551 1008.8,266.464 1036.45,257.469 1064.09,250.158 1091.73,244.191 1119.37,239.295 1147.02,235.252 1174.66,231.876 1202.3,229.012 1229.95,226.527 1257.59,224.313 1285.23,222.283 1312.87,220.368 1340.52,218.518 1368.16,216.692 1395.8,214.865 1423.45,213.017 1451.09,211.143 1478.73,209.245 1506.37,207.334 1534.02,205.424 1561.66,203.528 1589.3,201.653 1616.95,199.796 1644.59,197.945 1672.23,196.081 1699.87,194.175 1727.52,192.196 1755.16,190.113 1782.8,187.902 1810.45,185.555 1838.09,183.086 1865.73,180.536 1893.37,177.969 1921.02,175.453 1948.66,173.049 1976.3,170.797 2003.95,168.719 2031.59,166.819 2059.23,165.091 2086.87,163.521 2114.52,162.094 2142.16,160.794 2169.8,159.609 2197.45,158.53 2225.09,157.55 "/>
<circle clip-path="url(#clip952)" cx="594.16" cy="1209.75" r="10.8" fill="#000080" fill-rule="evenodd" fill-opacity="1" stroke="#000000" stroke-opacity="1" stroke-width="3.2"/>
<circle clip-path="url(#clip952)" cx="621.803" cy="784.747" r="10.8" fill="#000080" fill-rule="evenodd" fill-opacity="1" stroke="#000000" stroke-opacity="1" stroke-width="3.2"/>
<circle clip-path="url(#clip952)" cx="649.446" cy="679.457" r="10.8" fill="#000080" fill-rule="evenodd" fill-opacity="1" stroke="#000000" stroke-opacity="1" stroke-width="3.2"/>
<circle clip-path="url(#clip952)" cx="677.089" cy="614.464" r="10.8" fill="#000080" fill-rule="evenodd" fill-opacity="1" stroke="#000000" stroke-opacity="1" stroke-width="3.2"/>
<circle clip-path="url(#clip952)" cx="704.732" cy="565.071" r="10.8" fill="#000080" fill-rule="evenodd" fill-opacity="1" stroke="#000000" stroke-opacity="1" stroke-width="3.2"/>
<circle clip-path="url(#clip952)" cx="732.374" cy="523.633" r="10.8" fill="#000080" fill-rule="evenodd" fill-opacity="1" stroke="#000000" stroke-opacity="1" stroke-width="3.2"/>
<circle clip-path="url(#clip952)" cx="760.017" cy="486.538" r="10.8" fill="#000080" fill-rule="evenodd" fill-opacity="1" stroke="#000000" stroke-opacity="1" stroke-width="3.2"/>
<circle clip-path="url(#clip952)" cx="787.66" cy="451.401" r="10.8" fill="#000080" fill-rule="evenodd" fill-opacity="1" stroke="#000000" stroke-opacity="1" stroke-width="3.2"/>
<circle clip-path="url(#clip952)" cx="815.303" cy="416.706" r="10.8" fill="#000080" fill-rule="evenodd" fill-opacity="1" stroke="#000000" stroke-opacity="1" stroke-width="3.2"/>
<circle clip-path="url(#clip952)" cx="842.946" cy="383.15" r="10.8" fill="#000080" fill-rule="evenodd" fill-opacity="1" stroke="#000000" stroke-opacity="1" stroke-width="3.2"/>
<circle clip-path="url(#clip952)" cx="870.589" cy="353.326" r="10.8" fill="#000080" fill-rule="evenodd" fill-opacity="1" stroke="#000000" stroke-opacity="1" stroke-width="3.2"/>
<circle clip-path="url(#clip952)" cx="898.231" cy="328.326" r="10.8" fill="#000080" fill-rule="evenodd" fill-opacity="1" stroke="#000000" stroke-opacity="1" stroke-width="3.2"/>
<circle clip-path="url(#clip952)" cx="925.874" cy="307.857" r="10.8" fill="#000080" fill-rule="evenodd" fill-opacity="1" stroke="#000000" stroke-opacity="1" stroke-width="3.2"/>
<circle clip-path="url(#clip952)" cx="953.517" cy="291.171" r="10.8" fill="#000080" fill-rule="evenodd" fill-opacity="1" stroke="#000000" stroke-opacity="1" stroke-width="3.2"/>
<circle clip-path="url(#clip952)" cx="981.16" cy="277.551" r="10.8" fill="#000080" fill-rule="evenodd" fill-opacity="1" stroke="#000000" stroke-opacity="1" stroke-width="3.2"/>
<circle clip-path="url(#clip952)" cx="1008.8" cy="266.464" r="10.8" fill="#000080" fill-rule="evenodd" fill-opacity="1" stroke="#000000" stroke-opacity="1" stroke-width="3.2"/>
<circle clip-path="url(#clip952)" cx="1036.45" cy="257.469" r="10.8" fill="#000080" fill-rule="evenodd" fill-opacity="1" stroke="#000000" stroke-opacity="1" stroke-width="3.2"/>
<circle clip-path="url(#clip952)" cx="1064.09" cy="250.158" r="10.8" fill="#000080" fill-rule="evenodd" fill-opacity="1" stroke="#000000" stroke-opacity="1" stroke-width="3.2"/>
<circle clip-path="url(#clip952)" cx="1091.73" cy="244.191" r="10.8" fill="#000080" fill-rule="evenodd" fill-opacity="1" stroke="#000000" stroke-opacity="1" stroke-width="3.2"/>
<circle clip-path="url(#clip952)" cx="1119.37" cy="239.295" r="10.8" fill="#000080" fill-rule="evenodd" fill-opacity="1" stroke="#000000" stroke-opacity="1" stroke-width="3.2"/>
<circle clip-path="url(#clip952)" cx="1147.02" cy="235.252" r="10.8" fill="#000080" fill-rule="evenodd" fill-opacity="1" stroke="#000000" stroke-opacity="1" stroke-width="3.2"/>
<circle clip-path="url(#clip952)" cx="1174.66" cy="231.876" r="10.8" fill="#000080" fill-rule="evenodd" fill-opacity="1" stroke="#000000" stroke-opacity="1" stroke-width="3.2"/>
<circle clip-path="url(#clip952)" cx="1202.3" cy="229.012" r="10.8" fill="#000080" fill-rule="evenodd" fill-opacity="1" stroke="#000000" stroke-opacity="1" stroke-width="3.2"/>
<circle clip-path="url(#clip952)" cx="1229.95" cy="226.527" r="10.8" fill="#000080" fill-rule="evenodd" fill-opacity="1" stroke="#000000" stroke-opacity="1" stroke-width="3.2"/>
<circle clip-path="url(#clip952)" cx="1257.59" cy="224.313" r="10.8" fill="#000080" fill-rule="evenodd" fill-opacity="1" stroke="#000000" stroke-opacity="1" stroke-width="3.2"/>
<circle clip-path="url(#clip952)" cx="1285.23" cy="222.283" r="10.8" fill="#000080" fill-rule="evenodd" fill-opacity="1" stroke="#000000" stroke-opacity="1" stroke-width="3.2"/>
<circle clip-path="url(#clip952)" cx="1312.87" cy="220.368" r="10.8" fill="#000080" fill-rule="evenodd" fill-opacity="1" stroke="#000000" stroke-opacity="1" stroke-width="3.2"/>
<circle clip-path="url(#clip952)" cx="1340.52" cy="218.518" r="10.8" fill="#000080" fill-rule="evenodd" fill-opacity="1" stroke="#000000" stroke-opacity="1" stroke-width="3.2"/>
<circle clip-path="url(#clip952)" cx="1368.16" cy="216.692" r="10.8" fill="#000080" fill-rule="evenodd" fill-opacity="1" stroke="#000000" stroke-opacity="1" stroke-width="3.2"/>
<circle clip-path="url(#clip952)" cx="1395.8" cy="214.865" r="10.8" fill="#000080" fill-rule="evenodd" fill-opacity="1" stroke="#000000" stroke-opacity="1" stroke-width="3.2"/>
<circle clip-path="url(#clip952)" cx="1423.45" cy="213.017" r="10.8" fill="#000080" fill-rule="evenodd" fill-opacity="1" stroke="#000000" stroke-opacity="1" stroke-width="3.2"/>
<circle clip-path="url(#clip952)" cx="1451.09" cy="211.143" r="10.8" fill="#000080" fill-rule="evenodd" fill-opacity="1" stroke="#000000" stroke-opacity="1" stroke-width="3.2"/>
<circle clip-path="url(#clip952)" cx="1478.73" cy="209.245" r="10.8" fill="#000080" fill-rule="evenodd" fill-opacity="1" stroke="#000000" stroke-opacity="1" stroke-width="3.2"/>
<circle clip-path="url(#clip952)" cx="1506.37" cy="207.334" r="10.8" fill="#000080" fill-rule="evenodd" fill-opacity="1" stroke="#000000" stroke-opacity="1" stroke-width="3.2"/>
<circle clip-path="url(#clip952)" cx="1534.02" cy="205.424" r="10.8" fill="#000080" fill-rule="evenodd" fill-opacity="1" stroke="#000000" stroke-opacity="1" stroke-width="3.2"/>
<circle clip-path="url(#clip952)" cx="1561.66" cy="203.528" r="10.8" fill="#000080" fill-rule="evenodd" fill-opacity="1" stroke="#000000" stroke-opacity="1" stroke-width="3.2"/>
<circle clip-path="url(#clip952)" cx="1589.3" cy="201.653" r="10.8" fill="#000080" fill-rule="evenodd" fill-opacity="1" stroke="#000000" stroke-opacity="1" stroke-width="3.2"/>
<circle clip-path="url(#clip952)" cx="1616.95" cy="199.796" r="10.8" fill="#000080" fill-rule="evenodd" fill-opacity="1" stroke="#000000" stroke-opacity="1" stroke-width="3.2"/>
<circle clip-path="url(#clip952)" cx="1644.59" cy="197.945" r="10.8" fill="#000080" fill-rule="evenodd" fill-opacity="1" stroke="#000000" stroke-opacity="1" stroke-width="3.2"/>
<circle clip-path="url(#clip952)" cx="1672.23" cy="196.081" r="10.8" fill="#000080" fill-rule="evenodd" fill-opacity="1" stroke="#000000" stroke-opacity="1" stroke-width="3.2"/>
<circle clip-path="url(#clip952)" cx="1699.87" cy="194.175" r="10.8" fill="#000080" fill-rule="evenodd" fill-opacity="1" stroke="#000000" stroke-opacity="1" stroke-width="3.2"/>
<circle clip-path="url(#clip952)" cx="1727.52" cy="192.196" r="10.8" fill="#000080" fill-rule="evenodd" fill-opacity="1" stroke="#000000" stroke-opacity="1" stroke-width="3.2"/>
<circle clip-path="url(#clip952)" cx="1755.16" cy="190.113" r="10.8" fill="#000080" fill-rule="evenodd" fill-opacity="1" stroke="#000000" stroke-opacity="1" stroke-width="3.2"/>
<circle clip-path="url(#clip952)" cx="1782.8" cy="187.902" r="10.8" fill="#000080" fill-rule="evenodd" fill-opacity="1" stroke="#000000" stroke-opacity="1" stroke-width="3.2"/>
<circle clip-path="url(#clip952)" cx="1810.45" cy="185.555" r="10.8" fill="#000080" fill-rule="evenodd" fill-opacity="1" stroke="#000000" stroke-opacity="1" stroke-width="3.2"/>
<circle clip-path="url(#clip952)" cx="1838.09" cy="183.086" r="10.8" fill="#000080" fill-rule="evenodd" fill-opacity="1" stroke="#000000" stroke-opacity="1" stroke-width="3.2"/>
<circle clip-path="url(#clip952)" cx="1865.73" cy="180.536" r="10.8" fill="#000080" fill-rule="evenodd" fill-opacity="1" stroke="#000000" stroke-opacity="1" stroke-width="3.2"/>
<circle clip-path="url(#clip952)" cx="1893.37" cy="177.969" r="10.8" fill="#000080" fill-rule="evenodd" fill-opacity="1" stroke="#000000" stroke-opacity="1" stroke-width="3.2"/>
<circle clip-path="url(#clip952)" cx="1921.02" cy="175.453" r="10.8" fill="#000080" fill-rule="evenodd" fill-opacity="1" stroke="#000000" stroke-opacity="1" stroke-width="3.2"/>
<circle clip-path="url(#clip952)" cx="1948.66" cy="173.049" r="10.8" fill="#000080" fill-rule="evenodd" fill-opacity="1" stroke="#000000" stroke-opacity="1" stroke-width="3.2"/>
<circle clip-path="url(#clip952)" cx="1976.3" cy="170.797" r="10.8" fill="#000080" fill-rule="evenodd" fill-opacity="1" stroke="#000000" stroke-opacity="1" stroke-width="3.2"/>
<circle clip-path="url(#clip952)" cx="2003.95" cy="168.719" r="10.8" fill="#000080" fill-rule="evenodd" fill-opacity="1" stroke="#000000" stroke-opacity="1" stroke-width="3.2"/>
<circle clip-path="url(#clip952)" cx="2031.59" cy="166.819" r="10.8" fill="#000080" fill-rule="evenodd" fill-opacity="1" stroke="#000000" stroke-opacity="1" stroke-width="3.2"/>
<circle clip-path="url(#clip952)" cx="2059.23" cy="165.091" r="10.8" fill="#000080" fill-rule="evenodd" fill-opacity="1" stroke="#000000" stroke-opacity="1" stroke-width="3.2"/>
<circle clip-path="url(#clip952)" cx="2086.87" cy="163.521" r="10.8" fill="#000080" fill-rule="evenodd" fill-opacity="1" stroke="#000000" stroke-opacity="1" stroke-width="3.2"/>
<circle clip-path="url(#clip952)" cx="2114.52" cy="162.094" r="10.8" fill="#000080" fill-rule="evenodd" fill-opacity="1" stroke="#000000" stroke-opacity="1" stroke-width="3.2"/>
<circle clip-path="url(#clip952)" cx="2142.16" cy="160.794" r="10.8" fill="#000080" fill-rule="evenodd" fill-opacity="1" stroke="#000000" stroke-opacity="1" stroke-width="3.2"/>
<circle clip-path="url(#clip952)" cx="2169.8" cy="159.609" r="10.8" fill="#000080" fill-rule="evenodd" fill-opacity="1" stroke="#000000" stroke-opacity="1" stroke-width="3.2"/>
<circle clip-path="url(#clip952)" cx="2197.45" cy="158.53" r="10.8" fill="#000080" fill-rule="evenodd" fill-opacity="1" stroke="#000000" stroke-opacity="1" stroke-width="3.2"/>
<circle clip-path="url(#clip952)" cx="2225.09" cy="157.55" r="10.8" fill="#000080" fill-rule="evenodd" fill-opacity="1" stroke="#000000" stroke-opacity="1" stroke-width="3.2"/>
</svg>
