<?xml version="1.0" encoding="utf-8"?>
<svg xmlns="http://www.w3.org/2000/svg" xmlns:xlink="http://www.w3.org/1999/xlink" width="600" height="400" viewBox="0 0 2400 1600">
<defs>
  <clipPath id="clip980">
    <rect x="0" y="0" width="2400" height="1600"/>
  </clipPath>
</defs>
<path clip-path="url(#clip980)" d="M0 1600 L2400 1600 L2400 8.88178e-14 L0 8.88178e-14  Z" fill="#ffffff" fill-rule="evenodd" fill-opacity="1"/>
<defs>
  <clipPath id="clip981">
    <rect x="586" y="0" width="1423" height="1247"/>
  </clipPath>
</defs>
<path clip-path="url(#clip980)" d="M479.087 1241.31 L2274.02 1241.31 L2274.02 180.612 L479.087 180.612  Z" fill="#ffffff" fill-rule="evenodd" fill-opacity="1"/>
<defs>
  <clipPath id="clip982">
    <rect x="479" y="180" width="1796" height="1062"/>
  </clipPath>
</defs>
<polyline clip-path="url(#clip982)" style="stroke:#000000; stroke-linecap:round; stroke-linejoin:round; stroke-width:2; stroke-opacity:0.1; fill:none" points="523.964,1241.31 523.964,180.612 "/>
<polyline clip-path="url(#clip982)" style="stroke:#000000; stroke-linecap:round; stroke-linejoin:round; stroke-width:2; stroke-opacity:0.1; fill:none" points="972.694,1241.31 972.694,180.612 "/>
<polyline clip-path="url(#clip982)" style="stroke:#000000; stroke-linecap:round; stroke-linejoin:round; stroke-width:2; stroke-opacity:0.1; fill:none" points="1421.42,1241.31 1421.42,180.612 "/>
<polyline clip-path="url(#clip982)" style="stroke:#000000; stroke-linecap:round; stroke-linejoin:round; stroke-width:2; stroke-opacity:0.1; fill:none" points="1870.15,1241.31 1870.15,180.612 "/>
<polyline clip-path="url(#clip982)" style="stroke:#000000; stroke-linecap:round; stroke-linejoin:round; stroke-width:2; stroke-opacity:0.1; fill:none" points="479.087,1241.31 2274.02,1241.31 "/>
<polyline clip-path="url(#clip982)" style="stroke:#000000; stroke-linecap:round; stroke-linejoin:round; stroke-width:2; stroke-opacity:0.1; fill:none" points="479.087,1048.2 2274.02,1048.2 "/>
<polyline clip-path="url(#clip982)" style="stroke:#000000; stroke-linecap:round; stroke-linejoin:round; stroke-width:2; stroke-opacity:0.1; fill:none" points="479.087,855.084 2274.02,855.084 "/>
<polyline clip-path="url(#clip982)" style="stroke:#000000; stroke-linecap:round; stroke-linejoin:round; stroke-width:2; stroke-opacity:0.1; fill:none" points="479.087,661.97 2274.02,661.97 "/>
<polyline clip-path="url(#clip982)" style="stroke:#000000; stroke-linecap:round; stroke-linejoin:round; stroke-width:2; stroke-opacity:0.1; fill:none" points="479.087,468.857 2274.02,468.857 "/>
<polyline clip-path="url(#clip982)" style="stroke:#000000; stroke-linecap:round; stroke-linejoin:round; stroke-width:2; stroke-opacity:0.1; fill:none" points="479.087,275.743 2274.02,275.743 "/>
<polyline clip-path="url(#clip980)" style="stroke:#000000; stroke-linecap:round; stroke-linejoin:round; stroke-width:4; stroke-opacity:1; fill:none" points="479.087,1241.31 2274.02,1241.31 "/>
<polyline clip-path="url(#clip980)" style="stroke:#000000; stroke-linecap:round; stroke-linejoin:round; stroke-width:4; stroke-opacity:1; fill:none" points="523.964,1241.31 523.964,1222.41 "/>
<polyline clip-path="url(#clip980)" style="stroke:#000000; stroke-linecap:round; stroke-linejoin:round; stroke-width:4; stroke-opacity:1; fill:none" points="972.694,1241.31 972.694,1222.41 "/>
<polyline clip-path="url(#clip980)" style="stroke:#000000; stroke-linecap:round; stroke-linejoin:round; stroke-width:4; stroke-opacity:1; fill:none" points="1421.42,1241.31 1421.42,1222.41 "/>
<polyline clip-path="url(#clip980)" style="stroke:#000000; stroke-linecap:round; stroke-linejoin:round; stroke-width:4; stroke-opacity:1; fill:none" points="1870.15,1241.31 1870.15,1222.41 "/>
<path clip-path="url(#clip980)" d="M523.964 1275.16 Q519.45 1275.16 517.164 1279.62 Q514.907 1284.04 514.907 1292.95 Q514.907 1301.84 517.164 1306.29 Q519.45 1310.72 523.964 1310.72 Q528.506 1310.72 530.763 1306.29 Q533.049 1301.84 533.049 1292.95 Q533.049 1284.04 530.763 1279.62 Q528.506 1275.16 523.964 1275.16 M523.964 1270.53 Q531.226 1270.53 535.046 1276.29 Q538.894 1282.02 538.894 1292.95 Q538.894 1303.86 535.046 1309.62 Q531.226 1315.35 523.964 1315.35 Q516.701 1315.35 512.852 1309.62 Q509.033 1303.86 509.033 1292.95 Q509.033 1282.02 512.852 1276.29 Q516.701 1270.53 523.964 1270.53 Z" fill="#000000" fill-rule="nonzero" fill-opacity="1" /><path clip-path="url(#clip980)" d="M960.541 1271.31 L983.487 1271.31 L983.487 1276.23 L965.894 1276.23 L965.894 1286.82 Q967.167 1286.39 968.441 1286.18 Q969.714 1285.95 970.987 1285.95 Q978.221 1285.95 982.445 1289.92 Q986.67 1293.88 986.67 1300.65 Q986.67 1307.62 982.329 1311.5 Q977.989 1315.35 970.09 1315.35 Q967.37 1315.35 964.534 1314.89 Q961.728 1314.42 958.718 1313.5 L958.718 1307.62 Q961.322 1309.04 964.1 1309.74 Q966.878 1310.43 969.974 1310.43 Q974.98 1310.43 977.902 1307.8 Q980.825 1305.17 980.825 1300.65 Q980.825 1296.14 977.902 1293.5 Q974.98 1290.87 969.974 1290.87 Q967.63 1290.87 965.287 1291.39 Q962.972 1291.91 960.541 1293.01 L960.541 1271.31 Z" fill="#000000" fill-rule="nonzero" fill-opacity="1" /><path clip-path="url(#clip980)" d="M1389.78 1309.59 L1399.33 1309.59 L1399.33 1276.64 L1388.94 1278.72 L1388.94 1273.39 L1399.27 1271.31 L1405.12 1271.31 L1405.12 1309.59 L1414.67 1309.59 L1414.67 1314.51 L1389.78 1314.51 L1389.78 1309.59 Z" fill="#000000" fill-rule="nonzero" fill-opacity="1" /><path clip-path="url(#clip980)" d="M1438.97 1275.16 Q1434.46 1275.16 1432.17 1279.62 Q1429.92 1284.04 1429.92 1292.95 Q1429.92 1301.84 1432.17 1306.29 Q1434.46 1310.72 1438.97 1310.72 Q1443.52 1310.72 1445.77 1306.29 Q1448.06 1301.84 1448.06 1292.95 Q1448.06 1284.04 1445.77 1279.62 Q1443.52 1275.16 1438.97 1275.16 M1438.97 1270.53 Q1446.24 1270.53 1450.06 1276.29 Q1453.9 1282.02 1453.9 1292.95 Q1453.9 1303.86 1450.06 1309.62 Q1446.24 1315.35 1438.97 1315.35 Q1431.71 1315.35 1427.86 1309.62 Q1424.04 1303.86 1424.04 1292.95 Q1424.04 1282.02 1427.86 1276.29 Q1431.71 1270.53 1438.97 1270.53 Z" fill="#000000" fill-rule="nonzero" fill-opacity="1" /><path clip-path="url(#clip980)" d="M1839.14 1309.59 L1848.68 1309.59 L1848.68 1276.64 L1838.3 1278.72 L1838.3 1273.39 L1848.63 1271.31 L1854.47 1271.31 L1854.47 1309.59 L1864.02 1309.59 L1864.02 1314.51 L1839.14 1314.51 L1839.14 1309.59 Z" fill="#000000" fill-rule="nonzero" fill-opacity="1" /><path clip-path="url(#clip980)" d="M1875.88 1271.31 L1898.83 1271.31 L1898.83 1276.23 L1881.24 1276.23 L1881.24 1286.82 Q1882.51 1286.39 1883.78 1286.18 Q1885.06 1285.95 1886.33 1285.95 Q1893.56 1285.95 1897.79 1289.92 Q1902.01 1293.88 1902.01 1300.65 Q1902.01 1307.62 1897.67 1311.5 Q1893.33 1315.35 1885.43 1315.35 Q1882.71 1315.35 1879.88 1314.89 Q1877.07 1314.42 1874.06 1313.5 L1874.06 1307.62 Q1876.67 1309.04 1879.44 1309.74 Q1882.22 1310.43 1885.32 1310.43 Q1890.32 1310.43 1893.24 1307.8 Q1896.17 1305.17 1896.17 1300.65 Q1896.17 1296.14 1893.24 1293.5 Q1890.32 1290.87 1885.32 1290.87 Q1882.97 1290.87 1880.63 1291.39 Q1878.31 1291.91 1875.88 1293.01 L1875.88 1271.31 Z" fill="#000000" fill-rule="nonzero" fill-opacity="1" /><path clip-path="url(#clip980)" d="M1224.55 1353.18 L1224.55 1359.45 Q1220.89 1357.69 1217.65 1356.84 Q1214.4 1355.98 1211.38 1355.98 Q1206.13 1355.98 1203.26 1358.01 Q1200.43 1360.05 1200.43 1363.81 Q1200.43 1366.96 1202.31 1368.58 Q1204.22 1370.17 1209.5 1371.16 L1213.38 1371.95 Q1220.58 1373.32 1223.98 1376.79 Q1227.42 1380.23 1227.42 1386.02 Q1227.42 1392.93 1222.77 1396.49 Q1218.16 1400.06 1209.21 1400.06 Q1205.84 1400.06 1202.02 1399.29 Q1198.23 1398.53 1194.16 1397.03 L1194.16 1390.41 Q1198.07 1392.61 1201.83 1393.72 Q1205.58 1394.84 1209.21 1394.84 Q1214.72 1394.84 1217.71 1392.67 Q1220.7 1390.51 1220.7 1386.5 Q1220.7 1383 1218.54 1381.03 Q1216.41 1379.05 1211.5 1378.07 L1207.59 1377.3 Q1200.4 1375.87 1197.18 1372.81 Q1193.97 1369.76 1193.97 1364.32 Q1193.97 1358.01 1198.39 1354.38 Q1202.85 1350.76 1210.65 1350.76 Q1213.99 1350.76 1217.46 1351.36 Q1220.93 1351.97 1224.55 1353.18 Z" fill="#000000" fill-rule="nonzero" fill-opacity="1" /><path clip-path="url(#clip980)" d="M1242.98 1353.37 L1242.98 1363.49 L1255.05 1363.49 L1255.05 1368.04 L1242.98 1368.04 L1242.98 1387.39 Q1242.98 1391.75 1244.16 1392.99 Q1245.37 1394.23 1249.03 1394.23 L1255.05 1394.23 L1255.05 1399.14 L1249.03 1399.14 Q1242.25 1399.14 1239.67 1396.62 Q1237.09 1394.07 1237.09 1387.39 L1237.09 1368.04 L1232.8 1368.04 L1232.8 1363.49 L1237.09 1363.49 L1237.09 1353.37 L1242.98 1353.37 Z" fill="#000000" fill-rule="nonzero" fill-opacity="1" /><path clip-path="url(#clip980)" d="M1278.95 1381.22 Q1271.85 1381.22 1269.11 1382.84 Q1266.38 1384.46 1266.38 1388.38 Q1266.38 1391.5 1268.41 1393.34 Q1270.48 1395.16 1274.02 1395.16 Q1278.89 1395.16 1281.81 1391.72 Q1284.77 1388.25 1284.77 1382.52 L1284.77 1381.22 L1278.95 1381.22 M1290.63 1378.8 L1290.63 1399.14 L1284.77 1399.14 L1284.77 1393.72 Q1282.77 1396.97 1279.78 1398.53 Q1276.78 1400.06 1272.46 1400.06 Q1266.98 1400.06 1263.74 1397 Q1260.52 1393.92 1260.52 1388.76 Q1260.52 1382.74 1264.53 1379.69 Q1268.57 1376.63 1276.56 1376.63 L1284.77 1376.63 L1284.77 1376.06 Q1284.77 1372.02 1282.1 1369.82 Q1279.46 1367.59 1274.65 1367.59 Q1271.6 1367.59 1268.7 1368.33 Q1265.8 1369.06 1263.13 1370.52 L1263.13 1365.11 Q1266.35 1363.87 1269.37 1363.26 Q1272.39 1362.63 1275.26 1362.63 Q1282.99 1362.63 1286.81 1366.64 Q1290.63 1370.65 1290.63 1378.8 Z" fill="#000000" fill-rule="nonzero" fill-opacity="1" /><path clip-path="url(#clip980)" d="M1308.49 1353.37 L1308.49 1363.49 L1320.55 1363.49 L1320.55 1368.04 L1308.49 1368.04 L1308.49 1387.39 Q1308.49 1391.75 1309.66 1392.99 Q1310.87 1394.23 1314.53 1394.23 L1320.55 1394.23 L1320.55 1399.14 L1314.53 1399.14 Q1307.75 1399.14 1305.18 1396.62 Q1302.6 1394.07 1302.6 1387.39 L1302.6 1368.04 L1298.3 1368.04 L1298.3 1363.49 L1302.6 1363.49 L1302.6 1353.37 L1308.49 1353.37 Z" fill="#000000" fill-rule="nonzero" fill-opacity="1" /><path clip-path="url(#clip980)" d="M1358.74 1379.85 L1358.74 1382.71 L1331.82 1382.71 Q1332.2 1388.76 1335.44 1391.94 Q1338.72 1395.09 1344.55 1395.09 Q1347.92 1395.09 1351.07 1394.27 Q1354.26 1393.44 1357.37 1391.78 L1357.37 1397.32 Q1354.22 1398.66 1350.91 1399.36 Q1347.6 1400.06 1344.2 1400.06 Q1335.67 1400.06 1330.67 1395.09 Q1325.71 1390.13 1325.71 1381.66 Q1325.71 1372.91 1330.42 1367.78 Q1335.16 1362.63 1343.18 1362.63 Q1350.37 1362.63 1354.54 1367.28 Q1358.74 1371.89 1358.74 1379.85 M1352.89 1378.13 Q1352.82 1373.32 1350.18 1370.46 Q1347.57 1367.59 1343.24 1367.59 Q1338.34 1367.59 1335.38 1370.36 Q1332.45 1373.13 1332.01 1378.16 L1352.89 1378.13 Z" fill="#000000" fill-rule="nonzero" fill-opacity="1" /><path clip-path="url(#clip980)" d="M1389.08 1363.49 L1394.93 1363.49 L1394.93 1399.14 L1389.08 1399.14 L1389.08 1363.49 M1389.08 1349.61 L1394.93 1349.61 L1394.93 1357.03 L1389.08 1357.03 L1389.08 1349.61 Z" fill="#000000" fill-rule="nonzero" fill-opacity="1" /><path clip-path="url(#clip980)" d="M1436.82 1377.62 L1436.82 1399.14 L1430.96 1399.14 L1430.96 1377.81 Q1430.96 1372.75 1428.99 1370.24 Q1427.02 1367.72 1423.07 1367.72 Q1418.33 1367.72 1415.59 1370.74 Q1412.85 1373.77 1412.85 1378.99 L1412.85 1399.14 L1406.96 1399.14 L1406.96 1363.49 L1412.85 1363.49 L1412.85 1369.03 Q1414.95 1365.81 1417.79 1364.22 Q1420.65 1362.63 1424.37 1362.63 Q1430.52 1362.63 1433.67 1366.45 Q1436.82 1370.24 1436.82 1377.62 Z" fill="#000000" fill-rule="nonzero" fill-opacity="1" /><path clip-path="url(#clip980)" d="M1471.96 1368.9 L1471.96 1349.61 L1477.81 1349.61 L1477.81 1399.14 L1471.96 1399.14 L1471.96 1393.79 Q1470.11 1396.97 1467.28 1398.53 Q1464.48 1400.06 1460.53 1400.06 Q1454.07 1400.06 1450 1394.9 Q1445.95 1389.75 1445.95 1381.34 Q1445.95 1372.94 1450 1367.78 Q1454.07 1362.63 1460.53 1362.63 Q1464.48 1362.63 1467.28 1364.19 Q1470.11 1365.72 1471.96 1368.9 M1452 1381.34 Q1452 1387.8 1454.64 1391.5 Q1457.32 1395.16 1461.96 1395.16 Q1466.61 1395.16 1469.28 1391.5 Q1471.96 1387.8 1471.96 1381.34 Q1471.96 1374.88 1469.28 1371.22 Q1466.61 1367.53 1461.96 1367.53 Q1457.32 1367.53 1454.64 1371.22 Q1452 1374.88 1452 1381.34 Z" fill="#000000" fill-rule="nonzero" fill-opacity="1" /><path clip-path="url(#clip980)" d="M1520.37 1379.85 L1520.37 1382.71 L1493.44 1382.71 Q1493.82 1388.76 1497.07 1391.94 Q1500.35 1395.09 1506.17 1395.09 Q1509.55 1395.09 1512.7 1394.27 Q1515.88 1393.44 1519 1391.78 L1519 1397.32 Q1515.85 1398.66 1512.54 1399.36 Q1509.23 1400.06 1505.82 1400.06 Q1497.29 1400.06 1492.3 1395.09 Q1487.33 1390.13 1487.33 1381.66 Q1487.33 1372.91 1492.04 1367.78 Q1496.78 1362.63 1504.8 1362.63 Q1512 1362.63 1516.17 1367.28 Q1520.37 1371.89 1520.37 1379.85 M1514.51 1378.13 Q1514.45 1373.32 1511.81 1370.46 Q1509.2 1367.59 1504.87 1367.59 Q1499.97 1367.59 1497.01 1370.36 Q1494.08 1373.13 1493.63 1378.16 L1514.51 1378.13 Z" fill="#000000" fill-rule="nonzero" fill-opacity="1" /><path clip-path="url(#clip980)" d="M1558.47 1363.49 L1545.58 1380.83 L1559.14 1399.14 L1552.23 1399.14 L1541.85 1385.13 L1531.48 1399.14 L1524.57 1399.14 L1538.42 1380.48 L1525.75 1363.49 L1532.65 1363.49 L1542.11 1376.19 L1551.56 1363.49 L1558.47 1363.49 Z" fill="#000000" fill-rule="nonzero" fill-opacity="1" /><polyline clip-path="url(#clip980)" style="stroke:#000000; stroke-linecap:round; stroke-linejoin:round; stroke-width:4; stroke-opacity:1; fill:none" points="479.087,1241.31 479.087,180.612 "/>
<polyline clip-path="url(#clip980)" style="stroke:#000000; stroke-linecap:round; stroke-linejoin:round; stroke-width:4; stroke-opacity:1; fill:none" points="479.087,1241.31 497.985,1241.31 "/>
<polyline clip-path="url(#clip980)" style="stroke:#000000; stroke-linecap:round; stroke-linejoin:round; stroke-width:4; stroke-opacity:1; fill:none" points="479.087,1048.2 497.985,1048.2 "/>
<polyline clip-path="url(#clip980)" style="stroke:#000000; stroke-linecap:round; stroke-linejoin:round; stroke-width:4; stroke-opacity:1; fill:none" points="479.087,855.084 497.985,855.084 "/>
<polyline clip-path="url(#clip980)" style="stroke:#000000; stroke-linecap:round; stroke-linejoin:round; stroke-width:4; stroke-opacity:1; fill:none" points="479.087,661.97 497.985,661.97 "/>
<polyline clip-path="url(#clip980)" style="stroke:#000000; stroke-linecap:round; stroke-linejoin:round; stroke-width:4; stroke-opacity:1; fill:none" points="479.087,468.857 497.985,468.857 "/>
<polyline clip-path="url(#clip980)" style="stroke:#000000; stroke-linecap:round; stroke-linejoin:round; stroke-width:4; stroke-opacity:1; fill:none" points="479.087,275.743 497.985,275.743 "/>
<path clip-path="url(#clip980)" d="M333.915 1223.56 Q329.401 1223.56 327.115 1228.02 Q324.858 1232.44 324.858 1241.35 Q324.858 1250.24 327.115 1254.69 Q329.401 1259.12 333.915 1259.12 Q338.458 1259.12 340.715 1254.69 Q343.001 1250.24 343.001 1241.35 Q343.001 1232.44 340.715 1228.02 Q338.458 1223.56 333.915 1223.56 M333.915 1218.93 Q341.178 1218.93 344.997 1224.69 Q348.846 1230.42 348.846 1241.35 Q348.846 1252.26 344.997 1258.02 Q341.178 1263.75 333.915 1263.75 Q326.652 1263.75 322.804 1258.02 Q318.985 1252.26 318.985 1241.35 Q318.985 1230.42 322.804 1224.69 Q326.652 1218.93 333.915 1218.93 Z" fill="#000000" fill-rule="nonzero" fill-opacity="1" /><path clip-path="url(#clip980)" d="M359.117 1255.56 L365.223 1255.56 L365.223 1262.91 L359.117 1262.91 L359.117 1255.56 Z" fill="#000000" fill-rule="nonzero" fill-opacity="1" /><path clip-path="url(#clip980)" d="M390.454 1223.56 Q385.94 1223.56 383.654 1228.02 Q381.397 1232.44 381.397 1241.35 Q381.397 1250.24 383.654 1254.69 Q385.94 1259.12 390.454 1259.12 Q394.997 1259.12 397.254 1254.69 Q399.54 1250.24 399.54 1241.35 Q399.54 1232.44 397.254 1228.02 Q394.997 1223.56 390.454 1223.56 M390.454 1218.93 Q397.717 1218.93 401.536 1224.69 Q405.385 1230.42 405.385 1241.35 Q405.385 1252.26 401.536 1258.02 Q397.717 1263.75 390.454 1263.75 Q383.191 1263.75 379.343 1258.02 Q375.524 1252.26 375.524 1241.35 Q375.524 1230.42 379.343 1224.69 Q383.191 1218.93 390.454 1218.93 Z" fill="#000000" fill-rule="nonzero" fill-opacity="1" /><path clip-path="url(#clip980)" d="M428.156 1223.56 Q423.643 1223.56 421.357 1228.02 Q419.1 1232.44 419.1 1241.35 Q419.1 1250.24 421.357 1254.69 Q423.643 1259.12 428.156 1259.12 Q432.699 1259.12 434.956 1254.69 Q437.242 1250.24 437.242 1241.35 Q437.242 1232.44 434.956 1228.02 Q432.699 1223.56 428.156 1223.56 M428.156 1218.93 Q435.419 1218.93 439.239 1224.69 Q443.087 1230.42 443.087 1241.35 Q443.087 1252.26 439.239 1258.02 Q435.419 1263.75 428.156 1263.75 Q420.894 1263.75 417.045 1258.02 Q413.226 1252.26 413.226 1241.35 Q413.226 1230.42 417.045 1224.69 Q420.894 1218.93 428.156 1218.93 Z" fill="#000000" fill-rule="nonzero" fill-opacity="1" /><path clip-path="url(#clip980)" d="M335.159 1030.45 Q330.645 1030.45 328.36 1034.9 Q326.103 1039.33 326.103 1048.24 Q326.103 1057.12 328.36 1061.58 Q330.645 1066.01 335.159 1066.01 Q339.702 1066.01 341.959 1061.58 Q344.245 1057.12 344.245 1048.24 Q344.245 1039.33 341.959 1034.9 Q339.702 1030.45 335.159 1030.45 M335.159 1025.82 Q342.422 1025.82 346.241 1031.57 Q350.09 1037.3 350.09 1048.24 Q350.09 1059.15 346.241 1064.91 Q342.422 1070.64 335.159 1070.64 Q327.897 1070.64 324.048 1064.91 Q320.229 1059.15 320.229 1048.24 Q320.229 1037.3 324.048 1031.57 Q327.897 1025.82 335.159 1025.82 Z" fill="#000000" fill-rule="nonzero" fill-opacity="1" /><path clip-path="url(#clip980)" d="M360.362 1062.45 L366.467 1062.45 L366.467 1069.8 L360.362 1069.8 L360.362 1062.45 Z" fill="#000000" fill-rule="nonzero" fill-opacity="1" /><path clip-path="url(#clip980)" d="M391.698 1030.45 Q387.184 1030.45 384.899 1034.9 Q382.642 1039.33 382.642 1048.24 Q382.642 1057.12 384.899 1061.58 Q387.184 1066.01 391.698 1066.01 Q396.241 1066.01 398.498 1061.58 Q400.784 1057.12 400.784 1048.24 Q400.784 1039.33 398.498 1034.9 Q396.241 1030.45 391.698 1030.45 M391.698 1025.82 Q398.961 1025.82 402.78 1031.57 Q406.629 1037.3 406.629 1048.24 Q406.629 1059.15 402.78 1064.91 Q398.961 1070.64 391.698 1070.64 Q384.436 1070.64 380.587 1064.91 Q376.768 1059.15 376.768 1048.24 Q376.768 1037.3 380.587 1031.57 Q384.436 1025.82 391.698 1025.82 Z" fill="#000000" fill-rule="nonzero" fill-opacity="1" /><path clip-path="url(#clip980)" d="M416.959 1026.6 L439.904 1026.6 L439.904 1031.52 L422.312 1031.52 L422.312 1042.11 Q423.585 1041.67 424.858 1041.47 Q426.131 1041.24 427.404 1041.24 Q434.638 1041.24 438.862 1045.2 Q443.087 1049.17 443.087 1055.94 Q443.087 1062.91 438.747 1066.79 Q434.406 1070.64 426.507 1070.64 Q423.787 1070.64 420.952 1070.17 Q418.145 1069.71 415.136 1068.79 L415.136 1062.91 Q417.74 1064.33 420.518 1065.02 Q423.295 1065.72 426.391 1065.72 Q431.397 1065.72 434.32 1063.08 Q437.242 1060.45 437.242 1055.94 Q437.242 1051.42 434.32 1048.79 Q431.397 1046.16 426.391 1046.16 Q424.048 1046.16 421.704 1046.68 Q419.389 1047.2 416.959 1048.3 L416.959 1026.6 Z" fill="#000000" fill-rule="nonzero" fill-opacity="1" /><path clip-path="url(#clip980)" d="M333.915 837.332 Q329.401 837.332 327.115 841.788 Q324.858 846.215 324.858 855.127 Q324.858 864.011 327.115 868.467 Q329.401 872.894 333.915 872.894 Q338.458 872.894 340.715 868.467 Q343.001 864.011 343.001 855.127 Q343.001 846.215 340.715 841.788 Q338.458 837.332 333.915 837.332 M333.915 832.703 Q341.178 832.703 344.997 838.461 Q348.846 844.19 348.846 855.127 Q348.846 866.036 344.997 871.794 Q341.178 877.523 333.915 877.523 Q326.652 877.523 322.804 871.794 Q318.985 866.036 318.985 855.127 Q318.985 844.19 322.804 838.461 Q326.652 832.703 333.915 832.703 Z" fill="#000000" fill-rule="nonzero" fill-opacity="1" /><path clip-path="url(#clip980)" d="M359.117 869.335 L365.223 869.335 L365.223 876.684 L359.117 876.684 L359.117 869.335 Z" fill="#000000" fill-rule="nonzero" fill-opacity="1" /><path clip-path="url(#clip980)" d="M378.967 871.765 L388.515 871.765 L388.515 838.808 L378.128 840.891 L378.128 835.567 L388.458 833.484 L394.302 833.484 L394.302 871.765 L403.851 871.765 L403.851 876.684 L378.967 876.684 L378.967 871.765 Z" fill="#000000" fill-rule="nonzero" fill-opacity="1" /><path clip-path="url(#clip980)" d="M428.156 837.332 Q423.643 837.332 421.357 841.788 Q419.1 846.215 419.1 855.127 Q419.1 864.011 421.357 868.467 Q423.643 872.894 428.156 872.894 Q432.699 872.894 434.956 868.467 Q437.242 864.011 437.242 855.127 Q437.242 846.215 434.956 841.788 Q432.699 837.332 428.156 837.332 M428.156 832.703 Q435.419 832.703 439.239 838.461 Q443.087 844.19 443.087 855.127 Q443.087 866.036 439.239 871.794 Q435.419 877.523 428.156 877.523 Q420.894 877.523 417.045 871.794 Q413.226 866.036 413.226 855.127 Q413.226 844.19 417.045 838.461 Q420.894 832.703 428.156 832.703 Z" fill="#000000" fill-rule="nonzero" fill-opacity="1" /><path clip-path="url(#clip980)" d="M335.159 644.219 Q330.645 644.219 328.36 648.675 Q326.103 653.102 326.103 662.014 Q326.103 670.897 328.36 675.353 Q330.645 679.78 335.159 679.78 Q339.702 679.78 341.959 675.353 Q344.245 670.897 344.245 662.014 Q344.245 653.102 341.959 648.675 Q339.702 644.219 335.159 644.219 M335.159 639.589 Q342.422 639.589 346.241 645.347 Q350.09 651.076 350.09 662.014 Q350.09 672.922 346.241 678.68 Q342.422 684.409 335.159 684.409 Q327.897 684.409 324.048 678.68 Q320.229 672.922 320.229 662.014 Q320.229 651.076 324.048 645.347 Q327.897 639.589 335.159 639.589 Z" fill="#000000" fill-rule="nonzero" fill-opacity="1" /><path clip-path="url(#clip980)" d="M360.362 676.221 L366.467 676.221 L366.467 683.57 L360.362 683.57 L360.362 676.221 Z" fill="#000000" fill-rule="nonzero" fill-opacity="1" /><path clip-path="url(#clip980)" d="M380.211 678.651 L389.76 678.651 L389.76 645.694 L379.372 647.778 L379.372 642.454 L389.702 640.37 L395.547 640.37 L395.547 678.651 L405.095 678.651 L405.095 683.57 L380.211 683.57 L380.211 678.651 Z" fill="#000000" fill-rule="nonzero" fill-opacity="1" /><path clip-path="url(#clip980)" d="M416.959 640.37 L439.904 640.37 L439.904 645.289 L422.312 645.289 L422.312 655.88 Q423.585 655.446 424.858 655.243 Q426.131 655.011 427.404 655.011 Q434.638 655.011 438.862 658.976 Q443.087 662.94 443.087 669.71 Q443.087 676.684 438.747 680.561 Q434.406 684.409 426.507 684.409 Q423.787 684.409 420.952 683.947 Q418.145 683.484 415.136 682.558 L415.136 676.684 Q417.74 678.102 420.518 678.796 Q423.295 679.491 426.391 679.491 Q431.397 679.491 434.32 676.857 Q437.242 674.224 437.242 669.71 Q437.242 665.197 434.32 662.564 Q431.397 659.93 426.391 659.93 Q424.048 659.93 421.704 660.451 Q419.389 660.972 416.959 662.072 L416.959 640.37 Z" fill="#000000" fill-rule="nonzero" fill-opacity="1" /><path clip-path="url(#clip980)" d="M333.915 451.105 Q329.401 451.105 327.115 455.561 Q324.858 459.988 324.858 468.9 Q324.858 477.783 327.115 482.239 Q329.401 486.666 333.915 486.666 Q338.458 486.666 340.715 482.239 Q343.001 477.783 343.001 468.9 Q343.001 459.988 340.715 455.561 Q338.458 451.105 333.915 451.105 M333.915 446.475 Q341.178 446.475 344.997 452.233 Q348.846 457.963 348.846 468.9 Q348.846 479.809 344.997 485.567 Q341.178 491.296 333.915 491.296 Q326.652 491.296 322.804 485.567 Q318.985 479.809 318.985 468.9 Q318.985 457.963 322.804 452.233 Q326.652 446.475 333.915 446.475 Z" fill="#000000" fill-rule="nonzero" fill-opacity="1" /><path clip-path="url(#clip980)" d="M359.117 483.107 L365.223 483.107 L365.223 490.457 L359.117 490.457 L359.117 483.107 Z" fill="#000000" fill-rule="nonzero" fill-opacity="1" /><path clip-path="url(#clip980)" d="M382.989 485.538 L403.388 485.538 L403.388 490.457 L375.958 490.457 L375.958 485.538 Q379.285 482.094 385.014 476.307 Q390.772 470.491 392.248 468.813 Q395.055 465.659 396.154 463.489 Q397.283 461.29 397.283 459.178 Q397.283 455.735 394.852 453.564 Q392.451 451.394 388.573 451.394 Q385.824 451.394 382.757 452.349 Q379.719 453.304 376.247 455.243 L376.247 449.34 Q379.777 447.922 382.844 447.199 Q385.911 446.475 388.458 446.475 Q395.171 446.475 399.164 449.832 Q403.157 453.188 403.157 458.802 Q403.157 461.464 402.144 463.865 Q401.16 466.238 398.527 469.479 Q397.804 470.318 393.926 474.34 Q390.049 478.333 382.989 485.538 Z" fill="#000000" fill-rule="nonzero" fill-opacity="1" /><path clip-path="url(#clip980)" d="M428.156 451.105 Q423.643 451.105 421.357 455.561 Q419.1 459.988 419.1 468.9 Q419.1 477.783 421.357 482.239 Q423.643 486.666 428.156 486.666 Q432.699 486.666 434.956 482.239 Q437.242 477.783 437.242 468.9 Q437.242 459.988 434.956 455.561 Q432.699 451.105 428.156 451.105 M428.156 446.475 Q435.419 446.475 439.239 452.233 Q443.087 457.963 443.087 468.9 Q443.087 479.809 439.239 485.567 Q435.419 491.296 428.156 491.296 Q420.894 491.296 417.045 485.567 Q413.226 479.809 413.226 468.9 Q413.226 457.963 417.045 452.233 Q420.894 446.475 428.156 446.475 Z" fill="#000000" fill-rule="nonzero" fill-opacity="1" /><path clip-path="url(#clip980)" d="M335.159 257.991 Q330.645 257.991 328.36 262.447 Q326.103 266.874 326.103 275.786 Q326.103 284.669 328.36 289.125 Q330.645 293.552 335.159 293.552 Q339.702 293.552 341.959 289.125 Q344.245 284.669 344.245 275.786 Q344.245 266.874 341.959 262.447 Q339.702 257.991 335.159 257.991 M335.159 253.362 Q342.422 253.362 346.241 259.12 Q350.09 264.849 350.09 275.786 Q350.09 286.695 346.241 292.453 Q342.422 298.182 335.159 298.182 Q327.897 298.182 324.048 292.453 Q320.229 286.695 320.229 275.786 Q320.229 264.849 324.048 259.12 Q327.897 253.362 335.159 253.362 Z" fill="#000000" fill-rule="nonzero" fill-opacity="1" /><path clip-path="url(#clip980)" d="M360.362 289.993 L366.467 289.993 L366.467 297.343 L360.362 297.343 L360.362 289.993 Z" fill="#000000" fill-rule="nonzero" fill-opacity="1" /><path clip-path="url(#clip980)" d="M384.233 292.424 L404.632 292.424 L404.632 297.343 L377.202 297.343 L377.202 292.424 Q380.529 288.981 386.259 283.194 Q392.017 277.378 393.492 275.7 Q396.299 272.546 397.398 270.375 Q398.527 268.176 398.527 266.064 Q398.527 262.621 396.096 260.451 Q393.695 258.281 389.818 258.281 Q387.069 258.281 384.002 259.236 Q380.963 260.19 377.491 262.129 L377.491 256.226 Q381.021 254.808 384.088 254.085 Q387.155 253.362 389.702 253.362 Q396.415 253.362 400.408 256.718 Q404.401 260.075 404.401 265.688 Q404.401 268.35 403.388 270.752 Q402.404 273.124 399.771 276.365 Q399.048 277.204 395.171 281.226 Q391.293 285.219 384.233 292.424 Z" fill="#000000" fill-rule="nonzero" fill-opacity="1" /><path clip-path="url(#clip980)" d="M416.959 254.143 L439.904 254.143 L439.904 259.062 L422.312 259.062 L422.312 269.652 Q423.585 269.218 424.858 269.016 Q426.131 268.784 427.404 268.784 Q434.638 268.784 438.862 272.748 Q443.087 276.712 443.087 283.483 Q443.087 290.456 438.747 294.334 Q434.406 298.182 426.507 298.182 Q423.787 298.182 420.952 297.719 Q418.145 297.256 415.136 296.33 L415.136 290.456 Q417.74 291.874 420.518 292.569 Q423.295 293.263 426.391 293.263 Q431.397 293.263 434.32 290.63 Q437.242 287.997 437.242 283.483 Q437.242 278.969 434.32 276.336 Q431.397 273.703 426.391 273.703 Q424.048 273.703 421.704 274.224 Q419.389 274.745 416.959 275.844 L416.959 254.143 Z" fill="#000000" fill-rule="nonzero" fill-opacity="1" /><path clip-path="url(#clip980)" d="M222.768 1106.19 L229.038 1106.19 Q227.288 1109.85 226.428 1113.1 Q225.569 1116.35 225.569 1119.37 Q225.569 1124.62 227.606 1127.49 Q229.643 1130.32 233.399 1130.32 Q236.55 1130.32 238.173 1128.44 Q239.765 1126.53 240.751 1121.25 L241.547 1117.36 Q242.916 1110.17 246.385 1106.77 Q249.822 1103.33 255.615 1103.33 Q262.522 1103.33 266.087 1107.98 Q269.652 1112.59 269.652 1121.53 Q269.652 1124.91 268.888 1128.73 Q268.124 1132.51 266.628 1136.59 L260.008 1136.59 Q262.204 1132.67 263.318 1128.92 Q264.432 1125.16 264.432 1121.53 Q264.432 1116.03 262.267 1113.04 Q260.103 1110.04 256.093 1110.04 Q252.592 1110.04 250.618 1112.21 Q248.645 1114.34 247.658 1119.24 L246.894 1123.16 Q245.462 1130.35 242.406 1133.57 Q239.351 1136.78 233.908 1136.78 Q227.606 1136.78 223.978 1132.36 Q220.349 1127.9 220.349 1120.1 Q220.349 1116.76 220.954 1113.29 Q221.559 1109.82 222.768 1106.19 Z" fill="#000000" fill-rule="nonzero" fill-opacity="1" /><path clip-path="url(#clip980)" d="M222.959 1087.76 L233.081 1087.76 L233.081 1075.7 L237.632 1075.7 L237.632 1087.76 L256.984 1087.76 Q261.344 1087.76 262.586 1086.59 Q263.827 1085.38 263.827 1081.72 L263.827 1075.7 L268.729 1075.7 L268.729 1081.72 Q268.729 1088.5 266.214 1091.07 Q263.668 1093.65 256.984 1093.65 L237.632 1093.65 L237.632 1097.95 L233.081 1097.95 L233.081 1093.65 L222.959 1093.65 L222.959 1087.76 Z" fill="#000000" fill-rule="nonzero" fill-opacity="1" /><path clip-path="url(#clip980)" d="M250.809 1051.8 Q250.809 1058.9 252.432 1061.63 Q254.056 1064.37 257.971 1064.37 Q261.09 1064.37 262.936 1062.33 Q264.75 1060.26 264.75 1056.73 Q264.75 1051.86 261.313 1048.93 Q257.843 1045.97 252.114 1045.97 L250.809 1045.97 L250.809 1051.8 M248.39 1040.12 L268.729 1040.12 L268.729 1045.97 L263.318 1045.97 Q266.564 1047.98 268.124 1050.97 Q269.652 1053.96 269.652 1058.29 Q269.652 1063.77 266.596 1067.01 Q263.509 1070.23 258.352 1070.23 Q252.337 1070.23 249.281 1066.22 Q246.226 1062.17 246.226 1054.18 L246.226 1045.97 L245.653 1045.97 Q241.611 1045.97 239.414 1048.65 Q237.186 1051.29 237.186 1056.09 Q237.186 1059.15 237.919 1062.05 Q238.651 1064.94 240.115 1067.62 L234.704 1067.62 Q233.463 1064.4 232.858 1061.38 Q232.221 1058.35 232.221 1055.49 Q232.221 1047.76 236.232 1043.94 Q240.242 1040.12 248.39 1040.12 Z" fill="#000000" fill-rule="nonzero" fill-opacity="1" /><path clip-path="url(#clip980)" d="M222.959 1022.26 L233.081 1022.26 L233.081 1010.2 L237.632 1010.2 L237.632 1022.26 L256.984 1022.26 Q261.344 1022.26 262.586 1021.08 Q263.827 1019.87 263.827 1016.21 L263.827 1010.2 L268.729 1010.2 L268.729 1016.21 Q268.729 1022.99 266.214 1025.57 Q263.668 1028.15 256.984 1028.15 L237.632 1028.15 L237.632 1032.45 L233.081 1032.45 L233.081 1028.15 L222.959 1028.15 L222.959 1022.26 Z" fill="#000000" fill-rule="nonzero" fill-opacity="1" /><path clip-path="url(#clip980)" d="M233.081 1002.5 L233.081 996.639 L268.729 996.639 L268.729 1002.5 L233.081 1002.5 M219.203 1002.5 L219.203 996.639 L226.619 996.639 L226.619 1002.5 L219.203 1002.5 Z" fill="#000000" fill-rule="nonzero" fill-opacity="1" /><path clip-path="url(#clip980)" d="M237.186 970.571 Q237.186 975.282 240.879 978.019 Q244.539 980.756 250.936 980.756 Q257.334 980.756 261.026 978.051 Q264.686 975.314 264.686 970.571 Q264.686 965.893 260.994 963.155 Q257.302 960.418 250.936 960.418 Q244.603 960.418 240.91 963.155 Q237.186 965.893 237.186 970.571 M232.221 970.571 Q232.221 962.932 237.186 958.572 Q242.152 954.211 250.936 954.211 Q259.689 954.211 264.686 958.572 Q269.652 962.932 269.652 970.571 Q269.652 978.242 264.686 982.603 Q259.689 986.931 250.936 986.931 Q242.152 986.931 237.186 982.603 Q232.221 978.242 232.221 970.571 Z" fill="#000000" fill-rule="nonzero" fill-opacity="1" /><path clip-path="url(#clip980)" d="M247.212 914.871 L268.729 914.871 L268.729 920.728 L247.403 920.728 Q242.343 920.728 239.828 922.701 Q237.314 924.675 237.314 928.621 Q237.314 933.364 240.338 936.101 Q243.361 938.838 248.581 938.838 L268.729 938.838 L268.729 944.727 L233.081 944.727 L233.081 938.838 L238.619 938.838 Q235.404 936.738 233.813 933.905 Q232.221 931.04 232.221 927.316 Q232.221 921.173 236.041 918.022 Q239.828 914.871 247.212 914.871 Z" fill="#000000" fill-rule="nonzero" fill-opacity="1" /><path clip-path="url(#clip980)" d="M250.809 886.99 Q250.809 894.087 252.432 896.825 Q254.056 899.562 257.971 899.562 Q261.09 899.562 262.936 897.525 Q264.75 895.456 264.75 891.923 Q264.75 887.053 261.313 884.125 Q257.843 881.165 252.114 881.165 L250.809 881.165 L250.809 886.99 M248.39 875.309 L268.729 875.309 L268.729 881.165 L263.318 881.165 Q266.564 883.17 268.124 886.162 Q269.652 889.154 269.652 893.483 Q269.652 898.957 266.596 902.204 Q263.509 905.418 258.352 905.418 Q252.337 905.418 249.281 901.408 Q246.226 897.366 246.226 889.377 L246.226 881.165 L245.653 881.165 Q241.611 881.165 239.414 883.839 Q237.186 886.48 237.186 891.286 Q237.186 894.342 237.919 897.238 Q238.651 900.135 240.115 902.808 L234.704 902.808 Q233.463 899.594 232.858 896.57 Q232.221 893.546 232.221 890.682 Q232.221 882.947 236.232 879.128 Q240.242 875.309 248.39 875.309 Z" fill="#000000" fill-rule="nonzero" fill-opacity="1" /><path clip-path="url(#clip980)" d="M238.555 842.589 Q237.982 843.575 237.728 844.753 Q237.441 845.899 237.441 847.299 Q237.441 852.265 240.688 854.938 Q243.902 857.58 249.95 857.58 L268.729 857.58 L268.729 863.468 L233.081 863.468 L233.081 857.58 L238.619 857.58 Q235.372 855.734 233.813 852.774 Q232.221 849.814 232.221 845.581 Q232.221 844.976 232.317 844.244 Q232.38 843.512 232.54 842.621 L238.555 842.589 Z" fill="#000000" fill-rule="nonzero" fill-opacity="1" /><path clip-path="url(#clip980)" d="M272.039 821.614 Q278.404 824.096 280.346 826.452 Q282.288 828.807 282.288 832.754 L282.288 837.433 L277.386 837.433 L277.386 833.995 Q277.386 831.576 276.24 830.239 Q275.094 828.903 270.829 827.279 L268.156 826.229 L233.081 840.647 L233.081 834.441 L260.962 823.301 L233.081 812.161 L233.081 805.954 L272.039 821.614 Z" fill="#000000" fill-rule="nonzero" fill-opacity="1" /><path clip-path="url(#clip980)" d="M263.381 771.484 L282.288 771.484 L282.288 777.372 L233.081 777.372 L233.081 771.484 L238.491 771.484 Q235.309 769.638 233.781 766.837 Q232.221 764.004 232.221 760.089 Q232.221 753.596 237.377 749.554 Q242.534 745.48 250.936 745.48 Q259.339 745.48 264.495 749.554 Q269.652 753.596 269.652 760.089 Q269.652 764.004 268.124 766.837 Q266.564 769.638 263.381 771.484 M250.936 751.559 Q244.475 751.559 240.815 754.233 Q237.123 756.875 237.123 761.522 Q237.123 766.168 240.815 768.842 Q244.475 771.484 250.936 771.484 Q257.398 771.484 261.09 768.842 Q264.75 766.168 264.75 761.522 Q264.75 756.875 261.09 754.233 Q257.398 751.559 250.936 751.559 Z" fill="#000000" fill-rule="nonzero" fill-opacity="1" /><path clip-path="url(#clip980)" d="M238.555 715.116 Q237.982 716.102 237.728 717.28 Q237.441 718.426 237.441 719.826 Q237.441 724.791 240.688 727.465 Q243.902 730.107 249.95 730.107 L268.729 730.107 L268.729 735.995 L233.081 735.995 L233.081 730.107 L238.619 730.107 Q235.372 728.261 233.813 725.301 Q232.221 722.341 232.221 718.107 Q232.221 717.503 232.317 716.771 Q232.38 716.039 232.54 715.147 L238.555 715.116 Z" fill="#000000" fill-rule="nonzero" fill-opacity="1" /><path clip-path="url(#clip980)" d="M237.186 696.591 Q237.186 701.302 240.879 704.039 Q244.539 706.776 250.936 706.776 Q257.334 706.776 261.026 704.071 Q264.686 701.334 264.686 696.591 Q264.686 691.913 260.994 689.175 Q257.302 686.438 250.936 686.438 Q244.603 686.438 240.91 689.175 Q237.186 691.913 237.186 696.591 M232.221 696.591 Q232.221 688.952 237.186 684.592 Q242.152 680.231 250.936 680.231 Q259.689 680.231 264.686 684.592 Q269.652 688.952 269.652 696.591 Q269.652 704.262 264.686 708.622 Q259.689 712.951 250.936 712.951 Q242.152 712.951 237.186 708.622 Q232.221 704.262 232.221 696.591 Z" fill="#000000" fill-rule="nonzero" fill-opacity="1" /><path clip-path="url(#clip980)" d="M250.936 644.934 Q244.475 644.934 240.815 647.607 Q237.123 650.249 237.123 654.896 Q237.123 659.543 240.815 662.216 Q244.475 664.858 250.936 664.858 Q257.398 664.858 261.09 662.216 Q264.75 659.543 264.75 654.896 Q264.75 650.249 261.09 647.607 Q257.398 644.934 250.936 644.934 M238.491 664.858 Q235.309 663.012 233.781 660.211 Q232.221 657.379 232.221 653.464 Q232.221 646.971 237.377 642.928 Q242.534 638.854 250.936 638.854 Q259.339 638.854 264.495 642.928 Q269.652 646.971 269.652 653.464 Q269.652 657.379 268.124 660.211 Q266.564 663.012 263.381 664.858 L268.729 664.858 L268.729 670.747 L219.203 670.747 L219.203 664.858 L238.491 664.858 Z" fill="#000000" fill-rule="nonzero" fill-opacity="1" /><path clip-path="url(#clip980)" d="M250.809 612.946 Q250.809 620.044 252.432 622.781 Q254.056 625.518 257.971 625.518 Q261.09 625.518 262.936 623.481 Q264.75 621.412 264.75 617.879 Q264.75 613.01 261.313 610.081 Q257.843 607.121 252.114 607.121 L250.809 607.121 L250.809 612.946 M248.39 601.265 L268.729 601.265 L268.729 607.121 L263.318 607.121 Q266.564 609.126 268.124 612.118 Q269.652 615.11 269.652 619.439 Q269.652 624.913 266.596 628.16 Q263.509 631.375 258.352 631.375 Q252.337 631.375 249.281 627.364 Q246.226 623.322 246.226 615.333 L246.226 607.121 L245.653 607.121 Q241.611 607.121 239.414 609.795 Q237.186 612.437 237.186 617.243 Q237.186 620.298 237.919 623.195 Q238.651 626.091 240.115 628.765 L234.704 628.765 Q233.463 625.55 232.858 622.526 Q232.221 619.503 232.221 616.638 Q232.221 608.904 236.232 605.084 Q240.242 601.265 248.39 601.265 Z" fill="#000000" fill-rule="nonzero" fill-opacity="1" /><path clip-path="url(#clip980)" d="M250.936 563.612 Q244.475 563.612 240.815 566.285 Q237.123 568.927 237.123 573.574 Q237.123 578.221 240.815 580.895 Q244.475 583.536 250.936 583.536 Q257.398 583.536 261.09 580.895 Q264.75 578.221 264.75 573.574 Q264.75 568.927 261.09 566.285 Q257.398 563.612 250.936 563.612 M238.491 583.536 Q235.309 581.69 233.781 578.889 Q232.221 576.057 232.221 572.142 Q232.221 565.649 237.377 561.606 Q242.534 557.532 250.936 557.532 Q259.339 557.532 264.495 561.606 Q269.652 565.649 269.652 572.142 Q269.652 576.057 268.124 578.889 Q266.564 581.69 263.381 583.536 L268.729 583.536 L268.729 589.425 L219.203 589.425 L219.203 583.536 L238.491 583.536 Z" fill="#000000" fill-rule="nonzero" fill-opacity="1" /><path clip-path="url(#clip980)" d="M233.081 547.825 L233.081 541.968 L268.729 541.968 L268.729 547.825 L233.081 547.825 M219.203 547.825 L219.203 541.968 L226.619 541.968 L226.619 547.825 L219.203 547.825 Z" fill="#000000" fill-rule="nonzero" fill-opacity="1" /><path clip-path="url(#clip980)" d="M219.203 529.714 L219.203 523.858 L268.729 523.858 L268.729 529.714 L219.203 529.714 Z" fill="#000000" fill-rule="nonzero" fill-opacity="1" /><path clip-path="url(#clip980)" d="M233.081 511.604 L233.081 505.747 L268.729 505.747 L268.729 511.604 L233.081 511.604 M219.203 511.604 L219.203 505.747 L226.619 505.747 L226.619 511.604 L219.203 511.604 Z" fill="#000000" fill-rule="nonzero" fill-opacity="1" /><path clip-path="url(#clip980)" d="M222.959 487.701 L233.081 487.701 L233.081 475.638 L237.632 475.638 L237.632 487.701 L256.984 487.701 Q261.344 487.701 262.586 486.523 Q263.827 485.314 263.827 481.653 L263.827 475.638 L268.729 475.638 L268.729 481.653 Q268.729 488.433 266.214 491.011 Q263.668 493.589 256.984 493.589 L237.632 493.589 L237.632 497.886 L233.081 497.886 L233.081 493.589 L222.959 493.589 L222.959 487.701 Z" fill="#000000" fill-rule="nonzero" fill-opacity="1" /><path clip-path="url(#clip980)" d="M272.039 453.103 Q278.404 455.586 280.346 457.941 Q282.288 460.296 282.288 464.243 L282.288 468.922 L277.386 468.922 L277.386 465.484 Q277.386 463.065 276.24 461.729 Q275.094 460.392 270.829 458.769 L268.156 457.718 L233.081 472.136 L233.081 465.93 L260.962 454.79 L233.081 443.65 L233.081 437.443 L272.039 453.103 Z" fill="#000000" fill-rule="nonzero" fill-opacity="1" /><path clip-path="url(#clip980)" d="M263.381 402.973 L282.288 402.973 L282.288 408.861 L233.081 408.861 L233.081 402.973 L238.491 402.973 Q235.309 401.127 233.781 398.326 Q232.221 395.493 232.221 391.578 Q232.221 385.085 237.377 381.043 Q242.534 376.969 250.936 376.969 Q259.339 376.969 264.495 381.043 Q269.652 385.085 269.652 391.578 Q269.652 395.493 268.124 398.326 Q266.564 401.127 263.381 402.973 M250.936 383.048 Q244.475 383.048 240.815 385.722 Q237.123 388.364 237.123 393.011 Q237.123 397.658 240.815 400.331 Q244.475 402.973 250.936 402.973 Q257.398 402.973 261.09 400.331 Q264.75 397.658 264.75 393.011 Q264.75 388.364 261.09 385.722 Q257.398 383.048 250.936 383.048 Z" fill="#000000" fill-rule="nonzero" fill-opacity="1" /><path clip-path="url(#clip980)" d="M233.081 367.261 L233.081 361.405 L268.729 361.405 L268.729 367.261 L233.081 367.261 M219.203 367.261 L219.203 361.405 L226.619 361.405 L226.619 367.261 L219.203 367.261 Z" fill="#000000" fill-rule="nonzero" fill-opacity="1" /><path clip-path="url(#clip980)" d="M279.55 322.065 L284.102 322.065 L284.102 355.931 L279.55 355.931 L279.55 322.065 Z" fill="#000000" fill-rule="nonzero" fill-opacity="1" /><path clip-path="url(#clip980)" d="M219.203 316.781 L219.203 310.893 L248.454 310.893 L233.081 293.419 L233.081 285.94 L249.759 304.846 L268.729 285.144 L268.729 292.783 L251.318 310.893 L268.729 310.893 L268.729 316.781 L219.203 316.781 Z" fill="#000000" fill-rule="nonzero" fill-opacity="1" /><path clip-path="url(#clip980)" d="M400.033 9.05203 L400.033 14.1822 Q397.038 12.7499 394.382 12.0468 Q391.726 11.3437 389.252 11.3437 Q384.955 11.3437 382.611 13.0103 Q380.294 14.677 380.294 17.7499 Q380.294 20.328 381.83 21.6561 Q383.393 22.9582 387.715 23.7655 L390.893 24.4165 Q396.778 25.5363 399.564 28.3748 Q402.377 31.1873 402.377 35.9269 Q402.377 41.5779 398.575 44.4946 Q394.799 47.4112 387.481 47.4112 Q384.721 47.4112 381.596 46.7862 Q378.497 46.1612 375.163 44.9373 L375.163 39.5206 Q378.367 41.3175 381.439 42.2289 Q384.512 43.1404 387.481 43.1404 Q391.986 43.1404 394.434 41.3696 Q396.882 39.5987 396.882 36.3175 Q396.882 33.4529 395.111 31.8384 Q393.366 30.2238 389.356 29.4165 L386.153 28.7915 Q380.268 27.6196 377.637 25.1197 Q375.007 22.6197 375.007 18.1666 Q375.007 13.0103 378.627 10.0416 Q382.273 7.07288 388.653 7.07288 Q391.387 7.07288 394.226 7.56767 Q397.064 8.06246 400.033 9.05203 Z" fill="#000000" fill-rule="nonzero" fill-opacity="1" /><path clip-path="url(#clip980)" d="M415.111 9.20828 L415.111 17.4895 L424.981 17.4895 L424.981 21.2134 L415.111 21.2134 L415.111 37.0467 Q415.111 40.6144 416.075 41.63 Q417.064 42.6456 420.059 42.6456 L424.981 42.6456 L424.981 46.656 L420.059 46.656 Q414.512 46.656 412.403 44.5987 Q410.293 42.5154 410.293 37.0467 L410.293 21.2134 L406.778 21.2134 L406.778 17.4895 L410.293 17.4895 L410.293 9.20828 L415.111 9.20828 Z" fill="#000000" fill-rule="nonzero" fill-opacity="1" /><path clip-path="url(#clip980)" d="M444.538 31.9946 Q438.731 31.9946 436.491 33.3227 Q434.252 34.6509 434.252 37.854 Q434.252 40.406 435.918 41.9164 Q437.611 43.4008 440.502 43.4008 Q444.486 43.4008 446.882 40.5883 Q449.304 37.7498 449.304 33.0623 L449.304 31.9946 L444.538 31.9946 M454.095 30.0155 L454.095 46.656 L449.304 46.656 L449.304 42.2289 Q447.663 44.8852 445.215 46.1612 Q442.767 47.4112 439.226 47.4112 Q434.746 47.4112 432.09 44.9112 Q429.46 42.3852 429.46 38.1665 Q429.46 33.2446 432.741 30.7446 Q436.049 28.2446 442.585 28.2446 L449.304 28.2446 L449.304 27.7759 Q449.304 24.4686 447.116 22.6718 Q444.955 20.8488 441.022 20.8488 Q438.523 20.8488 436.153 21.4478 Q433.783 22.0468 431.595 23.2447 L431.595 18.8176 Q434.226 17.802 436.7 17.3072 Q439.174 16.7864 441.517 16.7864 Q447.845 16.7864 450.97 20.0676 Q454.095 23.3488 454.095 30.0155 Z" fill="#000000" fill-rule="nonzero" fill-opacity="1" /><path clip-path="url(#clip980)" d="M468.705 9.20828 L468.705 17.4895 L478.574 17.4895 L478.574 21.2134 L468.705 21.2134 L468.705 37.0467 Q468.705 40.6144 469.668 41.63 Q470.658 42.6456 473.653 42.6456 L478.574 42.6456 L478.574 46.656 L473.653 46.656 Q468.106 46.656 465.996 44.5987 Q463.887 42.5154 463.887 37.0467 L463.887 21.2134 L460.371 21.2134 L460.371 17.4895 L463.887 17.4895 L463.887 9.20828 L468.705 9.20828 Z" fill="#000000" fill-rule="nonzero" fill-opacity="1" /><path clip-path="url(#clip980)" d="M484.876 17.4895 L489.668 17.4895 L489.668 46.656 L484.876 46.656 L484.876 17.4895 M484.876 6.13538 L489.668 6.13538 L489.668 12.2031 L484.876 12.2031 L484.876 6.13538 Z" fill="#000000" fill-rule="nonzero" fill-opacity="1" /><path clip-path="url(#clip980)" d="M510.996 20.8488 Q507.142 20.8488 504.902 23.8697 Q502.663 26.8644 502.663 32.0988 Q502.663 37.3331 504.876 40.354 Q507.116 43.3487 510.996 43.3487 Q514.824 43.3487 517.064 40.3279 Q519.303 37.3071 519.303 32.0988 Q519.303 26.9165 517.064 23.8957 Q514.824 20.8488 510.996 20.8488 M510.996 16.7864 Q517.246 16.7864 520.814 20.8488 Q524.381 24.9113 524.381 32.0988 Q524.381 39.2602 520.814 43.3487 Q517.246 47.4112 510.996 47.4112 Q504.72 47.4112 501.152 43.3487 Q497.611 39.2602 497.611 32.0988 Q497.611 24.9113 501.152 20.8488 Q504.72 16.7864 510.996 16.7864 Z" fill="#000000" fill-rule="nonzero" fill-opacity="1" /><path clip-path="url(#clip980)" d="M556.569 29.0519 L556.569 46.656 L551.777 46.656 L551.777 29.2082 Q551.777 25.0676 550.163 23.0103 Q548.548 20.953 545.319 20.953 Q541.439 20.953 539.199 23.427 Q536.959 25.9009 536.959 30.1717 L536.959 46.656 L532.142 46.656 L532.142 17.4895 L536.959 17.4895 L536.959 22.0207 Q538.678 19.3905 540.996 18.0884 Q543.34 16.7864 546.387 16.7864 Q551.413 16.7864 553.991 19.9114 Q556.569 23.0103 556.569 29.0519 Z" fill="#000000" fill-rule="nonzero" fill-opacity="1" /><path clip-path="url(#clip980)" d="M579.381 31.9946 Q573.574 31.9946 571.334 33.3227 Q569.095 34.6509 569.095 37.854 Q569.095 40.406 570.761 41.9164 Q572.454 43.4008 575.345 43.4008 Q579.329 43.4008 581.725 40.5883 Q584.147 37.7498 584.147 33.0623 L584.147 31.9946 L579.381 31.9946 M588.938 30.0155 L588.938 46.656 L584.147 46.656 L584.147 42.2289 Q582.506 44.8852 580.058 46.1612 Q577.61 47.4112 574.069 47.4112 Q569.59 47.4112 566.933 44.9112 Q564.303 42.3852 564.303 38.1665 Q564.303 33.2446 567.584 30.7446 Q570.892 28.2446 577.428 28.2446 L584.147 28.2446 L584.147 27.7759 Q584.147 24.4686 581.959 22.6718 Q579.798 20.8488 575.866 20.8488 Q573.366 20.8488 570.996 21.4478 Q568.626 22.0468 566.438 23.2447 L566.438 18.8176 Q569.069 17.802 571.543 17.3072 Q574.017 16.7864 576.36 16.7864 Q582.688 16.7864 585.813 20.0676 Q588.938 23.3488 588.938 30.0155 Z" fill="#000000" fill-rule="nonzero" fill-opacity="1" /><path clip-path="url(#clip980)" d="M615.709 21.9686 Q614.902 21.4999 613.938 21.2916 Q613.001 21.0572 611.855 21.0572 Q607.792 21.0572 605.605 23.7134 Q603.443 26.3436 603.443 31.2915 L603.443 46.656 L598.626 46.656 L598.626 17.4895 L603.443 17.4895 L603.443 22.0207 Q604.954 19.3645 607.376 18.0884 Q609.798 16.7864 613.261 16.7864 Q613.756 16.7864 614.355 16.8645 Q614.954 16.9166 615.683 17.0468 L615.709 21.9686 Z" fill="#000000" fill-rule="nonzero" fill-opacity="1" /><path clip-path="url(#clip980)" d="M632.87 49.3643 Q630.839 54.5726 628.912 56.1612 Q626.985 57.7497 623.756 57.7497 L619.928 57.7497 L619.928 53.7393 L622.74 53.7393 Q624.719 53.7393 625.813 52.8018 Q626.907 51.8643 628.235 48.3747 L629.094 46.1873 L617.298 17.4895 L622.376 17.4895 L631.49 40.3019 L640.605 17.4895 L645.683 17.4895 L632.87 49.3643 Z" fill="#000000" fill-rule="nonzero" fill-opacity="1" /><path clip-path="url(#clip980)" d="M688.443 21.9165 L688.443 6.13538 L693.235 6.13538 L693.235 46.656 L688.443 46.656 L688.443 42.281 Q686.933 44.8852 684.615 46.1612 Q682.323 47.4112 679.094 47.4112 Q673.808 47.4112 670.474 43.1925 Q667.167 38.9737 667.167 32.0988 Q667.167 25.2238 670.474 21.0051 Q673.808 16.7864 679.094 16.7864 Q682.323 16.7864 684.615 18.0624 Q686.933 19.3124 688.443 21.9165 M672.115 32.0988 Q672.115 37.3852 674.276 40.406 Q676.464 43.4008 680.266 43.4008 Q684.068 43.4008 686.256 40.406 Q688.443 37.3852 688.443 32.0988 Q688.443 26.8124 686.256 23.8176 Q684.068 20.7968 680.266 20.7968 Q676.464 20.7968 674.276 23.8176 Q672.115 26.8124 672.115 32.0988 Z" fill="#000000" fill-rule="nonzero" fill-opacity="1" /><path clip-path="url(#clip980)" d="M703.104 17.4895 L707.896 17.4895 L707.896 46.656 L703.104 46.656 L703.104 17.4895 M703.104 6.13538 L707.896 6.13538 L707.896 12.2031 L703.104 12.2031 L703.104 6.13538 Z" fill="#000000" fill-rule="nonzero" fill-opacity="1" /><path clip-path="url(#clip980)" d="M736.516 18.3489 L736.516 22.8801 Q734.484 21.8384 732.297 21.3176 Q730.109 20.7968 727.766 20.7968 Q724.198 20.7968 722.401 21.8905 Q720.63 22.9843 720.63 25.1717 Q720.63 26.8384 721.906 27.8019 Q723.182 28.7394 727.037 29.5988 L728.677 29.9634 Q733.781 31.0571 735.917 33.0623 Q738.078 35.0415 738.078 38.6092 Q738.078 42.6716 734.849 45.0414 Q731.646 47.4112 726.021 47.4112 Q723.677 47.4112 721.125 46.9425 Q718.599 46.4998 715.787 45.5883 L715.787 40.6404 Q718.443 42.0206 721.021 42.7237 Q723.599 43.4008 726.125 43.4008 Q729.511 43.4008 731.333 42.255 Q733.156 41.0831 733.156 38.9737 Q733.156 37.0206 731.828 35.979 Q730.526 34.9373 726.073 33.9738 L724.406 33.5832 Q719.953 32.6457 717.974 30.7186 Q715.995 28.7655 715.995 25.3801 Q715.995 21.2655 718.912 19.0259 Q721.828 16.7864 727.193 16.7864 Q729.849 16.7864 732.193 17.177 Q734.537 17.5676 736.516 18.3489 Z" fill="#000000" fill-rule="nonzero" fill-opacity="1" /><path clip-path="url(#clip980)" d="M750.448 9.20828 L750.448 17.4895 L760.318 17.4895 L760.318 21.2134 L750.448 21.2134 L750.448 37.0467 Q750.448 40.6144 751.411 41.63 Q752.401 42.6456 755.396 42.6456 L760.318 42.6456 L760.318 46.656 L755.396 46.656 Q749.849 46.656 747.74 44.5987 Q745.63 42.5154 745.63 37.0467 L745.63 21.2134 L742.115 21.2134 L742.115 17.4895 L745.63 17.4895 L745.63 9.20828 L750.448 9.20828 Z" fill="#000000" fill-rule="nonzero" fill-opacity="1" /><path clip-path="url(#clip980)" d="M783.521 21.9686 Q782.713 21.4999 781.75 21.2916 Q780.812 21.0572 779.667 21.0572 Q775.604 21.0572 773.417 23.7134 Q771.255 26.3436 771.255 31.2915 L771.255 46.656 L766.437 46.656 L766.437 17.4895 L771.255 17.4895 L771.255 22.0207 Q772.766 19.3645 775.187 18.0884 Q777.609 16.7864 781.073 16.7864 Q781.568 16.7864 782.166 16.8645 Q782.765 16.9166 783.495 17.0468 L783.521 21.9686 Z" fill="#000000" fill-rule="nonzero" fill-opacity="1" /><path clip-path="url(#clip980)" d="M788.547 17.4895 L793.338 17.4895 L793.338 46.656 L788.547 46.656 L788.547 17.4895 M788.547 6.13538 L793.338 6.13538 L793.338 12.2031 L788.547 12.2031 L788.547 6.13538 Z" fill="#000000" fill-rule="nonzero" fill-opacity="1" /><path clip-path="url(#clip980)" d="M824.302 32.0988 Q824.302 26.8124 822.114 23.8176 Q819.953 20.7968 816.151 20.7968 Q812.349 20.7968 810.161 23.8176 Q808 26.8124 808 32.0988 Q808 37.3852 810.161 40.406 Q812.349 43.4008 816.151 43.4008 Q819.953 43.4008 822.114 40.406 Q824.302 37.3852 824.302 32.0988 M808 21.9165 Q809.51 19.3124 811.802 18.0624 Q814.119 16.7864 817.323 16.7864 Q822.635 16.7864 825.942 21.0051 Q829.276 25.2238 829.276 32.0988 Q829.276 38.9737 825.942 43.1925 Q822.635 47.4112 817.323 47.4112 Q814.119 47.4112 811.802 46.1612 Q809.51 44.8852 808 42.281 L808 46.656 L803.182 46.656 L803.182 6.13538 L808 6.13538 L808 21.9165 Z" fill="#000000" fill-rule="nonzero" fill-opacity="1" /><path clip-path="url(#clip980)" d="M836.723 35.1456 L836.723 17.4895 L841.515 17.4895 L841.515 34.9634 Q841.515 39.104 843.13 41.1873 Q844.744 43.2446 847.973 43.2446 Q851.854 43.2446 854.093 40.7706 Q856.359 38.2967 856.359 34.0259 L856.359 17.4895 L861.15 17.4895 L861.15 46.656 L856.359 46.656 L856.359 42.1769 Q854.614 44.8331 852.296 46.1352 Q850.005 47.4112 846.958 47.4112 Q841.932 47.4112 839.328 44.2862 Q836.723 41.1612 836.723 35.1456 M848.781 16.7864 L848.781 16.7864 Z" fill="#000000" fill-rule="nonzero" fill-opacity="1" /><path clip-path="url(#clip980)" d="M875.76 9.20828 L875.76 17.4895 L885.629 17.4895 L885.629 21.2134 L875.76 21.2134 L875.76 37.0467 Q875.76 40.6144 876.723 41.63 Q877.713 42.6456 880.708 42.6456 L885.629 42.6456 L885.629 46.656 L880.708 46.656 Q875.161 46.656 873.051 44.5987 Q870.942 42.5154 870.942 37.0467 L870.942 21.2134 L867.426 21.2134 L867.426 17.4895 L870.942 17.4895 L870.942 9.20828 L875.76 9.20828 Z" fill="#000000" fill-rule="nonzero" fill-opacity="1" /><path clip-path="url(#clip980)" d="M891.932 17.4895 L896.723 17.4895 L896.723 46.656 L891.932 46.656 L891.932 17.4895 M891.932 6.13538 L896.723 6.13538 L896.723 12.2031 L891.932 12.2031 L891.932 6.13538 Z" fill="#000000" fill-rule="nonzero" fill-opacity="1" /><path clip-path="url(#clip980)" d="M918.051 20.8488 Q914.197 20.8488 911.957 23.8697 Q909.718 26.8644 909.718 32.0988 Q909.718 37.3331 911.931 40.354 Q914.171 43.3487 918.051 43.3487 Q921.879 43.3487 924.119 40.3279 Q926.358 37.3071 926.358 32.0988 Q926.358 26.9165 924.119 23.8957 Q921.879 20.8488 918.051 20.8488 M918.051 16.7864 Q924.301 16.7864 927.869 20.8488 Q931.437 24.9113 931.437 32.0988 Q931.437 39.2602 927.869 43.3487 Q924.301 47.4112 918.051 47.4112 Q911.775 47.4112 908.207 43.3487 Q904.666 39.2602 904.666 32.0988 Q904.666 24.9113 908.207 20.8488 Q911.775 16.7864 918.051 16.7864 Z" fill="#000000" fill-rule="nonzero" fill-opacity="1" /><path clip-path="url(#clip980)" d="M963.624 29.0519 L963.624 46.656 L958.832 46.656 L958.832 29.2082 Q958.832 25.0676 957.218 23.0103 Q955.603 20.953 952.374 20.953 Q948.494 20.953 946.254 23.427 Q944.015 25.9009 944.015 30.1717 L944.015 46.656 L939.197 46.656 L939.197 17.4895 L944.015 17.4895 L944.015 22.0207 Q945.733 19.3905 948.051 18.0884 Q950.395 16.7864 953.442 16.7864 Q958.468 16.7864 961.046 19.9114 Q963.624 23.0103 963.624 29.0519 Z" fill="#000000" fill-rule="nonzero" fill-opacity="1" /><path clip-path="url(#clip980)" d="M994.77 42.281 L994.77 57.7497 L989.952 57.7497 L989.952 17.4895 L994.77 17.4895 L994.77 21.9165 Q996.28 19.3124 998.572 18.0624 Q1000.89 16.7864 1004.09 16.7864 Q1009.4 16.7864 1012.71 21.0051 Q1016.05 25.2238 1016.05 32.0988 Q1016.05 38.9737 1012.71 43.1925 Q1009.4 47.4112 1004.09 47.4112 Q1000.89 47.4112 998.572 46.1612 Q996.28 44.8852 994.77 42.281 M1011.07 32.0988 Q1011.07 26.8124 1008.88 23.8176 Q1006.72 20.7968 1002.92 20.7968 Q999.118 20.7968 996.931 23.8176 Q994.77 26.8124 994.77 32.0988 Q994.77 37.3852 996.931 40.406 Q999.118 43.4008 1002.92 43.4008 Q1006.72 43.4008 1008.88 40.406 Q1011.07 37.3852 1011.07 32.0988 Z" fill="#000000" fill-rule="nonzero" fill-opacity="1" /><path clip-path="url(#clip980)" d="M1023.99 17.4895 L1028.78 17.4895 L1028.78 46.656 L1023.99 46.656 L1023.99 17.4895 M1023.99 6.13538 L1028.78 6.13538 L1028.78 12.2031 L1023.99 12.2031 L1023.99 6.13538 Z" fill="#000000" fill-rule="nonzero" fill-opacity="1" /><path clip-path="url(#clip980)" d="M1067.27 6.18747 Q1063.78 12.177 1062.09 18.0364 Q1060.39 23.8957 1060.39 29.9113 Q1060.39 35.9269 1062.09 41.8383 Q1063.81 47.7237 1067.27 53.6872 L1063.1 53.6872 Q1059.2 47.5675 1057.24 41.656 Q1055.32 35.7446 1055.32 29.9113 Q1055.32 24.104 1057.24 18.2187 Q1059.17 12.3333 1063.1 6.18747 L1067.27 6.18747 Z" fill="#000000" fill-rule="nonzero" fill-opacity="1" /><path clip-path="url(#clip980)" d="M1077.19 22.4374 L1110.58 22.4374 L1110.58 26.8124 L1077.19 26.8124 L1077.19 22.4374 M1077.19 33.0623 L1110.58 33.0623 L1110.58 37.4894 L1077.19 37.4894 L1077.19 33.0623 Z" fill="#000000" fill-rule="nonzero" fill-opacity="1" /><path clip-path="url(#clip980)" d="M1138.21 6.13538 L1143 6.13538 L1143 46.656 L1138.21 46.656 L1138.21 6.13538 Z" fill="#000000" fill-rule="nonzero" fill-opacity="1" /><path clip-path="url(#clip980)" d="M1177.97 30.8748 L1177.97 33.2186 L1155.94 33.2186 Q1156.25 38.1665 1158.91 40.7706 Q1161.59 43.3487 1166.36 43.3487 Q1169.12 43.3487 1171.7 42.6716 Q1174.3 41.9946 1176.85 40.6404 L1176.85 45.1716 Q1174.27 46.2654 1171.57 46.8383 Q1168.86 47.4112 1166.07 47.4112 Q1159.09 47.4112 1155 43.3487 Q1150.94 39.2862 1150.94 32.3592 Q1150.94 25.1978 1154.79 21.0051 Q1158.67 16.7864 1165.24 16.7864 Q1171.12 16.7864 1174.53 20.5884 Q1177.97 24.3645 1177.97 30.8748 M1173.18 29.4686 Q1173.13 25.5363 1170.97 23.1926 Q1168.83 20.8488 1165.29 20.8488 Q1161.28 20.8488 1158.86 23.1145 Q1156.46 25.3801 1156.1 29.4946 L1173.18 29.4686 Z" fill="#000000" fill-rule="nonzero" fill-opacity="1" /><path clip-path="url(#clip980)" d="M1200.6 6.13538 L1200.6 10.1197 L1196.02 10.1197 Q1193.44 10.1197 1192.42 11.1614 Q1191.44 12.2031 1191.44 14.9114 L1191.44 17.4895 L1199.33 17.4895 L1199.33 21.2134 L1191.44 21.2134 L1191.44 46.656 L1186.62 46.656 L1186.62 21.2134 L1182.03 21.2134 L1182.03 17.4895 L1186.62 17.4895 L1186.62 15.4583 Q1186.62 10.5885 1188.88 8.37496 Q1191.15 6.13538 1196.07 6.13538 L1200.6 6.13538 Z" fill="#000000" fill-rule="nonzero" fill-opacity="1" /><path clip-path="url(#clip980)" d="M1208.41 9.20828 L1208.41 17.4895 L1218.28 17.4895 L1218.28 21.2134 L1208.41 21.2134 L1208.41 37.0467 Q1208.41 40.6144 1209.38 41.63 Q1210.37 42.6456 1213.36 42.6456 L1218.28 42.6456 L1218.28 46.656 L1213.36 46.656 Q1207.82 46.656 1205.71 44.5987 Q1203.6 42.5154 1203.6 37.0467 L1203.6 21.2134 L1200.08 21.2134 L1200.08 17.4895 L1203.6 17.4895 L1203.6 9.20828 L1208.41 9.20828 Z" fill="#000000" fill-rule="nonzero" fill-opacity="1" /><path clip-path="url(#clip980)" d="M1266.49 30.8748 L1266.49 33.2186 L1244.46 33.2186 Q1244.77 38.1665 1247.42 40.7706 Q1250.11 43.3487 1254.87 43.3487 Q1257.63 43.3487 1260.21 42.6716 Q1262.81 41.9946 1265.37 40.6404 L1265.37 45.1716 Q1262.79 46.2654 1260.08 46.8383 Q1257.37 47.4112 1254.59 47.4112 Q1247.61 47.4112 1243.52 43.3487 Q1239.46 39.2862 1239.46 32.3592 Q1239.46 25.1978 1243.31 21.0051 Q1247.19 16.7864 1253.75 16.7864 Q1259.64 16.7864 1263.05 20.5884 Q1266.49 24.3645 1266.49 30.8748 M1261.7 29.4686 Q1261.64 25.5363 1259.48 23.1926 Q1257.35 20.8488 1253.8 20.8488 Q1249.79 20.8488 1247.37 23.1145 Q1244.98 25.3801 1244.61 29.4946 L1261.7 29.4686 Z" fill="#000000" fill-rule="nonzero" fill-opacity="1" /><path clip-path="url(#clip980)" d="M1274.35 17.4895 L1279.14 17.4895 L1279.14 46.656 L1274.35 46.656 L1274.35 17.4895 M1274.35 6.13538 L1279.14 6.13538 L1279.14 12.2031 L1274.35 12.2031 L1274.35 6.13538 Z" fill="#000000" fill-rule="nonzero" fill-opacity="1" /><path clip-path="url(#clip980)" d="M1308.36 31.7342 Q1308.36 26.5259 1306.2 23.6613 Q1304.06 20.7968 1300.18 20.7968 Q1296.33 20.7968 1294.17 23.6613 Q1292.03 26.5259 1292.03 31.7342 Q1292.03 36.9165 1294.17 39.781 Q1296.33 42.6456 1300.18 42.6456 Q1304.06 42.6456 1306.2 39.781 Q1308.36 36.9165 1308.36 31.7342 M1313.15 43.0362 Q1313.15 50.4841 1309.85 54.1039 Q1306.54 57.7497 1299.72 57.7497 Q1297.19 57.7497 1294.95 57.3591 Q1292.71 56.9945 1290.6 56.2132 L1290.6 51.5518 Q1292.71 52.6976 1294.77 53.2445 Q1296.83 53.7914 1298.96 53.7914 Q1303.67 53.7914 1306.02 51.3174 Q1308.36 48.8695 1308.36 43.8956 L1308.36 41.5258 Q1306.88 44.1039 1304.56 45.38 Q1302.24 46.656 1299.01 46.656 Q1293.65 46.656 1290.37 42.5675 Q1287.09 38.479 1287.09 31.7342 Q1287.09 24.9634 1290.37 20.8749 Q1293.65 16.7864 1299.01 16.7864 Q1302.24 16.7864 1304.56 18.0624 Q1306.88 19.3384 1308.36 21.9165 L1308.36 17.4895 L1313.15 17.4895 L1313.15 43.0362 Z" fill="#000000" fill-rule="nonzero" fill-opacity="1" /><path clip-path="url(#clip980)" d="M1347.97 30.8748 L1347.97 33.2186 L1325.94 33.2186 Q1326.25 38.1665 1328.91 40.7706 Q1331.59 43.3487 1336.36 43.3487 Q1339.12 43.3487 1341.69 42.6716 Q1344.3 41.9946 1346.85 40.6404 L1346.85 45.1716 Q1344.27 46.2654 1341.56 46.8383 Q1338.86 47.4112 1336.07 47.4112 Q1329.09 47.4112 1325 43.3487 Q1320.94 39.2862 1320.94 32.3592 Q1320.94 25.1978 1324.79 21.0051 Q1328.67 16.7864 1335.24 16.7864 Q1341.12 16.7864 1344.53 20.5884 Q1347.97 24.3645 1347.97 30.8748 M1343.18 29.4686 Q1343.13 25.5363 1340.97 23.1926 Q1338.83 20.8488 1335.29 20.8488 Q1331.28 20.8488 1328.86 23.1145 Q1326.46 25.3801 1326.1 29.4946 L1343.18 29.4686 Z" fill="#000000" fill-rule="nonzero" fill-opacity="1" /><path clip-path="url(#clip980)" d="M1380.08 29.0519 L1380.08 46.656 L1375.29 46.656 L1375.29 29.2082 Q1375.29 25.0676 1373.67 23.0103 Q1372.06 20.953 1368.83 20.953 Q1364.95 20.953 1362.71 23.427 Q1360.47 25.9009 1360.47 30.1717 L1360.47 46.656 L1355.65 46.656 L1355.65 17.4895 L1360.47 17.4895 L1360.47 22.0207 Q1362.19 19.3905 1364.51 18.0884 Q1366.85 16.7864 1369.9 16.7864 Q1374.92 16.7864 1377.5 19.9114 Q1380.08 23.0103 1380.08 29.0519 Z" fill="#000000" fill-rule="nonzero" fill-opacity="1" /><path clip-path="url(#clip980)" d="M1386.2 17.4895 L1391.28 17.4895 L1400.39 41.9685 L1409.51 17.4895 L1414.58 17.4895 L1403.65 46.656 L1397.14 46.656 L1386.2 17.4895 Z" fill="#000000" fill-rule="nonzero" fill-opacity="1" /><path clip-path="url(#clip980)" d="M1446.15 30.8748 L1446.15 33.2186 L1424.12 33.2186 Q1424.43 38.1665 1427.08 40.7706 Q1429.77 43.3487 1434.53 43.3487 Q1437.29 43.3487 1439.87 42.6716 Q1442.48 41.9946 1445.03 40.6404 L1445.03 45.1716 Q1442.45 46.2654 1439.74 46.8383 Q1437.03 47.4112 1434.25 47.4112 Q1427.27 47.4112 1423.18 43.3487 Q1419.12 39.2862 1419.12 32.3592 Q1419.12 25.1978 1422.97 21.0051 Q1426.85 16.7864 1433.41 16.7864 Q1439.3 16.7864 1442.71 20.5884 Q1446.15 24.3645 1446.15 30.8748 M1441.36 29.4686 Q1441.3 25.5363 1439.14 23.1926 Q1437.01 20.8488 1433.47 20.8488 Q1429.45 20.8488 1427.03 23.1145 Q1424.64 25.3801 1424.27 29.4946 L1441.36 29.4686 Z" fill="#000000" fill-rule="nonzero" fill-opacity="1" /><path clip-path="url(#clip980)" d="M1475 18.6093 L1475 23.0884 Q1472.97 21.9686 1470.91 21.4218 Q1468.88 20.8488 1466.8 20.8488 Q1462.14 20.8488 1459.56 23.8176 Q1456.98 26.7603 1456.98 32.0988 Q1456.98 37.4373 1459.56 40.406 Q1462.14 43.3487 1466.8 43.3487 Q1468.88 43.3487 1470.91 42.8019 Q1472.97 42.2289 1475 41.1092 L1475 45.5362 Q1473 46.4737 1470.83 46.9425 Q1468.7 47.4112 1466.28 47.4112 Q1459.69 47.4112 1455.81 43.2706 Q1451.93 39.13 1451.93 32.0988 Q1451.93 24.9634 1455.83 20.8749 Q1459.77 16.7864 1466.59 16.7864 Q1468.8 16.7864 1470.91 17.2551 Q1473.02 17.6978 1475 18.6093 Z" fill="#000000" fill-rule="nonzero" fill-opacity="1" /><path clip-path="url(#clip980)" d="M1488.07 9.20828 L1488.07 17.4895 L1497.94 17.4895 L1497.94 21.2134 L1488.07 21.2134 L1488.07 37.0467 Q1488.07 40.6144 1489.04 41.63 Q1490.03 42.6456 1493.02 42.6456 L1497.94 42.6456 L1497.94 46.656 L1493.02 46.656 Q1487.48 46.656 1485.37 44.5987 Q1483.26 42.5154 1483.26 37.0467 L1483.26 21.2134 L1479.74 21.2134 L1479.74 17.4895 L1483.26 17.4895 L1483.26 9.20828 L1488.07 9.20828 Z" fill="#000000" fill-rule="nonzero" fill-opacity="1" /><path clip-path="url(#clip980)" d="M1515.55 20.8488 Q1511.69 20.8488 1509.45 23.8697 Q1507.21 26.8644 1507.21 32.0988 Q1507.21 37.3331 1509.43 40.354 Q1511.67 43.3487 1515.55 43.3487 Q1519.38 43.3487 1521.62 40.3279 Q1523.86 37.3071 1523.86 32.0988 Q1523.86 26.9165 1521.62 23.8957 Q1519.38 20.8488 1515.55 20.8488 M1515.55 16.7864 Q1521.8 16.7864 1525.37 20.8488 Q1528.93 24.9113 1528.93 32.0988 Q1528.93 39.2602 1525.37 43.3487 Q1521.8 47.4112 1515.55 47.4112 Q1509.27 47.4112 1505.7 43.3487 Q1502.16 39.2602 1502.16 32.0988 Q1502.16 24.9113 1505.7 20.8488 Q1509.27 16.7864 1515.55 16.7864 Z" fill="#000000" fill-rule="nonzero" fill-opacity="1" /><path clip-path="url(#clip980)" d="M1553.78 21.9686 Q1552.97 21.4999 1552.01 21.2916 Q1551.07 21.0572 1549.92 21.0572 Q1545.86 21.0572 1543.67 23.7134 Q1541.51 26.3436 1541.51 31.2915 L1541.51 46.656 L1536.69 46.656 L1536.69 17.4895 L1541.51 17.4895 L1541.51 22.0207 Q1543.02 19.3645 1545.44 18.0884 Q1547.87 16.7864 1551.33 16.7864 Q1551.82 16.7864 1552.42 16.8645 Q1553.02 16.9166 1553.75 17.0468 L1553.78 21.9686 Z" fill="#000000" fill-rule="nonzero" fill-opacity="1" /><path clip-path="url(#clip980)" d="M1587.06 20.8488 Q1583.2 20.8488 1580.96 23.8697 Q1578.72 26.8644 1578.72 32.0988 Q1578.72 37.3331 1580.94 40.354 Q1583.18 43.3487 1587.06 43.3487 Q1590.89 43.3487 1593.13 40.3279 Q1595.37 37.3071 1595.37 32.0988 Q1595.37 26.9165 1593.13 23.8957 Q1590.89 20.8488 1587.06 20.8488 M1587.06 16.7864 Q1593.31 16.7864 1596.88 20.8488 Q1600.44 24.9113 1600.44 32.0988 Q1600.44 39.2602 1596.88 43.3487 Q1593.31 47.4112 1587.06 47.4112 Q1580.78 47.4112 1577.21 43.3487 Q1573.67 39.2602 1573.67 32.0988 Q1573.67 24.9113 1577.21 20.8488 Q1580.78 16.7864 1587.06 16.7864 Z" fill="#000000" fill-rule="nonzero" fill-opacity="1" /><path clip-path="url(#clip980)" d="M1623.15 6.13538 L1623.15 10.1197 L1618.57 10.1197 Q1615.99 10.1197 1614.97 11.1614 Q1613.98 12.2031 1613.98 14.9114 L1613.98 17.4895 L1621.88 17.4895 L1621.88 21.2134 L1613.98 21.2134 L1613.98 46.656 L1609.17 46.656 L1609.17 21.2134 L1604.58 21.2134 L1604.58 17.4895 L1609.17 17.4895 L1609.17 15.4583 Q1609.17 10.5885 1611.43 8.37496 Q1613.7 6.13538 1618.62 6.13538 L1623.15 6.13538 Z" fill="#000000" fill-rule="nonzero" fill-opacity="1" /><path clip-path="url(#clip980)" d="M1638.93 7.776 L1671.82 7.776 L1671.82 12.2031 L1658.02 12.2031 L1658.02 46.656 L1652.73 46.656 L1652.73 12.2031 L1638.93 12.2031 L1638.93 7.776 Z" fill="#000000" fill-rule="nonzero" fill-opacity="1" /><path clip-path="url(#clip980)" d="M1675.94 6.18747 L1680.1 6.18747 Q1684.01 12.3333 1685.94 18.2187 Q1687.89 24.104 1687.89 29.9113 Q1687.89 35.7446 1685.94 41.656 Q1684.01 47.5675 1680.1 53.6872 L1675.94 53.6872 Q1679.4 47.7237 1681.09 41.8383 Q1682.81 35.9269 1682.81 29.9113 Q1682.81 23.8957 1681.09 18.0364 Q1679.4 12.177 1675.94 6.18747 Z" fill="#000000" fill-rule="nonzero" fill-opacity="1" /><path clip-path="url(#clip980)" d="M1720.63 5.90101 L1720.63 59.2341 L1716.2 59.2341 L1716.2 5.90101 L1720.63 5.90101 Z" fill="#000000" fill-rule="nonzero" fill-opacity="1" /><path clip-path="url(#clip980)" d="M1772.89 9.05203 L1772.89 14.1822 Q1769.9 12.7499 1767.24 12.0468 Q1764.58 11.3437 1762.11 11.3437 Q1757.81 11.3437 1755.47 13.0103 Q1753.15 14.677 1753.15 17.7499 Q1753.15 20.328 1754.69 21.6561 Q1756.25 22.9582 1760.57 23.7655 L1763.75 24.4165 Q1769.64 25.5363 1772.42 28.3748 Q1775.23 31.1873 1775.23 35.9269 Q1775.23 41.5779 1771.43 44.4946 Q1767.66 47.4112 1760.34 47.4112 Q1757.58 47.4112 1754.45 46.7862 Q1751.35 46.1612 1748.02 44.9373 L1748.02 39.5206 Q1751.22 41.3175 1754.3 42.2289 Q1757.37 43.1404 1760.34 43.1404 Q1764.84 43.1404 1767.29 41.3696 Q1769.74 39.5987 1769.74 36.3175 Q1769.74 33.4529 1767.97 31.8384 Q1766.22 30.2238 1762.21 29.4165 L1759.01 28.7915 Q1753.12 27.6196 1750.49 25.1197 Q1747.86 22.6197 1747.86 18.1666 Q1747.86 13.0103 1751.48 10.0416 Q1755.13 7.07288 1761.51 7.07288 Q1764.24 7.07288 1767.08 7.56767 Q1769.92 8.06246 1772.89 9.05203 Z" fill="#000000" fill-rule="nonzero" fill-opacity="1" /><path clip-path="url(#clip980)" d="M1788.7 12.0989 L1788.7 26.7082 L1795.31 26.7082 Q1798.98 26.7082 1800.99 24.8072 Q1802.99 22.9061 1802.99 19.3905 Q1802.99 15.901 1800.99 13.9999 Q1798.98 12.0989 1795.31 12.0989 L1788.7 12.0989 M1783.44 7.776 L1795.31 7.776 Q1801.85 7.776 1805.18 10.7447 Q1808.54 13.6874 1808.54 19.3905 Q1808.54 25.1457 1805.18 28.0884 Q1801.85 31.0311 1795.31 31.0311 L1788.7 31.0311 L1788.7 46.656 L1783.44 46.656 L1783.44 7.776 Z" fill="#000000" fill-rule="nonzero" fill-opacity="1" /><path clip-path="url(#clip980)" d="M1809.09 7.776 L1814.74 7.776 L1825.52 23.7655 L1836.22 7.776 L1841.87 7.776 L1828.12 28.1405 L1828.12 46.656 L1822.84 46.656 L1822.84 28.1405 L1809.09 7.776 Z" fill="#000000" fill-rule="nonzero" fill-opacity="1" /><path clip-path="url(#clip980)" d="M1869.92 5.90101 L1869.92 59.2341 L1865.49 59.2341 L1865.49 5.90101 L1869.92 5.90101 Z" fill="#000000" fill-rule="nonzero" fill-opacity="1" /><path clip-path="url(#clip980)" d="M1927.99 10.7708 L1927.99 16.3176 Q1925.34 13.8437 1922.32 12.6197 Q1919.32 11.3958 1915.94 11.3958 Q1909.27 11.3958 1905.73 15.4843 Q1902.19 19.5468 1902.19 27.2551 Q1902.19 34.9373 1905.73 39.0258 Q1909.27 43.0883 1915.94 43.0883 Q1919.32 43.0883 1922.32 41.8644 Q1925.34 40.6404 1927.99 38.1665 L1927.99 43.6612 Q1925.23 45.5362 1922.13 46.4737 Q1919.06 47.4112 1915.62 47.4112 Q1906.8 47.4112 1901.72 42.0206 Q1896.64 36.604 1896.64 27.2551 Q1896.64 17.8801 1901.72 12.4895 Q1906.8 7.07288 1915.62 7.07288 Q1919.11 7.07288 1922.19 8.01037 Q1925.29 8.92183 1927.99 10.7708 Z" fill="#000000" fill-rule="nonzero" fill-opacity="1" /><path clip-path="url(#clip980)" d="M1936.12 7.776 L1941.38 7.776 L1941.38 23.7134 L1960.49 23.7134 L1960.49 7.776 L1965.75 7.776 L1965.75 46.656 L1960.49 46.656 L1960.49 28.1405 L1941.38 28.1405 L1941.38 46.656 L1936.12 46.656 L1936.12 7.776 Z" fill="#000000" fill-rule="nonzero" fill-opacity="1" /><path clip-path="url(#clip980)" d="M1976.22 7.776 L1984.06 7.776 L1993.98 34.2342 L2003.96 7.776 L2011.8 7.776 L2011.8 46.656 L2006.67 46.656 L2006.67 12.5156 L1996.64 39.1821 L1991.35 39.1821 L1981.33 12.5156 L1981.33 46.656 L1976.22 46.656 L1976.22 7.776 Z" fill="#000000" fill-rule="nonzero" fill-opacity="1" /><path clip-path="url(#clip980)" d="M2022.24 7.776 L2030.08 7.776 L2040 34.2342 L2049.97 7.776 L2057.81 7.776 L2057.81 46.656 L2052.68 46.656 L2052.68 12.5156 L2042.65 39.1821 L2037.37 39.1821 L2027.34 12.5156 L2027.34 46.656 L2022.24 46.656 L2022.24 7.776 Z" fill="#000000" fill-rule="nonzero" fill-opacity="1" /><path clip-path="url(#clip980)" d="M2065.62 29.9113 L2079.66 29.9113 L2079.66 34.1821 L2065.62 34.1821 L2065.62 29.9113 Z" fill="#000000" fill-rule="nonzero" fill-opacity="1" /><path clip-path="url(#clip980)" d="M2115.96 41.1092 L2115.96 30.6665 L2107.37 30.6665 L2107.37 26.3436 L2121.17 26.3436 L2121.17 43.0362 Q2118.12 45.1977 2114.45 46.3175 Q2110.78 47.4112 2106.61 47.4112 Q2097.5 47.4112 2092.34 42.0987 Q2087.21 36.7602 2087.21 27.2551 Q2087.21 17.7239 2092.34 12.4114 Q2097.5 7.07288 2106.61 7.07288 Q2110.41 7.07288 2113.83 8.01037 Q2117.26 8.94787 2120.15 10.7708 L2120.15 16.3697 Q2117.24 13.8958 2113.96 12.6458 Q2110.68 11.3958 2107.06 11.3958 Q2099.92 11.3958 2096.33 15.3801 Q2092.76 19.3645 2092.76 27.2551 Q2092.76 35.1196 2096.33 39.104 Q2099.92 43.0883 2107.06 43.0883 Q2109.84 43.0883 2112.03 42.6196 Q2114.22 42.1248 2115.96 41.1092 Z" fill="#000000" fill-rule="nonzero" fill-opacity="1" /><path clip-path="url(#clip980)" d="M2130.78 7.776 L2155.36 7.776 L2155.36 12.2031 L2136.04 12.2031 L2136.04 23.7134 L2154.55 23.7134 L2154.55 28.1405 L2136.04 28.1405 L2136.04 42.2289 L2155.83 42.2289 L2155.83 46.656 L2130.78 46.656 L2130.78 7.776 Z" fill="#000000" fill-rule="nonzero" fill-opacity="1" /><path clip-path="url(#clip980)" d="M2169.74 12.0989 L2169.74 42.3331 L2176.09 42.3331 Q2184.14 42.3331 2187.86 38.6873 Q2191.61 35.0415 2191.61 27.1769 Q2191.61 19.3645 2187.86 15.7447 Q2184.14 12.0989 2176.09 12.0989 L2169.74 12.0989 M2164.48 7.776 L2175.28 7.776 Q2186.59 7.776 2191.87 12.4895 Q2197.16 17.177 2197.16 27.1769 Q2197.16 37.229 2191.85 41.9425 Q2186.53 46.656 2175.28 46.656 L2164.48 46.656 L2164.48 7.776 Z" fill="#000000" fill-rule="nonzero" fill-opacity="1" /><path clip-path="url(#clip980)" d="M2206.56 40.0415 L2212.05 40.0415 L2212.05 44.5206 L2207.78 52.8539 L2204.42 52.8539 L2206.56 44.5206 L2206.56 40.0415 Z" fill="#000000" fill-rule="nonzero" fill-opacity="1" /><path clip-path="url(#clip980)" d="M2239.45 7.776 L2244.71 7.776 L2244.71 24.2082 L2262.16 7.776 L2268.93 7.776 L2249.63 25.9009 L2270.31 46.656 L2263.38 46.656 L2244.71 27.9321 L2244.71 46.656 L2239.45 46.656 L2239.45 7.776 Z" fill="#000000" fill-rule="nonzero" fill-opacity="1" /><path clip-path="url(#clip980)" d="M2274.84 22.4374 L2308.23 22.4374 L2308.23 26.8124 L2274.84 26.8124 L2274.84 22.4374 M2274.84 33.0623 L2308.23 33.0623 L2308.23 37.4894 L2274.84 37.4894 L2274.84 33.0623 Z" fill="#000000" fill-rule="nonzero" fill-opacity="1" /><path clip-path="url(#clip980)" d="M2320.49 42.2289 L2329.09 42.2289 L2329.09 12.5676 L2319.74 14.4426 L2319.74 9.65099 L2329.03 7.776 L2334.29 7.776 L2334.29 42.2289 L2342.89 42.2289 L2342.89 46.656 L2320.49 46.656 L2320.49 42.2289 Z" fill="#000000" fill-rule="nonzero" fill-opacity="1" /><path clip-path="url(#clip980)" d="M2364.76 28.1926 Q2361.01 28.1926 2358.85 30.1978 Q2356.72 32.203 2356.72 35.7186 Q2356.72 39.2342 2358.85 41.2394 Q2361.01 43.2446 2364.76 43.2446 Q2368.51 43.2446 2370.67 41.2394 Q2372.84 39.2081 2372.84 35.7186 Q2372.84 32.203 2370.67 30.1978 Q2368.54 28.1926 2364.76 28.1926 M2359.5 25.953 Q2356.12 25.1197 2354.22 22.802 Q2352.34 20.4843 2352.34 17.1509 Q2352.34 12.4895 2355.65 9.7812 Q2358.98 7.07288 2364.76 7.07288 Q2370.57 7.07288 2373.88 9.7812 Q2377.18 12.4895 2377.18 17.1509 Q2377.18 20.4843 2375.28 22.802 Q2373.41 25.1197 2370.05 25.953 Q2373.85 26.8384 2375.96 29.4165 Q2378.1 31.9946 2378.1 35.7186 Q2378.1 41.3696 2374.63 44.3904 Q2371.19 47.4112 2364.76 47.4112 Q2358.33 47.4112 2354.87 44.3904 Q2351.43 41.3696 2351.43 35.7186 Q2351.43 31.9946 2353.56 29.4165 Q2355.7 26.8384 2359.5 25.953 M2357.57 17.6457 Q2357.57 20.6666 2359.45 22.3593 Q2361.35 24.052 2364.76 24.052 Q2368.15 24.052 2370.05 22.3593 Q2371.98 20.6666 2371.98 17.6457 Q2371.98 14.6249 2370.05 12.9322 Q2368.15 11.2395 2364.76 11.2395 Q2361.35 11.2395 2359.45 12.9322 Q2357.57 14.6249 2357.57 17.6457 Z" fill="#000000" fill-rule="nonzero" fill-opacity="1" /><path clip-path="url(#clip982)" d="M577.811 180.612 L577.811 1241.31 L649.608 1241.31 L649.608 180.612 L577.811 180.612 L577.811 180.612  Z" fill="#4682b4" fill-rule="evenodd" fill-opacity="0.7"/>
<polyline clip-path="url(#clip982)" style="stroke:#000000; stroke-linecap:round; stroke-linejoin:round; stroke-width:4; stroke-opacity:0.7; fill:none" points="577.811,180.612 577.811,1241.31 649.608,1241.31 649.608,180.612 577.811,180.612 "/>
<path clip-path="url(#clip982)" d="M667.557 1115.85 L667.557 1241.31 L739.354 1241.31 L739.354 1115.85 L667.557 1115.85 L667.557 1115.85  Z" fill="#4682b4" fill-rule="evenodd" fill-opacity="0.7"/>
<polyline clip-path="url(#clip982)" style="stroke:#000000; stroke-linecap:round; stroke-linejoin:round; stroke-width:4; stroke-opacity:0.7; fill:none" points="667.557,1115.85 667.557,1241.31 739.354,1241.31 739.354,1115.85 667.557,1115.85 "/>
<path clip-path="url(#clip982)" d="M757.303 1122.65 L757.303 1241.31 L829.1 1241.31 L829.1 1122.65 L757.303 1122.65 L757.303 1122.65  Z" fill="#4682b4" fill-rule="evenodd" fill-opacity="0.7"/>
<polyline clip-path="url(#clip982)" style="stroke:#000000; stroke-linecap:round; stroke-linejoin:round; stroke-width:4; stroke-opacity:0.7; fill:none" points="757.303,1122.65 757.303,1241.31 829.1,1241.31 829.1,1122.65 757.303,1122.65 "/>
<path clip-path="url(#clip982)" d="M847.049 1103.5 L847.049 1241.31 L918.846 1241.31 L918.846 1103.5 L847.049 1103.5 L847.049 1103.5  Z" fill="#4682b4" fill-rule="evenodd" fill-opacity="0.7"/>
<polyline clip-path="url(#clip982)" style="stroke:#000000; stroke-linecap:round; stroke-linejoin:round; stroke-width:4; stroke-opacity:0.7; fill:none" points="847.049,1103.5 847.049,1241.31 918.846,1241.31 918.846,1103.5 847.049,1103.5 "/>
<path clip-path="url(#clip982)" d="M936.796 1129.78 L936.796 1241.31 L1008.59 1241.31 L1008.59 1129.78 L936.796 1129.78 L936.796 1129.78  Z" fill="#4682b4" fill-rule="evenodd" fill-opacity="0.7"/>
<polyline clip-path="url(#clip982)" style="stroke:#000000; stroke-linecap:round; stroke-linejoin:round; stroke-width:4; stroke-opacity:0.7; fill:none" points="936.796,1129.78 936.796,1241.31 1008.59,1241.31 1008.59,1129.78 936.796,1129.78 "/>
<path clip-path="url(#clip982)" d="M1026.54 1054.86 L1026.54 1241.31 L1098.34 1241.31 L1098.34 1054.86 L1026.54 1054.86 L1026.54 1054.86  Z" fill="#4682b4" fill-rule="evenodd" fill-opacity="0.7"/>
<polyline clip-path="url(#clip982)" style="stroke:#000000; stroke-linecap:round; stroke-linejoin:round; stroke-width:4; stroke-opacity:0.7; fill:none" points="1026.54,1054.86 1026.54,1241.31 1098.34,1241.31 1098.34,1054.86 1026.54,1054.86 "/>
<path clip-path="url(#clip982)" d="M1116.29 1047.11 L1116.29 1241.31 L1188.08 1241.31 L1188.08 1047.11 L1116.29 1047.11 L1116.29 1047.11  Z" fill="#4682b4" fill-rule="evenodd" fill-opacity="0.7"/>
<polyline clip-path="url(#clip982)" style="stroke:#000000; stroke-linecap:round; stroke-linejoin:round; stroke-width:4; stroke-opacity:0.7; fill:none" points="1116.29,1047.11 1116.29,1241.31 1188.08,1241.31 1188.08,1047.11 1116.29,1047.11 "/>
<path clip-path="url(#clip982)" d="M1206.03 1082.57 L1206.03 1241.31 L1277.83 1241.31 L1277.83 1082.57 L1206.03 1082.57 L1206.03 1082.57  Z" fill="#4682b4" fill-rule="evenodd" fill-opacity="0.7"/>
<polyline clip-path="url(#clip982)" style="stroke:#000000; stroke-linecap:round; stroke-linejoin:round; stroke-width:4; stroke-opacity:0.7; fill:none" points="1206.03,1082.57 1206.03,1241.31 1277.83,1241.31 1277.83,1082.57 1206.03,1082.57 "/>
<path clip-path="url(#clip982)" d="M1295.78 1092.31 L1295.78 1241.31 L1367.58 1241.31 L1367.58 1092.31 L1295.78 1092.31 L1295.78 1092.31  Z" fill="#4682b4" fill-rule="evenodd" fill-opacity="0.7"/>
<polyline clip-path="url(#clip982)" style="stroke:#000000; stroke-linecap:round; stroke-linejoin:round; stroke-width:4; stroke-opacity:0.7; fill:none" points="1295.78,1092.31 1295.78,1241.31 1367.58,1241.31 1367.58,1092.31 1295.78,1092.31 "/>
<path clip-path="url(#clip982)" d="M1385.53 1038.09 L1385.53 1241.31 L1457.32 1241.31 L1457.32 1038.09 L1385.53 1038.09 L1385.53 1038.09  Z" fill="#4682b4" fill-rule="evenodd" fill-opacity="0.7"/>
<polyline clip-path="url(#clip982)" style="stroke:#000000; stroke-linecap:round; stroke-linejoin:round; stroke-width:4; stroke-opacity:0.7; fill:none" points="1385.53,1038.09 1385.53,1241.31 1457.32,1241.31 1457.32,1038.09 1385.53,1038.09 "/>
<path clip-path="url(#clip982)" d="M1475.27 1071.96 L1475.27 1241.31 L1547.07 1241.31 L1547.07 1071.96 L1475.27 1071.96 L1475.27 1071.96  Z" fill="#4682b4" fill-rule="evenodd" fill-opacity="0.7"/>
<polyline clip-path="url(#clip982)" style="stroke:#000000; stroke-linecap:round; stroke-linejoin:round; stroke-width:4; stroke-opacity:0.7; fill:none" points="1475.27,1071.96 1475.27,1241.31 1547.07,1241.31 1547.07,1071.96 1475.27,1071.96 "/>
<path clip-path="url(#clip982)" d="M1565.02 1017.01 L1565.02 1241.31 L1636.81 1241.31 L1636.81 1017.01 L1565.02 1017.01 L1565.02 1017.01  Z" fill="#4682b4" fill-rule="evenodd" fill-opacity="0.7"/>
<polyline clip-path="url(#clip982)" style="stroke:#000000; stroke-linecap:round; stroke-linejoin:round; stroke-width:4; stroke-opacity:0.7; fill:none" points="1565.02,1017.01 1565.02,1241.31 1636.81,1241.31 1636.81,1017.01 1565.02,1017.01 "/>
<path clip-path="url(#clip982)" d="M1654.76 1138.07 L1654.76 1241.31 L1726.56 1241.31 L1726.56 1138.07 L1654.76 1138.07 L1654.76 1138.07  Z" fill="#4682b4" fill-rule="evenodd" fill-opacity="0.7"/>
<polyline clip-path="url(#clip982)" style="stroke:#000000; stroke-linecap:round; stroke-linejoin:round; stroke-width:4; stroke-opacity:0.7; fill:none" points="1654.76,1138.07 1654.76,1241.31 1726.56,1241.31 1726.56,1138.07 1654.76,1138.07 "/>
<path clip-path="url(#clip982)" d="M1744.51 1011.3 L1744.51 1241.31 L1816.31 1241.31 L1816.31 1011.3 L1744.51 1011.3 L1744.51 1011.3  Z" fill="#4682b4" fill-rule="evenodd" fill-opacity="0.7"/>
<polyline clip-path="url(#clip982)" style="stroke:#000000; stroke-linecap:round; stroke-linejoin:round; stroke-width:4; stroke-opacity:0.7; fill:none" points="1744.51,1011.3 1744.51,1241.31 1816.31,1241.31 1816.31,1011.3 1744.51,1011.3 "/>
<path clip-path="url(#clip982)" d="M1834.26 1131.08 L1834.26 1241.31 L1906.05 1241.31 L1906.05 1131.08 L1834.26 1131.08 L1834.26 1131.08  Z" fill="#4682b4" fill-rule="evenodd" fill-opacity="0.7"/>
<polyline clip-path="url(#clip982)" style="stroke:#000000; stroke-linecap:round; stroke-linejoin:round; stroke-width:4; stroke-opacity:0.7; fill:none" points="1834.26,1131.08 1834.26,1241.31 1906.05,1241.31 1906.05,1131.08 1834.26,1131.08 "/>
<path clip-path="url(#clip982)" d="M1924 1089.49 L1924 1241.31 L1995.8 1241.31 L1995.8 1089.49 L1924 1089.49 L1924 1089.49  Z" fill="#4682b4" fill-rule="evenodd" fill-opacity="0.7"/>
<polyline clip-path="url(#clip982)" style="stroke:#000000; stroke-linecap:round; stroke-linejoin:round; stroke-width:4; stroke-opacity:0.7; fill:none" points="1924,1089.49 1924,1241.31 1995.8,1241.31 1995.8,1089.49 1924,1089.49 "/>
<path clip-path="url(#clip982)" d="M2013.75 1101.14 L2013.75 1241.31 L2085.55 1241.31 L2085.55 1101.14 L2013.75 1101.14 L2013.75 1101.14  Z" fill="#4682b4" fill-rule="evenodd" fill-opacity="0.7"/>
<polyline clip-path="url(#clip982)" style="stroke:#000000; stroke-linecap:round; stroke-linejoin:round; stroke-width:4; stroke-opacity:0.7; fill:none" points="2013.75,1101.14 2013.75,1241.31 2085.55,1241.31 2085.55,1101.14 2013.75,1101.14 "/>
<path clip-path="url(#clip982)" d="M2103.49 953.955 L2103.49 1241.31 L2175.29 1241.31 L2175.29 953.955 L2103.49 953.955 L2103.49 953.955  Z" fill="#4682b4" fill-rule="evenodd" fill-opacity="0.7"/>
<polyline clip-path="url(#clip982)" style="stroke:#000000; stroke-linecap:round; stroke-linejoin:round; stroke-width:4; stroke-opacity:0.7; fill:none" points="2103.49,953.955 2103.49,1241.31 2175.29,1241.31 2175.29,953.955 2103.49,953.955 "/>
<circle clip-path="url(#clip982)" style="fill:#4682b4; stroke:none; fill-opacity:0" cx="613.71" cy="180.612" r="2"/>
<circle clip-path="url(#clip982)" style="fill:#4682b4; stroke:none; fill-opacity:0" cx="703.456" cy="1115.85" r="2"/>
<circle clip-path="url(#clip982)" style="fill:#4682b4; stroke:none; fill-opacity:0" cx="793.202" cy="1122.65" r="2"/>
<circle clip-path="url(#clip982)" style="fill:#4682b4; stroke:none; fill-opacity:0" cx="882.948" cy="1103.5" r="2"/>
<circle clip-path="url(#clip982)" style="fill:#4682b4; stroke:none; fill-opacity:0" cx="972.694" cy="1129.78" r="2"/>
<circle clip-path="url(#clip982)" style="fill:#4682b4; stroke:none; fill-opacity:0" cx="1062.44" cy="1054.86" r="2"/>
<circle clip-path="url(#clip982)" style="fill:#4682b4; stroke:none; fill-opacity:0" cx="1152.19" cy="1047.11" r="2"/>
<circle clip-path="url(#clip982)" style="fill:#4682b4; stroke:none; fill-opacity:0" cx="1241.93" cy="1082.57" r="2"/>
<circle clip-path="url(#clip982)" style="fill:#4682b4; stroke:none; fill-opacity:0" cx="1331.68" cy="1092.31" r="2"/>
<circle clip-path="url(#clip982)" style="fill:#4682b4; stroke:none; fill-opacity:0" cx="1421.42" cy="1038.09" r="2"/>
<circle clip-path="url(#clip982)" style="fill:#4682b4; stroke:none; fill-opacity:0" cx="1511.17" cy="1071.96" r="2"/>
<circle clip-path="url(#clip982)" style="fill:#4682b4; stroke:none; fill-opacity:0" cx="1600.92" cy="1017.01" r="2"/>
<circle clip-path="url(#clip982)" style="fill:#4682b4; stroke:none; fill-opacity:0" cx="1690.66" cy="1138.07" r="2"/>
<circle clip-path="url(#clip982)" style="fill:#4682b4; stroke:none; fill-opacity:0" cx="1780.41" cy="1011.3" r="2"/>
<circle clip-path="url(#clip982)" style="fill:#4682b4; stroke:none; fill-opacity:0" cx="1870.15" cy="1131.08" r="2"/>
<circle clip-path="url(#clip982)" style="fill:#4682b4; stroke:none; fill-opacity:0" cx="1959.9" cy="1089.49" r="2"/>
<circle clip-path="url(#clip982)" style="fill:#4682b4; stroke:none; fill-opacity:0" cx="2049.65" cy="1101.14" r="2"/>
<circle clip-path="url(#clip982)" style="fill:#4682b4; stroke:none; fill-opacity:0" cx="2139.39" cy="953.955" r="2"/>
</svg>
