<?xml version="1.0" encoding="utf-8"?>
<svg xmlns="http://www.w3.org/2000/svg" xmlns:xlink="http://www.w3.org/1999/xlink" width="600" height="400" viewBox="0 0 2400 1600">
<defs>
  <clipPath id="clip500">
    <rect x="0" y="0" width="2400" height="1600"/>
  </clipPath>
</defs>
<path clip-path="url(#clip500)" d="M0 1600 L2400 1600 L2400 8.88178e-14 L0 8.88178e-14  Z" fill="#ffffff" fill-rule="evenodd" fill-opacity="1"/>
<defs>
  <clipPath id="clip501">
    <rect x="313" y="640" width="2012" height="49"/>
  </clipPath>
</defs>
<path clip-path="url(#clip500)" d="M545.232 1241.31 L2274.02 1241.31 L2274.02 125.984 L545.232 125.984  Z" fill="#ffffff" fill-rule="evenodd" fill-opacity="1"/>
<defs>
  <clipPath id="clip502">
    <rect x="545" y="125" width="1730" height="1116"/>
  </clipPath>
</defs>
<polyline clip-path="url(#clip502)" style="stroke:#000000; stroke-linecap:round; stroke-linejoin:round; stroke-width:2; stroke-opacity:0.1; fill:none" points="566.517,1241.31 566.517,125.984 "/>
<polyline clip-path="url(#clip502)" style="stroke:#000000; stroke-linecap:round; stroke-linejoin:round; stroke-width:2; stroke-opacity:0.1; fill:none" points="842.946,1241.31 842.946,125.984 "/>
<polyline clip-path="url(#clip502)" style="stroke:#000000; stroke-linecap:round; stroke-linejoin:round; stroke-width:2; stroke-opacity:0.1; fill:none" points="1119.37,1241.31 1119.37,125.984 "/>
<polyline clip-path="url(#clip502)" style="stroke:#000000; stroke-linecap:round; stroke-linejoin:round; stroke-width:2; stroke-opacity:0.1; fill:none" points="1395.8,1241.31 1395.8,125.984 "/>
<polyline clip-path="url(#clip502)" style="stroke:#000000; stroke-linecap:round; stroke-linejoin:round; stroke-width:2; stroke-opacity:0.1; fill:none" points="1672.23,1241.31 1672.23,125.984 "/>
<polyline clip-path="url(#clip502)" style="stroke:#000000; stroke-linecap:round; stroke-linejoin:round; stroke-width:2; stroke-opacity:0.1; fill:none" points="1948.66,1241.31 1948.66,125.984 "/>
<polyline clip-path="url(#clip502)" style="stroke:#000000; stroke-linecap:round; stroke-linejoin:round; stroke-width:2; stroke-opacity:0.1; fill:none" points="2225.09,1241.31 2225.09,125.984 "/>
<polyline clip-path="url(#clip502)" style="stroke:#000000; stroke-linecap:round; stroke-linejoin:round; stroke-width:2; stroke-opacity:0.1; fill:none" points="545.232,1139.54 2274.02,1139.54 "/>
<polyline clip-path="url(#clip502)" style="stroke:#000000; stroke-linecap:round; stroke-linejoin:round; stroke-width:2; stroke-opacity:0.1; fill:none" points="545.232,973.162 2274.02,973.162 "/>
<polyline clip-path="url(#clip502)" style="stroke:#000000; stroke-linecap:round; stroke-linejoin:round; stroke-width:2; stroke-opacity:0.1; fill:none" points="545.232,806.784 2274.02,806.784 "/>
<polyline clip-path="url(#clip502)" style="stroke:#000000; stroke-linecap:round; stroke-linejoin:round; stroke-width:2; stroke-opacity:0.1; fill:none" points="545.232,640.405 2274.02,640.405 "/>
<polyline clip-path="url(#clip502)" style="stroke:#000000; stroke-linecap:round; stroke-linejoin:round; stroke-width:2; stroke-opacity:0.1; fill:none" points="545.232,474.026 2274.02,474.026 "/>
<polyline clip-path="url(#clip502)" style="stroke:#000000; stroke-linecap:round; stroke-linejoin:round; stroke-width:2; stroke-opacity:0.1; fill:none" points="545.232,307.647 2274.02,307.647 "/>
<polyline clip-path="url(#clip502)" style="stroke:#000000; stroke-linecap:round; stroke-linejoin:round; stroke-width:2; stroke-opacity:0.1; fill:none" points="545.232,141.269 2274.02,141.269 "/>
<polyline clip-path="url(#clip500)" style="stroke:#000000; stroke-linecap:round; stroke-linejoin:round; stroke-width:4; stroke-opacity:1; fill:none" points="545.232,1241.31 2274.02,1241.31 "/>
<polyline clip-path="url(#clip500)" style="stroke:#000000; stroke-linecap:round; stroke-linejoin:round; stroke-width:4; stroke-opacity:1; fill:none" points="566.517,1241.31 566.517,1222.41 "/>
<polyline clip-path="url(#clip500)" style="stroke:#000000; stroke-linecap:round; stroke-linejoin:round; stroke-width:4; stroke-opacity:1; fill:none" points="842.946,1241.31 842.946,1222.41 "/>
<polyline clip-path="url(#clip500)" style="stroke:#000000; stroke-linecap:round; stroke-linejoin:round; stroke-width:4; stroke-opacity:1; fill:none" points="1119.37,1241.31 1119.37,1222.41 "/>
<polyline clip-path="url(#clip500)" style="stroke:#000000; stroke-linecap:round; stroke-linejoin:round; stroke-width:4; stroke-opacity:1; fill:none" points="1395.8,1241.31 1395.8,1222.41 "/>
<polyline clip-path="url(#clip500)" style="stroke:#000000; stroke-linecap:round; stroke-linejoin:round; stroke-width:4; stroke-opacity:1; fill:none" points="1672.23,1241.31 1672.23,1222.41 "/>
<polyline clip-path="url(#clip500)" style="stroke:#000000; stroke-linecap:round; stroke-linejoin:round; stroke-width:4; stroke-opacity:1; fill:none" points="1948.66,1241.31 1948.66,1222.41 "/>
<polyline clip-path="url(#clip500)" style="stroke:#000000; stroke-linecap:round; stroke-linejoin:round; stroke-width:4; stroke-opacity:1; fill:none" points="2225.09,1241.31 2225.09,1222.41 "/>
<path clip-path="url(#clip500)" d="M566.517 1275.16 Q562.004 1275.16 559.718 1279.62 Q557.461 1284.04 557.461 1292.95 Q557.461 1301.84 559.718 1306.29 Q562.004 1310.72 566.517 1310.72 Q571.06 1310.72 573.317 1306.29 Q575.603 1301.84 575.603 1292.95 Q575.603 1284.04 573.317 1279.62 Q571.06 1275.16 566.517 1275.16 M566.517 1270.53 Q573.78 1270.53 577.599 1276.29 Q581.448 1282.02 581.448 1292.95 Q581.448 1303.86 577.599 1309.62 Q573.78 1315.35 566.517 1315.35 Q559.255 1315.35 555.406 1309.62 Q551.587 1303.86 551.587 1292.95 Q551.587 1282.02 555.406 1276.29 Q559.255 1270.53 566.517 1270.53 Z" fill="#000000" fill-rule="nonzero" fill-opacity="1" /><path clip-path="url(#clip500)" d="M811.305 1309.59 L820.854 1309.59 L820.854 1276.64 L810.466 1278.72 L810.466 1273.39 L820.796 1271.31 L826.641 1271.31 L826.641 1309.59 L836.189 1309.59 L836.189 1314.51 L811.305 1314.51 L811.305 1309.59 Z" fill="#000000" fill-rule="nonzero" fill-opacity="1" /><path clip-path="url(#clip500)" d="M860.495 1275.16 Q855.981 1275.16 853.695 1279.62 Q851.438 1284.04 851.438 1292.95 Q851.438 1301.84 853.695 1306.29 Q855.981 1310.72 860.495 1310.72 Q865.038 1310.72 867.295 1306.29 Q869.58 1301.84 869.58 1292.95 Q869.58 1284.04 867.295 1279.62 Q865.038 1275.16 860.495 1275.16 M860.495 1270.53 Q867.758 1270.53 871.577 1276.29 Q875.425 1282.02 875.425 1292.95 Q875.425 1303.86 871.577 1309.62 Q867.758 1315.35 860.495 1315.35 Q853.232 1315.35 849.384 1309.62 Q845.564 1303.86 845.564 1292.95 Q845.564 1282.02 849.384 1276.29 Q853.232 1270.53 860.495 1270.53 Z" fill="#000000" fill-rule="nonzero" fill-opacity="1" /><path clip-path="url(#clip500)" d="M1092.84 1309.59 L1113.24 1309.59 L1113.24 1314.51 L1085.81 1314.51 L1085.81 1309.59 Q1089.14 1306.15 1094.87 1300.36 Q1100.62 1294.55 1102.1 1292.87 Q1104.91 1289.71 1106.01 1287.54 Q1107.13 1285.34 1107.13 1283.23 Q1107.13 1279.79 1104.7 1277.62 Q1102.3 1275.45 1098.43 1275.45 Q1095.68 1275.45 1092.61 1276.4 Q1089.57 1277.36 1086.1 1279.3 L1086.1 1273.39 Q1089.63 1271.98 1092.7 1271.25 Q1095.76 1270.53 1098.31 1270.53 Q1105.02 1270.53 1109.02 1273.89 Q1113.01 1277.24 1113.01 1282.86 Q1113.01 1285.52 1112 1287.92 Q1111.01 1290.29 1108.38 1293.53 Q1107.66 1294.37 1103.78 1298.39 Q1099.9 1302.39 1092.84 1309.59 Z" fill="#000000" fill-rule="nonzero" fill-opacity="1" /><path clip-path="url(#clip500)" d="M1138.01 1275.16 Q1133.49 1275.16 1131.21 1279.62 Q1128.95 1284.04 1128.95 1292.95 Q1128.95 1301.84 1131.21 1306.29 Q1133.49 1310.72 1138.01 1310.72 Q1142.55 1310.72 1144.81 1306.29 Q1147.09 1301.84 1147.09 1292.95 Q1147.09 1284.04 1144.81 1279.62 Q1142.55 1275.16 1138.01 1275.16 M1138.01 1270.53 Q1145.27 1270.53 1149.09 1276.29 Q1152.94 1282.02 1152.94 1292.95 Q1152.94 1303.86 1149.09 1309.62 Q1145.27 1315.35 1138.01 1315.35 Q1130.75 1315.35 1126.9 1309.62 Q1123.08 1303.86 1123.08 1292.95 Q1123.08 1282.02 1126.9 1276.29 Q1130.75 1270.53 1138.01 1270.53 Z" fill="#000000" fill-rule="nonzero" fill-opacity="1" /><path clip-path="url(#clip500)" d="M1381.86 1291.22 Q1386.05 1292.12 1388.4 1294.95 Q1390.77 1297.79 1390.77 1301.95 Q1390.77 1308.35 1386.37 1311.85 Q1381.97 1315.35 1373.87 1315.35 Q1371.15 1315.35 1368.26 1314.8 Q1365.39 1314.28 1362.32 1313.21 L1362.32 1307.57 Q1364.76 1308.98 1367.65 1309.71 Q1370.54 1310.43 1373.7 1310.43 Q1379.19 1310.43 1382.06 1308.26 Q1384.95 1306.09 1384.95 1301.95 Q1384.95 1298.13 1382.26 1295.99 Q1379.6 1293.82 1374.82 1293.82 L1369.79 1293.82 L1369.79 1289.02 L1375.06 1289.02 Q1379.37 1289.02 1381.65 1287.31 Q1383.94 1285.58 1383.94 1282.34 Q1383.94 1279.01 1381.57 1277.24 Q1379.22 1275.45 1374.82 1275.45 Q1372.42 1275.45 1369.67 1275.97 Q1366.93 1276.49 1363.63 1277.59 L1363.63 1272.38 Q1366.95 1271.46 1369.85 1270.99 Q1372.77 1270.53 1375.35 1270.53 Q1382 1270.53 1385.88 1273.57 Q1389.76 1276.58 1389.76 1281.73 Q1389.76 1285.32 1387.7 1287.8 Q1385.65 1290.26 1381.86 1291.22 Z" fill="#000000" fill-rule="nonzero" fill-opacity="1" /><path clip-path="url(#clip500)" d="M1414.35 1275.16 Q1409.84 1275.16 1407.55 1279.62 Q1405.29 1284.04 1405.29 1292.95 Q1405.29 1301.84 1407.55 1306.29 Q1409.84 1310.72 1414.35 1310.72 Q1418.89 1310.72 1421.15 1306.29 Q1423.44 1301.84 1423.44 1292.95 Q1423.44 1284.04 1421.15 1279.62 Q1418.89 1275.16 1414.35 1275.16 M1414.35 1270.53 Q1421.61 1270.53 1425.43 1276.29 Q1429.28 1282.02 1429.28 1292.95 Q1429.28 1303.86 1425.43 1309.62 Q1421.61 1315.35 1414.35 1315.35 Q1407.09 1315.35 1403.24 1309.62 Q1399.42 1303.86 1399.42 1292.95 Q1399.42 1282.02 1403.24 1276.29 Q1407.09 1270.53 1414.35 1270.53 Z" fill="#000000" fill-rule="nonzero" fill-opacity="1" /><path clip-path="url(#clip500)" d="M1657.45 1276.4 L1642.69 1299.47 L1657.45 1299.47 L1657.45 1276.4 M1655.91 1271.31 L1663.26 1271.31 L1663.26 1299.47 L1669.42 1299.47 L1669.42 1304.33 L1663.26 1304.33 L1663.26 1314.51 L1657.45 1314.51 L1657.45 1304.33 L1637.94 1304.33 L1637.94 1298.68 L1655.91 1271.31 Z" fill="#000000" fill-rule="nonzero" fill-opacity="1" /><path clip-path="url(#clip500)" d="M1691.59 1275.16 Q1687.07 1275.16 1684.79 1279.62 Q1682.53 1284.04 1682.53 1292.95 Q1682.53 1301.84 1684.79 1306.29 Q1687.07 1310.72 1691.59 1310.72 Q1696.13 1310.72 1698.39 1306.29 Q1700.67 1301.84 1700.67 1292.95 Q1700.67 1284.04 1698.39 1279.62 Q1696.13 1275.16 1691.59 1275.16 M1691.59 1270.53 Q1698.85 1270.53 1702.67 1276.29 Q1706.52 1282.02 1706.52 1292.95 Q1706.52 1303.86 1702.67 1309.62 Q1698.85 1315.35 1691.59 1315.35 Q1684.33 1315.35 1680.48 1309.62 Q1676.66 1303.86 1676.66 1292.95 Q1676.66 1282.02 1680.48 1276.29 Q1684.33 1270.53 1691.59 1270.53 Z" fill="#000000" fill-rule="nonzero" fill-opacity="1" /><path clip-path="url(#clip500)" d="M1917.03 1271.31 L1939.98 1271.31 L1939.98 1276.23 L1922.39 1276.23 L1922.39 1286.82 Q1923.66 1286.39 1924.93 1286.18 Q1926.21 1285.95 1927.48 1285.95 Q1934.71 1285.95 1938.94 1289.92 Q1943.16 1293.88 1943.16 1300.65 Q1943.16 1307.62 1938.82 1311.5 Q1934.48 1315.35 1926.58 1315.35 Q1923.86 1315.35 1921.03 1314.89 Q1918.22 1314.42 1915.21 1313.5 L1915.21 1307.62 Q1917.81 1309.04 1920.59 1309.74 Q1923.37 1310.43 1926.47 1310.43 Q1931.47 1310.43 1934.39 1307.8 Q1937.32 1305.17 1937.32 1300.65 Q1937.32 1296.14 1934.39 1293.5 Q1931.47 1290.87 1926.47 1290.87 Q1924.12 1290.87 1921.78 1291.39 Q1919.46 1291.91 1917.03 1293.01 L1917.03 1271.31 Z" fill="#000000" fill-rule="nonzero" fill-opacity="1" /><path clip-path="url(#clip500)" d="M1967.18 1275.16 Q1962.66 1275.16 1960.38 1279.62 Q1958.12 1284.04 1958.12 1292.95 Q1958.12 1301.84 1960.38 1306.29 Q1962.66 1310.72 1967.18 1310.72 Q1971.72 1310.72 1973.98 1306.29 Q1976.26 1301.84 1976.26 1292.95 Q1976.26 1284.04 1973.98 1279.62 Q1971.72 1275.16 1967.18 1275.16 M1967.18 1270.53 Q1974.44 1270.53 1978.26 1276.29 Q1982.11 1282.02 1982.11 1292.95 Q1982.11 1303.86 1978.26 1309.62 Q1974.44 1315.35 1967.18 1315.35 Q1959.92 1315.35 1956.07 1309.62 Q1952.25 1303.86 1952.25 1292.95 Q1952.25 1282.02 1956.07 1276.29 Q1959.92 1270.53 1967.18 1270.53 Z" fill="#000000" fill-rule="nonzero" fill-opacity="1" /><path clip-path="url(#clip500)" d="M2206.84 1290.58 Q2202.91 1290.58 2200.59 1293.27 Q2198.31 1295.96 2198.31 1300.65 Q2198.31 1305.31 2200.59 1308.03 Q2202.91 1310.72 2206.84 1310.72 Q2210.78 1310.72 2213.07 1308.03 Q2215.38 1305.31 2215.38 1300.65 Q2215.38 1295.96 2213.07 1293.27 Q2210.78 1290.58 2206.84 1290.58 M2218.45 1272.27 L2218.45 1277.59 Q2216.25 1276.55 2213.99 1276 Q2211.76 1275.45 2209.56 1275.45 Q2203.78 1275.45 2200.71 1279.36 Q2197.67 1283.26 2197.24 1291.16 Q2198.95 1288.64 2201.52 1287.31 Q2204.1 1285.95 2207.19 1285.95 Q2213.7 1285.95 2217.46 1289.92 Q2221.25 1293.85 2221.25 1300.65 Q2221.25 1307.31 2217.32 1311.33 Q2213.38 1315.35 2206.84 1315.35 Q2199.35 1315.35 2195.39 1309.62 Q2191.42 1303.86 2191.42 1292.95 Q2191.42 1282.71 2196.28 1276.64 Q2201.14 1270.53 2209.33 1270.53 Q2211.53 1270.53 2213.76 1270.96 Q2216.02 1271.4 2218.45 1272.27 Z" fill="#000000" fill-rule="nonzero" fill-opacity="1" /><path clip-path="url(#clip500)" d="M2243.82 1275.16 Q2239.31 1275.16 2237.02 1279.62 Q2234.77 1284.04 2234.77 1292.95 Q2234.77 1301.84 2237.02 1306.29 Q2239.31 1310.72 2243.82 1310.72 Q2248.37 1310.72 2250.62 1306.29 Q2252.91 1301.84 2252.91 1292.95 Q2252.91 1284.04 2250.62 1279.62 Q2248.37 1275.16 2243.82 1275.16 M2243.82 1270.53 Q2251.09 1270.53 2254.91 1276.29 Q2258.75 1282.02 2258.75 1292.95 Q2258.75 1303.86 2254.91 1309.62 Q2251.09 1315.35 2243.82 1315.35 Q2236.56 1315.35 2232.71 1309.62 Q2228.89 1303.86 2228.89 1292.95 Q2228.89 1282.02 2232.71 1276.29 Q2236.56 1270.53 2243.82 1270.53 Z" fill="#000000" fill-rule="nonzero" fill-opacity="1" /><path clip-path="url(#clip500)" d="M1277.34 1351.62 L1283.77 1351.62 L1283.77 1399.14 L1277.34 1399.14 L1277.34 1351.62 Z" fill="#000000" fill-rule="nonzero" fill-opacity="1" /><path clip-path="url(#clip500)" d="M1302.11 1353.37 L1302.11 1363.49 L1314.17 1363.49 L1314.17 1368.04 L1302.11 1368.04 L1302.11 1387.39 Q1302.11 1391.75 1303.28 1392.99 Q1304.49 1394.23 1308.15 1394.23 L1314.17 1394.23 L1314.17 1399.14 L1308.15 1399.14 Q1301.38 1399.14 1298.8 1396.62 Q1296.22 1394.07 1296.22 1387.39 L1296.22 1368.04 L1291.92 1368.04 L1291.92 1363.49 L1296.22 1363.49 L1296.22 1353.37 L1302.11 1353.37 Z" fill="#000000" fill-rule="nonzero" fill-opacity="1" /><path clip-path="url(#clip500)" d="M1352.36 1379.85 L1352.36 1382.71 L1325.44 1382.71 Q1325.82 1388.76 1329.07 1391.94 Q1332.34 1395.09 1338.17 1395.09 Q1341.54 1395.09 1344.69 1394.27 Q1347.88 1393.44 1351 1391.78 L1351 1397.32 Q1347.84 1398.66 1344.53 1399.36 Q1341.22 1400.06 1337.82 1400.06 Q1329.29 1400.06 1324.29 1395.09 Q1319.33 1390.13 1319.33 1381.66 Q1319.33 1372.91 1324.04 1367.78 Q1328.78 1362.63 1336.8 1362.63 Q1343.99 1362.63 1348.16 1367.28 Q1352.36 1371.89 1352.36 1379.85 M1346.51 1378.13 Q1346.44 1373.32 1343.8 1370.46 Q1341.19 1367.59 1336.86 1367.59 Q1331.96 1367.59 1329 1370.36 Q1326.07 1373.13 1325.63 1378.16 L1346.51 1378.13 Z" fill="#000000" fill-rule="nonzero" fill-opacity="1" /><path clip-path="url(#clip500)" d="M1382.63 1368.96 Q1381.65 1368.39 1380.47 1368.13 Q1379.32 1367.85 1377.92 1367.85 Q1372.96 1367.85 1370.28 1371.09 Q1367.64 1374.31 1367.64 1380.36 L1367.64 1399.14 L1361.75 1399.14 L1361.75 1363.49 L1367.64 1363.49 L1367.64 1369.03 Q1369.49 1365.78 1372.45 1364.22 Q1375.41 1362.63 1379.64 1362.63 Q1380.25 1362.63 1380.98 1362.72 Q1381.71 1362.79 1382.6 1362.95 L1382.63 1368.96 Z" fill="#000000" fill-rule="nonzero" fill-opacity="1" /><path clip-path="url(#clip500)" d="M1404.98 1381.22 Q1397.88 1381.22 1395.14 1382.84 Q1392.4 1384.46 1392.4 1388.38 Q1392.4 1391.5 1394.44 1393.34 Q1396.51 1395.16 1400.04 1395.16 Q1404.91 1395.16 1407.84 1391.72 Q1410.8 1388.25 1410.8 1382.52 L1410.8 1381.22 L1404.98 1381.22 M1416.66 1378.8 L1416.66 1399.14 L1410.8 1399.14 L1410.8 1393.72 Q1408.8 1396.97 1405.8 1398.53 Q1402.81 1400.06 1398.48 1400.06 Q1393.01 1400.06 1389.76 1397 Q1386.55 1393.92 1386.55 1388.76 Q1386.55 1382.74 1390.56 1379.69 Q1394.6 1376.63 1402.59 1376.63 L1410.8 1376.63 L1410.8 1376.06 Q1410.8 1372.02 1408.13 1369.82 Q1405.49 1367.59 1400.68 1367.59 Q1397.62 1367.59 1394.73 1368.33 Q1391.83 1369.06 1389.16 1370.52 L1389.16 1365.11 Q1392.37 1363.87 1395.4 1363.26 Q1398.42 1362.63 1401.28 1362.63 Q1409.02 1362.63 1412.84 1366.64 Q1416.66 1370.65 1416.66 1378.8 Z" fill="#000000" fill-rule="nonzero" fill-opacity="1" /><path clip-path="url(#clip500)" d="M1434.51 1353.37 L1434.51 1363.49 L1446.58 1363.49 L1446.58 1368.04 L1434.51 1368.04 L1434.51 1387.39 Q1434.51 1391.75 1435.69 1392.99 Q1436.9 1394.23 1440.56 1394.23 L1446.58 1394.23 L1446.58 1399.14 L1440.56 1399.14 Q1433.78 1399.14 1431.2 1396.62 Q1428.63 1394.07 1428.63 1387.39 L1428.63 1368.04 L1424.33 1368.04 L1424.33 1363.49 L1428.63 1363.49 L1428.63 1353.37 L1434.51 1353.37 Z" fill="#000000" fill-rule="nonzero" fill-opacity="1" /><path clip-path="url(#clip500)" d="M1454.28 1363.49 L1460.14 1363.49 L1460.14 1399.14 L1454.28 1399.14 L1454.28 1363.49 M1454.28 1349.61 L1460.14 1349.61 L1460.14 1357.03 L1454.28 1357.03 L1454.28 1349.61 Z" fill="#000000" fill-rule="nonzero" fill-opacity="1" /><path clip-path="url(#clip500)" d="M1486.2 1367.59 Q1481.49 1367.59 1478.76 1371.29 Q1476.02 1374.95 1476.02 1381.34 Q1476.02 1387.74 1478.72 1391.43 Q1481.46 1395.09 1486.2 1395.09 Q1490.88 1395.09 1493.62 1391.4 Q1496.36 1387.71 1496.36 1381.34 Q1496.36 1375.01 1493.62 1371.32 Q1490.88 1367.59 1486.2 1367.59 M1486.2 1362.63 Q1493.84 1362.63 1498.2 1367.59 Q1502.56 1372.56 1502.56 1381.34 Q1502.56 1390.1 1498.2 1395.09 Q1493.84 1400.06 1486.2 1400.06 Q1478.53 1400.06 1474.17 1395.09 Q1469.84 1390.1 1469.84 1381.34 Q1469.84 1372.56 1474.17 1367.59 Q1478.53 1362.63 1486.2 1362.63 Z" fill="#000000" fill-rule="nonzero" fill-opacity="1" /><path clip-path="url(#clip500)" d="M1541.9 1377.62 L1541.9 1399.14 L1536.05 1399.14 L1536.05 1377.81 Q1536.05 1372.75 1534.07 1370.24 Q1532.1 1367.72 1528.15 1367.72 Q1523.41 1367.72 1520.67 1370.74 Q1517.94 1373.77 1517.94 1378.99 L1517.94 1399.14 L1512.05 1399.14 L1512.05 1363.49 L1517.94 1363.49 L1517.94 1369.03 Q1520.04 1365.81 1522.87 1364.22 Q1525.73 1362.63 1529.46 1362.63 Q1535.6 1362.63 1538.75 1366.45 Q1541.9 1370.24 1541.9 1377.62 Z" fill="#000000" fill-rule="nonzero" fill-opacity="1" /><polyline clip-path="url(#clip500)" style="stroke:#000000; stroke-linecap:round; stroke-linejoin:round; stroke-width:4; stroke-opacity:1; fill:none" points="545.232,1241.31 545.232,125.984 "/>
<polyline clip-path="url(#clip500)" style="stroke:#000000; stroke-linecap:round; stroke-linejoin:round; stroke-width:4; stroke-opacity:1; fill:none" points="545.232,1139.54 564.13,1139.54 "/>
<polyline clip-path="url(#clip500)" style="stroke:#000000; stroke-linecap:round; stroke-linejoin:round; stroke-width:4; stroke-opacity:1; fill:none" points="545.232,973.162 564.13,973.162 "/>
<polyline clip-path="url(#clip500)" style="stroke:#000000; stroke-linecap:round; stroke-linejoin:round; stroke-width:4; stroke-opacity:1; fill:none" points="545.232,806.784 564.13,806.784 "/>
<polyline clip-path="url(#clip500)" style="stroke:#000000; stroke-linecap:round; stroke-linejoin:round; stroke-width:4; stroke-opacity:1; fill:none" points="545.232,640.405 564.13,640.405 "/>
<polyline clip-path="url(#clip500)" style="stroke:#000000; stroke-linecap:round; stroke-linejoin:round; stroke-width:4; stroke-opacity:1; fill:none" points="545.232,474.026 564.13,474.026 "/>
<polyline clip-path="url(#clip500)" style="stroke:#000000; stroke-linecap:round; stroke-linejoin:round; stroke-width:4; stroke-opacity:1; fill:none" points="545.232,307.647 564.13,307.647 "/>
<polyline clip-path="url(#clip500)" style="stroke:#000000; stroke-linecap:round; stroke-linejoin:round; stroke-width:4; stroke-opacity:1; fill:none" points="545.232,141.269 564.13,141.269 "/>
<path clip-path="url(#clip500)" d="M318.985 1140.11 L356.079 1140.11 L356.079 1145.02 L318.985 1145.02 L318.985 1140.11 Z" fill="#000000" fill-rule="nonzero" fill-opacity="1" /><path clip-path="url(#clip500)" d="M368.753 1117.94 L391.698 1117.94 L391.698 1122.86 L374.106 1122.86 L374.106 1133.45 Q375.379 1133.02 376.652 1132.81 Q377.925 1132.58 379.198 1132.58 Q386.432 1132.58 390.657 1136.55 Q394.881 1140.51 394.881 1147.28 Q394.881 1154.25 390.541 1158.13 Q386.201 1161.98 378.301 1161.98 Q375.581 1161.98 372.746 1161.52 Q369.939 1161.05 366.93 1160.13 L366.93 1154.25 Q369.534 1155.67 372.312 1156.37 Q375.09 1157.06 378.186 1157.06 Q383.191 1157.06 386.114 1154.43 Q389.036 1151.8 389.036 1147.28 Q389.036 1142.77 386.114 1140.13 Q383.191 1137.5 378.186 1137.5 Q375.842 1137.5 373.498 1138.02 Q371.183 1138.54 368.753 1139.64 L368.753 1117.94 Z" fill="#000000" fill-rule="nonzero" fill-opacity="1" /><path clip-path="url(#clip500)" d="M406.455 1117.94 L429.401 1117.94 L429.401 1122.86 L411.808 1122.86 L411.808 1133.45 Q413.081 1133.02 414.354 1132.81 Q415.628 1132.58 416.901 1132.58 Q424.134 1132.58 428.359 1136.55 Q432.583 1140.51 432.583 1147.28 Q432.583 1154.25 428.243 1158.13 Q423.903 1161.98 416.004 1161.98 Q413.284 1161.98 410.448 1161.52 Q407.641 1161.05 404.632 1160.13 L404.632 1154.25 Q407.236 1155.67 410.014 1156.37 Q412.792 1157.06 415.888 1157.06 Q420.894 1157.06 423.816 1154.43 Q426.739 1151.8 426.739 1147.28 Q426.739 1142.77 423.816 1140.13 Q420.894 1137.5 415.888 1137.5 Q413.544 1137.5 411.201 1138.02 Q408.886 1138.54 406.455 1139.64 L406.455 1117.94 Z" fill="#000000" fill-rule="nonzero" fill-opacity="1" /><path clip-path="url(#clip500)" d="M456.6 1121.79 Q452.086 1121.79 449.8 1126.25 Q447.543 1130.67 447.543 1139.58 Q447.543 1148.47 449.8 1152.92 Q452.086 1157.35 456.6 1157.35 Q461.142 1157.35 463.399 1152.92 Q465.685 1148.47 465.685 1139.58 Q465.685 1130.67 463.399 1126.25 Q461.142 1121.79 456.6 1121.79 M456.6 1117.16 Q463.862 1117.16 467.682 1122.92 Q471.53 1128.65 471.53 1139.58 Q471.53 1150.49 467.682 1156.25 Q463.862 1161.98 456.6 1161.98 Q449.337 1161.98 445.489 1156.25 Q441.669 1150.49 441.669 1139.58 Q441.669 1128.65 445.489 1122.92 Q449.337 1117.16 456.6 1117.16 Z" fill="#000000" fill-rule="nonzero" fill-opacity="1" /><path clip-path="url(#clip500)" d="M494.302 1121.79 Q489.788 1121.79 487.502 1126.25 Q485.245 1130.67 485.245 1139.58 Q485.245 1148.47 487.502 1152.92 Q489.788 1157.35 494.302 1157.35 Q498.845 1157.35 501.102 1152.92 Q503.388 1148.47 503.388 1139.58 Q503.388 1130.67 501.102 1126.25 Q498.845 1121.79 494.302 1121.79 M494.302 1117.16 Q501.565 1117.16 505.384 1122.92 Q509.232 1128.65 509.232 1139.58 Q509.232 1150.49 505.384 1156.25 Q501.565 1161.98 494.302 1161.98 Q487.039 1161.98 483.191 1156.25 Q479.371 1150.49 479.371 1139.58 Q479.371 1128.65 483.191 1122.92 Q487.039 1117.16 494.302 1117.16 Z" fill="#000000" fill-rule="nonzero" fill-opacity="1" /><path clip-path="url(#clip500)" d="M318.985 973.727 L356.079 973.727 L356.079 978.646 L318.985 978.646 L318.985 973.727 Z" fill="#000000" fill-rule="nonzero" fill-opacity="1" /><path clip-path="url(#clip500)" d="M368.753 951.562 L391.698 951.562 L391.698 956.481 L374.106 956.481 L374.106 967.072 Q375.379 966.638 376.652 966.435 Q377.925 966.203 379.198 966.203 Q386.432 966.203 390.657 970.168 Q394.881 974.132 394.881 980.902 Q394.881 987.876 390.541 991.753 Q386.201 995.601 378.301 995.601 Q375.581 995.601 372.746 995.139 Q369.939 994.676 366.93 993.75 L366.93 987.876 Q369.534 989.294 372.312 989.988 Q375.09 990.683 378.186 990.683 Q383.191 990.683 386.114 988.049 Q389.036 985.416 389.036 980.902 Q389.036 976.389 386.114 973.756 Q383.191 971.122 378.186 971.122 Q375.842 971.122 373.498 971.643 Q371.183 972.164 368.753 973.264 L368.753 951.562 Z" fill="#000000" fill-rule="nonzero" fill-opacity="1" /><path clip-path="url(#clip500)" d="M422.456 956.655 L407.699 979.716 L422.456 979.716 L422.456 956.655 M420.923 951.562 L428.272 951.562 L428.272 979.716 L434.435 979.716 L434.435 984.577 L428.272 984.577 L428.272 994.762 L422.456 994.762 L422.456 984.577 L402.954 984.577 L402.954 978.935 L420.923 951.562 Z" fill="#000000" fill-rule="nonzero" fill-opacity="1" /><path clip-path="url(#clip500)" d="M456.6 955.411 Q452.086 955.411 449.8 959.867 Q447.543 964.294 447.543 973.206 Q447.543 982.089 449.8 986.545 Q452.086 990.972 456.6 990.972 Q461.142 990.972 463.399 986.545 Q465.685 982.089 465.685 973.206 Q465.685 964.294 463.399 959.867 Q461.142 955.411 456.6 955.411 M456.6 950.781 Q463.862 950.781 467.682 956.539 Q471.53 962.268 471.53 973.206 Q471.53 984.114 467.682 989.872 Q463.862 995.601 456.6 995.601 Q449.337 995.601 445.489 989.872 Q441.669 984.114 441.669 973.206 Q441.669 962.268 445.489 956.539 Q449.337 950.781 456.6 950.781 Z" fill="#000000" fill-rule="nonzero" fill-opacity="1" /><path clip-path="url(#clip500)" d="M494.302 955.411 Q489.788 955.411 487.502 959.867 Q485.245 964.294 485.245 973.206 Q485.245 982.089 487.502 986.545 Q489.788 990.972 494.302 990.972 Q498.845 990.972 501.102 986.545 Q503.388 982.089 503.388 973.206 Q503.388 964.294 501.102 959.867 Q498.845 955.411 494.302 955.411 M494.302 950.781 Q501.565 950.781 505.384 956.539 Q509.232 962.268 509.232 973.206 Q509.232 984.114 505.384 989.872 Q501.565 995.601 494.302 995.601 Q487.039 995.601 483.191 989.872 Q479.371 984.114 479.371 973.206 Q479.371 962.268 483.191 956.539 Q487.039 950.781 494.302 950.781 Z" fill="#000000" fill-rule="nonzero" fill-opacity="1" /><path clip-path="url(#clip500)" d="M318.985 807.348 L356.079 807.348 L356.079 812.267 L318.985 812.267 L318.985 807.348 Z" fill="#000000" fill-rule="nonzero" fill-opacity="1" /><path clip-path="url(#clip500)" d="M368.753 785.184 L391.698 785.184 L391.698 790.103 L374.106 790.103 L374.106 800.693 Q375.379 800.259 376.652 800.056 Q377.925 799.825 379.198 799.825 Q386.432 799.825 390.657 803.789 Q394.881 807.753 394.881 814.524 Q394.881 821.497 390.541 825.374 Q386.201 829.223 378.301 829.223 Q375.581 829.223 372.746 828.76 Q369.939 828.297 366.93 827.371 L366.93 821.497 Q369.534 822.915 372.312 823.609 Q375.09 824.304 378.186 824.304 Q383.191 824.304 386.114 821.671 Q389.036 819.038 389.036 814.524 Q389.036 810.01 386.114 807.377 Q383.191 804.744 378.186 804.744 Q375.842 804.744 373.498 805.265 Q371.183 805.785 368.753 806.885 L368.753 785.184 Z" fill="#000000" fill-rule="nonzero" fill-opacity="1" /><path clip-path="url(#clip500)" d="M424.106 805.091 Q428.301 805.988 430.645 808.824 Q433.018 811.659 433.018 815.826 Q433.018 822.22 428.619 825.722 Q424.221 829.223 416.119 829.223 Q413.4 829.223 410.506 828.673 Q407.641 828.152 404.574 827.082 L404.574 821.439 Q407.005 822.857 409.898 823.58 Q412.792 824.304 415.946 824.304 Q421.444 824.304 424.308 822.134 Q427.202 819.964 427.202 815.826 Q427.202 812.006 424.511 809.865 Q421.849 807.695 417.074 807.695 L412.04 807.695 L412.04 802.892 L417.306 802.892 Q421.617 802.892 423.903 801.185 Q426.189 799.449 426.189 796.208 Q426.189 792.88 423.816 791.115 Q421.472 789.321 417.074 789.321 Q414.673 789.321 411.924 789.842 Q409.175 790.363 405.876 791.463 L405.876 786.254 Q409.204 785.328 412.097 784.865 Q415.02 784.402 417.595 784.402 Q424.25 784.402 428.128 787.441 Q432.005 790.45 432.005 795.6 Q432.005 799.188 429.95 801.677 Q427.896 804.136 424.106 805.091 Z" fill="#000000" fill-rule="nonzero" fill-opacity="1" /><path clip-path="url(#clip500)" d="M456.6 789.032 Q452.086 789.032 449.8 793.488 Q447.543 797.915 447.543 806.827 Q447.543 815.71 449.8 820.166 Q452.086 824.593 456.6 824.593 Q461.142 824.593 463.399 820.166 Q465.685 815.71 465.685 806.827 Q465.685 797.915 463.399 793.488 Q461.142 789.032 456.6 789.032 M456.6 784.402 Q463.862 784.402 467.682 790.16 Q471.53 795.89 471.53 806.827 Q471.53 817.736 467.682 823.494 Q463.862 829.223 456.6 829.223 Q449.337 829.223 445.489 823.494 Q441.669 817.736 441.669 806.827 Q441.669 795.89 445.489 790.16 Q449.337 784.402 456.6 784.402 Z" fill="#000000" fill-rule="nonzero" fill-opacity="1" /><path clip-path="url(#clip500)" d="M494.302 789.032 Q489.788 789.032 487.502 793.488 Q485.245 797.915 485.245 806.827 Q485.245 815.71 487.502 820.166 Q489.788 824.593 494.302 824.593 Q498.845 824.593 501.102 820.166 Q503.388 815.71 503.388 806.827 Q503.388 797.915 501.102 793.488 Q498.845 789.032 494.302 789.032 M494.302 784.402 Q501.565 784.402 505.384 790.16 Q509.232 795.89 509.232 806.827 Q509.232 817.736 505.384 823.494 Q501.565 829.223 494.302 829.223 Q487.039 829.223 483.191 823.494 Q479.371 817.736 479.371 806.827 Q479.371 795.89 483.191 790.16 Q487.039 784.402 494.302 784.402 Z" fill="#000000" fill-rule="nonzero" fill-opacity="1" /><path clip-path="url(#clip500)" d="M318.985 640.969 L356.079 640.969 L356.079 645.888 L318.985 645.888 L318.985 640.969 Z" fill="#000000" fill-rule="nonzero" fill-opacity="1" /><path clip-path="url(#clip500)" d="M368.753 618.805 L391.698 618.805 L391.698 623.724 L374.106 623.724 L374.106 634.314 Q375.379 633.88 376.652 633.677 Q377.925 633.446 379.198 633.446 Q386.432 633.446 390.657 637.41 Q394.881 641.374 394.881 648.145 Q394.881 655.118 390.541 658.996 Q386.201 662.844 378.301 662.844 Q375.581 662.844 372.746 662.381 Q369.939 661.918 366.93 660.992 L366.93 655.118 Q369.534 656.536 372.312 657.231 Q375.09 657.925 378.186 657.925 Q383.191 657.925 386.114 655.292 Q389.036 652.659 389.036 648.145 Q389.036 643.631 386.114 640.998 Q383.191 638.365 378.186 638.365 Q375.842 638.365 373.498 638.886 Q371.183 639.407 368.753 640.506 L368.753 618.805 Z" fill="#000000" fill-rule="nonzero" fill-opacity="1" /><path clip-path="url(#clip500)" d="M411.432 657.086 L431.831 657.086 L431.831 662.005 L404.401 662.005 L404.401 657.086 Q407.728 653.643 413.457 647.856 Q419.216 642.04 420.691 640.361 Q423.498 637.208 424.597 635.037 Q425.726 632.838 425.726 630.726 Q425.726 627.283 423.295 625.113 Q420.894 622.943 417.016 622.943 Q414.268 622.943 411.201 623.897 Q408.162 624.852 404.69 626.791 L404.69 620.888 Q408.22 619.47 411.287 618.747 Q414.354 618.024 416.901 618.024 Q423.614 618.024 427.607 621.38 Q431.6 624.737 431.6 630.35 Q431.6 633.012 430.587 635.414 Q429.603 637.786 426.97 641.027 Q426.247 641.866 422.369 645.888 Q418.492 649.881 411.432 657.086 Z" fill="#000000" fill-rule="nonzero" fill-opacity="1" /><path clip-path="url(#clip500)" d="M456.6 622.653 Q452.086 622.653 449.8 627.109 Q447.543 631.536 447.543 640.448 Q447.543 649.331 449.8 653.787 Q452.086 658.214 456.6 658.214 Q461.142 658.214 463.399 653.787 Q465.685 649.331 465.685 640.448 Q465.685 631.536 463.399 627.109 Q461.142 622.653 456.6 622.653 M456.6 618.024 Q463.862 618.024 467.682 623.782 Q471.53 629.511 471.53 640.448 Q471.53 651.357 467.682 657.115 Q463.862 662.844 456.6 662.844 Q449.337 662.844 445.489 657.115 Q441.669 651.357 441.669 640.448 Q441.669 629.511 445.489 623.782 Q449.337 618.024 456.6 618.024 Z" fill="#000000" fill-rule="nonzero" fill-opacity="1" /><path clip-path="url(#clip500)" d="M494.302 622.653 Q489.788 622.653 487.502 627.109 Q485.245 631.536 485.245 640.448 Q485.245 649.331 487.502 653.787 Q489.788 658.214 494.302 658.214 Q498.845 658.214 501.102 653.787 Q503.388 649.331 503.388 640.448 Q503.388 631.536 501.102 627.109 Q498.845 622.653 494.302 622.653 M494.302 618.024 Q501.565 618.024 505.384 623.782 Q509.232 629.511 509.232 640.448 Q509.232 651.357 505.384 657.115 Q501.565 662.844 494.302 662.844 Q487.039 662.844 483.191 657.115 Q479.371 651.357 479.371 640.448 Q479.371 629.511 483.191 623.782 Q487.039 618.024 494.302 618.024 Z" fill="#000000" fill-rule="nonzero" fill-opacity="1" /><path clip-path="url(#clip500)" d="M318.985 474.59 L356.079 474.59 L356.079 479.509 L318.985 479.509 L318.985 474.59 Z" fill="#000000" fill-rule="nonzero" fill-opacity="1" /><path clip-path="url(#clip500)" d="M368.753 452.426 L391.698 452.426 L391.698 457.345 L374.106 457.345 L374.106 467.935 Q375.379 467.501 376.652 467.299 Q377.925 467.067 379.198 467.067 Q386.432 467.067 390.657 471.031 Q394.881 474.995 394.881 481.766 Q394.881 488.74 390.541 492.617 Q386.201 496.465 378.301 496.465 Q375.581 496.465 372.746 496.002 Q369.939 495.539 366.93 494.613 L366.93 488.74 Q369.534 490.157 372.312 490.852 Q375.09 491.546 378.186 491.546 Q383.191 491.546 386.114 488.913 Q389.036 486.28 389.036 481.766 Q389.036 477.252 386.114 474.619 Q383.191 471.986 378.186 471.986 Q375.842 471.986 373.498 472.507 Q371.183 473.028 368.753 474.127 L368.753 452.426 Z" fill="#000000" fill-rule="nonzero" fill-opacity="1" /><path clip-path="url(#clip500)" d="M407.41 490.707 L416.959 490.707 L416.959 457.75 L406.571 459.833 L406.571 454.509 L416.901 452.426 L422.746 452.426 L422.746 490.707 L432.294 490.707 L432.294 495.626 L407.41 495.626 L407.41 490.707 Z" fill="#000000" fill-rule="nonzero" fill-opacity="1" /><path clip-path="url(#clip500)" d="M456.6 456.274 Q452.086 456.274 449.8 460.73 Q447.543 465.158 447.543 474.07 Q447.543 482.953 449.8 487.409 Q452.086 491.836 456.6 491.836 Q461.142 491.836 463.399 487.409 Q465.685 482.953 465.685 474.07 Q465.685 465.158 463.399 460.73 Q461.142 456.274 456.6 456.274 M456.6 451.645 Q463.862 451.645 467.682 457.403 Q471.53 463.132 471.53 474.07 Q471.53 484.978 467.682 490.736 Q463.862 496.465 456.6 496.465 Q449.337 496.465 445.489 490.736 Q441.669 484.978 441.669 474.07 Q441.669 463.132 445.489 457.403 Q449.337 451.645 456.6 451.645 Z" fill="#000000" fill-rule="nonzero" fill-opacity="1" /><path clip-path="url(#clip500)" d="M494.302 456.274 Q489.788 456.274 487.502 460.73 Q485.245 465.158 485.245 474.07 Q485.245 482.953 487.502 487.409 Q489.788 491.836 494.302 491.836 Q498.845 491.836 501.102 487.409 Q503.388 482.953 503.388 474.07 Q503.388 465.158 501.102 460.73 Q498.845 456.274 494.302 456.274 M494.302 451.645 Q501.565 451.645 505.384 457.403 Q509.232 463.132 509.232 474.07 Q509.232 484.978 505.384 490.736 Q501.565 496.465 494.302 496.465 Q487.039 496.465 483.191 490.736 Q479.371 484.978 479.371 474.07 Q479.371 463.132 483.191 457.403 Q487.039 451.645 494.302 451.645 Z" fill="#000000" fill-rule="nonzero" fill-opacity="1" /><path clip-path="url(#clip500)" d="M318.985 308.212 L356.079 308.212 L356.079 313.131 L318.985 313.131 L318.985 308.212 Z" fill="#000000" fill-rule="nonzero" fill-opacity="1" /><path clip-path="url(#clip500)" d="M368.753 286.047 L391.698 286.047 L391.698 290.966 L374.106 290.966 L374.106 301.557 Q375.379 301.123 376.652 300.92 Q377.925 300.688 379.198 300.688 Q386.432 300.688 390.657 304.653 Q394.881 308.617 394.881 315.387 Q394.881 322.361 390.541 326.238 Q386.201 330.086 378.301 330.086 Q375.581 330.086 372.746 329.624 Q369.939 329.161 366.93 328.235 L366.93 322.361 Q369.534 323.779 372.312 324.473 Q375.09 325.168 378.186 325.168 Q383.191 325.168 386.114 322.534 Q389.036 319.901 389.036 315.387 Q389.036 310.874 386.114 308.241 Q383.191 305.607 378.186 305.607 Q375.842 305.607 373.498 306.128 Q371.183 306.649 368.753 307.749 L368.753 286.047 Z" fill="#000000" fill-rule="nonzero" fill-opacity="1" /><path clip-path="url(#clip500)" d="M418.897 289.896 Q414.383 289.896 412.097 294.352 Q409.841 298.779 409.841 307.691 Q409.841 316.574 412.097 321.03 Q414.383 325.457 418.897 325.457 Q423.44 325.457 425.697 321.03 Q427.983 316.574 427.983 307.691 Q427.983 298.779 425.697 294.352 Q423.44 289.896 418.897 289.896 M418.897 285.266 Q426.16 285.266 429.979 291.024 Q433.828 296.753 433.828 307.691 Q433.828 318.599 429.979 324.357 Q426.16 330.086 418.897 330.086 Q411.635 330.086 407.786 324.357 Q403.967 318.599 403.967 307.691 Q403.967 296.753 407.786 291.024 Q411.635 285.266 418.897 285.266 Z" fill="#000000" fill-rule="nonzero" fill-opacity="1" /><path clip-path="url(#clip500)" d="M456.6 289.896 Q452.086 289.896 449.8 294.352 Q447.543 298.779 447.543 307.691 Q447.543 316.574 449.8 321.03 Q452.086 325.457 456.6 325.457 Q461.142 325.457 463.399 321.03 Q465.685 316.574 465.685 307.691 Q465.685 298.779 463.399 294.352 Q461.142 289.896 456.6 289.896 M456.6 285.266 Q463.862 285.266 467.682 291.024 Q471.53 296.753 471.53 307.691 Q471.53 318.599 467.682 324.357 Q463.862 330.086 456.6 330.086 Q449.337 330.086 445.489 324.357 Q441.669 318.599 441.669 307.691 Q441.669 296.753 445.489 291.024 Q449.337 285.266 456.6 285.266 Z" fill="#000000" fill-rule="nonzero" fill-opacity="1" /><path clip-path="url(#clip500)" d="M494.302 289.896 Q489.788 289.896 487.502 294.352 Q485.245 298.779 485.245 307.691 Q485.245 316.574 487.502 321.03 Q489.788 325.457 494.302 325.457 Q498.845 325.457 501.102 321.03 Q503.388 316.574 503.388 307.691 Q503.388 298.779 501.102 294.352 Q498.845 289.896 494.302 289.896 M494.302 285.266 Q501.565 285.266 505.384 291.024 Q509.232 296.753 509.232 307.691 Q509.232 318.599 505.384 324.357 Q501.565 330.086 494.302 330.086 Q487.039 330.086 483.191 324.357 Q479.371 318.599 479.371 307.691 Q479.371 296.753 483.191 291.024 Q487.039 285.266 494.302 285.266 Z" fill="#000000" fill-rule="nonzero" fill-opacity="1" /><path clip-path="url(#clip500)" d="M318.985 141.833 L356.079 141.833 L356.079 146.752 L318.985 146.752 L318.985 141.833 Z" fill="#000000" fill-rule="nonzero" fill-opacity="1" /><path clip-path="url(#clip500)" d="M384.754 124.761 L369.997 147.822 L384.754 147.822 L384.754 124.761 M383.22 119.669 L390.57 119.669 L390.57 147.822 L396.733 147.822 L396.733 152.683 L390.57 152.683 L390.57 162.869 L384.754 162.869 L384.754 152.683 L365.252 152.683 L365.252 147.041 L383.22 119.669 Z" fill="#000000" fill-rule="nonzero" fill-opacity="1" /><path clip-path="url(#clip500)" d="M406.571 161.972 L406.571 156.648 Q408.77 157.689 411.027 158.239 Q413.284 158.789 415.454 158.789 Q421.241 158.789 424.279 154.911 Q427.346 151.005 427.78 143.077 Q426.102 145.565 423.527 146.896 Q420.952 148.228 417.827 148.228 Q411.345 148.228 407.555 144.321 Q403.793 140.386 403.793 133.586 Q403.793 126.931 407.728 122.909 Q411.663 118.887 418.203 118.887 Q425.697 118.887 429.632 124.645 Q433.596 130.375 433.596 141.312 Q433.596 151.526 428.735 157.631 Q423.903 163.708 415.714 163.708 Q413.515 163.708 411.258 163.274 Q409.001 162.84 406.571 161.972 M418.203 143.656 Q422.138 143.656 424.424 140.965 Q426.739 138.274 426.739 133.586 Q426.739 128.928 424.424 126.237 Q422.138 123.517 418.203 123.517 Q414.268 123.517 411.953 126.237 Q409.667 128.928 409.667 133.586 Q409.667 138.274 411.953 140.965 Q414.268 143.656 418.203 143.656 Z" fill="#000000" fill-rule="nonzero" fill-opacity="1" /><path clip-path="url(#clip500)" d="M456.6 123.517 Q452.086 123.517 449.8 127.973 Q447.543 132.4 447.543 141.312 Q447.543 150.195 449.8 154.651 Q452.086 159.078 456.6 159.078 Q461.142 159.078 463.399 154.651 Q465.685 150.195 465.685 141.312 Q465.685 132.4 463.399 127.973 Q461.142 123.517 456.6 123.517 M456.6 118.887 Q463.862 118.887 467.682 124.645 Q471.53 130.375 471.53 141.312 Q471.53 152.221 467.682 157.979 Q463.862 163.708 456.6 163.708 Q449.337 163.708 445.489 157.979 Q441.669 152.221 441.669 141.312 Q441.669 130.375 445.489 124.645 Q449.337 118.887 456.6 118.887 Z" fill="#000000" fill-rule="nonzero" fill-opacity="1" /><path clip-path="url(#clip500)" d="M494.302 123.517 Q489.788 123.517 487.502 127.973 Q485.245 132.4 485.245 141.312 Q485.245 150.195 487.502 154.651 Q489.788 159.078 494.302 159.078 Q498.845 159.078 501.102 154.651 Q503.388 150.195 503.388 141.312 Q503.388 132.4 501.102 127.973 Q498.845 123.517 494.302 123.517 M494.302 118.887 Q501.565 118.887 505.384 124.645 Q509.232 130.375 509.232 141.312 Q509.232 152.221 505.384 157.979 Q501.565 163.708 494.302 163.708 Q487.039 163.708 483.191 157.979 Q479.371 152.221 479.371 141.312 Q479.371 130.375 483.191 124.645 Q487.039 118.887 494.302 118.887 Z" fill="#000000" fill-rule="nonzero" fill-opacity="1" /><path clip-path="url(#clip500)" d="M221.209 911.779 L221.209 905.35 L263.318 905.35 L263.318 882.21 L268.729 882.21 L268.729 911.779 L221.209 911.779 Z" fill="#000000" fill-rule="nonzero" fill-opacity="1" /><path clip-path="url(#clip500)" d="M237.186 863.049 Q237.186 867.76 240.879 870.497 Q244.539 873.235 250.936 873.235 Q257.334 873.235 261.026 870.529 Q264.686 867.792 264.686 863.049 Q264.686 858.371 260.994 855.633 Q257.302 852.896 250.936 852.896 Q244.603 852.896 240.91 855.633 Q237.186 858.371 237.186 863.049 M232.221 863.049 Q232.221 855.411 237.186 851.05 Q242.152 846.69 250.936 846.69 Q259.689 846.69 264.686 851.05 Q269.652 855.411 269.652 863.049 Q269.652 870.72 264.686 875.081 Q259.689 879.409 250.936 879.409 Q242.152 879.409 237.186 875.081 Q232.221 870.72 232.221 863.049 Z" fill="#000000" fill-rule="nonzero" fill-opacity="1" /><path clip-path="url(#clip500)" d="M250.491 813.524 Q244.125 813.524 240.624 816.166 Q237.123 818.776 237.123 823.518 Q237.123 828.229 240.624 830.871 Q244.125 833.481 250.491 833.481 Q256.825 833.481 260.326 830.871 Q263.827 828.229 263.827 823.518 Q263.827 818.776 260.326 816.166 Q256.825 813.524 250.491 813.524 M264.304 807.668 Q273.407 807.668 277.832 811.71 Q282.288 815.752 282.288 824.091 Q282.288 827.179 281.81 829.916 Q281.364 832.653 280.41 835.231 L274.712 835.231 Q276.113 832.653 276.781 830.139 Q277.45 827.624 277.45 825.014 Q277.45 819.253 274.426 816.389 Q271.434 813.524 265.355 813.524 L262.458 813.524 Q265.609 815.338 267.169 818.171 Q268.729 821.004 268.729 824.951 Q268.729 831.507 263.731 835.518 Q258.734 839.528 250.491 839.528 Q242.215 839.528 237.218 835.518 Q232.221 831.507 232.221 824.951 Q232.221 821.004 233.781 818.171 Q235.34 815.338 238.491 813.524 L233.081 813.524 L233.081 807.668 L264.304 807.668 Z" fill="#000000" fill-rule="nonzero" fill-opacity="1" /><path clip-path="url(#clip500)" d="M248.263 798.565 L248.263 781.409 L253.483 781.409 L253.483 798.565 L248.263 798.565 Z" fill="#000000" fill-rule="nonzero" fill-opacity="1" /><path clip-path="url(#clip500)" d="M221.209 771.829 L221.209 765.399 L263.318 765.399 L263.318 742.26 L268.729 742.26 L268.729 771.829 L221.209 771.829 Z" fill="#000000" fill-rule="nonzero" fill-opacity="1" /><path clip-path="url(#clip500)" d="M233.081 735.767 L233.081 729.911 L268.729 729.911 L268.729 735.767 L233.081 735.767 M219.203 735.767 L219.203 729.911 L226.619 729.911 L226.619 735.767 L219.203 735.767 Z" fill="#000000" fill-rule="nonzero" fill-opacity="1" /><path clip-path="url(#clip500)" d="M219.203 717.879 L219.203 711.991 L248.454 711.991 L233.081 694.517 L233.081 687.038 L249.759 705.944 L268.729 686.242 L268.729 693.881 L251.318 711.991 L268.729 711.991 L268.729 717.879 L219.203 717.879 Z" fill="#000000" fill-rule="nonzero" fill-opacity="1" /><path clip-path="url(#clip500)" d="M249.44 651.74 L252.305 651.74 L252.305 678.667 Q258.352 678.285 261.535 675.038 Q264.686 671.76 264.686 665.935 Q264.686 662.561 263.859 659.41 Q263.031 656.228 261.376 653.108 L266.914 653.108 Q268.251 656.259 268.951 659.57 Q269.652 662.88 269.652 666.285 Q269.652 674.815 264.686 679.813 Q259.721 684.778 251.255 684.778 Q242.502 684.778 237.377 680.067 Q232.221 675.325 232.221 667.304 Q232.221 660.111 236.868 655.941 Q241.483 651.74 249.44 651.74 M247.722 657.596 Q242.916 657.66 240.051 660.302 Q237.186 662.912 237.186 667.24 Q237.186 672.142 239.956 675.102 Q242.725 678.03 247.754 678.476 L247.722 657.596 Z" fill="#000000" fill-rule="nonzero" fill-opacity="1" /><path clip-path="url(#clip500)" d="M219.203 642.128 L219.203 636.271 L268.729 636.271 L268.729 642.128 L219.203 642.128 Z" fill="#000000" fill-rule="nonzero" fill-opacity="1" /><path clip-path="url(#clip500)" d="M233.081 624.017 L233.081 618.161 L268.729 618.161 L268.729 624.017 L233.081 624.017 M219.203 624.017 L219.203 618.161 L226.619 618.161 L226.619 624.017 L219.203 624.017 Z" fill="#000000" fill-rule="nonzero" fill-opacity="1" /><path clip-path="url(#clip500)" d="M247.212 576.274 L268.729 576.274 L268.729 582.131 L247.403 582.131 Q242.343 582.131 239.828 584.104 Q237.314 586.078 237.314 590.024 Q237.314 594.767 240.338 597.504 Q243.361 600.241 248.581 600.241 L268.729 600.241 L268.729 606.129 L219.203 606.129 L219.203 600.241 L238.619 600.241 Q235.404 598.141 233.813 595.308 Q232.221 592.443 232.221 588.719 Q232.221 582.576 236.041 579.425 Q239.828 576.274 247.212 576.274 Z" fill="#000000" fill-rule="nonzero" fill-opacity="1" /><path clip-path="url(#clip500)" d="M237.186 550.78 Q237.186 555.49 240.879 558.228 Q244.539 560.965 250.936 560.965 Q257.334 560.965 261.026 558.259 Q264.686 555.522 264.686 550.78 Q264.686 546.101 260.994 543.364 Q257.302 540.626 250.936 540.626 Q244.603 540.626 240.91 543.364 Q237.186 546.101 237.186 550.78 M232.221 550.78 Q232.221 543.141 237.186 538.78 Q242.152 534.42 250.936 534.42 Q259.689 534.42 264.686 538.78 Q269.652 543.141 269.652 550.78 Q269.652 558.45 264.686 562.811 Q259.689 567.14 250.936 567.14 Q242.152 567.14 237.186 562.811 Q232.221 558.45 232.221 550.78 Z" fill="#000000" fill-rule="nonzero" fill-opacity="1" /><path clip-path="url(#clip500)" d="M237.186 510.899 Q237.186 515.609 240.879 518.346 Q244.539 521.084 250.936 521.084 Q257.334 521.084 261.026 518.378 Q264.686 515.641 264.686 510.899 Q264.686 506.22 260.994 503.482 Q257.302 500.745 250.936 500.745 Q244.603 500.745 240.91 503.482 Q237.186 506.22 237.186 510.899 M232.221 510.899 Q232.221 503.26 237.186 498.899 Q242.152 494.539 250.936 494.539 Q259.689 494.539 264.686 498.899 Q269.652 503.26 269.652 510.899 Q269.652 518.569 264.686 522.93 Q259.689 527.258 250.936 527.258 Q242.152 527.258 237.186 522.93 Q232.221 518.569 232.221 510.899 Z" fill="#000000" fill-rule="nonzero" fill-opacity="1" /><path clip-path="url(#clip500)" d="M238.491 461.373 L219.203 461.373 L219.203 455.517 L268.729 455.517 L268.729 461.373 L263.381 461.373 Q266.564 463.219 268.124 466.052 Q269.652 468.853 269.652 472.8 Q269.652 479.261 264.495 483.335 Q259.339 487.377 250.936 487.377 Q242.534 487.377 237.377 483.335 Q232.221 479.261 232.221 472.8 Q232.221 468.853 233.781 466.052 Q235.309 463.219 238.491 461.373 M250.936 481.33 Q257.398 481.33 261.09 478.688 Q264.75 476.014 264.75 471.367 Q264.75 466.721 261.09 464.047 Q257.398 461.373 250.936 461.373 Q244.475 461.373 240.815 464.047 Q237.123 466.721 237.123 471.367 Q237.123 476.014 240.815 478.688 Q244.475 481.33 250.936 481.33 Z" fill="#000000" fill-rule="nonzero" fill-opacity="1" /><polyline clip-path="url(#clip502)" style="stroke:#000080; stroke-linecap:round; stroke-linejoin:round; stroke-width:8; stroke-opacity:1; fill:none" points="594.16,1209.75 621.803,819.157 649.446,703.222 677.089,634.15 704.732,583.7 732.374,543.023 760.017,508.255 787.66,477.151 815.303,448.144 842.946,420.884 870.589,396.372 898.231,375.119 925.874,356.785 953.517,340.74 981.16,326.495 1008.8,313.843 1036.45,302.682 1064.09,292.875 1091.73,284.238 1119.37,276.578 1147.02,269.719 1174.66,263.512 1202.3,257.838 1229.95,252.605 1257.59,247.735 1285.23,243.164 1312.87,238.838 1340.52,234.712 1368.16,230.749 1395.8,226.918 1423.45,223.194 1451.09,219.55 1478.73,215.959 1506.37,212.391 1534.02,208.809 1561.66,205.169 1589.3,201.433 1616.95,197.578 1644.59,193.619 1672.23,189.635 1699.87,185.769 1727.52,182.195 1755.16,179.048 1782.8,176.38 1810.45,174.157 1838.09,172.303 1865.73,170.738 1893.37,169.389 1921.02,168.2 1948.66,167.126 1976.3,166.134 2003.95,165.199 2031.59,164.301 2059.23,163.423 2086.87,162.549 2114.52,161.662 2142.16,160.744 2169.8,159.772 2197.45,158.72 2225.09,157.55 "/>
<circle clip-path="url(#clip502)" cx="594.16" cy="1209.75" r="10.8" fill="#000080" fill-rule="evenodd" fill-opacity="1" stroke="#000000" stroke-opacity="1" stroke-width="3.2"/>
<circle clip-path="url(#clip502)" cx="621.803" cy="819.157" r="10.8" fill="#000080" fill-rule="evenodd" fill-opacity="1" stroke="#000000" stroke-opacity="1" stroke-width="3.2"/>
<circle clip-path="url(#clip502)" cx="649.446" cy="703.222" r="10.8" fill="#000080" fill-rule="evenodd" fill-opacity="1" stroke="#000000" stroke-opacity="1" stroke-width="3.2"/>
<circle clip-path="url(#clip502)" cx="677.089" cy="634.15" r="10.8" fill="#000080" fill-rule="evenodd" fill-opacity="1" stroke="#000000" stroke-opacity="1" stroke-width="3.2"/>
<circle clip-path="url(#clip502)" cx="704.732" cy="583.7" r="10.8" fill="#000080" fill-rule="evenodd" fill-opacity="1" stroke="#000000" stroke-opacity="1" stroke-width="3.2"/>
<circle clip-path="url(#clip502)" cx="732.374" cy="543.023" r="10.8" fill="#000080" fill-rule="evenodd" fill-opacity="1" stroke="#000000" stroke-opacity="1" stroke-width="3.2"/>
<circle clip-path="url(#clip502)" cx="760.017" cy="508.255" r="10.8" fill="#000080" fill-rule="evenodd" fill-opacity="1" stroke="#000000" stroke-opacity="1" stroke-width="3.2"/>
<circle clip-path="url(#clip502)" cx="787.66" cy="477.151" r="10.8" fill="#000080" fill-rule="evenodd" fill-opacity="1" stroke="#000000" stroke-opacity="1" stroke-width="3.2"/>
<circle clip-path="url(#clip502)" cx="815.303" cy="448.144" r="10.8" fill="#000080" fill-rule="evenodd" fill-opacity="1" stroke="#000000" stroke-opacity="1" stroke-width="3.2"/>
<circle clip-path="url(#clip502)" cx="842.946" cy="420.884" r="10.8" fill="#000080" fill-rule="evenodd" fill-opacity="1" stroke="#000000" stroke-opacity="1" stroke-width="3.2"/>
<circle clip-path="url(#clip502)" cx="870.589" cy="396.372" r="10.8" fill="#000080" fill-rule="evenodd" fill-opacity="1" stroke="#000000" stroke-opacity="1" stroke-width="3.2"/>
<circle clip-path="url(#clip502)" cx="898.231" cy="375.119" r="10.8" fill="#000080" fill-rule="evenodd" fill-opacity="1" stroke="#000000" stroke-opacity="1" stroke-width="3.2"/>
<circle clip-path="url(#clip502)" cx="925.874" cy="356.785" r="10.8" fill="#000080" fill-rule="evenodd" fill-opacity="1" stroke="#000000" stroke-opacity="1" stroke-width="3.2"/>
<circle clip-path="url(#clip502)" cx="953.517" cy="340.74" r="10.8" fill="#000080" fill-rule="evenodd" fill-opacity="1" stroke="#000000" stroke-opacity="1" stroke-width="3.2"/>
<circle clip-path="url(#clip502)" cx="981.16" cy="326.495" r="10.8" fill="#000080" fill-rule="evenodd" fill-opacity="1" stroke="#000000" stroke-opacity="1" stroke-width="3.2"/>
<circle clip-path="url(#clip502)" cx="1008.8" cy="313.843" r="10.8" fill="#000080" fill-rule="evenodd" fill-opacity="1" stroke="#000000" stroke-opacity="1" stroke-width="3.2"/>
<circle clip-path="url(#clip502)" cx="1036.45" cy="302.682" r="10.8" fill="#000080" fill-rule="evenodd" fill-opacity="1" stroke="#000000" stroke-opacity="1" stroke-width="3.2"/>
<circle clip-path="url(#clip502)" cx="1064.09" cy="292.875" r="10.8" fill="#000080" fill-rule="evenodd" fill-opacity="1" stroke="#000000" stroke-opacity="1" stroke-width="3.2"/>
<circle clip-path="url(#clip502)" cx="1091.73" cy="284.238" r="10.8" fill="#000080" fill-rule="evenodd" fill-opacity="1" stroke="#000000" stroke-opacity="1" stroke-width="3.2"/>
<circle clip-path="url(#clip502)" cx="1119.37" cy="276.578" r="10.8" fill="#000080" fill-rule="evenodd" fill-opacity="1" stroke="#000000" stroke-opacity="1" stroke-width="3.2"/>
<circle clip-path="url(#clip502)" cx="1147.02" cy="269.719" r="10.8" fill="#000080" fill-rule="evenodd" fill-opacity="1" stroke="#000000" stroke-opacity="1" stroke-width="3.2"/>
<circle clip-path="url(#clip502)" cx="1174.66" cy="263.512" r="10.8" fill="#000080" fill-rule="evenodd" fill-opacity="1" stroke="#000000" stroke-opacity="1" stroke-width="3.2"/>
<circle clip-path="url(#clip502)" cx="1202.3" cy="257.838" r="10.8" fill="#000080" fill-rule="evenodd" fill-opacity="1" stroke="#000000" stroke-opacity="1" stroke-width="3.2"/>
<circle clip-path="url(#clip502)" cx="1229.95" cy="252.605" r="10.8" fill="#000080" fill-rule="evenodd" fill-opacity="1" stroke="#000000" stroke-opacity="1" stroke-width="3.2"/>
<circle clip-path="url(#clip502)" cx="1257.59" cy="247.735" r="10.8" fill="#000080" fill-rule="evenodd" fill-opacity="1" stroke="#000000" stroke-opacity="1" stroke-width="3.2"/>
<circle clip-path="url(#clip502)" cx="1285.23" cy="243.164" r="10.8" fill="#000080" fill-rule="evenodd" fill-opacity="1" stroke="#000000" stroke-opacity="1" stroke-width="3.2"/>
<circle clip-path="url(#clip502)" cx="1312.87" cy="238.838" r="10.8" fill="#000080" fill-rule="evenodd" fill-opacity="1" stroke="#000000" stroke-opacity="1" stroke-width="3.2"/>
<circle clip-path="url(#clip502)" cx="1340.52" cy="234.712" r="10.8" fill="#000080" fill-rule="evenodd" fill-opacity="1" stroke="#000000" stroke-opacity="1" stroke-width="3.2"/>
<circle clip-path="url(#clip502)" cx="1368.16" cy="230.749" r="10.8" fill="#000080" fill-rule="evenodd" fill-opacity="1" stroke="#000000" stroke-opacity="1" stroke-width="3.2"/>
<circle clip-path="url(#clip502)" cx="1395.8" cy="226.918" r="10.8" fill="#000080" fill-rule="evenodd" fill-opacity="1" stroke="#000000" stroke-opacity="1" stroke-width="3.2"/>
<circle clip-path="url(#clip502)" cx="1423.45" cy="223.194" r="10.8" fill="#000080" fill-rule="evenodd" fill-opacity="1" stroke="#000000" stroke-opacity="1" stroke-width="3.2"/>
<circle clip-path="url(#clip502)" cx="1451.09" cy="219.55" r="10.8" fill="#000080" fill-rule="evenodd" fill-opacity="1" stroke="#000000" stroke-opacity="1" stroke-width="3.2"/>
<circle clip-path="url(#clip502)" cx="1478.73" cy="215.959" r="10.8" fill="#000080" fill-rule="evenodd" fill-opacity="1" stroke="#000000" stroke-opacity="1" stroke-width="3.2"/>
<circle clip-path="url(#clip502)" cx="1506.37" cy="212.391" r="10.8" fill="#000080" fill-rule="evenodd" fill-opacity="1" stroke="#000000" stroke-opacity="1" stroke-width="3.2"/>
<circle clip-path="url(#clip502)" cx="1534.02" cy="208.809" r="10.8" fill="#000080" fill-rule="evenodd" fill-opacity="1" stroke="#000000" stroke-opacity="1" stroke-width="3.2"/>
<circle clip-path="url(#clip502)" cx="1561.66" cy="205.169" r="10.8" fill="#000080" fill-rule="evenodd" fill-opacity="1" stroke="#000000" stroke-opacity="1" stroke-width="3.2"/>
<circle clip-path="url(#clip502)" cx="1589.3" cy="201.433" r="10.8" fill="#000080" fill-rule="evenodd" fill-opacity="1" stroke="#000000" stroke-opacity="1" stroke-width="3.2"/>
<circle clip-path="url(#clip502)" cx="1616.95" cy="197.578" r="10.8" fill="#000080" fill-rule="evenodd" fill-opacity="1" stroke="#000000" stroke-opacity="1" stroke-width="3.2"/>
<circle clip-path="url(#clip502)" cx="1644.59" cy="193.619" r="10.8" fill="#000080" fill-rule="evenodd" fill-opacity="1" stroke="#000000" stroke-opacity="1" stroke-width="3.2"/>
<circle clip-path="url(#clip502)" cx="1672.23" cy="189.635" r="10.8" fill="#000080" fill-rule="evenodd" fill-opacity="1" stroke="#000000" stroke-opacity="1" stroke-width="3.2"/>
<circle clip-path="url(#clip502)" cx="1699.87" cy="185.769" r="10.8" fill="#000080" fill-rule="evenodd" fill-opacity="1" stroke="#000000" stroke-opacity="1" stroke-width="3.2"/>
<circle clip-path="url(#clip502)" cx="1727.52" cy="182.195" r="10.8" fill="#000080" fill-rule="evenodd" fill-opacity="1" stroke="#000000" stroke-opacity="1" stroke-width="3.2"/>
<circle clip-path="url(#clip502)" cx="1755.16" cy="179.048" r="10.8" fill="#000080" fill-rule="evenodd" fill-opacity="1" stroke="#000000" stroke-opacity="1" stroke-width="3.2"/>
<circle clip-path="url(#clip502)" cx="1782.8" cy="176.38" r="10.8" fill="#000080" fill-rule="evenodd" fill-opacity="1" stroke="#000000" stroke-opacity="1" stroke-width="3.2"/>
<circle clip-path="url(#clip502)" cx="1810.45" cy="174.157" r="10.8" fill="#000080" fill-rule="evenodd" fill-opacity="1" stroke="#000000" stroke-opacity="1" stroke-width="3.2"/>
<circle clip-path="url(#clip502)" cx="1838.09" cy="172.303" r="10.8" fill="#000080" fill-rule="evenodd" fill-opacity="1" stroke="#000000" stroke-opacity="1" stroke-width="3.2"/>
<circle clip-path="url(#clip502)" cx="1865.73" cy="170.738" r="10.8" fill="#000080" fill-rule="evenodd" fill-opacity="1" stroke="#000000" stroke-opacity="1" stroke-width="3.2"/>
<circle clip-path="url(#clip502)" cx="1893.37" cy="169.389" r="10.8" fill="#000080" fill-rule="evenodd" fill-opacity="1" stroke="#000000" stroke-opacity="1" stroke-width="3.2"/>
<circle clip-path="url(#clip502)" cx="1921.02" cy="168.2" r="10.8" fill="#000080" fill-rule="evenodd" fill-opacity="1" stroke="#000000" stroke-opacity="1" stroke-width="3.2"/>
<circle clip-path="url(#clip502)" cx="1948.66" cy="167.126" r="10.8" fill="#000080" fill-rule="evenodd" fill-opacity="1" stroke="#000000" stroke-opacity="1" stroke-width="3.2"/>
<circle clip-path="url(#clip502)" cx="1976.3" cy="166.134" r="10.8" fill="#000080" fill-rule="evenodd" fill-opacity="1" stroke="#000000" stroke-opacity="1" stroke-width="3.2"/>
<circle clip-path="url(#clip502)" cx="2003.95" cy="165.199" r="10.8" fill="#000080" fill-rule="evenodd" fill-opacity="1" stroke="#000000" stroke-opacity="1" stroke-width="3.2"/>
<circle clip-path="url(#clip502)" cx="2031.59" cy="164.301" r="10.8" fill="#000080" fill-rule="evenodd" fill-opacity="1" stroke="#000000" stroke-opacity="1" stroke-width="3.2"/>
<circle clip-path="url(#clip502)" cx="2059.23" cy="163.423" r="10.8" fill="#000080" fill-rule="evenodd" fill-opacity="1" stroke="#000000" stroke-opacity="1" stroke-width="3.2"/>
<circle clip-path="url(#clip502)" cx="2086.87" cy="162.549" r="10.8" fill="#000080" fill-rule="evenodd" fill-opacity="1" stroke="#000000" stroke-opacity="1" stroke-width="3.2"/>
<circle clip-path="url(#clip502)" cx="2114.52" cy="161.662" r="10.8" fill="#000080" fill-rule="evenodd" fill-opacity="1" stroke="#000000" stroke-opacity="1" stroke-width="3.2"/>
<circle clip-path="url(#clip502)" cx="2142.16" cy="160.744" r="10.8" fill="#000080" fill-rule="evenodd" fill-opacity="1" stroke="#000000" stroke-opacity="1" stroke-width="3.2"/>
<circle clip-path="url(#clip502)" cx="2169.8" cy="159.772" r="10.8" fill="#000080" fill-rule="evenodd" fill-opacity="1" stroke="#000000" stroke-opacity="1" stroke-width="3.2"/>
<circle clip-path="url(#clip502)" cx="2197.45" cy="158.72" r="10.8" fill="#000080" fill-rule="evenodd" fill-opacity="1" stroke="#000000" stroke-opacity="1" stroke-width="3.2"/>
<circle clip-path="url(#clip502)" cx="2225.09" cy="157.55" r="10.8" fill="#000080" fill-rule="evenodd" fill-opacity="1" stroke="#000000" stroke-opacity="1" stroke-width="3.2"/>
</svg>
