<?xml version="1.0" encoding="utf-8"?>
<svg xmlns="http://www.w3.org/2000/svg" xmlns:xlink="http://www.w3.org/1999/xlink" width="700" height="450" viewBox="0 0 2800 1800">
<defs>
  <clipPath id="clip910">
    <rect x="0" y="0" width="2800" height="1800"/>
  </clipPath>
</defs>
<path clip-path="url(#clip910)" d="M0 1800 L2800 1800 L2800 -1.33227e-13 L0 -1.33227e-13  Z" fill="#ffffff" fill-rule="evenodd" fill-opacity="1"/>
<defs>
  <clipPath id="clip911">
    <rect x="422" y="125" width="2253" height="1318"/>
  </clipPath>
</defs>
<path clip-path="url(#clip910)" d="M422.247 1442.55 L2674.02 1442.55 L2674.02 125.984 L422.247 125.984  Z" fill="#ffffff" fill-rule="evenodd" fill-opacity="1"/>
<polyline clip-path="url(#clip911)" style="stroke:#000000; stroke-linecap:round; stroke-linejoin:round; stroke-width:2; stroke-opacity:0.1; fill:none" points="462.595,1442.55 462.595,125.984 "/>
<polyline clip-path="url(#clip911)" style="stroke:#000000; stroke-linecap:round; stroke-linejoin:round; stroke-width:2; stroke-opacity:0.1; fill:none" points="880.109,1442.55 880.109,125.984 "/>
<polyline clip-path="url(#clip911)" style="stroke:#000000; stroke-linecap:round; stroke-linejoin:round; stroke-width:2; stroke-opacity:0.1; fill:none" points="1297.62,1442.55 1297.62,125.984 "/>
<polyline clip-path="url(#clip911)" style="stroke:#000000; stroke-linecap:round; stroke-linejoin:round; stroke-width:2; stroke-opacity:0.1; fill:none" points="1715.14,1442.55 1715.14,125.984 "/>
<polyline clip-path="url(#clip911)" style="stroke:#000000; stroke-linecap:round; stroke-linejoin:round; stroke-width:2; stroke-opacity:0.1; fill:none" points="2132.65,1442.55 2132.65,125.984 "/>
<polyline clip-path="url(#clip911)" style="stroke:#000000; stroke-linecap:round; stroke-linejoin:round; stroke-width:2; stroke-opacity:0.1; fill:none" points="2550.16,1442.55 2550.16,125.984 "/>
<polyline clip-path="url(#clip911)" style="stroke:#000000; stroke-linecap:round; stroke-linejoin:round; stroke-width:2; stroke-opacity:0.1; fill:none" points="422.247,1442.55 2674.02,1442.55 "/>
<polyline clip-path="url(#clip911)" style="stroke:#000000; stroke-linecap:round; stroke-linejoin:round; stroke-width:2; stroke-opacity:0.1; fill:none" points="422.247,1240 2674.02,1240 "/>
<polyline clip-path="url(#clip911)" style="stroke:#000000; stroke-linecap:round; stroke-linejoin:round; stroke-width:2; stroke-opacity:0.1; fill:none" points="422.247,1037.45 2674.02,1037.45 "/>
<polyline clip-path="url(#clip911)" style="stroke:#000000; stroke-linecap:round; stroke-linejoin:round; stroke-width:2; stroke-opacity:0.1; fill:none" points="422.247,834.905 2674.02,834.905 "/>
<polyline clip-path="url(#clip911)" style="stroke:#000000; stroke-linecap:round; stroke-linejoin:round; stroke-width:2; stroke-opacity:0.1; fill:none" points="422.247,632.356 2674.02,632.356 "/>
<polyline clip-path="url(#clip911)" style="stroke:#000000; stroke-linecap:round; stroke-linejoin:round; stroke-width:2; stroke-opacity:0.1; fill:none" points="422.247,429.807 2674.02,429.807 "/>
<polyline clip-path="url(#clip911)" style="stroke:#000000; stroke-linecap:round; stroke-linejoin:round; stroke-width:2; stroke-opacity:0.1; fill:none" points="422.247,227.259 2674.02,227.259 "/>
<polyline clip-path="url(#clip910)" style="stroke:#000000; stroke-linecap:round; stroke-linejoin:round; stroke-width:4; stroke-opacity:1; fill:none" points="422.247,1442.55 2674.02,1442.55 "/>
<polyline clip-path="url(#clip910)" style="stroke:#000000; stroke-linecap:round; stroke-linejoin:round; stroke-width:4; stroke-opacity:1; fill:none" points="462.595,1442.55 462.595,1423.65 "/>
<polyline clip-path="url(#clip910)" style="stroke:#000000; stroke-linecap:round; stroke-linejoin:round; stroke-width:4; stroke-opacity:1; fill:none" points="880.109,1442.55 880.109,1423.65 "/>
<polyline clip-path="url(#clip910)" style="stroke:#000000; stroke-linecap:round; stroke-linejoin:round; stroke-width:4; stroke-opacity:1; fill:none" points="1297.62,1442.55 1297.62,1423.65 "/>
<polyline clip-path="url(#clip910)" style="stroke:#000000; stroke-linecap:round; stroke-linejoin:round; stroke-width:4; stroke-opacity:1; fill:none" points="1715.14,1442.55 1715.14,1423.65 "/>
<polyline clip-path="url(#clip910)" style="stroke:#000000; stroke-linecap:round; stroke-linejoin:round; stroke-width:4; stroke-opacity:1; fill:none" points="2132.65,1442.55 2132.65,1423.65 "/>
<polyline clip-path="url(#clip910)" style="stroke:#000000; stroke-linecap:round; stroke-linejoin:round; stroke-width:4; stroke-opacity:1; fill:none" points="2550.16,1442.55 2550.16,1423.65 "/>
<path clip-path="url(#clip910)" d="M462.595 1479.6 Q458.081 1479.6 455.795 1484.06 Q453.538 1488.48 453.538 1497.39 Q453.538 1506.28 455.795 1510.73 Q458.081 1515.16 462.595 1515.16 Q467.138 1515.16 469.395 1510.73 Q471.681 1506.28 471.681 1497.39 Q471.681 1488.48 469.395 1484.06 Q467.138 1479.6 462.595 1479.6 M462.595 1474.97 Q469.858 1474.97 473.677 1480.73 Q477.526 1486.46 477.526 1497.39 Q477.526 1508.3 473.677 1514.06 Q469.858 1519.79 462.595 1519.79 Q455.332 1519.79 451.484 1514.06 Q447.665 1508.3 447.665 1497.39 Q447.665 1486.46 451.484 1480.73 Q455.332 1474.97 462.595 1474.97 Z" fill="#000000" fill-rule="nonzero" fill-opacity="1" /><path clip-path="url(#clip910)" d="M848.469 1514.03 L858.017 1514.03 L858.017 1481.08 L847.629 1483.16 L847.629 1477.83 L857.959 1475.75 L863.804 1475.75 L863.804 1514.03 L873.353 1514.03 L873.353 1518.95 L848.469 1518.95 L848.469 1514.03 Z" fill="#000000" fill-rule="nonzero" fill-opacity="1" /><path clip-path="url(#clip910)" d="M897.658 1479.6 Q893.144 1479.6 890.858 1484.06 Q888.601 1488.48 888.601 1497.39 Q888.601 1506.28 890.858 1510.73 Q893.144 1515.16 897.658 1515.16 Q902.201 1515.16 904.458 1510.73 Q906.744 1506.28 906.744 1497.39 Q906.744 1488.48 904.458 1484.06 Q902.201 1479.6 897.658 1479.6 M897.658 1474.97 Q904.921 1474.97 908.74 1480.73 Q912.589 1486.46 912.589 1497.39 Q912.589 1508.3 908.74 1514.06 Q904.921 1519.79 897.658 1519.79 Q890.395 1519.79 886.547 1514.06 Q882.728 1508.3 882.728 1497.39 Q882.728 1486.46 886.547 1480.73 Q890.395 1474.97 897.658 1474.97 Z" fill="#000000" fill-rule="nonzero" fill-opacity="1" /><path clip-path="url(#clip910)" d="M1271.09 1514.03 L1291.49 1514.03 L1291.49 1518.95 L1264.06 1518.95 L1264.06 1514.03 Q1267.39 1510.59 1273.11 1504.8 Q1278.87 1498.99 1280.35 1497.31 Q1283.16 1494.15 1284.25 1491.98 Q1285.38 1489.78 1285.38 1487.67 Q1285.38 1484.23 1282.95 1482.06 Q1280.55 1479.89 1276.67 1479.89 Q1273.93 1479.89 1270.86 1480.84 Q1267.82 1481.8 1264.35 1483.74 L1264.35 1477.83 Q1267.88 1476.42 1270.94 1475.69 Q1274.01 1474.97 1276.56 1474.97 Q1283.27 1474.97 1287.26 1478.33 Q1291.26 1481.68 1291.26 1487.3 Q1291.26 1489.96 1290.24 1492.36 Q1289.26 1494.73 1286.63 1497.97 Q1285.9 1498.81 1282.03 1502.83 Q1278.15 1506.83 1271.09 1514.03 Z" fill="#000000" fill-rule="nonzero" fill-opacity="1" /><path clip-path="url(#clip910)" d="M1316.26 1479.6 Q1311.74 1479.6 1309.46 1484.06 Q1307.2 1488.48 1307.2 1497.39 Q1307.2 1506.28 1309.46 1510.73 Q1311.74 1515.16 1316.26 1515.16 Q1320.8 1515.16 1323.06 1510.73 Q1325.34 1506.28 1325.34 1497.39 Q1325.34 1488.48 1323.06 1484.06 Q1320.8 1479.6 1316.26 1479.6 M1316.26 1474.97 Q1323.52 1474.97 1327.34 1480.73 Q1331.19 1486.46 1331.19 1497.39 Q1331.19 1508.3 1327.34 1514.06 Q1323.52 1519.79 1316.26 1519.79 Q1308.99 1519.79 1305.15 1514.06 Q1301.33 1508.3 1301.33 1497.39 Q1301.33 1486.46 1305.15 1480.73 Q1308.99 1474.97 1316.26 1474.97 Z" fill="#000000" fill-rule="nonzero" fill-opacity="1" /><path clip-path="url(#clip910)" d="M1701.19 1495.66 Q1705.39 1496.56 1707.73 1499.39 Q1710.1 1502.23 1710.1 1506.39 Q1710.1 1512.79 1705.7 1516.29 Q1701.31 1519.79 1693.2 1519.79 Q1690.48 1519.79 1687.59 1519.24 Q1684.73 1518.72 1681.66 1517.65 L1681.66 1512.01 Q1684.09 1513.42 1686.98 1514.15 Q1689.88 1514.87 1693.03 1514.87 Q1698.53 1514.87 1701.39 1512.7 Q1704.29 1510.53 1704.29 1506.39 Q1704.29 1502.57 1701.6 1500.43 Q1698.93 1498.26 1694.16 1498.26 L1689.12 1498.26 L1689.12 1493.46 L1694.39 1493.46 Q1698.7 1493.46 1700.99 1491.75 Q1703.27 1490.02 1703.27 1486.78 Q1703.27 1483.45 1700.9 1481.68 Q1698.56 1479.89 1694.16 1479.89 Q1691.76 1479.89 1689.01 1480.41 Q1686.26 1480.93 1682.96 1482.03 L1682.96 1476.82 Q1686.29 1475.9 1689.18 1475.43 Q1692.1 1474.97 1694.68 1474.97 Q1701.33 1474.97 1705.21 1478.01 Q1709.09 1481.02 1709.09 1486.17 Q1709.09 1489.76 1707.03 1492.24 Q1704.98 1494.7 1701.19 1495.66 Z" fill="#000000" fill-rule="nonzero" fill-opacity="1" /><path clip-path="url(#clip910)" d="M1733.68 1479.6 Q1729.17 1479.6 1726.88 1484.06 Q1724.63 1488.48 1724.63 1497.39 Q1724.63 1506.28 1726.88 1510.73 Q1729.17 1515.16 1733.68 1515.16 Q1738.23 1515.16 1740.48 1510.73 Q1742.77 1506.28 1742.77 1497.39 Q1742.77 1488.48 1740.48 1484.06 Q1738.23 1479.6 1733.68 1479.6 M1733.68 1474.97 Q1740.95 1474.97 1744.77 1480.73 Q1748.61 1486.46 1748.61 1497.39 Q1748.61 1508.3 1744.77 1514.06 Q1740.95 1519.79 1733.68 1519.79 Q1726.42 1519.79 1722.57 1514.06 Q1718.75 1508.3 1718.75 1497.39 Q1718.75 1486.46 1722.57 1480.73 Q1726.42 1474.97 1733.68 1474.97 Z" fill="#000000" fill-rule="nonzero" fill-opacity="1" /><path clip-path="url(#clip910)" d="M2117.86 1480.84 L2103.11 1503.91 L2117.86 1503.91 L2117.86 1480.84 M2116.33 1475.75 L2123.68 1475.75 L2123.68 1503.91 L2129.84 1503.91 L2129.84 1508.77 L2123.68 1508.77 L2123.68 1518.95 L2117.86 1518.95 L2117.86 1508.77 L2098.36 1508.77 L2098.36 1503.12 L2116.33 1475.75 Z" fill="#000000" fill-rule="nonzero" fill-opacity="1" /><path clip-path="url(#clip910)" d="M2152.01 1479.6 Q2147.49 1479.6 2145.21 1484.06 Q2142.95 1488.48 2142.95 1497.39 Q2142.95 1506.28 2145.21 1510.73 Q2147.49 1515.16 2152.01 1515.16 Q2156.55 1515.16 2158.81 1510.73 Q2161.09 1506.28 2161.09 1497.39 Q2161.09 1488.48 2158.81 1484.06 Q2156.55 1479.6 2152.01 1479.6 M2152.01 1474.97 Q2159.27 1474.97 2163.09 1480.73 Q2166.94 1486.46 2166.94 1497.39 Q2166.94 1508.3 2163.09 1514.06 Q2159.27 1519.79 2152.01 1519.79 Q2144.75 1519.79 2140.9 1514.06 Q2137.08 1508.3 2137.08 1497.39 Q2137.08 1486.46 2140.9 1480.73 Q2144.75 1474.97 2152.01 1474.97 Z" fill="#000000" fill-rule="nonzero" fill-opacity="1" /><path clip-path="url(#clip910)" d="M2518.54 1475.75 L2541.48 1475.75 L2541.48 1480.67 L2523.89 1480.67 L2523.89 1491.26 Q2525.16 1490.83 2526.44 1490.62 Q2527.71 1490.39 2528.98 1490.39 Q2536.22 1490.39 2540.44 1494.36 Q2544.67 1498.32 2544.67 1505.09 Q2544.67 1512.06 2540.33 1515.94 Q2535.99 1519.79 2528.09 1519.79 Q2525.37 1519.79 2522.53 1519.33 Q2519.72 1518.86 2516.72 1517.94 L2516.72 1512.06 Q2519.32 1513.48 2522.1 1514.18 Q2524.88 1514.87 2527.97 1514.87 Q2532.98 1514.87 2535.9 1512.24 Q2538.82 1509.61 2538.82 1505.09 Q2538.82 1500.58 2535.9 1497.94 Q2532.98 1495.31 2527.97 1495.31 Q2525.63 1495.31 2523.28 1495.83 Q2520.97 1496.35 2518.54 1497.45 L2518.54 1475.75 Z" fill="#000000" fill-rule="nonzero" fill-opacity="1" /><path clip-path="url(#clip910)" d="M2568.68 1479.6 Q2564.17 1479.6 2561.88 1484.06 Q2559.63 1488.48 2559.63 1497.39 Q2559.63 1506.28 2561.88 1510.73 Q2564.17 1515.16 2568.68 1515.16 Q2573.23 1515.16 2575.48 1510.73 Q2577.77 1506.28 2577.77 1497.39 Q2577.77 1488.48 2575.48 1484.06 Q2573.23 1479.6 2568.68 1479.6 M2568.68 1474.97 Q2575.95 1474.97 2579.76 1480.73 Q2583.61 1486.46 2583.61 1497.39 Q2583.61 1508.3 2579.76 1514.06 Q2575.95 1519.79 2568.68 1519.79 Q2561.42 1519.79 2557.57 1514.06 Q2553.75 1508.3 2553.75 1497.39 Q2553.75 1486.46 2557.57 1480.73 Q2561.42 1474.97 2568.68 1474.97 Z" fill="#000000" fill-rule="nonzero" fill-opacity="1" /><path clip-path="url(#clip910)" d="M1506.91 1606.38 L1496.03 1570.73 L1502.33 1570.73 L1511.53 1600.65 Q1515.35 1596.7 1518.53 1591.23 Q1520.95 1587.12 1521.08 1583.55 Q1521.14 1581.87 1520.38 1578.68 Q1519.49 1574.9 1516.11 1570.73 L1522.03 1570.73 L1522.03 1570.73 Q1524.23 1573.56 1525.69 1577.51 Q1527.03 1581.14 1527.03 1583.62 Q1527.03 1589.86 1522.7 1595.43 Q1517.07 1602.68 1513.15 1606.38 L1506.91 1606.38 Z" fill="#000000" fill-rule="nonzero" fill-opacity="1" /><path clip-path="url(#clip910)" d="M1563.31 1617.2 L1563.31 1621.75 L1529.45 1621.75 L1529.45 1617.2 L1563.31 1617.2 Z" fill="#000000" fill-rule="nonzero" fill-opacity="1" /><path clip-path="url(#clip910)" d="M1568.6 1556.85 L1574.49 1556.85 L1574.49 1586.1 L1591.96 1570.73 L1599.44 1570.73 L1580.53 1587.41 L1600.23 1606.38 L1592.6 1606.38 L1574.49 1588.97 L1574.49 1606.38 L1568.6 1606.38 L1568.6 1556.85 Z" fill="#000000" fill-rule="nonzero" fill-opacity="1" /><polyline clip-path="url(#clip910)" style="stroke:#000000; stroke-linecap:round; stroke-linejoin:round; stroke-width:4; stroke-opacity:1; fill:none" points="422.247,1442.55 422.247,125.984 "/>
<polyline clip-path="url(#clip910)" style="stroke:#000000; stroke-linecap:round; stroke-linejoin:round; stroke-width:4; stroke-opacity:1; fill:none" points="422.247,1442.55 441.144,1442.55 "/>
<polyline clip-path="url(#clip910)" style="stroke:#000000; stroke-linecap:round; stroke-linejoin:round; stroke-width:4; stroke-opacity:1; fill:none" points="422.247,1240 441.144,1240 "/>
<polyline clip-path="url(#clip910)" style="stroke:#000000; stroke-linecap:round; stroke-linejoin:round; stroke-width:4; stroke-opacity:1; fill:none" points="422.247,1037.45 441.144,1037.45 "/>
<polyline clip-path="url(#clip910)" style="stroke:#000000; stroke-linecap:round; stroke-linejoin:round; stroke-width:4; stroke-opacity:1; fill:none" points="422.247,834.905 441.144,834.905 "/>
<polyline clip-path="url(#clip910)" style="stroke:#000000; stroke-linecap:round; stroke-linejoin:round; stroke-width:4; stroke-opacity:1; fill:none" points="422.247,632.356 441.144,632.356 "/>
<polyline clip-path="url(#clip910)" style="stroke:#000000; stroke-linecap:round; stroke-linejoin:round; stroke-width:4; stroke-opacity:1; fill:none" points="422.247,429.807 441.144,429.807 "/>
<polyline clip-path="url(#clip910)" style="stroke:#000000; stroke-linecap:round; stroke-linejoin:round; stroke-width:4; stroke-opacity:1; fill:none" points="422.247,227.259 441.144,227.259 "/>
<path clip-path="url(#clip910)" d="M365.316 1424.8 Q360.802 1424.8 358.516 1429.26 Q356.259 1433.68 356.259 1442.59 Q356.259 1451.48 358.516 1455.93 Q360.802 1460.36 365.316 1460.36 Q369.859 1460.36 372.116 1455.93 Q374.402 1451.48 374.402 1442.59 Q374.402 1433.68 372.116 1429.26 Q369.859 1424.8 365.316 1424.8 M365.316 1420.17 Q372.579 1420.17 376.398 1425.93 Q380.247 1431.66 380.247 1442.59 Q380.247 1453.5 376.398 1459.26 Q372.579 1464.99 365.316 1464.99 Q358.053 1464.99 354.205 1459.26 Q350.386 1453.5 350.386 1442.59 Q350.386 1431.66 354.205 1425.93 Q358.053 1420.17 365.316 1420.17 Z" fill="#000000" fill-rule="nonzero" fill-opacity="1" /><path clip-path="url(#clip910)" d="M359.847 1256.68 L380.247 1256.68 L380.247 1261.6 L352.816 1261.6 L352.816 1256.68 Q356.144 1253.24 361.873 1247.45 Q367.631 1241.64 369.107 1239.96 Q371.913 1236.81 373.013 1234.64 Q374.141 1232.44 374.141 1230.32 Q374.141 1226.88 371.711 1224.71 Q369.309 1222.54 365.432 1222.54 Q362.683 1222.54 359.616 1223.5 Q356.578 1224.45 353.106 1226.39 L353.106 1220.49 Q356.636 1219.07 359.703 1218.34 Q362.77 1217.62 365.316 1217.62 Q372.029 1217.62 376.022 1220.98 Q380.015 1224.33 380.015 1229.95 Q380.015 1232.61 379.002 1235.01 Q378.019 1237.38 375.385 1240.62 Q374.662 1241.46 370.785 1245.49 Q366.908 1249.48 359.847 1256.68 Z" fill="#000000" fill-rule="nonzero" fill-opacity="1" /><path clip-path="url(#clip910)" d="M368.267 1020.95 L353.511 1044.01 L368.267 1044.01 L368.267 1020.95 M366.734 1015.85 L374.083 1015.85 L374.083 1044.01 L380.247 1044.01 L380.247 1048.87 L374.083 1048.87 L374.083 1059.05 L368.267 1059.05 L368.267 1048.87 L348.765 1048.87 L348.765 1043.23 L366.734 1015.85 Z" fill="#000000" fill-rule="nonzero" fill-opacity="1" /><path clip-path="url(#clip910)" d="M365.837 832.576 Q361.902 832.576 359.587 835.267 Q357.301 837.958 357.301 842.645 Q357.301 847.304 359.587 850.024 Q361.902 852.715 365.837 852.715 Q369.772 852.715 372.058 850.024 Q374.373 847.304 374.373 842.645 Q374.373 837.958 372.058 835.267 Q369.772 832.576 365.837 832.576 M377.44 814.26 L377.44 819.584 Q375.241 818.542 372.984 817.993 Q370.756 817.443 368.557 817.443 Q362.77 817.443 359.703 821.349 Q356.665 825.255 356.23 833.155 Q357.938 830.637 360.513 829.306 Q363.088 827.946 366.184 827.946 Q372.695 827.946 376.456 831.91 Q380.247 835.845 380.247 842.645 Q380.247 849.3 376.311 853.322 Q372.376 857.344 365.837 857.344 Q358.343 857.344 354.379 851.615 Q350.415 845.857 350.415 834.948 Q350.415 824.705 355.276 818.629 Q360.137 812.524 368.325 812.524 Q370.524 812.524 372.752 812.958 Q375.009 813.392 377.44 814.26 Z" fill="#000000" fill-rule="nonzero" fill-opacity="1" /><path clip-path="url(#clip910)" d="M365.432 633.441 Q361.265 633.441 358.864 635.669 Q356.491 637.897 356.491 641.804 Q356.491 645.71 358.864 647.938 Q361.265 650.166 365.432 650.166 Q369.598 650.166 372 647.938 Q374.402 645.681 374.402 641.804 Q374.402 637.897 372 635.669 Q369.627 633.441 365.432 633.441 M359.587 630.953 Q355.825 630.027 353.713 627.452 Q351.63 624.877 351.63 621.173 Q351.63 615.994 355.305 612.984 Q359.008 609.975 365.432 609.975 Q371.884 609.975 375.559 612.984 Q379.234 615.994 379.234 621.173 Q379.234 624.877 377.122 627.452 Q375.038 630.027 371.306 630.953 Q375.53 631.937 377.874 634.801 Q380.247 637.666 380.247 641.804 Q380.247 648.082 376.398 651.439 Q372.579 654.795 365.432 654.795 Q358.285 654.795 354.437 651.439 Q350.617 648.082 350.617 641.804 Q350.617 637.666 352.99 634.801 Q355.362 631.937 359.587 630.953 M357.446 621.723 Q357.446 625.079 359.529 626.96 Q361.641 628.841 365.432 628.841 Q369.193 628.841 371.306 626.96 Q373.447 625.079 373.447 621.723 Q373.447 618.366 371.306 616.485 Q369.193 614.605 365.432 614.605 Q361.641 614.605 359.529 616.485 Q357.446 618.366 357.446 621.723 Z" fill="#000000" fill-rule="nonzero" fill-opacity="1" /><path clip-path="url(#clip910)" d="M316.127 446.489 L325.675 446.489 L325.675 413.532 L315.287 415.615 L315.287 410.291 L325.617 408.207 L331.462 408.207 L331.462 446.489 L341.011 446.489 L341.011 451.407 L316.127 451.407 L316.127 446.489 Z" fill="#000000" fill-rule="nonzero" fill-opacity="1" /><path clip-path="url(#clip910)" d="M365.316 412.056 Q360.802 412.056 358.516 416.512 Q356.259 420.939 356.259 429.851 Q356.259 438.734 358.516 443.19 Q360.802 447.617 365.316 447.617 Q369.859 447.617 372.116 443.19 Q374.402 438.734 374.402 429.851 Q374.402 420.939 372.116 416.512 Q369.859 412.056 365.316 412.056 M365.316 407.426 Q372.579 407.426 376.398 413.184 Q380.247 418.913 380.247 429.851 Q380.247 440.759 376.398 446.517 Q372.579 452.247 365.316 452.247 Q358.053 452.247 354.205 446.517 Q350.386 440.759 350.386 429.851 Q350.386 418.913 354.205 413.184 Q358.053 407.426 365.316 407.426 Z" fill="#000000" fill-rule="nonzero" fill-opacity="1" /><path clip-path="url(#clip910)" d="M318.123 243.94 L327.672 243.94 L327.672 210.983 L317.284 213.066 L317.284 207.742 L327.614 205.659 L333.459 205.659 L333.459 243.94 L343.007 243.94 L343.007 248.859 L318.123 248.859 L318.123 243.94 Z" fill="#000000" fill-rule="nonzero" fill-opacity="1" /><path clip-path="url(#clip910)" d="M359.847 243.94 L380.247 243.94 L380.247 248.859 L352.816 248.859 L352.816 243.94 Q356.144 240.496 361.873 234.709 Q367.631 228.893 369.107 227.215 Q371.913 224.061 373.013 221.891 Q374.141 219.692 374.141 217.58 Q374.141 214.137 371.711 211.966 Q369.309 209.796 365.432 209.796 Q362.683 209.796 359.616 210.751 Q356.578 211.706 353.106 213.645 L353.106 207.742 Q356.636 206.324 359.703 205.601 Q362.77 204.877 365.316 204.877 Q372.029 204.877 376.022 208.234 Q380.015 211.59 380.015 217.204 Q380.015 219.866 379.002 222.267 Q378.019 224.64 375.385 227.881 Q374.662 228.72 370.785 232.742 Q366.908 236.735 359.847 243.94 Z" fill="#000000" fill-rule="nonzero" fill-opacity="1" /><path clip-path="url(#clip910)" d="M215.172 840.127 L221.951 840.127 Q218.927 843.373 217.432 847.066 Q215.936 850.726 215.936 854.864 Q215.936 863.012 220.933 867.34 Q225.898 871.669 235.319 871.669 Q244.709 871.669 249.706 867.34 Q254.671 863.012 254.671 854.864 Q254.671 850.726 253.175 847.066 Q251.679 843.373 248.655 840.127 L255.371 840.127 Q257.663 843.501 258.809 847.288 Q259.954 851.044 259.954 855.246 Q259.954 866.035 253.366 872.242 Q246.746 878.449 235.319 878.449 Q223.861 878.449 217.272 872.242 Q210.652 866.035 210.652 855.246 Q210.652 850.98 211.798 847.225 Q212.912 843.437 215.172 840.127 Z" fill="#000000" fill-rule="nonzero" fill-opacity="1" /><path clip-path="url(#clip910)" d="M227.489 816.637 Q227.489 821.348 231.181 824.085 Q234.842 826.823 241.239 826.823 Q247.637 826.823 251.329 824.117 Q254.989 821.38 254.989 816.637 Q254.989 811.959 251.297 809.221 Q247.605 806.484 241.239 806.484 Q234.905 806.484 231.213 809.221 Q227.489 811.959 227.489 816.637 M222.524 816.637 Q222.524 808.999 227.489 804.638 Q232.455 800.278 241.239 800.278 Q249.992 800.278 254.989 804.638 Q259.954 808.999 259.954 816.637 Q259.954 824.308 254.989 828.669 Q249.992 832.997 241.239 832.997 Q232.455 832.997 227.489 828.669 Q222.524 824.308 222.524 816.637 Z" fill="#000000" fill-rule="nonzero" fill-opacity="1" /><path clip-path="url(#clip910)" d="M244.963 791.175 L223.383 791.175 L223.383 785.318 L244.74 785.318 Q249.801 785.318 252.347 783.345 Q254.862 781.371 254.862 777.425 Q254.862 772.682 251.838 769.945 Q248.814 767.176 243.595 767.176 L223.383 767.176 L223.383 761.32 L259.031 761.32 L259.031 767.176 L253.557 767.176 Q256.803 769.308 258.395 772.141 Q259.954 774.942 259.954 778.666 Q259.954 784.809 256.135 787.992 Q252.316 791.175 244.963 791.175 M222.524 776.438 L222.524 776.438 Z" fill="#000000" fill-rule="nonzero" fill-opacity="1" /><path clip-path="url(#clip910)" d="M237.515 719.624 L259.031 719.624 L259.031 725.481 L237.706 725.481 Q232.646 725.481 230.131 727.454 Q227.617 729.427 227.617 733.374 Q227.617 738.117 230.64 740.854 Q233.664 743.591 238.884 743.591 L259.031 743.591 L259.031 749.479 L223.383 749.479 L223.383 743.591 L228.922 743.591 Q225.707 741.49 224.116 738.658 Q222.524 735.793 222.524 732.069 Q222.524 725.926 226.344 722.775 Q230.131 719.624 237.515 719.624 Z" fill="#000000" fill-rule="nonzero" fill-opacity="1" /><path clip-path="url(#clip910)" d="M213.262 702.15 L223.383 702.15 L223.383 690.087 L227.935 690.087 L227.935 702.15 L247.287 702.15 Q251.647 702.15 252.889 700.973 Q254.13 699.763 254.13 696.103 L254.13 690.087 L259.031 690.087 L259.031 696.103 Q259.031 702.882 256.517 705.46 Q253.971 708.039 247.287 708.039 L227.935 708.039 L227.935 712.335 L223.383 712.335 L223.383 708.039 L213.262 708.039 L213.262 702.15 Z" fill="#000000" fill-rule="nonzero" fill-opacity="1" /><path clip-path="url(#clip911)" d="M546.098 1240 L546.098 1442.55 L629.601 1442.55 L629.601 1240 L546.098 1240 L546.098 1240  Z" fill="#4682b4" fill-rule="evenodd" fill-opacity="0.8"/>
<polyline clip-path="url(#clip911)" style="stroke:#000000; stroke-linecap:round; stroke-linejoin:round; stroke-width:4; stroke-opacity:0.8; fill:none" points="546.098,1240 546.098,1442.55 629.601,1442.55 629.601,1240 546.098,1240 "/>
<path clip-path="url(#clip911)" d="M629.601 1341.28 L629.601 1442.55 L713.103 1442.55 L713.103 1341.28 L629.601 1341.28 L629.601 1341.28  Z" fill="#4682b4" fill-rule="evenodd" fill-opacity="0.8"/>
<polyline clip-path="url(#clip911)" style="stroke:#000000; stroke-linecap:round; stroke-linejoin:round; stroke-width:4; stroke-opacity:0.8; fill:none" points="629.601,1341.28 629.601,1442.55 713.103,1442.55 713.103,1341.28 629.601,1341.28 "/>
<path clip-path="url(#clip911)" d="M713.103 1442.55 L713.103 1442.55 L796.606 1442.55 L796.606 1442.55 L713.103 1442.55 L713.103 1442.55  Z" fill="#4682b4" fill-rule="evenodd" fill-opacity="0.8"/>
<polyline clip-path="url(#clip911)" style="stroke:#000000; stroke-linecap:round; stroke-linejoin:round; stroke-width:4; stroke-opacity:0.8; fill:none" points="713.103,1442.55 713.103,1442.55 796.606,1442.55 713.103,1442.55 "/>
<path clip-path="url(#clip911)" d="M796.606 1442.55 L796.606 1442.55 L880.109 1442.55 L880.109 1442.55 L796.606 1442.55 L796.606 1442.55  Z" fill="#4682b4" fill-rule="evenodd" fill-opacity="0.8"/>
<polyline clip-path="url(#clip911)" style="stroke:#000000; stroke-linecap:round; stroke-linejoin:round; stroke-width:4; stroke-opacity:0.8; fill:none" points="796.606,1442.55 796.606,1442.55 880.109,1442.55 796.606,1442.55 "/>
<path clip-path="url(#clip911)" d="M880.109 1442.55 L880.109 1442.55 L963.612 1442.55 L963.612 1442.55 L880.109 1442.55 L880.109 1442.55  Z" fill="#4682b4" fill-rule="evenodd" fill-opacity="0.8"/>
<polyline clip-path="url(#clip911)" style="stroke:#000000; stroke-linecap:round; stroke-linejoin:round; stroke-width:4; stroke-opacity:0.8; fill:none" points="880.109,1442.55 880.109,1442.55 963.612,1442.55 880.109,1442.55 "/>
<path clip-path="url(#clip911)" d="M963.612 1442.55 L963.612 1442.55 L1047.11 1442.55 L1047.11 1442.55 L963.612 1442.55 L963.612 1442.55  Z" fill="#4682b4" fill-rule="evenodd" fill-opacity="0.8"/>
<polyline clip-path="url(#clip911)" style="stroke:#000000; stroke-linecap:round; stroke-linejoin:round; stroke-width:4; stroke-opacity:0.8; fill:none" points="963.612,1442.55 963.612,1442.55 1047.11,1442.55 963.612,1442.55 "/>
<path clip-path="url(#clip911)" d="M1047.11 1442.55 L1047.11 1442.55 L1130.62 1442.55 L1130.62 1442.55 L1047.11 1442.55 L1047.11 1442.55  Z" fill="#4682b4" fill-rule="evenodd" fill-opacity="0.8"/>
<polyline clip-path="url(#clip911)" style="stroke:#000000; stroke-linecap:round; stroke-linejoin:round; stroke-width:4; stroke-opacity:0.8; fill:none" points="1047.11,1442.55 1047.11,1442.55 1130.62,1442.55 1047.11,1442.55 "/>
<path clip-path="url(#clip911)" d="M1130.62 1442.55 L1130.62 1442.55 L1214.12 1442.55 L1214.12 1442.55 L1130.62 1442.55 L1130.62 1442.55  Z" fill="#4682b4" fill-rule="evenodd" fill-opacity="0.8"/>
<polyline clip-path="url(#clip911)" style="stroke:#000000; stroke-linecap:round; stroke-linejoin:round; stroke-width:4; stroke-opacity:0.8; fill:none" points="1130.62,1442.55 1130.62,1442.55 1214.12,1442.55 1130.62,1442.55 "/>
<path clip-path="url(#clip911)" d="M1214.12 1442.55 L1214.12 1442.55 L1297.62 1442.55 L1297.62 1442.55 L1214.12 1442.55 L1214.12 1442.55  Z" fill="#4682b4" fill-rule="evenodd" fill-opacity="0.8"/>
<polyline clip-path="url(#clip911)" style="stroke:#000000; stroke-linecap:round; stroke-linejoin:round; stroke-width:4; stroke-opacity:0.8; fill:none" points="1214.12,1442.55 1214.12,1442.55 1297.62,1442.55 1214.12,1442.55 "/>
<path clip-path="url(#clip911)" d="M1297.62 1442.55 L1297.62 1442.55 L1381.13 1442.55 L1381.13 1442.55 L1297.62 1442.55 L1297.62 1442.55  Z" fill="#4682b4" fill-rule="evenodd" fill-opacity="0.8"/>
<polyline clip-path="url(#clip911)" style="stroke:#000000; stroke-linecap:round; stroke-linejoin:round; stroke-width:4; stroke-opacity:0.8; fill:none" points="1297.62,1442.55 1297.62,1442.55 1381.13,1442.55 1297.62,1442.55 "/>
<path clip-path="url(#clip911)" d="M1381.13 1442.55 L1381.13 1442.55 L1464.63 1442.55 L1464.63 1442.55 L1381.13 1442.55 L1381.13 1442.55  Z" fill="#4682b4" fill-rule="evenodd" fill-opacity="0.8"/>
<polyline clip-path="url(#clip911)" style="stroke:#000000; stroke-linecap:round; stroke-linejoin:round; stroke-width:4; stroke-opacity:0.8; fill:none" points="1381.13,1442.55 1381.13,1442.55 1464.63,1442.55 1381.13,1442.55 "/>
<path clip-path="url(#clip911)" d="M1464.63 1442.55 L1464.63 1442.55 L1548.13 1442.55 L1548.13 1442.55 L1464.63 1442.55 L1464.63 1442.55  Z" fill="#4682b4" fill-rule="evenodd" fill-opacity="0.8"/>
<polyline clip-path="url(#clip911)" style="stroke:#000000; stroke-linecap:round; stroke-linejoin:round; stroke-width:4; stroke-opacity:0.8; fill:none" points="1464.63,1442.55 1464.63,1442.55 1548.13,1442.55 1464.63,1442.55 "/>
<path clip-path="url(#clip911)" d="M1548.13 1442.55 L1548.13 1442.55 L1631.63 1442.55 L1631.63 1442.55 L1548.13 1442.55 L1548.13 1442.55  Z" fill="#4682b4" fill-rule="evenodd" fill-opacity="0.8"/>
<polyline clip-path="url(#clip911)" style="stroke:#000000; stroke-linecap:round; stroke-linejoin:round; stroke-width:4; stroke-opacity:0.8; fill:none" points="1548.13,1442.55 1548.13,1442.55 1631.63,1442.55 1548.13,1442.55 "/>
<path clip-path="url(#clip911)" d="M1631.63 1442.55 L1631.63 1442.55 L1715.14 1442.55 L1715.14 1442.55 L1631.63 1442.55 L1631.63 1442.55  Z" fill="#4682b4" fill-rule="evenodd" fill-opacity="0.8"/>
<polyline clip-path="url(#clip911)" style="stroke:#000000; stroke-linecap:round; stroke-linejoin:round; stroke-width:4; stroke-opacity:0.8; fill:none" points="1631.63,1442.55 1631.63,1442.55 1715.14,1442.55 1631.63,1442.55 "/>
<path clip-path="url(#clip911)" d="M1715.14 1442.55 L1715.14 1442.55 L1798.64 1442.55 L1798.64 1442.55 L1715.14 1442.55 L1715.14 1442.55  Z" fill="#4682b4" fill-rule="evenodd" fill-opacity="0.8"/>
<polyline clip-path="url(#clip911)" style="stroke:#000000; stroke-linecap:round; stroke-linejoin:round; stroke-width:4; stroke-opacity:0.8; fill:none" points="1715.14,1442.55 1715.14,1442.55 1798.64,1442.55 1715.14,1442.55 "/>
<path clip-path="url(#clip911)" d="M1798.64 1341.28 L1798.64 1442.55 L1882.14 1442.55 L1882.14 1341.28 L1798.64 1341.28 L1798.64 1341.28  Z" fill="#4682b4" fill-rule="evenodd" fill-opacity="0.8"/>
<polyline clip-path="url(#clip911)" style="stroke:#000000; stroke-linecap:round; stroke-linejoin:round; stroke-width:4; stroke-opacity:0.8; fill:none" points="1798.64,1341.28 1798.64,1442.55 1882.14,1442.55 1882.14,1341.28 1798.64,1341.28 "/>
<path clip-path="url(#clip911)" d="M1882.14 1341.28 L1882.14 1442.55 L1965.65 1442.55 L1965.65 1341.28 L1882.14 1341.28 L1882.14 1341.28  Z" fill="#4682b4" fill-rule="evenodd" fill-opacity="0.8"/>
<polyline clip-path="url(#clip911)" style="stroke:#000000; stroke-linecap:round; stroke-linejoin:round; stroke-width:4; stroke-opacity:0.8; fill:none" points="1882.14,1341.28 1882.14,1442.55 1965.65,1442.55 1965.65,1341.28 1882.14,1341.28 "/>
<path clip-path="url(#clip911)" d="M1965.65 1442.55 L1965.65 1442.55 L2049.15 1442.55 L2049.15 1442.55 L1965.65 1442.55 L1965.65 1442.55  Z" fill="#4682b4" fill-rule="evenodd" fill-opacity="0.8"/>
<polyline clip-path="url(#clip911)" style="stroke:#000000; stroke-linecap:round; stroke-linejoin:round; stroke-width:4; stroke-opacity:0.8; fill:none" points="1965.65,1442.55 1965.65,1442.55 2049.15,1442.55 1965.65,1442.55 "/>
<path clip-path="url(#clip911)" d="M2049.15 1442.55 L2049.15 1442.55 L2132.65 1442.55 L2132.65 1442.55 L2049.15 1442.55 L2049.15 1442.55  Z" fill="#4682b4" fill-rule="evenodd" fill-opacity="0.8"/>
<polyline clip-path="url(#clip911)" style="stroke:#000000; stroke-linecap:round; stroke-linejoin:round; stroke-width:4; stroke-opacity:0.8; fill:none" points="2049.15,1442.55 2049.15,1442.55 2132.65,1442.55 2049.15,1442.55 "/>
<path clip-path="url(#clip911)" d="M2132.65 1442.55 L2132.65 1442.55 L2216.15 1442.55 L2216.15 1442.55 L2132.65 1442.55 L2132.65 1442.55  Z" fill="#4682b4" fill-rule="evenodd" fill-opacity="0.8"/>
<polyline clip-path="url(#clip911)" style="stroke:#000000; stroke-linecap:round; stroke-linejoin:round; stroke-width:4; stroke-opacity:0.8; fill:none" points="2132.65,1442.55 2132.65,1442.55 2216.15,1442.55 2132.65,1442.55 "/>
<path clip-path="url(#clip911)" d="M2216.15 1442.55 L2216.15 1442.55 L2299.66 1442.55 L2299.66 1442.55 L2216.15 1442.55 L2216.15 1442.55  Z" fill="#4682b4" fill-rule="evenodd" fill-opacity="0.8"/>
<polyline clip-path="url(#clip911)" style="stroke:#000000; stroke-linecap:round; stroke-linejoin:round; stroke-width:4; stroke-opacity:0.8; fill:none" points="2216.15,1442.55 2216.15,1442.55 2299.66,1442.55 2216.15,1442.55 "/>
<path clip-path="url(#clip911)" d="M2299.66 1442.55 L2299.66 1442.55 L2383.16 1442.55 L2383.16 1442.55 L2299.66 1442.55 L2299.66 1442.55  Z" fill="#4682b4" fill-rule="evenodd" fill-opacity="0.8"/>
<polyline clip-path="url(#clip911)" style="stroke:#000000; stroke-linecap:round; stroke-linejoin:round; stroke-width:4; stroke-opacity:0.8; fill:none" points="2299.66,1442.55 2299.66,1442.55 2383.16,1442.55 2299.66,1442.55 "/>
<path clip-path="url(#clip911)" d="M2383.16 1442.55 L2383.16 1442.55 L2466.66 1442.55 L2466.66 1442.55 L2383.16 1442.55 L2383.16 1442.55  Z" fill="#4682b4" fill-rule="evenodd" fill-opacity="0.8"/>
<polyline clip-path="url(#clip911)" style="stroke:#000000; stroke-linecap:round; stroke-linejoin:round; stroke-width:4; stroke-opacity:0.8; fill:none" points="2383.16,1442.55 2383.16,1442.55 2466.66,1442.55 2383.16,1442.55 "/>
<path clip-path="url(#clip911)" d="M2466.66 125.984 L2466.66 1442.55 L2550.16 1442.55 L2550.16 125.984 L2466.66 125.984 L2466.66 125.984  Z" fill="#4682b4" fill-rule="evenodd" fill-opacity="0.8"/>
<polyline clip-path="url(#clip911)" style="stroke:#000000; stroke-linecap:round; stroke-linejoin:round; stroke-width:4; stroke-opacity:0.8; fill:none" points="2466.66,125.984 2466.66,1442.55 2550.16,1442.55 2550.16,125.984 2466.66,125.984 "/>
<circle clip-path="url(#clip911)" style="fill:#4682b4; stroke:none; fill-opacity:0" cx="587.849" cy="1240" r="2"/>
<circle clip-path="url(#clip911)" style="fill:#4682b4; stroke:none; fill-opacity:0" cx="671.352" cy="1341.28" r="2"/>
<circle clip-path="url(#clip911)" style="fill:#4682b4; stroke:none; fill-opacity:0" cx="754.855" cy="1442.55" r="2"/>
<circle clip-path="url(#clip911)" style="fill:#4682b4; stroke:none; fill-opacity:0" cx="838.358" cy="1442.55" r="2"/>
<circle clip-path="url(#clip911)" style="fill:#4682b4; stroke:none; fill-opacity:0" cx="921.86" cy="1442.55" r="2"/>
<circle clip-path="url(#clip911)" style="fill:#4682b4; stroke:none; fill-opacity:0" cx="1005.36" cy="1442.55" r="2"/>
<circle clip-path="url(#clip911)" style="fill:#4682b4; stroke:none; fill-opacity:0" cx="1088.87" cy="1442.55" r="2"/>
<circle clip-path="url(#clip911)" style="fill:#4682b4; stroke:none; fill-opacity:0" cx="1172.37" cy="1442.55" r="2"/>
<circle clip-path="url(#clip911)" style="fill:#4682b4; stroke:none; fill-opacity:0" cx="1255.87" cy="1442.55" r="2"/>
<circle clip-path="url(#clip911)" style="fill:#4682b4; stroke:none; fill-opacity:0" cx="1339.37" cy="1442.55" r="2"/>
<circle clip-path="url(#clip911)" style="fill:#4682b4; stroke:none; fill-opacity:0" cx="1422.88" cy="1442.55" r="2"/>
<circle clip-path="url(#clip911)" style="fill:#4682b4; stroke:none; fill-opacity:0" cx="1506.38" cy="1442.55" r="2"/>
<circle clip-path="url(#clip911)" style="fill:#4682b4; stroke:none; fill-opacity:0" cx="1589.88" cy="1442.55" r="2"/>
<circle clip-path="url(#clip911)" style="fill:#4682b4; stroke:none; fill-opacity:0" cx="1673.39" cy="1442.55" r="2"/>
<circle clip-path="url(#clip911)" style="fill:#4682b4; stroke:none; fill-opacity:0" cx="1756.89" cy="1442.55" r="2"/>
<circle clip-path="url(#clip911)" style="fill:#4682b4; stroke:none; fill-opacity:0" cx="1840.39" cy="1341.28" r="2"/>
<circle clip-path="url(#clip911)" style="fill:#4682b4; stroke:none; fill-opacity:0" cx="1923.89" cy="1341.28" r="2"/>
<circle clip-path="url(#clip911)" style="fill:#4682b4; stroke:none; fill-opacity:0" cx="2007.4" cy="1442.55" r="2"/>
<circle clip-path="url(#clip911)" style="fill:#4682b4; stroke:none; fill-opacity:0" cx="2090.9" cy="1442.55" r="2"/>
<circle clip-path="url(#clip911)" style="fill:#4682b4; stroke:none; fill-opacity:0" cx="2174.4" cy="1442.55" r="2"/>
<circle clip-path="url(#clip911)" style="fill:#4682b4; stroke:none; fill-opacity:0" cx="2257.9" cy="1442.55" r="2"/>
<circle clip-path="url(#clip911)" style="fill:#4682b4; stroke:none; fill-opacity:0" cx="2341.41" cy="1442.55" r="2"/>
<circle clip-path="url(#clip911)" style="fill:#4682b4; stroke:none; fill-opacity:0" cx="2424.91" cy="1442.55" r="2"/>
<circle clip-path="url(#clip911)" style="fill:#4682b4; stroke:none; fill-opacity:0" cx="2508.41" cy="125.984" r="2"/>
<polyline clip-path="url(#clip911)" style="stroke:#ff0000; stroke-linecap:round; stroke-linejoin:round; stroke-width:8; stroke-opacity:1; fill:none" stroke-dasharray="32, 20" points="550.273,2759.12 550.273,-1190.58 "/>
<path clip-path="url(#clip910)" d="M596.755 1370.84 L587.849 1341.68 L593.005 1341.68 L600.531 1366.16 Q603.656 1362.93 606.261 1358.45 Q608.24 1355.09 608.344 1352.17 Q608.396 1350.79 607.771 1348.19 Q607.042 1345.09 604.281 1341.68 L609.125 1341.68 L609.125 1341.68 Q610.922 1344 612.12 1347.22 Q613.214 1350.19 613.214 1352.22 Q613.214 1357.33 609.672 1361.89 Q605.063 1367.82 601.86 1370.84 L596.755 1370.84 Z" fill="#ff0000" fill-rule="nonzero" fill-opacity="1" /><path clip-path="url(#clip910)" d="M642.901 1379.7 L642.901 1383.42 L615.193 1383.42 L615.193 1379.7 L642.901 1379.7 Z" fill="#ff0000" fill-rule="nonzero" fill-opacity="1" /><path clip-path="url(#clip910)" d="M670.114 1347.28 Q671.911 1344.05 674.411 1342.51 Q676.911 1340.97 680.297 1340.97 Q684.854 1340.97 687.328 1344.18 Q689.802 1347.36 689.802 1353.24 L689.802 1370.84 L684.984 1370.84 L684.984 1353.4 Q684.984 1349.2 683.5 1347.17 Q682.015 1345.14 678.969 1345.14 Q675.245 1345.14 673.083 1347.62 Q670.922 1350.09 670.922 1354.36 L670.922 1370.84 L666.104 1370.84 L666.104 1353.4 Q666.104 1349.18 664.62 1347.17 Q663.135 1345.14 660.036 1345.14 Q656.365 1345.14 654.203 1347.64 Q652.042 1350.12 652.042 1354.36 L652.042 1370.84 L647.224 1370.84 L647.224 1341.68 L652.042 1341.68 L652.042 1346.21 Q653.682 1343.53 655.974 1342.25 Q658.266 1340.97 661.417 1340.97 Q664.594 1340.97 666.807 1342.59 Q669.047 1344.2 670.114 1347.28 Z" fill="#ff0000" fill-rule="nonzero" fill-opacity="1" /><path clip-path="url(#clip910)" d="M699.359 1341.68 L704.151 1341.68 L704.151 1370.84 L699.359 1370.84 L699.359 1341.68 M699.359 1330.32 L704.151 1330.32 L704.151 1336.39 L699.359 1336.39 L699.359 1330.32 Z" fill="#ff0000" fill-rule="nonzero" fill-opacity="1" /><path clip-path="url(#clip910)" d="M738.421 1353.24 L738.421 1370.84 L733.63 1370.84 L733.63 1353.4 Q733.63 1349.26 732.015 1347.2 Q730.401 1345.14 727.171 1345.14 Q723.291 1345.14 721.052 1347.62 Q718.812 1350.09 718.812 1354.36 L718.812 1370.84 L713.994 1370.84 L713.994 1341.68 L718.812 1341.68 L718.812 1346.21 Q720.531 1343.58 722.849 1342.28 Q725.192 1340.97 728.239 1340.97 Q733.265 1340.97 735.843 1344.1 Q738.421 1347.2 738.421 1353.24 Z" fill="#ff0000" fill-rule="nonzero" fill-opacity="1" /><path clip-path="url(#clip910)" d="M765.557 1346.63 L798.942 1346.63 L798.942 1351 L765.557 1351 L765.557 1346.63 M765.557 1357.25 L798.942 1357.25 L798.942 1361.68 L765.557 1361.68 L765.557 1357.25 Z" fill="#ff0000" fill-rule="nonzero" fill-opacity="1" /><path clip-path="url(#clip910)" d="M831.78 1366.42 L850.14 1366.42 L850.14 1370.84 L825.452 1370.84 L825.452 1366.42 Q828.447 1363.32 833.603 1358.11 Q838.785 1352.88 840.114 1351.37 Q842.64 1348.53 843.629 1346.57 Q844.645 1344.59 844.645 1342.69 Q844.645 1339.59 842.457 1337.64 Q840.296 1335.69 836.806 1335.69 Q834.332 1335.69 831.572 1336.55 Q828.838 1337.41 825.713 1339.15 L825.713 1333.84 Q828.89 1332.56 831.65 1331.91 Q834.41 1331.26 836.702 1331.26 Q842.744 1331.26 846.337 1334.28 Q849.931 1337.3 849.931 1342.36 Q849.931 1344.75 849.02 1346.91 Q848.134 1349.05 845.765 1351.96 Q845.114 1352.72 841.624 1356.34 Q838.134 1359.93 831.78 1366.42 Z" fill="#ff0000" fill-rule="nonzero" fill-opacity="1" /><path clip-path="url(#clip910)" d="M861.181 1364.23 L866.676 1364.23 L866.676 1370.84 L861.181 1370.84 L861.181 1364.23 Z" fill="#ff0000" fill-rule="nonzero" fill-opacity="1" /><path clip-path="url(#clip910)" d="M879.046 1366.42 L887.639 1366.42 L887.639 1336.76 L878.29 1338.63 L878.29 1333.84 L887.587 1331.96 L892.848 1331.96 L892.848 1366.42 L901.441 1366.42 L901.441 1370.84 L879.046 1370.84 L879.046 1366.42 Z" fill="#ff0000" fill-rule="nonzero" fill-opacity="1" /></svg>
