<?xml version="1.0" encoding="utf-8"?>
<svg xmlns="http://www.w3.org/2000/svg" xmlns:xlink="http://www.w3.org/1999/xlink" width="700" height="500" viewBox="0 0 2800 2000">
<defs>
  <clipPath id="clip250">
    <rect x="0" y="0" width="2800" height="2000"/>
  </clipPath>
</defs>
<path clip-path="url(#clip250)" d="M0 2000 L2800 2000 L2800 -4.44089e-14 L0 -4.44089e-14  Z" fill="#ffffff" fill-rule="evenodd" fill-opacity="1"/>
<defs>
  <clipPath id="clip251">
    <rect x="448" y="125" width="2226" height="1506"/>
  </clipPath>
</defs>
<path clip-path="url(#clip250)" d="M448.779 1630.83 L2674.02 1630.83 L2674.02 125.984 L448.779 125.984  Z" fill="#ffffff" fill-rule="evenodd" fill-opacity="1"/>
<polyline clip-path="url(#clip251)" style="stroke:#000000; stroke-linecap:round; stroke-linejoin:round; stroke-width:2; stroke-opacity:0.1; fill:none" points="503.394,1630.83 503.394,125.984 "/>
<polyline clip-path="url(#clip251)" style="stroke:#000000; stroke-linecap:round; stroke-linejoin:round; stroke-width:2; stroke-opacity:0.1; fill:none" points="921.577,1630.83 921.577,125.984 "/>
<polyline clip-path="url(#clip251)" style="stroke:#000000; stroke-linecap:round; stroke-linejoin:round; stroke-width:2; stroke-opacity:0.1; fill:none" points="1339.76,1630.83 1339.76,125.984 "/>
<polyline clip-path="url(#clip251)" style="stroke:#000000; stroke-linecap:round; stroke-linejoin:round; stroke-width:2; stroke-opacity:0.1; fill:none" points="1757.94,1630.83 1757.94,125.984 "/>
<polyline clip-path="url(#clip251)" style="stroke:#000000; stroke-linecap:round; stroke-linejoin:round; stroke-width:2; stroke-opacity:0.1; fill:none" points="2176.13,1630.83 2176.13,125.984 "/>
<polyline clip-path="url(#clip251)" style="stroke:#000000; stroke-linecap:round; stroke-linejoin:round; stroke-width:2; stroke-opacity:0.1; fill:none" points="2594.31,1630.83 2594.31,125.984 "/>
<polyline clip-path="url(#clip251)" style="stroke:#000000; stroke-linecap:round; stroke-linejoin:round; stroke-width:2; stroke-opacity:0.1; fill:none" points="448.779,1388.02 2674.02,1388.02 "/>
<polyline clip-path="url(#clip251)" style="stroke:#000000; stroke-linecap:round; stroke-linejoin:round; stroke-width:2; stroke-opacity:0.1; fill:none" points="448.779,1009.14 2674.02,1009.14 "/>
<polyline clip-path="url(#clip251)" style="stroke:#000000; stroke-linecap:round; stroke-linejoin:round; stroke-width:2; stroke-opacity:0.1; fill:none" points="448.779,630.252 2674.02,630.252 "/>
<polyline clip-path="url(#clip251)" style="stroke:#000000; stroke-linecap:round; stroke-linejoin:round; stroke-width:2; stroke-opacity:0.1; fill:none" points="448.779,251.366 2674.02,251.366 "/>
<polyline clip-path="url(#clip250)" style="stroke:#000000; stroke-linecap:round; stroke-linejoin:round; stroke-width:4; stroke-opacity:1; fill:none" points="448.779,1630.83 2674.02,1630.83 "/>
<polyline clip-path="url(#clip250)" style="stroke:#000000; stroke-linecap:round; stroke-linejoin:round; stroke-width:4; stroke-opacity:1; fill:none" points="503.394,1630.83 503.394,1611.93 "/>
<polyline clip-path="url(#clip250)" style="stroke:#000000; stroke-linecap:round; stroke-linejoin:round; stroke-width:4; stroke-opacity:1; fill:none" points="921.577,1630.83 921.577,1611.93 "/>
<polyline clip-path="url(#clip250)" style="stroke:#000000; stroke-linecap:round; stroke-linejoin:round; stroke-width:4; stroke-opacity:1; fill:none" points="1339.76,1630.83 1339.76,1611.93 "/>
<polyline clip-path="url(#clip250)" style="stroke:#000000; stroke-linecap:round; stroke-linejoin:round; stroke-width:4; stroke-opacity:1; fill:none" points="1757.94,1630.83 1757.94,1611.93 "/>
<polyline clip-path="url(#clip250)" style="stroke:#000000; stroke-linecap:round; stroke-linejoin:round; stroke-width:4; stroke-opacity:1; fill:none" points="2176.13,1630.83 2176.13,1611.93 "/>
<polyline clip-path="url(#clip250)" style="stroke:#000000; stroke-linecap:round; stroke-linejoin:round; stroke-width:4; stroke-opacity:1; fill:none" points="2594.31,1630.83 2594.31,1611.93 "/>
<path clip-path="url(#clip250)" d="M503.394 1667.88 Q498.88 1667.88 496.594 1672.34 Q494.337 1676.76 494.337 1685.67 Q494.337 1694.56 496.594 1699.01 Q498.88 1703.44 503.394 1703.44 Q507.936 1703.44 510.193 1699.01 Q512.479 1694.56 512.479 1685.67 Q512.479 1676.76 510.193 1672.34 Q507.936 1667.88 503.394 1667.88 M503.394 1663.25 Q510.656 1663.25 514.476 1669.01 Q518.324 1674.74 518.324 1685.67 Q518.324 1696.58 514.476 1702.34 Q510.656 1708.07 503.394 1708.07 Q496.131 1708.07 492.283 1702.34 Q488.463 1696.58 488.463 1685.67 Q488.463 1674.74 492.283 1669.01 Q496.131 1663.25 503.394 1663.25 Z" fill="#000000" fill-rule="nonzero" fill-opacity="1" /><path clip-path="url(#clip250)" d="M889.951 1664.03 L912.896 1664.03 L912.896 1668.95 L895.304 1668.95 L895.304 1679.54 Q896.577 1679.11 897.85 1678.9 Q899.123 1678.67 900.396 1678.67 Q907.63 1678.67 911.855 1682.64 Q916.079 1686.6 916.079 1693.37 Q916.079 1700.34 911.739 1704.22 Q907.399 1708.07 899.499 1708.07 Q896.78 1708.07 893.944 1707.61 Q891.137 1707.14 888.128 1706.22 L888.128 1700.34 Q890.732 1701.76 893.51 1702.46 Q896.288 1703.15 899.384 1703.15 Q904.389 1703.15 907.312 1700.52 Q910.234 1697.89 910.234 1693.37 Q910.234 1688.86 907.312 1686.22 Q904.389 1683.59 899.384 1683.59 Q897.04 1683.59 894.696 1684.11 Q892.381 1684.63 889.951 1685.73 L889.951 1664.03 Z" fill="#000000" fill-rule="nonzero" fill-opacity="1" /><path clip-path="url(#clip250)" d="M940.095 1667.88 Q935.581 1667.88 933.296 1672.34 Q931.039 1676.76 931.039 1685.67 Q931.039 1694.56 933.296 1699.01 Q935.581 1703.44 940.095 1703.44 Q944.638 1703.44 946.895 1699.01 Q949.181 1694.56 949.181 1685.67 Q949.181 1676.76 946.895 1672.34 Q944.638 1667.88 940.095 1667.88 M940.095 1663.25 Q947.358 1663.25 951.177 1669.01 Q955.026 1674.74 955.026 1685.67 Q955.026 1696.58 951.177 1702.34 Q947.358 1708.07 940.095 1708.07 Q932.833 1708.07 928.984 1702.34 Q925.165 1696.58 925.165 1685.67 Q925.165 1674.74 928.984 1669.01 Q932.833 1663.25 940.095 1663.25 Z" fill="#000000" fill-rule="nonzero" fill-opacity="1" /><path clip-path="url(#clip250)" d="M1289.27 1702.31 L1298.82 1702.31 L1298.82 1669.36 L1288.43 1671.44 L1288.43 1666.11 L1298.76 1664.03 L1304.6 1664.03 L1304.6 1702.31 L1314.15 1702.31 L1314.15 1707.23 L1289.27 1707.23 L1289.27 1702.31 Z" fill="#000000" fill-rule="nonzero" fill-opacity="1" /><path clip-path="url(#clip250)" d="M1338.46 1667.88 Q1333.94 1667.88 1331.66 1672.34 Q1329.4 1676.76 1329.4 1685.67 Q1329.4 1694.56 1331.66 1699.01 Q1333.94 1703.44 1338.46 1703.44 Q1343 1703.44 1345.26 1699.01 Q1347.54 1694.56 1347.54 1685.67 Q1347.54 1676.76 1345.26 1672.34 Q1343 1667.88 1338.46 1667.88 M1338.46 1663.25 Q1345.72 1663.25 1349.54 1669.01 Q1353.39 1674.74 1353.39 1685.67 Q1353.39 1696.58 1349.54 1702.34 Q1345.72 1708.07 1338.46 1708.07 Q1331.2 1708.07 1327.35 1702.34 Q1323.53 1696.58 1323.53 1685.67 Q1323.53 1674.74 1327.35 1669.01 Q1331.2 1663.25 1338.46 1663.25 Z" fill="#000000" fill-rule="nonzero" fill-opacity="1" /><path clip-path="url(#clip250)" d="M1376.16 1667.88 Q1371.65 1667.88 1369.36 1672.34 Q1367.1 1676.76 1367.1 1685.67 Q1367.1 1694.56 1369.36 1699.01 Q1371.65 1703.44 1376.16 1703.44 Q1380.7 1703.44 1382.96 1699.01 Q1385.25 1694.56 1385.25 1685.67 Q1385.25 1676.76 1382.96 1672.34 Q1380.7 1667.88 1376.16 1667.88 M1376.16 1663.25 Q1383.42 1663.25 1387.24 1669.01 Q1391.09 1674.74 1391.09 1685.67 Q1391.09 1696.58 1387.24 1702.34 Q1383.42 1708.07 1376.16 1708.07 Q1368.9 1708.07 1365.05 1702.34 Q1361.23 1696.58 1361.23 1685.67 Q1361.23 1674.74 1365.05 1669.01 Q1368.9 1663.25 1376.16 1663.25 Z" fill="#000000" fill-rule="nonzero" fill-opacity="1" /><path clip-path="url(#clip250)" d="M1707.45 1702.31 L1717 1702.31 L1717 1669.36 L1706.61 1671.44 L1706.61 1666.11 L1716.94 1664.03 L1722.79 1664.03 L1722.79 1702.31 L1732.34 1702.31 L1732.34 1707.23 L1707.45 1707.23 L1707.45 1702.31 Z" fill="#000000" fill-rule="nonzero" fill-opacity="1" /><path clip-path="url(#clip250)" d="M1744.2 1664.03 L1767.14 1664.03 L1767.14 1668.95 L1749.55 1668.95 L1749.55 1679.54 Q1750.83 1679.11 1752.1 1678.9 Q1753.37 1678.67 1754.64 1678.67 Q1761.88 1678.67 1766.1 1682.64 Q1770.33 1686.6 1770.33 1693.37 Q1770.33 1700.34 1765.99 1704.22 Q1761.65 1708.07 1753.75 1708.07 Q1751.03 1708.07 1748.19 1707.61 Q1745.39 1707.14 1742.38 1706.22 L1742.38 1700.34 Q1744.98 1701.76 1747.76 1702.46 Q1750.54 1703.15 1753.63 1703.15 Q1758.64 1703.15 1761.56 1700.52 Q1764.48 1697.89 1764.48 1693.37 Q1764.48 1688.86 1761.56 1686.22 Q1758.64 1683.59 1753.63 1683.59 Q1751.29 1683.59 1748.94 1684.11 Q1746.63 1684.63 1744.2 1685.73 L1744.2 1664.03 Z" fill="#000000" fill-rule="nonzero" fill-opacity="1" /><path clip-path="url(#clip250)" d="M1794.34 1667.88 Q1789.83 1667.88 1787.54 1672.34 Q1785.29 1676.76 1785.29 1685.67 Q1785.29 1694.56 1787.54 1699.01 Q1789.83 1703.44 1794.34 1703.44 Q1798.89 1703.44 1801.14 1699.01 Q1803.43 1694.56 1803.43 1685.67 Q1803.43 1676.76 1801.14 1672.34 Q1798.89 1667.88 1794.34 1667.88 M1794.34 1663.25 Q1801.61 1663.25 1805.43 1669.01 Q1809.27 1674.74 1809.27 1685.67 Q1809.27 1696.58 1805.43 1702.34 Q1801.61 1708.07 1794.34 1708.07 Q1787.08 1708.07 1783.23 1702.34 Q1779.41 1696.58 1779.41 1685.67 Q1779.41 1674.74 1783.23 1669.01 Q1787.08 1663.25 1794.34 1663.25 Z" fill="#000000" fill-rule="nonzero" fill-opacity="1" /><path clip-path="url(#clip250)" d="M2130.74 1702.31 L2151.14 1702.31 L2151.14 1707.23 L2123.71 1707.23 L2123.71 1702.31 Q2127.04 1698.87 2132.77 1693.08 Q2138.53 1687.27 2140 1685.59 Q2142.81 1682.43 2143.91 1680.26 Q2145.04 1678.06 2145.04 1675.95 Q2145.04 1672.51 2142.61 1670.34 Q2140.2 1668.17 2136.33 1668.17 Q2133.58 1668.17 2130.51 1669.12 Q2127.47 1670.08 2124 1672.02 L2124 1666.11 Q2127.53 1664.7 2130.6 1663.97 Q2133.66 1663.25 2136.21 1663.25 Q2142.92 1663.25 2146.92 1666.61 Q2150.91 1669.96 2150.91 1675.58 Q2150.91 1678.24 2149.9 1680.64 Q2148.91 1683.01 2146.28 1686.25 Q2145.56 1687.09 2141.68 1691.11 Q2137.8 1695.11 2130.74 1702.31 Z" fill="#000000" fill-rule="nonzero" fill-opacity="1" /><path clip-path="url(#clip250)" d="M2175.91 1667.88 Q2171.4 1667.88 2169.11 1672.34 Q2166.85 1676.76 2166.85 1685.67 Q2166.85 1694.56 2169.11 1699.01 Q2171.4 1703.44 2175.91 1703.44 Q2180.45 1703.44 2182.71 1699.01 Q2185 1694.56 2185 1685.67 Q2185 1676.76 2182.71 1672.34 Q2180.45 1667.88 2175.91 1667.88 M2175.91 1663.25 Q2183.17 1663.25 2186.99 1669.01 Q2190.84 1674.74 2190.84 1685.67 Q2190.84 1696.58 2186.99 1702.34 Q2183.17 1708.07 2175.91 1708.07 Q2168.65 1708.07 2164.8 1702.34 Q2160.98 1696.58 2160.98 1685.67 Q2160.98 1674.74 2164.8 1669.01 Q2168.65 1663.25 2175.91 1663.25 Z" fill="#000000" fill-rule="nonzero" fill-opacity="1" /><path clip-path="url(#clip250)" d="M2213.61 1667.88 Q2209.1 1667.88 2206.81 1672.34 Q2204.56 1676.76 2204.56 1685.67 Q2204.56 1694.56 2206.81 1699.01 Q2209.1 1703.44 2213.61 1703.44 Q2218.15 1703.44 2220.41 1699.01 Q2222.7 1694.56 2222.7 1685.67 Q2222.7 1676.76 2220.41 1672.34 Q2218.15 1667.88 2213.61 1667.88 M2213.61 1663.25 Q2220.87 1663.25 2224.69 1669.01 Q2228.54 1674.74 2228.54 1685.67 Q2228.54 1696.58 2224.69 1702.34 Q2220.87 1708.07 2213.61 1708.07 Q2206.35 1708.07 2202.5 1702.34 Q2198.68 1696.58 2198.68 1685.67 Q2198.68 1674.74 2202.5 1669.01 Q2206.35 1663.25 2213.61 1663.25 Z" fill="#000000" fill-rule="nonzero" fill-opacity="1" /><path clip-path="url(#clip250)" d="M2548.93 1702.31 L2569.32 1702.31 L2569.32 1707.23 L2541.89 1707.23 L2541.89 1702.31 Q2545.22 1698.87 2550.95 1693.08 Q2556.71 1687.27 2558.18 1685.59 Q2560.99 1682.43 2562.09 1680.26 Q2563.22 1678.06 2563.22 1675.95 Q2563.22 1672.51 2560.79 1670.34 Q2558.39 1668.17 2554.51 1668.17 Q2551.76 1668.17 2548.69 1669.12 Q2545.66 1670.08 2542.18 1672.02 L2542.18 1666.11 Q2545.71 1664.7 2548.78 1663.97 Q2551.85 1663.25 2554.39 1663.25 Q2561.11 1663.25 2565.1 1666.61 Q2569.09 1669.96 2569.09 1675.58 Q2569.09 1678.24 2568.08 1680.64 Q2567.1 1683.01 2564.46 1686.25 Q2563.74 1687.09 2559.86 1691.11 Q2555.99 1695.11 2548.93 1702.31 Z" fill="#000000" fill-rule="nonzero" fill-opacity="1" /><path clip-path="url(#clip250)" d="M2581.65 1664.03 L2604.6 1664.03 L2604.6 1668.95 L2587 1668.95 L2587 1679.54 Q2588.28 1679.11 2589.55 1678.9 Q2590.82 1678.67 2592.1 1678.67 Q2599.33 1678.67 2603.55 1682.64 Q2607.78 1686.6 2607.78 1693.37 Q2607.78 1700.34 2603.44 1704.22 Q2599.1 1708.07 2591.2 1708.07 Q2588.48 1708.07 2585.64 1707.61 Q2582.84 1707.14 2579.83 1706.22 L2579.83 1700.34 Q2582.43 1701.76 2585.21 1702.46 Q2587.99 1703.15 2591.08 1703.15 Q2596.09 1703.15 2599.01 1700.52 Q2601.93 1697.89 2601.93 1693.37 Q2601.93 1688.86 2599.01 1686.22 Q2596.09 1683.59 2591.08 1683.59 Q2588.74 1683.59 2586.4 1684.11 Q2584.08 1684.63 2581.65 1685.73 L2581.65 1664.03 Z" fill="#000000" fill-rule="nonzero" fill-opacity="1" /><path clip-path="url(#clip250)" d="M2631.8 1667.88 Q2627.28 1667.88 2625 1672.34 Q2622.74 1676.76 2622.74 1685.67 Q2622.74 1694.56 2625 1699.01 Q2627.28 1703.44 2631.8 1703.44 Q2636.34 1703.44 2638.6 1699.01 Q2640.88 1694.56 2640.88 1685.67 Q2640.88 1676.76 2638.6 1672.34 Q2636.34 1667.88 2631.8 1667.88 M2631.8 1663.25 Q2639.06 1663.25 2642.88 1669.01 Q2646.73 1674.74 2646.73 1685.67 Q2646.73 1696.58 2642.88 1702.34 Q2639.06 1708.07 2631.8 1708.07 Q2624.53 1708.07 2620.68 1702.34 Q2616.86 1696.58 2616.86 1685.67 Q2616.86 1674.74 2620.68 1669.01 Q2624.53 1663.25 2631.8 1663.25 Z" fill="#000000" fill-rule="nonzero" fill-opacity="1" /><path clip-path="url(#clip250)" d="M1268.26 1747.14 L1274.69 1747.14 L1274.69 1789.24 L1297.83 1789.24 L1297.83 1794.66 L1268.26 1794.66 L1268.26 1747.14 Z" fill="#000000" fill-rule="nonzero" fill-opacity="1" /><path clip-path="url(#clip250)" d="M1320.52 1776.74 Q1313.42 1776.74 1310.68 1778.36 Q1307.95 1779.98 1307.95 1783.9 Q1307.95 1787.02 1309.98 1788.86 Q1312.05 1790.68 1315.59 1790.68 Q1320.46 1790.68 1323.38 1787.24 Q1326.34 1783.77 1326.34 1778.04 L1326.34 1776.74 L1320.52 1776.74 M1332.2 1774.32 L1332.2 1794.66 L1326.34 1794.66 L1326.34 1789.24 Q1324.34 1792.49 1321.35 1794.05 Q1318.35 1795.58 1314.03 1795.58 Q1308.55 1795.58 1305.3 1792.52 Q1302.09 1789.44 1302.09 1784.28 Q1302.09 1778.26 1306.1 1775.21 Q1310.14 1772.15 1318.13 1772.15 L1326.34 1772.15 L1326.34 1771.58 Q1326.34 1767.54 1323.67 1765.34 Q1321.03 1763.11 1316.22 1763.11 Q1313.17 1763.11 1310.27 1763.85 Q1307.37 1764.58 1304.7 1766.04 L1304.7 1760.63 Q1307.91 1759.39 1310.94 1758.78 Q1313.96 1758.15 1316.83 1758.15 Q1324.56 1758.15 1328.38 1762.16 Q1332.2 1766.17 1332.2 1774.32 Z" fill="#000000" fill-rule="nonzero" fill-opacity="1" /><path clip-path="url(#clip250)" d="M1367.72 1776.42 Q1367.72 1770.05 1365.08 1766.55 Q1362.47 1763.05 1357.73 1763.05 Q1353.02 1763.05 1350.37 1766.55 Q1347.76 1770.05 1347.76 1776.42 Q1347.76 1782.75 1350.37 1786.25 Q1353.02 1789.75 1357.73 1789.75 Q1362.47 1789.75 1365.08 1786.25 Q1367.72 1782.75 1367.72 1776.42 M1373.58 1790.23 Q1373.58 1799.33 1369.53 1803.76 Q1365.49 1808.21 1357.15 1808.21 Q1354.07 1808.21 1351.33 1807.74 Q1348.59 1807.29 1346.01 1806.34 L1346.01 1800.64 Q1348.59 1802.04 1351.11 1802.71 Q1353.62 1803.38 1356.23 1803.38 Q1361.99 1803.38 1364.86 1800.35 Q1367.72 1797.36 1367.72 1791.28 L1367.72 1788.39 Q1365.91 1791.54 1363.07 1793.1 Q1360.24 1794.66 1356.29 1794.66 Q1349.74 1794.66 1345.73 1789.66 Q1341.72 1784.66 1341.72 1776.42 Q1341.72 1768.14 1345.73 1763.15 Q1349.74 1758.15 1356.29 1758.15 Q1360.24 1758.15 1363.07 1759.71 Q1365.91 1761.27 1367.72 1764.42 L1367.72 1759.01 L1373.58 1759.01 L1373.58 1790.23 Z" fill="#000000" fill-rule="nonzero" fill-opacity="1" /><path clip-path="url(#clip250)" d="M1420.43 1745.19 Q1416.16 1752.51 1414.09 1759.68 Q1412.03 1766.84 1412.03 1774.19 Q1412.03 1781.54 1414.09 1788.77 Q1416.2 1795.96 1420.43 1803.25 L1415.34 1803.25 Q1410.56 1795.77 1408.17 1788.54 Q1405.82 1781.32 1405.82 1774.19 Q1405.82 1767.09 1408.17 1759.9 Q1410.53 1752.71 1415.34 1745.19 L1420.43 1745.19 Z" fill="#000000" fill-rule="nonzero" fill-opacity="1" /><path clip-path="url(#clip250)" d="M1437.58 1748.89 L1437.58 1759.01 L1449.65 1759.01 L1449.65 1763.56 L1437.58 1763.56 L1437.58 1782.91 Q1437.58 1787.27 1438.76 1788.51 Q1439.97 1789.75 1443.63 1789.75 L1449.65 1789.75 L1449.65 1794.66 L1443.63 1794.66 Q1436.85 1794.66 1434.27 1792.14 Q1431.7 1789.59 1431.7 1782.91 L1431.7 1763.56 L1427.4 1763.56 L1427.4 1759.01 L1431.7 1759.01 L1431.7 1748.89 L1437.58 1748.89 Z" fill="#000000" fill-rule="nonzero" fill-opacity="1" /><path clip-path="url(#clip250)" d="M1478.01 1764.48 Q1477.02 1763.91 1475.84 1763.65 Q1474.7 1763.37 1473.3 1763.37 Q1468.33 1763.37 1465.66 1766.61 Q1463.02 1769.83 1463.02 1775.88 L1463.02 1794.66 L1457.13 1794.66 L1457.13 1759.01 L1463.02 1759.01 L1463.02 1764.55 Q1464.86 1761.3 1467.82 1759.74 Q1470.78 1758.15 1475.01 1758.15 Q1475.62 1758.15 1476.35 1758.24 Q1477.08 1758.31 1477.97 1758.47 L1478.01 1764.48 Z" fill="#000000" fill-rule="nonzero" fill-opacity="1" /><path clip-path="url(#clip250)" d="M1500.35 1776.74 Q1493.25 1776.74 1490.52 1778.36 Q1487.78 1779.98 1487.78 1783.9 Q1487.78 1787.02 1489.81 1788.86 Q1491.88 1790.68 1495.42 1790.68 Q1500.29 1790.68 1503.21 1787.24 Q1506.17 1783.77 1506.17 1778.04 L1506.17 1776.74 L1500.35 1776.74 M1512.03 1774.32 L1512.03 1794.66 L1506.17 1794.66 L1506.17 1789.24 Q1504.17 1792.49 1501.18 1794.05 Q1498.19 1795.58 1493.86 1795.58 Q1488.38 1795.58 1485.14 1792.52 Q1481.92 1789.44 1481.92 1784.28 Q1481.92 1778.26 1485.93 1775.21 Q1489.97 1772.15 1497.96 1772.15 L1506.17 1772.15 L1506.17 1771.58 Q1506.17 1767.54 1503.5 1765.34 Q1500.86 1763.11 1496.05 1763.11 Q1493 1763.11 1490.1 1763.85 Q1487.2 1764.58 1484.53 1766.04 L1484.53 1760.63 Q1487.75 1759.39 1490.77 1758.78 Q1493.79 1758.15 1496.66 1758.15 Q1504.39 1758.15 1508.21 1762.16 Q1512.03 1766.17 1512.03 1774.32 Z" fill="#000000" fill-rule="nonzero" fill-opacity="1" /><path clip-path="url(#clip250)" d="M1547.55 1764.42 L1547.55 1745.13 L1553.41 1745.13 L1553.41 1794.66 L1547.55 1794.66 L1547.55 1789.31 Q1545.71 1792.49 1542.87 1794.05 Q1540.07 1795.58 1536.13 1795.58 Q1529.66 1795.58 1525.59 1790.42 Q1521.55 1785.27 1521.55 1776.86 Q1521.55 1768.46 1525.59 1763.3 Q1529.66 1758.15 1536.13 1758.15 Q1540.07 1758.15 1542.87 1759.71 Q1545.71 1761.24 1547.55 1764.42 M1527.6 1776.86 Q1527.6 1783.32 1530.24 1787.02 Q1532.91 1790.68 1537.56 1790.68 Q1542.2 1790.68 1544.88 1787.02 Q1547.55 1783.32 1547.55 1776.86 Q1547.55 1770.4 1544.88 1766.74 Q1542.2 1763.05 1537.56 1763.05 Q1532.91 1763.05 1530.24 1766.74 Q1527.6 1770.4 1527.6 1776.86 Z" fill="#000000" fill-rule="nonzero" fill-opacity="1" /><path clip-path="url(#clip250)" d="M1565.47 1759.01 L1571.33 1759.01 L1571.33 1794.66 L1565.47 1794.66 L1565.47 1759.01 M1565.47 1745.13 L1571.33 1745.13 L1571.33 1752.55 L1565.47 1752.55 L1565.47 1745.13 Z" fill="#000000" fill-rule="nonzero" fill-opacity="1" /><path clip-path="url(#clip250)" d="M1613.21 1773.14 L1613.21 1794.66 L1607.36 1794.66 L1607.36 1773.33 Q1607.36 1768.27 1605.38 1765.76 Q1603.41 1763.24 1599.46 1763.24 Q1594.72 1763.24 1591.98 1766.26 Q1589.25 1769.29 1589.25 1774.51 L1589.25 1794.66 L1583.36 1794.66 L1583.36 1759.01 L1589.25 1759.01 L1589.25 1764.55 Q1591.35 1761.33 1594.18 1759.74 Q1597.05 1758.15 1600.77 1758.15 Q1606.91 1758.15 1610.06 1761.97 Q1613.21 1765.76 1613.21 1773.14 Z" fill="#000000" fill-rule="nonzero" fill-opacity="1" /><path clip-path="url(#clip250)" d="M1648.35 1776.42 Q1648.35 1770.05 1645.71 1766.55 Q1643.1 1763.05 1638.36 1763.05 Q1633.65 1763.05 1631.01 1766.55 Q1628.4 1770.05 1628.4 1776.42 Q1628.4 1782.75 1631.01 1786.25 Q1633.65 1789.75 1638.36 1789.75 Q1643.1 1789.75 1645.71 1786.25 Q1648.35 1782.75 1648.35 1776.42 M1654.21 1790.23 Q1654.21 1799.33 1650.17 1803.76 Q1646.12 1808.21 1637.79 1808.21 Q1634.7 1808.21 1631.96 1807.74 Q1629.22 1807.29 1626.65 1806.34 L1626.65 1800.64 Q1629.22 1802.04 1631.74 1802.71 Q1634.25 1803.38 1636.86 1803.38 Q1642.62 1803.38 1645.49 1800.35 Q1648.35 1797.36 1648.35 1791.28 L1648.35 1788.39 Q1646.54 1791.54 1643.71 1793.1 Q1640.87 1794.66 1636.93 1794.66 Q1630.37 1794.66 1626.36 1789.66 Q1622.35 1784.66 1622.35 1776.42 Q1622.35 1768.14 1626.36 1763.15 Q1630.37 1758.15 1636.93 1758.15 Q1640.87 1758.15 1643.71 1759.71 Q1646.54 1761.27 1648.35 1764.42 L1648.35 1759.01 L1654.21 1759.01 L1654.21 1790.23 Z" fill="#000000" fill-rule="nonzero" fill-opacity="1" /><path clip-path="url(#clip250)" d="M1710.45 1764.42 L1710.45 1745.13 L1716.31 1745.13 L1716.31 1794.66 L1710.45 1794.66 L1710.45 1789.31 Q1708.6 1792.49 1705.77 1794.05 Q1702.97 1795.58 1699.02 1795.58 Q1692.56 1795.58 1688.49 1790.42 Q1684.45 1785.27 1684.45 1776.86 Q1684.45 1768.46 1688.49 1763.3 Q1692.56 1758.15 1699.02 1758.15 Q1702.97 1758.15 1705.77 1759.71 Q1708.6 1761.24 1710.45 1764.42 M1690.49 1776.86 Q1690.49 1783.32 1693.14 1787.02 Q1695.81 1790.68 1700.46 1790.68 Q1705.1 1790.68 1707.78 1787.02 Q1710.45 1783.32 1710.45 1776.86 Q1710.45 1770.4 1707.78 1766.74 Q1705.1 1763.05 1700.46 1763.05 Q1695.81 1763.05 1693.14 1766.74 Q1690.49 1770.4 1690.49 1776.86 Z" fill="#000000" fill-rule="nonzero" fill-opacity="1" /><path clip-path="url(#clip250)" d="M1744.57 1776.74 Q1737.47 1776.74 1734.74 1778.36 Q1732 1779.98 1732 1783.9 Q1732 1787.02 1734.04 1788.86 Q1736.1 1790.68 1739.64 1790.68 Q1744.51 1790.68 1747.44 1787.24 Q1750.4 1783.77 1750.4 1778.04 L1750.4 1776.74 L1744.57 1776.74 M1756.25 1774.32 L1756.25 1794.66 L1750.4 1794.66 L1750.4 1789.24 Q1748.39 1792.49 1745.4 1794.05 Q1742.41 1795.58 1738.08 1795.58 Q1732.6 1795.58 1729.36 1792.52 Q1726.14 1789.44 1726.14 1784.28 Q1726.14 1778.26 1730.15 1775.21 Q1734.19 1772.15 1742.18 1772.15 L1750.4 1772.15 L1750.4 1771.58 Q1750.4 1767.54 1747.72 1765.34 Q1745.08 1763.11 1740.27 1763.11 Q1737.22 1763.11 1734.32 1763.85 Q1731.43 1764.58 1728.75 1766.04 L1728.75 1760.63 Q1731.97 1759.39 1734.99 1758.78 Q1738.01 1758.15 1740.88 1758.15 Q1748.61 1758.15 1752.43 1762.16 Q1756.25 1766.17 1756.25 1774.32 Z" fill="#000000" fill-rule="nonzero" fill-opacity="1" /><path clip-path="url(#clip250)" d="M1783.15 1797.97 Q1780.66 1804.33 1778.31 1806.27 Q1775.95 1808.21 1772.01 1808.21 L1767.33 1808.21 L1767.33 1803.31 L1770.77 1803.31 Q1773.18 1803.31 1774.52 1802.17 Q1775.86 1801.02 1777.48 1796.76 L1778.53 1794.08 L1764.11 1759.01 L1770.32 1759.01 L1781.46 1786.89 L1792.6 1759.01 L1798.81 1759.01 L1783.15 1797.97 Z" fill="#000000" fill-rule="nonzero" fill-opacity="1" /><path clip-path="url(#clip250)" d="M1829.62 1760.06 L1829.62 1765.6 Q1827.13 1764.32 1824.46 1763.69 Q1821.79 1763.05 1818.92 1763.05 Q1814.56 1763.05 1812.37 1764.39 Q1810.2 1765.72 1810.2 1768.4 Q1810.2 1770.43 1811.76 1771.61 Q1813.32 1772.76 1818.03 1773.81 L1820.04 1774.25 Q1826.27 1775.59 1828.88 1778.04 Q1831.53 1780.46 1831.53 1784.82 Q1831.53 1789.79 1827.58 1792.68 Q1823.66 1795.58 1816.79 1795.58 Q1813.92 1795.58 1810.81 1795.01 Q1807.72 1794.46 1804.28 1793.35 L1804.28 1787.3 Q1807.53 1788.99 1810.68 1789.85 Q1813.83 1790.68 1816.92 1790.68 Q1821.05 1790.68 1823.28 1789.28 Q1825.51 1787.84 1825.51 1785.27 Q1825.51 1782.88 1823.89 1781.61 Q1822.3 1780.33 1816.85 1779.16 L1814.82 1778.68 Q1809.37 1777.53 1806.95 1775.18 Q1804.54 1772.79 1804.54 1768.65 Q1804.54 1763.62 1808.1 1760.89 Q1811.67 1758.15 1818.22 1758.15 Q1821.47 1758.15 1824.33 1758.63 Q1827.2 1759.1 1829.62 1760.06 Z" fill="#000000" fill-rule="nonzero" fill-opacity="1" /><path clip-path="url(#clip250)" d="M1839.93 1745.19 L1845.02 1745.19 Q1849.8 1752.71 1852.15 1759.9 Q1854.54 1767.09 1854.54 1774.19 Q1854.54 1781.32 1852.15 1788.54 Q1849.8 1795.77 1845.02 1803.25 L1839.93 1803.25 Q1844.16 1795.96 1846.23 1788.77 Q1848.33 1781.54 1848.33 1774.19 Q1848.33 1766.84 1846.23 1759.68 Q1844.16 1752.51 1839.93 1745.19 Z" fill="#000000" fill-rule="nonzero" fill-opacity="1" /><polyline clip-path="url(#clip250)" style="stroke:#000000; stroke-linecap:round; stroke-linejoin:round; stroke-width:4; stroke-opacity:1; fill:none" points="448.779,1630.83 448.779,125.984 "/>
<polyline clip-path="url(#clip250)" style="stroke:#000000; stroke-linecap:round; stroke-linejoin:round; stroke-width:4; stroke-opacity:1; fill:none" points="448.779,1388.02 467.676,1388.02 "/>
<polyline clip-path="url(#clip250)" style="stroke:#000000; stroke-linecap:round; stroke-linejoin:round; stroke-width:4; stroke-opacity:1; fill:none" points="448.779,1009.14 467.676,1009.14 "/>
<polyline clip-path="url(#clip250)" style="stroke:#000000; stroke-linecap:round; stroke-linejoin:round; stroke-width:4; stroke-opacity:1; fill:none" points="448.779,630.252 467.676,630.252 "/>
<polyline clip-path="url(#clip250)" style="stroke:#000000; stroke-linecap:round; stroke-linejoin:round; stroke-width:4; stroke-opacity:1; fill:none" points="448.779,251.366 467.676,251.366 "/>
<path clip-path="url(#clip250)" d="M335.309 1370.27 Q330.795 1370.27 328.51 1374.73 Q326.253 1379.15 326.253 1388.07 Q326.253 1396.95 328.51 1401.41 Q330.795 1405.83 335.309 1405.83 Q339.852 1405.83 342.109 1401.41 Q344.395 1396.95 344.395 1388.07 Q344.395 1379.15 342.109 1374.73 Q339.852 1370.27 335.309 1370.27 M335.309 1365.64 Q342.572 1365.64 346.391 1371.4 Q350.24 1377.13 350.24 1388.07 Q350.24 1398.98 346.391 1404.73 Q342.572 1410.46 335.309 1410.46 Q328.047 1410.46 324.198 1404.73 Q320.379 1398.98 320.379 1388.07 Q320.379 1377.13 324.198 1371.4 Q328.047 1365.64 335.309 1365.64 Z" fill="#000000" fill-rule="nonzero" fill-opacity="1" /><path clip-path="url(#clip250)" d="M360.512 1402.27 L366.617 1402.27 L366.617 1409.62 L360.512 1409.62 L360.512 1402.27 Z" fill="#000000" fill-rule="nonzero" fill-opacity="1" /><path clip-path="url(#clip250)" d="M391.848 1370.27 Q387.335 1370.27 385.049 1374.73 Q382.792 1379.15 382.792 1388.07 Q382.792 1396.95 385.049 1401.41 Q387.335 1405.83 391.848 1405.83 Q396.391 1405.83 398.648 1401.41 Q400.934 1396.95 400.934 1388.07 Q400.934 1379.15 398.648 1374.73 Q396.391 1370.27 391.848 1370.27 M391.848 1365.64 Q399.111 1365.64 402.93 1371.4 Q406.779 1377.13 406.779 1388.07 Q406.779 1398.98 402.93 1404.73 Q399.111 1410.46 391.848 1410.46 Q384.586 1410.46 380.737 1404.73 Q376.918 1398.98 376.918 1388.07 Q376.918 1377.13 380.737 1371.4 Q384.586 1365.64 391.848 1365.64 Z" fill="#000000" fill-rule="nonzero" fill-opacity="1" /><path clip-path="url(#clip250)" d="M336.843 991.386 Q332.329 991.386 330.043 995.842 Q327.786 1000.27 327.786 1009.18 Q327.786 1018.06 330.043 1022.52 Q332.329 1026.95 336.843 1026.95 Q341.386 1026.95 343.643 1022.52 Q345.928 1018.06 345.928 1009.18 Q345.928 1000.27 343.643 995.842 Q341.386 991.386 336.843 991.386 M336.843 986.756 Q344.106 986.756 347.925 992.514 Q351.773 998.243 351.773 1009.18 Q351.773 1020.09 347.925 1025.85 Q344.106 1031.58 336.843 1031.58 Q329.58 1031.58 325.732 1025.85 Q321.912 1020.09 321.912 1009.18 Q321.912 998.243 325.732 992.514 Q329.58 986.756 336.843 986.756 Z" fill="#000000" fill-rule="nonzero" fill-opacity="1" /><path clip-path="url(#clip250)" d="M362.045 1023.39 L368.151 1023.39 L368.151 1030.74 L362.045 1030.74 L362.045 1023.39 Z" fill="#000000" fill-rule="nonzero" fill-opacity="1" /><path clip-path="url(#clip250)" d="M381.895 1025.82 L391.443 1025.82 L391.443 992.861 L381.056 994.945 L381.056 989.621 L391.385 987.537 L397.23 987.537 L397.23 1025.82 L406.779 1025.82 L406.779 1030.74 L381.895 1030.74 L381.895 1025.82 Z" fill="#000000" fill-rule="nonzero" fill-opacity="1" /><path clip-path="url(#clip250)" d="M337.306 612.5 Q332.792 612.5 330.506 616.956 Q328.249 621.383 328.249 630.295 Q328.249 639.178 330.506 643.634 Q332.792 648.061 337.306 648.061 Q341.849 648.061 344.106 643.634 Q346.391 639.178 346.391 630.295 Q346.391 621.383 344.106 616.956 Q341.849 612.5 337.306 612.5 M337.306 607.87 Q344.569 607.87 348.388 613.628 Q352.236 619.357 352.236 630.295 Q352.236 641.203 348.388 646.961 Q344.569 652.691 337.306 652.691 Q330.043 652.691 326.195 646.961 Q322.375 641.203 322.375 630.295 Q322.375 619.357 326.195 613.628 Q330.043 607.87 337.306 607.87 Z" fill="#000000" fill-rule="nonzero" fill-opacity="1" /><path clip-path="url(#clip250)" d="M362.508 644.502 L368.614 644.502 L368.614 651.852 L362.508 651.852 L362.508 644.502 Z" fill="#000000" fill-rule="nonzero" fill-opacity="1" /><path clip-path="url(#clip250)" d="M386.38 646.933 L406.779 646.933 L406.779 651.852 L379.348 651.852 L379.348 646.933 Q382.676 643.489 388.405 637.702 Q394.163 631.886 395.639 630.208 Q398.446 627.054 399.545 624.884 Q400.674 622.685 400.674 620.573 Q400.674 617.129 398.243 614.959 Q395.841 612.789 391.964 612.789 Q389.215 612.789 386.148 613.744 Q383.11 614.699 379.638 616.638 L379.638 610.735 Q383.168 609.317 386.235 608.594 Q389.302 607.87 391.848 607.87 Q398.561 607.87 402.554 611.227 Q406.547 614.583 406.547 620.197 Q406.547 622.859 405.535 625.26 Q404.551 627.633 401.918 630.874 Q401.194 631.713 397.317 635.735 Q393.44 639.728 386.38 646.933 Z" fill="#000000" fill-rule="nonzero" fill-opacity="1" /><path clip-path="url(#clip250)" d="M336.12 233.614 Q331.606 233.614 329.32 238.07 Q327.063 242.497 327.063 251.409 Q327.063 260.292 329.32 264.748 Q331.606 269.175 336.12 269.175 Q340.662 269.175 342.919 264.748 Q345.205 260.292 345.205 251.409 Q345.205 242.497 342.919 238.07 Q340.662 233.614 336.12 233.614 M336.12 228.984 Q343.382 228.984 347.202 234.742 Q351.05 240.472 351.05 251.409 Q351.05 262.318 347.202 268.076 Q343.382 273.805 336.12 273.805 Q328.857 273.805 325.008 268.076 Q321.189 262.318 321.189 251.409 Q321.189 240.472 325.008 234.742 Q328.857 228.984 336.12 228.984 Z" fill="#000000" fill-rule="nonzero" fill-opacity="1" /><path clip-path="url(#clip250)" d="M361.322 265.616 L367.427 265.616 L367.427 272.966 L361.322 272.966 L361.322 265.616 Z" fill="#000000" fill-rule="nonzero" fill-opacity="1" /><path clip-path="url(#clip250)" d="M397.867 249.673 Q402.062 250.57 404.406 253.406 Q406.779 256.241 406.779 260.408 Q406.779 266.802 402.381 270.304 Q397.983 273.805 389.881 273.805 Q387.161 273.805 384.267 273.255 Q381.403 272.734 378.336 271.664 L378.336 266.021 Q380.766 267.439 383.66 268.162 Q386.553 268.886 389.707 268.886 Q395.205 268.886 398.069 266.716 Q400.963 264.545 400.963 260.408 Q400.963 256.588 398.272 254.447 Q395.61 252.277 390.836 252.277 L385.801 252.277 L385.801 247.474 L391.067 247.474 Q395.378 247.474 397.664 245.767 Q399.95 244.031 399.95 240.79 Q399.95 237.462 397.578 235.697 Q395.234 233.903 390.836 233.903 Q388.434 233.903 385.685 234.424 Q382.936 234.945 379.638 236.044 L379.638 230.836 Q382.965 229.91 385.859 229.447 Q388.781 228.984 391.356 228.984 Q398.012 228.984 401.889 232.023 Q405.766 235.032 405.766 240.182 Q405.766 243.77 403.712 246.259 Q401.657 248.718 397.867 249.673 Z" fill="#000000" fill-rule="nonzero" fill-opacity="1" /><path clip-path="url(#clip250)" d="M222.937 1024.44 L246.585 1033.16 L246.585 1015.68 L222.937 1024.44 M216.603 1028.07 L216.603 1020.78 L264.123 1002.67 L264.123 1009.35 L251.933 1013.68 L251.933 1035.1 L264.123 1039.43 L264.123 1046.21 L216.603 1028.07 Z" fill="#000000" fill-rule="nonzero" fill-opacity="1" /><path clip-path="url(#clip250)" d="M220.263 961.289 L227.043 961.289 Q224.019 964.536 222.523 968.228 Q221.027 971.888 221.027 976.026 Q221.027 984.174 226.024 988.503 Q230.989 992.831 240.411 992.831 Q249.8 992.831 254.797 988.503 Q259.762 984.174 259.762 976.026 Q259.762 971.888 258.266 968.228 Q256.77 964.536 253.747 961.289 L260.463 961.289 Q262.754 964.663 263.9 968.451 Q265.046 972.207 265.046 976.408 Q265.046 987.198 258.457 993.404 Q251.837 999.611 240.411 999.611 Q228.952 999.611 222.364 993.404 Q215.743 987.198 215.743 976.408 Q215.743 972.143 216.889 968.387 Q218.003 964.6 220.263 961.289 Z" fill="#000000" fill-rule="nonzero" fill-opacity="1" /><path clip-path="url(#clip250)" d="M216.603 951.359 L216.603 924.05 L222.014 924.05 L222.014 944.93 L236.018 944.93 L236.018 926.087 L241.429 926.087 L241.429 944.93 L264.123 944.93 L264.123 951.359 L216.603 951.359 Z" fill="#000000" fill-rule="nonzero" fill-opacity="1" /><path clip-path="url(#clip250)" d="M232.581 879.586 Q232.581 884.296 236.273 887.033 Q239.933 889.771 246.331 889.771 Q252.728 889.771 256.42 887.065 Q260.081 884.328 260.081 879.586 Q260.081 874.907 256.389 872.169 Q252.696 869.432 246.331 869.432 Q239.997 869.432 236.305 872.169 Q232.581 874.907 232.581 879.586 M227.616 879.586 Q227.616 871.947 232.581 867.586 Q237.546 863.226 246.331 863.226 Q255.084 863.226 260.081 867.586 Q265.046 871.947 265.046 879.586 Q265.046 887.256 260.081 891.617 Q255.084 895.945 246.331 895.945 Q237.546 895.945 232.581 891.617 Q227.616 887.256 227.616 879.586 Z" fill="#000000" fill-rule="nonzero" fill-opacity="1" /><path clip-path="url(#clip250)" d="M214.598 835.471 L219.467 835.471 L219.467 841.073 Q219.467 844.224 220.741 845.465 Q222.014 846.675 225.324 846.675 L228.475 846.675 L228.475 837.031 L233.026 837.031 L233.026 846.675 L264.123 846.675 L264.123 852.563 L233.026 852.563 L233.026 858.165 L228.475 858.165 L228.475 852.563 L225.992 852.563 Q220.04 852.563 217.335 849.794 Q214.598 847.025 214.598 841.009 L214.598 835.471 Z" fill="#000000" fill-rule="nonzero" fill-opacity="1" /><path clip-path="url(#clip250)" d="M214.311 802.306 L279.496 802.306 L279.496 807.717 L214.311 807.717 L214.311 802.306 Z" fill="#000000" fill-rule="nonzero" fill-opacity="1" /><path clip-path="url(#clip250)" d="M257.343 755.231 L244.58 755.231 L244.58 765.735 L239.297 765.735 L239.297 748.866 L259.699 748.866 Q262.34 752.59 263.709 757.078 Q265.046 761.565 265.046 766.658 Q265.046 777.798 258.553 784.1 Q252.028 790.37 240.411 790.37 Q228.761 790.37 222.268 784.1 Q215.743 777.798 215.743 766.658 Q215.743 762.011 216.889 757.841 Q218.035 753.64 220.263 750.107 L227.106 750.107 Q224.083 753.672 222.555 757.682 Q221.027 761.693 221.027 766.117 Q221.027 774.838 225.897 779.23 Q230.767 783.591 240.411 783.591 Q250.023 783.591 254.893 779.23 Q259.762 774.838 259.762 766.117 Q259.762 762.711 259.189 760.038 Q258.585 757.364 257.343 755.231 Z" fill="#000000" fill-rule="nonzero" fill-opacity="1" /><path clip-path="url(#clip250)" d="M238.501 736.007 L244.166 736.007 L244.166 728.4 L246.713 728.4 L246.713 736.007 L257.534 736.007 Q259.985 736.007 260.685 735.243 Q261.386 734.479 261.386 732.188 L261.386 728.4 L264.123 728.4 L264.123 732.188 Q264.123 736.453 262.691 738.076 Q261.29 739.699 257.534 739.699 L246.713 739.699 L246.713 742.405 L244.166 742.405 L244.166 739.699 L238.501 739.699 L238.501 736.007 Z" fill="#000000" fill-rule="nonzero" fill-opacity="1" /><path clip-path="url(#clip250)" d="M214.311 710.608 L279.496 710.608 L279.496 716.019 L214.311 716.019 L214.311 710.608 Z" fill="#000000" fill-rule="nonzero" fill-opacity="1" /><polyline clip-path="url(#clip251)" style="stroke:#d45e00; stroke-linecap:round; stroke-linejoin:round; stroke-width:8; stroke-opacity:1; fill:none" stroke-dasharray="32, 20" points="511.757,236.218 520.121,380.922 528.485,168.574 536.848,306.297 545.212,378.962 553.576,461.396 561.939,464.793 570.303,324.396 578.667,388.73 587.03,351.7 595.394,621.278 603.758,605.817 612.121,539.474 620.485,631.115 628.849,602.265 637.212,810.109 645.576,480.87 653.94,557.511 662.303,791.354 670.667,634.17 679.031,802.758 687.394,781.284 695.758,705.985 704.122,911.07 712.485,842.834 720.849,830.737 729.213,910.562 737.576,952.095 745.94,778.621 754.304,877.917 762.667,932.858 771.031,979.37 779.395,931.226 787.758,1007.18 796.122,971.167 804.486,950.084 812.849,991.9 821.213,936.44 829.577,906.064 837.94,1043.4 846.304,998.059 854.668,994.093 863.031,1012.8 871.395,1151.65 879.759,1065.52 888.122,926.313 896.486,1208.35 904.85,1123.9 913.213,1032.63 921.577,1166.84 929.941,1091.11 938.304,1126.92 946.668,1101.64 955.032,1147.82 963.395,1059.8 971.759,1113.93 980.123,1149.47 988.486,1134.12 996.85,1073.98 1005.21,1225.99 1013.58,1171.98 1021.94,1190.41 1030.3,1066.2 1038.67,1237.44 1047.03,1214.69 1055.4,1180.08 1063.76,1260.68 1072.12,1168.77 1080.49,1239.38 1088.85,1244.9 1097.21,1247.71 1105.58,1116.2 1113.94,1261.95 1122.3,1223.13 1130.67,1163.88 1139.03,1122.66 1147.4,1226.97 1155.76,1258.27 1164.12,1221.41 1172.49,1289.08 1180.85,1234.21 1189.21,1203.18 1197.58,1312.87 1205.94,1300.82 1214.31,1256.05 1222.67,1310.32 1231.03,1304.31 1239.4,1255.82 1247.76,1323.54 1256.12,1245.44 1264.49,1261.18 1272.85,1178.33 1281.21,1325.88 1289.58,1209.46 1297.94,1207.88 1306.31,1255.59 1314.67,1120.24 1323.03,1215.57 1331.4,1235.47 1339.76,1183.53 1348.12,1174.2 1356.49,1187.66 1364.85,1183.82 1373.21,1270.92 1381.58,1144.87 1389.94,1187.36 1398.31,1220.39 1406.67,1315.53 1415.03,1202.86 1423.4,1323.46 1431.76,1229.92 1440.12,1307.02 1448.49,1215.34 1456.85,1246.05 1465.22,1219.75 1473.58,1194.48 1481.94,1213.6 1490.31,1248.66 1498.67,1162.28 1507.03,1124.89 1515.4,1164.87 1523.76,1184.3 1532.12,1231.5 1540.49,1188.47 1548.85,1251.45 1557.22,1200.86 1565.58,1239.55 1573.94,1243.99 1582.31,1169.78 1590.67,1170.22 1599.03,1108.94 1607.4,1281.08 1615.76,1238.21 1624.12,1222.79 1632.49,1261.06 1640.85,1233.7 1649.22,1292.23 1657.58,1142.68 1665.94,1199.79 1674.31,1250.83 1682.67,1260.24 1691.03,1231.2 1699.4,1229.74 1707.76,1236.15 1716.13,1223.48 1724.49,1194.35 1732.85,1393.21 1741.22,1236.97 1749.58,1230.18 1757.94,1284.15 1766.31,1107.63 1774.67,1195.85 1783.03,1210.56 1791.4,1222.54 1799.76,1231.22 1808.13,1186.18 1816.49,1271.3 1824.85,1209.2 1833.22,1255.52 1841.58,1144.56 1849.94,1144.39 1858.31,1211.58 1866.67,1233.18 1875.03,1267.92 1883.4,1279.51 1891.76,1296.77 1900.13,1327.82 1908.49,1205.57 1916.85,1204.06 1925.22,1238.18 1933.58,1287.34 1941.94,1199.09 1950.31,1213.18 1958.67,1231.46 1967.04,1385.3 1975.4,1259.38 1983.76,1260.03 1992.13,1370.51 2000.49,1278.97 2008.85,1387.88 2017.22,1376.19 2025.58,1268.44 2033.94,1320.9 2042.31,1409.43 2050.67,1382.39 2059.04,1434.48 2067.4,1359.87 2075.76,1389.57 2084.13,1351.96 2092.49,1396.15 2100.85,1387.94 2109.22,1349.95 2117.58,1395.38 2125.94,1373.57 2134.31,1392.82 2142.67,1412.24 2151.04,1315.36 2159.4,1313.9 2167.76,1367.1 2176.13,1413.78 2184.49,1301.91 2192.85,1345.47 2201.22,1256.88 2209.58,1314.39 2217.95,1425.36 2226.31,1300.98 2234.67,1319.22 2243.04,1337.8 2251.4,1361.49 2259.76,1414.76 2268.13,1269.33 2276.49,1329.36 2284.85,1418.45 2293.22,1285.91 2301.58,1371.84 2309.95,1299.27 2318.31,1331.14 2326.67,1390.2 2335.04,1379.25 2343.4,1472.59 2351.76,1312.59 2360.13,1401.65 2368.49,1438.29 2376.85,1352.16 2385.22,1452.97 2393.58,1455.49 2401.95,1461.41 2410.31,1475.11 2418.67,1489.66 2427.04,1544.93 2435.4,1444.57 2443.76,1493.94 2452.13,1539.91 2460.49,1451.93 2468.86,1472.9 2477.22,1516.73 2485.58,1456.64 2493.95,1584.63 2502.31,1456.74 2510.67,1490.73 2519.04,1547.69 2527.4,1436.82 2535.76,1588.24 2544.13,1506.47 2552.49,1489.85 2560.86,1527.41 2569.22,1557.62 2577.58,1472.24 2585.95,1483.34 2594.31,1554.71 2602.67,1483.24 2611.04,1543.29 "/>
<polyline clip-path="url(#clip251)" style="stroke:#009e73; stroke-linecap:round; stroke-linejoin:round; stroke-width:8; stroke-opacity:1; fill:none" points="511.757,500.22 520.121,607.285 528.485,673.1 536.848,737.113 545.212,795.169 553.576,850.041 561.939,892.329 570.303,935.742 578.667,974.301 587.03,1018.16 595.394,1038.85 603.758,1076.38 612.121,1099.92 620.485,1129.16 628.849,1150 637.212,1170.44 645.576,1189.43 653.94,1210.92 662.303,1224.23 670.667,1241.55 679.031,1249.07 687.394,1264.27 695.758,1274.78 704.122,1288.36 712.485,1286.27 720.849,1297.55 729.213,1307.97 737.576,1308.26 745.94,1322.56 754.304,1330.9 762.667,1339.67 771.031,1340.4 779.395,1338.46 787.758,1350.31 796.122,1349.91 804.486,1356.06 812.849,1365.84 821.213,1357.24 829.577,1362.22 837.94,1360.21 846.304,1376.01 854.668,1369.9 863.031,1373.36 871.395,1373.76 879.759,1378.84 888.122,1379.85 896.486,1379.46 904.85,1373.81 913.213,1374.5 921.577,1381.95 929.941,1375.38 938.304,1376.92 946.668,1379.09 955.032,1380.04 963.395,1387.83 971.759,1385.79 980.123,1388.43 988.486,1386.19 996.85,1393.93 1005.21,1380.09 1013.58,1382.81 1021.94,1388.18 1030.3,1386.11 1038.67,1393.97 1047.03,1392.59 1055.4,1390.78 1063.76,1388.09 1072.12,1387.72 1080.49,1393.18 1088.85,1398.1 1097.21,1394.26 1105.58,1390.08 1113.94,1391.93 1122.3,1394.08 1130.67,1390.15 1139.03,1388.59 1147.4,1396.49 1155.76,1397.81 1164.12,1400.76 1172.49,1401.56 1180.85,1394.85 1189.21,1411.26 1197.58,1400.86 1205.94,1398.58 1214.31,1406.36 1222.67,1407.72 1231.03,1405.41 1239.4,1401.75 1247.76,1403.68 1256.12,1405.67 1264.49,1399.46 1272.85,1401.28 1281.21,1392.78 1289.58,1401.84 1297.94,1398.78 1306.31,1397.32 1314.67,1395.8 1323.03,1399.87 1331.4,1393.66 1339.76,1398.51 1348.12,1392.96 1356.49,1395.87 1364.85,1398.63 1373.21,1395.68 1381.58,1399.6 1389.94,1399.89 1398.31,1396.18 1406.67,1394.19 1415.03,1401.42 1423.4,1404.89 1431.76,1400.68 1440.12,1402.23 1448.49,1404.72 1456.85,1401.81 1465.22,1402.25 1473.58,1401.35 1481.94,1400.71 1490.31,1402.57 1498.67,1412.98 1507.03,1404.37 1515.4,1395.29 1523.76,1406.78 1532.12,1396.94 1540.49,1401.05 1548.85,1399.63 1557.22,1393.2 1565.58,1398.68 1573.94,1401.44 1582.31,1401.12 1590.67,1394.02 1599.03,1402.71 1607.4,1399.29 1615.76,1403.27 1624.12,1397.85 1632.49,1401.55 1640.85,1396.16 1649.22,1401.86 1657.58,1385.65 1665.94,1399.47 1674.31,1396.75 1682.67,1397.05 1691.03,1400.6 1699.4,1392.92 1707.76,1396.83 1716.13,1396.91 1724.49,1400.13 1732.85,1400.76 1741.22,1403.08 1749.58,1401.78 1757.94,1395.66 1766.31,1404.7 1774.67,1401.74 1783.03,1406.19 1791.4,1407.06 1799.76,1402.99 1808.13,1404.39 1816.49,1401.38 1824.85,1399.12 1833.22,1402.55 1841.58,1396.22 1849.94,1398.32 1858.31,1395.74 1866.67,1408.55 1875.03,1401.7 1883.4,1396.89 1891.76,1397.47 1900.13,1404.84 1908.49,1406.53 1916.85,1401.26 1925.22,1396.86 1933.58,1396.64 1941.94,1391.29 1950.31,1404.01 1958.67,1393.49 1967.04,1397.74 1975.4,1400.77 1983.76,1395.85 1992.13,1404.92 2000.49,1405.59 2008.85,1407.22 2017.22,1399.2 2025.58,1394.62 2033.94,1402.44 2042.31,1397.13 2050.67,1403.62 2059.04,1397.06 2067.4,1401.06 2075.76,1396.52 2084.13,1388.6 2092.49,1393.92 2100.85,1395.04 2109.22,1399.13 2117.58,1392.84 2125.94,1396.49 2134.31,1393.18 2142.67,1391.52 2151.04,1393.57 2159.4,1392.4 2167.76,1391.78 2176.13,1389.64 2184.49,1391.94 2192.85,1383.84 2201.22,1388.17 2209.58,1383.03 2217.95,1396.29 2226.31,1392.46 2234.67,1386.06 2243.04,1396.05 2251.4,1394.42 2259.76,1390.4 2268.13,1385.97 2276.49,1386.9 2284.85,1398.4 2293.22,1395.21 2301.58,1389.34 2309.95,1396.55 2318.31,1384.85 2326.67,1395.4 2335.04,1394.62 2343.4,1388.02 2351.76,1397.23 2360.13,1386.38 2368.49,1390.57 2376.85,1394.2 2385.22,1395.21 2393.58,1395.25 2401.95,1387.88 2410.31,1393.25 2418.67,1394.28 2427.04,1386.99 2435.4,1385.48 2443.76,1388.29 2452.13,1387.3 2460.49,1397.13 2468.86,1389.98 2477.22,1406.24 2485.58,1399.01 2493.95,1397.33 2502.31,1391.95 2510.67,1400.11 2519.04,1401.53 2527.4,1397.98 2535.76,1400.36 2544.13,1393.73 2552.49,1390.49 2560.86,1393.07 2569.22,1395.29 2577.58,1393.94 2585.95,1389.85 2594.31,1400.3 2602.67,1400.58 2611.04,1397.03 "/>
<path clip-path="url(#clip251)" d="M511.757 647.044 L520.121 770.793 L528.485 811.267 L536.848 892.836 L545.212 913.62 L553.576 995.3 L561.939 1043.49 L570.303 1065.8 L578.667 1099.75 L587.03 1137.02 L595.394 1163.4 L603.758 1203.32 L612.121 1215.94 L620.485 1251.59 L628.849 1277.58 L637.212 1288.75 L645.576 1304.6 L653.94 1318.49 L662.303 1348.22 L670.667 1360.41 L679.031 1373.72 L687.394 1384.76 L695.758 1396.79 L704.122 1418.33 L712.485 1414.07 L720.849 1427.82 L729.213 1433.01 L737.576 1439.24 L745.94 1456.05 L754.304 1462.95 L762.667 1476.96 L771.031 1465.45 L779.395 1469.64 L787.758 1477.82 L796.122 1488.18 L804.486 1498.64 L812.849 1498.59 L821.213 1494.91 L829.577 1489.85 L837.94 1501.97 L846.304 1497.44 L854.668 1502.37 L863.031 1503.69 L871.395 1502.53 L879.759 1502.41 L888.122 1499.78 L896.486 1492.48 L904.85 1496.71 L913.213 1495.59 L921.577 1503.56 L929.941 1506.29 L938.304 1501.32 L946.668 1498.33 L955.032 1507.44 L963.395 1511.59 L971.759 1509.47 L980.123 1517.17 L988.486 1518.89 L996.85 1523.39 L1005.21 1501.08 L1013.58 1527.16 L1021.94 1517.91 L1030.3 1508.43 L1038.67 1507.16 L1047.03 1512.64 L1055.4 1510.84 L1063.76 1511.65 L1072.12 1501.72 L1080.49 1524.56 L1088.85 1524.15 L1097.21 1506.43 L1105.58 1517.39 L1113.94 1515.43 L1122.3 1511.25 L1130.67 1515.41 L1139.03 1512.77 L1147.4 1519.99 L1155.76 1530.8 L1164.12 1508.1 L1172.49 1535.22 L1180.85 1528.24 L1189.21 1539.38 L1197.58 1517.89 L1205.94 1523.26 L1214.31 1529.76 L1222.67 1535.15 L1231.03 1537.86 L1239.4 1516.76 L1247.76 1540.85 L1256.12 1530.17 L1264.49 1526.08 L1272.85 1526.97 L1281.21 1501.62 L1289.58 1510.38 L1297.94 1505.46 L1306.31 1518.39 L1314.67 1499.83 L1323.03 1512.07 L1331.4 1491.77 L1339.76 1494.51 L1348.12 1489.38 L1356.49 1484.45 L1364.85 1511.57 L1373.21 1511.38 L1381.58 1508.21 L1389.94 1525.37 L1398.31 1511.13 L1406.67 1511.6 L1415.03 1517.96 L1423.4 1513.66 L1431.76 1524.69 L1440.12 1506.87 L1448.49 1530.69 L1456.85 1515.49 L1465.22 1499.24 L1473.58 1522.05 L1481.94 1529.82 L1490.31 1508.5 L1498.67 1532.17 L1507.03 1520.6 L1515.4 1501.89 L1523.76 1536.16 L1532.12 1518.97 L1540.49 1512.5 L1548.85 1497.98 L1557.22 1515.94 L1565.58 1512.56 L1573.94 1514.44 L1582.31 1511.59 L1590.67 1519.44 L1599.03 1517.25 L1607.4 1515.06 L1615.76 1525.74 L1624.12 1503 L1632.49 1508.84 L1640.85 1504.71 L1649.22 1494.64 L1657.58 1506 L1665.94 1519.11 L1674.31 1513.95 L1682.67 1511.54 L1691.03 1507.78 L1699.4 1503.74 L1707.76 1512.67 L1716.13 1497.51 L1724.49 1516.63 L1732.85 1514.68 L1741.22 1517.56 L1749.58 1512.69 L1757.94 1521.43 L1766.31 1515.85 L1774.67 1517.41 L1783.03 1526.98 L1791.4 1529.77 L1799.76 1521.38 L1808.13 1519.69 L1816.49 1526.1 L1824.85 1529.48 L1833.22 1536.23 L1841.58 1520.53 L1849.94 1528.25 L1858.31 1516.5 L1866.67 1526.16 L1875.03 1525.26 L1883.4 1512.78 L1891.76 1495.25 L1900.13 1527.8 L1908.49 1528.36 L1916.85 1508.22 L1925.22 1500.23 L1933.58 1500.29 L1941.94 1506.08 L1950.31 1514.54 L1958.67 1507.29 L1967.04 1498.34 L1975.4 1514.76 L1983.76 1509.95 L1992.13 1504.11 L2000.49 1511.05 L2008.85 1524 L2017.22 1501.26 L2025.58 1507.02 L2033.94 1515.42 L2042.31 1495.85 L2050.67 1510.65 L2059.04 1511.71 L2067.4 1514.96 L2075.76 1521.65 L2084.13 1498.27 L2092.49 1495.28 L2100.85 1534.65 L2109.22 1509.71 L2117.58 1502.29 L2125.94 1510.27 L2134.31 1497.1 L2142.67 1495.36 L2151.04 1505.14 L2159.4 1501.07 L2167.76 1511.28 L2176.13 1508.3 L2184.49 1510 L2192.85 1498.11 L2201.22 1501.96 L2209.58 1506.99 L2217.95 1495.4 L2226.31 1505.12 L2234.67 1484.84 L2243.04 1518.5 L2251.4 1508.31 L2259.76 1490.96 L2268.13 1496.8 L2276.49 1489.94 L2284.85 1499.55 L2293.22 1500.81 L2301.58 1504.24 L2309.95 1510.09 L2318.31 1498.31 L2326.67 1513.98 L2335.04 1494.13 L2343.4 1493.07 L2351.76 1503.78 L2360.13 1487.21 L2368.49 1498.26 L2376.85 1508.93 L2385.22 1503.38 L2393.58 1506.39 L2401.95 1495.05 L2410.31 1512.15 L2418.67 1493.21 L2427.04 1493.98 L2435.4 1497.9 L2443.76 1496.27 L2452.13 1494.62 L2460.49 1501.85 L2468.86 1507.02 L2477.22 1506.8 L2485.58 1519.07 L2493.95 1524.89 L2502.31 1500.69 L2510.67 1518.8 L2519.04 1523.26 L2527.4 1517.9 L2535.76 1515.33 L2544.13 1513.19 L2552.49 1514.22 L2560.86 1504.47 L2569.22 1506.8 L2577.58 1503.25 L2585.95 1503.96 L2594.31 1520.9 L2602.67 1498.18 L2611.04 1511.45 L2611.04 1282 L2602.67 1294.61 L2594.31 1288.83 L2585.95 1265.45 L2577.58 1283.47 L2569.22 1268.66 L2560.86 1276.08 L2552.49 1273.98 L2544.13 1270.29 L2535.76 1289.19 L2527.4 1276.47 L2519.04 1296.73 L2510.67 1276.98 L2502.31 1288.69 L2493.95 1288.3 L2485.58 1277.05 L2477.22 1301.38 L2468.86 1279.89 L2460.49 1282.39 L2452.13 1276.58 L2443.76 1284.62 L2435.4 1277.49 L2427.04 1280.82 L2418.67 1299.96 L2410.31 1293.8 L2401.95 1281.6 L2393.58 1278.4 L2385.22 1298.96 L2376.85 1280.54 L2368.49 1268.63 L2360.13 1287.56 L2351.76 1299.05 L2343.4 1283.64 L2335.04 1276.51 L2326.67 1282.03 L2318.31 1277.33 L2309.95 1284.9 L2301.58 1279.4 L2293.22 1290.09 L2284.85 1279.84 L2276.49 1275.65 L2268.13 1264.24 L2259.76 1281.15 L2251.4 1279.62 L2243.04 1272.13 L2234.67 1286.68 L2226.31 1285.42 L2217.95 1287.24 L2209.58 1274.85 L2201.22 1285.35 L2192.85 1254.74 L2184.49 1276 L2176.13 1286.13 L2167.76 1285.72 L2159.4 1282.7 L2151.04 1292.67 L2142.67 1268.42 L2134.31 1279.06 L2125.94 1265.43 L2117.58 1281.39 L2109.22 1284.09 L2100.85 1265.12 L2092.49 1278.01 L2084.13 1286.07 L2075.76 1266.46 L2067.4 1291.17 L2059.04 1291.76 L2050.67 1287.32 L2042.31 1291.44 L2033.94 1287 L2025.58 1289.77 L2017.22 1296.63 L2008.85 1294.44 L2000.49 1292.9 L1992.13 1293.36 L1983.76 1274.43 L1975.4 1298.86 L1967.04 1276.2 L1958.67 1282.93 L1950.31 1304.42 L1941.94 1274.88 L1933.58 1283.25 L1925.22 1275.99 L1916.85 1306.76 L1908.49 1302.63 L1900.13 1275.17 L1891.76 1295.11 L1883.4 1278.13 L1875.03 1287.22 L1866.67 1295.42 L1858.31 1288.55 L1849.94 1265.63 L1841.58 1282.02 L1833.22 1273.73 L1824.85 1280.83 L1816.49 1285.28 L1808.13 1284.71 L1799.76 1282.98 L1791.4 1284.61 L1783.03 1282.17 L1774.67 1278.28 L1766.31 1285.17 L1757.94 1269.21 L1749.58 1296.12 L1741.22 1265.36 L1732.85 1287.6 L1724.49 1281.54 L1716.13 1294.18 L1707.76 1269.39 L1699.4 1281.78 L1691.03 1293.59 L1682.67 1278.66 L1674.31 1272.49 L1665.94 1280.25 L1657.58 1271.98 L1649.22 1298.67 L1640.85 1279.51 L1632.49 1281.98 L1624.12 1279.51 L1615.76 1289 L1607.4 1275.21 L1599.03 1290.1 L1590.67 1284.51 L1582.31 1280.84 L1573.94 1294.82 L1565.58 1286.27 L1557.22 1278.35 L1548.85 1288.91 L1540.49 1286.44 L1532.12 1277.36 L1523.76 1284.29 L1515.4 1281.86 L1507.03 1292.01 L1498.67 1293.95 L1490.31 1308.25 L1481.94 1273.8 L1473.58 1289.06 L1465.22 1287.24 L1456.85 1288.7 L1448.49 1279.73 L1440.12 1294.22 L1431.76 1275.66 L1423.4 1287.62 L1415.03 1280.79 L1406.67 1280.15 L1398.31 1269.27 L1389.94 1243.44 L1381.58 1285.14 L1373.21 1268.92 L1364.85 1284.61 L1356.49 1292.54 L1348.12 1288.83 L1339.76 1292.86 L1331.4 1288.59 L1323.03 1284.34 L1314.67 1278.82 L1306.31 1272.13 L1297.94 1284.15 L1289.58 1276.33 L1281.21 1275.62 L1272.85 1283.92 L1264.49 1284.12 L1256.12 1271.47 L1247.76 1275.88 L1239.4 1260.12 L1231.03 1274.25 L1222.67 1278.71 L1214.31 1282.76 L1205.94 1258.22 L1197.58 1286.49 L1189.21 1285.14 L1180.85 1276.23 L1172.49 1264.56 L1164.12 1285.64 L1155.76 1287.17 L1147.4 1266.11 L1139.03 1249.23 L1130.67 1260.68 L1122.3 1273.68 L1113.94 1265.99 L1105.58 1261.3 L1097.21 1271.82 L1088.85 1259.35 L1080.49 1274.16 L1072.12 1261.66 L1063.76 1265.17 L1055.4 1259.85 L1047.03 1264.71 L1038.67 1254.44 L1030.3 1250.42 L1021.94 1267.12 L1013.58 1258.49 L1005.21 1245.29 L996.85 1246.06 L988.486 1269.52 L980.123 1267.08 L971.759 1247.71 L963.395 1263.67 L955.032 1243.91 L946.668 1235.77 L938.304 1229.55 L929.941 1247.87 L921.577 1244.83 L913.213 1225.79 L904.85 1229.51 L896.486 1236.12 L888.122 1236.48 L879.759 1257.31 L871.395 1253.92 L863.031 1247.07 L854.668 1244.64 L846.304 1249.71 L837.94 1237.59 L829.577 1243.06 L821.213 1208.64 L812.849 1251.1 L804.486 1227.29 L796.122 1230.43 L787.758 1207.02 L779.395 1202.74 L771.031 1206.36 L762.667 1205.77 L754.304 1196.68 L745.94 1187.54 L737.576 1180.06 L729.213 1192.21 L720.849 1165.6 L712.485 1159.58 L704.122 1155.28 L695.758 1150.37 L687.394 1157.8 L679.031 1107.59 L670.667 1122.63 L662.303 1102.7 L653.94 1090.73 L645.576 1068.65 L637.212 1050.35 L628.849 1017.2 L620.485 1009.98 L612.121 985.704 L603.758 931.551 L595.394 918.972 L587.03 887.623 L578.667 849.584 L570.303 790.755 L561.939 761.08 L553.576 706.522 L545.212 655.835 L536.848 591.611 L528.485 530.234 L520.121 465.719 L511.757 339.575  Z" fill="#009e73" fill-rule="evenodd" fill-opacity="0.2"/>
<polyline clip-path="url(#clip251)" style="stroke:#009e73; stroke-linecap:round; stroke-linejoin:round; stroke-width:4; stroke-opacity:0.2; fill:none" points="511.757,647.044 520.121,770.793 528.485,811.267 536.848,892.836 545.212,913.62 553.576,995.3 561.939,1043.49 570.303,1065.8 578.667,1099.75 587.03,1137.02 595.394,1163.4 603.758,1203.32 612.121,1215.94 620.485,1251.59 628.849,1277.58 637.212,1288.75 645.576,1304.6 653.94,1318.49 662.303,1348.22 670.667,1360.41 679.031,1373.72 687.394,1384.76 695.758,1396.79 704.122,1418.33 712.485,1414.07 720.849,1427.82 729.213,1433.01 737.576,1439.24 745.94,1456.05 754.304,1462.95 762.667,1476.96 771.031,1465.45 779.395,1469.64 787.758,1477.82 796.122,1488.18 804.486,1498.64 812.849,1498.59 821.213,1494.91 829.577,1489.85 837.94,1501.97 846.304,1497.44 854.668,1502.37 863.031,1503.69 871.395,1502.53 879.759,1502.41 888.122,1499.78 896.486,1492.48 904.85,1496.71 913.213,1495.59 921.577,1503.56 929.941,1506.29 938.304,1501.32 946.668,1498.33 955.032,1507.44 963.395,1511.59 971.759,1509.47 980.123,1517.17 988.486,1518.89 996.85,1523.39 1005.21,1501.08 1013.58,1527.16 1021.94,1517.91 1030.3,1508.43 1038.67,1507.16 1047.03,1512.64 1055.4,1510.84 1063.76,1511.65 1072.12,1501.72 1080.49,1524.56 1088.85,1524.15 1097.21,1506.43 1105.58,1517.39 1113.94,1515.43 1122.3,1511.25 1130.67,1515.41 1139.03,1512.77 1147.4,1519.99 1155.76,1530.8 1164.12,1508.1 1172.49,1535.22 1180.85,1528.24 1189.21,1539.38 1197.58,1517.89 1205.94,1523.26 1214.31,1529.76 1222.67,1535.15 1231.03,1537.86 1239.4,1516.76 1247.76,1540.85 1256.12,1530.17 1264.49,1526.08 1272.85,1526.97 1281.21,1501.62 1289.58,1510.38 1297.94,1505.46 1306.31,1518.39 1314.67,1499.83 1323.03,1512.07 1331.4,1491.77 1339.76,1494.51 1348.12,1489.38 1356.49,1484.45 1364.85,1511.57 1373.21,1511.38 1381.58,1508.21 1389.94,1525.37 1398.31,1511.13 1406.67,1511.6 1415.03,1517.96 1423.4,1513.66 1431.76,1524.69 1440.12,1506.87 1448.49,1530.69 1456.85,1515.49 1465.22,1499.24 1473.58,1522.05 1481.94,1529.82 1490.31,1508.5 1498.67,1532.17 1507.03,1520.6 1515.4,1501.89 1523.76,1536.16 1532.12,1518.97 1540.49,1512.5 1548.85,1497.98 1557.22,1515.94 1565.58,1512.56 1573.94,1514.44 1582.31,1511.59 1590.67,1519.44 1599.03,1517.25 1607.4,1515.06 1615.76,1525.74 1624.12,1503 1632.49,1508.84 1640.85,1504.71 1649.22,1494.64 1657.58,1506 1665.94,1519.11 1674.31,1513.95 1682.67,1511.54 1691.03,1507.78 1699.4,1503.74 1707.76,1512.67 1716.13,1497.51 1724.49,1516.63 1732.85,1514.68 1741.22,1517.56 1749.58,1512.69 1757.94,1521.43 1766.31,1515.85 1774.67,1517.41 1783.03,1526.98 1791.4,1529.77 1799.76,1521.38 1808.13,1519.69 1816.49,1526.1 1824.85,1529.48 1833.22,1536.23 1841.58,1520.53 1849.94,1528.25 1858.31,1516.5 1866.67,1526.16 1875.03,1525.26 1883.4,1512.78 1891.76,1495.25 1900.13,1527.8 1908.49,1528.36 1916.85,1508.22 1925.22,1500.23 1933.58,1500.29 1941.94,1506.08 1950.31,1514.54 1958.67,1507.29 1967.04,1498.34 1975.4,1514.76 1983.76,1509.95 1992.13,1504.11 2000.49,1511.05 2008.85,1524 2017.22,1501.26 2025.58,1507.02 2033.94,1515.42 2042.31,1495.85 2050.67,1510.65 2059.04,1511.71 2067.4,1514.96 2075.76,1521.65 2084.13,1498.27 2092.49,1495.28 2100.85,1534.65 2109.22,1509.71 2117.58,1502.29 2125.94,1510.27 2134.31,1497.1 2142.67,1495.36 2151.04,1505.14 2159.4,1501.07 2167.76,1511.28 2176.13,1508.3 2184.49,1510 2192.85,1498.11 2201.22,1501.96 2209.58,1506.99 2217.95,1495.4 2226.31,1505.12 2234.67,1484.84 2243.04,1518.5 2251.4,1508.31 2259.76,1490.96 2268.13,1496.8 2276.49,1489.94 2284.85,1499.55 2293.22,1500.81 2301.58,1504.24 2309.95,1510.09 2318.31,1498.31 2326.67,1513.98 2335.04,1494.13 2343.4,1493.07 2351.76,1503.78 2360.13,1487.21 2368.49,1498.26 2376.85,1508.93 2385.22,1503.38 2393.58,1506.39 2401.95,1495.05 2410.31,1512.15 2418.67,1493.21 2427.04,1493.98 2435.4,1497.9 2443.76,1496.27 2452.13,1494.62 2460.49,1501.85 2468.86,1507.02 2477.22,1506.8 2485.58,1519.07 2493.95,1524.89 2502.31,1500.69 2510.67,1518.8 2519.04,1523.26 2527.4,1517.9 2535.76,1515.33 2544.13,1513.19 2552.49,1514.22 2560.86,1504.47 2569.22,1506.8 2577.58,1503.25 2585.95,1503.96 2594.31,1520.9 2602.67,1498.18 2611.04,1511.45 "/>
<path clip-path="url(#clip250)" d="M1965.55 409.426 L2599.84 409.426 L2599.84 176.146 L1965.55 176.146  Z" fill="#ffffff" fill-rule="evenodd" fill-opacity="1"/>
<polyline clip-path="url(#clip250)" style="stroke:#000000; stroke-linecap:round; stroke-linejoin:round; stroke-width:4; stroke-opacity:1; fill:none" points="1965.55,409.426 2599.84,409.426 2599.84,176.146 1965.55,176.146 1965.55,409.426 "/>
<polyline clip-path="url(#clip250)" style="stroke:#d45e00; stroke-linecap:round; stroke-linejoin:round; stroke-width:9; stroke-opacity:1; fill:none" stroke-dasharray="36, 23" points="1990.27,234.466 2138.62,234.466 "/>
<path clip-path="url(#clip250)" d="M2181.37 218.594 Q2175.64 218.594 2172.25 222.864 Q2168.89 227.135 2168.89 234.505 Q2168.89 241.849 2172.25 246.119 Q2175.64 250.39 2181.37 250.39 Q2187.1 250.39 2190.43 246.119 Q2193.79 241.849 2193.79 234.505 Q2193.79 227.135 2190.43 222.864 Q2187.1 218.594 2181.37 218.594 M2181.37 214.323 Q2189.55 214.323 2194.44 219.817 Q2199.34 225.286 2199.34 234.505 Q2199.34 243.698 2194.44 249.192 Q2189.55 254.661 2181.37 254.661 Q2173.17 254.661 2168.24 249.192 Q2163.35 243.724 2163.35 234.505 Q2163.35 225.286 2168.24 219.817 Q2173.17 214.323 2181.37 214.323 Z" fill="#000000" fill-rule="nonzero" fill-opacity="1" /><path clip-path="url(#clip250)" d="M2228.3 239.349 Q2228.3 234.062 2226.11 231.067 Q2223.95 228.047 2220.14 228.047 Q2216.34 228.047 2214.15 231.067 Q2211.99 234.062 2211.99 239.349 Q2211.99 244.635 2214.15 247.656 Q2216.34 250.651 2220.14 250.651 Q2223.95 250.651 2226.11 247.656 Q2228.3 244.635 2228.3 239.349 M2211.99 229.166 Q2213.5 226.562 2215.8 225.312 Q2218.11 224.036 2221.32 224.036 Q2226.63 224.036 2229.94 228.255 Q2233.27 232.474 2233.27 239.349 Q2233.27 246.224 2229.94 250.442 Q2226.63 254.661 2221.32 254.661 Q2218.11 254.661 2215.8 253.411 Q2213.5 252.135 2211.99 249.531 L2211.99 253.906 L2207.18 253.906 L2207.18 213.385 L2211.99 213.385 L2211.99 229.166 Z" fill="#000000" fill-rule="nonzero" fill-opacity="1" /><path clip-path="url(#clip250)" d="M2259.81 225.599 L2259.81 230.13 Q2257.77 229.088 2255.59 228.567 Q2253.4 228.047 2251.06 228.047 Q2247.49 228.047 2245.69 229.14 Q2243.92 230.234 2243.92 232.422 Q2243.92 234.088 2245.2 235.052 Q2246.47 235.989 2250.33 236.849 L2251.97 237.213 Q2257.07 238.307 2259.21 240.312 Q2261.37 242.291 2261.37 245.859 Q2261.37 249.921 2258.14 252.291 Q2254.94 254.661 2249.31 254.661 Q2246.97 254.661 2244.41 254.192 Q2241.89 253.75 2239.08 252.838 L2239.08 247.89 Q2241.73 249.27 2244.31 249.974 Q2246.89 250.651 2249.41 250.651 Q2252.8 250.651 2254.62 249.505 Q2256.45 248.333 2256.45 246.224 Q2256.45 244.27 2255.12 243.229 Q2253.82 242.187 2249.36 241.224 L2247.7 240.833 Q2243.24 239.895 2241.26 237.968 Q2239.28 236.015 2239.28 232.63 Q2239.28 228.515 2242.2 226.276 Q2245.12 224.036 2250.48 224.036 Q2253.14 224.036 2255.48 224.427 Q2257.83 224.817 2259.81 225.599 Z" fill="#000000" fill-rule="nonzero" fill-opacity="1" /><path clip-path="url(#clip250)" d="M2293.95 238.125 L2293.95 240.468 L2271.91 240.468 Q2272.23 245.416 2274.88 248.02 Q2277.57 250.599 2282.33 250.599 Q2285.09 250.599 2287.67 249.921 Q2290.27 249.244 2292.83 247.89 L2292.83 252.421 Q2290.25 253.515 2287.54 254.088 Q2284.83 254.661 2282.04 254.661 Q2275.07 254.661 2270.98 250.599 Q2266.91 246.536 2266.91 239.609 Q2266.91 232.448 2270.77 228.255 Q2274.65 224.036 2281.21 224.036 Q2287.1 224.036 2290.51 227.838 Q2293.95 231.614 2293.95 238.125 M2289.15 236.718 Q2289.1 232.786 2286.94 230.442 Q2284.81 228.099 2281.26 228.099 Q2277.25 228.099 2274.83 230.364 Q2272.44 232.63 2272.07 236.744 L2289.15 236.718 Z" fill="#000000" fill-rule="nonzero" fill-opacity="1" /><path clip-path="url(#clip250)" d="M2318.71 229.218 Q2317.9 228.75 2316.94 228.541 Q2316 228.307 2314.86 228.307 Q2310.79 228.307 2308.61 230.963 Q2306.45 233.593 2306.45 238.541 L2306.45 253.906 L2301.63 253.906 L2301.63 224.739 L2306.45 224.739 L2306.45 229.271 Q2307.96 226.614 2310.38 225.338 Q2312.8 224.036 2316.26 224.036 Q2316.76 224.036 2317.36 224.114 Q2317.96 224.166 2318.69 224.297 L2318.71 229.218 Z" fill="#000000" fill-rule="nonzero" fill-opacity="1" /><path clip-path="url(#clip250)" d="M2320.3 224.739 L2325.38 224.739 L2334.49 249.218 L2343.61 224.739 L2348.69 224.739 L2337.75 253.906 L2331.24 253.906 L2320.3 224.739 Z" fill="#000000" fill-rule="nonzero" fill-opacity="1" /><path clip-path="url(#clip250)" d="M2380.25 238.125 L2380.25 240.468 L2358.22 240.468 Q2358.53 245.416 2361.19 248.02 Q2363.87 250.599 2368.63 250.599 Q2371.39 250.599 2373.97 249.921 Q2376.58 249.244 2379.13 247.89 L2379.13 252.421 Q2376.55 253.515 2373.84 254.088 Q2371.13 254.661 2368.35 254.661 Q2361.37 254.661 2357.28 250.599 Q2353.22 246.536 2353.22 239.609 Q2353.22 232.448 2357.07 228.255 Q2360.95 224.036 2367.51 224.036 Q2373.4 224.036 2376.81 227.838 Q2380.25 231.614 2380.25 238.125 M2375.46 236.718 Q2375.4 232.786 2373.24 230.442 Q2371.11 228.099 2367.57 228.099 Q2363.55 228.099 2361.13 230.364 Q2358.74 232.63 2358.37 236.744 L2375.46 236.718 Z" fill="#000000" fill-rule="nonzero" fill-opacity="1" /><path clip-path="url(#clip250)" d="M2407.3 229.166 L2407.3 213.385 L2412.1 213.385 L2412.1 253.906 L2407.3 253.906 L2407.3 249.531 Q2405.79 252.135 2403.48 253.411 Q2401.18 254.661 2397.96 254.661 Q2392.67 254.661 2389.34 250.442 Q2386.03 246.224 2386.03 239.349 Q2386.03 232.474 2389.34 228.255 Q2392.67 224.036 2397.96 224.036 Q2401.18 224.036 2403.48 225.312 Q2405.79 226.562 2407.3 229.166 M2390.98 239.349 Q2390.98 244.635 2393.14 247.656 Q2395.33 250.651 2399.13 250.651 Q2402.93 250.651 2405.12 247.656 Q2407.3 244.635 2407.3 239.349 Q2407.3 234.062 2405.12 231.067 Q2402.93 228.047 2399.13 228.047 Q2395.33 228.047 2393.14 231.067 Q2390.98 234.062 2390.98 239.349 Z" fill="#000000" fill-rule="nonzero" fill-opacity="1" /><polyline clip-path="url(#clip250)" style="stroke:#009e73; stroke-linecap:round; stroke-linejoin:round; stroke-width:9; stroke-opacity:1; fill:none" points="1990.27,292.786 2138.62,292.786 "/>
<path clip-path="url(#clip250)" d="M2194.7 276.341 L2194.7 281.887 Q2192.05 279.414 2189.02 278.19 Q2186.03 276.966 2182.64 276.966 Q2175.98 276.966 2172.44 281.054 Q2168.89 285.117 2168.89 292.825 Q2168.89 300.507 2172.44 304.596 Q2175.98 308.658 2182.64 308.658 Q2186.03 308.658 2189.02 307.434 Q2192.05 306.21 2194.7 303.736 L2194.7 309.231 Q2191.94 311.106 2188.84 312.044 Q2185.77 312.981 2182.33 312.981 Q2173.5 312.981 2168.43 307.59 Q2163.35 302.174 2163.35 292.825 Q2163.35 283.45 2168.43 278.059 Q2173.5 272.643 2182.33 272.643 Q2185.82 272.643 2188.89 273.58 Q2191.99 274.492 2194.7 276.341 Z" fill="#000000" fill-rule="nonzero" fill-opacity="1" /><path clip-path="url(#clip250)" d="M2202.83 273.346 L2208.09 273.346 L2208.09 289.283 L2227.2 289.283 L2227.2 273.346 L2232.46 273.346 L2232.46 312.226 L2227.2 312.226 L2227.2 293.71 L2208.09 293.71 L2208.09 312.226 L2202.83 312.226 L2202.83 273.346 Z" fill="#000000" fill-rule="nonzero" fill-opacity="1" /><path clip-path="url(#clip250)" d="M2242.93 273.346 L2250.77 273.346 L2260.69 299.804 L2270.66 273.346 L2278.5 273.346 L2278.5 312.226 L2273.37 312.226 L2273.37 278.085 L2263.35 304.752 L2258.06 304.752 L2248.03 278.085 L2248.03 312.226 L2242.93 312.226 L2242.93 273.346 Z" fill="#000000" fill-rule="nonzero" fill-opacity="1" /><path clip-path="url(#clip250)" d="M2288.95 273.346 L2296.78 273.346 L2306.71 299.804 L2316.68 273.346 L2324.52 273.346 L2324.52 312.226 L2319.39 312.226 L2319.39 278.085 L2309.36 304.752 L2304.08 304.752 L2294.05 278.085 L2294.05 312.226 L2288.95 312.226 L2288.95 273.346 Z" fill="#000000" fill-rule="nonzero" fill-opacity="1" /><path clip-path="url(#clip250)" d="M2332.33 295.481 L2346.37 295.481 L2346.37 299.752 L2332.33 299.752 L2332.33 295.481 Z" fill="#000000" fill-rule="nonzero" fill-opacity="1" /><path clip-path="url(#clip250)" d="M2358.74 274.778 L2358.74 283.059 L2368.61 283.059 L2368.61 286.783 L2358.74 286.783 L2358.74 302.617 Q2358.74 306.184 2359.7 307.2 Q2360.69 308.215 2363.69 308.215 L2368.61 308.215 L2368.61 312.226 L2363.69 312.226 Q2358.14 312.226 2356.03 310.169 Q2353.92 308.085 2353.92 302.617 L2353.92 286.783 L2350.4 286.783 L2350.4 283.059 L2353.92 283.059 L2353.92 274.778 L2358.74 274.778 Z" fill="#000000" fill-rule="nonzero" fill-opacity="1" /><path clip-path="url(#clip250)" d="M2403.37 271.757 Q2399.88 277.747 2398.19 283.606 Q2396.5 289.466 2396.5 295.481 Q2396.5 301.497 2398.19 307.408 Q2399.91 313.294 2403.37 319.257 L2399.21 319.257 Q2395.3 313.137 2393.35 307.226 Q2391.42 301.314 2391.42 295.481 Q2391.42 289.674 2393.35 283.788 Q2395.27 277.903 2399.21 271.757 L2403.37 271.757 Z" fill="#000000" fill-rule="nonzero" fill-opacity="1" /><path clip-path="url(#clip250)" d="M2435.38 288.658 Q2437.17 285.429 2439.67 283.893 Q2442.17 282.356 2445.56 282.356 Q2450.12 282.356 2452.59 285.559 Q2455.06 288.736 2455.06 294.622 L2455.06 312.226 L2450.25 312.226 L2450.25 294.778 Q2450.25 290.585 2448.76 288.554 Q2447.28 286.523 2444.23 286.523 Q2440.51 286.523 2438.35 288.997 Q2436.18 291.471 2436.18 295.742 L2436.18 312.226 L2431.37 312.226 L2431.37 294.778 Q2431.37 290.559 2429.88 288.554 Q2428.4 286.523 2425.3 286.523 Q2421.63 286.523 2419.47 289.023 Q2417.3 291.497 2417.3 295.742 L2417.3 312.226 L2412.49 312.226 L2412.49 283.059 L2417.3 283.059 L2417.3 287.591 Q2418.95 284.908 2421.24 283.632 Q2423.53 282.356 2426.68 282.356 Q2429.86 282.356 2432.07 283.971 Q2434.31 285.585 2435.38 288.658 Z" fill="#000000" fill-rule="nonzero" fill-opacity="1" /><path clip-path="url(#clip250)" d="M2489.57 296.445 L2489.57 298.788 L2467.54 298.788 Q2467.85 303.736 2470.51 306.34 Q2473.19 308.919 2477.96 308.919 Q2480.72 308.919 2483.29 308.241 Q2485.9 307.564 2488.45 306.21 L2488.45 310.741 Q2485.87 311.835 2483.16 312.408 Q2480.46 312.981 2477.67 312.981 Q2470.69 312.981 2466.6 308.919 Q2462.54 304.856 2462.54 297.929 Q2462.54 290.768 2466.39 286.575 Q2470.27 282.356 2476.84 282.356 Q2482.72 282.356 2486.13 286.158 Q2489.57 289.934 2489.57 296.445 M2484.78 295.038 Q2484.73 291.106 2482.56 288.762 Q2480.43 286.419 2476.89 286.419 Q2472.88 286.419 2470.46 288.684 Q2468.06 290.95 2467.7 295.064 L2484.78 295.038 Z" fill="#000000" fill-rule="nonzero" fill-opacity="1" /><path clip-path="url(#clip250)" d="M2510.69 297.564 Q2504.88 297.564 2502.64 298.893 Q2500.4 300.221 2500.4 303.424 Q2500.4 305.976 2502.07 307.486 Q2503.76 308.971 2506.65 308.971 Q2510.64 308.971 2513.03 306.158 Q2515.46 303.32 2515.46 298.632 L2515.46 297.564 L2510.69 297.564 M2520.25 295.585 L2520.25 312.226 L2515.46 312.226 L2515.46 307.799 Q2513.81 310.455 2511.37 311.731 Q2508.92 312.981 2505.38 312.981 Q2500.9 312.981 2498.24 310.481 Q2495.61 307.955 2495.61 303.736 Q2495.61 298.814 2498.89 296.314 Q2502.2 293.814 2508.74 293.814 L2515.46 293.814 L2515.46 293.346 Q2515.46 290.038 2513.27 288.242 Q2511.11 286.419 2507.17 286.419 Q2504.67 286.419 2502.3 287.018 Q2499.93 287.617 2497.75 288.814 L2497.75 284.387 Q2500.38 283.372 2502.85 282.877 Q2505.33 282.356 2507.67 282.356 Q2514 282.356 2517.12 285.637 Q2520.25 288.919 2520.25 295.585 Z" fill="#000000" fill-rule="nonzero" fill-opacity="1" /><path clip-path="url(#clip250)" d="M2554.36 294.622 L2554.36 312.226 L2549.57 312.226 L2549.57 294.778 Q2549.57 290.637 2547.96 288.58 Q2546.34 286.523 2543.11 286.523 Q2539.23 286.523 2536.99 288.997 Q2534.75 291.471 2534.75 295.742 L2534.75 312.226 L2529.93 312.226 L2529.93 283.059 L2534.75 283.059 L2534.75 287.591 Q2536.47 284.96 2538.79 283.658 Q2541.13 282.356 2544.18 282.356 Q2549.21 282.356 2551.78 285.481 Q2554.36 288.58 2554.36 294.622 Z" fill="#000000" fill-rule="nonzero" fill-opacity="1" /><path clip-path="url(#clip250)" d="M2563.16 271.757 L2567.33 271.757 Q2571.24 277.903 2573.16 283.788 Q2575.12 289.674 2575.12 295.481 Q2575.12 301.314 2573.16 307.226 Q2571.24 313.137 2567.33 319.257 L2563.16 319.257 Q2566.63 313.294 2568.32 307.408 Q2570.04 301.497 2570.04 295.481 Q2570.04 289.466 2568.32 283.606 Q2566.63 277.747 2563.16 271.757 Z" fill="#000000" fill-rule="nonzero" fill-opacity="1" /><path clip-path="url(#clip250)" d="M1990.27 374.434 L2138.62 374.434 L2138.62 327.778 L1990.27 327.778 L1990.27 374.434  Z" fill="#009e73" fill-rule="evenodd" fill-opacity="0.2"/>
<polyline clip-path="url(#clip250)" style="stroke:#009e73; stroke-linecap:round; stroke-linejoin:round; stroke-width:4.5; stroke-opacity:0.2; fill:none" points="1990.27,327.778 2138.62,327.778 "/>
<path clip-path="url(#clip250)" d="M2164.1 366.119 L2172.7 366.119 L2172.7 336.457 L2163.35 338.332 L2163.35 333.541 L2172.64 331.666 L2177.9 331.666 L2177.9 366.119 L2186.5 366.119 L2186.5 370.546 L2164.1 370.546 L2164.1 366.119 Z" fill="#000000" fill-rule="nonzero" fill-opacity="1" /><path clip-path="url(#clip250)" d="M2208.37 335.129 Q2204.31 335.129 2202.25 339.14 Q2200.22 343.124 2200.22 351.145 Q2200.22 359.14 2202.25 363.15 Q2204.31 367.134 2208.37 367.134 Q2212.46 367.134 2214.49 363.15 Q2216.55 359.14 2216.55 351.145 Q2216.55 343.124 2214.49 339.14 Q2212.46 335.129 2208.37 335.129 M2208.37 330.963 Q2214.91 330.963 2218.35 336.145 Q2221.81 341.301 2221.81 351.145 Q2221.81 360.963 2218.35 366.145 Q2214.91 371.301 2208.37 371.301 Q2201.84 371.301 2198.37 366.145 Q2194.94 360.963 2194.94 351.145 Q2194.94 341.301 2198.37 336.145 Q2201.84 330.963 2208.37 330.963 Z" fill="#000000" fill-rule="nonzero" fill-opacity="1" /><path clip-path="url(#clip250)" d="M2227.96 353.801 L2241.99 353.801 L2241.99 358.072 L2227.96 358.072 L2227.96 353.801 Z" fill="#000000" fill-rule="nonzero" fill-opacity="1" /><path clip-path="url(#clip250)" d="M2250.46 369.739 L2250.46 364.947 Q2252.44 365.884 2254.47 366.379 Q2256.5 366.874 2258.45 366.874 Q2263.66 366.874 2266.39 363.384 Q2269.15 359.869 2269.55 352.733 Q2268.03 354.973 2265.72 356.171 Q2263.4 357.369 2260.59 357.369 Q2254.75 357.369 2251.34 353.853 Q2247.96 350.312 2247.96 344.192 Q2247.96 338.202 2251.5 334.582 Q2255.04 330.963 2260.93 330.963 Q2267.67 330.963 2271.21 336.145 Q2274.78 341.301 2274.78 351.145 Q2274.78 360.338 2270.4 365.832 Q2266.06 371.301 2258.69 371.301 Q2256.71 371.301 2254.68 370.91 Q2252.64 370.52 2250.46 369.739 M2260.93 353.254 Q2264.47 353.254 2266.52 350.832 Q2268.61 348.411 2268.61 344.192 Q2268.61 339.999 2266.52 337.577 Q2264.47 335.129 2260.93 335.129 Q2257.38 335.129 2255.3 337.577 Q2253.24 339.999 2253.24 344.192 Q2253.24 348.411 2255.3 350.832 Q2257.38 353.254 2260.93 353.254 Z" fill="#000000" fill-rule="nonzero" fill-opacity="1" /><path clip-path="url(#clip250)" d="M2295.48 335.129 Q2291.42 335.129 2289.36 339.14 Q2287.33 343.124 2287.33 351.145 Q2287.33 359.14 2289.36 363.15 Q2291.42 367.134 2295.48 367.134 Q2299.57 367.134 2301.6 363.15 Q2303.66 359.14 2303.66 351.145 Q2303.66 343.124 2301.6 339.14 Q2299.57 335.129 2295.48 335.129 M2295.48 330.963 Q2302.02 330.963 2305.46 336.145 Q2308.92 341.301 2308.92 351.145 Q2308.92 360.963 2305.46 366.145 Q2302.02 371.301 2295.48 371.301 Q2288.95 371.301 2285.48 366.145 Q2282.04 360.963 2282.04 351.145 Q2282.04 341.301 2285.48 336.145 Q2288.95 330.963 2295.48 330.963 Z" fill="#000000" fill-rule="nonzero" fill-opacity="1" /><path clip-path="url(#clip250)" d="M2322.23 333.098 L2322.23 341.379 L2332.1 341.379 L2332.1 345.103 L2322.23 345.103 L2322.23 360.937 Q2322.23 364.504 2323.19 365.52 Q2324.18 366.535 2327.17 366.535 L2332.1 366.535 L2332.1 370.546 L2327.17 370.546 Q2321.63 370.546 2319.52 368.489 Q2317.41 366.405 2317.41 360.937 L2317.41 345.103 L2313.89 345.103 L2313.89 341.379 L2317.41 341.379 L2317.41 333.098 L2322.23 333.098 Z" fill="#000000" fill-rule="nonzero" fill-opacity="1" /><path clip-path="url(#clip250)" d="M2362.64 352.942 L2362.64 370.546 L2357.85 370.546 L2357.85 353.098 Q2357.85 348.957 2356.24 346.9 Q2354.62 344.843 2351.39 344.843 Q2347.51 344.843 2345.27 347.317 Q2343.03 349.791 2343.03 354.062 L2343.03 370.546 L2338.22 370.546 L2338.22 330.025 L2343.03 330.025 L2343.03 345.911 Q2344.75 343.28 2347.07 341.978 Q2349.41 340.676 2352.46 340.676 Q2357.49 340.676 2360.07 343.801 Q2362.64 346.9 2362.64 352.942 Z" fill="#000000" fill-rule="nonzero" fill-opacity="1" /><path clip-path="url(#clip250)" d="M2393.79 366.171 L2393.79 381.64 L2388.97 381.64 L2388.97 341.379 L2393.79 341.379 L2393.79 345.806 Q2395.3 343.202 2397.59 341.952 Q2399.91 340.676 2403.11 340.676 Q2408.42 340.676 2411.73 344.895 Q2415.07 349.114 2415.07 355.989 Q2415.07 362.864 2411.73 367.082 Q2408.42 371.301 2403.11 371.301 Q2399.91 371.301 2397.59 370.051 Q2395.3 368.775 2393.79 366.171 M2410.09 355.989 Q2410.09 350.702 2407.9 347.707 Q2405.74 344.687 2401.94 344.687 Q2398.14 344.687 2395.95 347.707 Q2393.79 350.702 2393.79 355.989 Q2393.79 361.275 2395.95 364.296 Q2398.14 367.291 2401.94 367.291 Q2405.74 367.291 2407.9 364.296 Q2410.09 361.275 2410.09 355.989 Z" fill="#000000" fill-rule="nonzero" fill-opacity="1" /><path clip-path="url(#clip250)" d="M2444 342.499 L2444 346.978 Q2441.97 345.858 2439.91 345.312 Q2437.88 344.739 2435.79 344.739 Q2431.13 344.739 2428.55 347.707 Q2425.98 350.65 2425.98 355.989 Q2425.98 361.327 2428.55 364.296 Q2431.13 367.239 2435.79 367.239 Q2437.88 367.239 2439.91 366.692 Q2441.97 366.119 2444 364.999 L2444 369.426 Q2441.99 370.364 2439.83 370.832 Q2437.7 371.301 2435.27 371.301 Q2428.68 371.301 2424.8 367.16 Q2420.92 363.02 2420.92 355.989 Q2420.92 348.853 2424.83 344.765 Q2428.76 340.676 2435.59 340.676 Q2437.8 340.676 2439.91 341.145 Q2442.02 341.588 2444 342.499 Z" fill="#000000" fill-rule="nonzero" fill-opacity="1" /><path clip-path="url(#clip250)" d="M2457.07 333.098 L2457.07 341.379 L2466.94 341.379 L2466.94 345.103 L2457.07 345.103 L2457.07 360.937 Q2457.07 364.504 2458.03 365.52 Q2459.02 366.535 2462.02 366.535 L2466.94 366.535 L2466.94 370.546 L2462.02 370.546 Q2456.47 370.546 2454.36 368.489 Q2452.25 366.405 2452.25 360.937 L2452.25 345.103 L2448.74 345.103 L2448.74 341.379 L2452.25 341.379 L2452.25 333.098 L2457.07 333.098 Z" fill="#000000" fill-rule="nonzero" fill-opacity="1" /><path clip-path="url(#clip250)" d="M2473.24 330.025 L2478.03 330.025 L2478.03 370.546 L2473.24 370.546 L2473.24 330.025 Z" fill="#000000" fill-rule="nonzero" fill-opacity="1" /></svg>
