<?xml version="1.0" encoding="utf-8"?>
<svg xmlns="http://www.w3.org/2000/svg" xmlns:xlink="http://www.w3.org/1999/xlink" width="600" height="400" viewBox="0 0 2400 1600">
<defs>
  <clipPath id="clip610">
    <rect x="0" y="0" width="2400" height="1600"/>
  </clipPath>
</defs>
<path clip-path="url(#clip610)" d="M0 1600 L2400 1600 L2400 8.88178e-14 L0 8.88178e-14  Z" fill="#ffffff" fill-rule="evenodd" fill-opacity="1"/>
<defs>
  <clipPath id="clip611">
    <rect x="313" y="640" width="2012" height="49"/>
  </clipPath>
</defs>
<path clip-path="url(#clip610)" d="M545.232 1241.31 L2274.02 1241.31 L2274.02 184.932 L545.232 184.932  Z" fill="#ffffff" fill-rule="evenodd" fill-opacity="1"/>
<defs>
  <clipPath id="clip612">
    <rect x="545" y="184" width="1730" height="1057"/>
  </clipPath>
</defs>
<polyline clip-path="url(#clip612)" style="stroke:#000000; stroke-linecap:round; stroke-linejoin:round; stroke-width:2; stroke-opacity:0.1; fill:none" points="566.517,1241.31 566.517,184.932 "/>
<polyline clip-path="url(#clip612)" style="stroke:#000000; stroke-linecap:round; stroke-linejoin:round; stroke-width:2; stroke-opacity:0.1; fill:none" points="842.946,1241.31 842.946,184.932 "/>
<polyline clip-path="url(#clip612)" style="stroke:#000000; stroke-linecap:round; stroke-linejoin:round; stroke-width:2; stroke-opacity:0.1; fill:none" points="1119.37,1241.31 1119.37,184.932 "/>
<polyline clip-path="url(#clip612)" style="stroke:#000000; stroke-linecap:round; stroke-linejoin:round; stroke-width:2; stroke-opacity:0.1; fill:none" points="1395.8,1241.31 1395.8,184.932 "/>
<polyline clip-path="url(#clip612)" style="stroke:#000000; stroke-linecap:round; stroke-linejoin:round; stroke-width:2; stroke-opacity:0.1; fill:none" points="1672.23,1241.31 1672.23,184.932 "/>
<polyline clip-path="url(#clip612)" style="stroke:#000000; stroke-linecap:round; stroke-linejoin:round; stroke-width:2; stroke-opacity:0.1; fill:none" points="1948.66,1241.31 1948.66,184.932 "/>
<polyline clip-path="url(#clip612)" style="stroke:#000000; stroke-linecap:round; stroke-linejoin:round; stroke-width:2; stroke-opacity:0.1; fill:none" points="2225.09,1241.31 2225.09,184.932 "/>
<polyline clip-path="url(#clip612)" style="stroke:#000000; stroke-linecap:round; stroke-linejoin:round; stroke-width:2; stroke-opacity:0.1; fill:none" points="545.232,1114.78 2274.02,1114.78 "/>
<polyline clip-path="url(#clip612)" style="stroke:#000000; stroke-linecap:round; stroke-linejoin:round; stroke-width:2; stroke-opacity:0.1; fill:none" points="545.232,954.279 2274.02,954.279 "/>
<polyline clip-path="url(#clip612)" style="stroke:#000000; stroke-linecap:round; stroke-linejoin:round; stroke-width:2; stroke-opacity:0.1; fill:none" points="545.232,793.779 2274.02,793.779 "/>
<polyline clip-path="url(#clip612)" style="stroke:#000000; stroke-linecap:round; stroke-linejoin:round; stroke-width:2; stroke-opacity:0.1; fill:none" points="545.232,633.28 2274.02,633.28 "/>
<polyline clip-path="url(#clip612)" style="stroke:#000000; stroke-linecap:round; stroke-linejoin:round; stroke-width:2; stroke-opacity:0.1; fill:none" points="545.232,472.781 2274.02,472.781 "/>
<polyline clip-path="url(#clip612)" style="stroke:#000000; stroke-linecap:round; stroke-linejoin:round; stroke-width:2; stroke-opacity:0.1; fill:none" points="545.232,312.282 2274.02,312.282 "/>
<polyline clip-path="url(#clip610)" style="stroke:#000000; stroke-linecap:round; stroke-linejoin:round; stroke-width:4; stroke-opacity:1; fill:none" points="545.232,1241.31 2274.02,1241.31 "/>
<polyline clip-path="url(#clip610)" style="stroke:#000000; stroke-linecap:round; stroke-linejoin:round; stroke-width:4; stroke-opacity:1; fill:none" points="566.517,1241.31 566.517,1222.41 "/>
<polyline clip-path="url(#clip610)" style="stroke:#000000; stroke-linecap:round; stroke-linejoin:round; stroke-width:4; stroke-opacity:1; fill:none" points="842.946,1241.31 842.946,1222.41 "/>
<polyline clip-path="url(#clip610)" style="stroke:#000000; stroke-linecap:round; stroke-linejoin:round; stroke-width:4; stroke-opacity:1; fill:none" points="1119.37,1241.31 1119.37,1222.41 "/>
<polyline clip-path="url(#clip610)" style="stroke:#000000; stroke-linecap:round; stroke-linejoin:round; stroke-width:4; stroke-opacity:1; fill:none" points="1395.8,1241.31 1395.8,1222.41 "/>
<polyline clip-path="url(#clip610)" style="stroke:#000000; stroke-linecap:round; stroke-linejoin:round; stroke-width:4; stroke-opacity:1; fill:none" points="1672.23,1241.31 1672.23,1222.41 "/>
<polyline clip-path="url(#clip610)" style="stroke:#000000; stroke-linecap:round; stroke-linejoin:round; stroke-width:4; stroke-opacity:1; fill:none" points="1948.66,1241.31 1948.66,1222.41 "/>
<polyline clip-path="url(#clip610)" style="stroke:#000000; stroke-linecap:round; stroke-linejoin:round; stroke-width:4; stroke-opacity:1; fill:none" points="2225.09,1241.31 2225.09,1222.41 "/>
<path clip-path="url(#clip610)" d="M566.517 1275.16 Q562.004 1275.16 559.718 1279.62 Q557.461 1284.04 557.461 1292.95 Q557.461 1301.84 559.718 1306.29 Q562.004 1310.72 566.517 1310.72 Q571.06 1310.72 573.317 1306.29 Q575.603 1301.84 575.603 1292.95 Q575.603 1284.04 573.317 1279.62 Q571.06 1275.16 566.517 1275.16 M566.517 1270.53 Q573.78 1270.53 577.599 1276.29 Q581.448 1282.02 581.448 1292.95 Q581.448 1303.86 577.599 1309.62 Q573.78 1315.35 566.517 1315.35 Q559.255 1315.35 555.406 1309.62 Q551.587 1303.86 551.587 1292.95 Q551.587 1282.02 555.406 1276.29 Q559.255 1270.53 566.517 1270.53 Z" fill="#000000" fill-rule="nonzero" fill-opacity="1" /><path clip-path="url(#clip610)" d="M811.305 1309.59 L820.854 1309.59 L820.854 1276.64 L810.466 1278.72 L810.466 1273.39 L820.796 1271.31 L826.641 1271.31 L826.641 1309.59 L836.189 1309.59 L836.189 1314.51 L811.305 1314.51 L811.305 1309.59 Z" fill="#000000" fill-rule="nonzero" fill-opacity="1" /><path clip-path="url(#clip610)" d="M860.495 1275.16 Q855.981 1275.16 853.695 1279.62 Q851.438 1284.04 851.438 1292.95 Q851.438 1301.84 853.695 1306.29 Q855.981 1310.72 860.495 1310.72 Q865.038 1310.72 867.295 1306.29 Q869.58 1301.84 869.58 1292.95 Q869.58 1284.04 867.295 1279.62 Q865.038 1275.16 860.495 1275.16 M860.495 1270.53 Q867.758 1270.53 871.577 1276.29 Q875.425 1282.02 875.425 1292.95 Q875.425 1303.86 871.577 1309.62 Q867.758 1315.35 860.495 1315.35 Q853.232 1315.35 849.384 1309.62 Q845.564 1303.86 845.564 1292.95 Q845.564 1282.02 849.384 1276.29 Q853.232 1270.53 860.495 1270.53 Z" fill="#000000" fill-rule="nonzero" fill-opacity="1" /><path clip-path="url(#clip610)" d="M1092.84 1309.59 L1113.24 1309.59 L1113.24 1314.51 L1085.81 1314.51 L1085.81 1309.59 Q1089.14 1306.15 1094.87 1300.36 Q1100.62 1294.55 1102.1 1292.87 Q1104.91 1289.71 1106.01 1287.54 Q1107.13 1285.34 1107.13 1283.23 Q1107.13 1279.79 1104.7 1277.62 Q1102.3 1275.45 1098.43 1275.45 Q1095.68 1275.45 1092.61 1276.4 Q1089.57 1277.36 1086.1 1279.3 L1086.1 1273.39 Q1089.63 1271.98 1092.7 1271.25 Q1095.76 1270.53 1098.31 1270.53 Q1105.02 1270.53 1109.02 1273.89 Q1113.01 1277.24 1113.01 1282.86 Q1113.01 1285.52 1112 1287.92 Q1111.01 1290.29 1108.38 1293.53 Q1107.66 1294.37 1103.78 1298.39 Q1099.9 1302.39 1092.84 1309.59 Z" fill="#000000" fill-rule="nonzero" fill-opacity="1" /><path clip-path="url(#clip610)" d="M1138.01 1275.16 Q1133.49 1275.16 1131.21 1279.62 Q1128.95 1284.04 1128.95 1292.95 Q1128.95 1301.84 1131.21 1306.29 Q1133.49 1310.72 1138.01 1310.72 Q1142.55 1310.72 1144.81 1306.29 Q1147.09 1301.84 1147.09 1292.95 Q1147.09 1284.04 1144.81 1279.62 Q1142.55 1275.16 1138.01 1275.16 M1138.01 1270.53 Q1145.27 1270.53 1149.09 1276.29 Q1152.94 1282.02 1152.94 1292.95 Q1152.94 1303.86 1149.09 1309.62 Q1145.27 1315.35 1138.01 1315.35 Q1130.75 1315.35 1126.9 1309.62 Q1123.08 1303.86 1123.08 1292.95 Q1123.08 1282.02 1126.9 1276.29 Q1130.75 1270.53 1138.01 1270.53 Z" fill="#000000" fill-rule="nonzero" fill-opacity="1" /><path clip-path="url(#clip610)" d="M1381.86 1291.22 Q1386.05 1292.12 1388.4 1294.95 Q1390.77 1297.79 1390.77 1301.95 Q1390.77 1308.35 1386.37 1311.85 Q1381.97 1315.35 1373.87 1315.35 Q1371.15 1315.35 1368.26 1314.8 Q1365.39 1314.28 1362.32 1313.21 L1362.32 1307.57 Q1364.76 1308.98 1367.65 1309.71 Q1370.54 1310.43 1373.7 1310.43 Q1379.19 1310.43 1382.06 1308.26 Q1384.95 1306.09 1384.95 1301.95 Q1384.95 1298.13 1382.26 1295.99 Q1379.6 1293.82 1374.82 1293.82 L1369.79 1293.82 L1369.79 1289.02 L1375.06 1289.02 Q1379.37 1289.02 1381.65 1287.31 Q1383.94 1285.58 1383.94 1282.34 Q1383.94 1279.01 1381.57 1277.24 Q1379.22 1275.45 1374.82 1275.45 Q1372.42 1275.45 1369.67 1275.97 Q1366.93 1276.49 1363.63 1277.59 L1363.63 1272.38 Q1366.95 1271.46 1369.85 1270.99 Q1372.77 1270.53 1375.35 1270.53 Q1382 1270.53 1385.88 1273.57 Q1389.76 1276.58 1389.76 1281.73 Q1389.76 1285.32 1387.7 1287.8 Q1385.65 1290.26 1381.86 1291.22 Z" fill="#000000" fill-rule="nonzero" fill-opacity="1" /><path clip-path="url(#clip610)" d="M1414.35 1275.16 Q1409.84 1275.16 1407.55 1279.62 Q1405.29 1284.04 1405.29 1292.95 Q1405.29 1301.84 1407.55 1306.29 Q1409.84 1310.72 1414.35 1310.72 Q1418.89 1310.72 1421.15 1306.29 Q1423.44 1301.84 1423.44 1292.95 Q1423.44 1284.04 1421.15 1279.62 Q1418.89 1275.16 1414.35 1275.16 M1414.35 1270.53 Q1421.61 1270.53 1425.43 1276.29 Q1429.28 1282.02 1429.28 1292.95 Q1429.28 1303.86 1425.43 1309.62 Q1421.61 1315.35 1414.35 1315.35 Q1407.09 1315.35 1403.24 1309.62 Q1399.42 1303.86 1399.42 1292.95 Q1399.42 1282.02 1403.24 1276.29 Q1407.09 1270.53 1414.35 1270.53 Z" fill="#000000" fill-rule="nonzero" fill-opacity="1" /><path clip-path="url(#clip610)" d="M1657.45 1276.4 L1642.69 1299.47 L1657.45 1299.47 L1657.45 1276.4 M1655.91 1271.31 L1663.26 1271.31 L1663.26 1299.47 L1669.42 1299.47 L1669.42 1304.33 L1663.26 1304.33 L1663.26 1314.51 L1657.45 1314.51 L1657.45 1304.33 L1637.94 1304.33 L1637.94 1298.68 L1655.91 1271.31 Z" fill="#000000" fill-rule="nonzero" fill-opacity="1" /><path clip-path="url(#clip610)" d="M1691.59 1275.16 Q1687.07 1275.16 1684.79 1279.62 Q1682.53 1284.04 1682.53 1292.95 Q1682.53 1301.84 1684.79 1306.29 Q1687.07 1310.72 1691.59 1310.72 Q1696.13 1310.72 1698.39 1306.29 Q1700.67 1301.84 1700.67 1292.95 Q1700.67 1284.04 1698.39 1279.62 Q1696.13 1275.16 1691.59 1275.16 M1691.59 1270.53 Q1698.85 1270.53 1702.67 1276.29 Q1706.52 1282.02 1706.52 1292.95 Q1706.52 1303.86 1702.67 1309.62 Q1698.85 1315.35 1691.59 1315.35 Q1684.33 1315.35 1680.48 1309.62 Q1676.66 1303.86 1676.66 1292.95 Q1676.66 1282.02 1680.48 1276.29 Q1684.33 1270.53 1691.59 1270.53 Z" fill="#000000" fill-rule="nonzero" fill-opacity="1" /><path clip-path="url(#clip610)" d="M1917.03 1271.31 L1939.98 1271.31 L1939.98 1276.23 L1922.39 1276.23 L1922.39 1286.82 Q1923.66 1286.39 1924.93 1286.18 Q1926.21 1285.95 1927.48 1285.95 Q1934.71 1285.95 1938.94 1289.92 Q1943.16 1293.88 1943.16 1300.65 Q1943.16 1307.62 1938.82 1311.5 Q1934.48 1315.35 1926.58 1315.35 Q1923.86 1315.35 1921.03 1314.89 Q1918.22 1314.42 1915.21 1313.5 L1915.21 1307.62 Q1917.81 1309.04 1920.59 1309.74 Q1923.37 1310.43 1926.47 1310.43 Q1931.47 1310.43 1934.39 1307.8 Q1937.32 1305.17 1937.32 1300.65 Q1937.32 1296.14 1934.39 1293.5 Q1931.47 1290.87 1926.47 1290.87 Q1924.12 1290.87 1921.78 1291.39 Q1919.46 1291.91 1917.03 1293.01 L1917.03 1271.31 Z" fill="#000000" fill-rule="nonzero" fill-opacity="1" /><path clip-path="url(#clip610)" d="M1967.18 1275.16 Q1962.66 1275.16 1960.38 1279.62 Q1958.12 1284.04 1958.12 1292.95 Q1958.12 1301.84 1960.38 1306.29 Q1962.66 1310.72 1967.18 1310.72 Q1971.72 1310.72 1973.98 1306.29 Q1976.26 1301.84 1976.26 1292.95 Q1976.26 1284.04 1973.98 1279.62 Q1971.72 1275.16 1967.18 1275.16 M1967.18 1270.53 Q1974.44 1270.53 1978.26 1276.29 Q1982.11 1282.02 1982.11 1292.95 Q1982.11 1303.86 1978.26 1309.62 Q1974.44 1315.35 1967.18 1315.35 Q1959.92 1315.35 1956.07 1309.62 Q1952.25 1303.86 1952.25 1292.95 Q1952.25 1282.02 1956.07 1276.29 Q1959.92 1270.53 1967.18 1270.53 Z" fill="#000000" fill-rule="nonzero" fill-opacity="1" /><path clip-path="url(#clip610)" d="M2206.84 1290.58 Q2202.91 1290.58 2200.59 1293.27 Q2198.31 1295.96 2198.31 1300.65 Q2198.31 1305.31 2200.59 1308.03 Q2202.91 1310.72 2206.84 1310.72 Q2210.78 1310.72 2213.07 1308.03 Q2215.38 1305.31 2215.38 1300.65 Q2215.38 1295.96 2213.07 1293.27 Q2210.78 1290.58 2206.84 1290.58 M2218.45 1272.27 L2218.45 1277.59 Q2216.25 1276.55 2213.99 1276 Q2211.76 1275.45 2209.56 1275.45 Q2203.78 1275.45 2200.71 1279.36 Q2197.67 1283.26 2197.24 1291.16 Q2198.95 1288.64 2201.52 1287.31 Q2204.1 1285.95 2207.19 1285.95 Q2213.7 1285.95 2217.46 1289.92 Q2221.25 1293.85 2221.25 1300.65 Q2221.25 1307.31 2217.32 1311.33 Q2213.38 1315.35 2206.84 1315.35 Q2199.35 1315.35 2195.39 1309.62 Q2191.42 1303.86 2191.42 1292.95 Q2191.42 1282.71 2196.28 1276.64 Q2201.14 1270.53 2209.33 1270.53 Q2211.53 1270.53 2213.76 1270.96 Q2216.02 1271.4 2218.45 1272.27 Z" fill="#000000" fill-rule="nonzero" fill-opacity="1" /><path clip-path="url(#clip610)" d="M2243.82 1275.16 Q2239.31 1275.16 2237.02 1279.62 Q2234.77 1284.04 2234.77 1292.95 Q2234.77 1301.84 2237.02 1306.29 Q2239.31 1310.72 2243.82 1310.72 Q2248.37 1310.72 2250.62 1306.29 Q2252.91 1301.84 2252.91 1292.95 Q2252.91 1284.04 2250.62 1279.62 Q2248.37 1275.16 2243.82 1275.16 M2243.82 1270.53 Q2251.09 1270.53 2254.91 1276.29 Q2258.75 1282.02 2258.75 1292.95 Q2258.75 1303.86 2254.91 1309.62 Q2251.09 1315.35 2243.82 1315.35 Q2236.56 1315.35 2232.71 1309.62 Q2228.89 1303.86 2228.89 1292.95 Q2228.89 1282.02 2232.71 1276.29 Q2236.56 1270.53 2243.82 1270.53 Z" fill="#000000" fill-rule="nonzero" fill-opacity="1" /><path clip-path="url(#clip610)" d="M1277.34 1351.62 L1283.77 1351.62 L1283.77 1399.14 L1277.34 1399.14 L1277.34 1351.62 Z" fill="#000000" fill-rule="nonzero" fill-opacity="1" /><path clip-path="url(#clip610)" d="M1302.11 1353.37 L1302.11 1363.49 L1314.17 1363.49 L1314.17 1368.04 L1302.11 1368.04 L1302.11 1387.39 Q1302.11 1391.75 1303.28 1392.99 Q1304.49 1394.23 1308.15 1394.23 L1314.17 1394.23 L1314.17 1399.14 L1308.15 1399.14 Q1301.38 1399.14 1298.8 1396.62 Q1296.22 1394.07 1296.22 1387.39 L1296.22 1368.04 L1291.92 1368.04 L1291.92 1363.49 L1296.22 1363.49 L1296.22 1353.37 L1302.11 1353.37 Z" fill="#000000" fill-rule="nonzero" fill-opacity="1" /><path clip-path="url(#clip610)" d="M1352.36 1379.85 L1352.36 1382.71 L1325.44 1382.71 Q1325.82 1388.76 1329.07 1391.94 Q1332.34 1395.09 1338.17 1395.09 Q1341.54 1395.09 1344.69 1394.27 Q1347.88 1393.44 1351 1391.78 L1351 1397.32 Q1347.84 1398.66 1344.53 1399.36 Q1341.22 1400.06 1337.82 1400.06 Q1329.29 1400.06 1324.29 1395.09 Q1319.33 1390.13 1319.33 1381.66 Q1319.33 1372.91 1324.04 1367.78 Q1328.78 1362.63 1336.8 1362.63 Q1343.99 1362.63 1348.16 1367.28 Q1352.36 1371.89 1352.36 1379.85 M1346.51 1378.13 Q1346.44 1373.32 1343.8 1370.46 Q1341.19 1367.59 1336.86 1367.59 Q1331.96 1367.59 1329 1370.36 Q1326.07 1373.13 1325.63 1378.16 L1346.51 1378.13 Z" fill="#000000" fill-rule="nonzero" fill-opacity="1" /><path clip-path="url(#clip610)" d="M1382.63 1368.96 Q1381.65 1368.39 1380.47 1368.13 Q1379.32 1367.85 1377.92 1367.85 Q1372.96 1367.85 1370.28 1371.09 Q1367.64 1374.31 1367.64 1380.36 L1367.64 1399.14 L1361.75 1399.14 L1361.75 1363.49 L1367.64 1363.49 L1367.64 1369.03 Q1369.49 1365.78 1372.45 1364.22 Q1375.41 1362.63 1379.64 1362.63 Q1380.25 1362.63 1380.98 1362.72 Q1381.71 1362.79 1382.6 1362.95 L1382.63 1368.96 Z" fill="#000000" fill-rule="nonzero" fill-opacity="1" /><path clip-path="url(#clip610)" d="M1404.98 1381.22 Q1397.88 1381.22 1395.14 1382.84 Q1392.4 1384.46 1392.4 1388.38 Q1392.4 1391.5 1394.44 1393.34 Q1396.51 1395.16 1400.04 1395.16 Q1404.91 1395.16 1407.84 1391.72 Q1410.8 1388.25 1410.8 1382.52 L1410.8 1381.22 L1404.98 1381.22 M1416.66 1378.8 L1416.66 1399.14 L1410.8 1399.14 L1410.8 1393.72 Q1408.8 1396.97 1405.8 1398.53 Q1402.81 1400.06 1398.48 1400.06 Q1393.01 1400.06 1389.76 1397 Q1386.55 1393.92 1386.55 1388.76 Q1386.55 1382.74 1390.56 1379.69 Q1394.6 1376.63 1402.59 1376.63 L1410.8 1376.63 L1410.8 1376.06 Q1410.8 1372.02 1408.13 1369.82 Q1405.49 1367.59 1400.68 1367.59 Q1397.62 1367.59 1394.73 1368.33 Q1391.83 1369.06 1389.16 1370.52 L1389.16 1365.11 Q1392.37 1363.87 1395.4 1363.26 Q1398.42 1362.63 1401.28 1362.63 Q1409.02 1362.63 1412.84 1366.64 Q1416.66 1370.65 1416.66 1378.8 Z" fill="#000000" fill-rule="nonzero" fill-opacity="1" /><path clip-path="url(#clip610)" d="M1434.51 1353.37 L1434.51 1363.49 L1446.58 1363.49 L1446.58 1368.04 L1434.51 1368.04 L1434.51 1387.39 Q1434.51 1391.75 1435.69 1392.99 Q1436.9 1394.23 1440.56 1394.23 L1446.58 1394.23 L1446.58 1399.14 L1440.56 1399.14 Q1433.78 1399.14 1431.2 1396.62 Q1428.63 1394.07 1428.63 1387.39 L1428.63 1368.04 L1424.33 1368.04 L1424.33 1363.49 L1428.63 1363.49 L1428.63 1353.37 L1434.51 1353.37 Z" fill="#000000" fill-rule="nonzero" fill-opacity="1" /><path clip-path="url(#clip610)" d="M1454.28 1363.49 L1460.14 1363.49 L1460.14 1399.14 L1454.28 1399.14 L1454.28 1363.49 M1454.28 1349.61 L1460.14 1349.61 L1460.14 1357.03 L1454.28 1357.03 L1454.28 1349.61 Z" fill="#000000" fill-rule="nonzero" fill-opacity="1" /><path clip-path="url(#clip610)" d="M1486.2 1367.59 Q1481.49 1367.59 1478.76 1371.29 Q1476.02 1374.95 1476.02 1381.34 Q1476.02 1387.74 1478.72 1391.43 Q1481.46 1395.09 1486.2 1395.09 Q1490.88 1395.09 1493.62 1391.4 Q1496.36 1387.71 1496.36 1381.34 Q1496.36 1375.01 1493.62 1371.32 Q1490.88 1367.59 1486.2 1367.59 M1486.2 1362.63 Q1493.84 1362.63 1498.2 1367.59 Q1502.56 1372.56 1502.56 1381.34 Q1502.56 1390.1 1498.2 1395.09 Q1493.84 1400.06 1486.2 1400.06 Q1478.53 1400.06 1474.17 1395.09 Q1469.84 1390.1 1469.84 1381.34 Q1469.84 1372.56 1474.17 1367.59 Q1478.53 1362.63 1486.2 1362.63 Z" fill="#000000" fill-rule="nonzero" fill-opacity="1" /><path clip-path="url(#clip610)" d="M1541.9 1377.62 L1541.9 1399.14 L1536.05 1399.14 L1536.05 1377.81 Q1536.05 1372.75 1534.07 1370.24 Q1532.1 1367.72 1528.15 1367.72 Q1523.41 1367.72 1520.67 1370.74 Q1517.94 1373.77 1517.94 1378.99 L1517.94 1399.14 L1512.05 1399.14 L1512.05 1363.49 L1517.94 1363.49 L1517.94 1369.03 Q1520.04 1365.81 1522.87 1364.22 Q1525.73 1362.63 1529.46 1362.63 Q1535.6 1362.63 1538.75 1366.45 Q1541.9 1370.24 1541.9 1377.62 Z" fill="#000000" fill-rule="nonzero" fill-opacity="1" /><polyline clip-path="url(#clip610)" style="stroke:#000000; stroke-linecap:round; stroke-linejoin:round; stroke-width:4; stroke-opacity:1; fill:none" points="545.232,1241.31 545.232,184.932 "/>
<polyline clip-path="url(#clip610)" style="stroke:#000000; stroke-linecap:round; stroke-linejoin:round; stroke-width:4; stroke-opacity:1; fill:none" points="545.232,1114.78 564.13,1114.78 "/>
<polyline clip-path="url(#clip610)" style="stroke:#000000; stroke-linecap:round; stroke-linejoin:round; stroke-width:4; stroke-opacity:1; fill:none" points="545.232,954.279 564.13,954.279 "/>
<polyline clip-path="url(#clip610)" style="stroke:#000000; stroke-linecap:round; stroke-linejoin:round; stroke-width:4; stroke-opacity:1; fill:none" points="545.232,793.779 564.13,793.779 "/>
<polyline clip-path="url(#clip610)" style="stroke:#000000; stroke-linecap:round; stroke-linejoin:round; stroke-width:4; stroke-opacity:1; fill:none" points="545.232,633.28 564.13,633.28 "/>
<polyline clip-path="url(#clip610)" style="stroke:#000000; stroke-linecap:round; stroke-linejoin:round; stroke-width:4; stroke-opacity:1; fill:none" points="545.232,472.781 564.13,472.781 "/>
<polyline clip-path="url(#clip610)" style="stroke:#000000; stroke-linecap:round; stroke-linejoin:round; stroke-width:4; stroke-opacity:1; fill:none" points="545.232,312.282 564.13,312.282 "/>
<path clip-path="url(#clip610)" d="M318.985 1115.34 L356.079 1115.34 L356.079 1120.26 L318.985 1120.26 L318.985 1115.34 Z" fill="#000000" fill-rule="nonzero" fill-opacity="1" /><path clip-path="url(#clip610)" d="M368.753 1093.18 L391.698 1093.18 L391.698 1098.1 L374.106 1098.1 L374.106 1108.69 Q375.379 1108.25 376.652 1108.05 Q377.925 1107.82 379.198 1107.82 Q386.432 1107.82 390.657 1111.78 Q394.881 1115.75 394.881 1122.52 Q394.881 1129.49 390.541 1133.37 Q386.201 1137.22 378.301 1137.22 Q375.581 1137.22 372.746 1136.75 Q369.939 1136.29 366.93 1135.37 L366.93 1129.49 Q369.534 1130.91 372.312 1131.6 Q375.09 1132.3 378.186 1132.3 Q383.191 1132.3 386.114 1129.66 Q389.036 1127.03 389.036 1122.52 Q389.036 1118 386.114 1115.37 Q383.191 1112.74 378.186 1112.74 Q375.842 1112.74 373.498 1113.26 Q371.183 1113.78 368.753 1114.88 L368.753 1093.18 Z" fill="#000000" fill-rule="nonzero" fill-opacity="1" /><path clip-path="url(#clip610)" d="M422.456 1098.27 L407.699 1121.33 L422.456 1121.33 L422.456 1098.27 M420.923 1093.18 L428.272 1093.18 L428.272 1121.33 L434.435 1121.33 L434.435 1126.19 L428.272 1126.19 L428.272 1136.38 L422.456 1136.38 L422.456 1126.19 L402.954 1126.19 L402.954 1120.55 L420.923 1093.18 Z" fill="#000000" fill-rule="nonzero" fill-opacity="1" /><path clip-path="url(#clip610)" d="M456.6 1097.03 Q452.086 1097.03 449.8 1101.48 Q447.543 1105.91 447.543 1114.82 Q447.543 1123.7 449.8 1128.16 Q452.086 1132.59 456.6 1132.59 Q461.142 1132.59 463.399 1128.16 Q465.685 1123.7 465.685 1114.82 Q465.685 1105.91 463.399 1101.48 Q461.142 1097.03 456.6 1097.03 M456.6 1092.4 Q463.862 1092.4 467.682 1098.15 Q471.53 1103.88 471.53 1114.82 Q471.53 1125.73 467.682 1131.49 Q463.862 1137.22 456.6 1137.22 Q449.337 1137.22 445.489 1131.49 Q441.669 1125.73 441.669 1114.82 Q441.669 1103.88 445.489 1098.15 Q449.337 1092.4 456.6 1092.4 Z" fill="#000000" fill-rule="nonzero" fill-opacity="1" /><path clip-path="url(#clip610)" d="M494.302 1097.03 Q489.788 1097.03 487.502 1101.48 Q485.245 1105.91 485.245 1114.82 Q485.245 1123.7 487.502 1128.16 Q489.788 1132.59 494.302 1132.59 Q498.845 1132.59 501.102 1128.16 Q503.388 1123.7 503.388 1114.82 Q503.388 1105.91 501.102 1101.48 Q498.845 1097.03 494.302 1097.03 M494.302 1092.4 Q501.565 1092.4 505.384 1098.15 Q509.232 1103.88 509.232 1114.82 Q509.232 1125.73 505.384 1131.49 Q501.565 1137.22 494.302 1137.22 Q487.039 1137.22 483.191 1131.49 Q479.371 1125.73 479.371 1114.82 Q479.371 1103.88 483.191 1098.15 Q487.039 1092.4 494.302 1092.4 Z" fill="#000000" fill-rule="nonzero" fill-opacity="1" /><path clip-path="url(#clip610)" d="M318.985 954.843 L356.079 954.843 L356.079 959.762 L318.985 959.762 L318.985 954.843 Z" fill="#000000" fill-rule="nonzero" fill-opacity="1" /><path clip-path="url(#clip610)" d="M368.753 932.679 L391.698 932.679 L391.698 937.597 L374.106 937.597 L374.106 948.188 Q375.379 947.754 376.652 947.551 Q377.925 947.32 379.198 947.32 Q386.432 947.32 390.657 951.284 Q394.881 955.248 394.881 962.019 Q394.881 968.992 390.541 972.869 Q386.201 976.718 378.301 976.718 Q375.581 976.718 372.746 976.255 Q369.939 975.792 366.93 974.866 L366.93 968.992 Q369.534 970.41 372.312 971.104 Q375.09 971.799 378.186 971.799 Q383.191 971.799 386.114 969.166 Q389.036 966.532 389.036 962.019 Q389.036 957.505 386.114 954.872 Q383.191 952.239 378.186 952.239 Q375.842 952.239 373.498 952.759 Q371.183 953.28 368.753 954.38 L368.753 932.679 Z" fill="#000000" fill-rule="nonzero" fill-opacity="1" /><path clip-path="url(#clip610)" d="M424.106 952.586 Q428.301 953.483 430.645 956.318 Q433.018 959.154 433.018 963.321 Q433.018 969.715 428.619 973.216 Q424.221 976.718 416.119 976.718 Q413.4 976.718 410.506 976.168 Q407.641 975.647 404.574 974.576 L404.574 968.934 Q407.005 970.352 409.898 971.075 Q412.792 971.799 415.946 971.799 Q421.444 971.799 424.308 969.629 Q427.202 967.458 427.202 963.321 Q427.202 959.501 424.511 957.36 Q421.849 955.19 417.074 955.19 L412.04 955.19 L412.04 950.387 L417.306 950.387 Q421.617 950.387 423.903 948.68 Q426.189 946.943 426.189 943.703 Q426.189 940.375 423.816 938.61 Q421.472 936.816 417.074 936.816 Q414.673 936.816 411.924 937.337 Q409.175 937.858 405.876 938.957 L405.876 933.749 Q409.204 932.823 412.097 932.36 Q415.02 931.897 417.595 931.897 Q424.25 931.897 428.128 934.935 Q432.005 937.945 432.005 943.095 Q432.005 946.683 429.95 949.171 Q427.896 951.631 424.106 952.586 Z" fill="#000000" fill-rule="nonzero" fill-opacity="1" /><path clip-path="url(#clip610)" d="M456.6 936.527 Q452.086 936.527 449.8 940.983 Q447.543 945.41 447.543 954.322 Q447.543 963.205 449.8 967.661 Q452.086 972.088 456.6 972.088 Q461.142 972.088 463.399 967.661 Q465.685 963.205 465.685 954.322 Q465.685 945.41 463.399 940.983 Q461.142 936.527 456.6 936.527 M456.6 931.897 Q463.862 931.897 467.682 937.655 Q471.53 943.384 471.53 954.322 Q471.53 965.23 467.682 970.988 Q463.862 976.718 456.6 976.718 Q449.337 976.718 445.489 970.988 Q441.669 965.23 441.669 954.322 Q441.669 943.384 445.489 937.655 Q449.337 931.897 456.6 931.897 Z" fill="#000000" fill-rule="nonzero" fill-opacity="1" /><path clip-path="url(#clip610)" d="M494.302 936.527 Q489.788 936.527 487.502 940.983 Q485.245 945.41 485.245 954.322 Q485.245 963.205 487.502 967.661 Q489.788 972.088 494.302 972.088 Q498.845 972.088 501.102 967.661 Q503.388 963.205 503.388 954.322 Q503.388 945.41 501.102 940.983 Q498.845 936.527 494.302 936.527 M494.302 931.897 Q501.565 931.897 505.384 937.655 Q509.232 943.384 509.232 954.322 Q509.232 965.23 505.384 970.988 Q501.565 976.718 494.302 976.718 Q487.039 976.718 483.191 970.988 Q479.371 965.23 479.371 954.322 Q479.371 943.384 483.191 937.655 Q487.039 931.897 494.302 931.897 Z" fill="#000000" fill-rule="nonzero" fill-opacity="1" /><path clip-path="url(#clip610)" d="M318.985 794.344 L356.079 794.344 L356.079 799.262 L318.985 799.262 L318.985 794.344 Z" fill="#000000" fill-rule="nonzero" fill-opacity="1" /><path clip-path="url(#clip610)" d="M368.753 772.179 L391.698 772.179 L391.698 777.098 L374.106 777.098 L374.106 787.688 Q375.379 787.254 376.652 787.052 Q377.925 786.82 379.198 786.82 Q386.432 786.82 390.657 790.785 Q394.881 794.749 394.881 801.519 Q394.881 808.493 390.541 812.37 Q386.201 816.218 378.301 816.218 Q375.581 816.218 372.746 815.755 Q369.939 815.292 366.93 814.367 L366.93 808.493 Q369.534 809.911 372.312 810.605 Q375.09 811.299 378.186 811.299 Q383.191 811.299 386.114 808.666 Q389.036 806.033 389.036 801.519 Q389.036 797.006 386.114 794.372 Q383.191 791.739 378.186 791.739 Q375.842 791.739 373.498 792.26 Q371.183 792.781 368.753 793.881 L368.753 772.179 Z" fill="#000000" fill-rule="nonzero" fill-opacity="1" /><path clip-path="url(#clip610)" d="M411.432 810.46 L431.831 810.46 L431.831 815.379 L404.401 815.379 L404.401 810.46 Q407.728 807.017 413.457 801.23 Q419.216 795.414 420.691 793.736 Q423.498 790.582 424.597 788.412 Q425.726 786.213 425.726 784.101 Q425.726 780.657 423.295 778.487 Q420.894 776.317 417.016 776.317 Q414.268 776.317 411.201 777.272 Q408.162 778.227 404.69 780.165 L404.69 774.263 Q408.22 772.845 411.287 772.121 Q414.354 771.398 416.901 771.398 Q423.614 771.398 427.607 774.755 Q431.6 778.111 431.6 783.724 Q431.6 786.386 430.587 788.788 Q429.603 791.161 426.97 794.401 Q426.247 795.241 422.369 799.262 Q418.492 803.256 411.432 810.46 Z" fill="#000000" fill-rule="nonzero" fill-opacity="1" /><path clip-path="url(#clip610)" d="M456.6 776.028 Q452.086 776.028 449.8 780.484 Q447.543 784.911 447.543 793.823 Q447.543 802.706 449.8 807.162 Q452.086 811.589 456.6 811.589 Q461.142 811.589 463.399 807.162 Q465.685 802.706 465.685 793.823 Q465.685 784.911 463.399 780.484 Q461.142 776.028 456.6 776.028 M456.6 771.398 Q463.862 771.398 467.682 777.156 Q471.53 782.885 471.53 793.823 Q471.53 804.731 467.682 810.489 Q463.862 816.218 456.6 816.218 Q449.337 816.218 445.489 810.489 Q441.669 804.731 441.669 793.823 Q441.669 782.885 445.489 777.156 Q449.337 771.398 456.6 771.398 Z" fill="#000000" fill-rule="nonzero" fill-opacity="1" /><path clip-path="url(#clip610)" d="M494.302 776.028 Q489.788 776.028 487.502 780.484 Q485.245 784.911 485.245 793.823 Q485.245 802.706 487.502 807.162 Q489.788 811.589 494.302 811.589 Q498.845 811.589 501.102 807.162 Q503.388 802.706 503.388 793.823 Q503.388 784.911 501.102 780.484 Q498.845 776.028 494.302 776.028 M494.302 771.398 Q501.565 771.398 505.384 777.156 Q509.232 782.885 509.232 793.823 Q509.232 804.731 505.384 810.489 Q501.565 816.218 494.302 816.218 Q487.039 816.218 483.191 810.489 Q479.371 804.731 479.371 793.823 Q479.371 782.885 483.191 777.156 Q487.039 771.398 494.302 771.398 Z" fill="#000000" fill-rule="nonzero" fill-opacity="1" /><path clip-path="url(#clip610)" d="M318.985 633.844 L356.079 633.844 L356.079 638.763 L318.985 638.763 L318.985 633.844 Z" fill="#000000" fill-rule="nonzero" fill-opacity="1" /><path clip-path="url(#clip610)" d="M368.753 611.68 L391.698 611.68 L391.698 616.599 L374.106 616.599 L374.106 627.189 Q375.379 626.755 376.652 626.553 Q377.925 626.321 379.198 626.321 Q386.432 626.321 390.657 630.285 Q394.881 634.249 394.881 641.02 Q394.881 647.994 390.541 651.871 Q386.201 655.719 378.301 655.719 Q375.581 655.719 372.746 655.256 Q369.939 654.793 366.93 653.867 L366.93 647.994 Q369.534 649.411 372.312 650.106 Q375.09 650.8 378.186 650.8 Q383.191 650.8 386.114 648.167 Q389.036 645.534 389.036 641.02 Q389.036 636.506 386.114 633.873 Q383.191 631.24 378.186 631.24 Q375.842 631.24 373.498 631.761 Q371.183 632.282 368.753 633.381 L368.753 611.68 Z" fill="#000000" fill-rule="nonzero" fill-opacity="1" /><path clip-path="url(#clip610)" d="M407.41 649.961 L416.959 649.961 L416.959 617.004 L406.571 619.087 L406.571 613.763 L416.901 611.68 L422.746 611.68 L422.746 649.961 L432.294 649.961 L432.294 654.88 L407.41 654.88 L407.41 649.961 Z" fill="#000000" fill-rule="nonzero" fill-opacity="1" /><path clip-path="url(#clip610)" d="M456.6 615.528 Q452.086 615.528 449.8 619.984 Q447.543 624.411 447.543 633.323 Q447.543 642.207 449.8 646.663 Q452.086 651.09 456.6 651.09 Q461.142 651.09 463.399 646.663 Q465.685 642.207 465.685 633.323 Q465.685 624.411 463.399 619.984 Q461.142 615.528 456.6 615.528 M456.6 610.899 Q463.862 610.899 467.682 616.657 Q471.53 622.386 471.53 633.323 Q471.53 644.232 467.682 649.99 Q463.862 655.719 456.6 655.719 Q449.337 655.719 445.489 649.99 Q441.669 644.232 441.669 633.323 Q441.669 622.386 445.489 616.657 Q449.337 610.899 456.6 610.899 Z" fill="#000000" fill-rule="nonzero" fill-opacity="1" /><path clip-path="url(#clip610)" d="M494.302 615.528 Q489.788 615.528 487.502 619.984 Q485.245 624.411 485.245 633.323 Q485.245 642.207 487.502 646.663 Q489.788 651.09 494.302 651.09 Q498.845 651.09 501.102 646.663 Q503.388 642.207 503.388 633.323 Q503.388 624.411 501.102 619.984 Q498.845 615.528 494.302 615.528 M494.302 610.899 Q501.565 610.899 505.384 616.657 Q509.232 622.386 509.232 633.323 Q509.232 644.232 505.384 649.99 Q501.565 655.719 494.302 655.719 Q487.039 655.719 483.191 649.99 Q479.371 644.232 479.371 633.323 Q479.371 622.386 483.191 616.657 Q487.039 610.899 494.302 610.899 Z" fill="#000000" fill-rule="nonzero" fill-opacity="1" /><path clip-path="url(#clip610)" d="M318.985 473.345 L356.079 473.345 L356.079 478.264 L318.985 478.264 L318.985 473.345 Z" fill="#000000" fill-rule="nonzero" fill-opacity="1" /><path clip-path="url(#clip610)" d="M368.753 451.181 L391.698 451.181 L391.698 456.1 L374.106 456.1 L374.106 466.69 Q375.379 466.256 376.652 466.053 Q377.925 465.822 379.198 465.822 Q386.432 465.822 390.657 469.786 Q394.881 473.75 394.881 480.521 Q394.881 487.494 390.541 491.372 Q386.201 495.22 378.301 495.22 Q375.581 495.22 372.746 494.757 Q369.939 494.294 366.93 493.368 L366.93 487.494 Q369.534 488.912 372.312 489.607 Q375.09 490.301 378.186 490.301 Q383.191 490.301 386.114 487.668 Q389.036 485.035 389.036 480.521 Q389.036 476.007 386.114 473.374 Q383.191 470.741 378.186 470.741 Q375.842 470.741 373.498 471.262 Q371.183 471.783 368.753 472.882 L368.753 451.181 Z" fill="#000000" fill-rule="nonzero" fill-opacity="1" /><path clip-path="url(#clip610)" d="M418.897 455.029 Q414.383 455.029 412.097 459.485 Q409.841 463.912 409.841 472.824 Q409.841 481.707 412.097 486.163 Q414.383 490.59 418.897 490.59 Q423.44 490.59 425.697 486.163 Q427.983 481.707 427.983 472.824 Q427.983 463.912 425.697 459.485 Q423.44 455.029 418.897 455.029 M418.897 450.4 Q426.16 450.4 429.979 456.158 Q433.828 461.887 433.828 472.824 Q433.828 483.733 429.979 489.491 Q426.16 495.22 418.897 495.22 Q411.635 495.22 407.786 489.491 Q403.967 483.733 403.967 472.824 Q403.967 461.887 407.786 456.158 Q411.635 450.4 418.897 450.4 Z" fill="#000000" fill-rule="nonzero" fill-opacity="1" /><path clip-path="url(#clip610)" d="M456.6 455.029 Q452.086 455.029 449.8 459.485 Q447.543 463.912 447.543 472.824 Q447.543 481.707 449.8 486.163 Q452.086 490.59 456.6 490.59 Q461.142 490.59 463.399 486.163 Q465.685 481.707 465.685 472.824 Q465.685 463.912 463.399 459.485 Q461.142 455.029 456.6 455.029 M456.6 450.4 Q463.862 450.4 467.682 456.158 Q471.53 461.887 471.53 472.824 Q471.53 483.733 467.682 489.491 Q463.862 495.22 456.6 495.22 Q449.337 495.22 445.489 489.491 Q441.669 483.733 441.669 472.824 Q441.669 461.887 445.489 456.158 Q449.337 450.4 456.6 450.4 Z" fill="#000000" fill-rule="nonzero" fill-opacity="1" /><path clip-path="url(#clip610)" d="M494.302 455.029 Q489.788 455.029 487.502 459.485 Q485.245 463.912 485.245 472.824 Q485.245 481.707 487.502 486.163 Q489.788 490.59 494.302 490.59 Q498.845 490.59 501.102 486.163 Q503.388 481.707 503.388 472.824 Q503.388 463.912 501.102 459.485 Q498.845 455.029 494.302 455.029 M494.302 450.4 Q501.565 450.4 505.384 456.158 Q509.232 461.887 509.232 472.824 Q509.232 483.733 505.384 489.491 Q501.565 495.22 494.302 495.22 Q487.039 495.22 483.191 489.491 Q479.371 483.733 479.371 472.824 Q479.371 461.887 483.191 456.158 Q487.039 450.4 494.302 450.4 Z" fill="#000000" fill-rule="nonzero" fill-opacity="1" /><path clip-path="url(#clip610)" d="M318.985 312.846 L356.079 312.846 L356.079 317.765 L318.985 317.765 L318.985 312.846 Z" fill="#000000" fill-rule="nonzero" fill-opacity="1" /><path clip-path="url(#clip610)" d="M384.754 295.774 L369.997 318.835 L384.754 318.835 L384.754 295.774 M383.22 290.682 L390.57 290.682 L390.57 318.835 L396.733 318.835 L396.733 323.696 L390.57 323.696 L390.57 333.882 L384.754 333.882 L384.754 323.696 L365.252 323.696 L365.252 318.054 L383.22 290.682 Z" fill="#000000" fill-rule="nonzero" fill-opacity="1" /><path clip-path="url(#clip610)" d="M406.571 332.985 L406.571 327.661 Q408.77 328.702 411.027 329.252 Q413.284 329.802 415.454 329.802 Q421.241 329.802 424.279 325.924 Q427.346 322.018 427.78 314.09 Q426.102 316.578 423.527 317.909 Q420.952 319.24 417.827 319.24 Q411.345 319.24 407.555 315.334 Q403.793 311.399 403.793 304.599 Q403.793 297.944 407.728 293.922 Q411.663 289.9 418.203 289.9 Q425.697 289.9 429.632 295.658 Q433.596 301.388 433.596 312.325 Q433.596 322.539 428.735 328.644 Q423.903 334.721 415.714 334.721 Q413.515 334.721 411.258 334.287 Q409.001 333.853 406.571 332.985 M418.203 314.669 Q422.138 314.669 424.424 311.978 Q426.739 309.287 426.739 304.599 Q426.739 299.941 424.424 297.25 Q422.138 294.53 418.203 294.53 Q414.268 294.53 411.953 297.25 Q409.667 299.941 409.667 304.599 Q409.667 309.287 411.953 311.978 Q414.268 314.669 418.203 314.669 Z" fill="#000000" fill-rule="nonzero" fill-opacity="1" /><path clip-path="url(#clip610)" d="M456.6 294.53 Q452.086 294.53 449.8 298.986 Q447.543 303.413 447.543 312.325 Q447.543 321.208 449.8 325.664 Q452.086 330.091 456.6 330.091 Q461.142 330.091 463.399 325.664 Q465.685 321.208 465.685 312.325 Q465.685 303.413 463.399 298.986 Q461.142 294.53 456.6 294.53 M456.6 289.9 Q463.862 289.9 467.682 295.658 Q471.53 301.388 471.53 312.325 Q471.53 323.234 467.682 328.992 Q463.862 334.721 456.6 334.721 Q449.337 334.721 445.489 328.992 Q441.669 323.234 441.669 312.325 Q441.669 301.388 445.489 295.658 Q449.337 289.9 456.6 289.9 Z" fill="#000000" fill-rule="nonzero" fill-opacity="1" /><path clip-path="url(#clip610)" d="M494.302 294.53 Q489.788 294.53 487.502 298.986 Q485.245 303.413 485.245 312.325 Q485.245 321.208 487.502 325.664 Q489.788 330.091 494.302 330.091 Q498.845 330.091 501.102 325.664 Q503.388 321.208 503.388 312.325 Q503.388 303.413 501.102 298.986 Q498.845 294.53 494.302 294.53 M494.302 289.9 Q501.565 289.9 505.384 295.658 Q509.232 301.388 509.232 312.325 Q509.232 323.234 505.384 328.992 Q501.565 334.721 494.302 334.721 Q487.039 334.721 483.191 328.992 Q479.371 323.234 479.371 312.325 Q479.371 301.388 483.191 295.658 Q487.039 289.9 494.302 289.9 Z" fill="#000000" fill-rule="nonzero" fill-opacity="1" /><path clip-path="url(#clip610)" d="M221.209 941.253 L221.209 934.824 L263.318 934.824 L263.318 911.684 L268.729 911.684 L268.729 941.253 L221.209 941.253 Z" fill="#000000" fill-rule="nonzero" fill-opacity="1" /><path clip-path="url(#clip610)" d="M237.186 892.523 Q237.186 897.234 240.879 899.971 Q244.539 902.709 250.936 902.709 Q257.334 902.709 261.026 900.003 Q264.686 897.266 264.686 892.523 Q264.686 887.845 260.994 885.107 Q257.302 882.37 250.936 882.37 Q244.603 882.37 240.91 885.107 Q237.186 887.845 237.186 892.523 M232.221 892.523 Q232.221 884.885 237.186 880.524 Q242.152 876.164 250.936 876.164 Q259.689 876.164 264.686 880.524 Q269.652 884.885 269.652 892.523 Q269.652 900.194 264.686 904.555 Q259.689 908.883 250.936 908.883 Q242.152 908.883 237.186 904.555 Q232.221 900.194 232.221 892.523 Z" fill="#000000" fill-rule="nonzero" fill-opacity="1" /><path clip-path="url(#clip610)" d="M250.491 842.998 Q244.125 842.998 240.624 845.64 Q237.123 848.25 237.123 852.992 Q237.123 857.703 240.624 860.345 Q244.125 862.955 250.491 862.955 Q256.825 862.955 260.326 860.345 Q263.827 857.703 263.827 852.992 Q263.827 848.25 260.326 845.64 Q256.825 842.998 250.491 842.998 M264.304 837.142 Q273.407 837.142 277.832 841.184 Q282.288 845.226 282.288 853.565 Q282.288 856.653 281.81 859.39 Q281.364 862.127 280.41 864.705 L274.712 864.705 Q276.113 862.127 276.781 859.613 Q277.45 857.098 277.45 854.488 Q277.45 848.727 274.426 845.863 Q271.434 842.998 265.355 842.998 L262.458 842.998 Q265.609 844.812 267.169 847.645 Q268.729 850.478 268.729 854.425 Q268.729 860.981 263.731 864.992 Q258.734 869.002 250.491 869.002 Q242.215 869.002 237.218 864.992 Q232.221 860.981 232.221 854.425 Q232.221 850.478 233.781 847.645 Q235.34 844.812 238.491 842.998 L233.081 842.998 L233.081 837.142 L264.304 837.142 Z" fill="#000000" fill-rule="nonzero" fill-opacity="1" /><path clip-path="url(#clip610)" d="M248.263 828.039 L248.263 810.883 L253.483 810.883 L253.483 828.039 L248.263 828.039 Z" fill="#000000" fill-rule="nonzero" fill-opacity="1" /><path clip-path="url(#clip610)" d="M221.209 801.303 L221.209 794.873 L263.318 794.873 L263.318 771.734 L268.729 771.734 L268.729 801.303 L221.209 801.303 Z" fill="#000000" fill-rule="nonzero" fill-opacity="1" /><path clip-path="url(#clip610)" d="M233.081 765.241 L233.081 759.385 L268.729 759.385 L268.729 765.241 L233.081 765.241 M219.203 765.241 L219.203 759.385 L226.619 759.385 L226.619 765.241 L219.203 765.241 Z" fill="#000000" fill-rule="nonzero" fill-opacity="1" /><path clip-path="url(#clip610)" d="M219.203 747.353 L219.203 741.465 L248.454 741.465 L233.081 723.991 L233.081 716.512 L249.759 735.418 L268.729 715.716 L268.729 723.355 L251.318 741.465 L268.729 741.465 L268.729 747.353 L219.203 747.353 Z" fill="#000000" fill-rule="nonzero" fill-opacity="1" /><path clip-path="url(#clip610)" d="M249.44 681.214 L252.305 681.214 L252.305 708.141 Q258.352 707.759 261.535 704.512 Q264.686 701.234 264.686 695.409 Q264.686 692.035 263.859 688.884 Q263.031 685.702 261.376 682.582 L266.914 682.582 Q268.251 685.733 268.951 689.044 Q269.652 692.354 269.652 695.759 Q269.652 704.289 264.686 709.287 Q259.721 714.252 251.255 714.252 Q242.502 714.252 237.377 709.541 Q232.221 704.799 232.221 696.778 Q232.221 689.585 236.868 685.415 Q241.483 681.214 249.44 681.214 M247.722 687.07 Q242.916 687.134 240.051 689.776 Q237.186 692.386 237.186 696.714 Q237.186 701.616 239.956 704.576 Q242.725 707.504 247.754 707.95 L247.722 687.07 Z" fill="#000000" fill-rule="nonzero" fill-opacity="1" /><path clip-path="url(#clip610)" d="M219.203 671.602 L219.203 665.745 L268.729 665.745 L268.729 671.602 L219.203 671.602 Z" fill="#000000" fill-rule="nonzero" fill-opacity="1" /><path clip-path="url(#clip610)" d="M233.081 653.491 L233.081 647.635 L268.729 647.635 L268.729 653.491 L233.081 653.491 M219.203 653.491 L219.203 647.635 L226.619 647.635 L226.619 653.491 L219.203 653.491 Z" fill="#000000" fill-rule="nonzero" fill-opacity="1" /><path clip-path="url(#clip610)" d="M247.212 605.748 L268.729 605.748 L268.729 611.605 L247.403 611.605 Q242.343 611.605 239.828 613.578 Q237.314 615.552 237.314 619.498 Q237.314 624.241 240.338 626.978 Q243.361 629.715 248.581 629.715 L268.729 629.715 L268.729 635.603 L219.203 635.603 L219.203 629.715 L238.619 629.715 Q235.404 627.615 233.813 624.782 Q232.221 621.917 232.221 618.193 Q232.221 612.05 236.041 608.899 Q239.828 605.748 247.212 605.748 Z" fill="#000000" fill-rule="nonzero" fill-opacity="1" /><path clip-path="url(#clip610)" d="M237.186 580.254 Q237.186 584.964 240.879 587.702 Q244.539 590.439 250.936 590.439 Q257.334 590.439 261.026 587.733 Q264.686 584.996 264.686 580.254 Q264.686 575.575 260.994 572.838 Q257.302 570.1 250.936 570.1 Q244.603 570.1 240.91 572.838 Q237.186 575.575 237.186 580.254 M232.221 580.254 Q232.221 572.615 237.186 568.254 Q242.152 563.894 250.936 563.894 Q259.689 563.894 264.686 568.254 Q269.652 572.615 269.652 580.254 Q269.652 587.924 264.686 592.285 Q259.689 596.614 250.936 596.614 Q242.152 596.614 237.186 592.285 Q232.221 587.924 232.221 580.254 Z" fill="#000000" fill-rule="nonzero" fill-opacity="1" /><path clip-path="url(#clip610)" d="M237.186 540.373 Q237.186 545.083 240.879 547.82 Q244.539 550.558 250.936 550.558 Q257.334 550.558 261.026 547.852 Q264.686 545.115 264.686 540.373 Q264.686 535.694 260.994 532.956 Q257.302 530.219 250.936 530.219 Q244.603 530.219 240.91 532.956 Q237.186 535.694 237.186 540.373 M232.221 540.373 Q232.221 532.734 237.186 528.373 Q242.152 524.013 250.936 524.013 Q259.689 524.013 264.686 528.373 Q269.652 532.734 269.652 540.373 Q269.652 548.043 264.686 552.404 Q259.689 556.732 250.936 556.732 Q242.152 556.732 237.186 552.404 Q232.221 548.043 232.221 540.373 Z" fill="#000000" fill-rule="nonzero" fill-opacity="1" /><path clip-path="url(#clip610)" d="M238.491 490.847 L219.203 490.847 L219.203 484.991 L268.729 484.991 L268.729 490.847 L263.381 490.847 Q266.564 492.693 268.124 495.526 Q269.652 498.327 269.652 502.274 Q269.652 508.735 264.495 512.809 Q259.339 516.851 250.936 516.851 Q242.534 516.851 237.377 512.809 Q232.221 508.735 232.221 502.274 Q232.221 498.327 233.781 495.526 Q235.309 492.693 238.491 490.847 M250.936 510.804 Q257.398 510.804 261.09 508.162 Q264.75 505.488 264.75 500.841 Q264.75 496.195 261.09 493.521 Q257.398 490.847 250.936 490.847 Q244.475 490.847 240.815 493.521 Q237.123 496.195 237.123 500.841 Q237.123 505.488 240.815 508.162 Q244.475 510.804 250.936 510.804 Z" fill="#000000" fill-rule="nonzero" fill-opacity="1" /><path clip-path="url(#clip610)" d="M843.988 31.2093 L843.988 47.0368 L853.363 47.0368 Q858.079 47.0368 860.336 45.0981 Q862.622 43.1306 862.622 39.1086 Q862.622 35.0577 860.336 33.148 Q858.079 31.2093 853.363 31.2093 L843.988 31.2093 M843.988 13.4432 L843.988 26.464 L852.639 26.464 Q856.922 26.464 859.005 24.8726 Q861.117 23.2522 861.117 19.9536 Q861.117 16.6839 859.005 15.0636 Q856.922 13.4432 852.639 13.4432 L843.988 13.4432 M838.143 8.64 L853.073 8.64 Q859.757 8.64 863.374 11.4178 Q866.991 14.1955 866.991 19.317 Q866.991 23.2811 865.139 25.6249 Q863.287 27.9686 859.699 28.5473 Q864.011 29.4732 866.383 32.4246 Q868.785 35.347 868.785 39.7452 Q868.785 45.5322 864.85 48.6861 Q860.915 51.84 853.652 51.84 L838.143 51.84 L838.143 8.64 Z" fill="#000000" fill-rule="nonzero" fill-opacity="1" /><path clip-path="url(#clip610)" d="M893.293 35.5496 Q886.84 35.5496 884.352 37.0253 Q881.864 38.501 881.864 42.06 Q881.864 44.8956 883.715 46.5738 Q885.596 48.2231 888.808 48.2231 Q893.235 48.2231 895.897 45.0981 Q898.588 41.9442 898.588 36.7359 L898.588 35.5496 L893.293 35.5496 M903.912 33.3505 L903.912 51.84 L898.588 51.84 L898.588 46.921 Q896.765 49.8724 894.045 51.2902 Q891.325 52.6791 887.39 52.6791 Q882.413 52.6791 879.462 49.9014 Q876.54 47.0947 876.54 42.4072 Q876.54 36.9385 880.185 34.1607 Q883.86 31.3829 891.123 31.3829 L898.588 31.3829 L898.588 30.8621 Q898.588 27.1874 896.157 25.1908 Q893.756 23.1654 889.387 23.1654 Q886.609 23.1654 883.976 23.8309 Q881.343 24.4964 878.912 25.8274 L878.912 20.9085 Q881.835 19.78 884.583 19.2302 Q887.332 18.6515 889.936 18.6515 Q896.968 18.6515 900.44 22.2973 Q903.912 25.9431 903.912 33.3505 Z" fill="#000000" fill-rule="nonzero" fill-opacity="1" /><path clip-path="url(#clip610)" d="M914.329 39.0507 L914.329 19.4328 L919.653 19.4328 L919.653 38.8482 Q919.653 43.4488 921.447 45.7636 Q923.241 48.0495 926.829 48.0495 Q931.14 48.0495 933.628 45.3007 Q936.146 42.5519 936.146 37.8065 L936.146 19.4328 L941.47 19.4328 L941.47 51.84 L936.146 51.84 L936.146 46.8632 Q934.207 49.8145 931.632 51.2613 Q929.086 52.6791 925.7 52.6791 Q920.116 52.6791 917.222 49.2069 Q914.329 45.7347 914.329 39.0507 M927.726 18.6515 L927.726 18.6515 Z" fill="#000000" fill-rule="nonzero" fill-opacity="1" /><path clip-path="url(#clip610)" d="M977.667 25.6538 Q979.664 22.0659 982.442 20.3587 Q985.22 18.6515 988.981 18.6515 Q994.045 18.6515 996.794 22.2105 Q999.542 25.7406 999.542 32.2799 L999.542 51.84 L994.189 51.84 L994.189 32.4535 Q994.189 27.795 992.54 25.5381 Q990.891 23.2811 987.505 23.2811 Q983.368 23.2811 980.966 26.03 Q978.564 28.7788 978.564 33.5241 L978.564 51.84 L973.211 51.84 L973.211 32.4535 Q973.211 27.7661 971.562 25.5381 Q969.913 23.2811 966.47 23.2811 Q962.39 23.2811 959.988 26.0589 Q957.587 28.8077 957.587 33.5241 L957.587 51.84 L952.234 51.84 L952.234 19.4328 L957.587 19.4328 L957.587 24.4675 Q959.409 21.4872 961.956 20.0693 Q964.502 18.6515 968.003 18.6515 Q971.533 18.6515 973.993 20.4455 Q976.481 22.2395 977.667 25.6538 Z" fill="#000000" fill-rule="nonzero" fill-opacity="1" /><path clip-path="url(#clip610)" d="M1007.47 33.2348 L1023.07 33.2348 L1023.07 37.9801 L1007.47 37.9801 L1007.47 33.2348 Z" fill="#000000" fill-rule="nonzero" fill-opacity="1" /><path clip-path="url(#clip610)" d="M1025.53 8.64 L1031.43 8.64 L1040.51 45.156 L1049.57 8.64 L1056.14 8.64 L1065.22 45.156 L1074.28 8.64 L1080.21 8.64 L1069.36 51.84 L1062.01 51.84 L1052.9 14.3402 L1043.7 51.84 L1036.35 51.84 L1025.53 8.64 Z" fill="#000000" fill-rule="nonzero" fill-opacity="1" /><path clip-path="url(#clip610)" d="M1111.98 34.3054 L1111.98 36.9095 L1087.5 36.9095 Q1087.85 42.4072 1090.8 45.3007 Q1093.78 48.1653 1099.08 48.1653 Q1102.15 48.1653 1105.01 47.4129 Q1107.9 46.6606 1110.74 45.156 L1110.74 50.1907 Q1107.88 51.406 1104.87 52.0425 Q1101.86 52.6791 1098.76 52.6791 Q1091.01 52.6791 1086.46 48.1653 Q1081.95 43.6514 1081.95 35.9547 Q1081.95 27.9975 1086.23 23.339 Q1090.54 18.6515 1097.83 18.6515 Q1104.37 18.6515 1108.16 22.876 Q1111.98 27.0716 1111.98 34.3054 M1106.66 32.7429 Q1106.6 28.3737 1104.2 25.7695 Q1101.83 23.1654 1097.89 23.1654 Q1093.44 23.1654 1090.75 25.6827 Q1088.08 28.2001 1087.68 32.7718 L1106.66 32.7429 Z" fill="#000000" fill-rule="nonzero" fill-opacity="1" /><path clip-path="url(#clip610)" d="M1120.72 6.81709 L1126.05 6.81709 L1126.05 51.84 L1120.72 51.84 L1120.72 6.81709 Z" fill="#000000" fill-rule="nonzero" fill-opacity="1" /><path clip-path="url(#clip610)" d="M1160.51 20.677 L1160.51 25.6538 Q1158.25 24.4096 1155.97 23.802 Q1153.71 23.1654 1151.39 23.1654 Q1146.21 23.1654 1143.35 26.464 Q1140.48 29.7336 1140.48 35.6653 Q1140.48 41.597 1143.35 44.8956 Q1146.21 48.1653 1151.39 48.1653 Q1153.71 48.1653 1155.97 47.5576 Q1158.25 46.921 1160.51 45.6768 L1160.51 50.5958 Q1158.28 51.6375 1155.88 52.1583 Q1153.51 52.6791 1150.81 52.6791 Q1143.49 52.6791 1139.18 48.0784 Q1134.87 43.4778 1134.87 35.6653 Q1134.87 27.7371 1139.21 23.1943 Q1143.58 18.6515 1151.16 18.6515 Q1153.62 18.6515 1155.97 19.1724 Q1158.31 19.6642 1160.51 20.677 Z" fill="#000000" fill-rule="nonzero" fill-opacity="1" /><path clip-path="url(#clip610)" d="M1196.71 32.2799 L1196.71 51.84 L1191.38 51.84 L1191.38 32.4535 Q1191.38 27.8529 1189.59 25.567 Q1187.79 23.2811 1184.21 23.2811 Q1179.89 23.2811 1177.41 26.03 Q1174.92 28.7788 1174.92 33.5241 L1174.92 51.84 L1169.56 51.84 L1169.56 6.81709 L1174.92 6.81709 L1174.92 24.4675 Q1176.83 21.545 1179.4 20.0983 Q1182.01 18.6515 1185.39 18.6515 Q1190.98 18.6515 1193.84 22.1237 Q1196.71 25.567 1196.71 32.2799 Z" fill="#000000" fill-rule="nonzero" fill-opacity="1" /><path clip-path="url(#clip610)" d="M1258.74 11.9675 L1258.74 18.1307 Q1255.79 15.3819 1252.43 14.0219 Q1249.11 12.662 1245.35 12.662 Q1237.94 12.662 1234 17.2048 Q1230.07 21.7186 1230.07 30.2834 Q1230.07 38.8192 1234 43.362 Q1237.94 47.8759 1245.35 47.8759 Q1249.11 47.8759 1252.43 46.516 Q1255.79 45.156 1258.74 42.4072 L1258.74 48.5125 Q1255.68 50.5958 1252.23 51.6375 Q1248.82 52.6791 1245 52.6791 Q1235.19 52.6791 1229.55 46.6896 Q1223.9 40.6711 1223.9 30.2834 Q1223.9 19.8668 1229.55 13.8772 Q1235.19 7.85875 1245 7.85875 Q1248.88 7.85875 1252.29 8.90042 Q1255.73 9.91314 1258.74 11.9675 Z" fill="#000000" fill-rule="nonzero" fill-opacity="1" /><path clip-path="url(#clip610)" d="M1280.1 23.1654 Q1275.81 23.1654 1273.33 26.5218 Q1270.84 29.8494 1270.84 35.6653 Q1270.84 41.4813 1273.3 44.8377 Q1275.79 48.1653 1280.1 48.1653 Q1284.35 48.1653 1286.84 44.8088 Q1289.33 41.4523 1289.33 35.6653 Q1289.33 29.9072 1286.84 26.5508 Q1284.35 23.1654 1280.1 23.1654 M1280.1 18.6515 Q1287.04 18.6515 1291 23.1654 Q1294.97 27.6792 1294.97 35.6653 Q1294.97 43.6225 1291 48.1653 Q1287.04 52.6791 1280.1 52.6791 Q1273.12 52.6791 1269.16 48.1653 Q1265.22 43.6225 1265.22 35.6653 Q1265.22 27.6792 1269.16 23.1654 Q1273.12 18.6515 1280.1 18.6515 Z" fill="#000000" fill-rule="nonzero" fill-opacity="1" /><path clip-path="url(#clip610)" d="M1330.73 32.2799 L1330.73 51.84 L1325.41 51.84 L1325.41 32.4535 Q1325.41 27.8529 1323.61 25.567 Q1321.82 23.2811 1318.23 23.2811 Q1313.92 23.2811 1311.43 26.03 Q1308.94 28.7788 1308.94 33.5241 L1308.94 51.84 L1303.59 51.84 L1303.59 19.4328 L1308.94 19.4328 L1308.94 24.4675 Q1310.85 21.545 1313.43 20.0983 Q1316.03 18.6515 1319.42 18.6515 Q1325 18.6515 1327.87 22.1237 Q1330.73 25.567 1330.73 32.2799 Z" fill="#000000" fill-rule="nonzero" fill-opacity="1" /><path clip-path="url(#clip610)" d="M1337.53 19.4328 L1343.17 19.4328 L1353.3 46.6317 L1363.43 19.4328 L1369.07 19.4328 L1356.92 51.84 L1349.69 51.84 L1337.53 19.4328 Z" fill="#000000" fill-rule="nonzero" fill-opacity="1" /><path clip-path="url(#clip610)" d="M1404.14 34.3054 L1404.14 36.9095 L1379.66 36.9095 Q1380.01 42.4072 1382.96 45.3007 Q1385.94 48.1653 1391.24 48.1653 Q1394.3 48.1653 1397.17 47.4129 Q1400.06 46.6606 1402.9 45.156 L1402.9 50.1907 Q1400.03 51.406 1397.02 52.0425 Q1394.01 52.6791 1390.92 52.6791 Q1383.16 52.6791 1378.62 48.1653 Q1374.11 43.6514 1374.11 35.9547 Q1374.11 27.9975 1378.39 23.339 Q1382.7 18.6515 1389.99 18.6515 Q1396.53 18.6515 1400.32 22.876 Q1404.14 27.0716 1404.14 34.3054 M1398.82 32.7429 Q1398.76 28.3737 1396.36 25.7695 Q1393.98 23.1654 1390.05 23.1654 Q1385.59 23.1654 1382.9 25.6827 Q1380.24 28.2001 1379.84 32.7718 L1398.82 32.7429 Z" fill="#000000" fill-rule="nonzero" fill-opacity="1" /><path clip-path="url(#clip610)" d="M1431.66 24.4096 Q1430.76 23.8888 1429.69 23.6573 Q1428.65 23.3969 1427.38 23.3969 Q1422.86 23.3969 1420.43 26.3482 Q1418.03 29.2707 1418.03 34.7683 L1418.03 51.84 L1412.68 51.84 L1412.68 19.4328 L1418.03 19.4328 L1418.03 24.4675 Q1419.71 21.5161 1422.4 20.0983 Q1425.09 18.6515 1428.94 18.6515 Q1429.49 18.6515 1430.15 18.7383 Q1430.82 18.7962 1431.63 18.9409 L1431.66 24.4096 Z" fill="#000000" fill-rule="nonzero" fill-opacity="1" /><path clip-path="url(#clip610)" d="M1457.53 35.2602 Q1457.53 29.4732 1455.12 26.2904 Q1452.75 23.1075 1448.44 23.1075 Q1444.16 23.1075 1441.76 26.2904 Q1439.38 29.4732 1439.38 35.2602 Q1439.38 41.0183 1441.76 44.2012 Q1444.16 47.384 1448.44 47.384 Q1452.75 47.384 1455.12 44.2012 Q1457.53 41.0183 1457.53 35.2602 M1462.85 47.818 Q1462.85 56.0934 1459.18 60.1154 Q1455.5 64.1663 1447.92 64.1663 Q1445.11 64.1663 1442.62 63.7323 Q1440.14 63.3272 1437.79 62.4592 L1437.79 57.2798 Q1440.14 58.5529 1442.42 59.1606 Q1444.71 59.7682 1447.08 59.7682 Q1452.32 59.7682 1454.92 57.0194 Q1457.53 54.2995 1457.53 48.7729 L1457.53 46.1398 Q1455.88 49.0044 1453.3 50.4222 Q1450.73 51.84 1447.14 51.84 Q1441.18 51.84 1437.53 47.2972 Q1433.89 42.7544 1433.89 35.2602 Q1433.89 27.7371 1437.53 23.1943 Q1441.18 18.6515 1447.14 18.6515 Q1450.73 18.6515 1453.3 20.0693 Q1455.88 21.4872 1457.53 24.3517 L1457.53 19.4328 L1462.85 19.4328 L1462.85 47.818 Z" fill="#000000" fill-rule="nonzero" fill-opacity="1" /><path clip-path="url(#clip610)" d="M1501.54 34.3054 L1501.54 36.9095 L1477.06 36.9095 Q1477.4 42.4072 1480.36 45.3007 Q1483.34 48.1653 1488.63 48.1653 Q1491.7 48.1653 1494.56 47.4129 Q1497.46 46.6606 1500.29 45.156 L1500.29 50.1907 Q1497.43 51.406 1494.42 52.0425 Q1491.41 52.6791 1488.31 52.6791 Q1480.56 52.6791 1476.02 48.1653 Q1471.5 43.6514 1471.5 35.9547 Q1471.5 27.9975 1475.78 23.339 Q1480.1 18.6515 1487.39 18.6515 Q1493.93 18.6515 1497.72 22.876 Q1501.54 27.0716 1501.54 34.3054 M1496.21 32.7429 Q1496.15 28.3737 1493.75 25.7695 Q1491.38 23.1654 1487.44 23.1654 Q1482.99 23.1654 1480.3 25.6827 Q1477.64 28.2001 1477.23 32.7718 L1496.21 32.7429 Z" fill="#000000" fill-rule="nonzero" fill-opacity="1" /><path clip-path="url(#clip610)" d="M1537.21 32.2799 L1537.21 51.84 L1531.89 51.84 L1531.89 32.4535 Q1531.89 27.8529 1530.1 25.567 Q1528.3 23.2811 1524.71 23.2811 Q1520.4 23.2811 1517.91 26.03 Q1515.43 28.7788 1515.43 33.5241 L1515.43 51.84 L1510.07 51.84 L1510.07 19.4328 L1515.43 19.4328 L1515.43 24.4675 Q1517.33 21.545 1519.91 20.0983 Q1522.51 18.6515 1525.9 18.6515 Q1531.48 18.6515 1534.35 22.1237 Q1537.21 25.567 1537.21 32.2799 Z" fill="#000000" fill-rule="nonzero" fill-opacity="1" /><path clip-path="url(#clip610)" d="M1571.15 20.677 L1571.15 25.6538 Q1568.9 24.4096 1566.61 23.802 Q1564.35 23.1654 1562.04 23.1654 Q1556.86 23.1654 1554 26.464 Q1551.13 29.7336 1551.13 35.6653 Q1551.13 41.597 1554 44.8956 Q1556.86 48.1653 1562.04 48.1653 Q1564.35 48.1653 1566.61 47.5576 Q1568.9 46.921 1571.15 45.6768 L1571.15 50.5958 Q1568.93 51.6375 1566.52 52.1583 Q1564.15 52.6791 1561.46 52.6791 Q1554.14 52.6791 1549.83 48.0784 Q1545.52 43.4778 1545.52 35.6653 Q1545.52 27.7371 1549.86 23.1943 Q1554.23 18.6515 1561.81 18.6515 Q1564.27 18.6515 1566.61 19.1724 Q1568.95 19.6642 1571.15 20.677 Z" fill="#000000" fill-rule="nonzero" fill-opacity="1" /><path clip-path="url(#clip610)" d="M1608.13 34.3054 L1608.13 36.9095 L1583.65 36.9095 Q1584 42.4072 1586.95 45.3007 Q1589.93 48.1653 1595.23 48.1653 Q1598.29 48.1653 1601.16 47.4129 Q1604.05 46.6606 1606.89 45.156 L1606.89 50.1907 Q1604.02 51.406 1601.01 52.0425 Q1598.01 52.6791 1594.91 52.6791 Q1587.15 52.6791 1582.61 48.1653 Q1578.1 43.6514 1578.1 35.9547 Q1578.1 27.9975 1582.38 23.339 Q1586.69 18.6515 1593.98 18.6515 Q1600.52 18.6515 1604.31 22.876 Q1608.13 27.0716 1608.13 34.3054 M1602.81 32.7429 Q1602.75 28.3737 1600.35 25.7695 Q1597.98 23.1654 1594.04 23.1654 Q1589.59 23.1654 1586.89 25.6827 Q1584.23 28.2001 1583.83 32.7718 L1602.81 32.7429 Z" fill="#000000" fill-rule="nonzero" fill-opacity="1" /><path clip-path="url(#clip610)" d="M1648.5 6.87496 Q1644.62 13.53 1642.74 20.0404 Q1640.86 26.5508 1640.86 33.2348 Q1640.86 39.9188 1642.74 46.487 Q1644.65 53.0263 1648.5 59.6525 L1643.87 59.6525 Q1639.53 52.8527 1637.36 46.2845 Q1635.22 39.7162 1635.22 33.2348 Q1635.22 26.7823 1637.36 20.2429 Q1639.5 13.7036 1643.87 6.87496 L1648.5 6.87496 Z" fill="#000000" fill-rule="nonzero" fill-opacity="1" /><path clip-path="url(#clip610)" d="M1684.96 10.0578 L1684.96 15.758 Q1681.63 14.1666 1678.68 13.3853 Q1675.73 12.6041 1672.98 12.6041 Q1668.2 12.6041 1665.6 14.4559 Q1663.02 16.3078 1663.02 19.7221 Q1663.02 22.5867 1664.73 24.0624 Q1666.47 25.5091 1671.27 26.4061 L1674.8 27.1295 Q1681.34 28.3737 1684.43 31.5276 Q1687.56 34.6526 1687.56 39.9188 Q1687.56 46.1977 1683.33 49.4384 Q1679.14 52.6791 1671.01 52.6791 Q1667.94 52.6791 1664.47 51.9847 Q1661.03 51.2902 1657.32 49.9303 L1657.32 43.9118 Q1660.88 45.9083 1664.3 46.921 Q1667.71 47.9338 1671.01 47.9338 Q1676.01 47.9338 1678.73 45.9662 Q1681.45 43.9986 1681.45 40.3528 Q1681.45 37.1699 1679.49 35.376 Q1677.55 33.582 1673.09 32.685 L1669.53 31.9906 Q1662.99 30.6885 1660.07 27.9107 Q1657.15 25.133 1657.15 20.1851 Q1657.15 14.4559 1661.17 11.1573 Q1665.22 7.85875 1672.31 7.85875 Q1675.35 7.85875 1678.5 8.40852 Q1681.66 8.95829 1684.96 10.0578 Z" fill="#000000" fill-rule="nonzero" fill-opacity="1" /><path clip-path="url(#clip610)" d="M1702.52 13.4432 L1702.52 29.6758 L1709.87 29.6758 Q1713.95 29.6758 1716.18 27.5635 Q1718.4 25.4513 1718.4 21.545 Q1718.4 17.6677 1716.18 15.5555 Q1713.95 13.4432 1709.87 13.4432 L1702.52 13.4432 M1696.67 8.64 L1709.87 8.64 Q1717.13 8.64 1720.83 11.9386 Q1724.57 15.2083 1724.57 21.545 Q1724.57 27.9397 1720.83 31.2093 Q1717.13 34.479 1709.87 34.479 L1702.52 34.479 L1702.52 51.84 L1696.67 51.84 L1696.67 8.64 Z" fill="#000000" fill-rule="nonzero" fill-opacity="1" /><path clip-path="url(#clip610)" d="M1725.18 8.64 L1731.45 8.64 L1743.43 26.4061 L1755.33 8.64 L1761.6 8.64 L1746.33 31.2672 L1746.33 51.84 L1740.45 51.84 L1740.45 31.2672 L1725.18 8.64 Z" fill="#000000" fill-rule="nonzero" fill-opacity="1" /><path clip-path="url(#clip610)" d="M1768.43 44.4905 L1774.54 44.4905 L1774.54 49.4673 L1769.79 58.7265 L1766.06 58.7265 L1768.43 49.4673 L1768.43 44.4905 Z" fill="#000000" fill-rule="nonzero" fill-opacity="1" /><path clip-path="url(#clip610)" d="M1804.98 8.64 L1810.82 8.64 L1810.82 26.898 L1830.21 8.64 L1837.73 8.64 L1816.29 28.7788 L1839.27 51.84 L1831.57 51.84 L1810.82 31.0357 L1810.82 51.84 L1804.98 51.84 L1804.98 8.64 Z" fill="#000000" fill-rule="nonzero" fill-opacity="1" /><path clip-path="url(#clip610)" d="M1844.3 24.9304 L1881.4 24.9304 L1881.4 29.7915 L1844.3 29.7915 L1844.3 24.9304 M1844.3 36.7359 L1881.4 36.7359 L1881.4 41.6549 L1844.3 41.6549 L1844.3 36.7359 Z" fill="#000000" fill-rule="nonzero" fill-opacity="1" /><path clip-path="url(#clip610)" d="M1895.02 46.921 L1904.57 46.921 L1904.57 13.964 L1894.18 16.0474 L1894.18 10.7233 L1904.51 8.64 L1910.36 8.64 L1910.36 46.921 L1919.91 46.921 L1919.91 51.84 L1895.02 51.84 L1895.02 46.921 Z" fill="#000000" fill-rule="nonzero" fill-opacity="1" /><path clip-path="url(#clip610)" d="M1936.75 46.921 L1957.15 46.921 L1957.15 51.84 L1929.72 51.84 L1929.72 46.921 Q1933.04 43.4778 1938.77 37.6908 Q1944.53 31.8748 1946.01 30.1966 Q1948.81 27.0427 1949.91 24.8726 Q1951.04 22.6735 1951.04 20.5612 Q1951.04 17.118 1948.61 14.9478 Q1946.21 12.7777 1942.33 12.7777 Q1939.58 12.7777 1936.52 13.7326 Q1933.48 14.6874 1930.01 16.6261 L1930.01 10.7233 Q1933.54 9.30551 1936.6 8.58213 Q1939.67 7.85875 1942.22 7.85875 Q1948.93 7.85875 1952.92 11.2152 Q1956.92 14.5717 1956.92 20.1851 Q1956.92 22.8471 1955.9 25.2487 Q1954.92 27.6214 1952.29 30.8621 Q1951.56 31.7012 1947.69 35.7232 Q1943.81 39.7162 1936.75 46.921 Z" fill="#000000" fill-rule="nonzero" fill-opacity="1" /><path clip-path="url(#clip610)" d="M1967.82 6.87496 L1972.45 6.87496 Q1976.79 13.7036 1978.94 20.2429 Q1981.11 26.7823 1981.11 33.2348 Q1981.11 39.7162 1978.94 46.2845 Q1976.79 52.8527 1972.45 59.6525 L1967.82 59.6525 Q1971.67 53.0263 1973.55 46.487 Q1975.46 39.9188 1975.46 33.2348 Q1975.46 26.5508 1973.55 20.0404 Q1971.67 13.53 1967.82 6.87496 Z" fill="#000000" fill-rule="nonzero" fill-opacity="1" /><polyline clip-path="url(#clip612)" style="stroke:#000080; stroke-linecap:round; stroke-linejoin:round; stroke-width:8; stroke-opacity:1; fill:none" points="594.16,1211.41 621.803,765.005 649.446,677.741 677.089,626.408 704.732,587.689 732.374,555.133 760.017,526.17 787.66,499.484 815.303,474.14 842.946,449.356 870.589,424.958 898.231,401.972 925.874,381.681 953.517,364.605 981.16,350.759 1008.8,339.866 1036.45,331.431 1064.09,324.878 1091.73,319.676 1119.37,315.405 1147.02,311.762 1174.66,308.541 1202.3,305.598 1229.95,302.831 1257.59,300.158 1285.23,297.516 1312.87,294.859 1340.52,292.155 1368.16,289.387 1395.8,286.548 1423.45,283.645 1451.09,280.688 1478.73,277.688 1506.37,274.652 1534.02,271.58 1561.66,268.462 1589.3,265.284 1616.95,262.026 1644.59,258.669 1672.23,255.204 1699.87,251.642 1727.52,248.032 1755.16,244.465 1782.8,241.063 1810.45,237.949 1838.09,235.201 1865.73,232.83 1893.37,230.786 1921.02,228.984 1948.66,227.325 1976.3,225.722 2003.95,224.124 2031.59,222.536 2059.23,221.015 2086.87,219.62 2114.52,218.379 2142.16,217.294 2169.8,216.354 2197.45,215.538 2225.09,214.83 "/>
<circle clip-path="url(#clip612)" cx="594.16" cy="1211.41" r="10.8" fill="#000080" fill-rule="evenodd" fill-opacity="1" stroke="#000000" stroke-opacity="1" stroke-width="3.2"/>
<circle clip-path="url(#clip612)" cx="621.803" cy="765.005" r="10.8" fill="#000080" fill-rule="evenodd" fill-opacity="1" stroke="#000000" stroke-opacity="1" stroke-width="3.2"/>
<circle clip-path="url(#clip612)" cx="649.446" cy="677.741" r="10.8" fill="#000080" fill-rule="evenodd" fill-opacity="1" stroke="#000000" stroke-opacity="1" stroke-width="3.2"/>
<circle clip-path="url(#clip612)" cx="677.089" cy="626.408" r="10.8" fill="#000080" fill-rule="evenodd" fill-opacity="1" stroke="#000000" stroke-opacity="1" stroke-width="3.2"/>
<circle clip-path="url(#clip612)" cx="704.732" cy="587.689" r="10.8" fill="#000080" fill-rule="evenodd" fill-opacity="1" stroke="#000000" stroke-opacity="1" stroke-width="3.2"/>
<circle clip-path="url(#clip612)" cx="732.374" cy="555.133" r="10.8" fill="#000080" fill-rule="evenodd" fill-opacity="1" stroke="#000000" stroke-opacity="1" stroke-width="3.2"/>
<circle clip-path="url(#clip612)" cx="760.017" cy="526.17" r="10.8" fill="#000080" fill-rule="evenodd" fill-opacity="1" stroke="#000000" stroke-opacity="1" stroke-width="3.2"/>
<circle clip-path="url(#clip612)" cx="787.66" cy="499.484" r="10.8" fill="#000080" fill-rule="evenodd" fill-opacity="1" stroke="#000000" stroke-opacity="1" stroke-width="3.2"/>
<circle clip-path="url(#clip612)" cx="815.303" cy="474.14" r="10.8" fill="#000080" fill-rule="evenodd" fill-opacity="1" stroke="#000000" stroke-opacity="1" stroke-width="3.2"/>
<circle clip-path="url(#clip612)" cx="842.946" cy="449.356" r="10.8" fill="#000080" fill-rule="evenodd" fill-opacity="1" stroke="#000000" stroke-opacity="1" stroke-width="3.2"/>
<circle clip-path="url(#clip612)" cx="870.589" cy="424.958" r="10.8" fill="#000080" fill-rule="evenodd" fill-opacity="1" stroke="#000000" stroke-opacity="1" stroke-width="3.2"/>
<circle clip-path="url(#clip612)" cx="898.231" cy="401.972" r="10.8" fill="#000080" fill-rule="evenodd" fill-opacity="1" stroke="#000000" stroke-opacity="1" stroke-width="3.2"/>
<circle clip-path="url(#clip612)" cx="925.874" cy="381.681" r="10.8" fill="#000080" fill-rule="evenodd" fill-opacity="1" stroke="#000000" stroke-opacity="1" stroke-width="3.2"/>
<circle clip-path="url(#clip612)" cx="953.517" cy="364.605" r="10.8" fill="#000080" fill-rule="evenodd" fill-opacity="1" stroke="#000000" stroke-opacity="1" stroke-width="3.2"/>
<circle clip-path="url(#clip612)" cx="981.16" cy="350.759" r="10.8" fill="#000080" fill-rule="evenodd" fill-opacity="1" stroke="#000000" stroke-opacity="1" stroke-width="3.2"/>
<circle clip-path="url(#clip612)" cx="1008.8" cy="339.866" r="10.8" fill="#000080" fill-rule="evenodd" fill-opacity="1" stroke="#000000" stroke-opacity="1" stroke-width="3.2"/>
<circle clip-path="url(#clip612)" cx="1036.45" cy="331.431" r="10.8" fill="#000080" fill-rule="evenodd" fill-opacity="1" stroke="#000000" stroke-opacity="1" stroke-width="3.2"/>
<circle clip-path="url(#clip612)" cx="1064.09" cy="324.878" r="10.8" fill="#000080" fill-rule="evenodd" fill-opacity="1" stroke="#000000" stroke-opacity="1" stroke-width="3.2"/>
<circle clip-path="url(#clip612)" cx="1091.73" cy="319.676" r="10.8" fill="#000080" fill-rule="evenodd" fill-opacity="1" stroke="#000000" stroke-opacity="1" stroke-width="3.2"/>
<circle clip-path="url(#clip612)" cx="1119.37" cy="315.405" r="10.8" fill="#000080" fill-rule="evenodd" fill-opacity="1" stroke="#000000" stroke-opacity="1" stroke-width="3.2"/>
<circle clip-path="url(#clip612)" cx="1147.02" cy="311.762" r="10.8" fill="#000080" fill-rule="evenodd" fill-opacity="1" stroke="#000000" stroke-opacity="1" stroke-width="3.2"/>
<circle clip-path="url(#clip612)" cx="1174.66" cy="308.541" r="10.8" fill="#000080" fill-rule="evenodd" fill-opacity="1" stroke="#000000" stroke-opacity="1" stroke-width="3.2"/>
<circle clip-path="url(#clip612)" cx="1202.3" cy="305.598" r="10.8" fill="#000080" fill-rule="evenodd" fill-opacity="1" stroke="#000000" stroke-opacity="1" stroke-width="3.2"/>
<circle clip-path="url(#clip612)" cx="1229.95" cy="302.831" r="10.8" fill="#000080" fill-rule="evenodd" fill-opacity="1" stroke="#000000" stroke-opacity="1" stroke-width="3.2"/>
<circle clip-path="url(#clip612)" cx="1257.59" cy="300.158" r="10.8" fill="#000080" fill-rule="evenodd" fill-opacity="1" stroke="#000000" stroke-opacity="1" stroke-width="3.2"/>
<circle clip-path="url(#clip612)" cx="1285.23" cy="297.516" r="10.8" fill="#000080" fill-rule="evenodd" fill-opacity="1" stroke="#000000" stroke-opacity="1" stroke-width="3.2"/>
<circle clip-path="url(#clip612)" cx="1312.87" cy="294.859" r="10.8" fill="#000080" fill-rule="evenodd" fill-opacity="1" stroke="#000000" stroke-opacity="1" stroke-width="3.2"/>
<circle clip-path="url(#clip612)" cx="1340.52" cy="292.155" r="10.8" fill="#000080" fill-rule="evenodd" fill-opacity="1" stroke="#000000" stroke-opacity="1" stroke-width="3.2"/>
<circle clip-path="url(#clip612)" cx="1368.16" cy="289.387" r="10.8" fill="#000080" fill-rule="evenodd" fill-opacity="1" stroke="#000000" stroke-opacity="1" stroke-width="3.2"/>
<circle clip-path="url(#clip612)" cx="1395.8" cy="286.548" r="10.8" fill="#000080" fill-rule="evenodd" fill-opacity="1" stroke="#000000" stroke-opacity="1" stroke-width="3.2"/>
<circle clip-path="url(#clip612)" cx="1423.45" cy="283.645" r="10.8" fill="#000080" fill-rule="evenodd" fill-opacity="1" stroke="#000000" stroke-opacity="1" stroke-width="3.2"/>
<circle clip-path="url(#clip612)" cx="1451.09" cy="280.688" r="10.8" fill="#000080" fill-rule="evenodd" fill-opacity="1" stroke="#000000" stroke-opacity="1" stroke-width="3.2"/>
<circle clip-path="url(#clip612)" cx="1478.73" cy="277.688" r="10.8" fill="#000080" fill-rule="evenodd" fill-opacity="1" stroke="#000000" stroke-opacity="1" stroke-width="3.2"/>
<circle clip-path="url(#clip612)" cx="1506.37" cy="274.652" r="10.8" fill="#000080" fill-rule="evenodd" fill-opacity="1" stroke="#000000" stroke-opacity="1" stroke-width="3.2"/>
<circle clip-path="url(#clip612)" cx="1534.02" cy="271.58" r="10.8" fill="#000080" fill-rule="evenodd" fill-opacity="1" stroke="#000000" stroke-opacity="1" stroke-width="3.2"/>
<circle clip-path="url(#clip612)" cx="1561.66" cy="268.462" r="10.8" fill="#000080" fill-rule="evenodd" fill-opacity="1" stroke="#000000" stroke-opacity="1" stroke-width="3.2"/>
<circle clip-path="url(#clip612)" cx="1589.3" cy="265.284" r="10.8" fill="#000080" fill-rule="evenodd" fill-opacity="1" stroke="#000000" stroke-opacity="1" stroke-width="3.2"/>
<circle clip-path="url(#clip612)" cx="1616.95" cy="262.026" r="10.8" fill="#000080" fill-rule="evenodd" fill-opacity="1" stroke="#000000" stroke-opacity="1" stroke-width="3.2"/>
<circle clip-path="url(#clip612)" cx="1644.59" cy="258.669" r="10.8" fill="#000080" fill-rule="evenodd" fill-opacity="1" stroke="#000000" stroke-opacity="1" stroke-width="3.2"/>
<circle clip-path="url(#clip612)" cx="1672.23" cy="255.204" r="10.8" fill="#000080" fill-rule="evenodd" fill-opacity="1" stroke="#000000" stroke-opacity="1" stroke-width="3.2"/>
<circle clip-path="url(#clip612)" cx="1699.87" cy="251.642" r="10.8" fill="#000080" fill-rule="evenodd" fill-opacity="1" stroke="#000000" stroke-opacity="1" stroke-width="3.2"/>
<circle clip-path="url(#clip612)" cx="1727.52" cy="248.032" r="10.8" fill="#000080" fill-rule="evenodd" fill-opacity="1" stroke="#000000" stroke-opacity="1" stroke-width="3.2"/>
<circle clip-path="url(#clip612)" cx="1755.16" cy="244.465" r="10.8" fill="#000080" fill-rule="evenodd" fill-opacity="1" stroke="#000000" stroke-opacity="1" stroke-width="3.2"/>
<circle clip-path="url(#clip612)" cx="1782.8" cy="241.063" r="10.8" fill="#000080" fill-rule="evenodd" fill-opacity="1" stroke="#000000" stroke-opacity="1" stroke-width="3.2"/>
<circle clip-path="url(#clip612)" cx="1810.45" cy="237.949" r="10.8" fill="#000080" fill-rule="evenodd" fill-opacity="1" stroke="#000000" stroke-opacity="1" stroke-width="3.2"/>
<circle clip-path="url(#clip612)" cx="1838.09" cy="235.201" r="10.8" fill="#000080" fill-rule="evenodd" fill-opacity="1" stroke="#000000" stroke-opacity="1" stroke-width="3.2"/>
<circle clip-path="url(#clip612)" cx="1865.73" cy="232.83" r="10.8" fill="#000080" fill-rule="evenodd" fill-opacity="1" stroke="#000000" stroke-opacity="1" stroke-width="3.2"/>
<circle clip-path="url(#clip612)" cx="1893.37" cy="230.786" r="10.8" fill="#000080" fill-rule="evenodd" fill-opacity="1" stroke="#000000" stroke-opacity="1" stroke-width="3.2"/>
<circle clip-path="url(#clip612)" cx="1921.02" cy="228.984" r="10.8" fill="#000080" fill-rule="evenodd" fill-opacity="1" stroke="#000000" stroke-opacity="1" stroke-width="3.2"/>
<circle clip-path="url(#clip612)" cx="1948.66" cy="227.325" r="10.8" fill="#000080" fill-rule="evenodd" fill-opacity="1" stroke="#000000" stroke-opacity="1" stroke-width="3.2"/>
<circle clip-path="url(#clip612)" cx="1976.3" cy="225.722" r="10.8" fill="#000080" fill-rule="evenodd" fill-opacity="1" stroke="#000000" stroke-opacity="1" stroke-width="3.2"/>
<circle clip-path="url(#clip612)" cx="2003.95" cy="224.124" r="10.8" fill="#000080" fill-rule="evenodd" fill-opacity="1" stroke="#000000" stroke-opacity="1" stroke-width="3.2"/>
<circle clip-path="url(#clip612)" cx="2031.59" cy="222.536" r="10.8" fill="#000080" fill-rule="evenodd" fill-opacity="1" stroke="#000000" stroke-opacity="1" stroke-width="3.2"/>
<circle clip-path="url(#clip612)" cx="2059.23" cy="221.015" r="10.8" fill="#000080" fill-rule="evenodd" fill-opacity="1" stroke="#000000" stroke-opacity="1" stroke-width="3.2"/>
<circle clip-path="url(#clip612)" cx="2086.87" cy="219.62" r="10.8" fill="#000080" fill-rule="evenodd" fill-opacity="1" stroke="#000000" stroke-opacity="1" stroke-width="3.2"/>
<circle clip-path="url(#clip612)" cx="2114.52" cy="218.379" r="10.8" fill="#000080" fill-rule="evenodd" fill-opacity="1" stroke="#000000" stroke-opacity="1" stroke-width="3.2"/>
<circle clip-path="url(#clip612)" cx="2142.16" cy="217.294" r="10.8" fill="#000080" fill-rule="evenodd" fill-opacity="1" stroke="#000000" stroke-opacity="1" stroke-width="3.2"/>
<circle clip-path="url(#clip612)" cx="2169.8" cy="216.354" r="10.8" fill="#000080" fill-rule="evenodd" fill-opacity="1" stroke="#000000" stroke-opacity="1" stroke-width="3.2"/>
<circle clip-path="url(#clip612)" cx="2197.45" cy="215.538" r="10.8" fill="#000080" fill-rule="evenodd" fill-opacity="1" stroke="#000000" stroke-opacity="1" stroke-width="3.2"/>
<circle clip-path="url(#clip612)" cx="2225.09" cy="214.83" r="10.8" fill="#000080" fill-rule="evenodd" fill-opacity="1" stroke="#000000" stroke-opacity="1" stroke-width="3.2"/>
</svg>
