<?xml version="1.0" encoding="utf-8"?>
<svg xmlns="http://www.w3.org/2000/svg" xmlns:xlink="http://www.w3.org/1999/xlink" width="600" height="400" viewBox="0 0 2400 1600">
<defs>
  <clipPath id="clip320">
    <rect x="0" y="0" width="2400" height="1600"/>
  </clipPath>
</defs>
<path clip-path="url(#clip320)" d="M0 1600 L2400 1600 L2400 8.88178e-14 L0 8.88178e-14  Z" fill="#ffffff" fill-rule="evenodd" fill-opacity="1"/>
<defs>
  <clipPath id="clip321">
    <rect x="176" y="880" width="2174" height="37"/>
  </clipPath>
</defs>
<path clip-path="url(#clip320)" d="M545.232 1241.31 L2274.02 1241.31 L2274.02 219.492 L545.232 219.492  Z" fill="#ffffff" fill-rule="evenodd" fill-opacity="1"/>
<defs>
  <clipPath id="clip322">
    <rect x="545" y="219" width="1730" height="1023"/>
  </clipPath>
</defs>
<polyline clip-path="url(#clip322)" style="stroke:#000000; stroke-linecap:round; stroke-linejoin:round; stroke-width:2; stroke-opacity:0.1; fill:none" points="566.517,1241.31 566.517,219.492 "/>
<polyline clip-path="url(#clip322)" style="stroke:#000000; stroke-linecap:round; stroke-linejoin:round; stroke-width:2; stroke-opacity:0.1; fill:none" points="842.946,1241.31 842.946,219.492 "/>
<polyline clip-path="url(#clip322)" style="stroke:#000000; stroke-linecap:round; stroke-linejoin:round; stroke-width:2; stroke-opacity:0.1; fill:none" points="1119.37,1241.31 1119.37,219.492 "/>
<polyline clip-path="url(#clip322)" style="stroke:#000000; stroke-linecap:round; stroke-linejoin:round; stroke-width:2; stroke-opacity:0.1; fill:none" points="1395.8,1241.31 1395.8,219.492 "/>
<polyline clip-path="url(#clip322)" style="stroke:#000000; stroke-linecap:round; stroke-linejoin:round; stroke-width:2; stroke-opacity:0.1; fill:none" points="1672.23,1241.31 1672.23,219.492 "/>
<polyline clip-path="url(#clip322)" style="stroke:#000000; stroke-linecap:round; stroke-linejoin:round; stroke-width:2; stroke-opacity:0.1; fill:none" points="1948.66,1241.31 1948.66,219.492 "/>
<polyline clip-path="url(#clip322)" style="stroke:#000000; stroke-linecap:round; stroke-linejoin:round; stroke-width:2; stroke-opacity:0.1; fill:none" points="2225.09,1241.31 2225.09,219.492 "/>
<polyline clip-path="url(#clip322)" style="stroke:#000000; stroke-linecap:round; stroke-linejoin:round; stroke-width:2; stroke-opacity:0.1; fill:none" points="545.232,1166.76 2274.02,1166.76 "/>
<polyline clip-path="url(#clip322)" style="stroke:#000000; stroke-linecap:round; stroke-linejoin:round; stroke-width:2; stroke-opacity:0.1; fill:none" points="545.232,1029 2274.02,1029 "/>
<polyline clip-path="url(#clip322)" style="stroke:#000000; stroke-linecap:round; stroke-linejoin:round; stroke-width:2; stroke-opacity:0.1; fill:none" points="545.232,891.232 2274.02,891.232 "/>
<polyline clip-path="url(#clip322)" style="stroke:#000000; stroke-linecap:round; stroke-linejoin:round; stroke-width:2; stroke-opacity:0.1; fill:none" points="545.232,753.468 2274.02,753.468 "/>
<polyline clip-path="url(#clip322)" style="stroke:#000000; stroke-linecap:round; stroke-linejoin:round; stroke-width:2; stroke-opacity:0.1; fill:none" points="545.232,615.704 2274.02,615.704 "/>
<polyline clip-path="url(#clip322)" style="stroke:#000000; stroke-linecap:round; stroke-linejoin:round; stroke-width:2; stroke-opacity:0.1; fill:none" points="545.232,477.94 2274.02,477.94 "/>
<polyline clip-path="url(#clip322)" style="stroke:#000000; stroke-linecap:round; stroke-linejoin:round; stroke-width:2; stroke-opacity:0.1; fill:none" points="545.232,340.176 2274.02,340.176 "/>
<polyline clip-path="url(#clip320)" style="stroke:#000000; stroke-linecap:round; stroke-linejoin:round; stroke-width:4; stroke-opacity:1; fill:none" points="545.232,1241.31 2274.02,1241.31 "/>
<polyline clip-path="url(#clip320)" style="stroke:#000000; stroke-linecap:round; stroke-linejoin:round; stroke-width:4; stroke-opacity:1; fill:none" points="566.517,1241.31 566.517,1222.41 "/>
<polyline clip-path="url(#clip320)" style="stroke:#000000; stroke-linecap:round; stroke-linejoin:round; stroke-width:4; stroke-opacity:1; fill:none" points="842.946,1241.31 842.946,1222.41 "/>
<polyline clip-path="url(#clip320)" style="stroke:#000000; stroke-linecap:round; stroke-linejoin:round; stroke-width:4; stroke-opacity:1; fill:none" points="1119.37,1241.31 1119.37,1222.41 "/>
<polyline clip-path="url(#clip320)" style="stroke:#000000; stroke-linecap:round; stroke-linejoin:round; stroke-width:4; stroke-opacity:1; fill:none" points="1395.8,1241.31 1395.8,1222.41 "/>
<polyline clip-path="url(#clip320)" style="stroke:#000000; stroke-linecap:round; stroke-linejoin:round; stroke-width:4; stroke-opacity:1; fill:none" points="1672.23,1241.31 1672.23,1222.41 "/>
<polyline clip-path="url(#clip320)" style="stroke:#000000; stroke-linecap:round; stroke-linejoin:round; stroke-width:4; stroke-opacity:1; fill:none" points="1948.66,1241.31 1948.66,1222.41 "/>
<polyline clip-path="url(#clip320)" style="stroke:#000000; stroke-linecap:round; stroke-linejoin:round; stroke-width:4; stroke-opacity:1; fill:none" points="2225.09,1241.31 2225.09,1222.41 "/>
<path clip-path="url(#clip320)" d="M566.517 1275.16 Q562.004 1275.16 559.718 1279.62 Q557.461 1284.04 557.461 1292.95 Q557.461 1301.84 559.718 1306.29 Q562.004 1310.72 566.517 1310.72 Q571.06 1310.72 573.317 1306.29 Q575.603 1301.84 575.603 1292.95 Q575.603 1284.04 573.317 1279.62 Q571.06 1275.16 566.517 1275.16 M566.517 1270.53 Q573.78 1270.53 577.599 1276.29 Q581.448 1282.02 581.448 1292.95 Q581.448 1303.86 577.599 1309.62 Q573.78 1315.35 566.517 1315.35 Q559.255 1315.35 555.406 1309.62 Q551.587 1303.86 551.587 1292.95 Q551.587 1282.02 555.406 1276.29 Q559.255 1270.53 566.517 1270.53 Z" fill="#000000" fill-rule="nonzero" fill-opacity="1" /><path clip-path="url(#clip320)" d="M811.305 1309.59 L820.854 1309.59 L820.854 1276.64 L810.466 1278.72 L810.466 1273.39 L820.796 1271.31 L826.641 1271.31 L826.641 1309.59 L836.189 1309.59 L836.189 1314.51 L811.305 1314.51 L811.305 1309.59 Z" fill="#000000" fill-rule="nonzero" fill-opacity="1" /><path clip-path="url(#clip320)" d="M860.495 1275.16 Q855.981 1275.16 853.695 1279.62 Q851.438 1284.04 851.438 1292.95 Q851.438 1301.84 853.695 1306.29 Q855.981 1310.72 860.495 1310.72 Q865.038 1310.72 867.295 1306.29 Q869.58 1301.84 869.58 1292.95 Q869.58 1284.04 867.295 1279.62 Q865.038 1275.16 860.495 1275.16 M860.495 1270.53 Q867.758 1270.53 871.577 1276.29 Q875.425 1282.02 875.425 1292.95 Q875.425 1303.86 871.577 1309.62 Q867.758 1315.35 860.495 1315.35 Q853.232 1315.35 849.384 1309.62 Q845.564 1303.86 845.564 1292.95 Q845.564 1282.02 849.384 1276.29 Q853.232 1270.53 860.495 1270.53 Z" fill="#000000" fill-rule="nonzero" fill-opacity="1" /><path clip-path="url(#clip320)" d="M1092.84 1309.59 L1113.24 1309.59 L1113.24 1314.51 L1085.81 1314.51 L1085.81 1309.59 Q1089.14 1306.15 1094.87 1300.36 Q1100.62 1294.55 1102.1 1292.87 Q1104.91 1289.71 1106.01 1287.54 Q1107.13 1285.34 1107.13 1283.23 Q1107.13 1279.79 1104.7 1277.62 Q1102.3 1275.45 1098.43 1275.45 Q1095.68 1275.45 1092.61 1276.4 Q1089.57 1277.36 1086.1 1279.3 L1086.1 1273.39 Q1089.63 1271.98 1092.7 1271.25 Q1095.76 1270.53 1098.31 1270.53 Q1105.02 1270.53 1109.02 1273.89 Q1113.01 1277.24 1113.01 1282.86 Q1113.01 1285.52 1112 1287.92 Q1111.01 1290.29 1108.38 1293.53 Q1107.66 1294.37 1103.78 1298.39 Q1099.9 1302.39 1092.84 1309.59 Z" fill="#000000" fill-rule="nonzero" fill-opacity="1" /><path clip-path="url(#clip320)" d="M1138.01 1275.16 Q1133.49 1275.16 1131.21 1279.62 Q1128.95 1284.04 1128.95 1292.95 Q1128.95 1301.84 1131.21 1306.29 Q1133.49 1310.72 1138.01 1310.72 Q1142.55 1310.72 1144.81 1306.29 Q1147.09 1301.84 1147.09 1292.95 Q1147.09 1284.04 1144.81 1279.62 Q1142.55 1275.16 1138.01 1275.16 M1138.01 1270.53 Q1145.27 1270.53 1149.09 1276.29 Q1152.94 1282.02 1152.94 1292.95 Q1152.94 1303.86 1149.09 1309.62 Q1145.27 1315.35 1138.01 1315.35 Q1130.75 1315.35 1126.9 1309.62 Q1123.08 1303.86 1123.08 1292.95 Q1123.08 1282.02 1126.9 1276.29 Q1130.75 1270.53 1138.01 1270.53 Z" fill="#000000" fill-rule="nonzero" fill-opacity="1" /><path clip-path="url(#clip320)" d="M1381.86 1291.22 Q1386.05 1292.12 1388.4 1294.95 Q1390.77 1297.79 1390.77 1301.95 Q1390.77 1308.35 1386.37 1311.85 Q1381.97 1315.35 1373.87 1315.35 Q1371.15 1315.35 1368.26 1314.8 Q1365.39 1314.28 1362.32 1313.21 L1362.32 1307.57 Q1364.76 1308.98 1367.65 1309.71 Q1370.54 1310.43 1373.7 1310.43 Q1379.19 1310.43 1382.06 1308.26 Q1384.95 1306.09 1384.95 1301.95 Q1384.95 1298.13 1382.26 1295.99 Q1379.6 1293.82 1374.82 1293.82 L1369.79 1293.82 L1369.79 1289.02 L1375.06 1289.02 Q1379.37 1289.02 1381.65 1287.31 Q1383.94 1285.58 1383.94 1282.34 Q1383.94 1279.01 1381.57 1277.24 Q1379.22 1275.45 1374.82 1275.45 Q1372.42 1275.45 1369.67 1275.97 Q1366.93 1276.49 1363.63 1277.59 L1363.63 1272.38 Q1366.95 1271.46 1369.85 1270.99 Q1372.77 1270.53 1375.35 1270.53 Q1382 1270.53 1385.88 1273.57 Q1389.76 1276.58 1389.76 1281.73 Q1389.76 1285.32 1387.7 1287.8 Q1385.65 1290.26 1381.86 1291.22 Z" fill="#000000" fill-rule="nonzero" fill-opacity="1" /><path clip-path="url(#clip320)" d="M1414.35 1275.16 Q1409.84 1275.16 1407.55 1279.62 Q1405.29 1284.04 1405.29 1292.95 Q1405.29 1301.84 1407.55 1306.29 Q1409.84 1310.72 1414.35 1310.72 Q1418.89 1310.72 1421.15 1306.29 Q1423.44 1301.84 1423.44 1292.95 Q1423.44 1284.04 1421.15 1279.62 Q1418.89 1275.16 1414.35 1275.16 M1414.35 1270.53 Q1421.61 1270.53 1425.43 1276.29 Q1429.28 1282.02 1429.28 1292.95 Q1429.28 1303.86 1425.43 1309.62 Q1421.61 1315.35 1414.35 1315.35 Q1407.09 1315.35 1403.24 1309.62 Q1399.42 1303.86 1399.42 1292.95 Q1399.42 1282.02 1403.24 1276.29 Q1407.09 1270.53 1414.35 1270.53 Z" fill="#000000" fill-rule="nonzero" fill-opacity="1" /><path clip-path="url(#clip320)" d="M1657.45 1276.4 L1642.69 1299.47 L1657.45 1299.47 L1657.45 1276.4 M1655.91 1271.31 L1663.26 1271.31 L1663.26 1299.47 L1669.42 1299.47 L1669.42 1304.33 L1663.26 1304.33 L1663.26 1314.51 L1657.45 1314.51 L1657.45 1304.33 L1637.94 1304.33 L1637.94 1298.68 L1655.91 1271.31 Z" fill="#000000" fill-rule="nonzero" fill-opacity="1" /><path clip-path="url(#clip320)" d="M1691.59 1275.16 Q1687.07 1275.16 1684.79 1279.62 Q1682.53 1284.04 1682.53 1292.95 Q1682.53 1301.84 1684.79 1306.29 Q1687.07 1310.72 1691.59 1310.72 Q1696.13 1310.72 1698.39 1306.29 Q1700.67 1301.84 1700.67 1292.95 Q1700.67 1284.04 1698.39 1279.62 Q1696.13 1275.16 1691.59 1275.16 M1691.59 1270.53 Q1698.85 1270.53 1702.67 1276.29 Q1706.52 1282.02 1706.52 1292.95 Q1706.52 1303.86 1702.67 1309.62 Q1698.85 1315.35 1691.59 1315.35 Q1684.33 1315.35 1680.48 1309.62 Q1676.66 1303.86 1676.66 1292.95 Q1676.66 1282.02 1680.48 1276.29 Q1684.33 1270.53 1691.59 1270.53 Z" fill="#000000" fill-rule="nonzero" fill-opacity="1" /><path clip-path="url(#clip320)" d="M1917.03 1271.31 L1939.98 1271.31 L1939.98 1276.23 L1922.39 1276.23 L1922.39 1286.82 Q1923.66 1286.39 1924.93 1286.18 Q1926.21 1285.95 1927.48 1285.95 Q1934.71 1285.95 1938.94 1289.92 Q1943.16 1293.88 1943.16 1300.65 Q1943.16 1307.62 1938.82 1311.5 Q1934.48 1315.35 1926.58 1315.35 Q1923.86 1315.35 1921.03 1314.89 Q1918.22 1314.42 1915.21 1313.5 L1915.21 1307.62 Q1917.81 1309.04 1920.59 1309.74 Q1923.37 1310.43 1926.47 1310.43 Q1931.47 1310.43 1934.39 1307.8 Q1937.32 1305.17 1937.32 1300.65 Q1937.32 1296.14 1934.39 1293.5 Q1931.47 1290.87 1926.47 1290.87 Q1924.12 1290.87 1921.78 1291.39 Q1919.46 1291.91 1917.03 1293.01 L1917.03 1271.31 Z" fill="#000000" fill-rule="nonzero" fill-opacity="1" /><path clip-path="url(#clip320)" d="M1967.18 1275.16 Q1962.66 1275.16 1960.38 1279.62 Q1958.12 1284.04 1958.12 1292.95 Q1958.12 1301.84 1960.38 1306.29 Q1962.66 1310.72 1967.18 1310.72 Q1971.72 1310.72 1973.98 1306.29 Q1976.26 1301.84 1976.26 1292.95 Q1976.26 1284.04 1973.98 1279.62 Q1971.72 1275.16 1967.18 1275.16 M1967.18 1270.53 Q1974.44 1270.53 1978.26 1276.29 Q1982.11 1282.02 1982.11 1292.95 Q1982.11 1303.86 1978.26 1309.62 Q1974.44 1315.35 1967.18 1315.35 Q1959.92 1315.35 1956.07 1309.62 Q1952.25 1303.86 1952.25 1292.95 Q1952.25 1282.02 1956.07 1276.29 Q1959.92 1270.53 1967.18 1270.53 Z" fill="#000000" fill-rule="nonzero" fill-opacity="1" /><path clip-path="url(#clip320)" d="M2206.84 1290.58 Q2202.91 1290.58 2200.59 1293.27 Q2198.31 1295.96 2198.31 1300.65 Q2198.31 1305.31 2200.59 1308.03 Q2202.91 1310.72 2206.84 1310.72 Q2210.78 1310.72 2213.07 1308.03 Q2215.38 1305.31 2215.38 1300.65 Q2215.38 1295.96 2213.07 1293.27 Q2210.78 1290.58 2206.84 1290.58 M2218.45 1272.27 L2218.45 1277.59 Q2216.25 1276.55 2213.99 1276 Q2211.76 1275.45 2209.56 1275.45 Q2203.78 1275.45 2200.71 1279.36 Q2197.67 1283.26 2197.24 1291.16 Q2198.95 1288.64 2201.52 1287.31 Q2204.1 1285.95 2207.19 1285.95 Q2213.7 1285.95 2217.46 1289.92 Q2221.25 1293.85 2221.25 1300.65 Q2221.25 1307.31 2217.32 1311.33 Q2213.38 1315.35 2206.84 1315.35 Q2199.35 1315.35 2195.39 1309.62 Q2191.42 1303.86 2191.42 1292.95 Q2191.42 1282.71 2196.28 1276.64 Q2201.14 1270.53 2209.33 1270.53 Q2211.53 1270.53 2213.76 1270.96 Q2216.02 1271.4 2218.45 1272.27 Z" fill="#000000" fill-rule="nonzero" fill-opacity="1" /><path clip-path="url(#clip320)" d="M2243.82 1275.16 Q2239.31 1275.16 2237.02 1279.62 Q2234.77 1284.04 2234.77 1292.95 Q2234.77 1301.84 2237.02 1306.29 Q2239.31 1310.72 2243.82 1310.72 Q2248.37 1310.72 2250.62 1306.29 Q2252.91 1301.84 2252.91 1292.95 Q2252.91 1284.04 2250.62 1279.62 Q2248.37 1275.16 2243.82 1275.16 M2243.82 1270.53 Q2251.09 1270.53 2254.91 1276.29 Q2258.75 1282.02 2258.75 1292.95 Q2258.75 1303.86 2254.91 1309.62 Q2251.09 1315.35 2243.82 1315.35 Q2236.56 1315.35 2232.71 1309.62 Q2228.89 1303.86 2228.89 1292.95 Q2228.89 1282.02 2232.71 1276.29 Q2236.56 1270.53 2243.82 1270.53 Z" fill="#000000" fill-rule="nonzero" fill-opacity="1" /><path clip-path="url(#clip320)" d="M1218.83 1351.62 L1248.87 1351.62 L1248.87 1357.03 L1225.26 1357.03 L1225.26 1371.09 L1247.89 1371.09 L1247.89 1376.51 L1225.26 1376.51 L1225.26 1393.72 L1249.45 1393.72 L1249.45 1399.14 L1218.83 1399.14 L1218.83 1351.62 Z" fill="#000000" fill-rule="nonzero" fill-opacity="1" /><path clip-path="url(#clip320)" d="M1260.01 1351.62 L1269.59 1351.62 L1281.72 1383.95 L1293.91 1351.62 L1303.49 1351.62 L1303.49 1399.14 L1297.22 1399.14 L1297.22 1357.41 L1284.97 1390 L1278.51 1390 L1266.25 1357.41 L1266.25 1399.14 L1260.01 1399.14 L1260.01 1351.62 Z" fill="#000000" fill-rule="nonzero" fill-opacity="1" /><path clip-path="url(#clip320)" d="M1336.72 1363.49 L1342.58 1363.49 L1342.58 1399.14 L1336.72 1399.14 L1336.72 1363.49 M1336.72 1349.61 L1342.58 1349.61 L1342.58 1357.03 L1336.72 1357.03 L1336.72 1349.61 Z" fill="#000000" fill-rule="nonzero" fill-opacity="1" /><path clip-path="url(#clip320)" d="M1360.62 1353.37 L1360.62 1363.49 L1372.69 1363.49 L1372.69 1368.04 L1360.62 1368.04 L1360.62 1387.39 Q1360.62 1391.75 1361.8 1392.99 Q1363.01 1394.23 1366.67 1394.23 L1372.69 1394.23 L1372.69 1399.14 L1366.67 1399.14 Q1359.89 1399.14 1357.31 1396.62 Q1354.74 1394.07 1354.74 1387.39 L1354.74 1368.04 L1350.44 1368.04 L1350.44 1363.49 L1354.74 1363.49 L1354.74 1353.37 L1360.62 1353.37 Z" fill="#000000" fill-rule="nonzero" fill-opacity="1" /><path clip-path="url(#clip320)" d="M1410.88 1379.85 L1410.88 1382.71 L1383.95 1382.71 Q1384.34 1388.76 1387.58 1391.94 Q1390.86 1395.09 1396.69 1395.09 Q1400.06 1395.09 1403.21 1394.27 Q1406.39 1393.44 1409.51 1391.78 L1409.51 1397.32 Q1406.36 1398.66 1403.05 1399.36 Q1399.74 1400.06 1396.34 1400.06 Q1387.81 1400.06 1382.81 1395.09 Q1377.84 1390.13 1377.84 1381.66 Q1377.84 1372.91 1382.55 1367.78 Q1387.3 1362.63 1395.32 1362.63 Q1402.51 1362.63 1406.68 1367.28 Q1410.88 1371.89 1410.88 1379.85 M1405.02 1378.13 Q1404.96 1373.32 1402.32 1370.46 Q1399.71 1367.59 1395.38 1367.59 Q1390.48 1367.59 1387.52 1370.36 Q1384.59 1373.13 1384.15 1378.16 L1405.02 1378.13 Z" fill="#000000" fill-rule="nonzero" fill-opacity="1" /><path clip-path="url(#clip320)" d="M1441.15 1368.96 Q1440.16 1368.39 1438.99 1368.13 Q1437.84 1367.85 1436.44 1367.85 Q1431.47 1367.85 1428.8 1371.09 Q1426.16 1374.31 1426.16 1380.36 L1426.16 1399.14 L1420.27 1399.14 L1420.27 1363.49 L1426.16 1363.49 L1426.16 1369.03 Q1428.01 1365.78 1430.97 1364.22 Q1433.93 1362.63 1438.16 1362.63 Q1438.76 1362.63 1439.5 1362.72 Q1440.23 1362.79 1441.12 1362.95 L1441.15 1368.96 Z" fill="#000000" fill-rule="nonzero" fill-opacity="1" /><path clip-path="url(#clip320)" d="M1463.49 1381.22 Q1456.4 1381.22 1453.66 1382.84 Q1450.92 1384.46 1450.92 1388.38 Q1450.92 1391.5 1452.96 1393.34 Q1455.03 1395.16 1458.56 1395.16 Q1463.43 1395.16 1466.36 1391.72 Q1469.32 1388.25 1469.32 1382.52 L1469.32 1381.22 L1463.49 1381.22 M1475.17 1378.8 L1475.17 1399.14 L1469.32 1399.14 L1469.32 1393.72 Q1467.31 1396.97 1464.32 1398.53 Q1461.33 1400.06 1457 1400.06 Q1451.53 1400.06 1448.28 1397 Q1445.07 1393.92 1445.07 1388.76 Q1445.07 1382.74 1449.08 1379.69 Q1453.12 1376.63 1461.11 1376.63 L1469.32 1376.63 L1469.32 1376.06 Q1469.32 1372.02 1466.64 1369.82 Q1464 1367.59 1459.2 1367.59 Q1456.14 1367.59 1453.25 1368.33 Q1450.35 1369.06 1447.68 1370.52 L1447.68 1365.11 Q1450.89 1363.87 1453.91 1363.26 Q1456.94 1362.63 1459.8 1362.63 Q1467.54 1362.63 1471.36 1366.64 Q1475.17 1370.65 1475.17 1378.8 Z" fill="#000000" fill-rule="nonzero" fill-opacity="1" /><path clip-path="url(#clip320)" d="M1493.03 1353.37 L1493.03 1363.49 L1505.09 1363.49 L1505.09 1368.04 L1493.03 1368.04 L1493.03 1387.39 Q1493.03 1391.75 1494.21 1392.99 Q1495.42 1394.23 1499.08 1394.23 L1505.09 1394.23 L1505.09 1399.14 L1499.08 1399.14 Q1492.3 1399.14 1489.72 1396.62 Q1487.14 1394.07 1487.14 1387.39 L1487.14 1368.04 L1482.85 1368.04 L1482.85 1363.49 L1487.14 1363.49 L1487.14 1353.37 L1493.03 1353.37 Z" fill="#000000" fill-rule="nonzero" fill-opacity="1" /><path clip-path="url(#clip320)" d="M1512.8 1363.49 L1518.65 1363.49 L1518.65 1399.14 L1512.8 1399.14 L1512.8 1363.49 M1512.8 1349.61 L1518.65 1349.61 L1518.65 1357.03 L1512.8 1357.03 L1512.8 1349.61 Z" fill="#000000" fill-rule="nonzero" fill-opacity="1" /><path clip-path="url(#clip320)" d="M1544.72 1367.59 Q1540.01 1367.59 1537.27 1371.29 Q1534.54 1374.95 1534.54 1381.34 Q1534.54 1387.74 1537.24 1391.43 Q1539.98 1395.09 1544.72 1395.09 Q1549.4 1395.09 1552.14 1391.4 Q1554.87 1387.71 1554.87 1381.34 Q1554.87 1375.01 1552.14 1371.32 Q1549.4 1367.59 1544.72 1367.59 M1544.72 1362.63 Q1552.36 1362.63 1556.72 1367.59 Q1561.08 1372.56 1561.08 1381.34 Q1561.08 1390.1 1556.72 1395.09 Q1552.36 1400.06 1544.72 1400.06 Q1537.05 1400.06 1532.69 1395.09 Q1528.36 1390.1 1528.36 1381.34 Q1528.36 1372.56 1532.69 1367.59 Q1537.05 1362.63 1544.72 1362.63 Z" fill="#000000" fill-rule="nonzero" fill-opacity="1" /><path clip-path="url(#clip320)" d="M1600.42 1377.62 L1600.42 1399.14 L1594.56 1399.14 L1594.56 1377.81 Q1594.56 1372.75 1592.59 1370.24 Q1590.62 1367.72 1586.67 1367.72 Q1581.93 1367.72 1579.19 1370.74 Q1576.45 1373.77 1576.45 1378.99 L1576.45 1399.14 L1570.57 1399.14 L1570.57 1363.49 L1576.45 1363.49 L1576.45 1369.03 Q1578.55 1365.81 1581.39 1364.22 Q1584.25 1362.63 1587.98 1362.63 Q1594.12 1362.63 1597.27 1366.45 Q1600.42 1370.24 1600.42 1377.62 Z" fill="#000000" fill-rule="nonzero" fill-opacity="1" /><polyline clip-path="url(#clip320)" style="stroke:#000000; stroke-linecap:round; stroke-linejoin:round; stroke-width:4; stroke-opacity:1; fill:none" points="545.232,1241.31 545.232,219.492 "/>
<polyline clip-path="url(#clip320)" style="stroke:#000000; stroke-linecap:round; stroke-linejoin:round; stroke-width:4; stroke-opacity:1; fill:none" points="545.232,1166.76 564.13,1166.76 "/>
<polyline clip-path="url(#clip320)" style="stroke:#000000; stroke-linecap:round; stroke-linejoin:round; stroke-width:4; stroke-opacity:1; fill:none" points="545.232,1029 564.13,1029 "/>
<polyline clip-path="url(#clip320)" style="stroke:#000000; stroke-linecap:round; stroke-linejoin:round; stroke-width:4; stroke-opacity:1; fill:none" points="545.232,891.232 564.13,891.232 "/>
<polyline clip-path="url(#clip320)" style="stroke:#000000; stroke-linecap:round; stroke-linejoin:round; stroke-width:4; stroke-opacity:1; fill:none" points="545.232,753.468 564.13,753.468 "/>
<polyline clip-path="url(#clip320)" style="stroke:#000000; stroke-linecap:round; stroke-linejoin:round; stroke-width:4; stroke-opacity:1; fill:none" points="545.232,615.704 564.13,615.704 "/>
<polyline clip-path="url(#clip320)" style="stroke:#000000; stroke-linecap:round; stroke-linejoin:round; stroke-width:4; stroke-opacity:1; fill:none" points="545.232,477.94 564.13,477.94 "/>
<polyline clip-path="url(#clip320)" style="stroke:#000000; stroke-linecap:round; stroke-linejoin:round; stroke-width:4; stroke-opacity:1; fill:none" points="545.232,340.176 564.13,340.176 "/>
<path clip-path="url(#clip320)" d="M318.985 1167.32 L356.079 1167.32 L356.079 1172.24 L318.985 1172.24 L318.985 1167.32 Z" fill="#000000" fill-rule="nonzero" fill-opacity="1" /><path clip-path="url(#clip320)" d="M368.753 1145.16 L391.698 1145.16 L391.698 1150.08 L374.106 1150.08 L374.106 1160.67 Q375.379 1160.23 376.652 1160.03 Q377.925 1159.8 379.198 1159.8 Q386.432 1159.8 390.657 1163.76 Q394.881 1167.73 394.881 1174.5 Q394.881 1181.47 390.541 1185.35 Q386.201 1189.2 378.301 1189.2 Q375.581 1189.2 372.746 1188.74 Q369.939 1188.27 366.93 1187.35 L366.93 1181.47 Q369.534 1182.89 372.312 1183.59 Q375.09 1184.28 378.186 1184.28 Q383.191 1184.28 386.114 1181.65 Q389.036 1179.01 389.036 1174.5 Q389.036 1169.99 386.114 1167.35 Q383.191 1164.72 378.186 1164.72 Q375.842 1164.72 373.498 1165.24 Q371.183 1165.76 368.753 1166.86 L368.753 1145.16 Z" fill="#000000" fill-rule="nonzero" fill-opacity="1" /><path clip-path="url(#clip320)" d="M422.456 1150.25 L407.699 1173.31 L422.456 1173.31 L422.456 1150.25 M420.923 1145.16 L428.272 1145.16 L428.272 1173.31 L434.435 1173.31 L434.435 1178.17 L428.272 1178.17 L428.272 1188.36 L422.456 1188.36 L422.456 1178.17 L402.954 1178.17 L402.954 1172.53 L420.923 1145.16 Z" fill="#000000" fill-rule="nonzero" fill-opacity="1" /><path clip-path="url(#clip320)" d="M456.6 1149.01 Q452.086 1149.01 449.8 1153.46 Q447.543 1157.89 447.543 1166.8 Q447.543 1175.69 449.8 1180.14 Q452.086 1184.57 456.6 1184.57 Q461.142 1184.57 463.399 1180.14 Q465.685 1175.69 465.685 1166.8 Q465.685 1157.89 463.399 1153.46 Q461.142 1149.01 456.6 1149.01 M456.6 1144.38 Q463.862 1144.38 467.682 1150.14 Q471.53 1155.87 471.53 1166.8 Q471.53 1177.71 467.682 1183.47 Q463.862 1189.2 456.6 1189.2 Q449.337 1189.2 445.489 1183.47 Q441.669 1177.71 441.669 1166.8 Q441.669 1155.87 445.489 1150.14 Q449.337 1144.38 456.6 1144.38 Z" fill="#000000" fill-rule="nonzero" fill-opacity="1" /><path clip-path="url(#clip320)" d="M494.302 1149.01 Q489.788 1149.01 487.502 1153.46 Q485.245 1157.89 485.245 1166.8 Q485.245 1175.69 487.502 1180.14 Q489.788 1184.57 494.302 1184.57 Q498.845 1184.57 501.102 1180.14 Q503.388 1175.69 503.388 1166.8 Q503.388 1157.89 501.102 1153.46 Q498.845 1149.01 494.302 1149.01 M494.302 1144.38 Q501.565 1144.38 505.384 1150.14 Q509.232 1155.87 509.232 1166.8 Q509.232 1177.71 505.384 1183.47 Q501.565 1189.2 494.302 1189.2 Q487.039 1189.2 483.191 1183.47 Q479.371 1177.71 479.371 1166.8 Q479.371 1155.87 483.191 1150.14 Q487.039 1144.38 494.302 1144.38 Z" fill="#000000" fill-rule="nonzero" fill-opacity="1" /><path clip-path="url(#clip320)" d="M318.985 1029.56 L356.079 1029.56 L356.079 1034.48 L318.985 1034.48 L318.985 1029.56 Z" fill="#000000" fill-rule="nonzero" fill-opacity="1" /><path clip-path="url(#clip320)" d="M368.753 1007.4 L391.698 1007.4 L391.698 1012.31 L374.106 1012.31 L374.106 1022.9 Q375.379 1022.47 376.652 1022.27 Q377.925 1022.04 379.198 1022.04 Q386.432 1022.04 390.657 1026 Q394.881 1029.96 394.881 1036.74 Q394.881 1043.71 390.541 1047.59 Q386.201 1051.43 378.301 1051.43 Q375.581 1051.43 372.746 1050.97 Q369.939 1050.51 366.93 1049.58 L366.93 1043.71 Q369.534 1045.13 372.312 1045.82 Q375.09 1046.52 378.186 1046.52 Q383.191 1046.52 386.114 1043.88 Q389.036 1041.25 389.036 1036.74 Q389.036 1032.22 386.114 1029.59 Q383.191 1026.96 378.186 1026.96 Q375.842 1026.96 373.498 1027.48 Q371.183 1028 368.753 1029.1 L368.753 1007.4 Z" fill="#000000" fill-rule="nonzero" fill-opacity="1" /><path clip-path="url(#clip320)" d="M424.106 1027.3 Q428.301 1028.2 430.645 1031.04 Q433.018 1033.87 433.018 1038.04 Q433.018 1044.43 428.619 1047.93 Q424.221 1051.43 416.119 1051.43 Q413.4 1051.43 410.506 1050.88 Q407.641 1050.36 404.574 1049.29 L404.574 1043.65 Q407.005 1045.07 409.898 1045.79 Q412.792 1046.52 415.946 1046.52 Q421.444 1046.52 424.308 1044.35 Q427.202 1042.18 427.202 1038.04 Q427.202 1034.22 424.511 1032.08 Q421.849 1029.91 417.074 1029.91 L412.04 1029.91 L412.04 1025.1 L417.306 1025.1 Q421.617 1025.1 423.903 1023.4 Q426.189 1021.66 426.189 1018.42 Q426.189 1015.09 423.816 1013.33 Q421.472 1011.53 417.074 1011.53 Q414.673 1011.53 411.924 1012.05 Q409.175 1012.57 405.876 1013.67 L405.876 1008.47 Q409.204 1007.54 412.097 1007.08 Q415.02 1006.61 417.595 1006.61 Q424.25 1006.61 428.128 1009.65 Q432.005 1012.66 432.005 1017.81 Q432.005 1021.4 429.95 1023.89 Q427.896 1026.35 424.106 1027.3 Z" fill="#000000" fill-rule="nonzero" fill-opacity="1" /><path clip-path="url(#clip320)" d="M456.6 1011.24 Q452.086 1011.24 449.8 1015.7 Q447.543 1020.13 447.543 1029.04 Q447.543 1037.92 449.8 1042.38 Q452.086 1046.81 456.6 1046.81 Q461.142 1046.81 463.399 1042.38 Q465.685 1037.92 465.685 1029.04 Q465.685 1020.13 463.399 1015.7 Q461.142 1011.24 456.6 1011.24 M456.6 1006.61 Q463.862 1006.61 467.682 1012.37 Q471.53 1018.1 471.53 1029.04 Q471.53 1039.95 467.682 1045.71 Q463.862 1051.43 456.6 1051.43 Q449.337 1051.43 445.489 1045.71 Q441.669 1039.95 441.669 1029.04 Q441.669 1018.1 445.489 1012.37 Q449.337 1006.61 456.6 1006.61 Z" fill="#000000" fill-rule="nonzero" fill-opacity="1" /><path clip-path="url(#clip320)" d="M494.302 1011.24 Q489.788 1011.24 487.502 1015.7 Q485.245 1020.13 485.245 1029.04 Q485.245 1037.92 487.502 1042.38 Q489.788 1046.81 494.302 1046.81 Q498.845 1046.81 501.102 1042.38 Q503.388 1037.92 503.388 1029.04 Q503.388 1020.13 501.102 1015.7 Q498.845 1011.24 494.302 1011.24 M494.302 1006.61 Q501.565 1006.61 505.384 1012.37 Q509.232 1018.1 509.232 1029.04 Q509.232 1039.95 505.384 1045.71 Q501.565 1051.43 494.302 1051.43 Q487.039 1051.43 483.191 1045.71 Q479.371 1039.95 479.371 1029.04 Q479.371 1018.1 483.191 1012.37 Q487.039 1006.61 494.302 1006.61 Z" fill="#000000" fill-rule="nonzero" fill-opacity="1" /><path clip-path="url(#clip320)" d="M318.985 891.796 L356.079 891.796 L356.079 896.715 L318.985 896.715 L318.985 891.796 Z" fill="#000000" fill-rule="nonzero" fill-opacity="1" /><path clip-path="url(#clip320)" d="M368.753 869.632 L391.698 869.632 L391.698 874.551 L374.106 874.551 L374.106 885.141 Q375.379 884.707 376.652 884.504 Q377.925 884.273 379.198 884.273 Q386.432 884.273 390.657 888.237 Q394.881 892.201 394.881 898.972 Q394.881 905.945 390.541 909.822 Q386.201 913.671 378.301 913.671 Q375.581 913.671 372.746 913.208 Q369.939 912.745 366.93 911.819 L366.93 905.945 Q369.534 907.363 372.312 908.057 Q375.09 908.752 378.186 908.752 Q383.191 908.752 386.114 906.119 Q389.036 903.486 389.036 898.972 Q389.036 894.458 386.114 891.825 Q383.191 889.192 378.186 889.192 Q375.842 889.192 373.498 889.712 Q371.183 890.233 368.753 891.333 L368.753 869.632 Z" fill="#000000" fill-rule="nonzero" fill-opacity="1" /><path clip-path="url(#clip320)" d="M411.432 907.913 L431.831 907.913 L431.831 912.832 L404.401 912.832 L404.401 907.913 Q407.728 904.469 413.457 898.682 Q419.216 892.866 420.691 891.188 Q423.498 888.034 424.597 885.864 Q425.726 883.665 425.726 881.553 Q425.726 878.11 423.295 875.939 Q420.894 873.769 417.016 873.769 Q414.268 873.769 411.201 874.724 Q408.162 875.679 404.69 877.618 L404.69 871.715 Q408.22 870.297 411.287 869.574 Q414.354 868.85 416.901 868.85 Q423.614 868.85 427.607 872.207 Q431.6 875.563 431.6 881.177 Q431.6 883.839 430.587 886.24 Q429.603 888.613 426.97 891.854 Q426.247 892.693 422.369 896.715 Q418.492 900.708 411.432 907.913 Z" fill="#000000" fill-rule="nonzero" fill-opacity="1" /><path clip-path="url(#clip320)" d="M456.6 873.48 Q452.086 873.48 449.8 877.936 Q447.543 882.363 447.543 891.275 Q447.543 900.158 449.8 904.614 Q452.086 909.041 456.6 909.041 Q461.142 909.041 463.399 904.614 Q465.685 900.158 465.685 891.275 Q465.685 882.363 463.399 877.936 Q461.142 873.48 456.6 873.48 M456.6 868.85 Q463.862 868.85 467.682 874.608 Q471.53 880.338 471.53 891.275 Q471.53 902.183 467.682 907.942 Q463.862 913.671 456.6 913.671 Q449.337 913.671 445.489 907.942 Q441.669 902.183 441.669 891.275 Q441.669 880.338 445.489 874.608 Q449.337 868.85 456.6 868.85 Z" fill="#000000" fill-rule="nonzero" fill-opacity="1" /><path clip-path="url(#clip320)" d="M494.302 873.48 Q489.788 873.48 487.502 877.936 Q485.245 882.363 485.245 891.275 Q485.245 900.158 487.502 904.614 Q489.788 909.041 494.302 909.041 Q498.845 909.041 501.102 904.614 Q503.388 900.158 503.388 891.275 Q503.388 882.363 501.102 877.936 Q498.845 873.48 494.302 873.48 M494.302 868.85 Q501.565 868.85 505.384 874.608 Q509.232 880.338 509.232 891.275 Q509.232 902.183 505.384 907.942 Q501.565 913.671 494.302 913.671 Q487.039 913.671 483.191 907.942 Q479.371 902.183 479.371 891.275 Q479.371 880.338 483.191 874.608 Q487.039 868.85 494.302 868.85 Z" fill="#000000" fill-rule="nonzero" fill-opacity="1" /><path clip-path="url(#clip320)" d="M318.985 754.032 L356.079 754.032 L356.079 758.951 L318.985 758.951 L318.985 754.032 Z" fill="#000000" fill-rule="nonzero" fill-opacity="1" /><path clip-path="url(#clip320)" d="M368.753 731.868 L391.698 731.868 L391.698 736.787 L374.106 736.787 L374.106 747.377 Q375.379 746.943 376.652 746.74 Q377.925 746.509 379.198 746.509 Q386.432 746.509 390.657 750.473 Q394.881 754.437 394.881 761.208 Q394.881 768.181 390.541 772.058 Q386.201 775.907 378.301 775.907 Q375.581 775.907 372.746 775.444 Q369.939 774.981 366.93 774.055 L366.93 768.181 Q369.534 769.599 372.312 770.293 Q375.09 770.988 378.186 770.988 Q383.191 770.988 386.114 768.355 Q389.036 765.722 389.036 761.208 Q389.036 756.694 386.114 754.061 Q383.191 751.428 378.186 751.428 Q375.842 751.428 373.498 751.949 Q371.183 752.469 368.753 753.569 L368.753 731.868 Z" fill="#000000" fill-rule="nonzero" fill-opacity="1" /><path clip-path="url(#clip320)" d="M407.41 770.149 L416.959 770.149 L416.959 737.192 L406.571 739.275 L406.571 733.951 L416.901 731.868 L422.746 731.868 L422.746 770.149 L432.294 770.149 L432.294 775.068 L407.41 775.068 L407.41 770.149 Z" fill="#000000" fill-rule="nonzero" fill-opacity="1" /><path clip-path="url(#clip320)" d="M456.6 735.716 Q452.086 735.716 449.8 740.172 Q447.543 744.599 447.543 753.511 Q447.543 762.394 449.8 766.85 Q452.086 771.277 456.6 771.277 Q461.142 771.277 463.399 766.85 Q465.685 762.394 465.685 753.511 Q465.685 744.599 463.399 740.172 Q461.142 735.716 456.6 735.716 M456.6 731.086 Q463.862 731.086 467.682 736.844 Q471.53 742.574 471.53 753.511 Q471.53 764.42 467.682 770.178 Q463.862 775.907 456.6 775.907 Q449.337 775.907 445.489 770.178 Q441.669 764.42 441.669 753.511 Q441.669 742.574 445.489 736.844 Q449.337 731.086 456.6 731.086 Z" fill="#000000" fill-rule="nonzero" fill-opacity="1" /><path clip-path="url(#clip320)" d="M494.302 735.716 Q489.788 735.716 487.502 740.172 Q485.245 744.599 485.245 753.511 Q485.245 762.394 487.502 766.85 Q489.788 771.277 494.302 771.277 Q498.845 771.277 501.102 766.85 Q503.388 762.394 503.388 753.511 Q503.388 744.599 501.102 740.172 Q498.845 735.716 494.302 735.716 M494.302 731.086 Q501.565 731.086 505.384 736.844 Q509.232 742.574 509.232 753.511 Q509.232 764.42 505.384 770.178 Q501.565 775.907 494.302 775.907 Q487.039 775.907 483.191 770.178 Q479.371 764.42 479.371 753.511 Q479.371 742.574 483.191 736.844 Q487.039 731.086 494.302 731.086 Z" fill="#000000" fill-rule="nonzero" fill-opacity="1" /><path clip-path="url(#clip320)" d="M318.985 616.268 L356.079 616.268 L356.079 621.187 L318.985 621.187 L318.985 616.268 Z" fill="#000000" fill-rule="nonzero" fill-opacity="1" /><path clip-path="url(#clip320)" d="M368.753 594.104 L391.698 594.104 L391.698 599.023 L374.106 599.023 L374.106 609.613 Q375.379 609.179 376.652 608.976 Q377.925 608.745 379.198 608.745 Q386.432 608.745 390.657 612.709 Q394.881 616.673 394.881 623.444 Q394.881 630.417 390.541 634.294 Q386.201 638.143 378.301 638.143 Q375.581 638.143 372.746 637.68 Q369.939 637.217 366.93 636.291 L366.93 630.417 Q369.534 631.835 372.312 632.529 Q375.09 633.224 378.186 633.224 Q383.191 633.224 386.114 630.591 Q389.036 627.958 389.036 623.444 Q389.036 618.93 386.114 616.297 Q383.191 613.664 378.186 613.664 Q375.842 613.664 373.498 614.185 Q371.183 614.705 368.753 615.805 L368.753 594.104 Z" fill="#000000" fill-rule="nonzero" fill-opacity="1" /><path clip-path="url(#clip320)" d="M418.897 597.952 Q414.383 597.952 412.097 602.408 Q409.841 606.835 409.841 615.747 Q409.841 624.63 412.097 629.086 Q414.383 633.513 418.897 633.513 Q423.44 633.513 425.697 629.086 Q427.983 624.63 427.983 615.747 Q427.983 606.835 425.697 602.408 Q423.44 597.952 418.897 597.952 M418.897 593.322 Q426.16 593.322 429.979 599.081 Q433.828 604.81 433.828 615.747 Q433.828 626.656 429.979 632.414 Q426.16 638.143 418.897 638.143 Q411.635 638.143 407.786 632.414 Q403.967 626.656 403.967 615.747 Q403.967 604.81 407.786 599.081 Q411.635 593.322 418.897 593.322 Z" fill="#000000" fill-rule="nonzero" fill-opacity="1" /><path clip-path="url(#clip320)" d="M456.6 597.952 Q452.086 597.952 449.8 602.408 Q447.543 606.835 447.543 615.747 Q447.543 624.63 449.8 629.086 Q452.086 633.513 456.6 633.513 Q461.142 633.513 463.399 629.086 Q465.685 624.63 465.685 615.747 Q465.685 606.835 463.399 602.408 Q461.142 597.952 456.6 597.952 M456.6 593.322 Q463.862 593.322 467.682 599.081 Q471.53 604.81 471.53 615.747 Q471.53 626.656 467.682 632.414 Q463.862 638.143 456.6 638.143 Q449.337 638.143 445.489 632.414 Q441.669 626.656 441.669 615.747 Q441.669 604.81 445.489 599.081 Q449.337 593.322 456.6 593.322 Z" fill="#000000" fill-rule="nonzero" fill-opacity="1" /><path clip-path="url(#clip320)" d="M494.302 597.952 Q489.788 597.952 487.502 602.408 Q485.245 606.835 485.245 615.747 Q485.245 624.63 487.502 629.086 Q489.788 633.513 494.302 633.513 Q498.845 633.513 501.102 629.086 Q503.388 624.63 503.388 615.747 Q503.388 606.835 501.102 602.408 Q498.845 597.952 494.302 597.952 M494.302 593.322 Q501.565 593.322 505.384 599.081 Q509.232 604.81 509.232 615.747 Q509.232 626.656 505.384 632.414 Q501.565 638.143 494.302 638.143 Q487.039 638.143 483.191 632.414 Q479.371 626.656 479.371 615.747 Q479.371 604.81 483.191 599.081 Q487.039 593.322 494.302 593.322 Z" fill="#000000" fill-rule="nonzero" fill-opacity="1" /><path clip-path="url(#clip320)" d="M318.985 478.504 L356.079 478.504 L356.079 483.423 L318.985 483.423 L318.985 478.504 Z" fill="#000000" fill-rule="nonzero" fill-opacity="1" /><path clip-path="url(#clip320)" d="M384.754 461.432 L369.997 484.494 L384.754 484.494 L384.754 461.432 M383.22 456.34 L390.57 456.34 L390.57 484.494 L396.733 484.494 L396.733 489.355 L390.57 489.355 L390.57 499.54 L384.754 499.54 L384.754 489.355 L365.252 489.355 L365.252 483.712 L383.22 456.34 Z" fill="#000000" fill-rule="nonzero" fill-opacity="1" /><path clip-path="url(#clip320)" d="M406.571 498.643 L406.571 493.319 Q408.77 494.36 411.027 494.91 Q413.284 495.46 415.454 495.46 Q421.241 495.46 424.279 491.583 Q427.346 487.676 427.78 479.748 Q426.102 482.237 423.527 483.568 Q420.952 484.899 417.827 484.899 Q411.345 484.899 407.555 480.992 Q403.793 477.057 403.793 470.257 Q403.793 463.602 407.728 459.58 Q411.663 455.558 418.203 455.558 Q425.697 455.558 429.632 461.317 Q433.596 467.046 433.596 477.983 Q433.596 488.197 428.735 494.302 Q423.903 500.379 415.714 500.379 Q413.515 500.379 411.258 499.945 Q409.001 499.511 406.571 498.643 M418.203 480.327 Q422.138 480.327 424.424 477.636 Q426.739 474.945 426.739 470.257 Q426.739 465.599 424.424 462.908 Q422.138 460.188 418.203 460.188 Q414.268 460.188 411.953 462.908 Q409.667 465.599 409.667 470.257 Q409.667 474.945 411.953 477.636 Q414.268 480.327 418.203 480.327 Z" fill="#000000" fill-rule="nonzero" fill-opacity="1" /><path clip-path="url(#clip320)" d="M456.6 460.188 Q452.086 460.188 449.8 464.644 Q447.543 469.071 447.543 477.983 Q447.543 486.866 449.8 491.322 Q452.086 495.749 456.6 495.749 Q461.142 495.749 463.399 491.322 Q465.685 486.866 465.685 477.983 Q465.685 469.071 463.399 464.644 Q461.142 460.188 456.6 460.188 M456.6 455.558 Q463.862 455.558 467.682 461.317 Q471.53 467.046 471.53 477.983 Q471.53 488.892 467.682 494.65 Q463.862 500.379 456.6 500.379 Q449.337 500.379 445.489 494.65 Q441.669 488.892 441.669 477.983 Q441.669 467.046 445.489 461.317 Q449.337 455.558 456.6 455.558 Z" fill="#000000" fill-rule="nonzero" fill-opacity="1" /><path clip-path="url(#clip320)" d="M494.302 460.188 Q489.788 460.188 487.502 464.644 Q485.245 469.071 485.245 477.983 Q485.245 486.866 487.502 491.322 Q489.788 495.749 494.302 495.749 Q498.845 495.749 501.102 491.322 Q503.388 486.866 503.388 477.983 Q503.388 469.071 501.102 464.644 Q498.845 460.188 494.302 460.188 M494.302 455.558 Q501.565 455.558 505.384 461.317 Q509.232 467.046 509.232 477.983 Q509.232 488.892 505.384 494.65 Q501.565 500.379 494.302 500.379 Q487.039 500.379 483.191 494.65 Q479.371 488.892 479.371 477.983 Q479.371 467.046 483.191 461.317 Q487.039 455.558 494.302 455.558 Z" fill="#000000" fill-rule="nonzero" fill-opacity="1" /><path clip-path="url(#clip320)" d="M318.985 340.74 L356.079 340.74 L356.079 345.659 L318.985 345.659 L318.985 340.74 Z" fill="#000000" fill-rule="nonzero" fill-opacity="1" /><path clip-path="url(#clip320)" d="M384.754 323.668 L369.997 346.73 L384.754 346.73 L384.754 323.668 M383.22 318.576 L390.57 318.576 L390.57 346.73 L396.733 346.73 L396.733 351.591 L390.57 351.591 L390.57 361.776 L384.754 361.776 L384.754 351.591 L365.252 351.591 L365.252 345.948 L383.22 318.576 Z" fill="#000000" fill-rule="nonzero" fill-opacity="1" /><path clip-path="url(#clip320)" d="M418.897 341.261 Q414.731 341.261 412.329 343.489 Q409.956 345.717 409.956 349.623 Q409.956 353.529 412.329 355.757 Q414.731 357.985 418.897 357.985 Q423.064 357.985 425.465 355.757 Q427.867 353.5 427.867 349.623 Q427.867 345.717 425.465 343.489 Q423.093 341.261 418.897 341.261 M413.052 338.772 Q409.291 337.847 407.179 335.271 Q405.095 332.696 405.095 328.992 Q405.095 323.813 408.77 320.804 Q412.474 317.795 418.897 317.795 Q425.35 317.795 429.024 320.804 Q432.699 323.813 432.699 328.992 Q432.699 332.696 430.587 335.271 Q428.504 337.847 424.771 338.772 Q428.996 339.756 431.339 342.621 Q433.712 345.485 433.712 349.623 Q433.712 355.902 429.864 359.258 Q426.044 362.615 418.897 362.615 Q411.75 362.615 407.902 359.258 Q404.082 355.902 404.082 349.623 Q404.082 345.485 406.455 342.621 Q408.828 339.756 413.052 338.772 M410.911 329.542 Q410.911 332.899 412.994 334.779 Q415.107 336.66 418.897 336.66 Q422.659 336.66 424.771 334.779 Q426.912 332.899 426.912 329.542 Q426.912 326.186 424.771 324.305 Q422.659 322.424 418.897 322.424 Q415.107 322.424 412.994 324.305 Q410.911 326.186 410.911 329.542 Z" fill="#000000" fill-rule="nonzero" fill-opacity="1" /><path clip-path="url(#clip320)" d="M456.6 322.424 Q452.086 322.424 449.8 326.88 Q447.543 331.307 447.543 340.219 Q447.543 349.102 449.8 353.558 Q452.086 357.985 456.6 357.985 Q461.142 357.985 463.399 353.558 Q465.685 349.102 465.685 340.219 Q465.685 331.307 463.399 326.88 Q461.142 322.424 456.6 322.424 M456.6 317.795 Q463.862 317.795 467.682 323.553 Q471.53 329.282 471.53 340.219 Q471.53 351.128 467.682 356.886 Q463.862 362.615 456.6 362.615 Q449.337 362.615 445.489 356.886 Q441.669 351.128 441.669 340.219 Q441.669 329.282 445.489 323.553 Q449.337 317.795 456.6 317.795 Z" fill="#000000" fill-rule="nonzero" fill-opacity="1" /><path clip-path="url(#clip320)" d="M494.302 322.424 Q489.788 322.424 487.502 326.88 Q485.245 331.307 485.245 340.219 Q485.245 349.102 487.502 353.558 Q489.788 357.985 494.302 357.985 Q498.845 357.985 501.102 353.558 Q503.388 349.102 503.388 340.219 Q503.388 331.307 501.102 326.88 Q498.845 322.424 494.302 322.424 M494.302 317.795 Q501.565 317.795 505.384 323.553 Q509.232 329.282 509.232 340.219 Q509.232 351.128 505.384 356.886 Q501.565 362.615 494.302 362.615 Q487.039 362.615 483.191 356.886 Q479.371 351.128 479.371 340.219 Q479.371 329.282 483.191 323.553 Q487.039 317.795 494.302 317.795 Z" fill="#000000" fill-rule="nonzero" fill-opacity="1" /><path clip-path="url(#clip320)" d="M226.492 1022.65 L263.445 1022.65 L263.445 1014.89 Q263.445 1005.05 258.989 1000.5 Q254.533 995.916 244.921 995.916 Q235.372 995.916 230.948 1000.5 Q226.492 1005.05 226.492 1014.89 L226.492 1022.65 M221.209 1029.08 L221.209 1015.87 Q221.209 1002.06 226.97 995.597 Q232.699 989.136 244.921 989.136 Q257.207 989.136 262.968 995.629 Q268.729 1002.12 268.729 1015.87 L268.729 1029.08 L221.209 1029.08 Z" fill="#000000" fill-rule="nonzero" fill-opacity="1" /><path clip-path="url(#clip320)" d="M250.809 962.941 Q250.809 970.039 252.432 972.776 Q254.056 975.513 257.971 975.513 Q261.09 975.513 262.936 973.476 Q264.75 971.408 264.75 967.875 Q264.75 963.005 261.313 960.077 Q257.843 957.117 252.114 957.117 L250.809 957.117 L250.809 962.941 M248.39 951.26 L268.729 951.26 L268.729 957.117 L263.318 957.117 Q266.564 959.122 268.124 962.114 Q269.652 965.105 269.652 969.434 Q269.652 974.909 266.596 978.155 Q263.509 981.37 258.352 981.37 Q252.337 981.37 249.281 977.359 Q246.226 973.317 246.226 965.328 L246.226 957.117 L245.653 957.117 Q241.611 957.117 239.414 959.79 Q237.186 962.432 237.186 967.238 Q237.186 970.294 237.919 973.19 Q238.651 976.086 240.115 978.76 L234.704 978.76 Q233.463 975.545 232.858 972.522 Q232.221 969.498 232.221 966.633 Q232.221 958.899 236.232 955.08 Q240.242 951.26 248.39 951.26 Z" fill="#000000" fill-rule="nonzero" fill-opacity="1" /><path clip-path="url(#clip320)" d="M222.959 933.404 L233.081 933.404 L233.081 921.341 L237.632 921.341 L237.632 933.404 L256.984 933.404 Q261.344 933.404 262.586 932.227 Q263.827 931.017 263.827 927.357 L263.827 921.341 L268.729 921.341 L268.729 927.357 Q268.729 934.136 266.214 936.714 Q263.668 939.293 256.984 939.293 L237.632 939.293 L237.632 943.589 L233.081 943.589 L233.081 939.293 L222.959 939.293 L222.959 933.404 Z" fill="#000000" fill-rule="nonzero" fill-opacity="1" /><path clip-path="url(#clip320)" d="M250.809 897.438 Q250.809 904.536 252.432 907.273 Q254.056 910.01 257.971 910.01 Q261.09 910.01 262.936 907.973 Q264.75 905.904 264.75 902.371 Q264.75 897.502 261.313 894.573 Q257.843 891.613 252.114 891.613 L250.809 891.613 L250.809 897.438 M248.39 885.757 L268.729 885.757 L268.729 891.613 L263.318 891.613 Q266.564 893.619 268.124 896.61 Q269.652 899.602 269.652 903.931 Q269.652 909.406 266.596 912.652 Q263.509 915.867 258.352 915.867 Q252.337 915.867 249.281 911.856 Q246.226 907.814 246.226 899.825 L246.226 891.613 L245.653 891.613 Q241.611 891.613 239.414 894.287 Q237.186 896.929 237.186 901.735 Q237.186 904.79 237.919 907.687 Q238.651 910.583 240.115 913.257 L234.704 913.257 Q233.463 910.042 232.858 907.018 Q232.221 903.995 232.221 901.13 Q232.221 893.396 236.232 889.576 Q240.242 885.757 248.39 885.757 Z" fill="#000000" fill-rule="nonzero" fill-opacity="1" /><path clip-path="url(#clip320)" d="M219.203 852.974 L219.203 847.117 L268.729 847.117 L268.729 852.974 L219.203 852.974 Z" fill="#000000" fill-rule="nonzero" fill-opacity="1" /><path clip-path="url(#clip320)" d="M237.186 821.05 Q237.186 825.76 240.879 828.497 Q244.539 831.235 250.936 831.235 Q257.334 831.235 261.026 828.529 Q264.686 825.792 264.686 821.05 Q264.686 816.371 260.994 813.634 Q257.302 810.896 250.936 810.896 Q244.603 810.896 240.91 813.634 Q237.186 816.371 237.186 821.05 M232.221 821.05 Q232.221 813.411 237.186 809.05 Q242.152 804.69 250.936 804.69 Q259.689 804.69 264.686 809.05 Q269.652 813.411 269.652 821.05 Q269.652 828.72 264.686 833.081 Q259.689 837.409 250.936 837.409 Q242.152 837.409 237.186 833.081 Q232.221 828.72 232.221 821.05 Z" fill="#000000" fill-rule="nonzero" fill-opacity="1" /><path clip-path="url(#clip320)" d="M250.491 771.524 Q244.125 771.524 240.624 774.166 Q237.123 776.776 237.123 781.519 Q237.123 786.229 240.624 788.871 Q244.125 791.481 250.491 791.481 Q256.825 791.481 260.326 788.871 Q263.827 786.229 263.827 781.519 Q263.827 776.776 260.326 774.166 Q256.825 771.524 250.491 771.524 M264.304 765.668 Q273.407 765.668 277.832 769.71 Q282.288 773.752 282.288 782.091 Q282.288 785.179 281.81 787.916 Q281.364 790.653 280.41 793.231 L274.712 793.231 Q276.113 790.653 276.781 788.139 Q277.45 785.624 277.45 783.014 Q277.45 777.253 274.426 774.389 Q271.434 771.524 265.355 771.524 L262.458 771.524 Q265.609 773.339 267.169 776.171 Q268.729 779.004 268.729 782.951 Q268.729 789.507 263.731 793.518 Q258.734 797.528 250.491 797.528 Q242.215 797.528 237.218 793.518 Q232.221 789.507 232.221 782.951 Q232.221 779.004 233.781 776.171 Q235.34 773.339 238.491 771.524 L233.081 771.524 L233.081 765.668 L264.304 765.668 Z" fill="#000000" fill-rule="nonzero" fill-opacity="1" /><path clip-path="url(#clip320)" d="M248.263 756.565 L248.263 739.409 L253.483 739.409 L253.483 756.565 L248.263 756.565 Z" fill="#000000" fill-rule="nonzero" fill-opacity="1" /><path clip-path="url(#clip320)" d="M219.203 730.084 L219.203 724.227 L268.729 724.227 L268.729 730.084 L219.203 730.084 Z" fill="#000000" fill-rule="nonzero" fill-opacity="1" /><path clip-path="url(#clip320)" d="M233.081 711.973 L233.081 706.117 L268.729 706.117 L268.729 711.973 L233.081 711.973 M219.203 711.973 L219.203 706.117 L226.619 706.117 L226.619 711.973 L219.203 711.973 Z" fill="#000000" fill-rule="nonzero" fill-opacity="1" /><path clip-path="url(#clip320)" d="M219.203 694.086 L219.203 688.197 L248.454 688.197 L233.081 670.723 L233.081 663.244 L249.759 682.15 L268.729 662.448 L268.729 670.087 L251.318 688.197 L268.729 688.197 L268.729 694.086 L219.203 694.086 Z" fill="#000000" fill-rule="nonzero" fill-opacity="1" /><path clip-path="url(#clip320)" d="M249.44 627.946 L252.305 627.946 L252.305 654.873 Q258.352 654.491 261.535 651.244 Q264.686 647.966 264.686 642.141 Q264.686 638.768 263.859 635.617 Q263.031 632.434 261.376 629.314 L266.914 629.314 Q268.251 632.465 268.951 635.776 Q269.652 639.086 269.652 642.491 Q269.652 651.022 264.686 656.019 Q259.721 660.984 251.255 660.984 Q242.502 660.984 237.377 656.273 Q232.221 651.531 232.221 643.51 Q232.221 636.317 236.868 632.147 Q241.483 627.946 249.44 627.946 M247.722 633.802 Q242.916 633.866 240.051 636.508 Q237.186 639.118 237.186 643.446 Q237.186 648.348 239.956 651.308 Q242.725 654.236 247.754 654.682 L247.722 633.802 Z" fill="#000000" fill-rule="nonzero" fill-opacity="1" /><path clip-path="url(#clip320)" d="M219.203 618.334 L219.203 612.477 L268.729 612.477 L268.729 618.334 L219.203 618.334 Z" fill="#000000" fill-rule="nonzero" fill-opacity="1" /><path clip-path="url(#clip320)" d="M233.081 600.223 L233.081 594.367 L268.729 594.367 L268.729 600.223 L233.081 600.223 M219.203 600.223 L219.203 594.367 L226.619 594.367 L226.619 600.223 L219.203 600.223 Z" fill="#000000" fill-rule="nonzero" fill-opacity="1" /><path clip-path="url(#clip320)" d="M247.212 552.48 L268.729 552.48 L268.729 558.337 L247.403 558.337 Q242.343 558.337 239.828 560.31 Q237.314 562.284 237.314 566.23 Q237.314 570.973 240.338 573.71 Q243.361 576.447 248.581 576.447 L268.729 576.447 L268.729 582.336 L219.203 582.336 L219.203 576.447 L238.619 576.447 Q235.404 574.347 233.813 571.514 Q232.221 568.649 232.221 564.925 Q232.221 558.782 236.041 555.631 Q239.828 552.48 247.212 552.48 Z" fill="#000000" fill-rule="nonzero" fill-opacity="1" /><path clip-path="url(#clip320)" d="M237.186 526.986 Q237.186 531.696 240.879 534.434 Q244.539 537.171 250.936 537.171 Q257.334 537.171 261.026 534.465 Q264.686 531.728 264.686 526.986 Q264.686 522.307 260.994 519.57 Q257.302 516.832 250.936 516.832 Q244.603 516.832 240.91 519.57 Q237.186 522.307 237.186 526.986 M232.221 526.986 Q232.221 519.347 237.186 514.986 Q242.152 510.626 250.936 510.626 Q259.689 510.626 264.686 514.986 Q269.652 519.347 269.652 526.986 Q269.652 534.656 264.686 539.017 Q259.689 543.346 250.936 543.346 Q242.152 543.346 237.186 539.017 Q232.221 534.656 232.221 526.986 Z" fill="#000000" fill-rule="nonzero" fill-opacity="1" /><path clip-path="url(#clip320)" d="M237.186 487.105 Q237.186 491.815 240.879 494.552 Q244.539 497.29 250.936 497.29 Q257.334 497.29 261.026 494.584 Q264.686 491.847 264.686 487.105 Q264.686 482.426 260.994 479.689 Q257.302 476.951 250.936 476.951 Q244.603 476.951 240.91 479.689 Q237.186 482.426 237.186 487.105 M232.221 487.105 Q232.221 479.466 237.186 475.105 Q242.152 470.745 250.936 470.745 Q259.689 470.745 264.686 475.105 Q269.652 479.466 269.652 487.105 Q269.652 494.775 264.686 499.136 Q259.689 503.464 250.936 503.464 Q242.152 503.464 237.186 499.136 Q232.221 494.775 232.221 487.105 Z" fill="#000000" fill-rule="nonzero" fill-opacity="1" /><path clip-path="url(#clip320)" d="M238.491 437.579 L219.203 437.579 L219.203 431.723 L268.729 431.723 L268.729 437.579 L263.381 437.579 Q266.564 439.425 268.124 442.258 Q269.652 445.059 269.652 449.006 Q269.652 455.467 264.495 459.541 Q259.339 463.583 250.936 463.583 Q242.534 463.583 237.377 459.541 Q232.221 455.467 232.221 449.006 Q232.221 445.059 233.781 442.258 Q235.309 439.425 238.491 437.579 M250.936 457.536 Q257.398 457.536 261.09 454.894 Q264.75 452.221 264.75 447.574 Q264.75 442.927 261.09 440.253 Q257.398 437.579 250.936 437.579 Q244.475 437.579 240.815 440.253 Q237.123 442.927 237.123 447.574 Q237.123 452.221 240.815 454.894 Q244.475 457.536 250.936 457.536 Z" fill="#000000" fill-rule="nonzero" fill-opacity="1" /><path clip-path="url(#clip320)" d="M592.493 25.7069 L592.493 40.3162 L599.108 40.3162 Q602.779 40.3162 604.785 38.4152 Q606.79 36.5141 606.79 32.9985 Q606.79 29.509 604.785 27.6079 Q602.779 25.7069 599.108 25.7069 L592.493 25.7069 M587.233 21.384 L599.108 21.384 Q605.644 21.384 608.977 24.3527 Q612.337 27.2954 612.337 32.9985 Q612.337 38.7537 608.977 41.6964 Q605.644 44.6391 599.108 44.6391 L592.493 44.6391 L592.493 60.264 L587.233 60.264 L587.233 21.384 Z" fill="#000000" fill-rule="nonzero" fill-opacity="1" /><path clip-path="url(#clip320)" d="M618.014 31.0975 L622.805 31.0975 L622.805 60.264 L618.014 60.264 L618.014 31.0975 M618.014 19.7434 L622.805 19.7434 L622.805 25.8111 L618.014 25.8111 L618.014 19.7434 Z" fill="#000000" fill-rule="nonzero" fill-opacity="1" /><path clip-path="url(#clip320)" d="M637.467 55.889 L637.467 71.3577 L632.649 71.3577 L632.649 31.0975 L637.467 31.0975 L637.467 35.5245 Q638.977 32.9204 641.269 31.6704 Q643.587 30.3944 646.79 30.3944 Q652.102 30.3944 655.409 34.6131 Q658.743 38.8318 658.743 45.7068 Q658.743 52.5817 655.409 56.8005 Q652.102 61.0192 646.79 61.0192 Q643.587 61.0192 641.269 59.7692 Q638.977 58.4932 637.467 55.889 M653.769 45.7068 Q653.769 40.4204 651.581 37.4256 Q649.42 34.4048 645.618 34.4048 Q641.816 34.4048 639.628 37.4256 Q637.467 40.4204 637.467 45.7068 Q637.467 50.9932 639.628 54.014 Q641.816 57.0088 645.618 57.0088 Q649.42 57.0088 651.581 54.014 Q653.769 50.9932 653.769 45.7068 Z" fill="#000000" fill-rule="nonzero" fill-opacity="1" /><path clip-path="url(#clip320)" d="M691.633 44.4828 L691.633 46.8266 L669.602 46.8266 Q669.914 51.7745 672.571 54.3786 Q675.253 56.9567 680.019 56.9567 Q682.779 56.9567 685.357 56.2796 Q687.961 55.6026 690.513 54.2484 L690.513 58.7796 Q687.935 59.8734 685.227 60.4463 Q682.519 61.0192 679.732 61.0192 Q672.753 61.0192 668.664 56.9567 Q664.602 52.8942 664.602 45.9672 Q664.602 38.8058 668.456 34.6131 Q672.336 30.3944 678.899 30.3944 Q684.784 30.3944 688.196 34.1964 Q691.633 37.9725 691.633 44.4828 M686.841 43.0766 Q686.789 39.1443 684.628 36.8006 Q682.493 34.4568 678.951 34.4568 Q674.941 34.4568 672.519 36.7225 Q670.123 38.9881 669.758 43.1026 L686.841 43.0766 Z" fill="#000000" fill-rule="nonzero" fill-opacity="1" /><path clip-path="url(#clip320)" d="M699.498 19.7434 L704.289 19.7434 L704.289 60.264 L699.498 60.264 L699.498 19.7434 Z" fill="#000000" fill-rule="nonzero" fill-opacity="1" /><path clip-path="url(#clip320)" d="M714.315 31.0975 L719.107 31.0975 L719.107 60.264 L714.315 60.264 L714.315 31.0975 M714.315 19.7434 L719.107 19.7434 L719.107 25.8111 L714.315 25.8111 L714.315 19.7434 Z" fill="#000000" fill-rule="nonzero" fill-opacity="1" /><path clip-path="url(#clip320)" d="M753.378 42.6599 L753.378 60.264 L748.586 60.264 L748.586 42.8162 Q748.586 38.6756 746.971 36.6183 Q745.357 34.561 742.128 34.561 Q738.247 34.561 736.008 37.035 Q733.768 39.5089 733.768 43.7797 L733.768 60.264 L728.951 60.264 L728.951 31.0975 L733.768 31.0975 L733.768 35.6287 Q735.487 32.9985 737.805 31.6964 Q740.148 30.3944 743.195 30.3944 Q748.221 30.3944 750.799 33.5194 Q753.378 36.6183 753.378 42.6599 Z" fill="#000000" fill-rule="nonzero" fill-opacity="1" /><path clip-path="url(#clip320)" d="M787.883 44.4828 L787.883 46.8266 L765.851 46.8266 Q766.164 51.7745 768.82 54.3786 Q771.502 56.9567 776.268 56.9567 Q779.028 56.9567 781.607 56.2796 Q784.211 55.6026 786.763 54.2484 L786.763 58.7796 Q784.185 59.8734 781.476 60.4463 Q778.768 61.0192 775.982 61.0192 Q769.003 61.0192 764.914 56.9567 Q760.852 52.8942 760.852 45.9672 Q760.852 38.8058 764.706 34.6131 Q768.586 30.3944 775.148 30.3944 Q781.034 30.3944 784.445 34.1964 Q787.883 37.9725 787.883 44.4828 M783.091 43.0766 Q783.039 39.1443 780.877 36.8006 Q778.742 34.4568 775.2 34.4568 Q771.19 34.4568 768.768 36.7225 Q766.372 38.9881 766.008 43.1026 L783.091 43.0766 Z" fill="#000000" fill-rule="nonzero" fill-opacity="1" /><path clip-path="url(#clip320)" d="M825.903 26.5663 L818.768 45.9151 L833.065 45.9151 L825.903 26.5663 M822.935 21.384 L828.898 21.384 L843.716 60.264 L838.247 60.264 L834.705 50.2901 L817.179 50.2901 L813.638 60.264 L808.091 60.264 L822.935 21.384 Z" fill="#000000" fill-rule="nonzero" fill-opacity="1" /><path clip-path="url(#clip320)" d="M863.716 43.7797 L911.84 43.7797 L911.84 47.5297 L863.716 47.5297 L863.716 43.7797 Z" fill="#000000" fill-rule="nonzero" fill-opacity="1" /><path clip-path="url(#clip320)" d="M941.892 41.6964 L941.892 55.9411 L950.33 55.9411 Q954.574 55.9411 956.606 54.1963 Q958.663 52.4255 958.663 48.8057 Q958.663 45.1599 956.606 43.4412 Q954.574 41.6964 950.33 41.6964 L941.892 41.6964 M941.892 25.7069 L941.892 37.4256 L949.679 37.4256 Q953.533 37.4256 955.408 35.9933 Q957.309 34.535 957.309 31.5662 Q957.309 28.6235 955.408 27.1652 Q953.533 25.7069 949.679 25.7069 L941.892 25.7069 M936.632 21.384 L950.069 21.384 Q956.085 21.384 959.34 23.884 Q962.595 26.384 962.595 30.9933 Q962.595 34.561 960.929 36.6704 Q959.262 38.7797 956.033 39.3006 Q959.913 40.1339 962.048 42.7901 Q964.21 45.4203 964.21 49.3786 Q964.21 54.5869 960.668 57.4255 Q957.126 60.264 950.59 60.264 L936.632 60.264 L936.632 21.384 Z" fill="#000000" fill-rule="nonzero" fill-opacity="1" /><path clip-path="url(#clip320)" d="M986.267 45.6026 Q980.46 45.6026 978.22 46.9307 Q975.981 48.2589 975.981 51.462 Q975.981 54.014 977.647 55.5244 Q979.34 57.0088 982.231 57.0088 Q986.215 57.0088 988.611 54.1963 Q991.033 51.3578 991.033 46.6703 L991.033 45.6026 L986.267 45.6026 M995.824 43.6235 L995.824 60.264 L991.033 60.264 L991.033 55.8369 Q989.392 58.4932 986.944 59.7692 Q984.496 61.0192 980.954 61.0192 Q976.475 61.0192 973.819 58.5192 Q971.189 55.9932 971.189 51.7745 Q971.189 46.8526 974.47 44.3526 Q977.777 41.8526 984.314 41.8526 L991.033 41.8526 L991.033 41.3839 Q991.033 38.0766 988.845 36.2798 Q986.684 34.4568 982.751 34.4568 Q980.251 34.4568 977.882 35.0558 Q975.512 35.6548 973.324 36.8527 L973.324 32.4256 Q975.955 31.41 978.428 30.9152 Q980.902 30.3944 983.246 30.3944 Q989.574 30.3944 992.699 33.6756 Q995.824 36.9568 995.824 43.6235 Z" fill="#000000" fill-rule="nonzero" fill-opacity="1" /><path clip-path="url(#clip320)" d="M1005.2 48.7536 L1005.2 31.0975 L1009.99 31.0975 L1009.99 48.5714 Q1009.99 52.712 1011.61 54.7953 Q1013.22 56.8526 1016.45 56.8526 Q1020.33 56.8526 1022.57 54.3786 Q1024.83 51.9047 1024.83 47.6339 L1024.83 31.0975 L1029.63 31.0975 L1029.63 60.264 L1024.83 60.264 L1024.83 55.7849 Q1023.09 58.4411 1020.77 59.7432 Q1018.48 61.0192 1015.43 61.0192 Q1010.41 61.0192 1007.8 57.8942 Q1005.2 54.7692 1005.2 48.7536 M1017.26 30.3944 L1017.26 30.3944 Z" fill="#000000" fill-rule="nonzero" fill-opacity="1" /><path clip-path="url(#clip320)" d="M1062.2 36.6964 Q1064 33.4673 1066.5 31.9308 Q1069 30.3944 1072.39 30.3944 Q1076.94 30.3944 1079.42 33.5975 Q1081.89 36.7745 1081.89 42.6599 L1081.89 60.264 L1077.07 60.264 L1077.07 42.8162 Q1077.07 38.6235 1075.59 36.5923 Q1074.11 34.561 1071.06 34.561 Q1067.33 34.561 1065.17 37.035 Q1063.01 39.5089 1063.01 43.7797 L1063.01 60.264 L1058.19 60.264 L1058.19 42.8162 Q1058.19 38.5974 1056.71 36.5923 Q1055.22 34.561 1052.13 34.561 Q1048.45 34.561 1046.29 37.061 Q1044.13 39.5349 1044.13 43.7797 L1044.13 60.264 L1039.31 60.264 L1039.31 31.0975 L1044.13 31.0975 L1044.13 35.6287 Q1045.77 32.9464 1048.06 31.6704 Q1050.36 30.3944 1053.51 30.3944 Q1056.68 30.3944 1058.9 32.0089 Q1061.14 33.6235 1062.2 36.6964 Z" fill="#000000" fill-rule="nonzero" fill-opacity="1" /><path clip-path="url(#clip320)" d="M1089.03 43.5193 L1103.06 43.5193 L1103.06 47.7901 L1089.03 47.7901 L1089.03 43.5193 Z" fill="#000000" fill-rule="nonzero" fill-opacity="1" /><path clip-path="url(#clip320)" d="M1105.28 21.384 L1110.59 21.384 L1118.77 54.2484 L1126.92 21.384 L1132.83 21.384 L1141.01 54.2484 L1149.16 21.384 L1154.5 21.384 L1144.73 60.264 L1138.12 60.264 L1129.91 26.5142 L1121.63 60.264 L1115.02 60.264 L1105.28 21.384 Z" fill="#000000" fill-rule="nonzero" fill-opacity="1" /><path clip-path="url(#clip320)" d="M1183.09 44.4828 L1183.09 46.8266 L1161.06 46.8266 Q1161.37 51.7745 1164.03 54.3786 Q1166.71 56.9567 1171.47 56.9567 Q1174.23 56.9567 1176.81 56.2796 Q1179.42 55.6026 1181.97 54.2484 L1181.97 58.7796 Q1179.39 59.8734 1176.68 60.4463 Q1173.97 61.0192 1171.19 61.0192 Q1164.21 61.0192 1160.12 56.9567 Q1156.06 52.8942 1156.06 45.9672 Q1156.06 38.8058 1159.91 34.6131 Q1163.79 30.3944 1170.35 30.3944 Q1176.24 30.3944 1179.65 34.1964 Q1183.09 37.9725 1183.09 44.4828 M1178.3 43.0766 Q1178.25 39.1443 1176.08 36.8006 Q1173.95 34.4568 1170.41 34.4568 Q1166.4 34.4568 1163.97 36.7225 Q1161.58 38.9881 1161.21 43.1026 L1178.3 43.0766 Z" fill="#000000" fill-rule="nonzero" fill-opacity="1" /><path clip-path="url(#clip320)" d="M1190.95 19.7434 L1195.75 19.7434 L1195.75 60.264 L1190.95 60.264 L1190.95 19.7434 Z" fill="#000000" fill-rule="nonzero" fill-opacity="1" /><path clip-path="url(#clip320)" d="M1226.76 32.2173 L1226.76 36.6964 Q1224.73 35.5766 1222.67 35.0298 Q1220.64 34.4568 1218.56 34.4568 Q1213.9 34.4568 1211.32 37.4256 Q1208.74 40.3683 1208.74 45.7068 Q1208.74 51.0453 1211.32 54.014 Q1213.9 56.9567 1218.56 56.9567 Q1220.64 56.9567 1222.67 56.4099 Q1224.73 55.8369 1226.76 54.7172 L1226.76 59.1442 Q1224.76 60.0817 1222.59 60.5505 Q1220.46 61.0192 1218.04 61.0192 Q1211.45 61.0192 1207.57 56.8786 Q1203.69 52.738 1203.69 45.7068 Q1203.69 38.5714 1207.59 34.4829 Q1211.53 30.3944 1218.35 30.3944 Q1220.56 30.3944 1222.67 30.8631 Q1224.78 31.3058 1226.76 32.2173 Z" fill="#000000" fill-rule="nonzero" fill-opacity="1" /><path clip-path="url(#clip320)" d="M1259.34 42.6599 L1259.34 60.264 L1254.55 60.264 L1254.55 42.8162 Q1254.55 38.6756 1252.93 36.6183 Q1251.32 34.561 1248.09 34.561 Q1244.21 34.561 1241.97 37.035 Q1239.73 39.5089 1239.73 43.7797 L1239.73 60.264 L1234.91 60.264 L1234.91 19.7434 L1239.73 19.7434 L1239.73 35.6287 Q1241.45 32.9985 1243.77 31.6964 Q1246.11 30.3944 1249.16 30.3944 Q1254.18 30.3944 1256.76 33.5194 Q1259.34 36.6183 1259.34 42.6599 Z" fill="#000000" fill-rule="nonzero" fill-opacity="1" /><path clip-path="url(#clip320)" d="M1306.84 32.2173 L1306.84 36.6964 Q1304.81 35.5766 1302.75 35.0298 Q1300.72 34.4568 1298.64 34.4568 Q1293.97 34.4568 1291.4 37.4256 Q1288.82 40.3683 1288.82 45.7068 Q1288.82 51.0453 1291.4 54.014 Q1293.97 56.9567 1298.64 56.9567 Q1300.72 56.9567 1302.75 56.4099 Q1304.81 55.8369 1306.84 54.7172 L1306.84 59.1442 Q1304.83 60.0817 1302.67 60.5505 Q1300.54 61.0192 1298.11 61.0192 Q1291.53 61.0192 1287.65 56.8786 Q1283.77 52.738 1283.77 45.7068 Q1283.77 38.5714 1287.67 34.4829 Q1291.6 30.3944 1298.43 30.3944 Q1300.64 30.3944 1302.75 30.8631 Q1304.86 31.3058 1306.84 32.2173 Z" fill="#000000" fill-rule="nonzero" fill-opacity="1" /><path clip-path="url(#clip320)" d="M1326.47 34.4568 Q1322.62 34.4568 1320.38 37.4777 Q1318.14 40.4724 1318.14 45.7068 Q1318.14 50.9411 1320.35 53.962 Q1322.59 56.9567 1326.47 56.9567 Q1330.3 56.9567 1332.54 53.9359 Q1334.78 50.9151 1334.78 45.7068 Q1334.78 40.5245 1332.54 37.5037 Q1330.3 34.4568 1326.47 34.4568 M1326.47 30.3944 Q1332.72 30.3944 1336.29 34.4568 Q1339.86 38.5193 1339.86 45.7068 Q1339.86 52.8682 1336.29 56.9567 Q1332.72 61.0192 1326.47 61.0192 Q1320.2 61.0192 1316.63 56.9567 Q1313.09 52.8682 1313.09 45.7068 Q1313.09 38.5193 1316.63 34.4568 Q1320.2 30.3944 1326.47 30.3944 Z" fill="#000000" fill-rule="nonzero" fill-opacity="1" /><path clip-path="url(#clip320)" d="M1372.05 42.6599 L1372.05 60.264 L1367.25 60.264 L1367.25 42.8162 Q1367.25 38.6756 1365.64 36.6183 Q1364.03 34.561 1360.8 34.561 Q1356.92 34.561 1354.68 37.035 Q1352.44 39.5089 1352.44 43.7797 L1352.44 60.264 L1347.62 60.264 L1347.62 31.0975 L1352.44 31.0975 L1352.44 35.6287 Q1354.16 32.9985 1356.47 31.6964 Q1358.82 30.3944 1361.86 30.3944 Q1366.89 30.3944 1369.47 33.5194 Q1372.05 36.6183 1372.05 42.6599 Z" fill="#000000" fill-rule="nonzero" fill-opacity="1" /><path clip-path="url(#clip320)" d="M1378.17 31.0975 L1383.24 31.0975 L1392.36 55.5765 L1401.47 31.0975 L1406.55 31.0975 L1395.61 60.264 L1389.1 60.264 L1378.17 31.0975 Z" fill="#000000" fill-rule="nonzero" fill-opacity="1" /><path clip-path="url(#clip320)" d="M1438.11 44.4828 L1438.11 46.8266 L1416.08 46.8266 Q1416.39 51.7745 1419.05 54.3786 Q1421.73 56.9567 1426.5 56.9567 Q1429.26 56.9567 1431.84 56.2796 Q1434.44 55.6026 1436.99 54.2484 L1436.99 58.7796 Q1434.42 59.8734 1431.71 60.4463 Q1429 61.0192 1426.21 61.0192 Q1419.23 61.0192 1415.14 56.9567 Q1411.08 52.8942 1411.08 45.9672 Q1411.08 38.8058 1414.94 34.6131 Q1418.82 30.3944 1425.38 30.3944 Q1431.26 30.3944 1434.68 34.1964 Q1438.11 37.9725 1438.11 44.4828 M1433.32 43.0766 Q1433.27 39.1443 1431.11 36.8006 Q1428.97 34.4568 1425.43 34.4568 Q1421.42 34.4568 1419 36.7225 Q1416.6 38.9881 1416.24 43.1026 L1433.32 43.0766 Z" fill="#000000" fill-rule="nonzero" fill-opacity="1" /><path clip-path="url(#clip320)" d="M1462.88 35.5766 Q1462.07 35.1079 1461.11 34.8996 Q1460.17 34.6652 1459.02 34.6652 Q1454.96 34.6652 1452.77 37.3214 Q1450.61 39.9516 1450.61 44.8995 L1450.61 60.264 L1445.8 60.264 L1445.8 31.0975 L1450.61 31.0975 L1450.61 35.6287 Q1452.12 32.9725 1454.55 31.6964 Q1456.97 30.3944 1460.43 30.3944 Q1460.93 30.3944 1461.52 30.4725 Q1462.12 30.5246 1462.85 30.6548 L1462.88 35.5766 Z" fill="#000000" fill-rule="nonzero" fill-opacity="1" /><path clip-path="url(#clip320)" d="M1486.16 45.3422 Q1486.16 40.1339 1484 37.2693 Q1481.86 34.4048 1477.98 34.4048 Q1474.13 34.4048 1471.97 37.2693 Q1469.83 40.1339 1469.83 45.3422 Q1469.83 50.5245 1471.97 53.389 Q1474.13 56.2536 1477.98 56.2536 Q1481.86 56.2536 1484 53.389 Q1486.16 50.5245 1486.16 45.3422 M1490.95 56.6442 Q1490.95 64.0921 1487.64 67.7119 Q1484.34 71.3577 1477.51 71.3577 Q1474.99 71.3577 1472.75 70.9671 Q1470.51 70.6025 1468.4 69.8212 L1468.4 65.1598 Q1470.51 66.3056 1472.57 66.8525 Q1474.62 67.3994 1476.76 67.3994 Q1481.47 67.3994 1483.82 64.9254 Q1486.16 62.4775 1486.16 57.5036 L1486.16 55.1338 Q1484.68 57.7119 1482.36 58.988 Q1480.04 60.264 1476.81 60.264 Q1471.45 60.264 1468.17 56.1755 Q1464.88 52.087 1464.88 45.3422 Q1464.88 38.5714 1468.17 34.4829 Q1471.45 30.3944 1476.81 30.3944 Q1480.04 30.3944 1482.36 31.6704 Q1484.68 32.9464 1486.16 35.5245 L1486.16 31.0975 L1490.95 31.0975 L1490.95 56.6442 Z" fill="#000000" fill-rule="nonzero" fill-opacity="1" /><path clip-path="url(#clip320)" d="M1525.77 44.4828 L1525.77 46.8266 L1503.74 46.8266 Q1504.05 51.7745 1506.71 54.3786 Q1509.39 56.9567 1514.15 56.9567 Q1516.92 56.9567 1519.49 56.2796 Q1522.1 55.6026 1524.65 54.2484 L1524.65 58.7796 Q1522.07 59.8734 1519.36 60.4463 Q1516.65 61.0192 1513.87 61.0192 Q1506.89 61.0192 1502.8 56.9567 Q1498.74 52.8942 1498.74 45.9672 Q1498.74 38.8058 1502.59 34.6131 Q1506.47 30.3944 1513.03 30.3944 Q1518.92 30.3944 1522.33 34.1964 Q1525.77 37.9725 1525.77 44.4828 M1520.98 43.0766 Q1520.93 39.1443 1518.76 36.8006 Q1516.63 34.4568 1513.09 34.4568 Q1509.08 34.4568 1506.65 36.7225 Q1504.26 38.9881 1503.89 43.1026 L1520.98 43.0766 Z" fill="#000000" fill-rule="nonzero" fill-opacity="1" /><path clip-path="url(#clip320)" d="M1557.88 42.6599 L1557.88 60.264 L1553.09 60.264 L1553.09 42.8162 Q1553.09 38.6756 1551.47 36.6183 Q1549.86 34.561 1546.63 34.561 Q1542.75 34.561 1540.51 37.035 Q1538.27 39.5089 1538.27 43.7797 L1538.27 60.264 L1533.45 60.264 L1533.45 31.0975 L1538.27 31.0975 L1538.27 35.6287 Q1539.99 32.9985 1542.31 31.6964 Q1544.65 30.3944 1547.7 30.3944 Q1552.72 30.3944 1555.3 33.5194 Q1557.88 36.6183 1557.88 42.6599 Z" fill="#000000" fill-rule="nonzero" fill-opacity="1" /><path clip-path="url(#clip320)" d="M1588.43 32.2173 L1588.43 36.6964 Q1586.39 35.5766 1584.34 35.0298 Q1582.31 34.4568 1580.22 34.4568 Q1575.56 34.4568 1572.98 37.4256 Q1570.4 40.3683 1570.4 45.7068 Q1570.4 51.0453 1572.98 54.014 Q1575.56 56.9567 1580.22 56.9567 Q1582.31 56.9567 1584.34 56.4099 Q1586.39 55.8369 1588.43 54.7172 L1588.43 59.1442 Q1586.42 60.0817 1584.26 60.5505 Q1582.12 61.0192 1579.7 61.0192 Q1573.11 61.0192 1569.23 56.8786 Q1565.35 52.738 1565.35 45.7068 Q1565.35 38.5714 1569.26 34.4829 Q1573.19 30.3944 1580.01 30.3944 Q1582.23 30.3944 1584.34 30.8631 Q1586.45 31.3058 1588.43 32.2173 Z" fill="#000000" fill-rule="nonzero" fill-opacity="1" /><path clip-path="url(#clip320)" d="M1621.71 44.4828 L1621.71 46.8266 L1599.68 46.8266 Q1599.99 51.7745 1602.64 54.3786 Q1605.33 56.9567 1610.09 56.9567 Q1612.85 56.9567 1615.43 56.2796 Q1618.03 55.6026 1620.59 54.2484 L1620.59 58.7796 Q1618.01 59.8734 1615.3 60.4463 Q1612.59 61.0192 1609.81 61.0192 Q1602.83 61.0192 1598.74 56.9567 Q1594.68 52.8942 1594.68 45.9672 Q1594.68 38.8058 1598.53 34.6131 Q1602.41 30.3944 1608.97 30.3944 Q1614.86 30.3944 1618.27 34.1964 Q1621.71 37.9725 1621.71 44.4828 M1616.91 43.0766 Q1616.86 39.1443 1614.7 36.8006 Q1612.57 34.4568 1609.02 34.4568 Q1605.01 34.4568 1602.59 36.7225 Q1600.2 38.9881 1599.83 43.1026 L1616.91 43.0766 Z" fill="#000000" fill-rule="nonzero" fill-opacity="1" /><path clip-path="url(#clip320)" d="M1652.7 19.509 L1652.7 72.8421 L1648.27 72.8421 L1648.27 19.509 L1652.7 19.509 Z" fill="#000000" fill-rule="nonzero" fill-opacity="1" /><path clip-path="url(#clip320)" d="M1704.96 22.66 L1704.96 27.7902 Q1701.97 26.3579 1699.31 25.6548 Q1696.65 24.9517 1694.18 24.9517 Q1689.88 24.9517 1687.54 26.6183 Q1685.22 28.285 1685.22 31.3579 Q1685.22 33.936 1686.76 35.2641 Q1688.32 36.5662 1692.64 37.3735 L1695.82 38.0245 Q1701.71 39.1443 1704.49 41.9828 Q1707.3 44.7953 1707.3 49.5349 Q1707.3 55.1859 1703.5 58.1026 Q1699.73 61.0192 1692.41 61.0192 Q1689.65 61.0192 1686.52 60.3942 Q1683.42 59.7692 1680.09 58.5453 L1680.09 53.1286 Q1683.29 54.9255 1686.37 55.8369 Q1689.44 56.7484 1692.41 56.7484 Q1696.91 56.7484 1699.36 54.9776 Q1701.81 53.2067 1701.81 49.9255 Q1701.81 47.0609 1700.04 45.4464 Q1698.29 43.8318 1694.28 43.0245 L1691.08 42.3995 Q1685.2 41.2276 1682.57 38.7277 Q1679.94 36.2277 1679.94 31.7746 Q1679.94 26.6183 1683.55 23.6496 Q1687.2 20.6809 1693.58 20.6809 Q1696.32 20.6809 1699.15 21.1757 Q1701.99 21.6705 1704.96 22.66 Z" fill="#000000" fill-rule="nonzero" fill-opacity="1" /><path clip-path="url(#clip320)" d="M1720.77 25.7069 L1720.77 40.3162 L1727.38 40.3162 Q1731.05 40.3162 1733.06 38.4152 Q1735.07 36.5141 1735.07 32.9985 Q1735.07 29.509 1733.06 27.6079 Q1731.05 25.7069 1727.38 25.7069 L1720.77 25.7069 M1715.51 21.384 L1727.38 21.384 Q1733.92 21.384 1737.25 24.3527 Q1740.61 27.2954 1740.61 32.9985 Q1740.61 38.7537 1737.25 41.6964 Q1733.92 44.6391 1727.38 44.6391 L1720.77 44.6391 L1720.77 60.264 L1715.51 60.264 L1715.51 21.384 Z" fill="#000000" fill-rule="nonzero" fill-opacity="1" /><path clip-path="url(#clip320)" d="M1741.16 21.384 L1746.81 21.384 L1757.59 37.3735 L1768.29 21.384 L1773.95 21.384 L1760.2 41.7485 L1760.2 60.264 L1754.91 60.264 L1754.91 41.7485 L1741.16 21.384 Z" fill="#000000" fill-rule="nonzero" fill-opacity="1" /><path clip-path="url(#clip320)" d="M1801.99 19.509 L1801.99 72.8421 L1797.56 72.8421 L1797.56 19.509 L1801.99 19.509 Z" fill="#000000" fill-rule="nonzero" fill-opacity="1" /><path clip-path="url(#clip320)" d="M1860.06 24.3788 L1860.06 29.9256 Q1857.41 27.4517 1854.39 26.2277 Q1851.39 25.0038 1848.01 25.0038 Q1841.34 25.0038 1837.8 29.0923 Q1834.26 33.1548 1834.26 40.8631 Q1834.26 48.5453 1837.8 52.6338 Q1841.34 56.6963 1848.01 56.6963 Q1851.39 56.6963 1854.39 55.4724 Q1857.41 54.2484 1860.06 51.7745 L1860.06 57.2692 Q1857.3 59.1442 1854.21 60.0817 Q1851.13 61.0192 1847.69 61.0192 Q1838.87 61.0192 1833.79 55.6286 Q1828.71 50.212 1828.71 40.8631 Q1828.71 31.4881 1833.79 26.0975 Q1838.87 20.6809 1847.69 20.6809 Q1851.18 20.6809 1854.26 21.6184 Q1857.36 22.5298 1860.06 24.3788 Z" fill="#000000" fill-rule="nonzero" fill-opacity="1" /><path clip-path="url(#clip320)" d="M1868.19 21.384 L1873.45 21.384 L1873.45 37.3214 L1892.56 37.3214 L1892.56 21.384 L1897.82 21.384 L1897.82 60.264 L1892.56 60.264 L1892.56 41.7485 L1873.45 41.7485 L1873.45 60.264 L1868.19 60.264 L1868.19 21.384 Z" fill="#000000" fill-rule="nonzero" fill-opacity="1" /><path clip-path="url(#clip320)" d="M1908.29 21.384 L1916.13 21.384 L1926.05 47.8422 L1936.03 21.384 L1943.87 21.384 L1943.87 60.264 L1938.74 60.264 L1938.74 26.1236 L1928.71 52.7901 L1923.42 52.7901 L1913.4 26.1236 L1913.4 60.264 L1908.29 60.264 L1908.29 21.384 Z" fill="#000000" fill-rule="nonzero" fill-opacity="1" /><path clip-path="url(#clip320)" d="M1954.31 21.384 L1962.15 21.384 L1972.07 47.8422 L1982.04 21.384 L1989.88 21.384 L1989.88 60.264 L1984.75 60.264 L1984.75 26.1236 L1974.73 52.7901 L1969.44 52.7901 L1959.41 26.1236 L1959.41 60.264 L1954.31 60.264 L1954.31 21.384 Z" fill="#000000" fill-rule="nonzero" fill-opacity="1" /><path clip-path="url(#clip320)" d="M1997.69 43.5193 L2011.73 43.5193 L2011.73 47.7901 L1997.69 47.7901 L1997.69 43.5193 Z" fill="#000000" fill-rule="nonzero" fill-opacity="1" /><path clip-path="url(#clip320)" d="M2019.57 21.384 L2026.65 21.384 L2043.89 53.9099 L2043.89 21.384 L2049 21.384 L2049 60.264 L2041.91 60.264 L2024.67 27.7381 L2024.67 60.264 L2019.57 60.264 L2019.57 21.384 Z" fill="#000000" fill-rule="nonzero" fill-opacity="1" /><path clip-path="url(#clip320)" d="M2060.48 53.6495 L2065.97 53.6495 L2065.97 58.1286 L2061.7 66.4619 L2058.34 66.4619 L2060.48 58.1286 L2060.48 53.6495 Z" fill="#000000" fill-rule="nonzero" fill-opacity="1" /><path clip-path="url(#clip320)" d="M2093.37 21.384 L2098.63 21.384 L2098.63 37.8162 L2116.08 21.384 L2122.85 21.384 L2103.55 39.5089 L2124.23 60.264 L2117.3 60.264 L2098.63 41.5401 L2098.63 60.264 L2093.37 60.264 L2093.37 21.384 Z" fill="#000000" fill-rule="nonzero" fill-opacity="1" /><path clip-path="url(#clip320)" d="M2128.76 36.0454 L2162.15 36.0454 L2162.15 40.4204 L2128.76 40.4204 L2128.76 36.0454 M2128.76 46.6703 L2162.15 46.6703 L2162.15 51.0974 L2128.76 51.0974 L2128.76 46.6703 Z" fill="#000000" fill-rule="nonzero" fill-opacity="1" /><path clip-path="url(#clip320)" d="M2174.41 55.8369 L2183.01 55.8369 L2183.01 26.1756 L2173.66 28.0506 L2173.66 23.259 L2182.95 21.384 L2188.21 21.384 L2188.21 55.8369 L2196.81 55.8369 L2196.81 60.264 L2174.41 60.264 L2174.41 55.8369 Z" fill="#000000" fill-rule="nonzero" fill-opacity="1" /><path clip-path="url(#clip320)" d="M2218.68 41.8006 Q2214.93 41.8006 2212.77 43.8058 Q2210.64 45.811 2210.64 49.3266 Q2210.64 52.8422 2212.77 54.8474 Q2214.93 56.8526 2218.68 56.8526 Q2222.43 56.8526 2224.59 54.8474 Q2226.76 52.8161 2226.76 49.3266 Q2226.76 45.811 2224.59 43.8058 Q2222.46 41.8006 2218.68 41.8006 M2213.42 39.561 Q2210.04 38.7277 2208.14 36.41 Q2206.26 34.0923 2206.26 30.7589 Q2206.26 26.0975 2209.57 23.3892 Q2212.9 20.6809 2218.68 20.6809 Q2224.49 20.6809 2227.8 23.3892 Q2231.1 26.0975 2231.1 30.7589 Q2231.1 34.0923 2229.2 36.41 Q2227.33 38.7277 2223.97 39.561 Q2227.77 40.4464 2229.88 43.0245 Q2232.02 45.6026 2232.02 49.3266 Q2232.02 54.9776 2228.55 57.9984 Q2225.11 61.0192 2218.68 61.0192 Q2212.25 61.0192 2208.79 57.9984 Q2205.35 54.9776 2205.35 49.3266 Q2205.35 45.6026 2207.48 43.0245 Q2209.62 40.4464 2213.42 39.561 M2211.49 31.2537 Q2211.49 34.2746 2213.37 35.9673 Q2215.27 37.66 2218.68 37.66 Q2222.07 37.66 2223.97 35.9673 Q2225.9 34.2746 2225.9 31.2537 Q2225.9 28.2329 2223.97 26.5402 Q2222.07 24.8475 2218.68 24.8475 Q2215.27 24.8475 2213.37 26.5402 Q2211.49 28.2329 2211.49 31.2537 Z" fill="#000000" fill-rule="nonzero" fill-opacity="1" /><path clip-path="url(#clip320)" d="M978.298 79.704 L1011.19 79.704 L1011.19 84.1311 L997.387 84.1311 L997.387 118.584 L992.1 118.584 L992.1 84.1311 L978.298 84.1311 L978.298 79.704 Z" fill="#000000" fill-rule="nonzero" fill-opacity="1" /><path clip-path="url(#clip320)" d="M1038.22 127.438 L1038.22 131.162 L1010.51 131.162 L1010.51 127.438 L1038.22 127.438 Z" fill="#000000" fill-rule="nonzero" fill-opacity="1" /><path clip-path="url(#clip320)" d="M1042.93 79.704 L1048.19 79.704 L1048.19 118.584 L1042.93 118.584 L1042.93 79.704 Z" fill="#000000" fill-rule="nonzero" fill-opacity="1" /><path clip-path="url(#clip320)" d="M1081.97 80.98 L1081.97 86.1102 Q1078.97 84.6779 1076.32 83.9748 Q1073.66 83.2717 1071.19 83.2717 Q1066.89 83.2717 1064.55 84.9383 Q1062.23 86.605 1062.23 89.6779 Q1062.23 92.256 1063.77 93.5841 Q1065.33 94.8862 1069.65 95.6935 L1072.83 96.3445 Q1078.71 97.4643 1081.5 100.303 Q1084.31 103.115 1084.31 107.855 Q1084.31 113.506 1080.51 116.423 Q1076.74 119.339 1069.42 119.339 Q1066.66 119.339 1063.53 118.714 Q1060.43 118.089 1057.1 116.865 L1057.1 111.449 Q1060.3 113.245 1063.38 114.157 Q1066.45 115.068 1069.42 115.068 Q1073.92 115.068 1076.37 113.298 Q1078.82 111.527 1078.82 108.246 Q1078.82 105.381 1077.05 103.766 Q1075.3 102.152 1071.29 101.345 L1068.09 100.72 Q1062.2 99.5476 1059.57 97.0477 Q1056.94 94.5477 1056.94 90.0946 Q1056.94 84.9383 1060.56 81.9696 Q1064.21 79.0009 1070.59 79.0009 Q1073.32 79.0009 1076.16 79.4957 Q1079 79.9905 1081.97 80.98 Z" fill="#000000" fill-rule="nonzero" fill-opacity="1" /><path clip-path="url(#clip320)" d="M1109.89 94.3654 L1143.27 94.3654 L1143.27 98.7404 L1109.89 98.7404 L1109.89 94.3654 M1109.89 104.99 L1143.27 104.99 L1143.27 109.417 L1109.89 109.417 L1109.89 104.99 Z" fill="#000000" fill-rule="nonzero" fill-opacity="1" /><path clip-path="url(#clip320)" d="M1176.11 114.157 L1194.47 114.157 L1194.47 118.584 L1169.78 118.584 L1169.78 114.157 Q1172.78 111.058 1177.93 105.85 Q1183.11 100.615 1184.44 99.1049 Q1186.97 96.2664 1187.96 94.3133 Q1188.97 92.3341 1188.97 90.4331 Q1188.97 87.3342 1186.79 85.3811 Q1184.63 83.4279 1181.14 83.4279 Q1178.66 83.4279 1175.9 84.2873 Q1173.17 85.1467 1170.04 86.8915 L1170.04 81.579 Q1173.22 80.303 1175.98 79.6519 Q1178.74 79.0009 1181.03 79.0009 Q1187.07 79.0009 1190.67 82.0217 Q1194.26 85.0425 1194.26 90.0946 Q1194.26 92.4904 1193.35 94.6518 Q1192.46 96.7872 1190.09 99.7039 Q1189.44 100.459 1185.95 104.079 Q1182.46 107.673 1176.11 114.157 Z" fill="#000000" fill-rule="nonzero" fill-opacity="1" /><path clip-path="url(#clip320)" d="M1205.56 79.704 L1226.21 79.704 L1226.21 84.1311 L1210.38 84.1311 L1210.38 93.6623 Q1211.53 93.2716 1212.67 93.0893 Q1213.82 92.881 1214.96 92.881 Q1221.47 92.881 1225.28 96.4487 Q1229.08 100.016 1229.08 106.11 Q1229.08 112.386 1225.17 115.876 Q1221.27 119.339 1214.16 119.339 Q1211.71 119.339 1209.16 118.923 Q1206.63 118.506 1203.92 117.673 L1203.92 112.386 Q1206.27 113.662 1208.77 114.287 Q1211.27 114.912 1214.05 114.912 Q1218.56 114.912 1221.19 112.542 Q1223.82 110.173 1223.82 106.11 Q1223.82 102.048 1221.19 99.6779 Q1218.56 97.3081 1214.05 97.3081 Q1211.94 97.3081 1209.83 97.7768 Q1207.75 98.2456 1205.56 99.2351 L1205.56 79.704 Z" fill="#000000" fill-rule="nonzero" fill-opacity="1" /><path clip-path="url(#clip320)" d="M1240.35 114.157 L1248.95 114.157 L1248.95 84.4956 L1239.6 86.3706 L1239.6 81.579 L1248.9 79.704 L1254.16 79.704 L1254.16 114.157 L1262.75 114.157 L1262.75 118.584 L1240.35 118.584 L1240.35 114.157 Z" fill="#000000" fill-rule="nonzero" fill-opacity="1" /><path clip-path="url(#clip320)" d="M1285.28 97.0477 Q1281.73 97.0477 1279.65 99.4695 Q1277.59 101.891 1277.59 106.11 Q1277.59 110.303 1279.65 112.751 Q1281.73 115.173 1285.28 115.173 Q1288.82 115.173 1290.87 112.751 Q1292.96 110.303 1292.96 106.11 Q1292.96 101.891 1290.87 99.4695 Q1288.82 97.0477 1285.28 97.0477 M1295.72 80.5634 L1295.72 85.355 Q1293.74 84.4175 1291.71 83.9227 Q1289.7 83.4279 1287.72 83.4279 Q1282.52 83.4279 1279.75 86.9435 Q1277.02 90.4592 1276.63 97.5685 Q1278.17 95.3029 1280.48 94.105 Q1282.8 92.881 1285.59 92.881 Q1291.45 92.881 1294.83 96.4487 Q1298.24 99.9903 1298.24 106.11 Q1298.24 112.1 1294.7 115.719 Q1291.16 119.339 1285.28 119.339 Q1278.53 119.339 1274.96 114.183 Q1271.4 109.001 1271.4 99.1831 Q1271.4 89.9644 1275.77 84.4956 Q1280.15 79.0009 1287.52 79.0009 Q1289.49 79.0009 1291.5 79.3915 Q1293.53 79.7821 1295.72 80.5634 Z" fill="#000000" fill-rule="nonzero" fill-opacity="1" /><path clip-path="url(#clip320)" d="M1334.88 92.7768 Q1331.03 92.7768 1328.79 95.7977 Q1326.55 98.7924 1326.55 104.027 Q1326.55 109.261 1328.77 112.282 Q1331 115.277 1334.88 115.277 Q1338.71 115.277 1340.95 112.256 Q1343.19 109.235 1343.19 104.027 Q1343.19 98.8445 1340.95 95.8237 Q1338.71 92.7768 1334.88 92.7768 M1334.88 88.7144 Q1341.13 88.7144 1344.7 92.7768 Q1348.27 96.8393 1348.27 104.027 Q1348.27 111.188 1344.7 115.277 Q1341.13 119.339 1334.88 119.339 Q1328.61 119.339 1325.04 115.277 Q1321.5 111.188 1321.5 104.027 Q1321.5 96.8393 1325.04 92.7768 Q1328.61 88.7144 1334.88 88.7144 Z" fill="#000000" fill-rule="nonzero" fill-opacity="1" /><path clip-path="url(#clip320)" d="M1377.15 104.027 Q1377.15 98.7404 1374.96 95.7456 Q1372.8 92.7248 1369 92.7248 Q1365.2 92.7248 1363.01 95.7456 Q1360.85 98.7404 1360.85 104.027 Q1360.85 109.313 1363.01 112.334 Q1365.2 115.329 1369 115.329 Q1372.8 115.329 1374.96 112.334 Q1377.15 109.313 1377.15 104.027 M1360.85 93.8445 Q1362.36 91.2404 1364.65 89.9904 Q1366.97 88.7144 1370.17 88.7144 Q1375.48 88.7144 1378.79 92.9331 Q1382.12 97.1518 1382.12 104.027 Q1382.12 110.902 1378.79 115.12 Q1375.48 119.339 1370.17 119.339 Q1366.97 119.339 1364.65 118.089 Q1362.36 116.813 1360.85 114.209 L1360.85 118.584 L1356.03 118.584 L1356.03 78.0634 L1360.85 78.0634 L1360.85 93.8445 Z" fill="#000000" fill-rule="nonzero" fill-opacity="1" /><path clip-path="url(#clip320)" d="M1408.66 90.2769 L1408.66 94.8081 Q1406.63 93.7664 1404.44 93.2456 Q1402.25 92.7248 1399.91 92.7248 Q1396.34 92.7248 1394.55 93.8185 Q1392.78 94.9123 1392.78 97.0997 Q1392.78 98.7664 1394.05 99.7299 Q1395.33 100.667 1399.18 101.527 L1400.82 101.891 Q1405.93 102.985 1408.06 104.99 Q1410.22 106.969 1410.22 110.537 Q1410.22 114.6 1406.99 116.969 Q1403.79 119.339 1398.17 119.339 Q1395.82 119.339 1393.27 118.87 Q1390.74 118.428 1387.93 117.516 L1387.93 112.568 Q1390.59 113.949 1393.17 114.652 Q1395.74 115.329 1398.27 115.329 Q1401.66 115.329 1403.48 114.183 Q1405.3 113.011 1405.3 110.902 Q1405.3 108.949 1403.97 107.907 Q1402.67 106.865 1398.22 105.902 L1396.55 105.511 Q1392.1 104.574 1390.12 102.647 Q1388.14 100.693 1388.14 97.3081 Q1388.14 93.1935 1391.06 90.9539 Q1393.97 88.7144 1399.34 88.7144 Q1401.99 88.7144 1404.34 89.105 Q1406.68 89.4956 1408.66 90.2769 Z" fill="#000000" fill-rule="nonzero" fill-opacity="1" /><path clip-path="url(#clip320)" d="M1440.98 77.829 L1440.98 131.162 L1436.55 131.162 L1436.55 77.829 L1440.98 77.829 Z" fill="#000000" fill-rule="nonzero" fill-opacity="1" /><path clip-path="url(#clip320)" d="M1492.44 95.0164 Q1494.23 91.7873 1496.73 90.2508 Q1499.23 88.7144 1502.62 88.7144 Q1507.18 88.7144 1509.65 91.9175 Q1512.12 95.0945 1512.12 100.98 L1512.12 118.584 L1507.31 118.584 L1507.31 101.136 Q1507.31 96.9435 1505.82 94.9123 Q1504.34 92.881 1501.29 92.881 Q1497.57 92.881 1495.4 95.355 Q1493.24 97.8289 1493.24 102.1 L1493.24 118.584 L1488.43 118.584 L1488.43 101.136 Q1488.43 96.9174 1486.94 94.9123 Q1485.46 92.881 1482.36 92.881 Q1478.69 92.881 1476.52 95.381 Q1474.36 97.8549 1474.36 102.1 L1474.36 118.584 L1469.55 118.584 L1469.55 89.4175 L1474.36 89.4175 L1474.36 93.9487 Q1476 91.2664 1478.3 89.9904 Q1480.59 88.7144 1483.74 88.7144 Q1486.92 88.7144 1489.13 90.3289 Q1491.37 91.9435 1492.44 95.0164 Z" fill="#000000" fill-rule="nonzero" fill-opacity="1" /><path clip-path="url(#clip320)" d="M1534.94 103.923 Q1529.13 103.923 1526.89 105.251 Q1524.65 106.579 1524.65 109.782 Q1524.65 112.334 1526.32 113.844 Q1528.01 115.329 1530.9 115.329 Q1534.88 115.329 1537.28 112.516 Q1539.7 109.678 1539.7 104.99 L1539.7 103.923 L1534.94 103.923 M1544.49 101.943 L1544.49 118.584 L1539.7 118.584 L1539.7 114.157 Q1538.06 116.813 1535.61 118.089 Q1533.17 119.339 1529.62 119.339 Q1525.14 119.339 1522.49 116.839 Q1519.86 114.313 1519.86 110.094 Q1519.86 105.173 1523.14 102.673 Q1526.45 100.173 1532.98 100.173 L1539.7 100.173 L1539.7 99.7039 Q1539.7 96.3966 1537.51 94.5998 Q1535.35 92.7768 1531.42 92.7768 Q1528.92 92.7768 1526.55 93.3758 Q1524.18 93.9748 1521.99 95.1727 L1521.99 90.7456 Q1524.62 89.73 1527.1 89.2352 Q1529.57 88.7144 1531.92 88.7144 Q1538.24 88.7144 1541.37 91.9956 Q1544.49 95.2768 1544.49 101.943 Z" fill="#000000" fill-rule="nonzero" fill-opacity="1" /><path clip-path="url(#clip320)" d="M1578.61 89.4175 L1568.06 103.61 L1579.15 118.584 L1573.5 118.584 L1565.01 107.126 L1556.52 118.584 L1550.87 118.584 L1562.2 103.324 L1551.84 89.4175 L1557.49 89.4175 L1565.22 99.8081 L1572.96 89.4175 L1578.61 89.4175 Z" fill="#000000" fill-rule="nonzero" fill-opacity="1" /><path clip-path="url(#clip320)" d="M1608.09 127.438 L1608.09 131.162 L1580.38 131.162 L1580.38 127.438 L1608.09 127.438 Z" fill="#000000" fill-rule="nonzero" fill-opacity="1" /><path clip-path="url(#clip320)" d="M1612.59 89.4175 L1617.38 89.4175 L1617.38 118.584 L1612.59 118.584 L1612.59 89.4175 M1612.59 78.0634 L1617.38 78.0634 L1617.38 84.1311 L1612.59 84.1311 L1612.59 78.0634 Z" fill="#000000" fill-rule="nonzero" fill-opacity="1" /><path clip-path="url(#clip320)" d="M1632.15 81.1363 L1632.15 89.4175 L1642.02 89.4175 L1642.02 93.1414 L1632.15 93.1414 L1632.15 108.975 Q1632.15 112.542 1633.11 113.558 Q1634.1 114.574 1637.1 114.574 L1642.02 114.574 L1642.02 118.584 L1637.1 118.584 Q1631.55 118.584 1629.44 116.527 Q1627.33 114.443 1627.33 108.975 L1627.33 93.1414 L1623.82 93.1414 L1623.82 89.4175 L1627.33 89.4175 L1627.33 81.1363 L1632.15 81.1363 Z" fill="#000000" fill-rule="nonzero" fill-opacity="1" /><path clip-path="url(#clip320)" d="M1673.27 102.803 L1673.27 105.147 L1651.24 105.147 Q1651.55 110.094 1654.21 112.699 Q1656.89 115.277 1661.65 115.277 Q1664.41 115.277 1666.99 114.6 Q1669.6 113.923 1672.15 112.568 L1672.15 117.1 Q1669.57 118.193 1666.86 118.766 Q1664.15 119.339 1661.37 119.339 Q1654.39 119.339 1650.3 115.277 Q1646.24 111.214 1646.24 104.287 Q1646.24 97.1258 1650.09 92.9331 Q1653.97 88.7144 1660.53 88.7144 Q1666.42 88.7144 1669.83 92.5164 Q1673.27 96.2925 1673.27 102.803 M1668.48 101.397 Q1668.42 97.4643 1666.26 95.1206 Q1664.13 92.7768 1660.59 92.7768 Q1656.58 92.7768 1654.15 95.0425 Q1651.76 97.3081 1651.39 101.423 L1668.48 101.397 Z" fill="#000000" fill-rule="nonzero" fill-opacity="1" /><path clip-path="url(#clip320)" d="M1698.03 93.8966 Q1697.23 93.4279 1696.26 93.2196 Q1695.33 92.9852 1694.18 92.9852 Q1690.12 92.9852 1687.93 95.6414 Q1685.77 98.2716 1685.77 103.219 L1685.77 118.584 L1680.95 118.584 L1680.95 89.4175 L1685.77 89.4175 L1685.77 93.9487 Q1687.28 91.2925 1689.7 90.0164 Q1692.12 88.7144 1695.59 88.7144 Q1696.08 88.7144 1696.68 88.7925 Q1697.28 88.8446 1698.01 88.9748 L1698.03 93.8966 Z" fill="#000000" fill-rule="nonzero" fill-opacity="1" /><path clip-path="url(#clip320)" d="M1720.64 94.3654 L1754.02 94.3654 L1754.02 98.7404 L1720.64 98.7404 L1720.64 94.3654 M1720.64 104.99 L1754.02 104.99 L1754.02 109.417 L1720.64 109.417 L1720.64 104.99 Z" fill="#000000" fill-rule="nonzero" fill-opacity="1" /><path clip-path="url(#clip320)" d="M1794.23 97.0477 Q1790.69 97.0477 1788.61 99.4695 Q1786.55 101.891 1786.55 106.11 Q1786.55 110.303 1788.61 112.751 Q1790.69 115.173 1794.23 115.173 Q1797.77 115.173 1799.83 112.751 Q1801.91 110.303 1801.91 106.11 Q1801.91 101.891 1799.83 99.4695 Q1797.77 97.0477 1794.23 97.0477 M1804.67 80.5634 L1804.67 85.355 Q1802.69 84.4175 1800.66 83.9227 Q1798.66 83.4279 1796.68 83.4279 Q1791.47 83.4279 1788.71 86.9435 Q1785.98 90.4592 1785.59 97.5685 Q1787.12 95.3029 1789.44 94.105 Q1791.76 92.881 1794.54 92.881 Q1800.4 92.881 1803.79 96.4487 Q1807.2 99.9903 1807.2 106.11 Q1807.2 112.1 1803.66 115.719 Q1800.12 119.339 1794.23 119.339 Q1787.49 119.339 1783.92 114.183 Q1780.35 109.001 1780.35 99.1831 Q1780.35 89.9644 1784.73 84.4956 Q1789.1 79.0009 1796.47 79.0009 Q1798.45 79.0009 1800.46 79.3915 Q1802.49 79.7821 1804.67 80.5634 Z" fill="#000000" fill-rule="nonzero" fill-opacity="1" /><path clip-path="url(#clip320)" d="M1827.51 83.1675 Q1823.45 83.1675 1821.39 87.1779 Q1819.36 91.1623 1819.36 99.1831 Q1819.36 107.178 1821.39 111.188 Q1823.45 115.173 1827.51 115.173 Q1831.6 115.173 1833.63 111.188 Q1835.69 107.178 1835.69 99.1831 Q1835.69 91.1623 1833.63 87.1779 Q1831.6 83.1675 1827.51 83.1675 M1827.51 79.0009 Q1834.05 79.0009 1837.49 84.1831 Q1840.95 89.3394 1840.95 99.1831 Q1840.95 109.001 1837.49 114.183 Q1834.05 119.339 1827.51 119.339 Q1820.98 119.339 1817.51 114.183 Q1814.08 109.001 1814.08 99.1831 Q1814.08 89.3394 1817.51 84.1831 Q1820.98 79.0009 1827.51 79.0009 Z" fill="#000000" fill-rule="nonzero" fill-opacity="1" /><polyline clip-path="url(#clip322)" style="stroke:#000080; stroke-linecap:round; stroke-linejoin:round; stroke-width:8; stroke-opacity:1; fill:none" points="594.16,1212.39 621.803,727.642 649.446,645.822 677.089,601.428 704.732,570.186 732.374,545.134 760.017,523.482 787.66,503.939 815.303,485.849 842.946,468.881 870.589,452.906 898.231,437.914 925.874,423.913 953.517,410.784 981.16,398.211 1008.8,385.788 1036.45,373.478 1064.09,361.979 1091.73,352.043 1119.37,343.787 1147.02,336.949 1174.66,331.203 1202.3,326.267 1229.95,321.947 1257.59,318.131 1285.23,314.749 1312.87,311.73 1340.52,309.008 1368.16,306.528 1395.8,304.242 1423.45,302.115 1451.09,300.113 1478.73,298.205 1506.37,296.363 1534.02,294.563 1561.66,292.78 1589.3,290.994 1616.95,289.187 1644.59,287.342 1672.23,285.444 1699.87,283.48 1727.52,281.436 1755.16,279.3 1782.8,277.058 1810.45,274.706 1838.09,272.247 1865.73,269.716 1893.37,267.177 1921.02,264.705 1948.66,262.364 1976.3,260.193 2003.95,258.215 2031.59,256.438 2059.23,254.857 2086.87,253.46 2114.52,252.226 2142.16,251.132 2169.8,250.149 2197.45,249.251 2225.09,248.412 "/>
<circle clip-path="url(#clip322)" cx="594.16" cy="1212.39" r="10.8" fill="#000080" fill-rule="evenodd" fill-opacity="1" stroke="#000000" stroke-opacity="1" stroke-width="3.2"/>
<circle clip-path="url(#clip322)" cx="621.803" cy="727.642" r="10.8" fill="#000080" fill-rule="evenodd" fill-opacity="1" stroke="#000000" stroke-opacity="1" stroke-width="3.2"/>
<circle clip-path="url(#clip322)" cx="649.446" cy="645.822" r="10.8" fill="#000080" fill-rule="evenodd" fill-opacity="1" stroke="#000000" stroke-opacity="1" stroke-width="3.2"/>
<circle clip-path="url(#clip322)" cx="677.089" cy="601.428" r="10.8" fill="#000080" fill-rule="evenodd" fill-opacity="1" stroke="#000000" stroke-opacity="1" stroke-width="3.2"/>
<circle clip-path="url(#clip322)" cx="704.732" cy="570.186" r="10.8" fill="#000080" fill-rule="evenodd" fill-opacity="1" stroke="#000000" stroke-opacity="1" stroke-width="3.2"/>
<circle clip-path="url(#clip322)" cx="732.374" cy="545.134" r="10.8" fill="#000080" fill-rule="evenodd" fill-opacity="1" stroke="#000000" stroke-opacity="1" stroke-width="3.2"/>
<circle clip-path="url(#clip322)" cx="760.017" cy="523.482" r="10.8" fill="#000080" fill-rule="evenodd" fill-opacity="1" stroke="#000000" stroke-opacity="1" stroke-width="3.2"/>
<circle clip-path="url(#clip322)" cx="787.66" cy="503.939" r="10.8" fill="#000080" fill-rule="evenodd" fill-opacity="1" stroke="#000000" stroke-opacity="1" stroke-width="3.2"/>
<circle clip-path="url(#clip322)" cx="815.303" cy="485.849" r="10.8" fill="#000080" fill-rule="evenodd" fill-opacity="1" stroke="#000000" stroke-opacity="1" stroke-width="3.2"/>
<circle clip-path="url(#clip322)" cx="842.946" cy="468.881" r="10.8" fill="#000080" fill-rule="evenodd" fill-opacity="1" stroke="#000000" stroke-opacity="1" stroke-width="3.2"/>
<circle clip-path="url(#clip322)" cx="870.589" cy="452.906" r="10.8" fill="#000080" fill-rule="evenodd" fill-opacity="1" stroke="#000000" stroke-opacity="1" stroke-width="3.2"/>
<circle clip-path="url(#clip322)" cx="898.231" cy="437.914" r="10.8" fill="#000080" fill-rule="evenodd" fill-opacity="1" stroke="#000000" stroke-opacity="1" stroke-width="3.2"/>
<circle clip-path="url(#clip322)" cx="925.874" cy="423.913" r="10.8" fill="#000080" fill-rule="evenodd" fill-opacity="1" stroke="#000000" stroke-opacity="1" stroke-width="3.2"/>
<circle clip-path="url(#clip322)" cx="953.517" cy="410.784" r="10.8" fill="#000080" fill-rule="evenodd" fill-opacity="1" stroke="#000000" stroke-opacity="1" stroke-width="3.2"/>
<circle clip-path="url(#clip322)" cx="981.16" cy="398.211" r="10.8" fill="#000080" fill-rule="evenodd" fill-opacity="1" stroke="#000000" stroke-opacity="1" stroke-width="3.2"/>
<circle clip-path="url(#clip322)" cx="1008.8" cy="385.788" r="10.8" fill="#000080" fill-rule="evenodd" fill-opacity="1" stroke="#000000" stroke-opacity="1" stroke-width="3.2"/>
<circle clip-path="url(#clip322)" cx="1036.45" cy="373.478" r="10.8" fill="#000080" fill-rule="evenodd" fill-opacity="1" stroke="#000000" stroke-opacity="1" stroke-width="3.2"/>
<circle clip-path="url(#clip322)" cx="1064.09" cy="361.979" r="10.8" fill="#000080" fill-rule="evenodd" fill-opacity="1" stroke="#000000" stroke-opacity="1" stroke-width="3.2"/>
<circle clip-path="url(#clip322)" cx="1091.73" cy="352.043" r="10.8" fill="#000080" fill-rule="evenodd" fill-opacity="1" stroke="#000000" stroke-opacity="1" stroke-width="3.2"/>
<circle clip-path="url(#clip322)" cx="1119.37" cy="343.787" r="10.8" fill="#000080" fill-rule="evenodd" fill-opacity="1" stroke="#000000" stroke-opacity="1" stroke-width="3.2"/>
<circle clip-path="url(#clip322)" cx="1147.02" cy="336.949" r="10.8" fill="#000080" fill-rule="evenodd" fill-opacity="1" stroke="#000000" stroke-opacity="1" stroke-width="3.2"/>
<circle clip-path="url(#clip322)" cx="1174.66" cy="331.203" r="10.8" fill="#000080" fill-rule="evenodd" fill-opacity="1" stroke="#000000" stroke-opacity="1" stroke-width="3.2"/>
<circle clip-path="url(#clip322)" cx="1202.3" cy="326.267" r="10.8" fill="#000080" fill-rule="evenodd" fill-opacity="1" stroke="#000000" stroke-opacity="1" stroke-width="3.2"/>
<circle clip-path="url(#clip322)" cx="1229.95" cy="321.947" r="10.8" fill="#000080" fill-rule="evenodd" fill-opacity="1" stroke="#000000" stroke-opacity="1" stroke-width="3.2"/>
<circle clip-path="url(#clip322)" cx="1257.59" cy="318.131" r="10.8" fill="#000080" fill-rule="evenodd" fill-opacity="1" stroke="#000000" stroke-opacity="1" stroke-width="3.2"/>
<circle clip-path="url(#clip322)" cx="1285.23" cy="314.749" r="10.8" fill="#000080" fill-rule="evenodd" fill-opacity="1" stroke="#000000" stroke-opacity="1" stroke-width="3.2"/>
<circle clip-path="url(#clip322)" cx="1312.87" cy="311.73" r="10.8" fill="#000080" fill-rule="evenodd" fill-opacity="1" stroke="#000000" stroke-opacity="1" stroke-width="3.2"/>
<circle clip-path="url(#clip322)" cx="1340.52" cy="309.008" r="10.8" fill="#000080" fill-rule="evenodd" fill-opacity="1" stroke="#000000" stroke-opacity="1" stroke-width="3.2"/>
<circle clip-path="url(#clip322)" cx="1368.16" cy="306.528" r="10.8" fill="#000080" fill-rule="evenodd" fill-opacity="1" stroke="#000000" stroke-opacity="1" stroke-width="3.2"/>
<circle clip-path="url(#clip322)" cx="1395.8" cy="304.242" r="10.8" fill="#000080" fill-rule="evenodd" fill-opacity="1" stroke="#000000" stroke-opacity="1" stroke-width="3.2"/>
<circle clip-path="url(#clip322)" cx="1423.45" cy="302.115" r="10.8" fill="#000080" fill-rule="evenodd" fill-opacity="1" stroke="#000000" stroke-opacity="1" stroke-width="3.2"/>
<circle clip-path="url(#clip322)" cx="1451.09" cy="300.113" r="10.8" fill="#000080" fill-rule="evenodd" fill-opacity="1" stroke="#000000" stroke-opacity="1" stroke-width="3.2"/>
<circle clip-path="url(#clip322)" cx="1478.73" cy="298.205" r="10.8" fill="#000080" fill-rule="evenodd" fill-opacity="1" stroke="#000000" stroke-opacity="1" stroke-width="3.2"/>
<circle clip-path="url(#clip322)" cx="1506.37" cy="296.363" r="10.8" fill="#000080" fill-rule="evenodd" fill-opacity="1" stroke="#000000" stroke-opacity="1" stroke-width="3.2"/>
<circle clip-path="url(#clip322)" cx="1534.02" cy="294.563" r="10.8" fill="#000080" fill-rule="evenodd" fill-opacity="1" stroke="#000000" stroke-opacity="1" stroke-width="3.2"/>
<circle clip-path="url(#clip322)" cx="1561.66" cy="292.78" r="10.8" fill="#000080" fill-rule="evenodd" fill-opacity="1" stroke="#000000" stroke-opacity="1" stroke-width="3.2"/>
<circle clip-path="url(#clip322)" cx="1589.3" cy="290.994" r="10.8" fill="#000080" fill-rule="evenodd" fill-opacity="1" stroke="#000000" stroke-opacity="1" stroke-width="3.2"/>
<circle clip-path="url(#clip322)" cx="1616.95" cy="289.187" r="10.8" fill="#000080" fill-rule="evenodd" fill-opacity="1" stroke="#000000" stroke-opacity="1" stroke-width="3.2"/>
<circle clip-path="url(#clip322)" cx="1644.59" cy="287.342" r="10.8" fill="#000080" fill-rule="evenodd" fill-opacity="1" stroke="#000000" stroke-opacity="1" stroke-width="3.2"/>
<circle clip-path="url(#clip322)" cx="1672.23" cy="285.444" r="10.8" fill="#000080" fill-rule="evenodd" fill-opacity="1" stroke="#000000" stroke-opacity="1" stroke-width="3.2"/>
<circle clip-path="url(#clip322)" cx="1699.87" cy="283.48" r="10.8" fill="#000080" fill-rule="evenodd" fill-opacity="1" stroke="#000000" stroke-opacity="1" stroke-width="3.2"/>
<circle clip-path="url(#clip322)" cx="1727.52" cy="281.436" r="10.8" fill="#000080" fill-rule="evenodd" fill-opacity="1" stroke="#000000" stroke-opacity="1" stroke-width="3.2"/>
<circle clip-path="url(#clip322)" cx="1755.16" cy="279.3" r="10.8" fill="#000080" fill-rule="evenodd" fill-opacity="1" stroke="#000000" stroke-opacity="1" stroke-width="3.2"/>
<circle clip-path="url(#clip322)" cx="1782.8" cy="277.058" r="10.8" fill="#000080" fill-rule="evenodd" fill-opacity="1" stroke="#000000" stroke-opacity="1" stroke-width="3.2"/>
<circle clip-path="url(#clip322)" cx="1810.45" cy="274.706" r="10.8" fill="#000080" fill-rule="evenodd" fill-opacity="1" stroke="#000000" stroke-opacity="1" stroke-width="3.2"/>
<circle clip-path="url(#clip322)" cx="1838.09" cy="272.247" r="10.8" fill="#000080" fill-rule="evenodd" fill-opacity="1" stroke="#000000" stroke-opacity="1" stroke-width="3.2"/>
<circle clip-path="url(#clip322)" cx="1865.73" cy="269.716" r="10.8" fill="#000080" fill-rule="evenodd" fill-opacity="1" stroke="#000000" stroke-opacity="1" stroke-width="3.2"/>
<circle clip-path="url(#clip322)" cx="1893.37" cy="267.177" r="10.8" fill="#000080" fill-rule="evenodd" fill-opacity="1" stroke="#000000" stroke-opacity="1" stroke-width="3.2"/>
<circle clip-path="url(#clip322)" cx="1921.02" cy="264.705" r="10.8" fill="#000080" fill-rule="evenodd" fill-opacity="1" stroke="#000000" stroke-opacity="1" stroke-width="3.2"/>
<circle clip-path="url(#clip322)" cx="1948.66" cy="262.364" r="10.8" fill="#000080" fill-rule="evenodd" fill-opacity="1" stroke="#000000" stroke-opacity="1" stroke-width="3.2"/>
<circle clip-path="url(#clip322)" cx="1976.3" cy="260.193" r="10.8" fill="#000080" fill-rule="evenodd" fill-opacity="1" stroke="#000000" stroke-opacity="1" stroke-width="3.2"/>
<circle clip-path="url(#clip322)" cx="2003.95" cy="258.215" r="10.8" fill="#000080" fill-rule="evenodd" fill-opacity="1" stroke="#000000" stroke-opacity="1" stroke-width="3.2"/>
<circle clip-path="url(#clip322)" cx="2031.59" cy="256.438" r="10.8" fill="#000080" fill-rule="evenodd" fill-opacity="1" stroke="#000000" stroke-opacity="1" stroke-width="3.2"/>
<circle clip-path="url(#clip322)" cx="2059.23" cy="254.857" r="10.8" fill="#000080" fill-rule="evenodd" fill-opacity="1" stroke="#000000" stroke-opacity="1" stroke-width="3.2"/>
<circle clip-path="url(#clip322)" cx="2086.87" cy="253.46" r="10.8" fill="#000080" fill-rule="evenodd" fill-opacity="1" stroke="#000000" stroke-opacity="1" stroke-width="3.2"/>
<circle clip-path="url(#clip322)" cx="2114.52" cy="252.226" r="10.8" fill="#000080" fill-rule="evenodd" fill-opacity="1" stroke="#000000" stroke-opacity="1" stroke-width="3.2"/>
<circle clip-path="url(#clip322)" cx="2142.16" cy="251.132" r="10.8" fill="#000080" fill-rule="evenodd" fill-opacity="1" stroke="#000000" stroke-opacity="1" stroke-width="3.2"/>
<circle clip-path="url(#clip322)" cx="2169.8" cy="250.149" r="10.8" fill="#000080" fill-rule="evenodd" fill-opacity="1" stroke="#000000" stroke-opacity="1" stroke-width="3.2"/>
<circle clip-path="url(#clip322)" cx="2197.45" cy="249.251" r="10.8" fill="#000080" fill-rule="evenodd" fill-opacity="1" stroke="#000000" stroke-opacity="1" stroke-width="3.2"/>
<circle clip-path="url(#clip322)" cx="2225.09" cy="248.412" r="10.8" fill="#000080" fill-rule="evenodd" fill-opacity="1" stroke="#000000" stroke-opacity="1" stroke-width="3.2"/>
</svg>
