<?xml version="1.0" encoding="utf-8"?>
<svg xmlns="http://www.w3.org/2000/svg" xmlns:xlink="http://www.w3.org/1999/xlink" width="700" height="500" viewBox="0 0 2800 2000">
<defs>
  <clipPath id="clip590">
    <rect x="0" y="0" width="2800" height="2000"/>
  </clipPath>
</defs>
<path clip-path="url(#clip590)" d="M0 2000 L2800 2000 L2800 -4.44089e-14 L0 -4.44089e-14  Z" fill="#ffffff" fill-rule="evenodd" fill-opacity="1"/>
<defs>
  <clipPath id="clip591">
    <rect x="494" y="125" width="2180" height="1506"/>
  </clipPath>
</defs>
<path clip-path="url(#clip590)" d="M494.525 1630.83 L2674.02 1630.83 L2674.02 125.984 L494.525 125.984  Z" fill="#ffffff" fill-rule="evenodd" fill-opacity="1"/>
<polyline clip-path="url(#clip591)" style="stroke:#000000; stroke-linecap:round; stroke-linejoin:round; stroke-width:2; stroke-opacity:0.1; fill:none" points="548.017,1630.83 548.017,125.984 "/>
<polyline clip-path="url(#clip591)" style="stroke:#000000; stroke-linecap:round; stroke-linejoin:round; stroke-width:2; stroke-opacity:0.1; fill:none" points="957.603,1630.83 957.603,125.984 "/>
<polyline clip-path="url(#clip591)" style="stroke:#000000; stroke-linecap:round; stroke-linejoin:round; stroke-width:2; stroke-opacity:0.1; fill:none" points="1367.19,1630.83 1367.19,125.984 "/>
<polyline clip-path="url(#clip591)" style="stroke:#000000; stroke-linecap:round; stroke-linejoin:round; stroke-width:2; stroke-opacity:0.1; fill:none" points="1776.78,1630.83 1776.78,125.984 "/>
<polyline clip-path="url(#clip591)" style="stroke:#000000; stroke-linecap:round; stroke-linejoin:round; stroke-width:2; stroke-opacity:0.1; fill:none" points="2186.36,1630.83 2186.36,125.984 "/>
<polyline clip-path="url(#clip591)" style="stroke:#000000; stroke-linecap:round; stroke-linejoin:round; stroke-width:2; stroke-opacity:0.1; fill:none" points="2595.95,1630.83 2595.95,125.984 "/>
<polyline clip-path="url(#clip591)" style="stroke:#000000; stroke-linecap:round; stroke-linejoin:round; stroke-width:2; stroke-opacity:0.1; fill:none" points="494.525,1566.77 2674.02,1566.77 "/>
<polyline clip-path="url(#clip591)" style="stroke:#000000; stroke-linecap:round; stroke-linejoin:round; stroke-width:2; stroke-opacity:0.1; fill:none" points="494.525,1231.19 2674.02,1231.19 "/>
<polyline clip-path="url(#clip591)" style="stroke:#000000; stroke-linecap:round; stroke-linejoin:round; stroke-width:2; stroke-opacity:0.1; fill:none" points="494.525,895.608 2674.02,895.608 "/>
<polyline clip-path="url(#clip591)" style="stroke:#000000; stroke-linecap:round; stroke-linejoin:round; stroke-width:2; stroke-opacity:0.1; fill:none" points="494.525,560.028 2674.02,560.028 "/>
<polyline clip-path="url(#clip591)" style="stroke:#000000; stroke-linecap:round; stroke-linejoin:round; stroke-width:2; stroke-opacity:0.1; fill:none" points="494.525,224.449 2674.02,224.449 "/>
<polyline clip-path="url(#clip590)" style="stroke:#000000; stroke-linecap:round; stroke-linejoin:round; stroke-width:4; stroke-opacity:1; fill:none" points="494.525,1630.83 2674.02,1630.83 "/>
<polyline clip-path="url(#clip590)" style="stroke:#000000; stroke-linecap:round; stroke-linejoin:round; stroke-width:4; stroke-opacity:1; fill:none" points="548.017,1630.83 548.017,1611.93 "/>
<polyline clip-path="url(#clip590)" style="stroke:#000000; stroke-linecap:round; stroke-linejoin:round; stroke-width:4; stroke-opacity:1; fill:none" points="957.603,1630.83 957.603,1611.93 "/>
<polyline clip-path="url(#clip590)" style="stroke:#000000; stroke-linecap:round; stroke-linejoin:round; stroke-width:4; stroke-opacity:1; fill:none" points="1367.19,1630.83 1367.19,1611.93 "/>
<polyline clip-path="url(#clip590)" style="stroke:#000000; stroke-linecap:round; stroke-linejoin:round; stroke-width:4; stroke-opacity:1; fill:none" points="1776.78,1630.83 1776.78,1611.93 "/>
<polyline clip-path="url(#clip590)" style="stroke:#000000; stroke-linecap:round; stroke-linejoin:round; stroke-width:4; stroke-opacity:1; fill:none" points="2186.36,1630.83 2186.36,1611.93 "/>
<polyline clip-path="url(#clip590)" style="stroke:#000000; stroke-linecap:round; stroke-linejoin:round; stroke-width:4; stroke-opacity:1; fill:none" points="2595.95,1630.83 2595.95,1611.93 "/>
<path clip-path="url(#clip590)" d="M548.017 1667.88 Q543.503 1667.88 541.217 1672.34 Q538.96 1676.76 538.96 1685.67 Q538.96 1694.56 541.217 1699.01 Q543.503 1703.44 548.017 1703.44 Q552.56 1703.44 554.817 1699.01 Q557.103 1694.56 557.103 1685.67 Q557.103 1676.76 554.817 1672.34 Q552.56 1667.88 548.017 1667.88 M548.017 1663.25 Q555.28 1663.25 559.099 1669.01 Q562.948 1674.74 562.948 1685.67 Q562.948 1696.58 559.099 1702.34 Q555.28 1708.07 548.017 1708.07 Q540.754 1708.07 536.906 1702.34 Q533.087 1696.58 533.087 1685.67 Q533.087 1674.74 536.906 1669.01 Q540.754 1663.25 548.017 1663.25 Z" fill="#000000" fill-rule="nonzero" fill-opacity="1" /><path clip-path="url(#clip590)" d="M925.977 1664.03 L948.923 1664.03 L948.923 1668.95 L931.33 1668.95 L931.33 1679.54 Q932.604 1679.11 933.877 1678.9 Q935.15 1678.67 936.423 1678.67 Q943.657 1678.67 947.881 1682.64 Q952.106 1686.6 952.106 1693.37 Q952.106 1700.34 947.765 1704.22 Q943.425 1708.07 935.526 1708.07 Q932.806 1708.07 929.97 1707.61 Q927.164 1707.14 924.155 1706.22 L924.155 1700.34 Q926.759 1701.76 929.536 1702.46 Q932.314 1703.15 935.41 1703.15 Q940.416 1703.15 943.338 1700.52 Q946.261 1697.89 946.261 1693.37 Q946.261 1688.86 943.338 1686.22 Q940.416 1683.59 935.41 1683.59 Q933.066 1683.59 930.723 1684.11 Q928.408 1684.63 925.977 1685.73 L925.977 1664.03 Z" fill="#000000" fill-rule="nonzero" fill-opacity="1" /><path clip-path="url(#clip590)" d="M976.122 1667.88 Q971.608 1667.88 969.322 1672.34 Q967.065 1676.76 967.065 1685.67 Q967.065 1694.56 969.322 1699.01 Q971.608 1703.44 976.122 1703.44 Q980.665 1703.44 982.922 1699.01 Q985.207 1694.56 985.207 1685.67 Q985.207 1676.76 982.922 1672.34 Q980.665 1667.88 976.122 1667.88 M976.122 1663.25 Q983.385 1663.25 987.204 1669.01 Q991.052 1674.74 991.052 1685.67 Q991.052 1696.58 987.204 1702.34 Q983.385 1708.07 976.122 1708.07 Q968.859 1708.07 965.011 1702.34 Q961.191 1696.58 961.191 1685.67 Q961.191 1674.74 965.011 1669.01 Q968.859 1663.25 976.122 1663.25 Z" fill="#000000" fill-rule="nonzero" fill-opacity="1" /><path clip-path="url(#clip590)" d="M1316.7 1702.31 L1326.25 1702.31 L1326.25 1669.36 L1315.86 1671.44 L1315.86 1666.11 L1326.19 1664.03 L1332.03 1664.03 L1332.03 1702.31 L1341.58 1702.31 L1341.58 1707.23 L1316.7 1707.23 L1316.7 1702.31 Z" fill="#000000" fill-rule="nonzero" fill-opacity="1" /><path clip-path="url(#clip590)" d="M1365.89 1667.88 Q1361.37 1667.88 1359.09 1672.34 Q1356.83 1676.76 1356.83 1685.67 Q1356.83 1694.56 1359.09 1699.01 Q1361.37 1703.44 1365.89 1703.44 Q1370.43 1703.44 1372.69 1699.01 Q1374.97 1694.56 1374.97 1685.67 Q1374.97 1676.76 1372.69 1672.34 Q1370.43 1667.88 1365.89 1667.88 M1365.89 1663.25 Q1373.15 1663.25 1376.97 1669.01 Q1380.82 1674.74 1380.82 1685.67 Q1380.82 1696.58 1376.97 1702.34 Q1373.15 1708.07 1365.89 1708.07 Q1358.62 1708.07 1354.78 1702.34 Q1350.96 1696.58 1350.96 1685.67 Q1350.96 1674.74 1354.78 1669.01 Q1358.62 1663.25 1365.89 1663.25 Z" fill="#000000" fill-rule="nonzero" fill-opacity="1" /><path clip-path="url(#clip590)" d="M1403.59 1667.88 Q1399.08 1667.88 1396.79 1672.34 Q1394.53 1676.76 1394.53 1685.67 Q1394.53 1694.56 1396.79 1699.01 Q1399.08 1703.44 1403.59 1703.44 Q1408.13 1703.44 1410.39 1699.01 Q1412.68 1694.56 1412.68 1685.67 Q1412.68 1676.76 1410.39 1672.34 Q1408.13 1667.88 1403.59 1667.88 M1403.59 1663.25 Q1410.85 1663.25 1414.67 1669.01 Q1418.52 1674.74 1418.52 1685.67 Q1418.52 1696.58 1414.67 1702.34 Q1410.85 1708.07 1403.59 1708.07 Q1396.33 1708.07 1392.48 1702.34 Q1388.66 1696.58 1388.66 1685.67 Q1388.66 1674.74 1392.48 1669.01 Q1396.33 1663.25 1403.59 1663.25 Z" fill="#000000" fill-rule="nonzero" fill-opacity="1" /><path clip-path="url(#clip590)" d="M1726.28 1702.31 L1735.83 1702.31 L1735.83 1669.36 L1725.45 1671.44 L1725.45 1666.11 L1735.78 1664.03 L1741.62 1664.03 L1741.62 1702.31 L1751.17 1702.31 L1751.17 1707.23 L1726.28 1707.23 L1726.28 1702.31 Z" fill="#000000" fill-rule="nonzero" fill-opacity="1" /><path clip-path="url(#clip590)" d="M1763.03 1664.03 L1785.98 1664.03 L1785.98 1668.95 L1768.38 1668.95 L1768.38 1679.54 Q1769.66 1679.11 1770.93 1678.9 Q1772.2 1678.67 1773.48 1678.67 Q1780.71 1678.67 1784.94 1682.64 Q1789.16 1686.6 1789.16 1693.37 Q1789.16 1700.34 1784.82 1704.22 Q1780.48 1708.07 1772.58 1708.07 Q1769.86 1708.07 1767.02 1707.61 Q1764.22 1707.14 1761.21 1706.22 L1761.21 1700.34 Q1763.81 1701.76 1766.59 1702.46 Q1769.37 1703.15 1772.46 1703.15 Q1777.47 1703.15 1780.39 1700.52 Q1783.32 1697.89 1783.32 1693.37 Q1783.32 1688.86 1780.39 1686.22 Q1777.47 1683.59 1772.46 1683.59 Q1770.12 1683.59 1767.78 1684.11 Q1765.46 1684.63 1763.03 1685.73 L1763.03 1664.03 Z" fill="#000000" fill-rule="nonzero" fill-opacity="1" /><path clip-path="url(#clip590)" d="M1813.18 1667.88 Q1808.66 1667.88 1806.38 1672.34 Q1804.12 1676.76 1804.12 1685.67 Q1804.12 1694.56 1806.38 1699.01 Q1808.66 1703.44 1813.18 1703.44 Q1817.72 1703.44 1819.98 1699.01 Q1822.26 1694.56 1822.26 1685.67 Q1822.26 1676.76 1819.98 1672.34 Q1817.72 1667.88 1813.18 1667.88 M1813.18 1663.25 Q1820.44 1663.25 1824.26 1669.01 Q1828.11 1674.74 1828.11 1685.67 Q1828.11 1696.58 1824.26 1702.34 Q1820.44 1708.07 1813.18 1708.07 Q1805.91 1708.07 1802.07 1702.34 Q1798.25 1696.58 1798.25 1685.67 Q1798.25 1674.74 1802.07 1669.01 Q1805.91 1663.25 1813.18 1663.25 Z" fill="#000000" fill-rule="nonzero" fill-opacity="1" /><path clip-path="url(#clip590)" d="M2140.98 1702.31 L2161.38 1702.31 L2161.38 1707.23 L2133.95 1707.23 L2133.95 1702.31 Q2137.27 1698.87 2143 1693.08 Q2148.76 1687.27 2150.24 1685.59 Q2153.04 1682.43 2154.14 1680.26 Q2155.27 1678.06 2155.27 1675.95 Q2155.27 1672.51 2152.84 1670.34 Q2150.44 1668.17 2146.56 1668.17 Q2143.81 1668.17 2140.75 1669.12 Q2137.71 1670.08 2134.24 1672.02 L2134.24 1666.11 Q2137.77 1664.7 2140.83 1663.97 Q2143.9 1663.25 2146.45 1663.25 Q2153.16 1663.25 2157.15 1666.61 Q2161.15 1669.96 2161.15 1675.58 Q2161.15 1678.24 2160.13 1680.64 Q2159.15 1683.01 2156.52 1686.25 Q2155.79 1687.09 2151.92 1691.11 Q2148.04 1695.11 2140.98 1702.31 Z" fill="#000000" fill-rule="nonzero" fill-opacity="1" /><path clip-path="url(#clip590)" d="M2186.15 1667.88 Q2181.63 1667.88 2179.35 1672.34 Q2177.09 1676.76 2177.09 1685.67 Q2177.09 1694.56 2179.35 1699.01 Q2181.63 1703.44 2186.15 1703.44 Q2190.69 1703.44 2192.95 1699.01 Q2195.23 1694.56 2195.23 1685.67 Q2195.23 1676.76 2192.95 1672.34 Q2190.69 1667.88 2186.15 1667.88 M2186.15 1663.25 Q2193.41 1663.25 2197.23 1669.01 Q2201.08 1674.74 2201.08 1685.67 Q2201.08 1696.58 2197.23 1702.34 Q2193.41 1708.07 2186.15 1708.07 Q2178.88 1708.07 2175.03 1702.34 Q2171.21 1696.58 2171.21 1685.67 Q2171.21 1674.74 2175.03 1669.01 Q2178.88 1663.25 2186.15 1663.25 Z" fill="#000000" fill-rule="nonzero" fill-opacity="1" /><path clip-path="url(#clip590)" d="M2223.85 1667.88 Q2219.33 1667.88 2217.05 1672.34 Q2214.79 1676.76 2214.79 1685.67 Q2214.79 1694.56 2217.05 1699.01 Q2219.33 1703.44 2223.85 1703.44 Q2228.39 1703.44 2230.65 1699.01 Q2232.93 1694.56 2232.93 1685.67 Q2232.93 1676.76 2230.65 1672.34 Q2228.39 1667.88 2223.85 1667.88 M2223.85 1663.25 Q2231.11 1663.25 2234.93 1669.01 Q2238.78 1674.74 2238.78 1685.67 Q2238.78 1696.58 2234.93 1702.34 Q2231.11 1708.07 2223.85 1708.07 Q2216.58 1708.07 2212.74 1702.34 Q2208.92 1696.58 2208.92 1685.67 Q2208.92 1674.74 2212.74 1669.01 Q2216.58 1663.25 2223.85 1663.25 Z" fill="#000000" fill-rule="nonzero" fill-opacity="1" /><path clip-path="url(#clip590)" d="M2550.56 1702.31 L2570.96 1702.31 L2570.96 1707.23 L2543.53 1707.23 L2543.53 1702.31 Q2546.86 1698.87 2552.59 1693.08 Q2558.35 1687.27 2559.82 1685.59 Q2562.63 1682.43 2563.73 1680.26 Q2564.86 1678.06 2564.86 1675.95 Q2564.86 1672.51 2562.43 1670.34 Q2560.03 1668.17 2556.15 1668.17 Q2553.4 1668.17 2550.33 1669.12 Q2547.29 1670.08 2543.82 1672.02 L2543.82 1666.11 Q2547.35 1664.7 2550.42 1663.97 Q2553.49 1663.25 2556.03 1663.25 Q2562.75 1663.25 2566.74 1666.61 Q2570.73 1669.96 2570.73 1675.58 Q2570.73 1678.24 2569.72 1680.64 Q2568.74 1683.01 2566.1 1686.25 Q2565.38 1687.09 2561.5 1691.11 Q2557.62 1695.11 2550.56 1702.31 Z" fill="#000000" fill-rule="nonzero" fill-opacity="1" /><path clip-path="url(#clip590)" d="M2583.29 1664.03 L2606.24 1664.03 L2606.24 1668.95 L2588.64 1668.95 L2588.64 1679.54 Q2589.92 1679.11 2591.19 1678.9 Q2592.46 1678.67 2593.74 1678.67 Q2600.97 1678.67 2605.19 1682.64 Q2609.42 1686.6 2609.42 1693.37 Q2609.42 1700.34 2605.08 1704.22 Q2600.74 1708.07 2592.84 1708.07 Q2590.12 1708.07 2587.28 1707.61 Q2584.48 1707.14 2581.47 1706.22 L2581.47 1700.34 Q2584.07 1701.76 2586.85 1702.46 Q2589.63 1703.15 2592.72 1703.15 Q2597.73 1703.15 2600.65 1700.52 Q2603.57 1697.89 2603.57 1693.37 Q2603.57 1688.86 2600.65 1686.22 Q2597.73 1683.59 2592.72 1683.59 Q2590.38 1683.59 2588.03 1684.11 Q2585.72 1684.63 2583.29 1685.73 L2583.29 1664.03 Z" fill="#000000" fill-rule="nonzero" fill-opacity="1" /><path clip-path="url(#clip590)" d="M2633.43 1667.88 Q2628.92 1667.88 2626.63 1672.34 Q2624.38 1676.76 2624.38 1685.67 Q2624.38 1694.56 2626.63 1699.01 Q2628.92 1703.44 2633.43 1703.44 Q2637.98 1703.44 2640.23 1699.01 Q2642.52 1694.56 2642.52 1685.67 Q2642.52 1676.76 2640.23 1672.34 Q2637.98 1667.88 2633.43 1667.88 M2633.43 1663.25 Q2640.7 1663.25 2644.52 1669.01 Q2648.36 1674.74 2648.36 1685.67 Q2648.36 1696.58 2644.52 1702.34 Q2640.7 1708.07 2633.43 1708.07 Q2626.17 1708.07 2622.32 1702.34 Q2618.5 1696.58 2618.5 1685.67 Q2618.5 1674.74 2622.32 1669.01 Q2626.17 1663.25 2633.43 1663.25 Z" fill="#000000" fill-rule="nonzero" fill-opacity="1" /><path clip-path="url(#clip590)" d="M1291.13 1747.14 L1297.56 1747.14 L1297.56 1789.24 L1320.7 1789.24 L1320.7 1794.66 L1291.13 1794.66 L1291.13 1747.14 Z" fill="#000000" fill-rule="nonzero" fill-opacity="1" /><path clip-path="url(#clip590)" d="M1343.39 1776.74 Q1336.29 1776.74 1333.56 1778.36 Q1330.82 1779.98 1330.82 1783.9 Q1330.82 1787.02 1332.86 1788.86 Q1334.93 1790.68 1338.46 1790.68 Q1343.33 1790.68 1346.26 1787.24 Q1349.22 1783.77 1349.22 1778.04 L1349.22 1776.74 L1343.39 1776.74 M1355.07 1774.32 L1355.07 1794.66 L1349.22 1794.66 L1349.22 1789.24 Q1347.21 1792.49 1344.22 1794.05 Q1341.23 1795.58 1336.9 1795.58 Q1331.42 1795.58 1328.18 1792.52 Q1324.96 1789.44 1324.96 1784.28 Q1324.96 1778.26 1328.97 1775.21 Q1333.02 1772.15 1341 1772.15 L1349.22 1772.15 L1349.22 1771.58 Q1349.22 1767.54 1346.54 1765.34 Q1343.9 1763.11 1339.1 1763.11 Q1336.04 1763.11 1333.14 1763.85 Q1330.25 1764.58 1327.57 1766.04 L1327.57 1760.63 Q1330.79 1759.39 1333.81 1758.78 Q1336.84 1758.15 1339.7 1758.15 Q1347.43 1758.15 1351.25 1762.16 Q1355.07 1766.17 1355.07 1774.32 Z" fill="#000000" fill-rule="nonzero" fill-opacity="1" /><path clip-path="url(#clip590)" d="M1390.59 1776.42 Q1390.59 1770.05 1387.95 1766.55 Q1385.34 1763.05 1380.6 1763.05 Q1375.89 1763.05 1373.25 1766.55 Q1370.64 1770.05 1370.64 1776.42 Q1370.64 1782.75 1373.25 1786.25 Q1375.89 1789.75 1380.6 1789.75 Q1385.34 1789.75 1387.95 1786.25 Q1390.59 1782.75 1390.59 1776.42 M1396.45 1790.23 Q1396.45 1799.33 1392.41 1803.76 Q1388.37 1808.21 1380.03 1808.21 Q1376.94 1808.21 1374.2 1807.74 Q1371.46 1807.29 1368.89 1806.34 L1368.89 1800.64 Q1371.46 1802.04 1373.98 1802.71 Q1376.49 1803.38 1379.1 1803.38 Q1384.86 1803.38 1387.73 1800.35 Q1390.59 1797.36 1390.59 1791.28 L1390.59 1788.39 Q1388.78 1791.54 1385.95 1793.1 Q1383.11 1794.66 1379.17 1794.66 Q1372.61 1794.66 1368.6 1789.66 Q1364.59 1784.66 1364.59 1776.42 Q1364.59 1768.14 1368.6 1763.15 Q1372.61 1758.15 1379.17 1758.15 Q1383.11 1758.15 1385.95 1759.71 Q1388.78 1761.27 1390.59 1764.42 L1390.59 1759.01 L1396.45 1759.01 L1396.45 1790.23 Z" fill="#000000" fill-rule="nonzero" fill-opacity="1" /><path clip-path="url(#clip590)" d="M1443.3 1745.19 Q1439.04 1752.51 1436.97 1759.68 Q1434.9 1766.84 1434.9 1774.19 Q1434.9 1781.54 1436.97 1788.77 Q1439.07 1795.96 1443.3 1803.25 L1438.21 1803.25 Q1433.44 1795.77 1431.05 1788.54 Q1428.69 1781.32 1428.69 1774.19 Q1428.69 1767.09 1431.05 1759.9 Q1433.4 1752.71 1438.21 1745.19 L1443.3 1745.19 Z" fill="#000000" fill-rule="nonzero" fill-opacity="1" /><path clip-path="url(#clip590)" d="M1460.46 1748.89 L1460.46 1759.01 L1472.52 1759.01 L1472.52 1763.56 L1460.46 1763.56 L1460.46 1782.91 Q1460.46 1787.27 1461.64 1788.51 Q1462.84 1789.75 1466.5 1789.75 L1472.52 1789.75 L1472.52 1794.66 L1466.5 1794.66 Q1459.73 1794.66 1457.15 1792.14 Q1454.57 1789.59 1454.57 1782.91 L1454.57 1763.56 L1450.27 1763.56 L1450.27 1759.01 L1454.57 1759.01 L1454.57 1748.89 L1460.46 1748.89 Z" fill="#000000" fill-rule="nonzero" fill-opacity="1" /><path clip-path="url(#clip590)" d="M1500.88 1764.48 Q1499.89 1763.91 1498.72 1763.65 Q1497.57 1763.37 1496.17 1763.37 Q1491.2 1763.37 1488.53 1766.61 Q1485.89 1769.83 1485.89 1775.88 L1485.89 1794.66 L1480 1794.66 L1480 1759.01 L1485.89 1759.01 L1485.89 1764.55 Q1487.73 1761.3 1490.69 1759.74 Q1493.65 1758.15 1497.89 1758.15 Q1498.49 1758.15 1499.22 1758.24 Q1499.96 1758.31 1500.85 1758.47 L1500.88 1764.48 Z" fill="#000000" fill-rule="nonzero" fill-opacity="1" /><path clip-path="url(#clip590)" d="M1523.22 1776.74 Q1516.13 1776.74 1513.39 1778.36 Q1510.65 1779.98 1510.65 1783.9 Q1510.65 1787.02 1512.69 1788.86 Q1514.76 1790.68 1518.29 1790.68 Q1523.16 1790.68 1526.09 1787.24 Q1529.05 1783.77 1529.05 1778.04 L1529.05 1776.74 L1523.22 1776.74 M1534.9 1774.32 L1534.9 1794.66 L1529.05 1794.66 L1529.05 1789.24 Q1527.04 1792.49 1524.05 1794.05 Q1521.06 1795.58 1516.73 1795.58 Q1511.26 1795.58 1508.01 1792.52 Q1504.79 1789.44 1504.79 1784.28 Q1504.79 1778.26 1508.8 1775.21 Q1512.85 1772.15 1520.84 1772.15 L1529.05 1772.15 L1529.05 1771.58 Q1529.05 1767.54 1526.37 1765.34 Q1523.73 1763.11 1518.93 1763.11 Q1515.87 1763.11 1512.97 1763.85 Q1510.08 1764.58 1507.4 1766.04 L1507.4 1760.63 Q1510.62 1759.39 1513.64 1758.78 Q1516.67 1758.15 1519.53 1758.15 Q1527.27 1758.15 1531.08 1762.16 Q1534.9 1766.17 1534.9 1774.32 Z" fill="#000000" fill-rule="nonzero" fill-opacity="1" /><path clip-path="url(#clip590)" d="M1570.43 1764.42 L1570.43 1745.13 L1576.28 1745.13 L1576.28 1794.66 L1570.43 1794.66 L1570.43 1789.31 Q1568.58 1792.49 1565.75 1794.05 Q1562.95 1795.58 1559 1795.58 Q1552.54 1795.58 1548.46 1790.42 Q1544.42 1785.27 1544.42 1776.86 Q1544.42 1768.46 1548.46 1763.3 Q1552.54 1758.15 1559 1758.15 Q1562.95 1758.15 1565.75 1759.71 Q1568.58 1761.24 1570.43 1764.42 M1550.47 1776.86 Q1550.47 1783.32 1553.11 1787.02 Q1555.78 1790.68 1560.43 1790.68 Q1565.08 1790.68 1567.75 1787.02 Q1570.43 1783.32 1570.43 1776.86 Q1570.43 1770.4 1567.75 1766.74 Q1565.08 1763.05 1560.43 1763.05 Q1555.78 1763.05 1553.11 1766.74 Q1550.47 1770.4 1550.47 1776.86 Z" fill="#000000" fill-rule="nonzero" fill-opacity="1" /><path clip-path="url(#clip590)" d="M1588.34 1759.01 L1594.2 1759.01 L1594.2 1794.66 L1588.34 1794.66 L1588.34 1759.01 M1588.34 1745.13 L1594.2 1745.13 L1594.2 1752.55 L1588.34 1752.55 L1588.34 1745.13 Z" fill="#000000" fill-rule="nonzero" fill-opacity="1" /><path clip-path="url(#clip590)" d="M1636.09 1773.14 L1636.09 1794.66 L1630.23 1794.66 L1630.23 1773.33 Q1630.23 1768.27 1628.26 1765.76 Q1626.28 1763.24 1622.34 1763.24 Q1617.59 1763.24 1614.86 1766.26 Q1612.12 1769.29 1612.12 1774.51 L1612.12 1794.66 L1606.23 1794.66 L1606.23 1759.01 L1612.12 1759.01 L1612.12 1764.55 Q1614.22 1761.33 1617.05 1759.74 Q1619.92 1758.15 1623.64 1758.15 Q1629.79 1758.15 1632.94 1761.97 Q1636.09 1765.76 1636.09 1773.14 Z" fill="#000000" fill-rule="nonzero" fill-opacity="1" /><path clip-path="url(#clip590)" d="M1671.23 1776.42 Q1671.23 1770.05 1668.58 1766.55 Q1665.97 1763.05 1661.23 1763.05 Q1656.52 1763.05 1653.88 1766.55 Q1651.27 1770.05 1651.27 1776.42 Q1651.27 1782.75 1653.88 1786.25 Q1656.52 1789.75 1661.23 1789.75 Q1665.97 1789.75 1668.58 1786.25 Q1671.23 1782.75 1671.23 1776.42 M1677.08 1790.23 Q1677.08 1799.33 1673.04 1803.76 Q1669 1808.21 1660.66 1808.21 Q1657.57 1808.21 1654.83 1807.74 Q1652.1 1807.29 1649.52 1806.34 L1649.52 1800.64 Q1652.1 1802.04 1654.61 1802.71 Q1657.13 1803.38 1659.74 1803.38 Q1665.5 1803.38 1668.36 1800.35 Q1671.23 1797.36 1671.23 1791.28 L1671.23 1788.39 Q1669.41 1791.54 1666.58 1793.1 Q1663.75 1794.66 1659.8 1794.66 Q1653.24 1794.66 1649.23 1789.66 Q1645.22 1784.66 1645.22 1776.42 Q1645.22 1768.14 1649.23 1763.15 Q1653.24 1758.15 1659.8 1758.15 Q1663.75 1758.15 1666.58 1759.71 Q1669.41 1761.27 1671.23 1764.42 L1671.23 1759.01 L1677.08 1759.01 L1677.08 1790.23 Z" fill="#000000" fill-rule="nonzero" fill-opacity="1" /><path clip-path="url(#clip590)" d="M1733.32 1764.42 L1733.32 1745.13 L1739.18 1745.13 L1739.18 1794.66 L1733.32 1794.66 L1733.32 1789.31 Q1731.48 1792.49 1728.64 1794.05 Q1725.84 1795.58 1721.9 1795.58 Q1715.44 1795.58 1711.36 1790.42 Q1707.32 1785.27 1707.32 1776.86 Q1707.32 1768.46 1711.36 1763.3 Q1715.44 1758.15 1721.9 1758.15 Q1725.84 1758.15 1728.64 1759.71 Q1731.48 1761.24 1733.32 1764.42 M1713.37 1776.86 Q1713.37 1783.32 1716.01 1787.02 Q1718.68 1790.68 1723.33 1790.68 Q1727.98 1790.68 1730.65 1787.02 Q1733.32 1783.32 1733.32 1776.86 Q1733.32 1770.4 1730.65 1766.74 Q1727.98 1763.05 1723.33 1763.05 Q1718.68 1763.05 1716.01 1766.74 Q1713.37 1770.4 1713.37 1776.86 Z" fill="#000000" fill-rule="nonzero" fill-opacity="1" /><path clip-path="url(#clip590)" d="M1767.44 1776.74 Q1760.35 1776.74 1757.61 1778.36 Q1754.87 1779.98 1754.87 1783.9 Q1754.87 1787.02 1756.91 1788.86 Q1758.98 1790.68 1762.51 1790.68 Q1767.38 1790.68 1770.31 1787.24 Q1773.27 1783.77 1773.27 1778.04 L1773.27 1776.74 L1767.44 1776.74 M1779.12 1774.32 L1779.12 1794.66 L1773.27 1794.66 L1773.27 1789.24 Q1771.26 1792.49 1768.27 1794.05 Q1765.28 1795.58 1760.95 1795.58 Q1755.48 1795.58 1752.23 1792.52 Q1749.01 1789.44 1749.01 1784.28 Q1749.01 1778.26 1753.03 1775.21 Q1757.07 1772.15 1765.06 1772.15 L1773.27 1772.15 L1773.27 1771.58 Q1773.27 1767.54 1770.59 1765.34 Q1767.95 1763.11 1763.15 1763.11 Q1760.09 1763.11 1757.19 1763.85 Q1754.3 1764.58 1751.62 1766.04 L1751.62 1760.63 Q1754.84 1759.39 1757.86 1758.78 Q1760.89 1758.15 1763.75 1758.15 Q1771.49 1758.15 1775.31 1762.16 Q1779.12 1766.17 1779.12 1774.32 Z" fill="#000000" fill-rule="nonzero" fill-opacity="1" /><path clip-path="url(#clip590)" d="M1806.02 1797.97 Q1803.54 1804.33 1801.18 1806.27 Q1798.83 1808.21 1794.88 1808.21 L1790.2 1808.21 L1790.2 1803.31 L1793.64 1803.31 Q1796.06 1803.31 1797.39 1802.17 Q1798.73 1801.02 1800.35 1796.76 L1801.4 1794.08 L1786.99 1759.01 L1793.19 1759.01 L1804.33 1786.89 L1815.47 1759.01 L1821.68 1759.01 L1806.02 1797.97 Z" fill="#000000" fill-rule="nonzero" fill-opacity="1" /><path clip-path="url(#clip590)" d="M1852.49 1760.06 L1852.49 1765.6 Q1850.01 1764.32 1847.33 1763.69 Q1844.66 1763.05 1841.8 1763.05 Q1837.43 1763.05 1835.24 1764.39 Q1833.07 1765.72 1833.07 1768.4 Q1833.07 1770.43 1834.63 1771.61 Q1836.19 1772.76 1840.9 1773.81 L1842.91 1774.25 Q1849.15 1775.59 1851.76 1778.04 Q1854.4 1780.46 1854.4 1784.82 Q1854.4 1789.79 1850.45 1792.68 Q1846.54 1795.58 1839.66 1795.58 Q1836.8 1795.58 1833.68 1795.01 Q1830.59 1794.46 1827.15 1793.35 L1827.15 1787.3 Q1830.4 1788.99 1833.55 1789.85 Q1836.7 1790.68 1839.79 1790.68 Q1843.93 1790.68 1846.16 1789.28 Q1848.38 1787.84 1848.38 1785.27 Q1848.38 1782.88 1846.76 1781.61 Q1845.17 1780.33 1839.73 1779.16 L1837.69 1778.68 Q1832.25 1777.53 1829.83 1775.18 Q1827.41 1772.79 1827.41 1768.65 Q1827.41 1763.62 1830.97 1760.89 Q1834.54 1758.15 1841.09 1758.15 Q1844.34 1758.15 1847.21 1758.63 Q1850.07 1759.1 1852.49 1760.06 Z" fill="#000000" fill-rule="nonzero" fill-opacity="1" /><path clip-path="url(#clip590)" d="M1862.8 1745.19 L1867.89 1745.19 Q1872.67 1752.71 1875.02 1759.9 Q1877.41 1767.09 1877.41 1774.19 Q1877.41 1781.32 1875.02 1788.54 Q1872.67 1795.77 1867.89 1803.25 L1862.8 1803.25 Q1867.04 1795.96 1869.1 1788.77 Q1871.2 1781.54 1871.2 1774.19 Q1871.2 1766.84 1869.1 1759.68 Q1867.04 1752.51 1862.8 1745.19 Z" fill="#000000" fill-rule="nonzero" fill-opacity="1" /><polyline clip-path="url(#clip590)" style="stroke:#000000; stroke-linecap:round; stroke-linejoin:round; stroke-width:4; stroke-opacity:1; fill:none" points="494.525,1630.83 494.525,125.984 "/>
<polyline clip-path="url(#clip590)" style="stroke:#000000; stroke-linecap:round; stroke-linejoin:round; stroke-width:4; stroke-opacity:1; fill:none" points="494.525,1566.77 513.423,1566.77 "/>
<polyline clip-path="url(#clip590)" style="stroke:#000000; stroke-linecap:round; stroke-linejoin:round; stroke-width:4; stroke-opacity:1; fill:none" points="494.525,1231.19 513.423,1231.19 "/>
<polyline clip-path="url(#clip590)" style="stroke:#000000; stroke-linecap:round; stroke-linejoin:round; stroke-width:4; stroke-opacity:1; fill:none" points="494.525,895.608 513.423,895.608 "/>
<polyline clip-path="url(#clip590)" style="stroke:#000000; stroke-linecap:round; stroke-linejoin:round; stroke-width:4; stroke-opacity:1; fill:none" points="494.525,560.028 513.423,560.028 "/>
<polyline clip-path="url(#clip590)" style="stroke:#000000; stroke-linecap:round; stroke-linejoin:round; stroke-width:4; stroke-opacity:1; fill:none" points="494.525,224.449 513.423,224.449 "/>
<path clip-path="url(#clip590)" d="M320.379 1567.33 L357.474 1567.33 L357.474 1572.25 L320.379 1572.25 L320.379 1567.33 Z" fill="#000000" fill-rule="nonzero" fill-opacity="1" /><path clip-path="url(#clip590)" d="M382.589 1549.01 Q378.075 1549.01 375.789 1553.47 Q373.533 1557.9 373.533 1566.81 Q373.533 1575.69 375.789 1580.15 Q378.075 1584.58 382.589 1584.58 Q387.132 1584.58 389.389 1580.15 Q391.675 1575.69 391.675 1566.81 Q391.675 1557.9 389.389 1553.47 Q387.132 1549.01 382.589 1549.01 M382.589 1544.39 Q389.852 1544.39 393.671 1550.14 Q397.52 1555.87 397.52 1566.81 Q397.52 1577.72 393.671 1583.48 Q389.852 1589.21 382.589 1589.21 Q375.326 1589.21 371.478 1583.48 Q367.659 1577.72 367.659 1566.81 Q367.659 1555.87 371.478 1550.14 Q375.326 1544.39 382.589 1544.39 Z" fill="#000000" fill-rule="nonzero" fill-opacity="1" /><path clip-path="url(#clip590)" d="M407.792 1581.02 L413.897 1581.02 L413.897 1588.37 L407.792 1588.37 L407.792 1581.02 Z" fill="#000000" fill-rule="nonzero" fill-opacity="1" /><path clip-path="url(#clip590)" d="M427.641 1583.45 L437.19 1583.45 L437.19 1550.49 L426.802 1552.57 L426.802 1547.25 L437.132 1545.17 L442.977 1545.17 L442.977 1583.45 L452.525 1583.45 L452.525 1588.37 L427.641 1588.37 L427.641 1583.45 Z" fill="#000000" fill-rule="nonzero" fill-opacity="1" /><path clip-path="url(#clip590)" d="M381.056 1213.44 Q376.542 1213.44 374.256 1217.89 Q371.999 1222.32 371.999 1231.23 Q371.999 1240.11 374.256 1244.57 Q376.542 1249 381.056 1249 Q385.598 1249 387.855 1244.57 Q390.141 1240.11 390.141 1231.23 Q390.141 1222.32 387.855 1217.89 Q385.598 1213.44 381.056 1213.44 M381.056 1208.81 Q388.318 1208.81 392.138 1214.56 Q395.986 1220.29 395.986 1231.23 Q395.986 1242.14 392.138 1247.9 Q388.318 1253.63 381.056 1253.63 Q373.793 1253.63 369.945 1247.9 Q366.125 1242.14 366.125 1231.23 Q366.125 1220.29 369.945 1214.56 Q373.793 1208.81 381.056 1208.81 Z" fill="#000000" fill-rule="nonzero" fill-opacity="1" /><path clip-path="url(#clip590)" d="M406.258 1245.44 L412.363 1245.44 L412.363 1252.79 L406.258 1252.79 L406.258 1245.44 Z" fill="#000000" fill-rule="nonzero" fill-opacity="1" /><path clip-path="url(#clip590)" d="M437.595 1213.44 Q433.081 1213.44 430.795 1217.89 Q428.538 1222.32 428.538 1231.23 Q428.538 1240.11 430.795 1244.57 Q433.081 1249 437.595 1249 Q442.137 1249 444.394 1244.57 Q446.68 1240.11 446.68 1231.23 Q446.68 1222.32 444.394 1217.89 Q442.137 1213.44 437.595 1213.44 M437.595 1208.81 Q444.857 1208.81 448.677 1214.56 Q452.525 1220.29 452.525 1231.23 Q452.525 1242.14 448.677 1247.9 Q444.857 1253.63 437.595 1253.63 Q430.332 1253.63 426.484 1247.9 Q422.664 1242.14 422.664 1231.23 Q422.664 1220.29 426.484 1214.56 Q430.332 1208.81 437.595 1208.81 Z" fill="#000000" fill-rule="nonzero" fill-opacity="1" /><path clip-path="url(#clip590)" d="M382.589 877.856 Q378.075 877.856 375.789 882.312 Q373.533 886.739 373.533 895.651 Q373.533 904.534 375.789 908.99 Q378.075 913.417 382.589 913.417 Q387.132 913.417 389.389 908.99 Q391.675 904.534 391.675 895.651 Q391.675 886.739 389.389 882.312 Q387.132 877.856 382.589 877.856 M382.589 873.226 Q389.852 873.226 393.671 878.984 Q397.52 884.714 397.52 895.651 Q397.52 906.56 393.671 912.318 Q389.852 918.047 382.589 918.047 Q375.326 918.047 371.478 912.318 Q367.659 906.56 367.659 895.651 Q367.659 884.714 371.478 878.984 Q375.326 873.226 382.589 873.226 Z" fill="#000000" fill-rule="nonzero" fill-opacity="1" /><path clip-path="url(#clip590)" d="M407.792 909.858 L413.897 909.858 L413.897 917.208 L407.792 917.208 L407.792 909.858 Z" fill="#000000" fill-rule="nonzero" fill-opacity="1" /><path clip-path="url(#clip590)" d="M427.641 912.289 L437.19 912.289 L437.19 879.332 L426.802 881.415 L426.802 876.091 L437.132 874.008 L442.977 874.008 L442.977 912.289 L452.525 912.289 L452.525 917.208 L427.641 917.208 L427.641 912.289 Z" fill="#000000" fill-rule="nonzero" fill-opacity="1" /><path clip-path="url(#clip590)" d="M383.052 542.277 Q378.538 542.277 376.252 546.733 Q373.995 551.16 373.995 560.072 Q373.995 568.955 376.252 573.411 Q378.538 577.838 383.052 577.838 Q387.595 577.838 389.852 573.411 Q392.138 568.955 392.138 560.072 Q392.138 551.16 389.852 546.733 Q387.595 542.277 383.052 542.277 M383.052 537.647 Q390.315 537.647 394.134 543.405 Q397.983 549.134 397.983 560.072 Q397.983 570.98 394.134 576.738 Q390.315 582.467 383.052 582.467 Q375.789 582.467 371.941 576.738 Q368.122 570.98 368.122 560.072 Q368.122 549.134 371.941 543.405 Q375.789 537.647 383.052 537.647 Z" fill="#000000" fill-rule="nonzero" fill-opacity="1" /><path clip-path="url(#clip590)" d="M408.255 574.279 L414.36 574.279 L414.36 581.628 L408.255 581.628 L408.255 574.279 Z" fill="#000000" fill-rule="nonzero" fill-opacity="1" /><path clip-path="url(#clip590)" d="M432.126 576.709 L452.525 576.709 L452.525 581.628 L425.095 581.628 L425.095 576.709 Q428.422 573.266 434.151 567.479 Q439.909 561.663 441.385 559.985 Q444.192 556.831 445.291 554.661 Q446.42 552.462 446.42 550.35 Q446.42 546.906 443.989 544.736 Q441.588 542.566 437.71 542.566 Q434.962 542.566 431.894 543.521 Q428.856 544.476 425.384 546.414 L425.384 540.512 Q428.914 539.094 431.981 538.37 Q435.048 537.647 437.595 537.647 Q444.308 537.647 448.301 541.004 Q452.294 544.36 452.294 549.973 Q452.294 552.635 451.281 555.037 Q450.297 557.41 447.664 560.65 Q446.941 561.49 443.063 565.511 Q439.186 569.505 432.126 576.709 Z" fill="#000000" fill-rule="nonzero" fill-opacity="1" /><path clip-path="url(#clip590)" d="M381.866 206.697 Q377.352 206.697 375.066 211.153 Q372.809 215.58 372.809 224.492 Q372.809 233.375 375.066 237.831 Q377.352 242.258 381.866 242.258 Q386.409 242.258 388.666 237.831 Q390.951 233.375 390.951 224.492 Q390.951 215.58 388.666 211.153 Q386.409 206.697 381.866 206.697 M381.866 202.068 Q389.128 202.068 392.948 207.826 Q396.796 213.555 396.796 224.492 Q396.796 235.401 392.948 241.159 Q389.128 246.888 381.866 246.888 Q374.603 246.888 370.755 241.159 Q366.935 235.401 366.935 224.492 Q366.935 213.555 370.755 207.826 Q374.603 202.068 381.866 202.068 Z" fill="#000000" fill-rule="nonzero" fill-opacity="1" /><path clip-path="url(#clip590)" d="M407.068 238.699 L413.173 238.699 L413.173 246.049 L407.068 246.049 L407.068 238.699 Z" fill="#000000" fill-rule="nonzero" fill-opacity="1" /><path clip-path="url(#clip590)" d="M443.613 222.756 Q447.809 223.653 450.152 226.489 Q452.525 229.325 452.525 233.491 Q452.525 239.886 448.127 243.387 Q443.729 246.888 435.627 246.888 Q432.907 246.888 430.014 246.338 Q427.149 245.817 424.082 244.747 L424.082 239.105 Q426.513 240.522 429.406 241.246 Q432.3 241.969 435.453 241.969 Q440.951 241.969 443.816 239.799 Q446.709 237.629 446.709 233.491 Q446.709 229.672 444.018 227.531 Q441.356 225.36 436.582 225.36 L431.547 225.36 L431.547 220.557 L436.813 220.557 Q441.125 220.557 443.411 218.85 Q445.696 217.114 445.696 213.873 Q445.696 210.546 443.324 208.781 Q440.98 206.987 436.582 206.987 Q434.18 206.987 431.431 207.508 Q428.683 208.028 425.384 209.128 L425.384 203.92 Q428.712 202.994 431.605 202.531 Q434.528 202.068 437.103 202.068 Q443.758 202.068 447.635 205.106 Q451.512 208.115 451.512 213.266 Q451.512 216.854 449.458 219.342 Q447.404 221.801 443.613 222.756 Z" fill="#000000" fill-rule="nonzero" fill-opacity="1" /><path clip-path="url(#clip590)" d="M222.937 1043.9 L246.585 1052.62 L246.585 1035.15 L222.937 1043.9 M216.603 1047.53 L216.603 1040.24 L264.123 1022.13 L264.123 1028.81 L251.933 1033.14 L251.933 1054.56 L264.123 1058.89 L264.123 1065.67 L216.603 1047.53 Z" fill="#000000" fill-rule="nonzero" fill-opacity="1" /><path clip-path="url(#clip590)" d="M220.263 980.753 L227.043 980.753 Q224.019 983.999 222.523 987.691 Q221.027 991.351 221.027 995.489 Q221.027 1003.64 226.024 1007.97 Q230.989 1012.29 240.411 1012.29 Q249.8 1012.29 254.797 1007.97 Q259.762 1003.64 259.762 995.489 Q259.762 991.351 258.266 987.691 Q256.77 983.999 253.747 980.753 L260.463 980.753 Q262.754 984.126 263.9 987.914 Q265.046 991.67 265.046 995.871 Q265.046 1006.66 258.457 1012.87 Q251.837 1019.07 240.411 1019.07 Q228.952 1019.07 222.364 1012.87 Q215.743 1006.66 215.743 995.871 Q215.743 991.606 216.889 987.85 Q218.003 984.063 220.263 980.753 Z" fill="#000000" fill-rule="nonzero" fill-opacity="1" /><path clip-path="url(#clip590)" d="M216.603 970.822 L216.603 943.513 L222.014 943.513 L222.014 964.393 L236.018 964.393 L236.018 945.55 L241.429 945.55 L241.429 964.393 L264.123 964.393 L264.123 970.822 L216.603 970.822 Z" fill="#000000" fill-rule="nonzero" fill-opacity="1" /><path clip-path="url(#clip590)" d="M232.581 899.049 Q232.581 903.759 236.273 906.497 Q239.933 909.234 246.331 909.234 Q252.728 909.234 256.42 906.528 Q260.081 903.791 260.081 899.049 Q260.081 894.37 256.389 891.633 Q252.696 888.895 246.331 888.895 Q239.997 888.895 236.305 891.633 Q232.581 894.37 232.581 899.049 M227.616 899.049 Q227.616 891.41 232.581 887.049 Q237.546 882.689 246.331 882.689 Q255.084 882.689 260.081 887.049 Q265.046 891.41 265.046 899.049 Q265.046 906.719 260.081 911.08 Q255.084 915.409 246.331 915.409 Q237.546 915.409 232.581 911.08 Q227.616 906.719 227.616 899.049 Z" fill="#000000" fill-rule="nonzero" fill-opacity="1" /><path clip-path="url(#clip590)" d="M214.598 854.934 L219.467 854.934 L219.467 860.536 Q219.467 863.687 220.741 864.928 Q222.014 866.138 225.324 866.138 L228.475 866.138 L228.475 856.494 L233.026 856.494 L233.026 866.138 L264.123 866.138 L264.123 872.026 L233.026 872.026 L233.026 877.628 L228.475 877.628 L228.475 872.026 L225.992 872.026 Q220.04 872.026 217.335 869.257 Q214.598 866.488 214.598 860.472 L214.598 854.934 Z" fill="#000000" fill-rule="nonzero" fill-opacity="1" /><path clip-path="url(#clip590)" d="M214.311 821.769 L279.496 821.769 L279.496 827.18 L214.311 827.18 L214.311 821.769 Z" fill="#000000" fill-rule="nonzero" fill-opacity="1" /><path clip-path="url(#clip590)" d="M257.343 774.695 L244.58 774.695 L244.58 785.198 L239.297 785.198 L239.297 768.329 L259.699 768.329 Q262.34 772.053 263.709 776.541 Q265.046 781.028 265.046 786.121 Q265.046 797.261 258.553 803.563 Q252.028 809.833 240.411 809.833 Q228.761 809.833 222.268 803.563 Q215.743 797.261 215.743 786.121 Q215.743 781.474 216.889 777.305 Q218.035 773.103 220.263 769.57 L227.106 769.57 Q224.083 773.135 222.555 777.145 Q221.027 781.156 221.027 785.58 Q221.027 794.301 225.897 798.693 Q230.767 803.054 240.411 803.054 Q250.023 803.054 254.893 798.693 Q259.762 794.301 259.762 785.58 Q259.762 782.174 259.189 779.501 Q258.585 776.827 257.343 774.695 Z" fill="#000000" fill-rule="nonzero" fill-opacity="1" /><path clip-path="url(#clip590)" d="M274.945 729.753 L279.496 729.753 L279.496 763.618 L274.945 763.618 L274.945 729.753 Z" fill="#000000" fill-rule="nonzero" fill-opacity="1" /><path clip-path="url(#clip590)" d="M218.353 718.454 L228.475 718.454 L228.475 706.391 L233.026 706.391 L233.026 718.454 L252.378 718.454 Q256.739 718.454 257.98 717.276 Q259.221 716.066 259.221 712.406 L259.221 706.391 L264.123 706.391 L264.123 712.406 Q264.123 719.186 261.608 721.764 Q259.062 724.342 252.378 724.342 L233.026 724.342 L233.026 728.639 L228.475 728.639 L228.475 724.342 L218.353 724.342 L218.353 718.454 Z" fill="#000000" fill-rule="nonzero" fill-opacity="1" /><path clip-path="url(#clip590)" d="M214.311 691.145 L279.496 691.145 L279.496 696.556 L214.311 696.556 L214.311 691.145 Z" fill="#000000" fill-rule="nonzero" fill-opacity="1" /><polyline clip-path="url(#clip591)" style="stroke:#d45e00; stroke-linecap:round; stroke-linejoin:round; stroke-width:8; stroke-opacity:1; fill:none" stroke-dasharray="32, 20" points="556.209,428.968 564.401,577.647 572.592,730.384 580.784,657.411 588.976,724.455 597.167,783.773 605.359,493.873 613.551,670.469 621.743,710.818 629.934,637.058 638.126,733.974 646.318,729.965 654.51,684.62 662.701,986.433 670.893,935.981 679.085,1079.48 687.276,948.131 695.468,1015.43 703.66,985.355 711.852,902.922 720.043,1107.75 728.235,944.543 736.427,920.853 744.619,1105.1 752.81,970.854 761.002,1174.2 769.194,1241.35 777.385,1297.11 785.577,968.314 793.769,1226.52 801.961,1335.84 810.152,1209.38 818.344,1145.86 826.536,1212.15 834.728,1073.34 842.919,1371.88 851.111,1414.48 859.303,1386.36 867.494,1332.77 875.686,1202.12 883.878,1259.03 892.07,1125.93 900.261,1431.17 908.453,1306.75 916.645,1392.45 924.837,1251.08 933.028,1346.74 941.22,1135 949.412,1243.52 957.603,1361.68 965.795,1376.25 973.987,1366.43 982.179,1284.12 990.37,1223.48 998.562,1213.91 1006.75,1276.4 1014.95,1432.55 1023.14,1101.02 1031.33,1352.71 1039.52,1328.71 1047.71,1151.72 1055.9,1332.94 1064.1,1263.66 1072.29,1335.64 1080.48,1328.62 1088.67,1279.91 1096.86,1229.24 1105.05,1194.71 1113.25,1228.7 1121.44,1021.62 1129.63,1164.73 1137.82,1425.82 1146.01,1221.02 1154.2,1320.78 1162.4,1296.53 1170.59,1297.97 1178.78,1412.46 1186.97,1225.07 1195.16,1380.61 1203.36,1429.43 1211.55,1181.4 1219.74,1312.19 1227.93,1388.18 1236.12,1446.59 1244.31,1442.26 1252.51,1369.04 1260.7,1529.04 1268.89,1388.36 1277.08,1456.56 1285.27,1371.45 1293.46,1351.16 1301.66,1544.48 1309.85,1325.84 1318.04,1455.61 1326.23,1245.66 1334.42,1169.91 1342.61,1418.82 1350.81,1410.19 1359,1242.7 1367.19,1198.28 1375.38,1194.49 1383.57,1341.54 1391.76,1182.04 1399.96,1279.88 1408.15,1230.87 1416.34,1555.94 1424.53,1402.98 1432.72,1431.54 1440.92,1414.62 1449.11,1467.07 1457.3,1227.44 1465.49,1348 1473.68,1528.42 1481.87,1465.47 1490.07,1521.54 1498.26,1375.09 1506.45,1463.33 1514.64,1303.06 1522.83,1392.13 1531.02,1458.59 1539.22,1559.28 1547.41,1455.04 1555.6,1477.84 1563.79,1468.11 1571.98,1364.86 1580.17,1361.3 1588.37,1547.38 1596.56,1437.66 1604.75,1322.04 1612.94,1511.9 1621.13,1556.23 1629.32,1588.24 1637.52,1508.32 1645.71,1404.44 1653.9,1492 1662.09,1304.08 1670.28,1354.58 1678.48,1363.36 1686.67,1164.27 1694.86,1404.95 1703.05,1357.53 1711.24,1309.38 1719.43,1317.97 1727.63,1215.28 1735.82,1316.14 1744.01,1179.92 1752.2,1428.19 1760.39,1297.87 1768.58,1155.03 1776.78,1336.14 1784.97,972.443 1793.16,1363.68 1801.35,1254.82 1809.54,1314.98 1817.73,1371.97 1825.93,1284.1 1834.12,1222.69 1842.31,1170.16 1850.5,1146.7 1858.69,1242.98 1866.88,1248.73 1875.08,1311.23 1883.27,1174.23 1891.46,1224.41 1899.65,1360.17 1907.84,916.676 1916.04,1153.52 1924.23,1199.61 1932.42,1110.32 1940.61,1096.56 1948.8,1289.21 1956.99,1352.74 1965.19,1206.66 1973.38,1122.66 1981.57,1240.72 1989.76,1352.71 1997.95,1075.89 2006.14,1131.34 2014.34,1110.61 2022.53,1281.33 2030.72,1305.15 2038.91,1397.56 2047.1,1476.26 2055.29,1309.07 2063.49,1332.48 2071.68,1220.21 2079.87,1378.74 2088.06,1362.89 2096.25,1436.11 2104.45,1415.46 2112.64,1444.27 2120.83,1175.39 2129.02,1429.88 2137.21,1546.34 2145.4,1318.69 2153.6,1482.65 2161.79,1387.71 2169.98,1228.56 2178.17,1186.54 2186.36,1358.9 2194.55,1449.45 2202.75,1185.65 2210.94,1435.46 2219.13,1430.37 2227.32,1452.94 2235.51,1432.27 2243.7,1314.41 2251.9,1285.06 2260.09,1193.48 2268.28,1352.23 2276.47,1296.36 2284.66,1148.96 2292.85,1425.35 2301.05,1310.89 2309.24,1251.74 2317.43,1284.44 2325.62,1296.06 2333.81,1295.03 2342.01,1216.15 2350.2,1147.05 2358.39,1065.74 2366.58,1165.58 2374.77,1271.49 2382.96,1071.73 2391.16,1384.7 2399.35,1361.95 2407.54,968.982 2415.73,966.708 2423.92,1134.9 2432.11,1151.07 2440.31,1109.14 2448.5,1142.17 2456.69,1134.8 2464.88,945.264 2473.07,1235.56 2481.26,1216.59 2489.46,961.648 2497.65,1149.98 2505.84,1022.1 2514.03,939.852 2522.22,942.752 2530.41,1034.88 2538.61,1244.9 2546.8,920.728 2554.99,1055.93 2563.18,1013.35 2571.37,939.759 2579.57,1078.01 2587.76,1154.65 2595.95,1082.87 2604.14,1124.48 2612.33,1177.14 "/>
<polyline clip-path="url(#clip591)" style="stroke:#009e73; stroke-linecap:round; stroke-linejoin:round; stroke-width:8; stroke-opacity:1; fill:none" points="556.209,453.194 564.401,552.634 572.592,622.745 580.784,674.958 588.976,732.479 597.167,761.03 605.359,801.171 613.551,868.14 621.743,887.937 629.934,921.95 638.126,948.829 646.318,978.998 654.51,1010.83 662.701,1042.25 670.893,1049.7 679.085,1060.29 687.276,1075.67 695.468,1090.79 703.66,1112.52 711.852,1123.81 720.043,1153.63 728.235,1141.87 736.427,1156.26 744.619,1163.8 752.81,1178.51 761.002,1201.39 769.194,1197.81 777.385,1201.64 785.577,1202.84 793.769,1217.48 801.961,1223.25 810.152,1234.41 818.344,1211.68 826.536,1234.74 834.728,1243.79 842.919,1245.83 851.111,1245.25 859.303,1253.9 867.494,1240.29 875.686,1244.52 883.878,1266.86 892.07,1259.91 900.261,1259.93 908.453,1240.53 916.645,1235.34 924.837,1243.62 933.028,1252.19 941.22,1235.51 949.412,1246.14 957.603,1245.39 965.795,1257.46 973.987,1253.63 982.179,1241.76 990.37,1240.08 998.562,1257.99 1006.75,1254.48 1014.95,1241.99 1023.14,1251.4 1031.33,1265.51 1039.52,1245.02 1047.71,1236.49 1055.9,1247.63 1064.1,1268.71 1072.29,1255.07 1080.48,1256.6 1088.67,1270.48 1096.86,1258.5 1105.05,1252.93 1113.25,1252.38 1121.44,1261.94 1129.63,1262.03 1137.82,1267.33 1146.01,1257.48 1154.2,1268.75 1162.4,1259.35 1170.59,1280.59 1178.78,1280.54 1186.97,1264.02 1195.16,1285.8 1203.36,1286.79 1211.55,1268.94 1219.74,1266.49 1227.93,1270.56 1236.12,1270.17 1244.31,1275.02 1252.51,1269.3 1260.7,1272.61 1268.89,1276.8 1277.08,1271.58 1285.27,1260.45 1293.46,1263.64 1301.66,1266.37 1309.85,1265.11 1318.04,1255.42 1326.23,1242.59 1334.42,1250.28 1342.61,1256.83 1350.81,1255.12 1359,1262.52 1367.19,1273.35 1375.38,1267.65 1383.57,1273.05 1391.76,1259.73 1399.96,1262.67 1408.15,1266.34 1416.34,1265.44 1424.53,1263.93 1432.72,1253.93 1440.92,1254.72 1449.11,1242.53 1457.3,1259.66 1465.49,1259.13 1473.68,1267.74 1481.87,1270.09 1490.07,1251.53 1498.26,1258.37 1506.45,1263.38 1514.64,1257.37 1522.83,1254.86 1531.02,1260.03 1539.22,1257.15 1547.41,1266.61 1555.6,1278.87 1563.79,1274.8 1571.98,1264.94 1580.17,1264.79 1588.37,1262.11 1596.56,1267.32 1604.75,1267.85 1612.94,1257.67 1621.13,1268.87 1629.32,1257.07 1637.52,1268.53 1645.71,1268.61 1653.9,1271.96 1662.09,1259.66 1670.28,1263.99 1678.48,1265.69 1686.67,1258.31 1694.86,1265.49 1703.05,1268.59 1711.24,1252.43 1719.43,1270.04 1727.63,1276.6 1735.82,1271.11 1744.01,1285.58 1752.2,1271.75 1760.39,1268.42 1768.58,1273.61 1776.78,1266.52 1784.97,1266.64 1793.16,1265.35 1801.35,1266.28 1809.54,1261.7 1817.73,1283.48 1825.93,1263.31 1834.12,1268.92 1842.31,1272.62 1850.5,1264.06 1858.69,1253.81 1866.88,1255.72 1875.08,1264.46 1883.27,1247.14 1891.46,1267.83 1899.65,1251.79 1907.84,1256.5 1916.04,1243.45 1924.23,1242.64 1932.42,1239.6 1940.61,1248.87 1948.8,1264.7 1956.99,1262.74 1965.19,1269.08 1973.38,1256.58 1981.57,1255.17 1989.76,1248.54 1997.95,1255.47 2006.14,1246.67 2014.34,1247.05 2022.53,1250.25 2030.72,1246.95 2038.91,1258.61 2047.1,1251.06 2055.29,1258.56 2063.49,1244.45 2071.68,1245.95 2079.87,1249.43 2088.06,1253.26 2096.25,1254.64 2104.45,1259.09 2112.64,1263.18 2120.83,1248.24 2129.02,1244.91 2137.21,1262.04 2145.4,1244.27 2153.6,1253.73 2161.79,1255.89 2169.98,1256.99 2178.17,1257.13 2186.36,1256.17 2194.55,1255.62 2202.75,1247.45 2210.94,1244.68 2219.13,1253.04 2227.32,1259.22 2235.51,1261.2 2243.7,1254.86 2251.9,1255.32 2260.09,1253.17 2268.28,1256.74 2276.47,1264.7 2284.66,1247.99 2292.85,1261.83 2301.05,1255.08 2309.24,1254.31 2317.43,1268.55 2325.62,1277.14 2333.81,1264.35 2342.01,1264.02 2350.2,1267.48 2358.39,1277.13 2366.58,1269.85 2374.77,1265.74 2382.96,1272.93 2391.16,1264.86 2399.35,1267.76 2407.54,1266.04 2415.73,1267.85 2423.92,1271.68 2432.11,1268.78 2440.31,1260.49 2448.5,1269.32 2456.69,1262.36 2464.88,1260.91 2473.07,1260.95 2481.26,1263.22 2489.46,1246.69 2497.65,1255.24 2505.84,1260.13 2514.03,1251.55 2522.22,1249.23 2530.41,1242.13 2538.61,1237.48 2546.8,1256.06 2554.99,1252.93 2563.18,1245.13 2571.37,1249.89 2579.57,1238.4 2587.76,1241.88 2595.95,1242.66 2604.14,1244.67 2612.33,1241.65 "/>
<path clip-path="url(#clip591)" d="M556.209 733.431 L564.401 772.433 L572.592 817.689 L580.784 900.032 L588.976 932.017 L597.167 994.987 L605.359 1021.11 L613.551 1058.96 L621.743 1096.6 L629.934 1136.14 L638.126 1138.9 L646.318 1167.3 L654.51 1216.94 L662.701 1238.66 L670.893 1254.07 L679.085 1278.95 L687.276 1267.79 L695.468 1334.95 L703.66 1310.39 L711.852 1348.53 L720.043 1364.75 L728.235 1333.89 L736.427 1342.46 L744.619 1373.54 L752.81 1396.5 L761.002 1414.77 L769.194 1444.98 L777.385 1454.78 L785.577 1425.95 L793.769 1432.9 L801.961 1443.4 L810.152 1422.7 L818.344 1416.67 L826.536 1439.01 L834.728 1437.93 L842.919 1445.89 L851.111 1445.15 L859.303 1444.25 L867.494 1438.9 L875.686 1437.29 L883.878 1473.31 L892.07 1462.49 L900.261 1457.68 L908.453 1442.03 L916.645 1437.68 L924.837 1462.83 L933.028 1446.02 L941.22 1423.96 L949.412 1452.27 L957.603 1453.47 L965.795 1445.93 L973.987 1453.63 L982.179 1435.35 L990.37 1437.05 L998.562 1446.84 L1006.75 1426.59 L1014.95 1425.88 L1023.14 1436.65 L1031.33 1465.21 L1039.52 1420.68 L1047.71 1428.28 L1055.9 1432.33 L1064.1 1454.83 L1072.29 1429 L1080.48 1436.34 L1088.67 1460.63 L1096.86 1429.87 L1105.05 1454 L1113.25 1455.93 L1121.44 1444.33 L1129.63 1433.1 L1137.82 1438.55 L1146.01 1461.84 L1154.2 1452.47 L1162.4 1447.99 L1170.59 1472.2 L1178.78 1464.52 L1186.97 1443.94 L1195.16 1460.42 L1203.36 1473.06 L1211.55 1477.61 L1219.74 1452.13 L1227.93 1461.55 L1236.12 1455.1 L1244.31 1454.62 L1252.51 1472.3 L1260.7 1460.36 L1268.89 1452.76 L1277.08 1457.64 L1285.27 1444.66 L1293.46 1452.96 L1301.66 1434.2 L1309.85 1465.8 L1318.04 1447.41 L1326.23 1443.12 L1334.42 1446.25 L1342.61 1436.76 L1350.81 1445.22 L1359 1440.49 L1367.19 1477 L1375.38 1470.21 L1383.57 1448.92 L1391.76 1435.39 L1399.96 1472.46 L1408.15 1440.44 L1416.34 1433.79 L1424.53 1468.36 L1432.72 1433.47 L1440.92 1447.73 L1449.11 1431.65 L1457.3 1440.26 L1465.49 1458.57 L1473.68 1419.91 L1481.87 1448.23 L1490.07 1456.31 L1498.26 1465.93 L1506.45 1447.87 L1514.64 1453.39 L1522.83 1430.83 L1531.02 1452.5 L1539.22 1428.25 L1547.41 1450.41 L1555.6 1453.62 L1563.79 1453.32 L1571.98 1442.28 L1580.17 1447.76 L1588.37 1428.32 L1596.56 1455.81 L1604.75 1447.03 L1612.94 1455.34 L1621.13 1454.33 L1629.32 1421.36 L1637.52 1430.37 L1645.71 1456.99 L1653.9 1461.14 L1662.09 1425.84 L1670.28 1426.24 L1678.48 1446.12 L1686.67 1422.8 L1694.86 1456.64 L1703.05 1450.2 L1711.24 1430.81 L1719.43 1450.92 L1727.63 1445.5 L1735.82 1442.33 L1744.01 1443.63 L1752.2 1433.65 L1760.39 1439.47 L1768.58 1467.71 L1776.78 1469.3 L1784.97 1466.89 L1793.16 1444.77 L1801.35 1453.5 L1809.54 1464.27 L1817.73 1460.13 L1825.93 1447.07 L1834.12 1454.85 L1842.31 1462.83 L1850.5 1438.91 L1858.69 1441.95 L1866.88 1431.64 L1875.08 1447.8 L1883.27 1438.64 L1891.46 1446.95 L1899.65 1448.13 L1907.84 1453.1 L1916.04 1425.42 L1924.23 1443.99 L1932.42 1441.22 L1940.61 1452.5 L1948.8 1450.8 L1956.99 1440.87 L1965.19 1446.1 L1973.38 1451.23 L1981.57 1429.24 L1989.76 1437.49 L1997.95 1422.5 L2006.14 1418.91 L2014.34 1424 L2022.53 1438.05 L2030.72 1430.51 L2038.91 1422.12 L2047.1 1433.71 L2055.29 1425.99 L2063.49 1413.71 L2071.68 1429.34 L2079.87 1430.1 L2088.06 1438.91 L2096.25 1436.16 L2104.45 1438.69 L2112.64 1417.63 L2120.83 1409.61 L2129.02 1445.28 L2137.21 1427.23 L2145.4 1424.2 L2153.6 1419.06 L2161.79 1445.6 L2169.98 1425.34 L2178.17 1429.4 L2186.36 1429.59 L2194.55 1427.54 L2202.75 1423.83 L2210.94 1410.3 L2219.13 1424.92 L2227.32 1438.08 L2235.51 1434.25 L2243.7 1405.98 L2251.9 1420.37 L2260.09 1420.5 L2268.28 1403.02 L2276.47 1438 L2284.66 1399.84 L2292.85 1423.75 L2301.05 1410.5 L2309.24 1414.3 L2317.43 1426.68 L2325.62 1440.87 L2333.81 1416.1 L2342.01 1416.64 L2350.2 1437.56 L2358.39 1446.52 L2366.58 1423.7 L2374.77 1431.31 L2382.96 1421.41 L2391.16 1422.27 L2399.35 1424.41 L2407.54 1418.09 L2415.73 1420.03 L2423.92 1436.47 L2432.11 1429.02 L2440.31 1413.51 L2448.5 1411.66 L2456.69 1407.67 L2464.88 1399.38 L2473.07 1396.12 L2481.26 1429.99 L2489.46 1425.9 L2497.65 1415.77 L2505.84 1410.94 L2514.03 1401.55 L2522.22 1426.29 L2530.41 1411.91 L2538.61 1397.88 L2546.8 1402.74 L2554.99 1395.91 L2563.18 1411.9 L2571.37 1407.63 L2579.57 1413.16 L2587.76 1409.98 L2595.95 1410.7 L2604.14 1391.33 L2612.33 1389.13 L2612.33 1082.8 L2604.14 1085.37 L2595.95 1063.36 L2587.76 1079.48 L2579.57 1079.2 L2571.37 1072.36 L2563.18 1067.71 L2554.99 1089 L2546.8 1081.83 L2538.61 1078.36 L2530.41 1068.15 L2522.22 1050.28 L2514.03 1078.96 L2505.84 1089.65 L2497.65 1077.9 L2489.46 1061.87 L2481.26 1066.12 L2473.07 1094.44 L2464.88 1092.47 L2456.69 1083.91 L2448.5 1105.77 L2440.31 1084.87 L2432.11 1101.72 L2423.92 1092.47 L2415.73 1081.71 L2407.54 1088.59 L2399.35 1100.17 L2391.16 1113.71 L2382.96 1114.44 L2374.77 1103.36 L2366.58 1092.15 L2358.39 1124.59 L2350.2 1097.13 L2342.01 1100.01 L2333.81 1105.19 L2325.62 1087.15 L2317.43 1100.32 L2309.24 1066.63 L2301.05 1064.56 L2292.85 1089.11 L2284.66 1076.81 L2276.47 1109.47 L2268.28 1095.03 L2260.09 1077.6 L2251.9 1073.91 L2243.7 1064.46 L2235.51 1076.66 L2227.32 1073.12 L2219.13 1081.14 L2210.94 1066.91 L2202.75 1059.7 L2194.55 1070.57 L2186.36 1060.23 L2178.17 1102.1 L2169.98 1083.45 L2161.79 1087.02 L2153.6 1104.08 L2145.4 1049.26 L2137.21 1079.64 L2129.02 1052.3 L2120.83 1040.94 L2112.64 1088.92 L2104.45 1082.68 L2096.25 1065.37 L2088.06 1067.59 L2079.87 1070.3 L2071.68 1025.62 L2063.49 1049.62 L2055.29 1075.65 L2047.1 1034.45 L2038.91 1067.69 L2030.72 1051.82 L2022.53 1073.72 L2014.34 1073.82 L2006.14 1069.63 L1997.95 1076.49 L1989.76 1083.43 L1981.57 1065.4 L1973.38 1083.18 L1965.19 1089.08 L1956.99 1075.23 L1948.8 1080.8 L1940.61 1067.81 L1932.42 1069.01 L1924.23 1071.23 L1916.04 1041.73 L1907.84 1082.21 L1899.65 1057.8 L1891.46 1105.35 L1883.27 1035.96 L1875.08 1069.61 L1866.88 1065.22 L1858.69 1054.36 L1850.5 1086.56 L1842.31 1054.55 L1834.12 1068.91 L1825.93 1065.52 L1817.73 1090.44 L1809.54 1058.59 L1801.35 1063.68 L1793.16 1063.77 L1784.97 1083.87 L1776.78 1081.7 L1768.58 1104.69 L1760.39 1090.12 L1752.2 1091.79 L1744.01 1103.52 L1735.82 1104.43 L1727.63 1091.39 L1719.43 1093.2 L1711.24 1077.48 L1703.05 1073.05 L1694.86 1080.23 L1686.67 1062.91 L1678.48 1086.41 L1670.28 1080.78 L1662.09 1058.94 L1653.9 1074.76 L1645.71 1055.78 L1637.52 1090.79 L1629.32 1072.09 L1621.13 1031.69 L1612.94 1019.34 L1604.75 1080.1 L1596.56 1081.56 L1588.37 1078.73 L1580.17 1068.35 L1571.98 1077.29 L1563.79 1073.12 L1555.6 1095.12 L1547.41 1071.8 L1539.22 1077.86 L1531.02 1069.07 L1522.83 1061.78 L1514.64 1058.59 L1506.45 1073.87 L1498.26 1044.65 L1490.07 1041.93 L1481.87 1095.16 L1473.68 1072.5 L1465.49 1061.16 L1457.3 1055.25 L1449.11 1041.34 L1440.92 1077.27 L1432.72 1033.33 L1424.53 1047.72 L1416.34 1087.69 L1408.15 1092.8 L1399.96 1055.91 L1391.76 1051.24 L1383.57 1094.89 L1375.38 1046.62 L1367.19 1053.18 L1359 1063.22 L1350.81 1050.94 L1342.61 1055.94 L1334.42 1042.64 L1326.23 1029.82 L1318.04 1052.46 L1309.85 1094.21 L1301.66 1086.24 L1293.46 1043.02 L1285.27 1084.13 L1277.08 1065.71 L1268.89 1072.57 L1260.7 1064.44 L1252.51 1060.46 L1244.31 1093.81 L1236.12 1090.64 L1227.93 1097.98 L1219.74 1091.02 L1211.55 1071.2 L1203.36 1102.21 L1195.16 1112.04 L1186.97 1055.04 L1178.78 1068.16 L1170.59 1074.09 L1162.4 1041.51 L1154.2 1060.51 L1146.01 1044.73 L1137.82 1059.63 L1129.63 1088.6 L1121.44 1073.78 L1113.25 1053.5 L1105.05 1061.71 L1096.86 1065 L1088.67 1095.43 L1080.48 1055.27 L1072.29 1072.19 L1064.1 1064.62 L1055.9 1057.43 L1047.71 1023.66 L1039.52 1042.75 L1031.33 1087.05 L1023.14 1065.45 L1014.95 1050.02 L1006.75 1077.79 L998.562 1032.81 L990.37 1030.62 L982.179 1023.17 L973.987 1028.9 L965.795 1039.03 L957.603 1011.72 L949.412 1056.42 L941.22 1021.9 L933.028 1036.64 L924.837 1036.71 L916.645 1009.96 L908.453 992.325 L900.261 1033.79 L892.07 1074.93 L883.878 1053.1 L875.686 1043 L867.494 1017.21 L859.303 1026.85 L851.111 1026.05 L842.919 1053.88 L834.728 1011.01 L826.536 1021.21 L818.344 995.601 L810.152 1018.21 L801.961 958.452 L793.769 984.866 L785.577 962.926 L777.385 971.35 L769.194 966.528 L761.002 966.104 L752.81 964.832 L744.619 928.007 L736.427 965.23 L728.235 899.195 L720.043 917.662 L711.852 892.393 L703.66 854.966 L695.468 846.525 L687.276 863.593 L679.085 866.333 L670.893 809.636 L662.701 834.889 L654.51 792.423 L646.318 753.426 L638.126 744.177 L629.934 707.294 L621.743 655.709 L613.551 632.295 L605.359 564.583 L597.167 516.945 L588.976 520.847 L580.784 454.783 L572.592 386.577 L564.401 336.565 L556.209 168.574  Z" fill="#009e73" fill-rule="evenodd" fill-opacity="0.2"/>
<polyline clip-path="url(#clip591)" style="stroke:#009e73; stroke-linecap:round; stroke-linejoin:round; stroke-width:4; stroke-opacity:0.2; fill:none" points="556.209,733.431 564.401,772.433 572.592,817.689 580.784,900.032 588.976,932.017 597.167,994.987 605.359,1021.11 613.551,1058.96 621.743,1096.6 629.934,1136.14 638.126,1138.9 646.318,1167.3 654.51,1216.94 662.701,1238.66 670.893,1254.07 679.085,1278.95 687.276,1267.79 695.468,1334.95 703.66,1310.39 711.852,1348.53 720.043,1364.75 728.235,1333.89 736.427,1342.46 744.619,1373.54 752.81,1396.5 761.002,1414.77 769.194,1444.98 777.385,1454.78 785.577,1425.95 793.769,1432.9 801.961,1443.4 810.152,1422.7 818.344,1416.67 826.536,1439.01 834.728,1437.93 842.919,1445.89 851.111,1445.15 859.303,1444.25 867.494,1438.9 875.686,1437.29 883.878,1473.31 892.07,1462.49 900.261,1457.68 908.453,1442.03 916.645,1437.68 924.837,1462.83 933.028,1446.02 941.22,1423.96 949.412,1452.27 957.603,1453.47 965.795,1445.93 973.987,1453.63 982.179,1435.35 990.37,1437.05 998.562,1446.84 1006.75,1426.59 1014.95,1425.88 1023.14,1436.65 1031.33,1465.21 1039.52,1420.68 1047.71,1428.28 1055.9,1432.33 1064.1,1454.83 1072.29,1429 1080.48,1436.34 1088.67,1460.63 1096.86,1429.87 1105.05,1454 1113.25,1455.93 1121.44,1444.33 1129.63,1433.1 1137.82,1438.55 1146.01,1461.84 1154.2,1452.47 1162.4,1447.99 1170.59,1472.2 1178.78,1464.52 1186.97,1443.94 1195.16,1460.42 1203.36,1473.06 1211.55,1477.61 1219.74,1452.13 1227.93,1461.55 1236.12,1455.1 1244.31,1454.62 1252.51,1472.3 1260.7,1460.36 1268.89,1452.76 1277.08,1457.64 1285.27,1444.66 1293.46,1452.96 1301.66,1434.2 1309.85,1465.8 1318.04,1447.41 1326.23,1443.12 1334.42,1446.25 1342.61,1436.76 1350.81,1445.22 1359,1440.49 1367.19,1477 1375.38,1470.21 1383.57,1448.92 1391.76,1435.39 1399.96,1472.46 1408.15,1440.44 1416.34,1433.79 1424.53,1468.36 1432.72,1433.47 1440.92,1447.73 1449.11,1431.65 1457.3,1440.26 1465.49,1458.57 1473.68,1419.91 1481.87,1448.23 1490.07,1456.31 1498.26,1465.93 1506.45,1447.87 1514.64,1453.39 1522.83,1430.83 1531.02,1452.5 1539.22,1428.25 1547.41,1450.41 1555.6,1453.62 1563.79,1453.32 1571.98,1442.28 1580.17,1447.76 1588.37,1428.32 1596.56,1455.81 1604.75,1447.03 1612.94,1455.34 1621.13,1454.33 1629.32,1421.36 1637.52,1430.37 1645.71,1456.99 1653.9,1461.14 1662.09,1425.84 1670.28,1426.24 1678.48,1446.12 1686.67,1422.8 1694.86,1456.64 1703.05,1450.2 1711.24,1430.81 1719.43,1450.92 1727.63,1445.5 1735.82,1442.33 1744.01,1443.63 1752.2,1433.65 1760.39,1439.47 1768.58,1467.71 1776.78,1469.3 1784.97,1466.89 1793.16,1444.77 1801.35,1453.5 1809.54,1464.27 1817.73,1460.13 1825.93,1447.07 1834.12,1454.85 1842.31,1462.83 1850.5,1438.91 1858.69,1441.95 1866.88,1431.64 1875.08,1447.8 1883.27,1438.64 1891.46,1446.95 1899.65,1448.13 1907.84,1453.1 1916.04,1425.42 1924.23,1443.99 1932.42,1441.22 1940.61,1452.5 1948.8,1450.8 1956.99,1440.87 1965.19,1446.1 1973.38,1451.23 1981.57,1429.24 1989.76,1437.49 1997.95,1422.5 2006.14,1418.91 2014.34,1424 2022.53,1438.05 2030.72,1430.51 2038.91,1422.12 2047.1,1433.71 2055.29,1425.99 2063.49,1413.71 2071.68,1429.34 2079.87,1430.1 2088.06,1438.91 2096.25,1436.16 2104.45,1438.69 2112.64,1417.63 2120.83,1409.61 2129.02,1445.28 2137.21,1427.23 2145.4,1424.2 2153.6,1419.06 2161.79,1445.6 2169.98,1425.34 2178.17,1429.4 2186.36,1429.59 2194.55,1427.54 2202.75,1423.83 2210.94,1410.3 2219.13,1424.92 2227.32,1438.08 2235.51,1434.25 2243.7,1405.98 2251.9,1420.37 2260.09,1420.5 2268.28,1403.02 2276.47,1438 2284.66,1399.84 2292.85,1423.75 2301.05,1410.5 2309.24,1414.3 2317.43,1426.68 2325.62,1440.87 2333.81,1416.1 2342.01,1416.64 2350.2,1437.56 2358.39,1446.52 2366.58,1423.7 2374.77,1431.31 2382.96,1421.41 2391.16,1422.27 2399.35,1424.41 2407.54,1418.09 2415.73,1420.03 2423.92,1436.47 2432.11,1429.02 2440.31,1413.51 2448.5,1411.66 2456.69,1407.67 2464.88,1399.38 2473.07,1396.12 2481.26,1429.99 2489.46,1425.9 2497.65,1415.77 2505.84,1410.94 2514.03,1401.55 2522.22,1426.29 2530.41,1411.91 2538.61,1397.88 2546.8,1402.74 2554.99,1395.91 2563.18,1411.9 2571.37,1407.63 2579.57,1413.16 2587.76,1409.98 2595.95,1410.7 2604.14,1391.33 2612.33,1389.13 "/>
<path clip-path="url(#clip590)" d="M1971.65 409.426 L2601.37 409.426 L2601.37 176.146 L1971.65 176.146  Z" fill="#ffffff" fill-rule="evenodd" fill-opacity="1"/>
<polyline clip-path="url(#clip590)" style="stroke:#000000; stroke-linecap:round; stroke-linejoin:round; stroke-width:4; stroke-opacity:1; fill:none" points="1971.65,409.426 2601.37,409.426 2601.37,176.146 1971.65,176.146 1971.65,409.426 "/>
<polyline clip-path="url(#clip590)" style="stroke:#d45e00; stroke-linecap:round; stroke-linejoin:round; stroke-width:9; stroke-opacity:1; fill:none" stroke-dasharray="36, 23" points="1995.86,234.466 2141.16,234.466 "/>
<path clip-path="url(#clip590)" d="M2183.4 218.594 Q2177.67 218.594 2174.29 222.864 Q2170.93 227.135 2170.93 234.505 Q2170.93 241.849 2174.29 246.119 Q2177.67 250.39 2183.4 250.39 Q2189.13 250.39 2192.46 246.119 Q2195.82 241.849 2195.82 234.505 Q2195.82 227.135 2192.46 222.864 Q2189.13 218.594 2183.4 218.594 M2183.4 214.323 Q2191.58 214.323 2196.47 219.817 Q2201.37 225.286 2201.37 234.505 Q2201.37 243.698 2196.47 249.192 Q2191.58 254.661 2183.4 254.661 Q2175.2 254.661 2170.28 249.192 Q2165.38 243.724 2165.38 234.505 Q2165.38 225.286 2170.28 219.817 Q2175.2 214.323 2183.4 214.323 Z" fill="#000000" fill-rule="nonzero" fill-opacity="1" /><path clip-path="url(#clip590)" d="M2230.33 239.349 Q2230.33 234.062 2228.14 231.067 Q2225.98 228.047 2222.18 228.047 Q2218.38 228.047 2216.19 231.067 Q2214.03 234.062 2214.03 239.349 Q2214.03 244.635 2216.19 247.656 Q2218.38 250.651 2222.18 250.651 Q2225.98 250.651 2228.14 247.656 Q2230.33 244.635 2230.33 239.349 M2214.03 229.166 Q2215.54 226.562 2217.83 225.312 Q2220.15 224.036 2223.35 224.036 Q2228.66 224.036 2231.97 228.255 Q2235.3 232.474 2235.3 239.349 Q2235.3 246.224 2231.97 250.442 Q2228.66 254.661 2223.35 254.661 Q2220.15 254.661 2217.83 253.411 Q2215.54 252.135 2214.03 249.531 L2214.03 253.906 L2209.21 253.906 L2209.21 213.385 L2214.03 213.385 L2214.03 229.166 Z" fill="#000000" fill-rule="nonzero" fill-opacity="1" /><path clip-path="url(#clip590)" d="M2261.84 225.599 L2261.84 230.13 Q2259.81 229.088 2257.62 228.567 Q2255.43 228.047 2253.09 228.047 Q2249.52 228.047 2247.72 229.14 Q2245.95 230.234 2245.95 232.422 Q2245.95 234.088 2247.23 235.052 Q2248.51 235.989 2252.36 236.849 L2254 237.213 Q2259.1 238.307 2261.24 240.312 Q2263.4 242.291 2263.4 245.859 Q2263.4 249.921 2260.17 252.291 Q2256.97 254.661 2251.34 254.661 Q2249 254.661 2246.45 254.192 Q2243.92 253.75 2241.11 252.838 L2241.11 247.89 Q2243.77 249.27 2246.34 249.974 Q2248.92 250.651 2251.45 250.651 Q2254.83 250.651 2256.66 249.505 Q2258.48 248.333 2258.48 246.224 Q2258.48 244.27 2257.15 243.229 Q2255.85 242.187 2251.4 241.224 L2249.73 240.833 Q2245.28 239.895 2243.3 237.968 Q2241.32 236.015 2241.32 232.63 Q2241.32 228.515 2244.23 226.276 Q2247.15 224.036 2252.52 224.036 Q2255.17 224.036 2257.52 224.427 Q2259.86 224.817 2261.84 225.599 Z" fill="#000000" fill-rule="nonzero" fill-opacity="1" /><path clip-path="url(#clip590)" d="M2295.98 238.125 L2295.98 240.468 L2273.95 240.468 Q2274.26 245.416 2276.92 248.02 Q2279.6 250.599 2284.36 250.599 Q2287.13 250.599 2289.7 249.921 Q2292.31 249.244 2294.86 247.89 L2294.86 252.421 Q2292.28 253.515 2289.57 254.088 Q2286.86 254.661 2284.08 254.661 Q2277.1 254.661 2273.01 250.599 Q2268.95 246.536 2268.95 239.609 Q2268.95 232.448 2272.8 228.255 Q2276.68 224.036 2283.24 224.036 Q2289.13 224.036 2292.54 227.838 Q2295.98 231.614 2295.98 238.125 M2291.19 236.718 Q2291.14 232.786 2288.97 230.442 Q2286.84 228.099 2283.3 228.099 Q2279.29 228.099 2276.86 230.364 Q2274.47 232.63 2274.1 236.744 L2291.19 236.718 Z" fill="#000000" fill-rule="nonzero" fill-opacity="1" /><path clip-path="url(#clip590)" d="M2320.74 229.218 Q2319.94 228.75 2318.97 228.541 Q2318.04 228.307 2316.89 228.307 Q2312.83 228.307 2310.64 230.963 Q2308.48 233.593 2308.48 238.541 L2308.48 253.906 L2303.66 253.906 L2303.66 224.739 L2308.48 224.739 L2308.48 229.271 Q2309.99 226.614 2312.41 225.338 Q2314.83 224.036 2318.3 224.036 Q2318.79 224.036 2319.39 224.114 Q2319.99 224.166 2320.72 224.297 L2320.74 229.218 Z" fill="#000000" fill-rule="nonzero" fill-opacity="1" /><path clip-path="url(#clip590)" d="M2322.33 224.739 L2327.41 224.739 L2336.53 249.218 L2345.64 224.739 L2350.72 224.739 L2339.78 253.906 L2333.27 253.906 L2322.33 224.739 Z" fill="#000000" fill-rule="nonzero" fill-opacity="1" /><path clip-path="url(#clip590)" d="M2382.28 238.125 L2382.28 240.468 L2360.25 240.468 Q2360.56 245.416 2363.22 248.02 Q2365.9 250.599 2370.67 250.599 Q2373.43 250.599 2376 249.921 Q2378.61 249.244 2381.16 247.89 L2381.16 252.421 Q2378.58 253.515 2375.87 254.088 Q2373.17 254.661 2370.38 254.661 Q2363.4 254.661 2359.31 250.599 Q2355.25 246.536 2355.25 239.609 Q2355.25 232.448 2359.1 228.255 Q2362.98 224.036 2369.55 224.036 Q2375.43 224.036 2378.84 227.838 Q2382.28 231.614 2382.28 238.125 M2377.49 236.718 Q2377.44 232.786 2375.28 230.442 Q2373.14 228.099 2369.6 228.099 Q2365.59 228.099 2363.17 230.364 Q2360.77 232.63 2360.41 236.744 L2377.49 236.718 Z" fill="#000000" fill-rule="nonzero" fill-opacity="1" /><path clip-path="url(#clip590)" d="M2409.34 229.166 L2409.34 213.385 L2414.13 213.385 L2414.13 253.906 L2409.34 253.906 L2409.34 249.531 Q2407.83 252.135 2405.51 253.411 Q2403.22 254.661 2399.99 254.661 Q2394.7 254.661 2391.37 250.442 Q2388.06 246.224 2388.06 239.349 Q2388.06 232.474 2391.37 228.255 Q2394.7 224.036 2399.99 224.036 Q2403.22 224.036 2405.51 225.312 Q2407.83 226.562 2409.34 229.166 M2393.01 239.349 Q2393.01 244.635 2395.17 247.656 Q2397.36 250.651 2401.16 250.651 Q2404.96 250.651 2407.15 247.656 Q2409.34 244.635 2409.34 239.349 Q2409.34 234.062 2407.15 231.067 Q2404.96 228.047 2401.16 228.047 Q2397.36 228.047 2395.17 231.067 Q2393.01 234.062 2393.01 239.349 Z" fill="#000000" fill-rule="nonzero" fill-opacity="1" /><path clip-path="url(#clip590)" d="M2456.94 218.594 Q2451.21 218.594 2447.83 222.864 Q2444.47 227.135 2444.47 234.505 Q2444.47 241.849 2447.83 246.119 Q2451.21 250.39 2456.94 250.39 Q2462.67 250.39 2466 246.119 Q2469.36 241.849 2469.36 234.505 Q2469.36 227.135 2466 222.864 Q2462.67 218.594 2456.94 218.594 M2456.94 214.323 Q2465.12 214.323 2470.01 219.817 Q2474.91 225.286 2474.91 234.505 Q2474.91 243.698 2470.01 249.192 Q2465.12 254.661 2456.94 254.661 Q2448.74 254.661 2443.82 249.192 Q2438.92 243.724 2438.92 234.505 Q2438.92 225.286 2443.82 219.817 Q2448.74 214.323 2456.94 214.323 Z" fill="#000000" fill-rule="nonzero" fill-opacity="1" /><path clip-path="url(#clip590)" d="M2494.23 228.099 Q2490.38 228.099 2488.14 231.119 Q2485.9 234.114 2485.9 239.349 Q2485.9 244.583 2488.11 247.604 Q2490.35 250.599 2494.23 250.599 Q2498.06 250.599 2500.3 247.578 Q2502.54 244.557 2502.54 239.349 Q2502.54 234.166 2500.3 231.146 Q2498.06 228.099 2494.23 228.099 M2494.23 224.036 Q2500.48 224.036 2504.05 228.099 Q2507.62 232.161 2507.62 239.349 Q2507.62 246.51 2504.05 250.599 Q2500.48 254.661 2494.23 254.661 Q2487.96 254.661 2484.39 250.599 Q2480.85 246.51 2480.85 239.349 Q2480.85 232.161 2484.39 228.099 Q2487.96 224.036 2494.23 224.036 Z" fill="#000000" fill-rule="nonzero" fill-opacity="1" /><path clip-path="url(#clip590)" d="M2539.08 216.302 L2539.08 221.432 Q2536.08 220 2533.43 219.297 Q2530.77 218.594 2528.3 218.594 Q2524 218.594 2521.66 220.26 Q2519.34 221.927 2519.34 225 Q2519.34 227.578 2520.87 228.906 Q2522.44 230.208 2526.76 231.015 L2529.94 231.666 Q2535.82 232.786 2538.61 235.625 Q2541.42 238.437 2541.42 243.177 Q2541.42 248.828 2537.62 251.744 Q2533.84 254.661 2526.52 254.661 Q2523.76 254.661 2520.64 254.036 Q2517.54 253.411 2514.21 252.187 L2514.21 246.77 Q2517.41 248.567 2520.48 249.479 Q2523.56 250.39 2526.52 250.39 Q2531.03 250.39 2533.48 248.619 Q2535.93 246.849 2535.93 243.567 Q2535.93 240.703 2534.15 239.088 Q2532.41 237.474 2528.4 236.666 L2525.2 236.041 Q2519.31 234.869 2516.68 232.369 Q2514.05 229.869 2514.05 225.416 Q2514.05 220.26 2517.67 217.291 Q2521.32 214.323 2527.7 214.323 Q2530.43 214.323 2533.27 214.817 Q2536.11 215.312 2539.08 216.302 Z" fill="#000000" fill-rule="nonzero" fill-opacity="1" /><polyline clip-path="url(#clip590)" style="stroke:#009e73; stroke-linecap:round; stroke-linejoin:round; stroke-width:9; stroke-opacity:1; fill:none" points="1995.86,292.786 2141.16,292.786 "/>
<path clip-path="url(#clip590)" d="M2196.73 276.341 L2196.73 281.887 Q2194.08 279.414 2191.06 278.19 Q2188.06 276.966 2184.68 276.966 Q2178.01 276.966 2174.47 281.054 Q2170.93 285.117 2170.93 292.825 Q2170.93 300.507 2174.47 304.596 Q2178.01 308.658 2184.68 308.658 Q2188.06 308.658 2191.06 307.434 Q2194.08 306.21 2196.73 303.736 L2196.73 309.231 Q2193.97 311.106 2190.88 312.044 Q2187.8 312.981 2184.37 312.981 Q2175.54 312.981 2170.46 307.59 Q2165.38 302.174 2165.38 292.825 Q2165.38 283.45 2170.46 278.059 Q2175.54 272.643 2184.37 272.643 Q2187.85 272.643 2190.93 273.58 Q2194.03 274.492 2196.73 276.341 Z" fill="#000000" fill-rule="nonzero" fill-opacity="1" /><path clip-path="url(#clip590)" d="M2204.86 273.346 L2210.12 273.346 L2210.12 289.283 L2229.23 289.283 L2229.23 273.346 L2234.5 273.346 L2234.5 312.226 L2229.23 312.226 L2229.23 293.71 L2210.12 293.71 L2210.12 312.226 L2204.86 312.226 L2204.86 273.346 Z" fill="#000000" fill-rule="nonzero" fill-opacity="1" /><path clip-path="url(#clip590)" d="M2244.96 273.346 L2252.8 273.346 L2262.72 299.804 L2272.7 273.346 L2280.54 273.346 L2280.54 312.226 L2275.41 312.226 L2275.41 278.085 L2265.38 304.752 L2260.09 304.752 L2250.07 278.085 L2250.07 312.226 L2244.96 312.226 L2244.96 273.346 Z" fill="#000000" fill-rule="nonzero" fill-opacity="1" /><path clip-path="url(#clip590)" d="M2290.98 273.346 L2298.82 273.346 L2308.74 299.804 L2318.71 273.346 L2326.55 273.346 L2326.55 312.226 L2321.42 312.226 L2321.42 278.085 L2311.4 304.752 L2306.11 304.752 L2296.08 278.085 L2296.08 312.226 L2290.98 312.226 L2290.98 273.346 Z" fill="#000000" fill-rule="nonzero" fill-opacity="1" /><path clip-path="url(#clip590)" d="M2334.36 295.481 L2348.4 295.481 L2348.4 299.752 L2334.36 299.752 L2334.36 295.481 Z" fill="#000000" fill-rule="nonzero" fill-opacity="1" /><path clip-path="url(#clip590)" d="M2360.77 274.778 L2360.77 283.059 L2370.64 283.059 L2370.64 286.783 L2360.77 286.783 L2360.77 302.617 Q2360.77 306.184 2361.73 307.2 Q2362.72 308.215 2365.72 308.215 L2370.64 308.215 L2370.64 312.226 L2365.72 312.226 Q2360.17 312.226 2358.06 310.169 Q2355.95 308.085 2355.95 302.617 L2355.95 286.783 L2352.44 286.783 L2352.44 283.059 L2355.95 283.059 L2355.95 274.778 L2360.77 274.778 Z" fill="#000000" fill-rule="nonzero" fill-opacity="1" /><path clip-path="url(#clip590)" d="M2405.41 271.757 Q2401.92 277.747 2400.22 283.606 Q2398.53 289.466 2398.53 295.481 Q2398.53 301.497 2400.22 307.408 Q2401.94 313.294 2405.41 319.257 L2401.24 319.257 Q2397.33 313.137 2395.38 307.226 Q2393.45 301.314 2393.45 295.481 Q2393.45 289.674 2395.38 283.788 Q2397.31 277.903 2401.24 271.757 L2405.41 271.757 Z" fill="#000000" fill-rule="nonzero" fill-opacity="1" /><path clip-path="url(#clip590)" d="M2437.41 288.658 Q2439.21 285.429 2441.71 283.893 Q2444.21 282.356 2447.59 282.356 Q2452.15 282.356 2454.62 285.559 Q2457.1 288.736 2457.1 294.622 L2457.1 312.226 L2452.28 312.226 L2452.28 294.778 Q2452.28 290.585 2450.8 288.554 Q2449.31 286.523 2446.26 286.523 Q2442.54 286.523 2440.38 288.997 Q2438.22 291.471 2438.22 295.742 L2438.22 312.226 L2433.4 312.226 L2433.4 294.778 Q2433.4 290.559 2431.92 288.554 Q2430.43 286.523 2427.33 286.523 Q2423.66 286.523 2421.5 289.023 Q2419.34 291.497 2419.34 295.742 L2419.34 312.226 L2414.52 312.226 L2414.52 283.059 L2419.34 283.059 L2419.34 287.591 Q2420.98 284.908 2423.27 283.632 Q2425.56 282.356 2428.71 282.356 Q2431.89 282.356 2434.1 283.971 Q2436.34 285.585 2437.41 288.658 Z" fill="#000000" fill-rule="nonzero" fill-opacity="1" /><path clip-path="url(#clip590)" d="M2491.6 296.445 L2491.6 298.788 L2469.57 298.788 Q2469.88 303.736 2472.54 306.34 Q2475.22 308.919 2479.99 308.919 Q2482.75 308.919 2485.33 308.241 Q2487.93 307.564 2490.48 306.21 L2490.48 310.741 Q2487.91 311.835 2485.2 312.408 Q2482.49 312.981 2479.7 312.981 Q2472.72 312.981 2468.63 308.919 Q2464.57 304.856 2464.57 297.929 Q2464.57 290.768 2468.43 286.575 Q2472.31 282.356 2478.87 282.356 Q2484.75 282.356 2488.17 286.158 Q2491.6 289.934 2491.6 296.445 M2486.81 295.038 Q2486.76 291.106 2484.6 288.762 Q2482.46 286.419 2478.92 286.419 Q2474.91 286.419 2472.49 288.684 Q2470.09 290.95 2469.73 295.064 L2486.81 295.038 Z" fill="#000000" fill-rule="nonzero" fill-opacity="1" /><path clip-path="url(#clip590)" d="M2512.72 297.564 Q2506.92 297.564 2504.68 298.893 Q2502.44 300.221 2502.44 303.424 Q2502.44 305.976 2504.1 307.486 Q2505.8 308.971 2508.69 308.971 Q2512.67 308.971 2515.07 306.158 Q2517.49 303.32 2517.49 298.632 L2517.49 297.564 L2512.72 297.564 M2522.28 295.585 L2522.28 312.226 L2517.49 312.226 L2517.49 307.799 Q2515.85 310.455 2513.4 311.731 Q2510.95 312.981 2507.41 312.981 Q2502.93 312.981 2500.27 310.481 Q2497.64 307.955 2497.64 303.736 Q2497.64 298.814 2500.93 296.314 Q2504.23 293.814 2510.77 293.814 L2517.49 293.814 L2517.49 293.346 Q2517.49 290.038 2515.3 288.242 Q2513.14 286.419 2509.21 286.419 Q2506.71 286.419 2504.34 287.018 Q2501.97 287.617 2499.78 288.814 L2499.78 284.387 Q2502.41 283.372 2504.88 282.877 Q2507.36 282.356 2509.7 282.356 Q2516.03 282.356 2519.16 285.637 Q2522.28 288.919 2522.28 295.585 Z" fill="#000000" fill-rule="nonzero" fill-opacity="1" /><path clip-path="url(#clip590)" d="M2556.39 294.622 L2556.39 312.226 L2551.6 312.226 L2551.6 294.778 Q2551.6 290.637 2549.99 288.58 Q2548.37 286.523 2545.14 286.523 Q2541.26 286.523 2539.02 288.997 Q2536.79 291.471 2536.79 295.742 L2536.79 312.226 L2531.97 312.226 L2531.97 283.059 L2536.79 283.059 L2536.79 287.591 Q2538.5 284.96 2540.82 283.658 Q2543.17 282.356 2546.21 282.356 Q2551.24 282.356 2553.82 285.481 Q2556.39 288.58 2556.39 294.622 Z" fill="#000000" fill-rule="nonzero" fill-opacity="1" /><path clip-path="url(#clip590)" d="M2565.2 271.757 L2569.36 271.757 Q2573.27 277.903 2575.2 283.788 Q2577.15 289.674 2577.15 295.481 Q2577.15 301.314 2575.2 307.226 Q2573.27 313.137 2569.36 319.257 L2565.2 319.257 Q2568.66 313.294 2570.35 307.408 Q2572.07 301.497 2572.07 295.481 Q2572.07 289.466 2570.35 283.606 Q2568.66 277.747 2565.2 271.757 Z" fill="#000000" fill-rule="nonzero" fill-opacity="1" /><path clip-path="url(#clip590)" d="M1995.86 374.434 L2141.16 374.434 L2141.16 327.778 L1995.86 327.778 L1995.86 374.434  Z" fill="#009e73" fill-rule="evenodd" fill-opacity="0.2"/>
<polyline clip-path="url(#clip590)" style="stroke:#009e73; stroke-linecap:round; stroke-linejoin:round; stroke-width:4.5; stroke-opacity:0.2; fill:none" points="1995.86,327.778 2141.16,327.778 "/>
<path clip-path="url(#clip590)" d="M2166.14 366.119 L2174.73 366.119 L2174.73 336.457 L2165.38 338.332 L2165.38 333.541 L2174.68 331.666 L2179.94 331.666 L2179.94 366.119 L2188.53 366.119 L2188.53 370.546 L2166.14 370.546 L2166.14 366.119 Z" fill="#000000" fill-rule="nonzero" fill-opacity="1" /><path clip-path="url(#clip590)" d="M2210.41 335.129 Q2206.34 335.129 2204.29 339.14 Q2202.26 343.124 2202.26 351.145 Q2202.26 359.14 2204.29 363.15 Q2206.34 367.134 2210.41 367.134 Q2214.5 367.134 2216.53 363.15 Q2218.58 359.14 2218.58 351.145 Q2218.58 343.124 2216.53 339.14 Q2214.5 335.129 2210.41 335.129 M2210.41 330.963 Q2216.94 330.963 2220.38 336.145 Q2223.84 341.301 2223.84 351.145 Q2223.84 360.963 2220.38 366.145 Q2216.94 371.301 2210.41 371.301 Q2203.87 371.301 2200.41 366.145 Q2196.97 360.963 2196.97 351.145 Q2196.97 341.301 2200.41 336.145 Q2203.87 330.963 2210.41 330.963 Z" fill="#000000" fill-rule="nonzero" fill-opacity="1" /><path clip-path="url(#clip590)" d="M2229.99 353.801 L2244.03 353.801 L2244.03 358.072 L2229.99 358.072 L2229.99 353.801 Z" fill="#000000" fill-rule="nonzero" fill-opacity="1" /><path clip-path="url(#clip590)" d="M2252.49 369.739 L2252.49 364.947 Q2254.47 365.884 2256.5 366.379 Q2258.53 366.874 2260.48 366.874 Q2265.69 366.874 2268.43 363.384 Q2271.19 359.869 2271.58 352.733 Q2270.07 354.973 2267.75 356.171 Q2265.43 357.369 2262.62 357.369 Q2256.79 357.369 2253.38 353.853 Q2249.99 350.312 2249.99 344.192 Q2249.99 338.202 2253.53 334.582 Q2257.07 330.963 2262.96 330.963 Q2269.7 330.963 2273.24 336.145 Q2276.81 341.301 2276.81 351.145 Q2276.81 360.338 2272.44 365.832 Q2268.09 371.301 2260.72 371.301 Q2258.74 371.301 2256.71 370.91 Q2254.68 370.52 2252.49 369.739 M2262.96 353.254 Q2266.5 353.254 2268.56 350.832 Q2270.64 348.411 2270.64 344.192 Q2270.64 339.999 2268.56 337.577 Q2266.5 335.129 2262.96 335.129 Q2259.42 335.129 2257.33 337.577 Q2255.28 339.999 2255.28 344.192 Q2255.28 348.411 2257.33 350.832 Q2259.42 353.254 2262.96 353.254 Z" fill="#000000" fill-rule="nonzero" fill-opacity="1" /><path clip-path="url(#clip590)" d="M2297.52 335.129 Q2293.45 335.129 2291.4 339.14 Q2289.36 343.124 2289.36 351.145 Q2289.36 359.14 2291.4 363.15 Q2293.45 367.134 2297.52 367.134 Q2301.6 367.134 2303.64 363.15 Q2305.69 359.14 2305.69 351.145 Q2305.69 343.124 2303.64 339.14 Q2301.6 335.129 2297.52 335.129 M2297.52 330.963 Q2304.05 330.963 2307.49 336.145 Q2310.95 341.301 2310.95 351.145 Q2310.95 360.963 2307.49 366.145 Q2304.05 371.301 2297.52 371.301 Q2290.98 371.301 2287.52 366.145 Q2284.08 360.963 2284.08 351.145 Q2284.08 341.301 2287.52 336.145 Q2290.98 330.963 2297.52 330.963 Z" fill="#000000" fill-rule="nonzero" fill-opacity="1" /><path clip-path="url(#clip590)" d="M2324.26 333.098 L2324.26 341.379 L2334.13 341.379 L2334.13 345.103 L2324.26 345.103 L2324.26 360.937 Q2324.26 364.504 2325.22 365.52 Q2326.21 366.535 2329.21 366.535 L2334.13 366.535 L2334.13 370.546 L2329.21 370.546 Q2323.66 370.546 2321.55 368.489 Q2319.44 366.405 2319.44 360.937 L2319.44 345.103 L2315.93 345.103 L2315.93 341.379 L2319.44 341.379 L2319.44 333.098 L2324.26 333.098 Z" fill="#000000" fill-rule="nonzero" fill-opacity="1" /><path clip-path="url(#clip590)" d="M2364.68 352.942 L2364.68 370.546 L2359.89 370.546 L2359.89 353.098 Q2359.89 348.957 2358.27 346.9 Q2356.66 344.843 2353.43 344.843 Q2349.55 344.843 2347.31 347.317 Q2345.07 349.791 2345.07 354.062 L2345.07 370.546 L2340.25 370.546 L2340.25 330.025 L2345.07 330.025 L2345.07 345.911 Q2346.79 343.28 2349.1 341.978 Q2351.45 340.676 2354.49 340.676 Q2359.52 340.676 2362.1 343.801 Q2364.68 346.9 2364.68 352.942 Z" fill="#000000" fill-rule="nonzero" fill-opacity="1" /><path clip-path="url(#clip590)" d="M2395.82 366.171 L2395.82 381.64 L2391 381.64 L2391 341.379 L2395.82 341.379 L2395.82 345.806 Q2397.33 343.202 2399.62 341.952 Q2401.94 340.676 2405.15 340.676 Q2410.46 340.676 2413.76 344.895 Q2417.1 349.114 2417.1 355.989 Q2417.1 362.864 2413.76 367.082 Q2410.46 371.301 2405.15 371.301 Q2401.94 371.301 2399.62 370.051 Q2397.33 368.775 2395.82 366.171 M2412.12 355.989 Q2412.12 350.702 2409.94 347.707 Q2407.78 344.687 2403.97 344.687 Q2400.17 344.687 2397.98 347.707 Q2395.82 350.702 2395.82 355.989 Q2395.82 361.275 2397.98 364.296 Q2400.17 367.291 2403.97 367.291 Q2407.78 367.291 2409.94 364.296 Q2412.12 361.275 2412.12 355.989 Z" fill="#000000" fill-rule="nonzero" fill-opacity="1" /><path clip-path="url(#clip590)" d="M2446.03 342.499 L2446.03 346.978 Q2444 345.858 2441.94 345.312 Q2439.91 344.739 2437.83 344.739 Q2433.17 344.739 2430.59 347.707 Q2428.01 350.65 2428.01 355.989 Q2428.01 361.327 2430.59 364.296 Q2433.17 367.239 2437.83 367.239 Q2439.91 367.239 2441.94 366.692 Q2444 366.119 2446.03 364.999 L2446.03 369.426 Q2444.03 370.364 2441.86 370.832 Q2439.73 371.301 2437.31 371.301 Q2430.72 371.301 2426.84 367.16 Q2422.96 363.02 2422.96 355.989 Q2422.96 348.853 2426.86 344.765 Q2430.8 340.676 2437.62 340.676 Q2439.83 340.676 2441.94 341.145 Q2444.05 341.588 2446.03 342.499 Z" fill="#000000" fill-rule="nonzero" fill-opacity="1" /><path clip-path="url(#clip590)" d="M2459.1 333.098 L2459.1 341.379 L2468.97 341.379 L2468.97 345.103 L2459.1 345.103 L2459.1 360.937 Q2459.1 364.504 2460.07 365.52 Q2461.06 366.535 2464.05 366.535 L2468.97 366.535 L2468.97 370.546 L2464.05 370.546 Q2458.5 370.546 2456.39 368.489 Q2454.29 366.405 2454.29 360.937 L2454.29 345.103 L2450.77 345.103 L2450.77 341.379 L2454.29 341.379 L2454.29 333.098 L2459.1 333.098 Z" fill="#000000" fill-rule="nonzero" fill-opacity="1" /><path clip-path="url(#clip590)" d="M2475.28 330.025 L2480.07 330.025 L2480.07 370.546 L2475.28 370.546 L2475.28 330.025 Z" fill="#000000" fill-rule="nonzero" fill-opacity="1" /></svg>
