<?xml version="1.0" encoding="utf-8"?>
<svg xmlns="http://www.w3.org/2000/svg" xmlns:xlink="http://www.w3.org/1999/xlink" width="600" height="400" viewBox="0 0 2400 1600">
<defs>
  <clipPath id="clip470">
    <rect x="0" y="0" width="2400" height="1600"/>
  </clipPath>
</defs>
<path clip-path="url(#clip470)" d="M0 1600 L2400 1600 L2400 8.88178e-14 L0 8.88178e-14  Z" fill="#ffffff" fill-rule="evenodd" fill-opacity="1"/>
<defs>
  <clipPath id="clip471">
    <rect x="386" y="125" width="1889" height="1116"/>
  </clipPath>
</defs>
<path clip-path="url(#clip470)" d="M545.232 1241.31 L2274.02 1241.31 L2274.02 125.984 L545.232 125.984  Z" fill="#ffffff" fill-rule="evenodd" fill-opacity="1"/>
<defs>
  <clipPath id="clip472">
    <rect x="545" y="125" width="1730" height="1116"/>
  </clipPath>
</defs>
<polyline clip-path="url(#clip472)" style="stroke:#000000; stroke-linecap:round; stroke-linejoin:round; stroke-width:2; stroke-opacity:0.1; fill:none" points="566.517,1241.31 566.517,125.984 "/>
<polyline clip-path="url(#clip472)" style="stroke:#000000; stroke-linecap:round; stroke-linejoin:round; stroke-width:2; stroke-opacity:0.1; fill:none" points="842.946,1241.31 842.946,125.984 "/>
<polyline clip-path="url(#clip472)" style="stroke:#000000; stroke-linecap:round; stroke-linejoin:round; stroke-width:2; stroke-opacity:0.1; fill:none" points="1119.37,1241.31 1119.37,125.984 "/>
<polyline clip-path="url(#clip472)" style="stroke:#000000; stroke-linecap:round; stroke-linejoin:round; stroke-width:2; stroke-opacity:0.1; fill:none" points="1395.8,1241.31 1395.8,125.984 "/>
<polyline clip-path="url(#clip472)" style="stroke:#000000; stroke-linecap:round; stroke-linejoin:round; stroke-width:2; stroke-opacity:0.1; fill:none" points="1672.23,1241.31 1672.23,125.984 "/>
<polyline clip-path="url(#clip472)" style="stroke:#000000; stroke-linecap:round; stroke-linejoin:round; stroke-width:2; stroke-opacity:0.1; fill:none" points="1948.66,1241.31 1948.66,125.984 "/>
<polyline clip-path="url(#clip472)" style="stroke:#000000; stroke-linecap:round; stroke-linejoin:round; stroke-width:2; stroke-opacity:0.1; fill:none" points="2225.09,1241.31 2225.09,125.984 "/>
<polyline clip-path="url(#clip472)" style="stroke:#000000; stroke-linecap:round; stroke-linejoin:round; stroke-width:2; stroke-opacity:0.1; fill:none" points="545.232,1163.59 2274.02,1163.59 "/>
<polyline clip-path="url(#clip472)" style="stroke:#000000; stroke-linecap:round; stroke-linejoin:round; stroke-width:2; stroke-opacity:0.1; fill:none" points="545.232,934.87 2274.02,934.87 "/>
<polyline clip-path="url(#clip472)" style="stroke:#000000; stroke-linecap:round; stroke-linejoin:round; stroke-width:2; stroke-opacity:0.1; fill:none" points="545.232,706.149 2274.02,706.149 "/>
<polyline clip-path="url(#clip472)" style="stroke:#000000; stroke-linecap:round; stroke-linejoin:round; stroke-width:2; stroke-opacity:0.1; fill:none" points="545.232,477.429 2274.02,477.429 "/>
<polyline clip-path="url(#clip472)" style="stroke:#000000; stroke-linecap:round; stroke-linejoin:round; stroke-width:2; stroke-opacity:0.1; fill:none" points="545.232,248.709 2274.02,248.709 "/>
<polyline clip-path="url(#clip470)" style="stroke:#000000; stroke-linecap:round; stroke-linejoin:round; stroke-width:4; stroke-opacity:1; fill:none" points="545.232,1241.31 2274.02,1241.31 "/>
<polyline clip-path="url(#clip470)" style="stroke:#000000; stroke-linecap:round; stroke-linejoin:round; stroke-width:4; stroke-opacity:1; fill:none" points="566.517,1241.31 566.517,1222.41 "/>
<polyline clip-path="url(#clip470)" style="stroke:#000000; stroke-linecap:round; stroke-linejoin:round; stroke-width:4; stroke-opacity:1; fill:none" points="842.946,1241.31 842.946,1222.41 "/>
<polyline clip-path="url(#clip470)" style="stroke:#000000; stroke-linecap:round; stroke-linejoin:round; stroke-width:4; stroke-opacity:1; fill:none" points="1119.37,1241.31 1119.37,1222.41 "/>
<polyline clip-path="url(#clip470)" style="stroke:#000000; stroke-linecap:round; stroke-linejoin:round; stroke-width:4; stroke-opacity:1; fill:none" points="1395.8,1241.31 1395.8,1222.41 "/>
<polyline clip-path="url(#clip470)" style="stroke:#000000; stroke-linecap:round; stroke-linejoin:round; stroke-width:4; stroke-opacity:1; fill:none" points="1672.23,1241.31 1672.23,1222.41 "/>
<polyline clip-path="url(#clip470)" style="stroke:#000000; stroke-linecap:round; stroke-linejoin:round; stroke-width:4; stroke-opacity:1; fill:none" points="1948.66,1241.31 1948.66,1222.41 "/>
<polyline clip-path="url(#clip470)" style="stroke:#000000; stroke-linecap:round; stroke-linejoin:round; stroke-width:4; stroke-opacity:1; fill:none" points="2225.09,1241.31 2225.09,1222.41 "/>
<path clip-path="url(#clip470)" d="M566.517 1275.16 Q562.004 1275.16 559.718 1279.62 Q557.461 1284.04 557.461 1292.95 Q557.461 1301.84 559.718 1306.29 Q562.004 1310.72 566.517 1310.72 Q571.06 1310.72 573.317 1306.29 Q575.603 1301.84 575.603 1292.95 Q575.603 1284.04 573.317 1279.62 Q571.06 1275.16 566.517 1275.16 M566.517 1270.53 Q573.78 1270.53 577.599 1276.29 Q581.448 1282.02 581.448 1292.95 Q581.448 1303.86 577.599 1309.62 Q573.78 1315.35 566.517 1315.35 Q559.255 1315.35 555.406 1309.62 Q551.587 1303.86 551.587 1292.95 Q551.587 1282.02 555.406 1276.29 Q559.255 1270.53 566.517 1270.53 Z" fill="#000000" fill-rule="nonzero" fill-opacity="1" /><path clip-path="url(#clip470)" d="M811.305 1309.59 L820.854 1309.59 L820.854 1276.64 L810.466 1278.72 L810.466 1273.39 L820.796 1271.31 L826.641 1271.31 L826.641 1309.59 L836.189 1309.59 L836.189 1314.51 L811.305 1314.51 L811.305 1309.59 Z" fill="#000000" fill-rule="nonzero" fill-opacity="1" /><path clip-path="url(#clip470)" d="M860.495 1275.16 Q855.981 1275.16 853.695 1279.62 Q851.438 1284.04 851.438 1292.95 Q851.438 1301.84 853.695 1306.29 Q855.981 1310.72 860.495 1310.72 Q865.038 1310.72 867.295 1306.29 Q869.58 1301.84 869.58 1292.95 Q869.58 1284.04 867.295 1279.62 Q865.038 1275.16 860.495 1275.16 M860.495 1270.53 Q867.758 1270.53 871.577 1276.29 Q875.425 1282.02 875.425 1292.95 Q875.425 1303.86 871.577 1309.62 Q867.758 1315.35 860.495 1315.35 Q853.232 1315.35 849.384 1309.62 Q845.564 1303.86 845.564 1292.95 Q845.564 1282.02 849.384 1276.29 Q853.232 1270.53 860.495 1270.53 Z" fill="#000000" fill-rule="nonzero" fill-opacity="1" /><path clip-path="url(#clip470)" d="M1092.84 1309.59 L1113.24 1309.59 L1113.24 1314.51 L1085.81 1314.51 L1085.81 1309.59 Q1089.14 1306.15 1094.87 1300.36 Q1100.62 1294.55 1102.1 1292.87 Q1104.91 1289.71 1106.01 1287.54 Q1107.13 1285.34 1107.13 1283.23 Q1107.13 1279.79 1104.7 1277.62 Q1102.3 1275.45 1098.43 1275.45 Q1095.68 1275.45 1092.61 1276.4 Q1089.57 1277.36 1086.1 1279.3 L1086.1 1273.39 Q1089.63 1271.98 1092.7 1271.25 Q1095.76 1270.53 1098.31 1270.53 Q1105.02 1270.53 1109.02 1273.89 Q1113.01 1277.24 1113.01 1282.86 Q1113.01 1285.52 1112 1287.92 Q1111.01 1290.29 1108.38 1293.53 Q1107.66 1294.37 1103.78 1298.39 Q1099.9 1302.39 1092.84 1309.59 Z" fill="#000000" fill-rule="nonzero" fill-opacity="1" /><path clip-path="url(#clip470)" d="M1138.01 1275.16 Q1133.49 1275.16 1131.21 1279.62 Q1128.95 1284.04 1128.95 1292.95 Q1128.95 1301.84 1131.21 1306.29 Q1133.49 1310.72 1138.01 1310.72 Q1142.55 1310.72 1144.81 1306.29 Q1147.09 1301.84 1147.09 1292.95 Q1147.09 1284.04 1144.81 1279.62 Q1142.55 1275.16 1138.01 1275.16 M1138.01 1270.53 Q1145.27 1270.53 1149.09 1276.29 Q1152.94 1282.02 1152.94 1292.95 Q1152.94 1303.86 1149.09 1309.62 Q1145.27 1315.35 1138.01 1315.35 Q1130.75 1315.35 1126.9 1309.62 Q1123.08 1303.86 1123.08 1292.95 Q1123.08 1282.02 1126.9 1276.29 Q1130.75 1270.53 1138.01 1270.53 Z" fill="#000000" fill-rule="nonzero" fill-opacity="1" /><path clip-path="url(#clip470)" d="M1381.86 1291.22 Q1386.05 1292.12 1388.4 1294.95 Q1390.77 1297.79 1390.77 1301.95 Q1390.77 1308.35 1386.37 1311.85 Q1381.97 1315.35 1373.87 1315.35 Q1371.15 1315.35 1368.26 1314.8 Q1365.39 1314.28 1362.32 1313.21 L1362.32 1307.57 Q1364.76 1308.98 1367.65 1309.71 Q1370.54 1310.43 1373.7 1310.43 Q1379.19 1310.43 1382.06 1308.26 Q1384.95 1306.09 1384.95 1301.95 Q1384.95 1298.13 1382.26 1295.99 Q1379.6 1293.82 1374.82 1293.82 L1369.79 1293.82 L1369.79 1289.02 L1375.06 1289.02 Q1379.37 1289.02 1381.65 1287.31 Q1383.94 1285.58 1383.94 1282.34 Q1383.94 1279.01 1381.57 1277.24 Q1379.22 1275.45 1374.82 1275.45 Q1372.42 1275.45 1369.67 1275.97 Q1366.93 1276.49 1363.63 1277.59 L1363.63 1272.38 Q1366.95 1271.46 1369.85 1270.99 Q1372.77 1270.53 1375.35 1270.53 Q1382 1270.53 1385.88 1273.57 Q1389.76 1276.58 1389.76 1281.73 Q1389.76 1285.32 1387.7 1287.8 Q1385.65 1290.26 1381.86 1291.22 Z" fill="#000000" fill-rule="nonzero" fill-opacity="1" /><path clip-path="url(#clip470)" d="M1414.35 1275.16 Q1409.84 1275.16 1407.55 1279.62 Q1405.29 1284.04 1405.29 1292.95 Q1405.29 1301.84 1407.55 1306.29 Q1409.84 1310.72 1414.35 1310.72 Q1418.89 1310.72 1421.15 1306.29 Q1423.44 1301.84 1423.44 1292.95 Q1423.44 1284.04 1421.15 1279.62 Q1418.89 1275.16 1414.35 1275.16 M1414.35 1270.53 Q1421.61 1270.53 1425.43 1276.29 Q1429.28 1282.02 1429.28 1292.95 Q1429.28 1303.86 1425.43 1309.62 Q1421.61 1315.35 1414.35 1315.35 Q1407.09 1315.35 1403.24 1309.62 Q1399.42 1303.86 1399.42 1292.95 Q1399.42 1282.02 1403.24 1276.29 Q1407.09 1270.53 1414.35 1270.53 Z" fill="#000000" fill-rule="nonzero" fill-opacity="1" /><path clip-path="url(#clip470)" d="M1657.45 1276.4 L1642.69 1299.47 L1657.45 1299.47 L1657.45 1276.4 M1655.91 1271.31 L1663.26 1271.31 L1663.26 1299.47 L1669.42 1299.47 L1669.42 1304.33 L1663.26 1304.33 L1663.26 1314.51 L1657.45 1314.51 L1657.45 1304.33 L1637.94 1304.33 L1637.94 1298.68 L1655.91 1271.31 Z" fill="#000000" fill-rule="nonzero" fill-opacity="1" /><path clip-path="url(#clip470)" d="M1691.59 1275.16 Q1687.07 1275.16 1684.79 1279.62 Q1682.53 1284.04 1682.53 1292.95 Q1682.53 1301.84 1684.79 1306.29 Q1687.07 1310.72 1691.59 1310.72 Q1696.13 1310.72 1698.39 1306.29 Q1700.67 1301.84 1700.67 1292.95 Q1700.67 1284.04 1698.39 1279.62 Q1696.13 1275.16 1691.59 1275.16 M1691.59 1270.53 Q1698.85 1270.53 1702.67 1276.29 Q1706.52 1282.02 1706.52 1292.95 Q1706.52 1303.86 1702.67 1309.62 Q1698.85 1315.35 1691.59 1315.35 Q1684.33 1315.35 1680.48 1309.62 Q1676.66 1303.86 1676.66 1292.95 Q1676.66 1282.02 1680.48 1276.29 Q1684.33 1270.53 1691.59 1270.53 Z" fill="#000000" fill-rule="nonzero" fill-opacity="1" /><path clip-path="url(#clip470)" d="M1917.03 1271.31 L1939.98 1271.31 L1939.98 1276.23 L1922.39 1276.23 L1922.39 1286.82 Q1923.66 1286.39 1924.93 1286.18 Q1926.21 1285.95 1927.48 1285.95 Q1934.71 1285.95 1938.94 1289.92 Q1943.16 1293.88 1943.16 1300.65 Q1943.16 1307.62 1938.82 1311.5 Q1934.48 1315.35 1926.58 1315.35 Q1923.86 1315.35 1921.03 1314.89 Q1918.22 1314.42 1915.21 1313.5 L1915.21 1307.62 Q1917.81 1309.04 1920.59 1309.74 Q1923.37 1310.43 1926.47 1310.43 Q1931.47 1310.43 1934.39 1307.8 Q1937.32 1305.17 1937.32 1300.65 Q1937.32 1296.14 1934.39 1293.5 Q1931.47 1290.87 1926.47 1290.87 Q1924.12 1290.87 1921.78 1291.39 Q1919.46 1291.91 1917.03 1293.01 L1917.03 1271.31 Z" fill="#000000" fill-rule="nonzero" fill-opacity="1" /><path clip-path="url(#clip470)" d="M1967.18 1275.16 Q1962.66 1275.16 1960.38 1279.62 Q1958.12 1284.04 1958.12 1292.95 Q1958.12 1301.84 1960.38 1306.29 Q1962.66 1310.72 1967.18 1310.72 Q1971.72 1310.72 1973.98 1306.29 Q1976.26 1301.84 1976.26 1292.95 Q1976.26 1284.04 1973.98 1279.62 Q1971.72 1275.16 1967.18 1275.16 M1967.18 1270.53 Q1974.44 1270.53 1978.26 1276.29 Q1982.11 1282.02 1982.11 1292.95 Q1982.11 1303.86 1978.26 1309.62 Q1974.44 1315.35 1967.18 1315.35 Q1959.92 1315.35 1956.07 1309.62 Q1952.25 1303.86 1952.25 1292.95 Q1952.25 1282.02 1956.07 1276.29 Q1959.92 1270.53 1967.18 1270.53 Z" fill="#000000" fill-rule="nonzero" fill-opacity="1" /><path clip-path="url(#clip470)" d="M2206.84 1290.58 Q2202.91 1290.58 2200.59 1293.27 Q2198.31 1295.96 2198.31 1300.65 Q2198.31 1305.31 2200.59 1308.03 Q2202.91 1310.72 2206.84 1310.72 Q2210.78 1310.72 2213.07 1308.03 Q2215.38 1305.31 2215.38 1300.65 Q2215.38 1295.96 2213.07 1293.27 Q2210.78 1290.58 2206.84 1290.58 M2218.45 1272.27 L2218.45 1277.59 Q2216.25 1276.55 2213.99 1276 Q2211.76 1275.45 2209.56 1275.45 Q2203.78 1275.45 2200.71 1279.36 Q2197.67 1283.26 2197.24 1291.16 Q2198.95 1288.64 2201.52 1287.31 Q2204.1 1285.95 2207.19 1285.95 Q2213.7 1285.95 2217.46 1289.92 Q2221.25 1293.85 2221.25 1300.65 Q2221.25 1307.31 2217.32 1311.33 Q2213.38 1315.35 2206.84 1315.35 Q2199.35 1315.35 2195.39 1309.62 Q2191.42 1303.86 2191.42 1292.95 Q2191.42 1282.71 2196.28 1276.64 Q2201.14 1270.53 2209.33 1270.53 Q2211.53 1270.53 2213.76 1270.96 Q2216.02 1271.4 2218.45 1272.27 Z" fill="#000000" fill-rule="nonzero" fill-opacity="1" /><path clip-path="url(#clip470)" d="M2243.82 1275.16 Q2239.31 1275.16 2237.02 1279.62 Q2234.77 1284.04 2234.77 1292.95 Q2234.77 1301.84 2237.02 1306.29 Q2239.31 1310.72 2243.82 1310.72 Q2248.37 1310.72 2250.62 1306.29 Q2252.91 1301.84 2252.91 1292.95 Q2252.91 1284.04 2250.62 1279.62 Q2248.37 1275.16 2243.82 1275.16 M2243.82 1270.53 Q2251.09 1270.53 2254.91 1276.29 Q2258.75 1282.02 2258.75 1292.95 Q2258.75 1303.86 2254.91 1309.62 Q2251.09 1315.35 2243.82 1315.35 Q2236.56 1315.35 2232.71 1309.62 Q2228.89 1303.86 2228.89 1292.95 Q2228.89 1282.02 2232.71 1276.29 Q2236.56 1270.53 2243.82 1270.53 Z" fill="#000000" fill-rule="nonzero" fill-opacity="1" /><path clip-path="url(#clip470)" d="M1218.83 1351.62 L1248.87 1351.62 L1248.87 1357.03 L1225.26 1357.03 L1225.26 1371.09 L1247.89 1371.09 L1247.89 1376.51 L1225.26 1376.51 L1225.26 1393.72 L1249.45 1393.72 L1249.45 1399.14 L1218.83 1399.14 L1218.83 1351.62 Z" fill="#000000" fill-rule="nonzero" fill-opacity="1" /><path clip-path="url(#clip470)" d="M1260.01 1351.62 L1269.59 1351.62 L1281.72 1383.95 L1293.91 1351.62 L1303.49 1351.62 L1303.49 1399.14 L1297.22 1399.14 L1297.22 1357.41 L1284.97 1390 L1278.51 1390 L1266.25 1357.41 L1266.25 1399.14 L1260.01 1399.14 L1260.01 1351.62 Z" fill="#000000" fill-rule="nonzero" fill-opacity="1" /><path clip-path="url(#clip470)" d="M1336.72 1363.49 L1342.58 1363.49 L1342.58 1399.14 L1336.72 1399.14 L1336.72 1363.49 M1336.72 1349.61 L1342.58 1349.61 L1342.58 1357.03 L1336.72 1357.03 L1336.72 1349.61 Z" fill="#000000" fill-rule="nonzero" fill-opacity="1" /><path clip-path="url(#clip470)" d="M1360.62 1353.37 L1360.62 1363.49 L1372.69 1363.49 L1372.69 1368.04 L1360.62 1368.04 L1360.62 1387.39 Q1360.62 1391.75 1361.8 1392.99 Q1363.01 1394.23 1366.67 1394.23 L1372.69 1394.23 L1372.69 1399.14 L1366.67 1399.14 Q1359.89 1399.14 1357.31 1396.62 Q1354.74 1394.07 1354.74 1387.39 L1354.74 1368.04 L1350.44 1368.04 L1350.44 1363.49 L1354.74 1363.49 L1354.74 1353.37 L1360.62 1353.37 Z" fill="#000000" fill-rule="nonzero" fill-opacity="1" /><path clip-path="url(#clip470)" d="M1410.88 1379.85 L1410.88 1382.71 L1383.95 1382.71 Q1384.34 1388.76 1387.58 1391.94 Q1390.86 1395.09 1396.69 1395.09 Q1400.06 1395.09 1403.21 1394.27 Q1406.39 1393.44 1409.51 1391.78 L1409.51 1397.32 Q1406.36 1398.66 1403.05 1399.36 Q1399.74 1400.06 1396.34 1400.06 Q1387.81 1400.06 1382.81 1395.09 Q1377.84 1390.13 1377.84 1381.66 Q1377.84 1372.91 1382.55 1367.78 Q1387.3 1362.63 1395.32 1362.63 Q1402.51 1362.63 1406.68 1367.28 Q1410.88 1371.89 1410.88 1379.85 M1405.02 1378.13 Q1404.96 1373.32 1402.32 1370.46 Q1399.71 1367.59 1395.38 1367.59 Q1390.48 1367.59 1387.52 1370.36 Q1384.59 1373.13 1384.15 1378.16 L1405.02 1378.13 Z" fill="#000000" fill-rule="nonzero" fill-opacity="1" /><path clip-path="url(#clip470)" d="M1441.15 1368.96 Q1440.16 1368.39 1438.99 1368.13 Q1437.84 1367.85 1436.44 1367.85 Q1431.47 1367.85 1428.8 1371.09 Q1426.16 1374.31 1426.16 1380.36 L1426.16 1399.14 L1420.27 1399.14 L1420.27 1363.49 L1426.16 1363.49 L1426.16 1369.03 Q1428.01 1365.78 1430.97 1364.22 Q1433.93 1362.63 1438.16 1362.63 Q1438.76 1362.63 1439.5 1362.72 Q1440.23 1362.79 1441.12 1362.95 L1441.15 1368.96 Z" fill="#000000" fill-rule="nonzero" fill-opacity="1" /><path clip-path="url(#clip470)" d="M1463.49 1381.22 Q1456.4 1381.22 1453.66 1382.84 Q1450.92 1384.46 1450.92 1388.38 Q1450.92 1391.5 1452.96 1393.34 Q1455.03 1395.16 1458.56 1395.16 Q1463.43 1395.16 1466.36 1391.72 Q1469.32 1388.25 1469.32 1382.52 L1469.32 1381.22 L1463.49 1381.22 M1475.17 1378.8 L1475.17 1399.14 L1469.32 1399.14 L1469.32 1393.72 Q1467.31 1396.97 1464.32 1398.53 Q1461.33 1400.06 1457 1400.06 Q1451.53 1400.06 1448.28 1397 Q1445.07 1393.92 1445.07 1388.76 Q1445.07 1382.74 1449.08 1379.69 Q1453.12 1376.63 1461.11 1376.63 L1469.32 1376.63 L1469.32 1376.06 Q1469.32 1372.02 1466.64 1369.82 Q1464 1367.59 1459.2 1367.59 Q1456.14 1367.59 1453.25 1368.33 Q1450.35 1369.06 1447.68 1370.52 L1447.68 1365.11 Q1450.89 1363.87 1453.91 1363.26 Q1456.94 1362.63 1459.8 1362.63 Q1467.54 1362.63 1471.36 1366.64 Q1475.17 1370.65 1475.17 1378.8 Z" fill="#000000" fill-rule="nonzero" fill-opacity="1" /><path clip-path="url(#clip470)" d="M1493.03 1353.37 L1493.03 1363.49 L1505.09 1363.49 L1505.09 1368.04 L1493.03 1368.04 L1493.03 1387.39 Q1493.03 1391.75 1494.21 1392.99 Q1495.42 1394.23 1499.08 1394.23 L1505.09 1394.23 L1505.09 1399.14 L1499.08 1399.14 Q1492.3 1399.14 1489.72 1396.62 Q1487.14 1394.07 1487.14 1387.39 L1487.14 1368.04 L1482.85 1368.04 L1482.85 1363.49 L1487.14 1363.49 L1487.14 1353.37 L1493.03 1353.37 Z" fill="#000000" fill-rule="nonzero" fill-opacity="1" /><path clip-path="url(#clip470)" d="M1512.8 1363.49 L1518.65 1363.49 L1518.65 1399.14 L1512.8 1399.14 L1512.8 1363.49 M1512.8 1349.61 L1518.65 1349.61 L1518.65 1357.03 L1512.8 1357.03 L1512.8 1349.61 Z" fill="#000000" fill-rule="nonzero" fill-opacity="1" /><path clip-path="url(#clip470)" d="M1544.72 1367.59 Q1540.01 1367.59 1537.27 1371.29 Q1534.54 1374.95 1534.54 1381.34 Q1534.54 1387.74 1537.24 1391.43 Q1539.98 1395.09 1544.72 1395.09 Q1549.4 1395.09 1552.14 1391.4 Q1554.87 1387.71 1554.87 1381.34 Q1554.87 1375.01 1552.14 1371.32 Q1549.4 1367.59 1544.72 1367.59 M1544.72 1362.63 Q1552.36 1362.63 1556.72 1367.59 Q1561.08 1372.56 1561.08 1381.34 Q1561.08 1390.1 1556.72 1395.09 Q1552.36 1400.06 1544.72 1400.06 Q1537.05 1400.06 1532.69 1395.09 Q1528.36 1390.1 1528.36 1381.34 Q1528.36 1372.56 1532.69 1367.59 Q1537.05 1362.63 1544.72 1362.63 Z" fill="#000000" fill-rule="nonzero" fill-opacity="1" /><path clip-path="url(#clip470)" d="M1600.42 1377.62 L1600.42 1399.14 L1594.56 1399.14 L1594.56 1377.81 Q1594.56 1372.75 1592.59 1370.24 Q1590.62 1367.72 1586.67 1367.72 Q1581.93 1367.72 1579.19 1370.74 Q1576.45 1373.77 1576.45 1378.99 L1576.45 1399.14 L1570.57 1399.14 L1570.57 1363.49 L1576.45 1363.49 L1576.45 1369.03 Q1578.55 1365.81 1581.39 1364.22 Q1584.25 1362.63 1587.98 1362.63 Q1594.12 1362.63 1597.27 1366.45 Q1600.42 1370.24 1600.42 1377.62 Z" fill="#000000" fill-rule="nonzero" fill-opacity="1" /><polyline clip-path="url(#clip470)" style="stroke:#000000; stroke-linecap:round; stroke-linejoin:round; stroke-width:4; stroke-opacity:1; fill:none" points="545.232,1241.31 545.232,125.984 "/>
<polyline clip-path="url(#clip470)" style="stroke:#000000; stroke-linecap:round; stroke-linejoin:round; stroke-width:4; stroke-opacity:1; fill:none" points="545.232,1163.59 564.13,1163.59 "/>
<polyline clip-path="url(#clip470)" style="stroke:#000000; stroke-linecap:round; stroke-linejoin:round; stroke-width:4; stroke-opacity:1; fill:none" points="545.232,934.87 564.13,934.87 "/>
<polyline clip-path="url(#clip470)" style="stroke:#000000; stroke-linecap:round; stroke-linejoin:round; stroke-width:4; stroke-opacity:1; fill:none" points="545.232,706.149 564.13,706.149 "/>
<polyline clip-path="url(#clip470)" style="stroke:#000000; stroke-linecap:round; stroke-linejoin:round; stroke-width:4; stroke-opacity:1; fill:none" points="545.232,477.429 564.13,477.429 "/>
<polyline clip-path="url(#clip470)" style="stroke:#000000; stroke-linecap:round; stroke-linejoin:round; stroke-width:4; stroke-opacity:1; fill:none" points="545.232,248.709 564.13,248.709 "/>
<path clip-path="url(#clip470)" d="M318.985 1164.15 L356.079 1164.15 L356.079 1169.07 L318.985 1169.07 L318.985 1164.15 Z" fill="#000000" fill-rule="nonzero" fill-opacity="1" /><path clip-path="url(#clip470)" d="M368.753 1141.99 L391.698 1141.99 L391.698 1146.91 L374.106 1146.91 L374.106 1157.5 Q375.379 1157.06 376.652 1156.86 Q377.925 1156.63 379.198 1156.63 Q386.432 1156.63 390.657 1160.59 Q394.881 1164.56 394.881 1171.33 Q394.881 1178.3 390.541 1182.18 Q386.201 1186.03 378.301 1186.03 Q375.581 1186.03 372.746 1185.57 Q369.939 1185.1 366.93 1184.18 L366.93 1178.3 Q369.534 1179.72 372.312 1180.42 Q375.09 1181.11 378.186 1181.11 Q383.191 1181.11 386.114 1178.48 Q389.036 1175.84 389.036 1171.33 Q389.036 1166.82 386.114 1164.18 Q383.191 1161.55 378.186 1161.55 Q375.842 1161.55 373.498 1162.07 Q371.183 1162.59 368.753 1163.69 L368.753 1141.99 Z" fill="#000000" fill-rule="nonzero" fill-opacity="1" /><path clip-path="url(#clip470)" d="M419.621 1161.26 Q415.685 1161.26 413.371 1163.95 Q411.085 1166.64 411.085 1171.33 Q411.085 1175.99 413.371 1178.71 Q415.685 1181.4 419.621 1181.4 Q423.556 1181.4 425.842 1178.71 Q428.156 1175.99 428.156 1171.33 Q428.156 1166.64 425.842 1163.95 Q423.556 1161.26 419.621 1161.26 M431.224 1142.94 L431.224 1148.27 Q429.024 1147.23 426.768 1146.68 Q424.54 1146.13 422.34 1146.13 Q416.553 1146.13 413.486 1150.03 Q410.448 1153.94 410.014 1161.84 Q411.721 1159.32 414.297 1157.99 Q416.872 1156.63 419.968 1156.63 Q426.478 1156.63 430.24 1160.59 Q434.03 1164.53 434.03 1171.33 Q434.03 1177.98 430.095 1182.01 Q426.16 1186.03 419.621 1186.03 Q412.126 1186.03 408.162 1180.3 Q404.198 1174.54 404.198 1163.63 Q404.198 1153.39 409.059 1147.31 Q413.92 1141.21 422.109 1141.21 Q424.308 1141.21 426.536 1141.64 Q428.793 1142.08 431.224 1142.94 Z" fill="#000000" fill-rule="nonzero" fill-opacity="1" /><path clip-path="url(#clip470)" d="M456.6 1145.84 Q452.086 1145.84 449.8 1150.29 Q447.543 1154.72 447.543 1163.63 Q447.543 1172.52 449.8 1176.97 Q452.086 1181.4 456.6 1181.4 Q461.142 1181.4 463.399 1176.97 Q465.685 1172.52 465.685 1163.63 Q465.685 1154.72 463.399 1150.29 Q461.142 1145.84 456.6 1145.84 M456.6 1141.21 Q463.862 1141.21 467.682 1146.97 Q471.53 1152.7 471.53 1163.63 Q471.53 1174.54 467.682 1180.3 Q463.862 1186.03 456.6 1186.03 Q449.337 1186.03 445.489 1180.3 Q441.669 1174.54 441.669 1163.63 Q441.669 1152.7 445.489 1146.97 Q449.337 1141.21 456.6 1141.21 Z" fill="#000000" fill-rule="nonzero" fill-opacity="1" /><path clip-path="url(#clip470)" d="M494.302 1145.84 Q489.788 1145.84 487.502 1150.29 Q485.245 1154.72 485.245 1163.63 Q485.245 1172.52 487.502 1176.97 Q489.788 1181.4 494.302 1181.4 Q498.845 1181.4 501.102 1176.97 Q503.388 1172.52 503.388 1163.63 Q503.388 1154.72 501.102 1150.29 Q498.845 1145.84 494.302 1145.84 M494.302 1141.21 Q501.565 1141.21 505.384 1146.97 Q509.232 1152.7 509.232 1163.63 Q509.232 1174.54 505.384 1180.3 Q501.565 1186.03 494.302 1186.03 Q487.039 1186.03 483.191 1180.3 Q479.371 1174.54 479.371 1163.63 Q479.371 1152.7 483.191 1146.97 Q487.039 1141.21 494.302 1141.21 Z" fill="#000000" fill-rule="nonzero" fill-opacity="1" /><path clip-path="url(#clip470)" d="M318.985 935.434 L356.079 935.434 L356.079 940.353 L318.985 940.353 L318.985 935.434 Z" fill="#000000" fill-rule="nonzero" fill-opacity="1" /><path clip-path="url(#clip470)" d="M368.753 913.27 L391.698 913.27 L391.698 918.188 L374.106 918.188 L374.106 928.779 Q375.379 928.345 376.652 928.142 Q377.925 927.911 379.198 927.911 Q386.432 927.911 390.657 931.875 Q394.881 935.839 394.881 942.61 Q394.881 949.583 390.541 953.46 Q386.201 957.309 378.301 957.309 Q375.581 957.309 372.746 956.846 Q369.939 956.383 366.93 955.457 L366.93 949.583 Q369.534 951.001 372.312 951.695 Q375.09 952.39 378.186 952.39 Q383.191 952.39 386.114 949.757 Q389.036 947.123 389.036 942.61 Q389.036 938.096 386.114 935.463 Q383.191 932.83 378.186 932.83 Q375.842 932.83 373.498 933.35 Q371.183 933.871 368.753 934.971 L368.753 913.27 Z" fill="#000000" fill-rule="nonzero" fill-opacity="1" /><path clip-path="url(#clip470)" d="M422.456 918.362 L407.699 941.423 L422.456 941.423 L422.456 918.362 M420.923 913.27 L428.272 913.27 L428.272 941.423 L434.435 941.423 L434.435 946.284 L428.272 946.284 L428.272 956.47 L422.456 956.47 L422.456 946.284 L402.954 946.284 L402.954 940.642 L420.923 913.27 Z" fill="#000000" fill-rule="nonzero" fill-opacity="1" /><path clip-path="url(#clip470)" d="M456.6 917.118 Q452.086 917.118 449.8 921.574 Q447.543 926.001 447.543 934.913 Q447.543 943.796 449.8 948.252 Q452.086 952.679 456.6 952.679 Q461.142 952.679 463.399 948.252 Q465.685 943.796 465.685 934.913 Q465.685 926.001 463.399 921.574 Q461.142 917.118 456.6 917.118 M456.6 912.488 Q463.862 912.488 467.682 918.246 Q471.53 923.975 471.53 934.913 Q471.53 945.821 467.682 951.579 Q463.862 957.309 456.6 957.309 Q449.337 957.309 445.489 951.579 Q441.669 945.821 441.669 934.913 Q441.669 923.975 445.489 918.246 Q449.337 912.488 456.6 912.488 Z" fill="#000000" fill-rule="nonzero" fill-opacity="1" /><path clip-path="url(#clip470)" d="M494.302 917.118 Q489.788 917.118 487.502 921.574 Q485.245 926.001 485.245 934.913 Q485.245 943.796 487.502 948.252 Q489.788 952.679 494.302 952.679 Q498.845 952.679 501.102 948.252 Q503.388 943.796 503.388 934.913 Q503.388 926.001 501.102 921.574 Q498.845 917.118 494.302 917.118 M494.302 912.488 Q501.565 912.488 505.384 918.246 Q509.232 923.975 509.232 934.913 Q509.232 945.821 505.384 951.579 Q501.565 957.309 494.302 957.309 Q487.039 957.309 483.191 951.579 Q479.371 945.821 479.371 934.913 Q479.371 923.975 483.191 918.246 Q487.039 912.488 494.302 912.488 Z" fill="#000000" fill-rule="nonzero" fill-opacity="1" /><path clip-path="url(#clip470)" d="M318.985 706.714 L356.079 706.714 L356.079 711.633 L318.985 711.633 L318.985 706.714 Z" fill="#000000" fill-rule="nonzero" fill-opacity="1" /><path clip-path="url(#clip470)" d="M368.753 684.549 L391.698 684.549 L391.698 689.468 L374.106 689.468 L374.106 700.059 Q375.379 699.625 376.652 699.422 Q377.925 699.191 379.198 699.191 Q386.432 699.191 390.657 703.155 Q394.881 707.119 394.881 713.89 Q394.881 720.863 390.541 724.74 Q386.201 728.589 378.301 728.589 Q375.581 728.589 372.746 728.126 Q369.939 727.663 366.93 726.737 L366.93 720.863 Q369.534 722.281 372.312 722.975 Q375.09 723.67 378.186 723.67 Q383.191 723.67 386.114 721.037 Q389.036 718.403 389.036 713.89 Q389.036 709.376 386.114 706.743 Q383.191 704.11 378.186 704.11 Q375.842 704.11 373.498 704.63 Q371.183 705.151 368.753 706.251 L368.753 684.549 Z" fill="#000000" fill-rule="nonzero" fill-opacity="1" /><path clip-path="url(#clip470)" d="M411.432 722.83 L431.831 722.83 L431.831 727.749 L404.401 727.749 L404.401 722.83 Q407.728 719.387 413.457 713.6 Q419.216 707.784 420.691 706.106 Q423.498 702.952 424.597 700.782 Q425.726 698.583 425.726 696.471 Q425.726 693.027 423.295 690.857 Q420.894 688.687 417.016 688.687 Q414.268 688.687 411.201 689.642 Q408.162 690.597 404.69 692.536 L404.69 686.633 Q408.22 685.215 411.287 684.492 Q414.354 683.768 416.901 683.768 Q423.614 683.768 427.607 687.125 Q431.6 690.481 431.6 696.095 Q431.6 698.757 430.587 701.158 Q429.603 703.531 426.97 706.772 Q426.247 707.611 422.369 711.633 Q418.492 715.626 411.432 722.83 Z" fill="#000000" fill-rule="nonzero" fill-opacity="1" /><path clip-path="url(#clip470)" d="M456.6 688.398 Q452.086 688.398 449.8 692.854 Q447.543 697.281 447.543 706.193 Q447.543 715.076 449.8 719.532 Q452.086 723.959 456.6 723.959 Q461.142 723.959 463.399 719.532 Q465.685 715.076 465.685 706.193 Q465.685 697.281 463.399 692.854 Q461.142 688.398 456.6 688.398 M456.6 683.768 Q463.862 683.768 467.682 689.526 Q471.53 695.255 471.53 706.193 Q471.53 717.101 467.682 722.859 Q463.862 728.589 456.6 728.589 Q449.337 728.589 445.489 722.859 Q441.669 717.101 441.669 706.193 Q441.669 695.255 445.489 689.526 Q449.337 683.768 456.6 683.768 Z" fill="#000000" fill-rule="nonzero" fill-opacity="1" /><path clip-path="url(#clip470)" d="M494.302 688.398 Q489.788 688.398 487.502 692.854 Q485.245 697.281 485.245 706.193 Q485.245 715.076 487.502 719.532 Q489.788 723.959 494.302 723.959 Q498.845 723.959 501.102 719.532 Q503.388 715.076 503.388 706.193 Q503.388 697.281 501.102 692.854 Q498.845 688.398 494.302 688.398 M494.302 683.768 Q501.565 683.768 505.384 689.526 Q509.232 695.255 509.232 706.193 Q509.232 717.101 505.384 722.859 Q501.565 728.589 494.302 728.589 Q487.039 728.589 483.191 722.859 Q479.371 717.101 479.371 706.193 Q479.371 695.255 483.191 689.526 Q487.039 683.768 494.302 683.768 Z" fill="#000000" fill-rule="nonzero" fill-opacity="1" /><path clip-path="url(#clip470)" d="M318.985 477.994 L356.079 477.994 L356.079 482.913 L318.985 482.913 L318.985 477.994 Z" fill="#000000" fill-rule="nonzero" fill-opacity="1" /><path clip-path="url(#clip470)" d="M368.753 455.829 L391.698 455.829 L391.698 460.748 L374.106 460.748 L374.106 471.339 Q375.379 470.905 376.652 470.702 Q377.925 470.47 379.198 470.47 Q386.432 470.47 390.657 474.435 Q394.881 478.399 394.881 485.169 Q394.881 492.143 390.541 496.02 Q386.201 499.868 378.301 499.868 Q375.581 499.868 372.746 499.406 Q369.939 498.943 366.93 498.017 L366.93 492.143 Q369.534 493.561 372.312 494.255 Q375.09 494.95 378.186 494.95 Q383.191 494.95 386.114 492.316 Q389.036 489.683 389.036 485.169 Q389.036 480.656 386.114 478.023 Q383.191 475.389 378.186 475.389 Q375.842 475.389 373.498 475.91 Q371.183 476.431 368.753 477.531 L368.753 455.829 Z" fill="#000000" fill-rule="nonzero" fill-opacity="1" /><path clip-path="url(#clip470)" d="M418.897 459.678 Q414.383 459.678 412.097 464.134 Q409.841 468.561 409.841 477.473 Q409.841 486.356 412.097 490.812 Q414.383 495.239 418.897 495.239 Q423.44 495.239 425.697 490.812 Q427.983 486.356 427.983 477.473 Q427.983 468.561 425.697 464.134 Q423.44 459.678 418.897 459.678 M418.897 455.048 Q426.16 455.048 429.979 460.806 Q433.828 466.535 433.828 477.473 Q433.828 488.381 429.979 494.139 Q426.16 499.868 418.897 499.868 Q411.635 499.868 407.786 494.139 Q403.967 488.381 403.967 477.473 Q403.967 466.535 407.786 460.806 Q411.635 455.048 418.897 455.048 Z" fill="#000000" fill-rule="nonzero" fill-opacity="1" /><path clip-path="url(#clip470)" d="M456.6 459.678 Q452.086 459.678 449.8 464.134 Q447.543 468.561 447.543 477.473 Q447.543 486.356 449.8 490.812 Q452.086 495.239 456.6 495.239 Q461.142 495.239 463.399 490.812 Q465.685 486.356 465.685 477.473 Q465.685 468.561 463.399 464.134 Q461.142 459.678 456.6 459.678 M456.6 455.048 Q463.862 455.048 467.682 460.806 Q471.53 466.535 471.53 477.473 Q471.53 488.381 467.682 494.139 Q463.862 499.868 456.6 499.868 Q449.337 499.868 445.489 494.139 Q441.669 488.381 441.669 477.473 Q441.669 466.535 445.489 460.806 Q449.337 455.048 456.6 455.048 Z" fill="#000000" fill-rule="nonzero" fill-opacity="1" /><path clip-path="url(#clip470)" d="M494.302 459.678 Q489.788 459.678 487.502 464.134 Q485.245 468.561 485.245 477.473 Q485.245 486.356 487.502 490.812 Q489.788 495.239 494.302 495.239 Q498.845 495.239 501.102 490.812 Q503.388 486.356 503.388 477.473 Q503.388 468.561 501.102 464.134 Q498.845 459.678 494.302 459.678 M494.302 455.048 Q501.565 455.048 505.384 460.806 Q509.232 466.535 509.232 477.473 Q509.232 488.381 505.384 494.139 Q501.565 499.868 494.302 499.868 Q487.039 499.868 483.191 494.139 Q479.371 488.381 479.371 477.473 Q479.371 466.535 483.191 460.806 Q487.039 455.048 494.302 455.048 Z" fill="#000000" fill-rule="nonzero" fill-opacity="1" /><path clip-path="url(#clip470)" d="M318.985 249.274 L356.079 249.274 L356.079 254.192 L318.985 254.192 L318.985 249.274 Z" fill="#000000" fill-rule="nonzero" fill-opacity="1" /><path clip-path="url(#clip470)" d="M384.754 232.202 L369.997 255.263 L384.754 255.263 L384.754 232.202 M383.22 227.109 L390.57 227.109 L390.57 255.263 L396.733 255.263 L396.733 260.124 L390.57 260.124 L390.57 270.309 L384.754 270.309 L384.754 260.124 L365.252 260.124 L365.252 254.482 L383.22 227.109 Z" fill="#000000" fill-rule="nonzero" fill-opacity="1" /><path clip-path="url(#clip470)" d="M418.897 249.794 Q414.731 249.794 412.329 252.022 Q409.956 254.25 409.956 258.157 Q409.956 262.063 412.329 264.291 Q414.731 266.519 418.897 266.519 Q423.064 266.519 425.465 264.291 Q427.867 262.034 427.867 258.157 Q427.867 254.25 425.465 252.022 Q423.093 249.794 418.897 249.794 M413.052 247.306 Q409.291 246.38 407.179 243.805 Q405.095 241.23 405.095 237.526 Q405.095 232.347 408.77 229.337 Q412.474 226.328 418.897 226.328 Q425.35 226.328 429.024 229.337 Q432.699 232.347 432.699 237.526 Q432.699 241.23 430.587 243.805 Q428.504 246.38 424.771 247.306 Q428.996 248.29 431.339 251.154 Q433.712 254.019 433.712 258.157 Q433.712 264.435 429.864 267.792 Q426.044 271.148 418.897 271.148 Q411.75 271.148 407.902 267.792 Q404.082 264.435 404.082 258.157 Q404.082 254.019 406.455 251.154 Q408.828 248.29 413.052 247.306 M410.911 238.076 Q410.911 241.432 412.994 243.313 Q415.107 245.194 418.897 245.194 Q422.659 245.194 424.771 243.313 Q426.912 241.432 426.912 238.076 Q426.912 234.719 424.771 232.838 Q422.659 230.958 418.897 230.958 Q415.107 230.958 412.994 232.838 Q410.911 234.719 410.911 238.076 Z" fill="#000000" fill-rule="nonzero" fill-opacity="1" /><path clip-path="url(#clip470)" d="M456.6 230.958 Q452.086 230.958 449.8 235.414 Q447.543 239.841 447.543 248.753 Q447.543 257.636 449.8 262.092 Q452.086 266.519 456.6 266.519 Q461.142 266.519 463.399 262.092 Q465.685 257.636 465.685 248.753 Q465.685 239.841 463.399 235.414 Q461.142 230.958 456.6 230.958 M456.6 226.328 Q463.862 226.328 467.682 232.086 Q471.53 237.815 471.53 248.753 Q471.53 259.661 467.682 265.419 Q463.862 271.148 456.6 271.148 Q449.337 271.148 445.489 265.419 Q441.669 259.661 441.669 248.753 Q441.669 237.815 445.489 232.086 Q449.337 226.328 456.6 226.328 Z" fill="#000000" fill-rule="nonzero" fill-opacity="1" /><path clip-path="url(#clip470)" d="M494.302 230.958 Q489.788 230.958 487.502 235.414 Q485.245 239.841 485.245 248.753 Q485.245 257.636 487.502 262.092 Q489.788 266.519 494.302 266.519 Q498.845 266.519 501.102 262.092 Q503.388 257.636 503.388 248.753 Q503.388 239.841 501.102 235.414 Q498.845 230.958 494.302 230.958 M494.302 226.328 Q501.565 226.328 505.384 232.086 Q509.232 237.815 509.232 248.753 Q509.232 259.661 505.384 265.419 Q501.565 271.148 494.302 271.148 Q487.039 271.148 483.191 265.419 Q479.371 259.661 479.371 248.753 Q479.371 237.815 483.191 232.086 Q487.039 226.328 494.302 226.328 Z" fill="#000000" fill-rule="nonzero" fill-opacity="1" /><path clip-path="url(#clip470)" d="M226.492 975.897 L263.445 975.897 L263.445 968.131 Q263.445 958.296 258.989 953.745 Q254.533 949.161 244.921 949.161 Q235.372 949.161 230.948 953.745 Q226.492 958.296 226.492 968.131 L226.492 975.897 M221.209 982.327 L221.209 969.118 Q221.209 955.304 226.97 948.843 Q232.699 942.382 244.921 942.382 Q257.207 942.382 262.968 948.875 Q268.729 955.368 268.729 969.118 L268.729 982.327 L221.209 982.327 Z" fill="#000000" fill-rule="nonzero" fill-opacity="1" /><path clip-path="url(#clip470)" d="M250.809 916.187 Q250.809 923.285 252.432 926.022 Q254.056 928.759 257.971 928.759 Q261.09 928.759 262.936 926.722 Q264.75 924.654 264.75 921.121 Q264.75 916.251 261.313 913.323 Q257.843 910.363 252.114 910.363 L250.809 910.363 L250.809 916.187 M248.39 904.506 L268.729 904.506 L268.729 910.363 L263.318 910.363 Q266.564 912.368 268.124 915.36 Q269.652 918.351 269.652 922.68 Q269.652 928.155 266.596 931.401 Q263.509 934.616 258.352 934.616 Q252.337 934.616 249.281 930.605 Q246.226 926.563 246.226 918.574 L246.226 910.363 L245.653 910.363 Q241.611 910.363 239.414 913.036 Q237.186 915.678 237.186 920.484 Q237.186 923.54 237.919 926.436 Q238.651 929.332 240.115 932.006 L234.704 932.006 Q233.463 928.791 232.858 925.768 Q232.221 922.744 232.221 919.879 Q232.221 912.145 236.232 908.325 Q240.242 904.506 248.39 904.506 Z" fill="#000000" fill-rule="nonzero" fill-opacity="1" /><path clip-path="url(#clip470)" d="M222.959 886.65 L233.081 886.65 L233.081 874.587 L237.632 874.587 L237.632 886.65 L256.984 886.65 Q261.344 886.65 262.586 885.473 Q263.827 884.263 263.827 880.603 L263.827 874.587 L268.729 874.587 L268.729 880.603 Q268.729 887.382 266.214 889.96 Q263.668 892.539 256.984 892.539 L237.632 892.539 L237.632 896.835 L233.081 896.835 L233.081 892.539 L222.959 892.539 L222.959 886.65 Z" fill="#000000" fill-rule="nonzero" fill-opacity="1" /><path clip-path="url(#clip470)" d="M250.809 850.684 Q250.809 857.782 252.432 860.519 Q254.056 863.256 257.971 863.256 Q261.09 863.256 262.936 861.219 Q264.75 859.15 264.75 855.617 Q264.75 850.748 261.313 847.819 Q257.843 844.859 252.114 844.859 L250.809 844.859 L250.809 850.684 M248.39 839.003 L268.729 839.003 L268.729 844.859 L263.318 844.859 Q266.564 846.865 268.124 849.856 Q269.652 852.848 269.652 857.177 Q269.652 862.652 266.596 865.898 Q263.509 869.113 258.352 869.113 Q252.337 869.113 249.281 865.102 Q246.226 861.06 246.226 853.071 L246.226 844.859 L245.653 844.859 Q241.611 844.859 239.414 847.533 Q237.186 850.175 237.186 854.981 Q237.186 858.036 237.919 860.933 Q238.651 863.829 240.115 866.503 L234.704 866.503 Q233.463 863.288 232.858 860.264 Q232.221 857.241 232.221 854.376 Q232.221 846.642 236.232 842.822 Q240.242 839.003 248.39 839.003 Z" fill="#000000" fill-rule="nonzero" fill-opacity="1" /><path clip-path="url(#clip470)" d="M219.203 806.22 L219.203 800.363 L268.729 800.363 L268.729 806.22 L219.203 806.22 Z" fill="#000000" fill-rule="nonzero" fill-opacity="1" /><path clip-path="url(#clip470)" d="M237.186 774.296 Q237.186 779.006 240.879 781.743 Q244.539 784.481 250.936 784.481 Q257.334 784.481 261.026 781.775 Q264.686 779.038 264.686 774.296 Q264.686 769.617 260.994 766.879 Q257.302 764.142 250.936 764.142 Q244.603 764.142 240.91 766.879 Q237.186 769.617 237.186 774.296 M232.221 774.296 Q232.221 766.657 237.186 762.296 Q242.152 757.936 250.936 757.936 Q259.689 757.936 264.686 762.296 Q269.652 766.657 269.652 774.296 Q269.652 781.966 264.686 786.327 Q259.689 790.655 250.936 790.655 Q242.152 790.655 237.186 786.327 Q232.221 781.966 232.221 774.296 Z" fill="#000000" fill-rule="nonzero" fill-opacity="1" /><path clip-path="url(#clip470)" d="M250.491 724.77 Q244.125 724.77 240.624 727.412 Q237.123 730.022 237.123 734.764 Q237.123 739.475 240.624 742.117 Q244.125 744.727 250.491 744.727 Q256.825 744.727 260.326 742.117 Q263.827 739.475 263.827 734.764 Q263.827 730.022 260.326 727.412 Q256.825 724.77 250.491 724.77 M264.304 718.914 Q273.407 718.914 277.832 722.956 Q282.288 726.998 282.288 735.337 Q282.288 738.425 281.81 741.162 Q281.364 743.899 280.41 746.477 L274.712 746.477 Q276.113 743.899 276.781 741.385 Q277.45 738.87 277.45 736.26 Q277.45 730.499 274.426 727.635 Q271.434 724.77 265.355 724.77 L262.458 724.77 Q265.609 726.585 267.169 729.417 Q268.729 732.25 268.729 736.197 Q268.729 742.753 263.731 746.764 Q258.734 750.774 250.491 750.774 Q242.215 750.774 237.218 746.764 Q232.221 742.753 232.221 736.197 Q232.221 732.25 233.781 729.417 Q235.34 726.585 238.491 724.77 L233.081 724.77 L233.081 718.914 L264.304 718.914 Z" fill="#000000" fill-rule="nonzero" fill-opacity="1" /><path clip-path="url(#clip470)" d="M248.263 709.811 L248.263 692.655 L253.483 692.655 L253.483 709.811 L248.263 709.811 Z" fill="#000000" fill-rule="nonzero" fill-opacity="1" /><path clip-path="url(#clip470)" d="M219.203 683.33 L219.203 677.473 L268.729 677.473 L268.729 683.33 L219.203 683.33 Z" fill="#000000" fill-rule="nonzero" fill-opacity="1" /><path clip-path="url(#clip470)" d="M233.081 665.219 L233.081 659.363 L268.729 659.363 L268.729 665.219 L233.081 665.219 M219.203 665.219 L219.203 659.363 L226.619 659.363 L226.619 665.219 L219.203 665.219 Z" fill="#000000" fill-rule="nonzero" fill-opacity="1" /><path clip-path="url(#clip470)" d="M219.203 647.332 L219.203 641.443 L248.454 641.443 L233.081 623.969 L233.081 616.49 L249.759 635.396 L268.729 615.694 L268.729 623.333 L251.318 641.443 L268.729 641.443 L268.729 647.332 L219.203 647.332 Z" fill="#000000" fill-rule="nonzero" fill-opacity="1" /><path clip-path="url(#clip470)" d="M249.44 581.192 L252.305 581.192 L252.305 608.119 Q258.352 607.737 261.535 604.49 Q264.686 601.212 264.686 595.387 Q264.686 592.014 263.859 588.863 Q263.031 585.68 261.376 582.56 L266.914 582.56 Q268.251 585.711 268.951 589.022 Q269.652 592.332 269.652 595.737 Q269.652 604.268 264.686 609.265 Q259.721 614.23 251.255 614.23 Q242.502 614.23 237.377 609.519 Q232.221 604.777 232.221 596.756 Q232.221 589.563 236.868 585.393 Q241.483 581.192 249.44 581.192 M247.722 587.048 Q242.916 587.112 240.051 589.754 Q237.186 592.364 237.186 596.692 Q237.186 601.594 239.956 604.554 Q242.725 607.482 247.754 607.928 L247.722 587.048 Z" fill="#000000" fill-rule="nonzero" fill-opacity="1" /><path clip-path="url(#clip470)" d="M219.203 571.58 L219.203 565.723 L268.729 565.723 L268.729 571.58 L219.203 571.58 Z" fill="#000000" fill-rule="nonzero" fill-opacity="1" /><path clip-path="url(#clip470)" d="M233.081 553.469 L233.081 547.613 L268.729 547.613 L268.729 553.469 L233.081 553.469 M219.203 553.469 L219.203 547.613 L226.619 547.613 L226.619 553.469 L219.203 553.469 Z" fill="#000000" fill-rule="nonzero" fill-opacity="1" /><path clip-path="url(#clip470)" d="M247.212 505.726 L268.729 505.726 L268.729 511.583 L247.403 511.583 Q242.343 511.583 239.828 513.556 Q237.314 515.53 237.314 519.476 Q237.314 524.219 240.338 526.956 Q243.361 529.693 248.581 529.693 L268.729 529.693 L268.729 535.582 L219.203 535.582 L219.203 529.693 L238.619 529.693 Q235.404 527.593 233.813 524.76 Q232.221 521.895 232.221 518.171 Q232.221 512.028 236.041 508.877 Q239.828 505.726 247.212 505.726 Z" fill="#000000" fill-rule="nonzero" fill-opacity="1" /><path clip-path="url(#clip470)" d="M237.186 480.232 Q237.186 484.942 240.879 487.68 Q244.539 490.417 250.936 490.417 Q257.334 490.417 261.026 487.711 Q264.686 484.974 264.686 480.232 Q264.686 475.553 260.994 472.816 Q257.302 470.078 250.936 470.078 Q244.603 470.078 240.91 472.816 Q237.186 475.553 237.186 480.232 M232.221 480.232 Q232.221 472.593 237.186 468.232 Q242.152 463.872 250.936 463.872 Q259.689 463.872 264.686 468.232 Q269.652 472.593 269.652 480.232 Q269.652 487.902 264.686 492.263 Q259.689 496.592 250.936 496.592 Q242.152 496.592 237.186 492.263 Q232.221 487.902 232.221 480.232 Z" fill="#000000" fill-rule="nonzero" fill-opacity="1" /><path clip-path="url(#clip470)" d="M237.186 440.351 Q237.186 445.061 240.879 447.798 Q244.539 450.536 250.936 450.536 Q257.334 450.536 261.026 447.83 Q264.686 445.093 264.686 440.351 Q264.686 435.672 260.994 432.935 Q257.302 430.197 250.936 430.197 Q244.603 430.197 240.91 432.935 Q237.186 435.672 237.186 440.351 M232.221 440.351 Q232.221 432.712 237.186 428.351 Q242.152 423.991 250.936 423.991 Q259.689 423.991 264.686 428.351 Q269.652 432.712 269.652 440.351 Q269.652 448.021 264.686 452.382 Q259.689 456.71 250.936 456.71 Q242.152 456.71 237.186 452.382 Q232.221 448.021 232.221 440.351 Z" fill="#000000" fill-rule="nonzero" fill-opacity="1" /><path clip-path="url(#clip470)" d="M238.491 390.825 L219.203 390.825 L219.203 384.969 L268.729 384.969 L268.729 390.825 L263.381 390.825 Q266.564 392.671 268.124 395.504 Q269.652 398.305 269.652 402.252 Q269.652 408.713 264.495 412.787 Q259.339 416.829 250.936 416.829 Q242.534 416.829 237.377 412.787 Q232.221 408.713 232.221 402.252 Q232.221 398.305 233.781 395.504 Q235.309 392.671 238.491 390.825 M250.936 410.782 Q257.398 410.782 261.09 408.14 Q264.75 405.466 264.75 400.82 Q264.75 396.173 261.09 393.499 Q257.398 390.825 250.936 390.825 Q244.475 390.825 240.815 393.499 Q237.123 396.173 237.123 400.82 Q237.123 405.466 240.815 408.14 Q244.475 410.782 250.936 410.782 Z" fill="#000000" fill-rule="nonzero" fill-opacity="1" /><polyline clip-path="url(#clip472)" style="stroke:#000080; stroke-linecap:round; stroke-linejoin:round; stroke-width:8; stroke-opacity:1; fill:none" points="594.16,1209.75 621.803,596.16 649.446,480.687 677.089,427.46 704.732,398.039 732.374,379.816 760.017,367.178 787.66,357.279 815.303,348.789 842.946,341.046 870.589,333.112 898.231,324.034 925.874,313.915 953.517,302.951 981.16,292.384 1008.8,281.798 1036.45,270.711 1064.09,259.869 1091.73,249.609 1119.37,240.472 1147.02,232.604 1174.66,225.659 1202.3,220.027 1229.95,215.412 1257.59,211.662 1285.23,208.534 1312.87,205.79 1340.52,203.288 1368.16,200.959 1395.8,198.737 1423.45,196.629 1451.09,194.58 1478.73,192.551 1506.37,190.542 1534.02,188.528 1561.66,186.491 1589.3,184.417 1616.95,182.296 1644.59,180.111 1672.23,177.856 1699.87,175.537 1727.52,173.206 1755.16,170.955 1782.8,168.884 1810.45,167.056 1838.09,165.507 1865.73,164.217 1893.37,163.149 1921.02,162.256 1948.66,161.498 1976.3,160.846 2003.95,160.277 2031.59,159.775 2059.23,159.332 2086.87,158.948 2114.52,158.607 2142.16,158.302 2169.8,158.027 2197.45,157.777 2225.09,157.55 "/>
<circle clip-path="url(#clip472)" cx="594.16" cy="1209.75" r="10.8" fill="#000080" fill-rule="evenodd" fill-opacity="1" stroke="#000000" stroke-opacity="1" stroke-width="3.2"/>
<circle clip-path="url(#clip472)" cx="621.803" cy="596.16" r="10.8" fill="#000080" fill-rule="evenodd" fill-opacity="1" stroke="#000000" stroke-opacity="1" stroke-width="3.2"/>
<circle clip-path="url(#clip472)" cx="649.446" cy="480.687" r="10.8" fill="#000080" fill-rule="evenodd" fill-opacity="1" stroke="#000000" stroke-opacity="1" stroke-width="3.2"/>
<circle clip-path="url(#clip472)" cx="677.089" cy="427.46" r="10.8" fill="#000080" fill-rule="evenodd" fill-opacity="1" stroke="#000000" stroke-opacity="1" stroke-width="3.2"/>
<circle clip-path="url(#clip472)" cx="704.732" cy="398.039" r="10.8" fill="#000080" fill-rule="evenodd" fill-opacity="1" stroke="#000000" stroke-opacity="1" stroke-width="3.2"/>
<circle clip-path="url(#clip472)" cx="732.374" cy="379.816" r="10.8" fill="#000080" fill-rule="evenodd" fill-opacity="1" stroke="#000000" stroke-opacity="1" stroke-width="3.2"/>
<circle clip-path="url(#clip472)" cx="760.017" cy="367.178" r="10.8" fill="#000080" fill-rule="evenodd" fill-opacity="1" stroke="#000000" stroke-opacity="1" stroke-width="3.2"/>
<circle clip-path="url(#clip472)" cx="787.66" cy="357.279" r="10.8" fill="#000080" fill-rule="evenodd" fill-opacity="1" stroke="#000000" stroke-opacity="1" stroke-width="3.2"/>
<circle clip-path="url(#clip472)" cx="815.303" cy="348.789" r="10.8" fill="#000080" fill-rule="evenodd" fill-opacity="1" stroke="#000000" stroke-opacity="1" stroke-width="3.2"/>
<circle clip-path="url(#clip472)" cx="842.946" cy="341.046" r="10.8" fill="#000080" fill-rule="evenodd" fill-opacity="1" stroke="#000000" stroke-opacity="1" stroke-width="3.2"/>
<circle clip-path="url(#clip472)" cx="870.589" cy="333.112" r="10.8" fill="#000080" fill-rule="evenodd" fill-opacity="1" stroke="#000000" stroke-opacity="1" stroke-width="3.2"/>
<circle clip-path="url(#clip472)" cx="898.231" cy="324.034" r="10.8" fill="#000080" fill-rule="evenodd" fill-opacity="1" stroke="#000000" stroke-opacity="1" stroke-width="3.2"/>
<circle clip-path="url(#clip472)" cx="925.874" cy="313.915" r="10.8" fill="#000080" fill-rule="evenodd" fill-opacity="1" stroke="#000000" stroke-opacity="1" stroke-width="3.2"/>
<circle clip-path="url(#clip472)" cx="953.517" cy="302.951" r="10.8" fill="#000080" fill-rule="evenodd" fill-opacity="1" stroke="#000000" stroke-opacity="1" stroke-width="3.2"/>
<circle clip-path="url(#clip472)" cx="981.16" cy="292.384" r="10.8" fill="#000080" fill-rule="evenodd" fill-opacity="1" stroke="#000000" stroke-opacity="1" stroke-width="3.2"/>
<circle clip-path="url(#clip472)" cx="1008.8" cy="281.798" r="10.8" fill="#000080" fill-rule="evenodd" fill-opacity="1" stroke="#000000" stroke-opacity="1" stroke-width="3.2"/>
<circle clip-path="url(#clip472)" cx="1036.45" cy="270.711" r="10.8" fill="#000080" fill-rule="evenodd" fill-opacity="1" stroke="#000000" stroke-opacity="1" stroke-width="3.2"/>
<circle clip-path="url(#clip472)" cx="1064.09" cy="259.869" r="10.8" fill="#000080" fill-rule="evenodd" fill-opacity="1" stroke="#000000" stroke-opacity="1" stroke-width="3.2"/>
<circle clip-path="url(#clip472)" cx="1091.73" cy="249.609" r="10.8" fill="#000080" fill-rule="evenodd" fill-opacity="1" stroke="#000000" stroke-opacity="1" stroke-width="3.2"/>
<circle clip-path="url(#clip472)" cx="1119.37" cy="240.472" r="10.8" fill="#000080" fill-rule="evenodd" fill-opacity="1" stroke="#000000" stroke-opacity="1" stroke-width="3.2"/>
<circle clip-path="url(#clip472)" cx="1147.02" cy="232.604" r="10.8" fill="#000080" fill-rule="evenodd" fill-opacity="1" stroke="#000000" stroke-opacity="1" stroke-width="3.2"/>
<circle clip-path="url(#clip472)" cx="1174.66" cy="225.659" r="10.8" fill="#000080" fill-rule="evenodd" fill-opacity="1" stroke="#000000" stroke-opacity="1" stroke-width="3.2"/>
<circle clip-path="url(#clip472)" cx="1202.3" cy="220.027" r="10.8" fill="#000080" fill-rule="evenodd" fill-opacity="1" stroke="#000000" stroke-opacity="1" stroke-width="3.2"/>
<circle clip-path="url(#clip472)" cx="1229.95" cy="215.412" r="10.8" fill="#000080" fill-rule="evenodd" fill-opacity="1" stroke="#000000" stroke-opacity="1" stroke-width="3.2"/>
<circle clip-path="url(#clip472)" cx="1257.59" cy="211.662" r="10.8" fill="#000080" fill-rule="evenodd" fill-opacity="1" stroke="#000000" stroke-opacity="1" stroke-width="3.2"/>
<circle clip-path="url(#clip472)" cx="1285.23" cy="208.534" r="10.8" fill="#000080" fill-rule="evenodd" fill-opacity="1" stroke="#000000" stroke-opacity="1" stroke-width="3.2"/>
<circle clip-path="url(#clip472)" cx="1312.87" cy="205.79" r="10.8" fill="#000080" fill-rule="evenodd" fill-opacity="1" stroke="#000000" stroke-opacity="1" stroke-width="3.2"/>
<circle clip-path="url(#clip472)" cx="1340.52" cy="203.288" r="10.8" fill="#000080" fill-rule="evenodd" fill-opacity="1" stroke="#000000" stroke-opacity="1" stroke-width="3.2"/>
<circle clip-path="url(#clip472)" cx="1368.16" cy="200.959" r="10.8" fill="#000080" fill-rule="evenodd" fill-opacity="1" stroke="#000000" stroke-opacity="1" stroke-width="3.2"/>
<circle clip-path="url(#clip472)" cx="1395.8" cy="198.737" r="10.8" fill="#000080" fill-rule="evenodd" fill-opacity="1" stroke="#000000" stroke-opacity="1" stroke-width="3.2"/>
<circle clip-path="url(#clip472)" cx="1423.45" cy="196.629" r="10.8" fill="#000080" fill-rule="evenodd" fill-opacity="1" stroke="#000000" stroke-opacity="1" stroke-width="3.2"/>
<circle clip-path="url(#clip472)" cx="1451.09" cy="194.58" r="10.8" fill="#000080" fill-rule="evenodd" fill-opacity="1" stroke="#000000" stroke-opacity="1" stroke-width="3.2"/>
<circle clip-path="url(#clip472)" cx="1478.73" cy="192.551" r="10.8" fill="#000080" fill-rule="evenodd" fill-opacity="1" stroke="#000000" stroke-opacity="1" stroke-width="3.2"/>
<circle clip-path="url(#clip472)" cx="1506.37" cy="190.542" r="10.8" fill="#000080" fill-rule="evenodd" fill-opacity="1" stroke="#000000" stroke-opacity="1" stroke-width="3.2"/>
<circle clip-path="url(#clip472)" cx="1534.02" cy="188.528" r="10.8" fill="#000080" fill-rule="evenodd" fill-opacity="1" stroke="#000000" stroke-opacity="1" stroke-width="3.2"/>
<circle clip-path="url(#clip472)" cx="1561.66" cy="186.491" r="10.8" fill="#000080" fill-rule="evenodd" fill-opacity="1" stroke="#000000" stroke-opacity="1" stroke-width="3.2"/>
<circle clip-path="url(#clip472)" cx="1589.3" cy="184.417" r="10.8" fill="#000080" fill-rule="evenodd" fill-opacity="1" stroke="#000000" stroke-opacity="1" stroke-width="3.2"/>
<circle clip-path="url(#clip472)" cx="1616.95" cy="182.296" r="10.8" fill="#000080" fill-rule="evenodd" fill-opacity="1" stroke="#000000" stroke-opacity="1" stroke-width="3.2"/>
<circle clip-path="url(#clip472)" cx="1644.59" cy="180.111" r="10.8" fill="#000080" fill-rule="evenodd" fill-opacity="1" stroke="#000000" stroke-opacity="1" stroke-width="3.2"/>
<circle clip-path="url(#clip472)" cx="1672.23" cy="177.856" r="10.8" fill="#000080" fill-rule="evenodd" fill-opacity="1" stroke="#000000" stroke-opacity="1" stroke-width="3.2"/>
<circle clip-path="url(#clip472)" cx="1699.87" cy="175.537" r="10.8" fill="#000080" fill-rule="evenodd" fill-opacity="1" stroke="#000000" stroke-opacity="1" stroke-width="3.2"/>
<circle clip-path="url(#clip472)" cx="1727.52" cy="173.206" r="10.8" fill="#000080" fill-rule="evenodd" fill-opacity="1" stroke="#000000" stroke-opacity="1" stroke-width="3.2"/>
<circle clip-path="url(#clip472)" cx="1755.16" cy="170.955" r="10.8" fill="#000080" fill-rule="evenodd" fill-opacity="1" stroke="#000000" stroke-opacity="1" stroke-width="3.2"/>
<circle clip-path="url(#clip472)" cx="1782.8" cy="168.884" r="10.8" fill="#000080" fill-rule="evenodd" fill-opacity="1" stroke="#000000" stroke-opacity="1" stroke-width="3.2"/>
<circle clip-path="url(#clip472)" cx="1810.45" cy="167.056" r="10.8" fill="#000080" fill-rule="evenodd" fill-opacity="1" stroke="#000000" stroke-opacity="1" stroke-width="3.2"/>
<circle clip-path="url(#clip472)" cx="1838.09" cy="165.507" r="10.8" fill="#000080" fill-rule="evenodd" fill-opacity="1" stroke="#000000" stroke-opacity="1" stroke-width="3.2"/>
<circle clip-path="url(#clip472)" cx="1865.73" cy="164.217" r="10.8" fill="#000080" fill-rule="evenodd" fill-opacity="1" stroke="#000000" stroke-opacity="1" stroke-width="3.2"/>
<circle clip-path="url(#clip472)" cx="1893.37" cy="163.149" r="10.8" fill="#000080" fill-rule="evenodd" fill-opacity="1" stroke="#000000" stroke-opacity="1" stroke-width="3.2"/>
<circle clip-path="url(#clip472)" cx="1921.02" cy="162.256" r="10.8" fill="#000080" fill-rule="evenodd" fill-opacity="1" stroke="#000000" stroke-opacity="1" stroke-width="3.2"/>
<circle clip-path="url(#clip472)" cx="1948.66" cy="161.498" r="10.8" fill="#000080" fill-rule="evenodd" fill-opacity="1" stroke="#000000" stroke-opacity="1" stroke-width="3.2"/>
<circle clip-path="url(#clip472)" cx="1976.3" cy="160.846" r="10.8" fill="#000080" fill-rule="evenodd" fill-opacity="1" stroke="#000000" stroke-opacity="1" stroke-width="3.2"/>
<circle clip-path="url(#clip472)" cx="2003.95" cy="160.277" r="10.8" fill="#000080" fill-rule="evenodd" fill-opacity="1" stroke="#000000" stroke-opacity="1" stroke-width="3.2"/>
<circle clip-path="url(#clip472)" cx="2031.59" cy="159.775" r="10.8" fill="#000080" fill-rule="evenodd" fill-opacity="1" stroke="#000000" stroke-opacity="1" stroke-width="3.2"/>
<circle clip-path="url(#clip472)" cx="2059.23" cy="159.332" r="10.8" fill="#000080" fill-rule="evenodd" fill-opacity="1" stroke="#000000" stroke-opacity="1" stroke-width="3.2"/>
<circle clip-path="url(#clip472)" cx="2086.87" cy="158.948" r="10.8" fill="#000080" fill-rule="evenodd" fill-opacity="1" stroke="#000000" stroke-opacity="1" stroke-width="3.2"/>
<circle clip-path="url(#clip472)" cx="2114.52" cy="158.607" r="10.8" fill="#000080" fill-rule="evenodd" fill-opacity="1" stroke="#000000" stroke-opacity="1" stroke-width="3.2"/>
<circle clip-path="url(#clip472)" cx="2142.16" cy="158.302" r="10.8" fill="#000080" fill-rule="evenodd" fill-opacity="1" stroke="#000000" stroke-opacity="1" stroke-width="3.2"/>
<circle clip-path="url(#clip472)" cx="2169.8" cy="158.027" r="10.8" fill="#000080" fill-rule="evenodd" fill-opacity="1" stroke="#000000" stroke-opacity="1" stroke-width="3.2"/>
<circle clip-path="url(#clip472)" cx="2197.45" cy="157.777" r="10.8" fill="#000080" fill-rule="evenodd" fill-opacity="1" stroke="#000000" stroke-opacity="1" stroke-width="3.2"/>
<circle clip-path="url(#clip472)" cx="2225.09" cy="157.55" r="10.8" fill="#000080" fill-rule="evenodd" fill-opacity="1" stroke="#000000" stroke-opacity="1" stroke-width="3.2"/>
</svg>
