<?xml version="1.0" encoding="utf-8"?>
<svg xmlns="http://www.w3.org/2000/svg" xmlns:xlink="http://www.w3.org/1999/xlink" width="600" height="400" viewBox="0 0 2400 1600">
<defs>
  <clipPath id="clip030">
    <rect x="0" y="0" width="2400" height="1600"/>
  </clipPath>
</defs>
<path clip-path="url(#clip030)" d="M0 1600 L2400 1600 L2400 8.88178e-14 L0 8.88178e-14  Z" fill="#ffffff" fill-rule="evenodd" fill-opacity="1"/>
<defs>
  <clipPath id="clip031">
    <rect x="461" y="125" width="1814" height="1116"/>
  </clipPath>
</defs>
<path clip-path="url(#clip030)" d="M423.561 1241.31 L2274.02 1241.31 L2274.02 125.984 L423.561 125.984  Z" fill="#ffffff" fill-rule="evenodd" fill-opacity="1"/>
<defs>
  <clipPath id="clip032">
    <rect x="423" y="125" width="1851" height="1116"/>
  </clipPath>
</defs>
<polyline clip-path="url(#clip032)" style="stroke:#000000; stroke-linecap:round; stroke-linejoin:round; stroke-width:2; stroke-opacity:0.1; fill:none" points="657.091,1241.31 657.091,125.984 "/>
<polyline clip-path="url(#clip032)" style="stroke:#000000; stroke-linecap:round; stroke-linejoin:round; stroke-width:2; stroke-opacity:0.1; fill:none" points="986.47,1241.31 986.47,125.984 "/>
<polyline clip-path="url(#clip032)" style="stroke:#000000; stroke-linecap:round; stroke-linejoin:round; stroke-width:2; stroke-opacity:0.1; fill:none" points="1315.85,1241.31 1315.85,125.984 "/>
<polyline clip-path="url(#clip032)" style="stroke:#000000; stroke-linecap:round; stroke-linejoin:round; stroke-width:2; stroke-opacity:0.1; fill:none" points="1645.23,1241.31 1645.23,125.984 "/>
<polyline clip-path="url(#clip032)" style="stroke:#000000; stroke-linecap:round; stroke-linejoin:round; stroke-width:2; stroke-opacity:0.1; fill:none" points="1974.61,1241.31 1974.61,125.984 "/>
<polyline clip-path="url(#clip032)" style="stroke:#000000; stroke-linecap:round; stroke-linejoin:round; stroke-width:2; stroke-opacity:0.1; fill:none" points="423.561,1241.31 2274.02,1241.31 "/>
<polyline clip-path="url(#clip032)" style="stroke:#000000; stroke-linecap:round; stroke-linejoin:round; stroke-width:2; stroke-opacity:0.1; fill:none" points="423.561,1042.15 2274.02,1042.15 "/>
<polyline clip-path="url(#clip032)" style="stroke:#000000; stroke-linecap:round; stroke-linejoin:round; stroke-width:2; stroke-opacity:0.1; fill:none" points="423.561,842.98 2274.02,842.98 "/>
<polyline clip-path="url(#clip032)" style="stroke:#000000; stroke-linecap:round; stroke-linejoin:round; stroke-width:2; stroke-opacity:0.1; fill:none" points="423.561,643.815 2274.02,643.815 "/>
<polyline clip-path="url(#clip032)" style="stroke:#000000; stroke-linecap:round; stroke-linejoin:round; stroke-width:2; stroke-opacity:0.1; fill:none" points="423.561,444.649 2274.02,444.649 "/>
<polyline clip-path="url(#clip032)" style="stroke:#000000; stroke-linecap:round; stroke-linejoin:round; stroke-width:2; stroke-opacity:0.1; fill:none" points="423.561,245.484 2274.02,245.484 "/>
<polyline clip-path="url(#clip030)" style="stroke:#000000; stroke-linecap:round; stroke-linejoin:round; stroke-width:4; stroke-opacity:1; fill:none" points="423.561,1241.31 2274.02,1241.31 "/>
<polyline clip-path="url(#clip030)" style="stroke:#000000; stroke-linecap:round; stroke-linejoin:round; stroke-width:4; stroke-opacity:1; fill:none" points="657.091,1241.31 657.091,1222.41 "/>
<polyline clip-path="url(#clip030)" style="stroke:#000000; stroke-linecap:round; stroke-linejoin:round; stroke-width:4; stroke-opacity:1; fill:none" points="986.47,1241.31 986.47,1222.41 "/>
<polyline clip-path="url(#clip030)" style="stroke:#000000; stroke-linecap:round; stroke-linejoin:round; stroke-width:4; stroke-opacity:1; fill:none" points="1315.85,1241.31 1315.85,1222.41 "/>
<polyline clip-path="url(#clip030)" style="stroke:#000000; stroke-linecap:round; stroke-linejoin:round; stroke-width:4; stroke-opacity:1; fill:none" points="1645.23,1241.31 1645.23,1222.41 "/>
<polyline clip-path="url(#clip030)" style="stroke:#000000; stroke-linecap:round; stroke-linejoin:round; stroke-width:4; stroke-opacity:1; fill:none" points="1974.61,1241.31 1974.61,1222.41 "/>
<path clip-path="url(#clip030)" d="M606.599 1309.59 L616.148 1309.59 L616.148 1276.64 L605.76 1278.72 L605.76 1273.39 L616.09 1271.31 L621.935 1271.31 L621.935 1309.59 L631.483 1309.59 L631.483 1314.51 L606.599 1314.51 L606.599 1309.59 Z" fill="#000000" fill-rule="nonzero" fill-opacity="1" /><path clip-path="url(#clip030)" d="M655.789 1275.16 Q651.275 1275.16 648.989 1279.62 Q646.732 1284.04 646.732 1292.95 Q646.732 1301.84 648.989 1306.29 Q651.275 1310.72 655.789 1310.72 Q660.332 1310.72 662.588 1306.29 Q664.874 1301.84 664.874 1292.95 Q664.874 1284.04 662.588 1279.62 Q660.332 1275.16 655.789 1275.16 M655.789 1270.53 Q663.051 1270.53 666.871 1276.29 Q670.719 1282.02 670.719 1292.95 Q670.719 1303.86 666.871 1309.62 Q663.051 1315.35 655.789 1315.35 Q648.526 1315.35 644.678 1309.62 Q640.858 1303.86 640.858 1292.95 Q640.858 1282.02 644.678 1276.29 Q648.526 1270.53 655.789 1270.53 Z" fill="#000000" fill-rule="nonzero" fill-opacity="1" /><path clip-path="url(#clip030)" d="M693.491 1275.16 Q688.977 1275.16 686.691 1279.62 Q684.434 1284.04 684.434 1292.95 Q684.434 1301.84 686.691 1306.29 Q688.977 1310.72 693.491 1310.72 Q698.034 1310.72 700.291 1306.29 Q702.577 1301.84 702.577 1292.95 Q702.577 1284.04 700.291 1279.62 Q698.034 1275.16 693.491 1275.16 M693.491 1270.53 Q700.754 1270.53 704.573 1276.29 Q708.422 1282.02 708.422 1292.95 Q708.422 1303.86 704.573 1309.62 Q700.754 1315.35 693.491 1315.35 Q686.228 1315.35 682.38 1309.62 Q678.561 1303.86 678.561 1292.95 Q678.561 1282.02 682.38 1276.29 Q686.228 1270.53 693.491 1270.53 Z" fill="#000000" fill-rule="nonzero" fill-opacity="1" /><path clip-path="url(#clip030)" d="M941.086 1309.59 L961.485 1309.59 L961.485 1314.51 L934.055 1314.51 L934.055 1309.59 Q937.382 1306.15 943.111 1300.36 Q948.869 1294.55 950.345 1292.87 Q953.152 1289.71 954.251 1287.54 Q955.38 1285.34 955.38 1283.23 Q955.38 1279.79 952.949 1277.62 Q950.548 1275.45 946.67 1275.45 Q943.922 1275.45 940.854 1276.4 Q937.816 1277.36 934.344 1279.3 L934.344 1273.39 Q937.874 1271.98 940.941 1271.25 Q944.008 1270.53 946.555 1270.53 Q953.268 1270.53 957.261 1273.89 Q961.254 1277.24 961.254 1282.86 Q961.254 1285.52 960.241 1287.92 Q959.257 1290.29 956.624 1293.53 Q955.901 1294.37 952.023 1298.39 Q948.146 1302.39 941.086 1309.59 Z" fill="#000000" fill-rule="nonzero" fill-opacity="1" /><path clip-path="url(#clip030)" d="M986.253 1275.16 Q981.74 1275.16 979.454 1279.62 Q977.197 1284.04 977.197 1292.95 Q977.197 1301.84 979.454 1306.29 Q981.74 1310.72 986.253 1310.72 Q990.796 1310.72 993.053 1306.29 Q995.339 1301.84 995.339 1292.95 Q995.339 1284.04 993.053 1279.62 Q990.796 1275.16 986.253 1275.16 M986.253 1270.53 Q993.516 1270.53 997.336 1276.29 Q1001.18 1282.02 1001.18 1292.95 Q1001.18 1303.86 997.336 1309.62 Q993.516 1315.35 986.253 1315.35 Q978.991 1315.35 975.142 1309.62 Q971.323 1303.86 971.323 1292.95 Q971.323 1282.02 975.142 1276.29 Q978.991 1270.53 986.253 1270.53 Z" fill="#000000" fill-rule="nonzero" fill-opacity="1" /><path clip-path="url(#clip030)" d="M1023.96 1275.16 Q1019.44 1275.16 1017.16 1279.62 Q1014.9 1284.04 1014.9 1292.95 Q1014.9 1301.84 1017.16 1306.29 Q1019.44 1310.72 1023.96 1310.72 Q1028.5 1310.72 1030.76 1306.29 Q1033.04 1301.84 1033.04 1292.95 Q1033.04 1284.04 1030.76 1279.62 Q1028.5 1275.16 1023.96 1275.16 M1023.96 1270.53 Q1031.22 1270.53 1035.04 1276.29 Q1038.89 1282.02 1038.89 1292.95 Q1038.89 1303.86 1035.04 1309.62 Q1031.22 1315.35 1023.96 1315.35 Q1016.69 1315.35 1012.84 1309.62 Q1009.03 1303.86 1009.03 1292.95 Q1009.03 1282.02 1012.84 1276.29 Q1016.69 1270.53 1023.96 1270.53 Z" fill="#000000" fill-rule="nonzero" fill-opacity="1" /><path clip-path="url(#clip030)" d="M1283.05 1291.22 Q1287.25 1292.12 1289.59 1294.95 Q1291.96 1297.79 1291.96 1301.95 Q1291.96 1308.35 1287.57 1311.85 Q1283.17 1315.35 1275.07 1315.35 Q1272.35 1315.35 1269.45 1314.8 Q1266.59 1314.28 1263.52 1313.21 L1263.52 1307.57 Q1265.95 1308.98 1268.85 1309.71 Q1271.74 1310.43 1274.89 1310.43 Q1280.39 1310.43 1283.25 1308.26 Q1286.15 1306.09 1286.15 1301.95 Q1286.15 1298.13 1283.46 1295.99 Q1280.8 1293.82 1276.02 1293.82 L1270.99 1293.82 L1270.99 1289.02 L1276.25 1289.02 Q1280.56 1289.02 1282.85 1287.31 Q1285.14 1285.58 1285.14 1282.34 Q1285.14 1279.01 1282.76 1277.24 Q1280.42 1275.45 1276.02 1275.45 Q1273.62 1275.45 1270.87 1275.97 Q1268.12 1276.49 1264.82 1277.59 L1264.82 1272.38 Q1268.15 1271.46 1271.04 1270.99 Q1273.97 1270.53 1276.54 1270.53 Q1283.2 1270.53 1287.07 1273.57 Q1290.95 1276.58 1290.95 1281.73 Q1290.95 1285.32 1288.9 1287.8 Q1286.84 1290.26 1283.05 1291.22 Z" fill="#000000" fill-rule="nonzero" fill-opacity="1" /><path clip-path="url(#clip030)" d="M1315.55 1275.16 Q1311.03 1275.16 1308.75 1279.62 Q1306.49 1284.04 1306.49 1292.95 Q1306.49 1301.84 1308.75 1306.29 Q1311.03 1310.72 1315.55 1310.72 Q1320.09 1310.72 1322.35 1306.29 Q1324.63 1301.84 1324.63 1292.95 Q1324.63 1284.04 1322.35 1279.62 Q1320.09 1275.16 1315.55 1275.16 M1315.55 1270.53 Q1322.81 1270.53 1326.63 1276.29 Q1330.48 1282.02 1330.48 1292.95 Q1330.48 1303.86 1326.63 1309.62 Q1322.81 1315.35 1315.55 1315.35 Q1308.28 1315.35 1304.44 1309.62 Q1300.62 1303.86 1300.62 1292.95 Q1300.62 1282.02 1304.44 1276.29 Q1308.28 1270.53 1315.55 1270.53 Z" fill="#000000" fill-rule="nonzero" fill-opacity="1" /><path clip-path="url(#clip030)" d="M1353.25 1275.16 Q1348.73 1275.16 1346.45 1279.62 Q1344.19 1284.04 1344.19 1292.95 Q1344.19 1301.84 1346.45 1306.29 Q1348.73 1310.72 1353.25 1310.72 Q1357.79 1310.72 1360.05 1306.29 Q1362.33 1301.84 1362.33 1292.95 Q1362.33 1284.04 1360.05 1279.62 Q1357.79 1275.16 1353.25 1275.16 M1353.25 1270.53 Q1360.51 1270.53 1364.33 1276.29 Q1368.18 1282.02 1368.18 1292.95 Q1368.18 1303.86 1364.33 1309.62 Q1360.51 1315.35 1353.25 1315.35 Q1345.99 1315.35 1342.14 1309.62 Q1338.32 1303.86 1338.32 1292.95 Q1338.32 1282.02 1342.14 1276.29 Q1345.99 1270.53 1353.25 1270.53 Z" fill="#000000" fill-rule="nonzero" fill-opacity="1" /><path clip-path="url(#clip030)" d="M1611.59 1276.4 L1596.84 1299.47 L1611.59 1299.47 L1611.59 1276.4 M1610.06 1271.31 L1617.41 1271.31 L1617.41 1299.47 L1623.57 1299.47 L1623.57 1304.33 L1617.41 1304.33 L1617.41 1314.51 L1611.59 1314.51 L1611.59 1304.33 L1592.09 1304.33 L1592.09 1298.68 L1610.06 1271.31 Z" fill="#000000" fill-rule="nonzero" fill-opacity="1" /><path clip-path="url(#clip030)" d="M1645.74 1275.16 Q1641.22 1275.16 1638.94 1279.62 Q1636.68 1284.04 1636.68 1292.95 Q1636.68 1301.84 1638.94 1306.29 Q1641.22 1310.72 1645.74 1310.72 Q1650.28 1310.72 1652.54 1306.29 Q1654.82 1301.84 1654.82 1292.95 Q1654.82 1284.04 1652.54 1279.62 Q1650.28 1275.16 1645.74 1275.16 M1645.74 1270.53 Q1653 1270.53 1656.82 1276.29 Q1660.67 1282.02 1660.67 1292.95 Q1660.67 1303.86 1656.82 1309.62 Q1653 1315.35 1645.74 1315.35 Q1638.47 1315.35 1634.63 1309.62 Q1630.81 1303.86 1630.81 1292.95 Q1630.81 1282.02 1634.63 1276.29 Q1638.47 1270.53 1645.74 1270.53 Z" fill="#000000" fill-rule="nonzero" fill-opacity="1" /><path clip-path="url(#clip030)" d="M1683.44 1275.16 Q1678.92 1275.16 1676.64 1279.62 Q1674.38 1284.04 1674.38 1292.95 Q1674.38 1301.84 1676.64 1306.29 Q1678.92 1310.72 1683.44 1310.72 Q1687.98 1310.72 1690.24 1306.29 Q1692.52 1301.84 1692.52 1292.95 Q1692.52 1284.04 1690.24 1279.62 Q1687.98 1275.16 1683.44 1275.16 M1683.44 1270.53 Q1690.7 1270.53 1694.52 1276.29 Q1698.37 1282.02 1698.37 1292.95 Q1698.37 1303.86 1694.52 1309.62 Q1690.7 1315.35 1683.44 1315.35 Q1676.18 1315.35 1672.33 1309.62 Q1668.51 1303.86 1668.51 1292.95 Q1668.51 1282.02 1672.33 1276.29 Q1676.18 1270.53 1683.44 1270.53 Z" fill="#000000" fill-rule="nonzero" fill-opacity="1" /><path clip-path="url(#clip030)" d="M1924.13 1271.31 L1947.08 1271.31 L1947.08 1276.23 L1929.49 1276.23 L1929.49 1286.82 Q1930.76 1286.39 1932.03 1286.18 Q1933.3 1285.95 1934.58 1285.95 Q1941.81 1285.95 1946.04 1289.92 Q1950.26 1293.88 1950.26 1300.65 Q1950.26 1307.62 1945.92 1311.5 Q1941.58 1315.35 1933.68 1315.35 Q1930.96 1315.35 1928.13 1314.89 Q1925.32 1314.42 1922.31 1313.5 L1922.31 1307.62 Q1924.91 1309.04 1927.69 1309.74 Q1930.47 1310.43 1933.57 1310.43 Q1938.57 1310.43 1941.49 1307.8 Q1944.42 1305.17 1944.42 1300.65 Q1944.42 1296.14 1941.49 1293.5 Q1938.57 1290.87 1933.57 1290.87 Q1931.22 1290.87 1928.88 1291.39 Q1926.56 1291.91 1924.13 1293.01 L1924.13 1271.31 Z" fill="#000000" fill-rule="nonzero" fill-opacity="1" /><path clip-path="url(#clip030)" d="M1974.28 1275.16 Q1969.76 1275.16 1967.48 1279.62 Q1965.22 1284.04 1965.22 1292.95 Q1965.22 1301.84 1967.48 1306.29 Q1969.76 1310.72 1974.28 1310.72 Q1978.82 1310.72 1981.08 1306.29 Q1983.36 1301.84 1983.36 1292.95 Q1983.36 1284.04 1981.08 1279.62 Q1978.82 1275.16 1974.28 1275.16 M1974.28 1270.53 Q1981.54 1270.53 1985.36 1276.29 Q1989.21 1282.02 1989.21 1292.95 Q1989.21 1303.86 1985.36 1309.62 Q1981.54 1315.35 1974.28 1315.35 Q1967.01 1315.35 1963.17 1309.62 Q1959.35 1303.86 1959.35 1292.95 Q1959.35 1282.02 1963.17 1276.29 Q1967.01 1270.53 1974.28 1270.53 Z" fill="#000000" fill-rule="nonzero" fill-opacity="1" /><path clip-path="url(#clip030)" d="M2011.98 1275.16 Q2007.47 1275.16 2005.18 1279.62 Q2002.92 1284.04 2002.92 1292.95 Q2002.92 1301.84 2005.18 1306.29 Q2007.47 1310.72 2011.98 1310.72 Q2016.52 1310.72 2018.78 1306.29 Q2021.06 1301.84 2021.06 1292.95 Q2021.06 1284.04 2018.78 1279.62 Q2016.52 1275.16 2011.98 1275.16 M2011.98 1270.53 Q2019.24 1270.53 2023.06 1276.29 Q2026.91 1282.02 2026.91 1292.95 Q2026.91 1303.86 2023.06 1309.62 Q2019.24 1315.35 2011.98 1315.35 Q2004.72 1315.35 2000.87 1309.62 Q1997.05 1303.86 1997.05 1292.95 Q1997.05 1282.02 2000.87 1276.29 Q2004.72 1270.53 2011.98 1270.53 Z" fill="#000000" fill-rule="nonzero" fill-opacity="1" /><path clip-path="url(#clip030)" d="M649.547 1351.62 L689.747 1351.62 L689.747 1357.03 L672.877 1357.03 L672.877 1399.14 L666.416 1399.14 L666.416 1357.03 L649.547 1357.03 L649.547 1351.62 Z" fill="#000000" fill-rule="nonzero" fill-opacity="1" /><path clip-path="url(#clip030)" d="M715.114 1379.85 L715.114 1382.71 L688.187 1382.71 Q688.569 1388.76 691.815 1391.94 Q695.094 1395.09 700.918 1395.09 Q704.292 1395.09 707.443 1394.27 Q710.626 1393.44 713.745 1391.78 L713.745 1397.32 Q710.594 1398.66 707.284 1399.36 Q703.974 1400.06 700.568 1400.06 Q692.038 1400.06 687.041 1395.09 Q682.076 1390.13 682.076 1381.66 Q682.076 1372.91 686.787 1367.78 Q691.529 1362.63 699.55 1362.63 Q706.743 1362.63 710.913 1367.28 Q715.114 1371.89 715.114 1379.85 M709.257 1378.13 Q709.194 1373.32 706.552 1370.46 Q703.942 1367.59 699.613 1367.59 Q694.712 1367.59 691.752 1370.36 Q688.824 1373.13 688.378 1378.16 L709.257 1378.13 Z" fill="#000000" fill-rule="nonzero" fill-opacity="1" /><path clip-path="url(#clip030)" d="M745.383 1368.96 Q744.396 1368.39 743.218 1368.13 Q742.073 1367.85 740.672 1367.85 Q735.707 1367.85 733.033 1371.09 Q730.392 1374.31 730.392 1380.36 L730.392 1399.14 L724.503 1399.14 L724.503 1363.49 L730.392 1363.49 L730.392 1369.03 Q732.238 1365.78 735.198 1364.22 Q738.158 1362.63 742.391 1362.63 Q742.996 1362.63 743.728 1362.72 Q744.46 1362.79 745.351 1362.95 L745.383 1368.96 Z" fill="#000000" fill-rule="nonzero" fill-opacity="1" /><path clip-path="url(#clip030)" d="M778.134 1370.33 Q780.331 1366.38 783.386 1364.51 Q786.442 1362.63 790.579 1362.63 Q796.149 1362.63 799.173 1366.54 Q802.197 1370.43 802.197 1377.62 L802.197 1399.14 L796.308 1399.14 L796.308 1377.81 Q796.308 1372.69 794.494 1370.2 Q792.68 1367.72 788.956 1367.72 Q784.405 1367.72 781.763 1370.74 Q779.121 1373.77 779.121 1378.99 L779.121 1399.14 L773.233 1399.14 L773.233 1377.81 Q773.233 1372.65 771.419 1370.2 Q769.604 1367.72 765.817 1367.72 Q761.329 1367.72 758.687 1370.78 Q756.045 1373.8 756.045 1378.99 L756.045 1399.14 L750.157 1399.14 L750.157 1363.49 L756.045 1363.49 L756.045 1369.03 Q758.051 1365.75 760.852 1364.19 Q763.652 1362.63 767.504 1362.63 Q771.387 1362.63 774.092 1364.6 Q776.829 1366.57 778.134 1370.33 Z" fill="#000000" fill-rule="nonzero" fill-opacity="1" /><path clip-path="url(#clip030)" d="M813.878 1363.49 L819.734 1363.49 L819.734 1399.14 L813.878 1399.14 L813.878 1363.49 M813.878 1349.61 L819.734 1349.61 L819.734 1357.03 L813.878 1357.03 L813.878 1349.61 Z" fill="#000000" fill-rule="nonzero" fill-opacity="1" /><path clip-path="url(#clip030)" d="M861.621 1377.62 L861.621 1399.14 L855.764 1399.14 L855.764 1377.81 Q855.764 1372.75 853.791 1370.24 Q851.817 1367.72 847.871 1367.72 Q843.128 1367.72 840.391 1370.74 Q837.654 1373.77 837.654 1378.99 L837.654 1399.14 L831.765 1399.14 L831.765 1363.49 L837.654 1363.49 L837.654 1369.03 Q839.754 1365.81 842.587 1364.22 Q845.452 1362.63 849.176 1362.63 Q855.319 1362.63 858.47 1366.45 Q861.621 1370.24 861.621 1377.62 Z" fill="#000000" fill-rule="nonzero" fill-opacity="1" /><path clip-path="url(#clip030)" d="M889.502 1381.22 Q882.405 1381.22 879.667 1382.84 Q876.93 1384.46 876.93 1388.38 Q876.93 1391.5 878.967 1393.34 Q881.036 1395.16 884.569 1395.16 Q889.439 1395.16 892.367 1391.72 Q895.327 1388.25 895.327 1382.52 L895.327 1381.22 L889.502 1381.22 M901.184 1378.8 L901.184 1399.14 L895.327 1399.14 L895.327 1393.72 Q893.322 1396.97 890.33 1398.53 Q887.338 1400.06 883.009 1400.06 Q877.535 1400.06 874.288 1397 Q871.074 1393.92 871.074 1388.76 Q871.074 1382.74 875.084 1379.69 Q879.126 1376.63 887.115 1376.63 L895.327 1376.63 L895.327 1376.06 Q895.327 1372.02 892.653 1369.82 Q890.012 1367.59 885.206 1367.59 Q882.15 1367.59 879.254 1368.33 Q876.357 1369.06 873.684 1370.52 L873.684 1365.11 Q876.898 1363.87 879.922 1363.26 Q882.946 1362.63 885.81 1362.63 Q893.545 1362.63 897.364 1366.64 Q901.184 1370.65 901.184 1378.8 Z" fill="#000000" fill-rule="nonzero" fill-opacity="1" /><path clip-path="url(#clip030)" d="M913.247 1349.61 L919.103 1349.61 L919.103 1399.14 L913.247 1399.14 L913.247 1349.61 Z" fill="#000000" fill-rule="nonzero" fill-opacity="1" /><path clip-path="url(#clip030)" d="M957.743 1393.79 L957.743 1412.69 L951.855 1412.69 L951.855 1363.49 L957.743 1363.49 L957.743 1368.9 Q959.589 1365.72 962.39 1364.19 Q965.223 1362.63 969.137 1362.63 Q975.63 1362.63 979.673 1367.78 Q983.747 1372.94 983.747 1381.34 Q983.747 1389.75 979.673 1394.9 Q975.63 1400.06 969.137 1400.06 Q965.223 1400.06 962.39 1398.53 Q959.589 1396.97 957.743 1393.79 M977.667 1381.34 Q977.667 1374.88 974.994 1371.22 Q972.352 1367.53 967.705 1367.53 Q963.058 1367.53 960.385 1371.22 Q957.743 1374.88 957.743 1381.34 Q957.743 1387.8 960.385 1391.5 Q963.058 1395.16 967.705 1395.16 Q972.352 1395.16 974.994 1391.5 Q977.667 1387.8 977.667 1381.34 Z" fill="#000000" fill-rule="nonzero" fill-opacity="1" /><path clip-path="url(#clip030)" d="M1014.11 1368.96 Q1013.12 1368.39 1011.95 1368.13 Q1010.8 1367.85 1009.4 1367.85 Q1004.44 1367.85 1001.76 1371.09 Q999.12 1374.31 999.12 1380.36 L999.12 1399.14 L993.232 1399.14 L993.232 1363.49 L999.12 1363.49 L999.12 1369.03 Q1000.97 1365.78 1003.93 1364.22 Q1006.89 1362.63 1011.12 1362.63 Q1011.72 1362.63 1012.46 1362.72 Q1013.19 1362.79 1014.08 1362.95 L1014.11 1368.96 Z" fill="#000000" fill-rule="nonzero" fill-opacity="1" /><path clip-path="url(#clip030)" d="M1020.25 1363.49 L1026.11 1363.49 L1026.11 1399.14 L1020.25 1399.14 L1020.25 1363.49 M1020.25 1349.61 L1026.11 1349.61 L1026.11 1357.03 L1020.25 1357.03 L1020.25 1349.61 Z" fill="#000000" fill-rule="nonzero" fill-opacity="1" /><path clip-path="url(#clip030)" d="M1064.02 1364.86 L1064.02 1370.33 Q1061.54 1368.96 1059.02 1368.29 Q1056.54 1367.59 1053.99 1367.59 Q1048.29 1367.59 1045.14 1371.22 Q1041.99 1374.82 1041.99 1381.34 Q1041.99 1387.87 1045.14 1391.5 Q1048.29 1395.09 1053.99 1395.09 Q1056.54 1395.09 1059.02 1394.42 Q1061.54 1393.72 1064.02 1392.36 L1064.02 1397.77 Q1061.57 1398.91 1058.93 1399.49 Q1056.32 1400.06 1053.36 1400.06 Q1045.3 1400.06 1040.56 1395 Q1035.82 1389.94 1035.82 1381.34 Q1035.82 1372.62 1040.59 1367.63 Q1045.4 1362.63 1053.74 1362.63 Q1056.44 1362.63 1059.02 1363.2 Q1061.6 1363.74 1064.02 1364.86 Z" fill="#000000" fill-rule="nonzero" fill-opacity="1" /><path clip-path="url(#clip030)" d="M1104.7 1379.85 L1104.7 1382.71 L1077.77 1382.71 Q1078.15 1388.76 1081.4 1391.94 Q1084.68 1395.09 1090.5 1395.09 Q1093.87 1395.09 1097.02 1394.27 Q1100.21 1393.44 1103.33 1391.78 L1103.33 1397.32 Q1100.18 1398.66 1096.87 1399.36 Q1093.56 1400.06 1090.15 1400.06 Q1081.62 1400.06 1076.62 1395.09 Q1071.66 1390.13 1071.66 1381.66 Q1071.66 1372.91 1076.37 1367.78 Q1081.11 1362.63 1089.13 1362.63 Q1096.32 1362.63 1100.49 1367.28 Q1104.7 1371.89 1104.7 1379.85 M1098.84 1378.13 Q1098.78 1373.32 1096.13 1370.46 Q1093.52 1367.59 1089.19 1367.59 Q1084.29 1367.59 1081.33 1370.36 Q1078.4 1373.13 1077.96 1378.16 L1098.84 1378.13 Z" fill="#000000" fill-rule="nonzero" fill-opacity="1" /><path clip-path="url(#clip030)" d="M1151.23 1381.22 Q1144.13 1381.22 1141.39 1382.84 Q1138.66 1384.46 1138.66 1388.38 Q1138.66 1391.5 1140.69 1393.34 Q1142.76 1395.16 1146.3 1395.16 Q1151.16 1395.16 1154.09 1391.72 Q1157.05 1388.25 1157.05 1382.52 L1157.05 1381.22 L1151.23 1381.22 M1162.91 1378.8 L1162.91 1399.14 L1157.05 1399.14 L1157.05 1393.72 Q1155.05 1396.97 1152.06 1398.53 Q1149.06 1400.06 1144.74 1400.06 Q1139.26 1400.06 1136.01 1397 Q1132.8 1393.92 1132.8 1388.76 Q1132.8 1382.74 1136.81 1379.69 Q1140.85 1376.63 1148.84 1376.63 L1157.05 1376.63 L1157.05 1376.06 Q1157.05 1372.02 1154.38 1369.82 Q1151.74 1367.59 1146.93 1367.59 Q1143.88 1367.59 1140.98 1368.33 Q1138.08 1369.06 1135.41 1370.52 L1135.41 1365.11 Q1138.62 1363.87 1141.65 1363.26 Q1144.67 1362.63 1147.54 1362.63 Q1155.27 1362.63 1159.09 1366.64 Q1162.91 1370.65 1162.91 1378.8 Z" fill="#000000" fill-rule="nonzero" fill-opacity="1" /><path clip-path="url(#clip030)" d="M1180.77 1353.37 L1180.77 1363.49 L1192.83 1363.49 L1192.83 1368.04 L1180.77 1368.04 L1180.77 1387.39 Q1180.77 1391.75 1181.94 1392.99 Q1183.15 1394.23 1186.81 1394.23 L1192.83 1394.23 L1192.83 1399.14 L1186.81 1399.14 Q1180.03 1399.14 1177.46 1396.62 Q1174.88 1394.07 1174.88 1387.39 L1174.88 1368.04 L1170.58 1368.04 L1170.58 1363.49 L1174.88 1363.49 L1174.88 1353.37 L1180.77 1353.37 Z" fill="#000000" fill-rule="nonzero" fill-opacity="1" /><path clip-path="url(#clip030)" d="M1251.74 1379.85 L1251.74 1382.71 L1224.82 1382.71 Q1225.2 1388.76 1228.44 1391.94 Q1231.72 1395.09 1237.55 1395.09 Q1240.92 1395.09 1244.07 1394.27 Q1247.26 1393.44 1250.37 1391.78 L1250.37 1397.32 Q1247.22 1398.66 1243.91 1399.36 Q1240.6 1400.06 1237.2 1400.06 Q1228.67 1400.06 1223.67 1395.09 Q1218.7 1390.13 1218.7 1381.66 Q1218.7 1372.91 1223.42 1367.78 Q1228.16 1362.63 1236.18 1362.63 Q1243.37 1362.63 1247.54 1367.28 Q1251.74 1371.89 1251.74 1379.85 M1245.89 1378.13 Q1245.82 1373.32 1243.18 1370.46 Q1240.57 1367.59 1236.24 1367.59 Q1231.34 1367.59 1228.38 1370.36 Q1225.45 1373.13 1225.01 1378.16 L1245.89 1378.13 Z" fill="#000000" fill-rule="nonzero" fill-opacity="1" /><path clip-path="url(#clip030)" d="M1290.99 1377.62 L1290.99 1399.14 L1285.13 1399.14 L1285.13 1377.81 Q1285.13 1372.75 1283.16 1370.24 Q1281.18 1367.72 1277.24 1367.72 Q1272.5 1367.72 1269.76 1370.74 Q1267.02 1373.77 1267.02 1378.99 L1267.02 1399.14 L1261.13 1399.14 L1261.13 1363.49 L1267.02 1363.49 L1267.02 1369.03 Q1269.12 1365.81 1271.95 1364.22 Q1274.82 1362.63 1278.54 1362.63 Q1284.69 1362.63 1287.84 1366.45 Q1290.99 1370.24 1290.99 1377.62 Z" fill="#000000" fill-rule="nonzero" fill-opacity="1" /><path clip-path="url(#clip030)" d="M1326.13 1368.9 L1326.13 1349.61 L1331.98 1349.61 L1331.98 1399.14 L1326.13 1399.14 L1326.13 1393.79 Q1324.28 1396.97 1321.45 1398.53 Q1318.65 1400.06 1314.7 1400.06 Q1308.24 1400.06 1304.16 1394.9 Q1300.12 1389.75 1300.12 1381.34 Q1300.12 1372.94 1304.16 1367.78 Q1308.24 1362.63 1314.7 1362.63 Q1318.65 1362.63 1321.45 1364.19 Q1324.28 1365.72 1326.13 1368.9 M1306.17 1381.34 Q1306.17 1387.8 1308.81 1391.5 Q1311.49 1395.16 1316.13 1395.16 Q1320.78 1395.16 1323.45 1391.5 Q1326.13 1387.8 1326.13 1381.34 Q1326.13 1374.88 1323.45 1371.22 Q1320.78 1367.53 1316.13 1367.53 Q1311.49 1367.53 1308.81 1371.22 Q1306.17 1374.88 1306.17 1381.34 Z" fill="#000000" fill-rule="nonzero" fill-opacity="1" /><path clip-path="url(#clip030)" d="M1378.58 1367.59 Q1373.87 1367.59 1371.13 1371.29 Q1368.39 1374.95 1368.39 1381.34 Q1368.39 1387.74 1371.1 1391.43 Q1373.84 1395.09 1378.58 1395.09 Q1383.26 1395.09 1386 1391.4 Q1388.73 1387.71 1388.73 1381.34 Q1388.73 1375.01 1386 1371.32 Q1383.26 1367.59 1378.58 1367.59 M1378.58 1362.63 Q1386.22 1362.63 1390.58 1367.59 Q1394.94 1372.56 1394.94 1381.34 Q1394.94 1390.1 1390.58 1395.09 Q1386.22 1400.06 1378.58 1400.06 Q1370.91 1400.06 1366.55 1395.09 Q1362.22 1390.1 1362.22 1381.34 Q1362.22 1372.56 1366.55 1367.59 Q1370.91 1362.63 1378.58 1362.63 Z" fill="#000000" fill-rule="nonzero" fill-opacity="1" /><path clip-path="url(#clip030)" d="M1422.69 1349.61 L1422.69 1354.48 L1417.09 1354.48 Q1413.94 1354.48 1412.7 1355.75 Q1411.49 1357.03 1411.49 1360.34 L1411.49 1363.49 L1421.13 1363.49 L1421.13 1368.04 L1411.49 1368.04 L1411.49 1399.14 L1405.6 1399.14 L1405.6 1368.04 L1400 1368.04 L1400 1363.49 L1405.6 1363.49 L1405.6 1361 Q1405.6 1355.05 1408.37 1352.35 Q1411.14 1349.61 1417.16 1349.61 L1422.69 1349.61 Z" fill="#000000" fill-rule="nonzero" fill-opacity="1" /><path clip-path="url(#clip030)" d="M1467.86 1355.98 Q1460.86 1355.98 1456.72 1361.2 Q1452.61 1366.42 1452.61 1375.42 Q1452.61 1384.4 1456.72 1389.62 Q1460.86 1394.84 1467.86 1394.84 Q1474.86 1394.84 1478.94 1389.62 Q1483.04 1384.4 1483.04 1375.42 Q1483.04 1366.42 1478.94 1361.2 Q1474.86 1355.98 1467.86 1355.98 M1467.86 1350.76 Q1477.85 1350.76 1483.84 1357.47 Q1489.82 1364.16 1489.82 1375.42 Q1489.82 1386.66 1483.84 1393.37 Q1477.85 1400.06 1467.86 1400.06 Q1457.83 1400.06 1451.82 1393.37 Q1445.83 1386.69 1445.83 1375.42 Q1445.83 1364.16 1451.82 1357.47 Q1457.83 1350.76 1467.86 1350.76 Z" fill="#000000" fill-rule="nonzero" fill-opacity="1" /><path clip-path="url(#clip030)" d="M1513.44 1367.59 Q1508.73 1367.59 1505.99 1371.29 Q1503.25 1374.95 1503.25 1381.34 Q1503.25 1387.74 1505.96 1391.43 Q1508.69 1395.09 1513.44 1395.09 Q1518.12 1395.09 1520.85 1391.4 Q1523.59 1387.71 1523.59 1381.34 Q1523.59 1375.01 1520.85 1371.32 Q1518.12 1367.59 1513.44 1367.59 M1513.44 1362.63 Q1521.08 1362.63 1525.44 1367.59 Q1529.8 1372.56 1529.8 1381.34 Q1529.8 1390.1 1525.44 1395.09 Q1521.08 1400.06 1513.44 1400.06 Q1505.77 1400.06 1501.41 1395.09 Q1497.08 1390.1 1497.08 1381.34 Q1497.08 1372.56 1501.41 1367.59 Q1505.77 1362.63 1513.44 1362.63 Z" fill="#000000" fill-rule="nonzero" fill-opacity="1" /><path clip-path="url(#clip030)" d="M1568.25 1353.18 L1568.25 1359.45 Q1564.59 1357.69 1561.34 1356.84 Q1558.09 1355.98 1555.07 1355.98 Q1549.82 1355.98 1546.95 1358.01 Q1544.12 1360.05 1544.12 1363.81 Q1544.12 1366.96 1546 1368.58 Q1547.91 1370.17 1553.19 1371.16 L1557.07 1371.95 Q1564.27 1373.32 1567.67 1376.79 Q1571.11 1380.23 1571.11 1386.02 Q1571.11 1392.93 1566.46 1396.49 Q1561.85 1400.06 1552.9 1400.06 Q1549.53 1400.06 1545.71 1399.29 Q1541.92 1398.53 1537.85 1397.03 L1537.85 1390.41 Q1541.76 1392.61 1545.52 1393.72 Q1549.28 1394.84 1552.9 1394.84 Q1558.41 1394.84 1561.4 1392.67 Q1564.39 1390.51 1564.39 1386.5 Q1564.39 1383 1562.23 1381.03 Q1560.1 1379.05 1555.2 1378.07 L1551.28 1377.3 Q1544.09 1375.87 1540.87 1372.81 Q1537.66 1369.76 1537.66 1364.32 Q1537.66 1358.01 1542.08 1354.38 Q1546.54 1350.76 1554.34 1350.76 Q1557.68 1350.76 1561.15 1351.36 Q1564.62 1351.97 1568.25 1353.18 Z" fill="#000000" fill-rule="nonzero" fill-opacity="1" /><path clip-path="url(#clip030)" d="M1598.2 1363.49 L1604.05 1363.49 L1611.37 1391.31 L1618.66 1363.49 L1625.57 1363.49 L1632.89 1391.31 L1640.18 1363.49 L1646.03 1363.49 L1636.71 1399.14 L1629.8 1399.14 L1622.13 1369.92 L1614.43 1399.14 L1607.52 1399.14 L1598.2 1363.49 Z" fill="#000000" fill-rule="nonzero" fill-opacity="1" /><path clip-path="url(#clip030)" d="M1654.92 1363.49 L1660.77 1363.49 L1660.77 1399.14 L1654.92 1399.14 L1654.92 1363.49 M1654.92 1349.61 L1660.77 1349.61 L1660.77 1357.03 L1654.92 1357.03 L1654.92 1349.61 Z" fill="#000000" fill-rule="nonzero" fill-opacity="1" /><path clip-path="url(#clip030)" d="M1702.66 1377.62 L1702.66 1399.14 L1696.8 1399.14 L1696.8 1377.81 Q1696.8 1372.75 1694.83 1370.24 Q1692.85 1367.72 1688.91 1367.72 Q1684.17 1367.72 1681.43 1370.74 Q1678.69 1373.77 1678.69 1378.99 L1678.69 1399.14 L1672.8 1399.14 L1672.8 1363.49 L1678.69 1363.49 L1678.69 1369.03 Q1680.79 1365.81 1683.62 1364.22 Q1686.49 1362.63 1690.21 1362.63 Q1696.36 1362.63 1699.51 1366.45 Q1702.66 1370.24 1702.66 1377.62 Z" fill="#000000" fill-rule="nonzero" fill-opacity="1" /><path clip-path="url(#clip030)" d="M1737.8 1368.9 L1737.8 1349.61 L1743.65 1349.61 L1743.65 1399.14 L1737.8 1399.14 L1737.8 1393.79 Q1735.95 1396.97 1733.12 1398.53 Q1730.32 1400.06 1726.37 1400.06 Q1719.91 1400.06 1715.83 1394.9 Q1711.79 1389.75 1711.79 1381.34 Q1711.79 1372.94 1715.83 1367.78 Q1719.91 1362.63 1726.37 1362.63 Q1730.32 1362.63 1733.12 1364.19 Q1735.95 1365.72 1737.8 1368.9 M1717.84 1381.34 Q1717.84 1387.8 1720.48 1391.5 Q1723.16 1395.16 1727.8 1395.16 Q1732.45 1395.16 1735.12 1391.5 Q1737.8 1387.8 1737.8 1381.34 Q1737.8 1374.88 1735.12 1371.22 Q1732.45 1367.53 1727.8 1367.53 Q1723.16 1367.53 1720.48 1371.22 Q1717.84 1374.88 1717.84 1381.34 Z" fill="#000000" fill-rule="nonzero" fill-opacity="1" /><path clip-path="url(#clip030)" d="M1769.53 1367.59 Q1764.82 1367.59 1762.08 1371.29 Q1759.34 1374.95 1759.34 1381.34 Q1759.34 1387.74 1762.05 1391.43 Q1764.79 1395.09 1769.53 1395.09 Q1774.21 1395.09 1776.95 1391.4 Q1779.68 1387.71 1779.68 1381.34 Q1779.68 1375.01 1776.95 1371.32 Q1774.21 1367.59 1769.53 1367.59 M1769.53 1362.63 Q1777.17 1362.63 1781.53 1367.59 Q1785.89 1372.56 1785.89 1381.34 Q1785.89 1390.1 1781.53 1395.09 Q1777.17 1400.06 1769.53 1400.06 Q1761.86 1400.06 1757.5 1395.09 Q1753.17 1390.1 1753.17 1381.34 Q1753.17 1372.56 1757.5 1367.59 Q1761.86 1362.63 1769.53 1362.63 Z" fill="#000000" fill-rule="nonzero" fill-opacity="1" /><path clip-path="url(#clip030)" d="M1792.19 1363.49 L1798.05 1363.49 L1805.37 1391.31 L1812.66 1363.49 L1819.56 1363.49 L1826.88 1391.31 L1834.17 1363.49 L1840.03 1363.49 L1830.7 1399.14 L1823.8 1399.14 L1816.13 1369.92 L1808.42 1399.14 L1801.52 1399.14 L1792.19 1363.49 Z" fill="#000000" fill-rule="nonzero" fill-opacity="1" /><path clip-path="url(#clip030)" d="M1883.7 1349.67 Q1879.43 1356.99 1877.36 1364.16 Q1875.3 1371.32 1875.3 1378.67 Q1875.3 1386.02 1877.36 1393.25 Q1879.47 1400.44 1883.7 1407.73 L1878.61 1407.73 Q1873.83 1400.25 1871.44 1393.02 Q1869.09 1385.8 1869.09 1378.67 Q1869.09 1371.57 1871.44 1364.38 Q1873.8 1357.19 1878.61 1349.67 L1883.7 1349.67 Z" fill="#000000" fill-rule="nonzero" fill-opacity="1" /><path clip-path="url(#clip030)" d="M1894.58 1351.62 L1901.05 1351.62 L1901.05 1380.48 Q1901.05 1388.12 1903.81 1391.5 Q1906.58 1394.84 1912.79 1394.84 Q1918.96 1394.84 1921.73 1391.5 Q1924.5 1388.12 1924.5 1380.48 L1924.5 1351.62 L1930.96 1351.62 L1930.96 1381.28 Q1930.96 1390.57 1926.35 1395.32 Q1921.77 1400.06 1912.79 1400.06 Q1903.78 1400.06 1899.17 1395.32 Q1894.58 1390.57 1894.58 1381.28 L1894.58 1351.62 Z" fill="#000000" fill-rule="nonzero" fill-opacity="1" /><path clip-path="url(#clip030)" d="M1971.51 1353.18 L1971.51 1359.45 Q1967.85 1357.69 1964.61 1356.84 Q1961.36 1355.98 1958.34 1355.98 Q1953.08 1355.98 1950.22 1358.01 Q1947.39 1360.05 1947.39 1363.81 Q1947.39 1366.96 1949.27 1368.58 Q1951.17 1370.17 1956.46 1371.16 L1960.34 1371.95 Q1967.53 1373.32 1970.94 1376.79 Q1974.38 1380.23 1974.38 1386.02 Q1974.38 1392.93 1969.73 1396.49 Q1965.12 1400.06 1956.17 1400.06 Q1952.8 1400.06 1948.98 1399.29 Q1945.19 1398.53 1941.12 1397.03 L1941.12 1390.41 Q1945.03 1392.61 1948.79 1393.72 Q1952.54 1394.84 1956.17 1394.84 Q1961.68 1394.84 1964.67 1392.67 Q1967.66 1390.51 1967.66 1386.5 Q1967.66 1383 1965.5 1381.03 Q1963.37 1379.05 1958.46 1378.07 L1954.55 1377.3 Q1947.36 1375.87 1944.14 1372.81 Q1940.93 1369.76 1940.93 1364.32 Q1940.93 1358.01 1945.35 1354.38 Q1949.81 1350.76 1957.6 1350.76 Q1960.95 1350.76 1964.42 1351.36 Q1967.88 1351.97 1971.51 1353.18 Z" fill="#000000" fill-rule="nonzero" fill-opacity="1" /><path clip-path="url(#clip030)" d="M1990.83 1356.9 L1990.83 1393.85 L1998.6 1393.85 Q2008.43 1393.85 2012.99 1389.4 Q2017.57 1384.94 2017.57 1375.33 Q2017.57 1365.78 2012.99 1361.36 Q2008.43 1356.9 1998.6 1356.9 L1990.83 1356.9 M1984.4 1351.62 L1997.61 1351.62 Q2011.43 1351.62 2017.89 1357.38 Q2024.35 1363.11 2024.35 1375.33 Q2024.35 1387.61 2017.86 1393.37 Q2011.36 1399.14 1997.61 1399.14 L1984.4 1399.14 L1984.4 1351.62 Z" fill="#000000" fill-rule="nonzero" fill-opacity="1" /><path clip-path="url(#clip030)" d="M2033.42 1349.67 L2038.51 1349.67 Q2043.29 1357.19 2045.64 1364.38 Q2048.03 1371.57 2048.03 1378.67 Q2048.03 1385.8 2045.64 1393.02 Q2043.29 1400.25 2038.51 1407.73 L2033.42 1407.73 Q2037.65 1400.44 2039.72 1393.25 Q2041.82 1386.02 2041.82 1378.67 Q2041.82 1371.32 2039.72 1364.16 Q2037.65 1356.99 2033.42 1349.67 Z" fill="#000000" fill-rule="nonzero" fill-opacity="1" /><polyline clip-path="url(#clip030)" style="stroke:#000000; stroke-linecap:round; stroke-linejoin:round; stroke-width:4; stroke-opacity:1; fill:none" points="423.561,1241.31 423.561,125.984 "/>
<polyline clip-path="url(#clip030)" style="stroke:#000000; stroke-linecap:round; stroke-linejoin:round; stroke-width:4; stroke-opacity:1; fill:none" points="423.561,1241.31 442.458,1241.31 "/>
<polyline clip-path="url(#clip030)" style="stroke:#000000; stroke-linecap:round; stroke-linejoin:round; stroke-width:4; stroke-opacity:1; fill:none" points="423.561,1042.15 442.458,1042.15 "/>
<polyline clip-path="url(#clip030)" style="stroke:#000000; stroke-linecap:round; stroke-linejoin:round; stroke-width:4; stroke-opacity:1; fill:none" points="423.561,842.98 442.458,842.98 "/>
<polyline clip-path="url(#clip030)" style="stroke:#000000; stroke-linecap:round; stroke-linejoin:round; stroke-width:4; stroke-opacity:1; fill:none" points="423.561,643.815 442.458,643.815 "/>
<polyline clip-path="url(#clip030)" style="stroke:#000000; stroke-linecap:round; stroke-linejoin:round; stroke-width:4; stroke-opacity:1; fill:none" points="423.561,444.649 442.458,444.649 "/>
<polyline clip-path="url(#clip030)" style="stroke:#000000; stroke-linecap:round; stroke-linejoin:round; stroke-width:4; stroke-opacity:1; fill:none" points="423.561,245.484 442.458,245.484 "/>
<path clip-path="url(#clip030)" d="M372.63 1223.56 Q368.116 1223.56 365.83 1228.02 Q363.573 1232.44 363.573 1241.35 Q363.573 1250.24 365.83 1254.69 Q368.116 1259.12 372.63 1259.12 Q377.173 1259.12 379.43 1254.69 Q381.716 1250.24 381.716 1241.35 Q381.716 1232.44 379.43 1228.02 Q377.173 1223.56 372.63 1223.56 M372.63 1218.93 Q379.893 1218.93 383.712 1224.69 Q387.561 1230.42 387.561 1241.35 Q387.561 1252.26 383.712 1258.02 Q379.893 1263.75 372.63 1263.75 Q365.367 1263.75 361.519 1258.02 Q357.7 1252.26 357.7 1241.35 Q357.7 1230.42 361.519 1224.69 Q365.367 1218.93 372.63 1218.93 Z" fill="#000000" fill-rule="nonzero" fill-opacity="1" /><path clip-path="url(#clip030)" d="M323.441 1058.83 L332.989 1058.83 L332.989 1025.87 L322.601 1027.95 L322.601 1022.63 L332.931 1020.55 L338.776 1020.55 L338.776 1058.83 L348.325 1058.83 L348.325 1063.75 L323.441 1063.75 L323.441 1058.83 Z" fill="#000000" fill-rule="nonzero" fill-opacity="1" /><path clip-path="url(#clip030)" d="M372.63 1024.39 Q368.116 1024.39 365.83 1028.85 Q363.573 1033.28 363.573 1042.19 Q363.573 1051.07 365.83 1055.53 Q368.116 1059.96 372.63 1059.96 Q377.173 1059.96 379.43 1055.53 Q381.716 1051.07 381.716 1042.19 Q381.716 1033.28 379.43 1028.85 Q377.173 1024.39 372.63 1024.39 M372.63 1019.76 Q379.893 1019.76 383.712 1025.52 Q387.561 1031.25 387.561 1042.19 Q387.561 1053.1 383.712 1058.86 Q379.893 1064.59 372.63 1064.59 Q365.367 1064.59 361.519 1058.86 Q357.7 1053.1 357.7 1042.19 Q357.7 1031.25 361.519 1025.52 Q365.367 1019.76 372.63 1019.76 Z" fill="#000000" fill-rule="nonzero" fill-opacity="1" /><path clip-path="url(#clip030)" d="M327.463 859.661 L347.862 859.661 L347.862 864.58 L320.431 864.58 L320.431 859.661 Q323.759 856.218 329.488 850.431 Q335.246 844.615 336.722 842.937 Q339.528 839.783 340.628 837.613 Q341.756 835.414 341.756 833.302 Q341.756 829.858 339.326 827.688 Q336.924 825.518 333.047 825.518 Q330.298 825.518 327.231 826.473 Q324.193 827.428 320.721 829.366 L320.721 823.464 Q324.251 822.046 327.318 821.322 Q330.385 820.599 332.931 820.599 Q339.644 820.599 343.637 823.956 Q347.63 827.312 347.63 832.925 Q347.63 835.587 346.618 837.989 Q345.634 840.362 343.001 843.602 Q342.277 844.442 338.4 848.464 Q334.523 852.457 327.463 859.661 Z" fill="#000000" fill-rule="nonzero" fill-opacity="1" /><path clip-path="url(#clip030)" d="M372.63 825.229 Q368.116 825.229 365.83 829.685 Q363.573 834.112 363.573 843.024 Q363.573 851.907 365.83 856.363 Q368.116 860.79 372.63 860.79 Q377.173 860.79 379.43 856.363 Q381.716 851.907 381.716 843.024 Q381.716 834.112 379.43 829.685 Q377.173 825.229 372.63 825.229 M372.63 820.599 Q379.893 820.599 383.712 826.357 Q387.561 832.086 387.561 843.024 Q387.561 853.932 383.712 859.69 Q379.893 865.419 372.63 865.419 Q365.367 865.419 361.519 859.69 Q357.7 853.932 357.7 843.024 Q357.7 832.086 361.519 826.357 Q365.367 820.599 372.63 820.599 Z" fill="#000000" fill-rule="nonzero" fill-opacity="1" /><path clip-path="url(#clip030)" d="M340.136 642.122 Q344.332 643.019 346.675 645.855 Q349.048 648.69 349.048 652.857 Q349.048 659.252 344.65 662.753 Q340.252 666.254 332.15 666.254 Q329.43 666.254 326.537 665.704 Q323.672 665.183 320.605 664.113 L320.605 658.47 Q323.035 659.888 325.929 660.612 Q328.822 661.335 331.976 661.335 Q337.474 661.335 340.339 659.165 Q343.232 656.995 343.232 652.857 Q343.232 649.038 340.541 646.896 Q337.879 644.726 333.105 644.726 L328.07 644.726 L328.07 639.923 L333.336 639.923 Q337.648 639.923 339.934 638.216 Q342.219 636.48 342.219 633.239 Q342.219 629.911 339.847 628.146 Q337.503 626.352 333.105 626.352 Q330.703 626.352 327.954 626.873 Q325.206 627.394 321.907 628.494 L321.907 623.285 Q325.235 622.359 328.128 621.896 Q331.05 621.434 333.626 621.434 Q340.281 621.434 344.158 624.472 Q348.035 627.481 348.035 632.631 Q348.035 636.219 345.981 638.708 Q343.927 641.167 340.136 642.122 Z" fill="#000000" fill-rule="nonzero" fill-opacity="1" /><path clip-path="url(#clip030)" d="M372.63 626.063 Q368.116 626.063 365.83 630.519 Q363.573 634.946 363.573 643.858 Q363.573 652.741 365.83 657.197 Q368.116 661.624 372.63 661.624 Q377.173 661.624 379.43 657.197 Q381.716 652.741 381.716 643.858 Q381.716 634.946 379.43 630.519 Q377.173 626.063 372.63 626.063 M372.63 621.434 Q379.893 621.434 383.712 627.192 Q387.561 632.921 387.561 643.858 Q387.561 654.767 383.712 660.525 Q379.893 666.254 372.63 666.254 Q365.367 666.254 361.519 660.525 Q357.7 654.767 357.7 643.858 Q357.7 632.921 361.519 627.192 Q365.367 621.434 372.63 621.434 Z" fill="#000000" fill-rule="nonzero" fill-opacity="1" /><path clip-path="url(#clip030)" d="M338.487 428.142 L323.73 451.203 L338.487 451.203 L338.487 428.142 M336.953 423.049 L344.303 423.049 L344.303 451.203 L350.466 451.203 L350.466 456.064 L344.303 456.064 L344.303 466.249 L338.487 466.249 L338.487 456.064 L318.985 456.064 L318.985 450.422 L336.953 423.049 Z" fill="#000000" fill-rule="nonzero" fill-opacity="1" /><path clip-path="url(#clip030)" d="M372.63 426.898 Q368.116 426.898 365.83 431.354 Q363.573 435.781 363.573 444.693 Q363.573 453.576 365.83 458.032 Q368.116 462.459 372.63 462.459 Q377.173 462.459 379.43 458.032 Q381.716 453.576 381.716 444.693 Q381.716 435.781 379.43 431.354 Q377.173 426.898 372.63 426.898 M372.63 422.268 Q379.893 422.268 383.712 428.026 Q387.561 433.755 387.561 444.693 Q387.561 455.601 383.712 461.359 Q379.893 467.088 372.63 467.088 Q365.367 467.088 361.519 461.359 Q357.7 455.601 357.7 444.693 Q357.7 433.755 361.519 428.026 Q365.367 422.268 372.63 422.268 Z" fill="#000000" fill-rule="nonzero" fill-opacity="1" /><path clip-path="url(#clip030)" d="M322.486 223.884 L345.431 223.884 L345.431 228.803 L327.839 228.803 L327.839 239.393 Q329.112 238.959 330.385 238.756 Q331.658 238.525 332.931 238.525 Q340.165 238.525 344.39 242.489 Q348.614 246.453 348.614 253.224 Q348.614 260.197 344.274 264.074 Q339.934 267.923 332.034 267.923 Q329.314 267.923 326.479 267.46 Q323.672 266.997 320.663 266.071 L320.663 260.197 Q323.267 261.615 326.045 262.309 Q328.822 263.004 331.919 263.004 Q336.924 263.004 339.847 260.371 Q342.769 257.738 342.769 253.224 Q342.769 248.71 339.847 246.077 Q336.924 243.444 331.919 243.444 Q329.575 243.444 327.231 243.965 Q324.916 244.485 322.486 245.585 L322.486 223.884 Z" fill="#000000" fill-rule="nonzero" fill-opacity="1" /><path clip-path="url(#clip030)" d="M372.63 227.732 Q368.116 227.732 365.83 232.188 Q363.573 236.615 363.573 245.527 Q363.573 254.41 365.83 258.866 Q368.116 263.293 372.63 263.293 Q377.173 263.293 379.43 258.866 Q381.716 254.41 381.716 245.527 Q381.716 236.615 379.43 232.188 Q377.173 227.732 372.63 227.732 M372.63 223.102 Q379.893 223.102 383.712 228.86 Q387.561 234.59 387.561 245.527 Q387.561 256.436 383.712 262.194 Q379.893 267.923 372.63 267.923 Q365.367 267.923 361.519 262.194 Q357.7 256.436 357.7 245.527 Q357.7 234.59 361.519 228.86 Q365.367 223.102 372.63 223.102 Z" fill="#000000" fill-rule="nonzero" fill-opacity="1" /><path clip-path="url(#clip030)" d="M224.869 739.507 L231.648 739.507 Q228.625 742.753 227.129 746.446 Q225.633 750.106 225.633 754.244 Q225.633 762.392 230.63 766.72 Q235.595 771.049 245.016 771.049 Q254.406 771.049 259.403 766.72 Q264.368 762.392 264.368 754.244 Q264.368 750.106 262.872 746.446 Q261.376 742.753 258.352 739.507 L265.068 739.507 Q267.36 742.881 268.506 746.668 Q269.652 750.424 269.652 754.626 Q269.652 765.415 263.063 771.622 Q256.443 777.829 245.016 777.829 Q233.558 777.829 226.97 771.622 Q220.349 765.415 220.349 754.626 Q220.349 750.36 221.495 746.605 Q222.609 742.817 224.869 739.507 Z" fill="#000000" fill-rule="nonzero" fill-opacity="1" /><path clip-path="url(#clip030)" d="M237.186 716.017 Q237.186 720.728 240.879 723.465 Q244.539 726.203 250.936 726.203 Q257.334 726.203 261.026 723.497 Q264.686 720.76 264.686 716.017 Q264.686 711.339 260.994 708.601 Q257.302 705.864 250.936 705.864 Q244.603 705.864 240.91 708.601 Q237.186 711.339 237.186 716.017 M232.221 716.017 Q232.221 708.379 237.186 704.018 Q242.152 699.658 250.936 699.658 Q259.689 699.658 264.686 704.018 Q269.652 708.379 269.652 716.017 Q269.652 723.688 264.686 728.049 Q259.689 732.377 250.936 732.377 Q242.152 732.377 237.186 728.049 Q232.221 723.688 232.221 716.017 Z" fill="#000000" fill-rule="nonzero" fill-opacity="1" /><path clip-path="url(#clip030)" d="M254.66 690.555 L233.081 690.555 L233.081 684.698 L254.438 684.698 Q259.498 684.698 262.045 682.725 Q264.559 680.751 264.559 676.805 Q264.559 672.062 261.535 669.325 Q258.512 666.556 253.292 666.556 L233.081 666.556 L233.081 660.7 L268.729 660.7 L268.729 666.556 L263.254 666.556 Q266.501 668.688 268.092 671.521 Q269.652 674.322 269.652 678.046 Q269.652 684.189 265.832 687.372 Q262.013 690.555 254.66 690.555 M232.221 675.818 L232.221 675.818 Z" fill="#000000" fill-rule="nonzero" fill-opacity="1" /><path clip-path="url(#clip030)" d="M247.212 619.004 L268.729 619.004 L268.729 624.861 L247.403 624.861 Q242.343 624.861 239.828 626.834 Q237.314 628.807 237.314 632.754 Q237.314 637.497 240.338 640.234 Q243.361 642.971 248.581 642.971 L268.729 642.971 L268.729 648.859 L233.081 648.859 L233.081 642.971 L238.619 642.971 Q235.404 640.87 233.813 638.038 Q232.221 635.173 232.221 631.449 Q232.221 625.306 236.041 622.155 Q239.828 619.004 247.212 619.004 Z" fill="#000000" fill-rule="nonzero" fill-opacity="1" /><path clip-path="url(#clip030)" d="M222.959 601.53 L233.081 601.53 L233.081 589.467 L237.632 589.467 L237.632 601.53 L256.984 601.53 Q261.344 601.53 262.586 600.353 Q263.827 599.143 263.827 595.483 L263.827 589.467 L268.729 589.467 L268.729 595.483 Q268.729 602.262 266.214 604.84 Q263.668 607.419 256.984 607.419 L237.632 607.419 L237.632 611.715 L233.081 611.715 L233.081 607.419 L222.959 607.419 L222.959 601.53 Z" fill="#000000" fill-rule="nonzero" fill-opacity="1" /><path clip-path="url(#clip032)" d="M525.339 1101.9 L525.339 1241.31 L591.215 1241.31 L591.215 1101.9 L525.339 1101.9 L525.339 1101.9  Z" fill="#4682b4" fill-rule="evenodd" fill-opacity="0.6"/>
<polyline clip-path="url(#clip032)" style="stroke:#000000; stroke-linecap:round; stroke-linejoin:round; stroke-width:4; stroke-opacity:1; fill:none" points="525.339,1101.9 525.339,1241.31 591.215,1241.31 591.215,1101.9 525.339,1101.9 "/>
<path clip-path="url(#clip032)" d="M591.215 1081.98 L591.215 1241.31 L657.091 1241.31 L657.091 1081.98 L591.215 1081.98 L591.215 1081.98  Z" fill="#4682b4" fill-rule="evenodd" fill-opacity="0.6"/>
<polyline clip-path="url(#clip032)" style="stroke:#000000; stroke-linecap:round; stroke-linejoin:round; stroke-width:4; stroke-opacity:1; fill:none" points="591.215,1081.98 591.215,1241.31 657.091,1241.31 657.091,1081.98 591.215,1081.98 "/>
<path clip-path="url(#clip032)" d="M657.091 823.064 L657.091 1241.31 L722.967 1241.31 L722.967 823.064 L657.091 823.064 L657.091 823.064  Z" fill="#4682b4" fill-rule="evenodd" fill-opacity="0.6"/>
<polyline clip-path="url(#clip032)" style="stroke:#000000; stroke-linecap:round; stroke-linejoin:round; stroke-width:4; stroke-opacity:1; fill:none" points="657.091,823.064 657.091,1241.31 722.967,1241.31 722.967,823.064 657.091,823.064 "/>
<path clip-path="url(#clip032)" d="M722.967 643.815 L722.967 1241.31 L788.843 1241.31 L788.843 643.815 L722.967 643.815 L722.967 643.815  Z" fill="#4682b4" fill-rule="evenodd" fill-opacity="0.6"/>
<polyline clip-path="url(#clip032)" style="stroke:#000000; stroke-linecap:round; stroke-linejoin:round; stroke-width:4; stroke-opacity:1; fill:none" points="722.967,643.815 722.967,1241.31 788.843,1241.31 788.843,643.815 722.967,643.815 "/>
<path clip-path="url(#clip032)" d="M788.843 504.399 L788.843 1241.31 L854.719 1241.31 L854.719 504.399 L788.843 504.399 L788.843 504.399  Z" fill="#4682b4" fill-rule="evenodd" fill-opacity="0.6"/>
<polyline clip-path="url(#clip032)" style="stroke:#000000; stroke-linecap:round; stroke-linejoin:round; stroke-width:4; stroke-opacity:1; fill:none" points="788.843,504.399 788.843,1241.31 854.719,1241.31 854.719,504.399 788.843,504.399 "/>
<path clip-path="url(#clip032)" d="M854.719 125.984 L854.719 1241.31 L920.595 1241.31 L920.595 125.984 L854.719 125.984 L854.719 125.984  Z" fill="#4682b4" fill-rule="evenodd" fill-opacity="0.6"/>
<polyline clip-path="url(#clip032)" style="stroke:#000000; stroke-linecap:round; stroke-linejoin:round; stroke-width:4; stroke-opacity:1; fill:none" points="854.719,125.984 854.719,1241.31 920.595,1241.31 920.595,125.984 854.719,125.984 "/>
<path clip-path="url(#clip032)" d="M920.595 384.9 L920.595 1241.31 L986.47 1241.31 L986.47 384.9 L920.595 384.9 L920.595 384.9  Z" fill="#4682b4" fill-rule="evenodd" fill-opacity="0.6"/>
<polyline clip-path="url(#clip032)" style="stroke:#000000; stroke-linecap:round; stroke-linejoin:round; stroke-width:4; stroke-opacity:1; fill:none" points="920.595,384.9 920.595,1241.31 986.47,1241.31 986.47,384.9 920.595,384.9 "/>
<path clip-path="url(#clip032)" d="M986.47 325.15 L986.47 1241.31 L1052.35 1241.31 L1052.35 325.15 L986.47 325.15 L986.47 325.15  Z" fill="#4682b4" fill-rule="evenodd" fill-opacity="0.6"/>
<polyline clip-path="url(#clip032)" style="stroke:#000000; stroke-linecap:round; stroke-linejoin:round; stroke-width:4; stroke-opacity:1; fill:none" points="986.47,325.15 986.47,1241.31 1052.35,1241.31 1052.35,325.15 986.47,325.15 "/>
<path clip-path="url(#clip032)" d="M1052.35 504.399 L1052.35 1241.31 L1118.22 1241.31 L1118.22 504.399 L1052.35 504.399 L1052.35 504.399  Z" fill="#4682b4" fill-rule="evenodd" fill-opacity="0.6"/>
<polyline clip-path="url(#clip032)" style="stroke:#000000; stroke-linecap:round; stroke-linejoin:round; stroke-width:4; stroke-opacity:1; fill:none" points="1052.35,504.399 1052.35,1241.31 1118.22,1241.31 1118.22,504.399 1052.35,504.399 "/>
<path clip-path="url(#clip032)" d="M1118.22 265.4 L1118.22 1241.31 L1184.1 1241.31 L1184.1 265.4 L1118.22 265.4 L1118.22 265.4  Z" fill="#4682b4" fill-rule="evenodd" fill-opacity="0.6"/>
<polyline clip-path="url(#clip032)" style="stroke:#000000; stroke-linecap:round; stroke-linejoin:round; stroke-width:4; stroke-opacity:1; fill:none" points="1118.22,265.4 1118.22,1241.31 1184.1,1241.31 1184.1,265.4 1118.22,265.4 "/>
<path clip-path="url(#clip032)" d="M1184.1 564.149 L1184.1 1241.31 L1249.97 1241.31 L1249.97 564.149 L1184.1 564.149 L1184.1 564.149  Z" fill="#4682b4" fill-rule="evenodd" fill-opacity="0.6"/>
<polyline clip-path="url(#clip032)" style="stroke:#000000; stroke-linecap:round; stroke-linejoin:round; stroke-width:4; stroke-opacity:1; fill:none" points="1184.1,564.149 1184.1,1241.31 1249.97,1241.31 1249.97,564.149 1184.1,564.149 "/>
<path clip-path="url(#clip032)" d="M1249.97 603.982 L1249.97 1241.31 L1315.85 1241.31 L1315.85 603.982 L1249.97 603.982 L1249.97 603.982  Z" fill="#4682b4" fill-rule="evenodd" fill-opacity="0.6"/>
<polyline clip-path="url(#clip032)" style="stroke:#000000; stroke-linecap:round; stroke-linejoin:round; stroke-width:4; stroke-opacity:1; fill:none" points="1249.97,603.982 1249.97,1241.31 1315.85,1241.31 1315.85,603.982 1249.97,603.982 "/>
<path clip-path="url(#clip032)" d="M1315.85 783.231 L1315.85 1241.31 L1381.73 1241.31 L1381.73 783.231 L1315.85 783.231 L1315.85 783.231  Z" fill="#4682b4" fill-rule="evenodd" fill-opacity="0.6"/>
<polyline clip-path="url(#clip032)" style="stroke:#000000; stroke-linecap:round; stroke-linejoin:round; stroke-width:4; stroke-opacity:1; fill:none" points="1315.85,783.231 1315.85,1241.31 1381.73,1241.31 1381.73,783.231 1315.85,783.231 "/>
<path clip-path="url(#clip032)" d="M1381.73 902.73 L1381.73 1241.31 L1447.6 1241.31 L1447.6 902.73 L1381.73 902.73 L1381.73 902.73  Z" fill="#4682b4" fill-rule="evenodd" fill-opacity="0.6"/>
<polyline clip-path="url(#clip032)" style="stroke:#000000; stroke-linecap:round; stroke-linejoin:round; stroke-width:4; stroke-opacity:1; fill:none" points="1381.73,902.73 1381.73,1241.31 1447.6,1241.31 1447.6,902.73 1381.73,902.73 "/>
<path clip-path="url(#clip032)" d="M1447.6 962.48 L1447.6 1241.31 L1513.48 1241.31 L1513.48 962.48 L1447.6 962.48 L1447.6 962.48  Z" fill="#4682b4" fill-rule="evenodd" fill-opacity="0.6"/>
<polyline clip-path="url(#clip032)" style="stroke:#000000; stroke-linecap:round; stroke-linejoin:round; stroke-width:4; stroke-opacity:1; fill:none" points="1447.6,962.48 1447.6,1241.31 1513.48,1241.31 1513.48,962.48 1447.6,962.48 "/>
<path clip-path="url(#clip032)" d="M1513.48 922.647 L1513.48 1241.31 L1579.35 1241.31 L1579.35 922.647 L1513.48 922.647 L1513.48 922.647  Z" fill="#4682b4" fill-rule="evenodd" fill-opacity="0.6"/>
<polyline clip-path="url(#clip032)" style="stroke:#000000; stroke-linecap:round; stroke-linejoin:round; stroke-width:4; stroke-opacity:1; fill:none" points="1513.48,922.647 1513.48,1241.31 1579.35,1241.31 1579.35,922.647 1513.48,922.647 "/>
<path clip-path="url(#clip032)" d="M1579.35 1081.98 L1579.35 1241.31 L1645.23 1241.31 L1645.23 1081.98 L1579.35 1081.98 L1579.35 1081.98  Z" fill="#4682b4" fill-rule="evenodd" fill-opacity="0.6"/>
<polyline clip-path="url(#clip032)" style="stroke:#000000; stroke-linecap:round; stroke-linejoin:round; stroke-width:4; stroke-opacity:1; fill:none" points="1579.35,1081.98 1579.35,1241.31 1645.23,1241.31 1645.23,1081.98 1579.35,1081.98 "/>
<path clip-path="url(#clip032)" d="M1645.23 1201.48 L1645.23 1241.31 L1711.11 1241.31 L1711.11 1201.48 L1645.23 1201.48 L1645.23 1201.48  Z" fill="#4682b4" fill-rule="evenodd" fill-opacity="0.6"/>
<polyline clip-path="url(#clip032)" style="stroke:#000000; stroke-linecap:round; stroke-linejoin:round; stroke-width:4; stroke-opacity:1; fill:none" points="1645.23,1201.48 1645.23,1241.31 1711.11,1241.31 1711.11,1201.48 1645.23,1201.48 "/>
<path clip-path="url(#clip032)" d="M1711.11 1181.56 L1711.11 1241.31 L1776.98 1241.31 L1776.98 1181.56 L1711.11 1181.56 L1711.11 1181.56  Z" fill="#4682b4" fill-rule="evenodd" fill-opacity="0.6"/>
<polyline clip-path="url(#clip032)" style="stroke:#000000; stroke-linecap:round; stroke-linejoin:round; stroke-width:4; stroke-opacity:1; fill:none" points="1711.11,1181.56 1711.11,1241.31 1776.98,1241.31 1776.98,1181.56 1711.11,1181.56 "/>
<path clip-path="url(#clip032)" d="M1776.98 1201.48 L1776.98 1241.31 L1842.86 1241.31 L1842.86 1201.48 L1776.98 1201.48 L1776.98 1201.48  Z" fill="#4682b4" fill-rule="evenodd" fill-opacity="0.6"/>
<polyline clip-path="url(#clip032)" style="stroke:#000000; stroke-linecap:round; stroke-linejoin:round; stroke-width:4; stroke-opacity:1; fill:none" points="1776.98,1201.48 1776.98,1241.31 1842.86,1241.31 1842.86,1201.48 1776.98,1201.48 "/>
<path clip-path="url(#clip032)" d="M1842.86 1161.65 L1842.86 1241.31 L1908.73 1241.31 L1908.73 1161.65 L1842.86 1161.65 L1842.86 1161.65  Z" fill="#4682b4" fill-rule="evenodd" fill-opacity="0.6"/>
<polyline clip-path="url(#clip032)" style="stroke:#000000; stroke-linecap:round; stroke-linejoin:round; stroke-width:4; stroke-opacity:1; fill:none" points="1842.86,1161.65 1842.86,1241.31 1908.73,1241.31 1908.73,1161.65 1842.86,1161.65 "/>
<path clip-path="url(#clip032)" d="M1908.73 1181.56 L1908.73 1241.31 L1974.61 1241.31 L1974.61 1181.56 L1908.73 1181.56 L1908.73 1181.56  Z" fill="#4682b4" fill-rule="evenodd" fill-opacity="0.6"/>
<polyline clip-path="url(#clip032)" style="stroke:#000000; stroke-linecap:round; stroke-linejoin:round; stroke-width:4; stroke-opacity:1; fill:none" points="1908.73,1181.56 1908.73,1241.31 1974.61,1241.31 1974.61,1181.56 1908.73,1181.56 "/>
<path clip-path="url(#clip032)" d="M1974.61 1161.65 L1974.61 1241.31 L2040.49 1241.31 L2040.49 1161.65 L1974.61 1161.65 L1974.61 1161.65  Z" fill="#4682b4" fill-rule="evenodd" fill-opacity="0.6"/>
<polyline clip-path="url(#clip032)" style="stroke:#000000; stroke-linecap:round; stroke-linejoin:round; stroke-width:4; stroke-opacity:1; fill:none" points="1974.61,1161.65 1974.61,1241.31 2040.49,1241.31 2040.49,1161.65 1974.61,1161.65 "/>
<path clip-path="url(#clip032)" d="M2040.49 1181.56 L2040.49 1241.31 L2106.36 1241.31 L2106.36 1181.56 L2040.49 1181.56 L2040.49 1181.56  Z" fill="#4682b4" fill-rule="evenodd" fill-opacity="0.6"/>
<polyline clip-path="url(#clip032)" style="stroke:#000000; stroke-linecap:round; stroke-linejoin:round; stroke-width:4; stroke-opacity:1; fill:none" points="2040.49,1181.56 2040.49,1241.31 2106.36,1241.31 2106.36,1181.56 2040.49,1181.56 "/>
<path clip-path="url(#clip032)" d="M2106.36 1221.39 L2106.36 1241.31 L2172.24 1241.31 L2172.24 1221.39 L2106.36 1221.39 L2106.36 1221.39  Z" fill="#4682b4" fill-rule="evenodd" fill-opacity="0.6"/>
<polyline clip-path="url(#clip032)" style="stroke:#000000; stroke-linecap:round; stroke-linejoin:round; stroke-width:4; stroke-opacity:1; fill:none" points="2106.36,1221.39 2106.36,1241.31 2172.24,1241.31 2172.24,1221.39 2106.36,1221.39 "/>
<circle clip-path="url(#clip032)" style="fill:#4682b4; stroke:none; fill-opacity:0" cx="558.277" cy="1101.9" r="2"/>
<circle clip-path="url(#clip032)" style="fill:#4682b4; stroke:none; fill-opacity:0" cx="624.153" cy="1081.98" r="2"/>
<circle clip-path="url(#clip032)" style="fill:#4682b4; stroke:none; fill-opacity:0" cx="690.029" cy="823.064" r="2"/>
<circle clip-path="url(#clip032)" style="fill:#4682b4; stroke:none; fill-opacity:0" cx="755.905" cy="643.815" r="2"/>
<circle clip-path="url(#clip032)" style="fill:#4682b4; stroke:none; fill-opacity:0" cx="821.781" cy="504.399" r="2"/>
<circle clip-path="url(#clip032)" style="fill:#4682b4; stroke:none; fill-opacity:0" cx="887.657" cy="125.984" r="2"/>
<circle clip-path="url(#clip032)" style="fill:#4682b4; stroke:none; fill-opacity:0" cx="953.533" cy="384.9" r="2"/>
<circle clip-path="url(#clip032)" style="fill:#4682b4; stroke:none; fill-opacity:0" cx="1019.41" cy="325.15" r="2"/>
<circle clip-path="url(#clip032)" style="fill:#4682b4; stroke:none; fill-opacity:0" cx="1085.28" cy="504.399" r="2"/>
<circle clip-path="url(#clip032)" style="fill:#4682b4; stroke:none; fill-opacity:0" cx="1151.16" cy="265.4" r="2"/>
<circle clip-path="url(#clip032)" style="fill:#4682b4; stroke:none; fill-opacity:0" cx="1217.04" cy="564.149" r="2"/>
<circle clip-path="url(#clip032)" style="fill:#4682b4; stroke:none; fill-opacity:0" cx="1282.91" cy="603.982" r="2"/>
<circle clip-path="url(#clip032)" style="fill:#4682b4; stroke:none; fill-opacity:0" cx="1348.79" cy="783.231" r="2"/>
<circle clip-path="url(#clip032)" style="fill:#4682b4; stroke:none; fill-opacity:0" cx="1414.66" cy="902.73" r="2"/>
<circle clip-path="url(#clip032)" style="fill:#4682b4; stroke:none; fill-opacity:0" cx="1480.54" cy="962.48" r="2"/>
<circle clip-path="url(#clip032)" style="fill:#4682b4; stroke:none; fill-opacity:0" cx="1546.42" cy="922.647" r="2"/>
<circle clip-path="url(#clip032)" style="fill:#4682b4; stroke:none; fill-opacity:0" cx="1612.29" cy="1081.98" r="2"/>
<circle clip-path="url(#clip032)" style="fill:#4682b4; stroke:none; fill-opacity:0" cx="1678.17" cy="1201.48" r="2"/>
<circle clip-path="url(#clip032)" style="fill:#4682b4; stroke:none; fill-opacity:0" cx="1744.04" cy="1181.56" r="2"/>
<circle clip-path="url(#clip032)" style="fill:#4682b4; stroke:none; fill-opacity:0" cx="1809.92" cy="1201.48" r="2"/>
<circle clip-path="url(#clip032)" style="fill:#4682b4; stroke:none; fill-opacity:0" cx="1875.8" cy="1161.65" r="2"/>
<circle clip-path="url(#clip032)" style="fill:#4682b4; stroke:none; fill-opacity:0" cx="1941.67" cy="1181.56" r="2"/>
<circle clip-path="url(#clip032)" style="fill:#4682b4; stroke:none; fill-opacity:0" cx="2007.55" cy="1161.65" r="2"/>
<circle clip-path="url(#clip032)" style="fill:#4682b4; stroke:none; fill-opacity:0" cx="2073.42" cy="1181.56" r="2"/>
<circle clip-path="url(#clip032)" style="fill:#4682b4; stroke:none; fill-opacity:0" cx="2139.3" cy="1221.39" r="2"/>
<polyline clip-path="url(#clip032)" style="stroke:#ff0000; stroke-linecap:round; stroke-linejoin:round; stroke-width:8; stroke-opacity:1; fill:none" points="1362.57,2356.64 1362.57,-989.343 "/>
<polyline clip-path="url(#clip032)" style="stroke:#0000ff; stroke-linecap:round; stroke-linejoin:round; stroke-width:8; stroke-opacity:1; fill:none" stroke-dasharray="32, 20" points="1056.01,2356.64 1056.01,-989.343 "/>
<path clip-path="url(#clip030)" d="M1346.69 396.442 L2212.33 396.442 L2212.33 163.162 L1346.69 163.162  Z" fill="#ffffff" fill-rule="evenodd" fill-opacity="1"/>
<polyline clip-path="url(#clip030)" style="stroke:#000000; stroke-linecap:round; stroke-linejoin:round; stroke-width:4; stroke-opacity:1; fill:none" points="1346.69,396.442 2212.33,396.442 2212.33,163.162 1346.69,163.162 1346.69,396.442 "/>
<path clip-path="url(#clip030)" d="M1367.25 244.81 L1490.62 244.81 L1490.62 198.154 L1367.25 198.154 L1367.25 244.81  Z" fill="#4682b4" fill-rule="evenodd" fill-opacity="0.6"/>
<polyline clip-path="url(#clip030)" style="stroke:#000000; stroke-linecap:round; stroke-linejoin:round; stroke-width:4.5; stroke-opacity:1; fill:none" points="1367.25,244.81 1490.62,244.81 1490.62,198.154 1367.25,198.154 1367.25,244.81 "/>
<path clip-path="url(#clip030)" d="M1536.2 203.318 L1536.2 208.448 Q1533.21 207.016 1530.55 206.313 Q1527.9 205.61 1525.42 205.61 Q1521.13 205.61 1518.78 207.276 Q1516.46 208.943 1516.46 212.016 Q1516.46 214.594 1518 215.922 Q1519.56 217.224 1523.89 218.031 L1527.06 218.682 Q1532.95 219.802 1535.74 222.641 Q1538.55 225.453 1538.55 230.193 Q1538.55 235.844 1534.75 238.76 Q1530.97 241.677 1523.65 241.677 Q1520.89 241.677 1517.77 241.052 Q1514.67 240.427 1511.33 239.203 L1511.33 233.786 Q1514.54 235.583 1517.61 236.495 Q1520.68 237.406 1523.65 237.406 Q1528.16 237.406 1530.6 235.635 Q1533.05 233.865 1533.05 230.583 Q1533.05 227.719 1531.28 226.104 Q1529.54 224.49 1525.53 223.682 L1522.32 223.057 Q1516.44 221.885 1513.81 219.385 Q1511.18 216.885 1511.18 212.432 Q1511.18 207.276 1514.8 204.307 Q1518.44 201.339 1524.82 201.339 Q1527.56 201.339 1530.4 201.833 Q1533.24 202.328 1536.2 203.318 Z" fill="#000000" fill-rule="nonzero" fill-opacity="1" /><path clip-path="url(#clip030)" d="M1546.54 211.755 L1551.33 211.755 L1551.33 240.922 L1546.54 240.922 L1546.54 211.755 M1546.54 200.401 L1551.33 200.401 L1551.33 206.469 L1546.54 206.469 L1546.54 200.401 Z" fill="#000000" fill-rule="nonzero" fill-opacity="1" /><path clip-path="url(#clip030)" d="M1584.07 217.354 Q1585.87 214.125 1588.37 212.589 Q1590.87 211.052 1594.25 211.052 Q1598.81 211.052 1601.28 214.255 Q1603.76 217.432 1603.76 223.318 L1603.76 240.922 L1598.94 240.922 L1598.94 223.474 Q1598.94 219.281 1597.45 217.25 Q1595.97 215.219 1592.92 215.219 Q1589.2 215.219 1587.04 217.693 Q1584.88 220.167 1584.88 224.438 L1584.88 240.922 L1580.06 240.922 L1580.06 223.474 Q1580.06 219.255 1578.57 217.25 Q1577.09 215.219 1573.99 215.219 Q1570.32 215.219 1568.16 217.719 Q1566 220.193 1566 224.438 L1566 240.922 L1561.18 240.922 L1561.18 211.755 L1566 211.755 L1566 216.287 Q1567.64 213.604 1569.93 212.328 Q1572.22 211.052 1575.37 211.052 Q1578.55 211.052 1580.76 212.667 Q1583 214.281 1584.07 217.354 Z" fill="#000000" fill-rule="nonzero" fill-opacity="1" /><path clip-path="url(#clip030)" d="M1612.82 229.411 L1612.82 211.755 L1617.61 211.755 L1617.61 229.229 Q1617.61 233.37 1619.22 235.453 Q1620.84 237.51 1624.07 237.51 Q1627.95 237.51 1630.19 235.036 Q1632.45 232.562 1632.45 228.292 L1632.45 211.755 L1637.25 211.755 L1637.25 240.922 L1632.45 240.922 L1632.45 236.443 Q1630.71 239.099 1628.39 240.401 Q1626.1 241.677 1623.05 241.677 Q1618.03 241.677 1615.42 238.552 Q1612.82 235.427 1612.82 229.411 M1624.88 211.052 L1624.88 211.052 Z" fill="#000000" fill-rule="nonzero" fill-opacity="1" /><path clip-path="url(#clip030)" d="M1647.11 200.401 L1651.91 200.401 L1651.91 240.922 L1647.11 240.922 L1647.11 200.401 Z" fill="#000000" fill-rule="nonzero" fill-opacity="1" /><path clip-path="url(#clip030)" d="M1675.19 226.26 Q1669.38 226.26 1667.14 227.589 Q1664.9 228.917 1664.9 232.12 Q1664.9 234.672 1666.57 236.182 Q1668.26 237.667 1671.15 237.667 Q1675.14 237.667 1677.53 234.854 Q1679.95 232.016 1679.95 227.328 L1679.95 226.26 L1675.19 226.26 M1684.74 224.281 L1684.74 240.922 L1679.95 240.922 L1679.95 236.495 Q1678.31 239.151 1675.86 240.427 Q1673.42 241.677 1669.88 241.677 Q1665.4 241.677 1662.74 239.177 Q1660.11 236.651 1660.11 232.432 Q1660.11 227.51 1663.39 225.01 Q1666.7 222.51 1673.23 222.51 L1679.95 222.51 L1679.95 222.042 Q1679.95 218.734 1677.77 216.938 Q1675.6 215.115 1671.67 215.115 Q1669.17 215.115 1666.8 215.714 Q1664.43 216.313 1662.24 217.51 L1662.24 213.083 Q1664.88 212.068 1667.35 211.573 Q1669.82 211.052 1672.17 211.052 Q1678.49 211.052 1681.62 214.333 Q1684.74 217.615 1684.74 224.281 Z" fill="#000000" fill-rule="nonzero" fill-opacity="1" /><path clip-path="url(#clip030)" d="M1699.35 203.474 L1699.35 211.755 L1709.22 211.755 L1709.22 215.479 L1699.35 215.479 L1699.35 231.313 Q1699.35 234.88 1700.32 235.896 Q1701.31 236.911 1704.3 236.911 L1709.22 236.911 L1709.22 240.922 L1704.3 240.922 Q1698.76 240.922 1696.65 238.865 Q1694.54 236.781 1694.54 231.313 L1694.54 215.479 L1691.02 215.479 L1691.02 211.755 L1694.54 211.755 L1694.54 203.474 L1699.35 203.474 Z" fill="#000000" fill-rule="nonzero" fill-opacity="1" /><path clip-path="url(#clip030)" d="M1740.47 225.141 L1740.47 227.484 L1718.44 227.484 Q1718.75 232.432 1721.41 235.036 Q1724.09 237.615 1728.86 237.615 Q1731.62 237.615 1734.2 236.937 Q1736.8 236.26 1739.35 234.906 L1739.35 239.437 Q1736.78 240.531 1734.07 241.104 Q1731.36 241.677 1728.57 241.677 Q1721.59 241.677 1717.51 237.615 Q1713.44 233.552 1713.44 226.625 Q1713.44 219.464 1717.3 215.271 Q1721.18 211.052 1727.74 211.052 Q1733.62 211.052 1737.04 214.854 Q1740.47 218.63 1740.47 225.141 M1735.68 223.734 Q1735.63 219.802 1733.47 217.458 Q1731.33 215.115 1727.79 215.115 Q1723.78 215.115 1721.36 217.38 Q1718.96 219.646 1718.6 223.76 L1735.68 223.734 Z" fill="#000000" fill-rule="nonzero" fill-opacity="1" /><path clip-path="url(#clip030)" d="M1767.53 216.182 L1767.53 200.401 L1772.32 200.401 L1772.32 240.922 L1767.53 240.922 L1767.53 236.547 Q1766.02 239.151 1763.7 240.427 Q1761.41 241.677 1758.18 241.677 Q1752.9 241.677 1749.56 237.458 Q1746.25 233.24 1746.25 226.365 Q1746.25 219.49 1749.56 215.271 Q1752.9 211.052 1758.18 211.052 Q1761.41 211.052 1763.7 212.328 Q1766.02 213.578 1767.53 216.182 M1751.2 226.365 Q1751.2 231.651 1753.36 234.672 Q1755.55 237.667 1759.35 237.667 Q1763.16 237.667 1765.34 234.672 Q1767.53 231.651 1767.53 226.365 Q1767.53 221.078 1765.34 218.083 Q1763.16 215.063 1759.35 215.063 Q1755.55 215.063 1753.36 218.083 Q1751.2 221.078 1751.2 226.365 Z" fill="#000000" fill-rule="nonzero" fill-opacity="1" /><path clip-path="url(#clip030)" d="M1803.88 203.474 L1803.88 211.755 L1813.75 211.755 L1813.75 215.479 L1803.88 215.479 L1803.88 231.313 Q1803.88 234.88 1804.85 235.896 Q1805.84 236.911 1808.83 236.911 L1813.75 236.911 L1813.75 240.922 L1808.83 240.922 Q1803.29 240.922 1801.18 238.865 Q1799.07 236.781 1799.07 231.313 L1799.07 215.479 L1795.55 215.479 L1795.55 211.755 L1799.07 211.755 L1799.07 203.474 L1803.88 203.474 Z" fill="#000000" fill-rule="nonzero" fill-opacity="1" /><path clip-path="url(#clip030)" d="M1845 225.141 L1845 227.484 L1822.97 227.484 Q1823.29 232.432 1825.94 235.036 Q1828.62 237.615 1833.39 237.615 Q1836.15 237.615 1838.73 236.937 Q1841.33 236.26 1843.88 234.906 L1843.88 239.437 Q1841.31 240.531 1838.6 241.104 Q1835.89 241.677 1833.1 241.677 Q1826.12 241.677 1822.04 237.615 Q1817.97 233.552 1817.97 226.625 Q1817.97 219.464 1821.83 215.271 Q1825.71 211.052 1832.27 211.052 Q1838.16 211.052 1841.57 214.854 Q1845 218.63 1845 225.141 M1840.21 223.734 Q1840.16 219.802 1838 217.458 Q1835.86 215.115 1832.32 215.115 Q1828.31 215.115 1825.89 217.38 Q1823.49 219.646 1823.13 223.76 L1840.21 223.734 Z" fill="#000000" fill-rule="nonzero" fill-opacity="1" /><path clip-path="url(#clip030)" d="M1869.77 216.234 Q1868.96 215.766 1868 215.557 Q1867.06 215.323 1865.92 215.323 Q1861.85 215.323 1859.67 217.979 Q1857.5 220.609 1857.5 225.557 L1857.5 240.922 L1852.69 240.922 L1852.69 211.755 L1857.5 211.755 L1857.5 216.287 Q1859.01 213.63 1861.44 212.354 Q1863.86 211.052 1867.32 211.052 Q1867.82 211.052 1868.42 211.13 Q1869.01 211.182 1869.74 211.313 L1869.77 216.234 Z" fill="#000000" fill-rule="nonzero" fill-opacity="1" /><path clip-path="url(#clip030)" d="M1896.57 217.354 Q1898.36 214.125 1900.86 212.589 Q1903.36 211.052 1906.75 211.052 Q1911.31 211.052 1913.78 214.255 Q1916.25 217.432 1916.25 223.318 L1916.25 240.922 L1911.44 240.922 L1911.44 223.474 Q1911.44 219.281 1909.95 217.25 Q1908.47 215.219 1905.42 215.219 Q1901.7 215.219 1899.54 217.693 Q1897.37 220.167 1897.37 224.438 L1897.37 240.922 L1892.56 240.922 L1892.56 223.474 Q1892.56 219.255 1891.07 217.25 Q1889.59 215.219 1886.49 215.219 Q1882.82 215.219 1880.66 217.719 Q1878.49 220.193 1878.49 224.438 L1878.49 240.922 L1873.68 240.922 L1873.68 211.755 L1878.49 211.755 L1878.49 216.287 Q1880.13 213.604 1882.43 212.328 Q1884.72 211.052 1887.87 211.052 Q1891.05 211.052 1893.26 212.667 Q1895.5 214.281 1896.57 217.354 Z" fill="#000000" fill-rule="nonzero" fill-opacity="1" /><path clip-path="url(#clip030)" d="M1925.81 211.755 L1930.6 211.755 L1930.6 240.922 L1925.81 240.922 L1925.81 211.755 M1925.81 200.401 L1930.6 200.401 L1930.6 206.469 L1925.81 206.469 L1925.81 200.401 Z" fill="#000000" fill-rule="nonzero" fill-opacity="1" /><path clip-path="url(#clip030)" d="M1964.87 223.318 L1964.87 240.922 L1960.08 240.922 L1960.08 223.474 Q1960.08 219.333 1958.47 217.276 Q1956.85 215.219 1953.62 215.219 Q1949.74 215.219 1947.5 217.693 Q1945.26 220.167 1945.26 224.438 L1945.26 240.922 L1940.45 240.922 L1940.45 211.755 L1945.26 211.755 L1945.26 216.287 Q1946.98 213.656 1949.3 212.354 Q1951.64 211.052 1954.69 211.052 Q1959.72 211.052 1962.3 214.177 Q1964.87 217.276 1964.87 223.318 Z" fill="#000000" fill-rule="nonzero" fill-opacity="1" /><path clip-path="url(#clip030)" d="M1987.69 226.26 Q1981.88 226.26 1979.64 227.589 Q1977.4 228.917 1977.4 232.12 Q1977.4 234.672 1979.07 236.182 Q1980.76 237.667 1983.65 237.667 Q1987.63 237.667 1990.03 234.854 Q1992.45 232.016 1992.45 227.328 L1992.45 226.26 L1987.69 226.26 M1997.24 224.281 L1997.24 240.922 L1992.45 240.922 L1992.45 236.495 Q1990.81 239.151 1988.36 240.427 Q1985.92 241.677 1982.37 241.677 Q1977.89 241.677 1975.24 239.177 Q1972.61 236.651 1972.61 232.432 Q1972.61 227.51 1975.89 225.01 Q1979.2 222.51 1985.73 222.51 L1992.45 222.51 L1992.45 222.042 Q1992.45 218.734 1990.26 216.938 Q1988.1 215.115 1984.17 215.115 Q1981.67 215.115 1979.3 215.714 Q1976.93 216.313 1974.74 217.51 L1974.74 213.083 Q1977.37 212.068 1979.85 211.573 Q1982.32 211.052 1984.67 211.052 Q1990.99 211.052 1994.12 214.333 Q1997.24 217.615 1997.24 224.281 Z" fill="#000000" fill-rule="nonzero" fill-opacity="1" /><path clip-path="url(#clip030)" d="M2007.11 200.401 L2011.9 200.401 L2011.9 240.922 L2007.11 240.922 L2007.11 200.401 Z" fill="#000000" fill-rule="nonzero" fill-opacity="1" /><path clip-path="url(#clip030)" d="M2043.52 236.547 L2043.52 252.016 L2038.7 252.016 L2038.7 211.755 L2043.52 211.755 L2043.52 216.182 Q2045.03 213.578 2047.32 212.328 Q2049.64 211.052 2052.84 211.052 Q2058.15 211.052 2061.46 215.271 Q2064.79 219.49 2064.79 226.365 Q2064.79 233.24 2061.46 237.458 Q2058.15 241.677 2052.84 241.677 Q2049.64 241.677 2047.32 240.427 Q2045.03 239.151 2043.52 236.547 M2059.82 226.365 Q2059.82 221.078 2057.63 218.083 Q2055.47 215.063 2051.67 215.063 Q2047.87 215.063 2045.68 218.083 Q2043.52 221.078 2043.52 226.365 Q2043.52 231.651 2045.68 234.672 Q2047.87 237.667 2051.67 237.667 Q2055.47 237.667 2057.63 234.672 Q2059.82 231.651 2059.82 226.365 Z" fill="#000000" fill-rule="nonzero" fill-opacity="1" /><path clip-path="url(#clip030)" d="M2089.64 216.234 Q2088.83 215.766 2087.87 215.557 Q2086.93 215.323 2085.78 215.323 Q2081.72 215.323 2079.53 217.979 Q2077.37 220.609 2077.37 225.557 L2077.37 240.922 L2072.56 240.922 L2072.56 211.755 L2077.37 211.755 L2077.37 216.287 Q2078.88 213.63 2081.31 212.354 Q2083.73 211.052 2087.19 211.052 Q2087.69 211.052 2088.28 211.13 Q2088.88 211.182 2089.61 211.313 L2089.64 216.234 Z" fill="#000000" fill-rule="nonzero" fill-opacity="1" /><path clip-path="url(#clip030)" d="M2094.66 211.755 L2099.46 211.755 L2099.46 240.922 L2094.66 240.922 L2094.66 211.755 M2094.66 200.401 L2099.46 200.401 L2099.46 206.469 L2094.66 206.469 L2094.66 200.401 Z" fill="#000000" fill-rule="nonzero" fill-opacity="1" /><path clip-path="url(#clip030)" d="M2130.47 212.875 L2130.47 217.354 Q2128.44 216.234 2126.38 215.688 Q2124.35 215.115 2122.27 215.115 Q2117.61 215.115 2115.03 218.083 Q2112.45 221.026 2112.45 226.365 Q2112.45 231.703 2115.03 234.672 Q2117.61 237.615 2122.27 237.615 Q2124.35 237.615 2126.38 237.068 Q2128.44 236.495 2130.47 235.375 L2130.47 239.802 Q2128.47 240.74 2126.3 241.208 Q2124.17 241.677 2121.75 241.677 Q2115.16 241.677 2111.28 237.536 Q2107.4 233.396 2107.4 226.365 Q2107.4 219.229 2111.3 215.141 Q2115.24 211.052 2122.06 211.052 Q2124.27 211.052 2126.38 211.521 Q2128.49 211.964 2130.47 212.875 Z" fill="#000000" fill-rule="nonzero" fill-opacity="1" /><path clip-path="url(#clip030)" d="M2163.75 225.141 L2163.75 227.484 L2141.72 227.484 Q2142.03 232.432 2144.69 235.036 Q2147.37 237.615 2152.14 237.615 Q2154.9 237.615 2157.48 236.937 Q2160.08 236.26 2162.63 234.906 L2162.63 239.437 Q2160.05 240.531 2157.35 241.104 Q2154.64 241.677 2151.85 241.677 Q2144.87 241.677 2140.78 237.615 Q2136.72 233.552 2136.72 226.625 Q2136.72 219.464 2140.58 215.271 Q2144.46 211.052 2151.02 211.052 Q2156.9 211.052 2160.32 214.854 Q2163.75 218.63 2163.75 225.141 M2158.96 223.734 Q2158.91 219.802 2156.75 217.458 Q2154.61 215.115 2151.07 215.115 Q2147.06 215.115 2144.64 217.38 Q2142.24 219.646 2141.88 223.76 L2158.96 223.734 Z" fill="#000000" fill-rule="nonzero" fill-opacity="1" /><path clip-path="url(#clip030)" d="M2190.21 212.615 L2190.21 217.146 Q2188.18 216.104 2185.99 215.583 Q2183.8 215.063 2181.46 215.063 Q2177.89 215.063 2176.1 216.156 Q2174.33 217.25 2174.33 219.438 Q2174.33 221.104 2175.6 222.068 Q2176.88 223.005 2180.73 223.865 L2182.37 224.229 Q2187.48 225.323 2189.61 227.328 Q2191.77 229.307 2191.77 232.875 Q2191.77 236.937 2188.54 239.307 Q2185.34 241.677 2179.72 241.677 Q2177.37 241.677 2174.82 241.208 Q2172.29 240.766 2169.48 239.854 L2169.48 234.906 Q2172.14 236.286 2174.72 236.99 Q2177.29 237.667 2179.82 237.667 Q2183.21 237.667 2185.03 236.521 Q2186.85 235.349 2186.85 233.24 Q2186.85 231.286 2185.52 230.245 Q2184.22 229.203 2179.77 228.24 L2178.1 227.849 Q2173.65 226.911 2171.67 224.984 Q2169.69 223.031 2169.69 219.646 Q2169.69 215.531 2172.61 213.292 Q2175.52 211.052 2180.89 211.052 Q2183.54 211.052 2185.89 211.443 Q2188.23 211.833 2190.21 212.615 Z" fill="#000000" fill-rule="nonzero" fill-opacity="1" /><polyline clip-path="url(#clip030)" style="stroke:#ff0000; stroke-linecap:round; stroke-linejoin:round; stroke-width:9; stroke-opacity:1; fill:none" points="1367.25,279.802 1490.62,279.802 "/>
<path clip-path="url(#clip030)" d="M1529.2 263.93 Q1523.47 263.93 1520.08 268.2 Q1516.72 272.471 1516.72 279.841 Q1516.72 287.185 1520.08 291.455 Q1523.47 295.726 1529.2 295.726 Q1534.93 295.726 1538.26 291.455 Q1541.62 287.185 1541.62 279.841 Q1541.62 272.471 1538.26 268.2 Q1534.93 263.93 1529.2 263.93 M1529.2 259.659 Q1537.38 259.659 1542.27 265.153 Q1547.17 270.622 1547.17 279.841 Q1547.17 289.034 1542.27 294.528 Q1537.38 299.997 1529.2 299.997 Q1521 299.997 1516.07 294.528 Q1511.18 289.06 1511.18 279.841 Q1511.18 270.622 1516.07 265.153 Q1521 259.659 1529.2 259.659 Z" fill="#000000" fill-rule="nonzero" fill-opacity="1" /><path clip-path="url(#clip030)" d="M1576.13 284.685 Q1576.13 279.398 1573.94 276.403 Q1571.78 273.383 1567.97 273.383 Q1564.17 273.383 1561.99 276.403 Q1559.82 279.398 1559.82 284.685 Q1559.82 289.971 1561.99 292.992 Q1564.17 295.987 1567.97 295.987 Q1571.78 295.987 1573.94 292.992 Q1576.13 289.971 1576.13 284.685 M1559.82 274.502 Q1561.33 271.898 1563.63 270.648 Q1565.94 269.372 1569.15 269.372 Q1574.46 269.372 1577.77 273.591 Q1581.1 277.81 1581.1 284.685 Q1581.1 291.56 1577.77 295.778 Q1574.46 299.997 1569.15 299.997 Q1565.94 299.997 1563.63 298.747 Q1561.33 297.471 1559.82 294.867 L1559.82 299.242 L1555.01 299.242 L1555.01 258.721 L1559.82 258.721 L1559.82 274.502 Z" fill="#000000" fill-rule="nonzero" fill-opacity="1" /><path clip-path="url(#clip030)" d="M1607.64 270.935 L1607.64 275.466 Q1605.6 274.424 1603.42 273.903 Q1601.23 273.383 1598.89 273.383 Q1595.32 273.383 1593.52 274.476 Q1591.75 275.57 1591.75 277.758 Q1591.75 279.424 1593.03 280.388 Q1594.3 281.325 1598.16 282.185 L1599.8 282.549 Q1604.9 283.643 1607.04 285.648 Q1609.2 287.627 1609.2 291.195 Q1609.2 295.257 1605.97 297.627 Q1602.77 299.997 1597.14 299.997 Q1594.8 299.997 1592.25 299.528 Q1589.72 299.086 1586.91 298.174 L1586.91 293.226 Q1589.56 294.606 1592.14 295.31 Q1594.72 295.987 1597.25 295.987 Q1600.63 295.987 1602.45 294.841 Q1604.28 293.669 1604.28 291.56 Q1604.28 289.606 1602.95 288.565 Q1601.65 287.523 1597.19 286.56 L1595.53 286.169 Q1591.07 285.231 1589.09 283.304 Q1587.12 281.351 1587.12 277.966 Q1587.12 273.851 1590.03 271.612 Q1592.95 269.372 1598.31 269.372 Q1600.97 269.372 1603.31 269.763 Q1605.66 270.153 1607.64 270.935 Z" fill="#000000" fill-rule="nonzero" fill-opacity="1" /><path clip-path="url(#clip030)" d="M1641.78 283.461 L1641.78 285.804 L1619.75 285.804 Q1620.06 290.752 1622.71 293.356 Q1625.4 295.935 1630.16 295.935 Q1632.92 295.935 1635.5 295.257 Q1638.1 294.58 1640.66 293.226 L1640.66 297.757 Q1638.08 298.851 1635.37 299.424 Q1632.66 299.997 1629.88 299.997 Q1622.9 299.997 1618.81 295.935 Q1614.75 291.872 1614.75 284.945 Q1614.75 277.784 1618.6 273.591 Q1622.48 269.372 1629.04 269.372 Q1634.93 269.372 1638.34 273.174 Q1641.78 276.95 1641.78 283.461 M1636.98 282.054 Q1636.93 278.122 1634.77 275.778 Q1632.64 273.435 1629.09 273.435 Q1625.08 273.435 1622.66 275.7 Q1620.27 277.966 1619.9 282.08 L1636.98 282.054 Z" fill="#000000" fill-rule="nonzero" fill-opacity="1" /><path clip-path="url(#clip030)" d="M1666.54 274.554 Q1665.73 274.086 1664.77 273.877 Q1663.83 273.643 1662.69 273.643 Q1658.63 273.643 1656.44 276.299 Q1654.28 278.929 1654.28 283.877 L1654.28 299.242 L1649.46 299.242 L1649.46 270.075 L1654.28 270.075 L1654.28 274.607 Q1655.79 271.95 1658.21 270.674 Q1660.63 269.372 1664.09 269.372 Q1664.59 269.372 1665.19 269.45 Q1665.79 269.502 1666.52 269.633 L1666.54 274.554 Z" fill="#000000" fill-rule="nonzero" fill-opacity="1" /><path clip-path="url(#clip030)" d="M1668.13 270.075 L1673.21 270.075 L1682.32 294.554 L1691.44 270.075 L1696.52 270.075 L1685.58 299.242 L1679.07 299.242 L1668.13 270.075 Z" fill="#000000" fill-rule="nonzero" fill-opacity="1" /><path clip-path="url(#clip030)" d="M1728.08 283.461 L1728.08 285.804 L1706.05 285.804 Q1706.36 290.752 1709.02 293.356 Q1711.7 295.935 1716.46 295.935 Q1719.22 295.935 1721.8 295.257 Q1724.41 294.58 1726.96 293.226 L1726.96 297.757 Q1724.38 298.851 1721.67 299.424 Q1718.96 299.997 1716.18 299.997 Q1709.2 299.997 1705.11 295.935 Q1701.05 291.872 1701.05 284.945 Q1701.05 277.784 1704.9 273.591 Q1708.78 269.372 1715.34 269.372 Q1721.23 269.372 1724.64 273.174 Q1728.08 276.95 1728.08 283.461 M1723.29 282.054 Q1723.23 278.122 1721.07 275.778 Q1718.94 273.435 1715.4 273.435 Q1711.39 273.435 1708.96 275.7 Q1706.57 277.966 1706.2 282.08 L1723.29 282.054 Z" fill="#000000" fill-rule="nonzero" fill-opacity="1" /><path clip-path="url(#clip030)" d="M1755.14 274.502 L1755.14 258.721 L1759.93 258.721 L1759.93 299.242 L1755.14 299.242 L1755.14 294.867 Q1753.62 297.471 1751.31 298.747 Q1749.02 299.997 1745.79 299.997 Q1740.5 299.997 1737.17 295.778 Q1733.86 291.56 1733.86 284.685 Q1733.86 277.81 1737.17 273.591 Q1740.5 269.372 1745.79 269.372 Q1749.02 269.372 1751.31 270.648 Q1753.62 271.898 1755.14 274.502 M1738.81 284.685 Q1738.81 289.971 1740.97 292.992 Q1743.16 295.987 1746.96 295.987 Q1750.76 295.987 1752.95 292.992 Q1755.14 289.971 1755.14 284.685 Q1755.14 279.398 1752.95 276.403 Q1750.76 273.383 1746.96 273.383 Q1743.16 273.383 1740.97 276.403 Q1738.81 279.398 1738.81 284.685 Z" fill="#000000" fill-rule="nonzero" fill-opacity="1" /><path clip-path="url(#clip030)" d="M1791.49 261.794 L1791.49 270.075 L1801.36 270.075 L1801.36 273.799 L1791.49 273.799 L1791.49 289.633 Q1791.49 293.2 1792.45 294.216 Q1793.44 295.231 1796.44 295.231 L1801.36 295.231 L1801.36 299.242 L1796.44 299.242 Q1790.89 299.242 1788.78 297.185 Q1786.67 295.101 1786.67 289.633 L1786.67 273.799 L1783.16 273.799 L1783.16 270.075 L1786.67 270.075 L1786.67 261.794 L1791.49 261.794 Z" fill="#000000" fill-rule="nonzero" fill-opacity="1" /><path clip-path="url(#clip030)" d="M1832.61 283.461 L1832.61 285.804 L1810.58 285.804 Q1810.89 290.752 1813.55 293.356 Q1816.23 295.935 1820.99 295.935 Q1823.75 295.935 1826.33 295.257 Q1828.94 294.58 1831.49 293.226 L1831.49 297.757 Q1828.91 298.851 1826.2 299.424 Q1823.49 299.997 1820.71 299.997 Q1813.73 299.997 1809.64 295.935 Q1805.58 291.872 1805.58 284.945 Q1805.58 277.784 1809.43 273.591 Q1813.31 269.372 1819.87 269.372 Q1825.76 269.372 1829.17 273.174 Q1832.61 276.95 1832.61 283.461 M1827.82 282.054 Q1827.76 278.122 1825.6 275.778 Q1823.47 273.435 1819.93 273.435 Q1815.92 273.435 1813.49 275.7 Q1811.1 277.966 1810.73 282.08 L1827.82 282.054 Z" fill="#000000" fill-rule="nonzero" fill-opacity="1" /><path clip-path="url(#clip030)" d="M1857.37 274.554 Q1856.57 274.086 1855.6 273.877 Q1854.67 273.643 1853.52 273.643 Q1849.46 273.643 1847.27 276.299 Q1845.11 278.929 1845.11 283.877 L1845.11 299.242 L1840.29 299.242 L1840.29 270.075 L1845.11 270.075 L1845.11 274.607 Q1846.62 271.95 1849.04 270.674 Q1851.46 269.372 1854.93 269.372 Q1855.42 269.372 1856.02 269.45 Q1856.62 269.502 1857.35 269.633 L1857.37 274.554 Z" fill="#000000" fill-rule="nonzero" fill-opacity="1" /><path clip-path="url(#clip030)" d="M1884.17 275.674 Q1885.97 272.445 1888.47 270.909 Q1890.97 269.372 1894.35 269.372 Q1898.91 269.372 1901.38 272.575 Q1903.86 275.752 1903.86 281.638 L1903.86 299.242 L1899.04 299.242 L1899.04 281.794 Q1899.04 277.601 1897.56 275.57 Q1896.07 273.539 1893.02 273.539 Q1889.3 273.539 1887.14 276.013 Q1884.98 278.487 1884.98 282.758 L1884.98 299.242 L1880.16 299.242 L1880.16 281.794 Q1880.16 277.575 1878.68 275.57 Q1877.19 273.539 1874.09 273.539 Q1870.42 273.539 1868.26 276.039 Q1866.1 278.513 1866.1 282.758 L1866.1 299.242 L1861.28 299.242 L1861.28 270.075 L1866.1 270.075 L1866.1 274.607 Q1867.74 271.924 1870.03 270.648 Q1872.32 269.372 1875.47 269.372 Q1878.65 269.372 1880.86 270.987 Q1883.1 272.601 1884.17 275.674 Z" fill="#000000" fill-rule="nonzero" fill-opacity="1" /><path clip-path="url(#clip030)" d="M1913.42 270.075 L1918.21 270.075 L1918.21 299.242 L1913.42 299.242 L1913.42 270.075 M1913.42 258.721 L1918.21 258.721 L1918.21 264.789 L1913.42 264.789 L1913.42 258.721 Z" fill="#000000" fill-rule="nonzero" fill-opacity="1" /><path clip-path="url(#clip030)" d="M1952.48 281.638 L1952.48 299.242 L1947.69 299.242 L1947.69 281.794 Q1947.69 277.653 1946.07 275.596 Q1944.46 273.539 1941.23 273.539 Q1937.35 273.539 1935.11 276.013 Q1932.87 278.487 1932.87 282.758 L1932.87 299.242 L1928.05 299.242 L1928.05 270.075 L1932.87 270.075 L1932.87 274.607 Q1934.59 271.976 1936.9 270.674 Q1939.25 269.372 1942.3 269.372 Q1947.32 269.372 1949.9 272.497 Q1952.48 275.596 1952.48 281.638 Z" fill="#000000" fill-rule="nonzero" fill-opacity="1" /><path clip-path="url(#clip030)" d="M1975.29 284.58 Q1969.48 284.58 1967.24 285.909 Q1965 287.237 1965 290.44 Q1965 292.992 1966.67 294.502 Q1968.36 295.987 1971.25 295.987 Q1975.24 295.987 1977.63 293.174 Q1980.06 290.336 1980.06 285.648 L1980.06 284.58 L1975.29 284.58 M1984.85 282.601 L1984.85 299.242 L1980.06 299.242 L1980.06 294.815 Q1978.42 297.471 1975.97 298.747 Q1973.52 299.997 1969.98 299.997 Q1965.5 299.997 1962.84 297.497 Q1960.21 294.971 1960.21 290.752 Q1960.21 285.83 1963.49 283.33 Q1966.8 280.83 1973.34 280.83 L1980.06 280.83 L1980.06 280.362 Q1980.06 277.054 1977.87 275.258 Q1975.71 273.435 1971.77 273.435 Q1969.27 273.435 1966.9 274.034 Q1964.53 274.633 1962.35 275.83 L1962.35 271.403 Q1964.98 270.388 1967.45 269.893 Q1969.93 269.372 1972.27 269.372 Q1978.6 269.372 1981.72 272.653 Q1984.85 275.935 1984.85 282.601 Z" fill="#000000" fill-rule="nonzero" fill-opacity="1" /><path clip-path="url(#clip030)" d="M1994.72 258.721 L1999.51 258.721 L1999.51 299.242 L1994.72 299.242 L1994.72 258.721 Z" fill="#000000" fill-rule="nonzero" fill-opacity="1" /><polyline clip-path="url(#clip030)" style="stroke:#0000ff; stroke-linecap:round; stroke-linejoin:round; stroke-width:9; stroke-opacity:1; fill:none" stroke-dasharray="36, 23" points="1367.25,338.122 1490.62,338.122 "/>
<path clip-path="url(#clip030)" d="M1536.2 319.958 L1536.2 325.088 Q1533.21 323.656 1530.55 322.953 Q1527.9 322.25 1525.42 322.25 Q1521.13 322.25 1518.78 323.916 Q1516.46 325.583 1516.46 328.656 Q1516.46 331.234 1518 332.562 Q1519.56 333.864 1523.89 334.671 L1527.06 335.322 Q1532.95 336.442 1535.74 339.281 Q1538.55 342.093 1538.55 346.833 Q1538.55 352.484 1534.75 355.4 Q1530.97 358.317 1523.65 358.317 Q1520.89 358.317 1517.77 357.692 Q1514.67 357.067 1511.33 355.843 L1511.33 350.426 Q1514.54 352.223 1517.61 353.135 Q1520.68 354.046 1523.65 354.046 Q1528.16 354.046 1530.6 352.275 Q1533.05 350.505 1533.05 347.223 Q1533.05 344.359 1531.28 342.744 Q1529.54 341.13 1525.53 340.322 L1522.32 339.697 Q1516.44 338.525 1513.81 336.025 Q1511.18 333.525 1511.18 329.072 Q1511.18 323.916 1514.8 320.947 Q1518.44 317.979 1524.82 317.979 Q1527.56 317.979 1530.4 318.473 Q1533.24 318.968 1536.2 319.958 Z" fill="#000000" fill-rule="nonzero" fill-opacity="1" /><path clip-path="url(#clip030)" d="M1546.54 328.395 L1551.33 328.395 L1551.33 357.562 L1546.54 357.562 L1546.54 328.395 M1546.54 317.041 L1551.33 317.041 L1551.33 323.109 L1546.54 323.109 L1546.54 317.041 Z" fill="#000000" fill-rule="nonzero" fill-opacity="1" /><path clip-path="url(#clip030)" d="M1584.07 333.994 Q1585.87 330.765 1588.37 329.229 Q1590.87 327.692 1594.25 327.692 Q1598.81 327.692 1601.28 330.895 Q1603.76 334.072 1603.76 339.958 L1603.76 357.562 L1598.94 357.562 L1598.94 340.114 Q1598.94 335.921 1597.45 333.89 Q1595.97 331.859 1592.92 331.859 Q1589.2 331.859 1587.04 334.333 Q1584.88 336.807 1584.88 341.078 L1584.88 357.562 L1580.06 357.562 L1580.06 340.114 Q1580.06 335.895 1578.57 333.89 Q1577.09 331.859 1573.99 331.859 Q1570.32 331.859 1568.16 334.359 Q1566 336.833 1566 341.078 L1566 357.562 L1561.18 357.562 L1561.18 328.395 L1566 328.395 L1566 332.927 Q1567.64 330.244 1569.93 328.968 Q1572.22 327.692 1575.37 327.692 Q1578.55 327.692 1580.76 329.307 Q1583 330.921 1584.07 333.994 Z" fill="#000000" fill-rule="nonzero" fill-opacity="1" /><path clip-path="url(#clip030)" d="M1612.82 346.051 L1612.82 328.395 L1617.61 328.395 L1617.61 345.869 Q1617.61 350.01 1619.22 352.093 Q1620.84 354.15 1624.07 354.15 Q1627.95 354.15 1630.19 351.676 Q1632.45 349.202 1632.45 344.932 L1632.45 328.395 L1637.25 328.395 L1637.25 357.562 L1632.45 357.562 L1632.45 353.083 Q1630.71 355.739 1628.39 357.041 Q1626.1 358.317 1623.05 358.317 Q1618.03 358.317 1615.42 355.192 Q1612.82 352.067 1612.82 346.051 M1624.88 327.692 L1624.88 327.692 Z" fill="#000000" fill-rule="nonzero" fill-opacity="1" /><path clip-path="url(#clip030)" d="M1647.11 317.041 L1651.91 317.041 L1651.91 357.562 L1647.11 357.562 L1647.11 317.041 Z" fill="#000000" fill-rule="nonzero" fill-opacity="1" /><path clip-path="url(#clip030)" d="M1675.19 342.9 Q1669.38 342.9 1667.14 344.229 Q1664.9 345.557 1664.9 348.76 Q1664.9 351.312 1666.57 352.822 Q1668.26 354.307 1671.15 354.307 Q1675.14 354.307 1677.53 351.494 Q1679.95 348.656 1679.95 343.968 L1679.95 342.9 L1675.19 342.9 M1684.74 340.921 L1684.74 357.562 L1679.95 357.562 L1679.95 353.135 Q1678.31 355.791 1675.86 357.067 Q1673.42 358.317 1669.88 358.317 Q1665.4 358.317 1662.74 355.817 Q1660.11 353.291 1660.11 349.072 Q1660.11 344.15 1663.39 341.65 Q1666.7 339.15 1673.23 339.15 L1679.95 339.15 L1679.95 338.682 Q1679.95 335.374 1677.77 333.578 Q1675.6 331.755 1671.67 331.755 Q1669.17 331.755 1666.8 332.354 Q1664.43 332.953 1662.24 334.15 L1662.24 329.723 Q1664.88 328.708 1667.35 328.213 Q1669.82 327.692 1672.17 327.692 Q1678.49 327.692 1681.62 330.973 Q1684.74 334.255 1684.74 340.921 Z" fill="#000000" fill-rule="nonzero" fill-opacity="1" /><path clip-path="url(#clip030)" d="M1699.35 320.114 L1699.35 328.395 L1709.22 328.395 L1709.22 332.119 L1699.35 332.119 L1699.35 347.953 Q1699.35 351.52 1700.32 352.536 Q1701.31 353.551 1704.3 353.551 L1709.22 353.551 L1709.22 357.562 L1704.3 357.562 Q1698.76 357.562 1696.65 355.505 Q1694.54 353.421 1694.54 347.953 L1694.54 332.119 L1691.02 332.119 L1691.02 328.395 L1694.54 328.395 L1694.54 320.114 L1699.35 320.114 Z" fill="#000000" fill-rule="nonzero" fill-opacity="1" /><path clip-path="url(#clip030)" d="M1740.47 341.781 L1740.47 344.124 L1718.44 344.124 Q1718.75 349.072 1721.41 351.676 Q1724.09 354.255 1728.86 354.255 Q1731.62 354.255 1734.2 353.577 Q1736.8 352.9 1739.35 351.546 L1739.35 356.077 Q1736.78 357.171 1734.07 357.744 Q1731.36 358.317 1728.57 358.317 Q1721.59 358.317 1717.51 354.255 Q1713.44 350.192 1713.44 343.265 Q1713.44 336.104 1717.3 331.911 Q1721.18 327.692 1727.74 327.692 Q1733.62 327.692 1737.04 331.494 Q1740.47 335.27 1740.47 341.781 M1735.68 340.374 Q1735.63 336.442 1733.47 334.098 Q1731.33 331.755 1727.79 331.755 Q1723.78 331.755 1721.36 334.02 Q1718.96 336.286 1718.6 340.4 L1735.68 340.374 Z" fill="#000000" fill-rule="nonzero" fill-opacity="1" /><path clip-path="url(#clip030)" d="M1767.53 332.822 L1767.53 317.041 L1772.32 317.041 L1772.32 357.562 L1767.53 357.562 L1767.53 353.187 Q1766.02 355.791 1763.7 357.067 Q1761.41 358.317 1758.18 358.317 Q1752.9 358.317 1749.56 354.098 Q1746.25 349.88 1746.25 343.005 Q1746.25 336.13 1749.56 331.911 Q1752.9 327.692 1758.18 327.692 Q1761.41 327.692 1763.7 328.968 Q1766.02 330.218 1767.53 332.822 M1751.2 343.005 Q1751.2 348.291 1753.36 351.312 Q1755.55 354.307 1759.35 354.307 Q1763.16 354.307 1765.34 351.312 Q1767.53 348.291 1767.53 343.005 Q1767.53 337.718 1765.34 334.723 Q1763.16 331.703 1759.35 331.703 Q1755.55 331.703 1753.36 334.723 Q1751.2 337.718 1751.2 343.005 Z" fill="#000000" fill-rule="nonzero" fill-opacity="1" /><path clip-path="url(#clip030)" d="M1821.85 333.994 Q1823.65 330.765 1826.15 329.229 Q1828.65 327.692 1832.04 327.692 Q1836.59 327.692 1839.07 330.895 Q1841.54 334.072 1841.54 339.958 L1841.54 357.562 L1836.72 357.562 L1836.72 340.114 Q1836.72 335.921 1835.24 333.89 Q1833.75 331.859 1830.71 331.859 Q1826.98 331.859 1824.82 334.333 Q1822.66 336.807 1822.66 341.078 L1822.66 357.562 L1817.84 357.562 L1817.84 340.114 Q1817.84 335.895 1816.36 333.89 Q1814.87 331.859 1811.78 331.859 Q1808.1 331.859 1805.94 334.359 Q1803.78 336.833 1803.78 341.078 L1803.78 357.562 L1798.96 357.562 L1798.96 328.395 L1803.78 328.395 L1803.78 332.927 Q1805.42 330.244 1807.71 328.968 Q1810 327.692 1813.16 327.692 Q1816.33 327.692 1818.55 329.307 Q1820.79 330.921 1821.85 333.994 Z" fill="#000000" fill-rule="nonzero" fill-opacity="1" /><path clip-path="url(#clip030)" d="M1876.05 341.781 L1876.05 344.124 L1854.01 344.124 Q1854.33 349.072 1856.98 351.676 Q1859.67 354.255 1864.43 354.255 Q1867.19 354.255 1869.77 353.577 Q1872.37 352.9 1874.93 351.546 L1874.93 356.077 Q1872.35 357.171 1869.64 357.744 Q1866.93 358.317 1864.14 358.317 Q1857.17 358.317 1853.08 354.255 Q1849.01 350.192 1849.01 343.265 Q1849.01 336.104 1852.87 331.911 Q1856.75 327.692 1863.31 327.692 Q1869.2 327.692 1872.61 331.494 Q1876.05 335.27 1876.05 341.781 M1871.25 340.374 Q1871.2 336.442 1869.04 334.098 Q1866.91 331.755 1863.36 331.755 Q1859.35 331.755 1856.93 334.02 Q1854.54 336.286 1854.17 340.4 L1871.25 340.374 Z" fill="#000000" fill-rule="nonzero" fill-opacity="1" /><path clip-path="url(#clip030)" d="M1903.1 332.822 L1903.1 317.041 L1907.89 317.041 L1907.89 357.562 L1903.1 357.562 L1903.1 353.187 Q1901.59 355.791 1899.27 357.067 Q1896.98 358.317 1893.75 358.317 Q1888.47 358.317 1885.13 354.098 Q1881.83 349.88 1881.83 343.005 Q1881.83 336.13 1885.13 331.911 Q1888.47 327.692 1893.75 327.692 Q1896.98 327.692 1899.27 328.968 Q1901.59 330.218 1903.1 332.822 M1886.77 343.005 Q1886.77 348.291 1888.94 351.312 Q1891.12 354.307 1894.93 354.307 Q1898.73 354.307 1900.92 351.312 Q1903.1 348.291 1903.1 343.005 Q1903.1 337.718 1900.92 334.723 Q1898.73 331.703 1894.93 331.703 Q1891.12 331.703 1888.94 334.723 Q1886.77 337.718 1886.77 343.005 Z" fill="#000000" fill-rule="nonzero" fill-opacity="1" /><path clip-path="url(#clip030)" d="M1917.76 328.395 L1922.56 328.395 L1922.56 357.562 L1917.76 357.562 L1917.76 328.395 M1917.76 317.041 L1922.56 317.041 L1922.56 323.109 L1917.76 323.109 L1917.76 317.041 Z" fill="#000000" fill-rule="nonzero" fill-opacity="1" /><path clip-path="url(#clip030)" d="M1945.84 342.9 Q1940.03 342.9 1937.79 344.229 Q1935.55 345.557 1935.55 348.76 Q1935.55 351.312 1937.22 352.822 Q1938.91 354.307 1941.8 354.307 Q1945.79 354.307 1948.18 351.494 Q1950.6 348.656 1950.6 343.968 L1950.6 342.9 L1945.84 342.9 M1955.39 340.921 L1955.39 357.562 L1950.6 357.562 L1950.6 353.135 Q1948.96 355.791 1946.51 357.067 Q1944.07 358.317 1940.52 358.317 Q1936.05 358.317 1933.39 355.817 Q1930.76 353.291 1930.76 349.072 Q1930.76 344.15 1934.04 341.65 Q1937.35 339.15 1943.88 339.15 L1950.6 339.15 L1950.6 338.682 Q1950.6 335.374 1948.42 333.578 Q1946.25 331.755 1942.32 331.755 Q1939.82 331.755 1937.45 332.354 Q1935.08 332.953 1932.89 334.15 L1932.89 329.723 Q1935.52 328.708 1938 328.213 Q1940.47 327.692 1942.82 327.692 Q1949.14 327.692 1952.27 330.973 Q1955.39 334.255 1955.39 340.921 Z" fill="#000000" fill-rule="nonzero" fill-opacity="1" /><path clip-path="url(#clip030)" d="M1989.51 339.958 L1989.51 357.562 L1984.72 357.562 L1984.72 340.114 Q1984.72 335.973 1983.1 333.916 Q1981.49 331.859 1978.26 331.859 Q1974.38 331.859 1972.14 334.333 Q1969.9 336.807 1969.9 341.078 L1969.9 357.562 L1965.08 357.562 L1965.08 328.395 L1969.9 328.395 L1969.9 332.927 Q1971.62 330.296 1973.94 328.994 Q1976.28 327.692 1979.33 327.692 Q1984.35 327.692 1986.93 330.817 Q1989.51 333.916 1989.51 339.958 Z" fill="#000000" fill-rule="nonzero" fill-opacity="1" /></svg>
