<?xml version="1.0" encoding="utf-8"?>
<svg xmlns="http://www.w3.org/2000/svg" xmlns:xlink="http://www.w3.org/1999/xlink" width="600" height="400" viewBox="0 0 2400 1600">
<defs>
  <clipPath id="clip620">
    <rect x="0" y="0" width="2400" height="1600"/>
  </clipPath>
</defs>
<path clip-path="url(#clip620)" d="M0 1600 L2400 1600 L2400 8.88178e-14 L0 8.88178e-14  Z" fill="#ffffff" fill-rule="evenodd" fill-opacity="1"/>
<defs>
  <clipPath id="clip621">
    <rect x="586" y="0" width="1423" height="1247"/>
  </clipPath>
</defs>
<path clip-path="url(#clip620)" d="M479.087 1241.31 L2274.02 1241.31 L2274.02 180.612 L479.087 180.612  Z" fill="#ffffff" fill-rule="evenodd" fill-opacity="1"/>
<defs>
  <clipPath id="clip622">
    <rect x="479" y="180" width="1796" height="1062"/>
  </clipPath>
</defs>
<polyline clip-path="url(#clip622)" style="stroke:#000000; stroke-linecap:round; stroke-linejoin:round; stroke-width:2; stroke-opacity:0.1; fill:none" points="523.964,1241.31 523.964,180.612 "/>
<polyline clip-path="url(#clip622)" style="stroke:#000000; stroke-linecap:round; stroke-linejoin:round; stroke-width:2; stroke-opacity:0.1; fill:none" points="972.694,1241.31 972.694,180.612 "/>
<polyline clip-path="url(#clip622)" style="stroke:#000000; stroke-linecap:round; stroke-linejoin:round; stroke-width:2; stroke-opacity:0.1; fill:none" points="1421.42,1241.31 1421.42,180.612 "/>
<polyline clip-path="url(#clip622)" style="stroke:#000000; stroke-linecap:round; stroke-linejoin:round; stroke-width:2; stroke-opacity:0.1; fill:none" points="1870.15,1241.31 1870.15,180.612 "/>
<polyline clip-path="url(#clip622)" style="stroke:#000000; stroke-linecap:round; stroke-linejoin:round; stroke-width:2; stroke-opacity:0.1; fill:none" points="479.087,1241.31 2274.02,1241.31 "/>
<polyline clip-path="url(#clip622)" style="stroke:#000000; stroke-linecap:round; stroke-linejoin:round; stroke-width:2; stroke-opacity:0.1; fill:none" points="479.087,1056.22 2274.02,1056.22 "/>
<polyline clip-path="url(#clip622)" style="stroke:#000000; stroke-linecap:round; stroke-linejoin:round; stroke-width:2; stroke-opacity:0.1; fill:none" points="479.087,871.121 2274.02,871.121 "/>
<polyline clip-path="url(#clip622)" style="stroke:#000000; stroke-linecap:round; stroke-linejoin:round; stroke-width:2; stroke-opacity:0.1; fill:none" points="479.087,686.026 2274.02,686.026 "/>
<polyline clip-path="url(#clip622)" style="stroke:#000000; stroke-linecap:round; stroke-linejoin:round; stroke-width:2; stroke-opacity:0.1; fill:none" points="479.087,500.93 2274.02,500.93 "/>
<polyline clip-path="url(#clip622)" style="stroke:#000000; stroke-linecap:round; stroke-linejoin:round; stroke-width:2; stroke-opacity:0.1; fill:none" points="479.087,315.835 2274.02,315.835 "/>
<polyline clip-path="url(#clip620)" style="stroke:#000000; stroke-linecap:round; stroke-linejoin:round; stroke-width:4; stroke-opacity:1; fill:none" points="479.087,1241.31 2274.02,1241.31 "/>
<polyline clip-path="url(#clip620)" style="stroke:#000000; stroke-linecap:round; stroke-linejoin:round; stroke-width:4; stroke-opacity:1; fill:none" points="523.964,1241.31 523.964,1222.41 "/>
<polyline clip-path="url(#clip620)" style="stroke:#000000; stroke-linecap:round; stroke-linejoin:round; stroke-width:4; stroke-opacity:1; fill:none" points="972.694,1241.31 972.694,1222.41 "/>
<polyline clip-path="url(#clip620)" style="stroke:#000000; stroke-linecap:round; stroke-linejoin:round; stroke-width:4; stroke-opacity:1; fill:none" points="1421.42,1241.31 1421.42,1222.41 "/>
<polyline clip-path="url(#clip620)" style="stroke:#000000; stroke-linecap:round; stroke-linejoin:round; stroke-width:4; stroke-opacity:1; fill:none" points="1870.15,1241.31 1870.15,1222.41 "/>
<path clip-path="url(#clip620)" d="M523.964 1275.16 Q519.45 1275.16 517.164 1279.62 Q514.907 1284.04 514.907 1292.95 Q514.907 1301.84 517.164 1306.29 Q519.45 1310.72 523.964 1310.72 Q528.506 1310.72 530.763 1306.29 Q533.049 1301.84 533.049 1292.95 Q533.049 1284.04 530.763 1279.62 Q528.506 1275.16 523.964 1275.16 M523.964 1270.53 Q531.226 1270.53 535.046 1276.29 Q538.894 1282.02 538.894 1292.95 Q538.894 1303.86 535.046 1309.62 Q531.226 1315.35 523.964 1315.35 Q516.701 1315.35 512.852 1309.62 Q509.033 1303.86 509.033 1292.95 Q509.033 1282.02 512.852 1276.29 Q516.701 1270.53 523.964 1270.53 Z" fill="#000000" fill-rule="nonzero" fill-opacity="1" /><path clip-path="url(#clip620)" d="M960.541 1271.31 L983.487 1271.31 L983.487 1276.23 L965.894 1276.23 L965.894 1286.82 Q967.167 1286.39 968.441 1286.18 Q969.714 1285.95 970.987 1285.95 Q978.221 1285.95 982.445 1289.92 Q986.67 1293.88 986.67 1300.65 Q986.67 1307.62 982.329 1311.5 Q977.989 1315.35 970.09 1315.35 Q967.37 1315.35 964.534 1314.89 Q961.728 1314.42 958.718 1313.5 L958.718 1307.62 Q961.322 1309.04 964.1 1309.74 Q966.878 1310.43 969.974 1310.43 Q974.98 1310.43 977.902 1307.8 Q980.825 1305.17 980.825 1300.65 Q980.825 1296.14 977.902 1293.5 Q974.98 1290.87 969.974 1290.87 Q967.63 1290.87 965.287 1291.39 Q962.972 1291.91 960.541 1293.01 L960.541 1271.31 Z" fill="#000000" fill-rule="nonzero" fill-opacity="1" /><path clip-path="url(#clip620)" d="M1389.78 1309.59 L1399.33 1309.59 L1399.33 1276.64 L1388.94 1278.72 L1388.94 1273.39 L1399.27 1271.31 L1405.12 1271.31 L1405.12 1309.59 L1414.67 1309.59 L1414.67 1314.51 L1389.78 1314.51 L1389.78 1309.59 Z" fill="#000000" fill-rule="nonzero" fill-opacity="1" /><path clip-path="url(#clip620)" d="M1438.97 1275.16 Q1434.46 1275.16 1432.17 1279.62 Q1429.92 1284.04 1429.92 1292.95 Q1429.92 1301.84 1432.17 1306.29 Q1434.46 1310.72 1438.97 1310.72 Q1443.52 1310.72 1445.77 1306.29 Q1448.06 1301.84 1448.06 1292.95 Q1448.06 1284.04 1445.77 1279.62 Q1443.52 1275.16 1438.97 1275.16 M1438.97 1270.53 Q1446.24 1270.53 1450.06 1276.29 Q1453.9 1282.02 1453.9 1292.95 Q1453.9 1303.86 1450.06 1309.62 Q1446.24 1315.35 1438.97 1315.35 Q1431.71 1315.35 1427.86 1309.62 Q1424.04 1303.86 1424.04 1292.95 Q1424.04 1282.02 1427.86 1276.29 Q1431.71 1270.53 1438.97 1270.53 Z" fill="#000000" fill-rule="nonzero" fill-opacity="1" /><path clip-path="url(#clip620)" d="M1839.14 1309.59 L1848.68 1309.59 L1848.68 1276.64 L1838.3 1278.72 L1838.3 1273.39 L1848.63 1271.31 L1854.47 1271.31 L1854.47 1309.59 L1864.02 1309.59 L1864.02 1314.51 L1839.14 1314.51 L1839.14 1309.59 Z" fill="#000000" fill-rule="nonzero" fill-opacity="1" /><path clip-path="url(#clip620)" d="M1875.88 1271.31 L1898.83 1271.31 L1898.83 1276.23 L1881.24 1276.23 L1881.24 1286.82 Q1882.51 1286.39 1883.78 1286.18 Q1885.06 1285.95 1886.33 1285.95 Q1893.56 1285.95 1897.79 1289.92 Q1902.01 1293.88 1902.01 1300.65 Q1902.01 1307.62 1897.67 1311.5 Q1893.33 1315.35 1885.43 1315.35 Q1882.71 1315.35 1879.88 1314.89 Q1877.07 1314.42 1874.06 1313.5 L1874.06 1307.62 Q1876.67 1309.04 1879.44 1309.74 Q1882.22 1310.43 1885.32 1310.43 Q1890.32 1310.43 1893.24 1307.8 Q1896.17 1305.17 1896.17 1300.65 Q1896.17 1296.14 1893.24 1293.5 Q1890.32 1290.87 1885.32 1290.87 Q1882.97 1290.87 1880.63 1291.39 Q1878.31 1291.91 1875.88 1293.01 L1875.88 1271.31 Z" fill="#000000" fill-rule="nonzero" fill-opacity="1" /><path clip-path="url(#clip620)" d="M1224.55 1353.18 L1224.55 1359.45 Q1220.89 1357.69 1217.65 1356.84 Q1214.4 1355.98 1211.38 1355.98 Q1206.13 1355.98 1203.26 1358.01 Q1200.43 1360.05 1200.43 1363.81 Q1200.43 1366.96 1202.31 1368.58 Q1204.22 1370.17 1209.5 1371.16 L1213.38 1371.95 Q1220.58 1373.32 1223.98 1376.79 Q1227.42 1380.23 1227.42 1386.02 Q1227.42 1392.93 1222.77 1396.49 Q1218.16 1400.06 1209.21 1400.06 Q1205.84 1400.06 1202.02 1399.29 Q1198.23 1398.53 1194.16 1397.03 L1194.16 1390.41 Q1198.07 1392.61 1201.83 1393.72 Q1205.58 1394.84 1209.21 1394.84 Q1214.72 1394.84 1217.71 1392.67 Q1220.7 1390.51 1220.7 1386.5 Q1220.7 1383 1218.54 1381.03 Q1216.41 1379.05 1211.5 1378.07 L1207.59 1377.3 Q1200.4 1375.87 1197.18 1372.81 Q1193.97 1369.76 1193.97 1364.32 Q1193.97 1358.01 1198.39 1354.38 Q1202.85 1350.76 1210.65 1350.76 Q1213.99 1350.76 1217.46 1351.36 Q1220.93 1351.97 1224.55 1353.18 Z" fill="#000000" fill-rule="nonzero" fill-opacity="1" /><path clip-path="url(#clip620)" d="M1242.98 1353.37 L1242.98 1363.49 L1255.05 1363.49 L1255.05 1368.04 L1242.98 1368.04 L1242.98 1387.39 Q1242.98 1391.75 1244.16 1392.99 Q1245.37 1394.23 1249.03 1394.23 L1255.05 1394.23 L1255.05 1399.14 L1249.03 1399.14 Q1242.25 1399.14 1239.67 1396.62 Q1237.09 1394.07 1237.09 1387.39 L1237.09 1368.04 L1232.8 1368.04 L1232.8 1363.49 L1237.09 1363.49 L1237.09 1353.37 L1242.98 1353.37 Z" fill="#000000" fill-rule="nonzero" fill-opacity="1" /><path clip-path="url(#clip620)" d="M1278.95 1381.22 Q1271.85 1381.22 1269.11 1382.84 Q1266.38 1384.46 1266.38 1388.38 Q1266.38 1391.5 1268.41 1393.34 Q1270.48 1395.16 1274.02 1395.16 Q1278.89 1395.16 1281.81 1391.72 Q1284.77 1388.25 1284.77 1382.52 L1284.77 1381.22 L1278.95 1381.22 M1290.63 1378.8 L1290.63 1399.14 L1284.77 1399.14 L1284.77 1393.72 Q1282.77 1396.97 1279.78 1398.53 Q1276.78 1400.06 1272.46 1400.06 Q1266.98 1400.06 1263.74 1397 Q1260.52 1393.92 1260.52 1388.76 Q1260.52 1382.74 1264.53 1379.69 Q1268.57 1376.63 1276.56 1376.63 L1284.77 1376.63 L1284.77 1376.06 Q1284.77 1372.02 1282.1 1369.82 Q1279.46 1367.59 1274.65 1367.59 Q1271.6 1367.59 1268.7 1368.33 Q1265.8 1369.06 1263.13 1370.52 L1263.13 1365.11 Q1266.35 1363.87 1269.37 1363.26 Q1272.39 1362.63 1275.26 1362.63 Q1282.99 1362.63 1286.81 1366.64 Q1290.63 1370.65 1290.63 1378.8 Z" fill="#000000" fill-rule="nonzero" fill-opacity="1" /><path clip-path="url(#clip620)" d="M1308.49 1353.37 L1308.49 1363.49 L1320.55 1363.49 L1320.55 1368.04 L1308.49 1368.04 L1308.49 1387.39 Q1308.49 1391.75 1309.66 1392.99 Q1310.87 1394.23 1314.53 1394.23 L1320.55 1394.23 L1320.55 1399.14 L1314.53 1399.14 Q1307.75 1399.14 1305.18 1396.62 Q1302.6 1394.07 1302.6 1387.39 L1302.6 1368.04 L1298.3 1368.04 L1298.3 1363.49 L1302.6 1363.49 L1302.6 1353.37 L1308.49 1353.37 Z" fill="#000000" fill-rule="nonzero" fill-opacity="1" /><path clip-path="url(#clip620)" d="M1358.74 1379.85 L1358.74 1382.71 L1331.82 1382.71 Q1332.2 1388.76 1335.44 1391.94 Q1338.72 1395.09 1344.55 1395.09 Q1347.92 1395.09 1351.07 1394.27 Q1354.26 1393.44 1357.37 1391.78 L1357.37 1397.32 Q1354.22 1398.66 1350.91 1399.36 Q1347.6 1400.06 1344.2 1400.06 Q1335.67 1400.06 1330.67 1395.09 Q1325.71 1390.13 1325.71 1381.66 Q1325.71 1372.91 1330.42 1367.78 Q1335.16 1362.63 1343.18 1362.63 Q1350.37 1362.63 1354.54 1367.28 Q1358.74 1371.89 1358.74 1379.85 M1352.89 1378.13 Q1352.82 1373.32 1350.18 1370.46 Q1347.57 1367.59 1343.24 1367.59 Q1338.34 1367.59 1335.38 1370.36 Q1332.45 1373.13 1332.01 1378.16 L1352.89 1378.13 Z" fill="#000000" fill-rule="nonzero" fill-opacity="1" /><path clip-path="url(#clip620)" d="M1389.08 1363.49 L1394.93 1363.49 L1394.93 1399.14 L1389.08 1399.14 L1389.08 1363.49 M1389.08 1349.61 L1394.93 1349.61 L1394.93 1357.03 L1389.08 1357.03 L1389.08 1349.61 Z" fill="#000000" fill-rule="nonzero" fill-opacity="1" /><path clip-path="url(#clip620)" d="M1436.82 1377.62 L1436.82 1399.14 L1430.96 1399.14 L1430.96 1377.81 Q1430.96 1372.75 1428.99 1370.24 Q1427.02 1367.72 1423.07 1367.72 Q1418.33 1367.72 1415.59 1370.74 Q1412.85 1373.77 1412.85 1378.99 L1412.85 1399.14 L1406.96 1399.14 L1406.96 1363.49 L1412.85 1363.49 L1412.85 1369.03 Q1414.95 1365.81 1417.79 1364.22 Q1420.65 1362.63 1424.37 1362.63 Q1430.52 1362.63 1433.67 1366.45 Q1436.82 1370.24 1436.82 1377.62 Z" fill="#000000" fill-rule="nonzero" fill-opacity="1" /><path clip-path="url(#clip620)" d="M1471.96 1368.9 L1471.96 1349.61 L1477.81 1349.61 L1477.81 1399.14 L1471.96 1399.14 L1471.96 1393.79 Q1470.11 1396.97 1467.28 1398.53 Q1464.48 1400.06 1460.53 1400.06 Q1454.07 1400.06 1450 1394.9 Q1445.95 1389.75 1445.95 1381.34 Q1445.95 1372.94 1450 1367.78 Q1454.07 1362.63 1460.53 1362.63 Q1464.48 1362.63 1467.28 1364.19 Q1470.11 1365.72 1471.96 1368.9 M1452 1381.34 Q1452 1387.8 1454.64 1391.5 Q1457.32 1395.16 1461.96 1395.16 Q1466.61 1395.16 1469.28 1391.5 Q1471.96 1387.8 1471.96 1381.34 Q1471.96 1374.88 1469.28 1371.22 Q1466.61 1367.53 1461.96 1367.53 Q1457.32 1367.53 1454.64 1371.22 Q1452 1374.88 1452 1381.34 Z" fill="#000000" fill-rule="nonzero" fill-opacity="1" /><path clip-path="url(#clip620)" d="M1520.37 1379.85 L1520.37 1382.71 L1493.44 1382.71 Q1493.82 1388.76 1497.07 1391.94 Q1500.35 1395.09 1506.17 1395.09 Q1509.55 1395.09 1512.7 1394.27 Q1515.88 1393.44 1519 1391.78 L1519 1397.32 Q1515.85 1398.66 1512.54 1399.36 Q1509.23 1400.06 1505.82 1400.06 Q1497.29 1400.06 1492.3 1395.09 Q1487.33 1390.13 1487.33 1381.66 Q1487.33 1372.91 1492.04 1367.78 Q1496.78 1362.63 1504.8 1362.63 Q1512 1362.63 1516.17 1367.28 Q1520.37 1371.89 1520.37 1379.85 M1514.51 1378.13 Q1514.45 1373.32 1511.81 1370.46 Q1509.2 1367.59 1504.87 1367.59 Q1499.97 1367.59 1497.01 1370.36 Q1494.08 1373.13 1493.63 1378.16 L1514.51 1378.13 Z" fill="#000000" fill-rule="nonzero" fill-opacity="1" /><path clip-path="url(#clip620)" d="M1558.47 1363.49 L1545.58 1380.83 L1559.14 1399.14 L1552.23 1399.14 L1541.85 1385.13 L1531.48 1399.14 L1524.57 1399.14 L1538.42 1380.48 L1525.75 1363.49 L1532.65 1363.49 L1542.11 1376.19 L1551.56 1363.49 L1558.47 1363.49 Z" fill="#000000" fill-rule="nonzero" fill-opacity="1" /><polyline clip-path="url(#clip620)" style="stroke:#000000; stroke-linecap:round; stroke-linejoin:round; stroke-width:4; stroke-opacity:1; fill:none" points="479.087,1241.31 479.087,180.612 "/>
<polyline clip-path="url(#clip620)" style="stroke:#000000; stroke-linecap:round; stroke-linejoin:round; stroke-width:4; stroke-opacity:1; fill:none" points="479.087,1241.31 497.985,1241.31 "/>
<polyline clip-path="url(#clip620)" style="stroke:#000000; stroke-linecap:round; stroke-linejoin:round; stroke-width:4; stroke-opacity:1; fill:none" points="479.087,1056.22 497.985,1056.22 "/>
<polyline clip-path="url(#clip620)" style="stroke:#000000; stroke-linecap:round; stroke-linejoin:round; stroke-width:4; stroke-opacity:1; fill:none" points="479.087,871.121 497.985,871.121 "/>
<polyline clip-path="url(#clip620)" style="stroke:#000000; stroke-linecap:round; stroke-linejoin:round; stroke-width:4; stroke-opacity:1; fill:none" points="479.087,686.026 497.985,686.026 "/>
<polyline clip-path="url(#clip620)" style="stroke:#000000; stroke-linecap:round; stroke-linejoin:round; stroke-width:4; stroke-opacity:1; fill:none" points="479.087,500.93 497.985,500.93 "/>
<polyline clip-path="url(#clip620)" style="stroke:#000000; stroke-linecap:round; stroke-linejoin:round; stroke-width:4; stroke-opacity:1; fill:none" points="479.087,315.835 497.985,315.835 "/>
<path clip-path="url(#clip620)" d="M333.915 1223.56 Q329.401 1223.56 327.115 1228.02 Q324.858 1232.44 324.858 1241.35 Q324.858 1250.24 327.115 1254.69 Q329.401 1259.12 333.915 1259.12 Q338.458 1259.12 340.715 1254.69 Q343.001 1250.24 343.001 1241.35 Q343.001 1232.44 340.715 1228.02 Q338.458 1223.56 333.915 1223.56 M333.915 1218.93 Q341.178 1218.93 344.997 1224.69 Q348.846 1230.42 348.846 1241.35 Q348.846 1252.26 344.997 1258.02 Q341.178 1263.75 333.915 1263.75 Q326.652 1263.75 322.804 1258.02 Q318.985 1252.26 318.985 1241.35 Q318.985 1230.42 322.804 1224.69 Q326.652 1218.93 333.915 1218.93 Z" fill="#000000" fill-rule="nonzero" fill-opacity="1" /><path clip-path="url(#clip620)" d="M359.117 1255.56 L365.223 1255.56 L365.223 1262.91 L359.117 1262.91 L359.117 1255.56 Z" fill="#000000" fill-rule="nonzero" fill-opacity="1" /><path clip-path="url(#clip620)" d="M390.454 1223.56 Q385.94 1223.56 383.654 1228.02 Q381.397 1232.44 381.397 1241.35 Q381.397 1250.24 383.654 1254.69 Q385.94 1259.12 390.454 1259.12 Q394.997 1259.12 397.254 1254.69 Q399.54 1250.24 399.54 1241.35 Q399.54 1232.44 397.254 1228.02 Q394.997 1223.56 390.454 1223.56 M390.454 1218.93 Q397.717 1218.93 401.536 1224.69 Q405.385 1230.42 405.385 1241.35 Q405.385 1252.26 401.536 1258.02 Q397.717 1263.75 390.454 1263.75 Q383.191 1263.75 379.343 1258.02 Q375.524 1252.26 375.524 1241.35 Q375.524 1230.42 379.343 1224.69 Q383.191 1218.93 390.454 1218.93 Z" fill="#000000" fill-rule="nonzero" fill-opacity="1" /><path clip-path="url(#clip620)" d="M428.156 1223.56 Q423.643 1223.56 421.357 1228.02 Q419.1 1232.44 419.1 1241.35 Q419.1 1250.24 421.357 1254.69 Q423.643 1259.12 428.156 1259.12 Q432.699 1259.12 434.956 1254.69 Q437.242 1250.24 437.242 1241.35 Q437.242 1232.44 434.956 1228.02 Q432.699 1223.56 428.156 1223.56 M428.156 1218.93 Q435.419 1218.93 439.239 1224.69 Q443.087 1230.42 443.087 1241.35 Q443.087 1252.26 439.239 1258.02 Q435.419 1263.75 428.156 1263.75 Q420.894 1263.75 417.045 1258.02 Q413.226 1252.26 413.226 1241.35 Q413.226 1230.42 417.045 1224.69 Q420.894 1218.93 428.156 1218.93 Z" fill="#000000" fill-rule="nonzero" fill-opacity="1" /><path clip-path="url(#clip620)" d="M335.159 1038.46 Q330.645 1038.46 328.36 1042.92 Q326.103 1047.35 326.103 1056.26 Q326.103 1065.14 328.36 1069.6 Q330.645 1074.03 335.159 1074.03 Q339.702 1074.03 341.959 1069.6 Q344.245 1065.14 344.245 1056.26 Q344.245 1047.35 341.959 1042.92 Q339.702 1038.46 335.159 1038.46 M335.159 1033.83 Q342.422 1033.83 346.241 1039.59 Q350.09 1045.32 350.09 1056.26 Q350.09 1067.17 346.241 1072.93 Q342.422 1078.66 335.159 1078.66 Q327.897 1078.66 324.048 1072.93 Q320.229 1067.17 320.229 1056.26 Q320.229 1045.32 324.048 1039.59 Q327.897 1033.83 335.159 1033.83 Z" fill="#000000" fill-rule="nonzero" fill-opacity="1" /><path clip-path="url(#clip620)" d="M360.362 1070.47 L366.467 1070.47 L366.467 1077.82 L360.362 1077.82 L360.362 1070.47 Z" fill="#000000" fill-rule="nonzero" fill-opacity="1" /><path clip-path="url(#clip620)" d="M391.698 1038.46 Q387.184 1038.46 384.899 1042.92 Q382.642 1047.35 382.642 1056.26 Q382.642 1065.14 384.899 1069.6 Q387.184 1074.03 391.698 1074.03 Q396.241 1074.03 398.498 1069.6 Q400.784 1065.14 400.784 1056.26 Q400.784 1047.35 398.498 1042.92 Q396.241 1038.46 391.698 1038.46 M391.698 1033.83 Q398.961 1033.83 402.78 1039.59 Q406.629 1045.32 406.629 1056.26 Q406.629 1067.17 402.78 1072.93 Q398.961 1078.66 391.698 1078.66 Q384.436 1078.66 380.587 1072.93 Q376.768 1067.17 376.768 1056.26 Q376.768 1045.32 380.587 1039.59 Q384.436 1033.83 391.698 1033.83 Z" fill="#000000" fill-rule="nonzero" fill-opacity="1" /><path clip-path="url(#clip620)" d="M416.959 1034.62 L439.904 1034.62 L439.904 1039.54 L422.312 1039.54 L422.312 1050.13 Q423.585 1049.69 424.858 1049.49 Q426.131 1049.26 427.404 1049.26 Q434.638 1049.26 438.862 1053.22 Q443.087 1057.19 443.087 1063.96 Q443.087 1070.93 438.747 1074.81 Q434.406 1078.66 426.507 1078.66 Q423.787 1078.66 420.952 1078.19 Q418.145 1077.73 415.136 1076.8 L415.136 1070.93 Q417.74 1072.35 420.518 1073.04 Q423.295 1073.74 426.391 1073.74 Q431.397 1073.74 434.32 1071.1 Q437.242 1068.47 437.242 1063.96 Q437.242 1059.44 434.32 1056.81 Q431.397 1054.18 426.391 1054.18 Q424.048 1054.18 421.704 1054.7 Q419.389 1055.22 416.959 1056.32 L416.959 1034.62 Z" fill="#000000" fill-rule="nonzero" fill-opacity="1" /><path clip-path="url(#clip620)" d="M333.915 853.369 Q329.401 853.369 327.115 857.825 Q324.858 862.252 324.858 871.164 Q324.858 880.047 327.115 884.503 Q329.401 888.93 333.915 888.93 Q338.458 888.93 340.715 884.503 Q343.001 880.047 343.001 871.164 Q343.001 862.252 340.715 857.825 Q338.458 853.369 333.915 853.369 M333.915 848.74 Q341.178 848.74 344.997 854.498 Q348.846 860.227 348.846 871.164 Q348.846 882.073 344.997 887.831 Q341.178 893.56 333.915 893.56 Q326.652 893.56 322.804 887.831 Q318.985 882.073 318.985 871.164 Q318.985 860.227 322.804 854.498 Q326.652 848.74 333.915 848.74 Z" fill="#000000" fill-rule="nonzero" fill-opacity="1" /><path clip-path="url(#clip620)" d="M359.117 885.371 L365.223 885.371 L365.223 892.721 L359.117 892.721 L359.117 885.371 Z" fill="#000000" fill-rule="nonzero" fill-opacity="1" /><path clip-path="url(#clip620)" d="M378.967 887.802 L388.515 887.802 L388.515 854.845 L378.128 856.928 L378.128 851.604 L388.458 849.521 L394.302 849.521 L394.302 887.802 L403.851 887.802 L403.851 892.721 L378.967 892.721 L378.967 887.802 Z" fill="#000000" fill-rule="nonzero" fill-opacity="1" /><path clip-path="url(#clip620)" d="M428.156 853.369 Q423.643 853.369 421.357 857.825 Q419.1 862.252 419.1 871.164 Q419.1 880.047 421.357 884.503 Q423.643 888.93 428.156 888.93 Q432.699 888.93 434.956 884.503 Q437.242 880.047 437.242 871.164 Q437.242 862.252 434.956 857.825 Q432.699 853.369 428.156 853.369 M428.156 848.74 Q435.419 848.74 439.239 854.498 Q443.087 860.227 443.087 871.164 Q443.087 882.073 439.239 887.831 Q435.419 893.56 428.156 893.56 Q420.894 893.56 417.045 887.831 Q413.226 882.073 413.226 871.164 Q413.226 860.227 417.045 854.498 Q420.894 848.74 428.156 848.74 Z" fill="#000000" fill-rule="nonzero" fill-opacity="1" /><path clip-path="url(#clip620)" d="M335.159 668.274 Q330.645 668.274 328.36 672.73 Q326.103 677.157 326.103 686.069 Q326.103 694.952 328.36 699.408 Q330.645 703.835 335.159 703.835 Q339.702 703.835 341.959 699.408 Q344.245 694.952 344.245 686.069 Q344.245 677.157 341.959 672.73 Q339.702 668.274 335.159 668.274 M335.159 663.644 Q342.422 663.644 346.241 669.402 Q350.09 675.132 350.09 686.069 Q350.09 696.978 346.241 702.736 Q342.422 708.465 335.159 708.465 Q327.897 708.465 324.048 702.736 Q320.229 696.978 320.229 686.069 Q320.229 675.132 324.048 669.402 Q327.897 663.644 335.159 663.644 Z" fill="#000000" fill-rule="nonzero" fill-opacity="1" /><path clip-path="url(#clip620)" d="M360.362 700.276 L366.467 700.276 L366.467 707.626 L360.362 707.626 L360.362 700.276 Z" fill="#000000" fill-rule="nonzero" fill-opacity="1" /><path clip-path="url(#clip620)" d="M380.211 702.707 L389.76 702.707 L389.76 669.75 L379.372 671.833 L379.372 666.509 L389.702 664.426 L395.547 664.426 L395.547 702.707 L405.095 702.707 L405.095 707.626 L380.211 707.626 L380.211 702.707 Z" fill="#000000" fill-rule="nonzero" fill-opacity="1" /><path clip-path="url(#clip620)" d="M416.959 664.426 L439.904 664.426 L439.904 669.345 L422.312 669.345 L422.312 679.935 Q423.585 679.501 424.858 679.298 Q426.131 679.067 427.404 679.067 Q434.638 679.067 438.862 683.031 Q443.087 686.995 443.087 693.766 Q443.087 700.739 438.747 704.616 Q434.406 708.465 426.507 708.465 Q423.787 708.465 420.952 708.002 Q418.145 707.539 415.136 706.613 L415.136 700.739 Q417.74 702.157 420.518 702.851 Q423.295 703.546 426.391 703.546 Q431.397 703.546 434.32 700.913 Q437.242 698.28 437.242 693.766 Q437.242 689.252 434.32 686.619 Q431.397 683.986 426.391 683.986 Q424.048 683.986 421.704 684.507 Q419.389 685.027 416.959 686.127 L416.959 664.426 Z" fill="#000000" fill-rule="nonzero" fill-opacity="1" /><path clip-path="url(#clip620)" d="M333.915 483.179 Q329.401 483.179 327.115 487.635 Q324.858 492.062 324.858 500.974 Q324.858 509.857 327.115 514.313 Q329.401 518.74 333.915 518.74 Q338.458 518.74 340.715 514.313 Q343.001 509.857 343.001 500.974 Q343.001 492.062 340.715 487.635 Q338.458 483.179 333.915 483.179 M333.915 478.549 Q341.178 478.549 344.997 484.307 Q348.846 490.036 348.846 500.974 Q348.846 511.882 344.997 517.64 Q341.178 523.369 333.915 523.369 Q326.652 523.369 322.804 517.64 Q318.985 511.882 318.985 500.974 Q318.985 490.036 322.804 484.307 Q326.652 478.549 333.915 478.549 Z" fill="#000000" fill-rule="nonzero" fill-opacity="1" /><path clip-path="url(#clip620)" d="M359.117 515.181 L365.223 515.181 L365.223 522.53 L359.117 522.53 L359.117 515.181 Z" fill="#000000" fill-rule="nonzero" fill-opacity="1" /><path clip-path="url(#clip620)" d="M382.989 517.611 L403.388 517.611 L403.388 522.53 L375.958 522.53 L375.958 517.611 Q379.285 514.168 385.014 508.381 Q390.772 502.565 392.248 500.887 Q395.055 497.733 396.154 495.563 Q397.283 493.364 397.283 491.252 Q397.283 487.808 394.852 485.638 Q392.451 483.468 388.573 483.468 Q385.824 483.468 382.757 484.423 Q379.719 485.378 376.247 487.316 L376.247 481.414 Q379.777 479.996 382.844 479.272 Q385.911 478.549 388.458 478.549 Q395.171 478.549 399.164 481.906 Q403.157 485.262 403.157 490.875 Q403.157 493.537 402.144 495.939 Q401.16 498.312 398.527 501.552 Q397.804 502.392 393.926 506.413 Q390.049 510.407 382.989 517.611 Z" fill="#000000" fill-rule="nonzero" fill-opacity="1" /><path clip-path="url(#clip620)" d="M428.156 483.179 Q423.643 483.179 421.357 487.635 Q419.1 492.062 419.1 500.974 Q419.1 509.857 421.357 514.313 Q423.643 518.74 428.156 518.74 Q432.699 518.74 434.956 514.313 Q437.242 509.857 437.242 500.974 Q437.242 492.062 434.956 487.635 Q432.699 483.179 428.156 483.179 M428.156 478.549 Q435.419 478.549 439.239 484.307 Q443.087 490.036 443.087 500.974 Q443.087 511.882 439.239 517.64 Q435.419 523.369 428.156 523.369 Q420.894 523.369 417.045 517.64 Q413.226 511.882 413.226 500.974 Q413.226 490.036 417.045 484.307 Q420.894 478.549 428.156 478.549 Z" fill="#000000" fill-rule="nonzero" fill-opacity="1" /><path clip-path="url(#clip620)" d="M335.159 298.083 Q330.645 298.083 328.36 302.539 Q326.103 306.966 326.103 315.878 Q326.103 324.761 328.36 329.217 Q330.645 333.645 335.159 333.645 Q339.702 333.645 341.959 329.217 Q344.245 324.761 344.245 315.878 Q344.245 306.966 341.959 302.539 Q339.702 298.083 335.159 298.083 M335.159 293.454 Q342.422 293.454 346.241 299.212 Q350.09 304.941 350.09 315.878 Q350.09 326.787 346.241 332.545 Q342.422 338.274 335.159 338.274 Q327.897 338.274 324.048 332.545 Q320.229 326.787 320.229 315.878 Q320.229 304.941 324.048 299.212 Q327.897 293.454 335.159 293.454 Z" fill="#000000" fill-rule="nonzero" fill-opacity="1" /><path clip-path="url(#clip620)" d="M360.362 330.086 L366.467 330.086 L366.467 337.435 L360.362 337.435 L360.362 330.086 Z" fill="#000000" fill-rule="nonzero" fill-opacity="1" /><path clip-path="url(#clip620)" d="M384.233 332.516 L404.632 332.516 L404.632 337.435 L377.202 337.435 L377.202 332.516 Q380.529 329.073 386.259 323.286 Q392.017 317.47 393.492 315.792 Q396.299 312.638 397.398 310.468 Q398.527 308.268 398.527 306.156 Q398.527 302.713 396.096 300.543 Q393.695 298.373 389.818 298.373 Q387.069 298.373 384.002 299.328 Q380.963 300.282 377.491 302.221 L377.491 296.318 Q381.021 294.901 384.088 294.177 Q387.155 293.454 389.702 293.454 Q396.415 293.454 400.408 296.81 Q404.401 300.167 404.401 305.78 Q404.401 308.442 403.388 310.844 Q402.404 313.216 399.771 316.457 Q399.048 317.296 395.171 321.318 Q391.293 325.311 384.233 332.516 Z" fill="#000000" fill-rule="nonzero" fill-opacity="1" /><path clip-path="url(#clip620)" d="M416.959 294.235 L439.904 294.235 L439.904 299.154 L422.312 299.154 L422.312 309.744 Q423.585 309.31 424.858 309.108 Q426.131 308.876 427.404 308.876 Q434.638 308.876 438.862 312.84 Q443.087 316.804 443.087 323.575 Q443.087 330.548 438.747 334.426 Q434.406 338.274 426.507 338.274 Q423.787 338.274 420.952 337.811 Q418.145 337.348 415.136 336.422 L415.136 330.548 Q417.74 331.966 420.518 332.661 Q423.295 333.355 426.391 333.355 Q431.397 333.355 434.32 330.722 Q437.242 328.089 437.242 323.575 Q437.242 319.061 434.32 316.428 Q431.397 313.795 426.391 313.795 Q424.048 313.795 421.704 314.316 Q419.389 314.837 416.959 315.936 L416.959 294.235 Z" fill="#000000" fill-rule="nonzero" fill-opacity="1" /><path clip-path="url(#clip620)" d="M222.768 1106.19 L229.038 1106.19 Q227.288 1109.85 226.428 1113.1 Q225.569 1116.35 225.569 1119.37 Q225.569 1124.62 227.606 1127.49 Q229.643 1130.32 233.399 1130.32 Q236.55 1130.32 238.173 1128.44 Q239.765 1126.53 240.751 1121.25 L241.547 1117.36 Q242.916 1110.17 246.385 1106.77 Q249.822 1103.33 255.615 1103.33 Q262.522 1103.33 266.087 1107.98 Q269.652 1112.59 269.652 1121.53 Q269.652 1124.91 268.888 1128.73 Q268.124 1132.51 266.628 1136.59 L260.008 1136.59 Q262.204 1132.67 263.318 1128.92 Q264.432 1125.16 264.432 1121.53 Q264.432 1116.03 262.267 1113.04 Q260.103 1110.04 256.093 1110.04 Q252.592 1110.04 250.618 1112.21 Q248.645 1114.34 247.658 1119.24 L246.894 1123.16 Q245.462 1130.35 242.406 1133.57 Q239.351 1136.78 233.908 1136.78 Q227.606 1136.78 223.978 1132.36 Q220.349 1127.9 220.349 1120.1 Q220.349 1116.76 220.954 1113.29 Q221.559 1109.82 222.768 1106.19 Z" fill="#000000" fill-rule="nonzero" fill-opacity="1" /><path clip-path="url(#clip620)" d="M222.959 1087.76 L233.081 1087.76 L233.081 1075.7 L237.632 1075.7 L237.632 1087.76 L256.984 1087.76 Q261.344 1087.76 262.586 1086.59 Q263.827 1085.38 263.827 1081.72 L263.827 1075.7 L268.729 1075.7 L268.729 1081.72 Q268.729 1088.5 266.214 1091.07 Q263.668 1093.65 256.984 1093.65 L237.632 1093.65 L237.632 1097.95 L233.081 1097.95 L233.081 1093.65 L222.959 1093.65 L222.959 1087.76 Z" fill="#000000" fill-rule="nonzero" fill-opacity="1" /><path clip-path="url(#clip620)" d="M250.809 1051.8 Q250.809 1058.9 252.432 1061.63 Q254.056 1064.37 257.971 1064.37 Q261.09 1064.37 262.936 1062.33 Q264.75 1060.26 264.75 1056.73 Q264.75 1051.86 261.313 1048.93 Q257.843 1045.97 252.114 1045.97 L250.809 1045.97 L250.809 1051.8 M248.39 1040.12 L268.729 1040.12 L268.729 1045.97 L263.318 1045.97 Q266.564 1047.98 268.124 1050.97 Q269.652 1053.96 269.652 1058.29 Q269.652 1063.77 266.596 1067.01 Q263.509 1070.23 258.352 1070.23 Q252.337 1070.23 249.281 1066.22 Q246.226 1062.17 246.226 1054.18 L246.226 1045.97 L245.653 1045.97 Q241.611 1045.97 239.414 1048.65 Q237.186 1051.29 237.186 1056.09 Q237.186 1059.15 237.919 1062.05 Q238.651 1064.94 240.115 1067.62 L234.704 1067.62 Q233.463 1064.4 232.858 1061.38 Q232.221 1058.35 232.221 1055.49 Q232.221 1047.76 236.232 1043.94 Q240.242 1040.12 248.39 1040.12 Z" fill="#000000" fill-rule="nonzero" fill-opacity="1" /><path clip-path="url(#clip620)" d="M222.959 1022.26 L233.081 1022.26 L233.081 1010.2 L237.632 1010.2 L237.632 1022.26 L256.984 1022.26 Q261.344 1022.26 262.586 1021.08 Q263.827 1019.87 263.827 1016.21 L263.827 1010.2 L268.729 1010.2 L268.729 1016.21 Q268.729 1022.99 266.214 1025.57 Q263.668 1028.15 256.984 1028.15 L237.632 1028.15 L237.632 1032.45 L233.081 1032.45 L233.081 1028.15 L222.959 1028.15 L222.959 1022.26 Z" fill="#000000" fill-rule="nonzero" fill-opacity="1" /><path clip-path="url(#clip620)" d="M233.081 1002.5 L233.081 996.639 L268.729 996.639 L268.729 1002.5 L233.081 1002.5 M219.203 1002.5 L219.203 996.639 L226.619 996.639 L226.619 1002.5 L219.203 1002.5 Z" fill="#000000" fill-rule="nonzero" fill-opacity="1" /><path clip-path="url(#clip620)" d="M237.186 970.571 Q237.186 975.282 240.879 978.019 Q244.539 980.756 250.936 980.756 Q257.334 980.756 261.026 978.051 Q264.686 975.314 264.686 970.571 Q264.686 965.893 260.994 963.155 Q257.302 960.418 250.936 960.418 Q244.603 960.418 240.91 963.155 Q237.186 965.893 237.186 970.571 M232.221 970.571 Q232.221 962.932 237.186 958.572 Q242.152 954.211 250.936 954.211 Q259.689 954.211 264.686 958.572 Q269.652 962.932 269.652 970.571 Q269.652 978.242 264.686 982.603 Q259.689 986.931 250.936 986.931 Q242.152 986.931 237.186 982.603 Q232.221 978.242 232.221 970.571 Z" fill="#000000" fill-rule="nonzero" fill-opacity="1" /><path clip-path="url(#clip620)" d="M247.212 914.871 L268.729 914.871 L268.729 920.728 L247.403 920.728 Q242.343 920.728 239.828 922.701 Q237.314 924.675 237.314 928.621 Q237.314 933.364 240.338 936.101 Q243.361 938.838 248.581 938.838 L268.729 938.838 L268.729 944.727 L233.081 944.727 L233.081 938.838 L238.619 938.838 Q235.404 936.738 233.813 933.905 Q232.221 931.04 232.221 927.316 Q232.221 921.173 236.041 918.022 Q239.828 914.871 247.212 914.871 Z" fill="#000000" fill-rule="nonzero" fill-opacity="1" /><path clip-path="url(#clip620)" d="M250.809 886.99 Q250.809 894.087 252.432 896.825 Q254.056 899.562 257.971 899.562 Q261.09 899.562 262.936 897.525 Q264.75 895.456 264.75 891.923 Q264.75 887.053 261.313 884.125 Q257.843 881.165 252.114 881.165 L250.809 881.165 L250.809 886.99 M248.39 875.309 L268.729 875.309 L268.729 881.165 L263.318 881.165 Q266.564 883.17 268.124 886.162 Q269.652 889.154 269.652 893.483 Q269.652 898.957 266.596 902.204 Q263.509 905.418 258.352 905.418 Q252.337 905.418 249.281 901.408 Q246.226 897.366 246.226 889.377 L246.226 881.165 L245.653 881.165 Q241.611 881.165 239.414 883.839 Q237.186 886.48 237.186 891.286 Q237.186 894.342 237.919 897.238 Q238.651 900.135 240.115 902.808 L234.704 902.808 Q233.463 899.594 232.858 896.57 Q232.221 893.546 232.221 890.682 Q232.221 882.947 236.232 879.128 Q240.242 875.309 248.39 875.309 Z" fill="#000000" fill-rule="nonzero" fill-opacity="1" /><path clip-path="url(#clip620)" d="M238.555 842.589 Q237.982 843.575 237.728 844.753 Q237.441 845.899 237.441 847.299 Q237.441 852.265 240.688 854.938 Q243.902 857.58 249.95 857.58 L268.729 857.58 L268.729 863.468 L233.081 863.468 L233.081 857.58 L238.619 857.58 Q235.372 855.734 233.813 852.774 Q232.221 849.814 232.221 845.581 Q232.221 844.976 232.317 844.244 Q232.38 843.512 232.54 842.621 L238.555 842.589 Z" fill="#000000" fill-rule="nonzero" fill-opacity="1" /><path clip-path="url(#clip620)" d="M272.039 821.614 Q278.404 824.096 280.346 826.452 Q282.288 828.807 282.288 832.754 L282.288 837.433 L277.386 837.433 L277.386 833.995 Q277.386 831.576 276.24 830.239 Q275.094 828.903 270.829 827.279 L268.156 826.229 L233.081 840.647 L233.081 834.441 L260.962 823.301 L233.081 812.161 L233.081 805.954 L272.039 821.614 Z" fill="#000000" fill-rule="nonzero" fill-opacity="1" /><path clip-path="url(#clip620)" d="M263.381 771.484 L282.288 771.484 L282.288 777.372 L233.081 777.372 L233.081 771.484 L238.491 771.484 Q235.309 769.638 233.781 766.837 Q232.221 764.004 232.221 760.089 Q232.221 753.596 237.377 749.554 Q242.534 745.48 250.936 745.48 Q259.339 745.48 264.495 749.554 Q269.652 753.596 269.652 760.089 Q269.652 764.004 268.124 766.837 Q266.564 769.638 263.381 771.484 M250.936 751.559 Q244.475 751.559 240.815 754.233 Q237.123 756.875 237.123 761.522 Q237.123 766.168 240.815 768.842 Q244.475 771.484 250.936 771.484 Q257.398 771.484 261.09 768.842 Q264.75 766.168 264.75 761.522 Q264.75 756.875 261.09 754.233 Q257.398 751.559 250.936 751.559 Z" fill="#000000" fill-rule="nonzero" fill-opacity="1" /><path clip-path="url(#clip620)" d="M238.555 715.116 Q237.982 716.102 237.728 717.28 Q237.441 718.426 237.441 719.826 Q237.441 724.791 240.688 727.465 Q243.902 730.107 249.95 730.107 L268.729 730.107 L268.729 735.995 L233.081 735.995 L233.081 730.107 L238.619 730.107 Q235.372 728.261 233.813 725.301 Q232.221 722.341 232.221 718.107 Q232.221 717.503 232.317 716.771 Q232.38 716.039 232.54 715.147 L238.555 715.116 Z" fill="#000000" fill-rule="nonzero" fill-opacity="1" /><path clip-path="url(#clip620)" d="M237.186 696.591 Q237.186 701.302 240.879 704.039 Q244.539 706.776 250.936 706.776 Q257.334 706.776 261.026 704.071 Q264.686 701.334 264.686 696.591 Q264.686 691.913 260.994 689.175 Q257.302 686.438 250.936 686.438 Q244.603 686.438 240.91 689.175 Q237.186 691.913 237.186 696.591 M232.221 696.591 Q232.221 688.952 237.186 684.592 Q242.152 680.231 250.936 680.231 Q259.689 680.231 264.686 684.592 Q269.652 688.952 269.652 696.591 Q269.652 704.262 264.686 708.622 Q259.689 712.951 250.936 712.951 Q242.152 712.951 237.186 708.622 Q232.221 704.262 232.221 696.591 Z" fill="#000000" fill-rule="nonzero" fill-opacity="1" /><path clip-path="url(#clip620)" d="M250.936 644.934 Q244.475 644.934 240.815 647.607 Q237.123 650.249 237.123 654.896 Q237.123 659.543 240.815 662.216 Q244.475 664.858 250.936 664.858 Q257.398 664.858 261.09 662.216 Q264.75 659.543 264.75 654.896 Q264.75 650.249 261.09 647.607 Q257.398 644.934 250.936 644.934 M238.491 664.858 Q235.309 663.012 233.781 660.211 Q232.221 657.379 232.221 653.464 Q232.221 646.971 237.377 642.928 Q242.534 638.854 250.936 638.854 Q259.339 638.854 264.495 642.928 Q269.652 646.971 269.652 653.464 Q269.652 657.379 268.124 660.211 Q266.564 663.012 263.381 664.858 L268.729 664.858 L268.729 670.747 L219.203 670.747 L219.203 664.858 L238.491 664.858 Z" fill="#000000" fill-rule="nonzero" fill-opacity="1" /><path clip-path="url(#clip620)" d="M250.809 612.946 Q250.809 620.044 252.432 622.781 Q254.056 625.518 257.971 625.518 Q261.09 625.518 262.936 623.481 Q264.75 621.412 264.75 617.879 Q264.75 613.01 261.313 610.081 Q257.843 607.121 252.114 607.121 L250.809 607.121 L250.809 612.946 M248.39 601.265 L268.729 601.265 L268.729 607.121 L263.318 607.121 Q266.564 609.126 268.124 612.118 Q269.652 615.11 269.652 619.439 Q269.652 624.913 266.596 628.16 Q263.509 631.375 258.352 631.375 Q252.337 631.375 249.281 627.364 Q246.226 623.322 246.226 615.333 L246.226 607.121 L245.653 607.121 Q241.611 607.121 239.414 609.795 Q237.186 612.437 237.186 617.243 Q237.186 620.298 237.919 623.195 Q238.651 626.091 240.115 628.765 L234.704 628.765 Q233.463 625.55 232.858 622.526 Q232.221 619.503 232.221 616.638 Q232.221 608.904 236.232 605.084 Q240.242 601.265 248.39 601.265 Z" fill="#000000" fill-rule="nonzero" fill-opacity="1" /><path clip-path="url(#clip620)" d="M250.936 563.612 Q244.475 563.612 240.815 566.285 Q237.123 568.927 237.123 573.574 Q237.123 578.221 240.815 580.895 Q244.475 583.536 250.936 583.536 Q257.398 583.536 261.09 580.895 Q264.75 578.221 264.75 573.574 Q264.75 568.927 261.09 566.285 Q257.398 563.612 250.936 563.612 M238.491 583.536 Q235.309 581.69 233.781 578.889 Q232.221 576.057 232.221 572.142 Q232.221 565.649 237.377 561.606 Q242.534 557.532 250.936 557.532 Q259.339 557.532 264.495 561.606 Q269.652 565.649 269.652 572.142 Q269.652 576.057 268.124 578.889 Q266.564 581.69 263.381 583.536 L268.729 583.536 L268.729 589.425 L219.203 589.425 L219.203 583.536 L238.491 583.536 Z" fill="#000000" fill-rule="nonzero" fill-opacity="1" /><path clip-path="url(#clip620)" d="M233.081 547.825 L233.081 541.968 L268.729 541.968 L268.729 547.825 L233.081 547.825 M219.203 547.825 L219.203 541.968 L226.619 541.968 L226.619 547.825 L219.203 547.825 Z" fill="#000000" fill-rule="nonzero" fill-opacity="1" /><path clip-path="url(#clip620)" d="M219.203 529.714 L219.203 523.858 L268.729 523.858 L268.729 529.714 L219.203 529.714 Z" fill="#000000" fill-rule="nonzero" fill-opacity="1" /><path clip-path="url(#clip620)" d="M233.081 511.604 L233.081 505.747 L268.729 505.747 L268.729 511.604 L233.081 511.604 M219.203 511.604 L219.203 505.747 L226.619 505.747 L226.619 511.604 L219.203 511.604 Z" fill="#000000" fill-rule="nonzero" fill-opacity="1" /><path clip-path="url(#clip620)" d="M222.959 487.701 L233.081 487.701 L233.081 475.638 L237.632 475.638 L237.632 487.701 L256.984 487.701 Q261.344 487.701 262.586 486.523 Q263.827 485.314 263.827 481.653 L263.827 475.638 L268.729 475.638 L268.729 481.653 Q268.729 488.433 266.214 491.011 Q263.668 493.589 256.984 493.589 L237.632 493.589 L237.632 497.886 L233.081 497.886 L233.081 493.589 L222.959 493.589 L222.959 487.701 Z" fill="#000000" fill-rule="nonzero" fill-opacity="1" /><path clip-path="url(#clip620)" d="M272.039 453.103 Q278.404 455.586 280.346 457.941 Q282.288 460.296 282.288 464.243 L282.288 468.922 L277.386 468.922 L277.386 465.484 Q277.386 463.065 276.24 461.729 Q275.094 460.392 270.829 458.769 L268.156 457.718 L233.081 472.136 L233.081 465.93 L260.962 454.79 L233.081 443.65 L233.081 437.443 L272.039 453.103 Z" fill="#000000" fill-rule="nonzero" fill-opacity="1" /><path clip-path="url(#clip620)" d="M263.381 402.973 L282.288 402.973 L282.288 408.861 L233.081 408.861 L233.081 402.973 L238.491 402.973 Q235.309 401.127 233.781 398.326 Q232.221 395.493 232.221 391.578 Q232.221 385.085 237.377 381.043 Q242.534 376.969 250.936 376.969 Q259.339 376.969 264.495 381.043 Q269.652 385.085 269.652 391.578 Q269.652 395.493 268.124 398.326 Q266.564 401.127 263.381 402.973 M250.936 383.048 Q244.475 383.048 240.815 385.722 Q237.123 388.364 237.123 393.011 Q237.123 397.658 240.815 400.331 Q244.475 402.973 250.936 402.973 Q257.398 402.973 261.09 400.331 Q264.75 397.658 264.75 393.011 Q264.75 388.364 261.09 385.722 Q257.398 383.048 250.936 383.048 Z" fill="#000000" fill-rule="nonzero" fill-opacity="1" /><path clip-path="url(#clip620)" d="M233.081 367.261 L233.081 361.405 L268.729 361.405 L268.729 367.261 L233.081 367.261 M219.203 367.261 L219.203 361.405 L226.619 361.405 L226.619 367.261 L219.203 367.261 Z" fill="#000000" fill-rule="nonzero" fill-opacity="1" /><path clip-path="url(#clip620)" d="M279.55 322.065 L284.102 322.065 L284.102 355.931 L279.55 355.931 L279.55 322.065 Z" fill="#000000" fill-rule="nonzero" fill-opacity="1" /><path clip-path="url(#clip620)" d="M219.203 316.781 L219.203 310.893 L248.454 310.893 L233.081 293.419 L233.081 285.94 L249.759 304.846 L268.729 285.144 L268.729 292.783 L251.318 310.893 L268.729 310.893 L268.729 316.781 L219.203 316.781 Z" fill="#000000" fill-rule="nonzero" fill-opacity="1" /><path clip-path="url(#clip620)" d="M444.2 9.05203 L444.2 14.1822 Q441.205 12.7499 438.549 12.0468 Q435.892 11.3437 433.418 11.3437 Q429.122 11.3437 426.778 13.0103 Q424.46 14.677 424.46 17.7499 Q424.46 20.328 425.997 21.6561 Q427.559 22.9582 431.882 23.7655 L435.059 24.4165 Q440.944 25.5363 443.731 28.3748 Q446.543 31.1873 446.543 35.9269 Q446.543 41.5779 442.741 44.4946 Q438.965 47.4112 431.648 47.4112 Q428.887 47.4112 425.762 46.7862 Q422.663 46.1612 419.33 44.9373 L419.33 39.5206 Q422.533 41.3175 425.606 42.2289 Q428.679 43.1404 431.648 43.1404 Q436.153 43.1404 438.601 41.3696 Q441.049 39.5987 441.049 36.3175 Q441.049 33.4529 439.278 31.8384 Q437.533 30.2238 433.523 29.4165 L430.319 28.7915 Q424.434 27.6196 421.804 25.1197 Q419.174 22.6197 419.174 18.1666 Q419.174 13.0103 422.793 10.0416 Q426.439 7.07288 432.819 7.07288 Q435.554 7.07288 438.392 7.56767 Q441.231 8.06246 444.2 9.05203 Z" fill="#000000" fill-rule="nonzero" fill-opacity="1" /><path clip-path="url(#clip620)" d="M459.278 9.20828 L459.278 17.4895 L469.147 17.4895 L469.147 21.2134 L459.278 21.2134 L459.278 37.0467 Q459.278 40.6144 460.241 41.63 Q461.231 42.6456 464.225 42.6456 L469.147 42.6456 L469.147 46.656 L464.225 46.656 Q458.679 46.656 456.569 44.5987 Q454.46 42.5154 454.46 37.0467 L454.46 21.2134 L450.944 21.2134 L450.944 17.4895 L454.46 17.4895 L454.46 9.20828 L459.278 9.20828 Z" fill="#000000" fill-rule="nonzero" fill-opacity="1" /><path clip-path="url(#clip620)" d="M488.705 31.9946 Q482.897 31.9946 480.658 33.3227 Q478.418 34.6509 478.418 37.854 Q478.418 40.406 480.085 41.9164 Q481.777 43.4008 484.668 43.4008 Q488.652 43.4008 491.048 40.5883 Q493.47 37.7498 493.47 33.0623 L493.47 31.9946 L488.705 31.9946 M498.262 30.0155 L498.262 46.656 L493.47 46.656 L493.47 42.2289 Q491.83 44.8852 489.382 46.1612 Q486.934 47.4112 483.392 47.4112 Q478.913 47.4112 476.257 44.9112 Q473.626 42.3852 473.626 38.1665 Q473.626 33.2446 476.908 30.7446 Q480.215 28.2446 486.751 28.2446 L493.47 28.2446 L493.47 27.7759 Q493.47 24.4686 491.283 22.6718 Q489.121 20.8488 485.189 20.8488 Q482.689 20.8488 480.319 21.4478 Q477.949 22.0468 475.762 23.2447 L475.762 18.8176 Q478.392 17.802 480.866 17.3072 Q483.34 16.7864 485.684 16.7864 Q492.012 16.7864 495.137 20.0676 Q498.262 23.3488 498.262 30.0155 Z" fill="#000000" fill-rule="nonzero" fill-opacity="1" /><path clip-path="url(#clip620)" d="M512.871 9.20828 L512.871 17.4895 L522.741 17.4895 L522.741 21.2134 L512.871 21.2134 L512.871 37.0467 Q512.871 40.6144 513.835 41.63 Q514.824 42.6456 517.819 42.6456 L522.741 42.6456 L522.741 46.656 L517.819 46.656 Q512.272 46.656 510.163 44.5987 Q508.053 42.5154 508.053 37.0467 L508.053 21.2134 L504.538 21.2134 L504.538 17.4895 L508.053 17.4895 L508.053 9.20828 L512.871 9.20828 Z" fill="#000000" fill-rule="nonzero" fill-opacity="1" /><path clip-path="url(#clip620)" d="M529.043 17.4895 L533.834 17.4895 L533.834 46.656 L529.043 46.656 L529.043 17.4895 M529.043 6.13538 L533.834 6.13538 L533.834 12.2031 L529.043 12.2031 L529.043 6.13538 Z" fill="#000000" fill-rule="nonzero" fill-opacity="1" /><path clip-path="url(#clip620)" d="M555.163 20.8488 Q551.308 20.8488 549.069 23.8697 Q546.829 26.8644 546.829 32.0988 Q546.829 37.3331 549.043 40.354 Q551.282 43.3487 555.163 43.3487 Q558.991 43.3487 561.23 40.3279 Q563.47 37.3071 563.47 32.0988 Q563.47 26.9165 561.23 23.8957 Q558.991 20.8488 555.163 20.8488 M555.163 16.7864 Q561.412 16.7864 564.98 20.8488 Q568.548 24.9113 568.548 32.0988 Q568.548 39.2602 564.98 43.3487 Q561.412 47.4112 555.163 47.4112 Q548.886 47.4112 545.319 43.3487 Q541.777 39.2602 541.777 32.0988 Q541.777 24.9113 545.319 20.8488 Q548.886 16.7864 555.163 16.7864 Z" fill="#000000" fill-rule="nonzero" fill-opacity="1" /><path clip-path="url(#clip620)" d="M600.735 29.0519 L600.735 46.656 L595.944 46.656 L595.944 29.2082 Q595.944 25.0676 594.329 23.0103 Q592.714 20.953 589.485 20.953 Q585.605 20.953 583.365 23.427 Q581.126 25.9009 581.126 30.1717 L581.126 46.656 L576.308 46.656 L576.308 17.4895 L581.126 17.4895 L581.126 22.0207 Q582.845 19.3905 585.162 18.0884 Q587.506 16.7864 590.553 16.7864 Q595.579 16.7864 598.157 19.9114 Q600.735 23.0103 600.735 29.0519 Z" fill="#000000" fill-rule="nonzero" fill-opacity="1" /><path clip-path="url(#clip620)" d="M623.548 31.9946 Q617.74 31.9946 615.501 33.3227 Q613.261 34.6509 613.261 37.854 Q613.261 40.406 614.928 41.9164 Q616.621 43.4008 619.511 43.4008 Q623.495 43.4008 625.891 40.5883 Q628.313 37.7498 628.313 33.0623 L628.313 31.9946 L623.548 31.9946 M633.105 30.0155 L633.105 46.656 L628.313 46.656 L628.313 42.2289 Q626.673 44.8852 624.225 46.1612 Q621.777 47.4112 618.235 47.4112 Q613.756 47.4112 611.1 44.9112 Q608.47 42.3852 608.47 38.1665 Q608.47 33.2446 611.751 30.7446 Q615.058 28.2446 621.594 28.2446 L628.313 28.2446 L628.313 27.7759 Q628.313 24.4686 626.126 22.6718 Q623.964 20.8488 620.032 20.8488 Q617.532 20.8488 615.162 21.4478 Q612.792 22.0468 610.605 23.2447 L610.605 18.8176 Q613.235 17.802 615.709 17.3072 Q618.183 16.7864 620.527 16.7864 Q626.855 16.7864 629.98 20.0676 Q633.105 23.3488 633.105 30.0155 Z" fill="#000000" fill-rule="nonzero" fill-opacity="1" /><path clip-path="url(#clip620)" d="M659.875 21.9686 Q659.068 21.4999 658.105 21.2916 Q657.167 21.0572 656.021 21.0572 Q651.959 21.0572 649.771 23.7134 Q647.61 26.3436 647.61 31.2915 L647.61 46.656 L642.792 46.656 L642.792 17.4895 L647.61 17.4895 L647.61 22.0207 Q649.12 19.3645 651.542 18.0884 Q653.964 16.7864 657.428 16.7864 Q657.922 16.7864 658.521 16.8645 Q659.12 16.9166 659.849 17.0468 L659.875 21.9686 Z" fill="#000000" fill-rule="nonzero" fill-opacity="1" /><path clip-path="url(#clip620)" d="M677.037 49.3643 Q675.006 54.5726 673.079 56.1612 Q671.151 57.7497 667.922 57.7497 L664.094 57.7497 L664.094 53.7393 L666.907 53.7393 Q668.886 53.7393 669.98 52.8018 Q671.073 51.8643 672.401 48.3747 L673.261 46.1873 L661.464 17.4895 L666.542 17.4895 L675.657 40.3019 L684.771 17.4895 L689.849 17.4895 L677.037 49.3643 Z" fill="#000000" fill-rule="nonzero" fill-opacity="1" /><path clip-path="url(#clip620)" d="M732.609 21.9165 L732.609 6.13538 L737.401 6.13538 L737.401 46.656 L732.609 46.656 L732.609 42.281 Q731.099 44.8852 728.781 46.1612 Q726.49 47.4112 723.261 47.4112 Q717.974 47.4112 714.641 43.1925 Q711.334 38.9737 711.334 32.0988 Q711.334 25.2238 714.641 21.0051 Q717.974 16.7864 723.261 16.7864 Q726.49 16.7864 728.781 18.0624 Q731.099 19.3124 732.609 21.9165 M716.281 32.0988 Q716.281 37.3852 718.443 40.406 Q720.63 43.4008 724.432 43.4008 Q728.234 43.4008 730.422 40.406 Q732.609 37.3852 732.609 32.0988 Q732.609 26.8124 730.422 23.8176 Q728.234 20.7968 724.432 20.7968 Q720.63 20.7968 718.443 23.8176 Q716.281 26.8124 716.281 32.0988 Z" fill="#000000" fill-rule="nonzero" fill-opacity="1" /><path clip-path="url(#clip620)" d="M747.271 17.4895 L752.062 17.4895 L752.062 46.656 L747.271 46.656 L747.271 17.4895 M747.271 6.13538 L752.062 6.13538 L752.062 12.2031 L747.271 12.2031 L747.271 6.13538 Z" fill="#000000" fill-rule="nonzero" fill-opacity="1" /><path clip-path="url(#clip620)" d="M780.682 18.3489 L780.682 22.8801 Q778.651 21.8384 776.463 21.3176 Q774.276 20.7968 771.932 20.7968 Q768.364 20.7968 766.568 21.8905 Q764.797 22.9843 764.797 25.1717 Q764.797 26.8384 766.073 27.8019 Q767.349 28.7394 771.203 29.5988 L772.844 29.9634 Q777.948 31.0571 780.083 33.0623 Q782.245 35.0415 782.245 38.6092 Q782.245 42.6716 779.015 45.0414 Q775.812 47.4112 770.187 47.4112 Q767.844 47.4112 765.292 46.9425 Q762.766 46.4998 759.953 45.5883 L759.953 40.6404 Q762.609 42.0206 765.187 42.7237 Q767.766 43.4008 770.292 43.4008 Q773.677 43.4008 775.5 42.255 Q777.323 41.0831 777.323 38.9737 Q777.323 37.0206 775.995 35.979 Q774.693 34.9373 770.239 33.9738 L768.573 33.5832 Q764.12 32.6457 762.141 30.7186 Q760.161 28.7655 760.161 25.3801 Q760.161 21.2655 763.078 19.0259 Q765.995 16.7864 771.359 16.7864 Q774.015 16.7864 776.359 17.177 Q778.703 17.5676 780.682 18.3489 Z" fill="#000000" fill-rule="nonzero" fill-opacity="1" /><path clip-path="url(#clip620)" d="M794.614 9.20828 L794.614 17.4895 L804.484 17.4895 L804.484 21.2134 L794.614 21.2134 L794.614 37.0467 Q794.614 40.6144 795.578 41.63 Q796.567 42.6456 799.562 42.6456 L804.484 42.6456 L804.484 46.656 L799.562 46.656 Q794.015 46.656 791.906 44.5987 Q789.797 42.5154 789.797 37.0467 L789.797 21.2134 L786.281 21.2134 L786.281 17.4895 L789.797 17.4895 L789.797 9.20828 L794.614 9.20828 Z" fill="#000000" fill-rule="nonzero" fill-opacity="1" /><path clip-path="url(#clip620)" d="M827.687 21.9686 Q826.88 21.4999 825.916 21.2916 Q824.979 21.0572 823.833 21.0572 Q819.77 21.0572 817.583 23.7134 Q815.422 26.3436 815.422 31.2915 L815.422 46.656 L810.604 46.656 L810.604 17.4895 L815.422 17.4895 L815.422 22.0207 Q816.932 19.3645 819.354 18.0884 Q821.776 16.7864 825.239 16.7864 Q825.734 16.7864 826.333 16.8645 Q826.932 16.9166 827.661 17.0468 L827.687 21.9686 Z" fill="#000000" fill-rule="nonzero" fill-opacity="1" /><path clip-path="url(#clip620)" d="M832.713 17.4895 L837.505 17.4895 L837.505 46.656 L832.713 46.656 L832.713 17.4895 M832.713 6.13538 L837.505 6.13538 L837.505 12.2031 L832.713 12.2031 L832.713 6.13538 Z" fill="#000000" fill-rule="nonzero" fill-opacity="1" /><path clip-path="url(#clip620)" d="M868.468 32.0988 Q868.468 26.8124 866.281 23.8176 Q864.119 20.7968 860.317 20.7968 Q856.515 20.7968 854.328 23.8176 Q852.166 26.8124 852.166 32.0988 Q852.166 37.3852 854.328 40.406 Q856.515 43.4008 860.317 43.4008 Q864.119 43.4008 866.281 40.406 Q868.468 37.3852 868.468 32.0988 M852.166 21.9165 Q853.677 19.3124 855.968 18.0624 Q858.286 16.7864 861.489 16.7864 Q866.801 16.7864 870.109 21.0051 Q873.442 25.2238 873.442 32.0988 Q873.442 38.9737 870.109 43.1925 Q866.801 47.4112 861.489 47.4112 Q858.286 47.4112 855.968 46.1612 Q853.677 44.8852 852.166 42.281 L852.166 46.656 L847.348 46.656 L847.348 6.13538 L852.166 6.13538 L852.166 21.9165 Z" fill="#000000" fill-rule="nonzero" fill-opacity="1" /><path clip-path="url(#clip620)" d="M880.89 35.1456 L880.89 17.4895 L885.682 17.4895 L885.682 34.9634 Q885.682 39.104 887.296 41.1873 Q888.911 43.2446 892.14 43.2446 Q896.02 43.2446 898.26 40.7706 Q900.525 38.2967 900.525 34.0259 L900.525 17.4895 L905.317 17.4895 L905.317 46.656 L900.525 46.656 L900.525 42.1769 Q898.78 44.8331 896.463 46.1352 Q894.171 47.4112 891.124 47.4112 Q886.098 47.4112 883.494 44.2862 Q880.89 41.1612 880.89 35.1456 M892.947 16.7864 L892.947 16.7864 Z" fill="#000000" fill-rule="nonzero" fill-opacity="1" /><path clip-path="url(#clip620)" d="M919.926 9.20828 L919.926 17.4895 L929.796 17.4895 L929.796 21.2134 L919.926 21.2134 L919.926 37.0467 Q919.926 40.6144 920.89 41.63 Q921.879 42.6456 924.874 42.6456 L929.796 42.6456 L929.796 46.656 L924.874 46.656 Q919.327 46.656 917.218 44.5987 Q915.108 42.5154 915.108 37.0467 L915.108 21.2134 L911.593 21.2134 L911.593 17.4895 L915.108 17.4895 L915.108 9.20828 L919.926 9.20828 Z" fill="#000000" fill-rule="nonzero" fill-opacity="1" /><path clip-path="url(#clip620)" d="M936.098 17.4895 L940.89 17.4895 L940.89 46.656 L936.098 46.656 L936.098 17.4895 M936.098 6.13538 L940.89 6.13538 L940.89 12.2031 L936.098 12.2031 L936.098 6.13538 Z" fill="#000000" fill-rule="nonzero" fill-opacity="1" /><path clip-path="url(#clip620)" d="M962.218 20.8488 Q958.363 20.8488 956.124 23.8697 Q953.884 26.8644 953.884 32.0988 Q953.884 37.3331 956.098 40.354 Q958.337 43.3487 962.218 43.3487 Q966.046 43.3487 968.285 40.3279 Q970.525 37.3071 970.525 32.0988 Q970.525 26.9165 968.285 23.8957 Q966.046 20.8488 962.218 20.8488 M962.218 16.7864 Q968.468 16.7864 972.035 20.8488 Q975.603 24.9113 975.603 32.0988 Q975.603 39.2602 972.035 43.3487 Q968.468 47.4112 962.218 47.4112 Q955.942 47.4112 952.374 43.3487 Q948.832 39.2602 948.832 32.0988 Q948.832 24.9113 952.374 20.8488 Q955.942 16.7864 962.218 16.7864 Z" fill="#000000" fill-rule="nonzero" fill-opacity="1" /><path clip-path="url(#clip620)" d="M1007.79 29.0519 L1007.79 46.656 L1003 46.656 L1003 29.2082 Q1003 25.0676 1001.38 23.0103 Q999.769 20.953 996.54 20.953 Q992.66 20.953 990.421 23.427 Q988.181 25.9009 988.181 30.1717 L988.181 46.656 L983.363 46.656 L983.363 17.4895 L988.181 17.4895 L988.181 22.0207 Q989.9 19.3905 992.217 18.0884 Q994.561 16.7864 997.608 16.7864 Q1002.63 16.7864 1005.21 19.9114 Q1007.79 23.0103 1007.79 29.0519 Z" fill="#000000" fill-rule="nonzero" fill-opacity="1" /><path clip-path="url(#clip620)" d="M1038.94 42.281 L1038.94 57.7497 L1034.12 57.7497 L1034.12 17.4895 L1038.94 17.4895 L1038.94 21.9165 Q1040.45 19.3124 1042.74 18.0624 Q1045.06 16.7864 1048.26 16.7864 Q1053.57 16.7864 1056.88 21.0051 Q1060.21 25.2238 1060.21 32.0988 Q1060.21 38.9737 1056.88 43.1925 Q1053.57 47.4112 1048.26 47.4112 Q1045.06 47.4112 1042.74 46.1612 Q1040.45 44.8852 1038.94 42.281 M1055.24 32.0988 Q1055.24 26.8124 1053.05 23.8176 Q1050.89 20.7968 1047.09 20.7968 Q1043.28 20.7968 1041.1 23.8176 Q1038.94 26.8124 1038.94 32.0988 Q1038.94 37.3852 1041.1 40.406 Q1043.28 43.4008 1047.09 43.4008 Q1050.89 43.4008 1053.05 40.406 Q1055.24 37.3852 1055.24 32.0988 Z" fill="#000000" fill-rule="nonzero" fill-opacity="1" /><path clip-path="url(#clip620)" d="M1068.15 17.4895 L1072.95 17.4895 L1072.95 46.656 L1068.15 46.656 L1068.15 17.4895 M1068.15 6.13538 L1072.95 6.13538 L1072.95 12.2031 L1068.15 12.2031 L1068.15 6.13538 Z" fill="#000000" fill-rule="nonzero" fill-opacity="1" /><path clip-path="url(#clip620)" d="M1111.44 6.18747 Q1107.95 12.177 1106.25 18.0364 Q1104.56 23.8957 1104.56 29.9113 Q1104.56 35.9269 1106.25 41.8383 Q1107.97 47.7237 1111.44 53.6872 L1107.27 53.6872 Q1103.36 47.5675 1101.41 41.656 Q1099.48 35.7446 1099.48 29.9113 Q1099.48 24.104 1101.41 18.2187 Q1103.34 12.3333 1107.27 6.18747 L1111.44 6.18747 Z" fill="#000000" fill-rule="nonzero" fill-opacity="1" /><path clip-path="url(#clip620)" d="M1121.36 22.4374 L1154.74 22.4374 L1154.74 26.8124 L1121.36 26.8124 L1121.36 22.4374 M1121.36 33.0623 L1154.74 33.0623 L1154.74 37.4894 L1121.36 37.4894 L1121.36 33.0623 Z" fill="#000000" fill-rule="nonzero" fill-opacity="1" /><path clip-path="url(#clip620)" d="M1182.37 6.13538 L1187.16 6.13538 L1187.16 46.656 L1182.37 46.656 L1182.37 6.13538 Z" fill="#000000" fill-rule="nonzero" fill-opacity="1" /><path clip-path="url(#clip620)" d="M1222.14 30.8748 L1222.14 33.2186 L1200.11 33.2186 Q1200.42 38.1665 1203.08 40.7706 Q1205.76 43.3487 1210.52 43.3487 Q1213.28 43.3487 1215.86 42.6716 Q1218.47 41.9946 1221.02 40.6404 L1221.02 45.1716 Q1218.44 46.2654 1215.73 46.8383 Q1213.02 47.4112 1210.24 47.4112 Q1203.26 47.4112 1199.17 43.3487 Q1195.11 39.2862 1195.11 32.3592 Q1195.11 25.1978 1198.96 21.0051 Q1202.84 16.7864 1209.4 16.7864 Q1215.29 16.7864 1218.7 20.5884 Q1222.14 24.3645 1222.14 30.8748 M1217.35 29.4686 Q1217.29 25.5363 1215.13 23.1926 Q1213 20.8488 1209.46 20.8488 Q1205.45 20.8488 1203.02 23.1145 Q1200.63 25.3801 1200.26 29.4946 L1217.35 29.4686 Z" fill="#000000" fill-rule="nonzero" fill-opacity="1" /><path clip-path="url(#clip620)" d="M1244.77 6.13538 L1244.77 10.1197 L1240.18 10.1197 Q1237.61 10.1197 1236.59 11.1614 Q1235.6 12.2031 1235.6 14.9114 L1235.6 17.4895 L1243.49 17.4895 L1243.49 21.2134 L1235.6 21.2134 L1235.6 46.656 L1230.78 46.656 L1230.78 21.2134 L1226.2 21.2134 L1226.2 17.4895 L1230.78 17.4895 L1230.78 15.4583 Q1230.78 10.5885 1233.05 8.37496 Q1235.32 6.13538 1240.24 6.13538 L1244.77 6.13538 Z" fill="#000000" fill-rule="nonzero" fill-opacity="1" /><path clip-path="url(#clip620)" d="M1252.58 9.20828 L1252.58 17.4895 L1262.45 17.4895 L1262.45 21.2134 L1252.58 21.2134 L1252.58 37.0467 Q1252.58 40.6144 1253.54 41.63 Q1254.53 42.6456 1257.53 42.6456 L1262.45 42.6456 L1262.45 46.656 L1257.53 46.656 Q1251.98 46.656 1249.87 44.5987 Q1247.76 42.5154 1247.76 37.0467 L1247.76 21.2134 L1244.25 21.2134 L1244.25 17.4895 L1247.76 17.4895 L1247.76 9.20828 L1252.58 9.20828 Z" fill="#000000" fill-rule="nonzero" fill-opacity="1" /><path clip-path="url(#clip620)" d="M1310.65 30.8748 L1310.65 33.2186 L1288.62 33.2186 Q1288.93 38.1665 1291.59 40.7706 Q1294.27 43.3487 1299.04 43.3487 Q1301.8 43.3487 1304.38 42.6716 Q1306.98 41.9946 1309.53 40.6404 L1309.53 45.1716 Q1306.96 46.2654 1304.25 46.8383 Q1301.54 47.4112 1298.75 47.4112 Q1291.77 47.4112 1287.68 43.3487 Q1283.62 39.2862 1283.62 32.3592 Q1283.62 25.1978 1287.48 21.0051 Q1291.36 16.7864 1297.92 16.7864 Q1303.8 16.7864 1307.22 20.5884 Q1310.65 24.3645 1310.65 30.8748 M1305.86 29.4686 Q1305.81 25.5363 1303.65 23.1926 Q1301.51 20.8488 1297.97 20.8488 Q1293.96 20.8488 1291.54 23.1145 Q1289.14 25.3801 1288.78 29.4946 L1305.86 29.4686 Z" fill="#000000" fill-rule="nonzero" fill-opacity="1" /><path clip-path="url(#clip620)" d="M1318.52 17.4895 L1323.31 17.4895 L1323.31 46.656 L1318.52 46.656 L1318.52 17.4895 M1318.52 6.13538 L1323.31 6.13538 L1323.31 12.2031 L1318.52 12.2031 L1318.52 6.13538 Z" fill="#000000" fill-rule="nonzero" fill-opacity="1" /><path clip-path="url(#clip620)" d="M1352.53 31.7342 Q1352.53 26.5259 1350.37 23.6613 Q1348.23 20.7968 1344.35 20.7968 Q1340.5 20.7968 1338.34 23.6613 Q1336.2 26.5259 1336.2 31.7342 Q1336.2 36.9165 1338.34 39.781 Q1340.5 42.6456 1344.35 42.6456 Q1348.23 42.6456 1350.37 39.781 Q1352.53 36.9165 1352.53 31.7342 M1357.32 43.0362 Q1357.32 50.4841 1354.01 54.1039 Q1350.71 57.7497 1343.88 57.7497 Q1341.36 57.7497 1339.12 57.3591 Q1336.88 56.9945 1334.77 56.2132 L1334.77 51.5518 Q1336.88 52.6976 1338.93 53.2445 Q1340.99 53.7914 1343.13 53.7914 Q1347.84 53.7914 1350.18 51.3174 Q1352.53 48.8695 1352.53 43.8956 L1352.53 41.5258 Q1351.04 44.1039 1348.73 45.38 Q1346.41 46.656 1343.18 46.656 Q1337.81 46.656 1334.53 42.5675 Q1331.25 38.479 1331.25 31.7342 Q1331.25 24.9634 1334.53 20.8749 Q1337.81 16.7864 1343.18 16.7864 Q1346.41 16.7864 1348.73 18.0624 Q1351.04 19.3384 1352.53 21.9165 L1352.53 17.4895 L1357.32 17.4895 L1357.32 43.0362 Z" fill="#000000" fill-rule="nonzero" fill-opacity="1" /><path clip-path="url(#clip620)" d="M1392.14 30.8748 L1392.14 33.2186 L1370.11 33.2186 Q1370.42 38.1665 1373.07 40.7706 Q1375.76 43.3487 1380.52 43.3487 Q1383.28 43.3487 1385.86 42.6716 Q1388.47 41.9946 1391.02 40.6404 L1391.02 45.1716 Q1388.44 46.2654 1385.73 46.8383 Q1383.02 47.4112 1380.24 47.4112 Q1373.26 47.4112 1369.17 43.3487 Q1365.11 39.2862 1365.11 32.3592 Q1365.11 25.1978 1368.96 21.0051 Q1372.84 16.7864 1379.4 16.7864 Q1385.29 16.7864 1388.7 20.5884 Q1392.14 24.3645 1392.14 30.8748 M1387.35 29.4686 Q1387.29 25.5363 1385.13 23.1926 Q1383 20.8488 1379.45 20.8488 Q1375.44 20.8488 1373.02 23.1145 Q1370.63 25.3801 1370.26 29.4946 L1387.35 29.4686 Z" fill="#000000" fill-rule="nonzero" fill-opacity="1" /><path clip-path="url(#clip620)" d="M1424.25 29.0519 L1424.25 46.656 L1419.45 46.656 L1419.45 29.2082 Q1419.45 25.0676 1417.84 23.0103 Q1416.23 20.953 1413 20.953 Q1409.12 20.953 1406.88 23.427 Q1404.64 25.9009 1404.64 30.1717 L1404.64 46.656 L1399.82 46.656 L1399.82 17.4895 L1404.64 17.4895 L1404.64 22.0207 Q1406.36 19.3905 1408.67 18.0884 Q1411.02 16.7864 1414.06 16.7864 Q1419.09 16.7864 1421.67 19.9114 Q1424.25 23.0103 1424.25 29.0519 Z" fill="#000000" fill-rule="nonzero" fill-opacity="1" /><path clip-path="url(#clip620)" d="M1430.37 17.4895 L1435.44 17.4895 L1444.56 41.9685 L1453.67 17.4895 L1458.75 17.4895 L1447.81 46.656 L1441.3 46.656 L1430.37 17.4895 Z" fill="#000000" fill-rule="nonzero" fill-opacity="1" /><path clip-path="url(#clip620)" d="M1490.31 30.8748 L1490.31 33.2186 L1468.28 33.2186 Q1468.6 38.1665 1471.25 40.7706 Q1473.93 43.3487 1478.7 43.3487 Q1481.46 43.3487 1484.04 42.6716 Q1486.64 41.9946 1489.19 40.6404 L1489.19 45.1716 Q1486.62 46.2654 1483.91 46.8383 Q1481.2 47.4112 1478.41 47.4112 Q1471.43 47.4112 1467.35 43.3487 Q1463.28 39.2862 1463.28 32.3592 Q1463.28 25.1978 1467.14 21.0051 Q1471.02 16.7864 1477.58 16.7864 Q1483.46 16.7864 1486.88 20.5884 Q1490.31 24.3645 1490.31 30.8748 M1485.52 29.4686 Q1485.47 25.5363 1483.31 23.1926 Q1481.17 20.8488 1477.63 20.8488 Q1473.62 20.8488 1471.2 23.1145 Q1468.8 25.3801 1468.44 29.4946 L1485.52 29.4686 Z" fill="#000000" fill-rule="nonzero" fill-opacity="1" /><path clip-path="url(#clip620)" d="M1519.17 18.6093 L1519.17 23.0884 Q1517.14 21.9686 1515.08 21.4218 Q1513.05 20.8488 1510.96 20.8488 Q1506.3 20.8488 1503.73 23.8176 Q1501.15 26.7603 1501.15 32.0988 Q1501.15 37.4373 1503.73 40.406 Q1506.3 43.3487 1510.96 43.3487 Q1513.05 43.3487 1515.08 42.8019 Q1517.14 42.2289 1519.17 41.1092 L1519.17 45.5362 Q1517.16 46.4737 1515 46.9425 Q1512.87 47.4112 1510.44 47.4112 Q1503.86 47.4112 1499.98 43.2706 Q1496.09 39.13 1496.09 32.0988 Q1496.09 24.9634 1500 20.8749 Q1503.93 16.7864 1510.76 16.7864 Q1512.97 16.7864 1515.08 17.2551 Q1517.19 17.6978 1519.17 18.6093 Z" fill="#000000" fill-rule="nonzero" fill-opacity="1" /><path clip-path="url(#clip620)" d="M1532.24 9.20828 L1532.24 17.4895 L1542.11 17.4895 L1542.11 21.2134 L1532.24 21.2134 L1532.24 37.0467 Q1532.24 40.6144 1533.2 41.63 Q1534.19 42.6456 1537.19 42.6456 L1542.11 42.6456 L1542.11 46.656 L1537.19 46.656 Q1531.64 46.656 1529.53 44.5987 Q1527.42 42.5154 1527.42 37.0467 L1527.42 21.2134 L1523.91 21.2134 L1523.91 17.4895 L1527.42 17.4895 L1527.42 9.20828 L1532.24 9.20828 Z" fill="#000000" fill-rule="nonzero" fill-opacity="1" /><path clip-path="url(#clip620)" d="M1559.71 20.8488 Q1555.86 20.8488 1553.62 23.8697 Q1551.38 26.8644 1551.38 32.0988 Q1551.38 37.3331 1553.59 40.354 Q1555.83 43.3487 1559.71 43.3487 Q1563.54 43.3487 1565.78 40.3279 Q1568.02 37.3071 1568.02 32.0988 Q1568.02 26.9165 1565.78 23.8957 Q1563.54 20.8488 1559.71 20.8488 M1559.71 16.7864 Q1565.96 16.7864 1569.53 20.8488 Q1573.1 24.9113 1573.1 32.0988 Q1573.1 39.2602 1569.53 43.3487 Q1565.96 47.4112 1559.71 47.4112 Q1553.44 47.4112 1549.87 43.3487 Q1546.33 39.2602 1546.33 32.0988 Q1546.33 24.9113 1549.87 20.8488 Q1553.44 16.7864 1559.71 16.7864 Z" fill="#000000" fill-rule="nonzero" fill-opacity="1" /><path clip-path="url(#clip620)" d="M1597.94 21.9686 Q1597.14 21.4999 1596.17 21.2916 Q1595.24 21.0572 1594.09 21.0572 Q1590.03 21.0572 1587.84 23.7134 Q1585.68 26.3436 1585.68 31.2915 L1585.68 46.656 L1580.86 46.656 L1580.86 17.4895 L1585.68 17.4895 L1585.68 22.0207 Q1587.19 19.3645 1589.61 18.0884 Q1592.03 16.7864 1595.5 16.7864 Q1595.99 16.7864 1596.59 16.8645 Q1597.19 16.9166 1597.92 17.0468 L1597.94 21.9686 Z" fill="#000000" fill-rule="nonzero" fill-opacity="1" /><path clip-path="url(#clip620)" d="M1631.22 20.8488 Q1627.37 20.8488 1625.13 23.8697 Q1622.89 26.8644 1622.89 32.0988 Q1622.89 37.3331 1625.1 40.354 Q1627.34 43.3487 1631.22 43.3487 Q1635.05 43.3487 1637.29 40.3279 Q1639.53 37.3071 1639.53 32.0988 Q1639.53 26.9165 1637.29 23.8957 Q1635.05 20.8488 1631.22 20.8488 M1631.22 16.7864 Q1637.47 16.7864 1641.04 20.8488 Q1644.61 24.9113 1644.61 32.0988 Q1644.61 39.2602 1641.04 43.3487 Q1637.47 47.4112 1631.22 47.4112 Q1624.95 47.4112 1621.38 43.3487 Q1617.84 39.2602 1617.84 32.0988 Q1617.84 24.9113 1621.38 20.8488 Q1624.95 16.7864 1631.22 16.7864 Z" fill="#000000" fill-rule="nonzero" fill-opacity="1" /><path clip-path="url(#clip620)" d="M1667.32 6.13538 L1667.32 10.1197 L1662.73 10.1197 Q1660.16 10.1197 1659.14 11.1614 Q1658.15 12.2031 1658.15 14.9114 L1658.15 17.4895 L1666.04 17.4895 L1666.04 21.2134 L1658.15 21.2134 L1658.15 46.656 L1653.33 46.656 L1653.33 21.2134 L1648.75 21.2134 L1648.75 17.4895 L1653.33 17.4895 L1653.33 15.4583 Q1653.33 10.5885 1655.6 8.37496 Q1657.86 6.13538 1662.79 6.13538 L1667.32 6.13538 Z" fill="#000000" fill-rule="nonzero" fill-opacity="1" /><path clip-path="url(#clip620)" d="M1683.1 7.776 L1715.99 7.776 L1715.99 12.2031 L1702.19 12.2031 L1702.19 46.656 L1696.9 46.656 L1696.9 12.2031 L1683.1 12.2031 L1683.1 7.776 Z" fill="#000000" fill-rule="nonzero" fill-opacity="1" /><path clip-path="url(#clip620)" d="M1720.1 6.18747 L1724.27 6.18747 Q1728.18 12.3333 1730.1 18.2187 Q1732.06 24.104 1732.06 29.9113 Q1732.06 35.7446 1730.1 41.656 Q1728.18 47.5675 1724.27 53.6872 L1720.1 53.6872 Q1723.57 47.7237 1725.26 41.8383 Q1726.98 35.9269 1726.98 29.9113 Q1726.98 23.8957 1725.26 18.0364 Q1723.57 12.177 1720.1 6.18747 Z" fill="#000000" fill-rule="nonzero" fill-opacity="1" /><path clip-path="url(#clip620)" d="M1764.79 5.90101 L1764.79 59.2341 L1760.36 59.2341 L1760.36 5.90101 L1764.79 5.90101 Z" fill="#000000" fill-rule="nonzero" fill-opacity="1" /><path clip-path="url(#clip620)" d="M1817.06 9.05203 L1817.06 14.1822 Q1814.06 12.7499 1811.41 12.0468 Q1808.75 11.3437 1806.28 11.3437 Q1801.98 11.3437 1799.64 13.0103 Q1797.32 14.677 1797.32 17.7499 Q1797.32 20.328 1798.85 21.6561 Q1800.42 22.9582 1804.74 23.7655 L1807.92 24.4165 Q1813.8 25.5363 1816.59 28.3748 Q1819.4 31.1873 1819.4 35.9269 Q1819.4 41.5779 1815.6 44.4946 Q1811.82 47.4112 1804.5 47.4112 Q1801.74 47.4112 1798.62 46.7862 Q1795.52 46.1612 1792.19 44.9373 L1792.19 39.5206 Q1795.39 41.3175 1798.46 42.2289 Q1801.54 43.1404 1804.5 43.1404 Q1809.01 43.1404 1811.46 41.3696 Q1813.91 39.5987 1813.91 36.3175 Q1813.91 33.4529 1812.13 31.8384 Q1810.39 30.2238 1806.38 29.4165 L1803.18 28.7915 Q1797.29 27.6196 1794.66 25.1197 Q1792.03 22.6197 1792.03 18.1666 Q1792.03 13.0103 1795.65 10.0416 Q1799.3 7.07288 1805.68 7.07288 Q1808.41 7.07288 1811.25 7.56767 Q1814.09 8.06246 1817.06 9.05203 Z" fill="#000000" fill-rule="nonzero" fill-opacity="1" /><path clip-path="url(#clip620)" d="M1832.86 12.0989 L1832.86 26.7082 L1839.48 26.7082 Q1843.15 26.7082 1845.16 24.8072 Q1847.16 22.9061 1847.16 19.3905 Q1847.16 15.901 1845.16 13.9999 Q1843.15 12.0989 1839.48 12.0989 L1832.86 12.0989 M1827.6 7.776 L1839.48 7.776 Q1846.01 7.776 1849.35 10.7447 Q1852.71 13.6874 1852.71 19.3905 Q1852.71 25.1457 1849.35 28.0884 Q1846.01 31.0311 1839.48 31.0311 L1832.86 31.0311 L1832.86 46.656 L1827.6 46.656 L1827.6 7.776 Z" fill="#000000" fill-rule="nonzero" fill-opacity="1" /><path clip-path="url(#clip620)" d="M1853.25 7.776 L1858.91 7.776 L1869.69 23.7655 L1880.39 7.776 L1886.04 7.776 L1872.29 28.1405 L1872.29 46.656 L1867 46.656 L1867 28.1405 L1853.25 7.776 Z" fill="#000000" fill-rule="nonzero" fill-opacity="1" /><path clip-path="url(#clip620)" d="M1914.09 5.90101 L1914.09 59.2341 L1909.66 59.2341 L1909.66 5.90101 L1914.09 5.90101 Z" fill="#000000" fill-rule="nonzero" fill-opacity="1" /><path clip-path="url(#clip620)" d="M1972.16 10.7708 L1972.16 16.3176 Q1969.5 13.8437 1966.48 12.6197 Q1963.49 11.3958 1960.1 11.3958 Q1953.44 11.3958 1949.89 15.4843 Q1946.35 19.5468 1946.35 27.2551 Q1946.35 34.9373 1949.89 39.0258 Q1953.44 43.0883 1960.1 43.0883 Q1963.49 43.0883 1966.48 41.8644 Q1969.5 40.6404 1972.16 38.1665 L1972.16 43.6612 Q1969.4 45.5362 1966.3 46.4737 Q1963.23 47.4112 1959.79 47.4112 Q1950.96 47.4112 1945.88 42.0206 Q1940.81 36.604 1940.81 27.2551 Q1940.81 17.8801 1945.88 12.4895 Q1950.96 7.07288 1959.79 7.07288 Q1963.28 7.07288 1966.35 8.01037 Q1969.45 8.92183 1972.16 10.7708 Z" fill="#000000" fill-rule="nonzero" fill-opacity="1" /><path clip-path="url(#clip620)" d="M1980.29 7.776 L1985.55 7.776 L1985.55 23.7134 L2004.66 23.7134 L2004.66 7.776 L2009.92 7.776 L2009.92 46.656 L2004.66 46.656 L2004.66 28.1405 L1985.55 28.1405 L1985.55 46.656 L1980.29 46.656 L1980.29 7.776 Z" fill="#000000" fill-rule="nonzero" fill-opacity="1" /><path clip-path="url(#clip620)" d="M2020.39 7.776 L2028.23 7.776 L2038.15 34.2342 L2048.12 7.776 L2055.96 7.776 L2055.96 46.656 L2050.83 46.656 L2050.83 12.5156 L2040.81 39.1821 L2035.52 39.1821 L2025.49 12.5156 L2025.49 46.656 L2020.39 46.656 L2020.39 7.776 Z" fill="#000000" fill-rule="nonzero" fill-opacity="1" /><path clip-path="url(#clip620)" d="M2066.4 7.776 L2074.24 7.776 L2084.16 34.2342 L2094.14 7.776 L2101.98 7.776 L2101.98 46.656 L2096.85 46.656 L2096.85 12.5156 L2086.82 39.1821 L2081.53 39.1821 L2071.51 12.5156 L2071.51 46.656 L2066.4 46.656 L2066.4 7.776 Z" fill="#000000" fill-rule="nonzero" fill-opacity="1" /><path clip-path="url(#clip620)" d="M2109.79 29.9113 L2123.83 29.9113 L2123.83 34.1821 L2109.79 34.1821 L2109.79 29.9113 Z" fill="#000000" fill-rule="nonzero" fill-opacity="1" /><path clip-path="url(#clip620)" d="M2131.66 7.776 L2136.92 7.776 L2136.92 42.2289 L2155.86 42.2289 L2155.86 46.656 L2131.66 46.656 L2131.66 7.776 Z" fill="#000000" fill-rule="nonzero" fill-opacity="1" /><path clip-path="url(#clip620)" d="M2162.39 40.0415 L2167.89 40.0415 L2167.89 44.5206 L2163.62 52.8539 L2160.26 52.8539 L2162.39 44.5206 L2162.39 40.0415 Z" fill="#000000" fill-rule="nonzero" fill-opacity="1" /><path clip-path="url(#clip620)" d="M2195.28 7.776 L2200.54 7.776 L2200.54 24.2082 L2217.99 7.776 L2224.76 7.776 L2205.47 25.9009 L2226.14 46.656 L2219.22 46.656 L2200.54 27.9321 L2200.54 46.656 L2195.28 46.656 L2195.28 7.776 Z" fill="#000000" fill-rule="nonzero" fill-opacity="1" /><path clip-path="url(#clip620)" d="M2230.67 22.4374 L2264.06 22.4374 L2264.06 26.8124 L2230.67 26.8124 L2230.67 22.4374 M2230.67 33.0623 L2264.06 33.0623 L2264.06 37.4894 L2230.67 37.4894 L2230.67 33.0623 Z" fill="#000000" fill-rule="nonzero" fill-opacity="1" /><path clip-path="url(#clip620)" d="M2276.33 42.2289 L2284.92 42.2289 L2284.92 12.5676 L2275.57 14.4426 L2275.57 9.65099 L2284.87 7.776 L2290.13 7.776 L2290.13 42.2289 L2298.72 42.2289 L2298.72 46.656 L2276.33 46.656 L2276.33 42.2289 Z" fill="#000000" fill-rule="nonzero" fill-opacity="1" /><path clip-path="url(#clip620)" d="M2320.6 28.1926 Q2316.85 28.1926 2314.68 30.1978 Q2312.55 32.203 2312.55 35.7186 Q2312.55 39.2342 2314.68 41.2394 Q2316.85 43.2446 2320.6 43.2446 Q2324.35 43.2446 2326.51 41.2394 Q2328.67 39.2081 2328.67 35.7186 Q2328.67 32.203 2326.51 30.1978 Q2324.37 28.1926 2320.6 28.1926 M2315.34 25.953 Q2311.95 25.1197 2310.05 22.802 Q2308.17 20.4843 2308.17 17.1509 Q2308.17 12.4895 2311.48 9.7812 Q2314.81 7.07288 2320.6 7.07288 Q2326.4 7.07288 2329.71 9.7812 Q2333.02 12.4895 2333.02 17.1509 Q2333.02 20.4843 2331.12 22.802 Q2329.24 25.1197 2325.88 25.953 Q2329.68 26.8384 2331.79 29.4165 Q2333.93 31.9946 2333.93 35.7186 Q2333.93 41.3696 2330.47 44.3904 Q2327.03 47.4112 2320.6 47.4112 Q2314.16 47.4112 2310.7 44.3904 Q2307.26 41.3696 2307.26 35.7186 Q2307.26 31.9946 2309.4 29.4165 Q2311.53 26.8384 2315.34 25.953 M2313.41 17.6457 Q2313.41 20.6666 2315.28 22.3593 Q2317.18 24.052 2320.6 24.052 Q2323.98 24.052 2325.88 22.3593 Q2327.81 20.6666 2327.81 17.6457 Q2327.81 14.6249 2325.88 12.9322 Q2323.98 11.2395 2320.6 11.2395 Q2317.18 11.2395 2315.28 12.9322 Q2313.41 14.6249 2313.41 17.6457 Z" fill="#000000" fill-rule="nonzero" fill-opacity="1" /><path clip-path="url(#clip622)" d="M577.811 180.612 L577.811 1241.31 L649.608 1241.31 L649.608 180.612 L577.811 180.612 L577.811 180.612  Z" fill="#4682b4" fill-rule="evenodd" fill-opacity="0.7"/>
<polyline clip-path="url(#clip622)" style="stroke:#000000; stroke-linecap:round; stroke-linejoin:round; stroke-width:4; stroke-opacity:0.7; fill:none" points="577.811,180.612 577.811,1241.31 649.608,1241.31 649.608,180.612 577.811,180.612 "/>
<path clip-path="url(#clip622)" d="M667.557 1130.93 L667.557 1241.31 L739.354 1241.31 L739.354 1130.93 L667.557 1130.93 L667.557 1130.93  Z" fill="#4682b4" fill-rule="evenodd" fill-opacity="0.7"/>
<polyline clip-path="url(#clip622)" style="stroke:#000000; stroke-linecap:round; stroke-linejoin:round; stroke-width:4; stroke-opacity:0.7; fill:none" points="667.557,1130.93 667.557,1241.31 739.354,1241.31 739.354,1130.93 667.557,1130.93 "/>
<path clip-path="url(#clip622)" d="M757.303 1124.75 L757.303 1241.31 L829.1 1241.31 L829.1 1124.75 L757.303 1124.75 L757.303 1124.75  Z" fill="#4682b4" fill-rule="evenodd" fill-opacity="0.7"/>
<polyline clip-path="url(#clip622)" style="stroke:#000000; stroke-linecap:round; stroke-linejoin:round; stroke-width:4; stroke-opacity:0.7; fill:none" points="757.303,1124.75 757.303,1241.31 829.1,1241.31 829.1,1124.75 757.303,1124.75 "/>
<path clip-path="url(#clip622)" d="M847.049 1114.78 L847.049 1241.31 L918.846 1241.31 L918.846 1114.78 L847.049 1114.78 L847.049 1114.78  Z" fill="#4682b4" fill-rule="evenodd" fill-opacity="0.7"/>
<polyline clip-path="url(#clip622)" style="stroke:#000000; stroke-linecap:round; stroke-linejoin:round; stroke-width:4; stroke-opacity:0.7; fill:none" points="847.049,1114.78 847.049,1241.31 918.846,1241.31 918.846,1114.78 847.049,1114.78 "/>
<path clip-path="url(#clip622)" d="M936.796 1154.78 L936.796 1241.31 L1008.59 1241.31 L1008.59 1154.78 L936.796 1154.78 L936.796 1154.78  Z" fill="#4682b4" fill-rule="evenodd" fill-opacity="0.7"/>
<polyline clip-path="url(#clip622)" style="stroke:#000000; stroke-linecap:round; stroke-linejoin:round; stroke-width:4; stroke-opacity:0.7; fill:none" points="936.796,1154.78 936.796,1241.31 1008.59,1241.31 1008.59,1154.78 936.796,1154.78 "/>
<path clip-path="url(#clip622)" d="M1026.54 1054.43 L1026.54 1241.31 L1098.34 1241.31 L1098.34 1054.43 L1026.54 1054.43 L1026.54 1054.43  Z" fill="#4682b4" fill-rule="evenodd" fill-opacity="0.7"/>
<polyline clip-path="url(#clip622)" style="stroke:#000000; stroke-linecap:round; stroke-linejoin:round; stroke-width:4; stroke-opacity:0.7; fill:none" points="1026.54,1054.43 1026.54,1241.31 1098.34,1241.31 1098.34,1054.43 1026.54,1054.43 "/>
<path clip-path="url(#clip622)" d="M1116.29 1016.82 L1116.29 1241.31 L1188.08 1241.31 L1188.08 1016.82 L1116.29 1016.82 L1116.29 1016.82  Z" fill="#4682b4" fill-rule="evenodd" fill-opacity="0.7"/>
<polyline clip-path="url(#clip622)" style="stroke:#000000; stroke-linecap:round; stroke-linejoin:round; stroke-width:4; stroke-opacity:0.7; fill:none" points="1116.29,1016.82 1116.29,1241.31 1188.08,1241.31 1188.08,1016.82 1116.29,1016.82 "/>
<path clip-path="url(#clip622)" d="M1206.03 1129.11 L1206.03 1241.31 L1277.83 1241.31 L1277.83 1129.11 L1206.03 1129.11 L1206.03 1129.11  Z" fill="#4682b4" fill-rule="evenodd" fill-opacity="0.7"/>
<polyline clip-path="url(#clip622)" style="stroke:#000000; stroke-linecap:round; stroke-linejoin:round; stroke-width:4; stroke-opacity:0.7; fill:none" points="1206.03,1129.11 1206.03,1241.31 1277.83,1241.31 1277.83,1129.11 1206.03,1129.11 "/>
<path clip-path="url(#clip622)" d="M1295.78 1145.1 L1295.78 1241.31 L1367.58 1241.31 L1367.58 1145.1 L1295.78 1145.1 L1295.78 1145.1  Z" fill="#4682b4" fill-rule="evenodd" fill-opacity="0.7"/>
<polyline clip-path="url(#clip622)" style="stroke:#000000; stroke-linecap:round; stroke-linejoin:round; stroke-width:4; stroke-opacity:0.7; fill:none" points="1295.78,1145.1 1295.78,1241.31 1367.58,1241.31 1367.58,1145.1 1295.78,1145.1 "/>
<path clip-path="url(#clip622)" d="M1385.53 993.224 L1385.53 1241.31 L1457.32 1241.31 L1457.32 993.224 L1385.53 993.224 L1385.53 993.224  Z" fill="#4682b4" fill-rule="evenodd" fill-opacity="0.7"/>
<polyline clip-path="url(#clip622)" style="stroke:#000000; stroke-linecap:round; stroke-linejoin:round; stroke-width:4; stroke-opacity:0.7; fill:none" points="1385.53,993.224 1385.53,1241.31 1457.32,1241.31 1457.32,993.224 1385.53,993.224 "/>
<path clip-path="url(#clip622)" d="M1475.27 1102.23 L1475.27 1241.31 L1547.07 1241.31 L1547.07 1102.23 L1475.27 1102.23 L1475.27 1102.23  Z" fill="#4682b4" fill-rule="evenodd" fill-opacity="0.7"/>
<polyline clip-path="url(#clip622)" style="stroke:#000000; stroke-linecap:round; stroke-linejoin:round; stroke-width:4; stroke-opacity:0.7; fill:none" points="1475.27,1102.23 1475.27,1241.31 1547.07,1241.31 1547.07,1102.23 1475.27,1102.23 "/>
<path clip-path="url(#clip622)" d="M1565.02 1061.45 L1565.02 1241.31 L1636.81 1241.31 L1636.81 1061.45 L1565.02 1061.45 L1565.02 1061.45  Z" fill="#4682b4" fill-rule="evenodd" fill-opacity="0.7"/>
<polyline clip-path="url(#clip622)" style="stroke:#000000; stroke-linecap:round; stroke-linejoin:round; stroke-width:4; stroke-opacity:0.7; fill:none" points="1565.02,1061.45 1565.02,1241.31 1636.81,1241.31 1636.81,1061.45 1565.02,1061.45 "/>
<path clip-path="url(#clip622)" d="M1654.76 1065.26 L1654.76 1241.31 L1726.56 1241.31 L1726.56 1065.26 L1654.76 1065.26 L1654.76 1065.26  Z" fill="#4682b4" fill-rule="evenodd" fill-opacity="0.7"/>
<polyline clip-path="url(#clip622)" style="stroke:#000000; stroke-linecap:round; stroke-linejoin:round; stroke-width:4; stroke-opacity:0.7; fill:none" points="1654.76,1065.26 1654.76,1241.31 1726.56,1241.31 1726.56,1065.26 1654.76,1065.26 "/>
<path clip-path="url(#clip622)" d="M1744.51 992.15 L1744.51 1241.31 L1816.31 1241.31 L1816.31 992.15 L1744.51 992.15 L1744.51 992.15  Z" fill="#4682b4" fill-rule="evenodd" fill-opacity="0.7"/>
<polyline clip-path="url(#clip622)" style="stroke:#000000; stroke-linecap:round; stroke-linejoin:round; stroke-width:4; stroke-opacity:0.7; fill:none" points="1744.51,992.15 1744.51,1241.31 1816.31,1241.31 1816.31,992.15 1744.51,992.15 "/>
<path clip-path="url(#clip622)" d="M1834.26 1119.8 L1834.26 1241.31 L1906.05 1241.31 L1906.05 1119.8 L1834.26 1119.8 L1834.26 1119.8  Z" fill="#4682b4" fill-rule="evenodd" fill-opacity="0.7"/>
<polyline clip-path="url(#clip622)" style="stroke:#000000; stroke-linecap:round; stroke-linejoin:round; stroke-width:4; stroke-opacity:0.7; fill:none" points="1834.26,1119.8 1834.26,1241.31 1906.05,1241.31 1906.05,1119.8 1834.26,1119.8 "/>
<path clip-path="url(#clip622)" d="M1924 1172.77 L1924 1241.31 L1995.8 1241.31 L1995.8 1172.77 L1924 1172.77 L1924 1172.77  Z" fill="#4682b4" fill-rule="evenodd" fill-opacity="0.7"/>
<polyline clip-path="url(#clip622)" style="stroke:#000000; stroke-linecap:round; stroke-linejoin:round; stroke-width:4; stroke-opacity:0.7; fill:none" points="1924,1172.77 1924,1241.31 1995.8,1241.31 1995.8,1172.77 1924,1172.77 "/>
<path clip-path="url(#clip622)" d="M2013.75 1096.62 L2013.75 1241.31 L2085.55 1241.31 L2085.55 1096.62 L2013.75 1096.62 L2013.75 1096.62  Z" fill="#4682b4" fill-rule="evenodd" fill-opacity="0.7"/>
<polyline clip-path="url(#clip622)" style="stroke:#000000; stroke-linecap:round; stroke-linejoin:round; stroke-width:4; stroke-opacity:0.7; fill:none" points="2013.75,1096.62 2013.75,1241.31 2085.55,1241.31 2085.55,1096.62 2013.75,1096.62 "/>
<path clip-path="url(#clip622)" d="M2103.49 986.913 L2103.49 1241.31 L2175.29 1241.31 L2175.29 986.913 L2103.49 986.913 L2103.49 986.913  Z" fill="#4682b4" fill-rule="evenodd" fill-opacity="0.7"/>
<polyline clip-path="url(#clip622)" style="stroke:#000000; stroke-linecap:round; stroke-linejoin:round; stroke-width:4; stroke-opacity:0.7; fill:none" points="2103.49,986.913 2103.49,1241.31 2175.29,1241.31 2175.29,986.913 2103.49,986.913 "/>
<circle clip-path="url(#clip622)" style="fill:#4682b4; stroke:none; fill-opacity:0" cx="613.71" cy="180.612" r="2"/>
<circle clip-path="url(#clip622)" style="fill:#4682b4; stroke:none; fill-opacity:0" cx="703.456" cy="1130.93" r="2"/>
<circle clip-path="url(#clip622)" style="fill:#4682b4; stroke:none; fill-opacity:0" cx="793.202" cy="1124.75" r="2"/>
<circle clip-path="url(#clip622)" style="fill:#4682b4; stroke:none; fill-opacity:0" cx="882.948" cy="1114.78" r="2"/>
<circle clip-path="url(#clip622)" style="fill:#4682b4; stroke:none; fill-opacity:0" cx="972.694" cy="1154.78" r="2"/>
<circle clip-path="url(#clip622)" style="fill:#4682b4; stroke:none; fill-opacity:0" cx="1062.44" cy="1054.43" r="2"/>
<circle clip-path="url(#clip622)" style="fill:#4682b4; stroke:none; fill-opacity:0" cx="1152.19" cy="1016.82" r="2"/>
<circle clip-path="url(#clip622)" style="fill:#4682b4; stroke:none; fill-opacity:0" cx="1241.93" cy="1129.11" r="2"/>
<circle clip-path="url(#clip622)" style="fill:#4682b4; stroke:none; fill-opacity:0" cx="1331.68" cy="1145.1" r="2"/>
<circle clip-path="url(#clip622)" style="fill:#4682b4; stroke:none; fill-opacity:0" cx="1421.42" cy="993.224" r="2"/>
<circle clip-path="url(#clip622)" style="fill:#4682b4; stroke:none; fill-opacity:0" cx="1511.17" cy="1102.23" r="2"/>
<circle clip-path="url(#clip622)" style="fill:#4682b4; stroke:none; fill-opacity:0" cx="1600.92" cy="1061.45" r="2"/>
<circle clip-path="url(#clip622)" style="fill:#4682b4; stroke:none; fill-opacity:0" cx="1690.66" cy="1065.26" r="2"/>
<circle clip-path="url(#clip622)" style="fill:#4682b4; stroke:none; fill-opacity:0" cx="1780.41" cy="992.15" r="2"/>
<circle clip-path="url(#clip622)" style="fill:#4682b4; stroke:none; fill-opacity:0" cx="1870.15" cy="1119.8" r="2"/>
<circle clip-path="url(#clip622)" style="fill:#4682b4; stroke:none; fill-opacity:0" cx="1959.9" cy="1172.77" r="2"/>
<circle clip-path="url(#clip622)" style="fill:#4682b4; stroke:none; fill-opacity:0" cx="2049.65" cy="1096.62" r="2"/>
<circle clip-path="url(#clip622)" style="fill:#4682b4; stroke:none; fill-opacity:0" cx="2139.39" cy="986.913" r="2"/>
</svg>
