<?xml version="1.0" encoding="utf-8"?>
<svg xmlns="http://www.w3.org/2000/svg" xmlns:xlink="http://www.w3.org/1999/xlink" width="600" height="400" viewBox="0 0 2400 1600">
<defs>
  <clipPath id="clip150">
    <rect x="0" y="0" width="2400" height="1600"/>
  </clipPath>
</defs>
<path clip-path="url(#clip150)" d="M0 1600 L2400 1600 L2400 8.88178e-14 L0 8.88178e-14  Z" fill="#ffffff" fill-rule="evenodd" fill-opacity="1"/>
<defs>
  <clipPath id="clip151">
    <rect x="313" y="640" width="2012" height="49"/>
  </clipPath>
</defs>
<path clip-path="url(#clip150)" d="M545.232 1241.31 L2274.02 1241.31 L2274.02 184.932 L545.232 184.932  Z" fill="#ffffff" fill-rule="evenodd" fill-opacity="1"/>
<defs>
  <clipPath id="clip152">
    <rect x="545" y="184" width="1730" height="1057"/>
  </clipPath>
</defs>
<polyline clip-path="url(#clip152)" style="stroke:#000000; stroke-linecap:round; stroke-linejoin:round; stroke-width:2; stroke-opacity:0.1; fill:none" points="566.517,1241.31 566.517,184.932 "/>
<polyline clip-path="url(#clip152)" style="stroke:#000000; stroke-linecap:round; stroke-linejoin:round; stroke-width:2; stroke-opacity:0.1; fill:none" points="842.946,1241.31 842.946,184.932 "/>
<polyline clip-path="url(#clip152)" style="stroke:#000000; stroke-linecap:round; stroke-linejoin:round; stroke-width:2; stroke-opacity:0.1; fill:none" points="1119.37,1241.31 1119.37,184.932 "/>
<polyline clip-path="url(#clip152)" style="stroke:#000000; stroke-linecap:round; stroke-linejoin:round; stroke-width:2; stroke-opacity:0.1; fill:none" points="1395.8,1241.31 1395.8,184.932 "/>
<polyline clip-path="url(#clip152)" style="stroke:#000000; stroke-linecap:round; stroke-linejoin:round; stroke-width:2; stroke-opacity:0.1; fill:none" points="1672.23,1241.31 1672.23,184.932 "/>
<polyline clip-path="url(#clip152)" style="stroke:#000000; stroke-linecap:round; stroke-linejoin:round; stroke-width:2; stroke-opacity:0.1; fill:none" points="1948.66,1241.31 1948.66,184.932 "/>
<polyline clip-path="url(#clip152)" style="stroke:#000000; stroke-linecap:round; stroke-linejoin:round; stroke-width:2; stroke-opacity:0.1; fill:none" points="2225.09,1241.31 2225.09,184.932 "/>
<polyline clip-path="url(#clip152)" style="stroke:#000000; stroke-linecap:round; stroke-linejoin:round; stroke-width:2; stroke-opacity:0.1; fill:none" points="545.232,1164.24 2274.02,1164.24 "/>
<polyline clip-path="url(#clip152)" style="stroke:#000000; stroke-linecap:round; stroke-linejoin:round; stroke-width:2; stroke-opacity:0.1; fill:none" points="545.232,1021.81 2274.02,1021.81 "/>
<polyline clip-path="url(#clip152)" style="stroke:#000000; stroke-linecap:round; stroke-linejoin:round; stroke-width:2; stroke-opacity:0.1; fill:none" points="545.232,879.391 2274.02,879.391 "/>
<polyline clip-path="url(#clip152)" style="stroke:#000000; stroke-linecap:round; stroke-linejoin:round; stroke-width:2; stroke-opacity:0.1; fill:none" points="545.232,736.968 2274.02,736.968 "/>
<polyline clip-path="url(#clip152)" style="stroke:#000000; stroke-linecap:round; stroke-linejoin:round; stroke-width:2; stroke-opacity:0.1; fill:none" points="545.232,594.544 2274.02,594.544 "/>
<polyline clip-path="url(#clip152)" style="stroke:#000000; stroke-linecap:round; stroke-linejoin:round; stroke-width:2; stroke-opacity:0.1; fill:none" points="545.232,452.121 2274.02,452.121 "/>
<polyline clip-path="url(#clip152)" style="stroke:#000000; stroke-linecap:round; stroke-linejoin:round; stroke-width:2; stroke-opacity:0.1; fill:none" points="545.232,309.698 2274.02,309.698 "/>
<polyline clip-path="url(#clip150)" style="stroke:#000000; stroke-linecap:round; stroke-linejoin:round; stroke-width:4; stroke-opacity:1; fill:none" points="545.232,1241.31 2274.02,1241.31 "/>
<polyline clip-path="url(#clip150)" style="stroke:#000000; stroke-linecap:round; stroke-linejoin:round; stroke-width:4; stroke-opacity:1; fill:none" points="566.517,1241.31 566.517,1222.41 "/>
<polyline clip-path="url(#clip150)" style="stroke:#000000; stroke-linecap:round; stroke-linejoin:round; stroke-width:4; stroke-opacity:1; fill:none" points="842.946,1241.31 842.946,1222.41 "/>
<polyline clip-path="url(#clip150)" style="stroke:#000000; stroke-linecap:round; stroke-linejoin:round; stroke-width:4; stroke-opacity:1; fill:none" points="1119.37,1241.31 1119.37,1222.41 "/>
<polyline clip-path="url(#clip150)" style="stroke:#000000; stroke-linecap:round; stroke-linejoin:round; stroke-width:4; stroke-opacity:1; fill:none" points="1395.8,1241.31 1395.8,1222.41 "/>
<polyline clip-path="url(#clip150)" style="stroke:#000000; stroke-linecap:round; stroke-linejoin:round; stroke-width:4; stroke-opacity:1; fill:none" points="1672.23,1241.31 1672.23,1222.41 "/>
<polyline clip-path="url(#clip150)" style="stroke:#000000; stroke-linecap:round; stroke-linejoin:round; stroke-width:4; stroke-opacity:1; fill:none" points="1948.66,1241.31 1948.66,1222.41 "/>
<polyline clip-path="url(#clip150)" style="stroke:#000000; stroke-linecap:round; stroke-linejoin:round; stroke-width:4; stroke-opacity:1; fill:none" points="2225.09,1241.31 2225.09,1222.41 "/>
<path clip-path="url(#clip150)" d="M566.517 1275.16 Q562.004 1275.16 559.718 1279.62 Q557.461 1284.04 557.461 1292.95 Q557.461 1301.84 559.718 1306.29 Q562.004 1310.72 566.517 1310.72 Q571.06 1310.72 573.317 1306.29 Q575.603 1301.84 575.603 1292.95 Q575.603 1284.04 573.317 1279.62 Q571.06 1275.16 566.517 1275.16 M566.517 1270.53 Q573.78 1270.53 577.599 1276.29 Q581.448 1282.02 581.448 1292.95 Q581.448 1303.86 577.599 1309.62 Q573.78 1315.35 566.517 1315.35 Q559.255 1315.35 555.406 1309.62 Q551.587 1303.86 551.587 1292.95 Q551.587 1282.02 555.406 1276.29 Q559.255 1270.53 566.517 1270.53 Z" fill="#000000" fill-rule="nonzero" fill-opacity="1" /><path clip-path="url(#clip150)" d="M811.305 1309.59 L820.854 1309.59 L820.854 1276.64 L810.466 1278.72 L810.466 1273.39 L820.796 1271.31 L826.641 1271.31 L826.641 1309.59 L836.189 1309.59 L836.189 1314.51 L811.305 1314.51 L811.305 1309.59 Z" fill="#000000" fill-rule="nonzero" fill-opacity="1" /><path clip-path="url(#clip150)" d="M860.495 1275.16 Q855.981 1275.16 853.695 1279.62 Q851.438 1284.04 851.438 1292.95 Q851.438 1301.84 853.695 1306.29 Q855.981 1310.72 860.495 1310.72 Q865.038 1310.72 867.295 1306.29 Q869.58 1301.84 869.58 1292.95 Q869.58 1284.04 867.295 1279.62 Q865.038 1275.16 860.495 1275.16 M860.495 1270.53 Q867.758 1270.53 871.577 1276.29 Q875.425 1282.02 875.425 1292.95 Q875.425 1303.86 871.577 1309.62 Q867.758 1315.35 860.495 1315.35 Q853.232 1315.35 849.384 1309.62 Q845.564 1303.86 845.564 1292.95 Q845.564 1282.02 849.384 1276.29 Q853.232 1270.53 860.495 1270.53 Z" fill="#000000" fill-rule="nonzero" fill-opacity="1" /><path clip-path="url(#clip150)" d="M1092.84 1309.59 L1113.24 1309.59 L1113.24 1314.51 L1085.81 1314.51 L1085.81 1309.59 Q1089.14 1306.15 1094.87 1300.36 Q1100.62 1294.55 1102.1 1292.87 Q1104.91 1289.71 1106.01 1287.54 Q1107.13 1285.34 1107.13 1283.23 Q1107.13 1279.79 1104.7 1277.62 Q1102.3 1275.45 1098.43 1275.45 Q1095.68 1275.45 1092.61 1276.4 Q1089.57 1277.36 1086.1 1279.3 L1086.1 1273.39 Q1089.63 1271.98 1092.7 1271.25 Q1095.76 1270.53 1098.31 1270.53 Q1105.02 1270.53 1109.02 1273.89 Q1113.01 1277.24 1113.01 1282.86 Q1113.01 1285.52 1112 1287.92 Q1111.01 1290.29 1108.38 1293.53 Q1107.66 1294.37 1103.78 1298.39 Q1099.9 1302.39 1092.84 1309.59 Z" fill="#000000" fill-rule="nonzero" fill-opacity="1" /><path clip-path="url(#clip150)" d="M1138.01 1275.16 Q1133.49 1275.16 1131.21 1279.62 Q1128.95 1284.04 1128.95 1292.95 Q1128.95 1301.84 1131.21 1306.29 Q1133.49 1310.72 1138.01 1310.72 Q1142.55 1310.72 1144.81 1306.29 Q1147.09 1301.84 1147.09 1292.95 Q1147.09 1284.04 1144.81 1279.62 Q1142.55 1275.16 1138.01 1275.16 M1138.01 1270.53 Q1145.27 1270.53 1149.09 1276.29 Q1152.94 1282.02 1152.94 1292.95 Q1152.94 1303.86 1149.09 1309.62 Q1145.27 1315.35 1138.01 1315.35 Q1130.75 1315.35 1126.9 1309.62 Q1123.08 1303.86 1123.08 1292.95 Q1123.08 1282.02 1126.9 1276.29 Q1130.75 1270.53 1138.01 1270.53 Z" fill="#000000" fill-rule="nonzero" fill-opacity="1" /><path clip-path="url(#clip150)" d="M1381.86 1291.22 Q1386.05 1292.12 1388.4 1294.95 Q1390.77 1297.79 1390.77 1301.95 Q1390.77 1308.35 1386.37 1311.85 Q1381.97 1315.35 1373.87 1315.35 Q1371.15 1315.35 1368.26 1314.8 Q1365.39 1314.28 1362.32 1313.21 L1362.32 1307.57 Q1364.76 1308.98 1367.65 1309.71 Q1370.54 1310.43 1373.7 1310.43 Q1379.19 1310.43 1382.06 1308.26 Q1384.95 1306.09 1384.95 1301.95 Q1384.95 1298.13 1382.26 1295.99 Q1379.6 1293.82 1374.82 1293.82 L1369.79 1293.82 L1369.79 1289.02 L1375.06 1289.02 Q1379.37 1289.02 1381.65 1287.31 Q1383.94 1285.58 1383.94 1282.34 Q1383.94 1279.01 1381.57 1277.24 Q1379.22 1275.45 1374.82 1275.45 Q1372.42 1275.45 1369.67 1275.97 Q1366.93 1276.49 1363.63 1277.59 L1363.63 1272.38 Q1366.95 1271.46 1369.85 1270.99 Q1372.77 1270.53 1375.35 1270.53 Q1382 1270.53 1385.88 1273.57 Q1389.76 1276.58 1389.76 1281.73 Q1389.76 1285.32 1387.7 1287.8 Q1385.65 1290.26 1381.86 1291.22 Z" fill="#000000" fill-rule="nonzero" fill-opacity="1" /><path clip-path="url(#clip150)" d="M1414.35 1275.16 Q1409.84 1275.16 1407.55 1279.62 Q1405.29 1284.04 1405.29 1292.95 Q1405.29 1301.84 1407.55 1306.29 Q1409.84 1310.72 1414.35 1310.72 Q1418.89 1310.72 1421.15 1306.29 Q1423.44 1301.84 1423.44 1292.95 Q1423.44 1284.04 1421.15 1279.62 Q1418.89 1275.16 1414.35 1275.16 M1414.35 1270.53 Q1421.61 1270.53 1425.43 1276.29 Q1429.28 1282.02 1429.28 1292.95 Q1429.28 1303.86 1425.43 1309.62 Q1421.61 1315.35 1414.35 1315.35 Q1407.09 1315.35 1403.24 1309.62 Q1399.42 1303.86 1399.42 1292.95 Q1399.42 1282.02 1403.24 1276.29 Q1407.09 1270.53 1414.35 1270.53 Z" fill="#000000" fill-rule="nonzero" fill-opacity="1" /><path clip-path="url(#clip150)" d="M1657.45 1276.4 L1642.69 1299.47 L1657.45 1299.47 L1657.45 1276.4 M1655.91 1271.31 L1663.26 1271.31 L1663.26 1299.47 L1669.42 1299.47 L1669.42 1304.33 L1663.26 1304.33 L1663.26 1314.51 L1657.45 1314.51 L1657.45 1304.33 L1637.94 1304.33 L1637.94 1298.68 L1655.91 1271.31 Z" fill="#000000" fill-rule="nonzero" fill-opacity="1" /><path clip-path="url(#clip150)" d="M1691.59 1275.16 Q1687.07 1275.16 1684.79 1279.62 Q1682.53 1284.04 1682.53 1292.95 Q1682.53 1301.84 1684.79 1306.29 Q1687.07 1310.72 1691.59 1310.72 Q1696.13 1310.72 1698.39 1306.29 Q1700.67 1301.84 1700.67 1292.95 Q1700.67 1284.04 1698.39 1279.62 Q1696.13 1275.16 1691.59 1275.16 M1691.59 1270.53 Q1698.85 1270.53 1702.67 1276.29 Q1706.52 1282.02 1706.52 1292.95 Q1706.52 1303.86 1702.67 1309.62 Q1698.85 1315.35 1691.59 1315.35 Q1684.33 1315.35 1680.48 1309.62 Q1676.66 1303.86 1676.66 1292.95 Q1676.66 1282.02 1680.48 1276.29 Q1684.33 1270.53 1691.59 1270.53 Z" fill="#000000" fill-rule="nonzero" fill-opacity="1" /><path clip-path="url(#clip150)" d="M1917.03 1271.31 L1939.98 1271.31 L1939.98 1276.23 L1922.39 1276.23 L1922.39 1286.82 Q1923.66 1286.39 1924.93 1286.18 Q1926.21 1285.95 1927.48 1285.95 Q1934.71 1285.95 1938.94 1289.92 Q1943.16 1293.88 1943.16 1300.65 Q1943.16 1307.62 1938.82 1311.5 Q1934.48 1315.35 1926.58 1315.35 Q1923.86 1315.35 1921.03 1314.89 Q1918.22 1314.42 1915.21 1313.5 L1915.21 1307.62 Q1917.81 1309.04 1920.59 1309.74 Q1923.37 1310.43 1926.47 1310.43 Q1931.47 1310.43 1934.39 1307.8 Q1937.32 1305.17 1937.32 1300.65 Q1937.32 1296.14 1934.39 1293.5 Q1931.47 1290.87 1926.47 1290.87 Q1924.12 1290.87 1921.78 1291.39 Q1919.46 1291.91 1917.03 1293.01 L1917.03 1271.31 Z" fill="#000000" fill-rule="nonzero" fill-opacity="1" /><path clip-path="url(#clip150)" d="M1967.18 1275.16 Q1962.66 1275.16 1960.38 1279.62 Q1958.12 1284.04 1958.12 1292.95 Q1958.12 1301.84 1960.38 1306.29 Q1962.66 1310.72 1967.18 1310.72 Q1971.72 1310.72 1973.98 1306.29 Q1976.26 1301.84 1976.26 1292.95 Q1976.26 1284.04 1973.98 1279.62 Q1971.72 1275.16 1967.18 1275.16 M1967.18 1270.53 Q1974.44 1270.53 1978.26 1276.29 Q1982.11 1282.02 1982.11 1292.95 Q1982.11 1303.86 1978.26 1309.62 Q1974.44 1315.35 1967.18 1315.35 Q1959.92 1315.35 1956.07 1309.62 Q1952.25 1303.86 1952.25 1292.95 Q1952.25 1282.02 1956.07 1276.29 Q1959.92 1270.53 1967.18 1270.53 Z" fill="#000000" fill-rule="nonzero" fill-opacity="1" /><path clip-path="url(#clip150)" d="M2206.84 1290.58 Q2202.91 1290.58 2200.59 1293.27 Q2198.31 1295.96 2198.31 1300.65 Q2198.31 1305.31 2200.59 1308.03 Q2202.91 1310.72 2206.84 1310.72 Q2210.78 1310.72 2213.07 1308.03 Q2215.38 1305.31 2215.38 1300.65 Q2215.38 1295.96 2213.07 1293.27 Q2210.78 1290.58 2206.84 1290.58 M2218.45 1272.27 L2218.45 1277.59 Q2216.25 1276.55 2213.99 1276 Q2211.76 1275.45 2209.56 1275.45 Q2203.78 1275.45 2200.71 1279.36 Q2197.67 1283.26 2197.24 1291.16 Q2198.95 1288.64 2201.52 1287.31 Q2204.1 1285.95 2207.19 1285.95 Q2213.7 1285.95 2217.46 1289.92 Q2221.25 1293.85 2221.25 1300.65 Q2221.25 1307.31 2217.32 1311.33 Q2213.38 1315.35 2206.84 1315.35 Q2199.35 1315.35 2195.39 1309.62 Q2191.42 1303.86 2191.42 1292.95 Q2191.42 1282.71 2196.28 1276.64 Q2201.14 1270.53 2209.33 1270.53 Q2211.53 1270.53 2213.76 1270.96 Q2216.02 1271.4 2218.45 1272.27 Z" fill="#000000" fill-rule="nonzero" fill-opacity="1" /><path clip-path="url(#clip150)" d="M2243.82 1275.16 Q2239.31 1275.16 2237.02 1279.62 Q2234.77 1284.04 2234.77 1292.95 Q2234.77 1301.84 2237.02 1306.29 Q2239.31 1310.72 2243.82 1310.72 Q2248.37 1310.72 2250.62 1306.29 Q2252.91 1301.84 2252.91 1292.95 Q2252.91 1284.04 2250.62 1279.62 Q2248.37 1275.16 2243.82 1275.16 M2243.82 1270.53 Q2251.09 1270.53 2254.91 1276.29 Q2258.75 1282.02 2258.75 1292.95 Q2258.75 1303.86 2254.91 1309.62 Q2251.09 1315.35 2243.82 1315.35 Q2236.56 1315.35 2232.71 1309.62 Q2228.89 1303.86 2228.89 1292.95 Q2228.89 1282.02 2232.71 1276.29 Q2236.56 1270.53 2243.82 1270.53 Z" fill="#000000" fill-rule="nonzero" fill-opacity="1" /><path clip-path="url(#clip150)" d="M1277.34 1351.62 L1283.77 1351.62 L1283.77 1399.14 L1277.34 1399.14 L1277.34 1351.62 Z" fill="#000000" fill-rule="nonzero" fill-opacity="1" /><path clip-path="url(#clip150)" d="M1302.11 1353.37 L1302.11 1363.49 L1314.17 1363.49 L1314.17 1368.04 L1302.11 1368.04 L1302.11 1387.39 Q1302.11 1391.75 1303.28 1392.99 Q1304.49 1394.23 1308.15 1394.23 L1314.17 1394.23 L1314.17 1399.14 L1308.15 1399.14 Q1301.38 1399.14 1298.8 1396.62 Q1296.22 1394.07 1296.22 1387.39 L1296.22 1368.04 L1291.92 1368.04 L1291.92 1363.49 L1296.22 1363.49 L1296.22 1353.37 L1302.11 1353.37 Z" fill="#000000" fill-rule="nonzero" fill-opacity="1" /><path clip-path="url(#clip150)" d="M1352.36 1379.85 L1352.36 1382.71 L1325.44 1382.71 Q1325.82 1388.76 1329.07 1391.94 Q1332.34 1395.09 1338.17 1395.09 Q1341.54 1395.09 1344.69 1394.27 Q1347.88 1393.44 1351 1391.78 L1351 1397.32 Q1347.84 1398.66 1344.53 1399.36 Q1341.22 1400.06 1337.82 1400.06 Q1329.29 1400.06 1324.29 1395.09 Q1319.33 1390.13 1319.33 1381.66 Q1319.33 1372.91 1324.04 1367.78 Q1328.78 1362.63 1336.8 1362.63 Q1343.99 1362.63 1348.16 1367.28 Q1352.36 1371.89 1352.36 1379.85 M1346.51 1378.13 Q1346.44 1373.32 1343.8 1370.46 Q1341.19 1367.59 1336.86 1367.59 Q1331.96 1367.59 1329 1370.36 Q1326.07 1373.13 1325.63 1378.16 L1346.51 1378.13 Z" fill="#000000" fill-rule="nonzero" fill-opacity="1" /><path clip-path="url(#clip150)" d="M1382.63 1368.96 Q1381.65 1368.39 1380.47 1368.13 Q1379.32 1367.85 1377.92 1367.85 Q1372.96 1367.85 1370.28 1371.09 Q1367.64 1374.31 1367.64 1380.36 L1367.64 1399.14 L1361.75 1399.14 L1361.75 1363.49 L1367.64 1363.49 L1367.64 1369.03 Q1369.49 1365.78 1372.45 1364.22 Q1375.41 1362.63 1379.64 1362.63 Q1380.25 1362.63 1380.98 1362.72 Q1381.71 1362.79 1382.6 1362.95 L1382.63 1368.96 Z" fill="#000000" fill-rule="nonzero" fill-opacity="1" /><path clip-path="url(#clip150)" d="M1404.98 1381.22 Q1397.88 1381.22 1395.14 1382.84 Q1392.4 1384.46 1392.4 1388.38 Q1392.4 1391.5 1394.44 1393.34 Q1396.51 1395.16 1400.04 1395.16 Q1404.91 1395.16 1407.84 1391.72 Q1410.8 1388.25 1410.8 1382.52 L1410.8 1381.22 L1404.98 1381.22 M1416.66 1378.8 L1416.66 1399.14 L1410.8 1399.14 L1410.8 1393.72 Q1408.8 1396.97 1405.8 1398.53 Q1402.81 1400.06 1398.48 1400.06 Q1393.01 1400.06 1389.76 1397 Q1386.55 1393.92 1386.55 1388.76 Q1386.55 1382.74 1390.56 1379.69 Q1394.6 1376.63 1402.59 1376.63 L1410.8 1376.63 L1410.8 1376.06 Q1410.8 1372.02 1408.13 1369.82 Q1405.49 1367.59 1400.68 1367.59 Q1397.62 1367.59 1394.73 1368.33 Q1391.83 1369.06 1389.16 1370.52 L1389.16 1365.11 Q1392.37 1363.87 1395.4 1363.26 Q1398.42 1362.63 1401.28 1362.63 Q1409.02 1362.63 1412.84 1366.64 Q1416.66 1370.65 1416.66 1378.8 Z" fill="#000000" fill-rule="nonzero" fill-opacity="1" /><path clip-path="url(#clip150)" d="M1434.51 1353.37 L1434.51 1363.49 L1446.58 1363.49 L1446.58 1368.04 L1434.51 1368.04 L1434.51 1387.39 Q1434.51 1391.75 1435.69 1392.99 Q1436.9 1394.23 1440.56 1394.23 L1446.58 1394.23 L1446.58 1399.14 L1440.56 1399.14 Q1433.78 1399.14 1431.2 1396.62 Q1428.63 1394.07 1428.63 1387.39 L1428.63 1368.04 L1424.33 1368.04 L1424.33 1363.49 L1428.63 1363.49 L1428.63 1353.37 L1434.51 1353.37 Z" fill="#000000" fill-rule="nonzero" fill-opacity="1" /><path clip-path="url(#clip150)" d="M1454.28 1363.49 L1460.14 1363.49 L1460.14 1399.14 L1454.28 1399.14 L1454.28 1363.49 M1454.28 1349.61 L1460.14 1349.61 L1460.14 1357.03 L1454.28 1357.03 L1454.28 1349.61 Z" fill="#000000" fill-rule="nonzero" fill-opacity="1" /><path clip-path="url(#clip150)" d="M1486.2 1367.59 Q1481.49 1367.59 1478.76 1371.29 Q1476.02 1374.95 1476.02 1381.34 Q1476.02 1387.74 1478.72 1391.43 Q1481.46 1395.09 1486.2 1395.09 Q1490.88 1395.09 1493.62 1391.4 Q1496.36 1387.71 1496.36 1381.34 Q1496.36 1375.01 1493.62 1371.32 Q1490.88 1367.59 1486.2 1367.59 M1486.2 1362.63 Q1493.84 1362.63 1498.2 1367.59 Q1502.56 1372.56 1502.56 1381.34 Q1502.56 1390.1 1498.2 1395.09 Q1493.84 1400.06 1486.2 1400.06 Q1478.53 1400.06 1474.17 1395.09 Q1469.84 1390.1 1469.84 1381.34 Q1469.84 1372.56 1474.17 1367.59 Q1478.53 1362.63 1486.2 1362.63 Z" fill="#000000" fill-rule="nonzero" fill-opacity="1" /><path clip-path="url(#clip150)" d="M1541.9 1377.62 L1541.9 1399.14 L1536.05 1399.14 L1536.05 1377.81 Q1536.05 1372.75 1534.07 1370.24 Q1532.1 1367.72 1528.15 1367.72 Q1523.41 1367.72 1520.67 1370.74 Q1517.94 1373.77 1517.94 1378.99 L1517.94 1399.14 L1512.05 1399.14 L1512.05 1363.49 L1517.94 1363.49 L1517.94 1369.03 Q1520.04 1365.81 1522.87 1364.22 Q1525.73 1362.63 1529.46 1362.63 Q1535.6 1362.63 1538.75 1366.45 Q1541.9 1370.24 1541.9 1377.62 Z" fill="#000000" fill-rule="nonzero" fill-opacity="1" /><polyline clip-path="url(#clip150)" style="stroke:#000000; stroke-linecap:round; stroke-linejoin:round; stroke-width:4; stroke-opacity:1; fill:none" points="545.232,1241.31 545.232,184.932 "/>
<polyline clip-path="url(#clip150)" style="stroke:#000000; stroke-linecap:round; stroke-linejoin:round; stroke-width:4; stroke-opacity:1; fill:none" points="545.232,1164.24 564.13,1164.24 "/>
<polyline clip-path="url(#clip150)" style="stroke:#000000; stroke-linecap:round; stroke-linejoin:round; stroke-width:4; stroke-opacity:1; fill:none" points="545.232,1021.81 564.13,1021.81 "/>
<polyline clip-path="url(#clip150)" style="stroke:#000000; stroke-linecap:round; stroke-linejoin:round; stroke-width:4; stroke-opacity:1; fill:none" points="545.232,879.391 564.13,879.391 "/>
<polyline clip-path="url(#clip150)" style="stroke:#000000; stroke-linecap:round; stroke-linejoin:round; stroke-width:4; stroke-opacity:1; fill:none" points="545.232,736.968 564.13,736.968 "/>
<polyline clip-path="url(#clip150)" style="stroke:#000000; stroke-linecap:round; stroke-linejoin:round; stroke-width:4; stroke-opacity:1; fill:none" points="545.232,594.544 564.13,594.544 "/>
<polyline clip-path="url(#clip150)" style="stroke:#000000; stroke-linecap:round; stroke-linejoin:round; stroke-width:4; stroke-opacity:1; fill:none" points="545.232,452.121 564.13,452.121 "/>
<polyline clip-path="url(#clip150)" style="stroke:#000000; stroke-linecap:round; stroke-linejoin:round; stroke-width:4; stroke-opacity:1; fill:none" points="545.232,309.698 564.13,309.698 "/>
<path clip-path="url(#clip150)" d="M318.985 1164.8 L356.079 1164.8 L356.079 1169.72 L318.985 1169.72 L318.985 1164.8 Z" fill="#000000" fill-rule="nonzero" fill-opacity="1" /><path clip-path="url(#clip150)" d="M368.753 1142.64 L391.698 1142.64 L391.698 1147.56 L374.106 1147.56 L374.106 1158.15 Q375.379 1157.71 376.652 1157.51 Q377.925 1157.28 379.198 1157.28 Q386.432 1157.28 390.657 1161.24 Q394.881 1165.21 394.881 1171.98 Q394.881 1178.95 390.541 1182.83 Q386.201 1186.68 378.301 1186.68 Q375.581 1186.68 372.746 1186.21 Q369.939 1185.75 366.93 1184.83 L366.93 1178.95 Q369.534 1180.37 372.312 1181.06 Q375.09 1181.76 378.186 1181.76 Q383.191 1181.76 386.114 1179.13 Q389.036 1176.49 389.036 1171.98 Q389.036 1167.46 386.114 1164.83 Q383.191 1162.2 378.186 1162.2 Q375.842 1162.2 373.498 1162.72 Q371.183 1163.24 368.753 1164.34 L368.753 1142.64 Z" fill="#000000" fill-rule="nonzero" fill-opacity="1" /><path clip-path="url(#clip150)" d="M422.456 1147.73 L407.699 1170.79 L422.456 1170.79 L422.456 1147.73 M420.923 1142.64 L428.272 1142.64 L428.272 1170.79 L434.435 1170.79 L434.435 1175.65 L428.272 1175.65 L428.272 1185.84 L422.456 1185.84 L422.456 1175.65 L402.954 1175.65 L402.954 1170.01 L420.923 1142.64 Z" fill="#000000" fill-rule="nonzero" fill-opacity="1" /><path clip-path="url(#clip150)" d="M456.6 1146.49 Q452.086 1146.49 449.8 1150.94 Q447.543 1155.37 447.543 1164.28 Q447.543 1173.16 449.8 1177.62 Q452.086 1182.05 456.6 1182.05 Q461.142 1182.05 463.399 1177.62 Q465.685 1173.16 465.685 1164.28 Q465.685 1155.37 463.399 1150.94 Q461.142 1146.49 456.6 1146.49 M456.6 1141.86 Q463.862 1141.86 467.682 1147.61 Q471.53 1153.34 471.53 1164.28 Q471.53 1175.19 467.682 1180.95 Q463.862 1186.68 456.6 1186.68 Q449.337 1186.68 445.489 1180.95 Q441.669 1175.19 441.669 1164.28 Q441.669 1153.34 445.489 1147.61 Q449.337 1141.86 456.6 1141.86 Z" fill="#000000" fill-rule="nonzero" fill-opacity="1" /><path clip-path="url(#clip150)" d="M494.302 1146.49 Q489.788 1146.49 487.502 1150.94 Q485.245 1155.37 485.245 1164.28 Q485.245 1173.16 487.502 1177.62 Q489.788 1182.05 494.302 1182.05 Q498.845 1182.05 501.102 1177.62 Q503.388 1173.16 503.388 1164.28 Q503.388 1155.37 501.102 1150.94 Q498.845 1146.49 494.302 1146.49 M494.302 1141.86 Q501.565 1141.86 505.384 1147.61 Q509.232 1153.34 509.232 1164.28 Q509.232 1175.19 505.384 1180.95 Q501.565 1186.68 494.302 1186.68 Q487.039 1186.68 483.191 1180.95 Q479.371 1175.19 479.371 1164.28 Q479.371 1153.34 483.191 1147.61 Q487.039 1141.86 494.302 1141.86 Z" fill="#000000" fill-rule="nonzero" fill-opacity="1" /><path clip-path="url(#clip150)" d="M318.985 1022.38 L356.079 1022.38 L356.079 1027.3 L318.985 1027.3 L318.985 1022.38 Z" fill="#000000" fill-rule="nonzero" fill-opacity="1" /><path clip-path="url(#clip150)" d="M368.753 1000.21 L391.698 1000.21 L391.698 1005.13 L374.106 1005.13 L374.106 1015.72 Q375.379 1015.29 376.652 1015.09 Q377.925 1014.86 379.198 1014.86 Q386.432 1014.86 390.657 1018.82 Q394.881 1022.78 394.881 1029.55 Q394.881 1036.53 390.541 1040.41 Q386.201 1044.25 378.301 1044.25 Q375.581 1044.25 372.746 1043.79 Q369.939 1043.33 366.93 1042.4 L366.93 1036.53 Q369.534 1037.95 372.312 1038.64 Q375.09 1039.33 378.186 1039.33 Q383.191 1039.33 386.114 1036.7 Q389.036 1034.07 389.036 1029.55 Q389.036 1025.04 386.114 1022.41 Q383.191 1019.77 378.186 1019.77 Q375.842 1019.77 373.498 1020.3 Q371.183 1020.82 368.753 1021.92 L368.753 1000.21 Z" fill="#000000" fill-rule="nonzero" fill-opacity="1" /><path clip-path="url(#clip150)" d="M424.106 1020.12 Q428.301 1021.02 430.645 1023.85 Q433.018 1026.69 433.018 1030.86 Q433.018 1037.25 428.619 1040.75 Q424.221 1044.25 416.119 1044.25 Q413.4 1044.25 410.506 1043.7 Q407.641 1043.18 404.574 1042.11 L404.574 1036.47 Q407.005 1037.89 409.898 1038.61 Q412.792 1039.33 415.946 1039.33 Q421.444 1039.33 424.308 1037.16 Q427.202 1034.99 427.202 1030.86 Q427.202 1027.04 424.511 1024.9 Q421.849 1022.73 417.074 1022.73 L412.04 1022.73 L412.04 1017.92 L417.306 1017.92 Q421.617 1017.92 423.903 1016.22 Q426.189 1014.48 426.189 1011.24 Q426.189 1007.91 423.816 1006.15 Q421.472 1004.35 417.074 1004.35 Q414.673 1004.35 411.924 1004.87 Q409.175 1005.39 405.876 1006.49 L405.876 1001.29 Q409.204 1000.36 412.097 999.896 Q415.02 999.433 417.595 999.433 Q424.25 999.433 428.128 1002.47 Q432.005 1005.48 432.005 1010.63 Q432.005 1014.22 429.95 1016.71 Q427.896 1019.17 424.106 1020.12 Z" fill="#000000" fill-rule="nonzero" fill-opacity="1" /><path clip-path="url(#clip150)" d="M456.6 1004.06 Q452.086 1004.06 449.8 1008.52 Q447.543 1012.95 447.543 1021.86 Q447.543 1030.74 449.8 1035.2 Q452.086 1039.62 456.6 1039.62 Q461.142 1039.62 463.399 1035.2 Q465.685 1030.74 465.685 1021.86 Q465.685 1012.95 463.399 1008.52 Q461.142 1004.06 456.6 1004.06 M456.6 999.433 Q463.862 999.433 467.682 1005.19 Q471.53 1010.92 471.53 1021.86 Q471.53 1032.77 467.682 1038.52 Q463.862 1044.25 456.6 1044.25 Q449.337 1044.25 445.489 1038.52 Q441.669 1032.77 441.669 1021.86 Q441.669 1010.92 445.489 1005.19 Q449.337 999.433 456.6 999.433 Z" fill="#000000" fill-rule="nonzero" fill-opacity="1" /><path clip-path="url(#clip150)" d="M494.302 1004.06 Q489.788 1004.06 487.502 1008.52 Q485.245 1012.95 485.245 1021.86 Q485.245 1030.74 487.502 1035.2 Q489.788 1039.62 494.302 1039.62 Q498.845 1039.62 501.102 1035.2 Q503.388 1030.74 503.388 1021.86 Q503.388 1012.95 501.102 1008.52 Q498.845 1004.06 494.302 1004.06 M494.302 999.433 Q501.565 999.433 505.384 1005.19 Q509.232 1010.92 509.232 1021.86 Q509.232 1032.77 505.384 1038.52 Q501.565 1044.25 494.302 1044.25 Q487.039 1044.25 483.191 1038.52 Q479.371 1032.77 479.371 1021.86 Q479.371 1010.92 483.191 1005.19 Q487.039 999.433 494.302 999.433 Z" fill="#000000" fill-rule="nonzero" fill-opacity="1" /><path clip-path="url(#clip150)" d="M318.985 879.955 L356.079 879.955 L356.079 884.874 L318.985 884.874 L318.985 879.955 Z" fill="#000000" fill-rule="nonzero" fill-opacity="1" /><path clip-path="url(#clip150)" d="M368.753 857.791 L391.698 857.791 L391.698 862.71 L374.106 862.71 L374.106 873.3 Q375.379 872.866 376.652 872.664 Q377.925 872.432 379.198 872.432 Q386.432 872.432 390.657 876.396 Q394.881 880.36 394.881 887.131 Q394.881 894.105 390.541 897.982 Q386.201 901.83 378.301 901.83 Q375.581 901.83 372.746 901.367 Q369.939 900.904 366.93 899.978 L366.93 894.105 Q369.534 895.522 372.312 896.217 Q375.09 896.911 378.186 896.911 Q383.191 896.911 386.114 894.278 Q389.036 891.645 389.036 887.131 Q389.036 882.617 386.114 879.984 Q383.191 877.351 378.186 877.351 Q375.842 877.351 373.498 877.872 Q371.183 878.393 368.753 879.492 L368.753 857.791 Z" fill="#000000" fill-rule="nonzero" fill-opacity="1" /><path clip-path="url(#clip150)" d="M411.432 896.072 L431.831 896.072 L431.831 900.991 L404.401 900.991 L404.401 896.072 Q407.728 892.629 413.457 886.842 Q419.216 881.026 420.691 879.348 Q423.498 876.194 424.597 874.024 Q425.726 871.825 425.726 869.712 Q425.726 866.269 423.295 864.099 Q420.894 861.929 417.016 861.929 Q414.268 861.929 411.201 862.884 Q408.162 863.839 404.69 865.777 L404.69 859.874 Q408.22 858.457 411.287 857.733 Q414.354 857.01 416.901 857.01 Q423.614 857.01 427.607 860.366 Q431.6 863.723 431.6 869.336 Q431.6 871.998 430.587 874.4 Q429.603 876.773 426.97 880.013 Q426.247 880.852 422.369 884.874 Q418.492 888.867 411.432 896.072 Z" fill="#000000" fill-rule="nonzero" fill-opacity="1" /><path clip-path="url(#clip150)" d="M456.6 861.64 Q452.086 861.64 449.8 866.096 Q447.543 870.523 447.543 879.435 Q447.543 888.318 449.8 892.774 Q452.086 897.201 456.6 897.201 Q461.142 897.201 463.399 892.774 Q465.685 888.318 465.685 879.435 Q465.685 870.523 463.399 866.096 Q461.142 861.64 456.6 861.64 M456.6 857.01 Q463.862 857.01 467.682 862.768 Q471.53 868.497 471.53 879.435 Q471.53 890.343 467.682 896.101 Q463.862 901.83 456.6 901.83 Q449.337 901.83 445.489 896.101 Q441.669 890.343 441.669 879.435 Q441.669 868.497 445.489 862.768 Q449.337 857.01 456.6 857.01 Z" fill="#000000" fill-rule="nonzero" fill-opacity="1" /><path clip-path="url(#clip150)" d="M494.302 861.64 Q489.788 861.64 487.502 866.096 Q485.245 870.523 485.245 879.435 Q485.245 888.318 487.502 892.774 Q489.788 897.201 494.302 897.201 Q498.845 897.201 501.102 892.774 Q503.388 888.318 503.388 879.435 Q503.388 870.523 501.102 866.096 Q498.845 861.64 494.302 861.64 M494.302 857.01 Q501.565 857.01 505.384 862.768 Q509.232 868.497 509.232 879.435 Q509.232 890.343 505.384 896.101 Q501.565 901.83 494.302 901.83 Q487.039 901.83 483.191 896.101 Q479.371 890.343 479.371 879.435 Q479.371 868.497 483.191 862.768 Q487.039 857.01 494.302 857.01 Z" fill="#000000" fill-rule="nonzero" fill-opacity="1" /><path clip-path="url(#clip150)" d="M318.985 737.532 L356.079 737.532 L356.079 742.451 L318.985 742.451 L318.985 737.532 Z" fill="#000000" fill-rule="nonzero" fill-opacity="1" /><path clip-path="url(#clip150)" d="M368.753 715.368 L391.698 715.368 L391.698 720.287 L374.106 720.287 L374.106 730.877 Q375.379 730.443 376.652 730.24 Q377.925 730.009 379.198 730.009 Q386.432 730.009 390.657 733.973 Q394.881 737.937 394.881 744.708 Q394.881 751.681 390.541 755.559 Q386.201 759.407 378.301 759.407 Q375.581 759.407 372.746 758.944 Q369.939 758.481 366.93 757.555 L366.93 751.681 Q369.534 753.099 372.312 753.793 Q375.09 754.488 378.186 754.488 Q383.191 754.488 386.114 751.855 Q389.036 749.222 389.036 744.708 Q389.036 740.194 386.114 737.561 Q383.191 734.928 378.186 734.928 Q375.842 734.928 373.498 735.449 Q371.183 735.97 368.753 737.069 L368.753 715.368 Z" fill="#000000" fill-rule="nonzero" fill-opacity="1" /><path clip-path="url(#clip150)" d="M407.41 753.649 L416.959 753.649 L416.959 720.692 L406.571 722.775 L406.571 717.451 L416.901 715.368 L422.746 715.368 L422.746 753.649 L432.294 753.649 L432.294 758.568 L407.41 758.568 L407.41 753.649 Z" fill="#000000" fill-rule="nonzero" fill-opacity="1" /><path clip-path="url(#clip150)" d="M456.6 719.216 Q452.086 719.216 449.8 723.672 Q447.543 728.099 447.543 737.011 Q447.543 745.894 449.8 750.35 Q452.086 754.777 456.6 754.777 Q461.142 754.777 463.399 750.35 Q465.685 745.894 465.685 737.011 Q465.685 728.099 463.399 723.672 Q461.142 719.216 456.6 719.216 M456.6 714.587 Q463.862 714.587 467.682 720.345 Q471.53 726.074 471.53 737.011 Q471.53 747.92 467.682 753.678 Q463.862 759.407 456.6 759.407 Q449.337 759.407 445.489 753.678 Q441.669 747.92 441.669 737.011 Q441.669 726.074 445.489 720.345 Q449.337 714.587 456.6 714.587 Z" fill="#000000" fill-rule="nonzero" fill-opacity="1" /><path clip-path="url(#clip150)" d="M494.302 719.216 Q489.788 719.216 487.502 723.672 Q485.245 728.099 485.245 737.011 Q485.245 745.894 487.502 750.35 Q489.788 754.777 494.302 754.777 Q498.845 754.777 501.102 750.35 Q503.388 745.894 503.388 737.011 Q503.388 728.099 501.102 723.672 Q498.845 719.216 494.302 719.216 M494.302 714.587 Q501.565 714.587 505.384 720.345 Q509.232 726.074 509.232 737.011 Q509.232 747.92 505.384 753.678 Q501.565 759.407 494.302 759.407 Q487.039 759.407 483.191 753.678 Q479.371 747.92 479.371 737.011 Q479.371 726.074 483.191 720.345 Q487.039 714.587 494.302 714.587 Z" fill="#000000" fill-rule="nonzero" fill-opacity="1" /><path clip-path="url(#clip150)" d="M318.985 595.109 L356.079 595.109 L356.079 600.028 L318.985 600.028 L318.985 595.109 Z" fill="#000000" fill-rule="nonzero" fill-opacity="1" /><path clip-path="url(#clip150)" d="M368.753 572.944 L391.698 572.944 L391.698 577.863 L374.106 577.863 L374.106 588.454 Q375.379 588.02 376.652 587.817 Q377.925 587.585 379.198 587.585 Q386.432 587.585 390.657 591.55 Q394.881 595.514 394.881 602.284 Q394.881 609.258 390.541 613.135 Q386.201 616.983 378.301 616.983 Q375.581 616.983 372.746 616.521 Q369.939 616.058 366.93 615.132 L366.93 609.258 Q369.534 610.676 372.312 611.37 Q375.09 612.065 378.186 612.065 Q383.191 612.065 386.114 609.431 Q389.036 606.798 389.036 602.284 Q389.036 597.771 386.114 595.138 Q383.191 592.504 378.186 592.504 Q375.842 592.504 373.498 593.025 Q371.183 593.546 368.753 594.646 L368.753 572.944 Z" fill="#000000" fill-rule="nonzero" fill-opacity="1" /><path clip-path="url(#clip150)" d="M418.897 576.793 Q414.383 576.793 412.097 581.249 Q409.841 585.676 409.841 594.588 Q409.841 603.471 412.097 607.927 Q414.383 612.354 418.897 612.354 Q423.44 612.354 425.697 607.927 Q427.983 603.471 427.983 594.588 Q427.983 585.676 425.697 581.249 Q423.44 576.793 418.897 576.793 M418.897 572.163 Q426.16 572.163 429.979 577.921 Q433.828 583.65 433.828 594.588 Q433.828 605.496 429.979 611.254 Q426.16 616.983 418.897 616.983 Q411.635 616.983 407.786 611.254 Q403.967 605.496 403.967 594.588 Q403.967 583.65 407.786 577.921 Q411.635 572.163 418.897 572.163 Z" fill="#000000" fill-rule="nonzero" fill-opacity="1" /><path clip-path="url(#clip150)" d="M456.6 576.793 Q452.086 576.793 449.8 581.249 Q447.543 585.676 447.543 594.588 Q447.543 603.471 449.8 607.927 Q452.086 612.354 456.6 612.354 Q461.142 612.354 463.399 607.927 Q465.685 603.471 465.685 594.588 Q465.685 585.676 463.399 581.249 Q461.142 576.793 456.6 576.793 M456.6 572.163 Q463.862 572.163 467.682 577.921 Q471.53 583.65 471.53 594.588 Q471.53 605.496 467.682 611.254 Q463.862 616.983 456.6 616.983 Q449.337 616.983 445.489 611.254 Q441.669 605.496 441.669 594.588 Q441.669 583.65 445.489 577.921 Q449.337 572.163 456.6 572.163 Z" fill="#000000" fill-rule="nonzero" fill-opacity="1" /><path clip-path="url(#clip150)" d="M494.302 576.793 Q489.788 576.793 487.502 581.249 Q485.245 585.676 485.245 594.588 Q485.245 603.471 487.502 607.927 Q489.788 612.354 494.302 612.354 Q498.845 612.354 501.102 607.927 Q503.388 603.471 503.388 594.588 Q503.388 585.676 501.102 581.249 Q498.845 576.793 494.302 576.793 M494.302 572.163 Q501.565 572.163 505.384 577.921 Q509.232 583.65 509.232 594.588 Q509.232 605.496 505.384 611.254 Q501.565 616.983 494.302 616.983 Q487.039 616.983 483.191 611.254 Q479.371 605.496 479.371 594.588 Q479.371 583.65 483.191 577.921 Q487.039 572.163 494.302 572.163 Z" fill="#000000" fill-rule="nonzero" fill-opacity="1" /><path clip-path="url(#clip150)" d="M318.985 452.685 L356.079 452.685 L356.079 457.604 L318.985 457.604 L318.985 452.685 Z" fill="#000000" fill-rule="nonzero" fill-opacity="1" /><path clip-path="url(#clip150)" d="M384.754 435.614 L369.997 458.675 L384.754 458.675 L384.754 435.614 M383.22 430.521 L390.57 430.521 L390.57 458.675 L396.733 458.675 L396.733 463.536 L390.57 463.536 L390.57 473.721 L384.754 473.721 L384.754 463.536 L365.252 463.536 L365.252 457.893 L383.22 430.521 Z" fill="#000000" fill-rule="nonzero" fill-opacity="1" /><path clip-path="url(#clip150)" d="M406.571 472.824 L406.571 467.5 Q408.77 468.542 411.027 469.091 Q413.284 469.641 415.454 469.641 Q421.241 469.641 424.279 465.764 Q427.346 461.858 427.78 453.929 Q426.102 456.418 423.527 457.749 Q420.952 459.08 417.827 459.08 Q411.345 459.08 407.555 455.174 Q403.793 451.238 403.793 444.439 Q403.793 437.784 407.728 433.762 Q411.663 429.74 418.203 429.74 Q425.697 429.74 429.632 435.498 Q433.596 441.227 433.596 452.164 Q433.596 462.378 428.735 468.484 Q423.903 474.56 415.714 474.56 Q413.515 474.56 411.258 474.126 Q409.001 473.692 406.571 472.824 M418.203 454.508 Q422.138 454.508 424.424 451.817 Q426.739 449.126 426.739 444.439 Q426.739 439.78 424.424 437.089 Q422.138 434.369 418.203 434.369 Q414.268 434.369 411.953 437.089 Q409.667 439.78 409.667 444.439 Q409.667 449.126 411.953 451.817 Q414.268 454.508 418.203 454.508 Z" fill="#000000" fill-rule="nonzero" fill-opacity="1" /><path clip-path="url(#clip150)" d="M456.6 434.369 Q452.086 434.369 449.8 438.825 Q447.543 443.252 447.543 452.164 Q447.543 461.047 449.8 465.503 Q452.086 469.93 456.6 469.93 Q461.142 469.93 463.399 465.503 Q465.685 461.047 465.685 452.164 Q465.685 443.252 463.399 438.825 Q461.142 434.369 456.6 434.369 M456.6 429.74 Q463.862 429.74 467.682 435.498 Q471.53 441.227 471.53 452.164 Q471.53 463.073 467.682 468.831 Q463.862 474.56 456.6 474.56 Q449.337 474.56 445.489 468.831 Q441.669 463.073 441.669 452.164 Q441.669 441.227 445.489 435.498 Q449.337 429.74 456.6 429.74 Z" fill="#000000" fill-rule="nonzero" fill-opacity="1" /><path clip-path="url(#clip150)" d="M494.302 434.369 Q489.788 434.369 487.502 438.825 Q485.245 443.252 485.245 452.164 Q485.245 461.047 487.502 465.503 Q489.788 469.93 494.302 469.93 Q498.845 469.93 501.102 465.503 Q503.388 461.047 503.388 452.164 Q503.388 443.252 501.102 438.825 Q498.845 434.369 494.302 434.369 M494.302 429.74 Q501.565 429.74 505.384 435.498 Q509.232 441.227 509.232 452.164 Q509.232 463.073 505.384 468.831 Q501.565 474.56 494.302 474.56 Q487.039 474.56 483.191 468.831 Q479.371 463.073 479.371 452.164 Q479.371 441.227 483.191 435.498 Q487.039 429.74 494.302 429.74 Z" fill="#000000" fill-rule="nonzero" fill-opacity="1" /><path clip-path="url(#clip150)" d="M318.985 310.262 L356.079 310.262 L356.079 315.181 L318.985 315.181 L318.985 310.262 Z" fill="#000000" fill-rule="nonzero" fill-opacity="1" /><path clip-path="url(#clip150)" d="M384.754 293.19 L369.997 316.251 L384.754 316.251 L384.754 293.19 M383.22 288.098 L390.57 288.098 L390.57 316.251 L396.733 316.251 L396.733 321.112 L390.57 321.112 L390.57 331.298 L384.754 331.298 L384.754 321.112 L365.252 321.112 L365.252 315.47 L383.22 288.098 Z" fill="#000000" fill-rule="nonzero" fill-opacity="1" /><path clip-path="url(#clip150)" d="M418.897 310.783 Q414.731 310.783 412.329 313.011 Q409.956 315.239 409.956 319.145 Q409.956 323.051 412.329 325.279 Q414.731 327.507 418.897 327.507 Q423.064 327.507 425.465 325.279 Q427.867 323.022 427.867 319.145 Q427.867 315.239 425.465 313.011 Q423.093 310.783 418.897 310.783 M413.052 308.294 Q409.291 307.368 407.179 304.793 Q405.095 302.218 405.095 298.514 Q405.095 293.335 408.77 290.326 Q412.474 287.316 418.897 287.316 Q425.35 287.316 429.024 290.326 Q432.699 293.335 432.699 298.514 Q432.699 302.218 430.587 304.793 Q428.504 307.368 424.771 308.294 Q428.996 309.278 431.339 312.143 Q433.712 315.007 433.712 319.145 Q433.712 325.424 429.864 328.78 Q426.044 332.137 418.897 332.137 Q411.75 332.137 407.902 328.78 Q404.082 325.424 404.082 319.145 Q404.082 315.007 406.455 312.143 Q408.828 309.278 413.052 308.294 M410.911 299.064 Q410.911 302.42 412.994 304.301 Q415.107 306.182 418.897 306.182 Q422.659 306.182 424.771 304.301 Q426.912 302.42 426.912 299.064 Q426.912 295.707 424.771 293.827 Q422.659 291.946 418.897 291.946 Q415.107 291.946 412.994 293.827 Q410.911 295.707 410.911 299.064 Z" fill="#000000" fill-rule="nonzero" fill-opacity="1" /><path clip-path="url(#clip150)" d="M456.6 291.946 Q452.086 291.946 449.8 296.402 Q447.543 300.829 447.543 309.741 Q447.543 318.624 449.8 323.08 Q452.086 327.507 456.6 327.507 Q461.142 327.507 463.399 323.08 Q465.685 318.624 465.685 309.741 Q465.685 300.829 463.399 296.402 Q461.142 291.946 456.6 291.946 M456.6 287.316 Q463.862 287.316 467.682 293.074 Q471.53 298.804 471.53 309.741 Q471.53 320.649 467.682 326.408 Q463.862 332.137 456.6 332.137 Q449.337 332.137 445.489 326.408 Q441.669 320.649 441.669 309.741 Q441.669 298.804 445.489 293.074 Q449.337 287.316 456.6 287.316 Z" fill="#000000" fill-rule="nonzero" fill-opacity="1" /><path clip-path="url(#clip150)" d="M494.302 291.946 Q489.788 291.946 487.502 296.402 Q485.245 300.829 485.245 309.741 Q485.245 318.624 487.502 323.08 Q489.788 327.507 494.302 327.507 Q498.845 327.507 501.102 323.08 Q503.388 318.624 503.388 309.741 Q503.388 300.829 501.102 296.402 Q498.845 291.946 494.302 291.946 M494.302 287.316 Q501.565 287.316 505.384 293.074 Q509.232 298.804 509.232 309.741 Q509.232 320.649 505.384 326.408 Q501.565 332.137 494.302 332.137 Q487.039 332.137 483.191 326.408 Q479.371 320.649 479.371 309.741 Q479.371 298.804 483.191 293.074 Q487.039 287.316 494.302 287.316 Z" fill="#000000" fill-rule="nonzero" fill-opacity="1" /><path clip-path="url(#clip150)" d="M221.209 941.253 L221.209 934.824 L263.318 934.824 L263.318 911.684 L268.729 911.684 L268.729 941.253 L221.209 941.253 Z" fill="#000000" fill-rule="nonzero" fill-opacity="1" /><path clip-path="url(#clip150)" d="M237.186 892.523 Q237.186 897.234 240.879 899.971 Q244.539 902.709 250.936 902.709 Q257.334 902.709 261.026 900.003 Q264.686 897.266 264.686 892.523 Q264.686 887.845 260.994 885.107 Q257.302 882.37 250.936 882.37 Q244.603 882.37 240.91 885.107 Q237.186 887.845 237.186 892.523 M232.221 892.523 Q232.221 884.885 237.186 880.524 Q242.152 876.164 250.936 876.164 Q259.689 876.164 264.686 880.524 Q269.652 884.885 269.652 892.523 Q269.652 900.194 264.686 904.555 Q259.689 908.883 250.936 908.883 Q242.152 908.883 237.186 904.555 Q232.221 900.194 232.221 892.523 Z" fill="#000000" fill-rule="nonzero" fill-opacity="1" /><path clip-path="url(#clip150)" d="M250.491 842.998 Q244.125 842.998 240.624 845.64 Q237.123 848.25 237.123 852.992 Q237.123 857.703 240.624 860.345 Q244.125 862.955 250.491 862.955 Q256.825 862.955 260.326 860.345 Q263.827 857.703 263.827 852.992 Q263.827 848.25 260.326 845.64 Q256.825 842.998 250.491 842.998 M264.304 837.142 Q273.407 837.142 277.832 841.184 Q282.288 845.226 282.288 853.565 Q282.288 856.653 281.81 859.39 Q281.364 862.127 280.41 864.705 L274.712 864.705 Q276.113 862.127 276.781 859.613 Q277.45 857.098 277.45 854.488 Q277.45 848.727 274.426 845.863 Q271.434 842.998 265.355 842.998 L262.458 842.998 Q265.609 844.812 267.169 847.645 Q268.729 850.478 268.729 854.425 Q268.729 860.981 263.731 864.992 Q258.734 869.002 250.491 869.002 Q242.215 869.002 237.218 864.992 Q232.221 860.981 232.221 854.425 Q232.221 850.478 233.781 847.645 Q235.34 844.812 238.491 842.998 L233.081 842.998 L233.081 837.142 L264.304 837.142 Z" fill="#000000" fill-rule="nonzero" fill-opacity="1" /><path clip-path="url(#clip150)" d="M248.263 828.039 L248.263 810.883 L253.483 810.883 L253.483 828.039 L248.263 828.039 Z" fill="#000000" fill-rule="nonzero" fill-opacity="1" /><path clip-path="url(#clip150)" d="M221.209 801.303 L221.209 794.873 L263.318 794.873 L263.318 771.734 L268.729 771.734 L268.729 801.303 L221.209 801.303 Z" fill="#000000" fill-rule="nonzero" fill-opacity="1" /><path clip-path="url(#clip150)" d="M233.081 765.241 L233.081 759.385 L268.729 759.385 L268.729 765.241 L233.081 765.241 M219.203 765.241 L219.203 759.385 L226.619 759.385 L226.619 765.241 L219.203 765.241 Z" fill="#000000" fill-rule="nonzero" fill-opacity="1" /><path clip-path="url(#clip150)" d="M219.203 747.353 L219.203 741.465 L248.454 741.465 L233.081 723.991 L233.081 716.512 L249.759 735.418 L268.729 715.716 L268.729 723.355 L251.318 741.465 L268.729 741.465 L268.729 747.353 L219.203 747.353 Z" fill="#000000" fill-rule="nonzero" fill-opacity="1" /><path clip-path="url(#clip150)" d="M249.44 681.214 L252.305 681.214 L252.305 708.141 Q258.352 707.759 261.535 704.512 Q264.686 701.234 264.686 695.409 Q264.686 692.035 263.859 688.884 Q263.031 685.702 261.376 682.582 L266.914 682.582 Q268.251 685.733 268.951 689.044 Q269.652 692.354 269.652 695.759 Q269.652 704.289 264.686 709.287 Q259.721 714.252 251.255 714.252 Q242.502 714.252 237.377 709.541 Q232.221 704.799 232.221 696.778 Q232.221 689.585 236.868 685.415 Q241.483 681.214 249.44 681.214 M247.722 687.07 Q242.916 687.134 240.051 689.776 Q237.186 692.386 237.186 696.714 Q237.186 701.616 239.956 704.576 Q242.725 707.504 247.754 707.95 L247.722 687.07 Z" fill="#000000" fill-rule="nonzero" fill-opacity="1" /><path clip-path="url(#clip150)" d="M219.203 671.602 L219.203 665.745 L268.729 665.745 L268.729 671.602 L219.203 671.602 Z" fill="#000000" fill-rule="nonzero" fill-opacity="1" /><path clip-path="url(#clip150)" d="M233.081 653.491 L233.081 647.635 L268.729 647.635 L268.729 653.491 L233.081 653.491 M219.203 653.491 L219.203 647.635 L226.619 647.635 L226.619 653.491 L219.203 653.491 Z" fill="#000000" fill-rule="nonzero" fill-opacity="1" /><path clip-path="url(#clip150)" d="M247.212 605.748 L268.729 605.748 L268.729 611.605 L247.403 611.605 Q242.343 611.605 239.828 613.578 Q237.314 615.552 237.314 619.498 Q237.314 624.241 240.338 626.978 Q243.361 629.715 248.581 629.715 L268.729 629.715 L268.729 635.603 L219.203 635.603 L219.203 629.715 L238.619 629.715 Q235.404 627.615 233.813 624.782 Q232.221 621.917 232.221 618.193 Q232.221 612.05 236.041 608.899 Q239.828 605.748 247.212 605.748 Z" fill="#000000" fill-rule="nonzero" fill-opacity="1" /><path clip-path="url(#clip150)" d="M237.186 580.254 Q237.186 584.964 240.879 587.702 Q244.539 590.439 250.936 590.439 Q257.334 590.439 261.026 587.733 Q264.686 584.996 264.686 580.254 Q264.686 575.575 260.994 572.838 Q257.302 570.1 250.936 570.1 Q244.603 570.1 240.91 572.838 Q237.186 575.575 237.186 580.254 M232.221 580.254 Q232.221 572.615 237.186 568.254 Q242.152 563.894 250.936 563.894 Q259.689 563.894 264.686 568.254 Q269.652 572.615 269.652 580.254 Q269.652 587.924 264.686 592.285 Q259.689 596.614 250.936 596.614 Q242.152 596.614 237.186 592.285 Q232.221 587.924 232.221 580.254 Z" fill="#000000" fill-rule="nonzero" fill-opacity="1" /><path clip-path="url(#clip150)" d="M237.186 540.373 Q237.186 545.083 240.879 547.82 Q244.539 550.558 250.936 550.558 Q257.334 550.558 261.026 547.852 Q264.686 545.115 264.686 540.373 Q264.686 535.694 260.994 532.956 Q257.302 530.219 250.936 530.219 Q244.603 530.219 240.91 532.956 Q237.186 535.694 237.186 540.373 M232.221 540.373 Q232.221 532.734 237.186 528.373 Q242.152 524.013 250.936 524.013 Q259.689 524.013 264.686 528.373 Q269.652 532.734 269.652 540.373 Q269.652 548.043 264.686 552.404 Q259.689 556.732 250.936 556.732 Q242.152 556.732 237.186 552.404 Q232.221 548.043 232.221 540.373 Z" fill="#000000" fill-rule="nonzero" fill-opacity="1" /><path clip-path="url(#clip150)" d="M238.491 490.847 L219.203 490.847 L219.203 484.991 L268.729 484.991 L268.729 490.847 L263.381 490.847 Q266.564 492.693 268.124 495.526 Q269.652 498.327 269.652 502.274 Q269.652 508.735 264.495 512.809 Q259.339 516.851 250.936 516.851 Q242.534 516.851 237.377 512.809 Q232.221 508.735 232.221 502.274 Q232.221 498.327 233.781 495.526 Q235.309 492.693 238.491 490.847 M250.936 510.804 Q257.398 510.804 261.09 508.162 Q264.75 505.488 264.75 500.841 Q264.75 496.195 261.09 493.521 Q257.398 490.847 250.936 490.847 Q244.475 490.847 240.815 493.521 Q237.123 496.195 237.123 500.841 Q237.123 505.488 240.815 508.162 Q244.475 510.804 250.936 510.804 Z" fill="#000000" fill-rule="nonzero" fill-opacity="1" /><path clip-path="url(#clip150)" d="M843.988 31.2093 L843.988 47.0368 L853.363 47.0368 Q858.079 47.0368 860.336 45.0981 Q862.622 43.1306 862.622 39.1086 Q862.622 35.0577 860.336 33.148 Q858.079 31.2093 853.363 31.2093 L843.988 31.2093 M843.988 13.4432 L843.988 26.464 L852.639 26.464 Q856.922 26.464 859.005 24.8726 Q861.117 23.2522 861.117 19.9536 Q861.117 16.6839 859.005 15.0636 Q856.922 13.4432 852.639 13.4432 L843.988 13.4432 M838.143 8.64 L853.073 8.64 Q859.757 8.64 863.374 11.4178 Q866.991 14.1955 866.991 19.317 Q866.991 23.2811 865.139 25.6249 Q863.287 27.9686 859.699 28.5473 Q864.011 29.4732 866.383 32.4246 Q868.785 35.347 868.785 39.7452 Q868.785 45.5322 864.85 48.6861 Q860.915 51.84 853.652 51.84 L838.143 51.84 L838.143 8.64 Z" fill="#000000" fill-rule="nonzero" fill-opacity="1" /><path clip-path="url(#clip150)" d="M893.293 35.5496 Q886.84 35.5496 884.352 37.0253 Q881.864 38.501 881.864 42.06 Q881.864 44.8956 883.715 46.5738 Q885.596 48.2231 888.808 48.2231 Q893.235 48.2231 895.897 45.0981 Q898.588 41.9442 898.588 36.7359 L898.588 35.5496 L893.293 35.5496 M903.912 33.3505 L903.912 51.84 L898.588 51.84 L898.588 46.921 Q896.765 49.8724 894.045 51.2902 Q891.325 52.6791 887.39 52.6791 Q882.413 52.6791 879.462 49.9014 Q876.54 47.0947 876.54 42.4072 Q876.54 36.9385 880.185 34.1607 Q883.86 31.3829 891.123 31.3829 L898.588 31.3829 L898.588 30.8621 Q898.588 27.1874 896.157 25.1908 Q893.756 23.1654 889.387 23.1654 Q886.609 23.1654 883.976 23.8309 Q881.343 24.4964 878.912 25.8274 L878.912 20.9085 Q881.835 19.78 884.583 19.2302 Q887.332 18.6515 889.936 18.6515 Q896.968 18.6515 900.44 22.2973 Q903.912 25.9431 903.912 33.3505 Z" fill="#000000" fill-rule="nonzero" fill-opacity="1" /><path clip-path="url(#clip150)" d="M914.329 39.0507 L914.329 19.4328 L919.653 19.4328 L919.653 38.8482 Q919.653 43.4488 921.447 45.7636 Q923.241 48.0495 926.829 48.0495 Q931.14 48.0495 933.628 45.3007 Q936.146 42.5519 936.146 37.8065 L936.146 19.4328 L941.47 19.4328 L941.47 51.84 L936.146 51.84 L936.146 46.8632 Q934.207 49.8145 931.632 51.2613 Q929.086 52.6791 925.7 52.6791 Q920.116 52.6791 917.222 49.2069 Q914.329 45.7347 914.329 39.0507 M927.726 18.6515 L927.726 18.6515 Z" fill="#000000" fill-rule="nonzero" fill-opacity="1" /><path clip-path="url(#clip150)" d="M977.667 25.6538 Q979.664 22.0659 982.442 20.3587 Q985.22 18.6515 988.981 18.6515 Q994.045 18.6515 996.794 22.2105 Q999.542 25.7406 999.542 32.2799 L999.542 51.84 L994.189 51.84 L994.189 32.4535 Q994.189 27.795 992.54 25.5381 Q990.891 23.2811 987.505 23.2811 Q983.368 23.2811 980.966 26.03 Q978.564 28.7788 978.564 33.5241 L978.564 51.84 L973.211 51.84 L973.211 32.4535 Q973.211 27.7661 971.562 25.5381 Q969.913 23.2811 966.47 23.2811 Q962.39 23.2811 959.988 26.0589 Q957.587 28.8077 957.587 33.5241 L957.587 51.84 L952.234 51.84 L952.234 19.4328 L957.587 19.4328 L957.587 24.4675 Q959.409 21.4872 961.956 20.0693 Q964.502 18.6515 968.003 18.6515 Q971.533 18.6515 973.993 20.4455 Q976.481 22.2395 977.667 25.6538 Z" fill="#000000" fill-rule="nonzero" fill-opacity="1" /><path clip-path="url(#clip150)" d="M1007.47 33.2348 L1023.07 33.2348 L1023.07 37.9801 L1007.47 37.9801 L1007.47 33.2348 Z" fill="#000000" fill-rule="nonzero" fill-opacity="1" /><path clip-path="url(#clip150)" d="M1025.53 8.64 L1031.43 8.64 L1040.51 45.156 L1049.57 8.64 L1056.14 8.64 L1065.22 45.156 L1074.28 8.64 L1080.21 8.64 L1069.36 51.84 L1062.01 51.84 L1052.9 14.3402 L1043.7 51.84 L1036.35 51.84 L1025.53 8.64 Z" fill="#000000" fill-rule="nonzero" fill-opacity="1" /><path clip-path="url(#clip150)" d="M1111.98 34.3054 L1111.98 36.9095 L1087.5 36.9095 Q1087.85 42.4072 1090.8 45.3007 Q1093.78 48.1653 1099.08 48.1653 Q1102.15 48.1653 1105.01 47.4129 Q1107.9 46.6606 1110.74 45.156 L1110.74 50.1907 Q1107.88 51.406 1104.87 52.0425 Q1101.86 52.6791 1098.76 52.6791 Q1091.01 52.6791 1086.46 48.1653 Q1081.95 43.6514 1081.95 35.9547 Q1081.95 27.9975 1086.23 23.339 Q1090.54 18.6515 1097.83 18.6515 Q1104.37 18.6515 1108.16 22.876 Q1111.98 27.0716 1111.98 34.3054 M1106.66 32.7429 Q1106.6 28.3737 1104.2 25.7695 Q1101.83 23.1654 1097.89 23.1654 Q1093.44 23.1654 1090.75 25.6827 Q1088.08 28.2001 1087.68 32.7718 L1106.66 32.7429 Z" fill="#000000" fill-rule="nonzero" fill-opacity="1" /><path clip-path="url(#clip150)" d="M1120.72 6.81709 L1126.05 6.81709 L1126.05 51.84 L1120.72 51.84 L1120.72 6.81709 Z" fill="#000000" fill-rule="nonzero" fill-opacity="1" /><path clip-path="url(#clip150)" d="M1160.51 20.677 L1160.51 25.6538 Q1158.25 24.4096 1155.97 23.802 Q1153.71 23.1654 1151.39 23.1654 Q1146.21 23.1654 1143.35 26.464 Q1140.48 29.7336 1140.48 35.6653 Q1140.48 41.597 1143.35 44.8956 Q1146.21 48.1653 1151.39 48.1653 Q1153.71 48.1653 1155.97 47.5576 Q1158.25 46.921 1160.51 45.6768 L1160.51 50.5958 Q1158.28 51.6375 1155.88 52.1583 Q1153.51 52.6791 1150.81 52.6791 Q1143.49 52.6791 1139.18 48.0784 Q1134.87 43.4778 1134.87 35.6653 Q1134.87 27.7371 1139.21 23.1943 Q1143.58 18.6515 1151.16 18.6515 Q1153.62 18.6515 1155.97 19.1724 Q1158.31 19.6642 1160.51 20.677 Z" fill="#000000" fill-rule="nonzero" fill-opacity="1" /><path clip-path="url(#clip150)" d="M1196.71 32.2799 L1196.71 51.84 L1191.38 51.84 L1191.38 32.4535 Q1191.38 27.8529 1189.59 25.567 Q1187.79 23.2811 1184.21 23.2811 Q1179.89 23.2811 1177.41 26.03 Q1174.92 28.7788 1174.92 33.5241 L1174.92 51.84 L1169.56 51.84 L1169.56 6.81709 L1174.92 6.81709 L1174.92 24.4675 Q1176.83 21.545 1179.4 20.0983 Q1182.01 18.6515 1185.39 18.6515 Q1190.98 18.6515 1193.84 22.1237 Q1196.71 25.567 1196.71 32.2799 Z" fill="#000000" fill-rule="nonzero" fill-opacity="1" /><path clip-path="url(#clip150)" d="M1258.74 11.9675 L1258.74 18.1307 Q1255.79 15.3819 1252.43 14.0219 Q1249.11 12.662 1245.35 12.662 Q1237.94 12.662 1234 17.2048 Q1230.07 21.7186 1230.07 30.2834 Q1230.07 38.8192 1234 43.362 Q1237.94 47.8759 1245.35 47.8759 Q1249.11 47.8759 1252.43 46.516 Q1255.79 45.156 1258.74 42.4072 L1258.74 48.5125 Q1255.68 50.5958 1252.23 51.6375 Q1248.82 52.6791 1245 52.6791 Q1235.19 52.6791 1229.55 46.6896 Q1223.9 40.6711 1223.9 30.2834 Q1223.9 19.8668 1229.55 13.8772 Q1235.19 7.85875 1245 7.85875 Q1248.88 7.85875 1252.29 8.90042 Q1255.73 9.91314 1258.74 11.9675 Z" fill="#000000" fill-rule="nonzero" fill-opacity="1" /><path clip-path="url(#clip150)" d="M1280.1 23.1654 Q1275.81 23.1654 1273.33 26.5218 Q1270.84 29.8494 1270.84 35.6653 Q1270.84 41.4813 1273.3 44.8377 Q1275.79 48.1653 1280.1 48.1653 Q1284.35 48.1653 1286.84 44.8088 Q1289.33 41.4523 1289.33 35.6653 Q1289.33 29.9072 1286.84 26.5508 Q1284.35 23.1654 1280.1 23.1654 M1280.1 18.6515 Q1287.04 18.6515 1291 23.1654 Q1294.97 27.6792 1294.97 35.6653 Q1294.97 43.6225 1291 48.1653 Q1287.04 52.6791 1280.1 52.6791 Q1273.12 52.6791 1269.16 48.1653 Q1265.22 43.6225 1265.22 35.6653 Q1265.22 27.6792 1269.16 23.1654 Q1273.12 18.6515 1280.1 18.6515 Z" fill="#000000" fill-rule="nonzero" fill-opacity="1" /><path clip-path="url(#clip150)" d="M1330.73 32.2799 L1330.73 51.84 L1325.41 51.84 L1325.41 32.4535 Q1325.41 27.8529 1323.61 25.567 Q1321.82 23.2811 1318.23 23.2811 Q1313.92 23.2811 1311.43 26.03 Q1308.94 28.7788 1308.94 33.5241 L1308.94 51.84 L1303.59 51.84 L1303.59 19.4328 L1308.94 19.4328 L1308.94 24.4675 Q1310.85 21.545 1313.43 20.0983 Q1316.03 18.6515 1319.42 18.6515 Q1325 18.6515 1327.87 22.1237 Q1330.73 25.567 1330.73 32.2799 Z" fill="#000000" fill-rule="nonzero" fill-opacity="1" /><path clip-path="url(#clip150)" d="M1337.53 19.4328 L1343.17 19.4328 L1353.3 46.6317 L1363.43 19.4328 L1369.07 19.4328 L1356.92 51.84 L1349.69 51.84 L1337.53 19.4328 Z" fill="#000000" fill-rule="nonzero" fill-opacity="1" /><path clip-path="url(#clip150)" d="M1404.14 34.3054 L1404.14 36.9095 L1379.66 36.9095 Q1380.01 42.4072 1382.96 45.3007 Q1385.94 48.1653 1391.24 48.1653 Q1394.3 48.1653 1397.17 47.4129 Q1400.06 46.6606 1402.9 45.156 L1402.9 50.1907 Q1400.03 51.406 1397.02 52.0425 Q1394.01 52.6791 1390.92 52.6791 Q1383.16 52.6791 1378.62 48.1653 Q1374.11 43.6514 1374.11 35.9547 Q1374.11 27.9975 1378.39 23.339 Q1382.7 18.6515 1389.99 18.6515 Q1396.53 18.6515 1400.32 22.876 Q1404.14 27.0716 1404.14 34.3054 M1398.82 32.7429 Q1398.76 28.3737 1396.36 25.7695 Q1393.98 23.1654 1390.05 23.1654 Q1385.59 23.1654 1382.9 25.6827 Q1380.24 28.2001 1379.84 32.7718 L1398.82 32.7429 Z" fill="#000000" fill-rule="nonzero" fill-opacity="1" /><path clip-path="url(#clip150)" d="M1431.66 24.4096 Q1430.76 23.8888 1429.69 23.6573 Q1428.65 23.3969 1427.38 23.3969 Q1422.86 23.3969 1420.43 26.3482 Q1418.03 29.2707 1418.03 34.7683 L1418.03 51.84 L1412.68 51.84 L1412.68 19.4328 L1418.03 19.4328 L1418.03 24.4675 Q1419.71 21.5161 1422.4 20.0983 Q1425.09 18.6515 1428.94 18.6515 Q1429.49 18.6515 1430.15 18.7383 Q1430.82 18.7962 1431.63 18.9409 L1431.66 24.4096 Z" fill="#000000" fill-rule="nonzero" fill-opacity="1" /><path clip-path="url(#clip150)" d="M1457.53 35.2602 Q1457.53 29.4732 1455.12 26.2904 Q1452.75 23.1075 1448.44 23.1075 Q1444.16 23.1075 1441.76 26.2904 Q1439.38 29.4732 1439.38 35.2602 Q1439.38 41.0183 1441.76 44.2012 Q1444.16 47.384 1448.44 47.384 Q1452.75 47.384 1455.12 44.2012 Q1457.53 41.0183 1457.53 35.2602 M1462.85 47.818 Q1462.85 56.0934 1459.18 60.1154 Q1455.5 64.1663 1447.92 64.1663 Q1445.11 64.1663 1442.62 63.7323 Q1440.14 63.3272 1437.79 62.4592 L1437.79 57.2798 Q1440.14 58.5529 1442.42 59.1606 Q1444.71 59.7682 1447.08 59.7682 Q1452.32 59.7682 1454.92 57.0194 Q1457.53 54.2995 1457.53 48.7729 L1457.53 46.1398 Q1455.88 49.0044 1453.3 50.4222 Q1450.73 51.84 1447.14 51.84 Q1441.18 51.84 1437.53 47.2972 Q1433.89 42.7544 1433.89 35.2602 Q1433.89 27.7371 1437.53 23.1943 Q1441.18 18.6515 1447.14 18.6515 Q1450.73 18.6515 1453.3 20.0693 Q1455.88 21.4872 1457.53 24.3517 L1457.53 19.4328 L1462.85 19.4328 L1462.85 47.818 Z" fill="#000000" fill-rule="nonzero" fill-opacity="1" /><path clip-path="url(#clip150)" d="M1501.54 34.3054 L1501.54 36.9095 L1477.06 36.9095 Q1477.4 42.4072 1480.36 45.3007 Q1483.34 48.1653 1488.63 48.1653 Q1491.7 48.1653 1494.56 47.4129 Q1497.46 46.6606 1500.29 45.156 L1500.29 50.1907 Q1497.43 51.406 1494.42 52.0425 Q1491.41 52.6791 1488.31 52.6791 Q1480.56 52.6791 1476.02 48.1653 Q1471.5 43.6514 1471.5 35.9547 Q1471.5 27.9975 1475.78 23.339 Q1480.1 18.6515 1487.39 18.6515 Q1493.93 18.6515 1497.72 22.876 Q1501.54 27.0716 1501.54 34.3054 M1496.21 32.7429 Q1496.15 28.3737 1493.75 25.7695 Q1491.38 23.1654 1487.44 23.1654 Q1482.99 23.1654 1480.3 25.6827 Q1477.64 28.2001 1477.23 32.7718 L1496.21 32.7429 Z" fill="#000000" fill-rule="nonzero" fill-opacity="1" /><path clip-path="url(#clip150)" d="M1537.21 32.2799 L1537.21 51.84 L1531.89 51.84 L1531.89 32.4535 Q1531.89 27.8529 1530.1 25.567 Q1528.3 23.2811 1524.71 23.2811 Q1520.4 23.2811 1517.91 26.03 Q1515.43 28.7788 1515.43 33.5241 L1515.43 51.84 L1510.07 51.84 L1510.07 19.4328 L1515.43 19.4328 L1515.43 24.4675 Q1517.33 21.545 1519.91 20.0983 Q1522.51 18.6515 1525.9 18.6515 Q1531.48 18.6515 1534.35 22.1237 Q1537.21 25.567 1537.21 32.2799 Z" fill="#000000" fill-rule="nonzero" fill-opacity="1" /><path clip-path="url(#clip150)" d="M1571.15 20.677 L1571.15 25.6538 Q1568.9 24.4096 1566.61 23.802 Q1564.35 23.1654 1562.04 23.1654 Q1556.86 23.1654 1554 26.464 Q1551.13 29.7336 1551.13 35.6653 Q1551.13 41.597 1554 44.8956 Q1556.86 48.1653 1562.04 48.1653 Q1564.35 48.1653 1566.61 47.5576 Q1568.9 46.921 1571.15 45.6768 L1571.15 50.5958 Q1568.93 51.6375 1566.52 52.1583 Q1564.15 52.6791 1561.46 52.6791 Q1554.14 52.6791 1549.83 48.0784 Q1545.52 43.4778 1545.52 35.6653 Q1545.52 27.7371 1549.86 23.1943 Q1554.23 18.6515 1561.81 18.6515 Q1564.27 18.6515 1566.61 19.1724 Q1568.95 19.6642 1571.15 20.677 Z" fill="#000000" fill-rule="nonzero" fill-opacity="1" /><path clip-path="url(#clip150)" d="M1608.13 34.3054 L1608.13 36.9095 L1583.65 36.9095 Q1584 42.4072 1586.95 45.3007 Q1589.93 48.1653 1595.23 48.1653 Q1598.29 48.1653 1601.16 47.4129 Q1604.05 46.6606 1606.89 45.156 L1606.89 50.1907 Q1604.02 51.406 1601.01 52.0425 Q1598.01 52.6791 1594.91 52.6791 Q1587.15 52.6791 1582.61 48.1653 Q1578.1 43.6514 1578.1 35.9547 Q1578.1 27.9975 1582.38 23.339 Q1586.69 18.6515 1593.98 18.6515 Q1600.52 18.6515 1604.31 22.876 Q1608.13 27.0716 1608.13 34.3054 M1602.81 32.7429 Q1602.75 28.3737 1600.35 25.7695 Q1597.98 23.1654 1594.04 23.1654 Q1589.59 23.1654 1586.89 25.6827 Q1584.23 28.2001 1583.83 32.7718 L1602.81 32.7429 Z" fill="#000000" fill-rule="nonzero" fill-opacity="1" /><path clip-path="url(#clip150)" d="M1648.5 6.87496 Q1644.62 13.53 1642.74 20.0404 Q1640.86 26.5508 1640.86 33.2348 Q1640.86 39.9188 1642.74 46.487 Q1644.65 53.0263 1648.5 59.6525 L1643.87 59.6525 Q1639.53 52.8527 1637.36 46.2845 Q1635.22 39.7162 1635.22 33.2348 Q1635.22 26.7823 1637.36 20.2429 Q1639.5 13.7036 1643.87 6.87496 L1648.5 6.87496 Z" fill="#000000" fill-rule="nonzero" fill-opacity="1" /><path clip-path="url(#clip150)" d="M1684.96 10.0578 L1684.96 15.758 Q1681.63 14.1666 1678.68 13.3853 Q1675.73 12.6041 1672.98 12.6041 Q1668.2 12.6041 1665.6 14.4559 Q1663.02 16.3078 1663.02 19.7221 Q1663.02 22.5867 1664.73 24.0624 Q1666.47 25.5091 1671.27 26.4061 L1674.8 27.1295 Q1681.34 28.3737 1684.43 31.5276 Q1687.56 34.6526 1687.56 39.9188 Q1687.56 46.1977 1683.33 49.4384 Q1679.14 52.6791 1671.01 52.6791 Q1667.94 52.6791 1664.47 51.9847 Q1661.03 51.2902 1657.32 49.9303 L1657.32 43.9118 Q1660.88 45.9083 1664.3 46.921 Q1667.71 47.9338 1671.01 47.9338 Q1676.01 47.9338 1678.73 45.9662 Q1681.45 43.9986 1681.45 40.3528 Q1681.45 37.1699 1679.49 35.376 Q1677.55 33.582 1673.09 32.685 L1669.53 31.9906 Q1662.99 30.6885 1660.07 27.9107 Q1657.15 25.133 1657.15 20.1851 Q1657.15 14.4559 1661.17 11.1573 Q1665.22 7.85875 1672.31 7.85875 Q1675.35 7.85875 1678.5 8.40852 Q1681.66 8.95829 1684.96 10.0578 Z" fill="#000000" fill-rule="nonzero" fill-opacity="1" /><path clip-path="url(#clip150)" d="M1702.52 13.4432 L1702.52 29.6758 L1709.87 29.6758 Q1713.95 29.6758 1716.18 27.5635 Q1718.4 25.4513 1718.4 21.545 Q1718.4 17.6677 1716.18 15.5555 Q1713.95 13.4432 1709.87 13.4432 L1702.52 13.4432 M1696.67 8.64 L1709.87 8.64 Q1717.13 8.64 1720.83 11.9386 Q1724.57 15.2083 1724.57 21.545 Q1724.57 27.9397 1720.83 31.2093 Q1717.13 34.479 1709.87 34.479 L1702.52 34.479 L1702.52 51.84 L1696.67 51.84 L1696.67 8.64 Z" fill="#000000" fill-rule="nonzero" fill-opacity="1" /><path clip-path="url(#clip150)" d="M1725.18 8.64 L1731.45 8.64 L1743.43 26.4061 L1755.33 8.64 L1761.6 8.64 L1746.33 31.2672 L1746.33 51.84 L1740.45 51.84 L1740.45 31.2672 L1725.18 8.64 Z" fill="#000000" fill-rule="nonzero" fill-opacity="1" /><path clip-path="url(#clip150)" d="M1768.43 44.4905 L1774.54 44.4905 L1774.54 49.4673 L1769.79 58.7265 L1766.06 58.7265 L1768.43 49.4673 L1768.43 44.4905 Z" fill="#000000" fill-rule="nonzero" fill-opacity="1" /><path clip-path="url(#clip150)" d="M1804.98 8.64 L1810.82 8.64 L1810.82 26.898 L1830.21 8.64 L1837.73 8.64 L1816.29 28.7788 L1839.27 51.84 L1831.57 51.84 L1810.82 31.0357 L1810.82 51.84 L1804.98 51.84 L1804.98 8.64 Z" fill="#000000" fill-rule="nonzero" fill-opacity="1" /><path clip-path="url(#clip150)" d="M1844.3 24.9304 L1881.4 24.9304 L1881.4 29.7915 L1844.3 29.7915 L1844.3 24.9304 M1844.3 36.7359 L1881.4 36.7359 L1881.4 41.6549 L1844.3 41.6549 L1844.3 36.7359 Z" fill="#000000" fill-rule="nonzero" fill-opacity="1" /><path clip-path="url(#clip150)" d="M1895.02 46.921 L1904.57 46.921 L1904.57 13.964 L1894.18 16.0474 L1894.18 10.7233 L1904.51 8.64 L1910.36 8.64 L1910.36 46.921 L1919.91 46.921 L1919.91 51.84 L1895.02 51.84 L1895.02 46.921 Z" fill="#000000" fill-rule="nonzero" fill-opacity="1" /><path clip-path="url(#clip150)" d="M1944.21 31.3251 Q1940.05 31.3251 1937.64 33.5531 Q1935.27 35.7811 1935.27 39.6873 Q1935.27 43.5935 1937.64 45.8215 Q1940.05 48.0495 1944.21 48.0495 Q1948.38 48.0495 1950.78 45.8215 Q1953.18 43.5646 1953.18 39.6873 Q1953.18 35.7811 1950.78 33.5531 Q1948.41 31.3251 1944.21 31.3251 M1938.37 28.8367 Q1934.61 27.9107 1932.49 25.3355 Q1930.41 22.7603 1930.41 19.0566 Q1930.41 13.8772 1934.09 10.868 Q1937.79 7.85875 1944.21 7.85875 Q1950.67 7.85875 1954.34 10.868 Q1958.02 13.8772 1958.02 19.0566 Q1958.02 22.7603 1955.9 25.3355 Q1953.82 27.9107 1950.09 28.8367 Q1954.31 29.8204 1956.66 32.685 Q1959.03 35.5496 1959.03 39.6873 Q1959.03 45.9662 1955.18 49.3227 Q1951.36 52.6791 1944.21 52.6791 Q1937.07 52.6791 1933.22 49.3227 Q1929.4 45.9662 1929.4 39.6873 Q1929.4 35.5496 1931.77 32.685 Q1934.14 29.8204 1938.37 28.8367 M1936.23 19.6064 Q1936.23 22.9628 1938.31 24.8436 Q1940.42 26.7244 1944.21 26.7244 Q1947.97 26.7244 1950.09 24.8436 Q1952.23 22.9628 1952.23 19.6064 Q1952.23 16.2499 1950.09 14.3691 Q1947.97 12.4884 1944.21 12.4884 Q1940.42 12.4884 1938.31 14.3691 Q1936.23 16.2499 1936.23 19.6064 Z" fill="#000000" fill-rule="nonzero" fill-opacity="1" /><path clip-path="url(#clip150)" d="M1967.82 6.87496 L1972.45 6.87496 Q1976.79 13.7036 1978.94 20.2429 Q1981.11 26.7823 1981.11 33.2348 Q1981.11 39.7162 1978.94 46.2845 Q1976.79 52.8527 1972.45 59.6525 L1967.82 59.6525 Q1971.67 53.0263 1973.55 46.487 Q1975.46 39.9188 1975.46 33.2348 Q1975.46 26.5508 1973.55 20.0404 Q1971.67 13.53 1967.82 6.87496 Z" fill="#000000" fill-rule="nonzero" fill-opacity="1" /><polyline clip-path="url(#clip152)" style="stroke:#000080; stroke-linecap:round; stroke-linejoin:round; stroke-width:8; stroke-opacity:1; fill:none" points="594.16,1211.41 621.803,710.269 649.446,625.681 677.089,579.786 704.732,547.488 732.374,521.588 760.017,499.204 787.66,478.999 815.303,460.298 842.946,442.756 870.589,426.24 898.231,410.741 925.874,396.267 953.517,382.694 981.16,369.695 1008.8,356.852 1036.45,344.126 1064.09,332.238 1091.73,321.966 1119.37,313.43 1147.02,306.361 1174.66,300.421 1202.3,295.319 1229.95,290.852 1257.59,286.907 1285.23,283.41 1312.87,280.29 1340.52,277.476 1368.16,274.911 1395.8,272.549 1423.45,270.35 1451.09,268.279 1478.73,266.307 1506.37,264.403 1534.02,262.542 1561.66,260.699 1589.3,258.852 1616.95,256.984 1644.59,255.077 1672.23,253.115 1699.87,251.084 1727.52,248.971 1755.16,246.762 1782.8,244.446 1810.45,242.013 1838.09,239.471 1865.73,236.855 1893.37,234.23 1921.02,231.674 1948.66,229.254 1976.3,227.01 2003.95,224.965 2031.59,223.127 2059.23,221.493 2086.87,220.049 2114.52,218.774 2142.16,217.642 2169.8,216.626 2197.45,215.697 2225.09,214.83 "/>
<circle clip-path="url(#clip152)" cx="594.16" cy="1211.41" r="10.8" fill="#000080" fill-rule="evenodd" fill-opacity="1" stroke="#000000" stroke-opacity="1" stroke-width="3.2"/>
<circle clip-path="url(#clip152)" cx="621.803" cy="710.269" r="10.8" fill="#000080" fill-rule="evenodd" fill-opacity="1" stroke="#000000" stroke-opacity="1" stroke-width="3.2"/>
<circle clip-path="url(#clip152)" cx="649.446" cy="625.681" r="10.8" fill="#000080" fill-rule="evenodd" fill-opacity="1" stroke="#000000" stroke-opacity="1" stroke-width="3.2"/>
<circle clip-path="url(#clip152)" cx="677.089" cy="579.786" r="10.8" fill="#000080" fill-rule="evenodd" fill-opacity="1" stroke="#000000" stroke-opacity="1" stroke-width="3.2"/>
<circle clip-path="url(#clip152)" cx="704.732" cy="547.488" r="10.8" fill="#000080" fill-rule="evenodd" fill-opacity="1" stroke="#000000" stroke-opacity="1" stroke-width="3.2"/>
<circle clip-path="url(#clip152)" cx="732.374" cy="521.588" r="10.8" fill="#000080" fill-rule="evenodd" fill-opacity="1" stroke="#000000" stroke-opacity="1" stroke-width="3.2"/>
<circle clip-path="url(#clip152)" cx="760.017" cy="499.204" r="10.8" fill="#000080" fill-rule="evenodd" fill-opacity="1" stroke="#000000" stroke-opacity="1" stroke-width="3.2"/>
<circle clip-path="url(#clip152)" cx="787.66" cy="478.999" r="10.8" fill="#000080" fill-rule="evenodd" fill-opacity="1" stroke="#000000" stroke-opacity="1" stroke-width="3.2"/>
<circle clip-path="url(#clip152)" cx="815.303" cy="460.298" r="10.8" fill="#000080" fill-rule="evenodd" fill-opacity="1" stroke="#000000" stroke-opacity="1" stroke-width="3.2"/>
<circle clip-path="url(#clip152)" cx="842.946" cy="442.756" r="10.8" fill="#000080" fill-rule="evenodd" fill-opacity="1" stroke="#000000" stroke-opacity="1" stroke-width="3.2"/>
<circle clip-path="url(#clip152)" cx="870.589" cy="426.24" r="10.8" fill="#000080" fill-rule="evenodd" fill-opacity="1" stroke="#000000" stroke-opacity="1" stroke-width="3.2"/>
<circle clip-path="url(#clip152)" cx="898.231" cy="410.741" r="10.8" fill="#000080" fill-rule="evenodd" fill-opacity="1" stroke="#000000" stroke-opacity="1" stroke-width="3.2"/>
<circle clip-path="url(#clip152)" cx="925.874" cy="396.267" r="10.8" fill="#000080" fill-rule="evenodd" fill-opacity="1" stroke="#000000" stroke-opacity="1" stroke-width="3.2"/>
<circle clip-path="url(#clip152)" cx="953.517" cy="382.694" r="10.8" fill="#000080" fill-rule="evenodd" fill-opacity="1" stroke="#000000" stroke-opacity="1" stroke-width="3.2"/>
<circle clip-path="url(#clip152)" cx="981.16" cy="369.695" r="10.8" fill="#000080" fill-rule="evenodd" fill-opacity="1" stroke="#000000" stroke-opacity="1" stroke-width="3.2"/>
<circle clip-path="url(#clip152)" cx="1008.8" cy="356.852" r="10.8" fill="#000080" fill-rule="evenodd" fill-opacity="1" stroke="#000000" stroke-opacity="1" stroke-width="3.2"/>
<circle clip-path="url(#clip152)" cx="1036.45" cy="344.126" r="10.8" fill="#000080" fill-rule="evenodd" fill-opacity="1" stroke="#000000" stroke-opacity="1" stroke-width="3.2"/>
<circle clip-path="url(#clip152)" cx="1064.09" cy="332.238" r="10.8" fill="#000080" fill-rule="evenodd" fill-opacity="1" stroke="#000000" stroke-opacity="1" stroke-width="3.2"/>
<circle clip-path="url(#clip152)" cx="1091.73" cy="321.966" r="10.8" fill="#000080" fill-rule="evenodd" fill-opacity="1" stroke="#000000" stroke-opacity="1" stroke-width="3.2"/>
<circle clip-path="url(#clip152)" cx="1119.37" cy="313.43" r="10.8" fill="#000080" fill-rule="evenodd" fill-opacity="1" stroke="#000000" stroke-opacity="1" stroke-width="3.2"/>
<circle clip-path="url(#clip152)" cx="1147.02" cy="306.361" r="10.8" fill="#000080" fill-rule="evenodd" fill-opacity="1" stroke="#000000" stroke-opacity="1" stroke-width="3.2"/>
<circle clip-path="url(#clip152)" cx="1174.66" cy="300.421" r="10.8" fill="#000080" fill-rule="evenodd" fill-opacity="1" stroke="#000000" stroke-opacity="1" stroke-width="3.2"/>
<circle clip-path="url(#clip152)" cx="1202.3" cy="295.319" r="10.8" fill="#000080" fill-rule="evenodd" fill-opacity="1" stroke="#000000" stroke-opacity="1" stroke-width="3.2"/>
<circle clip-path="url(#clip152)" cx="1229.95" cy="290.852" r="10.8" fill="#000080" fill-rule="evenodd" fill-opacity="1" stroke="#000000" stroke-opacity="1" stroke-width="3.2"/>
<circle clip-path="url(#clip152)" cx="1257.59" cy="286.907" r="10.8" fill="#000080" fill-rule="evenodd" fill-opacity="1" stroke="#000000" stroke-opacity="1" stroke-width="3.2"/>
<circle clip-path="url(#clip152)" cx="1285.23" cy="283.41" r="10.8" fill="#000080" fill-rule="evenodd" fill-opacity="1" stroke="#000000" stroke-opacity="1" stroke-width="3.2"/>
<circle clip-path="url(#clip152)" cx="1312.87" cy="280.29" r="10.8" fill="#000080" fill-rule="evenodd" fill-opacity="1" stroke="#000000" stroke-opacity="1" stroke-width="3.2"/>
<circle clip-path="url(#clip152)" cx="1340.52" cy="277.476" r="10.8" fill="#000080" fill-rule="evenodd" fill-opacity="1" stroke="#000000" stroke-opacity="1" stroke-width="3.2"/>
<circle clip-path="url(#clip152)" cx="1368.16" cy="274.911" r="10.8" fill="#000080" fill-rule="evenodd" fill-opacity="1" stroke="#000000" stroke-opacity="1" stroke-width="3.2"/>
<circle clip-path="url(#clip152)" cx="1395.8" cy="272.549" r="10.8" fill="#000080" fill-rule="evenodd" fill-opacity="1" stroke="#000000" stroke-opacity="1" stroke-width="3.2"/>
<circle clip-path="url(#clip152)" cx="1423.45" cy="270.35" r="10.8" fill="#000080" fill-rule="evenodd" fill-opacity="1" stroke="#000000" stroke-opacity="1" stroke-width="3.2"/>
<circle clip-path="url(#clip152)" cx="1451.09" cy="268.279" r="10.8" fill="#000080" fill-rule="evenodd" fill-opacity="1" stroke="#000000" stroke-opacity="1" stroke-width="3.2"/>
<circle clip-path="url(#clip152)" cx="1478.73" cy="266.307" r="10.8" fill="#000080" fill-rule="evenodd" fill-opacity="1" stroke="#000000" stroke-opacity="1" stroke-width="3.2"/>
<circle clip-path="url(#clip152)" cx="1506.37" cy="264.403" r="10.8" fill="#000080" fill-rule="evenodd" fill-opacity="1" stroke="#000000" stroke-opacity="1" stroke-width="3.2"/>
<circle clip-path="url(#clip152)" cx="1534.02" cy="262.542" r="10.8" fill="#000080" fill-rule="evenodd" fill-opacity="1" stroke="#000000" stroke-opacity="1" stroke-width="3.2"/>
<circle clip-path="url(#clip152)" cx="1561.66" cy="260.699" r="10.8" fill="#000080" fill-rule="evenodd" fill-opacity="1" stroke="#000000" stroke-opacity="1" stroke-width="3.2"/>
<circle clip-path="url(#clip152)" cx="1589.3" cy="258.852" r="10.8" fill="#000080" fill-rule="evenodd" fill-opacity="1" stroke="#000000" stroke-opacity="1" stroke-width="3.2"/>
<circle clip-path="url(#clip152)" cx="1616.95" cy="256.984" r="10.8" fill="#000080" fill-rule="evenodd" fill-opacity="1" stroke="#000000" stroke-opacity="1" stroke-width="3.2"/>
<circle clip-path="url(#clip152)" cx="1644.59" cy="255.077" r="10.8" fill="#000080" fill-rule="evenodd" fill-opacity="1" stroke="#000000" stroke-opacity="1" stroke-width="3.2"/>
<circle clip-path="url(#clip152)" cx="1672.23" cy="253.115" r="10.8" fill="#000080" fill-rule="evenodd" fill-opacity="1" stroke="#000000" stroke-opacity="1" stroke-width="3.2"/>
<circle clip-path="url(#clip152)" cx="1699.87" cy="251.084" r="10.8" fill="#000080" fill-rule="evenodd" fill-opacity="1" stroke="#000000" stroke-opacity="1" stroke-width="3.2"/>
<circle clip-path="url(#clip152)" cx="1727.52" cy="248.971" r="10.8" fill="#000080" fill-rule="evenodd" fill-opacity="1" stroke="#000000" stroke-opacity="1" stroke-width="3.2"/>
<circle clip-path="url(#clip152)" cx="1755.16" cy="246.762" r="10.8" fill="#000080" fill-rule="evenodd" fill-opacity="1" stroke="#000000" stroke-opacity="1" stroke-width="3.2"/>
<circle clip-path="url(#clip152)" cx="1782.8" cy="244.446" r="10.8" fill="#000080" fill-rule="evenodd" fill-opacity="1" stroke="#000000" stroke-opacity="1" stroke-width="3.2"/>
<circle clip-path="url(#clip152)" cx="1810.45" cy="242.013" r="10.8" fill="#000080" fill-rule="evenodd" fill-opacity="1" stroke="#000000" stroke-opacity="1" stroke-width="3.2"/>
<circle clip-path="url(#clip152)" cx="1838.09" cy="239.471" r="10.8" fill="#000080" fill-rule="evenodd" fill-opacity="1" stroke="#000000" stroke-opacity="1" stroke-width="3.2"/>
<circle clip-path="url(#clip152)" cx="1865.73" cy="236.855" r="10.8" fill="#000080" fill-rule="evenodd" fill-opacity="1" stroke="#000000" stroke-opacity="1" stroke-width="3.2"/>
<circle clip-path="url(#clip152)" cx="1893.37" cy="234.23" r="10.8" fill="#000080" fill-rule="evenodd" fill-opacity="1" stroke="#000000" stroke-opacity="1" stroke-width="3.2"/>
<circle clip-path="url(#clip152)" cx="1921.02" cy="231.674" r="10.8" fill="#000080" fill-rule="evenodd" fill-opacity="1" stroke="#000000" stroke-opacity="1" stroke-width="3.2"/>
<circle clip-path="url(#clip152)" cx="1948.66" cy="229.254" r="10.8" fill="#000080" fill-rule="evenodd" fill-opacity="1" stroke="#000000" stroke-opacity="1" stroke-width="3.2"/>
<circle clip-path="url(#clip152)" cx="1976.3" cy="227.01" r="10.8" fill="#000080" fill-rule="evenodd" fill-opacity="1" stroke="#000000" stroke-opacity="1" stroke-width="3.2"/>
<circle clip-path="url(#clip152)" cx="2003.95" cy="224.965" r="10.8" fill="#000080" fill-rule="evenodd" fill-opacity="1" stroke="#000000" stroke-opacity="1" stroke-width="3.2"/>
<circle clip-path="url(#clip152)" cx="2031.59" cy="223.127" r="10.8" fill="#000080" fill-rule="evenodd" fill-opacity="1" stroke="#000000" stroke-opacity="1" stroke-width="3.2"/>
<circle clip-path="url(#clip152)" cx="2059.23" cy="221.493" r="10.8" fill="#000080" fill-rule="evenodd" fill-opacity="1" stroke="#000000" stroke-opacity="1" stroke-width="3.2"/>
<circle clip-path="url(#clip152)" cx="2086.87" cy="220.049" r="10.8" fill="#000080" fill-rule="evenodd" fill-opacity="1" stroke="#000000" stroke-opacity="1" stroke-width="3.2"/>
<circle clip-path="url(#clip152)" cx="2114.52" cy="218.774" r="10.8" fill="#000080" fill-rule="evenodd" fill-opacity="1" stroke="#000000" stroke-opacity="1" stroke-width="3.2"/>
<circle clip-path="url(#clip152)" cx="2142.16" cy="217.642" r="10.8" fill="#000080" fill-rule="evenodd" fill-opacity="1" stroke="#000000" stroke-opacity="1" stroke-width="3.2"/>
<circle clip-path="url(#clip152)" cx="2169.8" cy="216.626" r="10.8" fill="#000080" fill-rule="evenodd" fill-opacity="1" stroke="#000000" stroke-opacity="1" stroke-width="3.2"/>
<circle clip-path="url(#clip152)" cx="2197.45" cy="215.697" r="10.8" fill="#000080" fill-rule="evenodd" fill-opacity="1" stroke="#000000" stroke-opacity="1" stroke-width="3.2"/>
<circle clip-path="url(#clip152)" cx="2225.09" cy="214.83" r="10.8" fill="#000080" fill-rule="evenodd" fill-opacity="1" stroke="#000000" stroke-opacity="1" stroke-width="3.2"/>
</svg>
