<?xml version="1.0" encoding="utf-8"?>
<svg xmlns="http://www.w3.org/2000/svg" xmlns:xlink="http://www.w3.org/1999/xlink" width="700" height="500" viewBox="0 0 2800 2000">
<defs>
  <clipPath id="clip120">
    <rect x="0" y="0" width="2800" height="2000"/>
  </clipPath>
</defs>
<path clip-path="url(#clip120)" d="M0 2000 L2800 2000 L2800 -4.44089e-14 L0 -4.44089e-14  Z" fill="#ffffff" fill-rule="evenodd" fill-opacity="1"/>
<defs>
  <clipPath id="clip121">
    <rect x="448" y="125" width="2226" height="1506"/>
  </clipPath>
</defs>
<path clip-path="url(#clip120)" d="M448.779 1630.83 L2674.02 1630.83 L2674.02 125.984 L448.779 125.984  Z" fill="#ffffff" fill-rule="evenodd" fill-opacity="1"/>
<polyline clip-path="url(#clip121)" style="stroke:#000000; stroke-linecap:round; stroke-linejoin:round; stroke-width:2; stroke-opacity:0.1; fill:none" points="503.394,1630.83 503.394,125.984 "/>
<polyline clip-path="url(#clip121)" style="stroke:#000000; stroke-linecap:round; stroke-linejoin:round; stroke-width:2; stroke-opacity:0.1; fill:none" points="921.577,1630.83 921.577,125.984 "/>
<polyline clip-path="url(#clip121)" style="stroke:#000000; stroke-linecap:round; stroke-linejoin:round; stroke-width:2; stroke-opacity:0.1; fill:none" points="1339.76,1630.83 1339.76,125.984 "/>
<polyline clip-path="url(#clip121)" style="stroke:#000000; stroke-linecap:round; stroke-linejoin:round; stroke-width:2; stroke-opacity:0.1; fill:none" points="1757.94,1630.83 1757.94,125.984 "/>
<polyline clip-path="url(#clip121)" style="stroke:#000000; stroke-linecap:round; stroke-linejoin:round; stroke-width:2; stroke-opacity:0.1; fill:none" points="2176.13,1630.83 2176.13,125.984 "/>
<polyline clip-path="url(#clip121)" style="stroke:#000000; stroke-linecap:round; stroke-linejoin:round; stroke-width:2; stroke-opacity:0.1; fill:none" points="2594.31,1630.83 2594.31,125.984 "/>
<polyline clip-path="url(#clip121)" style="stroke:#000000; stroke-linecap:round; stroke-linejoin:round; stroke-width:2; stroke-opacity:0.1; fill:none" points="448.779,1399.76 2674.02,1399.76 "/>
<polyline clip-path="url(#clip121)" style="stroke:#000000; stroke-linecap:round; stroke-linejoin:round; stroke-width:2; stroke-opacity:0.1; fill:none" points="448.779,1043.09 2674.02,1043.09 "/>
<polyline clip-path="url(#clip121)" style="stroke:#000000; stroke-linecap:round; stroke-linejoin:round; stroke-width:2; stroke-opacity:0.1; fill:none" points="448.779,686.416 2674.02,686.416 "/>
<polyline clip-path="url(#clip121)" style="stroke:#000000; stroke-linecap:round; stroke-linejoin:round; stroke-width:2; stroke-opacity:0.1; fill:none" points="448.779,329.743 2674.02,329.743 "/>
<polyline clip-path="url(#clip120)" style="stroke:#000000; stroke-linecap:round; stroke-linejoin:round; stroke-width:4; stroke-opacity:1; fill:none" points="448.779,1630.83 2674.02,1630.83 "/>
<polyline clip-path="url(#clip120)" style="stroke:#000000; stroke-linecap:round; stroke-linejoin:round; stroke-width:4; stroke-opacity:1; fill:none" points="503.394,1630.83 503.394,1611.93 "/>
<polyline clip-path="url(#clip120)" style="stroke:#000000; stroke-linecap:round; stroke-linejoin:round; stroke-width:4; stroke-opacity:1; fill:none" points="921.577,1630.83 921.577,1611.93 "/>
<polyline clip-path="url(#clip120)" style="stroke:#000000; stroke-linecap:round; stroke-linejoin:round; stroke-width:4; stroke-opacity:1; fill:none" points="1339.76,1630.83 1339.76,1611.93 "/>
<polyline clip-path="url(#clip120)" style="stroke:#000000; stroke-linecap:round; stroke-linejoin:round; stroke-width:4; stroke-opacity:1; fill:none" points="1757.94,1630.83 1757.94,1611.93 "/>
<polyline clip-path="url(#clip120)" style="stroke:#000000; stroke-linecap:round; stroke-linejoin:round; stroke-width:4; stroke-opacity:1; fill:none" points="2176.13,1630.83 2176.13,1611.93 "/>
<polyline clip-path="url(#clip120)" style="stroke:#000000; stroke-linecap:round; stroke-linejoin:round; stroke-width:4; stroke-opacity:1; fill:none" points="2594.31,1630.83 2594.31,1611.93 "/>
<path clip-path="url(#clip120)" d="M503.394 1667.88 Q498.88 1667.88 496.594 1672.34 Q494.337 1676.76 494.337 1685.67 Q494.337 1694.56 496.594 1699.01 Q498.88 1703.44 503.394 1703.44 Q507.936 1703.44 510.193 1699.01 Q512.479 1694.56 512.479 1685.67 Q512.479 1676.76 510.193 1672.34 Q507.936 1667.88 503.394 1667.88 M503.394 1663.25 Q510.656 1663.25 514.476 1669.01 Q518.324 1674.74 518.324 1685.67 Q518.324 1696.58 514.476 1702.34 Q510.656 1708.07 503.394 1708.07 Q496.131 1708.07 492.283 1702.34 Q488.463 1696.58 488.463 1685.67 Q488.463 1674.74 492.283 1669.01 Q496.131 1663.25 503.394 1663.25 Z" fill="#000000" fill-rule="nonzero" fill-opacity="1" /><path clip-path="url(#clip120)" d="M889.951 1664.03 L912.896 1664.03 L912.896 1668.95 L895.304 1668.95 L895.304 1679.54 Q896.577 1679.11 897.85 1678.9 Q899.123 1678.67 900.396 1678.67 Q907.63 1678.67 911.855 1682.64 Q916.079 1686.6 916.079 1693.37 Q916.079 1700.34 911.739 1704.22 Q907.399 1708.07 899.499 1708.07 Q896.78 1708.07 893.944 1707.61 Q891.137 1707.14 888.128 1706.22 L888.128 1700.34 Q890.732 1701.76 893.51 1702.46 Q896.288 1703.15 899.384 1703.15 Q904.389 1703.15 907.312 1700.52 Q910.234 1697.89 910.234 1693.37 Q910.234 1688.86 907.312 1686.22 Q904.389 1683.59 899.384 1683.59 Q897.04 1683.59 894.696 1684.11 Q892.381 1684.63 889.951 1685.73 L889.951 1664.03 Z" fill="#000000" fill-rule="nonzero" fill-opacity="1" /><path clip-path="url(#clip120)" d="M940.095 1667.88 Q935.581 1667.88 933.296 1672.34 Q931.039 1676.76 931.039 1685.67 Q931.039 1694.56 933.296 1699.01 Q935.581 1703.44 940.095 1703.44 Q944.638 1703.44 946.895 1699.01 Q949.181 1694.56 949.181 1685.67 Q949.181 1676.76 946.895 1672.34 Q944.638 1667.88 940.095 1667.88 M940.095 1663.25 Q947.358 1663.25 951.177 1669.01 Q955.026 1674.74 955.026 1685.67 Q955.026 1696.58 951.177 1702.34 Q947.358 1708.07 940.095 1708.07 Q932.833 1708.07 928.984 1702.34 Q925.165 1696.58 925.165 1685.67 Q925.165 1674.74 928.984 1669.01 Q932.833 1663.25 940.095 1663.25 Z" fill="#000000" fill-rule="nonzero" fill-opacity="1" /><path clip-path="url(#clip120)" d="M1289.27 1702.31 L1298.82 1702.31 L1298.82 1669.36 L1288.43 1671.44 L1288.43 1666.11 L1298.76 1664.03 L1304.6 1664.03 L1304.6 1702.31 L1314.15 1702.31 L1314.15 1707.23 L1289.27 1707.23 L1289.27 1702.31 Z" fill="#000000" fill-rule="nonzero" fill-opacity="1" /><path clip-path="url(#clip120)" d="M1338.46 1667.88 Q1333.94 1667.88 1331.66 1672.34 Q1329.4 1676.76 1329.4 1685.67 Q1329.4 1694.56 1331.66 1699.01 Q1333.94 1703.44 1338.46 1703.44 Q1343 1703.44 1345.26 1699.01 Q1347.54 1694.56 1347.54 1685.67 Q1347.54 1676.76 1345.26 1672.34 Q1343 1667.88 1338.46 1667.88 M1338.46 1663.25 Q1345.72 1663.25 1349.54 1669.01 Q1353.39 1674.74 1353.39 1685.67 Q1353.39 1696.58 1349.54 1702.34 Q1345.72 1708.07 1338.46 1708.07 Q1331.2 1708.07 1327.35 1702.34 Q1323.53 1696.58 1323.53 1685.67 Q1323.53 1674.74 1327.35 1669.01 Q1331.2 1663.25 1338.46 1663.25 Z" fill="#000000" fill-rule="nonzero" fill-opacity="1" /><path clip-path="url(#clip120)" d="M1376.16 1667.88 Q1371.65 1667.88 1369.36 1672.34 Q1367.1 1676.76 1367.1 1685.67 Q1367.1 1694.56 1369.36 1699.01 Q1371.65 1703.44 1376.16 1703.44 Q1380.7 1703.44 1382.96 1699.01 Q1385.25 1694.56 1385.25 1685.67 Q1385.25 1676.76 1382.96 1672.34 Q1380.7 1667.88 1376.16 1667.88 M1376.16 1663.25 Q1383.42 1663.25 1387.24 1669.01 Q1391.09 1674.74 1391.09 1685.67 Q1391.09 1696.58 1387.24 1702.34 Q1383.42 1708.07 1376.16 1708.07 Q1368.9 1708.07 1365.05 1702.34 Q1361.23 1696.58 1361.23 1685.67 Q1361.23 1674.74 1365.05 1669.01 Q1368.9 1663.25 1376.16 1663.25 Z" fill="#000000" fill-rule="nonzero" fill-opacity="1" /><path clip-path="url(#clip120)" d="M1707.45 1702.31 L1717 1702.31 L1717 1669.36 L1706.61 1671.44 L1706.61 1666.11 L1716.94 1664.03 L1722.79 1664.03 L1722.79 1702.31 L1732.34 1702.31 L1732.34 1707.23 L1707.45 1707.23 L1707.45 1702.31 Z" fill="#000000" fill-rule="nonzero" fill-opacity="1" /><path clip-path="url(#clip120)" d="M1744.2 1664.03 L1767.14 1664.03 L1767.14 1668.95 L1749.55 1668.95 L1749.55 1679.54 Q1750.83 1679.11 1752.1 1678.9 Q1753.37 1678.67 1754.64 1678.67 Q1761.88 1678.67 1766.1 1682.64 Q1770.33 1686.6 1770.33 1693.37 Q1770.33 1700.34 1765.99 1704.22 Q1761.65 1708.07 1753.75 1708.07 Q1751.03 1708.07 1748.19 1707.61 Q1745.39 1707.14 1742.38 1706.22 L1742.38 1700.34 Q1744.98 1701.76 1747.76 1702.46 Q1750.54 1703.15 1753.63 1703.15 Q1758.64 1703.15 1761.56 1700.52 Q1764.48 1697.89 1764.48 1693.37 Q1764.48 1688.86 1761.56 1686.22 Q1758.64 1683.59 1753.63 1683.59 Q1751.29 1683.59 1748.94 1684.11 Q1746.63 1684.63 1744.2 1685.73 L1744.2 1664.03 Z" fill="#000000" fill-rule="nonzero" fill-opacity="1" /><path clip-path="url(#clip120)" d="M1794.34 1667.88 Q1789.83 1667.88 1787.54 1672.34 Q1785.29 1676.76 1785.29 1685.67 Q1785.29 1694.56 1787.54 1699.01 Q1789.83 1703.44 1794.34 1703.44 Q1798.89 1703.44 1801.14 1699.01 Q1803.43 1694.56 1803.43 1685.67 Q1803.43 1676.76 1801.14 1672.34 Q1798.89 1667.88 1794.34 1667.88 M1794.34 1663.25 Q1801.61 1663.25 1805.43 1669.01 Q1809.27 1674.74 1809.27 1685.67 Q1809.27 1696.58 1805.43 1702.34 Q1801.61 1708.07 1794.34 1708.07 Q1787.08 1708.07 1783.23 1702.34 Q1779.41 1696.58 1779.41 1685.67 Q1779.41 1674.74 1783.23 1669.01 Q1787.08 1663.25 1794.34 1663.25 Z" fill="#000000" fill-rule="nonzero" fill-opacity="1" /><path clip-path="url(#clip120)" d="M2130.74 1702.31 L2151.14 1702.31 L2151.14 1707.23 L2123.71 1707.23 L2123.71 1702.31 Q2127.04 1698.87 2132.77 1693.08 Q2138.53 1687.27 2140 1685.59 Q2142.81 1682.43 2143.91 1680.26 Q2145.04 1678.06 2145.04 1675.95 Q2145.04 1672.51 2142.61 1670.34 Q2140.2 1668.17 2136.33 1668.17 Q2133.58 1668.17 2130.51 1669.12 Q2127.47 1670.08 2124 1672.02 L2124 1666.11 Q2127.53 1664.7 2130.6 1663.97 Q2133.66 1663.25 2136.21 1663.25 Q2142.92 1663.25 2146.92 1666.61 Q2150.91 1669.96 2150.91 1675.58 Q2150.91 1678.24 2149.9 1680.64 Q2148.91 1683.01 2146.28 1686.25 Q2145.56 1687.09 2141.68 1691.11 Q2137.8 1695.11 2130.74 1702.31 Z" fill="#000000" fill-rule="nonzero" fill-opacity="1" /><path clip-path="url(#clip120)" d="M2175.91 1667.88 Q2171.4 1667.88 2169.11 1672.34 Q2166.85 1676.76 2166.85 1685.67 Q2166.85 1694.56 2169.11 1699.01 Q2171.4 1703.44 2175.91 1703.44 Q2180.45 1703.44 2182.71 1699.01 Q2185 1694.56 2185 1685.67 Q2185 1676.76 2182.71 1672.34 Q2180.45 1667.88 2175.91 1667.88 M2175.91 1663.25 Q2183.17 1663.25 2186.99 1669.01 Q2190.84 1674.74 2190.84 1685.67 Q2190.84 1696.58 2186.99 1702.34 Q2183.17 1708.07 2175.91 1708.07 Q2168.65 1708.07 2164.8 1702.34 Q2160.98 1696.58 2160.98 1685.67 Q2160.98 1674.74 2164.8 1669.01 Q2168.65 1663.25 2175.91 1663.25 Z" fill="#000000" fill-rule="nonzero" fill-opacity="1" /><path clip-path="url(#clip120)" d="M2213.61 1667.88 Q2209.1 1667.88 2206.81 1672.34 Q2204.56 1676.76 2204.56 1685.67 Q2204.56 1694.56 2206.81 1699.01 Q2209.1 1703.44 2213.61 1703.44 Q2218.15 1703.44 2220.41 1699.01 Q2222.7 1694.56 2222.7 1685.67 Q2222.7 1676.76 2220.41 1672.34 Q2218.15 1667.88 2213.61 1667.88 M2213.61 1663.25 Q2220.87 1663.25 2224.69 1669.01 Q2228.54 1674.74 2228.54 1685.67 Q2228.54 1696.58 2224.69 1702.34 Q2220.87 1708.07 2213.61 1708.07 Q2206.35 1708.07 2202.5 1702.34 Q2198.68 1696.58 2198.68 1685.67 Q2198.68 1674.74 2202.5 1669.01 Q2206.35 1663.25 2213.61 1663.25 Z" fill="#000000" fill-rule="nonzero" fill-opacity="1" /><path clip-path="url(#clip120)" d="M2548.93 1702.31 L2569.32 1702.31 L2569.32 1707.23 L2541.89 1707.23 L2541.89 1702.31 Q2545.22 1698.87 2550.95 1693.08 Q2556.71 1687.27 2558.18 1685.59 Q2560.99 1682.43 2562.09 1680.26 Q2563.22 1678.06 2563.22 1675.95 Q2563.22 1672.51 2560.79 1670.34 Q2558.39 1668.17 2554.51 1668.17 Q2551.76 1668.17 2548.69 1669.12 Q2545.66 1670.08 2542.18 1672.02 L2542.18 1666.11 Q2545.71 1664.7 2548.78 1663.97 Q2551.85 1663.25 2554.39 1663.25 Q2561.11 1663.25 2565.1 1666.61 Q2569.09 1669.96 2569.09 1675.58 Q2569.09 1678.24 2568.08 1680.64 Q2567.1 1683.01 2564.46 1686.25 Q2563.74 1687.09 2559.86 1691.11 Q2555.99 1695.11 2548.93 1702.31 Z" fill="#000000" fill-rule="nonzero" fill-opacity="1" /><path clip-path="url(#clip120)" d="M2581.65 1664.03 L2604.6 1664.03 L2604.6 1668.95 L2587 1668.95 L2587 1679.54 Q2588.28 1679.11 2589.55 1678.9 Q2590.82 1678.67 2592.1 1678.67 Q2599.33 1678.67 2603.55 1682.64 Q2607.78 1686.6 2607.78 1693.37 Q2607.78 1700.34 2603.44 1704.22 Q2599.1 1708.07 2591.2 1708.07 Q2588.48 1708.07 2585.64 1707.61 Q2582.84 1707.14 2579.83 1706.22 L2579.83 1700.34 Q2582.43 1701.76 2585.21 1702.46 Q2587.99 1703.15 2591.08 1703.15 Q2596.09 1703.15 2599.01 1700.52 Q2601.93 1697.89 2601.93 1693.37 Q2601.93 1688.86 2599.01 1686.22 Q2596.09 1683.59 2591.08 1683.59 Q2588.74 1683.59 2586.4 1684.11 Q2584.08 1684.63 2581.65 1685.73 L2581.65 1664.03 Z" fill="#000000" fill-rule="nonzero" fill-opacity="1" /><path clip-path="url(#clip120)" d="M2631.8 1667.88 Q2627.28 1667.88 2625 1672.34 Q2622.74 1676.76 2622.74 1685.67 Q2622.74 1694.56 2625 1699.01 Q2627.28 1703.44 2631.8 1703.44 Q2636.34 1703.44 2638.6 1699.01 Q2640.88 1694.56 2640.88 1685.67 Q2640.88 1676.76 2638.6 1672.34 Q2636.34 1667.88 2631.8 1667.88 M2631.8 1663.25 Q2639.06 1663.25 2642.88 1669.01 Q2646.73 1674.74 2646.73 1685.67 Q2646.73 1696.58 2642.88 1702.34 Q2639.06 1708.07 2631.8 1708.07 Q2624.53 1708.07 2620.68 1702.34 Q2616.86 1696.58 2616.86 1685.67 Q2616.86 1674.74 2620.68 1669.01 Q2624.53 1663.25 2631.8 1663.25 Z" fill="#000000" fill-rule="nonzero" fill-opacity="1" /><path clip-path="url(#clip120)" d="M1268.26 1747.14 L1274.69 1747.14 L1274.69 1789.24 L1297.83 1789.24 L1297.83 1794.66 L1268.26 1794.66 L1268.26 1747.14 Z" fill="#000000" fill-rule="nonzero" fill-opacity="1" /><path clip-path="url(#clip120)" d="M1320.52 1776.74 Q1313.42 1776.74 1310.68 1778.36 Q1307.95 1779.98 1307.95 1783.9 Q1307.95 1787.02 1309.98 1788.86 Q1312.05 1790.68 1315.59 1790.68 Q1320.46 1790.68 1323.38 1787.24 Q1326.34 1783.77 1326.34 1778.04 L1326.34 1776.74 L1320.52 1776.74 M1332.2 1774.32 L1332.2 1794.66 L1326.34 1794.66 L1326.34 1789.24 Q1324.34 1792.49 1321.35 1794.05 Q1318.35 1795.58 1314.03 1795.58 Q1308.55 1795.58 1305.3 1792.52 Q1302.09 1789.44 1302.09 1784.28 Q1302.09 1778.26 1306.1 1775.21 Q1310.14 1772.15 1318.13 1772.15 L1326.34 1772.15 L1326.34 1771.58 Q1326.34 1767.54 1323.67 1765.34 Q1321.03 1763.11 1316.22 1763.11 Q1313.17 1763.11 1310.27 1763.85 Q1307.37 1764.58 1304.7 1766.04 L1304.7 1760.63 Q1307.91 1759.39 1310.94 1758.78 Q1313.96 1758.15 1316.83 1758.15 Q1324.56 1758.15 1328.38 1762.16 Q1332.2 1766.17 1332.2 1774.32 Z" fill="#000000" fill-rule="nonzero" fill-opacity="1" /><path clip-path="url(#clip120)" d="M1367.72 1776.42 Q1367.72 1770.05 1365.08 1766.55 Q1362.47 1763.05 1357.73 1763.05 Q1353.02 1763.05 1350.37 1766.55 Q1347.76 1770.05 1347.76 1776.42 Q1347.76 1782.75 1350.37 1786.25 Q1353.02 1789.75 1357.73 1789.75 Q1362.47 1789.75 1365.08 1786.25 Q1367.72 1782.75 1367.72 1776.42 M1373.58 1790.23 Q1373.58 1799.33 1369.53 1803.76 Q1365.49 1808.21 1357.15 1808.21 Q1354.07 1808.21 1351.33 1807.74 Q1348.59 1807.29 1346.01 1806.34 L1346.01 1800.64 Q1348.59 1802.04 1351.11 1802.71 Q1353.62 1803.38 1356.23 1803.38 Q1361.99 1803.38 1364.86 1800.35 Q1367.72 1797.36 1367.72 1791.28 L1367.72 1788.39 Q1365.91 1791.54 1363.07 1793.1 Q1360.24 1794.66 1356.29 1794.66 Q1349.74 1794.66 1345.73 1789.66 Q1341.72 1784.66 1341.72 1776.42 Q1341.72 1768.14 1345.73 1763.15 Q1349.74 1758.15 1356.29 1758.15 Q1360.24 1758.15 1363.07 1759.71 Q1365.91 1761.27 1367.72 1764.42 L1367.72 1759.01 L1373.58 1759.01 L1373.58 1790.23 Z" fill="#000000" fill-rule="nonzero" fill-opacity="1" /><path clip-path="url(#clip120)" d="M1420.43 1745.19 Q1416.16 1752.51 1414.09 1759.68 Q1412.03 1766.84 1412.03 1774.19 Q1412.03 1781.54 1414.09 1788.77 Q1416.2 1795.96 1420.43 1803.25 L1415.34 1803.25 Q1410.56 1795.77 1408.17 1788.54 Q1405.82 1781.32 1405.82 1774.19 Q1405.82 1767.09 1408.17 1759.9 Q1410.53 1752.71 1415.34 1745.19 L1420.43 1745.19 Z" fill="#000000" fill-rule="nonzero" fill-opacity="1" /><path clip-path="url(#clip120)" d="M1437.58 1748.89 L1437.58 1759.01 L1449.65 1759.01 L1449.65 1763.56 L1437.58 1763.56 L1437.58 1782.91 Q1437.58 1787.27 1438.76 1788.51 Q1439.97 1789.75 1443.63 1789.75 L1449.65 1789.75 L1449.65 1794.66 L1443.63 1794.66 Q1436.85 1794.66 1434.27 1792.14 Q1431.7 1789.59 1431.7 1782.91 L1431.7 1763.56 L1427.4 1763.56 L1427.4 1759.01 L1431.7 1759.01 L1431.7 1748.89 L1437.58 1748.89 Z" fill="#000000" fill-rule="nonzero" fill-opacity="1" /><path clip-path="url(#clip120)" d="M1478.01 1764.48 Q1477.02 1763.91 1475.84 1763.65 Q1474.7 1763.37 1473.3 1763.37 Q1468.33 1763.37 1465.66 1766.61 Q1463.02 1769.83 1463.02 1775.88 L1463.02 1794.66 L1457.13 1794.66 L1457.13 1759.01 L1463.02 1759.01 L1463.02 1764.55 Q1464.86 1761.3 1467.82 1759.74 Q1470.78 1758.15 1475.01 1758.15 Q1475.62 1758.15 1476.35 1758.24 Q1477.08 1758.31 1477.97 1758.47 L1478.01 1764.48 Z" fill="#000000" fill-rule="nonzero" fill-opacity="1" /><path clip-path="url(#clip120)" d="M1500.35 1776.74 Q1493.25 1776.74 1490.52 1778.36 Q1487.78 1779.98 1487.78 1783.9 Q1487.78 1787.02 1489.81 1788.86 Q1491.88 1790.68 1495.42 1790.68 Q1500.29 1790.68 1503.21 1787.24 Q1506.17 1783.77 1506.17 1778.04 L1506.17 1776.74 L1500.35 1776.74 M1512.03 1774.32 L1512.03 1794.66 L1506.17 1794.66 L1506.17 1789.24 Q1504.17 1792.49 1501.18 1794.05 Q1498.19 1795.58 1493.86 1795.58 Q1488.38 1795.58 1485.14 1792.52 Q1481.92 1789.44 1481.92 1784.28 Q1481.92 1778.26 1485.93 1775.21 Q1489.97 1772.15 1497.96 1772.15 L1506.17 1772.15 L1506.17 1771.58 Q1506.17 1767.54 1503.5 1765.34 Q1500.86 1763.11 1496.05 1763.11 Q1493 1763.11 1490.1 1763.85 Q1487.2 1764.58 1484.53 1766.04 L1484.53 1760.63 Q1487.75 1759.39 1490.77 1758.78 Q1493.79 1758.15 1496.66 1758.15 Q1504.39 1758.15 1508.21 1762.16 Q1512.03 1766.17 1512.03 1774.32 Z" fill="#000000" fill-rule="nonzero" fill-opacity="1" /><path clip-path="url(#clip120)" d="M1547.55 1764.42 L1547.55 1745.13 L1553.41 1745.13 L1553.41 1794.66 L1547.55 1794.66 L1547.55 1789.31 Q1545.71 1792.49 1542.87 1794.05 Q1540.07 1795.58 1536.13 1795.58 Q1529.66 1795.58 1525.59 1790.42 Q1521.55 1785.27 1521.55 1776.86 Q1521.55 1768.46 1525.59 1763.3 Q1529.66 1758.15 1536.13 1758.15 Q1540.07 1758.15 1542.87 1759.71 Q1545.71 1761.24 1547.55 1764.42 M1527.6 1776.86 Q1527.6 1783.32 1530.24 1787.02 Q1532.91 1790.68 1537.56 1790.68 Q1542.2 1790.68 1544.88 1787.02 Q1547.55 1783.32 1547.55 1776.86 Q1547.55 1770.4 1544.88 1766.74 Q1542.2 1763.05 1537.56 1763.05 Q1532.91 1763.05 1530.24 1766.74 Q1527.6 1770.4 1527.6 1776.86 Z" fill="#000000" fill-rule="nonzero" fill-opacity="1" /><path clip-path="url(#clip120)" d="M1565.47 1759.01 L1571.33 1759.01 L1571.33 1794.66 L1565.47 1794.66 L1565.47 1759.01 M1565.47 1745.13 L1571.33 1745.13 L1571.33 1752.55 L1565.47 1752.55 L1565.47 1745.13 Z" fill="#000000" fill-rule="nonzero" fill-opacity="1" /><path clip-path="url(#clip120)" d="M1613.21 1773.14 L1613.21 1794.66 L1607.36 1794.66 L1607.36 1773.33 Q1607.36 1768.27 1605.38 1765.76 Q1603.41 1763.24 1599.46 1763.24 Q1594.72 1763.24 1591.98 1766.26 Q1589.25 1769.29 1589.25 1774.51 L1589.25 1794.66 L1583.36 1794.66 L1583.36 1759.01 L1589.25 1759.01 L1589.25 1764.55 Q1591.35 1761.33 1594.18 1759.74 Q1597.05 1758.15 1600.77 1758.15 Q1606.91 1758.15 1610.06 1761.97 Q1613.21 1765.76 1613.21 1773.14 Z" fill="#000000" fill-rule="nonzero" fill-opacity="1" /><path clip-path="url(#clip120)" d="M1648.35 1776.42 Q1648.35 1770.05 1645.71 1766.55 Q1643.1 1763.05 1638.36 1763.05 Q1633.65 1763.05 1631.01 1766.55 Q1628.4 1770.05 1628.4 1776.42 Q1628.4 1782.75 1631.01 1786.25 Q1633.65 1789.75 1638.36 1789.75 Q1643.1 1789.75 1645.71 1786.25 Q1648.35 1782.75 1648.35 1776.42 M1654.21 1790.23 Q1654.21 1799.33 1650.17 1803.76 Q1646.12 1808.21 1637.79 1808.21 Q1634.7 1808.21 1631.96 1807.74 Q1629.22 1807.29 1626.65 1806.34 L1626.65 1800.64 Q1629.22 1802.04 1631.74 1802.71 Q1634.25 1803.38 1636.86 1803.38 Q1642.62 1803.38 1645.49 1800.35 Q1648.35 1797.36 1648.35 1791.28 L1648.35 1788.39 Q1646.54 1791.54 1643.71 1793.1 Q1640.87 1794.66 1636.93 1794.66 Q1630.37 1794.66 1626.36 1789.66 Q1622.35 1784.66 1622.35 1776.42 Q1622.35 1768.14 1626.36 1763.15 Q1630.37 1758.15 1636.93 1758.15 Q1640.87 1758.15 1643.71 1759.71 Q1646.54 1761.27 1648.35 1764.42 L1648.35 1759.01 L1654.21 1759.01 L1654.21 1790.23 Z" fill="#000000" fill-rule="nonzero" fill-opacity="1" /><path clip-path="url(#clip120)" d="M1710.45 1764.42 L1710.45 1745.13 L1716.31 1745.13 L1716.31 1794.66 L1710.45 1794.66 L1710.45 1789.31 Q1708.6 1792.49 1705.77 1794.05 Q1702.97 1795.58 1699.02 1795.58 Q1692.56 1795.58 1688.49 1790.42 Q1684.45 1785.27 1684.45 1776.86 Q1684.45 1768.46 1688.49 1763.3 Q1692.56 1758.15 1699.02 1758.15 Q1702.97 1758.15 1705.77 1759.71 Q1708.6 1761.24 1710.45 1764.42 M1690.49 1776.86 Q1690.49 1783.32 1693.14 1787.02 Q1695.81 1790.68 1700.46 1790.68 Q1705.1 1790.68 1707.78 1787.02 Q1710.45 1783.32 1710.45 1776.86 Q1710.45 1770.4 1707.78 1766.74 Q1705.1 1763.05 1700.46 1763.05 Q1695.81 1763.05 1693.14 1766.74 Q1690.49 1770.4 1690.49 1776.86 Z" fill="#000000" fill-rule="nonzero" fill-opacity="1" /><path clip-path="url(#clip120)" d="M1744.57 1776.74 Q1737.47 1776.74 1734.74 1778.36 Q1732 1779.98 1732 1783.9 Q1732 1787.02 1734.04 1788.86 Q1736.1 1790.68 1739.64 1790.68 Q1744.51 1790.68 1747.44 1787.24 Q1750.4 1783.77 1750.4 1778.04 L1750.4 1776.74 L1744.57 1776.74 M1756.25 1774.32 L1756.25 1794.66 L1750.4 1794.66 L1750.4 1789.24 Q1748.39 1792.49 1745.4 1794.05 Q1742.41 1795.58 1738.08 1795.58 Q1732.6 1795.58 1729.36 1792.52 Q1726.14 1789.44 1726.14 1784.28 Q1726.14 1778.26 1730.15 1775.21 Q1734.19 1772.15 1742.18 1772.15 L1750.4 1772.15 L1750.4 1771.58 Q1750.4 1767.54 1747.72 1765.34 Q1745.08 1763.11 1740.27 1763.11 Q1737.22 1763.11 1734.32 1763.85 Q1731.43 1764.58 1728.75 1766.04 L1728.75 1760.63 Q1731.97 1759.39 1734.99 1758.78 Q1738.01 1758.15 1740.88 1758.15 Q1748.61 1758.15 1752.43 1762.16 Q1756.25 1766.17 1756.25 1774.32 Z" fill="#000000" fill-rule="nonzero" fill-opacity="1" /><path clip-path="url(#clip120)" d="M1783.15 1797.97 Q1780.66 1804.33 1778.31 1806.27 Q1775.95 1808.21 1772.01 1808.21 L1767.33 1808.21 L1767.33 1803.31 L1770.77 1803.31 Q1773.18 1803.31 1774.52 1802.17 Q1775.86 1801.02 1777.48 1796.76 L1778.53 1794.08 L1764.11 1759.01 L1770.32 1759.01 L1781.46 1786.89 L1792.6 1759.01 L1798.81 1759.01 L1783.15 1797.97 Z" fill="#000000" fill-rule="nonzero" fill-opacity="1" /><path clip-path="url(#clip120)" d="M1829.62 1760.06 L1829.62 1765.6 Q1827.13 1764.32 1824.46 1763.69 Q1821.79 1763.05 1818.92 1763.05 Q1814.56 1763.05 1812.37 1764.39 Q1810.2 1765.72 1810.2 1768.4 Q1810.2 1770.43 1811.76 1771.61 Q1813.32 1772.76 1818.03 1773.81 L1820.04 1774.25 Q1826.27 1775.59 1828.88 1778.04 Q1831.53 1780.46 1831.53 1784.82 Q1831.53 1789.79 1827.58 1792.68 Q1823.66 1795.58 1816.79 1795.58 Q1813.92 1795.58 1810.81 1795.01 Q1807.72 1794.46 1804.28 1793.35 L1804.28 1787.3 Q1807.53 1788.99 1810.68 1789.85 Q1813.83 1790.68 1816.92 1790.68 Q1821.05 1790.68 1823.28 1789.28 Q1825.51 1787.84 1825.51 1785.27 Q1825.51 1782.88 1823.89 1781.61 Q1822.3 1780.33 1816.85 1779.16 L1814.82 1778.68 Q1809.37 1777.53 1806.95 1775.18 Q1804.54 1772.79 1804.54 1768.65 Q1804.54 1763.62 1808.1 1760.89 Q1811.67 1758.15 1818.22 1758.15 Q1821.47 1758.15 1824.33 1758.63 Q1827.2 1759.1 1829.62 1760.06 Z" fill="#000000" fill-rule="nonzero" fill-opacity="1" /><path clip-path="url(#clip120)" d="M1839.93 1745.19 L1845.02 1745.19 Q1849.8 1752.71 1852.15 1759.9 Q1854.54 1767.09 1854.54 1774.19 Q1854.54 1781.32 1852.15 1788.54 Q1849.8 1795.77 1845.02 1803.25 L1839.93 1803.25 Q1844.16 1795.96 1846.23 1788.77 Q1848.33 1781.54 1848.33 1774.19 Q1848.33 1766.84 1846.23 1759.68 Q1844.16 1752.51 1839.93 1745.19 Z" fill="#000000" fill-rule="nonzero" fill-opacity="1" /><polyline clip-path="url(#clip120)" style="stroke:#000000; stroke-linecap:round; stroke-linejoin:round; stroke-width:4; stroke-opacity:1; fill:none" points="448.779,1630.83 448.779,125.984 "/>
<polyline clip-path="url(#clip120)" style="stroke:#000000; stroke-linecap:round; stroke-linejoin:round; stroke-width:4; stroke-opacity:1; fill:none" points="448.779,1399.76 467.676,1399.76 "/>
<polyline clip-path="url(#clip120)" style="stroke:#000000; stroke-linecap:round; stroke-linejoin:round; stroke-width:4; stroke-opacity:1; fill:none" points="448.779,1043.09 467.676,1043.09 "/>
<polyline clip-path="url(#clip120)" style="stroke:#000000; stroke-linecap:round; stroke-linejoin:round; stroke-width:4; stroke-opacity:1; fill:none" points="448.779,686.416 467.676,686.416 "/>
<polyline clip-path="url(#clip120)" style="stroke:#000000; stroke-linecap:round; stroke-linejoin:round; stroke-width:4; stroke-opacity:1; fill:none" points="448.779,329.743 467.676,329.743 "/>
<path clip-path="url(#clip120)" d="M335.309 1382.01 Q330.795 1382.01 328.51 1386.47 Q326.253 1390.89 326.253 1399.8 Q326.253 1408.69 328.51 1413.14 Q330.795 1417.57 335.309 1417.57 Q339.852 1417.57 342.109 1413.14 Q344.395 1408.69 344.395 1399.8 Q344.395 1390.89 342.109 1386.47 Q339.852 1382.01 335.309 1382.01 M335.309 1377.38 Q342.572 1377.38 346.391 1383.14 Q350.24 1388.87 350.24 1399.8 Q350.24 1410.71 346.391 1416.47 Q342.572 1422.2 335.309 1422.2 Q328.047 1422.2 324.198 1416.47 Q320.379 1410.71 320.379 1399.8 Q320.379 1388.87 324.198 1383.14 Q328.047 1377.38 335.309 1377.38 Z" fill="#000000" fill-rule="nonzero" fill-opacity="1" /><path clip-path="url(#clip120)" d="M360.512 1414.01 L366.617 1414.01 L366.617 1421.36 L360.512 1421.36 L360.512 1414.01 Z" fill="#000000" fill-rule="nonzero" fill-opacity="1" /><path clip-path="url(#clip120)" d="M391.848 1382.01 Q387.335 1382.01 385.049 1386.47 Q382.792 1390.89 382.792 1399.8 Q382.792 1408.69 385.049 1413.14 Q387.335 1417.57 391.848 1417.57 Q396.391 1417.57 398.648 1413.14 Q400.934 1408.69 400.934 1399.8 Q400.934 1390.89 398.648 1386.47 Q396.391 1382.01 391.848 1382.01 M391.848 1377.38 Q399.111 1377.38 402.93 1383.14 Q406.779 1388.87 406.779 1399.8 Q406.779 1410.71 402.93 1416.47 Q399.111 1422.2 391.848 1422.2 Q384.586 1422.2 380.737 1416.47 Q376.918 1410.71 376.918 1399.8 Q376.918 1388.87 380.737 1383.14 Q384.586 1377.38 391.848 1377.38 Z" fill="#000000" fill-rule="nonzero" fill-opacity="1" /><path clip-path="url(#clip120)" d="M336.843 1025.34 Q332.329 1025.34 330.043 1029.79 Q327.786 1034.22 327.786 1043.13 Q327.786 1052.02 330.043 1056.47 Q332.329 1060.9 336.843 1060.9 Q341.386 1060.9 343.643 1056.47 Q345.928 1052.02 345.928 1043.13 Q345.928 1034.22 343.643 1029.79 Q341.386 1025.34 336.843 1025.34 M336.843 1020.71 Q344.106 1020.71 347.925 1026.47 Q351.773 1032.19 351.773 1043.13 Q351.773 1054.04 347.925 1059.8 Q344.106 1065.53 336.843 1065.53 Q329.58 1065.53 325.732 1059.8 Q321.912 1054.04 321.912 1043.13 Q321.912 1032.19 325.732 1026.47 Q329.58 1020.71 336.843 1020.71 Z" fill="#000000" fill-rule="nonzero" fill-opacity="1" /><path clip-path="url(#clip120)" d="M362.045 1057.34 L368.151 1057.34 L368.151 1064.69 L362.045 1064.69 L362.045 1057.34 Z" fill="#000000" fill-rule="nonzero" fill-opacity="1" /><path clip-path="url(#clip120)" d="M381.895 1059.77 L391.443 1059.77 L391.443 1026.81 L381.056 1028.9 L381.056 1023.57 L391.385 1021.49 L397.23 1021.49 L397.23 1059.77 L406.779 1059.77 L406.779 1064.69 L381.895 1064.69 L381.895 1059.77 Z" fill="#000000" fill-rule="nonzero" fill-opacity="1" /><path clip-path="url(#clip120)" d="M337.306 668.664 Q332.792 668.664 330.506 673.12 Q328.249 677.547 328.249 686.459 Q328.249 695.342 330.506 699.798 Q332.792 704.225 337.306 704.225 Q341.849 704.225 344.106 699.798 Q346.391 695.342 346.391 686.459 Q346.391 677.547 344.106 673.12 Q341.849 668.664 337.306 668.664 M337.306 664.034 Q344.569 664.034 348.388 669.792 Q352.236 675.522 352.236 686.459 Q352.236 697.368 348.388 703.126 Q344.569 708.855 337.306 708.855 Q330.043 708.855 326.195 703.126 Q322.375 697.368 322.375 686.459 Q322.375 675.522 326.195 669.792 Q330.043 664.034 337.306 664.034 Z" fill="#000000" fill-rule="nonzero" fill-opacity="1" /><path clip-path="url(#clip120)" d="M362.508 700.666 L368.614 700.666 L368.614 708.016 L362.508 708.016 L362.508 700.666 Z" fill="#000000" fill-rule="nonzero" fill-opacity="1" /><path clip-path="url(#clip120)" d="M386.38 703.097 L406.779 703.097 L406.779 708.016 L379.348 708.016 L379.348 703.097 Q382.676 699.653 388.405 693.866 Q394.163 688.05 395.639 686.372 Q398.446 683.218 399.545 681.048 Q400.674 678.849 400.674 676.737 Q400.674 673.294 398.243 671.123 Q395.841 668.953 391.964 668.953 Q389.215 668.953 386.148 669.908 Q383.11 670.863 379.638 672.802 L379.638 666.899 Q383.168 665.481 386.235 664.758 Q389.302 664.034 391.848 664.034 Q398.561 664.034 402.554 667.391 Q406.547 670.747 406.547 676.361 Q406.547 679.023 405.535 681.424 Q404.551 683.797 401.918 687.038 Q401.194 687.877 397.317 691.899 Q393.44 695.892 386.38 703.097 Z" fill="#000000" fill-rule="nonzero" fill-opacity="1" /><path clip-path="url(#clip120)" d="M336.12 311.991 Q331.606 311.991 329.32 316.447 Q327.063 320.874 327.063 329.786 Q327.063 338.669 329.32 343.125 Q331.606 347.552 336.12 347.552 Q340.662 347.552 342.919 343.125 Q345.205 338.669 345.205 329.786 Q345.205 320.874 342.919 316.447 Q340.662 311.991 336.12 311.991 M336.12 307.361 Q343.382 307.361 347.202 313.12 Q351.05 318.849 351.05 329.786 Q351.05 340.695 347.202 346.453 Q343.382 352.182 336.12 352.182 Q328.857 352.182 325.008 346.453 Q321.189 340.695 321.189 329.786 Q321.189 318.849 325.008 313.12 Q328.857 307.361 336.12 307.361 Z" fill="#000000" fill-rule="nonzero" fill-opacity="1" /><path clip-path="url(#clip120)" d="M361.322 343.993 L367.427 343.993 L367.427 351.343 L361.322 351.343 L361.322 343.993 Z" fill="#000000" fill-rule="nonzero" fill-opacity="1" /><path clip-path="url(#clip120)" d="M397.867 328.05 Q402.062 328.947 404.406 331.783 Q406.779 334.618 406.779 338.785 Q406.779 345.18 402.381 348.681 Q397.983 352.182 389.881 352.182 Q387.161 352.182 384.267 351.632 Q381.403 351.111 378.336 350.041 L378.336 344.398 Q380.766 345.816 383.66 346.539 Q386.553 347.263 389.707 347.263 Q395.205 347.263 398.069 345.093 Q400.963 342.923 400.963 338.785 Q400.963 334.965 398.272 332.824 Q395.61 330.654 390.836 330.654 L385.801 330.654 L385.801 325.851 L391.067 325.851 Q395.378 325.851 397.664 324.144 Q399.95 322.408 399.95 319.167 Q399.95 315.839 397.578 314.074 Q395.234 312.28 390.836 312.28 Q388.434 312.28 385.685 312.801 Q382.936 313.322 379.638 314.422 L379.638 309.213 Q382.965 308.287 385.859 307.824 Q388.781 307.361 391.356 307.361 Q398.012 307.361 401.889 310.4 Q405.766 313.409 405.766 318.559 Q405.766 322.147 403.712 324.636 Q401.657 327.095 397.867 328.05 Z" fill="#000000" fill-rule="nonzero" fill-opacity="1" /><path clip-path="url(#clip120)" d="M222.937 1043.9 L246.585 1052.62 L246.585 1035.15 L222.937 1043.9 M216.603 1047.53 L216.603 1040.24 L264.123 1022.13 L264.123 1028.81 L251.933 1033.14 L251.933 1054.56 L264.123 1058.89 L264.123 1065.67 L216.603 1047.53 Z" fill="#000000" fill-rule="nonzero" fill-opacity="1" /><path clip-path="url(#clip120)" d="M220.263 980.753 L227.043 980.753 Q224.019 983.999 222.523 987.691 Q221.027 991.351 221.027 995.489 Q221.027 1003.64 226.024 1007.97 Q230.989 1012.29 240.411 1012.29 Q249.8 1012.29 254.797 1007.97 Q259.762 1003.64 259.762 995.489 Q259.762 991.351 258.266 987.691 Q256.77 983.999 253.747 980.753 L260.463 980.753 Q262.754 984.126 263.9 987.914 Q265.046 991.67 265.046 995.871 Q265.046 1006.66 258.457 1012.87 Q251.837 1019.07 240.411 1019.07 Q228.952 1019.07 222.364 1012.87 Q215.743 1006.66 215.743 995.871 Q215.743 991.606 216.889 987.85 Q218.003 984.063 220.263 980.753 Z" fill="#000000" fill-rule="nonzero" fill-opacity="1" /><path clip-path="url(#clip120)" d="M216.603 970.822 L216.603 943.513 L222.014 943.513 L222.014 964.393 L236.018 964.393 L236.018 945.55 L241.429 945.55 L241.429 964.393 L264.123 964.393 L264.123 970.822 L216.603 970.822 Z" fill="#000000" fill-rule="nonzero" fill-opacity="1" /><path clip-path="url(#clip120)" d="M232.581 899.049 Q232.581 903.759 236.273 906.497 Q239.933 909.234 246.331 909.234 Q252.728 909.234 256.42 906.528 Q260.081 903.791 260.081 899.049 Q260.081 894.37 256.389 891.633 Q252.696 888.895 246.331 888.895 Q239.997 888.895 236.305 891.633 Q232.581 894.37 232.581 899.049 M227.616 899.049 Q227.616 891.41 232.581 887.049 Q237.546 882.689 246.331 882.689 Q255.084 882.689 260.081 887.049 Q265.046 891.41 265.046 899.049 Q265.046 906.719 260.081 911.08 Q255.084 915.409 246.331 915.409 Q237.546 915.409 232.581 911.08 Q227.616 906.719 227.616 899.049 Z" fill="#000000" fill-rule="nonzero" fill-opacity="1" /><path clip-path="url(#clip120)" d="M214.598 854.934 L219.467 854.934 L219.467 860.536 Q219.467 863.687 220.741 864.928 Q222.014 866.138 225.324 866.138 L228.475 866.138 L228.475 856.494 L233.026 856.494 L233.026 866.138 L264.123 866.138 L264.123 872.026 L233.026 872.026 L233.026 877.628 L228.475 877.628 L228.475 872.026 L225.992 872.026 Q220.04 872.026 217.335 869.257 Q214.598 866.488 214.598 860.472 L214.598 854.934 Z" fill="#000000" fill-rule="nonzero" fill-opacity="1" /><path clip-path="url(#clip120)" d="M214.311 821.769 L279.496 821.769 L279.496 827.18 L214.311 827.18 L214.311 821.769 Z" fill="#000000" fill-rule="nonzero" fill-opacity="1" /><path clip-path="url(#clip120)" d="M257.343 774.695 L244.58 774.695 L244.58 785.198 L239.297 785.198 L239.297 768.329 L259.699 768.329 Q262.34 772.053 263.709 776.541 Q265.046 781.028 265.046 786.121 Q265.046 797.261 258.553 803.563 Q252.028 809.833 240.411 809.833 Q228.761 809.833 222.268 803.563 Q215.743 797.261 215.743 786.121 Q215.743 781.474 216.889 777.305 Q218.035 773.103 220.263 769.57 L227.106 769.57 Q224.083 773.135 222.555 777.145 Q221.027 781.156 221.027 785.58 Q221.027 794.301 225.897 798.693 Q230.767 803.054 240.411 803.054 Q250.023 803.054 254.893 798.693 Q259.762 794.301 259.762 785.58 Q259.762 782.174 259.189 779.501 Q258.585 776.827 257.343 774.695 Z" fill="#000000" fill-rule="nonzero" fill-opacity="1" /><path clip-path="url(#clip120)" d="M274.945 729.753 L279.496 729.753 L279.496 763.618 L274.945 763.618 L274.945 729.753 Z" fill="#000000" fill-rule="nonzero" fill-opacity="1" /><path clip-path="url(#clip120)" d="M218.353 718.454 L228.475 718.454 L228.475 706.391 L233.026 706.391 L233.026 718.454 L252.378 718.454 Q256.739 718.454 257.98 717.276 Q259.221 716.066 259.221 712.406 L259.221 706.391 L264.123 706.391 L264.123 712.406 Q264.123 719.186 261.608 721.764 Q259.062 724.342 252.378 724.342 L233.026 724.342 L233.026 728.639 L228.475 728.639 L228.475 724.342 L218.353 724.342 L218.353 718.454 Z" fill="#000000" fill-rule="nonzero" fill-opacity="1" /><path clip-path="url(#clip120)" d="M214.311 691.145 L279.496 691.145 L279.496 696.556 L214.311 696.556 L214.311 691.145 Z" fill="#000000" fill-rule="nonzero" fill-opacity="1" /><polyline clip-path="url(#clip121)" style="stroke:#d45e00; stroke-linecap:round; stroke-linejoin:round; stroke-width:8; stroke-opacity:1; fill:none" stroke-dasharray="32, 20" points="511.757,315.483 520.121,451.704 528.485,251.805 536.848,381.453 545.212,449.858 553.576,527.46 561.939,530.657 570.303,398.492 578.667,459.054 587.03,424.195 595.394,677.968 603.758,663.414 612.121,600.96 620.485,687.228 628.849,660.07 637.212,855.729 645.576,545.791 653.94,617.94 662.303,838.073 670.667,690.104 679.031,848.808 687.394,828.594 695.758,757.709 704.122,950.771 712.485,886.535 720.849,875.147 729.213,950.292 737.576,989.391 745.94,826.087 754.304,919.561 762.667,971.281 771.031,1015.07 779.395,969.745 787.758,1041.24 796.122,1007.34 804.486,987.497 812.849,1026.86 821.213,974.653 829.577,946.058 837.94,1075.34 846.304,1032.66 854.668,1028.93 863.031,1046.54 871.395,1177.25 879.759,1096.16 888.122,965.12 896.486,1230.63 904.85,1151.13 913.213,1065.2 921.577,1191.55 929.941,1120.26 938.304,1153.97 946.668,1130.17 955.032,1173.64 963.395,1090.78 971.759,1141.74 980.123,1175.19 988.486,1160.74 996.85,1104.13 1005.21,1247.23 1013.58,1196.38 1021.94,1213.73 1030.3,1096.81 1038.67,1258 1047.03,1236.59 1055.4,1204.01 1063.76,1279.88 1072.12,1193.36 1080.49,1259.83 1088.85,1265.03 1097.21,1267.67 1105.58,1143.87 1113.94,1281.08 1122.3,1244.54 1130.67,1188.76 1139.03,1149.95 1147.4,1248.15 1155.76,1277.62 1164.12,1242.92 1172.49,1306.62 1180.85,1254.97 1189.21,1225.76 1197.58,1329.02 1205.94,1317.67 1214.31,1275.53 1222.67,1326.62 1231.03,1320.95 1239.4,1275.31 1247.76,1339.06 1256.12,1265.54 1264.49,1280.35 1272.85,1202.36 1281.21,1341.26 1289.58,1231.66 1297.94,1230.18 1306.31,1275.09 1314.67,1147.67 1323.03,1237.42 1331.4,1256.15 1339.76,1207.25 1348.12,1198.47 1356.49,1211.14 1364.85,1207.53 1373.21,1289.52 1381.58,1170.87 1389.94,1210.86 1398.31,1241.95 1406.67,1331.52 1415.03,1225.45 1423.4,1338.98 1431.76,1250.93 1440.12,1323.51 1448.49,1237.2 1456.85,1266.11 1465.22,1241.35 1473.58,1217.56 1481.94,1235.56 1490.31,1268.57 1498.67,1187.26 1507.03,1152.05 1515.4,1189.69 1523.76,1207.98 1532.12,1252.41 1540.49,1211.91 1548.85,1271.19 1557.22,1223.57 1565.58,1260 1573.94,1264.17 1582.31,1194.32 1590.67,1194.73 1599.03,1137.04 1607.4,1299.09 1615.76,1258.73 1624.12,1244.22 1632.49,1280.24 1640.85,1254.49 1649.22,1309.59 1657.58,1168.8 1665.94,1222.57 1674.31,1270.61 1682.67,1279.47 1691.03,1252.13 1699.4,1250.76 1707.76,1256.79 1716.13,1244.86 1724.49,1217.45 1732.85,1404.65 1741.22,1257.56 1749.58,1251.17 1757.94,1301.98 1766.31,1135.81 1774.67,1218.86 1783.03,1232.7 1791.4,1243.98 1799.76,1252.15 1808.13,1209.75 1816.49,1289.88 1824.85,1231.42 1833.22,1275.02 1841.58,1170.57 1849.94,1170.41 1858.31,1233.66 1866.67,1254 1875.03,1286.7 1883.4,1297.61 1891.76,1313.85 1900.13,1343.09 1908.49,1228.01 1916.85,1226.58 1925.22,1258.7 1933.58,1304.98 1941.94,1221.9 1950.31,1235.17 1958.67,1252.38 1967.04,1397.2 1975.4,1278.66 1983.76,1279.27 1992.13,1383.28 2000.49,1297.1 2008.85,1399.63 2017.22,1388.62 2025.58,1287.18 2033.94,1336.57 2042.31,1419.91 2050.67,1394.46 2059.04,1443.5 2067.4,1373.26 2075.76,1401.22 2084.13,1365.81 2092.49,1407.41 2100.85,1399.68 2109.22,1363.92 2117.58,1406.69 2125.94,1386.15 2134.31,1404.28 2142.67,1422.56 2151.04,1331.36 2159.4,1329.98 2167.76,1380.06 2176.13,1424.01 2184.49,1318.7 2192.85,1359.71 2201.22,1276.31 2209.58,1330.45 2217.95,1434.91 2226.31,1317.82 2234.67,1335 2243.04,1352.48 2251.4,1374.79 2259.76,1424.93 2268.13,1288.03 2276.49,1344.54 2284.85,1428.4 2293.22,1303.64 2301.58,1384.53 2309.95,1316.21 2318.31,1346.22 2326.67,1401.81 2335.04,1391.51 2343.4,1479.37 2351.76,1328.75 2360.13,1412.59 2368.49,1447.08 2376.85,1366 2385.22,1460.9 2393.58,1463.27 2401.95,1468.84 2410.31,1481.74 2418.67,1495.44 2427.04,1547.46 2435.4,1452.99 2443.76,1499.47 2452.13,1542.75 2460.49,1459.92 2468.86,1479.66 2477.22,1520.92 2485.58,1464.36 2493.95,1584.84 2502.31,1464.45 2510.67,1496.45 2519.04,1550.07 2527.4,1445.7 2535.76,1588.24 2544.13,1511.26 2552.49,1495.61 2560.86,1530.97 2569.22,1559.41 2577.58,1479.04 2585.95,1489.49 2594.31,1556.68 2602.67,1489.4 2611.04,1545.92 "/>
<polyline clip-path="url(#clip121)" style="stroke:#009e73; stroke-linecap:round; stroke-linejoin:round; stroke-width:8; stroke-opacity:1; fill:none" points="511.757,305.115 520.121,403.862 528.485,479.941 536.848,548.535 545.212,595.901 553.576,652.646 561.939,708.717 570.303,754.35 578.667,790.836 587.03,843.194 595.394,889.355 603.758,921.296 612.121,956.893 620.485,988.685 628.849,1018.71 637.212,1041.69 645.576,1063.92 653.94,1084.13 662.303,1102.32 670.667,1122.26 679.031,1140.17 687.394,1166.18 695.758,1169.24 704.122,1194.98 712.485,1208.33 720.849,1225.74 729.213,1228.51 737.576,1239.63 745.94,1252.07 754.304,1258.18 762.667,1283.47 771.031,1293.48 779.395,1300.93 787.758,1299.41 796.122,1307.31 804.486,1319.84 812.849,1328.45 821.213,1337.85 829.577,1338.75 837.94,1345.45 846.304,1345.95 854.668,1351.9 863.031,1359.79 871.395,1361.94 879.759,1360.84 888.122,1366.78 896.486,1370.46 904.85,1375.18 913.213,1370.55 921.577,1372.47 929.941,1374.66 938.304,1379.32 946.668,1383.04 955.032,1383.72 963.395,1381.76 971.759,1384.05 980.123,1383.76 988.486,1391.78 996.85,1394.89 1005.21,1394.91 1013.58,1390.77 1021.94,1391.8 1030.3,1395.7 1038.67,1393.19 1047.03,1393.89 1055.4,1398.72 1063.76,1397.9 1072.12,1408.69 1080.49,1397.68 1088.85,1402.49 1097.21,1402.64 1105.58,1402.39 1113.94,1396.08 1122.3,1406.76 1130.67,1402.64 1139.03,1406.71 1147.4,1399.69 1155.76,1401.45 1164.12,1404.27 1172.49,1407.91 1180.85,1402.57 1189.21,1408.13 1197.58,1408.8 1205.94,1403.75 1214.31,1407.41 1222.67,1408.38 1231.03,1409.77 1239.4,1409.74 1247.76,1405.19 1256.12,1409.04 1264.49,1412.45 1272.85,1409.77 1281.21,1413.1 1289.58,1403.41 1297.94,1413.95 1306.31,1405.32 1314.67,1413.82 1323.03,1405.97 1331.4,1413.77 1339.76,1404.34 1348.12,1410.86 1356.49,1423.07 1364.85,1405.18 1373.21,1413.61 1381.58,1406.43 1389.94,1409.65 1398.31,1410.54 1406.67,1404.09 1415.03,1409.28 1423.4,1410.14 1431.76,1412.66 1440.12,1407.82 1448.49,1404.73 1456.85,1404.43 1465.22,1407.5 1473.58,1404.09 1481.94,1411.7 1490.31,1409.65 1498.67,1411.42 1507.03,1417.11 1515.4,1414.24 1523.76,1414.46 1532.12,1413.51 1540.49,1411 1548.85,1421.57 1557.22,1419.04 1565.58,1419.26 1573.94,1417.71 1582.31,1418.16 1590.67,1418.19 1599.03,1413.44 1607.4,1413.56 1615.76,1422.12 1624.12,1418.93 1632.49,1425.09 1640.85,1415.63 1649.22,1413.47 1657.58,1427.87 1665.94,1419.2 1674.31,1411.51 1682.67,1416.09 1691.03,1416 1699.4,1418.47 1707.76,1416.57 1716.13,1419.75 1724.49,1418.98 1732.85,1424 1741.22,1421.23 1749.58,1417.86 1757.94,1420.27 1766.31,1424.55 1774.67,1417.79 1783.03,1420.62 1791.4,1428.11 1799.76,1424.17 1808.13,1424.68 1816.49,1423.56 1824.85,1416.18 1833.22,1422.79 1841.58,1426.47 1849.94,1422.12 1858.31,1422.43 1866.67,1423.91 1875.03,1416.3 1883.4,1421.47 1891.76,1422.56 1900.13,1424.44 1908.49,1421.27 1916.85,1418.12 1925.22,1424.54 1933.58,1425.77 1941.94,1420.48 1950.31,1421.07 1958.67,1423.23 1967.04,1423.74 1975.4,1414.55 1983.76,1425.06 1992.13,1426.08 2000.49,1416.9 2008.85,1425.33 2017.22,1428.32 2025.58,1422.48 2033.94,1418.5 2042.31,1433.11 2050.67,1424.97 2059.04,1424.6 2067.4,1423.69 2075.76,1429.41 2084.13,1430.23 2092.49,1426.17 2100.85,1426.9 2109.22,1423.15 2117.58,1426.28 2125.94,1430.89 2134.31,1431.24 2142.67,1432.91 2151.04,1427.33 2159.4,1427.84 2167.76,1425.48 2176.13,1420.63 2184.49,1422.36 2192.85,1417.19 2201.22,1416.17 2209.58,1424.97 2217.95,1418.88 2226.31,1420.12 2234.67,1429.03 2243.04,1425.3 2251.4,1420.25 2259.76,1422.91 2268.13,1418.15 2276.49,1427.61 2284.85,1422.85 2293.22,1419.49 2301.58,1418.36 2309.95,1420.82 2318.31,1418.71 2326.67,1420.59 2335.04,1417.39 2343.4,1420.55 2351.76,1421.37 2360.13,1412.53 2368.49,1414.91 2376.85,1413.62 2385.22,1417.14 2393.58,1415.57 2401.95,1415.99 2410.31,1408.01 2418.67,1409.91 2427.04,1410.63 2435.4,1409.41 2443.76,1409.52 2452.13,1406.16 2460.49,1413.79 2468.86,1415.07 2477.22,1418.51 2485.58,1417.27 2493.95,1412.44 2502.31,1416.19 2510.67,1412.93 2519.04,1413.87 2527.4,1416.05 2535.76,1416.15 2544.13,1417.58 2552.49,1412.05 2560.86,1419.94 2569.22,1422.53 2577.58,1418.73 2585.95,1419.99 2594.31,1419.86 2602.67,1422.67 2611.04,1431.57 "/>
<path clip-path="url(#clip121)" d="M511.757 458.586 L520.121 532.319 L528.485 622.971 L536.848 679.889 L545.212 724.629 L553.576 789.118 L561.939 861.712 L570.303 903.921 L578.667 964.432 L587.03 999.559 L595.394 1062.73 L603.758 1083.63 L612.121 1125.97 L620.485 1176.24 L628.849 1175.23 L637.212 1224.1 L645.576 1226.64 L653.94 1237.54 L662.303 1274.04 L670.667 1282.51 L679.031 1284.98 L687.394 1334.9 L695.758 1308.08 L704.122 1348.68 L712.485 1355.27 L720.849 1380.75 L729.213 1393.77 L737.576 1403.03 L745.94 1406.12 L754.304 1408.47 L762.667 1446.95 L771.031 1449.16 L779.395 1425.55 L787.758 1450.08 L796.122 1467.21 L804.486 1456.33 L812.849 1488.66 L821.213 1492.7 L829.577 1474.32 L837.94 1486.05 L846.304 1486.94 L854.668 1499.31 L863.031 1495.08 L871.395 1514.55 L879.759 1518.3 L888.122 1507.38 L896.486 1509.82 L904.85 1531.99 L913.213 1526.17 L921.577 1517.73 L929.941 1512.79 L938.304 1506.61 L946.668 1528.13 L955.032 1515.04 L963.395 1524.36 L971.759 1517.35 L980.123 1504.12 L988.486 1524.52 L996.85 1522.52 L1005.21 1522.25 L1013.58 1521.09 L1021.94 1527.95 L1030.3 1532.17 L1038.67 1514.96 L1047.03 1523.12 L1055.4 1522 L1063.76 1522.7 L1072.12 1536.8 L1080.49 1526.11 L1088.85 1532.98 L1097.21 1538.81 L1105.58 1532.69 L1113.94 1535.34 L1122.3 1531.11 L1130.67 1549.83 L1139.03 1538.8 L1147.4 1534.54 L1155.76 1544.6 L1164.12 1532.44 L1172.49 1549.57 L1180.85 1532.43 L1189.21 1533.89 L1197.58 1532.32 L1205.94 1547.3 L1214.31 1532.18 L1222.67 1541.32 L1231.03 1539.32 L1239.4 1535.04 L1247.76 1519.83 L1256.12 1542.93 L1264.49 1557.15 L1272.85 1535.92 L1281.21 1544.18 L1289.58 1536.95 L1297.94 1538.11 L1306.31 1550.68 L1314.67 1547.28 L1323.03 1537.86 L1331.4 1544.54 L1339.76 1540.42 L1348.12 1548.85 L1356.49 1561.96 L1364.85 1538.43 L1373.21 1541.8 L1381.58 1535.12 L1389.94 1545.04 L1398.31 1523.74 L1406.67 1527.44 L1415.03 1537.7 L1423.4 1543.23 L1431.76 1534.58 L1440.12 1545.83 L1448.49 1529.91 L1456.85 1532.21 L1465.22 1534.45 L1473.58 1531.31 L1481.94 1546.08 L1490.31 1541.92 L1498.67 1533.63 L1507.03 1546.72 L1515.4 1531.82 L1523.76 1527.15 L1532.12 1540.21 L1540.49 1542.88 L1548.85 1560.56 L1557.22 1545.49 L1565.58 1544.37 L1573.94 1551.56 L1582.31 1546.79 L1590.67 1527.67 L1599.03 1538.9 L1607.4 1529.92 L1615.76 1548.11 L1624.12 1527.19 L1632.49 1537.72 L1640.85 1531.76 L1649.22 1532.59 L1657.58 1553.95 L1665.94 1526.05 L1674.31 1535.79 L1682.67 1537.57 L1691.03 1535.58 L1699.4 1536.26 L1707.76 1528.22 L1716.13 1537.57 L1724.49 1535.26 L1732.85 1546.56 L1741.22 1550.75 L1749.58 1540.89 L1757.94 1548.23 L1766.31 1546.42 L1774.67 1549.54 L1783.03 1548.34 L1791.4 1547.95 L1799.76 1548.94 L1808.13 1550.31 L1816.49 1561.95 L1824.85 1537.03 L1833.22 1549.93 L1841.58 1555.69 L1849.94 1539.66 L1858.31 1543.38 L1866.67 1543.15 L1875.03 1537.44 L1883.4 1543.69 L1891.76 1552.79 L1900.13 1544.69 L1908.49 1543.9 L1916.85 1533.76 L1925.22 1551.93 L1933.58 1557.82 L1941.94 1543.66 L1950.31 1538.26 L1958.67 1533.29 L1967.04 1536.81 L1975.4 1540.13 L1983.76 1557.25 L1992.13 1544.06 L2000.49 1554.25 L2008.85 1536.62 L2017.22 1546.12 L2025.58 1541.83 L2033.94 1550.56 L2042.31 1559.28 L2050.67 1546.34 L2059.04 1559.37 L2067.4 1550.84 L2075.76 1549.99 L2084.13 1544.72 L2092.49 1546.56 L2100.85 1554.63 L2109.22 1531.66 L2117.58 1540.69 L2125.94 1552.88 L2134.31 1550.57 L2142.67 1566.14 L2151.04 1555.85 L2159.4 1543.59 L2167.76 1526.66 L2176.13 1537.57 L2184.49 1534.75 L2192.85 1538.67 L2201.22 1531.54 L2209.58 1532.72 L2217.95 1533.86 L2226.31 1543.6 L2234.67 1536.48 L2243.04 1544.43 L2251.4 1537.33 L2259.76 1547.67 L2268.13 1535.39 L2276.49 1545.25 L2284.85 1548.38 L2293.22 1536.66 L2301.58 1540.54 L2309.95 1530.22 L2318.31 1529.8 L2326.67 1553.06 L2335.04 1527.28 L2343.4 1541.09 L2351.76 1539.13 L2360.13 1540.85 L2368.49 1545.74 L2376.85 1535.55 L2385.22 1533.02 L2393.58 1549.96 L2401.95 1530.44 L2410.31 1524.45 L2418.67 1527.63 L2427.04 1534.5 L2435.4 1534.08 L2443.76 1527.21 L2452.13 1518.17 L2460.49 1538.85 L2468.86 1527.93 L2477.22 1536.43 L2485.58 1527.68 L2493.95 1540.52 L2502.31 1536.97 L2510.67 1532.48 L2519.04 1539.21 L2527.4 1544.9 L2535.76 1551.18 L2544.13 1541.94 L2552.49 1534.17 L2560.86 1567.27 L2569.22 1550.32 L2577.58 1545.45 L2585.95 1554.46 L2594.31 1553.93 L2602.67 1536.33 L2611.04 1573.54 L2611.04 1295.1 L2602.67 1297.47 L2594.31 1284.08 L2585.95 1283.79 L2577.58 1291.93 L2569.22 1275.26 L2560.86 1282.86 L2552.49 1284.42 L2544.13 1297.12 L2535.76 1278.63 L2527.4 1292.61 L2519.04 1265.8 L2510.67 1282.38 L2502.31 1283.63 L2493.95 1295.66 L2485.58 1281.05 L2477.22 1295.47 L2468.86 1290.36 L2460.49 1302.55 L2452.13 1276.62 L2443.76 1278.27 L2435.4 1274.64 L2427.04 1264.41 L2418.67 1282 L2410.31 1280.37 L2401.95 1278.16 L2393.58 1300.64 L2385.22 1291.93 L2376.85 1287.53 L2368.49 1271.95 L2360.13 1290.94 L2351.76 1307.68 L2343.4 1295.11 L2335.04 1291.94 L2326.67 1281.06 L2318.31 1291.48 L2309.95 1301.83 L2301.58 1297.21 L2293.22 1288.31 L2284.85 1300.16 L2276.49 1319.79 L2268.13 1289.49 L2259.76 1303.85 L2251.4 1281.98 L2243.04 1299.97 L2234.67 1271.67 L2226.31 1283.32 L2217.95 1282.64 L2209.58 1306.76 L2201.22 1298.07 L2192.85 1285.38 L2184.49 1289.59 L2176.13 1295.19 L2167.76 1310.48 L2159.4 1310.1 L2151.04 1296.19 L2142.67 1284.72 L2134.31 1291.47 L2125.94 1303.53 L2117.58 1288.88 L2109.22 1298.61 L2100.85 1289.78 L2092.49 1301.52 L2084.13 1315.3 L2075.76 1303.73 L2067.4 1311.34 L2059.04 1285.83 L2050.67 1298.84 L2042.31 1321.79 L2033.94 1297.1 L2025.58 1300.86 L2017.22 1300.18 L2008.85 1310.07 L2000.49 1296.82 L1992.13 1314.21 L1983.76 1303.39 L1975.4 1281.5 L1967.04 1286.04 L1958.67 1304.73 L1950.31 1295.77 L1941.94 1301.19 L1933.58 1299.04 L1925.22 1295.36 L1916.85 1289.04 L1908.49 1293.1 L1900.13 1301.2 L1891.76 1295.7 L1883.4 1300.8 L1875.03 1288.39 L1866.67 1294.95 L1858.31 1286.66 L1849.94 1294.49 L1841.58 1302.01 L1833.22 1295.63 L1824.85 1274.72 L1816.49 1288.05 L1808.13 1296.2 L1799.76 1285.36 L1791.4 1301.51 L1783.03 1300.04 L1774.67 1286.04 L1766.31 1305.76 L1757.94 1283.94 L1749.58 1297.26 L1741.22 1292.17 L1732.85 1308.37 L1724.49 1304.57 L1716.13 1291.8 L1707.76 1301.33 L1699.4 1312.67 L1691.03 1305.03 L1682.67 1299.59 L1674.31 1273.03 L1665.94 1305.45 L1657.58 1322.15 L1649.22 1304.87 L1640.85 1299.47 L1632.49 1317.4 L1624.12 1288.7 L1615.76 1299.28 L1607.4 1291.04 L1599.03 1295.57 L1590.67 1287.36 L1582.31 1289.05 L1573.94 1291.78 L1565.58 1279.72 L1557.22 1300.62 L1548.85 1292 L1540.49 1267.96 L1532.12 1269.91 L1523.76 1275.89 L1515.4 1287.69 L1507.03 1285.56 L1498.67 1280.13 L1490.31 1268.13 L1481.94 1262.22 L1473.58 1269.49 L1465.22 1272.43 L1456.85 1253.39 L1448.49 1268.96 L1440.12 1258.99 L1431.76 1292.69 L1423.4 1261.4 L1415.03 1276.29 L1406.67 1255.96 L1398.31 1269.93 L1389.94 1271.93 L1381.58 1278.55 L1373.21 1287.52 L1364.85 1260.87 L1356.49 1283.64 L1348.12 1272.13 L1339.76 1271.3 L1331.4 1288.04 L1323.03 1273.94 L1314.67 1280.47 L1306.31 1263.27 L1297.94 1267.66 L1289.58 1249.41 L1281.21 1278.9 L1272.85 1276.44 L1264.49 1281.64 L1256.12 1267.69 L1247.76 1278.04 L1239.4 1272.49 L1231.03 1268.79 L1222.67 1282.35 L1214.31 1274.1 L1205.94 1266.97 L1197.58 1279.59 L1189.21 1270.93 L1180.85 1264.99 L1172.49 1264.59 L1164.12 1254.64 L1155.76 1253.62 L1147.4 1254.07 L1139.03 1279.96 L1130.67 1260.75 L1122.3 1265.56 L1113.94 1271.71 L1105.58 1276.32 L1097.21 1274.57 L1088.85 1265.63 L1080.49 1277.11 L1072.12 1281.88 L1063.76 1268.23 L1055.4 1289.5 L1047.03 1274.44 L1038.67 1276.64 L1030.3 1272.84 L1021.94 1247.81 L1013.58 1255.15 L1005.21 1261.71 L996.85 1252.76 L988.486 1269.9 L980.123 1252.98 L971.759 1243.44 L963.395 1246.16 L955.032 1247.14 L946.668 1246.93 L938.304 1253.78 L929.941 1220.95 L921.577 1235.07 L913.213 1228.3 L904.85 1236.93 L896.486 1222.31 L888.122 1225.64 L879.759 1216.2 L871.395 1212.68 L863.031 1224.19 L854.668 1218.55 L846.304 1182.67 L837.94 1190.21 L829.577 1193.62 L821.213 1188.65 L812.849 1157.5 L804.486 1178.64 L796.122 1150.73 L787.758 1141.05 L779.395 1151.1 L771.031 1132.35 L762.667 1144.32 L754.304 1083.98 L745.94 1099.4 L737.576 1081.73 L729.213 1071.66 L720.849 1077.88 L712.485 1043.5 L704.122 1028.92 L695.758 1009.55 L687.394 996.548 L679.031 953.145 L670.667 963.511 L662.303 914.531 L653.94 896.26 L645.576 891.444 L637.212 865.548 L628.849 835.85 L620.485 824.506 L612.121 785.607 L603.758 758.271 L595.394 748.283 L587.03 673.167 L578.667 644.079 L570.303 613.541 L561.939 528.212 L553.576 524.584 L545.212 456.486 L536.848 407.869 L528.485 345.425 L520.121 253.855 L511.757 168.574  Z" fill="#009e73" fill-rule="evenodd" fill-opacity="0.2"/>
<polyline clip-path="url(#clip121)" style="stroke:#009e73; stroke-linecap:round; stroke-linejoin:round; stroke-width:4; stroke-opacity:0.2; fill:none" points="511.757,458.586 520.121,532.319 528.485,622.971 536.848,679.889 545.212,724.629 553.576,789.118 561.939,861.712 570.303,903.921 578.667,964.432 587.03,999.559 595.394,1062.73 603.758,1083.63 612.121,1125.97 620.485,1176.24 628.849,1175.23 637.212,1224.1 645.576,1226.64 653.94,1237.54 662.303,1274.04 670.667,1282.51 679.031,1284.98 687.394,1334.9 695.758,1308.08 704.122,1348.68 712.485,1355.27 720.849,1380.75 729.213,1393.77 737.576,1403.03 745.94,1406.12 754.304,1408.47 762.667,1446.95 771.031,1449.16 779.395,1425.55 787.758,1450.08 796.122,1467.21 804.486,1456.33 812.849,1488.66 821.213,1492.7 829.577,1474.32 837.94,1486.05 846.304,1486.94 854.668,1499.31 863.031,1495.08 871.395,1514.55 879.759,1518.3 888.122,1507.38 896.486,1509.82 904.85,1531.99 913.213,1526.17 921.577,1517.73 929.941,1512.79 938.304,1506.61 946.668,1528.13 955.032,1515.04 963.395,1524.36 971.759,1517.35 980.123,1504.12 988.486,1524.52 996.85,1522.52 1005.21,1522.25 1013.58,1521.09 1021.94,1527.95 1030.3,1532.17 1038.67,1514.96 1047.03,1523.12 1055.4,1522 1063.76,1522.7 1072.12,1536.8 1080.49,1526.11 1088.85,1532.98 1097.21,1538.81 1105.58,1532.69 1113.94,1535.34 1122.3,1531.11 1130.67,1549.83 1139.03,1538.8 1147.4,1534.54 1155.76,1544.6 1164.12,1532.44 1172.49,1549.57 1180.85,1532.43 1189.21,1533.89 1197.58,1532.32 1205.94,1547.3 1214.31,1532.18 1222.67,1541.32 1231.03,1539.32 1239.4,1535.04 1247.76,1519.83 1256.12,1542.93 1264.49,1557.15 1272.85,1535.92 1281.21,1544.18 1289.58,1536.95 1297.94,1538.11 1306.31,1550.68 1314.67,1547.28 1323.03,1537.86 1331.4,1544.54 1339.76,1540.42 1348.12,1548.85 1356.49,1561.96 1364.85,1538.43 1373.21,1541.8 1381.58,1535.12 1389.94,1545.04 1398.31,1523.74 1406.67,1527.44 1415.03,1537.7 1423.4,1543.23 1431.76,1534.58 1440.12,1545.83 1448.49,1529.91 1456.85,1532.21 1465.22,1534.45 1473.58,1531.31 1481.94,1546.08 1490.31,1541.92 1498.67,1533.63 1507.03,1546.72 1515.4,1531.82 1523.76,1527.15 1532.12,1540.21 1540.49,1542.88 1548.85,1560.56 1557.22,1545.49 1565.58,1544.37 1573.94,1551.56 1582.31,1546.79 1590.67,1527.67 1599.03,1538.9 1607.4,1529.92 1615.76,1548.11 1624.12,1527.19 1632.49,1537.72 1640.85,1531.76 1649.22,1532.59 1657.58,1553.95 1665.94,1526.05 1674.31,1535.79 1682.67,1537.57 1691.03,1535.58 1699.4,1536.26 1707.76,1528.22 1716.13,1537.57 1724.49,1535.26 1732.85,1546.56 1741.22,1550.75 1749.58,1540.89 1757.94,1548.23 1766.31,1546.42 1774.67,1549.54 1783.03,1548.34 1791.4,1547.95 1799.76,1548.94 1808.13,1550.31 1816.49,1561.95 1824.85,1537.03 1833.22,1549.93 1841.58,1555.69 1849.94,1539.66 1858.31,1543.38 1866.67,1543.15 1875.03,1537.44 1883.4,1543.69 1891.76,1552.79 1900.13,1544.69 1908.49,1543.9 1916.85,1533.76 1925.22,1551.93 1933.58,1557.82 1941.94,1543.66 1950.31,1538.26 1958.67,1533.29 1967.04,1536.81 1975.4,1540.13 1983.76,1557.25 1992.13,1544.06 2000.49,1554.25 2008.85,1536.62 2017.22,1546.12 2025.58,1541.83 2033.94,1550.56 2042.31,1559.28 2050.67,1546.34 2059.04,1559.37 2067.4,1550.84 2075.76,1549.99 2084.13,1544.72 2092.49,1546.56 2100.85,1554.63 2109.22,1531.66 2117.58,1540.69 2125.94,1552.88 2134.31,1550.57 2142.67,1566.14 2151.04,1555.85 2159.4,1543.59 2167.76,1526.66 2176.13,1537.57 2184.49,1534.75 2192.85,1538.67 2201.22,1531.54 2209.58,1532.72 2217.95,1533.86 2226.31,1543.6 2234.67,1536.48 2243.04,1544.43 2251.4,1537.33 2259.76,1547.67 2268.13,1535.39 2276.49,1545.25 2284.85,1548.38 2293.22,1536.66 2301.58,1540.54 2309.95,1530.22 2318.31,1529.8 2326.67,1553.06 2335.04,1527.28 2343.4,1541.09 2351.76,1539.13 2360.13,1540.85 2368.49,1545.74 2376.85,1535.55 2385.22,1533.02 2393.58,1549.96 2401.95,1530.44 2410.31,1524.45 2418.67,1527.63 2427.04,1534.5 2435.4,1534.08 2443.76,1527.21 2452.13,1518.17 2460.49,1538.85 2468.86,1527.93 2477.22,1536.43 2485.58,1527.68 2493.95,1540.52 2502.31,1536.97 2510.67,1532.48 2519.04,1539.21 2527.4,1544.9 2535.76,1551.18 2544.13,1541.94 2552.49,1534.17 2560.86,1567.27 2569.22,1550.32 2577.58,1545.45 2585.95,1554.46 2594.31,1553.93 2602.67,1536.33 2611.04,1573.54 "/>
<path clip-path="url(#clip120)" d="M1946.56 409.426 L2599.84 409.426 L2599.84 176.146 L1946.56 176.146  Z" fill="#ffffff" fill-rule="evenodd" fill-opacity="1"/>
<polyline clip-path="url(#clip120)" style="stroke:#000000; stroke-linecap:round; stroke-linejoin:round; stroke-width:4; stroke-opacity:1; fill:none" points="1946.56,409.426 2599.84,409.426 2599.84,176.146 1946.56,176.146 1946.56,409.426 "/>
<polyline clip-path="url(#clip120)" style="stroke:#d45e00; stroke-linecap:round; stroke-linejoin:round; stroke-width:9; stroke-opacity:1; fill:none" stroke-dasharray="36, 23" points="1971.29,234.466 2119.64,234.466 "/>
<path clip-path="url(#clip120)" d="M2162.38 218.594 Q2156.66 218.594 2153.27 222.864 Q2149.91 227.135 2149.91 234.505 Q2149.91 241.849 2153.27 246.119 Q2156.66 250.39 2162.38 250.39 Q2168.11 250.39 2171.45 246.119 Q2174.81 241.849 2174.81 234.505 Q2174.81 227.135 2171.45 222.864 Q2168.11 218.594 2162.38 218.594 M2162.38 214.323 Q2170.56 214.323 2175.46 219.817 Q2180.35 225.286 2180.35 234.505 Q2180.35 243.698 2175.46 249.192 Q2170.56 254.661 2162.38 254.661 Q2154.18 254.661 2149.26 249.192 Q2144.36 243.724 2144.36 234.505 Q2144.36 225.286 2149.26 219.817 Q2154.18 214.323 2162.38 214.323 Z" fill="#000000" fill-rule="nonzero" fill-opacity="1" /><path clip-path="url(#clip120)" d="M2209.31 239.349 Q2209.31 234.062 2207.12 231.067 Q2204.96 228.047 2201.16 228.047 Q2197.36 228.047 2195.17 231.067 Q2193.01 234.062 2193.01 239.349 Q2193.01 244.635 2195.17 247.656 Q2197.36 250.651 2201.16 250.651 Q2204.96 250.651 2207.12 247.656 Q2209.31 244.635 2209.31 239.349 M2193.01 229.166 Q2194.52 226.562 2196.81 225.312 Q2199.13 224.036 2202.33 224.036 Q2207.64 224.036 2210.95 228.255 Q2214.28 232.474 2214.28 239.349 Q2214.28 246.224 2210.95 250.442 Q2207.64 254.661 2202.33 254.661 Q2199.13 254.661 2196.81 253.411 Q2194.52 252.135 2193.01 249.531 L2193.01 253.906 L2188.19 253.906 L2188.19 213.385 L2193.01 213.385 L2193.01 229.166 Z" fill="#000000" fill-rule="nonzero" fill-opacity="1" /><path clip-path="url(#clip120)" d="M2240.82 225.599 L2240.82 230.13 Q2238.79 229.088 2236.6 228.567 Q2234.42 228.047 2232.07 228.047 Q2228.5 228.047 2226.71 229.14 Q2224.94 230.234 2224.94 232.422 Q2224.94 234.088 2226.21 235.052 Q2227.49 235.989 2231.34 236.849 L2232.98 237.213 Q2238.09 238.307 2240.22 240.312 Q2242.38 242.291 2242.38 245.859 Q2242.38 249.921 2239.15 252.291 Q2235.95 254.661 2230.33 254.661 Q2227.98 254.661 2225.43 254.192 Q2222.9 253.75 2220.09 252.838 L2220.09 247.89 Q2222.75 249.27 2225.33 249.974 Q2227.9 250.651 2230.43 250.651 Q2233.82 250.651 2235.64 249.505 Q2237.46 248.333 2237.46 246.224 Q2237.46 244.27 2236.13 243.229 Q2234.83 242.187 2230.38 241.224 L2228.71 240.833 Q2224.26 239.895 2222.28 237.968 Q2220.3 236.015 2220.3 232.63 Q2220.3 228.515 2223.22 226.276 Q2226.13 224.036 2231.5 224.036 Q2234.15 224.036 2236.5 224.427 Q2238.84 224.817 2240.82 225.599 Z" fill="#000000" fill-rule="nonzero" fill-opacity="1" /><path clip-path="url(#clip120)" d="M2274.96 238.125 L2274.96 240.468 L2252.93 240.468 Q2253.24 245.416 2255.9 248.02 Q2258.58 250.599 2263.35 250.599 Q2266.11 250.599 2268.69 249.921 Q2271.29 249.244 2273.84 247.89 L2273.84 252.421 Q2271.26 253.515 2268.56 254.088 Q2265.85 254.661 2263.06 254.661 Q2256.08 254.661 2251.99 250.599 Q2247.93 246.536 2247.93 239.609 Q2247.93 232.448 2251.78 228.255 Q2255.66 224.036 2262.23 224.036 Q2268.11 224.036 2271.52 227.838 Q2274.96 231.614 2274.96 238.125 M2270.17 236.718 Q2270.12 232.786 2267.96 230.442 Q2265.82 228.099 2262.28 228.099 Q2258.27 228.099 2255.85 230.364 Q2253.45 232.63 2253.09 236.744 L2270.17 236.718 Z" fill="#000000" fill-rule="nonzero" fill-opacity="1" /><path clip-path="url(#clip120)" d="M2299.73 229.218 Q2298.92 228.75 2297.96 228.541 Q2297.02 228.307 2295.87 228.307 Q2291.81 228.307 2289.62 230.963 Q2287.46 233.593 2287.46 238.541 L2287.46 253.906 L2282.64 253.906 L2282.64 224.739 L2287.46 224.739 L2287.46 229.271 Q2288.97 226.614 2291.39 225.338 Q2293.82 224.036 2297.28 224.036 Q2297.77 224.036 2298.37 224.114 Q2298.97 224.166 2299.7 224.297 L2299.73 229.218 Z" fill="#000000" fill-rule="nonzero" fill-opacity="1" /><path clip-path="url(#clip120)" d="M2301.32 224.739 L2306.39 224.739 L2315.51 249.218 L2324.62 224.739 L2329.7 224.739 L2318.76 253.906 L2312.25 253.906 L2301.32 224.739 Z" fill="#000000" fill-rule="nonzero" fill-opacity="1" /><path clip-path="url(#clip120)" d="M2361.26 238.125 L2361.26 240.468 L2339.23 240.468 Q2339.54 245.416 2342.2 248.02 Q2344.88 250.599 2349.65 250.599 Q2352.41 250.599 2354.99 249.921 Q2357.59 249.244 2360.14 247.89 L2360.14 252.421 Q2357.57 253.515 2354.86 254.088 Q2352.15 254.661 2349.36 254.661 Q2342.38 254.661 2338.29 250.599 Q2334.23 246.536 2334.23 239.609 Q2334.23 232.448 2338.09 228.255 Q2341.97 224.036 2348.53 224.036 Q2354.41 224.036 2357.83 227.838 Q2361.26 231.614 2361.26 238.125 M2356.47 236.718 Q2356.42 232.786 2354.26 230.442 Q2352.12 228.099 2348.58 228.099 Q2344.57 228.099 2342.15 230.364 Q2339.75 232.63 2339.39 236.744 L2356.47 236.718 Z" fill="#000000" fill-rule="nonzero" fill-opacity="1" /><path clip-path="url(#clip120)" d="M2388.32 229.166 L2388.32 213.385 L2393.11 213.385 L2393.11 253.906 L2388.32 253.906 L2388.32 249.531 Q2386.81 252.135 2384.49 253.411 Q2382.2 254.661 2378.97 254.661 Q2373.69 254.661 2370.35 250.442 Q2367.04 246.224 2367.04 239.349 Q2367.04 232.474 2370.35 228.255 Q2373.69 224.036 2378.97 224.036 Q2382.2 224.036 2384.49 225.312 Q2386.81 226.562 2388.32 229.166 M2371.99 239.349 Q2371.99 244.635 2374.15 247.656 Q2376.34 250.651 2380.14 250.651 Q2383.95 250.651 2386.13 247.656 Q2388.32 244.635 2388.32 239.349 Q2388.32 234.062 2386.13 231.067 Q2383.95 228.047 2380.14 228.047 Q2376.34 228.047 2374.15 231.067 Q2371.99 234.062 2371.99 239.349 Z" fill="#000000" fill-rule="nonzero" fill-opacity="1" /><polyline clip-path="url(#clip120)" style="stroke:#009e73; stroke-linecap:round; stroke-linejoin:round; stroke-width:9; stroke-opacity:1; fill:none" points="1971.29,292.786 2119.64,292.786 "/>
<path clip-path="url(#clip120)" d="M2175.72 276.341 L2175.72 281.887 Q2173.06 279.414 2170.04 278.19 Q2167.05 276.966 2163.66 276.966 Q2156.99 276.966 2153.45 281.054 Q2149.91 285.117 2149.91 292.825 Q2149.91 300.507 2153.45 304.596 Q2156.99 308.658 2163.66 308.658 Q2167.05 308.658 2170.04 307.434 Q2173.06 306.21 2175.72 303.736 L2175.72 309.231 Q2172.96 311.106 2169.86 312.044 Q2166.79 312.981 2163.35 312.981 Q2154.52 312.981 2149.44 307.59 Q2144.36 302.174 2144.36 292.825 Q2144.36 283.45 2149.44 278.059 Q2154.52 272.643 2163.35 272.643 Q2166.84 272.643 2169.91 273.58 Q2173.01 274.492 2175.72 276.341 Z" fill="#000000" fill-rule="nonzero" fill-opacity="1" /><path clip-path="url(#clip120)" d="M2183.84 273.346 L2189.1 273.346 L2189.1 289.283 L2208.22 289.283 L2208.22 273.346 L2213.48 273.346 L2213.48 312.226 L2208.22 312.226 L2208.22 293.71 L2189.1 293.71 L2189.1 312.226 L2183.84 312.226 L2183.84 273.346 Z" fill="#000000" fill-rule="nonzero" fill-opacity="1" /><path clip-path="url(#clip120)" d="M2223.95 273.346 L2231.78 273.346 L2241.71 299.804 L2251.68 273.346 L2259.52 273.346 L2259.52 312.226 L2254.39 312.226 L2254.39 278.085 L2244.36 304.752 L2239.08 304.752 L2229.05 278.085 L2229.05 312.226 L2223.95 312.226 L2223.95 273.346 Z" fill="#000000" fill-rule="nonzero" fill-opacity="1" /><path clip-path="url(#clip120)" d="M2269.96 273.346 L2277.8 273.346 L2287.72 299.804 L2297.7 273.346 L2305.53 273.346 L2305.53 312.226 L2300.4 312.226 L2300.4 278.085 L2290.38 304.752 L2285.09 304.752 L2275.07 278.085 L2275.07 312.226 L2269.96 312.226 L2269.96 273.346 Z" fill="#000000" fill-rule="nonzero" fill-opacity="1" /><path clip-path="url(#clip120)" d="M2313.35 295.481 L2327.38 295.481 L2327.38 299.752 L2313.35 299.752 L2313.35 295.481 Z" fill="#000000" fill-rule="nonzero" fill-opacity="1" /><path clip-path="url(#clip120)" d="M2335.22 273.346 L2342.31 273.346 L2359.54 305.872 L2359.54 273.346 L2364.65 273.346 L2364.65 312.226 L2357.57 312.226 L2340.33 279.7 L2340.33 312.226 L2335.22 312.226 L2335.22 273.346 Z" fill="#000000" fill-rule="nonzero" fill-opacity="1" /><path clip-path="url(#clip120)" d="M2403.37 271.757 Q2399.88 277.747 2398.19 283.606 Q2396.5 289.466 2396.5 295.481 Q2396.5 301.497 2398.19 307.408 Q2399.91 313.294 2403.37 319.257 L2399.21 319.257 Q2395.3 313.137 2393.35 307.226 Q2391.42 301.314 2391.42 295.481 Q2391.42 289.674 2393.35 283.788 Q2395.27 277.903 2399.21 271.757 L2403.37 271.757 Z" fill="#000000" fill-rule="nonzero" fill-opacity="1" /><path clip-path="url(#clip120)" d="M2435.38 288.658 Q2437.17 285.429 2439.67 283.893 Q2442.17 282.356 2445.56 282.356 Q2450.12 282.356 2452.59 285.559 Q2455.06 288.736 2455.06 294.622 L2455.06 312.226 L2450.25 312.226 L2450.25 294.778 Q2450.25 290.585 2448.76 288.554 Q2447.28 286.523 2444.23 286.523 Q2440.51 286.523 2438.35 288.997 Q2436.18 291.471 2436.18 295.742 L2436.18 312.226 L2431.37 312.226 L2431.37 294.778 Q2431.37 290.559 2429.88 288.554 Q2428.4 286.523 2425.3 286.523 Q2421.63 286.523 2419.47 289.023 Q2417.3 291.497 2417.3 295.742 L2417.3 312.226 L2412.49 312.226 L2412.49 283.059 L2417.3 283.059 L2417.3 287.591 Q2418.95 284.908 2421.24 283.632 Q2423.53 282.356 2426.68 282.356 Q2429.86 282.356 2432.07 283.971 Q2434.31 285.585 2435.38 288.658 Z" fill="#000000" fill-rule="nonzero" fill-opacity="1" /><path clip-path="url(#clip120)" d="M2489.57 296.445 L2489.57 298.788 L2467.54 298.788 Q2467.85 303.736 2470.51 306.34 Q2473.19 308.919 2477.96 308.919 Q2480.72 308.919 2483.29 308.241 Q2485.9 307.564 2488.45 306.21 L2488.45 310.741 Q2485.87 311.835 2483.16 312.408 Q2480.46 312.981 2477.67 312.981 Q2470.69 312.981 2466.6 308.919 Q2462.54 304.856 2462.54 297.929 Q2462.54 290.768 2466.39 286.575 Q2470.27 282.356 2476.84 282.356 Q2482.72 282.356 2486.13 286.158 Q2489.57 289.934 2489.57 296.445 M2484.78 295.038 Q2484.73 291.106 2482.56 288.762 Q2480.43 286.419 2476.89 286.419 Q2472.88 286.419 2470.46 288.684 Q2468.06 290.95 2467.7 295.064 L2484.78 295.038 Z" fill="#000000" fill-rule="nonzero" fill-opacity="1" /><path clip-path="url(#clip120)" d="M2510.69 297.564 Q2504.88 297.564 2502.64 298.893 Q2500.4 300.221 2500.4 303.424 Q2500.4 305.976 2502.07 307.486 Q2503.76 308.971 2506.65 308.971 Q2510.64 308.971 2513.03 306.158 Q2515.46 303.32 2515.46 298.632 L2515.46 297.564 L2510.69 297.564 M2520.25 295.585 L2520.25 312.226 L2515.46 312.226 L2515.46 307.799 Q2513.81 310.455 2511.37 311.731 Q2508.92 312.981 2505.38 312.981 Q2500.9 312.981 2498.24 310.481 Q2495.61 307.955 2495.61 303.736 Q2495.61 298.814 2498.89 296.314 Q2502.2 293.814 2508.74 293.814 L2515.46 293.814 L2515.46 293.346 Q2515.46 290.038 2513.27 288.242 Q2511.11 286.419 2507.17 286.419 Q2504.67 286.419 2502.3 287.018 Q2499.93 287.617 2497.75 288.814 L2497.75 284.387 Q2500.38 283.372 2502.85 282.877 Q2505.33 282.356 2507.67 282.356 Q2514 282.356 2517.12 285.637 Q2520.25 288.919 2520.25 295.585 Z" fill="#000000" fill-rule="nonzero" fill-opacity="1" /><path clip-path="url(#clip120)" d="M2554.36 294.622 L2554.36 312.226 L2549.57 312.226 L2549.57 294.778 Q2549.57 290.637 2547.96 288.58 Q2546.34 286.523 2543.11 286.523 Q2539.23 286.523 2536.99 288.997 Q2534.75 291.471 2534.75 295.742 L2534.75 312.226 L2529.93 312.226 L2529.93 283.059 L2534.75 283.059 L2534.75 287.591 Q2536.47 284.96 2538.79 283.658 Q2541.13 282.356 2544.18 282.356 Q2549.21 282.356 2551.78 285.481 Q2554.36 288.58 2554.36 294.622 Z" fill="#000000" fill-rule="nonzero" fill-opacity="1" /><path clip-path="url(#clip120)" d="M2563.16 271.757 L2567.33 271.757 Q2571.24 277.903 2573.16 283.788 Q2575.12 289.674 2575.12 295.481 Q2575.12 301.314 2573.16 307.226 Q2571.24 313.137 2567.33 319.257 L2563.16 319.257 Q2566.63 313.294 2568.32 307.408 Q2570.04 301.497 2570.04 295.481 Q2570.04 289.466 2568.32 283.606 Q2566.63 277.747 2563.16 271.757 Z" fill="#000000" fill-rule="nonzero" fill-opacity="1" /><path clip-path="url(#clip120)" d="M1971.29 374.434 L2119.64 374.434 L2119.64 327.778 L1971.29 327.778 L1971.29 374.434  Z" fill="#009e73" fill-rule="evenodd" fill-opacity="0.2"/>
<polyline clip-path="url(#clip120)" style="stroke:#009e73; stroke-linecap:round; stroke-linejoin:round; stroke-width:4.5; stroke-opacity:0.2; fill:none" points="1971.29,327.778 2119.64,327.778 "/>
<path clip-path="url(#clip120)" d="M2145.12 366.119 L2153.71 366.119 L2153.71 336.457 L2144.36 338.332 L2144.36 333.541 L2153.66 331.666 L2158.92 331.666 L2158.92 366.119 L2167.51 366.119 L2167.51 370.546 L2145.12 370.546 L2145.12 366.119 Z" fill="#000000" fill-rule="nonzero" fill-opacity="1" /><path clip-path="url(#clip120)" d="M2189.39 335.129 Q2185.33 335.129 2183.27 339.14 Q2181.24 343.124 2181.24 351.145 Q2181.24 359.14 2183.27 363.15 Q2185.33 367.134 2189.39 367.134 Q2193.48 367.134 2195.51 363.15 Q2197.57 359.14 2197.57 351.145 Q2197.57 343.124 2195.51 339.14 Q2193.48 335.129 2189.39 335.129 M2189.39 330.963 Q2195.93 330.963 2199.36 336.145 Q2202.83 341.301 2202.83 351.145 Q2202.83 360.963 2199.36 366.145 Q2195.93 371.301 2189.39 371.301 Q2182.85 371.301 2179.39 366.145 Q2175.95 360.963 2175.95 351.145 Q2175.95 341.301 2179.39 336.145 Q2182.85 330.963 2189.39 330.963 Z" fill="#000000" fill-rule="nonzero" fill-opacity="1" /><path clip-path="url(#clip120)" d="M2208.97 353.801 L2223.01 353.801 L2223.01 358.072 L2208.97 358.072 L2208.97 353.801 Z" fill="#000000" fill-rule="nonzero" fill-opacity="1" /><path clip-path="url(#clip120)" d="M2231.47 369.739 L2231.47 364.947 Q2233.45 365.884 2235.48 366.379 Q2237.51 366.874 2239.47 366.874 Q2244.68 366.874 2247.41 363.384 Q2250.17 359.869 2250.56 352.733 Q2249.05 354.973 2246.73 356.171 Q2244.41 357.369 2241.6 357.369 Q2235.77 357.369 2232.36 353.853 Q2228.97 350.312 2228.97 344.192 Q2228.97 338.202 2232.51 334.582 Q2236.06 330.963 2241.94 330.963 Q2248.69 330.963 2252.23 336.145 Q2255.8 341.301 2255.8 351.145 Q2255.8 360.338 2251.42 365.832 Q2247.07 371.301 2239.7 371.301 Q2237.72 371.301 2235.69 370.91 Q2233.66 370.52 2231.47 369.739 M2241.94 353.254 Q2245.48 353.254 2247.54 350.832 Q2249.62 348.411 2249.62 344.192 Q2249.62 339.999 2247.54 337.577 Q2245.48 335.129 2241.94 335.129 Q2238.4 335.129 2236.32 337.577 Q2234.26 339.999 2234.26 344.192 Q2234.26 348.411 2236.32 350.832 Q2238.4 353.254 2241.94 353.254 Z" fill="#000000" fill-rule="nonzero" fill-opacity="1" /><path clip-path="url(#clip120)" d="M2276.5 335.129 Q2272.44 335.129 2270.38 339.14 Q2268.35 343.124 2268.35 351.145 Q2268.35 359.14 2270.38 363.15 Q2272.44 367.134 2276.5 367.134 Q2280.59 367.134 2282.62 363.15 Q2284.68 359.14 2284.68 351.145 Q2284.68 343.124 2282.62 339.14 Q2280.59 335.129 2276.5 335.129 M2276.5 330.963 Q2283.03 330.963 2286.47 336.145 Q2289.94 341.301 2289.94 351.145 Q2289.94 360.963 2286.47 366.145 Q2283.03 371.301 2276.5 371.301 Q2269.96 371.301 2266.5 366.145 Q2263.06 360.963 2263.06 351.145 Q2263.06 341.301 2266.5 336.145 Q2269.96 330.963 2276.5 330.963 Z" fill="#000000" fill-rule="nonzero" fill-opacity="1" /><path clip-path="url(#clip120)" d="M2303.24 333.098 L2303.24 341.379 L2313.11 341.379 L2313.11 345.103 L2303.24 345.103 L2303.24 360.937 Q2303.24 364.504 2304.21 365.52 Q2305.2 366.535 2308.19 366.535 L2313.11 366.535 L2313.11 370.546 L2308.19 370.546 Q2302.64 370.546 2300.53 368.489 Q2298.43 366.405 2298.43 360.937 L2298.43 345.103 L2294.91 345.103 L2294.91 341.379 L2298.43 341.379 L2298.43 333.098 L2303.24 333.098 Z" fill="#000000" fill-rule="nonzero" fill-opacity="1" /><path clip-path="url(#clip120)" d="M2343.66 352.942 L2343.66 370.546 L2338.87 370.546 L2338.87 353.098 Q2338.87 348.957 2337.25 346.9 Q2335.64 344.843 2332.41 344.843 Q2328.53 344.843 2326.29 347.317 Q2324.05 349.791 2324.05 354.062 L2324.05 370.546 L2319.23 370.546 L2319.23 330.025 L2324.05 330.025 L2324.05 345.911 Q2325.77 343.28 2328.09 341.978 Q2330.43 340.676 2333.48 340.676 Q2338.5 340.676 2341.08 343.801 Q2343.66 346.9 2343.66 352.942 Z" fill="#000000" fill-rule="nonzero" fill-opacity="1" /><path clip-path="url(#clip120)" d="M2374.8 366.171 L2374.8 381.64 L2369.99 381.64 L2369.99 341.379 L2374.8 341.379 L2374.8 345.806 Q2376.32 343.202 2378.61 341.952 Q2380.92 340.676 2384.13 340.676 Q2389.44 340.676 2392.75 344.895 Q2396.08 349.114 2396.08 355.989 Q2396.08 362.864 2392.75 367.082 Q2389.44 371.301 2384.13 371.301 Q2380.92 371.301 2378.61 370.051 Q2376.32 368.775 2374.8 366.171 M2391.11 355.989 Q2391.11 350.702 2388.92 347.707 Q2386.76 344.687 2382.96 344.687 Q2379.15 344.687 2376.97 347.707 Q2374.8 350.702 2374.8 355.989 Q2374.8 361.275 2376.97 364.296 Q2379.15 367.291 2382.96 367.291 Q2386.76 367.291 2388.92 364.296 Q2391.11 361.275 2391.11 355.989 Z" fill="#000000" fill-rule="nonzero" fill-opacity="1" /><path clip-path="url(#clip120)" d="M2425.01 342.499 L2425.01 346.978 Q2422.98 345.858 2420.92 345.312 Q2418.89 344.739 2416.81 344.739 Q2412.15 344.739 2409.57 347.707 Q2406.99 350.65 2406.99 355.989 Q2406.99 361.327 2409.57 364.296 Q2412.15 367.239 2416.81 367.239 Q2418.89 367.239 2420.92 366.692 Q2422.98 366.119 2425.01 364.999 L2425.01 369.426 Q2423.01 370.364 2420.85 370.832 Q2418.71 371.301 2416.29 371.301 Q2409.7 371.301 2405.82 367.16 Q2401.94 363.02 2401.94 355.989 Q2401.94 348.853 2405.85 344.765 Q2409.78 340.676 2416.6 340.676 Q2418.82 340.676 2420.92 341.145 Q2423.03 341.588 2425.01 342.499 Z" fill="#000000" fill-rule="nonzero" fill-opacity="1" /><path clip-path="url(#clip120)" d="M2438.09 333.098 L2438.09 341.379 L2447.96 341.379 L2447.96 345.103 L2438.09 345.103 L2438.09 360.937 Q2438.09 364.504 2439.05 365.52 Q2440.04 366.535 2443.03 366.535 L2447.96 366.535 L2447.96 370.546 L2443.03 370.546 Q2437.49 370.546 2435.38 368.489 Q2433.27 366.405 2433.27 360.937 L2433.27 345.103 L2429.75 345.103 L2429.75 341.379 L2433.27 341.379 L2433.27 333.098 L2438.09 333.098 Z" fill="#000000" fill-rule="nonzero" fill-opacity="1" /><path clip-path="url(#clip120)" d="M2454.26 330.025 L2459.05 330.025 L2459.05 370.546 L2454.26 370.546 L2454.26 330.025 Z" fill="#000000" fill-rule="nonzero" fill-opacity="1" /></svg>
