<?xml version="1.0" encoding="utf-8"?>
<svg xmlns="http://www.w3.org/2000/svg" xmlns:xlink="http://www.w3.org/1999/xlink" width="600" height="400" viewBox="0 0 2400 1600">
<defs>
  <clipPath id="clip280">
    <rect x="0" y="0" width="2400" height="1600"/>
  </clipPath>
</defs>
<path clip-path="url(#clip280)" d="M0 1600 L2400 1600 L2400 8.88178e-14 L0 8.88178e-14  Z" fill="#ffffff" fill-rule="evenodd" fill-opacity="1"/>
<defs>
  <clipPath id="clip281">
    <rect x="225" y="0" width="1879" height="1566"/>
  </clipPath>
</defs>
<path clip-path="url(#clip280)" d="M203.964 1423.18 L2352.76 1423.18 L2352.76 106.192 L203.964 106.192  Z" fill="#ffffff" fill-rule="evenodd" fill-opacity="1"/>
<defs>
  <clipPath id="clip282">
    <rect x="203" y="106" width="2150" height="1318"/>
  </clipPath>
</defs>
<polyline clip-path="url(#clip282)" style="stroke:#000000; stroke-linecap:round; stroke-linejoin:round; stroke-width:2; stroke-opacity:0.1; fill:none" points="626.399,1423.18 626.399,106.192 "/>
<polyline clip-path="url(#clip282)" style="stroke:#000000; stroke-linecap:round; stroke-linejoin:round; stroke-width:2; stroke-opacity:0.1; fill:none" points="1061.04,1423.18 1061.04,106.192 "/>
<polyline clip-path="url(#clip282)" style="stroke:#000000; stroke-linecap:round; stroke-linejoin:round; stroke-width:2; stroke-opacity:0.1; fill:none" points="1495.68,1423.18 1495.68,106.192 "/>
<polyline clip-path="url(#clip282)" style="stroke:#000000; stroke-linecap:round; stroke-linejoin:round; stroke-width:2; stroke-opacity:0.1; fill:none" points="1930.32,1423.18 1930.32,106.192 "/>
<polyline clip-path="url(#clip282)" style="stroke:#000000; stroke-linecap:round; stroke-linejoin:round; stroke-width:2; stroke-opacity:0.1; fill:none" points="203.964,1423.18 2352.76,1423.18 "/>
<polyline clip-path="url(#clip282)" style="stroke:#000000; stroke-linecap:round; stroke-linejoin:round; stroke-width:2; stroke-opacity:0.1; fill:none" points="203.964,1136.65 2352.76,1136.65 "/>
<polyline clip-path="url(#clip282)" style="stroke:#000000; stroke-linecap:round; stroke-linejoin:round; stroke-width:2; stroke-opacity:0.1; fill:none" points="203.964,850.124 2352.76,850.124 "/>
<polyline clip-path="url(#clip282)" style="stroke:#000000; stroke-linecap:round; stroke-linejoin:round; stroke-width:2; stroke-opacity:0.1; fill:none" points="203.964,563.596 2352.76,563.596 "/>
<polyline clip-path="url(#clip282)" style="stroke:#000000; stroke-linecap:round; stroke-linejoin:round; stroke-width:2; stroke-opacity:0.1; fill:none" points="203.964,277.068 2352.76,277.068 "/>
<polyline clip-path="url(#clip280)" style="stroke:#000000; stroke-linecap:round; stroke-linejoin:round; stroke-width:4; stroke-opacity:1; fill:none" points="203.964,1423.18 2352.76,1423.18 "/>
<polyline clip-path="url(#clip280)" style="stroke:#000000; stroke-linecap:round; stroke-linejoin:round; stroke-width:4; stroke-opacity:1; fill:none" points="626.399,1423.18 626.399,1404.28 "/>
<polyline clip-path="url(#clip280)" style="stroke:#000000; stroke-linecap:round; stroke-linejoin:round; stroke-width:4; stroke-opacity:1; fill:none" points="1061.04,1423.18 1061.04,1404.28 "/>
<polyline clip-path="url(#clip280)" style="stroke:#000000; stroke-linecap:round; stroke-linejoin:round; stroke-width:4; stroke-opacity:1; fill:none" points="1495.68,1423.18 1495.68,1404.28 "/>
<polyline clip-path="url(#clip280)" style="stroke:#000000; stroke-linecap:round; stroke-linejoin:round; stroke-width:4; stroke-opacity:1; fill:none" points="1930.32,1423.18 1930.32,1404.28 "/>
<path clip-path="url(#clip280)" d="M621.052 1481.64 L637.371 1481.64 L637.371 1485.58 L615.427 1485.58 L615.427 1481.64 Q618.089 1478.89 622.672 1474.26 Q627.279 1469.61 628.459 1468.27 Q630.705 1465.74 631.584 1464.01 Q632.487 1462.25 632.487 1460.56 Q632.487 1457.8 630.543 1456.07 Q628.621 1454.33 625.52 1454.33 Q623.321 1454.33 620.867 1455.09 Q618.436 1455.86 615.659 1457.41 L615.659 1452.69 Q618.483 1451.55 620.936 1450.97 Q623.39 1450.39 625.427 1450.39 Q630.797 1450.39 633.992 1453.08 Q637.186 1455.77 637.186 1460.26 Q637.186 1462.39 636.376 1464.31 Q635.589 1466.2 633.483 1468.8 Q632.904 1469.47 629.802 1472.69 Q626.7 1475.88 621.052 1481.64 Z" fill="#000000" fill-rule="nonzero" fill-opacity="1" /><path clip-path="url(#clip280)" d="M1064.05 1455.09 L1052.24 1473.54 L1064.05 1473.54 L1064.05 1455.09 M1062.82 1451.02 L1068.7 1451.02 L1068.7 1473.54 L1073.63 1473.54 L1073.63 1477.43 L1068.7 1477.43 L1068.7 1485.58 L1064.05 1485.58 L1064.05 1477.43 L1048.45 1477.43 L1048.45 1472.92 L1062.82 1451.02 Z" fill="#000000" fill-rule="nonzero" fill-opacity="1" /><path clip-path="url(#clip280)" d="M1496.09 1466.44 Q1492.94 1466.44 1491.09 1468.59 Q1489.26 1470.74 1489.26 1474.49 Q1489.26 1478.22 1491.09 1480.39 Q1492.94 1482.55 1496.09 1482.55 Q1499.23 1482.55 1501.06 1480.39 Q1502.91 1478.22 1502.91 1474.49 Q1502.91 1470.74 1501.06 1468.59 Q1499.23 1466.44 1496.09 1466.44 M1505.37 1451.78 L1505.37 1456.04 Q1503.61 1455.21 1501.8 1454.77 Q1500.02 1454.33 1498.26 1454.33 Q1493.63 1454.33 1491.18 1457.45 Q1488.75 1460.58 1488.4 1466.9 Q1489.77 1464.89 1491.83 1463.82 Q1493.89 1462.73 1496.36 1462.73 Q1501.57 1462.73 1504.58 1465.9 Q1507.61 1469.05 1507.61 1474.49 Q1507.61 1479.82 1504.46 1483.03 Q1501.32 1486.25 1496.09 1486.25 Q1490.09 1486.25 1486.92 1481.67 Q1483.75 1477.06 1483.75 1468.33 Q1483.75 1460.14 1487.64 1455.28 Q1491.52 1450.39 1498.08 1450.39 Q1499.83 1450.39 1501.62 1450.74 Q1503.42 1451.09 1505.37 1451.78 Z" fill="#000000" fill-rule="nonzero" fill-opacity="1" /><path clip-path="url(#clip280)" d="M1930.32 1469.17 Q1926.99 1469.17 1925.07 1470.95 Q1923.17 1472.73 1923.17 1475.86 Q1923.17 1478.98 1925.07 1480.77 Q1926.99 1482.55 1930.32 1482.55 Q1933.65 1482.55 1935.57 1480.77 Q1937.5 1478.96 1937.5 1475.86 Q1937.5 1472.73 1935.57 1470.95 Q1933.68 1469.17 1930.32 1469.17 M1925.64 1467.18 Q1922.64 1466.44 1920.95 1464.38 Q1919.28 1462.32 1919.28 1459.35 Q1919.28 1455.21 1922.22 1452.8 Q1925.18 1450.39 1930.32 1450.39 Q1935.48 1450.39 1938.42 1452.8 Q1941.36 1455.21 1941.36 1459.35 Q1941.36 1462.32 1939.67 1464.38 Q1938.01 1466.44 1935.02 1467.18 Q1938.4 1467.96 1940.27 1470.26 Q1942.17 1472.55 1942.17 1475.86 Q1942.17 1480.88 1939.09 1483.57 Q1936.04 1486.25 1930.32 1486.25 Q1924.6 1486.25 1921.52 1483.57 Q1918.47 1480.88 1918.47 1475.86 Q1918.47 1472.55 1920.37 1470.26 Q1922.26 1467.96 1925.64 1467.18 M1923.93 1459.79 Q1923.93 1462.48 1925.6 1463.98 Q1927.29 1465.49 1930.32 1465.49 Q1933.33 1465.49 1935.02 1463.98 Q1936.73 1462.48 1936.73 1459.79 Q1936.73 1457.11 1935.02 1455.6 Q1933.33 1454.1 1930.32 1454.1 Q1927.29 1454.1 1925.6 1455.6 Q1923.93 1457.11 1923.93 1459.79 Z" fill="#000000" fill-rule="nonzero" fill-opacity="1" /><path clip-path="url(#clip280)" d="M1226.56 1522.08 L1226.56 1528.35 Q1222.9 1526.6 1219.65 1525.74 Q1216.41 1524.88 1213.38 1524.88 Q1208.13 1524.88 1205.27 1526.92 Q1202.43 1528.96 1202.43 1532.71 Q1202.43 1535.87 1204.31 1537.49 Q1206.22 1539.08 1211.5 1540.07 L1215.39 1540.86 Q1222.58 1542.23 1225.99 1545.7 Q1229.42 1549.14 1229.42 1554.93 Q1229.42 1561.84 1224.78 1565.4 Q1220.16 1568.97 1211.22 1568.97 Q1207.84 1568.97 1204.02 1568.2 Q1200.24 1567.44 1196.16 1565.94 L1196.16 1559.32 Q1200.08 1561.52 1203.83 1562.63 Q1207.59 1563.75 1211.22 1563.75 Q1216.72 1563.75 1219.72 1561.58 Q1222.71 1559.42 1222.71 1555.41 Q1222.71 1551.91 1220.54 1549.93 Q1218.41 1547.96 1213.51 1546.97 L1209.59 1546.21 Q1202.4 1544.78 1199.19 1541.72 Q1195.97 1538.67 1195.97 1533.22 Q1195.97 1526.92 1200.4 1523.29 Q1204.85 1519.66 1212.65 1519.66 Q1215.99 1519.66 1219.46 1520.27 Q1222.93 1520.87 1226.56 1522.08 Z" fill="#000000" fill-rule="nonzero" fill-opacity="1" /><path clip-path="url(#clip280)" d="M1244.99 1522.27 L1244.99 1532.4 L1257.05 1532.4 L1257.05 1536.95 L1244.99 1536.95 L1244.99 1556.3 Q1244.99 1560.66 1246.17 1561.9 Q1247.37 1563.14 1251.03 1563.14 L1257.05 1563.14 L1257.05 1568.04 L1251.03 1568.04 Q1244.26 1568.04 1241.68 1565.53 Q1239.1 1562.98 1239.1 1556.3 L1239.1 1536.95 L1234.8 1536.95 L1234.8 1532.4 L1239.1 1532.4 L1239.1 1522.27 L1244.99 1522.27 Z" fill="#000000" fill-rule="nonzero" fill-opacity="1" /><path clip-path="url(#clip280)" d="M1280.95 1550.12 Q1273.86 1550.12 1271.12 1551.75 Q1268.38 1553.37 1268.38 1557.29 Q1268.38 1560.4 1270.42 1562.25 Q1272.49 1564.07 1276.02 1564.07 Q1280.89 1564.07 1283.82 1560.63 Q1286.78 1557.16 1286.78 1551.43 L1286.78 1550.12 L1280.95 1550.12 M1292.63 1547.71 L1292.63 1568.04 L1286.78 1568.04 L1286.78 1562.63 Q1284.77 1565.88 1281.78 1567.44 Q1278.79 1568.97 1274.46 1568.97 Q1268.99 1568.97 1265.74 1565.91 Q1262.53 1562.82 1262.53 1557.67 Q1262.53 1551.65 1266.54 1548.6 Q1270.58 1545.54 1278.57 1545.54 L1286.78 1545.54 L1286.78 1544.97 Q1286.78 1540.93 1284.1 1538.73 Q1281.46 1536.5 1276.66 1536.5 Q1273.6 1536.5 1270.7 1537.23 Q1267.81 1537.97 1265.13 1539.43 L1265.13 1534.02 Q1268.35 1532.78 1271.37 1532.17 Q1274.4 1531.54 1277.26 1531.54 Q1285 1531.54 1288.82 1535.55 Q1292.63 1539.56 1292.63 1547.71 Z" fill="#000000" fill-rule="nonzero" fill-opacity="1" /><path clip-path="url(#clip280)" d="M1310.49 1522.27 L1310.49 1532.4 L1322.55 1532.4 L1322.55 1536.95 L1310.49 1536.95 L1310.49 1556.3 Q1310.49 1560.66 1311.67 1561.9 Q1312.88 1563.14 1316.54 1563.14 L1322.55 1563.14 L1322.55 1568.04 L1316.54 1568.04 Q1309.76 1568.04 1307.18 1565.53 Q1304.6 1562.98 1304.6 1556.3 L1304.6 1536.95 L1300.31 1536.95 L1300.31 1532.4 L1304.6 1532.4 L1304.6 1522.27 L1310.49 1522.27 Z" fill="#000000" fill-rule="nonzero" fill-opacity="1" /><path clip-path="url(#clip280)" d="M1360.75 1548.76 L1360.75 1551.62 L1333.82 1551.62 Q1334.2 1557.67 1337.45 1560.85 Q1340.73 1564 1346.55 1564 Q1349.93 1564 1353.08 1563.17 Q1356.26 1562.35 1359.38 1560.69 L1359.38 1566.23 Q1356.23 1567.57 1352.92 1568.27 Q1349.61 1568.97 1346.2 1568.97 Q1337.67 1568.97 1332.68 1564 Q1327.71 1559.04 1327.71 1550.57 Q1327.71 1541.82 1332.42 1536.69 Q1337.16 1531.54 1345.18 1531.54 Q1352.38 1531.54 1356.55 1536.18 Q1360.75 1540.8 1360.75 1548.76 M1354.89 1547.04 Q1354.83 1542.23 1352.19 1539.37 Q1349.58 1536.5 1345.25 1536.5 Q1340.35 1536.5 1337.39 1539.27 Q1334.46 1542.04 1334.01 1547.07 L1354.89 1547.04 Z" fill="#000000" fill-rule="nonzero" fill-opacity="1" /><polyline clip-path="url(#clip280)" style="stroke:#000000; stroke-linecap:round; stroke-linejoin:round; stroke-width:4; stroke-opacity:1; fill:none" points="203.964,1423.18 203.964,106.192 "/>
<polyline clip-path="url(#clip280)" style="stroke:#000000; stroke-linecap:round; stroke-linejoin:round; stroke-width:4; stroke-opacity:1; fill:none" points="203.964,1423.18 222.861,1423.18 "/>
<polyline clip-path="url(#clip280)" style="stroke:#000000; stroke-linecap:round; stroke-linejoin:round; stroke-width:4; stroke-opacity:1; fill:none" points="203.964,1136.65 222.861,1136.65 "/>
<polyline clip-path="url(#clip280)" style="stroke:#000000; stroke-linecap:round; stroke-linejoin:round; stroke-width:4; stroke-opacity:1; fill:none" points="203.964,850.124 222.861,850.124 "/>
<polyline clip-path="url(#clip280)" style="stroke:#000000; stroke-linecap:round; stroke-linejoin:round; stroke-width:4; stroke-opacity:1; fill:none" points="203.964,563.596 222.861,563.596 "/>
<polyline clip-path="url(#clip280)" style="stroke:#000000; stroke-linecap:round; stroke-linejoin:round; stroke-width:4; stroke-opacity:1; fill:none" points="203.964,277.068 222.861,277.068 "/>
<path clip-path="url(#clip280)" d="M156.019 1408.98 Q152.408 1408.98 150.579 1412.54 Q148.774 1416.08 148.774 1423.21 Q148.774 1430.32 150.579 1433.89 Q152.408 1437.43 156.019 1437.43 Q159.653 1437.43 161.459 1433.89 Q163.288 1430.32 163.288 1423.21 Q163.288 1416.08 161.459 1412.54 Q159.653 1408.98 156.019 1408.98 M156.019 1405.27 Q161.829 1405.27 164.885 1409.88 Q167.964 1414.46 167.964 1423.21 Q167.964 1431.94 164.885 1436.55 Q161.829 1441.13 156.019 1441.13 Q150.209 1441.13 147.13 1436.55 Q144.075 1431.94 144.075 1423.21 Q144.075 1414.46 147.13 1409.88 Q150.209 1405.27 156.019 1405.27 Z" fill="#000000" fill-rule="nonzero" fill-opacity="1" /><path clip-path="url(#clip280)" d="M147.061 1119.37 L165.417 1119.37 L165.417 1123.31 L151.343 1123.31 L151.343 1131.78 Q152.362 1131.43 153.38 1131.27 Q154.399 1131.08 155.417 1131.08 Q161.204 1131.08 164.584 1134.26 Q167.964 1137.43 167.964 1142.84 Q167.964 1148.42 164.491 1151.52 Q161.019 1154.6 154.7 1154.6 Q152.524 1154.6 150.255 1154.23 Q148.01 1153.86 145.603 1153.12 L145.603 1148.42 Q147.686 1149.56 149.908 1150.11 Q152.13 1150.67 154.607 1150.67 Q158.612 1150.67 160.95 1148.56 Q163.288 1146.46 163.288 1142.84 Q163.288 1139.23 160.95 1137.13 Q158.612 1135.02 154.607 1135.02 Q152.732 1135.02 150.857 1135.44 Q149.005 1135.85 147.061 1136.73 L147.061 1119.37 Z" fill="#000000" fill-rule="nonzero" fill-opacity="1" /><path clip-path="url(#clip280)" d="M116.668 863.469 L124.306 863.469 L124.306 837.103 L115.996 838.77 L115.996 834.511 L124.26 832.844 L128.936 832.844 L128.936 863.469 L136.575 863.469 L136.575 867.404 L116.668 867.404 L116.668 863.469 Z" fill="#000000" fill-rule="nonzero" fill-opacity="1" /><path clip-path="url(#clip280)" d="M156.019 835.923 Q152.408 835.923 150.579 839.488 Q148.774 843.029 148.774 850.159 Q148.774 857.265 150.579 860.83 Q152.408 864.372 156.019 864.372 Q159.653 864.372 161.459 860.83 Q163.288 857.265 163.288 850.159 Q163.288 843.029 161.459 839.488 Q159.653 835.923 156.019 835.923 M156.019 832.219 Q161.829 832.219 164.885 836.826 Q167.964 841.409 167.964 850.159 Q167.964 858.886 164.885 863.492 Q161.829 868.075 156.019 868.075 Q150.209 868.075 147.13 863.492 Q144.075 858.886 144.075 850.159 Q144.075 841.409 147.13 836.826 Q150.209 832.219 156.019 832.219 Z" fill="#000000" fill-rule="nonzero" fill-opacity="1" /><path clip-path="url(#clip280)" d="M117.663 576.941 L125.302 576.941 L125.302 550.575 L116.992 552.242 L116.992 547.983 L125.255 546.316 L129.931 546.316 L129.931 576.941 L137.57 576.941 L137.57 580.876 L117.663 580.876 L117.663 576.941 Z" fill="#000000" fill-rule="nonzero" fill-opacity="1" /><path clip-path="url(#clip280)" d="M147.061 546.316 L165.417 546.316 L165.417 550.251 L151.343 550.251 L151.343 558.724 Q152.362 558.376 153.38 558.214 Q154.399 558.029 155.417 558.029 Q161.204 558.029 164.584 561.2 Q167.964 564.372 167.964 569.788 Q167.964 575.367 164.491 578.469 Q161.019 581.548 154.7 581.548 Q152.524 581.548 150.255 581.177 Q148.01 580.807 145.603 580.066 L145.603 575.367 Q147.686 576.501 149.908 577.057 Q152.13 577.612 154.607 577.612 Q158.612 577.612 160.95 575.506 Q163.288 573.399 163.288 569.788 Q163.288 566.177 160.95 564.071 Q158.612 561.964 154.607 561.964 Q152.732 561.964 150.857 562.381 Q149.005 562.798 147.061 563.677 L147.061 546.316 Z" fill="#000000" fill-rule="nonzero" fill-opacity="1" /><path clip-path="url(#clip280)" d="M119.885 290.413 L136.204 290.413 L136.204 294.348 L114.26 294.348 L114.26 290.413 Q116.922 287.659 121.505 283.029 Q126.112 278.376 127.292 277.034 Q129.538 274.511 130.417 272.774 Q131.32 271.015 131.32 269.325 Q131.32 266.571 129.376 264.835 Q127.455 263.099 124.353 263.099 Q122.154 263.099 119.7 263.862 Q117.269 264.626 114.492 266.177 L114.492 261.455 Q117.316 260.321 119.769 259.742 Q122.223 259.163 124.26 259.163 Q129.63 259.163 132.825 261.849 Q136.019 264.534 136.019 269.024 Q136.019 271.154 135.209 273.075 Q134.422 274.973 132.316 277.566 Q131.737 278.237 128.635 281.455 Q125.533 284.649 119.885 290.413 Z" fill="#000000" fill-rule="nonzero" fill-opacity="1" /><path clip-path="url(#clip280)" d="M156.019 262.867 Q152.408 262.867 150.579 266.432 Q148.774 269.973 148.774 277.103 Q148.774 284.21 150.579 287.774 Q152.408 291.316 156.019 291.316 Q159.653 291.316 161.459 287.774 Q163.288 284.21 163.288 277.103 Q163.288 269.973 161.459 266.432 Q159.653 262.867 156.019 262.867 M156.019 259.163 Q161.829 259.163 164.885 263.77 Q167.964 268.353 167.964 277.103 Q167.964 285.83 164.885 290.436 Q161.829 295.02 156.019 295.02 Q150.209 295.02 147.13 290.436 Q144.075 285.83 144.075 277.103 Q144.075 268.353 147.13 263.77 Q150.209 259.163 156.019 259.163 Z" fill="#000000" fill-rule="nonzero" fill-opacity="1" /><path clip-path="url(#clip280)" d="M18.0438 821.548 L24.314 821.548 Q22.5634 825.208 21.704 828.454 Q20.8447 831.701 20.8447 834.725 Q20.8447 839.976 22.8817 842.841 Q24.9187 845.674 28.6745 845.674 Q31.8255 845.674 33.4488 843.796 Q35.0402 841.886 36.0269 836.603 L36.8226 832.719 Q38.1912 825.526 41.6605 822.121 Q45.098 818.683 50.8908 818.683 Q57.7976 818.683 61.3624 823.33 Q64.9272 827.945 64.9272 836.889 Q64.9272 840.263 64.1633 844.082 Q63.3994 847.87 61.9035 851.944 L55.2831 851.944 Q57.4793 848.029 58.5933 844.273 Q59.7073 840.517 59.7073 836.889 Q59.7073 831.383 57.543 828.391 Q55.3786 825.399 51.3682 825.399 Q47.8671 825.399 45.8937 827.563 Q43.9204 829.696 42.9337 834.597 L42.1698 838.512 Q40.7375 845.706 37.682 848.92 Q34.6264 852.135 29.1837 852.135 Q22.8817 852.135 19.2532 847.711 Q15.6248 843.255 15.6248 835.457 Q15.6248 832.115 16.2295 828.645 Q16.8343 825.176 18.0438 821.548 Z" fill="#000000" fill-rule="nonzero" fill-opacity="1" /><path clip-path="url(#clip280)" d="M18.2347 803.119 L28.3562 803.119 L28.3562 791.056 L32.9077 791.056 L32.9077 803.119 L52.2594 803.119 Q56.6199 803.119 57.8613 801.941 Q59.1026 800.732 59.1026 797.072 L59.1026 791.056 L64.0042 791.056 L64.0042 797.072 Q64.0042 803.851 61.4897 806.429 Q58.9434 809.007 52.2594 809.007 L32.9077 809.007 L32.9077 813.304 L28.3562 813.304 L28.3562 809.007 L18.2347 809.007 L18.2347 803.119 Z" fill="#000000" fill-rule="nonzero" fill-opacity="1" /><path clip-path="url(#clip280)" d="M44.7161 752.862 L47.5806 752.862 L47.5806 779.789 Q53.6281 779.407 56.8109 776.16 Q59.9619 772.882 59.9619 767.057 Q59.9619 763.683 59.1344 760.532 Q58.3069 757.35 56.6518 754.23 L62.1899 754.23 Q63.5267 757.381 64.227 760.692 Q64.9272 764.002 64.9272 767.407 Q64.9272 775.937 59.9619 780.934 Q54.9967 785.9 46.5303 785.9 Q37.7774 785.9 32.6531 781.189 Q27.4968 776.447 27.4968 768.426 Q27.4968 761.233 32.1438 757.063 Q36.7589 752.862 44.7161 752.862 M42.9973 758.718 Q38.1912 758.782 35.3266 761.424 Q32.4621 764.033 32.4621 768.362 Q32.4621 773.264 35.2312 776.224 Q38.0002 779.152 43.0292 779.598 L42.9973 758.718 Z" fill="#000000" fill-rule="nonzero" fill-opacity="1" /><path clip-path="url(#clip280)" d="M58.657 737.584 L77.5631 737.584 L77.5631 743.472 L28.3562 743.472 L28.3562 737.584 L33.7671 737.584 Q30.5842 735.738 29.0564 732.937 Q27.4968 730.104 27.4968 726.189 Q27.4968 719.696 32.6531 715.654 Q37.8093 711.58 46.212 711.58 Q54.6147 711.58 59.771 715.654 Q64.9272 719.696 64.9272 726.189 Q64.9272 730.104 63.3994 732.937 Q61.8398 735.738 58.657 737.584 M46.212 717.659 Q39.7508 717.659 36.0905 720.333 Q32.3984 722.975 32.3984 727.622 Q32.3984 732.269 36.0905 734.942 Q39.7508 737.584 46.212 737.584 Q52.6732 737.584 56.3653 734.942 Q60.0256 732.269 60.0256 727.622 Q60.0256 722.975 56.3653 720.333 Q52.6732 717.659 46.212 717.659 Z" fill="#000000" fill-rule="nonzero" fill-opacity="1" /><path clip-path="url(#clip280)" d="M29.4065 679.147 L34.9447 679.147 Q33.6716 681.629 33.035 684.303 Q32.3984 686.977 32.3984 689.841 Q32.3984 694.202 33.7352 696.398 Q35.072 698.562 37.7456 698.562 Q39.7826 698.562 40.9603 697.003 Q42.1061 695.443 43.1565 690.732 L43.6021 688.727 Q44.9389 682.489 47.3897 679.879 Q49.8086 677.237 54.1691 677.237 Q59.1344 677.237 62.0308 681.184 Q64.9272 685.099 64.9272 691.974 Q64.9272 694.838 64.3543 697.957 Q63.8132 701.045 62.6992 704.482 L56.6518 704.482 Q58.3387 701.236 59.198 698.085 Q60.0256 694.934 60.0256 691.846 Q60.0256 687.709 58.6251 685.481 Q57.1929 683.253 54.6147 683.253 Q52.2276 683.253 50.9545 684.876 Q49.6813 686.467 48.5037 691.91 L48.0262 693.947 Q46.8804 699.39 44.5251 701.809 Q42.138 704.228 38.0002 704.228 Q32.9713 704.228 30.2341 700.663 Q27.4968 697.098 27.4968 690.541 Q27.4968 687.295 27.9743 684.43 Q28.4517 681.566 29.4065 679.147 Z" fill="#000000" fill-rule="nonzero" fill-opacity="1" /><path clip-path="url(#clip280)" d="M819.653 8.64 L827.523 8.64 L846.678 44.7799 L846.678 8.64 L852.349 8.64 L852.349 51.84 L844.479 51.84 L825.324 15.7001 L825.324 51.84 L819.653 51.84 L819.653 8.64 Z" fill="#000000" fill-rule="nonzero" fill-opacity="1" /><path clip-path="url(#clip280)" d="M878.478 35.5496 Q872.025 35.5496 869.537 37.0253 Q867.048 38.501 867.048 42.06 Q867.048 44.8956 868.9 46.5738 Q870.781 48.2231 873.993 48.2231 Q878.42 48.2231 881.082 45.0981 Q883.773 41.9442 883.773 36.7359 L883.773 35.5496 L878.478 35.5496 M889.097 33.3505 L889.097 51.84 L883.773 51.84 L883.773 46.921 Q881.95 49.8724 879.23 51.2902 Q876.51 52.6791 872.575 52.6791 Q867.598 52.6791 864.647 49.9014 Q861.724 47.0947 861.724 42.4072 Q861.724 36.9385 865.37 34.1607 Q869.045 31.3829 876.307 31.3829 L883.773 31.3829 L883.773 30.8621 Q883.773 27.1874 881.342 25.1908 Q878.941 23.1654 874.571 23.1654 Q871.794 23.1654 869.161 23.8309 Q866.527 24.4964 864.097 25.8274 L864.097 20.9085 Q867.019 19.78 869.768 19.2302 Q872.517 18.6515 875.121 18.6515 Q882.152 18.6515 885.625 22.2973 Q889.097 25.9431 889.097 33.3505 Z" fill="#000000" fill-rule="nonzero" fill-opacity="1" /><path clip-path="url(#clip280)" d="M905.329 10.2314 L905.329 19.4328 L916.296 19.4328 L916.296 23.5705 L905.329 23.5705 L905.329 41.163 Q905.329 45.1271 906.4 46.2555 Q907.499 47.384 910.827 47.384 L916.296 47.384 L916.296 51.84 L910.827 51.84 Q904.664 51.84 902.32 49.5541 Q899.976 47.2393 899.976 41.163 L899.976 23.5705 L896.07 23.5705 L896.07 19.4328 L899.976 19.4328 L899.976 10.2314 L905.329 10.2314 Z" fill="#000000" fill-rule="nonzero" fill-opacity="1" /><path clip-path="url(#clip280)" d="M922.748 39.0507 L922.748 19.4328 L928.072 19.4328 L928.072 38.8482 Q928.072 43.4488 929.866 45.7636 Q931.66 48.0495 935.248 48.0495 Q939.559 48.0495 942.048 45.3007 Q944.565 42.5519 944.565 37.8065 L944.565 19.4328 L949.889 19.4328 L949.889 51.84 L944.565 51.84 L944.565 46.8632 Q942.627 49.8145 940.051 51.2613 Q937.505 52.6791 934.12 52.6791 Q928.535 52.6791 925.642 49.2069 Q922.748 45.7347 922.748 39.0507 M936.145 18.6515 L936.145 18.6515 Z" fill="#000000" fill-rule="nonzero" fill-opacity="1" /><path clip-path="url(#clip280)" d="M979.634 24.4096 Q978.738 23.8888 977.667 23.6573 Q976.625 23.3969 975.352 23.3969 Q970.838 23.3969 968.408 26.3482 Q966.006 29.2707 966.006 34.7683 L966.006 51.84 L960.653 51.84 L960.653 19.4328 L966.006 19.4328 L966.006 24.4675 Q967.684 21.5161 970.375 20.0983 Q973.066 18.6515 976.915 18.6515 Q977.464 18.6515 978.13 18.7383 Q978.795 18.7962 979.606 18.9409 L979.634 24.4096 Z" fill="#000000" fill-rule="nonzero" fill-opacity="1" /><path clip-path="url(#clip280)" d="M999.947 35.5496 Q993.494 35.5496 991.006 37.0253 Q988.518 38.501 988.518 42.06 Q988.518 44.8956 990.369 46.5738 Q992.25 48.2231 995.462 48.2231 Q999.889 48.2231 1002.55 45.0981 Q1005.24 41.9442 1005.24 36.7359 L1005.24 35.5496 L999.947 35.5496 M1010.57 33.3505 L1010.57 51.84 L1005.24 51.84 L1005.24 46.921 Q1003.42 49.8724 1000.7 51.2902 Q997.979 52.6791 994.044 52.6791 Q989.067 52.6791 986.116 49.9014 Q983.193 47.0947 983.193 42.4072 Q983.193 36.9385 986.839 34.1607 Q990.514 31.3829 997.777 31.3829 L1005.24 31.3829 L1005.24 30.8621 Q1005.24 27.1874 1002.81 25.1908 Q1000.41 23.1654 996.041 23.1654 Q993.263 23.1654 990.63 23.8309 Q987.997 24.4964 985.566 25.8274 L985.566 20.9085 Q988.489 19.78 991.237 19.2302 Q993.986 18.6515 996.59 18.6515 Q1003.62 18.6515 1007.09 22.2973 Q1010.57 25.9431 1010.57 33.3505 Z" fill="#000000" fill-rule="nonzero" fill-opacity="1" /><path clip-path="url(#clip280)" d="M1021.53 6.81709 L1026.86 6.81709 L1026.86 51.84 L1021.53 51.84 L1021.53 6.81709 Z" fill="#000000" fill-rule="nonzero" fill-opacity="1" /><path clip-path="url(#clip280)" d="M1077.55 31.5855 Q1079.43 32.222 1081.2 34.3054 Q1082.99 36.3887 1084.78 40.0345 L1090.72 51.84 L1084.44 51.84 L1078.91 40.7579 Q1076.77 36.4176 1074.74 34.9998 Q1072.75 33.582 1069.28 33.582 L1062.91 33.582 L1062.91 51.84 L1057.06 51.84 L1057.06 8.64 L1070.26 8.64 Q1077.67 8.64 1081.31 11.736 Q1084.96 14.8321 1084.96 21.0821 Q1084.96 25.1619 1083.05 27.8529 Q1081.17 30.5438 1077.55 31.5855 M1062.91 13.4432 L1062.91 28.7788 L1070.26 28.7788 Q1074.48 28.7788 1076.62 26.8401 Q1078.79 24.8726 1078.79 21.0821 Q1078.79 17.2916 1076.62 15.3819 Q1074.48 13.4432 1070.26 13.4432 L1062.91 13.4432 Z" fill="#000000" fill-rule="nonzero" fill-opacity="1" /><path clip-path="url(#clip280)" d="M1123.07 34.3054 L1123.07 36.9095 L1098.59 36.9095 Q1098.93 42.4072 1101.88 45.3007 Q1104.87 48.1653 1110.16 48.1653 Q1113.23 48.1653 1116.09 47.4129 Q1118.99 46.6606 1121.82 45.156 L1121.82 50.1907 Q1118.96 51.406 1115.95 52.0425 Q1112.94 52.6791 1109.84 52.6791 Q1102.09 52.6791 1097.54 48.1653 Q1093.03 43.6514 1093.03 35.9547 Q1093.03 27.9975 1097.31 23.339 Q1101.62 18.6515 1108.92 18.6515 Q1115.46 18.6515 1119.25 22.876 Q1123.07 27.0716 1123.07 34.3054 M1117.74 32.7429 Q1117.68 28.3737 1115.28 25.7695 Q1112.91 23.1654 1108.97 23.1654 Q1104.52 23.1654 1101.83 25.6827 Q1099.17 28.2001 1098.76 32.7718 L1117.74 32.7429 Z" fill="#000000" fill-rule="nonzero" fill-opacity="1" /><path clip-path="url(#clip280)" d="M1152.46 20.3876 L1152.46 25.4223 Q1150.21 24.2649 1147.78 23.6862 Q1145.35 23.1075 1142.74 23.1075 Q1138.78 23.1075 1136.78 24.3228 Q1134.81 25.5381 1134.81 27.9686 Q1134.81 29.8204 1136.23 30.891 Q1137.65 31.9327 1141.93 32.8876 L1143.75 33.2926 Q1149.43 34.5079 1151.8 36.7359 Q1154.2 38.935 1154.2 42.8991 Q1154.2 47.4129 1150.61 50.046 Q1147.05 52.6791 1140.8 52.6791 Q1138.2 52.6791 1135.36 52.1583 Q1132.56 51.6664 1129.43 50.6537 L1129.43 45.156 Q1132.38 46.6896 1135.25 47.4708 Q1138.11 48.2231 1140.92 48.2231 Q1144.68 48.2231 1146.71 46.95 Q1148.73 45.6479 1148.73 43.3042 Q1148.73 41.134 1147.26 39.9766 Q1145.81 38.8192 1140.86 37.7486 L1139.01 37.3146 Q1134.06 36.273 1131.86 34.1318 Q1129.66 31.9616 1129.66 28.2001 Q1129.66 23.6283 1132.9 21.1399 Q1136.14 18.6515 1142.1 18.6515 Q1145.06 18.6515 1147.66 19.0855 Q1150.26 19.5196 1152.46 20.3876 Z" fill="#000000" fill-rule="nonzero" fill-opacity="1" /><path clip-path="url(#clip280)" d="M1162.68 19.4328 L1168 19.4328 L1168 51.84 L1162.68 51.84 L1162.68 19.4328 M1162.68 6.81709 L1168 6.81709 L1168 13.559 L1162.68 13.559 L1162.68 6.81709 Z" fill="#000000" fill-rule="nonzero" fill-opacity="1" /><path clip-path="url(#clip280)" d="M1200.47 24.3517 L1200.47 6.81709 L1205.79 6.81709 L1205.79 51.84 L1200.47 51.84 L1200.47 46.9789 Q1198.79 49.8724 1196.21 51.2902 Q1193.67 52.6791 1190.08 52.6791 Q1184.21 52.6791 1180.5 47.9916 Q1176.83 43.3042 1176.83 35.6653 Q1176.83 28.0265 1180.5 23.339 Q1184.21 18.6515 1190.08 18.6515 Q1193.67 18.6515 1196.21 20.0693 Q1198.79 21.4582 1200.47 24.3517 M1182.32 35.6653 Q1182.32 41.5391 1184.73 44.8956 Q1187.16 48.2231 1191.38 48.2231 Q1195.61 48.2231 1198.04 44.8956 Q1200.47 41.5391 1200.47 35.6653 Q1200.47 29.7915 1198.04 26.464 Q1195.61 23.1075 1191.38 23.1075 Q1187.16 23.1075 1184.73 26.464 Q1182.32 29.7915 1182.32 35.6653 Z" fill="#000000" fill-rule="nonzero" fill-opacity="1" /><path clip-path="url(#clip280)" d="M1244.48 34.3054 L1244.48 36.9095 L1220 36.9095 Q1220.35 42.4072 1223.3 45.3007 Q1226.28 48.1653 1231.57 48.1653 Q1234.64 48.1653 1237.5 47.4129 Q1240.4 46.6606 1243.23 45.156 L1243.23 50.1907 Q1240.37 51.406 1237.36 52.0425 Q1234.35 52.6791 1231.25 52.6791 Q1223.5 52.6791 1218.96 48.1653 Q1214.44 43.6514 1214.44 35.9547 Q1214.44 27.9975 1218.72 23.339 Q1223.04 18.6515 1230.33 18.6515 Q1236.87 18.6515 1240.66 22.876 Q1244.48 27.0716 1244.48 34.3054 M1239.15 32.7429 Q1239.09 28.3737 1236.69 25.7695 Q1234.32 23.1654 1230.39 23.1654 Q1225.93 23.1654 1223.24 25.6827 Q1220.58 28.2001 1220.17 32.7718 L1239.15 32.7429 Z" fill="#000000" fill-rule="nonzero" fill-opacity="1" /><path clip-path="url(#clip280)" d="M1280.15 32.2799 L1280.15 51.84 L1274.83 51.84 L1274.83 32.4535 Q1274.83 27.8529 1273.04 25.567 Q1271.24 23.2811 1267.65 23.2811 Q1263.34 23.2811 1260.85 26.03 Q1258.37 28.7788 1258.37 33.5241 L1258.37 51.84 L1253.01 51.84 L1253.01 19.4328 L1258.37 19.4328 L1258.37 24.4675 Q1260.28 21.545 1262.85 20.0983 Q1265.45 18.6515 1268.84 18.6515 Q1274.42 18.6515 1277.29 22.1237 Q1280.15 25.567 1280.15 32.2799 Z" fill="#000000" fill-rule="nonzero" fill-opacity="1" /><path clip-path="url(#clip280)" d="M1314.09 20.677 L1314.09 25.6538 Q1311.84 24.4096 1309.55 23.802 Q1307.29 23.1654 1304.98 23.1654 Q1299.8 23.1654 1296.94 26.464 Q1294.07 29.7336 1294.07 35.6653 Q1294.07 41.597 1296.94 44.8956 Q1299.8 48.1653 1304.98 48.1653 Q1307.29 48.1653 1309.55 47.5576 Q1311.84 46.921 1314.09 45.6768 L1314.09 50.5958 Q1311.87 51.6375 1309.46 52.1583 Q1307.09 52.6791 1304.4 52.6791 Q1297.08 52.6791 1292.77 48.0784 Q1288.46 43.4778 1288.46 35.6653 Q1288.46 27.7371 1292.8 23.1943 Q1297.17 18.6515 1304.75 18.6515 Q1307.21 18.6515 1309.55 19.1724 Q1311.9 19.6642 1314.09 20.677 Z" fill="#000000" fill-rule="nonzero" fill-opacity="1" /><path clip-path="url(#clip280)" d="M1351.07 34.3054 L1351.07 36.9095 L1326.59 36.9095 Q1326.94 42.4072 1329.89 45.3007 Q1332.87 48.1653 1338.17 48.1653 Q1341.24 48.1653 1344.1 47.4129 Q1346.99 46.6606 1349.83 45.156 L1349.83 50.1907 Q1346.96 51.406 1343.96 52.0425 Q1340.95 52.6791 1337.85 52.6791 Q1330.1 52.6791 1325.55 48.1653 Q1321.04 43.6514 1321.04 35.9547 Q1321.04 27.9975 1325.32 23.339 Q1329.63 18.6515 1336.92 18.6515 Q1343.46 18.6515 1347.25 22.876 Q1351.07 27.0716 1351.07 34.3054 M1345.75 32.7429 Q1345.69 28.3737 1343.29 25.7695 Q1340.92 23.1654 1336.98 23.1654 Q1332.53 23.1654 1329.84 25.6827 Q1327.17 28.2001 1326.77 32.7718 L1345.75 32.7429 Z" fill="#000000" fill-rule="nonzero" fill-opacity="1" /><path clip-path="url(#clip280)" d="M1372.89 8.64 L1409.44 8.64 L1409.44 13.559 L1394.1 13.559 L1394.1 51.84 L1388.23 51.84 L1388.23 13.559 L1372.89 13.559 L1372.89 8.64 Z" fill="#000000" fill-rule="nonzero" fill-opacity="1" /><path clip-path="url(#clip280)" d="M1413.02 19.4328 L1418.35 19.4328 L1418.35 51.84 L1413.02 51.84 L1413.02 19.4328 M1413.02 6.81709 L1418.35 6.81709 L1418.35 13.559 L1413.02 13.559 L1413.02 6.81709 Z" fill="#000000" fill-rule="nonzero" fill-opacity="1" /><path clip-path="url(#clip280)" d="M1454.72 25.6538 Q1456.72 22.0659 1459.49 20.3587 Q1462.27 18.6515 1466.03 18.6515 Q1471.1 18.6515 1473.84 22.2105 Q1476.59 25.7406 1476.59 32.2799 L1476.59 51.84 L1471.24 51.84 L1471.24 32.4535 Q1471.24 27.795 1469.59 25.5381 Q1467.94 23.2811 1464.56 23.2811 Q1460.42 23.2811 1458.02 26.03 Q1455.62 28.7788 1455.62 33.5241 L1455.62 51.84 L1450.26 51.84 L1450.26 32.4535 Q1450.26 27.7661 1448.61 25.5381 Q1446.96 23.2811 1443.52 23.2811 Q1439.44 23.2811 1437.04 26.0589 Q1434.64 28.8077 1434.64 33.5241 L1434.64 51.84 L1429.28 51.84 L1429.28 19.4328 L1434.64 19.4328 L1434.64 24.4675 Q1436.46 21.4872 1439.01 20.0693 Q1441.55 18.6515 1445.05 18.6515 Q1448.58 18.6515 1451.04 20.4455 Q1453.53 22.2395 1454.72 25.6538 Z" fill="#000000" fill-rule="nonzero" fill-opacity="1" /><path clip-path="url(#clip280)" d="M1514.93 34.3054 L1514.93 36.9095 L1490.45 36.9095 Q1490.8 42.4072 1493.75 45.3007 Q1496.73 48.1653 1502.03 48.1653 Q1505.09 48.1653 1507.96 47.4129 Q1510.85 46.6606 1513.69 45.156 L1513.69 50.1907 Q1510.82 51.406 1507.81 52.0425 Q1504.81 52.6791 1501.71 52.6791 Q1493.95 52.6791 1489.41 48.1653 Q1484.9 43.6514 1484.9 35.9547 Q1484.9 27.9975 1489.18 23.339 Q1493.49 18.6515 1500.78 18.6515 Q1507.32 18.6515 1511.11 22.876 Q1514.93 27.0716 1514.93 34.3054 M1509.61 32.7429 Q1509.55 28.3737 1507.15 25.7695 Q1504.78 23.1654 1500.84 23.1654 Q1496.39 23.1654 1493.69 25.6827 Q1491.03 28.2001 1490.63 32.7718 L1509.61 32.7429 Z" fill="#000000" fill-rule="nonzero" fill-opacity="1" /><path clip-path="url(#clip280)" d="M1539.82 33.5241 L1593.29 33.5241 L1593.29 37.6908 L1539.82 37.6908 L1539.82 33.5241 Z" fill="#000000" fill-rule="nonzero" fill-opacity="1" /><path clip-path="url(#clip280)" d="M1620.83 8.64 L1626.68 8.64 L1626.68 26.898 L1646.07 8.64 L1653.59 8.64 L1632.15 28.7788 L1655.12 51.84 L1647.43 51.84 L1626.68 31.0357 L1626.68 51.84 L1620.83 51.84 L1620.83 8.64 Z" fill="#000000" fill-rule="nonzero" fill-opacity="1" /><path clip-path="url(#clip280)" d="M1660.16 24.9304 L1697.25 24.9304 L1697.25 29.7915 L1660.16 29.7915 L1660.16 24.9304 M1660.16 36.7359 L1697.25 36.7359 L1697.25 41.6549 L1660.16 41.6549 L1660.16 36.7359 Z" fill="#000000" fill-rule="nonzero" fill-opacity="1" /><path clip-path="url(#clip280)" d="M1710.04 50.943 L1710.04 45.619 Q1712.24 46.6606 1714.5 47.2104 Q1716.75 47.7602 1718.92 47.7602 Q1724.71 47.7602 1727.75 43.8829 Q1730.82 39.9766 1731.25 32.0484 Q1729.57 34.5369 1727 35.8679 Q1724.42 37.1989 1721.3 37.1989 Q1714.82 37.1989 1711.03 33.2926 Q1707.26 29.3575 1707.26 22.5577 Q1707.26 15.9027 1711.2 11.8807 Q1715.13 7.85875 1721.67 7.85875 Q1729.17 7.85875 1733.1 13.6168 Q1737.07 19.346 1737.07 30.2834 Q1737.07 40.4975 1732.21 46.6028 Q1727.37 52.6791 1719.18 52.6791 Q1716.99 52.6791 1714.73 52.2451 Q1712.47 51.8111 1710.04 50.943 M1721.67 32.6271 Q1725.61 32.6271 1727.89 29.9362 Q1730.21 27.2452 1730.21 22.5577 Q1730.21 17.8992 1727.89 15.2083 Q1725.61 12.4884 1721.67 12.4884 Q1717.74 12.4884 1715.42 15.2083 Q1713.14 17.8992 1713.14 22.5577 Q1713.14 27.2452 1715.42 29.9362 Q1717.74 32.6271 1721.67 32.6271 Z" fill="#000000" fill-rule="nonzero" fill-opacity="1" /><path clip-path="url(#clip282)" d="M322.151 106.192 L322.151 1423.18 L496.007 1423.18 L496.007 106.192 L322.151 106.192 L322.151 106.192  Z" fill="#4682b4" fill-rule="evenodd" fill-opacity="0.7"/>
<polyline clip-path="url(#clip282)" style="stroke:#000000; stroke-linecap:round; stroke-linejoin:round; stroke-width:4; stroke-opacity:0.7; fill:none" points="322.151,106.192 322.151,1423.18 496.007,1423.18 496.007,106.192 322.151,106.192 "/>
<path clip-path="url(#clip282)" d="M539.471 1329.08 L539.471 1423.18 L713.327 1423.18 L713.327 1329.08 L539.471 1329.08 L539.471 1329.08  Z" fill="#4682b4" fill-rule="evenodd" fill-opacity="0.7"/>
<polyline clip-path="url(#clip282)" style="stroke:#000000; stroke-linecap:round; stroke-linejoin:round; stroke-width:4; stroke-opacity:0.7; fill:none" points="539.471,1329.08 539.471,1423.18 713.327,1423.18 713.327,1329.08 539.471,1329.08 "/>
<path clip-path="url(#clip282)" d="M756.791 1348.22 L756.791 1423.18 L930.647 1423.18 L930.647 1348.22 L756.791 1348.22 L756.791 1348.22  Z" fill="#4682b4" fill-rule="evenodd" fill-opacity="0.7"/>
<polyline clip-path="url(#clip282)" style="stroke:#000000; stroke-linecap:round; stroke-linejoin:round; stroke-width:4; stroke-opacity:0.7; fill:none" points="756.791,1348.22 756.791,1423.18 930.647,1423.18 930.647,1348.22 756.791,1348.22 "/>
<path clip-path="url(#clip282)" d="M974.111 1354.15 L974.111 1423.18 L1147.97 1423.18 L1147.97 1354.15 L974.111 1354.15 L974.111 1354.15  Z" fill="#4682b4" fill-rule="evenodd" fill-opacity="0.7"/>
<polyline clip-path="url(#clip282)" style="stroke:#000000; stroke-linecap:round; stroke-linejoin:round; stroke-width:4; stroke-opacity:0.7; fill:none" points="974.111,1354.15 974.111,1423.18 1147.97,1423.18 1147.97,1354.15 974.111,1354.15 "/>
<path clip-path="url(#clip282)" d="M1191.43 1343.55 L1191.43 1423.18 L1365.29 1423.18 L1365.29 1343.55 L1191.43 1343.55 L1191.43 1343.55  Z" fill="#4682b4" fill-rule="evenodd" fill-opacity="0.7"/>
<polyline clip-path="url(#clip282)" style="stroke:#000000; stroke-linecap:round; stroke-linejoin:round; stroke-width:4; stroke-opacity:0.7; fill:none" points="1191.43,1343.55 1191.43,1423.18 1365.29,1423.18 1365.29,1343.55 1191.43,1343.55 "/>
<path clip-path="url(#clip282)" d="M1408.75 1352.29 L1408.75 1423.18 L1582.61 1423.18 L1582.61 1352.29 L1408.75 1352.29 L1408.75 1352.29  Z" fill="#4682b4" fill-rule="evenodd" fill-opacity="0.7"/>
<polyline clip-path="url(#clip282)" style="stroke:#000000; stroke-linecap:round; stroke-linejoin:round; stroke-width:4; stroke-opacity:0.7; fill:none" points="1408.75,1352.29 1408.75,1423.18 1582.61,1423.18 1582.61,1352.29 1408.75,1352.29 "/>
<path clip-path="url(#clip282)" d="M1626.07 1356.54 L1626.07 1423.18 L1799.93 1423.18 L1799.93 1356.54 L1626.07 1356.54 L1626.07 1356.54  Z" fill="#4682b4" fill-rule="evenodd" fill-opacity="0.7"/>
<polyline clip-path="url(#clip282)" style="stroke:#000000; stroke-linecap:round; stroke-linejoin:round; stroke-width:4; stroke-opacity:0.7; fill:none" points="1626.07,1356.54 1626.07,1423.18 1799.93,1423.18 1799.93,1356.54 1626.07,1356.54 "/>
<path clip-path="url(#clip282)" d="M1843.39 1358 L1843.39 1423.18 L2017.25 1423.18 L2017.25 1358 L1843.39 1358 L1843.39 1358  Z" fill="#4682b4" fill-rule="evenodd" fill-opacity="0.7"/>
<polyline clip-path="url(#clip282)" style="stroke:#000000; stroke-linecap:round; stroke-linejoin:round; stroke-width:4; stroke-opacity:0.7; fill:none" points="1843.39,1358 1843.39,1423.18 2017.25,1423.18 2017.25,1358 1843.39,1358 "/>
<path clip-path="url(#clip282)" d="M2060.71 1232.75 L2060.71 1423.18 L2234.57 1423.18 L2234.57 1232.75 L2060.71 1232.75 L2060.71 1232.75  Z" fill="#4682b4" fill-rule="evenodd" fill-opacity="0.7"/>
<polyline clip-path="url(#clip282)" style="stroke:#000000; stroke-linecap:round; stroke-linejoin:round; stroke-width:4; stroke-opacity:0.7; fill:none" points="2060.71,1232.75 2060.71,1423.18 2234.57,1423.18 2234.57,1232.75 2060.71,1232.75 "/>
<circle clip-path="url(#clip282)" style="fill:#4682b4; stroke:none; fill-opacity:0" cx="409.079" cy="106.192" r="2"/>
<circle clip-path="url(#clip282)" style="fill:#4682b4; stroke:none; fill-opacity:0" cx="626.399" cy="1329.08" r="2"/>
<circle clip-path="url(#clip282)" style="fill:#4682b4; stroke:none; fill-opacity:0" cx="843.719" cy="1348.22" r="2"/>
<circle clip-path="url(#clip282)" style="fill:#4682b4; stroke:none; fill-opacity:0" cx="1061.04" cy="1354.15" r="2"/>
<circle clip-path="url(#clip282)" style="fill:#4682b4; stroke:none; fill-opacity:0" cx="1278.36" cy="1343.55" r="2"/>
<circle clip-path="url(#clip282)" style="fill:#4682b4; stroke:none; fill-opacity:0" cx="1495.68" cy="1352.29" r="2"/>
<circle clip-path="url(#clip282)" style="fill:#4682b4; stroke:none; fill-opacity:0" cx="1713" cy="1356.54" r="2"/>
<circle clip-path="url(#clip282)" style="fill:#4682b4; stroke:none; fill-opacity:0" cx="1930.32" cy="1358" r="2"/>
<circle clip-path="url(#clip282)" style="fill:#4682b4; stroke:none; fill-opacity:0" cx="2147.64" cy="1232.75" r="2"/>
<path clip-path="url(#clip282)" d="M322.151 106.192 L322.151 1423.18 L496.007 1423.18 L496.007 106.192 L322.151 106.192 L322.151 106.192  Z" fill="#ff0000" fill-rule="evenodd" fill-opacity="0.5"/>
<polyline clip-path="url(#clip282)" style="stroke:#000000; stroke-linecap:round; stroke-linejoin:round; stroke-width:4; stroke-opacity:0.5; fill:none" points="322.151,106.192 322.151,1423.18 496.007,1423.18 496.007,106.192 322.151,106.192 "/>
<path clip-path="url(#clip282)" d="M539.471 1329.08 L539.471 1423.18 L713.327 1423.18 L713.327 1329.08 L539.471 1329.08 L539.471 1329.08  Z" fill="#ff0000" fill-rule="evenodd" fill-opacity="0.5"/>
<polyline clip-path="url(#clip282)" style="stroke:#000000; stroke-linecap:round; stroke-linejoin:round; stroke-width:4; stroke-opacity:0.5; fill:none" points="539.471,1329.08 539.471,1423.18 713.327,1423.18 713.327,1329.08 539.471,1329.08 "/>
<path clip-path="url(#clip282)" d="M756.791 1348.22 L756.791 1423.18 L930.647 1423.18 L930.647 1348.22 L756.791 1348.22 L756.791 1348.22  Z" fill="#ff0000" fill-rule="evenodd" fill-opacity="0.5"/>
<polyline clip-path="url(#clip282)" style="stroke:#000000; stroke-linecap:round; stroke-linejoin:round; stroke-width:4; stroke-opacity:0.5; fill:none" points="756.791,1348.22 756.791,1423.18 930.647,1423.18 930.647,1348.22 756.791,1348.22 "/>
<circle clip-path="url(#clip282)" style="fill:#ff0000; stroke:none; fill-opacity:0" cx="409.079" cy="106.192" r="2"/>
<circle clip-path="url(#clip282)" style="fill:#ff0000; stroke:none; fill-opacity:0" cx="626.399" cy="1329.08" r="2"/>
<circle clip-path="url(#clip282)" style="fill:#ff0000; stroke:none; fill-opacity:0" cx="843.719" cy="1348.22" r="2"/>
<path clip-path="url(#clip282)" d="M1626.07 1356.54 L1626.07 1423.18 L1799.93 1423.18 L1799.93 1356.54 L1626.07 1356.54 L1626.07 1356.54  Z" fill="#008080" fill-rule="evenodd" fill-opacity="0.5"/>
<polyline clip-path="url(#clip282)" style="stroke:#000000; stroke-linecap:round; stroke-linejoin:round; stroke-width:4; stroke-opacity:0.5; fill:none" points="1626.07,1356.54 1626.07,1423.18 1799.93,1423.18 1799.93,1356.54 1626.07,1356.54 "/>
<path clip-path="url(#clip282)" d="M1843.39 1358 L1843.39 1423.18 L2017.25 1423.18 L2017.25 1358 L1843.39 1358 L1843.39 1358  Z" fill="#008080" fill-rule="evenodd" fill-opacity="0.5"/>
<polyline clip-path="url(#clip282)" style="stroke:#000000; stroke-linecap:round; stroke-linejoin:round; stroke-width:4; stroke-opacity:0.5; fill:none" points="1843.39,1358 1843.39,1423.18 2017.25,1423.18 2017.25,1358 1843.39,1358 "/>
<path clip-path="url(#clip282)" d="M2060.71 1232.75 L2060.71 1423.18 L2234.57 1423.18 L2234.57 1232.75 L2060.71 1232.75 L2060.71 1232.75  Z" fill="#008080" fill-rule="evenodd" fill-opacity="0.5"/>
<polyline clip-path="url(#clip282)" style="stroke:#000000; stroke-linecap:round; stroke-linejoin:round; stroke-width:4; stroke-opacity:0.5; fill:none" points="2060.71,1232.75 2060.71,1423.18 2234.57,1423.18 2234.57,1232.75 2060.71,1232.75 "/>
<circle clip-path="url(#clip282)" style="fill:#008080; stroke:none; fill-opacity:0" cx="1713" cy="1356.54" r="2"/>
<circle clip-path="url(#clip282)" style="fill:#008080; stroke:none; fill-opacity:0" cx="1930.32" cy="1358" r="2"/>
<circle clip-path="url(#clip282)" style="fill:#008080; stroke:none; fill-opacity:0" cx="2147.64" cy="1232.75" r="2"/>
<path clip-path="url(#clip280)" d="M1936.55 357.452 L2281.13 357.452 L2281.13 150.092 L1936.55 150.092  Z" fill="#ffffff" fill-rule="evenodd" fill-opacity="1"/>
<polyline clip-path="url(#clip280)" style="stroke:#000000; stroke-linecap:round; stroke-linejoin:round; stroke-width:4; stroke-opacity:1; fill:none" points="1936.55,357.452 2281.13,357.452 2281.13,150.092 1936.55,150.092 1936.55,357.452 "/>
<path clip-path="url(#clip280)" d="M1960.43 222.668 L2103.68 222.668 L2103.68 181.196 L1960.43 181.196 L1960.43 222.668  Z" fill="#4682b4" fill-rule="evenodd" fill-opacity="0.7"/>
<polyline clip-path="url(#clip280)" style="stroke:#000000; stroke-linecap:round; stroke-linejoin:round; stroke-width:4; stroke-opacity:1; fill:none" points="1960.43,222.668 2103.68,222.668 2103.68,181.196 1960.43,181.196 1960.43,222.668 "/>
<path clip-path="url(#clip280)" d="M2141.4 221.619 Q2139.59 226.249 2137.88 227.661 Q2136.17 229.073 2133.3 229.073 L2129.89 229.073 L2129.89 225.508 L2132.39 225.508 Q2134.15 225.508 2135.13 224.675 Q2136.1 223.841 2137.28 220.739 L2138.04 218.795 L2127.56 193.286 L2132.07 193.286 L2140.17 213.564 L2148.27 193.286 L2152.79 193.286 L2141.4 221.619 Z" fill="#000000" fill-rule="nonzero" fill-opacity="1" /><path clip-path="url(#clip280)" d="M2160.08 215.277 L2167.72 215.277 L2167.72 188.911 L2159.41 190.578 L2159.41 186.318 L2167.67 184.652 L2172.35 184.652 L2172.35 215.277 L2179.99 215.277 L2179.99 219.212 L2160.08 219.212 L2160.08 215.277 Z" fill="#000000" fill-rule="nonzero" fill-opacity="1" /><path clip-path="url(#clip280)" d="M1960.43 274.508 L2103.68 274.508 L2103.68 233.036 L1960.43 233.036 L1960.43 274.508  Z" fill="#ff0000" fill-rule="evenodd" fill-opacity="0.5"/>
<polyline clip-path="url(#clip280)" style="stroke:#000000; stroke-linecap:round; stroke-linejoin:round; stroke-width:4; stroke-opacity:1; fill:none" points="1960.43,274.508 2103.68,274.508 2103.68,233.036 1960.43,233.036 1960.43,274.508 "/>
<path clip-path="url(#clip280)" d="M2155.43 239.154 L2155.43 244.084 Q2153.06 241.885 2150.38 240.797 Q2147.72 239.709 2144.71 239.709 Q2138.78 239.709 2135.63 243.344 Q2132.49 246.955 2132.49 253.806 Q2132.49 260.635 2135.63 264.269 Q2138.78 267.88 2144.71 267.88 Q2147.72 267.88 2150.38 266.792 Q2153.06 265.705 2155.43 263.505 L2155.43 268.39 Q2152.97 270.056 2150.22 270.89 Q2147.49 271.723 2144.43 271.723 Q2136.58 271.723 2132.07 266.931 Q2127.56 262.117 2127.56 253.806 Q2127.56 245.473 2132.07 240.682 Q2136.58 235.867 2144.43 235.867 Q2147.53 235.867 2150.26 236.7 Q2153.02 237.51 2155.43 239.154 Z" fill="#000000" fill-rule="nonzero" fill-opacity="1" /><path clip-path="url(#clip280)" d="M2177.49 249.107 Q2176.77 248.691 2175.91 248.506 Q2175.08 248.297 2174.06 248.297 Q2170.45 248.297 2168.5 250.658 Q2166.58 252.996 2166.58 257.394 L2166.58 271.052 L2162.3 271.052 L2162.3 245.126 L2166.58 245.126 L2166.58 249.154 Q2167.93 246.793 2170.08 245.658 Q2172.23 244.501 2175.31 244.501 Q2175.75 244.501 2176.28 244.57 Q2176.81 244.617 2177.46 244.732 L2177.49 249.107 Z" fill="#000000" fill-rule="nonzero" fill-opacity="1" /><path clip-path="url(#clip280)" d="M2193.74 258.019 Q2188.57 258.019 2186.58 259.2 Q2184.59 260.38 2184.59 263.228 Q2184.59 265.496 2186.07 266.839 Q2187.58 268.158 2190.15 268.158 Q2193.69 268.158 2195.82 265.658 Q2197.97 263.135 2197.97 258.968 L2197.97 258.019 L2193.74 258.019 M2202.23 256.26 L2202.23 271.052 L2197.97 271.052 L2197.97 267.117 Q2196.51 269.478 2194.34 270.612 Q2192.16 271.723 2189.01 271.723 Q2185.03 271.723 2182.67 269.501 Q2180.33 267.255 2180.33 263.505 Q2180.33 259.13 2183.25 256.908 Q2186.19 254.686 2192 254.686 L2197.97 254.686 L2197.97 254.269 Q2197.97 251.33 2196.03 249.732 Q2194.11 248.112 2190.61 248.112 Q2188.39 248.112 2186.28 248.644 Q2184.18 249.177 2182.23 250.242 L2182.23 246.306 Q2184.57 245.404 2186.77 244.964 Q2188.97 244.501 2191.05 244.501 Q2196.68 244.501 2199.45 247.418 Q2202.23 250.334 2202.23 256.26 Z" fill="#000000" fill-rule="nonzero" fill-opacity="1" /><path clip-path="url(#clip280)" d="M2227.53 245.89 L2227.53 249.918 Q2225.73 248.992 2223.78 248.529 Q2221.84 248.066 2219.75 248.066 Q2216.58 248.066 2214.99 249.038 Q2213.41 250.01 2213.41 251.955 Q2213.41 253.436 2214.55 254.293 Q2215.68 255.126 2219.11 255.89 L2220.56 256.214 Q2225.1 257.186 2227 258.968 Q2228.92 260.728 2228.92 263.899 Q2228.92 267.51 2226.05 269.617 Q2223.2 271.723 2218.2 271.723 Q2216.12 271.723 2213.85 271.306 Q2211.61 270.913 2209.11 270.103 L2209.11 265.705 Q2211.47 266.931 2213.76 267.556 Q2216.05 268.158 2218.3 268.158 Q2221.31 268.158 2222.93 267.14 Q2224.55 266.098 2224.55 264.223 Q2224.55 262.487 2223.37 261.561 Q2222.21 260.635 2218.25 259.779 L2216.77 259.431 Q2212.81 258.598 2211.05 256.885 Q2209.29 255.149 2209.29 252.14 Q2209.29 248.482 2211.88 246.492 Q2214.48 244.501 2219.24 244.501 Q2221.61 244.501 2223.69 244.848 Q2225.77 245.195 2227.53 245.89 Z" fill="#000000" fill-rule="nonzero" fill-opacity="1" /><path clip-path="url(#clip280)" d="M2257.25 255.404 L2257.25 271.052 L2252.99 271.052 L2252.99 255.543 Q2252.99 251.862 2251.56 250.033 Q2250.12 248.205 2247.25 248.205 Q2243.81 248.205 2241.81 250.404 Q2239.82 252.603 2239.82 256.399 L2239.82 271.052 L2235.54 271.052 L2235.54 235.033 L2239.82 235.033 L2239.82 249.154 Q2241.35 246.816 2243.41 245.658 Q2245.49 244.501 2248.2 244.501 Q2252.67 244.501 2254.96 247.279 Q2257.25 250.033 2257.25 255.404 Z" fill="#000000" fill-rule="nonzero" fill-opacity="1" /><path clip-path="url(#clip280)" d="M1960.43 326.348 L2103.68 326.348 L2103.68 284.876 L1960.43 284.876 L1960.43 326.348  Z" fill="#008080" fill-rule="evenodd" fill-opacity="0.5"/>
<polyline clip-path="url(#clip280)" style="stroke:#000000; stroke-linecap:round; stroke-linejoin:round; stroke-width:4; stroke-opacity:1; fill:none" points="1960.43,326.348 2103.68,326.348 2103.68,284.876 1960.43,284.876 1960.43,326.348 "/>
<path clip-path="url(#clip280)" d="M2132.23 306.387 L2132.23 319.049 L2139.73 319.049 Q2143.5 319.049 2145.31 317.498 Q2147.14 315.924 2147.14 312.707 Q2147.14 309.466 2145.31 307.938 Q2143.5 306.387 2139.73 306.387 L2132.23 306.387 M2132.23 292.174 L2132.23 302.591 L2139.15 302.591 Q2142.58 302.591 2144.25 301.318 Q2145.94 300.021 2145.94 297.383 Q2145.94 294.767 2144.25 293.471 Q2142.58 292.174 2139.15 292.174 L2132.23 292.174 M2127.56 288.332 L2139.5 288.332 Q2144.85 288.332 2147.74 290.554 Q2150.63 292.776 2150.63 296.873 Q2150.63 300.045 2149.15 301.92 Q2147.67 303.795 2144.8 304.258 Q2148.25 304.998 2150.15 307.359 Q2152.07 309.697 2152.07 313.216 Q2152.07 317.845 2148.92 320.369 Q2145.77 322.892 2139.96 322.892 L2127.56 322.892 L2127.56 288.332 Z" fill="#000000" fill-rule="nonzero" fill-opacity="1" /><path clip-path="url(#clip280)" d="M2169.94 299.952 Q2166.51 299.952 2164.52 302.637 Q2162.53 305.299 2162.53 309.952 Q2162.53 314.605 2164.5 317.29 Q2166.49 319.952 2169.94 319.952 Q2173.34 319.952 2175.33 317.267 Q2177.32 314.582 2177.32 309.952 Q2177.32 305.346 2175.33 302.66 Q2173.34 299.952 2169.94 299.952 M2169.94 296.341 Q2175.5 296.341 2178.67 299.952 Q2181.84 303.563 2181.84 309.952 Q2181.84 316.318 2178.67 319.952 Q2175.5 323.563 2169.94 323.563 Q2164.36 323.563 2161.19 319.952 Q2158.04 316.318 2158.04 309.952 Q2158.04 303.563 2161.19 299.952 Q2164.36 296.341 2169.94 296.341 Z" fill="#000000" fill-rule="nonzero" fill-opacity="1" /><path clip-path="url(#clip280)" d="M2198.94 299.952 Q2195.52 299.952 2193.53 302.637 Q2191.54 305.299 2191.54 309.952 Q2191.54 314.605 2193.5 317.29 Q2195.5 319.952 2198.94 319.952 Q2202.35 319.952 2204.34 317.267 Q2206.33 314.582 2206.33 309.952 Q2206.33 305.346 2204.34 302.66 Q2202.35 299.952 2198.94 299.952 M2198.94 296.341 Q2204.5 296.341 2207.67 299.952 Q2210.84 303.563 2210.84 309.952 Q2210.84 316.318 2207.67 319.952 Q2204.5 323.563 2198.94 323.563 Q2193.37 323.563 2190.19 319.952 Q2187.05 316.318 2187.05 309.952 Q2187.05 303.563 2190.19 299.952 Q2193.37 296.341 2198.94 296.341 Z" fill="#000000" fill-rule="nonzero" fill-opacity="1" /><path clip-path="url(#clip280)" d="M2238.09 301.943 Q2239.68 299.072 2241.91 297.707 Q2244.13 296.341 2247.14 296.341 Q2251.19 296.341 2253.39 299.188 Q2255.59 302.012 2255.59 307.244 L2255.59 322.892 L2251.3 322.892 L2251.3 307.383 Q2251.3 303.656 2249.99 301.85 Q2248.67 300.045 2245.96 300.045 Q2242.65 300.045 2240.73 302.244 Q2238.81 304.443 2238.81 308.239 L2238.81 322.892 L2234.52 322.892 L2234.52 307.383 Q2234.52 303.633 2233.2 301.85 Q2231.88 300.045 2229.13 300.045 Q2225.87 300.045 2223.94 302.267 Q2222.02 304.466 2222.02 308.239 L2222.02 322.892 L2217.74 322.892 L2217.74 296.966 L2222.02 296.966 L2222.02 300.994 Q2223.48 298.609 2225.52 297.475 Q2227.56 296.341 2230.36 296.341 Q2233.18 296.341 2235.15 297.776 Q2237.14 299.211 2238.09 301.943 Z" fill="#000000" fill-rule="nonzero" fill-opacity="1" /></svg>
