<?xml version="1.0" encoding="utf-8"?>
<svg xmlns="http://www.w3.org/2000/svg" xmlns:xlink="http://www.w3.org/1999/xlink" width="600" height="400" viewBox="0 0 2400 1600">
<defs>
  <clipPath id="clip310">
    <rect x="0" y="0" width="2400" height="1600"/>
  </clipPath>
</defs>
<path clip-path="url(#clip310)" d="M0 1600 L2400 1600 L2400 8.88178e-14 L0 8.88178e-14  Z" fill="#ffffff" fill-rule="evenodd" fill-opacity="1"/>
<defs>
  <clipPath id="clip311">
    <rect x="203" y="106" width="2150" height="1318"/>
  </clipPath>
</defs>
<path clip-path="url(#clip310)" d="M249.542 1423.18 L2352.76 1423.18 L2352.76 106.192 L249.542 106.192  Z" fill="#ffffff" fill-rule="evenodd" fill-opacity="1"/>
<defs>
  <clipPath id="clip312">
    <rect x="249" y="106" width="2104" height="1318"/>
  </clipPath>
</defs>
<polyline clip-path="url(#clip312)" style="stroke:#000000; stroke-linecap:round; stroke-linejoin:round; stroke-width:2; stroke-opacity:0.1; fill:none" points="663.017,1423.18 663.017,106.192 "/>
<polyline clip-path="url(#clip312)" style="stroke:#000000; stroke-linecap:round; stroke-linejoin:round; stroke-width:2; stroke-opacity:0.1; fill:none" points="1088.44,1423.18 1088.44,106.192 "/>
<polyline clip-path="url(#clip312)" style="stroke:#000000; stroke-linecap:round; stroke-linejoin:round; stroke-width:2; stroke-opacity:0.1; fill:none" points="1513.86,1423.18 1513.86,106.192 "/>
<polyline clip-path="url(#clip312)" style="stroke:#000000; stroke-linecap:round; stroke-linejoin:round; stroke-width:2; stroke-opacity:0.1; fill:none" points="1939.28,1423.18 1939.28,106.192 "/>
<polyline clip-path="url(#clip312)" style="stroke:#000000; stroke-linecap:round; stroke-linejoin:round; stroke-width:2; stroke-opacity:0.1; fill:none" points="249.542,1423.18 2352.76,1423.18 "/>
<polyline clip-path="url(#clip312)" style="stroke:#000000; stroke-linecap:round; stroke-linejoin:round; stroke-width:2; stroke-opacity:0.1; fill:none" points="249.542,1084.09 2352.76,1084.09 "/>
<polyline clip-path="url(#clip312)" style="stroke:#000000; stroke-linecap:round; stroke-linejoin:round; stroke-width:2; stroke-opacity:0.1; fill:none" points="249.542,745.007 2352.76,745.007 "/>
<polyline clip-path="url(#clip312)" style="stroke:#000000; stroke-linecap:round; stroke-linejoin:round; stroke-width:2; stroke-opacity:0.1; fill:none" points="249.542,405.921 2352.76,405.921 "/>
<polyline clip-path="url(#clip310)" style="stroke:#000000; stroke-linecap:round; stroke-linejoin:round; stroke-width:4; stroke-opacity:1; fill:none" points="249.542,1423.18 2352.76,1423.18 "/>
<polyline clip-path="url(#clip310)" style="stroke:#000000; stroke-linecap:round; stroke-linejoin:round; stroke-width:4; stroke-opacity:1; fill:none" points="663.017,1423.18 663.017,1404.28 "/>
<polyline clip-path="url(#clip310)" style="stroke:#000000; stroke-linecap:round; stroke-linejoin:round; stroke-width:4; stroke-opacity:1; fill:none" points="1088.44,1423.18 1088.44,1404.28 "/>
<polyline clip-path="url(#clip310)" style="stroke:#000000; stroke-linecap:round; stroke-linejoin:round; stroke-width:4; stroke-opacity:1; fill:none" points="1513.86,1423.18 1513.86,1404.28 "/>
<polyline clip-path="url(#clip310)" style="stroke:#000000; stroke-linecap:round; stroke-linejoin:round; stroke-width:4; stroke-opacity:1; fill:none" points="1939.28,1423.18 1939.28,1404.28 "/>
<path clip-path="url(#clip310)" d="M657.67 1481.64 L673.989 1481.64 L673.989 1485.58 L652.045 1485.58 L652.045 1481.64 Q654.707 1478.89 659.29 1474.26 Q663.897 1469.61 665.077 1468.27 Q667.323 1465.74 668.202 1464.01 Q669.105 1462.25 669.105 1460.56 Q669.105 1457.8 667.161 1456.07 Q665.24 1454.33 662.138 1454.33 Q659.939 1454.33 657.485 1455.09 Q655.054 1455.86 652.277 1457.41 L652.277 1452.69 Q655.101 1451.55 657.554 1450.97 Q660.008 1450.39 662.045 1450.39 Q667.415 1450.39 670.61 1453.08 Q673.804 1455.77 673.804 1460.26 Q673.804 1462.39 672.994 1464.31 Q672.207 1466.2 670.101 1468.8 Q669.522 1469.47 666.42 1472.69 Q663.318 1475.88 657.67 1481.64 Z" fill="#000000" fill-rule="nonzero" fill-opacity="1" /><path clip-path="url(#clip310)" d="M1091.45 1455.09 L1079.64 1473.54 L1091.45 1473.54 L1091.45 1455.09 M1090.22 1451.02 L1096.1 1451.02 L1096.1 1473.54 L1101.03 1473.54 L1101.03 1477.43 L1096.1 1477.43 L1096.1 1485.58 L1091.45 1485.58 L1091.45 1477.43 L1075.85 1477.43 L1075.85 1472.92 L1090.22 1451.02 Z" fill="#000000" fill-rule="nonzero" fill-opacity="1" /><path clip-path="url(#clip310)" d="M1514.26 1466.44 Q1511.12 1466.44 1509.26 1468.59 Q1507.44 1470.74 1507.44 1474.49 Q1507.44 1478.22 1509.26 1480.39 Q1511.12 1482.55 1514.26 1482.55 Q1517.41 1482.55 1519.24 1480.39 Q1521.09 1478.22 1521.09 1474.49 Q1521.09 1470.74 1519.24 1468.59 Q1517.41 1466.44 1514.26 1466.44 M1523.55 1451.78 L1523.55 1456.04 Q1521.79 1455.21 1519.98 1454.77 Q1518.2 1454.33 1516.44 1454.33 Q1511.81 1454.33 1509.36 1457.45 Q1506.93 1460.58 1506.58 1466.9 Q1507.95 1464.89 1510.01 1463.82 Q1512.07 1462.73 1514.54 1462.73 Q1519.75 1462.73 1522.76 1465.9 Q1525.79 1469.05 1525.79 1474.49 Q1525.79 1479.82 1522.64 1483.03 Q1519.5 1486.25 1514.26 1486.25 Q1508.27 1486.25 1505.1 1481.67 Q1501.93 1477.06 1501.93 1468.33 Q1501.93 1460.14 1505.82 1455.28 Q1509.7 1450.39 1516.26 1450.39 Q1518.01 1450.39 1519.8 1450.74 Q1521.6 1451.09 1523.55 1451.78 Z" fill="#000000" fill-rule="nonzero" fill-opacity="1" /><path clip-path="url(#clip310)" d="M1939.28 1469.17 Q1935.95 1469.17 1934.03 1470.95 Q1932.13 1472.73 1932.13 1475.86 Q1932.13 1478.98 1934.03 1480.77 Q1935.95 1482.55 1939.28 1482.55 Q1942.61 1482.55 1944.54 1480.77 Q1946.46 1478.96 1946.46 1475.86 Q1946.46 1472.73 1944.54 1470.95 Q1942.64 1469.17 1939.28 1469.17 M1934.6 1467.18 Q1931.6 1466.44 1929.91 1464.38 Q1928.24 1462.32 1928.24 1459.35 Q1928.24 1455.21 1931.18 1452.8 Q1934.14 1450.39 1939.28 1450.39 Q1944.44 1450.39 1947.38 1452.8 Q1950.32 1455.21 1950.32 1459.35 Q1950.32 1462.32 1948.63 1464.38 Q1946.97 1466.44 1943.98 1467.18 Q1947.36 1467.96 1949.23 1470.26 Q1951.13 1472.55 1951.13 1475.86 Q1951.13 1480.88 1948.05 1483.57 Q1945 1486.25 1939.28 1486.25 Q1933.56 1486.25 1930.48 1483.57 Q1927.43 1480.88 1927.43 1475.86 Q1927.43 1472.55 1929.33 1470.26 Q1931.23 1467.96 1934.6 1467.18 M1932.89 1459.79 Q1932.89 1462.48 1934.56 1463.98 Q1936.25 1465.49 1939.28 1465.49 Q1942.29 1465.49 1943.98 1463.98 Q1945.69 1462.48 1945.69 1459.79 Q1945.69 1457.11 1943.98 1455.6 Q1942.29 1454.1 1939.28 1454.1 Q1936.25 1454.1 1934.56 1455.6 Q1932.89 1457.11 1932.89 1459.79 Z" fill="#000000" fill-rule="nonzero" fill-opacity="1" /><path clip-path="url(#clip310)" d="M1249.35 1522.08 L1249.35 1528.35 Q1245.69 1526.6 1242.44 1525.74 Q1239.19 1524.88 1236.17 1524.88 Q1230.92 1524.88 1228.05 1526.92 Q1225.22 1528.96 1225.22 1532.71 Q1225.22 1535.87 1227.1 1537.49 Q1229.01 1539.08 1234.29 1540.07 L1238.18 1540.86 Q1245.37 1542.23 1248.78 1545.7 Q1252.21 1549.14 1252.21 1554.93 Q1252.21 1561.84 1247.57 1565.4 Q1242.95 1568.97 1234.01 1568.97 Q1230.63 1568.97 1226.81 1568.2 Q1223.03 1567.44 1218.95 1565.94 L1218.95 1559.32 Q1222.87 1561.52 1226.62 1562.63 Q1230.38 1563.75 1234.01 1563.75 Q1239.51 1563.75 1242.5 1561.58 Q1245.5 1559.42 1245.5 1555.41 Q1245.5 1551.91 1243.33 1549.93 Q1241.2 1547.96 1236.3 1546.97 L1232.38 1546.21 Q1225.19 1544.78 1221.98 1541.72 Q1218.76 1538.67 1218.76 1533.22 Q1218.76 1526.92 1223.18 1523.29 Q1227.64 1519.66 1235.44 1519.66 Q1238.78 1519.66 1242.25 1520.27 Q1245.72 1520.87 1249.35 1522.08 Z" fill="#000000" fill-rule="nonzero" fill-opacity="1" /><path clip-path="url(#clip310)" d="M1267.78 1522.27 L1267.78 1532.4 L1279.84 1532.4 L1279.84 1536.95 L1267.78 1536.95 L1267.78 1556.3 Q1267.78 1560.66 1268.95 1561.9 Q1270.16 1563.14 1273.82 1563.14 L1279.84 1563.14 L1279.84 1568.04 L1273.82 1568.04 Q1267.04 1568.04 1264.47 1565.53 Q1261.89 1562.98 1261.89 1556.3 L1261.89 1536.95 L1257.59 1536.95 L1257.59 1532.4 L1261.89 1532.4 L1261.89 1522.27 L1267.78 1522.27 Z" fill="#000000" fill-rule="nonzero" fill-opacity="1" /><path clip-path="url(#clip310)" d="M1303.74 1550.12 Q1296.65 1550.12 1293.91 1551.75 Q1291.17 1553.37 1291.17 1557.29 Q1291.17 1560.4 1293.21 1562.25 Q1295.28 1564.07 1298.81 1564.07 Q1303.68 1564.07 1306.61 1560.63 Q1309.57 1557.16 1309.57 1551.43 L1309.57 1550.12 L1303.74 1550.12 M1315.42 1547.71 L1315.42 1568.04 L1309.57 1568.04 L1309.57 1562.63 Q1307.56 1565.88 1304.57 1567.44 Q1301.58 1568.97 1297.25 1568.97 Q1291.78 1568.97 1288.53 1565.91 Q1285.31 1562.82 1285.31 1557.67 Q1285.31 1551.65 1289.32 1548.6 Q1293.37 1545.54 1301.36 1545.54 L1309.57 1545.54 L1309.57 1544.97 Q1309.57 1540.93 1306.89 1538.73 Q1304.25 1536.5 1299.45 1536.5 Q1296.39 1536.5 1293.49 1537.23 Q1290.6 1537.97 1287.92 1539.43 L1287.92 1534.02 Q1291.14 1532.78 1294.16 1532.17 Q1297.19 1531.54 1300.05 1531.54 Q1307.79 1531.54 1311.6 1535.55 Q1315.42 1539.56 1315.42 1547.71 Z" fill="#000000" fill-rule="nonzero" fill-opacity="1" /><path clip-path="url(#clip310)" d="M1333.28 1522.27 L1333.28 1532.4 L1345.34 1532.4 L1345.34 1536.95 L1333.28 1536.95 L1333.28 1556.3 Q1333.28 1560.66 1334.46 1561.9 Q1335.67 1563.14 1339.33 1563.14 L1345.34 1563.14 L1345.34 1568.04 L1339.33 1568.04 Q1332.55 1568.04 1329.97 1565.53 Q1327.39 1562.98 1327.39 1556.3 L1327.39 1536.95 L1323.09 1536.95 L1323.09 1532.4 L1327.39 1532.4 L1327.39 1522.27 L1333.28 1522.27 Z" fill="#000000" fill-rule="nonzero" fill-opacity="1" /><path clip-path="url(#clip310)" d="M1383.54 1548.76 L1383.54 1551.62 L1356.61 1551.62 Q1356.99 1557.67 1360.24 1560.85 Q1363.52 1564 1369.34 1564 Q1372.72 1564 1375.87 1563.17 Q1379.05 1562.35 1382.17 1560.69 L1382.17 1566.23 Q1379.02 1567.57 1375.71 1568.27 Q1372.4 1568.97 1368.99 1568.97 Q1360.46 1568.97 1355.46 1564 Q1350.5 1559.04 1350.5 1550.57 Q1350.5 1541.82 1355.21 1536.69 Q1359.95 1531.54 1367.97 1531.54 Q1375.17 1531.54 1379.34 1536.18 Q1383.54 1540.8 1383.54 1548.76 M1377.68 1547.04 Q1377.62 1542.23 1374.98 1539.37 Q1372.37 1536.5 1368.04 1536.5 Q1363.14 1536.5 1360.17 1539.27 Q1357.25 1542.04 1356.8 1547.07 L1377.68 1547.04 Z" fill="#000000" fill-rule="nonzero" fill-opacity="1" /><polyline clip-path="url(#clip310)" style="stroke:#000000; stroke-linecap:round; stroke-linejoin:round; stroke-width:4; stroke-opacity:1; fill:none" points="249.542,1423.18 249.542,106.192 "/>
<polyline clip-path="url(#clip310)" style="stroke:#000000; stroke-linecap:round; stroke-linejoin:round; stroke-width:4; stroke-opacity:1; fill:none" points="249.542,1423.18 268.44,1423.18 "/>
<polyline clip-path="url(#clip310)" style="stroke:#000000; stroke-linecap:round; stroke-linejoin:round; stroke-width:4; stroke-opacity:1; fill:none" points="249.542,1084.09 268.44,1084.09 "/>
<polyline clip-path="url(#clip310)" style="stroke:#000000; stroke-linecap:round; stroke-linejoin:round; stroke-width:4; stroke-opacity:1; fill:none" points="249.542,745.007 268.44,745.007 "/>
<polyline clip-path="url(#clip310)" style="stroke:#000000; stroke-linecap:round; stroke-linejoin:round; stroke-width:4; stroke-opacity:1; fill:none" points="249.542,405.921 268.44,405.921 "/>
<path clip-path="url(#clip310)" d="M126.205 1408.98 Q122.593 1408.98 120.765 1412.54 Q118.959 1416.08 118.959 1423.21 Q118.959 1430.32 120.765 1433.89 Q122.593 1437.43 126.205 1437.43 Q129.839 1437.43 131.644 1433.89 Q133.473 1430.32 133.473 1423.21 Q133.473 1416.08 131.644 1412.54 Q129.839 1408.98 126.205 1408.98 M126.205 1405.27 Q132.015 1405.27 135.07 1409.88 Q138.149 1414.46 138.149 1423.21 Q138.149 1431.94 135.07 1436.55 Q132.015 1441.13 126.205 1441.13 Q120.394 1441.13 117.316 1436.55 Q114.26 1431.94 114.26 1423.21 Q114.26 1414.46 117.316 1409.88 Q120.394 1405.27 126.205 1405.27 Z" fill="#000000" fill-rule="nonzero" fill-opacity="1" /><path clip-path="url(#clip310)" d="M146.366 1434.58 L151.251 1434.58 L151.251 1440.46 L146.366 1440.46 L146.366 1434.58 Z" fill="#000000" fill-rule="nonzero" fill-opacity="1" /><path clip-path="url(#clip310)" d="M171.436 1408.98 Q167.825 1408.98 165.996 1412.54 Q164.19 1416.08 164.19 1423.21 Q164.19 1430.32 165.996 1433.89 Q167.825 1437.43 171.436 1437.43 Q175.07 1437.43 176.876 1433.89 Q178.704 1430.32 178.704 1423.21 Q178.704 1416.08 176.876 1412.54 Q175.07 1408.98 171.436 1408.98 M171.436 1405.27 Q177.246 1405.27 180.301 1409.88 Q183.38 1414.46 183.38 1423.21 Q183.38 1431.94 180.301 1436.55 Q177.246 1441.13 171.436 1441.13 Q165.626 1441.13 162.547 1436.55 Q159.491 1431.94 159.491 1423.21 Q159.491 1414.46 162.547 1409.88 Q165.626 1405.27 171.436 1405.27 Z" fill="#000000" fill-rule="nonzero" fill-opacity="1" /><path clip-path="url(#clip310)" d="M201.598 1408.98 Q197.987 1408.98 196.158 1412.54 Q194.352 1416.08 194.352 1423.21 Q194.352 1430.32 196.158 1433.89 Q197.987 1437.43 201.598 1437.43 Q205.232 1437.43 207.037 1433.89 Q208.866 1430.32 208.866 1423.21 Q208.866 1416.08 207.037 1412.54 Q205.232 1408.98 201.598 1408.98 M201.598 1405.27 Q207.408 1405.27 210.463 1409.88 Q213.542 1414.46 213.542 1423.21 Q213.542 1431.94 210.463 1436.55 Q207.408 1441.13 201.598 1441.13 Q195.787 1441.13 192.709 1436.55 Q189.653 1431.94 189.653 1423.21 Q189.653 1414.46 192.709 1409.88 Q195.787 1405.27 201.598 1405.27 Z" fill="#000000" fill-rule="nonzero" fill-opacity="1" /><path clip-path="url(#clip310)" d="M127.2 1069.89 Q123.589 1069.89 121.76 1073.46 Q119.955 1077 119.955 1084.13 Q119.955 1091.23 121.76 1094.8 Q123.589 1098.34 127.2 1098.34 Q130.834 1098.34 132.64 1094.8 Q134.468 1091.23 134.468 1084.13 Q134.468 1077 132.64 1073.46 Q130.834 1069.89 127.2 1069.89 M127.2 1066.19 Q133.01 1066.19 136.066 1070.8 Q139.144 1075.38 139.144 1084.13 Q139.144 1092.86 136.066 1097.46 Q133.01 1102.04 127.2 1102.04 Q121.39 1102.04 118.311 1097.46 Q115.256 1092.86 115.256 1084.13 Q115.256 1075.38 118.311 1070.8 Q121.39 1066.19 127.2 1066.19 Z" fill="#000000" fill-rule="nonzero" fill-opacity="1" /><path clip-path="url(#clip310)" d="M147.362 1095.49 L152.246 1095.49 L152.246 1101.37 L147.362 1101.37 L147.362 1095.49 Z" fill="#000000" fill-rule="nonzero" fill-opacity="1" /><path clip-path="url(#clip310)" d="M172.431 1069.89 Q168.82 1069.89 166.991 1073.46 Q165.186 1077 165.186 1084.13 Q165.186 1091.23 166.991 1094.8 Q168.82 1098.34 172.431 1098.34 Q176.065 1098.34 177.871 1094.8 Q179.7 1091.23 179.7 1084.13 Q179.7 1077 177.871 1073.46 Q176.065 1069.89 172.431 1069.89 M172.431 1066.19 Q178.241 1066.19 181.297 1070.8 Q184.376 1075.38 184.376 1084.13 Q184.376 1092.86 181.297 1097.46 Q178.241 1102.04 172.431 1102.04 Q166.621 1102.04 163.542 1097.46 Q160.487 1092.86 160.487 1084.13 Q160.487 1075.38 163.542 1070.8 Q166.621 1066.19 172.431 1066.19 Z" fill="#000000" fill-rule="nonzero" fill-opacity="1" /><path clip-path="url(#clip310)" d="M192.639 1066.81 L210.996 1066.81 L210.996 1070.75 L196.922 1070.75 L196.922 1079.22 Q197.94 1078.87 198.959 1078.71 Q199.977 1078.53 200.996 1078.53 Q206.783 1078.53 210.162 1081.7 Q213.542 1084.87 213.542 1090.29 Q213.542 1095.86 210.07 1098.97 Q206.598 1102.04 200.278 1102.04 Q198.102 1102.04 195.834 1101.67 Q193.588 1101.3 191.181 1100.56 L191.181 1095.86 Q193.264 1097 195.487 1097.55 Q197.709 1098.11 200.186 1098.11 Q204.19 1098.11 206.528 1096 Q208.866 1093.9 208.866 1090.29 Q208.866 1086.67 206.528 1084.57 Q204.19 1082.46 200.186 1082.46 Q198.311 1082.46 196.436 1082.88 Q194.584 1083.29 192.639 1084.17 L192.639 1066.81 Z" fill="#000000" fill-rule="nonzero" fill-opacity="1" /><path clip-path="url(#clip310)" d="M126.205 730.806 Q122.593 730.806 120.765 734.371 Q118.959 737.912 118.959 745.042 Q118.959 752.149 120.765 755.713 Q122.593 759.255 126.205 759.255 Q129.839 759.255 131.644 755.713 Q133.473 752.149 133.473 745.042 Q133.473 737.912 131.644 734.371 Q129.839 730.806 126.205 730.806 M126.205 727.102 Q132.015 727.102 135.07 731.709 Q138.149 736.292 138.149 745.042 Q138.149 753.769 135.07 758.375 Q132.015 762.959 126.205 762.959 Q120.394 762.959 117.316 758.375 Q114.26 753.769 114.26 745.042 Q114.26 736.292 117.316 731.709 Q120.394 727.102 126.205 727.102 Z" fill="#000000" fill-rule="nonzero" fill-opacity="1" /><path clip-path="url(#clip310)" d="M146.366 756.408 L151.251 756.408 L151.251 762.287 L146.366 762.287 L146.366 756.408 Z" fill="#000000" fill-rule="nonzero" fill-opacity="1" /><path clip-path="url(#clip310)" d="M162.246 758.352 L169.885 758.352 L169.885 731.987 L161.575 733.653 L161.575 729.394 L169.839 727.727 L174.514 727.727 L174.514 758.352 L182.153 758.352 L182.153 762.287 L162.246 762.287 L162.246 758.352 Z" fill="#000000" fill-rule="nonzero" fill-opacity="1" /><path clip-path="url(#clip310)" d="M201.598 730.806 Q197.987 730.806 196.158 734.371 Q194.352 737.912 194.352 745.042 Q194.352 752.149 196.158 755.713 Q197.987 759.255 201.598 759.255 Q205.232 759.255 207.037 755.713 Q208.866 752.149 208.866 745.042 Q208.866 737.912 207.037 734.371 Q205.232 730.806 201.598 730.806 M201.598 727.102 Q207.408 727.102 210.463 731.709 Q213.542 736.292 213.542 745.042 Q213.542 753.769 210.463 758.375 Q207.408 762.959 201.598 762.959 Q195.787 762.959 192.709 758.375 Q189.653 753.769 189.653 745.042 Q189.653 736.292 192.709 731.709 Q195.787 727.102 201.598 727.102 Z" fill="#000000" fill-rule="nonzero" fill-opacity="1" /><path clip-path="url(#clip310)" d="M127.2 391.72 Q123.589 391.72 121.76 395.285 Q119.955 398.826 119.955 405.956 Q119.955 413.062 121.76 416.627 Q123.589 420.169 127.2 420.169 Q130.834 420.169 132.64 416.627 Q134.468 413.062 134.468 405.956 Q134.468 398.826 132.64 395.285 Q130.834 391.72 127.2 391.72 M127.2 388.016 Q133.01 388.016 136.066 392.623 Q139.144 397.206 139.144 405.956 Q139.144 414.683 136.066 419.289 Q133.01 423.872 127.2 423.872 Q121.39 423.872 118.311 419.289 Q115.256 414.683 115.256 405.956 Q115.256 397.206 118.311 392.623 Q121.39 388.016 127.2 388.016 Z" fill="#000000" fill-rule="nonzero" fill-opacity="1" /><path clip-path="url(#clip310)" d="M147.362 417.322 L152.246 417.322 L152.246 423.201 L147.362 423.201 L147.362 417.322 Z" fill="#000000" fill-rule="nonzero" fill-opacity="1" /><path clip-path="url(#clip310)" d="M163.241 419.266 L170.88 419.266 L170.88 392.9 L162.57 394.567 L162.57 390.308 L170.834 388.641 L175.51 388.641 L175.51 419.266 L183.149 419.266 L183.149 423.201 L163.241 423.201 L163.241 419.266 Z" fill="#000000" fill-rule="nonzero" fill-opacity="1" /><path clip-path="url(#clip310)" d="M192.639 388.641 L210.996 388.641 L210.996 392.576 L196.922 392.576 L196.922 401.048 Q197.94 400.701 198.959 400.539 Q199.977 400.354 200.996 400.354 Q206.783 400.354 210.162 403.525 Q213.542 406.697 213.542 412.113 Q213.542 417.692 210.07 420.794 Q206.598 423.872 200.278 423.872 Q198.102 423.872 195.834 423.502 Q193.588 423.132 191.181 422.391 L191.181 417.692 Q193.264 418.826 195.487 419.382 Q197.709 419.937 200.186 419.937 Q204.19 419.937 206.528 417.831 Q208.866 415.724 208.866 412.113 Q208.866 408.502 206.528 406.396 Q204.19 404.289 200.186 404.289 Q198.311 404.289 196.436 404.706 Q194.584 405.122 192.639 406.002 L192.639 388.641 Z" fill="#000000" fill-rule="nonzero" fill-opacity="1" /><path clip-path="url(#clip310)" d="M21.7677 926.375 L39.6235 926.375 L39.6235 918.29 Q39.6235 913.803 37.3 911.352 Q34.9765 908.901 30.6797 908.901 Q26.4147 908.901 24.0912 911.352 Q21.7677 913.803 21.7677 918.29 L21.7677 926.375 M16.4842 932.804 L16.4842 918.29 Q16.4842 910.302 20.1126 906.227 Q23.7092 902.122 30.6797 902.122 Q37.7138 902.122 41.3104 906.227 Q44.907 910.302 44.907 918.29 L44.907 926.375 L64.0042 926.375 L64.0042 932.804 L16.4842 932.804 Z" fill="#000000" fill-rule="nonzero" fill-opacity="1" /><path clip-path="url(#clip310)" d="M33.8307 874.24 Q33.2578 875.226 33.0032 876.404 Q32.7167 877.55 32.7167 878.95 Q32.7167 883.916 35.9632 886.589 Q39.1779 889.231 45.2253 889.231 L64.0042 889.231 L64.0042 895.119 L28.3562 895.119 L28.3562 889.231 L33.8944 889.231 Q30.6479 887.385 29.0883 884.425 Q27.4968 881.465 27.4968 877.232 Q27.4968 876.627 27.5923 875.895 Q27.656 875.163 27.8151 874.272 L33.8307 874.24 Z" fill="#000000" fill-rule="nonzero" fill-opacity="1" /><path clip-path="url(#clip310)" d="M32.4621 855.716 Q32.4621 860.426 36.1542 863.163 Q39.8145 865.901 46.212 865.901 Q52.6095 865.901 56.3017 863.195 Q59.9619 860.458 59.9619 855.716 Q59.9619 851.037 56.2698 848.3 Q52.5777 845.562 46.212 845.562 Q39.8781 845.562 36.186 848.3 Q32.4621 851.037 32.4621 855.716 M27.4968 855.716 Q27.4968 848.077 32.4621 843.716 Q37.4273 839.356 46.212 839.356 Q54.9649 839.356 59.9619 843.716 Q64.9272 848.077 64.9272 855.716 Q64.9272 863.386 59.9619 867.747 Q54.9649 872.075 46.212 872.075 Q37.4273 872.075 32.4621 867.747 Q27.4968 863.386 27.4968 855.716 Z" fill="#000000" fill-rule="nonzero" fill-opacity="1" /><path clip-path="url(#clip310)" d="M46.212 804.058 Q39.7508 804.058 36.0905 806.731 Q32.3984 809.373 32.3984 814.02 Q32.3984 818.667 36.0905 821.341 Q39.7508 823.983 46.212 823.983 Q52.6732 823.983 56.3653 821.341 Q60.0256 818.667 60.0256 814.02 Q60.0256 809.373 56.3653 806.731 Q52.6732 804.058 46.212 804.058 M33.7671 823.983 Q30.5842 822.136 29.0564 819.336 Q27.4968 816.503 27.4968 812.588 Q27.4968 806.095 32.6531 802.053 Q37.8093 797.979 46.212 797.979 Q54.6147 797.979 59.771 802.053 Q64.9272 806.095 64.9272 812.588 Q64.9272 816.503 63.3994 819.336 Q61.8398 822.136 58.657 823.983 L64.0042 823.983 L64.0042 829.871 L14.479 829.871 L14.479 823.983 L33.7671 823.983 Z" fill="#000000" fill-rule="nonzero" fill-opacity="1" /><path clip-path="url(#clip310)" d="M46.0847 772.07 Q46.0847 779.168 47.7079 781.905 Q49.3312 784.642 53.2461 784.642 Q56.3653 784.642 58.2114 782.605 Q60.0256 780.537 60.0256 777.004 Q60.0256 772.134 56.5881 769.206 Q53.1188 766.246 47.3897 766.246 L46.0847 766.246 L46.0847 772.07 M43.6657 760.389 L64.0042 760.389 L64.0042 766.246 L58.5933 766.246 Q61.8398 768.251 63.3994 771.243 Q64.9272 774.235 64.9272 778.563 Q64.9272 784.038 61.8716 787.284 Q58.7843 790.499 53.6281 790.499 Q47.6125 790.499 44.5569 786.489 Q41.5014 782.446 41.5014 774.457 L41.5014 766.246 L40.9285 766.246 Q36.8862 766.246 34.6901 768.919 Q32.4621 771.561 32.4621 776.367 Q32.4621 779.423 33.1941 782.319 Q33.9262 785.215 35.3903 787.889 L29.9795 787.889 Q28.7381 784.674 28.1334 781.651 Q27.4968 778.627 27.4968 775.762 Q27.4968 768.028 31.5072 764.209 Q35.5176 760.389 43.6657 760.389 Z" fill="#000000" fill-rule="nonzero" fill-opacity="1" /><path clip-path="url(#clip310)" d="M46.212 722.736 Q39.7508 722.736 36.0905 725.41 Q32.3984 728.051 32.3984 732.698 Q32.3984 737.345 36.0905 740.019 Q39.7508 742.661 46.212 742.661 Q52.6732 742.661 56.3653 740.019 Q60.0256 737.345 60.0256 732.698 Q60.0256 728.051 56.3653 725.41 Q52.6732 722.736 46.212 722.736 M33.7671 742.661 Q30.5842 740.815 29.0564 738.014 Q27.4968 735.181 27.4968 731.266 Q27.4968 724.773 32.6531 720.731 Q37.8093 716.657 46.212 716.657 Q54.6147 716.657 59.771 720.731 Q64.9272 724.773 64.9272 731.266 Q64.9272 735.181 63.3994 738.014 Q61.8398 740.815 58.657 742.661 L64.0042 742.661 L64.0042 748.549 L14.479 748.549 L14.479 742.661 L33.7671 742.661 Z" fill="#000000" fill-rule="nonzero" fill-opacity="1" /><path clip-path="url(#clip310)" d="M28.3562 706.949 L28.3562 701.093 L64.0042 701.093 L64.0042 706.949 L28.3562 706.949 M14.479 706.949 L14.479 701.093 L21.895 701.093 L21.895 706.949 L14.479 706.949 Z" fill="#000000" fill-rule="nonzero" fill-opacity="1" /><path clip-path="url(#clip310)" d="M14.479 688.839 L14.479 682.982 L64.0042 682.982 L64.0042 688.839 L14.479 688.839 Z" fill="#000000" fill-rule="nonzero" fill-opacity="1" /><path clip-path="url(#clip310)" d="M28.3562 670.728 L28.3562 664.872 L64.0042 664.872 L64.0042 670.728 L28.3562 670.728 M14.479 670.728 L14.479 664.872 L21.895 664.872 L21.895 670.728 L14.479 670.728 Z" fill="#000000" fill-rule="nonzero" fill-opacity="1" /><path clip-path="url(#clip310)" d="M18.2347 646.825 L28.3562 646.825 L28.3562 634.762 L32.9077 634.762 L32.9077 646.825 L52.2594 646.825 Q56.6199 646.825 57.8613 645.647 Q59.1026 644.438 59.1026 640.778 L59.1026 634.762 L64.0042 634.762 L64.0042 640.778 Q64.0042 647.557 61.4897 650.135 Q58.9434 652.713 52.2594 652.713 L32.9077 652.713 L32.9077 657.01 L28.3562 657.01 L28.3562 652.713 L18.2347 652.713 L18.2347 646.825 Z" fill="#000000" fill-rule="nonzero" fill-opacity="1" /><path clip-path="url(#clip310)" d="M67.3143 612.227 Q73.68 614.71 75.6216 617.065 Q77.5631 619.421 77.5631 623.367 L77.5631 628.046 L72.6615 628.046 L72.6615 624.609 Q72.6615 622.19 71.5157 620.853 Q70.3699 619.516 66.1048 617.893 L63.4312 616.842 L28.3562 631.261 L28.3562 625.054 L56.238 613.914 L28.3562 602.774 L28.3562 596.568 L67.3143 612.227 Z" fill="#000000" fill-rule="nonzero" fill-opacity="1" /><path clip-path="url(#clip310)" d="M858.674 10.0578 L858.674 15.758 Q855.347 14.1666 852.396 13.3853 Q849.444 12.6041 846.695 12.6041 Q841.921 12.6041 839.317 14.4559 Q836.742 16.3078 836.742 19.7221 Q836.742 22.5867 838.449 24.0624 Q840.185 25.5091 844.988 26.4061 L848.518 27.1295 Q855.058 28.3737 858.154 31.5276 Q861.279 34.6526 861.279 39.9188 Q861.279 46.1977 857.054 49.4384 Q852.859 52.6791 844.728 52.6791 Q841.661 52.6791 838.188 51.9847 Q834.745 51.2902 831.042 49.9303 L831.042 43.9118 Q834.601 45.9083 838.015 46.921 Q841.429 47.9338 844.728 47.9338 Q849.734 47.9338 852.453 45.9662 Q855.173 43.9986 855.173 40.3528 Q855.173 37.1699 853.206 35.376 Q851.267 33.582 846.811 32.685 L843.252 31.9906 Q836.713 30.6885 833.79 27.9107 Q830.868 25.133 830.868 20.1851 Q830.868 14.4559 834.89 11.1573 Q838.941 7.85875 846.03 7.85875 Q849.068 7.85875 852.222 8.40852 Q855.376 8.95829 858.674 10.0578 Z" fill="#000000" fill-rule="nonzero" fill-opacity="1" /><path clip-path="url(#clip310)" d="M875.428 10.2314 L875.428 19.4328 L886.394 19.4328 L886.394 23.5705 L875.428 23.5705 L875.428 41.163 Q875.428 45.1271 876.498 46.2555 Q877.598 47.384 880.926 47.384 L886.394 47.384 L886.394 51.84 L880.926 51.84 Q874.762 51.84 872.419 49.5541 Q870.075 47.2393 870.075 41.163 L870.075 23.5705 L866.169 23.5705 L866.169 19.4328 L870.075 19.4328 L870.075 10.2314 L875.428 10.2314 Z" fill="#000000" fill-rule="nonzero" fill-opacity="1" /><path clip-path="url(#clip310)" d="M908.124 35.5496 Q901.672 35.5496 899.184 37.0253 Q896.695 38.501 896.695 42.06 Q896.695 44.8956 898.547 46.5738 Q900.428 48.2231 903.64 48.2231 Q908.067 48.2231 910.729 45.0981 Q913.42 41.9442 913.42 36.7359 L913.42 35.5496 L908.124 35.5496 M918.744 33.3505 L918.744 51.84 L913.42 51.84 L913.42 46.921 Q911.597 49.8724 908.877 51.2902 Q906.157 52.6791 902.222 52.6791 Q897.245 52.6791 894.294 49.9014 Q891.371 47.0947 891.371 42.4072 Q891.371 36.9385 895.017 34.1607 Q898.692 31.3829 905.954 31.3829 L913.42 31.3829 L913.42 30.8621 Q913.42 27.1874 910.989 25.1908 Q908.587 23.1654 904.218 23.1654 Q901.44 23.1654 898.807 23.8309 Q896.174 24.4964 893.744 25.8274 L893.744 20.9085 Q896.666 19.78 899.415 19.2302 Q902.164 18.6515 904.768 18.6515 Q911.799 18.6515 915.271 22.2973 Q918.744 25.9431 918.744 33.3505 Z" fill="#000000" fill-rule="nonzero" fill-opacity="1" /><path clip-path="url(#clip310)" d="M934.976 10.2314 L934.976 19.4328 L945.943 19.4328 L945.943 23.5705 L934.976 23.5705 L934.976 41.163 Q934.976 45.1271 936.047 46.2555 Q937.146 47.384 940.474 47.384 L945.943 47.384 L945.943 51.84 L940.474 51.84 Q934.311 51.84 931.967 49.5541 Q929.623 47.2393 929.623 41.163 L929.623 23.5705 L925.717 23.5705 L925.717 19.4328 L929.623 19.4328 L929.623 10.2314 L934.976 10.2314 Z" fill="#000000" fill-rule="nonzero" fill-opacity="1" /><path clip-path="url(#clip310)" d="M952.945 19.4328 L958.269 19.4328 L958.269 51.84 L952.945 51.84 L952.945 19.4328 M952.945 6.81709 L958.269 6.81709 L958.269 13.559 L952.945 13.559 L952.945 6.81709 Z" fill="#000000" fill-rule="nonzero" fill-opacity="1" /><path clip-path="url(#clip310)" d="M981.967 23.1654 Q977.684 23.1654 975.196 26.5218 Q972.707 29.8494 972.707 35.6653 Q972.707 41.4813 975.167 44.8377 Q977.655 48.1653 981.967 48.1653 Q986.22 48.1653 988.709 44.8088 Q991.197 41.4523 991.197 35.6653 Q991.197 29.9072 988.709 26.5508 Q986.22 23.1654 981.967 23.1654 M981.967 18.6515 Q988.911 18.6515 992.875 23.1654 Q996.839 27.6792 996.839 35.6653 Q996.839 43.6225 992.875 48.1653 Q988.911 52.6791 981.967 52.6791 Q974.993 52.6791 971.029 48.1653 Q967.094 43.6225 967.094 35.6653 Q967.094 27.6792 971.029 23.1654 Q974.993 18.6515 981.967 18.6515 Z" fill="#000000" fill-rule="nonzero" fill-opacity="1" /><path clip-path="url(#clip310)" d="M1032.6 32.2799 L1032.6 51.84 L1027.28 51.84 L1027.28 32.4535 Q1027.28 27.8529 1025.48 25.567 Q1023.69 23.2811 1020.1 23.2811 Q1015.79 23.2811 1013.3 26.03 Q1010.81 28.7788 1010.81 33.5241 L1010.81 51.84 L1005.46 51.84 L1005.46 19.4328 L1010.81 19.4328 L1010.81 24.4675 Q1012.72 21.545 1015.3 20.0983 Q1017.9 18.6515 1021.29 18.6515 Q1026.87 18.6515 1029.74 22.1237 Q1032.6 25.567 1032.6 32.2799 Z" fill="#000000" fill-rule="nonzero" fill-opacity="1" /><path clip-path="url(#clip310)" d="M1057.95 35.5496 Q1051.5 35.5496 1049.01 37.0253 Q1046.52 38.501 1046.52 42.06 Q1046.52 44.8956 1048.37 46.5738 Q1050.25 48.2231 1053.47 48.2231 Q1057.89 48.2231 1060.55 45.0981 Q1063.25 41.9442 1063.25 36.7359 L1063.25 35.5496 L1057.95 35.5496 M1068.57 33.3505 L1068.57 51.84 L1063.25 51.84 L1063.25 46.921 Q1061.42 49.8724 1058.7 51.2902 Q1055.98 52.6791 1052.05 52.6791 Q1047.07 52.6791 1044.12 49.9014 Q1041.2 47.0947 1041.2 42.4072 Q1041.2 36.9385 1044.84 34.1607 Q1048.52 31.3829 1055.78 31.3829 L1063.25 31.3829 L1063.25 30.8621 Q1063.25 27.1874 1060.81 25.1908 Q1058.41 23.1654 1054.04 23.1654 Q1051.27 23.1654 1048.63 23.8309 Q1046 24.4964 1043.57 25.8274 L1043.57 20.9085 Q1046.49 19.78 1049.24 19.2302 Q1051.99 18.6515 1054.59 18.6515 Q1061.62 18.6515 1065.1 22.2973 Q1068.57 25.9431 1068.57 33.3505 Z" fill="#000000" fill-rule="nonzero" fill-opacity="1" /><path clip-path="url(#clip310)" d="M1098.31 24.4096 Q1097.42 23.8888 1096.35 23.6573 Q1095.31 23.3969 1094.03 23.3969 Q1089.52 23.3969 1087.09 26.3482 Q1084.69 29.2707 1084.69 34.7683 L1084.69 51.84 L1079.33 51.84 L1079.33 19.4328 L1084.69 19.4328 L1084.69 24.4675 Q1086.36 21.5161 1089.06 20.0983 Q1091.75 18.6515 1095.59 18.6515 Q1096.14 18.6515 1096.81 18.7383 Q1097.48 18.7962 1098.29 18.9409 L1098.31 24.4096 Z" fill="#000000" fill-rule="nonzero" fill-opacity="1" /><path clip-path="url(#clip310)" d="M1117.38 54.8492 Q1115.13 60.6362 1112.98 62.4013 Q1110.84 64.1663 1107.26 64.1663 L1103 64.1663 L1103 59.7103 L1106.13 59.7103 Q1108.33 59.7103 1109.54 58.6687 Q1110.76 57.627 1112.23 53.7497 L1113.19 51.3192 L1100.08 19.4328 L1105.72 19.4328 L1115.85 44.7799 L1125.98 19.4328 L1131.62 19.4328 L1117.38 54.8492 Z" fill="#000000" fill-rule="nonzero" fill-opacity="1" /><path clip-path="url(#clip310)" d="M1163.88 13.4432 L1163.88 47.0368 L1170.94 47.0368 Q1179.88 47.0368 1184.02 42.9859 Q1188.19 38.935 1188.19 30.1966 Q1188.19 21.5161 1184.02 17.4941 Q1179.88 13.4432 1170.94 13.4432 L1163.88 13.4432 M1158.04 8.64 L1170.04 8.64 Q1182.6 8.64 1188.48 13.8772 Q1194.35 19.0855 1194.35 30.1966 Q1194.35 41.3655 1188.45 46.6028 Q1182.54 51.84 1170.04 51.84 L1158.04 51.84 L1158.04 8.64 Z" fill="#000000" fill-rule="nonzero" fill-opacity="1" /><path clip-path="url(#clip310)" d="M1203.44 19.4328 L1208.76 19.4328 L1208.76 51.84 L1203.44 51.84 L1203.44 19.4328 M1203.44 6.81709 L1208.76 6.81709 L1208.76 13.559 L1203.44 13.559 L1203.44 6.81709 Z" fill="#000000" fill-rule="nonzero" fill-opacity="1" /><path clip-path="url(#clip310)" d="M1240.56 20.3876 L1240.56 25.4223 Q1238.3 24.2649 1235.87 23.6862 Q1233.44 23.1075 1230.84 23.1075 Q1226.87 23.1075 1224.88 24.3228 Q1222.91 25.5381 1222.91 27.9686 Q1222.91 29.8204 1224.33 30.891 Q1225.74 31.9327 1230.03 32.8876 L1231.85 33.2926 Q1237.52 34.5079 1239.89 36.7359 Q1242.3 38.935 1242.3 42.8991 Q1242.3 47.4129 1238.71 50.046 Q1235.15 52.6791 1228.9 52.6791 Q1226.29 52.6791 1223.46 52.1583 Q1220.65 51.6664 1217.53 50.6537 L1217.53 45.156 Q1220.48 46.6896 1223.34 47.4708 Q1226.21 48.2231 1229.01 48.2231 Q1232.78 48.2231 1234.8 46.95 Q1236.83 45.6479 1236.83 43.3042 Q1236.83 41.134 1235.35 39.9766 Q1233.9 38.8192 1228.96 37.7486 L1227.1 37.3146 Q1222.16 36.273 1219.96 34.1318 Q1217.76 31.9616 1217.76 28.2001 Q1217.76 23.6283 1221 21.1399 Q1224.24 18.6515 1230.2 18.6515 Q1233.15 18.6515 1235.76 19.0855 Q1238.36 19.5196 1240.56 20.3876 Z" fill="#000000" fill-rule="nonzero" fill-opacity="1" /><path clip-path="url(#clip310)" d="M1256.04 10.2314 L1256.04 19.4328 L1267.01 19.4328 L1267.01 23.5705 L1256.04 23.5705 L1256.04 41.163 Q1256.04 45.1271 1257.11 46.2555 Q1258.21 47.384 1261.54 47.384 L1267.01 47.384 L1267.01 51.84 L1261.54 51.84 Q1255.37 51.84 1253.03 49.5541 Q1250.69 47.2393 1250.69 41.163 L1250.69 23.5705 L1246.78 23.5705 L1246.78 19.4328 L1250.69 19.4328 L1250.69 10.2314 L1256.04 10.2314 Z" fill="#000000" fill-rule="nonzero" fill-opacity="1" /><path clip-path="url(#clip310)" d="M1292.79 24.4096 Q1291.89 23.8888 1290.82 23.6573 Q1289.78 23.3969 1288.5 23.3969 Q1283.99 23.3969 1281.56 26.3482 Q1279.16 29.2707 1279.16 34.7683 L1279.16 51.84 L1273.81 51.84 L1273.81 19.4328 L1279.16 19.4328 L1279.16 24.4675 Q1280.84 21.5161 1283.53 20.0983 Q1286.22 18.6515 1290.07 18.6515 Q1290.62 18.6515 1291.28 18.7383 Q1291.95 18.7962 1292.76 18.9409 L1292.79 24.4096 Z" fill="#000000" fill-rule="nonzero" fill-opacity="1" /><path clip-path="url(#clip310)" d="M1298.37 19.4328 L1303.7 19.4328 L1303.7 51.84 L1298.37 51.84 L1298.37 19.4328 M1298.37 6.81709 L1303.7 6.81709 L1303.7 13.559 L1298.37 13.559 L1298.37 6.81709 Z" fill="#000000" fill-rule="nonzero" fill-opacity="1" /><path clip-path="url(#clip310)" d="M1338.1 35.6653 Q1338.1 29.7915 1335.67 26.464 Q1333.27 23.1075 1329.04 23.1075 Q1324.82 23.1075 1322.39 26.464 Q1319.99 29.7915 1319.99 35.6653 Q1319.99 41.5391 1322.39 44.8956 Q1324.82 48.2231 1329.04 48.2231 Q1333.27 48.2231 1335.67 44.8956 Q1338.1 41.5391 1338.1 35.6653 M1319.99 24.3517 Q1321.66 21.4582 1324.21 20.0693 Q1326.79 18.6515 1330.34 18.6515 Q1336.25 18.6515 1339.92 23.339 Q1343.63 28.0265 1343.63 35.6653 Q1343.63 43.3042 1339.92 47.9916 Q1336.25 52.6791 1330.34 52.6791 Q1326.79 52.6791 1324.21 51.2902 Q1321.66 49.8724 1319.99 46.9789 L1319.99 51.84 L1314.63 51.84 L1314.63 6.81709 L1319.99 6.81709 L1319.99 24.3517 Z" fill="#000000" fill-rule="nonzero" fill-opacity="1" /><path clip-path="url(#clip310)" d="M1351.9 39.0507 L1351.9 19.4328 L1357.23 19.4328 L1357.23 38.8482 Q1357.23 43.4488 1359.02 45.7636 Q1360.81 48.0495 1364.4 48.0495 Q1368.71 48.0495 1371.2 45.3007 Q1373.72 42.5519 1373.72 37.8065 L1373.72 19.4328 L1379.04 19.4328 L1379.04 51.84 L1373.72 51.84 L1373.72 46.8632 Q1371.78 49.8145 1369.2 51.2613 Q1366.66 52.6791 1363.27 52.6791 Q1357.69 52.6791 1354.79 49.2069 Q1351.9 45.7347 1351.9 39.0507 M1365.3 18.6515 L1365.3 18.6515 Z" fill="#000000" fill-rule="nonzero" fill-opacity="1" /><path clip-path="url(#clip310)" d="M1395.27 10.2314 L1395.27 19.4328 L1406.24 19.4328 L1406.24 23.5705 L1395.27 23.5705 L1395.27 41.163 Q1395.27 45.1271 1396.35 46.2555 Q1397.44 47.384 1400.77 47.384 L1406.24 47.384 L1406.24 51.84 L1400.77 51.84 Q1394.61 51.84 1392.27 49.5541 Q1389.92 47.2393 1389.92 41.163 L1389.92 23.5705 L1386.02 23.5705 L1386.02 19.4328 L1389.92 19.4328 L1389.92 10.2314 L1395.27 10.2314 Z" fill="#000000" fill-rule="nonzero" fill-opacity="1" /><path clip-path="url(#clip310)" d="M1413.24 19.4328 L1418.57 19.4328 L1418.57 51.84 L1413.24 51.84 L1413.24 19.4328 M1413.24 6.81709 L1418.57 6.81709 L1418.57 13.559 L1413.24 13.559 L1413.24 6.81709 Z" fill="#000000" fill-rule="nonzero" fill-opacity="1" /><path clip-path="url(#clip310)" d="M1442.27 23.1654 Q1437.98 23.1654 1435.49 26.5218 Q1433.01 29.8494 1433.01 35.6653 Q1433.01 41.4813 1435.47 44.8377 Q1437.95 48.1653 1442.27 48.1653 Q1446.52 48.1653 1449.01 44.8088 Q1451.5 41.4523 1451.5 35.6653 Q1451.5 29.9072 1449.01 26.5508 Q1446.52 23.1654 1442.27 23.1654 M1442.27 18.6515 Q1449.21 18.6515 1453.17 23.1654 Q1457.14 27.6792 1457.14 35.6653 Q1457.14 43.6225 1453.17 48.1653 Q1449.21 52.6791 1442.27 52.6791 Q1435.29 52.6791 1431.33 48.1653 Q1427.39 43.6225 1427.39 35.6653 Q1427.39 27.6792 1431.33 23.1654 Q1435.29 18.6515 1442.27 18.6515 Z" fill="#000000" fill-rule="nonzero" fill-opacity="1" /><path clip-path="url(#clip310)" d="M1492.9 32.2799 L1492.9 51.84 L1487.58 51.84 L1487.58 32.4535 Q1487.58 27.8529 1485.78 25.567 Q1483.99 23.2811 1480.4 23.2811 Q1476.09 23.2811 1473.6 26.03 Q1471.11 28.7788 1471.11 33.5241 L1471.11 51.84 L1465.76 51.84 L1465.76 19.4328 L1471.11 19.4328 L1471.11 24.4675 Q1473.02 21.545 1475.6 20.0983 Q1478.2 18.6515 1481.59 18.6515 Q1487.17 18.6515 1490.04 22.1237 Q1492.9 25.567 1492.9 32.2799 Z" fill="#000000" fill-rule="nonzero" fill-opacity="1" /><path clip-path="url(#clip310)" d="M1518.91 19.4328 L1549.96 19.4328 L1549.96 24.7568 L1545.88 24.7568 L1545.88 44.6641 Q1545.88 46.7474 1546.58 47.6734 Q1547.3 48.5703 1548.89 48.5703 Q1549.32 48.5703 1549.96 48.5125 Q1550.6 48.4257 1550.8 48.3967 L1550.8 52.2451 Q1549.79 52.6212 1548.72 52.7949 Q1547.65 52.9685 1546.58 52.9685 Q1543.1 52.9685 1541.77 51.0877 Q1540.44 49.178 1540.44 44.0854 L1540.44 24.7568 L1528.49 24.7568 L1528.49 51.84 L1523.05 51.84 L1523.05 24.7568 L1518.91 24.7568 L1518.91 19.4328 Z" fill="#000000" fill-rule="nonzero" fill-opacity="1" /><path clip-path="url(#clip310)" d="M1574.18 33.5241 L1627.65 33.5241 L1627.65 37.6908 L1574.18 37.6908 L1574.18 33.5241 Z" fill="#000000" fill-rule="nonzero" fill-opacity="1" /><path clip-path="url(#clip310)" d="M1655.2 8.64 L1661.04 8.64 L1661.04 26.898 L1680.43 8.64 L1687.95 8.64 L1666.51 28.7788 L1689.49 51.84 L1681.79 51.84 L1661.04 31.0357 L1661.04 51.84 L1655.2 51.84 L1655.2 8.64 Z" fill="#000000" fill-rule="nonzero" fill-opacity="1" /><path clip-path="url(#clip310)" d="M1694.52 24.9304 L1731.62 24.9304 L1731.62 29.7915 L1694.52 29.7915 L1694.52 24.9304 M1694.52 36.7359 L1731.62 36.7359 L1731.62 41.6549 L1694.52 41.6549 L1694.52 36.7359 Z" fill="#000000" fill-rule="nonzero" fill-opacity="1" /><path clip-path="url(#clip310)" d="M1744.4 50.943 L1744.4 45.619 Q1746.6 46.6606 1748.86 47.2104 Q1751.12 47.7602 1753.29 47.7602 Q1759.07 47.7602 1762.11 43.8829 Q1765.18 39.9766 1765.61 32.0484 Q1763.94 34.5369 1761.36 35.8679 Q1758.79 37.1989 1755.66 37.1989 Q1749.18 37.1989 1745.39 33.2926 Q1741.63 29.3575 1741.63 22.5577 Q1741.63 15.9027 1745.56 11.8807 Q1749.5 7.85875 1756.04 7.85875 Q1763.53 7.85875 1767.47 13.6168 Q1771.43 19.346 1771.43 30.2834 Q1771.43 40.4975 1766.57 46.6028 Q1761.74 52.6791 1753.55 52.6791 Q1751.35 52.6791 1749.09 52.2451 Q1746.84 51.8111 1744.4 50.943 M1756.04 32.6271 Q1759.97 32.6271 1762.26 29.9362 Q1764.57 27.2452 1764.57 22.5577 Q1764.57 17.8992 1762.26 15.2083 Q1759.97 12.4884 1756.04 12.4884 Q1752.1 12.4884 1749.79 15.2083 Q1747.5 17.8992 1747.5 22.5577 Q1747.5 27.2452 1749.79 29.9362 Q1752.1 32.6271 1756.04 32.6271 Z" fill="#000000" fill-rule="nonzero" fill-opacity="1" /><path clip-path="url(#clip312)" d="M365.223 185.894 L365.223 1423.18 L535.391 1423.18 L535.391 185.894 L365.223 185.894 L365.223 185.894  Z" fill="#4682b4" fill-rule="evenodd" fill-opacity="0.7"/>
<polyline clip-path="url(#clip312)" style="stroke:#000000; stroke-linecap:round; stroke-linejoin:round; stroke-width:4; stroke-opacity:0.7; fill:none" points="365.223,185.894 365.223,1423.18 535.391,1423.18 535.391,185.894 365.223,185.894 "/>
<path clip-path="url(#clip312)" d="M577.933 677.5 L577.933 1423.18 L748.102 1423.18 L748.102 677.5 L577.933 677.5 L577.933 677.5  Z" fill="#4682b4" fill-rule="evenodd" fill-opacity="0.7"/>
<polyline clip-path="url(#clip312)" style="stroke:#000000; stroke-linecap:round; stroke-linejoin:round; stroke-width:4; stroke-opacity:0.7; fill:none" points="577.933,677.5 577.933,1423.18 748.102,1423.18 748.102,677.5 577.933,677.5 "/>
<path clip-path="url(#clip312)" d="M790.644 703.845 L790.644 1423.18 L960.812 1423.18 L960.812 703.845 L790.644 703.845 L790.644 703.845  Z" fill="#4682b4" fill-rule="evenodd" fill-opacity="0.7"/>
<polyline clip-path="url(#clip312)" style="stroke:#000000; stroke-linecap:round; stroke-linejoin:round; stroke-width:4; stroke-opacity:0.7; fill:none" points="790.644,703.845 790.644,1423.18 960.812,1423.18 960.812,703.845 790.644,703.845 "/>
<path clip-path="url(#clip312)" d="M1003.35 862.864 L1003.35 1423.18 L1173.52 1423.18 L1173.52 862.864 L1003.35 862.864 L1003.35 862.864  Z" fill="#4682b4" fill-rule="evenodd" fill-opacity="0.7"/>
<polyline clip-path="url(#clip312)" style="stroke:#000000; stroke-linecap:round; stroke-linejoin:round; stroke-width:4; stroke-opacity:0.7; fill:none" points="1003.35,862.864 1003.35,1423.18 1173.52,1423.18 1173.52,862.864 1003.35,862.864 "/>
<path clip-path="url(#clip312)" d="M1216.06 883.491 L1216.06 1423.18 L1386.23 1423.18 L1386.23 883.491 L1216.06 883.491 L1216.06 883.491  Z" fill="#4682b4" fill-rule="evenodd" fill-opacity="0.7"/>
<polyline clip-path="url(#clip312)" style="stroke:#000000; stroke-linecap:round; stroke-linejoin:round; stroke-width:4; stroke-opacity:0.7; fill:none" points="1216.06,883.491 1216.06,1423.18 1386.23,1423.18 1386.23,883.491 1216.06,883.491 "/>
<path clip-path="url(#clip312)" d="M1428.78 910.807 L1428.78 1423.18 L1598.94 1423.18 L1598.94 910.807 L1428.78 910.807 L1428.78 910.807  Z" fill="#4682b4" fill-rule="evenodd" fill-opacity="0.7"/>
<polyline clip-path="url(#clip312)" style="stroke:#000000; stroke-linecap:round; stroke-linejoin:round; stroke-width:4; stroke-opacity:0.7; fill:none" points="1428.78,910.807 1428.78,1423.18 1598.94,1423.18 1598.94,910.807 1428.78,910.807 "/>
<path clip-path="url(#clip312)" d="M1641.49 710.684 L1641.49 1423.18 L1811.65 1423.18 L1811.65 710.684 L1641.49 710.684 L1641.49 710.684  Z" fill="#4682b4" fill-rule="evenodd" fill-opacity="0.7"/>
<polyline clip-path="url(#clip312)" style="stroke:#000000; stroke-linecap:round; stroke-linejoin:round; stroke-width:4; stroke-opacity:0.7; fill:none" points="1641.49,710.684 1641.49,1423.18 1811.65,1423.18 1811.65,710.684 1641.49,710.684 "/>
<path clip-path="url(#clip312)" d="M1854.2 985.617 L1854.2 1423.18 L2024.36 1423.18 L2024.36 985.617 L1854.2 985.617 L1854.2 985.617  Z" fill="#4682b4" fill-rule="evenodd" fill-opacity="0.7"/>
<polyline clip-path="url(#clip312)" style="stroke:#000000; stroke-linecap:round; stroke-linejoin:round; stroke-width:4; stroke-opacity:0.7; fill:none" points="1854.2,985.617 1854.2,1423.18 2024.36,1423.18 2024.36,985.617 1854.2,985.617 "/>
<path clip-path="url(#clip312)" d="M2066.91 106.192 L2066.91 1423.18 L2237.08 1423.18 L2237.08 106.192 L2066.91 106.192 L2066.91 106.192  Z" fill="#4682b4" fill-rule="evenodd" fill-opacity="0.7"/>
<polyline clip-path="url(#clip312)" style="stroke:#000000; stroke-linecap:round; stroke-linejoin:round; stroke-width:4; stroke-opacity:0.7; fill:none" points="2066.91,106.192 2066.91,1423.18 2237.08,1423.18 2237.08,106.192 2066.91,106.192 "/>
<circle clip-path="url(#clip312)" style="fill:#4682b4; stroke:none; fill-opacity:0" cx="450.307" cy="185.894" r="2"/>
<circle clip-path="url(#clip312)" style="fill:#4682b4; stroke:none; fill-opacity:0" cx="663.017" cy="677.5" r="2"/>
<circle clip-path="url(#clip312)" style="fill:#4682b4; stroke:none; fill-opacity:0" cx="875.728" cy="703.845" r="2"/>
<circle clip-path="url(#clip312)" style="fill:#4682b4; stroke:none; fill-opacity:0" cx="1088.44" cy="862.864" r="2"/>
<circle clip-path="url(#clip312)" style="fill:#4682b4; stroke:none; fill-opacity:0" cx="1301.15" cy="883.491" r="2"/>
<circle clip-path="url(#clip312)" style="fill:#4682b4; stroke:none; fill-opacity:0" cx="1513.86" cy="910.807" r="2"/>
<circle clip-path="url(#clip312)" style="fill:#4682b4; stroke:none; fill-opacity:0" cx="1726.57" cy="710.684" r="2"/>
<circle clip-path="url(#clip312)" style="fill:#4682b4; stroke:none; fill-opacity:0" cx="1939.28" cy="985.617" r="2"/>
<circle clip-path="url(#clip312)" style="fill:#4682b4; stroke:none; fill-opacity:0" cx="2151.99" cy="106.192" r="2"/>
</svg>
