<?xml version="1.0" encoding="utf-8"?>
<svg xmlns="http://www.w3.org/2000/svg" xmlns:xlink="http://www.w3.org/1999/xlink" width="600" height="400" viewBox="0 0 2400 1600">
<defs>
  <clipPath id="clip370">
    <rect x="0" y="0" width="2400" height="1600"/>
  </clipPath>
</defs>
<path clip-path="url(#clip370)" d="M0 1600 L2400 1600 L2400 8.88178e-14 L0 8.88178e-14  Z" fill="#ffffff" fill-rule="evenodd" fill-opacity="1"/>
<defs>
  <clipPath id="clip371">
    <rect x="314" y="0" width="1799" height="1500"/>
  </clipPath>
</defs>
<path clip-path="url(#clip370)" d="M219.38 1423.18 L2352.76 1423.18 L2352.76 101.872 L219.38 101.872  Z" fill="#ffffff" fill-rule="evenodd" fill-opacity="1"/>
<defs>
  <clipPath id="clip372">
    <rect x="219" y="101" width="2134" height="1322"/>
  </clipPath>
</defs>
<polyline clip-path="url(#clip372)" style="stroke:#000000; stroke-linecap:round; stroke-linejoin:round; stroke-width:2; stroke-opacity:0.1; fill:none" points="271.74,1423.18 271.74,101.872 "/>
<polyline clip-path="url(#clip372)" style="stroke:#000000; stroke-linecap:round; stroke-linejoin:round; stroke-width:2; stroke-opacity:0.1; fill:none" points="672.66,1423.18 672.66,101.872 "/>
<polyline clip-path="url(#clip372)" style="stroke:#000000; stroke-linecap:round; stroke-linejoin:round; stroke-width:2; stroke-opacity:0.1; fill:none" points="1073.58,1423.18 1073.58,101.872 "/>
<polyline clip-path="url(#clip372)" style="stroke:#000000; stroke-linecap:round; stroke-linejoin:round; stroke-width:2; stroke-opacity:0.1; fill:none" points="1474.5,1423.18 1474.5,101.872 "/>
<polyline clip-path="url(#clip372)" style="stroke:#000000; stroke-linecap:round; stroke-linejoin:round; stroke-width:2; stroke-opacity:0.1; fill:none" points="1875.42,1423.18 1875.42,101.872 "/>
<polyline clip-path="url(#clip372)" style="stroke:#000000; stroke-linecap:round; stroke-linejoin:round; stroke-width:2; stroke-opacity:0.1; fill:none" points="2276.34,1423.18 2276.34,101.872 "/>
<polyline clip-path="url(#clip372)" style="stroke:#000000; stroke-linecap:round; stroke-linejoin:round; stroke-width:2; stroke-opacity:0.1; fill:none" points="219.38,1225.42 2352.76,1225.42 "/>
<polyline clip-path="url(#clip372)" style="stroke:#000000; stroke-linecap:round; stroke-linejoin:round; stroke-width:2; stroke-opacity:0.1; fill:none" points="219.38,896.915 2352.76,896.915 "/>
<polyline clip-path="url(#clip372)" style="stroke:#000000; stroke-linecap:round; stroke-linejoin:round; stroke-width:2; stroke-opacity:0.1; fill:none" points="219.38,568.41 2352.76,568.41 "/>
<polyline clip-path="url(#clip372)" style="stroke:#000000; stroke-linecap:round; stroke-linejoin:round; stroke-width:2; stroke-opacity:0.1; fill:none" points="219.38,239.905 2352.76,239.905 "/>
<polyline clip-path="url(#clip370)" style="stroke:#000000; stroke-linecap:round; stroke-linejoin:round; stroke-width:4; stroke-opacity:1; fill:none" points="219.38,1423.18 2352.76,1423.18 "/>
<polyline clip-path="url(#clip370)" style="stroke:#000000; stroke-linecap:round; stroke-linejoin:round; stroke-width:4; stroke-opacity:1; fill:none" points="271.74,1423.18 271.74,1404.28 "/>
<polyline clip-path="url(#clip370)" style="stroke:#000000; stroke-linecap:round; stroke-linejoin:round; stroke-width:4; stroke-opacity:1; fill:none" points="672.66,1423.18 672.66,1404.28 "/>
<polyline clip-path="url(#clip370)" style="stroke:#000000; stroke-linecap:round; stroke-linejoin:round; stroke-width:4; stroke-opacity:1; fill:none" points="1073.58,1423.18 1073.58,1404.28 "/>
<polyline clip-path="url(#clip370)" style="stroke:#000000; stroke-linecap:round; stroke-linejoin:round; stroke-width:4; stroke-opacity:1; fill:none" points="1474.5,1423.18 1474.5,1404.28 "/>
<polyline clip-path="url(#clip370)" style="stroke:#000000; stroke-linecap:round; stroke-linejoin:round; stroke-width:4; stroke-opacity:1; fill:none" points="1875.42,1423.18 1875.42,1404.28 "/>
<polyline clip-path="url(#clip370)" style="stroke:#000000; stroke-linecap:round; stroke-linejoin:round; stroke-width:4; stroke-opacity:1; fill:none" points="2276.34,1423.18 2276.34,1404.28 "/>
<path clip-path="url(#clip370)" d="M271.74 1454.1 Q268.129 1454.1 266.301 1457.66 Q264.495 1461.2 264.495 1468.33 Q264.495 1475.44 266.301 1479.01 Q268.129 1482.55 271.74 1482.55 Q275.375 1482.55 277.18 1479.01 Q279.009 1475.44 279.009 1468.33 Q279.009 1461.2 277.18 1457.66 Q275.375 1454.1 271.74 1454.1 M271.74 1450.39 Q277.55 1450.39 280.606 1455 Q283.685 1459.58 283.685 1468.33 Q283.685 1477.06 280.606 1481.67 Q277.55 1486.25 271.74 1486.25 Q265.93 1486.25 262.851 1481.67 Q259.796 1477.06 259.796 1468.33 Q259.796 1459.58 262.851 1455 Q265.93 1450.39 271.74 1450.39 Z" fill="#000000" fill-rule="nonzero" fill-opacity="1" /><path clip-path="url(#clip370)" d="M647.36 1451.02 L665.716 1451.02 L665.716 1454.96 L651.642 1454.96 L651.642 1463.43 Q652.66 1463.08 653.679 1462.92 Q654.697 1462.73 655.716 1462.73 Q661.503 1462.73 664.883 1465.9 Q668.262 1469.08 668.262 1474.49 Q668.262 1480.07 664.79 1483.17 Q661.318 1486.25 654.998 1486.25 Q652.823 1486.25 650.554 1485.88 Q648.309 1485.51 645.901 1484.77 L645.901 1480.07 Q647.985 1481.2 650.207 1481.76 Q652.429 1482.32 654.906 1482.32 Q658.91 1482.32 661.248 1480.21 Q663.586 1478.1 663.586 1474.49 Q663.586 1470.88 661.248 1468.77 Q658.91 1466.67 654.906 1466.67 Q653.031 1466.67 651.156 1467.08 Q649.304 1467.5 647.36 1468.38 L647.36 1451.02 Z" fill="#000000" fill-rule="nonzero" fill-opacity="1" /><path clip-path="url(#clip370)" d="M687.475 1454.1 Q683.864 1454.1 682.035 1457.66 Q680.23 1461.2 680.23 1468.33 Q680.23 1475.44 682.035 1479.01 Q683.864 1482.55 687.475 1482.55 Q691.109 1482.55 692.915 1479.01 Q694.744 1475.44 694.744 1468.33 Q694.744 1461.2 692.915 1457.66 Q691.109 1454.1 687.475 1454.1 M687.475 1450.39 Q693.285 1450.39 696.341 1455 Q699.419 1459.58 699.419 1468.33 Q699.419 1477.06 696.341 1481.67 Q693.285 1486.25 687.475 1486.25 Q681.665 1486.25 678.586 1481.67 Q675.531 1477.06 675.531 1468.33 Q675.531 1459.58 678.586 1455 Q681.665 1450.39 687.475 1450.39 Z" fill="#000000" fill-rule="nonzero" fill-opacity="1" /><path clip-path="url(#clip370)" d="M1033.19 1481.64 L1040.83 1481.64 L1040.83 1455.28 L1032.52 1456.95 L1032.52 1452.69 L1040.78 1451.02 L1045.46 1451.02 L1045.46 1481.64 L1053.09 1481.64 L1053.09 1485.58 L1033.19 1485.58 L1033.19 1481.64 Z" fill="#000000" fill-rule="nonzero" fill-opacity="1" /><path clip-path="url(#clip370)" d="M1072.54 1454.1 Q1068.93 1454.1 1067.1 1457.66 Q1065.29 1461.2 1065.29 1468.33 Q1065.29 1475.44 1067.1 1479.01 Q1068.93 1482.55 1072.54 1482.55 Q1076.17 1482.55 1077.98 1479.01 Q1079.81 1475.44 1079.81 1468.33 Q1079.81 1461.2 1077.98 1457.66 Q1076.17 1454.1 1072.54 1454.1 M1072.54 1450.39 Q1078.35 1450.39 1081.4 1455 Q1084.48 1459.58 1084.48 1468.33 Q1084.48 1477.06 1081.4 1481.67 Q1078.35 1486.25 1072.54 1486.25 Q1066.73 1486.25 1063.65 1481.67 Q1060.59 1477.06 1060.59 1468.33 Q1060.59 1459.58 1063.65 1455 Q1066.73 1450.39 1072.54 1450.39 Z" fill="#000000" fill-rule="nonzero" fill-opacity="1" /><path clip-path="url(#clip370)" d="M1102.7 1454.1 Q1099.09 1454.1 1097.26 1457.66 Q1095.46 1461.2 1095.46 1468.33 Q1095.46 1475.44 1097.26 1479.01 Q1099.09 1482.55 1102.7 1482.55 Q1106.33 1482.55 1108.14 1479.01 Q1109.97 1475.44 1109.97 1468.33 Q1109.97 1461.2 1108.14 1457.66 Q1106.33 1454.1 1102.7 1454.1 M1102.7 1450.39 Q1108.51 1450.39 1111.57 1455 Q1114.65 1459.58 1114.65 1468.33 Q1114.65 1477.06 1111.57 1481.67 Q1108.51 1486.25 1102.7 1486.25 Q1096.89 1486.25 1093.81 1481.67 Q1090.76 1477.06 1090.76 1468.33 Q1090.76 1459.58 1093.81 1455 Q1096.89 1450.39 1102.7 1450.39 Z" fill="#000000" fill-rule="nonzero" fill-opacity="1" /><path clip-path="url(#clip370)" d="M1434.11 1481.64 L1441.75 1481.64 L1441.75 1455.28 L1433.44 1456.95 L1433.44 1452.69 L1441.7 1451.02 L1446.38 1451.02 L1446.38 1481.64 L1454.01 1481.64 L1454.01 1485.58 L1434.11 1485.58 L1434.11 1481.64 Z" fill="#000000" fill-rule="nonzero" fill-opacity="1" /><path clip-path="url(#clip370)" d="M1463.51 1451.02 L1481.86 1451.02 L1481.86 1454.96 L1467.79 1454.96 L1467.79 1463.43 Q1468.81 1463.08 1469.82 1462.92 Q1470.84 1462.73 1471.86 1462.73 Q1477.65 1462.73 1481.03 1465.9 Q1484.41 1469.08 1484.41 1474.49 Q1484.41 1480.07 1480.94 1483.17 Q1477.46 1486.25 1471.14 1486.25 Q1468.97 1486.25 1466.7 1485.88 Q1464.45 1485.51 1462.05 1484.77 L1462.05 1480.07 Q1464.13 1481.2 1466.35 1481.76 Q1468.57 1482.32 1471.05 1482.32 Q1475.06 1482.32 1477.39 1480.21 Q1479.73 1478.1 1479.73 1474.49 Q1479.73 1470.88 1477.39 1468.77 Q1475.06 1466.67 1471.05 1466.67 Q1469.18 1466.67 1467.3 1467.08 Q1465.45 1467.5 1463.51 1468.38 L1463.51 1451.02 Z" fill="#000000" fill-rule="nonzero" fill-opacity="1" /><path clip-path="url(#clip370)" d="M1503.62 1454.1 Q1500.01 1454.1 1498.18 1457.66 Q1496.38 1461.2 1496.38 1468.33 Q1496.38 1475.44 1498.18 1479.01 Q1500.01 1482.55 1503.62 1482.55 Q1507.25 1482.55 1509.06 1479.01 Q1510.89 1475.44 1510.89 1468.33 Q1510.89 1461.2 1509.06 1457.66 Q1507.25 1454.1 1503.62 1454.1 M1503.62 1450.39 Q1509.43 1450.39 1512.49 1455 Q1515.57 1459.58 1515.57 1468.33 Q1515.57 1477.06 1512.49 1481.67 Q1509.43 1486.25 1503.62 1486.25 Q1497.81 1486.25 1494.73 1481.67 Q1491.68 1477.06 1491.68 1468.33 Q1491.68 1459.58 1494.73 1455 Q1497.81 1450.39 1503.62 1450.39 Z" fill="#000000" fill-rule="nonzero" fill-opacity="1" /><path clip-path="url(#clip370)" d="M1839.11 1481.64 L1855.43 1481.64 L1855.43 1485.58 L1833.49 1485.58 L1833.49 1481.64 Q1836.15 1478.89 1840.73 1474.26 Q1845.34 1469.61 1846.52 1468.27 Q1848.77 1465.74 1849.65 1464.01 Q1850.55 1462.25 1850.55 1460.56 Q1850.55 1457.8 1848.6 1456.07 Q1846.68 1454.33 1843.58 1454.33 Q1841.38 1454.33 1838.93 1455.09 Q1836.5 1455.86 1833.72 1457.41 L1833.72 1452.69 Q1836.54 1451.55 1839 1450.97 Q1841.45 1450.39 1843.49 1450.39 Q1848.86 1450.39 1852.05 1453.08 Q1855.25 1455.77 1855.25 1460.26 Q1855.25 1462.39 1854.44 1464.31 Q1853.65 1466.2 1851.54 1468.8 Q1850.96 1469.47 1847.86 1472.69 Q1844.76 1475.88 1839.11 1481.64 Z" fill="#000000" fill-rule="nonzero" fill-opacity="1" /><path clip-path="url(#clip370)" d="M1875.25 1454.1 Q1871.64 1454.1 1869.81 1457.66 Q1868 1461.2 1868 1468.33 Q1868 1475.44 1869.81 1479.01 Q1871.64 1482.55 1875.25 1482.55 Q1878.88 1482.55 1880.69 1479.01 Q1882.52 1475.44 1882.52 1468.33 Q1882.52 1461.2 1880.69 1457.66 Q1878.88 1454.1 1875.25 1454.1 M1875.25 1450.39 Q1881.06 1450.39 1884.11 1455 Q1887.19 1459.58 1887.19 1468.33 Q1887.19 1477.06 1884.11 1481.67 Q1881.06 1486.25 1875.25 1486.25 Q1869.44 1486.25 1866.36 1481.67 Q1863.3 1477.06 1863.3 1468.33 Q1863.3 1459.58 1866.36 1455 Q1869.44 1450.39 1875.25 1450.39 Z" fill="#000000" fill-rule="nonzero" fill-opacity="1" /><path clip-path="url(#clip370)" d="M1905.41 1454.1 Q1901.8 1454.1 1899.97 1457.66 Q1898.16 1461.2 1898.16 1468.33 Q1898.16 1475.44 1899.97 1479.01 Q1901.8 1482.55 1905.41 1482.55 Q1909.04 1482.55 1910.85 1479.01 Q1912.68 1475.44 1912.68 1468.33 Q1912.68 1461.2 1910.85 1457.66 Q1909.04 1454.1 1905.41 1454.1 M1905.41 1450.39 Q1911.22 1450.39 1914.27 1455 Q1917.35 1459.58 1917.35 1468.33 Q1917.35 1477.06 1914.27 1481.67 Q1911.22 1486.25 1905.41 1486.25 Q1899.6 1486.25 1896.52 1481.67 Q1893.46 1477.06 1893.46 1468.33 Q1893.46 1459.58 1896.52 1455 Q1899.6 1450.39 1905.41 1450.39 Z" fill="#000000" fill-rule="nonzero" fill-opacity="1" /><path clip-path="url(#clip370)" d="M2240.03 1481.64 L2256.35 1481.64 L2256.35 1485.58 L2234.41 1485.58 L2234.41 1481.64 Q2237.07 1478.89 2241.65 1474.26 Q2246.26 1469.61 2247.44 1468.27 Q2249.69 1465.74 2250.57 1464.01 Q2251.47 1462.25 2251.47 1460.56 Q2251.47 1457.8 2249.52 1456.07 Q2247.6 1454.33 2244.5 1454.33 Q2242.3 1454.33 2239.85 1455.09 Q2237.42 1455.86 2234.64 1457.41 L2234.64 1452.69 Q2237.46 1451.55 2239.92 1450.97 Q2242.37 1450.39 2244.41 1450.39 Q2249.78 1450.39 2252.97 1453.08 Q2256.17 1455.77 2256.17 1460.26 Q2256.17 1462.39 2255.36 1464.31 Q2254.57 1466.2 2252.46 1468.8 Q2251.88 1469.47 2248.78 1472.69 Q2245.68 1475.88 2240.03 1481.64 Z" fill="#000000" fill-rule="nonzero" fill-opacity="1" /><path clip-path="url(#clip370)" d="M2266.21 1451.02 L2284.57 1451.02 L2284.57 1454.96 L2270.5 1454.96 L2270.5 1463.43 Q2271.51 1463.08 2272.53 1462.92 Q2273.55 1462.73 2274.57 1462.73 Q2280.36 1462.73 2283.74 1465.9 Q2287.12 1469.08 2287.12 1474.49 Q2287.12 1480.07 2283.64 1483.17 Q2280.17 1486.25 2273.85 1486.25 Q2271.68 1486.25 2269.41 1485.88 Q2267.16 1485.51 2264.75 1484.77 L2264.75 1480.07 Q2266.84 1481.2 2269.06 1481.76 Q2271.28 1482.32 2273.76 1482.32 Q2277.76 1482.32 2280.1 1480.21 Q2282.44 1478.1 2282.44 1474.49 Q2282.44 1470.88 2280.1 1468.77 Q2277.76 1466.67 2273.76 1466.67 Q2271.88 1466.67 2270.01 1467.08 Q2268.16 1467.5 2266.21 1468.38 L2266.21 1451.02 Z" fill="#000000" fill-rule="nonzero" fill-opacity="1" /><path clip-path="url(#clip370)" d="M2306.33 1454.1 Q2302.72 1454.1 2300.89 1457.66 Q2299.08 1461.2 2299.08 1468.33 Q2299.08 1475.44 2300.89 1479.01 Q2302.72 1482.55 2306.33 1482.55 Q2309.96 1482.55 2311.77 1479.01 Q2313.6 1475.44 2313.6 1468.33 Q2313.6 1461.2 2311.77 1457.66 Q2309.96 1454.1 2306.33 1454.1 M2306.33 1450.39 Q2312.14 1450.39 2315.19 1455 Q2318.27 1459.58 2318.27 1468.33 Q2318.27 1477.06 2315.19 1481.67 Q2312.14 1486.25 2306.33 1486.25 Q2300.52 1486.25 2297.44 1481.67 Q2294.38 1477.06 2294.38 1468.33 Q2294.38 1459.58 2297.44 1455 Q2300.52 1450.39 2306.33 1450.39 Z" fill="#000000" fill-rule="nonzero" fill-opacity="1" /><path clip-path="url(#clip370)" d="M1233.41 1520.52 L1239.84 1520.52 L1239.84 1562.63 L1262.98 1562.63 L1262.98 1568.04 L1233.41 1568.04 L1233.41 1520.52 Z" fill="#000000" fill-rule="nonzero" fill-opacity="1" /><path clip-path="url(#clip370)" d="M1285.67 1550.12 Q1278.57 1550.12 1275.84 1551.75 Q1273.1 1553.37 1273.1 1557.29 Q1273.1 1560.4 1275.13 1562.25 Q1277.2 1564.07 1280.74 1564.07 Q1285.61 1564.07 1288.53 1560.63 Q1291.49 1557.16 1291.49 1551.43 L1291.49 1550.12 L1285.67 1550.12 M1297.35 1547.71 L1297.35 1568.04 L1291.49 1568.04 L1291.49 1562.63 Q1289.49 1565.88 1286.5 1567.44 Q1283.51 1568.97 1279.18 1568.97 Q1273.7 1568.97 1270.46 1565.91 Q1267.24 1562.82 1267.24 1557.67 Q1267.24 1551.65 1271.25 1548.6 Q1275.29 1545.54 1283.28 1545.54 L1291.49 1545.54 L1291.49 1544.97 Q1291.49 1540.93 1288.82 1538.73 Q1286.18 1536.5 1281.37 1536.5 Q1278.32 1536.5 1275.42 1537.23 Q1272.52 1537.97 1269.85 1539.43 L1269.85 1534.02 Q1273.07 1532.78 1276.09 1532.17 Q1279.11 1531.54 1281.98 1531.54 Q1289.71 1531.54 1293.53 1535.55 Q1297.35 1539.56 1297.35 1547.71 Z" fill="#000000" fill-rule="nonzero" fill-opacity="1" /><path clip-path="url(#clip370)" d="M1332.87 1549.81 Q1332.87 1543.44 1330.23 1539.94 Q1327.62 1536.44 1322.88 1536.44 Q1318.17 1536.44 1315.53 1539.94 Q1312.92 1543.44 1312.92 1549.81 Q1312.92 1556.14 1315.53 1559.64 Q1318.17 1563.14 1322.88 1563.14 Q1327.62 1563.14 1330.23 1559.64 Q1332.87 1556.14 1332.87 1549.81 M1338.73 1563.62 Q1338.73 1572.72 1334.69 1577.15 Q1330.64 1581.6 1322.3 1581.6 Q1319.22 1581.6 1316.48 1581.13 Q1313.74 1580.68 1311.16 1579.72 L1311.16 1574.03 Q1313.74 1575.43 1316.26 1576.1 Q1318.77 1576.76 1321.38 1576.76 Q1327.14 1576.76 1330.01 1573.74 Q1332.87 1570.75 1332.87 1564.67 L1332.87 1561.77 Q1331.06 1564.92 1328.22 1566.48 Q1325.39 1568.04 1321.45 1568.04 Q1314.89 1568.04 1310.88 1563.05 Q1306.87 1558.05 1306.87 1549.81 Q1306.87 1541.53 1310.88 1536.53 Q1314.89 1531.54 1321.45 1531.54 Q1325.39 1531.54 1328.22 1533.1 Q1331.06 1534.66 1332.87 1537.81 L1332.87 1532.4 L1338.73 1532.4 L1338.73 1563.62 Z" fill="#000000" fill-rule="nonzero" fill-opacity="1" /><polyline clip-path="url(#clip370)" style="stroke:#000000; stroke-linecap:round; stroke-linejoin:round; stroke-width:4; stroke-opacity:1; fill:none" points="219.38,1423.18 219.38,101.872 "/>
<polyline clip-path="url(#clip370)" style="stroke:#000000; stroke-linecap:round; stroke-linejoin:round; stroke-width:4; stroke-opacity:1; fill:none" points="219.38,1225.42 238.278,1225.42 "/>
<polyline clip-path="url(#clip370)" style="stroke:#000000; stroke-linecap:round; stroke-linejoin:round; stroke-width:4; stroke-opacity:1; fill:none" points="219.38,896.915 238.278,896.915 "/>
<polyline clip-path="url(#clip370)" style="stroke:#000000; stroke-linecap:round; stroke-linejoin:round; stroke-width:4; stroke-opacity:1; fill:none" points="219.38,568.41 238.278,568.41 "/>
<polyline clip-path="url(#clip370)" style="stroke:#000000; stroke-linecap:round; stroke-linejoin:round; stroke-width:4; stroke-opacity:1; fill:none" points="219.38,239.905 238.278,239.905 "/>
<path clip-path="url(#clip370)" d="M126.205 1211.22 Q122.593 1211.22 120.765 1214.78 Q118.959 1218.32 118.959 1225.45 Q118.959 1232.56 120.765 1236.13 Q122.593 1239.67 126.205 1239.67 Q129.839 1239.67 131.644 1236.13 Q133.473 1232.56 133.473 1225.45 Q133.473 1218.32 131.644 1214.78 Q129.839 1211.22 126.205 1211.22 M126.205 1207.51 Q132.015 1207.51 135.07 1212.12 Q138.149 1216.7 138.149 1225.45 Q138.149 1234.18 135.07 1238.79 Q132.015 1243.37 126.205 1243.37 Q120.394 1243.37 117.316 1238.79 Q114.26 1234.18 114.26 1225.45 Q114.26 1216.7 117.316 1212.12 Q120.394 1207.51 126.205 1207.51 Z" fill="#000000" fill-rule="nonzero" fill-opacity="1" /><path clip-path="url(#clip370)" d="M146.366 1236.82 L151.251 1236.82 L151.251 1242.7 L146.366 1242.7 L146.366 1236.82 Z" fill="#000000" fill-rule="nonzero" fill-opacity="1" /><path clip-path="url(#clip370)" d="M171.436 1211.22 Q167.825 1211.22 165.996 1214.78 Q164.19 1218.32 164.19 1225.45 Q164.19 1232.56 165.996 1236.13 Q167.825 1239.67 171.436 1239.67 Q175.07 1239.67 176.876 1236.13 Q178.704 1232.56 178.704 1225.45 Q178.704 1218.32 176.876 1214.78 Q175.07 1211.22 171.436 1211.22 M171.436 1207.51 Q177.246 1207.51 180.301 1212.12 Q183.38 1216.7 183.38 1225.45 Q183.38 1234.18 180.301 1238.79 Q177.246 1243.37 171.436 1243.37 Q165.626 1243.37 162.547 1238.79 Q159.491 1234.18 159.491 1225.45 Q159.491 1216.7 162.547 1212.12 Q165.626 1207.51 171.436 1207.51 Z" fill="#000000" fill-rule="nonzero" fill-opacity="1" /><path clip-path="url(#clip370)" d="M127.431 882.713 Q123.82 882.713 121.992 886.278 Q120.186 889.82 120.186 896.949 Q120.186 904.056 121.992 907.621 Q123.82 911.162 127.431 911.162 Q131.066 911.162 132.871 907.621 Q134.7 904.056 134.7 896.949 Q134.7 889.82 132.871 886.278 Q131.066 882.713 127.431 882.713 M127.431 879.01 Q133.242 879.01 136.297 883.616 Q139.376 888.2 139.376 896.949 Q139.376 905.676 136.297 910.283 Q133.242 914.866 127.431 914.866 Q121.621 914.866 118.543 910.283 Q115.487 905.676 115.487 896.949 Q115.487 888.2 118.543 883.616 Q121.621 879.01 127.431 879.01 Z" fill="#000000" fill-rule="nonzero" fill-opacity="1" /><path clip-path="url(#clip370)" d="M147.593 908.315 L152.478 908.315 L152.478 914.195 L147.593 914.195 L147.593 908.315 Z" fill="#000000" fill-rule="nonzero" fill-opacity="1" /><path clip-path="url(#clip370)" d="M163.473 910.26 L171.112 910.26 L171.112 883.894 L162.802 885.561 L162.802 881.301 L171.065 879.635 L175.741 879.635 L175.741 910.26 L183.38 910.26 L183.38 914.195 L163.473 914.195 L163.473 910.26 Z" fill="#000000" fill-rule="nonzero" fill-opacity="1" /><path clip-path="url(#clip370)" d="M127.802 554.208 Q124.191 554.208 122.362 557.773 Q120.556 561.315 120.556 568.444 Q120.556 575.551 122.362 579.116 Q124.191 582.657 127.802 582.657 Q131.436 582.657 133.242 579.116 Q135.07 575.551 135.07 568.444 Q135.07 561.315 133.242 557.773 Q131.436 554.208 127.802 554.208 M127.802 550.505 Q133.612 550.505 136.667 555.111 Q139.746 559.695 139.746 568.444 Q139.746 577.171 136.667 581.778 Q133.612 586.361 127.802 586.361 Q121.992 586.361 118.913 581.778 Q115.857 577.171 115.857 568.444 Q115.857 559.695 118.913 555.111 Q121.992 550.505 127.802 550.505 Z" fill="#000000" fill-rule="nonzero" fill-opacity="1" /><path clip-path="url(#clip370)" d="M147.964 579.81 L152.848 579.81 L152.848 585.69 L147.964 585.69 L147.964 579.81 Z" fill="#000000" fill-rule="nonzero" fill-opacity="1" /><path clip-path="url(#clip370)" d="M167.061 581.755 L183.38 581.755 L183.38 585.69 L161.436 585.69 L161.436 581.755 Q164.098 579 168.681 574.37 Q173.288 569.718 174.468 568.375 Q176.714 565.852 177.593 564.116 Q178.496 562.357 178.496 560.667 Q178.496 557.912 176.551 556.176 Q174.63 554.44 171.528 554.44 Q169.329 554.44 166.876 555.204 Q164.445 555.968 161.667 557.519 L161.667 552.796 Q164.491 551.662 166.945 551.083 Q169.399 550.505 171.436 550.505 Q176.806 550.505 180.001 553.19 Q183.195 555.875 183.195 560.366 Q183.195 562.495 182.385 564.417 Q181.598 566.315 179.491 568.907 Q178.913 569.579 175.811 572.796 Q172.709 575.991 167.061 581.755 Z" fill="#000000" fill-rule="nonzero" fill-opacity="1" /><path clip-path="url(#clip370)" d="M126.853 225.703 Q123.242 225.703 121.413 229.268 Q119.607 232.81 119.607 239.939 Q119.607 247.046 121.413 250.611 Q123.242 254.152 126.853 254.152 Q130.487 254.152 132.292 250.611 Q134.121 247.046 134.121 239.939 Q134.121 232.81 132.292 229.268 Q130.487 225.703 126.853 225.703 M126.853 222 Q132.663 222 135.718 226.606 Q138.797 231.19 138.797 239.939 Q138.797 248.666 135.718 253.273 Q132.663 257.856 126.853 257.856 Q121.043 257.856 117.964 253.273 Q114.908 248.666 114.908 239.939 Q114.908 231.19 117.964 226.606 Q121.043 222 126.853 222 Z" fill="#000000" fill-rule="nonzero" fill-opacity="1" /><path clip-path="url(#clip370)" d="M147.015 251.305 L151.899 251.305 L151.899 257.185 L147.015 257.185 L147.015 251.305 Z" fill="#000000" fill-rule="nonzero" fill-opacity="1" /><path clip-path="url(#clip370)" d="M176.251 238.551 Q179.607 239.268 181.482 241.537 Q183.38 243.805 183.38 247.139 Q183.38 252.254 179.862 255.055 Q176.343 257.856 169.862 257.856 Q167.686 257.856 165.371 257.416 Q163.079 257 160.626 256.143 L160.626 251.629 Q162.57 252.763 164.885 253.342 Q167.2 253.921 169.723 253.921 Q174.121 253.921 176.413 252.185 Q178.727 250.449 178.727 247.139 Q178.727 244.083 176.575 242.37 Q174.445 240.634 170.626 240.634 L166.598 240.634 L166.598 236.791 L170.811 236.791 Q174.26 236.791 176.089 235.426 Q177.917 234.037 177.917 231.444 Q177.917 228.782 176.019 227.37 Q174.144 225.935 170.626 225.935 Q168.704 225.935 166.505 226.352 Q164.306 226.768 161.667 227.648 L161.667 223.481 Q164.329 222.741 166.644 222.37 Q168.982 222 171.042 222 Q176.366 222 179.468 224.43 Q182.57 226.838 182.57 230.958 Q182.57 233.828 180.926 235.819 Q179.283 237.787 176.251 238.551 Z" fill="#000000" fill-rule="nonzero" fill-opacity="1" /><path clip-path="url(#clip370)" d="M22.818 883.188 L46.4666 891.909 L46.4666 874.435 L22.818 883.188 M16.4842 886.816 L16.4842 879.528 L64.0042 861.417 L64.0042 868.101 L51.8138 872.43 L51.8138 893.851 L64.0042 898.179 L64.0042 904.959 L16.4842 886.816 Z" fill="#000000" fill-rule="nonzero" fill-opacity="1" /><path clip-path="url(#clip370)" d="M20.1444 820.04 L26.9239 820.04 Q23.9002 823.287 22.4043 826.979 Q20.9083 830.639 20.9083 834.777 Q20.9083 842.925 25.9054 847.254 Q30.8707 851.582 40.2919 851.582 Q49.6813 851.582 54.6784 847.254 Q59.6436 842.925 59.6436 834.777 Q59.6436 830.639 58.1477 826.979 Q56.6518 823.287 53.6281 820.04 L60.3439 820.04 Q62.6355 823.414 63.7814 827.202 Q64.9272 830.957 64.9272 835.159 Q64.9272 845.949 58.3387 852.155 Q51.7183 858.362 40.2919 858.362 Q28.8336 858.362 22.2451 852.155 Q15.6248 845.949 15.6248 835.159 Q15.6248 830.894 16.7706 827.138 Q17.8846 823.35 20.1444 820.04 Z" fill="#000000" fill-rule="nonzero" fill-opacity="1" /><path clip-path="url(#clip370)" d="M16.4842 810.11 L16.4842 782.801 L21.895 782.801 L21.895 803.68 L35.8996 803.68 L35.8996 784.838 L41.3104 784.838 L41.3104 803.68 L64.0042 803.68 L64.0042 810.11 L16.4842 810.11 Z" fill="#000000" fill-rule="nonzero" fill-opacity="1" /><path clip-path="url(#clip370)" d="M14.5426 758.802 Q21.8632 763.067 29.0246 765.136 Q36.186 767.205 43.5384 767.205 Q50.8908 767.205 58.1159 765.136 Q65.3091 763.035 72.5979 758.802 L72.5979 763.895 Q65.1182 768.669 57.8931 771.056 Q50.668 773.411 43.5384 773.411 Q36.4406 773.411 29.2474 771.056 Q22.0542 768.701 14.5426 763.895 L14.5426 758.802 Z" fill="#000000" fill-rule="nonzero" fill-opacity="1" /><path clip-path="url(#clip370)" d="M14.1925 739.896 L79.3773 739.896 L79.3773 745.307 L14.1925 745.307 L14.1925 739.896 Z" fill="#000000" fill-rule="nonzero" fill-opacity="1" /><path clip-path="url(#clip370)" d="M57.2247 692.821 L44.4614 692.821 L44.4614 703.325 L39.1779 703.325 L39.1779 686.456 L59.58 686.456 Q62.2218 690.18 63.5904 694.668 Q64.9272 699.155 64.9272 704.248 Q64.9272 715.388 58.4342 721.69 Q51.9093 727.96 40.2919 727.96 Q28.6427 727.96 22.1496 721.69 Q15.6248 715.388 15.6248 704.248 Q15.6248 699.601 16.7706 695.431 Q17.9164 691.23 20.1444 687.697 L26.9876 687.697 Q23.9639 691.262 22.4361 695.272 Q20.9083 699.283 20.9083 703.707 Q20.9083 712.428 25.7781 716.82 Q30.6479 721.181 40.2919 721.181 Q49.9041 721.181 54.7739 716.82 Q59.6436 712.428 59.6436 703.707 Q59.6436 700.301 59.0707 697.628 Q58.466 694.954 57.2247 692.821 Z" fill="#000000" fill-rule="nonzero" fill-opacity="1" /><path clip-path="url(#clip370)" d="M38.3822 673.597 L44.0477 673.597 L44.0477 665.99 L46.5939 665.99 L46.5939 673.597 L57.4157 673.597 Q59.8664 673.597 60.5667 672.833 Q61.2669 672.069 61.2669 669.778 L61.2669 665.99 L64.0042 665.99 L64.0042 669.778 Q64.0042 674.043 62.5719 675.666 Q61.1714 677.289 57.4157 677.289 L46.5939 677.289 L46.5939 679.995 L44.0477 679.995 L44.0477 677.289 L38.3822 677.289 L38.3822 673.597 Z" fill="#000000" fill-rule="nonzero" fill-opacity="1" /><path clip-path="url(#clip370)" d="M14.1925 648.198 L79.3773 648.198 L79.3773 653.609 L14.1925 653.609 L14.1925 648.198 Z" fill="#000000" fill-rule="nonzero" fill-opacity="1" /><path clip-path="url(#clip370)" d="M14.5426 634.703 L14.5426 629.61 Q22.0542 624.836 29.2474 622.48 Q36.4406 620.093 43.5384 620.093 Q50.668 620.093 57.8931 622.48 Q65.1182 624.836 72.5979 629.61 L72.5979 634.703 Q65.3091 630.469 58.1159 628.401 Q50.8908 626.3 43.5384 626.3 Q36.186 626.3 29.0246 628.401 Q21.8632 630.469 14.5426 634.703 Z" fill="#000000" fill-rule="nonzero" fill-opacity="1" /><path clip-path="url(#clip370)" d="M689.313 12.9583 L682.178 32.3071 L696.475 32.3071 L689.313 12.9583 M686.345 7.776 L692.308 7.776 L707.126 46.656 L701.657 46.656 L698.115 36.6821 L680.59 36.6821 L677.048 46.656 L671.501 46.656 L686.345 7.776 Z" fill="#000000" fill-rule="nonzero" fill-opacity="1" /><path clip-path="url(#clip370)" d="M740.98 10.7708 L740.98 16.3176 Q738.324 13.8437 735.303 12.6197 Q732.308 11.3958 728.923 11.3958 Q722.256 11.3958 718.714 15.4843 Q715.173 19.5468 715.173 27.2551 Q715.173 34.9373 718.714 39.0258 Q722.256 43.0883 728.923 43.0883 Q732.308 43.0883 735.303 41.8644 Q738.324 40.6404 740.98 38.1665 L740.98 43.6612 Q738.219 45.5362 735.12 46.4737 Q732.048 47.4112 728.61 47.4112 Q719.782 47.4112 714.704 42.0206 Q709.626 36.604 709.626 27.2551 Q709.626 17.8801 714.704 12.4895 Q719.782 7.07288 728.61 7.07288 Q732.1 7.07288 735.173 8.01037 Q738.271 8.92183 740.98 10.7708 Z" fill="#000000" fill-rule="nonzero" fill-opacity="1" /><path clip-path="url(#clip370)" d="M749.105 7.776 L771.448 7.776 L771.448 12.2031 L754.365 12.2031 L754.365 23.6613 L769.782 23.6613 L769.782 28.0884 L754.365 28.0884 L754.365 46.656 L749.105 46.656 L749.105 7.776 Z" fill="#000000" fill-rule="nonzero" fill-opacity="1" /><path clip-path="url(#clip370)" d="M791.084 6.18747 Q787.594 12.177 785.901 18.0364 Q784.209 23.8957 784.209 29.9113 Q784.209 35.9269 785.901 41.8383 Q787.62 47.7237 791.084 53.6872 L786.917 53.6872 Q783.011 47.5675 781.058 41.656 Q779.131 35.7446 779.131 29.9113 Q779.131 24.104 781.058 18.2187 Q782.985 12.3333 786.917 6.18747 L791.084 6.18747 Z" fill="#000000" fill-rule="nonzero" fill-opacity="1" /><path clip-path="url(#clip370)" d="M806.552 5.90101 L806.552 59.2341 L802.125 59.2341 L802.125 5.90101 L806.552 5.90101 Z" fill="#000000" fill-rule="nonzero" fill-opacity="1" /><path clip-path="url(#clip370)" d="M845.068 41.1092 L845.068 30.6665 L836.474 30.6665 L836.474 26.3436 L850.276 26.3436 L850.276 43.0362 Q847.229 45.1977 843.557 46.3175 Q839.886 47.4112 835.719 47.4112 Q826.604 47.4112 821.448 42.0987 Q816.318 36.7602 816.318 27.2551 Q816.318 17.7239 821.448 12.4114 Q826.604 7.07288 835.719 7.07288 Q839.521 7.07288 842.932 8.01037 Q846.37 8.94787 849.26 10.7708 L849.26 16.3697 Q846.344 13.8958 843.063 12.6458 Q839.781 11.3958 836.162 11.3958 Q829.026 11.3958 825.432 15.3801 Q821.865 19.3645 821.865 27.2551 Q821.865 35.1196 825.432 39.104 Q829.026 43.0883 836.162 43.0883 Q838.948 43.0883 841.136 42.6196 Q843.323 42.1248 845.068 41.1092 Z" fill="#000000" fill-rule="nonzero" fill-opacity="1" /><path clip-path="url(#clip370)" d="M860.797 25.6926 L860.797 30.328 L867.021 30.328 L867.021 32.4113 L860.797 32.4113 L860.797 41.2654 Q860.797 43.2706 861.422 43.8435 Q862.047 44.4164 863.922 44.4164 L867.021 44.4164 L867.021 46.656 L863.922 46.656 Q860.432 46.656 859.104 45.4841 Q857.776 44.3383 857.776 41.2654 L857.776 32.4113 L855.563 32.4113 L855.563 30.328 L857.776 30.328 L857.776 25.6926 L860.797 25.6926 Z" fill="#000000" fill-rule="nonzero" fill-opacity="1" /><path clip-path="url(#clip370)" d="M881.578 5.90101 L881.578 59.2341 L877.151 59.2341 L877.151 5.90101 L881.578 5.90101 Z" fill="#000000" fill-rule="nonzero" fill-opacity="1" /><path clip-path="url(#clip370)" d="M892.62 6.18747 L896.786 6.18747 Q900.692 12.3333 902.62 18.2187 Q904.573 24.104 904.573 29.9113 Q904.573 35.7446 902.62 41.656 Q900.692 47.5675 896.786 53.6872 L892.62 53.6872 Q896.083 47.7237 897.776 41.8383 Q899.495 35.9269 899.495 29.9113 Q899.495 23.8957 897.776 18.0364 Q896.083 12.177 892.62 6.18747 Z" fill="#000000" fill-rule="nonzero" fill-opacity="1" /><path clip-path="url(#clip370)" d="M944.39 31.9946 Q938.583 31.9946 936.343 33.3227 Q934.104 34.6509 934.104 37.854 Q934.104 40.406 935.77 41.9164 Q937.463 43.4008 940.354 43.4008 Q944.338 43.4008 946.734 40.5883 Q949.156 37.7498 949.156 33.0623 L949.156 31.9946 L944.39 31.9946 M953.947 30.0155 L953.947 46.656 L949.156 46.656 L949.156 42.2289 Q947.515 44.8852 945.067 46.1612 Q942.619 47.4112 939.078 47.4112 Q934.599 47.4112 931.942 44.9112 Q929.312 42.3852 929.312 38.1665 Q929.312 33.2446 932.593 30.7446 Q935.901 28.2446 942.437 28.2446 L949.156 28.2446 L949.156 27.7759 Q949.156 24.4686 946.968 22.6718 Q944.807 20.8488 940.875 20.8488 Q938.375 20.8488 936.005 21.4478 Q933.635 22.0468 931.448 23.2447 L931.448 18.8176 Q934.078 17.802 936.552 17.3072 Q939.026 16.7864 941.369 16.7864 Q947.697 16.7864 950.822 20.0676 Q953.947 23.3488 953.947 30.0155 Z" fill="#000000" fill-rule="nonzero" fill-opacity="1" /><path clip-path="url(#clip370)" d="M968.557 9.20828 L968.557 17.4895 L978.426 17.4895 L978.426 21.2134 L968.557 21.2134 L968.557 37.0467 Q968.557 40.6144 969.52 41.63 Q970.51 42.6456 973.505 42.6456 L978.426 42.6456 L978.426 46.656 L973.505 46.656 Q967.958 46.656 965.848 44.5987 Q963.739 42.5154 963.739 37.0467 L963.739 21.2134 L960.223 21.2134 L960.223 17.4895 L963.739 17.4895 L963.739 9.20828 L968.557 9.20828 Z" fill="#000000" fill-rule="nonzero" fill-opacity="1" /><path clip-path="url(#clip370)" d="M1017.67 11.3437 Q1011.94 11.3437 1008.56 15.6145 Q1005.2 19.8853 1005.2 27.2551 Q1005.2 34.5988 1008.56 38.8696 Q1011.94 43.1404 1017.67 43.1404 Q1023.4 43.1404 1026.73 38.8696 Q1030.09 34.5988 1030.09 27.2551 Q1030.09 19.8853 1026.73 15.6145 Q1023.4 11.3437 1017.67 11.3437 M1017.67 7.07288 Q1025.85 7.07288 1030.74 12.5676 Q1035.64 18.0364 1035.64 27.2551 Q1035.64 36.4477 1030.74 41.9425 Q1025.85 47.4112 1017.67 47.4112 Q1009.47 47.4112 1004.55 41.9425 Q999.65 36.4738 999.65 27.2551 Q999.65 18.0364 1004.55 12.5676 Q1009.47 7.07288 1017.67 7.07288 Z" fill="#000000" fill-rule="nonzero" fill-opacity="1" /><path clip-path="url(#clip370)" d="M1048.3 42.281 L1048.3 57.7497 L1043.48 57.7497 L1043.48 17.4895 L1048.3 17.4895 L1048.3 21.9165 Q1049.81 19.3124 1052.1 18.0624 Q1054.42 16.7864 1057.62 16.7864 Q1062.93 16.7864 1066.24 21.0051 Q1069.57 25.2238 1069.57 32.0988 Q1069.57 38.9737 1066.24 43.1925 Q1062.93 47.4112 1057.62 47.4112 Q1054.42 47.4112 1052.1 46.1612 Q1049.81 44.8852 1048.3 42.281 M1064.6 32.0988 Q1064.6 26.8124 1062.41 23.8176 Q1060.25 20.7968 1056.45 20.7968 Q1052.64 20.7968 1050.46 23.8176 Q1048.3 26.8124 1048.3 32.0988 Q1048.3 37.3852 1050.46 40.406 Q1052.64 43.4008 1056.45 43.4008 Q1060.25 43.4008 1062.41 40.406 Q1064.6 37.3852 1064.6 32.0988 Z" fill="#000000" fill-rule="nonzero" fill-opacity="1" /><path clip-path="url(#clip370)" d="M1082.25 9.20828 L1082.25 17.4895 L1092.12 17.4895 L1092.12 21.2134 L1082.25 21.2134 L1082.25 37.0467 Q1082.25 40.6144 1083.22 41.63 Q1084.21 42.6456 1087.2 42.6456 L1092.12 42.6456 L1092.12 46.656 L1087.2 46.656 Q1081.66 46.656 1079.55 44.5987 Q1077.44 42.5154 1077.44 37.0467 L1077.44 21.2134 L1073.92 21.2134 L1073.92 17.4895 L1077.44 17.4895 L1077.44 9.20828 L1082.25 9.20828 Z" fill="#000000" fill-rule="nonzero" fill-opacity="1" /><path clip-path="url(#clip370)" d="M1098.43 17.4895 L1103.22 17.4895 L1103.22 46.656 L1098.43 46.656 L1098.43 17.4895 M1098.43 6.13538 L1103.22 6.13538 L1103.22 12.2031 L1098.43 12.2031 L1098.43 6.13538 Z" fill="#000000" fill-rule="nonzero" fill-opacity="1" /><path clip-path="url(#clip370)" d="M1135.95 23.0884 Q1137.75 19.8593 1140.25 18.3228 Q1142.75 16.7864 1146.13 16.7864 Q1150.69 16.7864 1153.17 19.9895 Q1155.64 23.1665 1155.64 29.0519 L1155.64 46.656 L1150.82 46.656 L1150.82 29.2082 Q1150.82 25.0155 1149.34 22.9843 Q1147.85 20.953 1144.81 20.953 Q1141.08 20.953 1138.92 23.427 Q1136.76 25.9009 1136.76 30.1717 L1136.76 46.656 L1131.94 46.656 L1131.94 29.2082 Q1131.94 24.9894 1130.46 22.9843 Q1128.97 20.953 1125.87 20.953 Q1122.2 20.953 1120.04 23.453 Q1117.88 25.9269 1117.88 30.1717 L1117.88 46.656 L1113.06 46.656 L1113.06 17.4895 L1117.88 17.4895 L1117.88 22.0207 Q1119.52 19.3384 1121.81 18.0624 Q1124.1 16.7864 1127.25 16.7864 Q1130.43 16.7864 1132.64 18.4009 Q1134.88 20.0155 1135.95 23.0884 Z" fill="#000000" fill-rule="nonzero" fill-opacity="1" /><path clip-path="url(#clip370)" d="M1178.45 31.9946 Q1172.64 31.9946 1170.4 33.3227 Q1168.17 34.6509 1168.17 37.854 Q1168.17 40.406 1169.83 41.9164 Q1171.52 43.4008 1174.41 43.4008 Q1178.4 43.4008 1180.8 40.5883 Q1183.22 37.7498 1183.22 33.0623 L1183.22 31.9946 L1178.45 31.9946 M1188.01 30.0155 L1188.01 46.656 L1183.22 46.656 L1183.22 42.2289 Q1181.58 44.8852 1179.13 46.1612 Q1176.68 47.4112 1173.14 47.4112 Q1168.66 47.4112 1166 44.9112 Q1163.37 42.3852 1163.37 38.1665 Q1163.37 33.2446 1166.65 30.7446 Q1169.96 28.2446 1176.5 28.2446 L1183.22 28.2446 L1183.22 27.7759 Q1183.22 24.4686 1181.03 22.6718 Q1178.87 20.8488 1174.94 20.8488 Q1172.44 20.8488 1170.07 21.4478 Q1167.7 22.0468 1165.51 23.2447 L1165.51 18.8176 Q1168.14 17.802 1170.61 17.3072 Q1173.09 16.7864 1175.43 16.7864 Q1181.76 16.7864 1184.88 20.0676 Q1188.01 23.3488 1188.01 30.0155 Z" fill="#000000" fill-rule="nonzero" fill-opacity="1" /><path clip-path="url(#clip370)" d="M1197.88 6.13538 L1202.67 6.13538 L1202.67 46.656 L1197.88 46.656 L1197.88 6.13538 Z" fill="#000000" fill-rule="nonzero" fill-opacity="1" /><path clip-path="url(#clip370)" d="M1227.23 30.1717 L1275.35 30.1717 L1275.35 33.9217 L1227.23 33.9217 L1227.23 30.1717 Z" fill="#000000" fill-rule="nonzero" fill-opacity="1" /><path clip-path="url(#clip370)" d="M1300.14 7.776 L1305.4 7.776 L1305.4 24.2082 L1322.85 7.776 L1329.62 7.776 L1310.33 25.9009 L1331 46.656 L1324.08 46.656 L1305.4 27.9321 L1305.4 46.656 L1300.14 46.656 L1300.14 7.776 Z" fill="#000000" fill-rule="nonzero" fill-opacity="1" /><path clip-path="url(#clip370)" d="M1335.53 22.4374 L1368.92 22.4374 L1368.92 26.8124 L1335.53 26.8124 L1335.53 22.4374 M1335.53 33.0623 L1368.92 33.0623 L1368.92 37.4894 L1335.53 37.4894 L1335.53 33.0623 Z" fill="#000000" fill-rule="nonzero" fill-opacity="1" /><path clip-path="url(#clip370)" d="M1380.43 45.8487 L1380.43 41.0571 Q1382.41 41.9946 1384.44 42.4894 Q1386.47 42.9841 1388.42 42.9841 Q1393.63 42.9841 1396.37 39.4946 Q1399.13 35.979 1399.52 28.8436 Q1398.01 31.0832 1395.69 32.2811 Q1393.37 33.479 1390.56 33.479 Q1384.73 33.479 1381.31 29.9634 Q1377.93 26.4217 1377.93 20.302 Q1377.93 14.3124 1381.47 10.6927 Q1385.01 7.07288 1390.9 7.07288 Q1397.64 7.07288 1401.18 12.2551 Q1404.75 17.4114 1404.75 27.2551 Q1404.75 36.4477 1400.38 41.9425 Q1396.03 47.4112 1388.66 47.4112 Q1386.68 47.4112 1384.65 47.0206 Q1382.62 46.63 1380.43 45.8487 M1390.9 29.3644 Q1394.44 29.3644 1396.5 26.9426 Q1398.58 24.5207 1398.58 20.302 Q1398.58 16.1093 1396.5 13.6874 Q1394.44 11.2395 1390.9 11.2395 Q1387.36 11.2395 1385.27 13.6874 Q1383.22 16.1093 1383.22 20.302 Q1383.22 24.5207 1385.27 26.9426 Q1387.36 29.3644 1390.9 29.3644 Z" fill="#000000" fill-rule="nonzero" fill-opacity="1" /><path clip-path="url(#clip370)" d="M1441.99 6.18747 Q1438.5 12.177 1436.81 18.0364 Q1435.12 23.8957 1435.12 29.9113 Q1435.12 35.9269 1436.81 41.8383 Q1438.53 47.7237 1441.99 53.6872 L1437.83 53.6872 Q1433.92 47.5675 1431.97 41.656 Q1430.04 35.7446 1430.04 29.9113 Q1430.04 24.104 1431.97 18.2187 Q1433.89 12.3333 1437.83 6.18747 L1441.99 6.18747 Z" fill="#000000" fill-rule="nonzero" fill-opacity="1" /><path clip-path="url(#clip370)" d="M1456.55 30.9269 Q1453.63 30.3019 1452.07 28.6092 Q1450.51 26.9426 1450.51 24.5207 Q1450.51 20.8488 1453.48 18.7916 Q1456.42 16.7603 1461.52 16.7603 Q1463.5 16.7603 1465.72 17.0728 Q1467.93 17.3853 1470.48 18.0103 L1470.48 22.3593 Q1467.96 21.6041 1465.87 21.2655 Q1463.76 20.927 1461.91 20.927 Q1458.81 20.927 1457.02 22.1249 Q1455.19 23.3228 1455.19 24.9894 Q1455.19 26.8124 1456.97 27.9842 Q1458.71 29.1301 1461.73 29.1301 L1465.77 29.1301 L1465.77 33.0884 L1461.91 33.0884 Q1458.35 33.0884 1456.47 34.4165 Q1454.44 35.8748 1454.44 38.1665 Q1454.44 40.5102 1456.63 41.9685 Q1458.84 43.4269 1462.77 43.4269 Q1465.19 43.4269 1467.41 42.9581 Q1469.62 42.4633 1471.47 41.4998 L1471.47 45.9529 Q1469.13 46.682 1466.94 47.0466 Q1464.73 47.4112 1462.64 47.4112 Q1456.44 47.4112 1453.09 45.0414 Q1449.73 42.6716 1449.73 38.1665 Q1449.73 35.354 1451.52 33.4529 Q1453.32 31.5519 1456.55 30.9269 Z" fill="#000000" fill-rule="nonzero" fill-opacity="1" /><path clip-path="url(#clip370)" d="M1480.74 22.4374 L1514.13 22.4374 L1514.13 26.8124 L1480.74 26.8124 L1480.74 22.4374 M1480.74 33.0623 L1514.13 33.0623 L1514.13 37.4894 L1480.74 37.4894 L1480.74 33.0623 Z" fill="#000000" fill-rule="nonzero" fill-opacity="1" /><path clip-path="url(#clip370)" d="M1536.73 11.2395 Q1532.67 11.2395 1530.61 15.2499 Q1528.58 19.2343 1528.58 27.2551 Q1528.58 35.2498 1530.61 39.2602 Q1532.67 43.2446 1536.73 43.2446 Q1540.82 43.2446 1542.85 39.2602 Q1544.91 35.2498 1544.91 27.2551 Q1544.91 19.2343 1542.85 15.2499 Q1540.82 11.2395 1536.73 11.2395 M1536.73 7.07288 Q1543.27 7.07288 1546.7 12.2551 Q1550.17 17.4114 1550.17 27.2551 Q1550.17 37.0727 1546.7 42.255 Q1543.27 47.4112 1536.73 47.4112 Q1530.19 47.4112 1526.73 42.255 Q1523.29 37.0727 1523.29 27.2551 Q1523.29 17.4114 1526.73 12.2551 Q1530.19 7.07288 1536.73 7.07288 Z" fill="#000000" fill-rule="nonzero" fill-opacity="1" /><path clip-path="url(#clip370)" d="M1559.41 40.0415 L1564.91 40.0415 L1564.91 46.656 L1559.41 46.656 L1559.41 40.0415 Z" fill="#000000" fill-rule="nonzero" fill-opacity="1" /><path clip-path="url(#clip370)" d="M1587.62 11.2395 Q1583.55 11.2395 1581.5 15.2499 Q1579.46 19.2343 1579.46 27.2551 Q1579.46 35.2498 1581.5 39.2602 Q1583.55 43.2446 1587.62 43.2446 Q1591.7 43.2446 1593.74 39.2602 Q1595.79 35.2498 1595.79 27.2551 Q1595.79 19.2343 1593.74 15.2499 Q1591.7 11.2395 1587.62 11.2395 M1587.62 7.07288 Q1594.15 7.07288 1597.59 12.2551 Q1601.05 17.4114 1601.05 27.2551 Q1601.05 37.0727 1597.59 42.255 Q1594.15 47.4112 1587.62 47.4112 Q1581.08 47.4112 1577.62 42.255 Q1574.18 37.0727 1574.18 27.2551 Q1574.18 17.4114 1577.62 12.2551 Q1581.08 7.07288 1587.62 7.07288 Z" fill="#000000" fill-rule="nonzero" fill-opacity="1" /><path clip-path="url(#clip370)" d="M1621.55 11.2395 Q1617.49 11.2395 1615.43 15.2499 Q1613.4 19.2343 1613.4 27.2551 Q1613.4 35.2498 1615.43 39.2602 Q1617.49 43.2446 1621.55 43.2446 Q1625.64 43.2446 1627.67 39.2602 Q1629.73 35.2498 1629.73 27.2551 Q1629.73 19.2343 1627.67 15.2499 Q1625.64 11.2395 1621.55 11.2395 M1621.55 7.07288 Q1628.08 7.07288 1631.52 12.2551 Q1634.99 17.4114 1634.99 27.2551 Q1634.99 37.0727 1631.52 42.255 Q1628.08 47.4112 1621.55 47.4112 Q1615.01 47.4112 1611.55 42.255 Q1608.11 37.0727 1608.11 27.2551 Q1608.11 17.4114 1611.55 12.2551 Q1615.01 7.07288 1621.55 7.07288 Z" fill="#000000" fill-rule="nonzero" fill-opacity="1" /><path clip-path="url(#clip370)" d="M1655.48 11.2395 Q1651.42 11.2395 1649.36 15.2499 Q1647.33 19.2343 1647.33 27.2551 Q1647.33 35.2498 1649.36 39.2602 Q1651.42 43.2446 1655.48 43.2446 Q1659.57 43.2446 1661.6 39.2602 Q1663.66 35.2498 1663.66 27.2551 Q1663.66 19.2343 1661.6 15.2499 Q1659.57 11.2395 1655.48 11.2395 M1655.48 7.07288 Q1662.02 7.07288 1665.45 12.2551 Q1668.92 17.4114 1668.92 27.2551 Q1668.92 37.0727 1665.45 42.255 Q1662.02 47.4112 1655.48 47.4112 Q1648.94 47.4112 1645.48 42.255 Q1642.04 37.0727 1642.04 27.2551 Q1642.04 17.4114 1645.48 12.2551 Q1648.94 7.07288 1655.48 7.07288 Z" fill="#000000" fill-rule="nonzero" fill-opacity="1" /><path clip-path="url(#clip370)" d="M1679.07 42.2289 L1687.67 42.2289 L1687.67 12.5676 L1678.32 14.4426 L1678.32 9.65099 L1687.62 7.776 L1692.88 7.776 L1692.88 42.2289 L1701.47 42.2289 L1701.47 46.656 L1679.07 46.656 L1679.07 42.2289 Z" fill="#000000" fill-rule="nonzero" fill-opacity="1" /><path clip-path="url(#clip370)" d="M1712.64 40.0415 L1718.14 40.0415 L1718.14 44.5206 L1713.87 52.8539 L1710.51 52.8539 L1712.64 44.5206 L1712.64 40.0415 Z" fill="#000000" fill-rule="nonzero" fill-opacity="1" /><path clip-path="url(#clip370)" d="M1756.81 10.6927 L1770.27 46.656 L1765.19 46.656 L1757.02 25.0936 L1746.96 46.656 L1741.89 46.656 L1754.67 18.6874 L1752.75 13.5312 Q1751.52 10.2499 1748.73 10.2499 L1746.23 10.2499 L1746.23 6.13538 L1749.28 6.18747 Q1755.17 6.26559 1756.81 10.6927 Z" fill="#000000" fill-rule="nonzero" fill-opacity="1" /><path clip-path="url(#clip370)" d="M1777.51 22.4374 L1810.9 22.4374 L1810.9 26.8124 L1777.51 26.8124 L1777.51 22.4374 M1777.51 33.0623 L1810.9 33.0623 L1810.9 37.4894 L1777.51 37.4894 L1777.51 33.0623 Z" fill="#000000" fill-rule="nonzero" fill-opacity="1" /><path clip-path="url(#clip370)" d="M1822.3 7.776 L1842.95 7.776 L1842.95 12.2031 L1827.12 12.2031 L1827.12 21.7343 Q1828.27 21.3436 1829.41 21.1613 Q1830.56 20.953 1831.7 20.953 Q1838.21 20.953 1842.02 24.5207 Q1845.82 28.0884 1845.82 34.1821 Q1845.82 40.4581 1841.91 43.9477 Q1838.01 47.4112 1830.9 47.4112 Q1828.45 47.4112 1825.9 46.9945 Q1823.37 46.5779 1820.66 45.7445 L1820.66 40.4581 Q1823.01 41.7342 1825.51 42.3591 Q1828.01 42.9841 1830.79 42.9841 Q1835.3 42.9841 1837.93 40.6144 Q1840.56 38.2446 1840.56 34.1821 Q1840.56 30.1196 1837.93 27.7499 Q1835.3 25.3801 1830.79 25.3801 Q1828.68 25.3801 1826.57 25.8488 Q1824.49 26.3176 1822.3 27.3071 L1822.3 7.776 Z" fill="#000000" fill-rule="nonzero" fill-opacity="1" /><path clip-path="url(#clip370)" d="M1856.23 7.776 L1876.89 7.776 L1876.89 12.2031 L1861.05 12.2031 L1861.05 21.7343 Q1862.2 21.3436 1863.34 21.1613 Q1864.49 20.953 1865.64 20.953 Q1872.15 20.953 1875.95 24.5207 Q1879.75 28.0884 1879.75 34.1821 Q1879.75 40.4581 1875.84 43.9477 Q1871.94 47.4112 1864.83 47.4112 Q1862.38 47.4112 1859.83 46.9945 Q1857.3 46.5779 1854.59 45.7445 L1854.59 40.4581 Q1856.94 41.7342 1859.44 42.3591 Q1861.94 42.9841 1864.72 42.9841 Q1869.23 42.9841 1871.86 40.6144 Q1874.49 38.2446 1874.49 34.1821 Q1874.49 30.1196 1871.86 27.7499 Q1869.23 25.3801 1864.72 25.3801 Q1862.61 25.3801 1860.51 25.8488 Q1858.42 26.3176 1856.23 27.3071 L1856.23 7.776 Z" fill="#000000" fill-rule="nonzero" fill-opacity="1" /><path clip-path="url(#clip370)" d="M1888.68 6.18747 L1892.85 6.18747 Q1896.75 12.3333 1898.68 18.2187 Q1900.64 24.104 1900.64 29.9113 Q1900.64 35.7446 1898.68 41.656 Q1896.75 47.5675 1892.85 53.6872 L1888.68 53.6872 Q1892.15 47.7237 1893.84 41.8383 Q1895.56 35.9269 1895.56 29.9113 Q1895.56 23.8957 1893.84 18.0364 Q1892.15 12.177 1888.68 6.18747 Z" fill="#000000" fill-rule="nonzero" fill-opacity="1" /><polyline clip-path="url(#clip372)" style="stroke:#ff0000; stroke-linecap:round; stroke-linejoin:round; stroke-width:8; stroke-opacity:1; fill:none" stroke-dasharray="32, 20" points="279.759,243.863 287.777,372.043 295.796,201.126 303.814,310.101 311.832,377.067 319.851,440.337 327.869,434.154 335.888,324.525 343.906,388.169 351.924,349.372 359.943,583.95 367.961,578.756 375.98,512.908 383.998,597.791 392.016,583.257 400.035,741.3 408.053,472.113 416.072,540.524 424.09,728.571 432.108,591.476 440.127,734.617 448.145,709.225 456.164,642.533 464.182,832.376 472.2,771.129 480.219,769.599 488.237,834.137 496.256,861.873 504.274,710.956 512.292,800.341 520.311,854.757 528.329,881.798 536.348,827.534 544.366,911.799 552.384,867.167 560.403,865.357 568.421,907.57 576.44,862.525 584.458,821.474 592.476,925.822 600.495,900.803 608.513,890.783 616.532,916.524 624.55,1026.33 632.568,948.272 640.587,842.527 648.605,1088.19 656.624,1018.7 664.642,942.43 672.66,1032.21 680.679,991.388 688.697,1011.91 696.716,989.714 704.734,1032.28 712.752,947.893 720.771,1000.63 728.789,1033.09 736.808,1009.25 744.826,965.822 752.844,1087.22 760.863,1041.92 768.881,1046.81 776.9,937.663 784.918,1097.33 792.936,1069.54 800.955,1041.53 808.973,1088.91 816.992,1020.87 825.01,1085.2 833.028,1097.47 841.047,1109.49 849.065,994.76 857.084,1107.14 865.102,1068.22 873.12,1022.78 881.139,994.452 889.157,1091.55 897.176,1111.68 905.194,1080.55 913.212,1139.01 921.231,1096.47 929.249,1066.3 937.268,1161.54 945.286,1157.44 953.304,1106.58 961.323,1154.07 969.341,1154.22 977.36,1115.9 985.378,1173.25 993.396,1101.32 1001.41,1124.76 1009.43,1035.44 1017.45,1170.86 1025.47,1066.41 1033.49,1059.79 1041.51,1099.19 1049.53,994.992 1057.54,1073.03 1065.56,1088.7 1073.58,1041.91 1081.6,1037.86 1089.62,1046.01 1097.64,1033.17 1105.65,1124.14 1113.67,1000.44 1121.69,1055.33 1129.71,1073.4 1137.73,1160.78 1145.75,1063.79 1153.76,1170.78 1161.78,1075.5 1169.8,1142.04 1177.82,1063.66 1185.84,1090.6 1193.86,1074.48 1201.87,1053.1 1209.89,1056.61 1217.91,1090.07 1225.93,1023.42 1233.95,988.209 1241.97,1015.32 1249.99,1049.65 1258,1086.69 1266.02,1055.65 1274.04,1076.65 1282.06,1053.6 1290.08,1082.17 1298.1,1089.65 1306.11,1032.67 1314.13,1042.48 1322.15,991.204 1330.17,1131.54 1338.19,1094.09 1346.21,1069.07 1354.22,1105.43 1362.24,1074.31 1370.26,1140.12 1378.28,1016.87 1386.3,1059.28 1394.32,1094.99 1402.33,1116.58 1410.35,1082.37 1418.37,1090.73 1426.39,1088.8 1434.41,1084.17 1442.43,1055.31 1450.45,1216.91 1458.46,1105.37 1466.48,1092.74 1474.5,1133.42 1482.52,997.931 1490.54,1064.43 1498.56,1083.5 1506.57,1104.26 1514.59,1096.31 1522.61,1046.63 1530.63,1127.06 1538.65,1075.06 1546.67,1100.6 1554.68,1019.99 1562.7,1020.22 1570.72,1078.2 1578.74,1091.2 1586.76,1127.12 1594.78,1135.06 1602.79,1141.62 1610.81,1160.36 1618.83,1072.53 1626.85,1067.26 1634.87,1097.76 1642.89,1144.35 1650.91,1063.25 1658.92,1091.07 1666.94,1097.09 1674.96,1204.42 1682.98,1122.43 1691,1110.51 1699.02,1209.05 1707.03,1109.08 1715.05,1203.6 1723.07,1190.86 1731.09,1115.12 1739.11,1169.87 1747.13,1240.1 1755.14,1196.52 1763.16,1244.57 1771.18,1181.5 1779.2,1197.78 1787.22,1191.01 1795.24,1216.89 1803.25,1215.51 1811.27,1177.83 1819.29,1214.81 1827.31,1200.09 1835.33,1217.08 1843.35,1236.46 1851.37,1149.99 1859.38,1148.96 1867.4,1193.23 1875.42,1230.35 1883.44,1121.41 1891.46,1176.55 1899.48,1103.42 1907.49,1159.2 1915.51,1243.75 1923.53,1142.21 1931.55,1158.82 1939.57,1167.84 1947.59,1198.21 1955.6,1234.89 1963.62,1126.2 1971.64,1169.16 1979.66,1238.69 1987.68,1122.71 1995.7,1199.42 2003.71,1146.11 2011.73,1161.52 2019.75,1220.36 2027.77,1208.56 2035.79,1280.78 2043.81,1141.8 2051.83,1214.1 2059.84,1263.86 2067.86,1186.14 2075.88,1270.23 2083.9,1251.75 2091.92,1286.18 2099.94,1290.27 2107.95,1304.03 2115.97,1350.98 2123.99,1273.36 2132.01,1304.85 2140.03,1332.76 2148.05,1266.25 2156.06,1289.94 2164.08,1328.1 2172.1,1276.7 2180.12,1375.04 2188.14,1278.52 2196.16,1309.21 2204.17,1353.73 2212.19,1236.08 2220.21,1385.78 2228.23,1324.96 2236.25,1297.75 2244.27,1341.57 2252.29,1373.59 2260.3,1305.94 2268.32,1299.96 2276.34,1362.64 2284.36,1305.54 2292.38,1346.46 "/>
<polyline clip-path="url(#clip372)" style="stroke:#000080; stroke-linecap:round; stroke-linejoin:round; stroke-width:8; stroke-opacity:1; fill:none" points="279.759,248.601 287.777,333.26 295.796,402.651 303.814,464.457 311.832,514.719 319.851,559.539 327.869,603.212 335.888,640.516 343.906,681.602 351.924,713.349 359.943,742.011 367.961,771.301 375.98,798.357 383.998,822.293 392.016,846.684 400.035,870.366 408.053,891.621 416.072,909.353 424.09,924.906 432.108,942.795 440.127,954.943 448.145,973.444 456.164,986.978 464.182,1005.18 472.2,1015.18 480.219,1026.84 488.237,1038.86 496.256,1051.83 504.274,1062.13 512.292,1072.13 520.311,1077.79 528.329,1089.13 536.348,1095.54 544.366,1102.8 552.384,1109.82 560.403,1116.27 568.421,1122.63 576.44,1128.78 584.458,1135.25 592.476,1143.82 600.495,1141.9 608.513,1153.37 616.532,1157.15 624.55,1161.76 632.568,1169.65 640.587,1174.77 648.605,1176.19 656.624,1179.93 664.642,1184.77 672.66,1192.57 680.679,1188.73 688.697,1192.45 696.716,1193.54 704.734,1197.9 712.752,1200.18 720.771,1202.96 728.789,1201.76 736.808,1204.71 744.826,1203.39 752.844,1210.94 760.863,1209.37 768.881,1210.1 776.9,1208.14 784.918,1218.55 792.936,1219.21 800.955,1219.32 808.973,1218.13 816.992,1218.71 825.01,1222.57 833.028,1223.45 841.047,1223.39 849.065,1225.08 857.084,1225.94 865.102,1224.77 873.12,1228.05 881.139,1222.57 889.157,1224.62 897.176,1225.72 905.194,1228.08 913.212,1229.76 921.231,1233.46 929.249,1230.69 937.268,1226.18 945.286,1228.01 953.304,1230.31 961.323,1231.02 969.341,1233.12 977.36,1230.52 985.378,1230.85 993.396,1228.47 1001.41,1230.07 1009.43,1233.81 1017.45,1233.18 1025.47,1234.82 1033.49,1236.43 1041.51,1237.87 1049.53,1238.59 1057.54,1236.67 1065.56,1240.32 1073.58,1238.25 1081.6,1237.57 1089.62,1238.8 1097.64,1240.16 1105.65,1241.39 1113.67,1243.41 1121.69,1240.63 1129.71,1241.22 1137.73,1242.45 1145.75,1238.8 1153.76,1239.78 1161.78,1241.85 1169.8,1242.78 1177.82,1242.14 1185.84,1241.72 1193.86,1240.4 1201.87,1242.59 1209.89,1237.98 1217.91,1235.67 1225.93,1242.15 1233.95,1236.96 1241.97,1239.77 1249.99,1235.88 1258,1238.1 1266.02,1240.49 1274.04,1242.48 1282.06,1238.59 1290.08,1237.26 1298.1,1238.48 1306.11,1237.38 1314.13,1235 1322.15,1236.85 1330.17,1236.64 1338.19,1233.76 1346.21,1237.1 1354.22,1240.3 1362.24,1237.27 1370.26,1235.54 1378.28,1241.27 1386.3,1238.9 1394.32,1237.21 1402.33,1239.97 1410.35,1237.54 1418.37,1238.84 1426.39,1238.14 1434.41,1238.21 1442.43,1238.33 1450.45,1238.82 1458.46,1240.26 1466.48,1239.15 1474.5,1241.53 1482.52,1244.28 1490.54,1242.35 1498.56,1243.95 1506.57,1242.03 1514.59,1243.47 1522.61,1240.47 1530.63,1244.34 1538.65,1244.98 1546.67,1244.76 1554.68,1239.84 1562.7,1244.32 1570.72,1246.18 1578.74,1242.9 1586.76,1242.49 1594.78,1245.76 1602.79,1244.58 1610.81,1244.4 1618.83,1248.47 1626.85,1243.4 1634.87,1246.65 1642.89,1247.71 1650.91,1245.55 1658.92,1238.98 1666.94,1242.43 1674.96,1244.31 1682.98,1244.87 1691,1244.47 1699.02,1242.16 1707.03,1244.05 1715.05,1242.51 1723.07,1241.12 1731.09,1242.14 1739.11,1237.87 1747.13,1244.75 1755.14,1241.21 1763.16,1242.51 1771.18,1239.79 1779.2,1242.63 1787.22,1236.9 1795.24,1240.95 1803.25,1239.22 1811.27,1240.98 1819.29,1240.47 1827.31,1242.27 1835.33,1237.58 1843.35,1241.33 1851.37,1237.89 1859.38,1237.02 1867.4,1241.73 1875.42,1239.68 1883.44,1242.89 1891.46,1238.28 1899.48,1240.22 1907.49,1242.36 1915.51,1243.22 1923.53,1238.28 1931.55,1238.16 1939.57,1240.12 1947.59,1238.9 1955.6,1235.64 1963.62,1240.49 1971.64,1236.33 1979.66,1238.96 1987.68,1238.77 1995.7,1236.05 2003.71,1240.23 2011.73,1236.67 2019.75,1237.85 2027.77,1236.44 2035.79,1234.83 2043.81,1240.11 2051.83,1240.67 2059.84,1238.22 2067.86,1240.05 2075.88,1238.75 2083.9,1240.56 2091.92,1240.5 2099.94,1236.7 2107.95,1240.76 2115.97,1242.54 2123.99,1239.68 2132.01,1242.4 2140.03,1234.49 2148.05,1241.02 2156.06,1242.37 2164.08,1242.28 2172.1,1237.62 2180.12,1240.71 2188.14,1240.77 2196.16,1243.74 2204.17,1241.37 2212.19,1238.69 2220.21,1243.66 2228.23,1240.69 2236.25,1242.16 2244.27,1237.09 2252.29,1239.09 2260.3,1241.9 2268.32,1241.72 2276.34,1239.92 2284.36,1241.31 2292.38,1242.23 "/>
<path clip-path="url(#clip372)" d="M279.759 353.715 L287.777 450.975 L295.796 521.426 L303.814 586.905 L311.832 639.65 L319.851 687.021 L327.869 724.441 L335.888 765.19 L343.906 812.206 L351.924 845.752 L359.943 871.015 L367.961 909.888 L375.98 936.286 L383.998 949.094 L392.016 974.794 L400.035 1009.95 L408.053 1024.63 L416.072 1040.8 L424.09 1067.26 L432.108 1083.03 L440.127 1102.32 L448.145 1112.29 L456.164 1127.73 L464.182 1136.7 L472.2 1145.88 L480.219 1150.5 L488.237 1173.72 L496.256 1176.76 L504.274 1188.42 L512.292 1198.8 L520.311 1199.91 L528.329 1213.26 L536.348 1216.3 L544.366 1224.09 L552.384 1225.23 L560.403 1231.82 L568.421 1246.81 L576.44 1260.04 L584.458 1261.41 L592.476 1268.18 L600.495 1257.95 L608.513 1274.82 L616.532 1277 L624.55 1283.99 L632.568 1292.84 L640.587 1295.73 L648.605 1292.54 L656.624 1301.49 L664.642 1304.25 L672.66 1308.71 L680.679 1313.02 L688.697 1313.78 L696.716 1308.42 L704.734 1317.61 L712.752 1322.55 L720.771 1326.58 L728.789 1332.23 L736.808 1327.47 L744.826 1326.33 L752.844 1329.15 L760.863 1328.06 L768.881 1333.47 L776.9 1328.02 L784.918 1328.37 L792.936 1331.17 L800.955 1333.26 L808.973 1349.11 L816.992 1339.29 L825.01 1343.15 L833.028 1345.49 L841.047 1336.99 L849.065 1335.77 L857.084 1336.11 L865.102 1339.21 L873.12 1349.17 L881.139 1340.54 L889.157 1344.22 L897.176 1341.59 L905.194 1333.65 L913.212 1346.46 L921.231 1352.04 L929.249 1352.94 L937.268 1342.14 L945.286 1349.52 L953.304 1351.23 L961.323 1346.26 L969.341 1355.29 L977.36 1353.25 L985.378 1354.86 L993.396 1341.9 L1001.41 1354.7 L1009.43 1355.09 L1017.45 1355.05 L1025.47 1352.59 L1033.49 1361.67 L1041.51 1363.11 L1049.53 1354.24 L1057.54 1356.02 L1065.56 1360.4 L1073.58 1353.61 L1081.6 1353.18 L1089.62 1357.63 L1097.64 1355.64 L1105.65 1369.54 L1113.67 1360.56 L1121.69 1363.05 L1129.71 1365.55 L1137.73 1361.53 L1145.75 1362.4 L1153.76 1354.29 L1161.78 1358.21 L1169.8 1374.12 L1177.82 1369.84 L1185.84 1360.47 L1193.86 1363.67 L1201.87 1364.62 L1209.89 1361.32 L1217.91 1354.92 L1225.93 1362.31 L1233.95 1356.58 L1241.97 1360.13 L1249.99 1352.69 L1258 1351.06 L1266.02 1355.98 L1274.04 1355.72 L1282.06 1361.4 L1290.08 1353.6 L1298.1 1351.3 L1306.11 1353.28 L1314.13 1352.37 L1322.15 1349.9 L1330.17 1352.31 L1338.19 1347.95 L1346.21 1358.29 L1354.22 1352.37 L1362.24 1346.18 L1370.26 1342.11 L1378.28 1343.82 L1386.3 1363 L1394.32 1352.22 L1402.33 1351.47 L1410.35 1348.48 L1418.37 1348.26 L1426.39 1356.74 L1434.41 1352.54 L1442.43 1361.4 L1450.45 1358.24 L1458.46 1351.71 L1466.48 1361.42 L1474.5 1360.34 L1482.52 1354.2 L1490.54 1361.16 L1498.56 1368.08 L1506.57 1360.8 L1514.59 1367.31 L1522.61 1359.36 L1530.63 1368.33 L1538.65 1359.96 L1546.67 1357.3 L1554.68 1359.04 L1562.7 1364.93 L1570.72 1361 L1578.74 1358.86 L1586.76 1356 L1594.78 1360.89 L1602.79 1363.89 L1610.81 1359.45 L1618.83 1363.9 L1626.85 1356.35 L1634.87 1357.48 L1642.89 1352.83 L1650.91 1357.57 L1658.92 1348.87 L1666.94 1359.35 L1674.96 1355.84 L1682.98 1360.72 L1691 1353.69 L1699.02 1353.23 L1707.03 1363.98 L1715.05 1351.92 L1723.07 1358.91 L1731.09 1358.21 L1739.11 1349.44 L1747.13 1360.76 L1755.14 1354.43 L1763.16 1354.19 L1771.18 1345.02 L1779.2 1345.96 L1787.22 1355.96 L1795.24 1356.03 L1803.25 1348.69 L1811.27 1349.09 L1819.29 1351.9 L1827.31 1353.1 L1835.33 1342.56 L1843.35 1358.15 L1851.37 1343.84 L1859.38 1352.9 L1867.4 1351.38 L1875.42 1347.19 L1883.44 1356.14 L1891.46 1351.01 L1899.48 1353.43 L1907.49 1351.41 L1915.51 1360.56 L1923.53 1354.23 L1931.55 1363.46 L1939.57 1353.38 L1947.59 1358.05 L1955.6 1355.75 L1963.62 1363.45 L1971.64 1354.45 L1979.66 1361.17 L1987.68 1361.42 L1995.7 1354.04 L2003.71 1362.16 L2011.73 1353.01 L2019.75 1356.48 L2027.77 1356.83 L2035.79 1350.43 L2043.81 1355.54 L2051.83 1355.15 L2059.84 1357.53 L2067.86 1352.68 L2075.88 1345.92 L2083.9 1360.09 L2091.92 1353.04 L2099.94 1352.67 L2107.95 1354.59 L2115.97 1353.82 L2123.99 1347.26 L2132.01 1352.58 L2140.03 1345.77 L2148.05 1345.07 L2156.06 1351.4 L2164.08 1347.81 L2172.1 1347.43 L2180.12 1344.04 L2188.14 1347.51 L2196.16 1346.29 L2204.17 1344.84 L2212.19 1352.25 L2220.21 1351.54 L2228.23 1345.01 L2236.25 1347.23 L2244.27 1336.35 L2252.29 1342.45 L2260.3 1353.43 L2268.32 1341.11 L2276.34 1346.8 L2284.36 1355.53 L2292.38 1349.38 L2292.38 1121.19 L2284.36 1121.12 L2276.34 1124.14 L2268.32 1128.3 L2260.3 1128.01 L2252.29 1124.31 L2244.27 1123.05 L2236.25 1139.37 L2228.23 1124.45 L2220.21 1136.78 L2212.19 1126.99 L2204.17 1127.84 L2196.16 1129.8 L2188.14 1124.74 L2180.12 1123.89 L2172.1 1122.89 L2164.08 1133.44 L2156.06 1125.12 L2148.05 1119.65 L2140.03 1106.69 L2132.01 1121.6 L2123.99 1124.1 L2115.97 1121.88 L2107.95 1124.37 L2099.94 1112.02 L2091.92 1120.99 L2083.9 1117.11 L2075.88 1119.45 L2067.86 1118.22 L2059.84 1118.36 L2051.83 1122.44 L2043.81 1121.73 L2035.79 1120.41 L2027.77 1111.66 L2019.75 1115.7 L2011.73 1110.18 L2003.71 1116.17 L1995.7 1112.78 L1987.68 1109.88 L1979.66 1111.22 L1971.64 1126.73 L1963.62 1121.75 L1955.6 1115.74 L1947.59 1121.27 L1939.57 1121.88 L1931.55 1117.86 L1923.53 1115.85 L1915.51 1129.43 L1907.49 1118.74 L1899.48 1119.85 L1891.46 1124.2 L1883.44 1127.83 L1875.42 1120.13 L1867.4 1113.64 L1859.38 1119.55 L1851.37 1130.64 L1843.35 1125.44 L1835.33 1114.29 L1827.31 1131.73 L1819.29 1125.16 L1811.27 1131.79 L1803.25 1120.72 L1795.24 1126.76 L1787.22 1118.45 L1779.2 1125.74 L1771.18 1123.84 L1763.16 1129.28 L1755.14 1128.82 L1747.13 1130.26 L1739.11 1133.92 L1731.09 1124.9 L1723.07 1129.7 L1715.05 1127.39 L1707.03 1127.27 L1699.02 1130.32 L1691 1130.03 L1682.98 1125.94 L1674.96 1131.2 L1666.94 1120.84 L1658.92 1115.47 L1650.91 1124.15 L1642.89 1133.2 L1634.87 1141.32 L1626.85 1122.55 L1618.83 1128.71 L1610.81 1118.66 L1602.79 1131.22 L1594.78 1132.89 L1586.76 1121.06 L1578.74 1123.55 L1570.72 1123.53 L1562.7 1123.44 L1554.68 1117.42 L1546.67 1121.04 L1538.65 1121.02 L1530.63 1119.35 L1522.61 1115.77 L1514.59 1118.08 L1506.57 1127.91 L1498.56 1124.05 L1490.54 1122.29 L1482.52 1125.15 L1474.5 1125.22 L1466.48 1119.32 L1458.46 1128.57 L1450.45 1120.29 L1442.43 1122.24 L1434.41 1118.3 L1426.39 1116.94 L1418.37 1118.12 L1410.35 1122.52 L1402.33 1117.83 L1394.32 1118.65 L1386.3 1112.86 L1378.28 1122.35 L1370.26 1115.29 L1362.24 1120.84 L1354.22 1120.73 L1346.21 1115.22 L1338.19 1111.56 L1330.17 1112.57 L1322.15 1118.54 L1314.13 1108.02 L1306.11 1109.18 L1298.1 1110.47 L1290.08 1118.19 L1282.06 1125.44 L1274.04 1131.89 L1266.02 1126.98 L1258 1113.28 L1249.99 1110.73 L1241.97 1122.64 L1233.95 1116.48 L1225.93 1129.09 L1217.91 1116.55 L1209.89 1127.46 L1201.87 1125.19 L1193.86 1127.92 L1185.84 1129.05 L1177.82 1125.82 L1169.8 1125.13 L1161.78 1128.52 L1153.76 1125.44 L1145.75 1123.66 L1137.73 1122.77 L1129.71 1120.58 L1121.69 1117.25 L1113.67 1121.49 L1105.65 1117.85 L1097.64 1118.34 L1089.62 1119.58 L1081.6 1125.79 L1073.58 1117.25 L1065.56 1128.95 L1057.54 1124.3 L1049.53 1118.06 L1041.51 1113.71 L1033.49 1109.93 L1025.47 1114.77 L1017.45 1106.86 L1009.43 1101.74 L1001.41 1098.24 L993.396 1107.23 L985.378 1106.49 L977.36 1105.01 L969.341 1106.06 L961.323 1115.39 L953.304 1111.83 L945.286 1102.58 L937.268 1101.74 L929.249 1116.47 L921.231 1112.11 L913.212 1114.6 L905.194 1107.66 L897.176 1106.07 L889.157 1100.44 L881.139 1102.51 L873.12 1116.36 L865.102 1094.96 L857.084 1103.06 L849.065 1103.87 L841.047 1098.92 L833.028 1096.82 L825.01 1104.95 L816.992 1095.35 L808.973 1099.65 L800.955 1083.11 L792.936 1105.34 L784.918 1099.17 L776.9 1073.58 L768.881 1090.26 L760.863 1080.68 L752.844 1087.36 L744.826 1080.65 L736.808 1079.29 L728.789 1078.98 L720.771 1075.63 L712.752 1074.69 L704.734 1071.61 L696.716 1067.51 L688.697 1070.11 L680.679 1060.36 L672.66 1070.81 L664.642 1055.26 L656.624 1067.31 L648.605 1052.1 L640.587 1050.47 L632.568 1042.13 L624.55 1036.09 L616.532 1035.84 L608.513 1024.28 L600.495 1018.4 L592.476 1022.55 L584.458 1013.76 L576.44 998.279 L568.421 1001.8 L560.403 986.034 L552.384 982.443 L544.366 972.307 L536.348 964.148 L528.329 962.614 L520.311 951.536 L512.292 928.509 L504.274 933.466 L496.256 916.745 L488.237 910.042 L480.219 899.422 L472.2 888.787 L464.182 877.695 L456.164 853.543 L448.145 844.982 L440.127 802.441 L432.108 812.527 L424.09 784.929 L416.072 774.671 L408.053 753.717 L400.035 733.994 L392.016 717.675 L383.998 691.843 L375.98 668.428 L367.961 634.707 L359.943 615.867 L351.924 580.35 L343.906 552.806 L335.888 523.553 L327.869 476.654 L319.851 439.924 L311.832 403.353 L303.814 341.787 L295.796 284.55 L287.777 215.427 L279.759 139.268  Z" fill="#000080" fill-rule="evenodd" fill-opacity="0.2"/>
<polyline clip-path="url(#clip372)" style="stroke:#000080; stroke-linecap:round; stroke-linejoin:round; stroke-width:4; stroke-opacity:0.2; fill:none" points="279.759,353.715 287.777,450.975 295.796,521.426 303.814,586.905 311.832,639.65 319.851,687.021 327.869,724.441 335.888,765.19 343.906,812.206 351.924,845.752 359.943,871.015 367.961,909.888 375.98,936.286 383.998,949.094 392.016,974.794 400.035,1009.95 408.053,1024.63 416.072,1040.8 424.09,1067.26 432.108,1083.03 440.127,1102.32 448.145,1112.29 456.164,1127.73 464.182,1136.7 472.2,1145.88 480.219,1150.5 488.237,1173.72 496.256,1176.76 504.274,1188.42 512.292,1198.8 520.311,1199.91 528.329,1213.26 536.348,1216.3 544.366,1224.09 552.384,1225.23 560.403,1231.82 568.421,1246.81 576.44,1260.04 584.458,1261.41 592.476,1268.18 600.495,1257.95 608.513,1274.82 616.532,1277 624.55,1283.99 632.568,1292.84 640.587,1295.73 648.605,1292.54 656.624,1301.49 664.642,1304.25 672.66,1308.71 680.679,1313.02 688.697,1313.78 696.716,1308.42 704.734,1317.61 712.752,1322.55 720.771,1326.58 728.789,1332.23 736.808,1327.47 744.826,1326.33 752.844,1329.15 760.863,1328.06 768.881,1333.47 776.9,1328.02 784.918,1328.37 792.936,1331.17 800.955,1333.26 808.973,1349.11 816.992,1339.29 825.01,1343.15 833.028,1345.49 841.047,1336.99 849.065,1335.77 857.084,1336.11 865.102,1339.21 873.12,1349.17 881.139,1340.54 889.157,1344.22 897.176,1341.59 905.194,1333.65 913.212,1346.46 921.231,1352.04 929.249,1352.94 937.268,1342.14 945.286,1349.52 953.304,1351.23 961.323,1346.26 969.341,1355.29 977.36,1353.25 985.378,1354.86 993.396,1341.9 1001.41,1354.7 1009.43,1355.09 1017.45,1355.05 1025.47,1352.59 1033.49,1361.67 1041.51,1363.11 1049.53,1354.24 1057.54,1356.02 1065.56,1360.4 1073.58,1353.61 1081.6,1353.18 1089.62,1357.63 1097.64,1355.64 1105.65,1369.54 1113.67,1360.56 1121.69,1363.05 1129.71,1365.55 1137.73,1361.53 1145.75,1362.4 1153.76,1354.29 1161.78,1358.21 1169.8,1374.12 1177.82,1369.84 1185.84,1360.47 1193.86,1363.67 1201.87,1364.62 1209.89,1361.32 1217.91,1354.92 1225.93,1362.31 1233.95,1356.58 1241.97,1360.13 1249.99,1352.69 1258,1351.06 1266.02,1355.98 1274.04,1355.72 1282.06,1361.4 1290.08,1353.6 1298.1,1351.3 1306.11,1353.28 1314.13,1352.37 1322.15,1349.9 1330.17,1352.31 1338.19,1347.95 1346.21,1358.29 1354.22,1352.37 1362.24,1346.18 1370.26,1342.11 1378.28,1343.82 1386.3,1363 1394.32,1352.22 1402.33,1351.47 1410.35,1348.48 1418.37,1348.26 1426.39,1356.74 1434.41,1352.54 1442.43,1361.4 1450.45,1358.24 1458.46,1351.71 1466.48,1361.42 1474.5,1360.34 1482.52,1354.2 1490.54,1361.16 1498.56,1368.08 1506.57,1360.8 1514.59,1367.31 1522.61,1359.36 1530.63,1368.33 1538.65,1359.96 1546.67,1357.3 1554.68,1359.04 1562.7,1364.93 1570.72,1361 1578.74,1358.86 1586.76,1356 1594.78,1360.89 1602.79,1363.89 1610.81,1359.45 1618.83,1363.9 1626.85,1356.35 1634.87,1357.48 1642.89,1352.83 1650.91,1357.57 1658.92,1348.87 1666.94,1359.35 1674.96,1355.84 1682.98,1360.72 1691,1353.69 1699.02,1353.23 1707.03,1363.98 1715.05,1351.92 1723.07,1358.91 1731.09,1358.21 1739.11,1349.44 1747.13,1360.76 1755.14,1354.43 1763.16,1354.19 1771.18,1345.02 1779.2,1345.96 1787.22,1355.96 1795.24,1356.03 1803.25,1348.69 1811.27,1349.09 1819.29,1351.9 1827.31,1353.1 1835.33,1342.56 1843.35,1358.15 1851.37,1343.84 1859.38,1352.9 1867.4,1351.38 1875.42,1347.19 1883.44,1356.14 1891.46,1351.01 1899.48,1353.43 1907.49,1351.41 1915.51,1360.56 1923.53,1354.23 1931.55,1363.46 1939.57,1353.38 1947.59,1358.05 1955.6,1355.75 1963.62,1363.45 1971.64,1354.45 1979.66,1361.17 1987.68,1361.42 1995.7,1354.04 2003.71,1362.16 2011.73,1353.01 2019.75,1356.48 2027.77,1356.83 2035.79,1350.43 2043.81,1355.54 2051.83,1355.15 2059.84,1357.53 2067.86,1352.68 2075.88,1345.92 2083.9,1360.09 2091.92,1353.04 2099.94,1352.67 2107.95,1354.59 2115.97,1353.82 2123.99,1347.26 2132.01,1352.58 2140.03,1345.77 2148.05,1345.07 2156.06,1351.4 2164.08,1347.81 2172.1,1347.43 2180.12,1344.04 2188.14,1347.51 2196.16,1346.29 2204.17,1344.84 2212.19,1352.25 2220.21,1351.54 2228.23,1345.01 2236.25,1347.23 2244.27,1336.35 2252.29,1342.45 2260.3,1353.43 2268.32,1341.11 2276.34,1346.8 2284.36,1355.53 2292.38,1349.38 "/>
<path clip-path="url(#clip370)" d="M1649.44 353.276 L2281.64 353.276 L2281.64 145.916 L1649.44 145.916  Z" fill="#ffffff" fill-rule="evenodd" fill-opacity="1"/>
<polyline clip-path="url(#clip370)" style="stroke:#000000; stroke-linecap:round; stroke-linejoin:round; stroke-width:4; stroke-opacity:1; fill:none" points="1649.44,353.276 2281.64,353.276 2281.64,145.916 1649.44,145.916 1649.44,353.276 "/>
<polyline clip-path="url(#clip370)" style="stroke:#ff0000; stroke-linecap:round; stroke-linejoin:round; stroke-width:8; stroke-opacity:1; fill:none" stroke-dasharray="32, 20" points="1673.15,197.756 1815.37,197.756 "/>
<path clip-path="url(#clip370)" d="M1855.09 183.647 Q1850 183.647 1846.99 187.443 Q1844.01 191.24 1844.01 197.79 Q1844.01 204.318 1846.99 208.114 Q1850 211.911 1855.09 211.911 Q1860.19 211.911 1863.15 208.114 Q1866.14 204.318 1866.14 197.79 Q1866.14 191.24 1863.15 187.443 Q1860.19 183.647 1855.09 183.647 M1855.09 179.851 Q1862.36 179.851 1866.71 184.735 Q1871.07 189.596 1871.07 197.79 Q1871.07 205.962 1866.71 210.846 Q1862.36 215.707 1855.09 215.707 Q1847.8 215.707 1843.43 210.846 Q1839.08 205.985 1839.08 197.79 Q1839.08 189.596 1843.43 184.735 Q1847.8 179.851 1855.09 179.851 Z" fill="#000000" fill-rule="nonzero" fill-opacity="1" /><path clip-path="url(#clip370)" d="M1896.81 202.096 Q1896.81 197.397 1894.86 194.735 Q1892.94 192.05 1889.56 192.05 Q1886.18 192.05 1884.24 194.735 Q1882.32 197.397 1882.32 202.096 Q1882.32 206.795 1884.24 209.48 Q1886.18 212.142 1889.56 212.142 Q1892.94 212.142 1894.86 209.48 Q1896.81 206.795 1896.81 202.096 M1882.32 193.045 Q1883.66 190.73 1885.7 189.619 Q1887.76 188.485 1890.6 188.485 Q1895.33 188.485 1898.27 192.235 Q1901.23 195.985 1901.23 202.096 Q1901.23 208.207 1898.27 211.957 Q1895.33 215.707 1890.6 215.707 Q1887.76 215.707 1885.7 214.596 Q1883.66 213.462 1882.32 211.147 L1882.32 215.036 L1878.03 215.036 L1878.03 179.017 L1882.32 179.017 L1882.32 193.045 Z" fill="#000000" fill-rule="nonzero" fill-opacity="1" /><path clip-path="url(#clip370)" d="M1924.82 189.874 L1924.82 193.902 Q1923.01 192.976 1921.07 192.513 Q1919.12 192.05 1917.04 192.05 Q1913.87 192.05 1912.27 193.022 Q1910.7 193.994 1910.7 195.939 Q1910.7 197.42 1911.83 198.277 Q1912.96 199.11 1916.39 199.874 L1917.85 200.198 Q1922.39 201.17 1924.28 202.952 Q1926.2 204.712 1926.2 207.883 Q1926.2 211.494 1923.33 213.601 Q1920.49 215.707 1915.49 215.707 Q1913.4 215.707 1911.14 215.29 Q1908.89 214.897 1906.39 214.087 L1906.39 209.689 Q1908.75 210.915 1911.04 211.54 Q1913.33 212.142 1915.58 212.142 Q1918.59 212.142 1920.21 211.124 Q1921.83 210.082 1921.83 208.207 Q1921.83 206.471 1920.65 205.545 Q1919.49 204.619 1915.53 203.763 L1914.05 203.415 Q1910.09 202.582 1908.33 200.869 Q1906.58 199.133 1906.58 196.124 Q1906.58 192.466 1909.17 190.476 Q1911.76 188.485 1916.53 188.485 Q1918.89 188.485 1920.97 188.832 Q1923.06 189.179 1924.82 189.874 Z" fill="#000000" fill-rule="nonzero" fill-opacity="1" /><path clip-path="url(#clip370)" d="M1955.16 201.008 L1955.16 203.091 L1935.58 203.091 Q1935.86 207.489 1938.22 209.804 Q1940.6 212.096 1944.84 212.096 Q1947.29 212.096 1949.58 211.494 Q1951.9 210.892 1954.17 209.689 L1954.17 213.716 Q1951.88 214.688 1949.47 215.198 Q1947.06 215.707 1944.58 215.707 Q1938.38 215.707 1934.75 212.096 Q1931.14 208.485 1931.14 202.327 Q1931.14 195.962 1934.56 192.235 Q1938.01 188.485 1943.84 188.485 Q1949.08 188.485 1952.11 191.865 Q1955.16 195.221 1955.16 201.008 M1950.9 199.758 Q1950.86 196.263 1948.94 194.179 Q1947.04 192.096 1943.89 192.096 Q1940.33 192.096 1938.17 194.11 Q1936.04 196.124 1935.72 199.781 L1950.9 199.758 Z" fill="#000000" fill-rule="nonzero" fill-opacity="1" /><path clip-path="url(#clip370)" d="M1977.18 193.091 Q1976.46 192.675 1975.6 192.49 Q1974.77 192.281 1973.75 192.281 Q1970.14 192.281 1968.2 194.642 Q1966.27 196.98 1966.27 201.378 L1966.27 215.036 L1961.99 215.036 L1961.99 189.11 L1966.27 189.11 L1966.27 193.138 Q1967.62 190.777 1969.77 189.642 Q1971.92 188.485 1975 188.485 Q1975.44 188.485 1975.97 188.554 Q1976.51 188.601 1977.15 188.716 L1977.18 193.091 Z" fill="#000000" fill-rule="nonzero" fill-opacity="1" /><path clip-path="url(#clip370)" d="M1978.59 189.11 L1983.1 189.11 L1991.2 210.869 L1999.31 189.11 L2003.82 189.11 L1994.1 215.036 L1988.31 215.036 L1978.59 189.11 Z" fill="#000000" fill-rule="nonzero" fill-opacity="1" /><path clip-path="url(#clip370)" d="M2031.88 201.008 L2031.88 203.091 L2012.29 203.091 Q2012.57 207.489 2014.93 209.804 Q2017.32 212.096 2021.55 212.096 Q2024.01 212.096 2026.3 211.494 Q2028.61 210.892 2030.88 209.689 L2030.88 213.716 Q2028.59 214.688 2026.18 215.198 Q2023.77 215.707 2021.3 215.707 Q2015.09 215.707 2011.46 212.096 Q2007.85 208.485 2007.85 202.327 Q2007.85 195.962 2011.27 192.235 Q2014.72 188.485 2020.56 188.485 Q2025.79 188.485 2028.82 191.865 Q2031.88 195.221 2031.88 201.008 M2027.62 199.758 Q2027.57 196.263 2025.65 194.179 Q2023.75 192.096 2020.6 192.096 Q2017.04 192.096 2014.88 194.11 Q2012.76 196.124 2012.43 199.781 L2027.62 199.758 Z" fill="#000000" fill-rule="nonzero" fill-opacity="1" /><path clip-path="url(#clip370)" d="M2055.93 193.045 L2055.93 179.017 L2060.19 179.017 L2060.19 215.036 L2055.93 215.036 L2055.93 211.147 Q2054.58 213.462 2052.52 214.596 Q2050.49 215.707 2047.62 215.707 Q2042.92 215.707 2039.95 211.957 Q2037.01 208.207 2037.01 202.096 Q2037.01 195.985 2039.95 192.235 Q2042.92 188.485 2047.62 188.485 Q2050.49 188.485 2052.52 189.619 Q2054.58 190.73 2055.93 193.045 M2041.41 202.096 Q2041.41 206.795 2043.33 209.48 Q2045.28 212.142 2048.66 212.142 Q2052.04 212.142 2053.98 209.48 Q2055.93 206.795 2055.93 202.096 Q2055.93 197.397 2053.98 194.735 Q2052.04 192.05 2048.66 192.05 Q2045.28 192.05 2043.33 194.735 Q2041.41 197.397 2041.41 202.096 Z" fill="#000000" fill-rule="nonzero" fill-opacity="1" /><polyline clip-path="url(#clip370)" style="stroke:#000080; stroke-linecap:round; stroke-linejoin:round; stroke-width:8; stroke-opacity:1; fill:none" points="1673.15,249.596 1815.37,249.596 "/>
<path clip-path="url(#clip370)" d="M1861.32 233.45 L1861.32 238.01 Q1858.66 236.737 1856.3 236.112 Q1853.94 235.487 1851.74 235.487 Q1847.92 235.487 1845.83 236.968 Q1843.77 238.45 1843.77 241.181 Q1843.77 243.473 1845.14 244.654 Q1846.53 245.811 1850.37 246.529 L1853.2 247.107 Q1858.43 248.103 1860.9 250.626 Q1863.4 253.126 1863.4 257.339 Q1863.4 262.362 1860.02 264.954 Q1856.67 267.547 1850.16 267.547 Q1847.71 267.547 1844.93 266.991 Q1842.18 266.436 1839.21 265.348 L1839.21 260.533 Q1842.06 262.13 1844.79 262.941 Q1847.52 263.751 1850.16 263.751 Q1854.17 263.751 1856.34 262.177 Q1858.52 260.603 1858.52 257.686 Q1858.52 255.14 1856.95 253.704 Q1855.4 252.269 1851.83 251.552 L1848.98 250.996 Q1843.75 249.955 1841.41 247.732 Q1839.08 245.51 1839.08 241.552 Q1839.08 236.968 1842.29 234.33 Q1845.53 231.691 1851.21 231.691 Q1853.64 231.691 1856.16 232.131 Q1858.68 232.57 1861.32 233.45 Z" fill="#000000" fill-rule="nonzero" fill-opacity="1" /><path clip-path="url(#clip370)" d="M1870.51 240.95 L1874.77 240.95 L1874.77 266.876 L1870.51 266.876 L1870.51 240.95 M1870.51 230.857 L1874.77 230.857 L1874.77 236.251 L1870.51 236.251 L1870.51 230.857 Z" fill="#000000" fill-rule="nonzero" fill-opacity="1" /><path clip-path="url(#clip370)" d="M1903.87 245.927 Q1905.46 243.056 1907.69 241.691 Q1909.91 240.325 1912.92 240.325 Q1916.97 240.325 1919.17 243.172 Q1921.37 245.996 1921.37 251.228 L1921.37 266.876 L1917.08 266.876 L1917.08 251.367 Q1917.08 247.64 1915.77 245.834 Q1914.45 244.029 1911.74 244.029 Q1908.43 244.029 1906.51 246.228 Q1904.58 248.427 1904.58 252.223 L1904.58 266.876 L1900.3 266.876 L1900.3 251.367 Q1900.3 247.617 1898.98 245.834 Q1897.66 244.029 1894.91 244.029 Q1891.64 244.029 1889.72 246.251 Q1887.8 248.45 1887.8 252.223 L1887.8 266.876 L1883.52 266.876 L1883.52 240.95 L1887.8 240.95 L1887.8 244.978 Q1889.26 242.593 1891.3 241.459 Q1893.33 240.325 1896.14 240.325 Q1898.96 240.325 1900.93 241.76 Q1902.92 243.195 1903.87 245.927 Z" fill="#000000" fill-rule="nonzero" fill-opacity="1" /><path clip-path="url(#clip370)" d="M1929.42 256.644 L1929.42 240.95 L1933.68 240.95 L1933.68 256.482 Q1933.68 260.163 1935.12 262.015 Q1936.55 263.843 1939.42 263.843 Q1942.87 263.843 1944.86 261.644 Q1946.88 259.445 1946.88 255.649 L1946.88 240.95 L1951.14 240.95 L1951.14 266.876 L1946.88 266.876 L1946.88 262.894 Q1945.33 265.255 1943.26 266.413 Q1941.23 267.547 1938.52 267.547 Q1934.05 267.547 1931.74 264.769 Q1929.42 261.991 1929.42 256.644 M1940.14 240.325 L1940.14 240.325 Z" fill="#000000" fill-rule="nonzero" fill-opacity="1" /><path clip-path="url(#clip370)" d="M1959.91 230.857 L1964.17 230.857 L1964.17 266.876 L1959.91 266.876 L1959.91 230.857 Z" fill="#000000" fill-rule="nonzero" fill-opacity="1" /><path clip-path="url(#clip370)" d="M1984.86 253.843 Q1979.7 253.843 1977.71 255.024 Q1975.72 256.204 1975.72 259.052 Q1975.72 261.32 1977.2 262.663 Q1978.7 263.982 1981.27 263.982 Q1984.82 263.982 1986.95 261.482 Q1989.1 258.959 1989.1 254.792 L1989.1 253.843 L1984.86 253.843 M1993.36 252.084 L1993.36 266.876 L1989.1 266.876 L1989.1 262.941 Q1987.64 265.302 1985.46 266.436 Q1983.29 267.547 1980.14 267.547 Q1976.16 267.547 1973.8 265.325 Q1971.46 263.079 1971.46 259.329 Q1971.46 254.954 1974.38 252.732 Q1977.32 250.51 1983.13 250.51 L1989.1 250.51 L1989.1 250.093 Q1989.1 247.154 1987.15 245.556 Q1985.23 243.936 1981.74 243.936 Q1979.51 243.936 1977.41 244.468 Q1975.3 245.001 1973.36 246.066 L1973.36 242.13 Q1975.7 241.228 1977.89 240.788 Q1980.09 240.325 1982.18 240.325 Q1987.8 240.325 1990.58 243.242 Q1993.36 246.158 1993.36 252.084 Z" fill="#000000" fill-rule="nonzero" fill-opacity="1" /><path clip-path="url(#clip370)" d="M2006.34 233.589 L2006.34 240.95 L2015.12 240.95 L2015.12 244.26 L2006.34 244.26 L2006.34 258.334 Q2006.34 261.505 2007.2 262.408 Q2008.08 263.311 2010.74 263.311 L2015.12 263.311 L2015.12 266.876 L2010.74 266.876 Q2005.81 266.876 2003.94 265.047 Q2002.06 263.195 2002.06 258.334 L2002.06 244.26 L1998.94 244.26 L1998.94 240.95 L2002.06 240.95 L2002.06 233.589 L2006.34 233.589 Z" fill="#000000" fill-rule="nonzero" fill-opacity="1" /><path clip-path="url(#clip370)" d="M2042.89 252.848 L2042.89 254.931 L2023.31 254.931 Q2023.59 259.329 2025.95 261.644 Q2028.33 263.936 2032.57 263.936 Q2035.02 263.936 2037.32 263.334 Q2039.63 262.732 2041.9 261.529 L2041.9 265.556 Q2039.61 266.528 2037.2 267.038 Q2034.79 267.547 2032.32 267.547 Q2026.11 267.547 2022.48 263.936 Q2018.87 260.325 2018.87 254.167 Q2018.87 247.802 2022.29 244.075 Q2025.74 240.325 2031.57 240.325 Q2036.81 240.325 2039.84 243.705 Q2042.89 247.061 2042.89 252.848 M2038.63 251.598 Q2038.59 248.103 2036.67 246.019 Q2034.77 243.936 2031.62 243.936 Q2028.06 243.936 2025.9 245.95 Q2023.77 247.964 2023.45 251.621 L2038.63 251.598 Z" fill="#000000" fill-rule="nonzero" fill-opacity="1" /><path clip-path="url(#clip370)" d="M2066.94 244.885 L2066.94 230.857 L2071.2 230.857 L2071.2 266.876 L2066.94 266.876 L2066.94 262.987 Q2065.6 265.302 2063.54 266.436 Q2061.51 267.547 2058.63 267.547 Q2053.94 267.547 2050.97 263.797 Q2048.03 260.047 2048.03 253.936 Q2048.03 247.825 2050.97 244.075 Q2053.94 240.325 2058.63 240.325 Q2061.51 240.325 2063.54 241.459 Q2065.6 242.57 2066.94 244.885 M2052.43 253.936 Q2052.43 258.635 2054.35 261.32 Q2056.3 263.982 2059.68 263.982 Q2063.06 263.982 2065 261.32 Q2066.94 258.635 2066.94 253.936 Q2066.94 249.237 2065 246.575 Q2063.06 243.89 2059.68 243.89 Q2056.3 243.89 2054.35 246.575 Q2052.43 249.237 2052.43 253.936 Z" fill="#000000" fill-rule="nonzero" fill-opacity="1" /><path clip-path="url(#clip370)" d="M2105.28 230.904 Q2102.18 236.228 2100.67 241.436 Q2099.17 246.644 2099.17 251.992 Q2099.17 257.339 2100.67 262.593 Q2102.2 267.825 2105.28 273.126 L2101.57 273.126 Q2098.1 267.686 2096.37 262.431 Q2094.65 257.177 2094.65 251.992 Q2094.65 246.83 2096.37 241.598 Q2098.08 236.367 2101.57 230.904 L2105.28 230.904 Z" fill="#000000" fill-rule="nonzero" fill-opacity="1" /><path clip-path="url(#clip370)" d="M2133.73 245.927 Q2135.32 243.056 2137.55 241.691 Q2139.77 240.325 2142.78 240.325 Q2146.83 240.325 2149.03 243.172 Q2151.23 245.996 2151.23 251.228 L2151.23 266.876 L2146.94 266.876 L2146.94 251.367 Q2146.94 247.64 2145.62 245.834 Q2144.31 244.029 2141.6 244.029 Q2138.29 244.029 2136.37 246.228 Q2134.44 248.427 2134.44 252.223 L2134.44 266.876 L2130.16 266.876 L2130.16 251.367 Q2130.16 247.617 2128.84 245.834 Q2127.52 244.029 2124.77 244.029 Q2121.5 244.029 2119.58 246.251 Q2117.66 248.45 2117.66 252.223 L2117.66 266.876 L2113.38 266.876 L2113.38 240.95 L2117.66 240.95 L2117.66 244.978 Q2119.12 242.593 2121.16 241.459 Q2123.19 240.325 2126 240.325 Q2128.82 240.325 2130.79 241.76 Q2132.78 243.195 2133.73 245.927 Z" fill="#000000" fill-rule="nonzero" fill-opacity="1" /><path clip-path="url(#clip370)" d="M2181.9 252.848 L2181.9 254.931 L2162.31 254.931 Q2162.59 259.329 2164.95 261.644 Q2167.34 263.936 2171.57 263.936 Q2174.03 263.936 2176.32 263.334 Q2178.63 262.732 2180.9 261.529 L2180.9 265.556 Q2178.61 266.528 2176.2 267.038 Q2173.8 267.547 2171.32 267.547 Q2165.12 267.547 2161.48 263.936 Q2157.87 260.325 2157.87 254.167 Q2157.87 247.802 2161.3 244.075 Q2164.75 240.325 2170.58 240.325 Q2175.81 240.325 2178.84 243.705 Q2181.9 247.061 2181.9 252.848 M2177.64 251.598 Q2177.59 248.103 2175.67 246.019 Q2173.77 243.936 2170.62 243.936 Q2167.06 243.936 2164.91 245.95 Q2162.78 247.964 2162.45 251.621 L2177.64 251.598 Z" fill="#000000" fill-rule="nonzero" fill-opacity="1" /><path clip-path="url(#clip370)" d="M2200.67 253.843 Q2195.51 253.843 2193.52 255.024 Q2191.53 256.204 2191.53 259.052 Q2191.53 261.32 2193.01 262.663 Q2194.51 263.982 2197.08 263.982 Q2200.62 263.982 2202.75 261.482 Q2204.91 258.959 2204.91 254.792 L2204.91 253.843 L2200.67 253.843 M2209.17 252.084 L2209.17 266.876 L2204.91 266.876 L2204.91 262.941 Q2203.45 265.302 2201.27 266.436 Q2199.1 267.547 2195.95 267.547 Q2191.97 267.547 2189.61 265.325 Q2187.27 263.079 2187.27 259.329 Q2187.27 254.954 2190.18 252.732 Q2193.12 250.51 2198.93 250.51 L2204.91 250.51 L2204.91 250.093 Q2204.91 247.154 2202.96 245.556 Q2201.04 243.936 2197.55 243.936 Q2195.32 243.936 2193.22 244.468 Q2191.11 245.001 2189.17 246.066 L2189.17 242.13 Q2191.5 241.228 2193.7 240.788 Q2195.9 240.325 2197.99 240.325 Q2203.61 240.325 2206.39 243.242 Q2209.17 246.158 2209.17 252.084 Z" fill="#000000" fill-rule="nonzero" fill-opacity="1" /><path clip-path="url(#clip370)" d="M2239.49 251.228 L2239.49 266.876 L2235.23 266.876 L2235.23 251.367 Q2235.23 247.686 2233.8 245.857 Q2232.36 244.029 2229.49 244.029 Q2226.04 244.029 2224.05 246.228 Q2222.06 248.427 2222.06 252.223 L2222.06 266.876 L2217.78 266.876 L2217.78 240.95 L2222.06 240.95 L2222.06 244.978 Q2223.59 242.64 2225.65 241.482 Q2227.73 240.325 2230.44 240.325 Q2234.91 240.325 2237.2 243.103 Q2239.49 245.857 2239.49 251.228 Z" fill="#000000" fill-rule="nonzero" fill-opacity="1" /><path clip-path="url(#clip370)" d="M2247.31 230.904 L2251.02 230.904 Q2254.49 236.367 2256.2 241.598 Q2257.94 246.83 2257.94 251.992 Q2257.94 257.177 2256.2 262.431 Q2254.49 267.686 2251.02 273.126 L2247.31 273.126 Q2250.39 267.825 2251.9 262.593 Q2253.43 257.339 2253.43 251.992 Q2253.43 246.644 2251.9 241.436 Q2250.39 236.228 2247.31 230.904 Z" fill="#000000" fill-rule="nonzero" fill-opacity="1" /><path clip-path="url(#clip370)" d="M1673.15 322.172 L1815.37 322.172 L1815.37 280.7 L1673.15 280.7 L1673.15 322.172  Z" fill="#000080" fill-rule="evenodd" fill-opacity="0.2"/>
<polyline clip-path="url(#clip370)" style="stroke:#000080; stroke-linecap:round; stroke-linejoin:round; stroke-width:4; stroke-opacity:0.2; fill:none" points="1673.15,280.7 1815.37,280.7 "/>
<path clip-path="url(#clip370)" d="M1839.75 314.781 L1847.39 314.781 L1847.39 288.415 L1839.08 290.082 L1839.08 285.822 L1847.34 284.156 L1852.02 284.156 L1852.02 314.781 L1859.65 314.781 L1859.65 318.716 L1839.75 318.716 L1839.75 314.781 Z" fill="#000000" fill-rule="nonzero" fill-opacity="1" /><path clip-path="url(#clip370)" d="M1879.1 287.234 Q1875.49 287.234 1873.66 290.799 Q1871.85 294.341 1871.85 301.47 Q1871.85 308.577 1873.66 312.142 Q1875.49 315.683 1879.1 315.683 Q1882.73 315.683 1884.54 312.142 Q1886.37 308.577 1886.37 301.47 Q1886.37 294.341 1884.54 290.799 Q1882.73 287.234 1879.1 287.234 M1879.1 283.531 Q1884.91 283.531 1887.96 288.137 Q1891.04 292.72 1891.04 301.47 Q1891.04 310.197 1887.96 314.804 Q1884.91 319.387 1879.1 319.387 Q1873.29 319.387 1870.21 314.804 Q1867.15 310.197 1867.15 301.47 Q1867.15 292.72 1870.21 288.137 Q1873.29 283.531 1879.1 283.531 Z" fill="#000000" fill-rule="nonzero" fill-opacity="1" /><path clip-path="url(#clip370)" d="M1896.51 303.832 L1908.98 303.832 L1908.98 307.628 L1896.51 307.628 L1896.51 303.832 Z" fill="#000000" fill-rule="nonzero" fill-opacity="1" /><path clip-path="url(#clip370)" d="M1916.51 317.998 L1916.51 313.739 Q1918.27 314.572 1920.07 315.012 Q1921.88 315.452 1923.61 315.452 Q1928.24 315.452 1930.67 312.35 Q1933.13 309.225 1933.47 302.882 Q1932.13 304.873 1930.07 305.938 Q1928.01 307.003 1925.51 307.003 Q1920.33 307.003 1917.29 303.878 Q1914.28 300.73 1914.28 295.29 Q1914.28 289.966 1917.43 286.748 Q1920.58 283.531 1925.81 283.531 Q1931.81 283.531 1934.95 288.137 Q1938.13 292.72 1938.13 301.47 Q1938.13 309.642 1934.24 314.526 Q1930.37 319.387 1923.82 319.387 Q1922.06 319.387 1920.26 319.04 Q1918.45 318.693 1916.51 317.998 M1925.81 303.345 Q1928.96 303.345 1930.79 301.193 Q1932.64 299.04 1932.64 295.29 Q1932.64 291.563 1930.79 289.41 Q1928.96 287.234 1925.81 287.234 Q1922.66 287.234 1920.81 289.41 Q1918.98 291.563 1918.98 295.29 Q1918.98 299.04 1920.81 301.193 Q1922.66 303.345 1925.81 303.345 Z" fill="#000000" fill-rule="nonzero" fill-opacity="1" /><path clip-path="url(#clip370)" d="M1956.53 287.234 Q1952.92 287.234 1951.09 290.799 Q1949.28 294.341 1949.28 301.47 Q1949.28 308.577 1951.09 312.142 Q1952.92 315.683 1956.53 315.683 Q1960.16 315.683 1961.97 312.142 Q1963.8 308.577 1963.8 301.47 Q1963.8 294.341 1961.97 290.799 Q1960.16 287.234 1956.53 287.234 M1956.53 283.531 Q1962.34 283.531 1965.39 288.137 Q1968.47 292.72 1968.47 301.47 Q1968.47 310.197 1965.39 314.804 Q1962.34 319.387 1956.53 319.387 Q1950.72 319.387 1947.64 314.804 Q1944.58 310.197 1944.58 301.47 Q1944.58 292.72 1947.64 288.137 Q1950.72 283.531 1956.53 283.531 Z" fill="#000000" fill-rule="nonzero" fill-opacity="1" /><path clip-path="url(#clip370)" d="M1980.3 285.429 L1980.3 292.79 L1989.07 292.79 L1989.07 296.1 L1980.3 296.1 L1980.3 310.174 Q1980.3 313.345 1981.16 314.248 Q1982.04 315.151 1984.7 315.151 L1989.07 315.151 L1989.07 318.716 L1984.7 318.716 Q1979.77 318.716 1977.89 316.887 Q1976.02 315.035 1976.02 310.174 L1976.02 296.1 L1972.89 296.1 L1972.89 292.79 L1976.02 292.79 L1976.02 285.429 L1980.3 285.429 Z" fill="#000000" fill-rule="nonzero" fill-opacity="1" /><path clip-path="url(#clip370)" d="M2016.23 303.068 L2016.23 318.716 L2011.97 318.716 L2011.97 303.207 Q2011.97 299.526 2010.53 297.697 Q2009.1 295.869 2006.23 295.869 Q2002.78 295.869 2000.79 298.068 Q1998.8 300.267 1998.8 304.063 L1998.8 318.716 L1994.51 318.716 L1994.51 282.697 L1998.8 282.697 L1998.8 296.818 Q2000.32 294.48 2002.39 293.322 Q2004.47 292.165 2007.18 292.165 Q2011.64 292.165 2013.94 294.943 Q2016.23 297.697 2016.23 303.068 Z" fill="#000000" fill-rule="nonzero" fill-opacity="1" /><path clip-path="url(#clip370)" d="M2043.91 314.827 L2043.91 328.577 L2039.63 328.577 L2039.63 292.79 L2043.91 292.79 L2043.91 296.725 Q2045.26 294.41 2047.29 293.299 Q2049.35 292.165 2052.2 292.165 Q2056.92 292.165 2059.86 295.915 Q2062.82 299.665 2062.82 305.776 Q2062.82 311.887 2059.86 315.637 Q2056.92 319.387 2052.2 319.387 Q2049.35 319.387 2047.29 318.276 Q2045.26 317.142 2043.91 314.827 M2058.4 305.776 Q2058.4 301.077 2056.46 298.415 Q2054.54 295.73 2051.16 295.73 Q2047.78 295.73 2045.83 298.415 Q2043.91 301.077 2043.91 305.776 Q2043.91 310.475 2045.83 313.16 Q2047.78 315.822 2051.16 315.822 Q2054.54 315.822 2056.46 313.16 Q2058.4 310.475 2058.4 305.776 Z" fill="#000000" fill-rule="nonzero" fill-opacity="1" /><path clip-path="url(#clip370)" d="M2088.54 293.785 L2088.54 297.767 Q2086.74 296.771 2084.91 296.285 Q2083.1 295.776 2081.25 295.776 Q2077.11 295.776 2074.82 298.415 Q2072.52 301.031 2072.52 305.776 Q2072.52 310.521 2074.82 313.16 Q2077.11 315.776 2081.25 315.776 Q2083.1 315.776 2084.91 315.29 Q2086.74 314.781 2088.54 313.785 L2088.54 317.72 Q2086.76 318.554 2084.84 318.97 Q2082.94 319.387 2080.79 319.387 Q2074.93 319.387 2071.48 315.706 Q2068.03 312.026 2068.03 305.776 Q2068.03 299.433 2071.51 295.799 Q2075 292.165 2081.07 292.165 Q2083.03 292.165 2084.91 292.582 Q2086.78 292.975 2088.54 293.785 Z" fill="#000000" fill-rule="nonzero" fill-opacity="1" /><path clip-path="url(#clip370)" d="M2100.16 285.429 L2100.16 292.79 L2108.94 292.79 L2108.94 296.1 L2100.16 296.1 L2100.16 310.174 Q2100.16 313.345 2101.02 314.248 Q2101.9 315.151 2104.56 315.151 L2108.94 315.151 L2108.94 318.716 L2104.56 318.716 Q2099.63 318.716 2097.75 316.887 Q2095.88 315.035 2095.88 310.174 L2095.88 296.1 L2092.75 296.1 L2092.75 292.79 L2095.88 292.79 L2095.88 285.429 L2100.16 285.429 Z" fill="#000000" fill-rule="nonzero" fill-opacity="1" /><path clip-path="url(#clip370)" d="M2114.54 282.697 L2118.8 282.697 L2118.8 318.716 L2114.54 318.716 L2114.54 282.697 Z" fill="#000000" fill-rule="nonzero" fill-opacity="1" /></svg>
