<?xml version="1.0" encoding="utf-8"?>
<svg xmlns="http://www.w3.org/2000/svg" xmlns:xlink="http://www.w3.org/1999/xlink" width="600" height="400" viewBox="0 0 2400 1600">
<defs>
  <clipPath id="clip620">
    <rect x="0" y="0" width="2400" height="1600"/>
  </clipPath>
</defs>
<path clip-path="url(#clip620)" d="M0 1600 L2400 1600 L2400 8.88178e-14 L0 8.88178e-14  Z" fill="#ffffff" fill-rule="evenodd" fill-opacity="1"/>
<defs>
  <clipPath id="clip621">
    <rect x="277" y="0" width="1826" height="1561"/>
  </clipPath>
</defs>
<path clip-path="url(#clip620)" d="M203.964 1423.18 L2352.76 1423.18 L2352.76 106.192 L203.964 106.192  Z" fill="#ffffff" fill-rule="evenodd" fill-opacity="1"/>
<defs>
  <clipPath id="clip622">
    <rect x="203" y="106" width="2150" height="1318"/>
  </clipPath>
</defs>
<polyline clip-path="url(#clip622)" style="stroke:#000000; stroke-linecap:round; stroke-linejoin:round; stroke-width:2; stroke-opacity:0.1; fill:none" points="253.85,1423.18 253.85,106.192 "/>
<polyline clip-path="url(#clip622)" style="stroke:#000000; stroke-linecap:round; stroke-linejoin:round; stroke-width:2; stroke-opacity:0.1; fill:none" points="595.353,1423.18 595.353,106.192 "/>
<polyline clip-path="url(#clip622)" style="stroke:#000000; stroke-linecap:round; stroke-linejoin:round; stroke-width:2; stroke-opacity:0.1; fill:none" points="936.857,1423.18 936.857,106.192 "/>
<polyline clip-path="url(#clip622)" style="stroke:#000000; stroke-linecap:round; stroke-linejoin:round; stroke-width:2; stroke-opacity:0.1; fill:none" points="1278.36,1423.18 1278.36,106.192 "/>
<polyline clip-path="url(#clip622)" style="stroke:#000000; stroke-linecap:round; stroke-linejoin:round; stroke-width:2; stroke-opacity:0.1; fill:none" points="1619.86,1423.18 1619.86,106.192 "/>
<polyline clip-path="url(#clip622)" style="stroke:#000000; stroke-linecap:round; stroke-linejoin:round; stroke-width:2; stroke-opacity:0.1; fill:none" points="1961.37,1423.18 1961.37,106.192 "/>
<polyline clip-path="url(#clip622)" style="stroke:#000000; stroke-linecap:round; stroke-linejoin:round; stroke-width:2; stroke-opacity:0.1; fill:none" points="2302.87,1423.18 2302.87,106.192 "/>
<polyline clip-path="url(#clip622)" style="stroke:#000000; stroke-linecap:round; stroke-linejoin:round; stroke-width:2; stroke-opacity:0.1; fill:none" points="203.964,1423.18 2352.76,1423.18 "/>
<polyline clip-path="url(#clip622)" style="stroke:#000000; stroke-linecap:round; stroke-linejoin:round; stroke-width:2; stroke-opacity:0.1; fill:none" points="203.964,1123.75 2352.76,1123.75 "/>
<polyline clip-path="url(#clip622)" style="stroke:#000000; stroke-linecap:round; stroke-linejoin:round; stroke-width:2; stroke-opacity:0.1; fill:none" points="203.964,824.317 2352.76,824.317 "/>
<polyline clip-path="url(#clip622)" style="stroke:#000000; stroke-linecap:round; stroke-linejoin:round; stroke-width:2; stroke-opacity:0.1; fill:none" points="203.964,524.886 2352.76,524.886 "/>
<polyline clip-path="url(#clip622)" style="stroke:#000000; stroke-linecap:round; stroke-linejoin:round; stroke-width:2; stroke-opacity:0.1; fill:none" points="203.964,225.455 2352.76,225.455 "/>
<polyline clip-path="url(#clip620)" style="stroke:#000000; stroke-linecap:round; stroke-linejoin:round; stroke-width:4; stroke-opacity:1; fill:none" points="203.964,1423.18 2352.76,1423.18 "/>
<polyline clip-path="url(#clip620)" style="stroke:#000000; stroke-linecap:round; stroke-linejoin:round; stroke-width:4; stroke-opacity:1; fill:none" points="253.85,1423.18 253.85,1404.28 "/>
<polyline clip-path="url(#clip620)" style="stroke:#000000; stroke-linecap:round; stroke-linejoin:round; stroke-width:4; stroke-opacity:1; fill:none" points="595.353,1423.18 595.353,1404.28 "/>
<polyline clip-path="url(#clip620)" style="stroke:#000000; stroke-linecap:round; stroke-linejoin:round; stroke-width:4; stroke-opacity:1; fill:none" points="936.857,1423.18 936.857,1404.28 "/>
<polyline clip-path="url(#clip620)" style="stroke:#000000; stroke-linecap:round; stroke-linejoin:round; stroke-width:4; stroke-opacity:1; fill:none" points="1278.36,1423.18 1278.36,1404.28 "/>
<polyline clip-path="url(#clip620)" style="stroke:#000000; stroke-linecap:round; stroke-linejoin:round; stroke-width:4; stroke-opacity:1; fill:none" points="1619.86,1423.18 1619.86,1404.28 "/>
<polyline clip-path="url(#clip620)" style="stroke:#000000; stroke-linecap:round; stroke-linejoin:round; stroke-width:4; stroke-opacity:1; fill:none" points="1961.37,1423.18 1961.37,1404.28 "/>
<polyline clip-path="url(#clip620)" style="stroke:#000000; stroke-linecap:round; stroke-linejoin:round; stroke-width:4; stroke-opacity:1; fill:none" points="2302.87,1423.18 2302.87,1404.28 "/>
<path clip-path="url(#clip620)" d="M231.732 1454.1 Q228.121 1454.1 226.293 1457.66 Q224.487 1461.2 224.487 1468.33 Q224.487 1475.44 226.293 1479.01 Q228.121 1482.55 231.732 1482.55 Q235.367 1482.55 237.172 1479.01 Q239.001 1475.44 239.001 1468.33 Q239.001 1461.2 237.172 1457.66 Q235.367 1454.1 231.732 1454.1 M231.732 1450.39 Q237.543 1450.39 240.598 1455 Q243.677 1459.58 243.677 1468.33 Q243.677 1477.06 240.598 1481.67 Q237.543 1486.25 231.732 1486.25 Q225.922 1486.25 222.844 1481.67 Q219.788 1477.06 219.788 1468.33 Q219.788 1459.58 222.844 1455 Q225.922 1450.39 231.732 1450.39 Z" fill="#000000" fill-rule="nonzero" fill-opacity="1" /><path clip-path="url(#clip620)" d="M251.894 1479.7 L256.779 1479.7 L256.779 1485.58 L251.894 1485.58 L251.894 1479.7 Z" fill="#000000" fill-rule="nonzero" fill-opacity="1" /><path clip-path="url(#clip620)" d="M267.01 1451.02 L285.366 1451.02 L285.366 1454.96 L271.292 1454.96 L271.292 1463.43 Q272.311 1463.08 273.329 1462.92 Q274.348 1462.73 275.366 1462.73 Q281.153 1462.73 284.533 1465.9 Q287.913 1469.08 287.913 1474.49 Q287.913 1480.07 284.44 1483.17 Q280.968 1486.25 274.649 1486.25 Q272.473 1486.25 270.204 1485.88 Q267.959 1485.51 265.552 1484.77 L265.552 1480.07 Q267.635 1481.2 269.857 1481.76 Q272.079 1482.32 274.556 1482.32 Q278.561 1482.32 280.899 1480.21 Q283.237 1478.1 283.237 1474.49 Q283.237 1470.88 280.899 1468.77 Q278.561 1466.67 274.556 1466.67 Q272.681 1466.67 270.806 1467.08 Q268.954 1467.5 267.01 1468.38 L267.01 1451.02 Z" fill="#000000" fill-rule="nonzero" fill-opacity="1" /><path clip-path="url(#clip620)" d="M562.506 1481.64 L570.145 1481.64 L570.145 1455.28 L561.835 1456.95 L561.835 1452.69 L570.099 1451.02 L574.775 1451.02 L574.775 1481.64 L582.414 1481.64 L582.414 1485.58 L562.506 1485.58 L562.506 1481.64 Z" fill="#000000" fill-rule="nonzero" fill-opacity="1" /><path clip-path="url(#clip620)" d="M591.858 1479.7 L596.742 1479.7 L596.742 1485.58 L591.858 1485.58 L591.858 1479.7 Z" fill="#000000" fill-rule="nonzero" fill-opacity="1" /><path clip-path="url(#clip620)" d="M616.927 1454.1 Q613.316 1454.1 611.488 1457.66 Q609.682 1461.2 609.682 1468.33 Q609.682 1475.44 611.488 1479.01 Q613.316 1482.55 616.927 1482.55 Q620.562 1482.55 622.367 1479.01 Q624.196 1475.44 624.196 1468.33 Q624.196 1461.2 622.367 1457.66 Q620.562 1454.1 616.927 1454.1 M616.927 1450.39 Q622.738 1450.39 625.793 1455 Q628.872 1459.58 628.872 1468.33 Q628.872 1477.06 625.793 1481.67 Q622.738 1486.25 616.927 1486.25 Q611.117 1486.25 608.039 1481.67 Q604.983 1477.06 604.983 1468.33 Q604.983 1459.58 608.039 1455 Q611.117 1450.39 616.927 1450.39 Z" fill="#000000" fill-rule="nonzero" fill-opacity="1" /><path clip-path="url(#clip620)" d="M904.507 1481.64 L912.146 1481.64 L912.146 1455.28 L903.836 1456.95 L903.836 1452.69 L912.1 1451.02 L916.776 1451.02 L916.776 1481.64 L924.415 1481.64 L924.415 1485.58 L904.507 1485.58 L904.507 1481.64 Z" fill="#000000" fill-rule="nonzero" fill-opacity="1" /><path clip-path="url(#clip620)" d="M933.859 1479.7 L938.743 1479.7 L938.743 1485.58 L933.859 1485.58 L933.859 1479.7 Z" fill="#000000" fill-rule="nonzero" fill-opacity="1" /><path clip-path="url(#clip620)" d="M948.975 1451.02 L967.331 1451.02 L967.331 1454.96 L953.257 1454.96 L953.257 1463.43 Q954.275 1463.08 955.294 1462.92 Q956.313 1462.73 957.331 1462.73 Q963.118 1462.73 966.498 1465.9 Q969.877 1469.08 969.877 1474.49 Q969.877 1480.07 966.405 1483.17 Q962.933 1486.25 956.613 1486.25 Q954.438 1486.25 952.169 1485.88 Q949.924 1485.51 947.516 1484.77 L947.516 1480.07 Q949.6 1481.2 951.822 1481.76 Q954.044 1482.32 956.521 1482.32 Q960.525 1482.32 962.863 1480.21 Q965.201 1478.1 965.201 1474.49 Q965.201 1470.88 962.863 1468.77 Q960.525 1466.67 956.521 1466.67 Q954.646 1466.67 952.771 1467.08 Q950.919 1467.5 948.975 1468.38 L948.975 1451.02 Z" fill="#000000" fill-rule="nonzero" fill-opacity="1" /><path clip-path="url(#clip620)" d="M1249.6 1481.64 L1265.92 1481.64 L1265.92 1485.58 L1243.97 1485.58 L1243.97 1481.64 Q1246.64 1478.89 1251.22 1474.26 Q1255.83 1469.61 1257.01 1468.27 Q1259.25 1465.74 1260.13 1464.01 Q1261.03 1462.25 1261.03 1460.56 Q1261.03 1457.8 1259.09 1456.07 Q1257.17 1454.33 1254.07 1454.33 Q1251.87 1454.33 1249.41 1455.09 Q1246.98 1455.86 1244.2 1457.41 L1244.2 1452.69 Q1247.03 1451.55 1249.48 1450.97 Q1251.94 1450.39 1253.97 1450.39 Q1259.34 1450.39 1262.54 1453.08 Q1265.73 1455.77 1265.73 1460.26 Q1265.73 1462.39 1264.92 1464.31 Q1264.14 1466.2 1262.03 1468.8 Q1261.45 1469.47 1258.35 1472.69 Q1255.25 1475.88 1249.6 1481.64 Z" fill="#000000" fill-rule="nonzero" fill-opacity="1" /><path clip-path="url(#clip620)" d="M1275.73 1479.7 L1280.62 1479.7 L1280.62 1485.58 L1275.73 1485.58 L1275.73 1479.7 Z" fill="#000000" fill-rule="nonzero" fill-opacity="1" /><path clip-path="url(#clip620)" d="M1300.8 1454.1 Q1297.19 1454.1 1295.36 1457.66 Q1293.56 1461.2 1293.56 1468.33 Q1293.56 1475.44 1295.36 1479.01 Q1297.19 1482.55 1300.8 1482.55 Q1304.44 1482.55 1306.24 1479.01 Q1308.07 1475.44 1308.07 1468.33 Q1308.07 1461.2 1306.24 1457.66 Q1304.44 1454.1 1300.8 1454.1 M1300.8 1450.39 Q1306.61 1450.39 1309.67 1455 Q1312.75 1459.58 1312.75 1468.33 Q1312.75 1477.06 1309.67 1481.67 Q1306.61 1486.25 1300.8 1486.25 Q1294.99 1486.25 1291.91 1481.67 Q1288.86 1477.06 1288.86 1468.33 Q1288.86 1459.58 1291.91 1455 Q1294.99 1450.39 1300.8 1450.39 Z" fill="#000000" fill-rule="nonzero" fill-opacity="1" /><path clip-path="url(#clip620)" d="M1591.6 1481.64 L1607.92 1481.64 L1607.92 1485.58 L1585.97 1485.58 L1585.97 1481.64 Q1588.64 1478.89 1593.22 1474.26 Q1597.83 1469.61 1599.01 1468.27 Q1601.25 1465.74 1602.13 1464.01 Q1603.03 1462.25 1603.03 1460.56 Q1603.03 1457.8 1601.09 1456.07 Q1599.17 1454.33 1596.07 1454.33 Q1593.87 1454.33 1591.41 1455.09 Q1588.98 1455.86 1586.21 1457.41 L1586.21 1452.69 Q1589.03 1451.55 1591.48 1450.97 Q1593.94 1450.39 1595.97 1450.39 Q1601.34 1450.39 1604.54 1453.08 Q1607.73 1455.77 1607.73 1460.26 Q1607.73 1462.39 1606.92 1464.31 Q1606.14 1466.2 1604.03 1468.8 Q1603.45 1469.47 1600.35 1472.69 Q1597.25 1475.88 1591.6 1481.64 Z" fill="#000000" fill-rule="nonzero" fill-opacity="1" /><path clip-path="url(#clip620)" d="M1617.73 1479.7 L1622.62 1479.7 L1622.62 1485.58 L1617.73 1485.58 L1617.73 1479.7 Z" fill="#000000" fill-rule="nonzero" fill-opacity="1" /><path clip-path="url(#clip620)" d="M1632.85 1451.02 L1651.21 1451.02 L1651.21 1454.96 L1637.13 1454.96 L1637.13 1463.43 Q1638.15 1463.08 1639.17 1462.92 Q1640.19 1462.73 1641.21 1462.73 Q1646.99 1462.73 1650.37 1465.9 Q1653.75 1469.08 1653.75 1474.49 Q1653.75 1480.07 1650.28 1483.17 Q1646.81 1486.25 1640.49 1486.25 Q1638.31 1486.25 1636.04 1485.88 Q1633.8 1485.51 1631.39 1484.77 L1631.39 1480.07 Q1633.47 1481.2 1635.7 1481.76 Q1637.92 1482.32 1640.4 1482.32 Q1644.4 1482.32 1646.74 1480.21 Q1649.08 1478.1 1649.08 1474.49 Q1649.08 1470.88 1646.74 1468.77 Q1644.4 1466.67 1640.4 1466.67 Q1638.52 1466.67 1636.65 1467.08 Q1634.79 1467.5 1632.85 1468.38 L1632.85 1451.02 Z" fill="#000000" fill-rule="nonzero" fill-opacity="1" /><path clip-path="url(#clip620)" d="M1942.67 1466.95 Q1946.03 1467.66 1947.91 1469.93 Q1949.8 1472.2 1949.8 1475.53 Q1949.8 1480.65 1946.29 1483.45 Q1942.77 1486.25 1936.29 1486.25 Q1934.11 1486.25 1931.79 1485.81 Q1929.5 1485.39 1927.05 1484.54 L1927.05 1480.02 Q1928.99 1481.16 1931.31 1481.74 Q1933.62 1482.32 1936.15 1482.32 Q1940.54 1482.32 1942.84 1480.58 Q1945.15 1478.84 1945.15 1475.53 Q1945.15 1472.48 1943 1470.77 Q1940.87 1469.03 1937.05 1469.03 L1933.02 1469.03 L1933.02 1465.19 L1937.23 1465.19 Q1940.68 1465.19 1942.51 1463.82 Q1944.34 1462.43 1944.34 1459.84 Q1944.34 1457.18 1942.44 1455.77 Q1940.57 1454.33 1937.05 1454.33 Q1935.13 1454.33 1932.93 1454.75 Q1930.73 1455.16 1928.09 1456.04 L1928.09 1451.88 Q1930.75 1451.14 1933.07 1450.77 Q1935.41 1450.39 1937.47 1450.39 Q1942.79 1450.39 1945.89 1452.83 Q1948.99 1455.23 1948.99 1459.35 Q1948.99 1462.22 1947.35 1464.21 Q1945.71 1466.18 1942.67 1466.95 Z" fill="#000000" fill-rule="nonzero" fill-opacity="1" /><path clip-path="url(#clip620)" d="M1958.67 1479.7 L1963.55 1479.7 L1963.55 1485.58 L1958.67 1485.58 L1958.67 1479.7 Z" fill="#000000" fill-rule="nonzero" fill-opacity="1" /><path clip-path="url(#clip620)" d="M1983.74 1454.1 Q1980.13 1454.1 1978.3 1457.66 Q1976.49 1461.2 1976.49 1468.33 Q1976.49 1475.44 1978.3 1479.01 Q1980.13 1482.55 1983.74 1482.55 Q1987.37 1482.55 1989.18 1479.01 Q1991.01 1475.44 1991.01 1468.33 Q1991.01 1461.2 1989.18 1457.66 Q1987.37 1454.1 1983.74 1454.1 M1983.74 1450.39 Q1989.55 1450.39 1992.6 1455 Q1995.68 1459.58 1995.68 1468.33 Q1995.68 1477.06 1992.6 1481.67 Q1989.55 1486.25 1983.74 1486.25 Q1977.93 1486.25 1974.85 1481.67 Q1971.79 1477.06 1971.79 1468.33 Q1971.79 1459.58 1974.85 1455 Q1977.93 1450.39 1983.74 1450.39 Z" fill="#000000" fill-rule="nonzero" fill-opacity="1" /><path clip-path="url(#clip620)" d="M2284.67 1466.95 Q2288.03 1467.66 2289.91 1469.93 Q2291.8 1472.2 2291.8 1475.53 Q2291.8 1480.65 2288.29 1483.45 Q2284.77 1486.25 2278.29 1486.25 Q2276.11 1486.25 2273.8 1485.81 Q2271.5 1485.39 2269.05 1484.54 L2269.05 1480.02 Q2270.99 1481.16 2273.31 1481.74 Q2275.62 1482.32 2278.15 1482.32 Q2282.55 1482.32 2284.84 1480.58 Q2287.15 1478.84 2287.15 1475.53 Q2287.15 1472.48 2285 1470.77 Q2282.87 1469.03 2279.05 1469.03 L2275.02 1469.03 L2275.02 1465.19 L2279.23 1465.19 Q2282.68 1465.19 2284.51 1463.82 Q2286.34 1462.43 2286.34 1459.84 Q2286.34 1457.18 2284.44 1455.77 Q2282.57 1454.33 2279.05 1454.33 Q2277.13 1454.33 2274.93 1454.75 Q2272.73 1455.16 2270.09 1456.04 L2270.09 1451.88 Q2272.75 1451.14 2275.07 1450.77 Q2277.41 1450.39 2279.47 1450.39 Q2284.79 1450.39 2287.89 1452.83 Q2290.99 1455.23 2290.99 1459.35 Q2290.99 1462.22 2289.35 1464.21 Q2287.71 1466.18 2284.67 1466.95 Z" fill="#000000" fill-rule="nonzero" fill-opacity="1" /><path clip-path="url(#clip620)" d="M2300.67 1479.7 L2305.55 1479.7 L2305.55 1485.58 L2300.67 1485.58 L2300.67 1479.7 Z" fill="#000000" fill-rule="nonzero" fill-opacity="1" /><path clip-path="url(#clip620)" d="M2315.79 1451.02 L2334.14 1451.02 L2334.14 1454.96 L2320.07 1454.96 L2320.07 1463.43 Q2321.09 1463.08 2322.11 1462.92 Q2323.12 1462.73 2324.14 1462.73 Q2329.93 1462.73 2333.31 1465.9 Q2336.69 1469.08 2336.69 1474.49 Q2336.69 1480.07 2333.22 1483.17 Q2329.74 1486.25 2323.42 1486.25 Q2321.25 1486.25 2318.98 1485.88 Q2316.73 1485.51 2314.33 1484.77 L2314.33 1480.07 Q2316.41 1481.2 2318.63 1481.76 Q2320.86 1482.32 2323.33 1482.32 Q2327.34 1482.32 2329.67 1480.21 Q2332.01 1478.1 2332.01 1474.49 Q2332.01 1470.88 2329.67 1468.77 Q2327.34 1466.67 2323.33 1466.67 Q2321.46 1466.67 2319.58 1467.08 Q2317.73 1467.5 2315.79 1468.38 L2315.79 1451.02 Z" fill="#000000" fill-rule="nonzero" fill-opacity="1" /><path clip-path="url(#clip620)" d="M1226.56 1522.08 L1226.56 1528.35 Q1222.9 1526.6 1219.65 1525.74 Q1216.41 1524.88 1213.38 1524.88 Q1208.13 1524.88 1205.27 1526.92 Q1202.43 1528.96 1202.43 1532.71 Q1202.43 1535.87 1204.31 1537.49 Q1206.22 1539.08 1211.5 1540.07 L1215.39 1540.86 Q1222.58 1542.23 1225.99 1545.7 Q1229.42 1549.14 1229.42 1554.93 Q1229.42 1561.84 1224.78 1565.4 Q1220.16 1568.97 1211.22 1568.97 Q1207.84 1568.97 1204.02 1568.2 Q1200.24 1567.44 1196.16 1565.94 L1196.16 1559.32 Q1200.08 1561.52 1203.83 1562.63 Q1207.59 1563.75 1211.22 1563.75 Q1216.72 1563.75 1219.72 1561.58 Q1222.71 1559.42 1222.71 1555.41 Q1222.71 1551.91 1220.54 1549.93 Q1218.41 1547.96 1213.51 1546.97 L1209.59 1546.21 Q1202.4 1544.78 1199.19 1541.72 Q1195.97 1538.67 1195.97 1533.22 Q1195.97 1526.92 1200.4 1523.29 Q1204.85 1519.66 1212.65 1519.66 Q1215.99 1519.66 1219.46 1520.27 Q1222.93 1520.87 1226.56 1522.08 Z" fill="#000000" fill-rule="nonzero" fill-opacity="1" /><path clip-path="url(#clip620)" d="M1244.99 1522.27 L1244.99 1532.4 L1257.05 1532.4 L1257.05 1536.95 L1244.99 1536.95 L1244.99 1556.3 Q1244.99 1560.66 1246.17 1561.9 Q1247.37 1563.14 1251.03 1563.14 L1257.05 1563.14 L1257.05 1568.04 L1251.03 1568.04 Q1244.26 1568.04 1241.68 1565.53 Q1239.1 1562.98 1239.1 1556.3 L1239.1 1536.95 L1234.8 1536.95 L1234.8 1532.4 L1239.1 1532.4 L1239.1 1522.27 L1244.99 1522.27 Z" fill="#000000" fill-rule="nonzero" fill-opacity="1" /><path clip-path="url(#clip620)" d="M1280.95 1550.12 Q1273.86 1550.12 1271.12 1551.75 Q1268.38 1553.37 1268.38 1557.29 Q1268.38 1560.4 1270.42 1562.25 Q1272.49 1564.07 1276.02 1564.07 Q1280.89 1564.07 1283.82 1560.63 Q1286.78 1557.16 1286.78 1551.43 L1286.78 1550.12 L1280.95 1550.12 M1292.63 1547.71 L1292.63 1568.04 L1286.78 1568.04 L1286.78 1562.63 Q1284.77 1565.88 1281.78 1567.44 Q1278.79 1568.97 1274.46 1568.97 Q1268.99 1568.97 1265.74 1565.91 Q1262.53 1562.82 1262.53 1557.67 Q1262.53 1551.65 1266.54 1548.6 Q1270.58 1545.54 1278.57 1545.54 L1286.78 1545.54 L1286.78 1544.97 Q1286.78 1540.93 1284.1 1538.73 Q1281.46 1536.5 1276.66 1536.5 Q1273.6 1536.5 1270.7 1537.23 Q1267.81 1537.97 1265.13 1539.43 L1265.13 1534.02 Q1268.35 1532.78 1271.37 1532.17 Q1274.4 1531.54 1277.26 1531.54 Q1285 1531.54 1288.82 1535.55 Q1292.63 1539.56 1292.63 1547.71 Z" fill="#000000" fill-rule="nonzero" fill-opacity="1" /><path clip-path="url(#clip620)" d="M1310.49 1522.27 L1310.49 1532.4 L1322.55 1532.4 L1322.55 1536.95 L1310.49 1536.95 L1310.49 1556.3 Q1310.49 1560.66 1311.67 1561.9 Q1312.88 1563.14 1316.54 1563.14 L1322.55 1563.14 L1322.55 1568.04 L1316.54 1568.04 Q1309.76 1568.04 1307.18 1565.53 Q1304.6 1562.98 1304.6 1556.3 L1304.6 1536.95 L1300.31 1536.95 L1300.31 1532.4 L1304.6 1532.4 L1304.6 1522.27 L1310.49 1522.27 Z" fill="#000000" fill-rule="nonzero" fill-opacity="1" /><path clip-path="url(#clip620)" d="M1360.75 1548.76 L1360.75 1551.62 L1333.82 1551.62 Q1334.2 1557.67 1337.45 1560.85 Q1340.73 1564 1346.55 1564 Q1349.93 1564 1353.08 1563.17 Q1356.26 1562.35 1359.38 1560.69 L1359.38 1566.23 Q1356.23 1567.57 1352.92 1568.27 Q1349.61 1568.97 1346.2 1568.97 Q1337.67 1568.97 1332.68 1564 Q1327.71 1559.04 1327.71 1550.57 Q1327.71 1541.82 1332.42 1536.69 Q1337.16 1531.54 1345.18 1531.54 Q1352.38 1531.54 1356.55 1536.18 Q1360.75 1540.8 1360.75 1548.76 M1354.89 1547.04 Q1354.83 1542.23 1352.19 1539.37 Q1349.58 1536.5 1345.25 1536.5 Q1340.35 1536.5 1337.39 1539.27 Q1334.46 1542.04 1334.01 1547.07 L1354.89 1547.04 Z" fill="#000000" fill-rule="nonzero" fill-opacity="1" /><polyline clip-path="url(#clip620)" style="stroke:#000000; stroke-linecap:round; stroke-linejoin:round; stroke-width:4; stroke-opacity:1; fill:none" points="203.964,1423.18 203.964,106.192 "/>
<polyline clip-path="url(#clip620)" style="stroke:#000000; stroke-linecap:round; stroke-linejoin:round; stroke-width:4; stroke-opacity:1; fill:none" points="203.964,1423.18 222.861,1423.18 "/>
<polyline clip-path="url(#clip620)" style="stroke:#000000; stroke-linecap:round; stroke-linejoin:round; stroke-width:4; stroke-opacity:1; fill:none" points="203.964,1123.75 222.861,1123.75 "/>
<polyline clip-path="url(#clip620)" style="stroke:#000000; stroke-linecap:round; stroke-linejoin:round; stroke-width:4; stroke-opacity:1; fill:none" points="203.964,824.317 222.861,824.317 "/>
<polyline clip-path="url(#clip620)" style="stroke:#000000; stroke-linecap:round; stroke-linejoin:round; stroke-width:4; stroke-opacity:1; fill:none" points="203.964,524.886 222.861,524.886 "/>
<polyline clip-path="url(#clip620)" style="stroke:#000000; stroke-linecap:round; stroke-linejoin:round; stroke-width:4; stroke-opacity:1; fill:none" points="203.964,225.455 222.861,225.455 "/>
<path clip-path="url(#clip620)" d="M156.019 1408.98 Q152.408 1408.98 150.579 1412.54 Q148.774 1416.08 148.774 1423.21 Q148.774 1430.32 150.579 1433.89 Q152.408 1437.43 156.019 1437.43 Q159.653 1437.43 161.459 1433.89 Q163.288 1430.32 163.288 1423.21 Q163.288 1416.08 161.459 1412.54 Q159.653 1408.98 156.019 1408.98 M156.019 1405.27 Q161.829 1405.27 164.885 1409.88 Q167.964 1414.46 167.964 1423.21 Q167.964 1431.94 164.885 1436.55 Q161.829 1441.13 156.019 1441.13 Q150.209 1441.13 147.13 1436.55 Q144.075 1431.94 144.075 1423.21 Q144.075 1414.46 147.13 1409.88 Q150.209 1405.27 156.019 1405.27 Z" fill="#000000" fill-rule="nonzero" fill-opacity="1" /><path clip-path="url(#clip620)" d="M147.061 1106.47 L165.417 1106.47 L165.417 1110.4 L151.343 1110.4 L151.343 1118.88 Q152.362 1118.53 153.38 1118.37 Q154.399 1118.18 155.417 1118.18 Q161.204 1118.18 164.584 1121.35 Q167.964 1124.52 167.964 1129.94 Q167.964 1135.52 164.491 1138.62 Q161.019 1141.7 154.7 1141.7 Q152.524 1141.7 150.255 1141.33 Q148.01 1140.96 145.603 1140.22 L145.603 1135.52 Q147.686 1136.65 149.908 1137.21 Q152.13 1137.76 154.607 1137.76 Q158.612 1137.76 160.95 1135.66 Q163.288 1133.55 163.288 1129.94 Q163.288 1126.33 160.95 1124.22 Q158.612 1122.12 154.607 1122.12 Q152.732 1122.12 150.857 1122.53 Q149.005 1122.95 147.061 1123.83 L147.061 1106.47 Z" fill="#000000" fill-rule="nonzero" fill-opacity="1" /><path clip-path="url(#clip620)" d="M116.668 837.662 L124.306 837.662 L124.306 811.296 L115.996 812.963 L115.996 808.704 L124.26 807.037 L128.936 807.037 L128.936 837.662 L136.575 837.662 L136.575 841.597 L116.668 841.597 L116.668 837.662 Z" fill="#000000" fill-rule="nonzero" fill-opacity="1" /><path clip-path="url(#clip620)" d="M156.019 810.116 Q152.408 810.116 150.579 813.681 Q148.774 817.222 148.774 824.352 Q148.774 831.458 150.579 835.023 Q152.408 838.565 156.019 838.565 Q159.653 838.565 161.459 835.023 Q163.288 831.458 163.288 824.352 Q163.288 817.222 161.459 813.681 Q159.653 810.116 156.019 810.116 M156.019 806.412 Q161.829 806.412 164.885 811.019 Q167.964 815.602 167.964 824.352 Q167.964 833.079 164.885 837.685 Q161.829 842.268 156.019 842.268 Q150.209 842.268 147.13 837.685 Q144.075 833.079 144.075 824.352 Q144.075 815.602 147.13 811.019 Q150.209 806.412 156.019 806.412 Z" fill="#000000" fill-rule="nonzero" fill-opacity="1" /><path clip-path="url(#clip620)" d="M117.663 538.231 L125.302 538.231 L125.302 511.865 L116.992 513.532 L116.992 509.273 L125.255 507.606 L129.931 507.606 L129.931 538.231 L137.57 538.231 L137.57 542.166 L117.663 542.166 L117.663 538.231 Z" fill="#000000" fill-rule="nonzero" fill-opacity="1" /><path clip-path="url(#clip620)" d="M147.061 507.606 L165.417 507.606 L165.417 511.541 L151.343 511.541 L151.343 520.013 Q152.362 519.666 153.38 519.504 Q154.399 519.319 155.417 519.319 Q161.204 519.319 164.584 522.49 Q167.964 525.661 167.964 531.078 Q167.964 536.657 164.491 539.758 Q161.019 542.837 154.7 542.837 Q152.524 542.837 150.255 542.467 Q148.01 542.096 145.603 541.356 L145.603 536.657 Q147.686 537.791 149.908 538.346 Q152.13 538.902 154.607 538.902 Q158.612 538.902 160.95 536.796 Q163.288 534.689 163.288 531.078 Q163.288 527.467 160.95 525.36 Q158.612 523.254 154.607 523.254 Q152.732 523.254 150.857 523.671 Q149.005 524.087 147.061 524.967 L147.061 507.606 Z" fill="#000000" fill-rule="nonzero" fill-opacity="1" /><path clip-path="url(#clip620)" d="M119.885 238.799 L136.204 238.799 L136.204 242.735 L114.26 242.735 L114.26 238.799 Q116.922 236.045 121.505 231.415 Q126.112 226.762 127.292 225.42 Q129.538 222.897 130.417 221.161 Q131.32 219.401 131.32 217.712 Q131.32 214.957 129.376 213.221 Q127.455 211.485 124.353 211.485 Q122.154 211.485 119.7 212.249 Q117.269 213.012 114.492 214.563 L114.492 209.841 Q117.316 208.707 119.769 208.128 Q122.223 207.55 124.26 207.55 Q129.63 207.55 132.825 210.235 Q136.019 212.92 136.019 217.411 Q136.019 219.54 135.209 221.461 Q134.422 223.36 132.316 225.952 Q131.737 226.623 128.635 229.841 Q125.533 233.035 119.885 238.799 Z" fill="#000000" fill-rule="nonzero" fill-opacity="1" /><path clip-path="url(#clip620)" d="M156.019 211.253 Q152.408 211.253 150.579 214.818 Q148.774 218.36 148.774 225.489 Q148.774 232.596 150.579 236.16 Q152.408 239.702 156.019 239.702 Q159.653 239.702 161.459 236.16 Q163.288 232.596 163.288 225.489 Q163.288 218.36 161.459 214.818 Q159.653 211.253 156.019 211.253 M156.019 207.55 Q161.829 207.55 164.885 212.156 Q167.964 216.739 167.964 225.489 Q167.964 234.216 164.885 238.823 Q161.829 243.406 156.019 243.406 Q150.209 243.406 147.13 238.823 Q144.075 234.216 144.075 225.489 Q144.075 216.739 147.13 212.156 Q150.209 207.55 156.019 207.55 Z" fill="#000000" fill-rule="nonzero" fill-opacity="1" /><path clip-path="url(#clip620)" d="M18.0438 821.548 L24.314 821.548 Q22.5634 825.208 21.704 828.454 Q20.8447 831.701 20.8447 834.725 Q20.8447 839.976 22.8817 842.841 Q24.9187 845.674 28.6745 845.674 Q31.8255 845.674 33.4488 843.796 Q35.0402 841.886 36.0269 836.603 L36.8226 832.719 Q38.1912 825.526 41.6605 822.121 Q45.098 818.683 50.8908 818.683 Q57.7976 818.683 61.3624 823.33 Q64.9272 827.945 64.9272 836.889 Q64.9272 840.263 64.1633 844.082 Q63.3994 847.87 61.9035 851.944 L55.2831 851.944 Q57.4793 848.029 58.5933 844.273 Q59.7073 840.517 59.7073 836.889 Q59.7073 831.383 57.543 828.391 Q55.3786 825.399 51.3682 825.399 Q47.8671 825.399 45.8937 827.563 Q43.9204 829.696 42.9337 834.597 L42.1698 838.512 Q40.7375 845.706 37.682 848.92 Q34.6264 852.135 29.1837 852.135 Q22.8817 852.135 19.2532 847.711 Q15.6248 843.255 15.6248 835.457 Q15.6248 832.115 16.2295 828.645 Q16.8343 825.176 18.0438 821.548 Z" fill="#000000" fill-rule="nonzero" fill-opacity="1" /><path clip-path="url(#clip620)" d="M18.2347 803.119 L28.3562 803.119 L28.3562 791.056 L32.9077 791.056 L32.9077 803.119 L52.2594 803.119 Q56.6199 803.119 57.8613 801.941 Q59.1026 800.732 59.1026 797.072 L59.1026 791.056 L64.0042 791.056 L64.0042 797.072 Q64.0042 803.851 61.4897 806.429 Q58.9434 809.007 52.2594 809.007 L32.9077 809.007 L32.9077 813.304 L28.3562 813.304 L28.3562 809.007 L18.2347 809.007 L18.2347 803.119 Z" fill="#000000" fill-rule="nonzero" fill-opacity="1" /><path clip-path="url(#clip620)" d="M44.7161 752.862 L47.5806 752.862 L47.5806 779.789 Q53.6281 779.407 56.8109 776.16 Q59.9619 772.882 59.9619 767.057 Q59.9619 763.683 59.1344 760.532 Q58.3069 757.35 56.6518 754.23 L62.1899 754.23 Q63.5267 757.381 64.227 760.692 Q64.9272 764.002 64.9272 767.407 Q64.9272 775.937 59.9619 780.934 Q54.9967 785.9 46.5303 785.9 Q37.7774 785.9 32.6531 781.189 Q27.4968 776.447 27.4968 768.426 Q27.4968 761.233 32.1438 757.063 Q36.7589 752.862 44.7161 752.862 M42.9973 758.718 Q38.1912 758.782 35.3266 761.424 Q32.4621 764.033 32.4621 768.362 Q32.4621 773.264 35.2312 776.224 Q38.0002 779.152 43.0292 779.598 L42.9973 758.718 Z" fill="#000000" fill-rule="nonzero" fill-opacity="1" /><path clip-path="url(#clip620)" d="M58.657 737.584 L77.5631 737.584 L77.5631 743.472 L28.3562 743.472 L28.3562 737.584 L33.7671 737.584 Q30.5842 735.738 29.0564 732.937 Q27.4968 730.104 27.4968 726.189 Q27.4968 719.696 32.6531 715.654 Q37.8093 711.58 46.212 711.58 Q54.6147 711.58 59.771 715.654 Q64.9272 719.696 64.9272 726.189 Q64.9272 730.104 63.3994 732.937 Q61.8398 735.738 58.657 737.584 M46.212 717.659 Q39.7508 717.659 36.0905 720.333 Q32.3984 722.975 32.3984 727.622 Q32.3984 732.269 36.0905 734.942 Q39.7508 737.584 46.212 737.584 Q52.6732 737.584 56.3653 734.942 Q60.0256 732.269 60.0256 727.622 Q60.0256 722.975 56.3653 720.333 Q52.6732 717.659 46.212 717.659 Z" fill="#000000" fill-rule="nonzero" fill-opacity="1" /><path clip-path="url(#clip620)" d="M29.4065 679.147 L34.9447 679.147 Q33.6716 681.629 33.035 684.303 Q32.3984 686.977 32.3984 689.841 Q32.3984 694.202 33.7352 696.398 Q35.072 698.562 37.7456 698.562 Q39.7826 698.562 40.9603 697.003 Q42.1061 695.443 43.1565 690.732 L43.6021 688.727 Q44.9389 682.489 47.3897 679.879 Q49.8086 677.237 54.1691 677.237 Q59.1344 677.237 62.0308 681.184 Q64.9272 685.099 64.9272 691.974 Q64.9272 694.838 64.3543 697.957 Q63.8132 701.045 62.6992 704.482 L56.6518 704.482 Q58.3387 701.236 59.198 698.085 Q60.0256 694.934 60.0256 691.846 Q60.0256 687.709 58.6251 685.481 Q57.1929 683.253 54.6147 683.253 Q52.2276 683.253 50.9545 684.876 Q49.6813 686.467 48.5037 691.91 L48.0262 693.947 Q46.8804 699.39 44.5251 701.809 Q42.138 704.228 38.0002 704.228 Q32.9713 704.228 30.2341 700.663 Q27.4968 697.098 27.4968 690.541 Q27.4968 687.295 27.9743 684.43 Q28.4517 681.566 29.4065 679.147 Z" fill="#000000" fill-rule="nonzero" fill-opacity="1" /><path clip-path="url(#clip620)" d="M819.942 8.64 L827.812 8.64 L846.967 44.7799 L846.967 8.64 L852.639 8.64 L852.639 51.84 L844.768 51.84 L825.613 15.7001 L825.613 51.84 L819.942 51.84 L819.942 8.64 Z" fill="#000000" fill-rule="nonzero" fill-opacity="1" /><path clip-path="url(#clip620)" d="M878.767 35.5496 Q872.314 35.5496 869.826 37.0253 Q867.338 38.501 867.338 42.06 Q867.338 44.8956 869.189 46.5738 Q871.07 48.2231 874.282 48.2231 Q878.709 48.2231 881.371 45.0981 Q884.062 41.9442 884.062 36.7359 L884.062 35.5496 L878.767 35.5496 M889.386 33.3505 L889.386 51.84 L884.062 51.84 L884.062 46.921 Q882.239 49.8724 879.519 51.2902 Q876.799 52.6791 872.864 52.6791 Q867.887 52.6791 864.936 49.9014 Q862.014 47.0947 862.014 42.4072 Q862.014 36.9385 865.659 34.1607 Q869.334 31.3829 876.597 31.3829 L884.062 31.3829 L884.062 30.8621 Q884.062 27.1874 881.632 25.1908 Q879.23 23.1654 874.861 23.1654 Q872.083 23.1654 869.45 23.8309 Q866.817 24.4964 864.386 25.8274 L864.386 20.9085 Q867.309 19.78 870.058 19.2302 Q872.806 18.6515 875.411 18.6515 Q882.442 18.6515 885.914 22.2973 Q889.386 25.9431 889.386 33.3505 Z" fill="#000000" fill-rule="nonzero" fill-opacity="1" /><path clip-path="url(#clip620)" d="M905.619 10.2314 L905.619 19.4328 L916.585 19.4328 L916.585 23.5705 L905.619 23.5705 L905.619 41.163 Q905.619 45.1271 906.689 46.2555 Q907.789 47.384 911.116 47.384 L916.585 47.384 L916.585 51.84 L911.116 51.84 Q904.953 51.84 902.609 49.5541 Q900.266 47.2393 900.266 41.163 L900.266 23.5705 L896.359 23.5705 L896.359 19.4328 L900.266 19.4328 L900.266 10.2314 L905.619 10.2314 Z" fill="#000000" fill-rule="nonzero" fill-opacity="1" /><path clip-path="url(#clip620)" d="M923.038 39.0507 L923.038 19.4328 L928.362 19.4328 L928.362 38.8482 Q928.362 43.4488 930.156 45.7636 Q931.95 48.0495 935.538 48.0495 Q939.849 48.0495 942.337 45.3007 Q944.855 42.5519 944.855 37.8065 L944.855 19.4328 L950.179 19.4328 L950.179 51.84 L944.855 51.84 L944.855 46.8632 Q942.916 49.8145 940.341 51.2613 Q937.794 52.6791 934.409 52.6791 Q928.825 52.6791 925.931 49.2069 Q923.038 45.7347 923.038 39.0507 M936.434 18.6515 L936.434 18.6515 Z" fill="#000000" fill-rule="nonzero" fill-opacity="1" /><path clip-path="url(#clip620)" d="M979.924 24.4096 Q979.027 23.8888 977.956 23.6573 Q976.915 23.3969 975.641 23.3969 Q971.128 23.3969 968.697 26.3482 Q966.295 29.2707 966.295 34.7683 L966.295 51.84 L960.942 51.84 L960.942 19.4328 L966.295 19.4328 L966.295 24.4675 Q967.974 21.5161 970.665 20.0983 Q973.356 18.6515 977.204 18.6515 Q977.754 18.6515 978.419 18.7383 Q979.085 18.7962 979.895 18.9409 L979.924 24.4096 Z" fill="#000000" fill-rule="nonzero" fill-opacity="1" /><path clip-path="url(#clip620)" d="M1000.24 35.5496 Q993.784 35.5496 991.295 37.0253 Q988.807 38.501 988.807 42.06 Q988.807 44.8956 990.659 46.5738 Q992.54 48.2231 995.751 48.2231 Q1000.18 48.2231 1002.84 45.0981 Q1005.53 41.9442 1005.53 36.7359 L1005.53 35.5496 L1000.24 35.5496 M1010.86 33.3505 L1010.86 51.84 L1005.53 51.84 L1005.53 46.921 Q1003.71 49.8724 1000.99 51.2902 Q998.269 52.6791 994.333 52.6791 Q989.357 52.6791 986.405 49.9014 Q983.483 47.0947 983.483 42.4072 Q983.483 36.9385 987.129 34.1607 Q990.803 31.3829 998.066 31.3829 L1005.53 31.3829 L1005.53 30.8621 Q1005.53 27.1874 1003.1 25.1908 Q1000.7 23.1654 996.33 23.1654 Q993.552 23.1654 990.919 23.8309 Q988.286 24.4964 985.856 25.8274 L985.856 20.9085 Q988.778 19.78 991.527 19.2302 Q994.276 18.6515 996.88 18.6515 Q1003.91 18.6515 1007.38 22.2973 Q1010.86 25.9431 1010.86 33.3505 Z" fill="#000000" fill-rule="nonzero" fill-opacity="1" /><path clip-path="url(#clip620)" d="M1021.82 6.81709 L1027.15 6.81709 L1027.15 51.84 L1021.82 51.84 L1021.82 6.81709 Z" fill="#000000" fill-rule="nonzero" fill-opacity="1" /><path clip-path="url(#clip620)" d="M1077.84 31.5855 Q1079.72 32.222 1081.49 34.3054 Q1083.28 36.3887 1085.07 40.0345 L1091.01 51.84 L1084.73 51.84 L1079.2 40.7579 Q1077.06 36.4176 1075.03 34.9998 Q1073.04 33.582 1069.56 33.582 L1063.2 33.582 L1063.2 51.84 L1057.35 51.84 L1057.35 8.64 L1070.55 8.64 Q1077.96 8.64 1081.6 11.736 Q1085.25 14.8321 1085.25 21.0821 Q1085.25 25.1619 1083.34 27.8529 Q1081.46 30.5438 1077.84 31.5855 M1063.2 13.4432 L1063.2 28.7788 L1070.55 28.7788 Q1074.77 28.7788 1076.91 26.8401 Q1079.08 24.8726 1079.08 21.0821 Q1079.08 17.2916 1076.91 15.3819 Q1074.77 13.4432 1070.55 13.4432 L1063.2 13.4432 Z" fill="#000000" fill-rule="nonzero" fill-opacity="1" /><path clip-path="url(#clip620)" d="M1123.35 34.3054 L1123.35 36.9095 L1098.88 36.9095 Q1099.22 42.4072 1102.17 45.3007 Q1105.15 48.1653 1110.45 48.1653 Q1113.52 48.1653 1116.38 47.4129 Q1119.27 46.6606 1122.11 45.156 L1122.11 50.1907 Q1119.25 51.406 1116.24 52.0425 Q1113.23 52.6791 1110.13 52.6791 Q1102.38 52.6791 1097.83 48.1653 Q1093.32 43.6514 1093.32 35.9547 Q1093.32 27.9975 1097.6 23.339 Q1101.91 18.6515 1109.21 18.6515 Q1115.74 18.6515 1119.54 22.876 Q1123.35 27.0716 1123.35 34.3054 M1118.03 32.7429 Q1117.97 28.3737 1115.57 25.7695 Q1113.2 23.1654 1109.26 23.1654 Q1104.81 23.1654 1102.12 25.6827 Q1099.45 28.2001 1099.05 32.7718 L1118.03 32.7429 Z" fill="#000000" fill-rule="nonzero" fill-opacity="1" /><path clip-path="url(#clip620)" d="M1152.75 20.3876 L1152.75 25.4223 Q1150.5 24.2649 1148.07 23.6862 Q1145.63 23.1075 1143.03 23.1075 Q1139.07 23.1075 1137.07 24.3228 Q1135.1 25.5381 1135.1 27.9686 Q1135.1 29.8204 1136.52 30.891 Q1137.94 31.9327 1142.22 32.8876 L1144.04 33.2926 Q1149.71 34.5079 1152.09 36.7359 Q1154.49 38.935 1154.49 42.8991 Q1154.49 47.4129 1150.9 50.046 Q1147.34 52.6791 1141.09 52.6791 Q1138.49 52.6791 1135.65 52.1583 Q1132.85 51.6664 1129.72 50.6537 L1129.72 45.156 Q1132.67 46.6896 1135.54 47.4708 Q1138.4 48.2231 1141.21 48.2231 Q1144.97 48.2231 1146.99 46.95 Q1149.02 45.6479 1149.02 43.3042 Q1149.02 41.134 1147.54 39.9766 Q1146.1 38.8192 1141.15 37.7486 L1139.3 37.3146 Q1134.35 36.273 1132.15 34.1318 Q1129.95 31.9616 1129.95 28.2001 Q1129.95 23.6283 1133.19 21.1399 Q1136.43 18.6515 1142.39 18.6515 Q1145.35 18.6515 1147.95 19.0855 Q1150.55 19.5196 1152.75 20.3876 Z" fill="#000000" fill-rule="nonzero" fill-opacity="1" /><path clip-path="url(#clip620)" d="M1162.97 19.4328 L1168.29 19.4328 L1168.29 51.84 L1162.97 51.84 L1162.97 19.4328 M1162.97 6.81709 L1168.29 6.81709 L1168.29 13.559 L1162.97 13.559 L1162.97 6.81709 Z" fill="#000000" fill-rule="nonzero" fill-opacity="1" /><path clip-path="url(#clip620)" d="M1200.76 24.3517 L1200.76 6.81709 L1206.08 6.81709 L1206.08 51.84 L1200.76 51.84 L1200.76 46.9789 Q1199.08 49.8724 1196.5 51.2902 Q1193.96 52.6791 1190.37 52.6791 Q1184.49 52.6791 1180.79 47.9916 Q1177.12 43.3042 1177.12 35.6653 Q1177.12 28.0265 1180.79 23.339 Q1184.49 18.6515 1190.37 18.6515 Q1193.96 18.6515 1196.5 20.0693 Q1199.08 21.4582 1200.76 24.3517 M1182.61 35.6653 Q1182.61 41.5391 1185.02 44.8956 Q1187.45 48.2231 1191.67 48.2231 Q1195.89 48.2231 1198.33 44.8956 Q1200.76 41.5391 1200.76 35.6653 Q1200.76 29.7915 1198.33 26.464 Q1195.89 23.1075 1191.67 23.1075 Q1187.45 23.1075 1185.02 26.464 Q1182.61 29.7915 1182.61 35.6653 Z" fill="#000000" fill-rule="nonzero" fill-opacity="1" /><path clip-path="url(#clip620)" d="M1244.77 34.3054 L1244.77 36.9095 L1220.29 36.9095 Q1220.63 42.4072 1223.59 45.3007 Q1226.57 48.1653 1231.86 48.1653 Q1234.93 48.1653 1237.79 47.4129 Q1240.69 46.6606 1243.52 45.156 L1243.52 50.1907 Q1240.66 51.406 1237.65 52.0425 Q1234.64 52.6791 1231.54 52.6791 Q1223.79 52.6791 1219.25 48.1653 Q1214.73 43.6514 1214.73 35.9547 Q1214.73 27.9975 1219.01 23.339 Q1223.33 18.6515 1230.62 18.6515 Q1237.16 18.6515 1240.95 22.876 Q1244.77 27.0716 1244.77 34.3054 M1239.44 32.7429 Q1239.38 28.3737 1236.98 25.7695 Q1234.61 23.1654 1230.67 23.1654 Q1226.22 23.1654 1223.53 25.6827 Q1220.87 28.2001 1220.46 32.7718 L1239.44 32.7429 Z" fill="#000000" fill-rule="nonzero" fill-opacity="1" /><path clip-path="url(#clip620)" d="M1280.44 32.2799 L1280.44 51.84 L1275.12 51.84 L1275.12 32.4535 Q1275.12 27.8529 1273.33 25.567 Q1271.53 23.2811 1267.94 23.2811 Q1263.63 23.2811 1261.14 26.03 Q1258.65 28.7788 1258.65 33.5241 L1258.65 51.84 L1253.3 51.84 L1253.3 19.4328 L1258.65 19.4328 L1258.65 24.4675 Q1260.56 21.545 1263.14 20.0983 Q1265.74 18.6515 1269.13 18.6515 Q1274.71 18.6515 1277.58 22.1237 Q1280.44 25.567 1280.44 32.2799 Z" fill="#000000" fill-rule="nonzero" fill-opacity="1" /><path clip-path="url(#clip620)" d="M1314.38 20.677 L1314.38 25.6538 Q1312.13 24.4096 1309.84 23.802 Q1307.58 23.1654 1305.27 23.1654 Q1300.09 23.1654 1297.23 26.464 Q1294.36 29.7336 1294.36 35.6653 Q1294.36 41.597 1297.23 44.8956 Q1300.09 48.1653 1305.27 48.1653 Q1307.58 48.1653 1309.84 47.5576 Q1312.13 46.921 1314.38 45.6768 L1314.38 50.5958 Q1312.16 51.6375 1309.75 52.1583 Q1307.38 52.6791 1304.69 52.6791 Q1297.37 52.6791 1293.06 48.0784 Q1288.75 43.4778 1288.75 35.6653 Q1288.75 27.7371 1293.09 23.1943 Q1297.46 18.6515 1305.04 18.6515 Q1307.5 18.6515 1309.84 19.1724 Q1312.18 19.6642 1314.38 20.677 Z" fill="#000000" fill-rule="nonzero" fill-opacity="1" /><path clip-path="url(#clip620)" d="M1351.36 34.3054 L1351.36 36.9095 L1326.88 36.9095 Q1327.23 42.4072 1330.18 45.3007 Q1333.16 48.1653 1338.46 48.1653 Q1341.52 48.1653 1344.39 47.4129 Q1347.28 46.6606 1350.12 45.156 L1350.12 50.1907 Q1347.25 51.406 1344.24 52.0425 Q1341.24 52.6791 1338.14 52.6791 Q1330.38 52.6791 1325.84 48.1653 Q1321.33 43.6514 1321.33 35.9547 Q1321.33 27.9975 1325.61 23.339 Q1329.92 18.6515 1337.21 18.6515 Q1343.75 18.6515 1347.54 22.876 Q1351.36 27.0716 1351.36 34.3054 M1346.04 32.7429 Q1345.98 28.3737 1343.58 25.7695 Q1341.21 23.1654 1337.27 23.1654 Q1332.82 23.1654 1330.12 25.6827 Q1327.46 28.2001 1327.06 32.7718 L1346.04 32.7429 Z" fill="#000000" fill-rule="nonzero" fill-opacity="1" /><path clip-path="url(#clip620)" d="M1373.18 8.64 L1409.72 8.64 L1409.72 13.559 L1394.39 13.559 L1394.39 51.84 L1388.52 51.84 L1388.52 13.559 L1373.18 13.559 L1373.18 8.64 Z" fill="#000000" fill-rule="nonzero" fill-opacity="1" /><path clip-path="url(#clip620)" d="M1413.31 19.4328 L1418.64 19.4328 L1418.64 51.84 L1413.31 51.84 L1413.31 19.4328 M1413.31 6.81709 L1418.64 6.81709 L1418.64 13.559 L1413.31 13.559 L1413.31 6.81709 Z" fill="#000000" fill-rule="nonzero" fill-opacity="1" /><path clip-path="url(#clip620)" d="M1455.01 25.6538 Q1457 22.0659 1459.78 20.3587 Q1462.56 18.6515 1466.32 18.6515 Q1471.39 18.6515 1474.13 22.2105 Q1476.88 25.7406 1476.88 32.2799 L1476.88 51.84 L1471.53 51.84 L1471.53 32.4535 Q1471.53 27.795 1469.88 25.5381 Q1468.23 23.2811 1464.85 23.2811 Q1460.71 23.2811 1458.31 26.03 Q1455.91 28.7788 1455.91 33.5241 L1455.91 51.84 L1450.55 51.84 L1450.55 32.4535 Q1450.55 27.7661 1448.9 25.5381 Q1447.25 23.2811 1443.81 23.2811 Q1439.73 23.2811 1437.33 26.0589 Q1434.93 28.8077 1434.93 33.5241 L1434.93 51.84 L1429.57 51.84 L1429.57 19.4328 L1434.93 19.4328 L1434.93 24.4675 Q1436.75 21.4872 1439.3 20.0693 Q1441.84 18.6515 1445.34 18.6515 Q1448.87 18.6515 1451.33 20.4455 Q1453.82 22.2395 1455.01 25.6538 Z" fill="#000000" fill-rule="nonzero" fill-opacity="1" /><path clip-path="url(#clip620)" d="M1515.22 34.3054 L1515.22 36.9095 L1490.74 36.9095 Q1491.09 42.4072 1494.04 45.3007 Q1497.02 48.1653 1502.32 48.1653 Q1505.38 48.1653 1508.25 47.4129 Q1511.14 46.6606 1513.98 45.156 L1513.98 50.1907 Q1511.11 51.406 1508.1 52.0425 Q1505.09 52.6791 1502 52.6791 Q1494.24 52.6791 1489.7 48.1653 Q1485.19 43.6514 1485.19 35.9547 Q1485.19 27.9975 1489.47 23.339 Q1493.78 18.6515 1501.07 18.6515 Q1507.61 18.6515 1511.4 22.876 Q1515.22 27.0716 1515.22 34.3054 M1509.9 32.7429 Q1509.84 28.3737 1507.44 25.7695 Q1505.07 23.1654 1501.13 23.1654 Q1496.67 23.1654 1493.98 25.6827 Q1491.32 28.2001 1490.92 32.7718 L1509.9 32.7429 Z" fill="#000000" fill-rule="nonzero" fill-opacity="1" /><path clip-path="url(#clip620)" d="M1540.11 33.5241 L1593.58 33.5241 L1593.58 37.6908 L1540.11 37.6908 L1540.11 33.5241 Z" fill="#000000" fill-rule="nonzero" fill-opacity="1" /><path clip-path="url(#clip620)" d="M1621.12 8.64 L1626.97 8.64 L1626.97 26.898 L1646.36 8.64 L1653.88 8.64 L1632.44 28.7788 L1655.41 51.84 L1647.72 51.84 L1626.97 31.0357 L1626.97 51.84 L1621.12 51.84 L1621.12 8.64 Z" fill="#000000" fill-rule="nonzero" fill-opacity="1" /><path clip-path="url(#clip620)" d="M1660.45 24.9304 L1697.54 24.9304 L1697.54 29.7915 L1660.45 29.7915 L1660.45 24.9304 M1660.45 36.7359 L1697.54 36.7359 L1697.54 41.6549 L1660.45 41.6549 L1660.45 36.7359 Z" fill="#000000" fill-rule="nonzero" fill-opacity="1" /><path clip-path="url(#clip620)" d="M1727.87 28.5473 Q1732.06 29.4443 1734.4 32.2799 Q1736.78 35.1156 1736.78 39.2822 Q1736.78 45.6768 1732.38 49.178 Q1727.98 52.6791 1719.88 52.6791 Q1717.16 52.6791 1714.27 52.1294 Q1711.4 51.6085 1708.33 50.5379 L1708.33 44.8956 Q1710.76 46.3134 1713.66 47.0368 Q1716.55 47.7602 1719.71 47.7602 Q1725.2 47.7602 1728.07 45.59 Q1730.96 43.4199 1730.96 39.2822 Q1730.96 35.4628 1728.27 33.3216 Q1725.61 31.1515 1720.83 31.1515 L1715.8 31.1515 L1715.8 26.3482 L1721.07 26.3482 Q1725.38 26.3482 1727.66 24.6411 Q1729.95 22.905 1729.95 19.6642 Q1729.95 16.3367 1727.58 14.5717 Q1725.23 12.7777 1720.83 12.7777 Q1718.43 12.7777 1715.68 13.2985 Q1712.93 13.8194 1709.64 14.9189 L1709.64 9.7106 Q1712.96 8.78468 1715.86 8.32171 Q1718.78 7.85875 1721.36 7.85875 Q1728.01 7.85875 1731.89 10.8969 Q1735.76 13.9062 1735.76 19.0566 Q1735.76 22.6446 1733.71 25.133 Q1731.66 27.5924 1727.87 28.5473 Z" fill="#000000" fill-rule="nonzero" fill-opacity="1" /><path clip-path="url(#clip622)" d="M322.151 106.192 L322.151 1423.18 L868.556 1423.18 L868.556 106.192 L322.151 106.192 L322.151 106.192  Z" fill="#4682b4" fill-rule="evenodd" fill-opacity="0.7"/>
<polyline clip-path="url(#clip622)" style="stroke:#000000; stroke-linecap:round; stroke-linejoin:round; stroke-width:4; stroke-opacity:0.7; fill:none" points="322.151,106.192 322.151,1423.18 868.556,1423.18 868.556,106.192 322.151,106.192 "/>
<path clip-path="url(#clip622)" d="M1005.16 511.009 L1005.16 1423.18 L1551.56 1423.18 L1551.56 511.009 L1005.16 511.009 L1005.16 511.009  Z" fill="#4682b4" fill-rule="evenodd" fill-opacity="0.7"/>
<polyline clip-path="url(#clip622)" style="stroke:#000000; stroke-linecap:round; stroke-linejoin:round; stroke-width:4; stroke-opacity:0.7; fill:none" points="1005.16,511.009 1005.16,1423.18 1551.56,1423.18 1551.56,511.009 1005.16,511.009 "/>
<path clip-path="url(#clip622)" d="M1688.16 640.621 L1688.16 1423.18 L2234.57 1423.18 L2234.57 640.621 L1688.16 640.621 L1688.16 640.621  Z" fill="#4682b4" fill-rule="evenodd" fill-opacity="0.7"/>
<polyline clip-path="url(#clip622)" style="stroke:#000000; stroke-linecap:round; stroke-linejoin:round; stroke-width:4; stroke-opacity:0.7; fill:none" points="1688.16,640.621 1688.16,1423.18 2234.57,1423.18 2234.57,640.621 1688.16,640.621 "/>
<circle clip-path="url(#clip622)" style="fill:#4682b4; stroke:none; fill-opacity:0" cx="595.353" cy="106.192" r="2"/>
<circle clip-path="url(#clip622)" style="fill:#4682b4; stroke:none; fill-opacity:0" cx="1278.36" cy="511.009" r="2"/>
<circle clip-path="url(#clip622)" style="fill:#4682b4; stroke:none; fill-opacity:0" cx="1961.37" cy="640.621" r="2"/>
<path clip-path="url(#clip620)" d="M2013.82 253.772 L2281.13 253.772 L2281.13 150.092 L2013.82 150.092  Z" fill="#ffffff" fill-rule="evenodd" fill-opacity="1"/>
<polyline clip-path="url(#clip620)" style="stroke:#000000; stroke-linecap:round; stroke-linejoin:round; stroke-width:4; stroke-opacity:1; fill:none" points="2013.82,253.772 2281.13,253.772 2281.13,150.092 2013.82,150.092 2013.82,253.772 "/>
<path clip-path="url(#clip620)" d="M2037.7 222.668 L2180.95 222.668 L2180.95 181.196 L2037.7 181.196 L2037.7 222.668  Z" fill="#4682b4" fill-rule="evenodd" fill-opacity="0.7"/>
<polyline clip-path="url(#clip620)" style="stroke:#000000; stroke-linecap:round; stroke-linejoin:round; stroke-width:4; stroke-opacity:1; fill:none" points="2037.7,222.668 2180.95,222.668 2180.95,181.196 2037.7,181.196 2037.7,222.668 "/>
<path clip-path="url(#clip620)" d="M2218.67 221.619 Q2216.86 226.249 2215.15 227.661 Q2213.43 229.073 2210.56 229.073 L2207.16 229.073 L2207.16 225.508 L2209.66 225.508 Q2211.42 225.508 2212.39 224.675 Q2213.37 223.841 2214.55 220.739 L2215.31 218.795 L2204.82 193.286 L2209.34 193.286 L2217.44 213.564 L2225.54 193.286 L2230.06 193.286 L2218.67 221.619 Z" fill="#000000" fill-rule="nonzero" fill-opacity="1" /><path clip-path="url(#clip620)" d="M2237.35 215.277 L2244.99 215.277 L2244.99 188.911 L2236.68 190.578 L2236.68 186.318 L2244.94 184.652 L2249.62 184.652 L2249.62 215.277 L2257.25 215.277 L2257.25 219.212 L2237.35 219.212 L2237.35 215.277 Z" fill="#000000" fill-rule="nonzero" fill-opacity="1" /></svg>
