<?xml version="1.0" encoding="utf-8"?>
<svg xmlns="http://www.w3.org/2000/svg" xmlns:xlink="http://www.w3.org/1999/xlink" width="600" height="400" viewBox="0 0 2400 1600">
<defs>
  <clipPath id="clip950">
    <rect x="0" y="0" width="2400" height="1600"/>
  </clipPath>
</defs>
<path clip-path="url(#clip950)" d="M0 1600 L2400 1600 L2400 8.88178e-14 L0 8.88178e-14  Z" fill="#ffffff" fill-rule="evenodd" fill-opacity="1"/>
<defs>
  <clipPath id="clip951">
    <rect x="225" y="0" width="1879" height="1566"/>
  </clipPath>
</defs>
<path clip-path="url(#clip950)" d="M247.459 1423.18 L2352.76 1423.18 L2352.76 106.192 L247.459 106.192  Z" fill="#ffffff" fill-rule="evenodd" fill-opacity="1"/>
<defs>
  <clipPath id="clip952">
    <rect x="247" y="106" width="2106" height="1318"/>
  </clipPath>
</defs>
<polyline clip-path="url(#clip952)" style="stroke:#000000; stroke-linecap:round; stroke-linejoin:round; stroke-width:2; stroke-opacity:0.1; fill:none" points="492.475,1423.18 492.475,106.192 "/>
<polyline clip-path="url(#clip952)" style="stroke:#000000; stroke-linecap:round; stroke-linejoin:round; stroke-width:2; stroke-opacity:0.1; fill:none" points="815.528,1423.18 815.528,106.192 "/>
<polyline clip-path="url(#clip952)" style="stroke:#000000; stroke-linecap:round; stroke-linejoin:round; stroke-width:2; stroke-opacity:0.1; fill:none" points="1138.58,1423.18 1138.58,106.192 "/>
<polyline clip-path="url(#clip952)" style="stroke:#000000; stroke-linecap:round; stroke-linejoin:round; stroke-width:2; stroke-opacity:0.1; fill:none" points="1461.63,1423.18 1461.63,106.192 "/>
<polyline clip-path="url(#clip952)" style="stroke:#000000; stroke-linecap:round; stroke-linejoin:round; stroke-width:2; stroke-opacity:0.1; fill:none" points="1784.69,1423.18 1784.69,106.192 "/>
<polyline clip-path="url(#clip952)" style="stroke:#000000; stroke-linecap:round; stroke-linejoin:round; stroke-width:2; stroke-opacity:0.1; fill:none" points="2107.74,1423.18 2107.74,106.192 "/>
<polyline clip-path="url(#clip952)" style="stroke:#000000; stroke-linecap:round; stroke-linejoin:round; stroke-width:2; stroke-opacity:0.1; fill:none" points="247.459,1423.18 2352.76,1423.18 "/>
<polyline clip-path="url(#clip952)" style="stroke:#000000; stroke-linecap:round; stroke-linejoin:round; stroke-width:2; stroke-opacity:0.1; fill:none" points="247.459,1193.63 2352.76,1193.63 "/>
<polyline clip-path="url(#clip952)" style="stroke:#000000; stroke-linecap:round; stroke-linejoin:round; stroke-width:2; stroke-opacity:0.1; fill:none" points="247.459,964.087 2352.76,964.087 "/>
<polyline clip-path="url(#clip952)" style="stroke:#000000; stroke-linecap:round; stroke-linejoin:round; stroke-width:2; stroke-opacity:0.1; fill:none" points="247.459,734.541 2352.76,734.541 "/>
<polyline clip-path="url(#clip952)" style="stroke:#000000; stroke-linecap:round; stroke-linejoin:round; stroke-width:2; stroke-opacity:0.1; fill:none" points="247.459,504.994 2352.76,504.994 "/>
<polyline clip-path="url(#clip952)" style="stroke:#000000; stroke-linecap:round; stroke-linejoin:round; stroke-width:2; stroke-opacity:0.1; fill:none" points="247.459,275.448 2352.76,275.448 "/>
<polyline clip-path="url(#clip950)" style="stroke:#000000; stroke-linecap:round; stroke-linejoin:round; stroke-width:4; stroke-opacity:1; fill:none" points="247.459,1423.18 2352.76,1423.18 "/>
<polyline clip-path="url(#clip950)" style="stroke:#000000; stroke-linecap:round; stroke-linejoin:round; stroke-width:4; stroke-opacity:1; fill:none" points="492.475,1423.18 492.475,1404.28 "/>
<polyline clip-path="url(#clip950)" style="stroke:#000000; stroke-linecap:round; stroke-linejoin:round; stroke-width:4; stroke-opacity:1; fill:none" points="815.528,1423.18 815.528,1404.28 "/>
<polyline clip-path="url(#clip950)" style="stroke:#000000; stroke-linecap:round; stroke-linejoin:round; stroke-width:4; stroke-opacity:1; fill:none" points="1138.58,1423.18 1138.58,1404.28 "/>
<polyline clip-path="url(#clip950)" style="stroke:#000000; stroke-linecap:round; stroke-linejoin:round; stroke-width:4; stroke-opacity:1; fill:none" points="1461.63,1423.18 1461.63,1404.28 "/>
<polyline clip-path="url(#clip950)" style="stroke:#000000; stroke-linecap:round; stroke-linejoin:round; stroke-width:4; stroke-opacity:1; fill:none" points="1784.69,1423.18 1784.69,1404.28 "/>
<polyline clip-path="url(#clip950)" style="stroke:#000000; stroke-linecap:round; stroke-linejoin:round; stroke-width:4; stroke-opacity:1; fill:none" points="2107.74,1423.18 2107.74,1404.28 "/>
<path clip-path="url(#clip950)" d="M482.857 1481.64 L490.496 1481.64 L490.496 1455.28 L482.186 1456.95 L482.186 1452.69 L490.45 1451.02 L495.125 1451.02 L495.125 1481.64 L502.764 1481.64 L502.764 1485.58 L482.857 1485.58 L482.857 1481.64 Z" fill="#000000" fill-rule="nonzero" fill-opacity="1" /><path clip-path="url(#clip950)" d="M810.181 1481.64 L826.5 1481.64 L826.5 1485.58 L804.556 1485.58 L804.556 1481.64 Q807.218 1478.89 811.801 1474.26 Q816.408 1469.61 817.588 1468.27 Q819.833 1465.74 820.713 1464.01 Q821.616 1462.25 821.616 1460.56 Q821.616 1457.8 819.671 1456.07 Q817.75 1454.33 814.648 1454.33 Q812.449 1454.33 809.996 1455.09 Q807.565 1455.86 804.787 1457.41 L804.787 1452.69 Q807.611 1451.55 810.065 1450.97 Q812.519 1450.39 814.556 1450.39 Q819.926 1450.39 823.12 1453.08 Q826.315 1455.77 826.315 1460.26 Q826.315 1462.39 825.505 1464.31 Q824.718 1466.2 822.611 1468.8 Q822.033 1469.47 818.931 1472.69 Q815.829 1475.88 810.181 1481.64 Z" fill="#000000" fill-rule="nonzero" fill-opacity="1" /><path clip-path="url(#clip950)" d="M1142.83 1466.95 Q1146.18 1467.66 1148.06 1469.93 Q1149.96 1472.2 1149.96 1475.53 Q1149.96 1480.65 1146.44 1483.45 Q1142.92 1486.25 1136.44 1486.25 Q1134.26 1486.25 1131.95 1485.81 Q1129.66 1485.39 1127.2 1484.54 L1127.2 1480.02 Q1129.15 1481.16 1131.46 1481.74 Q1133.78 1482.32 1136.3 1482.32 Q1140.7 1482.32 1142.99 1480.58 Q1145.31 1478.84 1145.31 1475.53 Q1145.31 1472.48 1143.15 1470.77 Q1141.02 1469.03 1137.2 1469.03 L1133.18 1469.03 L1133.18 1465.19 L1137.39 1465.19 Q1140.84 1465.19 1142.67 1463.82 Q1144.5 1462.43 1144.5 1459.84 Q1144.5 1457.18 1142.6 1455.77 Q1140.72 1454.33 1137.2 1454.33 Q1135.28 1454.33 1133.08 1454.75 Q1130.88 1455.16 1128.25 1456.04 L1128.25 1451.88 Q1130.91 1451.14 1133.22 1450.77 Q1135.56 1450.39 1137.62 1450.39 Q1142.94 1450.39 1146.05 1452.83 Q1149.15 1455.23 1149.15 1459.35 Q1149.15 1462.22 1147.5 1464.21 Q1145.86 1466.18 1142.83 1466.95 Z" fill="#000000" fill-rule="nonzero" fill-opacity="1" /><path clip-path="url(#clip950)" d="M1464.64 1455.09 L1452.84 1473.54 L1464.64 1473.54 L1464.64 1455.09 M1463.42 1451.02 L1469.3 1451.02 L1469.3 1473.54 L1474.23 1473.54 L1474.23 1477.43 L1469.3 1477.43 L1469.3 1485.58 L1464.64 1485.58 L1464.64 1477.43 L1449.04 1477.43 L1449.04 1472.92 L1463.42 1451.02 Z" fill="#000000" fill-rule="nonzero" fill-opacity="1" /><path clip-path="url(#clip950)" d="M1774.96 1451.02 L1793.32 1451.02 L1793.32 1454.96 L1779.25 1454.96 L1779.25 1463.43 Q1780.27 1463.08 1781.28 1462.92 Q1782.3 1462.73 1783.32 1462.73 Q1789.11 1462.73 1792.49 1465.9 Q1795.87 1469.08 1795.87 1474.49 Q1795.87 1480.07 1792.39 1483.17 Q1788.92 1486.25 1782.6 1486.25 Q1780.43 1486.25 1778.16 1485.88 Q1775.91 1485.51 1773.51 1484.77 L1773.51 1480.07 Q1775.59 1481.2 1777.81 1481.76 Q1780.03 1482.32 1782.51 1482.32 Q1786.52 1482.32 1788.85 1480.21 Q1791.19 1478.1 1791.19 1474.49 Q1791.19 1470.88 1788.85 1468.77 Q1786.52 1466.67 1782.51 1466.67 Q1780.64 1466.67 1778.76 1467.08 Q1776.91 1467.5 1774.96 1468.38 L1774.96 1451.02 Z" fill="#000000" fill-rule="nonzero" fill-opacity="1" /><path clip-path="url(#clip950)" d="M2108.14 1466.44 Q2105 1466.44 2103.14 1468.59 Q2101.32 1470.74 2101.32 1474.49 Q2101.32 1478.22 2103.14 1480.39 Q2105 1482.55 2108.14 1482.55 Q2111.29 1482.55 2113.12 1480.39 Q2114.97 1478.22 2114.97 1474.49 Q2114.97 1470.74 2113.12 1468.59 Q2111.29 1466.44 2108.14 1466.44 M2117.43 1451.78 L2117.43 1456.04 Q2115.67 1455.21 2113.86 1454.77 Q2112.08 1454.33 2110.32 1454.33 Q2105.69 1454.33 2103.24 1457.45 Q2100.81 1460.58 2100.46 1466.9 Q2101.83 1464.89 2103.89 1463.82 Q2105.95 1462.73 2108.42 1462.73 Q2113.63 1462.73 2116.64 1465.9 Q2119.67 1469.05 2119.67 1474.49 Q2119.67 1479.82 2116.52 1483.03 Q2113.38 1486.25 2108.14 1486.25 Q2102.15 1486.25 2098.98 1481.67 Q2095.81 1477.06 2095.81 1468.33 Q2095.81 1460.14 2099.7 1455.28 Q2103.58 1450.39 2110.14 1450.39 Q2111.89 1450.39 2113.68 1450.74 Q2115.48 1451.09 2117.43 1451.78 Z" fill="#000000" fill-rule="nonzero" fill-opacity="1" /><path clip-path="url(#clip950)" d="M1248.31 1522.08 L1248.31 1528.35 Q1244.65 1526.6 1241.4 1525.74 Q1238.15 1524.88 1235.13 1524.88 Q1229.88 1524.88 1227.01 1526.92 Q1224.18 1528.96 1224.18 1532.71 Q1224.18 1535.87 1226.06 1537.49 Q1227.97 1539.08 1233.25 1540.07 L1237.13 1540.86 Q1244.33 1542.23 1247.73 1545.7 Q1251.17 1549.14 1251.17 1554.93 Q1251.17 1561.84 1246.52 1565.4 Q1241.91 1568.97 1232.97 1568.97 Q1229.59 1568.97 1225.77 1568.2 Q1221.98 1567.44 1217.91 1565.94 L1217.91 1559.32 Q1221.83 1561.52 1225.58 1562.63 Q1229.34 1563.75 1232.97 1563.75 Q1238.47 1563.75 1241.46 1561.58 Q1244.46 1559.42 1244.46 1555.41 Q1244.46 1551.91 1242.29 1549.93 Q1240.16 1547.96 1235.26 1546.97 L1231.34 1546.21 Q1224.15 1544.78 1220.93 1541.72 Q1217.72 1538.67 1217.72 1533.22 Q1217.72 1526.92 1222.14 1523.29 Q1226.6 1519.66 1234.4 1519.66 Q1237.74 1519.66 1241.21 1520.27 Q1244.68 1520.87 1248.31 1522.08 Z" fill="#000000" fill-rule="nonzero" fill-opacity="1" /><path clip-path="url(#clip950)" d="M1266.74 1522.27 L1266.74 1532.4 L1278.8 1532.4 L1278.8 1536.95 L1266.74 1536.95 L1266.74 1556.3 Q1266.74 1560.66 1267.91 1561.9 Q1269.12 1563.14 1272.78 1563.14 L1278.8 1563.14 L1278.8 1568.04 L1272.78 1568.04 Q1266 1568.04 1263.42 1565.53 Q1260.85 1562.98 1260.85 1556.3 L1260.85 1536.95 L1256.55 1536.95 L1256.55 1532.4 L1260.85 1532.4 L1260.85 1522.27 L1266.74 1522.27 Z" fill="#000000" fill-rule="nonzero" fill-opacity="1" /><path clip-path="url(#clip950)" d="M1302.7 1550.12 Q1295.6 1550.12 1292.87 1551.75 Q1290.13 1553.37 1290.13 1557.29 Q1290.13 1560.4 1292.17 1562.25 Q1294.23 1564.07 1297.77 1564.07 Q1302.64 1564.07 1305.57 1560.63 Q1308.53 1557.16 1308.53 1551.43 L1308.53 1550.12 L1302.7 1550.12 M1314.38 1547.71 L1314.38 1568.04 L1308.53 1568.04 L1308.53 1562.63 Q1306.52 1565.88 1303.53 1567.44 Q1300.54 1568.97 1296.21 1568.97 Q1290.73 1568.97 1287.49 1565.91 Q1284.27 1562.82 1284.27 1557.67 Q1284.27 1551.65 1288.28 1548.6 Q1292.33 1545.54 1300.31 1545.54 L1308.53 1545.54 L1308.53 1544.97 Q1308.53 1540.93 1305.85 1538.73 Q1303.21 1536.5 1298.4 1536.5 Q1295.35 1536.5 1292.45 1537.23 Q1289.56 1537.97 1286.88 1539.43 L1286.88 1534.02 Q1290.1 1532.78 1293.12 1532.17 Q1296.14 1531.54 1299.01 1531.54 Q1306.74 1531.54 1310.56 1535.55 Q1314.38 1539.56 1314.38 1547.71 Z" fill="#000000" fill-rule="nonzero" fill-opacity="1" /><path clip-path="url(#clip950)" d="M1332.24 1522.27 L1332.24 1532.4 L1344.3 1532.4 L1344.3 1536.95 L1332.24 1536.95 L1332.24 1556.3 Q1332.24 1560.66 1333.42 1561.9 Q1334.63 1563.14 1338.29 1563.14 L1344.3 1563.14 L1344.3 1568.04 L1338.29 1568.04 Q1331.51 1568.04 1328.93 1565.53 Q1326.35 1562.98 1326.35 1556.3 L1326.35 1536.95 L1322.05 1536.95 L1322.05 1532.4 L1326.35 1532.4 L1326.35 1522.27 L1332.24 1522.27 Z" fill="#000000" fill-rule="nonzero" fill-opacity="1" /><path clip-path="url(#clip950)" d="M1382.5 1548.76 L1382.5 1551.62 L1355.57 1551.62 Q1355.95 1557.67 1359.2 1560.85 Q1362.48 1564 1368.3 1564 Q1371.67 1564 1374.82 1563.17 Q1378.01 1562.35 1381.13 1560.69 L1381.13 1566.23 Q1377.98 1567.57 1374.67 1568.27 Q1371.36 1568.97 1367.95 1568.97 Q1359.42 1568.97 1354.42 1564 Q1349.46 1559.04 1349.46 1550.57 Q1349.46 1541.82 1354.17 1536.69 Q1358.91 1531.54 1366.93 1531.54 Q1374.12 1531.54 1378.29 1536.18 Q1382.5 1540.8 1382.5 1548.76 M1376.64 1547.04 Q1376.58 1542.23 1373.93 1539.37 Q1371.32 1536.5 1366.99 1536.5 Q1362.09 1536.5 1359.13 1539.27 Q1356.21 1542.04 1355.76 1547.07 L1376.64 1547.04 Z" fill="#000000" fill-rule="nonzero" fill-opacity="1" /><polyline clip-path="url(#clip950)" style="stroke:#000000; stroke-linecap:round; stroke-linejoin:round; stroke-width:4; stroke-opacity:1; fill:none" points="247.459,1423.18 247.459,106.192 "/>
<polyline clip-path="url(#clip950)" style="stroke:#000000; stroke-linecap:round; stroke-linejoin:round; stroke-width:4; stroke-opacity:1; fill:none" points="247.459,1423.18 266.356,1423.18 "/>
<polyline clip-path="url(#clip950)" style="stroke:#000000; stroke-linecap:round; stroke-linejoin:round; stroke-width:4; stroke-opacity:1; fill:none" points="247.459,1193.63 266.356,1193.63 "/>
<polyline clip-path="url(#clip950)" style="stroke:#000000; stroke-linecap:round; stroke-linejoin:round; stroke-width:4; stroke-opacity:1; fill:none" points="247.459,964.087 266.356,964.087 "/>
<polyline clip-path="url(#clip950)" style="stroke:#000000; stroke-linecap:round; stroke-linejoin:round; stroke-width:4; stroke-opacity:1; fill:none" points="247.459,734.541 266.356,734.541 "/>
<polyline clip-path="url(#clip950)" style="stroke:#000000; stroke-linecap:round; stroke-linejoin:round; stroke-width:4; stroke-opacity:1; fill:none" points="247.459,504.994 266.356,504.994 "/>
<polyline clip-path="url(#clip950)" style="stroke:#000000; stroke-linecap:round; stroke-linejoin:round; stroke-width:4; stroke-opacity:1; fill:none" points="247.459,275.448 266.356,275.448 "/>
<path clip-path="url(#clip950)" d="M154.283 1408.98 Q150.672 1408.98 148.843 1412.54 Q147.038 1416.08 147.038 1423.21 Q147.038 1430.32 148.843 1433.89 Q150.672 1437.43 154.283 1437.43 Q157.917 1437.43 159.723 1433.89 Q161.552 1430.32 161.552 1423.21 Q161.552 1416.08 159.723 1412.54 Q157.917 1408.98 154.283 1408.98 M154.283 1405.27 Q160.093 1405.27 163.149 1409.88 Q166.227 1414.46 166.227 1423.21 Q166.227 1431.94 163.149 1436.55 Q160.093 1441.13 154.283 1441.13 Q148.473 1441.13 145.394 1436.55 Q142.339 1431.94 142.339 1423.21 Q142.339 1414.46 145.394 1409.88 Q148.473 1405.27 154.283 1405.27 Z" fill="#000000" fill-rule="nonzero" fill-opacity="1" /><path clip-path="url(#clip950)" d="M174.445 1434.58 L179.329 1434.58 L179.329 1440.46 L174.445 1440.46 L174.445 1434.58 Z" fill="#000000" fill-rule="nonzero" fill-opacity="1" /><path clip-path="url(#clip950)" d="M199.514 1408.98 Q195.903 1408.98 194.075 1412.54 Q192.269 1416.08 192.269 1423.21 Q192.269 1430.32 194.075 1433.89 Q195.903 1437.43 199.514 1437.43 Q203.149 1437.43 204.954 1433.89 Q206.783 1430.32 206.783 1423.21 Q206.783 1416.08 204.954 1412.54 Q203.149 1408.98 199.514 1408.98 M199.514 1405.27 Q205.324 1405.27 208.38 1409.88 Q211.459 1414.46 211.459 1423.21 Q211.459 1431.94 208.38 1436.55 Q205.324 1441.13 199.514 1441.13 Q193.704 1441.13 190.625 1436.55 Q187.57 1431.94 187.57 1423.21 Q187.57 1414.46 190.625 1409.88 Q193.704 1405.27 199.514 1405.27 Z" fill="#000000" fill-rule="nonzero" fill-opacity="1" /><path clip-path="url(#clip950)" d="M149.306 1206.98 L165.626 1206.98 L165.626 1210.91 L143.681 1210.91 L143.681 1206.98 Q146.343 1204.22 150.927 1199.59 Q155.533 1194.94 156.714 1193.6 Q158.959 1191.08 159.839 1189.34 Q160.741 1187.58 160.741 1185.89 Q160.741 1183.14 158.797 1181.4 Q156.876 1179.66 153.774 1179.66 Q151.575 1179.66 149.121 1180.43 Q146.691 1181.19 143.913 1182.74 L143.913 1178.02 Q146.737 1176.89 149.191 1176.31 Q151.644 1175.73 153.681 1175.73 Q159.052 1175.73 162.246 1178.41 Q165.44 1181.1 165.44 1185.59 Q165.44 1187.72 164.63 1189.64 Q163.843 1191.54 161.737 1194.13 Q161.158 1194.8 158.056 1198.02 Q154.954 1201.21 149.306 1206.98 Z" fill="#000000" fill-rule="nonzero" fill-opacity="1" /><path clip-path="url(#clip950)" d="M175.44 1205.03 L180.325 1205.03 L180.325 1210.91 L175.44 1210.91 L175.44 1205.03 Z" fill="#000000" fill-rule="nonzero" fill-opacity="1" /><path clip-path="url(#clip950)" d="M190.556 1176.35 L208.912 1176.35 L208.912 1180.29 L194.838 1180.29 L194.838 1188.76 Q195.857 1188.41 196.875 1188.25 Q197.894 1188.07 198.912 1188.07 Q204.699 1188.07 208.079 1191.24 Q211.459 1194.41 211.459 1199.83 Q211.459 1205.4 207.987 1208.51 Q204.514 1211.58 198.195 1211.58 Q196.019 1211.58 193.75 1211.21 Q191.505 1210.84 189.098 1210.1 L189.098 1205.4 Q191.181 1206.54 193.403 1207.09 Q195.625 1207.65 198.102 1207.65 Q202.107 1207.65 204.445 1205.54 Q206.783 1203.44 206.783 1199.83 Q206.783 1196.21 204.445 1194.11 Q202.107 1192 198.102 1192 Q196.227 1192 194.352 1192.42 Q192.5 1192.83 190.556 1193.71 L190.556 1176.35 Z" fill="#000000" fill-rule="nonzero" fill-opacity="1" /><path clip-path="url(#clip950)" d="M144.329 946.807 L162.686 946.807 L162.686 950.742 L148.612 950.742 L148.612 959.214 Q149.63 958.867 150.649 958.705 Q151.667 958.52 152.686 958.52 Q158.473 958.52 161.852 961.691 Q165.232 964.863 165.232 970.279 Q165.232 975.858 161.76 978.96 Q158.288 982.038 151.968 982.038 Q149.792 982.038 147.524 981.668 Q145.279 981.298 142.871 980.557 L142.871 975.858 Q144.954 976.992 147.177 977.548 Q149.399 978.103 151.876 978.103 Q155.88 978.103 158.218 975.997 Q160.556 973.89 160.556 970.279 Q160.556 966.668 158.218 964.562 Q155.88 962.455 151.876 962.455 Q150.001 962.455 148.126 962.872 Q146.274 963.288 144.329 964.168 L144.329 946.807 Z" fill="#000000" fill-rule="nonzero" fill-opacity="1" /><path clip-path="url(#clip950)" d="M174.445 975.487 L179.329 975.487 L179.329 981.367 L174.445 981.367 L174.445 975.487 Z" fill="#000000" fill-rule="nonzero" fill-opacity="1" /><path clip-path="url(#clip950)" d="M199.514 949.886 Q195.903 949.886 194.075 953.451 Q192.269 956.992 192.269 964.122 Q192.269 971.228 194.075 974.793 Q195.903 978.335 199.514 978.335 Q203.149 978.335 204.954 974.793 Q206.783 971.228 206.783 964.122 Q206.783 956.992 204.954 953.451 Q203.149 949.886 199.514 949.886 M199.514 946.182 Q205.324 946.182 208.38 950.789 Q211.459 955.372 211.459 964.122 Q211.459 972.849 208.38 977.455 Q205.324 982.038 199.514 982.038 Q193.704 982.038 190.625 977.455 Q187.57 972.849 187.57 964.122 Q187.57 955.372 190.625 950.789 Q193.704 946.182 199.514 946.182 Z" fill="#000000" fill-rule="nonzero" fill-opacity="1" /><path clip-path="url(#clip950)" d="M144.098 717.261 L166.32 717.261 L166.32 719.251 L153.774 751.821 L148.89 751.821 L160.695 721.196 L144.098 721.196 L144.098 717.261 Z" fill="#000000" fill-rule="nonzero" fill-opacity="1" /><path clip-path="url(#clip950)" d="M175.44 745.941 L180.325 745.941 L180.325 751.821 L175.44 751.821 L175.44 745.941 Z" fill="#000000" fill-rule="nonzero" fill-opacity="1" /><path clip-path="url(#clip950)" d="M190.556 717.261 L208.912 717.261 L208.912 721.196 L194.838 721.196 L194.838 729.668 Q195.857 729.321 196.875 729.159 Q197.894 728.974 198.912 728.974 Q204.699 728.974 208.079 732.145 Q211.459 735.316 211.459 740.733 Q211.459 746.311 207.987 749.413 Q204.514 752.492 198.195 752.492 Q196.019 752.492 193.75 752.122 Q191.505 751.751 189.098 751.01 L189.098 746.311 Q191.181 747.446 193.403 748.001 Q195.625 748.557 198.102 748.557 Q202.107 748.557 204.445 746.45 Q206.783 744.344 206.783 740.733 Q206.783 737.122 204.445 735.015 Q202.107 732.909 198.102 732.909 Q196.227 732.909 194.352 733.325 Q192.5 733.742 190.556 734.622 L190.556 717.261 Z" fill="#000000" fill-rule="nonzero" fill-opacity="1" /><path clip-path="url(#clip950)" d="M114.931 518.339 L122.57 518.339 L122.57 491.973 L114.26 493.64 L114.26 489.381 L122.524 487.714 L127.2 487.714 L127.2 518.339 L134.839 518.339 L134.839 522.274 L114.931 522.274 L114.931 518.339 Z" fill="#000000" fill-rule="nonzero" fill-opacity="1" /><path clip-path="url(#clip950)" d="M154.283 490.793 Q150.672 490.793 148.843 494.358 Q147.038 497.899 147.038 505.029 Q147.038 512.135 148.843 515.7 Q150.672 519.242 154.283 519.242 Q157.917 519.242 159.723 515.7 Q161.552 512.135 161.552 505.029 Q161.552 497.899 159.723 494.358 Q157.917 490.793 154.283 490.793 M154.283 487.089 Q160.093 487.089 163.149 491.696 Q166.227 496.279 166.227 505.029 Q166.227 513.756 163.149 518.362 Q160.093 522.946 154.283 522.946 Q148.473 522.946 145.394 518.362 Q142.339 513.756 142.339 505.029 Q142.339 496.279 145.394 491.696 Q148.473 487.089 154.283 487.089 Z" fill="#000000" fill-rule="nonzero" fill-opacity="1" /><path clip-path="url(#clip950)" d="M174.445 516.395 L179.329 516.395 L179.329 522.274 L174.445 522.274 L174.445 516.395 Z" fill="#000000" fill-rule="nonzero" fill-opacity="1" /><path clip-path="url(#clip950)" d="M199.514 490.793 Q195.903 490.793 194.075 494.358 Q192.269 497.899 192.269 505.029 Q192.269 512.135 194.075 515.7 Q195.903 519.242 199.514 519.242 Q203.149 519.242 204.954 515.7 Q206.783 512.135 206.783 505.029 Q206.783 497.899 204.954 494.358 Q203.149 490.793 199.514 490.793 M199.514 487.089 Q205.324 487.089 208.38 491.696 Q211.459 496.279 211.459 505.029 Q211.459 513.756 208.38 518.362 Q205.324 522.946 199.514 522.946 Q193.704 522.946 190.625 518.362 Q187.57 513.756 187.57 505.029 Q187.57 496.279 190.625 491.696 Q193.704 487.089 199.514 487.089 Z" fill="#000000" fill-rule="nonzero" fill-opacity="1" /><path clip-path="url(#clip950)" d="M115.927 288.793 L123.566 288.793 L123.566 262.427 L115.256 264.094 L115.256 259.835 L123.519 258.168 L128.195 258.168 L128.195 288.793 L135.834 288.793 L135.834 292.728 L115.927 292.728 L115.927 288.793 Z" fill="#000000" fill-rule="nonzero" fill-opacity="1" /><path clip-path="url(#clip950)" d="M149.306 288.793 L165.626 288.793 L165.626 292.728 L143.681 292.728 L143.681 288.793 Q146.343 286.038 150.927 281.408 Q155.533 276.756 156.714 275.413 Q158.959 272.89 159.839 271.154 Q160.741 269.395 160.741 267.705 Q160.741 264.95 158.797 263.214 Q156.876 261.478 153.774 261.478 Q151.575 261.478 149.121 262.242 Q146.691 263.006 143.913 264.557 L143.913 259.835 Q146.737 258.7 149.191 258.122 Q151.644 257.543 153.681 257.543 Q159.052 257.543 162.246 260.228 Q165.44 262.913 165.44 267.404 Q165.44 269.534 164.63 271.455 Q163.843 273.353 161.737 275.946 Q161.158 276.617 158.056 279.834 Q154.954 283.029 149.306 288.793 Z" fill="#000000" fill-rule="nonzero" fill-opacity="1" /><path clip-path="url(#clip950)" d="M175.44 286.848 L180.325 286.848 L180.325 292.728 L175.44 292.728 L175.44 286.848 Z" fill="#000000" fill-rule="nonzero" fill-opacity="1" /><path clip-path="url(#clip950)" d="M190.556 258.168 L208.912 258.168 L208.912 262.103 L194.838 262.103 L194.838 270.575 Q195.857 270.228 196.875 270.066 Q197.894 269.881 198.912 269.881 Q204.699 269.881 208.079 273.052 Q211.459 276.223 211.459 281.64 Q211.459 287.219 207.987 290.32 Q204.514 293.399 198.195 293.399 Q196.019 293.399 193.75 293.029 Q191.505 292.658 189.098 291.918 L189.098 287.219 Q191.181 288.353 193.403 288.908 Q195.625 289.464 198.102 289.464 Q202.107 289.464 204.445 287.358 Q206.783 285.251 206.783 281.64 Q206.783 278.029 204.445 275.922 Q202.107 273.816 198.102 273.816 Q196.227 273.816 194.352 274.233 Q192.5 274.649 190.556 275.529 L190.556 258.168 Z" fill="#000000" fill-rule="nonzero" fill-opacity="1" /><path clip-path="url(#clip950)" d="M18.0438 821.548 L24.314 821.548 Q22.5634 825.208 21.704 828.454 Q20.8447 831.701 20.8447 834.725 Q20.8447 839.976 22.8817 842.841 Q24.9187 845.674 28.6745 845.674 Q31.8255 845.674 33.4488 843.796 Q35.0402 841.886 36.0269 836.603 L36.8226 832.719 Q38.1912 825.526 41.6605 822.121 Q45.098 818.683 50.8908 818.683 Q57.7976 818.683 61.3624 823.33 Q64.9272 827.945 64.9272 836.889 Q64.9272 840.263 64.1633 844.082 Q63.3994 847.87 61.9035 851.944 L55.2831 851.944 Q57.4793 848.029 58.5933 844.273 Q59.7073 840.517 59.7073 836.889 Q59.7073 831.383 57.543 828.391 Q55.3786 825.399 51.3682 825.399 Q47.8671 825.399 45.8937 827.563 Q43.9204 829.696 42.9337 834.597 L42.1698 838.512 Q40.7375 845.706 37.682 848.92 Q34.6264 852.135 29.1837 852.135 Q22.8817 852.135 19.2532 847.711 Q15.6248 843.255 15.6248 835.457 Q15.6248 832.115 16.2295 828.645 Q16.8343 825.176 18.0438 821.548 Z" fill="#000000" fill-rule="nonzero" fill-opacity="1" /><path clip-path="url(#clip950)" d="M18.2347 803.119 L28.3562 803.119 L28.3562 791.056 L32.9077 791.056 L32.9077 803.119 L52.2594 803.119 Q56.6199 803.119 57.8613 801.941 Q59.1026 800.732 59.1026 797.072 L59.1026 791.056 L64.0042 791.056 L64.0042 797.072 Q64.0042 803.851 61.4897 806.429 Q58.9434 809.007 52.2594 809.007 L32.9077 809.007 L32.9077 813.304 L28.3562 813.304 L28.3562 809.007 L18.2347 809.007 L18.2347 803.119 Z" fill="#000000" fill-rule="nonzero" fill-opacity="1" /><path clip-path="url(#clip950)" d="M44.7161 752.862 L47.5806 752.862 L47.5806 779.789 Q53.6281 779.407 56.8109 776.16 Q59.9619 772.882 59.9619 767.057 Q59.9619 763.683 59.1344 760.532 Q58.3069 757.35 56.6518 754.23 L62.1899 754.23 Q63.5267 757.381 64.227 760.692 Q64.9272 764.002 64.9272 767.407 Q64.9272 775.937 59.9619 780.934 Q54.9967 785.9 46.5303 785.9 Q37.7774 785.9 32.6531 781.189 Q27.4968 776.447 27.4968 768.426 Q27.4968 761.233 32.1438 757.063 Q36.7589 752.862 44.7161 752.862 M42.9973 758.718 Q38.1912 758.782 35.3266 761.424 Q32.4621 764.033 32.4621 768.362 Q32.4621 773.264 35.2312 776.224 Q38.0002 779.152 43.0292 779.598 L42.9973 758.718 Z" fill="#000000" fill-rule="nonzero" fill-opacity="1" /><path clip-path="url(#clip950)" d="M58.657 737.584 L77.5631 737.584 L77.5631 743.472 L28.3562 743.472 L28.3562 737.584 L33.7671 737.584 Q30.5842 735.738 29.0564 732.937 Q27.4968 730.104 27.4968 726.189 Q27.4968 719.696 32.6531 715.654 Q37.8093 711.58 46.212 711.58 Q54.6147 711.58 59.771 715.654 Q64.9272 719.696 64.9272 726.189 Q64.9272 730.104 63.3994 732.937 Q61.8398 735.738 58.657 737.584 M46.212 717.659 Q39.7508 717.659 36.0905 720.333 Q32.3984 722.975 32.3984 727.622 Q32.3984 732.269 36.0905 734.942 Q39.7508 737.584 46.212 737.584 Q52.6732 737.584 56.3653 734.942 Q60.0256 732.269 60.0256 727.622 Q60.0256 722.975 56.3653 720.333 Q52.6732 717.659 46.212 717.659 Z" fill="#000000" fill-rule="nonzero" fill-opacity="1" /><path clip-path="url(#clip950)" d="M29.4065 679.147 L34.9447 679.147 Q33.6716 681.629 33.035 684.303 Q32.3984 686.977 32.3984 689.841 Q32.3984 694.202 33.7352 696.398 Q35.072 698.562 37.7456 698.562 Q39.7826 698.562 40.9603 697.003 Q42.1061 695.443 43.1565 690.732 L43.6021 688.727 Q44.9389 682.489 47.3897 679.879 Q49.8086 677.237 54.1691 677.237 Q59.1344 677.237 62.0308 681.184 Q64.9272 685.099 64.9272 691.974 Q64.9272 694.838 64.3543 697.957 Q63.8132 701.045 62.6992 704.482 L56.6518 704.482 Q58.3387 701.236 59.198 698.085 Q60.0256 694.934 60.0256 691.846 Q60.0256 687.709 58.6251 685.481 Q57.1929 683.253 54.6147 683.253 Q52.2276 683.253 50.9545 684.876 Q49.6813 686.467 48.5037 691.91 L48.0262 693.947 Q46.8804 699.39 44.5251 701.809 Q42.138 704.228 38.0002 704.228 Q32.9713 704.228 30.2341 700.663 Q27.4968 697.098 27.4968 690.541 Q27.4968 687.295 27.9743 684.43 Q28.4517 681.566 29.4065 679.147 Z" fill="#000000" fill-rule="nonzero" fill-opacity="1" /><path clip-path="url(#clip950)" d="M841.183 8.64 L849.054 8.64 L868.209 44.7799 L868.209 8.64 L873.88 8.64 L873.88 51.84 L866.01 51.84 L846.855 15.7001 L846.855 51.84 L841.183 51.84 L841.183 8.64 Z" fill="#000000" fill-rule="nonzero" fill-opacity="1" /><path clip-path="url(#clip950)" d="M900.008 35.5496 Q893.556 35.5496 891.067 37.0253 Q888.579 38.501 888.579 42.06 Q888.579 44.8956 890.431 46.5738 Q892.311 48.2231 895.523 48.2231 Q899.95 48.2231 902.612 45.0981 Q905.303 41.9442 905.303 36.7359 L905.303 35.5496 L900.008 35.5496 M910.627 33.3505 L910.627 51.84 L905.303 51.84 L905.303 46.921 Q903.48 49.8724 900.76 51.2902 Q898.041 52.6791 894.105 52.6791 Q889.129 52.6791 886.177 49.9014 Q883.255 47.0947 883.255 42.4072 Q883.255 36.9385 886.901 34.1607 Q890.575 31.3829 897.838 31.3829 L905.303 31.3829 L905.303 30.8621 Q905.303 27.1874 902.873 25.1908 Q900.471 23.1654 896.102 23.1654 Q893.324 23.1654 890.691 23.8309 Q888.058 24.4964 885.627 25.8274 L885.627 20.9085 Q888.55 19.78 891.299 19.2302 Q894.048 18.6515 896.652 18.6515 Q903.683 18.6515 907.155 22.2973 Q910.627 25.9431 910.627 33.3505 Z" fill="#000000" fill-rule="nonzero" fill-opacity="1" /><path clip-path="url(#clip950)" d="M926.86 10.2314 L926.86 19.4328 L937.826 19.4328 L937.826 23.5705 L926.86 23.5705 L926.86 41.163 Q926.86 45.1271 927.93 46.2555 Q929.03 47.384 932.358 47.384 L937.826 47.384 L937.826 51.84 L932.358 51.84 Q926.194 51.84 923.851 49.5541 Q921.507 47.2393 921.507 41.163 L921.507 23.5705 L917.601 23.5705 L917.601 19.4328 L921.507 19.4328 L921.507 10.2314 L926.86 10.2314 Z" fill="#000000" fill-rule="nonzero" fill-opacity="1" /><path clip-path="url(#clip950)" d="M944.279 39.0507 L944.279 19.4328 L949.603 19.4328 L949.603 38.8482 Q949.603 43.4488 951.397 45.7636 Q953.191 48.0495 956.779 48.0495 Q961.09 48.0495 963.578 45.3007 Q966.096 42.5519 966.096 37.8065 L966.096 19.4328 L971.42 19.4328 L971.42 51.84 L966.096 51.84 L966.096 46.8632 Q964.157 49.8145 961.582 51.2613 Q959.036 52.6791 955.65 52.6791 Q950.066 52.6791 947.172 49.2069 Q944.279 45.7347 944.279 39.0507 M957.676 18.6515 L957.676 18.6515 Z" fill="#000000" fill-rule="nonzero" fill-opacity="1" /><path clip-path="url(#clip950)" d="M1001.17 24.4096 Q1000.27 23.8888 999.197 23.6573 Q998.156 23.3969 996.883 23.3969 Q992.369 23.3969 989.938 26.3482 Q987.537 29.2707 987.537 34.7683 L987.537 51.84 L982.184 51.84 L982.184 19.4328 L987.537 19.4328 L987.537 24.4675 Q989.215 21.5161 991.906 20.0983 Q994.597 18.6515 998.445 18.6515 Q998.995 18.6515 999.66 18.7383 Q1000.33 18.7962 1001.14 18.9409 L1001.17 24.4096 Z" fill="#000000" fill-rule="nonzero" fill-opacity="1" /><path clip-path="url(#clip950)" d="M1021.48 35.5496 Q1015.02 35.5496 1012.54 37.0253 Q1010.05 38.501 1010.05 42.06 Q1010.05 44.8956 1011.9 46.5738 Q1013.78 48.2231 1016.99 48.2231 Q1021.42 48.2231 1024.08 45.0981 Q1026.77 41.9442 1026.77 36.7359 L1026.77 35.5496 L1021.48 35.5496 M1032.1 33.3505 L1032.1 51.84 L1026.77 51.84 L1026.77 46.921 Q1024.95 49.8724 1022.23 51.2902 Q1019.51 52.6791 1015.57 52.6791 Q1010.6 52.6791 1007.65 49.9014 Q1004.72 47.0947 1004.72 42.4072 Q1004.72 36.9385 1008.37 34.1607 Q1012.04 31.3829 1019.31 31.3829 L1026.77 31.3829 L1026.77 30.8621 Q1026.77 27.1874 1024.34 25.1908 Q1021.94 23.1654 1017.57 23.1654 Q1014.79 23.1654 1012.16 23.8309 Q1009.53 24.4964 1007.1 25.8274 L1007.1 20.9085 Q1010.02 19.78 1012.77 19.2302 Q1015.52 18.6515 1018.12 18.6515 Q1025.15 18.6515 1028.62 22.2973 Q1032.1 25.9431 1032.1 33.3505 Z" fill="#000000" fill-rule="nonzero" fill-opacity="1" /><path clip-path="url(#clip950)" d="M1043.06 6.81709 L1048.39 6.81709 L1048.39 51.84 L1043.06 51.84 L1043.06 6.81709 Z" fill="#000000" fill-rule="nonzero" fill-opacity="1" /><path clip-path="url(#clip950)" d="M1099.08 31.5855 Q1100.96 32.222 1102.73 34.3054 Q1104.52 36.3887 1106.31 40.0345 L1112.25 51.84 L1105.97 51.84 L1100.44 40.7579 Q1098.3 36.4176 1096.27 34.9998 Q1094.28 33.582 1090.81 33.582 L1084.44 33.582 L1084.44 51.84 L1078.6 51.84 L1078.6 8.64 L1091.79 8.64 Q1099.2 8.64 1102.84 11.736 Q1106.49 14.8321 1106.49 21.0821 Q1106.49 25.1619 1104.58 27.8529 Q1102.7 30.5438 1099.08 31.5855 M1084.44 13.4432 L1084.44 28.7788 L1091.79 28.7788 Q1096.01 28.7788 1098.16 26.8401 Q1100.33 24.8726 1100.33 21.0821 Q1100.33 17.2916 1098.16 15.3819 Q1096.01 13.4432 1091.79 13.4432 L1084.44 13.4432 Z" fill="#000000" fill-rule="nonzero" fill-opacity="1" /><path clip-path="url(#clip950)" d="M1144.6 34.3054 L1144.6 36.9095 L1120.12 36.9095 Q1120.46 42.4072 1123.42 45.3007 Q1126.4 48.1653 1131.69 48.1653 Q1134.76 48.1653 1137.62 47.4129 Q1140.52 46.6606 1143.35 45.156 L1143.35 50.1907 Q1140.49 51.406 1137.48 52.0425 Q1134.47 52.6791 1131.37 52.6791 Q1123.62 52.6791 1119.08 48.1653 Q1114.56 43.6514 1114.56 35.9547 Q1114.56 27.9975 1118.84 23.339 Q1123.16 18.6515 1130.45 18.6515 Q1136.99 18.6515 1140.78 22.876 Q1144.6 27.0716 1144.6 34.3054 M1139.27 32.7429 Q1139.21 28.3737 1136.81 25.7695 Q1134.44 23.1654 1130.5 23.1654 Q1126.05 23.1654 1123.36 25.6827 Q1120.7 28.2001 1120.29 32.7718 L1139.27 32.7429 Z" fill="#000000" fill-rule="nonzero" fill-opacity="1" /><path clip-path="url(#clip950)" d="M1173.99 20.3876 L1173.99 25.4223 Q1171.74 24.2649 1169.31 23.6862 Q1166.88 23.1075 1164.27 23.1075 Q1160.31 23.1075 1158.31 24.3228 Q1156.34 25.5381 1156.34 27.9686 Q1156.34 29.8204 1157.76 30.891 Q1159.18 31.9327 1163.46 32.8876 L1165.28 33.2926 Q1170.96 34.5079 1173.33 36.7359 Q1175.73 38.935 1175.73 42.8991 Q1175.73 47.4129 1172.14 50.046 Q1168.58 52.6791 1162.33 52.6791 Q1159.73 52.6791 1156.89 52.1583 Q1154.09 51.6664 1150.96 50.6537 L1150.96 45.156 Q1153.91 46.6896 1156.78 47.4708 Q1159.64 48.2231 1162.45 48.2231 Q1166.21 48.2231 1168.24 46.95 Q1170.26 45.6479 1170.26 43.3042 Q1170.26 41.134 1168.79 39.9766 Q1167.34 38.8192 1162.39 37.7486 L1160.54 37.3146 Q1155.59 36.273 1153.39 34.1318 Q1151.19 31.9616 1151.19 28.2001 Q1151.19 23.6283 1154.43 21.1399 Q1157.67 18.6515 1163.64 18.6515 Q1166.59 18.6515 1169.19 19.0855 Q1171.79 19.5196 1173.99 20.3876 Z" fill="#000000" fill-rule="nonzero" fill-opacity="1" /><path clip-path="url(#clip950)" d="M1184.21 19.4328 L1189.53 19.4328 L1189.53 51.84 L1184.21 51.84 L1184.21 19.4328 M1184.21 6.81709 L1189.53 6.81709 L1189.53 13.559 L1184.21 13.559 L1184.21 6.81709 Z" fill="#000000" fill-rule="nonzero" fill-opacity="1" /><path clip-path="url(#clip950)" d="M1222 24.3517 L1222 6.81709 L1227.32 6.81709 L1227.32 51.84 L1222 51.84 L1222 46.9789 Q1220.32 49.8724 1217.74 51.2902 Q1215.2 52.6791 1211.61 52.6791 Q1205.74 52.6791 1202.03 47.9916 Q1198.36 43.3042 1198.36 35.6653 Q1198.36 28.0265 1202.03 23.339 Q1205.74 18.6515 1211.61 18.6515 Q1215.2 18.6515 1217.74 20.0693 Q1220.32 21.4582 1222 24.3517 M1203.85 35.6653 Q1203.85 41.5391 1206.26 44.8956 Q1208.69 48.2231 1212.91 48.2231 Q1217.14 48.2231 1219.57 44.8956 Q1222 41.5391 1222 35.6653 Q1222 29.7915 1219.57 26.464 Q1217.14 23.1075 1212.91 23.1075 Q1208.69 23.1075 1206.26 26.464 Q1203.85 29.7915 1203.85 35.6653 Z" fill="#000000" fill-rule="nonzero" fill-opacity="1" /><path clip-path="url(#clip950)" d="M1266.01 34.3054 L1266.01 36.9095 L1241.53 36.9095 Q1241.88 42.4072 1244.83 45.3007 Q1247.81 48.1653 1253.1 48.1653 Q1256.17 48.1653 1259.03 47.4129 Q1261.93 46.6606 1264.76 45.156 L1264.76 50.1907 Q1261.9 51.406 1258.89 52.0425 Q1255.88 52.6791 1252.78 52.6791 Q1245.03 52.6791 1240.49 48.1653 Q1235.97 43.6514 1235.97 35.9547 Q1235.97 27.9975 1240.26 23.339 Q1244.57 18.6515 1251.86 18.6515 Q1258.4 18.6515 1262.19 22.876 Q1266.01 27.0716 1266.01 34.3054 M1260.68 32.7429 Q1260.63 28.3737 1258.22 25.7695 Q1255.85 23.1654 1251.92 23.1654 Q1247.46 23.1654 1244.77 25.6827 Q1242.11 28.2001 1241.7 32.7718 L1260.68 32.7429 Z" fill="#000000" fill-rule="nonzero" fill-opacity="1" /><path clip-path="url(#clip950)" d="M1301.68 32.2799 L1301.68 51.84 L1296.36 51.84 L1296.36 32.4535 Q1296.36 27.8529 1294.57 25.567 Q1292.77 23.2811 1289.18 23.2811 Q1284.87 23.2811 1282.38 26.03 Q1279.9 28.7788 1279.9 33.5241 L1279.9 51.84 L1274.54 51.84 L1274.54 19.4328 L1279.9 19.4328 L1279.9 24.4675 Q1281.81 21.545 1284.38 20.0983 Q1286.99 18.6515 1290.37 18.6515 Q1295.96 18.6515 1298.82 22.1237 Q1301.68 25.567 1301.68 32.2799 Z" fill="#000000" fill-rule="nonzero" fill-opacity="1" /><path clip-path="url(#clip950)" d="M1335.63 20.677 L1335.63 25.6538 Q1333.37 24.4096 1331.08 23.802 Q1328.83 23.1654 1326.51 23.1654 Q1321.33 23.1654 1318.47 26.464 Q1315.6 29.7336 1315.6 35.6653 Q1315.6 41.597 1318.47 44.8956 Q1321.33 48.1653 1326.51 48.1653 Q1328.83 48.1653 1331.08 47.5576 Q1333.37 46.921 1335.63 45.6768 L1335.63 50.5958 Q1333.4 51.6375 1331 52.1583 Q1328.62 52.6791 1325.93 52.6791 Q1318.61 52.6791 1314.3 48.0784 Q1309.99 43.4778 1309.99 35.6653 Q1309.99 27.7371 1314.33 23.1943 Q1318.7 18.6515 1326.28 18.6515 Q1328.74 18.6515 1331.08 19.1724 Q1333.43 19.6642 1335.63 20.677 Z" fill="#000000" fill-rule="nonzero" fill-opacity="1" /><path clip-path="url(#clip950)" d="M1372.6 34.3054 L1372.6 36.9095 L1348.12 36.9095 Q1348.47 42.4072 1351.42 45.3007 Q1354.4 48.1653 1359.7 48.1653 Q1362.77 48.1653 1365.63 47.4129 Q1368.52 46.6606 1371.36 45.156 L1371.36 50.1907 Q1368.5 51.406 1365.49 52.0425 Q1362.48 52.6791 1359.38 52.6791 Q1351.63 52.6791 1347.08 48.1653 Q1342.57 43.6514 1342.57 35.9547 Q1342.57 27.9975 1346.85 23.339 Q1351.16 18.6515 1358.45 18.6515 Q1364.99 18.6515 1368.78 22.876 Q1372.6 27.0716 1372.6 34.3054 M1367.28 32.7429 Q1367.22 28.3737 1364.82 25.7695 Q1362.45 23.1654 1358.51 23.1654 Q1354.06 23.1654 1351.37 25.6827 Q1348.7 28.2001 1348.3 32.7718 L1367.28 32.7429 Z" fill="#000000" fill-rule="nonzero" fill-opacity="1" /><path clip-path="url(#clip950)" d="M1394.42 8.64 L1430.97 8.64 L1430.97 13.559 L1415.63 13.559 L1415.63 51.84 L1409.76 51.84 L1409.76 13.559 L1394.42 13.559 L1394.42 8.64 Z" fill="#000000" fill-rule="nonzero" fill-opacity="1" /><path clip-path="url(#clip950)" d="M1434.55 19.4328 L1439.88 19.4328 L1439.88 51.84 L1434.55 51.84 L1434.55 19.4328 M1434.55 6.81709 L1439.88 6.81709 L1439.88 13.559 L1434.55 13.559 L1434.55 6.81709 Z" fill="#000000" fill-rule="nonzero" fill-opacity="1" /><path clip-path="url(#clip950)" d="M1476.25 25.6538 Q1478.25 22.0659 1481.02 20.3587 Q1483.8 18.6515 1487.56 18.6515 Q1492.63 18.6515 1495.38 22.2105 Q1498.12 25.7406 1498.12 32.2799 L1498.12 51.84 L1492.77 51.84 L1492.77 32.4535 Q1492.77 27.795 1491.12 25.5381 Q1489.47 23.2811 1486.09 23.2811 Q1481.95 23.2811 1479.55 26.03 Q1477.15 28.7788 1477.15 33.5241 L1477.15 51.84 L1471.79 51.84 L1471.79 32.4535 Q1471.79 27.7661 1470.14 25.5381 Q1468.49 23.2811 1465.05 23.2811 Q1460.97 23.2811 1458.57 26.0589 Q1456.17 28.8077 1456.17 33.5241 L1456.17 51.84 L1450.82 51.84 L1450.82 19.4328 L1456.17 19.4328 L1456.17 24.4675 Q1457.99 21.4872 1460.54 20.0693 Q1463.08 18.6515 1466.59 18.6515 Q1470.12 18.6515 1472.57 20.4455 Q1475.06 22.2395 1476.25 25.6538 Z" fill="#000000" fill-rule="nonzero" fill-opacity="1" /><path clip-path="url(#clip950)" d="M1536.46 34.3054 L1536.46 36.9095 L1511.98 36.9095 Q1512.33 42.4072 1515.28 45.3007 Q1518.26 48.1653 1523.56 48.1653 Q1526.63 48.1653 1529.49 47.4129 Q1532.38 46.6606 1535.22 45.156 L1535.22 50.1907 Q1532.35 51.406 1529.35 52.0425 Q1526.34 52.6791 1523.24 52.6791 Q1515.49 52.6791 1510.94 48.1653 Q1506.43 43.6514 1506.43 35.9547 Q1506.43 27.9975 1510.71 23.339 Q1515.02 18.6515 1522.31 18.6515 Q1528.85 18.6515 1532.64 22.876 Q1536.46 27.0716 1536.46 34.3054 M1531.14 32.7429 Q1531.08 28.3737 1528.68 25.7695 Q1526.31 23.1654 1522.37 23.1654 Q1517.92 23.1654 1515.22 25.6827 Q1512.56 28.2001 1512.16 32.7718 L1531.14 32.7429 Z" fill="#000000" fill-rule="nonzero" fill-opacity="1" /><path clip-path="url(#clip950)" d="M1561.35 33.5241 L1614.82 33.5241 L1614.82 37.6908 L1561.35 37.6908 L1561.35 33.5241 Z" fill="#000000" fill-rule="nonzero" fill-opacity="1" /><path clip-path="url(#clip950)" d="M1642.37 8.64 L1648.21 8.64 L1648.21 26.898 L1667.6 8.64 L1675.12 8.64 L1653.68 28.7788 L1676.65 51.84 L1668.96 51.84 L1648.21 31.0357 L1648.21 51.84 L1642.37 51.84 L1642.37 8.64 Z" fill="#000000" fill-rule="nonzero" fill-opacity="1" /><path clip-path="url(#clip950)" d="M1681.69 24.9304 L1718.78 24.9304 L1718.78 29.7915 L1681.69 29.7915 L1681.69 24.9304 M1681.69 36.7359 L1718.78 36.7359 L1718.78 41.6549 L1681.69 41.6549 L1681.69 36.7359 Z" fill="#000000" fill-rule="nonzero" fill-opacity="1" /><path clip-path="url(#clip950)" d="M1744.62 27.9107 Q1740.69 27.9107 1738.37 30.6017 Q1736.09 33.2926 1736.09 37.9801 Q1736.09 42.6387 1738.37 45.3586 Q1740.69 48.0495 1744.62 48.0495 Q1748.56 48.0495 1750.84 45.3586 Q1753.16 42.6387 1753.16 37.9801 Q1753.16 33.2926 1750.84 30.6017 Q1748.56 27.9107 1744.62 27.9107 M1756.22 9.59486 L1756.22 14.9189 Q1754.03 13.8772 1751.77 13.3275 Q1749.54 12.7777 1747.34 12.7777 Q1741.55 12.7777 1738.49 16.6839 Q1735.45 20.5902 1735.02 28.4894 Q1736.72 25.9721 1739.3 24.6411 Q1741.87 23.2811 1744.97 23.2811 Q1751.48 23.2811 1755.24 27.2452 Q1759.03 31.1804 1759.03 37.9801 Q1759.03 44.6352 1755.1 48.6571 Q1751.16 52.6791 1744.62 52.6791 Q1737.13 52.6791 1733.16 46.95 Q1729.2 41.1919 1729.2 30.2834 Q1729.2 20.0404 1734.06 13.964 Q1738.92 7.85875 1747.11 7.85875 Q1749.31 7.85875 1751.54 8.29278 Q1753.79 8.72681 1756.22 9.59486 Z" fill="#000000" fill-rule="nonzero" fill-opacity="1" /><path clip-path="url(#clip952)" d="M363.254 355.427 L363.254 1423.18 L621.696 1423.18 L621.696 355.427 L363.254 355.427 L363.254 355.427  Z" fill="#4682b4" fill-rule="evenodd" fill-opacity="0.7"/>
<polyline clip-path="url(#clip952)" style="stroke:#000000; stroke-linecap:round; stroke-linejoin:round; stroke-width:4; stroke-opacity:0.7; fill:none" points="363.254,355.427 363.254,1423.18 621.696,1423.18 621.696,355.427 363.254,355.427 "/>
<path clip-path="url(#clip952)" d="M686.307 1228.62 L686.307 1423.18 L944.749 1423.18 L944.749 1228.62 L686.307 1228.62 L686.307 1228.62  Z" fill="#4682b4" fill-rule="evenodd" fill-opacity="0.7"/>
<polyline clip-path="url(#clip952)" style="stroke:#000000; stroke-linecap:round; stroke-linejoin:round; stroke-width:4; stroke-opacity:0.7; fill:none" points="686.307,1228.62 686.307,1423.18 944.749,1423.18 944.749,1228.62 686.307,1228.62 "/>
<path clip-path="url(#clip952)" d="M1009.36 1239.5 L1009.36 1423.18 L1267.8 1423.18 L1267.8 1239.5 L1009.36 1239.5 L1009.36 1239.5  Z" fill="#4682b4" fill-rule="evenodd" fill-opacity="0.7"/>
<polyline clip-path="url(#clip952)" style="stroke:#000000; stroke-linecap:round; stroke-linejoin:round; stroke-width:4; stroke-opacity:0.7; fill:none" points="1009.36,1239.5 1009.36,1423.18 1267.8,1423.18 1267.8,1239.5 1009.36,1239.5 "/>
<path clip-path="url(#clip952)" d="M1332.41 1295.35 L1332.41 1423.18 L1590.85 1423.18 L1590.85 1295.35 L1332.41 1295.35 L1332.41 1295.35  Z" fill="#4682b4" fill-rule="evenodd" fill-opacity="0.7"/>
<polyline clip-path="url(#clip952)" style="stroke:#000000; stroke-linecap:round; stroke-linejoin:round; stroke-width:4; stroke-opacity:0.7; fill:none" points="1332.41,1295.35 1332.41,1423.18 1590.85,1423.18 1590.85,1295.35 1332.41,1295.35 "/>
<path clip-path="url(#clip952)" d="M1655.47 1268.09 L1655.47 1423.18 L1913.91 1423.18 L1913.91 1268.09 L1655.47 1268.09 L1655.47 1268.09  Z" fill="#4682b4" fill-rule="evenodd" fill-opacity="0.7"/>
<polyline clip-path="url(#clip952)" style="stroke:#000000; stroke-linecap:round; stroke-linejoin:round; stroke-width:4; stroke-opacity:0.7; fill:none" points="1655.47,1268.09 1655.47,1423.18 1913.91,1423.18 1913.91,1268.09 1655.47,1268.09 "/>
<path clip-path="url(#clip952)" d="M1978.52 106.192 L1978.52 1423.18 L2236.96 1423.18 L2236.96 106.192 L1978.52 106.192 L1978.52 106.192  Z" fill="#4682b4" fill-rule="evenodd" fill-opacity="0.7"/>
<polyline clip-path="url(#clip952)" style="stroke:#000000; stroke-linecap:round; stroke-linejoin:round; stroke-width:4; stroke-opacity:0.7; fill:none" points="1978.52,106.192 1978.52,1423.18 2236.96,1423.18 2236.96,106.192 1978.52,106.192 "/>
<circle clip-path="url(#clip952)" style="fill:#4682b4; stroke:none; fill-opacity:0" cx="492.475" cy="355.427" r="2"/>
<circle clip-path="url(#clip952)" style="fill:#4682b4; stroke:none; fill-opacity:0" cx="815.528" cy="1228.62" r="2"/>
<circle clip-path="url(#clip952)" style="fill:#4682b4; stroke:none; fill-opacity:0" cx="1138.58" cy="1239.5" r="2"/>
<circle clip-path="url(#clip952)" style="fill:#4682b4; stroke:none; fill-opacity:0" cx="1461.63" cy="1295.35" r="2"/>
<circle clip-path="url(#clip952)" style="fill:#4682b4; stroke:none; fill-opacity:0" cx="1784.69" cy="1268.09" r="2"/>
<circle clip-path="url(#clip952)" style="fill:#4682b4; stroke:none; fill-opacity:0" cx="2107.74" cy="106.192" r="2"/>
<path clip-path="url(#clip952)" d="M363.254 355.427 L363.254 1423.18 L621.696 1423.18 L621.696 355.427 L363.254 355.427 L363.254 355.427  Z" fill="#ff0000" fill-rule="evenodd" fill-opacity="0.5"/>
<polyline clip-path="url(#clip952)" style="stroke:#000000; stroke-linecap:round; stroke-linejoin:round; stroke-width:4; stroke-opacity:0.5; fill:none" points="363.254,355.427 363.254,1423.18 621.696,1423.18 621.696,355.427 363.254,355.427 "/>
<path clip-path="url(#clip952)" d="M686.307 1228.62 L686.307 1423.18 L944.749 1423.18 L944.749 1228.62 L686.307 1228.62 L686.307 1228.62  Z" fill="#ff0000" fill-rule="evenodd" fill-opacity="0.5"/>
<polyline clip-path="url(#clip952)" style="stroke:#000000; stroke-linecap:round; stroke-linejoin:round; stroke-width:4; stroke-opacity:0.5; fill:none" points="686.307,1228.62 686.307,1423.18 944.749,1423.18 944.749,1228.62 686.307,1228.62 "/>
<path clip-path="url(#clip952)" d="M1009.36 1239.5 L1009.36 1423.18 L1267.8 1423.18 L1267.8 1239.5 L1009.36 1239.5 L1009.36 1239.5  Z" fill="#ff0000" fill-rule="evenodd" fill-opacity="0.5"/>
<polyline clip-path="url(#clip952)" style="stroke:#000000; stroke-linecap:round; stroke-linejoin:round; stroke-width:4; stroke-opacity:0.5; fill:none" points="1009.36,1239.5 1009.36,1423.18 1267.8,1423.18 1267.8,1239.5 1009.36,1239.5 "/>
<circle clip-path="url(#clip952)" style="fill:#ff0000; stroke:none; fill-opacity:0" cx="492.475" cy="355.427" r="2"/>
<circle clip-path="url(#clip952)" style="fill:#ff0000; stroke:none; fill-opacity:0" cx="815.528" cy="1228.62" r="2"/>
<circle clip-path="url(#clip952)" style="fill:#ff0000; stroke:none; fill-opacity:0" cx="1138.58" cy="1239.5" r="2"/>
<path clip-path="url(#clip952)" d="M1332.41 1295.35 L1332.41 1423.18 L1590.85 1423.18 L1590.85 1295.35 L1332.41 1295.35 L1332.41 1295.35  Z" fill="#008080" fill-rule="evenodd" fill-opacity="0.5"/>
<polyline clip-path="url(#clip952)" style="stroke:#000000; stroke-linecap:round; stroke-linejoin:round; stroke-width:4; stroke-opacity:0.5; fill:none" points="1332.41,1295.35 1332.41,1423.18 1590.85,1423.18 1590.85,1295.35 1332.41,1295.35 "/>
<path clip-path="url(#clip952)" d="M1655.47 1268.09 L1655.47 1423.18 L1913.91 1423.18 L1913.91 1268.09 L1655.47 1268.09 L1655.47 1268.09  Z" fill="#008080" fill-rule="evenodd" fill-opacity="0.5"/>
<polyline clip-path="url(#clip952)" style="stroke:#000000; stroke-linecap:round; stroke-linejoin:round; stroke-width:4; stroke-opacity:0.5; fill:none" points="1655.47,1268.09 1655.47,1423.18 1913.91,1423.18 1913.91,1268.09 1655.47,1268.09 "/>
<path clip-path="url(#clip952)" d="M1978.52 106.192 L1978.52 1423.18 L2236.96 1423.18 L2236.96 106.192 L1978.52 106.192 L1978.52 106.192  Z" fill="#008080" fill-rule="evenodd" fill-opacity="0.5"/>
<polyline clip-path="url(#clip952)" style="stroke:#000000; stroke-linecap:round; stroke-linejoin:round; stroke-width:4; stroke-opacity:0.5; fill:none" points="1978.52,106.192 1978.52,1423.18 2236.96,1423.18 2236.96,106.192 1978.52,106.192 "/>
<circle clip-path="url(#clip952)" style="fill:#008080; stroke:none; fill-opacity:0" cx="1461.63" cy="1295.35" r="2"/>
<circle clip-path="url(#clip952)" style="fill:#008080; stroke:none; fill-opacity:0" cx="1784.69" cy="1268.09" r="2"/>
<circle clip-path="url(#clip952)" style="fill:#008080; stroke:none; fill-opacity:0" cx="2107.74" cy="106.192" r="2"/>
<path clip-path="url(#clip950)" d="M1942.35 357.452 L2282.58 357.452 L2282.58 150.092 L1942.35 150.092  Z" fill="#ffffff" fill-rule="evenodd" fill-opacity="1"/>
<polyline clip-path="url(#clip950)" style="stroke:#000000; stroke-linecap:round; stroke-linejoin:round; stroke-width:4; stroke-opacity:1; fill:none" points="1942.35,357.452 2282.58,357.452 2282.58,150.092 1942.35,150.092 1942.35,357.452 "/>
<path clip-path="url(#clip950)" d="M1965.74 222.668 L2106.1 222.668 L2106.1 181.196 L1965.74 181.196 L1965.74 222.668  Z" fill="#4682b4" fill-rule="evenodd" fill-opacity="0.7"/>
<polyline clip-path="url(#clip950)" style="stroke:#000000; stroke-linecap:round; stroke-linejoin:round; stroke-width:4; stroke-opacity:1; fill:none" points="1965.74,222.668 2106.1,222.668 2106.1,181.196 1965.74,181.196 1965.74,222.668 "/>
<path clip-path="url(#clip950)" d="M2143.33 221.619 Q2141.53 226.249 2139.81 227.661 Q2138.1 229.073 2135.23 229.073 L2131.83 229.073 L2131.83 225.508 L2134.33 225.508 Q2136.09 225.508 2137.06 224.675 Q2138.03 223.841 2139.21 220.739 L2139.97 218.795 L2129.49 193.286 L2134 193.286 L2142.1 213.564 L2150.21 193.286 L2154.72 193.286 L2143.33 221.619 Z" fill="#000000" fill-rule="nonzero" fill-opacity="1" /><path clip-path="url(#clip950)" d="M2162.01 215.277 L2169.65 215.277 L2169.65 188.911 L2161.34 190.578 L2161.34 186.318 L2169.6 184.652 L2174.28 184.652 L2174.28 215.277 L2181.92 215.277 L2181.92 219.212 L2162.01 219.212 L2162.01 215.277 Z" fill="#000000" fill-rule="nonzero" fill-opacity="1" /><path clip-path="url(#clip950)" d="M1965.74 274.508 L2106.1 274.508 L2106.1 233.036 L1965.74 233.036 L1965.74 274.508  Z" fill="#ff0000" fill-rule="evenodd" fill-opacity="0.5"/>
<polyline clip-path="url(#clip950)" style="stroke:#000000; stroke-linecap:round; stroke-linejoin:round; stroke-width:4; stroke-opacity:1; fill:none" points="1965.74,274.508 2106.1,274.508 2106.1,233.036 1965.74,233.036 1965.74,274.508 "/>
<path clip-path="url(#clip950)" d="M2157.36 239.154 L2157.36 244.084 Q2155 241.885 2152.31 240.797 Q2149.65 239.709 2146.64 239.709 Q2140.72 239.709 2137.57 243.344 Q2134.42 246.955 2134.42 253.806 Q2134.42 260.635 2137.57 264.269 Q2140.72 267.88 2146.64 267.88 Q2149.65 267.88 2152.31 266.792 Q2155 265.705 2157.36 263.505 L2157.36 268.39 Q2154.91 270.056 2152.15 270.89 Q2149.42 271.723 2146.36 271.723 Q2138.52 271.723 2134 266.931 Q2129.49 262.117 2129.49 253.806 Q2129.49 245.473 2134 240.682 Q2138.52 235.867 2146.36 235.867 Q2149.47 235.867 2152.2 236.7 Q2154.95 237.51 2157.36 239.154 Z" fill="#000000" fill-rule="nonzero" fill-opacity="1" /><path clip-path="url(#clip950)" d="M2179.42 249.107 Q2178.7 248.691 2177.84 248.506 Q2177.01 248.297 2175.99 248.297 Q2172.38 248.297 2170.44 250.658 Q2168.52 252.996 2168.52 257.394 L2168.52 271.052 L2164.23 271.052 L2164.23 245.126 L2168.52 245.126 L2168.52 249.154 Q2169.86 246.793 2172.01 245.658 Q2174.16 244.501 2177.24 244.501 Q2177.68 244.501 2178.22 244.57 Q2178.75 244.617 2179.4 244.732 L2179.42 249.107 Z" fill="#000000" fill-rule="nonzero" fill-opacity="1" /><path clip-path="url(#clip950)" d="M2195.67 258.019 Q2190.51 258.019 2188.52 259.2 Q2186.53 260.38 2186.53 263.228 Q2186.53 265.496 2188.01 266.839 Q2189.51 268.158 2192.08 268.158 Q2195.62 268.158 2197.75 265.658 Q2199.91 263.135 2199.91 258.968 L2199.91 258.019 L2195.67 258.019 M2204.16 256.26 L2204.16 271.052 L2199.91 271.052 L2199.91 267.117 Q2198.45 269.478 2196.27 270.612 Q2194.09 271.723 2190.95 271.723 Q2186.97 271.723 2184.6 269.501 Q2182.27 267.255 2182.27 263.505 Q2182.27 259.13 2185.18 256.908 Q2188.12 254.686 2193.93 254.686 L2199.91 254.686 L2199.91 254.269 Q2199.91 251.33 2197.96 249.732 Q2196.04 248.112 2192.54 248.112 Q2190.32 248.112 2188.22 248.644 Q2186.11 249.177 2184.16 250.242 L2184.16 246.306 Q2186.5 245.404 2188.7 244.964 Q2190.9 244.501 2192.98 244.501 Q2198.61 244.501 2201.39 247.418 Q2204.16 250.334 2204.16 256.26 Z" fill="#000000" fill-rule="nonzero" fill-opacity="1" /><path clip-path="url(#clip950)" d="M2229.47 245.89 L2229.47 249.918 Q2227.66 248.992 2225.72 248.529 Q2223.77 248.066 2221.69 248.066 Q2218.52 248.066 2216.92 249.038 Q2215.34 250.01 2215.34 251.955 Q2215.34 253.436 2216.48 254.293 Q2217.61 255.126 2221.04 255.89 L2222.5 256.214 Q2227.03 257.186 2228.93 258.968 Q2230.85 260.728 2230.85 263.899 Q2230.85 267.51 2227.98 269.617 Q2225.14 271.723 2220.14 271.723 Q2218.05 271.723 2215.78 271.306 Q2213.54 270.913 2211.04 270.103 L2211.04 265.705 Q2213.4 266.931 2215.69 267.556 Q2217.98 268.158 2220.23 268.158 Q2223.24 268.158 2224.86 267.14 Q2226.48 266.098 2226.48 264.223 Q2226.48 262.487 2225.3 261.561 Q2224.14 260.635 2220.18 259.779 L2218.7 259.431 Q2214.74 258.598 2212.98 256.885 Q2211.22 255.149 2211.22 252.14 Q2211.22 248.482 2213.82 246.492 Q2216.41 244.501 2221.18 244.501 Q2223.54 244.501 2225.62 244.848 Q2227.71 245.195 2229.47 245.89 Z" fill="#000000" fill-rule="nonzero" fill-opacity="1" /><path clip-path="url(#clip950)" d="M2259.19 255.404 L2259.19 271.052 L2254.93 271.052 L2254.93 255.543 Q2254.93 251.862 2253.49 250.033 Q2252.06 248.205 2249.19 248.205 Q2245.74 248.205 2243.75 250.404 Q2241.76 252.603 2241.76 256.399 L2241.76 271.052 L2237.47 271.052 L2237.47 235.033 L2241.76 235.033 L2241.76 249.154 Q2243.28 246.816 2245.34 245.658 Q2247.43 244.501 2250.14 244.501 Q2254.6 244.501 2256.9 247.279 Q2259.19 250.033 2259.19 255.404 Z" fill="#000000" fill-rule="nonzero" fill-opacity="1" /><path clip-path="url(#clip950)" d="M1965.74 326.348 L2106.1 326.348 L2106.1 284.876 L1965.74 284.876 L1965.74 326.348  Z" fill="#008080" fill-rule="evenodd" fill-opacity="0.5"/>
<polyline clip-path="url(#clip950)" style="stroke:#000000; stroke-linecap:round; stroke-linejoin:round; stroke-width:4; stroke-opacity:1; fill:none" points="1965.74,326.348 2106.1,326.348 2106.1,284.876 1965.74,284.876 1965.74,326.348 "/>
<path clip-path="url(#clip950)" d="M2134.16 306.387 L2134.16 319.049 L2141.66 319.049 Q2145.44 319.049 2147.24 317.498 Q2149.07 315.924 2149.07 312.707 Q2149.07 309.466 2147.24 307.938 Q2145.44 306.387 2141.66 306.387 L2134.16 306.387 M2134.16 292.174 L2134.16 302.591 L2141.09 302.591 Q2144.51 302.591 2146.18 301.318 Q2147.87 300.021 2147.87 297.383 Q2147.87 294.767 2146.18 293.471 Q2144.51 292.174 2141.09 292.174 L2134.16 292.174 M2129.49 288.332 L2141.43 288.332 Q2146.78 288.332 2149.67 290.554 Q2152.57 292.776 2152.57 296.873 Q2152.57 300.045 2151.09 301.92 Q2149.6 303.795 2146.73 304.258 Q2150.18 304.998 2152.08 307.359 Q2154 309.697 2154 313.216 Q2154 317.845 2150.85 320.369 Q2147.71 322.892 2141.9 322.892 L2129.49 322.892 L2129.49 288.332 Z" fill="#000000" fill-rule="nonzero" fill-opacity="1" /><path clip-path="url(#clip950)" d="M2171.87 299.952 Q2168.45 299.952 2166.46 302.637 Q2164.47 305.299 2164.47 309.952 Q2164.47 314.605 2166.43 317.29 Q2168.42 319.952 2171.87 319.952 Q2175.28 319.952 2177.27 317.267 Q2179.26 314.582 2179.26 309.952 Q2179.26 305.346 2177.27 302.66 Q2175.28 299.952 2171.87 299.952 M2171.87 296.341 Q2177.43 296.341 2180.6 299.952 Q2183.77 303.563 2183.77 309.952 Q2183.77 316.318 2180.6 319.952 Q2177.43 323.563 2171.87 323.563 Q2166.29 323.563 2163.12 319.952 Q2159.97 316.318 2159.97 309.952 Q2159.97 303.563 2163.12 299.952 Q2166.29 296.341 2171.87 296.341 Z" fill="#000000" fill-rule="nonzero" fill-opacity="1" /><path clip-path="url(#clip950)" d="M2200.88 299.952 Q2197.45 299.952 2195.46 302.637 Q2193.47 305.299 2193.47 309.952 Q2193.47 314.605 2195.44 317.29 Q2197.43 319.952 2200.88 319.952 Q2204.28 319.952 2206.27 317.267 Q2208.26 314.582 2208.26 309.952 Q2208.26 305.346 2206.27 302.66 Q2204.28 299.952 2200.88 299.952 M2200.88 296.341 Q2206.43 296.341 2209.6 299.952 Q2212.78 303.563 2212.78 309.952 Q2212.78 316.318 2209.6 319.952 Q2206.43 323.563 2200.88 323.563 Q2195.3 323.563 2192.13 319.952 Q2188.98 316.318 2188.98 309.952 Q2188.98 303.563 2192.13 299.952 Q2195.3 296.341 2200.88 296.341 Z" fill="#000000" fill-rule="nonzero" fill-opacity="1" /><path clip-path="url(#clip950)" d="M2240.02 301.943 Q2241.62 299.072 2243.84 297.707 Q2246.06 296.341 2249.07 296.341 Q2253.12 296.341 2255.32 299.188 Q2257.52 302.012 2257.52 307.244 L2257.52 322.892 L2253.24 322.892 L2253.24 307.383 Q2253.24 303.656 2251.92 301.85 Q2250.6 300.045 2247.89 300.045 Q2244.58 300.045 2242.66 302.244 Q2240.74 304.443 2240.74 308.239 L2240.74 322.892 L2236.46 322.892 L2236.46 307.383 Q2236.46 303.633 2235.14 301.85 Q2233.82 300.045 2231.06 300.045 Q2227.8 300.045 2225.88 302.267 Q2223.96 304.466 2223.96 308.239 L2223.96 322.892 L2219.67 322.892 L2219.67 296.966 L2223.96 296.966 L2223.96 300.994 Q2225.41 298.609 2227.45 297.475 Q2229.49 296.341 2232.29 296.341 Q2235.11 296.341 2237.08 297.776 Q2239.07 299.211 2240.02 301.943 Z" fill="#000000" fill-rule="nonzero" fill-opacity="1" /></svg>
