<?xml version="1.0" encoding="utf-8"?>
<svg xmlns="http://www.w3.org/2000/svg" xmlns:xlink="http://www.w3.org/1999/xlink" width="600" height="400" viewBox="0 0 2400 1600">
<defs>
  <clipPath id="clip650">
    <rect x="0" y="0" width="2400" height="1600"/>
  </clipPath>
</defs>
<path clip-path="url(#clip650)" d="M0 1600 L2400 1600 L2400 8.88178e-14 L0 8.88178e-14  Z" fill="#ffffff" fill-rule="evenodd" fill-opacity="1"/>
<defs>
  <clipPath id="clip651">
    <rect x="203" y="106" width="2150" height="1318"/>
  </clipPath>
</defs>
<path clip-path="url(#clip650)" d="M219.866 1423.18 L2352.76 1423.18 L2352.76 106.192 L219.866 106.192  Z" fill="#ffffff" fill-rule="evenodd" fill-opacity="1"/>
<defs>
  <clipPath id="clip652">
    <rect x="219" y="106" width="2134" height="1318"/>
  </clipPath>
</defs>
<polyline clip-path="url(#clip652)" style="stroke:#000000; stroke-linecap:round; stroke-linejoin:round; stroke-width:2; stroke-opacity:0.1; fill:none" points="269.384,1423.18 269.384,106.192 "/>
<polyline clip-path="url(#clip652)" style="stroke:#000000; stroke-linecap:round; stroke-linejoin:round; stroke-width:2; stroke-opacity:0.1; fill:none" points="608.36,1423.18 608.36,106.192 "/>
<polyline clip-path="url(#clip652)" style="stroke:#000000; stroke-linecap:round; stroke-linejoin:round; stroke-width:2; stroke-opacity:0.1; fill:none" points="947.335,1423.18 947.335,106.192 "/>
<polyline clip-path="url(#clip652)" style="stroke:#000000; stroke-linecap:round; stroke-linejoin:round; stroke-width:2; stroke-opacity:0.1; fill:none" points="1286.31,1423.18 1286.31,106.192 "/>
<polyline clip-path="url(#clip652)" style="stroke:#000000; stroke-linecap:round; stroke-linejoin:round; stroke-width:2; stroke-opacity:0.1; fill:none" points="1625.29,1423.18 1625.29,106.192 "/>
<polyline clip-path="url(#clip652)" style="stroke:#000000; stroke-linecap:round; stroke-linejoin:round; stroke-width:2; stroke-opacity:0.1; fill:none" points="1964.26,1423.18 1964.26,106.192 "/>
<polyline clip-path="url(#clip652)" style="stroke:#000000; stroke-linecap:round; stroke-linejoin:round; stroke-width:2; stroke-opacity:0.1; fill:none" points="2303.24,1423.18 2303.24,106.192 "/>
<polyline clip-path="url(#clip652)" style="stroke:#000000; stroke-linecap:round; stroke-linejoin:round; stroke-width:2; stroke-opacity:0.1; fill:none" points="219.866,1423.18 2352.76,1423.18 "/>
<polyline clip-path="url(#clip652)" style="stroke:#000000; stroke-linecap:round; stroke-linejoin:round; stroke-width:2; stroke-opacity:0.1; fill:none" points="219.866,1122.54 2352.76,1122.54 "/>
<polyline clip-path="url(#clip652)" style="stroke:#000000; stroke-linecap:round; stroke-linejoin:round; stroke-width:2; stroke-opacity:0.1; fill:none" points="219.866,821.897 2352.76,821.897 "/>
<polyline clip-path="url(#clip652)" style="stroke:#000000; stroke-linecap:round; stroke-linejoin:round; stroke-width:2; stroke-opacity:0.1; fill:none" points="219.866,521.255 2352.76,521.255 "/>
<polyline clip-path="url(#clip652)" style="stroke:#000000; stroke-linecap:round; stroke-linejoin:round; stroke-width:2; stroke-opacity:0.1; fill:none" points="219.866,220.614 2352.76,220.614 "/>
<polyline clip-path="url(#clip650)" style="stroke:#000000; stroke-linecap:round; stroke-linejoin:round; stroke-width:4; stroke-opacity:1; fill:none" points="219.866,1423.18 2352.76,1423.18 "/>
<polyline clip-path="url(#clip650)" style="stroke:#000000; stroke-linecap:round; stroke-linejoin:round; stroke-width:4; stroke-opacity:1; fill:none" points="269.384,1423.18 269.384,1404.28 "/>
<polyline clip-path="url(#clip650)" style="stroke:#000000; stroke-linecap:round; stroke-linejoin:round; stroke-width:4; stroke-opacity:1; fill:none" points="608.36,1423.18 608.36,1404.28 "/>
<polyline clip-path="url(#clip650)" style="stroke:#000000; stroke-linecap:round; stroke-linejoin:round; stroke-width:4; stroke-opacity:1; fill:none" points="947.335,1423.18 947.335,1404.28 "/>
<polyline clip-path="url(#clip650)" style="stroke:#000000; stroke-linecap:round; stroke-linejoin:round; stroke-width:4; stroke-opacity:1; fill:none" points="1286.31,1423.18 1286.31,1404.28 "/>
<polyline clip-path="url(#clip650)" style="stroke:#000000; stroke-linecap:round; stroke-linejoin:round; stroke-width:4; stroke-opacity:1; fill:none" points="1625.29,1423.18 1625.29,1404.28 "/>
<polyline clip-path="url(#clip650)" style="stroke:#000000; stroke-linecap:round; stroke-linejoin:round; stroke-width:4; stroke-opacity:1; fill:none" points="1964.26,1423.18 1964.26,1404.28 "/>
<polyline clip-path="url(#clip650)" style="stroke:#000000; stroke-linecap:round; stroke-linejoin:round; stroke-width:4; stroke-opacity:1; fill:none" points="2303.24,1423.18 2303.24,1404.28 "/>
<path clip-path="url(#clip650)" d="M247.266 1454.1 Q243.655 1454.1 241.826 1457.66 Q240.021 1461.2 240.021 1468.33 Q240.021 1475.44 241.826 1479.01 Q243.655 1482.55 247.266 1482.55 Q250.9 1482.55 252.706 1479.01 Q254.534 1475.44 254.534 1468.33 Q254.534 1461.2 252.706 1457.66 Q250.9 1454.1 247.266 1454.1 M247.266 1450.39 Q253.076 1450.39 256.132 1455 Q259.21 1459.58 259.21 1468.33 Q259.21 1477.06 256.132 1481.67 Q253.076 1486.25 247.266 1486.25 Q241.456 1486.25 238.377 1481.67 Q235.322 1477.06 235.322 1468.33 Q235.322 1459.58 238.377 1455 Q241.456 1450.39 247.266 1450.39 Z" fill="#000000" fill-rule="nonzero" fill-opacity="1" /><path clip-path="url(#clip650)" d="M267.428 1479.7 L272.312 1479.7 L272.312 1485.58 L267.428 1485.58 L267.428 1479.7 Z" fill="#000000" fill-rule="nonzero" fill-opacity="1" /><path clip-path="url(#clip650)" d="M282.543 1451.02 L300.9 1451.02 L300.9 1454.96 L286.826 1454.96 L286.826 1463.43 Q287.844 1463.08 288.863 1462.92 Q289.881 1462.73 290.9 1462.73 Q296.687 1462.73 300.067 1465.9 Q303.446 1469.08 303.446 1474.49 Q303.446 1480.07 299.974 1483.17 Q296.502 1486.25 290.182 1486.25 Q288.006 1486.25 285.738 1485.88 Q283.493 1485.51 281.085 1484.77 L281.085 1480.07 Q283.168 1481.2 285.391 1481.76 Q287.613 1482.32 290.09 1482.32 Q294.094 1482.32 296.432 1480.21 Q298.77 1478.1 298.77 1474.49 Q298.77 1470.88 296.432 1468.77 Q294.094 1466.67 290.09 1466.67 Q288.215 1466.67 286.34 1467.08 Q284.488 1467.5 282.543 1468.38 L282.543 1451.02 Z" fill="#000000" fill-rule="nonzero" fill-opacity="1" /><path clip-path="url(#clip650)" d="M575.513 1481.64 L583.151 1481.64 L583.151 1455.28 L574.841 1456.95 L574.841 1452.69 L583.105 1451.02 L587.781 1451.02 L587.781 1481.64 L595.42 1481.64 L595.42 1485.58 L575.513 1485.58 L575.513 1481.64 Z" fill="#000000" fill-rule="nonzero" fill-opacity="1" /><path clip-path="url(#clip650)" d="M604.864 1479.7 L609.748 1479.7 L609.748 1485.58 L604.864 1485.58 L604.864 1479.7 Z" fill="#000000" fill-rule="nonzero" fill-opacity="1" /><path clip-path="url(#clip650)" d="M629.934 1454.1 Q626.322 1454.1 624.494 1457.66 Q622.688 1461.2 622.688 1468.33 Q622.688 1475.44 624.494 1479.01 Q626.322 1482.55 629.934 1482.55 Q633.568 1482.55 635.373 1479.01 Q637.202 1475.44 637.202 1468.33 Q637.202 1461.2 635.373 1457.66 Q633.568 1454.1 629.934 1454.1 M629.934 1450.39 Q635.744 1450.39 638.799 1455 Q641.878 1459.58 641.878 1468.33 Q641.878 1477.06 638.799 1481.67 Q635.744 1486.25 629.934 1486.25 Q624.123 1486.25 621.045 1481.67 Q617.989 1477.06 617.989 1468.33 Q617.989 1459.58 621.045 1455 Q624.123 1450.39 629.934 1450.39 Z" fill="#000000" fill-rule="nonzero" fill-opacity="1" /><path clip-path="url(#clip650)" d="M914.986 1481.64 L922.625 1481.64 L922.625 1455.28 L914.315 1456.95 L914.315 1452.69 L922.579 1451.02 L927.254 1451.02 L927.254 1481.64 L934.893 1481.64 L934.893 1485.58 L914.986 1485.58 L914.986 1481.64 Z" fill="#000000" fill-rule="nonzero" fill-opacity="1" /><path clip-path="url(#clip650)" d="M944.338 1479.7 L949.222 1479.7 L949.222 1485.58 L944.338 1485.58 L944.338 1479.7 Z" fill="#000000" fill-rule="nonzero" fill-opacity="1" /><path clip-path="url(#clip650)" d="M959.453 1451.02 L977.81 1451.02 L977.81 1454.96 L963.736 1454.96 L963.736 1463.43 Q964.754 1463.08 965.773 1462.92 Q966.791 1462.73 967.81 1462.73 Q973.597 1462.73 976.976 1465.9 Q980.356 1469.08 980.356 1474.49 Q980.356 1480.07 976.884 1483.17 Q973.412 1486.25 967.092 1486.25 Q964.916 1486.25 962.648 1485.88 Q960.402 1485.51 957.995 1484.77 L957.995 1480.07 Q960.078 1481.2 962.301 1481.76 Q964.523 1482.32 967 1482.32 Q971.004 1482.32 973.342 1480.21 Q975.68 1478.1 975.68 1474.49 Q975.68 1470.88 973.342 1468.77 Q971.004 1466.67 967 1466.67 Q965.125 1466.67 963.25 1467.08 Q961.398 1467.5 959.453 1468.38 L959.453 1451.02 Z" fill="#000000" fill-rule="nonzero" fill-opacity="1" /><path clip-path="url(#clip650)" d="M1257.55 1481.64 L1273.87 1481.64 L1273.87 1485.58 L1251.92 1485.58 L1251.92 1481.64 Q1254.59 1478.89 1259.17 1474.26 Q1263.78 1469.61 1264.96 1468.27 Q1267.2 1465.74 1268.08 1464.01 Q1268.98 1462.25 1268.98 1460.56 Q1268.98 1457.8 1267.04 1456.07 Q1265.12 1454.33 1262.02 1454.33 Q1259.82 1454.33 1257.36 1455.09 Q1254.93 1455.86 1252.16 1457.41 L1252.16 1452.69 Q1254.98 1451.55 1257.43 1450.97 Q1259.89 1450.39 1261.92 1450.39 Q1267.29 1450.39 1270.49 1453.08 Q1273.68 1455.77 1273.68 1460.26 Q1273.68 1462.39 1272.87 1464.31 Q1272.09 1466.2 1269.98 1468.8 Q1269.4 1469.47 1266.3 1472.69 Q1263.2 1475.88 1257.55 1481.64 Z" fill="#000000" fill-rule="nonzero" fill-opacity="1" /><path clip-path="url(#clip650)" d="M1283.68 1479.7 L1288.57 1479.7 L1288.57 1485.58 L1283.68 1485.58 L1283.68 1479.7 Z" fill="#000000" fill-rule="nonzero" fill-opacity="1" /><path clip-path="url(#clip650)" d="M1308.75 1454.1 Q1305.14 1454.1 1303.31 1457.66 Q1301.51 1461.2 1301.51 1468.33 Q1301.51 1475.44 1303.31 1479.01 Q1305.14 1482.55 1308.75 1482.55 Q1312.39 1482.55 1314.19 1479.01 Q1316.02 1475.44 1316.02 1468.33 Q1316.02 1461.2 1314.19 1457.66 Q1312.39 1454.1 1308.75 1454.1 M1308.75 1450.39 Q1314.56 1450.39 1317.62 1455 Q1320.7 1459.58 1320.7 1468.33 Q1320.7 1477.06 1317.62 1481.67 Q1314.56 1486.25 1308.75 1486.25 Q1302.94 1486.25 1299.86 1481.67 Q1296.81 1477.06 1296.81 1468.33 Q1296.81 1459.58 1299.86 1455 Q1302.94 1450.39 1308.75 1450.39 Z" fill="#000000" fill-rule="nonzero" fill-opacity="1" /><path clip-path="url(#clip650)" d="M1597.02 1481.64 L1613.34 1481.64 L1613.34 1485.58 L1591.4 1485.58 L1591.4 1481.64 Q1594.06 1478.89 1598.64 1474.26 Q1603.25 1469.61 1604.43 1468.27 Q1606.68 1465.74 1607.56 1464.01 Q1608.46 1462.25 1608.46 1460.56 Q1608.46 1457.8 1606.51 1456.07 Q1604.59 1454.33 1601.49 1454.33 Q1599.29 1454.33 1596.84 1455.09 Q1594.41 1455.86 1591.63 1457.41 L1591.63 1452.69 Q1594.45 1451.55 1596.91 1450.97 Q1599.36 1450.39 1601.4 1450.39 Q1606.77 1450.39 1609.96 1453.08 Q1613.16 1455.77 1613.16 1460.26 Q1613.16 1462.39 1612.35 1464.31 Q1611.56 1466.2 1609.45 1468.8 Q1608.87 1469.47 1605.77 1472.69 Q1602.67 1475.88 1597.02 1481.64 Z" fill="#000000" fill-rule="nonzero" fill-opacity="1" /><path clip-path="url(#clip650)" d="M1623.16 1479.7 L1628.04 1479.7 L1628.04 1485.58 L1623.16 1485.58 L1623.16 1479.7 Z" fill="#000000" fill-rule="nonzero" fill-opacity="1" /><path clip-path="url(#clip650)" d="M1638.27 1451.02 L1656.63 1451.02 L1656.63 1454.96 L1642.56 1454.96 L1642.56 1463.43 Q1643.57 1463.08 1644.59 1462.92 Q1645.61 1462.73 1646.63 1462.73 Q1652.42 1462.73 1655.8 1465.9 Q1659.18 1469.08 1659.18 1474.49 Q1659.18 1480.07 1655.7 1483.17 Q1652.23 1486.25 1645.91 1486.25 Q1643.74 1486.25 1641.47 1485.88 Q1639.22 1485.51 1636.81 1484.77 L1636.81 1480.07 Q1638.9 1481.2 1641.12 1481.76 Q1643.34 1482.32 1645.82 1482.32 Q1649.82 1482.32 1652.16 1480.21 Q1654.5 1478.1 1654.5 1474.49 Q1654.5 1470.88 1652.16 1468.77 Q1649.82 1466.67 1645.82 1466.67 Q1643.94 1466.67 1642.07 1467.08 Q1640.22 1467.5 1638.27 1468.38 L1638.27 1451.02 Z" fill="#000000" fill-rule="nonzero" fill-opacity="1" /><path clip-path="url(#clip650)" d="M1945.57 1466.95 Q1948.93 1467.66 1950.8 1469.93 Q1952.7 1472.2 1952.7 1475.53 Q1952.7 1480.65 1949.18 1483.45 Q1945.66 1486.25 1939.18 1486.25 Q1937.01 1486.25 1934.69 1485.81 Q1932.4 1485.39 1929.95 1484.54 L1929.95 1480.02 Q1931.89 1481.16 1934.2 1481.74 Q1936.52 1482.32 1939.04 1482.32 Q1943.44 1482.32 1945.73 1480.58 Q1948.05 1478.84 1948.05 1475.53 Q1948.05 1472.48 1945.89 1470.77 Q1943.77 1469.03 1939.95 1469.03 L1935.92 1469.03 L1935.92 1465.19 L1940.13 1465.19 Q1943.58 1465.19 1945.41 1463.82 Q1947.24 1462.43 1947.24 1459.84 Q1947.24 1457.18 1945.34 1455.77 Q1943.46 1454.33 1939.95 1454.33 Q1938.02 1454.33 1935.83 1454.75 Q1933.63 1455.16 1930.99 1456.04 L1930.99 1451.88 Q1933.65 1451.14 1935.96 1450.77 Q1938.3 1450.39 1940.36 1450.39 Q1945.69 1450.39 1948.79 1452.83 Q1951.89 1455.23 1951.89 1459.35 Q1951.89 1462.22 1950.25 1464.21 Q1948.6 1466.18 1945.57 1466.95 Z" fill="#000000" fill-rule="nonzero" fill-opacity="1" /><path clip-path="url(#clip650)" d="M1961.57 1479.7 L1966.45 1479.7 L1966.45 1485.58 L1961.57 1485.58 L1961.57 1479.7 Z" fill="#000000" fill-rule="nonzero" fill-opacity="1" /><path clip-path="url(#clip650)" d="M1986.64 1454.1 Q1983.02 1454.1 1981.2 1457.66 Q1979.39 1461.2 1979.39 1468.33 Q1979.39 1475.44 1981.2 1479.01 Q1983.02 1482.55 1986.64 1482.55 Q1990.27 1482.55 1992.07 1479.01 Q1993.9 1475.44 1993.9 1468.33 Q1993.9 1461.2 1992.07 1457.66 Q1990.27 1454.1 1986.64 1454.1 M1986.64 1450.39 Q1992.45 1450.39 1995.5 1455 Q1998.58 1459.58 1998.58 1468.33 Q1998.58 1477.06 1995.5 1481.67 Q1992.45 1486.25 1986.64 1486.25 Q1980.82 1486.25 1977.75 1481.67 Q1974.69 1477.06 1974.69 1468.33 Q1974.69 1459.58 1977.75 1455 Q1980.82 1450.39 1986.64 1450.39 Z" fill="#000000" fill-rule="nonzero" fill-opacity="1" /><path clip-path="url(#clip650)" d="M2285.04 1466.95 Q2288.4 1467.66 2290.28 1469.93 Q2292.17 1472.2 2292.17 1475.53 Q2292.17 1480.65 2288.66 1483.45 Q2285.14 1486.25 2278.66 1486.25 Q2276.48 1486.25 2274.16 1485.81 Q2271.87 1485.39 2269.42 1484.54 L2269.42 1480.02 Q2271.36 1481.16 2273.68 1481.74 Q2275.99 1482.32 2278.52 1482.32 Q2282.91 1482.32 2285.21 1480.58 Q2287.52 1478.84 2287.52 1475.53 Q2287.52 1472.48 2285.37 1470.77 Q2283.24 1469.03 2279.42 1469.03 L2275.39 1469.03 L2275.39 1465.19 L2279.6 1465.19 Q2283.05 1465.19 2284.88 1463.82 Q2286.71 1462.43 2286.71 1459.84 Q2286.71 1457.18 2284.81 1455.77 Q2282.94 1454.33 2279.42 1454.33 Q2277.5 1454.33 2275.3 1454.75 Q2273.1 1455.16 2270.46 1456.04 L2270.46 1451.88 Q2273.12 1451.14 2275.44 1450.77 Q2277.78 1450.39 2279.84 1450.39 Q2285.16 1450.39 2288.26 1452.83 Q2291.36 1455.23 2291.36 1459.35 Q2291.36 1462.22 2289.72 1464.21 Q2288.08 1466.18 2285.04 1466.95 Z" fill="#000000" fill-rule="nonzero" fill-opacity="1" /><path clip-path="url(#clip650)" d="M2301.04 1479.7 L2305.92 1479.7 L2305.92 1485.58 L2301.04 1485.58 L2301.04 1479.7 Z" fill="#000000" fill-rule="nonzero" fill-opacity="1" /><path clip-path="url(#clip650)" d="M2316.15 1451.02 L2334.51 1451.02 L2334.51 1454.96 L2320.44 1454.96 L2320.44 1463.43 Q2321.46 1463.08 2322.47 1462.92 Q2323.49 1462.73 2324.51 1462.73 Q2330.3 1462.73 2333.68 1465.9 Q2337.06 1469.08 2337.06 1474.49 Q2337.06 1480.07 2333.59 1483.17 Q2330.11 1486.25 2323.79 1486.25 Q2321.62 1486.25 2319.35 1485.88 Q2317.1 1485.51 2314.7 1484.77 L2314.7 1480.07 Q2316.78 1481.2 2319 1481.76 Q2321.22 1482.32 2323.7 1482.32 Q2327.71 1482.32 2330.04 1480.21 Q2332.38 1478.1 2332.38 1474.49 Q2332.38 1470.88 2330.04 1468.77 Q2327.71 1466.67 2323.7 1466.67 Q2321.83 1466.67 2319.95 1467.08 Q2318.1 1467.5 2316.15 1468.38 L2316.15 1451.02 Z" fill="#000000" fill-rule="nonzero" fill-opacity="1" /><path clip-path="url(#clip650)" d="M1234.51 1522.08 L1234.51 1528.35 Q1230.85 1526.6 1227.6 1525.74 Q1224.36 1524.88 1221.33 1524.88 Q1216.08 1524.88 1213.22 1526.92 Q1210.38 1528.96 1210.38 1532.71 Q1210.38 1535.87 1212.26 1537.49 Q1214.17 1539.08 1219.46 1540.07 L1223.34 1540.86 Q1230.53 1542.23 1233.94 1545.7 Q1237.37 1549.14 1237.37 1554.93 Q1237.37 1561.84 1232.73 1565.4 Q1228.11 1568.97 1219.17 1568.97 Q1215.79 1568.97 1211.98 1568.2 Q1208.19 1567.44 1204.11 1565.94 L1204.11 1559.32 Q1208.03 1561.52 1211.78 1562.63 Q1215.54 1563.75 1219.17 1563.75 Q1224.68 1563.75 1227.67 1561.58 Q1230.66 1559.42 1230.66 1555.41 Q1230.66 1551.91 1228.49 1549.93 Q1226.36 1547.96 1221.46 1546.97 L1217.55 1546.21 Q1210.35 1544.78 1207.14 1541.72 Q1203.92 1538.67 1203.92 1533.22 Q1203.92 1526.92 1208.35 1523.29 Q1212.8 1519.66 1220.6 1519.66 Q1223.94 1519.66 1227.41 1520.27 Q1230.88 1520.87 1234.51 1522.08 Z" fill="#000000" fill-rule="nonzero" fill-opacity="1" /><path clip-path="url(#clip650)" d="M1252.94 1522.27 L1252.94 1532.4 L1265 1532.4 L1265 1536.95 L1252.94 1536.95 L1252.94 1556.3 Q1252.94 1560.66 1254.12 1561.9 Q1255.33 1563.14 1258.99 1563.14 L1265 1563.14 L1265 1568.04 L1258.99 1568.04 Q1252.21 1568.04 1249.63 1565.53 Q1247.05 1562.98 1247.05 1556.3 L1247.05 1536.95 L1242.75 1536.95 L1242.75 1532.4 L1247.05 1532.4 L1247.05 1522.27 L1252.94 1522.27 Z" fill="#000000" fill-rule="nonzero" fill-opacity="1" /><path clip-path="url(#clip650)" d="M1288.91 1550.12 Q1281.81 1550.12 1279.07 1551.75 Q1276.33 1553.37 1276.33 1557.29 Q1276.33 1560.4 1278.37 1562.25 Q1280.44 1564.07 1283.97 1564.07 Q1288.84 1564.07 1291.77 1560.63 Q1294.73 1557.16 1294.73 1551.43 L1294.73 1550.12 L1288.91 1550.12 M1300.59 1547.71 L1300.59 1568.04 L1294.73 1568.04 L1294.73 1562.63 Q1292.72 1565.88 1289.73 1567.44 Q1286.74 1568.97 1282.41 1568.97 Q1276.94 1568.97 1273.69 1565.91 Q1270.48 1562.82 1270.48 1557.67 Q1270.48 1551.65 1274.49 1548.6 Q1278.53 1545.54 1286.52 1545.54 L1294.73 1545.54 L1294.73 1544.97 Q1294.73 1540.93 1292.06 1538.73 Q1289.41 1536.5 1284.61 1536.5 Q1281.55 1536.5 1278.66 1537.23 Q1275.76 1537.97 1273.09 1539.43 L1273.09 1534.02 Q1276.3 1532.78 1279.32 1532.17 Q1282.35 1531.54 1285.21 1531.54 Q1292.95 1531.54 1296.77 1535.55 Q1300.59 1539.56 1300.59 1547.71 Z" fill="#000000" fill-rule="nonzero" fill-opacity="1" /><path clip-path="url(#clip650)" d="M1318.44 1522.27 L1318.44 1532.4 L1330.51 1532.4 L1330.51 1536.95 L1318.44 1536.95 L1318.44 1556.3 Q1318.44 1560.66 1319.62 1561.9 Q1320.83 1563.14 1324.49 1563.14 L1330.51 1563.14 L1330.51 1568.04 L1324.49 1568.04 Q1317.71 1568.04 1315.13 1565.53 Q1312.55 1562.98 1312.55 1556.3 L1312.55 1536.95 L1308.26 1536.95 L1308.26 1532.4 L1312.55 1532.4 L1312.55 1522.27 L1318.44 1522.27 Z" fill="#000000" fill-rule="nonzero" fill-opacity="1" /><path clip-path="url(#clip650)" d="M1368.7 1548.76 L1368.7 1551.62 L1341.77 1551.62 Q1342.15 1557.67 1345.4 1560.85 Q1348.68 1564 1354.5 1564 Q1357.88 1564 1361.03 1563.17 Q1364.21 1562.35 1367.33 1560.69 L1367.33 1566.23 Q1364.18 1567.57 1360.87 1568.27 Q1357.56 1568.97 1354.15 1568.97 Q1345.62 1568.97 1340.63 1564 Q1335.66 1559.04 1335.66 1550.57 Q1335.66 1541.82 1340.37 1536.69 Q1345.11 1531.54 1353.14 1531.54 Q1360.33 1531.54 1364.5 1536.18 Q1368.7 1540.8 1368.7 1548.76 M1362.84 1547.04 Q1362.78 1542.23 1360.14 1539.37 Q1357.53 1536.5 1353.2 1536.5 Q1348.3 1536.5 1345.34 1539.27 Q1342.41 1542.04 1341.96 1547.07 L1362.84 1547.04 Z" fill="#000000" fill-rule="nonzero" fill-opacity="1" /><polyline clip-path="url(#clip650)" style="stroke:#000000; stroke-linecap:round; stroke-linejoin:round; stroke-width:4; stroke-opacity:1; fill:none" points="219.866,1423.18 219.866,106.192 "/>
<polyline clip-path="url(#clip650)" style="stroke:#000000; stroke-linecap:round; stroke-linejoin:round; stroke-width:4; stroke-opacity:1; fill:none" points="219.866,1423.18 238.764,1423.18 "/>
<polyline clip-path="url(#clip650)" style="stroke:#000000; stroke-linecap:round; stroke-linejoin:round; stroke-width:4; stroke-opacity:1; fill:none" points="219.866,1122.54 238.764,1122.54 "/>
<polyline clip-path="url(#clip650)" style="stroke:#000000; stroke-linecap:round; stroke-linejoin:round; stroke-width:4; stroke-opacity:1; fill:none" points="219.866,821.897 238.764,821.897 "/>
<polyline clip-path="url(#clip650)" style="stroke:#000000; stroke-linecap:round; stroke-linejoin:round; stroke-width:4; stroke-opacity:1; fill:none" points="219.866,521.255 238.764,521.255 "/>
<polyline clip-path="url(#clip650)" style="stroke:#000000; stroke-linecap:round; stroke-linejoin:round; stroke-width:4; stroke-opacity:1; fill:none" points="219.866,220.614 238.764,220.614 "/>
<path clip-path="url(#clip650)" d="M126.691 1408.98 Q123.08 1408.98 121.251 1412.54 Q119.445 1416.08 119.445 1423.21 Q119.445 1430.32 121.251 1433.89 Q123.08 1437.43 126.691 1437.43 Q130.325 1437.43 132.13 1433.89 Q133.959 1430.32 133.959 1423.21 Q133.959 1416.08 132.13 1412.54 Q130.325 1408.98 126.691 1408.98 M126.691 1405.27 Q132.501 1405.27 135.556 1409.88 Q138.635 1414.46 138.635 1423.21 Q138.635 1431.94 135.556 1436.55 Q132.501 1441.13 126.691 1441.13 Q120.88 1441.13 117.802 1436.55 Q114.746 1431.94 114.746 1423.21 Q114.746 1414.46 117.802 1409.88 Q120.88 1405.27 126.691 1405.27 Z" fill="#000000" fill-rule="nonzero" fill-opacity="1" /><path clip-path="url(#clip650)" d="M146.853 1434.58 L151.737 1434.58 L151.737 1440.46 L146.853 1440.46 L146.853 1434.58 Z" fill="#000000" fill-rule="nonzero" fill-opacity="1" /><path clip-path="url(#clip650)" d="M171.922 1408.98 Q168.311 1408.98 166.482 1412.54 Q164.677 1416.08 164.677 1423.21 Q164.677 1430.32 166.482 1433.89 Q168.311 1437.43 171.922 1437.43 Q175.556 1437.43 177.362 1433.89 Q179.19 1430.32 179.19 1423.21 Q179.19 1416.08 177.362 1412.54 Q175.556 1408.98 171.922 1408.98 M171.922 1405.27 Q177.732 1405.27 180.788 1409.88 Q183.866 1414.46 183.866 1423.21 Q183.866 1431.94 180.788 1436.55 Q177.732 1441.13 171.922 1441.13 Q166.112 1441.13 163.033 1436.55 Q159.978 1431.94 159.978 1423.21 Q159.978 1414.46 163.033 1409.88 Q166.112 1405.27 171.922 1405.27 Z" fill="#000000" fill-rule="nonzero" fill-opacity="1" /><path clip-path="url(#clip650)" d="M127.917 1108.34 Q124.306 1108.34 122.478 1111.9 Q120.672 1115.44 120.672 1122.57 Q120.672 1129.68 122.478 1133.24 Q124.306 1136.79 127.917 1136.79 Q131.552 1136.79 133.357 1133.24 Q135.186 1129.68 135.186 1122.57 Q135.186 1115.44 133.357 1111.9 Q131.552 1108.34 127.917 1108.34 M127.917 1104.63 Q133.728 1104.63 136.783 1109.24 Q139.862 1113.82 139.862 1122.57 Q139.862 1131.3 136.783 1135.91 Q133.728 1140.49 127.917 1140.49 Q122.107 1140.49 119.029 1135.91 Q115.973 1131.3 115.973 1122.57 Q115.973 1113.82 119.029 1109.24 Q122.107 1104.63 127.917 1104.63 Z" fill="#000000" fill-rule="nonzero" fill-opacity="1" /><path clip-path="url(#clip650)" d="M148.079 1133.94 L152.964 1133.94 L152.964 1139.82 L148.079 1139.82 L148.079 1133.94 Z" fill="#000000" fill-rule="nonzero" fill-opacity="1" /><path clip-path="url(#clip650)" d="M163.959 1135.88 L171.598 1135.88 L171.598 1109.52 L163.288 1111.18 L163.288 1106.93 L171.552 1105.26 L176.227 1105.26 L176.227 1135.88 L183.866 1135.88 L183.866 1139.82 L163.959 1139.82 L163.959 1135.88 Z" fill="#000000" fill-rule="nonzero" fill-opacity="1" /><path clip-path="url(#clip650)" d="M128.288 807.696 Q124.677 807.696 122.848 811.26 Q121.043 814.802 121.043 821.932 Q121.043 829.038 122.848 832.603 Q124.677 836.144 128.288 836.144 Q131.922 836.144 133.728 832.603 Q135.556 829.038 135.556 821.932 Q135.556 814.802 133.728 811.26 Q131.922 807.696 128.288 807.696 M128.288 803.992 Q134.098 803.992 137.154 808.598 Q140.232 813.182 140.232 821.932 Q140.232 830.658 137.154 835.265 Q134.098 839.848 128.288 839.848 Q122.478 839.848 119.399 835.265 Q116.343 830.658 116.343 821.932 Q116.343 813.182 119.399 808.598 Q122.478 803.992 128.288 803.992 Z" fill="#000000" fill-rule="nonzero" fill-opacity="1" /><path clip-path="url(#clip650)" d="M148.45 833.297 L153.334 833.297 L153.334 839.177 L148.45 839.177 L148.45 833.297 Z" fill="#000000" fill-rule="nonzero" fill-opacity="1" /><path clip-path="url(#clip650)" d="M167.547 835.242 L183.866 835.242 L183.866 839.177 L161.922 839.177 L161.922 835.242 Q164.584 832.487 169.167 827.857 Q173.774 823.205 174.954 821.862 Q177.2 819.339 178.079 817.603 Q178.982 815.844 178.982 814.154 Q178.982 811.399 177.038 809.663 Q175.116 807.927 172.014 807.927 Q169.815 807.927 167.362 808.691 Q164.931 809.455 162.153 811.006 L162.153 806.284 Q164.977 805.149 167.431 804.571 Q169.885 803.992 171.922 803.992 Q177.292 803.992 180.487 806.677 Q183.681 809.362 183.681 813.853 Q183.681 815.983 182.871 817.904 Q182.084 819.802 179.977 822.395 Q179.399 823.066 176.297 826.283 Q173.195 829.478 167.547 835.242 Z" fill="#000000" fill-rule="nonzero" fill-opacity="1" /><path clip-path="url(#clip650)" d="M127.339 507.054 Q123.728 507.054 121.899 510.619 Q120.093 514.161 120.093 521.29 Q120.093 528.397 121.899 531.961 Q123.728 535.503 127.339 535.503 Q130.973 535.503 132.779 531.961 Q134.607 528.397 134.607 521.29 Q134.607 514.161 132.779 510.619 Q130.973 507.054 127.339 507.054 M127.339 503.35 Q133.149 503.35 136.204 507.957 Q139.283 512.54 139.283 521.29 Q139.283 530.017 136.204 534.623 Q133.149 539.207 127.339 539.207 Q121.529 539.207 118.45 534.623 Q115.394 530.017 115.394 521.29 Q115.394 512.54 118.45 507.957 Q121.529 503.35 127.339 503.35 Z" fill="#000000" fill-rule="nonzero" fill-opacity="1" /><path clip-path="url(#clip650)" d="M147.501 532.656 L152.385 532.656 L152.385 538.535 L147.501 538.535 L147.501 532.656 Z" fill="#000000" fill-rule="nonzero" fill-opacity="1" /><path clip-path="url(#clip650)" d="M176.737 519.901 Q180.093 520.619 181.968 522.887 Q183.866 525.156 183.866 528.489 Q183.866 533.605 180.348 536.406 Q176.829 539.207 170.348 539.207 Q168.172 539.207 165.857 538.767 Q163.565 538.35 161.112 537.494 L161.112 532.98 Q163.056 534.114 165.371 534.693 Q167.686 535.272 170.209 535.272 Q174.607 535.272 176.899 533.535 Q179.214 531.799 179.214 528.489 Q179.214 525.434 177.061 523.721 Q174.931 521.985 171.112 521.985 L167.084 521.985 L167.084 518.142 L171.297 518.142 Q174.746 518.142 176.575 516.776 Q178.403 515.387 178.403 512.795 Q178.403 510.133 176.505 508.721 Q174.63 507.286 171.112 507.286 Q169.19 507.286 166.991 507.702 Q164.792 508.119 162.153 508.998 L162.153 504.832 Q164.815 504.091 167.13 503.721 Q169.468 503.35 171.528 503.35 Q176.852 503.35 179.954 505.781 Q183.056 508.188 183.056 512.309 Q183.056 515.179 181.413 517.17 Q179.769 519.137 176.737 519.901 Z" fill="#000000" fill-rule="nonzero" fill-opacity="1" /><path clip-path="url(#clip650)" d="M126.205 206.413 Q122.593 206.413 120.765 209.977 Q118.959 213.519 118.959 220.649 Q118.959 227.755 120.765 231.32 Q122.593 234.861 126.205 234.861 Q129.839 234.861 131.644 231.32 Q133.473 227.755 133.473 220.649 Q133.473 213.519 131.644 209.977 Q129.839 206.413 126.205 206.413 M126.205 202.709 Q132.015 202.709 135.07 207.315 Q138.149 211.899 138.149 220.649 Q138.149 229.375 135.07 233.982 Q132.015 238.565 126.205 238.565 Q120.394 238.565 117.316 233.982 Q114.26 229.375 114.26 220.649 Q114.26 211.899 117.316 207.315 Q120.394 202.709 126.205 202.709 Z" fill="#000000" fill-rule="nonzero" fill-opacity="1" /><path clip-path="url(#clip650)" d="M146.366 232.014 L151.251 232.014 L151.251 237.894 L146.366 237.894 L146.366 232.014 Z" fill="#000000" fill-rule="nonzero" fill-opacity="1" /><path clip-path="url(#clip650)" d="M174.283 207.408 L162.477 225.857 L174.283 225.857 L174.283 207.408 M173.056 203.334 L178.936 203.334 L178.936 225.857 L183.866 225.857 L183.866 229.746 L178.936 229.746 L178.936 237.894 L174.283 237.894 L174.283 229.746 L158.681 229.746 L158.681 225.232 L173.056 203.334 Z" fill="#000000" fill-rule="nonzero" fill-opacity="1" /><path clip-path="url(#clip650)" d="M21.7677 926.375 L39.6235 926.375 L39.6235 918.29 Q39.6235 913.803 37.3 911.352 Q34.9765 908.901 30.6797 908.901 Q26.4147 908.901 24.0912 911.352 Q21.7677 913.803 21.7677 918.29 L21.7677 926.375 M16.4842 932.804 L16.4842 918.29 Q16.4842 910.302 20.1126 906.227 Q23.7092 902.122 30.6797 902.122 Q37.7138 902.122 41.3104 906.227 Q44.907 910.302 44.907 918.29 L44.907 926.375 L64.0042 926.375 L64.0042 932.804 L16.4842 932.804 Z" fill="#000000" fill-rule="nonzero" fill-opacity="1" /><path clip-path="url(#clip650)" d="M33.8307 874.24 Q33.2578 875.226 33.0032 876.404 Q32.7167 877.55 32.7167 878.95 Q32.7167 883.916 35.9632 886.589 Q39.1779 889.231 45.2253 889.231 L64.0042 889.231 L64.0042 895.119 L28.3562 895.119 L28.3562 889.231 L33.8944 889.231 Q30.6479 887.385 29.0883 884.425 Q27.4968 881.465 27.4968 877.232 Q27.4968 876.627 27.5923 875.895 Q27.656 875.163 27.8151 874.272 L33.8307 874.24 Z" fill="#000000" fill-rule="nonzero" fill-opacity="1" /><path clip-path="url(#clip650)" d="M32.4621 855.716 Q32.4621 860.426 36.1542 863.163 Q39.8145 865.901 46.212 865.901 Q52.6095 865.901 56.3017 863.195 Q59.9619 860.458 59.9619 855.716 Q59.9619 851.037 56.2698 848.3 Q52.5777 845.562 46.212 845.562 Q39.8781 845.562 36.186 848.3 Q32.4621 851.037 32.4621 855.716 M27.4968 855.716 Q27.4968 848.077 32.4621 843.716 Q37.4273 839.356 46.212 839.356 Q54.9649 839.356 59.9619 843.716 Q64.9272 848.077 64.9272 855.716 Q64.9272 863.386 59.9619 867.747 Q54.9649 872.075 46.212 872.075 Q37.4273 872.075 32.4621 867.747 Q27.4968 863.386 27.4968 855.716 Z" fill="#000000" fill-rule="nonzero" fill-opacity="1" /><path clip-path="url(#clip650)" d="M46.212 804.058 Q39.7508 804.058 36.0905 806.731 Q32.3984 809.373 32.3984 814.02 Q32.3984 818.667 36.0905 821.341 Q39.7508 823.983 46.212 823.983 Q52.6732 823.983 56.3653 821.341 Q60.0256 818.667 60.0256 814.02 Q60.0256 809.373 56.3653 806.731 Q52.6732 804.058 46.212 804.058 M33.7671 823.983 Q30.5842 822.136 29.0564 819.336 Q27.4968 816.503 27.4968 812.588 Q27.4968 806.095 32.6531 802.053 Q37.8093 797.979 46.212 797.979 Q54.6147 797.979 59.771 802.053 Q64.9272 806.095 64.9272 812.588 Q64.9272 816.503 63.3994 819.336 Q61.8398 822.136 58.657 823.983 L64.0042 823.983 L64.0042 829.871 L14.479 829.871 L14.479 823.983 L33.7671 823.983 Z" fill="#000000" fill-rule="nonzero" fill-opacity="1" /><path clip-path="url(#clip650)" d="M46.0847 772.07 Q46.0847 779.168 47.7079 781.905 Q49.3312 784.642 53.2461 784.642 Q56.3653 784.642 58.2114 782.605 Q60.0256 780.537 60.0256 777.004 Q60.0256 772.134 56.5881 769.206 Q53.1188 766.246 47.3897 766.246 L46.0847 766.246 L46.0847 772.07 M43.6657 760.389 L64.0042 760.389 L64.0042 766.246 L58.5933 766.246 Q61.8398 768.251 63.3994 771.243 Q64.9272 774.235 64.9272 778.563 Q64.9272 784.038 61.8716 787.284 Q58.7843 790.499 53.6281 790.499 Q47.6125 790.499 44.5569 786.489 Q41.5014 782.446 41.5014 774.457 L41.5014 766.246 L40.9285 766.246 Q36.8862 766.246 34.6901 768.919 Q32.4621 771.561 32.4621 776.367 Q32.4621 779.423 33.1941 782.319 Q33.9262 785.215 35.3903 787.889 L29.9795 787.889 Q28.7381 784.674 28.1334 781.651 Q27.4968 778.627 27.4968 775.762 Q27.4968 768.028 31.5072 764.209 Q35.5176 760.389 43.6657 760.389 Z" fill="#000000" fill-rule="nonzero" fill-opacity="1" /><path clip-path="url(#clip650)" d="M46.212 722.736 Q39.7508 722.736 36.0905 725.41 Q32.3984 728.051 32.3984 732.698 Q32.3984 737.345 36.0905 740.019 Q39.7508 742.661 46.212 742.661 Q52.6732 742.661 56.3653 740.019 Q60.0256 737.345 60.0256 732.698 Q60.0256 728.051 56.3653 725.41 Q52.6732 722.736 46.212 722.736 M33.7671 742.661 Q30.5842 740.815 29.0564 738.014 Q27.4968 735.181 27.4968 731.266 Q27.4968 724.773 32.6531 720.731 Q37.8093 716.657 46.212 716.657 Q54.6147 716.657 59.771 720.731 Q64.9272 724.773 64.9272 731.266 Q64.9272 735.181 63.3994 738.014 Q61.8398 740.815 58.657 742.661 L64.0042 742.661 L64.0042 748.549 L14.479 748.549 L14.479 742.661 L33.7671 742.661 Z" fill="#000000" fill-rule="nonzero" fill-opacity="1" /><path clip-path="url(#clip650)" d="M28.3562 706.949 L28.3562 701.093 L64.0042 701.093 L64.0042 706.949 L28.3562 706.949 M14.479 706.949 L14.479 701.093 L21.895 701.093 L21.895 706.949 L14.479 706.949 Z" fill="#000000" fill-rule="nonzero" fill-opacity="1" /><path clip-path="url(#clip650)" d="M14.479 688.839 L14.479 682.982 L64.0042 682.982 L64.0042 688.839 L14.479 688.839 Z" fill="#000000" fill-rule="nonzero" fill-opacity="1" /><path clip-path="url(#clip650)" d="M28.3562 670.728 L28.3562 664.872 L64.0042 664.872 L64.0042 670.728 L28.3562 670.728 M14.479 670.728 L14.479 664.872 L21.895 664.872 L21.895 670.728 L14.479 670.728 Z" fill="#000000" fill-rule="nonzero" fill-opacity="1" /><path clip-path="url(#clip650)" d="M18.2347 646.825 L28.3562 646.825 L28.3562 634.762 L32.9077 634.762 L32.9077 646.825 L52.2594 646.825 Q56.6199 646.825 57.8613 645.647 Q59.1026 644.438 59.1026 640.778 L59.1026 634.762 L64.0042 634.762 L64.0042 640.778 Q64.0042 647.557 61.4897 650.135 Q58.9434 652.713 52.2594 652.713 L32.9077 652.713 L32.9077 657.01 L28.3562 657.01 L28.3562 652.713 L18.2347 652.713 L18.2347 646.825 Z" fill="#000000" fill-rule="nonzero" fill-opacity="1" /><path clip-path="url(#clip650)" d="M67.3143 612.227 Q73.68 614.71 75.6216 617.065 Q77.5631 619.421 77.5631 623.367 L77.5631 628.046 L72.6615 628.046 L72.6615 624.609 Q72.6615 622.19 71.5157 620.853 Q70.3699 619.516 66.1048 617.893 L63.4312 616.842 L28.3562 631.261 L28.3562 625.054 L56.238 613.914 L28.3562 602.774 L28.3562 596.568 L67.3143 612.227 Z" fill="#000000" fill-rule="nonzero" fill-opacity="1" /><path clip-path="url(#clip650)" d="M844.126 10.0578 L844.126 15.758 Q840.798 14.1666 837.847 13.3853 Q834.896 12.6041 832.147 12.6041 Q827.373 12.6041 824.768 14.4559 Q822.193 16.3078 822.193 19.7221 Q822.193 22.5867 823.9 24.0624 Q825.636 25.5091 830.44 26.4061 L833.97 27.1295 Q840.509 28.3737 843.605 31.5276 Q846.73 34.6526 846.73 39.9188 Q846.73 46.1977 842.506 49.4384 Q838.31 52.6791 830.179 52.6791 Q827.112 52.6791 823.64 51.9847 Q820.197 51.2902 816.493 49.9303 L816.493 43.9118 Q820.052 45.9083 823.466 46.921 Q826.881 47.9338 830.179 47.9338 Q835.185 47.9338 837.905 45.9662 Q840.625 43.9986 840.625 40.3528 Q840.625 37.1699 838.657 35.376 Q836.719 33.582 832.263 32.685 L828.704 31.9906 Q822.164 30.6885 819.242 27.9107 Q816.319 25.133 816.319 20.1851 Q816.319 14.4559 820.341 11.1573 Q824.392 7.85875 831.481 7.85875 Q834.52 7.85875 837.673 8.40852 Q840.827 8.95829 844.126 10.0578 Z" fill="#000000" fill-rule="nonzero" fill-opacity="1" /><path clip-path="url(#clip650)" d="M860.879 10.2314 L860.879 19.4328 L871.846 19.4328 L871.846 23.5705 L860.879 23.5705 L860.879 41.163 Q860.879 45.1271 861.95 46.2555 Q863.049 47.384 866.377 47.384 L871.846 47.384 L871.846 51.84 L866.377 51.84 Q860.214 51.84 857.87 49.5541 Q855.526 47.2393 855.526 41.163 L855.526 23.5705 L851.62 23.5705 L851.62 19.4328 L855.526 19.4328 L855.526 10.2314 L860.879 10.2314 Z" fill="#000000" fill-rule="nonzero" fill-opacity="1" /><path clip-path="url(#clip650)" d="M893.576 35.5496 Q887.123 35.5496 884.635 37.0253 Q882.147 38.501 882.147 42.06 Q882.147 44.8956 883.998 46.5738 Q885.879 48.2231 889.091 48.2231 Q893.518 48.2231 896.18 45.0981 Q898.871 41.9442 898.871 36.7359 L898.871 35.5496 L893.576 35.5496 M904.195 33.3505 L904.195 51.84 L898.871 51.84 L898.871 46.921 Q897.048 49.8724 894.328 51.2902 Q891.608 52.6791 887.673 52.6791 Q882.696 52.6791 879.745 49.9014 Q876.823 47.0947 876.823 42.4072 Q876.823 36.9385 880.468 34.1607 Q884.143 31.3829 891.406 31.3829 L898.871 31.3829 L898.871 30.8621 Q898.871 27.1874 896.44 25.1908 Q894.039 23.1654 889.67 23.1654 Q886.892 23.1654 884.259 23.8309 Q881.626 24.4964 879.195 25.8274 L879.195 20.9085 Q882.118 19.78 884.866 19.2302 Q887.615 18.6515 890.219 18.6515 Q897.251 18.6515 900.723 22.2973 Q904.195 25.9431 904.195 33.3505 Z" fill="#000000" fill-rule="nonzero" fill-opacity="1" /><path clip-path="url(#clip650)" d="M920.428 10.2314 L920.428 19.4328 L931.394 19.4328 L931.394 23.5705 L920.428 23.5705 L920.428 41.163 Q920.428 45.1271 921.498 46.2555 Q922.598 47.384 925.925 47.384 L931.394 47.384 L931.394 51.84 L925.925 51.84 Q919.762 51.84 917.418 49.5541 Q915.075 47.2393 915.075 41.163 L915.075 23.5705 L911.168 23.5705 L911.168 19.4328 L915.075 19.4328 L915.075 10.2314 L920.428 10.2314 Z" fill="#000000" fill-rule="nonzero" fill-opacity="1" /><path clip-path="url(#clip650)" d="M938.396 19.4328 L943.72 19.4328 L943.72 51.84 L938.396 51.84 L938.396 19.4328 M938.396 6.81709 L943.72 6.81709 L943.72 13.559 L938.396 13.559 L938.396 6.81709 Z" fill="#000000" fill-rule="nonzero" fill-opacity="1" /><path clip-path="url(#clip650)" d="M967.418 23.1654 Q963.136 23.1654 960.647 26.5218 Q958.159 29.8494 958.159 35.6653 Q958.159 41.4813 960.618 44.8377 Q963.107 48.1653 967.418 48.1653 Q971.672 48.1653 974.16 44.8088 Q976.648 41.4523 976.648 35.6653 Q976.648 29.9072 974.16 26.5508 Q971.672 23.1654 967.418 23.1654 M967.418 18.6515 Q974.363 18.6515 978.327 23.1654 Q982.291 27.6792 982.291 35.6653 Q982.291 43.6225 978.327 48.1653 Q974.363 52.6791 967.418 52.6791 Q960.445 52.6791 956.481 48.1653 Q952.546 43.6225 952.546 35.6653 Q952.546 27.6792 956.481 23.1654 Q960.445 18.6515 967.418 18.6515 Z" fill="#000000" fill-rule="nonzero" fill-opacity="1" /><path clip-path="url(#clip650)" d="M1018.05 32.2799 L1018.05 51.84 L1012.73 51.84 L1012.73 32.4535 Q1012.73 27.8529 1010.94 25.567 Q1009.14 23.2811 1005.55 23.2811 Q1001.24 23.2811 998.755 26.03 Q996.266 28.7788 996.266 33.5241 L996.266 51.84 L990.913 51.84 L990.913 19.4328 L996.266 19.4328 L996.266 24.4675 Q998.176 21.545 1000.75 20.0983 Q1003.36 18.6515 1006.74 18.6515 Q1012.33 18.6515 1015.19 22.1237 Q1018.05 25.567 1018.05 32.2799 Z" fill="#000000" fill-rule="nonzero" fill-opacity="1" /><path clip-path="url(#clip650)" d="M1043.4 35.5496 Q1036.95 35.5496 1034.46 37.0253 Q1031.97 38.501 1031.97 42.06 Q1031.97 44.8956 1033.82 46.5738 Q1035.7 48.2231 1038.92 48.2231 Q1043.34 48.2231 1046.01 45.0981 Q1048.7 41.9442 1048.7 36.7359 L1048.7 35.5496 L1043.4 35.5496 M1054.02 33.3505 L1054.02 51.84 L1048.7 51.84 L1048.7 46.921 Q1046.87 49.8724 1044.15 51.2902 Q1041.43 52.6791 1037.5 52.6791 Q1032.52 52.6791 1029.57 49.9014 Q1026.65 47.0947 1026.65 42.4072 Q1026.65 36.9385 1030.29 34.1607 Q1033.97 31.3829 1041.23 31.3829 L1048.7 31.3829 L1048.7 30.8621 Q1048.7 27.1874 1046.27 25.1908 Q1043.86 23.1654 1039.5 23.1654 Q1036.72 23.1654 1034.08 23.8309 Q1031.45 24.4964 1029.02 25.8274 L1029.02 20.9085 Q1031.94 19.78 1034.69 19.2302 Q1037.44 18.6515 1040.05 18.6515 Q1047.08 18.6515 1050.55 22.2973 Q1054.02 25.9431 1054.02 33.3505 Z" fill="#000000" fill-rule="nonzero" fill-opacity="1" /><path clip-path="url(#clip650)" d="M1083.77 24.4096 Q1082.87 23.8888 1081.8 23.6573 Q1080.76 23.3969 1079.48 23.3969 Q1074.97 23.3969 1072.54 26.3482 Q1070.14 29.2707 1070.14 34.7683 L1070.14 51.84 L1064.78 51.84 L1064.78 19.4328 L1070.14 19.4328 L1070.14 24.4675 Q1071.82 21.5161 1074.51 20.0983 Q1077.2 18.6515 1081.05 18.6515 Q1081.6 18.6515 1082.26 18.7383 Q1082.93 18.7962 1083.74 18.9409 L1083.77 24.4096 Z" fill="#000000" fill-rule="nonzero" fill-opacity="1" /><path clip-path="url(#clip650)" d="M1102.83 54.8492 Q1100.58 60.6362 1098.44 62.4013 Q1096.29 64.1663 1092.71 64.1663 L1088.45 64.1663 L1088.45 59.7103 L1091.58 59.7103 Q1093.78 59.7103 1094.99 58.6687 Q1096.21 57.627 1097.68 53.7497 L1098.64 51.3192 L1085.53 19.4328 L1091.17 19.4328 L1101.3 44.7799 L1111.43 19.4328 L1117.07 19.4328 L1102.83 54.8492 Z" fill="#000000" fill-rule="nonzero" fill-opacity="1" /><path clip-path="url(#clip650)" d="M1149.33 13.4432 L1149.33 47.0368 L1156.39 47.0368 Q1165.33 47.0368 1169.47 42.9859 Q1173.64 38.935 1173.64 30.1966 Q1173.64 21.5161 1169.47 17.4941 Q1165.33 13.4432 1156.39 13.4432 L1149.33 13.4432 M1143.49 8.64 L1155.5 8.64 Q1168.05 8.64 1173.93 13.8772 Q1179.8 19.0855 1179.8 30.1966 Q1179.8 41.3655 1173.9 46.6028 Q1168 51.84 1155.5 51.84 L1143.49 51.84 L1143.49 8.64 Z" fill="#000000" fill-rule="nonzero" fill-opacity="1" /><path clip-path="url(#clip650)" d="M1188.89 19.4328 L1194.21 19.4328 L1194.21 51.84 L1188.89 51.84 L1188.89 19.4328 M1188.89 6.81709 L1194.21 6.81709 L1194.21 13.559 L1188.89 13.559 L1188.89 6.81709 Z" fill="#000000" fill-rule="nonzero" fill-opacity="1" /><path clip-path="url(#clip650)" d="M1226.01 20.3876 L1226.01 25.4223 Q1223.75 24.2649 1221.32 23.6862 Q1218.89 23.1075 1216.29 23.1075 Q1212.32 23.1075 1210.33 24.3228 Q1208.36 25.5381 1208.36 27.9686 Q1208.36 29.8204 1209.78 30.891 Q1211.2 31.9327 1215.48 32.8876 L1217.3 33.2926 Q1222.97 34.5079 1225.34 36.7359 Q1227.75 38.935 1227.75 42.8991 Q1227.75 47.4129 1224.16 50.046 Q1220.6 52.6791 1214.35 52.6791 Q1211.75 52.6791 1208.91 52.1583 Q1206.1 51.6664 1202.98 50.6537 L1202.98 45.156 Q1205.93 46.6896 1208.79 47.4708 Q1211.66 48.2231 1214.47 48.2231 Q1218.23 48.2231 1220.25 46.95 Q1222.28 45.6479 1222.28 43.3042 Q1222.28 41.134 1220.8 39.9766 Q1219.36 38.8192 1214.41 37.7486 L1212.56 37.3146 Q1207.61 36.273 1205.41 34.1318 Q1203.21 31.9616 1203.21 28.2001 Q1203.21 23.6283 1206.45 21.1399 Q1209.69 18.6515 1215.65 18.6515 Q1218.6 18.6515 1221.21 19.0855 Q1223.81 19.5196 1226.01 20.3876 Z" fill="#000000" fill-rule="nonzero" fill-opacity="1" /><path clip-path="url(#clip650)" d="M1241.49 10.2314 L1241.49 19.4328 L1252.46 19.4328 L1252.46 23.5705 L1241.49 23.5705 L1241.49 41.163 Q1241.49 45.1271 1242.56 46.2555 Q1243.66 47.384 1246.99 47.384 L1252.46 47.384 L1252.46 51.84 L1246.99 51.84 Q1240.83 51.84 1238.48 49.5541 Q1236.14 47.2393 1236.14 41.163 L1236.14 23.5705 L1232.23 23.5705 L1232.23 19.4328 L1236.14 19.4328 L1236.14 10.2314 L1241.49 10.2314 Z" fill="#000000" fill-rule="nonzero" fill-opacity="1" /><path clip-path="url(#clip650)" d="M1278.24 24.4096 Q1277.34 23.8888 1276.27 23.6573 Q1275.23 23.3969 1273.96 23.3969 Q1269.44 23.3969 1267.01 26.3482 Q1264.61 29.2707 1264.61 34.7683 L1264.61 51.84 L1259.26 51.84 L1259.26 19.4328 L1264.61 19.4328 L1264.61 24.4675 Q1266.29 21.5161 1268.98 20.0983 Q1271.67 18.6515 1275.52 18.6515 Q1276.07 18.6515 1276.73 18.7383 Q1277.4 18.7962 1278.21 18.9409 L1278.24 24.4096 Z" fill="#000000" fill-rule="nonzero" fill-opacity="1" /><path clip-path="url(#clip650)" d="M1283.82 19.4328 L1289.15 19.4328 L1289.15 51.84 L1283.82 51.84 L1283.82 19.4328 M1283.82 6.81709 L1289.15 6.81709 L1289.15 13.559 L1283.82 13.559 L1283.82 6.81709 Z" fill="#000000" fill-rule="nonzero" fill-opacity="1" /><path clip-path="url(#clip650)" d="M1323.55 35.6653 Q1323.55 29.7915 1321.12 26.464 Q1318.72 23.1075 1314.49 23.1075 Q1310.27 23.1075 1307.84 26.464 Q1305.44 29.7915 1305.44 35.6653 Q1305.44 41.5391 1307.84 44.8956 Q1310.27 48.2231 1314.49 48.2231 Q1318.72 48.2231 1321.12 44.8956 Q1323.55 41.5391 1323.55 35.6653 M1305.44 24.3517 Q1307.12 21.4582 1309.66 20.0693 Q1312.24 18.6515 1315.8 18.6515 Q1321.7 18.6515 1325.37 23.339 Q1329.08 28.0265 1329.08 35.6653 Q1329.08 43.3042 1325.37 47.9916 Q1321.7 52.6791 1315.8 52.6791 Q1312.24 52.6791 1309.66 51.2902 Q1307.12 49.8724 1305.44 46.9789 L1305.44 51.84 L1300.08 51.84 L1300.08 6.81709 L1305.44 6.81709 L1305.44 24.3517 Z" fill="#000000" fill-rule="nonzero" fill-opacity="1" /><path clip-path="url(#clip650)" d="M1337.35 39.0507 L1337.35 19.4328 L1342.68 19.4328 L1342.68 38.8482 Q1342.68 43.4488 1344.47 45.7636 Q1346.26 48.0495 1349.85 48.0495 Q1354.16 48.0495 1356.65 45.3007 Q1359.17 42.5519 1359.17 37.8065 L1359.17 19.4328 L1364.49 19.4328 L1364.49 51.84 L1359.17 51.84 L1359.17 46.8632 Q1357.23 49.8145 1354.66 51.2613 Q1352.11 52.6791 1348.72 52.6791 Q1343.14 52.6791 1340.25 49.2069 Q1337.35 45.7347 1337.35 39.0507 M1350.75 18.6515 L1350.75 18.6515 Z" fill="#000000" fill-rule="nonzero" fill-opacity="1" /><path clip-path="url(#clip650)" d="M1380.73 10.2314 L1380.73 19.4328 L1391.69 19.4328 L1391.69 23.5705 L1380.73 23.5705 L1380.73 41.163 Q1380.73 45.1271 1381.8 46.2555 Q1382.9 47.384 1386.22 47.384 L1391.69 47.384 L1391.69 51.84 L1386.22 51.84 Q1380.06 51.84 1377.72 49.5541 Q1375.37 47.2393 1375.37 41.163 L1375.37 23.5705 L1371.47 23.5705 L1371.47 19.4328 L1375.37 19.4328 L1375.37 10.2314 L1380.73 10.2314 Z" fill="#000000" fill-rule="nonzero" fill-opacity="1" /><path clip-path="url(#clip650)" d="M1398.69 19.4328 L1404.02 19.4328 L1404.02 51.84 L1398.69 51.84 L1398.69 19.4328 M1398.69 6.81709 L1404.02 6.81709 L1404.02 13.559 L1398.69 13.559 L1398.69 6.81709 Z" fill="#000000" fill-rule="nonzero" fill-opacity="1" /><path clip-path="url(#clip650)" d="M1427.72 23.1654 Q1423.43 23.1654 1420.95 26.5218 Q1418.46 29.8494 1418.46 35.6653 Q1418.46 41.4813 1420.92 44.8377 Q1423.41 48.1653 1427.72 48.1653 Q1431.97 48.1653 1434.46 44.8088 Q1436.95 41.4523 1436.95 35.6653 Q1436.95 29.9072 1434.46 26.5508 Q1431.97 23.1654 1427.72 23.1654 M1427.72 18.6515 Q1434.66 18.6515 1438.63 23.1654 Q1442.59 27.6792 1442.59 35.6653 Q1442.59 43.6225 1438.63 48.1653 Q1434.66 52.6791 1427.72 52.6791 Q1420.74 52.6791 1416.78 48.1653 Q1412.84 43.6225 1412.84 35.6653 Q1412.84 27.6792 1416.78 23.1654 Q1420.74 18.6515 1427.72 18.6515 Z" fill="#000000" fill-rule="nonzero" fill-opacity="1" /><path clip-path="url(#clip650)" d="M1478.35 32.2799 L1478.35 51.84 L1473.03 51.84 L1473.03 32.4535 Q1473.03 27.8529 1471.23 25.567 Q1469.44 23.2811 1465.85 23.2811 Q1461.54 23.2811 1459.05 26.03 Q1456.56 28.7788 1456.56 33.5241 L1456.56 51.84 L1451.21 51.84 L1451.21 19.4328 L1456.56 19.4328 L1456.56 24.4675 Q1458.47 21.545 1461.05 20.0983 Q1463.65 18.6515 1467.04 18.6515 Q1472.62 18.6515 1475.49 22.1237 Q1478.35 25.567 1478.35 32.2799 Z" fill="#000000" fill-rule="nonzero" fill-opacity="1" /><path clip-path="url(#clip650)" d="M1504.37 19.4328 L1535.41 19.4328 L1535.41 24.7568 L1531.33 24.7568 L1531.33 44.6641 Q1531.33 46.7474 1532.03 47.6734 Q1532.75 48.5703 1534.34 48.5703 Q1534.78 48.5703 1535.41 48.5125 Q1536.05 48.4257 1536.25 48.3967 L1536.25 52.2451 Q1535.24 52.6212 1534.17 52.7949 Q1533.1 52.9685 1532.03 52.9685 Q1528.56 52.9685 1527.22 51.0877 Q1525.89 49.178 1525.89 44.0854 L1525.89 24.7568 L1513.94 24.7568 L1513.94 51.84 L1508.5 51.84 L1508.5 24.7568 L1504.37 24.7568 L1504.37 19.4328 Z" fill="#000000" fill-rule="nonzero" fill-opacity="1" /><path clip-path="url(#clip650)" d="M1559.63 33.5241 L1613.1 33.5241 L1613.1 37.6908 L1559.63 37.6908 L1559.63 33.5241 Z" fill="#000000" fill-rule="nonzero" fill-opacity="1" /><path clip-path="url(#clip650)" d="M1640.65 8.64 L1646.49 8.64 L1646.49 26.898 L1665.88 8.64 L1673.4 8.64 L1651.96 28.7788 L1674.94 51.84 L1667.24 51.84 L1646.49 31.0357 L1646.49 51.84 L1640.65 51.84 L1640.65 8.64 Z" fill="#000000" fill-rule="nonzero" fill-opacity="1" /><path clip-path="url(#clip650)" d="M1679.97 24.9304 L1717.07 24.9304 L1717.07 29.7915 L1679.97 29.7915 L1679.97 24.9304 M1679.97 36.7359 L1717.07 36.7359 L1717.07 41.6549 L1679.97 41.6549 L1679.97 36.7359 Z" fill="#000000" fill-rule="nonzero" fill-opacity="1" /><path clip-path="url(#clip650)" d="M1747.39 28.5473 Q1751.59 29.4443 1753.93 32.2799 Q1756.3 35.1156 1756.3 39.2822 Q1756.3 45.6768 1751.9 49.178 Q1747.51 52.6791 1739.4 52.6791 Q1736.68 52.6791 1733.79 52.1294 Q1730.93 51.6085 1727.86 50.5379 L1727.86 44.8956 Q1730.29 46.3134 1733.18 47.0368 Q1736.08 47.7602 1739.23 47.7602 Q1744.73 47.7602 1747.59 45.59 Q1750.49 43.4199 1750.49 39.2822 Q1750.49 35.4628 1747.8 33.3216 Q1745.13 31.1515 1740.36 31.1515 L1735.32 31.1515 L1735.32 26.3482 L1740.59 26.3482 Q1744.9 26.3482 1747.19 24.6411 Q1749.47 22.905 1749.47 19.6642 Q1749.47 16.3367 1747.1 14.5717 Q1744.76 12.7777 1740.36 12.7777 Q1737.96 12.7777 1735.21 13.2985 Q1732.46 13.8194 1729.16 14.9189 L1729.16 9.7106 Q1732.49 8.78468 1735.38 8.32171 Q1738.31 7.85875 1740.88 7.85875 Q1747.54 7.85875 1751.41 10.8969 Q1755.29 13.9062 1755.29 19.0566 Q1755.29 22.6446 1753.24 25.133 Q1751.18 27.5924 1747.39 28.5473 Z" fill="#000000" fill-rule="nonzero" fill-opacity="1" /><path clip-path="url(#clip652)" d="M337.179 921.177 L337.179 1423.18 L879.54 1423.18 L879.54 921.177 L337.179 921.177 L337.179 921.177  Z" fill="#4682b4" fill-rule="evenodd" fill-opacity="0.7"/>
<polyline clip-path="url(#clip652)" style="stroke:#000000; stroke-linecap:round; stroke-linejoin:round; stroke-width:4; stroke-opacity:0.7; fill:none" points="337.179,921.177 337.179,1423.18 879.54,1423.18 879.54,921.177 337.179,921.177 "/>
<path clip-path="url(#clip652)" d="M1015.13 235.756 L1015.13 1423.18 L1557.49 1423.18 L1557.49 235.756 L1015.13 235.756 L1015.13 235.756  Z" fill="#4682b4" fill-rule="evenodd" fill-opacity="0.7"/>
<polyline clip-path="url(#clip652)" style="stroke:#000000; stroke-linecap:round; stroke-linejoin:round; stroke-width:4; stroke-opacity:0.7; fill:none" points="1015.13,235.756 1015.13,1423.18 1557.49,1423.18 1557.49,235.756 1015.13,235.756 "/>
<path clip-path="url(#clip652)" d="M1693.08 106.192 L1693.08 1423.18 L2235.44 1423.18 L2235.44 106.192 L1693.08 106.192 L1693.08 106.192  Z" fill="#4682b4" fill-rule="evenodd" fill-opacity="0.7"/>
<polyline clip-path="url(#clip652)" style="stroke:#000000; stroke-linecap:round; stroke-linejoin:round; stroke-width:4; stroke-opacity:0.7; fill:none" points="1693.08,106.192 1693.08,1423.18 2235.44,1423.18 2235.44,106.192 1693.08,106.192 "/>
<circle clip-path="url(#clip652)" style="fill:#4682b4; stroke:none; fill-opacity:0" cx="608.36" cy="921.177" r="2"/>
<circle clip-path="url(#clip652)" style="fill:#4682b4; stroke:none; fill-opacity:0" cx="1286.31" cy="235.756" r="2"/>
<circle clip-path="url(#clip652)" style="fill:#4682b4; stroke:none; fill-opacity:0" cx="1964.26" cy="106.192" r="2"/>
</svg>
