<?xml version="1.0" encoding="utf-8"?>
<svg xmlns="http://www.w3.org/2000/svg" xmlns:xlink="http://www.w3.org/1999/xlink" width="600" height="400" viewBox="0 0 2400 1600">
<defs>
  <clipPath id="clip530">
    <rect x="0" y="0" width="2400" height="1600"/>
  </clipPath>
</defs>
<path clip-path="url(#clip530)" d="M0 1600 L2400 1600 L2400 8.88178e-14 L0 8.88178e-14  Z" fill="#ffffff" fill-rule="evenodd" fill-opacity="1"/>
<defs>
  <clipPath id="clip531">
    <rect x="182" y="0" width="2190" height="85"/>
  </clipPath>
</defs>
<path clip-path="url(#clip530)" d="M302.458 1423.18 L2352.76 1423.18 L2352.76 106.192 L302.458 106.192  Z" fill="#ffffff" fill-rule="evenodd" fill-opacity="1"/>
<defs>
  <clipPath id="clip532">
    <rect x="302" y="106" width="2051" height="1318"/>
  </clipPath>
</defs>
<polyline clip-path="url(#clip532)" style="stroke:#000000; stroke-linecap:round; stroke-linejoin:round; stroke-width:2; stroke-opacity:0.1; fill:none" points="327.702,1423.18 327.702,106.192 "/>
<polyline clip-path="url(#clip532)" style="stroke:#000000; stroke-linecap:round; stroke-linejoin:round; stroke-width:2; stroke-opacity:0.1; fill:none" points="655.54,1423.18 655.54,106.192 "/>
<polyline clip-path="url(#clip532)" style="stroke:#000000; stroke-linecap:round; stroke-linejoin:round; stroke-width:2; stroke-opacity:0.1; fill:none" points="983.377,1423.18 983.377,106.192 "/>
<polyline clip-path="url(#clip532)" style="stroke:#000000; stroke-linecap:round; stroke-linejoin:round; stroke-width:2; stroke-opacity:0.1; fill:none" points="1311.22,1423.18 1311.22,106.192 "/>
<polyline clip-path="url(#clip532)" style="stroke:#000000; stroke-linecap:round; stroke-linejoin:round; stroke-width:2; stroke-opacity:0.1; fill:none" points="1639.05,1423.18 1639.05,106.192 "/>
<polyline clip-path="url(#clip532)" style="stroke:#000000; stroke-linecap:round; stroke-linejoin:round; stroke-width:2; stroke-opacity:0.1; fill:none" points="1966.89,1423.18 1966.89,106.192 "/>
<polyline clip-path="url(#clip532)" style="stroke:#000000; stroke-linecap:round; stroke-linejoin:round; stroke-width:2; stroke-opacity:0.1; fill:none" points="2294.73,1423.18 2294.73,106.192 "/>
<polyline clip-path="url(#clip532)" style="stroke:#000000; stroke-linecap:round; stroke-linejoin:round; stroke-width:2; stroke-opacity:0.1; fill:none" points="302.458,1404.9 2352.76,1404.9 "/>
<polyline clip-path="url(#clip532)" style="stroke:#000000; stroke-linecap:round; stroke-linejoin:round; stroke-width:2; stroke-opacity:0.1; fill:none" points="302.458,1072.64 2352.76,1072.64 "/>
<polyline clip-path="url(#clip532)" style="stroke:#000000; stroke-linecap:round; stroke-linejoin:round; stroke-width:2; stroke-opacity:0.1; fill:none" points="302.458,740.38 2352.76,740.38 "/>
<polyline clip-path="url(#clip532)" style="stroke:#000000; stroke-linecap:round; stroke-linejoin:round; stroke-width:2; stroke-opacity:0.1; fill:none" points="302.458,408.121 2352.76,408.121 "/>
<polyline clip-path="url(#clip530)" style="stroke:#000000; stroke-linecap:round; stroke-linejoin:round; stroke-width:4; stroke-opacity:1; fill:none" points="302.458,1423.18 2352.76,1423.18 "/>
<polyline clip-path="url(#clip530)" style="stroke:#000000; stroke-linecap:round; stroke-linejoin:round; stroke-width:4; stroke-opacity:1; fill:none" points="327.702,1423.18 327.702,1404.28 "/>
<polyline clip-path="url(#clip530)" style="stroke:#000000; stroke-linecap:round; stroke-linejoin:round; stroke-width:4; stroke-opacity:1; fill:none" points="655.54,1423.18 655.54,1404.28 "/>
<polyline clip-path="url(#clip530)" style="stroke:#000000; stroke-linecap:round; stroke-linejoin:round; stroke-width:4; stroke-opacity:1; fill:none" points="983.377,1423.18 983.377,1404.28 "/>
<polyline clip-path="url(#clip530)" style="stroke:#000000; stroke-linecap:round; stroke-linejoin:round; stroke-width:4; stroke-opacity:1; fill:none" points="1311.22,1423.18 1311.22,1404.28 "/>
<polyline clip-path="url(#clip530)" style="stroke:#000000; stroke-linecap:round; stroke-linejoin:round; stroke-width:4; stroke-opacity:1; fill:none" points="1639.05,1423.18 1639.05,1404.28 "/>
<polyline clip-path="url(#clip530)" style="stroke:#000000; stroke-linecap:round; stroke-linejoin:round; stroke-width:4; stroke-opacity:1; fill:none" points="1966.89,1423.18 1966.89,1404.28 "/>
<polyline clip-path="url(#clip530)" style="stroke:#000000; stroke-linecap:round; stroke-linejoin:round; stroke-width:4; stroke-opacity:1; fill:none" points="2294.73,1423.18 2294.73,1404.28 "/>
<path clip-path="url(#clip530)" d="M327.702 1454.1 Q324.091 1454.1 322.262 1457.66 Q320.457 1461.2 320.457 1468.33 Q320.457 1475.44 322.262 1479.01 Q324.091 1482.55 327.702 1482.55 Q331.336 1482.55 333.142 1479.01 Q334.97 1475.44 334.97 1468.33 Q334.97 1461.2 333.142 1457.66 Q331.336 1454.1 327.702 1454.1 M327.702 1450.39 Q333.512 1450.39 336.568 1455 Q339.646 1459.58 339.646 1468.33 Q339.646 1477.06 336.568 1481.67 Q333.512 1486.25 327.702 1486.25 Q321.892 1486.25 318.813 1481.67 Q315.758 1477.06 315.758 1468.33 Q315.758 1459.58 318.813 1455 Q321.892 1450.39 327.702 1450.39 Z" fill="#000000" fill-rule="nonzero" fill-opacity="1" /><path clip-path="url(#clip530)" d="M630.227 1481.64 L637.866 1481.64 L637.866 1455.28 L629.556 1456.95 L629.556 1452.69 L637.82 1451.02 L642.496 1451.02 L642.496 1481.64 L650.135 1481.64 L650.135 1485.58 L630.227 1485.58 L630.227 1481.64 Z" fill="#000000" fill-rule="nonzero" fill-opacity="1" /><path clip-path="url(#clip530)" d="M669.579 1454.1 Q665.968 1454.1 664.139 1457.66 Q662.334 1461.2 662.334 1468.33 Q662.334 1475.44 664.139 1479.01 Q665.968 1482.55 669.579 1482.55 Q673.213 1482.55 675.019 1479.01 Q676.847 1475.44 676.847 1468.33 Q676.847 1461.2 675.019 1457.66 Q673.213 1454.1 669.579 1454.1 M669.579 1450.39 Q675.389 1450.39 678.445 1455 Q681.523 1459.58 681.523 1468.33 Q681.523 1477.06 678.445 1481.67 Q675.389 1486.25 669.579 1486.25 Q663.769 1486.25 660.69 1481.67 Q657.635 1477.06 657.635 1468.33 Q657.635 1459.58 660.69 1455 Q663.769 1450.39 669.579 1450.39 Z" fill="#000000" fill-rule="nonzero" fill-opacity="1" /><path clip-path="url(#clip530)" d="M962.151 1481.64 L978.47 1481.64 L978.47 1485.58 L956.526 1485.58 L956.526 1481.64 Q959.188 1478.89 963.771 1474.26 Q968.378 1469.61 969.558 1468.27 Q971.803 1465.74 972.683 1464.01 Q973.586 1462.25 973.586 1460.56 Q973.586 1457.8 971.641 1456.07 Q969.72 1454.33 966.618 1454.33 Q964.419 1454.33 961.966 1455.09 Q959.535 1455.86 956.757 1457.41 L956.757 1452.69 Q959.581 1451.55 962.035 1450.97 Q964.489 1450.39 966.526 1450.39 Q971.896 1450.39 975.09 1453.08 Q978.285 1455.77 978.285 1460.26 Q978.285 1462.39 977.475 1464.31 Q976.688 1466.2 974.581 1468.8 Q974.003 1469.47 970.901 1472.69 Q967.799 1475.88 962.151 1481.64 Z" fill="#000000" fill-rule="nonzero" fill-opacity="1" /><path clip-path="url(#clip530)" d="M998.285 1454.1 Q994.674 1454.1 992.845 1457.66 Q991.039 1461.2 991.039 1468.33 Q991.039 1475.44 992.845 1479.01 Q994.674 1482.55 998.285 1482.55 Q1001.92 1482.55 1003.72 1479.01 Q1005.55 1475.44 1005.55 1468.33 Q1005.55 1461.2 1003.72 1457.66 Q1001.92 1454.1 998.285 1454.1 M998.285 1450.39 Q1004.09 1450.39 1007.15 1455 Q1010.23 1459.58 1010.23 1468.33 Q1010.23 1477.06 1007.15 1481.67 Q1004.09 1486.25 998.285 1486.25 Q992.475 1486.25 989.396 1481.67 Q986.34 1477.06 986.34 1468.33 Q986.34 1459.58 989.396 1455 Q992.475 1450.39 998.285 1450.39 Z" fill="#000000" fill-rule="nonzero" fill-opacity="1" /><path clip-path="url(#clip530)" d="M1300.06 1466.95 Q1303.41 1467.66 1305.29 1469.93 Q1307.19 1472.2 1307.19 1475.53 Q1307.19 1480.65 1303.67 1483.45 Q1300.15 1486.25 1293.67 1486.25 Q1291.49 1486.25 1289.18 1485.81 Q1286.89 1485.39 1284.43 1484.54 L1284.43 1480.02 Q1286.38 1481.16 1288.69 1481.74 Q1291.01 1482.32 1293.53 1482.32 Q1297.93 1482.32 1300.22 1480.58 Q1302.53 1478.84 1302.53 1475.53 Q1302.53 1472.48 1300.38 1470.77 Q1298.25 1469.03 1294.43 1469.03 L1290.41 1469.03 L1290.41 1465.19 L1294.62 1465.19 Q1298.07 1465.19 1299.9 1463.82 Q1301.72 1462.43 1301.72 1459.84 Q1301.72 1457.18 1299.83 1455.77 Q1297.95 1454.33 1294.43 1454.33 Q1292.51 1454.33 1290.31 1454.75 Q1288.11 1455.16 1285.47 1456.04 L1285.47 1451.88 Q1288.14 1451.14 1290.45 1450.77 Q1292.79 1450.39 1294.85 1450.39 Q1300.17 1450.39 1303.28 1452.83 Q1306.38 1455.23 1306.38 1459.35 Q1306.38 1462.22 1304.73 1464.21 Q1303.09 1466.18 1300.06 1466.95 Z" fill="#000000" fill-rule="nonzero" fill-opacity="1" /><path clip-path="url(#clip530)" d="M1326.05 1454.1 Q1322.44 1454.1 1320.61 1457.66 Q1318.81 1461.2 1318.81 1468.33 Q1318.81 1475.44 1320.61 1479.01 Q1322.44 1482.55 1326.05 1482.55 Q1329.69 1482.55 1331.49 1479.01 Q1333.32 1475.44 1333.32 1468.33 Q1333.32 1461.2 1331.49 1457.66 Q1329.69 1454.1 1326.05 1454.1 M1326.05 1450.39 Q1331.86 1450.39 1334.92 1455 Q1338 1459.58 1338 1468.33 Q1338 1477.06 1334.92 1481.67 Q1331.86 1486.25 1326.05 1486.25 Q1320.24 1486.25 1317.16 1481.67 Q1314.11 1477.06 1314.11 1468.33 Q1314.11 1459.58 1317.16 1455 Q1320.24 1450.39 1326.05 1450.39 Z" fill="#000000" fill-rule="nonzero" fill-opacity="1" /><path clip-path="url(#clip530)" d="M1627.22 1455.09 L1615.42 1473.54 L1627.22 1473.54 L1627.22 1455.09 M1626 1451.02 L1631.88 1451.02 L1631.88 1473.54 L1636.81 1473.54 L1636.81 1477.43 L1631.88 1477.43 L1631.88 1485.58 L1627.22 1485.58 L1627.22 1477.43 L1611.62 1477.43 L1611.62 1472.92 L1626 1451.02 Z" fill="#000000" fill-rule="nonzero" fill-opacity="1" /><path clip-path="url(#clip530)" d="M1654.54 1454.1 Q1650.93 1454.1 1649.1 1457.66 Q1647.29 1461.2 1647.29 1468.33 Q1647.29 1475.44 1649.1 1479.01 Q1650.93 1482.55 1654.54 1482.55 Q1658.17 1482.55 1659.98 1479.01 Q1661.81 1475.44 1661.81 1468.33 Q1661.81 1461.2 1659.98 1457.66 Q1658.17 1454.1 1654.54 1454.1 M1654.54 1450.39 Q1660.35 1450.39 1663.4 1455 Q1666.48 1459.58 1666.48 1468.33 Q1666.48 1477.06 1663.4 1481.67 Q1660.35 1486.25 1654.54 1486.25 Q1648.73 1486.25 1645.65 1481.67 Q1642.59 1477.06 1642.59 1468.33 Q1642.59 1459.58 1645.65 1455 Q1648.73 1450.39 1654.54 1450.39 Z" fill="#000000" fill-rule="nonzero" fill-opacity="1" /><path clip-path="url(#clip530)" d="M1941.59 1451.02 L1959.95 1451.02 L1959.95 1454.96 L1945.87 1454.96 L1945.87 1463.43 Q1946.89 1463.08 1947.91 1462.92 Q1948.93 1462.73 1949.95 1462.73 Q1955.73 1462.73 1959.11 1465.9 Q1962.49 1469.08 1962.49 1474.49 Q1962.49 1480.07 1959.02 1483.17 Q1955.55 1486.25 1949.23 1486.25 Q1947.05 1486.25 1944.78 1485.88 Q1942.54 1485.51 1940.13 1484.77 L1940.13 1480.07 Q1942.22 1481.2 1944.44 1481.76 Q1946.66 1482.32 1949.14 1482.32 Q1953.14 1482.32 1955.48 1480.21 Q1957.82 1478.1 1957.82 1474.49 Q1957.82 1470.88 1955.48 1468.77 Q1953.14 1466.67 1949.14 1466.67 Q1947.26 1466.67 1945.39 1467.08 Q1943.53 1467.5 1941.59 1468.38 L1941.59 1451.02 Z" fill="#000000" fill-rule="nonzero" fill-opacity="1" /><path clip-path="url(#clip530)" d="M1981.71 1454.1 Q1978.09 1454.1 1976.27 1457.66 Q1974.46 1461.2 1974.46 1468.33 Q1974.46 1475.44 1976.27 1479.01 Q1978.09 1482.55 1981.71 1482.55 Q1985.34 1482.55 1987.15 1479.01 Q1988.97 1475.44 1988.97 1468.33 Q1988.97 1461.2 1987.15 1457.66 Q1985.34 1454.1 1981.71 1454.1 M1981.71 1450.39 Q1987.52 1450.39 1990.57 1455 Q1993.65 1459.58 1993.65 1468.33 Q1993.65 1477.06 1990.57 1481.67 Q1987.52 1486.25 1981.71 1486.25 Q1975.9 1486.25 1972.82 1481.67 Q1969.76 1477.06 1969.76 1468.33 Q1969.76 1459.58 1972.82 1455 Q1975.9 1450.39 1981.71 1450.39 Z" fill="#000000" fill-rule="nonzero" fill-opacity="1" /><path clip-path="url(#clip530)" d="M2280.13 1466.44 Q2276.99 1466.44 2275.13 1468.59 Q2273.31 1470.74 2273.31 1474.49 Q2273.31 1478.22 2275.13 1480.39 Q2276.99 1482.55 2280.13 1482.55 Q2283.28 1482.55 2285.11 1480.39 Q2286.96 1478.22 2286.96 1474.49 Q2286.96 1470.74 2285.11 1468.59 Q2283.28 1466.44 2280.13 1466.44 M2289.42 1451.78 L2289.42 1456.04 Q2287.66 1455.21 2285.85 1454.77 Q2284.07 1454.33 2282.31 1454.33 Q2277.68 1454.33 2275.23 1457.45 Q2272.8 1460.58 2272.45 1466.9 Q2273.81 1464.89 2275.87 1463.82 Q2277.93 1462.73 2280.41 1462.73 Q2285.62 1462.73 2288.63 1465.9 Q2291.66 1469.05 2291.66 1474.49 Q2291.66 1479.82 2288.51 1483.03 Q2285.37 1486.25 2280.13 1486.25 Q2274.14 1486.25 2270.97 1481.67 Q2267.8 1477.06 2267.8 1468.33 Q2267.8 1460.14 2271.68 1455.28 Q2275.57 1450.39 2282.12 1450.39 Q2283.88 1450.39 2285.67 1450.74 Q2287.47 1451.09 2289.42 1451.78 Z" fill="#000000" fill-rule="nonzero" fill-opacity="1" /><path clip-path="url(#clip530)" d="M2309.72 1454.1 Q2306.11 1454.1 2304.28 1457.66 Q2302.47 1461.2 2302.47 1468.33 Q2302.47 1475.44 2304.28 1479.01 Q2306.11 1482.55 2309.72 1482.55 Q2313.35 1482.55 2315.16 1479.01 Q2316.99 1475.44 2316.99 1468.33 Q2316.99 1461.2 2315.16 1457.66 Q2313.35 1454.1 2309.72 1454.1 M2309.72 1450.39 Q2315.53 1450.39 2318.58 1455 Q2321.66 1459.58 2321.66 1468.33 Q2321.66 1477.06 2318.58 1481.67 Q2315.53 1486.25 2309.72 1486.25 Q2303.91 1486.25 2300.83 1481.67 Q2297.77 1477.06 2297.77 1468.33 Q2297.77 1459.58 2300.83 1455 Q2303.91 1450.39 2309.72 1450.39 Z" fill="#000000" fill-rule="nonzero" fill-opacity="1" /><path clip-path="url(#clip530)" d="M1195.33 1520.52 L1201.76 1520.52 L1201.76 1568.04 L1195.33 1568.04 L1195.33 1520.52 Z" fill="#000000" fill-rule="nonzero" fill-opacity="1" /><path clip-path="url(#clip530)" d="M1220.09 1522.27 L1220.09 1532.4 L1232.15 1532.4 L1232.15 1536.95 L1220.09 1536.95 L1220.09 1556.3 Q1220.09 1560.66 1221.27 1561.9 Q1222.48 1563.14 1226.14 1563.14 L1232.15 1563.14 L1232.15 1568.04 L1226.14 1568.04 Q1219.36 1568.04 1216.78 1565.53 Q1214.2 1562.98 1214.2 1556.3 L1214.2 1536.95 L1209.91 1536.95 L1209.91 1532.4 L1214.2 1532.4 L1214.2 1522.27 L1220.09 1522.27 Z" fill="#000000" fill-rule="nonzero" fill-opacity="1" /><path clip-path="url(#clip530)" d="M1270.35 1548.76 L1270.35 1551.62 L1243.42 1551.62 Q1243.8 1557.67 1247.05 1560.85 Q1250.33 1564 1256.15 1564 Q1259.53 1564 1262.68 1563.17 Q1265.86 1562.35 1268.98 1560.69 L1268.98 1566.23 Q1265.83 1567.57 1262.52 1568.27 Q1259.21 1568.97 1255.8 1568.97 Q1247.27 1568.97 1242.27 1564 Q1237.31 1559.04 1237.31 1550.57 Q1237.31 1541.82 1242.02 1536.69 Q1246.76 1531.54 1254.78 1531.54 Q1261.98 1531.54 1266.15 1536.18 Q1270.35 1540.8 1270.35 1548.76 M1264.49 1547.04 Q1264.43 1542.23 1261.79 1539.37 Q1259.18 1536.5 1254.85 1536.5 Q1249.95 1536.5 1246.99 1539.27 Q1244.06 1542.04 1243.61 1547.07 L1264.49 1547.04 Z" fill="#000000" fill-rule="nonzero" fill-opacity="1" /><path clip-path="url(#clip530)" d="M1300.62 1537.87 Q1299.63 1537.3 1298.45 1537.04 Q1297.31 1536.76 1295.91 1536.76 Q1290.94 1536.76 1288.27 1540 Q1285.63 1543.22 1285.63 1549.27 L1285.63 1568.04 L1279.74 1568.04 L1279.74 1532.4 L1285.63 1532.4 L1285.63 1537.93 Q1287.47 1534.69 1290.43 1533.13 Q1293.39 1531.54 1297.62 1531.54 Q1298.23 1531.54 1298.96 1531.63 Q1299.69 1531.7 1300.58 1531.85 L1300.62 1537.87 Z" fill="#000000" fill-rule="nonzero" fill-opacity="1" /><path clip-path="url(#clip530)" d="M1322.96 1550.12 Q1315.86 1550.12 1313.13 1551.75 Q1310.39 1553.37 1310.39 1557.29 Q1310.39 1560.4 1312.42 1562.25 Q1314.49 1564.07 1318.03 1564.07 Q1322.9 1564.07 1325.82 1560.63 Q1328.78 1557.16 1328.78 1551.43 L1328.78 1550.12 L1322.96 1550.12 M1334.64 1547.71 L1334.64 1568.04 L1328.78 1568.04 L1328.78 1562.63 Q1326.78 1565.88 1323.79 1567.44 Q1320.8 1568.97 1316.47 1568.97 Q1310.99 1568.97 1307.75 1565.91 Q1304.53 1562.82 1304.53 1557.67 Q1304.53 1551.65 1308.54 1548.6 Q1312.58 1545.54 1320.57 1545.54 L1328.78 1545.54 L1328.78 1544.97 Q1328.78 1540.93 1326.11 1538.73 Q1323.47 1536.5 1318.66 1536.5 Q1315.61 1536.5 1312.71 1537.23 Q1309.82 1537.97 1307.14 1539.43 L1307.14 1534.02 Q1310.36 1532.78 1313.38 1532.17 Q1316.4 1531.54 1319.27 1531.54 Q1327 1531.54 1330.82 1535.55 Q1334.64 1539.56 1334.64 1547.71 Z" fill="#000000" fill-rule="nonzero" fill-opacity="1" /><path clip-path="url(#clip530)" d="M1352.5 1522.27 L1352.5 1532.4 L1364.56 1532.4 L1364.56 1536.95 L1352.5 1536.95 L1352.5 1556.3 Q1352.5 1560.66 1353.67 1561.9 Q1354.88 1563.14 1358.54 1563.14 L1364.56 1563.14 L1364.56 1568.04 L1358.54 1568.04 Q1351.77 1568.04 1349.19 1565.53 Q1346.61 1562.98 1346.61 1556.3 L1346.61 1536.95 L1342.31 1536.95 L1342.31 1532.4 L1346.61 1532.4 L1346.61 1522.27 L1352.5 1522.27 Z" fill="#000000" fill-rule="nonzero" fill-opacity="1" /><path clip-path="url(#clip530)" d="M1372.26 1532.4 L1378.12 1532.4 L1378.12 1568.04 L1372.26 1568.04 L1372.26 1532.4 M1372.26 1518.52 L1378.12 1518.52 L1378.12 1525.93 L1372.26 1525.93 L1372.26 1518.52 Z" fill="#000000" fill-rule="nonzero" fill-opacity="1" /><path clip-path="url(#clip530)" d="M1404.19 1536.5 Q1399.48 1536.5 1396.74 1540.19 Q1394 1543.85 1394 1550.25 Q1394 1556.65 1396.71 1560.34 Q1399.44 1564 1404.19 1564 Q1408.87 1564 1411.6 1560.31 Q1414.34 1556.62 1414.34 1550.25 Q1414.34 1543.92 1411.6 1540.23 Q1408.87 1536.5 1404.19 1536.5 M1404.19 1531.54 Q1411.83 1531.54 1416.19 1536.5 Q1420.55 1541.47 1420.55 1550.25 Q1420.55 1559 1416.19 1564 Q1411.83 1568.97 1404.19 1568.97 Q1396.52 1568.97 1392.16 1564 Q1387.83 1559 1387.83 1550.25 Q1387.83 1541.47 1392.16 1536.5 Q1396.52 1531.54 1404.19 1531.54 Z" fill="#000000" fill-rule="nonzero" fill-opacity="1" /><path clip-path="url(#clip530)" d="M1459.89 1546.53 L1459.89 1568.04 L1454.03 1568.04 L1454.03 1546.72 Q1454.03 1541.66 1452.06 1539.14 Q1450.08 1536.63 1446.14 1536.63 Q1441.39 1536.63 1438.66 1539.65 Q1435.92 1542.68 1435.92 1547.9 L1435.92 1568.04 L1430.03 1568.04 L1430.03 1532.4 L1435.92 1532.4 L1435.92 1537.93 Q1438.02 1534.72 1440.85 1533.13 Q1443.72 1531.54 1447.44 1531.54 Q1453.58 1531.54 1456.74 1535.36 Q1459.89 1539.14 1459.89 1546.53 Z" fill="#000000" fill-rule="nonzero" fill-opacity="1" /><polyline clip-path="url(#clip530)" style="stroke:#000000; stroke-linecap:round; stroke-linejoin:round; stroke-width:4; stroke-opacity:1; fill:none" points="302.458,1423.18 302.458,106.192 "/>
<polyline clip-path="url(#clip530)" style="stroke:#000000; stroke-linecap:round; stroke-linejoin:round; stroke-width:4; stroke-opacity:1; fill:none" points="302.458,1404.9 321.356,1404.9 "/>
<polyline clip-path="url(#clip530)" style="stroke:#000000; stroke-linecap:round; stroke-linejoin:round; stroke-width:4; stroke-opacity:1; fill:none" points="302.458,1072.64 321.356,1072.64 "/>
<polyline clip-path="url(#clip530)" style="stroke:#000000; stroke-linecap:round; stroke-linejoin:round; stroke-width:4; stroke-opacity:1; fill:none" points="302.458,740.38 321.356,740.38 "/>
<polyline clip-path="url(#clip530)" style="stroke:#000000; stroke-linecap:round; stroke-linejoin:round; stroke-width:4; stroke-opacity:1; fill:none" points="302.458,408.121 321.356,408.121 "/>
<path clip-path="url(#clip530)" d="M114.26 1405.35 L143.936 1405.35 L143.936 1409.28 L114.26 1409.28 L114.26 1405.35 Z" fill="#000000" fill-rule="nonzero" fill-opacity="1" /><path clip-path="url(#clip530)" d="M164.607 1403.03 Q161.459 1403.03 159.607 1405.19 Q157.778 1407.34 157.778 1411.09 Q157.778 1414.82 159.607 1416.99 Q161.459 1419.14 164.607 1419.14 Q167.755 1419.14 169.584 1416.99 Q171.436 1414.82 171.436 1411.09 Q171.436 1407.34 169.584 1405.19 Q167.755 1403.03 164.607 1403.03 M173.889 1388.38 L173.889 1392.64 Q172.13 1391.81 170.325 1391.37 Q168.542 1390.93 166.783 1390.93 Q162.153 1390.93 159.7 1394.05 Q157.269 1397.18 156.922 1403.5 Q158.288 1401.48 160.348 1400.42 Q162.408 1399.33 164.885 1399.33 Q170.093 1399.33 173.102 1402.5 Q176.135 1405.65 176.135 1411.09 Q176.135 1416.41 172.987 1419.63 Q169.839 1422.85 164.607 1422.85 Q158.612 1422.85 155.44 1418.26 Q152.269 1413.66 152.269 1404.93 Q152.269 1396.74 156.158 1391.88 Q160.047 1386.99 166.598 1386.99 Q168.357 1386.99 170.139 1387.34 Q171.945 1387.69 173.889 1388.38 Z" fill="#000000" fill-rule="nonzero" fill-opacity="1" /><path clip-path="url(#clip530)" d="M188.218 1418.24 L204.537 1418.24 L204.537 1422.18 L182.593 1422.18 L182.593 1418.24 Q185.255 1415.49 189.838 1410.86 Q194.445 1406.2 195.625 1404.86 Q197.871 1402.34 198.75 1400.6 Q199.653 1398.84 199.653 1397.15 Q199.653 1394.4 197.709 1392.66 Q195.787 1390.93 192.686 1390.93 Q190.487 1390.93 188.033 1391.69 Q185.602 1392.45 182.825 1394.01 L182.825 1389.28 Q185.649 1388.15 188.102 1387.57 Q190.556 1386.99 192.593 1386.99 Q197.963 1386.99 201.158 1389.68 Q204.352 1392.36 204.352 1396.85 Q204.352 1398.98 203.542 1400.9 Q202.755 1402.8 200.649 1405.39 Q200.07 1406.07 196.968 1409.28 Q193.866 1412.48 188.218 1418.24 Z" fill="#000000" fill-rule="nonzero" fill-opacity="1" /><path clip-path="url(#clip530)" d="M224.352 1390.69 Q220.741 1390.69 218.912 1394.26 Q217.107 1397.8 217.107 1404.93 Q217.107 1412.04 218.912 1415.6 Q220.741 1419.14 224.352 1419.14 Q227.986 1419.14 229.792 1415.6 Q231.621 1412.04 231.621 1404.93 Q231.621 1397.8 229.792 1394.26 Q227.986 1390.69 224.352 1390.69 M224.352 1386.99 Q230.162 1386.99 233.218 1391.6 Q236.297 1396.18 236.297 1404.93 Q236.297 1413.66 233.218 1418.26 Q230.162 1422.85 224.352 1422.85 Q218.542 1422.85 215.463 1418.26 Q212.408 1413.66 212.408 1404.93 Q212.408 1396.18 215.463 1391.6 Q218.542 1386.99 224.352 1386.99 Z" fill="#000000" fill-rule="nonzero" fill-opacity="1" /><path clip-path="url(#clip530)" d="M254.514 1390.69 Q250.903 1390.69 249.074 1394.26 Q247.269 1397.8 247.269 1404.93 Q247.269 1412.04 249.074 1415.6 Q250.903 1419.14 254.514 1419.14 Q258.148 1419.14 259.954 1415.6 Q261.783 1412.04 261.783 1404.93 Q261.783 1397.8 259.954 1394.26 Q258.148 1390.69 254.514 1390.69 M254.514 1386.99 Q260.324 1386.99 263.38 1391.6 Q266.458 1396.18 266.458 1404.93 Q266.458 1413.66 263.38 1418.26 Q260.324 1422.85 254.514 1422.85 Q248.704 1422.85 245.625 1418.26 Q242.57 1413.66 242.57 1404.93 Q242.57 1396.18 245.625 1391.6 Q248.704 1386.99 254.514 1386.99 Z" fill="#000000" fill-rule="nonzero" fill-opacity="1" /><path clip-path="url(#clip530)" d="M114.26 1073.09 L143.936 1073.09 L143.936 1077.02 L114.26 1077.02 L114.26 1073.09 Z" fill="#000000" fill-rule="nonzero" fill-opacity="1" /><path clip-path="url(#clip530)" d="M164.607 1070.77 Q161.459 1070.77 159.607 1072.93 Q157.778 1075.08 157.778 1078.83 Q157.778 1082.56 159.607 1084.73 Q161.459 1086.89 164.607 1086.89 Q167.755 1086.89 169.584 1084.73 Q171.436 1082.56 171.436 1078.83 Q171.436 1075.08 169.584 1072.93 Q167.755 1070.77 164.607 1070.77 M173.889 1056.12 L173.889 1060.38 Q172.13 1059.55 170.325 1059.11 Q168.542 1058.67 166.783 1058.67 Q162.153 1058.67 159.7 1061.79 Q157.269 1064.92 156.922 1071.24 Q158.288 1069.22 160.348 1068.16 Q162.408 1067.07 164.885 1067.07 Q170.093 1067.07 173.102 1070.24 Q176.135 1073.39 176.135 1078.83 Q176.135 1084.15 172.987 1087.37 Q169.839 1090.59 164.607 1090.59 Q158.612 1090.59 155.44 1086.01 Q152.269 1081.4 152.269 1072.67 Q152.269 1064.48 156.158 1059.62 Q160.047 1054.73 166.598 1054.73 Q168.357 1054.73 170.139 1055.08 Q171.945 1055.43 173.889 1056.12 Z" fill="#000000" fill-rule="nonzero" fill-opacity="1" /><path clip-path="url(#clip530)" d="M194.19 1058.44 Q190.579 1058.44 188.75 1062 Q186.945 1065.54 186.945 1072.67 Q186.945 1079.78 188.75 1083.34 Q190.579 1086.89 194.19 1086.89 Q197.825 1086.89 199.63 1083.34 Q201.459 1079.78 201.459 1072.67 Q201.459 1065.54 199.63 1062 Q197.825 1058.44 194.19 1058.44 M194.19 1054.73 Q200 1054.73 203.056 1059.34 Q206.135 1063.92 206.135 1072.67 Q206.135 1081.4 203.056 1086.01 Q200 1090.59 194.19 1090.59 Q188.38 1090.59 185.301 1086.01 Q182.246 1081.4 182.246 1072.67 Q182.246 1063.92 185.301 1059.34 Q188.38 1054.73 194.19 1054.73 Z" fill="#000000" fill-rule="nonzero" fill-opacity="1" /><path clip-path="url(#clip530)" d="M224.352 1058.44 Q220.741 1058.44 218.912 1062 Q217.107 1065.54 217.107 1072.67 Q217.107 1079.78 218.912 1083.34 Q220.741 1086.89 224.352 1086.89 Q227.986 1086.89 229.792 1083.34 Q231.621 1079.78 231.621 1072.67 Q231.621 1065.54 229.792 1062 Q227.986 1058.44 224.352 1058.44 M224.352 1054.73 Q230.162 1054.73 233.218 1059.34 Q236.297 1063.92 236.297 1072.67 Q236.297 1081.4 233.218 1086.01 Q230.162 1090.59 224.352 1090.59 Q218.542 1090.59 215.463 1086.01 Q212.408 1081.4 212.408 1072.67 Q212.408 1063.92 215.463 1059.34 Q218.542 1054.73 224.352 1054.73 Z" fill="#000000" fill-rule="nonzero" fill-opacity="1" /><path clip-path="url(#clip530)" d="M254.514 1058.44 Q250.903 1058.44 249.074 1062 Q247.269 1065.54 247.269 1072.67 Q247.269 1079.78 249.074 1083.34 Q250.903 1086.89 254.514 1086.89 Q258.148 1086.89 259.954 1083.34 Q261.783 1079.78 261.783 1072.67 Q261.783 1065.54 259.954 1062 Q258.148 1058.44 254.514 1058.44 M254.514 1054.73 Q260.324 1054.73 263.38 1059.34 Q266.458 1063.92 266.458 1072.67 Q266.458 1081.4 263.38 1086.01 Q260.324 1090.59 254.514 1090.59 Q248.704 1090.59 245.625 1086.01 Q242.57 1081.4 242.57 1072.67 Q242.57 1063.92 245.625 1059.34 Q248.704 1054.73 254.514 1054.73 Z" fill="#000000" fill-rule="nonzero" fill-opacity="1" /><path clip-path="url(#clip530)" d="M114.26 740.831 L143.936 740.831 L143.936 744.766 L114.26 744.766 L114.26 740.831 Z" fill="#000000" fill-rule="nonzero" fill-opacity="1" /><path clip-path="url(#clip530)" d="M154.075 723.1 L172.431 723.1 L172.431 727.035 L158.357 727.035 L158.357 735.507 Q159.376 735.16 160.394 734.998 Q161.413 734.812 162.431 734.812 Q168.218 734.812 171.598 737.984 Q174.977 741.155 174.977 746.572 Q174.977 752.15 171.505 755.252 Q168.033 758.331 161.714 758.331 Q159.538 758.331 157.269 757.96 Q155.024 757.59 152.616 756.849 L152.616 752.15 Q154.7 753.285 156.922 753.84 Q159.144 754.396 161.621 754.396 Q165.626 754.396 167.964 752.289 Q170.302 750.183 170.302 746.572 Q170.302 742.961 167.964 740.854 Q165.626 738.748 161.621 738.748 Q159.746 738.748 157.871 739.164 Q156.019 739.581 154.075 740.461 L154.075 723.1 Z" fill="#000000" fill-rule="nonzero" fill-opacity="1" /><path clip-path="url(#clip530)" d="M194.19 741.248 Q190.857 741.248 188.936 743.03 Q187.038 744.812 187.038 747.937 Q187.038 751.062 188.936 752.845 Q190.857 754.627 194.19 754.627 Q197.524 754.627 199.445 752.845 Q201.366 751.039 201.366 747.937 Q201.366 744.812 199.445 743.03 Q197.547 741.248 194.19 741.248 M189.514 739.257 Q186.505 738.516 184.815 736.456 Q183.149 734.396 183.149 731.433 Q183.149 727.289 186.088 724.882 Q189.051 722.475 194.19 722.475 Q199.352 722.475 202.292 724.882 Q205.232 727.289 205.232 731.433 Q205.232 734.396 203.542 736.456 Q201.875 738.516 198.889 739.257 Q202.269 740.044 204.144 742.336 Q206.042 744.627 206.042 747.937 Q206.042 752.96 202.963 755.646 Q199.908 758.331 194.19 758.331 Q188.473 758.331 185.394 755.646 Q182.338 752.96 182.338 747.937 Q182.338 744.627 184.237 742.336 Q186.135 740.044 189.514 739.257 M187.801 731.873 Q187.801 734.558 189.468 736.062 Q191.158 737.567 194.19 737.567 Q197.2 737.567 198.889 736.062 Q200.602 734.558 200.602 731.873 Q200.602 729.187 198.889 727.683 Q197.2 726.178 194.19 726.178 Q191.158 726.178 189.468 727.683 Q187.801 729.187 187.801 731.873 Z" fill="#000000" fill-rule="nonzero" fill-opacity="1" /><path clip-path="url(#clip530)" d="M224.352 726.178 Q220.741 726.178 218.912 729.743 Q217.107 733.285 217.107 740.414 Q217.107 747.521 218.912 751.086 Q220.741 754.627 224.352 754.627 Q227.986 754.627 229.792 751.086 Q231.621 747.521 231.621 740.414 Q231.621 733.285 229.792 729.743 Q227.986 726.178 224.352 726.178 M224.352 722.475 Q230.162 722.475 233.218 727.081 Q236.297 731.664 236.297 740.414 Q236.297 749.141 233.218 753.748 Q230.162 758.331 224.352 758.331 Q218.542 758.331 215.463 753.748 Q212.408 749.141 212.408 740.414 Q212.408 731.664 215.463 727.081 Q218.542 722.475 224.352 722.475 Z" fill="#000000" fill-rule="nonzero" fill-opacity="1" /><path clip-path="url(#clip530)" d="M254.514 726.178 Q250.903 726.178 249.074 729.743 Q247.269 733.285 247.269 740.414 Q247.269 747.521 249.074 751.086 Q250.903 754.627 254.514 754.627 Q258.148 754.627 259.954 751.086 Q261.783 747.521 261.783 740.414 Q261.783 733.285 259.954 729.743 Q258.148 726.178 254.514 726.178 M254.514 722.475 Q260.324 722.475 263.38 727.081 Q266.458 731.664 266.458 740.414 Q266.458 749.141 263.38 753.748 Q260.324 758.331 254.514 758.331 Q248.704 758.331 245.625 753.748 Q242.57 749.141 242.57 740.414 Q242.57 731.664 245.625 727.081 Q248.704 722.475 254.514 722.475 Z" fill="#000000" fill-rule="nonzero" fill-opacity="1" /><path clip-path="url(#clip530)" d="M114.26 408.573 L143.936 408.573 L143.936 412.508 L114.26 412.508 L114.26 408.573 Z" fill="#000000" fill-rule="nonzero" fill-opacity="1" /><path clip-path="url(#clip530)" d="M154.075 390.841 L172.431 390.841 L172.431 394.776 L158.357 394.776 L158.357 403.249 Q159.376 402.901 160.394 402.739 Q161.413 402.554 162.431 402.554 Q168.218 402.554 171.598 405.725 Q174.977 408.897 174.977 414.313 Q174.977 419.892 171.505 422.994 Q168.033 426.072 161.714 426.072 Q159.538 426.072 157.269 425.702 Q155.024 425.332 152.616 424.591 L152.616 419.892 Q154.7 421.026 156.922 421.582 Q159.144 422.137 161.621 422.137 Q165.626 422.137 167.964 420.031 Q170.302 417.924 170.302 414.313 Q170.302 410.702 167.964 408.596 Q165.626 406.489 161.621 406.489 Q159.746 406.489 157.871 406.906 Q156.019 407.323 154.075 408.202 L154.075 390.841 Z" fill="#000000" fill-rule="nonzero" fill-opacity="1" /><path clip-path="url(#clip530)" d="M194.769 406.258 Q191.621 406.258 189.769 408.411 Q187.94 410.563 187.94 414.313 Q187.94 418.04 189.769 420.216 Q191.621 422.369 194.769 422.369 Q197.917 422.369 199.746 420.216 Q201.598 418.04 201.598 414.313 Q201.598 410.563 199.746 408.411 Q197.917 406.258 194.769 406.258 M204.051 391.605 L204.051 395.864 Q202.292 395.031 200.487 394.591 Q198.704 394.151 196.945 394.151 Q192.315 394.151 189.862 397.276 Q187.431 400.401 187.084 406.721 Q188.45 404.707 190.51 403.642 Q192.57 402.554 195.047 402.554 Q200.255 402.554 203.264 405.725 Q206.297 408.873 206.297 414.313 Q206.297 419.637 203.149 422.855 Q200 426.072 194.769 426.072 Q188.774 426.072 185.602 421.489 Q182.431 416.883 182.431 408.156 Q182.431 399.961 186.32 395.1 Q190.209 390.216 196.76 390.216 Q198.519 390.216 200.301 390.563 Q202.107 390.911 204.051 391.605 Z" fill="#000000" fill-rule="nonzero" fill-opacity="1" /><path clip-path="url(#clip530)" d="M224.352 393.92 Q220.741 393.92 218.912 397.485 Q217.107 401.026 217.107 408.156 Q217.107 415.262 218.912 418.827 Q220.741 422.369 224.352 422.369 Q227.986 422.369 229.792 418.827 Q231.621 415.262 231.621 408.156 Q231.621 401.026 229.792 397.485 Q227.986 393.92 224.352 393.92 M224.352 390.216 Q230.162 390.216 233.218 394.823 Q236.297 399.406 236.297 408.156 Q236.297 416.883 233.218 421.489 Q230.162 426.072 224.352 426.072 Q218.542 426.072 215.463 421.489 Q212.408 416.883 212.408 408.156 Q212.408 399.406 215.463 394.823 Q218.542 390.216 224.352 390.216 Z" fill="#000000" fill-rule="nonzero" fill-opacity="1" /><path clip-path="url(#clip530)" d="M254.514 393.92 Q250.903 393.92 249.074 397.485 Q247.269 401.026 247.269 408.156 Q247.269 415.262 249.074 418.827 Q250.903 422.369 254.514 422.369 Q258.148 422.369 259.954 418.827 Q261.783 415.262 261.783 408.156 Q261.783 401.026 259.954 397.485 Q258.148 393.92 254.514 393.92 M254.514 390.216 Q260.324 390.216 263.38 394.823 Q266.458 399.406 266.458 408.156 Q266.458 416.883 263.38 421.489 Q260.324 426.072 254.514 426.072 Q248.704 426.072 245.625 421.489 Q242.57 416.883 242.57 408.156 Q242.57 399.406 245.625 394.823 Q248.704 390.216 254.514 390.216 Z" fill="#000000" fill-rule="nonzero" fill-opacity="1" /><path clip-path="url(#clip530)" d="M16.4842 992.817 L16.4842 986.388 L58.5933 986.388 L58.5933 963.248 L64.0042 963.248 L64.0042 992.817 L16.4842 992.817 Z" fill="#000000" fill-rule="nonzero" fill-opacity="1" /><path clip-path="url(#clip530)" d="M32.4621 944.088 Q32.4621 948.798 36.1542 951.535 Q39.8145 954.273 46.212 954.273 Q52.6095 954.273 56.3017 951.567 Q59.9619 948.83 59.9619 944.088 Q59.9619 939.409 56.2698 936.671 Q52.5777 933.934 46.212 933.934 Q39.8781 933.934 36.186 936.671 Q32.4621 939.409 32.4621 944.088 M27.4968 944.088 Q27.4968 936.449 32.4621 932.088 Q37.4273 927.728 46.212 927.728 Q54.9649 927.728 59.9619 932.088 Q64.9272 936.449 64.9272 944.088 Q64.9272 951.758 59.9619 956.119 Q54.9649 960.447 46.212 960.447 Q37.4273 960.447 32.4621 956.119 Q27.4968 951.758 27.4968 944.088 Z" fill="#000000" fill-rule="nonzero" fill-opacity="1" /><path clip-path="url(#clip530)" d="M45.7664 894.562 Q39.4007 894.562 35.8996 897.204 Q32.3984 899.814 32.3984 904.556 Q32.3984 909.267 35.8996 911.909 Q39.4007 914.519 45.7664 914.519 Q52.1003 914.519 55.6014 911.909 Q59.1026 909.267 59.1026 904.556 Q59.1026 899.814 55.6014 897.204 Q52.1003 894.562 45.7664 894.562 M59.58 888.706 Q68.683 888.706 73.1071 892.748 Q77.5631 896.79 77.5631 905.129 Q77.5631 908.217 77.0857 910.954 Q76.6401 913.691 75.6852 916.269 L69.9879 916.269 Q71.3884 913.691 72.0568 911.177 Q72.7252 908.662 72.7252 906.052 Q72.7252 900.291 69.7015 897.427 Q66.7096 894.562 60.6303 894.562 L57.7339 894.562 Q60.885 896.377 62.4446 899.209 Q64.0042 902.042 64.0042 905.989 Q64.0042 912.545 59.0071 916.556 Q54.01 920.566 45.7664 920.566 Q37.491 920.566 32.4939 916.556 Q27.4968 912.545 27.4968 905.989 Q27.4968 902.042 29.0564 899.209 Q30.616 896.377 33.7671 894.562 L28.3562 894.562 L28.3562 888.706 L59.58 888.706 Z" fill="#000000" fill-rule="nonzero" fill-opacity="1" /><path clip-path="url(#clip530)" d="M43.5384 879.603 L43.5384 862.447 L48.7583 862.447 L48.7583 879.603 L43.5384 879.603 Z" fill="#000000" fill-rule="nonzero" fill-opacity="1" /><path clip-path="url(#clip530)" d="M16.4842 852.867 L16.4842 846.438 L58.5933 846.438 L58.5933 823.298 L64.0042 823.298 L64.0042 852.867 L16.4842 852.867 Z" fill="#000000" fill-rule="nonzero" fill-opacity="1" /><path clip-path="url(#clip530)" d="M28.3562 816.805 L28.3562 810.949 L64.0042 810.949 L64.0042 816.805 L28.3562 816.805 M14.479 816.805 L14.479 810.949 L21.895 810.949 L21.895 816.805 L14.479 816.805 Z" fill="#000000" fill-rule="nonzero" fill-opacity="1" /><path clip-path="url(#clip530)" d="M14.479 798.918 L14.479 793.029 L43.7294 793.029 L28.3562 775.555 L28.3562 768.076 L45.0344 786.982 L64.0042 767.28 L64.0042 774.919 L46.5939 793.029 L64.0042 793.029 L64.0042 798.918 L14.479 798.918 Z" fill="#000000" fill-rule="nonzero" fill-opacity="1" /><path clip-path="url(#clip530)" d="M44.7161 732.778 L47.5806 732.778 L47.5806 759.705 Q53.6281 759.323 56.8109 756.076 Q59.9619 752.798 59.9619 746.973 Q59.9619 743.6 59.1344 740.449 Q58.3069 737.266 56.6518 734.147 L62.1899 734.147 Q63.5267 737.298 64.227 740.608 Q64.9272 743.918 64.9272 747.324 Q64.9272 755.854 59.9619 760.851 Q54.9967 765.816 46.5303 765.816 Q37.7774 765.816 32.6531 761.105 Q27.4968 756.363 27.4968 748.342 Q27.4968 741.149 32.1438 736.979 Q36.7589 732.778 44.7161 732.778 M42.9973 738.634 Q38.1912 738.698 35.3266 741.34 Q32.4621 743.95 32.4621 748.278 Q32.4621 753.18 35.2312 756.14 Q38.0002 759.068 43.0292 759.514 L42.9973 738.634 Z" fill="#000000" fill-rule="nonzero" fill-opacity="1" /><path clip-path="url(#clip530)" d="M14.479 723.166 L14.479 717.309 L64.0042 717.309 L64.0042 723.166 L14.479 723.166 Z" fill="#000000" fill-rule="nonzero" fill-opacity="1" /><path clip-path="url(#clip530)" d="M28.3562 705.055 L28.3562 699.199 L64.0042 699.199 L64.0042 705.055 L28.3562 705.055 M14.479 705.055 L14.479 699.199 L21.895 699.199 L21.895 705.055 L14.479 705.055 Z" fill="#000000" fill-rule="nonzero" fill-opacity="1" /><path clip-path="url(#clip530)" d="M42.4881 657.312 L64.0042 657.312 L64.0042 663.169 L42.679 663.169 Q37.6183 663.169 35.1038 665.142 Q32.5894 667.116 32.5894 671.062 Q32.5894 675.805 35.6131 678.542 Q38.6368 681.279 43.8567 681.279 L64.0042 681.279 L64.0042 687.168 L14.479 687.168 L14.479 681.279 L33.8944 681.279 Q30.6797 679.179 29.0883 676.346 Q27.4968 673.481 27.4968 669.757 Q27.4968 663.614 31.3163 660.463 Q35.1038 657.312 42.4881 657.312 Z" fill="#000000" fill-rule="nonzero" fill-opacity="1" /><path clip-path="url(#clip530)" d="M32.4621 631.818 Q32.4621 636.528 36.1542 639.266 Q39.8145 642.003 46.212 642.003 Q52.6095 642.003 56.3017 639.297 Q59.9619 636.56 59.9619 631.818 Q59.9619 627.139 56.2698 624.402 Q52.5777 621.664 46.212 621.664 Q39.8781 621.664 36.186 624.402 Q32.4621 627.139 32.4621 631.818 M27.4968 631.818 Q27.4968 624.179 32.4621 619.818 Q37.4273 615.458 46.212 615.458 Q54.9649 615.458 59.9619 619.818 Q64.9272 624.179 64.9272 631.818 Q64.9272 639.488 59.9619 643.849 Q54.9649 648.178 46.212 648.178 Q37.4273 648.178 32.4621 643.849 Q27.4968 639.488 27.4968 631.818 Z" fill="#000000" fill-rule="nonzero" fill-opacity="1" /><path clip-path="url(#clip530)" d="M32.4621 591.937 Q32.4621 596.647 36.1542 599.384 Q39.8145 602.122 46.212 602.122 Q52.6095 602.122 56.3017 599.416 Q59.9619 596.679 59.9619 591.937 Q59.9619 587.258 56.2698 584.521 Q52.5777 581.783 46.212 581.783 Q39.8781 581.783 36.186 584.521 Q32.4621 587.258 32.4621 591.937 M27.4968 591.937 Q27.4968 584.298 32.4621 579.937 Q37.4273 575.577 46.212 575.577 Q54.9649 575.577 59.9619 579.937 Q64.9272 584.298 64.9272 591.937 Q64.9272 599.607 59.9619 603.968 Q54.9649 608.296 46.212 608.296 Q37.4273 608.296 32.4621 603.968 Q27.4968 599.607 27.4968 591.937 Z" fill="#000000" fill-rule="nonzero" fill-opacity="1" /><path clip-path="url(#clip530)" d="M33.7671 542.411 L14.479 542.411 L14.479 536.555 L64.0042 536.555 L64.0042 542.411 L58.657 542.411 Q61.8398 544.257 63.3994 547.09 Q64.9272 549.891 64.9272 553.838 Q64.9272 560.299 59.771 564.373 Q54.6147 568.415 46.212 568.415 Q37.8093 568.415 32.6531 564.373 Q27.4968 560.299 27.4968 553.838 Q27.4968 549.891 29.0564 547.09 Q30.5842 544.257 33.7671 542.411 M46.212 562.368 Q52.6732 562.368 56.3653 559.726 Q60.0256 557.053 60.0256 552.406 Q60.0256 547.759 56.3653 545.085 Q52.6732 542.411 46.212 542.411 Q39.7508 542.411 36.0905 545.085 Q32.3984 547.759 32.3984 552.406 Q32.3984 557.053 36.0905 559.726 Q39.7508 562.368 46.212 562.368 Z" fill="#000000" fill-rule="nonzero" fill-opacity="1" /><path clip-path="url(#clip530)" d="M780.822 31.2093 L780.822 47.0368 L790.197 47.0368 Q794.913 47.0368 797.17 45.0981 Q799.456 43.1306 799.456 39.1086 Q799.456 35.0577 797.17 33.148 Q794.913 31.2093 790.197 31.2093 L780.822 31.2093 M780.822 13.4432 L780.822 26.464 L789.473 26.464 Q793.756 26.464 795.839 24.8726 Q797.951 23.2522 797.951 19.9536 Q797.951 16.6839 795.839 15.0636 Q793.756 13.4432 789.473 13.4432 L780.822 13.4432 M774.977 8.64 L789.907 8.64 Q796.591 8.64 800.208 11.4178 Q803.825 14.1955 803.825 19.317 Q803.825 23.2811 801.973 25.6249 Q800.122 27.9686 796.534 28.5473 Q800.845 29.4732 803.218 32.4246 Q805.619 35.347 805.619 39.7452 Q805.619 45.5322 801.684 48.6861 Q797.749 51.84 790.486 51.84 L774.977 51.84 L774.977 8.64 Z" fill="#000000" fill-rule="nonzero" fill-opacity="1" /><path clip-path="url(#clip530)" d="M830.127 35.5496 Q823.675 35.5496 821.186 37.0253 Q818.698 38.501 818.698 42.06 Q818.698 44.8956 820.55 46.5738 Q822.43 48.2231 825.642 48.2231 Q830.069 48.2231 832.731 45.0981 Q835.422 41.9442 835.422 36.7359 L835.422 35.5496 L830.127 35.5496 M840.746 33.3505 L840.746 51.84 L835.422 51.84 L835.422 46.921 Q833.599 49.8724 830.879 51.2902 Q828.16 52.6791 824.224 52.6791 Q819.248 52.6791 816.296 49.9014 Q813.374 47.0947 813.374 42.4072 Q813.374 36.9385 817.02 34.1607 Q820.694 31.3829 827.957 31.3829 L835.422 31.3829 L835.422 30.8621 Q835.422 27.1874 832.992 25.1908 Q830.59 23.1654 826.221 23.1654 Q823.443 23.1654 820.81 23.8309 Q818.177 24.4964 815.746 25.8274 L815.746 20.9085 Q818.669 19.78 821.418 19.2302 Q824.167 18.6515 826.771 18.6515 Q833.802 18.6515 837.274 22.2973 Q840.746 25.9431 840.746 33.3505 Z" fill="#000000" fill-rule="nonzero" fill-opacity="1" /><path clip-path="url(#clip530)" d="M851.163 39.0507 L851.163 19.4328 L856.487 19.4328 L856.487 38.8482 Q856.487 43.4488 858.281 45.7636 Q860.075 48.0495 863.663 48.0495 Q867.974 48.0495 870.463 45.3007 Q872.98 42.5519 872.98 37.8065 L872.98 19.4328 L878.304 19.4328 L878.304 51.84 L872.98 51.84 L872.98 46.8632 Q871.041 49.8145 868.466 51.2613 Q865.92 52.6791 862.534 52.6791 Q856.95 52.6791 854.056 49.2069 Q851.163 45.7347 851.163 39.0507 M864.56 18.6515 L864.56 18.6515 Z" fill="#000000" fill-rule="nonzero" fill-opacity="1" /><path clip-path="url(#clip530)" d="M914.502 25.6538 Q916.498 22.0659 919.276 20.3587 Q922.054 18.6515 925.815 18.6515 Q930.879 18.6515 933.628 22.2105 Q936.377 25.7406 936.377 32.2799 L936.377 51.84 L931.024 51.84 L931.024 32.4535 Q931.024 27.795 929.374 25.5381 Q927.725 23.2811 924.34 23.2811 Q920.202 23.2811 917.8 26.03 Q915.399 28.7788 915.399 33.5241 L915.399 51.84 L910.046 51.84 L910.046 32.4535 Q910.046 27.7661 908.396 25.5381 Q906.747 23.2811 903.304 23.2811 Q899.224 23.2811 896.822 26.0589 Q894.421 28.8077 894.421 33.5241 L894.421 51.84 L889.068 51.84 L889.068 19.4328 L894.421 19.4328 L894.421 24.4675 Q896.244 21.4872 898.79 20.0693 Q901.336 18.6515 904.837 18.6515 Q908.368 18.6515 910.827 20.4455 Q913.315 22.2395 914.502 25.6538 Z" fill="#000000" fill-rule="nonzero" fill-opacity="1" /><path clip-path="url(#clip530)" d="M944.305 33.2348 L959.901 33.2348 L959.901 37.9801 L944.305 37.9801 L944.305 33.2348 Z" fill="#000000" fill-rule="nonzero" fill-opacity="1" /><path clip-path="url(#clip530)" d="M962.36 8.64 L968.263 8.64 L977.349 45.156 L986.405 8.64 L992.974 8.64 L1002.06 45.156 L1011.12 8.64 L1017.05 8.64 L1006.2 51.84 L998.847 51.84 L989.733 14.3402 L980.531 51.84 L973.182 51.84 L962.36 8.64 Z" fill="#000000" fill-rule="nonzero" fill-opacity="1" /><path clip-path="url(#clip530)" d="M1048.82 34.3054 L1048.82 36.9095 L1024.34 36.9095 Q1024.69 42.4072 1027.64 45.3007 Q1030.62 48.1653 1035.91 48.1653 Q1038.98 48.1653 1041.84 47.4129 Q1044.74 46.6606 1047.57 45.156 L1047.57 50.1907 Q1044.71 51.406 1041.7 52.0425 Q1038.69 52.6791 1035.59 52.6791 Q1027.84 52.6791 1023.3 48.1653 Q1018.78 43.6514 1018.78 35.9547 Q1018.78 27.9975 1023.07 23.339 Q1027.38 18.6515 1034.67 18.6515 Q1041.21 18.6515 1045 22.876 Q1048.82 27.0716 1048.82 34.3054 M1043.49 32.7429 Q1043.44 28.3737 1041.03 25.7695 Q1038.66 23.1654 1034.73 23.1654 Q1030.27 23.1654 1027.58 25.6827 Q1024.92 28.2001 1024.51 32.7718 L1043.49 32.7429 Z" fill="#000000" fill-rule="nonzero" fill-opacity="1" /><path clip-path="url(#clip530)" d="M1057.56 6.81709 L1062.88 6.81709 L1062.88 51.84 L1057.56 51.84 L1057.56 6.81709 Z" fill="#000000" fill-rule="nonzero" fill-opacity="1" /><path clip-path="url(#clip530)" d="M1097.34 20.677 L1097.34 25.6538 Q1095.09 24.4096 1092.8 23.802 Q1090.54 23.1654 1088.23 23.1654 Q1083.05 23.1654 1080.18 26.464 Q1077.32 29.7336 1077.32 35.6653 Q1077.32 41.597 1080.18 44.8956 Q1083.05 48.1653 1088.23 48.1653 Q1090.54 48.1653 1092.8 47.5576 Q1095.09 46.921 1097.34 45.6768 L1097.34 50.5958 Q1095.11 51.6375 1092.71 52.1583 Q1090.34 52.6791 1087.65 52.6791 Q1080.33 52.6791 1076.02 48.0784 Q1071.71 43.4778 1071.71 35.6653 Q1071.71 27.7371 1076.05 23.1943 Q1080.42 18.6515 1088 18.6515 Q1090.46 18.6515 1092.8 19.1724 Q1095.14 19.6642 1097.34 20.677 Z" fill="#000000" fill-rule="nonzero" fill-opacity="1" /><path clip-path="url(#clip530)" d="M1133.54 32.2799 L1133.54 51.84 L1128.22 51.84 L1128.22 32.4535 Q1128.22 27.8529 1126.42 25.567 Q1124.63 23.2811 1121.04 23.2811 Q1116.73 23.2811 1114.24 26.03 Q1111.75 28.7788 1111.75 33.5241 L1111.75 51.84 L1106.4 51.84 L1106.4 6.81709 L1111.75 6.81709 L1111.75 24.4675 Q1113.66 21.545 1116.24 20.0983 Q1118.84 18.6515 1122.23 18.6515 Q1127.81 18.6515 1130.68 22.1237 Q1133.54 25.567 1133.54 32.2799 Z" fill="#000000" fill-rule="nonzero" fill-opacity="1" /><path clip-path="url(#clip530)" d="M1195.58 11.9675 L1195.58 18.1307 Q1192.63 15.3819 1189.27 14.0219 Q1185.94 12.662 1182.18 12.662 Q1174.77 12.662 1170.84 17.2048 Q1166.9 21.7186 1166.9 30.2834 Q1166.9 38.8192 1170.84 43.362 Q1174.77 47.8759 1182.18 47.8759 Q1185.94 47.8759 1189.27 46.516 Q1192.63 45.156 1195.58 42.4072 L1195.58 48.5125 Q1192.51 50.5958 1189.07 51.6375 Q1185.65 52.6791 1181.83 52.6791 Q1172.02 52.6791 1166.38 46.6896 Q1160.74 40.6711 1160.74 30.2834 Q1160.74 19.8668 1166.38 13.8772 Q1172.02 7.85875 1181.83 7.85875 Q1185.71 7.85875 1189.12 8.90042 Q1192.57 9.91314 1195.58 11.9675 Z" fill="#000000" fill-rule="nonzero" fill-opacity="1" /><path clip-path="url(#clip530)" d="M1216.93 23.1654 Q1212.65 23.1654 1210.16 26.5218 Q1207.67 29.8494 1207.67 35.6653 Q1207.67 41.4813 1210.13 44.8377 Q1212.62 48.1653 1216.93 48.1653 Q1221.18 48.1653 1223.67 44.8088 Q1226.16 41.4523 1226.16 35.6653 Q1226.16 29.9072 1223.67 26.5508 Q1221.18 23.1654 1216.93 23.1654 M1216.93 18.6515 Q1223.88 18.6515 1227.84 23.1654 Q1231.8 27.6792 1231.8 35.6653 Q1231.8 43.6225 1227.84 48.1653 Q1223.88 52.6791 1216.93 52.6791 Q1209.96 52.6791 1205.99 48.1653 Q1202.06 43.6225 1202.06 35.6653 Q1202.06 27.6792 1205.99 23.1654 Q1209.96 18.6515 1216.93 18.6515 Z" fill="#000000" fill-rule="nonzero" fill-opacity="1" /><path clip-path="url(#clip530)" d="M1267.57 32.2799 L1267.57 51.84 L1262.24 51.84 L1262.24 32.4535 Q1262.24 27.8529 1260.45 25.567 Q1258.65 23.2811 1255.07 23.2811 Q1250.76 23.2811 1248.27 26.03 Q1245.78 28.7788 1245.78 33.5241 L1245.78 51.84 L1240.43 51.84 L1240.43 19.4328 L1245.78 19.4328 L1245.78 24.4675 Q1247.69 21.545 1250.26 20.0983 Q1252.87 18.6515 1256.25 18.6515 Q1261.84 18.6515 1264.7 22.1237 Q1267.57 25.567 1267.57 32.2799 Z" fill="#000000" fill-rule="nonzero" fill-opacity="1" /><path clip-path="url(#clip530)" d="M1274.37 19.4328 L1280.01 19.4328 L1290.14 46.6317 L1300.26 19.4328 L1305.91 19.4328 L1293.75 51.84 L1286.52 51.84 L1274.37 19.4328 Z" fill="#000000" fill-rule="nonzero" fill-opacity="1" /><path clip-path="url(#clip530)" d="M1340.98 34.3054 L1340.98 36.9095 L1316.5 36.9095 Q1316.84 42.4072 1319.79 45.3007 Q1322.78 48.1653 1328.07 48.1653 Q1331.14 48.1653 1334 47.4129 Q1336.9 46.6606 1339.73 45.156 L1339.73 50.1907 Q1336.87 51.406 1333.86 52.0425 Q1330.85 52.6791 1327.75 52.6791 Q1320 52.6791 1315.45 48.1653 Q1310.94 43.6514 1310.94 35.9547 Q1310.94 27.9975 1315.22 23.339 Q1319.53 18.6515 1326.83 18.6515 Q1333.37 18.6515 1337.16 22.876 Q1340.98 27.0716 1340.98 34.3054 M1335.65 32.7429 Q1335.59 28.3737 1333.19 25.7695 Q1330.82 23.1654 1326.88 23.1654 Q1322.43 23.1654 1319.74 25.6827 Q1317.07 28.2001 1316.67 32.7718 L1335.65 32.7429 Z" fill="#000000" fill-rule="nonzero" fill-opacity="1" /><path clip-path="url(#clip530)" d="M1368.49 24.4096 Q1367.6 23.8888 1366.52 23.6573 Q1365.48 23.3969 1364.21 23.3969 Q1359.7 23.3969 1357.27 26.3482 Q1354.86 29.2707 1354.86 34.7683 L1354.86 51.84 L1349.51 51.84 L1349.51 19.4328 L1354.86 19.4328 L1354.86 24.4675 Q1356.54 21.5161 1359.23 20.0983 Q1361.92 18.6515 1365.77 18.6515 Q1366.32 18.6515 1366.99 18.7383 Q1367.65 18.7962 1368.46 18.9409 L1368.49 24.4096 Z" fill="#000000" fill-rule="nonzero" fill-opacity="1" /><path clip-path="url(#clip530)" d="M1394.36 35.2602 Q1394.36 29.4732 1391.96 26.2904 Q1389.59 23.1075 1385.27 23.1075 Q1380.99 23.1075 1378.59 26.2904 Q1376.22 29.4732 1376.22 35.2602 Q1376.22 41.0183 1378.59 44.2012 Q1380.99 47.384 1385.27 47.384 Q1389.59 47.384 1391.96 44.2012 Q1394.36 41.0183 1394.36 35.2602 M1399.68 47.818 Q1399.68 56.0934 1396.01 60.1154 Q1392.33 64.1663 1384.75 64.1663 Q1381.95 64.1663 1379.46 63.7323 Q1376.97 63.3272 1374.63 62.4592 L1374.63 57.2798 Q1376.97 58.5529 1379.26 59.1606 Q1381.54 59.7682 1383.91 59.7682 Q1389.15 59.7682 1391.76 57.0194 Q1394.36 54.2995 1394.36 48.7729 L1394.36 46.1398 Q1392.71 49.0044 1390.14 50.4222 Q1387.56 51.84 1383.97 51.84 Q1378.01 51.84 1374.37 47.2972 Q1370.72 42.7544 1370.72 35.2602 Q1370.72 27.7371 1374.37 23.1943 Q1378.01 18.6515 1383.97 18.6515 Q1387.56 18.6515 1390.14 20.0693 Q1392.71 21.4872 1394.36 24.3517 L1394.36 19.4328 L1399.68 19.4328 L1399.68 47.818 Z" fill="#000000" fill-rule="nonzero" fill-opacity="1" /><path clip-path="url(#clip530)" d="M1438.37 34.3054 L1438.37 36.9095 L1413.89 36.9095 Q1414.24 42.4072 1417.19 45.3007 Q1420.17 48.1653 1425.47 48.1653 Q1428.53 48.1653 1431.4 47.4129 Q1434.29 46.6606 1437.13 45.156 L1437.13 50.1907 Q1434.26 51.406 1431.25 52.0425 Q1428.24 52.6791 1425.15 52.6791 Q1417.39 52.6791 1412.85 48.1653 Q1408.34 43.6514 1408.34 35.9547 Q1408.34 27.9975 1412.62 23.339 Q1416.93 18.6515 1424.22 18.6515 Q1430.76 18.6515 1434.55 22.876 Q1438.37 27.0716 1438.37 34.3054 M1433.05 32.7429 Q1432.99 28.3737 1430.59 25.7695 Q1428.21 23.1654 1424.28 23.1654 Q1419.82 23.1654 1417.13 25.6827 Q1414.47 28.2001 1414.07 32.7718 L1433.05 32.7429 Z" fill="#000000" fill-rule="nonzero" fill-opacity="1" /><path clip-path="url(#clip530)" d="M1474.05 32.2799 L1474.05 51.84 L1468.72 51.84 L1468.72 32.4535 Q1468.72 27.8529 1466.93 25.567 Q1465.14 23.2811 1461.55 23.2811 Q1457.24 23.2811 1454.75 26.03 Q1452.26 28.7788 1452.26 33.5241 L1452.26 51.84 L1446.91 51.84 L1446.91 19.4328 L1452.26 19.4328 L1452.26 24.4675 Q1454.17 21.545 1456.74 20.0983 Q1459.35 18.6515 1462.73 18.6515 Q1468.32 18.6515 1471.18 22.1237 Q1474.05 25.567 1474.05 32.2799 Z" fill="#000000" fill-rule="nonzero" fill-opacity="1" /><path clip-path="url(#clip530)" d="M1507.99 20.677 L1507.99 25.6538 Q1505.73 24.4096 1503.45 23.802 Q1501.19 23.1654 1498.87 23.1654 Q1493.69 23.1654 1490.83 26.464 Q1487.97 29.7336 1487.97 35.6653 Q1487.97 41.597 1490.83 44.8956 Q1493.69 48.1653 1498.87 48.1653 Q1501.19 48.1653 1503.45 47.5576 Q1505.73 46.921 1507.99 45.6768 L1507.99 50.5958 Q1505.76 51.6375 1503.36 52.1583 Q1500.99 52.6791 1498.29 52.6791 Q1490.97 52.6791 1486.66 48.0784 Q1482.35 43.4778 1482.35 35.6653 Q1482.35 27.7371 1486.69 23.1943 Q1491.06 18.6515 1498.64 18.6515 Q1501.1 18.6515 1503.45 19.1724 Q1505.79 19.6642 1507.99 20.677 Z" fill="#000000" fill-rule="nonzero" fill-opacity="1" /><path clip-path="url(#clip530)" d="M1544.97 34.3054 L1544.97 36.9095 L1520.49 36.9095 Q1520.84 42.4072 1523.79 45.3007 Q1526.77 48.1653 1532.06 48.1653 Q1535.13 48.1653 1537.99 47.4129 Q1540.89 46.6606 1543.72 45.156 L1543.72 50.1907 Q1540.86 51.406 1537.85 52.0425 Q1534.84 52.6791 1531.74 52.6791 Q1523.99 52.6791 1519.45 48.1653 Q1514.93 43.6514 1514.93 35.9547 Q1514.93 27.9975 1519.21 23.339 Q1523.53 18.6515 1530.82 18.6515 Q1537.36 18.6515 1541.15 22.876 Q1544.97 27.0716 1544.97 34.3054 M1539.64 32.7429 Q1539.59 28.3737 1537.18 25.7695 Q1534.81 23.1654 1530.88 23.1654 Q1526.42 23.1654 1523.73 25.6827 Q1521.07 28.2001 1520.66 32.7718 L1539.64 32.7429 Z" fill="#000000" fill-rule="nonzero" fill-opacity="1" /><path clip-path="url(#clip530)" d="M1585.33 6.87496 Q1581.45 13.53 1579.57 20.0404 Q1577.69 26.5508 1577.69 33.2348 Q1577.69 39.9188 1579.57 46.487 Q1581.48 53.0263 1585.33 59.6525 L1580.7 59.6525 Q1576.36 52.8527 1574.19 46.2845 Q1572.05 39.7162 1572.05 33.2348 Q1572.05 26.7823 1574.19 20.2429 Q1576.33 13.7036 1580.7 6.87496 L1585.33 6.87496 Z" fill="#000000" fill-rule="nonzero" fill-opacity="1" /><path clip-path="url(#clip530)" d="M1621.79 10.0578 L1621.79 15.758 Q1618.46 14.1666 1615.51 13.3853 Q1612.56 12.6041 1609.81 12.6041 Q1605.04 12.6041 1602.43 14.4559 Q1599.86 16.3078 1599.86 19.7221 Q1599.86 22.5867 1601.56 24.0624 Q1603.3 25.5091 1608.1 26.4061 L1611.63 27.1295 Q1618.17 28.3737 1621.27 31.5276 Q1624.39 34.6526 1624.39 39.9188 Q1624.39 46.1977 1620.17 49.4384 Q1615.97 52.6791 1607.84 52.6791 Q1604.78 52.6791 1601.3 51.9847 Q1597.86 51.2902 1594.16 49.9303 L1594.16 43.9118 Q1597.72 45.9083 1601.13 46.921 Q1604.54 47.9338 1607.84 47.9338 Q1612.85 47.9338 1615.57 45.9662 Q1618.29 43.9986 1618.29 40.3528 Q1618.29 37.1699 1616.32 35.376 Q1614.38 33.582 1609.93 32.685 L1606.37 31.9906 Q1599.83 30.6885 1596.91 27.9107 Q1593.98 25.133 1593.98 20.1851 Q1593.98 14.4559 1598.01 11.1573 Q1602.06 7.85875 1609.15 7.85875 Q1612.18 7.85875 1615.34 8.40852 Q1618.49 8.95829 1621.79 10.0578 Z" fill="#000000" fill-rule="nonzero" fill-opacity="1" /><path clip-path="url(#clip530)" d="M1639.35 13.4432 L1639.35 29.6758 L1646.7 29.6758 Q1650.78 29.6758 1653.01 27.5635 Q1655.24 25.4513 1655.24 21.545 Q1655.24 17.6677 1653.01 15.5555 Q1650.78 13.4432 1646.7 13.4432 L1639.35 13.4432 M1633.51 8.64 L1646.7 8.64 Q1653.97 8.64 1657.67 11.9386 Q1661.4 15.2083 1661.4 21.545 Q1661.4 27.9397 1657.67 31.2093 Q1653.97 34.479 1646.7 34.479 L1639.35 34.479 L1639.35 51.84 L1633.51 51.84 L1633.51 8.64 Z" fill="#000000" fill-rule="nonzero" fill-opacity="1" /><path clip-path="url(#clip530)" d="M1662.01 8.64 L1668.29 8.64 L1680.27 26.4061 L1692.16 8.64 L1698.44 8.64 L1683.16 31.2672 L1683.16 51.84 L1677.29 51.84 L1677.29 31.2672 L1662.01 8.64 Z" fill="#000000" fill-rule="nonzero" fill-opacity="1" /><path clip-path="url(#clip530)" d="M1705.27 44.4905 L1711.37 44.4905 L1711.37 49.4673 L1706.63 58.7265 L1702.89 58.7265 L1705.27 49.4673 L1705.27 44.4905 Z" fill="#000000" fill-rule="nonzero" fill-opacity="1" /><path clip-path="url(#clip530)" d="M1741.81 8.64 L1747.66 8.64 L1747.66 26.898 L1767.04 8.64 L1774.57 8.64 L1753.13 28.7788 L1776.1 51.84 L1768.4 51.84 L1747.66 31.0357 L1747.66 51.84 L1741.81 51.84 L1741.81 8.64 Z" fill="#000000" fill-rule="nonzero" fill-opacity="1" /><path clip-path="url(#clip530)" d="M1781.13 24.9304 L1818.23 24.9304 L1818.23 29.7915 L1781.13 29.7915 L1781.13 24.9304 M1781.13 36.7359 L1818.23 36.7359 L1818.23 41.6549 L1781.13 41.6549 L1781.13 36.7359 Z" fill="#000000" fill-rule="nonzero" fill-opacity="1" /><path clip-path="url(#clip530)" d="M1848.55 28.5473 Q1852.75 29.4443 1855.09 32.2799 Q1857.47 35.1156 1857.47 39.2822 Q1857.47 45.6768 1853.07 49.178 Q1848.67 52.6791 1840.57 52.6791 Q1837.85 52.6791 1834.95 52.1294 Q1832.09 51.6085 1829.02 50.5379 L1829.02 44.8956 Q1831.45 46.3134 1834.35 47.0368 Q1837.24 47.7602 1840.39 47.7602 Q1845.89 47.7602 1848.76 45.59 Q1851.65 43.4199 1851.65 39.2822 Q1851.65 35.4628 1848.96 33.3216 Q1846.3 31.1515 1841.52 31.1515 L1836.49 31.1515 L1836.49 26.3482 L1841.75 26.3482 Q1846.07 26.3482 1848.35 24.6411 Q1850.64 22.905 1850.64 19.6642 Q1850.64 16.3367 1848.26 14.5717 Q1845.92 12.7777 1841.52 12.7777 Q1839.12 12.7777 1836.37 13.2985 Q1833.62 13.8194 1830.32 14.9189 L1830.32 9.7106 Q1833.65 8.78468 1836.55 8.32171 Q1839.47 7.85875 1842.04 7.85875 Q1848.7 7.85875 1852.58 10.8969 Q1856.45 13.9062 1856.45 19.0566 Q1856.45 22.6446 1854.4 25.133 Q1852.34 27.5924 1848.55 28.5473 Z" fill="#000000" fill-rule="nonzero" fill-opacity="1" /><path clip-path="url(#clip530)" d="M1866.96 6.87496 L1871.59 6.87496 Q1875.93 13.7036 1878.07 20.2429 Q1880.24 26.7823 1880.24 33.2348 Q1880.24 39.7162 1878.07 46.2845 Q1875.93 52.8527 1871.59 59.6525 L1866.96 59.6525 Q1870.8 53.0263 1872.69 46.487 Q1874.59 39.9188 1874.59 33.2348 Q1874.59 26.5508 1872.69 20.0404 Q1870.8 13.53 1866.96 6.87496 Z" fill="#000000" fill-rule="nonzero" fill-opacity="1" /><polyline clip-path="url(#clip532)" style="stroke:#000080; stroke-linecap:round; stroke-linejoin:round; stroke-width:8; stroke-opacity:1; fill:none" points="360.486,1385.91 393.269,966.334 426.053,813.032 458.837,714.136 491.621,628.687 524.405,554.038 557.188,493.353 589.972,444.341 622.756,403.643 655.54,368.913 688.323,338.897 721.107,312.977 753.891,290.703 786.675,271.55 819.459,254.882 852.242,240.058 885.026,226.532 917.81,213.935 950.594,202.092 983.377,191.007 1016.16,180.824 1048.95,171.784 1081.73,164.151 1114.51,158.107 1147.3,153.647 1180.08,150.542 1212.86,148.439 1245.65,147.007 1278.43,146.013 1311.22,145.311 1344,144.808 1376.78,144.447 1409.57,144.186 1442.35,143.997 1475.13,143.859 1507.92,143.759 1540.7,143.686 1573.49,143.632 1606.27,143.592 1639.05,143.562 1671.84,143.539 1704.62,143.522 1737.4,143.509 1770.19,143.499 1802.97,143.491 1835.76,143.485 1868.54,143.481 1901.32,143.477 1934.11,143.475 1966.89,143.472 1999.67,143.471 2032.46,143.469 2065.24,143.468 2098.03,143.468 2130.81,143.467 2163.59,143.466 2196.38,143.466 2229.16,143.466 2261.94,143.466 2294.73,143.465 "/>
<circle clip-path="url(#clip532)" cx="360.486" cy="1385.91" r="10.8" fill="#000080" fill-rule="evenodd" fill-opacity="1" stroke="#000000" stroke-opacity="1" stroke-width="3.2"/>
<circle clip-path="url(#clip532)" cx="393.269" cy="966.334" r="10.8" fill="#000080" fill-rule="evenodd" fill-opacity="1" stroke="#000000" stroke-opacity="1" stroke-width="3.2"/>
<circle clip-path="url(#clip532)" cx="426.053" cy="813.032" r="10.8" fill="#000080" fill-rule="evenodd" fill-opacity="1" stroke="#000000" stroke-opacity="1" stroke-width="3.2"/>
<circle clip-path="url(#clip532)" cx="458.837" cy="714.136" r="10.8" fill="#000080" fill-rule="evenodd" fill-opacity="1" stroke="#000000" stroke-opacity="1" stroke-width="3.2"/>
<circle clip-path="url(#clip532)" cx="491.621" cy="628.687" r="10.8" fill="#000080" fill-rule="evenodd" fill-opacity="1" stroke="#000000" stroke-opacity="1" stroke-width="3.2"/>
<circle clip-path="url(#clip532)" cx="524.405" cy="554.038" r="10.8" fill="#000080" fill-rule="evenodd" fill-opacity="1" stroke="#000000" stroke-opacity="1" stroke-width="3.2"/>
<circle clip-path="url(#clip532)" cx="557.188" cy="493.353" r="10.8" fill="#000080" fill-rule="evenodd" fill-opacity="1" stroke="#000000" stroke-opacity="1" stroke-width="3.2"/>
<circle clip-path="url(#clip532)" cx="589.972" cy="444.341" r="10.8" fill="#000080" fill-rule="evenodd" fill-opacity="1" stroke="#000000" stroke-opacity="1" stroke-width="3.2"/>
<circle clip-path="url(#clip532)" cx="622.756" cy="403.643" r="10.8" fill="#000080" fill-rule="evenodd" fill-opacity="1" stroke="#000000" stroke-opacity="1" stroke-width="3.2"/>
<circle clip-path="url(#clip532)" cx="655.54" cy="368.913" r="10.8" fill="#000080" fill-rule="evenodd" fill-opacity="1" stroke="#000000" stroke-opacity="1" stroke-width="3.2"/>
<circle clip-path="url(#clip532)" cx="688.323" cy="338.897" r="10.8" fill="#000080" fill-rule="evenodd" fill-opacity="1" stroke="#000000" stroke-opacity="1" stroke-width="3.2"/>
<circle clip-path="url(#clip532)" cx="721.107" cy="312.977" r="10.8" fill="#000080" fill-rule="evenodd" fill-opacity="1" stroke="#000000" stroke-opacity="1" stroke-width="3.2"/>
<circle clip-path="url(#clip532)" cx="753.891" cy="290.703" r="10.8" fill="#000080" fill-rule="evenodd" fill-opacity="1" stroke="#000000" stroke-opacity="1" stroke-width="3.2"/>
<circle clip-path="url(#clip532)" cx="786.675" cy="271.55" r="10.8" fill="#000080" fill-rule="evenodd" fill-opacity="1" stroke="#000000" stroke-opacity="1" stroke-width="3.2"/>
<circle clip-path="url(#clip532)" cx="819.459" cy="254.882" r="10.8" fill="#000080" fill-rule="evenodd" fill-opacity="1" stroke="#000000" stroke-opacity="1" stroke-width="3.2"/>
<circle clip-path="url(#clip532)" cx="852.242" cy="240.058" r="10.8" fill="#000080" fill-rule="evenodd" fill-opacity="1" stroke="#000000" stroke-opacity="1" stroke-width="3.2"/>
<circle clip-path="url(#clip532)" cx="885.026" cy="226.532" r="10.8" fill="#000080" fill-rule="evenodd" fill-opacity="1" stroke="#000000" stroke-opacity="1" stroke-width="3.2"/>
<circle clip-path="url(#clip532)" cx="917.81" cy="213.935" r="10.8" fill="#000080" fill-rule="evenodd" fill-opacity="1" stroke="#000000" stroke-opacity="1" stroke-width="3.2"/>
<circle clip-path="url(#clip532)" cx="950.594" cy="202.092" r="10.8" fill="#000080" fill-rule="evenodd" fill-opacity="1" stroke="#000000" stroke-opacity="1" stroke-width="3.2"/>
<circle clip-path="url(#clip532)" cx="983.377" cy="191.007" r="10.8" fill="#000080" fill-rule="evenodd" fill-opacity="1" stroke="#000000" stroke-opacity="1" stroke-width="3.2"/>
<circle clip-path="url(#clip532)" cx="1016.16" cy="180.824" r="10.8" fill="#000080" fill-rule="evenodd" fill-opacity="1" stroke="#000000" stroke-opacity="1" stroke-width="3.2"/>
<circle clip-path="url(#clip532)" cx="1048.95" cy="171.784" r="10.8" fill="#000080" fill-rule="evenodd" fill-opacity="1" stroke="#000000" stroke-opacity="1" stroke-width="3.2"/>
<circle clip-path="url(#clip532)" cx="1081.73" cy="164.151" r="10.8" fill="#000080" fill-rule="evenodd" fill-opacity="1" stroke="#000000" stroke-opacity="1" stroke-width="3.2"/>
<circle clip-path="url(#clip532)" cx="1114.51" cy="158.107" r="10.8" fill="#000080" fill-rule="evenodd" fill-opacity="1" stroke="#000000" stroke-opacity="1" stroke-width="3.2"/>
<circle clip-path="url(#clip532)" cx="1147.3" cy="153.647" r="10.8" fill="#000080" fill-rule="evenodd" fill-opacity="1" stroke="#000000" stroke-opacity="1" stroke-width="3.2"/>
<circle clip-path="url(#clip532)" cx="1180.08" cy="150.542" r="10.8" fill="#000080" fill-rule="evenodd" fill-opacity="1" stroke="#000000" stroke-opacity="1" stroke-width="3.2"/>
<circle clip-path="url(#clip532)" cx="1212.86" cy="148.439" r="10.8" fill="#000080" fill-rule="evenodd" fill-opacity="1" stroke="#000000" stroke-opacity="1" stroke-width="3.2"/>
<circle clip-path="url(#clip532)" cx="1245.65" cy="147.007" r="10.8" fill="#000080" fill-rule="evenodd" fill-opacity="1" stroke="#000000" stroke-opacity="1" stroke-width="3.2"/>
<circle clip-path="url(#clip532)" cx="1278.43" cy="146.013" r="10.8" fill="#000080" fill-rule="evenodd" fill-opacity="1" stroke="#000000" stroke-opacity="1" stroke-width="3.2"/>
<circle clip-path="url(#clip532)" cx="1311.22" cy="145.311" r="10.8" fill="#000080" fill-rule="evenodd" fill-opacity="1" stroke="#000000" stroke-opacity="1" stroke-width="3.2"/>
<circle clip-path="url(#clip532)" cx="1344" cy="144.808" r="10.8" fill="#000080" fill-rule="evenodd" fill-opacity="1" stroke="#000000" stroke-opacity="1" stroke-width="3.2"/>
<circle clip-path="url(#clip532)" cx="1376.78" cy="144.447" r="10.8" fill="#000080" fill-rule="evenodd" fill-opacity="1" stroke="#000000" stroke-opacity="1" stroke-width="3.2"/>
<circle clip-path="url(#clip532)" cx="1409.57" cy="144.186" r="10.8" fill="#000080" fill-rule="evenodd" fill-opacity="1" stroke="#000000" stroke-opacity="1" stroke-width="3.2"/>
<circle clip-path="url(#clip532)" cx="1442.35" cy="143.997" r="10.8" fill="#000080" fill-rule="evenodd" fill-opacity="1" stroke="#000000" stroke-opacity="1" stroke-width="3.2"/>
<circle clip-path="url(#clip532)" cx="1475.13" cy="143.859" r="10.8" fill="#000080" fill-rule="evenodd" fill-opacity="1" stroke="#000000" stroke-opacity="1" stroke-width="3.2"/>
<circle clip-path="url(#clip532)" cx="1507.92" cy="143.759" r="10.8" fill="#000080" fill-rule="evenodd" fill-opacity="1" stroke="#000000" stroke-opacity="1" stroke-width="3.2"/>
<circle clip-path="url(#clip532)" cx="1540.7" cy="143.686" r="10.8" fill="#000080" fill-rule="evenodd" fill-opacity="1" stroke="#000000" stroke-opacity="1" stroke-width="3.2"/>
<circle clip-path="url(#clip532)" cx="1573.49" cy="143.632" r="10.8" fill="#000080" fill-rule="evenodd" fill-opacity="1" stroke="#000000" stroke-opacity="1" stroke-width="3.2"/>
<circle clip-path="url(#clip532)" cx="1606.27" cy="143.592" r="10.8" fill="#000080" fill-rule="evenodd" fill-opacity="1" stroke="#000000" stroke-opacity="1" stroke-width="3.2"/>
<circle clip-path="url(#clip532)" cx="1639.05" cy="143.562" r="10.8" fill="#000080" fill-rule="evenodd" fill-opacity="1" stroke="#000000" stroke-opacity="1" stroke-width="3.2"/>
<circle clip-path="url(#clip532)" cx="1671.84" cy="143.539" r="10.8" fill="#000080" fill-rule="evenodd" fill-opacity="1" stroke="#000000" stroke-opacity="1" stroke-width="3.2"/>
<circle clip-path="url(#clip532)" cx="1704.62" cy="143.522" r="10.8" fill="#000080" fill-rule="evenodd" fill-opacity="1" stroke="#000000" stroke-opacity="1" stroke-width="3.2"/>
<circle clip-path="url(#clip532)" cx="1737.4" cy="143.509" r="10.8" fill="#000080" fill-rule="evenodd" fill-opacity="1" stroke="#000000" stroke-opacity="1" stroke-width="3.2"/>
<circle clip-path="url(#clip532)" cx="1770.19" cy="143.499" r="10.8" fill="#000080" fill-rule="evenodd" fill-opacity="1" stroke="#000000" stroke-opacity="1" stroke-width="3.2"/>
<circle clip-path="url(#clip532)" cx="1802.97" cy="143.491" r="10.8" fill="#000080" fill-rule="evenodd" fill-opacity="1" stroke="#000000" stroke-opacity="1" stroke-width="3.2"/>
<circle clip-path="url(#clip532)" cx="1835.76" cy="143.485" r="10.8" fill="#000080" fill-rule="evenodd" fill-opacity="1" stroke="#000000" stroke-opacity="1" stroke-width="3.2"/>
<circle clip-path="url(#clip532)" cx="1868.54" cy="143.481" r="10.8" fill="#000080" fill-rule="evenodd" fill-opacity="1" stroke="#000000" stroke-opacity="1" stroke-width="3.2"/>
<circle clip-path="url(#clip532)" cx="1901.32" cy="143.477" r="10.8" fill="#000080" fill-rule="evenodd" fill-opacity="1" stroke="#000000" stroke-opacity="1" stroke-width="3.2"/>
<circle clip-path="url(#clip532)" cx="1934.11" cy="143.475" r="10.8" fill="#000080" fill-rule="evenodd" fill-opacity="1" stroke="#000000" stroke-opacity="1" stroke-width="3.2"/>
<circle clip-path="url(#clip532)" cx="1966.89" cy="143.472" r="10.8" fill="#000080" fill-rule="evenodd" fill-opacity="1" stroke="#000000" stroke-opacity="1" stroke-width="3.2"/>
<circle clip-path="url(#clip532)" cx="1999.67" cy="143.471" r="10.8" fill="#000080" fill-rule="evenodd" fill-opacity="1" stroke="#000000" stroke-opacity="1" stroke-width="3.2"/>
<circle clip-path="url(#clip532)" cx="2032.46" cy="143.469" r="10.8" fill="#000080" fill-rule="evenodd" fill-opacity="1" stroke="#000000" stroke-opacity="1" stroke-width="3.2"/>
<circle clip-path="url(#clip532)" cx="2065.24" cy="143.468" r="10.8" fill="#000080" fill-rule="evenodd" fill-opacity="1" stroke="#000000" stroke-opacity="1" stroke-width="3.2"/>
<circle clip-path="url(#clip532)" cx="2098.03" cy="143.468" r="10.8" fill="#000080" fill-rule="evenodd" fill-opacity="1" stroke="#000000" stroke-opacity="1" stroke-width="3.2"/>
<circle clip-path="url(#clip532)" cx="2130.81" cy="143.467" r="10.8" fill="#000080" fill-rule="evenodd" fill-opacity="1" stroke="#000000" stroke-opacity="1" stroke-width="3.2"/>
<circle clip-path="url(#clip532)" cx="2163.59" cy="143.466" r="10.8" fill="#000080" fill-rule="evenodd" fill-opacity="1" stroke="#000000" stroke-opacity="1" stroke-width="3.2"/>
<circle clip-path="url(#clip532)" cx="2196.38" cy="143.466" r="10.8" fill="#000080" fill-rule="evenodd" fill-opacity="1" stroke="#000000" stroke-opacity="1" stroke-width="3.2"/>
<circle clip-path="url(#clip532)" cx="2229.16" cy="143.466" r="10.8" fill="#000080" fill-rule="evenodd" fill-opacity="1" stroke="#000000" stroke-opacity="1" stroke-width="3.2"/>
<circle clip-path="url(#clip532)" cx="2261.94" cy="143.466" r="10.8" fill="#000080" fill-rule="evenodd" fill-opacity="1" stroke="#000000" stroke-opacity="1" stroke-width="3.2"/>
<circle clip-path="url(#clip532)" cx="2294.73" cy="143.465" r="10.8" fill="#000080" fill-rule="evenodd" fill-opacity="1" stroke="#000000" stroke-opacity="1" stroke-width="3.2"/>
</svg>
