<?xml version="1.0" encoding="utf-8"?>
<svg xmlns="http://www.w3.org/2000/svg" xmlns:xlink="http://www.w3.org/1999/xlink" width="600" height="400" viewBox="0 0 2400 1600">
<defs>
  <clipPath id="clip940">
    <rect x="0" y="0" width="2400" height="1600"/>
  </clipPath>
</defs>
<path clip-path="url(#clip940)" d="M0 1600 L2400 1600 L2400 8.88178e-14 L0 8.88178e-14  Z" fill="#ffffff" fill-rule="evenodd" fill-opacity="1"/>
<defs>
  <clipPath id="clip941">
    <rect x="312" y="0" width="1792" height="1558"/>
  </clipPath>
</defs>
<path clip-path="url(#clip940)" d="M202.227 1423.18 L2352.76 1423.18 L2352.76 106.192 L202.227 106.192  Z" fill="#ffffff" fill-rule="evenodd" fill-opacity="1"/>
<defs>
  <clipPath id="clip942">
    <rect x="202" y="106" width="2152" height="1318"/>
  </clipPath>
</defs>
<polyline clip-path="url(#clip942)" style="stroke:#000000; stroke-linecap:round; stroke-linejoin:round; stroke-width:2; stroke-opacity:0.1; fill:none" points="230.793,1423.18 230.793,106.192 "/>
<polyline clip-path="url(#clip942)" style="stroke:#000000; stroke-linecap:round; stroke-linejoin:round; stroke-width:2; stroke-opacity:0.1; fill:none" points="604.614,1423.18 604.614,106.192 "/>
<polyline clip-path="url(#clip942)" style="stroke:#000000; stroke-linecap:round; stroke-linejoin:round; stroke-width:2; stroke-opacity:0.1; fill:none" points="978.435,1423.18 978.435,106.192 "/>
<polyline clip-path="url(#clip942)" style="stroke:#000000; stroke-linecap:round; stroke-linejoin:round; stroke-width:2; stroke-opacity:0.1; fill:none" points="1352.26,1423.18 1352.26,106.192 "/>
<polyline clip-path="url(#clip942)" style="stroke:#000000; stroke-linecap:round; stroke-linejoin:round; stroke-width:2; stroke-opacity:0.1; fill:none" points="1726.08,1423.18 1726.08,106.192 "/>
<polyline clip-path="url(#clip942)" style="stroke:#000000; stroke-linecap:round; stroke-linejoin:round; stroke-width:2; stroke-opacity:0.1; fill:none" points="2099.9,1423.18 2099.9,106.192 "/>
<polyline clip-path="url(#clip942)" style="stroke:#000000; stroke-linecap:round; stroke-linejoin:round; stroke-width:2; stroke-opacity:0.1; fill:none" points="202.227,1423.18 2352.76,1423.18 "/>
<polyline clip-path="url(#clip942)" style="stroke:#000000; stroke-linecap:round; stroke-linejoin:round; stroke-width:2; stroke-opacity:0.1; fill:none" points="202.227,1050.58 2352.76,1050.58 "/>
<polyline clip-path="url(#clip942)" style="stroke:#000000; stroke-linecap:round; stroke-linejoin:round; stroke-width:2; stroke-opacity:0.1; fill:none" points="202.227,677.977 2352.76,677.977 "/>
<polyline clip-path="url(#clip942)" style="stroke:#000000; stroke-linecap:round; stroke-linejoin:round; stroke-width:2; stroke-opacity:0.1; fill:none" points="202.227,305.376 2352.76,305.376 "/>
<polyline clip-path="url(#clip940)" style="stroke:#000000; stroke-linecap:round; stroke-linejoin:round; stroke-width:4; stroke-opacity:1; fill:none" points="202.227,1423.18 2352.76,1423.18 "/>
<polyline clip-path="url(#clip940)" style="stroke:#000000; stroke-linecap:round; stroke-linejoin:round; stroke-width:4; stroke-opacity:1; fill:none" points="230.793,1423.18 230.793,1404.28 "/>
<polyline clip-path="url(#clip940)" style="stroke:#000000; stroke-linecap:round; stroke-linejoin:round; stroke-width:4; stroke-opacity:1; fill:none" points="604.614,1423.18 604.614,1404.28 "/>
<polyline clip-path="url(#clip940)" style="stroke:#000000; stroke-linecap:round; stroke-linejoin:round; stroke-width:4; stroke-opacity:1; fill:none" points="978.435,1423.18 978.435,1404.28 "/>
<polyline clip-path="url(#clip940)" style="stroke:#000000; stroke-linecap:round; stroke-linejoin:round; stroke-width:4; stroke-opacity:1; fill:none" points="1352.26,1423.18 1352.26,1404.28 "/>
<polyline clip-path="url(#clip940)" style="stroke:#000000; stroke-linecap:round; stroke-linejoin:round; stroke-width:4; stroke-opacity:1; fill:none" points="1726.08,1423.18 1726.08,1404.28 "/>
<polyline clip-path="url(#clip940)" style="stroke:#000000; stroke-linecap:round; stroke-linejoin:round; stroke-width:4; stroke-opacity:1; fill:none" points="2099.9,1423.18 2099.9,1404.28 "/>
<path clip-path="url(#clip940)" d="M208.178 1454.1 Q204.567 1454.1 202.738 1457.66 Q200.932 1461.2 200.932 1468.33 Q200.932 1475.44 202.738 1479.01 Q204.567 1482.55 208.178 1482.55 Q211.812 1482.55 213.618 1479.01 Q215.446 1475.44 215.446 1468.33 Q215.446 1461.2 213.618 1457.66 Q211.812 1454.1 208.178 1454.1 M208.178 1450.39 Q213.988 1450.39 217.043 1455 Q220.122 1459.58 220.122 1468.33 Q220.122 1477.06 217.043 1481.67 Q213.988 1486.25 208.178 1486.25 Q202.368 1486.25 199.289 1481.67 Q196.233 1477.06 196.233 1468.33 Q196.233 1459.58 199.289 1455 Q202.368 1450.39 208.178 1450.39 Z" fill="#000000" fill-rule="nonzero" fill-opacity="1" /><path clip-path="url(#clip940)" d="M228.34 1479.7 L233.224 1479.7 L233.224 1485.58 L228.34 1485.58 L228.34 1479.7 Z" fill="#000000" fill-rule="nonzero" fill-opacity="1" /><path clip-path="url(#clip940)" d="M253.409 1454.1 Q249.798 1454.1 247.969 1457.66 Q246.164 1461.2 246.164 1468.33 Q246.164 1475.44 247.969 1479.01 Q249.798 1482.55 253.409 1482.55 Q257.043 1482.55 258.849 1479.01 Q260.677 1475.44 260.677 1468.33 Q260.677 1461.2 258.849 1457.66 Q257.043 1454.1 253.409 1454.1 M253.409 1450.39 Q259.219 1450.39 262.275 1455 Q265.353 1459.58 265.353 1468.33 Q265.353 1477.06 262.275 1481.67 Q259.219 1486.25 253.409 1486.25 Q247.599 1486.25 244.52 1481.67 Q241.465 1477.06 241.465 1468.33 Q241.465 1459.58 244.52 1455 Q247.599 1450.39 253.409 1450.39 Z" fill="#000000" fill-rule="nonzero" fill-opacity="1" /><path clip-path="url(#clip940)" d="M576.35 1481.64 L592.67 1481.64 L592.67 1485.58 L570.725 1485.58 L570.725 1481.64 Q573.388 1478.89 577.971 1474.26 Q582.577 1469.61 583.758 1468.27 Q586.003 1465.74 586.883 1464.01 Q587.786 1462.25 587.786 1460.56 Q587.786 1457.8 585.841 1456.07 Q583.92 1454.33 580.818 1454.33 Q578.619 1454.33 576.165 1455.09 Q573.735 1455.86 570.957 1457.41 L570.957 1452.69 Q573.781 1451.55 576.235 1450.97 Q578.688 1450.39 580.725 1450.39 Q586.096 1450.39 589.29 1453.08 Q592.485 1455.77 592.485 1460.26 Q592.485 1462.39 591.674 1464.31 Q590.887 1466.2 588.781 1468.8 Q588.202 1469.47 585.1 1472.69 Q581.999 1475.88 576.35 1481.64 Z" fill="#000000" fill-rule="nonzero" fill-opacity="1" /><path clip-path="url(#clip940)" d="M602.485 1479.7 L607.369 1479.7 L607.369 1485.58 L602.485 1485.58 L602.485 1479.7 Z" fill="#000000" fill-rule="nonzero" fill-opacity="1" /><path clip-path="url(#clip940)" d="M617.6 1451.02 L635.957 1451.02 L635.957 1454.96 L621.883 1454.96 L621.883 1463.43 Q622.901 1463.08 623.92 1462.92 Q624.938 1462.73 625.957 1462.73 Q631.744 1462.73 635.123 1465.9 Q638.503 1469.08 638.503 1474.49 Q638.503 1480.07 635.031 1483.17 Q631.558 1486.25 625.239 1486.25 Q623.063 1486.25 620.795 1485.88 Q618.549 1485.51 616.142 1484.77 L616.142 1480.07 Q618.225 1481.2 620.447 1481.76 Q622.67 1482.32 625.146 1482.32 Q629.151 1482.32 631.489 1480.21 Q633.827 1478.1 633.827 1474.49 Q633.827 1470.88 631.489 1468.77 Q629.151 1466.67 625.146 1466.67 Q623.272 1466.67 621.397 1467.08 Q619.545 1467.5 617.6 1468.38 L617.6 1451.02 Z" fill="#000000" fill-rule="nonzero" fill-opacity="1" /><path clip-path="url(#clip940)" d="M945.6 1451.02 L963.956 1451.02 L963.956 1454.96 L949.882 1454.96 L949.882 1463.43 Q950.9 1463.08 951.919 1462.92 Q952.937 1462.73 953.956 1462.73 Q959.743 1462.73 963.123 1465.9 Q966.502 1469.08 966.502 1474.49 Q966.502 1480.07 963.03 1483.17 Q959.558 1486.25 953.238 1486.25 Q951.062 1486.25 948.794 1485.88 Q946.549 1485.51 944.141 1484.77 L944.141 1480.07 Q946.225 1481.2 948.447 1481.76 Q950.669 1482.32 953.146 1482.32 Q957.15 1482.32 959.488 1480.21 Q961.826 1478.1 961.826 1474.49 Q961.826 1470.88 959.488 1468.77 Q957.15 1466.67 953.146 1466.67 Q951.271 1466.67 949.396 1467.08 Q947.544 1467.5 945.6 1468.38 L945.6 1451.02 Z" fill="#000000" fill-rule="nonzero" fill-opacity="1" /><path clip-path="url(#clip940)" d="M975.715 1479.7 L980.599 1479.7 L980.599 1485.58 L975.715 1485.58 L975.715 1479.7 Z" fill="#000000" fill-rule="nonzero" fill-opacity="1" /><path clip-path="url(#clip940)" d="M1000.78 1454.1 Q997.173 1454.1 995.345 1457.66 Q993.539 1461.2 993.539 1468.33 Q993.539 1475.44 995.345 1479.01 Q997.173 1482.55 1000.78 1482.55 Q1004.42 1482.55 1006.22 1479.01 Q1008.05 1475.44 1008.05 1468.33 Q1008.05 1461.2 1006.22 1457.66 Q1004.42 1454.1 1000.78 1454.1 M1000.78 1450.39 Q1006.59 1450.39 1009.65 1455 Q1012.73 1459.58 1012.73 1468.33 Q1012.73 1477.06 1009.65 1481.67 Q1006.59 1486.25 1000.78 1486.25 Q994.974 1486.25 991.896 1481.67 Q988.84 1477.06 988.84 1468.33 Q988.84 1459.58 991.896 1455 Q994.974 1450.39 1000.78 1450.39 Z" fill="#000000" fill-rule="nonzero" fill-opacity="1" /><path clip-path="url(#clip940)" d="M1318.58 1451.02 L1340.8 1451.02 L1340.8 1453.01 L1328.25 1485.58 L1323.37 1485.58 L1335.17 1454.96 L1318.58 1454.96 L1318.58 1451.02 Z" fill="#000000" fill-rule="nonzero" fill-opacity="1" /><path clip-path="url(#clip940)" d="M1349.92 1479.7 L1354.8 1479.7 L1354.8 1485.58 L1349.92 1485.58 L1349.92 1479.7 Z" fill="#000000" fill-rule="nonzero" fill-opacity="1" /><path clip-path="url(#clip940)" d="M1365.03 1451.02 L1383.39 1451.02 L1383.39 1454.96 L1369.32 1454.96 L1369.32 1463.43 Q1370.33 1463.08 1371.35 1462.92 Q1372.37 1462.73 1373.39 1462.73 Q1379.18 1462.73 1382.56 1465.9 Q1385.94 1469.08 1385.94 1474.49 Q1385.94 1480.07 1382.46 1483.17 Q1378.99 1486.25 1372.67 1486.25 Q1370.5 1486.25 1368.23 1485.88 Q1365.98 1485.51 1363.58 1484.77 L1363.58 1480.07 Q1365.66 1481.2 1367.88 1481.76 Q1370.1 1482.32 1372.58 1482.32 Q1376.58 1482.32 1378.92 1480.21 Q1381.26 1478.1 1381.26 1474.49 Q1381.26 1470.88 1378.92 1468.77 Q1376.58 1466.67 1372.58 1466.67 Q1370.7 1466.67 1368.83 1467.08 Q1366.98 1467.5 1365.03 1468.38 L1365.03 1451.02 Z" fill="#000000" fill-rule="nonzero" fill-opacity="1" /><path clip-path="url(#clip940)" d="M1678.15 1481.64 L1685.79 1481.64 L1685.79 1455.28 L1677.48 1456.95 L1677.48 1452.69 L1685.74 1451.02 L1690.42 1451.02 L1690.42 1481.64 L1698.06 1481.64 L1698.06 1485.58 L1678.15 1485.58 L1678.15 1481.64 Z" fill="#000000" fill-rule="nonzero" fill-opacity="1" /><path clip-path="url(#clip940)" d="M1717.5 1454.1 Q1713.89 1454.1 1712.06 1457.66 Q1710.26 1461.2 1710.26 1468.33 Q1710.26 1475.44 1712.06 1479.01 Q1713.89 1482.55 1717.5 1482.55 Q1721.13 1482.55 1722.94 1479.01 Q1724.77 1475.44 1724.77 1468.33 Q1724.77 1461.2 1722.94 1457.66 Q1721.13 1454.1 1717.5 1454.1 M1717.5 1450.39 Q1723.31 1450.39 1726.37 1455 Q1729.44 1459.58 1729.44 1468.33 Q1729.44 1477.06 1726.37 1481.67 Q1723.31 1486.25 1717.5 1486.25 Q1711.69 1486.25 1708.61 1481.67 Q1705.56 1477.06 1705.56 1468.33 Q1705.56 1459.58 1708.61 1455 Q1711.69 1450.39 1717.5 1450.39 Z" fill="#000000" fill-rule="nonzero" fill-opacity="1" /><path clip-path="url(#clip940)" d="M1737.66 1479.7 L1742.55 1479.7 L1742.55 1485.58 L1737.66 1485.58 L1737.66 1479.7 Z" fill="#000000" fill-rule="nonzero" fill-opacity="1" /><path clip-path="url(#clip940)" d="M1762.73 1454.1 Q1759.12 1454.1 1757.29 1457.66 Q1755.49 1461.2 1755.49 1468.33 Q1755.49 1475.44 1757.29 1479.01 Q1759.12 1482.55 1762.73 1482.55 Q1766.37 1482.55 1768.17 1479.01 Q1770 1475.44 1770 1468.33 Q1770 1461.2 1768.17 1457.66 Q1766.37 1454.1 1762.73 1454.1 M1762.73 1450.39 Q1768.54 1450.39 1771.6 1455 Q1774.68 1459.58 1774.68 1468.33 Q1774.68 1477.06 1771.6 1481.67 Q1768.54 1486.25 1762.73 1486.25 Q1756.92 1486.25 1753.84 1481.67 Q1750.79 1477.06 1750.79 1468.33 Q1750.79 1459.58 1753.84 1455 Q1756.92 1450.39 1762.73 1450.39 Z" fill="#000000" fill-rule="nonzero" fill-opacity="1" /><path clip-path="url(#clip940)" d="M2052.47 1481.64 L2060.11 1481.64 L2060.11 1455.28 L2051.8 1456.95 L2051.8 1452.69 L2060.06 1451.02 L2064.74 1451.02 L2064.74 1481.64 L2072.37 1481.64 L2072.37 1485.58 L2052.47 1485.58 L2052.47 1481.64 Z" fill="#000000" fill-rule="nonzero" fill-opacity="1" /><path clip-path="url(#clip940)" d="M2085.85 1481.64 L2102.17 1481.64 L2102.17 1485.58 L2080.22 1485.58 L2080.22 1481.64 Q2082.88 1478.89 2087.47 1474.26 Q2092.07 1469.61 2093.25 1468.27 Q2095.5 1465.74 2096.38 1464.01 Q2097.28 1462.25 2097.28 1460.56 Q2097.28 1457.8 2095.34 1456.07 Q2093.42 1454.33 2090.31 1454.33 Q2088.12 1454.33 2085.66 1455.09 Q2083.23 1455.86 2080.45 1457.41 L2080.45 1452.69 Q2083.28 1451.55 2085.73 1450.97 Q2088.18 1450.39 2090.22 1450.39 Q2095.59 1450.39 2098.79 1453.08 Q2101.98 1455.77 2101.98 1460.26 Q2101.98 1462.39 2101.17 1464.31 Q2100.38 1466.2 2098.28 1468.8 Q2097.7 1469.47 2094.6 1472.69 Q2091.49 1475.88 2085.85 1481.64 Z" fill="#000000" fill-rule="nonzero" fill-opacity="1" /><path clip-path="url(#clip940)" d="M2111.98 1479.7 L2116.87 1479.7 L2116.87 1485.58 L2111.98 1485.58 L2111.98 1479.7 Z" fill="#000000" fill-rule="nonzero" fill-opacity="1" /><path clip-path="url(#clip940)" d="M2127.1 1451.02 L2145.45 1451.02 L2145.45 1454.96 L2131.38 1454.96 L2131.38 1463.43 Q2132.4 1463.08 2133.42 1462.92 Q2134.43 1462.73 2135.45 1462.73 Q2141.24 1462.73 2144.62 1465.9 Q2148 1469.08 2148 1474.49 Q2148 1480.07 2144.53 1483.17 Q2141.05 1486.25 2134.74 1486.25 Q2132.56 1486.25 2130.29 1485.88 Q2128.05 1485.51 2125.64 1484.77 L2125.64 1480.07 Q2127.72 1481.2 2129.94 1481.76 Q2132.17 1482.32 2134.64 1482.32 Q2138.65 1482.32 2140.99 1480.21 Q2143.32 1478.1 2143.32 1474.49 Q2143.32 1470.88 2140.99 1468.77 Q2138.65 1466.67 2134.64 1466.67 Q2132.77 1466.67 2130.89 1467.08 Q2129.04 1467.5 2127.1 1468.38 L2127.1 1451.02 Z" fill="#000000" fill-rule="nonzero" fill-opacity="1" /><path clip-path="url(#clip940)" d="M1225.69 1522.08 L1225.69 1528.35 Q1222.03 1526.6 1218.78 1525.74 Q1215.54 1524.88 1212.51 1524.88 Q1207.26 1524.88 1204.4 1526.92 Q1201.56 1528.96 1201.56 1532.71 Q1201.56 1535.87 1203.44 1537.49 Q1205.35 1539.08 1210.64 1540.07 L1214.52 1540.86 Q1221.71 1542.23 1225.12 1545.7 Q1228.56 1549.14 1228.56 1554.93 Q1228.56 1561.84 1223.91 1565.4 Q1219.29 1568.97 1210.35 1568.97 Q1206.98 1568.97 1203.16 1568.2 Q1199.37 1567.44 1195.29 1565.94 L1195.29 1559.32 Q1199.21 1561.52 1202.97 1562.63 Q1206.72 1563.75 1210.35 1563.75 Q1215.86 1563.75 1218.85 1561.58 Q1221.84 1559.42 1221.84 1555.41 Q1221.84 1551.91 1219.68 1549.93 Q1217.54 1547.96 1212.64 1546.97 L1208.73 1546.21 Q1201.53 1544.78 1198.32 1541.72 Q1195.1 1538.67 1195.1 1533.22 Q1195.1 1526.92 1199.53 1523.29 Q1203.98 1519.66 1211.78 1519.66 Q1215.12 1519.66 1218.59 1520.27 Q1222.06 1520.87 1225.69 1522.08 Z" fill="#000000" fill-rule="nonzero" fill-opacity="1" /><path clip-path="url(#clip940)" d="M1244.12 1522.27 L1244.12 1532.4 L1256.18 1532.4 L1256.18 1536.95 L1244.12 1536.95 L1244.12 1556.3 Q1244.12 1560.66 1245.3 1561.9 Q1246.51 1563.14 1250.17 1563.14 L1256.18 1563.14 L1256.18 1568.04 L1250.17 1568.04 Q1243.39 1568.04 1240.81 1565.53 Q1238.23 1562.98 1238.23 1556.3 L1238.23 1536.95 L1233.93 1536.95 L1233.93 1532.4 L1238.23 1532.4 L1238.23 1522.27 L1244.12 1522.27 Z" fill="#000000" fill-rule="nonzero" fill-opacity="1" /><path clip-path="url(#clip940)" d="M1280.09 1550.12 Q1272.99 1550.12 1270.25 1551.75 Q1267.51 1553.37 1267.51 1557.29 Q1267.51 1560.4 1269.55 1562.25 Q1271.62 1564.07 1275.15 1564.07 Q1280.02 1564.07 1282.95 1560.63 Q1285.91 1557.16 1285.91 1551.43 L1285.91 1550.12 L1280.09 1550.12 M1291.77 1547.71 L1291.77 1568.04 L1285.91 1568.04 L1285.91 1562.63 Q1283.91 1565.88 1280.91 1567.44 Q1277.92 1568.97 1273.59 1568.97 Q1268.12 1568.97 1264.87 1565.91 Q1261.66 1562.82 1261.66 1557.67 Q1261.66 1551.65 1265.67 1548.6 Q1269.71 1545.54 1277.7 1545.54 L1285.91 1545.54 L1285.91 1544.97 Q1285.91 1540.93 1283.24 1538.73 Q1280.59 1536.5 1275.79 1536.5 Q1272.73 1536.5 1269.84 1537.23 Q1266.94 1537.97 1264.27 1539.43 L1264.27 1534.02 Q1267.48 1532.78 1270.51 1532.17 Q1273.53 1531.54 1276.39 1531.54 Q1284.13 1531.54 1287.95 1535.55 Q1291.77 1539.56 1291.77 1547.71 Z" fill="#000000" fill-rule="nonzero" fill-opacity="1" /><path clip-path="url(#clip940)" d="M1309.62 1522.27 L1309.62 1532.4 L1321.69 1532.4 L1321.69 1536.95 L1309.62 1536.95 L1309.62 1556.3 Q1309.62 1560.66 1310.8 1561.9 Q1312.01 1563.14 1315.67 1563.14 L1321.69 1563.14 L1321.69 1568.04 L1315.67 1568.04 Q1308.89 1568.04 1306.31 1565.53 Q1303.73 1562.98 1303.73 1556.3 L1303.73 1536.95 L1299.44 1536.95 L1299.44 1532.4 L1303.73 1532.4 L1303.73 1522.27 L1309.62 1522.27 Z" fill="#000000" fill-rule="nonzero" fill-opacity="1" /><path clip-path="url(#clip940)" d="M1359.88 1548.76 L1359.88 1551.62 L1332.95 1551.62 Q1333.33 1557.67 1336.58 1560.85 Q1339.86 1564 1345.68 1564 Q1349.06 1564 1352.21 1563.17 Q1355.39 1562.35 1358.51 1560.69 L1358.51 1566.23 Q1355.36 1567.57 1352.05 1568.27 Q1348.74 1568.97 1345.33 1568.97 Q1336.8 1568.97 1331.81 1564 Q1326.84 1559.04 1326.84 1550.57 Q1326.84 1541.82 1331.55 1536.69 Q1336.29 1531.54 1344.32 1531.54 Q1351.51 1531.54 1355.68 1536.18 Q1359.88 1540.8 1359.88 1548.76 M1354.02 1547.04 Q1353.96 1542.23 1351.32 1539.37 Q1348.71 1536.5 1344.38 1536.5 Q1339.48 1536.5 1336.52 1539.27 Q1333.59 1542.04 1333.14 1547.07 L1354.02 1547.04 Z" fill="#000000" fill-rule="nonzero" fill-opacity="1" /><polyline clip-path="url(#clip940)" style="stroke:#000000; stroke-linecap:round; stroke-linejoin:round; stroke-width:4; stroke-opacity:1; fill:none" points="202.227,1423.18 202.227,106.192 "/>
<polyline clip-path="url(#clip940)" style="stroke:#000000; stroke-linecap:round; stroke-linejoin:round; stroke-width:4; stroke-opacity:1; fill:none" points="202.227,1423.18 221.125,1423.18 "/>
<polyline clip-path="url(#clip940)" style="stroke:#000000; stroke-linecap:round; stroke-linejoin:round; stroke-width:4; stroke-opacity:1; fill:none" points="202.227,1050.58 221.125,1050.58 "/>
<polyline clip-path="url(#clip940)" style="stroke:#000000; stroke-linecap:round; stroke-linejoin:round; stroke-width:4; stroke-opacity:1; fill:none" points="202.227,677.977 221.125,677.977 "/>
<polyline clip-path="url(#clip940)" style="stroke:#000000; stroke-linecap:round; stroke-linejoin:round; stroke-width:4; stroke-opacity:1; fill:none" points="202.227,305.376 221.125,305.376 "/>
<path clip-path="url(#clip940)" d="M154.283 1408.98 Q150.672 1408.98 148.843 1412.54 Q147.038 1416.08 147.038 1423.21 Q147.038 1430.32 148.843 1433.89 Q150.672 1437.43 154.283 1437.43 Q157.917 1437.43 159.723 1433.89 Q161.552 1430.32 161.552 1423.21 Q161.552 1416.08 159.723 1412.54 Q157.917 1408.98 154.283 1408.98 M154.283 1405.27 Q160.093 1405.27 163.149 1409.88 Q166.227 1414.46 166.227 1423.21 Q166.227 1431.94 163.149 1436.55 Q160.093 1441.13 154.283 1441.13 Q148.473 1441.13 145.394 1436.55 Q142.339 1431.94 142.339 1423.21 Q142.339 1414.46 145.394 1409.88 Q148.473 1405.27 154.283 1405.27 Z" fill="#000000" fill-rule="nonzero" fill-opacity="1" /><path clip-path="url(#clip940)" d="M145.325 1033.3 L163.681 1033.3 L163.681 1037.23 L149.607 1037.23 L149.607 1045.71 Q150.626 1045.36 151.644 1045.2 Q152.663 1045.01 153.681 1045.01 Q159.468 1045.01 162.848 1048.18 Q166.227 1051.35 166.227 1056.77 Q166.227 1062.35 162.755 1065.45 Q159.283 1068.53 152.964 1068.53 Q150.788 1068.53 148.519 1068.16 Q146.274 1067.79 143.866 1067.05 L143.866 1062.35 Q145.95 1063.48 148.172 1064.04 Q150.394 1064.59 152.871 1064.59 Q156.876 1064.59 159.214 1062.49 Q161.552 1060.38 161.552 1056.77 Q161.552 1053.16 159.214 1051.05 Q156.876 1048.95 152.871 1048.95 Q150.996 1048.95 149.121 1049.36 Q147.269 1049.78 145.325 1050.66 L145.325 1033.3 Z" fill="#000000" fill-rule="nonzero" fill-opacity="1" /><path clip-path="url(#clip940)" d="M114.931 691.322 L122.57 691.322 L122.57 664.956 L114.26 666.623 L114.26 662.364 L122.524 660.697 L127.2 660.697 L127.2 691.322 L134.839 691.322 L134.839 695.257 L114.931 695.257 L114.931 691.322 Z" fill="#000000" fill-rule="nonzero" fill-opacity="1" /><path clip-path="url(#clip940)" d="M154.283 663.776 Q150.672 663.776 148.843 667.341 Q147.038 670.882 147.038 678.012 Q147.038 685.118 148.843 688.683 Q150.672 692.225 154.283 692.225 Q157.917 692.225 159.723 688.683 Q161.552 685.118 161.552 678.012 Q161.552 670.882 159.723 667.341 Q157.917 663.776 154.283 663.776 M154.283 660.072 Q160.093 660.072 163.149 664.679 Q166.227 669.262 166.227 678.012 Q166.227 686.739 163.149 691.345 Q160.093 695.928 154.283 695.928 Q148.473 695.928 145.394 691.345 Q142.339 686.739 142.339 678.012 Q142.339 669.262 145.394 664.679 Q148.473 660.072 154.283 660.072 Z" fill="#000000" fill-rule="nonzero" fill-opacity="1" /><path clip-path="url(#clip940)" d="M115.927 318.721 L123.566 318.721 L123.566 292.355 L115.256 294.022 L115.256 289.762 L123.519 288.096 L128.195 288.096 L128.195 318.721 L135.834 318.721 L135.834 322.656 L115.927 322.656 L115.927 318.721 Z" fill="#000000" fill-rule="nonzero" fill-opacity="1" /><path clip-path="url(#clip940)" d="M145.325 288.096 L163.681 288.096 L163.681 292.031 L149.607 292.031 L149.607 300.503 Q150.626 300.156 151.644 299.994 Q152.663 299.809 153.681 299.809 Q159.468 299.809 162.848 302.98 Q166.227 306.151 166.227 311.568 Q166.227 317.147 162.755 320.248 Q159.283 323.327 152.964 323.327 Q150.788 323.327 148.519 322.957 Q146.274 322.586 143.866 321.846 L143.866 317.147 Q145.95 318.281 148.172 318.836 Q150.394 319.392 152.871 319.392 Q156.876 319.392 159.214 317.285 Q161.552 315.179 161.552 311.568 Q161.552 307.957 159.214 305.85 Q156.876 303.744 152.871 303.744 Q150.996 303.744 149.121 304.161 Q147.269 304.577 145.325 305.457 L145.325 288.096 Z" fill="#000000" fill-rule="nonzero" fill-opacity="1" /><path clip-path="url(#clip940)" d="M18.0438 821.548 L24.314 821.548 Q22.5634 825.208 21.704 828.454 Q20.8447 831.701 20.8447 834.725 Q20.8447 839.976 22.8817 842.841 Q24.9187 845.674 28.6745 845.674 Q31.8255 845.674 33.4488 843.796 Q35.0402 841.886 36.0269 836.603 L36.8226 832.719 Q38.1912 825.526 41.6605 822.121 Q45.098 818.683 50.8908 818.683 Q57.7976 818.683 61.3624 823.33 Q64.9272 827.945 64.9272 836.889 Q64.9272 840.263 64.1633 844.082 Q63.3994 847.87 61.9035 851.944 L55.2831 851.944 Q57.4793 848.029 58.5933 844.273 Q59.7073 840.517 59.7073 836.889 Q59.7073 831.383 57.543 828.391 Q55.3786 825.399 51.3682 825.399 Q47.8671 825.399 45.8937 827.563 Q43.9204 829.696 42.9337 834.597 L42.1698 838.512 Q40.7375 845.706 37.682 848.92 Q34.6264 852.135 29.1837 852.135 Q22.8817 852.135 19.2532 847.711 Q15.6248 843.255 15.6248 835.457 Q15.6248 832.115 16.2295 828.645 Q16.8343 825.176 18.0438 821.548 Z" fill="#000000" fill-rule="nonzero" fill-opacity="1" /><path clip-path="url(#clip940)" d="M18.2347 803.119 L28.3562 803.119 L28.3562 791.056 L32.9077 791.056 L32.9077 803.119 L52.2594 803.119 Q56.6199 803.119 57.8613 801.941 Q59.1026 800.732 59.1026 797.072 L59.1026 791.056 L64.0042 791.056 L64.0042 797.072 Q64.0042 803.851 61.4897 806.429 Q58.9434 809.007 52.2594 809.007 L32.9077 809.007 L32.9077 813.304 L28.3562 813.304 L28.3562 809.007 L18.2347 809.007 L18.2347 803.119 Z" fill="#000000" fill-rule="nonzero" fill-opacity="1" /><path clip-path="url(#clip940)" d="M44.7161 752.862 L47.5806 752.862 L47.5806 779.789 Q53.6281 779.407 56.8109 776.16 Q59.9619 772.882 59.9619 767.057 Q59.9619 763.683 59.1344 760.532 Q58.3069 757.35 56.6518 754.23 L62.1899 754.23 Q63.5267 757.381 64.227 760.692 Q64.9272 764.002 64.9272 767.407 Q64.9272 775.937 59.9619 780.934 Q54.9967 785.9 46.5303 785.9 Q37.7774 785.9 32.6531 781.189 Q27.4968 776.447 27.4968 768.426 Q27.4968 761.233 32.1438 757.063 Q36.7589 752.862 44.7161 752.862 M42.9973 758.718 Q38.1912 758.782 35.3266 761.424 Q32.4621 764.033 32.4621 768.362 Q32.4621 773.264 35.2312 776.224 Q38.0002 779.152 43.0292 779.598 L42.9973 758.718 Z" fill="#000000" fill-rule="nonzero" fill-opacity="1" /><path clip-path="url(#clip940)" d="M58.657 737.584 L77.5631 737.584 L77.5631 743.472 L28.3562 743.472 L28.3562 737.584 L33.7671 737.584 Q30.5842 735.738 29.0564 732.937 Q27.4968 730.104 27.4968 726.189 Q27.4968 719.696 32.6531 715.654 Q37.8093 711.58 46.212 711.58 Q54.6147 711.58 59.771 715.654 Q64.9272 719.696 64.9272 726.189 Q64.9272 730.104 63.3994 732.937 Q61.8398 735.738 58.657 737.584 M46.212 717.659 Q39.7508 717.659 36.0905 720.333 Q32.3984 722.975 32.3984 727.622 Q32.3984 732.269 36.0905 734.942 Q39.7508 737.584 46.212 737.584 Q52.6732 737.584 56.3653 734.942 Q60.0256 732.269 60.0256 727.622 Q60.0256 722.975 56.3653 720.333 Q52.6732 717.659 46.212 717.659 Z" fill="#000000" fill-rule="nonzero" fill-opacity="1" /><path clip-path="url(#clip940)" d="M29.4065 679.147 L34.9447 679.147 Q33.6716 681.629 33.035 684.303 Q32.3984 686.977 32.3984 689.841 Q32.3984 694.202 33.7352 696.398 Q35.072 698.562 37.7456 698.562 Q39.7826 698.562 40.9603 697.003 Q42.1061 695.443 43.1565 690.732 L43.6021 688.727 Q44.9389 682.489 47.3897 679.879 Q49.8086 677.237 54.1691 677.237 Q59.1344 677.237 62.0308 681.184 Q64.9272 685.099 64.9272 691.974 Q64.9272 694.838 64.3543 697.957 Q63.8132 701.045 62.6992 704.482 L56.6518 704.482 Q58.3387 701.236 59.198 698.085 Q60.0256 694.934 60.0256 691.846 Q60.0256 687.709 58.6251 685.481 Q57.1929 683.253 54.6147 683.253 Q52.2276 683.253 50.9545 684.876 Q49.6813 686.467 48.5037 691.91 L48.0262 693.947 Q46.8804 699.39 44.5251 701.809 Q42.138 704.228 38.0002 704.228 Q32.9713 704.228 30.2341 700.663 Q27.4968 697.098 27.4968 690.541 Q27.4968 687.295 27.9743 684.43 Q28.4517 681.566 29.4065 679.147 Z" fill="#000000" fill-rule="nonzero" fill-opacity="1" /><path clip-path="url(#clip940)" d="M800.223 8.64 L808.093 8.64 L827.248 44.7799 L827.248 8.64 L832.919 8.64 L832.919 51.84 L825.049 51.84 L805.894 15.7001 L805.894 51.84 L800.223 51.84 L800.223 8.64 Z" fill="#000000" fill-rule="nonzero" fill-opacity="1" /><path clip-path="url(#clip940)" d="M859.048 35.5496 Q852.595 35.5496 850.107 37.0253 Q847.618 38.501 847.618 42.06 Q847.618 44.8956 849.47 46.5738 Q851.351 48.2231 854.563 48.2231 Q858.99 48.2231 861.652 45.0981 Q864.343 41.9442 864.343 36.7359 L864.343 35.5496 L859.048 35.5496 M869.667 33.3505 L869.667 51.84 L864.343 51.84 L864.343 46.921 Q862.52 49.8724 859.8 51.2902 Q857.08 52.6791 853.145 52.6791 Q848.168 52.6791 845.217 49.9014 Q842.294 47.0947 842.294 42.4072 Q842.294 36.9385 845.94 34.1607 Q849.615 31.3829 856.878 31.3829 L864.343 31.3829 L864.343 30.8621 Q864.343 27.1874 861.912 25.1908 Q859.511 23.1654 855.142 23.1654 Q852.364 23.1654 849.731 23.8309 Q847.098 24.4964 844.667 25.8274 L844.667 20.9085 Q847.589 19.78 850.338 19.2302 Q853.087 18.6515 855.691 18.6515 Q862.722 18.6515 866.195 22.2973 Q869.667 25.9431 869.667 33.3505 Z" fill="#000000" fill-rule="nonzero" fill-opacity="1" /><path clip-path="url(#clip940)" d="M885.899 10.2314 L885.899 19.4328 L896.866 19.4328 L896.866 23.5705 L885.899 23.5705 L885.899 41.163 Q885.899 45.1271 886.97 46.2555 Q888.07 47.384 891.397 47.384 L896.866 47.384 L896.866 51.84 L891.397 51.84 Q885.234 51.84 882.89 49.5541 Q880.546 47.2393 880.546 41.163 L880.546 23.5705 L876.64 23.5705 L876.64 19.4328 L880.546 19.4328 L880.546 10.2314 L885.899 10.2314 Z" fill="#000000" fill-rule="nonzero" fill-opacity="1" /><path clip-path="url(#clip940)" d="M903.318 39.0507 L903.318 19.4328 L908.642 19.4328 L908.642 38.8482 Q908.642 43.4488 910.436 45.7636 Q912.23 48.0495 915.818 48.0495 Q920.13 48.0495 922.618 45.3007 Q925.135 42.5519 925.135 37.8065 L925.135 19.4328 L930.459 19.4328 L930.459 51.84 L925.135 51.84 L925.135 46.8632 Q923.197 49.8145 920.621 51.2613 Q918.075 52.6791 914.69 52.6791 Q909.105 52.6791 906.212 49.2069 Q903.318 45.7347 903.318 39.0507 M916.715 18.6515 L916.715 18.6515 Z" fill="#000000" fill-rule="nonzero" fill-opacity="1" /><path clip-path="url(#clip940)" d="M960.205 24.4096 Q959.308 23.8888 958.237 23.6573 Q957.195 23.3969 955.922 23.3969 Q951.408 23.3969 948.978 26.3482 Q946.576 29.2707 946.576 34.7683 L946.576 51.84 L941.223 51.84 L941.223 19.4328 L946.576 19.4328 L946.576 24.4675 Q948.254 21.5161 950.945 20.0983 Q953.636 18.6515 957.485 18.6515 Q958.034 18.6515 958.7 18.7383 Q959.365 18.7962 960.176 18.9409 L960.205 24.4096 Z" fill="#000000" fill-rule="nonzero" fill-opacity="1" /><path clip-path="url(#clip940)" d="M980.517 35.5496 Q974.064 35.5496 971.576 37.0253 Q969.088 38.501 969.088 42.06 Q969.088 44.8956 970.94 46.5738 Q972.82 48.2231 976.032 48.2231 Q980.459 48.2231 983.121 45.0981 Q985.812 41.9442 985.812 36.7359 L985.812 35.5496 L980.517 35.5496 M991.136 33.3505 L991.136 51.84 L985.812 51.84 L985.812 46.921 Q983.989 49.8724 981.269 51.2902 Q978.549 52.6791 974.614 52.6791 Q969.637 52.6791 966.686 49.9014 Q963.764 47.0947 963.764 42.4072 Q963.764 36.9385 967.409 34.1607 Q971.084 31.3829 978.347 31.3829 L985.812 31.3829 L985.812 30.8621 Q985.812 27.1874 983.382 25.1908 Q980.98 23.1654 976.611 23.1654 Q973.833 23.1654 971.2 23.8309 Q968.567 24.4964 966.136 25.8274 L966.136 20.9085 Q969.059 19.78 971.808 19.2302 Q974.556 18.6515 977.161 18.6515 Q984.192 18.6515 987.664 22.2973 Q991.136 25.9431 991.136 33.3505 Z" fill="#000000" fill-rule="nonzero" fill-opacity="1" /><path clip-path="url(#clip940)" d="M1002.1 6.81709 L1007.43 6.81709 L1007.43 51.84 L1002.1 51.84 L1002.1 6.81709 Z" fill="#000000" fill-rule="nonzero" fill-opacity="1" /><path clip-path="url(#clip940)" d="M1058.12 31.5855 Q1060 32.222 1061.77 34.3054 Q1063.56 36.3887 1065.35 40.0345 L1071.29 51.84 L1065.01 51.84 L1059.48 40.7579 Q1057.34 36.4176 1055.31 34.9998 Q1053.32 33.582 1049.85 33.582 L1043.48 33.582 L1043.48 51.84 L1037.63 51.84 L1037.63 8.64 L1050.83 8.64 Q1058.24 8.64 1061.88 11.736 Q1065.53 14.8321 1065.53 21.0821 Q1065.53 25.1619 1063.62 27.8529 Q1061.74 30.5438 1058.12 31.5855 M1043.48 13.4432 L1043.48 28.7788 L1050.83 28.7788 Q1055.05 28.7788 1057.19 26.8401 Q1059.36 24.8726 1059.36 21.0821 Q1059.36 17.2916 1057.19 15.3819 Q1055.05 13.4432 1050.83 13.4432 L1043.48 13.4432 Z" fill="#000000" fill-rule="nonzero" fill-opacity="1" /><path clip-path="url(#clip940)" d="M1103.64 34.3054 L1103.64 36.9095 L1079.16 36.9095 Q1079.5 42.4072 1082.46 45.3007 Q1085.44 48.1653 1090.73 48.1653 Q1093.8 48.1653 1096.66 47.4129 Q1099.56 46.6606 1102.39 45.156 L1102.39 50.1907 Q1099.53 51.406 1096.52 52.0425 Q1093.51 52.6791 1090.41 52.6791 Q1082.66 52.6791 1078.11 48.1653 Q1073.6 43.6514 1073.6 35.9547 Q1073.6 27.9975 1077.88 23.339 Q1082.19 18.6515 1089.49 18.6515 Q1096.03 18.6515 1099.82 22.876 Q1103.64 27.0716 1103.64 34.3054 M1098.31 32.7429 Q1098.25 28.3737 1095.85 25.7695 Q1093.48 23.1654 1089.54 23.1654 Q1085.09 23.1654 1082.4 25.6827 Q1079.74 28.2001 1079.33 32.7718 L1098.31 32.7429 Z" fill="#000000" fill-rule="nonzero" fill-opacity="1" /><path clip-path="url(#clip940)" d="M1133.03 20.3876 L1133.03 25.4223 Q1130.78 24.2649 1128.35 23.6862 Q1125.92 23.1075 1123.31 23.1075 Q1119.35 23.1075 1117.35 24.3228 Q1115.38 25.5381 1115.38 27.9686 Q1115.38 29.8204 1116.8 30.891 Q1118.22 31.9327 1122.5 32.8876 L1124.32 33.2926 Q1130 34.5079 1132.37 36.7359 Q1134.77 38.935 1134.77 42.8991 Q1134.77 47.4129 1131.18 50.046 Q1127.62 52.6791 1121.37 52.6791 Q1118.77 52.6791 1115.93 52.1583 Q1113.13 51.6664 1110 50.6537 L1110 45.156 Q1112.95 46.6896 1115.82 47.4708 Q1118.68 48.2231 1121.49 48.2231 Q1125.25 48.2231 1127.28 46.95 Q1129.3 45.6479 1129.3 43.3042 Q1129.3 41.134 1127.83 39.9766 Q1126.38 38.8192 1121.43 37.7486 L1119.58 37.3146 Q1114.63 36.273 1112.43 34.1318 Q1110.23 31.9616 1110.23 28.2001 Q1110.23 23.6283 1113.47 21.1399 Q1116.71 18.6515 1122.67 18.6515 Q1125.63 18.6515 1128.23 19.0855 Q1130.83 19.5196 1133.03 20.3876 Z" fill="#000000" fill-rule="nonzero" fill-opacity="1" /><path clip-path="url(#clip940)" d="M1143.25 19.4328 L1148.57 19.4328 L1148.57 51.84 L1143.25 51.84 L1143.25 19.4328 M1143.25 6.81709 L1148.57 6.81709 L1148.57 13.559 L1143.25 13.559 L1143.25 6.81709 Z" fill="#000000" fill-rule="nonzero" fill-opacity="1" /><path clip-path="url(#clip940)" d="M1181.04 24.3517 L1181.04 6.81709 L1186.36 6.81709 L1186.36 51.84 L1181.04 51.84 L1181.04 46.9789 Q1179.36 49.8724 1176.78 51.2902 Q1174.24 52.6791 1170.65 52.6791 Q1164.78 52.6791 1161.07 47.9916 Q1157.4 43.3042 1157.4 35.6653 Q1157.4 28.0265 1161.07 23.339 Q1164.78 18.6515 1170.65 18.6515 Q1174.24 18.6515 1176.78 20.0693 Q1179.36 21.4582 1181.04 24.3517 M1162.89 35.6653 Q1162.89 41.5391 1165.3 44.8956 Q1167.73 48.2231 1171.95 48.2231 Q1176.18 48.2231 1178.61 44.8956 Q1181.04 41.5391 1181.04 35.6653 Q1181.04 29.7915 1178.61 26.464 Q1176.18 23.1075 1171.95 23.1075 Q1167.73 23.1075 1165.3 26.464 Q1162.89 29.7915 1162.89 35.6653 Z" fill="#000000" fill-rule="nonzero" fill-opacity="1" /><path clip-path="url(#clip940)" d="M1225.05 34.3054 L1225.05 36.9095 L1200.57 36.9095 Q1200.92 42.4072 1203.87 45.3007 Q1206.85 48.1653 1212.14 48.1653 Q1215.21 48.1653 1218.07 47.4129 Q1220.97 46.6606 1223.8 45.156 L1223.8 50.1907 Q1220.94 51.406 1217.93 52.0425 Q1214.92 52.6791 1211.82 52.6791 Q1204.07 52.6791 1199.53 48.1653 Q1195.01 43.6514 1195.01 35.9547 Q1195.01 27.9975 1199.29 23.339 Q1203.61 18.6515 1210.9 18.6515 Q1217.44 18.6515 1221.23 22.876 Q1225.05 27.0716 1225.05 34.3054 M1219.72 32.7429 Q1219.67 28.3737 1217.26 25.7695 Q1214.89 23.1654 1210.96 23.1654 Q1206.5 23.1654 1203.81 25.6827 Q1201.15 28.2001 1200.74 32.7718 L1219.72 32.7429 Z" fill="#000000" fill-rule="nonzero" fill-opacity="1" /><path clip-path="url(#clip940)" d="M1260.72 32.2799 L1260.72 51.84 L1255.4 51.84 L1255.4 32.4535 Q1255.4 27.8529 1253.61 25.567 Q1251.81 23.2811 1248.22 23.2811 Q1243.91 23.2811 1241.42 26.03 Q1238.94 28.7788 1238.94 33.5241 L1238.94 51.84 L1233.58 51.84 L1233.58 19.4328 L1238.94 19.4328 L1238.94 24.4675 Q1240.85 21.545 1243.42 20.0983 Q1246.02 18.6515 1249.41 18.6515 Q1254.99 18.6515 1257.86 22.1237 Q1260.72 25.567 1260.72 32.2799 Z" fill="#000000" fill-rule="nonzero" fill-opacity="1" /><path clip-path="url(#clip940)" d="M1294.66 20.677 L1294.66 25.6538 Q1292.41 24.4096 1290.12 23.802 Q1287.86 23.1654 1285.55 23.1654 Q1280.37 23.1654 1277.51 26.464 Q1274.64 29.7336 1274.64 35.6653 Q1274.64 41.597 1277.51 44.8956 Q1280.37 48.1653 1285.55 48.1653 Q1287.86 48.1653 1290.12 47.5576 Q1292.41 46.921 1294.66 45.6768 L1294.66 50.5958 Q1292.44 51.6375 1290.04 52.1583 Q1287.66 52.6791 1284.97 52.6791 Q1277.65 52.6791 1273.34 48.0784 Q1269.03 43.4778 1269.03 35.6653 Q1269.03 27.7371 1273.37 23.1943 Q1277.74 18.6515 1285.32 18.6515 Q1287.78 18.6515 1290.12 19.1724 Q1292.47 19.6642 1294.66 20.677 Z" fill="#000000" fill-rule="nonzero" fill-opacity="1" /><path clip-path="url(#clip940)" d="M1331.64 34.3054 L1331.64 36.9095 L1307.16 36.9095 Q1307.51 42.4072 1310.46 45.3007 Q1313.44 48.1653 1318.74 48.1653 Q1321.81 48.1653 1324.67 47.4129 Q1327.56 46.6606 1330.4 45.156 L1330.4 50.1907 Q1327.53 51.406 1324.53 52.0425 Q1321.52 52.6791 1318.42 52.6791 Q1310.67 52.6791 1306.12 48.1653 Q1301.61 43.6514 1301.61 35.9547 Q1301.61 27.9975 1305.89 23.339 Q1310.2 18.6515 1317.49 18.6515 Q1324.03 18.6515 1327.82 22.876 Q1331.64 27.0716 1331.64 34.3054 M1326.32 32.7429 Q1326.26 28.3737 1323.86 25.7695 Q1321.49 23.1654 1317.55 23.1654 Q1313.1 23.1654 1310.41 25.6827 Q1307.74 28.2001 1307.34 32.7718 L1326.32 32.7429 Z" fill="#000000" fill-rule="nonzero" fill-opacity="1" /><path clip-path="url(#clip940)" d="M1353.46 8.64 L1390.01 8.64 L1390.01 13.559 L1374.67 13.559 L1374.67 51.84 L1368.8 51.84 L1368.8 13.559 L1353.46 13.559 L1353.46 8.64 Z" fill="#000000" fill-rule="nonzero" fill-opacity="1" /><path clip-path="url(#clip940)" d="M1393.59 19.4328 L1398.92 19.4328 L1398.92 51.84 L1393.59 51.84 L1393.59 19.4328 M1393.59 6.81709 L1398.92 6.81709 L1398.92 13.559 L1393.59 13.559 L1393.59 6.81709 Z" fill="#000000" fill-rule="nonzero" fill-opacity="1" /><path clip-path="url(#clip940)" d="M1435.29 25.6538 Q1437.29 22.0659 1440.06 20.3587 Q1442.84 18.6515 1446.6 18.6515 Q1451.67 18.6515 1454.41 22.2105 Q1457.16 25.7406 1457.16 32.2799 L1457.16 51.84 L1451.81 51.84 L1451.81 32.4535 Q1451.81 27.795 1450.16 25.5381 Q1448.51 23.2811 1445.13 23.2811 Q1440.99 23.2811 1438.59 26.03 Q1436.19 28.7788 1436.19 33.5241 L1436.19 51.84 L1430.83 51.84 L1430.83 32.4535 Q1430.83 27.7661 1429.18 25.5381 Q1427.53 23.2811 1424.09 23.2811 Q1420.01 23.2811 1417.61 26.0589 Q1415.21 28.8077 1415.21 33.5241 L1415.21 51.84 L1409.85 51.84 L1409.85 19.4328 L1415.21 19.4328 L1415.21 24.4675 Q1417.03 21.4872 1419.58 20.0693 Q1422.12 18.6515 1425.62 18.6515 Q1429.15 18.6515 1431.61 20.4455 Q1434.1 22.2395 1435.29 25.6538 Z" fill="#000000" fill-rule="nonzero" fill-opacity="1" /><path clip-path="url(#clip940)" d="M1495.5 34.3054 L1495.5 36.9095 L1471.02 36.9095 Q1471.37 42.4072 1474.32 45.3007 Q1477.3 48.1653 1482.6 48.1653 Q1485.66 48.1653 1488.53 47.4129 Q1491.42 46.6606 1494.26 45.156 L1494.26 50.1907 Q1491.39 51.406 1488.38 52.0425 Q1485.38 52.6791 1482.28 52.6791 Q1474.52 52.6791 1469.98 48.1653 Q1465.47 43.6514 1465.47 35.9547 Q1465.47 27.9975 1469.75 23.339 Q1474.06 18.6515 1481.35 18.6515 Q1487.89 18.6515 1491.68 22.876 Q1495.5 27.0716 1495.5 34.3054 M1490.18 32.7429 Q1490.12 28.3737 1487.72 25.7695 Q1485.35 23.1654 1481.41 23.1654 Q1476.96 23.1654 1474.26 25.6827 Q1471.6 28.2001 1471.2 32.7718 L1490.18 32.7429 Z" fill="#000000" fill-rule="nonzero" fill-opacity="1" /><path clip-path="url(#clip940)" d="M1520.39 33.5241 L1573.86 33.5241 L1573.86 37.6908 L1520.39 37.6908 L1520.39 33.5241 Z" fill="#000000" fill-rule="nonzero" fill-opacity="1" /><path clip-path="url(#clip940)" d="M1601.4 8.64 L1607.25 8.64 L1607.25 26.898 L1626.64 8.64 L1634.16 8.64 L1612.72 28.7788 L1635.69 51.84 L1628 51.84 L1607.25 31.0357 L1607.25 51.84 L1601.4 51.84 L1601.4 8.64 Z" fill="#000000" fill-rule="nonzero" fill-opacity="1" /><path clip-path="url(#clip940)" d="M1640.73 24.9304 L1677.82 24.9304 L1677.82 29.7915 L1640.73 29.7915 L1640.73 24.9304 M1640.73 36.7359 L1677.82 36.7359 L1677.82 41.6549 L1640.73 41.6549 L1640.73 36.7359 Z" fill="#000000" fill-rule="nonzero" fill-opacity="1" /><path clip-path="url(#clip940)" d="M1691.45 46.921 L1701 46.921 L1701 13.964 L1690.61 16.0474 L1690.61 10.7233 L1700.94 8.64 L1706.79 8.64 L1706.79 46.921 L1716.33 46.921 L1716.33 51.84 L1691.45 51.84 L1691.45 46.921 Z" fill="#000000" fill-rule="nonzero" fill-opacity="1" /><path clip-path="url(#clip940)" d="M1745.85 28.5473 Q1750.04 29.4443 1752.39 32.2799 Q1754.76 35.1156 1754.76 39.2822 Q1754.76 45.6768 1750.36 49.178 Q1745.96 52.6791 1737.86 52.6791 Q1735.14 52.6791 1732.25 52.1294 Q1729.38 51.6085 1726.32 50.5379 L1726.32 44.8956 Q1728.75 46.3134 1731.64 47.0368 Q1734.53 47.7602 1737.69 47.7602 Q1743.19 47.7602 1746.05 45.59 Q1748.94 43.4199 1748.94 39.2822 Q1748.94 35.4628 1746.25 33.3216 Q1743.59 31.1515 1738.82 31.1515 L1733.78 31.1515 L1733.78 26.3482 L1739.05 26.3482 Q1743.36 26.3482 1745.65 24.6411 Q1747.93 22.905 1747.93 19.6642 Q1747.93 16.3367 1745.56 14.5717 Q1743.22 12.7777 1738.82 12.7777 Q1736.42 12.7777 1733.67 13.2985 Q1730.92 13.8194 1727.62 14.9189 L1727.62 9.7106 Q1730.95 8.78468 1733.84 8.32171 Q1736.76 7.85875 1739.34 7.85875 Q1745.99 7.85875 1749.87 10.8969 Q1753.75 13.9062 1753.75 19.0566 Q1753.75 22.6446 1751.69 25.133 Q1749.64 27.5924 1745.85 28.5473 Z" fill="#000000" fill-rule="nonzero" fill-opacity="1" /><path clip-path="url(#clip942)" d="M320.51 106.192 L320.51 1423.18 L440.133 1423.18 L440.133 106.192 L320.51 106.192 L320.51 106.192  Z" fill="#4682b4" fill-rule="evenodd" fill-opacity="0.7"/>
<polyline clip-path="url(#clip942)" style="stroke:#000000; stroke-linecap:round; stroke-linejoin:round; stroke-width:4; stroke-opacity:0.7; fill:none" points="320.51,106.192 320.51,1423.18 440.133,1423.18 440.133,106.192 320.51,106.192 "/>
<path clip-path="url(#clip942)" d="M470.039 1333.62 L470.039 1423.18 L589.661 1423.18 L589.661 1333.62 L470.039 1333.62 L470.039 1333.62  Z" fill="#4682b4" fill-rule="evenodd" fill-opacity="0.7"/>
<polyline clip-path="url(#clip942)" style="stroke:#000000; stroke-linecap:round; stroke-linejoin:round; stroke-width:4; stroke-opacity:0.7; fill:none" points="470.039,1333.62 470.039,1423.18 589.661,1423.18 589.661,1333.62 470.039,1333.62 "/>
<path clip-path="url(#clip942)" d="M619.567 1343.06 L619.567 1423.18 L739.19 1423.18 L739.19 1343.06 L619.567 1343.06 L619.567 1343.06  Z" fill="#4682b4" fill-rule="evenodd" fill-opacity="0.7"/>
<polyline clip-path="url(#clip942)" style="stroke:#000000; stroke-linecap:round; stroke-linejoin:round; stroke-width:4; stroke-opacity:0.7; fill:none" points="619.567,1343.06 619.567,1423.18 739.19,1423.18 739.19,1343.06 619.567,1343.06 "/>
<path clip-path="url(#clip942)" d="M769.095 1338.19 L769.095 1423.18 L888.718 1423.18 L888.718 1338.19 L769.095 1338.19 L769.095 1338.19  Z" fill="#4682b4" fill-rule="evenodd" fill-opacity="0.7"/>
<polyline clip-path="url(#clip942)" style="stroke:#000000; stroke-linecap:round; stroke-linejoin:round; stroke-width:4; stroke-opacity:0.7; fill:none" points="769.095,1338.19 769.095,1423.18 888.718,1423.18 888.718,1338.19 769.095,1338.19 "/>
<path clip-path="url(#clip942)" d="M918.624 1316.1 L918.624 1423.18 L1038.25 1423.18 L1038.25 1316.1 L918.624 1316.1 L918.624 1316.1  Z" fill="#4682b4" fill-rule="evenodd" fill-opacity="0.7"/>
<polyline clip-path="url(#clip942)" style="stroke:#000000; stroke-linecap:round; stroke-linejoin:round; stroke-width:4; stroke-opacity:0.7; fill:none" points="918.624,1316.1 918.624,1423.18 1038.25,1423.18 1038.25,1316.1 918.624,1316.1 "/>
<path clip-path="url(#clip942)" d="M1068.15 1338.94 L1068.15 1423.18 L1187.77 1423.18 L1187.77 1338.94 L1068.15 1338.94 L1068.15 1338.94  Z" fill="#4682b4" fill-rule="evenodd" fill-opacity="0.7"/>
<polyline clip-path="url(#clip942)" style="stroke:#000000; stroke-linecap:round; stroke-linejoin:round; stroke-width:4; stroke-opacity:0.7; fill:none" points="1068.15,1338.94 1068.15,1423.18 1187.77,1423.18 1187.77,1338.94 1068.15,1338.94 "/>
<path clip-path="url(#clip942)" d="M1217.68 1335.09 L1217.68 1423.18 L1337.3 1423.18 L1337.3 1335.09 L1217.68 1335.09 L1217.68 1335.09  Z" fill="#4682b4" fill-rule="evenodd" fill-opacity="0.7"/>
<polyline clip-path="url(#clip942)" style="stroke:#000000; stroke-linecap:round; stroke-linejoin:round; stroke-width:4; stroke-opacity:0.7; fill:none" points="1217.68,1335.09 1217.68,1423.18 1337.3,1423.18 1337.3,1335.09 1217.68,1335.09 "/>
<path clip-path="url(#clip942)" d="M1367.21 1343.72 L1367.21 1423.18 L1486.83 1423.18 L1486.83 1343.72 L1367.21 1343.72 L1367.21 1343.72  Z" fill="#4682b4" fill-rule="evenodd" fill-opacity="0.7"/>
<polyline clip-path="url(#clip942)" style="stroke:#000000; stroke-linecap:round; stroke-linejoin:round; stroke-width:4; stroke-opacity:0.7; fill:none" points="1367.21,1343.72 1367.21,1423.18 1486.83,1423.18 1486.83,1343.72 1367.21,1343.72 "/>
<path clip-path="url(#clip942)" d="M1516.74 1332.3 L1516.74 1423.18 L1636.36 1423.18 L1636.36 1332.3 L1516.74 1332.3 L1516.74 1332.3  Z" fill="#4682b4" fill-rule="evenodd" fill-opacity="0.7"/>
<polyline clip-path="url(#clip942)" style="stroke:#000000; stroke-linecap:round; stroke-linejoin:round; stroke-width:4; stroke-opacity:0.7; fill:none" points="1516.74,1332.3 1516.74,1423.18 1636.36,1423.18 1636.36,1332.3 1516.74,1332.3 "/>
<path clip-path="url(#clip942)" d="M1666.27 1346.41 L1666.27 1423.18 L1785.89 1423.18 L1785.89 1346.41 L1666.27 1346.41 L1666.27 1346.41  Z" fill="#4682b4" fill-rule="evenodd" fill-opacity="0.7"/>
<polyline clip-path="url(#clip942)" style="stroke:#000000; stroke-linecap:round; stroke-linejoin:round; stroke-width:4; stroke-opacity:0.7; fill:none" points="1666.27,1346.41 1666.27,1423.18 1785.89,1423.18 1785.89,1346.41 1666.27,1346.41 "/>
<path clip-path="url(#clip942)" d="M1815.79 1345.78 L1815.79 1423.18 L1935.42 1423.18 L1935.42 1345.78 L1815.79 1345.78 L1815.79 1345.78  Z" fill="#4682b4" fill-rule="evenodd" fill-opacity="0.7"/>
<polyline clip-path="url(#clip942)" style="stroke:#000000; stroke-linecap:round; stroke-linejoin:round; stroke-width:4; stroke-opacity:0.7; fill:none" points="1815.79,1345.78 1815.79,1423.18 1935.42,1423.18 1935.42,1345.78 1815.79,1345.78 "/>
<path clip-path="url(#clip942)" d="M1965.32 1330.43 L1965.32 1423.18 L2084.94 1423.18 L2084.94 1330.43 L1965.32 1330.43 L1965.32 1330.43  Z" fill="#4682b4" fill-rule="evenodd" fill-opacity="0.7"/>
<polyline clip-path="url(#clip942)" style="stroke:#000000; stroke-linecap:round; stroke-linejoin:round; stroke-width:4; stroke-opacity:0.7; fill:none" points="1965.32,1330.43 1965.32,1423.18 2084.94,1423.18 2084.94,1330.43 1965.32,1330.43 "/>
<path clip-path="url(#clip942)" d="M2114.85 765.358 L2114.85 1423.18 L2234.47 1423.18 L2234.47 765.358 L2114.85 765.358 L2114.85 765.358  Z" fill="#4682b4" fill-rule="evenodd" fill-opacity="0.7"/>
<polyline clip-path="url(#clip942)" style="stroke:#000000; stroke-linecap:round; stroke-linejoin:round; stroke-width:4; stroke-opacity:0.7; fill:none" points="2114.85,765.358 2114.85,1423.18 2234.47,1423.18 2234.47,765.358 2114.85,765.358 "/>
<circle clip-path="url(#clip942)" style="fill:#4682b4; stroke:none; fill-opacity:0" cx="380.322" cy="106.192" r="2"/>
<circle clip-path="url(#clip942)" style="fill:#4682b4; stroke:none; fill-opacity:0" cx="529.85" cy="1333.62" r="2"/>
<circle clip-path="url(#clip942)" style="fill:#4682b4; stroke:none; fill-opacity:0" cx="679.378" cy="1343.06" r="2"/>
<circle clip-path="url(#clip942)" style="fill:#4682b4; stroke:none; fill-opacity:0" cx="828.907" cy="1338.19" r="2"/>
<circle clip-path="url(#clip942)" style="fill:#4682b4; stroke:none; fill-opacity:0" cx="978.435" cy="1316.1" r="2"/>
<circle clip-path="url(#clip942)" style="fill:#4682b4; stroke:none; fill-opacity:0" cx="1127.96" cy="1338.94" r="2"/>
<circle clip-path="url(#clip942)" style="fill:#4682b4; stroke:none; fill-opacity:0" cx="1277.49" cy="1335.09" r="2"/>
<circle clip-path="url(#clip942)" style="fill:#4682b4; stroke:none; fill-opacity:0" cx="1427.02" cy="1343.72" r="2"/>
<circle clip-path="url(#clip942)" style="fill:#4682b4; stroke:none; fill-opacity:0" cx="1576.55" cy="1332.3" r="2"/>
<circle clip-path="url(#clip942)" style="fill:#4682b4; stroke:none; fill-opacity:0" cx="1726.08" cy="1346.41" r="2"/>
<circle clip-path="url(#clip942)" style="fill:#4682b4; stroke:none; fill-opacity:0" cx="1875.61" cy="1345.78" r="2"/>
<circle clip-path="url(#clip942)" style="fill:#4682b4; stroke:none; fill-opacity:0" cx="2025.13" cy="1330.43" r="2"/>
<circle clip-path="url(#clip942)" style="fill:#4682b4; stroke:none; fill-opacity:0" cx="2174.66" cy="765.358" r="2"/>
<path clip-path="url(#clip942)" d="M320.51 106.192 L320.51 1423.18 L440.133 1423.18 L440.133 106.192 L320.51 106.192 L320.51 106.192  Z" fill="#ff0000" fill-rule="evenodd" fill-opacity="0.5"/>
<polyline clip-path="url(#clip942)" style="stroke:#000000; stroke-linecap:round; stroke-linejoin:round; stroke-width:4; stroke-opacity:0.5; fill:none" points="320.51,106.192 320.51,1423.18 440.133,1423.18 440.133,106.192 320.51,106.192 "/>
<path clip-path="url(#clip942)" d="M470.039 1333.62 L470.039 1423.18 L589.661 1423.18 L589.661 1333.62 L470.039 1333.62 L470.039 1333.62  Z" fill="#ff0000" fill-rule="evenodd" fill-opacity="0.5"/>
<polyline clip-path="url(#clip942)" style="stroke:#000000; stroke-linecap:round; stroke-linejoin:round; stroke-width:4; stroke-opacity:0.5; fill:none" points="470.039,1333.62 470.039,1423.18 589.661,1423.18 589.661,1333.62 470.039,1333.62 "/>
<path clip-path="url(#clip942)" d="M619.567 1343.06 L619.567 1423.18 L739.19 1423.18 L739.19 1343.06 L619.567 1343.06 L619.567 1343.06  Z" fill="#ff0000" fill-rule="evenodd" fill-opacity="0.5"/>
<polyline clip-path="url(#clip942)" style="stroke:#000000; stroke-linecap:round; stroke-linejoin:round; stroke-width:4; stroke-opacity:0.5; fill:none" points="619.567,1343.06 619.567,1423.18 739.19,1423.18 739.19,1343.06 619.567,1343.06 "/>
<circle clip-path="url(#clip942)" style="fill:#ff0000; stroke:none; fill-opacity:0" cx="380.322" cy="106.192" r="2"/>
<circle clip-path="url(#clip942)" style="fill:#ff0000; stroke:none; fill-opacity:0" cx="529.85" cy="1333.62" r="2"/>
<circle clip-path="url(#clip942)" style="fill:#ff0000; stroke:none; fill-opacity:0" cx="679.378" cy="1343.06" r="2"/>
<path clip-path="url(#clip942)" d="M1815.79 1345.78 L1815.79 1423.18 L1935.42 1423.18 L1935.42 1345.78 L1815.79 1345.78 L1815.79 1345.78  Z" fill="#008080" fill-rule="evenodd" fill-opacity="0.5"/>
<polyline clip-path="url(#clip942)" style="stroke:#000000; stroke-linecap:round; stroke-linejoin:round; stroke-width:4; stroke-opacity:0.5; fill:none" points="1815.79,1345.78 1815.79,1423.18 1935.42,1423.18 1935.42,1345.78 1815.79,1345.78 "/>
<path clip-path="url(#clip942)" d="M1965.32 1330.43 L1965.32 1423.18 L2084.94 1423.18 L2084.94 1330.43 L1965.32 1330.43 L1965.32 1330.43  Z" fill="#008080" fill-rule="evenodd" fill-opacity="0.5"/>
<polyline clip-path="url(#clip942)" style="stroke:#000000; stroke-linecap:round; stroke-linejoin:round; stroke-width:4; stroke-opacity:0.5; fill:none" points="1965.32,1330.43 1965.32,1423.18 2084.94,1423.18 2084.94,1330.43 1965.32,1330.43 "/>
<path clip-path="url(#clip942)" d="M2114.85 765.358 L2114.85 1423.18 L2234.47 1423.18 L2234.47 765.358 L2114.85 765.358 L2114.85 765.358  Z" fill="#008080" fill-rule="evenodd" fill-opacity="0.5"/>
<polyline clip-path="url(#clip942)" style="stroke:#000000; stroke-linecap:round; stroke-linejoin:round; stroke-width:4; stroke-opacity:0.5; fill:none" points="2114.85,765.358 2114.85,1423.18 2234.47,1423.18 2234.47,765.358 2114.85,765.358 "/>
<circle clip-path="url(#clip942)" style="fill:#008080; stroke:none; fill-opacity:0" cx="1875.61" cy="1345.78" r="2"/>
<circle clip-path="url(#clip942)" style="fill:#008080; stroke:none; fill-opacity:0" cx="2025.13" cy="1330.43" r="2"/>
<circle clip-path="url(#clip942)" style="fill:#008080; stroke:none; fill-opacity:0" cx="2174.66" cy="765.358" r="2"/>
<path clip-path="url(#clip940)" d="M1936.32 357.452 L2281.07 357.452 L2281.07 150.092 L1936.32 150.092  Z" fill="#ffffff" fill-rule="evenodd" fill-opacity="1"/>
<polyline clip-path="url(#clip940)" style="stroke:#000000; stroke-linecap:round; stroke-linejoin:round; stroke-width:4; stroke-opacity:1; fill:none" points="1936.32,357.452 2281.07,357.452 2281.07,150.092 1936.32,150.092 1936.32,357.452 "/>
<path clip-path="url(#clip940)" d="M1960.22 222.668 L2103.58 222.668 L2103.58 181.196 L1960.22 181.196 L1960.22 222.668  Z" fill="#4682b4" fill-rule="evenodd" fill-opacity="0.7"/>
<polyline clip-path="url(#clip940)" style="stroke:#000000; stroke-linecap:round; stroke-linejoin:round; stroke-width:4; stroke-opacity:1; fill:none" points="1960.22,222.668 2103.58,222.668 2103.58,181.196 1960.22,181.196 1960.22,222.668 "/>
<path clip-path="url(#clip940)" d="M2141.32 221.619 Q2139.52 226.249 2137.8 227.661 Q2136.09 229.073 2133.22 229.073 L2129.82 229.073 L2129.82 225.508 L2132.32 225.508 Q2134.08 225.508 2135.05 224.675 Q2136.02 223.841 2137.2 220.739 L2137.96 218.795 L2127.48 193.286 L2131.99 193.286 L2140.09 213.564 L2148.2 193.286 L2152.71 193.286 L2141.32 221.619 Z" fill="#000000" fill-rule="nonzero" fill-opacity="1" /><path clip-path="url(#clip940)" d="M2160 215.277 L2167.64 215.277 L2167.64 188.911 L2159.33 190.578 L2159.33 186.318 L2167.59 184.652 L2172.27 184.652 L2172.27 215.277 L2179.91 215.277 L2179.91 219.212 L2160 219.212 L2160 215.277 Z" fill="#000000" fill-rule="nonzero" fill-opacity="1" /><path clip-path="url(#clip940)" d="M1960.22 274.508 L2103.58 274.508 L2103.58 233.036 L1960.22 233.036 L1960.22 274.508  Z" fill="#ff0000" fill-rule="evenodd" fill-opacity="0.5"/>
<polyline clip-path="url(#clip940)" style="stroke:#000000; stroke-linecap:round; stroke-linejoin:round; stroke-width:4; stroke-opacity:1; fill:none" points="1960.22,274.508 2103.58,274.508 2103.58,233.036 1960.22,233.036 1960.22,274.508 "/>
<path clip-path="url(#clip940)" d="M2155.35 239.154 L2155.35 244.084 Q2152.99 241.885 2150.3 240.797 Q2147.64 239.709 2144.63 239.709 Q2138.71 239.709 2135.56 243.344 Q2132.41 246.955 2132.41 253.806 Q2132.41 260.635 2135.56 264.269 Q2138.71 267.88 2144.63 267.88 Q2147.64 267.88 2150.3 266.792 Q2152.99 265.705 2155.35 263.505 L2155.35 268.39 Q2152.9 270.056 2150.14 270.89 Q2147.41 271.723 2144.35 271.723 Q2136.51 271.723 2131.99 266.931 Q2127.48 262.117 2127.48 253.806 Q2127.48 245.473 2131.99 240.682 Q2136.51 235.867 2144.35 235.867 Q2147.46 235.867 2150.19 236.7 Q2152.94 237.51 2155.35 239.154 Z" fill="#000000" fill-rule="nonzero" fill-opacity="1" /><path clip-path="url(#clip940)" d="M2177.41 249.107 Q2176.69 248.691 2175.83 248.506 Q2175 248.297 2173.98 248.297 Q2170.37 248.297 2168.43 250.658 Q2166.51 252.996 2166.51 257.394 L2166.51 271.052 L2162.22 271.052 L2162.22 245.126 L2166.51 245.126 L2166.51 249.154 Q2167.85 246.793 2170 245.658 Q2172.15 244.501 2175.23 244.501 Q2175.67 244.501 2176.21 244.57 Q2176.74 244.617 2177.39 244.732 L2177.41 249.107 Z" fill="#000000" fill-rule="nonzero" fill-opacity="1" /><path clip-path="url(#clip940)" d="M2193.66 258.019 Q2188.5 258.019 2186.51 259.2 Q2184.52 260.38 2184.52 263.228 Q2184.52 265.496 2186 266.839 Q2187.5 268.158 2190.07 268.158 Q2193.61 268.158 2195.74 265.658 Q2197.89 263.135 2197.89 258.968 L2197.89 258.019 L2193.66 258.019 M2202.15 256.26 L2202.15 271.052 L2197.89 271.052 L2197.89 267.117 Q2196.44 269.478 2194.26 270.612 Q2192.08 271.723 2188.94 271.723 Q2184.96 271.723 2182.59 269.501 Q2180.26 267.255 2180.26 263.505 Q2180.26 259.13 2183.17 256.908 Q2186.11 254.686 2191.92 254.686 L2197.89 254.686 L2197.89 254.269 Q2197.89 251.33 2195.95 249.732 Q2194.03 248.112 2190.53 248.112 Q2188.31 248.112 2186.21 248.644 Q2184.1 249.177 2182.15 250.242 L2182.15 246.306 Q2184.49 245.404 2186.69 244.964 Q2188.89 244.501 2190.97 244.501 Q2196.6 244.501 2199.38 247.418 Q2202.15 250.334 2202.15 256.26 Z" fill="#000000" fill-rule="nonzero" fill-opacity="1" /><path clip-path="url(#clip940)" d="M2227.45 245.89 L2227.45 249.918 Q2225.65 248.992 2223.7 248.529 Q2221.76 248.066 2219.68 248.066 Q2216.51 248.066 2214.91 249.038 Q2213.33 250.01 2213.33 251.955 Q2213.33 253.436 2214.47 254.293 Q2215.6 255.126 2219.03 255.89 L2220.49 256.214 Q2225.02 257.186 2226.92 258.968 Q2228.84 260.728 2228.84 263.899 Q2228.84 267.51 2225.97 269.617 Q2223.13 271.723 2218.13 271.723 Q2216.04 271.723 2213.77 271.306 Q2211.53 270.913 2209.03 270.103 L2209.03 265.705 Q2211.39 266.931 2213.68 267.556 Q2215.97 268.158 2218.22 268.158 Q2221.23 268.158 2222.85 267.14 Q2224.47 266.098 2224.47 264.223 Q2224.47 262.487 2223.29 261.561 Q2222.13 260.635 2218.17 259.779 L2216.69 259.431 Q2212.73 258.598 2210.97 256.885 Q2209.21 255.149 2209.21 252.14 Q2209.21 248.482 2211.81 246.492 Q2214.4 244.501 2219.17 244.501 Q2221.53 244.501 2223.61 244.848 Q2225.7 245.195 2227.45 245.89 Z" fill="#000000" fill-rule="nonzero" fill-opacity="1" /><path clip-path="url(#clip940)" d="M2257.18 255.404 L2257.18 271.052 L2252.92 271.052 L2252.92 255.543 Q2252.92 251.862 2251.48 250.033 Q2250.05 248.205 2247.18 248.205 Q2243.73 248.205 2241.74 250.404 Q2239.75 252.603 2239.75 256.399 L2239.75 271.052 L2235.46 271.052 L2235.46 235.033 L2239.75 235.033 L2239.75 249.154 Q2241.27 246.816 2243.33 245.658 Q2245.42 244.501 2248.13 244.501 Q2252.59 244.501 2254.89 247.279 Q2257.18 250.033 2257.18 255.404 Z" fill="#000000" fill-rule="nonzero" fill-opacity="1" /><path clip-path="url(#clip940)" d="M1960.22 326.348 L2103.58 326.348 L2103.58 284.876 L1960.22 284.876 L1960.22 326.348  Z" fill="#008080" fill-rule="evenodd" fill-opacity="0.5"/>
<polyline clip-path="url(#clip940)" style="stroke:#000000; stroke-linecap:round; stroke-linejoin:round; stroke-width:4; stroke-opacity:1; fill:none" points="1960.22,326.348 2103.58,326.348 2103.58,284.876 1960.22,284.876 1960.22,326.348 "/>
<path clip-path="url(#clip940)" d="M2132.15 306.387 L2132.15 319.049 L2139.65 319.049 Q2143.43 319.049 2145.23 317.498 Q2147.06 315.924 2147.06 312.707 Q2147.06 309.466 2145.23 307.938 Q2143.43 306.387 2139.65 306.387 L2132.15 306.387 M2132.15 292.174 L2132.15 302.591 L2139.08 302.591 Q2142.5 302.591 2144.17 301.318 Q2145.86 300.021 2145.86 297.383 Q2145.86 294.767 2144.17 293.471 Q2142.5 292.174 2139.08 292.174 L2132.15 292.174 M2127.48 288.332 L2139.42 288.332 Q2144.77 288.332 2147.66 290.554 Q2150.56 292.776 2150.56 296.873 Q2150.56 300.045 2149.08 301.92 Q2147.59 303.795 2144.72 304.258 Q2148.17 304.998 2150.07 307.359 Q2151.99 309.697 2151.99 313.216 Q2151.99 317.845 2148.84 320.369 Q2145.7 322.892 2139.89 322.892 L2127.48 322.892 L2127.48 288.332 Z" fill="#000000" fill-rule="nonzero" fill-opacity="1" /><path clip-path="url(#clip940)" d="M2169.86 299.952 Q2166.44 299.952 2164.45 302.637 Q2162.46 305.299 2162.46 309.952 Q2162.46 314.605 2164.42 317.29 Q2166.41 319.952 2169.86 319.952 Q2173.27 319.952 2175.26 317.267 Q2177.25 314.582 2177.25 309.952 Q2177.25 305.346 2175.26 302.66 Q2173.27 299.952 2169.86 299.952 M2169.86 296.341 Q2175.42 296.341 2178.59 299.952 Q2181.76 303.563 2181.76 309.952 Q2181.76 316.318 2178.59 319.952 Q2175.42 323.563 2169.86 323.563 Q2164.28 323.563 2161.11 319.952 Q2157.96 316.318 2157.96 309.952 Q2157.96 303.563 2161.11 299.952 Q2164.28 296.341 2169.86 296.341 Z" fill="#000000" fill-rule="nonzero" fill-opacity="1" /><path clip-path="url(#clip940)" d="M2198.87 299.952 Q2195.44 299.952 2193.45 302.637 Q2191.46 305.299 2191.46 309.952 Q2191.46 314.605 2193.43 317.29 Q2195.42 319.952 2198.87 319.952 Q2202.27 319.952 2204.26 317.267 Q2206.25 314.582 2206.25 309.952 Q2206.25 305.346 2204.26 302.66 Q2202.27 299.952 2198.87 299.952 M2198.87 296.341 Q2204.42 296.341 2207.59 299.952 Q2210.77 303.563 2210.77 309.952 Q2210.77 316.318 2207.59 319.952 Q2204.42 323.563 2198.87 323.563 Q2193.29 323.563 2190.12 319.952 Q2186.97 316.318 2186.97 309.952 Q2186.97 303.563 2190.12 299.952 Q2193.29 296.341 2198.87 296.341 Z" fill="#000000" fill-rule="nonzero" fill-opacity="1" /><path clip-path="url(#clip940)" d="M2238.01 301.943 Q2239.61 299.072 2241.83 297.707 Q2244.05 296.341 2247.06 296.341 Q2251.11 296.341 2253.31 299.188 Q2255.51 302.012 2255.51 307.244 L2255.51 322.892 L2251.23 322.892 L2251.23 307.383 Q2251.23 303.656 2249.91 301.85 Q2248.59 300.045 2245.88 300.045 Q2242.57 300.045 2240.65 302.244 Q2238.73 304.443 2238.73 308.239 L2238.73 322.892 L2234.45 322.892 L2234.45 307.383 Q2234.45 303.633 2233.13 301.85 Q2231.81 300.045 2229.05 300.045 Q2225.79 300.045 2223.87 302.267 Q2221.95 304.466 2221.95 308.239 L2221.95 322.892 L2217.66 322.892 L2217.66 296.966 L2221.95 296.966 L2221.95 300.994 Q2223.4 298.609 2225.44 297.475 Q2227.48 296.341 2230.28 296.341 Q2233.1 296.341 2235.07 297.776 Q2237.06 299.211 2238.01 301.943 Z" fill="#000000" fill-rule="nonzero" fill-opacity="1" /></svg>
