<?xml version="1.0" encoding="utf-8"?>
<svg xmlns="http://www.w3.org/2000/svg" xmlns:xlink="http://www.w3.org/1999/xlink" width="600" height="400" viewBox="0 0 2400 1600">
<defs>
  <clipPath id="clip330">
    <rect x="0" y="0" width="2400" height="1600"/>
  </clipPath>
</defs>
<path clip-path="url(#clip330)" d="M0 1600 L2400 1600 L2400 8.88178e-14 L0 8.88178e-14  Z" fill="#ffffff" fill-rule="evenodd" fill-opacity="1"/>
<defs>
  <clipPath id="clip331">
    <rect x="119" y="880" width="2263" height="37"/>
  </clipPath>
</defs>
<path clip-path="url(#clip330)" d="M302.458 1423.18 L2352.76 1423.18 L2352.76 140.752 L302.458 140.752  Z" fill="#ffffff" fill-rule="evenodd" fill-opacity="1"/>
<defs>
  <clipPath id="clip332">
    <rect x="302" y="140" width="2051" height="1283"/>
  </clipPath>
</defs>
<polyline clip-path="url(#clip332)" style="stroke:#000000; stroke-linecap:round; stroke-linejoin:round; stroke-width:2; stroke-opacity:0.1; fill:none" points="327.702,1423.18 327.702,140.752 "/>
<polyline clip-path="url(#clip332)" style="stroke:#000000; stroke-linecap:round; stroke-linejoin:round; stroke-width:2; stroke-opacity:0.1; fill:none" points="655.54,1423.18 655.54,140.752 "/>
<polyline clip-path="url(#clip332)" style="stroke:#000000; stroke-linecap:round; stroke-linejoin:round; stroke-width:2; stroke-opacity:0.1; fill:none" points="983.377,1423.18 983.377,140.752 "/>
<polyline clip-path="url(#clip332)" style="stroke:#000000; stroke-linecap:round; stroke-linejoin:round; stroke-width:2; stroke-opacity:0.1; fill:none" points="1311.22,1423.18 1311.22,140.752 "/>
<polyline clip-path="url(#clip332)" style="stroke:#000000; stroke-linecap:round; stroke-linejoin:round; stroke-width:2; stroke-opacity:0.1; fill:none" points="1639.05,1423.18 1639.05,140.752 "/>
<polyline clip-path="url(#clip332)" style="stroke:#000000; stroke-linecap:round; stroke-linejoin:round; stroke-width:2; stroke-opacity:0.1; fill:none" points="1966.89,1423.18 1966.89,140.752 "/>
<polyline clip-path="url(#clip332)" style="stroke:#000000; stroke-linecap:round; stroke-linejoin:round; stroke-width:2; stroke-opacity:0.1; fill:none" points="2294.73,1423.18 2294.73,140.752 "/>
<polyline clip-path="url(#clip332)" style="stroke:#000000; stroke-linecap:round; stroke-linejoin:round; stroke-width:2; stroke-opacity:0.1; fill:none" points="302.458,1329.61 2352.76,1329.61 "/>
<polyline clip-path="url(#clip332)" style="stroke:#000000; stroke-linecap:round; stroke-linejoin:round; stroke-width:2; stroke-opacity:0.1; fill:none" points="302.458,1156.71 2352.76,1156.71 "/>
<polyline clip-path="url(#clip332)" style="stroke:#000000; stroke-linecap:round; stroke-linejoin:round; stroke-width:2; stroke-opacity:0.1; fill:none" points="302.458,983.814 2352.76,983.814 "/>
<polyline clip-path="url(#clip332)" style="stroke:#000000; stroke-linecap:round; stroke-linejoin:round; stroke-width:2; stroke-opacity:0.1; fill:none" points="302.458,810.914 2352.76,810.914 "/>
<polyline clip-path="url(#clip332)" style="stroke:#000000; stroke-linecap:round; stroke-linejoin:round; stroke-width:2; stroke-opacity:0.1; fill:none" points="302.458,638.015 2352.76,638.015 "/>
<polyline clip-path="url(#clip332)" style="stroke:#000000; stroke-linecap:round; stroke-linejoin:round; stroke-width:2; stroke-opacity:0.1; fill:none" points="302.458,465.115 2352.76,465.115 "/>
<polyline clip-path="url(#clip332)" style="stroke:#000000; stroke-linecap:round; stroke-linejoin:round; stroke-width:2; stroke-opacity:0.1; fill:none" points="302.458,292.215 2352.76,292.215 "/>
<polyline clip-path="url(#clip330)" style="stroke:#000000; stroke-linecap:round; stroke-linejoin:round; stroke-width:4; stroke-opacity:1; fill:none" points="302.458,1423.18 2352.76,1423.18 "/>
<polyline clip-path="url(#clip330)" style="stroke:#000000; stroke-linecap:round; stroke-linejoin:round; stroke-width:4; stroke-opacity:1; fill:none" points="327.702,1423.18 327.702,1404.28 "/>
<polyline clip-path="url(#clip330)" style="stroke:#000000; stroke-linecap:round; stroke-linejoin:round; stroke-width:4; stroke-opacity:1; fill:none" points="655.54,1423.18 655.54,1404.28 "/>
<polyline clip-path="url(#clip330)" style="stroke:#000000; stroke-linecap:round; stroke-linejoin:round; stroke-width:4; stroke-opacity:1; fill:none" points="983.377,1423.18 983.377,1404.28 "/>
<polyline clip-path="url(#clip330)" style="stroke:#000000; stroke-linecap:round; stroke-linejoin:round; stroke-width:4; stroke-opacity:1; fill:none" points="1311.22,1423.18 1311.22,1404.28 "/>
<polyline clip-path="url(#clip330)" style="stroke:#000000; stroke-linecap:round; stroke-linejoin:round; stroke-width:4; stroke-opacity:1; fill:none" points="1639.05,1423.18 1639.05,1404.28 "/>
<polyline clip-path="url(#clip330)" style="stroke:#000000; stroke-linecap:round; stroke-linejoin:round; stroke-width:4; stroke-opacity:1; fill:none" points="1966.89,1423.18 1966.89,1404.28 "/>
<polyline clip-path="url(#clip330)" style="stroke:#000000; stroke-linecap:round; stroke-linejoin:round; stroke-width:4; stroke-opacity:1; fill:none" points="2294.73,1423.18 2294.73,1404.28 "/>
<path clip-path="url(#clip330)" d="M327.702 1454.1 Q324.091 1454.1 322.262 1457.66 Q320.457 1461.2 320.457 1468.33 Q320.457 1475.44 322.262 1479.01 Q324.091 1482.55 327.702 1482.55 Q331.336 1482.55 333.142 1479.01 Q334.97 1475.44 334.97 1468.33 Q334.97 1461.2 333.142 1457.66 Q331.336 1454.1 327.702 1454.1 M327.702 1450.39 Q333.512 1450.39 336.568 1455 Q339.646 1459.58 339.646 1468.33 Q339.646 1477.06 336.568 1481.67 Q333.512 1486.25 327.702 1486.25 Q321.892 1486.25 318.813 1481.67 Q315.758 1477.06 315.758 1468.33 Q315.758 1459.58 318.813 1455 Q321.892 1450.39 327.702 1450.39 Z" fill="#000000" fill-rule="nonzero" fill-opacity="1" /><path clip-path="url(#clip330)" d="M630.227 1481.64 L637.866 1481.64 L637.866 1455.28 L629.556 1456.95 L629.556 1452.69 L637.82 1451.02 L642.496 1451.02 L642.496 1481.64 L650.135 1481.64 L650.135 1485.58 L630.227 1485.58 L630.227 1481.64 Z" fill="#000000" fill-rule="nonzero" fill-opacity="1" /><path clip-path="url(#clip330)" d="M669.579 1454.1 Q665.968 1454.1 664.139 1457.66 Q662.334 1461.2 662.334 1468.33 Q662.334 1475.44 664.139 1479.01 Q665.968 1482.55 669.579 1482.55 Q673.213 1482.55 675.019 1479.01 Q676.847 1475.44 676.847 1468.33 Q676.847 1461.2 675.019 1457.66 Q673.213 1454.1 669.579 1454.1 M669.579 1450.39 Q675.389 1450.39 678.445 1455 Q681.523 1459.58 681.523 1468.33 Q681.523 1477.06 678.445 1481.67 Q675.389 1486.25 669.579 1486.25 Q663.769 1486.25 660.69 1481.67 Q657.635 1477.06 657.635 1468.33 Q657.635 1459.58 660.69 1455 Q663.769 1450.39 669.579 1450.39 Z" fill="#000000" fill-rule="nonzero" fill-opacity="1" /><path clip-path="url(#clip330)" d="M962.151 1481.64 L978.47 1481.64 L978.47 1485.58 L956.526 1485.58 L956.526 1481.64 Q959.188 1478.89 963.771 1474.26 Q968.378 1469.61 969.558 1468.27 Q971.803 1465.74 972.683 1464.01 Q973.586 1462.25 973.586 1460.56 Q973.586 1457.8 971.641 1456.07 Q969.72 1454.33 966.618 1454.33 Q964.419 1454.33 961.966 1455.09 Q959.535 1455.86 956.757 1457.41 L956.757 1452.69 Q959.581 1451.55 962.035 1450.97 Q964.489 1450.39 966.526 1450.39 Q971.896 1450.39 975.09 1453.08 Q978.285 1455.77 978.285 1460.26 Q978.285 1462.39 977.475 1464.31 Q976.688 1466.2 974.581 1468.8 Q974.003 1469.47 970.901 1472.69 Q967.799 1475.88 962.151 1481.64 Z" fill="#000000" fill-rule="nonzero" fill-opacity="1" /><path clip-path="url(#clip330)" d="M998.285 1454.1 Q994.674 1454.1 992.845 1457.66 Q991.039 1461.2 991.039 1468.33 Q991.039 1475.44 992.845 1479.01 Q994.674 1482.55 998.285 1482.55 Q1001.92 1482.55 1003.72 1479.01 Q1005.55 1475.44 1005.55 1468.33 Q1005.55 1461.2 1003.72 1457.66 Q1001.92 1454.1 998.285 1454.1 M998.285 1450.39 Q1004.09 1450.39 1007.15 1455 Q1010.23 1459.58 1010.23 1468.33 Q1010.23 1477.06 1007.15 1481.67 Q1004.09 1486.25 998.285 1486.25 Q992.475 1486.25 989.396 1481.67 Q986.34 1477.06 986.34 1468.33 Q986.34 1459.58 989.396 1455 Q992.475 1450.39 998.285 1450.39 Z" fill="#000000" fill-rule="nonzero" fill-opacity="1" /><path clip-path="url(#clip330)" d="M1300.06 1466.95 Q1303.41 1467.66 1305.29 1469.93 Q1307.19 1472.2 1307.19 1475.53 Q1307.19 1480.65 1303.67 1483.45 Q1300.15 1486.25 1293.67 1486.25 Q1291.49 1486.25 1289.18 1485.81 Q1286.89 1485.39 1284.43 1484.54 L1284.43 1480.02 Q1286.38 1481.16 1288.69 1481.74 Q1291.01 1482.32 1293.53 1482.32 Q1297.93 1482.32 1300.22 1480.58 Q1302.53 1478.84 1302.53 1475.53 Q1302.53 1472.48 1300.38 1470.77 Q1298.25 1469.03 1294.43 1469.03 L1290.41 1469.03 L1290.41 1465.19 L1294.62 1465.19 Q1298.07 1465.19 1299.9 1463.82 Q1301.72 1462.43 1301.72 1459.84 Q1301.72 1457.18 1299.83 1455.77 Q1297.95 1454.33 1294.43 1454.33 Q1292.51 1454.33 1290.31 1454.75 Q1288.11 1455.16 1285.47 1456.04 L1285.47 1451.88 Q1288.14 1451.14 1290.45 1450.77 Q1292.79 1450.39 1294.85 1450.39 Q1300.17 1450.39 1303.28 1452.83 Q1306.38 1455.23 1306.38 1459.35 Q1306.38 1462.22 1304.73 1464.21 Q1303.09 1466.18 1300.06 1466.95 Z" fill="#000000" fill-rule="nonzero" fill-opacity="1" /><path clip-path="url(#clip330)" d="M1326.05 1454.1 Q1322.44 1454.1 1320.61 1457.66 Q1318.81 1461.2 1318.81 1468.33 Q1318.81 1475.44 1320.61 1479.01 Q1322.44 1482.55 1326.05 1482.55 Q1329.69 1482.55 1331.49 1479.01 Q1333.32 1475.44 1333.32 1468.33 Q1333.32 1461.2 1331.49 1457.66 Q1329.69 1454.1 1326.05 1454.1 M1326.05 1450.39 Q1331.86 1450.39 1334.92 1455 Q1338 1459.58 1338 1468.33 Q1338 1477.06 1334.92 1481.67 Q1331.86 1486.25 1326.05 1486.25 Q1320.24 1486.25 1317.16 1481.67 Q1314.11 1477.06 1314.11 1468.33 Q1314.11 1459.58 1317.16 1455 Q1320.24 1450.39 1326.05 1450.39 Z" fill="#000000" fill-rule="nonzero" fill-opacity="1" /><path clip-path="url(#clip330)" d="M1627.22 1455.09 L1615.42 1473.54 L1627.22 1473.54 L1627.22 1455.09 M1626 1451.02 L1631.88 1451.02 L1631.88 1473.54 L1636.81 1473.54 L1636.81 1477.43 L1631.88 1477.43 L1631.88 1485.58 L1627.22 1485.58 L1627.22 1477.43 L1611.62 1477.43 L1611.62 1472.92 L1626 1451.02 Z" fill="#000000" fill-rule="nonzero" fill-opacity="1" /><path clip-path="url(#clip330)" d="M1654.54 1454.1 Q1650.93 1454.1 1649.1 1457.66 Q1647.29 1461.2 1647.29 1468.33 Q1647.29 1475.44 1649.1 1479.01 Q1650.93 1482.55 1654.54 1482.55 Q1658.17 1482.55 1659.98 1479.01 Q1661.81 1475.44 1661.81 1468.33 Q1661.81 1461.2 1659.98 1457.66 Q1658.17 1454.1 1654.54 1454.1 M1654.54 1450.39 Q1660.35 1450.39 1663.4 1455 Q1666.48 1459.58 1666.48 1468.33 Q1666.48 1477.06 1663.4 1481.67 Q1660.35 1486.25 1654.54 1486.25 Q1648.73 1486.25 1645.65 1481.67 Q1642.59 1477.06 1642.59 1468.33 Q1642.59 1459.58 1645.65 1455 Q1648.73 1450.39 1654.54 1450.39 Z" fill="#000000" fill-rule="nonzero" fill-opacity="1" /><path clip-path="url(#clip330)" d="M1941.59 1451.02 L1959.95 1451.02 L1959.95 1454.96 L1945.87 1454.96 L1945.87 1463.43 Q1946.89 1463.08 1947.91 1462.92 Q1948.93 1462.73 1949.95 1462.73 Q1955.73 1462.73 1959.11 1465.9 Q1962.49 1469.08 1962.49 1474.49 Q1962.49 1480.07 1959.02 1483.17 Q1955.55 1486.25 1949.23 1486.25 Q1947.05 1486.25 1944.78 1485.88 Q1942.54 1485.51 1940.13 1484.77 L1940.13 1480.07 Q1942.22 1481.2 1944.44 1481.76 Q1946.66 1482.32 1949.14 1482.32 Q1953.14 1482.32 1955.48 1480.21 Q1957.82 1478.1 1957.82 1474.49 Q1957.82 1470.88 1955.48 1468.77 Q1953.14 1466.67 1949.14 1466.67 Q1947.26 1466.67 1945.39 1467.08 Q1943.53 1467.5 1941.59 1468.38 L1941.59 1451.02 Z" fill="#000000" fill-rule="nonzero" fill-opacity="1" /><path clip-path="url(#clip330)" d="M1981.71 1454.1 Q1978.09 1454.1 1976.27 1457.66 Q1974.46 1461.2 1974.46 1468.33 Q1974.46 1475.44 1976.27 1479.01 Q1978.09 1482.55 1981.71 1482.55 Q1985.34 1482.55 1987.15 1479.01 Q1988.97 1475.44 1988.97 1468.33 Q1988.97 1461.2 1987.15 1457.66 Q1985.34 1454.1 1981.71 1454.1 M1981.71 1450.39 Q1987.52 1450.39 1990.57 1455 Q1993.65 1459.58 1993.65 1468.33 Q1993.65 1477.06 1990.57 1481.67 Q1987.52 1486.25 1981.71 1486.25 Q1975.9 1486.25 1972.82 1481.67 Q1969.76 1477.06 1969.76 1468.33 Q1969.76 1459.58 1972.82 1455 Q1975.9 1450.39 1981.71 1450.39 Z" fill="#000000" fill-rule="nonzero" fill-opacity="1" /><path clip-path="url(#clip330)" d="M2280.13 1466.44 Q2276.99 1466.44 2275.13 1468.59 Q2273.31 1470.74 2273.31 1474.49 Q2273.31 1478.22 2275.13 1480.39 Q2276.99 1482.55 2280.13 1482.55 Q2283.28 1482.55 2285.11 1480.39 Q2286.96 1478.22 2286.96 1474.49 Q2286.96 1470.74 2285.11 1468.59 Q2283.28 1466.44 2280.13 1466.44 M2289.42 1451.78 L2289.42 1456.04 Q2287.66 1455.21 2285.85 1454.77 Q2284.07 1454.33 2282.31 1454.33 Q2277.68 1454.33 2275.23 1457.45 Q2272.8 1460.58 2272.45 1466.9 Q2273.81 1464.89 2275.87 1463.82 Q2277.93 1462.73 2280.41 1462.73 Q2285.62 1462.73 2288.63 1465.9 Q2291.66 1469.05 2291.66 1474.49 Q2291.66 1479.82 2288.51 1483.03 Q2285.37 1486.25 2280.13 1486.25 Q2274.14 1486.25 2270.97 1481.67 Q2267.8 1477.06 2267.8 1468.33 Q2267.8 1460.14 2271.68 1455.28 Q2275.57 1450.39 2282.12 1450.39 Q2283.88 1450.39 2285.67 1450.74 Q2287.47 1451.09 2289.42 1451.78 Z" fill="#000000" fill-rule="nonzero" fill-opacity="1" /><path clip-path="url(#clip330)" d="M2309.72 1454.1 Q2306.11 1454.1 2304.28 1457.66 Q2302.47 1461.2 2302.47 1468.33 Q2302.47 1475.44 2304.28 1479.01 Q2306.11 1482.55 2309.72 1482.55 Q2313.35 1482.55 2315.16 1479.01 Q2316.99 1475.44 2316.99 1468.33 Q2316.99 1461.2 2315.16 1457.66 Q2313.35 1454.1 2309.72 1454.1 M2309.72 1450.39 Q2315.53 1450.39 2318.58 1455 Q2321.66 1459.58 2321.66 1468.33 Q2321.66 1477.06 2318.58 1481.67 Q2315.53 1486.25 2309.72 1486.25 Q2303.91 1486.25 2300.83 1481.67 Q2297.77 1477.06 2297.77 1468.33 Q2297.77 1459.58 2300.83 1455 Q2303.91 1450.39 2309.72 1450.39 Z" fill="#000000" fill-rule="nonzero" fill-opacity="1" /><path clip-path="url(#clip330)" d="M1136.81 1520.52 L1166.86 1520.52 L1166.86 1525.93 L1143.24 1525.93 L1143.24 1540 L1165.87 1540 L1165.87 1545.41 L1143.24 1545.41 L1143.24 1562.63 L1167.43 1562.63 L1167.43 1568.04 L1136.81 1568.04 L1136.81 1520.52 Z" fill="#000000" fill-rule="nonzero" fill-opacity="1" /><path clip-path="url(#clip330)" d="M1178 1520.52 L1187.58 1520.52 L1199.7 1552.86 L1211.89 1520.52 L1221.47 1520.52 L1221.47 1568.04 L1215.2 1568.04 L1215.2 1526.32 L1202.95 1558.91 L1196.49 1558.91 L1184.24 1526.32 L1184.24 1568.04 L1178 1568.04 L1178 1520.52 Z" fill="#000000" fill-rule="nonzero" fill-opacity="1" /><path clip-path="url(#clip330)" d="M1254.7 1532.4 L1260.56 1532.4 L1260.56 1568.04 L1254.7 1568.04 L1254.7 1532.4 M1254.7 1518.52 L1260.56 1518.52 L1260.56 1525.93 L1254.7 1525.93 L1254.7 1518.52 Z" fill="#000000" fill-rule="nonzero" fill-opacity="1" /><path clip-path="url(#clip330)" d="M1278.61 1522.27 L1278.61 1532.4 L1290.67 1532.4 L1290.67 1536.95 L1278.61 1536.95 L1278.61 1556.3 Q1278.61 1560.66 1279.78 1561.9 Q1280.99 1563.14 1284.65 1563.14 L1290.67 1563.14 L1290.67 1568.04 L1284.65 1568.04 Q1277.88 1568.04 1275.3 1565.53 Q1272.72 1562.98 1272.72 1556.3 L1272.72 1536.95 L1268.42 1536.95 L1268.42 1532.4 L1272.72 1532.4 L1272.72 1522.27 L1278.61 1522.27 Z" fill="#000000" fill-rule="nonzero" fill-opacity="1" /><path clip-path="url(#clip330)" d="M1328.86 1548.76 L1328.86 1551.62 L1301.94 1551.62 Q1302.32 1557.67 1305.57 1560.85 Q1308.84 1564 1314.67 1564 Q1318.04 1564 1321.19 1563.17 Q1324.38 1562.35 1327.5 1560.69 L1327.5 1566.23 Q1324.34 1567.57 1321.03 1568.27 Q1317.72 1568.97 1314.32 1568.97 Q1305.79 1568.97 1300.79 1564 Q1295.83 1559.04 1295.83 1550.57 Q1295.83 1541.82 1300.54 1536.69 Q1305.28 1531.54 1313.3 1531.54 Q1320.49 1531.54 1324.66 1536.18 Q1328.86 1540.8 1328.86 1548.76 M1323.01 1547.04 Q1322.94 1542.23 1320.3 1539.37 Q1317.69 1536.5 1313.36 1536.5 Q1308.46 1536.5 1305.5 1539.27 Q1302.57 1542.04 1302.13 1547.07 L1323.01 1547.04 Z" fill="#000000" fill-rule="nonzero" fill-opacity="1" /><path clip-path="url(#clip330)" d="M1359.13 1537.87 Q1358.15 1537.3 1356.97 1537.04 Q1355.82 1536.76 1354.42 1536.76 Q1349.46 1536.76 1346.78 1540 Q1344.14 1543.22 1344.14 1549.27 L1344.14 1568.04 L1338.25 1568.04 L1338.25 1532.4 L1344.14 1532.4 L1344.14 1537.93 Q1345.99 1534.69 1348.95 1533.13 Q1351.91 1531.54 1356.14 1531.54 Q1356.75 1531.54 1357.48 1531.63 Q1358.21 1531.7 1359.1 1531.85 L1359.13 1537.87 Z" fill="#000000" fill-rule="nonzero" fill-opacity="1" /><path clip-path="url(#clip330)" d="M1381.48 1550.12 Q1374.38 1550.12 1371.64 1551.75 Q1368.9 1553.37 1368.9 1557.29 Q1368.9 1560.4 1370.94 1562.25 Q1373.01 1564.07 1376.54 1564.07 Q1381.41 1564.07 1384.34 1560.63 Q1387.3 1557.16 1387.3 1551.43 L1387.3 1550.12 L1381.48 1550.12 M1393.16 1547.71 L1393.16 1568.04 L1387.3 1568.04 L1387.3 1562.63 Q1385.3 1565.88 1382.3 1567.44 Q1379.31 1568.97 1374.98 1568.97 Q1369.51 1568.97 1366.26 1565.91 Q1363.05 1562.82 1363.05 1557.67 Q1363.05 1551.65 1367.06 1548.6 Q1371.1 1545.54 1379.09 1545.54 L1387.3 1545.54 L1387.3 1544.97 Q1387.3 1540.93 1384.63 1538.73 Q1381.99 1536.5 1377.18 1536.5 Q1374.12 1536.5 1371.23 1537.23 Q1368.33 1537.97 1365.66 1539.43 L1365.66 1534.02 Q1368.87 1532.78 1371.9 1532.17 Q1374.92 1531.54 1377.78 1531.54 Q1385.52 1531.54 1389.34 1535.55 Q1393.16 1539.56 1393.16 1547.71 Z" fill="#000000" fill-rule="nonzero" fill-opacity="1" /><path clip-path="url(#clip330)" d="M1411.01 1522.27 L1411.01 1532.4 L1423.08 1532.4 L1423.08 1536.95 L1411.01 1536.95 L1411.01 1556.3 Q1411.01 1560.66 1412.19 1561.9 Q1413.4 1563.14 1417.06 1563.14 L1423.08 1563.14 L1423.08 1568.04 L1417.06 1568.04 Q1410.28 1568.04 1407.7 1565.53 Q1405.13 1562.98 1405.13 1556.3 L1405.13 1536.95 L1400.83 1536.95 L1400.83 1532.4 L1405.13 1532.4 L1405.13 1522.27 L1411.01 1522.27 Z" fill="#000000" fill-rule="nonzero" fill-opacity="1" /><path clip-path="url(#clip330)" d="M1430.78 1532.4 L1436.64 1532.4 L1436.64 1568.04 L1430.78 1568.04 L1430.78 1532.4 M1430.78 1518.52 L1436.64 1518.52 L1436.64 1525.93 L1430.78 1525.93 L1430.78 1518.52 Z" fill="#000000" fill-rule="nonzero" fill-opacity="1" /><path clip-path="url(#clip330)" d="M1462.7 1536.5 Q1457.99 1536.5 1455.26 1540.19 Q1452.52 1543.85 1452.52 1550.25 Q1452.52 1556.65 1455.22 1560.34 Q1457.96 1564 1462.7 1564 Q1467.38 1564 1470.12 1560.31 Q1472.86 1556.62 1472.86 1550.25 Q1472.86 1543.92 1470.12 1540.23 Q1467.38 1536.5 1462.7 1536.5 M1462.7 1531.54 Q1470.34 1531.54 1474.7 1536.5 Q1479.06 1541.47 1479.06 1550.25 Q1479.06 1559 1474.7 1564 Q1470.34 1568.97 1462.7 1568.97 Q1455.03 1568.97 1450.67 1564 Q1446.34 1559 1446.34 1550.25 Q1446.34 1541.47 1450.67 1536.5 Q1455.03 1531.54 1462.7 1531.54 Z" fill="#000000" fill-rule="nonzero" fill-opacity="1" /><path clip-path="url(#clip330)" d="M1518.4 1546.53 L1518.4 1568.04 L1512.55 1568.04 L1512.55 1546.72 Q1512.55 1541.66 1510.57 1539.14 Q1508.6 1536.63 1504.65 1536.63 Q1499.91 1536.63 1497.17 1539.65 Q1494.44 1542.68 1494.44 1547.9 L1494.44 1568.04 L1488.55 1568.04 L1488.55 1532.4 L1494.44 1532.4 L1494.44 1537.93 Q1496.54 1534.72 1499.37 1533.13 Q1502.23 1531.54 1505.96 1531.54 Q1512.1 1531.54 1515.25 1535.36 Q1518.4 1539.14 1518.4 1546.53 Z" fill="#000000" fill-rule="nonzero" fill-opacity="1" /><polyline clip-path="url(#clip330)" style="stroke:#000000; stroke-linecap:round; stroke-linejoin:round; stroke-width:4; stroke-opacity:1; fill:none" points="302.458,1423.18 302.458,140.752 "/>
<polyline clip-path="url(#clip330)" style="stroke:#000000; stroke-linecap:round; stroke-linejoin:round; stroke-width:4; stroke-opacity:1; fill:none" points="302.458,1329.61 321.356,1329.61 "/>
<polyline clip-path="url(#clip330)" style="stroke:#000000; stroke-linecap:round; stroke-linejoin:round; stroke-width:4; stroke-opacity:1; fill:none" points="302.458,1156.71 321.356,1156.71 "/>
<polyline clip-path="url(#clip330)" style="stroke:#000000; stroke-linecap:round; stroke-linejoin:round; stroke-width:4; stroke-opacity:1; fill:none" points="302.458,983.814 321.356,983.814 "/>
<polyline clip-path="url(#clip330)" style="stroke:#000000; stroke-linecap:round; stroke-linejoin:round; stroke-width:4; stroke-opacity:1; fill:none" points="302.458,810.914 321.356,810.914 "/>
<polyline clip-path="url(#clip330)" style="stroke:#000000; stroke-linecap:round; stroke-linejoin:round; stroke-width:4; stroke-opacity:1; fill:none" points="302.458,638.015 321.356,638.015 "/>
<polyline clip-path="url(#clip330)" style="stroke:#000000; stroke-linecap:round; stroke-linejoin:round; stroke-width:4; stroke-opacity:1; fill:none" points="302.458,465.115 321.356,465.115 "/>
<polyline clip-path="url(#clip330)" style="stroke:#000000; stroke-linecap:round; stroke-linejoin:round; stroke-width:4; stroke-opacity:1; fill:none" points="302.458,292.215 321.356,292.215 "/>
<path clip-path="url(#clip330)" d="M114.26 1330.07 L143.936 1330.07 L143.936 1334 L114.26 1334 L114.26 1330.07 Z" fill="#000000" fill-rule="nonzero" fill-opacity="1" /><path clip-path="url(#clip330)" d="M154.075 1312.33 L172.431 1312.33 L172.431 1316.27 L158.357 1316.27 L158.357 1324.74 Q159.376 1324.39 160.394 1324.23 Q161.413 1324.05 162.431 1324.05 Q168.218 1324.05 171.598 1327.22 Q174.977 1330.39 174.977 1335.81 Q174.977 1341.38 171.505 1344.49 Q168.033 1347.57 161.714 1347.57 Q159.538 1347.57 157.269 1347.19 Q155.024 1346.82 152.616 1346.08 L152.616 1341.38 Q154.7 1342.52 156.922 1343.07 Q159.144 1343.63 161.621 1343.63 Q165.626 1343.63 167.964 1341.52 Q170.302 1339.42 170.302 1335.81 Q170.302 1332.19 167.964 1330.09 Q165.626 1327.98 161.621 1327.98 Q159.746 1327.98 157.871 1328.4 Q156.019 1328.82 154.075 1329.69 L154.075 1312.33 Z" fill="#000000" fill-rule="nonzero" fill-opacity="1" /><path clip-path="url(#clip330)" d="M197.037 1316.41 L185.232 1334.86 L197.037 1334.86 L197.037 1316.41 M195.811 1312.33 L201.69 1312.33 L201.69 1334.86 L206.621 1334.86 L206.621 1338.75 L201.69 1338.75 L201.69 1346.89 L197.037 1346.89 L197.037 1338.75 L181.436 1338.75 L181.436 1334.23 L195.811 1312.33 Z" fill="#000000" fill-rule="nonzero" fill-opacity="1" /><path clip-path="url(#clip330)" d="M224.352 1315.41 Q220.741 1315.41 218.912 1318.98 Q217.107 1322.52 217.107 1329.65 Q217.107 1336.75 218.912 1340.32 Q220.741 1343.86 224.352 1343.86 Q227.986 1343.86 229.792 1340.32 Q231.621 1336.75 231.621 1329.65 Q231.621 1322.52 229.792 1318.98 Q227.986 1315.41 224.352 1315.41 M224.352 1311.71 Q230.162 1311.71 233.218 1316.32 Q236.297 1320.9 236.297 1329.65 Q236.297 1338.38 233.218 1342.98 Q230.162 1347.57 224.352 1347.57 Q218.542 1347.57 215.463 1342.98 Q212.408 1338.38 212.408 1329.65 Q212.408 1320.9 215.463 1316.32 Q218.542 1311.71 224.352 1311.71 Z" fill="#000000" fill-rule="nonzero" fill-opacity="1" /><path clip-path="url(#clip330)" d="M254.514 1315.41 Q250.903 1315.41 249.074 1318.98 Q247.269 1322.52 247.269 1329.65 Q247.269 1336.75 249.074 1340.32 Q250.903 1343.86 254.514 1343.86 Q258.148 1343.86 259.954 1340.32 Q261.783 1336.75 261.783 1329.65 Q261.783 1322.52 259.954 1318.98 Q258.148 1315.41 254.514 1315.41 M254.514 1311.71 Q260.324 1311.71 263.38 1316.32 Q266.458 1320.9 266.458 1329.65 Q266.458 1338.38 263.38 1342.98 Q260.324 1347.57 254.514 1347.57 Q248.704 1347.57 245.625 1342.98 Q242.57 1338.38 242.57 1329.65 Q242.57 1320.9 245.625 1316.32 Q248.704 1311.71 254.514 1311.71 Z" fill="#000000" fill-rule="nonzero" fill-opacity="1" /><path clip-path="url(#clip330)" d="M114.26 1157.17 L143.936 1157.17 L143.936 1161.1 L114.26 1161.1 L114.26 1157.17 Z" fill="#000000" fill-rule="nonzero" fill-opacity="1" /><path clip-path="url(#clip330)" d="M154.075 1139.43 L172.431 1139.43 L172.431 1143.37 L158.357 1143.37 L158.357 1151.84 Q159.376 1151.49 160.394 1151.33 Q161.413 1151.15 162.431 1151.15 Q168.218 1151.15 171.598 1154.32 Q174.977 1157.49 174.977 1162.91 Q174.977 1168.48 171.505 1171.59 Q168.033 1174.67 161.714 1174.67 Q159.538 1174.67 157.269 1174.29 Q155.024 1173.92 152.616 1173.18 L152.616 1168.48 Q154.7 1169.62 156.922 1170.17 Q159.144 1170.73 161.621 1170.73 Q165.626 1170.73 167.964 1168.62 Q170.302 1166.52 170.302 1162.91 Q170.302 1159.3 167.964 1157.19 Q165.626 1155.08 161.621 1155.08 Q159.746 1155.08 157.871 1155.5 Q156.019 1155.92 154.075 1156.8 L154.075 1139.43 Z" fill="#000000" fill-rule="nonzero" fill-opacity="1" /><path clip-path="url(#clip330)" d="M198.357 1155.36 Q201.713 1156.08 203.588 1158.35 Q205.487 1160.61 205.487 1163.95 Q205.487 1169.06 201.968 1171.86 Q198.45 1174.67 191.968 1174.67 Q189.792 1174.67 187.477 1174.23 Q185.186 1173.81 182.732 1172.95 L182.732 1168.44 Q184.676 1169.57 186.991 1170.15 Q189.306 1170.73 191.829 1170.73 Q196.227 1170.73 198.519 1168.99 Q200.834 1167.26 200.834 1163.95 Q200.834 1160.89 198.681 1159.18 Q196.551 1157.44 192.732 1157.44 L188.704 1157.44 L188.704 1153.6 L192.917 1153.6 Q196.366 1153.6 198.195 1152.23 Q200.024 1150.85 200.024 1148.25 Q200.024 1145.59 198.125 1144.18 Q196.25 1142.74 192.732 1142.74 Q190.811 1142.74 188.612 1143.16 Q186.413 1143.58 183.774 1144.46 L183.774 1140.29 Q186.436 1139.55 188.75 1139.18 Q191.088 1138.81 193.149 1138.81 Q198.473 1138.81 201.575 1141.24 Q204.676 1143.65 204.676 1147.77 Q204.676 1150.64 203.033 1152.63 Q201.389 1154.6 198.357 1155.36 Z" fill="#000000" fill-rule="nonzero" fill-opacity="1" /><path clip-path="url(#clip330)" d="M224.352 1142.51 Q220.741 1142.51 218.912 1146.08 Q217.107 1149.62 217.107 1156.75 Q217.107 1163.86 218.912 1167.42 Q220.741 1170.96 224.352 1170.96 Q227.986 1170.96 229.792 1167.42 Q231.621 1163.86 231.621 1156.75 Q231.621 1149.62 229.792 1146.08 Q227.986 1142.51 224.352 1142.51 M224.352 1138.81 Q230.162 1138.81 233.218 1143.42 Q236.297 1148 236.297 1156.75 Q236.297 1165.48 233.218 1170.08 Q230.162 1174.67 224.352 1174.67 Q218.542 1174.67 215.463 1170.08 Q212.408 1165.48 212.408 1156.75 Q212.408 1148 215.463 1143.42 Q218.542 1138.81 224.352 1138.81 Z" fill="#000000" fill-rule="nonzero" fill-opacity="1" /><path clip-path="url(#clip330)" d="M254.514 1142.51 Q250.903 1142.51 249.074 1146.08 Q247.269 1149.62 247.269 1156.75 Q247.269 1163.86 249.074 1167.42 Q250.903 1170.96 254.514 1170.96 Q258.148 1170.96 259.954 1167.42 Q261.783 1163.86 261.783 1156.75 Q261.783 1149.62 259.954 1146.08 Q258.148 1142.51 254.514 1142.51 M254.514 1138.81 Q260.324 1138.81 263.38 1143.42 Q266.458 1148 266.458 1156.75 Q266.458 1165.48 263.38 1170.08 Q260.324 1174.67 254.514 1174.67 Q248.704 1174.67 245.625 1170.08 Q242.57 1165.48 242.57 1156.75 Q242.57 1148 245.625 1143.42 Q248.704 1138.81 254.514 1138.81 Z" fill="#000000" fill-rule="nonzero" fill-opacity="1" /><path clip-path="url(#clip330)" d="M114.26 984.266 L143.936 984.266 L143.936 988.201 L114.26 988.201 L114.26 984.266 Z" fill="#000000" fill-rule="nonzero" fill-opacity="1" /><path clip-path="url(#clip330)" d="M154.075 966.534 L172.431 966.534 L172.431 970.469 L158.357 970.469 L158.357 978.942 Q159.376 978.594 160.394 978.432 Q161.413 978.247 162.431 978.247 Q168.218 978.247 171.598 981.418 Q174.977 984.59 174.977 990.006 Q174.977 995.585 171.505 998.687 Q168.033 1001.77 161.714 1001.77 Q159.538 1001.77 157.269 1001.4 Q155.024 1001.02 152.616 1000.28 L152.616 995.585 Q154.7 996.719 156.922 997.275 Q159.144 997.83 161.621 997.83 Q165.626 997.83 167.964 995.724 Q170.302 993.617 170.302 990.006 Q170.302 986.395 167.964 984.289 Q165.626 982.182 161.621 982.182 Q159.746 982.182 157.871 982.599 Q156.019 983.016 154.075 983.895 L154.075 966.534 Z" fill="#000000" fill-rule="nonzero" fill-opacity="1" /><path clip-path="url(#clip330)" d="M188.218 997.159 L204.537 997.159 L204.537 1001.09 L182.593 1001.09 L182.593 997.159 Q185.255 994.404 189.838 989.775 Q194.445 985.122 195.625 983.78 Q197.871 981.256 198.75 979.52 Q199.653 977.761 199.653 976.071 Q199.653 973.317 197.709 971.581 Q195.787 969.844 192.686 969.844 Q190.487 969.844 188.033 970.608 Q185.602 971.372 182.825 972.923 L182.825 968.201 Q185.649 967.067 188.102 966.488 Q190.556 965.909 192.593 965.909 Q197.963 965.909 201.158 968.594 Q204.352 971.28 204.352 975.77 Q204.352 977.9 203.542 979.821 Q202.755 981.719 200.649 984.312 Q200.07 984.983 196.968 988.201 Q193.866 991.395 188.218 997.159 Z" fill="#000000" fill-rule="nonzero" fill-opacity="1" /><path clip-path="url(#clip330)" d="M224.352 969.613 Q220.741 969.613 218.912 973.178 Q217.107 976.719 217.107 983.849 Q217.107 990.955 218.912 994.52 Q220.741 998.062 224.352 998.062 Q227.986 998.062 229.792 994.52 Q231.621 990.955 231.621 983.849 Q231.621 976.719 229.792 973.178 Q227.986 969.613 224.352 969.613 M224.352 965.909 Q230.162 965.909 233.218 970.516 Q236.297 975.099 236.297 983.849 Q236.297 992.576 233.218 997.182 Q230.162 1001.77 224.352 1001.77 Q218.542 1001.77 215.463 997.182 Q212.408 992.576 212.408 983.849 Q212.408 975.099 215.463 970.516 Q218.542 965.909 224.352 965.909 Z" fill="#000000" fill-rule="nonzero" fill-opacity="1" /><path clip-path="url(#clip330)" d="M254.514 969.613 Q250.903 969.613 249.074 973.178 Q247.269 976.719 247.269 983.849 Q247.269 990.955 249.074 994.52 Q250.903 998.062 254.514 998.062 Q258.148 998.062 259.954 994.52 Q261.783 990.955 261.783 983.849 Q261.783 976.719 259.954 973.178 Q258.148 969.613 254.514 969.613 M254.514 965.909 Q260.324 965.909 263.38 970.516 Q266.458 975.099 266.458 983.849 Q266.458 992.576 263.38 997.182 Q260.324 1001.77 254.514 1001.77 Q248.704 1001.77 245.625 997.182 Q242.57 992.576 242.57 983.849 Q242.57 975.099 245.625 970.516 Q248.704 965.909 254.514 965.909 Z" fill="#000000" fill-rule="nonzero" fill-opacity="1" /><path clip-path="url(#clip330)" d="M114.26 811.366 L143.936 811.366 L143.936 815.301 L114.26 815.301 L114.26 811.366 Z" fill="#000000" fill-rule="nonzero" fill-opacity="1" /><path clip-path="url(#clip330)" d="M154.075 793.634 L172.431 793.634 L172.431 797.57 L158.357 797.57 L158.357 806.042 Q159.376 805.695 160.394 805.533 Q161.413 805.347 162.431 805.347 Q168.218 805.347 171.598 808.519 Q174.977 811.69 174.977 817.107 Q174.977 822.685 171.505 825.787 Q168.033 828.866 161.714 828.866 Q159.538 828.866 157.269 828.495 Q155.024 828.125 152.616 827.384 L152.616 822.685 Q154.7 823.82 156.922 824.375 Q159.144 824.931 161.621 824.931 Q165.626 824.931 167.964 822.824 Q170.302 820.718 170.302 817.107 Q170.302 813.495 167.964 811.389 Q165.626 809.283 161.621 809.283 Q159.746 809.283 157.871 809.699 Q156.019 810.116 154.075 810.996 L154.075 793.634 Z" fill="#000000" fill-rule="nonzero" fill-opacity="1" /><path clip-path="url(#clip330)" d="M185.001 824.259 L192.639 824.259 L192.639 797.894 L184.329 799.56 L184.329 795.301 L192.593 793.634 L197.269 793.634 L197.269 824.259 L204.908 824.259 L204.908 828.194 L185.001 828.194 L185.001 824.259 Z" fill="#000000" fill-rule="nonzero" fill-opacity="1" /><path clip-path="url(#clip330)" d="M224.352 796.713 Q220.741 796.713 218.912 800.278 Q217.107 803.82 217.107 810.949 Q217.107 818.056 218.912 821.62 Q220.741 825.162 224.352 825.162 Q227.986 825.162 229.792 821.62 Q231.621 818.056 231.621 810.949 Q231.621 803.82 229.792 800.278 Q227.986 796.713 224.352 796.713 M224.352 793.009 Q230.162 793.009 233.218 797.616 Q236.297 802.199 236.297 810.949 Q236.297 819.676 233.218 824.282 Q230.162 828.866 224.352 828.866 Q218.542 828.866 215.463 824.282 Q212.408 819.676 212.408 810.949 Q212.408 802.199 215.463 797.616 Q218.542 793.009 224.352 793.009 Z" fill="#000000" fill-rule="nonzero" fill-opacity="1" /><path clip-path="url(#clip330)" d="M254.514 796.713 Q250.903 796.713 249.074 800.278 Q247.269 803.82 247.269 810.949 Q247.269 818.056 249.074 821.62 Q250.903 825.162 254.514 825.162 Q258.148 825.162 259.954 821.62 Q261.783 818.056 261.783 810.949 Q261.783 803.82 259.954 800.278 Q258.148 796.713 254.514 796.713 M254.514 793.009 Q260.324 793.009 263.38 797.616 Q266.458 802.199 266.458 810.949 Q266.458 819.676 263.38 824.282 Q260.324 828.866 254.514 828.866 Q248.704 828.866 245.625 824.282 Q242.57 819.676 242.57 810.949 Q242.57 802.199 245.625 797.616 Q248.704 793.009 254.514 793.009 Z" fill="#000000" fill-rule="nonzero" fill-opacity="1" /><path clip-path="url(#clip330)" d="M114.26 638.466 L143.936 638.466 L143.936 642.401 L114.26 642.401 L114.26 638.466 Z" fill="#000000" fill-rule="nonzero" fill-opacity="1" /><path clip-path="url(#clip330)" d="M154.075 620.735 L172.431 620.735 L172.431 624.67 L158.357 624.67 L158.357 633.142 Q159.376 632.795 160.394 632.633 Q161.413 632.448 162.431 632.448 Q168.218 632.448 171.598 635.619 Q174.977 638.79 174.977 644.207 Q174.977 649.785 171.505 652.887 Q168.033 655.966 161.714 655.966 Q159.538 655.966 157.269 655.596 Q155.024 655.225 152.616 654.485 L152.616 649.785 Q154.7 650.92 156.922 651.475 Q159.144 652.031 161.621 652.031 Q165.626 652.031 167.964 649.924 Q170.302 647.818 170.302 644.207 Q170.302 640.596 167.964 638.489 Q165.626 636.383 161.621 636.383 Q159.746 636.383 157.871 636.799 Q156.019 637.216 154.075 638.096 L154.075 620.735 Z" fill="#000000" fill-rule="nonzero" fill-opacity="1" /><path clip-path="url(#clip330)" d="M194.19 623.813 Q190.579 623.813 188.75 627.378 Q186.945 630.92 186.945 638.049 Q186.945 645.156 188.75 648.721 Q190.579 652.262 194.19 652.262 Q197.825 652.262 199.63 648.721 Q201.459 645.156 201.459 638.049 Q201.459 630.92 199.63 627.378 Q197.825 623.813 194.19 623.813 M194.19 620.11 Q200 620.11 203.056 624.716 Q206.135 629.299 206.135 638.049 Q206.135 646.776 203.056 651.383 Q200 655.966 194.19 655.966 Q188.38 655.966 185.301 651.383 Q182.246 646.776 182.246 638.049 Q182.246 629.299 185.301 624.716 Q188.38 620.11 194.19 620.11 Z" fill="#000000" fill-rule="nonzero" fill-opacity="1" /><path clip-path="url(#clip330)" d="M224.352 623.813 Q220.741 623.813 218.912 627.378 Q217.107 630.92 217.107 638.049 Q217.107 645.156 218.912 648.721 Q220.741 652.262 224.352 652.262 Q227.986 652.262 229.792 648.721 Q231.621 645.156 231.621 638.049 Q231.621 630.92 229.792 627.378 Q227.986 623.813 224.352 623.813 M224.352 620.11 Q230.162 620.11 233.218 624.716 Q236.297 629.299 236.297 638.049 Q236.297 646.776 233.218 651.383 Q230.162 655.966 224.352 655.966 Q218.542 655.966 215.463 651.383 Q212.408 646.776 212.408 638.049 Q212.408 629.299 215.463 624.716 Q218.542 620.11 224.352 620.11 Z" fill="#000000" fill-rule="nonzero" fill-opacity="1" /><path clip-path="url(#clip330)" d="M254.514 623.813 Q250.903 623.813 249.074 627.378 Q247.269 630.92 247.269 638.049 Q247.269 645.156 249.074 648.721 Q250.903 652.262 254.514 652.262 Q258.148 652.262 259.954 648.721 Q261.783 645.156 261.783 638.049 Q261.783 630.92 259.954 627.378 Q258.148 623.813 254.514 623.813 M254.514 620.11 Q260.324 620.11 263.38 624.716 Q266.458 629.299 266.458 638.049 Q266.458 646.776 263.38 651.383 Q260.324 655.966 254.514 655.966 Q248.704 655.966 245.625 651.383 Q242.57 646.776 242.57 638.049 Q242.57 629.299 245.625 624.716 Q248.704 620.11 254.514 620.11 Z" fill="#000000" fill-rule="nonzero" fill-opacity="1" /><path clip-path="url(#clip330)" d="M114.26 465.566 L143.936 465.566 L143.936 469.502 L114.26 469.502 L114.26 465.566 Z" fill="#000000" fill-rule="nonzero" fill-opacity="1" /><path clip-path="url(#clip330)" d="M166.876 451.909 L155.07 470.358 L166.876 470.358 L166.876 451.909 M165.649 447.835 L171.528 447.835 L171.528 470.358 L176.459 470.358 L176.459 474.247 L171.528 474.247 L171.528 482.395 L166.876 482.395 L166.876 474.247 L151.274 474.247 L151.274 469.733 L165.649 447.835 Z" fill="#000000" fill-rule="nonzero" fill-opacity="1" /><path clip-path="url(#clip330)" d="M184.329 481.677 L184.329 477.418 Q186.088 478.251 187.894 478.691 Q189.7 479.131 191.436 479.131 Q196.065 479.131 198.496 476.029 Q200.95 472.904 201.297 466.562 Q199.954 468.552 197.894 469.617 Q195.834 470.682 193.334 470.682 Q188.149 470.682 185.116 467.557 Q182.107 464.409 182.107 458.969 Q182.107 453.645 185.255 450.428 Q188.403 447.21 193.635 447.21 Q199.63 447.21 202.778 451.816 Q205.949 456.4 205.949 465.15 Q205.949 473.321 202.061 478.205 Q198.195 483.066 191.644 483.066 Q189.885 483.066 188.079 482.719 Q186.274 482.372 184.329 481.677 M193.635 467.025 Q196.783 467.025 198.612 464.872 Q200.463 462.719 200.463 458.969 Q200.463 455.242 198.612 453.09 Q196.783 450.914 193.635 450.914 Q190.487 450.914 188.635 453.09 Q186.806 455.242 186.806 458.969 Q186.806 462.719 188.635 464.872 Q190.487 467.025 193.635 467.025 Z" fill="#000000" fill-rule="nonzero" fill-opacity="1" /><path clip-path="url(#clip330)" d="M224.352 450.914 Q220.741 450.914 218.912 454.478 Q217.107 458.02 217.107 465.15 Q217.107 472.256 218.912 475.821 Q220.741 479.363 224.352 479.363 Q227.986 479.363 229.792 475.821 Q231.621 472.256 231.621 465.15 Q231.621 458.02 229.792 454.478 Q227.986 450.914 224.352 450.914 M224.352 447.21 Q230.162 447.21 233.218 451.816 Q236.297 456.4 236.297 465.15 Q236.297 473.876 233.218 478.483 Q230.162 483.066 224.352 483.066 Q218.542 483.066 215.463 478.483 Q212.408 473.876 212.408 465.15 Q212.408 456.4 215.463 451.816 Q218.542 447.21 224.352 447.21 Z" fill="#000000" fill-rule="nonzero" fill-opacity="1" /><path clip-path="url(#clip330)" d="M254.514 450.914 Q250.903 450.914 249.074 454.478 Q247.269 458.02 247.269 465.15 Q247.269 472.256 249.074 475.821 Q250.903 479.363 254.514 479.363 Q258.148 479.363 259.954 475.821 Q261.783 472.256 261.783 465.15 Q261.783 458.02 259.954 454.478 Q258.148 450.914 254.514 450.914 M254.514 447.21 Q260.324 447.21 263.38 451.816 Q266.458 456.4 266.458 465.15 Q266.458 473.876 263.38 478.483 Q260.324 483.066 254.514 483.066 Q248.704 483.066 245.625 478.483 Q242.57 473.876 242.57 465.15 Q242.57 456.4 245.625 451.816 Q248.704 447.21 254.514 447.21 Z" fill="#000000" fill-rule="nonzero" fill-opacity="1" /><path clip-path="url(#clip330)" d="M114.26 292.667 L143.936 292.667 L143.936 296.602 L114.26 296.602 L114.26 292.667 Z" fill="#000000" fill-rule="nonzero" fill-opacity="1" /><path clip-path="url(#clip330)" d="M166.876 279.009 L155.07 297.458 L166.876 297.458 L166.876 279.009 M165.649 274.935 L171.528 274.935 L171.528 297.458 L176.459 297.458 L176.459 301.347 L171.528 301.347 L171.528 309.495 L166.876 309.495 L166.876 301.347 L151.274 301.347 L151.274 296.833 L165.649 274.935 Z" fill="#000000" fill-rule="nonzero" fill-opacity="1" /><path clip-path="url(#clip330)" d="M194.19 293.083 Q190.857 293.083 188.936 294.866 Q187.038 296.648 187.038 299.773 Q187.038 302.898 188.936 304.68 Q190.857 306.463 194.19 306.463 Q197.524 306.463 199.445 304.68 Q201.366 302.875 201.366 299.773 Q201.366 296.648 199.445 294.866 Q197.547 293.083 194.19 293.083 M189.514 291.093 Q186.505 290.352 184.815 288.292 Q183.149 286.231 183.149 283.268 Q183.149 279.125 186.088 276.718 Q189.051 274.31 194.19 274.31 Q199.352 274.31 202.292 276.718 Q205.232 279.125 205.232 283.268 Q205.232 286.231 203.542 288.292 Q201.875 290.352 198.889 291.093 Q202.269 291.88 204.144 294.171 Q206.042 296.463 206.042 299.773 Q206.042 304.796 202.963 307.481 Q199.908 310.166 194.19 310.166 Q188.473 310.166 185.394 307.481 Q182.338 304.796 182.338 299.773 Q182.338 296.463 184.237 294.171 Q186.135 291.88 189.514 291.093 M187.801 283.708 Q187.801 286.393 189.468 287.898 Q191.158 289.403 194.19 289.403 Q197.2 289.403 198.889 287.898 Q200.602 286.393 200.602 283.708 Q200.602 281.023 198.889 279.519 Q197.2 278.014 194.19 278.014 Q191.158 278.014 189.468 279.519 Q187.801 281.023 187.801 283.708 Z" fill="#000000" fill-rule="nonzero" fill-opacity="1" /><path clip-path="url(#clip330)" d="M224.352 278.014 Q220.741 278.014 218.912 281.579 Q217.107 285.12 217.107 292.25 Q217.107 299.356 218.912 302.921 Q220.741 306.463 224.352 306.463 Q227.986 306.463 229.792 302.921 Q231.621 299.356 231.621 292.25 Q231.621 285.12 229.792 281.579 Q227.986 278.014 224.352 278.014 M224.352 274.31 Q230.162 274.31 233.218 278.917 Q236.297 283.5 236.297 292.25 Q236.297 300.977 233.218 305.583 Q230.162 310.166 224.352 310.166 Q218.542 310.166 215.463 305.583 Q212.408 300.977 212.408 292.25 Q212.408 283.5 215.463 278.917 Q218.542 274.31 224.352 274.31 Z" fill="#000000" fill-rule="nonzero" fill-opacity="1" /><path clip-path="url(#clip330)" d="M254.514 278.014 Q250.903 278.014 249.074 281.579 Q247.269 285.12 247.269 292.25 Q247.269 299.356 249.074 302.921 Q250.903 306.463 254.514 306.463 Q258.148 306.463 259.954 302.921 Q261.783 299.356 261.783 292.25 Q261.783 285.12 259.954 281.579 Q258.148 278.014 254.514 278.014 M254.514 274.31 Q260.324 274.31 263.38 278.917 Q266.458 283.5 266.458 292.25 Q266.458 300.977 263.38 305.583 Q260.324 310.166 254.514 310.166 Q248.704 310.166 245.625 305.583 Q242.57 300.977 242.57 292.25 Q242.57 283.5 245.625 278.917 Q248.704 274.31 254.514 274.31 Z" fill="#000000" fill-rule="nonzero" fill-opacity="1" /><path clip-path="url(#clip330)" d="M21.7677 1074.22 L58.7206 1074.22 L58.7206 1066.45 Q58.7206 1056.61 54.2646 1052.06 Q49.8086 1047.48 40.1964 1047.48 Q30.6479 1047.48 26.2237 1052.06 Q21.7677 1056.61 21.7677 1066.45 L21.7677 1074.22 M16.4842 1080.64 L16.4842 1067.44 Q16.4842 1053.62 22.2451 1047.16 Q27.9743 1040.7 40.1964 1040.7 Q52.4822 1040.7 58.2432 1047.19 Q64.0042 1053.69 64.0042 1067.44 L64.0042 1080.64 L16.4842 1080.64 Z" fill="#000000" fill-rule="nonzero" fill-opacity="1" /><path clip-path="url(#clip330)" d="M46.0847 1014.51 Q46.0847 1021.6 47.7079 1024.34 Q49.3312 1027.08 53.2461 1027.08 Q56.3653 1027.08 58.2114 1025.04 Q60.0256 1022.97 60.0256 1019.44 Q60.0256 1014.57 56.5881 1011.64 Q53.1188 1008.68 47.3897 1008.68 L46.0847 1008.68 L46.0847 1014.51 M43.6657 1002.82 L64.0042 1002.82 L64.0042 1008.68 L58.5933 1008.68 Q61.8398 1010.69 63.3994 1013.68 Q64.9272 1016.67 64.9272 1021 Q64.9272 1026.47 61.8716 1029.72 Q58.7843 1032.93 53.6281 1032.93 Q47.6125 1032.93 44.5569 1028.92 Q41.5014 1024.88 41.5014 1016.89 L41.5014 1008.68 L40.9285 1008.68 Q36.8862 1008.68 34.6901 1011.35 Q32.4621 1014 32.4621 1018.8 Q32.4621 1021.86 33.1941 1024.75 Q33.9262 1027.65 35.3903 1030.32 L29.9795 1030.32 Q28.7381 1027.11 28.1334 1024.09 Q27.4968 1021.06 27.4968 1018.2 Q27.4968 1010.46 31.5072 1006.64 Q35.5176 1002.82 43.6657 1002.82 Z" fill="#000000" fill-rule="nonzero" fill-opacity="1" /><path clip-path="url(#clip330)" d="M18.2347 984.968 L28.3562 984.968 L28.3562 972.905 L32.9077 972.905 L32.9077 984.968 L52.2594 984.968 Q56.6199 984.968 57.8613 983.791 Q59.1026 982.581 59.1026 978.921 L59.1026 972.905 L64.0042 972.905 L64.0042 978.921 Q64.0042 985.7 61.4897 988.279 Q58.9434 990.857 52.2594 990.857 L32.9077 990.857 L32.9077 995.153 L28.3562 995.153 L28.3562 990.857 L18.2347 990.857 L18.2347 984.968 Z" fill="#000000" fill-rule="nonzero" fill-opacity="1" /><path clip-path="url(#clip330)" d="M46.0847 949.002 Q46.0847 956.1 47.7079 958.837 Q49.3312 961.574 53.2461 961.574 Q56.3653 961.574 58.2114 959.537 Q60.0256 957.469 60.0256 953.936 Q60.0256 949.066 56.5881 946.138 Q53.1188 943.178 47.3897 943.178 L46.0847 943.178 L46.0847 949.002 M43.6657 937.321 L64.0042 937.321 L64.0042 943.178 L58.5933 943.178 Q61.8398 945.183 63.3994 948.175 Q64.9272 951.166 64.9272 955.495 Q64.9272 960.97 61.8716 964.216 Q58.7843 967.431 53.6281 967.431 Q47.6125 967.431 44.5569 963.42 Q41.5014 959.378 41.5014 951.389 L41.5014 943.178 L40.9285 943.178 Q36.8862 943.178 34.6901 945.851 Q32.4621 948.493 32.4621 953.299 Q32.4621 956.355 33.1941 959.251 Q33.9262 962.147 35.3903 964.821 L29.9795 964.821 Q28.7381 961.606 28.1334 958.583 Q27.4968 955.559 27.4968 952.694 Q27.4968 944.96 31.5072 941.14 Q35.5176 937.321 43.6657 937.321 Z" fill="#000000" fill-rule="nonzero" fill-opacity="1" /><path clip-path="url(#clip330)" d="M14.479 904.538 L14.479 898.681 L64.0042 898.681 L64.0042 904.538 L14.479 904.538 Z" fill="#000000" fill-rule="nonzero" fill-opacity="1" /><path clip-path="url(#clip330)" d="M32.4621 872.614 Q32.4621 877.324 36.1542 880.062 Q39.8145 882.799 46.212 882.799 Q52.6095 882.799 56.3017 880.093 Q59.9619 877.356 59.9619 872.614 Q59.9619 867.935 56.2698 865.198 Q52.5777 862.46 46.212 862.46 Q39.8781 862.46 36.186 865.198 Q32.4621 867.935 32.4621 872.614 M27.4968 872.614 Q27.4968 864.975 32.4621 860.614 Q37.4273 856.254 46.212 856.254 Q54.9649 856.254 59.9619 860.614 Q64.9272 864.975 64.9272 872.614 Q64.9272 880.284 59.9619 884.645 Q54.9649 888.974 46.212 888.974 Q37.4273 888.974 32.4621 884.645 Q27.4968 880.284 27.4968 872.614 Z" fill="#000000" fill-rule="nonzero" fill-opacity="1" /><path clip-path="url(#clip330)" d="M45.7664 823.088 Q39.4007 823.088 35.8996 825.73 Q32.3984 828.34 32.3984 833.083 Q32.3984 837.793 35.8996 840.435 Q39.4007 843.045 45.7664 843.045 Q52.1003 843.045 55.6014 840.435 Q59.1026 837.793 59.1026 833.083 Q59.1026 828.34 55.6014 825.73 Q52.1003 823.088 45.7664 823.088 M59.58 817.232 Q68.683 817.232 73.1071 821.274 Q77.5631 825.316 77.5631 833.656 Q77.5631 836.743 77.0857 839.48 Q76.6401 842.217 75.6852 844.796 L69.9879 844.796 Q71.3884 842.217 72.0568 839.703 Q72.7252 837.188 72.7252 834.579 Q72.7252 828.818 69.7015 825.953 Q66.7096 823.088 60.6303 823.088 L57.7339 823.088 Q60.885 824.903 62.4446 827.735 Q64.0042 830.568 64.0042 834.515 Q64.0042 841.072 59.0071 845.082 Q54.01 849.092 45.7664 849.092 Q37.491 849.092 32.4939 845.082 Q27.4968 841.072 27.4968 834.515 Q27.4968 830.568 29.0564 827.735 Q30.616 824.903 33.7671 823.088 L28.3562 823.088 L28.3562 817.232 L59.58 817.232 Z" fill="#000000" fill-rule="nonzero" fill-opacity="1" /><path clip-path="url(#clip330)" d="M43.5384 808.129 L43.5384 790.973 L48.7583 790.973 L48.7583 808.129 L43.5384 808.129 Z" fill="#000000" fill-rule="nonzero" fill-opacity="1" /><path clip-path="url(#clip330)" d="M14.479 781.648 L14.479 775.791 L64.0042 775.791 L64.0042 781.648 L14.479 781.648 Z" fill="#000000" fill-rule="nonzero" fill-opacity="1" /><path clip-path="url(#clip330)" d="M28.3562 763.537 L28.3562 757.681 L64.0042 757.681 L64.0042 763.537 L28.3562 763.537 M14.479 763.537 L14.479 757.681 L21.895 757.681 L21.895 763.537 L14.479 763.537 Z" fill="#000000" fill-rule="nonzero" fill-opacity="1" /><path clip-path="url(#clip330)" d="M14.479 745.65 L14.479 739.761 L43.7294 739.761 L28.3562 722.287 L28.3562 714.808 L45.0344 733.714 L64.0042 714.012 L64.0042 721.651 L46.5939 739.761 L64.0042 739.761 L64.0042 745.65 L14.479 745.65 Z" fill="#000000" fill-rule="nonzero" fill-opacity="1" /><path clip-path="url(#clip330)" d="M44.7161 679.51 L47.5806 679.51 L47.5806 706.437 Q53.6281 706.055 56.8109 702.808 Q59.9619 699.53 59.9619 693.705 Q59.9619 690.332 59.1344 687.181 Q58.3069 683.998 56.6518 680.879 L62.1899 680.879 Q63.5267 684.03 64.227 687.34 Q64.9272 690.65 64.9272 694.056 Q64.9272 702.586 59.9619 707.583 Q54.9967 712.548 46.5303 712.548 Q37.7774 712.548 32.6531 707.837 Q27.4968 703.095 27.4968 695.074 Q27.4968 687.881 32.1438 683.711 Q36.7589 679.51 44.7161 679.51 M42.9973 685.366 Q38.1912 685.43 35.3266 688.072 Q32.4621 690.682 32.4621 695.01 Q32.4621 699.912 35.2312 702.872 Q38.0002 705.8 43.0292 706.246 L42.9973 685.366 Z" fill="#000000" fill-rule="nonzero" fill-opacity="1" /><path clip-path="url(#clip330)" d="M14.479 669.898 L14.479 664.041 L64.0042 664.041 L64.0042 669.898 L14.479 669.898 Z" fill="#000000" fill-rule="nonzero" fill-opacity="1" /><path clip-path="url(#clip330)" d="M28.3562 651.787 L28.3562 645.931 L64.0042 645.931 L64.0042 651.787 L28.3562 651.787 M14.479 651.787 L14.479 645.931 L21.895 645.931 L21.895 651.787 L14.479 651.787 Z" fill="#000000" fill-rule="nonzero" fill-opacity="1" /><path clip-path="url(#clip330)" d="M42.4881 604.044 L64.0042 604.044 L64.0042 609.901 L42.679 609.901 Q37.6183 609.901 35.1038 611.874 Q32.5894 613.848 32.5894 617.794 Q32.5894 622.537 35.6131 625.274 Q38.6368 628.011 43.8567 628.011 L64.0042 628.011 L64.0042 633.9 L14.479 633.9 L14.479 628.011 L33.8944 628.011 Q30.6797 625.911 29.0883 623.078 Q27.4968 620.213 27.4968 616.489 Q27.4968 610.347 31.3163 607.196 Q35.1038 604.044 42.4881 604.044 Z" fill="#000000" fill-rule="nonzero" fill-opacity="1" /><path clip-path="url(#clip330)" d="M32.4621 578.55 Q32.4621 583.26 36.1542 585.998 Q39.8145 588.735 46.212 588.735 Q52.6095 588.735 56.3017 586.03 Q59.9619 583.292 59.9619 578.55 Q59.9619 573.871 56.2698 571.134 Q52.5777 568.397 46.212 568.397 Q39.8781 568.397 36.186 571.134 Q32.4621 573.871 32.4621 578.55 M27.4968 578.55 Q27.4968 570.911 32.4621 566.55 Q37.4273 562.19 46.212 562.19 Q54.9649 562.19 59.9619 566.55 Q64.9272 570.911 64.9272 578.55 Q64.9272 586.221 59.9619 590.581 Q54.9649 594.91 46.212 594.91 Q37.4273 594.91 32.4621 590.581 Q27.4968 586.221 27.4968 578.55 Z" fill="#000000" fill-rule="nonzero" fill-opacity="1" /><path clip-path="url(#clip330)" d="M32.4621 538.669 Q32.4621 543.379 36.1542 546.117 Q39.8145 548.854 46.212 548.854 Q52.6095 548.854 56.3017 546.148 Q59.9619 543.411 59.9619 538.669 Q59.9619 533.99 56.2698 531.253 Q52.5777 528.515 46.212 528.515 Q39.8781 528.515 36.186 531.253 Q32.4621 533.99 32.4621 538.669 M27.4968 538.669 Q27.4968 531.03 32.4621 526.669 Q37.4273 522.309 46.212 522.309 Q54.9649 522.309 59.9619 526.669 Q64.9272 531.03 64.9272 538.669 Q64.9272 546.339 59.9619 550.7 Q54.9649 555.029 46.212 555.029 Q37.4273 555.029 32.4621 550.7 Q27.4968 546.339 27.4968 538.669 Z" fill="#000000" fill-rule="nonzero" fill-opacity="1" /><path clip-path="url(#clip330)" d="M33.7671 489.143 L14.479 489.143 L14.479 483.287 L64.0042 483.287 L64.0042 489.143 L58.657 489.143 Q61.8398 490.99 63.3994 493.822 Q64.9272 496.623 64.9272 500.57 Q64.9272 507.031 59.771 511.105 Q54.6147 515.147 46.212 515.147 Q37.8093 515.147 32.6531 511.105 Q27.4968 507.031 27.4968 500.57 Q27.4968 496.623 29.0564 493.822 Q30.5842 490.99 33.7671 489.143 M46.212 509.1 Q52.6732 509.1 56.3653 506.458 Q60.0256 503.785 60.0256 499.138 Q60.0256 494.491 56.3653 491.817 Q52.6732 489.143 46.212 489.143 Q39.7508 489.143 36.0905 491.817 Q32.3984 494.491 32.3984 499.138 Q32.3984 503.785 36.0905 506.458 Q39.7508 509.1 46.212 509.1 Z" fill="#000000" fill-rule="nonzero" fill-opacity="1" /><path clip-path="url(#clip330)" d="M510.476 25.7069 L510.476 40.3162 L517.091 40.3162 Q520.763 40.3162 522.768 38.4152 Q524.773 36.5141 524.773 32.9985 Q524.773 29.509 522.768 27.6079 Q520.763 25.7069 517.091 25.7069 L510.476 25.7069 M505.216 21.384 L517.091 21.384 Q523.627 21.384 526.96 24.3527 Q530.32 27.2954 530.32 32.9985 Q530.32 38.7537 526.96 41.6964 Q523.627 44.6391 517.091 44.6391 L510.476 44.6391 L510.476 60.264 L505.216 60.264 L505.216 21.384 Z" fill="#000000" fill-rule="nonzero" fill-opacity="1" /><path clip-path="url(#clip330)" d="M535.997 31.0975 L540.788 31.0975 L540.788 60.264 L535.997 60.264 L535.997 31.0975 M535.997 19.7434 L540.788 19.7434 L540.788 25.8111 L535.997 25.8111 L535.997 19.7434 Z" fill="#000000" fill-rule="nonzero" fill-opacity="1" /><path clip-path="url(#clip330)" d="M555.45 55.889 L555.45 71.3577 L550.632 71.3577 L550.632 31.0975 L555.45 31.0975 L555.45 35.5245 Q556.96 32.9204 559.252 31.6704 Q561.57 30.3944 564.773 30.3944 Q570.085 30.3944 573.392 34.6131 Q576.726 38.8318 576.726 45.7068 Q576.726 52.5817 573.392 56.8005 Q570.085 61.0192 564.773 61.0192 Q561.57 61.0192 559.252 59.7692 Q556.96 58.4932 555.45 55.889 M571.752 45.7068 Q571.752 40.4204 569.564 37.4256 Q567.403 34.4048 563.601 34.4048 Q559.799 34.4048 557.611 37.4256 Q555.45 40.4204 555.45 45.7068 Q555.45 50.9932 557.611 54.014 Q559.799 57.0088 563.601 57.0088 Q567.403 57.0088 569.564 54.014 Q571.752 50.9932 571.752 45.7068 Z" fill="#000000" fill-rule="nonzero" fill-opacity="1" /><path clip-path="url(#clip330)" d="M609.616 44.4828 L609.616 46.8266 L587.585 46.8266 Q587.898 51.7745 590.554 54.3786 Q593.236 56.9567 598.002 56.9567 Q600.762 56.9567 603.34 56.2796 Q605.944 55.6026 608.496 54.2484 L608.496 58.7796 Q605.918 59.8734 603.21 60.4463 Q600.502 61.0192 597.715 61.0192 Q590.736 61.0192 586.648 56.9567 Q582.585 52.8942 582.585 45.9672 Q582.585 38.8058 586.439 34.6131 Q590.319 30.3944 596.882 30.3944 Q602.767 30.3944 606.179 34.1964 Q609.616 37.9725 609.616 44.4828 M604.825 43.0766 Q604.772 39.1443 602.611 36.8006 Q600.476 34.4568 596.934 34.4568 Q592.924 34.4568 590.502 36.7225 Q588.106 38.9881 587.741 43.1026 L604.825 43.0766 Z" fill="#000000" fill-rule="nonzero" fill-opacity="1" /><path clip-path="url(#clip330)" d="M617.481 19.7434 L622.272 19.7434 L622.272 60.264 L617.481 60.264 L617.481 19.7434 Z" fill="#000000" fill-rule="nonzero" fill-opacity="1" /><path clip-path="url(#clip330)" d="M632.298 31.0975 L637.09 31.0975 L637.09 60.264 L632.298 60.264 L632.298 31.0975 M632.298 19.7434 L637.09 19.7434 L637.09 25.8111 L632.298 25.8111 L632.298 19.7434 Z" fill="#000000" fill-rule="nonzero" fill-opacity="1" /><path clip-path="url(#clip330)" d="M671.361 42.6599 L671.361 60.264 L666.569 60.264 L666.569 42.8162 Q666.569 38.6756 664.954 36.6183 Q663.34 34.561 660.111 34.561 Q656.231 34.561 653.991 37.035 Q651.751 39.5089 651.751 43.7797 L651.751 60.264 L646.934 60.264 L646.934 31.0975 L651.751 31.0975 L651.751 35.6287 Q653.47 32.9985 655.788 31.6964 Q658.132 30.3944 661.178 30.3944 Q666.204 30.3944 668.783 33.5194 Q671.361 36.6183 671.361 42.6599 Z" fill="#000000" fill-rule="nonzero" fill-opacity="1" /><path clip-path="url(#clip330)" d="M705.866 44.4828 L705.866 46.8266 L683.835 46.8266 Q684.147 51.7745 686.803 54.3786 Q689.486 56.9567 694.251 56.9567 Q697.012 56.9567 699.59 56.2796 Q702.194 55.6026 704.746 54.2484 L704.746 58.7796 Q702.168 59.8734 699.459 60.4463 Q696.751 61.0192 693.965 61.0192 Q686.986 61.0192 682.897 56.9567 Q678.835 52.8942 678.835 45.9672 Q678.835 38.8058 682.689 34.6131 Q686.569 30.3944 693.131 30.3944 Q699.017 30.3944 702.428 34.1964 Q705.866 37.9725 705.866 44.4828 M701.074 43.0766 Q701.022 39.1443 698.861 36.8006 Q696.725 34.4568 693.183 34.4568 Q689.173 34.4568 686.751 36.7225 Q684.355 38.9881 683.991 43.1026 L701.074 43.0766 Z" fill="#000000" fill-rule="nonzero" fill-opacity="1" /><path clip-path="url(#clip330)" d="M743.886 26.5663 L736.751 45.9151 L751.048 45.9151 L743.886 26.5663 M740.918 21.384 L746.881 21.384 L761.699 60.264 L756.23 60.264 L752.688 50.2901 L735.162 50.2901 L731.621 60.264 L726.074 60.264 L740.918 21.384 Z" fill="#000000" fill-rule="nonzero" fill-opacity="1" /><path clip-path="url(#clip330)" d="M781.699 43.7797 L829.823 43.7797 L829.823 47.5297 L781.699 47.5297 L781.699 43.7797 Z" fill="#000000" fill-rule="nonzero" fill-opacity="1" /><path clip-path="url(#clip330)" d="M859.875 41.6964 L859.875 55.9411 L868.313 55.9411 Q872.558 55.9411 874.589 54.1963 Q876.646 52.4255 876.646 48.8057 Q876.646 45.1599 874.589 43.4412 Q872.558 41.6964 868.313 41.6964 L859.875 41.6964 M859.875 25.7069 L859.875 37.4256 L867.662 37.4256 Q871.516 37.4256 873.391 35.9933 Q875.292 34.535 875.292 31.5662 Q875.292 28.6235 873.391 27.1652 Q871.516 25.7069 867.662 25.7069 L859.875 25.7069 M854.615 21.384 L868.052 21.384 Q874.068 21.384 877.323 23.884 Q880.578 26.384 880.578 30.9933 Q880.578 34.561 878.912 36.6704 Q877.245 38.7797 874.016 39.3006 Q877.896 40.1339 880.031 42.7901 Q882.193 45.4203 882.193 49.3786 Q882.193 54.5869 878.651 57.4255 Q875.11 60.264 868.573 60.264 L854.615 60.264 L854.615 21.384 Z" fill="#000000" fill-rule="nonzero" fill-opacity="1" /><path clip-path="url(#clip330)" d="M904.25 45.6026 Q898.443 45.6026 896.203 46.9307 Q893.964 48.2589 893.964 51.462 Q893.964 54.014 895.63 55.5244 Q897.323 57.0088 900.214 57.0088 Q904.198 57.0088 906.594 54.1963 Q909.016 51.3578 909.016 46.6703 L909.016 45.6026 L904.25 45.6026 M913.807 43.6235 L913.807 60.264 L909.016 60.264 L909.016 55.8369 Q907.375 58.4932 904.927 59.7692 Q902.479 61.0192 898.938 61.0192 Q894.458 61.0192 891.802 58.5192 Q889.172 55.9932 889.172 51.7745 Q889.172 46.8526 892.453 44.3526 Q895.761 41.8526 902.297 41.8526 L909.016 41.8526 L909.016 41.3839 Q909.016 38.0766 906.828 36.2798 Q904.667 34.4568 900.734 34.4568 Q898.234 34.4568 895.865 35.0558 Q893.495 35.6548 891.307 36.8527 L891.307 32.4256 Q893.938 31.41 896.412 30.9152 Q898.885 30.3944 901.229 30.3944 Q907.557 30.3944 910.682 33.6756 Q913.807 36.9568 913.807 43.6235 Z" fill="#000000" fill-rule="nonzero" fill-opacity="1" /><path clip-path="url(#clip330)" d="M923.182 48.7536 L923.182 31.0975 L927.974 31.0975 L927.974 48.5714 Q927.974 52.712 929.588 54.7953 Q931.203 56.8526 934.432 56.8526 Q938.312 56.8526 940.552 54.3786 Q942.818 51.9047 942.818 47.6339 L942.818 31.0975 L947.609 31.0975 L947.609 60.264 L942.818 60.264 L942.818 55.7849 Q941.073 58.4411 938.755 59.7432 Q936.463 61.0192 933.417 61.0192 Q928.391 61.0192 925.786 57.8942 Q923.182 54.7692 923.182 48.7536 M935.239 30.3944 L935.239 30.3944 Z" fill="#000000" fill-rule="nonzero" fill-opacity="1" /><path clip-path="url(#clip330)" d="M980.187 36.6964 Q981.984 33.4673 984.484 31.9308 Q986.984 30.3944 990.369 30.3944 Q994.927 30.3944 997.401 33.5975 Q999.875 36.7745 999.875 42.6599 L999.875 60.264 L995.057 60.264 L995.057 42.8162 Q995.057 38.6235 993.572 36.5923 Q992.088 34.561 989.041 34.561 Q985.317 34.561 983.156 37.035 Q980.994 39.5089 980.994 43.7797 L980.994 60.264 L976.177 60.264 L976.177 42.8162 Q976.177 38.5974 974.692 36.5923 Q973.208 34.561 970.109 34.561 Q966.437 34.561 964.276 37.061 Q962.114 39.5349 962.114 43.7797 L962.114 60.264 L957.297 60.264 L957.297 31.0975 L962.114 31.0975 L962.114 35.6287 Q963.755 32.9464 966.047 31.6704 Q968.338 30.3944 971.489 30.3944 Q974.666 30.3944 976.88 32.0089 Q979.119 33.6235 980.187 36.6964 Z" fill="#000000" fill-rule="nonzero" fill-opacity="1" /><path clip-path="url(#clip330)" d="M1007.01 43.5193 L1021.05 43.5193 L1021.05 47.7901 L1007.01 47.7901 L1007.01 43.5193 Z" fill="#000000" fill-rule="nonzero" fill-opacity="1" /><path clip-path="url(#clip330)" d="M1023.26 21.384 L1028.57 21.384 L1036.75 54.2484 L1044.9 21.384 L1050.81 21.384 L1058.99 54.2484 L1067.14 21.384 L1072.48 21.384 L1062.71 60.264 L1056.1 60.264 L1047.9 26.5142 L1039.61 60.264 L1033 60.264 L1023.26 21.384 Z" fill="#000000" fill-rule="nonzero" fill-opacity="1" /><path clip-path="url(#clip330)" d="M1101.07 44.4828 L1101.07 46.8266 L1079.04 46.8266 Q1079.35 51.7745 1082.01 54.3786 Q1084.69 56.9567 1089.46 56.9567 Q1092.22 56.9567 1094.8 56.2796 Q1097.4 55.6026 1099.95 54.2484 L1099.95 58.7796 Q1097.37 59.8734 1094.67 60.4463 Q1091.96 61.0192 1089.17 61.0192 Q1082.19 61.0192 1078.1 56.9567 Q1074.04 52.8942 1074.04 45.9672 Q1074.04 38.8058 1077.89 34.6131 Q1081.78 30.3944 1088.34 30.3944 Q1094.22 30.3944 1097.63 34.1964 Q1101.07 37.9725 1101.07 44.4828 M1096.28 43.0766 Q1096.23 39.1443 1094.07 36.8006 Q1091.93 34.4568 1088.39 34.4568 Q1084.38 34.4568 1081.96 36.7225 Q1079.56 38.9881 1079.2 43.1026 L1096.28 43.0766 Z" fill="#000000" fill-rule="nonzero" fill-opacity="1" /><path clip-path="url(#clip330)" d="M1108.94 19.7434 L1113.73 19.7434 L1113.73 60.264 L1108.94 60.264 L1108.94 19.7434 Z" fill="#000000" fill-rule="nonzero" fill-opacity="1" /><path clip-path="url(#clip330)" d="M1144.74 32.2173 L1144.74 36.6964 Q1142.71 35.5766 1140.66 35.0298 Q1138.62 34.4568 1136.54 34.4568 Q1131.88 34.4568 1129.3 37.4256 Q1126.72 40.3683 1126.72 45.7068 Q1126.72 51.0453 1129.3 54.014 Q1131.88 56.9567 1136.54 56.9567 Q1138.62 56.9567 1140.66 56.4099 Q1142.71 55.8369 1144.74 54.7172 L1144.74 59.1442 Q1142.74 60.0817 1140.58 60.5505 Q1138.44 61.0192 1136.02 61.0192 Q1129.43 61.0192 1125.55 56.8786 Q1121.67 52.738 1121.67 45.7068 Q1121.67 38.5714 1125.58 34.4829 Q1129.51 30.3944 1136.33 30.3944 Q1138.55 30.3944 1140.66 30.8631 Q1142.76 31.3058 1144.74 32.2173 Z" fill="#000000" fill-rule="nonzero" fill-opacity="1" /><path clip-path="url(#clip330)" d="M1177.32 42.6599 L1177.32 60.264 L1172.53 60.264 L1172.53 42.8162 Q1172.53 38.6756 1170.92 36.6183 Q1169.3 34.561 1166.07 34.561 Q1162.19 34.561 1159.95 37.035 Q1157.71 39.5089 1157.71 43.7797 L1157.71 60.264 L1152.89 60.264 L1152.89 19.7434 L1157.71 19.7434 L1157.71 35.6287 Q1159.43 32.9985 1161.75 31.6964 Q1164.09 30.3944 1167.14 30.3944 Q1172.17 30.3944 1174.74 33.5194 Q1177.32 36.6183 1177.32 42.6599 Z" fill="#000000" fill-rule="nonzero" fill-opacity="1" /><path clip-path="url(#clip330)" d="M1224.82 32.2173 L1224.82 36.6964 Q1222.79 35.5766 1220.73 35.0298 Q1218.7 34.4568 1216.62 34.4568 Q1211.96 34.4568 1209.38 37.4256 Q1206.8 40.3683 1206.8 45.7068 Q1206.8 51.0453 1209.38 54.014 Q1211.96 56.9567 1216.62 56.9567 Q1218.7 56.9567 1220.73 56.4099 Q1222.79 55.8369 1224.82 54.7172 L1224.82 59.1442 Q1222.82 60.0817 1220.65 60.5505 Q1218.52 61.0192 1216.1 61.0192 Q1209.51 61.0192 1205.63 56.8786 Q1201.75 52.738 1201.75 45.7068 Q1201.75 38.5714 1205.65 34.4829 Q1209.59 30.3944 1216.41 30.3944 Q1218.62 30.3944 1220.73 30.8631 Q1222.84 31.3058 1224.82 32.2173 Z" fill="#000000" fill-rule="nonzero" fill-opacity="1" /><path clip-path="url(#clip330)" d="M1244.46 34.4568 Q1240.6 34.4568 1238.36 37.4777 Q1236.12 40.4724 1236.12 45.7068 Q1236.12 50.9411 1238.34 53.962 Q1240.58 56.9567 1244.46 56.9567 Q1248.28 56.9567 1250.52 53.9359 Q1252.76 50.9151 1252.76 45.7068 Q1252.76 40.5245 1250.52 37.5037 Q1248.28 34.4568 1244.46 34.4568 M1244.46 30.3944 Q1250.71 30.3944 1254.27 34.4568 Q1257.84 38.5193 1257.84 45.7068 Q1257.84 52.8682 1254.27 56.9567 Q1250.71 61.0192 1244.46 61.0192 Q1238.18 61.0192 1234.61 56.9567 Q1231.07 52.8682 1231.07 45.7068 Q1231.07 38.5193 1234.61 34.4568 Q1238.18 30.3944 1244.46 30.3944 Z" fill="#000000" fill-rule="nonzero" fill-opacity="1" /><path clip-path="url(#clip330)" d="M1290.03 42.6599 L1290.03 60.264 L1285.24 60.264 L1285.24 42.8162 Q1285.24 38.6756 1283.62 36.6183 Q1282.01 34.561 1278.78 34.561 Q1274.9 34.561 1272.66 37.035 Q1270.42 39.5089 1270.42 43.7797 L1270.42 60.264 L1265.6 60.264 L1265.6 31.0975 L1270.42 31.0975 L1270.42 35.6287 Q1272.14 32.9985 1274.46 31.6964 Q1276.8 30.3944 1279.85 30.3944 Q1284.87 30.3944 1287.45 33.5194 Q1290.03 36.6183 1290.03 42.6599 Z" fill="#000000" fill-rule="nonzero" fill-opacity="1" /><path clip-path="url(#clip330)" d="M1296.15 31.0975 L1301.23 31.0975 L1310.34 55.5765 L1319.46 31.0975 L1324.53 31.0975 L1313.6 60.264 L1307.09 60.264 L1296.15 31.0975 Z" fill="#000000" fill-rule="nonzero" fill-opacity="1" /><path clip-path="url(#clip330)" d="M1356.1 44.4828 L1356.1 46.8266 L1334.07 46.8266 Q1334.38 51.7745 1337.03 54.3786 Q1339.72 56.9567 1344.48 56.9567 Q1347.24 56.9567 1349.82 56.2796 Q1352.42 55.6026 1354.98 54.2484 L1354.98 58.7796 Q1352.4 59.8734 1349.69 60.4463 Q1346.98 61.0192 1344.2 61.0192 Q1337.22 61.0192 1333.13 56.9567 Q1329.07 52.8942 1329.07 45.9672 Q1329.07 38.8058 1332.92 34.6131 Q1336.8 30.3944 1343.36 30.3944 Q1349.25 30.3944 1352.66 34.1964 Q1356.1 37.9725 1356.1 44.4828 M1351.3 43.0766 Q1351.25 39.1443 1349.09 36.8006 Q1346.96 34.4568 1343.41 34.4568 Q1339.4 34.4568 1336.98 36.7225 Q1334.59 38.9881 1334.22 43.1026 L1351.3 43.0766 Z" fill="#000000" fill-rule="nonzero" fill-opacity="1" /><path clip-path="url(#clip330)" d="M1380.86 35.5766 Q1380.05 35.1079 1379.09 34.8996 Q1378.15 34.6652 1377.01 34.6652 Q1372.95 34.6652 1370.76 37.3214 Q1368.6 39.9516 1368.6 44.8995 L1368.6 60.264 L1363.78 60.264 L1363.78 31.0975 L1368.6 31.0975 L1368.6 35.6287 Q1370.11 32.9725 1372.53 31.6964 Q1374.95 30.3944 1378.41 30.3944 Q1378.91 30.3944 1379.51 30.4725 Q1380.11 30.5246 1380.84 30.6548 L1380.86 35.5766 Z" fill="#000000" fill-rule="nonzero" fill-opacity="1" /><path clip-path="url(#clip330)" d="M1404.14 45.3422 Q1404.14 40.1339 1401.98 37.2693 Q1399.85 34.4048 1395.97 34.4048 Q1392.11 34.4048 1389.95 37.2693 Q1387.82 40.1339 1387.82 45.3422 Q1387.82 50.5245 1389.95 53.389 Q1392.11 56.2536 1395.97 56.2536 Q1399.85 56.2536 1401.98 53.389 Q1404.14 50.5245 1404.14 45.3422 M1408.93 56.6442 Q1408.93 64.0921 1405.63 67.7119 Q1402.32 71.3577 1395.5 71.3577 Q1392.97 71.3577 1390.73 70.9671 Q1388.49 70.6025 1386.38 69.8212 L1386.38 65.1598 Q1388.49 66.3056 1390.55 66.8525 Q1392.61 67.3994 1394.74 67.3994 Q1399.46 67.3994 1401.8 64.9254 Q1404.14 62.4775 1404.14 57.5036 L1404.14 55.1338 Q1402.66 57.7119 1400.34 58.988 Q1398.02 60.264 1394.79 60.264 Q1389.43 60.264 1386.15 56.1755 Q1382.87 52.087 1382.87 45.3422 Q1382.87 38.5714 1386.15 34.4829 Q1389.43 30.3944 1394.79 30.3944 Q1398.02 30.3944 1400.34 31.6704 Q1402.66 32.9464 1404.14 35.5245 L1404.14 31.0975 L1408.93 31.0975 L1408.93 56.6442 Z" fill="#000000" fill-rule="nonzero" fill-opacity="1" /><path clip-path="url(#clip330)" d="M1443.75 44.4828 L1443.75 46.8266 L1421.72 46.8266 Q1422.03 51.7745 1424.69 54.3786 Q1427.37 56.9567 1432.14 56.9567 Q1434.9 56.9567 1437.48 56.2796 Q1440.08 55.6026 1442.63 54.2484 L1442.63 58.7796 Q1440.05 59.8734 1437.35 60.4463 Q1434.64 61.0192 1431.85 61.0192 Q1424.87 61.0192 1420.78 56.9567 Q1416.72 52.8942 1416.72 45.9672 Q1416.72 38.8058 1420.58 34.6131 Q1424.46 30.3944 1431.02 30.3944 Q1436.9 30.3944 1440.31 34.1964 Q1443.75 37.9725 1443.75 44.4828 M1438.96 43.0766 Q1438.91 39.1443 1436.75 36.8006 Q1434.61 34.4568 1431.07 34.4568 Q1427.06 34.4568 1424.64 36.7225 Q1422.24 38.9881 1421.88 43.1026 L1438.96 43.0766 Z" fill="#000000" fill-rule="nonzero" fill-opacity="1" /><path clip-path="url(#clip330)" d="M1475.86 42.6599 L1475.86 60.264 L1471.07 60.264 L1471.07 42.8162 Q1471.07 38.6756 1469.46 36.6183 Q1467.84 34.561 1464.61 34.561 Q1460.73 34.561 1458.49 37.035 Q1456.25 39.5089 1456.25 43.7797 L1456.25 60.264 L1451.43 60.264 L1451.43 31.0975 L1456.25 31.0975 L1456.25 35.6287 Q1457.97 32.9985 1460.29 31.6964 Q1462.63 30.3944 1465.68 30.3944 Q1470.71 30.3944 1473.28 33.5194 Q1475.86 36.6183 1475.86 42.6599 Z" fill="#000000" fill-rule="nonzero" fill-opacity="1" /><path clip-path="url(#clip330)" d="M1506.41 32.2173 L1506.41 36.6964 Q1504.38 35.5766 1502.32 35.0298 Q1500.29 34.4568 1498.21 34.4568 Q1493.54 34.4568 1490.97 37.4256 Q1488.39 40.3683 1488.39 45.7068 Q1488.39 51.0453 1490.97 54.014 Q1493.54 56.9567 1498.21 56.9567 Q1500.29 56.9567 1502.32 56.4099 Q1504.38 55.8369 1506.41 54.7172 L1506.41 59.1442 Q1504.4 60.0817 1502.24 60.5505 Q1500.11 61.0192 1497.68 61.0192 Q1491.1 61.0192 1487.22 56.8786 Q1483.34 52.738 1483.34 45.7068 Q1483.34 38.5714 1487.24 34.4829 Q1491.17 30.3944 1498 30.3944 Q1500.21 30.3944 1502.32 30.8631 Q1504.43 31.3058 1506.41 32.2173 Z" fill="#000000" fill-rule="nonzero" fill-opacity="1" /><path clip-path="url(#clip330)" d="M1539.69 44.4828 L1539.69 46.8266 L1517.66 46.8266 Q1517.97 51.7745 1520.63 54.3786 Q1523.31 56.9567 1528.07 56.9567 Q1530.84 56.9567 1533.41 56.2796 Q1536.02 55.6026 1538.57 54.2484 L1538.57 58.7796 Q1535.99 59.8734 1533.28 60.4463 Q1530.57 61.0192 1527.79 61.0192 Q1520.81 61.0192 1516.72 56.9567 Q1512.66 52.8942 1512.66 45.9672 Q1512.66 38.8058 1516.51 34.6131 Q1520.39 30.3944 1526.96 30.3944 Q1532.84 30.3944 1536.25 34.1964 Q1539.69 37.9725 1539.69 44.4828 M1534.9 43.0766 Q1534.85 39.1443 1532.68 36.8006 Q1530.55 34.4568 1527.01 34.4568 Q1523 34.4568 1520.57 36.7225 Q1518.18 38.9881 1517.81 43.1026 L1534.9 43.0766 Z" fill="#000000" fill-rule="nonzero" fill-opacity="1" /><path clip-path="url(#clip330)" d="M1570.68 19.509 L1570.68 72.8421 L1566.25 72.8421 L1566.25 19.509 L1570.68 19.509 Z" fill="#000000" fill-rule="nonzero" fill-opacity="1" /><path clip-path="url(#clip330)" d="M1622.94 22.66 L1622.94 27.7902 Q1619.95 26.3579 1617.29 25.6548 Q1614.64 24.9517 1612.16 24.9517 Q1607.87 24.9517 1605.52 26.6183 Q1603.2 28.285 1603.2 31.3579 Q1603.2 33.936 1604.74 35.2641 Q1606.3 36.5662 1610.63 37.3735 L1613.8 38.0245 Q1619.69 39.1443 1622.48 41.9828 Q1625.29 44.7953 1625.29 49.5349 Q1625.29 55.1859 1621.49 58.1026 Q1617.71 61.0192 1610.39 61.0192 Q1607.63 61.0192 1604.51 60.3942 Q1601.41 59.7692 1598.07 58.5453 L1598.07 53.1286 Q1601.28 54.9255 1604.35 55.8369 Q1607.42 56.7484 1610.39 56.7484 Q1614.9 56.7484 1617.35 54.9776 Q1619.79 53.2067 1619.79 49.9255 Q1619.79 47.0609 1618.02 45.4464 Q1616.28 43.8318 1612.27 43.0245 L1609.06 42.3995 Q1603.18 41.2276 1600.55 38.7277 Q1597.92 36.2277 1597.92 31.7746 Q1597.92 26.6183 1601.54 23.6496 Q1605.18 20.6809 1611.56 20.6809 Q1614.3 20.6809 1617.14 21.1757 Q1619.98 21.6705 1622.94 22.66 Z" fill="#000000" fill-rule="nonzero" fill-opacity="1" /><path clip-path="url(#clip330)" d="M1638.75 25.7069 L1638.75 40.3162 L1645.37 40.3162 Q1649.04 40.3162 1651.04 38.4152 Q1653.05 36.5141 1653.05 32.9985 Q1653.05 29.509 1651.04 27.6079 Q1649.04 25.7069 1645.37 25.7069 L1638.75 25.7069 M1633.49 21.384 L1645.37 21.384 Q1651.9 21.384 1655.24 24.3527 Q1658.59 27.2954 1658.59 32.9985 Q1658.59 38.7537 1655.24 41.6964 Q1651.9 44.6391 1645.37 44.6391 L1638.75 44.6391 L1638.75 60.264 L1633.49 60.264 L1633.49 21.384 Z" fill="#000000" fill-rule="nonzero" fill-opacity="1" /><path clip-path="url(#clip330)" d="M1659.14 21.384 L1664.79 21.384 L1675.57 37.3735 L1686.28 21.384 L1691.93 21.384 L1678.18 41.7485 L1678.18 60.264 L1672.89 60.264 L1672.89 41.7485 L1659.14 21.384 Z" fill="#000000" fill-rule="nonzero" fill-opacity="1" /><path clip-path="url(#clip330)" d="M1719.97 19.509 L1719.97 72.8421 L1715.55 72.8421 L1715.55 19.509 L1719.97 19.509 Z" fill="#000000" fill-rule="nonzero" fill-opacity="1" /><path clip-path="url(#clip330)" d="M1778.05 24.3788 L1778.05 29.9256 Q1775.39 27.4517 1772.37 26.2277 Q1769.38 25.0038 1765.99 25.0038 Q1759.32 25.0038 1755.78 29.0923 Q1752.24 33.1548 1752.24 40.8631 Q1752.24 48.5453 1755.78 52.6338 Q1759.32 56.6963 1765.99 56.6963 Q1769.38 56.6963 1772.37 55.4724 Q1775.39 54.2484 1778.05 51.7745 L1778.05 57.2692 Q1775.29 59.1442 1772.19 60.0817 Q1769.12 61.0192 1765.68 61.0192 Q1756.85 61.0192 1751.77 55.6286 Q1746.69 50.212 1746.69 40.8631 Q1746.69 31.4881 1751.77 26.0975 Q1756.85 20.6809 1765.68 20.6809 Q1769.17 20.6809 1772.24 21.6184 Q1775.34 22.5298 1778.05 24.3788 Z" fill="#000000" fill-rule="nonzero" fill-opacity="1" /><path clip-path="url(#clip330)" d="M1786.17 21.384 L1791.43 21.384 L1791.43 37.3214 L1810.55 37.3214 L1810.55 21.384 L1815.81 21.384 L1815.81 60.264 L1810.55 60.264 L1810.55 41.7485 L1791.43 41.7485 L1791.43 60.264 L1786.17 60.264 L1786.17 21.384 Z" fill="#000000" fill-rule="nonzero" fill-opacity="1" /><path clip-path="url(#clip330)" d="M1826.28 21.384 L1834.11 21.384 L1844.04 47.8422 L1854.01 21.384 L1861.85 21.384 L1861.85 60.264 L1856.72 60.264 L1856.72 26.1236 L1846.69 52.7901 L1841.41 52.7901 L1831.38 26.1236 L1831.38 60.264 L1826.28 60.264 L1826.28 21.384 Z" fill="#000000" fill-rule="nonzero" fill-opacity="1" /><path clip-path="url(#clip330)" d="M1872.29 21.384 L1880.13 21.384 L1890.05 47.8422 L1900.03 21.384 L1907.86 21.384 L1907.86 60.264 L1902.73 60.264 L1902.73 26.1236 L1892.71 52.7901 L1887.42 52.7901 L1877.4 26.1236 L1877.4 60.264 L1872.29 60.264 L1872.29 21.384 Z" fill="#000000" fill-rule="nonzero" fill-opacity="1" /><path clip-path="url(#clip330)" d="M1915.68 43.5193 L1929.71 43.5193 L1929.71 47.7901 L1915.68 47.7901 L1915.68 43.5193 Z" fill="#000000" fill-rule="nonzero" fill-opacity="1" /><path clip-path="url(#clip330)" d="M1937.55 21.384 L1944.64 21.384 L1961.87 53.9099 L1961.87 21.384 L1966.98 21.384 L1966.98 60.264 L1959.9 60.264 L1942.66 27.7381 L1942.66 60.264 L1937.55 60.264 L1937.55 21.384 Z" fill="#000000" fill-rule="nonzero" fill-opacity="1" /><path clip-path="url(#clip330)" d="M1978.46 53.6495 L1983.96 53.6495 L1983.96 58.1286 L1979.69 66.4619 L1976.33 66.4619 L1978.46 58.1286 L1978.46 53.6495 Z" fill="#000000" fill-rule="nonzero" fill-opacity="1" /><path clip-path="url(#clip330)" d="M2011.35 21.384 L2016.61 21.384 L2016.61 37.8162 L2034.06 21.384 L2040.83 21.384 L2021.54 39.5089 L2042.21 60.264 L2035.29 60.264 L2016.61 41.5401 L2016.61 60.264 L2011.35 60.264 L2011.35 21.384 Z" fill="#000000" fill-rule="nonzero" fill-opacity="1" /><path clip-path="url(#clip330)" d="M2046.74 36.0454 L2080.13 36.0454 L2080.13 40.4204 L2046.74 40.4204 L2046.74 36.0454 M2046.74 46.6703 L2080.13 46.6703 L2080.13 51.0974 L2046.74 51.0974 L2046.74 46.6703 Z" fill="#000000" fill-rule="nonzero" fill-opacity="1" /><path clip-path="url(#clip330)" d="M2092.39 55.8369 L2100.99 55.8369 L2100.99 26.1756 L2091.64 28.0506 L2091.64 23.259 L2100.94 21.384 L2106.2 21.384 L2106.2 55.8369 L2114.79 55.8369 L2114.79 60.264 L2092.39 60.264 L2092.39 55.8369 Z" fill="#000000" fill-rule="nonzero" fill-opacity="1" /><path clip-path="url(#clip330)" d="M2136.67 41.8006 Q2132.92 41.8006 2130.75 43.8058 Q2128.62 45.811 2128.62 49.3266 Q2128.62 52.8422 2130.75 54.8474 Q2132.92 56.8526 2136.67 56.8526 Q2140.42 56.8526 2142.58 54.8474 Q2144.74 52.8161 2144.74 49.3266 Q2144.74 45.811 2142.58 43.8058 Q2140.44 41.8006 2136.67 41.8006 M2131.4 39.561 Q2128.02 38.7277 2126.12 36.41 Q2124.24 34.0923 2124.24 30.7589 Q2124.24 26.0975 2127.55 23.3892 Q2130.88 20.6809 2136.67 20.6809 Q2142.47 20.6809 2145.78 23.3892 Q2149.09 26.0975 2149.09 30.7589 Q2149.09 34.0923 2147.19 36.41 Q2145.31 38.7277 2141.95 39.561 Q2145.75 40.4464 2147.86 43.0245 Q2150 45.6026 2150 49.3266 Q2150 54.9776 2146.54 57.9984 Q2143.1 61.0192 2136.67 61.0192 Q2130.23 61.0192 2126.77 57.9984 Q2123.33 54.9776 2123.33 49.3266 Q2123.33 45.6026 2125.47 43.0245 Q2127.6 40.4464 2131.4 39.561 M2129.48 31.2537 Q2129.48 34.2746 2131.35 35.9673 Q2133.25 37.66 2136.67 37.66 Q2140.05 37.66 2141.95 35.9673 Q2143.88 34.2746 2143.88 31.2537 Q2143.88 28.2329 2141.95 26.5402 Q2140.05 24.8475 2136.67 24.8475 Q2133.25 24.8475 2131.35 26.5402 Q2129.48 28.2329 2129.48 31.2537 Z" fill="#000000" fill-rule="nonzero" fill-opacity="1" /><path clip-path="url(#clip330)" d="M896.281 79.704 L929.172 79.704 L929.172 84.1311 L915.37 84.1311 L915.37 118.584 L910.083 118.584 L910.083 84.1311 L896.281 84.1311 L896.281 79.704 Z" fill="#000000" fill-rule="nonzero" fill-opacity="1" /><path clip-path="url(#clip330)" d="M956.203 127.438 L956.203 131.162 L928.495 131.162 L928.495 127.438 L956.203 127.438 Z" fill="#000000" fill-rule="nonzero" fill-opacity="1" /><path clip-path="url(#clip330)" d="M960.916 79.704 L966.177 79.704 L966.177 118.584 L960.916 118.584 L960.916 79.704 Z" fill="#000000" fill-rule="nonzero" fill-opacity="1" /><path clip-path="url(#clip330)" d="M999.953 80.98 L999.953 86.1102 Q996.958 84.6779 994.302 83.9748 Q991.645 83.2717 989.171 83.2717 Q984.875 83.2717 982.531 84.9383 Q980.213 86.605 980.213 89.6779 Q980.213 92.256 981.75 93.5841 Q983.312 94.8862 987.635 95.6935 L990.812 96.3445 Q996.697 97.4643 999.484 100.303 Q1002.3 103.115 1002.3 107.855 Q1002.3 113.506 998.494 116.423 Q994.718 119.339 987.401 119.339 Q984.64 119.339 981.515 118.714 Q978.416 118.089 975.083 116.865 L975.083 111.449 Q978.286 113.245 981.359 114.157 Q984.432 115.068 987.401 115.068 Q991.906 115.068 994.354 113.298 Q996.802 111.527 996.802 108.246 Q996.802 105.381 995.031 103.766 Q993.286 102.152 989.276 101.345 L986.073 100.72 Q980.187 99.5476 977.557 97.0477 Q974.927 94.5477 974.927 90.0946 Q974.927 84.9383 978.547 81.9696 Q982.192 79.0009 988.573 79.0009 Q991.307 79.0009 994.145 79.4957 Q996.984 79.9905 999.953 80.98 Z" fill="#000000" fill-rule="nonzero" fill-opacity="1" /><path clip-path="url(#clip330)" d="M1027.87 94.3654 L1061.25 94.3654 L1061.25 98.7404 L1027.87 98.7404 L1027.87 94.3654 M1027.87 104.99 L1061.25 104.99 L1061.25 109.417 L1027.87 109.417 L1027.87 104.99 Z" fill="#000000" fill-rule="nonzero" fill-opacity="1" /><path clip-path="url(#clip330)" d="M1094.09 114.157 L1112.45 114.157 L1112.45 118.584 L1087.76 118.584 L1087.76 114.157 Q1090.76 111.058 1095.92 105.85 Q1101.1 100.615 1102.43 99.1049 Q1104.95 96.2664 1105.94 94.3133 Q1106.96 92.3341 1106.96 90.4331 Q1106.96 87.3342 1104.77 85.3811 Q1102.61 83.4279 1099.12 83.4279 Q1096.64 83.4279 1093.88 84.2873 Q1091.15 85.1467 1088.03 86.8915 L1088.03 81.579 Q1091.2 80.303 1093.96 79.6519 Q1096.72 79.0009 1099.01 79.0009 Q1105.06 79.0009 1108.65 82.0217 Q1112.24 85.0425 1112.24 90.0946 Q1112.24 92.4904 1111.33 94.6518 Q1110.45 96.7872 1108.08 99.7039 Q1107.43 100.459 1103.94 104.079 Q1100.45 107.673 1094.09 114.157 Z" fill="#000000" fill-rule="nonzero" fill-opacity="1" /><path clip-path="url(#clip330)" d="M1123.55 79.704 L1144.2 79.704 L1144.2 84.1311 L1128.36 84.1311 L1128.36 93.6623 Q1129.51 93.2716 1130.66 93.0893 Q1131.8 92.881 1132.95 92.881 Q1139.46 92.881 1143.26 96.4487 Q1147.06 100.016 1147.06 106.11 Q1147.06 112.386 1143.16 115.876 Q1139.25 119.339 1132.14 119.339 Q1129.69 119.339 1127.14 118.923 Q1124.61 118.506 1121.91 117.673 L1121.91 112.386 Q1124.25 113.662 1126.75 114.287 Q1129.25 114.912 1132.04 114.912 Q1136.54 114.912 1139.17 112.542 Q1141.8 110.173 1141.8 106.11 Q1141.8 102.048 1139.17 99.6779 Q1136.54 97.3081 1132.04 97.3081 Q1129.93 97.3081 1127.82 97.7768 Q1125.73 98.2456 1123.55 99.2351 L1123.55 79.704 Z" fill="#000000" fill-rule="nonzero" fill-opacity="1" /><path clip-path="url(#clip330)" d="M1158.34 114.157 L1166.93 114.157 L1166.93 84.4956 L1157.58 86.3706 L1157.58 81.579 L1166.88 79.704 L1172.14 79.704 L1172.14 114.157 L1180.73 114.157 L1180.73 118.584 L1158.34 118.584 L1158.34 114.157 Z" fill="#000000" fill-rule="nonzero" fill-opacity="1" /><path clip-path="url(#clip330)" d="M1203.26 97.0477 Q1199.72 97.0477 1197.63 99.4695 Q1195.58 101.891 1195.58 106.11 Q1195.58 110.303 1197.63 112.751 Q1199.72 115.173 1203.26 115.173 Q1206.8 115.173 1208.86 112.751 Q1210.94 110.303 1210.94 106.11 Q1210.94 101.891 1208.86 99.4695 Q1206.8 97.0477 1203.26 97.0477 M1213.7 80.5634 L1213.7 85.355 Q1211.72 84.4175 1209.69 83.9227 Q1207.69 83.4279 1205.71 83.4279 Q1200.5 83.4279 1197.74 86.9435 Q1195 90.4592 1194.61 97.5685 Q1196.15 95.3029 1198.47 94.105 Q1200.78 92.881 1203.57 92.881 Q1209.43 92.881 1212.82 96.4487 Q1216.23 99.9903 1216.23 106.11 Q1216.23 112.1 1212.69 115.719 Q1209.14 119.339 1203.26 119.339 Q1196.51 119.339 1192.95 114.183 Q1189.38 109.001 1189.38 99.1831 Q1189.38 89.9644 1193.75 84.4956 Q1198.13 79.0009 1205.5 79.0009 Q1207.48 79.0009 1209.48 79.3915 Q1211.51 79.7821 1213.7 80.5634 Z" fill="#000000" fill-rule="nonzero" fill-opacity="1" /><path clip-path="url(#clip330)" d="M1252.87 92.7768 Q1249.01 92.7768 1246.77 95.7977 Q1244.53 98.7924 1244.53 104.027 Q1244.53 109.261 1246.75 112.282 Q1248.99 115.277 1252.87 115.277 Q1256.7 115.277 1258.94 112.256 Q1261.18 109.235 1261.18 104.027 Q1261.18 98.8445 1258.94 95.8237 Q1256.7 92.7768 1252.87 92.7768 M1252.87 88.7144 Q1259.12 88.7144 1262.69 92.7768 Q1266.25 96.8393 1266.25 104.027 Q1266.25 111.188 1262.69 115.277 Q1259.12 119.339 1252.87 119.339 Q1246.59 119.339 1243.02 115.277 Q1239.48 111.188 1239.48 104.027 Q1239.48 96.8393 1243.02 92.7768 Q1246.59 88.7144 1252.87 88.7144 Z" fill="#000000" fill-rule="nonzero" fill-opacity="1" /><path clip-path="url(#clip330)" d="M1295.13 104.027 Q1295.13 98.7404 1292.95 95.7456 Q1290.78 92.7248 1286.98 92.7248 Q1283.18 92.7248 1280.99 95.7456 Q1278.83 98.7404 1278.83 104.027 Q1278.83 109.313 1280.99 112.334 Q1283.18 115.329 1286.98 115.329 Q1290.78 115.329 1292.95 112.334 Q1295.13 109.313 1295.13 104.027 M1278.83 93.8445 Q1280.34 91.2404 1282.63 89.9904 Q1284.95 88.7144 1288.15 88.7144 Q1293.47 88.7144 1296.77 92.9331 Q1300.11 97.1518 1300.11 104.027 Q1300.11 110.902 1296.77 115.12 Q1293.47 119.339 1288.15 119.339 Q1284.95 119.339 1282.63 118.089 Q1280.34 116.813 1278.83 114.209 L1278.83 118.584 L1274.01 118.584 L1274.01 78.0634 L1278.83 78.0634 L1278.83 93.8445 Z" fill="#000000" fill-rule="nonzero" fill-opacity="1" /><path clip-path="url(#clip330)" d="M1326.64 90.2769 L1326.64 94.8081 Q1324.61 93.7664 1322.42 93.2456 Q1320.24 92.7248 1317.89 92.7248 Q1314.33 92.7248 1312.53 93.8185 Q1310.76 94.9123 1310.76 97.0997 Q1310.76 98.7664 1312.03 99.7299 Q1313.31 100.667 1317.16 101.527 L1318.81 101.891 Q1323.91 102.985 1326.04 104.99 Q1328.21 106.969 1328.21 110.537 Q1328.21 114.6 1324.98 116.969 Q1321.77 119.339 1316.15 119.339 Q1313.81 119.339 1311.25 118.87 Q1308.73 118.428 1305.91 117.516 L1305.91 112.568 Q1308.57 113.949 1311.15 114.652 Q1313.73 115.329 1316.25 115.329 Q1319.64 115.329 1321.46 114.183 Q1323.28 113.011 1323.28 110.902 Q1323.28 108.949 1321.96 107.907 Q1320.65 106.865 1316.2 105.902 L1314.53 105.511 Q1310.08 104.574 1308.1 102.647 Q1306.12 100.693 1306.12 97.3081 Q1306.12 93.1935 1309.04 90.9539 Q1311.96 88.7144 1317.32 88.7144 Q1319.98 88.7144 1322.32 89.105 Q1324.66 89.4956 1326.64 90.2769 Z" fill="#000000" fill-rule="nonzero" fill-opacity="1" /><path clip-path="url(#clip330)" d="M1358.96 77.829 L1358.96 131.162 L1354.53 131.162 L1354.53 77.829 L1358.96 77.829 Z" fill="#000000" fill-rule="nonzero" fill-opacity="1" /><path clip-path="url(#clip330)" d="M1410.42 95.0164 Q1412.22 91.7873 1414.72 90.2508 Q1417.22 88.7144 1420.6 88.7144 Q1425.16 88.7144 1427.63 91.9175 Q1430.11 95.0945 1430.11 100.98 L1430.11 118.584 L1425.29 118.584 L1425.29 101.136 Q1425.29 96.9435 1423.8 94.9123 Q1422.32 92.881 1419.27 92.881 Q1415.55 92.881 1413.39 95.355 Q1411.23 97.8289 1411.23 102.1 L1411.23 118.584 L1406.41 118.584 L1406.41 101.136 Q1406.41 96.9174 1404.92 94.9123 Q1403.44 92.881 1400.34 92.881 Q1396.67 92.881 1394.51 95.381 Q1392.35 97.8549 1392.35 102.1 L1392.35 118.584 L1387.53 118.584 L1387.53 89.4175 L1392.35 89.4175 L1392.35 93.9487 Q1393.99 91.2664 1396.28 89.9904 Q1398.57 88.7144 1401.72 88.7144 Q1404.9 88.7144 1407.11 90.3289 Q1409.35 91.9435 1410.42 95.0164 Z" fill="#000000" fill-rule="nonzero" fill-opacity="1" /><path clip-path="url(#clip330)" d="M1452.92 103.923 Q1447.11 103.923 1444.87 105.251 Q1442.63 106.579 1442.63 109.782 Q1442.63 112.334 1444.3 113.844 Q1445.99 115.329 1448.88 115.329 Q1452.87 115.329 1455.26 112.516 Q1457.68 109.678 1457.68 104.99 L1457.68 103.923 L1452.92 103.923 M1462.48 101.943 L1462.48 118.584 L1457.68 118.584 L1457.68 114.157 Q1456.04 116.813 1453.6 118.089 Q1451.15 119.339 1447.61 119.339 Q1443.13 119.339 1440.47 116.839 Q1437.84 114.313 1437.84 110.094 Q1437.84 105.173 1441.12 102.673 Q1444.43 100.173 1450.97 100.173 L1457.68 100.173 L1457.68 99.7039 Q1457.68 96.3966 1455.5 94.5998 Q1453.34 92.7768 1449.4 92.7768 Q1446.9 92.7768 1444.53 93.3758 Q1442.16 93.9748 1439.98 95.1727 L1439.98 90.7456 Q1442.61 89.73 1445.08 89.2352 Q1447.55 88.7144 1449.9 88.7144 Q1456.23 88.7144 1459.35 91.9956 Q1462.48 95.2768 1462.48 101.943 Z" fill="#000000" fill-rule="nonzero" fill-opacity="1" /><path clip-path="url(#clip330)" d="M1496.59 89.4175 L1486.04 103.61 L1497.14 118.584 L1491.49 118.584 L1483 107.126 L1474.51 118.584 L1468.86 118.584 L1480.18 103.324 L1469.82 89.4175 L1475.47 89.4175 L1483.21 99.8081 L1490.94 89.4175 L1496.59 89.4175 Z" fill="#000000" fill-rule="nonzero" fill-opacity="1" /><path clip-path="url(#clip330)" d="M1526.07 127.438 L1526.07 131.162 L1498.36 131.162 L1498.36 127.438 L1526.07 127.438 Z" fill="#000000" fill-rule="nonzero" fill-opacity="1" /><path clip-path="url(#clip330)" d="M1530.57 89.4175 L1535.37 89.4175 L1535.37 118.584 L1530.57 118.584 L1530.57 89.4175 M1530.57 78.0634 L1535.37 78.0634 L1535.37 84.1311 L1530.57 84.1311 L1530.57 78.0634 Z" fill="#000000" fill-rule="nonzero" fill-opacity="1" /><path clip-path="url(#clip330)" d="M1550.13 81.1363 L1550.13 89.4175 L1560 89.4175 L1560 93.1414 L1550.13 93.1414 L1550.13 108.975 Q1550.13 112.542 1551.1 113.558 Q1552.09 114.574 1555.08 114.574 L1560 114.574 L1560 118.584 L1555.08 118.584 Q1549.53 118.584 1547.42 116.527 Q1545.31 114.443 1545.31 108.975 L1545.31 93.1414 L1541.8 93.1414 L1541.8 89.4175 L1545.31 89.4175 L1545.31 81.1363 L1550.13 81.1363 Z" fill="#000000" fill-rule="nonzero" fill-opacity="1" /><path clip-path="url(#clip330)" d="M1591.25 102.803 L1591.25 105.147 L1569.22 105.147 Q1569.53 110.094 1572.19 112.699 Q1574.87 115.277 1579.64 115.277 Q1582.4 115.277 1584.98 114.6 Q1587.58 113.923 1590.13 112.568 L1590.13 117.1 Q1587.55 118.193 1584.85 118.766 Q1582.14 119.339 1579.35 119.339 Q1572.37 119.339 1568.28 115.277 Q1564.22 111.214 1564.22 104.287 Q1564.22 97.1258 1568.07 92.9331 Q1571.95 88.7144 1578.52 88.7144 Q1584.4 88.7144 1587.81 92.5164 Q1591.25 96.2925 1591.25 102.803 M1586.46 101.397 Q1586.41 97.4643 1584.25 95.1206 Q1582.11 92.7768 1578.57 92.7768 Q1574.56 92.7768 1572.14 95.0425 Q1569.74 97.3081 1569.38 101.423 L1586.46 101.397 Z" fill="#000000" fill-rule="nonzero" fill-opacity="1" /><path clip-path="url(#clip330)" d="M1616.02 93.8966 Q1615.21 93.4279 1614.25 93.2196 Q1613.31 92.9852 1612.16 92.9852 Q1608.1 92.9852 1605.91 95.6414 Q1603.75 98.2716 1603.75 103.219 L1603.75 118.584 L1598.93 118.584 L1598.93 89.4175 L1603.75 89.4175 L1603.75 93.9487 Q1605.26 91.2925 1607.68 90.0164 Q1610.11 88.7144 1613.57 88.7144 Q1614.06 88.7144 1614.66 88.7925 Q1615.26 88.8446 1615.99 88.9748 L1616.02 93.8966 Z" fill="#000000" fill-rule="nonzero" fill-opacity="1" /><path clip-path="url(#clip330)" d="M1638.62 94.3654 L1672.01 94.3654 L1672.01 98.7404 L1638.62 98.7404 L1638.62 94.3654 M1638.62 104.99 L1672.01 104.99 L1672.01 109.417 L1638.62 109.417 L1638.62 104.99 Z" fill="#000000" fill-rule="nonzero" fill-opacity="1" /><path clip-path="url(#clip330)" d="M1712.21 97.0477 Q1708.67 97.0477 1706.59 99.4695 Q1704.53 101.891 1704.53 106.11 Q1704.53 110.303 1706.59 112.751 Q1708.67 115.173 1712.21 115.173 Q1715.76 115.173 1717.81 112.751 Q1719.9 110.303 1719.9 106.11 Q1719.9 101.891 1717.81 99.4695 Q1715.76 97.0477 1712.21 97.0477 M1722.66 80.5634 L1722.66 85.355 Q1720.68 84.4175 1718.65 83.9227 Q1716.64 83.4279 1714.66 83.4279 Q1709.45 83.4279 1706.69 86.9435 Q1703.96 90.4592 1703.57 97.5685 Q1705.11 95.3029 1707.42 94.105 Q1709.74 92.881 1712.53 92.881 Q1718.39 92.881 1721.77 96.4487 Q1725.18 99.9903 1725.18 106.11 Q1725.18 112.1 1721.64 115.719 Q1718.1 119.339 1712.21 119.339 Q1705.47 119.339 1701.9 114.183 Q1698.33 109.001 1698.33 99.1831 Q1698.33 89.9644 1702.71 84.4956 Q1707.08 79.0009 1714.45 79.0009 Q1716.43 79.0009 1718.44 79.3915 Q1720.47 79.7821 1722.66 80.5634 Z" fill="#000000" fill-rule="nonzero" fill-opacity="1" /><path clip-path="url(#clip330)" d="M1745.5 83.1675 Q1741.43 83.1675 1739.38 87.1779 Q1737.34 91.1623 1737.34 99.1831 Q1737.34 107.178 1739.38 111.188 Q1741.43 115.173 1745.5 115.173 Q1749.58 115.173 1751.62 111.188 Q1753.67 107.178 1753.67 99.1831 Q1753.67 91.1623 1751.62 87.1779 Q1749.58 83.1675 1745.5 83.1675 M1745.5 79.0009 Q1752.03 79.0009 1755.47 84.1831 Q1758.93 89.3394 1758.93 99.1831 Q1758.93 109.001 1755.47 114.183 Q1752.03 119.339 1745.5 119.339 Q1738.96 119.339 1735.5 114.183 Q1732.06 109.001 1732.06 99.1831 Q1732.06 89.3394 1735.5 84.1831 Q1738.96 79.0009 1745.5 79.0009 Z" fill="#000000" fill-rule="nonzero" fill-opacity="1" /><polyline clip-path="url(#clip332)" style="stroke:#000080; stroke-linecap:round; stroke-linejoin:round; stroke-width:8; stroke-opacity:1; fill:none" points="360.486,1386.88 393.269,778.503 426.053,675.814 458.837,620.099 491.621,580.888 524.405,549.447 557.188,522.273 589.972,497.745 622.756,475.041 655.54,453.746 688.323,433.696 721.107,414.881 753.891,397.309 786.675,380.832 819.459,365.052 852.242,349.46 885.026,334.01 917.81,319.579 950.594,307.109 983.377,296.747 1016.16,288.165 1048.95,280.953 1081.73,274.759 1114.51,269.337 1147.3,264.548 1180.08,260.303 1212.86,256.514 1245.65,253.099 1278.43,249.985 1311.22,247.117 1344,244.447 1376.78,241.934 1409.57,239.54 1442.35,237.229 1475.13,234.969 1507.92,232.731 1540.7,230.49 1573.49,228.222 1606.27,225.906 1639.05,223.525 1671.84,221.06 1704.62,218.495 1737.4,215.813 1770.19,213 1802.97,210.047 1835.76,206.962 1868.54,203.785 1901.32,200.598 1934.11,197.496 1966.89,194.558 1999.67,191.833 2032.46,189.351 2065.24,187.12 2098.03,185.136 2130.81,183.383 2163.59,181.835 2196.38,180.461 2229.16,179.228 2261.94,178.1 2294.73,177.047 "/>
<circle clip-path="url(#clip332)" cx="360.486" cy="1386.88" r="10.8" fill="#000080" fill-rule="evenodd" fill-opacity="1" stroke="#000000" stroke-opacity="1" stroke-width="3.2"/>
<circle clip-path="url(#clip332)" cx="393.269" cy="778.503" r="10.8" fill="#000080" fill-rule="evenodd" fill-opacity="1" stroke="#000000" stroke-opacity="1" stroke-width="3.2"/>
<circle clip-path="url(#clip332)" cx="426.053" cy="675.814" r="10.8" fill="#000080" fill-rule="evenodd" fill-opacity="1" stroke="#000000" stroke-opacity="1" stroke-width="3.2"/>
<circle clip-path="url(#clip332)" cx="458.837" cy="620.099" r="10.8" fill="#000080" fill-rule="evenodd" fill-opacity="1" stroke="#000000" stroke-opacity="1" stroke-width="3.2"/>
<circle clip-path="url(#clip332)" cx="491.621" cy="580.888" r="10.8" fill="#000080" fill-rule="evenodd" fill-opacity="1" stroke="#000000" stroke-opacity="1" stroke-width="3.2"/>
<circle clip-path="url(#clip332)" cx="524.405" cy="549.447" r="10.8" fill="#000080" fill-rule="evenodd" fill-opacity="1" stroke="#000000" stroke-opacity="1" stroke-width="3.2"/>
<circle clip-path="url(#clip332)" cx="557.188" cy="522.273" r="10.8" fill="#000080" fill-rule="evenodd" fill-opacity="1" stroke="#000000" stroke-opacity="1" stroke-width="3.2"/>
<circle clip-path="url(#clip332)" cx="589.972" cy="497.745" r="10.8" fill="#000080" fill-rule="evenodd" fill-opacity="1" stroke="#000000" stroke-opacity="1" stroke-width="3.2"/>
<circle clip-path="url(#clip332)" cx="622.756" cy="475.041" r="10.8" fill="#000080" fill-rule="evenodd" fill-opacity="1" stroke="#000000" stroke-opacity="1" stroke-width="3.2"/>
<circle clip-path="url(#clip332)" cx="655.54" cy="453.746" r="10.8" fill="#000080" fill-rule="evenodd" fill-opacity="1" stroke="#000000" stroke-opacity="1" stroke-width="3.2"/>
<circle clip-path="url(#clip332)" cx="688.323" cy="433.696" r="10.8" fill="#000080" fill-rule="evenodd" fill-opacity="1" stroke="#000000" stroke-opacity="1" stroke-width="3.2"/>
<circle clip-path="url(#clip332)" cx="721.107" cy="414.881" r="10.8" fill="#000080" fill-rule="evenodd" fill-opacity="1" stroke="#000000" stroke-opacity="1" stroke-width="3.2"/>
<circle clip-path="url(#clip332)" cx="753.891" cy="397.309" r="10.8" fill="#000080" fill-rule="evenodd" fill-opacity="1" stroke="#000000" stroke-opacity="1" stroke-width="3.2"/>
<circle clip-path="url(#clip332)" cx="786.675" cy="380.832" r="10.8" fill="#000080" fill-rule="evenodd" fill-opacity="1" stroke="#000000" stroke-opacity="1" stroke-width="3.2"/>
<circle clip-path="url(#clip332)" cx="819.459" cy="365.052" r="10.8" fill="#000080" fill-rule="evenodd" fill-opacity="1" stroke="#000000" stroke-opacity="1" stroke-width="3.2"/>
<circle clip-path="url(#clip332)" cx="852.242" cy="349.46" r="10.8" fill="#000080" fill-rule="evenodd" fill-opacity="1" stroke="#000000" stroke-opacity="1" stroke-width="3.2"/>
<circle clip-path="url(#clip332)" cx="885.026" cy="334.01" r="10.8" fill="#000080" fill-rule="evenodd" fill-opacity="1" stroke="#000000" stroke-opacity="1" stroke-width="3.2"/>
<circle clip-path="url(#clip332)" cx="917.81" cy="319.579" r="10.8" fill="#000080" fill-rule="evenodd" fill-opacity="1" stroke="#000000" stroke-opacity="1" stroke-width="3.2"/>
<circle clip-path="url(#clip332)" cx="950.594" cy="307.109" r="10.8" fill="#000080" fill-rule="evenodd" fill-opacity="1" stroke="#000000" stroke-opacity="1" stroke-width="3.2"/>
<circle clip-path="url(#clip332)" cx="983.377" cy="296.747" r="10.8" fill="#000080" fill-rule="evenodd" fill-opacity="1" stroke="#000000" stroke-opacity="1" stroke-width="3.2"/>
<circle clip-path="url(#clip332)" cx="1016.16" cy="288.165" r="10.8" fill="#000080" fill-rule="evenodd" fill-opacity="1" stroke="#000000" stroke-opacity="1" stroke-width="3.2"/>
<circle clip-path="url(#clip332)" cx="1048.95" cy="280.953" r="10.8" fill="#000080" fill-rule="evenodd" fill-opacity="1" stroke="#000000" stroke-opacity="1" stroke-width="3.2"/>
<circle clip-path="url(#clip332)" cx="1081.73" cy="274.759" r="10.8" fill="#000080" fill-rule="evenodd" fill-opacity="1" stroke="#000000" stroke-opacity="1" stroke-width="3.2"/>
<circle clip-path="url(#clip332)" cx="1114.51" cy="269.337" r="10.8" fill="#000080" fill-rule="evenodd" fill-opacity="1" stroke="#000000" stroke-opacity="1" stroke-width="3.2"/>
<circle clip-path="url(#clip332)" cx="1147.3" cy="264.548" r="10.8" fill="#000080" fill-rule="evenodd" fill-opacity="1" stroke="#000000" stroke-opacity="1" stroke-width="3.2"/>
<circle clip-path="url(#clip332)" cx="1180.08" cy="260.303" r="10.8" fill="#000080" fill-rule="evenodd" fill-opacity="1" stroke="#000000" stroke-opacity="1" stroke-width="3.2"/>
<circle clip-path="url(#clip332)" cx="1212.86" cy="256.514" r="10.8" fill="#000080" fill-rule="evenodd" fill-opacity="1" stroke="#000000" stroke-opacity="1" stroke-width="3.2"/>
<circle clip-path="url(#clip332)" cx="1245.65" cy="253.099" r="10.8" fill="#000080" fill-rule="evenodd" fill-opacity="1" stroke="#000000" stroke-opacity="1" stroke-width="3.2"/>
<circle clip-path="url(#clip332)" cx="1278.43" cy="249.985" r="10.8" fill="#000080" fill-rule="evenodd" fill-opacity="1" stroke="#000000" stroke-opacity="1" stroke-width="3.2"/>
<circle clip-path="url(#clip332)" cx="1311.22" cy="247.117" r="10.8" fill="#000080" fill-rule="evenodd" fill-opacity="1" stroke="#000000" stroke-opacity="1" stroke-width="3.2"/>
<circle clip-path="url(#clip332)" cx="1344" cy="244.447" r="10.8" fill="#000080" fill-rule="evenodd" fill-opacity="1" stroke="#000000" stroke-opacity="1" stroke-width="3.2"/>
<circle clip-path="url(#clip332)" cx="1376.78" cy="241.934" r="10.8" fill="#000080" fill-rule="evenodd" fill-opacity="1" stroke="#000000" stroke-opacity="1" stroke-width="3.2"/>
<circle clip-path="url(#clip332)" cx="1409.57" cy="239.54" r="10.8" fill="#000080" fill-rule="evenodd" fill-opacity="1" stroke="#000000" stroke-opacity="1" stroke-width="3.2"/>
<circle clip-path="url(#clip332)" cx="1442.35" cy="237.229" r="10.8" fill="#000080" fill-rule="evenodd" fill-opacity="1" stroke="#000000" stroke-opacity="1" stroke-width="3.2"/>
<circle clip-path="url(#clip332)" cx="1475.13" cy="234.969" r="10.8" fill="#000080" fill-rule="evenodd" fill-opacity="1" stroke="#000000" stroke-opacity="1" stroke-width="3.2"/>
<circle clip-path="url(#clip332)" cx="1507.92" cy="232.731" r="10.8" fill="#000080" fill-rule="evenodd" fill-opacity="1" stroke="#000000" stroke-opacity="1" stroke-width="3.2"/>
<circle clip-path="url(#clip332)" cx="1540.7" cy="230.49" r="10.8" fill="#000080" fill-rule="evenodd" fill-opacity="1" stroke="#000000" stroke-opacity="1" stroke-width="3.2"/>
<circle clip-path="url(#clip332)" cx="1573.49" cy="228.222" r="10.8" fill="#000080" fill-rule="evenodd" fill-opacity="1" stroke="#000000" stroke-opacity="1" stroke-width="3.2"/>
<circle clip-path="url(#clip332)" cx="1606.27" cy="225.906" r="10.8" fill="#000080" fill-rule="evenodd" fill-opacity="1" stroke="#000000" stroke-opacity="1" stroke-width="3.2"/>
<circle clip-path="url(#clip332)" cx="1639.05" cy="223.525" r="10.8" fill="#000080" fill-rule="evenodd" fill-opacity="1" stroke="#000000" stroke-opacity="1" stroke-width="3.2"/>
<circle clip-path="url(#clip332)" cx="1671.84" cy="221.06" r="10.8" fill="#000080" fill-rule="evenodd" fill-opacity="1" stroke="#000000" stroke-opacity="1" stroke-width="3.2"/>
<circle clip-path="url(#clip332)" cx="1704.62" cy="218.495" r="10.8" fill="#000080" fill-rule="evenodd" fill-opacity="1" stroke="#000000" stroke-opacity="1" stroke-width="3.2"/>
<circle clip-path="url(#clip332)" cx="1737.4" cy="215.813" r="10.8" fill="#000080" fill-rule="evenodd" fill-opacity="1" stroke="#000000" stroke-opacity="1" stroke-width="3.2"/>
<circle clip-path="url(#clip332)" cx="1770.19" cy="213" r="10.8" fill="#000080" fill-rule="evenodd" fill-opacity="1" stroke="#000000" stroke-opacity="1" stroke-width="3.2"/>
<circle clip-path="url(#clip332)" cx="1802.97" cy="210.047" r="10.8" fill="#000080" fill-rule="evenodd" fill-opacity="1" stroke="#000000" stroke-opacity="1" stroke-width="3.2"/>
<circle clip-path="url(#clip332)" cx="1835.76" cy="206.962" r="10.8" fill="#000080" fill-rule="evenodd" fill-opacity="1" stroke="#000000" stroke-opacity="1" stroke-width="3.2"/>
<circle clip-path="url(#clip332)" cx="1868.54" cy="203.785" r="10.8" fill="#000080" fill-rule="evenodd" fill-opacity="1" stroke="#000000" stroke-opacity="1" stroke-width="3.2"/>
<circle clip-path="url(#clip332)" cx="1901.32" cy="200.598" r="10.8" fill="#000080" fill-rule="evenodd" fill-opacity="1" stroke="#000000" stroke-opacity="1" stroke-width="3.2"/>
<circle clip-path="url(#clip332)" cx="1934.11" cy="197.496" r="10.8" fill="#000080" fill-rule="evenodd" fill-opacity="1" stroke="#000000" stroke-opacity="1" stroke-width="3.2"/>
<circle clip-path="url(#clip332)" cx="1966.89" cy="194.558" r="10.8" fill="#000080" fill-rule="evenodd" fill-opacity="1" stroke="#000000" stroke-opacity="1" stroke-width="3.2"/>
<circle clip-path="url(#clip332)" cx="1999.67" cy="191.833" r="10.8" fill="#000080" fill-rule="evenodd" fill-opacity="1" stroke="#000000" stroke-opacity="1" stroke-width="3.2"/>
<circle clip-path="url(#clip332)" cx="2032.46" cy="189.351" r="10.8" fill="#000080" fill-rule="evenodd" fill-opacity="1" stroke="#000000" stroke-opacity="1" stroke-width="3.2"/>
<circle clip-path="url(#clip332)" cx="2065.24" cy="187.12" r="10.8" fill="#000080" fill-rule="evenodd" fill-opacity="1" stroke="#000000" stroke-opacity="1" stroke-width="3.2"/>
<circle clip-path="url(#clip332)" cx="2098.03" cy="185.136" r="10.8" fill="#000080" fill-rule="evenodd" fill-opacity="1" stroke="#000000" stroke-opacity="1" stroke-width="3.2"/>
<circle clip-path="url(#clip332)" cx="2130.81" cy="183.383" r="10.8" fill="#000080" fill-rule="evenodd" fill-opacity="1" stroke="#000000" stroke-opacity="1" stroke-width="3.2"/>
<circle clip-path="url(#clip332)" cx="2163.59" cy="181.835" r="10.8" fill="#000080" fill-rule="evenodd" fill-opacity="1" stroke="#000000" stroke-opacity="1" stroke-width="3.2"/>
<circle clip-path="url(#clip332)" cx="2196.38" cy="180.461" r="10.8" fill="#000080" fill-rule="evenodd" fill-opacity="1" stroke="#000000" stroke-opacity="1" stroke-width="3.2"/>
<circle clip-path="url(#clip332)" cx="2229.16" cy="179.228" r="10.8" fill="#000080" fill-rule="evenodd" fill-opacity="1" stroke="#000000" stroke-opacity="1" stroke-width="3.2"/>
<circle clip-path="url(#clip332)" cx="2261.94" cy="178.1" r="10.8" fill="#000080" fill-rule="evenodd" fill-opacity="1" stroke="#000000" stroke-opacity="1" stroke-width="3.2"/>
<circle clip-path="url(#clip332)" cx="2294.73" cy="177.047" r="10.8" fill="#000080" fill-rule="evenodd" fill-opacity="1" stroke="#000000" stroke-opacity="1" stroke-width="3.2"/>
</svg>
