<?xml version="1.0" encoding="utf-8"?>
<svg xmlns="http://www.w3.org/2000/svg" xmlns:xlink="http://www.w3.org/1999/xlink" width="600" height="400" viewBox="0 0 2400 1600">
<defs>
  <clipPath id="clip370">
    <rect x="0" y="0" width="2400" height="1600"/>
  </clipPath>
</defs>
<path clip-path="url(#clip370)" d="M0 1600 L2400 1600 L2400 8.88178e-14 L0 8.88178e-14  Z" fill="#ffffff" fill-rule="evenodd" fill-opacity="1"/>
<defs>
  <clipPath id="clip371">
    <rect x="96" y="914" width="2285" height="35"/>
  </clipPath>
</defs>
<path clip-path="url(#clip370)" d="M302.458 1423.18 L2352.76 1423.18 L2352.76 106.192 L302.458 106.192  Z" fill="#ffffff" fill-rule="evenodd" fill-opacity="1"/>
<defs>
  <clipPath id="clip372">
    <rect x="302" y="106" width="2051" height="1318"/>
  </clipPath>
</defs>
<polyline clip-path="url(#clip372)" style="stroke:#000000; stroke-linecap:round; stroke-linejoin:round; stroke-width:2; stroke-opacity:0.1; fill:none" points="327.702,1423.18 327.702,106.192 "/>
<polyline clip-path="url(#clip372)" style="stroke:#000000; stroke-linecap:round; stroke-linejoin:round; stroke-width:2; stroke-opacity:0.1; fill:none" points="655.54,1423.18 655.54,106.192 "/>
<polyline clip-path="url(#clip372)" style="stroke:#000000; stroke-linecap:round; stroke-linejoin:round; stroke-width:2; stroke-opacity:0.1; fill:none" points="983.377,1423.18 983.377,106.192 "/>
<polyline clip-path="url(#clip372)" style="stroke:#000000; stroke-linecap:round; stroke-linejoin:round; stroke-width:2; stroke-opacity:0.1; fill:none" points="1311.22,1423.18 1311.22,106.192 "/>
<polyline clip-path="url(#clip372)" style="stroke:#000000; stroke-linecap:round; stroke-linejoin:round; stroke-width:2; stroke-opacity:0.1; fill:none" points="1639.05,1423.18 1639.05,106.192 "/>
<polyline clip-path="url(#clip372)" style="stroke:#000000; stroke-linecap:round; stroke-linejoin:round; stroke-width:2; stroke-opacity:0.1; fill:none" points="1966.89,1423.18 1966.89,106.192 "/>
<polyline clip-path="url(#clip372)" style="stroke:#000000; stroke-linecap:round; stroke-linejoin:round; stroke-width:2; stroke-opacity:0.1; fill:none" points="2294.73,1423.18 2294.73,106.192 "/>
<polyline clip-path="url(#clip372)" style="stroke:#000000; stroke-linecap:round; stroke-linejoin:round; stroke-width:2; stroke-opacity:0.1; fill:none" points="302.458,1274.41 2352.76,1274.41 "/>
<polyline clip-path="url(#clip372)" style="stroke:#000000; stroke-linecap:round; stroke-linejoin:round; stroke-width:2; stroke-opacity:0.1; fill:none" points="302.458,1098.01 2352.76,1098.01 "/>
<polyline clip-path="url(#clip372)" style="stroke:#000000; stroke-linecap:round; stroke-linejoin:round; stroke-width:2; stroke-opacity:0.1; fill:none" points="302.458,921.616 2352.76,921.616 "/>
<polyline clip-path="url(#clip372)" style="stroke:#000000; stroke-linecap:round; stroke-linejoin:round; stroke-width:2; stroke-opacity:0.1; fill:none" points="302.458,745.221 2352.76,745.221 "/>
<polyline clip-path="url(#clip372)" style="stroke:#000000; stroke-linecap:round; stroke-linejoin:round; stroke-width:2; stroke-opacity:0.1; fill:none" points="302.458,568.826 2352.76,568.826 "/>
<polyline clip-path="url(#clip372)" style="stroke:#000000; stroke-linecap:round; stroke-linejoin:round; stroke-width:2; stroke-opacity:0.1; fill:none" points="302.458,392.431 2352.76,392.431 "/>
<polyline clip-path="url(#clip372)" style="stroke:#000000; stroke-linecap:round; stroke-linejoin:round; stroke-width:2; stroke-opacity:0.1; fill:none" points="302.458,216.037 2352.76,216.037 "/>
<polyline clip-path="url(#clip370)" style="stroke:#000000; stroke-linecap:round; stroke-linejoin:round; stroke-width:4; stroke-opacity:1; fill:none" points="302.458,1423.18 2352.76,1423.18 "/>
<polyline clip-path="url(#clip370)" style="stroke:#000000; stroke-linecap:round; stroke-linejoin:round; stroke-width:4; stroke-opacity:1; fill:none" points="327.702,1423.18 327.702,1404.28 "/>
<polyline clip-path="url(#clip370)" style="stroke:#000000; stroke-linecap:round; stroke-linejoin:round; stroke-width:4; stroke-opacity:1; fill:none" points="655.54,1423.18 655.54,1404.28 "/>
<polyline clip-path="url(#clip370)" style="stroke:#000000; stroke-linecap:round; stroke-linejoin:round; stroke-width:4; stroke-opacity:1; fill:none" points="983.377,1423.18 983.377,1404.28 "/>
<polyline clip-path="url(#clip370)" style="stroke:#000000; stroke-linecap:round; stroke-linejoin:round; stroke-width:4; stroke-opacity:1; fill:none" points="1311.22,1423.18 1311.22,1404.28 "/>
<polyline clip-path="url(#clip370)" style="stroke:#000000; stroke-linecap:round; stroke-linejoin:round; stroke-width:4; stroke-opacity:1; fill:none" points="1639.05,1423.18 1639.05,1404.28 "/>
<polyline clip-path="url(#clip370)" style="stroke:#000000; stroke-linecap:round; stroke-linejoin:round; stroke-width:4; stroke-opacity:1; fill:none" points="1966.89,1423.18 1966.89,1404.28 "/>
<polyline clip-path="url(#clip370)" style="stroke:#000000; stroke-linecap:round; stroke-linejoin:round; stroke-width:4; stroke-opacity:1; fill:none" points="2294.73,1423.18 2294.73,1404.28 "/>
<path clip-path="url(#clip370)" d="M327.702 1454.1 Q324.091 1454.1 322.262 1457.66 Q320.457 1461.2 320.457 1468.33 Q320.457 1475.44 322.262 1479.01 Q324.091 1482.55 327.702 1482.55 Q331.336 1482.55 333.142 1479.01 Q334.97 1475.44 334.97 1468.33 Q334.97 1461.2 333.142 1457.66 Q331.336 1454.1 327.702 1454.1 M327.702 1450.39 Q333.512 1450.39 336.568 1455 Q339.646 1459.58 339.646 1468.33 Q339.646 1477.06 336.568 1481.67 Q333.512 1486.25 327.702 1486.25 Q321.892 1486.25 318.813 1481.67 Q315.758 1477.06 315.758 1468.33 Q315.758 1459.58 318.813 1455 Q321.892 1450.39 327.702 1450.39 Z" fill="#000000" fill-rule="nonzero" fill-opacity="1" /><path clip-path="url(#clip370)" d="M630.227 1481.64 L637.866 1481.64 L637.866 1455.28 L629.556 1456.95 L629.556 1452.69 L637.82 1451.02 L642.496 1451.02 L642.496 1481.64 L650.135 1481.64 L650.135 1485.58 L630.227 1485.58 L630.227 1481.64 Z" fill="#000000" fill-rule="nonzero" fill-opacity="1" /><path clip-path="url(#clip370)" d="M669.579 1454.1 Q665.968 1454.1 664.139 1457.66 Q662.334 1461.2 662.334 1468.33 Q662.334 1475.44 664.139 1479.01 Q665.968 1482.55 669.579 1482.55 Q673.213 1482.55 675.019 1479.01 Q676.847 1475.44 676.847 1468.33 Q676.847 1461.2 675.019 1457.66 Q673.213 1454.1 669.579 1454.1 M669.579 1450.39 Q675.389 1450.39 678.445 1455 Q681.523 1459.58 681.523 1468.33 Q681.523 1477.06 678.445 1481.67 Q675.389 1486.25 669.579 1486.25 Q663.769 1486.25 660.69 1481.67 Q657.635 1477.06 657.635 1468.33 Q657.635 1459.58 660.69 1455 Q663.769 1450.39 669.579 1450.39 Z" fill="#000000" fill-rule="nonzero" fill-opacity="1" /><path clip-path="url(#clip370)" d="M962.151 1481.64 L978.47 1481.64 L978.47 1485.58 L956.526 1485.58 L956.526 1481.64 Q959.188 1478.89 963.771 1474.26 Q968.378 1469.61 969.558 1468.27 Q971.803 1465.74 972.683 1464.01 Q973.586 1462.25 973.586 1460.56 Q973.586 1457.8 971.641 1456.07 Q969.72 1454.33 966.618 1454.33 Q964.419 1454.33 961.966 1455.09 Q959.535 1455.86 956.757 1457.41 L956.757 1452.69 Q959.581 1451.55 962.035 1450.97 Q964.489 1450.39 966.526 1450.39 Q971.896 1450.39 975.09 1453.08 Q978.285 1455.77 978.285 1460.26 Q978.285 1462.39 977.475 1464.31 Q976.688 1466.2 974.581 1468.8 Q974.003 1469.47 970.901 1472.69 Q967.799 1475.88 962.151 1481.64 Z" fill="#000000" fill-rule="nonzero" fill-opacity="1" /><path clip-path="url(#clip370)" d="M998.285 1454.1 Q994.674 1454.1 992.845 1457.66 Q991.039 1461.2 991.039 1468.33 Q991.039 1475.44 992.845 1479.01 Q994.674 1482.55 998.285 1482.55 Q1001.92 1482.55 1003.72 1479.01 Q1005.55 1475.44 1005.55 1468.33 Q1005.55 1461.2 1003.72 1457.66 Q1001.92 1454.1 998.285 1454.1 M998.285 1450.39 Q1004.09 1450.39 1007.15 1455 Q1010.23 1459.58 1010.23 1468.33 Q1010.23 1477.06 1007.15 1481.67 Q1004.09 1486.25 998.285 1486.25 Q992.475 1486.25 989.396 1481.67 Q986.34 1477.06 986.34 1468.33 Q986.34 1459.58 989.396 1455 Q992.475 1450.39 998.285 1450.39 Z" fill="#000000" fill-rule="nonzero" fill-opacity="1" /><path clip-path="url(#clip370)" d="M1300.06 1466.95 Q1303.41 1467.66 1305.29 1469.93 Q1307.19 1472.2 1307.19 1475.53 Q1307.19 1480.65 1303.67 1483.45 Q1300.15 1486.25 1293.67 1486.25 Q1291.49 1486.25 1289.18 1485.81 Q1286.89 1485.39 1284.43 1484.54 L1284.43 1480.02 Q1286.38 1481.16 1288.69 1481.74 Q1291.01 1482.32 1293.53 1482.32 Q1297.93 1482.32 1300.22 1480.58 Q1302.53 1478.84 1302.53 1475.53 Q1302.53 1472.48 1300.38 1470.77 Q1298.25 1469.03 1294.43 1469.03 L1290.41 1469.03 L1290.41 1465.19 L1294.62 1465.19 Q1298.07 1465.19 1299.9 1463.82 Q1301.72 1462.43 1301.72 1459.84 Q1301.72 1457.18 1299.83 1455.77 Q1297.95 1454.33 1294.43 1454.33 Q1292.51 1454.33 1290.31 1454.75 Q1288.11 1455.16 1285.47 1456.04 L1285.47 1451.88 Q1288.14 1451.14 1290.45 1450.77 Q1292.79 1450.39 1294.85 1450.39 Q1300.17 1450.39 1303.28 1452.83 Q1306.38 1455.23 1306.38 1459.35 Q1306.38 1462.22 1304.73 1464.21 Q1303.09 1466.18 1300.06 1466.95 Z" fill="#000000" fill-rule="nonzero" fill-opacity="1" /><path clip-path="url(#clip370)" d="M1326.05 1454.1 Q1322.44 1454.1 1320.61 1457.66 Q1318.81 1461.2 1318.81 1468.33 Q1318.81 1475.44 1320.61 1479.01 Q1322.44 1482.55 1326.05 1482.55 Q1329.69 1482.55 1331.49 1479.01 Q1333.32 1475.44 1333.32 1468.33 Q1333.32 1461.2 1331.49 1457.66 Q1329.69 1454.1 1326.05 1454.1 M1326.05 1450.39 Q1331.86 1450.39 1334.92 1455 Q1338 1459.58 1338 1468.33 Q1338 1477.06 1334.92 1481.67 Q1331.86 1486.25 1326.05 1486.25 Q1320.24 1486.25 1317.16 1481.67 Q1314.11 1477.06 1314.11 1468.33 Q1314.11 1459.58 1317.16 1455 Q1320.24 1450.39 1326.05 1450.39 Z" fill="#000000" fill-rule="nonzero" fill-opacity="1" /><path clip-path="url(#clip370)" d="M1627.22 1455.09 L1615.42 1473.54 L1627.22 1473.54 L1627.22 1455.09 M1626 1451.02 L1631.88 1451.02 L1631.88 1473.54 L1636.81 1473.54 L1636.81 1477.43 L1631.88 1477.43 L1631.88 1485.58 L1627.22 1485.58 L1627.22 1477.43 L1611.62 1477.43 L1611.62 1472.92 L1626 1451.02 Z" fill="#000000" fill-rule="nonzero" fill-opacity="1" /><path clip-path="url(#clip370)" d="M1654.54 1454.1 Q1650.93 1454.1 1649.1 1457.66 Q1647.29 1461.2 1647.29 1468.33 Q1647.29 1475.44 1649.1 1479.01 Q1650.93 1482.55 1654.54 1482.55 Q1658.17 1482.55 1659.98 1479.01 Q1661.81 1475.44 1661.81 1468.33 Q1661.81 1461.2 1659.98 1457.66 Q1658.17 1454.1 1654.54 1454.1 M1654.54 1450.39 Q1660.35 1450.39 1663.4 1455 Q1666.48 1459.58 1666.48 1468.33 Q1666.48 1477.06 1663.4 1481.67 Q1660.35 1486.25 1654.54 1486.25 Q1648.73 1486.25 1645.65 1481.67 Q1642.59 1477.06 1642.59 1468.33 Q1642.59 1459.58 1645.65 1455 Q1648.73 1450.39 1654.54 1450.39 Z" fill="#000000" fill-rule="nonzero" fill-opacity="1" /><path clip-path="url(#clip370)" d="M1941.59 1451.02 L1959.95 1451.02 L1959.95 1454.96 L1945.87 1454.96 L1945.87 1463.43 Q1946.89 1463.08 1947.91 1462.92 Q1948.93 1462.73 1949.95 1462.73 Q1955.73 1462.73 1959.11 1465.9 Q1962.49 1469.08 1962.49 1474.49 Q1962.49 1480.07 1959.02 1483.17 Q1955.55 1486.25 1949.23 1486.25 Q1947.05 1486.25 1944.78 1485.88 Q1942.54 1485.51 1940.13 1484.77 L1940.13 1480.07 Q1942.22 1481.2 1944.44 1481.76 Q1946.66 1482.32 1949.14 1482.32 Q1953.14 1482.32 1955.48 1480.21 Q1957.82 1478.1 1957.82 1474.49 Q1957.82 1470.88 1955.48 1468.77 Q1953.14 1466.67 1949.14 1466.67 Q1947.26 1466.67 1945.39 1467.08 Q1943.53 1467.5 1941.59 1468.38 L1941.59 1451.02 Z" fill="#000000" fill-rule="nonzero" fill-opacity="1" /><path clip-path="url(#clip370)" d="M1981.71 1454.1 Q1978.09 1454.1 1976.27 1457.66 Q1974.46 1461.2 1974.46 1468.33 Q1974.46 1475.44 1976.27 1479.01 Q1978.09 1482.55 1981.71 1482.55 Q1985.34 1482.55 1987.15 1479.01 Q1988.97 1475.44 1988.97 1468.33 Q1988.97 1461.2 1987.15 1457.66 Q1985.34 1454.1 1981.71 1454.1 M1981.71 1450.39 Q1987.52 1450.39 1990.57 1455 Q1993.65 1459.58 1993.65 1468.33 Q1993.65 1477.06 1990.57 1481.67 Q1987.52 1486.25 1981.71 1486.25 Q1975.9 1486.25 1972.82 1481.67 Q1969.76 1477.06 1969.76 1468.33 Q1969.76 1459.58 1972.82 1455 Q1975.9 1450.39 1981.71 1450.39 Z" fill="#000000" fill-rule="nonzero" fill-opacity="1" /><path clip-path="url(#clip370)" d="M2280.13 1466.44 Q2276.99 1466.44 2275.13 1468.59 Q2273.31 1470.74 2273.31 1474.49 Q2273.31 1478.22 2275.13 1480.39 Q2276.99 1482.55 2280.13 1482.55 Q2283.28 1482.55 2285.11 1480.39 Q2286.96 1478.22 2286.96 1474.49 Q2286.96 1470.74 2285.11 1468.59 Q2283.28 1466.44 2280.13 1466.44 M2289.42 1451.78 L2289.42 1456.04 Q2287.66 1455.21 2285.85 1454.77 Q2284.07 1454.33 2282.31 1454.33 Q2277.68 1454.33 2275.23 1457.45 Q2272.8 1460.58 2272.45 1466.9 Q2273.81 1464.89 2275.87 1463.82 Q2277.93 1462.73 2280.41 1462.73 Q2285.62 1462.73 2288.63 1465.9 Q2291.66 1469.05 2291.66 1474.49 Q2291.66 1479.82 2288.51 1483.03 Q2285.37 1486.25 2280.13 1486.25 Q2274.14 1486.25 2270.97 1481.67 Q2267.8 1477.06 2267.8 1468.33 Q2267.8 1460.14 2271.68 1455.28 Q2275.57 1450.39 2282.12 1450.39 Q2283.88 1450.39 2285.67 1450.74 Q2287.47 1451.09 2289.42 1451.78 Z" fill="#000000" fill-rule="nonzero" fill-opacity="1" /><path clip-path="url(#clip370)" d="M2309.72 1454.1 Q2306.11 1454.1 2304.28 1457.66 Q2302.47 1461.2 2302.47 1468.33 Q2302.47 1475.44 2304.28 1479.01 Q2306.11 1482.55 2309.72 1482.55 Q2313.35 1482.55 2315.16 1479.01 Q2316.99 1475.44 2316.99 1468.33 Q2316.99 1461.2 2315.16 1457.66 Q2313.35 1454.1 2309.72 1454.1 M2309.72 1450.39 Q2315.53 1450.39 2318.58 1455 Q2321.66 1459.58 2321.66 1468.33 Q2321.66 1477.06 2318.58 1481.67 Q2315.53 1486.25 2309.72 1486.25 Q2303.91 1486.25 2300.83 1481.67 Q2297.77 1477.06 2297.77 1468.33 Q2297.77 1459.58 2300.83 1455 Q2303.91 1450.39 2309.72 1450.39 Z" fill="#000000" fill-rule="nonzero" fill-opacity="1" /><path clip-path="url(#clip370)" d="M1195.33 1520.52 L1201.76 1520.52 L1201.76 1568.04 L1195.33 1568.04 L1195.33 1520.52 Z" fill="#000000" fill-rule="nonzero" fill-opacity="1" /><path clip-path="url(#clip370)" d="M1220.09 1522.27 L1220.09 1532.4 L1232.15 1532.4 L1232.15 1536.95 L1220.09 1536.95 L1220.09 1556.3 Q1220.09 1560.66 1221.27 1561.9 Q1222.48 1563.14 1226.14 1563.14 L1232.15 1563.14 L1232.15 1568.04 L1226.14 1568.04 Q1219.36 1568.04 1216.78 1565.53 Q1214.2 1562.98 1214.2 1556.3 L1214.2 1536.95 L1209.91 1536.95 L1209.91 1532.4 L1214.2 1532.4 L1214.2 1522.27 L1220.09 1522.27 Z" fill="#000000" fill-rule="nonzero" fill-opacity="1" /><path clip-path="url(#clip370)" d="M1270.35 1548.76 L1270.35 1551.62 L1243.42 1551.62 Q1243.8 1557.67 1247.05 1560.85 Q1250.33 1564 1256.15 1564 Q1259.53 1564 1262.68 1563.17 Q1265.86 1562.35 1268.98 1560.69 L1268.98 1566.23 Q1265.83 1567.57 1262.52 1568.27 Q1259.21 1568.97 1255.8 1568.97 Q1247.27 1568.97 1242.27 1564 Q1237.31 1559.04 1237.31 1550.57 Q1237.31 1541.82 1242.02 1536.69 Q1246.76 1531.54 1254.78 1531.54 Q1261.98 1531.54 1266.15 1536.18 Q1270.35 1540.8 1270.35 1548.76 M1264.49 1547.04 Q1264.43 1542.23 1261.79 1539.37 Q1259.18 1536.5 1254.85 1536.5 Q1249.95 1536.5 1246.99 1539.27 Q1244.06 1542.04 1243.61 1547.07 L1264.49 1547.04 Z" fill="#000000" fill-rule="nonzero" fill-opacity="1" /><path clip-path="url(#clip370)" d="M1300.62 1537.87 Q1299.63 1537.3 1298.45 1537.04 Q1297.31 1536.76 1295.91 1536.76 Q1290.94 1536.76 1288.27 1540 Q1285.63 1543.22 1285.63 1549.27 L1285.63 1568.04 L1279.74 1568.04 L1279.74 1532.4 L1285.63 1532.4 L1285.63 1537.93 Q1287.47 1534.69 1290.43 1533.13 Q1293.39 1531.54 1297.62 1531.54 Q1298.23 1531.54 1298.96 1531.63 Q1299.69 1531.7 1300.58 1531.85 L1300.62 1537.87 Z" fill="#000000" fill-rule="nonzero" fill-opacity="1" /><path clip-path="url(#clip370)" d="M1322.96 1550.12 Q1315.86 1550.12 1313.13 1551.75 Q1310.39 1553.37 1310.39 1557.29 Q1310.39 1560.4 1312.42 1562.25 Q1314.49 1564.07 1318.03 1564.07 Q1322.9 1564.07 1325.82 1560.63 Q1328.78 1557.16 1328.78 1551.43 L1328.78 1550.12 L1322.96 1550.12 M1334.64 1547.71 L1334.64 1568.04 L1328.78 1568.04 L1328.78 1562.63 Q1326.78 1565.88 1323.79 1567.44 Q1320.8 1568.97 1316.47 1568.97 Q1310.99 1568.97 1307.75 1565.91 Q1304.53 1562.82 1304.53 1557.67 Q1304.53 1551.65 1308.54 1548.6 Q1312.58 1545.54 1320.57 1545.54 L1328.78 1545.54 L1328.78 1544.97 Q1328.78 1540.93 1326.11 1538.73 Q1323.47 1536.5 1318.66 1536.5 Q1315.61 1536.5 1312.71 1537.23 Q1309.82 1537.97 1307.14 1539.43 L1307.14 1534.02 Q1310.36 1532.78 1313.38 1532.17 Q1316.4 1531.54 1319.27 1531.54 Q1327 1531.54 1330.82 1535.55 Q1334.64 1539.56 1334.64 1547.71 Z" fill="#000000" fill-rule="nonzero" fill-opacity="1" /><path clip-path="url(#clip370)" d="M1352.5 1522.27 L1352.5 1532.4 L1364.56 1532.4 L1364.56 1536.95 L1352.5 1536.95 L1352.5 1556.3 Q1352.5 1560.66 1353.67 1561.9 Q1354.88 1563.14 1358.54 1563.14 L1364.56 1563.14 L1364.56 1568.04 L1358.54 1568.04 Q1351.77 1568.04 1349.19 1565.53 Q1346.61 1562.98 1346.61 1556.3 L1346.61 1536.95 L1342.31 1536.95 L1342.31 1532.4 L1346.61 1532.4 L1346.61 1522.27 L1352.5 1522.27 Z" fill="#000000" fill-rule="nonzero" fill-opacity="1" /><path clip-path="url(#clip370)" d="M1372.26 1532.4 L1378.12 1532.4 L1378.12 1568.04 L1372.26 1568.04 L1372.26 1532.4 M1372.26 1518.52 L1378.12 1518.52 L1378.12 1525.93 L1372.26 1525.93 L1372.26 1518.52 Z" fill="#000000" fill-rule="nonzero" fill-opacity="1" /><path clip-path="url(#clip370)" d="M1404.19 1536.5 Q1399.48 1536.5 1396.74 1540.19 Q1394 1543.85 1394 1550.25 Q1394 1556.65 1396.71 1560.34 Q1399.44 1564 1404.19 1564 Q1408.87 1564 1411.6 1560.31 Q1414.34 1556.62 1414.34 1550.25 Q1414.34 1543.92 1411.6 1540.23 Q1408.87 1536.5 1404.19 1536.5 M1404.19 1531.54 Q1411.83 1531.54 1416.19 1536.5 Q1420.55 1541.47 1420.55 1550.25 Q1420.55 1559 1416.19 1564 Q1411.83 1568.97 1404.19 1568.97 Q1396.52 1568.97 1392.16 1564 Q1387.83 1559 1387.83 1550.25 Q1387.83 1541.47 1392.16 1536.5 Q1396.52 1531.54 1404.19 1531.54 Z" fill="#000000" fill-rule="nonzero" fill-opacity="1" /><path clip-path="url(#clip370)" d="M1459.89 1546.53 L1459.89 1568.04 L1454.03 1568.04 L1454.03 1546.72 Q1454.03 1541.66 1452.06 1539.14 Q1450.08 1536.63 1446.14 1536.63 Q1441.39 1536.63 1438.66 1539.65 Q1435.92 1542.68 1435.92 1547.9 L1435.92 1568.04 L1430.03 1568.04 L1430.03 1532.4 L1435.92 1532.4 L1435.92 1537.93 Q1438.02 1534.72 1440.85 1533.13 Q1443.72 1531.54 1447.44 1531.54 Q1453.58 1531.54 1456.74 1535.36 Q1459.89 1539.14 1459.89 1546.53 Z" fill="#000000" fill-rule="nonzero" fill-opacity="1" /><polyline clip-path="url(#clip370)" style="stroke:#000000; stroke-linecap:round; stroke-linejoin:round; stroke-width:4; stroke-opacity:1; fill:none" points="302.458,1423.18 302.458,106.192 "/>
<polyline clip-path="url(#clip370)" style="stroke:#000000; stroke-linecap:round; stroke-linejoin:round; stroke-width:4; stroke-opacity:1; fill:none" points="302.458,1274.41 321.356,1274.41 "/>
<polyline clip-path="url(#clip370)" style="stroke:#000000; stroke-linecap:round; stroke-linejoin:round; stroke-width:4; stroke-opacity:1; fill:none" points="302.458,1098.01 321.356,1098.01 "/>
<polyline clip-path="url(#clip370)" style="stroke:#000000; stroke-linecap:round; stroke-linejoin:round; stroke-width:4; stroke-opacity:1; fill:none" points="302.458,921.616 321.356,921.616 "/>
<polyline clip-path="url(#clip370)" style="stroke:#000000; stroke-linecap:round; stroke-linejoin:round; stroke-width:4; stroke-opacity:1; fill:none" points="302.458,745.221 321.356,745.221 "/>
<polyline clip-path="url(#clip370)" style="stroke:#000000; stroke-linecap:round; stroke-linejoin:round; stroke-width:4; stroke-opacity:1; fill:none" points="302.458,568.826 321.356,568.826 "/>
<polyline clip-path="url(#clip370)" style="stroke:#000000; stroke-linecap:round; stroke-linejoin:round; stroke-width:4; stroke-opacity:1; fill:none" points="302.458,392.431 321.356,392.431 "/>
<polyline clip-path="url(#clip370)" style="stroke:#000000; stroke-linecap:round; stroke-linejoin:round; stroke-width:4; stroke-opacity:1; fill:none" points="302.458,216.037 321.356,216.037 "/>
<path clip-path="url(#clip370)" d="M114.26 1274.86 L143.936 1274.86 L143.936 1278.79 L114.26 1278.79 L114.26 1274.86 Z" fill="#000000" fill-rule="nonzero" fill-opacity="1" /><path clip-path="url(#clip370)" d="M154.075 1257.13 L172.431 1257.13 L172.431 1261.06 L158.357 1261.06 L158.357 1269.53 Q159.376 1269.19 160.394 1269.02 Q161.413 1268.84 162.431 1268.84 Q168.218 1268.84 171.598 1272.01 Q174.977 1275.18 174.977 1280.6 Q174.977 1286.18 171.505 1289.28 Q168.033 1292.36 161.714 1292.36 Q159.538 1292.36 157.269 1291.99 Q155.024 1291.62 152.616 1290.87 L152.616 1286.18 Q154.7 1287.31 156.922 1287.87 Q159.144 1288.42 161.621 1288.42 Q165.626 1288.42 167.964 1286.31 Q170.302 1284.21 170.302 1280.6 Q170.302 1276.99 167.964 1274.88 Q165.626 1272.77 161.621 1272.77 Q159.746 1272.77 157.871 1273.19 Q156.019 1273.61 154.075 1274.49 L154.075 1257.13 Z" fill="#000000" fill-rule="nonzero" fill-opacity="1" /><path clip-path="url(#clip370)" d="M197.037 1261.2 L185.232 1279.65 L197.037 1279.65 L197.037 1261.2 M195.811 1257.13 L201.69 1257.13 L201.69 1279.65 L206.621 1279.65 L206.621 1283.54 L201.69 1283.54 L201.69 1291.69 L197.037 1291.69 L197.037 1283.54 L181.436 1283.54 L181.436 1279.02 L195.811 1257.13 Z" fill="#000000" fill-rule="nonzero" fill-opacity="1" /><path clip-path="url(#clip370)" d="M224.352 1260.2 Q220.741 1260.2 218.912 1263.77 Q217.107 1267.31 217.107 1274.44 Q217.107 1281.55 218.912 1285.11 Q220.741 1288.65 224.352 1288.65 Q227.986 1288.65 229.792 1285.11 Q231.621 1281.55 231.621 1274.44 Q231.621 1267.31 229.792 1263.77 Q227.986 1260.2 224.352 1260.2 M224.352 1256.5 Q230.162 1256.5 233.218 1261.11 Q236.297 1265.69 236.297 1274.44 Q236.297 1283.17 233.218 1287.77 Q230.162 1292.36 224.352 1292.36 Q218.542 1292.36 215.463 1287.77 Q212.408 1283.17 212.408 1274.44 Q212.408 1265.69 215.463 1261.11 Q218.542 1256.5 224.352 1256.5 Z" fill="#000000" fill-rule="nonzero" fill-opacity="1" /><path clip-path="url(#clip370)" d="M254.514 1260.2 Q250.903 1260.2 249.074 1263.77 Q247.269 1267.31 247.269 1274.44 Q247.269 1281.55 249.074 1285.11 Q250.903 1288.65 254.514 1288.65 Q258.148 1288.65 259.954 1285.11 Q261.783 1281.55 261.783 1274.44 Q261.783 1267.31 259.954 1263.77 Q258.148 1260.2 254.514 1260.2 M254.514 1256.5 Q260.324 1256.5 263.38 1261.11 Q266.458 1265.69 266.458 1274.44 Q266.458 1283.17 263.38 1287.77 Q260.324 1292.36 254.514 1292.36 Q248.704 1292.36 245.625 1287.77 Q242.57 1283.17 242.57 1274.44 Q242.57 1265.69 245.625 1261.11 Q248.704 1256.5 254.514 1256.5 Z" fill="#000000" fill-rule="nonzero" fill-opacity="1" /><path clip-path="url(#clip370)" d="M114.26 1098.46 L143.936 1098.46 L143.936 1102.4 L114.26 1102.4 L114.26 1098.46 Z" fill="#000000" fill-rule="nonzero" fill-opacity="1" /><path clip-path="url(#clip370)" d="M154.075 1080.73 L172.431 1080.73 L172.431 1084.67 L158.357 1084.67 L158.357 1093.14 Q159.376 1092.79 160.394 1092.63 Q161.413 1092.44 162.431 1092.44 Q168.218 1092.44 171.598 1095.61 Q174.977 1098.79 174.977 1104.2 Q174.977 1109.78 171.505 1112.88 Q168.033 1115.96 161.714 1115.96 Q159.538 1115.96 157.269 1115.59 Q155.024 1115.22 152.616 1114.48 L152.616 1109.78 Q154.7 1110.92 156.922 1111.47 Q159.144 1112.03 161.621 1112.03 Q165.626 1112.03 167.964 1109.92 Q170.302 1107.81 170.302 1104.2 Q170.302 1100.59 167.964 1098.48 Q165.626 1096.38 161.621 1096.38 Q159.746 1096.38 157.871 1096.8 Q156.019 1097.21 154.075 1098.09 L154.075 1080.73 Z" fill="#000000" fill-rule="nonzero" fill-opacity="1" /><path clip-path="url(#clip370)" d="M198.357 1096.66 Q201.713 1097.37 203.588 1099.64 Q205.487 1101.91 205.487 1105.24 Q205.487 1110.36 201.968 1113.16 Q198.45 1115.96 191.968 1115.96 Q189.792 1115.96 187.477 1115.52 Q185.186 1115.11 182.732 1114.25 L182.732 1109.73 Q184.676 1110.87 186.991 1111.45 Q189.306 1112.03 191.829 1112.03 Q196.227 1112.03 198.519 1110.29 Q200.834 1108.55 200.834 1105.24 Q200.834 1102.19 198.681 1100.48 Q196.551 1098.74 192.732 1098.74 L188.704 1098.74 L188.704 1094.9 L192.917 1094.9 Q196.366 1094.9 198.195 1093.53 Q200.024 1092.14 200.024 1089.55 Q200.024 1086.89 198.125 1085.48 Q196.25 1084.04 192.732 1084.04 Q190.811 1084.04 188.612 1084.46 Q186.413 1084.87 183.774 1085.75 L183.774 1081.59 Q186.436 1080.85 188.75 1080.48 Q191.088 1080.11 193.149 1080.11 Q198.473 1080.11 201.575 1082.54 Q204.676 1084.94 204.676 1089.06 Q204.676 1091.93 203.033 1093.92 Q201.389 1095.89 198.357 1096.66 Z" fill="#000000" fill-rule="nonzero" fill-opacity="1" /><path clip-path="url(#clip370)" d="M224.352 1083.81 Q220.741 1083.81 218.912 1087.37 Q217.107 1090.92 217.107 1098.05 Q217.107 1105.15 218.912 1108.72 Q220.741 1112.26 224.352 1112.26 Q227.986 1112.26 229.792 1108.72 Q231.621 1105.15 231.621 1098.05 Q231.621 1090.92 229.792 1087.37 Q227.986 1083.81 224.352 1083.81 M224.352 1080.11 Q230.162 1080.11 233.218 1084.71 Q236.297 1089.3 236.297 1098.05 Q236.297 1106.77 233.218 1111.38 Q230.162 1115.96 224.352 1115.96 Q218.542 1115.96 215.463 1111.38 Q212.408 1106.77 212.408 1098.05 Q212.408 1089.3 215.463 1084.71 Q218.542 1080.11 224.352 1080.11 Z" fill="#000000" fill-rule="nonzero" fill-opacity="1" /><path clip-path="url(#clip370)" d="M254.514 1083.81 Q250.903 1083.81 249.074 1087.37 Q247.269 1090.92 247.269 1098.05 Q247.269 1105.15 249.074 1108.72 Q250.903 1112.26 254.514 1112.26 Q258.148 1112.26 259.954 1108.72 Q261.783 1105.15 261.783 1098.05 Q261.783 1090.92 259.954 1087.37 Q258.148 1083.81 254.514 1083.81 M254.514 1080.11 Q260.324 1080.11 263.38 1084.71 Q266.458 1089.3 266.458 1098.05 Q266.458 1106.77 263.38 1111.38 Q260.324 1115.96 254.514 1115.96 Q248.704 1115.96 245.625 1111.38 Q242.57 1106.77 242.57 1098.05 Q242.57 1089.3 245.625 1084.71 Q248.704 1080.11 254.514 1080.11 Z" fill="#000000" fill-rule="nonzero" fill-opacity="1" /><path clip-path="url(#clip370)" d="M114.26 922.067 L143.936 922.067 L143.936 926.002 L114.26 926.002 L114.26 922.067 Z" fill="#000000" fill-rule="nonzero" fill-opacity="1" /><path clip-path="url(#clip370)" d="M154.075 904.336 L172.431 904.336 L172.431 908.271 L158.357 908.271 L158.357 916.743 Q159.376 916.396 160.394 916.234 Q161.413 916.049 162.431 916.049 Q168.218 916.049 171.598 919.22 Q174.977 922.391 174.977 927.808 Q174.977 933.386 171.505 936.488 Q168.033 939.567 161.714 939.567 Q159.538 939.567 157.269 939.197 Q155.024 938.826 152.616 938.085 L152.616 933.386 Q154.7 934.521 156.922 935.076 Q159.144 935.632 161.621 935.632 Q165.626 935.632 167.964 933.525 Q170.302 931.419 170.302 927.808 Q170.302 924.197 167.964 922.09 Q165.626 919.984 161.621 919.984 Q159.746 919.984 157.871 920.4 Q156.019 920.817 154.075 921.697 L154.075 904.336 Z" fill="#000000" fill-rule="nonzero" fill-opacity="1" /><path clip-path="url(#clip370)" d="M188.218 934.96 L204.537 934.96 L204.537 938.896 L182.593 938.896 L182.593 934.96 Q185.255 932.206 189.838 927.576 Q194.445 922.924 195.625 921.581 Q197.871 919.058 198.75 917.322 Q199.653 915.562 199.653 913.873 Q199.653 911.118 197.709 909.382 Q195.787 907.646 192.686 907.646 Q190.487 907.646 188.033 908.41 Q185.602 909.174 182.825 910.725 L182.825 906.002 Q185.649 904.868 188.102 904.289 Q190.556 903.711 192.593 903.711 Q197.963 903.711 201.158 906.396 Q204.352 909.081 204.352 913.572 Q204.352 915.701 203.542 917.623 Q202.755 919.521 200.649 922.113 Q200.07 922.785 196.968 926.002 Q193.866 929.197 188.218 934.96 Z" fill="#000000" fill-rule="nonzero" fill-opacity="1" /><path clip-path="url(#clip370)" d="M224.352 907.414 Q220.741 907.414 218.912 910.979 Q217.107 914.521 217.107 921.65 Q217.107 928.757 218.912 932.322 Q220.741 935.863 224.352 935.863 Q227.986 935.863 229.792 932.322 Q231.621 928.757 231.621 921.65 Q231.621 914.521 229.792 910.979 Q227.986 907.414 224.352 907.414 M224.352 903.711 Q230.162 903.711 233.218 908.317 Q236.297 912.9 236.297 921.65 Q236.297 930.377 233.218 934.984 Q230.162 939.567 224.352 939.567 Q218.542 939.567 215.463 934.984 Q212.408 930.377 212.408 921.65 Q212.408 912.9 215.463 908.317 Q218.542 903.711 224.352 903.711 Z" fill="#000000" fill-rule="nonzero" fill-opacity="1" /><path clip-path="url(#clip370)" d="M254.514 907.414 Q250.903 907.414 249.074 910.979 Q247.269 914.521 247.269 921.65 Q247.269 928.757 249.074 932.322 Q250.903 935.863 254.514 935.863 Q258.148 935.863 259.954 932.322 Q261.783 928.757 261.783 921.65 Q261.783 914.521 259.954 910.979 Q258.148 907.414 254.514 907.414 M254.514 903.711 Q260.324 903.711 263.38 908.317 Q266.458 912.9 266.458 921.65 Q266.458 930.377 263.38 934.984 Q260.324 939.567 254.514 939.567 Q248.704 939.567 245.625 934.984 Q242.57 930.377 242.57 921.65 Q242.57 912.9 245.625 908.317 Q248.704 903.711 254.514 903.711 Z" fill="#000000" fill-rule="nonzero" fill-opacity="1" /><path clip-path="url(#clip370)" d="M114.26 745.672 L143.936 745.672 L143.936 749.607 L114.26 749.607 L114.26 745.672 Z" fill="#000000" fill-rule="nonzero" fill-opacity="1" /><path clip-path="url(#clip370)" d="M154.075 727.941 L172.431 727.941 L172.431 731.876 L158.357 731.876 L158.357 740.348 Q159.376 740.001 160.394 739.839 Q161.413 739.654 162.431 739.654 Q168.218 739.654 171.598 742.825 Q174.977 745.996 174.977 751.413 Q174.977 756.992 171.505 760.094 Q168.033 763.172 161.714 763.172 Q159.538 763.172 157.269 762.802 Q155.024 762.431 152.616 761.691 L152.616 756.992 Q154.7 758.126 156.922 758.681 Q159.144 759.237 161.621 759.237 Q165.626 759.237 167.964 757.131 Q170.302 755.024 170.302 751.413 Q170.302 747.802 167.964 745.695 Q165.626 743.589 161.621 743.589 Q159.746 743.589 157.871 744.006 Q156.019 744.422 154.075 745.302 L154.075 727.941 Z" fill="#000000" fill-rule="nonzero" fill-opacity="1" /><path clip-path="url(#clip370)" d="M185.001 758.566 L192.639 758.566 L192.639 732.2 L184.329 733.867 L184.329 729.608 L192.593 727.941 L197.269 727.941 L197.269 758.566 L204.908 758.566 L204.908 762.501 L185.001 762.501 L185.001 758.566 Z" fill="#000000" fill-rule="nonzero" fill-opacity="1" /><path clip-path="url(#clip370)" d="M224.352 731.02 Q220.741 731.02 218.912 734.584 Q217.107 738.126 217.107 745.256 Q217.107 752.362 218.912 755.927 Q220.741 759.469 224.352 759.469 Q227.986 759.469 229.792 755.927 Q231.621 752.362 231.621 745.256 Q231.621 738.126 229.792 734.584 Q227.986 731.02 224.352 731.02 M224.352 727.316 Q230.162 727.316 233.218 731.922 Q236.297 736.506 236.297 745.256 Q236.297 753.982 233.218 758.589 Q230.162 763.172 224.352 763.172 Q218.542 763.172 215.463 758.589 Q212.408 753.982 212.408 745.256 Q212.408 736.506 215.463 731.922 Q218.542 727.316 224.352 727.316 Z" fill="#000000" fill-rule="nonzero" fill-opacity="1" /><path clip-path="url(#clip370)" d="M254.514 731.02 Q250.903 731.02 249.074 734.584 Q247.269 738.126 247.269 745.256 Q247.269 752.362 249.074 755.927 Q250.903 759.469 254.514 759.469 Q258.148 759.469 259.954 755.927 Q261.783 752.362 261.783 745.256 Q261.783 738.126 259.954 734.584 Q258.148 731.02 254.514 731.02 M254.514 727.316 Q260.324 727.316 263.38 731.922 Q266.458 736.506 266.458 745.256 Q266.458 753.982 263.38 758.589 Q260.324 763.172 254.514 763.172 Q248.704 763.172 245.625 758.589 Q242.57 753.982 242.57 745.256 Q242.57 736.506 245.625 731.922 Q248.704 727.316 254.514 727.316 Z" fill="#000000" fill-rule="nonzero" fill-opacity="1" /><path clip-path="url(#clip370)" d="M114.26 569.278 L143.936 569.278 L143.936 573.213 L114.26 573.213 L114.26 569.278 Z" fill="#000000" fill-rule="nonzero" fill-opacity="1" /><path clip-path="url(#clip370)" d="M154.075 551.546 L172.431 551.546 L172.431 555.481 L158.357 555.481 L158.357 563.953 Q159.376 563.606 160.394 563.444 Q161.413 563.259 162.431 563.259 Q168.218 563.259 171.598 566.43 Q174.977 569.602 174.977 575.018 Q174.977 580.597 171.505 583.699 Q168.033 586.777 161.714 586.777 Q159.538 586.777 157.269 586.407 Q155.024 586.037 152.616 585.296 L152.616 580.597 Q154.7 581.731 156.922 582.287 Q159.144 582.842 161.621 582.842 Q165.626 582.842 167.964 580.736 Q170.302 578.629 170.302 575.018 Q170.302 571.407 167.964 569.301 Q165.626 567.194 161.621 567.194 Q159.746 567.194 157.871 567.611 Q156.019 568.028 154.075 568.907 L154.075 551.546 Z" fill="#000000" fill-rule="nonzero" fill-opacity="1" /><path clip-path="url(#clip370)" d="M194.19 554.625 Q190.579 554.625 188.75 558.19 Q186.945 561.731 186.945 568.861 Q186.945 575.967 188.75 579.532 Q190.579 583.074 194.19 583.074 Q197.825 583.074 199.63 579.532 Q201.459 575.967 201.459 568.861 Q201.459 561.731 199.63 558.19 Q197.825 554.625 194.19 554.625 M194.19 550.921 Q200 550.921 203.056 555.528 Q206.135 560.111 206.135 568.861 Q206.135 577.588 203.056 582.194 Q200 586.777 194.19 586.777 Q188.38 586.777 185.301 582.194 Q182.246 577.588 182.246 568.861 Q182.246 560.111 185.301 555.528 Q188.38 550.921 194.19 550.921 Z" fill="#000000" fill-rule="nonzero" fill-opacity="1" /><path clip-path="url(#clip370)" d="M224.352 554.625 Q220.741 554.625 218.912 558.19 Q217.107 561.731 217.107 568.861 Q217.107 575.967 218.912 579.532 Q220.741 583.074 224.352 583.074 Q227.986 583.074 229.792 579.532 Q231.621 575.967 231.621 568.861 Q231.621 561.731 229.792 558.19 Q227.986 554.625 224.352 554.625 M224.352 550.921 Q230.162 550.921 233.218 555.528 Q236.297 560.111 236.297 568.861 Q236.297 577.588 233.218 582.194 Q230.162 586.777 224.352 586.777 Q218.542 586.777 215.463 582.194 Q212.408 577.588 212.408 568.861 Q212.408 560.111 215.463 555.528 Q218.542 550.921 224.352 550.921 Z" fill="#000000" fill-rule="nonzero" fill-opacity="1" /><path clip-path="url(#clip370)" d="M254.514 554.625 Q250.903 554.625 249.074 558.19 Q247.269 561.731 247.269 568.861 Q247.269 575.967 249.074 579.532 Q250.903 583.074 254.514 583.074 Q258.148 583.074 259.954 579.532 Q261.783 575.967 261.783 568.861 Q261.783 561.731 259.954 558.19 Q258.148 554.625 254.514 554.625 M254.514 550.921 Q260.324 550.921 263.38 555.528 Q266.458 560.111 266.458 568.861 Q266.458 577.588 263.38 582.194 Q260.324 586.777 254.514 586.777 Q248.704 586.777 245.625 582.194 Q242.57 577.588 242.57 568.861 Q242.57 560.111 245.625 555.528 Q248.704 550.921 254.514 550.921 Z" fill="#000000" fill-rule="nonzero" fill-opacity="1" /><path clip-path="url(#clip370)" d="M114.26 392.883 L143.936 392.883 L143.936 396.818 L114.26 396.818 L114.26 392.883 Z" fill="#000000" fill-rule="nonzero" fill-opacity="1" /><path clip-path="url(#clip370)" d="M166.876 379.225 L155.07 397.674 L166.876 397.674 L166.876 379.225 M165.649 375.151 L171.528 375.151 L171.528 397.674 L176.459 397.674 L176.459 401.563 L171.528 401.563 L171.528 409.711 L166.876 409.711 L166.876 401.563 L151.274 401.563 L151.274 397.049 L165.649 375.151 Z" fill="#000000" fill-rule="nonzero" fill-opacity="1" /><path clip-path="url(#clip370)" d="M184.329 408.994 L184.329 404.735 Q186.088 405.568 187.894 406.008 Q189.7 406.448 191.436 406.448 Q196.065 406.448 198.496 403.346 Q200.95 400.221 201.297 393.878 Q199.954 395.869 197.894 396.934 Q195.834 397.998 193.334 397.998 Q188.149 397.998 185.116 394.874 Q182.107 391.725 182.107 386.286 Q182.107 380.962 185.255 377.744 Q188.403 374.526 193.635 374.526 Q199.63 374.526 202.778 379.133 Q205.949 383.716 205.949 392.466 Q205.949 400.637 202.061 405.522 Q198.195 410.383 191.644 410.383 Q189.885 410.383 188.079 410.035 Q186.274 409.688 184.329 408.994 M193.635 394.341 Q196.783 394.341 198.612 392.188 Q200.463 390.036 200.463 386.286 Q200.463 382.559 198.612 380.406 Q196.783 378.23 193.635 378.23 Q190.487 378.23 188.635 380.406 Q186.806 382.559 186.806 386.286 Q186.806 390.036 188.635 392.188 Q190.487 394.341 193.635 394.341 Z" fill="#000000" fill-rule="nonzero" fill-opacity="1" /><path clip-path="url(#clip370)" d="M224.352 378.23 Q220.741 378.23 218.912 381.795 Q217.107 385.337 217.107 392.466 Q217.107 399.573 218.912 403.137 Q220.741 406.679 224.352 406.679 Q227.986 406.679 229.792 403.137 Q231.621 399.573 231.621 392.466 Q231.621 385.337 229.792 381.795 Q227.986 378.23 224.352 378.23 M224.352 374.526 Q230.162 374.526 233.218 379.133 Q236.297 383.716 236.297 392.466 Q236.297 401.193 233.218 405.799 Q230.162 410.383 224.352 410.383 Q218.542 410.383 215.463 405.799 Q212.408 401.193 212.408 392.466 Q212.408 383.716 215.463 379.133 Q218.542 374.526 224.352 374.526 Z" fill="#000000" fill-rule="nonzero" fill-opacity="1" /><path clip-path="url(#clip370)" d="M254.514 378.23 Q250.903 378.23 249.074 381.795 Q247.269 385.337 247.269 392.466 Q247.269 399.573 249.074 403.137 Q250.903 406.679 254.514 406.679 Q258.148 406.679 259.954 403.137 Q261.783 399.573 261.783 392.466 Q261.783 385.337 259.954 381.795 Q258.148 378.23 254.514 378.23 M254.514 374.526 Q260.324 374.526 263.38 379.133 Q266.458 383.716 266.458 392.466 Q266.458 401.193 263.38 405.799 Q260.324 410.383 254.514 410.383 Q248.704 410.383 245.625 405.799 Q242.57 401.193 242.57 392.466 Q242.57 383.716 245.625 379.133 Q248.704 374.526 254.514 374.526 Z" fill="#000000" fill-rule="nonzero" fill-opacity="1" /><path clip-path="url(#clip370)" d="M114.26 216.488 L143.936 216.488 L143.936 220.423 L114.26 220.423 L114.26 216.488 Z" fill="#000000" fill-rule="nonzero" fill-opacity="1" /><path clip-path="url(#clip370)" d="M166.876 202.831 L155.07 221.28 L166.876 221.28 L166.876 202.831 M165.649 198.757 L171.528 198.757 L171.528 221.28 L176.459 221.28 L176.459 225.169 L171.528 225.169 L171.528 233.317 L166.876 233.317 L166.876 225.169 L151.274 225.169 L151.274 220.655 L165.649 198.757 Z" fill="#000000" fill-rule="nonzero" fill-opacity="1" /><path clip-path="url(#clip370)" d="M194.19 216.905 Q190.857 216.905 188.936 218.687 Q187.038 220.469 187.038 223.594 Q187.038 226.719 188.936 228.502 Q190.857 230.284 194.19 230.284 Q197.524 230.284 199.445 228.502 Q201.366 226.696 201.366 223.594 Q201.366 220.469 199.445 218.687 Q197.547 216.905 194.19 216.905 M189.514 214.914 Q186.505 214.173 184.815 212.113 Q183.149 210.053 183.149 207.09 Q183.149 202.946 186.088 200.539 Q189.051 198.132 194.19 198.132 Q199.352 198.132 202.292 200.539 Q205.232 202.946 205.232 207.09 Q205.232 210.053 203.542 212.113 Q201.875 214.173 198.889 214.914 Q202.269 215.701 204.144 217.993 Q206.042 220.284 206.042 223.594 Q206.042 228.618 202.963 231.303 Q199.908 233.988 194.19 233.988 Q188.473 233.988 185.394 231.303 Q182.338 228.618 182.338 223.594 Q182.338 220.284 184.237 217.993 Q186.135 215.701 189.514 214.914 M187.801 207.53 Q187.801 210.215 189.468 211.72 Q191.158 213.224 194.19 213.224 Q197.2 213.224 198.889 211.72 Q200.602 210.215 200.602 207.53 Q200.602 204.845 198.889 203.34 Q197.2 201.835 194.19 201.835 Q191.158 201.835 189.468 203.34 Q187.801 204.845 187.801 207.53 Z" fill="#000000" fill-rule="nonzero" fill-opacity="1" /><path clip-path="url(#clip370)" d="M224.352 201.835 Q220.741 201.835 218.912 205.4 Q217.107 208.942 217.107 216.071 Q217.107 223.178 218.912 226.743 Q220.741 230.284 224.352 230.284 Q227.986 230.284 229.792 226.743 Q231.621 223.178 231.621 216.071 Q231.621 208.942 229.792 205.4 Q227.986 201.835 224.352 201.835 M224.352 198.132 Q230.162 198.132 233.218 202.738 Q236.297 207.321 236.297 216.071 Q236.297 224.798 233.218 229.405 Q230.162 233.988 224.352 233.988 Q218.542 233.988 215.463 229.405 Q212.408 224.798 212.408 216.071 Q212.408 207.321 215.463 202.738 Q218.542 198.132 224.352 198.132 Z" fill="#000000" fill-rule="nonzero" fill-opacity="1" /><path clip-path="url(#clip370)" d="M254.514 201.835 Q250.903 201.835 249.074 205.4 Q247.269 208.942 247.269 216.071 Q247.269 223.178 249.074 226.743 Q250.903 230.284 254.514 230.284 Q258.148 230.284 259.954 226.743 Q261.783 223.178 261.783 216.071 Q261.783 208.942 259.954 205.4 Q258.148 201.835 254.514 201.835 M254.514 198.132 Q260.324 198.132 263.38 202.738 Q266.458 207.321 266.458 216.071 Q266.458 224.798 263.38 229.405 Q260.324 233.988 254.514 233.988 Q248.704 233.988 245.625 229.405 Q242.57 224.798 242.57 216.071 Q242.57 207.321 245.625 202.738 Q248.704 198.132 254.514 198.132 Z" fill="#000000" fill-rule="nonzero" fill-opacity="1" /><path clip-path="url(#clip370)" d="M16.4842 992.817 L16.4842 986.388 L58.5933 986.388 L58.5933 963.248 L64.0042 963.248 L64.0042 992.817 L16.4842 992.817 Z" fill="#000000" fill-rule="nonzero" fill-opacity="1" /><path clip-path="url(#clip370)" d="M32.4621 944.088 Q32.4621 948.798 36.1542 951.535 Q39.8145 954.273 46.212 954.273 Q52.6095 954.273 56.3017 951.567 Q59.9619 948.83 59.9619 944.088 Q59.9619 939.409 56.2698 936.671 Q52.5777 933.934 46.212 933.934 Q39.8781 933.934 36.186 936.671 Q32.4621 939.409 32.4621 944.088 M27.4968 944.088 Q27.4968 936.449 32.4621 932.088 Q37.4273 927.728 46.212 927.728 Q54.9649 927.728 59.9619 932.088 Q64.9272 936.449 64.9272 944.088 Q64.9272 951.758 59.9619 956.119 Q54.9649 960.447 46.212 960.447 Q37.4273 960.447 32.4621 956.119 Q27.4968 951.758 27.4968 944.088 Z" fill="#000000" fill-rule="nonzero" fill-opacity="1" /><path clip-path="url(#clip370)" d="M45.7664 894.562 Q39.4007 894.562 35.8996 897.204 Q32.3984 899.814 32.3984 904.556 Q32.3984 909.267 35.8996 911.909 Q39.4007 914.519 45.7664 914.519 Q52.1003 914.519 55.6014 911.909 Q59.1026 909.267 59.1026 904.556 Q59.1026 899.814 55.6014 897.204 Q52.1003 894.562 45.7664 894.562 M59.58 888.706 Q68.683 888.706 73.1071 892.748 Q77.5631 896.79 77.5631 905.129 Q77.5631 908.217 77.0857 910.954 Q76.6401 913.691 75.6852 916.269 L69.9879 916.269 Q71.3884 913.691 72.0568 911.177 Q72.7252 908.662 72.7252 906.052 Q72.7252 900.291 69.7015 897.427 Q66.7096 894.562 60.6303 894.562 L57.7339 894.562 Q60.885 896.377 62.4446 899.209 Q64.0042 902.042 64.0042 905.989 Q64.0042 912.545 59.0071 916.556 Q54.01 920.566 45.7664 920.566 Q37.491 920.566 32.4939 916.556 Q27.4968 912.545 27.4968 905.989 Q27.4968 902.042 29.0564 899.209 Q30.616 896.377 33.7671 894.562 L28.3562 894.562 L28.3562 888.706 L59.58 888.706 Z" fill="#000000" fill-rule="nonzero" fill-opacity="1" /><path clip-path="url(#clip370)" d="M43.5384 879.603 L43.5384 862.447 L48.7583 862.447 L48.7583 879.603 L43.5384 879.603 Z" fill="#000000" fill-rule="nonzero" fill-opacity="1" /><path clip-path="url(#clip370)" d="M16.4842 852.867 L16.4842 846.438 L58.5933 846.438 L58.5933 823.298 L64.0042 823.298 L64.0042 852.867 L16.4842 852.867 Z" fill="#000000" fill-rule="nonzero" fill-opacity="1" /><path clip-path="url(#clip370)" d="M28.3562 816.805 L28.3562 810.949 L64.0042 810.949 L64.0042 816.805 L28.3562 816.805 M14.479 816.805 L14.479 810.949 L21.895 810.949 L21.895 816.805 L14.479 816.805 Z" fill="#000000" fill-rule="nonzero" fill-opacity="1" /><path clip-path="url(#clip370)" d="M14.479 798.918 L14.479 793.029 L43.7294 793.029 L28.3562 775.555 L28.3562 768.076 L45.0344 786.982 L64.0042 767.28 L64.0042 774.919 L46.5939 793.029 L64.0042 793.029 L64.0042 798.918 L14.479 798.918 Z" fill="#000000" fill-rule="nonzero" fill-opacity="1" /><path clip-path="url(#clip370)" d="M44.7161 732.778 L47.5806 732.778 L47.5806 759.705 Q53.6281 759.323 56.8109 756.076 Q59.9619 752.798 59.9619 746.973 Q59.9619 743.6 59.1344 740.449 Q58.3069 737.266 56.6518 734.147 L62.1899 734.147 Q63.5267 737.298 64.227 740.608 Q64.9272 743.918 64.9272 747.324 Q64.9272 755.854 59.9619 760.851 Q54.9967 765.816 46.5303 765.816 Q37.7774 765.816 32.6531 761.105 Q27.4968 756.363 27.4968 748.342 Q27.4968 741.149 32.1438 736.979 Q36.7589 732.778 44.7161 732.778 M42.9973 738.634 Q38.1912 738.698 35.3266 741.34 Q32.4621 743.95 32.4621 748.278 Q32.4621 753.18 35.2312 756.14 Q38.0002 759.068 43.0292 759.514 L42.9973 738.634 Z" fill="#000000" fill-rule="nonzero" fill-opacity="1" /><path clip-path="url(#clip370)" d="M14.479 723.166 L14.479 717.309 L64.0042 717.309 L64.0042 723.166 L14.479 723.166 Z" fill="#000000" fill-rule="nonzero" fill-opacity="1" /><path clip-path="url(#clip370)" d="M28.3562 705.055 L28.3562 699.199 L64.0042 699.199 L64.0042 705.055 L28.3562 705.055 M14.479 705.055 L14.479 699.199 L21.895 699.199 L21.895 705.055 L14.479 705.055 Z" fill="#000000" fill-rule="nonzero" fill-opacity="1" /><path clip-path="url(#clip370)" d="M42.4881 657.312 L64.0042 657.312 L64.0042 663.169 L42.679 663.169 Q37.6183 663.169 35.1038 665.142 Q32.5894 667.116 32.5894 671.062 Q32.5894 675.805 35.6131 678.542 Q38.6368 681.279 43.8567 681.279 L64.0042 681.279 L64.0042 687.168 L14.479 687.168 L14.479 681.279 L33.8944 681.279 Q30.6797 679.179 29.0883 676.346 Q27.4968 673.481 27.4968 669.757 Q27.4968 663.614 31.3163 660.463 Q35.1038 657.312 42.4881 657.312 Z" fill="#000000" fill-rule="nonzero" fill-opacity="1" /><path clip-path="url(#clip370)" d="M32.4621 631.818 Q32.4621 636.528 36.1542 639.266 Q39.8145 642.003 46.212 642.003 Q52.6095 642.003 56.3017 639.297 Q59.9619 636.56 59.9619 631.818 Q59.9619 627.139 56.2698 624.402 Q52.5777 621.664 46.212 621.664 Q39.8781 621.664 36.186 624.402 Q32.4621 627.139 32.4621 631.818 M27.4968 631.818 Q27.4968 624.179 32.4621 619.818 Q37.4273 615.458 46.212 615.458 Q54.9649 615.458 59.9619 619.818 Q64.9272 624.179 64.9272 631.818 Q64.9272 639.488 59.9619 643.849 Q54.9649 648.178 46.212 648.178 Q37.4273 648.178 32.4621 643.849 Q27.4968 639.488 27.4968 631.818 Z" fill="#000000" fill-rule="nonzero" fill-opacity="1" /><path clip-path="url(#clip370)" d="M32.4621 591.937 Q32.4621 596.647 36.1542 599.384 Q39.8145 602.122 46.212 602.122 Q52.6095 602.122 56.3017 599.416 Q59.9619 596.679 59.9619 591.937 Q59.9619 587.258 56.2698 584.521 Q52.5777 581.783 46.212 581.783 Q39.8781 581.783 36.186 584.521 Q32.4621 587.258 32.4621 591.937 M27.4968 591.937 Q27.4968 584.298 32.4621 579.937 Q37.4273 575.577 46.212 575.577 Q54.9649 575.577 59.9619 579.937 Q64.9272 584.298 64.9272 591.937 Q64.9272 599.607 59.9619 603.968 Q54.9649 608.296 46.212 608.296 Q37.4273 608.296 32.4621 603.968 Q27.4968 599.607 27.4968 591.937 Z" fill="#000000" fill-rule="nonzero" fill-opacity="1" /><path clip-path="url(#clip370)" d="M33.7671 542.411 L14.479 542.411 L14.479 536.555 L64.0042 536.555 L64.0042 542.411 L58.657 542.411 Q61.8398 544.257 63.3994 547.09 Q64.9272 549.891 64.9272 553.838 Q64.9272 560.299 59.771 564.373 Q54.6147 568.415 46.212 568.415 Q37.8093 568.415 32.6531 564.373 Q27.4968 560.299 27.4968 553.838 Q27.4968 549.891 29.0564 547.09 Q30.5842 544.257 33.7671 542.411 M46.212 562.368 Q52.6732 562.368 56.3653 559.726 Q60.0256 557.053 60.0256 552.406 Q60.0256 547.759 56.3653 545.085 Q52.6732 542.411 46.212 542.411 Q39.7508 542.411 36.0905 545.085 Q32.3984 547.759 32.3984 552.406 Q32.3984 557.053 36.0905 559.726 Q39.7508 562.368 46.212 562.368 Z" fill="#000000" fill-rule="nonzero" fill-opacity="1" /><path clip-path="url(#clip370)" d="M916.672 11.9675 L916.672 18.1307 Q913.72 15.3819 910.364 14.0219 Q907.036 12.662 903.275 12.662 Q895.868 12.662 891.932 17.2048 Q887.997 21.7186 887.997 30.2834 Q887.997 38.8192 891.932 43.362 Q895.868 47.8759 903.275 47.8759 Q907.036 47.8759 910.364 46.516 Q913.72 45.156 916.672 42.4072 L916.672 48.5125 Q913.605 50.5958 910.161 51.6375 Q906.747 52.6791 902.928 52.6791 Q893.119 52.6791 887.476 46.6896 Q881.834 40.6711 881.834 30.2834 Q881.834 19.8668 887.476 13.8772 Q893.119 7.85875 902.928 7.85875 Q906.805 7.85875 910.219 8.90042 Q913.663 9.91314 916.672 11.9675 Z" fill="#000000" fill-rule="nonzero" fill-opacity="1" /><path clip-path="url(#clip370)" d="M938.026 23.1654 Q933.744 23.1654 931.255 26.5218 Q928.767 29.8494 928.767 35.6653 Q928.767 41.4813 931.226 44.8377 Q933.715 48.1653 938.026 48.1653 Q942.279 48.1653 944.768 44.8088 Q947.256 41.4523 947.256 35.6653 Q947.256 29.9072 944.768 26.5508 Q942.279 23.1654 938.026 23.1654 M938.026 18.6515 Q944.97 18.6515 948.934 23.1654 Q952.899 27.6792 952.899 35.6653 Q952.899 43.6225 948.934 48.1653 Q944.97 52.6791 938.026 52.6791 Q931.053 52.6791 927.088 48.1653 Q923.153 43.6225 923.153 35.6653 Q923.153 27.6792 927.088 23.1654 Q931.053 18.6515 938.026 18.6515 Z" fill="#000000" fill-rule="nonzero" fill-opacity="1" /><path clip-path="url(#clip370)" d="M988.662 32.2799 L988.662 51.84 L983.338 51.84 L983.338 32.4535 Q983.338 27.8529 981.544 25.567 Q979.75 23.2811 976.162 23.2811 Q971.851 23.2811 969.363 26.03 Q966.874 28.7788 966.874 33.5241 L966.874 51.84 L961.521 51.84 L961.521 19.4328 L966.874 19.4328 L966.874 24.4675 Q968.784 21.545 971.359 20.0983 Q973.963 18.6515 977.349 18.6515 Q982.933 18.6515 985.798 22.1237 Q988.662 25.567 988.662 32.2799 Z" fill="#000000" fill-rule="nonzero" fill-opacity="1" /><path clip-path="url(#clip370)" d="M995.462 19.4328 L1001.1 19.4328 L1011.23 46.6317 L1021.36 19.4328 L1027 19.4328 L1014.85 51.84 L1007.61 51.84 L995.462 19.4328 Z" fill="#000000" fill-rule="nonzero" fill-opacity="1" /><path clip-path="url(#clip370)" d="M1062.07 34.3054 L1062.07 36.9095 L1037.59 36.9095 Q1037.94 42.4072 1040.89 45.3007 Q1043.87 48.1653 1049.17 48.1653 Q1052.23 48.1653 1055.1 47.4129 Q1057.99 46.6606 1060.83 45.156 L1060.83 50.1907 Q1057.96 51.406 1054.95 52.0425 Q1051.94 52.6791 1048.85 52.6791 Q1041.09 52.6791 1036.55 48.1653 Q1032.04 43.6514 1032.04 35.9547 Q1032.04 27.9975 1036.32 23.339 Q1040.63 18.6515 1047.92 18.6515 Q1054.46 18.6515 1058.25 22.876 Q1062.07 27.0716 1062.07 34.3054 M1056.75 32.7429 Q1056.69 28.3737 1054.29 25.7695 Q1051.91 23.1654 1047.98 23.1654 Q1043.52 23.1654 1040.83 25.6827 Q1038.17 28.2001 1037.76 32.7718 L1056.75 32.7429 Z" fill="#000000" fill-rule="nonzero" fill-opacity="1" /><path clip-path="url(#clip370)" d="M1089.59 24.4096 Q1088.69 23.8888 1087.62 23.6573 Q1086.58 23.3969 1085.31 23.3969 Q1080.79 23.3969 1078.36 26.3482 Q1075.96 29.2707 1075.96 34.7683 L1075.96 51.84 L1070.61 51.84 L1070.61 19.4328 L1075.96 19.4328 L1075.96 24.4675 Q1077.64 21.5161 1080.33 20.0983 Q1083.02 18.6515 1086.87 18.6515 Q1087.42 18.6515 1088.08 18.7383 Q1088.75 18.7962 1089.56 18.9409 L1089.59 24.4096 Z" fill="#000000" fill-rule="nonzero" fill-opacity="1" /><path clip-path="url(#clip370)" d="M1115.46 35.2602 Q1115.46 29.4732 1113.05 26.2904 Q1110.68 23.1075 1106.37 23.1075 Q1102.09 23.1075 1099.69 26.2904 Q1097.31 29.4732 1097.31 35.2602 Q1097.31 41.0183 1099.69 44.2012 Q1102.09 47.384 1106.37 47.384 Q1110.68 47.384 1113.05 44.2012 Q1115.46 41.0183 1115.46 35.2602 M1120.78 47.818 Q1120.78 56.0934 1117.1 60.1154 Q1113.43 64.1663 1105.85 64.1663 Q1103.04 64.1663 1100.55 63.7323 Q1098.07 63.3272 1095.72 62.4592 L1095.72 57.2798 Q1098.07 58.5529 1100.35 59.1606 Q1102.64 59.7682 1105.01 59.7682 Q1110.25 59.7682 1112.85 57.0194 Q1115.46 54.2995 1115.46 48.7729 L1115.46 46.1398 Q1113.81 49.0044 1111.23 50.4222 Q1108.66 51.84 1105.07 51.84 Q1099.11 51.84 1095.46 47.2972 Q1091.82 42.7544 1091.82 35.2602 Q1091.82 27.7371 1095.46 23.1943 Q1099.11 18.6515 1105.07 18.6515 Q1108.66 18.6515 1111.23 20.0693 Q1113.81 21.4872 1115.46 24.3517 L1115.46 19.4328 L1120.78 19.4328 L1120.78 47.818 Z" fill="#000000" fill-rule="nonzero" fill-opacity="1" /><path clip-path="url(#clip370)" d="M1159.47 34.3054 L1159.47 36.9095 L1134.99 36.9095 Q1135.33 42.4072 1138.29 45.3007 Q1141.27 48.1653 1146.56 48.1653 Q1149.63 48.1653 1152.49 47.4129 Q1155.39 46.6606 1158.22 45.156 L1158.22 50.1907 Q1155.36 51.406 1152.35 52.0425 Q1149.34 52.6791 1146.24 52.6791 Q1138.49 52.6791 1133.95 48.1653 Q1129.43 43.6514 1129.43 35.9547 Q1129.43 27.9975 1133.71 23.339 Q1138.02 18.6515 1145.32 18.6515 Q1151.86 18.6515 1155.65 22.876 Q1159.47 27.0716 1159.47 34.3054 M1154.14 32.7429 Q1154.08 28.3737 1151.68 25.7695 Q1149.31 23.1654 1145.37 23.1654 Q1140.92 23.1654 1138.23 25.6827 Q1135.57 28.2001 1135.16 32.7718 L1154.14 32.7429 Z" fill="#000000" fill-rule="nonzero" fill-opacity="1" /><path clip-path="url(#clip370)" d="M1195.14 32.2799 L1195.14 51.84 L1189.82 51.84 L1189.82 32.4535 Q1189.82 27.8529 1188.02 25.567 Q1186.23 23.2811 1182.64 23.2811 Q1178.33 23.2811 1175.84 26.03 Q1173.35 28.7788 1173.35 33.5241 L1173.35 51.84 L1168 51.84 L1168 19.4328 L1173.35 19.4328 L1173.35 24.4675 Q1175.26 21.545 1177.84 20.0983 Q1180.44 18.6515 1183.83 18.6515 Q1189.41 18.6515 1192.28 22.1237 Q1195.14 25.567 1195.14 32.2799 Z" fill="#000000" fill-rule="nonzero" fill-opacity="1" /><path clip-path="url(#clip370)" d="M1229.08 20.677 L1229.08 25.6538 Q1226.83 24.4096 1224.54 23.802 Q1222.28 23.1654 1219.97 23.1654 Q1214.79 23.1654 1211.92 26.464 Q1209.06 29.7336 1209.06 35.6653 Q1209.06 41.597 1211.92 44.8956 Q1214.79 48.1653 1219.97 48.1653 Q1222.28 48.1653 1224.54 47.5576 Q1226.83 46.921 1229.08 45.6768 L1229.08 50.5958 Q1226.86 51.6375 1224.45 52.1583 Q1222.08 52.6791 1219.39 52.6791 Q1212.07 52.6791 1207.76 48.0784 Q1203.45 43.4778 1203.45 35.6653 Q1203.45 27.7371 1207.79 23.1943 Q1212.16 18.6515 1219.74 18.6515 Q1222.2 18.6515 1224.54 19.1724 Q1226.88 19.6642 1229.08 20.677 Z" fill="#000000" fill-rule="nonzero" fill-opacity="1" /><path clip-path="url(#clip370)" d="M1266.06 34.3054 L1266.06 36.9095 L1241.58 36.9095 Q1241.93 42.4072 1244.88 45.3007 Q1247.86 48.1653 1253.16 48.1653 Q1256.22 48.1653 1259.09 47.4129 Q1261.98 46.6606 1264.82 45.156 L1264.82 50.1907 Q1261.95 51.406 1258.94 52.0425 Q1255.94 52.6791 1252.84 52.6791 Q1245.08 52.6791 1240.54 48.1653 Q1236.03 43.6514 1236.03 35.9547 Q1236.03 27.9975 1240.31 23.339 Q1244.62 18.6515 1251.91 18.6515 Q1258.45 18.6515 1262.24 22.876 Q1266.06 27.0716 1266.06 34.3054 M1260.74 32.7429 Q1260.68 28.3737 1258.28 25.7695 Q1255.91 23.1654 1251.97 23.1654 Q1247.51 23.1654 1244.82 25.6827 Q1242.16 28.2001 1241.76 32.7718 L1260.74 32.7429 Z" fill="#000000" fill-rule="nonzero" fill-opacity="1" /><path clip-path="url(#clip370)" d="M1306.43 6.87496 Q1302.55 13.53 1300.67 20.0404 Q1298.79 26.5508 1298.79 33.2348 Q1298.79 39.9188 1300.67 46.487 Q1302.58 53.0263 1306.43 59.6525 L1301.8 59.6525 Q1297.46 52.8527 1295.29 46.2845 Q1293.15 39.7162 1293.15 33.2348 Q1293.15 26.7823 1295.29 20.2429 Q1297.43 13.7036 1301.8 6.87496 L1306.43 6.87496 Z" fill="#000000" fill-rule="nonzero" fill-opacity="1" /><path clip-path="url(#clip370)" d="M1349.34 11.9675 L1349.34 18.1307 Q1346.39 15.3819 1343.03 14.0219 Q1339.7 12.662 1335.94 12.662 Q1328.53 12.662 1324.6 17.2048 Q1320.66 21.7186 1320.66 30.2834 Q1320.66 38.8192 1324.6 43.362 Q1328.53 47.8759 1335.94 47.8759 Q1339.7 47.8759 1343.03 46.516 Q1346.39 45.156 1349.34 42.4072 L1349.34 48.5125 Q1346.27 50.5958 1342.83 51.6375 Q1339.41 52.6791 1335.59 52.6791 Q1325.78 52.6791 1320.14 46.6896 Q1314.5 40.6711 1314.5 30.2834 Q1314.5 19.8668 1320.14 13.8772 Q1325.78 7.85875 1335.59 7.85875 Q1339.47 7.85875 1342.88 8.90042 Q1346.33 9.91314 1349.34 11.9675 Z" fill="#000000" fill-rule="nonzero" fill-opacity="1" /><path clip-path="url(#clip370)" d="M1358.37 8.64 L1364.21 8.64 L1364.21 26.3482 L1385.45 26.3482 L1385.45 8.64 L1391.29 8.64 L1391.29 51.84 L1385.45 51.84 L1385.45 31.2672 L1364.21 31.2672 L1364.21 51.84 L1358.37 51.84 L1358.37 8.64 Z" fill="#000000" fill-rule="nonzero" fill-opacity="1" /><path clip-path="url(#clip370)" d="M1402.93 8.64 L1411.63 8.64 L1422.66 38.038 L1433.74 8.64 L1442.45 8.64 L1442.45 51.84 L1436.75 51.84 L1436.75 13.9062 L1425.61 43.5356 L1419.74 43.5356 L1408.6 13.9062 L1408.6 51.84 L1402.93 51.84 L1402.93 8.64 Z" fill="#000000" fill-rule="nonzero" fill-opacity="1" /><path clip-path="url(#clip370)" d="M1454.05 8.64 L1462.76 8.64 L1473.79 38.038 L1484.87 8.64 L1493.58 8.64 L1493.58 51.84 L1487.88 51.84 L1487.88 13.9062 L1476.74 43.5356 L1470.86 43.5356 L1459.72 13.9062 L1459.72 51.84 L1454.05 51.84 L1454.05 8.64 Z" fill="#000000" fill-rule="nonzero" fill-opacity="1" /><path clip-path="url(#clip370)" d="M1502.26 33.2348 L1517.85 33.2348 L1517.85 37.9801 L1502.26 37.9801 L1502.26 33.2348 Z" fill="#000000" fill-rule="nonzero" fill-opacity="1" /><path clip-path="url(#clip370)" d="M1526.56 8.64 L1532.41 8.64 L1532.41 46.921 L1553.45 46.921 L1553.45 51.84 L1526.56 51.84 L1526.56 8.64 Z" fill="#000000" fill-rule="nonzero" fill-opacity="1" /><path clip-path="url(#clip370)" d="M1560.71 44.4905 L1566.81 44.4905 L1566.81 49.4673 L1562.07 58.7265 L1558.34 58.7265 L1560.71 49.4673 L1560.71 44.4905 Z" fill="#000000" fill-rule="nonzero" fill-opacity="1" /><path clip-path="url(#clip370)" d="M1597.25 8.64 L1603.1 8.64 L1603.1 26.898 L1622.48 8.64 L1630.01 8.64 L1608.57 28.7788 L1631.54 51.84 L1623.84 51.84 L1603.1 31.0357 L1603.1 51.84 L1597.25 51.84 L1597.25 8.64 Z" fill="#000000" fill-rule="nonzero" fill-opacity="1" /><path clip-path="url(#clip370)" d="M1636.58 24.9304 L1673.67 24.9304 L1673.67 29.7915 L1636.58 29.7915 L1636.58 24.9304 M1636.58 36.7359 L1673.67 36.7359 L1673.67 41.6549 L1636.58 41.6549 L1636.58 36.7359 Z" fill="#000000" fill-rule="nonzero" fill-opacity="1" /><path clip-path="url(#clip370)" d="M1687.3 46.921 L1696.85 46.921 L1696.85 13.964 L1686.46 16.0474 L1686.46 10.7233 L1696.79 8.64 L1702.63 8.64 L1702.63 46.921 L1712.18 46.921 L1712.18 51.84 L1687.3 51.84 L1687.3 46.921 Z" fill="#000000" fill-rule="nonzero" fill-opacity="1" /><path clip-path="url(#clip370)" d="M1736.49 31.3251 Q1732.32 31.3251 1729.92 33.5531 Q1727.55 35.7811 1727.55 39.6873 Q1727.55 43.5935 1729.92 45.8215 Q1732.32 48.0495 1736.49 48.0495 Q1740.65 48.0495 1743.06 45.8215 Q1745.46 43.5646 1745.46 39.6873 Q1745.46 35.7811 1743.06 33.5531 Q1740.68 31.3251 1736.49 31.3251 M1730.64 28.8367 Q1726.88 27.9107 1724.77 25.3355 Q1722.69 22.7603 1722.69 19.0566 Q1722.69 13.8772 1726.36 10.868 Q1730.06 7.85875 1736.49 7.85875 Q1742.94 7.85875 1746.62 10.868 Q1750.29 13.8772 1750.29 19.0566 Q1750.29 22.7603 1748.18 25.3355 Q1746.09 27.9107 1742.36 28.8367 Q1746.59 29.8204 1748.93 32.685 Q1751.3 35.5496 1751.3 39.6873 Q1751.3 45.9662 1747.45 49.3227 Q1743.64 52.6791 1736.49 52.6791 Q1729.34 52.6791 1725.49 49.3227 Q1721.67 45.9662 1721.67 39.6873 Q1721.67 35.5496 1724.05 32.685 Q1726.42 29.8204 1730.64 28.8367 M1728.5 19.6064 Q1728.5 22.9628 1730.59 24.8436 Q1732.7 26.7244 1736.49 26.7244 Q1740.25 26.7244 1742.36 24.8436 Q1744.5 22.9628 1744.5 19.6064 Q1744.5 16.2499 1742.36 14.3691 Q1740.25 12.4884 1736.49 12.4884 Q1732.7 12.4884 1730.59 14.3691 Q1728.5 16.2499 1728.5 19.6064 Z" fill="#000000" fill-rule="nonzero" fill-opacity="1" /><path clip-path="url(#clip370)" d="M1760.1 6.87496 L1764.73 6.87496 Q1769.07 13.7036 1771.21 20.2429 Q1773.38 26.7823 1773.38 33.2348 Q1773.38 39.7162 1771.21 46.2845 Q1769.07 52.8527 1764.73 59.6525 L1760.1 59.6525 Q1763.95 53.0263 1765.83 46.487 Q1767.74 39.9188 1767.74 33.2348 Q1767.74 26.5508 1765.83 20.0404 Q1763.95 13.53 1760.1 6.87496 Z" fill="#000000" fill-rule="nonzero" fill-opacity="1" /><polyline clip-path="url(#clip372)" style="stroke:#000080; stroke-linecap:round; stroke-linejoin:round; stroke-width:8; stroke-opacity:1; fill:none" points="360.486,1385.91 393.269,738.38 426.053,620.152 458.837,561.497 491.621,524.887 524.405,496.699 557.188,473.285 589.972,452.367 622.756,433.261 655.54,415.31 688.323,396.8 721.107,375.639 753.891,354.452 786.675,333.496 819.459,310.878 852.242,286.989 885.026,265.523 917.81,248.023 950.594,232.355 983.377,220.362 1016.16,211.242 1048.95,204.117 1081.73,198.164 1114.51,193.004 1147.3,188.641 1180.08,184.723 1212.86,181.336 1245.65,178.219 1278.43,175.535 1311.22,173.185 1344,170.975 1376.78,168.801 1409.57,166.984 1442.35,165.318 1475.13,163.76 1507.92,162.131 1540.7,160.771 1573.49,159.538 1606.27,158.349 1639.05,157.199 1671.84,156.204 1704.62,155.252 1737.4,154.4 1770.19,153.619 1802.97,152.877 1835.76,152.155 1868.54,151.451 1901.32,150.7 1934.11,149.932 1966.89,149.224 1999.67,148.599 2032.46,148.01 2065.24,147.467 2098.03,146.92 2130.81,146.397 2163.59,145.845 2196.38,145.253 2229.16,144.626 2261.94,144.038 2294.73,143.465 "/>
<circle clip-path="url(#clip372)" cx="360.486" cy="1385.91" r="10.8" fill="#000080" fill-rule="evenodd" fill-opacity="1" stroke="#000000" stroke-opacity="1" stroke-width="3.2"/>
<circle clip-path="url(#clip372)" cx="393.269" cy="738.38" r="10.8" fill="#000080" fill-rule="evenodd" fill-opacity="1" stroke="#000000" stroke-opacity="1" stroke-width="3.2"/>
<circle clip-path="url(#clip372)" cx="426.053" cy="620.152" r="10.8" fill="#000080" fill-rule="evenodd" fill-opacity="1" stroke="#000000" stroke-opacity="1" stroke-width="3.2"/>
<circle clip-path="url(#clip372)" cx="458.837" cy="561.497" r="10.8" fill="#000080" fill-rule="evenodd" fill-opacity="1" stroke="#000000" stroke-opacity="1" stroke-width="3.2"/>
<circle clip-path="url(#clip372)" cx="491.621" cy="524.887" r="10.8" fill="#000080" fill-rule="evenodd" fill-opacity="1" stroke="#000000" stroke-opacity="1" stroke-width="3.2"/>
<circle clip-path="url(#clip372)" cx="524.405" cy="496.699" r="10.8" fill="#000080" fill-rule="evenodd" fill-opacity="1" stroke="#000000" stroke-opacity="1" stroke-width="3.2"/>
<circle clip-path="url(#clip372)" cx="557.188" cy="473.285" r="10.8" fill="#000080" fill-rule="evenodd" fill-opacity="1" stroke="#000000" stroke-opacity="1" stroke-width="3.2"/>
<circle clip-path="url(#clip372)" cx="589.972" cy="452.367" r="10.8" fill="#000080" fill-rule="evenodd" fill-opacity="1" stroke="#000000" stroke-opacity="1" stroke-width="3.2"/>
<circle clip-path="url(#clip372)" cx="622.756" cy="433.261" r="10.8" fill="#000080" fill-rule="evenodd" fill-opacity="1" stroke="#000000" stroke-opacity="1" stroke-width="3.2"/>
<circle clip-path="url(#clip372)" cx="655.54" cy="415.31" r="10.8" fill="#000080" fill-rule="evenodd" fill-opacity="1" stroke="#000000" stroke-opacity="1" stroke-width="3.2"/>
<circle clip-path="url(#clip372)" cx="688.323" cy="396.8" r="10.8" fill="#000080" fill-rule="evenodd" fill-opacity="1" stroke="#000000" stroke-opacity="1" stroke-width="3.2"/>
<circle clip-path="url(#clip372)" cx="721.107" cy="375.639" r="10.8" fill="#000080" fill-rule="evenodd" fill-opacity="1" stroke="#000000" stroke-opacity="1" stroke-width="3.2"/>
<circle clip-path="url(#clip372)" cx="753.891" cy="354.452" r="10.8" fill="#000080" fill-rule="evenodd" fill-opacity="1" stroke="#000000" stroke-opacity="1" stroke-width="3.2"/>
<circle clip-path="url(#clip372)" cx="786.675" cy="333.496" r="10.8" fill="#000080" fill-rule="evenodd" fill-opacity="1" stroke="#000000" stroke-opacity="1" stroke-width="3.2"/>
<circle clip-path="url(#clip372)" cx="819.459" cy="310.878" r="10.8" fill="#000080" fill-rule="evenodd" fill-opacity="1" stroke="#000000" stroke-opacity="1" stroke-width="3.2"/>
<circle clip-path="url(#clip372)" cx="852.242" cy="286.989" r="10.8" fill="#000080" fill-rule="evenodd" fill-opacity="1" stroke="#000000" stroke-opacity="1" stroke-width="3.2"/>
<circle clip-path="url(#clip372)" cx="885.026" cy="265.523" r="10.8" fill="#000080" fill-rule="evenodd" fill-opacity="1" stroke="#000000" stroke-opacity="1" stroke-width="3.2"/>
<circle clip-path="url(#clip372)" cx="917.81" cy="248.023" r="10.8" fill="#000080" fill-rule="evenodd" fill-opacity="1" stroke="#000000" stroke-opacity="1" stroke-width="3.2"/>
<circle clip-path="url(#clip372)" cx="950.594" cy="232.355" r="10.8" fill="#000080" fill-rule="evenodd" fill-opacity="1" stroke="#000000" stroke-opacity="1" stroke-width="3.2"/>
<circle clip-path="url(#clip372)" cx="983.377" cy="220.362" r="10.8" fill="#000080" fill-rule="evenodd" fill-opacity="1" stroke="#000000" stroke-opacity="1" stroke-width="3.2"/>
<circle clip-path="url(#clip372)" cx="1016.16" cy="211.242" r="10.8" fill="#000080" fill-rule="evenodd" fill-opacity="1" stroke="#000000" stroke-opacity="1" stroke-width="3.2"/>
<circle clip-path="url(#clip372)" cx="1048.95" cy="204.117" r="10.8" fill="#000080" fill-rule="evenodd" fill-opacity="1" stroke="#000000" stroke-opacity="1" stroke-width="3.2"/>
<circle clip-path="url(#clip372)" cx="1081.73" cy="198.164" r="10.8" fill="#000080" fill-rule="evenodd" fill-opacity="1" stroke="#000000" stroke-opacity="1" stroke-width="3.2"/>
<circle clip-path="url(#clip372)" cx="1114.51" cy="193.004" r="10.8" fill="#000080" fill-rule="evenodd" fill-opacity="1" stroke="#000000" stroke-opacity="1" stroke-width="3.2"/>
<circle clip-path="url(#clip372)" cx="1147.3" cy="188.641" r="10.8" fill="#000080" fill-rule="evenodd" fill-opacity="1" stroke="#000000" stroke-opacity="1" stroke-width="3.2"/>
<circle clip-path="url(#clip372)" cx="1180.08" cy="184.723" r="10.8" fill="#000080" fill-rule="evenodd" fill-opacity="1" stroke="#000000" stroke-opacity="1" stroke-width="3.2"/>
<circle clip-path="url(#clip372)" cx="1212.86" cy="181.336" r="10.8" fill="#000080" fill-rule="evenodd" fill-opacity="1" stroke="#000000" stroke-opacity="1" stroke-width="3.2"/>
<circle clip-path="url(#clip372)" cx="1245.65" cy="178.219" r="10.8" fill="#000080" fill-rule="evenodd" fill-opacity="1" stroke="#000000" stroke-opacity="1" stroke-width="3.2"/>
<circle clip-path="url(#clip372)" cx="1278.43" cy="175.535" r="10.8" fill="#000080" fill-rule="evenodd" fill-opacity="1" stroke="#000000" stroke-opacity="1" stroke-width="3.2"/>
<circle clip-path="url(#clip372)" cx="1311.22" cy="173.185" r="10.8" fill="#000080" fill-rule="evenodd" fill-opacity="1" stroke="#000000" stroke-opacity="1" stroke-width="3.2"/>
<circle clip-path="url(#clip372)" cx="1344" cy="170.975" r="10.8" fill="#000080" fill-rule="evenodd" fill-opacity="1" stroke="#000000" stroke-opacity="1" stroke-width="3.2"/>
<circle clip-path="url(#clip372)" cx="1376.78" cy="168.801" r="10.8" fill="#000080" fill-rule="evenodd" fill-opacity="1" stroke="#000000" stroke-opacity="1" stroke-width="3.2"/>
<circle clip-path="url(#clip372)" cx="1409.57" cy="166.984" r="10.8" fill="#000080" fill-rule="evenodd" fill-opacity="1" stroke="#000000" stroke-opacity="1" stroke-width="3.2"/>
<circle clip-path="url(#clip372)" cx="1442.35" cy="165.318" r="10.8" fill="#000080" fill-rule="evenodd" fill-opacity="1" stroke="#000000" stroke-opacity="1" stroke-width="3.2"/>
<circle clip-path="url(#clip372)" cx="1475.13" cy="163.76" r="10.8" fill="#000080" fill-rule="evenodd" fill-opacity="1" stroke="#000000" stroke-opacity="1" stroke-width="3.2"/>
<circle clip-path="url(#clip372)" cx="1507.92" cy="162.131" r="10.8" fill="#000080" fill-rule="evenodd" fill-opacity="1" stroke="#000000" stroke-opacity="1" stroke-width="3.2"/>
<circle clip-path="url(#clip372)" cx="1540.7" cy="160.771" r="10.8" fill="#000080" fill-rule="evenodd" fill-opacity="1" stroke="#000000" stroke-opacity="1" stroke-width="3.2"/>
<circle clip-path="url(#clip372)" cx="1573.49" cy="159.538" r="10.8" fill="#000080" fill-rule="evenodd" fill-opacity="1" stroke="#000000" stroke-opacity="1" stroke-width="3.2"/>
<circle clip-path="url(#clip372)" cx="1606.27" cy="158.349" r="10.8" fill="#000080" fill-rule="evenodd" fill-opacity="1" stroke="#000000" stroke-opacity="1" stroke-width="3.2"/>
<circle clip-path="url(#clip372)" cx="1639.05" cy="157.199" r="10.8" fill="#000080" fill-rule="evenodd" fill-opacity="1" stroke="#000000" stroke-opacity="1" stroke-width="3.2"/>
<circle clip-path="url(#clip372)" cx="1671.84" cy="156.204" r="10.8" fill="#000080" fill-rule="evenodd" fill-opacity="1" stroke="#000000" stroke-opacity="1" stroke-width="3.2"/>
<circle clip-path="url(#clip372)" cx="1704.62" cy="155.252" r="10.8" fill="#000080" fill-rule="evenodd" fill-opacity="1" stroke="#000000" stroke-opacity="1" stroke-width="3.2"/>
<circle clip-path="url(#clip372)" cx="1737.4" cy="154.4" r="10.8" fill="#000080" fill-rule="evenodd" fill-opacity="1" stroke="#000000" stroke-opacity="1" stroke-width="3.2"/>
<circle clip-path="url(#clip372)" cx="1770.19" cy="153.619" r="10.8" fill="#000080" fill-rule="evenodd" fill-opacity="1" stroke="#000000" stroke-opacity="1" stroke-width="3.2"/>
<circle clip-path="url(#clip372)" cx="1802.97" cy="152.877" r="10.8" fill="#000080" fill-rule="evenodd" fill-opacity="1" stroke="#000000" stroke-opacity="1" stroke-width="3.2"/>
<circle clip-path="url(#clip372)" cx="1835.76" cy="152.155" r="10.8" fill="#000080" fill-rule="evenodd" fill-opacity="1" stroke="#000000" stroke-opacity="1" stroke-width="3.2"/>
<circle clip-path="url(#clip372)" cx="1868.54" cy="151.451" r="10.8" fill="#000080" fill-rule="evenodd" fill-opacity="1" stroke="#000000" stroke-opacity="1" stroke-width="3.2"/>
<circle clip-path="url(#clip372)" cx="1901.32" cy="150.7" r="10.8" fill="#000080" fill-rule="evenodd" fill-opacity="1" stroke="#000000" stroke-opacity="1" stroke-width="3.2"/>
<circle clip-path="url(#clip372)" cx="1934.11" cy="149.932" r="10.8" fill="#000080" fill-rule="evenodd" fill-opacity="1" stroke="#000000" stroke-opacity="1" stroke-width="3.2"/>
<circle clip-path="url(#clip372)" cx="1966.89" cy="149.224" r="10.8" fill="#000080" fill-rule="evenodd" fill-opacity="1" stroke="#000000" stroke-opacity="1" stroke-width="3.2"/>
<circle clip-path="url(#clip372)" cx="1999.67" cy="148.599" r="10.8" fill="#000080" fill-rule="evenodd" fill-opacity="1" stroke="#000000" stroke-opacity="1" stroke-width="3.2"/>
<circle clip-path="url(#clip372)" cx="2032.46" cy="148.01" r="10.8" fill="#000080" fill-rule="evenodd" fill-opacity="1" stroke="#000000" stroke-opacity="1" stroke-width="3.2"/>
<circle clip-path="url(#clip372)" cx="2065.24" cy="147.467" r="10.8" fill="#000080" fill-rule="evenodd" fill-opacity="1" stroke="#000000" stroke-opacity="1" stroke-width="3.2"/>
<circle clip-path="url(#clip372)" cx="2098.03" cy="146.92" r="10.8" fill="#000080" fill-rule="evenodd" fill-opacity="1" stroke="#000000" stroke-opacity="1" stroke-width="3.2"/>
<circle clip-path="url(#clip372)" cx="2130.81" cy="146.397" r="10.8" fill="#000080" fill-rule="evenodd" fill-opacity="1" stroke="#000000" stroke-opacity="1" stroke-width="3.2"/>
<circle clip-path="url(#clip372)" cx="2163.59" cy="145.845" r="10.8" fill="#000080" fill-rule="evenodd" fill-opacity="1" stroke="#000000" stroke-opacity="1" stroke-width="3.2"/>
<circle clip-path="url(#clip372)" cx="2196.38" cy="145.253" r="10.8" fill="#000080" fill-rule="evenodd" fill-opacity="1" stroke="#000000" stroke-opacity="1" stroke-width="3.2"/>
<circle clip-path="url(#clip372)" cx="2229.16" cy="144.626" r="10.8" fill="#000080" fill-rule="evenodd" fill-opacity="1" stroke="#000000" stroke-opacity="1" stroke-width="3.2"/>
<circle clip-path="url(#clip372)" cx="2261.94" cy="144.038" r="10.8" fill="#000080" fill-rule="evenodd" fill-opacity="1" stroke="#000000" stroke-opacity="1" stroke-width="3.2"/>
<circle clip-path="url(#clip372)" cx="2294.73" cy="143.465" r="10.8" fill="#000080" fill-rule="evenodd" fill-opacity="1" stroke="#000000" stroke-opacity="1" stroke-width="3.2"/>
</svg>
