<?xml version="1.0" encoding="utf-8"?>
<svg xmlns="http://www.w3.org/2000/svg" xmlns:xlink="http://www.w3.org/1999/xlink" width="600" height="400" viewBox="0 0 2400 1600">
<defs>
  <clipPath id="clip010">
    <rect x="0" y="0" width="2400" height="1600"/>
  </clipPath>
</defs>
<path clip-path="url(#clip010)" d="M0 1600 L2400 1600 L2400 8.88178e-14 L0 8.88178e-14  Z" fill="#ffffff" fill-rule="evenodd" fill-opacity="1"/>
<defs>
  <clipPath id="clip011">
    <rect x="96" y="914" width="2285" height="35"/>
  </clipPath>
</defs>
<path clip-path="url(#clip010)" d="M302.458 1423.18 L2352.76 1423.18 L2352.76 106.192 L302.458 106.192  Z" fill="#ffffff" fill-rule="evenodd" fill-opacity="1"/>
<defs>
  <clipPath id="clip012">
    <rect x="302" y="106" width="2051" height="1318"/>
  </clipPath>
</defs>
<polyline clip-path="url(#clip012)" style="stroke:#000000; stroke-linecap:round; stroke-linejoin:round; stroke-width:2; stroke-opacity:0.1; fill:none" points="327.702,1423.18 327.702,106.192 "/>
<polyline clip-path="url(#clip012)" style="stroke:#000000; stroke-linecap:round; stroke-linejoin:round; stroke-width:2; stroke-opacity:0.1; fill:none" points="655.54,1423.18 655.54,106.192 "/>
<polyline clip-path="url(#clip012)" style="stroke:#000000; stroke-linecap:round; stroke-linejoin:round; stroke-width:2; stroke-opacity:0.1; fill:none" points="983.377,1423.18 983.377,106.192 "/>
<polyline clip-path="url(#clip012)" style="stroke:#000000; stroke-linecap:round; stroke-linejoin:round; stroke-width:2; stroke-opacity:0.1; fill:none" points="1311.22,1423.18 1311.22,106.192 "/>
<polyline clip-path="url(#clip012)" style="stroke:#000000; stroke-linecap:round; stroke-linejoin:round; stroke-width:2; stroke-opacity:0.1; fill:none" points="1639.05,1423.18 1639.05,106.192 "/>
<polyline clip-path="url(#clip012)" style="stroke:#000000; stroke-linecap:round; stroke-linejoin:round; stroke-width:2; stroke-opacity:0.1; fill:none" points="1966.89,1423.18 1966.89,106.192 "/>
<polyline clip-path="url(#clip012)" style="stroke:#000000; stroke-linecap:round; stroke-linejoin:round; stroke-width:2; stroke-opacity:0.1; fill:none" points="2294.73,1423.18 2294.73,106.192 "/>
<polyline clip-path="url(#clip012)" style="stroke:#000000; stroke-linecap:round; stroke-linejoin:round; stroke-width:2; stroke-opacity:0.1; fill:none" points="302.458,1422.68 2352.76,1422.68 "/>
<polyline clip-path="url(#clip012)" style="stroke:#000000; stroke-linecap:round; stroke-linejoin:round; stroke-width:2; stroke-opacity:0.1; fill:none" points="302.458,1231.86 2352.76,1231.86 "/>
<polyline clip-path="url(#clip012)" style="stroke:#000000; stroke-linecap:round; stroke-linejoin:round; stroke-width:2; stroke-opacity:0.1; fill:none" points="302.458,1041.05 2352.76,1041.05 "/>
<polyline clip-path="url(#clip012)" style="stroke:#000000; stroke-linecap:round; stroke-linejoin:round; stroke-width:2; stroke-opacity:0.1; fill:none" points="302.458,850.239 2352.76,850.239 "/>
<polyline clip-path="url(#clip012)" style="stroke:#000000; stroke-linecap:round; stroke-linejoin:round; stroke-width:2; stroke-opacity:0.1; fill:none" points="302.458,659.426 2352.76,659.426 "/>
<polyline clip-path="url(#clip012)" style="stroke:#000000; stroke-linecap:round; stroke-linejoin:round; stroke-width:2; stroke-opacity:0.1; fill:none" points="302.458,468.613 2352.76,468.613 "/>
<polyline clip-path="url(#clip012)" style="stroke:#000000; stroke-linecap:round; stroke-linejoin:round; stroke-width:2; stroke-opacity:0.1; fill:none" points="302.458,277.8 2352.76,277.8 "/>
<polyline clip-path="url(#clip010)" style="stroke:#000000; stroke-linecap:round; stroke-linejoin:round; stroke-width:4; stroke-opacity:1; fill:none" points="302.458,1423.18 2352.76,1423.18 "/>
<polyline clip-path="url(#clip010)" style="stroke:#000000; stroke-linecap:round; stroke-linejoin:round; stroke-width:4; stroke-opacity:1; fill:none" points="327.702,1423.18 327.702,1404.28 "/>
<polyline clip-path="url(#clip010)" style="stroke:#000000; stroke-linecap:round; stroke-linejoin:round; stroke-width:4; stroke-opacity:1; fill:none" points="655.54,1423.18 655.54,1404.28 "/>
<polyline clip-path="url(#clip010)" style="stroke:#000000; stroke-linecap:round; stroke-linejoin:round; stroke-width:4; stroke-opacity:1; fill:none" points="983.377,1423.18 983.377,1404.28 "/>
<polyline clip-path="url(#clip010)" style="stroke:#000000; stroke-linecap:round; stroke-linejoin:round; stroke-width:4; stroke-opacity:1; fill:none" points="1311.22,1423.18 1311.22,1404.28 "/>
<polyline clip-path="url(#clip010)" style="stroke:#000000; stroke-linecap:round; stroke-linejoin:round; stroke-width:4; stroke-opacity:1; fill:none" points="1639.05,1423.18 1639.05,1404.28 "/>
<polyline clip-path="url(#clip010)" style="stroke:#000000; stroke-linecap:round; stroke-linejoin:round; stroke-width:4; stroke-opacity:1; fill:none" points="1966.89,1423.18 1966.89,1404.28 "/>
<polyline clip-path="url(#clip010)" style="stroke:#000000; stroke-linecap:round; stroke-linejoin:round; stroke-width:4; stroke-opacity:1; fill:none" points="2294.73,1423.18 2294.73,1404.28 "/>
<path clip-path="url(#clip010)" d="M327.702 1454.1 Q324.091 1454.1 322.262 1457.66 Q320.457 1461.2 320.457 1468.33 Q320.457 1475.44 322.262 1479.01 Q324.091 1482.55 327.702 1482.55 Q331.336 1482.55 333.142 1479.01 Q334.97 1475.44 334.97 1468.33 Q334.97 1461.2 333.142 1457.66 Q331.336 1454.1 327.702 1454.1 M327.702 1450.39 Q333.512 1450.39 336.568 1455 Q339.646 1459.58 339.646 1468.33 Q339.646 1477.06 336.568 1481.67 Q333.512 1486.25 327.702 1486.25 Q321.892 1486.25 318.813 1481.67 Q315.758 1477.06 315.758 1468.33 Q315.758 1459.58 318.813 1455 Q321.892 1450.39 327.702 1450.39 Z" fill="#000000" fill-rule="nonzero" fill-opacity="1" /><path clip-path="url(#clip010)" d="M630.227 1481.64 L637.866 1481.64 L637.866 1455.28 L629.556 1456.95 L629.556 1452.69 L637.82 1451.02 L642.496 1451.02 L642.496 1481.64 L650.135 1481.64 L650.135 1485.58 L630.227 1485.58 L630.227 1481.64 Z" fill="#000000" fill-rule="nonzero" fill-opacity="1" /><path clip-path="url(#clip010)" d="M669.579 1454.1 Q665.968 1454.1 664.139 1457.66 Q662.334 1461.2 662.334 1468.33 Q662.334 1475.44 664.139 1479.01 Q665.968 1482.55 669.579 1482.55 Q673.213 1482.55 675.019 1479.01 Q676.847 1475.44 676.847 1468.33 Q676.847 1461.2 675.019 1457.66 Q673.213 1454.1 669.579 1454.1 M669.579 1450.39 Q675.389 1450.39 678.445 1455 Q681.523 1459.58 681.523 1468.33 Q681.523 1477.06 678.445 1481.67 Q675.389 1486.25 669.579 1486.25 Q663.769 1486.25 660.69 1481.67 Q657.635 1477.06 657.635 1468.33 Q657.635 1459.58 660.69 1455 Q663.769 1450.39 669.579 1450.39 Z" fill="#000000" fill-rule="nonzero" fill-opacity="1" /><path clip-path="url(#clip010)" d="M962.151 1481.64 L978.47 1481.64 L978.47 1485.58 L956.526 1485.58 L956.526 1481.64 Q959.188 1478.89 963.771 1474.26 Q968.378 1469.61 969.558 1468.27 Q971.803 1465.74 972.683 1464.01 Q973.586 1462.25 973.586 1460.56 Q973.586 1457.8 971.641 1456.07 Q969.72 1454.33 966.618 1454.33 Q964.419 1454.33 961.966 1455.09 Q959.535 1455.86 956.757 1457.41 L956.757 1452.69 Q959.581 1451.55 962.035 1450.97 Q964.489 1450.39 966.526 1450.39 Q971.896 1450.39 975.09 1453.08 Q978.285 1455.77 978.285 1460.26 Q978.285 1462.39 977.475 1464.31 Q976.688 1466.2 974.581 1468.8 Q974.003 1469.47 970.901 1472.69 Q967.799 1475.88 962.151 1481.64 Z" fill="#000000" fill-rule="nonzero" fill-opacity="1" /><path clip-path="url(#clip010)" d="M998.285 1454.1 Q994.674 1454.1 992.845 1457.66 Q991.039 1461.2 991.039 1468.33 Q991.039 1475.44 992.845 1479.01 Q994.674 1482.55 998.285 1482.55 Q1001.92 1482.55 1003.72 1479.01 Q1005.55 1475.44 1005.55 1468.33 Q1005.55 1461.2 1003.72 1457.66 Q1001.92 1454.1 998.285 1454.1 M998.285 1450.39 Q1004.09 1450.39 1007.15 1455 Q1010.23 1459.58 1010.23 1468.33 Q1010.23 1477.06 1007.15 1481.67 Q1004.09 1486.25 998.285 1486.25 Q992.475 1486.25 989.396 1481.67 Q986.34 1477.06 986.34 1468.33 Q986.34 1459.58 989.396 1455 Q992.475 1450.39 998.285 1450.39 Z" fill="#000000" fill-rule="nonzero" fill-opacity="1" /><path clip-path="url(#clip010)" d="M1300.06 1466.95 Q1303.41 1467.66 1305.29 1469.93 Q1307.19 1472.2 1307.19 1475.53 Q1307.19 1480.65 1303.67 1483.45 Q1300.15 1486.25 1293.67 1486.25 Q1291.49 1486.25 1289.18 1485.81 Q1286.89 1485.39 1284.43 1484.54 L1284.43 1480.02 Q1286.38 1481.16 1288.69 1481.74 Q1291.01 1482.32 1293.53 1482.32 Q1297.93 1482.32 1300.22 1480.58 Q1302.53 1478.84 1302.53 1475.53 Q1302.53 1472.48 1300.38 1470.77 Q1298.25 1469.03 1294.43 1469.03 L1290.41 1469.03 L1290.41 1465.19 L1294.62 1465.19 Q1298.07 1465.19 1299.9 1463.82 Q1301.72 1462.43 1301.72 1459.84 Q1301.72 1457.18 1299.83 1455.77 Q1297.95 1454.33 1294.43 1454.33 Q1292.51 1454.33 1290.31 1454.75 Q1288.11 1455.16 1285.47 1456.04 L1285.47 1451.88 Q1288.14 1451.14 1290.45 1450.77 Q1292.79 1450.39 1294.85 1450.39 Q1300.17 1450.39 1303.28 1452.83 Q1306.38 1455.23 1306.38 1459.35 Q1306.38 1462.22 1304.73 1464.21 Q1303.09 1466.18 1300.06 1466.95 Z" fill="#000000" fill-rule="nonzero" fill-opacity="1" /><path clip-path="url(#clip010)" d="M1326.05 1454.1 Q1322.44 1454.1 1320.61 1457.66 Q1318.81 1461.2 1318.81 1468.33 Q1318.81 1475.44 1320.61 1479.01 Q1322.44 1482.55 1326.05 1482.55 Q1329.69 1482.55 1331.49 1479.01 Q1333.32 1475.44 1333.32 1468.33 Q1333.32 1461.2 1331.49 1457.66 Q1329.69 1454.1 1326.05 1454.1 M1326.05 1450.39 Q1331.86 1450.39 1334.92 1455 Q1338 1459.58 1338 1468.33 Q1338 1477.06 1334.92 1481.67 Q1331.86 1486.25 1326.05 1486.25 Q1320.24 1486.25 1317.16 1481.67 Q1314.11 1477.06 1314.11 1468.33 Q1314.11 1459.58 1317.16 1455 Q1320.24 1450.39 1326.05 1450.39 Z" fill="#000000" fill-rule="nonzero" fill-opacity="1" /><path clip-path="url(#clip010)" d="M1627.22 1455.09 L1615.42 1473.54 L1627.22 1473.54 L1627.22 1455.09 M1626 1451.02 L1631.88 1451.02 L1631.88 1473.54 L1636.81 1473.54 L1636.81 1477.43 L1631.88 1477.43 L1631.88 1485.58 L1627.22 1485.58 L1627.22 1477.43 L1611.62 1477.43 L1611.62 1472.92 L1626 1451.02 Z" fill="#000000" fill-rule="nonzero" fill-opacity="1" /><path clip-path="url(#clip010)" d="M1654.54 1454.1 Q1650.93 1454.1 1649.1 1457.66 Q1647.29 1461.2 1647.29 1468.33 Q1647.29 1475.44 1649.1 1479.01 Q1650.93 1482.55 1654.54 1482.55 Q1658.17 1482.55 1659.98 1479.01 Q1661.81 1475.44 1661.81 1468.33 Q1661.81 1461.2 1659.98 1457.66 Q1658.17 1454.1 1654.54 1454.1 M1654.54 1450.39 Q1660.35 1450.39 1663.4 1455 Q1666.48 1459.58 1666.48 1468.33 Q1666.48 1477.06 1663.4 1481.67 Q1660.35 1486.25 1654.54 1486.25 Q1648.73 1486.25 1645.65 1481.67 Q1642.59 1477.06 1642.59 1468.33 Q1642.59 1459.58 1645.65 1455 Q1648.73 1450.39 1654.54 1450.39 Z" fill="#000000" fill-rule="nonzero" fill-opacity="1" /><path clip-path="url(#clip010)" d="M1941.59 1451.02 L1959.95 1451.02 L1959.95 1454.96 L1945.87 1454.96 L1945.87 1463.43 Q1946.89 1463.08 1947.91 1462.92 Q1948.93 1462.73 1949.95 1462.73 Q1955.73 1462.73 1959.11 1465.9 Q1962.49 1469.08 1962.49 1474.49 Q1962.49 1480.07 1959.02 1483.17 Q1955.55 1486.25 1949.23 1486.25 Q1947.05 1486.25 1944.78 1485.88 Q1942.54 1485.51 1940.13 1484.77 L1940.13 1480.07 Q1942.22 1481.2 1944.44 1481.76 Q1946.66 1482.32 1949.14 1482.32 Q1953.14 1482.32 1955.48 1480.21 Q1957.82 1478.1 1957.82 1474.49 Q1957.82 1470.88 1955.48 1468.77 Q1953.14 1466.67 1949.14 1466.67 Q1947.26 1466.67 1945.39 1467.08 Q1943.53 1467.5 1941.59 1468.38 L1941.59 1451.02 Z" fill="#000000" fill-rule="nonzero" fill-opacity="1" /><path clip-path="url(#clip010)" d="M1981.71 1454.1 Q1978.09 1454.1 1976.27 1457.66 Q1974.46 1461.2 1974.46 1468.33 Q1974.46 1475.44 1976.27 1479.01 Q1978.09 1482.55 1981.71 1482.55 Q1985.34 1482.55 1987.15 1479.01 Q1988.97 1475.44 1988.97 1468.33 Q1988.97 1461.2 1987.15 1457.66 Q1985.34 1454.1 1981.71 1454.1 M1981.71 1450.39 Q1987.52 1450.39 1990.57 1455 Q1993.65 1459.58 1993.65 1468.33 Q1993.65 1477.06 1990.57 1481.67 Q1987.52 1486.25 1981.71 1486.25 Q1975.9 1486.25 1972.82 1481.67 Q1969.76 1477.06 1969.76 1468.33 Q1969.76 1459.58 1972.82 1455 Q1975.9 1450.39 1981.71 1450.39 Z" fill="#000000" fill-rule="nonzero" fill-opacity="1" /><path clip-path="url(#clip010)" d="M2280.13 1466.44 Q2276.99 1466.44 2275.13 1468.59 Q2273.31 1470.74 2273.31 1474.49 Q2273.31 1478.22 2275.13 1480.39 Q2276.99 1482.55 2280.13 1482.55 Q2283.28 1482.55 2285.11 1480.39 Q2286.96 1478.22 2286.96 1474.49 Q2286.96 1470.74 2285.11 1468.59 Q2283.28 1466.44 2280.13 1466.44 M2289.42 1451.78 L2289.42 1456.04 Q2287.66 1455.21 2285.85 1454.77 Q2284.07 1454.33 2282.31 1454.33 Q2277.68 1454.33 2275.23 1457.45 Q2272.8 1460.58 2272.45 1466.9 Q2273.81 1464.89 2275.87 1463.82 Q2277.93 1462.73 2280.41 1462.73 Q2285.62 1462.73 2288.63 1465.9 Q2291.66 1469.05 2291.66 1474.49 Q2291.66 1479.82 2288.51 1483.03 Q2285.37 1486.25 2280.13 1486.25 Q2274.14 1486.25 2270.97 1481.67 Q2267.8 1477.06 2267.8 1468.33 Q2267.8 1460.14 2271.68 1455.28 Q2275.57 1450.39 2282.12 1450.39 Q2283.88 1450.39 2285.67 1450.74 Q2287.47 1451.09 2289.42 1451.78 Z" fill="#000000" fill-rule="nonzero" fill-opacity="1" /><path clip-path="url(#clip010)" d="M2309.72 1454.1 Q2306.11 1454.1 2304.28 1457.66 Q2302.47 1461.2 2302.47 1468.33 Q2302.47 1475.44 2304.28 1479.01 Q2306.11 1482.55 2309.72 1482.55 Q2313.35 1482.55 2315.16 1479.01 Q2316.99 1475.44 2316.99 1468.33 Q2316.99 1461.2 2315.16 1457.66 Q2313.35 1454.1 2309.72 1454.1 M2309.72 1450.39 Q2315.53 1450.39 2318.58 1455 Q2321.66 1459.58 2321.66 1468.33 Q2321.66 1477.06 2318.58 1481.67 Q2315.53 1486.25 2309.72 1486.25 Q2303.91 1486.25 2300.83 1481.67 Q2297.77 1477.06 2297.77 1468.33 Q2297.77 1459.58 2300.83 1455 Q2303.91 1450.39 2309.72 1450.39 Z" fill="#000000" fill-rule="nonzero" fill-opacity="1" /><path clip-path="url(#clip010)" d="M1195.33 1520.52 L1201.76 1520.52 L1201.76 1568.04 L1195.33 1568.04 L1195.33 1520.52 Z" fill="#000000" fill-rule="nonzero" fill-opacity="1" /><path clip-path="url(#clip010)" d="M1220.09 1522.27 L1220.09 1532.4 L1232.15 1532.4 L1232.15 1536.95 L1220.09 1536.95 L1220.09 1556.3 Q1220.09 1560.66 1221.27 1561.9 Q1222.48 1563.14 1226.14 1563.14 L1232.15 1563.14 L1232.15 1568.04 L1226.14 1568.04 Q1219.36 1568.04 1216.78 1565.53 Q1214.2 1562.98 1214.2 1556.3 L1214.2 1536.95 L1209.91 1536.95 L1209.91 1532.4 L1214.2 1532.4 L1214.2 1522.27 L1220.09 1522.27 Z" fill="#000000" fill-rule="nonzero" fill-opacity="1" /><path clip-path="url(#clip010)" d="M1270.35 1548.76 L1270.35 1551.62 L1243.42 1551.62 Q1243.8 1557.67 1247.05 1560.85 Q1250.33 1564 1256.15 1564 Q1259.53 1564 1262.68 1563.17 Q1265.86 1562.35 1268.98 1560.69 L1268.98 1566.23 Q1265.83 1567.57 1262.52 1568.27 Q1259.21 1568.97 1255.8 1568.97 Q1247.27 1568.97 1242.27 1564 Q1237.31 1559.04 1237.31 1550.57 Q1237.31 1541.82 1242.02 1536.69 Q1246.76 1531.54 1254.78 1531.54 Q1261.98 1531.54 1266.15 1536.18 Q1270.35 1540.8 1270.35 1548.76 M1264.49 1547.04 Q1264.43 1542.23 1261.79 1539.37 Q1259.18 1536.5 1254.85 1536.5 Q1249.95 1536.5 1246.99 1539.27 Q1244.06 1542.04 1243.61 1547.07 L1264.49 1547.04 Z" fill="#000000" fill-rule="nonzero" fill-opacity="1" /><path clip-path="url(#clip010)" d="M1300.62 1537.87 Q1299.63 1537.3 1298.45 1537.04 Q1297.31 1536.76 1295.91 1536.76 Q1290.94 1536.76 1288.27 1540 Q1285.63 1543.22 1285.63 1549.27 L1285.63 1568.04 L1279.74 1568.04 L1279.74 1532.4 L1285.63 1532.4 L1285.63 1537.93 Q1287.47 1534.69 1290.43 1533.13 Q1293.39 1531.54 1297.62 1531.54 Q1298.23 1531.54 1298.96 1531.63 Q1299.69 1531.7 1300.58 1531.85 L1300.62 1537.87 Z" fill="#000000" fill-rule="nonzero" fill-opacity="1" /><path clip-path="url(#clip010)" d="M1322.96 1550.12 Q1315.86 1550.12 1313.13 1551.75 Q1310.39 1553.37 1310.39 1557.29 Q1310.39 1560.4 1312.42 1562.25 Q1314.49 1564.07 1318.03 1564.07 Q1322.9 1564.07 1325.82 1560.63 Q1328.78 1557.16 1328.78 1551.43 L1328.78 1550.12 L1322.96 1550.12 M1334.64 1547.71 L1334.64 1568.04 L1328.78 1568.04 L1328.78 1562.63 Q1326.78 1565.88 1323.79 1567.44 Q1320.8 1568.97 1316.47 1568.97 Q1310.99 1568.97 1307.75 1565.91 Q1304.53 1562.82 1304.53 1557.67 Q1304.53 1551.65 1308.54 1548.6 Q1312.58 1545.54 1320.57 1545.54 L1328.78 1545.54 L1328.78 1544.97 Q1328.78 1540.93 1326.11 1538.73 Q1323.47 1536.5 1318.66 1536.5 Q1315.61 1536.5 1312.71 1537.23 Q1309.82 1537.97 1307.14 1539.43 L1307.14 1534.02 Q1310.36 1532.78 1313.38 1532.17 Q1316.4 1531.54 1319.27 1531.54 Q1327 1531.54 1330.82 1535.55 Q1334.64 1539.56 1334.64 1547.71 Z" fill="#000000" fill-rule="nonzero" fill-opacity="1" /><path clip-path="url(#clip010)" d="M1352.5 1522.27 L1352.5 1532.4 L1364.56 1532.4 L1364.56 1536.95 L1352.5 1536.95 L1352.5 1556.3 Q1352.5 1560.66 1353.67 1561.9 Q1354.88 1563.14 1358.54 1563.14 L1364.56 1563.14 L1364.56 1568.04 L1358.54 1568.04 Q1351.77 1568.04 1349.19 1565.53 Q1346.61 1562.98 1346.61 1556.3 L1346.61 1536.95 L1342.31 1536.95 L1342.31 1532.4 L1346.61 1532.4 L1346.61 1522.27 L1352.5 1522.27 Z" fill="#000000" fill-rule="nonzero" fill-opacity="1" /><path clip-path="url(#clip010)" d="M1372.26 1532.4 L1378.12 1532.4 L1378.12 1568.04 L1372.26 1568.04 L1372.26 1532.4 M1372.26 1518.52 L1378.12 1518.52 L1378.12 1525.93 L1372.26 1525.93 L1372.26 1518.52 Z" fill="#000000" fill-rule="nonzero" fill-opacity="1" /><path clip-path="url(#clip010)" d="M1404.19 1536.5 Q1399.48 1536.5 1396.74 1540.19 Q1394 1543.85 1394 1550.25 Q1394 1556.65 1396.71 1560.34 Q1399.44 1564 1404.19 1564 Q1408.87 1564 1411.6 1560.31 Q1414.34 1556.62 1414.34 1550.25 Q1414.34 1543.92 1411.6 1540.23 Q1408.87 1536.5 1404.19 1536.5 M1404.19 1531.54 Q1411.83 1531.54 1416.19 1536.5 Q1420.55 1541.47 1420.55 1550.25 Q1420.55 1559 1416.19 1564 Q1411.83 1568.97 1404.19 1568.97 Q1396.52 1568.97 1392.16 1564 Q1387.83 1559 1387.83 1550.25 Q1387.83 1541.47 1392.16 1536.5 Q1396.52 1531.54 1404.19 1531.54 Z" fill="#000000" fill-rule="nonzero" fill-opacity="1" /><path clip-path="url(#clip010)" d="M1459.89 1546.53 L1459.89 1568.04 L1454.03 1568.04 L1454.03 1546.72 Q1454.03 1541.66 1452.06 1539.14 Q1450.08 1536.63 1446.14 1536.63 Q1441.39 1536.63 1438.66 1539.65 Q1435.92 1542.68 1435.92 1547.9 L1435.92 1568.04 L1430.03 1568.04 L1430.03 1532.4 L1435.92 1532.4 L1435.92 1537.93 Q1438.02 1534.72 1440.85 1533.13 Q1443.72 1531.54 1447.44 1531.54 Q1453.58 1531.54 1456.74 1535.36 Q1459.89 1539.14 1459.89 1546.53 Z" fill="#000000" fill-rule="nonzero" fill-opacity="1" /><polyline clip-path="url(#clip010)" style="stroke:#000000; stroke-linecap:round; stroke-linejoin:round; stroke-width:4; stroke-opacity:1; fill:none" points="302.458,1423.18 302.458,106.192 "/>
<polyline clip-path="url(#clip010)" style="stroke:#000000; stroke-linecap:round; stroke-linejoin:round; stroke-width:4; stroke-opacity:1; fill:none" points="302.458,1422.68 321.356,1422.68 "/>
<polyline clip-path="url(#clip010)" style="stroke:#000000; stroke-linecap:round; stroke-linejoin:round; stroke-width:4; stroke-opacity:1; fill:none" points="302.458,1231.86 321.356,1231.86 "/>
<polyline clip-path="url(#clip010)" style="stroke:#000000; stroke-linecap:round; stroke-linejoin:round; stroke-width:4; stroke-opacity:1; fill:none" points="302.458,1041.05 321.356,1041.05 "/>
<polyline clip-path="url(#clip010)" style="stroke:#000000; stroke-linecap:round; stroke-linejoin:round; stroke-width:4; stroke-opacity:1; fill:none" points="302.458,850.239 321.356,850.239 "/>
<polyline clip-path="url(#clip010)" style="stroke:#000000; stroke-linecap:round; stroke-linejoin:round; stroke-width:4; stroke-opacity:1; fill:none" points="302.458,659.426 321.356,659.426 "/>
<polyline clip-path="url(#clip010)" style="stroke:#000000; stroke-linecap:round; stroke-linejoin:round; stroke-width:4; stroke-opacity:1; fill:none" points="302.458,468.613 321.356,468.613 "/>
<polyline clip-path="url(#clip010)" style="stroke:#000000; stroke-linecap:round; stroke-linejoin:round; stroke-width:4; stroke-opacity:1; fill:none" points="302.458,277.8 321.356,277.8 "/>
<path clip-path="url(#clip010)" d="M114.26 1423.13 L143.936 1423.13 L143.936 1427.06 L114.26 1427.06 L114.26 1423.13 Z" fill="#000000" fill-rule="nonzero" fill-opacity="1" /><path clip-path="url(#clip010)" d="M154.075 1405.4 L172.431 1405.4 L172.431 1409.33 L158.357 1409.33 L158.357 1417.8 Q159.376 1417.46 160.394 1417.3 Q161.413 1417.11 162.431 1417.11 Q168.218 1417.11 171.598 1420.28 Q174.977 1423.45 174.977 1428.87 Q174.977 1434.45 171.505 1437.55 Q168.033 1440.63 161.714 1440.63 Q159.538 1440.63 157.269 1440.26 Q155.024 1439.89 152.616 1439.15 L152.616 1434.45 Q154.7 1435.58 156.922 1436.14 Q159.144 1436.69 161.621 1436.69 Q165.626 1436.69 167.964 1434.59 Q170.302 1432.48 170.302 1428.87 Q170.302 1425.26 167.964 1423.15 Q165.626 1421.05 161.621 1421.05 Q159.746 1421.05 157.871 1421.46 Q156.019 1421.88 154.075 1422.76 L154.075 1405.4 Z" fill="#000000" fill-rule="nonzero" fill-opacity="1" /><path clip-path="url(#clip010)" d="M197.037 1409.47 L185.232 1427.92 L197.037 1427.92 L197.037 1409.47 M195.811 1405.4 L201.69 1405.4 L201.69 1427.92 L206.621 1427.92 L206.621 1431.81 L201.69 1431.81 L201.69 1439.96 L197.037 1439.96 L197.037 1431.81 L181.436 1431.81 L181.436 1427.3 L195.811 1405.4 Z" fill="#000000" fill-rule="nonzero" fill-opacity="1" /><path clip-path="url(#clip010)" d="M224.352 1408.48 Q220.741 1408.48 218.912 1412.04 Q217.107 1415.58 217.107 1422.71 Q217.107 1429.82 218.912 1433.38 Q220.741 1436.92 224.352 1436.92 Q227.986 1436.92 229.792 1433.38 Q231.621 1429.82 231.621 1422.71 Q231.621 1415.58 229.792 1412.04 Q227.986 1408.48 224.352 1408.48 M224.352 1404.77 Q230.162 1404.77 233.218 1409.38 Q236.297 1413.96 236.297 1422.71 Q236.297 1431.44 233.218 1436.05 Q230.162 1440.63 224.352 1440.63 Q218.542 1440.63 215.463 1436.05 Q212.408 1431.44 212.408 1422.71 Q212.408 1413.96 215.463 1409.38 Q218.542 1404.77 224.352 1404.77 Z" fill="#000000" fill-rule="nonzero" fill-opacity="1" /><path clip-path="url(#clip010)" d="M254.514 1408.48 Q250.903 1408.48 249.074 1412.04 Q247.269 1415.58 247.269 1422.71 Q247.269 1429.82 249.074 1433.38 Q250.903 1436.92 254.514 1436.92 Q258.148 1436.92 259.954 1433.38 Q261.783 1429.82 261.783 1422.71 Q261.783 1415.58 259.954 1412.04 Q258.148 1408.48 254.514 1408.48 M254.514 1404.77 Q260.324 1404.77 263.38 1409.38 Q266.458 1413.96 266.458 1422.71 Q266.458 1431.44 263.38 1436.05 Q260.324 1440.63 254.514 1440.63 Q248.704 1440.63 245.625 1436.05 Q242.57 1431.44 242.57 1422.71 Q242.57 1413.96 245.625 1409.38 Q248.704 1404.77 254.514 1404.77 Z" fill="#000000" fill-rule="nonzero" fill-opacity="1" /><path clip-path="url(#clip010)" d="M114.26 1232.32 L143.936 1232.32 L143.936 1236.25 L114.26 1236.25 L114.26 1232.32 Z" fill="#000000" fill-rule="nonzero" fill-opacity="1" /><path clip-path="url(#clip010)" d="M154.075 1214.58 L172.431 1214.58 L172.431 1218.52 L158.357 1218.52 L158.357 1226.99 Q159.376 1226.64 160.394 1226.48 Q161.413 1226.3 162.431 1226.3 Q168.218 1226.3 171.598 1229.47 Q174.977 1232.64 174.977 1238.06 Q174.977 1243.64 171.505 1246.74 Q168.033 1249.82 161.714 1249.82 Q159.538 1249.82 157.269 1249.45 Q155.024 1249.07 152.616 1248.33 L152.616 1243.64 Q154.7 1244.77 156.922 1245.32 Q159.144 1245.88 161.621 1245.88 Q165.626 1245.88 167.964 1243.77 Q170.302 1241.67 170.302 1238.06 Q170.302 1234.45 167.964 1232.34 Q165.626 1230.23 161.621 1230.23 Q159.746 1230.23 157.871 1230.65 Q156.019 1231.07 154.075 1231.95 L154.075 1214.58 Z" fill="#000000" fill-rule="nonzero" fill-opacity="1" /><path clip-path="url(#clip010)" d="M198.357 1230.51 Q201.713 1231.23 203.588 1233.5 Q205.487 1235.76 205.487 1239.1 Q205.487 1244.21 201.968 1247.01 Q198.45 1249.82 191.968 1249.82 Q189.792 1249.82 187.477 1249.38 Q185.186 1248.96 182.732 1248.1 L182.732 1243.59 Q184.676 1244.72 186.991 1245.3 Q189.306 1245.88 191.829 1245.88 Q196.227 1245.88 198.519 1244.14 Q200.834 1242.41 200.834 1239.1 Q200.834 1236.04 198.681 1234.33 Q196.551 1232.59 192.732 1232.59 L188.704 1232.59 L188.704 1228.75 L192.917 1228.75 Q196.366 1228.75 198.195 1227.39 Q200.024 1226 200.024 1223.4 Q200.024 1220.74 198.125 1219.33 Q196.25 1217.89 192.732 1217.89 Q190.811 1217.89 188.612 1218.31 Q186.413 1218.73 183.774 1219.61 L183.774 1215.44 Q186.436 1214.7 188.75 1214.33 Q191.088 1213.96 193.149 1213.96 Q198.473 1213.96 201.575 1216.39 Q204.676 1218.8 204.676 1222.92 Q204.676 1225.79 203.033 1227.78 Q201.389 1229.75 198.357 1230.51 Z" fill="#000000" fill-rule="nonzero" fill-opacity="1" /><path clip-path="url(#clip010)" d="M224.352 1217.66 Q220.741 1217.66 218.912 1221.23 Q217.107 1224.77 217.107 1231.9 Q217.107 1239.01 218.912 1242.57 Q220.741 1246.11 224.352 1246.11 Q227.986 1246.11 229.792 1242.57 Q231.621 1239.01 231.621 1231.9 Q231.621 1224.77 229.792 1221.23 Q227.986 1217.66 224.352 1217.66 M224.352 1213.96 Q230.162 1213.96 233.218 1218.57 Q236.297 1223.15 236.297 1231.9 Q236.297 1240.63 233.218 1245.23 Q230.162 1249.82 224.352 1249.82 Q218.542 1249.82 215.463 1245.23 Q212.408 1240.63 212.408 1231.9 Q212.408 1223.15 215.463 1218.57 Q218.542 1213.96 224.352 1213.96 Z" fill="#000000" fill-rule="nonzero" fill-opacity="1" /><path clip-path="url(#clip010)" d="M254.514 1217.66 Q250.903 1217.66 249.074 1221.23 Q247.269 1224.77 247.269 1231.9 Q247.269 1239.01 249.074 1242.57 Q250.903 1246.11 254.514 1246.11 Q258.148 1246.11 259.954 1242.57 Q261.783 1239.01 261.783 1231.9 Q261.783 1224.77 259.954 1221.23 Q258.148 1217.66 254.514 1217.66 M254.514 1213.96 Q260.324 1213.96 263.38 1218.57 Q266.458 1223.15 266.458 1231.9 Q266.458 1240.63 263.38 1245.23 Q260.324 1249.82 254.514 1249.82 Q248.704 1249.82 245.625 1245.23 Q242.57 1240.63 242.57 1231.9 Q242.57 1223.15 245.625 1218.57 Q248.704 1213.96 254.514 1213.96 Z" fill="#000000" fill-rule="nonzero" fill-opacity="1" /><path clip-path="url(#clip010)" d="M114.26 1041.5 L143.936 1041.5 L143.936 1045.44 L114.26 1045.44 L114.26 1041.5 Z" fill="#000000" fill-rule="nonzero" fill-opacity="1" /><path clip-path="url(#clip010)" d="M154.075 1023.77 L172.431 1023.77 L172.431 1027.71 L158.357 1027.71 L158.357 1036.18 Q159.376 1035.83 160.394 1035.67 Q161.413 1035.48 162.431 1035.48 Q168.218 1035.48 171.598 1038.66 Q174.977 1041.83 174.977 1047.24 Q174.977 1052.82 171.505 1055.92 Q168.033 1059 161.714 1059 Q159.538 1059 157.269 1058.63 Q155.024 1058.26 152.616 1057.52 L152.616 1052.82 Q154.7 1053.96 156.922 1054.51 Q159.144 1055.07 161.621 1055.07 Q165.626 1055.07 167.964 1052.96 Q170.302 1050.85 170.302 1047.24 Q170.302 1043.63 167.964 1041.53 Q165.626 1039.42 161.621 1039.42 Q159.746 1039.42 157.871 1039.84 Q156.019 1040.25 154.075 1041.13 L154.075 1023.77 Z" fill="#000000" fill-rule="nonzero" fill-opacity="1" /><path clip-path="url(#clip010)" d="M188.218 1054.4 L204.537 1054.4 L204.537 1058.33 L182.593 1058.33 L182.593 1054.4 Q185.255 1051.64 189.838 1047.01 Q194.445 1042.36 195.625 1041.02 Q197.871 1038.49 198.75 1036.76 Q199.653 1035 199.653 1033.31 Q199.653 1030.55 197.709 1028.82 Q195.787 1027.08 192.686 1027.08 Q190.487 1027.08 188.033 1027.85 Q185.602 1028.61 182.825 1030.16 L182.825 1025.44 Q185.649 1024.3 188.102 1023.73 Q190.556 1023.15 192.593 1023.15 Q197.963 1023.15 201.158 1025.83 Q204.352 1028.52 204.352 1033.01 Q204.352 1035.14 203.542 1037.06 Q202.755 1038.96 200.649 1041.55 Q200.07 1042.22 196.968 1045.44 Q193.866 1048.63 188.218 1054.4 Z" fill="#000000" fill-rule="nonzero" fill-opacity="1" /><path clip-path="url(#clip010)" d="M224.352 1026.85 Q220.741 1026.85 218.912 1030.42 Q217.107 1033.96 217.107 1041.09 Q217.107 1048.19 218.912 1051.76 Q220.741 1055.3 224.352 1055.3 Q227.986 1055.3 229.792 1051.76 Q231.621 1048.19 231.621 1041.09 Q231.621 1033.96 229.792 1030.42 Q227.986 1026.85 224.352 1026.85 M224.352 1023.15 Q230.162 1023.15 233.218 1027.75 Q236.297 1032.34 236.297 1041.09 Q236.297 1049.81 233.218 1054.42 Q230.162 1059 224.352 1059 Q218.542 1059 215.463 1054.42 Q212.408 1049.81 212.408 1041.09 Q212.408 1032.34 215.463 1027.75 Q218.542 1023.15 224.352 1023.15 Z" fill="#000000" fill-rule="nonzero" fill-opacity="1" /><path clip-path="url(#clip010)" d="M254.514 1026.85 Q250.903 1026.85 249.074 1030.42 Q247.269 1033.96 247.269 1041.09 Q247.269 1048.19 249.074 1051.76 Q250.903 1055.3 254.514 1055.3 Q258.148 1055.3 259.954 1051.76 Q261.783 1048.19 261.783 1041.09 Q261.783 1033.96 259.954 1030.42 Q258.148 1026.85 254.514 1026.85 M254.514 1023.15 Q260.324 1023.15 263.38 1027.75 Q266.458 1032.34 266.458 1041.09 Q266.458 1049.81 263.38 1054.42 Q260.324 1059 254.514 1059 Q248.704 1059 245.625 1054.42 Q242.57 1049.81 242.57 1041.09 Q242.57 1032.34 245.625 1027.75 Q248.704 1023.15 254.514 1023.15 Z" fill="#000000" fill-rule="nonzero" fill-opacity="1" /><path clip-path="url(#clip010)" d="M114.26 850.69 L143.936 850.69 L143.936 854.625 L114.26 854.625 L114.26 850.69 Z" fill="#000000" fill-rule="nonzero" fill-opacity="1" /><path clip-path="url(#clip010)" d="M154.075 832.959 L172.431 832.959 L172.431 836.894 L158.357 836.894 L158.357 845.366 Q159.376 845.019 160.394 844.857 Q161.413 844.672 162.431 844.672 Q168.218 844.672 171.598 847.843 Q174.977 851.014 174.977 856.431 Q174.977 862.009 171.505 865.111 Q168.033 868.19 161.714 868.19 Q159.538 868.19 157.269 867.82 Q155.024 867.449 152.616 866.709 L152.616 862.009 Q154.7 863.144 156.922 863.699 Q159.144 864.255 161.621 864.255 Q165.626 864.255 167.964 862.148 Q170.302 860.042 170.302 856.431 Q170.302 852.82 167.964 850.713 Q165.626 848.607 161.621 848.607 Q159.746 848.607 157.871 849.023 Q156.019 849.44 154.075 850.32 L154.075 832.959 Z" fill="#000000" fill-rule="nonzero" fill-opacity="1" /><path clip-path="url(#clip010)" d="M185.001 863.584 L192.639 863.584 L192.639 837.218 L184.329 838.885 L184.329 834.625 L192.593 832.959 L197.269 832.959 L197.269 863.584 L204.908 863.584 L204.908 867.519 L185.001 867.519 L185.001 863.584 Z" fill="#000000" fill-rule="nonzero" fill-opacity="1" /><path clip-path="url(#clip010)" d="M224.352 836.037 Q220.741 836.037 218.912 839.602 Q217.107 843.144 217.107 850.273 Q217.107 857.38 218.912 860.945 Q220.741 864.486 224.352 864.486 Q227.986 864.486 229.792 860.945 Q231.621 857.38 231.621 850.273 Q231.621 843.144 229.792 839.602 Q227.986 836.037 224.352 836.037 M224.352 832.334 Q230.162 832.334 233.218 836.94 Q236.297 841.523 236.297 850.273 Q236.297 859 233.218 863.607 Q230.162 868.19 224.352 868.19 Q218.542 868.19 215.463 863.607 Q212.408 859 212.408 850.273 Q212.408 841.523 215.463 836.94 Q218.542 832.334 224.352 832.334 Z" fill="#000000" fill-rule="nonzero" fill-opacity="1" /><path clip-path="url(#clip010)" d="M254.514 836.037 Q250.903 836.037 249.074 839.602 Q247.269 843.144 247.269 850.273 Q247.269 857.38 249.074 860.945 Q250.903 864.486 254.514 864.486 Q258.148 864.486 259.954 860.945 Q261.783 857.38 261.783 850.273 Q261.783 843.144 259.954 839.602 Q258.148 836.037 254.514 836.037 M254.514 832.334 Q260.324 832.334 263.38 836.94 Q266.458 841.523 266.458 850.273 Q266.458 859 263.38 863.607 Q260.324 868.19 254.514 868.19 Q248.704 868.19 245.625 863.607 Q242.57 859 242.57 850.273 Q242.57 841.523 245.625 836.94 Q248.704 832.334 254.514 832.334 Z" fill="#000000" fill-rule="nonzero" fill-opacity="1" /><path clip-path="url(#clip010)" d="M114.26 659.877 L143.936 659.877 L143.936 663.812 L114.26 663.812 L114.26 659.877 Z" fill="#000000" fill-rule="nonzero" fill-opacity="1" /><path clip-path="url(#clip010)" d="M154.075 642.146 L172.431 642.146 L172.431 646.081 L158.357 646.081 L158.357 654.553 Q159.376 654.206 160.394 654.044 Q161.413 653.859 162.431 653.859 Q168.218 653.859 171.598 657.03 Q174.977 660.201 174.977 665.618 Q174.977 671.197 171.505 674.298 Q168.033 677.377 161.714 677.377 Q159.538 677.377 157.269 677.007 Q155.024 676.636 152.616 675.896 L152.616 671.197 Q154.7 672.331 156.922 672.886 Q159.144 673.442 161.621 673.442 Q165.626 673.442 167.964 671.335 Q170.302 669.229 170.302 665.618 Q170.302 662.007 167.964 659.9 Q165.626 657.794 161.621 657.794 Q159.746 657.794 157.871 658.211 Q156.019 658.627 154.075 659.507 L154.075 642.146 Z" fill="#000000" fill-rule="nonzero" fill-opacity="1" /><path clip-path="url(#clip010)" d="M194.19 645.225 Q190.579 645.225 188.75 648.789 Q186.945 652.331 186.945 659.461 Q186.945 666.567 188.75 670.132 Q190.579 673.673 194.19 673.673 Q197.825 673.673 199.63 670.132 Q201.459 666.567 201.459 659.461 Q201.459 652.331 199.63 648.789 Q197.825 645.225 194.19 645.225 M194.19 641.521 Q200 641.521 203.056 646.127 Q206.135 650.711 206.135 659.461 Q206.135 668.187 203.056 672.794 Q200 677.377 194.19 677.377 Q188.38 677.377 185.301 672.794 Q182.246 668.187 182.246 659.461 Q182.246 650.711 185.301 646.127 Q188.38 641.521 194.19 641.521 Z" fill="#000000" fill-rule="nonzero" fill-opacity="1" /><path clip-path="url(#clip010)" d="M224.352 645.225 Q220.741 645.225 218.912 648.789 Q217.107 652.331 217.107 659.461 Q217.107 666.567 218.912 670.132 Q220.741 673.673 224.352 673.673 Q227.986 673.673 229.792 670.132 Q231.621 666.567 231.621 659.461 Q231.621 652.331 229.792 648.789 Q227.986 645.225 224.352 645.225 M224.352 641.521 Q230.162 641.521 233.218 646.127 Q236.297 650.711 236.297 659.461 Q236.297 668.187 233.218 672.794 Q230.162 677.377 224.352 677.377 Q218.542 677.377 215.463 672.794 Q212.408 668.187 212.408 659.461 Q212.408 650.711 215.463 646.127 Q218.542 641.521 224.352 641.521 Z" fill="#000000" fill-rule="nonzero" fill-opacity="1" /><path clip-path="url(#clip010)" d="M254.514 645.225 Q250.903 645.225 249.074 648.789 Q247.269 652.331 247.269 659.461 Q247.269 666.567 249.074 670.132 Q250.903 673.673 254.514 673.673 Q258.148 673.673 259.954 670.132 Q261.783 666.567 261.783 659.461 Q261.783 652.331 259.954 648.789 Q258.148 645.225 254.514 645.225 M254.514 641.521 Q260.324 641.521 263.38 646.127 Q266.458 650.711 266.458 659.461 Q266.458 668.187 263.38 672.794 Q260.324 677.377 254.514 677.377 Q248.704 677.377 245.625 672.794 Q242.57 668.187 242.57 659.461 Q242.57 650.711 245.625 646.127 Q248.704 641.521 254.514 641.521 Z" fill="#000000" fill-rule="nonzero" fill-opacity="1" /><path clip-path="url(#clip010)" d="M114.26 469.064 L143.936 469.064 L143.936 473 L114.26 473 L114.26 469.064 Z" fill="#000000" fill-rule="nonzero" fill-opacity="1" /><path clip-path="url(#clip010)" d="M166.876 455.407 L155.07 473.856 L166.876 473.856 L166.876 455.407 M165.649 451.333 L171.528 451.333 L171.528 473.856 L176.459 473.856 L176.459 477.745 L171.528 477.745 L171.528 485.893 L166.876 485.893 L166.876 477.745 L151.274 477.745 L151.274 473.231 L165.649 451.333 Z" fill="#000000" fill-rule="nonzero" fill-opacity="1" /><path clip-path="url(#clip010)" d="M184.329 485.175 L184.329 480.916 Q186.088 481.749 187.894 482.189 Q189.7 482.629 191.436 482.629 Q196.065 482.629 198.496 479.527 Q200.95 476.402 201.297 470.06 Q199.954 472.05 197.894 473.115 Q195.834 474.18 193.334 474.18 Q188.149 474.18 185.116 471.055 Q182.107 467.907 182.107 462.467 Q182.107 457.143 185.255 453.926 Q188.403 450.708 193.635 450.708 Q199.63 450.708 202.778 455.314 Q205.949 459.898 205.949 468.648 Q205.949 476.819 202.061 481.703 Q198.195 486.564 191.644 486.564 Q189.885 486.564 188.079 486.217 Q186.274 485.87 184.329 485.175 M193.635 470.523 Q196.783 470.523 198.612 468.37 Q200.463 466.217 200.463 462.467 Q200.463 458.74 198.612 456.588 Q196.783 454.412 193.635 454.412 Q190.487 454.412 188.635 456.588 Q186.806 458.74 186.806 462.467 Q186.806 466.217 188.635 468.37 Q190.487 470.523 193.635 470.523 Z" fill="#000000" fill-rule="nonzero" fill-opacity="1" /><path clip-path="url(#clip010)" d="M224.352 454.412 Q220.741 454.412 218.912 457.976 Q217.107 461.518 217.107 468.648 Q217.107 475.754 218.912 479.319 Q220.741 482.861 224.352 482.861 Q227.986 482.861 229.792 479.319 Q231.621 475.754 231.621 468.648 Q231.621 461.518 229.792 457.976 Q227.986 454.412 224.352 454.412 M224.352 450.708 Q230.162 450.708 233.218 455.314 Q236.297 459.898 236.297 468.648 Q236.297 477.375 233.218 481.981 Q230.162 486.564 224.352 486.564 Q218.542 486.564 215.463 481.981 Q212.408 477.375 212.408 468.648 Q212.408 459.898 215.463 455.314 Q218.542 450.708 224.352 450.708 Z" fill="#000000" fill-rule="nonzero" fill-opacity="1" /><path clip-path="url(#clip010)" d="M254.514 454.412 Q250.903 454.412 249.074 457.976 Q247.269 461.518 247.269 468.648 Q247.269 475.754 249.074 479.319 Q250.903 482.861 254.514 482.861 Q258.148 482.861 259.954 479.319 Q261.783 475.754 261.783 468.648 Q261.783 461.518 259.954 457.976 Q258.148 454.412 254.514 454.412 M254.514 450.708 Q260.324 450.708 263.38 455.314 Q266.458 459.898 266.458 468.648 Q266.458 477.375 263.38 481.981 Q260.324 486.564 254.514 486.564 Q248.704 486.564 245.625 481.981 Q242.57 477.375 242.57 468.648 Q242.57 459.898 245.625 455.314 Q248.704 450.708 254.514 450.708 Z" fill="#000000" fill-rule="nonzero" fill-opacity="1" /><path clip-path="url(#clip010)" d="M114.26 278.252 L143.936 278.252 L143.936 282.187 L114.26 282.187 L114.26 278.252 Z" fill="#000000" fill-rule="nonzero" fill-opacity="1" /><path clip-path="url(#clip010)" d="M166.876 264.594 L155.07 283.043 L166.876 283.043 L166.876 264.594 M165.649 260.52 L171.528 260.52 L171.528 283.043 L176.459 283.043 L176.459 286.932 L171.528 286.932 L171.528 295.08 L166.876 295.08 L166.876 286.932 L151.274 286.932 L151.274 282.418 L165.649 260.52 Z" fill="#000000" fill-rule="nonzero" fill-opacity="1" /><path clip-path="url(#clip010)" d="M194.19 278.668 Q190.857 278.668 188.936 280.451 Q187.038 282.233 187.038 285.358 Q187.038 288.483 188.936 290.265 Q190.857 292.048 194.19 292.048 Q197.524 292.048 199.445 290.265 Q201.366 288.46 201.366 285.358 Q201.366 282.233 199.445 280.451 Q197.547 278.668 194.19 278.668 M189.514 276.677 Q186.505 275.937 184.815 273.877 Q183.149 271.816 183.149 268.853 Q183.149 264.71 186.088 262.303 Q189.051 259.895 194.19 259.895 Q199.352 259.895 202.292 262.303 Q205.232 264.71 205.232 268.853 Q205.232 271.816 203.542 273.877 Q201.875 275.937 198.889 276.677 Q202.269 277.464 204.144 279.756 Q206.042 282.048 206.042 285.358 Q206.042 290.381 202.963 293.066 Q199.908 295.751 194.19 295.751 Q188.473 295.751 185.394 293.066 Q182.338 290.381 182.338 285.358 Q182.338 282.048 184.237 279.756 Q186.135 277.464 189.514 276.677 M187.801 269.293 Q187.801 271.978 189.468 273.483 Q191.158 274.988 194.19 274.988 Q197.2 274.988 198.889 273.483 Q200.602 271.978 200.602 269.293 Q200.602 266.608 198.889 265.103 Q197.2 263.599 194.19 263.599 Q191.158 263.599 189.468 265.103 Q187.801 266.608 187.801 269.293 Z" fill="#000000" fill-rule="nonzero" fill-opacity="1" /><path clip-path="url(#clip010)" d="M224.352 263.599 Q220.741 263.599 218.912 267.164 Q217.107 270.705 217.107 277.835 Q217.107 284.941 218.912 288.506 Q220.741 292.048 224.352 292.048 Q227.986 292.048 229.792 288.506 Q231.621 284.941 231.621 277.835 Q231.621 270.705 229.792 267.164 Q227.986 263.599 224.352 263.599 M224.352 259.895 Q230.162 259.895 233.218 264.502 Q236.297 269.085 236.297 277.835 Q236.297 286.562 233.218 291.168 Q230.162 295.751 224.352 295.751 Q218.542 295.751 215.463 291.168 Q212.408 286.562 212.408 277.835 Q212.408 269.085 215.463 264.502 Q218.542 259.895 224.352 259.895 Z" fill="#000000" fill-rule="nonzero" fill-opacity="1" /><path clip-path="url(#clip010)" d="M254.514 263.599 Q250.903 263.599 249.074 267.164 Q247.269 270.705 247.269 277.835 Q247.269 284.941 249.074 288.506 Q250.903 292.048 254.514 292.048 Q258.148 292.048 259.954 288.506 Q261.783 284.941 261.783 277.835 Q261.783 270.705 259.954 267.164 Q258.148 263.599 254.514 263.599 M254.514 259.895 Q260.324 259.895 263.38 264.502 Q266.458 269.085 266.458 277.835 Q266.458 286.562 263.38 291.168 Q260.324 295.751 254.514 295.751 Q248.704 295.751 245.625 291.168 Q242.57 286.562 242.57 277.835 Q242.57 269.085 245.625 264.502 Q248.704 259.895 254.514 259.895 Z" fill="#000000" fill-rule="nonzero" fill-opacity="1" /><path clip-path="url(#clip010)" d="M16.4842 992.817 L16.4842 986.388 L58.5933 986.388 L58.5933 963.248 L64.0042 963.248 L64.0042 992.817 L16.4842 992.817 Z" fill="#000000" fill-rule="nonzero" fill-opacity="1" /><path clip-path="url(#clip010)" d="M32.4621 944.088 Q32.4621 948.798 36.1542 951.535 Q39.8145 954.273 46.212 954.273 Q52.6095 954.273 56.3017 951.567 Q59.9619 948.83 59.9619 944.088 Q59.9619 939.409 56.2698 936.671 Q52.5777 933.934 46.212 933.934 Q39.8781 933.934 36.186 936.671 Q32.4621 939.409 32.4621 944.088 M27.4968 944.088 Q27.4968 936.449 32.4621 932.088 Q37.4273 927.728 46.212 927.728 Q54.9649 927.728 59.9619 932.088 Q64.9272 936.449 64.9272 944.088 Q64.9272 951.758 59.9619 956.119 Q54.9649 960.447 46.212 960.447 Q37.4273 960.447 32.4621 956.119 Q27.4968 951.758 27.4968 944.088 Z" fill="#000000" fill-rule="nonzero" fill-opacity="1" /><path clip-path="url(#clip010)" d="M45.7664 894.562 Q39.4007 894.562 35.8996 897.204 Q32.3984 899.814 32.3984 904.556 Q32.3984 909.267 35.8996 911.909 Q39.4007 914.519 45.7664 914.519 Q52.1003 914.519 55.6014 911.909 Q59.1026 909.267 59.1026 904.556 Q59.1026 899.814 55.6014 897.204 Q52.1003 894.562 45.7664 894.562 M59.58 888.706 Q68.683 888.706 73.1071 892.748 Q77.5631 896.79 77.5631 905.129 Q77.5631 908.217 77.0857 910.954 Q76.6401 913.691 75.6852 916.269 L69.9879 916.269 Q71.3884 913.691 72.0568 911.177 Q72.7252 908.662 72.7252 906.052 Q72.7252 900.291 69.7015 897.427 Q66.7096 894.562 60.6303 894.562 L57.7339 894.562 Q60.885 896.377 62.4446 899.209 Q64.0042 902.042 64.0042 905.989 Q64.0042 912.545 59.0071 916.556 Q54.01 920.566 45.7664 920.566 Q37.491 920.566 32.4939 916.556 Q27.4968 912.545 27.4968 905.989 Q27.4968 902.042 29.0564 899.209 Q30.616 896.377 33.7671 894.562 L28.3562 894.562 L28.3562 888.706 L59.58 888.706 Z" fill="#000000" fill-rule="nonzero" fill-opacity="1" /><path clip-path="url(#clip010)" d="M43.5384 879.603 L43.5384 862.447 L48.7583 862.447 L48.7583 879.603 L43.5384 879.603 Z" fill="#000000" fill-rule="nonzero" fill-opacity="1" /><path clip-path="url(#clip010)" d="M16.4842 852.867 L16.4842 846.438 L58.5933 846.438 L58.5933 823.298 L64.0042 823.298 L64.0042 852.867 L16.4842 852.867 Z" fill="#000000" fill-rule="nonzero" fill-opacity="1" /><path clip-path="url(#clip010)" d="M28.3562 816.805 L28.3562 810.949 L64.0042 810.949 L64.0042 816.805 L28.3562 816.805 M14.479 816.805 L14.479 810.949 L21.895 810.949 L21.895 816.805 L14.479 816.805 Z" fill="#000000" fill-rule="nonzero" fill-opacity="1" /><path clip-path="url(#clip010)" d="M14.479 798.918 L14.479 793.029 L43.7294 793.029 L28.3562 775.555 L28.3562 768.076 L45.0344 786.982 L64.0042 767.28 L64.0042 774.919 L46.5939 793.029 L64.0042 793.029 L64.0042 798.918 L14.479 798.918 Z" fill="#000000" fill-rule="nonzero" fill-opacity="1" /><path clip-path="url(#clip010)" d="M44.7161 732.778 L47.5806 732.778 L47.5806 759.705 Q53.6281 759.323 56.8109 756.076 Q59.9619 752.798 59.9619 746.973 Q59.9619 743.6 59.1344 740.449 Q58.3069 737.266 56.6518 734.147 L62.1899 734.147 Q63.5267 737.298 64.227 740.608 Q64.9272 743.918 64.9272 747.324 Q64.9272 755.854 59.9619 760.851 Q54.9967 765.816 46.5303 765.816 Q37.7774 765.816 32.6531 761.105 Q27.4968 756.363 27.4968 748.342 Q27.4968 741.149 32.1438 736.979 Q36.7589 732.778 44.7161 732.778 M42.9973 738.634 Q38.1912 738.698 35.3266 741.34 Q32.4621 743.95 32.4621 748.278 Q32.4621 753.18 35.2312 756.14 Q38.0002 759.068 43.0292 759.514 L42.9973 738.634 Z" fill="#000000" fill-rule="nonzero" fill-opacity="1" /><path clip-path="url(#clip010)" d="M14.479 723.166 L14.479 717.309 L64.0042 717.309 L64.0042 723.166 L14.479 723.166 Z" fill="#000000" fill-rule="nonzero" fill-opacity="1" /><path clip-path="url(#clip010)" d="M28.3562 705.055 L28.3562 699.199 L64.0042 699.199 L64.0042 705.055 L28.3562 705.055 M14.479 705.055 L14.479 699.199 L21.895 699.199 L21.895 705.055 L14.479 705.055 Z" fill="#000000" fill-rule="nonzero" fill-opacity="1" /><path clip-path="url(#clip010)" d="M42.4881 657.312 L64.0042 657.312 L64.0042 663.169 L42.679 663.169 Q37.6183 663.169 35.1038 665.142 Q32.5894 667.116 32.5894 671.062 Q32.5894 675.805 35.6131 678.542 Q38.6368 681.279 43.8567 681.279 L64.0042 681.279 L64.0042 687.168 L14.479 687.168 L14.479 681.279 L33.8944 681.279 Q30.6797 679.179 29.0883 676.346 Q27.4968 673.481 27.4968 669.757 Q27.4968 663.614 31.3163 660.463 Q35.1038 657.312 42.4881 657.312 Z" fill="#000000" fill-rule="nonzero" fill-opacity="1" /><path clip-path="url(#clip010)" d="M32.4621 631.818 Q32.4621 636.528 36.1542 639.266 Q39.8145 642.003 46.212 642.003 Q52.6095 642.003 56.3017 639.297 Q59.9619 636.56 59.9619 631.818 Q59.9619 627.139 56.2698 624.402 Q52.5777 621.664 46.212 621.664 Q39.8781 621.664 36.186 624.402 Q32.4621 627.139 32.4621 631.818 M27.4968 631.818 Q27.4968 624.179 32.4621 619.818 Q37.4273 615.458 46.212 615.458 Q54.9649 615.458 59.9619 619.818 Q64.9272 624.179 64.9272 631.818 Q64.9272 639.488 59.9619 643.849 Q54.9649 648.178 46.212 648.178 Q37.4273 648.178 32.4621 643.849 Q27.4968 639.488 27.4968 631.818 Z" fill="#000000" fill-rule="nonzero" fill-opacity="1" /><path clip-path="url(#clip010)" d="M32.4621 591.937 Q32.4621 596.647 36.1542 599.384 Q39.8145 602.122 46.212 602.122 Q52.6095 602.122 56.3017 599.416 Q59.9619 596.679 59.9619 591.937 Q59.9619 587.258 56.2698 584.521 Q52.5777 581.783 46.212 581.783 Q39.8781 581.783 36.186 584.521 Q32.4621 587.258 32.4621 591.937 M27.4968 591.937 Q27.4968 584.298 32.4621 579.937 Q37.4273 575.577 46.212 575.577 Q54.9649 575.577 59.9619 579.937 Q64.9272 584.298 64.9272 591.937 Q64.9272 599.607 59.9619 603.968 Q54.9649 608.296 46.212 608.296 Q37.4273 608.296 32.4621 603.968 Q27.4968 599.607 27.4968 591.937 Z" fill="#000000" fill-rule="nonzero" fill-opacity="1" /><path clip-path="url(#clip010)" d="M33.7671 542.411 L14.479 542.411 L14.479 536.555 L64.0042 536.555 L64.0042 542.411 L58.657 542.411 Q61.8398 544.257 63.3994 547.09 Q64.9272 549.891 64.9272 553.838 Q64.9272 560.299 59.771 564.373 Q54.6147 568.415 46.212 568.415 Q37.8093 568.415 32.6531 564.373 Q27.4968 560.299 27.4968 553.838 Q27.4968 549.891 29.0564 547.09 Q30.5842 544.257 33.7671 542.411 M46.212 562.368 Q52.6732 562.368 56.3653 559.726 Q60.0256 557.053 60.0256 552.406 Q60.0256 547.759 56.3653 545.085 Q52.6732 542.411 46.212 542.411 Q39.7508 542.411 36.0905 545.085 Q32.3984 547.759 32.3984 552.406 Q32.3984 557.053 36.0905 559.726 Q39.7508 562.368 46.212 562.368 Z" fill="#000000" fill-rule="nonzero" fill-opacity="1" /><path clip-path="url(#clip010)" d="M921.562 11.9675 L921.562 18.1307 Q918.611 15.3819 915.254 14.0219 Q911.927 12.662 908.165 12.662 Q900.758 12.662 896.822 17.2048 Q892.887 21.7186 892.887 30.2834 Q892.887 38.8192 896.822 43.362 Q900.758 47.8759 908.165 47.8759 Q911.927 47.8759 915.254 46.516 Q918.611 45.156 921.562 42.4072 L921.562 48.5125 Q918.495 50.5958 915.052 51.6375 Q911.637 52.6791 907.818 52.6791 Q898.009 52.6791 892.366 46.6896 Q886.724 40.6711 886.724 30.2834 Q886.724 19.8668 892.366 13.8772 Q898.009 7.85875 907.818 7.85875 Q911.695 7.85875 915.109 8.90042 Q918.553 9.91314 921.562 11.9675 Z" fill="#000000" fill-rule="nonzero" fill-opacity="1" /><path clip-path="url(#clip010)" d="M942.916 23.1654 Q938.634 23.1654 936.145 26.5218 Q933.657 29.8494 933.657 35.6653 Q933.657 41.4813 936.116 44.8377 Q938.605 48.1653 942.916 48.1653 Q947.169 48.1653 949.658 44.8088 Q952.146 41.4523 952.146 35.6653 Q952.146 29.9072 949.658 26.5508 Q947.169 23.1654 942.916 23.1654 M942.916 18.6515 Q949.86 18.6515 953.824 23.1654 Q957.789 27.6792 957.789 35.6653 Q957.789 43.6225 953.824 48.1653 Q949.86 52.6791 942.916 52.6791 Q935.943 52.6791 931.978 48.1653 Q928.043 43.6225 928.043 35.6653 Q928.043 27.6792 931.978 23.1654 Q935.943 18.6515 942.916 18.6515 Z" fill="#000000" fill-rule="nonzero" fill-opacity="1" /><path clip-path="url(#clip010)" d="M993.552 32.2799 L993.552 51.84 L988.228 51.84 L988.228 32.4535 Q988.228 27.8529 986.434 25.567 Q984.64 23.2811 981.052 23.2811 Q976.741 23.2811 974.253 26.03 Q971.764 28.7788 971.764 33.5241 L971.764 51.84 L966.411 51.84 L966.411 19.4328 L971.764 19.4328 L971.764 24.4675 Q973.674 21.545 976.249 20.0983 Q978.853 18.6515 982.239 18.6515 Q987.823 18.6515 990.688 22.1237 Q993.552 25.567 993.552 32.2799 Z" fill="#000000" fill-rule="nonzero" fill-opacity="1" /><path clip-path="url(#clip010)" d="M1000.35 19.4328 L1005.99 19.4328 L1016.12 46.6317 L1026.25 19.4328 L1031.89 19.4328 L1019.74 51.84 L1012.5 51.84 L1000.35 19.4328 Z" fill="#000000" fill-rule="nonzero" fill-opacity="1" /><path clip-path="url(#clip010)" d="M1066.96 34.3054 L1066.96 36.9095 L1042.48 36.9095 Q1042.83 42.4072 1045.78 45.3007 Q1048.76 48.1653 1054.06 48.1653 Q1057.12 48.1653 1059.99 47.4129 Q1062.88 46.6606 1065.72 45.156 L1065.72 50.1907 Q1062.85 51.406 1059.84 52.0425 Q1056.83 52.6791 1053.74 52.6791 Q1045.98 52.6791 1041.44 48.1653 Q1036.93 43.6514 1036.93 35.9547 Q1036.93 27.9975 1041.21 23.339 Q1045.52 18.6515 1052.81 18.6515 Q1059.35 18.6515 1063.14 22.876 Q1066.96 27.0716 1066.96 34.3054 M1061.64 32.7429 Q1061.58 28.3737 1059.18 25.7695 Q1056.8 23.1654 1052.87 23.1654 Q1048.41 23.1654 1045.72 25.6827 Q1043.06 28.2001 1042.65 32.7718 L1061.64 32.7429 Z" fill="#000000" fill-rule="nonzero" fill-opacity="1" /><path clip-path="url(#clip010)" d="M1094.48 24.4096 Q1093.58 23.8888 1092.51 23.6573 Q1091.47 23.3969 1090.2 23.3969 Q1085.68 23.3969 1083.25 26.3482 Q1080.85 29.2707 1080.85 34.7683 L1080.85 51.84 L1075.5 51.84 L1075.5 19.4328 L1080.85 19.4328 L1080.85 24.4675 Q1082.53 21.5161 1085.22 20.0983 Q1087.91 18.6515 1091.76 18.6515 Q1092.31 18.6515 1092.97 18.7383 Q1093.64 18.7962 1094.45 18.9409 L1094.48 24.4096 Z" fill="#000000" fill-rule="nonzero" fill-opacity="1" /><path clip-path="url(#clip010)" d="M1120.35 35.2602 Q1120.35 29.4732 1117.94 26.2904 Q1115.57 23.1075 1111.26 23.1075 Q1106.98 23.1075 1104.58 26.2904 Q1102.2 29.4732 1102.2 35.2602 Q1102.2 41.0183 1104.58 44.2012 Q1106.98 47.384 1111.26 47.384 Q1115.57 47.384 1117.94 44.2012 Q1120.35 41.0183 1120.35 35.2602 M1125.67 47.818 Q1125.67 56.0934 1121.99 60.1154 Q1118.32 64.1663 1110.74 64.1663 Q1107.93 64.1663 1105.44 63.7323 Q1102.96 63.3272 1100.61 62.4592 L1100.61 57.2798 Q1102.96 58.5529 1105.24 59.1606 Q1107.53 59.7682 1109.9 59.7682 Q1115.14 59.7682 1117.74 57.0194 Q1120.35 54.2995 1120.35 48.7729 L1120.35 46.1398 Q1118.7 49.0044 1116.12 50.4222 Q1113.55 51.84 1109.96 51.84 Q1104 51.84 1100.35 47.2972 Q1096.71 42.7544 1096.71 35.2602 Q1096.71 27.7371 1100.35 23.1943 Q1104 18.6515 1109.96 18.6515 Q1113.55 18.6515 1116.12 20.0693 Q1118.7 21.4872 1120.35 24.3517 L1120.35 19.4328 L1125.67 19.4328 L1125.67 47.818 Z" fill="#000000" fill-rule="nonzero" fill-opacity="1" /><path clip-path="url(#clip010)" d="M1164.36 34.3054 L1164.36 36.9095 L1139.88 36.9095 Q1140.22 42.4072 1143.18 45.3007 Q1146.16 48.1653 1151.45 48.1653 Q1154.52 48.1653 1157.38 47.4129 Q1160.28 46.6606 1163.11 45.156 L1163.11 50.1907 Q1160.25 51.406 1157.24 52.0425 Q1154.23 52.6791 1151.13 52.6791 Q1143.38 52.6791 1138.84 48.1653 Q1134.32 43.6514 1134.32 35.9547 Q1134.32 27.9975 1138.6 23.339 Q1142.91 18.6515 1150.21 18.6515 Q1156.75 18.6515 1160.54 22.876 Q1164.36 27.0716 1164.36 34.3054 M1159.03 32.7429 Q1158.97 28.3737 1156.57 25.7695 Q1154.2 23.1654 1150.26 23.1654 Q1145.81 23.1654 1143.12 25.6827 Q1140.46 28.2001 1140.05 32.7718 L1159.03 32.7429 Z" fill="#000000" fill-rule="nonzero" fill-opacity="1" /><path clip-path="url(#clip010)" d="M1200.03 32.2799 L1200.03 51.84 L1194.71 51.84 L1194.71 32.4535 Q1194.71 27.8529 1192.91 25.567 Q1191.12 23.2811 1187.53 23.2811 Q1183.22 23.2811 1180.73 26.03 Q1178.24 28.7788 1178.24 33.5241 L1178.24 51.84 L1172.89 51.84 L1172.89 19.4328 L1178.24 19.4328 L1178.24 24.4675 Q1180.15 21.545 1182.73 20.0983 Q1185.33 18.6515 1188.72 18.6515 Q1194.3 18.6515 1197.17 22.1237 Q1200.03 25.567 1200.03 32.2799 Z" fill="#000000" fill-rule="nonzero" fill-opacity="1" /><path clip-path="url(#clip010)" d="M1233.97 20.677 L1233.97 25.6538 Q1231.72 24.4096 1229.43 23.802 Q1227.17 23.1654 1224.86 23.1654 Q1219.68 23.1654 1216.81 26.464 Q1213.95 29.7336 1213.95 35.6653 Q1213.95 41.597 1216.81 44.8956 Q1219.68 48.1653 1224.86 48.1653 Q1227.17 48.1653 1229.43 47.5576 Q1231.72 46.921 1233.97 45.6768 L1233.97 50.5958 Q1231.75 51.6375 1229.34 52.1583 Q1226.97 52.6791 1224.28 52.6791 Q1216.96 52.6791 1212.65 48.0784 Q1208.34 43.4778 1208.34 35.6653 Q1208.34 27.7371 1212.68 23.1943 Q1217.05 18.6515 1224.63 18.6515 Q1227.09 18.6515 1229.43 19.1724 Q1231.77 19.6642 1233.97 20.677 Z" fill="#000000" fill-rule="nonzero" fill-opacity="1" /><path clip-path="url(#clip010)" d="M1270.95 34.3054 L1270.95 36.9095 L1246.47 36.9095 Q1246.82 42.4072 1249.77 45.3007 Q1252.75 48.1653 1258.05 48.1653 Q1261.11 48.1653 1263.98 47.4129 Q1266.87 46.6606 1269.71 45.156 L1269.71 50.1907 Q1266.84 51.406 1263.83 52.0425 Q1260.83 52.6791 1257.73 52.6791 Q1249.97 52.6791 1245.43 48.1653 Q1240.92 43.6514 1240.92 35.9547 Q1240.92 27.9975 1245.2 23.339 Q1249.51 18.6515 1256.8 18.6515 Q1263.34 18.6515 1267.13 22.876 Q1270.95 27.0716 1270.95 34.3054 M1265.63 32.7429 Q1265.57 28.3737 1263.17 25.7695 Q1260.8 23.1654 1256.86 23.1654 Q1252.41 23.1654 1249.71 25.6827 Q1247.05 28.2001 1246.65 32.7718 L1265.63 32.7429 Z" fill="#000000" fill-rule="nonzero" fill-opacity="1" /><path clip-path="url(#clip010)" d="M1311.32 6.87496 Q1307.44 13.53 1305.56 20.0404 Q1303.68 26.5508 1303.68 33.2348 Q1303.68 39.9188 1305.56 46.487 Q1307.47 53.0263 1311.32 59.6525 L1306.69 59.6525 Q1302.35 52.8527 1300.18 46.2845 Q1298.04 39.7162 1298.04 33.2348 Q1298.04 26.7823 1300.18 20.2429 Q1302.32 13.7036 1306.69 6.87496 L1311.32 6.87496 Z" fill="#000000" fill-rule="nonzero" fill-opacity="1" /><path clip-path="url(#clip010)" d="M1354.23 11.9675 L1354.23 18.1307 Q1351.28 15.3819 1347.92 14.0219 Q1344.59 12.662 1340.83 12.662 Q1333.42 12.662 1329.49 17.2048 Q1325.55 21.7186 1325.55 30.2834 Q1325.55 38.8192 1329.49 43.362 Q1333.42 47.8759 1340.83 47.8759 Q1344.59 47.8759 1347.92 46.516 Q1351.28 45.156 1354.23 42.4072 L1354.23 48.5125 Q1351.16 50.5958 1347.72 51.6375 Q1344.3 52.6791 1340.48 52.6791 Q1330.67 52.6791 1325.03 46.6896 Q1319.39 40.6711 1319.39 30.2834 Q1319.39 19.8668 1325.03 13.8772 Q1330.67 7.85875 1340.48 7.85875 Q1344.36 7.85875 1347.77 8.90042 Q1351.22 9.91314 1354.23 11.9675 Z" fill="#000000" fill-rule="nonzero" fill-opacity="1" /><path clip-path="url(#clip010)" d="M1363.26 8.64 L1369.1 8.64 L1369.1 26.3482 L1390.34 26.3482 L1390.34 8.64 L1396.18 8.64 L1396.18 51.84 L1390.34 51.84 L1390.34 31.2672 L1369.1 31.2672 L1369.1 51.84 L1363.26 51.84 L1363.26 8.64 Z" fill="#000000" fill-rule="nonzero" fill-opacity="1" /><path clip-path="url(#clip010)" d="M1407.82 8.64 L1416.52 8.64 L1427.55 38.038 L1438.63 8.64 L1447.34 8.64 L1447.34 51.84 L1441.64 51.84 L1441.64 13.9062 L1430.5 43.5356 L1424.63 43.5356 L1413.49 13.9062 L1413.49 51.84 L1407.82 51.84 L1407.82 8.64 Z" fill="#000000" fill-rule="nonzero" fill-opacity="1" /><path clip-path="url(#clip010)" d="M1458.94 8.64 L1467.65 8.64 L1478.68 38.038 L1489.76 8.64 L1498.47 8.64 L1498.47 51.84 L1492.77 51.84 L1492.77 13.9062 L1481.63 43.5356 L1475.75 43.5356 L1464.61 13.9062 L1464.61 51.84 L1458.94 51.84 L1458.94 8.64 Z" fill="#000000" fill-rule="nonzero" fill-opacity="1" /><path clip-path="url(#clip010)" d="M1507.15 33.2348 L1522.75 33.2348 L1522.75 37.9801 L1507.15 37.9801 L1507.15 33.2348 Z" fill="#000000" fill-rule="nonzero" fill-opacity="1" /><path clip-path="url(#clip010)" d="M1536.49 10.2314 L1536.49 19.4328 L1547.46 19.4328 L1547.46 23.5705 L1536.49 23.5705 L1536.49 41.163 Q1536.49 45.1271 1537.56 46.2555 Q1538.66 47.384 1541.99 47.384 L1547.46 47.384 L1547.46 51.84 L1541.99 51.84 Q1535.82 51.84 1533.48 49.5541 Q1531.14 47.2393 1531.14 41.163 L1531.14 23.5705 L1527.23 23.5705 L1527.23 19.4328 L1531.14 19.4328 L1531.14 10.2314 L1536.49 10.2314 Z" fill="#000000" fill-rule="nonzero" fill-opacity="1" /><path clip-path="url(#clip010)" d="M1555.82 44.4905 L1561.92 44.4905 L1561.92 49.4673 L1557.18 58.7265 L1553.45 58.7265 L1555.82 49.4673 L1555.82 44.4905 Z" fill="#000000" fill-rule="nonzero" fill-opacity="1" /><path clip-path="url(#clip010)" d="M1592.36 8.64 L1598.21 8.64 L1598.21 26.898 L1617.59 8.64 L1625.12 8.64 L1603.68 28.7788 L1626.65 51.84 L1618.95 51.84 L1598.21 31.0357 L1598.21 51.84 L1592.36 51.84 L1592.36 8.64 Z" fill="#000000" fill-rule="nonzero" fill-opacity="1" /><path clip-path="url(#clip010)" d="M1631.69 24.9304 L1668.78 24.9304 L1668.78 29.7915 L1631.69 29.7915 L1631.69 24.9304 M1631.69 36.7359 L1668.78 36.7359 L1668.78 41.6549 L1631.69 41.6549 L1631.69 36.7359 Z" fill="#000000" fill-rule="nonzero" fill-opacity="1" /><path clip-path="url(#clip010)" d="M1682.41 46.921 L1691.96 46.921 L1691.96 13.964 L1681.57 16.0474 L1681.57 10.7233 L1691.9 8.64 L1697.74 8.64 L1697.74 46.921 L1707.29 46.921 L1707.29 51.84 L1682.41 51.84 L1682.41 46.921 Z" fill="#000000" fill-rule="nonzero" fill-opacity="1" /><path clip-path="url(#clip010)" d="M1731.6 31.3251 Q1727.43 31.3251 1725.03 33.5531 Q1722.66 35.7811 1722.66 39.6873 Q1722.66 43.5935 1725.03 45.8215 Q1727.43 48.0495 1731.6 48.0495 Q1735.76 48.0495 1738.17 45.8215 Q1740.57 43.5646 1740.57 39.6873 Q1740.57 35.7811 1738.17 33.5531 Q1735.79 31.3251 1731.6 31.3251 M1725.75 28.8367 Q1721.99 27.9107 1719.88 25.3355 Q1717.8 22.7603 1717.8 19.0566 Q1717.8 13.8772 1721.47 10.868 Q1725.17 7.85875 1731.6 7.85875 Q1738.05 7.85875 1741.73 10.868 Q1745.4 13.8772 1745.4 19.0566 Q1745.4 22.7603 1743.29 25.3355 Q1741.2 27.9107 1737.47 28.8367 Q1741.7 29.8204 1744.04 32.685 Q1746.41 35.5496 1746.41 39.6873 Q1746.41 45.9662 1742.56 49.3227 Q1738.75 52.6791 1731.6 52.6791 Q1724.45 52.6791 1720.6 49.3227 Q1716.78 45.9662 1716.78 39.6873 Q1716.78 35.5496 1719.16 32.685 Q1721.53 29.8204 1725.75 28.8367 M1723.61 19.6064 Q1723.61 22.9628 1725.7 24.8436 Q1727.81 26.7244 1731.6 26.7244 Q1735.36 26.7244 1737.47 24.8436 Q1739.61 22.9628 1739.61 19.6064 Q1739.61 16.2499 1737.47 14.3691 Q1735.36 12.4884 1731.6 12.4884 Q1727.81 12.4884 1725.7 14.3691 Q1723.61 16.2499 1723.61 19.6064 Z" fill="#000000" fill-rule="nonzero" fill-opacity="1" /><path clip-path="url(#clip010)" d="M1755.21 6.87496 L1759.84 6.87496 Q1764.18 13.7036 1766.32 20.2429 Q1768.49 26.7823 1768.49 33.2348 Q1768.49 39.7162 1766.32 46.2845 Q1764.18 52.8527 1759.84 59.6525 L1755.21 59.6525 Q1759.06 53.0263 1760.94 46.487 Q1762.85 39.9188 1762.85 33.2348 Q1762.85 26.5508 1760.94 20.0404 Q1759.06 13.53 1755.21 6.87496 Z" fill="#000000" fill-rule="nonzero" fill-opacity="1" /><polyline clip-path="url(#clip012)" style="stroke:#000080; stroke-linecap:round; stroke-linejoin:round; stroke-width:8; stroke-opacity:1; fill:none" points="360.486,1385.91 393.269,766.656 426.053,642.507 458.837,581.891 491.621,546.574 524.405,523.334 557.188,505.501 589.972,490.49 622.756,476.996 655.54,464.025 688.323,450.803 721.107,436.717 753.891,421.327 786.675,404.408 819.459,385.978 852.242,366.35 885.026,346.125 917.81,325.965 950.594,306.263 983.377,287.244 1016.16,269.457 1048.95,253.874 1081.73,241.193 1114.51,231.311 1147.3,223.609 1180.08,217.432 1212.86,212.254 1245.65,207.693 1278.43,203.515 1311.22,199.596 1344,195.882 1376.78,192.351 1409.57,188.993 1442.35,185.802 1475.13,182.768 1507.92,179.86 1540.7,177.033 1573.49,174.237 1606.27,171.481 1639.05,168.766 1671.84,166.182 1704.62,163.835 1737.4,161.769 1770.19,159.984 1802.97,158.42 1835.76,157.027 1868.54,155.761 1901.32,154.59 1934.11,153.491 1966.89,152.443 1999.67,151.434 2032.46,150.454 2065.24,149.495 2098.03,148.556 2130.81,147.635 2163.59,146.737 2196.38,145.864 2229.16,145.024 2261.94,144.223 2294.73,143.465 "/>
<circle clip-path="url(#clip012)" cx="360.486" cy="1385.91" r="10.8" fill="#000080" fill-rule="evenodd" fill-opacity="1" stroke="#000000" stroke-opacity="1" stroke-width="3.2"/>
<circle clip-path="url(#clip012)" cx="393.269" cy="766.656" r="10.8" fill="#000080" fill-rule="evenodd" fill-opacity="1" stroke="#000000" stroke-opacity="1" stroke-width="3.2"/>
<circle clip-path="url(#clip012)" cx="426.053" cy="642.507" r="10.8" fill="#000080" fill-rule="evenodd" fill-opacity="1" stroke="#000000" stroke-opacity="1" stroke-width="3.2"/>
<circle clip-path="url(#clip012)" cx="458.837" cy="581.891" r="10.8" fill="#000080" fill-rule="evenodd" fill-opacity="1" stroke="#000000" stroke-opacity="1" stroke-width="3.2"/>
<circle clip-path="url(#clip012)" cx="491.621" cy="546.574" r="10.8" fill="#000080" fill-rule="evenodd" fill-opacity="1" stroke="#000000" stroke-opacity="1" stroke-width="3.2"/>
<circle clip-path="url(#clip012)" cx="524.405" cy="523.334" r="10.8" fill="#000080" fill-rule="evenodd" fill-opacity="1" stroke="#000000" stroke-opacity="1" stroke-width="3.2"/>
<circle clip-path="url(#clip012)" cx="557.188" cy="505.501" r="10.8" fill="#000080" fill-rule="evenodd" fill-opacity="1" stroke="#000000" stroke-opacity="1" stroke-width="3.2"/>
<circle clip-path="url(#clip012)" cx="589.972" cy="490.49" r="10.8" fill="#000080" fill-rule="evenodd" fill-opacity="1" stroke="#000000" stroke-opacity="1" stroke-width="3.2"/>
<circle clip-path="url(#clip012)" cx="622.756" cy="476.996" r="10.8" fill="#000080" fill-rule="evenodd" fill-opacity="1" stroke="#000000" stroke-opacity="1" stroke-width="3.2"/>
<circle clip-path="url(#clip012)" cx="655.54" cy="464.025" r="10.8" fill="#000080" fill-rule="evenodd" fill-opacity="1" stroke="#000000" stroke-opacity="1" stroke-width="3.2"/>
<circle clip-path="url(#clip012)" cx="688.323" cy="450.803" r="10.8" fill="#000080" fill-rule="evenodd" fill-opacity="1" stroke="#000000" stroke-opacity="1" stroke-width="3.2"/>
<circle clip-path="url(#clip012)" cx="721.107" cy="436.717" r="10.8" fill="#000080" fill-rule="evenodd" fill-opacity="1" stroke="#000000" stroke-opacity="1" stroke-width="3.2"/>
<circle clip-path="url(#clip012)" cx="753.891" cy="421.327" r="10.8" fill="#000080" fill-rule="evenodd" fill-opacity="1" stroke="#000000" stroke-opacity="1" stroke-width="3.2"/>
<circle clip-path="url(#clip012)" cx="786.675" cy="404.408" r="10.8" fill="#000080" fill-rule="evenodd" fill-opacity="1" stroke="#000000" stroke-opacity="1" stroke-width="3.2"/>
<circle clip-path="url(#clip012)" cx="819.459" cy="385.978" r="10.8" fill="#000080" fill-rule="evenodd" fill-opacity="1" stroke="#000000" stroke-opacity="1" stroke-width="3.2"/>
<circle clip-path="url(#clip012)" cx="852.242" cy="366.35" r="10.8" fill="#000080" fill-rule="evenodd" fill-opacity="1" stroke="#000000" stroke-opacity="1" stroke-width="3.2"/>
<circle clip-path="url(#clip012)" cx="885.026" cy="346.125" r="10.8" fill="#000080" fill-rule="evenodd" fill-opacity="1" stroke="#000000" stroke-opacity="1" stroke-width="3.2"/>
<circle clip-path="url(#clip012)" cx="917.81" cy="325.965" r="10.8" fill="#000080" fill-rule="evenodd" fill-opacity="1" stroke="#000000" stroke-opacity="1" stroke-width="3.2"/>
<circle clip-path="url(#clip012)" cx="950.594" cy="306.263" r="10.8" fill="#000080" fill-rule="evenodd" fill-opacity="1" stroke="#000000" stroke-opacity="1" stroke-width="3.2"/>
<circle clip-path="url(#clip012)" cx="983.377" cy="287.244" r="10.8" fill="#000080" fill-rule="evenodd" fill-opacity="1" stroke="#000000" stroke-opacity="1" stroke-width="3.2"/>
<circle clip-path="url(#clip012)" cx="1016.16" cy="269.457" r="10.8" fill="#000080" fill-rule="evenodd" fill-opacity="1" stroke="#000000" stroke-opacity="1" stroke-width="3.2"/>
<circle clip-path="url(#clip012)" cx="1048.95" cy="253.874" r="10.8" fill="#000080" fill-rule="evenodd" fill-opacity="1" stroke="#000000" stroke-opacity="1" stroke-width="3.2"/>
<circle clip-path="url(#clip012)" cx="1081.73" cy="241.193" r="10.8" fill="#000080" fill-rule="evenodd" fill-opacity="1" stroke="#000000" stroke-opacity="1" stroke-width="3.2"/>
<circle clip-path="url(#clip012)" cx="1114.51" cy="231.311" r="10.8" fill="#000080" fill-rule="evenodd" fill-opacity="1" stroke="#000000" stroke-opacity="1" stroke-width="3.2"/>
<circle clip-path="url(#clip012)" cx="1147.3" cy="223.609" r="10.8" fill="#000080" fill-rule="evenodd" fill-opacity="1" stroke="#000000" stroke-opacity="1" stroke-width="3.2"/>
<circle clip-path="url(#clip012)" cx="1180.08" cy="217.432" r="10.8" fill="#000080" fill-rule="evenodd" fill-opacity="1" stroke="#000000" stroke-opacity="1" stroke-width="3.2"/>
<circle clip-path="url(#clip012)" cx="1212.86" cy="212.254" r="10.8" fill="#000080" fill-rule="evenodd" fill-opacity="1" stroke="#000000" stroke-opacity="1" stroke-width="3.2"/>
<circle clip-path="url(#clip012)" cx="1245.65" cy="207.693" r="10.8" fill="#000080" fill-rule="evenodd" fill-opacity="1" stroke="#000000" stroke-opacity="1" stroke-width="3.2"/>
<circle clip-path="url(#clip012)" cx="1278.43" cy="203.515" r="10.8" fill="#000080" fill-rule="evenodd" fill-opacity="1" stroke="#000000" stroke-opacity="1" stroke-width="3.2"/>
<circle clip-path="url(#clip012)" cx="1311.22" cy="199.596" r="10.8" fill="#000080" fill-rule="evenodd" fill-opacity="1" stroke="#000000" stroke-opacity="1" stroke-width="3.2"/>
<circle clip-path="url(#clip012)" cx="1344" cy="195.882" r="10.8" fill="#000080" fill-rule="evenodd" fill-opacity="1" stroke="#000000" stroke-opacity="1" stroke-width="3.2"/>
<circle clip-path="url(#clip012)" cx="1376.78" cy="192.351" r="10.8" fill="#000080" fill-rule="evenodd" fill-opacity="1" stroke="#000000" stroke-opacity="1" stroke-width="3.2"/>
<circle clip-path="url(#clip012)" cx="1409.57" cy="188.993" r="10.8" fill="#000080" fill-rule="evenodd" fill-opacity="1" stroke="#000000" stroke-opacity="1" stroke-width="3.2"/>
<circle clip-path="url(#clip012)" cx="1442.35" cy="185.802" r="10.8" fill="#000080" fill-rule="evenodd" fill-opacity="1" stroke="#000000" stroke-opacity="1" stroke-width="3.2"/>
<circle clip-path="url(#clip012)" cx="1475.13" cy="182.768" r="10.8" fill="#000080" fill-rule="evenodd" fill-opacity="1" stroke="#000000" stroke-opacity="1" stroke-width="3.2"/>
<circle clip-path="url(#clip012)" cx="1507.92" cy="179.86" r="10.8" fill="#000080" fill-rule="evenodd" fill-opacity="1" stroke="#000000" stroke-opacity="1" stroke-width="3.2"/>
<circle clip-path="url(#clip012)" cx="1540.7" cy="177.033" r="10.8" fill="#000080" fill-rule="evenodd" fill-opacity="1" stroke="#000000" stroke-opacity="1" stroke-width="3.2"/>
<circle clip-path="url(#clip012)" cx="1573.49" cy="174.237" r="10.8" fill="#000080" fill-rule="evenodd" fill-opacity="1" stroke="#000000" stroke-opacity="1" stroke-width="3.2"/>
<circle clip-path="url(#clip012)" cx="1606.27" cy="171.481" r="10.8" fill="#000080" fill-rule="evenodd" fill-opacity="1" stroke="#000000" stroke-opacity="1" stroke-width="3.2"/>
<circle clip-path="url(#clip012)" cx="1639.05" cy="168.766" r="10.8" fill="#000080" fill-rule="evenodd" fill-opacity="1" stroke="#000000" stroke-opacity="1" stroke-width="3.2"/>
<circle clip-path="url(#clip012)" cx="1671.84" cy="166.182" r="10.8" fill="#000080" fill-rule="evenodd" fill-opacity="1" stroke="#000000" stroke-opacity="1" stroke-width="3.2"/>
<circle clip-path="url(#clip012)" cx="1704.62" cy="163.835" r="10.8" fill="#000080" fill-rule="evenodd" fill-opacity="1" stroke="#000000" stroke-opacity="1" stroke-width="3.2"/>
<circle clip-path="url(#clip012)" cx="1737.4" cy="161.769" r="10.8" fill="#000080" fill-rule="evenodd" fill-opacity="1" stroke="#000000" stroke-opacity="1" stroke-width="3.2"/>
<circle clip-path="url(#clip012)" cx="1770.19" cy="159.984" r="10.8" fill="#000080" fill-rule="evenodd" fill-opacity="1" stroke="#000000" stroke-opacity="1" stroke-width="3.2"/>
<circle clip-path="url(#clip012)" cx="1802.97" cy="158.42" r="10.8" fill="#000080" fill-rule="evenodd" fill-opacity="1" stroke="#000000" stroke-opacity="1" stroke-width="3.2"/>
<circle clip-path="url(#clip012)" cx="1835.76" cy="157.027" r="10.8" fill="#000080" fill-rule="evenodd" fill-opacity="1" stroke="#000000" stroke-opacity="1" stroke-width="3.2"/>
<circle clip-path="url(#clip012)" cx="1868.54" cy="155.761" r="10.8" fill="#000080" fill-rule="evenodd" fill-opacity="1" stroke="#000000" stroke-opacity="1" stroke-width="3.2"/>
<circle clip-path="url(#clip012)" cx="1901.32" cy="154.59" r="10.8" fill="#000080" fill-rule="evenodd" fill-opacity="1" stroke="#000000" stroke-opacity="1" stroke-width="3.2"/>
<circle clip-path="url(#clip012)" cx="1934.11" cy="153.491" r="10.8" fill="#000080" fill-rule="evenodd" fill-opacity="1" stroke="#000000" stroke-opacity="1" stroke-width="3.2"/>
<circle clip-path="url(#clip012)" cx="1966.89" cy="152.443" r="10.8" fill="#000080" fill-rule="evenodd" fill-opacity="1" stroke="#000000" stroke-opacity="1" stroke-width="3.2"/>
<circle clip-path="url(#clip012)" cx="1999.67" cy="151.434" r="10.8" fill="#000080" fill-rule="evenodd" fill-opacity="1" stroke="#000000" stroke-opacity="1" stroke-width="3.2"/>
<circle clip-path="url(#clip012)" cx="2032.46" cy="150.454" r="10.8" fill="#000080" fill-rule="evenodd" fill-opacity="1" stroke="#000000" stroke-opacity="1" stroke-width="3.2"/>
<circle clip-path="url(#clip012)" cx="2065.24" cy="149.495" r="10.8" fill="#000080" fill-rule="evenodd" fill-opacity="1" stroke="#000000" stroke-opacity="1" stroke-width="3.2"/>
<circle clip-path="url(#clip012)" cx="2098.03" cy="148.556" r="10.8" fill="#000080" fill-rule="evenodd" fill-opacity="1" stroke="#000000" stroke-opacity="1" stroke-width="3.2"/>
<circle clip-path="url(#clip012)" cx="2130.81" cy="147.635" r="10.8" fill="#000080" fill-rule="evenodd" fill-opacity="1" stroke="#000000" stroke-opacity="1" stroke-width="3.2"/>
<circle clip-path="url(#clip012)" cx="2163.59" cy="146.737" r="10.8" fill="#000080" fill-rule="evenodd" fill-opacity="1" stroke="#000000" stroke-opacity="1" stroke-width="3.2"/>
<circle clip-path="url(#clip012)" cx="2196.38" cy="145.864" r="10.8" fill="#000080" fill-rule="evenodd" fill-opacity="1" stroke="#000000" stroke-opacity="1" stroke-width="3.2"/>
<circle clip-path="url(#clip012)" cx="2229.16" cy="145.024" r="10.8" fill="#000080" fill-rule="evenodd" fill-opacity="1" stroke="#000000" stroke-opacity="1" stroke-width="3.2"/>
<circle clip-path="url(#clip012)" cx="2261.94" cy="144.223" r="10.8" fill="#000080" fill-rule="evenodd" fill-opacity="1" stroke="#000000" stroke-opacity="1" stroke-width="3.2"/>
<circle clip-path="url(#clip012)" cx="2294.73" cy="143.465" r="10.8" fill="#000080" fill-rule="evenodd" fill-opacity="1" stroke="#000000" stroke-opacity="1" stroke-width="3.2"/>
</svg>
