<?xml version="1.0" encoding="utf-8"?>
<svg xmlns="http://www.w3.org/2000/svg" xmlns:xlink="http://www.w3.org/1999/xlink" width="600" height="400" viewBox="0 0 2400 1600">
<defs>
  <clipPath id="clip420">
    <rect x="0" y="0" width="2400" height="1600"/>
  </clipPath>
</defs>
<path clip-path="url(#clip420)" d="M0 1600 L2400 1600 L2400 8.88178e-14 L0 8.88178e-14  Z" fill="#ffffff" fill-rule="evenodd" fill-opacity="1"/>
<defs>
  <clipPath id="clip421">
    <rect x="312" y="0" width="1792" height="1564"/>
  </clipPath>
</defs>
<path clip-path="url(#clip420)" d="M249.542 1423.18 L2352.76 1423.18 L2352.76 101.872 L249.542 101.872  Z" fill="#ffffff" fill-rule="evenodd" fill-opacity="1"/>
<defs>
  <clipPath id="clip422">
    <rect x="249" y="101" width="2104" height="1322"/>
  </clipPath>
</defs>
<polyline clip-path="url(#clip422)" style="stroke:#000000; stroke-linecap:round; stroke-linejoin:round; stroke-width:2; stroke-opacity:0.1; fill:none" points="302.126,1423.18 302.126,101.872 "/>
<polyline clip-path="url(#clip422)" style="stroke:#000000; stroke-linecap:round; stroke-linejoin:round; stroke-width:2; stroke-opacity:0.1; fill:none" points="827.928,1423.18 827.928,101.872 "/>
<polyline clip-path="url(#clip422)" style="stroke:#000000; stroke-linecap:round; stroke-linejoin:round; stroke-width:2; stroke-opacity:0.1; fill:none" points="1353.73,1423.18 1353.73,101.872 "/>
<polyline clip-path="url(#clip422)" style="stroke:#000000; stroke-linecap:round; stroke-linejoin:round; stroke-width:2; stroke-opacity:0.1; fill:none" points="1879.53,1423.18 1879.53,101.872 "/>
<polyline clip-path="url(#clip422)" style="stroke:#000000; stroke-linecap:round; stroke-linejoin:round; stroke-width:2; stroke-opacity:0.1; fill:none" points="249.542,1423.18 2352.76,1423.18 "/>
<polyline clip-path="url(#clip422)" style="stroke:#000000; stroke-linecap:round; stroke-linejoin:round; stroke-width:2; stroke-opacity:0.1; fill:none" points="249.542,1199.67 2352.76,1199.67 "/>
<polyline clip-path="url(#clip422)" style="stroke:#000000; stroke-linecap:round; stroke-linejoin:round; stroke-width:2; stroke-opacity:0.1; fill:none" points="249.542,976.164 2352.76,976.164 "/>
<polyline clip-path="url(#clip422)" style="stroke:#000000; stroke-linecap:round; stroke-linejoin:round; stroke-width:2; stroke-opacity:0.1; fill:none" points="249.542,752.656 2352.76,752.656 "/>
<polyline clip-path="url(#clip422)" style="stroke:#000000; stroke-linecap:round; stroke-linejoin:round; stroke-width:2; stroke-opacity:0.1; fill:none" points="249.542,529.148 2352.76,529.148 "/>
<polyline clip-path="url(#clip422)" style="stroke:#000000; stroke-linecap:round; stroke-linejoin:round; stroke-width:2; stroke-opacity:0.1; fill:none" points="249.542,305.64 2352.76,305.64 "/>
<polyline clip-path="url(#clip420)" style="stroke:#000000; stroke-linecap:round; stroke-linejoin:round; stroke-width:4; stroke-opacity:1; fill:none" points="249.542,1423.18 2352.76,1423.18 "/>
<polyline clip-path="url(#clip420)" style="stroke:#000000; stroke-linecap:round; stroke-linejoin:round; stroke-width:4; stroke-opacity:1; fill:none" points="302.126,1423.18 302.126,1404.28 "/>
<polyline clip-path="url(#clip420)" style="stroke:#000000; stroke-linecap:round; stroke-linejoin:round; stroke-width:4; stroke-opacity:1; fill:none" points="827.928,1423.18 827.928,1404.28 "/>
<polyline clip-path="url(#clip420)" style="stroke:#000000; stroke-linecap:round; stroke-linejoin:round; stroke-width:4; stroke-opacity:1; fill:none" points="1353.73,1423.18 1353.73,1404.28 "/>
<polyline clip-path="url(#clip420)" style="stroke:#000000; stroke-linecap:round; stroke-linejoin:round; stroke-width:4; stroke-opacity:1; fill:none" points="1879.53,1423.18 1879.53,1404.28 "/>
<path clip-path="url(#clip420)" d="M302.126 1454.1 Q298.515 1454.1 296.687 1457.66 Q294.881 1461.2 294.881 1468.33 Q294.881 1475.44 296.687 1479.01 Q298.515 1482.55 302.126 1482.55 Q305.761 1482.55 307.566 1479.01 Q309.395 1475.44 309.395 1468.33 Q309.395 1461.2 307.566 1457.66 Q305.761 1454.1 302.126 1454.1 M302.126 1450.39 Q307.937 1450.39 310.992 1455 Q314.071 1459.58 314.071 1468.33 Q314.071 1477.06 310.992 1481.67 Q307.937 1486.25 302.126 1486.25 Q296.316 1486.25 293.238 1481.67 Q290.182 1477.06 290.182 1468.33 Q290.182 1459.58 293.238 1455 Q296.316 1450.39 302.126 1450.39 Z" fill="#000000" fill-rule="nonzero" fill-opacity="1" /><path clip-path="url(#clip420)" d="M818.206 1451.02 L836.562 1451.02 L836.562 1454.96 L822.488 1454.96 L822.488 1463.43 Q823.506 1463.08 824.525 1462.92 Q825.543 1462.73 826.562 1462.73 Q832.349 1462.73 835.729 1465.9 Q839.108 1469.08 839.108 1474.49 Q839.108 1480.07 835.636 1483.17 Q832.164 1486.25 825.844 1486.25 Q823.669 1486.25 821.4 1485.88 Q819.155 1485.51 816.747 1484.77 L816.747 1480.07 Q818.831 1481.2 821.053 1481.76 Q823.275 1482.32 825.752 1482.32 Q829.756 1482.32 832.094 1480.21 Q834.432 1478.1 834.432 1474.49 Q834.432 1470.88 832.094 1468.77 Q829.756 1466.67 825.752 1466.67 Q823.877 1466.67 822.002 1467.08 Q820.15 1467.5 818.206 1468.38 L818.206 1451.02 Z" fill="#000000" fill-rule="nonzero" fill-opacity="1" /><path clip-path="url(#clip420)" d="M1328.42 1481.64 L1336.06 1481.64 L1336.06 1455.28 L1327.75 1456.95 L1327.75 1452.69 L1336.01 1451.02 L1340.69 1451.02 L1340.69 1481.64 L1348.32 1481.64 L1348.32 1485.58 L1328.42 1485.58 L1328.42 1481.64 Z" fill="#000000" fill-rule="nonzero" fill-opacity="1" /><path clip-path="url(#clip420)" d="M1367.77 1454.1 Q1364.16 1454.1 1362.33 1457.66 Q1360.52 1461.2 1360.52 1468.33 Q1360.52 1475.44 1362.33 1479.01 Q1364.16 1482.55 1367.77 1482.55 Q1371.4 1482.55 1373.21 1479.01 Q1375.04 1475.44 1375.04 1468.33 Q1375.04 1461.2 1373.21 1457.66 Q1371.4 1454.1 1367.77 1454.1 M1367.77 1450.39 Q1373.58 1450.39 1376.63 1455 Q1379.71 1459.58 1379.71 1468.33 Q1379.71 1477.06 1376.63 1481.67 Q1373.58 1486.25 1367.77 1486.25 Q1361.96 1486.25 1358.88 1481.67 Q1355.82 1477.06 1355.82 1468.33 Q1355.82 1459.58 1358.88 1455 Q1361.96 1450.39 1367.77 1450.39 Z" fill="#000000" fill-rule="nonzero" fill-opacity="1" /><path clip-path="url(#clip420)" d="M1854.72 1481.64 L1862.35 1481.64 L1862.35 1455.28 L1854.04 1456.95 L1854.04 1452.69 L1862.31 1451.02 L1866.98 1451.02 L1866.98 1481.64 L1874.62 1481.64 L1874.62 1485.58 L1854.72 1485.58 L1854.72 1481.64 Z" fill="#000000" fill-rule="nonzero" fill-opacity="1" /><path clip-path="url(#clip420)" d="M1884.11 1451.02 L1902.47 1451.02 L1902.47 1454.96 L1888.4 1454.96 L1888.4 1463.43 Q1889.41 1463.08 1890.43 1462.92 Q1891.45 1462.73 1892.47 1462.73 Q1898.26 1462.73 1901.64 1465.9 Q1905.02 1469.08 1905.02 1474.49 Q1905.02 1480.07 1901.54 1483.17 Q1898.07 1486.25 1891.75 1486.25 Q1889.58 1486.25 1887.31 1485.88 Q1885.06 1485.51 1882.66 1484.77 L1882.66 1480.07 Q1884.74 1481.2 1886.96 1481.76 Q1889.18 1482.32 1891.66 1482.32 Q1895.66 1482.32 1898 1480.21 Q1900.34 1478.1 1900.34 1474.49 Q1900.34 1470.88 1898 1468.77 Q1895.66 1466.67 1891.66 1466.67 Q1889.79 1466.67 1887.91 1467.08 Q1886.06 1467.5 1884.11 1468.38 L1884.11 1451.02 Z" fill="#000000" fill-rule="nonzero" fill-opacity="1" /><path clip-path="url(#clip420)" d="M1149.15 1522.08 L1149.15 1528.35 Q1145.49 1526.6 1142.25 1525.74 Q1139 1524.88 1135.97 1524.88 Q1130.72 1524.88 1127.86 1526.92 Q1125.03 1528.96 1125.03 1532.71 Q1125.03 1535.87 1126.9 1537.49 Q1128.81 1539.08 1134.1 1540.07 L1137.98 1540.86 Q1145.17 1542.23 1148.58 1545.7 Q1152.02 1549.14 1152.02 1554.93 Q1152.02 1561.84 1147.37 1565.4 Q1142.75 1568.97 1133.81 1568.97 Q1130.44 1568.97 1126.62 1568.2 Q1122.83 1567.44 1118.76 1565.94 L1118.76 1559.32 Q1122.67 1561.52 1126.43 1562.63 Q1130.18 1563.75 1133.81 1563.75 Q1139.32 1563.75 1142.31 1561.58 Q1145.3 1559.42 1145.3 1555.41 Q1145.3 1551.91 1143.14 1549.93 Q1141 1547.96 1136.1 1546.97 L1132.19 1546.21 Q1124.99 1544.78 1121.78 1541.72 Q1118.56 1538.67 1118.56 1533.22 Q1118.56 1526.92 1122.99 1523.29 Q1127.44 1519.66 1135.24 1519.66 Q1138.58 1519.66 1142.05 1520.27 Q1145.52 1520.87 1149.15 1522.08 Z" fill="#000000" fill-rule="nonzero" fill-opacity="1" /><path clip-path="url(#clip420)" d="M1167.58 1522.27 L1167.58 1532.4 L1179.64 1532.4 L1179.64 1536.95 L1167.58 1536.95 L1167.58 1556.3 Q1167.58 1560.66 1168.76 1561.9 Q1169.97 1563.14 1173.63 1563.14 L1179.64 1563.14 L1179.64 1568.04 L1173.63 1568.04 Q1166.85 1568.04 1164.27 1565.53 Q1161.69 1562.98 1161.69 1556.3 L1161.69 1536.95 L1157.4 1536.95 L1157.4 1532.4 L1161.69 1532.4 L1161.69 1522.27 L1167.58 1522.27 Z" fill="#000000" fill-rule="nonzero" fill-opacity="1" /><path clip-path="url(#clip420)" d="M1203.55 1550.12 Q1196.45 1550.12 1193.71 1551.75 Q1190.97 1553.37 1190.97 1557.29 Q1190.97 1560.4 1193.01 1562.25 Q1195.08 1564.07 1198.61 1564.07 Q1203.48 1564.07 1206.41 1560.63 Q1209.37 1557.16 1209.37 1551.43 L1209.37 1550.12 L1203.55 1550.12 M1215.23 1547.71 L1215.23 1568.04 L1209.37 1568.04 L1209.37 1562.63 Q1207.37 1565.88 1204.37 1567.44 Q1201.38 1568.97 1197.05 1568.97 Q1191.58 1568.97 1188.33 1565.91 Q1185.12 1562.82 1185.12 1557.67 Q1185.12 1551.65 1189.13 1548.6 Q1193.17 1545.54 1201.16 1545.54 L1209.37 1545.54 L1209.37 1544.97 Q1209.37 1540.93 1206.7 1538.73 Q1204.06 1536.5 1199.25 1536.5 Q1196.19 1536.5 1193.3 1537.23 Q1190.4 1537.97 1187.73 1539.43 L1187.73 1534.02 Q1190.94 1532.78 1193.97 1532.17 Q1196.99 1531.54 1199.85 1531.54 Q1207.59 1531.54 1211.41 1535.55 Q1215.23 1539.56 1215.23 1547.71 Z" fill="#000000" fill-rule="nonzero" fill-opacity="1" /><path clip-path="url(#clip420)" d="M1233.08 1522.27 L1233.08 1532.4 L1245.15 1532.4 L1245.15 1536.95 L1233.08 1536.95 L1233.08 1556.3 Q1233.08 1560.66 1234.26 1561.9 Q1235.47 1563.14 1239.13 1563.14 L1245.15 1563.14 L1245.15 1568.04 L1239.13 1568.04 Q1232.35 1568.04 1229.77 1565.53 Q1227.2 1562.98 1227.2 1556.3 L1227.2 1536.95 L1222.9 1536.95 L1222.9 1532.4 L1227.2 1532.4 L1227.2 1522.27 L1233.08 1522.27 Z" fill="#000000" fill-rule="nonzero" fill-opacity="1" /><path clip-path="url(#clip420)" d="M1283.34 1548.76 L1283.34 1551.62 L1256.41 1551.62 Q1256.8 1557.67 1260.04 1560.85 Q1263.32 1564 1269.15 1564 Q1272.52 1564 1275.67 1563.17 Q1278.85 1562.35 1281.97 1560.69 L1281.97 1566.23 Q1278.82 1567.57 1275.51 1568.27 Q1272.2 1568.97 1268.8 1568.97 Q1260.27 1568.97 1255.27 1564 Q1250.3 1559.04 1250.3 1550.57 Q1250.3 1541.82 1255.01 1536.69 Q1259.76 1531.54 1267.78 1531.54 Q1274.97 1531.54 1279.14 1536.18 Q1283.34 1540.8 1283.34 1548.76 M1277.48 1547.04 Q1277.42 1542.23 1274.78 1539.37 Q1272.17 1536.5 1267.84 1536.5 Q1262.94 1536.5 1259.98 1539.27 Q1257.05 1542.04 1256.6 1547.07 L1277.48 1547.04 Z" fill="#000000" fill-rule="nonzero" fill-opacity="1" /><path clip-path="url(#clip420)" d="M1313.67 1532.4 L1319.53 1532.4 L1319.53 1568.04 L1313.67 1568.04 L1313.67 1532.4 M1313.67 1518.52 L1319.53 1518.52 L1319.53 1525.93 L1313.67 1525.93 L1313.67 1518.52 Z" fill="#000000" fill-rule="nonzero" fill-opacity="1" /><path clip-path="url(#clip420)" d="M1361.42 1546.53 L1361.42 1568.04 L1355.56 1568.04 L1355.56 1546.72 Q1355.56 1541.66 1353.59 1539.14 Q1351.61 1536.63 1347.67 1536.63 Q1342.92 1536.63 1340.19 1539.65 Q1337.45 1542.68 1337.45 1547.9 L1337.45 1568.04 L1331.56 1568.04 L1331.56 1532.4 L1337.45 1532.4 L1337.45 1537.93 Q1339.55 1534.72 1342.38 1533.13 Q1345.25 1531.54 1348.97 1531.54 Q1355.11 1531.54 1358.27 1535.36 Q1361.42 1539.14 1361.42 1546.53 Z" fill="#000000" fill-rule="nonzero" fill-opacity="1" /><path clip-path="url(#clip420)" d="M1396.55 1537.81 L1396.55 1518.52 L1402.41 1518.52 L1402.41 1568.04 L1396.55 1568.04 L1396.55 1562.7 Q1394.71 1565.88 1391.88 1567.44 Q1389.08 1568.97 1385.13 1568.97 Q1378.67 1568.97 1374.59 1563.81 Q1370.55 1558.65 1370.55 1550.25 Q1370.55 1541.85 1374.59 1536.69 Q1378.67 1531.54 1385.13 1531.54 Q1389.08 1531.54 1391.88 1533.1 Q1394.71 1534.62 1396.55 1537.81 M1376.6 1550.25 Q1376.6 1556.71 1379.24 1560.4 Q1381.91 1564.07 1386.56 1564.07 Q1391.21 1564.07 1393.88 1560.4 Q1396.55 1556.71 1396.55 1550.25 Q1396.55 1543.79 1393.88 1540.13 Q1391.21 1536.44 1386.56 1536.44 Q1381.91 1536.44 1379.24 1540.13 Q1376.6 1543.79 1376.6 1550.25 Z" fill="#000000" fill-rule="nonzero" fill-opacity="1" /><path clip-path="url(#clip420)" d="M1444.97 1548.76 L1444.97 1551.62 L1418.04 1551.62 Q1418.42 1557.67 1421.67 1560.85 Q1424.95 1564 1430.77 1564 Q1434.14 1564 1437.3 1563.17 Q1440.48 1562.35 1443.6 1560.69 L1443.6 1566.23 Q1440.45 1567.57 1437.14 1568.27 Q1433.83 1568.97 1430.42 1568.97 Q1421.89 1568.97 1416.89 1564 Q1411.93 1559.04 1411.93 1550.57 Q1411.93 1541.82 1416.64 1536.69 Q1421.38 1531.54 1429.4 1531.54 Q1436.6 1531.54 1440.76 1536.18 Q1444.97 1540.8 1444.97 1548.76 M1439.11 1547.04 Q1439.05 1542.23 1436.4 1539.37 Q1433.79 1536.5 1429.47 1536.5 Q1424.56 1536.5 1421.6 1539.27 Q1418.68 1542.04 1418.23 1547.07 L1439.11 1547.04 Z" fill="#000000" fill-rule="nonzero" fill-opacity="1" /><path clip-path="url(#clip420)" d="M1483.06 1532.4 L1470.17 1549.74 L1483.73 1568.04 L1476.83 1568.04 L1466.45 1554.04 L1456.07 1568.04 L1449.17 1568.04 L1463.01 1549.39 L1450.35 1532.4 L1457.25 1532.4 L1466.71 1545.1 L1476.16 1532.4 L1483.06 1532.4 Z" fill="#000000" fill-rule="nonzero" fill-opacity="1" /><polyline clip-path="url(#clip420)" style="stroke:#000000; stroke-linecap:round; stroke-linejoin:round; stroke-width:4; stroke-opacity:1; fill:none" points="249.542,1423.18 249.542,101.872 "/>
<polyline clip-path="url(#clip420)" style="stroke:#000000; stroke-linecap:round; stroke-linejoin:round; stroke-width:4; stroke-opacity:1; fill:none" points="249.542,1423.18 268.44,1423.18 "/>
<polyline clip-path="url(#clip420)" style="stroke:#000000; stroke-linecap:round; stroke-linejoin:round; stroke-width:4; stroke-opacity:1; fill:none" points="249.542,1199.67 268.44,1199.67 "/>
<polyline clip-path="url(#clip420)" style="stroke:#000000; stroke-linecap:round; stroke-linejoin:round; stroke-width:4; stroke-opacity:1; fill:none" points="249.542,976.164 268.44,976.164 "/>
<polyline clip-path="url(#clip420)" style="stroke:#000000; stroke-linecap:round; stroke-linejoin:round; stroke-width:4; stroke-opacity:1; fill:none" points="249.542,752.656 268.44,752.656 "/>
<polyline clip-path="url(#clip420)" style="stroke:#000000; stroke-linecap:round; stroke-linejoin:round; stroke-width:4; stroke-opacity:1; fill:none" points="249.542,529.148 268.44,529.148 "/>
<polyline clip-path="url(#clip420)" style="stroke:#000000; stroke-linecap:round; stroke-linejoin:round; stroke-width:4; stroke-opacity:1; fill:none" points="249.542,305.64 268.44,305.64 "/>
<path clip-path="url(#clip420)" d="M126.205 1408.98 Q122.593 1408.98 120.765 1412.54 Q118.959 1416.08 118.959 1423.21 Q118.959 1430.32 120.765 1433.89 Q122.593 1437.43 126.205 1437.43 Q129.839 1437.43 131.644 1433.89 Q133.473 1430.32 133.473 1423.21 Q133.473 1416.08 131.644 1412.54 Q129.839 1408.98 126.205 1408.98 M126.205 1405.27 Q132.015 1405.27 135.07 1409.88 Q138.149 1414.46 138.149 1423.21 Q138.149 1431.94 135.07 1436.55 Q132.015 1441.13 126.205 1441.13 Q120.394 1441.13 117.316 1436.55 Q114.26 1431.94 114.26 1423.21 Q114.26 1414.46 117.316 1409.88 Q120.394 1405.27 126.205 1405.27 Z" fill="#000000" fill-rule="nonzero" fill-opacity="1" /><path clip-path="url(#clip420)" d="M146.366 1434.58 L151.251 1434.58 L151.251 1440.46 L146.366 1440.46 L146.366 1434.58 Z" fill="#000000" fill-rule="nonzero" fill-opacity="1" /><path clip-path="url(#clip420)" d="M171.436 1408.98 Q167.825 1408.98 165.996 1412.54 Q164.19 1416.08 164.19 1423.21 Q164.19 1430.32 165.996 1433.89 Q167.825 1437.43 171.436 1437.43 Q175.07 1437.43 176.876 1433.89 Q178.704 1430.32 178.704 1423.21 Q178.704 1416.08 176.876 1412.54 Q175.07 1408.98 171.436 1408.98 M171.436 1405.27 Q177.246 1405.27 180.301 1409.88 Q183.38 1414.46 183.38 1423.21 Q183.38 1431.94 180.301 1436.55 Q177.246 1441.13 171.436 1441.13 Q165.626 1441.13 162.547 1436.55 Q159.491 1431.94 159.491 1423.21 Q159.491 1414.46 162.547 1409.88 Q165.626 1405.27 171.436 1405.27 Z" fill="#000000" fill-rule="nonzero" fill-opacity="1" /><path clip-path="url(#clip420)" d="M201.598 1408.98 Q197.987 1408.98 196.158 1412.54 Q194.352 1416.08 194.352 1423.21 Q194.352 1430.32 196.158 1433.89 Q197.987 1437.43 201.598 1437.43 Q205.232 1437.43 207.037 1433.89 Q208.866 1430.32 208.866 1423.21 Q208.866 1416.08 207.037 1412.54 Q205.232 1408.98 201.598 1408.98 M201.598 1405.27 Q207.408 1405.27 210.463 1409.88 Q213.542 1414.46 213.542 1423.21 Q213.542 1431.94 210.463 1436.55 Q207.408 1441.13 201.598 1441.13 Q195.787 1441.13 192.709 1436.55 Q189.653 1431.94 189.653 1423.21 Q189.653 1414.46 192.709 1409.88 Q195.787 1405.27 201.598 1405.27 Z" fill="#000000" fill-rule="nonzero" fill-opacity="1" /><path clip-path="url(#clip420)" d="M127.2 1185.47 Q123.589 1185.47 121.76 1189.04 Q119.955 1192.58 119.955 1199.71 Q119.955 1206.81 121.76 1210.38 Q123.589 1213.92 127.2 1213.92 Q130.834 1213.92 132.64 1210.38 Q134.468 1206.81 134.468 1199.71 Q134.468 1192.58 132.64 1189.04 Q130.834 1185.47 127.2 1185.47 M127.2 1181.77 Q133.01 1181.77 136.066 1186.37 Q139.144 1190.96 139.144 1199.71 Q139.144 1208.43 136.066 1213.04 Q133.01 1217.62 127.2 1217.62 Q121.39 1217.62 118.311 1213.04 Q115.256 1208.43 115.256 1199.71 Q115.256 1190.96 118.311 1186.37 Q121.39 1181.77 127.2 1181.77 Z" fill="#000000" fill-rule="nonzero" fill-opacity="1" /><path clip-path="url(#clip420)" d="M147.362 1211.07 L152.246 1211.07 L152.246 1216.95 L147.362 1216.95 L147.362 1211.07 Z" fill="#000000" fill-rule="nonzero" fill-opacity="1" /><path clip-path="url(#clip420)" d="M172.431 1185.47 Q168.82 1185.47 166.991 1189.04 Q165.186 1192.58 165.186 1199.71 Q165.186 1206.81 166.991 1210.38 Q168.82 1213.92 172.431 1213.92 Q176.065 1213.92 177.871 1210.38 Q179.7 1206.81 179.7 1199.71 Q179.7 1192.58 177.871 1189.04 Q176.065 1185.47 172.431 1185.47 M172.431 1181.77 Q178.241 1181.77 181.297 1186.37 Q184.376 1190.96 184.376 1199.71 Q184.376 1208.43 181.297 1213.04 Q178.241 1217.62 172.431 1217.62 Q166.621 1217.62 163.542 1213.04 Q160.487 1208.43 160.487 1199.71 Q160.487 1190.96 163.542 1186.37 Q166.621 1181.77 172.431 1181.77 Z" fill="#000000" fill-rule="nonzero" fill-opacity="1" /><path clip-path="url(#clip420)" d="M192.639 1182.39 L210.996 1182.39 L210.996 1186.33 L196.922 1186.33 L196.922 1194.8 Q197.94 1194.45 198.959 1194.29 Q199.977 1194.1 200.996 1194.1 Q206.783 1194.1 210.162 1197.28 Q213.542 1200.45 213.542 1205.86 Q213.542 1211.44 210.07 1214.54 Q206.598 1217.62 200.278 1217.62 Q198.102 1217.62 195.834 1217.25 Q193.588 1216.88 191.181 1216.14 L191.181 1211.44 Q193.264 1212.58 195.487 1213.13 Q197.709 1213.69 200.186 1213.69 Q204.19 1213.69 206.528 1211.58 Q208.866 1209.47 208.866 1205.86 Q208.866 1202.25 206.528 1200.15 Q204.19 1198.04 200.186 1198.04 Q198.311 1198.04 196.436 1198.46 Q194.584 1198.87 192.639 1199.75 L192.639 1182.39 Z" fill="#000000" fill-rule="nonzero" fill-opacity="1" /><path clip-path="url(#clip420)" d="M126.205 961.962 Q122.593 961.962 120.765 965.527 Q118.959 969.069 118.959 976.198 Q118.959 983.305 120.765 986.87 Q122.593 990.411 126.205 990.411 Q129.839 990.411 131.644 986.87 Q133.473 983.305 133.473 976.198 Q133.473 969.069 131.644 965.527 Q129.839 961.962 126.205 961.962 M126.205 958.259 Q132.015 958.259 135.07 962.865 Q138.149 967.449 138.149 976.198 Q138.149 984.925 135.07 989.532 Q132.015 994.115 126.205 994.115 Q120.394 994.115 117.316 989.532 Q114.26 984.925 114.26 976.198 Q114.26 967.449 117.316 962.865 Q120.394 958.259 126.205 958.259 Z" fill="#000000" fill-rule="nonzero" fill-opacity="1" /><path clip-path="url(#clip420)" d="M146.366 987.564 L151.251 987.564 L151.251 993.444 L146.366 993.444 L146.366 987.564 Z" fill="#000000" fill-rule="nonzero" fill-opacity="1" /><path clip-path="url(#clip420)" d="M162.246 989.509 L169.885 989.509 L169.885 963.143 L161.575 964.81 L161.575 960.55 L169.839 958.884 L174.514 958.884 L174.514 989.509 L182.153 989.509 L182.153 993.444 L162.246 993.444 L162.246 989.509 Z" fill="#000000" fill-rule="nonzero" fill-opacity="1" /><path clip-path="url(#clip420)" d="M201.598 961.962 Q197.987 961.962 196.158 965.527 Q194.352 969.069 194.352 976.198 Q194.352 983.305 196.158 986.87 Q197.987 990.411 201.598 990.411 Q205.232 990.411 207.037 986.87 Q208.866 983.305 208.866 976.198 Q208.866 969.069 207.037 965.527 Q205.232 961.962 201.598 961.962 M201.598 958.259 Q207.408 958.259 210.463 962.865 Q213.542 967.449 213.542 976.198 Q213.542 984.925 210.463 989.532 Q207.408 994.115 201.598 994.115 Q195.787 994.115 192.709 989.532 Q189.653 984.925 189.653 976.198 Q189.653 967.449 192.709 962.865 Q195.787 958.259 201.598 958.259 Z" fill="#000000" fill-rule="nonzero" fill-opacity="1" /><path clip-path="url(#clip420)" d="M127.2 738.454 Q123.589 738.454 121.76 742.019 Q119.955 745.561 119.955 752.69 Q119.955 759.797 121.76 763.362 Q123.589 766.903 127.2 766.903 Q130.834 766.903 132.64 763.362 Q134.468 759.797 134.468 752.69 Q134.468 745.561 132.64 742.019 Q130.834 738.454 127.2 738.454 M127.2 734.751 Q133.01 734.751 136.066 739.357 Q139.144 743.94 139.144 752.69 Q139.144 761.417 136.066 766.024 Q133.01 770.607 127.2 770.607 Q121.39 770.607 118.311 766.024 Q115.256 761.417 115.256 752.69 Q115.256 743.94 118.311 739.357 Q121.39 734.751 127.2 734.751 Z" fill="#000000" fill-rule="nonzero" fill-opacity="1" /><path clip-path="url(#clip420)" d="M147.362 764.056 L152.246 764.056 L152.246 769.936 L147.362 769.936 L147.362 764.056 Z" fill="#000000" fill-rule="nonzero" fill-opacity="1" /><path clip-path="url(#clip420)" d="M163.241 766.001 L170.88 766.001 L170.88 739.635 L162.57 741.302 L162.57 737.042 L170.834 735.376 L175.51 735.376 L175.51 766.001 L183.149 766.001 L183.149 769.936 L163.241 769.936 L163.241 766.001 Z" fill="#000000" fill-rule="nonzero" fill-opacity="1" /><path clip-path="url(#clip420)" d="M192.639 735.376 L210.996 735.376 L210.996 739.311 L196.922 739.311 L196.922 747.783 Q197.94 747.436 198.959 747.274 Q199.977 747.089 200.996 747.089 Q206.783 747.089 210.162 750.26 Q213.542 753.431 213.542 758.848 Q213.542 764.426 210.07 767.528 Q206.598 770.607 200.278 770.607 Q198.102 770.607 195.834 770.237 Q193.588 769.866 191.181 769.126 L191.181 764.426 Q193.264 765.561 195.487 766.116 Q197.709 766.672 200.186 766.672 Q204.19 766.672 206.528 764.565 Q208.866 762.459 208.866 758.848 Q208.866 755.237 206.528 753.13 Q204.19 751.024 200.186 751.024 Q198.311 751.024 196.436 751.44 Q194.584 751.857 192.639 752.737 L192.639 735.376 Z" fill="#000000" fill-rule="nonzero" fill-opacity="1" /><path clip-path="url(#clip420)" d="M126.205 514.946 Q122.593 514.946 120.765 518.511 Q118.959 522.053 118.959 529.182 Q118.959 536.289 120.765 539.854 Q122.593 543.395 126.205 543.395 Q129.839 543.395 131.644 539.854 Q133.473 536.289 133.473 529.182 Q133.473 522.053 131.644 518.511 Q129.839 514.946 126.205 514.946 M126.205 511.243 Q132.015 511.243 135.07 515.849 Q138.149 520.432 138.149 529.182 Q138.149 537.909 135.07 542.516 Q132.015 547.099 126.205 547.099 Q120.394 547.099 117.316 542.516 Q114.26 537.909 114.26 529.182 Q114.26 520.432 117.316 515.849 Q120.394 511.243 126.205 511.243 Z" fill="#000000" fill-rule="nonzero" fill-opacity="1" /><path clip-path="url(#clip420)" d="M146.366 540.548 L151.251 540.548 L151.251 546.428 L146.366 546.428 L146.366 540.548 Z" fill="#000000" fill-rule="nonzero" fill-opacity="1" /><path clip-path="url(#clip420)" d="M165.464 542.492 L181.783 542.492 L181.783 546.428 L159.839 546.428 L159.839 542.492 Q162.501 539.738 167.084 535.108 Q171.69 530.456 172.871 529.113 Q175.116 526.59 175.996 524.854 Q176.899 523.094 176.899 521.405 Q176.899 518.65 174.954 516.914 Q173.033 515.178 169.931 515.178 Q167.732 515.178 165.278 515.942 Q162.848 516.706 160.07 518.256 L160.07 513.534 Q162.894 512.4 165.348 511.821 Q167.802 511.243 169.839 511.243 Q175.209 511.243 178.403 513.928 Q181.598 516.613 181.598 521.104 Q181.598 523.233 180.788 525.155 Q180.001 527.053 177.894 529.645 Q177.315 530.317 174.214 533.534 Q171.112 536.729 165.464 542.492 Z" fill="#000000" fill-rule="nonzero" fill-opacity="1" /><path clip-path="url(#clip420)" d="M201.598 514.946 Q197.987 514.946 196.158 518.511 Q194.352 522.053 194.352 529.182 Q194.352 536.289 196.158 539.854 Q197.987 543.395 201.598 543.395 Q205.232 543.395 207.037 539.854 Q208.866 536.289 208.866 529.182 Q208.866 522.053 207.037 518.511 Q205.232 514.946 201.598 514.946 M201.598 511.243 Q207.408 511.243 210.463 515.849 Q213.542 520.432 213.542 529.182 Q213.542 537.909 210.463 542.516 Q207.408 547.099 201.598 547.099 Q195.787 547.099 192.709 542.516 Q189.653 537.909 189.653 529.182 Q189.653 520.432 192.709 515.849 Q195.787 511.243 201.598 511.243 Z" fill="#000000" fill-rule="nonzero" fill-opacity="1" /><path clip-path="url(#clip420)" d="M127.2 291.438 Q123.589 291.438 121.76 295.003 Q119.955 298.545 119.955 305.674 Q119.955 312.781 121.76 316.346 Q123.589 319.887 127.2 319.887 Q130.834 319.887 132.64 316.346 Q134.468 312.781 134.468 305.674 Q134.468 298.545 132.64 295.003 Q130.834 291.438 127.2 291.438 M127.2 287.735 Q133.01 287.735 136.066 292.341 Q139.144 296.924 139.144 305.674 Q139.144 314.401 136.066 319.008 Q133.01 323.591 127.2 323.591 Q121.39 323.591 118.311 319.008 Q115.256 314.401 115.256 305.674 Q115.256 296.924 118.311 292.341 Q121.39 287.735 127.2 287.735 Z" fill="#000000" fill-rule="nonzero" fill-opacity="1" /><path clip-path="url(#clip420)" d="M147.362 317.04 L152.246 317.04 L152.246 322.92 L147.362 322.92 L147.362 317.04 Z" fill="#000000" fill-rule="nonzero" fill-opacity="1" /><path clip-path="url(#clip420)" d="M166.459 318.984 L182.778 318.984 L182.778 322.92 L160.834 322.92 L160.834 318.984 Q163.496 316.23 168.079 311.6 Q172.686 306.947 173.866 305.605 Q176.112 303.082 176.991 301.346 Q177.894 299.586 177.894 297.897 Q177.894 295.142 175.95 293.406 Q174.028 291.67 170.927 291.67 Q168.727 291.67 166.274 292.434 Q163.843 293.198 161.065 294.748 L161.065 290.026 Q163.89 288.892 166.343 288.313 Q168.797 287.735 170.834 287.735 Q176.204 287.735 179.399 290.42 Q182.593 293.105 182.593 297.596 Q182.593 299.725 181.783 301.647 Q180.996 303.545 178.889 306.137 Q178.311 306.809 175.209 310.026 Q172.107 313.221 166.459 318.984 Z" fill="#000000" fill-rule="nonzero" fill-opacity="1" /><path clip-path="url(#clip420)" d="M192.639 288.36 L210.996 288.36 L210.996 292.295 L196.922 292.295 L196.922 300.767 Q197.94 300.42 198.959 300.258 Q199.977 300.072 200.996 300.072 Q206.783 300.072 210.162 303.244 Q213.542 306.415 213.542 311.832 Q213.542 317.41 210.07 320.512 Q206.598 323.591 200.278 323.591 Q198.102 323.591 195.834 323.221 Q193.588 322.85 191.181 322.109 L191.181 317.41 Q193.264 318.545 195.487 319.1 Q197.709 319.656 200.186 319.656 Q204.19 319.656 206.528 317.549 Q208.866 315.443 208.866 311.832 Q208.866 308.221 206.528 306.114 Q204.19 304.008 200.186 304.008 Q198.311 304.008 196.436 304.424 Q194.584 304.841 192.639 305.721 L192.639 288.36 Z" fill="#000000" fill-rule="nonzero" fill-opacity="1" /><path clip-path="url(#clip420)" d="M18.0438 1157.76 L24.314 1157.76 Q22.5634 1161.42 21.704 1164.66 Q20.8447 1167.91 20.8447 1170.93 Q20.8447 1176.19 22.8817 1179.05 Q24.9187 1181.88 28.6745 1181.88 Q31.8255 1181.88 33.4488 1180 Q35.0402 1178.1 36.0269 1172.81 L36.8226 1168.93 Q38.1912 1161.74 41.6605 1158.33 Q45.098 1154.89 50.8908 1154.89 Q57.7976 1154.89 61.3624 1159.54 Q64.9272 1164.15 64.9272 1173.1 Q64.9272 1176.47 64.1633 1180.29 Q63.3994 1184.08 61.9035 1188.15 L55.2831 1188.15 Q57.4793 1184.24 58.5933 1180.48 Q59.7073 1176.73 59.7073 1173.1 Q59.7073 1167.59 57.543 1164.6 Q55.3786 1161.61 51.3682 1161.61 Q47.8671 1161.61 45.8937 1163.77 Q43.9204 1165.9 42.9337 1170.81 L42.1698 1174.72 Q40.7375 1181.91 37.682 1185.13 Q34.6264 1188.34 29.1837 1188.34 Q22.8817 1188.34 19.2532 1183.92 Q15.6248 1179.46 15.6248 1171.67 Q15.6248 1168.32 16.2295 1164.85 Q16.8343 1161.39 18.0438 1157.76 Z" fill="#000000" fill-rule="nonzero" fill-opacity="1" /><path clip-path="url(#clip420)" d="M18.2347 1139.33 L28.3562 1139.33 L28.3562 1127.27 L32.9077 1127.27 L32.9077 1139.33 L52.2594 1139.33 Q56.6199 1139.33 57.8613 1138.15 Q59.1026 1136.94 59.1026 1133.28 L59.1026 1127.27 L64.0042 1127.27 L64.0042 1133.28 Q64.0042 1140.06 61.4897 1142.64 Q58.9434 1145.22 52.2594 1145.22 L32.9077 1145.22 L32.9077 1149.51 L28.3562 1149.51 L28.3562 1145.22 L18.2347 1145.22 L18.2347 1139.33 Z" fill="#000000" fill-rule="nonzero" fill-opacity="1" /><path clip-path="url(#clip420)" d="M46.0847 1103.36 Q46.0847 1110.46 47.7079 1113.2 Q49.3312 1115.93 53.2461 1115.93 Q56.3653 1115.93 58.2114 1113.9 Q60.0256 1111.83 60.0256 1108.3 Q60.0256 1103.43 56.5881 1100.5 Q53.1188 1097.54 47.3897 1097.54 L46.0847 1097.54 L46.0847 1103.36 M43.6657 1091.68 L64.0042 1091.68 L64.0042 1097.54 L58.5933 1097.54 Q61.8398 1099.54 63.3994 1102.53 Q64.9272 1105.53 64.9272 1109.85 Q64.9272 1115.33 61.8716 1118.58 Q58.7843 1121.79 53.6281 1121.79 Q47.6125 1121.79 44.5569 1117.78 Q41.5014 1113.74 41.5014 1105.75 L41.5014 1097.54 L40.9285 1097.54 Q36.8862 1097.54 34.6901 1100.21 Q32.4621 1102.85 32.4621 1107.66 Q32.4621 1110.71 33.1941 1113.61 Q33.9262 1116.51 35.3903 1119.18 L29.9795 1119.18 Q28.7381 1115.97 28.1334 1112.94 Q27.4968 1109.92 27.4968 1107.05 Q27.4968 1099.32 31.5072 1095.5 Q35.5176 1091.68 43.6657 1091.68 Z" fill="#000000" fill-rule="nonzero" fill-opacity="1" /><path clip-path="url(#clip420)" d="M18.2347 1073.82 L28.3562 1073.82 L28.3562 1061.76 L32.9077 1061.76 L32.9077 1073.82 L52.2594 1073.82 Q56.6199 1073.82 57.8613 1072.65 Q59.1026 1071.44 59.1026 1067.78 L59.1026 1061.76 L64.0042 1061.76 L64.0042 1067.78 Q64.0042 1074.56 61.4897 1077.14 Q58.9434 1079.71 52.2594 1079.71 L32.9077 1079.71 L32.9077 1084.01 L28.3562 1084.01 L28.3562 1079.71 L18.2347 1079.71 L18.2347 1073.82 Z" fill="#000000" fill-rule="nonzero" fill-opacity="1" /><path clip-path="url(#clip420)" d="M28.3562 1054.06 L28.3562 1048.2 L64.0042 1048.2 L64.0042 1054.06 L28.3562 1054.06 M14.479 1054.06 L14.479 1048.2 L21.895 1048.2 L21.895 1054.06 L14.479 1054.06 Z" fill="#000000" fill-rule="nonzero" fill-opacity="1" /><path clip-path="url(#clip420)" d="M32.4621 1022.14 Q32.4621 1026.85 36.1542 1029.58 Q39.8145 1032.32 46.212 1032.32 Q52.6095 1032.32 56.3017 1029.62 Q59.9619 1026.88 59.9619 1022.14 Q59.9619 1017.46 56.2698 1014.72 Q52.5777 1011.98 46.212 1011.98 Q39.8781 1011.98 36.186 1014.72 Q32.4621 1017.46 32.4621 1022.14 M27.4968 1022.14 Q27.4968 1014.5 32.4621 1010.14 Q37.4273 1005.78 46.212 1005.78 Q54.9649 1005.78 59.9619 1010.14 Q64.9272 1014.5 64.9272 1022.14 Q64.9272 1029.81 59.9619 1034.17 Q54.9649 1038.5 46.212 1038.5 Q37.4273 1038.5 32.4621 1034.17 Q27.4968 1029.81 27.4968 1022.14 Z" fill="#000000" fill-rule="nonzero" fill-opacity="1" /><path clip-path="url(#clip420)" d="M42.4881 966.435 L64.0042 966.435 L64.0042 972.292 L42.679 972.292 Q37.6183 972.292 35.1038 974.265 Q32.5894 976.239 32.5894 980.185 Q32.5894 984.928 35.6131 987.665 Q38.6368 990.402 43.8567 990.402 L64.0042 990.402 L64.0042 996.291 L28.3562 996.291 L28.3562 990.402 L33.8944 990.402 Q30.6797 988.302 29.0883 985.469 Q27.4968 982.604 27.4968 978.88 Q27.4968 972.738 31.3163 969.587 Q35.1038 966.435 42.4881 966.435 Z" fill="#000000" fill-rule="nonzero" fill-opacity="1" /><path clip-path="url(#clip420)" d="M46.0847 938.554 Q46.0847 945.651 47.7079 948.389 Q49.3312 951.126 53.2461 951.126 Q56.3653 951.126 58.2114 949.089 Q60.0256 947.02 60.0256 943.487 Q60.0256 938.617 56.5881 935.689 Q53.1188 932.729 47.3897 932.729 L46.0847 932.729 L46.0847 938.554 M43.6657 926.873 L64.0042 926.873 L64.0042 932.729 L58.5933 932.729 Q61.8398 934.734 63.3994 937.726 Q64.9272 940.718 64.9272 945.047 Q64.9272 950.521 61.8716 953.768 Q58.7843 956.982 53.6281 956.982 Q47.6125 956.982 44.5569 952.972 Q41.5014 948.93 41.5014 940.941 L41.5014 932.729 L40.9285 932.729 Q36.8862 932.729 34.6901 935.403 Q32.4621 938.044 32.4621 942.851 Q32.4621 945.906 33.1941 948.802 Q33.9262 951.699 35.3903 954.372 L29.9795 954.372 Q28.7381 951.158 28.1334 948.134 Q27.4968 945.11 27.4968 942.246 Q27.4968 934.511 31.5072 930.692 Q35.5176 926.873 43.6657 926.873 Z" fill="#000000" fill-rule="nonzero" fill-opacity="1" /><path clip-path="url(#clip420)" d="M33.8307 894.153 Q33.2578 895.14 33.0032 896.317 Q32.7167 897.463 32.7167 898.864 Q32.7167 903.829 35.9632 906.502 Q39.1779 909.144 45.2253 909.144 L64.0042 909.144 L64.0042 915.032 L28.3562 915.032 L28.3562 909.144 L33.8944 909.144 Q30.6479 907.298 29.0883 904.338 Q27.4968 901.378 27.4968 897.145 Q27.4968 896.54 27.5923 895.808 Q27.656 895.076 27.8151 894.185 L33.8307 894.153 Z" fill="#000000" fill-rule="nonzero" fill-opacity="1" /><path clip-path="url(#clip420)" d="M67.3143 873.178 Q73.68 875.661 75.6216 878.016 Q77.5631 880.371 77.5631 884.318 L77.5631 888.997 L72.6615 888.997 L72.6615 885.559 Q72.6615 883.14 71.5157 881.803 Q70.3699 880.467 66.1048 878.843 L63.4312 877.793 L28.3562 892.211 L28.3562 886.005 L56.238 874.865 L28.3562 863.725 L28.3562 857.518 L67.3143 873.178 Z" fill="#000000" fill-rule="nonzero" fill-opacity="1" /><path clip-path="url(#clip420)" d="M58.657 823.048 L77.5631 823.048 L77.5631 828.936 L28.3562 828.936 L28.3562 823.048 L33.7671 823.048 Q30.5842 821.202 29.0564 818.401 Q27.4968 815.568 27.4968 811.653 Q27.4968 805.16 32.6531 801.118 Q37.8093 797.044 46.212 797.044 Q54.6147 797.044 59.771 801.118 Q64.9272 805.16 64.9272 811.653 Q64.9272 815.568 63.3994 818.401 Q61.8398 821.202 58.657 823.048 M46.212 803.123 Q39.7508 803.123 36.0905 805.797 Q32.3984 808.439 32.3984 813.086 Q32.3984 817.733 36.0905 820.406 Q39.7508 823.048 46.212 823.048 Q52.6732 823.048 56.3653 820.406 Q60.0256 817.733 60.0256 813.086 Q60.0256 808.439 56.3653 805.797 Q52.6732 803.123 46.212 803.123 Z" fill="#000000" fill-rule="nonzero" fill-opacity="1" /><path clip-path="url(#clip420)" d="M33.8307 766.68 Q33.2578 767.666 33.0032 768.844 Q32.7167 769.99 32.7167 771.39 Q32.7167 776.355 35.9632 779.029 Q39.1779 781.671 45.2253 781.671 L64.0042 781.671 L64.0042 787.559 L28.3562 787.559 L28.3562 781.671 L33.8944 781.671 Q30.6479 779.825 29.0883 776.865 Q27.4968 773.905 27.4968 769.671 Q27.4968 769.067 27.5923 768.335 Q27.656 767.603 27.8151 766.711 L33.8307 766.68 Z" fill="#000000" fill-rule="nonzero" fill-opacity="1" /><path clip-path="url(#clip420)" d="M32.4621 748.155 Q32.4621 752.866 36.1542 755.603 Q39.8145 758.341 46.212 758.341 Q52.6095 758.341 56.3017 755.635 Q59.9619 752.898 59.9619 748.155 Q59.9619 743.477 56.2698 740.739 Q52.5777 738.002 46.212 738.002 Q39.8781 738.002 36.186 740.739 Q32.4621 743.477 32.4621 748.155 M27.4968 748.155 Q27.4968 740.517 32.4621 736.156 Q37.4273 731.796 46.212 731.796 Q54.9649 731.796 59.9619 736.156 Q64.9272 740.517 64.9272 748.155 Q64.9272 755.826 59.9619 760.187 Q54.9649 764.515 46.212 764.515 Q37.4273 764.515 32.4621 760.187 Q27.4968 755.826 27.4968 748.155 Z" fill="#000000" fill-rule="nonzero" fill-opacity="1" /><path clip-path="url(#clip420)" d="M46.212 696.498 Q39.7508 696.498 36.0905 699.171 Q32.3984 701.813 32.3984 706.46 Q32.3984 711.107 36.0905 713.781 Q39.7508 716.422 46.212 716.422 Q52.6732 716.422 56.3653 713.781 Q60.0256 711.107 60.0256 706.46 Q60.0256 701.813 56.3653 699.171 Q52.6732 696.498 46.212 696.498 M33.7671 716.422 Q30.5842 714.576 29.0564 711.775 Q27.4968 708.943 27.4968 705.028 Q27.4968 698.535 32.6531 694.492 Q37.8093 690.418 46.212 690.418 Q54.6147 690.418 59.771 694.492 Q64.9272 698.535 64.9272 705.028 Q64.9272 708.943 63.3994 711.775 Q61.8398 714.576 58.657 716.422 L64.0042 716.422 L64.0042 722.311 L14.479 722.311 L14.479 716.422 L33.7671 716.422 Z" fill="#000000" fill-rule="nonzero" fill-opacity="1" /><path clip-path="url(#clip420)" d="M46.0847 664.51 Q46.0847 671.608 47.7079 674.345 Q49.3312 677.082 53.2461 677.082 Q56.3653 677.082 58.2114 675.045 Q60.0256 672.976 60.0256 669.443 Q60.0256 664.574 56.5881 661.645 Q53.1188 658.685 47.3897 658.685 L46.0847 658.685 L46.0847 664.51 M43.6657 652.829 L64.0042 652.829 L64.0042 658.685 L58.5933 658.685 Q61.8398 660.691 63.3994 663.682 Q64.9272 666.674 64.9272 671.003 Q64.9272 676.478 61.8716 679.724 Q58.7843 682.939 53.6281 682.939 Q47.6125 682.939 44.5569 678.928 Q41.5014 674.886 41.5014 666.897 L41.5014 658.685 L40.9285 658.685 Q36.8862 658.685 34.6901 661.359 Q32.4621 664.001 32.4621 668.807 Q32.4621 671.862 33.1941 674.759 Q33.9262 677.655 35.3903 680.329 L29.9795 680.329 Q28.7381 677.114 28.1334 674.09 Q27.4968 671.067 27.4968 668.202 Q27.4968 660.468 31.5072 656.648 Q35.5176 652.829 43.6657 652.829 Z" fill="#000000" fill-rule="nonzero" fill-opacity="1" /><path clip-path="url(#clip420)" d="M46.212 615.176 Q39.7508 615.176 36.0905 617.849 Q32.3984 620.491 32.3984 625.138 Q32.3984 629.785 36.0905 632.459 Q39.7508 635.1 46.212 635.1 Q52.6732 635.1 56.3653 632.459 Q60.0256 629.785 60.0256 625.138 Q60.0256 620.491 56.3653 617.849 Q52.6732 615.176 46.212 615.176 M33.7671 635.1 Q30.5842 633.254 29.0564 630.453 Q27.4968 627.621 27.4968 623.706 Q27.4968 617.213 32.6531 613.171 Q37.8093 609.097 46.212 609.097 Q54.6147 609.097 59.771 613.171 Q64.9272 617.213 64.9272 623.706 Q64.9272 627.621 63.3994 630.453 Q61.8398 633.254 58.657 635.1 L64.0042 635.1 L64.0042 640.989 L14.479 640.989 L14.479 635.1 L33.7671 635.1 Z" fill="#000000" fill-rule="nonzero" fill-opacity="1" /><path clip-path="url(#clip420)" d="M28.3562 599.389 L28.3562 593.532 L64.0042 593.532 L64.0042 599.389 L28.3562 599.389 M14.479 599.389 L14.479 593.532 L21.895 593.532 L21.895 599.389 L14.479 599.389 Z" fill="#000000" fill-rule="nonzero" fill-opacity="1" /><path clip-path="url(#clip420)" d="M14.479 581.278 L14.479 575.422 L64.0042 575.422 L64.0042 581.278 L14.479 581.278 Z" fill="#000000" fill-rule="nonzero" fill-opacity="1" /><path clip-path="url(#clip420)" d="M28.3562 563.168 L28.3562 557.312 L64.0042 557.312 L64.0042 563.168 L28.3562 563.168 M14.479 563.168 L14.479 557.312 L21.895 557.312 L21.895 563.168 L14.479 563.168 Z" fill="#000000" fill-rule="nonzero" fill-opacity="1" /><path clip-path="url(#clip420)" d="M18.2347 539.265 L28.3562 539.265 L28.3562 527.202 L32.9077 527.202 L32.9077 539.265 L52.2594 539.265 Q56.6199 539.265 57.8613 538.087 Q59.1026 536.878 59.1026 533.217 L59.1026 527.202 L64.0042 527.202 L64.0042 533.217 Q64.0042 539.997 61.4897 542.575 Q58.9434 545.153 52.2594 545.153 L32.9077 545.153 L32.9077 549.45 L28.3562 549.45 L28.3562 545.153 L18.2347 545.153 L18.2347 539.265 Z" fill="#000000" fill-rule="nonzero" fill-opacity="1" /><path clip-path="url(#clip420)" d="M67.3143 504.667 Q73.68 507.15 75.6216 509.505 Q77.5631 511.86 77.5631 515.807 L77.5631 520.486 L72.6615 520.486 L72.6615 517.048 Q72.6615 514.629 71.5157 513.293 Q70.3699 511.956 66.1048 510.333 L63.4312 509.282 L28.3562 523.701 L28.3562 517.494 L56.238 506.354 L28.3562 495.214 L28.3562 489.007 L67.3143 504.667 Z" fill="#000000" fill-rule="nonzero" fill-opacity="1" /><path clip-path="url(#clip420)" d="M58.657 454.537 L77.5631 454.537 L77.5631 460.425 L28.3562 460.425 L28.3562 454.537 L33.7671 454.537 Q30.5842 452.691 29.0564 449.89 Q27.4968 447.057 27.4968 443.143 Q27.4968 436.65 32.6531 432.607 Q37.8093 428.533 46.212 428.533 Q54.6147 428.533 59.771 432.607 Q64.9272 436.65 64.9272 443.143 Q64.9272 447.057 63.3994 449.89 Q61.8398 452.691 58.657 454.537 M46.212 434.613 Q39.7508 434.613 36.0905 437.286 Q32.3984 439.928 32.3984 444.575 Q32.3984 449.222 36.0905 451.895 Q39.7508 454.537 46.212 454.537 Q52.6732 454.537 56.3653 451.895 Q60.0256 449.222 60.0256 444.575 Q60.0256 439.928 56.3653 437.286 Q52.6732 434.613 46.212 434.613 Z" fill="#000000" fill-rule="nonzero" fill-opacity="1" /><path clip-path="url(#clip420)" d="M28.3562 418.826 L28.3562 412.969 L64.0042 412.969 L64.0042 418.826 L28.3562 418.826 M14.479 418.826 L14.479 412.969 L21.895 412.969 L21.895 418.826 L14.479 418.826 Z" fill="#000000" fill-rule="nonzero" fill-opacity="1" /><path clip-path="url(#clip420)" d="M74.8259 373.629 L79.3773 373.629 L79.3773 407.495 L74.8259 407.495 L74.8259 373.629 Z" fill="#000000" fill-rule="nonzero" fill-opacity="1" /><path clip-path="url(#clip420)" d="M14.479 368.346 L14.479 362.457 L43.7294 362.457 L28.3562 344.983 L28.3562 337.504 L45.0344 356.41 L64.0042 336.708 L64.0042 344.347 L46.5939 362.457 L64.0042 362.457 L64.0042 368.346 L14.479 368.346 Z" fill="#000000" fill-rule="nonzero" fill-opacity="1" /><path clip-path="url(#clip420)" d="M363.706 9.05203 L363.706 14.1822 Q360.711 12.7499 358.055 12.0468 Q355.399 11.3437 352.925 11.3437 Q348.628 11.3437 346.284 13.0103 Q343.967 14.677 343.967 17.7499 Q343.967 20.328 345.503 21.6561 Q347.066 22.9582 351.388 23.7655 L354.565 24.4165 Q360.451 25.5363 363.237 28.3748 Q366.05 31.1873 366.05 35.9269 Q366.05 41.5779 362.248 44.4946 Q358.472 47.4112 351.154 47.4112 Q348.394 47.4112 345.269 46.7862 Q342.17 46.1612 338.836 44.9373 L338.836 39.5206 Q342.04 41.3175 345.112 42.2289 Q348.185 43.1404 351.154 43.1404 Q355.659 43.1404 358.107 41.3696 Q360.555 39.5987 360.555 36.3175 Q360.555 33.4529 358.784 31.8384 Q357.039 30.2238 353.029 29.4165 L349.826 28.7915 Q343.941 27.6196 341.31 25.1197 Q338.68 22.6197 338.68 18.1666 Q338.68 13.0103 342.3 10.0416 Q345.946 7.07288 352.326 7.07288 Q355.06 7.07288 357.899 7.56767 Q360.737 8.06246 363.706 9.05203 Z" fill="#000000" fill-rule="nonzero" fill-opacity="1" /><path clip-path="url(#clip420)" d="M378.784 9.20828 L378.784 17.4895 L388.654 17.4895 L388.654 21.2134 L378.784 21.2134 L378.784 37.0467 Q378.784 40.6144 379.748 41.63 Q380.737 42.6456 383.732 42.6456 L388.654 42.6456 L388.654 46.656 L383.732 46.656 Q378.185 46.656 376.076 44.5987 Q373.966 42.5154 373.966 37.0467 L373.966 21.2134 L370.451 21.2134 L370.451 17.4895 L373.966 17.4895 L373.966 9.20828 L378.784 9.20828 Z" fill="#000000" fill-rule="nonzero" fill-opacity="1" /><path clip-path="url(#clip420)" d="M408.211 31.9946 Q402.404 31.9946 400.164 33.3227 Q397.925 34.6509 397.925 37.854 Q397.925 40.406 399.591 41.9164 Q401.284 43.4008 404.175 43.4008 Q408.159 43.4008 410.555 40.5883 Q412.977 37.7498 412.977 33.0623 L412.977 31.9946 L408.211 31.9946 M417.768 30.0155 L417.768 46.656 L412.977 46.656 L412.977 42.2289 Q411.336 44.8852 408.888 46.1612 Q406.44 47.4112 402.899 47.4112 Q398.419 47.4112 395.763 44.9112 Q393.133 42.3852 393.133 38.1665 Q393.133 33.2446 396.414 30.7446 Q399.722 28.2446 406.258 28.2446 L412.977 28.2446 L412.977 27.7759 Q412.977 24.4686 410.789 22.6718 Q408.628 20.8488 404.695 20.8488 Q402.195 20.8488 399.826 21.4478 Q397.456 22.0468 395.268 23.2447 L395.268 18.8176 Q397.899 17.802 400.373 17.3072 Q402.846 16.7864 405.19 16.7864 Q411.518 16.7864 414.643 20.0676 Q417.768 23.3488 417.768 30.0155 Z" fill="#000000" fill-rule="nonzero" fill-opacity="1" /><path clip-path="url(#clip420)" d="M432.378 9.20828 L432.378 17.4895 L442.247 17.4895 L442.247 21.2134 L432.378 21.2134 L432.378 37.0467 Q432.378 40.6144 433.341 41.63 Q434.331 42.6456 437.325 42.6456 L442.247 42.6456 L442.247 46.656 L437.325 46.656 Q431.779 46.656 429.669 44.5987 Q427.56 42.5154 427.56 37.0467 L427.56 21.2134 L424.044 21.2134 L424.044 17.4895 L427.56 17.4895 L427.56 9.20828 L432.378 9.20828 Z" fill="#000000" fill-rule="nonzero" fill-opacity="1" /><path clip-path="url(#clip420)" d="M448.549 17.4895 L453.341 17.4895 L453.341 46.656 L448.549 46.656 L448.549 17.4895 M448.549 6.13538 L453.341 6.13538 L453.341 12.2031 L448.549 12.2031 L448.549 6.13538 Z" fill="#000000" fill-rule="nonzero" fill-opacity="1" /><path clip-path="url(#clip420)" d="M474.669 20.8488 Q470.815 20.8488 468.575 23.8697 Q466.336 26.8644 466.336 32.0988 Q466.336 37.3331 468.549 40.354 Q470.789 43.3487 474.669 43.3487 Q478.497 43.3487 480.737 40.3279 Q482.976 37.3071 482.976 32.0988 Q482.976 26.9165 480.737 23.8957 Q478.497 20.8488 474.669 20.8488 M474.669 16.7864 Q480.919 16.7864 484.487 20.8488 Q488.054 24.9113 488.054 32.0988 Q488.054 39.2602 484.487 43.3487 Q480.919 47.4112 474.669 47.4112 Q468.393 47.4112 464.825 43.3487 Q461.284 39.2602 461.284 32.0988 Q461.284 24.9113 464.825 20.8488 Q468.393 16.7864 474.669 16.7864 Z" fill="#000000" fill-rule="nonzero" fill-opacity="1" /><path clip-path="url(#clip420)" d="M520.242 29.0519 L520.242 46.656 L515.45 46.656 L515.45 29.2082 Q515.45 25.0676 513.835 23.0103 Q512.221 20.953 508.992 20.953 Q505.112 20.953 502.872 23.427 Q500.632 25.9009 500.632 30.1717 L500.632 46.656 L495.815 46.656 L495.815 17.4895 L500.632 17.4895 L500.632 22.0207 Q502.351 19.3905 504.669 18.0884 Q507.013 16.7864 510.059 16.7864 Q515.085 16.7864 517.664 19.9114 Q520.242 23.0103 520.242 29.0519 Z" fill="#000000" fill-rule="nonzero" fill-opacity="1" /><path clip-path="url(#clip420)" d="M543.054 31.9946 Q537.247 31.9946 535.007 33.3227 Q532.768 34.6509 532.768 37.854 Q532.768 40.406 534.434 41.9164 Q536.127 43.4008 539.018 43.4008 Q543.002 43.4008 545.398 40.5883 Q547.82 37.7498 547.82 33.0623 L547.82 31.9946 L543.054 31.9946 M552.611 30.0155 L552.611 46.656 L547.82 46.656 L547.82 42.2289 Q546.179 44.8852 543.731 46.1612 Q541.283 47.4112 537.742 47.4112 Q533.262 47.4112 530.606 44.9112 Q527.976 42.3852 527.976 38.1665 Q527.976 33.2446 531.257 30.7446 Q534.565 28.2446 541.101 28.2446 L547.82 28.2446 L547.82 27.7759 Q547.82 24.4686 545.632 22.6718 Q543.471 20.8488 539.538 20.8488 Q537.038 20.8488 534.669 21.4478 Q532.299 22.0468 530.111 23.2447 L530.111 18.8176 Q532.742 17.802 535.216 17.3072 Q537.69 16.7864 540.033 16.7864 Q546.361 16.7864 549.486 20.0676 Q552.611 23.3488 552.611 30.0155 Z" fill="#000000" fill-rule="nonzero" fill-opacity="1" /><path clip-path="url(#clip420)" d="M579.382 21.9686 Q578.575 21.4999 577.611 21.2916 Q576.674 21.0572 575.528 21.0572 Q571.465 21.0572 569.278 23.7134 Q567.116 26.3436 567.116 31.2915 L567.116 46.656 L562.299 46.656 L562.299 17.4895 L567.116 17.4895 L567.116 22.0207 Q568.627 19.3645 571.049 18.0884 Q573.471 16.7864 576.934 16.7864 Q577.429 16.7864 578.028 16.8645 Q578.627 16.9166 579.356 17.0468 L579.382 21.9686 Z" fill="#000000" fill-rule="nonzero" fill-opacity="1" /><path clip-path="url(#clip420)" d="M596.543 49.3643 Q594.512 54.5726 592.585 56.1612 Q590.658 57.7497 587.429 57.7497 L583.601 57.7497 L583.601 53.7393 L586.413 53.7393 Q588.392 53.7393 589.486 52.8018 Q590.58 51.8643 591.908 48.3747 L592.767 46.1873 L580.971 17.4895 L586.049 17.4895 L595.163 40.3019 L604.278 17.4895 L609.356 17.4895 L596.543 49.3643 Z" fill="#000000" fill-rule="nonzero" fill-opacity="1" /><path clip-path="url(#clip420)" d="M652.116 21.9165 L652.116 6.13538 L656.908 6.13538 L656.908 46.656 L652.116 46.656 L652.116 42.281 Q650.606 44.8852 648.288 46.1612 Q645.996 47.4112 642.767 47.4112 Q637.481 47.4112 634.147 43.1925 Q630.84 38.9737 630.84 32.0988 Q630.84 25.2238 634.147 21.0051 Q637.481 16.7864 642.767 16.7864 Q645.996 16.7864 648.288 18.0624 Q650.606 19.3124 652.116 21.9165 M635.788 32.0988 Q635.788 37.3852 637.949 40.406 Q640.137 43.4008 643.939 43.4008 Q647.741 43.4008 649.929 40.406 Q652.116 37.3852 652.116 32.0988 Q652.116 26.8124 649.929 23.8176 Q647.741 20.7968 643.939 20.7968 Q640.137 20.7968 637.949 23.8176 Q635.788 26.8124 635.788 32.0988 Z" fill="#000000" fill-rule="nonzero" fill-opacity="1" /><path clip-path="url(#clip420)" d="M666.777 17.4895 L671.569 17.4895 L671.569 46.656 L666.777 46.656 L666.777 17.4895 M666.777 6.13538 L671.569 6.13538 L671.569 12.2031 L666.777 12.2031 L666.777 6.13538 Z" fill="#000000" fill-rule="nonzero" fill-opacity="1" /><path clip-path="url(#clip420)" d="M700.189 18.3489 L700.189 22.8801 Q698.157 21.8384 695.97 21.3176 Q693.782 20.7968 691.439 20.7968 Q687.871 20.7968 686.074 21.8905 Q684.303 22.9843 684.303 25.1717 Q684.303 26.8384 685.579 27.8019 Q686.855 28.7394 690.71 29.5988 L692.35 29.9634 Q697.454 31.0571 699.59 33.0623 Q701.751 35.0415 701.751 38.6092 Q701.751 42.6716 698.522 45.0414 Q695.319 47.4112 689.694 47.4112 Q687.35 47.4112 684.798 46.9425 Q682.272 46.4998 679.46 45.5883 L679.46 40.6404 Q682.116 42.0206 684.694 42.7237 Q687.272 43.4008 689.798 43.4008 Q693.183 43.4008 695.006 42.255 Q696.829 41.0831 696.829 38.9737 Q696.829 37.0206 695.501 35.979 Q694.199 34.9373 689.746 33.9738 L688.079 33.5832 Q683.626 32.6457 681.647 30.7186 Q679.668 28.7655 679.668 25.3801 Q679.668 21.2655 682.585 19.0259 Q685.501 16.7864 690.866 16.7864 Q693.522 16.7864 695.866 17.177 Q698.209 17.5676 700.189 18.3489 Z" fill="#000000" fill-rule="nonzero" fill-opacity="1" /><path clip-path="url(#clip420)" d="M714.121 9.20828 L714.121 17.4895 L723.991 17.4895 L723.991 21.2134 L714.121 21.2134 L714.121 37.0467 Q714.121 40.6144 715.084 41.63 Q716.074 42.6456 719.069 42.6456 L723.991 42.6456 L723.991 46.656 L719.069 46.656 Q713.522 46.656 711.413 44.5987 Q709.303 42.5154 709.303 37.0467 L709.303 21.2134 L705.788 21.2134 L705.788 17.4895 L709.303 17.4895 L709.303 9.20828 L714.121 9.20828 Z" fill="#000000" fill-rule="nonzero" fill-opacity="1" /><path clip-path="url(#clip420)" d="M747.194 21.9686 Q746.386 21.4999 745.423 21.2916 Q744.485 21.0572 743.339 21.0572 Q739.277 21.0572 737.089 23.7134 Q734.928 26.3436 734.928 31.2915 L734.928 46.656 L730.11 46.656 L730.11 17.4895 L734.928 17.4895 L734.928 22.0207 Q736.438 19.3645 738.86 18.0884 Q741.282 16.7864 744.746 16.7864 Q745.24 16.7864 745.839 16.8645 Q746.438 16.9166 747.168 17.0468 L747.194 21.9686 Z" fill="#000000" fill-rule="nonzero" fill-opacity="1" /><path clip-path="url(#clip420)" d="M752.22 17.4895 L757.011 17.4895 L757.011 46.656 L752.22 46.656 L752.22 17.4895 M752.22 6.13538 L757.011 6.13538 L757.011 12.2031 L752.22 12.2031 L752.22 6.13538 Z" fill="#000000" fill-rule="nonzero" fill-opacity="1" /><path clip-path="url(#clip420)" d="M787.975 32.0988 Q787.975 26.8124 785.787 23.8176 Q783.626 20.7968 779.824 20.7968 Q776.022 20.7968 773.834 23.8176 Q771.673 26.8124 771.673 32.0988 Q771.673 37.3852 773.834 40.406 Q776.022 43.4008 779.824 43.4008 Q783.626 43.4008 785.787 40.406 Q787.975 37.3852 787.975 32.0988 M771.673 21.9165 Q773.183 19.3124 775.475 18.0624 Q777.792 16.7864 780.996 16.7864 Q786.308 16.7864 789.615 21.0051 Q792.949 25.2238 792.949 32.0988 Q792.949 38.9737 789.615 43.1925 Q786.308 47.4112 780.996 47.4112 Q777.792 47.4112 775.475 46.1612 Q773.183 44.8852 771.673 42.281 L771.673 46.656 L766.855 46.656 L766.855 6.13538 L771.673 6.13538 L771.673 21.9165 Z" fill="#000000" fill-rule="nonzero" fill-opacity="1" /><path clip-path="url(#clip420)" d="M800.396 35.1456 L800.396 17.4895 L805.188 17.4895 L805.188 34.9634 Q805.188 39.104 806.803 41.1873 Q808.417 43.2446 811.646 43.2446 Q815.527 43.2446 817.766 40.7706 Q820.032 38.2967 820.032 34.0259 L820.032 17.4895 L824.823 17.4895 L824.823 46.656 L820.032 46.656 L820.032 42.1769 Q818.287 44.8331 815.969 46.1352 Q813.678 47.4112 810.631 47.4112 Q805.605 47.4112 803.001 44.2862 Q800.396 41.1612 800.396 35.1456 M812.454 16.7864 L812.454 16.7864 Z" fill="#000000" fill-rule="nonzero" fill-opacity="1" /><path clip-path="url(#clip420)" d="M839.433 9.20828 L839.433 17.4895 L849.302 17.4895 L849.302 21.2134 L839.433 21.2134 L839.433 37.0467 Q839.433 40.6144 840.396 41.63 Q841.386 42.6456 844.381 42.6456 L849.302 42.6456 L849.302 46.656 L844.381 46.656 Q838.834 46.656 836.724 44.5987 Q834.615 42.5154 834.615 37.0467 L834.615 21.2134 L831.099 21.2134 L831.099 17.4895 L834.615 17.4895 L834.615 9.20828 L839.433 9.20828 Z" fill="#000000" fill-rule="nonzero" fill-opacity="1" /><path clip-path="url(#clip420)" d="M855.604 17.4895 L860.396 17.4895 L860.396 46.656 L855.604 46.656 L855.604 17.4895 M855.604 6.13538 L860.396 6.13538 L860.396 12.2031 L855.604 12.2031 L855.604 6.13538 Z" fill="#000000" fill-rule="nonzero" fill-opacity="1" /><path clip-path="url(#clip420)" d="M881.724 20.8488 Q877.87 20.8488 875.63 23.8697 Q873.391 26.8644 873.391 32.0988 Q873.391 37.3331 875.604 40.354 Q877.844 43.3487 881.724 43.3487 Q885.552 43.3487 887.792 40.3279 Q890.031 37.3071 890.031 32.0988 Q890.031 26.9165 887.792 23.8957 Q885.552 20.8488 881.724 20.8488 M881.724 16.7864 Q887.974 16.7864 891.542 20.8488 Q895.109 24.9113 895.109 32.0988 Q895.109 39.2602 891.542 43.3487 Q887.974 47.4112 881.724 47.4112 Q875.448 47.4112 871.88 43.3487 Q868.339 39.2602 868.339 32.0988 Q868.339 24.9113 871.88 20.8488 Q875.448 16.7864 881.724 16.7864 Z" fill="#000000" fill-rule="nonzero" fill-opacity="1" /><path clip-path="url(#clip420)" d="M927.297 29.0519 L927.297 46.656 L922.505 46.656 L922.505 29.2082 Q922.505 25.0676 920.891 23.0103 Q919.276 20.953 916.047 20.953 Q912.167 20.953 909.927 23.427 Q907.688 25.9009 907.688 30.1717 L907.688 46.656 L902.87 46.656 L902.87 17.4895 L907.688 17.4895 L907.688 22.0207 Q909.406 19.3905 911.724 18.0884 Q914.068 16.7864 917.115 16.7864 Q922.141 16.7864 924.719 19.9114 Q927.297 23.0103 927.297 29.0519 Z" fill="#000000" fill-rule="nonzero" fill-opacity="1" /><path clip-path="url(#clip420)" d="M958.442 42.281 L958.442 57.7497 L953.625 57.7497 L953.625 17.4895 L958.442 17.4895 L958.442 21.9165 Q959.953 19.3124 962.245 18.0624 Q964.562 16.7864 967.765 16.7864 Q973.078 16.7864 976.385 21.0051 Q979.718 25.2238 979.718 32.0988 Q979.718 38.9737 976.385 43.1925 Q973.078 47.4112 967.765 47.4112 Q964.562 47.4112 962.245 46.1612 Q959.953 44.8852 958.442 42.281 M974.744 32.0988 Q974.744 26.8124 972.557 23.8176 Q970.396 20.7968 966.593 20.7968 Q962.791 20.7968 960.604 23.8176 Q958.442 26.8124 958.442 32.0988 Q958.442 37.3852 960.604 40.406 Q962.791 43.4008 966.593 43.4008 Q970.396 43.4008 972.557 40.406 Q974.744 37.3852 974.744 32.0988 Z" fill="#000000" fill-rule="nonzero" fill-opacity="1" /><path clip-path="url(#clip420)" d="M987.661 17.4895 L992.453 17.4895 L992.453 46.656 L987.661 46.656 L987.661 17.4895 M987.661 6.13538 L992.453 6.13538 L992.453 12.2031 L987.661 12.2031 L987.661 6.13538 Z" fill="#000000" fill-rule="nonzero" fill-opacity="1" /><path clip-path="url(#clip420)" d="M1030.94 6.18747 Q1027.45 12.177 1025.76 18.0364 Q1024.07 23.8957 1024.07 29.9113 Q1024.07 35.9269 1025.76 41.8383 Q1027.48 47.7237 1030.94 53.6872 L1026.78 53.6872 Q1022.87 47.5675 1020.92 41.656 Q1018.99 35.7446 1018.99 29.9113 Q1018.99 24.104 1020.92 18.2187 Q1022.84 12.3333 1026.78 6.18747 L1030.94 6.18747 Z" fill="#000000" fill-rule="nonzero" fill-opacity="1" /><path clip-path="url(#clip420)" d="M1040.86 22.4374 L1074.25 22.4374 L1074.25 26.8124 L1040.86 26.8124 L1040.86 22.4374 M1040.86 33.0623 L1074.25 33.0623 L1074.25 37.4894 L1040.86 37.4894 L1040.86 33.0623 Z" fill="#000000" fill-rule="nonzero" fill-opacity="1" /><path clip-path="url(#clip420)" d="M1101.88 6.13538 L1106.67 6.13538 L1106.67 46.656 L1101.88 46.656 L1101.88 6.13538 Z" fill="#000000" fill-rule="nonzero" fill-opacity="1" /><path clip-path="url(#clip420)" d="M1141.64 30.8748 L1141.64 33.2186 L1119.61 33.2186 Q1119.93 38.1665 1122.58 40.7706 Q1125.26 43.3487 1130.03 43.3487 Q1132.79 43.3487 1135.37 42.6716 Q1137.97 41.9946 1140.52 40.6404 L1140.52 45.1716 Q1137.95 46.2654 1135.24 46.8383 Q1132.53 47.4112 1129.74 47.4112 Q1122.76 47.4112 1118.68 43.3487 Q1114.61 39.2862 1114.61 32.3592 Q1114.61 25.1978 1118.47 21.0051 Q1122.35 16.7864 1128.91 16.7864 Q1134.8 16.7864 1138.21 20.5884 Q1141.64 24.3645 1141.64 30.8748 M1136.85 29.4686 Q1136.8 25.5363 1134.64 23.1926 Q1132.5 20.8488 1128.96 20.8488 Q1124.95 20.8488 1122.53 23.1145 Q1120.13 25.3801 1119.77 29.4946 L1136.85 29.4686 Z" fill="#000000" fill-rule="nonzero" fill-opacity="1" /><path clip-path="url(#clip420)" d="M1164.27 6.13538 L1164.27 10.1197 L1159.69 10.1197 Q1157.11 10.1197 1156.1 11.1614 Q1155.11 12.2031 1155.11 14.9114 L1155.11 17.4895 L1163 17.4895 L1163 21.2134 L1155.11 21.2134 L1155.11 46.656 L1150.29 46.656 L1150.29 21.2134 L1145.71 21.2134 L1145.71 17.4895 L1150.29 17.4895 L1150.29 15.4583 Q1150.29 10.5885 1152.56 8.37496 Q1154.82 6.13538 1159.74 6.13538 L1164.27 6.13538 Z" fill="#000000" fill-rule="nonzero" fill-opacity="1" /><path clip-path="url(#clip420)" d="M1172.09 9.20828 L1172.09 17.4895 L1181.96 17.4895 L1181.96 21.2134 L1172.09 21.2134 L1172.09 37.0467 Q1172.09 40.6144 1173.05 41.63 Q1174.04 42.6456 1177.04 42.6456 L1181.96 42.6456 L1181.96 46.656 L1177.04 46.656 Q1171.49 46.656 1169.38 44.5987 Q1167.27 42.5154 1167.27 37.0467 L1167.27 21.2134 L1163.75 21.2134 L1163.75 17.4895 L1167.27 17.4895 L1167.27 9.20828 L1172.09 9.20828 Z" fill="#000000" fill-rule="nonzero" fill-opacity="1" /><path clip-path="url(#clip420)" d="M1230.16 30.8748 L1230.16 33.2186 L1208.13 33.2186 Q1208.44 38.1665 1211.1 40.7706 Q1213.78 43.3487 1218.55 43.3487 Q1221.31 43.3487 1223.88 42.6716 Q1226.49 41.9946 1229.04 40.6404 L1229.04 45.1716 Q1226.46 46.2654 1223.75 46.8383 Q1221.05 47.4112 1218.26 47.4112 Q1211.28 47.4112 1207.19 43.3487 Q1203.13 39.2862 1203.13 32.3592 Q1203.13 25.1978 1206.98 21.0051 Q1210.86 16.7864 1217.43 16.7864 Q1223.31 16.7864 1226.72 20.5884 Q1230.16 24.3645 1230.16 30.8748 M1225.37 29.4686 Q1225.32 25.5363 1223.15 23.1926 Q1221.02 20.8488 1217.48 20.8488 Q1213.47 20.8488 1211.05 23.1145 Q1208.65 25.3801 1208.28 29.4946 L1225.37 29.4686 Z" fill="#000000" fill-rule="nonzero" fill-opacity="1" /><path clip-path="url(#clip420)" d="M1238.02 17.4895 L1242.82 17.4895 L1242.82 46.656 L1238.02 46.656 L1238.02 17.4895 M1238.02 6.13538 L1242.82 6.13538 L1242.82 12.2031 L1238.02 12.2031 L1238.02 6.13538 Z" fill="#000000" fill-rule="nonzero" fill-opacity="1" /><path clip-path="url(#clip420)" d="M1272.03 31.7342 Q1272.03 26.5259 1269.87 23.6613 Q1267.74 20.7968 1263.86 20.7968 Q1260 20.7968 1257.84 23.6613 Q1255.71 26.5259 1255.71 31.7342 Q1255.71 36.9165 1257.84 39.781 Q1260 42.6456 1263.86 42.6456 Q1267.74 42.6456 1269.87 39.781 Q1272.03 36.9165 1272.03 31.7342 M1276.83 43.0362 Q1276.83 50.4841 1273.52 54.1039 Q1270.21 57.7497 1263.39 57.7497 Q1260.86 57.7497 1258.62 57.3591 Q1256.38 56.9945 1254.27 56.2132 L1254.27 51.5518 Q1256.38 52.6976 1258.44 53.2445 Q1260.5 53.7914 1262.63 53.7914 Q1267.35 53.7914 1269.69 51.3174 Q1272.03 48.8695 1272.03 43.8956 L1272.03 41.5258 Q1270.55 44.1039 1268.23 45.38 Q1265.91 46.656 1262.69 46.656 Q1257.32 46.656 1254.04 42.5675 Q1250.76 38.479 1250.76 31.7342 Q1250.76 24.9634 1254.04 20.8749 Q1257.32 16.7864 1262.69 16.7864 Q1265.91 16.7864 1268.23 18.0624 Q1270.55 19.3384 1272.03 21.9165 L1272.03 17.4895 L1276.83 17.4895 L1276.83 43.0362 Z" fill="#000000" fill-rule="nonzero" fill-opacity="1" /><path clip-path="url(#clip420)" d="M1311.64 30.8748 L1311.64 33.2186 L1289.61 33.2186 Q1289.93 38.1665 1292.58 40.7706 Q1295.26 43.3487 1300.03 43.3487 Q1302.79 43.3487 1305.37 42.6716 Q1307.97 41.9946 1310.52 40.6404 L1310.52 45.1716 Q1307.95 46.2654 1305.24 46.8383 Q1302.53 47.4112 1299.74 47.4112 Q1292.76 47.4112 1288.68 43.3487 Q1284.61 39.2862 1284.61 32.3592 Q1284.61 25.1978 1288.47 21.0051 Q1292.35 16.7864 1298.91 16.7864 Q1304.79 16.7864 1308.21 20.5884 Q1311.64 24.3645 1311.64 30.8748 M1306.85 29.4686 Q1306.8 25.5363 1304.64 23.1926 Q1302.5 20.8488 1298.96 20.8488 Q1294.95 20.8488 1292.53 23.1145 Q1290.13 25.3801 1289.77 29.4946 L1306.85 29.4686 Z" fill="#000000" fill-rule="nonzero" fill-opacity="1" /><path clip-path="url(#clip420)" d="M1343.75 29.0519 L1343.75 46.656 L1338.96 46.656 L1338.96 29.2082 Q1338.96 25.0676 1337.35 23.0103 Q1335.73 20.953 1332.5 20.953 Q1328.62 20.953 1326.38 23.427 Q1324.14 25.9009 1324.14 30.1717 L1324.14 46.656 L1319.33 46.656 L1319.33 17.4895 L1324.14 17.4895 L1324.14 22.0207 Q1325.86 19.3905 1328.18 18.0884 Q1330.52 16.7864 1333.57 16.7864 Q1338.6 16.7864 1341.17 19.9114 Q1343.75 23.0103 1343.75 29.0519 Z" fill="#000000" fill-rule="nonzero" fill-opacity="1" /><path clip-path="url(#clip420)" d="M1349.87 17.4895 L1354.95 17.4895 L1364.07 41.9685 L1373.18 17.4895 L1378.26 17.4895 L1367.32 46.656 L1360.81 46.656 L1349.87 17.4895 Z" fill="#000000" fill-rule="nonzero" fill-opacity="1" /><path clip-path="url(#clip420)" d="M1409.82 30.8748 L1409.82 33.2186 L1387.79 33.2186 Q1388.1 38.1665 1390.76 40.7706 Q1393.44 43.3487 1398.21 43.3487 Q1400.97 43.3487 1403.54 42.6716 Q1406.15 41.9946 1408.7 40.6404 L1408.7 45.1716 Q1406.12 46.2654 1403.41 46.8383 Q1400.71 47.4112 1397.92 47.4112 Q1390.94 47.4112 1386.85 43.3487 Q1382.79 39.2862 1382.79 32.3592 Q1382.79 25.1978 1386.64 21.0051 Q1390.52 16.7864 1397.09 16.7864 Q1402.97 16.7864 1406.38 20.5884 Q1409.82 24.3645 1409.82 30.8748 M1405.03 29.4686 Q1404.98 25.5363 1402.82 23.1926 Q1400.68 20.8488 1397.14 20.8488 Q1393.13 20.8488 1390.71 23.1145 Q1388.31 25.3801 1387.95 29.4946 L1405.03 29.4686 Z" fill="#000000" fill-rule="nonzero" fill-opacity="1" /><path clip-path="url(#clip420)" d="M1438.67 18.6093 L1438.67 23.0884 Q1436.64 21.9686 1434.59 21.4218 Q1432.55 20.8488 1430.47 20.8488 Q1425.81 20.8488 1423.23 23.8176 Q1420.65 26.7603 1420.65 32.0988 Q1420.65 37.4373 1423.23 40.406 Q1425.81 43.3487 1430.47 43.3487 Q1432.55 43.3487 1434.59 42.8019 Q1436.64 42.2289 1438.67 41.1092 L1438.67 45.5362 Q1436.67 46.4737 1434.51 46.9425 Q1432.37 47.4112 1429.95 47.4112 Q1423.36 47.4112 1419.48 43.2706 Q1415.6 39.13 1415.6 32.0988 Q1415.6 24.9634 1419.51 20.8749 Q1423.44 16.7864 1430.26 16.7864 Q1432.48 16.7864 1434.59 17.2551 Q1436.7 17.6978 1438.67 18.6093 Z" fill="#000000" fill-rule="nonzero" fill-opacity="1" /><path clip-path="url(#clip420)" d="M1451.75 9.20828 L1451.75 17.4895 L1461.62 17.4895 L1461.62 21.2134 L1451.75 21.2134 L1451.75 37.0467 Q1451.75 40.6144 1452.71 41.63 Q1453.7 42.6456 1456.7 42.6456 L1461.62 42.6456 L1461.62 46.656 L1456.7 46.656 Q1451.15 46.656 1449.04 44.5987 Q1446.93 42.5154 1446.93 37.0467 L1446.93 21.2134 L1443.41 21.2134 L1443.41 17.4895 L1446.93 17.4895 L1446.93 9.20828 L1451.75 9.20828 Z" fill="#000000" fill-rule="nonzero" fill-opacity="1" /><path clip-path="url(#clip420)" d="M1479.22 20.8488 Q1475.37 20.8488 1473.13 23.8697 Q1470.89 26.8644 1470.89 32.0988 Q1470.89 37.3331 1473.1 40.354 Q1475.34 43.3487 1479.22 43.3487 Q1483.05 43.3487 1485.29 40.3279 Q1487.53 37.3071 1487.53 32.0988 Q1487.53 26.9165 1485.29 23.8957 Q1483.05 20.8488 1479.22 20.8488 M1479.22 16.7864 Q1485.47 16.7864 1489.04 20.8488 Q1492.61 24.9113 1492.61 32.0988 Q1492.61 39.2602 1489.04 43.3487 Q1485.47 47.4112 1479.22 47.4112 Q1472.94 47.4112 1469.38 43.3487 Q1465.84 39.2602 1465.84 32.0988 Q1465.84 24.9113 1469.38 20.8488 Q1472.94 16.7864 1479.22 16.7864 Z" fill="#000000" fill-rule="nonzero" fill-opacity="1" /><path clip-path="url(#clip420)" d="M1517.45 21.9686 Q1516.64 21.4999 1515.68 21.2916 Q1514.74 21.0572 1513.6 21.0572 Q1509.53 21.0572 1507.35 23.7134 Q1505.18 26.3436 1505.18 31.2915 L1505.18 46.656 L1500.37 46.656 L1500.37 17.4895 L1505.18 17.4895 L1505.18 22.0207 Q1506.69 19.3645 1509.12 18.0884 Q1511.54 16.7864 1515 16.7864 Q1515.5 16.7864 1516.1 16.8645 Q1516.69 16.9166 1517.42 17.0468 L1517.45 21.9686 Z" fill="#000000" fill-rule="nonzero" fill-opacity="1" /><path clip-path="url(#clip420)" d="M1550.73 20.8488 Q1546.88 20.8488 1544.64 23.8697 Q1542.4 26.8644 1542.4 32.0988 Q1542.4 37.3331 1544.61 40.354 Q1546.85 43.3487 1550.73 43.3487 Q1554.56 43.3487 1556.8 40.3279 Q1559.04 37.3071 1559.04 32.0988 Q1559.04 26.9165 1556.8 23.8957 Q1554.56 20.8488 1550.73 20.8488 M1550.73 16.7864 Q1556.98 16.7864 1560.55 20.8488 Q1564.12 24.9113 1564.12 32.0988 Q1564.12 39.2602 1560.55 43.3487 Q1556.98 47.4112 1550.73 47.4112 Q1544.45 47.4112 1540.89 43.3487 Q1537.35 39.2602 1537.35 32.0988 Q1537.35 24.9113 1540.89 20.8488 Q1544.45 16.7864 1550.73 16.7864 Z" fill="#000000" fill-rule="nonzero" fill-opacity="1" /><path clip-path="url(#clip420)" d="M1586.82 6.13538 L1586.82 10.1197 L1582.24 10.1197 Q1579.66 10.1197 1578.65 11.1614 Q1577.66 12.2031 1577.66 14.9114 L1577.66 17.4895 L1585.55 17.4895 L1585.55 21.2134 L1577.66 21.2134 L1577.66 46.656 L1572.84 46.656 L1572.84 21.2134 L1568.26 21.2134 L1568.26 17.4895 L1572.84 17.4895 L1572.84 15.4583 Q1572.84 10.5885 1575.11 8.37496 Q1577.37 6.13538 1582.29 6.13538 L1586.82 6.13538 Z" fill="#000000" fill-rule="nonzero" fill-opacity="1" /><path clip-path="url(#clip420)" d="M1602.61 7.776 L1635.5 7.776 L1635.5 12.2031 L1621.69 12.2031 L1621.69 46.656 L1616.41 46.656 L1616.41 12.2031 L1602.61 12.2031 L1602.61 7.776 Z" fill="#000000" fill-rule="nonzero" fill-opacity="1" /><path clip-path="url(#clip420)" d="M1639.61 6.18747 L1643.78 6.18747 Q1647.68 12.3333 1649.61 18.2187 Q1651.56 24.104 1651.56 29.9113 Q1651.56 35.7446 1649.61 41.656 Q1647.68 47.5675 1643.78 53.6872 L1639.61 53.6872 Q1643.07 47.7237 1644.77 41.8383 Q1646.49 35.9269 1646.49 29.9113 Q1646.49 23.8957 1644.77 18.0364 Q1643.07 12.177 1639.61 6.18747 Z" fill="#000000" fill-rule="nonzero" fill-opacity="1" /><path clip-path="url(#clip420)" d="M1684.3 5.90101 L1684.3 59.2341 L1679.87 59.2341 L1679.87 5.90101 L1684.3 5.90101 Z" fill="#000000" fill-rule="nonzero" fill-opacity="1" /><path clip-path="url(#clip420)" d="M1736.56 9.05203 L1736.56 14.1822 Q1733.57 12.7499 1730.91 12.0468 Q1728.26 11.3437 1725.78 11.3437 Q1721.49 11.3437 1719.14 13.0103 Q1716.82 14.677 1716.82 17.7499 Q1716.82 20.328 1718.36 21.6561 Q1719.92 22.9582 1724.25 23.7655 L1727.42 24.4165 Q1733.31 25.5363 1736.09 28.3748 Q1738.91 31.1873 1738.91 35.9269 Q1738.91 41.5779 1735.1 44.4946 Q1731.33 47.4112 1724.01 47.4112 Q1721.25 47.4112 1718.13 46.7862 Q1715.03 46.1612 1711.69 44.9373 L1711.69 39.5206 Q1714.9 41.3175 1717.97 42.2289 Q1721.04 43.1404 1724.01 43.1404 Q1728.52 43.1404 1730.96 41.3696 Q1733.41 39.5987 1733.41 36.3175 Q1733.41 33.4529 1731.64 31.8384 Q1729.9 30.2238 1725.89 29.4165 L1722.68 28.7915 Q1716.8 27.6196 1714.17 25.1197 Q1711.54 22.6197 1711.54 18.1666 Q1711.54 13.0103 1715.16 10.0416 Q1718.8 7.07288 1725.18 7.07288 Q1727.92 7.07288 1730.76 7.56767 Q1733.59 8.06246 1736.56 9.05203 Z" fill="#000000" fill-rule="nonzero" fill-opacity="1" /><path clip-path="url(#clip420)" d="M1752.37 12.0989 L1752.37 26.7082 L1758.99 26.7082 Q1762.66 26.7082 1764.66 24.8072 Q1766.67 22.9061 1766.67 19.3905 Q1766.67 15.901 1764.66 13.9999 Q1762.66 12.0989 1758.99 12.0989 L1752.37 12.0989 M1747.11 7.776 L1758.99 7.776 Q1765.52 7.776 1768.85 10.7447 Q1772.21 13.6874 1772.21 19.3905 Q1772.21 25.1457 1768.85 28.0884 Q1765.52 31.0311 1758.99 31.0311 L1752.37 31.0311 L1752.37 46.656 L1747.11 46.656 L1747.11 7.776 Z" fill="#000000" fill-rule="nonzero" fill-opacity="1" /><path clip-path="url(#clip420)" d="M1772.76 7.776 L1778.41 7.776 L1789.19 23.7655 L1799.9 7.776 L1805.55 7.776 L1791.8 28.1405 L1791.8 46.656 L1786.51 46.656 L1786.51 28.1405 L1772.76 7.776 Z" fill="#000000" fill-rule="nonzero" fill-opacity="1" /><path clip-path="url(#clip420)" d="M1833.59 5.90101 L1833.59 59.2341 L1829.17 59.2341 L1829.17 5.90101 L1833.59 5.90101 Z" fill="#000000" fill-rule="nonzero" fill-opacity="1" /><path clip-path="url(#clip420)" d="M1891.67 10.7708 L1891.67 16.3176 Q1889.01 13.8437 1885.99 12.6197 Q1882.99 11.3958 1879.61 11.3958 Q1872.94 11.3958 1869.4 15.4843 Q1865.86 19.5468 1865.86 27.2551 Q1865.86 34.9373 1869.4 39.0258 Q1872.94 43.0883 1879.61 43.0883 Q1882.99 43.0883 1885.99 41.8644 Q1889.01 40.6404 1891.67 38.1665 L1891.67 43.6612 Q1888.91 45.5362 1885.81 46.4737 Q1882.73 47.4112 1879.3 47.4112 Q1870.47 47.4112 1865.39 42.0206 Q1860.31 36.604 1860.31 27.2551 Q1860.31 17.8801 1865.39 12.4895 Q1870.47 7.07288 1879.3 7.07288 Q1882.79 7.07288 1885.86 8.01037 Q1888.96 8.92183 1891.67 10.7708 Z" fill="#000000" fill-rule="nonzero" fill-opacity="1" /><path clip-path="url(#clip420)" d="M1899.79 7.776 L1905.05 7.776 L1905.05 23.7134 L1924.17 23.7134 L1924.17 7.776 L1929.43 7.776 L1929.43 46.656 L1924.17 46.656 L1924.17 28.1405 L1905.05 28.1405 L1905.05 46.656 L1899.79 46.656 L1899.79 7.776 Z" fill="#000000" fill-rule="nonzero" fill-opacity="1" /><path clip-path="url(#clip420)" d="M1939.9 7.776 L1947.73 7.776 L1957.66 34.2342 L1967.63 7.776 L1975.47 7.776 L1975.47 46.656 L1970.34 46.656 L1970.34 12.5156 L1960.31 39.1821 L1955.03 39.1821 L1945 12.5156 L1945 46.656 L1939.9 46.656 L1939.9 7.776 Z" fill="#000000" fill-rule="nonzero" fill-opacity="1" /><path clip-path="url(#clip420)" d="M1985.91 7.776 L1993.75 7.776 L2003.67 34.2342 L2013.65 7.776 L2021.48 7.776 L2021.48 46.656 L2016.35 46.656 L2016.35 12.5156 L2006.33 39.1821 L2001.04 39.1821 L1991.02 12.5156 L1991.02 46.656 L1985.91 46.656 L1985.91 7.776 Z" fill="#000000" fill-rule="nonzero" fill-opacity="1" /><path clip-path="url(#clip420)" d="M2029.3 29.9113 L2043.33 29.9113 L2043.33 34.1821 L2029.3 34.1821 L2029.3 29.9113 Z" fill="#000000" fill-rule="nonzero" fill-opacity="1" /><path clip-path="url(#clip420)" d="M2051.17 7.776 L2058.25 7.776 L2075.49 40.3019 L2075.49 7.776 L2080.6 7.776 L2080.6 46.656 L2073.51 46.656 L2056.28 14.1301 L2056.28 46.656 L2051.17 46.656 L2051.17 7.776 Z" fill="#000000" fill-rule="nonzero" fill-opacity="1" /><path clip-path="url(#clip420)" d="M2092.08 40.0415 L2097.58 40.0415 L2097.58 44.5206 L2093.31 52.8539 L2089.95 52.8539 L2092.08 44.5206 L2092.08 40.0415 Z" fill="#000000" fill-rule="nonzero" fill-opacity="1" /><path clip-path="url(#clip420)" d="M2124.97 7.776 L2130.23 7.776 L2130.23 24.2082 L2147.68 7.776 L2154.45 7.776 L2135.15 25.9009 L2155.83 46.656 L2148.9 46.656 L2130.23 27.9321 L2130.23 46.656 L2124.97 46.656 L2124.97 7.776 Z" fill="#000000" fill-rule="nonzero" fill-opacity="1" /><path clip-path="url(#clip420)" d="M2160.36 22.4374 L2193.75 22.4374 L2193.75 26.8124 L2160.36 26.8124 L2160.36 22.4374 M2160.36 33.0623 L2193.75 33.0623 L2193.75 37.4894 L2160.36 37.4894 L2160.36 33.0623 Z" fill="#000000" fill-rule="nonzero" fill-opacity="1" /><path clip-path="url(#clip420)" d="M2206.01 42.2289 L2214.61 42.2289 L2214.61 12.5676 L2205.26 14.4426 L2205.26 9.65099 L2214.56 7.776 L2219.82 7.776 L2219.82 42.2289 L2228.41 42.2289 L2228.41 46.656 L2206.01 46.656 L2206.01 42.2289 Z" fill="#000000" fill-rule="nonzero" fill-opacity="1" /><path clip-path="url(#clip420)" d="M2250.28 28.1926 Q2246.53 28.1926 2244.37 30.1978 Q2242.24 32.203 2242.24 35.7186 Q2242.24 39.2342 2244.37 41.2394 Q2246.53 43.2446 2250.28 43.2446 Q2254.03 43.2446 2256.2 41.2394 Q2258.36 39.2081 2258.36 35.7186 Q2258.36 32.203 2256.2 30.1978 Q2254.06 28.1926 2250.28 28.1926 M2245.02 25.953 Q2241.64 25.1197 2239.74 22.802 Q2237.86 20.4843 2237.86 17.1509 Q2237.86 12.4895 2241.17 9.7812 Q2244.5 7.07288 2250.28 7.07288 Q2256.09 7.07288 2259.4 9.7812 Q2262.71 12.4895 2262.71 17.1509 Q2262.71 20.4843 2260.81 22.802 Q2258.93 25.1197 2255.57 25.953 Q2259.37 26.8384 2261.48 29.4165 Q2263.62 31.9946 2263.62 35.7186 Q2263.62 41.3696 2260.15 44.3904 Q2256.72 47.4112 2250.28 47.4112 Q2243.85 47.4112 2240.39 44.3904 Q2236.95 41.3696 2236.95 35.7186 Q2236.95 31.9946 2239.09 29.4165 Q2241.22 26.8384 2245.02 25.953 M2243.1 17.6457 Q2243.1 20.6666 2244.97 22.3593 Q2246.87 24.052 2250.28 24.052 Q2253.67 24.052 2255.57 22.3593 Q2257.5 20.6666 2257.5 17.6457 Q2257.5 14.6249 2255.57 12.9322 Q2253.67 11.2395 2250.28 11.2395 Q2246.87 11.2395 2244.97 12.9322 Q2243.1 14.6249 2243.1 17.6457 Z" fill="#000000" fill-rule="nonzero" fill-opacity="1" /><path clip-path="url(#clip422)" d="M365.223 1041.37 L365.223 1423.18 L449.351 1423.18 L449.351 1041.37 L365.223 1041.37 L365.223 1041.37  Z" fill="#4682b4" fill-rule="evenodd" fill-opacity="0.7"/>
<polyline clip-path="url(#clip422)" style="stroke:#000000; stroke-linecap:round; stroke-linejoin:round; stroke-width:4; stroke-opacity:0.7; fill:none" points="365.223,1041.37 365.223,1423.18 449.351,1423.18 449.351,1041.37 365.223,1041.37 "/>
<path clip-path="url(#clip422)" d="M470.383 1317.91 L470.383 1423.18 L554.511 1423.18 L554.511 1317.91 L470.383 1317.91 L470.383 1317.91  Z" fill="#4682b4" fill-rule="evenodd" fill-opacity="0.7"/>
<polyline clip-path="url(#clip422)" style="stroke:#000000; stroke-linecap:round; stroke-linejoin:round; stroke-width:4; stroke-opacity:0.7; fill:none" points="470.383,1317.91 470.383,1423.18 554.511,1423.18 554.511,1317.91 470.383,1317.91 "/>
<path clip-path="url(#clip422)" d="M575.543 1291.59 L575.543 1423.18 L659.671 1423.18 L659.671 1291.59 L575.543 1291.59 L575.543 1291.59  Z" fill="#4682b4" fill-rule="evenodd" fill-opacity="0.7"/>
<polyline clip-path="url(#clip422)" style="stroke:#000000; stroke-linecap:round; stroke-linejoin:round; stroke-width:4; stroke-opacity:0.7; fill:none" points="575.543,1291.59 575.543,1423.18 659.671,1423.18 659.671,1291.59 575.543,1291.59 "/>
<path clip-path="url(#clip422)" d="M680.703 1292.35 L680.703 1423.18 L764.832 1423.18 L764.832 1292.35 L680.703 1292.35 L680.703 1292.35  Z" fill="#4682b4" fill-rule="evenodd" fill-opacity="0.7"/>
<polyline clip-path="url(#clip422)" style="stroke:#000000; stroke-linecap:round; stroke-linejoin:round; stroke-width:4; stroke-opacity:0.7; fill:none" points="680.703,1292.35 680.703,1423.18 764.832,1423.18 764.832,1292.35 680.703,1292.35 "/>
<path clip-path="url(#clip422)" d="M785.864 1305.31 L785.864 1423.18 L869.992 1423.18 L869.992 1305.31 L785.864 1305.31 L785.864 1305.31  Z" fill="#4682b4" fill-rule="evenodd" fill-opacity="0.7"/>
<polyline clip-path="url(#clip422)" style="stroke:#000000; stroke-linecap:round; stroke-linejoin:round; stroke-width:4; stroke-opacity:0.7; fill:none" points="785.864,1305.31 785.864,1423.18 869.992,1423.18 869.992,1305.31 785.864,1305.31 "/>
<path clip-path="url(#clip422)" d="M891.024 1195.43 L891.024 1423.18 L975.152 1423.18 L975.152 1195.43 L891.024 1195.43 L891.024 1195.43  Z" fill="#4682b4" fill-rule="evenodd" fill-opacity="0.7"/>
<polyline clip-path="url(#clip422)" style="stroke:#000000; stroke-linecap:round; stroke-linejoin:round; stroke-width:4; stroke-opacity:0.7; fill:none" points="891.024,1195.43 891.024,1423.18 975.152,1423.18 975.152,1195.43 891.024,1195.43 "/>
<path clip-path="url(#clip422)" d="M996.184 1193.13 L996.184 1423.18 L1080.31 1423.18 L1080.31 1193.13 L996.184 1193.13 L996.184 1193.13  Z" fill="#4682b4" fill-rule="evenodd" fill-opacity="0.7"/>
<polyline clip-path="url(#clip422)" style="stroke:#000000; stroke-linecap:round; stroke-linejoin:round; stroke-width:4; stroke-opacity:0.7; fill:none" points="996.184,1193.13 996.184,1423.18 1080.31,1423.18 1080.31,1193.13 996.184,1193.13 "/>
<path clip-path="url(#clip422)" d="M1101.34 1272.5 L1101.34 1423.18 L1185.47 1423.18 L1185.47 1272.5 L1101.34 1272.5 L1101.34 1272.5  Z" fill="#4682b4" fill-rule="evenodd" fill-opacity="0.7"/>
<polyline clip-path="url(#clip422)" style="stroke:#000000; stroke-linecap:round; stroke-linejoin:round; stroke-width:4; stroke-opacity:0.7; fill:none" points="1101.34,1272.5 1101.34,1423.18 1185.47,1423.18 1185.47,1272.5 1101.34,1272.5 "/>
<path clip-path="url(#clip422)" d="M1206.5 1270.02 L1206.5 1423.18 L1290.63 1423.18 L1290.63 1270.02 L1206.5 1270.02 L1206.5 1270.02  Z" fill="#4682b4" fill-rule="evenodd" fill-opacity="0.7"/>
<polyline clip-path="url(#clip422)" style="stroke:#000000; stroke-linecap:round; stroke-linejoin:round; stroke-width:4; stroke-opacity:0.7; fill:none" points="1206.5,1270.02 1206.5,1423.18 1290.63,1423.18 1290.63,1270.02 1206.5,1270.02 "/>
<path clip-path="url(#clip422)" d="M1311.66 1161.41 L1311.66 1423.18 L1395.79 1423.18 L1395.79 1161.41 L1311.66 1161.41 L1311.66 1161.41  Z" fill="#4682b4" fill-rule="evenodd" fill-opacity="0.7"/>
<polyline clip-path="url(#clip422)" style="stroke:#000000; stroke-linecap:round; stroke-linejoin:round; stroke-width:4; stroke-opacity:0.7; fill:none" points="1311.66,1161.41 1311.66,1423.18 1395.79,1423.18 1395.79,1161.41 1311.66,1161.41 "/>
<path clip-path="url(#clip422)" d="M1416.83 1231.39 L1416.83 1423.18 L1500.95 1423.18 L1500.95 1231.39 L1416.83 1231.39 L1416.83 1231.39  Z" fill="#4682b4" fill-rule="evenodd" fill-opacity="0.7"/>
<polyline clip-path="url(#clip422)" style="stroke:#000000; stroke-linecap:round; stroke-linejoin:round; stroke-width:4; stroke-opacity:0.7; fill:none" points="1416.83,1231.39 1416.83,1423.18 1500.95,1423.18 1500.95,1231.39 1416.83,1231.39 "/>
<path clip-path="url(#clip422)" d="M1521.99 1191.43 L1521.99 1423.18 L1606.11 1423.18 L1606.11 1191.43 L1521.99 1191.43 L1521.99 1191.43  Z" fill="#4682b4" fill-rule="evenodd" fill-opacity="0.7"/>
<polyline clip-path="url(#clip422)" style="stroke:#000000; stroke-linecap:round; stroke-linejoin:round; stroke-width:4; stroke-opacity:0.7; fill:none" points="1521.99,1191.43 1521.99,1423.18 1606.11,1423.18 1606.11,1191.43 1521.99,1191.43 "/>
<path clip-path="url(#clip422)" d="M1627.15 1299.57 L1627.15 1423.18 L1711.27 1423.18 L1711.27 1299.57 L1627.15 1299.57 L1627.15 1299.57  Z" fill="#4682b4" fill-rule="evenodd" fill-opacity="0.7"/>
<polyline clip-path="url(#clip422)" style="stroke:#000000; stroke-linecap:round; stroke-linejoin:round; stroke-width:4; stroke-opacity:0.7; fill:none" points="1627.15,1299.57 1627.15,1423.18 1711.27,1423.18 1711.27,1299.57 1627.15,1299.57 "/>
<path clip-path="url(#clip422)" d="M1732.31 1184.8 L1732.31 1423.18 L1816.43 1423.18 L1816.43 1184.8 L1732.31 1184.8 L1732.31 1184.8  Z" fill="#4682b4" fill-rule="evenodd" fill-opacity="0.7"/>
<polyline clip-path="url(#clip422)" style="stroke:#000000; stroke-linecap:round; stroke-linejoin:round; stroke-width:4; stroke-opacity:0.7; fill:none" points="1732.31,1184.8 1732.31,1423.18 1816.43,1423.18 1816.43,1184.8 1732.31,1184.8 "/>
<path clip-path="url(#clip422)" d="M1837.47 1253.4 L1837.47 1423.18 L1921.59 1423.18 L1921.59 1253.4 L1837.47 1253.4 L1837.47 1253.4  Z" fill="#4682b4" fill-rule="evenodd" fill-opacity="0.7"/>
<polyline clip-path="url(#clip422)" style="stroke:#000000; stroke-linecap:round; stroke-linejoin:round; stroke-width:4; stroke-opacity:0.7; fill:none" points="1837.47,1253.4 1837.47,1423.18 1921.59,1423.18 1921.59,1253.4 1837.47,1253.4 "/>
<path clip-path="url(#clip422)" d="M1942.63 1252.85 L1942.63 1423.18 L2026.75 1423.18 L2026.75 1252.85 L1942.63 1252.85 L1942.63 1252.85  Z" fill="#4682b4" fill-rule="evenodd" fill-opacity="0.7"/>
<polyline clip-path="url(#clip422)" style="stroke:#000000; stroke-linecap:round; stroke-linejoin:round; stroke-width:4; stroke-opacity:0.7; fill:none" points="1942.63,1252.85 1942.63,1423.18 2026.75,1423.18 2026.75,1252.85 1942.63,1252.85 "/>
<path clip-path="url(#clip422)" d="M2047.79 1290.75 L2047.79 1423.18 L2131.92 1423.18 L2131.92 1290.75 L2047.79 1290.75 L2047.79 1290.75  Z" fill="#4682b4" fill-rule="evenodd" fill-opacity="0.7"/>
<polyline clip-path="url(#clip422)" style="stroke:#000000; stroke-linecap:round; stroke-linejoin:round; stroke-width:4; stroke-opacity:0.7; fill:none" points="2047.79,1290.75 2047.79,1423.18 2131.92,1423.18 2131.92,1290.75 2047.79,1290.75 "/>
<path clip-path="url(#clip422)" d="M2152.95 101.872 L2152.95 1423.18 L2237.08 1423.18 L2237.08 101.872 L2152.95 101.872 L2152.95 101.872  Z" fill="#4682b4" fill-rule="evenodd" fill-opacity="0.7"/>
<polyline clip-path="url(#clip422)" style="stroke:#000000; stroke-linecap:round; stroke-linejoin:round; stroke-width:4; stroke-opacity:0.7; fill:none" points="2152.95,101.872 2152.95,1423.18 2237.08,1423.18 2237.08,101.872 2152.95,101.872 "/>
<circle clip-path="url(#clip422)" style="fill:#4682b4; stroke:none; fill-opacity:0" cx="407.287" cy="1041.37" r="2"/>
<circle clip-path="url(#clip422)" style="fill:#4682b4; stroke:none; fill-opacity:0" cx="512.447" cy="1317.91" r="2"/>
<circle clip-path="url(#clip422)" style="fill:#4682b4; stroke:none; fill-opacity:0" cx="617.607" cy="1291.59" r="2"/>
<circle clip-path="url(#clip422)" style="fill:#4682b4; stroke:none; fill-opacity:0" cx="722.767" cy="1292.35" r="2"/>
<circle clip-path="url(#clip422)" style="fill:#4682b4; stroke:none; fill-opacity:0" cx="827.928" cy="1305.31" r="2"/>
<circle clip-path="url(#clip422)" style="fill:#4682b4; stroke:none; fill-opacity:0" cx="933.088" cy="1195.43" r="2"/>
<circle clip-path="url(#clip422)" style="fill:#4682b4; stroke:none; fill-opacity:0" cx="1038.25" cy="1193.13" r="2"/>
<circle clip-path="url(#clip422)" style="fill:#4682b4; stroke:none; fill-opacity:0" cx="1143.41" cy="1272.5" r="2"/>
<circle clip-path="url(#clip422)" style="fill:#4682b4; stroke:none; fill-opacity:0" cx="1248.57" cy="1270.02" r="2"/>
<circle clip-path="url(#clip422)" style="fill:#4682b4; stroke:none; fill-opacity:0" cx="1353.73" cy="1161.41" r="2"/>
<circle clip-path="url(#clip422)" style="fill:#4682b4; stroke:none; fill-opacity:0" cx="1458.89" cy="1231.39" r="2"/>
<circle clip-path="url(#clip422)" style="fill:#4682b4; stroke:none; fill-opacity:0" cx="1564.05" cy="1191.43" r="2"/>
<circle clip-path="url(#clip422)" style="fill:#4682b4; stroke:none; fill-opacity:0" cx="1669.21" cy="1299.57" r="2"/>
<circle clip-path="url(#clip422)" style="fill:#4682b4; stroke:none; fill-opacity:0" cx="1774.37" cy="1184.8" r="2"/>
<circle clip-path="url(#clip422)" style="fill:#4682b4; stroke:none; fill-opacity:0" cx="1879.53" cy="1253.4" r="2"/>
<circle clip-path="url(#clip422)" style="fill:#4682b4; stroke:none; fill-opacity:0" cx="1984.69" cy="1252.85" r="2"/>
<circle clip-path="url(#clip422)" style="fill:#4682b4; stroke:none; fill-opacity:0" cx="2089.85" cy="1290.75" r="2"/>
<circle clip-path="url(#clip422)" style="fill:#4682b4; stroke:none; fill-opacity:0" cx="2195.01" cy="101.872" r="2"/>
</svg>
