<?xml version="1.0" encoding="utf-8"?>
<svg xmlns="http://www.w3.org/2000/svg" xmlns:xlink="http://www.w3.org/1999/xlink" width="600" height="400" viewBox="0 0 2400 1600">
<defs>
  <clipPath id="clip130">
    <rect x="0" y="0" width="2400" height="1600"/>
  </clipPath>
</defs>
<path clip-path="url(#clip130)" d="M0 1600 L2400 1600 L2400 8.88178e-14 L0 8.88178e-14  Z" fill="#ffffff" fill-rule="evenodd" fill-opacity="1"/>
<defs>
  <clipPath id="clip131">
    <rect x="249" y="106" width="2104" height="1318"/>
  </clipPath>
</defs>
<path clip-path="url(#clip130)" d="M175.445 1423.18 L2352.76 1423.18 L2352.76 106.192 L175.445 106.192  Z" fill="#ffffff" fill-rule="evenodd" fill-opacity="1"/>
<defs>
  <clipPath id="clip132">
    <rect x="175" y="106" width="2178" height="1318"/>
  </clipPath>
</defs>
<polyline clip-path="url(#clip132)" style="stroke:#000000; stroke-linecap:round; stroke-linejoin:round; stroke-width:2; stroke-opacity:0.1; fill:none" points="229.882,1423.18 229.882,106.192 "/>
<polyline clip-path="url(#clip132)" style="stroke:#000000; stroke-linecap:round; stroke-linejoin:round; stroke-width:2; stroke-opacity:0.1; fill:none" points="774.208,1423.18 774.208,106.192 "/>
<polyline clip-path="url(#clip132)" style="stroke:#000000; stroke-linecap:round; stroke-linejoin:round; stroke-width:2; stroke-opacity:0.1; fill:none" points="1318.53,1423.18 1318.53,106.192 "/>
<polyline clip-path="url(#clip132)" style="stroke:#000000; stroke-linecap:round; stroke-linejoin:round; stroke-width:2; stroke-opacity:0.1; fill:none" points="1862.86,1423.18 1862.86,106.192 "/>
<polyline clip-path="url(#clip132)" style="stroke:#000000; stroke-linecap:round; stroke-linejoin:round; stroke-width:2; stroke-opacity:0.1; fill:none" points="175.445,1423.18 2352.76,1423.18 "/>
<polyline clip-path="url(#clip132)" style="stroke:#000000; stroke-linecap:round; stroke-linejoin:round; stroke-width:2; stroke-opacity:0.1; fill:none" points="175.445,1162.25 2352.76,1162.25 "/>
<polyline clip-path="url(#clip132)" style="stroke:#000000; stroke-linecap:round; stroke-linejoin:round; stroke-width:2; stroke-opacity:0.1; fill:none" points="175.445,901.32 2352.76,901.32 "/>
<polyline clip-path="url(#clip132)" style="stroke:#000000; stroke-linecap:round; stroke-linejoin:round; stroke-width:2; stroke-opacity:0.1; fill:none" points="175.445,640.391 2352.76,640.391 "/>
<polyline clip-path="url(#clip132)" style="stroke:#000000; stroke-linecap:round; stroke-linejoin:round; stroke-width:2; stroke-opacity:0.1; fill:none" points="175.445,379.461 2352.76,379.461 "/>
<polyline clip-path="url(#clip132)" style="stroke:#000000; stroke-linecap:round; stroke-linejoin:round; stroke-width:2; stroke-opacity:0.1; fill:none" points="175.445,118.531 2352.76,118.531 "/>
<polyline clip-path="url(#clip130)" style="stroke:#000000; stroke-linecap:round; stroke-linejoin:round; stroke-width:4; stroke-opacity:1; fill:none" points="175.445,1423.18 2352.76,1423.18 "/>
<polyline clip-path="url(#clip130)" style="stroke:#000000; stroke-linecap:round; stroke-linejoin:round; stroke-width:4; stroke-opacity:1; fill:none" points="229.882,1423.18 229.882,1404.28 "/>
<polyline clip-path="url(#clip130)" style="stroke:#000000; stroke-linecap:round; stroke-linejoin:round; stroke-width:4; stroke-opacity:1; fill:none" points="774.208,1423.18 774.208,1404.28 "/>
<polyline clip-path="url(#clip130)" style="stroke:#000000; stroke-linecap:round; stroke-linejoin:round; stroke-width:4; stroke-opacity:1; fill:none" points="1318.53,1423.18 1318.53,1404.28 "/>
<polyline clip-path="url(#clip130)" style="stroke:#000000; stroke-linecap:round; stroke-linejoin:round; stroke-width:4; stroke-opacity:1; fill:none" points="1862.86,1423.18 1862.86,1404.28 "/>
<path clip-path="url(#clip130)" d="M229.882 1454.1 Q226.271 1454.1 224.442 1457.66 Q222.637 1461.2 222.637 1468.33 Q222.637 1475.44 224.442 1479.01 Q226.271 1482.55 229.882 1482.55 Q233.516 1482.55 235.322 1479.01 Q237.151 1475.44 237.151 1468.33 Q237.151 1461.2 235.322 1457.66 Q233.516 1454.1 229.882 1454.1 M229.882 1450.39 Q235.692 1450.39 238.748 1455 Q241.826 1459.58 241.826 1468.33 Q241.826 1477.06 238.748 1481.67 Q235.692 1486.25 229.882 1486.25 Q224.072 1486.25 220.993 1481.67 Q217.938 1477.06 217.938 1468.33 Q217.938 1459.58 220.993 1455 Q224.072 1450.39 229.882 1450.39 Z" fill="#000000" fill-rule="nonzero" fill-opacity="1" /><path clip-path="url(#clip130)" d="M764.485 1451.02 L782.842 1451.02 L782.842 1454.96 L768.768 1454.96 L768.768 1463.43 Q769.786 1463.08 770.805 1462.92 Q771.823 1462.73 772.842 1462.73 Q778.629 1462.73 782.008 1465.9 Q785.388 1469.08 785.388 1474.49 Q785.388 1480.07 781.916 1483.17 Q778.444 1486.25 772.124 1486.25 Q769.948 1486.25 767.68 1485.88 Q765.435 1485.51 763.027 1484.77 L763.027 1480.07 Q765.11 1481.2 767.333 1481.76 Q769.555 1482.32 772.032 1482.32 Q776.036 1482.32 778.374 1480.21 Q780.712 1478.1 780.712 1474.49 Q780.712 1470.88 778.374 1468.77 Q776.036 1466.67 772.032 1466.67 Q770.157 1466.67 768.282 1467.08 Q766.43 1467.5 764.485 1468.38 L764.485 1451.02 Z" fill="#000000" fill-rule="nonzero" fill-opacity="1" /><path clip-path="url(#clip130)" d="M1293.22 1481.64 L1300.86 1481.64 L1300.86 1455.28 L1292.55 1456.95 L1292.55 1452.69 L1300.81 1451.02 L1305.49 1451.02 L1305.49 1481.64 L1313.13 1481.64 L1313.13 1485.58 L1293.22 1485.58 L1293.22 1481.64 Z" fill="#000000" fill-rule="nonzero" fill-opacity="1" /><path clip-path="url(#clip130)" d="M1332.57 1454.1 Q1328.96 1454.1 1327.13 1457.66 Q1325.33 1461.2 1325.33 1468.33 Q1325.33 1475.44 1327.13 1479.01 Q1328.96 1482.55 1332.57 1482.55 Q1336.21 1482.55 1338.01 1479.01 Q1339.84 1475.44 1339.84 1468.33 Q1339.84 1461.2 1338.01 1457.66 Q1336.21 1454.1 1332.57 1454.1 M1332.57 1450.39 Q1338.38 1450.39 1341.44 1455 Q1344.52 1459.58 1344.52 1468.33 Q1344.52 1477.06 1341.44 1481.67 Q1338.38 1486.25 1332.57 1486.25 Q1326.76 1486.25 1323.68 1481.67 Q1320.63 1477.06 1320.63 1468.33 Q1320.63 1459.58 1323.68 1455 Q1326.76 1450.39 1332.57 1450.39 Z" fill="#000000" fill-rule="nonzero" fill-opacity="1" /><path clip-path="url(#clip130)" d="M1838.04 1481.64 L1845.68 1481.64 L1845.68 1455.28 L1837.37 1456.95 L1837.37 1452.69 L1845.64 1451.02 L1850.31 1451.02 L1850.31 1481.64 L1857.95 1481.64 L1857.95 1485.58 L1838.04 1485.58 L1838.04 1481.64 Z" fill="#000000" fill-rule="nonzero" fill-opacity="1" /><path clip-path="url(#clip130)" d="M1867.44 1451.02 L1885.8 1451.02 L1885.8 1454.96 L1871.72 1454.96 L1871.72 1463.43 Q1872.74 1463.08 1873.76 1462.92 Q1874.78 1462.73 1875.8 1462.73 Q1881.59 1462.73 1884.96 1465.9 Q1888.34 1469.08 1888.34 1474.49 Q1888.34 1480.07 1884.87 1483.17 Q1881.4 1486.25 1875.08 1486.25 Q1872.9 1486.25 1870.64 1485.88 Q1868.39 1485.51 1865.98 1484.77 L1865.98 1480.07 Q1868.07 1481.2 1870.29 1481.76 Q1872.51 1482.32 1874.99 1482.32 Q1878.99 1482.32 1881.33 1480.21 Q1883.67 1478.1 1883.67 1474.49 Q1883.67 1470.88 1881.33 1468.77 Q1878.99 1466.67 1874.99 1466.67 Q1873.11 1466.67 1871.24 1467.08 Q1869.39 1467.5 1867.44 1468.38 L1867.44 1451.02 Z" fill="#000000" fill-rule="nonzero" fill-opacity="1" /><path clip-path="url(#clip130)" d="M1212.3 1522.08 L1212.3 1528.35 Q1208.64 1526.6 1205.39 1525.74 Q1202.15 1524.88 1199.12 1524.88 Q1193.87 1524.88 1191.01 1526.92 Q1188.17 1528.96 1188.17 1532.71 Q1188.17 1535.87 1190.05 1537.49 Q1191.96 1539.08 1197.24 1540.07 L1201.13 1540.86 Q1208.32 1542.23 1211.73 1545.7 Q1215.16 1549.14 1215.16 1554.93 Q1215.16 1561.84 1210.52 1565.4 Q1205.9 1568.97 1196.96 1568.97 Q1193.58 1568.97 1189.77 1568.2 Q1185.98 1567.44 1181.9 1565.94 L1181.9 1559.32 Q1185.82 1561.52 1189.57 1562.63 Q1193.33 1563.75 1196.96 1563.75 Q1202.46 1563.75 1205.46 1561.58 Q1208.45 1559.42 1208.45 1555.41 Q1208.45 1551.91 1206.28 1549.93 Q1204.15 1547.96 1199.25 1546.97 L1195.34 1546.21 Q1188.14 1544.78 1184.93 1541.72 Q1181.71 1538.67 1181.71 1533.22 Q1181.71 1526.92 1186.14 1523.29 Q1190.59 1519.66 1198.39 1519.66 Q1201.73 1519.66 1205.2 1520.27 Q1208.67 1520.87 1212.3 1522.08 Z" fill="#000000" fill-rule="nonzero" fill-opacity="1" /><path clip-path="url(#clip130)" d="M1230.73 1522.27 L1230.73 1532.4 L1242.79 1532.4 L1242.79 1536.95 L1230.73 1536.95 L1230.73 1556.3 Q1230.73 1560.66 1231.91 1561.9 Q1233.12 1563.14 1236.78 1563.14 L1242.79 1563.14 L1242.79 1568.04 L1236.78 1568.04 Q1230 1568.04 1227.42 1565.53 Q1224.84 1562.98 1224.84 1556.3 L1224.84 1536.95 L1220.54 1536.95 L1220.54 1532.4 L1224.84 1532.4 L1224.84 1522.27 L1230.73 1522.27 Z" fill="#000000" fill-rule="nonzero" fill-opacity="1" /><path clip-path="url(#clip130)" d="M1266.69 1550.12 Q1259.6 1550.12 1256.86 1551.75 Q1254.12 1553.37 1254.12 1557.29 Q1254.12 1560.4 1256.16 1562.25 Q1258.23 1564.07 1261.76 1564.07 Q1266.63 1564.07 1269.56 1560.63 Q1272.52 1557.16 1272.52 1551.43 L1272.52 1550.12 L1266.69 1550.12 M1278.38 1547.71 L1278.38 1568.04 L1272.52 1568.04 L1272.52 1562.63 Q1270.51 1565.88 1267.52 1567.44 Q1264.53 1568.97 1260.2 1568.97 Q1254.73 1568.97 1251.48 1565.91 Q1248.27 1562.82 1248.27 1557.67 Q1248.27 1551.65 1252.28 1548.6 Q1256.32 1545.54 1264.31 1545.54 L1272.52 1545.54 L1272.52 1544.97 Q1272.52 1540.93 1269.85 1538.73 Q1267.2 1536.5 1262.4 1536.5 Q1259.34 1536.5 1256.45 1537.23 Q1253.55 1537.97 1250.88 1539.43 L1250.88 1534.02 Q1254.09 1532.78 1257.11 1532.17 Q1260.14 1531.54 1263 1531.54 Q1270.74 1531.54 1274.56 1535.55 Q1278.38 1539.56 1278.38 1547.71 Z" fill="#000000" fill-rule="nonzero" fill-opacity="1" /><path clip-path="url(#clip130)" d="M1296.23 1522.27 L1296.23 1532.4 L1308.29 1532.4 L1308.29 1536.95 L1296.23 1536.95 L1296.23 1556.3 Q1296.23 1560.66 1297.41 1561.9 Q1298.62 1563.14 1302.28 1563.14 L1308.29 1563.14 L1308.29 1568.04 L1302.28 1568.04 Q1295.5 1568.04 1292.92 1565.53 Q1290.34 1562.98 1290.34 1556.3 L1290.34 1536.95 L1286.05 1536.95 L1286.05 1532.4 L1290.34 1532.4 L1290.34 1522.27 L1296.23 1522.27 Z" fill="#000000" fill-rule="nonzero" fill-opacity="1" /><path clip-path="url(#clip130)" d="M1346.49 1548.76 L1346.49 1551.62 L1319.56 1551.62 Q1319.94 1557.67 1323.19 1560.85 Q1326.47 1564 1332.29 1564 Q1335.67 1564 1338.82 1563.17 Q1342 1562.35 1345.12 1560.69 L1345.12 1566.23 Q1341.97 1567.57 1338.66 1568.27 Q1335.35 1568.97 1331.94 1568.97 Q1323.41 1568.97 1318.42 1564 Q1313.45 1559.04 1313.45 1550.57 Q1313.45 1541.82 1318.16 1536.69 Q1322.9 1531.54 1330.92 1531.54 Q1338.12 1531.54 1342.29 1536.18 Q1346.49 1540.8 1346.49 1548.76 M1340.63 1547.04 Q1340.57 1542.23 1337.93 1539.37 Q1335.32 1536.5 1330.99 1536.5 Q1326.09 1536.5 1323.13 1539.27 Q1320.2 1542.04 1319.75 1547.07 L1340.63 1547.04 Z" fill="#000000" fill-rule="nonzero" fill-opacity="1" /><polyline clip-path="url(#clip130)" style="stroke:#000000; stroke-linecap:round; stroke-linejoin:round; stroke-width:4; stroke-opacity:1; fill:none" points="175.445,1423.18 175.445,106.192 "/>
<polyline clip-path="url(#clip130)" style="stroke:#000000; stroke-linecap:round; stroke-linejoin:round; stroke-width:4; stroke-opacity:1; fill:none" points="175.445,1423.18 194.343,1423.18 "/>
<polyline clip-path="url(#clip130)" style="stroke:#000000; stroke-linecap:round; stroke-linejoin:round; stroke-width:4; stroke-opacity:1; fill:none" points="175.445,1162.25 194.343,1162.25 "/>
<polyline clip-path="url(#clip130)" style="stroke:#000000; stroke-linecap:round; stroke-linejoin:round; stroke-width:4; stroke-opacity:1; fill:none" points="175.445,901.32 194.343,901.32 "/>
<polyline clip-path="url(#clip130)" style="stroke:#000000; stroke-linecap:round; stroke-linejoin:round; stroke-width:4; stroke-opacity:1; fill:none" points="175.445,640.391 194.343,640.391 "/>
<polyline clip-path="url(#clip130)" style="stroke:#000000; stroke-linecap:round; stroke-linejoin:round; stroke-width:4; stroke-opacity:1; fill:none" points="175.445,379.461 194.343,379.461 "/>
<polyline clip-path="url(#clip130)" style="stroke:#000000; stroke-linecap:round; stroke-linejoin:round; stroke-width:4; stroke-opacity:1; fill:none" points="175.445,118.531 194.343,118.531 "/>
<path clip-path="url(#clip130)" d="M127.501 1408.98 Q123.89 1408.98 122.061 1412.54 Q120.255 1416.08 120.255 1423.21 Q120.255 1430.32 122.061 1433.89 Q123.89 1437.43 127.501 1437.43 Q131.135 1437.43 132.941 1433.89 Q134.769 1430.32 134.769 1423.21 Q134.769 1416.08 132.941 1412.54 Q131.135 1408.98 127.501 1408.98 M127.501 1405.27 Q133.311 1405.27 136.367 1409.88 Q139.445 1414.46 139.445 1423.21 Q139.445 1431.94 136.367 1436.55 Q133.311 1441.13 127.501 1441.13 Q121.691 1441.13 118.612 1436.55 Q115.556 1431.94 115.556 1423.21 Q115.556 1414.46 118.612 1409.88 Q121.691 1405.27 127.501 1405.27 Z" fill="#000000" fill-rule="nonzero" fill-opacity="1" /><path clip-path="url(#clip130)" d="M119.538 1175.59 L127.177 1175.59 L127.177 1149.23 L118.867 1150.9 L118.867 1146.64 L127.13 1144.97 L131.806 1144.97 L131.806 1175.59 L139.445 1175.59 L139.445 1179.53 L119.538 1179.53 L119.538 1175.59 Z" fill="#000000" fill-rule="nonzero" fill-opacity="1" /><path clip-path="url(#clip130)" d="M123.126 914.665 L139.445 914.665 L139.445 918.6 L117.501 918.6 L117.501 914.665 Q120.163 911.911 124.746 907.281 Q129.353 902.628 130.533 901.286 Q132.779 898.763 133.658 897.026 Q134.561 895.267 134.561 893.577 Q134.561 890.823 132.617 889.087 Q130.695 887.351 127.593 887.351 Q125.394 887.351 122.941 888.114 Q120.51 888.878 117.732 890.429 L117.732 885.707 Q120.556 884.573 123.01 883.994 Q125.464 883.415 127.501 883.415 Q132.871 883.415 136.066 886.101 Q139.26 888.786 139.26 893.276 Q139.26 895.406 138.45 897.327 Q137.663 899.225 135.556 901.818 Q134.978 902.489 131.876 905.707 Q128.774 908.901 123.126 914.665 Z" fill="#000000" fill-rule="nonzero" fill-opacity="1" /><path clip-path="url(#clip130)" d="M132.316 639.037 Q135.672 639.754 137.547 642.023 Q139.445 644.291 139.445 647.624 Q139.445 652.74 135.927 655.541 Q132.408 658.342 125.927 658.342 Q123.751 658.342 121.436 657.902 Q119.144 657.485 116.691 656.629 L116.691 652.115 Q118.635 653.249 120.95 653.828 Q123.265 654.407 125.788 654.407 Q130.186 654.407 132.478 652.671 Q134.792 650.935 134.792 647.624 Q134.792 644.569 132.64 642.856 Q130.51 641.12 126.691 641.12 L122.663 641.12 L122.663 637.277 L126.876 637.277 Q130.325 637.277 132.154 635.912 Q133.982 634.523 133.982 631.93 Q133.982 629.268 132.084 627.856 Q130.209 626.421 126.691 626.421 Q124.769 626.421 122.57 626.837 Q120.371 627.254 117.732 628.134 L117.732 623.967 Q120.394 623.226 122.709 622.856 Q125.047 622.486 127.107 622.486 Q132.431 622.486 135.533 624.916 Q138.635 627.324 138.635 631.444 Q138.635 634.314 136.992 636.305 Q135.348 638.273 132.316 639.037 Z" fill="#000000" fill-rule="nonzero" fill-opacity="1" /><path clip-path="url(#clip130)" d="M129.862 366.255 L118.056 384.704 L129.862 384.704 L129.862 366.255 M128.635 362.181 L134.515 362.181 L134.515 384.704 L139.445 384.704 L139.445 388.593 L134.515 388.593 L134.515 396.741 L129.862 396.741 L129.862 388.593 L114.26 388.593 L114.26 384.079 L128.635 362.181 Z" fill="#000000" fill-rule="nonzero" fill-opacity="1" /><path clip-path="url(#clip130)" d="M118.543 101.251 L136.899 101.251 L136.899 105.186 L122.825 105.186 L122.825 113.659 Q123.843 113.311 124.862 113.149 Q125.88 112.964 126.899 112.964 Q132.686 112.964 136.066 116.135 Q139.445 119.307 139.445 124.723 Q139.445 130.302 135.973 133.404 Q132.501 136.482 126.181 136.482 Q124.005 136.482 121.737 136.112 Q119.492 135.742 117.084 135.001 L117.084 130.302 Q119.168 131.436 121.39 131.992 Q123.612 132.547 126.089 132.547 Q130.093 132.547 132.431 130.441 Q134.769 128.334 134.769 124.723 Q134.769 121.112 132.431 119.006 Q130.093 116.899 126.089 116.899 Q124.214 116.899 122.339 117.316 Q120.487 117.733 118.543 118.612 L118.543 101.251 Z" fill="#000000" fill-rule="nonzero" fill-opacity="1" /><path clip-path="url(#clip130)" d="M18.0438 821.548 L24.314 821.548 Q22.5634 825.208 21.704 828.454 Q20.8447 831.701 20.8447 834.725 Q20.8447 839.976 22.8817 842.841 Q24.9187 845.674 28.6745 845.674 Q31.8255 845.674 33.4488 843.796 Q35.0402 841.886 36.0269 836.603 L36.8226 832.719 Q38.1912 825.526 41.6605 822.121 Q45.098 818.683 50.8908 818.683 Q57.7976 818.683 61.3624 823.33 Q64.9272 827.945 64.9272 836.889 Q64.9272 840.263 64.1633 844.082 Q63.3994 847.87 61.9035 851.944 L55.2831 851.944 Q57.4793 848.029 58.5933 844.273 Q59.7073 840.517 59.7073 836.889 Q59.7073 831.383 57.543 828.391 Q55.3786 825.399 51.3682 825.399 Q47.8671 825.399 45.8937 827.563 Q43.9204 829.696 42.9337 834.597 L42.1698 838.512 Q40.7375 845.706 37.682 848.92 Q34.6264 852.135 29.1837 852.135 Q22.8817 852.135 19.2532 847.711 Q15.6248 843.255 15.6248 835.457 Q15.6248 832.115 16.2295 828.645 Q16.8343 825.176 18.0438 821.548 Z" fill="#000000" fill-rule="nonzero" fill-opacity="1" /><path clip-path="url(#clip130)" d="M18.2347 803.119 L28.3562 803.119 L28.3562 791.056 L32.9077 791.056 L32.9077 803.119 L52.2594 803.119 Q56.6199 803.119 57.8613 801.941 Q59.1026 800.732 59.1026 797.072 L59.1026 791.056 L64.0042 791.056 L64.0042 797.072 Q64.0042 803.851 61.4897 806.429 Q58.9434 809.007 52.2594 809.007 L32.9077 809.007 L32.9077 813.304 L28.3562 813.304 L28.3562 809.007 L18.2347 809.007 L18.2347 803.119 Z" fill="#000000" fill-rule="nonzero" fill-opacity="1" /><path clip-path="url(#clip130)" d="M44.7161 752.862 L47.5806 752.862 L47.5806 779.789 Q53.6281 779.407 56.8109 776.16 Q59.9619 772.882 59.9619 767.057 Q59.9619 763.683 59.1344 760.532 Q58.3069 757.35 56.6518 754.23 L62.1899 754.23 Q63.5267 757.381 64.227 760.692 Q64.9272 764.002 64.9272 767.407 Q64.9272 775.937 59.9619 780.934 Q54.9967 785.9 46.5303 785.9 Q37.7774 785.9 32.6531 781.189 Q27.4968 776.447 27.4968 768.426 Q27.4968 761.233 32.1438 757.063 Q36.7589 752.862 44.7161 752.862 M42.9973 758.718 Q38.1912 758.782 35.3266 761.424 Q32.4621 764.033 32.4621 768.362 Q32.4621 773.264 35.2312 776.224 Q38.0002 779.152 43.0292 779.598 L42.9973 758.718 Z" fill="#000000" fill-rule="nonzero" fill-opacity="1" /><path clip-path="url(#clip130)" d="M58.657 737.584 L77.5631 737.584 L77.5631 743.472 L28.3562 743.472 L28.3562 737.584 L33.7671 737.584 Q30.5842 735.738 29.0564 732.937 Q27.4968 730.104 27.4968 726.189 Q27.4968 719.696 32.6531 715.654 Q37.8093 711.58 46.212 711.58 Q54.6147 711.58 59.771 715.654 Q64.9272 719.696 64.9272 726.189 Q64.9272 730.104 63.3994 732.937 Q61.8398 735.738 58.657 737.584 M46.212 717.659 Q39.7508 717.659 36.0905 720.333 Q32.3984 722.975 32.3984 727.622 Q32.3984 732.269 36.0905 734.942 Q39.7508 737.584 46.212 737.584 Q52.6732 737.584 56.3653 734.942 Q60.0256 732.269 60.0256 727.622 Q60.0256 722.975 56.3653 720.333 Q52.6732 717.659 46.212 717.659 Z" fill="#000000" fill-rule="nonzero" fill-opacity="1" /><path clip-path="url(#clip130)" d="M29.4065 679.147 L34.9447 679.147 Q33.6716 681.629 33.035 684.303 Q32.3984 686.977 32.3984 689.841 Q32.3984 694.202 33.7352 696.398 Q35.072 698.562 37.7456 698.562 Q39.7826 698.562 40.9603 697.003 Q42.1061 695.443 43.1565 690.732 L43.6021 688.727 Q44.9389 682.489 47.3897 679.879 Q49.8086 677.237 54.1691 677.237 Q59.1344 677.237 62.0308 681.184 Q64.9272 685.099 64.9272 691.974 Q64.9272 694.838 64.3543 697.957 Q63.8132 701.045 62.6992 704.482 L56.6518 704.482 Q58.3387 701.236 59.198 698.085 Q60.0256 694.934 60.0256 691.846 Q60.0256 687.709 58.6251 685.481 Q57.1929 683.253 54.6147 683.253 Q52.2276 683.253 50.9545 684.876 Q49.6813 686.467 48.5037 691.91 L48.0262 693.947 Q46.8804 699.39 44.5251 701.809 Q42.138 704.228 38.0002 704.228 Q32.9713 704.228 30.2341 700.663 Q27.4968 697.098 27.4968 690.541 Q27.4968 687.295 27.9743 684.43 Q28.4517 681.566 29.4065 679.147 Z" fill="#000000" fill-rule="nonzero" fill-opacity="1" /><path clip-path="url(#clip130)" d="M652.255 8.64 L660.125 8.64 L679.28 44.7799 L679.28 8.64 L684.951 8.64 L684.951 51.84 L677.081 51.84 L657.926 15.7001 L657.926 51.84 L652.255 51.84 L652.255 8.64 Z" fill="#000000" fill-rule="nonzero" fill-opacity="1" /><path clip-path="url(#clip130)" d="M711.08 35.5496 Q704.627 35.5496 702.139 37.0253 Q699.65 38.501 699.65 42.06 Q699.65 44.8956 701.502 46.5738 Q703.383 48.2231 706.595 48.2231 Q711.022 48.2231 713.684 45.0981 Q716.375 41.9442 716.375 36.7359 L716.375 35.5496 L711.08 35.5496 M721.699 33.3505 L721.699 51.84 L716.375 51.84 L716.375 46.921 Q714.552 49.8724 711.832 51.2902 Q709.112 52.6791 705.177 52.6791 Q700.2 52.6791 697.249 49.9014 Q694.326 47.0947 694.326 42.4072 Q694.326 36.9385 697.972 34.1607 Q701.647 31.3829 708.91 31.3829 L716.375 31.3829 L716.375 30.8621 Q716.375 27.1874 713.944 25.1908 Q711.543 23.1654 707.174 23.1654 Q704.396 23.1654 701.763 23.8309 Q699.13 24.4964 696.699 25.8274 L696.699 20.9085 Q699.622 19.78 702.37 19.2302 Q705.119 18.6515 707.723 18.6515 Q714.755 18.6515 718.227 22.2973 Q721.699 25.9431 721.699 33.3505 Z" fill="#000000" fill-rule="nonzero" fill-opacity="1" /><path clip-path="url(#clip130)" d="M737.932 10.2314 L737.932 19.4328 L748.898 19.4328 L748.898 23.5705 L737.932 23.5705 L737.932 41.163 Q737.932 45.1271 739.002 46.2555 Q740.102 47.384 743.429 47.384 L748.898 47.384 L748.898 51.84 L743.429 51.84 Q737.266 51.84 734.922 49.5541 Q732.579 47.2393 732.579 41.163 L732.579 23.5705 L728.672 23.5705 L728.672 19.4328 L732.579 19.4328 L732.579 10.2314 L737.932 10.2314 Z" fill="#000000" fill-rule="nonzero" fill-opacity="1" /><path clip-path="url(#clip130)" d="M755.35 39.0507 L755.35 19.4328 L760.674 19.4328 L760.674 38.8482 Q760.674 43.4488 762.468 45.7636 Q764.262 48.0495 767.85 48.0495 Q772.162 48.0495 774.65 45.3007 Q777.167 42.5519 777.167 37.8065 L777.167 19.4328 L782.491 19.4328 L782.491 51.84 L777.167 51.84 L777.167 46.8632 Q775.229 49.8145 772.654 51.2613 Q770.107 52.6791 766.722 52.6791 Q761.137 52.6791 758.244 49.2069 Q755.35 45.7347 755.35 39.0507 M768.747 18.6515 L768.747 18.6515 Z" fill="#000000" fill-rule="nonzero" fill-opacity="1" /><path clip-path="url(#clip130)" d="M812.237 24.4096 Q811.34 23.8888 810.269 23.6573 Q809.227 23.3969 807.954 23.3969 Q803.44 23.3969 801.01 26.3482 Q798.608 29.2707 798.608 34.7683 L798.608 51.84 L793.255 51.84 L793.255 19.4328 L798.608 19.4328 L798.608 24.4675 Q800.286 21.5161 802.977 20.0983 Q805.668 18.6515 809.517 18.6515 Q810.067 18.6515 810.732 18.7383 Q811.398 18.7962 812.208 18.9409 L812.237 24.4096 Z" fill="#000000" fill-rule="nonzero" fill-opacity="1" /><path clip-path="url(#clip130)" d="M832.549 35.5496 Q826.097 35.5496 823.608 37.0253 Q821.12 38.501 821.12 42.06 Q821.12 44.8956 822.972 46.5738 Q824.852 48.2231 828.064 48.2231 Q832.491 48.2231 835.153 45.0981 Q837.844 41.9442 837.844 36.7359 L837.844 35.5496 L832.549 35.5496 M843.168 33.3505 L843.168 51.84 L837.844 51.84 L837.844 46.921 Q836.021 49.8724 833.301 51.2902 Q830.581 52.6791 826.646 52.6791 Q821.669 52.6791 818.718 49.9014 Q815.796 47.0947 815.796 42.4072 Q815.796 36.9385 819.441 34.1607 Q823.116 31.3829 830.379 31.3829 L837.844 31.3829 L837.844 30.8621 Q837.844 27.1874 835.414 25.1908 Q833.012 23.1654 828.643 23.1654 Q825.865 23.1654 823.232 23.8309 Q820.599 24.4964 818.168 25.8274 L818.168 20.9085 Q821.091 19.78 823.84 19.2302 Q826.588 18.6515 829.193 18.6515 Q836.224 18.6515 839.696 22.2973 Q843.168 25.9431 843.168 33.3505 Z" fill="#000000" fill-rule="nonzero" fill-opacity="1" /><path clip-path="url(#clip130)" d="M854.135 6.81709 L859.459 6.81709 L859.459 51.84 L854.135 51.84 L854.135 6.81709 Z" fill="#000000" fill-rule="nonzero" fill-opacity="1" /><path clip-path="url(#clip130)" d="M910.153 31.5855 Q912.034 32.222 913.799 34.3054 Q915.593 36.3887 917.387 40.0345 L923.318 51.84 L917.039 51.84 L911.513 40.7579 Q909.372 36.4176 907.346 34.9998 Q905.35 33.582 901.877 33.582 L895.512 33.582 L895.512 51.84 L889.667 51.84 L889.667 8.64 L902.861 8.64 Q910.269 8.64 913.914 11.736 Q917.56 14.8321 917.56 21.0821 Q917.56 25.1619 915.65 27.8529 Q913.77 30.5438 910.153 31.5855 M895.512 13.4432 L895.512 28.7788 L902.861 28.7788 Q907.086 28.7788 909.227 26.8401 Q911.397 24.8726 911.397 21.0821 Q911.397 17.2916 909.227 15.3819 Q907.086 13.4432 902.861 13.4432 L895.512 13.4432 Z" fill="#000000" fill-rule="nonzero" fill-opacity="1" /><path clip-path="url(#clip130)" d="M955.668 34.3054 L955.668 36.9095 L931.189 36.9095 Q931.536 42.4072 934.487 45.3007 Q937.467 48.1653 942.763 48.1653 Q945.83 48.1653 948.694 47.4129 Q951.588 46.6606 954.423 45.156 L954.423 50.1907 Q951.559 51.406 948.55 52.0425 Q945.54 52.6791 942.444 52.6791 Q934.69 52.6791 930.147 48.1653 Q925.633 43.6514 925.633 35.9547 Q925.633 27.9975 929.915 23.339 Q934.227 18.6515 941.518 18.6515 Q948.058 18.6515 951.848 22.876 Q955.668 27.0716 955.668 34.3054 M950.344 32.7429 Q950.286 28.3737 947.884 25.7695 Q945.511 23.1654 941.576 23.1654 Q937.12 23.1654 934.429 25.6827 Q931.767 28.2001 931.362 32.7718 L950.344 32.7429 Z" fill="#000000" fill-rule="nonzero" fill-opacity="1" /><path clip-path="url(#clip130)" d="M985.066 20.3876 L985.066 25.4223 Q982.809 24.2649 980.378 23.6862 Q977.948 23.1075 975.343 23.1075 Q971.379 23.1075 969.383 24.3228 Q967.415 25.5381 967.415 27.9686 Q967.415 29.8204 968.833 30.891 Q970.251 31.9327 974.533 32.8876 L976.356 33.2926 Q982.027 34.5079 984.4 36.7359 Q986.802 38.935 986.802 42.8991 Q986.802 47.4129 983.214 50.046 Q979.655 52.6791 973.405 52.6791 Q970.801 52.6791 967.965 52.1583 Q965.158 51.6664 962.033 50.6537 L962.033 45.156 Q964.985 46.6896 967.849 47.4708 Q970.714 48.2231 973.521 48.2231 Q977.282 48.2231 979.308 46.95 Q981.333 45.6479 981.333 43.3042 Q981.333 41.134 979.857 39.9766 Q978.411 38.8192 973.463 37.7486 L971.611 37.3146 Q966.663 36.273 964.464 34.1318 Q962.265 31.9616 962.265 28.2001 Q962.265 23.6283 965.506 21.1399 Q968.746 18.6515 974.707 18.6515 Q977.658 18.6515 980.262 19.0855 Q982.867 19.5196 985.066 20.3876 Z" fill="#000000" fill-rule="nonzero" fill-opacity="1" /><path clip-path="url(#clip130)" d="M995.28 19.4328 L1000.6 19.4328 L1000.6 51.84 L995.28 51.84 L995.28 19.4328 M995.28 6.81709 L1000.6 6.81709 L1000.6 13.559 L995.28 13.559 L995.28 6.81709 Z" fill="#000000" fill-rule="nonzero" fill-opacity="1" /><path clip-path="url(#clip130)" d="M1033.07 24.3517 L1033.07 6.81709 L1038.39 6.81709 L1038.39 51.84 L1033.07 51.84 L1033.07 46.9789 Q1031.39 49.8724 1028.82 51.2902 Q1026.27 52.6791 1022.68 52.6791 Q1016.81 52.6791 1013.1 47.9916 Q1009.43 43.3042 1009.43 35.6653 Q1009.43 28.0265 1013.1 23.339 Q1016.81 18.6515 1022.68 18.6515 Q1026.27 18.6515 1028.82 20.0693 Q1031.39 21.4582 1033.07 24.3517 M1014.93 35.6653 Q1014.93 41.5391 1017.33 44.8956 Q1019.76 48.2231 1023.98 48.2231 Q1028.21 48.2231 1030.64 44.8956 Q1033.07 41.5391 1033.07 35.6653 Q1033.07 29.7915 1030.64 26.464 Q1028.21 23.1075 1023.98 23.1075 Q1019.76 23.1075 1017.33 26.464 Q1014.93 29.7915 1014.93 35.6653 Z" fill="#000000" fill-rule="nonzero" fill-opacity="1" /><path clip-path="url(#clip130)" d="M1077.08 34.3054 L1077.08 36.9095 L1052.6 36.9095 Q1052.95 42.4072 1055.9 45.3007 Q1058.88 48.1653 1064.17 48.1653 Q1067.24 48.1653 1070.11 47.4129 Q1073 46.6606 1075.83 45.156 L1075.83 50.1907 Q1072.97 51.406 1069.96 52.0425 Q1066.95 52.6791 1063.86 52.6791 Q1056.1 52.6791 1051.56 48.1653 Q1047.04 43.6514 1047.04 35.9547 Q1047.04 27.9975 1051.33 23.339 Q1055.64 18.6515 1062.93 18.6515 Q1069.47 18.6515 1073.26 22.876 Q1077.08 27.0716 1077.08 34.3054 M1071.75 32.7429 Q1071.7 28.3737 1069.3 25.7695 Q1066.92 23.1654 1062.99 23.1654 Q1058.53 23.1654 1055.84 25.6827 Q1053.18 28.2001 1052.77 32.7718 L1071.75 32.7429 Z" fill="#000000" fill-rule="nonzero" fill-opacity="1" /><path clip-path="url(#clip130)" d="M1112.76 32.2799 L1112.76 51.84 L1107.43 51.84 L1107.43 32.4535 Q1107.43 27.8529 1105.64 25.567 Q1103.84 23.2811 1100.26 23.2811 Q1095.94 23.2811 1093.46 26.03 Q1090.97 28.7788 1090.97 33.5241 L1090.97 51.84 L1085.61 51.84 L1085.61 19.4328 L1090.97 19.4328 L1090.97 24.4675 Q1092.88 21.545 1095.45 20.0983 Q1098.06 18.6515 1101.44 18.6515 Q1107.03 18.6515 1109.89 22.1237 Q1112.76 25.567 1112.76 32.2799 Z" fill="#000000" fill-rule="nonzero" fill-opacity="1" /><path clip-path="url(#clip130)" d="M1146.7 20.677 L1146.7 25.6538 Q1144.44 24.4096 1142.15 23.802 Q1139.9 23.1654 1137.58 23.1654 Q1132.4 23.1654 1129.54 26.464 Q1126.67 29.7336 1126.67 35.6653 Q1126.67 41.597 1129.54 44.8956 Q1132.4 48.1653 1137.58 48.1653 Q1139.9 48.1653 1142.15 47.5576 Q1144.44 46.921 1146.7 45.6768 L1146.7 50.5958 Q1144.47 51.6375 1142.07 52.1583 Q1139.69 52.6791 1137 52.6791 Q1129.68 52.6791 1125.37 48.0784 Q1121.06 43.4778 1121.06 35.6653 Q1121.06 27.7371 1125.4 23.1943 Q1129.77 18.6515 1137.35 18.6515 Q1139.81 18.6515 1142.15 19.1724 Q1144.5 19.6642 1146.7 20.677 Z" fill="#000000" fill-rule="nonzero" fill-opacity="1" /><path clip-path="url(#clip130)" d="M1183.68 34.3054 L1183.68 36.9095 L1159.2 36.9095 Q1159.54 42.4072 1162.5 45.3007 Q1165.48 48.1653 1170.77 48.1653 Q1173.84 48.1653 1176.7 47.4129 Q1179.6 46.6606 1182.43 45.156 L1182.43 50.1907 Q1179.57 51.406 1176.56 52.0425 Q1173.55 52.6791 1170.45 52.6791 Q1162.7 52.6791 1158.15 48.1653 Q1153.64 43.6514 1153.64 35.9547 Q1153.64 27.9975 1157.92 23.339 Q1162.23 18.6515 1169.53 18.6515 Q1176.07 18.6515 1179.86 22.876 Q1183.68 27.0716 1183.68 34.3054 M1178.35 32.7429 Q1178.29 28.3737 1175.89 25.7695 Q1173.52 23.1654 1169.58 23.1654 Q1165.13 23.1654 1162.44 25.6827 Q1159.78 28.2001 1159.37 32.7718 L1178.35 32.7429 Z" fill="#000000" fill-rule="nonzero" fill-opacity="1" /><path clip-path="url(#clip130)" d="M1205.49 8.64 L1242.04 8.64 L1242.04 13.559 L1226.7 13.559 L1226.7 51.84 L1220.83 51.84 L1220.83 13.559 L1205.49 13.559 L1205.49 8.64 Z" fill="#000000" fill-rule="nonzero" fill-opacity="1" /><path clip-path="url(#clip130)" d="M1245.63 19.4328 L1250.95 19.4328 L1250.95 51.84 L1245.63 51.84 L1245.63 19.4328 M1245.63 6.81709 L1250.95 6.81709 L1250.95 13.559 L1245.63 13.559 L1245.63 6.81709 Z" fill="#000000" fill-rule="nonzero" fill-opacity="1" /><path clip-path="url(#clip130)" d="M1287.32 25.6538 Q1289.32 22.0659 1292.1 20.3587 Q1294.87 18.6515 1298.63 18.6515 Q1303.7 18.6515 1306.45 22.2105 Q1309.2 25.7406 1309.2 32.2799 L1309.2 51.84 L1303.84 51.84 L1303.84 32.4535 Q1303.84 27.795 1302.19 25.5381 Q1300.54 23.2811 1297.16 23.2811 Q1293.02 23.2811 1290.62 26.03 Q1288.22 28.7788 1288.22 33.5241 L1288.22 51.84 L1282.86 51.84 L1282.86 32.4535 Q1282.86 27.7661 1281.22 25.5381 Q1279.57 23.2811 1276.12 23.2811 Q1272.04 23.2811 1269.64 26.0589 Q1267.24 28.8077 1267.24 33.5241 L1267.24 51.84 L1261.89 51.84 L1261.89 19.4328 L1267.24 19.4328 L1267.24 24.4675 Q1269.06 21.4872 1271.61 20.0693 Q1274.16 18.6515 1277.66 18.6515 Q1281.19 18.6515 1283.65 20.4455 Q1286.13 22.2395 1287.32 25.6538 Z" fill="#000000" fill-rule="nonzero" fill-opacity="1" /><path clip-path="url(#clip130)" d="M1347.53 34.3054 L1347.53 36.9095 L1323.06 36.9095 Q1323.4 42.4072 1326.35 45.3007 Q1329.33 48.1653 1334.63 48.1653 Q1337.7 48.1653 1340.56 47.4129 Q1343.45 46.6606 1346.29 45.156 L1346.29 50.1907 Q1343.43 51.406 1340.42 52.0425 Q1337.41 52.6791 1334.31 52.6791 Q1326.56 52.6791 1322.01 48.1653 Q1317.5 43.6514 1317.5 35.9547 Q1317.5 27.9975 1321.78 23.339 Q1326.09 18.6515 1333.39 18.6515 Q1339.92 18.6515 1343.72 22.876 Q1347.53 27.0716 1347.53 34.3054 M1342.21 32.7429 Q1342.15 28.3737 1339.75 25.7695 Q1337.38 23.1654 1333.44 23.1654 Q1328.99 23.1654 1326.3 25.6827 Q1323.63 28.2001 1323.23 32.7718 L1342.21 32.7429 Z" fill="#000000" fill-rule="nonzero" fill-opacity="1" /><path clip-path="url(#clip130)" d="M1376.93 20.3876 L1376.93 25.4223 Q1374.68 24.2649 1372.25 23.6862 Q1369.81 23.1075 1367.21 23.1075 Q1363.25 23.1075 1361.25 24.3228 Q1359.28 25.5381 1359.28 27.9686 Q1359.28 29.8204 1360.7 30.891 Q1362.12 31.9327 1366.4 32.8876 L1368.22 33.2926 Q1373.89 34.5079 1376.27 36.7359 Q1378.67 38.935 1378.67 42.8991 Q1378.67 47.4129 1375.08 50.046 Q1371.52 52.6791 1365.27 52.6791 Q1362.67 52.6791 1359.83 52.1583 Q1357.03 51.6664 1353.9 50.6537 L1353.9 45.156 Q1356.85 46.6896 1359.72 47.4708 Q1362.58 48.2231 1365.39 48.2231 Q1369.15 48.2231 1371.17 46.95 Q1373.2 45.6479 1373.2 43.3042 Q1373.2 41.134 1371.72 39.9766 Q1370.28 38.8192 1365.33 37.7486 L1363.48 37.3146 Q1358.53 36.273 1356.33 34.1318 Q1354.13 31.9616 1354.13 28.2001 Q1354.13 23.6283 1357.37 21.1399 Q1360.61 18.6515 1366.57 18.6515 Q1369.53 18.6515 1372.13 19.0855 Q1374.73 19.5196 1376.93 20.3876 Z" fill="#000000" fill-rule="nonzero" fill-opacity="1" /><path clip-path="url(#clip130)" d="M1418.77 6.87496 Q1414.9 13.53 1413.01 20.0404 Q1411.13 26.5508 1411.13 33.2348 Q1411.13 39.9188 1413.01 46.487 Q1414.92 53.0263 1418.77 59.6525 L1414.14 59.6525 Q1409.8 52.8527 1407.63 46.2845 Q1405.49 39.7162 1405.49 33.2348 Q1405.49 26.7823 1407.63 20.2429 Q1409.77 13.7036 1414.14 6.87496 L1418.77 6.87496 Z" fill="#000000" fill-rule="nonzero" fill-opacity="1" /><path clip-path="url(#clip130)" d="M1461.68 11.9675 L1461.68 18.1307 Q1458.73 15.3819 1455.38 14.0219 Q1452.05 12.662 1448.29 12.662 Q1440.88 12.662 1436.94 17.2048 Q1433.01 21.7186 1433.01 30.2834 Q1433.01 38.8192 1436.94 43.362 Q1440.88 47.8759 1448.29 47.8759 Q1452.05 47.8759 1455.38 46.516 Q1458.73 45.156 1461.68 42.4072 L1461.68 48.5125 Q1458.62 50.5958 1455.17 51.6375 Q1451.76 52.6791 1447.94 52.6791 Q1438.13 52.6791 1432.49 46.6896 Q1426.85 40.6711 1426.85 30.2834 Q1426.85 19.8668 1432.49 13.8772 Q1438.13 7.85875 1447.94 7.85875 Q1451.82 7.85875 1455.23 8.90042 Q1458.67 9.91314 1461.68 11.9675 Z" fill="#000000" fill-rule="nonzero" fill-opacity="1" /><path clip-path="url(#clip130)" d="M1470.71 8.64 L1476.56 8.64 L1476.56 26.3482 L1497.79 26.3482 L1497.79 8.64 L1503.64 8.64 L1503.64 51.84 L1497.79 51.84 L1497.79 31.2672 L1476.56 31.2672 L1476.56 51.84 L1470.71 51.84 L1470.71 8.64 Z" fill="#000000" fill-rule="nonzero" fill-opacity="1" /><path clip-path="url(#clip130)" d="M1515.27 8.64 L1523.98 8.64 L1535 38.038 L1546.09 8.64 L1554.8 8.64 L1554.8 51.84 L1549.1 51.84 L1549.1 13.9062 L1537.96 43.5356 L1532.08 43.5356 L1520.94 13.9062 L1520.94 51.84 L1515.27 51.84 L1515.27 8.64 Z" fill="#000000" fill-rule="nonzero" fill-opacity="1" /><path clip-path="url(#clip130)" d="M1566.4 8.64 L1575.11 8.64 L1586.13 38.038 L1597.22 8.64 L1605.92 8.64 L1605.92 51.84 L1600.22 51.84 L1600.22 13.9062 L1589.08 43.5356 L1583.21 43.5356 L1572.07 13.9062 L1572.07 51.84 L1566.4 51.84 L1566.4 8.64 Z" fill="#000000" fill-rule="nonzero" fill-opacity="1" /><path clip-path="url(#clip130)" d="M1614.61 33.2348 L1630.2 33.2348 L1630.2 37.9801 L1614.61 37.9801 L1614.61 33.2348 Z" fill="#000000" fill-rule="nonzero" fill-opacity="1" /><path clip-path="url(#clip130)" d="M1643.95 10.2314 L1643.95 19.4328 L1654.91 19.4328 L1654.91 23.5705 L1643.95 23.5705 L1643.95 41.163 Q1643.95 45.1271 1645.02 46.2555 Q1646.12 47.384 1649.44 47.384 L1654.91 47.384 L1654.91 51.84 L1649.44 51.84 Q1643.28 51.84 1640.94 49.5541 Q1638.59 47.2393 1638.59 41.163 L1638.59 23.5705 L1634.69 23.5705 L1634.69 19.4328 L1638.59 19.4328 L1638.59 10.2314 L1643.95 10.2314 Z" fill="#000000" fill-rule="nonzero" fill-opacity="1" /><path clip-path="url(#clip130)" d="M1663.27 44.4905 L1669.38 44.4905 L1669.38 49.4673 L1664.63 58.7265 L1660.9 58.7265 L1663.27 49.4673 L1663.27 44.4905 Z" fill="#000000" fill-rule="nonzero" fill-opacity="1" /><path clip-path="url(#clip130)" d="M1699.82 8.64 L1705.66 8.64 L1705.66 26.898 L1725.05 8.64 L1732.57 8.64 L1711.13 28.7788 L1734.11 51.84 L1726.41 51.84 L1705.66 31.0357 L1705.66 51.84 L1699.82 51.84 L1699.82 8.64 Z" fill="#000000" fill-rule="nonzero" fill-opacity="1" /><path clip-path="url(#clip130)" d="M1739.14 24.9304 L1776.24 24.9304 L1776.24 29.7915 L1739.14 29.7915 L1739.14 24.9304 M1739.14 36.7359 L1776.24 36.7359 L1776.24 41.6549 L1739.14 41.6549 L1739.14 36.7359 Z" fill="#000000" fill-rule="nonzero" fill-opacity="1" /><path clip-path="url(#clip130)" d="M1789.86 46.921 L1799.41 46.921 L1799.41 13.964 L1789.03 16.0474 L1789.03 10.7233 L1799.36 8.64 L1805.2 8.64 L1805.2 46.921 L1814.75 46.921 L1814.75 51.84 L1789.86 51.84 L1789.86 46.921 Z" fill="#000000" fill-rule="nonzero" fill-opacity="1" /><path clip-path="url(#clip130)" d="M1839.05 31.3251 Q1834.89 31.3251 1832.49 33.5531 Q1830.11 35.7811 1830.11 39.6873 Q1830.11 43.5935 1832.49 45.8215 Q1834.89 48.0495 1839.05 48.0495 Q1843.22 48.0495 1845.62 45.8215 Q1848.02 43.5646 1848.02 39.6873 Q1848.02 35.7811 1845.62 33.5531 Q1843.25 31.3251 1839.05 31.3251 M1833.21 28.8367 Q1829.45 27.9107 1827.34 25.3355 Q1825.25 22.7603 1825.25 19.0566 Q1825.25 13.8772 1828.93 10.868 Q1832.63 7.85875 1839.05 7.85875 Q1845.51 7.85875 1849.18 10.868 Q1852.86 13.8772 1852.86 19.0566 Q1852.86 22.7603 1850.74 25.3355 Q1848.66 27.9107 1844.93 28.8367 Q1849.15 29.8204 1851.5 32.685 Q1853.87 35.5496 1853.87 39.6873 Q1853.87 45.9662 1850.02 49.3227 Q1846.2 52.6791 1839.05 52.6791 Q1831.91 52.6791 1828.06 49.3227 Q1824.24 45.9662 1824.24 39.6873 Q1824.24 35.5496 1826.61 32.685 Q1828.98 29.8204 1833.21 28.8367 M1831.07 19.6064 Q1831.07 22.9628 1833.15 24.8436 Q1835.26 26.7244 1839.05 26.7244 Q1842.82 26.7244 1844.93 24.8436 Q1847.07 22.9628 1847.07 19.6064 Q1847.07 16.2499 1844.93 14.3691 Q1842.82 12.4884 1839.05 12.4884 Q1835.26 12.4884 1833.15 14.3691 Q1831.07 16.2499 1831.07 19.6064 Z" fill="#000000" fill-rule="nonzero" fill-opacity="1" /><path clip-path="url(#clip130)" d="M1862.67 6.87496 L1867.29 6.87496 Q1871.63 13.7036 1873.78 20.2429 Q1875.95 26.7823 1875.95 33.2348 Q1875.95 39.7162 1873.78 46.2845 Q1871.63 52.8527 1867.29 59.6525 L1862.67 59.6525 Q1866.51 53.0263 1868.39 46.487 Q1870.3 39.9188 1870.3 33.2348 Q1870.3 26.5508 1868.39 20.0404 Q1866.51 13.53 1862.67 6.87496 Z" fill="#000000" fill-rule="nonzero" fill-opacity="1" /><path clip-path="url(#clip132)" d="M295.201 106.192 L295.201 1423.18 L382.293 1423.18 L382.293 106.192 L295.201 106.192 L295.201 106.192  Z" fill="#4682b4" fill-rule="evenodd" fill-opacity="0.7"/>
<polyline clip-path="url(#clip132)" style="stroke:#000000; stroke-linecap:round; stroke-linejoin:round; stroke-width:4; stroke-opacity:0.7; fill:none" points="295.201,106.192 295.201,1423.18 382.293,1423.18 382.293,106.192 295.201,106.192 "/>
<path clip-path="url(#clip132)" d="M404.066 1150.44 L404.066 1423.18 L491.158 1423.18 L491.158 1150.44 L404.066 1150.44 L404.066 1150.44  Z" fill="#4682b4" fill-rule="evenodd" fill-opacity="0.7"/>
<polyline clip-path="url(#clip132)" style="stroke:#000000; stroke-linecap:round; stroke-linejoin:round; stroke-width:4; stroke-opacity:0.7; fill:none" points="404.066,1150.44 404.066,1423.18 491.158,1423.18 491.158,1150.44 404.066,1150.44 "/>
<path clip-path="url(#clip132)" d="M512.931 1117.33 L512.931 1423.18 L600.023 1423.18 L600.023 1117.33 L512.931 1117.33 L512.931 1117.33  Z" fill="#4682b4" fill-rule="evenodd" fill-opacity="0.7"/>
<polyline clip-path="url(#clip132)" style="stroke:#000000; stroke-linecap:round; stroke-linejoin:round; stroke-width:4; stroke-opacity:0.7; fill:none" points="512.931,1117.33 512.931,1423.18 600.023,1423.18 600.023,1117.33 512.931,1117.33 "/>
<path clip-path="url(#clip132)" d="M621.796 1162.25 L621.796 1423.18 L708.889 1423.18 L708.889 1162.25 L621.796 1162.25 L621.796 1162.25  Z" fill="#4682b4" fill-rule="evenodd" fill-opacity="0.7"/>
<polyline clip-path="url(#clip132)" style="stroke:#000000; stroke-linecap:round; stroke-linejoin:round; stroke-width:4; stroke-opacity:0.7; fill:none" points="621.796,1162.25 621.796,1423.18 708.889,1423.18 708.889,1162.25 621.796,1162.25 "/>
<path clip-path="url(#clip132)" d="M730.662 1114.24 L730.662 1423.18 L817.754 1423.18 L817.754 1114.24 L730.662 1114.24 L730.662 1114.24  Z" fill="#4682b4" fill-rule="evenodd" fill-opacity="0.7"/>
<polyline clip-path="url(#clip132)" style="stroke:#000000; stroke-linecap:round; stroke-linejoin:round; stroke-width:4; stroke-opacity:0.7; fill:none" points="730.662,1114.24 730.662,1423.18 817.754,1423.18 817.754,1114.24 730.662,1114.24 "/>
<path clip-path="url(#clip132)" d="M839.527 1115.52 L839.527 1423.18 L926.619 1423.18 L926.619 1115.52 L839.527 1115.52 L839.527 1115.52  Z" fill="#4682b4" fill-rule="evenodd" fill-opacity="0.7"/>
<polyline clip-path="url(#clip132)" style="stroke:#000000; stroke-linecap:round; stroke-linejoin:round; stroke-width:4; stroke-opacity:0.7; fill:none" points="839.527,1115.52 839.527,1423.18 926.619,1423.18 926.619,1115.52 839.527,1115.52 "/>
<path clip-path="url(#clip132)" d="M948.392 1120.54 L948.392 1423.18 L1035.48 1423.18 L1035.48 1120.54 L948.392 1120.54 L948.392 1120.54  Z" fill="#4682b4" fill-rule="evenodd" fill-opacity="0.7"/>
<polyline clip-path="url(#clip132)" style="stroke:#000000; stroke-linecap:round; stroke-linejoin:round; stroke-width:4; stroke-opacity:0.7; fill:none" points="948.392,1120.54 948.392,1423.18 1035.48,1423.18 1035.48,1120.54 948.392,1120.54 "/>
<path clip-path="url(#clip132)" d="M1057.26 1134.76 L1057.26 1423.18 L1144.35 1423.18 L1144.35 1134.76 L1057.26 1134.76 L1057.26 1134.76  Z" fill="#4682b4" fill-rule="evenodd" fill-opacity="0.7"/>
<polyline clip-path="url(#clip132)" style="stroke:#000000; stroke-linecap:round; stroke-linejoin:round; stroke-width:4; stroke-opacity:0.7; fill:none" points="1057.26,1134.76 1057.26,1423.18 1144.35,1423.18 1144.35,1134.76 1057.26,1134.76 "/>
<path clip-path="url(#clip132)" d="M1166.12 1110.73 L1166.12 1423.18 L1253.21 1423.18 L1253.21 1110.73 L1166.12 1110.73 L1166.12 1110.73  Z" fill="#4682b4" fill-rule="evenodd" fill-opacity="0.7"/>
<polyline clip-path="url(#clip132)" style="stroke:#000000; stroke-linecap:round; stroke-linejoin:round; stroke-width:4; stroke-opacity:0.7; fill:none" points="1166.12,1110.73 1166.12,1423.18 1253.21,1423.18 1253.21,1110.73 1166.12,1110.73 "/>
<path clip-path="url(#clip132)" d="M1274.99 1079.21 L1274.99 1423.18 L1362.08 1423.18 L1362.08 1079.21 L1274.99 1079.21 L1274.99 1079.21  Z" fill="#4682b4" fill-rule="evenodd" fill-opacity="0.7"/>
<polyline clip-path="url(#clip132)" style="stroke:#000000; stroke-linecap:round; stroke-linejoin:round; stroke-width:4; stroke-opacity:0.7; fill:none" points="1274.99,1079.21 1274.99,1423.18 1362.08,1423.18 1362.08,1079.21 1274.99,1079.21 "/>
<path clip-path="url(#clip132)" d="M1383.85 1162.17 L1383.85 1423.18 L1470.94 1423.18 L1470.94 1162.17 L1383.85 1162.17 L1383.85 1162.17  Z" fill="#4682b4" fill-rule="evenodd" fill-opacity="0.7"/>
<polyline clip-path="url(#clip132)" style="stroke:#000000; stroke-linecap:round; stroke-linejoin:round; stroke-width:4; stroke-opacity:0.7; fill:none" points="1383.85,1162.17 1383.85,1423.18 1470.94,1423.18 1470.94,1162.17 1383.85,1162.17 "/>
<path clip-path="url(#clip132)" d="M1492.72 1109.31 L1492.72 1423.18 L1579.81 1423.18 L1579.81 1109.31 L1492.72 1109.31 L1492.72 1109.31  Z" fill="#4682b4" fill-rule="evenodd" fill-opacity="0.7"/>
<polyline clip-path="url(#clip132)" style="stroke:#000000; stroke-linecap:round; stroke-linejoin:round; stroke-width:4; stroke-opacity:0.7; fill:none" points="1492.72,1109.31 1492.72,1423.18 1579.81,1423.18 1579.81,1109.31 1492.72,1109.31 "/>
<path clip-path="url(#clip132)" d="M1601.58 1144.84 L1601.58 1423.18 L1688.67 1423.18 L1688.67 1144.84 L1601.58 1144.84 L1601.58 1144.84  Z" fill="#4682b4" fill-rule="evenodd" fill-opacity="0.7"/>
<polyline clip-path="url(#clip132)" style="stroke:#000000; stroke-linecap:round; stroke-linejoin:round; stroke-width:4; stroke-opacity:0.7; fill:none" points="1601.58,1144.84 1601.58,1423.18 1688.67,1423.18 1688.67,1144.84 1601.58,1144.84 "/>
<path clip-path="url(#clip132)" d="M1710.45 1127.77 L1710.45 1423.18 L1797.54 1423.18 L1797.54 1127.77 L1710.45 1127.77 L1710.45 1127.77  Z" fill="#4682b4" fill-rule="evenodd" fill-opacity="0.7"/>
<polyline clip-path="url(#clip132)" style="stroke:#000000; stroke-linecap:round; stroke-linejoin:round; stroke-width:4; stroke-opacity:0.7; fill:none" points="1710.45,1127.77 1710.45,1423.18 1797.54,1423.18 1797.54,1127.77 1710.45,1127.77 "/>
<path clip-path="url(#clip132)" d="M1819.31 1153.86 L1819.31 1423.18 L1906.4 1423.18 L1906.4 1153.86 L1819.31 1153.86 L1819.31 1153.86  Z" fill="#4682b4" fill-rule="evenodd" fill-opacity="0.7"/>
<polyline clip-path="url(#clip132)" style="stroke:#000000; stroke-linecap:round; stroke-linejoin:round; stroke-width:4; stroke-opacity:0.7; fill:none" points="1819.31,1153.86 1819.31,1423.18 1906.4,1423.18 1906.4,1153.86 1819.31,1153.86 "/>
<path clip-path="url(#clip132)" d="M1928.18 1158.25 L1928.18 1423.18 L2015.27 1423.18 L2015.27 1158.25 L1928.18 1158.25 L1928.18 1158.25  Z" fill="#4682b4" fill-rule="evenodd" fill-opacity="0.7"/>
<polyline clip-path="url(#clip132)" style="stroke:#000000; stroke-linecap:round; stroke-linejoin:round; stroke-width:4; stroke-opacity:0.7; fill:none" points="1928.18,1158.25 1928.18,1423.18 2015.27,1423.18 2015.27,1158.25 1928.18,1158.25 "/>
<path clip-path="url(#clip132)" d="M2037.04 1162.25 L2037.04 1423.18 L2124.13 1423.18 L2124.13 1162.25 L2037.04 1162.25 L2037.04 1162.25  Z" fill="#4682b4" fill-rule="evenodd" fill-opacity="0.7"/>
<polyline clip-path="url(#clip132)" style="stroke:#000000; stroke-linecap:round; stroke-linejoin:round; stroke-width:4; stroke-opacity:0.7; fill:none" points="2037.04,1162.25 2037.04,1423.18 2124.13,1423.18 2124.13,1162.25 2037.04,1162.25 "/>
<path clip-path="url(#clip132)" d="M2145.91 995.631 L2145.91 1423.18 L2233 1423.18 L2233 995.631 L2145.91 995.631 L2145.91 995.631  Z" fill="#4682b4" fill-rule="evenodd" fill-opacity="0.7"/>
<polyline clip-path="url(#clip132)" style="stroke:#000000; stroke-linecap:round; stroke-linejoin:round; stroke-width:4; stroke-opacity:0.7; fill:none" points="2145.91,995.631 2145.91,1423.18 2233,1423.18 2233,995.631 2145.91,995.631 "/>
<circle clip-path="url(#clip132)" style="fill:#4682b4; stroke:none; fill-opacity:0" cx="338.747" cy="106.192" r="2"/>
<circle clip-path="url(#clip132)" style="fill:#4682b4; stroke:none; fill-opacity:0" cx="447.612" cy="1150.44" r="2"/>
<circle clip-path="url(#clip132)" style="fill:#4682b4; stroke:none; fill-opacity:0" cx="556.477" cy="1117.33" r="2"/>
<circle clip-path="url(#clip132)" style="fill:#4682b4; stroke:none; fill-opacity:0" cx="665.343" cy="1162.25" r="2"/>
<circle clip-path="url(#clip132)" style="fill:#4682b4; stroke:none; fill-opacity:0" cx="774.208" cy="1114.24" r="2"/>
<circle clip-path="url(#clip132)" style="fill:#4682b4; stroke:none; fill-opacity:0" cx="883.073" cy="1115.52" r="2"/>
<circle clip-path="url(#clip132)" style="fill:#4682b4; stroke:none; fill-opacity:0" cx="991.938" cy="1120.54" r="2"/>
<circle clip-path="url(#clip132)" style="fill:#4682b4; stroke:none; fill-opacity:0" cx="1100.8" cy="1134.76" r="2"/>
<circle clip-path="url(#clip132)" style="fill:#4682b4; stroke:none; fill-opacity:0" cx="1209.67" cy="1110.73" r="2"/>
<circle clip-path="url(#clip132)" style="fill:#4682b4; stroke:none; fill-opacity:0" cx="1318.53" cy="1079.21" r="2"/>
<circle clip-path="url(#clip132)" style="fill:#4682b4; stroke:none; fill-opacity:0" cx="1427.4" cy="1162.17" r="2"/>
<circle clip-path="url(#clip132)" style="fill:#4682b4; stroke:none; fill-opacity:0" cx="1536.26" cy="1109.31" r="2"/>
<circle clip-path="url(#clip132)" style="fill:#4682b4; stroke:none; fill-opacity:0" cx="1645.13" cy="1144.84" r="2"/>
<circle clip-path="url(#clip132)" style="fill:#4682b4; stroke:none; fill-opacity:0" cx="1753.99" cy="1127.77" r="2"/>
<circle clip-path="url(#clip132)" style="fill:#4682b4; stroke:none; fill-opacity:0" cx="1862.86" cy="1153.86" r="2"/>
<circle clip-path="url(#clip132)" style="fill:#4682b4; stroke:none; fill-opacity:0" cx="1971.72" cy="1158.25" r="2"/>
<circle clip-path="url(#clip132)" style="fill:#4682b4; stroke:none; fill-opacity:0" cx="2080.59" cy="1162.25" r="2"/>
<circle clip-path="url(#clip132)" style="fill:#4682b4; stroke:none; fill-opacity:0" cx="2189.45" cy="995.631" r="2"/>
</svg>
