<?xml version="1.0" encoding="utf-8"?>
<svg xmlns="http://www.w3.org/2000/svg" xmlns:xlink="http://www.w3.org/1999/xlink" width="600" height="400" viewBox="0 0 2400 1600">
<defs>
  <clipPath id="clip410">
    <rect x="0" y="0" width="2400" height="1600"/>
  </clipPath>
</defs>
<path clip-path="url(#clip410)" d="M0 1600 L2400 1600 L2400 8.88178e-14 L0 8.88178e-14  Z" fill="#ffffff" fill-rule="evenodd" fill-opacity="1"/>
<defs>
  <clipPath id="clip411">
    <rect x="96" y="914" width="2285" height="35"/>
  </clipPath>
</defs>
<path clip-path="url(#clip410)" d="M302.458 1423.18 L2352.76 1423.18 L2352.76 106.192 L302.458 106.192  Z" fill="#ffffff" fill-rule="evenodd" fill-opacity="1"/>
<defs>
  <clipPath id="clip412">
    <rect x="302" y="106" width="2051" height="1318"/>
  </clipPath>
</defs>
<polyline clip-path="url(#clip412)" style="stroke:#000000; stroke-linecap:round; stroke-linejoin:round; stroke-width:2; stroke-opacity:0.1; fill:none" points="327.702,1423.18 327.702,106.192 "/>
<polyline clip-path="url(#clip412)" style="stroke:#000000; stroke-linecap:round; stroke-linejoin:round; stroke-width:2; stroke-opacity:0.1; fill:none" points="655.54,1423.18 655.54,106.192 "/>
<polyline clip-path="url(#clip412)" style="stroke:#000000; stroke-linecap:round; stroke-linejoin:round; stroke-width:2; stroke-opacity:0.1; fill:none" points="983.377,1423.18 983.377,106.192 "/>
<polyline clip-path="url(#clip412)" style="stroke:#000000; stroke-linecap:round; stroke-linejoin:round; stroke-width:2; stroke-opacity:0.1; fill:none" points="1311.22,1423.18 1311.22,106.192 "/>
<polyline clip-path="url(#clip412)" style="stroke:#000000; stroke-linecap:round; stroke-linejoin:round; stroke-width:2; stroke-opacity:0.1; fill:none" points="1639.05,1423.18 1639.05,106.192 "/>
<polyline clip-path="url(#clip412)" style="stroke:#000000; stroke-linecap:round; stroke-linejoin:round; stroke-width:2; stroke-opacity:0.1; fill:none" points="1966.89,1423.18 1966.89,106.192 "/>
<polyline clip-path="url(#clip412)" style="stroke:#000000; stroke-linecap:round; stroke-linejoin:round; stroke-width:2; stroke-opacity:0.1; fill:none" points="2294.73,1423.18 2294.73,106.192 "/>
<polyline clip-path="url(#clip412)" style="stroke:#000000; stroke-linecap:round; stroke-linejoin:round; stroke-width:2; stroke-opacity:0.1; fill:none" points="302.458,1276.69 2352.76,1276.69 "/>
<polyline clip-path="url(#clip412)" style="stroke:#000000; stroke-linecap:round; stroke-linejoin:round; stroke-width:2; stroke-opacity:0.1; fill:none" points="302.458,1094.44 2352.76,1094.44 "/>
<polyline clip-path="url(#clip412)" style="stroke:#000000; stroke-linecap:round; stroke-linejoin:round; stroke-width:2; stroke-opacity:0.1; fill:none" points="302.458,912.193 2352.76,912.193 "/>
<polyline clip-path="url(#clip412)" style="stroke:#000000; stroke-linecap:round; stroke-linejoin:round; stroke-width:2; stroke-opacity:0.1; fill:none" points="302.458,729.942 2352.76,729.942 "/>
<polyline clip-path="url(#clip412)" style="stroke:#000000; stroke-linecap:round; stroke-linejoin:round; stroke-width:2; stroke-opacity:0.1; fill:none" points="302.458,547.692 2352.76,547.692 "/>
<polyline clip-path="url(#clip412)" style="stroke:#000000; stroke-linecap:round; stroke-linejoin:round; stroke-width:2; stroke-opacity:0.1; fill:none" points="302.458,365.442 2352.76,365.442 "/>
<polyline clip-path="url(#clip412)" style="stroke:#000000; stroke-linecap:round; stroke-linejoin:round; stroke-width:2; stroke-opacity:0.1; fill:none" points="302.458,183.192 2352.76,183.192 "/>
<polyline clip-path="url(#clip410)" style="stroke:#000000; stroke-linecap:round; stroke-linejoin:round; stroke-width:4; stroke-opacity:1; fill:none" points="302.458,1423.18 2352.76,1423.18 "/>
<polyline clip-path="url(#clip410)" style="stroke:#000000; stroke-linecap:round; stroke-linejoin:round; stroke-width:4; stroke-opacity:1; fill:none" points="327.702,1423.18 327.702,1404.28 "/>
<polyline clip-path="url(#clip410)" style="stroke:#000000; stroke-linecap:round; stroke-linejoin:round; stroke-width:4; stroke-opacity:1; fill:none" points="655.54,1423.18 655.54,1404.28 "/>
<polyline clip-path="url(#clip410)" style="stroke:#000000; stroke-linecap:round; stroke-linejoin:round; stroke-width:4; stroke-opacity:1; fill:none" points="983.377,1423.18 983.377,1404.28 "/>
<polyline clip-path="url(#clip410)" style="stroke:#000000; stroke-linecap:round; stroke-linejoin:round; stroke-width:4; stroke-opacity:1; fill:none" points="1311.22,1423.18 1311.22,1404.28 "/>
<polyline clip-path="url(#clip410)" style="stroke:#000000; stroke-linecap:round; stroke-linejoin:round; stroke-width:4; stroke-opacity:1; fill:none" points="1639.05,1423.18 1639.05,1404.28 "/>
<polyline clip-path="url(#clip410)" style="stroke:#000000; stroke-linecap:round; stroke-linejoin:round; stroke-width:4; stroke-opacity:1; fill:none" points="1966.89,1423.18 1966.89,1404.28 "/>
<polyline clip-path="url(#clip410)" style="stroke:#000000; stroke-linecap:round; stroke-linejoin:round; stroke-width:4; stroke-opacity:1; fill:none" points="2294.73,1423.18 2294.73,1404.28 "/>
<path clip-path="url(#clip410)" d="M327.702 1454.1 Q324.091 1454.1 322.262 1457.66 Q320.457 1461.2 320.457 1468.33 Q320.457 1475.44 322.262 1479.01 Q324.091 1482.55 327.702 1482.55 Q331.336 1482.55 333.142 1479.01 Q334.97 1475.44 334.97 1468.33 Q334.97 1461.2 333.142 1457.66 Q331.336 1454.1 327.702 1454.1 M327.702 1450.39 Q333.512 1450.39 336.568 1455 Q339.646 1459.58 339.646 1468.33 Q339.646 1477.06 336.568 1481.67 Q333.512 1486.25 327.702 1486.25 Q321.892 1486.25 318.813 1481.67 Q315.758 1477.06 315.758 1468.33 Q315.758 1459.58 318.813 1455 Q321.892 1450.39 327.702 1450.39 Z" fill="#000000" fill-rule="nonzero" fill-opacity="1" /><path clip-path="url(#clip410)" d="M630.227 1481.64 L637.866 1481.64 L637.866 1455.28 L629.556 1456.95 L629.556 1452.69 L637.82 1451.02 L642.496 1451.02 L642.496 1481.64 L650.135 1481.64 L650.135 1485.58 L630.227 1485.58 L630.227 1481.64 Z" fill="#000000" fill-rule="nonzero" fill-opacity="1" /><path clip-path="url(#clip410)" d="M669.579 1454.1 Q665.968 1454.1 664.139 1457.66 Q662.334 1461.2 662.334 1468.33 Q662.334 1475.44 664.139 1479.01 Q665.968 1482.55 669.579 1482.55 Q673.213 1482.55 675.019 1479.01 Q676.847 1475.44 676.847 1468.33 Q676.847 1461.2 675.019 1457.66 Q673.213 1454.1 669.579 1454.1 M669.579 1450.39 Q675.389 1450.39 678.445 1455 Q681.523 1459.58 681.523 1468.33 Q681.523 1477.06 678.445 1481.67 Q675.389 1486.25 669.579 1486.25 Q663.769 1486.25 660.69 1481.67 Q657.635 1477.06 657.635 1468.33 Q657.635 1459.58 660.69 1455 Q663.769 1450.39 669.579 1450.39 Z" fill="#000000" fill-rule="nonzero" fill-opacity="1" /><path clip-path="url(#clip410)" d="M962.151 1481.64 L978.47 1481.64 L978.47 1485.58 L956.526 1485.58 L956.526 1481.64 Q959.188 1478.89 963.771 1474.26 Q968.378 1469.61 969.558 1468.27 Q971.803 1465.74 972.683 1464.01 Q973.586 1462.25 973.586 1460.56 Q973.586 1457.8 971.641 1456.07 Q969.72 1454.33 966.618 1454.33 Q964.419 1454.33 961.966 1455.09 Q959.535 1455.86 956.757 1457.41 L956.757 1452.69 Q959.581 1451.55 962.035 1450.97 Q964.489 1450.39 966.526 1450.39 Q971.896 1450.39 975.09 1453.08 Q978.285 1455.77 978.285 1460.26 Q978.285 1462.39 977.475 1464.31 Q976.688 1466.2 974.581 1468.8 Q974.003 1469.47 970.901 1472.69 Q967.799 1475.88 962.151 1481.64 Z" fill="#000000" fill-rule="nonzero" fill-opacity="1" /><path clip-path="url(#clip410)" d="M998.285 1454.1 Q994.674 1454.1 992.845 1457.66 Q991.039 1461.2 991.039 1468.33 Q991.039 1475.44 992.845 1479.01 Q994.674 1482.55 998.285 1482.55 Q1001.92 1482.55 1003.72 1479.01 Q1005.55 1475.44 1005.55 1468.33 Q1005.55 1461.2 1003.72 1457.66 Q1001.92 1454.1 998.285 1454.1 M998.285 1450.39 Q1004.09 1450.39 1007.15 1455 Q1010.23 1459.58 1010.23 1468.33 Q1010.23 1477.06 1007.15 1481.67 Q1004.09 1486.25 998.285 1486.25 Q992.475 1486.25 989.396 1481.67 Q986.34 1477.06 986.34 1468.33 Q986.34 1459.58 989.396 1455 Q992.475 1450.39 998.285 1450.39 Z" fill="#000000" fill-rule="nonzero" fill-opacity="1" /><path clip-path="url(#clip410)" d="M1300.06 1466.95 Q1303.41 1467.66 1305.29 1469.93 Q1307.19 1472.2 1307.19 1475.53 Q1307.19 1480.65 1303.67 1483.45 Q1300.15 1486.25 1293.67 1486.25 Q1291.49 1486.25 1289.18 1485.81 Q1286.89 1485.39 1284.43 1484.54 L1284.43 1480.02 Q1286.38 1481.16 1288.69 1481.74 Q1291.01 1482.32 1293.53 1482.32 Q1297.93 1482.32 1300.22 1480.58 Q1302.53 1478.84 1302.53 1475.53 Q1302.53 1472.48 1300.38 1470.77 Q1298.25 1469.03 1294.43 1469.03 L1290.41 1469.03 L1290.41 1465.19 L1294.62 1465.19 Q1298.07 1465.19 1299.9 1463.82 Q1301.72 1462.43 1301.72 1459.84 Q1301.72 1457.18 1299.83 1455.77 Q1297.95 1454.33 1294.43 1454.33 Q1292.51 1454.33 1290.31 1454.75 Q1288.11 1455.16 1285.47 1456.04 L1285.47 1451.88 Q1288.14 1451.14 1290.45 1450.77 Q1292.79 1450.39 1294.85 1450.39 Q1300.17 1450.39 1303.28 1452.83 Q1306.38 1455.23 1306.38 1459.35 Q1306.38 1462.22 1304.73 1464.21 Q1303.09 1466.18 1300.06 1466.95 Z" fill="#000000" fill-rule="nonzero" fill-opacity="1" /><path clip-path="url(#clip410)" d="M1326.05 1454.1 Q1322.44 1454.1 1320.61 1457.66 Q1318.81 1461.2 1318.81 1468.33 Q1318.81 1475.44 1320.61 1479.01 Q1322.44 1482.55 1326.05 1482.55 Q1329.69 1482.55 1331.49 1479.01 Q1333.32 1475.44 1333.32 1468.33 Q1333.32 1461.2 1331.49 1457.66 Q1329.69 1454.1 1326.05 1454.1 M1326.05 1450.39 Q1331.86 1450.39 1334.92 1455 Q1338 1459.58 1338 1468.33 Q1338 1477.06 1334.92 1481.67 Q1331.86 1486.25 1326.05 1486.25 Q1320.24 1486.25 1317.16 1481.67 Q1314.11 1477.06 1314.11 1468.33 Q1314.11 1459.58 1317.16 1455 Q1320.24 1450.39 1326.05 1450.39 Z" fill="#000000" fill-rule="nonzero" fill-opacity="1" /><path clip-path="url(#clip410)" d="M1627.22 1455.09 L1615.42 1473.54 L1627.22 1473.54 L1627.22 1455.09 M1626 1451.02 L1631.88 1451.02 L1631.88 1473.54 L1636.81 1473.54 L1636.81 1477.43 L1631.88 1477.43 L1631.88 1485.58 L1627.22 1485.58 L1627.22 1477.43 L1611.62 1477.43 L1611.62 1472.92 L1626 1451.02 Z" fill="#000000" fill-rule="nonzero" fill-opacity="1" /><path clip-path="url(#clip410)" d="M1654.54 1454.1 Q1650.93 1454.1 1649.1 1457.66 Q1647.29 1461.2 1647.29 1468.33 Q1647.29 1475.44 1649.1 1479.01 Q1650.93 1482.55 1654.54 1482.55 Q1658.17 1482.55 1659.98 1479.01 Q1661.81 1475.44 1661.81 1468.33 Q1661.81 1461.2 1659.98 1457.66 Q1658.17 1454.1 1654.54 1454.1 M1654.54 1450.39 Q1660.35 1450.39 1663.4 1455 Q1666.48 1459.58 1666.48 1468.33 Q1666.48 1477.06 1663.4 1481.67 Q1660.35 1486.25 1654.54 1486.25 Q1648.73 1486.25 1645.65 1481.67 Q1642.59 1477.06 1642.59 1468.33 Q1642.59 1459.58 1645.65 1455 Q1648.73 1450.39 1654.54 1450.39 Z" fill="#000000" fill-rule="nonzero" fill-opacity="1" /><path clip-path="url(#clip410)" d="M1941.59 1451.02 L1959.95 1451.02 L1959.95 1454.96 L1945.87 1454.96 L1945.87 1463.43 Q1946.89 1463.08 1947.91 1462.92 Q1948.93 1462.73 1949.95 1462.73 Q1955.73 1462.73 1959.11 1465.9 Q1962.49 1469.08 1962.49 1474.49 Q1962.49 1480.07 1959.02 1483.17 Q1955.55 1486.25 1949.23 1486.25 Q1947.05 1486.25 1944.78 1485.88 Q1942.54 1485.51 1940.13 1484.77 L1940.13 1480.07 Q1942.22 1481.2 1944.44 1481.76 Q1946.66 1482.32 1949.14 1482.32 Q1953.14 1482.32 1955.48 1480.21 Q1957.82 1478.1 1957.82 1474.49 Q1957.82 1470.88 1955.48 1468.77 Q1953.14 1466.67 1949.14 1466.67 Q1947.26 1466.67 1945.39 1467.08 Q1943.53 1467.5 1941.59 1468.38 L1941.59 1451.02 Z" fill="#000000" fill-rule="nonzero" fill-opacity="1" /><path clip-path="url(#clip410)" d="M1981.71 1454.1 Q1978.09 1454.1 1976.27 1457.66 Q1974.46 1461.2 1974.46 1468.33 Q1974.46 1475.44 1976.27 1479.01 Q1978.09 1482.55 1981.71 1482.55 Q1985.34 1482.55 1987.15 1479.01 Q1988.97 1475.44 1988.97 1468.33 Q1988.97 1461.2 1987.15 1457.66 Q1985.34 1454.1 1981.71 1454.1 M1981.71 1450.39 Q1987.52 1450.39 1990.57 1455 Q1993.65 1459.58 1993.65 1468.33 Q1993.65 1477.06 1990.57 1481.67 Q1987.52 1486.25 1981.71 1486.25 Q1975.9 1486.25 1972.82 1481.67 Q1969.76 1477.06 1969.76 1468.33 Q1969.76 1459.58 1972.82 1455 Q1975.9 1450.39 1981.71 1450.39 Z" fill="#000000" fill-rule="nonzero" fill-opacity="1" /><path clip-path="url(#clip410)" d="M2280.13 1466.44 Q2276.99 1466.44 2275.13 1468.59 Q2273.31 1470.74 2273.31 1474.49 Q2273.31 1478.22 2275.13 1480.39 Q2276.99 1482.55 2280.13 1482.55 Q2283.28 1482.55 2285.11 1480.39 Q2286.96 1478.22 2286.96 1474.49 Q2286.96 1470.74 2285.11 1468.59 Q2283.28 1466.44 2280.13 1466.44 M2289.42 1451.78 L2289.42 1456.04 Q2287.66 1455.21 2285.85 1454.77 Q2284.07 1454.33 2282.31 1454.33 Q2277.68 1454.33 2275.23 1457.45 Q2272.8 1460.58 2272.45 1466.9 Q2273.81 1464.89 2275.87 1463.82 Q2277.93 1462.73 2280.41 1462.73 Q2285.62 1462.73 2288.63 1465.9 Q2291.66 1469.05 2291.66 1474.49 Q2291.66 1479.82 2288.51 1483.03 Q2285.37 1486.25 2280.13 1486.25 Q2274.14 1486.25 2270.97 1481.67 Q2267.8 1477.06 2267.8 1468.33 Q2267.8 1460.14 2271.68 1455.28 Q2275.57 1450.39 2282.12 1450.39 Q2283.88 1450.39 2285.67 1450.74 Q2287.47 1451.09 2289.42 1451.78 Z" fill="#000000" fill-rule="nonzero" fill-opacity="1" /><path clip-path="url(#clip410)" d="M2309.72 1454.1 Q2306.11 1454.1 2304.28 1457.66 Q2302.47 1461.2 2302.47 1468.33 Q2302.47 1475.44 2304.28 1479.01 Q2306.11 1482.55 2309.72 1482.55 Q2313.35 1482.55 2315.16 1479.01 Q2316.99 1475.44 2316.99 1468.33 Q2316.99 1461.2 2315.16 1457.66 Q2313.35 1454.1 2309.72 1454.1 M2309.72 1450.39 Q2315.53 1450.39 2318.58 1455 Q2321.66 1459.58 2321.66 1468.33 Q2321.66 1477.06 2318.58 1481.67 Q2315.53 1486.25 2309.72 1486.25 Q2303.91 1486.25 2300.83 1481.67 Q2297.77 1477.06 2297.77 1468.33 Q2297.77 1459.58 2300.83 1455 Q2303.91 1450.39 2309.72 1450.39 Z" fill="#000000" fill-rule="nonzero" fill-opacity="1" /><path clip-path="url(#clip410)" d="M1195.33 1520.52 L1201.76 1520.52 L1201.76 1568.04 L1195.33 1568.04 L1195.33 1520.52 Z" fill="#000000" fill-rule="nonzero" fill-opacity="1" /><path clip-path="url(#clip410)" d="M1220.09 1522.27 L1220.09 1532.4 L1232.15 1532.4 L1232.15 1536.95 L1220.09 1536.95 L1220.09 1556.3 Q1220.09 1560.66 1221.27 1561.9 Q1222.48 1563.14 1226.14 1563.14 L1232.15 1563.14 L1232.15 1568.04 L1226.14 1568.04 Q1219.36 1568.04 1216.78 1565.53 Q1214.2 1562.98 1214.2 1556.3 L1214.2 1536.95 L1209.91 1536.95 L1209.91 1532.4 L1214.2 1532.4 L1214.2 1522.27 L1220.09 1522.27 Z" fill="#000000" fill-rule="nonzero" fill-opacity="1" /><path clip-path="url(#clip410)" d="M1270.35 1548.76 L1270.35 1551.62 L1243.42 1551.62 Q1243.8 1557.67 1247.05 1560.85 Q1250.33 1564 1256.15 1564 Q1259.53 1564 1262.68 1563.17 Q1265.86 1562.35 1268.98 1560.69 L1268.98 1566.23 Q1265.83 1567.57 1262.52 1568.27 Q1259.21 1568.97 1255.8 1568.97 Q1247.27 1568.97 1242.27 1564 Q1237.31 1559.04 1237.31 1550.57 Q1237.31 1541.82 1242.02 1536.69 Q1246.76 1531.54 1254.78 1531.54 Q1261.98 1531.54 1266.15 1536.18 Q1270.35 1540.8 1270.35 1548.76 M1264.49 1547.04 Q1264.43 1542.23 1261.79 1539.37 Q1259.18 1536.5 1254.85 1536.5 Q1249.95 1536.5 1246.99 1539.27 Q1244.06 1542.04 1243.61 1547.07 L1264.49 1547.04 Z" fill="#000000" fill-rule="nonzero" fill-opacity="1" /><path clip-path="url(#clip410)" d="M1300.62 1537.87 Q1299.63 1537.3 1298.45 1537.04 Q1297.31 1536.76 1295.91 1536.76 Q1290.94 1536.76 1288.27 1540 Q1285.63 1543.22 1285.63 1549.27 L1285.63 1568.04 L1279.74 1568.04 L1279.74 1532.4 L1285.63 1532.4 L1285.63 1537.93 Q1287.47 1534.69 1290.43 1533.13 Q1293.39 1531.54 1297.62 1531.54 Q1298.23 1531.54 1298.96 1531.63 Q1299.69 1531.7 1300.58 1531.85 L1300.62 1537.87 Z" fill="#000000" fill-rule="nonzero" fill-opacity="1" /><path clip-path="url(#clip410)" d="M1322.96 1550.12 Q1315.86 1550.12 1313.13 1551.75 Q1310.39 1553.37 1310.39 1557.29 Q1310.39 1560.4 1312.42 1562.25 Q1314.49 1564.07 1318.03 1564.07 Q1322.9 1564.07 1325.82 1560.63 Q1328.78 1557.16 1328.78 1551.43 L1328.78 1550.12 L1322.96 1550.12 M1334.64 1547.71 L1334.64 1568.04 L1328.78 1568.04 L1328.78 1562.63 Q1326.78 1565.88 1323.79 1567.44 Q1320.8 1568.97 1316.47 1568.97 Q1310.99 1568.97 1307.75 1565.91 Q1304.53 1562.82 1304.53 1557.67 Q1304.53 1551.65 1308.54 1548.6 Q1312.58 1545.54 1320.57 1545.54 L1328.78 1545.54 L1328.78 1544.97 Q1328.78 1540.93 1326.11 1538.73 Q1323.47 1536.5 1318.66 1536.5 Q1315.61 1536.5 1312.71 1537.23 Q1309.82 1537.97 1307.14 1539.43 L1307.14 1534.02 Q1310.36 1532.78 1313.38 1532.17 Q1316.4 1531.54 1319.27 1531.54 Q1327 1531.54 1330.82 1535.55 Q1334.64 1539.56 1334.64 1547.71 Z" fill="#000000" fill-rule="nonzero" fill-opacity="1" /><path clip-path="url(#clip410)" d="M1352.5 1522.27 L1352.5 1532.4 L1364.56 1532.4 L1364.56 1536.95 L1352.5 1536.95 L1352.5 1556.3 Q1352.5 1560.66 1353.67 1561.9 Q1354.88 1563.14 1358.54 1563.14 L1364.56 1563.14 L1364.56 1568.04 L1358.54 1568.04 Q1351.77 1568.04 1349.19 1565.53 Q1346.61 1562.98 1346.61 1556.3 L1346.61 1536.95 L1342.31 1536.95 L1342.31 1532.4 L1346.61 1532.4 L1346.61 1522.27 L1352.5 1522.27 Z" fill="#000000" fill-rule="nonzero" fill-opacity="1" /><path clip-path="url(#clip410)" d="M1372.26 1532.4 L1378.12 1532.4 L1378.12 1568.04 L1372.26 1568.04 L1372.26 1532.4 M1372.26 1518.52 L1378.12 1518.52 L1378.12 1525.93 L1372.26 1525.93 L1372.26 1518.52 Z" fill="#000000" fill-rule="nonzero" fill-opacity="1" /><path clip-path="url(#clip410)" d="M1404.19 1536.5 Q1399.48 1536.5 1396.74 1540.19 Q1394 1543.85 1394 1550.25 Q1394 1556.65 1396.71 1560.34 Q1399.44 1564 1404.19 1564 Q1408.87 1564 1411.6 1560.31 Q1414.34 1556.62 1414.34 1550.25 Q1414.34 1543.92 1411.6 1540.23 Q1408.87 1536.5 1404.19 1536.5 M1404.19 1531.54 Q1411.83 1531.54 1416.19 1536.5 Q1420.55 1541.47 1420.55 1550.25 Q1420.55 1559 1416.19 1564 Q1411.83 1568.97 1404.19 1568.97 Q1396.52 1568.97 1392.16 1564 Q1387.83 1559 1387.83 1550.25 Q1387.83 1541.47 1392.16 1536.5 Q1396.52 1531.54 1404.19 1531.54 Z" fill="#000000" fill-rule="nonzero" fill-opacity="1" /><path clip-path="url(#clip410)" d="M1459.89 1546.53 L1459.89 1568.04 L1454.03 1568.04 L1454.03 1546.72 Q1454.03 1541.66 1452.06 1539.14 Q1450.08 1536.63 1446.14 1536.63 Q1441.39 1536.63 1438.66 1539.65 Q1435.92 1542.68 1435.92 1547.9 L1435.92 1568.04 L1430.03 1568.04 L1430.03 1532.4 L1435.92 1532.4 L1435.92 1537.93 Q1438.02 1534.72 1440.85 1533.13 Q1443.72 1531.54 1447.44 1531.54 Q1453.58 1531.54 1456.74 1535.36 Q1459.89 1539.14 1459.89 1546.53 Z" fill="#000000" fill-rule="nonzero" fill-opacity="1" /><polyline clip-path="url(#clip410)" style="stroke:#000000; stroke-linecap:round; stroke-linejoin:round; stroke-width:4; stroke-opacity:1; fill:none" points="302.458,1423.18 302.458,106.192 "/>
<polyline clip-path="url(#clip410)" style="stroke:#000000; stroke-linecap:round; stroke-linejoin:round; stroke-width:4; stroke-opacity:1; fill:none" points="302.458,1276.69 321.356,1276.69 "/>
<polyline clip-path="url(#clip410)" style="stroke:#000000; stroke-linecap:round; stroke-linejoin:round; stroke-width:4; stroke-opacity:1; fill:none" points="302.458,1094.44 321.356,1094.44 "/>
<polyline clip-path="url(#clip410)" style="stroke:#000000; stroke-linecap:round; stroke-linejoin:round; stroke-width:4; stroke-opacity:1; fill:none" points="302.458,912.193 321.356,912.193 "/>
<polyline clip-path="url(#clip410)" style="stroke:#000000; stroke-linecap:round; stroke-linejoin:round; stroke-width:4; stroke-opacity:1; fill:none" points="302.458,729.942 321.356,729.942 "/>
<polyline clip-path="url(#clip410)" style="stroke:#000000; stroke-linecap:round; stroke-linejoin:round; stroke-width:4; stroke-opacity:1; fill:none" points="302.458,547.692 321.356,547.692 "/>
<polyline clip-path="url(#clip410)" style="stroke:#000000; stroke-linecap:round; stroke-linejoin:round; stroke-width:4; stroke-opacity:1; fill:none" points="302.458,365.442 321.356,365.442 "/>
<polyline clip-path="url(#clip410)" style="stroke:#000000; stroke-linecap:round; stroke-linejoin:round; stroke-width:4; stroke-opacity:1; fill:none" points="302.458,183.192 321.356,183.192 "/>
<path clip-path="url(#clip410)" d="M114.26 1277.14 L143.936 1277.14 L143.936 1281.08 L114.26 1281.08 L114.26 1277.14 Z" fill="#000000" fill-rule="nonzero" fill-opacity="1" /><path clip-path="url(#clip410)" d="M154.075 1259.41 L172.431 1259.41 L172.431 1263.35 L158.357 1263.35 L158.357 1271.82 Q159.376 1271.47 160.394 1271.31 Q161.413 1271.13 162.431 1271.13 Q168.218 1271.13 171.598 1274.3 Q174.977 1277.47 174.977 1282.88 Q174.977 1288.46 171.505 1291.57 Q168.033 1294.64 161.714 1294.64 Q159.538 1294.64 157.269 1294.27 Q155.024 1293.9 152.616 1293.16 L152.616 1288.46 Q154.7 1289.6 156.922 1290.15 Q159.144 1290.71 161.621 1290.71 Q165.626 1290.71 167.964 1288.6 Q170.302 1286.5 170.302 1282.88 Q170.302 1279.27 167.964 1277.17 Q165.626 1275.06 161.621 1275.06 Q159.746 1275.06 157.871 1275.48 Q156.019 1275.89 154.075 1276.77 L154.075 1259.41 Z" fill="#000000" fill-rule="nonzero" fill-opacity="1" /><path clip-path="url(#clip410)" d="M194.19 1277.56 Q190.857 1277.56 188.936 1279.34 Q187.038 1281.13 187.038 1284.25 Q187.038 1287.38 188.936 1289.16 Q190.857 1290.94 194.19 1290.94 Q197.524 1290.94 199.445 1289.16 Q201.366 1287.35 201.366 1284.25 Q201.366 1281.13 199.445 1279.34 Q197.547 1277.56 194.19 1277.56 M189.514 1275.57 Q186.505 1274.83 184.815 1272.77 Q183.149 1270.71 183.149 1267.75 Q183.149 1263.6 186.088 1261.2 Q189.051 1258.79 194.19 1258.79 Q199.352 1258.79 202.292 1261.2 Q205.232 1263.6 205.232 1267.75 Q205.232 1270.71 203.542 1272.77 Q201.875 1274.83 198.889 1275.57 Q202.269 1276.36 204.144 1278.65 Q206.042 1280.94 206.042 1284.25 Q206.042 1289.27 202.963 1291.96 Q199.908 1294.64 194.19 1294.64 Q188.473 1294.64 185.394 1291.96 Q182.338 1289.27 182.338 1284.25 Q182.338 1280.94 184.237 1278.65 Q186.135 1276.36 189.514 1275.57 M187.801 1268.19 Q187.801 1270.87 189.468 1272.38 Q191.158 1273.88 194.19 1273.88 Q197.2 1273.88 198.889 1272.38 Q200.602 1270.87 200.602 1268.19 Q200.602 1265.5 198.889 1264 Q197.2 1262.49 194.19 1262.49 Q191.158 1262.49 189.468 1264 Q187.801 1265.5 187.801 1268.19 Z" fill="#000000" fill-rule="nonzero" fill-opacity="1" /><path clip-path="url(#clip410)" d="M224.352 1262.49 Q220.741 1262.49 218.912 1266.06 Q217.107 1269.6 217.107 1276.73 Q217.107 1283.83 218.912 1287.4 Q220.741 1290.94 224.352 1290.94 Q227.986 1290.94 229.792 1287.4 Q231.621 1283.83 231.621 1276.73 Q231.621 1269.6 229.792 1266.06 Q227.986 1262.49 224.352 1262.49 M224.352 1258.79 Q230.162 1258.79 233.218 1263.39 Q236.297 1267.98 236.297 1276.73 Q236.297 1285.45 233.218 1290.06 Q230.162 1294.64 224.352 1294.64 Q218.542 1294.64 215.463 1290.06 Q212.408 1285.45 212.408 1276.73 Q212.408 1267.98 215.463 1263.39 Q218.542 1258.79 224.352 1258.79 Z" fill="#000000" fill-rule="nonzero" fill-opacity="1" /><path clip-path="url(#clip410)" d="M254.514 1262.49 Q250.903 1262.49 249.074 1266.06 Q247.269 1269.6 247.269 1276.73 Q247.269 1283.83 249.074 1287.4 Q250.903 1290.94 254.514 1290.94 Q258.148 1290.94 259.954 1287.4 Q261.783 1283.83 261.783 1276.73 Q261.783 1269.6 259.954 1266.06 Q258.148 1262.49 254.514 1262.49 M254.514 1258.79 Q260.324 1258.79 263.38 1263.39 Q266.458 1267.98 266.458 1276.73 Q266.458 1285.45 263.38 1290.06 Q260.324 1294.64 254.514 1294.64 Q248.704 1294.64 245.625 1290.06 Q242.57 1285.45 242.57 1276.73 Q242.57 1267.98 245.625 1263.39 Q248.704 1258.79 254.514 1258.79 Z" fill="#000000" fill-rule="nonzero" fill-opacity="1" /><path clip-path="url(#clip410)" d="M114.26 1094.89 L143.936 1094.89 L143.936 1098.83 L114.26 1098.83 L114.26 1094.89 Z" fill="#000000" fill-rule="nonzero" fill-opacity="1" /><path clip-path="url(#clip410)" d="M154.075 1077.16 L172.431 1077.16 L172.431 1081.1 L158.357 1081.1 L158.357 1089.57 Q159.376 1089.22 160.394 1089.06 Q161.413 1088.88 162.431 1088.88 Q168.218 1088.88 171.598 1092.05 Q174.977 1095.22 174.977 1100.63 Q174.977 1106.21 171.505 1109.32 Q168.033 1112.39 161.714 1112.39 Q159.538 1112.39 157.269 1112.02 Q155.024 1111.65 152.616 1110.91 L152.616 1106.21 Q154.7 1107.35 156.922 1107.9 Q159.144 1108.46 161.621 1108.46 Q165.626 1108.46 167.964 1106.35 Q170.302 1104.25 170.302 1100.63 Q170.302 1097.02 167.964 1094.92 Q165.626 1092.81 161.621 1092.81 Q159.746 1092.81 157.871 1093.23 Q156.019 1093.64 154.075 1094.52 L154.075 1077.16 Z" fill="#000000" fill-rule="nonzero" fill-opacity="1" /><path clip-path="url(#clip410)" d="M183.01 1077.16 L205.232 1077.16 L205.232 1079.15 L192.686 1111.72 L187.801 1111.72 L199.607 1081.1 L183.01 1081.1 L183.01 1077.16 Z" fill="#000000" fill-rule="nonzero" fill-opacity="1" /><path clip-path="url(#clip410)" d="M224.352 1080.24 Q220.741 1080.24 218.912 1083.81 Q217.107 1087.35 217.107 1094.48 Q217.107 1101.58 218.912 1105.15 Q220.741 1108.69 224.352 1108.69 Q227.986 1108.69 229.792 1105.15 Q231.621 1101.58 231.621 1094.48 Q231.621 1087.35 229.792 1083.81 Q227.986 1080.24 224.352 1080.24 M224.352 1076.54 Q230.162 1076.54 233.218 1081.14 Q236.297 1085.73 236.297 1094.48 Q236.297 1103.2 233.218 1107.81 Q230.162 1112.39 224.352 1112.39 Q218.542 1112.39 215.463 1107.81 Q212.408 1103.2 212.408 1094.48 Q212.408 1085.73 215.463 1081.14 Q218.542 1076.54 224.352 1076.54 Z" fill="#000000" fill-rule="nonzero" fill-opacity="1" /><path clip-path="url(#clip410)" d="M254.514 1080.24 Q250.903 1080.24 249.074 1083.81 Q247.269 1087.35 247.269 1094.48 Q247.269 1101.58 249.074 1105.15 Q250.903 1108.69 254.514 1108.69 Q258.148 1108.69 259.954 1105.15 Q261.783 1101.58 261.783 1094.48 Q261.783 1087.35 259.954 1083.81 Q258.148 1080.24 254.514 1080.24 M254.514 1076.54 Q260.324 1076.54 263.38 1081.14 Q266.458 1085.73 266.458 1094.48 Q266.458 1103.2 263.38 1107.81 Q260.324 1112.39 254.514 1112.39 Q248.704 1112.39 245.625 1107.81 Q242.57 1103.2 242.57 1094.48 Q242.57 1085.73 245.625 1081.14 Q248.704 1076.54 254.514 1076.54 Z" fill="#000000" fill-rule="nonzero" fill-opacity="1" /><path clip-path="url(#clip410)" d="M114.26 912.644 L143.936 912.644 L143.936 916.579 L114.26 916.579 L114.26 912.644 Z" fill="#000000" fill-rule="nonzero" fill-opacity="1" /><path clip-path="url(#clip410)" d="M154.075 894.913 L172.431 894.913 L172.431 898.848 L158.357 898.848 L158.357 907.32 Q159.376 906.973 160.394 906.811 Q161.413 906.625 162.431 906.625 Q168.218 906.625 171.598 909.797 Q174.977 912.968 174.977 918.385 Q174.977 923.963 171.505 927.065 Q168.033 930.144 161.714 930.144 Q159.538 930.144 157.269 929.774 Q155.024 929.403 152.616 928.662 L152.616 923.963 Q154.7 925.098 156.922 925.653 Q159.144 926.209 161.621 926.209 Q165.626 926.209 167.964 924.102 Q170.302 921.996 170.302 918.385 Q170.302 914.774 167.964 912.667 Q165.626 910.561 161.621 910.561 Q159.746 910.561 157.871 910.977 Q156.019 911.394 154.075 912.274 L154.075 894.913 Z" fill="#000000" fill-rule="nonzero" fill-opacity="1" /><path clip-path="url(#clip410)" d="M194.769 910.329 Q191.621 910.329 189.769 912.482 Q187.94 914.635 187.94 918.385 Q187.94 922.112 189.769 924.287 Q191.621 926.44 194.769 926.44 Q197.917 926.44 199.746 924.287 Q201.598 922.112 201.598 918.385 Q201.598 914.635 199.746 912.482 Q197.917 910.329 194.769 910.329 M204.051 895.676 L204.051 899.936 Q202.292 899.102 200.487 898.663 Q198.704 898.223 196.945 898.223 Q192.315 898.223 189.862 901.348 Q187.431 904.473 187.084 910.792 Q188.45 908.778 190.51 907.713 Q192.57 906.625 195.047 906.625 Q200.255 906.625 203.264 909.797 Q206.297 912.945 206.297 918.385 Q206.297 923.709 203.149 926.926 Q200 930.144 194.769 930.144 Q188.774 930.144 185.602 925.561 Q182.431 920.954 182.431 912.227 Q182.431 904.033 186.32 899.172 Q190.209 894.288 196.76 894.288 Q198.519 894.288 200.301 894.635 Q202.107 894.982 204.051 895.676 Z" fill="#000000" fill-rule="nonzero" fill-opacity="1" /><path clip-path="url(#clip410)" d="M224.352 897.991 Q220.741 897.991 218.912 901.556 Q217.107 905.098 217.107 912.227 Q217.107 919.334 218.912 922.899 Q220.741 926.44 224.352 926.44 Q227.986 926.44 229.792 922.899 Q231.621 919.334 231.621 912.227 Q231.621 905.098 229.792 901.556 Q227.986 897.991 224.352 897.991 M224.352 894.288 Q230.162 894.288 233.218 898.894 Q236.297 903.477 236.297 912.227 Q236.297 920.954 233.218 925.561 Q230.162 930.144 224.352 930.144 Q218.542 930.144 215.463 925.561 Q212.408 920.954 212.408 912.227 Q212.408 903.477 215.463 898.894 Q218.542 894.288 224.352 894.288 Z" fill="#000000" fill-rule="nonzero" fill-opacity="1" /><path clip-path="url(#clip410)" d="M254.514 897.991 Q250.903 897.991 249.074 901.556 Q247.269 905.098 247.269 912.227 Q247.269 919.334 249.074 922.899 Q250.903 926.44 254.514 926.44 Q258.148 926.44 259.954 922.899 Q261.783 919.334 261.783 912.227 Q261.783 905.098 259.954 901.556 Q258.148 897.991 254.514 897.991 M254.514 894.288 Q260.324 894.288 263.38 898.894 Q266.458 903.477 266.458 912.227 Q266.458 920.954 263.38 925.561 Q260.324 930.144 254.514 930.144 Q248.704 930.144 245.625 925.561 Q242.57 920.954 242.57 912.227 Q242.57 903.477 245.625 898.894 Q248.704 894.288 254.514 894.288 Z" fill="#000000" fill-rule="nonzero" fill-opacity="1" /><path clip-path="url(#clip410)" d="M114.26 730.394 L143.936 730.394 L143.936 734.329 L114.26 734.329 L114.26 730.394 Z" fill="#000000" fill-rule="nonzero" fill-opacity="1" /><path clip-path="url(#clip410)" d="M154.075 712.662 L172.431 712.662 L172.431 716.598 L158.357 716.598 L158.357 725.07 Q159.376 724.723 160.394 724.561 Q161.413 724.375 162.431 724.375 Q168.218 724.375 171.598 727.547 Q174.977 730.718 174.977 736.135 Q174.977 741.713 171.505 744.815 Q168.033 747.894 161.714 747.894 Q159.538 747.894 157.269 747.523 Q155.024 747.153 152.616 746.412 L152.616 741.713 Q154.7 742.848 156.922 743.403 Q159.144 743.959 161.621 743.959 Q165.626 743.959 167.964 741.852 Q170.302 739.746 170.302 736.135 Q170.302 732.524 167.964 730.417 Q165.626 728.311 161.621 728.311 Q159.746 728.311 157.871 728.727 Q156.019 729.144 154.075 730.024 L154.075 712.662 Z" fill="#000000" fill-rule="nonzero" fill-opacity="1" /><path clip-path="url(#clip410)" d="M184.237 712.662 L202.593 712.662 L202.593 716.598 L188.519 716.598 L188.519 725.07 Q189.538 724.723 190.556 724.561 Q191.575 724.375 192.593 724.375 Q198.38 724.375 201.76 727.547 Q205.139 730.718 205.139 736.135 Q205.139 741.713 201.667 744.815 Q198.195 747.894 191.875 747.894 Q189.7 747.894 187.431 747.523 Q185.186 747.153 182.778 746.412 L182.778 741.713 Q184.862 742.848 187.084 743.403 Q189.306 743.959 191.783 743.959 Q195.787 743.959 198.125 741.852 Q200.463 739.746 200.463 736.135 Q200.463 732.524 198.125 730.417 Q195.787 728.311 191.783 728.311 Q189.908 728.311 188.033 728.727 Q186.181 729.144 184.237 730.024 L184.237 712.662 Z" fill="#000000" fill-rule="nonzero" fill-opacity="1" /><path clip-path="url(#clip410)" d="M224.352 715.741 Q220.741 715.741 218.912 719.306 Q217.107 722.848 217.107 729.977 Q217.107 737.084 218.912 740.648 Q220.741 744.19 224.352 744.19 Q227.986 744.19 229.792 740.648 Q231.621 737.084 231.621 729.977 Q231.621 722.848 229.792 719.306 Q227.986 715.741 224.352 715.741 M224.352 712.038 Q230.162 712.038 233.218 716.644 Q236.297 721.227 236.297 729.977 Q236.297 738.704 233.218 743.31 Q230.162 747.894 224.352 747.894 Q218.542 747.894 215.463 743.31 Q212.408 738.704 212.408 729.977 Q212.408 721.227 215.463 716.644 Q218.542 712.038 224.352 712.038 Z" fill="#000000" fill-rule="nonzero" fill-opacity="1" /><path clip-path="url(#clip410)" d="M254.514 715.741 Q250.903 715.741 249.074 719.306 Q247.269 722.848 247.269 729.977 Q247.269 737.084 249.074 740.648 Q250.903 744.19 254.514 744.19 Q258.148 744.19 259.954 740.648 Q261.783 737.084 261.783 729.977 Q261.783 722.848 259.954 719.306 Q258.148 715.741 254.514 715.741 M254.514 712.038 Q260.324 712.038 263.38 716.644 Q266.458 721.227 266.458 729.977 Q266.458 738.704 263.38 743.31 Q260.324 747.894 254.514 747.894 Q248.704 747.894 245.625 743.31 Q242.57 738.704 242.57 729.977 Q242.57 721.227 245.625 716.644 Q248.704 712.038 254.514 712.038 Z" fill="#000000" fill-rule="nonzero" fill-opacity="1" /><path clip-path="url(#clip410)" d="M114.26 548.144 L143.936 548.144 L143.936 552.079 L114.26 552.079 L114.26 548.144 Z" fill="#000000" fill-rule="nonzero" fill-opacity="1" /><path clip-path="url(#clip410)" d="M154.075 530.412 L172.431 530.412 L172.431 534.348 L158.357 534.348 L158.357 542.82 Q159.376 542.473 160.394 542.31 Q161.413 542.125 162.431 542.125 Q168.218 542.125 171.598 545.297 Q174.977 548.468 174.977 553.885 Q174.977 559.463 171.505 562.565 Q168.033 565.644 161.714 565.644 Q159.538 565.644 157.269 565.273 Q155.024 564.903 152.616 564.162 L152.616 559.463 Q154.7 560.597 156.922 561.153 Q159.144 561.709 161.621 561.709 Q165.626 561.709 167.964 559.602 Q170.302 557.496 170.302 553.885 Q170.302 550.273 167.964 548.167 Q165.626 546.06 161.621 546.06 Q159.746 546.06 157.871 546.477 Q156.019 546.894 154.075 547.773 L154.075 530.412 Z" fill="#000000" fill-rule="nonzero" fill-opacity="1" /><path clip-path="url(#clip410)" d="M197.037 534.486 L185.232 552.935 L197.037 552.935 L197.037 534.486 M195.811 530.412 L201.69 530.412 L201.69 552.935 L206.621 552.935 L206.621 556.824 L201.69 556.824 L201.69 564.972 L197.037 564.972 L197.037 556.824 L181.436 556.824 L181.436 552.31 L195.811 530.412 Z" fill="#000000" fill-rule="nonzero" fill-opacity="1" /><path clip-path="url(#clip410)" d="M224.352 533.491 Q220.741 533.491 218.912 537.056 Q217.107 540.598 217.107 547.727 Q217.107 554.834 218.912 558.398 Q220.741 561.94 224.352 561.94 Q227.986 561.94 229.792 558.398 Q231.621 554.834 231.621 547.727 Q231.621 540.598 229.792 537.056 Q227.986 533.491 224.352 533.491 M224.352 529.787 Q230.162 529.787 233.218 534.394 Q236.297 538.977 236.297 547.727 Q236.297 556.454 233.218 561.06 Q230.162 565.644 224.352 565.644 Q218.542 565.644 215.463 561.06 Q212.408 556.454 212.408 547.727 Q212.408 538.977 215.463 534.394 Q218.542 529.787 224.352 529.787 Z" fill="#000000" fill-rule="nonzero" fill-opacity="1" /><path clip-path="url(#clip410)" d="M254.514 533.491 Q250.903 533.491 249.074 537.056 Q247.269 540.598 247.269 547.727 Q247.269 554.834 249.074 558.398 Q250.903 561.94 254.514 561.94 Q258.148 561.94 259.954 558.398 Q261.783 554.834 261.783 547.727 Q261.783 540.598 259.954 537.056 Q258.148 533.491 254.514 533.491 M254.514 529.787 Q260.324 529.787 263.38 534.394 Q266.458 538.977 266.458 547.727 Q266.458 556.454 263.38 561.06 Q260.324 565.644 254.514 565.644 Q248.704 565.644 245.625 561.06 Q242.57 556.454 242.57 547.727 Q242.57 538.977 245.625 534.394 Q248.704 529.787 254.514 529.787 Z" fill="#000000" fill-rule="nonzero" fill-opacity="1" /><path clip-path="url(#clip410)" d="M114.26 365.894 L143.936 365.894 L143.936 369.829 L114.26 369.829 L114.26 365.894 Z" fill="#000000" fill-rule="nonzero" fill-opacity="1" /><path clip-path="url(#clip410)" d="M154.075 348.162 L172.431 348.162 L172.431 352.097 L158.357 352.097 L158.357 360.57 Q159.376 360.222 160.394 360.06 Q161.413 359.875 162.431 359.875 Q168.218 359.875 171.598 363.047 Q174.977 366.218 174.977 371.634 Q174.977 377.213 171.505 380.315 Q168.033 383.394 161.714 383.394 Q159.538 383.394 157.269 383.023 Q155.024 382.653 152.616 381.912 L152.616 377.213 Q154.7 378.347 156.922 378.903 Q159.144 379.458 161.621 379.458 Q165.626 379.458 167.964 377.352 Q170.302 375.246 170.302 371.634 Q170.302 368.023 167.964 365.917 Q165.626 363.81 161.621 363.81 Q159.746 363.81 157.871 364.227 Q156.019 364.644 154.075 365.523 L154.075 348.162 Z" fill="#000000" fill-rule="nonzero" fill-opacity="1" /><path clip-path="url(#clip410)" d="M198.357 364.088 Q201.713 364.806 203.588 367.074 Q205.487 369.343 205.487 372.676 Q205.487 377.792 201.968 380.593 Q198.45 383.394 191.968 383.394 Q189.792 383.394 187.477 382.954 Q185.186 382.537 182.732 381.681 L182.732 377.167 Q184.676 378.301 186.991 378.88 Q189.306 379.458 191.829 379.458 Q196.227 379.458 198.519 377.722 Q200.834 375.986 200.834 372.676 Q200.834 369.621 198.681 367.908 Q196.551 366.171 192.732 366.171 L188.704 366.171 L188.704 362.329 L192.917 362.329 Q196.366 362.329 198.195 360.963 Q200.024 359.574 200.024 356.982 Q200.024 354.32 198.125 352.908 Q196.25 351.472 192.732 351.472 Q190.811 351.472 188.612 351.889 Q186.413 352.306 183.774 353.185 L183.774 349.019 Q186.436 348.278 188.75 347.908 Q191.088 347.537 193.149 347.537 Q198.473 347.537 201.575 349.968 Q204.676 352.375 204.676 356.496 Q204.676 359.366 203.033 361.357 Q201.389 363.324 198.357 364.088 Z" fill="#000000" fill-rule="nonzero" fill-opacity="1" /><path clip-path="url(#clip410)" d="M224.352 351.241 Q220.741 351.241 218.912 354.806 Q217.107 358.347 217.107 365.477 Q217.107 372.583 218.912 376.148 Q220.741 379.69 224.352 379.69 Q227.986 379.69 229.792 376.148 Q231.621 372.583 231.621 365.477 Q231.621 358.347 229.792 354.806 Q227.986 351.241 224.352 351.241 M224.352 347.537 Q230.162 347.537 233.218 352.144 Q236.297 356.727 236.297 365.477 Q236.297 374.204 233.218 378.81 Q230.162 383.394 224.352 383.394 Q218.542 383.394 215.463 378.81 Q212.408 374.204 212.408 365.477 Q212.408 356.727 215.463 352.144 Q218.542 347.537 224.352 347.537 Z" fill="#000000" fill-rule="nonzero" fill-opacity="1" /><path clip-path="url(#clip410)" d="M254.514 351.241 Q250.903 351.241 249.074 354.806 Q247.269 358.347 247.269 365.477 Q247.269 372.583 249.074 376.148 Q250.903 379.69 254.514 379.69 Q258.148 379.69 259.954 376.148 Q261.783 372.583 261.783 365.477 Q261.783 358.347 259.954 354.806 Q258.148 351.241 254.514 351.241 M254.514 347.537 Q260.324 347.537 263.38 352.144 Q266.458 356.727 266.458 365.477 Q266.458 374.204 263.38 378.81 Q260.324 383.394 254.514 383.394 Q248.704 383.394 245.625 378.81 Q242.57 374.204 242.57 365.477 Q242.57 356.727 245.625 352.144 Q248.704 347.537 254.514 347.537 Z" fill="#000000" fill-rule="nonzero" fill-opacity="1" /><path clip-path="url(#clip410)" d="M114.26 183.644 L143.936 183.644 L143.936 187.579 L114.26 187.579 L114.26 183.644 Z" fill="#000000" fill-rule="nonzero" fill-opacity="1" /><path clip-path="url(#clip410)" d="M154.075 165.912 L172.431 165.912 L172.431 169.847 L158.357 169.847 L158.357 178.32 Q159.376 177.972 160.394 177.81 Q161.413 177.625 162.431 177.625 Q168.218 177.625 171.598 180.796 Q174.977 183.968 174.977 189.384 Q174.977 194.963 171.505 198.065 Q168.033 201.144 161.714 201.144 Q159.538 201.144 157.269 200.773 Q155.024 200.403 152.616 199.662 L152.616 194.963 Q154.7 196.097 156.922 196.653 Q159.144 197.208 161.621 197.208 Q165.626 197.208 167.964 195.102 Q170.302 192.995 170.302 189.384 Q170.302 185.773 167.964 183.667 Q165.626 181.56 161.621 181.56 Q159.746 181.56 157.871 181.977 Q156.019 182.394 154.075 183.273 L154.075 165.912 Z" fill="#000000" fill-rule="nonzero" fill-opacity="1" /><path clip-path="url(#clip410)" d="M188.218 196.537 L204.537 196.537 L204.537 200.472 L182.593 200.472 L182.593 196.537 Q185.255 193.782 189.838 189.153 Q194.445 184.5 195.625 183.158 Q197.871 180.634 198.75 178.898 Q199.653 177.139 199.653 175.449 Q199.653 172.695 197.709 170.959 Q195.787 169.222 192.686 169.222 Q190.487 169.222 188.033 169.986 Q185.602 170.75 182.825 172.301 L182.825 167.579 Q185.649 166.445 188.102 165.866 Q190.556 165.287 192.593 165.287 Q197.963 165.287 201.158 167.972 Q204.352 170.658 204.352 175.148 Q204.352 177.278 203.542 179.199 Q202.755 181.097 200.649 183.69 Q200.07 184.361 196.968 187.579 Q193.866 190.773 188.218 196.537 Z" fill="#000000" fill-rule="nonzero" fill-opacity="1" /><path clip-path="url(#clip410)" d="M224.352 168.991 Q220.741 168.991 218.912 172.556 Q217.107 176.097 217.107 183.227 Q217.107 190.333 218.912 193.898 Q220.741 197.44 224.352 197.44 Q227.986 197.44 229.792 193.898 Q231.621 190.333 231.621 183.227 Q231.621 176.097 229.792 172.556 Q227.986 168.991 224.352 168.991 M224.352 165.287 Q230.162 165.287 233.218 169.894 Q236.297 174.477 236.297 183.227 Q236.297 191.954 233.218 196.56 Q230.162 201.144 224.352 201.144 Q218.542 201.144 215.463 196.56 Q212.408 191.954 212.408 183.227 Q212.408 174.477 215.463 169.894 Q218.542 165.287 224.352 165.287 Z" fill="#000000" fill-rule="nonzero" fill-opacity="1" /><path clip-path="url(#clip410)" d="M254.514 168.991 Q250.903 168.991 249.074 172.556 Q247.269 176.097 247.269 183.227 Q247.269 190.333 249.074 193.898 Q250.903 197.44 254.514 197.44 Q258.148 197.44 259.954 193.898 Q261.783 190.333 261.783 183.227 Q261.783 176.097 259.954 172.556 Q258.148 168.991 254.514 168.991 M254.514 165.287 Q260.324 165.287 263.38 169.894 Q266.458 174.477 266.458 183.227 Q266.458 191.954 263.38 196.56 Q260.324 201.144 254.514 201.144 Q248.704 201.144 245.625 196.56 Q242.57 191.954 242.57 183.227 Q242.57 174.477 245.625 169.894 Q248.704 165.287 254.514 165.287 Z" fill="#000000" fill-rule="nonzero" fill-opacity="1" /><path clip-path="url(#clip410)" d="M16.4842 992.817 L16.4842 986.388 L58.5933 986.388 L58.5933 963.248 L64.0042 963.248 L64.0042 992.817 L16.4842 992.817 Z" fill="#000000" fill-rule="nonzero" fill-opacity="1" /><path clip-path="url(#clip410)" d="M32.4621 944.088 Q32.4621 948.798 36.1542 951.535 Q39.8145 954.273 46.212 954.273 Q52.6095 954.273 56.3017 951.567 Q59.9619 948.83 59.9619 944.088 Q59.9619 939.409 56.2698 936.671 Q52.5777 933.934 46.212 933.934 Q39.8781 933.934 36.186 936.671 Q32.4621 939.409 32.4621 944.088 M27.4968 944.088 Q27.4968 936.449 32.4621 932.088 Q37.4273 927.728 46.212 927.728 Q54.9649 927.728 59.9619 932.088 Q64.9272 936.449 64.9272 944.088 Q64.9272 951.758 59.9619 956.119 Q54.9649 960.447 46.212 960.447 Q37.4273 960.447 32.4621 956.119 Q27.4968 951.758 27.4968 944.088 Z" fill="#000000" fill-rule="nonzero" fill-opacity="1" /><path clip-path="url(#clip410)" d="M45.7664 894.562 Q39.4007 894.562 35.8996 897.204 Q32.3984 899.814 32.3984 904.556 Q32.3984 909.267 35.8996 911.909 Q39.4007 914.519 45.7664 914.519 Q52.1003 914.519 55.6014 911.909 Q59.1026 909.267 59.1026 904.556 Q59.1026 899.814 55.6014 897.204 Q52.1003 894.562 45.7664 894.562 M59.58 888.706 Q68.683 888.706 73.1071 892.748 Q77.5631 896.79 77.5631 905.129 Q77.5631 908.217 77.0857 910.954 Q76.6401 913.691 75.6852 916.269 L69.9879 916.269 Q71.3884 913.691 72.0568 911.177 Q72.7252 908.662 72.7252 906.052 Q72.7252 900.291 69.7015 897.427 Q66.7096 894.562 60.6303 894.562 L57.7339 894.562 Q60.885 896.377 62.4446 899.209 Q64.0042 902.042 64.0042 905.989 Q64.0042 912.545 59.0071 916.556 Q54.01 920.566 45.7664 920.566 Q37.491 920.566 32.4939 916.556 Q27.4968 912.545 27.4968 905.989 Q27.4968 902.042 29.0564 899.209 Q30.616 896.377 33.7671 894.562 L28.3562 894.562 L28.3562 888.706 L59.58 888.706 Z" fill="#000000" fill-rule="nonzero" fill-opacity="1" /><path clip-path="url(#clip410)" d="M43.5384 879.603 L43.5384 862.447 L48.7583 862.447 L48.7583 879.603 L43.5384 879.603 Z" fill="#000000" fill-rule="nonzero" fill-opacity="1" /><path clip-path="url(#clip410)" d="M16.4842 852.867 L16.4842 846.438 L58.5933 846.438 L58.5933 823.298 L64.0042 823.298 L64.0042 852.867 L16.4842 852.867 Z" fill="#000000" fill-rule="nonzero" fill-opacity="1" /><path clip-path="url(#clip410)" d="M28.3562 816.805 L28.3562 810.949 L64.0042 810.949 L64.0042 816.805 L28.3562 816.805 M14.479 816.805 L14.479 810.949 L21.895 810.949 L21.895 816.805 L14.479 816.805 Z" fill="#000000" fill-rule="nonzero" fill-opacity="1" /><path clip-path="url(#clip410)" d="M14.479 798.918 L14.479 793.029 L43.7294 793.029 L28.3562 775.555 L28.3562 768.076 L45.0344 786.982 L64.0042 767.28 L64.0042 774.919 L46.5939 793.029 L64.0042 793.029 L64.0042 798.918 L14.479 798.918 Z" fill="#000000" fill-rule="nonzero" fill-opacity="1" /><path clip-path="url(#clip410)" d="M44.7161 732.778 L47.5806 732.778 L47.5806 759.705 Q53.6281 759.323 56.8109 756.076 Q59.9619 752.798 59.9619 746.973 Q59.9619 743.6 59.1344 740.449 Q58.3069 737.266 56.6518 734.147 L62.1899 734.147 Q63.5267 737.298 64.227 740.608 Q64.9272 743.918 64.9272 747.324 Q64.9272 755.854 59.9619 760.851 Q54.9967 765.816 46.5303 765.816 Q37.7774 765.816 32.6531 761.105 Q27.4968 756.363 27.4968 748.342 Q27.4968 741.149 32.1438 736.979 Q36.7589 732.778 44.7161 732.778 M42.9973 738.634 Q38.1912 738.698 35.3266 741.34 Q32.4621 743.95 32.4621 748.278 Q32.4621 753.18 35.2312 756.14 Q38.0002 759.068 43.0292 759.514 L42.9973 738.634 Z" fill="#000000" fill-rule="nonzero" fill-opacity="1" /><path clip-path="url(#clip410)" d="M14.479 723.166 L14.479 717.309 L64.0042 717.309 L64.0042 723.166 L14.479 723.166 Z" fill="#000000" fill-rule="nonzero" fill-opacity="1" /><path clip-path="url(#clip410)" d="M28.3562 705.055 L28.3562 699.199 L64.0042 699.199 L64.0042 705.055 L28.3562 705.055 M14.479 705.055 L14.479 699.199 L21.895 699.199 L21.895 705.055 L14.479 705.055 Z" fill="#000000" fill-rule="nonzero" fill-opacity="1" /><path clip-path="url(#clip410)" d="M42.4881 657.312 L64.0042 657.312 L64.0042 663.169 L42.679 663.169 Q37.6183 663.169 35.1038 665.142 Q32.5894 667.116 32.5894 671.062 Q32.5894 675.805 35.6131 678.542 Q38.6368 681.279 43.8567 681.279 L64.0042 681.279 L64.0042 687.168 L14.479 687.168 L14.479 681.279 L33.8944 681.279 Q30.6797 679.179 29.0883 676.346 Q27.4968 673.481 27.4968 669.757 Q27.4968 663.614 31.3163 660.463 Q35.1038 657.312 42.4881 657.312 Z" fill="#000000" fill-rule="nonzero" fill-opacity="1" /><path clip-path="url(#clip410)" d="M32.4621 631.818 Q32.4621 636.528 36.1542 639.266 Q39.8145 642.003 46.212 642.003 Q52.6095 642.003 56.3017 639.297 Q59.9619 636.56 59.9619 631.818 Q59.9619 627.139 56.2698 624.402 Q52.5777 621.664 46.212 621.664 Q39.8781 621.664 36.186 624.402 Q32.4621 627.139 32.4621 631.818 M27.4968 631.818 Q27.4968 624.179 32.4621 619.818 Q37.4273 615.458 46.212 615.458 Q54.9649 615.458 59.9619 619.818 Q64.9272 624.179 64.9272 631.818 Q64.9272 639.488 59.9619 643.849 Q54.9649 648.178 46.212 648.178 Q37.4273 648.178 32.4621 643.849 Q27.4968 639.488 27.4968 631.818 Z" fill="#000000" fill-rule="nonzero" fill-opacity="1" /><path clip-path="url(#clip410)" d="M32.4621 591.937 Q32.4621 596.647 36.1542 599.384 Q39.8145 602.122 46.212 602.122 Q52.6095 602.122 56.3017 599.416 Q59.9619 596.679 59.9619 591.937 Q59.9619 587.258 56.2698 584.521 Q52.5777 581.783 46.212 581.783 Q39.8781 581.783 36.186 584.521 Q32.4621 587.258 32.4621 591.937 M27.4968 591.937 Q27.4968 584.298 32.4621 579.937 Q37.4273 575.577 46.212 575.577 Q54.9649 575.577 59.9619 579.937 Q64.9272 584.298 64.9272 591.937 Q64.9272 599.607 59.9619 603.968 Q54.9649 608.296 46.212 608.296 Q37.4273 608.296 32.4621 603.968 Q27.4968 599.607 27.4968 591.937 Z" fill="#000000" fill-rule="nonzero" fill-opacity="1" /><path clip-path="url(#clip410)" d="M33.7671 542.411 L14.479 542.411 L14.479 536.555 L64.0042 536.555 L64.0042 542.411 L58.657 542.411 Q61.8398 544.257 63.3994 547.09 Q64.9272 549.891 64.9272 553.838 Q64.9272 560.299 59.771 564.373 Q54.6147 568.415 46.212 568.415 Q37.8093 568.415 32.6531 564.373 Q27.4968 560.299 27.4968 553.838 Q27.4968 549.891 29.0564 547.09 Q30.5842 544.257 33.7671 542.411 M46.212 562.368 Q52.6732 562.368 56.3653 559.726 Q60.0256 557.053 60.0256 552.406 Q60.0256 547.759 56.3653 545.085 Q52.6732 542.411 46.212 542.411 Q39.7508 542.411 36.0905 545.085 Q32.3984 547.759 32.3984 552.406 Q32.3984 557.053 36.0905 559.726 Q39.7508 562.368 46.212 562.368 Z" fill="#000000" fill-rule="nonzero" fill-opacity="1" /><path clip-path="url(#clip410)" d="M921.562 11.9675 L921.562 18.1307 Q918.611 15.3819 915.254 14.0219 Q911.927 12.662 908.165 12.662 Q900.758 12.662 896.822 17.2048 Q892.887 21.7186 892.887 30.2834 Q892.887 38.8192 896.822 43.362 Q900.758 47.8759 908.165 47.8759 Q911.927 47.8759 915.254 46.516 Q918.611 45.156 921.562 42.4072 L921.562 48.5125 Q918.495 50.5958 915.052 51.6375 Q911.637 52.6791 907.818 52.6791 Q898.009 52.6791 892.366 46.6896 Q886.724 40.6711 886.724 30.2834 Q886.724 19.8668 892.366 13.8772 Q898.009 7.85875 907.818 7.85875 Q911.695 7.85875 915.109 8.90042 Q918.553 9.91314 921.562 11.9675 Z" fill="#000000" fill-rule="nonzero" fill-opacity="1" /><path clip-path="url(#clip410)" d="M942.916 23.1654 Q938.634 23.1654 936.145 26.5218 Q933.657 29.8494 933.657 35.6653 Q933.657 41.4813 936.116 44.8377 Q938.605 48.1653 942.916 48.1653 Q947.169 48.1653 949.658 44.8088 Q952.146 41.4523 952.146 35.6653 Q952.146 29.9072 949.658 26.5508 Q947.169 23.1654 942.916 23.1654 M942.916 18.6515 Q949.86 18.6515 953.824 23.1654 Q957.789 27.6792 957.789 35.6653 Q957.789 43.6225 953.824 48.1653 Q949.86 52.6791 942.916 52.6791 Q935.943 52.6791 931.978 48.1653 Q928.043 43.6225 928.043 35.6653 Q928.043 27.6792 931.978 23.1654 Q935.943 18.6515 942.916 18.6515 Z" fill="#000000" fill-rule="nonzero" fill-opacity="1" /><path clip-path="url(#clip410)" d="M993.552 32.2799 L993.552 51.84 L988.228 51.84 L988.228 32.4535 Q988.228 27.8529 986.434 25.567 Q984.64 23.2811 981.052 23.2811 Q976.741 23.2811 974.253 26.03 Q971.764 28.7788 971.764 33.5241 L971.764 51.84 L966.411 51.84 L966.411 19.4328 L971.764 19.4328 L971.764 24.4675 Q973.674 21.545 976.249 20.0983 Q978.853 18.6515 982.239 18.6515 Q987.823 18.6515 990.688 22.1237 Q993.552 25.567 993.552 32.2799 Z" fill="#000000" fill-rule="nonzero" fill-opacity="1" /><path clip-path="url(#clip410)" d="M1000.35 19.4328 L1005.99 19.4328 L1016.12 46.6317 L1026.25 19.4328 L1031.89 19.4328 L1019.74 51.84 L1012.5 51.84 L1000.35 19.4328 Z" fill="#000000" fill-rule="nonzero" fill-opacity="1" /><path clip-path="url(#clip410)" d="M1066.96 34.3054 L1066.96 36.9095 L1042.48 36.9095 Q1042.83 42.4072 1045.78 45.3007 Q1048.76 48.1653 1054.06 48.1653 Q1057.12 48.1653 1059.99 47.4129 Q1062.88 46.6606 1065.72 45.156 L1065.72 50.1907 Q1062.85 51.406 1059.84 52.0425 Q1056.83 52.6791 1053.74 52.6791 Q1045.98 52.6791 1041.44 48.1653 Q1036.93 43.6514 1036.93 35.9547 Q1036.93 27.9975 1041.21 23.339 Q1045.52 18.6515 1052.81 18.6515 Q1059.35 18.6515 1063.14 22.876 Q1066.96 27.0716 1066.96 34.3054 M1061.64 32.7429 Q1061.58 28.3737 1059.18 25.7695 Q1056.8 23.1654 1052.87 23.1654 Q1048.41 23.1654 1045.72 25.6827 Q1043.06 28.2001 1042.65 32.7718 L1061.64 32.7429 Z" fill="#000000" fill-rule="nonzero" fill-opacity="1" /><path clip-path="url(#clip410)" d="M1094.48 24.4096 Q1093.58 23.8888 1092.51 23.6573 Q1091.47 23.3969 1090.2 23.3969 Q1085.68 23.3969 1083.25 26.3482 Q1080.85 29.2707 1080.85 34.7683 L1080.85 51.84 L1075.5 51.84 L1075.5 19.4328 L1080.85 19.4328 L1080.85 24.4675 Q1082.53 21.5161 1085.22 20.0983 Q1087.91 18.6515 1091.76 18.6515 Q1092.31 18.6515 1092.97 18.7383 Q1093.64 18.7962 1094.45 18.9409 L1094.48 24.4096 Z" fill="#000000" fill-rule="nonzero" fill-opacity="1" /><path clip-path="url(#clip410)" d="M1120.35 35.2602 Q1120.35 29.4732 1117.94 26.2904 Q1115.57 23.1075 1111.26 23.1075 Q1106.98 23.1075 1104.58 26.2904 Q1102.2 29.4732 1102.2 35.2602 Q1102.2 41.0183 1104.58 44.2012 Q1106.98 47.384 1111.26 47.384 Q1115.57 47.384 1117.94 44.2012 Q1120.35 41.0183 1120.35 35.2602 M1125.67 47.818 Q1125.67 56.0934 1121.99 60.1154 Q1118.32 64.1663 1110.74 64.1663 Q1107.93 64.1663 1105.44 63.7323 Q1102.96 63.3272 1100.61 62.4592 L1100.61 57.2798 Q1102.96 58.5529 1105.24 59.1606 Q1107.53 59.7682 1109.9 59.7682 Q1115.14 59.7682 1117.74 57.0194 Q1120.35 54.2995 1120.35 48.7729 L1120.35 46.1398 Q1118.7 49.0044 1116.12 50.4222 Q1113.55 51.84 1109.96 51.84 Q1104 51.84 1100.35 47.2972 Q1096.71 42.7544 1096.71 35.2602 Q1096.71 27.7371 1100.35 23.1943 Q1104 18.6515 1109.96 18.6515 Q1113.55 18.6515 1116.12 20.0693 Q1118.7 21.4872 1120.35 24.3517 L1120.35 19.4328 L1125.67 19.4328 L1125.67 47.818 Z" fill="#000000" fill-rule="nonzero" fill-opacity="1" /><path clip-path="url(#clip410)" d="M1164.36 34.3054 L1164.36 36.9095 L1139.88 36.9095 Q1140.22 42.4072 1143.18 45.3007 Q1146.16 48.1653 1151.45 48.1653 Q1154.52 48.1653 1157.38 47.4129 Q1160.28 46.6606 1163.11 45.156 L1163.11 50.1907 Q1160.25 51.406 1157.24 52.0425 Q1154.23 52.6791 1151.13 52.6791 Q1143.38 52.6791 1138.84 48.1653 Q1134.32 43.6514 1134.32 35.9547 Q1134.32 27.9975 1138.6 23.339 Q1142.91 18.6515 1150.21 18.6515 Q1156.75 18.6515 1160.54 22.876 Q1164.36 27.0716 1164.36 34.3054 M1159.03 32.7429 Q1158.97 28.3737 1156.57 25.7695 Q1154.2 23.1654 1150.26 23.1654 Q1145.81 23.1654 1143.12 25.6827 Q1140.46 28.2001 1140.05 32.7718 L1159.03 32.7429 Z" fill="#000000" fill-rule="nonzero" fill-opacity="1" /><path clip-path="url(#clip410)" d="M1200.03 32.2799 L1200.03 51.84 L1194.71 51.84 L1194.71 32.4535 Q1194.71 27.8529 1192.91 25.567 Q1191.12 23.2811 1187.53 23.2811 Q1183.22 23.2811 1180.73 26.03 Q1178.24 28.7788 1178.24 33.5241 L1178.24 51.84 L1172.89 51.84 L1172.89 19.4328 L1178.24 19.4328 L1178.24 24.4675 Q1180.15 21.545 1182.73 20.0983 Q1185.33 18.6515 1188.72 18.6515 Q1194.3 18.6515 1197.17 22.1237 Q1200.03 25.567 1200.03 32.2799 Z" fill="#000000" fill-rule="nonzero" fill-opacity="1" /><path clip-path="url(#clip410)" d="M1233.97 20.677 L1233.97 25.6538 Q1231.72 24.4096 1229.43 23.802 Q1227.17 23.1654 1224.86 23.1654 Q1219.68 23.1654 1216.81 26.464 Q1213.95 29.7336 1213.95 35.6653 Q1213.95 41.597 1216.81 44.8956 Q1219.68 48.1653 1224.86 48.1653 Q1227.17 48.1653 1229.43 47.5576 Q1231.72 46.921 1233.97 45.6768 L1233.97 50.5958 Q1231.75 51.6375 1229.34 52.1583 Q1226.97 52.6791 1224.28 52.6791 Q1216.96 52.6791 1212.65 48.0784 Q1208.34 43.4778 1208.34 35.6653 Q1208.34 27.7371 1212.68 23.1943 Q1217.05 18.6515 1224.63 18.6515 Q1227.09 18.6515 1229.43 19.1724 Q1231.77 19.6642 1233.97 20.677 Z" fill="#000000" fill-rule="nonzero" fill-opacity="1" /><path clip-path="url(#clip410)" d="M1270.95 34.3054 L1270.95 36.9095 L1246.47 36.9095 Q1246.82 42.4072 1249.77 45.3007 Q1252.75 48.1653 1258.05 48.1653 Q1261.11 48.1653 1263.98 47.4129 Q1266.87 46.6606 1269.71 45.156 L1269.71 50.1907 Q1266.84 51.406 1263.83 52.0425 Q1260.83 52.6791 1257.73 52.6791 Q1249.97 52.6791 1245.43 48.1653 Q1240.92 43.6514 1240.92 35.9547 Q1240.92 27.9975 1245.2 23.339 Q1249.51 18.6515 1256.8 18.6515 Q1263.34 18.6515 1267.13 22.876 Q1270.95 27.0716 1270.95 34.3054 M1265.63 32.7429 Q1265.57 28.3737 1263.17 25.7695 Q1260.8 23.1654 1256.86 23.1654 Q1252.41 23.1654 1249.71 25.6827 Q1247.05 28.2001 1246.65 32.7718 L1265.63 32.7429 Z" fill="#000000" fill-rule="nonzero" fill-opacity="1" /><path clip-path="url(#clip410)" d="M1311.32 6.87496 Q1307.44 13.53 1305.56 20.0404 Q1303.68 26.5508 1303.68 33.2348 Q1303.68 39.9188 1305.56 46.487 Q1307.47 53.0263 1311.32 59.6525 L1306.69 59.6525 Q1302.35 52.8527 1300.18 46.2845 Q1298.04 39.7162 1298.04 33.2348 Q1298.04 26.7823 1300.18 20.2429 Q1302.32 13.7036 1306.69 6.87496 L1311.32 6.87496 Z" fill="#000000" fill-rule="nonzero" fill-opacity="1" /><path clip-path="url(#clip410)" d="M1354.23 11.9675 L1354.23 18.1307 Q1351.28 15.3819 1347.92 14.0219 Q1344.59 12.662 1340.83 12.662 Q1333.42 12.662 1329.49 17.2048 Q1325.55 21.7186 1325.55 30.2834 Q1325.55 38.8192 1329.49 43.362 Q1333.42 47.8759 1340.83 47.8759 Q1344.59 47.8759 1347.92 46.516 Q1351.28 45.156 1354.23 42.4072 L1354.23 48.5125 Q1351.16 50.5958 1347.72 51.6375 Q1344.3 52.6791 1340.48 52.6791 Q1330.67 52.6791 1325.03 46.6896 Q1319.39 40.6711 1319.39 30.2834 Q1319.39 19.8668 1325.03 13.8772 Q1330.67 7.85875 1340.48 7.85875 Q1344.36 7.85875 1347.77 8.90042 Q1351.22 9.91314 1354.23 11.9675 Z" fill="#000000" fill-rule="nonzero" fill-opacity="1" /><path clip-path="url(#clip410)" d="M1363.26 8.64 L1369.1 8.64 L1369.1 26.3482 L1390.34 26.3482 L1390.34 8.64 L1396.18 8.64 L1396.18 51.84 L1390.34 51.84 L1390.34 31.2672 L1369.1 31.2672 L1369.1 51.84 L1363.26 51.84 L1363.26 8.64 Z" fill="#000000" fill-rule="nonzero" fill-opacity="1" /><path clip-path="url(#clip410)" d="M1407.82 8.64 L1416.52 8.64 L1427.55 38.038 L1438.63 8.64 L1447.34 8.64 L1447.34 51.84 L1441.64 51.84 L1441.64 13.9062 L1430.5 43.5356 L1424.63 43.5356 L1413.49 13.9062 L1413.49 51.84 L1407.82 51.84 L1407.82 8.64 Z" fill="#000000" fill-rule="nonzero" fill-opacity="1" /><path clip-path="url(#clip410)" d="M1458.94 8.64 L1467.65 8.64 L1478.68 38.038 L1489.76 8.64 L1498.47 8.64 L1498.47 51.84 L1492.77 51.84 L1492.77 13.9062 L1481.63 43.5356 L1475.75 43.5356 L1464.61 13.9062 L1464.61 51.84 L1458.94 51.84 L1458.94 8.64 Z" fill="#000000" fill-rule="nonzero" fill-opacity="1" /><path clip-path="url(#clip410)" d="M1507.15 33.2348 L1522.75 33.2348 L1522.75 37.9801 L1507.15 37.9801 L1507.15 33.2348 Z" fill="#000000" fill-rule="nonzero" fill-opacity="1" /><path clip-path="url(#clip410)" d="M1536.49 10.2314 L1536.49 19.4328 L1547.46 19.4328 L1547.46 23.5705 L1536.49 23.5705 L1536.49 41.163 Q1536.49 45.1271 1537.56 46.2555 Q1538.66 47.384 1541.99 47.384 L1547.46 47.384 L1547.46 51.84 L1541.99 51.84 Q1535.82 51.84 1533.48 49.5541 Q1531.14 47.2393 1531.14 41.163 L1531.14 23.5705 L1527.23 23.5705 L1527.23 19.4328 L1531.14 19.4328 L1531.14 10.2314 L1536.49 10.2314 Z" fill="#000000" fill-rule="nonzero" fill-opacity="1" /><path clip-path="url(#clip410)" d="M1555.82 44.4905 L1561.92 44.4905 L1561.92 49.4673 L1557.18 58.7265 L1553.45 58.7265 L1555.82 49.4673 L1555.82 44.4905 Z" fill="#000000" fill-rule="nonzero" fill-opacity="1" /><path clip-path="url(#clip410)" d="M1592.36 8.64 L1598.21 8.64 L1598.21 26.898 L1617.59 8.64 L1625.12 8.64 L1603.68 28.7788 L1626.65 51.84 L1618.95 51.84 L1598.21 31.0357 L1598.21 51.84 L1592.36 51.84 L1592.36 8.64 Z" fill="#000000" fill-rule="nonzero" fill-opacity="1" /><path clip-path="url(#clip410)" d="M1631.69 24.9304 L1668.78 24.9304 L1668.78 29.7915 L1631.69 29.7915 L1631.69 24.9304 M1631.69 36.7359 L1668.78 36.7359 L1668.78 41.6549 L1631.69 41.6549 L1631.69 36.7359 Z" fill="#000000" fill-rule="nonzero" fill-opacity="1" /><path clip-path="url(#clip410)" d="M1682.41 46.921 L1691.96 46.921 L1691.96 13.964 L1681.57 16.0474 L1681.57 10.7233 L1691.9 8.64 L1697.74 8.64 L1697.74 46.921 L1707.29 46.921 L1707.29 51.84 L1682.41 51.84 L1682.41 46.921 Z" fill="#000000" fill-rule="nonzero" fill-opacity="1" /><path clip-path="url(#clip410)" d="M1731.6 31.3251 Q1727.43 31.3251 1725.03 33.5531 Q1722.66 35.7811 1722.66 39.6873 Q1722.66 43.5935 1725.03 45.8215 Q1727.43 48.0495 1731.6 48.0495 Q1735.76 48.0495 1738.17 45.8215 Q1740.57 43.5646 1740.57 39.6873 Q1740.57 35.7811 1738.17 33.5531 Q1735.79 31.3251 1731.6 31.3251 M1725.75 28.8367 Q1721.99 27.9107 1719.88 25.3355 Q1717.8 22.7603 1717.8 19.0566 Q1717.8 13.8772 1721.47 10.868 Q1725.17 7.85875 1731.6 7.85875 Q1738.05 7.85875 1741.73 10.868 Q1745.4 13.8772 1745.4 19.0566 Q1745.4 22.7603 1743.29 25.3355 Q1741.2 27.9107 1737.47 28.8367 Q1741.7 29.8204 1744.04 32.685 Q1746.41 35.5496 1746.41 39.6873 Q1746.41 45.9662 1742.56 49.3227 Q1738.75 52.6791 1731.6 52.6791 Q1724.45 52.6791 1720.6 49.3227 Q1716.78 45.9662 1716.78 39.6873 Q1716.78 35.5496 1719.16 32.685 Q1721.53 29.8204 1725.75 28.8367 M1723.61 19.6064 Q1723.61 22.9628 1725.7 24.8436 Q1727.81 26.7244 1731.6 26.7244 Q1735.36 26.7244 1737.47 24.8436 Q1739.61 22.9628 1739.61 19.6064 Q1739.61 16.2499 1737.47 14.3691 Q1735.36 12.4884 1731.6 12.4884 Q1727.81 12.4884 1725.7 14.3691 Q1723.61 16.2499 1723.61 19.6064 Z" fill="#000000" fill-rule="nonzero" fill-opacity="1" /><path clip-path="url(#clip410)" d="M1755.21 6.87496 L1759.84 6.87496 Q1764.18 13.7036 1766.32 20.2429 Q1768.49 26.7823 1768.49 33.2348 Q1768.49 39.7162 1766.32 46.2845 Q1764.18 52.8527 1759.84 59.6525 L1755.21 59.6525 Q1759.06 53.0263 1760.94 46.487 Q1762.85 39.9188 1762.85 33.2348 Q1762.85 26.5508 1760.94 20.0404 Q1759.06 13.53 1755.21 6.87496 Z" fill="#000000" fill-rule="nonzero" fill-opacity="1" /><polyline clip-path="url(#clip412)" style="stroke:#000080; stroke-linecap:round; stroke-linejoin:round; stroke-width:8; stroke-opacity:1; fill:none" points="360.486,1385.91 393.269,772.552 426.053,648.813 458.837,587.833 491.621,551.879 524.405,528.089 557.188,509.997 589.972,494.823 622.756,481.094 655.54,467.764 688.323,454.016 721.107,439.196 753.891,422.867 786.675,404.85 819.459,385.164 852.242,363.952 885.026,341.562 917.81,318.545 950.594,295.581 983.377,273.67 1016.16,254.127 1048.95,237.886 1081.73,224.918 1114.51,214.579 1147.3,206.161 1180.08,199.112 1212.86,193.06 1245.65,187.782 1278.43,183.148 1311.22,179.076 1344,175.503 1376.78,172.367 1409.57,169.609 1442.35,167.168 1475.13,164.988 1507.92,163.023 1540.7,161.235 1573.49,159.596 1606.27,158.088 1639.05,156.702 1671.84,155.431 1704.62,154.263 1737.4,153.192 1770.19,152.209 1802.97,151.309 1835.76,150.483 1868.54,149.723 1901.32,149.021 1934.11,148.372 1966.89,147.768 1999.67,147.204 2032.46,146.677 2065.24,146.182 2098.03,145.717 2130.81,145.28 2163.59,144.869 2196.38,144.483 2229.16,144.121 2261.94,143.782 2294.73,143.465 "/>
<circle clip-path="url(#clip412)" cx="360.486" cy="1385.91" r="10.8" fill="#000080" fill-rule="evenodd" fill-opacity="1" stroke="#000000" stroke-opacity="1" stroke-width="3.2"/>
<circle clip-path="url(#clip412)" cx="393.269" cy="772.552" r="10.8" fill="#000080" fill-rule="evenodd" fill-opacity="1" stroke="#000000" stroke-opacity="1" stroke-width="3.2"/>
<circle clip-path="url(#clip412)" cx="426.053" cy="648.813" r="10.8" fill="#000080" fill-rule="evenodd" fill-opacity="1" stroke="#000000" stroke-opacity="1" stroke-width="3.2"/>
<circle clip-path="url(#clip412)" cx="458.837" cy="587.833" r="10.8" fill="#000080" fill-rule="evenodd" fill-opacity="1" stroke="#000000" stroke-opacity="1" stroke-width="3.2"/>
<circle clip-path="url(#clip412)" cx="491.621" cy="551.879" r="10.8" fill="#000080" fill-rule="evenodd" fill-opacity="1" stroke="#000000" stroke-opacity="1" stroke-width="3.2"/>
<circle clip-path="url(#clip412)" cx="524.405" cy="528.089" r="10.8" fill="#000080" fill-rule="evenodd" fill-opacity="1" stroke="#000000" stroke-opacity="1" stroke-width="3.2"/>
<circle clip-path="url(#clip412)" cx="557.188" cy="509.997" r="10.8" fill="#000080" fill-rule="evenodd" fill-opacity="1" stroke="#000000" stroke-opacity="1" stroke-width="3.2"/>
<circle clip-path="url(#clip412)" cx="589.972" cy="494.823" r="10.8" fill="#000080" fill-rule="evenodd" fill-opacity="1" stroke="#000000" stroke-opacity="1" stroke-width="3.2"/>
<circle clip-path="url(#clip412)" cx="622.756" cy="481.094" r="10.8" fill="#000080" fill-rule="evenodd" fill-opacity="1" stroke="#000000" stroke-opacity="1" stroke-width="3.2"/>
<circle clip-path="url(#clip412)" cx="655.54" cy="467.764" r="10.8" fill="#000080" fill-rule="evenodd" fill-opacity="1" stroke="#000000" stroke-opacity="1" stroke-width="3.2"/>
<circle clip-path="url(#clip412)" cx="688.323" cy="454.016" r="10.8" fill="#000080" fill-rule="evenodd" fill-opacity="1" stroke="#000000" stroke-opacity="1" stroke-width="3.2"/>
<circle clip-path="url(#clip412)" cx="721.107" cy="439.196" r="10.8" fill="#000080" fill-rule="evenodd" fill-opacity="1" stroke="#000000" stroke-opacity="1" stroke-width="3.2"/>
<circle clip-path="url(#clip412)" cx="753.891" cy="422.867" r="10.8" fill="#000080" fill-rule="evenodd" fill-opacity="1" stroke="#000000" stroke-opacity="1" stroke-width="3.2"/>
<circle clip-path="url(#clip412)" cx="786.675" cy="404.85" r="10.8" fill="#000080" fill-rule="evenodd" fill-opacity="1" stroke="#000000" stroke-opacity="1" stroke-width="3.2"/>
<circle clip-path="url(#clip412)" cx="819.459" cy="385.164" r="10.8" fill="#000080" fill-rule="evenodd" fill-opacity="1" stroke="#000000" stroke-opacity="1" stroke-width="3.2"/>
<circle clip-path="url(#clip412)" cx="852.242" cy="363.952" r="10.8" fill="#000080" fill-rule="evenodd" fill-opacity="1" stroke="#000000" stroke-opacity="1" stroke-width="3.2"/>
<circle clip-path="url(#clip412)" cx="885.026" cy="341.562" r="10.8" fill="#000080" fill-rule="evenodd" fill-opacity="1" stroke="#000000" stroke-opacity="1" stroke-width="3.2"/>
<circle clip-path="url(#clip412)" cx="917.81" cy="318.545" r="10.8" fill="#000080" fill-rule="evenodd" fill-opacity="1" stroke="#000000" stroke-opacity="1" stroke-width="3.2"/>
<circle clip-path="url(#clip412)" cx="950.594" cy="295.581" r="10.8" fill="#000080" fill-rule="evenodd" fill-opacity="1" stroke="#000000" stroke-opacity="1" stroke-width="3.2"/>
<circle clip-path="url(#clip412)" cx="983.377" cy="273.67" r="10.8" fill="#000080" fill-rule="evenodd" fill-opacity="1" stroke="#000000" stroke-opacity="1" stroke-width="3.2"/>
<circle clip-path="url(#clip412)" cx="1016.16" cy="254.127" r="10.8" fill="#000080" fill-rule="evenodd" fill-opacity="1" stroke="#000000" stroke-opacity="1" stroke-width="3.2"/>
<circle clip-path="url(#clip412)" cx="1048.95" cy="237.886" r="10.8" fill="#000080" fill-rule="evenodd" fill-opacity="1" stroke="#000000" stroke-opacity="1" stroke-width="3.2"/>
<circle clip-path="url(#clip412)" cx="1081.73" cy="224.918" r="10.8" fill="#000080" fill-rule="evenodd" fill-opacity="1" stroke="#000000" stroke-opacity="1" stroke-width="3.2"/>
<circle clip-path="url(#clip412)" cx="1114.51" cy="214.579" r="10.8" fill="#000080" fill-rule="evenodd" fill-opacity="1" stroke="#000000" stroke-opacity="1" stroke-width="3.2"/>
<circle clip-path="url(#clip412)" cx="1147.3" cy="206.161" r="10.8" fill="#000080" fill-rule="evenodd" fill-opacity="1" stroke="#000000" stroke-opacity="1" stroke-width="3.2"/>
<circle clip-path="url(#clip412)" cx="1180.08" cy="199.112" r="10.8" fill="#000080" fill-rule="evenodd" fill-opacity="1" stroke="#000000" stroke-opacity="1" stroke-width="3.2"/>
<circle clip-path="url(#clip412)" cx="1212.86" cy="193.06" r="10.8" fill="#000080" fill-rule="evenodd" fill-opacity="1" stroke="#000000" stroke-opacity="1" stroke-width="3.2"/>
<circle clip-path="url(#clip412)" cx="1245.65" cy="187.782" r="10.8" fill="#000080" fill-rule="evenodd" fill-opacity="1" stroke="#000000" stroke-opacity="1" stroke-width="3.2"/>
<circle clip-path="url(#clip412)" cx="1278.43" cy="183.148" r="10.8" fill="#000080" fill-rule="evenodd" fill-opacity="1" stroke="#000000" stroke-opacity="1" stroke-width="3.2"/>
<circle clip-path="url(#clip412)" cx="1311.22" cy="179.076" r="10.8" fill="#000080" fill-rule="evenodd" fill-opacity="1" stroke="#000000" stroke-opacity="1" stroke-width="3.2"/>
<circle clip-path="url(#clip412)" cx="1344" cy="175.503" r="10.8" fill="#000080" fill-rule="evenodd" fill-opacity="1" stroke="#000000" stroke-opacity="1" stroke-width="3.2"/>
<circle clip-path="url(#clip412)" cx="1376.78" cy="172.367" r="10.8" fill="#000080" fill-rule="evenodd" fill-opacity="1" stroke="#000000" stroke-opacity="1" stroke-width="3.2"/>
<circle clip-path="url(#clip412)" cx="1409.57" cy="169.609" r="10.8" fill="#000080" fill-rule="evenodd" fill-opacity="1" stroke="#000000" stroke-opacity="1" stroke-width="3.2"/>
<circle clip-path="url(#clip412)" cx="1442.35" cy="167.168" r="10.8" fill="#000080" fill-rule="evenodd" fill-opacity="1" stroke="#000000" stroke-opacity="1" stroke-width="3.2"/>
<circle clip-path="url(#clip412)" cx="1475.13" cy="164.988" r="10.8" fill="#000080" fill-rule="evenodd" fill-opacity="1" stroke="#000000" stroke-opacity="1" stroke-width="3.2"/>
<circle clip-path="url(#clip412)" cx="1507.92" cy="163.023" r="10.8" fill="#000080" fill-rule="evenodd" fill-opacity="1" stroke="#000000" stroke-opacity="1" stroke-width="3.2"/>
<circle clip-path="url(#clip412)" cx="1540.7" cy="161.235" r="10.8" fill="#000080" fill-rule="evenodd" fill-opacity="1" stroke="#000000" stroke-opacity="1" stroke-width="3.2"/>
<circle clip-path="url(#clip412)" cx="1573.49" cy="159.596" r="10.8" fill="#000080" fill-rule="evenodd" fill-opacity="1" stroke="#000000" stroke-opacity="1" stroke-width="3.2"/>
<circle clip-path="url(#clip412)" cx="1606.27" cy="158.088" r="10.8" fill="#000080" fill-rule="evenodd" fill-opacity="1" stroke="#000000" stroke-opacity="1" stroke-width="3.2"/>
<circle clip-path="url(#clip412)" cx="1639.05" cy="156.702" r="10.8" fill="#000080" fill-rule="evenodd" fill-opacity="1" stroke="#000000" stroke-opacity="1" stroke-width="3.2"/>
<circle clip-path="url(#clip412)" cx="1671.84" cy="155.431" r="10.8" fill="#000080" fill-rule="evenodd" fill-opacity="1" stroke="#000000" stroke-opacity="1" stroke-width="3.2"/>
<circle clip-path="url(#clip412)" cx="1704.62" cy="154.263" r="10.8" fill="#000080" fill-rule="evenodd" fill-opacity="1" stroke="#000000" stroke-opacity="1" stroke-width="3.2"/>
<circle clip-path="url(#clip412)" cx="1737.4" cy="153.192" r="10.8" fill="#000080" fill-rule="evenodd" fill-opacity="1" stroke="#000000" stroke-opacity="1" stroke-width="3.2"/>
<circle clip-path="url(#clip412)" cx="1770.19" cy="152.209" r="10.8" fill="#000080" fill-rule="evenodd" fill-opacity="1" stroke="#000000" stroke-opacity="1" stroke-width="3.2"/>
<circle clip-path="url(#clip412)" cx="1802.97" cy="151.309" r="10.8" fill="#000080" fill-rule="evenodd" fill-opacity="1" stroke="#000000" stroke-opacity="1" stroke-width="3.2"/>
<circle clip-path="url(#clip412)" cx="1835.76" cy="150.483" r="10.8" fill="#000080" fill-rule="evenodd" fill-opacity="1" stroke="#000000" stroke-opacity="1" stroke-width="3.2"/>
<circle clip-path="url(#clip412)" cx="1868.54" cy="149.723" r="10.8" fill="#000080" fill-rule="evenodd" fill-opacity="1" stroke="#000000" stroke-opacity="1" stroke-width="3.2"/>
<circle clip-path="url(#clip412)" cx="1901.32" cy="149.021" r="10.8" fill="#000080" fill-rule="evenodd" fill-opacity="1" stroke="#000000" stroke-opacity="1" stroke-width="3.2"/>
<circle clip-path="url(#clip412)" cx="1934.11" cy="148.372" r="10.8" fill="#000080" fill-rule="evenodd" fill-opacity="1" stroke="#000000" stroke-opacity="1" stroke-width="3.2"/>
<circle clip-path="url(#clip412)" cx="1966.89" cy="147.768" r="10.8" fill="#000080" fill-rule="evenodd" fill-opacity="1" stroke="#000000" stroke-opacity="1" stroke-width="3.2"/>
<circle clip-path="url(#clip412)" cx="1999.67" cy="147.204" r="10.8" fill="#000080" fill-rule="evenodd" fill-opacity="1" stroke="#000000" stroke-opacity="1" stroke-width="3.2"/>
<circle clip-path="url(#clip412)" cx="2032.46" cy="146.677" r="10.8" fill="#000080" fill-rule="evenodd" fill-opacity="1" stroke="#000000" stroke-opacity="1" stroke-width="3.2"/>
<circle clip-path="url(#clip412)" cx="2065.24" cy="146.182" r="10.8" fill="#000080" fill-rule="evenodd" fill-opacity="1" stroke="#000000" stroke-opacity="1" stroke-width="3.2"/>
<circle clip-path="url(#clip412)" cx="2098.03" cy="145.717" r="10.8" fill="#000080" fill-rule="evenodd" fill-opacity="1" stroke="#000000" stroke-opacity="1" stroke-width="3.2"/>
<circle clip-path="url(#clip412)" cx="2130.81" cy="145.28" r="10.8" fill="#000080" fill-rule="evenodd" fill-opacity="1" stroke="#000000" stroke-opacity="1" stroke-width="3.2"/>
<circle clip-path="url(#clip412)" cx="2163.59" cy="144.869" r="10.8" fill="#000080" fill-rule="evenodd" fill-opacity="1" stroke="#000000" stroke-opacity="1" stroke-width="3.2"/>
<circle clip-path="url(#clip412)" cx="2196.38" cy="144.483" r="10.8" fill="#000080" fill-rule="evenodd" fill-opacity="1" stroke="#000000" stroke-opacity="1" stroke-width="3.2"/>
<circle clip-path="url(#clip412)" cx="2229.16" cy="144.121" r="10.8" fill="#000080" fill-rule="evenodd" fill-opacity="1" stroke="#000000" stroke-opacity="1" stroke-width="3.2"/>
<circle clip-path="url(#clip412)" cx="2261.94" cy="143.782" r="10.8" fill="#000080" fill-rule="evenodd" fill-opacity="1" stroke="#000000" stroke-opacity="1" stroke-width="3.2"/>
<circle clip-path="url(#clip412)" cx="2294.73" cy="143.465" r="10.8" fill="#000080" fill-rule="evenodd" fill-opacity="1" stroke="#000000" stroke-opacity="1" stroke-width="3.2"/>
</svg>
