<?xml version="1.0" encoding="utf-8"?>
<svg xmlns="http://www.w3.org/2000/svg" xmlns:xlink="http://www.w3.org/1999/xlink" width="600" height="400" viewBox="0 0 2400 1600">
<defs>
  <clipPath id="clip140">
    <rect x="0" y="0" width="2400" height="1600"/>
  </clipPath>
</defs>
<path clip-path="url(#clip140)" d="M0 1600 L2400 1600 L2400 8.88178e-14 L0 8.88178e-14  Z" fill="#ffffff" fill-rule="evenodd" fill-opacity="1"/>
<defs>
  <clipPath id="clip141">
    <rect x="312" y="0" width="1792" height="1558"/>
  </clipPath>
</defs>
<path clip-path="url(#clip140)" d="M249.542 1423.18 L2352.76 1423.18 L2352.76 106.192 L249.542 106.192  Z" fill="#ffffff" fill-rule="evenodd" fill-opacity="1"/>
<defs>
  <clipPath id="clip142">
    <rect x="249" y="106" width="2104" height="1318"/>
  </clipPath>
</defs>
<polyline clip-path="url(#clip142)" style="stroke:#000000; stroke-linecap:round; stroke-linejoin:round; stroke-width:2; stroke-opacity:0.1; fill:none" points="302.126,1423.18 302.126,106.192 "/>
<polyline clip-path="url(#clip142)" style="stroke:#000000; stroke-linecap:round; stroke-linejoin:round; stroke-width:2; stroke-opacity:0.1; fill:none" points="827.928,1423.18 827.928,106.192 "/>
<polyline clip-path="url(#clip142)" style="stroke:#000000; stroke-linecap:round; stroke-linejoin:round; stroke-width:2; stroke-opacity:0.1; fill:none" points="1353.73,1423.18 1353.73,106.192 "/>
<polyline clip-path="url(#clip142)" style="stroke:#000000; stroke-linecap:round; stroke-linejoin:round; stroke-width:2; stroke-opacity:0.1; fill:none" points="1879.53,1423.18 1879.53,106.192 "/>
<polyline clip-path="url(#clip142)" style="stroke:#000000; stroke-linecap:round; stroke-linejoin:round; stroke-width:2; stroke-opacity:0.1; fill:none" points="249.542,1423.18 2352.76,1423.18 "/>
<polyline clip-path="url(#clip142)" style="stroke:#000000; stroke-linecap:round; stroke-linejoin:round; stroke-width:2; stroke-opacity:0.1; fill:none" points="249.542,1180.48 2352.76,1180.48 "/>
<polyline clip-path="url(#clip142)" style="stroke:#000000; stroke-linecap:round; stroke-linejoin:round; stroke-width:2; stroke-opacity:0.1; fill:none" points="249.542,937.773 2352.76,937.773 "/>
<polyline clip-path="url(#clip142)" style="stroke:#000000; stroke-linecap:round; stroke-linejoin:round; stroke-width:2; stroke-opacity:0.1; fill:none" points="249.542,695.07 2352.76,695.07 "/>
<polyline clip-path="url(#clip142)" style="stroke:#000000; stroke-linecap:round; stroke-linejoin:round; stroke-width:2; stroke-opacity:0.1; fill:none" points="249.542,452.366 2352.76,452.366 "/>
<polyline clip-path="url(#clip142)" style="stroke:#000000; stroke-linecap:round; stroke-linejoin:round; stroke-width:2; stroke-opacity:0.1; fill:none" points="249.542,209.663 2352.76,209.663 "/>
<polyline clip-path="url(#clip140)" style="stroke:#000000; stroke-linecap:round; stroke-linejoin:round; stroke-width:4; stroke-opacity:1; fill:none" points="249.542,1423.18 2352.76,1423.18 "/>
<polyline clip-path="url(#clip140)" style="stroke:#000000; stroke-linecap:round; stroke-linejoin:round; stroke-width:4; stroke-opacity:1; fill:none" points="302.126,1423.18 302.126,1404.28 "/>
<polyline clip-path="url(#clip140)" style="stroke:#000000; stroke-linecap:round; stroke-linejoin:round; stroke-width:4; stroke-opacity:1; fill:none" points="827.928,1423.18 827.928,1404.28 "/>
<polyline clip-path="url(#clip140)" style="stroke:#000000; stroke-linecap:round; stroke-linejoin:round; stroke-width:4; stroke-opacity:1; fill:none" points="1353.73,1423.18 1353.73,1404.28 "/>
<polyline clip-path="url(#clip140)" style="stroke:#000000; stroke-linecap:round; stroke-linejoin:round; stroke-width:4; stroke-opacity:1; fill:none" points="1879.53,1423.18 1879.53,1404.28 "/>
<path clip-path="url(#clip140)" d="M302.126 1454.1 Q298.515 1454.1 296.687 1457.66 Q294.881 1461.2 294.881 1468.33 Q294.881 1475.44 296.687 1479.01 Q298.515 1482.55 302.126 1482.55 Q305.761 1482.55 307.566 1479.01 Q309.395 1475.44 309.395 1468.33 Q309.395 1461.2 307.566 1457.66 Q305.761 1454.1 302.126 1454.1 M302.126 1450.39 Q307.937 1450.39 310.992 1455 Q314.071 1459.58 314.071 1468.33 Q314.071 1477.06 310.992 1481.67 Q307.937 1486.25 302.126 1486.25 Q296.316 1486.25 293.238 1481.67 Q290.182 1477.06 290.182 1468.33 Q290.182 1459.58 293.238 1455 Q296.316 1450.39 302.126 1450.39 Z" fill="#000000" fill-rule="nonzero" fill-opacity="1" /><path clip-path="url(#clip140)" d="M818.206 1451.02 L836.562 1451.02 L836.562 1454.96 L822.488 1454.96 L822.488 1463.43 Q823.506 1463.08 824.525 1462.92 Q825.543 1462.73 826.562 1462.73 Q832.349 1462.73 835.729 1465.9 Q839.108 1469.08 839.108 1474.49 Q839.108 1480.07 835.636 1483.17 Q832.164 1486.25 825.844 1486.25 Q823.669 1486.25 821.4 1485.88 Q819.155 1485.51 816.747 1484.77 L816.747 1480.07 Q818.831 1481.2 821.053 1481.76 Q823.275 1482.32 825.752 1482.32 Q829.756 1482.32 832.094 1480.21 Q834.432 1478.1 834.432 1474.49 Q834.432 1470.88 832.094 1468.77 Q829.756 1466.67 825.752 1466.67 Q823.877 1466.67 822.002 1467.08 Q820.15 1467.5 818.206 1468.38 L818.206 1451.02 Z" fill="#000000" fill-rule="nonzero" fill-opacity="1" /><path clip-path="url(#clip140)" d="M1328.42 1481.64 L1336.06 1481.64 L1336.06 1455.28 L1327.75 1456.95 L1327.75 1452.69 L1336.01 1451.02 L1340.69 1451.02 L1340.69 1481.64 L1348.32 1481.64 L1348.32 1485.58 L1328.42 1485.58 L1328.42 1481.64 Z" fill="#000000" fill-rule="nonzero" fill-opacity="1" /><path clip-path="url(#clip140)" d="M1367.77 1454.1 Q1364.16 1454.1 1362.33 1457.66 Q1360.52 1461.2 1360.52 1468.33 Q1360.52 1475.44 1362.33 1479.01 Q1364.16 1482.55 1367.77 1482.55 Q1371.4 1482.55 1373.21 1479.01 Q1375.04 1475.44 1375.04 1468.33 Q1375.04 1461.2 1373.21 1457.66 Q1371.4 1454.1 1367.77 1454.1 M1367.77 1450.39 Q1373.58 1450.39 1376.63 1455 Q1379.71 1459.58 1379.71 1468.33 Q1379.71 1477.06 1376.63 1481.67 Q1373.58 1486.25 1367.77 1486.25 Q1361.96 1486.25 1358.88 1481.67 Q1355.82 1477.06 1355.82 1468.33 Q1355.82 1459.58 1358.88 1455 Q1361.96 1450.39 1367.77 1450.39 Z" fill="#000000" fill-rule="nonzero" fill-opacity="1" /><path clip-path="url(#clip140)" d="M1854.72 1481.64 L1862.35 1481.64 L1862.35 1455.28 L1854.04 1456.95 L1854.04 1452.69 L1862.31 1451.02 L1866.98 1451.02 L1866.98 1481.64 L1874.62 1481.64 L1874.62 1485.58 L1854.72 1485.58 L1854.72 1481.64 Z" fill="#000000" fill-rule="nonzero" fill-opacity="1" /><path clip-path="url(#clip140)" d="M1884.11 1451.02 L1902.47 1451.02 L1902.47 1454.96 L1888.4 1454.96 L1888.4 1463.43 Q1889.41 1463.08 1890.43 1462.92 Q1891.45 1462.73 1892.47 1462.73 Q1898.26 1462.73 1901.64 1465.9 Q1905.02 1469.08 1905.02 1474.49 Q1905.02 1480.07 1901.54 1483.17 Q1898.07 1486.25 1891.75 1486.25 Q1889.58 1486.25 1887.31 1485.88 Q1885.06 1485.51 1882.66 1484.77 L1882.66 1480.07 Q1884.74 1481.2 1886.96 1481.76 Q1889.18 1482.32 1891.66 1482.32 Q1895.66 1482.32 1898 1480.21 Q1900.34 1478.1 1900.34 1474.49 Q1900.34 1470.88 1898 1468.77 Q1895.66 1466.67 1891.66 1466.67 Q1889.79 1466.67 1887.91 1467.08 Q1886.06 1467.5 1884.11 1468.38 L1884.11 1451.02 Z" fill="#000000" fill-rule="nonzero" fill-opacity="1" /><path clip-path="url(#clip140)" d="M1249.35 1522.08 L1249.35 1528.35 Q1245.69 1526.6 1242.44 1525.74 Q1239.19 1524.88 1236.17 1524.88 Q1230.92 1524.88 1228.05 1526.92 Q1225.22 1528.96 1225.22 1532.71 Q1225.22 1535.87 1227.1 1537.49 Q1229.01 1539.08 1234.29 1540.07 L1238.18 1540.86 Q1245.37 1542.23 1248.78 1545.7 Q1252.21 1549.14 1252.21 1554.93 Q1252.21 1561.84 1247.57 1565.4 Q1242.95 1568.97 1234.01 1568.97 Q1230.63 1568.97 1226.81 1568.2 Q1223.03 1567.44 1218.95 1565.94 L1218.95 1559.32 Q1222.87 1561.52 1226.62 1562.63 Q1230.38 1563.75 1234.01 1563.75 Q1239.51 1563.75 1242.5 1561.58 Q1245.5 1559.42 1245.5 1555.41 Q1245.5 1551.91 1243.33 1549.93 Q1241.2 1547.96 1236.3 1546.97 L1232.38 1546.21 Q1225.19 1544.78 1221.98 1541.72 Q1218.76 1538.67 1218.76 1533.22 Q1218.76 1526.92 1223.18 1523.29 Q1227.64 1519.66 1235.44 1519.66 Q1238.78 1519.66 1242.25 1520.27 Q1245.72 1520.87 1249.35 1522.08 Z" fill="#000000" fill-rule="nonzero" fill-opacity="1" /><path clip-path="url(#clip140)" d="M1267.78 1522.27 L1267.78 1532.4 L1279.84 1532.4 L1279.84 1536.95 L1267.78 1536.95 L1267.78 1556.3 Q1267.78 1560.66 1268.95 1561.9 Q1270.16 1563.14 1273.82 1563.14 L1279.84 1563.14 L1279.84 1568.04 L1273.82 1568.04 Q1267.04 1568.04 1264.47 1565.53 Q1261.89 1562.98 1261.89 1556.3 L1261.89 1536.95 L1257.59 1536.95 L1257.59 1532.4 L1261.89 1532.4 L1261.89 1522.27 L1267.78 1522.27 Z" fill="#000000" fill-rule="nonzero" fill-opacity="1" /><path clip-path="url(#clip140)" d="M1303.74 1550.12 Q1296.65 1550.12 1293.91 1551.75 Q1291.17 1553.37 1291.17 1557.29 Q1291.17 1560.4 1293.21 1562.25 Q1295.28 1564.07 1298.81 1564.07 Q1303.68 1564.07 1306.61 1560.63 Q1309.57 1557.16 1309.57 1551.43 L1309.57 1550.12 L1303.74 1550.12 M1315.42 1547.71 L1315.42 1568.04 L1309.57 1568.04 L1309.57 1562.63 Q1307.56 1565.88 1304.57 1567.44 Q1301.58 1568.97 1297.25 1568.97 Q1291.78 1568.97 1288.53 1565.91 Q1285.31 1562.82 1285.31 1557.67 Q1285.31 1551.65 1289.32 1548.6 Q1293.37 1545.54 1301.36 1545.54 L1309.57 1545.54 L1309.57 1544.97 Q1309.57 1540.93 1306.89 1538.73 Q1304.25 1536.5 1299.45 1536.5 Q1296.39 1536.5 1293.49 1537.23 Q1290.6 1537.97 1287.92 1539.43 L1287.92 1534.02 Q1291.14 1532.78 1294.16 1532.17 Q1297.19 1531.54 1300.05 1531.54 Q1307.79 1531.54 1311.6 1535.55 Q1315.42 1539.56 1315.42 1547.71 Z" fill="#000000" fill-rule="nonzero" fill-opacity="1" /><path clip-path="url(#clip140)" d="M1333.28 1522.27 L1333.28 1532.4 L1345.34 1532.4 L1345.34 1536.95 L1333.28 1536.95 L1333.28 1556.3 Q1333.28 1560.66 1334.46 1561.9 Q1335.67 1563.14 1339.33 1563.14 L1345.34 1563.14 L1345.34 1568.04 L1339.33 1568.04 Q1332.55 1568.04 1329.97 1565.53 Q1327.39 1562.98 1327.39 1556.3 L1327.39 1536.95 L1323.09 1536.95 L1323.09 1532.4 L1327.39 1532.4 L1327.39 1522.27 L1333.28 1522.27 Z" fill="#000000" fill-rule="nonzero" fill-opacity="1" /><path clip-path="url(#clip140)" d="M1383.54 1548.76 L1383.54 1551.62 L1356.61 1551.62 Q1356.99 1557.67 1360.24 1560.85 Q1363.52 1564 1369.34 1564 Q1372.72 1564 1375.87 1563.17 Q1379.05 1562.35 1382.17 1560.69 L1382.17 1566.23 Q1379.02 1567.57 1375.71 1568.27 Q1372.4 1568.97 1368.99 1568.97 Q1360.46 1568.97 1355.46 1564 Q1350.5 1559.04 1350.5 1550.57 Q1350.5 1541.82 1355.21 1536.69 Q1359.95 1531.54 1367.97 1531.54 Q1375.17 1531.54 1379.34 1536.18 Q1383.54 1540.8 1383.54 1548.76 M1377.68 1547.04 Q1377.62 1542.23 1374.98 1539.37 Q1372.37 1536.5 1368.04 1536.5 Q1363.14 1536.5 1360.17 1539.27 Q1357.25 1542.04 1356.8 1547.07 L1377.68 1547.04 Z" fill="#000000" fill-rule="nonzero" fill-opacity="1" /><polyline clip-path="url(#clip140)" style="stroke:#000000; stroke-linecap:round; stroke-linejoin:round; stroke-width:4; stroke-opacity:1; fill:none" points="249.542,1423.18 249.542,106.192 "/>
<polyline clip-path="url(#clip140)" style="stroke:#000000; stroke-linecap:round; stroke-linejoin:round; stroke-width:4; stroke-opacity:1; fill:none" points="249.542,1423.18 268.44,1423.18 "/>
<polyline clip-path="url(#clip140)" style="stroke:#000000; stroke-linecap:round; stroke-linejoin:round; stroke-width:4; stroke-opacity:1; fill:none" points="249.542,1180.48 268.44,1180.48 "/>
<polyline clip-path="url(#clip140)" style="stroke:#000000; stroke-linecap:round; stroke-linejoin:round; stroke-width:4; stroke-opacity:1; fill:none" points="249.542,937.773 268.44,937.773 "/>
<polyline clip-path="url(#clip140)" style="stroke:#000000; stroke-linecap:round; stroke-linejoin:round; stroke-width:4; stroke-opacity:1; fill:none" points="249.542,695.07 268.44,695.07 "/>
<polyline clip-path="url(#clip140)" style="stroke:#000000; stroke-linecap:round; stroke-linejoin:round; stroke-width:4; stroke-opacity:1; fill:none" points="249.542,452.366 268.44,452.366 "/>
<polyline clip-path="url(#clip140)" style="stroke:#000000; stroke-linecap:round; stroke-linejoin:round; stroke-width:4; stroke-opacity:1; fill:none" points="249.542,209.663 268.44,209.663 "/>
<path clip-path="url(#clip140)" d="M126.205 1408.98 Q122.593 1408.98 120.765 1412.54 Q118.959 1416.08 118.959 1423.21 Q118.959 1430.32 120.765 1433.89 Q122.593 1437.43 126.205 1437.43 Q129.839 1437.43 131.644 1433.89 Q133.473 1430.32 133.473 1423.21 Q133.473 1416.08 131.644 1412.54 Q129.839 1408.98 126.205 1408.98 M126.205 1405.27 Q132.015 1405.27 135.07 1409.88 Q138.149 1414.46 138.149 1423.21 Q138.149 1431.94 135.07 1436.55 Q132.015 1441.13 126.205 1441.13 Q120.394 1441.13 117.316 1436.55 Q114.26 1431.94 114.26 1423.21 Q114.26 1414.46 117.316 1409.88 Q120.394 1405.27 126.205 1405.27 Z" fill="#000000" fill-rule="nonzero" fill-opacity="1" /><path clip-path="url(#clip140)" d="M146.366 1434.58 L151.251 1434.58 L151.251 1440.46 L146.366 1440.46 L146.366 1434.58 Z" fill="#000000" fill-rule="nonzero" fill-opacity="1" /><path clip-path="url(#clip140)" d="M171.436 1408.98 Q167.825 1408.98 165.996 1412.54 Q164.19 1416.08 164.19 1423.21 Q164.19 1430.32 165.996 1433.89 Q167.825 1437.43 171.436 1437.43 Q175.07 1437.43 176.876 1433.89 Q178.704 1430.32 178.704 1423.21 Q178.704 1416.08 176.876 1412.54 Q175.07 1408.98 171.436 1408.98 M171.436 1405.27 Q177.246 1405.27 180.301 1409.88 Q183.38 1414.46 183.38 1423.21 Q183.38 1431.94 180.301 1436.55 Q177.246 1441.13 171.436 1441.13 Q165.626 1441.13 162.547 1436.55 Q159.491 1431.94 159.491 1423.21 Q159.491 1414.46 162.547 1409.88 Q165.626 1405.27 171.436 1405.27 Z" fill="#000000" fill-rule="nonzero" fill-opacity="1" /><path clip-path="url(#clip140)" d="M201.598 1408.98 Q197.987 1408.98 196.158 1412.54 Q194.352 1416.08 194.352 1423.21 Q194.352 1430.32 196.158 1433.89 Q197.987 1437.43 201.598 1437.43 Q205.232 1437.43 207.037 1433.89 Q208.866 1430.32 208.866 1423.21 Q208.866 1416.08 207.037 1412.54 Q205.232 1408.98 201.598 1408.98 M201.598 1405.27 Q207.408 1405.27 210.463 1409.88 Q213.542 1414.46 213.542 1423.21 Q213.542 1431.94 210.463 1436.55 Q207.408 1441.13 201.598 1441.13 Q195.787 1441.13 192.709 1436.55 Q189.653 1431.94 189.653 1423.21 Q189.653 1414.46 192.709 1409.88 Q195.787 1405.27 201.598 1405.27 Z" fill="#000000" fill-rule="nonzero" fill-opacity="1" /><path clip-path="url(#clip140)" d="M127.2 1166.28 Q123.589 1166.28 121.76 1169.84 Q119.955 1173.38 119.955 1180.51 Q119.955 1187.62 121.76 1191.18 Q123.589 1194.72 127.2 1194.72 Q130.834 1194.72 132.64 1191.18 Q134.468 1187.62 134.468 1180.51 Q134.468 1173.38 132.64 1169.84 Q130.834 1166.28 127.2 1166.28 M127.2 1162.57 Q133.01 1162.57 136.066 1167.18 Q139.144 1171.76 139.144 1180.51 Q139.144 1189.24 136.066 1193.84 Q133.01 1198.43 127.2 1198.43 Q121.39 1198.43 118.311 1193.84 Q115.256 1189.24 115.256 1180.51 Q115.256 1171.76 118.311 1167.18 Q121.39 1162.57 127.2 1162.57 Z" fill="#000000" fill-rule="nonzero" fill-opacity="1" /><path clip-path="url(#clip140)" d="M147.362 1191.88 L152.246 1191.88 L152.246 1197.76 L147.362 1197.76 L147.362 1191.88 Z" fill="#000000" fill-rule="nonzero" fill-opacity="1" /><path clip-path="url(#clip140)" d="M172.431 1166.28 Q168.82 1166.28 166.991 1169.84 Q165.186 1173.38 165.186 1180.51 Q165.186 1187.62 166.991 1191.18 Q168.82 1194.72 172.431 1194.72 Q176.065 1194.72 177.871 1191.18 Q179.7 1187.62 179.7 1180.51 Q179.7 1173.38 177.871 1169.84 Q176.065 1166.28 172.431 1166.28 M172.431 1162.57 Q178.241 1162.57 181.297 1167.18 Q184.376 1171.76 184.376 1180.51 Q184.376 1189.24 181.297 1193.84 Q178.241 1198.43 172.431 1198.43 Q166.621 1198.43 163.542 1193.84 Q160.487 1189.24 160.487 1180.51 Q160.487 1171.76 163.542 1167.18 Q166.621 1162.57 172.431 1162.57 Z" fill="#000000" fill-rule="nonzero" fill-opacity="1" /><path clip-path="url(#clip140)" d="M192.639 1163.2 L210.996 1163.2 L210.996 1167.13 L196.922 1167.13 L196.922 1175.6 Q197.94 1175.26 198.959 1175.09 Q199.977 1174.91 200.996 1174.91 Q206.783 1174.91 210.162 1178.08 Q213.542 1181.25 213.542 1186.67 Q213.542 1192.25 210.07 1195.35 Q206.598 1198.43 200.278 1198.43 Q198.102 1198.43 195.834 1198.06 Q193.588 1197.69 191.181 1196.95 L191.181 1192.25 Q193.264 1193.38 195.487 1193.94 Q197.709 1194.49 200.186 1194.49 Q204.19 1194.49 206.528 1192.39 Q208.866 1190.28 208.866 1186.67 Q208.866 1183.06 206.528 1180.95 Q204.19 1178.84 200.186 1178.84 Q198.311 1178.84 196.436 1179.26 Q194.584 1179.68 192.639 1180.56 L192.639 1163.2 Z" fill="#000000" fill-rule="nonzero" fill-opacity="1" /><path clip-path="url(#clip140)" d="M126.205 923.572 Q122.593 923.572 120.765 927.137 Q118.959 930.678 118.959 937.808 Q118.959 944.914 120.765 948.479 Q122.593 952.021 126.205 952.021 Q129.839 952.021 131.644 948.479 Q133.473 944.914 133.473 937.808 Q133.473 930.678 131.644 927.137 Q129.839 923.572 126.205 923.572 M126.205 919.868 Q132.015 919.868 135.07 924.474 Q138.149 929.058 138.149 937.808 Q138.149 946.535 135.07 951.141 Q132.015 955.724 126.205 955.724 Q120.394 955.724 117.316 951.141 Q114.26 946.535 114.26 937.808 Q114.26 929.058 117.316 924.474 Q120.394 919.868 126.205 919.868 Z" fill="#000000" fill-rule="nonzero" fill-opacity="1" /><path clip-path="url(#clip140)" d="M146.366 949.173 L151.251 949.173 L151.251 955.053 L146.366 955.053 L146.366 949.173 Z" fill="#000000" fill-rule="nonzero" fill-opacity="1" /><path clip-path="url(#clip140)" d="M162.246 951.118 L169.885 951.118 L169.885 924.752 L161.575 926.419 L161.575 922.16 L169.839 920.493 L174.514 920.493 L174.514 951.118 L182.153 951.118 L182.153 955.053 L162.246 955.053 L162.246 951.118 Z" fill="#000000" fill-rule="nonzero" fill-opacity="1" /><path clip-path="url(#clip140)" d="M201.598 923.572 Q197.987 923.572 196.158 927.137 Q194.352 930.678 194.352 937.808 Q194.352 944.914 196.158 948.479 Q197.987 952.021 201.598 952.021 Q205.232 952.021 207.037 948.479 Q208.866 944.914 208.866 937.808 Q208.866 930.678 207.037 927.137 Q205.232 923.572 201.598 923.572 M201.598 919.868 Q207.408 919.868 210.463 924.474 Q213.542 929.058 213.542 937.808 Q213.542 946.535 210.463 951.141 Q207.408 955.724 201.598 955.724 Q195.787 955.724 192.709 951.141 Q189.653 946.535 189.653 937.808 Q189.653 929.058 192.709 924.474 Q195.787 919.868 201.598 919.868 Z" fill="#000000" fill-rule="nonzero" fill-opacity="1" /><path clip-path="url(#clip140)" d="M127.2 680.868 Q123.589 680.868 121.76 684.433 Q119.955 687.975 119.955 695.104 Q119.955 702.211 121.76 705.776 Q123.589 709.317 127.2 709.317 Q130.834 709.317 132.64 705.776 Q134.468 702.211 134.468 695.104 Q134.468 687.975 132.64 684.433 Q130.834 680.868 127.2 680.868 M127.2 677.165 Q133.01 677.165 136.066 681.771 Q139.144 686.354 139.144 695.104 Q139.144 703.831 136.066 708.438 Q133.01 713.021 127.2 713.021 Q121.39 713.021 118.311 708.438 Q115.256 703.831 115.256 695.104 Q115.256 686.354 118.311 681.771 Q121.39 677.165 127.2 677.165 Z" fill="#000000" fill-rule="nonzero" fill-opacity="1" /><path clip-path="url(#clip140)" d="M147.362 706.47 L152.246 706.47 L152.246 712.35 L147.362 712.35 L147.362 706.47 Z" fill="#000000" fill-rule="nonzero" fill-opacity="1" /><path clip-path="url(#clip140)" d="M163.241 708.414 L170.88 708.414 L170.88 682.049 L162.57 683.716 L162.57 679.456 L170.834 677.79 L175.51 677.79 L175.51 708.414 L183.149 708.414 L183.149 712.35 L163.241 712.35 L163.241 708.414 Z" fill="#000000" fill-rule="nonzero" fill-opacity="1" /><path clip-path="url(#clip140)" d="M192.639 677.79 L210.996 677.79 L210.996 681.725 L196.922 681.725 L196.922 690.197 Q197.94 689.85 198.959 689.688 Q199.977 689.503 200.996 689.503 Q206.783 689.503 210.162 692.674 Q213.542 695.845 213.542 701.262 Q213.542 706.84 210.07 709.942 Q206.598 713.021 200.278 713.021 Q198.102 713.021 195.834 712.651 Q193.588 712.28 191.181 711.539 L191.181 706.84 Q193.264 707.975 195.487 708.53 Q197.709 709.086 200.186 709.086 Q204.19 709.086 206.528 706.979 Q208.866 704.873 208.866 701.262 Q208.866 697.651 206.528 695.544 Q204.19 693.438 200.186 693.438 Q198.311 693.438 196.436 693.854 Q194.584 694.271 192.639 695.151 L192.639 677.79 Z" fill="#000000" fill-rule="nonzero" fill-opacity="1" /><path clip-path="url(#clip140)" d="M126.205 438.165 Q122.593 438.165 120.765 441.73 Q118.959 445.271 118.959 452.401 Q118.959 459.507 120.765 463.072 Q122.593 466.614 126.205 466.614 Q129.839 466.614 131.644 463.072 Q133.473 459.507 133.473 452.401 Q133.473 445.271 131.644 441.73 Q129.839 438.165 126.205 438.165 M126.205 434.461 Q132.015 434.461 135.07 439.068 Q138.149 443.651 138.149 452.401 Q138.149 461.128 135.07 465.734 Q132.015 470.318 126.205 470.318 Q120.394 470.318 117.316 465.734 Q114.26 461.128 114.26 452.401 Q114.26 443.651 117.316 439.068 Q120.394 434.461 126.205 434.461 Z" fill="#000000" fill-rule="nonzero" fill-opacity="1" /><path clip-path="url(#clip140)" d="M146.366 463.767 L151.251 463.767 L151.251 469.646 L146.366 469.646 L146.366 463.767 Z" fill="#000000" fill-rule="nonzero" fill-opacity="1" /><path clip-path="url(#clip140)" d="M165.464 465.711 L181.783 465.711 L181.783 469.646 L159.839 469.646 L159.839 465.711 Q162.501 462.956 167.084 458.327 Q171.69 453.674 172.871 452.331 Q175.116 449.808 175.996 448.072 Q176.899 446.313 176.899 444.623 Q176.899 441.869 174.954 440.132 Q173.033 438.396 169.931 438.396 Q167.732 438.396 165.278 439.16 Q162.848 439.924 160.07 441.475 L160.07 436.753 Q162.894 435.619 165.348 435.04 Q167.802 434.461 169.839 434.461 Q175.209 434.461 178.403 437.146 Q181.598 439.832 181.598 444.322 Q181.598 446.452 180.788 448.373 Q180.001 450.271 177.894 452.864 Q177.315 453.535 174.214 456.753 Q171.112 459.947 165.464 465.711 Z" fill="#000000" fill-rule="nonzero" fill-opacity="1" /><path clip-path="url(#clip140)" d="M201.598 438.165 Q197.987 438.165 196.158 441.73 Q194.352 445.271 194.352 452.401 Q194.352 459.507 196.158 463.072 Q197.987 466.614 201.598 466.614 Q205.232 466.614 207.037 463.072 Q208.866 459.507 208.866 452.401 Q208.866 445.271 207.037 441.73 Q205.232 438.165 201.598 438.165 M201.598 434.461 Q207.408 434.461 210.463 439.068 Q213.542 443.651 213.542 452.401 Q213.542 461.128 210.463 465.734 Q207.408 470.318 201.598 470.318 Q195.787 470.318 192.709 465.734 Q189.653 461.128 189.653 452.401 Q189.653 443.651 192.709 439.068 Q195.787 434.461 201.598 434.461 Z" fill="#000000" fill-rule="nonzero" fill-opacity="1" /><path clip-path="url(#clip140)" d="M127.2 195.461 Q123.589 195.461 121.76 199.026 Q119.955 202.568 119.955 209.698 Q119.955 216.804 121.76 220.369 Q123.589 223.91 127.2 223.91 Q130.834 223.91 132.64 220.369 Q134.468 216.804 134.468 209.698 Q134.468 202.568 132.64 199.026 Q130.834 195.461 127.2 195.461 M127.2 191.758 Q133.01 191.758 136.066 196.364 Q139.144 200.948 139.144 209.698 Q139.144 218.424 136.066 223.031 Q133.01 227.614 127.2 227.614 Q121.39 227.614 118.311 223.031 Q115.256 218.424 115.256 209.698 Q115.256 200.948 118.311 196.364 Q121.39 191.758 127.2 191.758 Z" fill="#000000" fill-rule="nonzero" fill-opacity="1" /><path clip-path="url(#clip140)" d="M147.362 221.063 L152.246 221.063 L152.246 226.943 L147.362 226.943 L147.362 221.063 Z" fill="#000000" fill-rule="nonzero" fill-opacity="1" /><path clip-path="url(#clip140)" d="M166.459 223.008 L182.778 223.008 L182.778 226.943 L160.834 226.943 L160.834 223.008 Q163.496 220.253 168.079 215.623 Q172.686 210.971 173.866 209.628 Q176.112 207.105 176.991 205.369 Q177.894 203.61 177.894 201.92 Q177.894 199.165 175.95 197.429 Q174.028 195.693 170.927 195.693 Q168.727 195.693 166.274 196.457 Q163.843 197.221 161.065 198.772 L161.065 194.049 Q163.89 192.915 166.343 192.337 Q168.797 191.758 170.834 191.758 Q176.204 191.758 179.399 194.443 Q182.593 197.128 182.593 201.619 Q182.593 203.748 181.783 205.67 Q180.996 207.568 178.889 210.16 Q178.311 210.832 175.209 214.049 Q172.107 217.244 166.459 223.008 Z" fill="#000000" fill-rule="nonzero" fill-opacity="1" /><path clip-path="url(#clip140)" d="M192.639 192.383 L210.996 192.383 L210.996 196.318 L196.922 196.318 L196.922 204.79 Q197.94 204.443 198.959 204.281 Q199.977 204.096 200.996 204.096 Q206.783 204.096 210.162 207.267 Q213.542 210.438 213.542 215.855 Q213.542 221.434 210.07 224.535 Q206.598 227.614 200.278 227.614 Q198.102 227.614 195.834 227.244 Q193.588 226.873 191.181 226.133 L191.181 221.434 Q193.264 222.568 195.487 223.123 Q197.709 223.679 200.186 223.679 Q204.19 223.679 206.528 221.572 Q208.866 219.466 208.866 215.855 Q208.866 212.244 206.528 210.137 Q204.19 208.031 200.186 208.031 Q198.311 208.031 196.436 208.448 Q194.584 208.864 192.639 209.744 L192.639 192.383 Z" fill="#000000" fill-rule="nonzero" fill-opacity="1" /><path clip-path="url(#clip140)" d="M21.7677 926.375 L39.6235 926.375 L39.6235 918.29 Q39.6235 913.803 37.3 911.352 Q34.9765 908.901 30.6797 908.901 Q26.4147 908.901 24.0912 911.352 Q21.7677 913.803 21.7677 918.29 L21.7677 926.375 M16.4842 932.804 L16.4842 918.29 Q16.4842 910.302 20.1126 906.227 Q23.7092 902.122 30.6797 902.122 Q37.7138 902.122 41.3104 906.227 Q44.907 910.302 44.907 918.29 L44.907 926.375 L64.0042 926.375 L64.0042 932.804 L16.4842 932.804 Z" fill="#000000" fill-rule="nonzero" fill-opacity="1" /><path clip-path="url(#clip140)" d="M33.8307 874.24 Q33.2578 875.226 33.0032 876.404 Q32.7167 877.55 32.7167 878.95 Q32.7167 883.916 35.9632 886.589 Q39.1779 889.231 45.2253 889.231 L64.0042 889.231 L64.0042 895.119 L28.3562 895.119 L28.3562 889.231 L33.8944 889.231 Q30.6479 887.385 29.0883 884.425 Q27.4968 881.465 27.4968 877.232 Q27.4968 876.627 27.5923 875.895 Q27.656 875.163 27.8151 874.272 L33.8307 874.24 Z" fill="#000000" fill-rule="nonzero" fill-opacity="1" /><path clip-path="url(#clip140)" d="M32.4621 855.716 Q32.4621 860.426 36.1542 863.163 Q39.8145 865.901 46.212 865.901 Q52.6095 865.901 56.3017 863.195 Q59.9619 860.458 59.9619 855.716 Q59.9619 851.037 56.2698 848.3 Q52.5777 845.562 46.212 845.562 Q39.8781 845.562 36.186 848.3 Q32.4621 851.037 32.4621 855.716 M27.4968 855.716 Q27.4968 848.077 32.4621 843.716 Q37.4273 839.356 46.212 839.356 Q54.9649 839.356 59.9619 843.716 Q64.9272 848.077 64.9272 855.716 Q64.9272 863.386 59.9619 867.747 Q54.9649 872.075 46.212 872.075 Q37.4273 872.075 32.4621 867.747 Q27.4968 863.386 27.4968 855.716 Z" fill="#000000" fill-rule="nonzero" fill-opacity="1" /><path clip-path="url(#clip140)" d="M46.212 804.058 Q39.7508 804.058 36.0905 806.731 Q32.3984 809.373 32.3984 814.02 Q32.3984 818.667 36.0905 821.341 Q39.7508 823.983 46.212 823.983 Q52.6732 823.983 56.3653 821.341 Q60.0256 818.667 60.0256 814.02 Q60.0256 809.373 56.3653 806.731 Q52.6732 804.058 46.212 804.058 M33.7671 823.983 Q30.5842 822.136 29.0564 819.336 Q27.4968 816.503 27.4968 812.588 Q27.4968 806.095 32.6531 802.053 Q37.8093 797.979 46.212 797.979 Q54.6147 797.979 59.771 802.053 Q64.9272 806.095 64.9272 812.588 Q64.9272 816.503 63.3994 819.336 Q61.8398 822.136 58.657 823.983 L64.0042 823.983 L64.0042 829.871 L14.479 829.871 L14.479 823.983 L33.7671 823.983 Z" fill="#000000" fill-rule="nonzero" fill-opacity="1" /><path clip-path="url(#clip140)" d="M46.0847 772.07 Q46.0847 779.168 47.7079 781.905 Q49.3312 784.642 53.2461 784.642 Q56.3653 784.642 58.2114 782.605 Q60.0256 780.537 60.0256 777.004 Q60.0256 772.134 56.5881 769.206 Q53.1188 766.246 47.3897 766.246 L46.0847 766.246 L46.0847 772.07 M43.6657 760.389 L64.0042 760.389 L64.0042 766.246 L58.5933 766.246 Q61.8398 768.251 63.3994 771.243 Q64.9272 774.235 64.9272 778.563 Q64.9272 784.038 61.8716 787.284 Q58.7843 790.499 53.6281 790.499 Q47.6125 790.499 44.5569 786.489 Q41.5014 782.446 41.5014 774.457 L41.5014 766.246 L40.9285 766.246 Q36.8862 766.246 34.6901 768.919 Q32.4621 771.561 32.4621 776.367 Q32.4621 779.423 33.1941 782.319 Q33.9262 785.215 35.3903 787.889 L29.9795 787.889 Q28.7381 784.674 28.1334 781.651 Q27.4968 778.627 27.4968 775.762 Q27.4968 768.028 31.5072 764.209 Q35.5176 760.389 43.6657 760.389 Z" fill="#000000" fill-rule="nonzero" fill-opacity="1" /><path clip-path="url(#clip140)" d="M46.212 722.736 Q39.7508 722.736 36.0905 725.41 Q32.3984 728.051 32.3984 732.698 Q32.3984 737.345 36.0905 740.019 Q39.7508 742.661 46.212 742.661 Q52.6732 742.661 56.3653 740.019 Q60.0256 737.345 60.0256 732.698 Q60.0256 728.051 56.3653 725.41 Q52.6732 722.736 46.212 722.736 M33.7671 742.661 Q30.5842 740.815 29.0564 738.014 Q27.4968 735.181 27.4968 731.266 Q27.4968 724.773 32.6531 720.731 Q37.8093 716.657 46.212 716.657 Q54.6147 716.657 59.771 720.731 Q64.9272 724.773 64.9272 731.266 Q64.9272 735.181 63.3994 738.014 Q61.8398 740.815 58.657 742.661 L64.0042 742.661 L64.0042 748.549 L14.479 748.549 L14.479 742.661 L33.7671 742.661 Z" fill="#000000" fill-rule="nonzero" fill-opacity="1" /><path clip-path="url(#clip140)" d="M28.3562 706.949 L28.3562 701.093 L64.0042 701.093 L64.0042 706.949 L28.3562 706.949 M14.479 706.949 L14.479 701.093 L21.895 701.093 L21.895 706.949 L14.479 706.949 Z" fill="#000000" fill-rule="nonzero" fill-opacity="1" /><path clip-path="url(#clip140)" d="M14.479 688.839 L14.479 682.982 L64.0042 682.982 L64.0042 688.839 L14.479 688.839 Z" fill="#000000" fill-rule="nonzero" fill-opacity="1" /><path clip-path="url(#clip140)" d="M28.3562 670.728 L28.3562 664.872 L64.0042 664.872 L64.0042 670.728 L28.3562 670.728 M14.479 670.728 L14.479 664.872 L21.895 664.872 L21.895 670.728 L14.479 670.728 Z" fill="#000000" fill-rule="nonzero" fill-opacity="1" /><path clip-path="url(#clip140)" d="M18.2347 646.825 L28.3562 646.825 L28.3562 634.762 L32.9077 634.762 L32.9077 646.825 L52.2594 646.825 Q56.6199 646.825 57.8613 645.647 Q59.1026 644.438 59.1026 640.778 L59.1026 634.762 L64.0042 634.762 L64.0042 640.778 Q64.0042 647.557 61.4897 650.135 Q58.9434 652.713 52.2594 652.713 L32.9077 652.713 L32.9077 657.01 L28.3562 657.01 L28.3562 652.713 L18.2347 652.713 L18.2347 646.825 Z" fill="#000000" fill-rule="nonzero" fill-opacity="1" /><path clip-path="url(#clip140)" d="M67.3143 612.227 Q73.68 614.71 75.6216 617.065 Q77.5631 619.421 77.5631 623.367 L77.5631 628.046 L72.6615 628.046 L72.6615 624.609 Q72.6615 622.19 71.5157 620.853 Q70.3699 619.516 66.1048 617.893 L63.4312 616.842 L28.3562 631.261 L28.3562 625.054 L56.238 613.914 L28.3562 602.774 L28.3562 596.568 L67.3143 612.227 Z" fill="#000000" fill-rule="nonzero" fill-opacity="1" /><path clip-path="url(#clip140)" d="M737.683 10.0578 L737.683 15.758 Q734.355 14.1666 731.404 13.3853 Q728.452 12.6041 725.704 12.6041 Q720.929 12.6041 718.325 14.4559 Q715.75 16.3078 715.75 19.7221 Q715.75 22.5867 717.457 24.0624 Q719.193 25.5091 723.996 26.4061 L727.526 27.1295 Q734.066 28.3737 737.162 31.5276 Q740.287 34.6526 740.287 39.9188 Q740.287 46.1977 736.062 49.4384 Q731.867 52.6791 723.736 52.6791 Q720.669 52.6791 717.197 51.9847 Q713.753 51.2902 710.05 49.9303 L710.05 43.9118 Q713.609 45.9083 717.023 46.921 Q720.437 47.9338 723.736 47.9338 Q728.742 47.9338 731.462 45.9662 Q734.182 43.9986 734.182 40.3528 Q734.182 37.1699 732.214 35.376 Q730.275 33.582 725.819 32.685 L722.26 31.9906 Q715.721 30.6885 712.799 27.9107 Q709.876 25.133 709.876 20.1851 Q709.876 14.4559 713.898 11.1573 Q717.949 7.85875 725.038 7.85875 Q728.076 7.85875 731.23 8.40852 Q734.384 8.95829 737.683 10.0578 Z" fill="#000000" fill-rule="nonzero" fill-opacity="1" /><path clip-path="url(#clip140)" d="M754.436 10.2314 L754.436 19.4328 L765.402 19.4328 L765.402 23.5705 L754.436 23.5705 L754.436 41.163 Q754.436 45.1271 755.507 46.2555 Q756.606 47.384 759.934 47.384 L765.402 47.384 L765.402 51.84 L759.934 51.84 Q753.771 51.84 751.427 49.5541 Q749.083 47.2393 749.083 41.163 L749.083 23.5705 L745.177 23.5705 L745.177 19.4328 L749.083 19.4328 L749.083 10.2314 L754.436 10.2314 Z" fill="#000000" fill-rule="nonzero" fill-opacity="1" /><path clip-path="url(#clip140)" d="M787.133 35.5496 Q780.68 35.5496 778.192 37.0253 Q775.703 38.501 775.703 42.06 Q775.703 44.8956 777.555 46.5738 Q779.436 48.2231 782.648 48.2231 Q787.075 48.2231 789.737 45.0981 Q792.428 41.9442 792.428 36.7359 L792.428 35.5496 L787.133 35.5496 M797.752 33.3505 L797.752 51.84 L792.428 51.84 L792.428 46.921 Q790.605 49.8724 787.885 51.2902 Q785.165 52.6791 781.23 52.6791 Q776.253 52.6791 773.302 49.9014 Q770.379 47.0947 770.379 42.4072 Q770.379 36.9385 774.025 34.1607 Q777.7 31.3829 784.962 31.3829 L792.428 31.3829 L792.428 30.8621 Q792.428 27.1874 789.997 25.1908 Q787.596 23.1654 783.226 23.1654 Q780.449 23.1654 777.816 23.8309 Q775.182 24.4964 772.752 25.8274 L772.752 20.9085 Q775.674 19.78 778.423 19.2302 Q781.172 18.6515 783.776 18.6515 Q790.807 18.6515 794.28 22.2973 Q797.752 25.9431 797.752 33.3505 Z" fill="#000000" fill-rule="nonzero" fill-opacity="1" /><path clip-path="url(#clip140)" d="M813.984 10.2314 L813.984 19.4328 L824.951 19.4328 L824.951 23.5705 L813.984 23.5705 L813.984 41.163 Q813.984 45.1271 815.055 46.2555 Q816.154 47.384 819.482 47.384 L824.951 47.384 L824.951 51.84 L819.482 51.84 Q813.319 51.84 810.975 49.5541 Q808.631 47.2393 808.631 41.163 L808.631 23.5705 L804.725 23.5705 L804.725 19.4328 L808.631 19.4328 L808.631 10.2314 L813.984 10.2314 Z" fill="#000000" fill-rule="nonzero" fill-opacity="1" /><path clip-path="url(#clip140)" d="M831.953 19.4328 L837.277 19.4328 L837.277 51.84 L831.953 51.84 L831.953 19.4328 M831.953 6.81709 L837.277 6.81709 L837.277 13.559 L831.953 13.559 L831.953 6.81709 Z" fill="#000000" fill-rule="nonzero" fill-opacity="1" /><path clip-path="url(#clip140)" d="M860.975 23.1654 Q856.692 23.1654 854.204 26.5218 Q851.716 29.8494 851.716 35.6653 Q851.716 41.4813 854.175 44.8377 Q856.664 48.1653 860.975 48.1653 Q865.228 48.1653 867.717 44.8088 Q870.205 41.4523 870.205 35.6653 Q870.205 29.9072 867.717 26.5508 Q865.228 23.1654 860.975 23.1654 M860.975 18.6515 Q867.919 18.6515 871.883 23.1654 Q875.847 27.6792 875.847 35.6653 Q875.847 43.6225 871.883 48.1653 Q867.919 52.6791 860.975 52.6791 Q854.001 52.6791 850.037 48.1653 Q846.102 43.6225 846.102 35.6653 Q846.102 27.6792 850.037 23.1654 Q854.001 18.6515 860.975 18.6515 Z" fill="#000000" fill-rule="nonzero" fill-opacity="1" /><path clip-path="url(#clip140)" d="M911.611 32.2799 L911.611 51.84 L906.287 51.84 L906.287 32.4535 Q906.287 27.8529 904.493 25.567 Q902.699 23.2811 899.111 23.2811 Q894.8 23.2811 892.311 26.03 Q889.823 28.7788 889.823 33.5241 L889.823 51.84 L884.47 51.84 L884.47 19.4328 L889.823 19.4328 L889.823 24.4675 Q891.733 21.545 894.308 20.0983 Q896.912 18.6515 900.298 18.6515 Q905.882 18.6515 908.747 22.1237 Q911.611 25.567 911.611 32.2799 Z" fill="#000000" fill-rule="nonzero" fill-opacity="1" /><path clip-path="url(#clip140)" d="M936.958 35.5496 Q930.506 35.5496 928.017 37.0253 Q925.529 38.501 925.529 42.06 Q925.529 44.8956 927.381 46.5738 Q929.261 48.2231 932.473 48.2231 Q936.9 48.2231 939.562 45.0981 Q942.253 41.9442 942.253 36.7359 L942.253 35.5496 L936.958 35.5496 M947.577 33.3505 L947.577 51.84 L942.253 51.84 L942.253 46.921 Q940.43 49.8724 937.711 51.2902 Q934.991 52.6791 931.055 52.6791 Q926.079 52.6791 923.127 49.9014 Q920.205 47.0947 920.205 42.4072 Q920.205 36.9385 923.851 34.1607 Q927.525 31.3829 934.788 31.3829 L942.253 31.3829 L942.253 30.8621 Q942.253 27.1874 939.823 25.1908 Q937.421 23.1654 933.052 23.1654 Q930.274 23.1654 927.641 23.8309 Q925.008 24.4964 922.578 25.8274 L922.578 20.9085 Q925.5 19.78 928.249 19.2302 Q930.998 18.6515 933.602 18.6515 Q940.633 18.6515 944.105 22.2973 Q947.577 25.9431 947.577 33.3505 Z" fill="#000000" fill-rule="nonzero" fill-opacity="1" /><path clip-path="url(#clip140)" d="M977.323 24.4096 Q976.426 23.8888 975.355 23.6573 Q974.313 23.3969 973.04 23.3969 Q968.526 23.3969 966.096 26.3482 Q963.694 29.2707 963.694 34.7683 L963.694 51.84 L958.341 51.84 L958.341 19.4328 L963.694 19.4328 L963.694 24.4675 Q965.372 21.5161 968.063 20.0983 Q970.754 18.6515 974.603 18.6515 Q975.152 18.6515 975.818 18.7383 Q976.483 18.7962 977.294 18.9409 L977.323 24.4096 Z" fill="#000000" fill-rule="nonzero" fill-opacity="1" /><path clip-path="url(#clip140)" d="M996.391 54.8492 Q994.134 60.6362 991.993 62.4013 Q989.851 64.1663 986.264 64.1663 L982.01 64.1663 L982.01 59.7103 L985.135 59.7103 Q987.334 59.7103 988.549 58.6687 Q989.765 57.627 991.24 53.7497 L992.195 51.3192 L979.088 19.4328 L984.73 19.4328 L994.857 44.7799 L1004.98 19.4328 L1010.63 19.4328 L996.391 54.8492 Z" fill="#000000" fill-rule="nonzero" fill-opacity="1" /><path clip-path="url(#clip140)" d="M1042.89 13.4432 L1042.89 47.0368 L1049.95 47.0368 Q1058.89 47.0368 1063.03 42.9859 Q1067.19 38.935 1067.19 30.1966 Q1067.19 21.5161 1063.03 17.4941 Q1058.89 13.4432 1049.95 13.4432 L1042.89 13.4432 M1037.04 8.64 L1049.05 8.64 Q1061.61 8.64 1067.48 13.8772 Q1073.36 19.0855 1073.36 30.1966 Q1073.36 41.3655 1067.46 46.6028 Q1061.55 51.84 1049.05 51.84 L1037.04 51.84 L1037.04 8.64 Z" fill="#000000" fill-rule="nonzero" fill-opacity="1" /><path clip-path="url(#clip140)" d="M1082.44 19.4328 L1087.77 19.4328 L1087.77 51.84 L1082.44 51.84 L1082.44 19.4328 M1082.44 6.81709 L1087.77 6.81709 L1087.77 13.559 L1082.44 13.559 L1082.44 6.81709 Z" fill="#000000" fill-rule="nonzero" fill-opacity="1" /><path clip-path="url(#clip140)" d="M1119.57 20.3876 L1119.57 25.4223 Q1117.31 24.2649 1114.88 23.6862 Q1112.45 23.1075 1109.85 23.1075 Q1105.88 23.1075 1103.88 24.3228 Q1101.92 25.5381 1101.92 27.9686 Q1101.92 29.8204 1103.33 30.891 Q1104.75 31.9327 1109.03 32.8876 L1110.86 33.2926 Q1116.53 34.5079 1118.9 36.7359 Q1121.3 38.935 1121.3 42.8991 Q1121.3 47.4129 1117.72 50.046 Q1114.16 52.6791 1107.91 52.6791 Q1105.3 52.6791 1102.47 52.1583 Q1099.66 51.6664 1096.53 50.6537 L1096.53 45.156 Q1099.49 46.6896 1102.35 47.4708 Q1105.22 48.2231 1108.02 48.2231 Q1111.78 48.2231 1113.81 46.95 Q1115.83 45.6479 1115.83 43.3042 Q1115.83 41.134 1114.36 39.9766 Q1112.91 38.8192 1107.96 37.7486 L1106.11 37.3146 Q1101.16 36.273 1098.97 34.1318 Q1096.77 31.9616 1096.77 28.2001 Q1096.77 23.6283 1100.01 21.1399 Q1103.25 18.6515 1109.21 18.6515 Q1112.16 18.6515 1114.76 19.0855 Q1117.37 19.5196 1119.57 20.3876 Z" fill="#000000" fill-rule="nonzero" fill-opacity="1" /><path clip-path="url(#clip140)" d="M1135.05 10.2314 L1135.05 19.4328 L1146.01 19.4328 L1146.01 23.5705 L1135.05 23.5705 L1135.05 41.163 Q1135.05 45.1271 1136.12 46.2555 Q1137.22 47.384 1140.55 47.384 L1146.01 47.384 L1146.01 51.84 L1140.55 51.84 Q1134.38 51.84 1132.04 49.5541 Q1129.69 47.2393 1129.69 41.163 L1129.69 23.5705 L1125.79 23.5705 L1125.79 19.4328 L1129.69 19.4328 L1129.69 10.2314 L1135.05 10.2314 Z" fill="#000000" fill-rule="nonzero" fill-opacity="1" /><path clip-path="url(#clip140)" d="M1171.79 24.4096 Q1170.9 23.8888 1169.83 23.6573 Q1168.79 23.3969 1167.51 23.3969 Q1163 23.3969 1160.57 26.3482 Q1158.17 29.2707 1158.17 34.7683 L1158.17 51.84 L1152.81 51.84 L1152.81 19.4328 L1158.17 19.4328 L1158.17 24.4675 Q1159.84 21.5161 1162.54 20.0983 Q1165.23 18.6515 1169.08 18.6515 Q1169.62 18.6515 1170.29 18.7383 Q1170.96 18.7962 1171.77 18.9409 L1171.79 24.4096 Z" fill="#000000" fill-rule="nonzero" fill-opacity="1" /><path clip-path="url(#clip140)" d="M1177.38 19.4328 L1182.7 19.4328 L1182.7 51.84 L1177.38 51.84 L1177.38 19.4328 M1177.38 6.81709 L1182.7 6.81709 L1182.7 13.559 L1177.38 13.559 L1177.38 6.81709 Z" fill="#000000" fill-rule="nonzero" fill-opacity="1" /><path clip-path="url(#clip140)" d="M1217.11 35.6653 Q1217.11 29.7915 1214.68 26.464 Q1212.28 23.1075 1208.05 23.1075 Q1203.83 23.1075 1201.4 26.464 Q1198.99 29.7915 1198.99 35.6653 Q1198.99 41.5391 1201.4 44.8956 Q1203.83 48.2231 1208.05 48.2231 Q1212.28 48.2231 1214.68 44.8956 Q1217.11 41.5391 1217.11 35.6653 M1198.99 24.3517 Q1200.67 21.4582 1203.22 20.0693 Q1205.79 18.6515 1209.35 18.6515 Q1215.26 18.6515 1218.93 23.339 Q1222.63 28.0265 1222.63 35.6653 Q1222.63 43.3042 1218.93 47.9916 Q1215.26 52.6791 1209.35 52.6791 Q1205.79 52.6791 1203.22 51.2902 Q1200.67 49.8724 1198.99 46.9789 L1198.99 51.84 L1193.64 51.84 L1193.64 6.81709 L1198.99 6.81709 L1198.99 24.3517 Z" fill="#000000" fill-rule="nonzero" fill-opacity="1" /><path clip-path="url(#clip140)" d="M1230.91 39.0507 L1230.91 19.4328 L1236.23 19.4328 L1236.23 38.8482 Q1236.23 43.4488 1238.03 45.7636 Q1239.82 48.0495 1243.41 48.0495 Q1247.72 48.0495 1250.21 45.3007 Q1252.73 42.5519 1252.73 37.8065 L1252.73 19.4328 L1258.05 19.4328 L1258.05 51.84 L1252.73 51.84 L1252.73 46.8632 Q1250.79 49.8145 1248.21 51.2613 Q1245.67 52.6791 1242.28 52.6791 Q1236.7 52.6791 1233.8 49.2069 Q1230.91 45.7347 1230.91 39.0507 M1244.31 18.6515 L1244.31 18.6515 Z" fill="#000000" fill-rule="nonzero" fill-opacity="1" /><path clip-path="url(#clip140)" d="M1274.28 10.2314 L1274.28 19.4328 L1285.25 19.4328 L1285.25 23.5705 L1274.28 23.5705 L1274.28 41.163 Q1274.28 45.1271 1275.35 46.2555 Q1276.45 47.384 1279.78 47.384 L1285.25 47.384 L1285.25 51.84 L1279.78 51.84 Q1273.62 51.84 1271.27 49.5541 Q1268.93 47.2393 1268.93 41.163 L1268.93 23.5705 L1265.02 23.5705 L1265.02 19.4328 L1268.93 19.4328 L1268.93 10.2314 L1274.28 10.2314 Z" fill="#000000" fill-rule="nonzero" fill-opacity="1" /><path clip-path="url(#clip140)" d="M1292.25 19.4328 L1297.58 19.4328 L1297.58 51.84 L1292.25 51.84 L1292.25 19.4328 M1292.25 6.81709 L1297.58 6.81709 L1297.58 13.559 L1292.25 13.559 L1292.25 6.81709 Z" fill="#000000" fill-rule="nonzero" fill-opacity="1" /><path clip-path="url(#clip140)" d="M1321.27 23.1654 Q1316.99 23.1654 1314.5 26.5218 Q1312.01 29.8494 1312.01 35.6653 Q1312.01 41.4813 1314.47 44.8377 Q1316.96 48.1653 1321.27 48.1653 Q1325.53 48.1653 1328.02 44.8088 Q1330.5 41.4523 1330.5 35.6653 Q1330.5 29.9072 1328.02 26.5508 Q1325.53 23.1654 1321.27 23.1654 M1321.27 18.6515 Q1328.22 18.6515 1332.18 23.1654 Q1336.15 27.6792 1336.15 35.6653 Q1336.15 43.6225 1332.18 48.1653 Q1328.22 52.6791 1321.27 52.6791 Q1314.3 52.6791 1310.34 48.1653 Q1306.4 43.6225 1306.4 35.6653 Q1306.4 27.6792 1310.34 23.1654 Q1314.3 18.6515 1321.27 18.6515 Z" fill="#000000" fill-rule="nonzero" fill-opacity="1" /><path clip-path="url(#clip140)" d="M1371.91 32.2799 L1371.91 51.84 L1366.59 51.84 L1366.59 32.4535 Q1366.59 27.8529 1364.79 25.567 Q1363 23.2811 1359.41 23.2811 Q1355.1 23.2811 1352.61 26.03 Q1350.12 28.7788 1350.12 33.5241 L1350.12 51.84 L1344.77 51.84 L1344.77 19.4328 L1350.12 19.4328 L1350.12 24.4675 Q1352.03 21.545 1354.61 20.0983 Q1357.21 18.6515 1360.6 18.6515 Q1366.18 18.6515 1369.05 22.1237 Q1371.91 25.567 1371.91 32.2799 Z" fill="#000000" fill-rule="nonzero" fill-opacity="1" /><path clip-path="url(#clip140)" d="M1414.15 6.87496 Q1410.28 13.53 1408.4 20.0404 Q1406.52 26.5508 1406.52 33.2348 Q1406.52 39.9188 1408.4 46.487 Q1410.31 53.0263 1414.15 59.6525 L1409.53 59.6525 Q1405.18 52.8527 1403.01 46.2845 Q1400.87 39.7162 1400.87 33.2348 Q1400.87 26.7823 1403.01 20.2429 Q1405.16 13.7036 1409.53 6.87496 L1414.15 6.87496 Z" fill="#000000" fill-rule="nonzero" fill-opacity="1" /><path clip-path="url(#clip140)" d="M1457.07 11.9675 L1457.07 18.1307 Q1454.11 15.3819 1450.76 14.0219 Q1447.43 12.662 1443.67 12.662 Q1436.26 12.662 1432.33 17.2048 Q1428.39 21.7186 1428.39 30.2834 Q1428.39 38.8192 1432.33 43.362 Q1436.26 47.8759 1443.67 47.8759 Q1447.43 47.8759 1450.76 46.516 Q1454.11 45.156 1457.07 42.4072 L1457.07 48.5125 Q1454 50.5958 1450.55 51.6375 Q1447.14 52.6791 1443.32 52.6791 Q1433.51 52.6791 1427.87 46.6896 Q1422.23 40.6711 1422.23 30.2834 Q1422.23 19.8668 1427.87 13.8772 Q1433.51 7.85875 1443.32 7.85875 Q1447.2 7.85875 1450.61 8.90042 Q1454.06 9.91314 1457.07 11.9675 Z" fill="#000000" fill-rule="nonzero" fill-opacity="1" /><path clip-path="url(#clip140)" d="M1466.09 8.64 L1471.94 8.64 L1471.94 26.3482 L1493.18 26.3482 L1493.18 8.64 L1499.02 8.64 L1499.02 51.84 L1493.18 51.84 L1493.18 31.2672 L1471.94 31.2672 L1471.94 51.84 L1466.09 51.84 L1466.09 8.64 Z" fill="#000000" fill-rule="nonzero" fill-opacity="1" /><path clip-path="url(#clip140)" d="M1510.65 8.64 L1519.36 8.64 L1530.39 38.038 L1541.47 8.64 L1550.18 8.64 L1550.18 51.84 L1544.48 51.84 L1544.48 13.9062 L1533.34 43.5356 L1527.46 43.5356 L1516.32 13.9062 L1516.32 51.84 L1510.65 51.84 L1510.65 8.64 Z" fill="#000000" fill-rule="nonzero" fill-opacity="1" /><path clip-path="url(#clip140)" d="M1561.78 8.64 L1570.49 8.64 L1581.51 38.038 L1592.6 8.64 L1601.31 8.64 L1601.31 51.84 L1595.61 51.84 L1595.61 13.9062 L1584.47 43.5356 L1578.59 43.5356 L1567.45 13.9062 L1567.45 51.84 L1561.78 51.84 L1561.78 8.64 Z" fill="#000000" fill-rule="nonzero" fill-opacity="1" /><path clip-path="url(#clip140)" d="M1609.99 33.2348 L1625.58 33.2348 L1625.58 37.9801 L1609.99 37.9801 L1609.99 33.2348 Z" fill="#000000" fill-rule="nonzero" fill-opacity="1" /><path clip-path="url(#clip140)" d="M1634.29 8.64 L1642.16 8.64 L1661.32 44.7799 L1661.32 8.64 L1666.99 8.64 L1666.99 51.84 L1659.12 51.84 L1639.96 15.7001 L1639.96 51.84 L1634.29 51.84 L1634.29 8.64 Z" fill="#000000" fill-rule="nonzero" fill-opacity="1" /><path clip-path="url(#clip140)" d="M1679.75 44.4905 L1685.85 44.4905 L1685.85 49.4673 L1681.11 58.7265 L1677.38 58.7265 L1679.75 49.4673 L1679.75 44.4905 Z" fill="#000000" fill-rule="nonzero" fill-opacity="1" /><path clip-path="url(#clip140)" d="M1716.29 8.64 L1722.14 8.64 L1722.14 26.898 L1741.53 8.64 L1749.05 8.64 L1727.61 28.7788 L1750.58 51.84 L1742.89 51.84 L1722.14 31.0357 L1722.14 51.84 L1716.29 51.84 L1716.29 8.64 Z" fill="#000000" fill-rule="nonzero" fill-opacity="1" /><path clip-path="url(#clip140)" d="M1755.62 24.9304 L1792.71 24.9304 L1792.71 29.7915 L1755.62 29.7915 L1755.62 24.9304 M1755.62 36.7359 L1792.71 36.7359 L1792.71 41.6549 L1755.62 41.6549 L1755.62 36.7359 Z" fill="#000000" fill-rule="nonzero" fill-opacity="1" /><path clip-path="url(#clip140)" d="M1806.34 46.921 L1815.89 46.921 L1815.89 13.964 L1805.5 16.0474 L1805.5 10.7233 L1815.83 8.64 L1821.68 8.64 L1821.68 46.921 L1831.22 46.921 L1831.22 51.84 L1806.34 51.84 L1806.34 46.921 Z" fill="#000000" fill-rule="nonzero" fill-opacity="1" /><path clip-path="url(#clip140)" d="M1855.53 31.3251 Q1851.36 31.3251 1848.96 33.5531 Q1846.59 35.7811 1846.59 39.6873 Q1846.59 43.5935 1848.96 45.8215 Q1851.36 48.0495 1855.53 48.0495 Q1859.7 48.0495 1862.1 45.8215 Q1864.5 43.5646 1864.5 39.6873 Q1864.5 35.7811 1862.1 33.5531 Q1859.73 31.3251 1855.53 31.3251 M1849.68 28.8367 Q1845.92 27.9107 1843.81 25.3355 Q1841.73 22.7603 1841.73 19.0566 Q1841.73 13.8772 1845.4 10.868 Q1849.11 7.85875 1855.53 7.85875 Q1861.98 7.85875 1865.66 10.868 Q1869.33 13.8772 1869.33 19.0566 Q1869.33 22.7603 1867.22 25.3355 Q1865.14 27.9107 1861.4 28.8367 Q1865.63 29.8204 1867.97 32.685 Q1870.34 35.5496 1870.34 39.6873 Q1870.34 45.9662 1866.5 49.3227 Q1862.68 52.6791 1855.53 52.6791 Q1848.38 52.6791 1844.53 49.3227 Q1840.71 45.9662 1840.71 39.6873 Q1840.71 35.5496 1843.09 32.685 Q1845.46 29.8204 1849.68 28.8367 M1847.54 19.6064 Q1847.54 22.9628 1849.63 24.8436 Q1851.74 26.7244 1855.53 26.7244 Q1859.29 26.7244 1861.4 24.8436 Q1863.54 22.9628 1863.54 19.6064 Q1863.54 16.2499 1861.4 14.3691 Q1859.29 12.4884 1855.53 12.4884 Q1851.74 12.4884 1849.63 14.3691 Q1847.54 16.2499 1847.54 19.6064 Z" fill="#000000" fill-rule="nonzero" fill-opacity="1" /><path clip-path="url(#clip140)" d="M1879.14 6.87496 L1883.77 6.87496 Q1888.11 13.7036 1890.25 20.2429 Q1892.42 26.7823 1892.42 33.2348 Q1892.42 39.7162 1890.25 46.2845 Q1888.11 52.8527 1883.77 59.6525 L1879.14 59.6525 Q1882.99 53.0263 1884.87 46.487 Q1886.78 39.9188 1886.78 33.2348 Q1886.78 26.5508 1884.87 20.0404 Q1882.99 13.53 1879.14 6.87496 Z" fill="#000000" fill-rule="nonzero" fill-opacity="1" /><path clip-path="url(#clip142)" d="M365.223 1004.69 L365.223 1423.18 L449.351 1423.18 L449.351 1004.69 L365.223 1004.69 L365.223 1004.69  Z" fill="#4682b4" fill-rule="evenodd" fill-opacity="0.7"/>
<polyline clip-path="url(#clip142)" style="stroke:#000000; stroke-linecap:round; stroke-linejoin:round; stroke-width:4; stroke-opacity:0.7; fill:none" points="365.223,1004.69 365.223,1423.18 449.351,1423.18 449.351,1004.69 365.223,1004.69 "/>
<path clip-path="url(#clip142)" d="M470.383 1275.93 L470.383 1423.18 L554.511 1423.18 L554.511 1275.93 L470.383 1275.93 L470.383 1275.93  Z" fill="#4682b4" fill-rule="evenodd" fill-opacity="0.7"/>
<polyline clip-path="url(#clip142)" style="stroke:#000000; stroke-linecap:round; stroke-linejoin:round; stroke-width:4; stroke-opacity:0.7; fill:none" points="470.383,1275.93 470.383,1423.18 554.511,1423.18 554.511,1275.93 470.383,1275.93 "/>
<path clip-path="url(#clip142)" d="M575.543 1263.33 L575.543 1423.18 L659.671 1423.18 L659.671 1263.33 L575.543 1263.33 L575.543 1263.33  Z" fill="#4682b4" fill-rule="evenodd" fill-opacity="0.7"/>
<polyline clip-path="url(#clip142)" style="stroke:#000000; stroke-linecap:round; stroke-linejoin:round; stroke-width:4; stroke-opacity:0.7; fill:none" points="575.543,1263.33 575.543,1423.18 659.671,1423.18 659.671,1263.33 575.543,1263.33 "/>
<path clip-path="url(#clip142)" d="M680.703 1290.97 L680.703 1423.18 L764.832 1423.18 L764.832 1290.97 L680.703 1290.97 L680.703 1290.97  Z" fill="#4682b4" fill-rule="evenodd" fill-opacity="0.7"/>
<polyline clip-path="url(#clip142)" style="stroke:#000000; stroke-linecap:round; stroke-linejoin:round; stroke-width:4; stroke-opacity:0.7; fill:none" points="680.703,1290.97 680.703,1423.18 764.832,1423.18 764.832,1290.97 680.703,1290.97 "/>
<path clip-path="url(#clip142)" d="M785.864 1283.32 L785.864 1423.18 L869.992 1423.18 L869.992 1283.32 L785.864 1283.32 L785.864 1283.32  Z" fill="#4682b4" fill-rule="evenodd" fill-opacity="0.7"/>
<polyline clip-path="url(#clip142)" style="stroke:#000000; stroke-linecap:round; stroke-linejoin:round; stroke-width:4; stroke-opacity:0.7; fill:none" points="785.864,1283.32 785.864,1423.18 869.992,1423.18 869.992,1283.32 785.864,1283.32 "/>
<path clip-path="url(#clip142)" d="M891.024 1178.49 L891.024 1423.18 L975.152 1423.18 L975.152 1178.49 L891.024 1178.49 L891.024 1178.49  Z" fill="#4682b4" fill-rule="evenodd" fill-opacity="0.7"/>
<polyline clip-path="url(#clip142)" style="stroke:#000000; stroke-linecap:round; stroke-linejoin:round; stroke-width:4; stroke-opacity:0.7; fill:none" points="891.024,1178.49 891.024,1423.18 975.152,1423.18 975.152,1178.49 891.024,1178.49 "/>
<path clip-path="url(#clip142)" d="M996.184 1172.51 L996.184 1423.18 L1080.31 1423.18 L1080.31 1172.51 L996.184 1172.51 L996.184 1172.51  Z" fill="#4682b4" fill-rule="evenodd" fill-opacity="0.7"/>
<polyline clip-path="url(#clip142)" style="stroke:#000000; stroke-linecap:round; stroke-linejoin:round; stroke-width:4; stroke-opacity:0.7; fill:none" points="996.184,1172.51 996.184,1423.18 1080.31,1423.18 1080.31,1172.51 996.184,1172.51 "/>
<path clip-path="url(#clip142)" d="M1101.34 1270.72 L1101.34 1423.18 L1185.47 1423.18 L1185.47 1270.72 L1101.34 1270.72 L1101.34 1270.72  Z" fill="#4682b4" fill-rule="evenodd" fill-opacity="0.7"/>
<polyline clip-path="url(#clip142)" style="stroke:#000000; stroke-linecap:round; stroke-linejoin:round; stroke-width:4; stroke-opacity:0.7; fill:none" points="1101.34,1270.72 1101.34,1423.18 1185.47,1423.18 1185.47,1270.72 1101.34,1270.72 "/>
<path clip-path="url(#clip142)" d="M1206.5 1212.6 L1206.5 1423.18 L1290.63 1423.18 L1290.63 1212.6 L1206.5 1212.6 L1206.5 1212.6  Z" fill="#4682b4" fill-rule="evenodd" fill-opacity="0.7"/>
<polyline clip-path="url(#clip142)" style="stroke:#000000; stroke-linecap:round; stroke-linejoin:round; stroke-width:4; stroke-opacity:0.7; fill:none" points="1206.5,1212.6 1206.5,1423.18 1290.63,1423.18 1290.63,1212.6 1206.5,1212.6 "/>
<path clip-path="url(#clip142)" d="M1311.66 1152.74 L1311.66 1423.18 L1395.79 1423.18 L1395.79 1152.74 L1311.66 1152.74 L1311.66 1152.74  Z" fill="#4682b4" fill-rule="evenodd" fill-opacity="0.7"/>
<polyline clip-path="url(#clip142)" style="stroke:#000000; stroke-linecap:round; stroke-linejoin:round; stroke-width:4; stroke-opacity:0.7; fill:none" points="1311.66,1152.74 1311.66,1423.18 1395.79,1423.18 1395.79,1152.74 1311.66,1152.74 "/>
<path clip-path="url(#clip142)" d="M1416.83 1174.46 L1416.83 1423.18 L1500.95 1423.18 L1500.95 1174.46 L1416.83 1174.46 L1416.83 1174.46  Z" fill="#4682b4" fill-rule="evenodd" fill-opacity="0.7"/>
<polyline clip-path="url(#clip142)" style="stroke:#000000; stroke-linecap:round; stroke-linejoin:round; stroke-width:4; stroke-opacity:0.7; fill:none" points="1416.83,1174.46 1416.83,1423.18 1500.95,1423.18 1500.95,1174.46 1416.83,1174.46 "/>
<path clip-path="url(#clip142)" d="M1521.99 1228.82 L1521.99 1423.18 L1606.11 1423.18 L1606.11 1228.82 L1521.99 1228.82 L1521.99 1228.82  Z" fill="#4682b4" fill-rule="evenodd" fill-opacity="0.7"/>
<polyline clip-path="url(#clip142)" style="stroke:#000000; stroke-linecap:round; stroke-linejoin:round; stroke-width:4; stroke-opacity:0.7; fill:none" points="1521.99,1228.82 1521.99,1423.18 1606.11,1423.18 1606.11,1228.82 1521.99,1228.82 "/>
<path clip-path="url(#clip142)" d="M1627.15 1258.75 L1627.15 1423.18 L1711.27 1423.18 L1711.27 1258.75 L1627.15 1258.75 L1627.15 1258.75  Z" fill="#4682b4" fill-rule="evenodd" fill-opacity="0.7"/>
<polyline clip-path="url(#clip142)" style="stroke:#000000; stroke-linecap:round; stroke-linejoin:round; stroke-width:4; stroke-opacity:0.7; fill:none" points="1627.15,1258.75 1627.15,1423.18 1711.27,1423.18 1711.27,1258.75 1627.15,1258.75 "/>
<path clip-path="url(#clip142)" d="M1732.31 1151.12 L1732.31 1423.18 L1816.43 1423.18 L1816.43 1151.12 L1732.31 1151.12 L1732.31 1151.12  Z" fill="#4682b4" fill-rule="evenodd" fill-opacity="0.7"/>
<polyline clip-path="url(#clip142)" style="stroke:#000000; stroke-linecap:round; stroke-linejoin:round; stroke-width:4; stroke-opacity:0.7; fill:none" points="1732.31,1151.12 1732.31,1423.18 1816.43,1423.18 1816.43,1151.12 1732.31,1151.12 "/>
<path clip-path="url(#clip142)" d="M1837.47 1273.12 L1837.47 1423.18 L1921.59 1423.18 L1921.59 1273.12 L1837.47 1273.12 L1837.47 1273.12  Z" fill="#4682b4" fill-rule="evenodd" fill-opacity="0.7"/>
<polyline clip-path="url(#clip142)" style="stroke:#000000; stroke-linecap:round; stroke-linejoin:round; stroke-width:4; stroke-opacity:0.7; fill:none" points="1837.47,1273.12 1837.47,1423.18 1921.59,1423.18 1921.59,1273.12 1837.47,1273.12 "/>
<path clip-path="url(#clip142)" d="M1942.63 1215.65 L1942.63 1423.18 L2026.75 1423.18 L2026.75 1215.65 L1942.63 1215.65 L1942.63 1215.65  Z" fill="#4682b4" fill-rule="evenodd" fill-opacity="0.7"/>
<polyline clip-path="url(#clip142)" style="stroke:#000000; stroke-linecap:round; stroke-linejoin:round; stroke-width:4; stroke-opacity:0.7; fill:none" points="1942.63,1215.65 1942.63,1423.18 2026.75,1423.18 2026.75,1215.65 1942.63,1215.65 "/>
<path clip-path="url(#clip142)" d="M2047.79 1249.78 L2047.79 1423.18 L2131.92 1423.18 L2131.92 1249.78 L2047.79 1249.78 L2047.79 1249.78  Z" fill="#4682b4" fill-rule="evenodd" fill-opacity="0.7"/>
<polyline clip-path="url(#clip142)" style="stroke:#000000; stroke-linecap:round; stroke-linejoin:round; stroke-width:4; stroke-opacity:0.7; fill:none" points="2047.79,1249.78 2047.79,1423.18 2131.92,1423.18 2131.92,1249.78 2047.79,1249.78 "/>
<path clip-path="url(#clip142)" d="M2152.95 106.192 L2152.95 1423.18 L2237.08 1423.18 L2237.08 106.192 L2152.95 106.192 L2152.95 106.192  Z" fill="#4682b4" fill-rule="evenodd" fill-opacity="0.7"/>
<polyline clip-path="url(#clip142)" style="stroke:#000000; stroke-linecap:round; stroke-linejoin:round; stroke-width:4; stroke-opacity:0.7; fill:none" points="2152.95,106.192 2152.95,1423.18 2237.08,1423.18 2237.08,106.192 2152.95,106.192 "/>
<circle clip-path="url(#clip142)" style="fill:#4682b4; stroke:none; fill-opacity:0" cx="407.287" cy="1004.69" r="2"/>
<circle clip-path="url(#clip142)" style="fill:#4682b4; stroke:none; fill-opacity:0" cx="512.447" cy="1275.93" r="2"/>
<circle clip-path="url(#clip142)" style="fill:#4682b4; stroke:none; fill-opacity:0" cx="617.607" cy="1263.33" r="2"/>
<circle clip-path="url(#clip142)" style="fill:#4682b4; stroke:none; fill-opacity:0" cx="722.767" cy="1290.97" r="2"/>
<circle clip-path="url(#clip142)" style="fill:#4682b4; stroke:none; fill-opacity:0" cx="827.928" cy="1283.32" r="2"/>
<circle clip-path="url(#clip142)" style="fill:#4682b4; stroke:none; fill-opacity:0" cx="933.088" cy="1178.49" r="2"/>
<circle clip-path="url(#clip142)" style="fill:#4682b4; stroke:none; fill-opacity:0" cx="1038.25" cy="1172.51" r="2"/>
<circle clip-path="url(#clip142)" style="fill:#4682b4; stroke:none; fill-opacity:0" cx="1143.41" cy="1270.72" r="2"/>
<circle clip-path="url(#clip142)" style="fill:#4682b4; stroke:none; fill-opacity:0" cx="1248.57" cy="1212.6" r="2"/>
<circle clip-path="url(#clip142)" style="fill:#4682b4; stroke:none; fill-opacity:0" cx="1353.73" cy="1152.74" r="2"/>
<circle clip-path="url(#clip142)" style="fill:#4682b4; stroke:none; fill-opacity:0" cx="1458.89" cy="1174.46" r="2"/>
<circle clip-path="url(#clip142)" style="fill:#4682b4; stroke:none; fill-opacity:0" cx="1564.05" cy="1228.82" r="2"/>
<circle clip-path="url(#clip142)" style="fill:#4682b4; stroke:none; fill-opacity:0" cx="1669.21" cy="1258.75" r="2"/>
<circle clip-path="url(#clip142)" style="fill:#4682b4; stroke:none; fill-opacity:0" cx="1774.37" cy="1151.12" r="2"/>
<circle clip-path="url(#clip142)" style="fill:#4682b4; stroke:none; fill-opacity:0" cx="1879.53" cy="1273.12" r="2"/>
<circle clip-path="url(#clip142)" style="fill:#4682b4; stroke:none; fill-opacity:0" cx="1984.69" cy="1215.65" r="2"/>
<circle clip-path="url(#clip142)" style="fill:#4682b4; stroke:none; fill-opacity:0" cx="2089.85" cy="1249.78" r="2"/>
<circle clip-path="url(#clip142)" style="fill:#4682b4; stroke:none; fill-opacity:0" cx="2195.01" cy="106.192" r="2"/>
</svg>
