<?xml version="1.0" encoding="utf-8"?>
<svg xmlns="http://www.w3.org/2000/svg" xmlns:xlink="http://www.w3.org/1999/xlink" width="600" height="400" viewBox="0 0 2400 1600">
<defs>
  <clipPath id="clip650">
    <rect x="0" y="0" width="2400" height="1600"/>
  </clipPath>
</defs>
<path clip-path="url(#clip650)" d="M0 1600 L2400 1600 L2400 8.88178e-14 L0 8.88178e-14  Z" fill="#ffffff" fill-rule="evenodd" fill-opacity="1"/>
<defs>
  <clipPath id="clip651">
    <rect x="96" y="914" width="2285" height="35"/>
  </clipPath>
</defs>
<path clip-path="url(#clip650)" d="M302.458 1423.18 L2352.76 1423.18 L2352.76 106.192 L302.458 106.192  Z" fill="#ffffff" fill-rule="evenodd" fill-opacity="1"/>
<defs>
  <clipPath id="clip652">
    <rect x="302" y="106" width="2051" height="1318"/>
  </clipPath>
</defs>
<polyline clip-path="url(#clip652)" style="stroke:#000000; stroke-linecap:round; stroke-linejoin:round; stroke-width:2; stroke-opacity:0.1; fill:none" points="327.702,1423.18 327.702,106.192 "/>
<polyline clip-path="url(#clip652)" style="stroke:#000000; stroke-linecap:round; stroke-linejoin:round; stroke-width:2; stroke-opacity:0.1; fill:none" points="655.54,1423.18 655.54,106.192 "/>
<polyline clip-path="url(#clip652)" style="stroke:#000000; stroke-linecap:round; stroke-linejoin:round; stroke-width:2; stroke-opacity:0.1; fill:none" points="983.377,1423.18 983.377,106.192 "/>
<polyline clip-path="url(#clip652)" style="stroke:#000000; stroke-linecap:round; stroke-linejoin:round; stroke-width:2; stroke-opacity:0.1; fill:none" points="1311.22,1423.18 1311.22,106.192 "/>
<polyline clip-path="url(#clip652)" style="stroke:#000000; stroke-linecap:round; stroke-linejoin:round; stroke-width:2; stroke-opacity:0.1; fill:none" points="1639.05,1423.18 1639.05,106.192 "/>
<polyline clip-path="url(#clip652)" style="stroke:#000000; stroke-linecap:round; stroke-linejoin:round; stroke-width:2; stroke-opacity:0.1; fill:none" points="1966.89,1423.18 1966.89,106.192 "/>
<polyline clip-path="url(#clip652)" style="stroke:#000000; stroke-linecap:round; stroke-linejoin:round; stroke-width:2; stroke-opacity:0.1; fill:none" points="2294.73,1423.18 2294.73,106.192 "/>
<polyline clip-path="url(#clip652)" style="stroke:#000000; stroke-linecap:round; stroke-linejoin:round; stroke-width:2; stroke-opacity:0.1; fill:none" points="302.458,1327.09 2352.76,1327.09 "/>
<polyline clip-path="url(#clip652)" style="stroke:#000000; stroke-linecap:round; stroke-linejoin:round; stroke-width:2; stroke-opacity:0.1; fill:none" points="302.458,1149.53 2352.76,1149.53 "/>
<polyline clip-path="url(#clip652)" style="stroke:#000000; stroke-linecap:round; stroke-linejoin:round; stroke-width:2; stroke-opacity:0.1; fill:none" points="302.458,971.974 2352.76,971.974 "/>
<polyline clip-path="url(#clip652)" style="stroke:#000000; stroke-linecap:round; stroke-linejoin:round; stroke-width:2; stroke-opacity:0.1; fill:none" points="302.458,794.415 2352.76,794.415 "/>
<polyline clip-path="url(#clip652)" style="stroke:#000000; stroke-linecap:round; stroke-linejoin:round; stroke-width:2; stroke-opacity:0.1; fill:none" points="302.458,616.855 2352.76,616.855 "/>
<polyline clip-path="url(#clip652)" style="stroke:#000000; stroke-linecap:round; stroke-linejoin:round; stroke-width:2; stroke-opacity:0.1; fill:none" points="302.458,439.296 2352.76,439.296 "/>
<polyline clip-path="url(#clip652)" style="stroke:#000000; stroke-linecap:round; stroke-linejoin:round; stroke-width:2; stroke-opacity:0.1; fill:none" points="302.458,261.737 2352.76,261.737 "/>
<polyline clip-path="url(#clip650)" style="stroke:#000000; stroke-linecap:round; stroke-linejoin:round; stroke-width:4; stroke-opacity:1; fill:none" points="302.458,1423.18 2352.76,1423.18 "/>
<polyline clip-path="url(#clip650)" style="stroke:#000000; stroke-linecap:round; stroke-linejoin:round; stroke-width:4; stroke-opacity:1; fill:none" points="327.702,1423.18 327.702,1404.28 "/>
<polyline clip-path="url(#clip650)" style="stroke:#000000; stroke-linecap:round; stroke-linejoin:round; stroke-width:4; stroke-opacity:1; fill:none" points="655.54,1423.18 655.54,1404.28 "/>
<polyline clip-path="url(#clip650)" style="stroke:#000000; stroke-linecap:round; stroke-linejoin:round; stroke-width:4; stroke-opacity:1; fill:none" points="983.377,1423.18 983.377,1404.28 "/>
<polyline clip-path="url(#clip650)" style="stroke:#000000; stroke-linecap:round; stroke-linejoin:round; stroke-width:4; stroke-opacity:1; fill:none" points="1311.22,1423.18 1311.22,1404.28 "/>
<polyline clip-path="url(#clip650)" style="stroke:#000000; stroke-linecap:round; stroke-linejoin:round; stroke-width:4; stroke-opacity:1; fill:none" points="1639.05,1423.18 1639.05,1404.28 "/>
<polyline clip-path="url(#clip650)" style="stroke:#000000; stroke-linecap:round; stroke-linejoin:round; stroke-width:4; stroke-opacity:1; fill:none" points="1966.89,1423.18 1966.89,1404.28 "/>
<polyline clip-path="url(#clip650)" style="stroke:#000000; stroke-linecap:round; stroke-linejoin:round; stroke-width:4; stroke-opacity:1; fill:none" points="2294.73,1423.18 2294.73,1404.28 "/>
<path clip-path="url(#clip650)" d="M327.702 1454.1 Q324.091 1454.1 322.262 1457.66 Q320.457 1461.2 320.457 1468.33 Q320.457 1475.44 322.262 1479.01 Q324.091 1482.55 327.702 1482.55 Q331.336 1482.55 333.142 1479.01 Q334.97 1475.44 334.97 1468.33 Q334.97 1461.2 333.142 1457.66 Q331.336 1454.1 327.702 1454.1 M327.702 1450.39 Q333.512 1450.39 336.568 1455 Q339.646 1459.58 339.646 1468.33 Q339.646 1477.06 336.568 1481.67 Q333.512 1486.25 327.702 1486.25 Q321.892 1486.25 318.813 1481.67 Q315.758 1477.06 315.758 1468.33 Q315.758 1459.58 318.813 1455 Q321.892 1450.39 327.702 1450.39 Z" fill="#000000" fill-rule="nonzero" fill-opacity="1" /><path clip-path="url(#clip650)" d="M630.227 1481.64 L637.866 1481.64 L637.866 1455.28 L629.556 1456.95 L629.556 1452.69 L637.82 1451.02 L642.496 1451.02 L642.496 1481.64 L650.135 1481.64 L650.135 1485.58 L630.227 1485.58 L630.227 1481.64 Z" fill="#000000" fill-rule="nonzero" fill-opacity="1" /><path clip-path="url(#clip650)" d="M669.579 1454.1 Q665.968 1454.1 664.139 1457.66 Q662.334 1461.2 662.334 1468.33 Q662.334 1475.44 664.139 1479.01 Q665.968 1482.55 669.579 1482.55 Q673.213 1482.55 675.019 1479.01 Q676.847 1475.44 676.847 1468.33 Q676.847 1461.2 675.019 1457.66 Q673.213 1454.1 669.579 1454.1 M669.579 1450.39 Q675.389 1450.39 678.445 1455 Q681.523 1459.58 681.523 1468.33 Q681.523 1477.06 678.445 1481.67 Q675.389 1486.25 669.579 1486.25 Q663.769 1486.25 660.69 1481.67 Q657.635 1477.06 657.635 1468.33 Q657.635 1459.58 660.69 1455 Q663.769 1450.39 669.579 1450.39 Z" fill="#000000" fill-rule="nonzero" fill-opacity="1" /><path clip-path="url(#clip650)" d="M962.151 1481.64 L978.47 1481.64 L978.47 1485.58 L956.526 1485.58 L956.526 1481.64 Q959.188 1478.89 963.771 1474.26 Q968.378 1469.61 969.558 1468.27 Q971.803 1465.74 972.683 1464.01 Q973.586 1462.25 973.586 1460.56 Q973.586 1457.8 971.641 1456.07 Q969.72 1454.33 966.618 1454.33 Q964.419 1454.33 961.966 1455.09 Q959.535 1455.86 956.757 1457.41 L956.757 1452.69 Q959.581 1451.55 962.035 1450.97 Q964.489 1450.39 966.526 1450.39 Q971.896 1450.39 975.09 1453.08 Q978.285 1455.77 978.285 1460.26 Q978.285 1462.39 977.475 1464.31 Q976.688 1466.2 974.581 1468.8 Q974.003 1469.47 970.901 1472.69 Q967.799 1475.88 962.151 1481.64 Z" fill="#000000" fill-rule="nonzero" fill-opacity="1" /><path clip-path="url(#clip650)" d="M998.285 1454.1 Q994.674 1454.1 992.845 1457.66 Q991.039 1461.2 991.039 1468.33 Q991.039 1475.44 992.845 1479.01 Q994.674 1482.55 998.285 1482.55 Q1001.92 1482.55 1003.72 1479.01 Q1005.55 1475.44 1005.55 1468.33 Q1005.55 1461.2 1003.72 1457.66 Q1001.92 1454.1 998.285 1454.1 M998.285 1450.39 Q1004.09 1450.39 1007.15 1455 Q1010.23 1459.58 1010.23 1468.33 Q1010.23 1477.06 1007.15 1481.67 Q1004.09 1486.25 998.285 1486.25 Q992.475 1486.25 989.396 1481.67 Q986.34 1477.06 986.34 1468.33 Q986.34 1459.58 989.396 1455 Q992.475 1450.39 998.285 1450.39 Z" fill="#000000" fill-rule="nonzero" fill-opacity="1" /><path clip-path="url(#clip650)" d="M1300.06 1466.95 Q1303.41 1467.66 1305.29 1469.93 Q1307.19 1472.2 1307.19 1475.53 Q1307.19 1480.65 1303.67 1483.45 Q1300.15 1486.25 1293.67 1486.25 Q1291.49 1486.25 1289.18 1485.81 Q1286.89 1485.39 1284.43 1484.54 L1284.43 1480.02 Q1286.38 1481.16 1288.69 1481.74 Q1291.01 1482.32 1293.53 1482.32 Q1297.93 1482.32 1300.22 1480.58 Q1302.53 1478.84 1302.53 1475.53 Q1302.53 1472.48 1300.38 1470.77 Q1298.25 1469.03 1294.43 1469.03 L1290.41 1469.03 L1290.41 1465.19 L1294.62 1465.19 Q1298.07 1465.19 1299.9 1463.82 Q1301.72 1462.43 1301.72 1459.84 Q1301.72 1457.18 1299.83 1455.77 Q1297.95 1454.33 1294.43 1454.33 Q1292.51 1454.33 1290.31 1454.75 Q1288.11 1455.16 1285.47 1456.04 L1285.47 1451.88 Q1288.14 1451.14 1290.45 1450.77 Q1292.79 1450.39 1294.85 1450.39 Q1300.17 1450.39 1303.28 1452.83 Q1306.38 1455.23 1306.38 1459.35 Q1306.38 1462.22 1304.73 1464.21 Q1303.09 1466.18 1300.06 1466.95 Z" fill="#000000" fill-rule="nonzero" fill-opacity="1" /><path clip-path="url(#clip650)" d="M1326.05 1454.1 Q1322.44 1454.1 1320.61 1457.66 Q1318.81 1461.2 1318.81 1468.33 Q1318.81 1475.44 1320.61 1479.01 Q1322.44 1482.55 1326.05 1482.55 Q1329.69 1482.55 1331.49 1479.01 Q1333.32 1475.44 1333.32 1468.33 Q1333.32 1461.2 1331.49 1457.66 Q1329.69 1454.1 1326.05 1454.1 M1326.05 1450.39 Q1331.86 1450.39 1334.92 1455 Q1338 1459.58 1338 1468.33 Q1338 1477.06 1334.92 1481.67 Q1331.86 1486.25 1326.05 1486.25 Q1320.24 1486.25 1317.16 1481.67 Q1314.11 1477.06 1314.11 1468.33 Q1314.11 1459.58 1317.16 1455 Q1320.24 1450.39 1326.05 1450.39 Z" fill="#000000" fill-rule="nonzero" fill-opacity="1" /><path clip-path="url(#clip650)" d="M1627.22 1455.09 L1615.42 1473.54 L1627.22 1473.54 L1627.22 1455.09 M1626 1451.02 L1631.88 1451.02 L1631.88 1473.54 L1636.81 1473.54 L1636.81 1477.43 L1631.88 1477.43 L1631.88 1485.58 L1627.22 1485.58 L1627.22 1477.43 L1611.62 1477.43 L1611.62 1472.92 L1626 1451.02 Z" fill="#000000" fill-rule="nonzero" fill-opacity="1" /><path clip-path="url(#clip650)" d="M1654.54 1454.1 Q1650.93 1454.1 1649.1 1457.66 Q1647.29 1461.2 1647.29 1468.33 Q1647.29 1475.44 1649.1 1479.01 Q1650.93 1482.55 1654.54 1482.55 Q1658.17 1482.55 1659.98 1479.01 Q1661.81 1475.44 1661.81 1468.33 Q1661.81 1461.2 1659.98 1457.66 Q1658.17 1454.1 1654.54 1454.1 M1654.54 1450.39 Q1660.35 1450.39 1663.4 1455 Q1666.48 1459.58 1666.48 1468.33 Q1666.48 1477.06 1663.4 1481.67 Q1660.35 1486.25 1654.54 1486.25 Q1648.73 1486.25 1645.65 1481.67 Q1642.59 1477.06 1642.59 1468.33 Q1642.59 1459.58 1645.65 1455 Q1648.73 1450.39 1654.54 1450.39 Z" fill="#000000" fill-rule="nonzero" fill-opacity="1" /><path clip-path="url(#clip650)" d="M1941.59 1451.02 L1959.95 1451.02 L1959.95 1454.96 L1945.87 1454.96 L1945.87 1463.43 Q1946.89 1463.08 1947.91 1462.92 Q1948.93 1462.73 1949.95 1462.73 Q1955.73 1462.73 1959.11 1465.9 Q1962.49 1469.08 1962.49 1474.49 Q1962.49 1480.07 1959.02 1483.17 Q1955.55 1486.25 1949.23 1486.25 Q1947.05 1486.25 1944.78 1485.88 Q1942.54 1485.51 1940.13 1484.77 L1940.13 1480.07 Q1942.22 1481.2 1944.44 1481.76 Q1946.66 1482.32 1949.14 1482.32 Q1953.14 1482.32 1955.48 1480.21 Q1957.82 1478.1 1957.82 1474.49 Q1957.82 1470.88 1955.48 1468.77 Q1953.14 1466.67 1949.14 1466.67 Q1947.26 1466.67 1945.39 1467.08 Q1943.53 1467.5 1941.59 1468.38 L1941.59 1451.02 Z" fill="#000000" fill-rule="nonzero" fill-opacity="1" /><path clip-path="url(#clip650)" d="M1981.71 1454.1 Q1978.09 1454.1 1976.27 1457.66 Q1974.46 1461.2 1974.46 1468.33 Q1974.46 1475.44 1976.27 1479.01 Q1978.09 1482.55 1981.71 1482.55 Q1985.34 1482.55 1987.15 1479.01 Q1988.97 1475.44 1988.97 1468.33 Q1988.97 1461.2 1987.15 1457.66 Q1985.34 1454.1 1981.71 1454.1 M1981.71 1450.39 Q1987.52 1450.39 1990.57 1455 Q1993.65 1459.58 1993.65 1468.33 Q1993.65 1477.06 1990.57 1481.67 Q1987.52 1486.25 1981.71 1486.25 Q1975.9 1486.25 1972.82 1481.67 Q1969.76 1477.06 1969.76 1468.33 Q1969.76 1459.58 1972.82 1455 Q1975.9 1450.39 1981.71 1450.39 Z" fill="#000000" fill-rule="nonzero" fill-opacity="1" /><path clip-path="url(#clip650)" d="M2280.13 1466.44 Q2276.99 1466.44 2275.13 1468.59 Q2273.31 1470.74 2273.31 1474.49 Q2273.31 1478.22 2275.13 1480.39 Q2276.99 1482.55 2280.13 1482.55 Q2283.28 1482.55 2285.11 1480.39 Q2286.96 1478.22 2286.96 1474.49 Q2286.96 1470.74 2285.11 1468.59 Q2283.28 1466.44 2280.13 1466.44 M2289.42 1451.78 L2289.42 1456.04 Q2287.66 1455.21 2285.85 1454.77 Q2284.07 1454.33 2282.31 1454.33 Q2277.68 1454.33 2275.23 1457.45 Q2272.8 1460.58 2272.45 1466.9 Q2273.81 1464.89 2275.87 1463.82 Q2277.93 1462.73 2280.41 1462.73 Q2285.62 1462.73 2288.63 1465.9 Q2291.66 1469.05 2291.66 1474.49 Q2291.66 1479.82 2288.51 1483.03 Q2285.37 1486.25 2280.13 1486.25 Q2274.14 1486.25 2270.97 1481.67 Q2267.8 1477.06 2267.8 1468.33 Q2267.8 1460.14 2271.68 1455.28 Q2275.57 1450.39 2282.12 1450.39 Q2283.88 1450.39 2285.67 1450.74 Q2287.47 1451.09 2289.42 1451.78 Z" fill="#000000" fill-rule="nonzero" fill-opacity="1" /><path clip-path="url(#clip650)" d="M2309.72 1454.1 Q2306.11 1454.1 2304.28 1457.66 Q2302.47 1461.2 2302.47 1468.33 Q2302.47 1475.44 2304.28 1479.01 Q2306.11 1482.55 2309.72 1482.55 Q2313.35 1482.55 2315.16 1479.01 Q2316.99 1475.44 2316.99 1468.33 Q2316.99 1461.2 2315.16 1457.66 Q2313.35 1454.1 2309.72 1454.1 M2309.72 1450.39 Q2315.53 1450.39 2318.58 1455 Q2321.66 1459.58 2321.66 1468.33 Q2321.66 1477.06 2318.58 1481.67 Q2315.53 1486.25 2309.72 1486.25 Q2303.91 1486.25 2300.83 1481.67 Q2297.77 1477.06 2297.77 1468.33 Q2297.77 1459.58 2300.83 1455 Q2303.91 1450.39 2309.72 1450.39 Z" fill="#000000" fill-rule="nonzero" fill-opacity="1" /><path clip-path="url(#clip650)" d="M1195.33 1520.52 L1201.76 1520.52 L1201.76 1568.04 L1195.33 1568.04 L1195.33 1520.52 Z" fill="#000000" fill-rule="nonzero" fill-opacity="1" /><path clip-path="url(#clip650)" d="M1220.09 1522.27 L1220.09 1532.4 L1232.15 1532.4 L1232.15 1536.95 L1220.09 1536.95 L1220.09 1556.3 Q1220.09 1560.66 1221.27 1561.9 Q1222.48 1563.14 1226.14 1563.14 L1232.15 1563.14 L1232.15 1568.04 L1226.14 1568.04 Q1219.36 1568.04 1216.78 1565.53 Q1214.2 1562.98 1214.2 1556.3 L1214.2 1536.95 L1209.91 1536.95 L1209.91 1532.4 L1214.2 1532.4 L1214.2 1522.27 L1220.09 1522.27 Z" fill="#000000" fill-rule="nonzero" fill-opacity="1" /><path clip-path="url(#clip650)" d="M1270.35 1548.76 L1270.35 1551.62 L1243.42 1551.62 Q1243.8 1557.67 1247.05 1560.85 Q1250.33 1564 1256.15 1564 Q1259.53 1564 1262.68 1563.17 Q1265.86 1562.35 1268.98 1560.69 L1268.98 1566.23 Q1265.83 1567.57 1262.52 1568.27 Q1259.21 1568.97 1255.8 1568.97 Q1247.27 1568.97 1242.27 1564 Q1237.31 1559.04 1237.31 1550.57 Q1237.31 1541.82 1242.02 1536.69 Q1246.76 1531.54 1254.78 1531.54 Q1261.98 1531.54 1266.15 1536.18 Q1270.35 1540.8 1270.35 1548.76 M1264.49 1547.04 Q1264.43 1542.23 1261.79 1539.37 Q1259.18 1536.5 1254.85 1536.5 Q1249.95 1536.5 1246.99 1539.27 Q1244.06 1542.04 1243.61 1547.07 L1264.49 1547.04 Z" fill="#000000" fill-rule="nonzero" fill-opacity="1" /><path clip-path="url(#clip650)" d="M1300.62 1537.87 Q1299.63 1537.3 1298.45 1537.04 Q1297.31 1536.76 1295.91 1536.76 Q1290.94 1536.76 1288.27 1540 Q1285.63 1543.22 1285.63 1549.27 L1285.63 1568.04 L1279.74 1568.04 L1279.74 1532.4 L1285.63 1532.4 L1285.63 1537.93 Q1287.47 1534.69 1290.43 1533.13 Q1293.39 1531.54 1297.62 1531.54 Q1298.23 1531.54 1298.96 1531.63 Q1299.69 1531.7 1300.58 1531.85 L1300.62 1537.87 Z" fill="#000000" fill-rule="nonzero" fill-opacity="1" /><path clip-path="url(#clip650)" d="M1322.96 1550.12 Q1315.86 1550.12 1313.13 1551.75 Q1310.39 1553.37 1310.39 1557.29 Q1310.39 1560.4 1312.42 1562.25 Q1314.49 1564.07 1318.03 1564.07 Q1322.9 1564.07 1325.82 1560.63 Q1328.78 1557.16 1328.78 1551.43 L1328.78 1550.12 L1322.96 1550.12 M1334.64 1547.71 L1334.64 1568.04 L1328.78 1568.04 L1328.78 1562.63 Q1326.78 1565.88 1323.79 1567.44 Q1320.8 1568.97 1316.47 1568.97 Q1310.99 1568.97 1307.75 1565.91 Q1304.53 1562.82 1304.53 1557.67 Q1304.53 1551.65 1308.54 1548.6 Q1312.58 1545.54 1320.57 1545.54 L1328.78 1545.54 L1328.78 1544.97 Q1328.78 1540.93 1326.11 1538.73 Q1323.47 1536.5 1318.66 1536.5 Q1315.61 1536.5 1312.71 1537.23 Q1309.82 1537.97 1307.14 1539.43 L1307.14 1534.02 Q1310.36 1532.78 1313.38 1532.17 Q1316.4 1531.54 1319.27 1531.54 Q1327 1531.54 1330.82 1535.55 Q1334.64 1539.56 1334.64 1547.71 Z" fill="#000000" fill-rule="nonzero" fill-opacity="1" /><path clip-path="url(#clip650)" d="M1352.5 1522.27 L1352.5 1532.4 L1364.56 1532.4 L1364.56 1536.95 L1352.5 1536.95 L1352.5 1556.3 Q1352.5 1560.66 1353.67 1561.9 Q1354.88 1563.14 1358.54 1563.14 L1364.56 1563.14 L1364.56 1568.04 L1358.54 1568.04 Q1351.77 1568.04 1349.19 1565.53 Q1346.61 1562.98 1346.61 1556.3 L1346.61 1536.95 L1342.31 1536.95 L1342.31 1532.4 L1346.61 1532.4 L1346.61 1522.27 L1352.5 1522.27 Z" fill="#000000" fill-rule="nonzero" fill-opacity="1" /><path clip-path="url(#clip650)" d="M1372.26 1532.4 L1378.12 1532.4 L1378.12 1568.04 L1372.26 1568.04 L1372.26 1532.4 M1372.26 1518.52 L1378.12 1518.52 L1378.12 1525.93 L1372.26 1525.93 L1372.26 1518.52 Z" fill="#000000" fill-rule="nonzero" fill-opacity="1" /><path clip-path="url(#clip650)" d="M1404.19 1536.5 Q1399.48 1536.5 1396.74 1540.19 Q1394 1543.85 1394 1550.25 Q1394 1556.65 1396.71 1560.34 Q1399.44 1564 1404.19 1564 Q1408.87 1564 1411.6 1560.31 Q1414.34 1556.62 1414.34 1550.25 Q1414.34 1543.92 1411.6 1540.23 Q1408.87 1536.5 1404.19 1536.5 M1404.19 1531.54 Q1411.83 1531.54 1416.19 1536.5 Q1420.55 1541.47 1420.55 1550.25 Q1420.55 1559 1416.19 1564 Q1411.83 1568.97 1404.19 1568.97 Q1396.52 1568.97 1392.16 1564 Q1387.83 1559 1387.83 1550.25 Q1387.83 1541.47 1392.16 1536.5 Q1396.52 1531.54 1404.19 1531.54 Z" fill="#000000" fill-rule="nonzero" fill-opacity="1" /><path clip-path="url(#clip650)" d="M1459.89 1546.53 L1459.89 1568.04 L1454.03 1568.04 L1454.03 1546.72 Q1454.03 1541.66 1452.06 1539.14 Q1450.08 1536.63 1446.14 1536.63 Q1441.39 1536.63 1438.66 1539.65 Q1435.92 1542.68 1435.92 1547.9 L1435.92 1568.04 L1430.03 1568.04 L1430.03 1532.4 L1435.92 1532.4 L1435.92 1537.93 Q1438.02 1534.72 1440.85 1533.13 Q1443.72 1531.54 1447.44 1531.54 Q1453.58 1531.54 1456.74 1535.36 Q1459.89 1539.14 1459.89 1546.53 Z" fill="#000000" fill-rule="nonzero" fill-opacity="1" /><polyline clip-path="url(#clip650)" style="stroke:#000000; stroke-linecap:round; stroke-linejoin:round; stroke-width:4; stroke-opacity:1; fill:none" points="302.458,1423.18 302.458,106.192 "/>
<polyline clip-path="url(#clip650)" style="stroke:#000000; stroke-linecap:round; stroke-linejoin:round; stroke-width:4; stroke-opacity:1; fill:none" points="302.458,1327.09 321.356,1327.09 "/>
<polyline clip-path="url(#clip650)" style="stroke:#000000; stroke-linecap:round; stroke-linejoin:round; stroke-width:4; stroke-opacity:1; fill:none" points="302.458,1149.53 321.356,1149.53 "/>
<polyline clip-path="url(#clip650)" style="stroke:#000000; stroke-linecap:round; stroke-linejoin:round; stroke-width:4; stroke-opacity:1; fill:none" points="302.458,971.974 321.356,971.974 "/>
<polyline clip-path="url(#clip650)" style="stroke:#000000; stroke-linecap:round; stroke-linejoin:round; stroke-width:4; stroke-opacity:1; fill:none" points="302.458,794.415 321.356,794.415 "/>
<polyline clip-path="url(#clip650)" style="stroke:#000000; stroke-linecap:round; stroke-linejoin:round; stroke-width:4; stroke-opacity:1; fill:none" points="302.458,616.855 321.356,616.855 "/>
<polyline clip-path="url(#clip650)" style="stroke:#000000; stroke-linecap:round; stroke-linejoin:round; stroke-width:4; stroke-opacity:1; fill:none" points="302.458,439.296 321.356,439.296 "/>
<polyline clip-path="url(#clip650)" style="stroke:#000000; stroke-linecap:round; stroke-linejoin:round; stroke-width:4; stroke-opacity:1; fill:none" points="302.458,261.737 321.356,261.737 "/>
<path clip-path="url(#clip650)" d="M114.26 1327.54 L143.936 1327.54 L143.936 1331.48 L114.26 1331.48 L114.26 1327.54 Z" fill="#000000" fill-rule="nonzero" fill-opacity="1" /><path clip-path="url(#clip650)" d="M154.075 1309.81 L172.431 1309.81 L172.431 1313.75 L158.357 1313.75 L158.357 1322.22 Q159.376 1321.87 160.394 1321.71 Q161.413 1321.53 162.431 1321.53 Q168.218 1321.53 171.598 1324.7 Q174.977 1327.87 174.977 1333.28 Q174.977 1338.86 171.505 1341.96 Q168.033 1345.04 161.714 1345.04 Q159.538 1345.04 157.269 1344.67 Q155.024 1344.3 152.616 1343.56 L152.616 1338.86 Q154.7 1340 156.922 1340.55 Q159.144 1341.11 161.621 1341.11 Q165.626 1341.11 167.964 1339 Q170.302 1336.9 170.302 1333.28 Q170.302 1329.67 167.964 1327.57 Q165.626 1325.46 161.621 1325.46 Q159.746 1325.46 157.871 1325.88 Q156.019 1326.29 154.075 1327.17 L154.075 1309.81 Z" fill="#000000" fill-rule="nonzero" fill-opacity="1" /><path clip-path="url(#clip650)" d="M197.037 1313.89 L185.232 1332.34 L197.037 1332.34 L197.037 1313.89 M195.811 1309.81 L201.69 1309.81 L201.69 1332.34 L206.621 1332.34 L206.621 1336.22 L201.69 1336.22 L201.69 1344.37 L197.037 1344.37 L197.037 1336.22 L181.436 1336.22 L181.436 1331.71 L195.811 1309.81 Z" fill="#000000" fill-rule="nonzero" fill-opacity="1" /><path clip-path="url(#clip650)" d="M224.352 1312.89 Q220.741 1312.89 218.912 1316.46 Q217.107 1320 217.107 1327.13 Q217.107 1334.23 218.912 1337.8 Q220.741 1341.34 224.352 1341.34 Q227.986 1341.34 229.792 1337.8 Q231.621 1334.23 231.621 1327.13 Q231.621 1320 229.792 1316.46 Q227.986 1312.89 224.352 1312.89 M224.352 1309.19 Q230.162 1309.19 233.218 1313.79 Q236.297 1318.38 236.297 1327.13 Q236.297 1335.85 233.218 1340.46 Q230.162 1345.04 224.352 1345.04 Q218.542 1345.04 215.463 1340.46 Q212.408 1335.85 212.408 1327.13 Q212.408 1318.38 215.463 1313.79 Q218.542 1309.19 224.352 1309.19 Z" fill="#000000" fill-rule="nonzero" fill-opacity="1" /><path clip-path="url(#clip650)" d="M254.514 1312.89 Q250.903 1312.89 249.074 1316.46 Q247.269 1320 247.269 1327.13 Q247.269 1334.23 249.074 1337.8 Q250.903 1341.34 254.514 1341.34 Q258.148 1341.34 259.954 1337.8 Q261.783 1334.23 261.783 1327.13 Q261.783 1320 259.954 1316.46 Q258.148 1312.89 254.514 1312.89 M254.514 1309.19 Q260.324 1309.19 263.38 1313.79 Q266.458 1318.38 266.458 1327.13 Q266.458 1335.85 263.38 1340.46 Q260.324 1345.04 254.514 1345.04 Q248.704 1345.04 245.625 1340.46 Q242.57 1335.85 242.57 1327.13 Q242.57 1318.38 245.625 1313.79 Q248.704 1309.19 254.514 1309.19 Z" fill="#000000" fill-rule="nonzero" fill-opacity="1" /><path clip-path="url(#clip650)" d="M114.26 1149.98 L143.936 1149.98 L143.936 1153.92 L114.26 1153.92 L114.26 1149.98 Z" fill="#000000" fill-rule="nonzero" fill-opacity="1" /><path clip-path="url(#clip650)" d="M154.075 1132.25 L172.431 1132.25 L172.431 1136.19 L158.357 1136.19 L158.357 1144.66 Q159.376 1144.31 160.394 1144.15 Q161.413 1143.97 162.431 1143.97 Q168.218 1143.97 171.598 1147.14 Q174.977 1150.31 174.977 1155.73 Q174.977 1161.3 171.505 1164.41 Q168.033 1167.48 161.714 1167.48 Q159.538 1167.48 157.269 1167.11 Q155.024 1166.74 152.616 1166 L152.616 1161.3 Q154.7 1162.44 156.922 1162.99 Q159.144 1163.55 161.621 1163.55 Q165.626 1163.55 167.964 1161.44 Q170.302 1159.34 170.302 1155.73 Q170.302 1152.11 167.964 1150.01 Q165.626 1147.9 161.621 1147.9 Q159.746 1147.9 157.871 1148.32 Q156.019 1148.73 154.075 1149.61 L154.075 1132.25 Z" fill="#000000" fill-rule="nonzero" fill-opacity="1" /><path clip-path="url(#clip650)" d="M198.357 1148.18 Q201.713 1148.9 203.588 1151.17 Q205.487 1153.43 205.487 1156.77 Q205.487 1161.88 201.968 1164.68 Q198.45 1167.48 191.968 1167.48 Q189.792 1167.48 187.477 1167.04 Q185.186 1166.63 182.732 1165.77 L182.732 1161.26 Q184.676 1162.39 186.991 1162.97 Q189.306 1163.55 191.829 1163.55 Q196.227 1163.55 198.519 1161.81 Q200.834 1160.08 200.834 1156.77 Q200.834 1153.71 198.681 1152 Q196.551 1150.26 192.732 1150.26 L188.704 1150.26 L188.704 1146.42 L192.917 1146.42 Q196.366 1146.42 198.195 1145.05 Q200.024 1143.67 200.024 1141.07 Q200.024 1138.41 198.125 1137 Q196.25 1135.56 192.732 1135.56 Q190.811 1135.56 188.612 1135.98 Q186.413 1136.4 183.774 1137.28 L183.774 1133.11 Q186.436 1132.37 188.75 1132 Q191.088 1131.63 193.149 1131.63 Q198.473 1131.63 201.575 1134.06 Q204.676 1136.47 204.676 1140.59 Q204.676 1143.46 203.033 1145.45 Q201.389 1147.42 198.357 1148.18 Z" fill="#000000" fill-rule="nonzero" fill-opacity="1" /><path clip-path="url(#clip650)" d="M224.352 1135.33 Q220.741 1135.33 218.912 1138.9 Q217.107 1142.44 217.107 1149.57 Q217.107 1156.67 218.912 1160.24 Q220.741 1163.78 224.352 1163.78 Q227.986 1163.78 229.792 1160.24 Q231.621 1156.67 231.621 1149.57 Q231.621 1142.44 229.792 1138.9 Q227.986 1135.33 224.352 1135.33 M224.352 1131.63 Q230.162 1131.63 233.218 1136.23 Q236.297 1140.82 236.297 1149.57 Q236.297 1158.29 233.218 1162.9 Q230.162 1167.48 224.352 1167.48 Q218.542 1167.48 215.463 1162.9 Q212.408 1158.29 212.408 1149.57 Q212.408 1140.82 215.463 1136.23 Q218.542 1131.63 224.352 1131.63 Z" fill="#000000" fill-rule="nonzero" fill-opacity="1" /><path clip-path="url(#clip650)" d="M254.514 1135.33 Q250.903 1135.33 249.074 1138.9 Q247.269 1142.44 247.269 1149.57 Q247.269 1156.67 249.074 1160.24 Q250.903 1163.78 254.514 1163.78 Q258.148 1163.78 259.954 1160.24 Q261.783 1156.67 261.783 1149.57 Q261.783 1142.44 259.954 1138.9 Q258.148 1135.33 254.514 1135.33 M254.514 1131.63 Q260.324 1131.63 263.38 1136.23 Q266.458 1140.82 266.458 1149.57 Q266.458 1158.29 263.38 1162.9 Q260.324 1167.48 254.514 1167.48 Q248.704 1167.48 245.625 1162.9 Q242.57 1158.29 242.57 1149.57 Q242.57 1140.82 245.625 1136.23 Q248.704 1131.63 254.514 1131.63 Z" fill="#000000" fill-rule="nonzero" fill-opacity="1" /><path clip-path="url(#clip650)" d="M114.26 972.425 L143.936 972.425 L143.936 976.36 L114.26 976.36 L114.26 972.425 Z" fill="#000000" fill-rule="nonzero" fill-opacity="1" /><path clip-path="url(#clip650)" d="M154.075 954.694 L172.431 954.694 L172.431 958.629 L158.357 958.629 L158.357 967.101 Q159.376 966.754 160.394 966.592 Q161.413 966.407 162.431 966.407 Q168.218 966.407 171.598 969.578 Q174.977 972.749 174.977 978.166 Q174.977 983.745 171.505 986.846 Q168.033 989.925 161.714 989.925 Q159.538 989.925 157.269 989.555 Q155.024 989.184 152.616 988.444 L152.616 983.745 Q154.7 984.879 156.922 985.434 Q159.144 985.99 161.621 985.99 Q165.626 985.99 167.964 983.884 Q170.302 981.777 170.302 978.166 Q170.302 974.555 167.964 972.448 Q165.626 970.342 161.621 970.342 Q159.746 970.342 157.871 970.759 Q156.019 971.175 154.075 972.055 L154.075 954.694 Z" fill="#000000" fill-rule="nonzero" fill-opacity="1" /><path clip-path="url(#clip650)" d="M188.218 985.319 L204.537 985.319 L204.537 989.254 L182.593 989.254 L182.593 985.319 Q185.255 982.564 189.838 977.934 Q194.445 973.282 195.625 971.939 Q197.871 969.416 198.75 967.68 Q199.653 965.921 199.653 964.231 Q199.653 961.476 197.709 959.74 Q195.787 958.004 192.686 958.004 Q190.487 958.004 188.033 958.768 Q185.602 959.532 182.825 961.083 L182.825 956.361 Q185.649 955.226 188.102 954.648 Q190.556 954.069 192.593 954.069 Q197.963 954.069 201.158 956.754 Q204.352 959.439 204.352 963.93 Q204.352 966.06 203.542 967.981 Q202.755 969.879 200.649 972.472 Q200.07 973.143 196.968 976.36 Q193.866 979.555 188.218 985.319 Z" fill="#000000" fill-rule="nonzero" fill-opacity="1" /><path clip-path="url(#clip650)" d="M224.352 957.773 Q220.741 957.773 218.912 961.337 Q217.107 964.879 217.107 972.009 Q217.107 979.115 218.912 982.68 Q220.741 986.221 224.352 986.221 Q227.986 986.221 229.792 982.68 Q231.621 979.115 231.621 972.009 Q231.621 964.879 229.792 961.337 Q227.986 957.773 224.352 957.773 M224.352 954.069 Q230.162 954.069 233.218 958.675 Q236.297 963.259 236.297 972.009 Q236.297 980.735 233.218 985.342 Q230.162 989.925 224.352 989.925 Q218.542 989.925 215.463 985.342 Q212.408 980.735 212.408 972.009 Q212.408 963.259 215.463 958.675 Q218.542 954.069 224.352 954.069 Z" fill="#000000" fill-rule="nonzero" fill-opacity="1" /><path clip-path="url(#clip650)" d="M254.514 957.773 Q250.903 957.773 249.074 961.337 Q247.269 964.879 247.269 972.009 Q247.269 979.115 249.074 982.68 Q250.903 986.221 254.514 986.221 Q258.148 986.221 259.954 982.68 Q261.783 979.115 261.783 972.009 Q261.783 964.879 259.954 961.337 Q258.148 957.773 254.514 957.773 M254.514 954.069 Q260.324 954.069 263.38 958.675 Q266.458 963.259 266.458 972.009 Q266.458 980.735 263.38 985.342 Q260.324 989.925 254.514 989.925 Q248.704 989.925 245.625 985.342 Q242.57 980.735 242.57 972.009 Q242.57 963.259 245.625 958.675 Q248.704 954.069 254.514 954.069 Z" fill="#000000" fill-rule="nonzero" fill-opacity="1" /><path clip-path="url(#clip650)" d="M114.26 794.866 L143.936 794.866 L143.936 798.801 L114.26 798.801 L114.26 794.866 Z" fill="#000000" fill-rule="nonzero" fill-opacity="1" /><path clip-path="url(#clip650)" d="M154.075 777.135 L172.431 777.135 L172.431 781.07 L158.357 781.07 L158.357 789.542 Q159.376 789.195 160.394 789.033 Q161.413 788.848 162.431 788.848 Q168.218 788.848 171.598 792.019 Q174.977 795.19 174.977 800.607 Q174.977 806.185 171.505 809.287 Q168.033 812.366 161.714 812.366 Q159.538 812.366 157.269 811.996 Q155.024 811.625 152.616 810.884 L152.616 806.185 Q154.7 807.32 156.922 807.875 Q159.144 808.431 161.621 808.431 Q165.626 808.431 167.964 806.324 Q170.302 804.218 170.302 800.607 Q170.302 796.996 167.964 794.889 Q165.626 792.783 161.621 792.783 Q159.746 792.783 157.871 793.199 Q156.019 793.616 154.075 794.496 L154.075 777.135 Z" fill="#000000" fill-rule="nonzero" fill-opacity="1" /><path clip-path="url(#clip650)" d="M185.001 807.759 L192.639 807.759 L192.639 781.394 L184.329 783.061 L184.329 778.801 L192.593 777.135 L197.269 777.135 L197.269 807.759 L204.908 807.759 L204.908 811.695 L185.001 811.695 L185.001 807.759 Z" fill="#000000" fill-rule="nonzero" fill-opacity="1" /><path clip-path="url(#clip650)" d="M224.352 780.213 Q220.741 780.213 218.912 783.778 Q217.107 787.32 217.107 794.449 Q217.107 801.556 218.912 805.121 Q220.741 808.662 224.352 808.662 Q227.986 808.662 229.792 805.121 Q231.621 801.556 231.621 794.449 Q231.621 787.32 229.792 783.778 Q227.986 780.213 224.352 780.213 M224.352 776.51 Q230.162 776.51 233.218 781.116 Q236.297 785.699 236.297 794.449 Q236.297 803.176 233.218 807.783 Q230.162 812.366 224.352 812.366 Q218.542 812.366 215.463 807.783 Q212.408 803.176 212.408 794.449 Q212.408 785.699 215.463 781.116 Q218.542 776.51 224.352 776.51 Z" fill="#000000" fill-rule="nonzero" fill-opacity="1" /><path clip-path="url(#clip650)" d="M254.514 780.213 Q250.903 780.213 249.074 783.778 Q247.269 787.32 247.269 794.449 Q247.269 801.556 249.074 805.121 Q250.903 808.662 254.514 808.662 Q258.148 808.662 259.954 805.121 Q261.783 801.556 261.783 794.449 Q261.783 787.32 259.954 783.778 Q258.148 780.213 254.514 780.213 M254.514 776.51 Q260.324 776.51 263.38 781.116 Q266.458 785.699 266.458 794.449 Q266.458 803.176 263.38 807.783 Q260.324 812.366 254.514 812.366 Q248.704 812.366 245.625 807.783 Q242.57 803.176 242.57 794.449 Q242.57 785.699 245.625 781.116 Q248.704 776.51 254.514 776.51 Z" fill="#000000" fill-rule="nonzero" fill-opacity="1" /><path clip-path="url(#clip650)" d="M114.26 617.307 L143.936 617.307 L143.936 621.242 L114.26 621.242 L114.26 617.307 Z" fill="#000000" fill-rule="nonzero" fill-opacity="1" /><path clip-path="url(#clip650)" d="M154.075 599.575 L172.431 599.575 L172.431 603.511 L158.357 603.511 L158.357 611.983 Q159.376 611.636 160.394 611.473 Q161.413 611.288 162.431 611.288 Q168.218 611.288 171.598 614.46 Q174.977 617.631 174.977 623.047 Q174.977 628.626 171.505 631.728 Q168.033 634.807 161.714 634.807 Q159.538 634.807 157.269 634.436 Q155.024 634.066 152.616 633.325 L152.616 628.626 Q154.7 629.76 156.922 630.316 Q159.144 630.872 161.621 630.872 Q165.626 630.872 167.964 628.765 Q170.302 626.659 170.302 623.047 Q170.302 619.436 167.964 617.33 Q165.626 615.223 161.621 615.223 Q159.746 615.223 157.871 615.64 Q156.019 616.057 154.075 616.936 L154.075 599.575 Z" fill="#000000" fill-rule="nonzero" fill-opacity="1" /><path clip-path="url(#clip650)" d="M194.19 602.654 Q190.579 602.654 188.75 606.219 Q186.945 609.761 186.945 616.89 Q186.945 623.997 188.75 627.561 Q190.579 631.103 194.19 631.103 Q197.825 631.103 199.63 627.561 Q201.459 623.997 201.459 616.89 Q201.459 609.761 199.63 606.219 Q197.825 602.654 194.19 602.654 M194.19 598.95 Q200 598.95 203.056 603.557 Q206.135 608.14 206.135 616.89 Q206.135 625.617 203.056 630.223 Q200 634.807 194.19 634.807 Q188.38 634.807 185.301 630.223 Q182.246 625.617 182.246 616.89 Q182.246 608.14 185.301 603.557 Q188.38 598.95 194.19 598.95 Z" fill="#000000" fill-rule="nonzero" fill-opacity="1" /><path clip-path="url(#clip650)" d="M224.352 602.654 Q220.741 602.654 218.912 606.219 Q217.107 609.761 217.107 616.89 Q217.107 623.997 218.912 627.561 Q220.741 631.103 224.352 631.103 Q227.986 631.103 229.792 627.561 Q231.621 623.997 231.621 616.89 Q231.621 609.761 229.792 606.219 Q227.986 602.654 224.352 602.654 M224.352 598.95 Q230.162 598.95 233.218 603.557 Q236.297 608.14 236.297 616.89 Q236.297 625.617 233.218 630.223 Q230.162 634.807 224.352 634.807 Q218.542 634.807 215.463 630.223 Q212.408 625.617 212.408 616.89 Q212.408 608.14 215.463 603.557 Q218.542 598.95 224.352 598.95 Z" fill="#000000" fill-rule="nonzero" fill-opacity="1" /><path clip-path="url(#clip650)" d="M254.514 602.654 Q250.903 602.654 249.074 606.219 Q247.269 609.761 247.269 616.89 Q247.269 623.997 249.074 627.561 Q250.903 631.103 254.514 631.103 Q258.148 631.103 259.954 627.561 Q261.783 623.997 261.783 616.89 Q261.783 609.761 259.954 606.219 Q258.148 602.654 254.514 602.654 M254.514 598.95 Q260.324 598.95 263.38 603.557 Q266.458 608.14 266.458 616.89 Q266.458 625.617 263.38 630.223 Q260.324 634.807 254.514 634.807 Q248.704 634.807 245.625 630.223 Q242.57 625.617 242.57 616.89 Q242.57 608.14 245.625 603.557 Q248.704 598.95 254.514 598.95 Z" fill="#000000" fill-rule="nonzero" fill-opacity="1" /><path clip-path="url(#clip650)" d="M114.26 439.748 L143.936 439.748 L143.936 443.683 L114.26 443.683 L114.26 439.748 Z" fill="#000000" fill-rule="nonzero" fill-opacity="1" /><path clip-path="url(#clip650)" d="M166.876 426.09 L155.07 444.539 L166.876 444.539 L166.876 426.09 M165.649 422.016 L171.528 422.016 L171.528 444.539 L176.459 444.539 L176.459 448.428 L171.528 448.428 L171.528 456.576 L166.876 456.576 L166.876 448.428 L151.274 448.428 L151.274 443.914 L165.649 422.016 Z" fill="#000000" fill-rule="nonzero" fill-opacity="1" /><path clip-path="url(#clip650)" d="M184.329 455.859 L184.329 451.599 Q186.088 452.433 187.894 452.872 Q189.7 453.312 191.436 453.312 Q196.065 453.312 198.496 450.21 Q200.95 447.085 201.297 440.743 Q199.954 442.734 197.894 443.798 Q195.834 444.863 193.334 444.863 Q188.149 444.863 185.116 441.738 Q182.107 438.59 182.107 433.15 Q182.107 427.826 185.255 424.609 Q188.403 421.391 193.635 421.391 Q199.63 421.391 202.778 425.998 Q205.949 430.581 205.949 439.331 Q205.949 447.502 202.061 452.386 Q198.195 457.247 191.644 457.247 Q189.885 457.247 188.079 456.9 Q186.274 456.553 184.329 455.859 M193.635 441.206 Q196.783 441.206 198.612 439.053 Q200.463 436.9 200.463 433.15 Q200.463 429.424 198.612 427.271 Q196.783 425.095 193.635 425.095 Q190.487 425.095 188.635 427.271 Q186.806 429.424 186.806 433.15 Q186.806 436.9 188.635 439.053 Q190.487 441.206 193.635 441.206 Z" fill="#000000" fill-rule="nonzero" fill-opacity="1" /><path clip-path="url(#clip650)" d="M224.352 425.095 Q220.741 425.095 218.912 428.66 Q217.107 432.201 217.107 439.331 Q217.107 446.437 218.912 450.002 Q220.741 453.544 224.352 453.544 Q227.986 453.544 229.792 450.002 Q231.621 446.437 231.621 439.331 Q231.621 432.201 229.792 428.66 Q227.986 425.095 224.352 425.095 M224.352 421.391 Q230.162 421.391 233.218 425.998 Q236.297 430.581 236.297 439.331 Q236.297 448.058 233.218 452.664 Q230.162 457.247 224.352 457.247 Q218.542 457.247 215.463 452.664 Q212.408 448.058 212.408 439.331 Q212.408 430.581 215.463 425.998 Q218.542 421.391 224.352 421.391 Z" fill="#000000" fill-rule="nonzero" fill-opacity="1" /><path clip-path="url(#clip650)" d="M254.514 425.095 Q250.903 425.095 249.074 428.66 Q247.269 432.201 247.269 439.331 Q247.269 446.437 249.074 450.002 Q250.903 453.544 254.514 453.544 Q258.148 453.544 259.954 450.002 Q261.783 446.437 261.783 439.331 Q261.783 432.201 259.954 428.66 Q258.148 425.095 254.514 425.095 M254.514 421.391 Q260.324 421.391 263.38 425.998 Q266.458 430.581 266.458 439.331 Q266.458 448.058 263.38 452.664 Q260.324 457.247 254.514 457.247 Q248.704 457.247 245.625 452.664 Q242.57 448.058 242.57 439.331 Q242.57 430.581 245.625 425.998 Q248.704 421.391 254.514 421.391 Z" fill="#000000" fill-rule="nonzero" fill-opacity="1" /><path clip-path="url(#clip650)" d="M114.26 262.188 L143.936 262.188 L143.936 266.124 L114.26 266.124 L114.26 262.188 Z" fill="#000000" fill-rule="nonzero" fill-opacity="1" /><path clip-path="url(#clip650)" d="M166.876 248.531 L155.07 266.98 L166.876 266.98 L166.876 248.531 M165.649 244.457 L171.528 244.457 L171.528 266.98 L176.459 266.98 L176.459 270.869 L171.528 270.869 L171.528 279.017 L166.876 279.017 L166.876 270.869 L151.274 270.869 L151.274 266.355 L165.649 244.457 Z" fill="#000000" fill-rule="nonzero" fill-opacity="1" /><path clip-path="url(#clip650)" d="M194.19 262.605 Q190.857 262.605 188.936 264.387 Q187.038 266.17 187.038 269.295 Q187.038 272.42 188.936 274.202 Q190.857 275.985 194.19 275.985 Q197.524 275.985 199.445 274.202 Q201.366 272.397 201.366 269.295 Q201.366 266.17 199.445 264.387 Q197.547 262.605 194.19 262.605 M189.514 260.614 Q186.505 259.874 184.815 257.813 Q183.149 255.753 183.149 252.79 Q183.149 248.647 186.088 246.239 Q189.051 243.832 194.19 243.832 Q199.352 243.832 202.292 246.239 Q205.232 248.647 205.232 252.79 Q205.232 255.753 203.542 257.813 Q201.875 259.874 198.889 260.614 Q202.269 261.401 204.144 263.693 Q206.042 265.985 206.042 269.295 Q206.042 274.318 202.963 277.003 Q199.908 279.688 194.19 279.688 Q188.473 279.688 185.394 277.003 Q182.338 274.318 182.338 269.295 Q182.338 265.985 184.237 263.693 Q186.135 261.401 189.514 260.614 M187.801 253.23 Q187.801 255.915 189.468 257.42 Q191.158 258.924 194.19 258.924 Q197.2 258.924 198.889 257.42 Q200.602 255.915 200.602 253.23 Q200.602 250.545 198.889 249.04 Q197.2 247.536 194.19 247.536 Q191.158 247.536 189.468 249.04 Q187.801 250.545 187.801 253.23 Z" fill="#000000" fill-rule="nonzero" fill-opacity="1" /><path clip-path="url(#clip650)" d="M224.352 247.536 Q220.741 247.536 218.912 251.1 Q217.107 254.642 217.107 261.772 Q217.107 268.878 218.912 272.443 Q220.741 275.985 224.352 275.985 Q227.986 275.985 229.792 272.443 Q231.621 268.878 231.621 261.772 Q231.621 254.642 229.792 251.1 Q227.986 247.536 224.352 247.536 M224.352 243.832 Q230.162 243.832 233.218 248.438 Q236.297 253.022 236.297 261.772 Q236.297 270.498 233.218 275.105 Q230.162 279.688 224.352 279.688 Q218.542 279.688 215.463 275.105 Q212.408 270.498 212.408 261.772 Q212.408 253.022 215.463 248.438 Q218.542 243.832 224.352 243.832 Z" fill="#000000" fill-rule="nonzero" fill-opacity="1" /><path clip-path="url(#clip650)" d="M254.514 247.536 Q250.903 247.536 249.074 251.1 Q247.269 254.642 247.269 261.772 Q247.269 268.878 249.074 272.443 Q250.903 275.985 254.514 275.985 Q258.148 275.985 259.954 272.443 Q261.783 268.878 261.783 261.772 Q261.783 254.642 259.954 251.1 Q258.148 247.536 254.514 247.536 M254.514 243.832 Q260.324 243.832 263.38 248.438 Q266.458 253.022 266.458 261.772 Q266.458 270.498 263.38 275.105 Q260.324 279.688 254.514 279.688 Q248.704 279.688 245.625 275.105 Q242.57 270.498 242.57 261.772 Q242.57 253.022 245.625 248.438 Q248.704 243.832 254.514 243.832 Z" fill="#000000" fill-rule="nonzero" fill-opacity="1" /><path clip-path="url(#clip650)" d="M16.4842 992.817 L16.4842 986.388 L58.5933 986.388 L58.5933 963.248 L64.0042 963.248 L64.0042 992.817 L16.4842 992.817 Z" fill="#000000" fill-rule="nonzero" fill-opacity="1" /><path clip-path="url(#clip650)" d="M32.4621 944.088 Q32.4621 948.798 36.1542 951.535 Q39.8145 954.273 46.212 954.273 Q52.6095 954.273 56.3017 951.567 Q59.9619 948.83 59.9619 944.088 Q59.9619 939.409 56.2698 936.671 Q52.5777 933.934 46.212 933.934 Q39.8781 933.934 36.186 936.671 Q32.4621 939.409 32.4621 944.088 M27.4968 944.088 Q27.4968 936.449 32.4621 932.088 Q37.4273 927.728 46.212 927.728 Q54.9649 927.728 59.9619 932.088 Q64.9272 936.449 64.9272 944.088 Q64.9272 951.758 59.9619 956.119 Q54.9649 960.447 46.212 960.447 Q37.4273 960.447 32.4621 956.119 Q27.4968 951.758 27.4968 944.088 Z" fill="#000000" fill-rule="nonzero" fill-opacity="1" /><path clip-path="url(#clip650)" d="M45.7664 894.562 Q39.4007 894.562 35.8996 897.204 Q32.3984 899.814 32.3984 904.556 Q32.3984 909.267 35.8996 911.909 Q39.4007 914.519 45.7664 914.519 Q52.1003 914.519 55.6014 911.909 Q59.1026 909.267 59.1026 904.556 Q59.1026 899.814 55.6014 897.204 Q52.1003 894.562 45.7664 894.562 M59.58 888.706 Q68.683 888.706 73.1071 892.748 Q77.5631 896.79 77.5631 905.129 Q77.5631 908.217 77.0857 910.954 Q76.6401 913.691 75.6852 916.269 L69.9879 916.269 Q71.3884 913.691 72.0568 911.177 Q72.7252 908.662 72.7252 906.052 Q72.7252 900.291 69.7015 897.427 Q66.7096 894.562 60.6303 894.562 L57.7339 894.562 Q60.885 896.377 62.4446 899.209 Q64.0042 902.042 64.0042 905.989 Q64.0042 912.545 59.0071 916.556 Q54.01 920.566 45.7664 920.566 Q37.491 920.566 32.4939 916.556 Q27.4968 912.545 27.4968 905.989 Q27.4968 902.042 29.0564 899.209 Q30.616 896.377 33.7671 894.562 L28.3562 894.562 L28.3562 888.706 L59.58 888.706 Z" fill="#000000" fill-rule="nonzero" fill-opacity="1" /><path clip-path="url(#clip650)" d="M43.5384 879.603 L43.5384 862.447 L48.7583 862.447 L48.7583 879.603 L43.5384 879.603 Z" fill="#000000" fill-rule="nonzero" fill-opacity="1" /><path clip-path="url(#clip650)" d="M16.4842 852.867 L16.4842 846.438 L58.5933 846.438 L58.5933 823.298 L64.0042 823.298 L64.0042 852.867 L16.4842 852.867 Z" fill="#000000" fill-rule="nonzero" fill-opacity="1" /><path clip-path="url(#clip650)" d="M28.3562 816.805 L28.3562 810.949 L64.0042 810.949 L64.0042 816.805 L28.3562 816.805 M14.479 816.805 L14.479 810.949 L21.895 810.949 L21.895 816.805 L14.479 816.805 Z" fill="#000000" fill-rule="nonzero" fill-opacity="1" /><path clip-path="url(#clip650)" d="M14.479 798.918 L14.479 793.029 L43.7294 793.029 L28.3562 775.555 L28.3562 768.076 L45.0344 786.982 L64.0042 767.28 L64.0042 774.919 L46.5939 793.029 L64.0042 793.029 L64.0042 798.918 L14.479 798.918 Z" fill="#000000" fill-rule="nonzero" fill-opacity="1" /><path clip-path="url(#clip650)" d="M44.7161 732.778 L47.5806 732.778 L47.5806 759.705 Q53.6281 759.323 56.8109 756.076 Q59.9619 752.798 59.9619 746.973 Q59.9619 743.6 59.1344 740.449 Q58.3069 737.266 56.6518 734.147 L62.1899 734.147 Q63.5267 737.298 64.227 740.608 Q64.9272 743.918 64.9272 747.324 Q64.9272 755.854 59.9619 760.851 Q54.9967 765.816 46.5303 765.816 Q37.7774 765.816 32.6531 761.105 Q27.4968 756.363 27.4968 748.342 Q27.4968 741.149 32.1438 736.979 Q36.7589 732.778 44.7161 732.778 M42.9973 738.634 Q38.1912 738.698 35.3266 741.34 Q32.4621 743.95 32.4621 748.278 Q32.4621 753.18 35.2312 756.14 Q38.0002 759.068 43.0292 759.514 L42.9973 738.634 Z" fill="#000000" fill-rule="nonzero" fill-opacity="1" /><path clip-path="url(#clip650)" d="M14.479 723.166 L14.479 717.309 L64.0042 717.309 L64.0042 723.166 L14.479 723.166 Z" fill="#000000" fill-rule="nonzero" fill-opacity="1" /><path clip-path="url(#clip650)" d="M28.3562 705.055 L28.3562 699.199 L64.0042 699.199 L64.0042 705.055 L28.3562 705.055 M14.479 705.055 L14.479 699.199 L21.895 699.199 L21.895 705.055 L14.479 705.055 Z" fill="#000000" fill-rule="nonzero" fill-opacity="1" /><path clip-path="url(#clip650)" d="M42.4881 657.312 L64.0042 657.312 L64.0042 663.169 L42.679 663.169 Q37.6183 663.169 35.1038 665.142 Q32.5894 667.116 32.5894 671.062 Q32.5894 675.805 35.6131 678.542 Q38.6368 681.279 43.8567 681.279 L64.0042 681.279 L64.0042 687.168 L14.479 687.168 L14.479 681.279 L33.8944 681.279 Q30.6797 679.179 29.0883 676.346 Q27.4968 673.481 27.4968 669.757 Q27.4968 663.614 31.3163 660.463 Q35.1038 657.312 42.4881 657.312 Z" fill="#000000" fill-rule="nonzero" fill-opacity="1" /><path clip-path="url(#clip650)" d="M32.4621 631.818 Q32.4621 636.528 36.1542 639.266 Q39.8145 642.003 46.212 642.003 Q52.6095 642.003 56.3017 639.297 Q59.9619 636.56 59.9619 631.818 Q59.9619 627.139 56.2698 624.402 Q52.5777 621.664 46.212 621.664 Q39.8781 621.664 36.186 624.402 Q32.4621 627.139 32.4621 631.818 M27.4968 631.818 Q27.4968 624.179 32.4621 619.818 Q37.4273 615.458 46.212 615.458 Q54.9649 615.458 59.9619 619.818 Q64.9272 624.179 64.9272 631.818 Q64.9272 639.488 59.9619 643.849 Q54.9649 648.178 46.212 648.178 Q37.4273 648.178 32.4621 643.849 Q27.4968 639.488 27.4968 631.818 Z" fill="#000000" fill-rule="nonzero" fill-opacity="1" /><path clip-path="url(#clip650)" d="M32.4621 591.937 Q32.4621 596.647 36.1542 599.384 Q39.8145 602.122 46.212 602.122 Q52.6095 602.122 56.3017 599.416 Q59.9619 596.679 59.9619 591.937 Q59.9619 587.258 56.2698 584.521 Q52.5777 581.783 46.212 581.783 Q39.8781 581.783 36.186 584.521 Q32.4621 587.258 32.4621 591.937 M27.4968 591.937 Q27.4968 584.298 32.4621 579.937 Q37.4273 575.577 46.212 575.577 Q54.9649 575.577 59.9619 579.937 Q64.9272 584.298 64.9272 591.937 Q64.9272 599.607 59.9619 603.968 Q54.9649 608.296 46.212 608.296 Q37.4273 608.296 32.4621 603.968 Q27.4968 599.607 27.4968 591.937 Z" fill="#000000" fill-rule="nonzero" fill-opacity="1" /><path clip-path="url(#clip650)" d="M33.7671 542.411 L14.479 542.411 L14.479 536.555 L64.0042 536.555 L64.0042 542.411 L58.657 542.411 Q61.8398 544.257 63.3994 547.09 Q64.9272 549.891 64.9272 553.838 Q64.9272 560.299 59.771 564.373 Q54.6147 568.415 46.212 568.415 Q37.8093 568.415 32.6531 564.373 Q27.4968 560.299 27.4968 553.838 Q27.4968 549.891 29.0564 547.09 Q30.5842 544.257 33.7671 542.411 M46.212 562.368 Q52.6732 562.368 56.3653 559.726 Q60.0256 557.053 60.0256 552.406 Q60.0256 547.759 56.3653 545.085 Q52.6732 542.411 46.212 542.411 Q39.7508 542.411 36.0905 545.085 Q32.3984 547.759 32.3984 552.406 Q32.3984 557.053 36.0905 559.726 Q39.7508 562.368 46.212 562.368 Z" fill="#000000" fill-rule="nonzero" fill-opacity="1" /><path clip-path="url(#clip650)" d="M911.015 11.9675 L911.015 18.1307 Q908.064 15.3819 904.707 14.0219 Q901.38 12.662 897.618 12.662 Q890.211 12.662 886.276 17.2048 Q882.34 21.7186 882.34 30.2834 Q882.34 38.8192 886.276 43.362 Q890.211 47.8759 897.618 47.8759 Q901.38 47.8759 904.707 46.516 Q908.064 45.156 911.015 42.4072 L911.015 48.5125 Q907.948 50.5958 904.505 51.6375 Q901.09 52.6791 897.271 52.6791 Q887.462 52.6791 881.82 46.6896 Q876.177 40.6711 876.177 30.2834 Q876.177 19.8668 881.82 13.8772 Q887.462 7.85875 897.271 7.85875 Q901.148 7.85875 904.563 8.90042 Q908.006 9.91314 911.015 11.9675 Z" fill="#000000" fill-rule="nonzero" fill-opacity="1" /><path clip-path="url(#clip650)" d="M932.369 23.1654 Q928.087 23.1654 925.598 26.5218 Q923.11 29.8494 923.11 35.6653 Q923.11 41.4813 925.569 44.8377 Q928.058 48.1653 932.369 48.1653 Q936.623 48.1653 939.111 44.8088 Q941.599 41.4523 941.599 35.6653 Q941.599 29.9072 939.111 26.5508 Q936.623 23.1654 932.369 23.1654 M932.369 18.6515 Q939.314 18.6515 943.278 23.1654 Q947.242 27.6792 947.242 35.6653 Q947.242 43.6225 943.278 48.1653 Q939.314 52.6791 932.369 52.6791 Q925.396 52.6791 921.432 48.1653 Q917.497 43.6225 917.497 35.6653 Q917.497 27.6792 921.432 23.1654 Q925.396 18.6515 932.369 18.6515 Z" fill="#000000" fill-rule="nonzero" fill-opacity="1" /><path clip-path="url(#clip650)" d="M983.005 32.2799 L983.005 51.84 L977.681 51.84 L977.681 32.4535 Q977.681 27.8529 975.887 25.567 Q974.093 23.2811 970.505 23.2811 Q966.194 23.2811 963.706 26.03 Q961.217 28.7788 961.217 33.5241 L961.217 51.84 L955.864 51.84 L955.864 19.4328 L961.217 19.4328 L961.217 24.4675 Q963.127 21.545 965.702 20.0983 Q968.306 18.6515 971.692 18.6515 Q977.276 18.6515 980.141 22.1237 Q983.005 25.567 983.005 32.2799 Z" fill="#000000" fill-rule="nonzero" fill-opacity="1" /><path clip-path="url(#clip650)" d="M989.805 19.4328 L995.447 19.4328 L1005.57 46.6317 L1015.7 19.4328 L1021.34 19.4328 L1009.19 51.84 L1001.96 51.84 L989.805 19.4328 Z" fill="#000000" fill-rule="nonzero" fill-opacity="1" /><path clip-path="url(#clip650)" d="M1056.41 34.3054 L1056.41 36.9095 L1031.93 36.9095 Q1032.28 42.4072 1035.23 45.3007 Q1038.21 48.1653 1043.51 48.1653 Q1046.58 48.1653 1049.44 47.4129 Q1052.33 46.6606 1055.17 45.156 L1055.17 50.1907 Q1052.3 51.406 1049.3 52.0425 Q1046.29 52.6791 1043.19 52.6791 Q1035.44 52.6791 1030.89 48.1653 Q1026.38 43.6514 1026.38 35.9547 Q1026.38 27.9975 1030.66 23.339 Q1034.97 18.6515 1042.26 18.6515 Q1048.8 18.6515 1052.59 22.876 Q1056.41 27.0716 1056.41 34.3054 M1051.09 32.7429 Q1051.03 28.3737 1048.63 25.7695 Q1046.26 23.1654 1042.32 23.1654 Q1037.87 23.1654 1035.18 25.6827 Q1032.51 28.2001 1032.11 32.7718 L1051.09 32.7429 Z" fill="#000000" fill-rule="nonzero" fill-opacity="1" /><path clip-path="url(#clip650)" d="M1083.93 24.4096 Q1083.03 23.8888 1081.96 23.6573 Q1080.92 23.3969 1079.65 23.3969 Q1075.13 23.3969 1072.7 26.3482 Q1070.3 29.2707 1070.3 34.7683 L1070.3 51.84 L1064.95 51.84 L1064.95 19.4328 L1070.3 19.4328 L1070.3 24.4675 Q1071.98 21.5161 1074.67 20.0983 Q1077.36 18.6515 1081.21 18.6515 Q1081.76 18.6515 1082.43 18.7383 Q1083.09 18.7962 1083.9 18.9409 L1083.93 24.4096 Z" fill="#000000" fill-rule="nonzero" fill-opacity="1" /><path clip-path="url(#clip650)" d="M1109.8 35.2602 Q1109.8 29.4732 1107.4 26.2904 Q1105.02 23.1075 1100.71 23.1075 Q1096.43 23.1075 1094.03 26.2904 Q1091.66 29.4732 1091.66 35.2602 Q1091.66 41.0183 1094.03 44.2012 Q1096.43 47.384 1100.71 47.384 Q1105.02 47.384 1107.4 44.2012 Q1109.8 41.0183 1109.8 35.2602 M1115.12 47.818 Q1115.12 56.0934 1111.45 60.1154 Q1107.77 64.1663 1100.19 64.1663 Q1097.39 64.1663 1094.9 63.7323 Q1092.41 63.3272 1090.07 62.4592 L1090.07 57.2798 Q1092.41 58.5529 1094.69 59.1606 Q1096.98 59.7682 1099.35 59.7682 Q1104.59 59.7682 1107.19 57.0194 Q1109.8 54.2995 1109.8 48.7729 L1109.8 46.1398 Q1108.15 49.0044 1105.57 50.4222 Q1103 51.84 1099.41 51.84 Q1093.45 51.84 1089.8 47.2972 Q1086.16 42.7544 1086.16 35.2602 Q1086.16 27.7371 1089.8 23.1943 Q1093.45 18.6515 1099.41 18.6515 Q1103 18.6515 1105.57 20.0693 Q1108.15 21.4872 1109.8 24.3517 L1109.8 19.4328 L1115.12 19.4328 L1115.12 47.818 Z" fill="#000000" fill-rule="nonzero" fill-opacity="1" /><path clip-path="url(#clip650)" d="M1153.81 34.3054 L1153.81 36.9095 L1129.33 36.9095 Q1129.68 42.4072 1132.63 45.3007 Q1135.61 48.1653 1140.9 48.1653 Q1143.97 48.1653 1146.84 47.4129 Q1149.73 46.6606 1152.56 45.156 L1152.56 50.1907 Q1149.7 51.406 1146.69 52.0425 Q1143.68 52.6791 1140.59 52.6791 Q1132.83 52.6791 1128.29 48.1653 Q1123.77 43.6514 1123.77 35.9547 Q1123.77 27.9975 1128.06 23.339 Q1132.37 18.6515 1139.66 18.6515 Q1146.2 18.6515 1149.99 22.876 Q1153.81 27.0716 1153.81 34.3054 M1148.48 32.7429 Q1148.43 28.3737 1146.03 25.7695 Q1143.65 23.1654 1139.72 23.1654 Q1135.26 23.1654 1132.57 25.6827 Q1129.91 28.2001 1129.5 32.7718 L1148.48 32.7429 Z" fill="#000000" fill-rule="nonzero" fill-opacity="1" /><path clip-path="url(#clip650)" d="M1189.49 32.2799 L1189.49 51.84 L1184.16 51.84 L1184.16 32.4535 Q1184.16 27.8529 1182.37 25.567 Q1180.57 23.2811 1176.99 23.2811 Q1172.67 23.2811 1170.19 26.03 Q1167.7 28.7788 1167.7 33.5241 L1167.7 51.84 L1162.34 51.84 L1162.34 19.4328 L1167.7 19.4328 L1167.7 24.4675 Q1169.61 21.545 1172.18 20.0983 Q1174.79 18.6515 1178.17 18.6515 Q1183.76 18.6515 1186.62 22.1237 Q1189.49 25.567 1189.49 32.2799 Z" fill="#000000" fill-rule="nonzero" fill-opacity="1" /><path clip-path="url(#clip650)" d="M1223.43 20.677 L1223.43 25.6538 Q1221.17 24.4096 1218.88 23.802 Q1216.63 23.1654 1214.31 23.1654 Q1209.13 23.1654 1206.27 26.464 Q1203.4 29.7336 1203.4 35.6653 Q1203.4 41.597 1206.27 44.8956 Q1209.13 48.1653 1214.31 48.1653 Q1216.63 48.1653 1218.88 47.5576 Q1221.17 46.921 1223.43 45.6768 L1223.43 50.5958 Q1221.2 51.6375 1218.8 52.1583 Q1216.42 52.6791 1213.73 52.6791 Q1206.41 52.6791 1202.1 48.0784 Q1197.79 43.4778 1197.79 35.6653 Q1197.79 27.7371 1202.13 23.1943 Q1206.5 18.6515 1214.08 18.6515 Q1216.54 18.6515 1218.88 19.1724 Q1221.23 19.6642 1223.43 20.677 Z" fill="#000000" fill-rule="nonzero" fill-opacity="1" /><path clip-path="url(#clip650)" d="M1260.41 34.3054 L1260.41 36.9095 L1235.93 36.9095 Q1236.27 42.4072 1239.23 45.3007 Q1242.21 48.1653 1247.5 48.1653 Q1250.57 48.1653 1253.43 47.4129 Q1256.33 46.6606 1259.16 45.156 L1259.16 50.1907 Q1256.3 51.406 1253.29 52.0425 Q1250.28 52.6791 1247.18 52.6791 Q1239.43 52.6791 1234.88 48.1653 Q1230.37 43.6514 1230.37 35.9547 Q1230.37 27.9975 1234.65 23.339 Q1238.96 18.6515 1246.26 18.6515 Q1252.8 18.6515 1256.59 22.876 Q1260.41 27.0716 1260.41 34.3054 M1255.08 32.7429 Q1255.02 28.3737 1252.62 25.7695 Q1250.25 23.1654 1246.31 23.1654 Q1241.86 23.1654 1239.17 25.6827 Q1236.51 28.2001 1236.1 32.7718 L1255.08 32.7429 Z" fill="#000000" fill-rule="nonzero" fill-opacity="1" /><path clip-path="url(#clip650)" d="M1300.77 6.87496 Q1296.89 13.53 1295.01 20.0404 Q1293.13 26.5508 1293.13 33.2348 Q1293.13 39.9188 1295.01 46.487 Q1296.92 53.0263 1300.77 59.6525 L1296.14 59.6525 Q1291.8 52.8527 1289.63 46.2845 Q1287.49 39.7162 1287.49 33.2348 Q1287.49 26.7823 1289.63 20.2429 Q1291.77 13.7036 1296.14 6.87496 L1300.77 6.87496 Z" fill="#000000" fill-rule="nonzero" fill-opacity="1" /><path clip-path="url(#clip650)" d="M1343.68 11.9675 L1343.68 18.1307 Q1340.73 15.3819 1337.37 14.0219 Q1334.05 12.662 1330.28 12.662 Q1322.88 12.662 1318.94 17.2048 Q1315.01 21.7186 1315.01 30.2834 Q1315.01 38.8192 1318.94 43.362 Q1322.88 47.8759 1330.28 47.8759 Q1334.05 47.8759 1337.37 46.516 Q1340.73 45.156 1343.68 42.4072 L1343.68 48.5125 Q1340.61 50.5958 1337.17 51.6375 Q1333.76 52.6791 1329.94 52.6791 Q1320.13 52.6791 1314.49 46.6896 Q1308.84 40.6711 1308.84 30.2834 Q1308.84 19.8668 1314.49 13.8772 Q1320.13 7.85875 1329.94 7.85875 Q1333.81 7.85875 1337.23 8.90042 Q1340.67 9.91314 1343.68 11.9675 Z" fill="#000000" fill-rule="nonzero" fill-opacity="1" /><path clip-path="url(#clip650)" d="M1352.71 8.64 L1358.55 8.64 L1358.55 26.3482 L1379.79 26.3482 L1379.79 8.64 L1385.64 8.64 L1385.64 51.84 L1379.79 51.84 L1379.79 31.2672 L1358.55 31.2672 L1358.55 51.84 L1352.71 51.84 L1352.71 8.64 Z" fill="#000000" fill-rule="nonzero" fill-opacity="1" /><path clip-path="url(#clip650)" d="M1397.27 8.64 L1405.98 8.64 L1417 38.038 L1428.08 8.64 L1436.79 8.64 L1436.79 51.84 L1431.09 51.84 L1431.09 13.9062 L1419.95 43.5356 L1414.08 43.5356 L1402.94 13.9062 L1402.94 51.84 L1397.27 51.84 L1397.27 8.64 Z" fill="#000000" fill-rule="nonzero" fill-opacity="1" /><path clip-path="url(#clip650)" d="M1448.4 8.64 L1457.11 8.64 L1468.13 38.038 L1479.21 8.64 L1487.92 8.64 L1487.92 51.84 L1482.22 51.84 L1482.22 13.9062 L1471.08 43.5356 L1465.21 43.5356 L1454.07 13.9062 L1454.07 51.84 L1448.4 51.84 L1448.4 8.64 Z" fill="#000000" fill-rule="nonzero" fill-opacity="1" /><path clip-path="url(#clip650)" d="M1496.6 33.2348 L1512.2 33.2348 L1512.2 37.9801 L1496.6 37.9801 L1496.6 33.2348 Z" fill="#000000" fill-rule="nonzero" fill-opacity="1" /><path clip-path="url(#clip650)" d="M1520.91 8.64 L1528.78 8.64 L1547.93 44.7799 L1547.93 8.64 L1553.6 8.64 L1553.6 51.84 L1545.73 51.84 L1526.58 15.7001 L1526.58 51.84 L1520.91 51.84 L1520.91 8.64 Z" fill="#000000" fill-rule="nonzero" fill-opacity="1" /><path clip-path="url(#clip650)" d="M1566.36 44.4905 L1572.47 44.4905 L1572.47 49.4673 L1567.72 58.7265 L1563.99 58.7265 L1566.36 49.4673 L1566.36 44.4905 Z" fill="#000000" fill-rule="nonzero" fill-opacity="1" /><path clip-path="url(#clip650)" d="M1602.91 8.64 L1608.75 8.64 L1608.75 26.898 L1628.14 8.64 L1635.66 8.64 L1614.22 28.7788 L1637.2 51.84 L1629.5 51.84 L1608.75 31.0357 L1608.75 51.84 L1602.91 51.84 L1602.91 8.64 Z" fill="#000000" fill-rule="nonzero" fill-opacity="1" /><path clip-path="url(#clip650)" d="M1642.23 24.9304 L1679.33 24.9304 L1679.33 29.7915 L1642.23 29.7915 L1642.23 24.9304 M1642.23 36.7359 L1679.33 36.7359 L1679.33 41.6549 L1642.23 41.6549 L1642.23 36.7359 Z" fill="#000000" fill-rule="nonzero" fill-opacity="1" /><path clip-path="url(#clip650)" d="M1692.96 46.921 L1702.5 46.921 L1702.5 13.964 L1692.12 16.0474 L1692.12 10.7233 L1702.45 8.64 L1708.29 8.64 L1708.29 46.921 L1717.84 46.921 L1717.84 51.84 L1692.96 51.84 L1692.96 46.921 Z" fill="#000000" fill-rule="nonzero" fill-opacity="1" /><path clip-path="url(#clip650)" d="M1742.14 31.3251 Q1737.98 31.3251 1735.58 33.5531 Q1733.2 35.7811 1733.2 39.6873 Q1733.2 43.5935 1735.58 45.8215 Q1737.98 48.0495 1742.14 48.0495 Q1746.31 48.0495 1748.71 45.8215 Q1751.11 43.5646 1751.11 39.6873 Q1751.11 35.7811 1748.71 33.5531 Q1746.34 31.3251 1742.14 31.3251 M1736.3 28.8367 Q1732.54 27.9107 1730.43 25.3355 Q1728.34 22.7603 1728.34 19.0566 Q1728.34 13.8772 1732.02 10.868 Q1735.72 7.85875 1742.14 7.85875 Q1748.6 7.85875 1752.27 10.868 Q1755.95 13.8772 1755.95 19.0566 Q1755.95 22.7603 1753.83 25.3355 Q1751.75 27.9107 1748.02 28.8367 Q1752.24 29.8204 1754.59 32.685 Q1756.96 35.5496 1756.96 39.6873 Q1756.96 45.9662 1753.11 49.3227 Q1749.29 52.6791 1742.14 52.6791 Q1735 52.6791 1731.15 49.3227 Q1727.33 45.9662 1727.33 39.6873 Q1727.33 35.5496 1729.7 32.685 Q1732.08 29.8204 1736.3 28.8367 M1734.16 19.6064 Q1734.16 22.9628 1736.24 24.8436 Q1738.35 26.7244 1742.14 26.7244 Q1745.91 26.7244 1748.02 24.8436 Q1750.16 22.9628 1750.16 19.6064 Q1750.16 16.2499 1748.02 14.3691 Q1745.91 12.4884 1742.14 12.4884 Q1738.35 12.4884 1736.24 14.3691 Q1734.16 16.2499 1734.16 19.6064 Z" fill="#000000" fill-rule="nonzero" fill-opacity="1" /><path clip-path="url(#clip650)" d="M1765.76 6.87496 L1770.39 6.87496 Q1774.73 13.7036 1776.87 20.2429 Q1779.04 26.7823 1779.04 33.2348 Q1779.04 39.7162 1776.87 46.2845 Q1774.73 52.8527 1770.39 59.6525 L1765.76 59.6525 Q1769.6 53.0263 1771.48 46.487 Q1773.39 39.9188 1773.39 33.2348 Q1773.39 26.5508 1771.48 20.0404 Q1769.6 13.53 1765.76 6.87496 Z" fill="#000000" fill-rule="nonzero" fill-opacity="1" /><polyline clip-path="url(#clip652)" style="stroke:#000080; stroke-linecap:round; stroke-linejoin:round; stroke-width:8; stroke-opacity:1; fill:none" points="360.486,1385.91 393.269,761.129 426.053,655.674 458.837,598.457 491.621,558.19 524.405,525.9 557.188,497.994 589.972,472.805 622.756,449.49 655.54,427.621 688.323,407.031 721.107,387.708 753.891,369.662 786.675,352.742 819.459,336.536 852.242,320.525 885.026,304.659 917.81,289.838 950.594,277.032 983.377,266.391 1016.16,257.578 1048.95,250.172 1081.73,243.811 1114.51,238.243 1147.3,233.325 1180.08,228.965 1212.86,225.074 1245.65,221.566 1278.43,218.369 1311.22,215.424 1344,212.682 1376.78,210.101 1409.57,207.642 1442.35,205.269 1475.13,202.948 1507.92,200.65 1540.7,198.348 1573.49,196.019 1606.27,193.641 1639.05,191.195 1671.84,188.664 1704.62,186.03 1737.4,183.276 1770.19,180.387 1802.97,177.355 1835.76,174.186 1868.54,170.924 1901.32,167.651 1934.11,164.465 1966.89,161.448 1999.67,158.65 2032.46,156.101 2065.24,153.81 2098.03,151.773 2130.81,149.972 2163.59,148.382 2196.38,146.971 2229.16,145.704 2261.94,144.547 2294.73,143.465 "/>
<circle clip-path="url(#clip652)" cx="360.486" cy="1385.91" r="10.8" fill="#000080" fill-rule="evenodd" fill-opacity="1" stroke="#000000" stroke-opacity="1" stroke-width="3.2"/>
<circle clip-path="url(#clip652)" cx="393.269" cy="761.129" r="10.8" fill="#000080" fill-rule="evenodd" fill-opacity="1" stroke="#000000" stroke-opacity="1" stroke-width="3.2"/>
<circle clip-path="url(#clip652)" cx="426.053" cy="655.674" r="10.8" fill="#000080" fill-rule="evenodd" fill-opacity="1" stroke="#000000" stroke-opacity="1" stroke-width="3.2"/>
<circle clip-path="url(#clip652)" cx="458.837" cy="598.457" r="10.8" fill="#000080" fill-rule="evenodd" fill-opacity="1" stroke="#000000" stroke-opacity="1" stroke-width="3.2"/>
<circle clip-path="url(#clip652)" cx="491.621" cy="558.19" r="10.8" fill="#000080" fill-rule="evenodd" fill-opacity="1" stroke="#000000" stroke-opacity="1" stroke-width="3.2"/>
<circle clip-path="url(#clip652)" cx="524.405" cy="525.9" r="10.8" fill="#000080" fill-rule="evenodd" fill-opacity="1" stroke="#000000" stroke-opacity="1" stroke-width="3.2"/>
<circle clip-path="url(#clip652)" cx="557.188" cy="497.994" r="10.8" fill="#000080" fill-rule="evenodd" fill-opacity="1" stroke="#000000" stroke-opacity="1" stroke-width="3.2"/>
<circle clip-path="url(#clip652)" cx="589.972" cy="472.805" r="10.8" fill="#000080" fill-rule="evenodd" fill-opacity="1" stroke="#000000" stroke-opacity="1" stroke-width="3.2"/>
<circle clip-path="url(#clip652)" cx="622.756" cy="449.49" r="10.8" fill="#000080" fill-rule="evenodd" fill-opacity="1" stroke="#000000" stroke-opacity="1" stroke-width="3.2"/>
<circle clip-path="url(#clip652)" cx="655.54" cy="427.621" r="10.8" fill="#000080" fill-rule="evenodd" fill-opacity="1" stroke="#000000" stroke-opacity="1" stroke-width="3.2"/>
<circle clip-path="url(#clip652)" cx="688.323" cy="407.031" r="10.8" fill="#000080" fill-rule="evenodd" fill-opacity="1" stroke="#000000" stroke-opacity="1" stroke-width="3.2"/>
<circle clip-path="url(#clip652)" cx="721.107" cy="387.708" r="10.8" fill="#000080" fill-rule="evenodd" fill-opacity="1" stroke="#000000" stroke-opacity="1" stroke-width="3.2"/>
<circle clip-path="url(#clip652)" cx="753.891" cy="369.662" r="10.8" fill="#000080" fill-rule="evenodd" fill-opacity="1" stroke="#000000" stroke-opacity="1" stroke-width="3.2"/>
<circle clip-path="url(#clip652)" cx="786.675" cy="352.742" r="10.8" fill="#000080" fill-rule="evenodd" fill-opacity="1" stroke="#000000" stroke-opacity="1" stroke-width="3.2"/>
<circle clip-path="url(#clip652)" cx="819.459" cy="336.536" r="10.8" fill="#000080" fill-rule="evenodd" fill-opacity="1" stroke="#000000" stroke-opacity="1" stroke-width="3.2"/>
<circle clip-path="url(#clip652)" cx="852.242" cy="320.525" r="10.8" fill="#000080" fill-rule="evenodd" fill-opacity="1" stroke="#000000" stroke-opacity="1" stroke-width="3.2"/>
<circle clip-path="url(#clip652)" cx="885.026" cy="304.659" r="10.8" fill="#000080" fill-rule="evenodd" fill-opacity="1" stroke="#000000" stroke-opacity="1" stroke-width="3.2"/>
<circle clip-path="url(#clip652)" cx="917.81" cy="289.838" r="10.8" fill="#000080" fill-rule="evenodd" fill-opacity="1" stroke="#000000" stroke-opacity="1" stroke-width="3.2"/>
<circle clip-path="url(#clip652)" cx="950.594" cy="277.032" r="10.8" fill="#000080" fill-rule="evenodd" fill-opacity="1" stroke="#000000" stroke-opacity="1" stroke-width="3.2"/>
<circle clip-path="url(#clip652)" cx="983.377" cy="266.391" r="10.8" fill="#000080" fill-rule="evenodd" fill-opacity="1" stroke="#000000" stroke-opacity="1" stroke-width="3.2"/>
<circle clip-path="url(#clip652)" cx="1016.16" cy="257.578" r="10.8" fill="#000080" fill-rule="evenodd" fill-opacity="1" stroke="#000000" stroke-opacity="1" stroke-width="3.2"/>
<circle clip-path="url(#clip652)" cx="1048.95" cy="250.172" r="10.8" fill="#000080" fill-rule="evenodd" fill-opacity="1" stroke="#000000" stroke-opacity="1" stroke-width="3.2"/>
<circle clip-path="url(#clip652)" cx="1081.73" cy="243.811" r="10.8" fill="#000080" fill-rule="evenodd" fill-opacity="1" stroke="#000000" stroke-opacity="1" stroke-width="3.2"/>
<circle clip-path="url(#clip652)" cx="1114.51" cy="238.243" r="10.8" fill="#000080" fill-rule="evenodd" fill-opacity="1" stroke="#000000" stroke-opacity="1" stroke-width="3.2"/>
<circle clip-path="url(#clip652)" cx="1147.3" cy="233.325" r="10.8" fill="#000080" fill-rule="evenodd" fill-opacity="1" stroke="#000000" stroke-opacity="1" stroke-width="3.2"/>
<circle clip-path="url(#clip652)" cx="1180.08" cy="228.965" r="10.8" fill="#000080" fill-rule="evenodd" fill-opacity="1" stroke="#000000" stroke-opacity="1" stroke-width="3.2"/>
<circle clip-path="url(#clip652)" cx="1212.86" cy="225.074" r="10.8" fill="#000080" fill-rule="evenodd" fill-opacity="1" stroke="#000000" stroke-opacity="1" stroke-width="3.2"/>
<circle clip-path="url(#clip652)" cx="1245.65" cy="221.566" r="10.8" fill="#000080" fill-rule="evenodd" fill-opacity="1" stroke="#000000" stroke-opacity="1" stroke-width="3.2"/>
<circle clip-path="url(#clip652)" cx="1278.43" cy="218.369" r="10.8" fill="#000080" fill-rule="evenodd" fill-opacity="1" stroke="#000000" stroke-opacity="1" stroke-width="3.2"/>
<circle clip-path="url(#clip652)" cx="1311.22" cy="215.424" r="10.8" fill="#000080" fill-rule="evenodd" fill-opacity="1" stroke="#000000" stroke-opacity="1" stroke-width="3.2"/>
<circle clip-path="url(#clip652)" cx="1344" cy="212.682" r="10.8" fill="#000080" fill-rule="evenodd" fill-opacity="1" stroke="#000000" stroke-opacity="1" stroke-width="3.2"/>
<circle clip-path="url(#clip652)" cx="1376.78" cy="210.101" r="10.8" fill="#000080" fill-rule="evenodd" fill-opacity="1" stroke="#000000" stroke-opacity="1" stroke-width="3.2"/>
<circle clip-path="url(#clip652)" cx="1409.57" cy="207.642" r="10.8" fill="#000080" fill-rule="evenodd" fill-opacity="1" stroke="#000000" stroke-opacity="1" stroke-width="3.2"/>
<circle clip-path="url(#clip652)" cx="1442.35" cy="205.269" r="10.8" fill="#000080" fill-rule="evenodd" fill-opacity="1" stroke="#000000" stroke-opacity="1" stroke-width="3.2"/>
<circle clip-path="url(#clip652)" cx="1475.13" cy="202.948" r="10.8" fill="#000080" fill-rule="evenodd" fill-opacity="1" stroke="#000000" stroke-opacity="1" stroke-width="3.2"/>
<circle clip-path="url(#clip652)" cx="1507.92" cy="200.65" r="10.8" fill="#000080" fill-rule="evenodd" fill-opacity="1" stroke="#000000" stroke-opacity="1" stroke-width="3.2"/>
<circle clip-path="url(#clip652)" cx="1540.7" cy="198.348" r="10.8" fill="#000080" fill-rule="evenodd" fill-opacity="1" stroke="#000000" stroke-opacity="1" stroke-width="3.2"/>
<circle clip-path="url(#clip652)" cx="1573.49" cy="196.019" r="10.8" fill="#000080" fill-rule="evenodd" fill-opacity="1" stroke="#000000" stroke-opacity="1" stroke-width="3.2"/>
<circle clip-path="url(#clip652)" cx="1606.27" cy="193.641" r="10.8" fill="#000080" fill-rule="evenodd" fill-opacity="1" stroke="#000000" stroke-opacity="1" stroke-width="3.2"/>
<circle clip-path="url(#clip652)" cx="1639.05" cy="191.195" r="10.8" fill="#000080" fill-rule="evenodd" fill-opacity="1" stroke="#000000" stroke-opacity="1" stroke-width="3.2"/>
<circle clip-path="url(#clip652)" cx="1671.84" cy="188.664" r="10.8" fill="#000080" fill-rule="evenodd" fill-opacity="1" stroke="#000000" stroke-opacity="1" stroke-width="3.2"/>
<circle clip-path="url(#clip652)" cx="1704.62" cy="186.03" r="10.8" fill="#000080" fill-rule="evenodd" fill-opacity="1" stroke="#000000" stroke-opacity="1" stroke-width="3.2"/>
<circle clip-path="url(#clip652)" cx="1737.4" cy="183.276" r="10.8" fill="#000080" fill-rule="evenodd" fill-opacity="1" stroke="#000000" stroke-opacity="1" stroke-width="3.2"/>
<circle clip-path="url(#clip652)" cx="1770.19" cy="180.387" r="10.8" fill="#000080" fill-rule="evenodd" fill-opacity="1" stroke="#000000" stroke-opacity="1" stroke-width="3.2"/>
<circle clip-path="url(#clip652)" cx="1802.97" cy="177.355" r="10.8" fill="#000080" fill-rule="evenodd" fill-opacity="1" stroke="#000000" stroke-opacity="1" stroke-width="3.2"/>
<circle clip-path="url(#clip652)" cx="1835.76" cy="174.186" r="10.8" fill="#000080" fill-rule="evenodd" fill-opacity="1" stroke="#000000" stroke-opacity="1" stroke-width="3.2"/>
<circle clip-path="url(#clip652)" cx="1868.54" cy="170.924" r="10.8" fill="#000080" fill-rule="evenodd" fill-opacity="1" stroke="#000000" stroke-opacity="1" stroke-width="3.2"/>
<circle clip-path="url(#clip652)" cx="1901.32" cy="167.651" r="10.8" fill="#000080" fill-rule="evenodd" fill-opacity="1" stroke="#000000" stroke-opacity="1" stroke-width="3.2"/>
<circle clip-path="url(#clip652)" cx="1934.11" cy="164.465" r="10.8" fill="#000080" fill-rule="evenodd" fill-opacity="1" stroke="#000000" stroke-opacity="1" stroke-width="3.2"/>
<circle clip-path="url(#clip652)" cx="1966.89" cy="161.448" r="10.8" fill="#000080" fill-rule="evenodd" fill-opacity="1" stroke="#000000" stroke-opacity="1" stroke-width="3.2"/>
<circle clip-path="url(#clip652)" cx="1999.67" cy="158.65" r="10.8" fill="#000080" fill-rule="evenodd" fill-opacity="1" stroke="#000000" stroke-opacity="1" stroke-width="3.2"/>
<circle clip-path="url(#clip652)" cx="2032.46" cy="156.101" r="10.8" fill="#000080" fill-rule="evenodd" fill-opacity="1" stroke="#000000" stroke-opacity="1" stroke-width="3.2"/>
<circle clip-path="url(#clip652)" cx="2065.24" cy="153.81" r="10.8" fill="#000080" fill-rule="evenodd" fill-opacity="1" stroke="#000000" stroke-opacity="1" stroke-width="3.2"/>
<circle clip-path="url(#clip652)" cx="2098.03" cy="151.773" r="10.8" fill="#000080" fill-rule="evenodd" fill-opacity="1" stroke="#000000" stroke-opacity="1" stroke-width="3.2"/>
<circle clip-path="url(#clip652)" cx="2130.81" cy="149.972" r="10.8" fill="#000080" fill-rule="evenodd" fill-opacity="1" stroke="#000000" stroke-opacity="1" stroke-width="3.2"/>
<circle clip-path="url(#clip652)" cx="2163.59" cy="148.382" r="10.8" fill="#000080" fill-rule="evenodd" fill-opacity="1" stroke="#000000" stroke-opacity="1" stroke-width="3.2"/>
<circle clip-path="url(#clip652)" cx="2196.38" cy="146.971" r="10.8" fill="#000080" fill-rule="evenodd" fill-opacity="1" stroke="#000000" stroke-opacity="1" stroke-width="3.2"/>
<circle clip-path="url(#clip652)" cx="2229.16" cy="145.704" r="10.8" fill="#000080" fill-rule="evenodd" fill-opacity="1" stroke="#000000" stroke-opacity="1" stroke-width="3.2"/>
<circle clip-path="url(#clip652)" cx="2261.94" cy="144.547" r="10.8" fill="#000080" fill-rule="evenodd" fill-opacity="1" stroke="#000000" stroke-opacity="1" stroke-width="3.2"/>
<circle clip-path="url(#clip652)" cx="2294.73" cy="143.465" r="10.8" fill="#000080" fill-rule="evenodd" fill-opacity="1" stroke="#000000" stroke-opacity="1" stroke-width="3.2"/>
</svg>
