<?xml version="1.0" encoding="utf-8"?>
<svg xmlns="http://www.w3.org/2000/svg" xmlns:xlink="http://www.w3.org/1999/xlink" width="600" height="400" viewBox="0 0 2400 1600">
<defs>
  <clipPath id="clip890">
    <rect x="0" y="0" width="2400" height="1600"/>
  </clipPath>
</defs>
<path clip-path="url(#clip890)" d="M0 1600 L2400 1600 L2400 8.88178e-14 L0 8.88178e-14  Z" fill="#ffffff" fill-rule="evenodd" fill-opacity="1"/>
<defs>
  <clipPath id="clip891">
    <rect x="249" y="106" width="2104" height="1318"/>
  </clipPath>
</defs>
<path clip-path="url(#clip890)" d="M175.445 1423.18 L2352.76 1423.18 L2352.76 106.192 L175.445 106.192  Z" fill="#ffffff" fill-rule="evenodd" fill-opacity="1"/>
<defs>
  <clipPath id="clip892">
    <rect x="175" y="106" width="2178" height="1318"/>
  </clipPath>
</defs>
<polyline clip-path="url(#clip892)" style="stroke:#000000; stroke-linecap:round; stroke-linejoin:round; stroke-width:2; stroke-opacity:0.1; fill:none" points="229.882,1423.18 229.882,106.192 "/>
<polyline clip-path="url(#clip892)" style="stroke:#000000; stroke-linecap:round; stroke-linejoin:round; stroke-width:2; stroke-opacity:0.1; fill:none" points="774.208,1423.18 774.208,106.192 "/>
<polyline clip-path="url(#clip892)" style="stroke:#000000; stroke-linecap:round; stroke-linejoin:round; stroke-width:2; stroke-opacity:0.1; fill:none" points="1318.53,1423.18 1318.53,106.192 "/>
<polyline clip-path="url(#clip892)" style="stroke:#000000; stroke-linecap:round; stroke-linejoin:round; stroke-width:2; stroke-opacity:0.1; fill:none" points="1862.86,1423.18 1862.86,106.192 "/>
<polyline clip-path="url(#clip892)" style="stroke:#000000; stroke-linecap:round; stroke-linejoin:round; stroke-width:2; stroke-opacity:0.1; fill:none" points="175.445,1423.18 2352.76,1423.18 "/>
<polyline clip-path="url(#clip892)" style="stroke:#000000; stroke-linecap:round; stroke-linejoin:round; stroke-width:2; stroke-opacity:0.1; fill:none" points="175.445,1193.4 2352.76,1193.4 "/>
<polyline clip-path="url(#clip892)" style="stroke:#000000; stroke-linecap:round; stroke-linejoin:round; stroke-width:2; stroke-opacity:0.1; fill:none" points="175.445,963.616 2352.76,963.616 "/>
<polyline clip-path="url(#clip892)" style="stroke:#000000; stroke-linecap:round; stroke-linejoin:round; stroke-width:2; stroke-opacity:0.1; fill:none" points="175.445,733.834 2352.76,733.834 "/>
<polyline clip-path="url(#clip892)" style="stroke:#000000; stroke-linecap:round; stroke-linejoin:round; stroke-width:2; stroke-opacity:0.1; fill:none" points="175.445,504.052 2352.76,504.052 "/>
<polyline clip-path="url(#clip892)" style="stroke:#000000; stroke-linecap:round; stroke-linejoin:round; stroke-width:2; stroke-opacity:0.1; fill:none" points="175.445,274.271 2352.76,274.271 "/>
<polyline clip-path="url(#clip890)" style="stroke:#000000; stroke-linecap:round; stroke-linejoin:round; stroke-width:4; stroke-opacity:1; fill:none" points="175.445,1423.18 2352.76,1423.18 "/>
<polyline clip-path="url(#clip890)" style="stroke:#000000; stroke-linecap:round; stroke-linejoin:round; stroke-width:4; stroke-opacity:1; fill:none" points="229.882,1423.18 229.882,1404.28 "/>
<polyline clip-path="url(#clip890)" style="stroke:#000000; stroke-linecap:round; stroke-linejoin:round; stroke-width:4; stroke-opacity:1; fill:none" points="774.208,1423.18 774.208,1404.28 "/>
<polyline clip-path="url(#clip890)" style="stroke:#000000; stroke-linecap:round; stroke-linejoin:round; stroke-width:4; stroke-opacity:1; fill:none" points="1318.53,1423.18 1318.53,1404.28 "/>
<polyline clip-path="url(#clip890)" style="stroke:#000000; stroke-linecap:round; stroke-linejoin:round; stroke-width:4; stroke-opacity:1; fill:none" points="1862.86,1423.18 1862.86,1404.28 "/>
<path clip-path="url(#clip890)" d="M229.882 1454.1 Q226.271 1454.1 224.442 1457.66 Q222.637 1461.2 222.637 1468.33 Q222.637 1475.44 224.442 1479.01 Q226.271 1482.55 229.882 1482.55 Q233.516 1482.55 235.322 1479.01 Q237.151 1475.44 237.151 1468.33 Q237.151 1461.2 235.322 1457.66 Q233.516 1454.1 229.882 1454.1 M229.882 1450.39 Q235.692 1450.39 238.748 1455 Q241.826 1459.58 241.826 1468.33 Q241.826 1477.06 238.748 1481.67 Q235.692 1486.25 229.882 1486.25 Q224.072 1486.25 220.993 1481.67 Q217.938 1477.06 217.938 1468.33 Q217.938 1459.58 220.993 1455 Q224.072 1450.39 229.882 1450.39 Z" fill="#000000" fill-rule="nonzero" fill-opacity="1" /><path clip-path="url(#clip890)" d="M764.485 1451.02 L782.842 1451.02 L782.842 1454.96 L768.768 1454.96 L768.768 1463.43 Q769.786 1463.08 770.805 1462.92 Q771.823 1462.73 772.842 1462.73 Q778.629 1462.73 782.008 1465.9 Q785.388 1469.08 785.388 1474.49 Q785.388 1480.07 781.916 1483.17 Q778.444 1486.25 772.124 1486.25 Q769.948 1486.25 767.68 1485.88 Q765.435 1485.51 763.027 1484.77 L763.027 1480.07 Q765.11 1481.2 767.333 1481.76 Q769.555 1482.32 772.032 1482.32 Q776.036 1482.32 778.374 1480.21 Q780.712 1478.1 780.712 1474.49 Q780.712 1470.88 778.374 1468.77 Q776.036 1466.67 772.032 1466.67 Q770.157 1466.67 768.282 1467.08 Q766.43 1467.5 764.485 1468.38 L764.485 1451.02 Z" fill="#000000" fill-rule="nonzero" fill-opacity="1" /><path clip-path="url(#clip890)" d="M1293.22 1481.64 L1300.86 1481.64 L1300.86 1455.28 L1292.55 1456.95 L1292.55 1452.69 L1300.81 1451.02 L1305.49 1451.02 L1305.49 1481.64 L1313.13 1481.64 L1313.13 1485.58 L1293.22 1485.58 L1293.22 1481.64 Z" fill="#000000" fill-rule="nonzero" fill-opacity="1" /><path clip-path="url(#clip890)" d="M1332.57 1454.1 Q1328.96 1454.1 1327.13 1457.66 Q1325.33 1461.2 1325.33 1468.33 Q1325.33 1475.44 1327.13 1479.01 Q1328.96 1482.55 1332.57 1482.55 Q1336.21 1482.55 1338.01 1479.01 Q1339.84 1475.44 1339.84 1468.33 Q1339.84 1461.2 1338.01 1457.66 Q1336.21 1454.1 1332.57 1454.1 M1332.57 1450.39 Q1338.38 1450.39 1341.44 1455 Q1344.52 1459.58 1344.52 1468.33 Q1344.52 1477.06 1341.44 1481.67 Q1338.38 1486.25 1332.57 1486.25 Q1326.76 1486.25 1323.68 1481.67 Q1320.63 1477.06 1320.63 1468.33 Q1320.63 1459.58 1323.68 1455 Q1326.76 1450.39 1332.57 1450.39 Z" fill="#000000" fill-rule="nonzero" fill-opacity="1" /><path clip-path="url(#clip890)" d="M1838.04 1481.64 L1845.68 1481.64 L1845.68 1455.28 L1837.37 1456.95 L1837.37 1452.69 L1845.64 1451.02 L1850.31 1451.02 L1850.31 1481.64 L1857.95 1481.64 L1857.95 1485.58 L1838.04 1485.58 L1838.04 1481.64 Z" fill="#000000" fill-rule="nonzero" fill-opacity="1" /><path clip-path="url(#clip890)" d="M1867.44 1451.02 L1885.8 1451.02 L1885.8 1454.96 L1871.72 1454.96 L1871.72 1463.43 Q1872.74 1463.08 1873.76 1462.92 Q1874.78 1462.73 1875.8 1462.73 Q1881.59 1462.73 1884.96 1465.9 Q1888.34 1469.08 1888.34 1474.49 Q1888.34 1480.07 1884.87 1483.17 Q1881.4 1486.25 1875.08 1486.25 Q1872.9 1486.25 1870.64 1485.88 Q1868.39 1485.51 1865.98 1484.77 L1865.98 1480.07 Q1868.07 1481.2 1870.29 1481.76 Q1872.51 1482.32 1874.99 1482.32 Q1878.99 1482.32 1881.33 1480.21 Q1883.67 1478.1 1883.67 1474.49 Q1883.67 1470.88 1881.33 1468.77 Q1878.99 1466.67 1874.99 1466.67 Q1873.11 1466.67 1871.24 1467.08 Q1869.39 1467.5 1867.44 1468.38 L1867.44 1451.02 Z" fill="#000000" fill-rule="nonzero" fill-opacity="1" /><path clip-path="url(#clip890)" d="M1212.3 1522.08 L1212.3 1528.35 Q1208.64 1526.6 1205.39 1525.74 Q1202.15 1524.88 1199.12 1524.88 Q1193.87 1524.88 1191.01 1526.92 Q1188.17 1528.96 1188.17 1532.71 Q1188.17 1535.87 1190.05 1537.49 Q1191.96 1539.08 1197.24 1540.07 L1201.13 1540.86 Q1208.32 1542.23 1211.73 1545.7 Q1215.16 1549.14 1215.16 1554.93 Q1215.16 1561.84 1210.52 1565.4 Q1205.9 1568.97 1196.96 1568.97 Q1193.58 1568.97 1189.77 1568.2 Q1185.98 1567.44 1181.9 1565.94 L1181.9 1559.32 Q1185.82 1561.52 1189.57 1562.63 Q1193.33 1563.75 1196.96 1563.75 Q1202.46 1563.75 1205.46 1561.58 Q1208.45 1559.42 1208.45 1555.41 Q1208.45 1551.91 1206.28 1549.93 Q1204.15 1547.96 1199.25 1546.97 L1195.34 1546.21 Q1188.14 1544.78 1184.93 1541.72 Q1181.71 1538.67 1181.71 1533.22 Q1181.71 1526.92 1186.14 1523.29 Q1190.59 1519.66 1198.39 1519.66 Q1201.73 1519.66 1205.2 1520.27 Q1208.67 1520.87 1212.3 1522.08 Z" fill="#000000" fill-rule="nonzero" fill-opacity="1" /><path clip-path="url(#clip890)" d="M1230.73 1522.27 L1230.73 1532.4 L1242.79 1532.4 L1242.79 1536.95 L1230.73 1536.95 L1230.73 1556.3 Q1230.73 1560.66 1231.91 1561.9 Q1233.12 1563.14 1236.78 1563.14 L1242.79 1563.14 L1242.79 1568.04 L1236.78 1568.04 Q1230 1568.04 1227.42 1565.53 Q1224.84 1562.98 1224.84 1556.3 L1224.84 1536.95 L1220.54 1536.95 L1220.54 1532.4 L1224.84 1532.4 L1224.84 1522.27 L1230.73 1522.27 Z" fill="#000000" fill-rule="nonzero" fill-opacity="1" /><path clip-path="url(#clip890)" d="M1266.69 1550.12 Q1259.6 1550.12 1256.86 1551.75 Q1254.12 1553.37 1254.12 1557.29 Q1254.12 1560.4 1256.16 1562.25 Q1258.23 1564.07 1261.76 1564.07 Q1266.63 1564.07 1269.56 1560.63 Q1272.52 1557.16 1272.52 1551.43 L1272.52 1550.12 L1266.69 1550.12 M1278.38 1547.71 L1278.38 1568.04 L1272.52 1568.04 L1272.52 1562.63 Q1270.51 1565.88 1267.52 1567.44 Q1264.53 1568.97 1260.2 1568.97 Q1254.73 1568.97 1251.48 1565.91 Q1248.27 1562.82 1248.27 1557.67 Q1248.27 1551.65 1252.28 1548.6 Q1256.32 1545.54 1264.31 1545.54 L1272.52 1545.54 L1272.52 1544.97 Q1272.52 1540.93 1269.85 1538.73 Q1267.2 1536.5 1262.4 1536.5 Q1259.34 1536.5 1256.45 1537.23 Q1253.55 1537.97 1250.88 1539.43 L1250.88 1534.02 Q1254.09 1532.78 1257.11 1532.17 Q1260.14 1531.54 1263 1531.54 Q1270.74 1531.54 1274.56 1535.55 Q1278.38 1539.56 1278.38 1547.71 Z" fill="#000000" fill-rule="nonzero" fill-opacity="1" /><path clip-path="url(#clip890)" d="M1296.23 1522.27 L1296.23 1532.4 L1308.29 1532.4 L1308.29 1536.95 L1296.23 1536.95 L1296.23 1556.3 Q1296.23 1560.66 1297.41 1561.9 Q1298.62 1563.14 1302.28 1563.14 L1308.29 1563.14 L1308.29 1568.04 L1302.28 1568.04 Q1295.5 1568.04 1292.92 1565.53 Q1290.34 1562.98 1290.34 1556.3 L1290.34 1536.95 L1286.05 1536.95 L1286.05 1532.4 L1290.34 1532.4 L1290.34 1522.27 L1296.23 1522.27 Z" fill="#000000" fill-rule="nonzero" fill-opacity="1" /><path clip-path="url(#clip890)" d="M1346.49 1548.76 L1346.49 1551.62 L1319.56 1551.62 Q1319.94 1557.67 1323.19 1560.85 Q1326.47 1564 1332.29 1564 Q1335.67 1564 1338.82 1563.17 Q1342 1562.35 1345.12 1560.69 L1345.12 1566.23 Q1341.97 1567.57 1338.66 1568.27 Q1335.35 1568.97 1331.94 1568.97 Q1323.41 1568.97 1318.42 1564 Q1313.45 1559.04 1313.45 1550.57 Q1313.45 1541.82 1318.16 1536.69 Q1322.9 1531.54 1330.92 1531.54 Q1338.12 1531.54 1342.29 1536.18 Q1346.49 1540.8 1346.49 1548.76 M1340.63 1547.04 Q1340.57 1542.23 1337.93 1539.37 Q1335.32 1536.5 1330.99 1536.5 Q1326.09 1536.5 1323.13 1539.27 Q1320.2 1542.04 1319.75 1547.07 L1340.63 1547.04 Z" fill="#000000" fill-rule="nonzero" fill-opacity="1" /><polyline clip-path="url(#clip890)" style="stroke:#000000; stroke-linecap:round; stroke-linejoin:round; stroke-width:4; stroke-opacity:1; fill:none" points="175.445,1423.18 175.445,106.192 "/>
<polyline clip-path="url(#clip890)" style="stroke:#000000; stroke-linecap:round; stroke-linejoin:round; stroke-width:4; stroke-opacity:1; fill:none" points="175.445,1423.18 194.343,1423.18 "/>
<polyline clip-path="url(#clip890)" style="stroke:#000000; stroke-linecap:round; stroke-linejoin:round; stroke-width:4; stroke-opacity:1; fill:none" points="175.445,1193.4 194.343,1193.4 "/>
<polyline clip-path="url(#clip890)" style="stroke:#000000; stroke-linecap:round; stroke-linejoin:round; stroke-width:4; stroke-opacity:1; fill:none" points="175.445,963.616 194.343,963.616 "/>
<polyline clip-path="url(#clip890)" style="stroke:#000000; stroke-linecap:round; stroke-linejoin:round; stroke-width:4; stroke-opacity:1; fill:none" points="175.445,733.834 194.343,733.834 "/>
<polyline clip-path="url(#clip890)" style="stroke:#000000; stroke-linecap:round; stroke-linejoin:round; stroke-width:4; stroke-opacity:1; fill:none" points="175.445,504.052 194.343,504.052 "/>
<polyline clip-path="url(#clip890)" style="stroke:#000000; stroke-linecap:round; stroke-linejoin:round; stroke-width:4; stroke-opacity:1; fill:none" points="175.445,274.271 194.343,274.271 "/>
<path clip-path="url(#clip890)" d="M127.501 1408.98 Q123.89 1408.98 122.061 1412.54 Q120.255 1416.08 120.255 1423.21 Q120.255 1430.32 122.061 1433.89 Q123.89 1437.43 127.501 1437.43 Q131.135 1437.43 132.941 1433.89 Q134.769 1430.32 134.769 1423.21 Q134.769 1416.08 132.941 1412.54 Q131.135 1408.98 127.501 1408.98 M127.501 1405.27 Q133.311 1405.27 136.367 1409.88 Q139.445 1414.46 139.445 1423.21 Q139.445 1431.94 136.367 1436.55 Q133.311 1441.13 127.501 1441.13 Q121.691 1441.13 118.612 1436.55 Q115.556 1431.94 115.556 1423.21 Q115.556 1414.46 118.612 1409.88 Q121.691 1405.27 127.501 1405.27 Z" fill="#000000" fill-rule="nonzero" fill-opacity="1" /><path clip-path="url(#clip890)" d="M119.538 1206.74 L127.177 1206.74 L127.177 1180.38 L118.867 1182.04 L118.867 1177.78 L127.13 1176.12 L131.806 1176.12 L131.806 1206.74 L139.445 1206.74 L139.445 1210.68 L119.538 1210.68 L119.538 1206.74 Z" fill="#000000" fill-rule="nonzero" fill-opacity="1" /><path clip-path="url(#clip890)" d="M123.126 976.961 L139.445 976.961 L139.445 980.896 L117.501 980.896 L117.501 976.961 Q120.163 974.206 124.746 969.577 Q129.353 964.924 130.533 963.581 Q132.779 961.058 133.658 959.322 Q134.561 957.563 134.561 955.873 Q134.561 953.118 132.617 951.382 Q130.695 949.646 127.593 949.646 Q125.394 949.646 122.941 950.41 Q120.51 951.174 117.732 952.725 L117.732 948.003 Q120.556 946.869 123.01 946.29 Q125.464 945.711 127.501 945.711 Q132.871 945.711 136.066 948.396 Q139.26 951.081 139.26 955.572 Q139.26 957.702 138.45 959.623 Q137.663 961.521 135.556 964.114 Q134.978 964.785 131.876 968.003 Q128.774 971.197 123.126 976.961 Z" fill="#000000" fill-rule="nonzero" fill-opacity="1" /><path clip-path="url(#clip890)" d="M132.316 732.48 Q135.672 733.198 137.547 735.466 Q139.445 737.735 139.445 741.068 Q139.445 746.184 135.927 748.985 Q132.408 751.786 125.927 751.786 Q123.751 751.786 121.436 751.346 Q119.144 750.929 116.691 750.073 L116.691 745.559 Q118.635 746.693 120.95 747.272 Q123.265 747.85 125.788 747.85 Q130.186 747.85 132.478 746.114 Q134.792 744.378 134.792 741.068 Q134.792 738.012 132.64 736.3 Q130.51 734.563 126.691 734.563 L122.663 734.563 L122.663 730.721 L126.876 730.721 Q130.325 730.721 132.154 729.355 Q133.982 727.966 133.982 725.374 Q133.982 722.712 132.084 721.3 Q130.209 719.864 126.691 719.864 Q124.769 719.864 122.57 720.281 Q120.371 720.698 117.732 721.577 L117.732 717.411 Q120.394 716.67 122.709 716.3 Q125.047 715.929 127.107 715.929 Q132.431 715.929 135.533 718.36 Q138.635 720.767 138.635 724.888 Q138.635 727.758 136.992 729.749 Q135.348 731.716 132.316 732.48 Z" fill="#000000" fill-rule="nonzero" fill-opacity="1" /><path clip-path="url(#clip890)" d="M129.862 490.846 L118.056 509.295 L129.862 509.295 L129.862 490.846 M128.635 486.772 L134.515 486.772 L134.515 509.295 L139.445 509.295 L139.445 513.184 L134.515 513.184 L134.515 521.332 L129.862 521.332 L129.862 513.184 L114.26 513.184 L114.26 508.67 L128.635 486.772 Z" fill="#000000" fill-rule="nonzero" fill-opacity="1" /><path clip-path="url(#clip890)" d="M118.543 256.991 L136.899 256.991 L136.899 260.926 L122.825 260.926 L122.825 269.398 Q123.843 269.051 124.862 268.889 Q125.88 268.703 126.899 268.703 Q132.686 268.703 136.066 271.875 Q139.445 275.046 139.445 280.463 Q139.445 286.041 135.973 289.143 Q132.501 292.222 126.181 292.222 Q124.005 292.222 121.737 291.851 Q119.492 291.481 117.084 290.74 L117.084 286.041 Q119.168 287.176 121.39 287.731 Q123.612 288.287 126.089 288.287 Q130.093 288.287 132.431 286.18 Q134.769 284.074 134.769 280.463 Q134.769 276.852 132.431 274.745 Q130.093 272.639 126.089 272.639 Q124.214 272.639 122.339 273.055 Q120.487 273.472 118.543 274.352 L118.543 256.991 Z" fill="#000000" fill-rule="nonzero" fill-opacity="1" /><path clip-path="url(#clip890)" d="M18.0438 821.548 L24.314 821.548 Q22.5634 825.208 21.704 828.454 Q20.8447 831.701 20.8447 834.725 Q20.8447 839.976 22.8817 842.841 Q24.9187 845.674 28.6745 845.674 Q31.8255 845.674 33.4488 843.796 Q35.0402 841.886 36.0269 836.603 L36.8226 832.719 Q38.1912 825.526 41.6605 822.121 Q45.098 818.683 50.8908 818.683 Q57.7976 818.683 61.3624 823.33 Q64.9272 827.945 64.9272 836.889 Q64.9272 840.263 64.1633 844.082 Q63.3994 847.87 61.9035 851.944 L55.2831 851.944 Q57.4793 848.029 58.5933 844.273 Q59.7073 840.517 59.7073 836.889 Q59.7073 831.383 57.543 828.391 Q55.3786 825.399 51.3682 825.399 Q47.8671 825.399 45.8937 827.563 Q43.9204 829.696 42.9337 834.597 L42.1698 838.512 Q40.7375 845.706 37.682 848.92 Q34.6264 852.135 29.1837 852.135 Q22.8817 852.135 19.2532 847.711 Q15.6248 843.255 15.6248 835.457 Q15.6248 832.115 16.2295 828.645 Q16.8343 825.176 18.0438 821.548 Z" fill="#000000" fill-rule="nonzero" fill-opacity="1" /><path clip-path="url(#clip890)" d="M18.2347 803.119 L28.3562 803.119 L28.3562 791.056 L32.9077 791.056 L32.9077 803.119 L52.2594 803.119 Q56.6199 803.119 57.8613 801.941 Q59.1026 800.732 59.1026 797.072 L59.1026 791.056 L64.0042 791.056 L64.0042 797.072 Q64.0042 803.851 61.4897 806.429 Q58.9434 809.007 52.2594 809.007 L32.9077 809.007 L32.9077 813.304 L28.3562 813.304 L28.3562 809.007 L18.2347 809.007 L18.2347 803.119 Z" fill="#000000" fill-rule="nonzero" fill-opacity="1" /><path clip-path="url(#clip890)" d="M44.7161 752.862 L47.5806 752.862 L47.5806 779.789 Q53.6281 779.407 56.8109 776.16 Q59.9619 772.882 59.9619 767.057 Q59.9619 763.683 59.1344 760.532 Q58.3069 757.35 56.6518 754.23 L62.1899 754.23 Q63.5267 757.381 64.227 760.692 Q64.9272 764.002 64.9272 767.407 Q64.9272 775.937 59.9619 780.934 Q54.9967 785.9 46.5303 785.9 Q37.7774 785.9 32.6531 781.189 Q27.4968 776.447 27.4968 768.426 Q27.4968 761.233 32.1438 757.063 Q36.7589 752.862 44.7161 752.862 M42.9973 758.718 Q38.1912 758.782 35.3266 761.424 Q32.4621 764.033 32.4621 768.362 Q32.4621 773.264 35.2312 776.224 Q38.0002 779.152 43.0292 779.598 L42.9973 758.718 Z" fill="#000000" fill-rule="nonzero" fill-opacity="1" /><path clip-path="url(#clip890)" d="M58.657 737.584 L77.5631 737.584 L77.5631 743.472 L28.3562 743.472 L28.3562 737.584 L33.7671 737.584 Q30.5842 735.738 29.0564 732.937 Q27.4968 730.104 27.4968 726.189 Q27.4968 719.696 32.6531 715.654 Q37.8093 711.58 46.212 711.58 Q54.6147 711.58 59.771 715.654 Q64.9272 719.696 64.9272 726.189 Q64.9272 730.104 63.3994 732.937 Q61.8398 735.738 58.657 737.584 M46.212 717.659 Q39.7508 717.659 36.0905 720.333 Q32.3984 722.975 32.3984 727.622 Q32.3984 732.269 36.0905 734.942 Q39.7508 737.584 46.212 737.584 Q52.6732 737.584 56.3653 734.942 Q60.0256 732.269 60.0256 727.622 Q60.0256 722.975 56.3653 720.333 Q52.6732 717.659 46.212 717.659 Z" fill="#000000" fill-rule="nonzero" fill-opacity="1" /><path clip-path="url(#clip890)" d="M29.4065 679.147 L34.9447 679.147 Q33.6716 681.629 33.035 684.303 Q32.3984 686.977 32.3984 689.841 Q32.3984 694.202 33.7352 696.398 Q35.072 698.562 37.7456 698.562 Q39.7826 698.562 40.9603 697.003 Q42.1061 695.443 43.1565 690.732 L43.6021 688.727 Q44.9389 682.489 47.3897 679.879 Q49.8086 677.237 54.1691 677.237 Q59.1344 677.237 62.0308 681.184 Q64.9272 685.099 64.9272 691.974 Q64.9272 694.838 64.3543 697.957 Q63.8132 701.045 62.6992 704.482 L56.6518 704.482 Q58.3387 701.236 59.198 698.085 Q60.0256 694.934 60.0256 691.846 Q60.0256 687.709 58.6251 685.481 Q57.1929 683.253 54.6147 683.253 Q52.2276 683.253 50.9545 684.876 Q49.6813 686.467 48.5037 691.91 L48.0262 693.947 Q46.8804 699.39 44.5251 701.809 Q42.138 704.228 38.0002 704.228 Q32.9713 704.228 30.2341 700.663 Q27.4968 697.098 27.4968 690.541 Q27.4968 687.295 27.9743 684.43 Q28.4517 681.566 29.4065 679.147 Z" fill="#000000" fill-rule="nonzero" fill-opacity="1" /><path clip-path="url(#clip890)" d="M647.365 8.64 L655.235 8.64 L674.39 44.7799 L674.39 8.64 L680.061 8.64 L680.061 51.84 L672.191 51.84 L653.036 15.7001 L653.036 51.84 L647.365 51.84 L647.365 8.64 Z" fill="#000000" fill-rule="nonzero" fill-opacity="1" /><path clip-path="url(#clip890)" d="M706.19 35.5496 Q699.737 35.5496 697.249 37.0253 Q694.76 38.501 694.76 42.06 Q694.76 44.8956 696.612 46.5738 Q698.493 48.2231 701.705 48.2231 Q706.132 48.2231 708.794 45.0981 Q711.485 41.9442 711.485 36.7359 L711.485 35.5496 L706.19 35.5496 M716.809 33.3505 L716.809 51.84 L711.485 51.84 L711.485 46.921 Q709.662 49.8724 706.942 51.2902 Q704.222 52.6791 700.287 52.6791 Q695.31 52.6791 692.359 49.9014 Q689.436 47.0947 689.436 42.4072 Q689.436 36.9385 693.082 34.1607 Q696.757 31.3829 704.02 31.3829 L711.485 31.3829 L711.485 30.8621 Q711.485 27.1874 709.054 25.1908 Q706.653 23.1654 702.284 23.1654 Q699.506 23.1654 696.873 23.8309 Q694.24 24.4964 691.809 25.8274 L691.809 20.9085 Q694.732 19.78 697.48 19.2302 Q700.229 18.6515 702.833 18.6515 Q709.865 18.6515 713.337 22.2973 Q716.809 25.9431 716.809 33.3505 Z" fill="#000000" fill-rule="nonzero" fill-opacity="1" /><path clip-path="url(#clip890)" d="M733.041 10.2314 L733.041 19.4328 L744.008 19.4328 L744.008 23.5705 L733.041 23.5705 L733.041 41.163 Q733.041 45.1271 734.112 46.2555 Q735.212 47.384 738.539 47.384 L744.008 47.384 L744.008 51.84 L738.539 51.84 Q732.376 51.84 730.032 49.5541 Q727.689 47.2393 727.689 41.163 L727.689 23.5705 L723.782 23.5705 L723.782 19.4328 L727.689 19.4328 L727.689 10.2314 L733.041 10.2314 Z" fill="#000000" fill-rule="nonzero" fill-opacity="1" /><path clip-path="url(#clip890)" d="M750.46 39.0507 L750.46 19.4328 L755.784 19.4328 L755.784 38.8482 Q755.784 43.4488 757.578 45.7636 Q759.372 48.0495 762.96 48.0495 Q767.272 48.0495 769.76 45.3007 Q772.277 42.5519 772.277 37.8065 L772.277 19.4328 L777.601 19.4328 L777.601 51.84 L772.277 51.84 L772.277 46.8632 Q770.339 49.8145 767.764 51.2613 Q765.217 52.6791 761.832 52.6791 Q756.247 52.6791 753.354 49.2069 Q750.46 45.7347 750.46 39.0507 M763.857 18.6515 L763.857 18.6515 Z" fill="#000000" fill-rule="nonzero" fill-opacity="1" /><path clip-path="url(#clip890)" d="M807.347 24.4096 Q806.45 23.8888 805.379 23.6573 Q804.337 23.3969 803.064 23.3969 Q798.55 23.3969 796.12 26.3482 Q793.718 29.2707 793.718 34.7683 L793.718 51.84 L788.365 51.84 L788.365 19.4328 L793.718 19.4328 L793.718 24.4675 Q795.396 21.5161 798.087 20.0983 Q800.778 18.6515 804.627 18.6515 Q805.177 18.6515 805.842 18.7383 Q806.508 18.7962 807.318 18.9409 L807.347 24.4096 Z" fill="#000000" fill-rule="nonzero" fill-opacity="1" /><path clip-path="url(#clip890)" d="M827.659 35.5496 Q821.207 35.5496 818.718 37.0253 Q816.23 38.501 816.23 42.06 Q816.23 44.8956 818.082 46.5738 Q819.962 48.2231 823.174 48.2231 Q827.601 48.2231 830.263 45.0981 Q832.954 41.9442 832.954 36.7359 L832.954 35.5496 L827.659 35.5496 M838.278 33.3505 L838.278 51.84 L832.954 51.84 L832.954 46.921 Q831.131 49.8724 828.411 51.2902 Q825.691 52.6791 821.756 52.6791 Q816.779 52.6791 813.828 49.9014 Q810.906 47.0947 810.906 42.4072 Q810.906 36.9385 814.551 34.1607 Q818.226 31.3829 825.489 31.3829 L832.954 31.3829 L832.954 30.8621 Q832.954 27.1874 830.524 25.1908 Q828.122 23.1654 823.753 23.1654 Q820.975 23.1654 818.342 23.8309 Q815.709 24.4964 813.278 25.8274 L813.278 20.9085 Q816.201 19.78 818.95 19.2302 Q821.698 18.6515 824.303 18.6515 Q831.334 18.6515 834.806 22.2973 Q838.278 25.9431 838.278 33.3505 Z" fill="#000000" fill-rule="nonzero" fill-opacity="1" /><path clip-path="url(#clip890)" d="M849.245 6.81709 L854.569 6.81709 L854.569 51.84 L849.245 51.84 L849.245 6.81709 Z" fill="#000000" fill-rule="nonzero" fill-opacity="1" /><path clip-path="url(#clip890)" d="M905.263 31.5855 Q907.144 32.222 908.909 34.3054 Q910.703 36.3887 912.497 40.0345 L918.428 51.84 L912.149 51.84 L906.623 40.7579 Q904.482 36.4176 902.456 34.9998 Q900.46 33.582 896.987 33.582 L890.622 33.582 L890.622 51.84 L884.777 51.84 L884.777 8.64 L897.971 8.64 Q905.379 8.64 909.024 11.736 Q912.67 14.8321 912.67 21.0821 Q912.67 25.1619 910.76 27.8529 Q908.88 30.5438 905.263 31.5855 M890.622 13.4432 L890.622 28.7788 L897.971 28.7788 Q902.196 28.7788 904.337 26.8401 Q906.507 24.8726 906.507 21.0821 Q906.507 17.2916 904.337 15.3819 Q902.196 13.4432 897.971 13.4432 L890.622 13.4432 Z" fill="#000000" fill-rule="nonzero" fill-opacity="1" /><path clip-path="url(#clip890)" d="M950.778 34.3054 L950.778 36.9095 L926.299 36.9095 Q926.646 42.4072 929.597 45.3007 Q932.577 48.1653 937.873 48.1653 Q940.94 48.1653 943.804 47.4129 Q946.698 46.6606 949.533 45.156 L949.533 50.1907 Q946.669 51.406 943.66 52.0425 Q940.65 52.6791 937.554 52.6791 Q929.8 52.6791 925.257 48.1653 Q920.743 43.6514 920.743 35.9547 Q920.743 27.9975 925.025 23.339 Q929.337 18.6515 936.628 18.6515 Q943.168 18.6515 946.958 22.876 Q950.778 27.0716 950.778 34.3054 M945.454 32.7429 Q945.396 28.3737 942.994 25.7695 Q940.621 23.1654 936.686 23.1654 Q932.23 23.1654 929.539 25.6827 Q926.877 28.2001 926.472 32.7718 L945.454 32.7429 Z" fill="#000000" fill-rule="nonzero" fill-opacity="1" /><path clip-path="url(#clip890)" d="M980.176 20.3876 L980.176 25.4223 Q977.919 24.2649 975.488 23.6862 Q973.058 23.1075 970.453 23.1075 Q966.489 23.1075 964.493 24.3228 Q962.525 25.5381 962.525 27.9686 Q962.525 29.8204 963.943 30.891 Q965.361 31.9327 969.643 32.8876 L971.466 33.2926 Q977.137 34.5079 979.51 36.7359 Q981.912 38.935 981.912 42.8991 Q981.912 47.4129 978.324 50.046 Q974.765 52.6791 968.515 52.6791 Q965.911 52.6791 963.075 52.1583 Q960.268 51.6664 957.143 50.6537 L957.143 45.156 Q960.095 46.6896 962.959 47.4708 Q965.824 48.2231 968.63 48.2231 Q972.392 48.2231 974.418 46.95 Q976.443 45.6479 976.443 43.3042 Q976.443 41.134 974.967 39.9766 Q973.521 38.8192 968.573 37.7486 L966.721 37.3146 Q961.773 36.273 959.574 34.1318 Q957.375 31.9616 957.375 28.2001 Q957.375 23.6283 960.615 21.1399 Q963.856 18.6515 969.817 18.6515 Q972.768 18.6515 975.372 19.0855 Q977.977 19.5196 980.176 20.3876 Z" fill="#000000" fill-rule="nonzero" fill-opacity="1" /><path clip-path="url(#clip890)" d="M990.39 19.4328 L995.714 19.4328 L995.714 51.84 L990.39 51.84 L990.39 19.4328 M990.39 6.81709 L995.714 6.81709 L995.714 13.559 L990.39 13.559 L990.39 6.81709 Z" fill="#000000" fill-rule="nonzero" fill-opacity="1" /><path clip-path="url(#clip890)" d="M1028.18 24.3517 L1028.18 6.81709 L1033.5 6.81709 L1033.5 51.84 L1028.18 51.84 L1028.18 46.9789 Q1026.5 49.8724 1023.93 51.2902 Q1021.38 52.6791 1017.79 52.6791 Q1011.92 52.6791 1008.21 47.9916 Q1004.54 43.3042 1004.54 35.6653 Q1004.54 28.0265 1008.21 23.339 Q1011.92 18.6515 1017.79 18.6515 Q1021.38 18.6515 1023.93 20.0693 Q1026.5 21.4582 1028.18 24.3517 M1010.04 35.6653 Q1010.04 41.5391 1012.44 44.8956 Q1014.87 48.2231 1019.09 48.2231 Q1023.32 48.2231 1025.75 44.8956 Q1028.18 41.5391 1028.18 35.6653 Q1028.18 29.7915 1025.75 26.464 Q1023.32 23.1075 1019.09 23.1075 Q1014.87 23.1075 1012.44 26.464 Q1010.04 29.7915 1010.04 35.6653 Z" fill="#000000" fill-rule="nonzero" fill-opacity="1" /><path clip-path="url(#clip890)" d="M1072.19 34.3054 L1072.19 36.9095 L1047.71 36.9095 Q1048.06 42.4072 1051.01 45.3007 Q1053.99 48.1653 1059.28 48.1653 Q1062.35 48.1653 1065.22 47.4129 Q1068.11 46.6606 1070.94 45.156 L1070.94 50.1907 Q1068.08 51.406 1065.07 52.0425 Q1062.06 52.6791 1058.97 52.6791 Q1051.21 52.6791 1046.67 48.1653 Q1042.15 43.6514 1042.15 35.9547 Q1042.15 27.9975 1046.44 23.339 Q1050.75 18.6515 1058.04 18.6515 Q1064.58 18.6515 1068.37 22.876 Q1072.19 27.0716 1072.19 34.3054 M1066.86 32.7429 Q1066.81 28.3737 1064.41 25.7695 Q1062.03 23.1654 1058.1 23.1654 Q1053.64 23.1654 1050.95 25.6827 Q1048.29 28.2001 1047.88 32.7718 L1066.86 32.7429 Z" fill="#000000" fill-rule="nonzero" fill-opacity="1" /><path clip-path="url(#clip890)" d="M1107.87 32.2799 L1107.87 51.84 L1102.54 51.84 L1102.54 32.4535 Q1102.54 27.8529 1100.75 25.567 Q1098.95 23.2811 1095.37 23.2811 Q1091.05 23.2811 1088.57 26.03 Q1086.08 28.7788 1086.08 33.5241 L1086.08 51.84 L1080.72 51.84 L1080.72 19.4328 L1086.08 19.4328 L1086.08 24.4675 Q1087.99 21.545 1090.56 20.0983 Q1093.17 18.6515 1096.55 18.6515 Q1102.14 18.6515 1105 22.1237 Q1107.87 25.567 1107.87 32.2799 Z" fill="#000000" fill-rule="nonzero" fill-opacity="1" /><path clip-path="url(#clip890)" d="M1141.81 20.677 L1141.81 25.6538 Q1139.55 24.4096 1137.26 23.802 Q1135.01 23.1654 1132.69 23.1654 Q1127.51 23.1654 1124.65 26.464 Q1121.78 29.7336 1121.78 35.6653 Q1121.78 41.597 1124.65 44.8956 Q1127.51 48.1653 1132.69 48.1653 Q1135.01 48.1653 1137.26 47.5576 Q1139.55 46.921 1141.81 45.6768 L1141.81 50.5958 Q1139.58 51.6375 1137.18 52.1583 Q1134.8 52.6791 1132.11 52.6791 Q1124.79 52.6791 1120.48 48.0784 Q1116.17 43.4778 1116.17 35.6653 Q1116.17 27.7371 1120.51 23.1943 Q1124.88 18.6515 1132.46 18.6515 Q1134.92 18.6515 1137.26 19.1724 Q1139.61 19.6642 1141.81 20.677 Z" fill="#000000" fill-rule="nonzero" fill-opacity="1" /><path clip-path="url(#clip890)" d="M1178.79 34.3054 L1178.79 36.9095 L1154.31 36.9095 Q1154.65 42.4072 1157.61 45.3007 Q1160.59 48.1653 1165.88 48.1653 Q1168.95 48.1653 1171.81 47.4129 Q1174.71 46.6606 1177.54 45.156 L1177.54 50.1907 Q1174.68 51.406 1171.67 52.0425 Q1168.66 52.6791 1165.56 52.6791 Q1157.81 52.6791 1153.26 48.1653 Q1148.75 43.6514 1148.75 35.9547 Q1148.75 27.9975 1153.03 23.339 Q1157.34 18.6515 1164.64 18.6515 Q1171.18 18.6515 1174.97 22.876 Q1178.79 27.0716 1178.79 34.3054 M1173.46 32.7429 Q1173.4 28.3737 1171 25.7695 Q1168.63 23.1654 1164.69 23.1654 Q1160.24 23.1654 1157.55 25.6827 Q1154.89 28.2001 1154.48 32.7718 L1173.46 32.7429 Z" fill="#000000" fill-rule="nonzero" fill-opacity="1" /><path clip-path="url(#clip890)" d="M1200.6 8.64 L1237.15 8.64 L1237.15 13.559 L1221.81 13.559 L1221.81 51.84 L1215.94 51.84 L1215.94 13.559 L1200.6 13.559 L1200.6 8.64 Z" fill="#000000" fill-rule="nonzero" fill-opacity="1" /><path clip-path="url(#clip890)" d="M1240.74 19.4328 L1246.06 19.4328 L1246.06 51.84 L1240.74 51.84 L1240.74 19.4328 M1240.74 6.81709 L1246.06 6.81709 L1246.06 13.559 L1240.74 13.559 L1240.74 6.81709 Z" fill="#000000" fill-rule="nonzero" fill-opacity="1" /><path clip-path="url(#clip890)" d="M1282.43 25.6538 Q1284.43 22.0659 1287.21 20.3587 Q1289.98 18.6515 1293.74 18.6515 Q1298.81 18.6515 1301.56 22.2105 Q1304.31 25.7406 1304.31 32.2799 L1304.31 51.84 L1298.95 51.84 L1298.95 32.4535 Q1298.95 27.795 1297.3 25.5381 Q1295.65 23.2811 1292.27 23.2811 Q1288.13 23.2811 1285.73 26.03 Q1283.33 28.7788 1283.33 33.5241 L1283.33 51.84 L1277.97 51.84 L1277.97 32.4535 Q1277.97 27.7661 1276.33 25.5381 Q1274.68 23.2811 1271.23 23.2811 Q1267.15 23.2811 1264.75 26.0589 Q1262.35 28.8077 1262.35 33.5241 L1262.35 51.84 L1257 51.84 L1257 19.4328 L1262.35 19.4328 L1262.35 24.4675 Q1264.17 21.4872 1266.72 20.0693 Q1269.27 18.6515 1272.77 18.6515 Q1276.3 18.6515 1278.76 20.4455 Q1281.24 22.2395 1282.43 25.6538 Z" fill="#000000" fill-rule="nonzero" fill-opacity="1" /><path clip-path="url(#clip890)" d="M1342.64 34.3054 L1342.64 36.9095 L1318.17 36.9095 Q1318.51 42.4072 1321.46 45.3007 Q1324.44 48.1653 1329.74 48.1653 Q1332.81 48.1653 1335.67 47.4129 Q1338.56 46.6606 1341.4 45.156 L1341.4 50.1907 Q1338.54 51.406 1335.53 52.0425 Q1332.52 52.6791 1329.42 52.6791 Q1321.67 52.6791 1317.12 48.1653 Q1312.61 43.6514 1312.61 35.9547 Q1312.61 27.9975 1316.89 23.339 Q1321.2 18.6515 1328.5 18.6515 Q1335.03 18.6515 1338.83 22.876 Q1342.64 27.0716 1342.64 34.3054 M1337.32 32.7429 Q1337.26 28.3737 1334.86 25.7695 Q1332.49 23.1654 1328.55 23.1654 Q1324.1 23.1654 1321.41 25.6827 Q1318.74 28.2001 1318.34 32.7718 L1337.32 32.7429 Z" fill="#000000" fill-rule="nonzero" fill-opacity="1" /><path clip-path="url(#clip890)" d="M1372.04 20.3876 L1372.04 25.4223 Q1369.79 24.2649 1367.36 23.6862 Q1364.92 23.1075 1362.32 23.1075 Q1358.36 23.1075 1356.36 24.3228 Q1354.39 25.5381 1354.39 27.9686 Q1354.39 29.8204 1355.81 30.891 Q1357.23 31.9327 1361.51 32.8876 L1363.33 33.2926 Q1369 34.5079 1371.38 36.7359 Q1373.78 38.935 1373.78 42.8991 Q1373.78 47.4129 1370.19 50.046 Q1366.63 52.6791 1360.38 52.6791 Q1357.78 52.6791 1354.94 52.1583 Q1352.14 51.6664 1349.01 50.6537 L1349.01 45.156 Q1351.96 46.6896 1354.83 47.4708 Q1357.69 48.2231 1360.5 48.2231 Q1364.26 48.2231 1366.28 46.95 Q1368.31 45.6479 1368.31 43.3042 Q1368.31 41.134 1366.83 39.9766 Q1365.39 38.8192 1360.44 37.7486 L1358.59 37.3146 Q1353.64 36.273 1351.44 34.1318 Q1349.24 31.9616 1349.24 28.2001 Q1349.24 23.6283 1352.48 21.1399 Q1355.72 18.6515 1361.68 18.6515 Q1364.64 18.6515 1367.24 19.0855 Q1369.84 19.5196 1372.04 20.3876 Z" fill="#000000" fill-rule="nonzero" fill-opacity="1" /><path clip-path="url(#clip890)" d="M1413.88 6.87496 Q1410.01 13.53 1408.12 20.0404 Q1406.24 26.5508 1406.24 33.2348 Q1406.24 39.9188 1408.12 46.487 Q1410.03 53.0263 1413.88 59.6525 L1409.25 59.6525 Q1404.91 52.8527 1402.74 46.2845 Q1400.6 39.7162 1400.6 33.2348 Q1400.6 26.7823 1402.74 20.2429 Q1404.88 13.7036 1409.25 6.87496 L1413.88 6.87496 Z" fill="#000000" fill-rule="nonzero" fill-opacity="1" /><path clip-path="url(#clip890)" d="M1456.79 11.9675 L1456.79 18.1307 Q1453.84 15.3819 1450.49 14.0219 Q1447.16 12.662 1443.4 12.662 Q1435.99 12.662 1432.05 17.2048 Q1428.12 21.7186 1428.12 30.2834 Q1428.12 38.8192 1432.05 43.362 Q1435.99 47.8759 1443.4 47.8759 Q1447.16 47.8759 1450.49 46.516 Q1453.84 45.156 1456.79 42.4072 L1456.79 48.5125 Q1453.73 50.5958 1450.28 51.6375 Q1446.87 52.6791 1443.05 52.6791 Q1433.24 52.6791 1427.6 46.6896 Q1421.96 40.6711 1421.96 30.2834 Q1421.96 19.8668 1427.6 13.8772 Q1433.24 7.85875 1443.05 7.85875 Q1446.93 7.85875 1450.34 8.90042 Q1453.78 9.91314 1456.79 11.9675 Z" fill="#000000" fill-rule="nonzero" fill-opacity="1" /><path clip-path="url(#clip890)" d="M1465.82 8.64 L1471.67 8.64 L1471.67 26.3482 L1492.9 26.3482 L1492.9 8.64 L1498.75 8.64 L1498.75 51.84 L1492.9 51.84 L1492.9 31.2672 L1471.67 31.2672 L1471.67 51.84 L1465.82 51.84 L1465.82 8.64 Z" fill="#000000" fill-rule="nonzero" fill-opacity="1" /><path clip-path="url(#clip890)" d="M1510.38 8.64 L1519.09 8.64 L1530.11 38.038 L1541.2 8.64 L1549.91 8.64 L1549.91 51.84 L1544.21 51.84 L1544.21 13.9062 L1533.07 43.5356 L1527.19 43.5356 L1516.05 13.9062 L1516.05 51.84 L1510.38 51.84 L1510.38 8.64 Z" fill="#000000" fill-rule="nonzero" fill-opacity="1" /><path clip-path="url(#clip890)" d="M1561.51 8.64 L1570.22 8.64 L1581.24 38.038 L1592.33 8.64 L1601.03 8.64 L1601.03 51.84 L1595.33 51.84 L1595.33 13.9062 L1584.19 43.5356 L1578.32 43.5356 L1567.18 13.9062 L1567.18 51.84 L1561.51 51.84 L1561.51 8.64 Z" fill="#000000" fill-rule="nonzero" fill-opacity="1" /><path clip-path="url(#clip890)" d="M1609.72 33.2348 L1625.31 33.2348 L1625.31 37.9801 L1609.72 37.9801 L1609.72 33.2348 Z" fill="#000000" fill-rule="nonzero" fill-opacity="1" /><path clip-path="url(#clip890)" d="M1634.02 8.64 L1639.87 8.64 L1639.87 46.921 L1660.9 46.921 L1660.9 51.84 L1634.02 51.84 L1634.02 8.64 Z" fill="#000000" fill-rule="nonzero" fill-opacity="1" /><path clip-path="url(#clip890)" d="M1668.16 44.4905 L1674.27 44.4905 L1674.27 49.4673 L1669.52 58.7265 L1665.79 58.7265 L1668.16 49.4673 L1668.16 44.4905 Z" fill="#000000" fill-rule="nonzero" fill-opacity="1" /><path clip-path="url(#clip890)" d="M1704.71 8.64 L1710.55 8.64 L1710.55 26.898 L1729.94 8.64 L1737.46 8.64 L1716.02 28.7788 L1739 51.84 L1731.3 51.84 L1710.55 31.0357 L1710.55 51.84 L1704.71 51.84 L1704.71 8.64 Z" fill="#000000" fill-rule="nonzero" fill-opacity="1" /><path clip-path="url(#clip890)" d="M1744.03 24.9304 L1781.13 24.9304 L1781.13 29.7915 L1744.03 29.7915 L1744.03 24.9304 M1744.03 36.7359 L1781.13 36.7359 L1781.13 41.6549 L1744.03 41.6549 L1744.03 36.7359 Z" fill="#000000" fill-rule="nonzero" fill-opacity="1" /><path clip-path="url(#clip890)" d="M1794.75 46.921 L1804.3 46.921 L1804.3 13.964 L1793.92 16.0474 L1793.92 10.7233 L1804.25 8.64 L1810.09 8.64 L1810.09 46.921 L1819.64 46.921 L1819.64 51.84 L1794.75 51.84 L1794.75 46.921 Z" fill="#000000" fill-rule="nonzero" fill-opacity="1" /><path clip-path="url(#clip890)" d="M1843.94 31.3251 Q1839.78 31.3251 1837.38 33.5531 Q1835 35.7811 1835 39.6873 Q1835 43.5935 1837.38 45.8215 Q1839.78 48.0495 1843.94 48.0495 Q1848.11 48.0495 1850.51 45.8215 Q1852.91 43.5646 1852.91 39.6873 Q1852.91 35.7811 1850.51 33.5531 Q1848.14 31.3251 1843.94 31.3251 M1838.1 28.8367 Q1834.34 27.9107 1832.23 25.3355 Q1830.14 22.7603 1830.14 19.0566 Q1830.14 13.8772 1833.82 10.868 Q1837.52 7.85875 1843.94 7.85875 Q1850.4 7.85875 1854.07 10.868 Q1857.75 13.8772 1857.75 19.0566 Q1857.75 22.7603 1855.63 25.3355 Q1853.55 27.9107 1849.82 28.8367 Q1854.04 29.8204 1856.39 32.685 Q1858.76 35.5496 1858.76 39.6873 Q1858.76 45.9662 1854.91 49.3227 Q1851.09 52.6791 1843.94 52.6791 Q1836.8 52.6791 1832.95 49.3227 Q1829.13 45.9662 1829.13 39.6873 Q1829.13 35.5496 1831.5 32.685 Q1833.87 29.8204 1838.1 28.8367 M1835.96 19.6064 Q1835.96 22.9628 1838.04 24.8436 Q1840.15 26.7244 1843.94 26.7244 Q1847.71 26.7244 1849.82 24.8436 Q1851.96 22.9628 1851.96 19.6064 Q1851.96 16.2499 1849.82 14.3691 Q1847.71 12.4884 1843.94 12.4884 Q1840.15 12.4884 1838.04 14.3691 Q1835.96 16.2499 1835.96 19.6064 Z" fill="#000000" fill-rule="nonzero" fill-opacity="1" /><path clip-path="url(#clip890)" d="M1867.56 6.87496 L1872.18 6.87496 Q1876.52 13.7036 1878.67 20.2429 Q1880.84 26.7823 1880.84 33.2348 Q1880.84 39.7162 1878.67 46.2845 Q1876.52 52.8527 1872.18 59.6525 L1867.56 59.6525 Q1871.4 53.0263 1873.28 46.487 Q1875.19 39.9188 1875.19 33.2348 Q1875.19 26.5508 1873.28 20.0404 Q1871.4 13.53 1867.56 6.87496 Z" fill="#000000" fill-rule="nonzero" fill-opacity="1" /><path clip-path="url(#clip892)" d="M295.201 106.192 L295.201 1423.18 L382.293 1423.18 L382.293 106.192 L295.201 106.192 L295.201 106.192  Z" fill="#4682b4" fill-rule="evenodd" fill-opacity="0.7"/>
<polyline clip-path="url(#clip892)" style="stroke:#000000; stroke-linecap:round; stroke-linejoin:round; stroke-width:4; stroke-opacity:0.7; fill:none" points="295.201,106.192 295.201,1423.18 382.293,1423.18 382.293,106.192 295.201,106.192 "/>
<path clip-path="url(#clip892)" d="M404.066 1180.33 L404.066 1423.18 L491.158 1423.18 L491.158 1180.33 L404.066 1180.33 L404.066 1180.33  Z" fill="#4682b4" fill-rule="evenodd" fill-opacity="0.7"/>
<polyline clip-path="url(#clip892)" style="stroke:#000000; stroke-linecap:round; stroke-linejoin:round; stroke-width:4; stroke-opacity:0.7; fill:none" points="404.066,1180.33 404.066,1423.18 491.158,1423.18 491.158,1180.33 404.066,1180.33 "/>
<path clip-path="url(#clip892)" d="M512.931 1156.11 L512.931 1423.18 L600.023 1423.18 L600.023 1156.11 L512.931 1156.11 L512.931 1156.11  Z" fill="#4682b4" fill-rule="evenodd" fill-opacity="0.7"/>
<polyline clip-path="url(#clip892)" style="stroke:#000000; stroke-linecap:round; stroke-linejoin:round; stroke-width:4; stroke-opacity:0.7; fill:none" points="512.931,1156.11 512.931,1423.18 600.023,1423.18 600.023,1156.11 512.931,1156.11 "/>
<path clip-path="url(#clip892)" d="M621.796 1193.4 L621.796 1423.18 L708.889 1423.18 L708.889 1193.4 L621.796 1193.4 L621.796 1193.4  Z" fill="#4682b4" fill-rule="evenodd" fill-opacity="0.7"/>
<polyline clip-path="url(#clip892)" style="stroke:#000000; stroke-linecap:round; stroke-linejoin:round; stroke-width:4; stroke-opacity:0.7; fill:none" points="621.796,1193.4 621.796,1423.18 708.889,1423.18 708.889,1193.4 621.796,1193.4 "/>
<path clip-path="url(#clip892)" d="M730.662 1136.2 L730.662 1423.18 L817.754 1423.18 L817.754 1136.2 L730.662 1136.2 L730.662 1136.2  Z" fill="#4682b4" fill-rule="evenodd" fill-opacity="0.7"/>
<polyline clip-path="url(#clip892)" style="stroke:#000000; stroke-linecap:round; stroke-linejoin:round; stroke-width:4; stroke-opacity:0.7; fill:none" points="730.662,1136.2 730.662,1423.18 817.754,1423.18 817.754,1136.2 730.662,1136.2 "/>
<path clip-path="url(#clip892)" d="M839.527 1141.9 L839.527 1423.18 L926.619 1423.18 L926.619 1141.9 L839.527 1141.9 L839.527 1141.9  Z" fill="#4682b4" fill-rule="evenodd" fill-opacity="0.7"/>
<polyline clip-path="url(#clip892)" style="stroke:#000000; stroke-linecap:round; stroke-linejoin:round; stroke-width:4; stroke-opacity:0.7; fill:none" points="839.527,1141.9 839.527,1423.18 926.619,1423.18 926.619,1141.9 839.527,1141.9 "/>
<path clip-path="url(#clip892)" d="M948.392 1154.86 L948.392 1423.18 L1035.48 1423.18 L1035.48 1154.86 L948.392 1154.86 L948.392 1154.86  Z" fill="#4682b4" fill-rule="evenodd" fill-opacity="0.7"/>
<polyline clip-path="url(#clip892)" style="stroke:#000000; stroke-linecap:round; stroke-linejoin:round; stroke-width:4; stroke-opacity:0.7; fill:none" points="948.392,1154.86 948.392,1423.18 1035.48,1423.18 1035.48,1154.86 948.392,1154.86 "/>
<path clip-path="url(#clip892)" d="M1057.26 1175.87 L1057.26 1423.18 L1144.35 1423.18 L1144.35 1175.87 L1057.26 1175.87 L1057.26 1175.87  Z" fill="#4682b4" fill-rule="evenodd" fill-opacity="0.7"/>
<polyline clip-path="url(#clip892)" style="stroke:#000000; stroke-linecap:round; stroke-linejoin:round; stroke-width:4; stroke-opacity:0.7; fill:none" points="1057.26,1175.87 1057.26,1423.18 1144.35,1423.18 1144.35,1175.87 1057.26,1175.87 "/>
<path clip-path="url(#clip892)" d="M1166.12 1169.56 L1166.12 1423.18 L1253.21 1423.18 L1253.21 1169.56 L1166.12 1169.56 L1166.12 1169.56  Z" fill="#4682b4" fill-rule="evenodd" fill-opacity="0.7"/>
<polyline clip-path="url(#clip892)" style="stroke:#000000; stroke-linecap:round; stroke-linejoin:round; stroke-width:4; stroke-opacity:0.7; fill:none" points="1166.12,1169.56 1166.12,1423.18 1253.21,1423.18 1253.21,1169.56 1166.12,1169.56 "/>
<path clip-path="url(#clip892)" d="M1274.99 1136.09 L1274.99 1423.18 L1362.08 1423.18 L1362.08 1136.09 L1274.99 1136.09 L1274.99 1136.09  Z" fill="#4682b4" fill-rule="evenodd" fill-opacity="0.7"/>
<polyline clip-path="url(#clip892)" style="stroke:#000000; stroke-linecap:round; stroke-linejoin:round; stroke-width:4; stroke-opacity:0.7; fill:none" points="1274.99,1136.09 1274.99,1423.18 1362.08,1423.18 1362.08,1136.09 1274.99,1136.09 "/>
<path clip-path="url(#clip892)" d="M1383.85 1193.28 L1383.85 1423.18 L1470.94 1423.18 L1470.94 1193.28 L1383.85 1193.28 L1383.85 1193.28  Z" fill="#4682b4" fill-rule="evenodd" fill-opacity="0.7"/>
<polyline clip-path="url(#clip892)" style="stroke:#000000; stroke-linecap:round; stroke-linejoin:round; stroke-width:4; stroke-opacity:0.7; fill:none" points="1383.85,1193.28 1383.85,1423.18 1470.94,1423.18 1470.94,1193.28 1383.85,1193.28 "/>
<path clip-path="url(#clip892)" d="M1492.72 1191.17 L1492.72 1423.18 L1579.81 1423.18 L1579.81 1191.17 L1492.72 1191.17 L1492.72 1191.17  Z" fill="#4682b4" fill-rule="evenodd" fill-opacity="0.7"/>
<polyline clip-path="url(#clip892)" style="stroke:#000000; stroke-linecap:round; stroke-linejoin:round; stroke-width:4; stroke-opacity:0.7; fill:none" points="1492.72,1191.17 1492.72,1423.18 1579.81,1423.18 1579.81,1191.17 1492.72,1191.17 "/>
<path clip-path="url(#clip892)" d="M1601.58 1179.1 L1601.58 1423.18 L1688.67 1423.18 L1688.67 1179.1 L1601.58 1179.1 L1601.58 1179.1  Z" fill="#4682b4" fill-rule="evenodd" fill-opacity="0.7"/>
<polyline clip-path="url(#clip892)" style="stroke:#000000; stroke-linecap:round; stroke-linejoin:round; stroke-width:4; stroke-opacity:0.7; fill:none" points="1601.58,1179.1 1601.58,1423.18 1688.67,1423.18 1688.67,1179.1 1601.58,1179.1 "/>
<path clip-path="url(#clip892)" d="M1710.45 1175.79 L1710.45 1423.18 L1797.54 1423.18 L1797.54 1175.79 L1710.45 1175.79 L1710.45 1175.79  Z" fill="#4682b4" fill-rule="evenodd" fill-opacity="0.7"/>
<polyline clip-path="url(#clip892)" style="stroke:#000000; stroke-linecap:round; stroke-linejoin:round; stroke-width:4; stroke-opacity:0.7; fill:none" points="1710.45,1175.79 1710.45,1423.18 1797.54,1423.18 1797.54,1175.79 1710.45,1175.79 "/>
<path clip-path="url(#clip892)" d="M1819.31 1193.4 L1819.31 1423.18 L1906.4 1423.18 L1906.4 1193.4 L1819.31 1193.4 L1819.31 1193.4  Z" fill="#4682b4" fill-rule="evenodd" fill-opacity="0.7"/>
<polyline clip-path="url(#clip892)" style="stroke:#000000; stroke-linecap:round; stroke-linejoin:round; stroke-width:4; stroke-opacity:0.7; fill:none" points="1819.31,1193.4 1819.31,1423.18 1906.4,1423.18 1906.4,1193.4 1819.31,1193.4 "/>
<path clip-path="url(#clip892)" d="M1928.18 1193.4 L1928.18 1423.18 L2015.27 1423.18 L2015.27 1193.4 L1928.18 1193.4 L1928.18 1193.4  Z" fill="#4682b4" fill-rule="evenodd" fill-opacity="0.7"/>
<polyline clip-path="url(#clip892)" style="stroke:#000000; stroke-linecap:round; stroke-linejoin:round; stroke-width:4; stroke-opacity:0.7; fill:none" points="1928.18,1193.4 1928.18,1423.18 2015.27,1423.18 2015.27,1193.4 1928.18,1193.4 "/>
<path clip-path="url(#clip892)" d="M2037.04 1182.52 L2037.04 1423.18 L2124.13 1423.18 L2124.13 1182.52 L2037.04 1182.52 L2037.04 1182.52  Z" fill="#4682b4" fill-rule="evenodd" fill-opacity="0.7"/>
<polyline clip-path="url(#clip892)" style="stroke:#000000; stroke-linecap:round; stroke-linejoin:round; stroke-width:4; stroke-opacity:0.7; fill:none" points="2037.04,1182.52 2037.04,1423.18 2124.13,1423.18 2124.13,1182.52 2037.04,1182.52 "/>
<path clip-path="url(#clip892)" d="M2145.91 1082.06 L2145.91 1423.18 L2233 1423.18 L2233 1082.06 L2145.91 1082.06 L2145.91 1082.06  Z" fill="#4682b4" fill-rule="evenodd" fill-opacity="0.7"/>
<polyline clip-path="url(#clip892)" style="stroke:#000000; stroke-linecap:round; stroke-linejoin:round; stroke-width:4; stroke-opacity:0.7; fill:none" points="2145.91,1082.06 2145.91,1423.18 2233,1423.18 2233,1082.06 2145.91,1082.06 "/>
<circle clip-path="url(#clip892)" style="fill:#4682b4; stroke:none; fill-opacity:0" cx="338.747" cy="106.192" r="2"/>
<circle clip-path="url(#clip892)" style="fill:#4682b4; stroke:none; fill-opacity:0" cx="447.612" cy="1180.33" r="2"/>
<circle clip-path="url(#clip892)" style="fill:#4682b4; stroke:none; fill-opacity:0" cx="556.477" cy="1156.11" r="2"/>
<circle clip-path="url(#clip892)" style="fill:#4682b4; stroke:none; fill-opacity:0" cx="665.343" cy="1193.4" r="2"/>
<circle clip-path="url(#clip892)" style="fill:#4682b4; stroke:none; fill-opacity:0" cx="774.208" cy="1136.2" r="2"/>
<circle clip-path="url(#clip892)" style="fill:#4682b4; stroke:none; fill-opacity:0" cx="883.073" cy="1141.9" r="2"/>
<circle clip-path="url(#clip892)" style="fill:#4682b4; stroke:none; fill-opacity:0" cx="991.938" cy="1154.86" r="2"/>
<circle clip-path="url(#clip892)" style="fill:#4682b4; stroke:none; fill-opacity:0" cx="1100.8" cy="1175.87" r="2"/>
<circle clip-path="url(#clip892)" style="fill:#4682b4; stroke:none; fill-opacity:0" cx="1209.67" cy="1169.56" r="2"/>
<circle clip-path="url(#clip892)" style="fill:#4682b4; stroke:none; fill-opacity:0" cx="1318.53" cy="1136.09" r="2"/>
<circle clip-path="url(#clip892)" style="fill:#4682b4; stroke:none; fill-opacity:0" cx="1427.4" cy="1193.28" r="2"/>
<circle clip-path="url(#clip892)" style="fill:#4682b4; stroke:none; fill-opacity:0" cx="1536.26" cy="1191.17" r="2"/>
<circle clip-path="url(#clip892)" style="fill:#4682b4; stroke:none; fill-opacity:0" cx="1645.13" cy="1179.1" r="2"/>
<circle clip-path="url(#clip892)" style="fill:#4682b4; stroke:none; fill-opacity:0" cx="1753.99" cy="1175.79" r="2"/>
<circle clip-path="url(#clip892)" style="fill:#4682b4; stroke:none; fill-opacity:0" cx="1862.86" cy="1193.4" r="2"/>
<circle clip-path="url(#clip892)" style="fill:#4682b4; stroke:none; fill-opacity:0" cx="1971.72" cy="1193.4" r="2"/>
<circle clip-path="url(#clip892)" style="fill:#4682b4; stroke:none; fill-opacity:0" cx="2080.59" cy="1182.52" r="2"/>
<circle clip-path="url(#clip892)" style="fill:#4682b4; stroke:none; fill-opacity:0" cx="2189.45" cy="1082.06" r="2"/>
</svg>
