<?xml version="1.0" encoding="utf-8"?>
<svg xmlns="http://www.w3.org/2000/svg" xmlns:xlink="http://www.w3.org/1999/xlink" width="600" height="400" viewBox="0 0 2400 1600">
<defs>
  <clipPath id="clip050">
    <rect x="0" y="0" width="2400" height="1600"/>
  </clipPath>
</defs>
<path clip-path="url(#clip050)" d="M0 1600 L2400 1600 L2400 8.88178e-14 L0 8.88178e-14  Z" fill="#ffffff" fill-rule="evenodd" fill-opacity="1"/>
<defs>
  <clipPath id="clip051">
    <rect x="119" y="880" width="2263" height="37"/>
  </clipPath>
</defs>
<path clip-path="url(#clip050)" d="M302.458 1423.18 L2352.76 1423.18 L2352.76 140.752 L302.458 140.752  Z" fill="#ffffff" fill-rule="evenodd" fill-opacity="1"/>
<defs>
  <clipPath id="clip052">
    <rect x="302" y="140" width="2051" height="1283"/>
  </clipPath>
</defs>
<polyline clip-path="url(#clip052)" style="stroke:#000000; stroke-linecap:round; stroke-linejoin:round; stroke-width:2; stroke-opacity:0.1; fill:none" points="327.702,1423.18 327.702,140.752 "/>
<polyline clip-path="url(#clip052)" style="stroke:#000000; stroke-linecap:round; stroke-linejoin:round; stroke-width:2; stroke-opacity:0.1; fill:none" points="655.54,1423.18 655.54,140.752 "/>
<polyline clip-path="url(#clip052)" style="stroke:#000000; stroke-linecap:round; stroke-linejoin:round; stroke-width:2; stroke-opacity:0.1; fill:none" points="983.377,1423.18 983.377,140.752 "/>
<polyline clip-path="url(#clip052)" style="stroke:#000000; stroke-linecap:round; stroke-linejoin:round; stroke-width:2; stroke-opacity:0.1; fill:none" points="1311.22,1423.18 1311.22,140.752 "/>
<polyline clip-path="url(#clip052)" style="stroke:#000000; stroke-linecap:round; stroke-linejoin:round; stroke-width:2; stroke-opacity:0.1; fill:none" points="1639.05,1423.18 1639.05,140.752 "/>
<polyline clip-path="url(#clip052)" style="stroke:#000000; stroke-linecap:round; stroke-linejoin:round; stroke-width:2; stroke-opacity:0.1; fill:none" points="1966.89,1423.18 1966.89,140.752 "/>
<polyline clip-path="url(#clip052)" style="stroke:#000000; stroke-linecap:round; stroke-linejoin:round; stroke-width:2; stroke-opacity:0.1; fill:none" points="2294.73,1423.18 2294.73,140.752 "/>
<polyline clip-path="url(#clip052)" style="stroke:#000000; stroke-linecap:round; stroke-linejoin:round; stroke-width:2; stroke-opacity:0.1; fill:none" points="302.458,1278.31 2352.76,1278.31 "/>
<polyline clip-path="url(#clip052)" style="stroke:#000000; stroke-linecap:round; stroke-linejoin:round; stroke-width:2; stroke-opacity:0.1; fill:none" points="302.458,1106.54 2352.76,1106.54 "/>
<polyline clip-path="url(#clip052)" style="stroke:#000000; stroke-linecap:round; stroke-linejoin:round; stroke-width:2; stroke-opacity:0.1; fill:none" points="302.458,934.778 2352.76,934.778 "/>
<polyline clip-path="url(#clip052)" style="stroke:#000000; stroke-linecap:round; stroke-linejoin:round; stroke-width:2; stroke-opacity:0.1; fill:none" points="302.458,763.012 2352.76,763.012 "/>
<polyline clip-path="url(#clip052)" style="stroke:#000000; stroke-linecap:round; stroke-linejoin:round; stroke-width:2; stroke-opacity:0.1; fill:none" points="302.458,591.246 2352.76,591.246 "/>
<polyline clip-path="url(#clip052)" style="stroke:#000000; stroke-linecap:round; stroke-linejoin:round; stroke-width:2; stroke-opacity:0.1; fill:none" points="302.458,419.48 2352.76,419.48 "/>
<polyline clip-path="url(#clip052)" style="stroke:#000000; stroke-linecap:round; stroke-linejoin:round; stroke-width:2; stroke-opacity:0.1; fill:none" points="302.458,247.714 2352.76,247.714 "/>
<polyline clip-path="url(#clip050)" style="stroke:#000000; stroke-linecap:round; stroke-linejoin:round; stroke-width:4; stroke-opacity:1; fill:none" points="302.458,1423.18 2352.76,1423.18 "/>
<polyline clip-path="url(#clip050)" style="stroke:#000000; stroke-linecap:round; stroke-linejoin:round; stroke-width:4; stroke-opacity:1; fill:none" points="327.702,1423.18 327.702,1404.28 "/>
<polyline clip-path="url(#clip050)" style="stroke:#000000; stroke-linecap:round; stroke-linejoin:round; stroke-width:4; stroke-opacity:1; fill:none" points="655.54,1423.18 655.54,1404.28 "/>
<polyline clip-path="url(#clip050)" style="stroke:#000000; stroke-linecap:round; stroke-linejoin:round; stroke-width:4; stroke-opacity:1; fill:none" points="983.377,1423.18 983.377,1404.28 "/>
<polyline clip-path="url(#clip050)" style="stroke:#000000; stroke-linecap:round; stroke-linejoin:round; stroke-width:4; stroke-opacity:1; fill:none" points="1311.22,1423.18 1311.22,1404.28 "/>
<polyline clip-path="url(#clip050)" style="stroke:#000000; stroke-linecap:round; stroke-linejoin:round; stroke-width:4; stroke-opacity:1; fill:none" points="1639.05,1423.18 1639.05,1404.28 "/>
<polyline clip-path="url(#clip050)" style="stroke:#000000; stroke-linecap:round; stroke-linejoin:round; stroke-width:4; stroke-opacity:1; fill:none" points="1966.89,1423.18 1966.89,1404.28 "/>
<polyline clip-path="url(#clip050)" style="stroke:#000000; stroke-linecap:round; stroke-linejoin:round; stroke-width:4; stroke-opacity:1; fill:none" points="2294.73,1423.18 2294.73,1404.28 "/>
<path clip-path="url(#clip050)" d="M327.702 1454.1 Q324.091 1454.1 322.262 1457.66 Q320.457 1461.2 320.457 1468.33 Q320.457 1475.44 322.262 1479.01 Q324.091 1482.55 327.702 1482.55 Q331.336 1482.55 333.142 1479.01 Q334.97 1475.44 334.97 1468.33 Q334.97 1461.2 333.142 1457.66 Q331.336 1454.1 327.702 1454.1 M327.702 1450.39 Q333.512 1450.39 336.568 1455 Q339.646 1459.58 339.646 1468.33 Q339.646 1477.06 336.568 1481.67 Q333.512 1486.25 327.702 1486.25 Q321.892 1486.25 318.813 1481.67 Q315.758 1477.06 315.758 1468.33 Q315.758 1459.58 318.813 1455 Q321.892 1450.39 327.702 1450.39 Z" fill="#000000" fill-rule="nonzero" fill-opacity="1" /><path clip-path="url(#clip050)" d="M630.227 1481.64 L637.866 1481.64 L637.866 1455.28 L629.556 1456.95 L629.556 1452.69 L637.82 1451.02 L642.496 1451.02 L642.496 1481.64 L650.135 1481.64 L650.135 1485.58 L630.227 1485.58 L630.227 1481.64 Z" fill="#000000" fill-rule="nonzero" fill-opacity="1" /><path clip-path="url(#clip050)" d="M669.579 1454.1 Q665.968 1454.1 664.139 1457.66 Q662.334 1461.2 662.334 1468.33 Q662.334 1475.44 664.139 1479.01 Q665.968 1482.55 669.579 1482.55 Q673.213 1482.55 675.019 1479.01 Q676.847 1475.44 676.847 1468.33 Q676.847 1461.2 675.019 1457.66 Q673.213 1454.1 669.579 1454.1 M669.579 1450.39 Q675.389 1450.39 678.445 1455 Q681.523 1459.58 681.523 1468.33 Q681.523 1477.06 678.445 1481.67 Q675.389 1486.25 669.579 1486.25 Q663.769 1486.25 660.69 1481.67 Q657.635 1477.06 657.635 1468.33 Q657.635 1459.58 660.69 1455 Q663.769 1450.39 669.579 1450.39 Z" fill="#000000" fill-rule="nonzero" fill-opacity="1" /><path clip-path="url(#clip050)" d="M962.151 1481.64 L978.47 1481.64 L978.47 1485.58 L956.526 1485.58 L956.526 1481.64 Q959.188 1478.89 963.771 1474.26 Q968.378 1469.61 969.558 1468.27 Q971.803 1465.74 972.683 1464.01 Q973.586 1462.25 973.586 1460.56 Q973.586 1457.8 971.641 1456.07 Q969.72 1454.33 966.618 1454.33 Q964.419 1454.33 961.966 1455.09 Q959.535 1455.86 956.757 1457.41 L956.757 1452.69 Q959.581 1451.55 962.035 1450.97 Q964.489 1450.39 966.526 1450.39 Q971.896 1450.39 975.09 1453.08 Q978.285 1455.77 978.285 1460.26 Q978.285 1462.39 977.475 1464.31 Q976.688 1466.2 974.581 1468.8 Q974.003 1469.47 970.901 1472.69 Q967.799 1475.88 962.151 1481.64 Z" fill="#000000" fill-rule="nonzero" fill-opacity="1" /><path clip-path="url(#clip050)" d="M998.285 1454.1 Q994.674 1454.1 992.845 1457.66 Q991.039 1461.2 991.039 1468.33 Q991.039 1475.44 992.845 1479.01 Q994.674 1482.55 998.285 1482.55 Q1001.92 1482.55 1003.72 1479.01 Q1005.55 1475.44 1005.55 1468.33 Q1005.55 1461.2 1003.72 1457.66 Q1001.92 1454.1 998.285 1454.1 M998.285 1450.39 Q1004.09 1450.39 1007.15 1455 Q1010.23 1459.58 1010.23 1468.33 Q1010.23 1477.06 1007.15 1481.67 Q1004.09 1486.25 998.285 1486.25 Q992.475 1486.25 989.396 1481.67 Q986.34 1477.06 986.34 1468.33 Q986.34 1459.58 989.396 1455 Q992.475 1450.39 998.285 1450.39 Z" fill="#000000" fill-rule="nonzero" fill-opacity="1" /><path clip-path="url(#clip050)" d="M1300.06 1466.95 Q1303.41 1467.66 1305.29 1469.93 Q1307.19 1472.2 1307.19 1475.53 Q1307.19 1480.65 1303.67 1483.45 Q1300.15 1486.25 1293.67 1486.25 Q1291.49 1486.25 1289.18 1485.81 Q1286.89 1485.39 1284.43 1484.54 L1284.43 1480.02 Q1286.38 1481.16 1288.69 1481.74 Q1291.01 1482.32 1293.53 1482.32 Q1297.93 1482.32 1300.22 1480.58 Q1302.53 1478.84 1302.53 1475.53 Q1302.53 1472.48 1300.38 1470.77 Q1298.25 1469.03 1294.43 1469.03 L1290.41 1469.03 L1290.41 1465.19 L1294.62 1465.19 Q1298.07 1465.19 1299.9 1463.82 Q1301.72 1462.43 1301.72 1459.84 Q1301.72 1457.18 1299.83 1455.77 Q1297.95 1454.33 1294.43 1454.33 Q1292.51 1454.33 1290.31 1454.75 Q1288.11 1455.16 1285.47 1456.04 L1285.47 1451.88 Q1288.14 1451.14 1290.45 1450.77 Q1292.79 1450.39 1294.85 1450.39 Q1300.17 1450.39 1303.28 1452.83 Q1306.38 1455.23 1306.38 1459.35 Q1306.38 1462.22 1304.73 1464.21 Q1303.09 1466.18 1300.06 1466.95 Z" fill="#000000" fill-rule="nonzero" fill-opacity="1" /><path clip-path="url(#clip050)" d="M1326.05 1454.1 Q1322.44 1454.1 1320.61 1457.66 Q1318.81 1461.2 1318.81 1468.33 Q1318.81 1475.44 1320.61 1479.01 Q1322.44 1482.55 1326.05 1482.55 Q1329.69 1482.55 1331.49 1479.01 Q1333.32 1475.44 1333.32 1468.33 Q1333.32 1461.2 1331.49 1457.66 Q1329.69 1454.1 1326.05 1454.1 M1326.05 1450.39 Q1331.86 1450.39 1334.92 1455 Q1338 1459.58 1338 1468.33 Q1338 1477.06 1334.92 1481.67 Q1331.86 1486.25 1326.05 1486.25 Q1320.24 1486.25 1317.16 1481.67 Q1314.11 1477.06 1314.11 1468.33 Q1314.11 1459.58 1317.16 1455 Q1320.24 1450.39 1326.05 1450.39 Z" fill="#000000" fill-rule="nonzero" fill-opacity="1" /><path clip-path="url(#clip050)" d="M1627.22 1455.09 L1615.42 1473.54 L1627.22 1473.54 L1627.22 1455.09 M1626 1451.02 L1631.88 1451.02 L1631.88 1473.54 L1636.81 1473.54 L1636.81 1477.43 L1631.88 1477.43 L1631.88 1485.58 L1627.22 1485.58 L1627.22 1477.43 L1611.62 1477.43 L1611.62 1472.92 L1626 1451.02 Z" fill="#000000" fill-rule="nonzero" fill-opacity="1" /><path clip-path="url(#clip050)" d="M1654.54 1454.1 Q1650.93 1454.1 1649.1 1457.66 Q1647.29 1461.2 1647.29 1468.33 Q1647.29 1475.44 1649.1 1479.01 Q1650.93 1482.55 1654.54 1482.55 Q1658.17 1482.55 1659.98 1479.01 Q1661.81 1475.44 1661.81 1468.33 Q1661.81 1461.2 1659.98 1457.66 Q1658.17 1454.1 1654.54 1454.1 M1654.54 1450.39 Q1660.35 1450.39 1663.4 1455 Q1666.48 1459.58 1666.48 1468.33 Q1666.48 1477.06 1663.4 1481.67 Q1660.35 1486.25 1654.54 1486.25 Q1648.73 1486.25 1645.65 1481.67 Q1642.59 1477.06 1642.59 1468.33 Q1642.59 1459.58 1645.65 1455 Q1648.73 1450.39 1654.54 1450.39 Z" fill="#000000" fill-rule="nonzero" fill-opacity="1" /><path clip-path="url(#clip050)" d="M1941.59 1451.02 L1959.95 1451.02 L1959.95 1454.96 L1945.87 1454.96 L1945.87 1463.43 Q1946.89 1463.08 1947.91 1462.92 Q1948.93 1462.73 1949.95 1462.73 Q1955.73 1462.73 1959.11 1465.9 Q1962.49 1469.08 1962.49 1474.49 Q1962.49 1480.07 1959.02 1483.17 Q1955.55 1486.25 1949.23 1486.25 Q1947.05 1486.25 1944.78 1485.88 Q1942.54 1485.51 1940.13 1484.77 L1940.13 1480.07 Q1942.22 1481.2 1944.44 1481.76 Q1946.66 1482.32 1949.14 1482.32 Q1953.14 1482.32 1955.48 1480.21 Q1957.82 1478.1 1957.82 1474.49 Q1957.82 1470.88 1955.48 1468.77 Q1953.14 1466.67 1949.14 1466.67 Q1947.26 1466.67 1945.39 1467.08 Q1943.53 1467.5 1941.59 1468.38 L1941.59 1451.02 Z" fill="#000000" fill-rule="nonzero" fill-opacity="1" /><path clip-path="url(#clip050)" d="M1981.71 1454.1 Q1978.09 1454.1 1976.27 1457.66 Q1974.46 1461.2 1974.46 1468.33 Q1974.46 1475.44 1976.27 1479.01 Q1978.09 1482.55 1981.71 1482.55 Q1985.34 1482.55 1987.15 1479.01 Q1988.97 1475.44 1988.97 1468.33 Q1988.97 1461.2 1987.15 1457.66 Q1985.34 1454.1 1981.71 1454.1 M1981.71 1450.39 Q1987.52 1450.39 1990.57 1455 Q1993.65 1459.58 1993.65 1468.33 Q1993.65 1477.06 1990.57 1481.67 Q1987.52 1486.25 1981.71 1486.25 Q1975.9 1486.25 1972.82 1481.67 Q1969.76 1477.06 1969.76 1468.33 Q1969.76 1459.58 1972.82 1455 Q1975.9 1450.39 1981.71 1450.39 Z" fill="#000000" fill-rule="nonzero" fill-opacity="1" /><path clip-path="url(#clip050)" d="M2280.13 1466.44 Q2276.99 1466.44 2275.13 1468.59 Q2273.31 1470.74 2273.31 1474.49 Q2273.31 1478.22 2275.13 1480.39 Q2276.99 1482.55 2280.13 1482.55 Q2283.28 1482.55 2285.11 1480.39 Q2286.96 1478.22 2286.96 1474.49 Q2286.96 1470.74 2285.11 1468.59 Q2283.28 1466.44 2280.13 1466.44 M2289.42 1451.78 L2289.42 1456.04 Q2287.66 1455.21 2285.85 1454.77 Q2284.07 1454.33 2282.31 1454.33 Q2277.68 1454.33 2275.23 1457.45 Q2272.8 1460.58 2272.45 1466.9 Q2273.81 1464.89 2275.87 1463.82 Q2277.93 1462.73 2280.41 1462.73 Q2285.62 1462.73 2288.63 1465.9 Q2291.66 1469.05 2291.66 1474.49 Q2291.66 1479.82 2288.51 1483.03 Q2285.37 1486.25 2280.13 1486.25 Q2274.14 1486.25 2270.97 1481.67 Q2267.8 1477.06 2267.8 1468.33 Q2267.8 1460.14 2271.68 1455.28 Q2275.57 1450.39 2282.12 1450.39 Q2283.88 1450.39 2285.67 1450.74 Q2287.47 1451.09 2289.42 1451.78 Z" fill="#000000" fill-rule="nonzero" fill-opacity="1" /><path clip-path="url(#clip050)" d="M2309.72 1454.1 Q2306.11 1454.1 2304.28 1457.66 Q2302.47 1461.2 2302.47 1468.33 Q2302.47 1475.44 2304.28 1479.01 Q2306.11 1482.55 2309.72 1482.55 Q2313.35 1482.55 2315.16 1479.01 Q2316.99 1475.44 2316.99 1468.33 Q2316.99 1461.2 2315.16 1457.66 Q2313.35 1454.1 2309.72 1454.1 M2309.72 1450.39 Q2315.53 1450.39 2318.58 1455 Q2321.66 1459.58 2321.66 1468.33 Q2321.66 1477.06 2318.58 1481.67 Q2315.53 1486.25 2309.72 1486.25 Q2303.91 1486.25 2300.83 1481.67 Q2297.77 1477.06 2297.77 1468.33 Q2297.77 1459.58 2300.83 1455 Q2303.91 1450.39 2309.72 1450.39 Z" fill="#000000" fill-rule="nonzero" fill-opacity="1" /><path clip-path="url(#clip050)" d="M1136.81 1520.52 L1166.86 1520.52 L1166.86 1525.93 L1143.24 1525.93 L1143.24 1540 L1165.87 1540 L1165.87 1545.41 L1143.24 1545.41 L1143.24 1562.63 L1167.43 1562.63 L1167.43 1568.04 L1136.81 1568.04 L1136.81 1520.52 Z" fill="#000000" fill-rule="nonzero" fill-opacity="1" /><path clip-path="url(#clip050)" d="M1178 1520.52 L1187.58 1520.52 L1199.7 1552.86 L1211.89 1520.52 L1221.47 1520.52 L1221.47 1568.04 L1215.2 1568.04 L1215.2 1526.32 L1202.95 1558.91 L1196.49 1558.91 L1184.24 1526.32 L1184.24 1568.04 L1178 1568.04 L1178 1520.52 Z" fill="#000000" fill-rule="nonzero" fill-opacity="1" /><path clip-path="url(#clip050)" d="M1254.7 1532.4 L1260.56 1532.4 L1260.56 1568.04 L1254.7 1568.04 L1254.7 1532.4 M1254.7 1518.52 L1260.56 1518.52 L1260.56 1525.93 L1254.7 1525.93 L1254.7 1518.52 Z" fill="#000000" fill-rule="nonzero" fill-opacity="1" /><path clip-path="url(#clip050)" d="M1278.61 1522.27 L1278.61 1532.4 L1290.67 1532.4 L1290.67 1536.95 L1278.61 1536.95 L1278.61 1556.3 Q1278.61 1560.66 1279.78 1561.9 Q1280.99 1563.14 1284.65 1563.14 L1290.67 1563.14 L1290.67 1568.04 L1284.65 1568.04 Q1277.88 1568.04 1275.3 1565.53 Q1272.72 1562.98 1272.72 1556.3 L1272.72 1536.95 L1268.42 1536.95 L1268.42 1532.4 L1272.72 1532.4 L1272.72 1522.27 L1278.61 1522.27 Z" fill="#000000" fill-rule="nonzero" fill-opacity="1" /><path clip-path="url(#clip050)" d="M1328.86 1548.76 L1328.86 1551.62 L1301.94 1551.62 Q1302.32 1557.67 1305.57 1560.85 Q1308.84 1564 1314.67 1564 Q1318.04 1564 1321.19 1563.17 Q1324.38 1562.35 1327.5 1560.69 L1327.5 1566.23 Q1324.34 1567.57 1321.03 1568.27 Q1317.72 1568.97 1314.32 1568.97 Q1305.79 1568.97 1300.79 1564 Q1295.83 1559.04 1295.83 1550.57 Q1295.83 1541.82 1300.54 1536.69 Q1305.28 1531.54 1313.3 1531.54 Q1320.49 1531.54 1324.66 1536.18 Q1328.86 1540.8 1328.86 1548.76 M1323.01 1547.04 Q1322.94 1542.23 1320.3 1539.37 Q1317.69 1536.5 1313.36 1536.5 Q1308.46 1536.5 1305.5 1539.27 Q1302.57 1542.04 1302.13 1547.07 L1323.01 1547.04 Z" fill="#000000" fill-rule="nonzero" fill-opacity="1" /><path clip-path="url(#clip050)" d="M1359.13 1537.87 Q1358.15 1537.3 1356.97 1537.04 Q1355.82 1536.76 1354.42 1536.76 Q1349.46 1536.76 1346.78 1540 Q1344.14 1543.22 1344.14 1549.27 L1344.14 1568.04 L1338.25 1568.04 L1338.25 1532.4 L1344.14 1532.4 L1344.14 1537.93 Q1345.99 1534.69 1348.95 1533.13 Q1351.91 1531.54 1356.14 1531.54 Q1356.75 1531.54 1357.48 1531.63 Q1358.21 1531.7 1359.1 1531.85 L1359.13 1537.87 Z" fill="#000000" fill-rule="nonzero" fill-opacity="1" /><path clip-path="url(#clip050)" d="M1381.48 1550.12 Q1374.38 1550.12 1371.64 1551.75 Q1368.9 1553.37 1368.9 1557.29 Q1368.9 1560.4 1370.94 1562.25 Q1373.01 1564.07 1376.54 1564.07 Q1381.41 1564.07 1384.34 1560.63 Q1387.3 1557.16 1387.3 1551.43 L1387.3 1550.12 L1381.48 1550.12 M1393.16 1547.71 L1393.16 1568.04 L1387.3 1568.04 L1387.3 1562.63 Q1385.3 1565.88 1382.3 1567.44 Q1379.31 1568.97 1374.98 1568.97 Q1369.51 1568.97 1366.26 1565.91 Q1363.05 1562.82 1363.05 1557.67 Q1363.05 1551.65 1367.06 1548.6 Q1371.1 1545.54 1379.09 1545.54 L1387.3 1545.54 L1387.3 1544.97 Q1387.3 1540.93 1384.63 1538.73 Q1381.99 1536.5 1377.18 1536.5 Q1374.12 1536.5 1371.23 1537.23 Q1368.33 1537.97 1365.66 1539.43 L1365.66 1534.02 Q1368.87 1532.78 1371.9 1532.17 Q1374.92 1531.54 1377.78 1531.54 Q1385.52 1531.54 1389.34 1535.55 Q1393.16 1539.56 1393.16 1547.71 Z" fill="#000000" fill-rule="nonzero" fill-opacity="1" /><path clip-path="url(#clip050)" d="M1411.01 1522.27 L1411.01 1532.4 L1423.08 1532.4 L1423.08 1536.95 L1411.01 1536.95 L1411.01 1556.3 Q1411.01 1560.66 1412.19 1561.9 Q1413.4 1563.14 1417.06 1563.14 L1423.08 1563.14 L1423.08 1568.04 L1417.06 1568.04 Q1410.28 1568.04 1407.7 1565.53 Q1405.13 1562.98 1405.13 1556.3 L1405.13 1536.95 L1400.83 1536.95 L1400.83 1532.4 L1405.13 1532.4 L1405.13 1522.27 L1411.01 1522.27 Z" fill="#000000" fill-rule="nonzero" fill-opacity="1" /><path clip-path="url(#clip050)" d="M1430.78 1532.4 L1436.64 1532.4 L1436.64 1568.04 L1430.78 1568.04 L1430.78 1532.4 M1430.78 1518.52 L1436.64 1518.52 L1436.64 1525.93 L1430.78 1525.93 L1430.78 1518.52 Z" fill="#000000" fill-rule="nonzero" fill-opacity="1" /><path clip-path="url(#clip050)" d="M1462.7 1536.5 Q1457.99 1536.5 1455.26 1540.19 Q1452.52 1543.85 1452.52 1550.25 Q1452.52 1556.65 1455.22 1560.34 Q1457.96 1564 1462.7 1564 Q1467.38 1564 1470.12 1560.31 Q1472.86 1556.62 1472.86 1550.25 Q1472.86 1543.92 1470.12 1540.23 Q1467.38 1536.5 1462.7 1536.5 M1462.7 1531.54 Q1470.34 1531.54 1474.7 1536.5 Q1479.06 1541.47 1479.06 1550.25 Q1479.06 1559 1474.7 1564 Q1470.34 1568.97 1462.7 1568.97 Q1455.03 1568.97 1450.67 1564 Q1446.34 1559 1446.34 1550.25 Q1446.34 1541.47 1450.67 1536.5 Q1455.03 1531.54 1462.7 1531.54 Z" fill="#000000" fill-rule="nonzero" fill-opacity="1" /><path clip-path="url(#clip050)" d="M1518.4 1546.53 L1518.4 1568.04 L1512.55 1568.04 L1512.55 1546.72 Q1512.55 1541.66 1510.57 1539.14 Q1508.6 1536.63 1504.65 1536.63 Q1499.91 1536.63 1497.17 1539.65 Q1494.44 1542.68 1494.44 1547.9 L1494.44 1568.04 L1488.55 1568.04 L1488.55 1532.4 L1494.44 1532.4 L1494.44 1537.93 Q1496.54 1534.72 1499.37 1533.13 Q1502.23 1531.54 1505.96 1531.54 Q1512.1 1531.54 1515.25 1535.36 Q1518.4 1539.14 1518.4 1546.53 Z" fill="#000000" fill-rule="nonzero" fill-opacity="1" /><polyline clip-path="url(#clip050)" style="stroke:#000000; stroke-linecap:round; stroke-linejoin:round; stroke-width:4; stroke-opacity:1; fill:none" points="302.458,1423.18 302.458,140.752 "/>
<polyline clip-path="url(#clip050)" style="stroke:#000000; stroke-linecap:round; stroke-linejoin:round; stroke-width:4; stroke-opacity:1; fill:none" points="302.458,1278.31 321.356,1278.31 "/>
<polyline clip-path="url(#clip050)" style="stroke:#000000; stroke-linecap:round; stroke-linejoin:round; stroke-width:4; stroke-opacity:1; fill:none" points="302.458,1106.54 321.356,1106.54 "/>
<polyline clip-path="url(#clip050)" style="stroke:#000000; stroke-linecap:round; stroke-linejoin:round; stroke-width:4; stroke-opacity:1; fill:none" points="302.458,934.778 321.356,934.778 "/>
<polyline clip-path="url(#clip050)" style="stroke:#000000; stroke-linecap:round; stroke-linejoin:round; stroke-width:4; stroke-opacity:1; fill:none" points="302.458,763.012 321.356,763.012 "/>
<polyline clip-path="url(#clip050)" style="stroke:#000000; stroke-linecap:round; stroke-linejoin:round; stroke-width:4; stroke-opacity:1; fill:none" points="302.458,591.246 321.356,591.246 "/>
<polyline clip-path="url(#clip050)" style="stroke:#000000; stroke-linecap:round; stroke-linejoin:round; stroke-width:4; stroke-opacity:1; fill:none" points="302.458,419.48 321.356,419.48 "/>
<polyline clip-path="url(#clip050)" style="stroke:#000000; stroke-linecap:round; stroke-linejoin:round; stroke-width:4; stroke-opacity:1; fill:none" points="302.458,247.714 321.356,247.714 "/>
<path clip-path="url(#clip050)" d="M114.26 1278.76 L143.936 1278.76 L143.936 1282.7 L114.26 1282.7 L114.26 1278.76 Z" fill="#000000" fill-rule="nonzero" fill-opacity="1" /><path clip-path="url(#clip050)" d="M154.075 1261.03 L172.431 1261.03 L172.431 1264.96 L158.357 1264.96 L158.357 1273.44 Q159.376 1273.09 160.394 1272.93 Q161.413 1272.74 162.431 1272.74 Q168.218 1272.74 171.598 1275.91 Q174.977 1279.08 174.977 1284.5 Q174.977 1290.08 171.505 1293.18 Q168.033 1296.26 161.714 1296.26 Q159.538 1296.26 157.269 1295.89 Q155.024 1295.52 152.616 1294.78 L152.616 1290.08 Q154.7 1291.21 156.922 1291.77 Q159.144 1292.33 161.621 1292.33 Q165.626 1292.33 167.964 1290.22 Q170.302 1288.11 170.302 1284.5 Q170.302 1280.89 167.964 1278.78 Q165.626 1276.68 161.621 1276.68 Q159.746 1276.68 157.871 1277.09 Q156.019 1277.51 154.075 1278.39 L154.075 1261.03 Z" fill="#000000" fill-rule="nonzero" fill-opacity="1" /><path clip-path="url(#clip050)" d="M197.037 1265.1 L185.232 1283.55 L197.037 1283.55 L197.037 1265.1 M195.811 1261.03 L201.69 1261.03 L201.69 1283.55 L206.621 1283.55 L206.621 1287.44 L201.69 1287.44 L201.69 1295.59 L197.037 1295.59 L197.037 1287.44 L181.436 1287.44 L181.436 1282.93 L195.811 1261.03 Z" fill="#000000" fill-rule="nonzero" fill-opacity="1" /><path clip-path="url(#clip050)" d="M224.352 1264.11 Q220.741 1264.11 218.912 1267.67 Q217.107 1271.21 217.107 1278.34 Q217.107 1285.45 218.912 1289.02 Q220.741 1292.56 224.352 1292.56 Q227.986 1292.56 229.792 1289.02 Q231.621 1285.45 231.621 1278.34 Q231.621 1271.21 229.792 1267.67 Q227.986 1264.11 224.352 1264.11 M224.352 1260.4 Q230.162 1260.4 233.218 1265.01 Q236.297 1269.59 236.297 1278.34 Q236.297 1287.07 233.218 1291.68 Q230.162 1296.26 224.352 1296.26 Q218.542 1296.26 215.463 1291.68 Q212.408 1287.07 212.408 1278.34 Q212.408 1269.59 215.463 1265.01 Q218.542 1260.4 224.352 1260.4 Z" fill="#000000" fill-rule="nonzero" fill-opacity="1" /><path clip-path="url(#clip050)" d="M254.514 1264.11 Q250.903 1264.11 249.074 1267.67 Q247.269 1271.21 247.269 1278.34 Q247.269 1285.45 249.074 1289.02 Q250.903 1292.56 254.514 1292.56 Q258.148 1292.56 259.954 1289.02 Q261.783 1285.45 261.783 1278.34 Q261.783 1271.21 259.954 1267.67 Q258.148 1264.11 254.514 1264.11 M254.514 1260.4 Q260.324 1260.4 263.38 1265.01 Q266.458 1269.59 266.458 1278.34 Q266.458 1287.07 263.38 1291.68 Q260.324 1296.26 254.514 1296.26 Q248.704 1296.26 245.625 1291.68 Q242.57 1287.07 242.57 1278.34 Q242.57 1269.59 245.625 1265.01 Q248.704 1260.4 254.514 1260.4 Z" fill="#000000" fill-rule="nonzero" fill-opacity="1" /><path clip-path="url(#clip050)" d="M114.26 1106.99 L143.936 1106.99 L143.936 1110.93 L114.26 1110.93 L114.26 1106.99 Z" fill="#000000" fill-rule="nonzero" fill-opacity="1" /><path clip-path="url(#clip050)" d="M154.075 1089.26 L172.431 1089.26 L172.431 1093.2 L158.357 1093.2 L158.357 1101.67 Q159.376 1101.32 160.394 1101.16 Q161.413 1100.98 162.431 1100.98 Q168.218 1100.98 171.598 1104.15 Q174.977 1107.32 174.977 1112.74 Q174.977 1118.31 171.505 1121.42 Q168.033 1124.49 161.714 1124.49 Q159.538 1124.49 157.269 1124.12 Q155.024 1123.75 152.616 1123.01 L152.616 1118.31 Q154.7 1119.45 156.922 1120 Q159.144 1120.56 161.621 1120.56 Q165.626 1120.56 167.964 1118.45 Q170.302 1116.35 170.302 1112.74 Q170.302 1109.12 167.964 1107.02 Q165.626 1104.91 161.621 1104.91 Q159.746 1104.91 157.871 1105.33 Q156.019 1105.74 154.075 1106.62 L154.075 1089.26 Z" fill="#000000" fill-rule="nonzero" fill-opacity="1" /><path clip-path="url(#clip050)" d="M198.357 1105.19 Q201.713 1105.91 203.588 1108.18 Q205.487 1110.44 205.487 1113.78 Q205.487 1118.89 201.968 1121.69 Q198.45 1124.49 191.968 1124.49 Q189.792 1124.49 187.477 1124.05 Q185.186 1123.64 182.732 1122.78 L182.732 1118.27 Q184.676 1119.4 186.991 1119.98 Q189.306 1120.56 191.829 1120.56 Q196.227 1120.56 198.519 1118.82 Q200.834 1117.09 200.834 1113.78 Q200.834 1110.72 198.681 1109.01 Q196.551 1107.27 192.732 1107.27 L188.704 1107.27 L188.704 1103.43 L192.917 1103.43 Q196.366 1103.43 198.195 1102.06 Q200.024 1100.68 200.024 1098.08 Q200.024 1095.42 198.125 1094.01 Q196.25 1092.57 192.732 1092.57 Q190.811 1092.57 188.612 1092.99 Q186.413 1093.41 183.774 1094.29 L183.774 1090.12 Q186.436 1089.38 188.75 1089.01 Q191.088 1088.64 193.149 1088.64 Q198.473 1088.64 201.575 1091.07 Q204.676 1093.48 204.676 1097.6 Q204.676 1100.47 203.033 1102.46 Q201.389 1104.43 198.357 1105.19 Z" fill="#000000" fill-rule="nonzero" fill-opacity="1" /><path clip-path="url(#clip050)" d="M224.352 1092.34 Q220.741 1092.34 218.912 1095.91 Q217.107 1099.45 217.107 1106.58 Q217.107 1113.68 218.912 1117.25 Q220.741 1120.79 224.352 1120.79 Q227.986 1120.79 229.792 1117.25 Q231.621 1113.68 231.621 1106.58 Q231.621 1099.45 229.792 1095.91 Q227.986 1092.34 224.352 1092.34 M224.352 1088.64 Q230.162 1088.64 233.218 1093.24 Q236.297 1097.83 236.297 1106.58 Q236.297 1115.3 233.218 1119.91 Q230.162 1124.49 224.352 1124.49 Q218.542 1124.49 215.463 1119.91 Q212.408 1115.3 212.408 1106.58 Q212.408 1097.83 215.463 1093.24 Q218.542 1088.64 224.352 1088.64 Z" fill="#000000" fill-rule="nonzero" fill-opacity="1" /><path clip-path="url(#clip050)" d="M254.514 1092.34 Q250.903 1092.34 249.074 1095.91 Q247.269 1099.45 247.269 1106.58 Q247.269 1113.68 249.074 1117.25 Q250.903 1120.79 254.514 1120.79 Q258.148 1120.79 259.954 1117.25 Q261.783 1113.68 261.783 1106.58 Q261.783 1099.45 259.954 1095.91 Q258.148 1092.34 254.514 1092.34 M254.514 1088.64 Q260.324 1088.64 263.38 1093.24 Q266.458 1097.83 266.458 1106.58 Q266.458 1115.3 263.38 1119.91 Q260.324 1124.49 254.514 1124.49 Q248.704 1124.49 245.625 1119.91 Q242.57 1115.3 242.57 1106.58 Q242.57 1097.83 245.625 1093.24 Q248.704 1088.64 254.514 1088.64 Z" fill="#000000" fill-rule="nonzero" fill-opacity="1" /><path clip-path="url(#clip050)" d="M114.26 935.229 L143.936 935.229 L143.936 939.164 L114.26 939.164 L114.26 935.229 Z" fill="#000000" fill-rule="nonzero" fill-opacity="1" /><path clip-path="url(#clip050)" d="M154.075 917.498 L172.431 917.498 L172.431 921.433 L158.357 921.433 L158.357 929.905 Q159.376 929.558 160.394 929.396 Q161.413 929.21 162.431 929.21 Q168.218 929.21 171.598 932.382 Q174.977 935.553 174.977 940.97 Q174.977 946.548 171.505 949.65 Q168.033 952.729 161.714 952.729 Q159.538 952.729 157.269 952.358 Q155.024 951.988 152.616 951.247 L152.616 946.548 Q154.7 947.683 156.922 948.238 Q159.144 948.794 161.621 948.794 Q165.626 948.794 167.964 946.687 Q170.302 944.581 170.302 940.97 Q170.302 937.359 167.964 935.252 Q165.626 933.146 161.621 933.146 Q159.746 933.146 157.871 933.562 Q156.019 933.979 154.075 934.859 L154.075 917.498 Z" fill="#000000" fill-rule="nonzero" fill-opacity="1" /><path clip-path="url(#clip050)" d="M188.218 948.122 L204.537 948.122 L204.537 952.058 L182.593 952.058 L182.593 948.122 Q185.255 945.368 189.838 940.738 Q194.445 936.085 195.625 934.743 Q197.871 932.22 198.75 930.484 Q199.653 928.724 199.653 927.035 Q199.653 924.28 197.709 922.544 Q195.787 920.808 192.686 920.808 Q190.487 920.808 188.033 921.572 Q185.602 922.335 182.825 923.886 L182.825 919.164 Q185.649 918.03 188.102 917.451 Q190.556 916.873 192.593 916.873 Q197.963 916.873 201.158 919.558 Q204.352 922.243 204.352 926.734 Q204.352 928.863 203.542 930.785 Q202.755 932.683 200.649 935.275 Q200.07 935.947 196.968 939.164 Q193.866 942.359 188.218 948.122 Z" fill="#000000" fill-rule="nonzero" fill-opacity="1" /><path clip-path="url(#clip050)" d="M224.352 920.576 Q220.741 920.576 218.912 924.141 Q217.107 927.683 217.107 934.812 Q217.107 941.919 218.912 945.484 Q220.741 949.025 224.352 949.025 Q227.986 949.025 229.792 945.484 Q231.621 941.919 231.621 934.812 Q231.621 927.683 229.792 924.141 Q227.986 920.576 224.352 920.576 M224.352 916.873 Q230.162 916.873 233.218 921.479 Q236.297 926.062 236.297 934.812 Q236.297 943.539 233.218 948.146 Q230.162 952.729 224.352 952.729 Q218.542 952.729 215.463 948.146 Q212.408 943.539 212.408 934.812 Q212.408 926.062 215.463 921.479 Q218.542 916.873 224.352 916.873 Z" fill="#000000" fill-rule="nonzero" fill-opacity="1" /><path clip-path="url(#clip050)" d="M254.514 920.576 Q250.903 920.576 249.074 924.141 Q247.269 927.683 247.269 934.812 Q247.269 941.919 249.074 945.484 Q250.903 949.025 254.514 949.025 Q258.148 949.025 259.954 945.484 Q261.783 941.919 261.783 934.812 Q261.783 927.683 259.954 924.141 Q258.148 920.576 254.514 920.576 M254.514 916.873 Q260.324 916.873 263.38 921.479 Q266.458 926.062 266.458 934.812 Q266.458 943.539 263.38 948.146 Q260.324 952.729 254.514 952.729 Q248.704 952.729 245.625 948.146 Q242.57 943.539 242.57 934.812 Q242.57 926.062 245.625 921.479 Q248.704 916.873 254.514 916.873 Z" fill="#000000" fill-rule="nonzero" fill-opacity="1" /><path clip-path="url(#clip050)" d="M114.26 763.463 L143.936 763.463 L143.936 767.398 L114.26 767.398 L114.26 763.463 Z" fill="#000000" fill-rule="nonzero" fill-opacity="1" /><path clip-path="url(#clip050)" d="M154.075 745.732 L172.431 745.732 L172.431 749.667 L158.357 749.667 L158.357 758.139 Q159.376 757.792 160.394 757.63 Q161.413 757.445 162.431 757.445 Q168.218 757.445 171.598 760.616 Q174.977 763.787 174.977 769.204 Q174.977 774.782 171.505 777.884 Q168.033 780.963 161.714 780.963 Q159.538 780.963 157.269 780.593 Q155.024 780.222 152.616 779.482 L152.616 774.782 Q154.7 775.917 156.922 776.472 Q159.144 777.028 161.621 777.028 Q165.626 777.028 167.964 774.921 Q170.302 772.815 170.302 769.204 Q170.302 765.593 167.964 763.486 Q165.626 761.38 161.621 761.38 Q159.746 761.38 157.871 761.796 Q156.019 762.213 154.075 763.093 L154.075 745.732 Z" fill="#000000" fill-rule="nonzero" fill-opacity="1" /><path clip-path="url(#clip050)" d="M185.001 776.357 L192.639 776.357 L192.639 749.991 L184.329 751.658 L184.329 747.398 L192.593 745.732 L197.269 745.732 L197.269 776.357 L204.908 776.357 L204.908 780.292 L185.001 780.292 L185.001 776.357 Z" fill="#000000" fill-rule="nonzero" fill-opacity="1" /><path clip-path="url(#clip050)" d="M224.352 748.81 Q220.741 748.81 218.912 752.375 Q217.107 755.917 217.107 763.046 Q217.107 770.153 218.912 773.718 Q220.741 777.259 224.352 777.259 Q227.986 777.259 229.792 773.718 Q231.621 770.153 231.621 763.046 Q231.621 755.917 229.792 752.375 Q227.986 748.81 224.352 748.81 M224.352 745.107 Q230.162 745.107 233.218 749.713 Q236.297 754.296 236.297 763.046 Q236.297 771.773 233.218 776.38 Q230.162 780.963 224.352 780.963 Q218.542 780.963 215.463 776.38 Q212.408 771.773 212.408 763.046 Q212.408 754.296 215.463 749.713 Q218.542 745.107 224.352 745.107 Z" fill="#000000" fill-rule="nonzero" fill-opacity="1" /><path clip-path="url(#clip050)" d="M254.514 748.81 Q250.903 748.81 249.074 752.375 Q247.269 755.917 247.269 763.046 Q247.269 770.153 249.074 773.718 Q250.903 777.259 254.514 777.259 Q258.148 777.259 259.954 773.718 Q261.783 770.153 261.783 763.046 Q261.783 755.917 259.954 752.375 Q258.148 748.81 254.514 748.81 M254.514 745.107 Q260.324 745.107 263.38 749.713 Q266.458 754.296 266.458 763.046 Q266.458 771.773 263.38 776.38 Q260.324 780.963 254.514 780.963 Q248.704 780.963 245.625 776.38 Q242.57 771.773 242.57 763.046 Q242.57 754.296 245.625 749.713 Q248.704 745.107 254.514 745.107 Z" fill="#000000" fill-rule="nonzero" fill-opacity="1" /><path clip-path="url(#clip050)" d="M114.26 591.697 L143.936 591.697 L143.936 595.632 L114.26 595.632 L114.26 591.697 Z" fill="#000000" fill-rule="nonzero" fill-opacity="1" /><path clip-path="url(#clip050)" d="M154.075 573.966 L172.431 573.966 L172.431 577.901 L158.357 577.901 L158.357 586.373 Q159.376 586.026 160.394 585.864 Q161.413 585.679 162.431 585.679 Q168.218 585.679 171.598 588.85 Q174.977 592.021 174.977 597.438 Q174.977 603.017 171.505 606.118 Q168.033 609.197 161.714 609.197 Q159.538 609.197 157.269 608.827 Q155.024 608.456 152.616 607.716 L152.616 603.017 Q154.7 604.151 156.922 604.706 Q159.144 605.262 161.621 605.262 Q165.626 605.262 167.964 603.156 Q170.302 601.049 170.302 597.438 Q170.302 593.827 167.964 591.72 Q165.626 589.614 161.621 589.614 Q159.746 589.614 157.871 590.031 Q156.019 590.447 154.075 591.327 L154.075 573.966 Z" fill="#000000" fill-rule="nonzero" fill-opacity="1" /><path clip-path="url(#clip050)" d="M194.19 577.045 Q190.579 577.045 188.75 580.609 Q186.945 584.151 186.945 591.281 Q186.945 598.387 188.75 601.952 Q190.579 605.493 194.19 605.493 Q197.825 605.493 199.63 601.952 Q201.459 598.387 201.459 591.281 Q201.459 584.151 199.63 580.609 Q197.825 577.045 194.19 577.045 M194.19 573.341 Q200 573.341 203.056 577.947 Q206.135 582.531 206.135 591.281 Q206.135 600.007 203.056 604.614 Q200 609.197 194.19 609.197 Q188.38 609.197 185.301 604.614 Q182.246 600.007 182.246 591.281 Q182.246 582.531 185.301 577.947 Q188.38 573.341 194.19 573.341 Z" fill="#000000" fill-rule="nonzero" fill-opacity="1" /><path clip-path="url(#clip050)" d="M224.352 577.045 Q220.741 577.045 218.912 580.609 Q217.107 584.151 217.107 591.281 Q217.107 598.387 218.912 601.952 Q220.741 605.493 224.352 605.493 Q227.986 605.493 229.792 601.952 Q231.621 598.387 231.621 591.281 Q231.621 584.151 229.792 580.609 Q227.986 577.045 224.352 577.045 M224.352 573.341 Q230.162 573.341 233.218 577.947 Q236.297 582.531 236.297 591.281 Q236.297 600.007 233.218 604.614 Q230.162 609.197 224.352 609.197 Q218.542 609.197 215.463 604.614 Q212.408 600.007 212.408 591.281 Q212.408 582.531 215.463 577.947 Q218.542 573.341 224.352 573.341 Z" fill="#000000" fill-rule="nonzero" fill-opacity="1" /><path clip-path="url(#clip050)" d="M254.514 577.045 Q250.903 577.045 249.074 580.609 Q247.269 584.151 247.269 591.281 Q247.269 598.387 249.074 601.952 Q250.903 605.493 254.514 605.493 Q258.148 605.493 259.954 601.952 Q261.783 598.387 261.783 591.281 Q261.783 584.151 259.954 580.609 Q258.148 577.045 254.514 577.045 M254.514 573.341 Q260.324 573.341 263.38 577.947 Q266.458 582.531 266.458 591.281 Q266.458 600.007 263.38 604.614 Q260.324 609.197 254.514 609.197 Q248.704 609.197 245.625 604.614 Q242.57 600.007 242.57 591.281 Q242.57 582.531 245.625 577.947 Q248.704 573.341 254.514 573.341 Z" fill="#000000" fill-rule="nonzero" fill-opacity="1" /><path clip-path="url(#clip050)" d="M114.26 419.931 L143.936 419.931 L143.936 423.867 L114.26 423.867 L114.26 419.931 Z" fill="#000000" fill-rule="nonzero" fill-opacity="1" /><path clip-path="url(#clip050)" d="M166.876 406.274 L155.07 424.723 L166.876 424.723 L166.876 406.274 M165.649 402.2 L171.528 402.2 L171.528 424.723 L176.459 424.723 L176.459 428.612 L171.528 428.612 L171.528 436.76 L166.876 436.76 L166.876 428.612 L151.274 428.612 L151.274 424.098 L165.649 402.2 Z" fill="#000000" fill-rule="nonzero" fill-opacity="1" /><path clip-path="url(#clip050)" d="M184.329 436.042 L184.329 431.783 Q186.088 432.616 187.894 433.056 Q189.7 433.496 191.436 433.496 Q196.065 433.496 198.496 430.394 Q200.95 427.269 201.297 420.927 Q199.954 422.917 197.894 423.982 Q195.834 425.047 193.334 425.047 Q188.149 425.047 185.116 421.922 Q182.107 418.774 182.107 413.334 Q182.107 408.01 185.255 404.793 Q188.403 401.575 193.635 401.575 Q199.63 401.575 202.778 406.181 Q205.949 410.765 205.949 419.515 Q205.949 427.686 202.061 432.57 Q198.195 437.431 191.644 437.431 Q189.885 437.431 188.079 437.084 Q186.274 436.737 184.329 436.042 M193.635 421.39 Q196.783 421.39 198.612 419.237 Q200.463 417.084 200.463 413.334 Q200.463 409.607 198.612 407.455 Q196.783 405.279 193.635 405.279 Q190.487 405.279 188.635 407.455 Q186.806 409.607 186.806 413.334 Q186.806 417.084 188.635 419.237 Q190.487 421.39 193.635 421.39 Z" fill="#000000" fill-rule="nonzero" fill-opacity="1" /><path clip-path="url(#clip050)" d="M224.352 405.279 Q220.741 405.279 218.912 408.843 Q217.107 412.385 217.107 419.515 Q217.107 426.621 218.912 430.186 Q220.741 433.728 224.352 433.728 Q227.986 433.728 229.792 430.186 Q231.621 426.621 231.621 419.515 Q231.621 412.385 229.792 408.843 Q227.986 405.279 224.352 405.279 M224.352 401.575 Q230.162 401.575 233.218 406.181 Q236.297 410.765 236.297 419.515 Q236.297 428.242 233.218 432.848 Q230.162 437.431 224.352 437.431 Q218.542 437.431 215.463 432.848 Q212.408 428.242 212.408 419.515 Q212.408 410.765 215.463 406.181 Q218.542 401.575 224.352 401.575 Z" fill="#000000" fill-rule="nonzero" fill-opacity="1" /><path clip-path="url(#clip050)" d="M254.514 405.279 Q250.903 405.279 249.074 408.843 Q247.269 412.385 247.269 419.515 Q247.269 426.621 249.074 430.186 Q250.903 433.728 254.514 433.728 Q258.148 433.728 259.954 430.186 Q261.783 426.621 261.783 419.515 Q261.783 412.385 259.954 408.843 Q258.148 405.279 254.514 405.279 M254.514 401.575 Q260.324 401.575 263.38 406.181 Q266.458 410.765 266.458 419.515 Q266.458 428.242 263.38 432.848 Q260.324 437.431 254.514 437.431 Q248.704 437.431 245.625 432.848 Q242.57 428.242 242.57 419.515 Q242.57 410.765 245.625 406.181 Q248.704 401.575 254.514 401.575 Z" fill="#000000" fill-rule="nonzero" fill-opacity="1" /><path clip-path="url(#clip050)" d="M114.26 248.166 L143.936 248.166 L143.936 252.101 L114.26 252.101 L114.26 248.166 Z" fill="#000000" fill-rule="nonzero" fill-opacity="1" /><path clip-path="url(#clip050)" d="M166.876 234.508 L155.07 252.957 L166.876 252.957 L166.876 234.508 M165.649 230.434 L171.528 230.434 L171.528 252.957 L176.459 252.957 L176.459 256.846 L171.528 256.846 L171.528 264.994 L166.876 264.994 L166.876 256.846 L151.274 256.846 L151.274 252.332 L165.649 230.434 Z" fill="#000000" fill-rule="nonzero" fill-opacity="1" /><path clip-path="url(#clip050)" d="M194.19 248.582 Q190.857 248.582 188.936 250.365 Q187.038 252.147 187.038 255.272 Q187.038 258.397 188.936 260.179 Q190.857 261.962 194.19 261.962 Q197.524 261.962 199.445 260.179 Q201.366 258.374 201.366 255.272 Q201.366 252.147 199.445 250.365 Q197.547 248.582 194.19 248.582 M189.514 246.591 Q186.505 245.851 184.815 243.791 Q183.149 241.73 183.149 238.767 Q183.149 234.624 186.088 232.217 Q189.051 229.809 194.19 229.809 Q199.352 229.809 202.292 232.217 Q205.232 234.624 205.232 238.767 Q205.232 241.73 203.542 243.791 Q201.875 245.851 198.889 246.591 Q202.269 247.378 204.144 249.67 Q206.042 251.962 206.042 255.272 Q206.042 260.295 202.963 262.98 Q199.908 265.665 194.19 265.665 Q188.473 265.665 185.394 262.98 Q182.338 260.295 182.338 255.272 Q182.338 251.962 184.237 249.67 Q186.135 247.378 189.514 246.591 M187.801 239.207 Q187.801 241.892 189.468 243.397 Q191.158 244.902 194.19 244.902 Q197.2 244.902 198.889 243.397 Q200.602 241.892 200.602 239.207 Q200.602 236.522 198.889 235.017 Q197.2 233.513 194.19 233.513 Q191.158 233.513 189.468 235.017 Q187.801 236.522 187.801 239.207 Z" fill="#000000" fill-rule="nonzero" fill-opacity="1" /><path clip-path="url(#clip050)" d="M224.352 233.513 Q220.741 233.513 218.912 237.078 Q217.107 240.619 217.107 247.749 Q217.107 254.855 218.912 258.42 Q220.741 261.962 224.352 261.962 Q227.986 261.962 229.792 258.42 Q231.621 254.855 231.621 247.749 Q231.621 240.619 229.792 237.078 Q227.986 233.513 224.352 233.513 M224.352 229.809 Q230.162 229.809 233.218 234.416 Q236.297 238.999 236.297 247.749 Q236.297 256.476 233.218 261.082 Q230.162 265.665 224.352 265.665 Q218.542 265.665 215.463 261.082 Q212.408 256.476 212.408 247.749 Q212.408 238.999 215.463 234.416 Q218.542 229.809 224.352 229.809 Z" fill="#000000" fill-rule="nonzero" fill-opacity="1" /><path clip-path="url(#clip050)" d="M254.514 233.513 Q250.903 233.513 249.074 237.078 Q247.269 240.619 247.269 247.749 Q247.269 254.855 249.074 258.42 Q250.903 261.962 254.514 261.962 Q258.148 261.962 259.954 258.42 Q261.783 254.855 261.783 247.749 Q261.783 240.619 259.954 237.078 Q258.148 233.513 254.514 233.513 M254.514 229.809 Q260.324 229.809 263.38 234.416 Q266.458 238.999 266.458 247.749 Q266.458 256.476 263.38 261.082 Q260.324 265.665 254.514 265.665 Q248.704 265.665 245.625 261.082 Q242.57 256.476 242.57 247.749 Q242.57 238.999 245.625 234.416 Q248.704 229.809 254.514 229.809 Z" fill="#000000" fill-rule="nonzero" fill-opacity="1" /><path clip-path="url(#clip050)" d="M21.7677 1074.22 L58.7206 1074.22 L58.7206 1066.45 Q58.7206 1056.61 54.2646 1052.06 Q49.8086 1047.48 40.1964 1047.48 Q30.6479 1047.48 26.2237 1052.06 Q21.7677 1056.61 21.7677 1066.45 L21.7677 1074.22 M16.4842 1080.64 L16.4842 1067.44 Q16.4842 1053.62 22.2451 1047.16 Q27.9743 1040.7 40.1964 1040.7 Q52.4822 1040.7 58.2432 1047.19 Q64.0042 1053.69 64.0042 1067.44 L64.0042 1080.64 L16.4842 1080.64 Z" fill="#000000" fill-rule="nonzero" fill-opacity="1" /><path clip-path="url(#clip050)" d="M46.0847 1014.51 Q46.0847 1021.6 47.7079 1024.34 Q49.3312 1027.08 53.2461 1027.08 Q56.3653 1027.08 58.2114 1025.04 Q60.0256 1022.97 60.0256 1019.44 Q60.0256 1014.57 56.5881 1011.64 Q53.1188 1008.68 47.3897 1008.68 L46.0847 1008.68 L46.0847 1014.51 M43.6657 1002.82 L64.0042 1002.82 L64.0042 1008.68 L58.5933 1008.68 Q61.8398 1010.69 63.3994 1013.68 Q64.9272 1016.67 64.9272 1021 Q64.9272 1026.47 61.8716 1029.72 Q58.7843 1032.93 53.6281 1032.93 Q47.6125 1032.93 44.5569 1028.92 Q41.5014 1024.88 41.5014 1016.89 L41.5014 1008.68 L40.9285 1008.68 Q36.8862 1008.68 34.6901 1011.35 Q32.4621 1014 32.4621 1018.8 Q32.4621 1021.86 33.1941 1024.75 Q33.9262 1027.65 35.3903 1030.32 L29.9795 1030.32 Q28.7381 1027.11 28.1334 1024.09 Q27.4968 1021.06 27.4968 1018.2 Q27.4968 1010.46 31.5072 1006.64 Q35.5176 1002.82 43.6657 1002.82 Z" fill="#000000" fill-rule="nonzero" fill-opacity="1" /><path clip-path="url(#clip050)" d="M18.2347 984.968 L28.3562 984.968 L28.3562 972.905 L32.9077 972.905 L32.9077 984.968 L52.2594 984.968 Q56.6199 984.968 57.8613 983.791 Q59.1026 982.581 59.1026 978.921 L59.1026 972.905 L64.0042 972.905 L64.0042 978.921 Q64.0042 985.7 61.4897 988.279 Q58.9434 990.857 52.2594 990.857 L32.9077 990.857 L32.9077 995.153 L28.3562 995.153 L28.3562 990.857 L18.2347 990.857 L18.2347 984.968 Z" fill="#000000" fill-rule="nonzero" fill-opacity="1" /><path clip-path="url(#clip050)" d="M46.0847 949.002 Q46.0847 956.1 47.7079 958.837 Q49.3312 961.574 53.2461 961.574 Q56.3653 961.574 58.2114 959.537 Q60.0256 957.469 60.0256 953.936 Q60.0256 949.066 56.5881 946.138 Q53.1188 943.178 47.3897 943.178 L46.0847 943.178 L46.0847 949.002 M43.6657 937.321 L64.0042 937.321 L64.0042 943.178 L58.5933 943.178 Q61.8398 945.183 63.3994 948.175 Q64.9272 951.166 64.9272 955.495 Q64.9272 960.97 61.8716 964.216 Q58.7843 967.431 53.6281 967.431 Q47.6125 967.431 44.5569 963.42 Q41.5014 959.378 41.5014 951.389 L41.5014 943.178 L40.9285 943.178 Q36.8862 943.178 34.6901 945.851 Q32.4621 948.493 32.4621 953.299 Q32.4621 956.355 33.1941 959.251 Q33.9262 962.147 35.3903 964.821 L29.9795 964.821 Q28.7381 961.606 28.1334 958.583 Q27.4968 955.559 27.4968 952.694 Q27.4968 944.96 31.5072 941.14 Q35.5176 937.321 43.6657 937.321 Z" fill="#000000" fill-rule="nonzero" fill-opacity="1" /><path clip-path="url(#clip050)" d="M14.479 904.538 L14.479 898.681 L64.0042 898.681 L64.0042 904.538 L14.479 904.538 Z" fill="#000000" fill-rule="nonzero" fill-opacity="1" /><path clip-path="url(#clip050)" d="M32.4621 872.614 Q32.4621 877.324 36.1542 880.062 Q39.8145 882.799 46.212 882.799 Q52.6095 882.799 56.3017 880.093 Q59.9619 877.356 59.9619 872.614 Q59.9619 867.935 56.2698 865.198 Q52.5777 862.46 46.212 862.46 Q39.8781 862.46 36.186 865.198 Q32.4621 867.935 32.4621 872.614 M27.4968 872.614 Q27.4968 864.975 32.4621 860.614 Q37.4273 856.254 46.212 856.254 Q54.9649 856.254 59.9619 860.614 Q64.9272 864.975 64.9272 872.614 Q64.9272 880.284 59.9619 884.645 Q54.9649 888.974 46.212 888.974 Q37.4273 888.974 32.4621 884.645 Q27.4968 880.284 27.4968 872.614 Z" fill="#000000" fill-rule="nonzero" fill-opacity="1" /><path clip-path="url(#clip050)" d="M45.7664 823.088 Q39.4007 823.088 35.8996 825.73 Q32.3984 828.34 32.3984 833.083 Q32.3984 837.793 35.8996 840.435 Q39.4007 843.045 45.7664 843.045 Q52.1003 843.045 55.6014 840.435 Q59.1026 837.793 59.1026 833.083 Q59.1026 828.34 55.6014 825.73 Q52.1003 823.088 45.7664 823.088 M59.58 817.232 Q68.683 817.232 73.1071 821.274 Q77.5631 825.316 77.5631 833.656 Q77.5631 836.743 77.0857 839.48 Q76.6401 842.217 75.6852 844.796 L69.9879 844.796 Q71.3884 842.217 72.0568 839.703 Q72.7252 837.188 72.7252 834.579 Q72.7252 828.818 69.7015 825.953 Q66.7096 823.088 60.6303 823.088 L57.7339 823.088 Q60.885 824.903 62.4446 827.735 Q64.0042 830.568 64.0042 834.515 Q64.0042 841.072 59.0071 845.082 Q54.01 849.092 45.7664 849.092 Q37.491 849.092 32.4939 845.082 Q27.4968 841.072 27.4968 834.515 Q27.4968 830.568 29.0564 827.735 Q30.616 824.903 33.7671 823.088 L28.3562 823.088 L28.3562 817.232 L59.58 817.232 Z" fill="#000000" fill-rule="nonzero" fill-opacity="1" /><path clip-path="url(#clip050)" d="M43.5384 808.129 L43.5384 790.973 L48.7583 790.973 L48.7583 808.129 L43.5384 808.129 Z" fill="#000000" fill-rule="nonzero" fill-opacity="1" /><path clip-path="url(#clip050)" d="M14.479 781.648 L14.479 775.791 L64.0042 775.791 L64.0042 781.648 L14.479 781.648 Z" fill="#000000" fill-rule="nonzero" fill-opacity="1" /><path clip-path="url(#clip050)" d="M28.3562 763.537 L28.3562 757.681 L64.0042 757.681 L64.0042 763.537 L28.3562 763.537 M14.479 763.537 L14.479 757.681 L21.895 757.681 L21.895 763.537 L14.479 763.537 Z" fill="#000000" fill-rule="nonzero" fill-opacity="1" /><path clip-path="url(#clip050)" d="M14.479 745.65 L14.479 739.761 L43.7294 739.761 L28.3562 722.287 L28.3562 714.808 L45.0344 733.714 L64.0042 714.012 L64.0042 721.651 L46.5939 739.761 L64.0042 739.761 L64.0042 745.65 L14.479 745.65 Z" fill="#000000" fill-rule="nonzero" fill-opacity="1" /><path clip-path="url(#clip050)" d="M44.7161 679.51 L47.5806 679.51 L47.5806 706.437 Q53.6281 706.055 56.8109 702.808 Q59.9619 699.53 59.9619 693.705 Q59.9619 690.332 59.1344 687.181 Q58.3069 683.998 56.6518 680.879 L62.1899 680.879 Q63.5267 684.03 64.227 687.34 Q64.9272 690.65 64.9272 694.056 Q64.9272 702.586 59.9619 707.583 Q54.9967 712.548 46.5303 712.548 Q37.7774 712.548 32.6531 707.837 Q27.4968 703.095 27.4968 695.074 Q27.4968 687.881 32.1438 683.711 Q36.7589 679.51 44.7161 679.51 M42.9973 685.366 Q38.1912 685.43 35.3266 688.072 Q32.4621 690.682 32.4621 695.01 Q32.4621 699.912 35.2312 702.872 Q38.0002 705.8 43.0292 706.246 L42.9973 685.366 Z" fill="#000000" fill-rule="nonzero" fill-opacity="1" /><path clip-path="url(#clip050)" d="M14.479 669.898 L14.479 664.041 L64.0042 664.041 L64.0042 669.898 L14.479 669.898 Z" fill="#000000" fill-rule="nonzero" fill-opacity="1" /><path clip-path="url(#clip050)" d="M28.3562 651.787 L28.3562 645.931 L64.0042 645.931 L64.0042 651.787 L28.3562 651.787 M14.479 651.787 L14.479 645.931 L21.895 645.931 L21.895 651.787 L14.479 651.787 Z" fill="#000000" fill-rule="nonzero" fill-opacity="1" /><path clip-path="url(#clip050)" d="M42.4881 604.044 L64.0042 604.044 L64.0042 609.901 L42.679 609.901 Q37.6183 609.901 35.1038 611.874 Q32.5894 613.848 32.5894 617.794 Q32.5894 622.537 35.6131 625.274 Q38.6368 628.011 43.8567 628.011 L64.0042 628.011 L64.0042 633.9 L14.479 633.9 L14.479 628.011 L33.8944 628.011 Q30.6797 625.911 29.0883 623.078 Q27.4968 620.213 27.4968 616.489 Q27.4968 610.347 31.3163 607.196 Q35.1038 604.044 42.4881 604.044 Z" fill="#000000" fill-rule="nonzero" fill-opacity="1" /><path clip-path="url(#clip050)" d="M32.4621 578.55 Q32.4621 583.26 36.1542 585.998 Q39.8145 588.735 46.212 588.735 Q52.6095 588.735 56.3017 586.03 Q59.9619 583.292 59.9619 578.55 Q59.9619 573.871 56.2698 571.134 Q52.5777 568.397 46.212 568.397 Q39.8781 568.397 36.186 571.134 Q32.4621 573.871 32.4621 578.55 M27.4968 578.55 Q27.4968 570.911 32.4621 566.55 Q37.4273 562.19 46.212 562.19 Q54.9649 562.19 59.9619 566.55 Q64.9272 570.911 64.9272 578.55 Q64.9272 586.221 59.9619 590.581 Q54.9649 594.91 46.212 594.91 Q37.4273 594.91 32.4621 590.581 Q27.4968 586.221 27.4968 578.55 Z" fill="#000000" fill-rule="nonzero" fill-opacity="1" /><path clip-path="url(#clip050)" d="M32.4621 538.669 Q32.4621 543.379 36.1542 546.117 Q39.8145 548.854 46.212 548.854 Q52.6095 548.854 56.3017 546.148 Q59.9619 543.411 59.9619 538.669 Q59.9619 533.99 56.2698 531.253 Q52.5777 528.515 46.212 528.515 Q39.8781 528.515 36.186 531.253 Q32.4621 533.99 32.4621 538.669 M27.4968 538.669 Q27.4968 531.03 32.4621 526.669 Q37.4273 522.309 46.212 522.309 Q54.9649 522.309 59.9619 526.669 Q64.9272 531.03 64.9272 538.669 Q64.9272 546.339 59.9619 550.7 Q54.9649 555.029 46.212 555.029 Q37.4273 555.029 32.4621 550.7 Q27.4968 546.339 27.4968 538.669 Z" fill="#000000" fill-rule="nonzero" fill-opacity="1" /><path clip-path="url(#clip050)" d="M33.7671 489.143 L14.479 489.143 L14.479 483.287 L64.0042 483.287 L64.0042 489.143 L58.657 489.143 Q61.8398 490.99 63.3994 493.822 Q64.9272 496.623 64.9272 500.57 Q64.9272 507.031 59.771 511.105 Q54.6147 515.147 46.212 515.147 Q37.8093 515.147 32.6531 511.105 Q27.4968 507.031 27.4968 500.57 Q27.4968 496.623 29.0564 493.822 Q30.5842 490.99 33.7671 489.143 M46.212 509.1 Q52.6732 509.1 56.3653 506.458 Q60.0256 503.785 60.0256 499.138 Q60.0256 494.491 56.3653 491.817 Q52.6732 489.143 46.212 489.143 Q39.7508 489.143 36.0905 491.817 Q32.3984 494.491 32.3984 499.138 Q32.3984 503.785 36.0905 506.458 Q39.7508 509.1 46.212 509.1 Z" fill="#000000" fill-rule="nonzero" fill-opacity="1" /><path clip-path="url(#clip050)" d="M515.567 25.7069 L515.567 40.3162 L522.182 40.3162 Q525.854 40.3162 527.859 38.4152 Q529.864 36.5141 529.864 32.9985 Q529.864 29.509 527.859 27.6079 Q525.854 25.7069 522.182 25.7069 L515.567 25.7069 M510.307 21.384 L522.182 21.384 Q528.718 21.384 532.052 24.3527 Q535.411 27.2954 535.411 32.9985 Q535.411 38.7537 532.052 41.6964 Q528.718 44.6391 522.182 44.6391 L515.567 44.6391 L515.567 60.264 L510.307 60.264 L510.307 21.384 Z" fill="#000000" fill-rule="nonzero" fill-opacity="1" /><path clip-path="url(#clip050)" d="M541.088 31.0975 L545.88 31.0975 L545.88 60.264 L541.088 60.264 L541.088 31.0975 M541.088 19.7434 L545.88 19.7434 L545.88 25.8111 L541.088 25.8111 L541.088 19.7434 Z" fill="#000000" fill-rule="nonzero" fill-opacity="1" /><path clip-path="url(#clip050)" d="M560.541 55.889 L560.541 71.3577 L555.723 71.3577 L555.723 31.0975 L560.541 31.0975 L560.541 35.5245 Q562.051 32.9204 564.343 31.6704 Q566.661 30.3944 569.864 30.3944 Q575.176 30.3944 578.484 34.6131 Q581.817 38.8318 581.817 45.7068 Q581.817 52.5817 578.484 56.8005 Q575.176 61.0192 569.864 61.0192 Q566.661 61.0192 564.343 59.7692 Q562.051 58.4932 560.541 55.889 M576.843 45.7068 Q576.843 40.4204 574.655 37.4256 Q572.494 34.4048 568.692 34.4048 Q564.89 34.4048 562.702 37.4256 Q560.541 40.4204 560.541 45.7068 Q560.541 50.9932 562.702 54.014 Q564.89 57.0088 568.692 57.0088 Q572.494 57.0088 574.655 54.014 Q576.843 50.9932 576.843 45.7068 Z" fill="#000000" fill-rule="nonzero" fill-opacity="1" /><path clip-path="url(#clip050)" d="M614.707 44.4828 L614.707 46.8266 L592.676 46.8266 Q592.989 51.7745 595.645 54.3786 Q598.327 56.9567 603.093 56.9567 Q605.853 56.9567 608.431 56.2796 Q611.035 55.6026 613.588 54.2484 L613.588 58.7796 Q611.009 59.8734 608.301 60.4463 Q605.593 61.0192 602.806 61.0192 Q595.827 61.0192 591.739 56.9567 Q587.676 52.8942 587.676 45.9672 Q587.676 38.8058 591.53 34.6131 Q595.411 30.3944 601.973 30.3944 Q607.858 30.3944 611.27 34.1964 Q614.707 37.9725 614.707 44.4828 M609.916 43.0766 Q609.864 39.1443 607.702 36.8006 Q605.567 34.4568 602.025 34.4568 Q598.015 34.4568 595.593 36.7225 Q593.197 38.9881 592.832 43.1026 L609.916 43.0766 Z" fill="#000000" fill-rule="nonzero" fill-opacity="1" /><path clip-path="url(#clip050)" d="M622.572 19.7434 L627.364 19.7434 L627.364 60.264 L622.572 60.264 L622.572 19.7434 Z" fill="#000000" fill-rule="nonzero" fill-opacity="1" /><path clip-path="url(#clip050)" d="M637.39 31.0975 L642.181 31.0975 L642.181 60.264 L637.39 60.264 L637.39 31.0975 M637.39 19.7434 L642.181 19.7434 L642.181 25.8111 L637.39 25.8111 L637.39 19.7434 Z" fill="#000000" fill-rule="nonzero" fill-opacity="1" /><path clip-path="url(#clip050)" d="M676.452 42.6599 L676.452 60.264 L671.66 60.264 L671.66 42.8162 Q671.66 38.6756 670.046 36.6183 Q668.431 34.561 665.202 34.561 Q661.322 34.561 659.082 37.035 Q656.843 39.5089 656.843 43.7797 L656.843 60.264 L652.025 60.264 L652.025 31.0975 L656.843 31.0975 L656.843 35.6287 Q658.561 32.9985 660.879 31.6964 Q663.223 30.3944 666.27 30.3944 Q671.296 30.3944 673.874 33.5194 Q676.452 36.6183 676.452 42.6599 Z" fill="#000000" fill-rule="nonzero" fill-opacity="1" /><path clip-path="url(#clip050)" d="M710.957 44.4828 L710.957 46.8266 L688.926 46.8266 Q689.238 51.7745 691.894 54.3786 Q694.577 56.9567 699.342 56.9567 Q702.103 56.9567 704.681 56.2796 Q707.285 55.6026 709.837 54.2484 L709.837 58.7796 Q707.259 59.8734 704.551 60.4463 Q701.842 61.0192 699.056 61.0192 Q692.077 61.0192 687.988 56.9567 Q683.926 52.8942 683.926 45.9672 Q683.926 38.8058 687.78 34.6131 Q691.66 30.3944 698.223 30.3944 Q704.108 30.3944 707.519 34.1964 Q710.957 37.9725 710.957 44.4828 M706.165 43.0766 Q706.113 39.1443 703.952 36.8006 Q701.816 34.4568 698.275 34.4568 Q694.264 34.4568 691.842 36.7225 Q689.447 38.9881 689.082 43.1026 L706.165 43.0766 Z" fill="#000000" fill-rule="nonzero" fill-opacity="1" /><path clip-path="url(#clip050)" d="M748.977 26.5663 L741.842 45.9151 L756.139 45.9151 L748.977 26.5663 M746.009 21.384 L751.972 21.384 L766.79 60.264 L761.321 60.264 L757.779 50.2901 L740.254 50.2901 L736.712 60.264 L731.165 60.264 L746.009 21.384 Z" fill="#000000" fill-rule="nonzero" fill-opacity="1" /><path clip-path="url(#clip050)" d="M786.79 43.7797 L834.914 43.7797 L834.914 47.5297 L786.79 47.5297 L786.79 43.7797 Z" fill="#000000" fill-rule="nonzero" fill-opacity="1" /><path clip-path="url(#clip050)" d="M864.966 41.6964 L864.966 55.9411 L873.404 55.9411 Q877.649 55.9411 879.68 54.1963 Q881.737 52.4255 881.737 48.8057 Q881.737 45.1599 879.68 43.4412 Q877.649 41.6964 873.404 41.6964 L864.966 41.6964 M864.966 25.7069 L864.966 37.4256 L872.753 37.4256 Q876.607 37.4256 878.482 35.9933 Q880.383 34.535 880.383 31.5662 Q880.383 28.6235 878.482 27.1652 Q876.607 25.7069 872.753 25.7069 L864.966 25.7069 M859.706 21.384 L873.143 21.384 Q879.159 21.384 882.414 23.884 Q885.669 26.384 885.669 30.9933 Q885.669 34.561 884.003 36.6704 Q882.336 38.7797 879.107 39.3006 Q882.987 40.1339 885.123 42.7901 Q887.284 45.4203 887.284 49.3786 Q887.284 54.5869 883.742 57.4255 Q880.201 60.264 873.664 60.264 L859.706 60.264 L859.706 21.384 Z" fill="#000000" fill-rule="nonzero" fill-opacity="1" /><path clip-path="url(#clip050)" d="M909.341 45.6026 Q903.534 45.6026 901.294 46.9307 Q899.055 48.2589 899.055 51.462 Q899.055 54.014 900.721 55.5244 Q902.414 57.0088 905.305 57.0088 Q909.289 57.0088 911.685 54.1963 Q914.107 51.3578 914.107 46.6703 L914.107 45.6026 L909.341 45.6026 M918.898 43.6235 L918.898 60.264 L914.107 60.264 L914.107 55.8369 Q912.466 58.4932 910.018 59.7692 Q907.57 61.0192 904.029 61.0192 Q899.55 61.0192 896.893 58.5192 Q894.263 55.9932 894.263 51.7745 Q894.263 46.8526 897.544 44.3526 Q900.852 41.8526 907.388 41.8526 L914.107 41.8526 L914.107 41.3839 Q914.107 38.0766 911.919 36.2798 Q909.758 34.4568 905.826 34.4568 Q903.326 34.4568 900.956 35.0558 Q898.586 35.6548 896.399 36.8527 L896.399 32.4256 Q899.029 31.41 901.503 30.9152 Q903.977 30.3944 906.32 30.3944 Q912.648 30.3944 915.773 33.6756 Q918.898 36.9568 918.898 43.6235 Z" fill="#000000" fill-rule="nonzero" fill-opacity="1" /><path clip-path="url(#clip050)" d="M928.273 48.7536 L928.273 31.0975 L933.065 31.0975 L933.065 48.5714 Q933.065 52.712 934.68 54.7953 Q936.294 56.8526 939.523 56.8526 Q943.403 56.8526 945.643 54.3786 Q947.909 51.9047 947.909 47.6339 L947.909 31.0975 L952.7 31.0975 L952.7 60.264 L947.909 60.264 L947.909 55.7849 Q946.164 58.4411 943.846 59.7432 Q941.555 61.0192 938.508 61.0192 Q933.482 61.0192 930.878 57.8942 Q928.273 54.7692 928.273 48.7536 M940.331 30.3944 L940.331 30.3944 Z" fill="#000000" fill-rule="nonzero" fill-opacity="1" /><path clip-path="url(#clip050)" d="M985.278 36.6964 Q987.075 33.4673 989.575 31.9308 Q992.075 30.3944 995.461 30.3944 Q1000.02 30.3944 1002.49 33.5975 Q1004.97 36.7745 1004.97 42.6599 L1004.97 60.264 L1000.15 60.264 L1000.15 42.8162 Q1000.15 38.6235 998.664 36.5923 Q997.179 34.561 994.132 34.561 Q990.408 34.561 988.247 37.035 Q986.086 39.5089 986.086 43.7797 L986.086 60.264 L981.268 60.264 L981.268 42.8162 Q981.268 38.5974 979.784 36.5923 Q978.299 34.561 975.2 34.561 Q971.528 34.561 969.367 37.061 Q967.205 39.5349 967.205 43.7797 L967.205 60.264 L962.388 60.264 L962.388 31.0975 L967.205 31.0975 L967.205 35.6287 Q968.846 32.9464 971.138 31.6704 Q973.429 30.3944 976.58 30.3944 Q979.757 30.3944 981.971 32.0089 Q984.211 33.6235 985.278 36.6964 Z" fill="#000000" fill-rule="nonzero" fill-opacity="1" /><path clip-path="url(#clip050)" d="M1012.1 43.5193 L1026.14 43.5193 L1026.14 47.7901 L1012.1 47.7901 L1012.1 43.5193 Z" fill="#000000" fill-rule="nonzero" fill-opacity="1" /><path clip-path="url(#clip050)" d="M1028.35 21.384 L1033.66 21.384 L1041.84 54.2484 L1049.99 21.384 L1055.9 21.384 L1064.08 54.2484 L1072.23 21.384 L1077.57 21.384 L1067.8 60.264 L1061.19 60.264 L1052.99 26.5142 L1044.71 60.264 L1038.09 60.264 L1028.35 21.384 Z" fill="#000000" fill-rule="nonzero" fill-opacity="1" /><path clip-path="url(#clip050)" d="M1106.16 44.4828 L1106.16 46.8266 L1084.13 46.8266 Q1084.44 51.7745 1087.1 54.3786 Q1089.78 56.9567 1094.55 56.9567 Q1097.31 56.9567 1099.89 56.2796 Q1102.49 55.6026 1105.04 54.2484 L1105.04 58.7796 Q1102.47 59.8734 1099.76 60.4463 Q1097.05 61.0192 1094.26 61.0192 Q1087.28 61.0192 1083.19 56.9567 Q1079.13 52.8942 1079.13 45.9672 Q1079.13 38.8058 1082.99 34.6131 Q1086.87 30.3944 1093.43 30.3944 Q1099.31 30.3944 1102.73 34.1964 Q1106.16 37.9725 1106.16 44.4828 M1101.37 43.0766 Q1101.32 39.1443 1099.16 36.8006 Q1097.02 34.4568 1093.48 34.4568 Q1089.47 34.4568 1087.05 36.7225 Q1084.65 38.9881 1084.29 43.1026 L1101.37 43.0766 Z" fill="#000000" fill-rule="nonzero" fill-opacity="1" /><path clip-path="url(#clip050)" d="M1114.03 19.7434 L1118.82 19.7434 L1118.82 60.264 L1114.03 60.264 L1114.03 19.7434 Z" fill="#000000" fill-rule="nonzero" fill-opacity="1" /><path clip-path="url(#clip050)" d="M1149.83 32.2173 L1149.83 36.6964 Q1147.8 35.5766 1145.75 35.0298 Q1143.71 34.4568 1141.63 34.4568 Q1136.97 34.4568 1134.39 37.4256 Q1131.81 40.3683 1131.81 45.7068 Q1131.81 51.0453 1134.39 54.014 Q1136.97 56.9567 1141.63 56.9567 Q1143.71 56.9567 1145.75 56.4099 Q1147.8 55.8369 1149.83 54.7172 L1149.83 59.1442 Q1147.83 60.0817 1145.67 60.5505 Q1143.53 61.0192 1141.11 61.0192 Q1134.52 61.0192 1130.64 56.8786 Q1126.76 52.738 1126.76 45.7068 Q1126.76 38.5714 1130.67 34.4829 Q1134.6 30.3944 1141.42 30.3944 Q1143.64 30.3944 1145.75 30.8631 Q1147.86 31.3058 1149.83 32.2173 Z" fill="#000000" fill-rule="nonzero" fill-opacity="1" /><path clip-path="url(#clip050)" d="M1182.41 42.6599 L1182.41 60.264 L1177.62 60.264 L1177.62 42.8162 Q1177.62 38.6756 1176.01 36.6183 Q1174.39 34.561 1171.16 34.561 Q1167.28 34.561 1165.04 37.035 Q1162.8 39.5089 1162.8 43.7797 L1162.8 60.264 L1157.99 60.264 L1157.99 19.7434 L1162.8 19.7434 L1162.8 35.6287 Q1164.52 32.9985 1166.84 31.6964 Q1169.18 30.3944 1172.23 30.3944 Q1177.26 30.3944 1179.83 33.5194 Q1182.41 36.6183 1182.41 42.6599 Z" fill="#000000" fill-rule="nonzero" fill-opacity="1" /><path clip-path="url(#clip050)" d="M1229.91 32.2173 L1229.91 36.6964 Q1227.88 35.5766 1225.82 35.0298 Q1223.79 34.4568 1221.71 34.4568 Q1217.05 34.4568 1214.47 37.4256 Q1211.89 40.3683 1211.89 45.7068 Q1211.89 51.0453 1214.47 54.014 Q1217.05 56.9567 1221.71 56.9567 Q1223.79 56.9567 1225.82 56.4099 Q1227.88 55.8369 1229.91 54.7172 L1229.91 59.1442 Q1227.91 60.0817 1225.75 60.5505 Q1223.61 61.0192 1221.19 61.0192 Q1214.6 61.0192 1210.72 56.8786 Q1206.84 52.738 1206.84 45.7068 Q1206.84 38.5714 1210.75 34.4829 Q1214.68 30.3944 1221.5 30.3944 Q1223.71 30.3944 1225.82 30.8631 Q1227.93 31.3058 1229.91 32.2173 Z" fill="#000000" fill-rule="nonzero" fill-opacity="1" /><path clip-path="url(#clip050)" d="M1249.55 34.4568 Q1245.69 34.4568 1243.45 37.4777 Q1241.21 40.4724 1241.21 45.7068 Q1241.21 50.9411 1243.43 53.962 Q1245.67 56.9567 1249.55 56.9567 Q1253.38 56.9567 1255.62 53.9359 Q1257.85 50.9151 1257.85 45.7068 Q1257.85 40.5245 1255.62 37.5037 Q1253.38 34.4568 1249.55 34.4568 M1249.55 30.3944 Q1255.8 30.3944 1259.37 34.4568 Q1262.93 38.5193 1262.93 45.7068 Q1262.93 52.8682 1259.37 56.9567 Q1255.8 61.0192 1249.55 61.0192 Q1243.27 61.0192 1239.7 56.9567 Q1236.16 52.8682 1236.16 45.7068 Q1236.16 38.5193 1239.7 34.4568 Q1243.27 30.3944 1249.55 30.3944 Z" fill="#000000" fill-rule="nonzero" fill-opacity="1" /><path clip-path="url(#clip050)" d="M1295.12 42.6599 L1295.12 60.264 L1290.33 60.264 L1290.33 42.8162 Q1290.33 38.6756 1288.71 36.6183 Q1287.1 34.561 1283.87 34.561 Q1279.99 34.561 1277.75 37.035 Q1275.51 39.5089 1275.51 43.7797 L1275.51 60.264 L1270.69 60.264 L1270.69 31.0975 L1275.51 31.0975 L1275.51 35.6287 Q1277.23 32.9985 1279.55 31.6964 Q1281.89 30.3944 1284.94 30.3944 Q1289.96 30.3944 1292.54 33.5194 Q1295.12 36.6183 1295.12 42.6599 Z" fill="#000000" fill-rule="nonzero" fill-opacity="1" /><path clip-path="url(#clip050)" d="M1301.24 31.0975 L1306.32 31.0975 L1315.43 55.5765 L1324.55 31.0975 L1329.63 31.0975 L1318.69 60.264 L1312.18 60.264 L1301.24 31.0975 Z" fill="#000000" fill-rule="nonzero" fill-opacity="1" /><path clip-path="url(#clip050)" d="M1361.19 44.4828 L1361.19 46.8266 L1339.16 46.8266 Q1339.47 51.7745 1342.13 54.3786 Q1344.81 56.9567 1349.57 56.9567 Q1352.33 56.9567 1354.91 56.2796 Q1357.52 55.6026 1360.07 54.2484 L1360.07 58.7796 Q1357.49 59.8734 1354.78 60.4463 Q1352.07 61.0192 1349.29 61.0192 Q1342.31 61.0192 1338.22 56.9567 Q1334.16 52.8942 1334.16 45.9672 Q1334.16 38.8058 1338.01 34.6131 Q1341.89 30.3944 1348.45 30.3944 Q1354.34 30.3944 1357.75 34.1964 Q1361.19 37.9725 1361.19 44.4828 M1356.4 43.0766 Q1356.34 39.1443 1354.18 36.8006 Q1352.05 34.4568 1348.51 34.4568 Q1344.5 34.4568 1342.07 36.7225 Q1339.68 38.9881 1339.31 43.1026 L1356.4 43.0766 Z" fill="#000000" fill-rule="nonzero" fill-opacity="1" /><path clip-path="url(#clip050)" d="M1385.95 35.5766 Q1385.15 35.1079 1384.18 34.8996 Q1383.24 34.6652 1382.1 34.6652 Q1378.04 34.6652 1375.85 37.3214 Q1373.69 39.9516 1373.69 44.8995 L1373.69 60.264 L1368.87 60.264 L1368.87 31.0975 L1373.69 31.0975 L1373.69 35.6287 Q1375.2 32.9725 1377.62 31.6964 Q1380.04 30.3944 1383.51 30.3944 Q1384 30.3944 1384.6 30.4725 Q1385.2 30.5246 1385.93 30.6548 L1385.95 35.5766 Z" fill="#000000" fill-rule="nonzero" fill-opacity="1" /><path clip-path="url(#clip050)" d="M1409.23 45.3422 Q1409.23 40.1339 1407.07 37.2693 Q1404.94 34.4048 1401.06 34.4048 Q1397.2 34.4048 1395.04 37.2693 Q1392.91 40.1339 1392.91 45.3422 Q1392.91 50.5245 1395.04 53.389 Q1397.2 56.2536 1401.06 56.2536 Q1404.94 56.2536 1407.07 53.389 Q1409.23 50.5245 1409.23 45.3422 M1414.03 56.6442 Q1414.03 64.0921 1410.72 67.7119 Q1407.41 71.3577 1400.59 71.3577 Q1398.06 71.3577 1395.82 70.9671 Q1393.58 70.6025 1391.47 69.8212 L1391.47 65.1598 Q1393.58 66.3056 1395.64 66.8525 Q1397.7 67.3994 1399.83 67.3994 Q1404.55 67.3994 1406.89 64.9254 Q1409.23 62.4775 1409.23 57.5036 L1409.23 55.1338 Q1407.75 57.7119 1405.43 58.988 Q1403.11 60.264 1399.89 60.264 Q1394.52 60.264 1391.24 56.1755 Q1387.96 52.087 1387.96 45.3422 Q1387.96 38.5714 1391.24 34.4829 Q1394.52 30.3944 1399.89 30.3944 Q1403.11 30.3944 1405.43 31.6704 Q1407.75 32.9464 1409.23 35.5245 L1409.23 31.0975 L1414.03 31.0975 L1414.03 56.6442 Z" fill="#000000" fill-rule="nonzero" fill-opacity="1" /><path clip-path="url(#clip050)" d="M1448.84 44.4828 L1448.84 46.8266 L1426.81 46.8266 Q1427.12 51.7745 1429.78 54.3786 Q1432.46 56.9567 1437.23 56.9567 Q1439.99 56.9567 1442.57 56.2796 Q1445.17 55.6026 1447.72 54.2484 L1447.72 58.7796 Q1445.15 59.8734 1442.44 60.4463 Q1439.73 61.0192 1436.94 61.0192 Q1429.96 61.0192 1425.87 56.9567 Q1421.81 52.8942 1421.81 45.9672 Q1421.81 38.8058 1425.67 34.6131 Q1429.55 30.3944 1436.11 30.3944 Q1441.99 30.3944 1445.41 34.1964 Q1448.84 37.9725 1448.84 44.4828 M1444.05 43.0766 Q1444 39.1443 1441.84 36.8006 Q1439.7 34.4568 1436.16 34.4568 Q1432.15 34.4568 1429.73 36.7225 Q1427.33 38.9881 1426.97 43.1026 L1444.05 43.0766 Z" fill="#000000" fill-rule="nonzero" fill-opacity="1" /><path clip-path="url(#clip050)" d="M1480.95 42.6599 L1480.95 60.264 L1476.16 60.264 L1476.16 42.8162 Q1476.16 38.6756 1474.55 36.6183 Q1472.93 34.561 1469.7 34.561 Q1465.82 34.561 1463.58 37.035 Q1461.34 39.5089 1461.34 43.7797 L1461.34 60.264 L1456.53 60.264 L1456.53 31.0975 L1461.34 31.0975 L1461.34 35.6287 Q1463.06 32.9985 1465.38 31.6964 Q1467.72 30.3944 1470.77 30.3944 Q1475.8 30.3944 1478.37 33.5194 Q1480.95 36.6183 1480.95 42.6599 Z" fill="#000000" fill-rule="nonzero" fill-opacity="1" /><path clip-path="url(#clip050)" d="M1511.5 32.2173 L1511.5 36.6964 Q1509.47 35.5766 1507.41 35.0298 Q1505.38 34.4568 1503.3 34.4568 Q1498.63 34.4568 1496.06 37.4256 Q1493.48 40.3683 1493.48 45.7068 Q1493.48 51.0453 1496.06 54.014 Q1498.63 56.9567 1503.3 56.9567 Q1505.38 56.9567 1507.41 56.4099 Q1509.47 55.8369 1511.5 54.7172 L1511.5 59.1442 Q1509.49 60.0817 1507.33 60.5505 Q1505.2 61.0192 1502.78 61.0192 Q1496.19 61.0192 1492.31 56.8786 Q1488.43 52.738 1488.43 45.7068 Q1488.43 38.5714 1492.33 34.4829 Q1496.27 30.3944 1503.09 30.3944 Q1505.3 30.3944 1507.41 30.8631 Q1509.52 31.3058 1511.5 32.2173 Z" fill="#000000" fill-rule="nonzero" fill-opacity="1" /><path clip-path="url(#clip050)" d="M1544.78 44.4828 L1544.78 46.8266 L1522.75 46.8266 Q1523.06 51.7745 1525.72 54.3786 Q1528.4 56.9567 1533.17 56.9567 Q1535.93 56.9567 1538.5 56.2796 Q1541.11 55.6026 1543.66 54.2484 L1543.66 58.7796 Q1541.08 59.8734 1538.37 60.4463 Q1535.67 61.0192 1532.88 61.0192 Q1525.9 61.0192 1521.81 56.9567 Q1517.75 52.8942 1517.75 45.9672 Q1517.75 38.8058 1521.6 34.6131 Q1525.48 30.3944 1532.05 30.3944 Q1537.93 30.3944 1541.34 34.1964 Q1544.78 37.9725 1544.78 44.4828 M1539.99 43.0766 Q1539.94 39.1443 1537.78 36.8006 Q1535.64 34.4568 1532.1 34.4568 Q1528.09 34.4568 1525.67 36.7225 Q1523.27 38.9881 1522.91 43.1026 L1539.99 43.0766 Z" fill="#000000" fill-rule="nonzero" fill-opacity="1" /><path clip-path="url(#clip050)" d="M1575.77 19.509 L1575.77 72.8421 L1571.34 72.8421 L1571.34 19.509 L1575.77 19.509 Z" fill="#000000" fill-rule="nonzero" fill-opacity="1" /><path clip-path="url(#clip050)" d="M1628.04 22.66 L1628.04 27.7902 Q1625.04 26.3579 1622.38 25.6548 Q1619.73 24.9517 1617.25 24.9517 Q1612.96 24.9517 1610.61 26.6183 Q1608.3 28.285 1608.3 31.3579 Q1608.3 33.936 1609.83 35.2641 Q1611.39 36.5662 1615.72 37.3735 L1618.89 38.0245 Q1624.78 39.1443 1627.57 41.9828 Q1630.38 44.7953 1630.38 49.5349 Q1630.38 55.1859 1626.58 58.1026 Q1622.8 61.0192 1615.48 61.0192 Q1612.72 61.0192 1609.6 60.3942 Q1606.5 59.7692 1603.17 58.5453 L1603.17 53.1286 Q1606.37 54.9255 1609.44 55.8369 Q1612.51 56.7484 1615.48 56.7484 Q1619.99 56.7484 1622.44 54.9776 Q1624.88 53.2067 1624.88 49.9255 Q1624.88 47.0609 1623.11 45.4464 Q1621.37 43.8318 1617.36 43.0245 L1614.16 42.3995 Q1608.27 41.2276 1605.64 38.7277 Q1603.01 36.2277 1603.01 31.7746 Q1603.01 26.6183 1606.63 23.6496 Q1610.27 20.6809 1616.66 20.6809 Q1619.39 20.6809 1622.23 21.1757 Q1625.07 21.6705 1628.04 22.66 Z" fill="#000000" fill-rule="nonzero" fill-opacity="1" /><path clip-path="url(#clip050)" d="M1643.84 25.7069 L1643.84 40.3162 L1650.46 40.3162 Q1654.13 40.3162 1656.13 38.4152 Q1658.14 36.5141 1658.14 32.9985 Q1658.14 29.509 1656.13 27.6079 Q1654.13 25.7069 1650.46 25.7069 L1643.84 25.7069 M1638.58 21.384 L1650.46 21.384 Q1656.99 21.384 1660.33 24.3527 Q1663.69 27.2954 1663.69 32.9985 Q1663.69 38.7537 1660.33 41.6964 Q1656.99 44.6391 1650.46 44.6391 L1643.84 44.6391 L1643.84 60.264 L1638.58 60.264 L1638.58 21.384 Z" fill="#000000" fill-rule="nonzero" fill-opacity="1" /><path clip-path="url(#clip050)" d="M1664.23 21.384 L1669.88 21.384 L1680.67 37.3735 L1691.37 21.384 L1697.02 21.384 L1683.27 41.7485 L1683.27 60.264 L1677.98 60.264 L1677.98 41.7485 L1664.23 21.384 Z" fill="#000000" fill-rule="nonzero" fill-opacity="1" /><path clip-path="url(#clip050)" d="M1725.07 19.509 L1725.07 72.8421 L1720.64 72.8421 L1720.64 19.509 L1725.07 19.509 Z" fill="#000000" fill-rule="nonzero" fill-opacity="1" /><path clip-path="url(#clip050)" d="M1783.14 24.3788 L1783.14 29.9256 Q1780.48 27.4517 1777.46 26.2277 Q1774.47 25.0038 1771.08 25.0038 Q1764.41 25.0038 1760.87 29.0923 Q1757.33 33.1548 1757.33 40.8631 Q1757.33 48.5453 1760.87 52.6338 Q1764.41 56.6963 1771.08 56.6963 Q1774.47 56.6963 1777.46 55.4724 Q1780.48 54.2484 1783.14 51.7745 L1783.14 57.2692 Q1780.38 59.1442 1777.28 60.0817 Q1774.21 61.0192 1770.77 61.0192 Q1761.94 61.0192 1756.86 55.6286 Q1751.78 50.212 1751.78 40.8631 Q1751.78 31.4881 1756.86 26.0975 Q1761.94 20.6809 1770.77 20.6809 Q1774.26 20.6809 1777.33 21.6184 Q1780.43 22.5298 1783.14 24.3788 Z" fill="#000000" fill-rule="nonzero" fill-opacity="1" /><path clip-path="url(#clip050)" d="M1791.26 21.384 L1796.52 21.384 L1796.52 37.3214 L1815.64 37.3214 L1815.64 21.384 L1820.9 21.384 L1820.9 60.264 L1815.64 60.264 L1815.64 41.7485 L1796.52 41.7485 L1796.52 60.264 L1791.26 60.264 L1791.26 21.384 Z" fill="#000000" fill-rule="nonzero" fill-opacity="1" /><path clip-path="url(#clip050)" d="M1831.37 21.384 L1839.21 21.384 L1849.13 47.8422 L1859.1 21.384 L1866.94 21.384 L1866.94 60.264 L1861.81 60.264 L1861.81 26.1236 L1851.78 52.7901 L1846.5 52.7901 L1836.47 26.1236 L1836.47 60.264 L1831.37 60.264 L1831.37 21.384 Z" fill="#000000" fill-rule="nonzero" fill-opacity="1" /><path clip-path="url(#clip050)" d="M1877.38 21.384 L1885.22 21.384 L1895.14 47.8422 L1905.12 21.384 L1912.96 21.384 L1912.96 60.264 L1907.83 60.264 L1907.83 26.1236 L1897.8 52.7901 L1892.51 52.7901 L1882.49 26.1236 L1882.49 60.264 L1877.38 60.264 L1877.38 21.384 Z" fill="#000000" fill-rule="nonzero" fill-opacity="1" /><path clip-path="url(#clip050)" d="M1920.77 43.5193 L1934.8 43.5193 L1934.8 47.7901 L1920.77 47.7901 L1920.77 43.5193 Z" fill="#000000" fill-rule="nonzero" fill-opacity="1" /><path clip-path="url(#clip050)" d="M1942.64 21.384 L1947.9 21.384 L1947.9 55.8369 L1966.84 55.8369 L1966.84 60.264 L1942.64 60.264 L1942.64 21.384 Z" fill="#000000" fill-rule="nonzero" fill-opacity="1" /><path clip-path="url(#clip050)" d="M1973.37 53.6495 L1978.87 53.6495 L1978.87 58.1286 L1974.6 66.4619 L1971.24 66.4619 L1973.37 58.1286 L1973.37 53.6495 Z" fill="#000000" fill-rule="nonzero" fill-opacity="1" /><path clip-path="url(#clip050)" d="M2006.26 21.384 L2011.52 21.384 L2011.52 37.8162 L2028.97 21.384 L2035.74 21.384 L2016.44 39.5089 L2037.12 60.264 L2030.19 60.264 L2011.52 41.5401 L2011.52 60.264 L2006.26 60.264 L2006.26 21.384 Z" fill="#000000" fill-rule="nonzero" fill-opacity="1" /><path clip-path="url(#clip050)" d="M2041.65 36.0454 L2075.04 36.0454 L2075.04 40.4204 L2041.65 40.4204 L2041.65 36.0454 M2041.65 46.6703 L2075.04 46.6703 L2075.04 51.0974 L2041.65 51.0974 L2041.65 46.6703 Z" fill="#000000" fill-rule="nonzero" fill-opacity="1" /><path clip-path="url(#clip050)" d="M2087.3 55.8369 L2095.9 55.8369 L2095.9 26.1756 L2086.55 28.0506 L2086.55 23.259 L2095.85 21.384 L2101.11 21.384 L2101.11 55.8369 L2109.7 55.8369 L2109.7 60.264 L2087.3 60.264 L2087.3 55.8369 Z" fill="#000000" fill-rule="nonzero" fill-opacity="1" /><path clip-path="url(#clip050)" d="M2131.57 41.8006 Q2127.82 41.8006 2125.66 43.8058 Q2123.53 45.811 2123.53 49.3266 Q2123.53 52.8422 2125.66 54.8474 Q2127.82 56.8526 2131.57 56.8526 Q2135.32 56.8526 2137.49 54.8474 Q2139.65 52.8161 2139.65 49.3266 Q2139.65 45.811 2137.49 43.8058 Q2135.35 41.8006 2131.57 41.8006 M2126.31 39.561 Q2122.93 38.7277 2121.03 36.41 Q2119.15 34.0923 2119.15 30.7589 Q2119.15 26.0975 2122.46 23.3892 Q2125.79 20.6809 2131.57 20.6809 Q2137.38 20.6809 2140.69 23.3892 Q2144 26.0975 2144 30.7589 Q2144 34.0923 2142.09 36.41 Q2140.22 38.7277 2136.86 39.561 Q2140.66 40.4464 2142.77 43.0245 Q2144.91 45.6026 2144.91 49.3266 Q2144.91 54.9776 2141.44 57.9984 Q2138.01 61.0192 2131.57 61.0192 Q2125.14 61.0192 2121.68 57.9984 Q2118.24 54.9776 2118.24 49.3266 Q2118.24 45.6026 2120.38 43.0245 Q2122.51 40.4464 2126.31 39.561 M2124.39 31.2537 Q2124.39 34.2746 2126.26 35.9673 Q2128.16 37.66 2131.57 37.66 Q2134.96 37.66 2136.86 35.9673 Q2138.79 34.2746 2138.79 31.2537 Q2138.79 28.2329 2136.86 26.5402 Q2134.96 24.8475 2131.57 24.8475 Q2128.16 24.8475 2126.26 26.5402 Q2124.39 28.2329 2124.39 31.2537 Z" fill="#000000" fill-rule="nonzero" fill-opacity="1" /><path clip-path="url(#clip050)" d="M896.281 79.704 L929.172 79.704 L929.172 84.1311 L915.37 84.1311 L915.37 118.584 L910.083 118.584 L910.083 84.1311 L896.281 84.1311 L896.281 79.704 Z" fill="#000000" fill-rule="nonzero" fill-opacity="1" /><path clip-path="url(#clip050)" d="M956.203 127.438 L956.203 131.162 L928.495 131.162 L928.495 127.438 L956.203 127.438 Z" fill="#000000" fill-rule="nonzero" fill-opacity="1" /><path clip-path="url(#clip050)" d="M960.916 79.704 L966.177 79.704 L966.177 118.584 L960.916 118.584 L960.916 79.704 Z" fill="#000000" fill-rule="nonzero" fill-opacity="1" /><path clip-path="url(#clip050)" d="M999.953 80.98 L999.953 86.1102 Q996.958 84.6779 994.302 83.9748 Q991.645 83.2717 989.171 83.2717 Q984.875 83.2717 982.531 84.9383 Q980.213 86.605 980.213 89.6779 Q980.213 92.256 981.75 93.5841 Q983.312 94.8862 987.635 95.6935 L990.812 96.3445 Q996.697 97.4643 999.484 100.303 Q1002.3 103.115 1002.3 107.855 Q1002.3 113.506 998.494 116.423 Q994.718 119.339 987.401 119.339 Q984.64 119.339 981.515 118.714 Q978.416 118.089 975.083 116.865 L975.083 111.449 Q978.286 113.245 981.359 114.157 Q984.432 115.068 987.401 115.068 Q991.906 115.068 994.354 113.298 Q996.802 111.527 996.802 108.246 Q996.802 105.381 995.031 103.766 Q993.286 102.152 989.276 101.345 L986.073 100.72 Q980.187 99.5476 977.557 97.0477 Q974.927 94.5477 974.927 90.0946 Q974.927 84.9383 978.547 81.9696 Q982.192 79.0009 988.573 79.0009 Q991.307 79.0009 994.145 79.4957 Q996.984 79.9905 999.953 80.98 Z" fill="#000000" fill-rule="nonzero" fill-opacity="1" /><path clip-path="url(#clip050)" d="M1027.87 94.3654 L1061.25 94.3654 L1061.25 98.7404 L1027.87 98.7404 L1027.87 94.3654 M1027.87 104.99 L1061.25 104.99 L1061.25 109.417 L1027.87 109.417 L1027.87 104.99 Z" fill="#000000" fill-rule="nonzero" fill-opacity="1" /><path clip-path="url(#clip050)" d="M1094.09 114.157 L1112.45 114.157 L1112.45 118.584 L1087.76 118.584 L1087.76 114.157 Q1090.76 111.058 1095.92 105.85 Q1101.1 100.615 1102.43 99.1049 Q1104.95 96.2664 1105.94 94.3133 Q1106.96 92.3341 1106.96 90.4331 Q1106.96 87.3342 1104.77 85.3811 Q1102.61 83.4279 1099.12 83.4279 Q1096.64 83.4279 1093.88 84.2873 Q1091.15 85.1467 1088.03 86.8915 L1088.03 81.579 Q1091.2 80.303 1093.96 79.6519 Q1096.72 79.0009 1099.01 79.0009 Q1105.06 79.0009 1108.65 82.0217 Q1112.24 85.0425 1112.24 90.0946 Q1112.24 92.4904 1111.33 94.6518 Q1110.45 96.7872 1108.08 99.7039 Q1107.43 100.459 1103.94 104.079 Q1100.45 107.673 1094.09 114.157 Z" fill="#000000" fill-rule="nonzero" fill-opacity="1" /><path clip-path="url(#clip050)" d="M1123.55 79.704 L1144.2 79.704 L1144.2 84.1311 L1128.36 84.1311 L1128.36 93.6623 Q1129.51 93.2716 1130.66 93.0893 Q1131.8 92.881 1132.95 92.881 Q1139.46 92.881 1143.26 96.4487 Q1147.06 100.016 1147.06 106.11 Q1147.06 112.386 1143.16 115.876 Q1139.25 119.339 1132.14 119.339 Q1129.69 119.339 1127.14 118.923 Q1124.61 118.506 1121.91 117.673 L1121.91 112.386 Q1124.25 113.662 1126.75 114.287 Q1129.25 114.912 1132.04 114.912 Q1136.54 114.912 1139.17 112.542 Q1141.8 110.173 1141.8 106.11 Q1141.8 102.048 1139.17 99.6779 Q1136.54 97.3081 1132.04 97.3081 Q1129.93 97.3081 1127.82 97.7768 Q1125.73 98.2456 1123.55 99.2351 L1123.55 79.704 Z" fill="#000000" fill-rule="nonzero" fill-opacity="1" /><path clip-path="url(#clip050)" d="M1158.34 114.157 L1166.93 114.157 L1166.93 84.4956 L1157.58 86.3706 L1157.58 81.579 L1166.88 79.704 L1172.14 79.704 L1172.14 114.157 L1180.73 114.157 L1180.73 118.584 L1158.34 118.584 L1158.34 114.157 Z" fill="#000000" fill-rule="nonzero" fill-opacity="1" /><path clip-path="url(#clip050)" d="M1203.26 97.0477 Q1199.72 97.0477 1197.63 99.4695 Q1195.58 101.891 1195.58 106.11 Q1195.58 110.303 1197.63 112.751 Q1199.72 115.173 1203.26 115.173 Q1206.8 115.173 1208.86 112.751 Q1210.94 110.303 1210.94 106.11 Q1210.94 101.891 1208.86 99.4695 Q1206.8 97.0477 1203.26 97.0477 M1213.7 80.5634 L1213.7 85.355 Q1211.72 84.4175 1209.69 83.9227 Q1207.69 83.4279 1205.71 83.4279 Q1200.5 83.4279 1197.74 86.9435 Q1195 90.4592 1194.61 97.5685 Q1196.15 95.3029 1198.47 94.105 Q1200.78 92.881 1203.57 92.881 Q1209.43 92.881 1212.82 96.4487 Q1216.23 99.9903 1216.23 106.11 Q1216.23 112.1 1212.69 115.719 Q1209.14 119.339 1203.26 119.339 Q1196.51 119.339 1192.95 114.183 Q1189.38 109.001 1189.38 99.1831 Q1189.38 89.9644 1193.75 84.4956 Q1198.13 79.0009 1205.5 79.0009 Q1207.48 79.0009 1209.48 79.3915 Q1211.51 79.7821 1213.7 80.5634 Z" fill="#000000" fill-rule="nonzero" fill-opacity="1" /><path clip-path="url(#clip050)" d="M1252.87 92.7768 Q1249.01 92.7768 1246.77 95.7977 Q1244.53 98.7924 1244.53 104.027 Q1244.53 109.261 1246.75 112.282 Q1248.99 115.277 1252.87 115.277 Q1256.7 115.277 1258.94 112.256 Q1261.18 109.235 1261.18 104.027 Q1261.18 98.8445 1258.94 95.8237 Q1256.7 92.7768 1252.87 92.7768 M1252.87 88.7144 Q1259.12 88.7144 1262.69 92.7768 Q1266.25 96.8393 1266.25 104.027 Q1266.25 111.188 1262.69 115.277 Q1259.12 119.339 1252.87 119.339 Q1246.59 119.339 1243.02 115.277 Q1239.48 111.188 1239.48 104.027 Q1239.48 96.8393 1243.02 92.7768 Q1246.59 88.7144 1252.87 88.7144 Z" fill="#000000" fill-rule="nonzero" fill-opacity="1" /><path clip-path="url(#clip050)" d="M1295.13 104.027 Q1295.13 98.7404 1292.95 95.7456 Q1290.78 92.7248 1286.98 92.7248 Q1283.18 92.7248 1280.99 95.7456 Q1278.83 98.7404 1278.83 104.027 Q1278.83 109.313 1280.99 112.334 Q1283.18 115.329 1286.98 115.329 Q1290.78 115.329 1292.95 112.334 Q1295.13 109.313 1295.13 104.027 M1278.83 93.8445 Q1280.34 91.2404 1282.63 89.9904 Q1284.95 88.7144 1288.15 88.7144 Q1293.47 88.7144 1296.77 92.9331 Q1300.11 97.1518 1300.11 104.027 Q1300.11 110.902 1296.77 115.12 Q1293.47 119.339 1288.15 119.339 Q1284.95 119.339 1282.63 118.089 Q1280.34 116.813 1278.83 114.209 L1278.83 118.584 L1274.01 118.584 L1274.01 78.0634 L1278.83 78.0634 L1278.83 93.8445 Z" fill="#000000" fill-rule="nonzero" fill-opacity="1" /><path clip-path="url(#clip050)" d="M1326.64 90.2769 L1326.64 94.8081 Q1324.61 93.7664 1322.42 93.2456 Q1320.24 92.7248 1317.89 92.7248 Q1314.33 92.7248 1312.53 93.8185 Q1310.76 94.9123 1310.76 97.0997 Q1310.76 98.7664 1312.03 99.7299 Q1313.31 100.667 1317.16 101.527 L1318.81 101.891 Q1323.91 102.985 1326.04 104.99 Q1328.21 106.969 1328.21 110.537 Q1328.21 114.6 1324.98 116.969 Q1321.77 119.339 1316.15 119.339 Q1313.81 119.339 1311.25 118.87 Q1308.73 118.428 1305.91 117.516 L1305.91 112.568 Q1308.57 113.949 1311.15 114.652 Q1313.73 115.329 1316.25 115.329 Q1319.64 115.329 1321.46 114.183 Q1323.28 113.011 1323.28 110.902 Q1323.28 108.949 1321.96 107.907 Q1320.65 106.865 1316.2 105.902 L1314.53 105.511 Q1310.08 104.574 1308.1 102.647 Q1306.12 100.693 1306.12 97.3081 Q1306.12 93.1935 1309.04 90.9539 Q1311.96 88.7144 1317.32 88.7144 Q1319.98 88.7144 1322.32 89.105 Q1324.66 89.4956 1326.64 90.2769 Z" fill="#000000" fill-rule="nonzero" fill-opacity="1" /><path clip-path="url(#clip050)" d="M1358.96 77.829 L1358.96 131.162 L1354.53 131.162 L1354.53 77.829 L1358.96 77.829 Z" fill="#000000" fill-rule="nonzero" fill-opacity="1" /><path clip-path="url(#clip050)" d="M1410.42 95.0164 Q1412.22 91.7873 1414.72 90.2508 Q1417.22 88.7144 1420.6 88.7144 Q1425.16 88.7144 1427.63 91.9175 Q1430.11 95.0945 1430.11 100.98 L1430.11 118.584 L1425.29 118.584 L1425.29 101.136 Q1425.29 96.9435 1423.8 94.9123 Q1422.32 92.881 1419.27 92.881 Q1415.55 92.881 1413.39 95.355 Q1411.23 97.8289 1411.23 102.1 L1411.23 118.584 L1406.41 118.584 L1406.41 101.136 Q1406.41 96.9174 1404.92 94.9123 Q1403.44 92.881 1400.34 92.881 Q1396.67 92.881 1394.51 95.381 Q1392.35 97.8549 1392.35 102.1 L1392.35 118.584 L1387.53 118.584 L1387.53 89.4175 L1392.35 89.4175 L1392.35 93.9487 Q1393.99 91.2664 1396.28 89.9904 Q1398.57 88.7144 1401.72 88.7144 Q1404.9 88.7144 1407.11 90.3289 Q1409.35 91.9435 1410.42 95.0164 Z" fill="#000000" fill-rule="nonzero" fill-opacity="1" /><path clip-path="url(#clip050)" d="M1452.92 103.923 Q1447.11 103.923 1444.87 105.251 Q1442.63 106.579 1442.63 109.782 Q1442.63 112.334 1444.3 113.844 Q1445.99 115.329 1448.88 115.329 Q1452.87 115.329 1455.26 112.516 Q1457.68 109.678 1457.68 104.99 L1457.68 103.923 L1452.92 103.923 M1462.48 101.943 L1462.48 118.584 L1457.68 118.584 L1457.68 114.157 Q1456.04 116.813 1453.6 118.089 Q1451.15 119.339 1447.61 119.339 Q1443.13 119.339 1440.47 116.839 Q1437.84 114.313 1437.84 110.094 Q1437.84 105.173 1441.12 102.673 Q1444.43 100.173 1450.97 100.173 L1457.68 100.173 L1457.68 99.7039 Q1457.68 96.3966 1455.5 94.5998 Q1453.34 92.7768 1449.4 92.7768 Q1446.9 92.7768 1444.53 93.3758 Q1442.16 93.9748 1439.98 95.1727 L1439.98 90.7456 Q1442.61 89.73 1445.08 89.2352 Q1447.55 88.7144 1449.9 88.7144 Q1456.23 88.7144 1459.35 91.9956 Q1462.48 95.2768 1462.48 101.943 Z" fill="#000000" fill-rule="nonzero" fill-opacity="1" /><path clip-path="url(#clip050)" d="M1496.59 89.4175 L1486.04 103.61 L1497.14 118.584 L1491.49 118.584 L1483 107.126 L1474.51 118.584 L1468.86 118.584 L1480.18 103.324 L1469.82 89.4175 L1475.47 89.4175 L1483.21 99.8081 L1490.94 89.4175 L1496.59 89.4175 Z" fill="#000000" fill-rule="nonzero" fill-opacity="1" /><path clip-path="url(#clip050)" d="M1526.07 127.438 L1526.07 131.162 L1498.36 131.162 L1498.36 127.438 L1526.07 127.438 Z" fill="#000000" fill-rule="nonzero" fill-opacity="1" /><path clip-path="url(#clip050)" d="M1530.57 89.4175 L1535.37 89.4175 L1535.37 118.584 L1530.57 118.584 L1530.57 89.4175 M1530.57 78.0634 L1535.37 78.0634 L1535.37 84.1311 L1530.57 84.1311 L1530.57 78.0634 Z" fill="#000000" fill-rule="nonzero" fill-opacity="1" /><path clip-path="url(#clip050)" d="M1550.13 81.1363 L1550.13 89.4175 L1560 89.4175 L1560 93.1414 L1550.13 93.1414 L1550.13 108.975 Q1550.13 112.542 1551.1 113.558 Q1552.09 114.574 1555.08 114.574 L1560 114.574 L1560 118.584 L1555.08 118.584 Q1549.53 118.584 1547.42 116.527 Q1545.31 114.443 1545.31 108.975 L1545.31 93.1414 L1541.8 93.1414 L1541.8 89.4175 L1545.31 89.4175 L1545.31 81.1363 L1550.13 81.1363 Z" fill="#000000" fill-rule="nonzero" fill-opacity="1" /><path clip-path="url(#clip050)" d="M1591.25 102.803 L1591.25 105.147 L1569.22 105.147 Q1569.53 110.094 1572.19 112.699 Q1574.87 115.277 1579.64 115.277 Q1582.4 115.277 1584.98 114.6 Q1587.58 113.923 1590.13 112.568 L1590.13 117.1 Q1587.55 118.193 1584.85 118.766 Q1582.14 119.339 1579.35 119.339 Q1572.37 119.339 1568.28 115.277 Q1564.22 111.214 1564.22 104.287 Q1564.22 97.1258 1568.07 92.9331 Q1571.95 88.7144 1578.52 88.7144 Q1584.4 88.7144 1587.81 92.5164 Q1591.25 96.2925 1591.25 102.803 M1586.46 101.397 Q1586.41 97.4643 1584.25 95.1206 Q1582.11 92.7768 1578.57 92.7768 Q1574.56 92.7768 1572.14 95.0425 Q1569.74 97.3081 1569.38 101.423 L1586.46 101.397 Z" fill="#000000" fill-rule="nonzero" fill-opacity="1" /><path clip-path="url(#clip050)" d="M1616.02 93.8966 Q1615.21 93.4279 1614.25 93.2196 Q1613.31 92.9852 1612.16 92.9852 Q1608.1 92.9852 1605.91 95.6414 Q1603.75 98.2716 1603.75 103.219 L1603.75 118.584 L1598.93 118.584 L1598.93 89.4175 L1603.75 89.4175 L1603.75 93.9487 Q1605.26 91.2925 1607.68 90.0164 Q1610.11 88.7144 1613.57 88.7144 Q1614.06 88.7144 1614.66 88.7925 Q1615.26 88.8446 1615.99 88.9748 L1616.02 93.8966 Z" fill="#000000" fill-rule="nonzero" fill-opacity="1" /><path clip-path="url(#clip050)" d="M1638.62 94.3654 L1672.01 94.3654 L1672.01 98.7404 L1638.62 98.7404 L1638.62 94.3654 M1638.62 104.99 L1672.01 104.99 L1672.01 109.417 L1638.62 109.417 L1638.62 104.99 Z" fill="#000000" fill-rule="nonzero" fill-opacity="1" /><path clip-path="url(#clip050)" d="M1712.21 97.0477 Q1708.67 97.0477 1706.59 99.4695 Q1704.53 101.891 1704.53 106.11 Q1704.53 110.303 1706.59 112.751 Q1708.67 115.173 1712.21 115.173 Q1715.76 115.173 1717.81 112.751 Q1719.9 110.303 1719.9 106.11 Q1719.9 101.891 1717.81 99.4695 Q1715.76 97.0477 1712.21 97.0477 M1722.66 80.5634 L1722.66 85.355 Q1720.68 84.4175 1718.65 83.9227 Q1716.64 83.4279 1714.66 83.4279 Q1709.45 83.4279 1706.69 86.9435 Q1703.96 90.4592 1703.57 97.5685 Q1705.11 95.3029 1707.42 94.105 Q1709.74 92.881 1712.53 92.881 Q1718.39 92.881 1721.77 96.4487 Q1725.18 99.9903 1725.18 106.11 Q1725.18 112.1 1721.64 115.719 Q1718.1 119.339 1712.21 119.339 Q1705.47 119.339 1701.9 114.183 Q1698.33 109.001 1698.33 99.1831 Q1698.33 89.9644 1702.71 84.4956 Q1707.08 79.0009 1714.45 79.0009 Q1716.43 79.0009 1718.44 79.3915 Q1720.47 79.7821 1722.66 80.5634 Z" fill="#000000" fill-rule="nonzero" fill-opacity="1" /><path clip-path="url(#clip050)" d="M1745.5 83.1675 Q1741.43 83.1675 1739.38 87.1779 Q1737.34 91.1623 1737.34 99.1831 Q1737.34 107.178 1739.38 111.188 Q1741.43 115.173 1745.5 115.173 Q1749.58 115.173 1751.62 111.188 Q1753.67 107.178 1753.67 99.1831 Q1753.67 91.1623 1751.62 87.1779 Q1749.58 83.1675 1745.5 83.1675 M1745.5 79.0009 Q1752.03 79.0009 1755.47 84.1831 Q1758.93 89.3394 1758.93 99.1831 Q1758.93 109.001 1755.47 114.183 Q1752.03 119.339 1745.5 119.339 Q1738.96 119.339 1735.5 114.183 Q1732.06 109.001 1732.06 99.1831 Q1732.06 89.3394 1735.5 84.1831 Q1738.96 79.0009 1745.5 79.0009 Z" fill="#000000" fill-rule="nonzero" fill-opacity="1" /><polyline clip-path="url(#clip052)" style="stroke:#000080; stroke-linecap:round; stroke-linejoin:round; stroke-width:8; stroke-opacity:1; fill:none" points="360.486,1386.88 393.269,756.351 426.053,641.225 458.837,584.109 491.621,548.46 524.405,521.011 557.188,498.212 589.972,477.843 622.756,459.238 655.54,441.759 688.323,423.734 721.107,403.128 753.891,382.497 786.675,362.091 819.459,340.067 852.242,316.805 885.026,295.902 917.81,278.861 950.594,263.605 983.377,251.926 1016.16,243.045 1048.95,236.108 1081.73,230.311 1114.51,225.286 1147.3,221.037 1180.08,217.222 1212.86,213.924 1245.65,210.889 1278.43,208.275 1311.22,205.987 1344,203.835 1376.78,201.718 1409.57,199.949 1442.35,198.326 1475.13,196.809 1507.92,195.223 1540.7,193.898 1573.49,192.698 1606.27,191.54 1639.05,190.421 1671.84,189.452 1704.62,188.525 1737.4,187.695 1770.19,186.934 1802.97,186.212 1835.76,185.509 1868.54,184.824 1901.32,184.092 1934.11,183.345 1966.89,182.655 1999.67,182.046 2032.46,181.473 2065.24,180.944 2098.03,180.411 2130.81,179.902 2163.59,179.365 2196.38,178.788 2229.16,178.177 2261.94,177.604 2294.73,177.047 "/>
<circle clip-path="url(#clip052)" cx="360.486" cy="1386.88" r="10.8" fill="#000080" fill-rule="evenodd" fill-opacity="1" stroke="#000000" stroke-opacity="1" stroke-width="3.2"/>
<circle clip-path="url(#clip052)" cx="393.269" cy="756.351" r="10.8" fill="#000080" fill-rule="evenodd" fill-opacity="1" stroke="#000000" stroke-opacity="1" stroke-width="3.2"/>
<circle clip-path="url(#clip052)" cx="426.053" cy="641.225" r="10.8" fill="#000080" fill-rule="evenodd" fill-opacity="1" stroke="#000000" stroke-opacity="1" stroke-width="3.2"/>
<circle clip-path="url(#clip052)" cx="458.837" cy="584.109" r="10.8" fill="#000080" fill-rule="evenodd" fill-opacity="1" stroke="#000000" stroke-opacity="1" stroke-width="3.2"/>
<circle clip-path="url(#clip052)" cx="491.621" cy="548.46" r="10.8" fill="#000080" fill-rule="evenodd" fill-opacity="1" stroke="#000000" stroke-opacity="1" stroke-width="3.2"/>
<circle clip-path="url(#clip052)" cx="524.405" cy="521.011" r="10.8" fill="#000080" fill-rule="evenodd" fill-opacity="1" stroke="#000000" stroke-opacity="1" stroke-width="3.2"/>
<circle clip-path="url(#clip052)" cx="557.188" cy="498.212" r="10.8" fill="#000080" fill-rule="evenodd" fill-opacity="1" stroke="#000000" stroke-opacity="1" stroke-width="3.2"/>
<circle clip-path="url(#clip052)" cx="589.972" cy="477.843" r="10.8" fill="#000080" fill-rule="evenodd" fill-opacity="1" stroke="#000000" stroke-opacity="1" stroke-width="3.2"/>
<circle clip-path="url(#clip052)" cx="622.756" cy="459.238" r="10.8" fill="#000080" fill-rule="evenodd" fill-opacity="1" stroke="#000000" stroke-opacity="1" stroke-width="3.2"/>
<circle clip-path="url(#clip052)" cx="655.54" cy="441.759" r="10.8" fill="#000080" fill-rule="evenodd" fill-opacity="1" stroke="#000000" stroke-opacity="1" stroke-width="3.2"/>
<circle clip-path="url(#clip052)" cx="688.323" cy="423.734" r="10.8" fill="#000080" fill-rule="evenodd" fill-opacity="1" stroke="#000000" stroke-opacity="1" stroke-width="3.2"/>
<circle clip-path="url(#clip052)" cx="721.107" cy="403.128" r="10.8" fill="#000080" fill-rule="evenodd" fill-opacity="1" stroke="#000000" stroke-opacity="1" stroke-width="3.2"/>
<circle clip-path="url(#clip052)" cx="753.891" cy="382.497" r="10.8" fill="#000080" fill-rule="evenodd" fill-opacity="1" stroke="#000000" stroke-opacity="1" stroke-width="3.2"/>
<circle clip-path="url(#clip052)" cx="786.675" cy="362.091" r="10.8" fill="#000080" fill-rule="evenodd" fill-opacity="1" stroke="#000000" stroke-opacity="1" stroke-width="3.2"/>
<circle clip-path="url(#clip052)" cx="819.459" cy="340.067" r="10.8" fill="#000080" fill-rule="evenodd" fill-opacity="1" stroke="#000000" stroke-opacity="1" stroke-width="3.2"/>
<circle clip-path="url(#clip052)" cx="852.242" cy="316.805" r="10.8" fill="#000080" fill-rule="evenodd" fill-opacity="1" stroke="#000000" stroke-opacity="1" stroke-width="3.2"/>
<circle clip-path="url(#clip052)" cx="885.026" cy="295.902" r="10.8" fill="#000080" fill-rule="evenodd" fill-opacity="1" stroke="#000000" stroke-opacity="1" stroke-width="3.2"/>
<circle clip-path="url(#clip052)" cx="917.81" cy="278.861" r="10.8" fill="#000080" fill-rule="evenodd" fill-opacity="1" stroke="#000000" stroke-opacity="1" stroke-width="3.2"/>
<circle clip-path="url(#clip052)" cx="950.594" cy="263.605" r="10.8" fill="#000080" fill-rule="evenodd" fill-opacity="1" stroke="#000000" stroke-opacity="1" stroke-width="3.2"/>
<circle clip-path="url(#clip052)" cx="983.377" cy="251.926" r="10.8" fill="#000080" fill-rule="evenodd" fill-opacity="1" stroke="#000000" stroke-opacity="1" stroke-width="3.2"/>
<circle clip-path="url(#clip052)" cx="1016.16" cy="243.045" r="10.8" fill="#000080" fill-rule="evenodd" fill-opacity="1" stroke="#000000" stroke-opacity="1" stroke-width="3.2"/>
<circle clip-path="url(#clip052)" cx="1048.95" cy="236.108" r="10.8" fill="#000080" fill-rule="evenodd" fill-opacity="1" stroke="#000000" stroke-opacity="1" stroke-width="3.2"/>
<circle clip-path="url(#clip052)" cx="1081.73" cy="230.311" r="10.8" fill="#000080" fill-rule="evenodd" fill-opacity="1" stroke="#000000" stroke-opacity="1" stroke-width="3.2"/>
<circle clip-path="url(#clip052)" cx="1114.51" cy="225.286" r="10.8" fill="#000080" fill-rule="evenodd" fill-opacity="1" stroke="#000000" stroke-opacity="1" stroke-width="3.2"/>
<circle clip-path="url(#clip052)" cx="1147.3" cy="221.037" r="10.8" fill="#000080" fill-rule="evenodd" fill-opacity="1" stroke="#000000" stroke-opacity="1" stroke-width="3.2"/>
<circle clip-path="url(#clip052)" cx="1180.08" cy="217.222" r="10.8" fill="#000080" fill-rule="evenodd" fill-opacity="1" stroke="#000000" stroke-opacity="1" stroke-width="3.2"/>
<circle clip-path="url(#clip052)" cx="1212.86" cy="213.924" r="10.8" fill="#000080" fill-rule="evenodd" fill-opacity="1" stroke="#000000" stroke-opacity="1" stroke-width="3.2"/>
<circle clip-path="url(#clip052)" cx="1245.65" cy="210.889" r="10.8" fill="#000080" fill-rule="evenodd" fill-opacity="1" stroke="#000000" stroke-opacity="1" stroke-width="3.2"/>
<circle clip-path="url(#clip052)" cx="1278.43" cy="208.275" r="10.8" fill="#000080" fill-rule="evenodd" fill-opacity="1" stroke="#000000" stroke-opacity="1" stroke-width="3.2"/>
<circle clip-path="url(#clip052)" cx="1311.22" cy="205.987" r="10.8" fill="#000080" fill-rule="evenodd" fill-opacity="1" stroke="#000000" stroke-opacity="1" stroke-width="3.2"/>
<circle clip-path="url(#clip052)" cx="1344" cy="203.835" r="10.8" fill="#000080" fill-rule="evenodd" fill-opacity="1" stroke="#000000" stroke-opacity="1" stroke-width="3.2"/>
<circle clip-path="url(#clip052)" cx="1376.78" cy="201.718" r="10.8" fill="#000080" fill-rule="evenodd" fill-opacity="1" stroke="#000000" stroke-opacity="1" stroke-width="3.2"/>
<circle clip-path="url(#clip052)" cx="1409.57" cy="199.949" r="10.8" fill="#000080" fill-rule="evenodd" fill-opacity="1" stroke="#000000" stroke-opacity="1" stroke-width="3.2"/>
<circle clip-path="url(#clip052)" cx="1442.35" cy="198.326" r="10.8" fill="#000080" fill-rule="evenodd" fill-opacity="1" stroke="#000000" stroke-opacity="1" stroke-width="3.2"/>
<circle clip-path="url(#clip052)" cx="1475.13" cy="196.809" r="10.8" fill="#000080" fill-rule="evenodd" fill-opacity="1" stroke="#000000" stroke-opacity="1" stroke-width="3.2"/>
<circle clip-path="url(#clip052)" cx="1507.92" cy="195.223" r="10.8" fill="#000080" fill-rule="evenodd" fill-opacity="1" stroke="#000000" stroke-opacity="1" stroke-width="3.2"/>
<circle clip-path="url(#clip052)" cx="1540.7" cy="193.898" r="10.8" fill="#000080" fill-rule="evenodd" fill-opacity="1" stroke="#000000" stroke-opacity="1" stroke-width="3.2"/>
<circle clip-path="url(#clip052)" cx="1573.49" cy="192.698" r="10.8" fill="#000080" fill-rule="evenodd" fill-opacity="1" stroke="#000000" stroke-opacity="1" stroke-width="3.2"/>
<circle clip-path="url(#clip052)" cx="1606.27" cy="191.54" r="10.8" fill="#000080" fill-rule="evenodd" fill-opacity="1" stroke="#000000" stroke-opacity="1" stroke-width="3.2"/>
<circle clip-path="url(#clip052)" cx="1639.05" cy="190.421" r="10.8" fill="#000080" fill-rule="evenodd" fill-opacity="1" stroke="#000000" stroke-opacity="1" stroke-width="3.2"/>
<circle clip-path="url(#clip052)" cx="1671.84" cy="189.452" r="10.8" fill="#000080" fill-rule="evenodd" fill-opacity="1" stroke="#000000" stroke-opacity="1" stroke-width="3.2"/>
<circle clip-path="url(#clip052)" cx="1704.62" cy="188.525" r="10.8" fill="#000080" fill-rule="evenodd" fill-opacity="1" stroke="#000000" stroke-opacity="1" stroke-width="3.2"/>
<circle clip-path="url(#clip052)" cx="1737.4" cy="187.695" r="10.8" fill="#000080" fill-rule="evenodd" fill-opacity="1" stroke="#000000" stroke-opacity="1" stroke-width="3.2"/>
<circle clip-path="url(#clip052)" cx="1770.19" cy="186.934" r="10.8" fill="#000080" fill-rule="evenodd" fill-opacity="1" stroke="#000000" stroke-opacity="1" stroke-width="3.2"/>
<circle clip-path="url(#clip052)" cx="1802.97" cy="186.212" r="10.8" fill="#000080" fill-rule="evenodd" fill-opacity="1" stroke="#000000" stroke-opacity="1" stroke-width="3.2"/>
<circle clip-path="url(#clip052)" cx="1835.76" cy="185.509" r="10.8" fill="#000080" fill-rule="evenodd" fill-opacity="1" stroke="#000000" stroke-opacity="1" stroke-width="3.2"/>
<circle clip-path="url(#clip052)" cx="1868.54" cy="184.824" r="10.8" fill="#000080" fill-rule="evenodd" fill-opacity="1" stroke="#000000" stroke-opacity="1" stroke-width="3.2"/>
<circle clip-path="url(#clip052)" cx="1901.32" cy="184.092" r="10.8" fill="#000080" fill-rule="evenodd" fill-opacity="1" stroke="#000000" stroke-opacity="1" stroke-width="3.2"/>
<circle clip-path="url(#clip052)" cx="1934.11" cy="183.345" r="10.8" fill="#000080" fill-rule="evenodd" fill-opacity="1" stroke="#000000" stroke-opacity="1" stroke-width="3.2"/>
<circle clip-path="url(#clip052)" cx="1966.89" cy="182.655" r="10.8" fill="#000080" fill-rule="evenodd" fill-opacity="1" stroke="#000000" stroke-opacity="1" stroke-width="3.2"/>
<circle clip-path="url(#clip052)" cx="1999.67" cy="182.046" r="10.8" fill="#000080" fill-rule="evenodd" fill-opacity="1" stroke="#000000" stroke-opacity="1" stroke-width="3.2"/>
<circle clip-path="url(#clip052)" cx="2032.46" cy="181.473" r="10.8" fill="#000080" fill-rule="evenodd" fill-opacity="1" stroke="#000000" stroke-opacity="1" stroke-width="3.2"/>
<circle clip-path="url(#clip052)" cx="2065.24" cy="180.944" r="10.8" fill="#000080" fill-rule="evenodd" fill-opacity="1" stroke="#000000" stroke-opacity="1" stroke-width="3.2"/>
<circle clip-path="url(#clip052)" cx="2098.03" cy="180.411" r="10.8" fill="#000080" fill-rule="evenodd" fill-opacity="1" stroke="#000000" stroke-opacity="1" stroke-width="3.2"/>
<circle clip-path="url(#clip052)" cx="2130.81" cy="179.902" r="10.8" fill="#000080" fill-rule="evenodd" fill-opacity="1" stroke="#000000" stroke-opacity="1" stroke-width="3.2"/>
<circle clip-path="url(#clip052)" cx="2163.59" cy="179.365" r="10.8" fill="#000080" fill-rule="evenodd" fill-opacity="1" stroke="#000000" stroke-opacity="1" stroke-width="3.2"/>
<circle clip-path="url(#clip052)" cx="2196.38" cy="178.788" r="10.8" fill="#000080" fill-rule="evenodd" fill-opacity="1" stroke="#000000" stroke-opacity="1" stroke-width="3.2"/>
<circle clip-path="url(#clip052)" cx="2229.16" cy="178.177" r="10.8" fill="#000080" fill-rule="evenodd" fill-opacity="1" stroke="#000000" stroke-opacity="1" stroke-width="3.2"/>
<circle clip-path="url(#clip052)" cx="2261.94" cy="177.604" r="10.8" fill="#000080" fill-rule="evenodd" fill-opacity="1" stroke="#000000" stroke-opacity="1" stroke-width="3.2"/>
<circle clip-path="url(#clip052)" cx="2294.73" cy="177.047" r="10.8" fill="#000080" fill-rule="evenodd" fill-opacity="1" stroke="#000000" stroke-opacity="1" stroke-width="3.2"/>
</svg>
