<?xml version="1.0" encoding="utf-8"?>
<svg xmlns="http://www.w3.org/2000/svg" xmlns:xlink="http://www.w3.org/1999/xlink" width="600" height="400" viewBox="0 0 2400 1600">
<defs>
  <clipPath id="clip460">
    <rect x="0" y="0" width="2400" height="1600"/>
  </clipPath>
</defs>
<path clip-path="url(#clip460)" d="M0 1600 L2400 1600 L2400 8.88178e-14 L0 8.88178e-14  Z" fill="#ffffff" fill-rule="evenodd" fill-opacity="1"/>
<defs>
  <clipPath id="clip461">
    <rect x="312" y="0" width="1792" height="1558"/>
  </clipPath>
</defs>
<path clip-path="url(#clip460)" d="M249.542 1423.18 L2352.76 1423.18 L2352.76 106.192 L249.542 106.192  Z" fill="#ffffff" fill-rule="evenodd" fill-opacity="1"/>
<defs>
  <clipPath id="clip462">
    <rect x="249" y="106" width="2104" height="1318"/>
  </clipPath>
</defs>
<polyline clip-path="url(#clip462)" style="stroke:#000000; stroke-linecap:round; stroke-linejoin:round; stroke-width:2; stroke-opacity:0.1; fill:none" points="302.126,1423.18 302.126,106.192 "/>
<polyline clip-path="url(#clip462)" style="stroke:#000000; stroke-linecap:round; stroke-linejoin:round; stroke-width:2; stroke-opacity:0.1; fill:none" points="827.928,1423.18 827.928,106.192 "/>
<polyline clip-path="url(#clip462)" style="stroke:#000000; stroke-linecap:round; stroke-linejoin:round; stroke-width:2; stroke-opacity:0.1; fill:none" points="1353.73,1423.18 1353.73,106.192 "/>
<polyline clip-path="url(#clip462)" style="stroke:#000000; stroke-linecap:round; stroke-linejoin:round; stroke-width:2; stroke-opacity:0.1; fill:none" points="1879.53,1423.18 1879.53,106.192 "/>
<polyline clip-path="url(#clip462)" style="stroke:#000000; stroke-linecap:round; stroke-linejoin:round; stroke-width:2; stroke-opacity:0.1; fill:none" points="249.542,1423.18 2352.76,1423.18 "/>
<polyline clip-path="url(#clip462)" style="stroke:#000000; stroke-linecap:round; stroke-linejoin:round; stroke-width:2; stroke-opacity:0.1; fill:none" points="249.542,1193.36 2352.76,1193.36 "/>
<polyline clip-path="url(#clip462)" style="stroke:#000000; stroke-linecap:round; stroke-linejoin:round; stroke-width:2; stroke-opacity:0.1; fill:none" points="249.542,963.543 2352.76,963.543 "/>
<polyline clip-path="url(#clip462)" style="stroke:#000000; stroke-linecap:round; stroke-linejoin:round; stroke-width:2; stroke-opacity:0.1; fill:none" points="249.542,733.725 2352.76,733.725 "/>
<polyline clip-path="url(#clip462)" style="stroke:#000000; stroke-linecap:round; stroke-linejoin:round; stroke-width:2; stroke-opacity:0.1; fill:none" points="249.542,503.906 2352.76,503.906 "/>
<polyline clip-path="url(#clip462)" style="stroke:#000000; stroke-linecap:round; stroke-linejoin:round; stroke-width:2; stroke-opacity:0.1; fill:none" points="249.542,274.088 2352.76,274.088 "/>
<polyline clip-path="url(#clip460)" style="stroke:#000000; stroke-linecap:round; stroke-linejoin:round; stroke-width:4; stroke-opacity:1; fill:none" points="249.542,1423.18 2352.76,1423.18 "/>
<polyline clip-path="url(#clip460)" style="stroke:#000000; stroke-linecap:round; stroke-linejoin:round; stroke-width:4; stroke-opacity:1; fill:none" points="302.126,1423.18 302.126,1404.28 "/>
<polyline clip-path="url(#clip460)" style="stroke:#000000; stroke-linecap:round; stroke-linejoin:round; stroke-width:4; stroke-opacity:1; fill:none" points="827.928,1423.18 827.928,1404.28 "/>
<polyline clip-path="url(#clip460)" style="stroke:#000000; stroke-linecap:round; stroke-linejoin:round; stroke-width:4; stroke-opacity:1; fill:none" points="1353.73,1423.18 1353.73,1404.28 "/>
<polyline clip-path="url(#clip460)" style="stroke:#000000; stroke-linecap:round; stroke-linejoin:round; stroke-width:4; stroke-opacity:1; fill:none" points="1879.53,1423.18 1879.53,1404.28 "/>
<path clip-path="url(#clip460)" d="M302.126 1454.1 Q298.515 1454.1 296.687 1457.66 Q294.881 1461.2 294.881 1468.33 Q294.881 1475.44 296.687 1479.01 Q298.515 1482.55 302.126 1482.55 Q305.761 1482.55 307.566 1479.01 Q309.395 1475.44 309.395 1468.33 Q309.395 1461.2 307.566 1457.66 Q305.761 1454.1 302.126 1454.1 M302.126 1450.39 Q307.937 1450.39 310.992 1455 Q314.071 1459.58 314.071 1468.33 Q314.071 1477.06 310.992 1481.67 Q307.937 1486.25 302.126 1486.25 Q296.316 1486.25 293.238 1481.67 Q290.182 1477.06 290.182 1468.33 Q290.182 1459.58 293.238 1455 Q296.316 1450.39 302.126 1450.39 Z" fill="#000000" fill-rule="nonzero" fill-opacity="1" /><path clip-path="url(#clip460)" d="M818.206 1451.02 L836.562 1451.02 L836.562 1454.96 L822.488 1454.96 L822.488 1463.43 Q823.506 1463.08 824.525 1462.92 Q825.543 1462.73 826.562 1462.73 Q832.349 1462.73 835.729 1465.9 Q839.108 1469.08 839.108 1474.49 Q839.108 1480.07 835.636 1483.17 Q832.164 1486.25 825.844 1486.25 Q823.669 1486.25 821.4 1485.88 Q819.155 1485.51 816.747 1484.77 L816.747 1480.07 Q818.831 1481.2 821.053 1481.76 Q823.275 1482.32 825.752 1482.32 Q829.756 1482.32 832.094 1480.21 Q834.432 1478.1 834.432 1474.49 Q834.432 1470.88 832.094 1468.77 Q829.756 1466.67 825.752 1466.67 Q823.877 1466.67 822.002 1467.08 Q820.15 1467.5 818.206 1468.38 L818.206 1451.02 Z" fill="#000000" fill-rule="nonzero" fill-opacity="1" /><path clip-path="url(#clip460)" d="M1328.42 1481.64 L1336.06 1481.64 L1336.06 1455.28 L1327.75 1456.95 L1327.75 1452.69 L1336.01 1451.02 L1340.69 1451.02 L1340.69 1481.64 L1348.32 1481.64 L1348.32 1485.58 L1328.42 1485.58 L1328.42 1481.64 Z" fill="#000000" fill-rule="nonzero" fill-opacity="1" /><path clip-path="url(#clip460)" d="M1367.77 1454.1 Q1364.16 1454.1 1362.33 1457.66 Q1360.52 1461.2 1360.52 1468.33 Q1360.52 1475.44 1362.33 1479.01 Q1364.16 1482.55 1367.77 1482.55 Q1371.4 1482.55 1373.21 1479.01 Q1375.04 1475.44 1375.04 1468.33 Q1375.04 1461.2 1373.21 1457.66 Q1371.4 1454.1 1367.77 1454.1 M1367.77 1450.39 Q1373.58 1450.39 1376.63 1455 Q1379.71 1459.58 1379.71 1468.33 Q1379.71 1477.06 1376.63 1481.67 Q1373.58 1486.25 1367.77 1486.25 Q1361.96 1486.25 1358.88 1481.67 Q1355.82 1477.06 1355.82 1468.33 Q1355.82 1459.58 1358.88 1455 Q1361.96 1450.39 1367.77 1450.39 Z" fill="#000000" fill-rule="nonzero" fill-opacity="1" /><path clip-path="url(#clip460)" d="M1854.72 1481.64 L1862.35 1481.64 L1862.35 1455.28 L1854.04 1456.95 L1854.04 1452.69 L1862.31 1451.02 L1866.98 1451.02 L1866.98 1481.64 L1874.62 1481.64 L1874.62 1485.58 L1854.72 1485.58 L1854.72 1481.64 Z" fill="#000000" fill-rule="nonzero" fill-opacity="1" /><path clip-path="url(#clip460)" d="M1884.11 1451.02 L1902.47 1451.02 L1902.47 1454.96 L1888.4 1454.96 L1888.4 1463.43 Q1889.41 1463.08 1890.43 1462.92 Q1891.45 1462.73 1892.47 1462.73 Q1898.26 1462.73 1901.64 1465.9 Q1905.02 1469.08 1905.02 1474.49 Q1905.02 1480.07 1901.54 1483.17 Q1898.07 1486.25 1891.75 1486.25 Q1889.58 1486.25 1887.31 1485.88 Q1885.06 1485.51 1882.66 1484.77 L1882.66 1480.07 Q1884.74 1481.2 1886.96 1481.76 Q1889.18 1482.32 1891.66 1482.32 Q1895.66 1482.32 1898 1480.21 Q1900.34 1478.1 1900.34 1474.49 Q1900.34 1470.88 1898 1468.77 Q1895.66 1466.67 1891.66 1466.67 Q1889.79 1466.67 1887.91 1467.08 Q1886.06 1467.5 1884.11 1468.38 L1884.11 1451.02 Z" fill="#000000" fill-rule="nonzero" fill-opacity="1" /><path clip-path="url(#clip460)" d="M1249.35 1522.08 L1249.35 1528.35 Q1245.69 1526.6 1242.44 1525.74 Q1239.19 1524.88 1236.17 1524.88 Q1230.92 1524.88 1228.05 1526.92 Q1225.22 1528.96 1225.22 1532.71 Q1225.22 1535.87 1227.1 1537.49 Q1229.01 1539.08 1234.29 1540.07 L1238.18 1540.86 Q1245.37 1542.23 1248.78 1545.7 Q1252.21 1549.14 1252.21 1554.93 Q1252.21 1561.84 1247.57 1565.4 Q1242.95 1568.97 1234.01 1568.97 Q1230.63 1568.97 1226.81 1568.2 Q1223.03 1567.44 1218.95 1565.94 L1218.95 1559.32 Q1222.87 1561.52 1226.62 1562.63 Q1230.38 1563.75 1234.01 1563.75 Q1239.51 1563.75 1242.5 1561.58 Q1245.5 1559.42 1245.5 1555.41 Q1245.5 1551.91 1243.33 1549.93 Q1241.2 1547.96 1236.3 1546.97 L1232.38 1546.21 Q1225.19 1544.78 1221.98 1541.72 Q1218.76 1538.67 1218.76 1533.22 Q1218.76 1526.92 1223.18 1523.29 Q1227.64 1519.66 1235.44 1519.66 Q1238.78 1519.66 1242.25 1520.27 Q1245.72 1520.87 1249.35 1522.08 Z" fill="#000000" fill-rule="nonzero" fill-opacity="1" /><path clip-path="url(#clip460)" d="M1267.78 1522.27 L1267.78 1532.4 L1279.84 1532.4 L1279.84 1536.95 L1267.78 1536.95 L1267.78 1556.3 Q1267.78 1560.66 1268.95 1561.9 Q1270.16 1563.14 1273.82 1563.14 L1279.84 1563.14 L1279.84 1568.04 L1273.82 1568.04 Q1267.04 1568.04 1264.47 1565.53 Q1261.89 1562.98 1261.89 1556.3 L1261.89 1536.95 L1257.59 1536.95 L1257.59 1532.4 L1261.89 1532.4 L1261.89 1522.27 L1267.78 1522.27 Z" fill="#000000" fill-rule="nonzero" fill-opacity="1" /><path clip-path="url(#clip460)" d="M1303.74 1550.12 Q1296.65 1550.12 1293.91 1551.75 Q1291.17 1553.37 1291.17 1557.29 Q1291.17 1560.4 1293.21 1562.25 Q1295.28 1564.07 1298.81 1564.07 Q1303.68 1564.07 1306.61 1560.63 Q1309.57 1557.16 1309.57 1551.43 L1309.57 1550.12 L1303.74 1550.12 M1315.42 1547.71 L1315.42 1568.04 L1309.57 1568.04 L1309.57 1562.63 Q1307.56 1565.88 1304.57 1567.44 Q1301.58 1568.97 1297.25 1568.97 Q1291.78 1568.97 1288.53 1565.91 Q1285.31 1562.82 1285.31 1557.67 Q1285.31 1551.65 1289.32 1548.6 Q1293.37 1545.54 1301.36 1545.54 L1309.57 1545.54 L1309.57 1544.97 Q1309.57 1540.93 1306.89 1538.73 Q1304.25 1536.5 1299.45 1536.5 Q1296.39 1536.5 1293.49 1537.23 Q1290.6 1537.97 1287.92 1539.43 L1287.92 1534.02 Q1291.14 1532.78 1294.16 1532.17 Q1297.19 1531.54 1300.05 1531.54 Q1307.79 1531.54 1311.6 1535.55 Q1315.42 1539.56 1315.42 1547.71 Z" fill="#000000" fill-rule="nonzero" fill-opacity="1" /><path clip-path="url(#clip460)" d="M1333.28 1522.27 L1333.28 1532.4 L1345.34 1532.4 L1345.34 1536.95 L1333.28 1536.95 L1333.28 1556.3 Q1333.28 1560.66 1334.46 1561.9 Q1335.67 1563.14 1339.33 1563.14 L1345.34 1563.14 L1345.34 1568.04 L1339.33 1568.04 Q1332.55 1568.04 1329.97 1565.53 Q1327.39 1562.98 1327.39 1556.3 L1327.39 1536.95 L1323.09 1536.95 L1323.09 1532.4 L1327.39 1532.4 L1327.39 1522.27 L1333.28 1522.27 Z" fill="#000000" fill-rule="nonzero" fill-opacity="1" /><path clip-path="url(#clip460)" d="M1383.54 1548.76 L1383.54 1551.62 L1356.61 1551.62 Q1356.99 1557.67 1360.24 1560.85 Q1363.52 1564 1369.34 1564 Q1372.72 1564 1375.87 1563.17 Q1379.05 1562.35 1382.17 1560.69 L1382.17 1566.23 Q1379.02 1567.57 1375.71 1568.27 Q1372.4 1568.97 1368.99 1568.97 Q1360.46 1568.97 1355.46 1564 Q1350.5 1559.04 1350.5 1550.57 Q1350.5 1541.82 1355.21 1536.69 Q1359.95 1531.54 1367.97 1531.54 Q1375.17 1531.54 1379.34 1536.18 Q1383.54 1540.8 1383.54 1548.76 M1377.68 1547.04 Q1377.62 1542.23 1374.98 1539.37 Q1372.37 1536.5 1368.04 1536.5 Q1363.14 1536.5 1360.17 1539.27 Q1357.25 1542.04 1356.8 1547.07 L1377.68 1547.04 Z" fill="#000000" fill-rule="nonzero" fill-opacity="1" /><polyline clip-path="url(#clip460)" style="stroke:#000000; stroke-linecap:round; stroke-linejoin:round; stroke-width:4; stroke-opacity:1; fill:none" points="249.542,1423.18 249.542,106.192 "/>
<polyline clip-path="url(#clip460)" style="stroke:#000000; stroke-linecap:round; stroke-linejoin:round; stroke-width:4; stroke-opacity:1; fill:none" points="249.542,1423.18 268.44,1423.18 "/>
<polyline clip-path="url(#clip460)" style="stroke:#000000; stroke-linecap:round; stroke-linejoin:round; stroke-width:4; stroke-opacity:1; fill:none" points="249.542,1193.36 268.44,1193.36 "/>
<polyline clip-path="url(#clip460)" style="stroke:#000000; stroke-linecap:round; stroke-linejoin:round; stroke-width:4; stroke-opacity:1; fill:none" points="249.542,963.543 268.44,963.543 "/>
<polyline clip-path="url(#clip460)" style="stroke:#000000; stroke-linecap:round; stroke-linejoin:round; stroke-width:4; stroke-opacity:1; fill:none" points="249.542,733.725 268.44,733.725 "/>
<polyline clip-path="url(#clip460)" style="stroke:#000000; stroke-linecap:round; stroke-linejoin:round; stroke-width:4; stroke-opacity:1; fill:none" points="249.542,503.906 268.44,503.906 "/>
<polyline clip-path="url(#clip460)" style="stroke:#000000; stroke-linecap:round; stroke-linejoin:round; stroke-width:4; stroke-opacity:1; fill:none" points="249.542,274.088 268.44,274.088 "/>
<path clip-path="url(#clip460)" d="M126.205 1408.98 Q122.593 1408.98 120.765 1412.54 Q118.959 1416.08 118.959 1423.21 Q118.959 1430.32 120.765 1433.89 Q122.593 1437.43 126.205 1437.43 Q129.839 1437.43 131.644 1433.89 Q133.473 1430.32 133.473 1423.21 Q133.473 1416.08 131.644 1412.54 Q129.839 1408.98 126.205 1408.98 M126.205 1405.27 Q132.015 1405.27 135.07 1409.88 Q138.149 1414.46 138.149 1423.21 Q138.149 1431.94 135.07 1436.55 Q132.015 1441.13 126.205 1441.13 Q120.394 1441.13 117.316 1436.55 Q114.26 1431.94 114.26 1423.21 Q114.26 1414.46 117.316 1409.88 Q120.394 1405.27 126.205 1405.27 Z" fill="#000000" fill-rule="nonzero" fill-opacity="1" /><path clip-path="url(#clip460)" d="M146.366 1434.58 L151.251 1434.58 L151.251 1440.46 L146.366 1440.46 L146.366 1434.58 Z" fill="#000000" fill-rule="nonzero" fill-opacity="1" /><path clip-path="url(#clip460)" d="M171.436 1408.98 Q167.825 1408.98 165.996 1412.54 Q164.19 1416.08 164.19 1423.21 Q164.19 1430.32 165.996 1433.89 Q167.825 1437.43 171.436 1437.43 Q175.07 1437.43 176.876 1433.89 Q178.704 1430.32 178.704 1423.21 Q178.704 1416.08 176.876 1412.54 Q175.07 1408.98 171.436 1408.98 M171.436 1405.27 Q177.246 1405.27 180.301 1409.88 Q183.38 1414.46 183.38 1423.21 Q183.38 1431.94 180.301 1436.55 Q177.246 1441.13 171.436 1441.13 Q165.626 1441.13 162.547 1436.55 Q159.491 1431.94 159.491 1423.21 Q159.491 1414.46 162.547 1409.88 Q165.626 1405.27 171.436 1405.27 Z" fill="#000000" fill-rule="nonzero" fill-opacity="1" /><path clip-path="url(#clip460)" d="M201.598 1408.98 Q197.987 1408.98 196.158 1412.54 Q194.352 1416.08 194.352 1423.21 Q194.352 1430.32 196.158 1433.89 Q197.987 1437.43 201.598 1437.43 Q205.232 1437.43 207.037 1433.89 Q208.866 1430.32 208.866 1423.21 Q208.866 1416.08 207.037 1412.54 Q205.232 1408.98 201.598 1408.98 M201.598 1405.27 Q207.408 1405.27 210.463 1409.88 Q213.542 1414.46 213.542 1423.21 Q213.542 1431.94 210.463 1436.55 Q207.408 1441.13 201.598 1441.13 Q195.787 1441.13 192.709 1436.55 Q189.653 1431.94 189.653 1423.21 Q189.653 1414.46 192.709 1409.88 Q195.787 1405.27 201.598 1405.27 Z" fill="#000000" fill-rule="nonzero" fill-opacity="1" /><path clip-path="url(#clip460)" d="M127.2 1179.16 Q123.589 1179.16 121.76 1182.72 Q119.955 1186.27 119.955 1193.4 Q119.955 1200.5 121.76 1204.07 Q123.589 1207.61 127.2 1207.61 Q130.834 1207.61 132.64 1204.07 Q134.468 1200.5 134.468 1193.4 Q134.468 1186.27 132.64 1182.72 Q130.834 1179.16 127.2 1179.16 M127.2 1175.46 Q133.01 1175.46 136.066 1180.06 Q139.144 1184.65 139.144 1193.4 Q139.144 1202.12 136.066 1206.73 Q133.01 1211.31 127.2 1211.31 Q121.39 1211.31 118.311 1206.73 Q115.256 1202.12 115.256 1193.4 Q115.256 1184.65 118.311 1180.06 Q121.39 1175.46 127.2 1175.46 Z" fill="#000000" fill-rule="nonzero" fill-opacity="1" /><path clip-path="url(#clip460)" d="M147.362 1204.76 L152.246 1204.76 L152.246 1210.64 L147.362 1210.64 L147.362 1204.76 Z" fill="#000000" fill-rule="nonzero" fill-opacity="1" /><path clip-path="url(#clip460)" d="M172.431 1179.16 Q168.82 1179.16 166.991 1182.72 Q165.186 1186.27 165.186 1193.4 Q165.186 1200.5 166.991 1204.07 Q168.82 1207.61 172.431 1207.61 Q176.065 1207.61 177.871 1204.07 Q179.7 1200.5 179.7 1193.4 Q179.7 1186.27 177.871 1182.72 Q176.065 1179.16 172.431 1179.16 M172.431 1175.46 Q178.241 1175.46 181.297 1180.06 Q184.376 1184.65 184.376 1193.4 Q184.376 1202.12 181.297 1206.73 Q178.241 1211.31 172.431 1211.31 Q166.621 1211.31 163.542 1206.73 Q160.487 1202.12 160.487 1193.4 Q160.487 1184.65 163.542 1180.06 Q166.621 1175.46 172.431 1175.46 Z" fill="#000000" fill-rule="nonzero" fill-opacity="1" /><path clip-path="url(#clip460)" d="M192.639 1176.08 L210.996 1176.08 L210.996 1180.02 L196.922 1180.02 L196.922 1188.49 Q197.94 1188.14 198.959 1187.98 Q199.977 1187.79 200.996 1187.79 Q206.783 1187.79 210.162 1190.97 Q213.542 1194.14 213.542 1199.55 Q213.542 1205.13 210.07 1208.23 Q206.598 1211.31 200.278 1211.31 Q198.102 1211.31 195.834 1210.94 Q193.588 1210.57 191.181 1209.83 L191.181 1205.13 Q193.264 1206.27 195.487 1206.82 Q197.709 1207.38 200.186 1207.38 Q204.19 1207.38 206.528 1205.27 Q208.866 1203.16 208.866 1199.55 Q208.866 1195.94 206.528 1193.84 Q204.19 1191.73 200.186 1191.73 Q198.311 1191.73 196.436 1192.15 Q194.584 1192.56 192.639 1193.44 L192.639 1176.08 Z" fill="#000000" fill-rule="nonzero" fill-opacity="1" /><path clip-path="url(#clip460)" d="M126.205 949.342 Q122.593 949.342 120.765 952.906 Q118.959 956.448 118.959 963.578 Q118.959 970.684 120.765 974.249 Q122.593 977.791 126.205 977.791 Q129.839 977.791 131.644 974.249 Q133.473 970.684 133.473 963.578 Q133.473 956.448 131.644 952.906 Q129.839 949.342 126.205 949.342 M126.205 945.638 Q132.015 945.638 135.07 950.244 Q138.149 954.828 138.149 963.578 Q138.149 972.304 135.07 976.911 Q132.015 981.494 126.205 981.494 Q120.394 981.494 117.316 976.911 Q114.26 972.304 114.26 963.578 Q114.26 954.828 117.316 950.244 Q120.394 945.638 126.205 945.638 Z" fill="#000000" fill-rule="nonzero" fill-opacity="1" /><path clip-path="url(#clip460)" d="M146.366 974.943 L151.251 974.943 L151.251 980.823 L146.366 980.823 L146.366 974.943 Z" fill="#000000" fill-rule="nonzero" fill-opacity="1" /><path clip-path="url(#clip460)" d="M162.246 976.888 L169.885 976.888 L169.885 950.522 L161.575 952.189 L161.575 947.93 L169.839 946.263 L174.514 946.263 L174.514 976.888 L182.153 976.888 L182.153 980.823 L162.246 980.823 L162.246 976.888 Z" fill="#000000" fill-rule="nonzero" fill-opacity="1" /><path clip-path="url(#clip460)" d="M201.598 949.342 Q197.987 949.342 196.158 952.906 Q194.352 956.448 194.352 963.578 Q194.352 970.684 196.158 974.249 Q197.987 977.791 201.598 977.791 Q205.232 977.791 207.037 974.249 Q208.866 970.684 208.866 963.578 Q208.866 956.448 207.037 952.906 Q205.232 949.342 201.598 949.342 M201.598 945.638 Q207.408 945.638 210.463 950.244 Q213.542 954.828 213.542 963.578 Q213.542 972.304 210.463 976.911 Q207.408 981.494 201.598 981.494 Q195.787 981.494 192.709 976.911 Q189.653 972.304 189.653 963.578 Q189.653 954.828 192.709 950.244 Q195.787 945.638 201.598 945.638 Z" fill="#000000" fill-rule="nonzero" fill-opacity="1" /><path clip-path="url(#clip460)" d="M127.2 719.523 Q123.589 719.523 121.76 723.088 Q119.955 726.63 119.955 733.759 Q119.955 740.866 121.76 744.43 Q123.589 747.972 127.2 747.972 Q130.834 747.972 132.64 744.43 Q134.468 740.866 134.468 733.759 Q134.468 726.63 132.64 723.088 Q130.834 719.523 127.2 719.523 M127.2 715.82 Q133.01 715.82 136.066 720.426 Q139.144 725.009 139.144 733.759 Q139.144 742.486 136.066 747.093 Q133.01 751.676 127.2 751.676 Q121.39 751.676 118.311 747.093 Q115.256 742.486 115.256 733.759 Q115.256 725.009 118.311 720.426 Q121.39 715.82 127.2 715.82 Z" fill="#000000" fill-rule="nonzero" fill-opacity="1" /><path clip-path="url(#clip460)" d="M147.362 745.125 L152.246 745.125 L152.246 751.005 L147.362 751.005 L147.362 745.125 Z" fill="#000000" fill-rule="nonzero" fill-opacity="1" /><path clip-path="url(#clip460)" d="M163.241 747.069 L170.88 747.069 L170.88 720.704 L162.57 722.37 L162.57 718.111 L170.834 716.445 L175.51 716.445 L175.51 747.069 L183.149 747.069 L183.149 751.005 L163.241 751.005 L163.241 747.069 Z" fill="#000000" fill-rule="nonzero" fill-opacity="1" /><path clip-path="url(#clip460)" d="M192.639 716.445 L210.996 716.445 L210.996 720.38 L196.922 720.38 L196.922 728.852 Q197.94 728.505 198.959 728.343 Q199.977 728.157 200.996 728.157 Q206.783 728.157 210.162 731.329 Q213.542 734.5 213.542 739.917 Q213.542 745.495 210.07 748.597 Q206.598 751.676 200.278 751.676 Q198.102 751.676 195.834 751.305 Q193.588 750.935 191.181 750.194 L191.181 745.495 Q193.264 746.63 195.487 747.185 Q197.709 747.741 200.186 747.741 Q204.19 747.741 206.528 745.634 Q208.866 743.528 208.866 739.917 Q208.866 736.306 206.528 734.199 Q204.19 732.093 200.186 732.093 Q198.311 732.093 196.436 732.509 Q194.584 732.926 192.639 733.806 L192.639 716.445 Z" fill="#000000" fill-rule="nonzero" fill-opacity="1" /><path clip-path="url(#clip460)" d="M126.205 489.705 Q122.593 489.705 120.765 493.27 Q118.959 496.811 118.959 503.941 Q118.959 511.047 120.765 514.612 Q122.593 518.154 126.205 518.154 Q129.839 518.154 131.644 514.612 Q133.473 511.047 133.473 503.941 Q133.473 496.811 131.644 493.27 Q129.839 489.705 126.205 489.705 M126.205 486.001 Q132.015 486.001 135.07 490.608 Q138.149 495.191 138.149 503.941 Q138.149 512.668 135.07 517.274 Q132.015 521.857 126.205 521.857 Q120.394 521.857 117.316 517.274 Q114.26 512.668 114.26 503.941 Q114.26 495.191 117.316 490.608 Q120.394 486.001 126.205 486.001 Z" fill="#000000" fill-rule="nonzero" fill-opacity="1" /><path clip-path="url(#clip460)" d="M146.366 515.306 L151.251 515.306 L151.251 521.186 L146.366 521.186 L146.366 515.306 Z" fill="#000000" fill-rule="nonzero" fill-opacity="1" /><path clip-path="url(#clip460)" d="M165.464 517.251 L181.783 517.251 L181.783 521.186 L159.839 521.186 L159.839 517.251 Q162.501 514.496 167.084 509.867 Q171.69 505.214 172.871 503.871 Q175.116 501.348 175.996 499.612 Q176.899 497.853 176.899 496.163 Q176.899 493.408 174.954 491.672 Q173.033 489.936 169.931 489.936 Q167.732 489.936 165.278 490.7 Q162.848 491.464 160.07 493.015 L160.07 488.293 Q162.894 487.159 165.348 486.58 Q167.802 486.001 169.839 486.001 Q175.209 486.001 178.403 488.686 Q181.598 491.371 181.598 495.862 Q181.598 497.992 180.788 499.913 Q180.001 501.811 177.894 504.404 Q177.315 505.075 174.214 508.293 Q171.112 511.487 165.464 517.251 Z" fill="#000000" fill-rule="nonzero" fill-opacity="1" /><path clip-path="url(#clip460)" d="M201.598 489.705 Q197.987 489.705 196.158 493.27 Q194.352 496.811 194.352 503.941 Q194.352 511.047 196.158 514.612 Q197.987 518.154 201.598 518.154 Q205.232 518.154 207.037 514.612 Q208.866 511.047 208.866 503.941 Q208.866 496.811 207.037 493.27 Q205.232 489.705 201.598 489.705 M201.598 486.001 Q207.408 486.001 210.463 490.608 Q213.542 495.191 213.542 503.941 Q213.542 512.668 210.463 517.274 Q207.408 521.857 201.598 521.857 Q195.787 521.857 192.709 517.274 Q189.653 512.668 189.653 503.941 Q189.653 495.191 192.709 490.608 Q195.787 486.001 201.598 486.001 Z" fill="#000000" fill-rule="nonzero" fill-opacity="1" /><path clip-path="url(#clip460)" d="M127.2 259.886 Q123.589 259.886 121.76 263.451 Q119.955 266.993 119.955 274.122 Q119.955 281.229 121.76 284.794 Q123.589 288.335 127.2 288.335 Q130.834 288.335 132.64 284.794 Q134.468 281.229 134.468 274.122 Q134.468 266.993 132.64 263.451 Q130.834 259.886 127.2 259.886 M127.2 256.183 Q133.01 256.183 136.066 260.789 Q139.144 265.372 139.144 274.122 Q139.144 282.849 136.066 287.456 Q133.01 292.039 127.2 292.039 Q121.39 292.039 118.311 287.456 Q115.256 282.849 115.256 274.122 Q115.256 265.372 118.311 260.789 Q121.39 256.183 127.2 256.183 Z" fill="#000000" fill-rule="nonzero" fill-opacity="1" /><path clip-path="url(#clip460)" d="M147.362 285.488 L152.246 285.488 L152.246 291.368 L147.362 291.368 L147.362 285.488 Z" fill="#000000" fill-rule="nonzero" fill-opacity="1" /><path clip-path="url(#clip460)" d="M166.459 287.432 L182.778 287.432 L182.778 291.368 L160.834 291.368 L160.834 287.432 Q163.496 284.678 168.079 280.048 Q172.686 275.396 173.866 274.053 Q176.112 271.53 176.991 269.794 Q177.894 268.034 177.894 266.345 Q177.894 263.59 175.95 261.854 Q174.028 260.118 170.927 260.118 Q168.727 260.118 166.274 260.882 Q163.843 261.646 161.065 263.197 L161.065 258.474 Q163.89 257.34 166.343 256.761 Q168.797 256.183 170.834 256.183 Q176.204 256.183 179.399 258.868 Q182.593 261.553 182.593 266.044 Q182.593 268.173 181.783 270.095 Q180.996 271.993 178.889 274.585 Q178.311 275.257 175.209 278.474 Q172.107 281.669 166.459 287.432 Z" fill="#000000" fill-rule="nonzero" fill-opacity="1" /><path clip-path="url(#clip460)" d="M192.639 256.808 L210.996 256.808 L210.996 260.743 L196.922 260.743 L196.922 269.215 Q197.94 268.868 198.959 268.706 Q199.977 268.521 200.996 268.521 Q206.783 268.521 210.162 271.692 Q213.542 274.863 213.542 280.28 Q213.542 285.858 210.07 288.96 Q206.598 292.039 200.278 292.039 Q198.102 292.039 195.834 291.669 Q193.588 291.298 191.181 290.557 L191.181 285.858 Q193.264 286.993 195.487 287.548 Q197.709 288.104 200.186 288.104 Q204.19 288.104 206.528 285.997 Q208.866 283.891 208.866 280.28 Q208.866 276.669 206.528 274.562 Q204.19 272.456 200.186 272.456 Q198.311 272.456 196.436 272.872 Q194.584 273.289 192.639 274.169 L192.639 256.808 Z" fill="#000000" fill-rule="nonzero" fill-opacity="1" /><path clip-path="url(#clip460)" d="M21.7677 926.375 L39.6235 926.375 L39.6235 918.29 Q39.6235 913.803 37.3 911.352 Q34.9765 908.901 30.6797 908.901 Q26.4147 908.901 24.0912 911.352 Q21.7677 913.803 21.7677 918.29 L21.7677 926.375 M16.4842 932.804 L16.4842 918.29 Q16.4842 910.302 20.1126 906.227 Q23.7092 902.122 30.6797 902.122 Q37.7138 902.122 41.3104 906.227 Q44.907 910.302 44.907 918.29 L44.907 926.375 L64.0042 926.375 L64.0042 932.804 L16.4842 932.804 Z" fill="#000000" fill-rule="nonzero" fill-opacity="1" /><path clip-path="url(#clip460)" d="M33.8307 874.24 Q33.2578 875.226 33.0032 876.404 Q32.7167 877.55 32.7167 878.95 Q32.7167 883.916 35.9632 886.589 Q39.1779 889.231 45.2253 889.231 L64.0042 889.231 L64.0042 895.119 L28.3562 895.119 L28.3562 889.231 L33.8944 889.231 Q30.6479 887.385 29.0883 884.425 Q27.4968 881.465 27.4968 877.232 Q27.4968 876.627 27.5923 875.895 Q27.656 875.163 27.8151 874.272 L33.8307 874.24 Z" fill="#000000" fill-rule="nonzero" fill-opacity="1" /><path clip-path="url(#clip460)" d="M32.4621 855.716 Q32.4621 860.426 36.1542 863.163 Q39.8145 865.901 46.212 865.901 Q52.6095 865.901 56.3017 863.195 Q59.9619 860.458 59.9619 855.716 Q59.9619 851.037 56.2698 848.3 Q52.5777 845.562 46.212 845.562 Q39.8781 845.562 36.186 848.3 Q32.4621 851.037 32.4621 855.716 M27.4968 855.716 Q27.4968 848.077 32.4621 843.716 Q37.4273 839.356 46.212 839.356 Q54.9649 839.356 59.9619 843.716 Q64.9272 848.077 64.9272 855.716 Q64.9272 863.386 59.9619 867.747 Q54.9649 872.075 46.212 872.075 Q37.4273 872.075 32.4621 867.747 Q27.4968 863.386 27.4968 855.716 Z" fill="#000000" fill-rule="nonzero" fill-opacity="1" /><path clip-path="url(#clip460)" d="M46.212 804.058 Q39.7508 804.058 36.0905 806.731 Q32.3984 809.373 32.3984 814.02 Q32.3984 818.667 36.0905 821.341 Q39.7508 823.983 46.212 823.983 Q52.6732 823.983 56.3653 821.341 Q60.0256 818.667 60.0256 814.02 Q60.0256 809.373 56.3653 806.731 Q52.6732 804.058 46.212 804.058 M33.7671 823.983 Q30.5842 822.136 29.0564 819.336 Q27.4968 816.503 27.4968 812.588 Q27.4968 806.095 32.6531 802.053 Q37.8093 797.979 46.212 797.979 Q54.6147 797.979 59.771 802.053 Q64.9272 806.095 64.9272 812.588 Q64.9272 816.503 63.3994 819.336 Q61.8398 822.136 58.657 823.983 L64.0042 823.983 L64.0042 829.871 L14.479 829.871 L14.479 823.983 L33.7671 823.983 Z" fill="#000000" fill-rule="nonzero" fill-opacity="1" /><path clip-path="url(#clip460)" d="M46.0847 772.07 Q46.0847 779.168 47.7079 781.905 Q49.3312 784.642 53.2461 784.642 Q56.3653 784.642 58.2114 782.605 Q60.0256 780.537 60.0256 777.004 Q60.0256 772.134 56.5881 769.206 Q53.1188 766.246 47.3897 766.246 L46.0847 766.246 L46.0847 772.07 M43.6657 760.389 L64.0042 760.389 L64.0042 766.246 L58.5933 766.246 Q61.8398 768.251 63.3994 771.243 Q64.9272 774.235 64.9272 778.563 Q64.9272 784.038 61.8716 787.284 Q58.7843 790.499 53.6281 790.499 Q47.6125 790.499 44.5569 786.489 Q41.5014 782.446 41.5014 774.457 L41.5014 766.246 L40.9285 766.246 Q36.8862 766.246 34.6901 768.919 Q32.4621 771.561 32.4621 776.367 Q32.4621 779.423 33.1941 782.319 Q33.9262 785.215 35.3903 787.889 L29.9795 787.889 Q28.7381 784.674 28.1334 781.651 Q27.4968 778.627 27.4968 775.762 Q27.4968 768.028 31.5072 764.209 Q35.5176 760.389 43.6657 760.389 Z" fill="#000000" fill-rule="nonzero" fill-opacity="1" /><path clip-path="url(#clip460)" d="M46.212 722.736 Q39.7508 722.736 36.0905 725.41 Q32.3984 728.051 32.3984 732.698 Q32.3984 737.345 36.0905 740.019 Q39.7508 742.661 46.212 742.661 Q52.6732 742.661 56.3653 740.019 Q60.0256 737.345 60.0256 732.698 Q60.0256 728.051 56.3653 725.41 Q52.6732 722.736 46.212 722.736 M33.7671 742.661 Q30.5842 740.815 29.0564 738.014 Q27.4968 735.181 27.4968 731.266 Q27.4968 724.773 32.6531 720.731 Q37.8093 716.657 46.212 716.657 Q54.6147 716.657 59.771 720.731 Q64.9272 724.773 64.9272 731.266 Q64.9272 735.181 63.3994 738.014 Q61.8398 740.815 58.657 742.661 L64.0042 742.661 L64.0042 748.549 L14.479 748.549 L14.479 742.661 L33.7671 742.661 Z" fill="#000000" fill-rule="nonzero" fill-opacity="1" /><path clip-path="url(#clip460)" d="M28.3562 706.949 L28.3562 701.093 L64.0042 701.093 L64.0042 706.949 L28.3562 706.949 M14.479 706.949 L14.479 701.093 L21.895 701.093 L21.895 706.949 L14.479 706.949 Z" fill="#000000" fill-rule="nonzero" fill-opacity="1" /><path clip-path="url(#clip460)" d="M14.479 688.839 L14.479 682.982 L64.0042 682.982 L64.0042 688.839 L14.479 688.839 Z" fill="#000000" fill-rule="nonzero" fill-opacity="1" /><path clip-path="url(#clip460)" d="M28.3562 670.728 L28.3562 664.872 L64.0042 664.872 L64.0042 670.728 L28.3562 670.728 M14.479 670.728 L14.479 664.872 L21.895 664.872 L21.895 670.728 L14.479 670.728 Z" fill="#000000" fill-rule="nonzero" fill-opacity="1" /><path clip-path="url(#clip460)" d="M18.2347 646.825 L28.3562 646.825 L28.3562 634.762 L32.9077 634.762 L32.9077 646.825 L52.2594 646.825 Q56.6199 646.825 57.8613 645.647 Q59.1026 644.438 59.1026 640.778 L59.1026 634.762 L64.0042 634.762 L64.0042 640.778 Q64.0042 647.557 61.4897 650.135 Q58.9434 652.713 52.2594 652.713 L32.9077 652.713 L32.9077 657.01 L28.3562 657.01 L28.3562 652.713 L18.2347 652.713 L18.2347 646.825 Z" fill="#000000" fill-rule="nonzero" fill-opacity="1" /><path clip-path="url(#clip460)" d="M67.3143 612.227 Q73.68 614.71 75.6216 617.065 Q77.5631 619.421 77.5631 623.367 L77.5631 628.046 L72.6615 628.046 L72.6615 624.609 Q72.6615 622.19 71.5157 620.853 Q70.3699 619.516 66.1048 617.893 L63.4312 616.842 L28.3562 631.261 L28.3562 625.054 L56.238 613.914 L28.3562 602.774 L28.3562 596.568 L67.3143 612.227 Z" fill="#000000" fill-rule="nonzero" fill-opacity="1" /><path clip-path="url(#clip460)" d="M743.339 10.0578 L743.339 15.758 Q740.012 14.1666 737.061 13.3853 Q734.109 12.6041 731.36 12.6041 Q726.586 12.6041 723.982 14.4559 Q721.407 16.3078 721.407 19.7221 Q721.407 22.5867 723.114 24.0624 Q724.85 25.5091 729.653 26.4061 L733.183 27.1295 Q739.723 28.3737 742.819 31.5276 Q745.944 34.6526 745.944 39.9188 Q745.944 46.1977 741.719 49.4384 Q737.524 52.6791 729.393 52.6791 Q726.326 52.6791 722.853 51.9847 Q719.41 51.2902 715.707 49.9303 L715.707 43.9118 Q719.266 45.9083 722.68 46.921 Q726.094 47.9338 729.393 47.9338 Q734.399 47.9338 737.118 45.9662 Q739.838 43.9986 739.838 40.3528 Q739.838 37.1699 737.871 35.376 Q735.932 33.582 731.476 32.685 L727.917 31.9906 Q721.378 30.6885 718.455 27.9107 Q715.533 25.133 715.533 20.1851 Q715.533 14.4559 719.555 11.1573 Q723.606 7.85875 730.695 7.85875 Q733.733 7.85875 736.887 8.40852 Q740.041 8.95829 743.339 10.0578 Z" fill="#000000" fill-rule="nonzero" fill-opacity="1" /><path clip-path="url(#clip460)" d="M760.093 10.2314 L760.093 19.4328 L771.059 19.4328 L771.059 23.5705 L760.093 23.5705 L760.093 41.163 Q760.093 45.1271 761.163 46.2555 Q762.263 47.384 765.59 47.384 L771.059 47.384 L771.059 51.84 L765.59 51.84 Q759.427 51.84 757.084 49.5541 Q754.74 47.2393 754.74 41.163 L754.74 23.5705 L750.834 23.5705 L750.834 19.4328 L754.74 19.4328 L754.74 10.2314 L760.093 10.2314 Z" fill="#000000" fill-rule="nonzero" fill-opacity="1" /><path clip-path="url(#clip460)" d="M792.789 35.5496 Q786.337 35.5496 783.849 37.0253 Q781.36 38.501 781.36 42.06 Q781.36 44.8956 783.212 46.5738 Q785.093 48.2231 788.304 48.2231 Q792.732 48.2231 795.394 45.0981 Q798.085 41.9442 798.085 36.7359 L798.085 35.5496 L792.789 35.5496 M803.409 33.3505 L803.409 51.84 L798.085 51.84 L798.085 46.921 Q796.262 49.8724 793.542 51.2902 Q790.822 52.6791 786.887 52.6791 Q781.91 52.6791 778.958 49.9014 Q776.036 47.0947 776.036 42.4072 Q776.036 36.9385 779.682 34.1607 Q783.357 31.3829 790.619 31.3829 L798.085 31.3829 L798.085 30.8621 Q798.085 27.1874 795.654 25.1908 Q793.252 23.1654 788.883 23.1654 Q786.105 23.1654 783.472 23.8309 Q780.839 24.4964 778.409 25.8274 L778.409 20.9085 Q781.331 19.78 784.08 19.2302 Q786.829 18.6515 789.433 18.6515 Q796.464 18.6515 799.936 22.2973 Q803.409 25.9431 803.409 33.3505 Z" fill="#000000" fill-rule="nonzero" fill-opacity="1" /><path clip-path="url(#clip460)" d="M819.641 10.2314 L819.641 19.4328 L830.608 19.4328 L830.608 23.5705 L819.641 23.5705 L819.641 41.163 Q819.641 45.1271 820.712 46.2555 Q821.811 47.384 825.139 47.384 L830.608 47.384 L830.608 51.84 L825.139 51.84 Q818.976 51.84 816.632 49.5541 Q814.288 47.2393 814.288 41.163 L814.288 23.5705 L810.382 23.5705 L810.382 19.4328 L814.288 19.4328 L814.288 10.2314 L819.641 10.2314 Z" fill="#000000" fill-rule="nonzero" fill-opacity="1" /><path clip-path="url(#clip460)" d="M837.61 19.4328 L842.934 19.4328 L842.934 51.84 L837.61 51.84 L837.61 19.4328 M837.61 6.81709 L842.934 6.81709 L842.934 13.559 L837.61 13.559 L837.61 6.81709 Z" fill="#000000" fill-rule="nonzero" fill-opacity="1" /><path clip-path="url(#clip460)" d="M866.632 23.1654 Q862.349 23.1654 859.861 26.5218 Q857.372 29.8494 857.372 35.6653 Q857.372 41.4813 859.832 44.8377 Q862.32 48.1653 866.632 48.1653 Q870.885 48.1653 873.373 44.8088 Q875.862 41.4523 875.862 35.6653 Q875.862 29.9072 873.373 26.5508 Q870.885 23.1654 866.632 23.1654 M866.632 18.6515 Q873.576 18.6515 877.54 23.1654 Q881.504 27.6792 881.504 35.6653 Q881.504 43.6225 877.54 48.1653 Q873.576 52.6791 866.632 52.6791 Q859.658 52.6791 855.694 48.1653 Q851.759 43.6225 851.759 35.6653 Q851.759 27.6792 855.694 23.1654 Q859.658 18.6515 866.632 18.6515 Z" fill="#000000" fill-rule="nonzero" fill-opacity="1" /><path clip-path="url(#clip460)" d="M917.268 32.2799 L917.268 51.84 L911.944 51.84 L911.944 32.4535 Q911.944 27.8529 910.15 25.567 Q908.356 23.2811 904.768 23.2811 Q900.457 23.2811 897.968 26.03 Q895.48 28.7788 895.48 33.5241 L895.48 51.84 L890.127 51.84 L890.127 19.4328 L895.48 19.4328 L895.48 24.4675 Q897.39 21.545 899.965 20.0983 Q902.569 18.6515 905.954 18.6515 Q911.539 18.6515 914.403 22.1237 Q917.268 25.567 917.268 32.2799 Z" fill="#000000" fill-rule="nonzero" fill-opacity="1" /><path clip-path="url(#clip460)" d="M942.615 35.5496 Q936.162 35.5496 933.674 37.0253 Q931.186 38.501 931.186 42.06 Q931.186 44.8956 933.038 46.5738 Q934.918 48.2231 938.13 48.2231 Q942.557 48.2231 945.219 45.0981 Q947.91 41.9442 947.91 36.7359 L947.91 35.5496 L942.615 35.5496 M953.234 33.3505 L953.234 51.84 L947.91 51.84 L947.91 46.921 Q946.087 49.8724 943.367 51.2902 Q940.647 52.6791 936.712 52.6791 Q931.735 52.6791 928.784 49.9014 Q925.862 47.0947 925.862 42.4072 Q925.862 36.9385 929.507 34.1607 Q933.182 31.3829 940.445 31.3829 L947.91 31.3829 L947.91 30.8621 Q947.91 27.1874 945.48 25.1908 Q943.078 23.1654 938.709 23.1654 Q935.931 23.1654 933.298 23.8309 Q930.665 24.4964 928.234 25.8274 L928.234 20.9085 Q931.157 19.78 933.906 19.2302 Q936.654 18.6515 939.259 18.6515 Q946.29 18.6515 949.762 22.2973 Q953.234 25.9431 953.234 33.3505 Z" fill="#000000" fill-rule="nonzero" fill-opacity="1" /><path clip-path="url(#clip460)" d="M982.979 24.4096 Q982.082 23.8888 981.012 23.6573 Q979.97 23.3969 978.697 23.3969 Q974.183 23.3969 971.753 26.3482 Q969.351 29.2707 969.351 34.7683 L969.351 51.84 L963.998 51.84 L963.998 19.4328 L969.351 19.4328 L969.351 24.4675 Q971.029 21.5161 973.72 20.0983 Q976.411 18.6515 980.259 18.6515 Q980.809 18.6515 981.475 18.7383 Q982.14 18.7962 982.95 18.9409 L982.979 24.4096 Z" fill="#000000" fill-rule="nonzero" fill-opacity="1" /><path clip-path="url(#clip460)" d="M1002.05 54.8492 Q999.791 60.6362 997.649 62.4013 Q995.508 64.1663 991.92 64.1663 L987.667 64.1663 L987.667 59.7103 L990.792 59.7103 Q992.991 59.7103 994.206 58.6687 Q995.421 57.627 996.897 53.7497 L997.852 51.3192 L984.744 19.4328 L990.387 19.4328 L1000.51 44.7799 L1010.64 19.4328 L1016.28 19.4328 L1002.05 54.8492 Z" fill="#000000" fill-rule="nonzero" fill-opacity="1" /><path clip-path="url(#clip460)" d="M1048.55 13.4432 L1048.55 47.0368 L1055.61 47.0368 Q1064.55 47.0368 1068.68 42.9859 Q1072.85 38.935 1072.85 30.1966 Q1072.85 21.5161 1068.68 17.4941 Q1064.55 13.4432 1055.61 13.4432 L1048.55 13.4432 M1042.7 8.64 L1054.71 8.64 Q1067.27 8.64 1073.14 13.8772 Q1079.01 19.0855 1079.01 30.1966 Q1079.01 41.3655 1073.11 46.6028 Q1067.21 51.84 1054.71 51.84 L1042.7 51.84 L1042.7 8.64 Z" fill="#000000" fill-rule="nonzero" fill-opacity="1" /><path clip-path="url(#clip460)" d="M1088.1 19.4328 L1093.42 19.4328 L1093.42 51.84 L1088.1 51.84 L1088.1 19.4328 M1088.1 6.81709 L1093.42 6.81709 L1093.42 13.559 L1088.1 13.559 L1088.1 6.81709 Z" fill="#000000" fill-rule="nonzero" fill-opacity="1" /><path clip-path="url(#clip460)" d="M1125.22 20.3876 L1125.22 25.4223 Q1122.97 24.2649 1120.54 23.6862 Q1118.11 23.1075 1115.5 23.1075 Q1111.54 23.1075 1109.54 24.3228 Q1107.57 25.5381 1107.57 27.9686 Q1107.57 29.8204 1108.99 30.891 Q1110.41 31.9327 1114.69 32.8876 L1116.51 33.2926 Q1122.19 34.5079 1124.56 36.7359 Q1126.96 38.935 1126.96 42.8991 Q1126.96 47.4129 1123.37 50.046 Q1119.81 52.6791 1113.56 52.6791 Q1110.96 52.6791 1108.12 52.1583 Q1105.32 51.6664 1102.19 50.6537 L1102.19 45.156 Q1105.14 46.6896 1108.01 47.4708 Q1110.87 48.2231 1113.68 48.2231 Q1117.44 48.2231 1119.47 46.95 Q1121.49 45.6479 1121.49 43.3042 Q1121.49 41.134 1120.02 39.9766 Q1118.57 38.8192 1113.62 37.7486 L1111.77 37.3146 Q1106.82 36.273 1104.62 34.1318 Q1102.42 31.9616 1102.42 28.2001 Q1102.42 23.6283 1105.66 21.1399 Q1108.9 18.6515 1114.87 18.6515 Q1117.82 18.6515 1120.42 19.0855 Q1123.02 19.5196 1125.22 20.3876 Z" fill="#000000" fill-rule="nonzero" fill-opacity="1" /><path clip-path="url(#clip460)" d="M1140.7 10.2314 L1140.7 19.4328 L1151.67 19.4328 L1151.67 23.5705 L1140.7 23.5705 L1140.7 41.163 Q1140.7 45.1271 1141.77 46.2555 Q1142.87 47.384 1146.2 47.384 L1151.67 47.384 L1151.67 51.84 L1146.2 51.84 Q1140.04 51.84 1137.69 49.5541 Q1135.35 47.2393 1135.35 41.163 L1135.35 23.5705 L1131.45 23.5705 L1131.45 19.4328 L1135.35 19.4328 L1135.35 10.2314 L1140.7 10.2314 Z" fill="#000000" fill-rule="nonzero" fill-opacity="1" /><path clip-path="url(#clip460)" d="M1177.45 24.4096 Q1176.55 23.8888 1175.48 23.6573 Q1174.44 23.3969 1173.17 23.3969 Q1168.66 23.3969 1166.22 26.3482 Q1163.82 29.2707 1163.82 34.7683 L1163.82 51.84 L1158.47 51.84 L1158.47 19.4328 L1163.82 19.4328 L1163.82 24.4675 Q1165.5 21.5161 1168.19 20.0983 Q1170.88 18.6515 1174.73 18.6515 Q1175.28 18.6515 1175.95 18.7383 Q1176.61 18.7962 1177.42 18.9409 L1177.45 24.4096 Z" fill="#000000" fill-rule="nonzero" fill-opacity="1" /><path clip-path="url(#clip460)" d="M1183.04 19.4328 L1188.36 19.4328 L1188.36 51.84 L1183.04 51.84 L1183.04 19.4328 M1183.04 6.81709 L1188.36 6.81709 L1188.36 13.559 L1183.04 13.559 L1183.04 6.81709 Z" fill="#000000" fill-rule="nonzero" fill-opacity="1" /><path clip-path="url(#clip460)" d="M1222.76 35.6653 Q1222.76 29.7915 1220.33 26.464 Q1217.93 23.1075 1213.71 23.1075 Q1209.48 23.1075 1207.05 26.464 Q1204.65 29.7915 1204.65 35.6653 Q1204.65 41.5391 1207.05 44.8956 Q1209.48 48.2231 1213.71 48.2231 Q1217.93 48.2231 1220.33 44.8956 Q1222.76 41.5391 1222.76 35.6653 M1204.65 24.3517 Q1206.33 21.4582 1208.88 20.0693 Q1211.45 18.6515 1215.01 18.6515 Q1220.91 18.6515 1224.59 23.339 Q1228.29 28.0265 1228.29 35.6653 Q1228.29 43.3042 1224.59 47.9916 Q1220.91 52.6791 1215.01 52.6791 Q1211.45 52.6791 1208.88 51.2902 Q1206.33 49.8724 1204.65 46.9789 L1204.65 51.84 L1199.3 51.84 L1199.3 6.81709 L1204.65 6.81709 L1204.65 24.3517 Z" fill="#000000" fill-rule="nonzero" fill-opacity="1" /><path clip-path="url(#clip460)" d="M1236.57 39.0507 L1236.57 19.4328 L1241.89 19.4328 L1241.89 38.8482 Q1241.89 43.4488 1243.68 45.7636 Q1245.48 48.0495 1249.07 48.0495 Q1253.38 48.0495 1255.87 45.3007 Q1258.38 42.5519 1258.38 37.8065 L1258.38 19.4328 L1263.71 19.4328 L1263.71 51.84 L1258.38 51.84 L1258.38 46.8632 Q1256.44 49.8145 1253.87 51.2613 Q1251.32 52.6791 1247.94 52.6791 Q1242.35 52.6791 1239.46 49.2069 Q1236.57 45.7347 1236.57 39.0507 M1249.96 18.6515 L1249.96 18.6515 Z" fill="#000000" fill-rule="nonzero" fill-opacity="1" /><path clip-path="url(#clip460)" d="M1279.94 10.2314 L1279.94 19.4328 L1290.91 19.4328 L1290.91 23.5705 L1279.94 23.5705 L1279.94 41.163 Q1279.94 45.1271 1281.01 46.2555 Q1282.11 47.384 1285.44 47.384 L1290.91 47.384 L1290.91 51.84 L1285.44 51.84 Q1279.27 51.84 1276.93 49.5541 Q1274.59 47.2393 1274.59 41.163 L1274.59 23.5705 L1270.68 23.5705 L1270.68 19.4328 L1274.59 19.4328 L1274.59 10.2314 L1279.94 10.2314 Z" fill="#000000" fill-rule="nonzero" fill-opacity="1" /><path clip-path="url(#clip460)" d="M1297.91 19.4328 L1303.23 19.4328 L1303.23 51.84 L1297.91 51.84 L1297.91 19.4328 M1297.91 6.81709 L1303.23 6.81709 L1303.23 13.559 L1297.91 13.559 L1297.91 6.81709 Z" fill="#000000" fill-rule="nonzero" fill-opacity="1" /><path clip-path="url(#clip460)" d="M1326.93 23.1654 Q1322.65 23.1654 1320.16 26.5218 Q1317.67 29.8494 1317.67 35.6653 Q1317.67 41.4813 1320.13 44.8377 Q1322.62 48.1653 1326.93 48.1653 Q1331.18 48.1653 1333.67 44.8088 Q1336.16 41.4523 1336.16 35.6653 Q1336.16 29.9072 1333.67 26.5508 Q1331.18 23.1654 1326.93 23.1654 M1326.93 18.6515 Q1333.87 18.6515 1337.84 23.1654 Q1341.8 27.6792 1341.8 35.6653 Q1341.8 43.6225 1337.84 48.1653 Q1333.87 52.6791 1326.93 52.6791 Q1319.96 52.6791 1315.99 48.1653 Q1312.06 43.6225 1312.06 35.6653 Q1312.06 27.6792 1315.99 23.1654 Q1319.96 18.6515 1326.93 18.6515 Z" fill="#000000" fill-rule="nonzero" fill-opacity="1" /><path clip-path="url(#clip460)" d="M1377.57 32.2799 L1377.57 51.84 L1372.24 51.84 L1372.24 32.4535 Q1372.24 27.8529 1370.45 25.567 Q1368.65 23.2811 1365.07 23.2811 Q1360.76 23.2811 1358.27 26.03 Q1355.78 28.7788 1355.78 33.5241 L1355.78 51.84 L1350.43 51.84 L1350.43 19.4328 L1355.78 19.4328 L1355.78 24.4675 Q1357.69 21.545 1360.26 20.0983 Q1362.87 18.6515 1366.25 18.6515 Q1371.84 18.6515 1374.7 22.1237 Q1377.57 25.567 1377.57 32.2799 Z" fill="#000000" fill-rule="nonzero" fill-opacity="1" /><path clip-path="url(#clip460)" d="M1419.81 6.87496 Q1415.93 13.53 1414.05 20.0404 Q1412.17 26.5508 1412.17 33.2348 Q1412.17 39.9188 1414.05 46.487 Q1415.96 53.0263 1419.81 59.6525 L1415.18 59.6525 Q1410.84 52.8527 1408.67 46.2845 Q1406.53 39.7162 1406.53 33.2348 Q1406.53 26.7823 1408.67 20.2429 Q1410.81 13.7036 1415.18 6.87496 L1419.81 6.87496 Z" fill="#000000" fill-rule="nonzero" fill-opacity="1" /><path clip-path="url(#clip460)" d="M1462.72 11.9675 L1462.72 18.1307 Q1459.77 15.3819 1456.41 14.0219 Q1453.09 12.662 1449.33 12.662 Q1441.92 12.662 1437.98 17.2048 Q1434.05 21.7186 1434.05 30.2834 Q1434.05 38.8192 1437.98 43.362 Q1441.92 47.8759 1449.33 47.8759 Q1453.09 47.8759 1456.41 46.516 Q1459.77 45.156 1462.72 42.4072 L1462.72 48.5125 Q1459.66 50.5958 1456.21 51.6375 Q1452.8 52.6791 1448.98 52.6791 Q1439.17 52.6791 1433.53 46.6896 Q1427.88 40.6711 1427.88 30.2834 Q1427.88 19.8668 1433.53 13.8772 Q1439.17 7.85875 1448.98 7.85875 Q1452.86 7.85875 1456.27 8.90042 Q1459.71 9.91314 1462.72 11.9675 Z" fill="#000000" fill-rule="nonzero" fill-opacity="1" /><path clip-path="url(#clip460)" d="M1471.75 8.64 L1477.59 8.64 L1477.59 26.3482 L1498.83 26.3482 L1498.83 8.64 L1504.68 8.64 L1504.68 51.84 L1498.83 51.84 L1498.83 31.2672 L1477.59 31.2672 L1477.59 51.84 L1471.75 51.84 L1471.75 8.64 Z" fill="#000000" fill-rule="nonzero" fill-opacity="1" /><path clip-path="url(#clip460)" d="M1516.31 8.64 L1525.02 8.64 L1536.04 38.038 L1547.13 8.64 L1555.84 8.64 L1555.84 51.84 L1550.13 51.84 L1550.13 13.9062 L1538.99 43.5356 L1533.12 43.5356 L1521.98 13.9062 L1521.98 51.84 L1516.31 51.84 L1516.31 8.64 Z" fill="#000000" fill-rule="nonzero" fill-opacity="1" /><path clip-path="url(#clip460)" d="M1567.44 8.64 L1576.15 8.64 L1587.17 38.038 L1598.25 8.64 L1606.96 8.64 L1606.96 51.84 L1601.26 51.84 L1601.26 13.9062 L1590.12 43.5356 L1584.25 43.5356 L1573.11 13.9062 L1573.11 51.84 L1567.44 51.84 L1567.44 8.64 Z" fill="#000000" fill-rule="nonzero" fill-opacity="1" /><path clip-path="url(#clip460)" d="M1615.64 33.2348 L1631.24 33.2348 L1631.24 37.9801 L1615.64 37.9801 L1615.64 33.2348 Z" fill="#000000" fill-rule="nonzero" fill-opacity="1" /><path clip-path="url(#clip460)" d="M1639.95 8.64 L1645.79 8.64 L1645.79 46.921 L1666.83 46.921 L1666.83 51.84 L1639.95 51.84 L1639.95 8.64 Z" fill="#000000" fill-rule="nonzero" fill-opacity="1" /><path clip-path="url(#clip460)" d="M1674.09 44.4905 L1680.2 44.4905 L1680.2 49.4673 L1675.45 58.7265 L1671.72 58.7265 L1674.09 49.4673 L1674.09 44.4905 Z" fill="#000000" fill-rule="nonzero" fill-opacity="1" /><path clip-path="url(#clip460)" d="M1710.64 8.64 L1716.48 8.64 L1716.48 26.898 L1735.87 8.64 L1743.39 8.64 L1721.95 28.7788 L1744.93 51.84 L1737.23 51.84 L1716.48 31.0357 L1716.48 51.84 L1710.64 51.84 L1710.64 8.64 Z" fill="#000000" fill-rule="nonzero" fill-opacity="1" /><path clip-path="url(#clip460)" d="M1749.96 24.9304 L1787.05 24.9304 L1787.05 29.7915 L1749.96 29.7915 L1749.96 24.9304 M1749.96 36.7359 L1787.05 36.7359 L1787.05 41.6549 L1749.96 41.6549 L1749.96 36.7359 Z" fill="#000000" fill-rule="nonzero" fill-opacity="1" /><path clip-path="url(#clip460)" d="M1800.68 46.921 L1810.23 46.921 L1810.23 13.964 L1799.84 16.0474 L1799.84 10.7233 L1810.17 8.64 L1816.02 8.64 L1816.02 46.921 L1825.57 46.921 L1825.57 51.84 L1800.68 51.84 L1800.68 46.921 Z" fill="#000000" fill-rule="nonzero" fill-opacity="1" /><path clip-path="url(#clip460)" d="M1849.87 31.3251 Q1845.71 31.3251 1843.3 33.5531 Q1840.93 35.7811 1840.93 39.6873 Q1840.93 43.5935 1843.3 45.8215 Q1845.71 48.0495 1849.87 48.0495 Q1854.04 48.0495 1856.44 45.8215 Q1858.84 43.5646 1858.84 39.6873 Q1858.84 35.7811 1856.44 33.5531 Q1854.07 31.3251 1849.87 31.3251 M1844.03 28.8367 Q1840.27 27.9107 1838.15 25.3355 Q1836.07 22.7603 1836.07 19.0566 Q1836.07 13.8772 1839.75 10.868 Q1843.45 7.85875 1849.87 7.85875 Q1856.33 7.85875 1860 10.868 Q1863.67 13.8772 1863.67 19.0566 Q1863.67 22.7603 1861.56 25.3355 Q1859.48 27.9107 1855.75 28.8367 Q1859.97 29.8204 1862.31 32.685 Q1864.69 35.5496 1864.69 39.6873 Q1864.69 45.9662 1860.84 49.3227 Q1857.02 52.6791 1849.87 52.6791 Q1842.73 52.6791 1838.88 49.3227 Q1835.06 45.9662 1835.06 39.6873 Q1835.06 35.5496 1837.43 32.685 Q1839.8 29.8204 1844.03 28.8367 M1841.89 19.6064 Q1841.89 22.9628 1843.97 24.8436 Q1846.08 26.7244 1849.87 26.7244 Q1853.63 26.7244 1855.75 24.8436 Q1857.89 22.9628 1857.89 19.6064 Q1857.89 16.2499 1855.75 14.3691 Q1853.63 12.4884 1849.87 12.4884 Q1846.08 12.4884 1843.97 14.3691 Q1841.89 16.2499 1841.89 19.6064 Z" fill="#000000" fill-rule="nonzero" fill-opacity="1" /><path clip-path="url(#clip460)" d="M1873.48 6.87496 L1878.11 6.87496 Q1882.45 13.7036 1884.59 20.2429 Q1886.77 26.7823 1886.77 33.2348 Q1886.77 39.7162 1884.59 46.2845 Q1882.45 52.8527 1878.11 59.6525 L1873.48 59.6525 Q1877.33 53.0263 1879.21 46.487 Q1881.12 39.9188 1881.12 33.2348 Q1881.12 26.5508 1879.21 20.0404 Q1877.33 13.53 1873.48 6.87496 Z" fill="#000000" fill-rule="nonzero" fill-opacity="1" /><path clip-path="url(#clip462)" d="M365.223 106.192 L365.223 1423.18 L449.351 1423.18 L449.351 106.192 L365.223 106.192 L365.223 106.192  Z" fill="#4682b4" fill-rule="evenodd" fill-opacity="0.7"/>
<polyline clip-path="url(#clip462)" style="stroke:#000000; stroke-linecap:round; stroke-linejoin:round; stroke-width:4; stroke-opacity:0.7; fill:none" points="365.223,106.192 365.223,1423.18 449.351,1423.18 449.351,106.192 365.223,106.192 "/>
<path clip-path="url(#clip462)" d="M470.383 1286.12 L470.383 1423.18 L554.511 1423.18 L554.511 1286.12 L470.383 1286.12 L470.383 1286.12  Z" fill="#4682b4" fill-rule="evenodd" fill-opacity="0.7"/>
<polyline clip-path="url(#clip462)" style="stroke:#000000; stroke-linecap:round; stroke-linejoin:round; stroke-width:4; stroke-opacity:0.7; fill:none" points="470.383,1286.12 470.383,1423.18 554.511,1423.18 554.511,1286.12 470.383,1286.12 "/>
<path clip-path="url(#clip462)" d="M575.543 1278.45 L575.543 1423.18 L659.671 1423.18 L659.671 1278.45 L575.543 1278.45 L575.543 1278.45  Z" fill="#4682b4" fill-rule="evenodd" fill-opacity="0.7"/>
<polyline clip-path="url(#clip462)" style="stroke:#000000; stroke-linecap:round; stroke-linejoin:round; stroke-width:4; stroke-opacity:0.7; fill:none" points="575.543,1278.45 575.543,1423.18 659.671,1423.18 659.671,1278.45 575.543,1278.45 "/>
<path clip-path="url(#clip462)" d="M680.703 1266.07 L680.703 1423.18 L764.832 1423.18 L764.832 1266.07 L680.703 1266.07 L680.703 1266.07  Z" fill="#4682b4" fill-rule="evenodd" fill-opacity="0.7"/>
<polyline clip-path="url(#clip462)" style="stroke:#000000; stroke-linecap:round; stroke-linejoin:round; stroke-width:4; stroke-opacity:0.7; fill:none" points="680.703,1266.07 680.703,1423.18 764.832,1423.18 764.832,1266.07 680.703,1266.07 "/>
<path clip-path="url(#clip462)" d="M785.864 1315.74 L785.864 1423.18 L869.992 1423.18 L869.992 1315.74 L785.864 1315.74 L785.864 1315.74  Z" fill="#4682b4" fill-rule="evenodd" fill-opacity="0.7"/>
<polyline clip-path="url(#clip462)" style="stroke:#000000; stroke-linecap:round; stroke-linejoin:round; stroke-width:4; stroke-opacity:0.7; fill:none" points="785.864,1315.74 785.864,1423.18 869.992,1423.18 869.992,1315.74 785.864,1315.74 "/>
<path clip-path="url(#clip462)" d="M891.024 1191.14 L891.024 1423.18 L975.152 1423.18 L975.152 1191.14 L891.024 1191.14 L891.024 1191.14  Z" fill="#4682b4" fill-rule="evenodd" fill-opacity="0.7"/>
<polyline clip-path="url(#clip462)" style="stroke:#000000; stroke-linecap:round; stroke-linejoin:round; stroke-width:4; stroke-opacity:0.7; fill:none" points="891.024,1191.14 891.024,1423.18 975.152,1423.18 975.152,1191.14 891.024,1191.14 "/>
<path clip-path="url(#clip462)" d="M996.184 1144.44 L996.184 1423.18 L1080.31 1423.18 L1080.31 1144.44 L996.184 1144.44 L996.184 1144.44  Z" fill="#4682b4" fill-rule="evenodd" fill-opacity="0.7"/>
<polyline clip-path="url(#clip462)" style="stroke:#000000; stroke-linecap:round; stroke-linejoin:round; stroke-width:4; stroke-opacity:0.7; fill:none" points="996.184,1144.44 996.184,1423.18 1080.31,1423.18 1080.31,1144.44 996.184,1144.44 "/>
<path clip-path="url(#clip462)" d="M1101.34 1283.87 L1101.34 1423.18 L1185.47 1423.18 L1185.47 1283.87 L1101.34 1283.87 L1101.34 1283.87  Z" fill="#4682b4" fill-rule="evenodd" fill-opacity="0.7"/>
<polyline clip-path="url(#clip462)" style="stroke:#000000; stroke-linecap:round; stroke-linejoin:round; stroke-width:4; stroke-opacity:0.7; fill:none" points="1101.34,1283.87 1101.34,1423.18 1185.47,1423.18 1185.47,1283.87 1101.34,1283.87 "/>
<path clip-path="url(#clip462)" d="M1206.5 1303.73 L1206.5 1423.18 L1290.63 1423.18 L1290.63 1303.73 L1206.5 1303.73 L1206.5 1303.73  Z" fill="#4682b4" fill-rule="evenodd" fill-opacity="0.7"/>
<polyline clip-path="url(#clip462)" style="stroke:#000000; stroke-linecap:round; stroke-linejoin:round; stroke-width:4; stroke-opacity:0.7; fill:none" points="1206.5,1303.73 1206.5,1423.18 1290.63,1423.18 1290.63,1303.73 1206.5,1303.73 "/>
<path clip-path="url(#clip462)" d="M1311.66 1115.15 L1311.66 1423.18 L1395.79 1423.18 L1395.79 1115.15 L1311.66 1115.15 L1311.66 1115.15  Z" fill="#4682b4" fill-rule="evenodd" fill-opacity="0.7"/>
<polyline clip-path="url(#clip462)" style="stroke:#000000; stroke-linecap:round; stroke-linejoin:round; stroke-width:4; stroke-opacity:0.7; fill:none" points="1311.66,1115.15 1311.66,1423.18 1395.79,1423.18 1395.79,1115.15 1311.66,1115.15 "/>
<path clip-path="url(#clip462)" d="M1416.83 1250.49 L1416.83 1423.18 L1500.95 1423.18 L1500.95 1250.49 L1416.83 1250.49 L1416.83 1250.49  Z" fill="#4682b4" fill-rule="evenodd" fill-opacity="0.7"/>
<polyline clip-path="url(#clip462)" style="stroke:#000000; stroke-linecap:round; stroke-linejoin:round; stroke-width:4; stroke-opacity:0.7; fill:none" points="1416.83,1250.49 1416.83,1423.18 1500.95,1423.18 1500.95,1250.49 1416.83,1250.49 "/>
<path clip-path="url(#clip462)" d="M1521.99 1199.85 L1521.99 1423.18 L1606.11 1423.18 L1606.11 1199.85 L1521.99 1199.85 L1521.99 1199.85  Z" fill="#4682b4" fill-rule="evenodd" fill-opacity="0.7"/>
<polyline clip-path="url(#clip462)" style="stroke:#000000; stroke-linecap:round; stroke-linejoin:round; stroke-width:4; stroke-opacity:0.7; fill:none" points="1521.99,1199.85 1521.99,1423.18 1606.11,1423.18 1606.11,1199.85 1521.99,1199.85 "/>
<path clip-path="url(#clip462)" d="M1627.15 1204.59 L1627.15 1423.18 L1711.27 1423.18 L1711.27 1204.59 L1627.15 1204.59 L1627.15 1204.59  Z" fill="#4682b4" fill-rule="evenodd" fill-opacity="0.7"/>
<polyline clip-path="url(#clip462)" style="stroke:#000000; stroke-linecap:round; stroke-linejoin:round; stroke-width:4; stroke-opacity:0.7; fill:none" points="1627.15,1204.59 1627.15,1423.18 1711.27,1423.18 1711.27,1204.59 1627.15,1204.59 "/>
<path clip-path="url(#clip462)" d="M1732.31 1113.82 L1732.31 1423.18 L1816.43 1423.18 L1816.43 1113.82 L1732.31 1113.82 L1732.31 1113.82  Z" fill="#4682b4" fill-rule="evenodd" fill-opacity="0.7"/>
<polyline clip-path="url(#clip462)" style="stroke:#000000; stroke-linecap:round; stroke-linejoin:round; stroke-width:4; stroke-opacity:0.7; fill:none" points="1732.31,1113.82 1732.31,1423.18 1816.43,1423.18 1816.43,1113.82 1732.31,1113.82 "/>
<path clip-path="url(#clip462)" d="M1837.47 1272.31 L1837.47 1423.18 L1921.59 1423.18 L1921.59 1272.31 L1837.47 1272.31 L1837.47 1272.31  Z" fill="#4682b4" fill-rule="evenodd" fill-opacity="0.7"/>
<polyline clip-path="url(#clip462)" style="stroke:#000000; stroke-linecap:round; stroke-linejoin:round; stroke-width:4; stroke-opacity:0.7; fill:none" points="1837.47,1272.31 1837.47,1423.18 1921.59,1423.18 1921.59,1272.31 1837.47,1272.31 "/>
<path clip-path="url(#clip462)" d="M1942.63 1338.08 L1942.63 1423.18 L2026.75 1423.18 L2026.75 1338.08 L1942.63 1338.08 L1942.63 1338.08  Z" fill="#4682b4" fill-rule="evenodd" fill-opacity="0.7"/>
<polyline clip-path="url(#clip462)" style="stroke:#000000; stroke-linecap:round; stroke-linejoin:round; stroke-width:4; stroke-opacity:0.7; fill:none" points="1942.63,1338.08 1942.63,1423.18 2026.75,1423.18 2026.75,1338.08 1942.63,1338.08 "/>
<path clip-path="url(#clip462)" d="M2047.79 1243.53 L2047.79 1423.18 L2131.92 1423.18 L2131.92 1243.53 L2047.79 1243.53 L2047.79 1243.53  Z" fill="#4682b4" fill-rule="evenodd" fill-opacity="0.7"/>
<polyline clip-path="url(#clip462)" style="stroke:#000000; stroke-linecap:round; stroke-linejoin:round; stroke-width:4; stroke-opacity:0.7; fill:none" points="2047.79,1243.53 2047.79,1423.18 2131.92,1423.18 2131.92,1243.53 2047.79,1243.53 "/>
<path clip-path="url(#clip462)" d="M2152.95 1107.31 L2152.95 1423.18 L2237.08 1423.18 L2237.08 1107.31 L2152.95 1107.31 L2152.95 1107.31  Z" fill="#4682b4" fill-rule="evenodd" fill-opacity="0.7"/>
<polyline clip-path="url(#clip462)" style="stroke:#000000; stroke-linecap:round; stroke-linejoin:round; stroke-width:4; stroke-opacity:0.7; fill:none" points="2152.95,1107.31 2152.95,1423.18 2237.08,1423.18 2237.08,1107.31 2152.95,1107.31 "/>
<circle clip-path="url(#clip462)" style="fill:#4682b4; stroke:none; fill-opacity:0" cx="407.287" cy="106.192" r="2"/>
<circle clip-path="url(#clip462)" style="fill:#4682b4; stroke:none; fill-opacity:0" cx="512.447" cy="1286.12" r="2"/>
<circle clip-path="url(#clip462)" style="fill:#4682b4; stroke:none; fill-opacity:0" cx="617.607" cy="1278.45" r="2"/>
<circle clip-path="url(#clip462)" style="fill:#4682b4; stroke:none; fill-opacity:0" cx="722.767" cy="1266.07" r="2"/>
<circle clip-path="url(#clip462)" style="fill:#4682b4; stroke:none; fill-opacity:0" cx="827.928" cy="1315.74" r="2"/>
<circle clip-path="url(#clip462)" style="fill:#4682b4; stroke:none; fill-opacity:0" cx="933.088" cy="1191.14" r="2"/>
<circle clip-path="url(#clip462)" style="fill:#4682b4; stroke:none; fill-opacity:0" cx="1038.25" cy="1144.44" r="2"/>
<circle clip-path="url(#clip462)" style="fill:#4682b4; stroke:none; fill-opacity:0" cx="1143.41" cy="1283.87" r="2"/>
<circle clip-path="url(#clip462)" style="fill:#4682b4; stroke:none; fill-opacity:0" cx="1248.57" cy="1303.73" r="2"/>
<circle clip-path="url(#clip462)" style="fill:#4682b4; stroke:none; fill-opacity:0" cx="1353.73" cy="1115.15" r="2"/>
<circle clip-path="url(#clip462)" style="fill:#4682b4; stroke:none; fill-opacity:0" cx="1458.89" cy="1250.49" r="2"/>
<circle clip-path="url(#clip462)" style="fill:#4682b4; stroke:none; fill-opacity:0" cx="1564.05" cy="1199.85" r="2"/>
<circle clip-path="url(#clip462)" style="fill:#4682b4; stroke:none; fill-opacity:0" cx="1669.21" cy="1204.59" r="2"/>
<circle clip-path="url(#clip462)" style="fill:#4682b4; stroke:none; fill-opacity:0" cx="1774.37" cy="1113.82" r="2"/>
<circle clip-path="url(#clip462)" style="fill:#4682b4; stroke:none; fill-opacity:0" cx="1879.53" cy="1272.31" r="2"/>
<circle clip-path="url(#clip462)" style="fill:#4682b4; stroke:none; fill-opacity:0" cx="1984.69" cy="1338.08" r="2"/>
<circle clip-path="url(#clip462)" style="fill:#4682b4; stroke:none; fill-opacity:0" cx="2089.85" cy="1243.53" r="2"/>
<circle clip-path="url(#clip462)" style="fill:#4682b4; stroke:none; fill-opacity:0" cx="2195.01" cy="1107.31" r="2"/>
</svg>
